<?xml version="1.0" encoding="UTF-8"?>
<svg width="24px" height="24px" viewBox="0 0 24 24" version="1.1" xmlns="http://www.w3.org/2000/svg" xmlns:xlink="http://www.w3.org/1999/xlink">
    <title>Icons/Full Set/Node / Node</title>
    <g id="Icons/Full-Set/Node-/-Node" stroke="none" stroke-width="1" fill="none" fill-rule="evenodd">
        <path d="M11.9956,2.9999 C12.8236,2.9999 13.4956,3.6719 13.4956,4.4999 C13.4956,5.1519 13.0766,5.7009 12.4956,5.9079 L12.4956,5.9079 L12.4955644,9.57587653 C13.0252438,9.6882562 13.4928761,9.96829858 13.8403234,10.3578657 L17.0216,8.5209 C16.9096,7.9149 17.1756,7.2769 17.7406,6.9509 C17.9766,6.8139 18.2346,6.7499 18.4886,6.7499 C19.0076,6.7499 19.5116,7.0189 19.7896,7.4999 C20.2036,8.2179 19.9586,9.1349 19.2406,9.5489 C19.0046,9.6859 18.7466,9.7499 18.4916,9.7499 C18.1386,9.7499 17.7976,9.6159 17.5246,9.3849 L17.5246,9.3849 L14.3430809,11.2209675 C14.4279138,11.4722515 14.4739,11.7414422 14.4739,12.0214 C14.4739,12.2880885 14.4321697,12.5450063 14.354881,12.7859817 L17.5246,14.6149 C17.7976,14.3839 18.1386,14.2499 18.4916,14.2499 C18.7466,14.2499 19.0046,14.3139 19.2406,14.4509 C19.9586,14.8649 20.2036,15.7819 19.7896,16.4999 C19.5116,16.9809 19.0076,17.2499 18.4886,17.2499 C18.2346,17.2499 17.9766,17.1859 17.7406,17.0489 C17.1756,16.7229 16.9096,16.0859 17.0216,15.4789 L17.0216,15.4789 L13.8658816,13.6558293 C13.5159695,14.0605466 13.0383441,14.3517644 12.4955644,14.4669235 L12.4956,18.0919 C13.0766,18.2989 13.4956,18.8479 13.4956,19.4999 C13.4956,20.3279 12.8236,20.9999 11.9956,20.9999 C11.1666,20.9999 10.4956,20.3279 10.4956,19.4999 C10.4956,18.8479 10.9146,18.2989 11.4956,18.0919 L11.4956,18.0919 L11.4954547,14.4756934 C10.9425475,14.3685922 10.4547122,14.0793748 10.096847,13.6729393 L6.9696,15.4789 C7.0816,16.0859 6.8156,16.7229 6.2506,17.0489 C6.0136,17.1859 5.7566,17.2499 5.5016,17.2499 C4.9836,17.2499 4.4786,16.9809 4.2016,16.4999 C3.7866,15.7819 4.0326,14.8649 4.7506,14.4509 C4.9866,14.3139 5.2446,14.2499 5.4986,14.2499 C5.8526,14.2499 6.1936,14.3839 6.4656,14.6149 L6.4656,14.6149 L9.59936039,12.805779 C9.51795141,12.559096 9.4739,12.295405 9.4739,12.0214 C9.4739,11.7339265 9.52238845,11.457806 9.6116351,11.2007687 L6.4656,9.3849 C6.1936,9.6169 5.8526,9.7499 5.4986,9.7499 C5.2446,9.7499 4.9866,9.6859 4.7506,9.5489 C4.0326,9.1349 3.7866,8.2179 4.2016,7.4999 C4.4786,7.0189 4.9836,6.7499 5.5016,6.7499 C5.7566,6.7499 6.0136,6.8139 6.2506,6.9509 C6.8156,7.2769 7.0816,7.9149 6.9696,8.5209 L6.9696,8.5209 L10.1226645,10.3409907 C10.4780112,9.94973765 10.9557299,9.67165428 11.4954547,9.56710661 L11.4956,5.9079 C10.9146,5.7009 10.4956,5.1519 10.4956,4.4999 C10.4956,3.6719 11.1666,2.9999 11.9956,2.9999 Z" id="Combined-Shape" fill="#273637"></path>
    </g>
</svg>