<svg xmlns="http://www.w3.org/2000/svg" xmlns:xlink="http://www.w3.org/1999/xlink" viewBox="0 0 2500 2500"><defs><style>.cls-1,.cls-45,.cls-54{fill:none;}.cls-2{isolation:isolate;}.cls-3{fill:url(#Degradado_sin_nombre_19);}.cls-4{fill:url(#Degradado_sin_nombre_14);}.cls-5{fill:url(#linear-gradient);}.cls-6{fill:url(#Degradado_sin_nombre_35);}.cls-7{fill:url(#Degradado_sin_nombre_28);}.cls-8{fill:url(#linear-gradient-2);}.cls-9{fill:url(#Degradado_sin_nombre_45);}.cls-10{fill:#002530;}.cls-11{fill:url(#linear-gradient-3);}.cls-12{fill:#0088a1;}.cls-13{fill:#eafcfa;}.cls-14{opacity:0.33;}.cls-15{fill:#95eee5;}.cls-16{opacity:0.57;}.cls-17{fill:url(#linear-gradient-4);}.cls-18{fill:url(#linear-gradient-5);}.cls-19{fill:url(#Degradado_sin_nombre_44);}.cls-20{fill:#4dd2d2;}.cls-21{fill:url(#Degradado_sin_nombre_43);}.cls-22,.cls-64{fill:#00637f;}.cls-23{fill:#d5f8f5;}.cls-24{fill:url(#linear-gradient-6);}.cls-25{fill:url(#Degradado_sin_nombre_42);}.cls-26{fill:url(#Degradado_sin_nombre_41);}.cls-27{fill:url(#linear-gradient-7);}.cls-28{fill:#fbfefe;}.cls-29{fill:#fff;}.cls-30{fill:url(#Degradado_sin_nombre_39);}.cls-31{fill:url(#Degradado_sin_nombre_38);}.cls-32{fill:url(#linear-gradient-8);}.cls-33{mix-blend-mode:color;}.cls-34{fill:url(#Degradado_sin_nombre_37);}.cls-35{fill:url(#Degradado_sin_nombre_36);}.cls-36{clip-path:url(#clip-path);}.cls-37{fill:url(#linear-gradient-9);}.cls-38{fill:url(#Degradado_sin_nombre_12);}.cls-39{fill:url(#Degradado_sin_nombre_11);}.cls-39,.cls-57,.cls-59{filter:url(#AI_DesenfoqueGaussiano_7);}.cls-40{filter:url(#AI_DesenfoqueGaussiano_4);}.cls-41{fill:url(#linear-gradient-10);}.cls-42{fill:#f7fefd;}.cls-43{fill:url(#linear-gradient-11);}.cls-44{fill:url(#linear-gradient-12);}.cls-45,.cls-54{stroke:#002530;stroke-miterlimit:10;stroke-width:3px;}.cls-46{fill:url(#linear-gradient-13);}.cls-47{fill:url(#linear-gradient-14);}.cls-48{fill:url(#linear-gradient-15);}.cls-49{fill:url(#linear-gradient-16);}.cls-50{fill:url(#linear-gradient-17);}.cls-51{fill:url(#linear-gradient-18);}.cls-52{fill:url(#linear-gradient-19);}.cls-53{fill:url(#linear-gradient-20);}.cls-54{stroke-linecap:round;stroke-opacity:0.54;}.cls-55{fill:url(#Degradado_sin_nombre_8);}.cls-56{fill:url(#Degradado_sin_nombre_33);}.cls-57{fill:url(#Degradado_sin_nombre_46);}.cls-58{fill:url(#Degradado_sin_nombre_33-2);}.cls-59{fill:url(#Degradado_sin_nombre_25);}.cls-60{fill:url(#Degradado_sin_nombre_22);}.cls-61{fill:#12abbb;}.cls-62,.cls-64{fill-opacity:0.2;}.cls-62{fill:url(#Degradado_sin_nombre_20);}.cls-63{fill:url(#Degradado_sin_nombre_18);}.cls-65{fill:url(#Degradado_sin_nombre_16);}</style><linearGradient id="Degradado_sin_nombre_19" x1="-29.03" y1="64.17" x2="179.64" y2="200.71" gradientUnits="userSpaceOnUse"><stop offset="0.85" stop-color="#95eee5"/><stop offset="0.88" stop-color="#84e7e0"/><stop offset="0.96" stop-color="#5cd8d6"/><stop offset="1" stop-color="#4dd2d2"/></linearGradient><linearGradient id="Degradado_sin_nombre_14" x1="-8.89" y1="157.07" x2="192.32" y2="157.07" gradientUnits="userSpaceOnUse"><stop offset="0" stop-color="#eafcfa"/><stop offset="0.02" stop-color="#f0fdfb"/><stop offset="0.08" stop-color="#fbfefe"/><stop offset="0.14" stop-color="#fff"/><stop offset="0.2" stop-color="#95eee5"/><stop offset="0.37" stop-color="#95eee5"/><stop offset="0.57" stop-color="#95eee5"/><stop offset="0.99" stop-color="#95eee5"/></linearGradient><linearGradient id="linear-gradient" x1="96.63" y1="163.41" x2="155.82" y2="69.76" gradientUnits="userSpaceOnUse"><stop offset="0.01" stop-color="#002530"/><stop offset="0.58" stop-color="#00637f"/><stop offset="0.98" stop-color="#00637f"/><stop offset="1" stop-color="#00637f"/></linearGradient><linearGradient id="Degradado_sin_nombre_35" x1="-28.92" y1="64.16" x2="179.94" y2="200.83" gradientUnits="userSpaceOnUse"><stop offset="0.85" stop-color="#95eee5"/><stop offset="1" stop-color="#95eee5"/></linearGradient><linearGradient id="Degradado_sin_nombre_28" x1="-8.89" y1="157.21" x2="192.32" y2="157.21" gradientUnits="userSpaceOnUse"><stop offset="0" stop-color="#f7fefd"/><stop offset="0.04" stop-color="#fbfffe"/><stop offset="0.14" stop-color="#fff"/><stop offset="0.2" stop-color="#fbfefe"/><stop offset="0.37" stop-color="#eafcfa"/><stop offset="0.57" stop-color="#eafcfa"/><stop offset="0.99" stop-color="#eafcfa"/></linearGradient><linearGradient id="linear-gradient-2" x1="96.63" y1="163.55" x2="155.82" y2="69.91" gradientUnits="userSpaceOnUse"><stop offset="0.01" stop-color="#0088a1"/><stop offset="0.58" stop-color="#4dd2d2"/><stop offset="0.98" stop-color="#4dd2d2"/><stop offset="1" stop-color="#4dd2d2"/></linearGradient><linearGradient id="Degradado_sin_nombre_45" x1="1357.92" y1="1736.12" x2="2114.75" y2="1737.67" gradientUnits="userSpaceOnUse"><stop offset="0" stop-color="#002530" stop-opacity="0.5"/><stop offset="0.56" stop-color="#002530" stop-opacity="0.1"/><stop offset="0.82" stop-color="#002530" stop-opacity="0"/></linearGradient><linearGradient id="linear-gradient-3" x1="1348.66" y1="886.37" x2="933.73" y2="219.68" gradientUnits="userSpaceOnUse"><stop offset="0.01" stop-color="#95eee5"/><stop offset="0.13" stop-color="#95eee5"/><stop offset="0.23" stop-color="#ccf7f3"/><stop offset="0.97" stop-color="#ccf7f3"/><stop offset="1" stop-color="#ccf7f3"/></linearGradient><linearGradient id="linear-gradient-4" x1="1026.05" y1="1827.17" x2="1009.73" y2="1151.15" gradientUnits="userSpaceOnUse"><stop offset="0.19" stop-color="#95eee5" stop-opacity="0.4"/><stop offset="1" stop-color="#95eee5" stop-opacity="0"/></linearGradient><linearGradient id="linear-gradient-5" x1="973.64" y1="1491.84" x2="1068.05" y2="1186.47" xlink:href="#linear-gradient-4"/><linearGradient id="Degradado_sin_nombre_44" x1="933.29" y1="1647.41" x2="1262.46" y2="900.97" gradientUnits="userSpaceOnUse"><stop offset="0.03" stop-color="#002530" stop-opacity="0"/><stop offset="0.3" stop-color="#002530" stop-opacity="0.17"/><stop offset="0.73" stop-color="#002530" stop-opacity="0.63"/><stop offset="1" stop-color="#002530"/></linearGradient><linearGradient id="Degradado_sin_nombre_43" x1="666.71" y1="985.21" x2="1046.68" y2="675.18" gradientUnits="userSpaceOnUse"><stop offset="0" stop-color="#002530" stop-opacity="0"/><stop offset="1" stop-color="#002530"/></linearGradient><linearGradient id="linear-gradient-6" x1="1016.63" y1="1348.1" x2="1241.58" y2="1237.37" xlink:href="#linear-gradient-4"/><linearGradient id="Degradado_sin_nombre_42" x1="1185.63" y1="1280.29" x2="1491.58" y2="1282.4" gradientUnits="userSpaceOnUse"><stop offset="0.22" stop-color="#002530" stop-opacity="0"/><stop offset="1" stop-color="#002530"/></linearGradient><linearGradient id="Degradado_sin_nombre_41" x1="595.13" y1="1590.08" x2="759.53" y2="1157.15" gradientUnits="userSpaceOnUse"><stop offset="0.02" stop-color="#95eee5" stop-opacity="0.4"/><stop offset="0.47" stop-color="#c0f5ef" stop-opacity="0.4"/><stop offset="1" stop-color="#fff" stop-opacity="0.4"/></linearGradient><linearGradient id="linear-gradient-7" x1="484.93" y1="920.88" x2="1373.6" y2="1046.63" gradientUnits="userSpaceOnUse"><stop offset="0" stop-color="#fbfefe"/><stop offset="0.55" stop-color="#fbfefe"/><stop offset="0.99" stop-color="#eafcfa"/><stop offset="0.99" stop-color="#eafcfa" stop-opacity="0.9"/></linearGradient><linearGradient id="Degradado_sin_nombre_39" x1="936.46" y1="897.07" x2="997.6" y2="795.17" gradientUnits="userSpaceOnUse"><stop offset="0.14" stop-color="#002530" stop-opacity="0"/><stop offset="0.37" stop-color="#002530" stop-opacity="0.58"/><stop offset="0.52" stop-color="#002530"/></linearGradient><linearGradient id="Degradado_sin_nombre_38" x1="780.15" y1="795.96" x2="910.42" y2="1018.5" gradientUnits="userSpaceOnUse"><stop offset="0" stop-color="#eafcfa" stop-opacity="0"/><stop offset="0.01" stop-color="#e3fbf8" stop-opacity="0"/><stop offset="0.38" stop-color="#95eee5" stop-opacity="0"/><stop offset="0.62" stop-color="#0088a1" stop-opacity="0.2"/><stop offset="0.86" stop-color="#0088a1" stop-opacity="0"/></linearGradient><linearGradient id="linear-gradient-8" x1="965.78" y1="879.8" x2="1064.69" y2="690.23" xlink:href="#linear-gradient-4"/><linearGradient id="Degradado_sin_nombre_37" x1="1446.42" y1="2961.51" x2="790.61" y2="226.36" gradientUnits="userSpaceOnUse"><stop offset="0" stop-color="#d5f8f5" stop-opacity="0.1"/><stop offset="0.06" stop-color="#d5f8f5" stop-opacity="0.23"/><stop offset="0.15" stop-color="#d5f8f5" stop-opacity="0.38"/><stop offset="0.25" stop-color="#d5f8f5" stop-opacity="0.51"/><stop offset="0.35" stop-color="#d5f8f5" stop-opacity="0.62"/><stop offset="0.46" stop-color="#d5f8f5" stop-opacity="0.7"/><stop offset="0.59" stop-color="#d5f8f5" stop-opacity="0.76"/><stop offset="0.74" stop-color="#d5f8f5" stop-opacity="0.79"/><stop offset="1" stop-color="#d5f8f5" stop-opacity="0.8"/></linearGradient><linearGradient id="Degradado_sin_nombre_36" x1="1052.63" y1="1210.21" x2="1046.55" y2="1348.76" gradientUnits="userSpaceOnUse"><stop offset="0" stop-color="#95eee5" stop-opacity="0.5"/><stop offset="0.09" stop-color="#95eee5" stop-opacity="0.46"/><stop offset="0.56" stop-color="#95eee5" stop-opacity="0.1"/><stop offset="0.82" stop-color="#95eee5" stop-opacity="0"/></linearGradient><clipPath id="clip-path"><path id="SVGID" class="cls-1" d="M1005.42,894.38,781,763.5,526.15,910.36,646,979.58a84,84,0,0,1,18.73,15A116.82,116.82,0,0,1,680.69,1016l12.14,20.93q7.74,13.47,19,20l5.8,3.34,131.85,76.08q8.35,4.85,14.86,3.61a16.8,16.8,0,0,0,4.14-1.58l12.13-6.95a26.25,26.25,0,0,1,15.84-3,47.37,47.37,0,0,1,18.73,6.59l87,50.23,252.51-145.54Z"/></clipPath><linearGradient id="linear-gradient-9" x1="927.17" y1="963.51" x2="994.77" y2="867.94" xlink:href="#Degradado_sin_nombre_43"/><radialGradient id="Degradado_sin_nombre_12" cx="2117.24" cy="2279.52" r="307.52" gradientTransform="matrix(-0.41, 0.71, -0.41, -0.7, 3296.6, 2097.41)" gradientUnits="userSpaceOnUse"><stop offset="0" stop-color="#002530" stop-opacity="0.3"/><stop offset="1" stop-color="#002530" stop-opacity="0"/></radialGradient><linearGradient id="Degradado_sin_nombre_11" x1="1334.11" y1="1981.54" x2="2401.49" y2="1981.54" gradientUnits="userSpaceOnUse"><stop offset="0" stop-color="#002530" stop-opacity="0.5"/><stop offset="0.48" stop-color="#002530" stop-opacity="0.1"/><stop offset="1" stop-color="#002530" stop-opacity="0"/></linearGradient><filter id="AI_DesenfoqueGaussiano_7" name="AI_DesenfoqueGaussiano_7"><feGaussianBlur stdDeviation="7"/></filter><filter id="AI_DesenfoqueGaussiano_4" name="AI_DesenfoqueGaussiano_4"><feGaussianBlur stdDeviation="4"/></filter><linearGradient id="linear-gradient-10" x1="356.95" y1="125.66" x2="2667.22" y2="2154.43" xlink:href="#Degradado_sin_nombre_43"/><linearGradient id="linear-gradient-11" x1="1189.96" y1="846.25" x2="1201.61" y2="794.97" gradientUnits="userSpaceOnUse"><stop offset="0" stop-color="#eafcfa" stop-opacity="0"/><stop offset="1" stop-color="#eafcfa" stop-opacity="0.7"/></linearGradient><linearGradient id="linear-gradient-12" x1="1197.84" y1="859.45" x2="1235.13" y2="881.6" xlink:href="#linear-gradient-11"/><linearGradient id="linear-gradient-13" x1="1200.07" y1="1177.52" x2="1256.01" y2="1151.1" xlink:href="#linear-gradient-11"/><linearGradient id="linear-gradient-14" x1="1543.35" y1="1678.82" x2="1300.91" y2="893.24" xlink:href="#Degradado_sin_nombre_43"/><linearGradient id="linear-gradient-15" x1="1348.21" y1="1200.45" x2="1168.71" y2="1087" xlink:href="#Degradado_sin_nombre_43"/><linearGradient id="linear-gradient-16" x1="874.12" y1="529.34" x2="1819.47" y2="1359.5" xlink:href="#Degradado_sin_nombre_43"/><linearGradient id="linear-gradient-17" x1="812.96" y1="529.67" x2="1659.41" y2="1272.97" xlink:href="#Degradado_sin_nombre_43"/><linearGradient id="linear-gradient-18" x1="1150.09" y1="841.51" x2="1206.03" y2="558.67" gradientUnits="userSpaceOnUse"><stop offset="0.09" stop-color="#fff" stop-opacity="0"/><stop offset="1" stop-color="#fff"/></linearGradient><linearGradient id="linear-gradient-19" x1="1157.64" y1="843.01" x2="1213.59" y2="560.17" xlink:href="#linear-gradient-18"/><linearGradient id="linear-gradient-20" x1="1622.88" y1="1658.99" x2="1483.06" y2="1361.26" xlink:href="#Degradado_sin_nombre_43"/><linearGradient id="Degradado_sin_nombre_8" x1="1388.01" y1="1218.03" x2="1334.39" y2="297.25" gradientUnits="userSpaceOnUse"><stop offset="0" stop-color="#0088a1" stop-opacity="0"/><stop offset="1" stop-color="#fff"/></linearGradient><radialGradient id="Degradado_sin_nombre_33" cx="1635.38" cy="3395.94" r="94.68" gradientTransform="matrix(-0.41, 0.71, -0.41, -0.7, 2431.29, 3481.89)" xlink:href="#Degradado_sin_nombre_12"/><linearGradient id="Degradado_sin_nombre_46" x1="319.71" y1="2254.76" x2="648.34" y2="2254.76" xlink:href="#Degradado_sin_nombre_11"/><radialGradient id="Degradado_sin_nombre_33-2" cx="1621.04" cy="3305.43" r="247.82" gradientTransform="matrix(-0.41, 0.71, -0.41, -0.7, 2441.86, 3385.81)" xlink:href="#Degradado_sin_nombre_12"/><linearGradient id="Degradado_sin_nombre_25" x1="290.69" y1="2200.27" x2="1150.88" y2="2200.27" xlink:href="#Degradado_sin_nombre_11"/><linearGradient id="Degradado_sin_nombre_22" x1="220.18" y1="2006.59" x2="843.87" y2="2006.86" gradientUnits="userSpaceOnUse"><stop offset="0" stop-color="#eafcfa" stop-opacity="0.8"/><stop offset="0.55" stop-color="#eafcfa" stop-opacity="0.8"/><stop offset="0.99" stop-color="#d5f8f5" stop-opacity="0.8"/></linearGradient><linearGradient id="Degradado_sin_nombre_20" x1="545.49" y1="1900.43" x2="210.25" y2="2281.02" gradientUnits="userSpaceOnUse"><stop offset="0" stop-color="#0088a1" stop-opacity="0.3"/><stop offset="0.2" stop-color="#0088a1" stop-opacity="0.33"/><stop offset="0.44" stop-color="#0088a1" stop-opacity="0.42"/><stop offset="0.68" stop-color="#0088a1" stop-opacity="0.56"/><stop offset="0.94" stop-color="#0088a1" stop-opacity="0.76"/><stop offset="0.99" stop-color="#0088a1" stop-opacity="0.8"/></linearGradient><linearGradient id="Degradado_sin_nombre_18" x1="374.1" y1="1962.87" x2="440.54" y2="2002.5" gradientUnits="userSpaceOnUse"><stop offset="0" stop-color="#eafcfa" stop-opacity="0.6"/><stop offset="0.55" stop-color="#eafcfa" stop-opacity="0.4"/><stop offset="0.99" stop-color="#d5f8f5" stop-opacity="0"/></linearGradient><linearGradient id="Degradado_sin_nombre_16" x1="781.96" y1="2164.74" x2="387.12" y2="1920.51" gradientUnits="userSpaceOnUse"><stop offset="0" stop-color="#00637f" stop-opacity="0.6"/><stop offset="0.99" stop-color="#00637f" stop-opacity="0"/></linearGradient><symbol id="FOLDER" data-name="FOLDER" viewBox="0 0 206.49 311.02"><g class="cls-2"><path class="cls-3" d="M197,133.37,112.68,84.71,99.37,55.53a25.39,25.39,0,0,0-9.66-11.3L15.38,1.31C12.72-.22,10.32-.37,8.58.64L3.29,3.75c1.74-1,4.15-.86,6.8.67L84.43,47.33c3.84,2.22,7.43,6.43,9.66,11.31L107.4,87.82l84.28,48.66c5.28,3.05,9.54,10.44,9.53,16.51l-.43,151.26c0,3-1.07,5.13-2.79,6.13l5.29-3.11c1.71-1,2.78-3.12,2.78-6.13l.43-151.26C206.51,143.81,202.25,136.42,197,133.37Z"/><path class="cls-4" d="M84.43,47.33c3.84,2.22,7.43,6.43,9.66,11.31L107.4,87.82l84.28,48.66c5.28,3.05,9.54,10.44,9.53,16.51l-.43,151.26c0,6.07-4.31,8.51-9.59,5.46L9.53,204.83C4.25,201.78,0,194.4,0,188.33L.51,9.88c0-6.06,4.3-8.51,9.58-5.46Z"/><path class="cls-5" d="M84.43,47.33c3.84,2.22,7.43,6.43,9.66,11.31L107.4,87.82l84.28,48.66c5.28,3.05,9.54,10.44,9.53,16.51l-.43,151.26c0,6.07-4.31,8.51-9.59,5.46L9.53,204.83C4.25,201.78,0,194.4,0,188.33L.51,9.88c0-6.06,4.3-8.51,9.58-5.46Z"/></g></symbol><symbol id="FOLDER_2" data-name="FOLDER 2" viewBox="0 0 206.96 311.17"><g class="cls-2"><path class="cls-6" d="M197.43,133.37,113.15,84.71,99.84,55.53c-2.23-4.88-5.82-9.08-9.67-11.3L15.84,1.31C13.19-.22,10.78-.37,9,.64L3.29,3.9c1.74-1,4.15-.87,6.8.67L84.43,47.48c3.84,2.22,7.43,6.43,9.66,11.3L107.4,88l84.28,48.66c5.28,3,9.54,10.45,9.53,16.51l-.43,151.27c0,3-1.07,5.13-2.79,6.13l5.75-3.26c1.72-1,2.78-3.12,2.79-6.13L207,149.88C207,143.81,202.71,136.42,197.43,133.37Z"/><path class="cls-7" d="M84.43,47.48c3.84,2.22,7.43,6.43,9.66,11.3L107.4,88l84.28,48.66c5.28,3,9.54,10.45,9.53,16.51l-.43,151.27c0,6.06-4.31,8.51-9.59,5.46L9.53,205c-5.28-3-9.55-10.44-9.53-16.5L.51,10c0-6.07,4.3-8.51,9.58-5.46Z"/><path class="cls-8" d="M84.43,47.48c3.84,2.22,7.43,6.43,9.66,11.3L107.4,88l84.28,48.66c5.28,3,9.54,10.45,9.53,16.51l-.43,151.27c0,6.06-4.31,8.51-9.59,5.46L9.53,205c-5.28-3-9.55-10.44-9.53-16.5L.51,10c0-6.07,4.3-8.51,9.58-5.46Z"/></g></symbol></defs><g class="cls-2"><g id="ARTWORK"><g id="Drawer_unit" data-name="Drawer unit"><polygon class="cls-9" points="1278.09 1943.12 2158.61 1943.12 2058.68 1530.39 1284.86 1530.39 1278.09 1943.12"/><g id="desk_0_Layer0_0_FILL" data-name="desk 0 Layer0 0 FILL"><path class="cls-10" d="M1346.51,1666.07V422.2H846.93V1666.07Z"/></g><path class="cls-11" d="M1813.47,536.19q0-38.7-23.92-80t-57.79-60.86L1305.18,149q-31.32-18.1-54.19-7.74c-1.18.57-2.35,1.19-3.51,1.85q-2,1.15-3.87,2.46L756.24,426.86q22.11-8.48,51.81,8.62l426.59,246.28q33.85,19.53,57.78,60.86c16,27.56,24,73.59,24,99.39V1885.17q0,37.69-22.78,51.63L1789,1651.29a5.16,5.16,0,0,0,.53-.26,2.11,2.11,0,0,0,.35-.26l.7-.36q22.88-13.89,22.87-51.8Z"/><g id="desk_0_Layer0_2_FILL" data-name="desk 0 Layer0 2 FILL"><path class="cls-12" d="M773.48,1316.8v27.09l128.59,74.32a84.11,84.11,0,0,1,18.74,15,116.9,116.9,0,0,1,15.92,21.38l11,19q7.83,13.47,19,20L1104.37,1573q11.09,6.42,19,1.94l11-6.25a25.18,25.18,0,0,1,6.59-2.55,30.75,30.75,0,0,1,9.33-.44,48.2,48.2,0,0,1,18.73,6.6l119.09,68.78v228.25q0,13.8-4.57,22.78a27.89,27.89,0,0,0,18.64-12.32,15.64,15.64,0,0,0,1.24-2q5.1-9.22,5.1-23.75V1625.79L1189.43,1557a47.92,47.92,0,0,0-18.74-6.6,26.42,26.42,0,0,0-15.92,3l-11,6.24a12.74,12.74,0,0,1-4.14,1.5q-6.54,1.39-14.86-3.43l-137.65-79.42q-11.18-6.51-19-20l-11-19A117.63,117.63,0,0,0,941.22,1418a84,84,0,0,0-18.74-15Z"/><path class="cls-13" d="M773.48,1343.89l-20.4-11.79v228.34q0,25.77,15.92,53.21t38.26,40.28l426.58,246.28q22.52,13,38.35,4a28.14,28.14,0,0,0,11.35-12.05q4.57-9,4.57-22.78V1641.09L1169,1572.31a48.2,48.2,0,0,0-18.73-6.6,30.75,30.75,0,0,0-9.33.44,25.18,25.18,0,0,0-6.59,2.55l-11,6.25q-7.92,4.48-19-1.94l-137.65-79.42q-11.16-6.51-19-20l-11-19a116.9,116.9,0,0,0-15.92-21.38,84.11,84.11,0,0,0-18.74-15Z"/><g class="cls-14"><path class="cls-15" d="M758.08,1340.76l12.9,7.46,128.6,74.32a79.51,79.51,0,0,1,17.59,14.14,112.14,112.14,0,0,1,15.23,20.45l11,19c5.64,9.68,12.64,17,20.82,21.78l137.65,79.42c5.1,3,10,4.45,14.45,4.45a19.17,19.17,0,0,0,9.52-2.49l11-6.24a20.08,20.08,0,0,1,5.23-2,23.9,23.9,0,0,1,4.88-.48,27.87,27.87,0,0,1,2.85.14,43.34,43.34,0,0,1,16.74,6L1283.11,1644v225.36c0,8.36-1.35,15.26-4,20.53a23.25,23.25,0,0,1-21,13c-6.37,0-13.68-2.35-21.73-7L809.76,1649.6c-14.12-8.13-26.37-21.07-36.44-38.46s-15.24-34.5-15.24-50.7V1340.76m-5-8.66v228.34q0,25.77,15.92,53.21t38.26,40.28l426.58,246.28q13.28,7.68,24.23,7.67a28.27,28.27,0,0,0,25.47-15.76q4.57-9,4.57-22.78V1641.09L1169,1572.31a48.2,48.2,0,0,0-18.73-6.6c-1.15-.11-2.27-.16-3.36-.16a28.78,28.78,0,0,0-6,.6,25.18,25.18,0,0,0-6.59,2.55l-11,6.25a14.05,14.05,0,0,1-7,1.84q-5.41,0-12-3.78l-137.65-79.42q-11.16-6.51-19-20l-11-19a116.9,116.9,0,0,0-15.92-21.38,84.11,84.11,0,0,0-18.74-15l-128.59-74.32-20.4-11.79Z"/></g><g class="cls-16"><path class="cls-15" d="M755.08,1335.57l17.4,10,128.6,74.32a82.66,82.66,0,0,1,18.28,14.68,116.41,116.41,0,0,1,15.64,21l11,19c5.37,9.23,12,16.19,19.72,20.69l137.65,79.42c4.64,2.69,9,4,13,4a16.09,16.09,0,0,0,8-2.1l11-6.24a22.54,22.54,0,0,1,6-2.34,26.85,26.85,0,0,1,5.55-.56c1,0,2.09,0,3.14.15a46.32,46.32,0,0,1,18,6.34l118.09,68.21v227.09c0,8.84-1.46,16.19-4.36,21.88a26.27,26.27,0,0,1-23.68,14.66c-6.91,0-14.72-2.49-23.23-7.4L808.26,1652.2c-14.58-8.4-27.2-21.71-37.53-39.55s-15.65-35.47-15.65-52.21V1335.57m-2-3.47v228.34q0,25.77,15.92,53.21t38.26,40.28l426.58,246.28q13.28,7.68,24.23,7.67a28.27,28.27,0,0,0,25.47-15.76q4.57-9,4.57-22.78V1641.09L1169,1572.31a48.2,48.2,0,0,0-18.73-6.6c-1.15-.11-2.27-.16-3.36-.16a28.78,28.78,0,0,0-6,.6,25.18,25.18,0,0,0-6.59,2.55l-11,6.25a14.05,14.05,0,0,1-7,1.84q-5.41,0-12-3.78l-137.65-79.42q-11.16-6.51-19-20l-11-19a116.9,116.9,0,0,0-15.92-21.38,84.11,84.11,0,0,0-18.74-15l-128.59-74.32-20.4-11.79Z"/></g></g><path class="cls-17" d="M773.48,1343.89l-20.4-11.79v228.34q0,25.77,15.92,53.21t38.26,40.28l426.58,246.28q22.52,13,38.35,4a28.14,28.14,0,0,0,11.35-12.05q4.57-9,4.57-22.78V1641.09L1169,1572.31a48.2,48.2,0,0,0-18.73-6.6,30.75,30.75,0,0,0-9.33.44,25.18,25.18,0,0,0-6.59,2.55l-11,6.25q-7.92,4.48-19-1.94l-137.65-79.42q-11.16-6.51-19-20l-11-19a116.9,116.9,0,0,0-15.92-21.38,84.11,84.11,0,0,0-18.74-15Z"/><path class="cls-13" d="M1151.34,1273.17a25.45,25.45,0,0,0-15.83,3l-12.14,6.86q-7.92,4.49-19-1.93l-137.65-79.43q-11.16-6.5-19-20.05l-12.13-20.93a117.7,117.7,0,0,0-15.92-21.38,84.39,84.39,0,0,0-18.74-15l-147.85-85.4V1332.1l535,309V1347.85l-118-68.17A46.43,46.43,0,0,0,1151.34,1273.17Z"/><g class="cls-14"><path class="cls-15" d="M758.08,1047.52l140.35,81.08a79.27,79.27,0,0,1,17.6,14.14,112.72,112.72,0,0,1,15.23,20.45l12.13,20.92c5.64,9.75,12.64,17.11,20.83,21.89l137.65,79.41c5.1,3,10,4.46,14.45,4.46a19.1,19.1,0,0,0,9.51-2.49l12.18-6.89a19.24,19.24,0,0,1,9.89-2.51,29,29,0,0,1,2.9.16h.06a41.58,41.58,0,0,1,16.72,5.86l115.53,66.72v281.7l-525-303.21v-281.7m-5-8.66V1332.1l535,309V1347.85l-118-68.17a46.43,46.43,0,0,0-18.74-6.51,33.82,33.82,0,0,0-3.44-.19,24.32,24.32,0,0,0-12.39,3.18l-12.14,6.86a14.06,14.06,0,0,1-7,1.85q-5.41,0-12-3.78l-137.65-79.43q-11.16-6.5-19-20.05l-12.13-20.93a117.7,117.7,0,0,0-15.92-21.38,84.39,84.39,0,0,0-18.74-15l-147.85-85.4Z"/></g><g class="cls-16"><path class="cls-15" d="M755.08,1042.32,899.93,1126a82.2,82.2,0,0,1,18.28,14.68,115.56,115.56,0,0,1,15.65,21L946,1182.61c5.37,9.29,12,16.29,19.73,20.79l137.65,79.42c4.64,2.69,9,4,13,4a16.09,16.09,0,0,0,8-2.11l12.15-6.86a22.4,22.4,0,0,1,11.39-2.92,30.61,30.61,0,0,1,3.25.18,44.72,44.72,0,0,1,17.93,6.25l117,67.59v288.63L755.08,1331V1042.32m-2-3.46V1332.1l535,309V1347.85l-118-68.17a46.43,46.43,0,0,0-18.74-6.51,33.82,33.82,0,0,0-3.44-.19,24.32,24.32,0,0,0-12.39,3.18l-12.14,6.86a14.06,14.06,0,0,1-7,1.85q-5.41,0-12-3.78l-137.65-79.43q-11.16-6.5-19-20.05l-12.13-20.93a117.7,117.7,0,0,0-15.92-21.38,84.39,84.39,0,0,0-18.74-15l-147.85-85.4Z"/></g><path class="cls-18" d="M1151.34,1273.17a25.45,25.45,0,0,0-15.83,3l-12.14,6.86q-7.92,4.49-19-1.93l-137.65-79.43q-11.16-6.5-19-20.05l-12.13-20.93a117.7,117.7,0,0,0-15.92-21.38,84.39,84.39,0,0,0-18.74-15l-147.85-85.4V1332.1l535,309V1347.85l-118-68.17A46.43,46.43,0,0,0,1151.34,1273.17Z"/><path class="cls-19" d="M1151.34,1273.17a25.45,25.45,0,0,0-15.83,3l-12.14,6.86q-7.92,4.49-19-1.93l-137.65-79.43q-11.16-6.5-19-20.05l-12.13-20.93a117.7,117.7,0,0,0-15.92-21.38,84.39,84.39,0,0,0-18.74-15l-147.85-85.4V1551l535,309V1347.85l-118-68.17A46.43,46.43,0,0,0,1151.34,1273.17Z"/><path class="cls-20" d="M646,979.58a84,84,0,0,1,18.73,15A116.82,116.82,0,0,1,680.69,1016l12.14,20.93q7.74,13.47,19,20l5.8,3.34L1023.1,884,798.64,753.09,526.15,910.36,646,979.58"/><path class="cls-21" d="M646,979.58a84,84,0,0,1,18.73,15A116.82,116.82,0,0,1,680.69,1016l12.14,20.93q7.74,13.47,19,20l5.8,3.34L1023.1,884,798.64,753.09,526.15,910.36,646,979.58"/><g id="desk_0_Layer0_4_FILL" data-name="desk 0 Layer0 4 FILL"><path class="cls-22" d="M880.61,1131.39a26.25,26.25,0,0,1,15.84-3,47.37,47.37,0,0,1,18.73,6.59l87,50.23,270.2-156L1023.1,884,717.63,1060.23l131.85,76.08q8.35,4.85,14.86,3.61a16.8,16.8,0,0,0,4.14-1.58l12.13-6.95"/><path class="cls-23" d="M1033.22,1203.25,1006,1219l.35.62v293.24l298.26-172-.79-1.32V1047.57l-.44-.27-270,155.86Z"/><path class="cls-24" d="M1033.22,1203.25,1006,1219l.35.62v293.24l298.26-172-.79-1.32V1047.57l-.44-.27-270,155.86Z"/><path class="cls-25" d="M1033.22,1203.25,1006,1219l.35.62v293.24l298.26-172-.79-1.32V1047.57l-.44-.27-270,155.86Z"/><path class="cls-13" d="M888.27,1151.53a47.59,47.59,0,0,0-18.74-6.6,28.7,28.7,0,0,0-14.95,2.55,7.22,7.22,0,0,0-.88.44l-12.14,6.95q-7.92,4.39-19-2l-137.65-79.42q-11.25-6.51-19-20l-12.13-20.93a117.7,117.7,0,0,0-15.92-21.38,84.39,84.39,0,0,0-18.74-15L498.45,926.36l-.27.18v-.26l-26.91-15.57V1204l535,308.9V1219.61l-.7-.44-117.33-67.64m-390.09,35.89-.26-.44.26-.09Z"/><path class="cls-26" d="M888.27,1151.53a47.59,47.59,0,0,0-18.74-6.6,28.7,28.7,0,0,0-14.95,2.55,7.22,7.22,0,0,0-.88.44l-12.14,6.95q-7.92,4.39-19-2l-137.65-79.42q-11.25-6.51-19-20l-12.13-20.93a117.7,117.7,0,0,0-15.92-21.38,84.39,84.39,0,0,0-18.74-15L498.45,926.36l-.27.18v-.26l-26.91-15.57V1204l535,308.9V1219.61l-.7-.44-117.33-67.64m-390.09,35.89-.26-.44.26-.09Z"/><path class="cls-27" d="M889.27,1149.8a49.67,49.67,0,0,0-19.53-6.86,28.12,28.12,0,0,0-3-.17c-.66,0-1.34,0-2,.08a27.06,27.06,0,0,0-11,2.81,8.45,8.45,0,0,0-1.08.55l-12.1,6.93a12,12,0,0,1-6,1.52c-3.27,0-7-1.19-11-3.54l-137.66-79.43c-7.16-4.14-13.3-10.61-18.26-19.23l-12.14-20.94a119.62,119.62,0,0,0-16.2-21.74,86.54,86.54,0,0,0-19.19-15.4L499.27,924.53l-.26-.09-23.87-13.8,23.93-15L770.4,739l24.25,14.12L522.15,910.36,645,981.31A82.43,82.43,0,0,1,663.32,996,114.83,114.83,0,0,1,679,1017l12.14,20.93c5.31,9.23,11.95,16.19,19.73,20.69l5.8,3.35,131.85,76.08c4.72,2.73,9.15,4.12,13.14,4.12a16.44,16.44,0,0,0,3.09-.29,18.48,18.48,0,0,0,4.72-1.79l12.18-7a23.31,23.31,0,0,1,11.59-2.89c1,0,2,.06,3,.16a45.68,45.68,0,0,1,17.92,6.33l88,50.81,270.19-156,27,15.71-265.7,153.37-2.42-2.44v3.87l-25.6,14.78Z"/><path class="cls-28" d="M770.4,741.27l20.26,11.8L524.15,906.89l-6,3.46,6,3.47L644,983a80.75,80.75,0,0,1,17.82,14.32A113.52,113.52,0,0,1,677.23,1018l12.13,20.92c5.49,9.55,12.38,16.76,20.47,21.44l5.8,3.34,131.84,76.08a36.28,36.28,0,0,0,7.22,3.25c-.6.25-1.2.52-1.78.82a9.45,9.45,0,0,0-1.23.62l-12.08,6.92a10.13,10.13,0,0,1-5,1.27c-2.91,0-6.28-1.1-10-3.28L686.91,1070c-6.85-4-12.75-10.18-17.54-18.51l-12.14-20.94a121.92,121.92,0,0,0-16.48-22.12,88.36,88.36,0,0,0-19.63-15.74L500.45,922.9l-.35-.2-.27-.09-20.82-12,21.06-13.24L770.4,741.27m502,292.63,23,13.39L1034,1198.16l-4.74-4.74v7.52l-23.6,13.62-115.34-66.49a53,53,0,0,0-18.69-6.91l11-6.29a21.08,21.08,0,0,1,10.62-2.64,26.92,26.92,0,0,1,2.82.15,43.64,43.64,0,0,1,17.16,6.08l87,50.22,2,1.16,2-1.16,268.19-154.78M770.41,736.64,498,893.91l-26.74,16.8,26.91,15.57.27.08,120.67,69.75a84.39,84.39,0,0,1,18.74,15,117.7,117.7,0,0,1,15.92,21.38l12.13,20.93q7.74,13.45,19,20l137.65,79.42q6.59,3.81,12,3.81a14.09,14.09,0,0,0,7-1.79l12.14-6.95a7.22,7.22,0,0,1,.88-.44,24.94,24.94,0,0,1,10.29-2.63c.61,0,1.22-.08,1.84-.08a27,27,0,0,1,2.82.16,47.59,47.59,0,0,1,18.74,6.6l117.33,67.64.35-.18,27.27-15.74v-.18l.08.09,270-155.86-31-18-270.2,156-87-50.23a47.37,47.37,0,0,0-18.73-6.59c-1.11-.11-2.2-.17-3.25-.17a25.2,25.2,0,0,0-12.59,3.16l-12.13,6.95a16.8,16.8,0,0,1-4.14,1.58,14.26,14.26,0,0,1-2.72.25q-5.48,0-12.14-3.86l-131.85-76.08-5.8-3.34q-11.26-6.51-19-20L680.69,1016a116.82,116.82,0,0,0-15.92-21.37,84,84,0,0,0-18.73-15L526.15,910.36,798.64,753.09l-28.23-16.45Z"/><path class="cls-29" d="M770.4,739l24.25,14.12L525.15,908.62l-3,1.74,3,1.73L645,981.31A82.66,82.66,0,0,1,663.32,996,115.51,115.51,0,0,1,679,1017l12.13,20.93c5.32,9.24,12,16.2,19.74,20.7l5.8,3.34L848.48,1138c4.72,2.74,9.15,4.13,13.14,4.13a16.44,16.44,0,0,0,3.09-.29h0l0,0a18.57,18.57,0,0,0,4.66-1.79l12.13-6.94a23.28,23.28,0,0,1,11.6-2.9c1,0,2,.06,3,.16a45.61,45.61,0,0,1,17.95,6.34l87,50.22,1,.58,1-.58,269.19-155.37,27,15.71-265.71,153.37-2.41-2.42v3.85l-25.6,14.78L889.27,1149.8a49.5,49.5,0,0,0-19.52-6.85,26.06,26.06,0,0,0-3-.17c-.66,0-1.32,0-2,.07a27.18,27.18,0,0,0-11,2.81,7.25,7.25,0,0,0-1,.53l-12.12,6.93a12,12,0,0,1-6,1.54c-3.27,0-7-1.19-11-3.54l-137.65-79.43c-7.16-4.14-13.3-10.61-18.27-19.23l-12.14-20.94a119.12,119.12,0,0,0-16.2-21.75,86.5,86.5,0,0,0-19.18-15.39L499.45,924.63l-.18-.1-.19-.06-.07,0-23.87-13.8,23.9-15L770.4,739m0-2.32L498,893.91l-26.74,16.8,26.91,15.57.27.08,120.67,69.75a84.39,84.39,0,0,1,18.74,15,117.7,117.7,0,0,1,15.92,21.38l12.13,20.93q7.74,13.45,19,20l137.65,79.42q6.59,3.81,12,3.81a14.09,14.09,0,0,0,7-1.79l12.14-6.95a7.22,7.22,0,0,1,.88-.44,24.94,24.94,0,0,1,10.29-2.63c.61,0,1.22-.08,1.84-.08a27,27,0,0,1,2.82.16,47.59,47.59,0,0,1,18.74,6.6l117.33,67.64.35-.18,27.27-15.74v-.18l.08.09,270-155.86-31-18-270.2,156-87-50.23a47.37,47.37,0,0,0-18.73-6.59c-1.11-.11-2.2-.17-3.25-.17a25.2,25.2,0,0,0-12.59,3.16l-12.13,6.95a16.8,16.8,0,0,1-4.14,1.58,14.26,14.26,0,0,1-2.72.25q-5.48,0-12.14-3.86l-131.85-76.08-5.8-3.34q-11.26-6.51-19-20L680.69,1016a116.82,116.82,0,0,0-15.92-21.37,84,84,0,0,0-18.73-15L526.15,910.36,798.64,753.09l-28.23-16.45Z"/><path class="cls-30" d="M798.64,753.09l-28.23-16.45L498,893.91l-26.74,16.8,26.91,15.57.27.08,120.67,69.75a84.39,84.39,0,0,1,18.74,15,117.7,117.7,0,0,1,15.92,21.38l12.13,20.93q7.74,13.45,19,20l137.65,79.42q11.09,6.42,19,2l12.14-6.95a7.22,7.22,0,0,1,.88-.44,28.7,28.7,0,0,1,14.95-2.55,47.59,47.59,0,0,1,18.74,6.6l117.33,67.64.35-.18,27.27-15.74v-.18l.08.09,270-155.86-31-18-270.2,156-87-50.23a47.37,47.37,0,0,0-18.73-6.59,26.25,26.25,0,0,0-15.84,3l-12.13,6.95a16.8,16.8,0,0,1-4.14,1.58q-6.51,1.23-14.86-3.61l-131.85-76.08-5.8-3.34q-11.26-6.51-19-20L680.69,1016a116.82,116.82,0,0,0-15.92-21.37,84,84,0,0,0-18.73-15L526.15,910.36Z"/><path class="cls-31" d="M798.64,753.09l-28.23-16.45L498,893.91l-26.74,16.8,26.91,15.57.27.08,120.67,69.75a84.39,84.39,0,0,1,18.74,15,117.7,117.7,0,0,1,15.92,21.38l12.13,20.93q7.74,13.45,19,20l137.65,79.42q11.09,6.42,19,2l12.14-6.95a7.22,7.22,0,0,1,.88-.44,28.7,28.7,0,0,1,14.95-2.55,47.59,47.59,0,0,1,18.74,6.6l117.33,67.64.35-.18,27.27-15.74v-.18l.08.09,270-155.86-31-18-270.2,156-87-50.23a47.37,47.37,0,0,0-18.73-6.59,26.25,26.25,0,0,0-15.84,3l-12.13,6.95a16.8,16.8,0,0,1-4.14,1.58q-6.51,1.23-14.86-3.61l-131.85-76.08-5.8-3.34q-11.26-6.51-19-20L680.69,1016a116.82,116.82,0,0,0-15.92-21.37,84,84,0,0,0-18.73-15L526.15,910.36Z"/></g><g id="desk_0_Layer0_5_FILL" data-name="desk 0 Layer0 5 FILL"><path class="cls-12" d="M1174.12,655a26.43,26.43,0,0,0-15.92,3l-11,6.25a14.17,14.17,0,0,1-5.81,1.76,17.78,17.78,0,0,1-2.9-.09,27.25,27.25,0,0,1-10.38-3.61L990.56,582.9q-11.26-6.51-19-20l-11-19a117.63,117.63,0,0,0-15.92-21.37,84.33,84.33,0,0,0-18.74-15l-94.82-54.71q-22.43-13-38.26-4a27.48,27.48,0,0,0-10.55,10.65q11.25-.36,25,7.65l94.81,54.71a83.82,83.82,0,0,1,18.74,15,116.82,116.82,0,0,1,15.92,21.37l11,19q7.74,13.46,19,20l137.56,79.43a27.22,27.22,0,0,0,10.38,3.6,13.85,13.85,0,0,0,8.71-1.67l11-6.24a23.37,23.37,0,0,1,5.27-2.2c.71-.18,1.44-.32,2.2-.44a28.39,28.39,0,0,1,8.45-.35A48,48,0,0,1,1169,676l64.82,37.47q22.52,12.93,38.35,40.29c10.62,18.29,15.92,55.38,15.92,72.56v201.59l23.84,13.73-3.34-247.34q-6.33-23-22.17-46.35T1254,700.05l-61.13-38.43A48.08,48.08,0,0,0,1174.12,655Z"/><path class="cls-13" d="M1169,676a48,48,0,0,0-18.73-6.59,28.39,28.39,0,0,0-8.45.35c-.76.12-1.49.26-2.2.44a23.37,23.37,0,0,0-5.27,2.2l-11,6.24a13.85,13.85,0,0,1-8.71,1.67,27.22,27.22,0,0,1-10.38-3.6L966.72,597.23q-11.25-6.51-19-20l-11-19a116.82,116.82,0,0,0-15.92-21.37,83.82,83.82,0,0,0-18.74-15l-94.81-54.71q-13.72-8-25-7.65c-.65,0-1.29,0-1.94.08A27,27,0,0,0,769,463.19q-15.93,9.06-15.92,34.83V747l535,308.9V826.27c0-17.18-5.3-54.27-15.92-72.56s-23.34-31.67-38.35-40.29Z"/><g class="cls-14"><path class="cls-15" d="M783.23,464.48c6.33,0,13.56,2.35,21.53,7l94.82,54.71a79.22,79.22,0,0,1,17.59,14.14,112.52,112.52,0,0,1,15.23,20.44l11,19c5.58,9.7,12.59,17,20.83,21.8L1101.83,681a32.3,32.3,0,0,0,12.3,4.23c.81.08,1.62.13,2.4.13a18.33,18.33,0,0,0,9.33-2.44l11-6.24a18.7,18.7,0,0,1,4.08-1.71c.53-.13,1.09-.24,1.67-.33l.11,0,.11,0a22.41,22.41,0,0,1,4.33-.41c.85,0,1.75,0,2.6.13a43.47,43.47,0,0,1,16.77,5.95l64.83,37.48c14.17,8.13,26.46,21.07,36.52,38.46s15.24,54.34,15.24,70v221l-525-303.12V498c0-15.38,4.38-25.36,13.39-30.49h0a21.77,21.77,0,0,1,9.28-2.95c.49,0,1-.06,1.48-.06h1m0-5-1,0c-.65,0-1.29,0-1.94.08A26.89,26.89,0,0,0,769,463.19q-15.93,9.06-15.92,34.83V747l535,308.9V826.27c0-17.18-5.3-54.27-15.92-72.56s-23.34-31.67-38.35-40.29L1169,676a48,48,0,0,0-18.73-6.59,30.72,30.72,0,0,0-3.14-.16,27,27,0,0,0-5.31.51c-.76.12-1.49.26-2.2.44a23.37,23.37,0,0,0-5.27,2.2l-11,6.24a13.37,13.37,0,0,1-6.84,1.78,17.18,17.18,0,0,1-1.87-.11,27.22,27.22,0,0,1-10.38-3.6L966.72,597.23q-11.25-6.51-19-20l-11-19a116.82,116.82,0,0,0-15.92-21.37,83.82,83.82,0,0,0-18.74-15l-94.81-54.71q-13.14-7.66-24-7.67Z"/></g><g class="cls-16"><path class="cls-15" d="M783.23,461.48c6.87,0,14.61,2.49,23,7.4l94.82,54.71a82.66,82.66,0,0,1,18.28,14.68,116,116,0,0,1,15.64,21l11,19c5.31,9.24,12,16.21,19.73,20.71L1103.3,678.4a29.25,29.25,0,0,0,11.15,3.85,18.4,18.4,0,0,0,2.08.12,15.37,15.37,0,0,0,7.83-2l11-6.25a21.7,21.7,0,0,1,4.8-2c.63-.15,1.3-.29,2-.39h.08a25.35,25.35,0,0,1,4.92-.47,29,29,0,0,1,2.92.15,46.16,46.16,0,0,1,18,6.34l64.83,37.47c14.63,8.4,27.28,21.71,37.61,39.55,10.08,17.37,15.65,53.34,15.65,71.56v226.19l-531-306.59V498c0-16.33,5-27.46,14.93-33.1a25,25,0,0,1,10.52-3.35c.58-.05,1.17-.07,1.75-.07h1m0-2-1,0c-.65,0-1.29,0-1.94.08A26.89,26.89,0,0,0,769,463.19q-15.93,9.06-15.92,34.83V747l535,308.9V826.27c0-17.18-5.3-54.27-15.92-72.56s-23.34-31.67-38.35-40.29L1169,676a48,48,0,0,0-18.73-6.59,30.72,30.72,0,0,0-3.14-.16,27,27,0,0,0-5.31.51c-.76.12-1.49.26-2.2.44a23.37,23.37,0,0,0-5.27,2.2l-11,6.24a13.37,13.37,0,0,1-6.84,1.78,17.18,17.18,0,0,1-1.87-.11,27.22,27.22,0,0,1-10.38-3.6L966.72,597.23q-11.25-6.51-19-20l-11-19a116.82,116.82,0,0,0-15.92-21.37,83.82,83.82,0,0,0-18.74-15l-94.81-54.71q-13.14-7.66-24-7.67Z"/></g></g><path class="cls-32" d="M1171.53,676a48.05,48.05,0,0,0-18.74-6.59,28.33,28.33,0,0,0-8.44.35c-.76.12-1.5.26-2.2.44a23.25,23.25,0,0,0-5.28,2.2l-11,6.24a13.86,13.86,0,0,1-8.71,1.67,27.22,27.22,0,0,1-10.38-3.6L969.23,597.23q-11.26-6.51-19-20l-11-19a117.28,117.28,0,0,0-15.92-21.37,83.82,83.82,0,0,0-18.74-15l-94.81-54.71q-13.72-8-25-7.65c-.65,0-1.29,0-1.94.08a27.07,27.07,0,0,0-11.35,3.61q-15.91,9.06-15.92,34.83V747l535,308.9V826.27c0-17.18-5.31-54.27-15.92-72.56s-23.34-31.67-38.35-40.29Z"/><path class="cls-13" d="M1273,753.62c10.62,18.29,15.92,55.38,15.92,72.56V1869.25q0,25.77-15.92,34.83t-38.34-4L808.05,1653.84q-22.42-12.93-38.26-40.28t-15.92-53.21V1367.11l-27.53-15.92v193.33q0,38.7,24,80t57.7,60.86l426.59,246.28q33.85,19.44,57.78,5.8t24-52.33V842c0-25.8-8-71.83-24-99.39s-35.21-47.84-57.78-60.86L808.05,435.48q-33.78-19.44-57.7-5.8t-24,52.33v280l27.53-15.92V497.93q0-25.77,15.92-34.83t38.26,4l426.59,246.28Q1257.16,726.26,1273,753.62Z"/><g class="cls-33"><path class="cls-34" d="M1273,753.62c10.62,18.29,15.92,55.38,15.92,72.56V1869.25q0,25.77-15.92,34.83t-38.34-4L808.05,1653.84q-22.42-12.93-38.26-40.28t-15.92-53.21V1367.11l-27.53-15.92v193.33q0,38.7,24,80t57.7,60.86l426.59,246.28q33.85,19.44,57.78,5.8t24-52.33V842c0-25.8-8-71.83-24-99.39s-35.21-47.84-57.78-60.86L808.05,435.48q-33.78-19.44-57.7-5.8t-24,52.33v280l27.53-15.92V497.93q0-25.77,15.92-34.83t38.26,4l426.59,246.28Q1257.16,726.26,1273,753.62Z"/></g><polygon class="cls-35" points="1035.51 1202.2 1035.51 1408.03 1093.16 1369.46 1093.16 1166.98 1054.12 1154.86 1006.3 1182.83 1035.51 1202.2"/><g id="FOLDERS-GREEN"><g class="cls-36"><use width="206.49" height="311.02" transform="translate(959.64 698.57) scale(1.76)" xlink:href="#FOLDER"/><use width="206.49" height="311.02" transform="translate(910.88 726.54) scale(1.76)" xlink:href="#FOLDER"/><use width="206.49" height="311.02" transform="translate(862.12 754.52) scale(1.76)" xlink:href="#FOLDER"/><use width="206.49" height="311.02" transform="translate(813.36 782.49) scale(1.76)" xlink:href="#FOLDER"/><use width="206.49" height="311.02" transform="translate(764.6 810.46) scale(1.76)" xlink:href="#FOLDER"/><use width="206.96" height="311.17" transform="translate(715.84 838.18) scale(1.76)" xlink:href="#FOLDER_2"/><use width="206.49" height="311.02" transform="translate(667.09 866.41) scale(1.76)" xlink:href="#FOLDER"/><use width="206.49" height="311.02" transform="translate(618.33 894.38) scale(1.76)" xlink:href="#FOLDER"/></g></g><polygon class="cls-37" points="780.96 763.5 1254.68 1039.68 1098.77 1129.46 622.78 854.67 780.96 763.5"/></g><g id="MAN"><ellipse class="cls-38" cx="1500.08" cy="2005.18" rx="177.66" ry="307.73" transform="translate(-514.51 3492.62) rotate(-89.64)"/><path class="cls-39" d="M2401.49,1981.54c.44,74-102.74,133.94-230.42,133.89l-605,.05a401.78,401.78,0,0,1-40.92-2.1c-3.81-.39-7.57-.88-11.28-1.37s-7.42-1-11.09-1.66-7.27-1.22-10.88-1.95-7.13-1.42-10.6-2.25c-6.59-1.46-13-3.17-19.29-5-2-.64-4.15-1.22-6.2-1.86-3.27-1.07-6.49-2.14-9.72-3.27s-6.29-2.24-9.37-3.46c-6.15-2.4-12.11-5-17.82-7.72-2.88-1.37-5.67-2.73-8.45-4.2s-5.42-2.93-8.06-4.44-5.17-3.08-7.66-4.64-4.93-3.22-7.28-4.88a162.93,162.93,0,0,1-13.38-10.3c-2.1-1.76-4.1-3.57-6-5.42s-3.81-3.72-5.62-5.62c-.87-.93-1.75-1.9-2.58-2.83a111.28,111.28,0,0,1-8.69-11c-.93-1.32-1.81-2.64-2.69-4l-1.9-3.08c-1.23-2.1-2.35-4.2-3.42-6.3s-2-4.25-2.88-6.44-1.66-4.35-2.35-6.55c-.34-1.07-.68-2.19-1-3.27-.59-2.24-1.08-4.49-1.52-6.74a85,85,0,0,1-1.27-13.67c-.39-74,102.79-133.93,230.47-133.93h605c2,0,4,.05,6,.05,8,.14,15.77.48,23.49,1,5.81.44,11.52,1,17.19,1.66s11.18,1.47,16.7,2.35c8.59,1.41,17,3.12,25.19,5.07,2.25.54,4.49,1.13,6.69,1.66,6.84,1.81,13.48,3.76,20,5.91q4.83,1.62,9.52,3.37a259.58,259.58,0,0,1,39,18.12c15.72,9.08,29.2,19.48,39.94,30.86,1.8,1.9,3.51,3.85,5.17,5.81s3.18,3.9,4.64,5.9a98.61,98.61,0,0,1,9.47,15.48,85.38,85.38,0,0,1,7,19.63,73.61,73.61,0,0,1,1.86,13.58C2401.44,1979.25,2401.49,1980.37,2401.49,1981.54Z"/><g class="cls-40"><path class="cls-41" d="M1192.23,947.06l77.49-32.9a316.27,316.27,0,0,1-31.2-35.48q25.24-6.7,10.27-20.91l-.18-.17a78.11,78.11,0,0,0-12.82-9.26c-.81-.5-1.65-1-2.51-1.49-2.74-1.58-5.71-3.21-9-4.9l3.34-36.41h0c.25-1.47.45-2.88.6-4.26,0-.23.06-.47.08-.7.12-1.16.2-2.28.25-3.38,0-.46,0-.92.05-1.36,0-.88,0-1.73,0-2.56q-.84-25.74-31-24.14a22.3,22.3,0,0,0-4.83-3.61q-34.9,3-52.93,8.41a194,194,0,0,1-34.26-4.8l-.09-.18q-28.15-12.35-32.81,1.15c-.11.39-.18.75-.28,1.13h0q-8,31,28.78,28.76a31.78,31.78,0,0,0,5.75,7.68c.07,2.84.21,5.89.42,9.17a6.26,6.26,0,0,0,1,3l7,10.92a3.85,3.85,0,0,1,.59,2.56l-1.07,9.17c-.64,4.36,1.18,12.34,6.92,33.8q-4.95,10.8-1.84,25.19c2.42,7.92,1.83,5.16,7.94,9.24,17.44,0,24.36,0,39.52-4.3a9.2,9.2,0,0,0,1,4.25l2-1.27Q1179.57,932.76,1192.23,947.06ZM1167,904.19l-6.73-8.58a41,41,0,0,0,3.34-4.79l.3-.05q2.64,8.84,5.66,16.69Z"/></g><g id="MAN_0_Layer0_0_FILL" data-name="MAN 0 Layer0 0 FILL"><path class="cls-42" d="M1121.6,784.25q-17.43-17.57-14.26,32.6a6.19,6.19,0,0,0,1,3l7,10.93a3.85,3.85,0,0,1,.59,2.56l-1.07,9.17c-.77,5.23,2,15.64,10.82,48.29q13.45,4.53,38.26,0,11,36.69,28.32,56.29l77.49-32.9q-41-40.62-55.41-78l-7-45.74q-3.13-18.63-14.51-24.89Q1129.39,771,1121.6,784.25Z"/></g><g id="MAN_0_Layer0_0_FILL-2" data-name="MAN 0 Layer0 0 FILL"><path class="cls-43" d="M1121.6,784.25q-17.43-17.57-14.26,32.6a6.19,6.19,0,0,0,1,3l7,10.93a3.85,3.85,0,0,1,.59,2.56l-1.07,9.17c-.77,5.23,2,15.64,10.82,48.29q13.45,4.53,38.26,0,11,36.69,28.32,56.29l77.49-32.9q-41-40.62-55.41-78l-7-45.74q-3.13-18.63-14.51-24.89Q1129.39,771,1121.6,784.25Z"/></g><g id="MAN_0_Layer0_0_FILL-3" data-name="MAN 0 Layer0 0 FILL"><path class="cls-44" d="M1121.6,784.25q-17.43-17.57-14.26,32.6a6.19,6.19,0,0,0,1,3l7,10.93a3.85,3.85,0,0,1,.59,2.56l-1.07,9.17c-.77,5.23,2,15.64,10.82,48.29q13.45,4.53,38.26,0,11,36.69,28.32,56.29l77.49-32.9q-41-40.62-55.41-78l-7-45.74q-3.13-18.63-14.51-24.89Q1129.39,771,1121.6,784.25Z"/></g><g id="MAN_0_Layer0_1_FILL" data-name="MAN 0 Layer0 1 FILL"><path class="cls-12" d="M1156.4,936.6l16,16.62L1282,910.12q-13.83-19.08-25.24-23.49-40.71,1.46-99.77,43.12A4.54,4.54,0,0,0,1156.4,936.6Z"/></g><g id="MAN_0_Layer0_2_MEMBER_0_FILL" data-name="MAN 0 Layer0 2 MEMBER 0 FILL"><path class="cls-15" d="M1455.75,2050.9q24.78,3.85,27.18-15.74-9.39,5.83-29.21.26-97.82-37.12-92.88-70.1-13.33,8,7.83,34.66Q1412.22,2033.22,1455.75,2050.9Z"/><path class="cls-20" d="M1412.74,1911.14l18.2,57.87q-21-3.66-19.17-3.25-39.09-7.56-50.93-.44-4.93,33,92.88,70.1,19.82,5.58,29.21-.26a6.71,6.71,0,0,0,.17-1.06L1490,1903Z"/></g><path id="MAN_0_Layer0_2_MEMBER_1_1_STROKES" data-name="MAN 0 Layer0 2 MEMBER 1 1 STROKES" class="cls-45" d="M1414.06,1956.79l5.63,28.58a31.5,31.5,0,0,0,8.09,13.81"/><g id="MAN_0_Layer0_2_MEMBER_4_FILL" data-name="MAN 0 Layer0 2 MEMBER 4 FILL"><path class="cls-10" d="M1360.84,1965.32a12.56,12.56,0,0,0-3,2.46q-1.1,33.65,94.91,70.1h.08l.18.09q18.62,5.23,28.59.88a3.05,3.05,0,0,0,.7-.35,19.08,19.08,0,0,0,.62-3.34,6.71,6.71,0,0,0,.17-1.06l.09-2.37a12.69,12.69,0,0,1-3.61,2.2q-8.76,3.55-25.15-1.06-98-37.26-90.6-69A17.22,17.22,0,0,0,1360.84,1965.32Z"/></g><g id="MAN_0_Layer0_3_MEMBER_0_FILL" data-name="MAN 0 Layer0 3 MEMBER 0 FILL"><path class="cls-15" d="M1726.05,1936.63q-8.11,7.51-28.62,5.81-103.11-17.84-104.52-51.15-11.58,10.43,14.27,32.54,49.08,24.36,95.18,33.43Q1727.43,1956.32,1726.05,1936.63Z"/><path class="cls-20" d="M1633.54,1828.23l28.89,53.35q-21.29.39-19.44.46-39.81,0-50.08,9.25,1.41,33.32,104.52,51.15,20.5,1.71,28.62-5.81a7.78,7.78,0,0,0,0-1.07q-6.64-57.84-23.47-130.82Z"/></g><path id="MAN_0_Layer0_3_MEMBER_1_1_STROKES" data-name="MAN 0 Layer0 3 MEMBER 1 1 STROKES" class="cls-45" d="M1643.5,1872.75l11,27a31.62,31.62,0,0,0,10.58,12"/><g id="MAN_0_Layer0_3_MEMBER_4_FILL" data-name="MAN 0 Layer0 3 MEMBER 4 FILL"><path class="cls-10" d="M1592.91,1891.29a12.27,12.27,0,0,0-2.47,3q5.32,33.24,106.51,50.77l.08,0,.19,0q19.27,1.61,28.23-4.57a3.08,3.08,0,0,0,.63-.48,19.42,19.42,0,0,0,0-3.4,7.78,7.78,0,0,0,0-1.07l-.37-2.35a12.77,12.77,0,0,1-3.12,2.85q-7.93,5.16-24.9,3.75-103.31-17.94-102.06-50.47A18.1,18.1,0,0,0,1592.91,1891.29Z"/></g><g id="MAN_0_Layer0_4_MEMBER_0_FILL" data-name="MAN 0 Layer0 4 MEMBER 0 FILL"><path class="cls-13" d="M1167.56,1067.85c.11,0,.23-.13.35,0-1,3.41-2.08,7.84-2.84,11.22-8.31,36.75,2.82,71.36,17.91,102.89a234.4,234.4,0,0,0,12.32,22c21.72,33.4,64.84,94.47,103.81,101.08,57.85-42.65,63.55-120.12,65.26-186.24-52.46,24.81-73.27,6.5-105.9-34.44-1.39,20.26-1.91,40.55-3.78,60.77-21.86-30.53-34.55-58.85-32-96.8,0-.11-.13-.14-.12-.24a24.55,24.55,0,0,0-4.4-17.49c-12.43-8.66-23.16-14.66-38.5-16-16.18,4.59-30.24,13-44.31,21.87-1.91,1.22-3.9,3.6-1.87,5.35,5.58,4.81,11.23,3.92,17.92,2.3,5.29,1.23,10.49,2.69,15.72,4.12-6,2.75-12,5.54-18.09,8.26-2.48,3.22-2.75,5.54.45,8.28C1155.67,1065.22,1161.41,1067.11,1167.56,1067.85Z"/><path class="cls-12" d="M1383.44,1092.77c7.8-20.54,11.09-34.92,19.16-57.14,10-27.37,34.4-49.31,60.56-64.63-40.26-65.57-88.28-100.94-166.46-77-6.28,40.4-15.69,80.26-25,120C1295.59,1051.86,1331.58,1105.3,1383.44,1092.77Z"/><path class="cls-13" d="M1271.71,1014.05c-2.44,10.75-4.71,21.54-6.89,32.35,23.19,36.43,57.15,86.48,107,77.71q6.06-15.64,11.7-31.45C1331.48,1105.46,1295.65,1051.78,1271.71,1014.05Z"/></g><path class="cls-46" d="M1167.56,1067.85c.11,0,.23-.13.35,0-1,3.41-2.08,7.84-2.84,11.22-8.31,36.75,2.82,71.36,17.91,102.89a234.4,234.4,0,0,0,12.32,22c21.72,33.4,64.84,94.47,103.81,101.08,57.85-42.65,63.55-120.12,65.26-186.24-52.46,24.81-73.27,6.5-105.9-34.44-1.39,20.26-1.91,40.55-3.78,60.77-21.86-30.53-34.55-58.85-32-96.8,0-.11-.13-.14-.12-.24a24.55,24.55,0,0,0-4.4-17.49c-12.43-8.66-23.16-14.66-38.5-16-16.18,4.59-30.24,13-44.31,21.87-1.91,1.22-3.9,3.6-1.87,5.35,5.58,4.81,11.23,3.92,17.92,2.3,5.29,1.23,10.49,2.69,15.72,4.12-6,2.75-12,5.54-18.09,8.26-2.48,3.22-2.75,5.54.45,8.28C1155.67,1065.22,1161.41,1067.11,1167.56,1067.85Z"/><g id="MAN_0_Layer0_5_FILL" data-name="MAN 0 Layer0 5 FILL"><path class="cls-22" d="M1639.05,1271.44q-389-72.37-193.68,96h-94.29q-14.25,228.75,0,291,27.2,170.32,36.06,215.32,13.36,75.57,24,89.89,90,41.43,85.32,2.73,1.26-200.16,4.4-272.23l25.07-58.4q6.76,19.9,16.09,41.16,64.83,140.64,97.1,202.21,60.81,18.6,80.57,3.35-3.51-73.89-80-267Q1676.17,1353.59,1639.05,1271.44Z"/></g><g id="MAN_0_Layer0_5_FILL-2" data-name="MAN 0 Layer0 5 FILL"><path class="cls-47" d="M1639.05,1271.44q-389-72.37-193.68,96h-94.29q-14.25,228.75,0,291,27.2,170.32,36.06,215.32,13.36,75.57,24,89.89,90,41.43,85.32,2.73,1.26-200.16,4.4-272.23l25.07-58.4q6.76,19.9,16.09,41.16,64.83,140.64,97.1,202.21,60.81,18.6,80.57,3.35-3.51-73.89-80-267Q1676.17,1353.59,1639.05,1271.44Z"/></g><g id="MAN_0_Layer0_6_FILL" data-name="MAN 0 Layer0 6 FILL"><path class="cls-20" d="M1481.34,1374.35q164.57-53.58,159-101.06-113.8-247.08-165.27-296.77-85.26-77.24-143-90.59-93,7.88-175.21,69.66v145.92q81.45,98.41,147.77,155.5l21.9,99.57q5.79,19.08,21.55,25.86Q1407.13,1395.38,1481.34,1374.35Z"/></g><g id="MAN_0_Layer0_8_FILL" data-name="MAN 0 Layer0 8 FILL"><path class="cls-48" d="M1248.94,1192.71q-1.14,2.55-2.47,5.36,33.79,37.74,64.65,67.47c1.77-65.82-14-141.88-56.44-212.73Z"/></g><g id="MAN_0_Layer0_10_FILL" data-name="MAN 0 Layer0 10 FILL"><path class="cls-22" d="M1152.21,830.37l.15,0-.08-.13Z"/><path class="cls-22" d="M1218.09,823.57l3.34-36.41c4.52-26.22-8-38.67-31.84-50.52-21.64-10.75-66.87-15.76-90.24,14.1l-.09-.17c-18.77-8.24-25.49,24.7-4.31,31q7.47,13.57,21,14.16s2.94,30.11,24,30.11c.29-4.38,1.37-20.78,1.37-20.78q4.75-3.17,7.48-1.67,2.46,1.32,2.37,6.15c-.08,3.51-5.39,16-7.08,19.82.66,3.61,5.37,3.08,10.93,3.73,4.44.53,6.28,3.8,11.28,13.48.29.52.55,1,.79,1.59.2.34.4.75.62,1.23l.7,1.49q7.53,14.6,21.2,8.71,4.41,9,14,8.36,8.34,2.38,13-4.75Q1278.93,854.92,1218.09,823.57Z"/></g><path class="cls-49" d="M1218.09,823.57l3.34-36.41c1.22-7.06,1.3-13.06.32-18.08-20.33-8.91-54.12,14.37-55,28.38-2.09,31.39,34.83,30.45,31.09,36.27-2.91,4.52-14-1.92-20.2,3.1-4.21,3.4-5.63,11.59-4.43,20.62,4.45,4.26,9.95,5,16.52,2.18q4.41,9,14,8.36,8.34,2.38,13-4.75Q1278.93,854.92,1218.09,823.57Z"/><path class="cls-50" d="M1124.66,788a40.23,40.23,0,0,1-17.42-3.51c1,0,2,0,3.14,0-2.69-2.23-8-4.29-14.19-10.13a51.19,51.19,0,0,1-12.42-18.62l-.12.22a34.24,34.24,0,0,0-1.08,13.28A17.66,17.66,0,0,0,1095,781.61q7.47,13.57,21,14.16s2.94,30.11,24,30.11C1140,825.88,1112.19,825.88,1124.66,788Z"/><g id="MAN_0_Layer0_10_FILL-2" data-name="MAN 0 Layer0 10 FILL"><path class="cls-51" d="M1152.21,830.37l.15,0-.08-.13Z"/><path class="cls-52" d="M1218.09,823.57l3.34-36.41c4.52-26.22-8-38.67-31.84-50.52-21.64-10.75-66.87-15.76-90.24,14.1l-.09-.17c-18.77-8.24-25.49,24.7-4.31,31q7.47,13.57,21,14.16s2.94,30.11,24,30.11c.29-4.38,1.37-20.78,1.37-20.78q4.75-3.17,7.48-1.67,2.46,1.32,2.37,6.15c-.08,3.51-5.39,16-7.08,19.82.66,3.61,5.37,3.08,10.93,3.73,4.44.53,6.28,3.8,11.28,13.48.29.52.55,1,.79,1.59.2.34.4.75.62,1.23l.7,1.49q7.53,14.6,21.2,8.71,4.41,9,14,8.36,8.34,2.38,13-4.75Q1278.93,854.92,1218.09,823.57Z"/></g><g id="hand2"><g id="Layer2_7_FILL" data-name="Layer2 7 FILL"><path class="cls-29" d="M957.48,1058.44q-5.33-.56-23.63-1.09a3.86,3.86,0,0,0-3.87,3c-1.28,5.57,4.32,9.16,19,9.35l9.42,1.27,28.71,11.22,1.68-12.44A225.33,225.33,0,0,0,957.48,1058.44Z"/></g><g id="Layer2_9_FILL" data-name="Layer2 9 FILL"><path class="cls-29" d="M947.09,1088.41q-5.55,3.91-7.14,31A119,119,0,0,0,952.08,1138q6.55,3.7,17.95,2.21a7.94,7.94,0,0,0-.18-8.8c5,11.74,27.45,19,51.32,24.34l38.13-29.67q-40.63-38.3-71.18-56.81-3.27-.8-10.22,4.66l-11.53,2.55a86.44,86.44,0,0,1-8.23,6.51A37.08,37.08,0,0,0,947.09,1088.41Z"/></g><g id="Layer2_10_FILL" data-name="Layer2 10 FILL"><path class="cls-13" d="M968,1137.3l10.63,3.52c-14.64-13.3-21.22-20.2-29.29-29.8,3.08,8.13,2.87,13.15,8.19,17.86Z"/></g></g><g id="MAN_0_Layer0_9_FILL" data-name="MAN 0 Layer0 9 FILL"><path class="cls-29" d="M1002.56,1157c6.18-16.8,16.58-29,30-41.07,1.78-1.61,6.14-3.6,8.58-4.75,0-.13-.16-.19-.22-.3-35.44-2.94-48.71,4.43-48.24,36.1.14.17,9.81,9.84,9.93,10m145.52-7.11c4.5,19.87,9.75,39.54,14.36,59.38-35.83-27.93-70.27-57.59-105.88-85.84-2.39,0-5.66,1.83-7,3.26-13,13.85-27.51,28.23-31.92,47,25.33,28.35,180.39,205.49,224.2,191.35,41.39-42.58,38.81-130,36.72-184.69C1235.81,1208.43,1184.1,1173.88,1148.08,1149.87Z"/><path class="cls-22" d="M1056.56,1123.41c-5.1-4.12-10.21-8.22-15.46-12.25-2.46,1.15-6.81,3.14-8.59,4.75-13.37,12.08-23.77,24.27-30,41.07,5.11,5.51,10.09,11.11,15.07,16.74,4.42-18.83,18.9-33.2,31.92-47C1050.9,1125.24,1054.17,1123.37,1056.56,1123.41Z"/><path class="cls-15" d="M1141.36,1117.87q3.17,16,6.72,32c36,24,87.73,58.55,130.47,30.5q-.81-17-2.2-33.9C1233.61,1179.11,1178.41,1142.66,1141.36,1117.87Z"/><path class="cls-12" d="M1230.56,999.3c-33.84-35.32-78.49-77.36-98.21-6.06-6.76,41.24,1.43,84.1,9,124.62,37.09,24.9,92.2,61.07,135,28.74-2.44-22.12-2.93-36.78-6.76-60.53C1264.91,1056.81,1248.3,1024.89,1230.56,999.3Z"/></g><g id="MAN_0_Layer0_11_MEMBER_0_FILL" data-name="MAN 0 Layer0 11 MEMBER 0 FILL"><path class="cls-10" d="M1030.89,1145c4.73,2.72,7.29,2.6,12.49-.18,6.55-3.51,15.56-8.74,22.32-12.82,5.41-3.26,4.29-7.77,2-12.69-5.73-2.39-13.15-4.59-18.45-7s-7.75-2-12.66.19q-14,4.65-28.2,9.29c-.16,4.78,0,8.28,4.55,11.24C1018.53,1136.65,1025.13,1141.68,1030.89,1145Z"/></g><g id="MAN_0_Layer0_11_MEMBER_1_FILL" data-name="MAN 0 Layer0 11 MEMBER 1 FILL"><path class="cls-20" d="M1035,1105.07c-6.27,3.33-16.37,9.15-22.25,12.65-4.66,2.76-5.4,4.63-1.23,7.69,5.05,3.7,12.37,8.5,17.88,11.89,4.55,2.8,7.53,2.51,12.49-.12,6.24-3.32,16.34-9.16,22.17-12.65,4.62-2.76,5.47-4.62,1.33-7.71-5-3.75-12.27-8.56-17.81-11.91C1043,1102.14,1040,1102.42,1035,1105.07Z"/></g><g id="MAN_0_Layer0_12_FILL" data-name="MAN 0 Layer0 12 FILL"><path class="cls-53" d="M1551.27,1689.93q4.92-9.4-.62-.09l.62.09m-9.24-13q1.52,3.28,3,6.51,39.23-135.78,54.62-264.13l-76.17,208.63A483.6,483.6,0,0,0,1542,1676.91Z"/></g><path id="MAN_0_Layer0_13_1_STROKES" data-name="MAN 0 Layer0 13 1 STROKES" class="cls-54" d="M1448,1708.14q6.85-3.87,25.06-8.18,15.84-3.78,20.59-8.45"/><path id="MAN_0_Layer0_14_1_STROKES" data-name="MAN 0 Layer0 14 1 STROKES" class="cls-54" d="M1418.72,1726.87l4.75,1.06a48.58,48.58,0,0,0,8.7,1q4,0,10.65-2.46a53.17,53.17,0,0,0,11.26-5.72"/><path id="MAN_0_Layer0_15_1_STROKES" data-name="MAN 0 Layer0 15 1 STROKES" class="cls-54" d="M1612.4,1641.64a160.33,160.33,0,0,0,13.72-11.52,34.11,34.11,0,0,0,6.86-9.32"/><path class="cls-55" d="M1640.37,1273.29q-113.8-247.08-165.27-296.77-9.69-8.76-19-16.7-54.84-86-135.73-72.68Q1234,897.7,1157,955.51c-8.13,3.91-14.84,13.26-20.37,27.23-5.68,14.34-6.77,38-6.77,80.81,0,10.4,24.33,102,22.9,113.34,42.41,58.43,87.21,79.68,120.55,68.81,3.07-10.4-2-4.91,1-16.27h0c30.87,33.65,3.32,4.27,30.4,27.58l21.9,99.57q5.79,19.08,21.55,25.86,59,12.94,133.25-8.09Q1645.91,1320.77,1640.37,1273.29Z"/><path class="cls-13" d="M1125.65,890.77s28.64-7.35,39.27-22.19c0,0-4.65,12.33-1,22.19C1163.91,890.77,1139.07,896.32,1125.65,890.77Z"/></g><g id="Bulldog"><ellipse class="cls-56" cx="370.81" cy="2262.04" rx="54.7" ry="94.74" transform="translate(-1893.52 2618.61) rotate(-89.64)"/><path class="cls-57" d="M648.34,2254.76c.14,22.78-31.63,41.24-70.94,41.22l-186.28,0a123.39,123.39,0,0,1-12.6-.65c-1.17-.12-2.33-.27-3.47-.42s-2.28-.31-3.41-.51-2.24-.37-3.35-.6-2.2-.44-3.27-.69c-2-.45-4-1-5.93-1.53l-1.91-.58-3-1c-1-.33-1.93-.7-2.88-1.07q-2.85-1.11-5.49-2.38c-.89-.42-1.74-.84-2.6-1.29s-1.67-.9-2.48-1.37-1.59-.94-2.36-1.43-1.52-1-2.24-1.5a49.77,49.77,0,0,1-4.12-3.17c-.65-.54-1.26-1.1-1.86-1.67s-1.18-1.14-1.73-1.73c-.27-.28-.54-.58-.8-.87a34.81,34.81,0,0,1-2.68-3.38l-.82-1.22-.59-1c-.37-.64-.72-1.29-1-1.94s-.62-1.3-.89-2-.51-1.34-.72-2c-.1-.33-.21-.67-.3-1-.18-.69-.33-1.39-.47-2.08a26.68,26.68,0,0,1-.39-4.21c-.12-22.77,31.65-41.23,71-41.23h188.1c2.45.05,4.85.15,7.23.32,1.79.13,3.55.3,5.29.51s3.44.45,5.14.72c2.65.44,5.23,1,7.76,1.56l2.06.51c2.1.56,4.15,1.16,6.15,1.82,1,.33,2,.68,2.93,1a80.14,80.14,0,0,1,12,5.58,54,54,0,0,1,12.3,9.5c.55.59,1.08,1.19,1.59,1.79s1,1.2,1.43,1.82a30.91,30.91,0,0,1,2.92,4.76,26.52,26.52,0,0,1,2.16,6.05,22.38,22.38,0,0,1,.57,4.18C648.33,2254.06,648.34,2254.4,648.34,2254.76Z"/><ellipse class="cls-58" cx="424.44" cy="2219.32" rx="143.17" ry="247.99" transform="translate(-1797.51 2629.79) rotate(-89.64)"/><path class="cls-59" d="M1150.88,2200.27c.35,59.62-82.79,107.94-185.69,107.9l-487.59,0a319.74,319.74,0,0,1-33-1.7c-3.07-.31-6.1-.7-9.09-1.1s-6-.82-8.93-1.34-5.87-1-8.78-1.57-5.74-1.14-8.54-1.81c-5.31-1.18-10.46-2.56-15.54-4-1.65-.51-3.34-1-5-1.5-2.63-.86-5.23-1.73-7.83-2.63s-5.07-1.81-7.55-2.8c-5-1.93-9.76-4-14.36-6.22-2.33-1.1-4.57-2.2-6.81-3.38s-4.37-2.36-6.5-3.58-4.17-2.48-6.17-3.74-4-2.6-5.87-3.93a131.21,131.21,0,0,1-10.78-8.31c-1.69-1.41-3.3-2.87-4.88-4.36s-3.07-3-4.52-4.53c-.71-.75-1.42-1.53-2.09-2.28a89.4,89.4,0,0,1-7-8.86c-.75-1.06-1.46-2.12-2.17-3.18l-1.53-2.48c-1-1.69-1.89-3.39-2.76-5.08s-1.61-3.42-2.32-5.19-1.33-3.5-1.89-5.28c-.27-.86-.55-1.77-.78-2.63-.48-1.81-.87-3.62-1.22-5.43a68.33,68.33,0,0,1-1-11c-.31-59.61,82.84-107.94,185.73-107.94H964c1.61,0,3.22,0,4.8,0q9.62.18,18.92.83c4.69.35,9.29.79,13.86,1.34s9,1.18,13.45,1.89c6.93,1.14,13.7,2.52,20.31,4.09,1.81.43,3.62.9,5.39,1.34,5.51,1.45,10.86,3,16.09,4.76,2.6.86,5.16,1.77,7.68,2.71a209.09,209.09,0,0,1,31.44,14.6,141.12,141.12,0,0,1,32.18,24.87c1.46,1.54,2.84,3.11,4.18,4.68s2.55,3.15,3.73,4.77a80,80,0,0,1,7.64,12.47,69,69,0,0,1,5.66,15.82,59.89,59.89,0,0,1,1.5,10.94C1150.84,2198.42,1150.88,2199.33,1150.88,2200.27Z"/><g id="Layer1_0_FILL" data-name="Layer1 0 FILL"><path class="cls-23" d="M557.84,1745.73q-17.1,3.81-38.88,16.93l-73.87-32.79q-8.5-6.13-14.59-2.63-7.26,6,1.58,19.35,29.37,32.72,57.34,54.14,5.86,14.16,10.38,18.87L466,1895.45q-111.8,105.66-167,217.6a285.09,285.09,0,0,0-22.54,64.1q-.15,29.78,18.94,59.54,30.39,33.11,67.62,50.17a415.05,415.05,0,0,0,76.49-3.38q32.56-10.82,57.21-23.72,6.68-6.08,3.27-16.2-7.92-14.91-17.2-14.09l-9.33.43a46.1,46.1,0,0,0,9.14-15.46l-.4-25.86q10.17-7.44,20.34-25.17l3.89,25.12q6.66,23.89,22.54,21.27l29.49-7.27q8.67-7.08,4.72-16.77-6.18-11.91-16.66-10.89l3.32-20.74q15.32-26,20.32-62.44,24.06-31.24,37.56-62.49a597.41,597.41,0,0,0,4.32-92.59q4.11-23.88,17.17-47.76,16.65-6.67,30.7-26.43l12.77-27.93q2.05-39.63-11.14-68.85a88.57,88.57,0,0,0-8.91-14.41q-15-19.43-35.49-16.8l-27.1,13Q571.35,1741.38,557.84,1745.73Z"/></g><path class="cls-60" d="M661.51,1765.64a88.57,88.57,0,0,0-8.91-14.41q-15-19.43-35.49-16.8l-5,2.39h0L590,1747.42q-18.66-6-32.17-1.69-17.1,3.81-38.88,16.93l-73.87-32.79q-8.5-6.13-14.59-2.63-7,5.77.91,18.3c.21.35.44.7.67,1q29.37,32.72,57.34,54.14,5.86,14.16,10.38,18.87l-9.89,22.18v0L479,1866.12v0L466,1895.45q-111.8,105.66-167,217.6a285.09,285.09,0,0,0-22.54,64.1q-.15,29.78,18.94,59.54,30.39,33.11,67.62,50.17l2.25.11c3.83.19,7.71.32,11.62.37,2.5,0,5,0,7.51,0a4.34,4.34,0,0,0,.51,0c.21,0,.42,0,.62,0l41-2.36.51-.05.78-.08.64-.08,1.69-.19,3.6-.4.94-.11,1.66-.22c.57-.06,1.13-.13,1.69-.21l.67-.08.83-.11q32.56-10.82,57.21-23.72,6.69-6.08,3.27-16.2-7.92-14.91-17.2-14.09l-9.33.43a46.1,46.1,0,0,0,9.14-15.46l-.4-25.86q10.17-7.44,20.34-25.17l3.89,25.12q6.66,23.89,22.54,21.27l29.49-7.27q8.67-7.08,4.72-16.77-6.18-11.91-16.66-10.89l3.32-20.74q15.32-26,20.32-62.44,24.06-31.24,37.56-62.49a597.41,597.41,0,0,0,4.32-92.59c.55-3.18,1.25-6.36,2-9.53l7.59-22.61c2.21-5.21,4.7-10.41,7.55-15.62q16.65-6.67,30.7-26.43l12.77-27.93Q674.71,1794.86,661.51,1765.64Z"/><g id="Layer1_5_FILL" data-name="Layer1 5 FILL"><path class="cls-61" d="M496.29,1881.79a301.77,301.77,0,0,0,36.11,20.15,347.69,347.69,0,0,0,43.17,17.58q23.23,7.53,38.37,7.86l7.78-23.19q-13.65-.32-36.76-8.72a384.36,384.36,0,0,1-43.06-19,363.19,363.19,0,0,1-36.14-20.76q-15.22-10.12-15.86-13.9L479,1866.12Q480.94,1871.57,496.29,1881.79Z"/></g><path class="cls-62" d="M524.08,1790.38l6.31,3.19,35.33,20.5q25.9-31.93,15-51.87-5.71-17.87-22.91-16.47-30.32,8.85-42.18,21.44l-16.74,20.42-68.42-60.35q-7,5.77.91,18.3c.21.35.44.7.67,1q29.37,32.72,57.34,54.14,5.86,14.16,10.38,18.87L466,1895.45q-111.8,105.66-167,217.6a285.09,285.09,0,0,0-22.54,64.1q-.15,29.78,18.94,59.54,30.39,33.11,67.62,50.17,10.72.58,21.89.51a439.83,439.83,0,0,0,54.6-3.89q32.56-10.82,57.21-23.72-47.54-4.31-88.41,11.38,28-35.83,22.13-68.15-26-48.31-60-40.84V2084q42.69-74.08,186.64-138.15H511.63q78.45-62.78,97.86-107.06l-90.75-28.25-5.2-6.52Q507.54,1786.63,524.08,1790.38Z"/><path class="cls-63" d="M524.08,1790.38l6.31,3.19,35.33,20.5q25.9-31.93,15-51.87-5.71-17.87-22.91-16.47-30.32,8.85-42.18,21.44l-16.74,20.42-68.42-60.35q-7,5.77.91,18.3c.21.35.44.7.67,1q29.37,32.72,57.34,54.14,5.86,14.16,10.38,18.87L466,1895.45q-111.8,105.66-167,217.6a285.09,285.09,0,0,0-22.54,64.1q-.15,29.78,18.94,59.54,30.39,33.11,67.62,50.17l2.25.11c3.83.19,7.71.32,11.62.37,2.5,0,5,0,7.51,0a4.34,4.34,0,0,0,.51,0c.21,0,.42,0,.62,0l41-2.36.51-.05.78-.08.64-.08,1.69-.19,3.6-.4.94-.11,1.66-.22c.57-.06,1.13-.13,1.69-.21l.67-.08.83-.11q32.56-10.82,57.21-23.72-47.54-4.31-88.41,11.38,28-35.83,22.13-68.15-26-48.31-60-40.84V2084q42.69-74.08,186.64-138.15H511.63q78.45-62.78,97.86-107.06-25.59,20.52-90.75-28.25l-5.2-6.52Q507.54,1786.63,524.08,1790.38Z"/><path class="cls-64" d="M515.66,1767.17a9.39,9.39,0,0,0,2.65-4.81l-73.22-32.49q-5-3.6-9.15-3.89.74,3.06,4.86,7.46,41,31.93,72.76,45.32Zm48.48,100.16,8.45-3.17q16.75-1,36.9-25.33l-42.75,15.81-23.26-30.29q-29.21-31.51-29.94-20.29Q531.41,1838.68,564.14,1867.33Zm43.23-29.54,8.45-1L604.2,1822l-17.12-1.31-63-30.32Zm.32,191.41c.09-.7.17-1.41.24-2.12l-1.61,1.53q-35.85,56.12-71.69,95.92l16.18-9.33-7.73,72.57,20.95.78a16.89,16.89,0,0,0-.88-2.79q-6.18-11.91-16.66-10.89l3.32-20.74q15.32-26,20.32-62.44Q594.19,2060.45,607.69,2029.2ZM474.31,2228.88a46.15,46.15,0,0,0,8.18-14.22q-4.11,7.61-8.18,14.22m8.45.59-9.07.4q-12.68,20.4-25,31.45l40.52-22.43,6.27-2.39q-6-7.62-12.69-7m39-84.95,8.1-11.83q-24.63,9-43.78-5.31-39.78-13.18-71.16-4.75,23.28-.91,61.71,21.49,4.31,31.61,5.69,52.29l-.11-7.83q10.17-7.44,20.34-25.17l3.89,25.12q5.64,20.22,17.87,21.43Zm107.46-255.67q16.65-6.67,30.7-26.43l11.21-24.55q-9.83,19.85-24,30.53a303.6,303.6,0,0,1-44.08,13.87q9,14,8.26,55.38l.7-.67v-.37Q616.12,1912.73,629.18,1888.85ZM611.5,1749.24q-9-3.85-16.26-.93l-21.92-5.59q38.25,17.94,66.89,44.6Q649.39,1772.43,611.5,1749.24Z"/><g id="Layer1_10_FILL" data-name="Layer1 10 FILL"><path class="cls-10" d="M617.11,1734.43l-5,2.39q19.43,15,40.48,14.41Q637.62,1731.8,617.11,1734.43Z"/></g><path class="cls-65" d="M498.92,1787.59l16.74-20.42q11.87-12.6,42.18-21.44-17.1,3.81-38.88,16.93l-73.87-32.79q-8.5-6.13-14.59-2.63l68.42,60.35m31.47,6-6.31-3.19q-16.53-3.75-10.54,13.68l5.2,6.52,90.75,28.25q-19.43,44.3-97.86,107.06h45.46Q413.14,2010,370.45,2084v78.11q34-7.47,60,40.84,5.83,32.33-22.13,68.15,40.88-15.69,88.41-11.38,6.68-6.08,3.27-16.2-7.92-14.91-17.2-14.09l-9.33.43a46.1,46.1,0,0,0,9.14-15.46l-.4-25.86q10.17-7.44,20.34-25.17l3.89,25.12q6.66,23.89,22.54,21.27l29.49-7.27q8.67-7.08,4.72-16.77-6.18-11.91-16.66-10.89l3.32-20.74q15.32-26,20.32-62.44,24.06-31.24,37.56-62.49a597.41,597.41,0,0,0,4.32-92.59q4.11-23.88,17.17-47.76,16.65-6.67,30.7-26.43l12.77-27.93q2.05-39.63-11.14-68.85a88.57,88.57,0,0,0-8.91-14.41q-15-19.43-35.49-16.8l-27.1,13q-18.66-6-32.17-1.69,17.19-1.39,22.91,16.47,10.88,19.93-15,51.87Z"/></g></g></g></svg>