<?xml version="1.0" encoding="UTF-8"?>
<svg width="24px" height="24px" viewBox="0 0 24 24" version="1.1" xmlns="http://www.w3.org/2000/svg" xmlns:xlink="http://www.w3.org/1999/xlink">
    <title>Icons/Full Set/Storage/Storage Automatic V2</title>
    <g id="Icons/Full-Set/Storage/Storage-Automatic-V2" stroke="none" stroke-width="1" fill="none" fill-rule="evenodd">
        <path d="M19.4,13.9 C20.3,14.6 20.8,15.7 20.9,16.9 C20.9,19 19.3,20.7 17.2,20.8 L17.2,20.8 L17.2,21.8 L15.1,20.3 L17.2,18.8 L17.2,19.8 C18.6,19.7 19.8,18.5 19.8,17 C19.8,16 19.3,15.1 18.5,14.6 L18.5,14.6 Z M17,12 L19,13.6 L16.9,15.1 L16.9,14.1 C15.5,14.2 14.3,15.4 14.3,16.9 C14.3,17.8 14.8,18.7 15.6,19.2 L15.6,19.2 L14.7,19.9 C13.9,19.2 13.3,18.1 13.3,16.9 C13.3,14.8 14.9,13.1 17,13 L17,13 L17,12 Z M13.9,12.3 C14.1,12.3 14.2,12.4 14.3,12.6 L14.3,12.6 L14.3,13.1 C13.3,14 12.7,15.2 12.5,16.5 C12.4,16.7 12.2,16.9 12,16.9 L12,16.9 L4.6,16.9 C3.8,16.9 3.2,16.3 3.2,15.5 L3.2,15.5 L3.2,13.7 C3.2,12.9 3.8,12.3 4.6,12.3 L4.6,12.3 Z M5.5,13.6 C5.2,13.6 5,13.9 5,14.1 L5,14.1 L5,15 C5,15.3 5.1,15.5 5.4,15.5 C5.7,15.5 5.9,15.2 5.9,15 L5.9,15 L6,15 L6,14.1 C6,13.8 5.8,13.6 5.5,13.6 Z M13.8,2.2 C14.4,2.2 15.1,2.5 15.5,3 L15.5,3 L19.2,7.2 C19.5,7.4 19.7,7.8 19.7,8.2 L19.7,8.2 L19.7,10 C19.7,10.8 19.1,11.4 18.3,11.4 L18.3,11.4 L4.6,11.4 C3.8,11.4 3.2,10.8 3.2,10 L3.2,10 L3.2,8.1 C3.2,7.7 3.4,7.3 3.7,7.1 L3.7,7.1 L7.3,3 C7.8,2.5 8.4,2.2 9.1,2.2 L9.1,2.2 Z M14.2,8.2 C13.7,8.2 13.3,8.6 13.3,9.1 C13.3,9.6 13.7,10 14.2,10 C14.7,10 15.1,9.6 15.1,9.1 C15.1,8.6 14.7,8.2 14.2,8.2 Z M16.9,8.2 C16.4,8.2 16,8.6 16,9.1 C16,9.6 16.4,10 16.9,10 C17.4,10 17.8,9.6 17.8,9.1 C17.8,8.6 17.4,8.2 16.9,8.2 Z M5.5,8.1 C5.2,8.1 5,8.4 5,8.6 L5,8.6 L5,9.5 C5,9.8 5.2,10 5.5,10 C5.8,10 6,9.7 6,9.5 L6,9.5 L6,8.6 C6,8.3 5.8,8.1 5.5,8.1 Z M13.8,4 L9.1,4 C8.9,4 8.8,4.1 8.7,4.2 L8.7,4.2 L6.4,6.8 L16.5,6.8 L14.2,4.2 C14.1,4.1 13.9,4 13.8,4 L13.8,4 Z" id="Combined-Shape" fill="#273637"></path>
    </g>
</svg>
