<?xml version="1.0" encoding="UTF-8"?>
<svg width="24px" height="24px" viewBox="0 0 24 24" version="1.1" xmlns="http://www.w3.org/2000/svg" xmlns:xlink="http://www.w3.org/1999/xlink">
    <title>Icons/Full Set/Peer/Peer2Icon</title>
    <g id="Icons/Full-Set/Peer/Peer2Icon" stroke="none" stroke-width="1" fill="none" fill-rule="evenodd">
        <path d="M5.3,17.9 C5.7,17.5 6.3,17.4 6.7,17.8 C8.2,19.1 10.1,19.8 12,19.8 C13.9,19.8 15.8,19.1 17.2,17.9 C17.6,17.5 18.2,17.6 18.6,18 C19,18.4 18.9,19 18.5,19.4 C16.7,21 14.4,21.8 12,21.8 C9.6,21.8 7.2,20.9 5.4,19.3 C5,19 5,18.3 5.3,17.9 Z M12,6 C13.5912989,6 15.1174224,6.63214104 16.2426407,7.75735931 C17.367859,8.88257758 18,10.4087011 18,12 C18,15.3137085 15.3137085,18 12,18 C8.6862915,18 6,15.3137085 6,12 C6,8.6862915 8.6862915,6 12,6 Z M11.99,8.4 C11.6836868,8.39532602 11.3779885,8.42891923 11.08,8.5 C10.8146752,8.56171341 10.5589921,8.65927673 10.32,8.79 C10.0082188,8.96814999 9.71653602,9.17936852 9.45,9.42 L9.45,9.42 L10.27,10.42 C10.5190957,10.2104609 10.7907733,10.0293425 11.08,9.88 C11.3312,9.75356991 11.6087819,9.68845812 11.89,9.69 C12.1188211,9.67912392 12.3434688,9.75400647 12.52,9.9 C12.6916966,10.0666993 12.7797499,10.3015083 12.76,10.54 C12.7583104,10.7318661 12.7210116,10.9217507 12.65,11.1 C12.5581455,11.3072603 12.4405536,11.502127 12.3,11.68 C12.17,11.89 11.83,12.27 11.3,12.81 L11.3,12.81 L9.5,14.62 L9.5,15.62 L14.5,15.62 L14.5,14.37 L11.34,14.37 L11.34,14.3 L12.26,13.44 C12.7185659,13.0392752 13.1464325,12.6047232 13.54,12.14 C13.7676227,11.8786918 13.950121,11.5812873 14.08,11.26 C14.1977678,10.9643377 14.2555555,10.6482052 14.25,10.33 C14.2569353,9.97639755 14.1595483,9.62858704 13.97,9.33 C13.7766272,9.03042913 13.5028607,8.79131657 13.18,8.64 C12.8055586,8.47424926 12.3994154,8.39233804 11.99,8.4 Z M13.9,2.9 C14.1,2.4 14.7,2.1 15.2,2.3 C19.3,3.7 22,7.5 22,11.8 C22,12.4 22,13 21.8,13.7 C21.7,14.2 21.3,14.5 20.8,14.5 L20.8,14.5 L20.6,14.5 C20.1,14.4 19.7,13.8 19.8,13.3 C19.9,12.8 19.9,12.3 19.9,11.8 C19.9,8.4 17.8,5.3 14.5,4.2 C14,4 13.7,3.4 13.9,2.9 Z M8.6,2.3 C9.1,2.1 9.7,2.4 9.9,2.9 C10.1,3.4 9.8,4 9.3,4.2 C6.1,5.4 4,8.4 4,11.8 C4,12.2 4,12.7 4.1,13.1 C4.2,13.7 3.8,14.2 3.3,14.3 L3.3,14.3 L3.1,14.3 C2.6,14.3 2.2,14 2.1,13.5 C2,13 2,12.4 2,11.8 C2,7.6 4.6,3.8 8.6,2.3 Z" id="Combined-Shape" fill="#273637"></path>
    </g>
</svg>
