<?xml version="1.0" encoding="UTF-8"?>
<svg width="24px" height="24px" viewBox="0 0 24 24" version="1.1" xmlns="http://www.w3.org/2000/svg" xmlns:xlink="http://www.w3.org/1999/xlink">
    <title>Icons/Full Set/Status/Success/Fill</title>
    <g id="Icons/Full-Set/Status/Success/Fill" stroke="none" stroke-width="1" fill="none" fill-rule="evenodd">
        <path d="M12,3 C14.3869484,3 16.6761336,3.94821156 18.363961,5.63603897 C20.0517884,7.32386638 21,9.61305159 21,12 C21,16.9705627 16.9705627,21 12,21 C7.02943725,21 3,16.9705627 3,12 C3,7.02943725 7.02943725,3 12,3 Z M14.9777506,8.66734019 L10.74,13.17 L9.02290876,11.3929744 C8.66290876,11.0329744 8.12290876,11.0329744 7.76290876,11.3929744 C7.40290876,11.7529744 7.40290876,12.2929744 7.76290876,12.6529744 L10.11,15.15 C10.29,15.33 10.47,15.42 10.74,15.42 C11.01,15.42 11.19,15.33 11.37,15.15 L16.2377506,9.92734019 C16.5977506,9.56734019 16.5977506,9.02734019 16.2377506,8.66734019 C15.8777506,8.30734019 15.3377506,8.30734019 14.9777506,8.66734019 Z"  id="Combined-Shape" fill="#273637"></path>
    </g>
</svg>
