<?xml version="1.0" encoding="UTF-8"?>
<svg width="24px" height="24px" viewBox="0 0 24 24" version="1.1" xmlns="http://www.w3.org/2000/svg" xmlns:xlink="http://www.w3.org/1999/xlink">
    <title>Icons/Full Set/Status/Success/Outline</title>
    <g id="Icons/Full-Set/Status/Success/Outline" stroke="none" stroke-width="1" fill="none" fill-rule="evenodd">
        <path d="M12,3 C17,3 21,7 21,12 C21,17 17,21 12,21 C7,21 3,17 3,12 C3,7 7,3 12,3 Z M12,5 C8.1,5 5,8.1 5,12 C5,15.9 8.1,19 12,19 C15.9,19 19,15.9 19,12 C19,8.1 15.9,5 12,5 Z M14.3,9.4 C14.7,9 15.3,9 15.7,9.4 C16.1,9.8 16.1,10.4 15.7,10.8 L15.7,10.8 L11.3,15.5 C11.1,15.7 10.9,15.8 10.6,15.8 L10.6,15.8 L10.4772595,15.7938776 C10.2428571,15.7693878 10.0714286,15.6714286 9.9,15.5 L9.9,15.5 L8.2,13.7 C7.8,13.3 7.8,12.7 8.2,12.3 C8.6,11.9 9.2,11.9 9.6,12.3 L9.6,12.3 L10.6,13.3 Z" id="Combined-Shape" fill="#273637"></path>
    </g>
</svg>
