<svg width="24" height="24" viewBox="0 0 24 24" fill="none" xmlns="http://www.w3.org/2000/svg">
<path d="M8.91482 14.337C9.16127 14.4948 9.44916 14.5756 9.74174 14.5691C10.1266 14.5606 10.4929 14.4016 10.762 14.1264C11.0312 13.8511 11.1818 13.4814 11.1817 13.0964C11.1817 12.8037 11.0944 12.5177 10.9311 12.2749C10.7678 12.032 10.5358 11.8434 10.2648 11.7329C9.99377 11.6225 9.69599 11.5953 9.40945 11.6548C9.12291 11.7143 8.86061 11.8579 8.65601 12.0671C8.45141 12.2764 8.31379 12.5419 8.26071 12.8297C8.20764 13.1175 8.24151 13.4146 8.35801 13.683C8.47451 13.9515 8.66836 14.1792 8.91482 14.337Z" fill="#273637"/>
<path d="M13.4399 14.3209C13.6821 14.4827 13.9668 14.5691 14.2581 14.5691C14.4521 14.5713 14.6446 14.5347 14.8243 14.4615C15.0039 14.3882 15.1672 14.2798 15.3044 14.1426C15.4416 14.0055 15.55 13.8422 15.6232 13.6626C15.6964 13.4829 15.733 13.2904 15.7308 13.0964C15.7308 12.8051 15.6445 12.5204 15.4826 12.2782C15.3208 12.036 15.0908 11.8472 14.8217 11.7358C14.5526 11.6243 14.2565 11.5951 13.9708 11.652C13.6851 11.7088 13.4227 11.849 13.2167 12.055C13.0108 12.261 12.8705 12.5234 12.8137 12.8091C12.7569 13.0947 12.786 13.3909 12.8975 13.66C13.009 13.9291 13.1977 14.1591 13.4399 14.3209Z" fill="#273637"/>
<path fill-rule="evenodd" clip-rule="evenodd" d="M21 12C21 16.9706 16.9706 21 12 21C7.02944 21 3 16.9706 3 12C3 7.02944 7.02944 3 12 3C16.9706 3 21 7.02944 21 12ZM10.0737 6.98398C10.6842 6.7305 11.3388 6.60002 11.9999 6.60002C12.661 6.60002 13.3156 6.7305 13.9262 6.98398C14.5367 7.23746 15.0913 7.60897 15.558 8.07719C16.0247 8.54541 16.3944 9.10115 16.6459 9.71253C16.8974 10.3239 17.0257 10.9789 17.0236 11.64C17.0263 12.3559 16.8725 13.0637 16.5729 13.7138C16.2733 14.364 15.8351 14.9407 15.289 15.4037V16.0909C15.289 16.4223 15.1585 16.7403 14.9258 16.9761C14.693 17.212 14.3767 17.3466 14.0454 17.3509H9.95447C9.62314 17.3466 9.30684 17.212 9.07408 16.9761C8.84131 16.7403 8.71081 16.4223 8.71083 16.0909V15.4037C8.16478 14.9407 7.72659 14.364 7.42695 13.7138C7.12732 13.0637 6.97351 12.3559 6.97629 11.64C6.97414 10.9789 7.10249 10.3239 7.35398 9.71253C7.60548 9.10115 7.97518 8.54541 8.44188 8.07719C8.90858 7.60897 9.46311 7.23746 10.0737 6.98398Z" fill="#273637"/>
</svg>
