<svg width="24" height="24" viewBox="0 0 24 24" fill="none" xmlns="http://www.w3.org/2000/svg">
<path fill-rule="evenodd" clip-rule="evenodd" d="M9.86768 8.66505C10.4941 8.23135 11.238 7.99932 11.9999 8C12.7618 7.99932 13.5058 8.23135 14.1322 8.66505C14.7586 9.09874 15.2376 9.71341 15.5051 10.4268C15.7727 11.1402 15.8159 11.9183 15.6291 12.6569C15.4423 13.3956 15.0344 14.0595 14.4599 14.56V15.28C14.4599 15.3807 14.44 15.4803 14.4011 15.5732C14.3623 15.666 14.3054 15.7503 14.2338 15.821C14.1622 15.8917 14.0772 15.9474 13.9838 15.985C13.8905 16.0226 13.7906 16.0413 13.6899 16.04H10.3099C10.2093 16.0413 10.1094 16.0226 10.016 15.985C9.92265 15.9474 9.83769 15.8917 9.76605 15.821C9.69442 15.7503 9.63754 15.666 9.59872 15.5732C9.55991 15.4803 9.53992 15.3807 9.53993 15.28V14.56C8.96545 14.0595 8.55752 13.3956 8.37073 12.6569C8.18394 11.9183 8.2272 11.1402 8.49472 10.4268C8.76224 9.71341 9.24126 9.09874 9.86768 8.66505ZM9.92436 13.5415C10.0888 13.6514 10.2821 13.71 10.4799 13.71V13.69C10.7417 13.6901 10.9931 13.5874 11.1801 13.4042C11.367 13.221 11.4747 12.9717 11.4799 12.71C11.4799 12.5122 11.4213 12.3189 11.3114 12.1544C11.2015 11.99 11.0453 11.8618 10.8626 11.7861C10.6799 11.7104 10.4788 11.6906 10.2848 11.7292C10.0909 11.7678 9.91267 11.863 9.77282 12.0029C9.63297 12.1427 9.53773 12.3209 9.49914 12.5149C9.46056 12.7089 9.48036 12.91 9.55605 13.0927C9.63174 13.2754 9.75991 13.4316 9.92436 13.5415ZM12.9244 13.5415C13.0888 13.6514 13.2821 13.71 13.4799 13.71L13.5199 13.69C13.7747 13.6798 14.016 13.5727 14.1945 13.3906C14.3729 13.2084 14.475 12.965 14.4799 12.71C14.4799 12.5122 14.4213 12.3189 14.3114 12.1544C14.2015 11.99 14.0453 11.8618 13.8626 11.7861C13.6799 11.7104 13.4788 11.6906 13.2848 11.7292C13.0909 11.7678 12.9127 11.863 12.7728 12.0029C12.633 12.1427 12.5377 12.3209 12.4991 12.5149C12.4606 12.7089 12.4804 12.91 12.5561 13.0927C12.6317 13.2754 12.7599 13.4316 12.9244 13.5415Z" fill="#273637"/>
<path fill-rule="evenodd" clip-rule="evenodd" d="M6.99987 4.51677C8.47991 3.52784 10.22 3 12 3C14.387 3 16.6761 3.94821 18.364 5.63604C20.0518 7.32387 21 9.61305 21 12C21 13.78 20.4722 15.5201 19.4832 17.0001C18.4943 18.4802 17.0887 19.6337 15.4442 20.3149C13.7996 20.9961 11.99 21.1743 10.2442 20.8271C8.49836 20.4798 6.89472 19.6226 5.63604 18.364C4.37737 17.1053 3.5202 15.5016 3.17294 13.7558C2.82567 12.01 3.0039 10.2004 3.68509 8.55585C4.36628 6.91131 5.51983 5.50571 6.99987 4.51677ZM15.889 6.17971C14.7379 5.41054 13.3845 5 12 5C10.1435 5 8.36301 5.7375 7.05026 7.05025C5.7375 8.36301 5 10.1435 5 12C5 13.3845 5.41055 14.7378 6.17972 15.889C6.94889 17.0401 8.04214 17.9373 9.32122 18.4672C10.6003 18.997 12.0078 19.1356 13.3656 18.8655C14.7235 18.5954 15.9708 17.9287 16.9498 16.9497C17.9287 15.9708 18.5954 14.7235 18.8655 13.3656C19.1356 12.0078 18.997 10.6003 18.4672 9.32122C17.9373 8.04213 17.0401 6.94888 15.889 6.17971Z" fill="#273637"/>
</svg>
