<svg width="24" height="24" fill="none" xmlns="http://www.w3.org/2000/svg">
  <path d="M18.7 4.8l-6.2-2.5c-.3-.1-.6-.1-.9 0L5.3 4.8c-.5.2-.9.8-.9 1.4v7.1c0 1.8.6 3.5 1.8 4.9 1.3 1.6 2.9 3.2 5.6 4l.3.1.3-.1c2.8-.8 4.7-2.5 5.8-3.8.9-1.1 1.5-2.5 1.5-4V6.2c-.1-.6-.5-1.2-1-1.4zm-1.1 9.6c0 1-.3 1.9-1 2.6-.9 1-2.4 2.4-4.6 3.1-2-.7-3.2-2-4.4-3.3-.8-1-1.3-2.3-1.3-3.6V6.5L12 4.3l5.6 2.2v7.9z" fill="#273637"/>
  <path d="M9.7 8.9c-.3-.3-.8-.3-1.1 0s-.3.8 0 1.1l2.3 2.3-2.3 2.3c-.3.3-.3.8 0 1.1.1.1.3.2.5.2s.4-.1.5-.2l2.3-2.3 2.3 2.3c.1.1.3.2.5.2s.4-.1.5-.2c.3-.3.3-.8 0-1.1l-2.3-2.3 2.3-2.3c.3-.3.3-.8 0-1.1s-.8-.3-1.1 0L12 11.2 9.7 8.9z" fill="#273637"/>
</svg>
