<?xml version="1.0" encoding="UTF-8"?>
<svg width="24px" height="24px" viewBox="0 0 24 24" version="1.1" xmlns="http://www.w3.org/2000/svg" xmlns:xlink="http://www.w3.org/1999/xlink">
    <title>Icons/Full Set/Shield/Compliance</title>
    <g id="Icons/Full-Set/Shield/Compliance" stroke="none" stroke-width="1" fill="none" fill-rule="evenodd">
        <path d="M12.4,2 L18.7,4.5 C19.3,4.7 19.7,5.3 19.7,5.9 L19.7,14.1 C19.7,15.6 19.2,17 18.2,18.1 C16.6,19.9 14.6,21.2 12.3,22 L12,22 L11.7,21.9 C9.4,21.2 7.4,19.8 5.8,18 C4.8,16.9 4.3,15.5 4.3,14 L4.3,5.9 C4.3,5.3 4.7,4.7 5.2,4.5 L11.5,2 C11.8,1.9 12.1,1.9 12.4,2 Z M12,4 L6.3,6.2 L6.3,14.1 C6.3,15.1 6.7,16 7.3,16.7 C8.6,18.1 10.2,19.2 12,19.9 C13.8,19.3 15.4,18.2 16.7,16.7 C17.3,16 17.7,15 17.7,14.1 L17.7,6.2 L12,4 Z M15.7,9.2 C16,9.6 16,10.1 15.7,10.5 L11.3,14.9 C11.1285714,15.0714286 10.9571429,15.1693878 10.7227405,15.1938776 L10.6,15.2 C10.3,15.2 10.1,15.1 9.9,14.9 L8.3,13.2 C7.9,12.8 7.9,12.2 8.3,11.8 C8.7,11.4 9.3,11.4 9.7,11.8 L10.6,12.8 L14.3,9.1 C14.7,8.7 15.4,8.8 15.7,9.2 Z" id="Combined-Shape" fill="#273637"></path>
    </g>
</svg>
