<svg width="24" height="24" fill="none" xmlns="http://www.w3.org/2000/svg">
  <path d="M19 4.7l-6.5-2.6c-.3-.1-.6-.1-.9 0L5 4.7c-.4.1-.6.5-.6.9V13c0 1.8.6 3.5 1.8 4.9 1 1.2 2.6 3.1 5.6 4h.6c2.8-.9 4.7-2.6 5.8-3.9.9-1.1 1.4-2.5 1.4-3.9V5.6c0-.4-.2-.8-.6-.9zm-1.4 9.5c0 1-.3 1.9-.9 2.6-.9 1-2.4 2.4-4.6 3.2-2-.7-3.2-1.9-4.3-3.3-.9-1-1.3-2.3-1.3-3.6V6.3L12 4l5.6 2.2v8z" fill="#273637"/>
  <path d="M9.8 9.2c-.9 0-1.4.3-1.9.8s-.7 1.2-.7 2 .2 1.5.7 2 1.1.8 1.9.8c.4 0 .8-.1 1.2-.4s.8-.6 1.1-1c.7 1 1.5 1.4 2.4 1.4.7 0 1.4-.3 1.8-.8.5-.5.7-1.2.7-2s-.2-1.5-.7-2c-.4-.5-1-.8-1.8-.8-.9 0-1.7.5-2.4 1.4-.5-.9-1.3-1.4-2.3-1.4zm.1 3.9c-.3 0-.6-.1-.8-.3-.2-.2-.3-.5-.3-.8s.1-.6.3-.8c.2-.2.4-.3.7-.3s.5.1.7.3.4.5.6.8c-.3.7-.7 1.1-1.2 1.1zm4.5-2.2c.3 0 .6.1.7.3.1.2.3.5.3.8s-.1.6-.3.8c-.2.2-.4.3-.7.3-.5 0-1-.4-1.4-1.1.4-.7.9-1.1 1.4-1.1z" fill="#273637"/>
</svg>
