<?xml version="1.0" encoding="UTF-8"?>
<svg width="24px" height="24px" viewBox="0 0 24 24" version="1.1" xmlns="http://www.w3.org/2000/svg" xmlns:xlink="http://www.w3.org/1999/xlink">
    <title>Icons/Full Set/Shield/Paused SLA</title>
    <g id="Icons/Full-Set/Shield/Paused-SLA" stroke="none" stroke-width="1" fill="none" fill-rule="evenodd">
        <path d="M11.6,2 C11.9,1.9 12.2,1.9 12.5,2 L12.5,2 L18.8,4.5 C19.3,4.8 19.7,5.3 19.8,5.9 L19.8,5.9 L19.8,14.1 C19.8,15.6 19.3,17 18.3,18.1 C16.7,19.9 14.7,21.3 12.4,22 L12.4,22 L12.1,22.1 L11.8,22 C9.5,21.2 7.5,19.9 5.9,18.1 C4.9,17 4.4,15.6 4.4,14.1 L4.4,14.1 L4.4,5.9 C4.3,5.3 4.7,4.7 5.3,4.5 L5.3,4.5 Z M12,4 L6.3,6.3 L6.3,14.2 C6.3,15.1 6.7,16.1 7.3,16.8 C8.6,18.3 10.2,19.4 12,20 C13.8,19.4 15.4,18.3 16.7,16.8 C17.3,16 17.7,15.1 17.7,14.1 L17.7,14.1 L17.7,6.3 L12,4 Z M10,8.5 C10.4,8.5 10.7,8.8 10.8,9.2 L10.8,9.2 L10.8,13.8 C10.8,14.3 10.5,14.6 10,14.6 C9.5,14.6 9.2,14.2 9.2,13.8 L9.2,13.8 L9.2,9.3 C9.2,8.8 9.6,8.5 10,8.5 Z M14.1,8.4 C14.6,8.4 14.9,8.8 14.9,9.2 L14.9,9.2 L14.9,13.8 L14.9,13.8 L14.8641,13.9168 C14.739,14.257 14.46,14.5 14.1,14.5 C13.6,14.5 13.3,14.2 13.3,13.7 L13.3,13.7 L13.3,9.2 C13.3,8.7 13.6,8.4 14.1,8.4 Z" id="Combined-Shape" fill="#273637"></path>
    </g>
</svg>
