<?xml version="1.0" encoding="UTF-8"?>
<svg width="24px" height="24px" viewBox="0 0 24 24" version="1.1" xmlns="http://www.w3.org/2000/svg" xmlns:xlink="http://www.w3.org/1999/xlink">
    <title>Icons/Full Set/Arrow/Up</title>
    <g id="Icons/Full-Set/Arrow/Up" stroke="none" stroke-width="1" fill="none" fill-rule="evenodd">
        <path d="M17.2,9.2 L13.3,5.3 C13,5.1 12.7,5 12.4,5 C12.1,5 11.8,5.1 11.5,5.4 L7.7,9.2 C7.3,9.6 7.3,10.2 7.7,10.6 C8.1,11 8.7,11 9.1,10.6 L11.4,8.3 L11.4,18 C11.4,18.6 11.8,19 12.4,19 C13,19 13.4,18.6 13.4,18 L13.4,8.3 L15.7,10.6 C15.9,10.9 16.2,11 16.4,11 C16.6,11 16.9,10.9 17.1,10.7 C17.5,10.3 17.5,9.6 17.2,9.2 Z" id="Path" fill="#273637"></path>
    </g>
</svg>
