<?xml version="1.0" encoding="UTF-8"?>
<svg width="24px" height="24px" viewBox="0 0 24 24" version="1.1" xmlns="http://www.w3.org/2000/svg" xmlns:xlink="http://www.w3.org/1999/xlink">
    <title>Icons/Full Set/Cloud/EC2_Instance</title>
    <g id="Icons/Full-Set/Cloud/EC2_Instance" stroke="none" stroke-width="1" fill="none" fill-rule="evenodd">
        <path d="M20.5,9.6 C21.3,9.6 22,10.3 22,11.1 L22,11.1 L22,20.5 C22,21.3 21.3,22 20.5,22 L20.5,22 L11.1,22 C10.3,22 9.6,21.3 9.6,20.5 L9.6,20.5 L9.6,11.1 C9.6,10.3 10.3,9.6 11.1,9.6 L11.1,9.6 Z M20,11.6 L11.6,11.6 L11.6,20 L20,20 L20,11.6 Z M16.7,5.8 C17.3,5.8 17.7,6.2 17.7,6.8 C17.7,7.4 17.2,7.8 16.7,7.8 L16.7,7.8 L7.8,7.8 L7.8,16.7 C7.8,17.3 7.4,17.7 6.8,17.7 C6.2,17.7 5.8,17.3 5.8,16.7 L5.8,16.7 L5.8,7.3 C5.8,6.5 6.5,5.8 7.3,5.8 L7.3,5.8 Z M12.9,2 C13.5,2 13.9,2.4 13.9,3 C13.9,3.6 13.5,4 12.9,4 L12.9,4 L4,4 L4,12.9 C4,13.5 3.6,13.9 3,13.9 C2.4,13.9 2,13.5 2,12.9 L2,12.9 L2,3.5 C2,2.7 2.7,2 3.5,2 L3.5,2 Z" id="Combined-Shape" fill="#273637"></path>
    </g>
</svg>