<?xml version="1.0" encoding="UTF-8"?>
<svg width="24px" height="24px" viewBox="0 0 24 24" version="1.1" xmlns="http://www.w3.org/2000/svg" xmlns:xlink="http://www.w3.org/1999/xlink">
    <title>Icons/Full Set/Instance/General Instance</title>
    <g id="Icons/Full-Set/Instance/General-Instance" stroke="none" stroke-width="1" fill="none" fill-rule="evenodd">
        <path d="M6.75,17.25 L17.25,17.25 L17.25,6.75 L6.75,6.75 L6.75,17.25 Z M21,13 C21.55,13 22,12.55 22,12 C22,11.45 21.55,11 21,11 L19.25,11 L19.25,9 L21,9 C21.55,9 22,8.55 22,8 C22,7.45 21.55,7 21,7 L19.25,7 L19.25,6.25 C19.25,5.42 18.57,4.75 17.75,4.75 L17,4.75 L17,3 C17,2.45 16.55,2 16,2 C15.45,2 15,2.45 15,3 L15,4.75 L13,4.75 L13,3 C13,2.45 12.55,2 12,2 C11.45,2 11,2.45 11,3 L11,4.75 L9,4.75 L9,3 C9,2.45 8.55,2 8,2 C7.45,2 7,2.45 7,3 L7,4.75 L6.25,4.75 C5.42,4.75 4.75,5.42 4.75,6.25 L4.75,7 L3,7 C2.45,7 2,7.45 2,8 C2,8.55 2.45,9 3,9 L4.75,9 L4.75,11 L3,11 C2.45,11 2,11.45 2,12 C2,12.55 2.45,13 3,13 L4.75,13 L4.75,15 L3,15 C2.45,15 2,15.45 2,16 C2,16.55 2.45,17 3,17 L4.75,17 L4.75,17.75 C4.75,18.58 5.42,19.25 6.25,19.25 L7,19.25 L7,21 C7,21.55 7.45,22 8,22 C8.55,22 9,21.55 9,21 L9,19.25 L11,19.25 L11,21 C11,21.55 11.45,22 12,22 C12.55,22 13,21.55 13,21 L13,19.25 L15,19.25 L15,21 C15,21.55 15.45,22 16,22 C16.55,22 17,21.55 17,21 L17,19.25 L17.75,19.25 C18.57,19.25 19.25,18.58 19.25,17.75 L19.25,17 L21,17 C21.55,17 22,16.55 22,16 C22,15.45 21.55,15 21,15 L19.25,15 L19.25,13 L21,13 Z" id="Fill-1" fill="#273637"></path>
    </g>
</svg>