<?xml version="1.0" encoding="UTF-8"?>
<svg width="24px" height="24px" viewBox="0 0 24 24" version="1.1" xmlns="http://www.w3.org/2000/svg" xmlns:xlink="http://www.w3.org/1999/xlink">
    <title>Icons/Full Set/Instance/RDS Instance</title>
    <g id="Icons/Full-Set/Instance/RDS-Instance" stroke="none" stroke-width="1" fill="none" fill-rule="evenodd">
        <path d="M12,3 C17.1,3 20.19,4.01 20.32,4.05 C20.72,4.19 21,4.57 21,5 L21,5 L21,19 C21,19.43 20.72,19.81 20.32,19.95 C20.19,19.99 17.1,21 12,21 C6.9,21 3.81,19.99 3.68,19.95 C3.28,19.81 3,19.43 3,19 L3,19 L3,17 L5,17 L5,18.24 C6.13,18.51 8.59,19 12,19 C15.41,19 17.87,18.51 19,18.24 L19,18.24 L19,15.667 L9.985,15.667 L9.985,13.667 L19,13.667 L19,10.333 L9.985,10.333 L9.985,8.333 L19,8.333 L19,5.76 C17.87,5.49 15.41,5 12,5 C8.59,5 6.13,5.49 5,5.76 L5,5.76 L5,7 L3,7 L3,5 C3,4.57 3.28,4.19 3.68,4.05 C3.81,4.01 6.9,3 12,3 Z M5.2402,8.3332 C6.2272,8.3332 6.9722,8.5172 7.4532,8.8822 C7.9422,9.2522 8.1902,9.8202 8.1902,10.5692 C8.1902,11.0082 8.0672,11.4032 7.8252,11.7452 C7.6042,12.0592 7.2962,12.3112 6.9082,12.4992 C7.9462,14.0502 8.6252,15.0552 8.9432,15.5152 L9.0492,15.6672 L7.1842,15.6672 L5.3972,12.8812 L4.7712,12.9212 L4.7712,15.6672 L3.0622,15.6672 L3.0622,8.3332 L5.2402,8.3332 Z M5.1332,9.7672 L4.7712,9.7672 L4.7712,11.5022 L5.1622,11.5022 C5.6182,11.5022 5.9562,11.4272 6.1662,11.2802 C6.3682,11.1382 6.4662,10.9192 6.4662,10.6082 C6.4662,10.3032 6.3672,10.0932 6.1632,9.9682 C5.9482,9.8352 5.6012,9.7672 5.1332,9.7672 Z" id="Combined-Shape" fill="#273637"></path>
    </g>
</svg>