<?xml version="1.0" encoding="UTF-8"?>
<svg width="24px" height="24px" viewBox="0 0 24 24" version="1.1" xmlns="http://www.w3.org/2000/svg" xmlns:xlink="http://www.w3.org/1999/xlink">
    <title>Icons/Full Set/Service Name/Service Name</title>
    <g id="Icons/Full-Set/Service-Name/Service-Name" stroke="none" stroke-width="1" fill="none" fill-rule="evenodd">
        <path d="M11.883,2 C13.233,2 14.414,2.869 14.837,4.118 L14.837,4.118 L17.971,4.118 C18.96,4.118 19.766,4.922 19.766,5.912 L19.766,5.912 L19.766,20.206 C19.766,21.195 18.96,22 17.971,22 L17.971,22 L5.795,22 C4.806,22 4,21.195 4,20.206 L4,20.206 L4,5.912 C4,4.922 4.806,4.118 5.795,4.118 L5.795,4.118 L8.93,4.118 C9.352,2.869 10.535,2 11.883,2 Z M7.706,6.118 L6,6.118 L6,20 L17.766,20 L17.766,6.118 L16.06,6.118 L16.06,7.399 C16.06,8.158 15.388,8.752 14.531,8.752 L14.531,8.752 L9.236,8.752 C8.378,8.752 7.706,8.158 7.706,7.399 L7.706,7.399 L7.706,6.118 Z M15.1332,16.5 C15.5472,16.5 15.8832,16.836 15.8832,17.25 C15.8832,17.664 15.5472,18 15.1332,18 L8.6332,18 C8.2192,18 7.8832,17.664 7.8832,17.25 C7.8832,16.836 8.2192,16.5 8.6332,16.5 L15.1332,16.5 Z M15.1332,13.5 C15.5472,13.5 15.8832,13.836 15.8832,14.25 C15.8832,14.664 15.5472,15 15.1332,15 L8.6332,15 C8.2192,15 7.8832,14.664 7.8832,14.25 C7.8832,13.836 8.2192,13.5 8.6332,13.5 L15.1332,13.5 Z M15.1332,10.5 C15.5472,10.5 15.8832,10.836 15.8832,11.25 C15.8832,11.664 15.5472,12 15.1332,12 L8.6332,12 C8.2192,12 7.8832,11.664 7.8832,11.25 C7.8832,10.836 8.2192,10.5 8.6332,10.5 L15.1332,10.5 Z M11.883,4 C11.348,4 10.887,4.38 10.786,4.903 C10.677,5.467 10.247,5.894 9.706,6.046 L9.706,6.046 L9.706,6.752 L14.06,6.752 L14.06,6.046 C13.519,5.894 13.088,5.467 12.98,4.902 C12.879,4.38 12.418,4 11.883,4 Z" id="Combined-Shape" fill="#273637"></path>
    </g>
</svg>
