<svg width="24" height="24" viewBox="0 0 24 24" fill="none" xmlns="http://www.w3.org/2000/svg">
<path d="M5.19 2.10999H12.11C12.4425 2.14406 12.7534 2.29041 12.9916 2.52491C13.2297 2.75942 13.3808 3.06807 13.42 3.39999V13.86C12.7053 14.0287 12.0087 14.2665 11.34 14.57V4.08999H6V21.01H5.29C5.01569 21.005 4.74986 20.9141 4.53 20.75C4.47531 20.7162 4.42493 20.6759 4.38 20.63C4.14226 20.386 4.00639 20.0606 4 19.72V3.39999C4.00133 3.07517 4.12422 2.76262 4.34446 2.52387C4.5647 2.28512 4.86634 2.13747 5.19 2.10999Z" fill="#273637"/>
<path d="M10.3474 6.9706C10.4559 6.86029 10.5207 6.71443 10.53 6.56C10.5118 6.41273 10.443 6.27636 10.3354 6.17421C10.2277 6.07206 10.088 6.01047 9.93995 6H7.45995C7.31194 6.01047 7.17216 6.07206 7.06454 6.17421C6.95691 6.27636 6.88813 6.41273 6.86995 6.56C6.86573 6.63905 6.87803 6.71812 6.90605 6.79216C6.93407 6.86619 6.97721 6.93358 7.03272 6.99003C7.08822 7.04648 7.15488 7.09074 7.22844 7.12001C7.30199 7.14927 7.38084 7.16289 7.45995 7.16H9.93995C10.0942 7.14819 10.239 7.0809 10.3474 6.9706Z" fill="#273637"/>
<path d="M10.3444 10.4044C10.4526 10.2961 10.5185 10.1527 10.53 10C10.5208 9.8456 10.4559 9.69973 10.3475 9.58943C10.239 9.47912 10.0942 9.41184 9.93999 9.40002H7.45999C7.30574 9.41184 7.16099 9.47912 7.05252 9.58943C6.94405 9.69973 6.87921 9.8456 6.86999 10C6.8672 10.0783 6.88054 10.1562 6.9092 10.2291C6.93787 10.3019 6.98122 10.3681 7.03658 10.4234C7.09193 10.4788 7.1581 10.5222 7.23094 10.5508C7.30379 10.5795 7.38176 10.5928 7.45999 10.59H9.93999C10.0926 10.5785 10.2361 10.5126 10.3444 10.4044Z" fill="#273637"/>
<path d="M8.06017 16.67V14H9.24017V15.75C9.62079 15.4754 10.0182 15.2249 10.4302 15V13.69C10.4386 13.4684 10.3612 13.2521 10.214 13.0863C10.0668 12.9204 9.86119 12.8179 9.64017 12.8H7.64017C7.52841 12.8022 7.41832 12.8275 7.31682 12.8744C7.21532 12.9212 7.12462 12.9885 7.05042 13.0721C6.97621 13.1557 6.92011 13.2538 6.88565 13.3601C6.85119 13.4664 6.83911 13.5788 6.85017 13.69V17.81L8.06017 16.67Z" fill="#273637"/>
<path d="M7.00014 20.61C7.17014 20.42 7.86014 20.4 8.77014 20.49C9.52576 20.6129 10.2688 20.8037 10.9901 21.06C11.7609 21.291 12.5566 21.4286 13.3601 21.47C13.6591 21.5049 13.9612 21.5049 14.2601 21.47C15.8596 21.1868 17.2905 20.3032 18.2601 19C18.8801 18 20.0501 19.64 20.1601 20.32C20.2137 20.651 20.1061 20.6076 19.8996 20.5244C19.682 20.4366 19.3545 20.3045 18.9901 20.52C15.7901 22.43 14.5601 22.45 12.5401 22.18C11.8208 22.0867 11.1045 21.8486 10.426 21.6231C9.86881 21.4379 9.3371 21.2612 8.85014 21.18C8.32461 21.0446 7.7826 20.984 7.24014 21C6.87014 21 6.90014 20.72 7.00014 20.61Z" fill="#273637"/>
<path fill-rule="evenodd" clip-rule="evenodd" d="M19.6248 16.157C20.0798 16.157 20.529 16.0555 20.9398 15.86C20.9398 15.86 21.3398 15.91 20.6998 16.92C20.0598 17.93 19.3098 18.97 17.6998 17.75L17.3698 17.5C17.1542 17.3511 16.9305 17.2142 16.6998 17.09V17.47C16.6871 18.2999 16.3611 19.0943 15.7873 19.694C15.2135 20.2938 14.4343 20.6544 13.6057 20.7038C12.7772 20.7531 11.9606 20.4874 11.3197 19.9601C10.6788 19.4327 10.2609 18.6825 10.1498 17.86C9.36749 18.344 8.61297 18.8715 7.88979 19.44C7.70213 19.6044 7.49767 19.7485 7.27979 19.87C7.23996 19.8919 7.19524 19.9034 7.14979 19.9034C7.10434 19.9034 7.05963 19.8919 7.01979 19.87C6.98552 19.8504 6.96037 19.818 6.94979 19.78C6.93012 19.7377 6.91992 19.6916 6.91992 19.645C6.91992 19.5984 6.93012 19.5523 6.94979 19.51C7.40595 18.7686 8.01647 18.1342 8.73979 17.65C10.5698 16.16 13.2598 14.71 16.2598 15.26H16.3998L16.9098 15.38L17.0998 15.44C17.4498 15.55 17.7898 15.67 18.1598 15.81L18.3098 15.86C18.7206 16.0555 19.1698 16.157 19.6248 16.157ZM14.9046 17.3074C15.0052 17.1063 15.0583 16.8848 15.0598 16.66C15.0566 16.6096 15.0499 16.5595 15.0398 16.51C14.0625 16.3637 13.0641 16.4705 12.1398 16.82C12.1621 17.0177 12.2252 17.2086 12.325 17.3808C12.4249 17.5529 12.5593 17.7024 12.7198 17.82C12.8055 17.6612 12.9325 17.5286 13.0874 17.4362C13.2424 17.3438 13.4194 17.295 13.5998 17.295C13.7802 17.295 13.9572 17.3438 14.1122 17.4362C14.2671 17.5286 14.3941 17.6612 14.4798 17.82C14.6587 17.6839 14.8041 17.5085 14.9046 17.3074ZM11.8065 19.0063C12.2206 19.4223 12.7827 19.6574 13.3698 19.66V19.64C13.9366 19.6383 14.4813 19.4198 14.8923 19.0293C15.3032 18.6389 15.5492 18.106 15.5798 17.54C15.3698 18.0253 14.9891 18.4167 14.5098 18.64C14.4345 18.8234 14.3063 18.9803 14.1416 19.0907C13.9769 19.2011 13.7831 19.26 13.5848 19.26C13.3865 19.26 13.1927 19.2011 13.028 19.0907C12.8633 18.9803 12.7351 18.8234 12.6598 18.64C12.352 18.4955 12.0822 18.2809 11.8721 18.0135C11.662 17.7461 11.5174 17.4333 11.4498 17.1L11.1598 17.24C11.1545 17.3066 11.1545 17.3734 11.1598 17.44C11.1598 18.0271 11.3923 18.5902 11.8065 19.0063Z" fill="#273637"/>
</svg>
