<svg width="24" height="24" viewBox="0 0 24 24" fill="none" xmlns="http://www.w3.org/2000/svg">
<path d="M11.47 9.33999C11.506 9.34976 11.544 9.34976 11.58 9.33999V9.27999C11.7485 8.95412 11.939 8.64007 12.15 8.33999C12.4894 7.86604 12.8638 7.41813 13.27 6.99999C13.3413 6.91634 13.3804 6.80992 13.38 6.69999V3.39999C13.3417 3.0711 13.1935 2.76479 12.9593 2.53066C12.7252 2.29653 12.4189 2.1483 12.09 2.10999H5.19C4.86634 2.13747 4.5647 2.28512 4.34446 2.52387C4.12422 2.76262 4.00133 3.07517 4 3.39999V20.71C4.00262 21.0513 4.13937 21.3779 4.38072 21.6193C4.62208 21.8606 4.94868 21.9974 5.29 22H12.11C12.4506 21.9936 12.776 21.8577 13.02 21.62C13.0758 21.5677 13.1231 21.5069 13.16 21.44C13.1891 21.4073 13.2127 21.3701 13.23 21.33V21.28C13.2405 21.2272 13.2405 21.1728 13.23 21.12C13.2287 21.0089 13.1939 20.9009 13.13 20.81L13.01 20.71C12.4384 20.1703 11.9437 19.5545 11.54 18.88V18.8C11.5074 18.79 11.4726 18.79 11.44 18.8C11.4002 18.8 11.3621 18.8158 11.3339 18.8439C11.3058 18.872 11.29 18.9102 11.29 18.95V19.95H6V4.08999H11.34V9.18999C11.3397 9.22653 11.3527 9.26194 11.3766 9.28956C11.4006 9.31718 11.4338 9.33511 11.47 9.33999Z" fill="#273637"/>
<path d="M10.53 6.56C10.5207 6.71443 10.4559 6.86029 10.3474 6.9706C10.239 7.0809 10.0942 7.14819 9.93995 7.16H7.45995C7.38084 7.16289 7.30199 7.14927 7.22844 7.12001C7.15488 7.09074 7.08822 7.04648 7.03272 6.99003C6.97721 6.93358 6.93407 6.86619 6.90605 6.79216C6.87803 6.71812 6.86573 6.63905 6.86995 6.56C6.88813 6.41273 6.95691 6.27636 7.06454 6.17421C7.17216 6.07206 7.31194 6.01047 7.45995 6H9.93995C10.088 6.01047 10.2277 6.07206 10.3354 6.17421C10.443 6.27636 10.5118 6.41273 10.53 6.56Z" fill="#273637"/>
<path d="M10.3444 10.4044C10.4526 10.2961 10.5185 10.1527 10.53 10C10.5208 9.8456 10.4559 9.69973 10.3475 9.58943C10.239 9.47912 10.0942 9.41184 9.93999 9.40002H7.45999C7.30574 9.41184 7.16099 9.47912 7.05252 9.58943C6.94405 9.69973 6.87921 9.8456 6.86999 10C6.8672 10.0783 6.88054 10.1562 6.9092 10.2291C6.93787 10.3019 6.98122 10.3681 7.03658 10.4234C7.09193 10.4788 7.1581 10.5222 7.23094 10.5508C7.30379 10.5795 7.38176 10.5928 7.45999 10.59H9.93999C10.0926 10.5785 10.2361 10.5126 10.3444 10.4044Z" fill="#273637"/>
<path fill-rule="evenodd" clip-rule="evenodd" d="M9.63991 12.8H7.63991C7.52815 12.8022 7.41806 12.8275 7.31656 12.8744C7.21507 12.9212 7.12436 12.9885 7.05016 13.0721C6.97595 13.1557 6.91985 13.2538 6.88539 13.3601C6.85093 13.4664 6.83885 13.5788 6.84991 13.69V17.45C6.74991 17.84 7.14991 18.24 7.63991 18.24H9.63991C9.75167 18.2378 9.86176 18.2125 9.96326 18.1656C10.0648 18.1188 10.1555 18.0515 10.2297 17.9679C10.3039 17.8843 10.36 17.7862 10.3944 17.6799C10.4289 17.5735 10.441 17.4612 10.4299 17.35V13.69C10.4384 13.4684 10.3609 13.2521 10.2137 13.0863C10.0665 12.9204 9.86093 12.8179 9.63991 12.8ZM9.23991 17H8.05991V14H9.23991V17Z" fill="#273637"/>
<path fill-rule="evenodd" clip-rule="evenodd" d="M16.2701 9.40999C16.7121 10.0709 17.0495 10.7961 17.2701 11.56C17.5842 12.5789 17.7162 13.6452 17.6601 14.71C17.6192 15.6925 17.3646 16.6542 16.9138 17.5282C16.463 18.4021 15.827 19.1672 15.0501 19.77C15.0127 19.8104 14.9687 19.8442 14.9201 19.87L14.7201 22H14.1401L14.0301 19.88C13.931 19.8452 13.8417 19.7868 13.7701 19.71C13.0171 19.1058 12.4031 18.3464 11.97 17.4836C11.5369 16.6208 11.2947 15.6748 11.2601 14.71C11.2022 13.6445 11.3377 12.5772 11.6601 11.56C11.8804 10.796 12.2177 10.0707 12.6601 9.40999C12.9641 8.9927 13.2983 8.5983 13.6601 8.22999C14.0213 7.86246 14.2948 7.41806 14.4601 6.92999C14.629 7.41869 14.9058 7.86304 15.2701 8.22999C15.6349 8.59555 15.9693 8.99019 16.2701 9.40999ZM14.3148 18.2849C14.3262 18.2546 14.3314 18.2223 14.3301 18.19L14.3601 9.18999L14.2401 9.31999C13.4768 10.0549 12.9302 10.9855 12.6601 12.01C12.3752 12.887 12.2565 13.8094 12.3101 14.73C12.3644 16.1284 12.9469 17.4541 13.9401 18.44C13.9565 18.4442 13.9737 18.4442 13.9901 18.44C14.0226 18.4507 14.0576 18.4507 14.0901 18.44C14.1225 18.44 14.1545 18.4335 14.1843 18.4208C14.2141 18.4081 14.241 18.3896 14.2634 18.3662C14.2858 18.3428 14.3033 18.3152 14.3148 18.2849Z" fill="#273637"/>
</svg>
