<?xml version="1.0" encoding="UTF-8"?>
<svg width="24px" height="24px" viewBox="0 0 24 24" version="1.1" xmlns="http://www.w3.org/2000/svg" xmlns:xlink="http://www.w3.org/1999/xlink">
    <title>Icons/Full Set/General/Folder</title>
    <g id="Icons/Full-Set/General/Folder" stroke="none" stroke-width="1" fill="none" fill-rule="evenodd">
        <path d="M19.5,6.5 L16.2,6.5 L12.8,3.3 C12.5,3 12.2,2.9 11.8,2.9 L4.5,2.9 C3.7,3 3,3.6 3,4.5 L3,7.9 C3,7.9 3,8 3,8 C3,8 3,8 3,8 L3,19.4 C3,20.3 3.7,21 4.5,21 L19.5,21 C20.3,21 21,20.3 21,19.5 L21,8 C21,7.2 20.3,6.5 19.5,6.5 Z M11.6,5 L13.3,6.6 L5,6.6 L5,5 L11.6,5 Z M19,19 L5,19 L5,8.5 L19,8.5 L19,19 Z" id="Shape" fill="#273637"></path>
    </g>
</svg>
