<?xml version="1.0" encoding="UTF-8"?>
<svg width="24px" height="24px" viewBox="0 0 24 24" version="1.1" xmlns="http://www.w3.org/2000/svg" xmlns:xlink="http://www.w3.org/1999/xlink">
    <title>Icons/Full Set/Folder/Symlink Folder</title>
    <g id="Icons/Full-Set/Folder/Symlink-Folder" stroke="none" stroke-width="1" fill="none" fill-rule="evenodd">
        <path d="M11.8,2.9999 C12.2,2.9999 12.5,3.0999 12.8,3.3999 L12.8,3.3999 L16.2,6.5999 L19.5,6.5999 C20.3,6.5999 21,7.2999 21,8.0999 L21,8.0999 L21,19.5999 C21,20.3999 20.3,21.0999 19.5,21.0999 L19.5,21.0999 L4.5,21.0999 C3.7,21.0999 3,20.3999 3,19.4999 L3,19.4999 L3,4.5999 C3,3.6999 3.7,3.0999 4.5,2.9999 L4.5,2.9999 Z M19,8.5999 L5,8.5999 L5,19.0999 L19,19.0999 L19,8.5999 Z M13.8373,10.675 C14.0663,10.675 14.2503,10.859 14.2503,11.088 L14.2503,11.088 L14.2503,14.869 C14.2503,15.143 13.9163,15.282 13.7253,15.087 L13.7253,15.087 L12.7133,14.074 C12.4283,14.258 10.6213,15.511 11.2583,17.195 C11.3073,17.367 11.1083,17.488 10.9583,17.39 C9.6093,16.471 9.5533,13.35 10.8613,12.221 L10.8613,12.221 L9.8413,11.2 C9.6463,11.009 9.7853,10.675 10.0583,10.675 L10.0583,10.675 Z M11.6,5.0999 L5,5.0999 L5,6.6999 L13.3,6.6999 L11.6,5.0999 Z" id="Combined-Shape" fill="#273637"></path>
    </g>
</svg>