<svg width="24" height="24" viewBox="0 0 24 24" fill="none" xmlns="http://www.w3.org/2000/svg">
<path d="M12.91 2.91C12.91 2.40742 12.5025 2 12 2C11.4974 2 11.09 2.40742 11.09 2.91V4.69C11.09 5.19258 11.4974 5.6 12 5.6C12.5025 5.6 12.91 5.19258 12.91 4.69V2.91Z" fill="#273637"/>
<path fill-rule="evenodd" clip-rule="evenodd" d="M11.9982 7.35001C12.6099 7.34782 13.2158 7.46735 13.7808 7.70167C14.3458 7.93598 14.8585 8.28037 15.289 8.71478C16.0485 9.47559 16.521 10.4761 16.6259 11.546C16.731 12.6167 16.4615 13.6907 15.8634 14.585C15.2654 15.4792 14.3757 16.1385 13.3461 16.4503C12.3165 16.7622 11.2105 16.7074 10.2168 16.2953C9.22303 15.8831 8.40292 15.1392 7.89621 14.1901C7.3895 13.2411 7.22754 12.1457 7.43793 11.0907C7.64832 10.0356 8.21804 9.08613 9.05 8.40404C9.88138 7.72244 10.9232 7.34998 11.9982 7.35001ZM13.0146 9.54909C12.6943 9.41626 12.3508 9.34858 12.0041 9.35L11.9995 9.35001C11.3864 9.34969 10.7922 9.56198 10.318 9.95069C9.84389 10.3394 9.51921 10.8805 9.39932 11.4818C9.27942 12.083 9.37172 12.7073 9.66049 13.2481C9.94926 13.789 10.4166 14.213 10.983 14.4478C11.5493 14.6827 12.1796 14.7139 12.7663 14.5362C13.3531 14.3585 13.8601 13.9828 14.201 13.4732C14.5418 12.9635 14.6954 12.3514 14.6355 11.7413C14.5756 11.1311 14.306 10.5605 13.8727 10.1269L13.8694 10.1236C13.6255 9.87723 13.3349 9.68191 13.0146 9.54909Z" fill="#273637"/>
<path d="M4.92533 4.92721C5.2807 4.57183 5.85688 4.57183 6.21226 4.92721L7.47091 6.18586C7.82629 6.54124 7.82629 7.11742 7.47091 7.4728C7.11553 7.82817 6.53935 7.82817 6.18398 7.4728L4.92533 6.21415C4.56995 5.85877 4.56995 5.28259 4.92533 4.92721Z" fill="#273637"/>
<path d="M17.8171 16.5272C17.4617 16.1718 16.8856 16.1718 16.5302 16.5272C16.1748 16.8826 16.1748 17.4588 16.5302 17.8142L17.7888 19.0728C18.1442 19.4282 18.7204 19.4282 19.0758 19.0728C19.4311 18.7174 19.4311 18.1412 19.0758 17.7859L17.8171 16.5272Z" fill="#273637"/>
<path d="M16.5247 7.47223C16.1694 7.11685 16.1694 6.54067 16.5247 6.18529L17.7834 4.92664C18.1388 4.57126 18.715 4.57126 19.0703 4.92664C19.4257 5.28202 19.4257 5.8582 19.0703 6.21357L17.8117 7.47223C17.4563 7.8276 16.8801 7.8276 16.5247 7.47223Z" fill="#273637"/>
<path d="M4.92965 17.7853C4.57428 18.1407 4.57428 18.7169 4.92965 19.0722C5.28503 19.4276 5.86121 19.4276 6.21659 19.0722L7.47524 17.8136C7.83062 17.4582 7.83061 16.882 7.47524 16.5266C7.11986 16.1713 6.54368 16.1713 6.1883 16.5266L4.92965 17.7853Z" fill="#273637"/>
<path d="M2 12C2 11.4974 2.40742 11.09 2.91 11.09H4.69C5.19258 11.09 5.6 11.4974 5.6 12C5.6 12.5026 5.19258 12.91 4.69 12.91H2.91C2.40742 12.91 2 12.5026 2 12Z" fill="#273637"/>
<path d="M19.31 11.09C18.8074 11.09 18.4 11.4974 18.4 12C18.4 12.5026 18.8074 12.91 19.31 12.91H21.09C21.5926 12.91 22 12.5026 22 12C22 11.4974 21.5926 11.09 21.09 11.09H19.31Z" fill="#273637"/>
<path d="M12 18.4C12.5025 18.4 12.91 18.8074 12.91 19.31V21.09C12.91 21.5926 12.5025 22 12 22C11.4974 22 11.09 21.5926 11.09 21.09V19.31C11.09 18.8074 11.4974 18.4 12 18.4Z" fill="#273637"/>
</svg>
