<?xml version="1.0" encoding="UTF-8"?>
<svg width="24px" height="24px" viewBox="0 0 24 24" version="1.1" xmlns="http://www.w3.org/2000/svg" xmlns:xlink="http://www.w3.org/1999/xlink">
    <title>Icons/Full Set/Host/Blueprint</title>
    <g id="Icons/Full-Set/Host/Blueprint" stroke="none" stroke-width="1" fill="none" fill-rule="evenodd">
        <path d="M20.6966,10 C21.1016,10 21.3916,10.348 21.3916,10.753 L21.3916,15.913 C21.3916,16.261 21.1016,16.609 20.6966,16.609 L16.0006,16.609 L16.0006,21.304 C16.0006,21.652 15.6526,22 15.2476,22 L10.0876,22 C9.7396,22 9.3916,21.71 9.3916,21.304 L9.3916,16.145 C9.3916,15.797 9.6816,15.449 10.0876,15.449 L14.8416,15.449 L14.8416,10.696 C14.8416,10.348 15.1316,10 15.5366,10 L20.6966,10 Z M11.931,2 C12.741,2 13.401,2.67 13.401,3.48 L13.401,3.48 L13.42,14.02 L11.42,14.02 L11.401,4 L6,4 L6,19.99 L8.052,19.99 L8.052,21.99 L5.471,21.99 C4.66,21.99 4,21.33 4,20.52 L4,20.52 L4,3.48 C4,2.67 4.66,2 5.471,2 L5.471,2 Z M14.7836,16.609 L10.4936,16.609 L10.4936,20.899 L14.7836,20.899 L14.7836,16.609 Z M11.5946,17.652 L13.7986,19.855 C13.7986,19.913 13.7986,19.913 13.7396,19.913 L11.5946,19.913 C11.5366,19.913 11.5366,19.855 11.5366,19.855 L11.5366,17.71 C11.5366,17.652 11.5366,17.652 11.5946,17.652 Z M9.7501,12.8201 C10.1911,12.8201 10.5501,13.1801 10.5501,13.6201 L10.5501,14.0201 L8.0501,14.0201 L8.0501,17.0201 L8.0521,17.0201 L8.0521,18.2201 L7.6511,18.2201 C7.2101,18.2201 6.8511,17.8601 6.8511,17.4201 L6.8511,13.6201 C6.8511,13.1801 7.2101,12.8201 7.6511,12.8201 L9.7501,12.8201 Z M20.2326,11.159 L15.9426,11.159 L15.9426,15.449 L20.2326,15.449 L20.2326,11.159 Z M19.2136,12.145 C19.2391,12.14575 19.245475,12.151 19.2470688,12.1738281 L19.2476,14.348 C19.2476,14.406 19.1886,14.406 19.1886,14.406 L16.9856,12.203 C16.9856,12.1566 16.9856,12.14732 17.015808,12.145464 L19.2136,12.145 Z M9.9505,9.4274 C10.2825,9.4274 10.5515,9.6954 10.5515,10.0274 C10.5515,10.3584 10.2825,10.6274 9.9505,10.6274 L7.4505,10.6274 C7.1195,10.6274 6.8505,10.3584 6.8505,10.0274 C6.8505,9.6954 7.1195,9.4274 7.4505,9.4274 L9.9505,9.4274 Z M9.9505,5.9646 C10.2825,5.9646 10.5515,6.2326 10.5515,6.5646 C10.5515,6.8956 10.2825,7.1646 9.9505,7.1646 L7.4505,7.1646 C7.1195,7.1646 6.8505,6.8956 6.8505,6.5646 C6.8505,6.2326 7.1195,5.9646 7.4505,5.9646 L9.9505,5.9646 Z" id="Combined-Shape" fill="#273637"></path>
    </g>
</svg>