<svg width="24" height="24" fill="none" xmlns="http://www.w3.org/2000/svg">
  <path d="M10 2H3c-.6 0-1.2.5-1.2 1.2v17.5c0 .7.6 1.3 1.2 1.3h7c.7 0 1.3-.6 1.3-1.3V3.2C11.2 2.5 10.6 2 10 2zm-.8 18H3.8V4h5.4v16z" fill="#273637"/>
  <path d="M5.3 7.1h2.5c.3 0 .6-.3.6-.6s-.3-.6-.7-.6H5.3c-.3 0-.6.3-.6.6s.2.6.6.6zm0 3.5h2.5c.3 0 .6-.3.6-.6s-.3-.7-.7-.7H5.3c-.3 0-.6.3-.6.6s.2.7.6.7zm.2 7.7h2.1c.5 0 .8-.4.8-.9v-3.7c0-.5-.4-.9-.8-.9H5.5c-.5 0-.8.4-.8.9v3.8c-.1.4.3.8.8.8zm.4-4.3h1.2v3H5.9v-3zM21 2h-7c-.7 0-1.3.6-1.3 1.3v17.5c0 .7.6 1.3 1.3 1.3h7c.7 0 1.3-.6 1.3-1.3V3.3C22.2 2.6 21.6 2 21 2zm-.8 18h-5.4V4h5.4v16z" fill="#273637"/>
  <path d="M16.3 7.2h2.5c.3 0 .6-.3.6-.6s-.3-.6-.6-.6h-2.5c-.3 0-.6.3-.6.6s.2.6.6.6zm0 3.4h2.5c.3 0 .6-.3.6-.6s-.3-.6-.6-.6h-2.5c-.3 0-.6.3-.6.6s.2.6.6.6zm.2 7.7h2.1c.5 0 .8-.4.8-.9v-3.7c0-.5-.4-.9-.8-.9h-2.1c-.5 0-.8.4-.8.9v3.8c-.1.4.3.8.8.8zm.4-4.3h1.2v3h-1.2v-3z" fill="#273637"/>
</svg>
