<?xml version="1.0" encoding="UTF-8"?>
<svg width="24px" height="24px" viewBox="0 0 24 24" version="1.1" xmlns="http://www.w3.org/2000/svg" xmlns:xlink="http://www.w3.org/1999/xlink">
    <title>Icons/Full Set/Host/Linux</title>
    <g id="Icons/Full-Set/Host/Linux" stroke="none" stroke-width="1" fill="none" fill-rule="evenodd">
        <path d="M12.1136842,2 C12.7073684,2 13.3010526,2.59368421 13.4,3.28631579 L13.4,3.28631579 L13.3994206,10.4066081 C12.3190409,11.3710739 12.4007864,12.6416546 12.4007864,13.8115005 L12.4007864,14.7779629 C12.4007864,15.0299766 12.1469138,15.3233796 11.8847471,15.3316129 C11.604872,15.3404023 11.3155446,15.0469992 11.3155446,14.7779629 L11.322,14.849 L11.3221053,3.97894737 L5.97894737,3.97894737 L5.97894737,19.8105263 L8.975,19.81 L8.97159176,19.8708 L8.97159176,19.8708 L8.97159176,21.8356257 C8.97159176,21.8538947 8.97148499,21.8720109 8.97127328,21.8899757 L5.28631579,21.8884211 C4.59368421,21.8884211 4,21.2947368 4,20.6021053 L4,20.6021053 L4,3.28631579 C4,2.59368421 4.59368421,2 5.18736842,2 L5.18736842,2 Z M9.64,12.6863158 C10.0357895,12.6863158 10.4315789,13.0821053 10.4315789,13.5768421 L10.4315789,13.5768421 L10.4315789,17.2378947 C10.4315789,17.7326316 10.1347368,18.1284211 9.64,18.1284211 L9.64,18.1284211 L7.66105263,18.1284211 C7.16631579,18.1284211 6.77052632,17.7326316 6.86947368,17.3368421 L6.86947368,17.3368421 L6.86947368,13.5768421 C6.86947368,13.0821053 7.16631579,12.6863158 7.66105263,12.6863158 L7.66105263,12.6863158 Z M9.24421053,13.8736842 L8.05684211,13.8736842 L8.05684211,16.8421053 L9.24421053,16.8421053 L9.24421053,13.8736842 Z M9.93684211,9.32210526 C10.2336842,9.32210526 10.5305263,9.61894737 10.5305263,9.91578947 C10.5305263,10.2126316 10.2336842,10.5094737 9.93684211,10.5094737 L9.93684211,10.5094737 L7.46315789,10.5094737 C7.06736842,10.5094737 6.86947368,10.2126316 6.86947368,9.91578947 C6.86947368,9.61894737 7.16631579,9.32210526 7.46315789,9.32210526 L7.46315789,9.32210526 Z M9.93684211,5.85894737 C10.2336842,5.85894737 10.5305263,6.15578947 10.5305263,6.45263158 C10.5305263,6.74947368 10.2336842,7.04631579 9.93684211,7.04631579 L9.93684211,7.04631579 L7.46315789,7.04631579 C7.06736842,7.04631579 6.86947368,6.74947368 6.86947368,6.45263158 C6.86947368,6.15578947 7.16631579,5.85894737 7.46315789,5.85894737 L7.46315789,5.85894737 Z" id="Combined-Shape" fill="#273637"></path>
        <path d="M11.9008,19.4648 L11.9808,19.4758 C12.0598,19.4968 12.1388,19.5528 12.2198,19.6418 L12.4538,19.9218 C12.6048,20.1118 12.7488,20.3108 12.8838,20.5118 L13.1328,20.8948 C13.3778,21.2808 13.6148,21.6738 13.9098,22.0278 L13.9858,22.1328 C14.0748,22.2788 14.1128,22.4458 14.0948,22.6438 L14.1038,22.7378 C14.0998,22.8908 14.0078,23.0118 13.8608,23.1098 L13.7788,23.1738 L13.7048,23.2448 L13.6108,23.3288 C13.4188,23.4748 13.1968,23.4988 12.9558,23.4408 L12.7358,23.3778 L12.5208,23.3028 L12.1178,23.1558 C11.7118,23.0228 11.2968,22.9238 10.8788,22.8388 L10.6858,22.7958 C10.5578,22.7638 10.4318,22.7268 10.3088,22.6838 L10.2188,22.6458 C10.0268,22.5498 9.9678,22.4028 10.0158,22.1678 L10.0548,21.9338 C10.0938,21.6218 10.0868,21.3108 10.0368,20.9958 L10.0248,20.9008 C10.0058,20.6638 10.0968,20.5718 10.3668,20.5008 L10.5388,20.4548 L10.7138,20.4168 L10.8368,20.3838 C10.9918,20.3278 11.1148,20.2298 11.2148,20.0908 L11.3258,19.9378 C11.3998,19.8358 11.4768,19.7358 11.5638,19.6468 C11.6818,19.5268 11.7928,19.4648 11.9008,19.4648 L11.9008,19.4648 Z M17.1628,19.8708 L17.2048,19.8728 C17.2538,19.8768 17.3208,19.8858 17.4148,19.8888 L17.4958,19.8938 C17.6638,19.9068 17.6858,19.9578 17.6618,20.1628 L17.6638,20.2578 C17.7008,20.5008 17.9778,20.6768 18.2698,20.7038 L18.4018,20.7058 C18.6948,20.6868 18.8988,20.5008 19.0868,20.2828 L19.1458,20.1988 L19.2008,20.1108 L19.2478,20.0608 C19.3508,19.9778 19.4988,20.0038 19.5558,20.1368 L19.5878,20.2358 C19.6048,20.3048 19.6118,20.3778 19.6048,20.4438 L19.5988,20.5578 C19.6068,20.7368 19.6958,20.8808 19.8258,21.0018 L19.9328,21.0818 C20.0768,21.1678 20.2278,21.1828 20.3838,21.2948 L20.4598,21.3588 C20.6128,21.5108 20.6108,21.7058 20.4208,21.8598 L20.3008,21.9468 C20.2198,22.0038 20.1348,22.0548 20.0488,22.1028 L19.7238,22.2928 C19.2938,22.5508 18.8798,22.8338 18.5138,23.1838 L18.3988,23.2788 C18.2008,23.4188 17.9718,23.4668 17.7238,23.4648 L17.5948,23.4578 L17.4658,23.4478 L17.3538,23.4268 C17.1068,23.3608 16.9588,23.1888 16.8978,22.9188 L16.8698,22.7288 C16.8538,22.5388 16.8738,22.3508 16.9148,22.1638 L16.9888,21.7568 C17.0678,21.2118 17.0728,20.6608 17.0788,20.1108 C17.0828,19.9118 17.0748,19.8708 17.1628,19.8708 L17.1628,19.8708 Z M16.7598,20.9568 L16.6808,21.4338 C16.6438,21.7288 16.6078,22.0158 16.5708,22.2998 C16.5468,22.4938 16.5618,22.7228 16.6138,22.9398 C16.0708,22.8048 15.5778,22.8258 15.0568,22.8488 C14.8608,22.8558 14.6598,22.8638 14.4508,22.8628 C14.5848,22.4668 14.5408,22.1018 14.3198,21.7668 C15.2598,21.8818 16.0288,21.6438 16.7598,20.9568 L16.7598,20.9568 Z M15.2548,10.9998 C15.7868,10.9998 16.2658,11.2048 16.6818,11.6148 C16.9838,11.9108 17.1228,12.3058 17.1968,12.7118 C17.2418,12.9428 17.2558,13.1838 17.2498,13.4158 C17.2368,14.0688 17.4028,14.6788 17.7178,15.2378 C17.9418,15.6318 18.2108,15.9948 18.4728,16.3618 C18.8908,16.9448 19.2308,17.5688 19.4378,18.2588 C19.5338,18.5858 19.6158,18.9168 19.5488,19.2628 C19.5288,19.3778 19.5288,19.6028 19.2548,19.6758 C18.9618,19.7718 18.8018,20.0838 18.6288,20.1908 C18.4488,20.2988 18.2428,20.3288 18.0858,20.1908 C17.7678,19.7398 18.2638,19.3498 18.2648,19.3448 C18.5938,19.0978 18.8448,18.5208 18.3228,17.5638 C18.1468,17.2788 17.9068,17.0638 17.6128,16.9158 C17.7388,17.0278 17.8138,17.1938 17.8988,17.3368 C18.2578,17.9698 18.1328,18.0278 18.0858,18.4588 C18.0638,18.6408 17.9748,18.8138 17.8188,18.9678 C17.0808,19.4568 17.0338,18.3918 16.9958,18.1788 C16.7358,16.7228 16.0418,16.2298 16.2768,15.0718 C16.4028,14.7098 16.4698,14.4828 16.4788,14.3898 C16.4938,14.2348 16.4028,14.1208 16.2768,14.0418 C16.3088,13.9258 16.3508,13.8158 16.3728,13.6998 C16.4268,13.3818 16.3128,13.1068 16.1088,12.8758 C15.8928,12.6268 15.4568,12.6878 15.2698,12.9818 C15.1768,13.1258 15.1108,13.2768 15.1328,13.4558 C15.1378,13.4948 15.1328,13.5358 15.1328,13.5768 L14.6448,13.5768 C14.6368,13.4928 14.6338,13.4078 14.6248,13.3258 C14.5988,13.1478 14.5048,13.0078 14.3748,12.8978 C14.1818,12.7328 13.9218,12.8098 13.8318,13.0568 C13.7218,13.3538 13.7498,13.6568 13.8648,13.9448 C13.8958,14.0228 13.8998,14.0628 13.8318,14.1208 C13.5558,14.3548 13.5538,14.6178 13.7788,14.9128 C14.0218,15.2378 15.2928,16.5348 14.2438,17.1408 C13.5548,17.4948 13.2488,17.9658 13.3248,18.5508 C13.3438,18.8568 13.4698,19.0938 13.7008,19.2628 C13.9308,19.4318 14.3888,19.5688 15.0728,19.6758 C15.8988,20.0658 14.0768,21.5278 14.0798,21.5868 C13.6818,21.0618 13.5298,20.8068 13.0908,20.1908 C12.8588,19.8618 12.1728,19.0968 12.1888,19.1898 C11.9718,19.0478 11.7318,19.1508 11.4918,19.3118 C11.4158,19.0808 11.4548,18.9868 11.5338,18.7758 C11.8488,17.9338 12.1928,17.1058 12.7288,16.3738 C12.8558,16.1968 13.0078,16.0488 13.1268,15.8588 C13.3158,15.5578 13.3738,15.1038 13.3798,14.4788 C13.3848,13.8538 13.3848,13.2378 13.3798,12.6328 C13.3768,12.3048 13.5258,12.0038 13.7008,11.7148 C13.9208,11.3598 14.2658,11.1838 14.6518,11.0808 C14.8598,11.0268 15.0608,10.9998 15.2548,10.9998 L15.2548,10.9998 Z M15.7528,13.2148 L15.8208,13.2228 C15.8648,13.2338 15.9068,13.2568 15.9438,13.2968 L16.0078,13.3838 C16.0628,13.4758 16.0858,13.5778 16.0768,13.6918 L16.0578,13.7788 C16.0198,13.8858 15.9318,13.9508 15.7978,13.9968 L15.8428,14.0218 C15.8718,14.0538 15.7938,14.0828 15.8728,14.1158 L15.9208,14.1418 C16.0838,14.2608 16.1128,14.6328 15.6848,14.9088 L15.5438,15.0138 C15.4508,15.0898 15.3608,15.1738 15.2668,15.2378 L15.1698,15.3078 C15.0008,15.4318 14.9728,15.4578 14.7048,15.4098 L14.6678,15.3878 C14.5588,15.2958 14.3038,14.9458 14.1508,14.7918 L14.0858,14.7208 C13.9308,14.5408 13.9348,14.4358 14.1438,14.2558 L14.1768,14.2158 C14.2108,14.1608 14.1988,14.0978 14.1438,14.0228 L14.0698,13.9388 C13.9918,13.8288 13.9888,13.7228 13.9938,13.5768 L14.0038,13.5018 C14.0238,13.4088 14.0768,13.3468 14.1508,13.3318 L14.2088,13.3328 C14.2858,13.3468 14.3618,13.4118 14.3858,13.5088 L14.4038,13.6028 C14.4118,13.6598 14.4138,13.7138 14.4218,13.7968 L14.5518,13.7528 C14.8528,13.6628 15.1478,13.6708 15.4318,13.8508 L15.4288,13.6888 L15.4328,13.5278 L15.4438,13.4558 C15.4628,13.3618 15.5048,13.2778 15.6098,13.2408 C15.6568,13.2238 15.7058,13.2148 15.7528,13.2148 L15.7528,13.2148 Z" id="Fill-1" fill="#273637"></path>
    </g>
</svg>
