<?xml version="1.0" encoding="UTF-8"?>
<svg width="24px" height="24px" viewBox="0 0 24 24" version="1.1" xmlns="http://www.w3.org/2000/svg" xmlns:xlink="http://www.w3.org/1999/xlink">
    <title>Icons/Full Set/Host/Windows</title>
    <g id="Icons/Full-Set/Host/Windows" stroke="none" stroke-width="1" fill="none" fill-rule="evenodd">
        <path d="M20.77,18.999 L20.7706,22.9708 L16.2,22.34 L16.199,18.999 L20.77,18.999 Z M15.199,18.999 L15.2,22.204 L12,21.7638 L12,19 L15.199,18.999 Z M12.1136842,2 C12.6677895,2 13.2218947,2.51716491 13.3737606,3.14925536 L13.4,3.28631579 L13.4,13.833 L11.322,14.287 L11.3221053,3.97894737 L5.97894737,3.97894737 L5.97894737,19.8105263 L10.662,19.81 L10.662,21.888 L5.28631579,21.8884211 C4.63697368,21.8884211 4.07459704,21.3666283 4.00683645,20.7306934 L4,20.6021053 L4,3.28631579 C4,2.63697368 4.52179276,2.07459704 5.07619757,2.00683645 L5.18736842,2 L12.1136842,2 Z M9.64,12.6863158 C10.0053441,12.6863158 10.3706883,13.0235565 10.4247332,13.4645636 L10.4315789,13.5768421 L10.4315789,17.2378947 C10.4315789,17.6945749 10.1786484,18.0669449 9.75061208,18.1215303 L9.64,18.1284211 L7.66105263,18.1284211 C7.20165414,18.1284211 6.8275725,17.7871536 6.85569894,17.4215099 L6.86947368,17.3368421 L6.86947368,13.5768421 C6.86947368,13.1201619 7.12240424,12.747792 7.55044055,12.6932065 L7.66105263,12.6863158 L9.64,12.6863158 Z M15.2,14.965 L15.199,17.999 L12,18 L12,15.4069 L15.2,14.965 Z M20.7705,14.2 L20.77,17.999 L16.199,17.999 L16.2,14.829 L20.7705,14.2 Z M9.24421053,13.8736842 L8.05684211,13.8736842 L8.05684211,16.8421053 L9.24421053,16.8421053 L9.24421053,13.8736842 Z M9.93684211,9.32210526 C10.2336842,9.32210526 10.5305263,9.61894737 10.5305263,9.91578947 C10.5305263,10.1829474 10.2900842,10.4501053 10.0255979,10.5008653 L9.93684211,10.5094737 L7.46315789,10.5094737 C7.06736842,10.5094737 6.86947368,10.2126316 6.86947368,9.91578947 C6.86947368,9.64863158 7.10991579,9.38147368 7.37440211,9.33071368 L7.46315789,9.32210526 L9.93684211,9.32210526 Z M9.93684211,5.85894737 C10.2336842,5.85894737 10.5305263,6.15578947 10.5305263,6.45263158 C10.5305263,6.71978947 10.2900842,6.98694737 10.0255979,7.03770737 L9.93684211,7.04631579 L7.46315789,7.04631579 C7.06736842,7.04631579 6.86947368,6.74947368 6.86947368,6.45263158 C6.86947368,6.18547368 7.10991579,5.91831579 7.37440211,5.86755579 L7.46315789,5.85894737 L9.93684211,5.85894737 Z" id="Combined-Shape" fill="#273637"></path>
    </g>
</svg>
