<?xml version="1.0" encoding="UTF-8"?>
<svg width="24px" height="24px" viewBox="0 0 24 24" version="1.1" xmlns="http://www.w3.org/2000/svg" xmlns:xlink="http://www.w3.org/1999/xlink">
    <title>Icons/Full Set/Status/Missing/Fill</title>
    <g id="Icons/Full-Set/Status/Missing/Fill" stroke="none" stroke-width="1" fill="none" fill-rule="evenodd">
        <path d="M12,3 C7,3 3,7 3,12 C3,17 7,21 12,21 C17,21 21,17 21,12 C21,7 17,3 12,3 Z M12.5,16.1 C12.3,16.3 12.1,16.4 11.8,16.4 C11.5,16.4 11.2,16.3 11.1,16.2 C10.9,16 10.8,15.8 10.8,15.5 C10.8,15.2 10.9,15 11,14.8 C11.2,14.6 11.4,14.6 11.7,14.6 C12,14.6 12.2,14.7 12.4,14.8 C12.6,15 12.7,15.2 12.7,15.5 C12.7,15.7 12.7,15.9 12.5,16.1 Z M14.3,11 C14.1,11.3 13.8,11.6 13.2,12 C12.8,12.3 12.6,12.5 12.5,12.6 C12.4,12.7 12.4,12.9 12.4,13.1 L12.4,13.4 L11,13.4 L11,13 C11,12.6 11.1,12.3 11.2,12.1 C11.4,11.8 11.6,11.6 12,11.3 C12.4,11 12.6,10.8 12.8,10.6 C12.9,10.4 13,10.2 13,10 C13,9.8 12.9,9.6 12.7,9.5 C12.5,9.4 12.3,9.3 12,9.3 C11.4,9.3 10.8,9.5 10.1,9.8 L9.5,8.7 C10.3,8.2 11.2,8 12.1,8 C12.9,8 13.5,8.2 13.9,8.5 C14.3,8.9 14.6,9.4 14.6,10 C14.6,10.4 14.5,10.7 14.3,11 Z" id="Shape" fill="#273637"></path>
    </g>
</svg>
