<svg width="24" height="24" fill="none" xmlns="http://www.w3.org/2000/svg">
  <path fill-rule="evenodd" clip-rule="evenodd" d="M18.583 2H6.873c-.473 0-.945.285-1.229.76L3.19 7.13c-.095.19-.189.475-.189.665v11.78C3 20.335 3.661 21 4.417 21h14.166C19.34 21 20 20.335 20 19.575V3.425C20 2.665 19.339 2 18.583 2zm-.472 17.1H4.89V8.65h2.36c.661 0 1.133-.57 1.133-1.14V3.9h9.728v15.2z" fill="#273637"/>
  <path fill-rule="evenodd" clip-rule="evenodd" d="M9.144 10l.163.004c.904.059 1.72.5 2.193 1.188.464-.653 1.233-1.08 2.09-1.173l.198-.015c.045-.002.094-.001.144 0 1.136.043 2.031.859 2.067 1.853v.225l-.003.081c-.066 1.071-1.097 1.892-2.303 1.833-.905-.04-1.73-.47-2.21-1.152-.692.684-1.215 1.152-2.176 1.152a2.21 2.21 0 01-.208.003C7.9 13.96 6.96 13.066 7.001 12a1.842 1.842 0 01.003-.185c.066-.967.923-1.726 1.98-1.808l.16-.007zm4.738 1.002h-.13c-.621 0-1.249.363-1.752.998.503.635 1.125.999 1.753.999.048.002.098.001.146-.001.654-.038 1.145-.485 1.098-.998a.64.64 0 00.001-.115c-.029-.445-.451-.802-.99-.873l-.126-.01zM9.18 11l-.073.002c-.654.035-1.149.48-1.104.994a.765.765 0 00-.001.12c.034.48.524.854 1.121.88h.13C9.869 13 10.497 12.636 11 12c-.503-.635-1.125-1-1.747-1H9.18z" fill="#273637"/>
</svg>
