<?xml version="1.0" encoding="UTF-8"?>
<svg width="24px" height="24px" viewBox="0 0 24 24" version="1.1" xmlns="http://www.w3.org/2000/svg" xmlns:xlink="http://www.w3.org/1999/xlink">
    <title>Icons/Full Set/Connection/Connected</title>
    <defs>
        <filter id="filter-1">
            <feColorMatrix in="SourceGraphic" type="matrix" values="0 0 0 0 0.152941 0 0 0 0 0.211765 0 0 0 0 0.215686 0 0 0 1.000000 0"></feColorMatrix>
        </filter>
        <polygon id="path-2" points="0.0002 0.0002 17.302 0.0002 17.302 17.3011 0.0002 17.3011"></polygon>
    </defs>
    <g id="Icons/Full-Set/Connection/Connected" stroke="none" stroke-width="1" fill="none" fill-rule="evenodd">
        <g filter="url(#filter-1)" id="Group-3">
            <g transform="translate(3.000000, 3.000000)">
                <mask id="mask-3" fill="white">
                    <use xlink:href="#path-2"></use>
                </mask>
                <g id="Clip-2"></g>
                <path d="M9.0542,10.5002 C8.4542,11.1002 7.4542,11.1002 6.8542,10.5002 C6.2542,9.9002 6.2542,8.9002 6.8542,8.3002 L7.0432,8.1112 L9.2502,10.3042 L9.0542,10.5002 Z M8.5882,6.5662 C9.1882,5.9662 10.1882,5.9662 10.7872,6.5662 C11.4882,7.1672 11.4882,8.1672 10.7872,8.7662 L10.6042,8.9502 L8.4042,6.7502 L8.5882,6.5662 Z M17.3022,0.9492 C17.3022,0.4252 16.8762,0.0002 16.3522,0.0002 C16.0782,0.0002 15.8292,0.1132 15.6572,0.2982 L11.3882,4.4662 C9.9882,3.7662 8.2882,3.8662 7.1882,5.0662 L6.9542,5.3002 L5.5882,6.6672 L5.3542,6.9002 C4.2542,8.0002 4.0542,9.8002 4.7542,11.1002 L0.3062,15.5482 C0.1162,15.7332 0.0002,15.9922 0.0002,16.2782 C0.0002,16.8432 0.4572,17.3012 1.0222,17.3012 C1.2832,17.3012 1.5262,17.2082 1.7062,17.0482 L6.2542,12.5002 C6.7542,12.8002 7.3542,13.0002 7.9542,13.0002 C8.9542,13.0002 9.8542,12.6002 10.4542,12.0002 L10.7052,11.7492 L10.7062,11.7502 L12.3072,10.1502 C13.4072,9.0502 13.4882,7.1672 12.7872,5.8662 L17.0562,1.5982 C17.2122,1.4292 17.3022,1.1972 17.3022,0.9492 L17.3022,0.9492 Z" id="Fill-1" fill="#273637" mask="url(#mask-3)"></path>
            </g>
        </g>
    </g>
</svg>
