<svg width="24" height="24" viewBox="0 0 24 24" fill="none" xmlns="http://www.w3.org/2000/svg">
<path fill-rule="evenodd" clip-rule="evenodd" d="M19.9659 8.55008C20.1619 5.2926 17.8665 2.9973 14.8023 3C11.738 3.00271 9.43864 5.30207 9.43768 8.3646C9.43527 9.12812 9.62608 9.70187 9.81603 10.2731L9.81858 10.2807L3.30343 16.7959L3.3 18.7106C3.30107 19.4741 3.68507 19.8581 4.44853 19.8591L6.36326 19.8557L6.36495 17.9427L8.27968 17.9393L8.28138 16.0263L9.95567 16.0248C10.0341 12.8938 12.5968 10.3797 15.7467 10.3797C16.9655 10.3797 18.0964 10.7561 19.0295 11.399C19.6156 10.5831 19.9657 9.59556 19.9659 8.55008ZM17.9069 7.68824C17.2471 8.34807 16.1773 8.34807 15.5175 7.68824C14.8576 7.02841 14.8576 5.95862 15.5175 5.29879C16.1773 4.63896 17.2471 4.63896 17.9069 5.29879C18.5667 5.95862 18.5667 7.02841 17.9069 7.68824Z" fill="#273637"/>
<path fill-rule="evenodd" clip-rule="evenodd" d="M15.7467 11.3452C18.4286 11.3452 20.5741 13.4907 20.5741 16.1726C20.5741 18.8545 18.4286 21 15.7467 21C13.0648 21 10.9193 18.8545 10.9193 16.1726C10.9193 13.4907 13.0648 11.3452 15.7467 11.3452ZM15.7467 12.4179C13.6548 12.4179 11.9921 14.0807 11.9921 16.1726C11.9921 18.2645 13.6548 19.9272 15.7467 19.9272C17.8386 19.9272 19.5014 18.2645 19.5014 16.1726C19.5014 14.0807 17.8386 12.4179 15.7467 12.4179ZM15.7467 16.9235C16.6049 16.9235 17.4631 17.1381 18.1604 17.5135C17.6777 18.3717 16.7658 18.9618 15.7467 18.9618C14.7276 18.9618 13.8157 18.3717 13.333 17.5135C14.0839 17.1381 14.8885 16.9235 15.7467 16.9235ZM15.7467 13.4907C16.444 13.4907 16.9804 14.0271 16.9804 14.7244C16.9804 15.4217 16.444 15.958 15.7467 15.958C15.0494 15.958 14.513 15.4217 14.513 14.7244C14.513 14.0271 15.0494 13.4907 15.7467 13.4907Z" fill="#273637"/>
</svg>
