<svg width="24" height="24" fill="none" xmlns="http://www.w3.org/2000/svg" xmlns:xlink="http://www.w3.org/1999/xlink">
  <g stroke="none" stroke-width="1" fill="none" fill-rule="evenodd">
    <path fill="#000000" d="M16.48 10.19h-1A5 5 0 1114 6.65a5 5 0 011.47 3.54h2a7 7 0 10-7 7 7 7 0 007-7z" />
    <path fill="#000000" d="M21 19.11l-5.3-5.31a1 1 0 00-1.42 1.42l5.31 5.3A1 1 0 0021 19.11M12.24 12.79a.87.87 0 01-.78-.49L10 9.47l-.44.85a.89.89 0 01-.79.48H4.49a.75.75 0 010-1.5h3.89l.81-1.55a.92.92 0 01.81-.49.94.94 0 01.79.49l1.52 2.89.47-.88a.94.94 0 01.79-.47h2.92a.75.75 0 010 1.5h-2.61L13 12.36a.89.89 0 01-.76.43z" />
  </g>
</svg>
