<svg width="24" height="24" viewBox="0 0 24 24" fill="none" xmlns="http://www.w3.org/2000/svg">
<path fill-rule="evenodd" clip-rule="evenodd" d="M17 2.89C17.431 2.89 17.813 3.165 17.948 3.573L20.948 12.573C20.996 12.716 21.004 12.86 20.987 13.001C20.989 13.022 21 13.04 21 13.062V19.501C21 20.328 20.327 21.001 19.5 21.001H4.5C3.673 21.001 3 20.328 3 19.501V13.062C3 13.04 3.011 13.022 3.013 13.001C2.996 12.86 3.004 12.716 3.052 12.573L6.052 3.573C6.187 3.165 6.569 2.89 7 2.89H17ZM8.102 13.89H5V19.001H19V13.89H15.898C15.512 15.72 14.041 16.89 12 16.89C9.959 16.89 8.488 15.72 8.102 13.89ZM16.279 4.89H7.721L5.387 11.89H10V12.89C10 14.694 11.398 14.89 12 14.89C12.602 14.89 14 14.694 14 12.89V11.89H18.613L16.279 4.89ZM15.25 9.0567C15.664 9.0567 16 9.3927 16 9.8067C16 10.2207 15.664 10.5567 15.25 10.5567H8.75C8.336 10.5567 8 10.2207 8 9.8067C8 9.3927 8.336 9.0567 8.75 9.0567H15.25ZM14.25 6.2227C14.664 6.2227 15 6.5587 15 6.9727C15 7.3867 14.664 7.7227 14.25 7.7227H9.75C9.336 7.7227 9 7.3867 9 6.9727C9 6.5587 9.336 6.2227 9.75 6.2227H14.25Z" fill="#273637"/>
</svg>
