<svg width="24" height="24" viewBox="0 0 24 24" fill="none" xmlns="http://www.w3.org/2000/svg">
<path fill-rule="evenodd" clip-rule="evenodd" d="M12 2.0415L9.01245 2.96764V7.02075L12 7.94689L14.9876 7.02075V2.96764L12 2.0415ZM14.1809 6.19419L12.5975 5.70623L12.3286 5.62656V3.11701L14.1809 3.69461V6.19419Z" fill="#273637"/>
<path d="M15.9834 8.0166V5.92531L20.4647 4.73029V19.2697L15.9834 18.0747V15.9834L18.473 16.7104V7.34938L15.9834 8.0166Z" fill="#273637"/>
<path d="M8.0166 18.0747L3.53527 19.2697V4.73029L8.0166 5.92531V8.0166L5.52697 7.31951V16.6506L8.0166 15.9834V18.0747Z" fill="#273637"/>
<path fill-rule="evenodd" clip-rule="evenodd" d="M9.01245 10.0083L12 9.1917L14.9876 10.0083V13.9917L12 14.7784L9.01245 13.9917V10.0083ZM12.3286 13.7228L14.1809 13.2448V10.7452L12.3286 10.2573V13.7228Z" fill="#273637"/>
<path fill-rule="evenodd" clip-rule="evenodd" d="M9.01245 16.9792L12 16.0531L14.9876 16.9792V21.0324L12 21.9585L9.01245 21.0324V16.9792ZM14.1809 20.2855V17.766L12.3286 18.3436V20.8531L12.5975 20.7734L14.1809 20.2855Z" fill="#273637"/>
</svg>
