<svg width="24" height="24" viewBox="0 0 24 24" fill="none" xmlns="http://www.w3.org/2000/svg">
<path d="M20.4946 6.37345C20.4946 3.7444 15.1568 3.03735 12 3.03735C8.84315 3.03735 3.50539 3.7444 3.50539 6.37345C3.50539 6.42324 3.50539 6.47303 3.50539 6.52282L5.38755 19.1801C5.41302 19.3379 5.47608 19.4872 5.57141 19.6154C5.66674 19.7437 5.79154 19.8471 5.93527 19.917C7.85665 20.7028 9.92641 21.0597 12 20.9627C14.0699 21.0755 16.1396 20.7356 18.0647 19.9668C18.2085 19.8969 18.3333 19.7935 18.4286 19.6652C18.5239 19.537 18.587 19.3876 18.6124 19.2299L20.4846 6.52282C20.4846 6.52282 20.4946 6.42324 20.4946 6.37345ZM12 5.02905C15.8739 5.02905 18.0349 5.92531 18.4531 6.37345C18.0349 6.83154 15.8739 7.7278 12 7.7278C8.12614 7.7278 5.96514 6.83154 5.54689 6.37345C5.96514 5.92531 8.12614 5.02905 12 5.02905ZM16.7203 18.3137C15.1927 18.786 13.5986 19.008 12 18.971C10.4017 19.0037 8.80828 18.7818 7.27967 18.3137L5.86556 8.80332C7.8478 9.43659 9.91922 9.74596 12 9.7195C14.0808 9.74596 16.1522 9.43659 18.1344 8.80332L16.7203 18.3137Z" fill="#273637"/>
</svg>
