<svg width="24" height="24" viewBox="0 0 24 24" fill="none" xmlns="http://www.w3.org/2000/svg">
<path fill-rule="evenodd" clip-rule="evenodd" d="M3 4.5C3 3.67157 3.67157 3 4.5 3H19.5C20.3284 3 21 3.67157 21 4.5V18.5C21 19.3284 20.3284 20 19.5 20H4.5C3.67157 20 3 19.3284 3 18.5V4.5ZM5 18V7H19V18H5Z" fill="#273637"/>
<path fill-rule="evenodd" clip-rule="evenodd" d="M7 9.6C7 9.05128 7.44772 8.6 8 8.6H10.6719C11.2087 8.6 11.2777 8.67115 11.5716 8.97433C11.6499 9.05502 11.744 9.15215 11.8672 9.26875L13.0391 10.35H16C16.5523 10.35 17 10.7977 17 11.35V15.1C17 15.6523 16.5523 16.1 16 16.1H8C7.44772 16.1 7 15.6523 7 15.1V9.6ZM8.2 10.35V9.55H10.5859L11.4 10.35H8.2ZM8.25 11.6H15.75V14.85H8.25V11.6Z" fill="#273637"/>
</svg>
