<svg width="24" height="24" viewBox="0 0 24 24" fill="none" xmlns="http://www.w3.org/2000/svg">
<path fill-rule="evenodd" clip-rule="evenodd" d="M17.75 8.84998H13.25C12.97 8.84998 12.75 9.06995 12.75 9.34998V11.65C12.75 11.9299 12.97 12.15 13.25 12.15H17.75C18.03 12.15 18.25 11.9299 18.25 11.65V9.34998C18.25 9.06995 18.03 8.84998 17.75 8.84998ZM17.5 9.59998V11.4H13.5V9.59998H17.5Z" fill="white"/>
<path d="M6.5 9H10.5C10.7762 9 11 9.22388 11 9.5V11.5C11 11.7761 10.7762 12 10.5 12H6.5C6.22385 12 6 11.7761 6 11.5V9.5C6 9.22388 6.22385 9 6.5 9Z" fill="white"/>
<path d="M10.5 14H6.5C6.22385 14 6 14.2239 6 14.5V16.5C6 16.7761 6.22385 17 6.5 17H10.5C10.7762 17 11 16.7761 11 16.5V14.5C11 14.2239 10.7762 14 10.5 14Z" fill="white"/>
<path d="M13.5 14H17.5C17.7762 14 18 14.2239 18 14.5V16.5C18 16.7761 17.7762 17 17.5 17H13.5C13.2238 17 13 16.7761 13 16.5V14.5C13 14.2239 13.2238 14 13.5 14Z" fill="white"/>
<path fill-rule="evenodd" clip-rule="evenodd" d="M20.5 3.5H3.5C2.67001 3.5 2 4.17004 2 5V19C2 19.83 2.67001 20.5 3.5 20.5H20.5C21.33 20.5 22 19.83 22 19V5C22 4.17004 21.33 3.5 20.5 3.5ZM20 18.5H4V7.5H20V18.5Z" fill="white"/>
</svg>
