<svg width="24" height="24" viewBox="0 0 24 24" fill="none" xmlns="http://www.w3.org/2000/svg">
<path d="M18.5 2H6.1C5.6 2 5.1 2.3 4.8 2.8L2.2 7.4C2.1 7.6 2 7.9 2 8.1V20.5C2 21.3 2.7 22 3.5 22H17.2753C16.9702 21.7124 16.7209 21.3559 16.5535 20.9417L16.1731 20H4V9H6.5C7.2 9 7.7 8.4 7.7 7.8V4H18V6.95454C18.7355 7.13278 19.4133 7.45888 20 7.8996V3.5C20 2.7 19.3 2 18.5 2Z" fill="#273637"/>
<path d="M19.7265 11.0674C19.5718 10.6385 19.1552 10.1973 18.7796 9.85387C18.3501 9.53554 17.7401 9.22585 17.2229 9.20052C17.1621 9.19348 17.1037 9.20231 17.0477 9.22705C16.9917 9.25179 16.9463 9.28546 16.9106 9.33515C16.8749 9.38485 16.8532 9.44698 16.8477 9.50791C16.8421 9.56885 16.8777 9.6912 16.9038 9.74656L17.7389 11.5375C17.7695 11.6031 17.7702 11.6787 17.7407 11.7448L17.2558 12.8344C17.2051 12.9483 17.0783 13.0075 16.9585 12.9731L15.812 12.6442C15.7425 12.6242 15.685 12.5751 15.6544 12.5095L14.8189 10.7177C14.7639 10.601 14.7232 10.5565 14.6725 10.5222C14.6219 10.4879 14.5609 10.4632 14.4998 10.4593C14.4387 10.4554 14.3834 10.4673 14.3288 10.4949C14.2742 10.5225 14.229 10.5606 14.1959 10.6121C13.9099 11.0578 13.7311 11.6938 13.7 12.2225C13.7157 12.7294 13.7849 13.2536 14.0167 13.7299C14.2485 14.2062 14.6232 14.5971 15.0585 14.8992C15.8566 15.3268 16.1861 15.3066 16.5269 15.2857C16.6252 15.2797 16.7245 15.2736 16.8362 15.2782C16.9064 15.2811 16.9674 15.3253 16.9971 15.389L19.5695 20.9055C19.5848 20.9383 19.6021 20.9778 19.6214 21.0219C19.7356 21.2827 19.9208 21.7056 20.1835 21.8673C20.4925 22.0529 20.9707 22.0175 21.2869 21.8673C21.6053 21.7221 21.9342 21.3806 21.9961 21.022C22.0429 20.7233 21.8458 20.3247 21.7191 20.0683C21.6938 20.017 21.6712 19.9714 21.654 19.9335L19.0816 14.417C19.052 14.3533 19.0573 14.2781 19.1001 14.2225C19.1684 14.134 19.2367 14.0618 19.3044 13.9903C19.5394 13.7422 19.7665 13.5024 19.9526 12.617C19.9957 12.1632 19.8812 11.4963 19.7265 11.0674Z" fill="#273637"/>
</svg>
