<?xml version="1.0" encoding="UTF-8"?>
<svg width="24px" height="24px" viewBox="0 0 24 24" version="1.1" xmlns="http://www.w3.org/2000/svg" xmlns:xlink="http://www.w3.org/1999/xlink">
    <title>Icons/Full Set/General/CascadedArchiveIcon</title>
    <g id="Icons/Full-Set/General/CascadedArchiveIcon" stroke="none" stroke-width="1" fill="none" fill-rule="evenodd">
        <path d="M6.39,10.06 C7.3121084,7.86421435 9.65495497,6.62355234 11.9894077,7.09481543 C14.3238605,7.56607852 16.0019312,9.61845538 16,12 C16.0098638,12.176529 16.0098638,12.353471 16,12.53 C17.5741165,13.4326075 18.3434725,15.2817261 17.8741819,17.0345266 C17.4048913,18.7873271 15.8145306,20.0046608 14,20.0000133 L14,20.0000133 L7,20.0000133 C4.41560985,19.9234155 2.31586215,17.8891285 2.15749107,15.3084588 C1.99911999,12.7277891 3.83436718,10.4520185 6.39,10.06 Z M11.265,8.27500007 C9.3320034,8.15073601 7.66426411,9.61700341 7.54,11.55 C7.36116592,11.5225165 7.18084,11.5058196 7,11.5 C6.6609744,11.4988034 6.32375408,11.5493865 6,11.65 C4.31031167,12.1236188 3.23505685,13.7782226 3.48854672,15.5146282 C3.74203659,17.2510338 5.24543188,18.5291923 7,18.5 L7,18.5 L14,18.5 C15.3807119,18.5 16.5,17.3807119 16.5,16 C16.4838757,14.6961618 15.4794466,13.6181323 14.18,13.51 C14.4081076,13.0565394 14.5311523,12.5575247 14.54,12.05 L14.54,12.05 L14.54,12 C14.664264,10.0670034 13.1979966,8.39926414 11.265,8.27500007 Z M10.42,5.53 C11.8372096,4.0764174 13.9926486,3.62404014 15.8746793,4.38518777 C17.75671,5.1463354 18.9916934,6.96989744 19,9 C19.0098638,9.17652899 19.0098638,9.35347101 19,9.53 C20.1375271,10.1920211 20.8765928,11.3712589 20.9764673,12.6836098 C21.0763418,13.9959607 20.5242424,15.2734607 19.5,16.1 C19.5054118,16.0668863 19.5054118,16.0331137 19.5,16 C19.5166811,15.3756917 19.4253368,14.753197 19.23,14.16 C19.429244,13.7947125 19.535697,13.3860704 19.54,12.97 C19.5305889,12.1992261 19.1604359,11.4774278 18.54,11.02 C18.1921929,10.7403636 17.7730385,10.5636952 17.33,10.51 L17.33,10.51 L17.14,10.51 C17.1826574,10.4157131 17.2193953,10.3188586 17.25,10.22 C17.4010341,9.84759652 17.4856468,9.4516088 17.5,9.05 L17.5,9.05 L17.5,9 C17.5,8.07174229 17.1312511,7.18150359 16.4748737,6.52512627 C15.8184964,5.86874894 14.9282577,5.5 14,5.5 C13.5637484,5.51183938 13.1333378,5.60334399 12.73,5.77 C12.1665842,5.61336443 11.5847778,5.5326514 11,5.53 C10.8068017,5.51978036 10.6131983,5.51978036 10.42,5.53 Z" id="Combined-Shape" fill="#273637"></path>
    </g>
</svg>
