<svg width="24" height="24" viewBox="0 0 24 24" fill="none" xmlns="http://www.w3.org/2000/svg">
<path fill-rule="evenodd" clip-rule="evenodd" d="M19.5 6.50002H16.2L12.8 3.30002C12.5 3.00002 12.2 2.90002 11.8 2.90002H4.5C3.7 3.00002 3 3.60002 3 4.50002V7.90002V8.00002V19.4C3 20.3 3.7 21 4.5 21H19.5C20.3 21 21 20.3 21 19.5V8.00002C21 7.20002 20.3 6.50002 19.5 6.50002ZM11.6 5.00002L13.3 6.60002H5V5.00002H11.6ZM19 19H5V8.50002H19V19Z" fill="#273637"/>
<path fill-rule="evenodd" clip-rule="evenodd" d="M10.9 17.75H8.7C8.3 17.75 8 17.35 8 16.95V14.75C8 14.35 8.3 14.05 8.7 14.05H10.1V13.35H8.7C8.3 13.35 8 13.05 8 12.65V10.45C8 10.05 8.3 9.75 8.7 9.75H10.9C11.3 9.75 11.6 10.05 11.6 10.45V11.85H12.4V10.45C12.4 10.05 12.7 9.75 13.1 9.75H15.3C15.7 9.75 16 10.05 16 10.45V12.75C16 13.15 15.7 13.45 15.3 13.45H13.9V14.15H15.3C15.7 14.15 16 14.45 16 14.85V17.05C16 17.45 15.7 17.75 15.3 17.75H13.1C12.7 17.75 12.4 17.45 12.4 17.05V15.75H11.6V17.05C11.6 17.45 11.3 17.75 10.9 17.75ZM15.2 16.75V15.05H14V15.35C14 15.55 13.8 15.65 13.7 15.65H13.5V16.75H15.2ZM15.2 10.65H13.5V11.75H13.7C13.9 11.75 14 11.95 14 12.05V12.35H15.2V10.65ZM9 10.65V12.35H10.2V12.05C10.2 11.85 10.4 11.75 10.5 11.75H10.7V10.65H9ZM10.2 15.05H9V16.75H10.7V15.65H10.5C10.3 15.65 10.2 15.45 10.2 15.35V15.05Z" fill="#273637"/>
</svg>
