<svg width="24" height="24" viewBox="0 0 24 24" fill="none" xmlns="http://www.w3.org/2000/svg">
<path d="M17.8212 3.04384C18.4597 3.22122 18.8336 3.88267 18.6562 4.52123C17.9855 6.93578 17.0218 8.47041 15.7992 9.50626C14.6732 10.4602 13.4072 10.9098 12.3302 11.2924L12.1532 11.3553C11.0006 11.7665 10.0054 12.1495 9.07377 12.9548C8.20768 13.7034 7.31925 14.8898 6.53082 16.9879H11.48C11.7039 16.9879 11.89 17.171 11.89 17.3948V18.88C11.89 19.1038 11.7039 19.2869 11.48 19.2869H4.13995C3.50891 19.2869 3 18.7783 3 18.1476V4.13943C3 3.50871 3.50891 3.00006 4.13995 3.00006C4.77099 3.00006 5.2799 3.50871 5.2799 4.13943V13.9564C5.94978 12.7452 6.69563 11.8381 7.50435 11.1391C8.80705 10.0131 10.1869 9.50863 11.3468 9.09483L11.3978 9.07663C12.5715 8.65798 13.4629 8.34002 14.2477 7.67511C15.0095 7.02971 15.7645 5.96434 16.3438 3.87889C16.5212 3.24032 17.1826 2.86646 17.8212 3.04384Z" fill="#273637"/>
<path fill-rule="evenodd" clip-rule="evenodd" d="M17.5949 22.0261L17.0051 22.829H17.0255C16.9238 23.0323 16.6289 23.0323 16.334 22.829L14.7577 21.9245C14.5645 21.7212 14.4628 21.5281 14.5645 21.3248L14.9611 20.4202C14.7013 20.2862 14.6073 19.9658 14.5253 19.6866C14.5078 19.627 14.4909 19.5692 14.473 19.5156L13.4866 19.4139C13.2832 19.4139 13.09 19.2208 13.09 19.0175V17.2185C13.09 17.0254 13.2934 16.8221 13.4866 16.8221H14.5645C14.6447 16.5549 14.8109 16.2954 14.9808 16.0301C15.0048 15.9927 15.0288 15.9552 15.0526 15.9175L14.6561 15.0129C14.5544 14.8097 14.6561 14.5149 14.8493 14.4133L15.9475 13.5595C16.2424 13.346 16.8424 13.468 16.9441 13.6713L17.5949 14.4133H18.5813L19.1712 13.6103C19.3644 13.5087 19.5678 13.407 19.761 13.5087L21.3372 14.4133C21.5304 14.6165 21.6321 14.8097 21.5304 15.0129L21.1338 15.9175C21.1457 15.9364 21.1577 15.9552 21.1696 15.974C21.3506 16.2589 21.5265 16.5361 21.6219 16.8221L22.6083 16.9238C22.8117 16.9238 23.0049 17.1169 23.0049 17.3202V19.1192C23.0049 19.3123 22.8015 19.5156 22.6083 19.5156L21.6219 19.6172C21.5417 19.8845 21.3756 20.1439 21.2056 20.4093C21.1817 20.4467 21.1577 20.4842 21.1338 20.5218L21.5304 21.4264C21.6321 21.6297 21.5304 21.9244 21.3372 22.0261L19.761 22.9307C19.5678 23.0323 19.2729 23.0323 19.1712 22.829L18.5813 22.0261H17.5949ZM16.8628 18.2248C16.8628 18.8143 17.361 19.4038 18.0627 19.4038C18.6627 19.4038 19.2627 18.8143 19.2627 18.2248C19.2627 17.6352 18.6627 17.0457 18.0627 17.0457C17.4627 17.0457 16.8628 17.6352 16.8628 18.2248Z" fill="#273637"/>
</svg>
