<svg width="24" height="24" viewBox="0 0 24 24" fill="none" xmlns="http://www.w3.org/2000/svg">
<path fill-rule="evenodd" clip-rule="evenodd" d="M19.3 9.79998C19.2344 8.38854 18.7037 7.03845 17.7904 5.96027C16.8772 4.88209 15.6328 4.13644 14.2514 3.83961C12.8699 3.54277 11.4291 3.71143 10.1536 4.31929C8.87804 4.92715 7.83952 5.94004 7.19998 7.19998C7.16069 7.2635 7.12722 7.33044 7.09998 7.39998H8.90998C9.03618 7.3847 9.16377 7.3847 9.28998 7.39998H9.35998C9.40407 7.31728 9.45777 7.24008 9.51998 7.16998C9.92607 6.66756 10.4419 6.26483 11.0278 5.99268C11.6137 5.72053 12.2541 5.5862 12.9 5.59998C14.0687 5.6243 15.1844 6.09269 16.0202 6.90996C16.8561 7.72723 17.3494 8.83207 17.4 9.99998V10.2L17.3 11L17.9 11.3C18.5237 11.5708 19.0547 12.0179 19.4278 12.5864C19.8009 13.1549 19.9997 13.82 20 14.5C19.9896 15.425 19.6175 16.3092 18.9634 16.9634C18.3092 17.6175 17.425 17.9896 16.5 18H15L14.64 18.63L13.81 20H16.5C17.9546 19.9869 19.346 19.4033 20.3746 18.3746C21.4033 17.346 21.9869 15.9546 22 14.5C21.999 13.5491 21.7494 12.615 21.2757 11.7905C20.8021 10.966 20.1209 10.2798 19.3 9.79998ZM13.41 15.75L12.8 15.31C12.8045 15.24 12.8045 15.1699 12.8 15.1C12.8047 15.0334 12.8047 14.9665 12.8 14.9L13.36 14.5C13.6066 14.3082 13.7778 14.0357 13.8436 13.7304C13.9094 13.4251 13.8657 13.1063 13.72 12.83L12.65 11C12.475 10.739 12.2144 10.5473 11.9132 10.4579C11.612 10.3685 11.2891 10.3869 11 10.51L10.4 10.78L10.01 10.56L10 9.79996C9.94626 9.49616 9.78779 9.22078 9.55213 9.02166C9.31647 8.82254 9.01851 8.71225 8.71 8.70996H6.66C6.3426 8.72164 6.03966 8.84569 5.80522 9.05999C5.57078 9.27428 5.42008 9.56488 5.38 9.87996L5.32 10.56L5 10.77L4.35 10.45C4.05037 10.3264 3.71647 10.3139 3.40846 10.4148C3.10044 10.5156 2.83856 10.7231 2.67 11L1.67 12.71C1.56635 12.8522 1.49554 13.0157 1.46269 13.1886C1.42983 13.3615 1.43575 13.5396 1.48 13.71C1.56137 14.01 1.74093 14.274 1.99 14.46L2.54 14.85V15.25L1.98 15.65C1.73584 15.8458 1.5667 16.1199 1.50111 16.4259C1.43553 16.732 1.47752 17.0513 1.62 17.33L2.72 19.2C2.89829 19.4427 3.15262 19.6188 3.44254 19.7004C3.73247 19.7819 4.04133 19.7642 4.32 19.65L5 19.37C5.12 19.44 5.24 19.51 5.37 19.57V20.29V20.41C5.42555 20.7129 5.58453 20.9872 5.8198 21.186C6.05506 21.3848 6.35203 21.4957 6.66 21.5H8.71C9.02916 21.4906 9.33448 21.3676 9.57099 21.1531C9.8075 20.9386 9.95963 20.6467 10 20.33L10.07 19.65L10.42 19.45L11.13 19.76C11.4224 19.8711 11.7441 19.8781 12.041 19.7797C12.3379 19.6814 12.5918 19.4837 12.76 19.22L13.76 17.51C13.8526 17.3868 13.9198 17.2465 13.9575 17.0971C13.9953 16.9477 14.0029 16.7923 13.98 16.64C13.9492 16.4611 13.8829 16.2902 13.785 16.1373C13.6871 15.9845 13.5596 15.8528 13.41 15.75ZM11.52 18.23L10.26 17.69L9.91 17.93C9.62585 18.1208 9.32455 18.2849 9.01 18.42L8.58 18.6L8.47 19.94H6.92L6.86 18.44L6.32 18.28C6.04692 18.1976 5.79461 18.0578 5.58 17.87L5.22 17.57L3.9 18.13L3.13 16.77L3.85 16.25L4.27 15.88L4.14 15.37C4.13395 15.2634 4.13395 15.1565 4.14 15.05C4.12975 14.9268 4.12975 14.8031 4.14 14.68L4.27 14.17L3.12 13.33L3.89 12L5.14 12.62L5.53 12.29C5.78026 12.0855 6.06012 11.9203 6.36 11.8L6.79 11.61L6.91 10.28H8.46L8.58 11.61L9.01 11.8C9.30989 11.9203 9.58975 12.0855 9.84 12.29L10.22 12.6L11.47 12L12.25 13.35L11.52 13.88L11.11 14.24L11.23 14.75C11.2413 14.8563 11.2413 14.9636 11.23 15.07C11.2453 15.1962 11.2453 15.3238 11.23 15.45L11.1 15.95L12.31 16.84L11.52 18.23ZM6.84334 13.8029C7.09988 13.6315 7.40149 13.54 7.71003 13.54C8.12376 13.54 8.52055 13.7044 8.81311 13.997C9.10567 14.2895 9.27003 14.6863 9.27003 15.1C9.27003 15.4086 9.17853 15.7102 9.00712 15.9667C8.8357 16.2233 8.59206 16.4232 8.30701 16.5413C8.02196 16.6594 7.70829 16.6903 7.40568 16.6301C7.10307 16.5699 6.82511 16.4213 6.60694 16.2031C6.38877 15.985 6.24019 15.707 6.18 15.4044C6.11981 15.1018 6.1507 14.7881 6.26877 14.5031C6.38685 14.218 6.58679 13.9744 6.84334 13.8029Z" fill="#273637"/>
</svg>
