<svg width="24" height="24" viewBox="0 0 24 24" fill="none" xmlns="http://www.w3.org/2000/svg">
<path d="M6.95083 6V4.5H17.9508V19.5H6.95083V18H4.95083V19.9C4.95083 20.7837 5.66718 21.5 6.55083 21.5H18.3508C19.2345 21.5 19.9508 20.7837 19.9508 19.9V4.1C19.9508 3.21634 19.2345 2.5 18.3508 2.5H6.55083C5.66717 2.5 4.95083 3.21635 4.95083 4.1V6H4.65014C4.31823 6 4.04917 6.26906 4.04917 6.60096C4.04917 6.93286 4.31823 7.20192 4.65013 7.20192H7.24821C7.58011 7.20192 7.84917 6.93286 7.84917 6.60096C7.84917 6.26906 7.58011 6 7.24821 6H6.95083Z" fill="white"/>
<path d="M15.8339 14.3553C15.7384 14.2671 15.6429 14.179 15.5547 14.0908C13.4974 12.4315 10.5101 12.8296 8.85082 14.8875V15.75H16.3508V14.8875C16.2179 14.7099 16.0259 14.5326 15.8339 14.3553Z" fill="white"/>
<path d="M14.4926 10.1088C14.4926 9.08192 13.6606 8.25 12.6343 8.25C11.6079 8.25 10.776 9.08192 10.776 10.1088C10.776 11.1346 11.6079 11.9665 12.6343 11.9665C13.6606 11.9665 14.4926 11.1346 14.4926 10.1088Z" fill="white"/>
<path d="M6.94917 8.66667H4.94917V10.6314H4.65014C4.31823 10.6314 4.04917 10.9005 4.04917 11.2324C4.04917 11.5643 4.31823 11.8333 4.65013 11.8333H7.24821C7.58011 11.8333 7.84917 11.5643 7.84917 11.2324C7.84917 10.9005 7.58011 10.6314 7.24821 10.6314H6.94917V8.66667Z" fill="white"/>
<path d="M6.94917 13.3345H4.94917V15.2993H4.65013C4.31823 15.2993 4.04917 15.5683 4.04917 15.9002C4.04917 16.2321 4.31823 16.5012 4.65013 16.5012H7.24821C7.58011 16.5012 7.84917 16.2321 7.84917 15.9002C7.84917 15.5683 7.58011 15.2993 7.24821 15.2993H6.94917V13.3345Z" fill="white"/>
</svg>
