<svg width="24" height="24" viewBox="0 0 24 24" fill="none" xmlns="http://www.w3.org/2000/svg">
<path d="M16.2414 18.1488H7.76862C7.2879 18.1488 6.89731 17.7567 6.8873 17.274V15.3233L6.1562 14.4284L4.78413 14.2172C4.4336 14.1669 4.14316 13.8954 4.06304 13.5435L3.52223 11.1403C3.44211 10.7883 3.58232 10.4263 3.88277 10.2152L5.02449 9.43087L5.27487 8.3449L4.58383 7.13826C4.40355 6.82655 4.4336 6.43439 4.65393 6.15284L6.18624 4.22222C6.40657 3.94067 6.78715 3.82001 7.12766 3.93062L8.44965 4.33283L9.45116 3.85018L9.96193 2.55304C10.0921 2.22122 10.4126 2 10.7732 2H13.2268C13.5874 2 13.9079 2.22122 14.0381 2.55304L14.5488 3.85018L15.5503 4.33283L16.8723 3.93062C17.2129 3.83007 17.5934 3.93062 17.8138 4.22222L19.3461 6.15284C19.5664 6.43439 19.5964 6.82655 19.4162 7.13826L18.7251 8.3449L18.9755 9.43087L20.1172 10.2152C20.4177 10.4163 20.5579 10.7883 20.4778 11.1403L19.9269 13.5435C19.8468 13.8954 19.5564 14.1669 19.2059 14.2172L17.8338 14.4284L17.1227 15.3233V17.274C17.1027 17.7567 16.7121 18.1488 16.2314 18.1488H16.2414ZM15.3701 16.3891V15.0116C15.3801 14.8105 15.4502 14.6194 15.5704 14.4686L16.6921 13.0608C16.8323 12.8899 17.0226 12.7692 17.2429 12.7391L18.3646 12.5681L18.645 11.3313L17.7136 10.6878C17.5333 10.5671 17.4031 10.3761 17.3531 10.1549L16.9525 8.40523C16.9024 8.19407 16.9324 7.9628 17.0426 7.77175L17.6034 6.78633L16.8122 5.79085L15.7306 6.12268C15.5203 6.18301 15.29 6.17295 15.0897 6.0724L13.4772 5.28808C13.2769 5.18753 13.1267 5.02665 13.0466 4.81549L12.636 3.75968H11.3741L10.9634 4.81549C10.8833 5.01659 10.7231 5.18753 10.5328 5.28808L8.92036 6.0724C8.72006 6.17295 8.49973 6.18301 8.27939 6.12268L7.19776 5.79085L6.40657 6.78633L6.96742 7.77175C7.07758 7.9628 7.10763 8.19407 7.05755 8.40523L6.65695 10.1549C6.60687 10.366 6.47668 10.5571 6.29641 10.6878L5.365 11.3313L5.64543 12.5681L6.76712 12.7391C6.98745 12.7692 7.17773 12.8899 7.31795 13.0608L8.43964 14.4686C8.55982 14.6194 8.62992 14.8105 8.62992 15.0116V16.3891H15.3701Z" fill="white"/>
<path d="M14.5789 22H9.53128C8.69001 22 8.02902 21.4067 8.02902 20.6425V17.7868C8.02902 17.2338 8.4797 16.7813 9.03053 16.7813C9.58136 16.7813 10.032 17.2338 10.032 17.7868V19.9889H14.0781V17.6863C14.0781 17.1332 14.5288 16.6807 15.0796 16.6807C15.6305 16.6807 16.0811 17.1332 16.0811 17.6863V20.6425C16.0811 21.4067 15.4202 22 14.5789 22Z" fill="white"/>
<path d="M10.012 17.5455C9.64145 17.5455 9.34099 17.2438 9.34099 16.8718V9.63198C9.34099 9.25993 9.64145 8.95827 10.012 8.95827C10.3826 8.95827 10.683 9.25993 10.683 9.63198V16.8718C10.683 17.2438 10.3826 17.5455 10.012 17.5455Z" fill="white"/>
<path d="M14.0281 17.5455C13.6575 17.5455 13.357 17.2438 13.357 16.8718V9.63198C13.357 9.25993 13.6575 8.95827 14.0281 8.95827C14.3986 8.95827 14.6991 9.25993 14.6991 9.63198V16.8718C14.6991 17.2438 14.3986 17.5455 14.0281 17.5455Z" fill="white"/>
<path d="M12.025 12.6385C11.9249 12.6385 11.8147 12.6184 11.7246 12.5681L9.72157 11.5626C9.39107 11.3917 9.25086 10.9894 9.42111 10.6476C9.59137 10.3157 9.99197 10.175 10.3325 10.3459L12.0351 11.2006L13.7376 10.3459C14.0681 10.175 14.4787 10.3157 14.649 10.6476C14.8192 10.9794 14.679 11.3917 14.3485 11.5626L12.3455 12.5681C12.2554 12.6184 12.1452 12.6385 12.0451 12.6385H12.025Z" fill="white"/>
</svg>
