<?xml version="1.0" encoding="UTF-8"?>
<svg width="24px" height="24px" viewBox="0 0 24 24" version="1.1" xmlns="http://www.w3.org/2000/svg" xmlns:xlink="http://www.w3.org/1999/xlink">
    <title>Icons/Full Set/General/Dashboard</title>
    <g id="Icons/Full-Set/General/Dashboard" stroke="none" stroke-width="1" fill="none" fill-rule="evenodd">
        <path d="M12.5661548,1.99999051 C17.864888,2.23443872 22.1268641,6.64121157 22.1268641,11.9950902 C22.1268641,17.4004841 17.7824757,21.8404583 12.4129159,21.9957958 L12.3442856,22 C11.7917297,22 11.3437947,21.5520649 11.3437947,20.999509 C11.3437947,20.4469531 11.7917297,19.999018 12.3442856,19.999018 C12.3565344,19.999018 12.3687318,19.9992382 12.380874,19.9996746 C16.6641668,19.8572687 20.1258821,16.3108145 20.1258821,11.9950902 C20.1258821,7.7418295 16.7636478,4.23573196 12.5657975,4.00341609 C12.0135143,4.001732 11.566126,3.55400656 11.566126,3.00178799 C11.566126,2.44923208 12.0140611,2.00129701 12.566617,2.00129701 Z M12.9138881,5.97821624 L13.0223962,5.99214435 C15.4235745,6.49238984 17.3245074,8.3933227 17.8247529,10.6944519 C18.5250966,13.9960722 16.4240655,17.0975942 13.1224453,17.7979379 C9.82082506,18.4982816 6.61925393,16.3972505 6.01895934,13.0956303 C5.91891024,12.4953357 6.21905754,11.9950902 6.81935213,11.8950411 C7.41964671,11.794992 7.9198922,12.0951393 8.0199413,12.6954339 C8.32008859,14.3962686 9.62072686,15.5968577 11.2215124,15.897005 C13.4225926,16.2972014 15.5236236,14.8965141 15.92382,12.6954339 C16.3240164,10.4943538 14.923329,8.3933227 12.7222489,7.99312631 L12.7222489,7.99312631 L12.5890474,7.96307059 C12.0775538,7.81552436 11.821807,7.34665522 11.821807,6.79253714 L11.821807,6.79253714 L11.8506842,6.68701888 C12.007102,6.23767301 12.5578825,5.89924162 13.0223962,5.99214435 Z M12.1219543,10.4943538 C12.9507882,10.4943538 13.6226908,11.1662564 13.6226908,11.9950902 C13.6226908,12.8239241 12.9507882,13.4958267 12.1219543,13.4958267 C11.2931204,13.4958267 10.6212178,12.8239241 10.6212178,11.9950902 C10.6212178,11.1662564 11.2931204,10.4943538 12.1219543,10.4943538 Z" id="Combined-Shape" fill="#273637"></path>
    </g>
</svg>
