<svg width="24" height="24" viewBox="0 0 24 24" fill="none" xmlns="http://www.w3.org/2000/svg">
<path fill-rule="evenodd" clip-rule="evenodd" d="M10 2.00002C12.4841 1.94455 14.9613 2.28205 17.34 3.00002C17.5333 3.06989 17.7003 3.19762 17.8184 3.36581C17.9365 3.53401 17.9999 3.7345 18 3.94002V11.25C18 11.9794 17.7103 12.6788 17.1945 13.1946C16.6788 13.7103 15.9793 14 15.25 14H4V16.31C5.96382 16.787 7.97918 17.0188 10 17C10.2652 17 10.5196 17.1054 10.7071 17.2929C10.8946 17.4804 11 17.7348 11 18C11 18.2652 10.8946 18.5196 10.7071 18.7071C10.5196 18.8947 10.2652 19 10 19C7.51593 19.0555 5.0387 18.718 2.66 18C2.46673 17.9301 2.29968 17.8024 2.18159 17.6342C2.06349 17.466 2.00009 17.2655 2 17.06V3.94002C2.00009 3.7345 2.06349 3.53401 2.18159 3.36581C2.29968 3.19762 2.46673 3.06989 2.66 3.00002C5.0387 2.28205 7.51593 1.94455 10 2.00002ZM16 4.69002C14.0362 4.21304 12.0208 3.98127 10 4.00002C7.97918 3.98127 5.96382 4.21304 4 4.69002V7.00002H16V4.69002ZM15.7775 11.7775C15.9176 11.6374 15.9974 11.4481 16 11.25V9.00002H4V12H15.25C15.4481 11.9974 15.6374 11.9176 15.7775 11.7775Z" fill="#273637"/>
<path d="M13 19H18.58L17.29 20.29C17.1963 20.383 17.1219 20.4936 17.0711 20.6155C17.0203 20.7373 16.9942 20.868 16.9942 21C16.9942 21.132 17.0203 21.2628 17.0711 21.3846C17.1219 21.5065 17.1963 21.6171 17.29 21.71C17.3834 21.8027 17.4943 21.876 17.6161 21.9258C17.7379 21.9756 17.8684 22.0008 18 22C18.1316 22.0008 18.2621 21.9756 18.3839 21.9258C18.5057 21.876 18.6166 21.8027 18.71 21.71L21.71 18.71C21.8983 18.5217 22.0041 18.2663 22.0041 18C22.0041 17.7337 21.8983 17.4783 21.71 17.29L18.71 14.29C18.6168 14.1968 18.5061 14.1228 18.3842 14.0724C18.2624 14.0219 18.1319 13.9959 18 13.9959C17.7337 13.9959 17.4783 14.1017 17.29 14.29C17.1017 14.4783 16.9959 14.7337 16.9959 15C16.9959 15.1319 17.0219 15.2625 17.0723 15.3843C17.1228 15.5061 17.1968 15.6168 17.29 15.71L18.59 17H13C12.7348 17 12.4804 17.1054 12.2929 17.2929C12.1054 17.4805 12 17.7348 12 18C12 18.2652 12.1054 18.5196 12.2929 18.7071C12.4804 18.8947 12.7348 19 13 19Z" fill="#273637"/>
</svg>
