<svg width="24" height="24" viewBox="0 0 24 24" fill="none" xmlns="http://www.w3.org/2000/svg">
<path d="M10.3095 2.07435C10.6099 1.97522 10.9103 1.97522 11.2107 2.07435L17.0818 4.41818L15.521 5.97896L10.71 4.057L5.0026 6.33705V14.1685C5.0026 15.0607 5.40312 16.052 6.0039 16.746C6.60468 17.4399 8.20675 19.026 10.71 19.9182C12.5946 19.2465 13.9684 18.1815 14.7887 17.4H17.3856C17.2413 17.6209 17.0848 17.8329 16.9181 18.0347C16.2171 18.9269 14.2145 20.9095 11.0104 21.9009L10.71 22L10.4096 21.9009C7.20546 20.9095 5.20286 18.9269 4.50195 18.0347C3.50065 16.9442 3 15.5564 3 14.0694V5.94052C3 5.34572 3.40052 4.85006 4.0013 4.55266L10.3095 2.07435Z" fill="#273637"/>
<path d="M21.7 8.7C21.7 9.63888 20.9389 10.4 20 10.4C19.836 10.4 19.6774 10.3768 19.5273 10.3334L17.554 12.3067C17.6791 12.5436 17.75 12.8135 17.75 13.1C17.75 14.0389 16.9889 14.8 16.05 14.8C15.1111 14.8 14.35 14.0389 14.35 13.1C14.35 12.84 14.4084 12.5936 14.5127 12.3733L13.311 11.1716C13.2102 11.1902 13.1062 11.2 13 11.2C12.8938 11.2 12.7899 11.1902 12.6891 11.1716L10.5826 13.2781C10.6584 13.4707 10.7 13.6805 10.7 13.9C10.7 14.8389 9.93889 15.6 9.00001 15.6C8.06113 15.6 7.30001 14.8389 7.30001 13.9C7.30001 12.9611 8.06113 12.2 9.00001 12.2C9.16406 12.2 9.32268 12.2232 9.47276 12.2666L11.4791 10.2603C11.3645 10.0315 11.3 9.77328 11.3 9.49999C11.3 8.5611 12.0611 7.79999 13 7.79999C13.9389 7.79999 14.7 8.5611 14.7 9.49999C14.7 9.77326 14.6355 10.0315 14.521 10.2602L15.6973 11.4366C15.8111 11.4126 15.9291 11.4 16.05 11.4C16.1413 11.4 16.2309 11.4072 16.3183 11.4211L18.4174 9.32198C18.3416 9.12935 18.3 8.91953 18.3 8.7C18.3 7.76112 19.0611 7 20 7C20.9389 7 21.7 7.76112 21.7 8.7Z" fill="#273637"/>
</svg>
