<svg width="24" height="24" viewBox="0 0 24 24" fill="none" xmlns="http://www.w3.org/2000/svg">
<path fill-rule="evenodd" clip-rule="evenodd" d="M5 3H18C18.5304 3 19.0391 3.21071 19.4142 3.58579C19.7893 3.96086 20 4.46957 20 5V12.35C19.488 11.6131 18.8007 11.0152 18 10.61V9.55H13.69L13.17 10.38C13.0971 10.4864 13.0004 10.5743 12.8875 10.6368C12.7747 10.6993 12.6489 10.7346 12.52 10.74C12.3905 10.7389 12.2634 10.7042 12.1512 10.6393C12.0391 10.5745 11.9456 10.4817 11.88 10.37L10.83 8.56L9.27 13.09C9.21913 13.2362 9.12485 13.3633 8.99975 13.4545C8.87466 13.5456 8.72473 13.5964 8.57 13.6C8.41849 13.6001 8.27052 13.5542 8.14557 13.4685C8.02062 13.3829 7.92454 13.2613 7.87 13.12L6.49 9.55H5V18H10.61C11.0152 18.8007 11.6131 19.488 12.35 20H5C4.46957 20 3.96086 19.7893 3.58579 19.4142C3.21071 19.0391 3 18.5304 3 18V5C3 4.46957 3.21071 3.96086 3.58579 3.58579C3.96086 3.21071 4.46957 3 5 3ZM12.9146 8.14195C13.0266 8.0807 13.1524 8.04905 13.28 8.05H18V5H5V8.05H7C7.15151 8.04994 7.29948 8.09577 7.42443 8.18145C7.54938 8.26714 7.64546 8.38865 7.7 8.53L8.53 10.66L9.95 6.5C9.99669 6.36544 10.0807 6.24695 10.1923 6.15841C10.3039 6.06986 10.4383 6.01492 10.58 6C10.7261 5.98783 10.8726 6.01935 11.0008 6.09057C11.129 6.16179 11.2331 6.26949 11.3 6.4L12.56 8.54L12.64 8.4C12.7081 8.29202 12.8026 8.2032 12.9146 8.14195Z" fill="#273637"/>
<path fill-rule="evenodd" clip-rule="evenodd" d="M19.3 17.89L21.71 20.29C21.8037 20.383 21.8781 20.4936 21.9289 20.6154C21.9797 20.7373 22.0058 20.868 22.0058 21C22.0058 21.132 21.9797 21.2627 21.9289 21.3846C21.8781 21.5064 21.8037 21.617 21.71 21.71C21.617 21.8037 21.5064 21.8781 21.3846 21.9289C21.2627 21.9797 21.132 22.0058 21 22.0058C20.868 22.0058 20.7373 21.9797 20.6154 21.9289C20.4936 21.8781 20.383 21.8037 20.29 21.71L17.89 19.3C17.176 19.7555 16.347 19.9983 15.5 20C14.61 20 13.74 19.7361 12.9999 19.2416C12.2599 18.7472 11.6831 18.0443 11.3425 17.2221C11.0019 16.3998 10.9128 15.495 11.0865 14.6221C11.2601 13.7492 11.6887 12.9474 12.318 12.318C12.9474 11.6887 13.7492 11.2601 14.6221 11.0865C15.495 10.9128 16.3998 11.0019 17.2221 11.3425C18.0443 11.6831 18.7472 12.2599 19.2416 12.9999C19.7361 13.74 20 14.61 20 15.5C19.9983 16.347 19.7555 17.176 19.3 17.89ZM13.4213 14.1111C13.1466 14.5222 13 15.0055 13 15.5C13 16.163 13.2634 16.7989 13.7322 17.2678C14.2011 17.7366 14.837 18 15.5 18C15.9945 18 16.4778 17.8534 16.8889 17.5787C17.3001 17.304 17.6205 16.9135 17.8097 16.4567C17.9989 15.9999 18.0484 15.4972 17.952 15.0123C17.8555 14.5273 17.6174 14.0819 17.2678 13.7322C16.9181 13.3826 16.4727 13.1445 15.9877 13.048C15.5028 12.9516 15.0001 13.0011 14.5433 13.1903C14.0865 13.3795 13.696 13.7 13.4213 14.1111Z" fill="#273637"/>
</svg>
