<?xml version="1.0" encoding="UTF-8"?>
<svg width="24px" height="24px" viewBox="0 0 24 24" version="1.1" xmlns="http://www.w3.org/2000/svg" xmlns:xlink="http://www.w3.org/1999/xlink">
    <g stroke="none" stroke-width="1" fill="none" fill-rule="evenodd">
      <path d="M19.5 2H7.2c-.5 0-1 .3-1.3.8L3.2 7.4c-.1.2-.2.5-.2.7v12.3c0 .9.7 1.6 1.5 1.6h15c.8 0 1.5-.7 1.5-1.5v-17c0-.8-.7-1.5-1.5-1.5zM19 20H5V9h2.5c.7 0 1.2-.6 1.2-1.2V4H19v16z" fill="#273637" />
      <path d="M8.6 12c0 .9.3 1.7.7 2.4l-2.5 2.5c-.4.4-.4 1 0 1.4.2.2.5.3.7.3s.5-.1.7-.3l2.5-2.5c.7.4 1.4.7 2.3.7 2.5 0 4.4-2 4.4-4.4s-2-4.4-4.4-4.4S8.6 9.5 8.6 12zM13 9.5c1.4 0 2.4 1.1 2.4 2.4 0 1.4-1.1 2.4-2.4 2.4-1.4 0-2.4-1.1-2.4-2.4 0-1.3 1.1-2.4 2.4-2.4z" fill="#273637" />
    </g>
</svg>
