<svg width="24" height="25" viewBox="0 0 24 25" fill="none" xmlns="http://www.w3.org/2000/svg">
<path d="M4.125 5.3125H18.125V8.8125H19.625V5.3125C19.625 4.48407 18.9534 3.8125 18.125 3.8125H4.125C3.29657 3.8125 2.625 4.48407 2.625 5.3125V14.3125C2.625 15.1409 3.29657 15.8125 4.125 15.8125H9.625V17.3125H6.375C5.96079 17.3125 5.625 17.6483 5.625 18.0625C5.625 18.4767 5.96079 18.8125 6.375 18.8125H12.625V14.3125H4.125V5.3125Z" fill="#273637"/>
<path fill-rule="evenodd" clip-rule="evenodd" d="M15.375 10.3125C14.5466 10.3125 13.875 10.9841 13.875 11.8125V20.3125C13.875 21.1409 14.5466 21.8125 15.375 21.8125H19.875C20.7034 21.8125 21.375 21.1409 21.375 20.3125V11.8125C21.375 10.9841 20.7034 10.3125 19.875 10.3125H15.375ZM19.875 11.8125H15.375V19.5625H19.875V11.8125Z" fill="#273637"/>
</svg>
