<?xml version="1.0" encoding="UTF-8"?>
<svg width="24px" height="24px" viewBox="0 0 24 24" version="1.1" xmlns="http://www.w3.org/2000/svg" xmlns:xlink="http://www.w3.org/1999/xlink">
    <title>Icons/Large Set/Events Thin Version</title>
    <g id="Icons/Large-Set/Events-Thin-Version" stroke="none" stroke-width="1" fill="none" fill-rule="evenodd">
        <path d="M12,21 C7.206,21 3.287,17.2295 3.0255,12.5 L7.2425,12.5 C7.565,12.5 7.869,12.3435 8.056,12.081 L9.953,9.426 L13.132,14.9885 C13.312,15.3035 13.6365,15.492 14,15.492 C14.3635,15.492 14.688,15.3035 14.868,14.9885 L16.29,12.5 L20.9745,12.5 C20.713,17.2295 16.794,21 12,21 M12,3 C16.794,3 20.713,6.7705 20.9745,11.5 L16.29,11.5 C15.9315,11.5 15.599,11.6935 15.422,12.004 L14,14.492 L10.8215,8.9295 C10.6515,8.6325 10.3455,8.4445 10.004,8.427 C9.6565,8.409 9.3385,8.566 9.1395,8.8445 L7.2425,11.5 L3.0255,11.5 C3.287,6.7705 7.206,3 12,3 M12,2 C6.477,2 2,6.477 2,12 C2,17.523 6.477,22 12,22 C17.523,22 22,17.523 22,12 C22,6.477 17.523,2 12,2" id="Fill-1" fill="#273637"></path>
    </g>
</svg>