<svg width="24" height="24" viewBox="0 0 24 24" fill="none" xmlns="http://www.w3.org/2000/svg">
<path d="M16 17H11V19H16V17Z" fill="white"/>
<path d="M16 11H11V13H16V11Z" fill="white"/>
<path d="M18 11V14H6V10H11V8H6V4H11V2H6C4.9 2 4 2.9 4 4V20C4 21.1 4.9 22 6 22H18C19.1 22 20 21.1 20 20V11H18ZM18 20H6V16H18V20Z" fill="white"/>
<path d="M7.78886 5.07662L7.05347 5.81201C6.93632 5.92917 6.93632 6.11912 7.05347 6.23627L7.78886 6.97167C7.90602 7.08882 8.09597 7.08882 8.21313 6.97167L8.94852 6.23627C9.06568 6.11912 9.06568 5.92917 8.94852 5.81201L8.21313 5.07662C8.09597 4.95946 7.90602 4.95946 7.78886 5.07662Z" fill="white"/>
<path d="M7.79151 11.0693L7.05611 11.8047C6.93896 11.9218 6.93896 12.1118 7.05611 12.2289L7.79151 12.9643C7.90866 13.0815 8.09861 13.0815 8.21577 12.9643L8.95116 12.2289C9.06832 12.1118 9.06832 11.9218 8.95116 11.8047L8.21577 11.0693C8.09861 10.9521 7.90866 10.9521 7.79151 11.0693Z" fill="white"/>
<path d="M7.79122 17.079L7.05583 17.8144C6.93867 17.9315 6.93867 18.1215 7.05583 18.2386L7.79122 18.974C7.90837 19.0912 8.09832 19.0912 8.21548 18.974L8.95087 18.2386C9.06803 18.1215 9.06803 17.9315 8.95087 17.8144L8.21548 17.079C8.09832 16.9618 7.90837 16.9618 7.79122 17.079Z" fill="white"/>
<path d="M18 2H14C13.45 2 13 2.45 13 3C13 3.55 13.45 4 14 4H16.59L13.3 7.29C12.91 7.68 12.91 8.31 13.3 8.7C13.69 9.09 14.32 9.09 14.71 8.7L18 5.41V8C18 8.55 18.45 9 19 9C19.55 9 20 8.55 20 8V4C20 2.9 19.1 2 18 2Z" fill="white"/>
</svg>
