<?xml version="1.0" encoding="UTF-8"?>
<svg width="24px" height="24px" viewBox="0 0 24 24" version="1.1" xmlns="http://www.w3.org/2000/svg" xmlns:xlink="http://www.w3.org/1999/xlink">
    <title>Icons/Full Set/General/Failover</title>
    <g id="Icons/Full-Set/General/Failover" stroke="none" stroke-width="1" fill="none" fill-rule="evenodd">
        <path d="M19.7,8.7 L20.3,9.6 L20.9,10.4 L22.1,12.1 L20.6,12.1 C20.6,14.8 19.3,17.3 17.2,18.9 C13.4,21.8 7.9,21 5,17.2 L5,17.2 L6.2,15.5 C7.4,17.4 9.4,18.5 11.7,18.6 C15.4,18.6 18.5,15.7 18.6,12 L18.6,12 L17.3,12 L17.8,11.4 L18.5,10.4 L19.7,8.7 Z M15.2,8.3 C15.8,8.3 16.3,8.8 16.3,9.4 L16.3,9.4 L16.3,13.4 C16.3,14 15.8,14.5 15.2,14.5 L15.2,14.5 L12.7,14.4 L12.7,15.3 L14.1,15.3 C14.4,15.3 14.6,15.7 14.6,16 C14.6,16.3 14.2,16.5 13.9,16.5 L13.9,16.5 L10.2,16.5 C10,16.5 9.7,16.3 9.7,16 C9.6,15.7 9.9,15.3 10.2,15.3 L10.2,15.3 L11.4,15.3 L11.4,14.4 L8.9,14.4 L8.78145185,14.3934519 C8.23555556,14.3328889 7.8,13.86 7.8,13.3 L7.8,13.3 L7.8,9.4 L7.80654815,9.28145185 C7.86711111,8.73555556 8.34,8.3 8.9,8.3 L8.9,8.3 Z M7,4.7 C11,2 16.4,3 19.1,7 L19.1,7 L17.8,8.7 C16.7,6.7 14.6,5.3 12.3,5.2 C8.6,5 5.4,7.8 5.2,11.5 L5.2,11.5 L5.2,12 L6.9,12 L6.6,12.5 L4.4,15.5 L3.5,14.3 L3.3,14 L1.9,12 L3.2,12 L3.2,12 L3.2,11.9 C3.2,9 4.6,6.3 7,4.7 Z M15.1,9.6 L9,9.6 L9,13.3 L15.1,13.3 L15.1,9.6 Z" id="Combined-Shape" fill="#273637"></path>
    </g>
</svg>
