<?xml version="1.0" encoding="UTF-8"?>
<svg width="24px" height="24px" viewBox="0 0 24 24" version="1.1" xmlns="http://www.w3.org/2000/svg" xmlns:xlink="http://www.w3.org/1999/xlink">
    <title>Icons/Large Set/Failover Thin Version</title>
    <g id="Icons/Large-Set/Failover-Thin-Version" stroke="none" stroke-width="1" fill="none" fill-rule="evenodd">
        <path d="M20.7973307,9.61543745 C20.882355,9.47493671 21.0874135,9.46493666 21.1874485,9.58993732 C21.1974449,9.59543734 21.2029465,9.60493739 21.2074477,9.61543745 L21.2074477,9.61543745 L22.4678074,11.6699483 C22.5583332,11.814949 22.4478017,11.99995 22.2627489,11.99995 L22.2627489,11.99995 L21.5025319,11.99995 C21.5025319,17.2449776 17.2468176,21.5 11.9998204,21.5 C8.41879859,21.5 5.30340963,19.5199896 3.68744853,16.5954742 L3.68744853,16.5954742 L4.29762264,15.5954689 C5.65300939,18.4904842 8.59935011,20.4999947 11.9998204,20.4999947 C16.6861576,20.4999947 20.5022465,16.6849747 20.5022465,11.99995 L20.5022465,11.99995 L19.7425297,11.99995 C19.5574769,11.99995 19.4469454,11.814949 19.5374712,11.6699483 L19.5374712,11.6699483 L20.3422008,10.3599414 Z M15.7941031,8.00002895 C16.1847145,8.00002895 16.5013049,8.31653061 16.5013049,8.70703267 L16.5013049,8.70703267 L16.5013049,13.7930594 C16.5013049,14.1835615 16.1847145,14.5000632 15.7941031,14.5000632 L15.7941031,14.5000632 L12.5001632,14.5000632 L12.5001632,16.0000711 L14.0005913,16.0000711 C14.2771702,16.0000711 14.500734,16.2235722 14.500734,16.5000737 C14.500734,16.7765751 14.2771702,17.0000763 14.0005913,17.0000763 L14.0005913,17.0000763 L9.99944961,17.0000763 C9.72287069,17.0000763 9.4993069,16.7765751 9.4993069,16.5000737 C9.4993069,16.2235722 9.72287069,16.0000711 9.99944961,16.0000711 L9.99944961,16.0000711 L11.4998778,16.0000711 L11.4998778,14.5000632 L8.20593785,14.5000632 C7.81532639,14.5000632 7.49873605,14.1835615 7.49873605,13.7930594 L7.49873605,13.7930594 L7.49873605,8.70703267 C7.49873605,8.31653061 7.81532639,8.00002895 8.20593785,8.00002895 L8.20593785,8.00002895 Z M11.9999704,2.5 C15.5809923,2.5 18.6968814,4.48001042 20.3123423,7.40502582 L20.3123423,7.40502582 L19.7021682,8.40503108 C18.3467815,5.51001584 15.4009409,3.5 11.9999704,3.5 C7.31363324,3.5 3.49754434,7.31502534 3.49754434,12.00005 L3.49754434,12.00005 L4.25776127,12.00005 C4.44281407,12.00005 4.55284547,12.185051 4.46281978,12.3300517 L4.46281978,12.3300517 L3.65759001,13.6400586 L3.20246014,14.3850626 C3.11743588,14.5250633 2.91237737,14.5350633 2.81234883,14.4100627 C2.80234597,14.4050627 2.79734455,14.3950626 2.79234312,14.3850626 L2.79234312,14.3850626 L1.53198348,12.3300517 C1.4419578,12.185051 1.55198919,12.00005 1.737042,12.00005 L1.737042,12.00005 L2.49725892,12.00005 C2.49725892,6.75502239 6.7534734,2.5 11.9999704,2.5 Z M15.5010194,9.00003421 L8.49902148,9.00003421 L8.49902148,13.5000579 L15.5010194,13.5000579 L15.5010194,9.00003421 Z" id="Combined-Shape" fill="#273637"></path>
    </g>
</svg>