<svg width="24" height="24" viewBox="0 0 24 24" fill="none" xmlns="http://www.w3.org/2000/svg">
<path fill-rule="evenodd" clip-rule="evenodd" d="M7.2 2H19.5C20.3 2 21 2.7 21 3.5V20.5C21 21.3 20.3 22 19.5 22H4.5C3.7 22 3 21.3 3 20.4V8.1C3 7.9 3.1 7.6 3.2 7.4L5.9 2.8C6.2 2.3 6.7 2 7.2 2ZM5 20H19V4H8.7V7.8C8.7 8.4 8.2 9 7.5 9H5V20Z" fill="#273637"/>
<path d="M11.2471 10.15C11.2471 9.65294 11.6501 9.25 12.1471 9.25C12.6442 9.25 13.0471 9.65294 13.0471 10.15V12.1911L14.8148 11.1706C15.2453 10.922 15.7957 11.0695 16.0442 11.5C16.2927 11.9305 16.1453 12.4809 15.7148 12.7294L13.9471 13.75L15.7148 14.7706C16.1453 15.0191 16.2928 15.5695 16.0442 16C15.7957 16.4305 15.2453 16.5779 14.8148 16.3294L13.0471 15.3088V17.35C13.0471 17.8471 12.6442 18.25 12.1471 18.25C11.6501 18.25 11.2471 17.8471 11.2471 17.35V15.3088L9.47942 16.3294C9.04895 16.5779 8.49852 16.4305 8.24999 16C8.00147 15.5695 8.14895 15.0191 8.57942 14.7706L10.3471 13.75L8.57942 12.7294C8.14896 12.4809 8.00147 11.9305 8.25 11.5C8.49853 11.0695 9.04896 10.922 9.47942 11.1706L11.2471 12.1911V10.15Z" fill="#273637"/>
</svg>
