<?xml version="1.0" encoding="UTF-8"?>
<svg width="24px" height="24px" viewBox="0 0 24 24" version="1.1" xmlns="http://www.w3.org/2000/svg" xmlns:xlink="http://www.w3.org/1999/xlink">
    <g stroke="none" stroke-width="1" fill="none" fill-rule="evenodd">
        <path d="M13 7.7c-.6 0-1 .4-1 1v3.4c0 .3.1.5.3.7l1.9 2c.2.2.5.3.7.3.2 0 .5-.1.7-.3.4-.4.4-1 0-1.4L14 11.7v-3c0-.5-.4-1-1-1z" fill="#273637" />
        <path d="M12.9 3c-5 0-9 4-9 9H2.1l2.4 3.3.3.5L6.2 14l1.4-2H5.9c0-3.9 3.1-7 7-7s7 3.1 7 7-3.1 7-7 7c-2 0-3.9-.9-5.2-2.3l-1.2 1.7C8.1 20 10.4 21 12.9 21c5 0 9-4 9-9s-4.1-9-9-9z" fill="#273637" />
    </g>
</svg>
