<?xml version="1.0" encoding="UTF-8"?>
<svg width="24px" height="24px" viewBox="0 0 24 24" version="1.1" xmlns="http://www.w3.org/2000/svg" xmlns:xlink="http://www.w3.org/1999/xlink">
    <title>Icons/Full Set/General/Hourglass</title>
    <g id="Icons/Full-Set/General/Hourglass" stroke="none" stroke-width="1" fill="none" fill-rule="evenodd">
        <path d="M17.5,2 C18.3,2 19,2.7 19,3.5 L19,3.5 L19,7.3 C19,7.6 18.9,7.9 18.6,8.2 L18.6,8.2 L14.8,12 L18.6,15.7 C18.8,16 19,16.4 19,16.8 L19,16.8 L19,20.5 C19,21.3 18.3,22 17.5,22 L17.5,22 L6.5,22 C5.7,22 5,21.3 5,20.5 L5,20.5 L5,16.8 C5,16.4 5.2,16.1 5.4,15.8 L5.4,15.8 L9.2,12 L5.4,8.3 C5.2,8 5,7.6 5,7.2 L5,7.2 L5,3.5 C5,2.7 5.7,2 6.5,2 L6.5,2 Z M17,4 L7,4 L7,7 L11,10.9 C11.2,11.2 11.4,11.6 11.4,12 C11.4,12.4 11.3,12.8 11,13.1 L11,13.1 L7,17.1 L7,20.1 L17,20.1 L17,17.1 L13,13.1 C12.4,12.5 12.4,11.6 13,11 L13,11 L17,7 L17,4 Z M11.9,14.5 C12,14.5 12,14.5 12.1,14.6 L12.1,14.6 L14.4,17 L14.4,17 L14.4,18.1 L9.6,18.1 L9.6,17 Z M14.4,5.8 L14.4,6.9 L12.1,9.3 C12,9.4 12,9.4 11.9,9.3 L11.9,9.3 L9.6,6.9 L9.6,6.9 L9.6,5.8 L14.4,5.8 Z" id="Combined-Shape" fill="#273637"></path>
    </g>
</svg>
