<svg width="24" height="24" viewBox="0 0 24 24" fill="none" xmlns="http://www.w3.org/2000/svg">
<path d="M18.5 2H6.1C5.6 2 5.1 2.3 4.8 2.8L2.2 7.4C2.1 7.6 2 7.9 2 8.1V20.5C2 21.3 2.7 22 3.5 22H13.3247C13.2246 21.8558 13.1487 21.6922 13.1036 21.5144L12.719 20H4V9H6.5C7.2 9 7.7 8.4 7.7 7.8V4H18V7.52053C18.7087 7.57901 19.3826 7.76066 20 8.04404V3.5C20 2.7 19.3 2 18.5 2Z" fill="#273637"/>
<path fill-rule="evenodd" clip-rule="evenodd" d="M19.8212 21L20.3174 18.0091C21.3433 17.1843 22 15.9189 22 14.5C22 12.0147 19.9853 10 17.5 10C15.0147 10 13 12.0147 13 14.5C13 15.9178 13.6557 17.1824 14.6803 18.0072L15.1768 21C15.3054 21.7144 15.9272 22.2 16.6531 22.2H18.3449C19.0708 22.2 19.6926 21.7144 19.8212 21ZM19.2209 16.6452C18.8934 16.9085 18.6792 17.2871 18.6224 17.7034L18.5409 18.3H16.4571L16.3753 17.7015C16.3185 17.2856 16.1046 16.9073 15.7777 16.644C15.1479 16.1371 14.75 15.3657 14.75 14.5C14.75 12.9812 15.9812 11.75 17.5 11.75C19.0188 11.75 20.25 12.9812 20.25 14.5C20.25 15.3663 19.8514 16.1383 19.2209 16.6452Z" fill="#273637"/>
</svg>
