<?xml version="1.0" encoding="UTF-8"?>
<svg width="24px" height="24px" viewBox="0 0 24 24" version="1.1" xmlns="http://www.w3.org/2000/svg" xmlns:xlink="http://www.w3.org/1999/xlink">
    <g stroke="none" stroke-width="1" fill="none" fill-rule="evenodd">
      <path d="M8.094 8C6.78 8 4 8.696 4 12c0 3.304 2.78 4 4.094 4 1.704 0 2.643-.94 3.865-2.308C13.193 15.41 14.712 16 15.897 16 19.147 16 20 13.41 20 12c0-1.41-.853-4-3.939-4-1.557 0-3.082.9-4.102 2.372C10.974 9.086 9.735 8 8.094 8zm8.034 1.8c1.799 0 2.208 1.432 2.208 2.25 0 .818-.41 2.25-2.208 2.25-1.105 0-2.209-.818-3.092-2.25.883-1.432 1.987-2.25 3.092-2.25zm-8.22 0C6.11 9.8 5.7 11.232 5.7 12.05c0 .818.41 2.25 2.208 2.25 1.104 0 2.209-.818 3.092-2.25-.883-1.432-1.988-2.25-3.092-2.25z" fill="#273637" />
    </g>
</svg>
