<svg width="24" height="24" viewBox="0 0 24 24" fill="none" xmlns="http://www.w3.org/2000/svg">
<path fill-rule="evenodd" clip-rule="evenodd" d="M15.0024 2.55C18.1724 2.5472 20.5468 4.92165 20.3442 8.29146C20.3439 9.37299 19.9818 10.3946 19.3754 11.2386C18.4101 10.5735 17.2403 10.1842 15.9795 10.1842C12.7209 10.1842 10.0698 12.7849 9.98872 16.0239L8.25669 16.0255L8.25494 18.0044L6.27418 18.008L6.27243 19.9869L4.29167 19.9905C3.50189 19.9894 3.10465 19.5921 3.10355 18.8024L3.10709 16.8216L9.84691 10.0818L9.84426 10.0738C9.64776 9.48296 9.45038 8.88943 9.45286 8.09958C9.45386 4.93145 11.8325 2.5528 15.0024 2.55ZM15.7423 7.3999C16.4249 8.08248 17.5316 8.08248 18.2141 7.3999C18.8967 6.71732 18.8967 5.61064 18.2141 4.92806C17.5316 4.24547 16.4249 4.24547 15.7423 4.92805C15.0597 5.61063 15.0597 6.71732 15.7423 7.3999Z" fill="#273637"/>
<path fill-rule="evenodd" clip-rule="evenodd" d="M19.9238 16.8961L20.7295 17.4892C20.931 17.5882 20.931 17.8863 20.7295 18.1833L19.8231 19.7667C19.6216 19.9647 19.4202 20.0637 19.2187 19.9647L18.3122 19.5686C18.0101 19.7667 17.7079 19.9647 17.4058 20.0637L17.3051 21.0539C17.3051 21.252 17.1036 21.45 16.9022 21.45H15.0892C14.8878 21.45 14.6863 21.252 14.6863 21.0539V19.9647C14.3842 19.8667 14.082 19.6686 13.7799 19.4696L12.8734 19.8667C12.6719 19.9647 12.3698 19.8667 12.2691 19.6686L11.3626 18.0833C11.2619 17.8863 11.2619 17.5882 11.4633 17.4892L12.2691 16.8961V15.9059L11.4633 15.3108L11.4625 15.3093C11.3621 15.1118 11.2621 14.9152 11.3626 14.7176L12.2691 13.1323C12.4705 12.9353 12.6719 12.8353 12.8734 12.9353L13.7799 13.3304C14.082 13.1323 14.3842 12.9353 14.6863 12.8353L14.7871 11.8451C14.7871 11.647 14.9885 11.45 15.1899 11.45H17.0029C17.2043 11.45 17.4058 11.647 17.4058 11.8451L17.5065 12.8353C17.8087 12.9353 18.1108 13.1323 18.413 13.3304L19.3195 12.9353C19.5209 12.8353 19.8231 12.9353 19.9238 13.1323L20.8303 14.7176C20.931 14.9157 20.931 15.2127 20.7295 15.3108L19.9238 15.9059V16.8961ZM14.8878 16.401C14.8878 16.9941 15.3914 17.5882 16.0964 17.5882C16.7007 17.5882 17.3051 16.9941 17.3051 16.401C17.3051 15.8059 16.7007 15.2127 16.0964 15.2127C15.4921 15.2127 14.8878 15.8059 14.8878 16.401Z" fill="#273637"/>
</svg>
