<?xml version="1.0" encoding="UTF-8"?>
<svg width="24px" height="24px" viewBox="0 0 24 24" version="1.1" xmlns="http://www.w3.org/2000/svg" xmlns:xlink="http://www.w3.org/1999/xlink">
    <title>Icons/Full Set/General/LDAP Server</title>
    <g id="Icons/Full-Set/General/LDAP-Server" stroke="none" stroke-width="1" fill="none" fill-rule="evenodd">
        <path d="M16.9978975,14 C17.1711649,14 17.3444322,14.0462963 17.5176995,14.1774691 L17.6216599,14.2666667 L20.0252165,16.4982852 C20.3024442,16.7649518 20.3024442,17.2316185 20.0252165,17.4982852 C19.8866027,17.6316185 19.7479888,17.6982852 19.540068,17.6982852 C19.3618502,17.6982852 19.1836324,17.6493056 19.0490597,17.5093639 L18.9856126,17.4316185 L17.6909669,16.2 L17.6909669,20.0748926 C17.6909669,20.4748926 17.4137391,20.7415593 16.9978975,20.7415593 L16.999449,20.741 L17,20.75 L7,20.75 L6.99944899,20.739 L6.96534653,20.7415593 C6.58730873,20.7415593 6.32382784,20.5211736 6.2790465,20.1805776 L6.27227723,20.0748926 L6.27227723,16.2 L4.84566681,17.4316185 C4.56843909,17.6982852 4.1525975,17.6982852 3.87536978,17.4316185 C3.62586483,17.1916185 3.60091434,16.8436185 3.8005183,16.5820185 L3.87536978,16.4982852 L6.34158416,14.2666667 C6.54950495,14.0666667 6.75742574,14 6.96534653,14 C7.13861386,14 7.31188119,14.0462963 7.48514851,14.1774691 L7.58910891,14.2666667 L9.99266551,16.4982852 C10.2698932,16.7649518 10.2698932,17.2316185 9.99266551,17.4982852 C9.85405165,17.6316185 9.71543778,17.6982852 9.50751699,17.6982852 C9.32929917,17.6982852 9.15108135,17.6493056 9.01650871,17.5093639 L8.95306155,17.4316185 L7.65841584,16.2 L7.65744899,19.399 L16.304449,19.399 L16.3048282,16.2 L14.8782178,17.4316185 C14.6009901,17.6982852 14.1851485,17.6982852 13.9079208,17.4316185 C13.6584158,17.1916185 13.6334653,16.8436185 13.8330693,16.5820185 L13.9079208,16.4982852 L16.3741352,14.2666667 C16.582056,14.0666667 16.7899768,14 16.9978975,14 Z M20.0877193,10.1499451 C20.3684211,10.4459539 20.7192982,10.7419626 20.9298246,11.0379714 L20.9298246,12 L13,12 L13,11.0379714 C14.754386,8.74390333 17.9122807,8.29989015 20.0877193,10.1499451 Z M10.0877193,10.1499451 C10.3684211,10.4459539 10.7192982,10.7419626 10.9298246,11.0379714 L10.9298246,12 L3,12 L3,11.0379714 C4.75438596,8.74390333 7.9122807,8.29989015 10.0877193,10.1499451 Z M17,4 C18.1045695,4 19,4.8954305 19,6 C19,7.1045695 18.1045695,8 17,8 C15.8954305,8 15,7.1045695 15,6 C15,4.8954305 15.8954305,4 17,4 Z M7,4 C8.1045695,4 9,4.8954305 9,6 C9,7.1045695 8.1045695,8 7,8 C5.8954305,8 5,7.1045695 5,6 C5,4.8954305 5.8954305,4 7,4 Z" id="Combined-Shape" fill="#273637"></path>
    </g>
</svg>
