<svg width="24" height="24" viewBox="0 0 24 24" fill="none" xmlns="http://www.w3.org/2000/svg">
<path d="M19.5901 4.44V10C19.5901 10.0398 19.5743 10.0779 19.5461 10.1061C19.518 10.1342 19.4798 10.15 19.4401 10.15H19.3801C18.8568 10.0301 18.3133 10.0301 17.7901 10.15H17.7301C17.701 10.1483 17.6728 10.1391 17.6483 10.1233C17.6238 10.1075 17.6037 10.0857 17.5901 10.06V5H8.59006V8.17C8.59154 8.37385 8.51795 8.57112 8.38332 8.7242C8.24869 8.87727 8.06243 8.97544 7.86006 9H5.59006V19H16.0001V21H5.00006C4.61896 20.9974 4.25421 20.8448 3.98472 20.5753C3.71523 20.3059 3.56268 19.9411 3.56006 19.56V8.44C3.56189 8.26391 3.61018 8.09143 3.70006 7.94L6.35006 3.49C6.43857 3.34072 6.5644 3.21705 6.71518 3.13114C6.86597 3.04522 7.03652 3.00003 7.21006 3H18.1501C18.5312 3.00262 18.8959 3.15517 19.1654 3.42466C19.4349 3.69415 19.5874 4.0589 19.5901 4.44Z" fill="#273637"/>
<path d="M15.5498 16.85C15.5498 16.8898 15.534 16.9279 15.5059 16.9561C15.4778 16.9842 15.4396 17 15.3998 17H8.58984C8.32463 17 8.07027 16.8946 7.88274 16.7071C7.6952 16.5196 7.58984 16.2652 7.58984 16C7.58984 15.7348 7.6952 15.4804 7.88274 15.2929C8.07027 15.1054 8.32463 15 8.58984 15H14.5898C14.7381 15.6447 15.0439 16.2425 15.4798 16.74C15.4982 16.7528 15.5138 16.7691 15.5258 16.788C15.5378 16.8069 15.546 16.828 15.5498 16.85Z" fill="#273637"/>
<path d="M15.8098 11.21C15.8145 11.1903 15.8145 11.1697 15.8098 11.15C15.8098 11.1102 15.794 11.0721 15.7659 11.0439C15.7378 11.0158 15.6996 11 15.6598 11H8.58984C8.32463 11 8.07027 11.1054 7.88274 11.2929C7.6952 11.4804 7.58984 11.7348 7.58984 12C7.58984 12.2652 7.6952 12.5196 7.88274 12.7071C8.07027 12.8946 8.32463 13 8.58984 13H14.6698C14.9154 12.3277 15.3044 11.7168 15.8098 11.21Z" fill="#273637"/>
<path d="M14.59 7C14.8553 7 15.1096 7.10536 15.2971 7.29289C15.4847 7.48043 15.59 7.73478 15.59 8C15.59 8.26522 15.4847 8.51957 15.2971 8.70711C15.1096 8.89464 14.8553 9 14.59 9H11.79C11.5248 9 11.2705 8.89464 11.0829 8.70711C10.8954 8.51957 10.79 8.26522 10.79 8C10.79 7.73478 10.8954 7.48043 11.0829 7.29289C11.2705 7.10536 11.5248 7 11.79 7H14.59Z" fill="#273637"/>
<path fill-rule="evenodd" clip-rule="evenodd" d="M19.5472 11.7515C19.85 11.9027 20.1169 12.117 20.3299 12.38C20.7578 12.8268 20.9966 13.4215 20.9966 14.04C20.9966 14.6586 20.7578 15.2533 20.3299 15.7C20.1051 15.9112 19.8443 16.0806 19.5599 16.2V18.09L18.9199 18.73L19.5599 19.37L18.9199 20L19.5599 20.67L18.9199 21.31C18.8751 21.3681 18.8175 21.4152 18.7516 21.4476C18.6858 21.4799 18.6133 21.4968 18.5399 21.4968C18.4665 21.4968 18.3941 21.4799 18.3282 21.4476C18.2624 21.4152 18.2048 21.3681 18.1599 21.31L17.5199 20.67V16.33C17.2384 16.2063 16.9811 16.0336 16.7599 15.82C16.5176 15.5902 16.3245 15.3134 16.1926 15.0065C16.0607 14.6996 15.9927 14.3691 15.9927 14.035C15.9927 13.701 16.0607 13.3705 16.1926 13.0636C16.3245 12.7567 16.5176 12.4799 16.7599 12.25C16.9915 12.0032 17.2733 11.8089 17.5863 11.68C17.8993 11.5512 18.2363 11.491 18.5745 11.5033C18.9127 11.5156 19.2444 11.6002 19.5472 11.7515ZM17.9806 14.3882C18.1348 14.4892 18.3156 14.542 18.4999 14.54C18.7448 14.5374 18.9788 14.4383 19.1511 14.2641C19.3233 14.09 19.4199 13.855 19.4199 13.61C19.4199 13.4257 19.3651 13.2455 19.2625 13.0923C19.1598 12.9392 19.014 12.82 18.8435 12.7499C18.673 12.6798 18.4855 12.662 18.3048 12.6987C18.1241 12.7354 17.9584 12.825 17.8288 12.956C17.6991 13.0871 17.6113 13.2538 17.5766 13.4348C17.5419 13.6159 17.5617 13.8032 17.6336 13.9729C17.7056 14.1427 17.8263 14.2872 17.9806 14.3882Z" fill="#273637"/>
</svg>
