<svg width="25" height="25" viewBox="0 0 25 25" fill="none" xmlns="http://www.w3.org/2000/svg">
<path d="M19.0701 8.05005H16.0701V5.05005C16.0701 4.51962 15.8594 4.01091 15.4843 3.63584C15.1092 3.26076 14.6005 3.05005 14.0701 3.05005H5.07007C4.53964 3.05005 4.03093 3.26076 3.65585 3.63584C3.28078 4.01091 3.07007 4.51962 3.07007 5.05005V14.05C3.07007 14.5805 3.28078 15.0892 3.65585 15.4643C4.03093 15.8393 4.53964 16.05 5.07007 16.05H8.07007V19.05C8.07007 19.5805 8.28078 20.0892 8.65586 20.4643C9.03093 20.8393 9.53964 21.05 10.0701 21.05H19.0701C19.6005 21.05 20.1092 20.8393 20.4843 20.4643C20.8594 20.0892 21.0701 19.5805 21.0701 19.05V10.05C21.0701 9.51962 20.8594 9.01091 20.4843 8.63584C20.1092 8.26076 19.6005 8.05005 19.0701 8.05005V8.05005ZM5.07007 14.05V5.05005H14.0701V8.05005H10.0701C9.53964 8.05005 9.03093 8.26076 8.65586 8.63584C8.28078 9.01091 8.07007 9.51962 8.07007 10.05V14.05H5.07007ZM14.0701 14.05H10.0701V10.05H14.0701V14.05ZM10.0701 19.05V16.05H14.0701C14.6005 16.05 15.1092 15.8393 15.4843 15.4643C15.8594 15.0892 16.0701 14.5805 16.0701 14.05V10.05H19.0701V19.05H10.0701Z" fill="#273637"/>
</svg>
