<svg width="24" height="25" viewBox="0 0 24 25" fill="none" xmlns="http://www.w3.org/2000/svg">
<path d="M19.1 4.2002H7.9C7.13 4.2002 6.5 4.8302 6.5 5.6002V9.0002H8.5V6.2002H18.5V16.2002H15.7V18.2002H19.1C19.87 18.2002 20.5 17.5702 20.5 16.8002V5.6002C20.5 4.8302 19.87 4.2002 19.1 4.2002Z" fill="white"/>
<path fill-rule="evenodd" clip-rule="evenodd" d="M13.5 10.2002H4.5C3.95 10.2002 3.5 10.6502 3.5 11.2002V20.2002C3.5 20.7502 3.95 21.2002 4.5 21.2002H13.5C14.05 21.2002 14.5 20.7502 14.5 20.2002V11.2002C14.5 10.6502 14.05 10.2002 13.5 10.2002ZM9.81 13.7902V19.1002H8.19V13.7902H6.22V12.3002H11.79V13.7902H9.81Z" fill="white"/>
</svg>
