<svg width="24" height="24" viewBox="0 0 24 24" fill="none" xmlns="http://www.w3.org/2000/svg">
<path d="M2.5 4H18.5C19.0523 4 19.5 4.44772 19.5 5C19.5 5.55228 19.0523 6 18.5 6H2.5C1.94772 6 1.5 5.55228 1.5 5C1.5 4.44772 1.94772 4 2.5 4Z" fill="white"/>
<path fill-rule="evenodd" clip-rule="evenodd" d="M21.8 16.05L21 15.45V14.45L21.8 13.85C22 13.75 22 13.45 21.9 13.25L21 11.65C20.9 11.45 20.6 11.35 20.4 11.45L19.5 11.85C19.2 11.65 18.9 11.45 18.6 11.35L18.5 10.35C18.5 10.15 18.3 9.95001 18.1 9.95001H16.3C16.1 9.95001 15.9 10.15 15.9 10.35L15.8 11.35C15.5 11.45 15.2 11.65 14.9 11.85L14 11.45C13.8 11.35 13.6 11.45 13.4 11.65L12.5 13.25C12.4 13.45 12.5 13.65 12.6 13.85L13.4 14.45V15.45L12.6 16.05C12.4 16.15 12.4 16.45 12.5 16.65L13.4 18.25C13.5 18.45 13.8 18.55 14 18.45L14.9 18.05C15.2 18.25 15.5 18.45 15.8 18.55V19.65C15.8 19.85 16 20.05 16.2 20.05H18C18.2 20.05 18.4 19.85 18.4 19.65L18.5 18.65C18.8 18.55 19.1 18.35 19.4 18.15L20.3 18.55C20.5 18.65 20.7 18.55 20.9 18.35L21.8 16.75C22 16.45 22 16.15 21.8 16.05ZM17.2 16.15C16.5 16.15 16 15.55 16 14.95C16 14.35 16.6 13.75 17.2 13.75C17.8 13.75 18.4 14.35 18.4 14.95C18.4 15.55 17.8 16.15 17.2 16.15Z" fill="white"/>
<path d="M12.7199 11H5.40991C4.85991 11 4.40991 10.55 4.40991 10C4.40991 9.45 4.85991 9 5.40991 9H15.0999C15.2099 9 15.2999 9.09 15.2999 9.2V9.32C15.2999 10.25 13 11 12.7199 11Z" fill="white"/>
<path d="M11.46 14H9.51001C8.96001 14 8.51001 14.45 8.51001 15C8.51001 15.55 8.96001 16 9.51001 16H11.46C11.85 16 12.16 15.69 12.16 15.3V14.7C12.16 14.31 11.75 14 11.46 14Z" fill="white"/>
</svg>
