<svg width="24" height="24" fill="none" xmlns="http://www.w3.org/2000/svg">
  <path fill-rule="evenodd" clip-rule="evenodd" d="M19.8 8.2c-.1-.3-.3-.6-.6-.7-.3-.1-.7-.1-.9.1l-2.2 1.7-.9-.3-.2-.9 2.1-1.6c.3-.2.4-.5.4-.8 0-.3-.2-.6-.5-.8-.8-.4-1.6-.8-2.7-.8-.4 0-.8 0-1.2.1-1.8.5-3.1 2.2-3.1 4 0 .4 0 .7.1 1 .1.7.1.7-.1.9l-5 5c-1.1 1.1-1.1 2.8-.1 3.8v.1c.5.5 1.2.8 2 .8.5 0 1.1-.2 1.5-.5.2-.1.3-.2.4-.4l4.8-4.7c.1-.1.4-.3.5-.3.1 0 .4.1.6.1.4.1.8.2 1.3.2h.5c2.5-.6 3.8-3.2 3.3-6zM7.5 17.7l-.1.1c-.3.2-.8.1-1 0l-.1-.1c-.3-.3-.3-.9 0-1.2l5-5c.8-1 .7-1.7.7-2.5v-.8c0-1 .7-1.8 1.7-2.1.3-.1.5-.1.7-.1h.3l-1.3 1c-.3.2-.4.6-.4.9l.3 2.1c.1.4.3.7.7.8l2 .6c.3.1.6 0 .8-.2l1-.8c-.2 1-.8 1.8-1.6 2-.4 0-.8 0-1.1-.1-.5-.1-1-.2-1.4-.1-.7.2-1.3.7-1.4.8l-4.8 4.7z" fill="#273637"/>
</svg>
