<svg width="24" height="24" viewBox="0 0 24 24" fill="none" xmlns="http://www.w3.org/2000/svg">
<path fill-rule="evenodd" clip-rule="evenodd" d="M12.2727 14.8287C13.2669 14.8287 14.0727 14.0228 14.0727 13.0287C14.0727 12.0346 13.2669 11.2287 12.2727 11.2287C11.2786 11.2287 10.4727 12.0346 10.4727 13.0287C10.4727 14.0228 11.2786 14.8287 12.2727 14.8287ZM12.2727 13.8287C12.7146 13.8287 13.0727 13.4705 13.0727 13.0287C13.0727 12.5869 12.7146 12.2287 12.2727 12.2287C11.8309 12.2287 11.4727 12.5869 11.4727 13.0287C11.4727 13.4705 11.8309 13.8287 12.2727 13.8287Z" fill="#273637"/>
<path fill-rule="evenodd" clip-rule="evenodd" d="M11.7046 8.5969C11.7046 8.2831 11.959 8.02872 12.2728 8.02872C12.5865 8.02872 12.8409 8.2831 12.8409 8.5969V9.19508C14.5247 9.44248 15.8564 10.7728 16.1057 12.456H16.7046C17.0184 12.456 17.2728 12.7104 17.2728 13.0242C17.2728 13.338 17.0184 13.5924 16.7046 13.5924H16.1071C15.8612 15.2798 14.5277 16.6145 12.8409 16.8624V17.4605C12.8409 17.7743 12.5865 18.0287 12.2728 18.0287C11.959 18.0287 11.7046 17.7743 11.7046 17.4605V16.8624C10.0178 16.6145 8.68434 15.2798 8.43845 13.5924H7.84093C7.52713 13.5924 7.27275 13.338 7.27275 13.0242C7.27275 12.7104 7.52713 12.456 7.84093 12.456H8.43978C8.68913 10.7728 10.0208 9.44248 11.7046 9.19508V8.5969ZM15.1478 13.0287C15.1478 14.6165 13.8606 15.9037 12.2728 15.9037C10.6849 15.9037 9.39775 14.6165 9.39775 13.0287C9.39775 11.4409 10.6849 10.1537 12.2728 10.1537C13.8606 10.1537 15.1478 11.4409 15.1478 13.0287Z" fill="#273637"/>
<path fill-rule="evenodd" clip-rule="evenodd" d="M20.25 3.25C20.25 2.5605 19.6895 2 19 2H8.4585C7.9855 2 7.535 2.227 7.253 2.607L3.9455 7.0715C3.8195 7.2425 3.75 7.4535 3.75 7.665V20.75C3.75 21.4395 4.3105 22 5 22H19C19.6895 22 20.25 21.4395 20.25 20.75V3.25ZM8.9585 3H19C19.1375 3 19.25 3.1125 19.25 3.25V20.75C19.25 20.8875 19.1375 21 19 21H5C4.8625 21 4.75 20.8875 4.75 20.75V8.165H7.4585C8.2855 8.165 8.9585 7.492 8.9585 6.665V3ZM5.1205 7.165L7.9585 3.335V6.665C7.9585 6.941 7.7345 7.165 7.4585 7.165H5.1205Z" fill="#273637"/>
</svg>
