<svg width="24" height="24" viewBox="0 0 24 24" fill="none" xmlns="http://www.w3.org/2000/svg">
<path fill-rule="evenodd" clip-rule="evenodd" d="M7.2 2H19.5C20.3 2 21 2.7 21 3.5V20.5C21 21.3 20.3 22 19.5 22H4.5C3.7 22 3 21.3 3 20.4V8.1C3 7.9 3.1 7.6 3.2 7.4L5.9 2.8C6.2 2.3 6.7 2 7.2 2ZM5 20H19V4H8.7V7.8C8.7 8.4 8.2 9 7.5 9H5V20Z" fill="#273637"/>
<path d="M12.25 7.75C11.9048 7.75 11.625 8.02982 11.625 8.375V9.04563C11.829 9.01557 12.0377 9 12.25 9C12.4623 9 12.671 9.01557 12.875 9.04563V8.375C12.875 8.02982 12.5952 7.75 12.25 7.75Z" fill="#273637"/>
<path d="M12.875 17.4544C12.671 17.4844 12.4623 17.5 12.25 17.5C12.0377 17.5 11.829 17.4844 11.625 17.4544V18.125C11.625 18.4702 11.9048 18.75 12.25 18.75C12.5952 18.75 12.875 18.4702 12.875 18.125V17.4544Z" fill="#273637"/>
<path d="M16.4551 13.87C16.4847 13.6676 16.5 13.4606 16.5 13.25C16.5 13.0359 16.4842 12.8256 16.4536 12.62H17.125C17.4702 12.62 17.75 12.8998 17.75 13.245C17.75 13.5902 17.4702 13.87 17.125 13.87H16.4551Z" fill="#273637"/>
<path d="M8.0449 13.87H7.375C7.02982 13.87 6.75 13.5902 6.75 13.245C6.75 12.8998 7.02982 12.62 7.375 12.62H8.04637C8.01583 12.8256 8 13.0359 8 13.25C8 13.4606 8.01532 13.6676 8.0449 13.87Z" fill="#273637"/>
<path fill-rule="evenodd" clip-rule="evenodd" d="M12.25 16.25C13.9069 16.25 15.25 14.9069 15.25 13.25C15.25 11.5931 13.9069 10.25 12.25 10.25C10.5931 10.25 9.25 11.5931 9.25 13.25C9.25 14.9069 10.5931 16.25 12.25 16.25ZM12.25 17.5C14.5972 17.5 16.5 15.5972 16.5 13.25C16.5 10.9028 14.5972 9 12.25 9C9.90279 9 8 10.9028 8 13.25C8 15.5972 9.90279 17.5 12.25 17.5Z" fill="#273637"/>
<path d="M14 13.25C14 14.2165 13.2165 15 12.25 15C11.2835 15 10.5 14.2165 10.5 13.25C10.5 12.2835 11.2835 11.5 12.25 11.5C13.2165 11.5 14 12.2835 14 13.25Z" fill="#273637"/>
</svg>
