<svg width="24" height="24" viewBox="0 0 24 24" fill="none" xmlns="http://www.w3.org/2000/svg">
<path d="M18.971 4.99378V7.98133H16.9793V5.4917H5.02906V13.4585H3.03735V4.99378C3.03469 4.60195 3.18712 4.22497 3.46138 3.94512C3.73563 3.66526 4.10945 3.50525 4.50125 3.5H17.5071C17.8989 3.50525 18.2727 3.66526 18.5469 3.94512C18.8212 4.22497 18.9736 4.60195 18.971 4.99378Z" fill="white"/>
<path d="M12 14.4544V16.4461H4.03321C3.50497 16.4461 2.99838 16.2362 2.62486 15.8627C2.25134 15.4892 2.0415 14.9826 2.0415 14.4544H12Z" fill="white"/>
<path d="M18.971 16.4461V18.9357H13.4938V10.471H18.971V8.97718H13.2448C12.9147 8.97718 12.5981 9.10833 12.3646 9.34178C12.1312 9.57522 12 9.89185 12 10.222V19.1846C12 19.5148 12.1312 19.8314 12.3646 20.0649C12.5981 20.2983 12.9147 20.4295 13.2448 20.4295H19.2199C19.3834 20.4295 19.5453 20.3973 19.6963 20.3347C19.8473 20.2721 19.9846 20.1805 20.1001 20.0649C20.2157 19.9493 20.3074 19.812 20.37 19.661C20.4325 19.51 20.4647 19.3481 20.4647 19.1846V16.4461H18.971Z" fill="white"/>
<path d="M16.8 16.4461C16.696 16.4418 16.594 16.4167 16.4999 16.3722C16.4058 16.3277 16.3216 16.2648 16.2523 16.1871L14.4398 14.066C14.3078 13.9154 14.2409 13.7186 14.254 13.5188C14.2671 13.3189 14.359 13.1325 14.5096 13.0004C14.6601 12.8684 14.8569 12.8015 15.0568 12.8146C15.2566 12.8277 15.4431 12.9196 15.5751 13.0701L16.8598 14.5739L20.3154 11.0187C20.4554 10.8788 20.6452 10.8002 20.8432 10.8002C21.0411 10.8002 21.2309 10.8788 21.371 11.0187C21.5108 11.1587 21.5894 11.3485 21.5894 11.5465C21.5894 11.7444 21.5108 11.9342 21.371 12.0743L17.3876 16.2071C17.3141 16.2887 17.223 16.3526 17.1212 16.394C17.0195 16.4354 16.9096 16.4532 16.8 16.4461Z" fill="white"/>
</svg>
