<?xml version="1.0" encoding="UTF-8"?>
<svg width="24px" height="24px" viewBox="0 0 24 24" version="1.1" xmlns="http://www.w3.org/2000/svg" xmlns:xlink="http://www.w3.org/1999/xlink">
    <title>Icons/Full Set/General / Most Popular</title>
    <g id="Icons/Full-Set/General-/-Most-Popular" stroke="none" stroke-width="1" fill="none" fill-rule="evenodd">
        <path d="M7.516,15.3739 C7.846,16.0239 8.166,16.6739 8.756,16.9139 C8.866,16.9539 8.976,16.9839 9.086,16.9939 L8.686,19.6739 L11.366,17.9239 L11.396,17.9039 L11.566,17.8039 C11.846,17.6339 12.206,17.6339 12.486,17.8039 L12.656,17.9039 L12.696,17.9239 L15.366,19.6739 L14.966,16.9939 C15.076,16.9839 15.186,16.9639 15.296,16.9139 C15.896,16.6739 16.226,16.0339 16.546,15.4039 L17.166,21.0239 C17.206,21.3639 17.046,21.6939 16.766,21.8839 C16.616,21.9739 16.446,22.0239 16.276,22.0239 C16.116,22.0239 15.956,21.9839 15.816,21.8939 L12.026,19.6239 L8.236,21.8939 C7.946,22.0739 7.576,22.0639 7.286,21.8839 C7.006,21.6939 6.846,21.3639 6.886,21.0239 L7.516,15.3739 Z M9.1586,2.0939 C10.0286,1.7339 11.1286,2.5239 12.0286,2.5239 C12.3352667,2.5239 12.6619333,2.43723333 12.9926741,2.33464074 L13.3904993,2.20841259 C13.9208222,2.04198889 14.4452667,1.90723333 14.8986,2.0939 C15.7386,2.4439 15.9686,3.7739 16.6186,4.4339 C17.2586,5.0639 18.5886,5.2839 18.9586,6.1539 C19.3186,7.0339 18.5286,8.1339 18.5286,9.0239 C18.5286,9.9539 19.2986,11.0539 18.9586,11.8939 C18.6086,12.7439 17.2786,12.9639 16.6186,13.6239 C15.9886,14.2539 15.7686,15.5939 14.8986,15.9539 C14.0186,16.3139 12.9186,15.5239 12.0286,15.5239 C11.7186,15.5239 11.3897111,15.6105667 11.0578593,15.7131593 L10.6592341,15.8393874 C10.1285556,16.0058111 9.6066,16.1405667 9.1586,15.9539 C8.70526667,15.7672333 8.42828889,15.3018111 8.16989481,14.8094615 L7.97711852,14.4390852 C7.81526667,14.1327889 7.64526667,13.8405667 7.4286,13.6239 C6.7986,12.9939 5.4586,12.7739 5.0986,11.8939 C4.7286,11.0239 5.5186,9.9239 5.5186,9.0239 C5.5186,8.1039 4.7486,6.9939 5.0986,6.1539 C5.28526667,5.7059 5.74784444,5.43141111 6.2390563,5.17417852 L6.60897037,4.98204815 C6.91526667,4.82056667 7.2086,4.65056667 7.4286,4.4339 C8.0586,3.7939 8.2786,2.4639 9.1586,2.0939 Z M12.0286,4.1539 C9.3286,4.1539 7.1486,6.3339 7.1486,9.0239 C7.1486,11.7139 9.3286,13.9039 12.0286,13.9039 C14.7186,13.9039 16.8986,11.7139 16.8986,9.0239 C16.8986,6.3339 14.7186,4.1539 12.0286,4.1539 Z M12.0248,6.0263 L12.9508,7.9043 L15.0248,8.2043 L13.5238,9.6663 L13.8778,11.7303 L12.0248,10.7563 L10.1708,11.7303 L10.5248,9.6663 L9.0248,8.2043 L11.0978,7.9043 L12.0248,6.0263 Z" id="Combined-Shape" fill="#273637"></path>
    </g>
</svg>