<svg width="24" height="24" viewBox="0 0 24 24" fill="none" xmlns="http://www.w3.org/2000/svg">
<path fill-rule="evenodd" clip-rule="evenodd" d="M12 2.7C12.2878 2.7 12.5534 2.85457 12.6956 3.10479L20.1956 16.3048C20.3037 16.495 20.3291 16.7212 20.266 16.9307C20.2029 17.1402 20.0567 17.3147 19.8616 17.4136L12.3616 21.2136C12.1343 21.3288 11.8657 21.3288 11.6384 21.2136L4.13843 17.4136C3.94326 17.3147 3.7971 17.1402 3.734 16.9307C3.67089 16.7212 3.69635 16.495 3.80444 16.3048L11.3044 3.10479C11.4466 2.85457 11.7122 2.7 12 2.7ZM11.2 6.5274L6.44502 14.8962L11.2 12.6494V6.5274ZM12 14.0411L6.31954 16.7251L12 19.6032L17.6805 16.7251L12 14.0411ZM17.555 14.8962L12.8 12.6494V6.5274L17.555 14.8962Z" fill="#273637"/>
</svg>
