<svg width="24" height="24" viewBox="0 0 24 24" fill="none" xmlns="http://www.w3.org/2000/svg">
<path fill-rule="evenodd" clip-rule="evenodd" d="M19.5 6.5C20.6 6.5 21.5 7.4 21.5 8.5V19.5C21.5 20.6 20.6 21.5 19.5 21.5H8.5C7.4 21.5 6.5 20.6 6.5 19.5V8.5C6.5 7.4 7.4 6.5 8.5 6.5H19.5ZM19.5 8.5H8.5V19.5H19.5V8.5ZM16 3C16.55 3 17 3.45 17 4C17 4.55 16.55 5 16 5H5V16C5 16.55 4.55 17 4 17C3.45 17 3 16.55 3 16V5C3 3.9 3.9 3 5 3H16Z" fill="white"/>
<path d="M17.75 13.45C17.41 11.66 15.87 10.25 14.04 10.25C12.97 10.25 12.02 10.7 11.32 11.43L10.79 10.9C10.59 10.7 10.25 10.84 10.25 11.12V13.2C10.25 13.37 10.39 13.52 10.57 13.52H12.65C12.93 13.52 13.07 13.18 12.87 12.98L12.21 12.32C13.52 10.84 16.25 11.43 16.52 13.46C16.52 13.46 16.55 13.52 16.58 13.52H17.7C17.7 13.52 17.76 13.5 17.76 13.46" fill="white"/>
<path d="M10.25 14.55C10.59 16.34 12.13 17.75 13.96 17.75C15.03 17.75 15.98 17.3 16.68 16.57L17.21 17.1C17.41 17.3 17.75 17.16 17.75 16.88V14.8C17.75 14.63 17.61 14.48 17.43 14.48H15.35C15.07 14.48 14.93 14.82 15.13 15.02L15.79 15.68C14.48 17.16 11.75 16.57 11.48 14.54C11.48 14.54 11.45 14.48 11.42 14.48H10.3C10.3 14.48 10.24 14.5 10.24 14.54" fill="white"/>
</svg>
