<?xml version="1.0" encoding="UTF-8"?>
<svg width="24px" height="24px" viewBox="0 0 24 24" version="1.1" xmlns="http://www.w3.org/2000/svg" xmlns:xlink="http://www.w3.org/1999/xlink">
    <title>Icons/Large Set/Object Detail Audit Report Thin Version</title>
    <g id="Icons/Large-Set/Object-Detail-Audit-Report-Thin-Version" stroke="none" stroke-width="1" fill="none" fill-rule="evenodd">
        <path d="M15.75,3 C16.44,3 17,3.56 17,4.25 L17,4.25 L17,7 L19.75,7 C20.396875,7 20.9294922,7.4921875 20.9935425,8.12225342 L21,8.25 L21,19.75 C21,20.44 20.44,21 19.75,21 L19.75,21 L8.25,21 C7.56,21 7,20.44 7,19.75 L7,19.75 L7,17 L4.25,17 C3.603125,17 3.07050781,16.5078125 3.00645752,15.8777466 L3,15.75 L3,4.25 C3,3.56 3.56,3 4.25,3 L4.25,3 Z M8,19.75 C8,19.89 8.11,20 8.25,20 L8.25,20 L19.75,20 C19.89,20 20,19.89 20,19.75 L20,19.75 L20,8.25 C20,8.11 19.89,8 19.75,8 L19.75,8 L8.25,8 C8.11,8 8,8.11 8,8.25 L8,8.25 Z M13.75,10 C15.8215,10 17.5,11.6785 17.5,13.75 C17.5,14.605 17.2105,15.3905 16.7285,16.0215 L16.7285,16.0215 L18.1035,17.3965 C18.299,17.592 18.299,17.908 18.1035,18.1035 C18.006,18.201 17.878,18.25 17.75,18.25 C17.622,18.25 17.494,18.201 17.3965,18.1035 L17.3965,18.1035 L16.0215,16.7285 C15.3905,17.2105 14.605,17.5 13.75,17.5 C11.6785,17.5 10,15.8215 10,13.75 C10,11.6785 11.6785,10 13.75,10 Z M13.75,11 C12.2335,11 11,12.2335 11,13.75 C11,15.266 12.2335,16.5 13.75,16.5 C15.2665,16.5 16.5,15.266 16.5,13.75 C16.5,12.2335 15.2665,11 13.75,11 Z M15.80793,4.00650146 L15.75,4 L4.25,4 C4.11,4 4,4.11 4,4.25 L4,4.25 L4,15.75 C4,15.89 4.11,16 4.25,16 L4.25,16 L7,16 L7,8.25 C7,7.603125 7.4921875,7.07050781 8.12225342,7.00645752 L8.25,7 L16,7 L16,4.25 C16,4.13 15.9191837,4.03204082 15.80793,4.00650146 Z" id="Combined-Shape" fill="#273637"></path>
    </g>
</svg>