<?xml version="1.0" encoding="UTF-8"?>
<svg width="24px" height="24px" viewBox="0 0 24 24" version="1.1" xmlns="http://www.w3.org/2000/svg" xmlns:xlink="http://www.w3.org/1999/xlink">
    <title>Icons/Full Set/General/Object Audit Report</title>
    <g id="Icons/Full-Set/General/Object-Audit-Report" stroke="none" stroke-width="1" fill="none" fill-rule="evenodd">
        <path d="M19.2498,6.2496 C20.3528,6.2496 21.2498,7.1466 21.2498,8.2496 L21.2498,19.2496 C21.2498,20.3526 20.3528,21.2496 19.2498,21.2496 L8.2498,21.2496 C7.1468,21.2496 6.2498,20.3526 6.2498,19.2496 L6.2498,8.2496 C6.2498,7.1466 7.1468,6.2496 8.2498,6.2496 L19.2498,6.2496 Z M19.2498,8.2496 L8.2498,8.2496 L8.2498,19.2496 L19.2508,19.2496 L19.2498,8.2496 Z M13.636,9.9605 C15.569,9.9605 17.136,11.5275 17.136,13.4605 C17.136,14.1635 16.924,14.8155 16.567,15.3645 C16.6,15.3885 16.637,15.4005 16.666,15.4305 L16.666,15.4305 L17.666,16.4305 C17.959,16.7235 17.959,17.1975 17.666,17.4905 C17.52,17.6375 17.328,17.7105 17.136,17.7105 C16.944,17.7105 16.752,17.6375 16.606,17.4905 L16.606,17.4905 L15.606,16.4905 C15.576,16.4615 15.563,16.4245 15.54,16.3915 C14.991,16.7485 14.34,16.9605 13.636,16.9605 C11.703,16.9605 10.136,15.3935 10.136,13.4605 C10.136,11.5275 11.703,9.9605 13.636,9.9605 Z M15.7498,2.7496 C16.3018,2.7496 16.7498,3.1966 16.7498,3.7496 C16.7498,4.3026 16.3018,4.7496 15.7498,4.7496 L4.7498,4.7496 L4.7498,15.7496 C4.7498,16.3026 4.3018,16.7496 3.7498,16.7496 C3.1978,16.7496 2.7498,16.3026 2.7498,15.7496 L2.7498,4.7496 C2.7498,3.6466 3.6468,2.7496 4.7498,2.7496 L15.7498,2.7496 Z M13.636,11.4605 C12.533,11.4605 11.636,12.3575 11.636,13.4605 C11.636,14.5635 12.533,15.4605 13.636,15.4605 C14.739,15.4605 15.636,14.5635 15.636,13.4605 C15.636,12.3575 14.739,11.4605 13.636,11.4605 Z" id="Combined-Shape" fill="#273637"></path>
    </g>
</svg>