<svg width="24" height="24" viewBox="0 0 24 24" fill="none" xmlns="http://www.w3.org/2000/svg">
<path fill-rule="evenodd" clip-rule="evenodd" d="M3.80054 2.59998C3.24825 2.59998 2.80054 3.04769 2.80054 3.59998V20.4C2.80054 20.9523 3.24825 21.4 3.80054 21.4H5.30384L6.5592 19.7H4.60053C4.49007 19.7 4.40053 19.6104 4.40053 19.5V18.65C4.40053 18.5395 4.49007 18.45 4.60053 18.45H7.48225L7.99916 17.75H4.60053C4.49007 17.75 4.40053 17.6604 4.40053 17.55V16.7C4.40053 16.5895 4.49007 16.5 4.60053 16.5H8.92222L14.0005 9.62293V3.59998C14.0005 3.04769 13.5528 2.59998 13.0005 2.59998H3.80054ZM4.60053 5.19998C4.49007 5.19998 4.40053 5.28952 4.40053 5.39998V6.24998C4.40053 6.36044 4.49007 6.44998 4.60053 6.44998H12.2005C12.311 6.44998 12.4005 6.36044 12.4005 6.24998V5.39998C12.4005 5.28952 12.311 5.19998 12.2005 5.19998H4.60053Z" fill="#273637"/>
<path d="M13.5503 12.269L7.75054 20.1241C7.35981 20.6521 7.73366 21.4 8.39053 21.4H20.0005C20.6574 21.4 21.0313 20.6521 20.6405 20.1241L14.8365 12.269C14.5167 11.8368 13.8701 11.8368 13.5503 12.269Z" fill="#273637"/>
</svg>
