<svg width="24" height="24" viewBox="0 0 24 24" fill="none" xmlns="http://www.w3.org/2000/svg">
<path d="M8.21015 13.6901C8.01215 13.6857 7.823 13.6072 7.68015 13.4701L6.47015 12.2501C6.39939 12.1811 6.34316 12.0987 6.30476 12.0077C6.26636 11.9166 6.24658 11.8189 6.24658 11.7201C6.24658 11.6213 6.26636 11.5235 6.30476 11.4324C6.34316 11.3414 6.39939 11.259 6.47015 11.1901C6.61078 11.0496 6.8014 10.9707 7.00015 10.9707C7.1989 10.9707 7.38953 11.0496 7.53015 11.1901L8.21015 11.8801L9.50015 10.5801C9.64078 10.4396 9.8314 10.3607 10.0302 10.3607C10.2289 10.3607 10.4195 10.4396 10.5602 10.5801C10.6309 10.649 10.6871 10.7314 10.7255 10.8224C10.7639 10.9135 10.7837 11.0113 10.7837 11.1101C10.7837 11.2089 10.7639 11.3066 10.7255 11.3977C10.6871 11.4887 10.6309 11.5711 10.5602 11.6401L8.74015 13.4701C8.59843 13.6089 8.40857 13.6878 8.21015 13.6901Z" fill="#273637"/>
<path d="M8.21015 18.07C8.11161 18.0704 8.01397 18.0512 7.92296 18.0134C7.83195 17.9757 7.7494 17.9201 7.68015 17.85L6.47015 16.64C6.39939 16.571 6.34316 16.4886 6.30476 16.3976C6.26636 16.3066 6.24658 16.2088 6.24658 16.11C6.24658 16.0112 6.26636 15.9134 6.30476 15.8224C6.34316 15.7313 6.39939 15.6489 6.47015 15.58C6.61078 15.4395 6.8014 15.3606 7.00015 15.3606C7.1989 15.3606 7.38953 15.4395 7.53015 15.58L8.21015 16.26L9.50015 15C9.64078 14.8595 9.8314 14.7806 10.0302 14.7806C10.2289 14.7806 10.4195 14.8595 10.5602 15C10.6309 15.0689 10.6871 15.1513 10.7255 15.2424C10.7639 15.3334 10.7837 15.4312 10.7837 15.53C10.7837 15.6288 10.7639 15.7266 10.7255 15.8176C10.6871 15.9086 10.6309 15.991 10.5602 16.06L8.74015 17.85C8.67125 17.9206 8.58877 17.9764 8.49768 18.0142C8.40658 18.0521 8.30877 18.071 8.21015 18.07Z" fill="#273637"/>
<path d="M12.8301 13.11H17.0001C17.199 13.11 17.3898 13.031 17.5304 12.8903C17.6711 12.7497 17.7501 12.5589 17.7501 12.36C17.7501 12.1611 17.6711 11.9703 17.5304 11.8297C17.3898 11.689 17.199 11.61 17.0001 11.61H12.8301C12.7316 11.61 12.6341 11.6294 12.5431 11.6671C12.4521 11.7048 12.3694 11.76 12.2997 11.8297C12.2301 11.8993 12.1749 11.982 12.1372 12.073C12.0995 12.164 12.0801 12.2615 12.0801 12.36C12.0801 12.4585 12.0995 12.556 12.1372 12.647C12.1749 12.738 12.2301 12.8207 12.2997 12.8903C12.3694 12.96 12.4521 13.0152 12.5431 13.0529C12.6341 13.0906 12.7316 13.11 12.8301 13.11Z" fill="#273637"/>
<path d="M16.9998 17.54H12.8398C12.6409 17.54 12.4502 17.461 12.3095 17.3204C12.1689 17.1797 12.0898 16.989 12.0898 16.79C12.0898 16.5911 12.1689 16.4004 12.3095 16.2597C12.4502 16.1191 12.6409 16.04 12.8398 16.04H16.9998C17.1988 16.04 17.3895 16.1191 17.5302 16.2597C17.6708 16.4004 17.7498 16.5911 17.7498 16.79C17.7498 16.989 17.6708 17.1797 17.5302 17.3204C17.3895 17.461 17.1988 17.54 16.9998 17.54Z" fill="#273637"/>
<path fill-rule="evenodd" clip-rule="evenodd" d="M15.1 4.50002H19.5C19.8946 4.51015 20.2703 4.67143 20.5495 4.95057C20.8286 5.22971 20.9899 5.60539 21 6.00002V20.5C20.9899 20.8947 20.8286 21.2703 20.5495 21.5495C20.2703 21.8286 19.8946 21.9899 19.5 22H4.5C4.10537 21.9899 3.72969 21.8286 3.45055 21.5495C3.17141 21.2703 3.01012 20.8947 3 20.5V6.00002C3.01012 5.60539 3.17141 5.22971 3.45055 4.95057C3.72969 4.67143 4.10537 4.51015 4.5 4.50002H8.8C8.93659 3.82845 9.28011 3.21653 9.78231 2.75021C10.2845 2.28388 10.9202 1.98657 11.6 1.90002H12.3C12.973 2.00427 13.5993 2.30762 14.0984 2.77101C14.5974 3.2344 14.9463 3.8366 15.1 4.50002ZM11.0886 4.32888C10.8836 4.57115 10.7802 4.88328 10.8 5.20002C10.808 5.36453 10.7832 5.52898 10.727 5.68379C10.6708 5.83861 10.5843 5.98067 10.4726 6.10169C10.3609 6.22271 10.2262 6.32027 10.0764 6.38866C9.92657 6.45705 9.76462 6.49491 9.6 6.50002H9V7.42002H15V6.50002H14.5C14.1737 6.47253 13.8695 6.32382 13.6474 6.0832C13.4253 5.84257 13.3013 5.52749 13.3 5.20002C13.3037 4.88725 13.1945 4.58362 12.9925 4.34484C12.7904 4.10605 12.5091 3.94812 12.2 3.90002H11.9C11.5843 3.93295 11.2936 4.08661 11.0886 4.32888ZM5 20.1H19V6.50002H16.46V7.67002C16.4561 7.83813 16.4191 8.00382 16.3512 8.15763C16.2832 8.31144 16.1856 8.45036 16.064 8.56644C15.9423 8.68252 15.799 8.7735 15.6422 8.83417C15.4853 8.89484 15.3181 8.92401 15.15 8.92002H8.85C8.6819 8.92401 8.51465 8.89484 8.35783 8.83417C8.201 8.7735 8.05767 8.68252 7.93602 8.56644C7.81436 8.45036 7.71677 8.31144 7.64882 8.15763C7.58087 8.00382 7.54389 7.83813 7.54 7.67002V6.50002H5V20.1Z" fill="#273637"/>
</svg>
