<svg width="24" height="24" viewBox="0 0 24 24" fill="none" xmlns="http://www.w3.org/2000/svg">
<path d="M20.62 14.25H19.75V12C19.7474 11.8019 19.6676 11.6126 19.5275 11.4725C19.3874 11.3324 19.1981 11.2526 19 11.25H12.75V9.75H13.5C13.8643 9.75001 14.2138 9.60599 14.4723 9.34935C14.7308 9.09271 14.8774 8.74426 14.88 8.38V5.38C14.88 5.014 14.7346 4.66299 14.4758 4.40419C14.217 4.14539 13.866 4 13.5 4H10.5C10.134 4 9.78299 4.14539 9.52419 4.40419C9.26539 4.66299 9.12 5.014 9.12 5.38V8.38C9.12264 8.74426 9.2692 9.09271 9.52771 9.34935C9.78623 9.60599 10.1357 9.75001 10.5 9.75H11.25V11.25H5C4.80189 11.2526 4.61263 11.3324 4.47253 11.4725C4.33244 11.6126 4.25259 11.8019 4.25 12V14.25H3.38C3.01573 14.25 2.66623 14.394 2.40771 14.6507C2.1492 14.9073 2.00264 15.2557 2 15.62V18.62C2 18.986 2.14539 19.337 2.40419 19.5958C2.66299 19.8546 3.014 20 3.38 20H6.38C6.74426 19.9974 7.09271 19.8508 7.34935 19.5923C7.60599 19.3338 7.75001 18.9843 7.75 18.62V15.62C7.74738 15.2575 7.6022 14.9105 7.34584 14.6542C7.08948 14.3978 6.74254 14.2526 6.38 14.25H5.75V12.75H11.25V14.25H10.5C10.1357 14.25 9.78623 14.394 9.52771 14.6507C9.2692 14.9073 9.12264 15.2557 9.12 15.62V18.62C9.12 18.986 9.26539 19.337 9.52419 19.5958C9.78299 19.8546 10.134 20 10.5 20H13.5C13.866 20 14.217 19.8546 14.4758 19.5958C14.7346 19.337 14.88 18.986 14.88 18.62V15.62C14.8774 15.2557 14.7308 14.9073 14.4723 14.6507C14.2138 14.394 13.8643 14.25 13.5 14.25H12.75V12.75H18.25V14.25H17.62C17.2575 14.2526 16.9105 14.3978 16.6542 14.6542C16.3978 14.9105 16.2526 15.2575 16.25 15.62V18.62C16.25 18.9843 16.394 19.3338 16.6507 19.5923C16.9073 19.8508 17.2557 19.9974 17.62 20H20.62C20.986 20 21.337 19.8546 21.5958 19.5958C21.8546 19.337 22 18.986 22 18.62V15.62C21.9974 15.2557 21.8508 14.9073 21.5923 14.6507C21.3338 14.394 20.9843 14.25 20.62 14.25V14.25ZM10.88 5.75H13.12V8H10.88V5.75ZM6 18.25H3.75V16H6V18.25ZM13.12 18.25H10.88V16H13.12V18.25ZM20.25 18.25H18V16H20.25V18.25Z" fill="#273637"/>
</svg>
