<?xml version="1.0" encoding="UTF-8"?>
<svg width="24px" height="24px" viewBox="0 0 24 24" version="1.1" xmlns="http://www.w3.org/2000/svg" xmlns:xlink="http://www.w3.org/1999/xlink">
    <g stroke="none" stroke-width="1" fill="none" fill-rule="evenodd">
      <path d="M19.8 21.4H4.2c-.8 0-1.5-.7-1.5-1.5V4.1c0-.8.7-1.5 1.5-1.5h15.5c.8 0 1.5.7 1.5 1.5v15.8c0 .8-.6 1.5-1.4 1.5zm-15-2h14.5V4.6H4.8v14.8z" fill="#273637" />
      <path d="M17 17.2h-6.7c-.6 0-1-.4-1-1s.4-1 1-1H17c.6 0 1 .4 1 1s-.5 1-1 1zM7.1 17.2c-.3 0-.5-.1-.7-.3-.2-.2-.3-.4-.3-.7 0-.1 0-.3.1-.4 0-.1.1-.2.2-.3.4-.4 1-.4 1.4 0 .1.1.2.2.2.3 0 .1.1.2.1.4 0 .3-.1.5-.3.7-.2.2-.5.3-.7.3zM17 13.1h-6.7c-.6 0-1-.4-1-1s.4-1 1-1H17c.6 0 1 .4 1 1s-.5 1-1 1zM7.1 13c-.3 0-.5-.1-.7-.3-.1-.1-.2-.2-.2-.3-.1-.1-.1-.2-.1-.4 0-.3.1-.5.3-.7.1-.1.2-.2.3-.2.2-.1.5-.1.8 0 .1 0 .2.1.3.2.2.2.3.5.3.7 0 .1 0 .3-.1.4-.1.1-.1.2-.2.3-.2.2-.5.3-.7.3zM17 8.8h-6.7c-.6 0-1-.4-1-1s.4-1 1-1H17c.6 0 1 .4 1 1s-.5 1-1 1zM7.1 8.8c-.3 0-.5-.1-.7-.3-.2-.2-.3-.5-.3-.7v-.2c0-.1 0-.1.1-.2 0-.1.1-.1.1-.2l.1-.1.3-.3c.2-.1.5-.1.8 0l.3.3.1.1c0 .1.1.1.1.2s0 .1.1.2v.2c0 .1-.1.2-.1.4-.1.1-.1.2-.2.3-.2.2-.5.3-.7.3z" fill="#273637" />
    </g>
</svg>
