<svg width="24" height="24" fill="none" xmlns="http://www.w3.org/2000/svg">
  <path fill-rule="evenodd" clip-rule="evenodd" d="M17.7 13.3l-5.1 5.1C11 20 8.4 20 6.9 18.4c-1.6-1.6-1.6-4.2 0-5.7l7.5-7.5c.9-.8 2.4-.8 3.3.1.5.5.7 1.1.7 1.7 0 .6-.2 1.2-.7 1.7l-6 6-.5.3c-.3.3-.7.3-1 0-.3-.3-.3-.7 0-1l4.1-4.1c.4-.4.4-1 0-1.4s-1-.4-1.4 0l-4.1 4.1c-1 1.1-1 2.8 0 3.8.5.5 1.2.8 1.9.8s1.4-.3 1.9-.8l.9-.9L19 10c.8-.8 1.3-1.9 1.3-3.1s-.4-2.3-1.3-3.1c-.8-.8-1.9-1.3-3.1-1.3-1.1 0-2.1.4-3 1.2 0 0-.1 0-.1.1l-7.4 7.4c-2.4 2.4-2.4 6.2 0 8.6 1.2 1.2 2.7 1.8 4.3 1.8 1.6 0 3.1-.6 4.3-1.8l5.1-5.1c.4-.4.4-1 0-1.4s-1.1-.4-1.4 0z" fill="#273637"/>
</svg>
