<?xml version="1.0" encoding="UTF-8"?>
<svg width="24px" height="24px" viewBox="0 0 24 24" version="1.1" xmlns="http://www.w3.org/2000/svg" xmlns:xlink="http://www.w3.org/1999/xlink">
    <title>Icons/Full Set/General/Pending</title>
    <defs>
        <filter id="filter-1">
            <feColorMatrix in="SourceGraphic" type="matrix" values="0 0 0 0 0.152941 0 0 0 0 0.211765 0 0 0 0 0.215686 0 0 0 1.000000 0"></feColorMatrix>
        </filter>
        <polygon id="path-2" points="0 0 19.9999 0 19.9999 19.9999 0 19.9999"></polygon>
    </defs>
    <g id="Icons/Full-Set/General/Pending" stroke="none" stroke-width="1" fill="none" fill-rule="evenodd">
        <g filter="url(#filter-1)" id="Group-3">
            <g transform="translate(2.000000, 2.000000)">
                <mask id="mask-3" fill="white">
                    <use xlink:href="#path-2"></use>
                </mask>
                <g id="Clip-2"></g>
                <path d="M16.8689,15.1599 C17.4209,15.3889 17.6829,16.0199 17.4549,16.5729 C17.2259,17.1249 16.5949,17.3879 16.0429,17.1589 C15.4909,16.9309 15.2279,16.2979 15.4569,15.7459 C15.6839,15.1939 16.3169,14.9309 16.8689,15.1599 L16.8689,15.1599 Z M10.2519,17.8329 L10.2519,17.8279 C10.9559,17.8059 11.6369,17.6889 12.2819,17.4929 L12.2849,17.4989 C12.5129,17.4319 12.7649,17.4389 13.0019,17.5379 C13.5539,17.7649 13.8159,18.3979 13.5879,18.9509 C13.4719,19.2319 13.2499,19.4369 12.9879,19.5419 L12.9909,19.5509 C12.1479,19.8139 11.2579,19.9699 10.3359,19.9999 L10.3349,19.9949 C10.1859,19.9999 10.0329,19.9739 9.8859,19.9139 C9.3339,19.6849 9.0719,19.0529 9.2999,18.5009 C9.4659,18.0989 9.8459,17.8509 10.2519,17.8329 L10.2519,17.8329 Z M9.9789,4.4249 C10.5639,4.4249 11.0379,4.8989 11.0379,5.4839 L11.0379,9.3829 L13.4949,10.9439 C13.9899,11.2549 14.1399,11.9079 13.8299,12.4039 C13.5189,12.8989 12.8649,13.0499 12.3699,12.7389 L9.6469,11.0089 C9.2249,10.8689 8.9209,10.4719 8.9209,10.0029 L8.9209,5.4839 C8.9209,4.8989 9.3949,4.4249 9.9789,4.4249 L9.9789,4.4249 Z M1.5689,14.5079 C1.7969,13.9559 2.4299,13.6929 2.9819,13.9219 C3.1869,14.0069 3.3519,14.1479 3.4669,14.3199 L3.4699,14.3179 C4.2509,15.4999 5.3449,16.4559 6.6319,17.0709 L6.6299,17.0759 C7.1429,17.3229 7.3799,17.9299 7.1599,18.4619 C6.9319,19.0139 6.2999,19.2759 5.7469,19.0489 C5.7369,19.0439 5.7269,19.0379 5.7169,19.0339 L5.7129,19.0429 C4.0609,18.2569 2.6589,17.0319 1.6569,15.5179 L1.6629,15.5139 C1.4749,15.2239 1.4279,14.8509 1.5689,14.5079 L1.5689,14.5079 Z M19.9999,10.0239 L19.9829,10.0239 C19.9669,10.6069 19.4889,11.0749 18.9029,11.0749 C18.3059,11.0749 17.8209,10.5899 17.8209,9.9929 C17.8209,9.9629 17.8229,9.9339 17.8249,9.9049 C17.7719,5.6259 14.2899,2.1749 9.9999,2.1749 C5.6779,2.1749 2.1739,5.6799 2.1739,10.0029 C2.1739,10.4799 2.2169,10.9469 2.2979,11.3999 L2.2789,11.4029 C2.3219,11.6079 2.3059,11.8279 2.2199,12.0359 C1.9919,12.5889 1.3589,12.8509 0.8069,12.6229 C0.4099,12.4589 0.1639,12.0859 0.1409,11.6829 C0.0489,11.1369 -0.0001,10.5759 -0.0001,10.0029 C-0.0001,4.4789 4.4769,-0.0001 9.9999,-0.0001 C15.5229,-0.0001 19.9999,4.4789 19.9999,10.0029 L19.9999,10.0239 Z" id="Fill-1" fill="#050000" mask="url(#mask-3)"></path>
            </g>
        </g>
    </g>
</svg>
