<svg width="24" height="24" viewBox="0 0 24 24" fill="none" xmlns="http://www.w3.org/2000/svg">
<path fill-rule="evenodd" clip-rule="evenodd" d="M16.1098 10.5V6.5H5.1098V17.5H7.85982C7.85982 15.9812 9.09103 14.75 10.6098 14.75C12.1286 14.75 13.3598 15.9812 13.3598 17.5H16.1098V13H17.6402C18.3306 13 18.8902 12.4404 18.8902 11.75C18.8902 11.0596 18.3306 10.5 17.6402 10.5H16.1098ZM11.8598 19V17.5C11.8598 16.8096 11.3002 16.25 10.6098 16.25C9.91946 16.25 9.35982 16.8096 9.35982 17.5V19H4.6098C4.05752 19 3.6098 18.5523 3.6098 18V6C3.6098 5.44772 4.05752 5 4.6098 5H16.6098C17.1621 5 17.6098 5.44772 17.6098 6V9H17.6402C19.159 9 20.3902 10.2312 20.3902 11.75C20.3902 13.2688 19.159 14.5 17.6402 14.5H17.6098V18C17.6098 18.5523 17.1621 19 16.6098 19H11.8598Z" fill="white"/>
</svg>
