<?xml version="1.0" encoding="UTF-8"?>
<svg width="24px" height="24px" viewBox="0 0 24 24" version="1.1" xmlns="http://www.w3.org/2000/svg" xmlns:xlink="http://www.w3.org/1999/xlink">
    <g stroke="none" stroke-width="1" fill="none" fill-rule="evenodd">
      <path d="M20,2 C20.8,2 21.5,2.7 21.5,3.5 L21.5,3.5 L21.5,20.5 C21.5,21.3 20.8,22 20,22 L20,22 L6.52084526,22 C5.72084526,22 5.02084526,21.3 5.02084526,20.5 L5.02084526,20.5 L5.02084526,17 C4.32084526,16 2.12084526,13.2 1.82084526,12.8 C1.42084526,12.4 1.42084526,11.7 1.82084526,11.2 C2.12084526,10.8 4.32084526,7.9 5.02084526,7 L5.02084526,7 L5.02084526,3.2 C5.02084526,2.6 5.52084526,2 6.22084526,2 L6.22084526,2 Z M19.5,4 L7.02084526,4 L7.02084526,7.3 C7.02084526,7.6 6.92084526,7.8 6.72084526,8 C6.42084526,8.5 4.52084526,11 3.72084526,12 C4.52084526,13.1 6.32084526,15.5 6.72084526,16 C6.92084526,16.2 7.02084526,16.4 7.02084526,16.7 L7.02084526,16.7 L7.02084526,20 L19.5,20 L19.5,4 Z M15.9,15 C16.5,15 16.9,15.4 16.9,16 C16.9,16.6 16.5,17 15.9,17 L15.9,17 L10.5,17 C9.9,17 9.5,16.6 9.5,16 C9.5,15.4 9.9,15 10.5,15 L10.5,15 Z M15.8,11 C16.4,11 16.8,11.4 16.8,12 C16.8,12.5 16.4,13 15.9,13 L15.9,13 L10.5,13 C9.9,13 9.5,12.6 9.5,12 C9.5,11.4 9.9,11 10.5,11 L10.5,11 Z M15.8,7 C16.4,7 16.8,7.4 16.8,8 C16.8,8.5 16.4,9 15.9,9 L15.9,9 L10.5,9 C9.9,9 9.5,8.6 9.5,8 C9.5,7.4 9.9,7 10.5,7 L10.5,7 Z" fill="#273637" />
    </g>
</svg>
