<svg width="24" height="24" viewBox="0 0 24 24" fill="none" xmlns="http://www.w3.org/2000/svg">
<path fill-rule="evenodd" clip-rule="evenodd" d="M4.1499 3.49939C3.87376 3.49939 3.6499 3.72325 3.6499 3.99939V15.4994C3.6499 15.7755 3.42604 15.9994 3.1499 15.9994C2.87376 15.9994 2.6499 15.7755 2.6499 15.4994V3.99939C2.6499 3.17096 3.32148 2.49939 4.1499 2.49939H15.6499C15.926 2.49939 16.1499 2.72325 16.1499 2.99939C16.1499 3.27553 15.926 3.49939 15.6499 3.49939H4.1499Z" fill="white"/>
<path d="M18.7262 14.321C18.908 14.1132 18.887 13.7973 18.6792 13.6155C18.4713 13.4337 18.1555 13.4547 17.9736 13.6625L16.2563 15.6252L15.5316 14.7688C15.3532 14.558 15.0377 14.5317 14.8269 14.7101C14.6161 14.8885 14.5898 15.204 14.7682 15.4148L15.5679 16.3599C15.9235 16.7802 16.5698 16.7855 16.9323 16.3712L18.7262 14.321Z" fill="white"/>
<path fill-rule="evenodd" clip-rule="evenodd" d="M17.2948 8.8451C16.8868 8.65082 16.413 8.65082 16.005 8.8451L12.805 10.3689C12.2826 10.6176 11.9499 11.1446 11.9499 11.7232V17.349C11.9499 17.4917 11.9688 17.6552 12.0322 17.8204C12.3918 18.7568 13.4295 19.9863 15.9702 21.3319C16.3947 21.5568 16.9051 21.5568 17.3296 21.3319C19.8703 19.9863 20.908 18.7568 21.2676 17.8204C21.331 17.6552 21.3499 17.4917 21.3499 17.349V11.7232C21.3499 11.1446 21.0172 10.6176 20.4948 10.3689L17.2948 8.8451ZM16.4349 9.74796C16.5709 9.6832 16.7289 9.6832 16.8649 9.74796L20.0649 11.2718C20.239 11.3547 20.3499 11.5303 20.3499 11.7232V17.349C20.3499 17.4057 20.3421 17.4409 20.3341 17.4619C20.0992 18.0734 19.3065 19.1533 16.8616 20.4482C16.7298 20.518 16.57 20.518 16.4382 20.4482C13.9933 19.1533 13.2006 18.0734 12.9657 17.4619C12.9577 17.4409 12.9499 17.4057 12.9499 17.349V11.7232C12.9499 11.5303 13.0608 11.3547 13.2349 11.2718L16.4349 9.74796Z" fill="white"/>
<path d="M6.6499 6.49939H18.6499V8.05177L19.6499 8.52796V6.49939C19.6499 5.94711 19.2022 5.49939 18.6499 5.49939H6.6499C6.09762 5.49939 5.6499 5.94711 5.6499 6.49939V18.4994C5.6499 19.0517 6.09762 19.4994 6.6499 19.4994H11.698C11.4175 19.13 11.2347 18.7948 11.1197 18.4994H6.6499V6.49939Z" fill="white"/>
</svg>
