<svg width="24" height="24" viewBox="0 0 24 24" fill="none" xmlns="http://www.w3.org/2000/svg">
<path d="M20.5 7.3169C20.5 6.21389 19.603 5.31689 18.5 5.31689H7.5C6.397 5.31689 5.5 6.21389 5.5 7.3169V18.3169C5.5 19.4199 6.397 20.3169 7.5 20.3169H12.156C11.653 19.7124 11.2793 19.0394 11.1549 18.3169H7.5V7.3169H18.5L18.5001 8.4344L20.5 9.30558V7.3169Z" fill="white"/>
<path d="M16 2.81689C16 2.26389 15.552 1.81689 15 1.81689H4C2.897 1.81689 2 2.71389 2 3.81689V14.8169C2 15.3699 2.448 15.8169 3 15.8169C3.552 15.8169 4 15.3699 4 14.8169V3.81689H15C15.552 3.81689 16 3.36989 16 2.81689Z" fill="white"/>
<path d="M16.67 17.363C16.4816 17.3616 16.2989 17.2984 16.15 17.183L16.08 17.113L15.14 16.113C15.0221 15.9949 14.9559 15.8349 14.9559 15.668C14.9559 15.5012 15.0221 15.3411 15.14 15.223C15.2008 15.1681 15.272 15.1258 15.3493 15.0986C15.4266 15.0714 15.5086 15.0598 15.5904 15.0644C15.6722 15.0691 15.7524 15.0899 15.8261 15.1257C15.8998 15.1615 15.9657 15.2116 16.02 15.273L16.64 15.953L18.17 14.183C18.2238 14.1213 18.2893 14.0708 18.3627 14.0344C18.436 13.998 18.5158 13.9763 18.5976 13.9708C18.6793 13.9652 18.7613 13.9758 18.8389 14.0019C18.9165 14.028 18.9883 14.0692 19.05 14.123C19.1117 14.1769 19.1622 14.2423 19.1986 14.3157C19.2351 14.3891 19.2567 14.4689 19.2622 14.5506C19.2678 14.6323 19.2572 14.7143 19.2311 14.792C19.205 14.8696 19.1638 14.9413 19.11 15.003L17.27 17.133C17.1067 17.2835 16.892 17.3657 16.67 17.363Z" fill="white"/>
<path fill-rule="evenodd" clip-rule="evenodd" d="M12.14 17.473C12.14 20.183 16.51 22.183 17.08 22.183C17.65 22.183 22 20.153 22 17.473V12.093C22.0008 11.8298 21.9258 11.572 21.7839 11.3503C21.6421 11.1286 21.4393 10.9525 21.2 10.843L17.55 9.25299C17.3999 9.1889 17.2383 9.15586 17.075 9.15586C16.9118 9.15586 16.7502 9.1889 16.6 9.25299L13 10.843C12.7495 10.9434 12.5342 11.1157 12.3812 11.3381C12.2282 11.5605 12.1443 11.8231 12.14 12.093V17.473ZM13.64 17.473V12.183L17.08 10.683L20.51 12.183V17.473C20.51 18.823 17.87 20.343 17.08 20.653C16.29 20.343 13.64 18.823 13.64 17.473Z" fill="white"/>
</svg>
