<svg width="24" height="24" viewBox="0 0 24 24" fill="none" xmlns="http://www.w3.org/2000/svg">
<path d="M4 2H16C16.5304 2 17.0391 2.21071 17.4142 2.58579C17.7893 2.96086 18 3.46957 18 4V7.86H16V4H4V18H11.1C11.2031 18.7389 11.5153 19.4328 12 20H4C3.46957 20 2.96086 19.7893 2.58579 19.4142C2.21071 19.0391 2 18.5304 2 18V4C2 3.46957 2.21071 2.96086 2.58579 2.58579C2.96086 2.21071 3.46957 2 4 2Z" fill="#273637"/>
<path d="M9.13 5.97998H13.9C14.4192 5.97998 14.84 6.40083 14.84 6.91998C14.84 7.43913 14.4192 7.85998 13.9 7.85998H9.13C8.61086 7.85998 8.19 7.43913 8.19 6.91998C8.19 6.40083 8.61086 5.97998 9.13 5.97998Z" fill="#273637"/>
<path d="M6.14002 7.86999C6.65365 7.86999 7.07002 7.44914 7.07002 6.92999C7.07002 6.41084 6.65365 5.98999 6.14002 5.98999C5.6264 5.98999 5.21002 6.41084 5.21002 6.92999C5.21002 7.44914 5.6264 7.86999 6.14002 7.86999Z" fill="#273637"/>
<path d="M7.07002 10.7C7.07002 11.2192 6.65365 11.64 6.14002 11.64C5.6264 11.64 5.21002 11.2192 5.21002 10.7C5.21002 10.1809 5.6264 9.76001 6.14002 9.76001C6.65365 9.76001 7.07002 10.1809 7.07002 10.7Z" fill="#273637"/>
<path d="M11.05 15.37H9.13C8.8807 15.37 8.64161 15.271 8.46532 15.0947C8.28904 14.9184 8.19 14.6793 8.19 14.43C8.19 14.1807 8.28904 13.9416 8.46532 13.7653C8.64161 13.589 8.8807 13.49 9.13 13.49H11.05V15.37Z" fill="#273637"/>
<path d="M11.05 10.9481V9.76001H9.13C9.00656 9.76001 8.88433 9.78432 8.77028 9.83156C8.65623 9.8788 8.55261 9.94804 8.46532 10.0353C8.37804 10.1226 8.30879 10.2262 8.26156 10.3403C8.21432 10.4543 8.19 10.5766 8.19 10.7C8.19 10.8235 8.21432 10.9457 8.26156 11.0597C8.30879 11.1738 8.37804 11.2774 8.46532 11.3647C8.55261 11.452 8.65623 11.5212 8.77028 11.5685C8.88433 11.6157 9.00656 11.64 9.13 11.64H11.05V10.999L11.05 11V10.9471C11.0556 10.6818 11.1456 10.4247 11.3075 10.2133C11.4801 9.98797 11.7244 9.82809 12 9.76001H11.05L11.05 10.9471L11.05 10.9481Z" fill="#273637"/>
<path d="M6.14002 15.39C6.65365 15.39 7.07002 14.9692 7.07002 14.45C7.07002 13.9309 6.65365 13.51 6.14002 13.51C5.6264 13.51 5.21002 13.9309 5.21002 14.45C5.21002 14.9692 5.6264 15.39 6.14002 15.39Z" fill="#273637"/>
<path d="M16.67 17.11C16.4816 17.1086 16.2989 17.0453 16.15 16.93L16.08 16.86L15.14 15.86C15.0221 15.7419 14.9559 15.5819 14.9559 15.415C14.9559 15.2482 15.0221 15.0881 15.14 14.97C15.2008 14.9151 15.272 14.8728 15.3493 14.8456C15.4266 14.8184 15.5086 14.8067 15.5904 14.8114C15.6722 14.816 15.7524 14.8369 15.8261 14.8727C15.8998 14.9085 15.9657 14.9586 16.02 15.02L16.64 15.7L18.17 13.93C18.2238 13.8683 18.2893 13.8178 18.3627 13.7814C18.436 13.7449 18.5158 13.7233 18.5976 13.7178C18.6793 13.7122 18.7613 13.7228 18.8389 13.7489C18.9165 13.775 18.9883 13.8162 19.05 13.87C19.1117 13.9238 19.1622 13.9893 19.1986 14.0627C19.2351 14.136 19.2567 14.2159 19.2622 14.2976C19.2678 14.3793 19.2572 14.4613 19.2311 14.5389C19.205 14.6166 19.1638 14.6883 19.11 14.75L17.27 16.88C17.1067 17.0304 16.892 17.1127 16.67 17.11Z" fill="#273637"/>
<path fill-rule="evenodd" clip-rule="evenodd" d="M12.14 17.22C12.14 19.93 16.51 21.93 17.08 21.93C17.65 21.93 22 19.9 22 17.22V11.84C22.0008 11.5768 21.9258 11.3189 21.7839 11.0973C21.6421 10.8756 21.4393 10.6995 21.2 10.59L17.55 8.99996C17.3999 8.93587 17.2383 8.90283 17.075 8.90283C16.9118 8.90283 16.7502 8.93587 16.6 8.99996L13 10.59C12.7495 10.6904 12.5342 10.8627 12.3812 11.085C12.2282 11.3074 12.1443 11.5701 12.14 11.84V17.22ZM13.64 17.22V11.93L17.08 10.43L20.51 11.93V17.22C20.51 18.57 17.87 20.09 17.08 20.4C16.29 20.09 13.64 18.57 13.64 17.22Z" fill="#273637"/>
</svg>
