<svg width="24" height="24" viewBox="0 0 24 24" fill="none" xmlns="http://www.w3.org/2000/svg">
<path d="M16.25 2H4.25C3.71957 2 3.21086 2.21071 2.83579 2.58579C2.46071 2.96086 2.25 3.46957 2.25 4V18C2.25 18.5304 2.46071 19.0391 2.83579 19.4142C3.21086 19.7893 3.71957 20 4.25 20H11.58C11.1616 19.3945 10.8598 18.7162 10.69 18H4.25V4H16.25V10.27H16.75C17.2562 10.2666 17.7606 10.3305 18.25 10.46V4C18.25 3.46957 18.0393 2.96086 17.6642 2.58579C17.2891 2.21071 16.7804 2 16.25 2Z" fill="#273637"/>
<path d="M14.22 5.97998H6.28003C5.76088 5.97998 5.34003 6.40083 5.34003 6.91998C5.34003 7.43913 5.76088 7.85998 6.28003 7.85998H14.22C14.7392 7.85998 15.16 7.43913 15.16 6.91998C15.16 6.40083 14.7392 5.97998 14.22 5.97998Z" fill="#273637"/>
<path d="M12.54 11.64C13.2878 11.0312 14.1681 10.6065 15.11 10.4C15.0486 10.2128 14.9293 10.05 14.7693 9.93496C14.6094 9.81994 14.417 9.75868 14.22 9.76003H6.28003C6.03072 9.76003 5.79163 9.85907 5.61535 10.0354C5.43906 10.2116 5.34003 10.4507 5.34003 10.7C5.34003 10.9493 5.43906 11.1884 5.61535 11.3647C5.79163 11.541 6.03072 11.64 6.28003 11.64H12.54Z" fill="#273637"/>
<path d="M16.08 17.29H17.08C17.08 16.9149 17.1872 16.8613 17.4592 16.7254L17.47 16.72C17.7473 16.6165 17.9789 16.418 18.1235 16.1598C18.2682 15.9016 18.3166 15.6005 18.26 15.31C18.2495 15.1057 18.1882 14.9073 18.0817 14.7327C17.9752 14.5581 17.8268 14.4128 17.65 14.31C17.2672 14.1827 16.8627 14.1339 16.4606 14.1666C16.0586 14.1992 15.6672 14.3126 15.31 14.5L15.72 15.41C16.1585 15.1783 16.6621 15.1008 17.15 15.19C17.1549 15.1916 17.1605 15.1916 17.1667 15.1917C17.1987 15.1919 17.2449 15.1922 17.27 15.41C17.3 15.67 17.29 15.68 17 15.82C16.7124 15.9384 16.4691 16.1437 16.3041 16.4074C16.1391 16.671 16.0608 16.9796 16.08 17.29Z" fill="#273637"/>
<path d="M16.58 18.97C16.8893 18.97 17.14 18.7193 17.14 18.41C17.14 18.1007 16.8893 17.85 16.58 17.85C16.2707 17.85 16.02 18.1007 16.02 18.41C16.02 18.7193 16.2707 18.97 16.58 18.97Z" fill="#273637"/>
<path fill-rule="evenodd" clip-rule="evenodd" d="M16.75 21.75C15.7117 21.75 14.6966 21.4421 13.8333 20.8652C12.9699 20.2883 12.297 19.4684 11.8996 18.5091C11.5023 17.5498 11.3983 16.4942 11.6009 15.4758C11.8035 14.4574 12.3035 13.5219 13.0377 12.7877C13.7719 12.0535 14.7074 11.5535 15.7258 11.3509C16.7442 11.1483 17.7998 11.2523 18.7591 11.6496C19.7184 12.047 20.5383 12.7199 21.1152 13.5833C21.6921 14.4466 22 15.4617 22 16.5C21.9974 17.8916 21.4434 19.2254 20.4594 20.2094C19.4754 21.1934 18.1416 21.7474 16.75 21.75ZM16.75 12.75C16.0083 12.75 15.2833 12.9699 14.6666 13.382C14.0499 13.794 13.5693 14.3797 13.2855 15.0649C13.0016 15.7502 12.9274 16.5042 13.0721 17.2316C13.2168 17.959 13.5739 18.6272 14.0984 19.1517C14.6228 19.6761 15.291 20.0333 16.0184 20.1779C16.7458 20.3226 17.4998 20.2484 18.1851 19.9646C18.8703 19.6807 19.456 19.2001 19.868 18.5834C20.2801 17.9667 20.5 17.2417 20.5 16.5C20.5 15.5054 20.1049 14.5516 19.4017 13.8484C18.6984 13.1451 17.7446 12.75 16.75 12.75Z" fill="#273637"/>
<path d="M6.28003 13.49H8.40003C8.91917 13.49 9.34003 13.9108 9.34003 14.43C9.34003 14.9491 8.91917 15.37 8.40003 15.37H6.28003C5.76088 15.37 5.34003 14.9491 5.34003 14.43C5.34003 13.9108 5.76088 13.49 6.28003 13.49Z" fill="#273637"/>
</svg>
