<?xml version="1.0" encoding="UTF-8"?>
<svg width="24px" height="24px" viewBox="0 0 24 24" version="1.1" xmlns="http://www.w3.org/2000/svg" xmlns:xlink="http://www.w3.org/1999/xlink">
    <title>Icons/Large Set/Radar Thin Version</title>
    <g id="Icons/Large-Set/Radar-Thin-Version" stroke="none" stroke-width="1" fill="none" fill-rule="evenodd">
        <path d="M21.353376,3.1465 C21.1578773,2.951 20.8418793,2.951 20.6463806,3.1465 L19.1993901,4.5935 C17.4254018,2.9875 15.0799172,2 12.4999342,2 C6.98497049,2 2.5,6.485 2.5,12 C2.5,17.515 6.98497049,22 12.4999342,22 C15.2594161,22 17.7598996,20.88 19.5698877,19.07 L18.8598924,18.36 C17.2299031,19.9905 14.9799179,21 12.4999342,21 C7.53996684,21 3.5,16.96 3.5,12 C3.5,7.04 7.53996684,3 12.4999342,3 C14.8004191,3 16.8964053,3.8765 18.4893948,5.303 L15.6629134,8.13 C14.8014191,7.4245 13.6999263,7 12.4999342,7 C9.74495234,7 7.49996711,9.245 7.49996711,12 C7.49996711,14.755 9.74495234,17 12.4999342,17 C13.8799251,17 15.1299169,16.44 16.034911,15.535 L15.3249156,14.825 C14.5999204,15.55 13.599927,16 12.4999342,16 C10.2949487,16 8.49996053,14.205 8.49996053,12 C8.49996053,9.795 10.2949487,8 12.4999342,8 C13.4209282,8 14.2689226,8.3185 14.9469181,8.846 L12.7559325,11.037 C12.6739331,11.015 12.5889336,11 12.4999342,11 C11.9474378,11 11.4999408,11.448 11.4999408,12 C11.4999408,12.5525 11.9474378,13 12.4999342,13 C13.0519306,13 13.4999276,12.5525 13.4999276,12 C13.4999276,11.911 13.4849277,11.826 13.4629279,11.744 L21.353376,3.8535 C21.5488747,3.658 21.5488747,3.342 21.353376,3.1465" id="Fill-1" fill="#273637"></path>
    </g>
</svg>