<svg width="24" height="24" viewBox="0 0 24 24" fill="none" xmlns="http://www.w3.org/2000/svg">
<path fill-rule="evenodd" clip-rule="evenodd" d="M18 6.5502H14.7L11.3 3.3502C11 3.0502 10.7 2.9502 10.3 2.9502H3C2.2 3.0502 1.5 3.6502 1.5 4.5502V19.4502C1.5 20.3502 2.2 21.0502 3 21.0502H18C18.6213 21.0502 19.1823 20.628 19.4019 20.0646C19.4636 19.9342 19.4966 19.7914 19.4979 19.6458V19.6259C19.4993 19.6008 19.5 19.5755 19.5 19.5502V16.1986H19.4979V14.1801L20.7863 15.4758C20.8796 15.5684 20.9903 15.6418 21.112 15.6915C21.2337 15.7413 21.364 15.7665 21.4954 15.7658C21.6269 15.7665 21.7572 15.7413 21.8789 15.6915C22.0006 15.6418 22.1112 15.5684 22.2046 15.4758C22.2982 15.3828 22.3725 15.2722 22.4232 15.1503C22.4739 15.0285 22.5 14.8978 22.5 14.7658C22.5 14.6337 22.4739 14.503 22.4232 14.3812C22.3725 14.2593 22.2982 14.1487 22.2046 14.0558L19.2083 11.0558C19.1154 10.962 19.005 10.8876 18.8832 10.8369C18.7615 10.7861 18.631 10.76 18.4991 10.76C18.3673 10.76 18.2368 10.7861 18.115 10.8369C17.9933 10.8876 17.8829 10.962 17.79 11.0558L14.7937 14.0558C14.6057 14.2441 14.5 14.4995 14.5 14.7658C14.5 15.0321 14.6057 15.2875 14.7937 15.4758C14.9818 15.6641 15.2369 15.7698 15.5029 15.7698C15.7688 15.7698 16.0239 15.6641 16.212 15.4758L17.5004 14.1801L17.5 19.0502H3.5V8.5502H17.5V9.81769C18.0689 9.36768 18.8771 9.39502 19.4175 9.90628L19.5 9.98428V8.0502C19.5 7.2502 18.8 6.5502 18 6.5502ZM10.1 5.0502L11.8 6.6502H3.5V5.0502H10.1Z" fill="white"/>
</svg>
