<?xml version="1.0" encoding="UTF-8"?>
<svg width="24px" height="24px" viewBox="0 0 24 24" version="1.1" xmlns="http://www.w3.org/2000/svg" xmlns:xlink="http://www.w3.org/1999/xlink">
    <title>Icons/Full Set/General/Recovery Task Details Report</title>
    <g id="Icons/Full-Set/General/Recovery-Task-Details-Report" stroke="none" stroke-width="1" fill="none" fill-rule="evenodd">
        <path d="M19.5,2 C20.327,2 21,2.673 21,3.5 L21,3.5 L21,20.5 C21,21.327 20.327,22 19.5,22 L19.5,22 L4.5,22 C3.673,22 3,21.327 3,20.5 L3,20.5 L3.001,7.994 C3.001,7.924 3.014,7.854 3.029,7.785 L3.029,7.785 L3.037,7.731 C3.061,7.646 3.096,7.563 3.143,7.485 L3.143,7.485 L6.143,2.485 C6.323,2.185 6.649,2 7,2 L7,2 Z M19,4 L9,4 L9,8 C9,8.553 8.552,9 8,9 L8,9 L5,9 L5,20 L19,20 L19,4 Z M12.3354,9.25 C14.5624,9.25 16.3734,11.062 16.3734,13.288 C16.3734,15.514 14.5624,17.325 12.3354,17.325 C10.4304,17.325 8.8394,15.995 8.4164,14.218 L8.4164,14.218 L7.6584,14.218 C7.4394,14.218 7.3034,13.996 7.4124,13.819 L7.4124,13.819 L8.9284,11.352 C9.0374,11.175 9.3094,11.175 9.4184,11.352 L9.4184,11.352 L10.9344,13.819 C11.0434,13.996 10.9064,14.218 10.6884,14.218 L10.6884,14.218 L9.9804,14.218 C10.3524,15.157 11.2654,15.825 12.3354,15.825 C13.7344,15.825 14.8734,14.687 14.8734,13.288 C14.8734,11.889 13.7344,10.75 12.3354,10.75 C12.1534,10.75 11.9724,10.77 11.7984,10.807 C11.3904,10.894 10.9934,10.639 10.9064,10.233 C10.8184,9.829 11.0754,9.43 11.4804,9.342 C11.7584,9.28 12.0464,9.25 12.3354,9.25 Z" id="Combined-Shape" fill="#273637"></path>
    </g>
</svg>