<svg width="24" height="24" viewBox="0 0 24 24" fill="none" xmlns="http://www.w3.org/2000/svg">
<path fill-rule="evenodd" clip-rule="evenodd" d="M2.63 20.8C5.16246 21.6592 7.82654 22.0654 10.5 22C13.1735 22.0654 15.8375 21.6592 18.37 20.8C18.5545 20.7265 18.7129 20.5998 18.8251 20.4359C18.9373 20.2721 18.9982 20.0786 19 19.88V14.4143L20.29 15.7099C20.3834 15.8026 20.4943 15.8759 20.6161 15.9257C20.7379 15.9755 20.8684 16.0007 21 15.9999C21.1316 16.0007 21.2621 15.9755 21.3839 15.9257C21.5057 15.8759 21.6166 15.8026 21.71 15.7099C21.8037 15.617 21.8781 15.5064 21.9289 15.3845C21.9797 15.2627 22.0058 15.132 22.0058 14.9999C22.0058 14.8679 21.9797 14.7372 21.9289 14.6154C21.8781 14.4935 21.8037 14.3829 21.71 14.2899L18.71 11.2899C18.617 11.1962 18.5064 11.1218 18.3846 11.071C18.2627 11.0203 18.132 10.9941 18 10.9941C17.868 10.9941 17.7373 11.0203 17.6154 11.071C17.4936 11.1218 17.383 11.1962 17.29 11.2899L14.29 14.2899C14.1017 14.4782 13.9959 14.7336 13.9959 14.9999C13.9959 15.2662 14.1017 15.5216 14.29 15.7099C14.4783 15.8982 14.7337 16.004 15 16.004C15.2663 16.004 15.5217 15.8982 15.71 15.7099L17 14.4143V19.15C14.8842 19.7383 12.6959 20.0245 10.5 20C8.3041 20.0245 6.11576 19.7383 4 19.15V16H13C12.8618 15.6847 12.7904 15.3442 12.7904 15C12.7904 14.6558 12.8618 14.3153 13 14H4V10H18C18.1944 10 18.3829 9.94341 18.5436 9.83936C18.5747 9.81917 18.6049 9.79721 18.6338 9.77352C18.6592 9.75269 18.6837 9.73053 18.7071 9.70709C18.8829 9.53127 18.9865 9.29673 18.9988 9.04957C18.9996 9.0331 19 9.01657 19 9L19 4.11998C18.9982 3.92141 18.9373 3.72787 18.8251 3.56403C18.7129 3.40018 18.5545 3.27345 18.37 3.19998C15.8375 2.34073 13.1735 1.93452 10.5 1.99998C7.82654 1.93452 5.16246 2.34073 2.63 3.19998C2.44551 3.27345 2.28707 3.40018 2.17487 3.56403C2.06267 3.72787 2.0018 3.92141 2 4.11998V19.88C2.0018 20.0786 2.06267 20.2721 2.17487 20.4359C2.28707 20.5998 2.44551 20.7265 2.63 20.8ZM4 4.84998V8H17V4.84998C14.8842 4.26162 12.6959 3.97545 10.5 3.99998C8.3041 3.97545 6.11576 4.26162 4 4.84998Z" fill="#273637"/>
</svg>
