<?xml version="1.0" encoding="UTF-8"?>
<svg width="24px" height="24px" viewBox="0 0 24 24" version="1.1" xmlns="http://www.w3.org/2000/svg" xmlns:xlink="http://www.w3.org/1999/xlink">
    <title>Icons/Full Set/General/Reports</title>
    <g id="Icons/Full-Set/General/Reports" stroke="none" stroke-width="1" fill="none" fill-rule="evenodd">
        <path d="M19,3 C20.051971,3 20.9142467,3.71065913 20.9939827,4.61323853 L21,4.75 L21,15.25 C21,16.1704746 20.1878181,16.9249658 19.1562988,16.9947349 L19,17 L17.069,17 L18.880759,20.2507779 C19.1438988,20.7228378 18.9843618,21.3185562 18.52052,21.595926 L18.5169243,21.5980762 C18.0689675,21.8659471 17.4886744,21.7199586 17.2208035,21.2720017 C17.2158875,21.2637806 17.2110966,21.2554852 17.2064327,21.2471185 L14.838,17 L13,17 L13,20 C13,20.5522847 12.5522847,21 12,21 C11.4477153,21 11,20.5522847 11,20 L11,17 L9.16,17 L6.7932333,21.2471185 C6.53910507,21.7030121 5.96351864,21.8665752 5.50762502,21.612447 C5.49925824,21.6077831 5.49096286,21.6029923 5.48274174,21.5980762 L5.47914605,21.595926 C5.0153043,21.3185562 4.85576722,20.7228378 5.11890704,20.2507779 L6.93,17 L5,17 C3.94802905,17 3.08575333,16.2893409 3.00601726,15.3867615 L3,15.25 L3,4.75 C3,3.82952542 3.81218186,3.07503417 4.84370118,3.0052651 L5,3 L19,3 Z M19,5.02379873 L5,5.02379873 L5,14.9253374 L19,14.9253374 L19,5.02379873 Z M9,7.3 L9,10.3 L12,10.3 C12,11.9568542 10.6568542,13.3 9,13.3 C7.34314575,13.3 6,11.9568542 6,10.3 C6,8.70231912 7.24891996,7.39633912 8.82372721,7.30509269 L9,7.3 Z M17.25,11 C17.6642136,11 18,11.3357864 18,11.75 C18,12.1642136 17.6642136,12.5 17.25,12.5 L14.75,12.5 C14.3357864,12.5 14,12.1642136 14,11.75 C14,11.3357864 14.3357864,11 14.75,11 L17.25,11 Z M17.25,8 C17.6642136,8 18,8.33578644 18,8.75 C18,9.16421356 17.6642136,9.5 17.25,9.5 L14.75,9.5 C14.3357864,9.5 14,9.16421356 14,8.75 C14,8.33578644 14.3357864,8 14.75,8 L17.25,8 Z M10,6.3 C11.5976809,6.3 12.9036609,7.54891996 12.9949073,9.12372721 L13,9.3 L10,9.3 L10,6.3 Z" id="Combined-Shape" fill="#273637"></path>
    </g>
</svg>
