<svg width="24" height="24" viewBox="0 0 24 24" fill="none" xmlns="http://www.w3.org/2000/svg">
<path d="M8.76544 3.5C8.39874 3.5 8.06223 3.7057 7.89145 4.03425L7.18151 5.4H4.2031C2.88461 5.39005 2 6.54122 2 7.7L2.00001 16C2.00001 16.5523 2.44219 17 2.98766 17C3.53313 17 3.97531 16.5523 3.97531 16L3.97531 7.7C3.97531 7.60502 4.01218 7.51936 4.06287 7.46354C4.10929 7.41242 4.15213 7.39958 4.18912 7.39995L4.1989 7.4H8.37406L9.36172 5.5H14.4444C14.9899 5.5 15.4321 5.05228 15.4321 4.5C15.4321 3.94772 14.9899 3.5 14.4444 3.5H8.76544Z" fill="black"/>
<path fill-rule="evenodd" clip-rule="evenodd" d="M13.548 17.558C15.2526 17.558 16.6344 16.1589 16.6344 14.433C16.6344 12.7071 15.2526 11.308 13.548 11.308C11.8434 11.308 10.4616 12.7071 10.4616 14.433C10.4616 16.1589 11.8434 17.558 13.548 17.558ZM13.548 15.808C14.298 15.808 14.906 15.1924 14.906 14.433C14.906 13.6736 14.298 13.058 13.548 13.058C12.798 13.058 12.19 13.6736 12.19 14.433C12.19 15.1924 12.798 15.808 13.548 15.808Z" fill="black"/>
<path fill-rule="evenodd" clip-rule="evenodd" d="M16.1926 6.93044L10.8966 6.93044C10.5197 6.93044 10.1759 7.14826 10.0112 7.49137L9.47594 8.60675L7.05352 8.612C5.96797 8.61436 5.08919 9.50566 5.08919 10.6043V18.5077C5.08919 19.608 5.97054 20.5 7.05774 20.5H20.0314C21.1186 20.5 22 19.608 22 18.5077V10.6043C22 9.50566 21.1212 8.61436 20.0357 8.612L17.6132 8.60675L17.078 7.49137C16.9133 7.14826 16.5695 6.93044 16.1926 6.93044ZM10.7095 10.5964L11.5128 8.92275L15.5764 8.92275L16.3796 10.5964L20.0314 10.6043L20.0314 18.5077L7.05774 18.5077V10.6043L10.7095 10.5964Z" fill="black"/>
</svg>
