<svg width="24" height="24" viewBox="0 0 24 24" fill="none" xmlns="http://www.w3.org/2000/svg">
<path fill-rule="evenodd" clip-rule="evenodd" d="M6 3.77C6 3.34 6.35 3 6.78 3H10.93C11.36 3 11.71 3.35 11.71 3.77V7.06C11.71 7.49 11.36 7.83 10.93 7.83H9.63V9.58H10.93C11.36 9.58 11.71 9.93 11.71 10.35V11.22H14.3V10.35C14.3 9.92 14.65 9.58 15.08 9.58H19.23C19.66 9.58 20.01 9.93 20.01 10.35V13.64C20.01 14.07 19.66 14.41 19.23 14.41H15.08C14.65 14.41 14.3 14.06 14.3 13.64V12.76H11.71V13.64C11.71 14.07 11.36 14.41 10.93 14.41H9.63V16.16H10.93C11.36 16.16 11.71 16.51 11.71 16.93V20.22C11.71 20.65 11.36 20.99 10.93 20.99H6.78C6.35 20.99 6 20.64 6 20.22V16.93C6 16.5 6.35 16.16 6.78 16.16H8.08V14.41H6.78C6.35 14.41 6 14.06 6 13.64V10.35C6 9.92 6.35 9.58 6.78 9.58H8.08V7.83H6.78C6.35 7.83 6 7.48 6 7.06V3.77ZM7.56 4.54V6.29H10.15V4.54H7.56ZM15.85 11.13V12.88H18.44V11.13H15.85ZM7.56 19.46V17.71H10.15V19.46H7.56ZM7.56 11.13V12.88H10.15V11.13H7.56Z" fill="white"/>
</svg>
