<svg width="24" height="24" viewBox="0 0 24 24" fill="none" xmlns="http://www.w3.org/2000/svg">
<path fill-rule="evenodd" clip-rule="evenodd" d="M7.5 12.75C7.5 10.1266 9.62665 8 12.25 8C14.8734 8 17 10.1266 17 12.75C17 15.3734 14.8734 17.5 12.25 17.5C9.62665 17.5 7.5 15.3734 7.5 12.75ZM9.48327 11.0439C9.17684 11.5398 9 12.1243 9 12.75C9 14.5449 10.4551 16 12.25 16C12.8757 16 13.4602 15.8232 13.9561 15.5167L9.48327 11.0439ZM10.5439 9.98327L15.0167 14.4561C15.3232 13.9602 15.5 13.3757 15.5 12.75C15.5 10.9551 14.0449 9.5 12.25 9.5C11.6243 9.5 11.0398 9.67684 10.5439 9.98327Z" fill="white"/>
<path fill-rule="evenodd" clip-rule="evenodd" d="M16.7 5.1H20.5C21.4 5.1 22 5.8 22 6.6V19.6C22 20.4 21.3 21.1 20.5 21.1H3.5C2.7 21.1 2 20.4 2 19.6V6.6C2 5.8 2.7 5.1 3.5 5.1H7.2L7.8 3.9C8 3.3 8.6 3 9.2 3H14.9C15.5 3 16 3.3 16.2 3.9L16.7 5.1ZM4 7.1V19.1H20V7.1H15.5L14.6 5H9.5L8.5 7.1H4Z" fill="white"/>
</svg>
