<svg width="24" height="24" viewBox="0 0 24 24" fill="none" xmlns="http://www.w3.org/2000/svg">
<path fill-rule="evenodd" clip-rule="evenodd" d="M5.64959 19C4.63959 19 4.07959 18.58 3.78959 18.22C3.14959 17.44 3.30959 16.45 3.33959 16.34C3.40959 15.99 3.65959 15.7 3.99959 15.58C4.14959 15.53 5.51959 14.95 5.51959 12.99V9.75C5.50959 4.03 8.99959 2 11.9796 2C14.9596 2 18.4496 4.03 18.4496 9.74V12.98C18.4496 14.94 19.8296 15.52 19.9796 15.58C20.3096 15.7 20.5596 15.99 20.6196 16.33C20.6396 16.44 20.8096 17.44 20.1696 18.21C19.8796 18.56 19.3196 18.99 18.3096 18.99V19H5.64959ZM5.52959 17H5.64959H18.3096H18.4296C17.5896 16.41 16.4496 15.21 16.4496 12.99V9.75C16.4496 6.15 14.7796 4.01 11.9796 4.01C9.17959 4.01 7.50959 6.16 7.50959 9.75V12.99C7.50959 15.21 6.36959 16.41 5.52959 17ZM15.0296 20C14.5196 21.17 13.3496 22 11.9796 22C10.6096 22 9.42959 21.17 8.92959 20H15.0296ZM9.85959 14.75H14.0996C14.5096 14.75 14.8496 14.41 14.8496 14C14.8496 13.59 14.5096 13.25 14.0996 13.25H11.5796L14.6496 9.95C14.8496 9.73 14.9096 9.41 14.7896 9.14C14.6696 8.87 14.3996 8.69 14.0996 8.69H9.85959C9.44959 8.69 9.10959 9.03 9.10959 9.44C9.10959 9.85 9.44959 10.19 9.85959 10.19H12.3796L9.30959 13.49C9.10959 13.71 9.04959 14.03 9.16959 14.3C9.28959 14.57 9.55959 14.75 9.85959 14.75Z" fill="white"/>
</svg>
