<?xml version="1.0" encoding="UTF-8"?>
<svg width="24px" height="24px" viewBox="0 0 24 24" version="1.1" xmlns="http://www.w3.org/2000/svg" xmlns:xlink="http://www.w3.org/1999/xlink">
    <title>Icons/Full Set/General/SSO</title>
    <g id="Icons/Full-Set/General/SSO" stroke="none" stroke-width="1" fill="none" fill-rule="evenodd">
        <path d="M10,2 L10.2337676,2.00408893 C13.6471398,2.12369935 16.3763006,4.8528602 16.4959111,8.26623243 L16.5,8.5 L16.4991344,9.40989843 C14.860832,9.51804656 13.4621178,10.5029675 12.7678653,11.8997878 L3.9,11.9 L3.9,13.9 C3.9,17.2058929 6.45260419,19.8499994 9.7193298,19.993837 C9.44953387,20.6075216 9.3,21.286298 9.3,22 C9.3,22.0235502 9.30016281,22.0470623 9.30048738,22.0705353 C5.21601928,21.7276463 2.02915528,18.4009051 1.90382937,14.2538277 L1.9,14 L1.9,11 C1.9,10.4428571 2.24489796,10.0581633 2.77456268,10.0060496 L2.9,10 L3.5,10 L3.5,8.5 C3.5,4.9 6.4,2 10,2 Z M10,13 C10.8,13 11.5,13.7 11.5,14.5 C11.5,14.85 11.346875,15.2 11.1076172,15.4830078 L11,15.6 L11,17.5 C11,18.0571429 10.655102,18.4418367 10.1254373,18.4939504 L10,18.5 L9.87456268,18.4939504 C9.3856414,18.4458455 9.05415452,18.1143586 9.00604956,17.6254373 L9,17.5 L9,15.6 C8.7,15.3 8.5,14.9 8.5,14.5 C8.5,13.7 9.2,13 10,13 Z M10,4 L9.78697376,4.00486297 C7.4600629,4.11136567 5.61485508,5.95453455 5.50516104,8.28055887 L5.5,8.5 L5.5,10 L14.5,10 L14.5,8.5 C14.5,6 12.5,4 10,4 Z" id="Combined-Shape" fill="#273637"></path>
        <path d="M21.1,19.8 C21.5,20.2 22,20.6 22.3,21 L22.3,22.3 L11,22.3 L11,21 C13.5,17.9 18,17.3 21.1,19.8 Z M16.7,11 C18.2463973,11 19.5,12.2536027 19.5,13.8 C19.5,15.3463973 18.2463973,16.6 16.7,16.6 C15.1536027,16.6 13.9,15.3463973 13.9,13.8 C13.9,12.2536027 15.1536027,11 16.7,11 Z" id="Combined-Shape" fill="#273637"></path>
    </g>
</svg>
