<svg width="24" height="24" viewBox="0 0 24 24" fill="none" xmlns="http://www.w3.org/2000/svg">
<path d="M12.6862 3.47231C12.5775 3.18786 12.3045 3 12 3C11.6955 3 11.4225 3.18786 11.3138 3.47231L9.21703 8.95604L3.2403 9.44064C2.93897 9.46507 2.68337 9.67159 2.59619 9.96106C2.50901 10.2505 2.60805 10.5639 2.84576 10.7506L7.3329 14.2762L5.7239 20.0687C5.64444 20.3547 5.74495 20.6605 5.97863 20.8436C6.21231 21.0267 6.53323 21.0512 6.79198 20.9056L12 17.9761L17.208 20.9056C17.4668 21.0512 17.7877 21.0267 18.0214 20.8436C18.255 20.6605 18.3555 20.3547 18.2761 20.0687L16.6671 14.2762L21.1542 10.7506C21.3919 10.5639 21.491 10.2505 21.4038 9.96106C21.3166 9.67159 21.061 9.46507 20.7597 9.44064L14.783 8.95604L12.6862 3.47231Z" fill="white"/>
</svg>
