<?xml version="1.0" encoding="UTF-8"?>
<svg width="24px" height="24px" viewBox="0 0 24 24" version="1.1" xmlns="http://www.w3.org/2000/svg" xmlns:xlink="http://www.w3.org/1999/xlink">
    <g stroke="none" stroke-width="1" fill="none" fill-rule="evenodd">
      <path d="M21.8 17.8l-.8-.6v-.5-.5l.8-.6c.2-.1.2-.4.1-.6l-.9-1.6c-.1-.2-.4-.3-.6-.2l-.9.4c-.3-.2-.6-.4-.9-.5l-.1-1c0-.2-.2-.4-.4-.4h-1.8c-.2 0-.4.2-.4.4l-.1 1c-.3.1-.6.3-.9.5l-.9-.4c-.2-.1-.4 0-.6.2l-.9 1.6c-.1.2 0 .4.1.6l.8.6v1l-.8.6c-.2.1-.2.4-.1.6l.9 1.6c.1.2.4.3.6.2l.9-.4c.3.2.6.4.9.5v1.1c0 .2.2.4.4.4H18c.2 0 .4-.2.4-.4l.1-1c.3-.1.6-.3.9-.5l.9.4c.2.1.4 0 .6-.2l.9-1.6c.2-.3.2-.6 0-.7zm-4.6.1c-.7 0-1.2-.6-1.2-1.2s.6-1.2 1.2-1.2 1.2.6 1.2 1.2-.6 1.2-1.2 1.2zm3.7-2.8z" fill="#273637" />
      <path d="M11.7 13.8c.4-.8.9-1.5 1.5-2H11V9.3h5v1.2c.4-.1.8-.1 1.2-.1.3 0 .5 0 .8.1V3.9c0-.8-.7-1.5-1.5-1.5h-13c-.8 0-1.5.7-1.5 1.5V17c0 .8.7 1.5 1.5 1.5h7.9c-.2-.6-.4-1.3-.4-2v-2.8h.7zM11 4.4h5v2.8h-5V4.4zM9 16.6H4v-2.8h5v2.8zm0-4.8H4V9.3h5v2.5zm0-4.5H4V4.4h5v2.9z" fill="#273637" />
    </g>
</svg>
