<?xml version="1.0" encoding="UTF-8"?>
<svg width="24px" height="24px" viewBox="0 0 24 24" version="1.1" xmlns="http://www.w3.org/2000/svg" xmlns:xlink="http://www.w3.org/1999/xlink">
    <title>Icons/Large Set/Task Summary Thin Version</title>
    <g id="Icons/Large-Set/Task-Summary-Thin-Version" stroke="none" stroke-width="1" fill="none" fill-rule="evenodd">
        <path d="M19.75,3 C20.4395,3 21,3.5605 21,4.25 L21,19.75 C21,20.4395 20.4395,21 19.75,21 L4.25,21 C3.5605,21 3,20.4395 3,19.75 L3,4.25 C3,3.5605 3.5605,3 4.25,3 L19.75,3 Z M19.75,4 L4.25,4 C4.1125,4 4,4.1125 4,4.25 L4,19.75 C4,19.8875 4.1125,20 4.25,20 L19.75,20 C19.8875,20 20,19.8875 20,19.75 L20,4.25 C20,4.1125 19.8875,4 19.75,4 Z M17,16 C17.2765,16 17.5,16.2235 17.5,16.5 C17.5,16.7765 17.2765,17 17,17 L10,17 C9.7235,17 9.5,16.7765 9.5,16.5 C9.5,16.2235 9.7235,16 10,16 L17,16 Z M7,16 C7.2765,16 7.5,16.2235 7.5,16.5 C7.5,16.7765 7.2765,17 7,17 C6.7235,17 6.5,16.7765 6.5,16.5 C6.5,16.2235 6.7235,16 7,16 Z M17,11.5 C17.2765,11.5 17.5,11.7235 17.5,12 C17.5,12.2765 17.2765,12.5 17,12.5 L10,12.5 C9.7235,12.5 9.5,12.2765 9.5,12 C9.5,11.7235 9.7235,11.5 10,11.5 L17,11.5 Z M7,11.5 C7.2765,11.5 7.5,11.7235 7.5,12 C7.5,12.2765 7.2765,12.5 7,12.5 C6.7235,12.5 6.5,12.2765 6.5,12 C6.5,11.7235 6.7235,11.5 7,11.5 Z M17,7 C17.2765,7 17.5,7.2235 17.5,7.5 C17.5,7.7765 17.2765,8 17,8 L10,8 C9.7235,8 9.5,7.7765 9.5,7.5 C9.5,7.2235 9.7235,7 10,7 L17,7 Z M7,7 C7.2765,7 7.5,7.2235 7.5,7.5 C7.5,7.7765 7.2765,8 7,8 C6.7235,8 6.5,7.7765 6.5,7.5 C6.5,7.2235 6.7235,7 7,7 Z" id="Combined-Shape" fill="#273637"></path>
    </g>
</svg>