<svg width="24" height="24" viewBox="0 0 24 24" fill="none" xmlns="http://www.w3.org/2000/svg">
<path fill-rule="evenodd" clip-rule="evenodd" d="M12.5494 17.0122L16.7802 12.9408C16.945 12.7821 17 12.6235 17 12.412V3.74027C17 3.31726 16.6703 3 16.2308 3H7.76923C7.54945 3 7.32967 3.10575 7.21978 3.21151C7.10989 3.31726 7 3.52876 7 3.74027V12.412C7 12.6235 7.05494 12.7821 7.21978 12.9408L11.4505 17.0122C11.7253 17.2766 12.2747 17.2766 12.5494 17.0122ZM13.0526 12.5239C13.0526 13.1053 12.5813 13.5766 12 13.5766C11.4186 13.5766 10.9474 13.1053 10.9474 12.5239C10.9474 11.9426 11.4186 11.4713 12 11.4713C12.5813 11.4713 13.0526 11.9426 13.0526 12.5239Z" fill="white"/>
<path d="M18.317 14.6627C17.9272 14.5457 17.5164 14.7669 17.3995 15.1567C17.2826 15.5465 17.5037 15.9573 17.8935 16.0742L17.9132 16.0801C18.1926 16.1639 18.5374 16.2672 18.8236 16.4706C19.0814 16.6538 19.264 16.8954 19.264 17.3158C19.264 17.4198 19.2152 17.6053 18.9673 17.8563C18.7183 18.1084 18.3051 18.3851 17.6922 18.6408C16.4683 19.1514 14.5721 19.5263 11.9992 19.5263C9.4263 19.5263 7.53054 19.1514 6.30708 18.6408C5.69437 18.3852 5.28145 18.1085 5.0326 17.8565C4.78487 17.6055 4.73603 17.4199 4.73603 17.3158C4.73603 16.895 4.91851 16.6535 5.1759 16.4705C5.46268 16.2666 5.80873 16.1632 6.08894 16.0794L6.10584 16.0744C6.49573 15.9578 6.71728 15.5472 6.60069 15.1573C6.48409 14.7674 6.07351 14.5459 5.68362 14.6625L5.63655 14.6764C5.3687 14.7556 4.81424 14.9194 4.32202 15.2694C3.76363 15.6663 3.26234 16.3195 3.26234 17.3158C3.26234 17.9202 3.55488 18.4573 3.98388 18.8918C4.41176 19.3252 5.01092 19.6968 5.73959 20.0009C7.1989 20.6098 9.30315 21 11.9992 21C14.6952 21 16.7999 20.6098 18.2595 20.0009C18.9884 19.6969 19.5877 19.3253 20.0158 18.8919C20.4449 18.4574 20.7377 17.9203 20.7377 17.3158C20.7377 16.3191 20.2356 15.666 19.6772 15.2693C19.1858 14.9201 18.6324 14.7562 18.3652 14.677L18.317 14.6627Z" fill="white"/>
</svg>
