<?xml version="1.0" encoding="UTF-8"?>
<svg width="24px" height="24px" viewBox="0 0 24 24" version="1.1" xmlns="http://www.w3.org/2000/svg" xmlns:xlink="http://www.w3.org/1999/xlink">
    <g stroke="none" stroke-width="1" fill="none" fill-rule="evenodd">
        <path d="M12 2C6.4 2 1.8 6.6 1.8 12.2c0 .6.4 1 1 1H11v5.7c0 .7-.5 1.2-1.2 1.2s-1.2-.5-1.2-1.2c0-.6-.4-1-1-1s-1 .4-1 1c0 1.8 1.4 3.2 3.2 3.2 1.8 0 3.2-1.4 3.2-3.2v-5.7h8.1c.6 0 1-.4 1-1C22.2 6.6 17.6 2 12 2zm0 2c4.2 0 7.6 3.1 8.1 7.2H3.9C4.4 7.1 7.8 4 12 4z" fill="#273637"></path>
    </g>
</svg>
