<?xml version="1.0" encoding="UTF-8"?>
<svg width="24px" height="24px" viewBox="0 0 24 24" version="1.1" xmlns="http://www.w3.org/2000/svg" xmlns:xlink="http://www.w3.org/1999/xlink">
    <title>Icons/Full Set/General / Upgrade</title>
    <g id="Icons/Full-Set/General-/-Upgrade" stroke="none" stroke-width="1" fill="none" fill-rule="evenodd">
        <path d="M12,2 C17.523,2 22,6.477 22,12 C22,17.523 17.523,22 12,22 C6.477,22 2,17.523 2,12 C2,6.477 6.477,2 12,2 Z M12,4 C7.589,4 4,7.589 4,12 C4,16.411 7.589,20 12,20 C16.411,20 20,16.411 20,12 C20,7.589 16.411,4 12,4 Z M14.3112,15.3572 C14.8237714,15.3572 15.2466694,15.7434857 15.3044682,16.2406315 L15.3112,16.3572 C15.3112,16.9092 14.8632,17.3572 14.3112,17.3572 L9.6892,17.3572 C9.1757,17.3572 8.75359796,16.9709143 8.69591757,16.4737685 L8.6892,16.3572 C8.6892,15.8052 9.1362,15.3572 9.6892,15.3572 L14.3112,15.3572 Z M11.669,6.0195 C11.857,5.8505 12.142,5.8505 12.331,6.0195 L12.331,6.0195 L15.519,8.8635 C15.86,9.1675 15.645,9.7325 15.188,9.7325 L15.188,9.7325 L14.187,9.7325 L14.187,13.3575 C14.187,13.6335 13.964,13.8575 13.687,13.8575 L13.687,13.8575 L10.312,13.8575 C10.036,13.8575 9.812,13.6335 9.812,13.3575 L9.812,13.3575 L9.812,9.7325 L8.812,9.7325 C8.355,9.7325 8.14,9.1675 8.481,8.8635 L8.481,8.8635 Z" id="Combined-Shape" fill="#273637"></path>
    </g>
</svg>