<svg width="24" height="24" viewBox="0 0 24 24" fill="none" xmlns="http://www.w3.org/2000/svg">
<path d="M14 10C14 8.86957 13.1304 8 12 8C10.8696 8 10 8.86957 10 10C10 11.1304 10.8696 12 12 12C13.1304 12 14 11.1304 14 10Z" fill="#273637"/>
<path d="M12 13C13.4222 13 14.8444 13.3579 16 13.9842C15.2 15.4158 13.6889 16.4 12 16.4C10.3111 16.4 8.8 15.4158 8 13.9842C9.24444 13.3579 10.5778 13 12 13Z" fill="#273637"/>
<path fill-rule="evenodd" clip-rule="evenodd" d="M19.8078 13.025C19.9013 12.6523 19.9013 12.2795 19.9013 12C19.9013 11.6273 19.9013 11.2545 19.8078 10.975L21.4909 9.76364C21.8649 9.48409 21.9584 8.925 21.7714 8.55227L19.9013 5.29091C19.6208 4.91818 19.1532 4.73182 18.6857 4.91818L16.8156 5.75682C16.2545 5.29091 15.6 4.91818 14.9455 4.63864L14.7584 2.58864C14.6649 2.12273 14.2909 1.75 13.8234 1.75H10.0831C9.61558 1.75 9.24156 2.12273 9.14805 2.58864L8.96104 4.63864C8.30649 4.91818 7.65195 5.29091 7.09091 5.75682L5.22078 4.825C4.75325 4.63864 4.28571 4.825 4.00519 5.19773L2.13506 8.45909C1.85455 8.83182 2.04156 9.39091 2.41558 9.67045L4.0987 10.8818C4.00519 11.2545 4.00519 11.6273 4.00519 11.9068C4.00519 12.2795 4.00519 12.6523 4.0987 12.9318L2.41558 14.1432C2.04156 14.4227 1.94805 14.9818 2.13506 15.3545L4.00519 18.6159C4.28571 18.9886 4.75325 19.175 5.22078 18.9886L7.18442 18.15C7.74545 18.6159 8.4 18.9886 9.05455 19.175L9.14805 21.4114C9.24156 21.8773 9.61558 22.25 10.0831 22.25H13.8234C14.2909 22.25 14.6649 21.8773 14.7584 21.4114L14.9455 19.3614C15.6 19.0818 16.2545 18.7091 16.8156 18.3364L18.7792 19.175C19.2468 19.3614 19.7143 19.175 19.9948 18.8023L21.8649 15.5409C22.1455 15.1682 21.9584 14.6091 21.5844 14.3295L19.8078 13.025ZM17.8848 10.894C17.963 11.2721 18.0312 11.6021 18.0312 12C18.0312 12.3979 17.963 12.7279 17.8848 13.106C17.8714 13.1706 17.8578 13.2366 17.8442 13.3045C17.7506 13.6773 17.9377 14.05 18.2182 14.2364L19.7143 15.2614L18.6857 17.0318L17.0026 16.2864C16.6286 16.1 16.2545 16.1932 15.974 16.4727C15.3195 17.0318 14.5714 17.4977 13.7299 17.7773C13.3558 17.8705 13.0753 18.2432 13.0753 18.6159L12.8883 20.4795H10.8312L10.6442 18.6159C10.6442 18.2432 10.3636 17.9636 9.98961 17.7773C9.14805 17.4977 8.4 17.125 7.74545 16.4727C7.46493 16.1932 7.09091 16.1932 6.71688 16.2864L5.03377 17.0318L4.00519 15.2614L5.5013 14.1432C5.78182 13.9568 5.96883 13.5841 5.87532 13.2114C5.78182 12.7455 5.78182 12.3727 5.78182 11.9068C5.78182 11.5089 5.85003 11.1789 5.92819 10.8008C5.94155 10.7362 5.95519 10.6702 5.96883 10.6023C6.06234 10.2295 5.87532 9.85682 5.59481 9.67045L4.19221 8.64545L5.22078 6.875L6.9039 7.62045C7.27792 7.80682 7.65195 7.71364 7.93247 7.43409C8.49351 6.875 9.24156 6.50227 10.0831 6.22273C10.4571 6.12955 10.7377 5.75682 10.7377 5.38409L10.9247 3.52045H12.9818L13.1688 5.38409C13.1688 5.75682 13.4494 6.03636 13.8234 6.22273C14.6649 6.50227 15.413 6.875 16.0675 7.52727C16.3481 7.80682 16.7221 7.80682 17.0961 7.71364L18.7792 6.96818L19.8078 8.73864L18.3117 9.76364C17.9377 9.95 17.8442 10.3227 17.8442 10.6955C17.8578 10.7634 17.8714 10.8295 17.8848 10.894Z" fill="#273637"/>
</svg>
