<svg width="24" height="24" viewBox="0 0 24 24" fill="none" xmlns="http://www.w3.org/2000/svg">
<path fill-rule="evenodd" clip-rule="evenodd" d="M8.6 6.2C8.15818 6.2 7.8 6.55817 7.8 7V11.3C7.8 11.7418 8.15817 12.1 8.6 12.1H11.3V13.4H10.35C9.96339 13.4 9.64999 13.7134 9.64999 14.1C9.64999 14.4866 9.9634 14.8 10.35 14.8H13.65C14.0366 14.8 14.35 14.4866 14.35 14.1C14.35 13.7134 14.0366 13.4 13.65 13.4H12.7V12.1H15.4C15.8418 12.1 16.2 11.7418 16.2 11.3V7C16.2 6.55817 15.8418 6.2 15.4 6.2H8.6ZM9.2 10.7V7.6H14.8V10.7H9.2Z" fill="white"/>
<path fill-rule="evenodd" clip-rule="evenodd" d="M18.2 21.2C17.9 21.7 17.4 22 16.9 22H4.5C3.7 22 3 21.3 3 20.5V3.5C3 2.7 3.7 2 4.5 2H19.5C20.3 2 21 2.7 21 3.5V15.9C21 16.1 20.9 16.4 20.8 16.6L18.2 21.2ZM5 20H15.2V16.3C15.2 15.6 15.8 15.1 16.4 15.1H19V4.1H5V20Z" fill="white"/>
</svg>
