<svg width="24" height="24" viewBox="0 0 24 24" fill="none" xmlns="http://www.w3.org/2000/svg">
<path d="M9.19805 11.088C8.7897 10.7575 8.27731 10.2735 8.00656 9.82365C6.72413 7.69254 7.4157 4.92277 9.55004 3.64237C11.6844 2.36196 14.4583 3.05249 15.7407 5.18352C16.1942 5.93783 16.4175 6.80786 16.3832 7.687C16.3799 7.78112 16.3559 7.87335 16.313 7.95723C16.2701 8.04111 16.2094 8.11461 16.1351 8.17256C16.0607 8.23051 15.9746 8.27151 15.8827 8.29269C15.7908 8.31386 15.6953 8.31469 15.6031 8.29513C15.6011 8.29472 15.5992 8.29423 15.5976 8.29213C15.4424 8.25921 15.3037 8.17302 15.2057 8.04855C15.1076 7.92409 15.0564 7.76924 15.0608 7.61093C15.0816 6.99695 14.924 6.39008 14.6071 5.86353C13.7006 4.35723 11.7398 3.86905 10.2312 4.77415C8.72259 5.67933 8.23358 7.63717 9.14014 9.14355C9.45405 9.66521 10.2932 10.3533 10.8439 10.6286C10.8749 10.6412 10.9029 10.6603 10.9259 10.6846C10.9489 10.7089 10.9664 10.7378 10.9771 10.7695C10.9879 10.8011 10.9917 10.8348 10.9883 10.868C10.9849 10.9013 10.9744 10.9334 10.9574 10.9623L8.40374 15.689L8.38217 15.6757C8.50438 15.8947 8.57589 16.1461 8.58058 16.4143C8.5958 17.2847 7.90146 18.0026 7.02975 18.0178C6.15803 18.033 5.43903 17.3397 5.42381 16.4693C5.4086 15.5989 6.10293 14.881 6.97465 14.8658C7.04877 14.8645 7.12179 14.8684 7.19337 14.877L9.19805 11.088Z" fill="#273637"/>
<path d="M15.3736 12.2585L13.3051 8.61478L13.2513 8.64374C13.4553 8.3729 13.5738 8.03462 13.5674 7.6695C13.5522 6.7991 12.8332 6.10582 11.9615 6.12101C11.0898 6.1362 10.3955 6.85412 10.4107 7.72451C10.4259 8.59491 11.1449 9.28819 12.0166 9.273C12.0406 9.27258 12.0644 9.27163 12.088 9.27017L12.0259 9.30359L14.6028 13.8428C14.6194 13.8719 14.642 13.897 14.6691 13.9166C14.6963 13.9362 14.7273 13.9497 14.7602 13.9562C14.793 13.9627 14.8269 13.962 14.8595 13.9543C14.892 13.9466 14.9226 13.932 14.949 13.9114C15.4632 13.5729 16.3235 13.2916 16.9329 13.281C18.6927 13.2503 20.1463 14.652 20.177 16.4091C20.2077 18.1663 18.804 19.6177 17.0442 19.6484C16.4291 19.6591 15.824 19.4919 15.3019 19.1671C15.1668 19.0841 15.0068 19.051 14.8499 19.0735C14.6929 19.0961 14.5488 19.1729 14.4426 19.2905C14.44 19.2908 14.4386 19.2924 14.4373 19.2938C14.3742 19.3638 14.3271 19.4467 14.2995 19.5368C14.2719 19.6268 14.2644 19.7218 14.2775 19.8151C14.2906 19.9084 14.324 19.9976 14.3753 20.0766C14.4266 20.1557 14.4947 20.2225 14.5746 20.2724C15.32 20.7417 16.1862 20.9837 17.0673 20.9687C19.5569 20.9253 21.5428 18.8719 21.4993 16.3861C21.4558 13.9002 19.3994 11.9173 16.9098 11.9607C16.3843 11.9699 15.8644 12.0707 15.3736 12.2585Z" fill="#273637"/>
<path d="M10.9574 18.678C11.2123 18.219 11.3877 17.8476 11.4701 17.3294H15.5238C15.8085 17.78 16.3151 18.0756 16.8876 18.0656C17.7593 18.0504 18.4536 17.3325 18.4384 16.4621C18.4232 15.5917 17.7042 14.8984 16.8325 14.9136C16.1906 14.9248 15.6448 15.317 15.4078 15.8706H10.4814C10.4479 15.8703 10.4147 15.8773 10.3842 15.8909C10.3536 15.9046 10.3264 15.9247 10.3043 15.9498C10.2822 15.975 10.2658 16.0046 10.2562 16.0366C10.2467 16.0687 10.2441 16.1024 10.2488 16.1355C10.2853 16.7495 10.0963 17.5055 9.80079 18.0378C8.94752 19.5748 7.0049 20.131 5.46552 19.2791C3.92613 18.427 3.36917 16.4873 4.22243 14.9503C4.5207 14.4131 4.96825 13.9734 5.51113 13.6844C5.65068 13.6091 5.75937 13.4873 5.81829 13.3403C5.87721 13.1932 5.88263 13.0302 5.83361 12.8796C5.83462 12.8772 5.83408 12.8754 5.83353 12.8735C5.80438 12.7839 5.75591 12.7017 5.69158 12.6328C5.62725 12.5639 5.54859 12.51 5.46114 12.4747C5.37373 12.4393 5.27963 12.4236 5.18545 12.4284C5.09128 12.4333 4.99931 12.4587 4.91601 12.5028C4.13631 12.9127 3.49329 13.5408 3.06577 14.3102C1.8587 16.4847 2.64666 19.2287 4.82446 20.4341C7.00225 21.6394 9.75029 20.8525 10.9574 18.678Z" fill="#273637"/>
</svg>
