<?xml version="1.0" encoding="UTF-8"?>
<svg width="24px" height="24px" viewBox="0 0 24 24" version="1.1" xmlns="http://www.w3.org/2000/svg" xmlns:xlink="http://www.w3.org/1999/xlink">
    <title>Icons/Full Set/White List/White List</title>
    <g id="Icons/Full-Set/White-List/White-List" stroke="none" stroke-width="1" fill="none" fill-rule="evenodd">
        <path d="M16.2001357,10.4099907 C17.6313845,10.4073446 19.0049225,10.9740455 20.0179074,11.9851546 C21.0308923,12.9962636 21.6001451,14.3687488 21.6001451,15.8 C21.604182,17.9850016 20.2910828,19.9571045 18.2735648,20.7960736 C16.2560467,21.6350428 13.9317722,21.1755133 12.3853088,19.6319138 C10.8388455,18.0883143 10.3750086,15.7648955 11.2102367,13.7458258 C12.0454648,11.7267561 14.0151304,10.4099907 16.2001357,10.4099907 Z M18.5401357,13.1599893 C18.3017943,13.158811 18.0736481,13.2565879 17.9101357,13.43 L17.9101357,13.43 L15.179,16.298 L14.5201357,15.62 C14.3858634,15.4775945 14.2079236,15.3861159 14.0164227,15.3586751 L13.9001357,15.35 C13.6753477,15.3526849 13.4603249,15.4422778 13.3001357,15.6 C13.127047,15.751808 13.0229425,15.9673358 13.0116334,16.1972868 C13.0003244,16.4272378 13.0827782,16.6519406 13.2401357,16.82 L13.2401357,16.82 L14.5301357,18.16 C14.6877016,18.3241942 14.9027481,18.4209651 15.1301357,18.43 L15.1301357,18.43 L15.1801357,18.43 C15.4080181,18.4230882 15.6238308,18.3259725 15.7801357,18.16 L15.7801357,18.16 L19.1701357,14.6 C19.3993589,14.3490594 19.4592918,13.9866597 19.3230638,13.6752815 C19.1868359,13.3639033 18.8800042,13.1619631 18.5401357,13.1599893 Z M15.8501357,3 C16.5518622,3 17.1285396,3.53539927 17.1939558,4.21998599 L17.2001357,4.35 L17.2001357,9.89 C16.8109959,9.81731107 16.416006,9.78048997 16.0201357,9.78 C15.8371752,9.77979898 15.6543727,9.78864531 15.4723966,9.8064901 L15.2001357,9.84 L15.2001357,5 L8.56,5 L8.56013574,7.34 C8.5549601,7.95418497 8.06413038,8.45385847 7.45013574,8.47 L6,8.469 L6.00013574,15.6 L10.0601357,15.6 L10.0601357,15.77 C10.0590257,16.2879547 10.1268258,16.8032897 10.2613973,17.3025097 L10.3501357,17.6 L5.35013574,17.6 C4.65054325,17.5948746 4.07680692,17.0619892 4.00713095,16.3796064 L4.000066,16.25 L4.000066,7.6 C3.99810755,7.40035619 4.03976241,7.20330613 4.12143456,7.02242094 L4.19013574,6.89 L6.03013574,3.68 C6.24616661,3.30210388 6.629284,3.05420339 7.05632929,3.0078779 L7.20013574,3 L15.8501357,3 Z" id="Combined-Shape" fill="#273637"></path>
    </g>
</svg>
