<?xml version="1.0" encoding="UTF-8"?>
<svg width="24px" height="24px" viewBox="0 0 24 24" version="1.1" xmlns="http://www.w3.org/2000/svg" xmlns:xlink="http://www.w3.org/1999/xlink">
    <title>Icons/Full Set/General/Wildcards</title>
    <g id="Icons/Full-Set/General/Wildcards" stroke="none" stroke-width="1" fill="none" fill-rule="evenodd">
        <path d="M14.1352902,3.1384 C14.4872902,3.3014 14.7532902,3.5924 14.8852902,3.9564 L19.1782902,15.7534 C19.3122902,16.1174 19.2952902,16.5124 19.1302902,16.8624 C18.9662902,17.2124 18.6762902,17.4784 18.3132902,17.6094 L9.23829019,20.9134 C9.07529019,20.9734 8.90829019,21.0004 8.74529019,21.0004 C8.15229019,21.0004 7.59429019,20.6354 7.38129019,20.0484 L3.08729019,8.2494 C2.81429019,7.4994 3.20329019,6.6664 3.95229019,6.3934 L13.0282902,3.0904 C13.3902902,2.9554 13.7852902,2.9734 14.1352902,3.1384 Z M13.2352902,5.0694 L5.06729019,8.0424 L9.03129019,18.9344 L17.1992902,15.9604 L13.2352902,5.0694 Z M11.5807218,8.90017049 L11.6788902,8.9102 C12.0298902,8.9722 12.2768902,9.2782 12.2768902,9.6242 C12.2768902,9.6652 12.2728902,9.7072 12.2668902,9.7492 L12.2668902,9.7492 L12.0638902,10.8912 L13.1538902,10.4942 C13.5278902,10.3612 13.9458902,10.5512 14.0828902,10.9272 C14.1118902,11.0092 14.1268902,11.0922 14.1268902,11.1742 C14.1268902,11.4712 13.9438902,11.7492 13.6488902,11.8572 L13.6488902,11.8572 L12.5608902,12.2522 L13.4478902,12.9972 C13.6188902,13.1412 13.7068902,13.3462 13.7068902,13.5522 C13.7068902,13.7172 13.6518902,13.8822 13.5378902,14.0182 C13.3948902,14.1902 13.1898902,14.2782 12.9818902,14.2782 C12.8178902,14.2782 12.6528902,14.2222 12.5178902,14.1092 L12.5178902,14.1092 L11.6288902,13.3622 L11.4278902,14.5052 C11.3648902,14.8572 11.0598902,15.1042 10.7148902,15.1042 C10.6728902,15.1042 10.6308902,15.1002 10.5878902,15.0922 C10.2368902,15.0302 9.98889019,14.7252 9.98989019,14.3792 C9.98989019,14.3382 9.99289019,14.2962 10.0008902,14.2542 L10.0008902,14.2542 L10.2018902,13.1112 L9.11089019,13.5082 C9.02989019,13.5372 8.94589019,13.5512 8.86389019,13.5512 C8.56789019,13.5512 8.29089019,13.3692 8.18389019,13.0742 C8.15389019,12.9922 8.13989019,12.9092 8.13989019,12.8272 C8.13989019,12.5312 8.32189019,12.2532 8.61589019,12.1462 L8.61589019,12.1462 L9.70589019,11.7492 L8.81789019,11.0042 C8.64789019,10.8612 8.55989019,10.6552 8.55989019,10.4492 C8.55989019,10.2852 8.61489019,10.1192 8.72989019,9.9842 C8.98589019,9.6782 9.44289019,9.6382 9.74989019,9.8952 L9.74989019,9.8952 L10.6378902,10.6402 L10.8388902,9.4982 C10.9088902,9.1042 11.2838902,8.8432 11.6788902,8.9102 Z M15.7432902,3 L17.8872902,3.194 C18.3492902,3.228 18.6862902,3.64 18.6522902,4.102 L18.1652902,9.644 L17.5592902,7.979 L15.7432902,3 Z M19.7628902,3.9427 L20.7138902,4.3717 C21.1338902,4.5727 21.3188902,5.0697 21.1258902,5.4897 L19.2748902,9.5347 L19.7628902,3.9427 Z" id="Combined-Shape" fill="#273637"></path>
    </g>
</svg>