<svg width="24" height="24" viewBox="0 0 24 24" fill="none" xmlns="http://www.w3.org/2000/svg">
<path d="M7.49205 4.14087C8.15872 3.4742 8.49205 3.14087 8.90626 3.14087C9.32048 3.14087 9.65381 3.4742 10.3205 4.14087L13.6656 7.48595C13.5083 7.63901 13.3375 7.80987 13.1488 7.99852L11.2686 9.8787C10.2686 10.8787 9.76864 11.3787 9.76864 12C9.76864 12.6213 10.2686 13.1213 11.2686 14.1213L13.1487 16.0014C13.3374 16.1901 13.5083 16.361 13.6656 16.5141L10.3205 19.8592C9.65381 20.5258 9.32048 20.8592 8.90626 20.8592C8.49205 20.8592 8.15872 20.5258 7.49205 19.8592L1.04712 13.4142C0.380453 12.7476 0.0471191 12.4142 0.0471191 12C0.0471191 11.5858 0.380451 11.2525 1.04711 10.5858L7.49205 4.14087Z" fill="#273637"/>
<path d="M18.2656 6.29153C17.8514 6.29153 17.5181 6.62487 16.8514 7.29153L13.5571 10.5858C12.8905 11.2525 12.5571 11.5858 12.5571 12C12.5571 12.4142 12.8905 12.7476 13.5571 13.4142L16.8514 16.7085C17.5181 17.3752 17.8514 17.7085 18.2656 17.7085C18.6798 17.7085 19.0132 17.3752 19.6798 16.7085L22.9741 13.4142C23.6408 12.7476 23.9741 12.4142 23.9741 12C23.9741 11.5858 23.6408 11.2525 22.9741 10.5858L19.6798 7.29153C19.0132 6.62487 18.6798 6.29153 18.2656 6.29153Z" fill="#273637"/>
</svg>
