<?xml version="1.0" encoding="UTF-8"?>
<svg width="24px" height="24px" viewBox="0 0 24 24" version="1.1" xmlns="https://www.w3.org/2000/svg" xmlns:xlink="https://www.w3.org/1999/xlink">
    <title>Icons/Full Set/Room/Global Dashboard</title>
    <g id="Icons/Full-Set/Room/Global-Dashboard" stroke="none" stroke-width="1" fill="none" fill-rule="evenodd">
        <path d="M12,3 L12,7.05 L11.7851153,7.05456889 C9.14900693,7.16688781 7.05,9.336 7.05,12 L7.05,12 L7.05456889,12.2148847 C7.16688781,14.8509931 9.336,16.95 12,16.95 L12,16.95 L12.2148847,16.9454311 C14.8509931,16.8331122 16.95,14.664 16.95,12 L16.95,12 L21,12 L20.9961605,12.2652298 C20.8557015,17.1107143 16.8792857,21 12,21 L12,21 L11.7347702,20.9961605 C6.88928571,20.8557015 3,16.8792857 3,12 L3,12 L3.00383951,11.7347702 C3.14429847,6.88928571 7.12071429,3 12,3 L12,3 Z M12,9.75 L12.1539753,9.75519401 C13.32425,9.83440625 14.25,10.80975 14.25,12 L14.25,12 L14.244806,12.1540786 C14.1655938,13.3250766 13.19025,14.25 12,14.25 L12,14.25 L11.8459214,14.2448105 C10.6749234,14.1656656 9.75,13.1911125 9.75,12 C9.75,10.758 10.7571,9.75 12,9.75 L12,9.75 Z" id="Combined-Shape" fill="#273637"></path>
    </g>
</svg>
