<svg width="24" height="24" viewBox="0 0 24 24" fill="none" xmlns="http://www.w3.org/2000/svg">
<path d="M4.74998 15.2298C3.78439 15.2298 3.3016 15.2298 3.00227 14.8805C2.70294 14.5312 2.7698 14.1 2.90353 13.2377C3.06196 12.216 3.34208 11.2145 3.73955 10.255C4.39286 8.67772 5.35043 7.24461 6.5576 6.03745C7.76476 4.83029 9.19787 3.87272 10.7751 3.21941C11.7347 2.82194 12.7362 2.54182 13.7578 2.38339C14.6202 2.24966 15.0513 2.1828 15.4007 2.48213C15.75 2.78146 15.75 3.26425 15.75 4.22984L15.75 10.726H13.25C11.8358 10.726 11.1287 10.726 10.6893 11.1654C10.25 11.6047 10.25 12.3118 10.25 13.726V15.2298H4.74998Z" fill="#273637"/>
<path d="M21.0064 12.8532C20.7061 12.4799 20.2208 12.4799 19.25 12.4799L14 12.4799C13.0572 12.4799 12.5858 12.4799 12.2929 12.7728C12 13.0656 12 13.537 12 14.4799L12 19.7299C12 20.7006 12 21.186 12.3733 21.4862C12.7467 21.7864 13.1593 21.6958 13.9845 21.5145C15.6969 21.1383 17.2816 20.2797 18.5407 19.0206C19.7998 17.7615 20.6585 16.1768 21.0346 14.4644C21.2159 13.6391 21.3066 13.2265 21.0064 12.8532Z" fill="#273637"/>
</svg>
