<svg width="24" height="24" viewBox="0 0 24 24" fill="none" xmlns="http://www.w3.org/2000/svg">
<path fill-rule="evenodd" clip-rule="evenodd" d="M5.93127 1.99583C6.28814 1.38332 6.94257 1.00548 7.65146 1.00268L11.4754 0.987579L11.4833 0.98758L15.3073 1.00268C16.0161 1.00548 16.6706 1.38332 17.0275 1.99583L18.9525 5.29992L18.9565 5.30676L20.8554 8.62595C21.2074 9.24126 21.2074 9.99694 20.8554 10.6123L19.4713 13.0316L20.2924 14.4409L21.3236 16.2435C21.6756 16.8588 21.6756 17.6145 21.3236 18.2298L20.2885 20.0392L19.243 21.8336C18.8861 22.4461 18.2317 22.8239 17.5228 22.8267L15.4382 22.835L13.3615 22.8267C12.6526 22.8239 11.9982 22.4461 11.6413 21.8336L10.5919 20.0324L9.56831 18.2431L7.65146 18.2355C6.94258 18.2327 6.28814 17.8549 5.93127 17.2424L4.00622 13.9383L4.00227 13.9314L2.10337 10.6123C1.75135 9.99695 1.75135 9.24126 2.10337 8.62595L4.00227 5.30676L4.00622 5.29992L5.93127 1.99583ZM9.56096 16.2431L10.5959 14.4341L11.6413 12.6397C11.9982 12.0272 12.6526 11.6494 13.3615 11.6466L15.4461 11.6383L17.5228 11.6466C17.6626 11.6471 17.8004 11.6623 17.9341 11.6909L19.1194 9.6191L17.2224 6.30334L15.2994 3.00266L11.4794 2.98758L7.65936 3.00267L5.73631 6.30332L3.83936 9.6191L5.73629 12.9349L7.65936 16.2355L9.56096 16.2431ZM13.3694 13.6466L15.4422 13.6384L17.5149 13.6466L18.5584 15.4375L19.5876 17.2366L18.5584 19.0358L17.5149 20.8267L15.4422 20.8349L13.3694 20.8267L12.326 19.0358L11.2967 17.2366L12.326 15.4375L13.3694 13.6466Z" fill="white"/>
</svg>
