<svg width="24" height="24" viewBox="0 0 24 24" fill="none" xmlns="http://www.w3.org/2000/svg">
<path fill-rule="evenodd" clip-rule="evenodd" d="M10.0337 3.25C6.44384 3.25 3.53369 6.16015 3.53369 9.75C3.53369 13.3399 6.44384 16.25 10.0337 16.25H12.0337V13.5183C12.0337 12.5417 12.8254 11.75 13.802 11.75H16.5337V9.75C16.5337 6.16015 13.6235 3.25 10.0337 3.25ZM12.1244 18.25H10.0337C5.33927 18.25 1.53369 14.4444 1.53369 9.75C1.53369 5.05558 5.33927 1.25 10.0337 1.25C14.7281 1.25 18.5337 5.05558 18.5337 9.75V11.8407C21.0938 12.3109 23.0337 14.5539 23.0337 17.25C23.0337 20.2876 20.5713 22.75 17.5337 22.75C14.8376 22.75 12.5946 20.8101 12.1244 18.25ZM14.0337 13.75H17.5337C19.4667 13.75 21.0337 15.317 21.0337 17.25C21.0337 19.183 19.4667 20.75 17.5337 20.75C15.6007 20.75 14.0337 19.183 14.0337 17.25V13.75Z" fill="#273637"/>
</svg>
