<svg width="24" height="24" viewBox="0 0 24 24" fill="none" xmlns="http://www.w3.org/2000/svg">
<path d="M9.5 2C5.35786 2 2 5.35786 2 9.5C2 13.6421 5.35786 17 9.5 17H10.5907C10.5311 16.6757 10.5 16.3415 10.5 16V11.8509C10.5 11.1048 11.1048 10.5 11.8509 10.5H16C16.3415 10.5 16.6757 10.5311 17 10.5907V9.5C17 5.35786 13.6421 2 9.5 2Z" fill="#273637"/>
<path d="M12.5 13.2683C12.5 12.844 12.844 12.5 13.2683 12.5H17C19.4853 12.5 21.5 14.5147 21.5 17C21.5 19.4853 19.4853 21.5 17 21.5C14.5147 21.5 12.5 19.4853 12.5 17V13.2683Z" fill="#273637"/>
</svg>
