<?xml version="1.0" encoding="UTF-8"?>
<svg width="24px" height="24px" viewBox="0 0 24 24" version="1.1" xmlns="http://www.w3.org/2000/svg" xmlns:xlink="http://www.w3.org/1999/xlink">
    <title>Icons/Full Set/VM/AHV VMs</title>
    <g id="Icons/Full-Set/VM/AHV-VMs" stroke="none" stroke-width="1" fill="none" fill-rule="evenodd">
        <path d="M19.4,3 C20.3,3 20.9,3.7 20.9,4.5 L20.9,4.5 L20.9,14.2 C20.9,15 20.2,15.7 19.4,15.7 L19.4,15.7 L13,15.7 L13,18.4 L16,18.4 C16.6,18.4 17,18.8 17,19.4 C17,20 16.6,20.4 16,20.4 L16,20.4 L8,20.4 C7.4,20.4 7,20 7,19.4 C7,18.8 7.4,18.4 8,18.4 L8,18.4 L11,18.4 L11,15.7 L4.6,15.7 C3.8,15.7 3.1,15 3.1,14.2 L3.1,14.2 L3.1,4.5 C3.1,3.7 3.7,3 4.6,3 L4.6,3 Z M19,5 L5.1,5 L5.1,13.7 L19,13.7 L19,5 Z M9.9319,6.5264 L13.2269,9.3504 L9.9319,12.1734 L8.0499,12.1734 L11.3439,9.3504 L8.0499,6.5264 L9.9319,6.5264 Z M13.4619,9.9523 L16.0499,12.1733 L14.1679,12.1733 L12.5209,10.7613 L13.4619,9.9523 Z M16.0499,6.5264 L13.4619,8.7434 L12.5209,7.9384 L14.1679,6.5264 L16.0499,6.5264 Z" id="Combined-Shape" fill="#273637"></path>
    </g>
</svg>
