<?xml version="1.0" encoding="UTF-8"?>
<svg width="24px" height="24px" viewBox="0 0 24 24" version="1.1" xmlns="http://www.w3.org/2000/svg" xmlns:xlink="http://www.w3.org/1999/xlink">
    <title>Icons/Full Set/VM/vCenter VMs</title>
    <g id="Icons/Full-Set/VM/vCenter-VMs" stroke="none" stroke-width="1" fill="none" fill-rule="evenodd">
        <path d="M19.401,3 C20.3,3 20.901,3.7 20.901,4.5 L20.901,4.5 L20.901,14.2 C20.901,15 20.201,15.7 19.401,15.7 L19.401,15.7 L13.001,15.7 L13.001,18.4 L16.001,18.4 C16.6,18.4 17.001,18.8 17.001,19.4 C17.001,20 16.6,20.4 16.001,20.4 L16.001,20.4 L8.001,20.4 C7.401,20.4 7.001,20 7.001,19.4 C7.001,18.8 7.401,18.4 8.001,18.4 L8.001,18.4 L11.001,18.4 L11.001,15.7 L4.6,15.7 C3.8,15.7 3.1,15 3.1,14.2 L3.1,14.2 L3.1,4.5 C3.1,3.7 3.701,3 4.6,3 L4.6,3 Z M19.001,5 L5.1,5 L5.1,13.7 L19.001,13.7 L19.001,5 Z M14.9252,6.1001 C15.0882,6.1001 15.2502,6.2301 15.2502,6.4251 L15.2502,6.4251 L15.2502,10.5521 C15.2502,10.7471 15.1202,10.8771 14.9252,10.8771 L14.9252,10.8771 L13.5282,10.8771 L13.5282,12.2751 C13.5282,12.4701 13.3982,12.6001 13.2032,12.6001 L13.2032,12.6001 L9.0762,12.6001 C8.8802,12.6001 8.7502,12.4701 8.7502,12.2751 L8.7502,12.2751 L8.7502,8.1471 C8.7502,7.9531 8.8802,7.8231 9.0762,7.8231 L9.0762,7.8231 L10.4732,7.8231 L10.4732,6.4251 C10.4732,6.2301 10.6032,6.1001 10.7982,6.1001 L10.7982,6.1001 Z M13.6912,7.3351 L12.0002,7.3351 C11.8052,7.3351 11.6752,7.4651 11.6752,7.6601 L11.6752,7.6601 L11.6752,9.0251 L10.3102,9.0251 C10.1162,9.0251 9.9862,9.1551 9.9862,9.3501 L9.9862,9.3501 L9.9862,11.0401 C9.9862,11.2351 10.1162,11.3651 10.3102,11.3651 L10.3102,11.3651 L12.0002,11.3651 C12.1962,11.3651 12.3262,11.2351 12.3262,11.0401 L12.3262,11.0401 L12.3262,9.6751 L13.6912,9.6751 C13.8852,9.6751 14.0152,9.5451 14.0152,9.3501 L14.0152,9.3501 L14.0152,7.6601 C14.0152,7.4651 13.8852,7.3351 13.6912,7.3351 L13.6912,7.3351 Z M11.6756,9.675 L11.6756,10.715 L10.6356,10.715 L10.6356,9.675 L11.6756,9.675 Z M13.3656,7.985 L13.3656,9.025 L12.3256,9.025 L12.3256,7.985 L13.3656,7.985 Z" id="Combined-Shape" fill="#273637"></path>
    </g>
</svg>
