<?xml version="1.0" encoding="UTF-8"?>
<svg width="24px" height="24px" viewBox="0 0 24 24" version="1.1" xmlns="http://www.w3.org/2000/svg" xmlns:xlink="http://www.w3.org/1999/xlink">
    <title>Icons/Full Set/VM/VM</title>
    <g id="Icons/Full-Set/VM/VM" stroke="none" stroke-width="1" fill="none" fill-rule="evenodd">
        <path d="M18.4,3 L3.6,3 C2.7,3 2.1,3.7 2.1,4.5 L2.1,14.2 C2.1,15 2.8,15.7 3.6,15.7 L10,15.7 L10,18.4 L7,18.4 C6.4,18.4 6,18.8 6,19.4 C6,20 6.4,20.4 7,20.4 L15,20.4 C15.6,20.4 16,20 16,19.4 C16,18.8 15.6,18.4 15,18.4 L12,18.4 L12,15.7 L18.4,15.7 C19.2,15.7 19.9,15 19.9,14.2 L19.9,4.5 C19.9,3.7 19.3,3 18.4,3 Z M17.9,13.7 L4.1,13.7 L4.1,5 L18,5 L18,13.7 L17.9,13.7 Z" id="Shape" fill="#273637"></path>
    </g>
</svg>
