<?xml version="1.0" encoding="UTF-8"?>
<svg width="24px" height="24px" viewBox="0 0 24 24" version="1.1" xmlns="http://www.w3.org/2000/svg" xmlns:xlink="http://www.w3.org/1999/xlink">
    <title>Icons/Full Set/Snappable/O365/Exchange</title>
    <defs>
        <polygon id="path-1" points="0 0 19.7702222 0 19.7702222 19.9999259 0 19.9999259"></polygon>
    </defs>
    <g id="Icons/Full-Set/Snappable/O365/Exchange" stroke="none" stroke-width="1" fill="none" fill-rule="evenodd">
        <g id="Group-8" transform="translate(2.000000, 2.000000)">
            <path d="M17.0852716,13.665037 L15.2436667,13.665037 C14.9651481,13.665037 14.739327,13.4392346 14.739327,13.160716 C14.739327,12.8821975 14.9651481,12.6563951 15.2436667,12.6563951 L16.5809506,12.6563951 L16.5809506,11.6396049 L14.8684815,9.73330864 C14.6823086,9.5262716 14.6994691,9.20738272 14.9066296,9.02120988 C15.1137901,8.83503704 15.432679,8.85207407 15.6188519,9.05935802 L17.4604568,11.109358 C17.5435432,11.2017037 17.5894691,11.3218272 17.5894691,11.4462716 L17.5894691,13.160716 C17.5894691,13.4392346 17.3636667,13.665037 17.0852716,13.665037" id="Fill-1" fill="#273637"></path>
            <g id="Group-5">
                <mask id="mask-2" fill="white">
                    <use xlink:href="#path-1"></use>
                </mask>
                <g id="Clip-4"></g>
                <path d="M18.2573827,14.6647407 C18.2573827,14.8037531 18.1442963,14.9168395 18.005284,14.9168395 L10.9638025,14.9168395 L10.9638025,13.6649877 L12.4359012,13.6649877 C12.5583704,13.6649877 12.676642,13.6204198 12.7686173,13.539679 L14.8184938,11.7404198 C15.0277531,11.556716 15.0484938,11.2380741 14.8647901,11.0288148 C14.680963,10.8194321 14.3624444,10.7986914 14.1530617,10.9825185 L12.2460247,12.6563457 L10.9638025,12.6563457 L10.9638025,9.90288889 L12.1417037,10.9363457 C12.2414568,11.0499259 12.380716,11.1079506 12.520963,11.1079506 C12.6389877,11.1079506 12.7576296,11.066716 12.8534321,10.982642 C13.0626914,10.7989383 13.0834321,10.4802963 12.8997284,10.271037 L10.9638025,8.37387654 L10.9638025,7.38585185 L12.520716,7.38585185 C12.7992346,7.38585185 13.025037,7.15992593 13.025037,6.88153086 C13.025037,6.60301235 12.7992346,6.37720988 12.520716,6.37720988 L10.9638025,6.37720988 L10.9638025,5.0831358 L18.005284,5.0831358 C18.1442963,5.0831358 18.2573827,5.19622222 18.2573827,5.33523457 L18.2573827,14.6647407 Z M7.44232099,7.73066667 L4.71812346,7.77881481 L4.71812346,9.27362963 L7.26997531,9.27362963 L7.26997531,10.4563457 L4.71812346,10.4563457 L4.71812346,12.2119012 L7.44232099,12.2119012 L7.44232099,13.404 L3.52145679,13.404 L3.52145679,6.59597531 L7.44232099,6.54782716 L7.44232099,7.73066667 Z M18.005284,3.57017284 L10.9638025,3.57017284 L10.9638025,-7.40740741e-05 L-2.4691358e-05,2.57177778 L-2.4691358e-05,17.4281975 L10.9638025,19.9999259 L10.9638025,16.4298025 L18.005284,16.4298025 C18.9784938,16.4298025 19.7702222,15.6379506 19.7702222,14.6647407 L19.7702222,5.33523457 C19.7702222,4.36202469 18.9784938,3.57017284 18.005284,3.57017284 L18.005284,3.57017284 Z" id="Fill-3" fill="#273637" mask="url(#mask-2)"></path>
            </g>
            <path d="M17.0852716,6.37722222 L15.3284815,6.37722222 C15.2079877,6.37722222 15.0915679,6.42030864 15.0002099,6.49858025 L12.9504568,8.25561728 C12.7389753,8.43685185 12.7144074,8.75524691 12.895642,8.96685185 C12.9955185,9.08314815 13.1367531,9.14277778 13.2788519,9.14277778 C13.3949012,9.14277778 13.5116914,9.10302469 13.6067531,9.02141975 L15.5149012,7.38574074 L16.5809506,7.38574074 L16.5809506,8.63858025 C16.5809506,8.91709877 16.8067531,9.14277778 17.0852716,9.14277778 C17.3636667,9.14277778 17.5894691,8.91709877 17.5894691,8.63858025 L17.5894691,6.88141975 C17.5894691,6.60302469 17.3636667,6.37722222 17.0852716,6.37722222" id="Fill-6" fill="#273637"></path>
        </g>
    </g>
</svg>
