<?xml version="1.0" encoding="UTF-8"?>
<svg width="24px" height="24px" viewBox="0 0 24 24" version="1.1" xmlns="http://www.w3.org/2000/svg" xmlns:xlink="http://www.w3.org/1999/xlink">
    <title>Icons/Full Set/Snappable/O365/List Row Item</title>
    <g id="Icons/Full-Set/Snappable/O365/List-Row-Item" stroke="none" stroke-width="1" fill="none" fill-rule="evenodd">
        <path d="M13.9,3 L19.3,4.8 L19.3,19.2 L13.9,21 L4,17.4 L4,6.6 L13.9,3 Z M12.66,5.03 L5.23,7.59 L5.23,16.42 L12.66,19.03 L12.66,5.03 Z M8.19588903,14.1326901 L8.2689,14.1349 L10.7509,14.6539 C11.1389,14.7169 11.4699,15.1399 11.4699,15.5949 C11.4699,16.0499 11.1389,16.3289 10.7509,16.2239 L10.7509,16.2239 L8.2689,15.3589 C8.0439,15.2979 7.8679,14.9859 7.8679,14.6599 C7.8679,14.3339 8.0439,14.0989 8.2689,14.1349 Z M6.40507613,13.7981451 L6.4755,13.7992 C6.7005,13.8312 6.8885,14.1242 6.8885,14.4532 C6.8885,14.7822 6.7005,15.0042 6.4755,14.9512 C6.2585,14.9002 6.0885,14.6102 6.0885,14.3022 C6.0885,13.9942 6.2585,13.7682 6.4755,13.7992 Z M10.7509,11.219 C11.1389,11.198 11.4699,11.549 11.4699,12.004 C11.4699,12.459 11.1389,12.81 10.7509,12.789 L10.7509,12.789 L8.2689,12.616 C8.0439,12.604 7.8679,12.33 7.8679,12.004 C7.8679,11.678 8.0439,11.404 8.2689,11.392 L8.2689,11.392 Z M6.4755,11.4281 C6.7005,11.4171 6.8885,11.6751 6.8885,12.0041 C6.8885,12.3331 6.7005,12.5911 6.4755,12.5801 C6.2585,12.5701 6.0885,12.3121 6.0885,12.0041 C6.0885,11.6961 6.2585,11.4381 6.4755,11.4281 Z M6.4755,9.0741 C6.7005,9.0211 6.8885,9.2431 6.8885,9.5721 C6.8885,9.9011 6.7005,10.1941 6.4755,10.2261 C6.2585,10.2571 6.0885,10.0311 6.0885,9.7231 C6.0885,9.4151 6.2585,9.1251 6.4755,9.0741 Z M10.7509,7.7842 C11.1389,7.6792 11.4699,7.9582 11.4699,8.4132 C11.4699,8.8682 11.1389,9.2912 10.7509,9.3542 L10.7509,9.3542 L8.2689,9.8732 C8.0439,9.9092 7.8679,9.6742 7.8679,9.3482 C7.8679,9.0222 8.0439,8.7102 8.2689,8.6492 L8.2689,8.6492 Z" id="Combined-Shape" fill="#273637"></path>
    </g>
</svg>