<?xml version="1.0" encoding="UTF-8"?>
<svg width="24px" height="24px" viewBox="0 0 24 24" version="1.1" xmlns="http://www.w3.org/2000/svg" xmlns:xlink="http://www.w3.org/1999/xlink">
    <title>Icons/Full Set/Snappable/O365/Share Point</title>
    <g id="Icons/Full-Set/Snappable/O365/Share-Point" stroke="none" stroke-width="1" fill="none" fill-rule="evenodd">
        <path d="M17,16.85 C17.5002933,16.85 17.9704133,16.7555867 18.4113333,16.5677333 C18.8590667,16.3808533 19.2484,16.11708 19.5793333,15.7793333 C19.9102667,15.4493733 20.1730667,15.06296 20.3677333,14.6210667 C20.5555867,14.1801467 20.65,13.7071067 20.65,13.2 C20.65,12.7133333 20.5555867,12.2432133 20.3677333,11.7886667 C20.1730667,11.3409333 19.9102667,10.9516 19.5793333,10.62164 C19.2484,10.2897333 18.8590667,10.0269333 18.4113333,9.83324 C17.9704133,9.64441333 17.5002933,9.55 17,9.55 C16.4997067,9.55 16.0295867,9.64830667 15.5886667,9.842 C15.1477467,10.0366667 14.7613333,10.30044 14.4304,10.6304 C14.0994667,10.9613333 13.8366667,11.3477467 13.642,11.7886667 C13.4473333,12.2432133 13.35,12.7133333 13.35,13.2 L13.35,13.4044 L13.3694667,13.6195067 C13.66828,13.7616133 13.9437333,13.9368133 14.1968,14.1451067 C14.4430533,14.3524267 14.66984,14.5831067 14.8781333,14.8361733 C15.0728,15.09508 15.2411867,15.3734533 15.3842667,15.6722667 C15.5205333,15.97108 15.62468,16.2796267 15.6957333,16.5969333 C16.124,16.7662933 16.55908,16.85 17,16.85 M11.34512,20.690464 C11.75504,20.690464 12.148368,20.609456 12.52608,20.446464 C12.89696,20.29128 13.221968,20.075584 13.50208,19.80328 C13.77536,19.523168 13.993008,19.19816 14.156,18.82728 C14.318992,18.455424 14.4,18.062096 14.4,17.64632 C14.4,17.281296 14.338512,16.932864 14.21456,16.602 C14.09744,16.27016 13.93152,15.973456 13.7168,15.712864 C13.495248,15.446416 13.235632,15.221936 12.936,15.039424 C12.6432,14.856912 12.318192,14.72808 11.96,14.65 L11.96,16.22136 C11.96,16.43608 11.88192,16.627376 11.72576,16.7972 C11.555936,16.95336 11.36464,17.030464 11.14992,17.030464 L8.35856,17.030464 C8.31952,17.232496 8.3,17.437456 8.3,17.64632 C8.3,18.062096 8.381008,18.455424 8.544,18.82728 C8.70016,19.19816 8.91488,19.523168 9.18816,19.80328 C9.468272,20.075584 9.79328,20.29128 10.16416,20.446464 C10.53504,20.609456 10.928368,20.690464 11.34512,20.690464 M7.1,15.2496 C7.4,15.2496 7.7,15.2206 8,15.1596 C8.28,15.1006 8.533,14.9966 8.76,14.8506 C8.987,14.7096 9.17,14.5226 9.31,14.2896 C9.437,14.0506 9.5,13.7566 9.5,13.4096 C9.5,13.0566 9.433,12.7636 9.3,12.5296 C9.153,12.2966 8.97,12.1006 8.75,11.9396 C8.53,11.7866 8.293,11.6606 8.04,11.5606 L7.32,11.2706 C7.106,11.1836 6.923,11.0936 6.77,10.9996 C6.624,10.8996 6.55,10.7736 6.55,10.6206 C6.55,10.5136 6.59,10.4236 6.67,10.3506 C6.75,10.2836 6.843,10.2336 6.95,10.1996 C7.057,10.1536 7.167,10.1236 7.28,10.1096 C7.4,10.1036 7.5,10.1006 7.58,10.1006 C7.907,10.1006 8.2,10.1406 8.46,10.2196 C8.713,10.3066 8.977,10.4336 9.25,10.6006 L9.25,9.1206 C9.083,9.0736 8.937,9.0336 8.81,8.9996 C8.677,8.9666 8.547,8.9396 8.42,8.9196 C8.287,8.8996 8.146,8.8836 8,8.8706 C7.867,8.8636 7.717,8.8596 7.55,8.8596 C7.263,8.8596 6.97,8.8906 6.67,8.9496 C6.37,9.0166 6.097,9.1236 5.85,9.2706 C5.617,9.4236 5.42,9.6096 5.26,9.8306 C5.106,10.0636 5.03,10.3506 5.03,10.6896 C5.03,11.0236 5.104,11.2936 5.25,11.4996 C5.396,11.7336 5.58,11.9306 5.8,12.0896 C6.02,12.2436 6.253,12.3796 6.5,12.4996 L7.22,12.7906 C7.447,12.8836 7.633,12.9796 7.78,13.0796 C7.927,13.1866 8,13.3126 8,13.4596 C8,13.5866 7.963,13.6866 7.89,13.7606 C7.823,13.8336 7.737,13.8866 7.63,13.9206 C7.543,13.9736 7.437,13.9996 7.31,13.9996 L7,13.9996 C6.606,13.9996 6.26,13.9396 5.96,13.8196 C5.653,13.6866 5.347,13.5136 5.04,13.3006 L5.04,14.8596 C5.7,15.1196 6.387,15.2496 7.1,15.2496 M11.3219635,3.4 C10.8067181,3.4 10.3172349,3.49365517 9.85255984,3.68096552 C9.38120568,3.86055172 8.95946775,4.11158621 8.58352941,4.43310345 C8.22667424,4.75558621 7.92516024,5.13503448 7.67707911,5.57241379 C7.43567708,6.02331034 7.27633266,6.50606897 7.2,7.02068966 L11.1311318,7.02068966 C11.3410467,7.02068966 11.5280617,7.1017931 11.6940852,7.26206897 C11.8467505,7.42331034 11.9230832,7.60965517 11.9230832,7.82303448 L11.9230832,11.8 L12.0948316,11.7710345 C12.2026515,11.3722759 12.3619959,10.9928276 12.5719108,10.6317241 C12.7761006,10.2648276 13.0260901,9.93751724 13.3256957,9.64689655 C13.6119432,9.35724138 13.9392195,9.10331034 14.3084787,8.88510345 C14.6519757,8.67172414 15.0240974,8.51144828 15.4248438,8.40234483 C15.4763684,8.12524138 15.5011765,7.86744828 15.5011765,7.62896552 C15.5011765,7.04386207 15.3904941,6.49351724 15.1672211,5.97793103 C14.9506272,5.47006897 14.6519757,5.02593103 14.2703124,4.64648276 C13.894374,4.26606897 13.4554613,3.96386207 12.953574,3.73889655 C12.4450077,3.51296552 11.9011375,3.4 11.3219635,3.4 M22,13.2496 C22,13.9426 21.866,14.5936 21.6,15.1996 C21.34,15.8006 20.983,16.3266 20.53,16.7796 C20.077,17.2326 19.547,17.5936 18.94,17.8596 C18.333,18.1196 17.687,18.2496 17,18.2496 C16.573,18.2496 16.15,18.1966 15.73,18.0906 C15.67,18.6436 15.517,19.1566 15.27,19.6306 C15.017,20.1096 14.693,20.5266 14.3,20.8806 C13.913,21.2326 13.47,21.5066 12.97,21.6996 C12.463,21.8996 11.933,21.9996 11.38,21.9996 C10.773,21.9996 10.203,21.8836 9.67,21.6496 C9.144,21.4236 8.68,21.1126 8.28,20.7206 C7.887,20.3266 7.577,19.8626 7.35,19.3296 C7.117,18.7966 7,18.2296 7,17.6306 L7,17.3106 C7.02,17.2096 7.037,17.1066 7.05,16.9996 L2.83,16.9996 C2.61,16.9996 2.414,16.9206 2.24,16.7606 C2.08,16.5866 2,16.3906 2,16.1706 L2,7.8306 C2,7.6096 2.08,7.4136 2.24,7.2396 C2.414,7.0806 2.61,6.9996 2.83,6.9996 L5.78,6.9996 C5.86,6.2936 6.063,5.6266 6.39,4.9996 C6.71,4.4066 7.124,3.8866 7.63,3.4396 C8.13,2.9866 8.7,2.6336 9.34,2.3796 C9.98,2.1266 10.66,1.9996 11.38,1.9996 C12.153,1.9996 12.88,2.1466 13.56,2.4396 C14.247,2.7396 14.844,3.1436 15.35,3.6496 C15.856,4.1566 16.26,4.7536 16.56,5.4396 C16.854,6.1206 17,6.8506 17,7.6296 L17,7.9396 C17,8.0406 16.986,8.1436 16.96,8.2496 C17.653,8.2496 18.304,8.3796 18.91,8.6406 C19.523,8.8996 20.054,9.2566 20.5,9.7096 C20.974,10.1566 21.34,10.6836 21.6,11.2906 C21.866,11.9036 22,12.5566 22,13.2496" id="Fill-1" fill="#273637"></path>
    </g>
</svg>
