<?xml version="1.0" encoding="UTF-8"?>
<svg width="24px" height="24px" viewBox="0 0 24 24" version="1.1" xmlns="http://www.w3.org/2000/svg" xmlns:xlink="http://www.w3.org/1999/xlink">
    <title>Icons/Full Set/Snappable/O365/Teams</title>
    <defs>
        <polygon id="path-1" points="2.4691358e-05 0 20 0 20 19.9999506 2.4691358e-05 19.9999506"></polygon>
    </defs>
    <g id="Icons/Full-Set/Snappable/O365/Teams" stroke="none" stroke-width="1" fill="none" fill-rule="evenodd">
        <g id="Group-6" transform="translate(2.000000, 2.000000)">
            <path d="M16.7241235,3.44823457 C16.2486914,3.44823457 15.8620247,3.83502469 15.8620247,4.31033333 C15.8620247,4.78576543 16.2486914,5.1724321 16.7241235,5.1724321 C17.1995556,5.1724321 17.5862222,4.78576543 17.5862222,4.31033333 C17.5862222,3.83502469 17.1995556,3.44823457 16.7241235,3.44823457 M16.7241235,6.55181481 C15.4881975,6.55181481 14.4827654,5.5461358 14.4827654,4.31033333 C14.4827654,3.07453086 15.4881975,2.06897531 16.7241235,2.06897531 C17.9600494,2.06897531 18.9654815,3.07453086 18.9654815,4.31033333 C18.9654815,5.5461358 17.9600494,6.55181481 16.7241235,6.55181481" id="Fill-1" fill="#273637"></path>
            <g id="Group-5">
                <mask id="mask-2" fill="white">
                    <use xlink:href="#path-1"></use>
                </mask>
                <g id="Clip-4"></g>
                <path d="M18.6210123,13.1036543 C18.6210123,14.4345185 17.5382963,15.517358 16.2074321,15.517358 C16.0691605,15.517358 15.9321235,15.5061235 15.7975556,15.4827901 C15.8395309,15.2136543 15.8617531,14.9371111 15.8617531,14.6555062 L15.8617531,8.85069136 C15.8617531,8.77279012 15.8543457,8.69637037 15.8432346,8.62093827 L18.3913827,8.62093827 C18.5173086,8.62093827 18.6210123,8.72353086 18.6210123,8.85069136 L18.6210123,13.1036543 Z M14.4827407,14.6555062 C14.4827407,16.8419259 12.7037284,18.6209383 10.5173086,18.6209383 C8.4637284,18.6209383 6.76977778,17.0515556 6.57150617,15.0492099 L9.01237037,15.0492099 C9.55780247,15.0492099 10.0000247,14.6069877 10.0000247,14.0615556 L10.0000247,8.62093827 L14.2531111,8.62093827 C14.3802716,8.62093827 14.4827407,8.72353086 14.4827407,8.85069136 L14.4827407,14.6555062 Z M4.41619753,8.72353086 L4.41619753,8.59785185 L2.72496296,8.59785185 L2.72496296,7.36328395 L7.27508642,7.36328395 L7.27508642,8.59785185 L5.65076543,8.59785185 C5.65076543,9.58982716 5.65088889,11.553037 5.65101235,12.7351358 L4.41644444,12.7351358 L4.41619753,8.72353086 Z M10.5171852,1.37933333 C11.5629877,1.37933333 12.4138519,2.23019753 12.4138519,3.27587654 C12.4138519,4.32155556 11.5629877,5.17241975 10.5171852,5.17241975 C9.47150617,5.17241975 8.62076543,4.32155556 8.62076543,3.27587654 C8.62076543,2.23019753 9.47150617,1.37933333 10.5171852,1.37933333 L10.5171852,1.37933333 Z M18.3913827,7.24204938 L10.0000247,7.24204938 L10.0000247,6.5105679 C10.1685432,6.53735802 10.3412593,6.55180247 10.5171852,6.55180247 C12.3236049,6.55180247 13.7931111,5.08217284 13.7931111,3.27587654 C13.7931111,1.46958025 12.3236049,-4.93827161e-05 10.5171852,-4.93827161e-05 C8.71101235,-4.93827161e-05 7.24138272,1.46958025 7.24138272,3.27587654 C7.24138272,3.92908642 7.43434568,4.53760494 7.76508642,5.04920988 L0.987679012,5.04920988 C0.442123457,5.04920988 2.4691358e-05,5.4914321 2.4691358e-05,6.0368642 L2.4691358e-05,14.0615556 C2.4691358e-05,14.6069877 0.442123457,15.0492099 0.987679012,15.0492099 L5.18891358,15.0492099 C5.39125926,17.8127901 7.7028642,19.9999506 10.5173086,19.9999506 C12.6975556,19.9999506 14.5753333,18.6876049 15.4061975,16.8122963 C15.6679259,16.8678519 15.9358272,16.8963704 16.2074321,16.8963704 C18.2987901,16.8963704 20.0000247,15.1950123 20.0000247,13.1036543 L20.0000247,8.85069136 C20.0000247,7.96291358 19.2778025,7.24204938 18.3913827,7.24204938 L18.3913827,7.24204938 Z" id="Fill-3" fill="#273637" mask="url(#mask-2)"></path>
            </g>
        </g>
    </g>
</svg>
