<?xml version="1.0" encoding="UTF-8"?>
<svg width="24px" height="24px" viewBox="0 0 24 24" version="1.1" xmlns="http://www.w3.org/2000/svg" xmlns:xlink="http://www.w3.org/1999/xlink">
    <title>Icons/Full Set/Path/Path Status</title>
    <g id="Icons/Full-Set/Path/Path-Status" stroke="none" stroke-width="1" fill="none" fill-rule="evenodd">
        <path d="M17.7,2 C18.4,2 18.9,2.5 18.9,3.2 L18.9,3.2 L18.9,8.7 C18.9,9.4 18.4,9.9 17.7,9.9 L17.7,9.9 L12.2,9.9 C11.5,9.9 10.9,9.3 10.9,8.6 L10.9,8.6 L10.9,6.9 L6.9,6.9 L6.9,10.9 L8.6,10.9 C9.3,10.9 9.9,11.5 9.9,12.2 L9.9,12.2 L9.9,17.6 C9.9,18.3 9.3,18.9 8.6,18.9 L8.6,18.9 L3.2,18.9 C2.5,18.9 2,18.4 2,17.7 L2,17.7 L2,12.3 C2,11.6 2.6,11 3.3,11 L3.3,11 L5,11 L5,6.2 C5,5.6 5.5,5 6.2,5 L6.2,5 L11,5 L11,3.3 C11,2.6 11.6,2 12.3,2 L12.3,2 Z M8,12.9 L4,12.9 L4,16.9 L8,16.9 L8,12.9 Z M16.9,4 L12.9,4 L12.9,8 L16.9,8 L16.9,4 Z" id="Combined-Shape" fill="#273637"></path>
    </g>
</svg>
