<svg width="24" height="24" viewBox="0 0 24 24" fill="none" xmlns="http://www.w3.org/2000/svg">
<path d="M12 3C10.22 3 8.47991 3.52784 6.99987 4.51677C5.51983 5.50571 4.36628 6.91131 3.68509 8.55585C3.0039 10.2004 2.82567 12.01 3.17294 13.7558C3.5202 15.5016 4.37737 17.1053 5.63604 18.364C6.89472 19.6226 8.49836 20.4798 10.2442 20.8271C11.99 21.1743 13.7996 20.9961 15.4442 20.3149C17.0887 19.6337 18.4943 18.4802 19.4832 17.0001C20.4722 15.5201 21 13.78 21 12C21 9.61305 20.0518 7.32387 18.364 5.63604C16.6761 3.94821 14.387 3 12 3ZM16 11.43L14.17 12.87C14.1156 12.9129 14.0752 12.9709 14.0539 13.0368C14.0325 13.1027 14.0312 13.1734 14.05 13.24L14.68 15.48C14.6974 15.5483 14.6939 15.6202 14.6698 15.6864C14.6456 15.7526 14.6021 15.81 14.5448 15.8511C14.4876 15.8921 14.4192 15.915 14.3488 15.9166C14.2784 15.9181 14.2091 15.8984 14.15 15.86L12.2 14.57C12.1423 14.5313 12.0745 14.5106 12.005 14.5106C11.9356 14.5106 11.8677 14.5313 11.81 14.57L9.87 15.86C9.81187 15.9009 9.74238 15.9225 9.67131 15.9219C9.60024 15.9213 9.53115 15.8984 9.47376 15.8564C9.41637 15.8145 9.37357 15.7556 9.35138 15.6881C9.32918 15.6206 9.3287 15.5478 9.35 15.48L10 13.24C10.0163 13.1733 10.0137 13.1033 9.99255 13.038C9.97135 12.9726 9.93238 12.9145 9.88 12.87L8 11.43C7.94563 11.3854 7.90594 11.3255 7.88611 11.2581C7.86627 11.1906 7.8672 11.1188 7.88878 11.0519C7.91037 10.985 7.9516 10.9261 8.00711 10.883C8.06262 10.8398 8.12984 10.8144 8.2 10.81L10.53 10.72C10.5982 10.715 10.6635 10.6908 10.7184 10.6501C10.7733 10.6093 10.8155 10.5538 10.84 10.49L11.65 8.31C11.6714 8.24048 11.7145 8.17964 11.773 8.13642C11.8315 8.0932 11.9023 8.06987 11.975 8.06987C12.0477 8.06987 12.1186 8.0932 12.177 8.13642C12.2355 8.17964 12.2786 8.24048 12.3 8.31L13.11 10.49C13.1345 10.5538 13.1767 10.6093 13.2316 10.6501C13.2865 10.6908 13.3518 10.715 13.42 10.72L15.74 10.81C15.8153 10.8013 15.8914 10.8173 15.9569 10.8556C16.0223 10.8939 16.0736 10.9524 16.1029 11.0223C16.1322 11.0923 16.138 11.1698 16.1195 11.2433C16.1009 11.3169 16.059 11.3824 16 11.43Z" fill="#273637"/>
</svg>
