<svg width="24" height="24" viewBox="0 0 24 24" fill="none" xmlns="http://www.w3.org/2000/svg">
<path d="M10.2719 5.99134C10.5854 5.03639 11.0211 4.12614 11.568 3.28327C11.6084 3.19875 11.6718 3.12728 11.7509 3.07726C11.83 3.02712 11.9216 3.00034 12.0151 3C12.1087 2.99966 12.2005 3.02575 12.2799 3.07522C12.3594 3.12479 12.4233 3.19569 12.4643 3.27986C12.6532 3.65651 19.4769 17.3264 20.7321 19.841L20.9294 20.2361C20.9695 20.3165 20.9886 20.4059 20.9845 20.4958C20.9804 20.5857 20.9535 20.6731 20.9063 20.7495C20.8591 20.8261 20.7931 20.8892 20.7147 20.9331C20.6362 20.9769 20.548 20.9998 20.4581 20.9999H14.3203C14.2715 20.9999 14.223 20.9931 14.1762 20.9797C14.1294 20.9664 14.0846 20.9467 14.0432 20.921C14.0018 20.8954 13.9642 20.8641 13.9313 20.8281C13.8985 20.7921 13.8707 20.7517 13.8489 20.7081L10.8893 14.7797C10.4453 13.878 10.1197 12.9226 9.92076 11.9374C9.72179 10.952 9.65111 9.94501 9.71033 8.94151C9.76955 7.938 9.95831 6.94641 10.2719 5.99134Z" fill="#273637"/>
<path d="M8.12966 11.1533C8.21055 11.188 8.28111 11.243 8.33454 11.313C10.6588 13.8003 11.4614 17.9675 10.1372 20.7081C10.1164 20.7524 10.0893 20.7934 10.0566 20.8301C10.024 20.8666 9.98636 20.8982 9.94473 20.924C9.90321 20.9497 9.85806 20.9694 9.81087 20.9822C9.76368 20.995 9.71478 21.001 9.66589 20.9999H3.52689C3.43715 20.9998 3.34878 20.9769 3.27028 20.9331C3.19189 20.8892 3.12587 20.8261 3.07868 20.7495C3.03149 20.6731 3.0046 20.5857 3.00052 20.4958C2.99655 20.4059 3.01549 20.3165 3.05565 20.2361L7.46444 11.4077C7.50154 11.3279 7.55871 11.2589 7.63029 11.2076C7.70176 11.1563 7.78537 11.1243 7.87283 11.1148C7.9603 11.1053 8.04878 11.1186 8.12966 11.1533Z" fill="#273637"/>
</svg>
