<?xml version="1.0" encoding="UTF-8"?>
<svg width="24px" height="24px" viewBox="0 0 24 24" version="1.1" xmlns="http://www.w3.org/2000/svg" xmlns:xlink="http://www.w3.org/1999/xlink">
    <title>Icons/Large Set/AWS Thin Version</title>
    <g id="Icons/Large-Set/AWS-Thin-Version" stroke="none" stroke-width="1" fill="none" fill-rule="evenodd">
        <path d="M2.61765,14.37235 C3.29765,14.71835 3.97565,15.06985 4.67915,15.36735 C5.52065,15.72285 6.38515,16.02285 7.26665,16.26385 C8.91465,16.71335 10.62115,16.95435 12.32965,16.95435 C12.99715,16.95435 13.66415,16.91635 14.31215,16.84185 C15.23365,16.73235 16.14165,16.53135 17.03315,16.27835 C17.46715,16.15535 17.89815,16.02035 18.32615,15.87685 C18.53765,15.80635 18.73465,15.69935 18.94065,15.61335 C19.02565,15.57785 19.53515,15.37285 19.52215,15.54435 C19.50915,15.70885 19.25515,15.82485 19.15065,15.92185 C18.70565,16.33435 18.13665,16.61035 17.58715,16.87685 C17.44765,16.94435 17.31065,17.01085 17.17615,17.07935 C16.48965,17.42785 15.77365,17.70935 15.04815,17.91685 C13.94515,18.24135 12.79915,18.40585 11.64065,18.40585 C11.28865,18.40585 10.93215,18.39035 10.58165,18.35935 C8.56865,18.18535 6.62015,17.50135 4.94765,16.38235 C4.77915,16.27185 4.61315,16.16685 4.44615,16.06235 L4.19265,15.90085 C3.88715,15.69935 3.57815,15.47885 3.27865,15.25335 C3.09515,15.11285 2.90515,14.97985 2.73065,14.82935 C2.58865,14.70685 2.42415,14.60735 2.33565,14.43635 C2.32415,14.41585 2.31465,14.39285 2.31557763,14.36935 C2.32215,14.24735 2.56315,14.34435 2.61765,14.37235 Z M20.1101,13.3179 C20.5066,13.3179 20.8701,13.3689 21.1891,13.4699 C21.6911,13.6289 22.0306,14.1404 21.9976,14.6849 C21.9761,15.0449 21.8751,15.4379 21.6791,15.9219 C21.5046,16.3599 21.2936,16.7594 21.0526,17.1084 L20.9856,17.2079 C20.8501,17.4099 20.7106,17.6044 20.4971,17.7299 C20.4566,17.7539 20.4096,17.7709 20.3631,17.7654 L20.3291,17.7589 L20.3291,17.7589 C20.0986,17.6939 20.3356,17.3024 20.4041,17.1969 C20.4276,17.1609 20.4501,17.1264 20.4671,17.0969 C20.5496,16.9469 20.6266,16.7829 20.6976,16.6194 C20.7916,16.4009 20.9091,16.1079 20.9831,15.7894 C21.1016,15.2609 21.0521,14.8624 20.8326,14.5724 C20.6226,14.2874 20.2661,14.1254 19.7411,14.0784 C19.6221,14.0669 19.5011,14.0619 19.3806,14.0619 C18.9031,14.0619 18.4176,14.1329 17.9541,14.2399 C17.8796,14.2569 17.7986,14.2664 17.7276,14.2384 C17.5971,14.1874 17.6036,14.0439 17.6796,13.9499 C17.7716,13.8364 17.9231,13.7699 18.0521,13.7114 C18.2271,13.6334 18.4071,13.5839 18.5816,13.5364 C19.1026,13.3934 19.6311,13.3179 20.1101,13.3179 Z M4.63915,6.011 C5.33765,6.011 5.85465,6.1655 6.19065,6.475 C6.52765,6.785 6.69565,7.2825 6.69565,7.966 L6.69565,11.9615 L6.03915,11.9615 L5.86265,11.128 L5.81965,11.128 C5.52765,11.495 5.23615,11.7435 4.94615,11.8735 C4.65565,12.003 4.29365,12.0685 3.85865,12.0685 C3.27815,12.0685 2.82365,11.9185 2.49415,11.6195 C2.16515,11.3205 2.00015,10.8945 2.00015,10.343 C2.00015,9.16 2.94515,8.5405 4.83665,8.484 L5.83015,8.4515 L5.83015,8.0885 C5.83015,7.6295 5.73165,7.2895 5.53365,7.071 C5.33615,6.8515 5.02015,6.7425 4.58565,6.7425 C4.09765,6.7425 3.54615,6.892 2.92965,7.191 L2.65665,6.513 C2.94515,6.356 3.26165,6.233 3.60565,6.144 C3.94915,6.055 4.29365,6.011 4.63915,6.011 Z M19.71355,5.99985 C20.34355,5.99985 20.96005,6.12835 21.56155,6.38435 L21.24605,7.10535 C20.65855,6.86335 20.12655,6.74235 19.64955,6.74235 C19.22855,6.74235 18.91205,6.80885 18.69805,6.93985 C18.48455,7.07185 18.37755,7.25335 18.37755,7.48485 C18.37755,7.64185 18.41805,7.77485 18.49755,7.88535 C18.57805,7.99635 18.70705,8.10085 18.88505,8.20085 C19.06305,8.30035 19.40455,8.44435 19.91105,8.63335 C20.60555,8.88635 21.07405,9.14135 21.31855,9.39685 C21.56205,9.65385 21.68455,9.97635 21.68455,10.36435 C21.68455,10.90885 21.48155,11.32985 21.07555,11.62485 C20.66955,11.92085 20.09955,12.06835 19.36605,12.06835 C18.58955,12.06835 17.98455,11.94585 17.54905,11.69985 L17.54905,10.87685 C17.83105,11.01985 18.13255,11.13135 18.45505,11.21335 C18.77755,11.29535 19.08805,11.33635 19.38755,11.33635 C19.85005,11.33635 20.20605,11.26235 20.45555,11.11485 C20.70505,10.96685 20.82955,10.74185 20.82955,10.43885 C20.82955,10.21085 20.73105,10.01635 20.53305,9.85385 C20.33555,9.69185 19.94955,9.50035 19.37655,9.27935 C18.83155,9.07685 18.44455,8.89985 18.21455,8.74885 C17.98555,8.59685 17.81405,8.42535 17.70205,8.23235 C17.59005,8.04035 17.53355,7.81085 17.53355,7.54385 C17.53355,7.06635 17.72755,6.68985 18.11555,6.41435 C18.50405,6.13785 19.03605,5.99985 19.71355,5.99985 Z M9.0727,6.107 C9.4497,7.577 9.7372,8.698 9.9352,9.467 C10.1327,10.236 10.2457,10.754 10.2742,11.0215 L10.3167,11.0215 C10.3557,10.8185 10.4192,10.5555 10.5062,10.2335 C10.5937,9.911 10.6692,9.6555 10.7332,9.467 L11.8077,6.107 L12.7692,6.107 L13.8157,9.467 C14.0157,10.0795 14.1507,10.594 14.2222,11.011 L14.2652,11.011 C14.2787,10.8825 14.3167,10.685 14.3797,10.4175 C14.4417,10.1505 14.8132,8.7135 15.4932,6.107 L16.4122,6.107 L14.7932,11.9615 L13.7412,11.9615 L12.6677,8.5265 C12.6002,8.317 12.4732,7.839 12.2887,7.095 L12.2457,7.095 C12.1032,7.7185 11.9787,8.1995 11.8717,8.537 L10.7662,11.9615 L9.7402,11.9615 L8.1427,6.107 L9.0727,6.107 Z M5.80865,9.082 L4.92215,9.1195 C4.21665,9.1445 3.70915,9.254 3.39715,9.4485 C3.08565,9.642 2.92965,9.944 2.92965,10.3535 C2.92965,10.6745 3.02615,10.918 3.22115,11.085 C3.41465,11.2525 3.68665,11.3365 4.03565,11.3365 C4.58765,11.3365 5.02115,11.185 5.33615,10.8825 C5.65115,10.5795 5.80865,10.156 5.80865,9.611 L5.80865,9.082 Z" id="Combined-Shape" fill="#273637"></path>
    </g>
</svg>