<?xml version="1.0" encoding="UTF-8"?>
<svg width="24px" height="24px" viewBox="0 0 24 24" version="1.1" xmlns="http://www.w3.org/2000/svg" xmlns:xlink="http://www.w3.org/1999/xlink">
    <title>Icons/Full Set/Snappable/Cassandra</title>
    <g id="Icons/Full-Set/Snappable/Cassandra" stroke="none" stroke-width="1" fill="none" fill-rule="evenodd">
        <path d="M5.72732253,13.2179961 C6.87143029,13.2179961 8.9683104,14.3253907 10.9665942,14.3253907 L10.9665942,14.3253907 L11.1461864,14.3244112 C13.1569236,14.3021868 16.3042325,13.8797787 18.036243,10.8474481 C18.1289821,10.68566 18.206102,10.5751215 18.4257473,10.5881851 C18.7000598,10.6032586 19.7904765,11.3649692 20.4006022,12.8883904 C20.4679601,13.0552031 20.5724137,13.2300548 20.4347693,13.3395884 C20.4006022,13.3669718 20.365215,13.3828617 20.3287294,13.3884828 L20.2731927,13.3893661 C20.1793096,13.3785124 20.078944,13.3073062 19.9740023,13.1948835 C19.781105,12.9874731 18.9521931,12.3356578 18.3549454,12.3363653 L18.2458881,12.3444125 C18.1399693,12.360642 18.0441014,12.4022221 17.9640041,12.4763834 C17.5374042,12.8713072 17.5823095,12.8331212 17.4114743,13.0140023 C17.2982349,13.13258 17.201591,13.4611807 17.3880454,13.948555 C17.5813333,14.4520075 17.8751698,15.0820768 18.0518622,16.0718987 L18.0518622,16.0718987 L18.0547908,16.0869721 C18.1075057,16.3844211 18.19634,16.8828492 17.9981712,16.9471625 L17.9981712,16.9471625 L17.9455778,16.9484023 C17.7449012,16.901014 17.4654094,16.3095564 17.3499736,16.0718987 C16.9984482,15.3472735 16.0843476,14.3429638 15.3603216,14.3651431 L15.247691,14.3773659 L15.247691,14.3773659 L15.138878,14.4077921 L14.6048959,14.6037467 C14.3227738,14.6941872 14.2847019,14.9604845 14.3227738,15.2750167 C14.3930603,15.8618756 14.3989175,17.0647352 14.2690827,17.6345108 C14.2417491,17.7550983 14.1958676,18.0153661 14.0025798,17.9992878 C13.8083158,17.9822046 13.809292,17.8093626 13.7966014,17.6345108 C13.7165529,16.586405 13.3006912,14.9604845 12.2327271,15.0509251 L12.2327271,15.0509251 L11.2828834,15.090116 C11.0847145,15.090116 10.5917329,15.3473692 10.2998488,15.7814839 C10.0060122,16.2145938 9.73853312,16.7703009 9.65848462,16.9552016 C9.60088875,17.0878478 9.54622149,17.4275024 9.33829064,17.4224779 C9.13133599,17.4164485 9.09033554,17.2144646 9.09033554,17.0215247 L9.09033554,17.0215247 L9.09033554,15.1845761 C9.09033554,14.9062201 8.61785418,14.8519558 7.87789369,14.6700698 C7.70242153,14.6268593 7.54488707,14.609462 7.39947886,14.6125081 L7.25789749,14.6221698 C6.88997811,14.6650453 6.59451456,14.840567 6.26130456,15.0469055 C5.952825,15.2388405 5.68925068,15.4277608 5.32317524,15.6006028 C5.27448721,15.6235898 5.21083584,15.6470007 5.14648093,15.6592302 L5.08241963,15.6673027 C4.99810026,15.6719503 4.92098036,15.6498427 4.88486092,15.5734706 C4.81164583,15.4197216 4.96686182,15.2810461 5.06741054,15.1845761 C5.2851034,14.9765628 5.82494264,14.3304152 5.72732253,14.1676221 C5.70069886,14.123224 5.63726192,14.0996796 5.55111125,14.0898337 L5.45791154,14.084289 L5.45791154,14.084289 L5.35270258,14.0862868 C5.13236422,14.0967645 4.85876973,14.1429565 4.64471543,14.1676221 C4.46376957,14.1884378 4.18346038,14.1987431 3.88601253,14.201834 L3.70614497,14.2028491 L3.70614497,14.2028491 L3.52611092,14.202291 C3.10890695,14.1992763 2.72257534,14.1847053 2.59274058,14.1676221 C2.28816582,14.1284312 1.92209038,13.948555 2.0206867,13.689292 C2.09813199,13.487643 2.34151943,13.4665402 2.49225748,13.4671191 L2.55043318,13.4682316 L2.55043318,13.4682316 L2.59274058,13.4692199 C2.6913369,13.4692199 3.17260408,13.4963521 3.46253582,13.4963521 L3.46253582,13.4963521 L3.66927541,13.4916642 C4.44691628,13.4551752 4.67122305,13.2179961 5.72732253,13.2179961 Z M13.7783464,6.01621311 C14.0321587,6.08655578 13.9443006,6.51866075 13.8857285,6.75983562 L13.8857285,6.77892863 C13.8662045,6.8703741 13.8369185,6.94976083 13.8076324,7.0412063 C13.7588224,7.16078883 13.7100123,7.28137627 13.7490604,7.35272383 C13.7588224,7.38287069 13.7978704,7.39291964 13.8466805,7.41201265 C14.8521677,7.64414346 15.6917007,7.24118046 16.3555175,6.24733903 C16.4140895,6.1468495 16.5605197,5.96596835 16.7459979,6.01621311 C16.824094,6.03631102 16.8729041,6.08655578 16.9021901,6.15589356 C17.0095723,6.45836704 16.6386158,7.14169582 16.3555175,7.62404556 L16.3164694,7.68433927 C16.2578974,7.7838239 16.2481353,7.85517147 16.2676594,7.91446029 C16.2774214,7.96570995 16.3359935,8.00590576 16.4140895,8.03504772 C16.7459979,8.16568411 17.7710092,7.52355603 18.6593522,6.47846494 C18.6788763,6.45836704 18.6984003,6.42822018 18.7179243,6.39807332 C18.8253064,6.25738798 18.9522126,6.06545298 19.1279288,6.12675159 C19.1865009,6.1468495 19.2255489,6.19608937 19.2450729,6.26743693 C19.3817411,6.71963981 18.6593522,8.11644424 18.5617321,8.25712958 C18.464112,8.39781492 18.45435,8.47820654 18.464112,8.5083534 C18.473874,8.51840235 18.5226841,8.56864711 18.7569723,8.5083534 C19.1279288,8.40786387 20.4262763,7.93556309 21.4415255,7.02110839 C21.4512876,7.02110839 21.4610496,7.01105944 21.4610496,7.00101048 C21.5391457,6.93066781 21.6953379,6.76988457 21.8808161,6.90052096 C22.0760563,7.0412063 21.9881982,7.22208744 21.9198641,7.34267488 C21.9198641,7.36277278 21.9101021,7.37282174 21.9003401,7.39291964 C21.4903356,8.28627154 20.4165143,10.2669201 18.9912606,10.2669201 C18.8936405,10.2669201 18.7862584,10.2558663 18.6788763,10.2367733 C18.2981578,10.1563816 18.0248215,9.98554945 17.673389,9.76447249 C17.1985485,9.45830243 16.5898283,9.06599807 15.3984759,8.76711867 L15.3987427,8.76992764 C15.5842209,9.3527669 15.603745,10.0561936 15.4377908,10.7184196 C15.3011226,11.2721169 14.9887382,12.0549303 14.2273013,12.6880143 C13.5146745,13.2919564 12.5677593,13.6326159 11.435366,13.7039634 L11.1132196,13.7039634 C9.01438709,13.7039634 7.98937587,12.4478443 7.55984735,11.6730701 C7.25722499,11.1304266 7.07174677,10.5184454 7.02293671,9.91450336 C7.00888278,9.752762 6.99968473,9.62759378 6.99907097,9.52172766 C5.89277388,10.1211481 4.54152633,11.0067341 2.91322743,12.3058526 C2.65941512,12.5078366 2.46417489,12.5882282 2.32750673,12.5882282 C2.20060058,12.5882282 2.11274247,12.5279345 2.06393241,12.4575918 C1.84916816,12.1963191 2.22988661,11.7943609 2.40560282,11.6335777 C3.2256118,10.8799062 4.18228894,10.0558921 5.2365862,9.33136263 C6.29088346,8.62894083 7.44280083,8.02600367 8.63376626,7.73458404 C9.74663559,7.46326231 9.80520766,7.33262593 10.098068,6.60910133 L10.1517591,6.46841599 C10.1908071,6.3588824 10.2835462,6.22724112 10.4592624,6.22724112 L10.4787865,6.22724112 C10.6837887,6.23628518 10.7521228,6.45836704 10.8302189,6.69853701 C10.908315,6.97086363 10.9961731,7.2522343 11.2597474,7.27233221 C11.4696306,7.29343501 11.5652984,7.2954448 11.6736567,7.29243011 L11.75761,7.29243011 C11.9596836,7.27032242 12.7240491,7.29243011 13.3781039,6.24733903 L13.3976279,6.21719217 C13.4562,6.12675159 13.5538201,5.94486555 13.7783464,6.01621311 Z M12.9029224,11.1852935 L12.8834079,11.2419009 C12.6907607,11.7107788 12.2397557,12.0397564 11.7140714,12.0397564 C11.4275377,12.0397564 11.1631912,11.9420174 10.9507765,11.7771585 C10.623006,12.12348 10.4285343,12.4378714 10.3598559,12.7214991 C10.5913553,12.7714692 10.844953,12.7985528 11.1229816,12.7985528 C11.2010777,12.7985528 11.2889358,12.7895087 11.3767939,12.7895087 C12.313947,12.7282101 13.0656219,12.4669374 13.6220566,11.9956415 C13.7434671,11.8923978 13.8556007,11.7796046 13.9574928,11.658235 C13.6087952,11.3716113 13.2335784,11.2491191 12.9029224,11.1852935 Z M9.53181409,10.6469721 L9.52729539,10.705111 C9.49515032,11.2465224 9.60745065,11.8286222 9.91782744,12.353141 C10.0620854,11.9666877 10.3470195,11.6406306 10.6103585,11.3759643 C10.567225,11.3003339 10.5324105,11.2191293 10.5058266,11.1341224 C10.1612435,11.0657784 9.82901514,10.899812 9.53181409,10.6469721 Z M8.52939387,8.80234939 C8.34977315,8.8730038 8.16577824,8.95033827 7.97227033,9.03771163 C7.93985525,9.29086436 7.92885414,9.59151079 7.95032782,9.83411173 C7.98937587,10.3174664 8.14556805,10.809865 8.37985633,11.24197 C8.56184159,11.5659216 8.82455505,11.9170887 9.20286753,12.2037483 C8.89870988,11.5270628 8.82866181,10.781025 9.02771664,10.0663755 C8.77375364,9.68492499 8.59816208,9.24230086 8.52939387,8.80234939 Z M14.3215692,8.74833981 L14.3167015,8.7871137 C14.2176762,9.52641273 13.8508106,10.3709329 13.1868374,10.7271578 C13.550547,10.8184306 13.9157373,10.958517 14.2518423,11.2306579 C14.3785318,11.009953 14.4758212,10.7664139 14.5396857,10.5073916 C14.6665918,10.0049439 14.6568298,9.47335433 14.5201617,9.05129831 C14.4837692,8.94667178 14.4106904,8.84354157 14.3215692,8.74833981 Z M11.3983967,8.32471631 L11.2321593,8.3720581 C10.5099654,8.60434289 9.96191363,9.13448778 9.68806352,9.90455489 L9.6640781,9.97595467 C9.72155906,10.0429651 9.78175347,10.1065345 9.8442557,10.1658277 C9.9984369,10.3123321 10.2066522,10.47404 10.4557722,10.567156 C10.5355746,9.92315083 11.068512,9.42702866 11.7140714,9.42702866 C12.2496123,9.42702866 12.7076471,9.76845857 12.8939706,10.2514048 C13.3974329,9.92703343 13.753595,9.12390379 13.8168812,8.48268324 C13.1407777,8.40070019 12.3444177,8.34402416 11.3983967,8.32471631 Z M10.3298242,8.333316 L10.2587597,8.34121884 C9.9316504,8.37765241 9.5214093,8.4611302 9.0189476,8.62632672 C9.05759751,8.88493793 9.15287836,9.15897272 9.28842533,9.41853779 C9.53674919,8.96218284 9.89304507,8.59441453 10.3298242,8.333316 Z" id="Combined-Shape" fill="#273637"></path>
    </g>
</svg>