<?xml version="1.0" encoding="UTF-8"?>
<svg width="24px" height="24px" viewBox="0 0 24 24" version="1.1" xmlns="http://www.w3.org/2000/svg" xmlns:xlink="http://www.w3.org/1999/xlink">
    <title>Icons/Full Set/Snappable/Google Cloud</title>
    <g id="Icons/Full-Set/Snappable/Google-Cloud" stroke="none" stroke-width="1" fill="none" fill-rule="evenodd">
        <path d="M6.1414,15.9799 C6.6554,16.5099 7.2594,16.7849 7.9064,16.7849 L16.0944,16.7849 C16.7314,16.7849 17.3394,16.5119 17.7654,16.0389 L17.8864,15.9649 L17.8864,15.9249 L17.9744,15.7759 C18.2354,15.3679 18.3564,14.9459 18.3564,14.5229 C18.3564,13.4109 17.5284,12.4489 16.4284,12.2859 L16.3304,12.2709 L16.2484,12.1599 C16.2934,11.8549 16.3094,11.6509 16.3094,11.4509 C16.3094,10.7069 16.1164,9.9719 15.7484,9.3289 C14.9794,7.9789 13.5424,7.1419 11.9994,7.1419 C10.4574,7.1419 9.0214,7.9789 8.2514,9.3289 L8.0874,9.6139 L8.4164,9.6469 C9.4564,9.7469 10.4574,10.2009 11.2344,10.9229 L11.3034,10.9879 L11.3104,11.1249 L9.6144,13.0329 L9.4664,12.8919 C9.0854,12.5249 8.5824,12.3049 8.0514,12.2709 C8.0124,12.2629 7.9684,12.2599 7.9064,12.2599 C6.6584,12.2599 5.6444,13.2759 5.6444,14.5229 C5.6444,14.9549 5.7654,15.3689 5.9954,15.7219 C6.0214,15.7709 6.0474,15.8089 6.0774,15.8469 L6.1004,15.9769 L6.1414,15.9799 Z M7.9064,19.4259 C7.5474,19.4259 7.2184,19.3939 6.9274,19.3299 C4.6524,18.8709 2.9994,16.8479 2.9994,14.5229 C2.9994,12.9489 3.7664,11.4559 5.0514,10.5289 L5.1434,10.4619 L5.1374,10.4149 C5.6554,6.9759 8.5414,4.5009 11.9994,4.5009 C15.4584,4.5009 18.3454,6.9759 18.8624,10.3879 L18.8794,10.5009 L18.9244,10.5169 C20.2334,11.4559 20.9994,12.9489 20.9994,14.5229 C20.9994,16.8489 19.3494,18.8709 17.0764,19.3279 C16.7834,19.3939 16.4524,19.4259 16.0944,19.4259 L7.9064,19.4259 Z" id="Fill-1" fill="#273637"></path>
    </g>
</svg>
