<svg width="24" height="24" viewBox="0 0 24 24" fill="none" xmlns="http://www.w3.org/2000/svg">
<path d="M21.1164 11.4443C21.4245 11.7547 21.4228 12.256 21.1123 12.5641L18.2507 15.4213L18.1498 15.5213L13.6413 20.0304C14.027 18.7883 13.9225 16.2435 12.154 14.475L14.6284 11.9999L11.6721 9.04276L11.6707 9.04422L11.6699 9.04098C9.75533 7.12582 9.72651 4.03912 11.5835 2.08865L11.6721 2L21.1164 11.4443Z" fill="#273637"/>
<path d="M11.6721 14.9572C13.6161 16.9017 13.6161 20.0538 11.6721 21.9983H11.6739L11.6722 22L2.23105 12.5598C1.92298 12.2502 1.92298 11.7499 2.23105 11.4402L9.69911 3.97302C9.31535 5.21717 9.42214 7.75713 11.1881 9.52308L11.1908 9.52422L8.71493 12L11.6721 14.9572Z" fill="#273637"/>
</svg>
