<?xml version="1.0" encoding="UTF-8"?>
<svg width="24px" height="24px" viewBox="0 0 24 24" version="1.1" xmlns="http://www.w3.org/2000/svg" xmlns:xlink="http://www.w3.org/1999/xlink">
    <title>Icons/Full Set/Snappable/Linux</title>
    <defs>
        <path d="M11.133,3.122 C10.562,3.271 10.048,3.532 9.724,4.058 L9.724,4.058 C9.465,4.486 9.243,4.933 9.247,5.421 L9.247,5.421 C9.255,6.317 9.255,7.229 9.247,8.155 L9.247,8.155 C9.237,9.08 9.152,9.752 8.873,10.199 L8.873,10.199 C8.693,10.483 8.472,10.701 8.282,10.961 L8.282,10.961 C7.488,12.046 6.979,13.273 6.511,14.52 L6.511,14.52 C6.395,14.836 6.339,14.973 6.449,15.315 L6.449,15.315 C6.803,15.077 7.162,14.926 7.483,15.133 L7.483,15.133 C7.46,14.998 8.475,16.133 8.819,16.618 L8.819,16.618 C9.469,17.531 9.695,17.908 10.285,18.685 L10.285,18.685 C10.281,18.598 12.315,17.192 11.09,16.618 L11.09,16.618 C9.15,15.87 8.733,15.354 8.628,14.52 L8.628,14.52 C8.496,13.593 9.247,12.392 10.108,11.765 L10.108,11.765 C11.663,10.868 10.199,9.28 9.837,8.799 L9.837,8.799 C9.506,8.361 9.511,7.97 9.917,7.625 L9.917,7.625 C10.016,7.537 10.013,7.478 9.966,7.364 L9.966,7.364 C9.794,6.935 9.756,6.488 9.917,6.048 L9.917,6.048 C10.05,5.68 10.436,5.568 10.72,5.812 L10.72,5.812 C10.913,5.976 11.053,6.183 11.09,6.446 L11.09,6.446 C11.105,6.569 11.11,6.695 11.122,6.819 L11.122,6.819 L11.846,6.819 C11.846,6.757 11.853,6.697 11.846,6.639 L11.846,6.639 C11.811,6.374 11.911,6.15 12.048,5.937 L12.048,5.937 C12.327,5.502 12.971,5.411 13.292,5.779 L13.292,5.779 C13.594,6.122 13.764,6.529 13.68,6.999 L13.68,6.999 C13.649,7.171 13.589,7.335 13.541,7.509 L13.541,7.509 C13.727,7.625 13.862,7.792 13.84,8.025 L13.84,8.025 C13.819,8.229 13.749,8.422 13.706,8.624 L13.706,8.624 C13.692,8.707 13.662,8.801 13.69,8.876 L13.69,8.876 C13.771,9.103 13.877,9.323 13.977,9.543 L13.977,9.543 C14.089,9.792 14.206,10.038 14.316,10.285 L14.316,10.285 C14.982,11.765 14.805,14.389 14.8,15.01 L14.8,15.01 C15.028,15.21 15.692,15.123 16.008,14.923 L16.008,14.923 C16.24,14.694 16.371,14.535 16.403,14.265 L16.403,14.265 C16.473,13.628 16.474,13.327 15.942,12.392 L15.942,12.392 C15.819,12.175 15.707,11.931 15.519,11.765 L15.519,11.765 C15.956,11.982 16.31,12.303 16.571,12.724 L16.571,12.724 C17.345,14.143 16.973,15 16.488,15.363 L16.488,15.363 C16.486,15.373 16.48,15.381 16.476,15.389 L16.476,15.389 C16.434,15.452 15.942,15.677 16.008,16.163 L16.008,16.163 C16.008,16.256 16.163,16.564 16.221,16.618 L16.221,16.618 C16.452,16.825 16.748,16.902 17.016,16.74 L17.016,16.74 C17.271,16.586 17.458,15.895 17.951,15.854 L17.951,15.854 C18.357,15.746 18.357,15.414 18.389,15.245 L18.389,15.245 C18.487,14.731 18.365,14.24 18.222,13.756 L18.222,13.756 C17.918,12.734 17.414,11.808 16.794,10.945 L16.794,10.945 C16.406,10.402 16.005,9.862 15.677,9.28 L15.677,9.28 C15.209,8.451 14.964,7.548 14.982,6.581 L14.982,6.581 C14.989,6.235 14.968,5.879 14.904,5.537 L14.904,5.537 C14.794,4.934 14.588,4.351 14.141,3.91 L14.141,3.91 C13.523,3.303 12.814,3 12.028,3 L12.028,3 C11.739,3 11.441,3.04 11.133,3.122 L11.133,3.122 Z M12.936,4.236 C12.94,3.977 12.99,3.897 13.164,3.897 L13.164,3.897 C13.35,3.9 13.415,4.044 13.473,4.186 L13.473,4.186 C13.527,4.332 13.392,4.352 13.317,4.411 L13.317,4.411 C13.299,4.426 13.272,4.433 13.251,4.444 L13.251,4.444 C13.168,4.479 13.106,4.498 13.059,4.498 L13.059,4.498 C12.963,4.498 12.935,4.418 12.936,4.236 L12.936,4.236 Z M14.653,9.21 C14.417,9.078 14.291,8.863 14.241,8.602 L14.241,8.602 C14.222,8.509 14.276,8.441 14.361,8.484 L14.361,8.484 C14.536,8.571 14.706,8.674 14.863,8.793 L14.863,8.793 C14.922,8.834 14.945,8.932 14.964,8.967 L14.964,8.967 C14.964,9.139 14.873,9.24 14.762,9.24 L14.762,9.24 C14.727,9.24 14.69,9.23 14.653,9.21 L14.653,9.21 Z M12.551,6.32 C12.36,6.386 12.306,6.566 12.292,6.745 L12.292,6.745 C12.276,6.902 12.288,7.063 12.288,7.221 L12.288,7.221 C11.807,6.918 11.306,6.948 10.792,7.144 L10.792,7.144 C10.774,6.961 10.778,6.87 10.739,6.719 L10.739,6.719 C10.695,6.539 10.529,6.432 10.39,6.456 L10.39,6.456 C10.253,6.481 10.165,6.62 10.157,6.819 L10.157,6.819 C10.148,7.088 10.157,7.267 10.378,7.478 L10.378,7.478 C10.482,7.615 10.482,7.73 10.378,7.823 L10.378,7.823 C10.033,8.123 10.068,8.284 10.39,8.617 L10.39,8.617 C10.648,8.881 11.106,9.519 11.212,9.534 L11.212,9.534 C11.676,9.617 11.652,9.549 12.043,9.28 L12.043,9.28 C12.252,9.136 12.449,8.929 12.661,8.793 L12.661,8.793 C13.355,8.343 13.238,7.732 12.942,7.615 L12.942,7.615 C12.794,7.556 13.01,7.504 12.831,7.441 L12.831,7.441 C13.077,7.356 13.221,7.223 13.243,6.988 L13.243,6.988 C13.261,6.765 13.195,6.566 13.047,6.402 L13.047,6.402 C12.965,6.314 12.865,6.28 12.762,6.28 L12.762,6.28 C12.692,6.28 12.62,6.296 12.551,6.32 L12.551,6.32 Z M12.794,6.488 C12.808,6.467 12.823,6.448 12.839,6.432 L12.839,6.432 C12.895,6.471 12.963,6.501 13.006,6.555 L13.006,6.555 C13.031,6.587 13.019,6.654 13.023,6.708 L13.023,6.708 C13.005,6.713 12.986,6.717 12.966,6.719 L12.966,6.719 C12.91,6.641 12.852,6.566 12.794,6.488 L12.794,6.488 Z M10.443,6.627 C10.451,6.616 10.459,6.604 10.467,6.593 L10.467,6.593 C10.506,6.609 10.567,6.618 10.58,6.643 L10.58,6.643 C10.608,6.711 10.613,6.79 10.627,6.865 L10.627,6.865 L10.573,6.865 L10.443,6.627 Z M6.555,15.812 C6.362,16.011 6.205,16.245 6.039,16.469 L6.039,16.469 C5.853,16.726 5.615,16.893 5.295,16.951 L5.295,16.951 C5.121,16.98 4.951,17.033 4.782,17.077 L4.782,17.077 C4.333,17.193 4.221,17.355 4.293,17.811 L4.293,17.811 C4.386,18.393 4.381,18.97 4.262,19.548 L4.262,19.548 C4.181,19.947 4.307,20.172 4.697,20.311 L4.697,20.311 C4.97,20.407 5.253,20.485 5.54,20.541 L5.54,20.541 C6.369,20.709 7.186,20.913 7.975,21.23 L7.975,21.23 C8.183,21.313 8.402,21.379 8.62,21.433 L8.62,21.433 C9.036,21.535 9.413,21.47 9.726,21.145 L9.726,21.145 C9.797,21.071 9.874,21.001 9.962,20.943 L9.962,20.943 C10.222,20.768 10.366,20.544 10.306,20.253 L10.306,20.253 C10.34,19.888 10.243,19.588 10.033,19.339 L10.033,19.339 C9.449,18.641 9.019,17.84 8.513,17.093 L8.513,17.093 C8.211,16.645 7.886,16.212 7.53,15.806 L7.53,15.806 C7.37,15.628 7.215,15.542 7.057,15.542 L7.057,15.542 C6.894,15.542 6.729,15.633 6.555,15.812 L6.555,15.812 Z M14.728,16.5 C14.717,17.519 14.707,18.54 14.485,19.542 L14.485,19.542 C14.405,19.911 14.38,20.284 14.461,20.66 L14.461,20.66 C14.562,21.117 14.835,21.385 15.301,21.444 L15.301,21.444 C15.428,21.46 15.558,21.46 15.684,21.469 L15.684,21.469 C16.126,21.473 16.524,21.37 16.855,21.052 L16.855,21.052 C17.534,20.406 18.321,19.912 19.13,19.45 L19.13,19.45 C19.32,19.344 19.509,19.228 19.678,19.092 L19.678,19.092 C20.001,18.831 19.96,18.49 19.627,18.255 L19.627,18.255 C19.337,18.046 19.059,18.064 18.8,17.821 L18.8,17.821 C18.566,17.604 18.425,17.34 18.47,16.995 L18.47,16.995 C18.487,16.845 18.456,16.676 18.398,16.537 L18.398,16.537 C18.298,16.307 18.018,16.294 17.874,16.5 L17.874,16.5 C17.816,16.584 17.77,16.678 17.703,16.756 L17.703,16.756 C17.383,17.123 17.036,17.43 16.493,17.378 L16.493,17.378 C16.005,17.332 15.547,17.009 15.591,16.577 L15.591,16.577 C15.633,16.23 15.584,16.181 15.225,16.17 L15.225,16.17 C15.039,16.163 14.924,16.144 14.852,16.144 L14.852,16.144 C14.723,16.144 14.733,16.204 14.728,16.5 L14.728,16.5 Z M10.755,19.622 C10.784,19.944 10.808,20.265 10.834,20.577 L10.834,20.577 C11.143,20.578 11.441,20.567 11.733,20.554 L11.733,20.554 C12.505,20.523 13.234,20.491 14.04,20.692 L14.04,20.692 C13.961,20.369 13.941,20.033 13.977,19.743 L13.977,19.743 C14.03,19.323 14.084,18.898 14.139,18.46 L14.139,18.46 C13.054,19.48 12.149,19.793 10.755,19.622 L10.755,19.622 Z" id="path-1"></path>
    </defs>
    <g id="Icons/Full-Set/Snappable/Linux" stroke="none" stroke-width="1" fill="none" fill-rule="evenodd">
        <mask id="mask-2" fill="white">
            <use xlink:href="#path-1"></use>
        </mask>
        <use id="Clip-2" fill="#273637" xlink:href="#path-1"></use>
    </g>
</svg>
