<svg width="24" height="24" viewBox="0 0 24 24" fill="none" xmlns="http://www.w3.org/2000/svg">
<path d="M7.14999 5C6.87999 5 6.62999 5.11 6.43999 5.29C6.24999 5.48 6.14999 5.73 6.14999 6C6.14999 6.27 6.25999 6.52 6.43999 6.71C6.62999 6.9 6.87999 7 7.14999 7C7.41999 7 7.66999 6.89 7.85999 6.71C8.04999 6.52 8.14999 6.27 8.14999 6C8.14999 5.73 8.03999 5.48 7.85999 5.29C7.66999 5.1 7.41999 5 7.14999 5Z" fill="white"/>
<path d="M15.85 5H11.35C11.25 5 11.15 5.1 11.15 5.3V6.8C11.15 6.9 11.25 7 11.35 7H15.85C16.05 7 16.15 6.9 16.15 6.8V5.3C16.15 5.1 16.05 5 15.85 5Z" fill="white"/>
<path fill-rule="evenodd" clip-rule="evenodd" d="M4.14999 20H14.45C15 20 15.45 20.45 15.45 21V22H3.64999C2.81999 22 2.14999 21.32 2.14999 20.5V3.5C2.14999 2.6 2.84999 2 3.64999 2H18.65C19.45 2 20.15 2.6 20.15 3.5V10.01H4.14999V14.01H9.89999C9.97999 14.01 10.06 14.07 10.06 14.15L10.0759 14.2737C10.1373 14.7528 10.1864 15.1361 10.38 15.8C10.41 15.89 10.34 16 10.24 16H4.14999V20ZM18.15 4H4.14999V8H18.15V4Z" fill="white"/>
<path d="M6.43999 11.29C6.62999 11.11 6.87999 11 7.14999 11C7.41999 11 7.66999 11.1 7.85999 11.29C8.03999 11.48 8.14999 11.73 8.14999 12C8.14999 12.27 8.04999 12.52 7.85999 12.71C7.66999 12.89 7.41999 13 7.14999 13C6.87999 13 6.62999 12.9 6.43999 12.71C6.25999 12.52 6.14999 12.27 6.14999 12C6.14999 11.73 6.24999 11.48 6.43999 11.29Z" fill="white"/>
<path d="M7.14999 19C7.41999 19 7.66999 18.89 7.85999 18.71C8.04999 18.52 8.14999 18.27 8.14999 18C8.14999 17.73 8.03999 17.48 7.85999 17.29C7.66999 17.1 7.41999 17 7.14999 17C6.87999 17 6.62999 17.11 6.43999 17.29C6.24999 17.48 6.14999 17.73 6.14999 18C6.14999 18.27 6.25999 18.52 6.43999 18.71C6.62999 18.9 6.87999 19 7.14999 19Z" fill="white"/>
<path d="M20.24 16.9H20.26L20.25 16.91C20.27 16.91 20.3 16.9 20.3 16.88C20.76 16.07 21.14 15.14 21.36 14.27C21.61 13.27 21.63 12.46 21.41 12.19C20.86 11.47 20.09 11.1 19.11 11.08C18.88 11.07 18.62 11.09 18.36 11.13C18.34 11.13 18.32 11.15 18.32 11.17C18.32 11.2 18.33 11.22 18.35 11.23C18.76 11.45 19.14 11.75 19.46 12.13C20.01 12.78 20.28 13.5 20.3 13.75V13.84C20.31 14.03 20.29 14.2 20.27 14.35L20.2662 14.3686C20.2576 14.4105 20.25 14.4476 20.25 14.5C20.24 14.51 20.24 14.52 20.24 14.52V14.55C20.2357 14.5821 20.231 14.6146 20.2262 14.6475C20.2085 14.7688 20.19 14.8963 20.19 15.03C20.19 15.19 20.2 15.36 20.23 15.54V15.62C20.28 16 20.32 16.41 20.21 16.84C20.2 16.86 20.22 16.89 20.24 16.9Z" fill="white"/>
<path d="M20.11 18.59C19.88 18.59 19.76 18.56 19.7 18.54C19.66 18.53 19.63 18.48 19.63 18.44C19.63 18.1 19.75 18.02 19.93 17.97C19.96 17.95 20.03 17.94 20.07 17.97C20.07 17.97 20.08 17.97 20.09 17.98C20.31 18.13 20.69 18.17 21.23 18.1C21.29 18.1 21.33 18.13 21.34 18.17C21.36 18.22 21.34 18.27 21.29 18.3L21.09 18.4C20.89 18.49 20.56 18.56 20.22 18.58H20.11V18.59Z" fill="white"/>
<path d="M15.13 19.08C14.96 19.08 14.78 19.04 14.65 19.01C14.61 19.01 14.58 18.97 14.57 18.94C14.56 18.9 14.57 18.86 14.6 18.84C14.62 18.82 14.67 18.8 14.69 18.8C15.28 18.67 15.37 18.59 15.58 18.32C15.58 18.32 15.59 18.3 15.6 18.29C15.63 18.26 15.67 18.22 15.7 18.17L15.74 18.11C15.84 17.99 15.9 17.98 16.02 18.02C16.1 18.06 16.19 18.14 16.23 18.27V18.3C16.23 18.313 16.2309 18.3264 16.2319 18.3402C16.2354 18.3903 16.2392 18.4451 16.2 18.5C15.93 18.87 15.56 19.07 15.11 19.07L15.13 19.08Z" fill="white"/>
<path fill-rule="evenodd" clip-rule="evenodd" d="M19.78 15.66C19.7763 15.6207 19.7722 15.5811 19.768 15.5412C19.7502 15.368 19.7319 15.1907 19.74 15.02C19.75 14.8 19.77 14.61 19.8 14.43L19.8038 14.4038C19.8224 14.2736 19.84 14.1512 19.84 14.02C19.75 14.01 19.66 14.01 19.58 14.01C19.26 14.01 19.04 14.07 18.94 14.22C18.81 14.4 18.83 14.76 19 15.23C19.17 15.69 19.41 16.15 19.58 16.45C19.6296 16.5492 19.6715 16.6215 19.7034 16.6765C19.7229 16.7101 19.7386 16.7372 19.75 16.76C19.8675 16.4437 19.8298 16.1111 19.7919 15.7768C19.7879 15.7412 19.7838 15.7056 19.78 15.67V15.66ZM19.59 14.51C19.59 14.51 19.46 14.63 19.35 14.65H19.31C19.24 14.65 19.16 14.63 19.09 14.58C19.02 14.54 18.96 14.46 18.96 14.4C18.94 14.26 19.11 14.17 19.3 14.14C19.3139 14.14 19.33 14.1378 19.3472 14.1355C19.3671 14.1329 19.3886 14.13 19.41 14.13C19.55 14.13 19.67 14.17 19.69 14.3C19.7 14.39 19.63 14.48 19.6 14.51H19.59Z" fill="white"/>
<path d="M19.69 17.61L19.68 17.6C19.57 17.46 19.42 17.26 19.3 16.96C19.27 16.93 19.23 16.85 19.18 16.75L19.16 16.71C18.99 16.42 18.72 15.93 18.55 15.42C18.31 14.76 18.31 14.28 18.54 13.95C18.77 13.62 19.18 13.48 19.78 13.52C19.7 13.29 19.51 12.89 19.15 12.45C18.71 11.92 17.92 11.28 16.69 11.27H16.64C16.05 11.27 15.56 11.45 15.19 11.83C14.64 12.39 14.45 13.27 14.39 13.82C14.57 13.73 14.87 13.6 15.21 13.56C15.83 13.51 16.25 13.8 16.37 14.36C16.68 15.82 16.4 16.47 16.19 16.94C16.153 17.014 16.127 17.077 16.1038 17.1331C16.0957 17.1528 16.0878 17.1719 16.08 17.19L16.06 17.25C16.01 17.37 15.97 17.47 15.94 17.58C16.05 17.58 16.15 17.62 16.2 17.64C16.4 17.72 16.56 17.92 16.62 18.15C16.63 18.19 16.65 18.26 16.65 18.26V18.33C16.62 19.74 16.67 21.05 16.78 21.33C16.97 21.81 17.24 22.1 17.9 21.96C18.59 21.81 18.83 21.56 18.95 20.88C19.03 20.35 19.22 18.81 19.24 18.48C19.21 17.9 19.49 17.71 19.69 17.61Z" fill="white"/>
<path fill-rule="evenodd" clip-rule="evenodd" d="M15.86 14.47C15.81 14.25 15.7 14.13 15.52 14.09C15.1 13.98 14.52 14.29 14.34 14.42V14.48C14.36 14.79 14.39 15.34 14.3 15.99C14.25 16.43 14.37 16.84 14.66 17.14C14.87 17.36 15.13 17.49 15.42 17.51C15.46 17.37 15.51 17.23 15.57 17.08L15.6 16.99C15.63 16.9 15.66 16.82 15.71 16.72C15.91 16.28 16.14 15.75 15.87 14.45L15.86 14.47ZM15.65 14.66C15.58 14.71 15.5 14.73 15.42 14.73H15.37C15.26 14.72 15.15 14.64 15.08 14.55C15.03 14.48 15.01 14.41 15.02 14.35C15.02 14.33 15.03 14.26 15.09 14.22C15.16 14.17 15.29 14.15 15.45 14.17C15.53 14.18 15.61 14.2 15.67 14.24C15.81 14.31 15.81 14.42 15.81 14.45C15.8003 14.5569 15.6961 14.626 15.6627 14.6482L15.66 14.65L15.65 14.66Z" fill="white"/>
<path d="M13.12 18.85C13.21 18.85 13.35 18.81 13.53 18.6C13.7675 18.3098 13.9962 18.05 14.1703 17.8523C14.2602 17.7502 14.3355 17.6647 14.39 17.6C14.41 17.58 14.39 17.53 14.39 17.53L14.33 17.47C13.95 17.06 13.78 16.52 13.85 15.94C13.92 15.4 13.91 14.91 13.89 14.61V14.52C13.88 14.45 13.88 14.39 13.88 14.34C13.88 13.92 13.94 12.5 14.77 11.59C14.78 11.58 14.78 11.56 14.78 11.54C14.78 11.52 14.77 11.5 14.75 11.5C14.52 11.42 13.89 11.24 13.22 11.24C12.69 11.24 12.26 11.36 11.93 11.59C11.38 11.99 11.13 12.72 11.18 13.77C11.2 14.11 11.41 15.31 11.76 16.49C12.18 17.85 12.65 18.71 13.04 18.85H13.12Z" fill="white"/>
</svg>
