<svg width="25" height="24" viewBox="0 0 25 24" fill="none" xmlns="http://www.w3.org/2000/svg">
<path fill-rule="evenodd" clip-rule="evenodd" d="M8.17093 5.02752V6.9846C8.17093 7.03983 8.2157 7.0846 8.27093 7.0846H12.3104C12.3657 7.0846 12.4104 7.12937 12.4104 7.1846V7.60755C12.4104 7.66278 12.3657 7.70755 12.3104 7.70755H6.36964C5.72518 7.70755 4.55734 7.99865 3.98587 9.5677C3.41439 11.1368 3.71078 13.1966 3.86941 14.0118C4.23438 15.8875 5.47666 16.3 6.15995 16.3H7.55853C7.61376 16.3 7.65853 16.2552 7.65853 16.2V14.3542C7.77499 12.2217 9.61003 11.708 10.3917 11.708H14.5069C16.0443 11.708 16.6499 10.3849 16.6499 9.521V5.41935C16.4436 3.09839 14.0787 3.09938 12.6198 3.1L12.5502 3.10002C11.6961 3.10002 10.6619 3.15605 9.56862 3.44247C8.47536 3.72888 8.1813 4.61851 8.17093 5.02752ZM10.8482 5.21234C10.8482 5.6525 10.4922 6.00932 10.0531 6.00932C9.61397 6.00932 9.258 5.6525 9.258 5.21234C9.258 4.77218 9.61397 4.41536 10.0531 4.41536C10.4922 4.41536 10.8482 4.77218 10.8482 5.21234Z" fill="white"/>
<path fill-rule="evenodd" clip-rule="evenodd" d="M16.8289 18.9724V17.0154C16.8289 16.9601 16.7841 16.9154 16.7289 16.9154H12.6893C12.6341 16.9154 12.5893 16.8706 12.5893 16.8154V16.3924C12.5893 16.3372 12.6341 16.2924 12.6893 16.2924H18.6302C19.2746 16.2924 20.4424 16.0013 21.0139 14.4323C21.5854 12.8632 21.289 10.8034 21.1304 9.98816C20.7654 8.11246 19.5231 7.69998 18.8398 7.69998H17.4413C17.386 7.69998 17.3413 7.74475 17.3413 7.79998V9.64571C17.2248 11.7783 15.3898 12.2919 14.6081 12.2919H10.4929C8.95554 12.2919 8.34989 13.615 8.34989 14.4789V18.5806C8.55622 20.9016 10.9211 20.9006 12.38 20.9L12.4496 20.8999C13.3037 20.8999 14.3379 20.8439 15.4312 20.5575C16.5244 20.2711 16.8185 19.3814 16.8289 18.9724ZM14.1516 18.9876C14.1516 18.5475 14.5076 18.1906 14.9467 18.1906C15.3858 18.1906 15.7418 18.5475 15.7418 18.9876C15.7418 19.4278 15.3858 19.7846 14.9467 19.7846C14.5076 19.7846 14.1516 19.4278 14.1516 18.9876Z" fill="white"/>
</svg>
