<svg width="24" height="24" viewBox="0 0 24 24" fill="none" xmlns="http://www.w3.org/2000/svg">
<path d="M14.5399 7.3349C14.9802 7.54127 15.3668 7.80195 15.7104 8.10608L15.7319 8.11694C15.8178 8.19297 15.9037 8.27986 15.9896 8.36675L16.0326 8.41021L17.1549 7.99621C17.4458 8.31854 17.6976 8.67014 17.9011 9.051L20.4893 8.08431H20.5C20.3067 7.68243 20.0919 7.29141 19.8342 6.92212L18.7263 7.33679C18.4258 6.91657 18.0863 6.53529 17.7079 6.18357C17.1065 5.59704 16.4085 5.10826 15.6567 4.74983C11.9195 2.95766 7.48424 4.48915 5.52972 8.16039C5.44381 8.32331 5.35789 8.48624 5.28272 8.64916C4.69207 9.93084 4.46654 11.2994 4.57394 12.6137H4.60615L5.66933 12.2118L6.02647 12.0804L5.73369 12.19C5.76577 12.6334 5.84044 13.0768 5.94709 13.5095L3.5 14.4058C3.73626 15.3725 4.15509 16.2849 4.72426 17.0886L4.74574 17.0778C4.75648 17.0886 4.76722 17.1104 4.76722 17.1104L6.02643 16.6422L6.0344 16.6543C6.78614 17.7404 7.8171 18.6528 9.07357 19.2502C11.7906 20.5536 14.8727 20.0974 17.1064 18.3487C18.1052 17.5884 18.9428 16.5891 19.5013 15.3617C20.0919 14.0801 20.3067 12.7224 20.2101 11.3972L18.92 11.8589C18.832 10.8757 18.511 9.87167 18.0838 8.98586V8.99672L15.4957 9.96341C15.9789 10.8432 16.2044 11.8642 16.1293 12.8852L16.183 12.8635V12.8852L17.4154 12.4306C17.369 13.0379 17.2091 13.6342 16.9561 14.1887C16.5373 15.1228 15.8714 15.8614 15.0767 16.3827C13.6592 17.2625 11.855 17.4363 10.2334 16.676C9.67496 16.4153 9.18096 16.0569 8.7514 15.6116L7.46883 16.0847L7.46274 16.0785C7.28017 15.883 7.09761 15.6766 6.94726 15.4485C6.53917 14.8511 6.25996 14.1668 6.13109 13.45H6.12293L8.53661 12.5485C8.45069 12.1031 8.41848 11.6361 8.46143 11.169L7.32315 11.5951V11.5927C7.35537 11.1473 7.44128 10.702 7.59163 10.2675C7.64533 10.1155 7.70976 9.96342 7.7742 9.82222C8.9555 7.24801 11.9947 6.14012 14.5399 7.3349Z" fill="white"/>
</svg>
