<svg width="24" height="24" viewBox="0 0 24 24" fill="none" xmlns="http://www.w3.org/2000/svg">
<path d="M7.32303 11.6167C7.42812 11.6181 7.53321 11.627 7.63757 11.6431L7.63684 11.6439V12.1716C7.63684 12.1716 7.48985 12.2032 7.32376 12.2135C7.08785 12.2275 6.98423 12.1451 6.98423 12.1451C6.93867 12.1083 6.93279 12.0995 6.91735 12.0759C6.89457 12.0406 6.88281 11.9898 6.88281 11.925C6.88281 11.8235 6.91662 11.7499 6.98644 11.7006C6.98644 11.7006 7.08638 11.6137 7.32303 11.6167Z" fill="#273637"/>
<path d="M9.58504 11.1125C9.65632 11.0036 9.76436 10.944 9.91648 10.944C10.0686 10.944 10.1693 11.0036 10.2413 11.1125C10.2891 11.1846 10.3097 11.2796 10.3177 11.3863H9.49097C9.50713 11.2759 9.538 11.1839 9.58504 11.1125Z" fill="#273637"/>
<path d="M14.5736 10.9528C14.4208 10.9528 14.3127 11.005 14.2415 11.1139C14.1702 11.2236 14.1334 11.3796 14.1334 11.5784C14.1334 11.7771 14.1694 11.9346 14.2415 12.045C14.3127 12.1546 14.4215 12.2076 14.5736 12.2076C14.7258 12.2076 14.8353 12.1539 14.9073 12.0442C14.98 11.9331 15.0168 11.7763 15.0168 11.5776C15.0168 11.3789 14.98 11.2229 14.9073 11.1139C14.8353 11.0058 14.7265 10.9528 14.5736 10.9528Z" fill="#273637"/>
<path d="M19.1985 10.944C19.0463 10.944 18.9383 11.0036 18.867 11.1125C18.8192 11.1839 18.7891 11.2759 18.7729 11.3863H19.5997C19.5916 11.2796 19.5711 11.1846 19.5233 11.1125C19.4513 11.0036 19.3506 10.944 19.1985 10.944Z" fill="#273637"/>
<path fill-rule="evenodd" clip-rule="evenodd" d="M15.9443 7.27056C16.4925 7.02547 17.0856 6.89888 17.686 6.89888C20.0672 6.89888 22 8.84927 22 11.256C22 13.6627 20.0672 15.6131 17.686 15.6131C17.395 15.6131 17.1113 15.5837 16.8335 15.5285C16.2934 16.4926 15.2608 17.1477 14.085 17.1477C13.6065 17.1484 13.134 17.0402 12.7033 16.8297C12.1558 18.1177 10.9469 19.023 9.39619 19.023C7.84552 19.023 6.53002 18.0441 6.02293 16.6678C5.79731 16.7156 5.56728 16.7392 5.33652 16.7392C3.49188 16.7392 2 15.223 2 13.3609C2 12.1097 2.67171 11.0205 3.66826 10.4317C3.4566 9.94371 3.34857 9.41747 3.34857 8.88607C3.34857 6.73696 5.09032 5 7.23628 5C8.49298 5 9.6174 5.59984 10.3222 6.53088V6.5272C10.9674 5.85449 11.8655 5.43792 12.8576 5.43792C14.1805 5.43792 15.327 6.17392 15.9443 7.27056ZM5.63416 12.5226C6.04424 12.5226 6.29926 12.3041 6.29926 11.9522V11.9449C6.29926 11.6196 6.01117 11.5011 5.74219 11.4164L5.70692 11.4054C5.50334 11.3392 5.3277 11.2818 5.3277 11.1478V11.1412C5.3277 11.0264 5.43059 10.9417 5.58933 10.9417C5.76571 10.9417 5.97589 11.0006 6.11038 11.0749C6.11038 11.0749 6.15007 11.1007 6.16477 11.0624C6.17285 11.0418 6.2412 10.8578 6.24855 10.8372C6.25663 10.8159 6.24267 10.7989 6.22871 10.7908C6.07437 10.6966 5.86125 10.6326 5.64077 10.6326H5.59962C5.22408 10.6326 4.96171 10.86 4.96171 11.1853V11.1927C4.96171 11.5357 5.25127 11.6475 5.52172 11.7248L5.56508 11.7381C5.76203 11.7984 5.93253 11.8514 5.93253 11.9898V11.9964C5.93253 12.1237 5.82156 12.2187 5.64371 12.2187C5.57463 12.2187 5.35416 12.2172 5.11531 12.0663C5.09941 12.0569 5.08713 12.0489 5.07558 12.0414C5.06631 12.0353 5.05751 12.0295 5.0477 12.0236C5.03594 12.0163 5.00654 12.0038 4.99405 12.042L4.91321 12.268C4.90304 12.2949 4.91283 12.3044 4.91881 12.3101C4.92017 12.3114 4.92134 12.3125 4.92203 12.3136C4.95121 12.3348 4.98085 12.3516 5.01058 12.3684C5.01903 12.3731 5.02748 12.3779 5.03594 12.3828C5.24024 12.491 5.43279 12.5226 5.63416 12.5226ZM7.8999 12.4255C7.93885 12.4167 7.98148 12.4049 7.98148 12.4049C8.01014 12.3975 8.0072 12.3659 8.0072 12.3659V11.306C8.0072 11.0735 7.94547 10.9005 7.82274 10.7938C7.70074 10.6871 7.52216 10.6333 7.29066 10.6333C7.20394 10.6333 7.06357 10.6451 6.97979 10.662C6.97979 10.662 6.72698 10.7114 6.62262 10.793C6.62262 10.793 6.59984 10.8078 6.61233 10.8394L6.69464 11.0602C6.70493 11.0889 6.73286 11.0794 6.73286 11.0794C6.73286 11.0794 6.74168 11.0757 6.75197 11.0698C6.97465 10.9483 7.25685 10.952 7.25685 10.952C7.38179 10.952 7.4788 10.9778 7.54347 11.0271C7.60667 11.0757 7.63901 11.1493 7.63901 11.3038V11.3531C7.5398 11.3384 7.44793 11.3303 7.44793 11.3303L7.44646 11.3274C7.39943 11.3237 7.33843 11.3222 7.26567 11.3222C7.16646 11.3222 7.07018 11.3347 6.98052 11.359C6.89013 11.3833 6.80855 11.4216 6.73874 11.4716C6.66892 11.5217 6.61086 11.5872 6.57044 11.663C6.52929 11.7395 6.50871 11.8279 6.50871 11.9309C6.50871 12.0339 6.52635 12.123 6.56162 12.1959C6.59616 12.268 6.64834 12.3305 6.71302 12.3777C6.77769 12.4248 6.85706 12.4593 6.94892 12.48C7.04005 12.5013 7.13706 12.5116 7.25612 12.5116C7.37517 12.5116 7.4935 12.5013 7.60814 12.4822C7.70589 12.4652 7.8029 12.4468 7.8999 12.4255ZM8.72595 12.4777C8.74506 12.4777 8.75902 12.4616 8.75902 12.4424V9.96431C8.75902 9.94444 8.74506 9.92899 8.72595 9.92899H8.41875C8.39965 9.92899 8.38568 9.94518 8.38568 9.96431V12.4424C8.38568 12.4616 8.39891 12.4777 8.41875 12.4777H8.72595ZM10.6463 11.674C10.6463 11.674 10.6772 11.674 10.6801 11.6439C10.6802 11.6432 10.6803 11.642 10.6806 11.6403C10.6851 11.6084 10.716 11.3922 10.6455 11.1441C10.6162 11.0345 10.5434 10.9233 10.4964 10.8725C10.4214 10.7923 10.3486 10.7356 10.2759 10.7047C10.1708 10.6598 10.0576 10.637 9.9437 10.637C9.79893 10.637 9.66738 10.6613 9.56081 10.7114C9.45425 10.7614 9.36459 10.8298 9.29404 10.9152C9.22349 11.0006 9.17057 11.1014 9.13677 11.217C9.10296 11.3311 9.08606 11.4532 9.08606 11.5872C9.08606 11.7211 9.1037 11.8455 9.13897 11.9581C9.17425 12.0715 9.23084 12.1708 9.30653 12.2533C9.38296 12.3364 9.48071 12.4012 9.59829 12.4468C9.71515 12.4925 9.85625 12.5153 10.0194 12.5153C10.3545 12.5145 10.5309 12.4395 10.6029 12.399C10.6154 12.3924 10.6279 12.3799 10.6125 12.3438L10.5368 12.1311C10.525 12.0987 10.4927 12.1105 10.4927 12.1105C10.4852 12.1133 10.4773 12.1163 10.4691 12.1195C10.387 12.1511 10.2671 12.1973 10.0165 12.1966C9.83714 12.1966 9.70339 12.1429 9.61961 12.0597C9.53436 11.9743 9.49173 11.8499 9.48512 11.674H10.6463ZM11.0395 12.3821C11.2438 12.4903 11.4363 12.5219 11.6377 12.5219C12.0478 12.5219 12.3028 12.3033 12.3028 11.9515V11.9449C12.3028 11.6196 12.0154 11.5011 11.7457 11.4164L11.7104 11.4054C11.5069 11.3392 11.3312 11.2818 11.3312 11.1478V11.1412C11.3312 11.0264 11.4341 10.9417 11.5929 10.9417C11.7692 10.9417 11.9787 11.0006 12.1139 11.0749C12.1139 11.0749 12.1536 11.1007 12.1683 11.0624C12.1764 11.0418 12.2447 10.8578 12.2513 10.8372C12.2594 10.8159 12.2455 10.7989 12.2315 10.7908C12.0772 10.6966 11.864 10.6326 11.6436 10.6326H11.6024C11.2269 10.6326 10.9645 10.86 10.9645 11.1853V11.192C10.9645 11.5349 11.2541 11.6468 11.5245 11.7241L11.5679 11.7373C11.7656 11.7977 11.9353 11.8507 11.9353 11.989V11.9957C11.9353 12.123 11.8244 12.2179 11.6465 12.2179C11.5774 12.2179 11.3562 12.2165 11.1181 12.0656C11.0984 12.054 11.0843 12.0448 11.0702 12.0356C11.0638 12.0314 11.0574 12.0273 11.0505 12.0229C11.0431 12.0178 11.0086 12.0045 10.9968 12.0413L10.916 12.2673C10.9056 12.2948 10.9163 12.304 10.9225 12.3097C10.9237 12.3109 10.9248 12.3119 10.9256 12.3129C10.9547 12.3341 10.9844 12.3508 11.0141 12.3676C11.0226 12.3724 11.031 12.3772 11.0395 12.3821ZM13.6278 10.9859C13.6278 10.9859 13.6602 10.9874 13.6668 10.952L13.7101 10.7106C13.7138 10.6871 13.7035 10.6731 13.6727 10.6731H13.3023C13.3024 10.6724 13.3026 10.6709 13.3029 10.6688C13.3066 10.6438 13.324 10.5243 13.3633 10.4111C13.3816 10.3588 13.4162 10.3169 13.4448 10.2874C13.472 10.2602 13.5051 10.2388 13.5419 10.2271C13.5823 10.2146 13.6242 10.2094 13.6661 10.2094C13.7013 10.2094 13.7351 10.2138 13.7616 10.219C13.7976 10.2271 13.8116 10.2307 13.8211 10.2337C13.8586 10.2455 13.8637 10.2344 13.8711 10.216L13.96 9.97241C13.9688 9.94591 13.9468 9.93487 13.9387 9.93193C13.9012 9.92089 13.863 9.91132 13.8241 9.9047C13.7726 9.89586 13.7197 9.89219 13.6668 9.89219C13.4573 9.89219 13.292 9.9518 13.1759 10.0688C13.0605 10.1851 12.9818 10.3618 12.9429 10.5951L12.9289 10.6738H12.6658C12.6658 10.6738 12.6335 10.6723 12.6269 10.7077L12.5835 10.9491C12.5806 10.9726 12.5901 10.9866 12.621 10.9866H12.8775L12.6173 12.4395C12.5968 12.5565 12.5732 12.6529 12.5475 12.7258C12.5218 12.7972 12.4975 12.8516 12.4667 12.8906C12.4373 12.9282 12.4093 12.9561 12.3608 12.9723C12.3204 12.9863 12.2749 12.9922 12.2241 12.9922C12.1955 12.9922 12.1587 12.9878 12.1308 12.9819C12.1036 12.976 12.0889 12.9701 12.0683 12.9613C12.0683 12.9613 12.0382 12.9495 12.0265 12.9797C12.0169 13.0047 11.9486 13.1924 11.9405 13.216C11.9324 13.2388 11.9434 13.2572 11.9581 13.2623C11.9919 13.2741 12.0176 13.2822 12.0639 13.2932C12.1286 13.3087 12.183 13.3094 12.2337 13.3094C12.3403 13.3094 12.4373 13.2947 12.5181 13.2653C12.599 13.2366 12.6695 13.185 12.732 13.1159C12.7996 13.0408 12.8422 12.9628 12.8826 12.8561C12.9231 12.7501 12.9576 12.6191 12.9848 12.466L13.2457 10.9859H13.6278ZM15.2028 12.2452C15.2726 12.1613 15.3248 12.0612 15.3586 11.9471C15.3916 11.8338 15.4093 11.7094 15.4093 11.5784C15.4093 11.4474 15.3924 11.323 15.3593 11.2096C15.3255 11.0955 15.2733 10.9954 15.2035 10.9115C15.1337 10.8276 15.0455 10.7599 14.9404 10.7114C14.836 10.662 14.7126 10.6378 14.5729 10.6378C14.4333 10.6378 14.3106 10.6628 14.2055 10.7114C14.1011 10.7599 14.0122 10.8276 13.9424 10.9115C13.8726 10.9954 13.8204 11.0955 13.7866 11.2096C13.7528 11.323 13.7359 11.4466 13.7359 11.5784C13.7359 11.7101 13.7528 11.8338 13.7866 11.9471C13.8204 12.0612 13.8726 12.1613 13.9424 12.2452C14.0122 12.3291 14.1011 12.3961 14.2055 12.4439C14.3106 12.4917 14.434 12.516 14.5729 12.516C14.7118 12.516 14.8353 12.4917 14.9397 12.4439C15.044 12.3961 15.1329 12.3291 15.2028 12.2452ZM16.7792 10.7253V10.729H16.7777C16.7783 10.7278 16.7788 10.7265 16.7792 10.7253ZM16.7792 10.7239V10.7253C16.7838 10.7106 16.7764 10.6939 16.7615 10.6878C16.7417 10.6804 16.6425 10.6591 16.5668 10.6547C16.4213 10.6451 16.3404 10.6701 16.2677 10.7025C16.1956 10.7349 16.1163 10.7872 16.0722 10.8475V10.7062C16.0722 10.6863 16.0589 10.6709 16.0391 10.6709H15.7422C15.7231 10.6709 15.7091 10.6871 15.7091 10.7062V12.4358C15.7091 12.4557 15.7253 12.4711 15.7444 12.4711H16.0487C16.0685 12.4711 16.0839 12.4549 16.0839 12.4358V11.5673C16.0839 11.451 16.0964 11.3355 16.1221 11.2626C16.1471 11.1905 16.1817 11.1331 16.2236 11.0919C16.264 11.0521 16.3132 11.0227 16.3669 11.0058C16.4176 10.991 16.4698 10.9837 16.5227 10.9837C16.5829 10.9837 16.6498 10.9991 16.6498 10.9991C16.6726 11.0013 16.6851 10.9874 16.6924 10.9675C16.7123 10.9145 16.7689 10.7555 16.7792 10.7239ZM17.7588 12.5116C17.9344 12.5116 18.1145 12.4763 18.2438 12.4248C18.2438 12.4248 18.2688 12.4122 18.2578 12.3835L18.1733 12.151C18.1615 12.1178 18.1292 12.1304 18.1292 12.1304C18.0792 12.1495 18.0263 12.1672 17.9697 12.176C17.9124 12.1848 17.8492 12.1892 17.7823 12.1892C17.617 12.1892 17.4847 12.1399 17.3906 12.042C17.2958 11.9442 17.2429 11.7866 17.2436 11.5732C17.2444 11.3789 17.2914 11.2332 17.3752 11.1213C17.4582 11.0109 17.5861 10.9535 17.7551 10.9535C17.8962 10.9535 18.0043 10.9704 18.1174 11.0058C18.1174 11.0058 18.1446 11.0175 18.1571 10.9822C18.1657 10.9586 18.1736 10.9369 18.1812 10.9158C18.2006 10.8626 18.2185 10.8135 18.2416 10.7482C18.2505 10.7217 18.2284 10.7106 18.2203 10.7077C18.1762 10.69 18.0711 10.6613 17.9918 10.6495C17.9175 10.6385 17.8316 10.6326 17.7345 10.6326C17.5905 10.6326 17.4626 10.6576 17.3531 10.7062C17.2436 10.7548 17.151 10.8225 17.0775 10.9064C17.004 10.9903 16.9482 11.0904 16.9107 11.2045C16.874 11.3178 16.8549 11.4422 16.8549 11.5739C16.8549 11.858 16.9313 12.0884 17.0827 12.2569C17.2341 12.4262 17.4619 12.5116 17.7588 12.5116ZM19.9283 11.6733C19.9283 11.6733 19.9591 11.6733 19.9621 11.6431C19.9622 11.6425 19.9623 11.6413 19.9626 11.6396C19.9671 11.6076 19.998 11.3914 19.9275 11.1434H19.9261C19.8967 11.0337 19.8246 10.9226 19.7776 10.8718C19.7027 10.7916 19.6299 10.7349 19.5571 10.704C19.452 10.6591 19.3389 10.6363 19.225 10.6363C19.0802 10.6363 18.9486 10.6606 18.8421 10.7106C18.7355 10.7607 18.6458 10.8291 18.5753 10.9145C18.5047 10.9999 18.4518 11.1007 18.418 11.2162C18.3842 11.3303 18.3673 11.4525 18.3673 11.5865C18.3673 11.7204 18.3849 11.8448 18.4195 11.9574C18.4548 12.0707 18.5114 12.1701 18.5878 12.2525C18.6642 12.3357 18.762 12.4005 18.8795 12.4461C18.9964 12.4917 19.1382 12.5145 19.3007 12.5145C19.6358 12.5138 19.8122 12.4387 19.8842 12.3983C19.8967 12.3916 19.9092 12.3791 19.8937 12.3431L19.818 12.1304C19.807 12.098 19.7747 12.1097 19.7747 12.1097C19.7671 12.1126 19.7593 12.1156 19.7511 12.1187C19.669 12.1503 19.549 12.1965 19.2984 12.1959C19.1184 12.1959 18.9854 12.1421 18.9016 12.059C18.8163 11.9736 18.7737 11.8492 18.7671 11.6733H19.9283Z" fill="#273637"/>
</svg>
