<svg width="24" height="25" viewBox="0 0 24 25" fill="none" xmlns="http://www.w3.org/2000/svg">
<path fill-rule="evenodd" clip-rule="evenodd" d="M22 13.4788C22 16.6544 20.5197 19.4844 18.2115 21.3162C17.5716 21.5725 16.9924 21.3654 16 20.722C13.5725 19.148 10.3125 19.1173 8.00001 20.722C6.94641 21.4638 6.39822 21.5538 5.68675 21.2343C3.43688 19.4007 2 16.6075 2 13.4788C2 7.95591 6.47715 3.47876 12 3.47876C17.5228 3.47876 22 7.95591 22 13.4788ZM12 18.0219C14.7614 18.0219 17 15.7834 17 13.0219C17 10.2605 14.7614 8.02194 12 8.02194C9.23858 8.02194 7 10.2605 7 13.0219C7 15.7834 9.23858 18.0219 12 18.0219Z" fill="white"/>
</svg>
