<?xml version="1.0" encoding="UTF-8"?>
<svg width="24px" height="24px" viewBox="0 0 24 24" version="1.1" xmlns="http://www.w3.org/2000/svg" xmlns:xlink="http://www.w3.org/1999/xlink">
    <title>Icons/Full Set/Snappable/vSphere</title>
    <g id="Icons/Full-Set/Snappable/vSphere" stroke="none" stroke-width="1" fill="none" fill-rule="evenodd">
        <path d="M18.4,4 C19.2832,4 20,4.7168 20,5.6 L20,5.6 L20,13.6 C20,14.4832 19.2832,15.2 18.4,15.2 L18.4,15.2 L15.2,15.2 L15.2,18.4 C15.2,19.2832 14.4832,20 13.6,20 L13.6,20 L5.6,20 C4.7168,20 4,19.2832 4,18.4 L4,18.4 L4,10.4 C4,9.5168 4.7168,8.8 5.6,8.8 L5.6,8.8 L8.8,8.8 L8.8,5.6 C8.8,4.7168 9.5168,4 10.4,4 L10.4,4 Z M18.4,5.6 L10.4,5.6 L10.4,10.4 L5.6,10.4 L5.6,18.4 L13.6,18.4 L13.6,13.6 L18.4,13.6 L18.4,5.6 Z M16.506062,6.8584431 C16.8080107,6.8584431 17.0530705,7.10295592 17.0530705,7.40545164 L17.0530705,7.40545164 L17.0530705,11.7264957 C17.0530705,12.0289915 16.8080107,12.2735043 16.506062,12.2735043 L16.506062,12.2735043 L12.2735043,12.2735043 L12.2735043,16.4875414 C12.2735043,16.7900371 12.0284444,17.0345499 11.7264957,17.0345499 L11.7264957,17.0345499 L7.50529853,17.0345499 C7.20334981,17.0345499 6.95828998,16.7900371 6.95828998,16.4875414 L6.95828998,16.4875414 L6.95828998,12.2735043 C6.95828998,11.9710085 7.20334981,11.7264957 7.50529853,11.7264957 L7.50529853,11.7264957 L11.7264957,11.7264957 L11.7264957,7.40545164 C11.7264957,7.10295592 11.9715556,6.8584431 12.2735043,6.8584431 L12.2735043,6.8584431 Z" id="Combined-Shape" fill="#273637"></path>
    </g>
</svg>
