<svg width="24" height="24" viewBox="0 0 24 24" fill="none" xmlns="http://www.w3.org/2000/svg">
<path d="M7.58967 7.57536C10.7135 4.51054 15.9849 5.71487 16.8083 6.77801C14.5418 6.3378 11.4477 8.09032 10.5777 8.7174L10.862 8.83784C12.6828 8.04464 14.4003 8.17891 15.0511 8.40594C8.57435 10.7399 7.07187 14.7308 6.62197 16.774C2.93793 16.9775 0.866736 13.8379 1.67314 11.1967C2.25682 9.28489 4.16878 6.96073 7.58967 7.57536Z" fill="white"/>
<path d="M20.1103 12.1186C18.294 9.65853 14.0834 10.7897 11.8849 11.8238C12.822 10.2922 15.2294 9.45662 16.3499 9.27804C18.0504 8.94027 21.5364 8.93917 22.3513 11.6701C23.1662 14.401 20.4244 15.3745 19.1596 15.4326C18.7182 16.1801 17.9071 17.4308 15.4925 18.1071C13.1497 18.7632 11.1464 18.0572 10.3315 17.6586C8.83749 17.9841 7.75095 17.3388 7.32228 16.7989C7.9377 16.0597 8.64642 15.4108 10.0683 14.5356C11.4903 13.6604 14.423 12.7498 17.3855 13.7382C19.8981 14.5765 20.5032 12.6508 20.1103 12.1186Z" fill="white"/>
</svg>
