<?xml version="1.0" encoding="UTF-8"?>
<svg width="24px" height="24px" viewBox="0 0 24 24" version="1.1" xmlns="http://www.w3.org/2000/svg" xmlns:xlink="http://www.w3.org/1999/xlink">
    <title>Icons/Full Set/Restore/Restore to the Original Database</title>
    <g id="Icons/Full-Set/Restore/Restore-to-the-Original-Database" stroke="none" stroke-width="1" fill="none" fill-rule="evenodd">
        <path d="M6.64271099,5.51843273 C10.045711,2.20143273 15.641711,2.15343273 19.094711,5.41943273 C22.818711,8.93843273 22.881711,14.7334327 19.284711,18.3314327 C16.009711,21.6054327 10.914711,21.8474327 7.37071099,19.0554327 C6.91171099,18.6924327 6.86871099,18.0074327 7.27671099,17.5874327 L7.27671099,17.5874327 L7.29771099,17.5664327 C7.64571099,17.2084327 8.20571099,17.1684327 8.59771099,17.4764327 C11.360711,19.6464327 15.319711,19.4674327 17.869711,16.9174327 C20.808711,13.9784327 20.615711,9.19343273 17.292711,6.49743273 C14.777711,4.45643273 11.057711,4.45943273 8.54271099,6.50243273 C6.84271099,7.88343273 5.97371099,9.81243273 5.91471099,11.7584327 L5.91471099,11.7584327 L7.16471099,11.7524327 C7.65771099,11.7494327 7.94371099,12.3084327 7.65271099,12.7064327 L7.65271099,12.7064327 L5.38171099,15.8254327 C5.14271099,16.1534327 4.65471099,16.1554327 4.41371099,15.8294327 L4.41371099,15.8294327 L2.11971099,12.7344327 C1.82571099,12.3394327 2.10671099,11.7784327 2.59871099,11.7754327 L2.59871099,11.7754327 L3.91571099,11.7694327 C3.96671099,9.50043273 4.86971099,7.24643273 6.64271099,5.51843273 Z M13.140911,8.03333273 C15.403911,8.03333273 16.780911,8.48333273 16.837911,8.50333273 C17.093911,8.58833273 17.265911,8.82733273 17.265911,9.09633273 L17.265911,9.09633273 L17.265911,15.2203327 C17.265911,15.4893327 17.093911,15.7283327 16.837911,15.8133327 C16.780911,15.8333327 15.403911,16.2833327 13.140911,16.2833327 C10.877911,16.2833327 9.50091099,15.8333327 9.44391099,15.8133327 C9.18791099,15.7283327 9.01591099,15.4893327 9.01591099,15.2203327 L9.01591099,15.2203327 L9.01591099,9.09633273 C9.01591099,8.82733273 9.18791099,8.58833273 9.44391099,8.50333273 C9.50091099,8.48333273 10.877911,8.03333273 13.140911,8.03333273 Z M16.015911,13.9493327 L10.265911,13.9493327 L10.265911,14.7393327 C10.795911,14.8593327 11.796911,15.0333327 13.140911,15.0333327 C14.484911,15.0333327 15.485911,14.8593327 16.015911,14.7393327 L16.015911,14.7393327 L16.015911,13.9493327 Z M16.015911,11.6163327 L10.265911,11.6163327 L10.265911,12.6993327 L16.015911,12.6993327 L16.015911,11.6163327 Z M13.140911,9.28333273 C11.796911,9.28333273 10.795911,9.45733273 10.265911,9.57733273 L10.265911,9.57733273 L10.265911,10.3663327 L16.015911,10.3663327 L16.015911,9.57733273 C15.485911,9.45733273 14.484911,9.28333273 13.140911,9.28333273 Z" id="Combined-Shape" fill="#273637"></path>
    </g>
</svg>