<?xml version="1.0" encoding="UTF-8"?>
<svg width="24px" height="24px" viewBox="0 0 24 24" version="1.1" xmlns="http://www.w3.org/2000/svg" xmlns:xlink="http://www.w3.org/1999/xlink">
    <title>Icons/Full Set/Restore/Restore to the Original Document Library</title>
    <defs>
        <filter id="filter-1">
            <feColorMatrix in="SourceGraphic" type="matrix" values="0 0 0 0 0.152941 0 0 0 0 0.211765 0 0 0 0 0.215686 0 0 0 1.000000 0"></feColorMatrix>
        </filter>
        <polygon id="path-2" points="0.000189013744 0.0176171756 19.936 0.0176171756 19.936 18 0.000189013744 18"></polygon>
    </defs>
    <g id="Icons/Full-Set/Restore/Restore-to-the-Original-Document-Library" stroke="none" stroke-width="1" fill="none" fill-rule="evenodd">
        <g filter="url(#filter-1)" id="Group">
            <g transform="translate(2.000000, 3.000000)">
                <g id="Group-3">
                    <mask id="mask-3" fill="white">
                        <use xlink:href="#path-2"></use>
                    </mask>
                    <g id="Clip-2"></g>
                    <path d="M4.6429,2.5353 C2.8699,4.2643 1.9659,6.5173 1.9159,8.7863 L0.5989,8.7933 C0.1069,8.7963 -0.1741,9.3563 0.1199,9.7523 L2.4139,12.8473 C2.6549,13.1733 3.1419,13.1713 3.3809,12.8433 L5.6539,9.7233 C5.9439,9.3253 5.6589,8.7663 5.1639,8.7693 L3.9149,8.7753 C3.9739,6.8293 4.8429,4.9003 6.5419,3.5193 C9.0579,1.4763 12.7779,1.4733 15.2919,3.5143 C18.6159,6.2103 18.8089,10.9953 15.8709,13.9343 C13.3199,16.4843 9.3609,16.6633 6.5979,14.4933 C6.2059,14.1853 5.6459,14.2253 5.2969,14.5833 C5.2899,14.5903 5.2839,14.5983 5.2769,14.6043 C4.8699,15.0243 4.9129,15.7103 5.3719,16.0723 C8.9139,18.8653 14.0099,18.6233 17.2849,15.3483 C20.8819,11.7513 20.8199,5.9563 17.0949,2.4363 C13.6419,-0.8287 8.0459,-0.7807 4.6429,2.5353" id="Fill-1" fill="#273637" mask="url(#mask-3)"></path>
                </g>
                <path d="M8.5502,11.0089 L8.0972,11.0089 C7.9722,11.0089 7.8702,10.9079 7.8702,10.7829 C7.8702,10.6579 7.9722,10.5569 8.0972,10.5569 L8.5502,10.5569 C8.6752,10.5569 8.7772,10.6579 8.7772,10.7829 C8.7772,10.9079 8.6752,11.0089 8.5502,11.0089" id="Fill-4" fill="#273637"></path>
                <path d="M8.5502,11.9142 L8.0972,11.9142 C7.9722,11.9142 7.8702,11.8122 7.8702,11.6872 C7.8702,11.5622 7.9722,11.4622 8.0972,11.4622 L8.5502,11.4622 C8.6752,11.4622 8.7772,11.5622 8.7772,11.6872 C8.7772,11.8122 8.6752,11.9142 8.5502,11.9142" id="Fill-6" fill="#273637"></path>
                <path d="M13.9906,12.3741 L12.6346,7.3141 L13.7616,7.0131 L15.1176,12.0721 L13.9906,12.3741 Z M10.0026,12.4971 L11.1696,12.4971 L11.1696,5.4501 L10.0026,5.4501 L10.0026,12.4971 Z M7.7406,12.4971 L8.9066,12.4971 L8.9066,7.2601 L7.7406,7.2601 L7.7406,12.4971 Z M16.2246,12.3431 L14.5856,6.2251 C14.5316,6.0221 14.3486,5.8901 14.1486,5.8901 C14.1106,5.8901 14.0706,5.8951 14.0316,5.9051 L12.1696,6.4041 L12.1696,4.9021 C12.1696,4.6521 11.9666,4.4501 11.7166,4.4501 L9.4546,4.4501 C9.2046,4.4501 9.0026,4.6521 9.0026,4.9021 L9.0026,6.2601 L7.1926,6.2601 C6.9426,6.2601 6.7406,6.4621 6.7406,6.7121 L6.7406,13.0451 C6.7406,13.2951 6.9426,13.4971 7.1926,13.4971 L9.4546,13.4971 L11.7166,13.4971 C11.9666,13.4971 12.1696,13.2951 12.1696,13.0451 L12.1696,9.4401 L13.1666,13.1621 C13.2196,13.3641 13.4026,13.4971 13.6026,13.4971 C13.6416,13.4971 13.6806,13.4921 13.7196,13.4821 L15.9046,12.8961 C16.1456,12.8321 16.2896,12.5841 16.2246,12.3431 L16.2246,12.3431 Z" id="Fill-8" fill="#273637"></path>
                <path d="M13.892,10.8517 C13.792,10.8517 13.701,10.7857 13.673,10.6847 C13.641,10.5637 13.713,10.4397 13.833,10.4077 L14.27,10.2897 C14.389,10.2597 14.514,10.3297 14.547,10.4507 C14.579,10.5717 14.507,10.6957 14.387,10.7277 L13.951,10.8447 C13.931,10.8497 13.912,10.8517 13.892,10.8517" id="Fill-10" fill="#273637"></path>
                <path d="M14.1254,11.7257 C14.0254,11.7257 13.9344,11.6597 13.9064,11.5587 C13.8744,11.4377 13.9464,11.3137 14.0664,11.2817 L14.5044,11.1637 C14.6214,11.1287 14.7484,11.2037 14.7814,11.3247 C14.8134,11.4447 14.7414,11.5687 14.6214,11.6007 L14.1844,11.7177 C14.1644,11.7237 14.1454,11.7257 14.1254,11.7257" id="Fill-12" fill="#273637"></path>
                <path d="M10.8119,11.0089 L10.3599,11.0089 C10.2349,11.0089 10.1329,10.9079 10.1329,10.7829 C10.1329,10.6579 10.2349,10.5569 10.3599,10.5569 L10.8119,10.5569 C10.9369,10.5569 11.0389,10.6579 11.0389,10.7829 C11.0389,10.9079 10.9369,11.0089 10.8119,11.0089" id="Fill-14" fill="#273637"></path>
                <path d="M10.8119,11.9142 L10.3599,11.9142 C10.2349,11.9142 10.1329,11.8122 10.1329,11.6872 C10.1329,11.5622 10.2349,11.4622 10.3599,11.4622 L10.8119,11.4622 C10.9369,11.4622 11.0389,11.5622 11.0389,11.6872 C11.0389,11.8122 10.9369,11.9142 10.8119,11.9142" id="Fill-16" fill="#273637"></path>
                <path d="M10.9252,6.1466 C10.9252,6.3336 10.7732,6.4856 10.5852,6.4856 C10.3982,6.4856 10.2462,6.3336 10.2462,6.1466 C10.2462,5.9596 10.3982,5.8066 10.5852,5.8066 C10.7732,5.8066 10.9252,5.9596 10.9252,6.1466" id="Fill-18" fill="#273637"></path>
            </g>
        </g>
    </g>
</svg>
