<?xml version="1.0" encoding="UTF-8"?>
<svg width="24px" height="24px" viewBox="0 0 24 24" version="1.1" xmlns="http://www.w3.org/2000/svg" xmlns:xlink="http://www.w3.org/1999/xlink">
    <title>Icons/Full Set/Restore/Restore to the Another List</title>
    <defs>
        <filter id="filter-1">
            <feColorMatrix in="SourceGraphic" type="matrix" values="0 0 0 0 0.152941 0 0 0 0 0.211765 0 0 0 0 0.215686 0 0 0 1.000000 0"></feColorMatrix>
        </filter>
        <polygon id="path-2" points="0 0.0472135201 13.3649623 0.0472135201 13.3649623 13.1123552 0 13.1123552"></polygon>
        <polygon id="path-4" points="0.947344986 0.455571712 4.789 0.455571712 4.789 6.195035 0.947344986 6.195035"></polygon>
        <polygon id="path-6" points="0.455003177 0.366367031 5.05266068 0.366367031 5.05266068 3 0.455003177 3"></polygon>
    </defs>
    <g id="Icons/Full-Set/Restore/Restore-to-the-Another-List" stroke="none" stroke-width="1" fill="none" fill-rule="evenodd">
        <g filter="url(#filter-1)" id="Group">
            <g transform="translate(2.000000, 3.000000)">
                <path d="M13.6952,6.9853 L10.3662,6.9853 C9.9662,6.9853 9.6402,6.6603 9.6402,6.2583 C9.6402,5.8583 9.9662,5.5333 10.3662,5.5333 L13.6952,5.5333 C14.0962,5.5333 14.4212,5.8583 14.4212,6.2583 C14.4212,6.6603 14.0962,6.9853 13.6952,6.9853" id="Fill-1" fill="#273637"></path>
                <path d="M13.6952,9.7587 L10.3662,9.7587 C9.9662,9.7587 9.6402,9.4337 9.6402,9.0327 C9.6402,8.6327 9.9662,8.3077 10.3662,8.3077 L13.6952,8.3077 C14.0962,8.3077 14.4212,8.6327 14.4212,9.0327 C14.4212,9.4337 14.0962,9.7587 13.6952,9.7587" id="Fill-3" fill="#273637"></path>
                <path d="M13.6952,12.5331 L10.3662,12.5331 C9.9662,12.5331 9.6402,12.2081 9.6402,11.8061 C9.6402,11.4061 9.9662,11.0811 10.3662,11.0811 L13.6952,11.0811 C14.0962,11.0811 14.4212,11.4061 14.4212,11.8061 C14.4212,12.2081 14.0962,12.5331 13.6952,12.5331" id="Fill-5" fill="#273637"></path>
                <path d="M8.8729,6.2587 C8.8729,6.6597 8.5479,6.9857 8.1469,6.9857 C7.7459,6.9857 7.4209,6.6597 7.4209,6.2587 C7.4209,5.8587 7.7459,5.5327 8.1469,5.5327 C8.5479,5.5327 8.8729,5.8587 8.8729,6.2587" id="Fill-7" fill="#273637"></path>
                <path d="M8.8729,9.0331 C8.8729,9.4341 8.5479,9.7591 8.1469,9.7591 C7.7459,9.7591 7.4209,9.4341 7.4209,9.0331 C7.4209,8.6331 7.7459,8.3071 8.1469,8.3071 C8.5479,8.3071 8.8729,8.6331 8.8729,9.0331" id="Fill-9" fill="#273637"></path>
                <path d="M8.8729,11.8076 C8.8729,12.2076 8.5479,12.5336 8.1469,12.5336 C7.7459,12.5336 7.4209,12.2076 7.4209,11.8076 C7.4209,11.4066 7.7459,11.0816 8.1469,11.0816 C8.5479,11.0816 8.8729,11.4066 8.8729,11.8076" id="Fill-11" fill="#273637"></path>
                <g id="Group-15">
                    <mask id="mask-3" fill="white">
                        <use xlink:href="#path-2"></use>
                    </mask>
                    <g id="Clip-14"></g>
                    <path d="M13.3046,1.4911 L13.3176,1.4531 C13.4966,0.8971 13.1506,0.3021 12.5766,0.1981 C9.7836,-0.3129 6.7816,0.4741 4.6426,2.5581 C2.8696,4.2871 1.9646,6.5411 1.9156,8.8081 L0.5986,8.8161 C0.1066,8.8191 -0.1734,9.3791 0.1186,9.7741 L2.4136,12.8691 C2.6546,13.1951 3.1426,13.1931 3.3816,12.8651 L5.6536,9.7471 C5.9426,9.3481 5.6566,8.7901 5.1636,8.7921 L3.9146,8.7981 C3.9736,6.8521 4.8426,4.9241 6.5426,3.5421 C8.1556,2.2301 10.2626,1.7711 12.2326,2.1431 C12.7006,2.2321 13.1576,1.9451 13.3046,1.4911" id="Fill-13" fill="#273637" mask="url(#mask-3)"></path>
                </g>
                <path d="M6.598,14.5165 C6.205,14.2085 5.645,14.2485 5.297,14.6065 C5.29,14.6145 5.283,14.6205 5.276,14.6275 C4.869,15.0475 4.911,15.7335 5.371,16.0955 C6.035,16.6185 6.754,17.0315 7.505,17.3385 C8.041,17.5585 8.653,17.2485 8.804,16.6875 L8.822,16.6225 C8.947,16.1625 8.72,15.6695 8.276,15.4905 C7.686,15.2505 7.12,14.9265 6.598,14.5165" id="Fill-16" fill="#273637"></path>
                <g id="Group-20" transform="translate(15.000000, 9.000000)">
                    <mask id="mask-5" fill="white">
                        <use xlink:href="#path-4"></use>
                    </mask>
                    <g id="Clip-19"></g>
                    <path d="M3.826,0.4579 C3.347,0.4249 2.915,0.7459 2.821,1.2169 C2.589,2.3819 2.01,3.5519 1.154,4.5919 C0.858,4.9509 0.887,5.4789 1.196,5.8259 L1.236,5.8709 C1.632,6.3119 2.335,6.3029 2.71,5.8439 C3.754,4.5659 4.473,3.0739 4.771,1.6049 C4.885,1.0379 4.458,0.5009 3.881,0.4619 L3.826,0.4579 Z" id="Fill-18" fill="#273637" mask="url(#mask-5)"></path>
                </g>
                <g id="Group-23" transform="translate(10.000000, 15.000000)">
                    <mask id="mask-7" fill="white">
                        <use xlink:href="#path-6"></use>
                    </mask>
                    <g id="Clip-22"></g>
                    <path d="M3.6756,0.4453 C2.9346,0.7643 2.1526,0.9493 1.3636,0.9983 C0.8746,1.0303 0.4876,1.4163 0.4596,1.9053 L0.4566,1.9703 C0.4236,2.5503 0.9066,3.0353 1.4866,2.9983 C2.5046,2.9333 3.5106,2.6963 4.4646,2.2843 C4.9976,2.0533 5.2126,1.4073 4.9236,0.9033 L4.8916,0.8483 C4.6476,0.4233 4.1256,0.2523 3.6756,0.4453" id="Fill-21" fill="#273637" mask="url(#mask-7)"></path>
                </g>
                <path d="M16.2421,1.7568 C15.7751,1.4208 15.1191,1.5688 14.8331,2.0668 C14.5811,2.5048 14.7171,3.0558 15.1341,3.3428 C16.4751,4.2658 17.2911,5.7898 17.6681,7.0998 C17.8031,7.5708 18.2501,7.8808 18.7371,7.8128 L18.7881,7.8058 C19.3671,7.7248 19.7511,7.1508 19.5931,6.5868 C19.1691,5.0688 18.3391,3.6358 17.0951,2.4588 C16.8241,2.2028 16.5381,1.9698 16.2421,1.7568" id="Fill-24" fill="#273637"></path>
            </g>
        </g>
    </g>
</svg>
