<?xml version="1.0" encoding="UTF-8"?>
<svg width="24px" height="24px" viewBox="0 0 24 24" version="1.1" xmlns="http://www.w3.org/2000/svg" xmlns:xlink="http://www.w3.org/1999/xlink">
    <title>Icons/Full Set/Restore/Restore to Original User</title>
    <defs>
        <filter id="filter-1">
            <feColorMatrix in="SourceGraphic" type="matrix" values="0 0 0 0 0.152941 0 0 0 0 0.211765 0 0 0 0 0.215686 0 0 0 1.000000 0"></feColorMatrix>
        </filter>
        <polygon id="path-2" points="0 0 17.9423727 0 17.9423727 17.9995 0 17.9995"></polygon>
    </defs>
    <g id="Icons/Full-Set/Restore/Restore-to-Original-User" stroke="none" stroke-width="1" fill="none" fill-rule="evenodd">
        <g filter="url(#filter-1)" id="Group-8">
            <g transform="translate(3.000000, 3.000000)">
                <path d="M8.9429,14.1998 C10.8429,14.1998 12.5429,13.0998 13.4429,11.4998 C12.1429,10.8008 10.5429,10.3998 8.9429,10.3998 C7.3429,10.3998 5.8429,10.8008 4.4429,11.4998 C5.3429,13.0998 7.0429,14.1998 8.9429,14.1998" id="Fill-1" fill="#273637"></path>
                <path d="M11.2428,6.2999 C11.2428,4.9999 10.2428,3.9999 8.9428,3.9999 C7.6428,3.9999 6.6428,4.9999 6.6428,6.2999 C6.6428,7.5999 7.6428,8.5999 8.9428,8.5999 C10.2428,8.5999 11.2428,7.5999 11.2428,6.2999" id="Fill-3" fill="#273637"></path>
                <g id="Group-7">
                    <mask id="mask-3" fill="white">
                        <use xlink:href="#path-2"></use>
                    </mask>
                    <g id="Clip-6"></g>
                    <path d="M9.0636,0.0005 C6.5876,-0.0315 4.3556,0.9235 2.7156,2.4925 L1.7796,1.5655 C1.4296,1.2195 0.8346,1.4175 0.7626,1.9045 L0.1966,5.7155 C0.1366,6.1165 0.4826,6.4595 0.8836,6.3965 L4.6956,5.7975 C5.1826,5.7215 5.3756,5.1245 5.0246,4.7775 L4.1366,3.8985 C5.5546,2.5635 7.5326,1.8145 9.7116,2.0395 C12.9346,2.3735 15.5666,5.0015 15.9016,8.2235 C16.3456,12.4795 13.0986,15.9995 8.9426,15.9995 C5.3356,15.9995 2.4096,13.3265 1.9906,9.8385 C1.9316,9.3435 1.5066,8.9755 1.0076,8.9825 C0.9976,8.9825 0.9876,8.9825 0.9776,8.9825 C0.3926,8.9915 -0.0614,9.5065 0.0066,10.0875 C0.5376,14.5675 4.3116,17.9995 8.9426,17.9995 C14.0306,17.9995 18.0836,13.8575 17.9386,8.7355 C17.8066,3.9845 13.8156,0.0615 9.0636,0.0005" id="Fill-5" fill="#273637" mask="url(#mask-3)"></path>
                </g>
            </g>
        </g>
    </g>
</svg>
