<?xml version="1.0" encoding="UTF-8"?>
<svg width="24px" height="24px" viewBox="0 0 24 24" version="1.1" xmlns="http://www.w3.org/2000/svg" xmlns:xlink="http://www.w3.org/1999/xlink">
    <title>Icons/Full Set/Restore/Restore to Original Channel</title>
    <g id="Icons/Full-Set/Restore/Restore-to-Original-Channel" stroke="none" stroke-width="1" fill="none" fill-rule="evenodd">
        <path d="M12.064,3.0008 C16.816,3.0618 20.807,6.9848 20.939,11.7358 C21.084,16.8578 17.031,20.9998 11.943,20.9998 C7.312,20.9998 3.538,17.5678 3.007,13.0878 C2.939,12.5068 3.393,11.9918 3.978,11.9828 L3.978,11.9828 L4.008,11.9828 C4.507,11.9758 4.932,12.3438 4.991,12.8388 C5.41,16.3268 8.336,18.9998 11.943,18.9998 C16.099,18.9998 19.346,15.4798 18.902,11.2238 C18.567,8.0018 15.935,5.3738 12.712,5.0398 C10.533,4.8148 8.555,5.5638 7.137,6.8988 L7.137,6.8988 L8.025,7.7778 C8.376,8.1248 8.183,8.7218 7.696,8.7978 L7.696,8.7978 L3.884,9.3968 C3.483,9.4598 3.137,9.1168 3.197,8.7158 L3.197,8.7158 L3.763,4.9048 C3.835,4.4178 4.43,4.2198 4.78,4.5658 L4.78,4.5658 L5.716,5.4928 C7.356,3.9238 9.588,2.9688 12.064,3.0008 Z M16.2308,14.0494 C16.5308,14.2494 16.8308,14.5494 17.0308,14.8494 L17.0308,15.7494 L9.5308,15.7494 L9.5308,14.8494 C11.1308,12.8494 14.1308,12.4504 16.2308,14.0494 Z M9.1308,12.25 C9.8308,12.25 10.4308,12.55 11.0308,12.95 C10.3308,13.15 9.6308,13.55 9.0308,14.05 L6.6308,14.05 L6.6308,13.45 C7.2308,12.65 8.2308,12.25 9.1308,12.25 Z M13.2304,8.2502 C14.3304,8.2502 15.1304,9.1502 15.1304,10.1502 C15.1304,11.2502 14.2304,12.0492 13.2304,12.0492 C12.2304,12.0492 11.3304,11.1502 11.3304,10.1502 C11.3304,9.0492 12.2304,8.2502 13.2304,8.2502 Z M9.1306,9.1504 C9.7906,9.1504 10.3306,9.6904 10.3306,10.3494 C10.3306,11.0094 9.7906,11.5494 9.1306,11.5494 C8.4706,11.5494 7.9306,11.0094 7.9306,10.3494 C7.9306,9.6904 8.4706,9.1504 9.1306,9.1504 Z" id="Combined-Shape" fill="#273637"></path>
    </g>
</svg>