<?xml version="1.0" encoding="UTF-8"?>
<svg width="24px" height="24px" viewBox="0 0 24 24" version="1.1" xmlns="http://www.w3.org/2000/svg" xmlns:xlink="http://www.w3.org/1999/xlink">
    <title>Icons/Full Set/Restore/Tablespace Recovery</title>
    <g id="Icons/Full-Set/Restore/Tablespace-Recovery" stroke="none" stroke-width="1" fill="none" fill-rule="evenodd">
        <path d="M6.643,5.51843273 C10.046,2.20143273 15.642,2.15343273 19.095,5.41943273 C22.819,8.93843273 22.882,14.7334327 19.284,18.3314327 C16.01,21.6054327 10.914,21.8474327 7.371,19.0554327 C6.912,18.6924327 6.869,18.0074327 7.276,17.5874327 C7.283,17.5804327 7.291,17.5734327 7.298,17.5664327 C7.645,17.2084327 8.206,17.1684327 8.598,17.4764327 C11.361,19.6464327 15.32,19.4674327 17.87,16.9174327 C20.809,13.9784327 20.616,9.19343273 17.293,6.49743273 C14.777,4.45643273 11.058,4.45943273 8.543,6.50243273 C6.843,7.88343273 5.974,9.81243273 5.915,11.7584327 L5.915,11.7584327 L7.165,11.7524327 C7.658,11.7494327 7.944,12.3084327 7.653,12.7064327 L7.653,12.7064327 L5.381,15.8254327 C5.142,16.1534327 4.655,16.1554327 4.414,15.8294327 L4.414,15.8294327 L2.119,12.7344327 C1.826,12.3394327 2.107,11.7784327 2.599,11.7754327 L2.599,11.7754327 L3.916,11.7694327 C3.966,9.50043273 4.869,7.24643273 6.643,5.51843273 Z M14.9433,10.4335327 C15.1643,10.4335327 15.3433,10.6125327 15.3433,10.8335327 L15.3433,10.8335327 L15.3433,14.5345327 L14.5993,14.5345327 C13.1967545,14.5595782 12.9368785,14.7934666 12.6975477,15.0687168 L12.6213438,15.1568175 L12.6213438,15.1568175 L12.5813,15.2015327 C12.0993,15.7245327 11.5883,16.1275327 9.8123,16.1645327 L9.8123,16.1645327 L9.0403,16.1645327 L9.0403,11.1595327 C9.0403,10.7585327 9.3763,10.4335327 9.7903,10.4335327 L9.7903,10.4335327 Z M14.3433,11.4335327 L10.0403,11.4335327 L10.0403,15.1575327 C11.3133,15.1015327 11.5613,14.8315327 11.8463,14.5235327 C12.3223,14.0075327 12.6353,13.6045327 14.3433,13.5405327 L14.3433,13.5405327 L14.3433,11.4335327 Z M16.5403,8.42663273 C16.9543,8.42663273 17.2903,8.75163273 17.2903,9.15263273 L17.2903,9.15263273 L17.2903,12.7616327 C17.2903,13.0376327 17.0663,13.2616327 16.7903,13.2616327 L16.7903,13.2616327 L16.2903,13.2616327 L16.2903,9.77663273 C16.2903,9.58363273 16.1333,9.42663273 15.9403,9.42663273 L15.9403,9.42663273 L10.5403,9.42663273 L10.5403,8.92663273 C10.5403,8.65063273 10.7643,8.42663273 11.0403,8.42663273 L11.0403,8.42663273 Z" id="Combined-Shape" fill="#273637"></path>
    </g>
</svg>