<?xml version="1.0" encoding="UTF-8"?>
<svg width="24px" height="24px" viewBox="0 0 24 24" version="1.1" xmlns="http://www.w3.org/2000/svg" xmlns:xlink="http://www.w3.org/1999/xlink">
    <title>Icons/Full Set/VM/Hyper-V VMs</title>
    <g id="Icons/Full-Set/VM/Hyper-V-VMs" stroke="none" stroke-width="1" fill="none" fill-rule="evenodd">
        <path d="M19.4,3 C20.3,3 20.9,3.7 20.9,4.5 L20.9,4.5 L20.9,14.2 C20.9,15 20.2,15.7 19.4,15.7 L19.4,15.7 L13,15.7 L13,18.4 L16,18.4 C16.6,18.4 17,18.8 17,19.4 C17,20 16.6,20.4 16,20.4 L16,20.4 L8,20.4 C7.4,20.4 7,20 7,19.4 C7,18.8 7.4,18.4 8,18.4 L8,18.4 L11,18.4 L11,15.7 L4.6,15.7 C3.8,15.7 3.1,15 3.1,14.2 L3.1,14.2 L3.1,4.5 C3.1,3.7 3.7,3 4.6,3 L4.6,3 Z M19,5 L5.1,5 L5.1,13.7 L19,13.7 L19,5 Z M14.4613,9.5144 L14.4613,12.3504 L11.9073,11.8984 L11.9073,9.5144 L14.4613,9.5144 Z M11.3348,9.5151 L11.3348,11.7831 L9.6388,11.4561 L9.6388,9.5151 L11.3348,9.5151 Z M14.4613,6.3498 L14.4613,8.9468 L11.9073,8.9468 L11.9073,6.7568 L14.4613,6.3498 Z M11.3398,6.7879 L11.3398,8.9419 L9.6388,8.9419 L9.6388,7.0979 L11.3398,6.7879 Z" id="Combined-Shape" fill="#273637"></path>
    </g>
</svg>
