<svg xmlns="http://www.w3.org/2000/svg" xmlns:xlink="http://www.w3.org/1999/xlink" viewBox="0 0 2500 2500"><defs><linearGradient id="a5c2ed87-e52a-4106-b9c4-1d97a9339444" x1="118.3" y1="100.53" x2="22.26" y2="304.53" gradientUnits="userSpaceOnUse"><stop offset="0" stop-color="#90e5ff"/><stop offset="1" stop-color="#1da1dc"/></linearGradient><linearGradient id="bb9d2270-7709-4a3f-8761-4f422ead3c65" x1="304.17" y1="547.09" x2="11.31" y2="-120.79" gradientTransform="translate(220.34 -34.97) rotate(59.84)" gradientUnits="userSpaceOnUse"><stop offset="0.1" stop-color="#141226"/><stop offset="0.69" stop-color="#27244b"/></linearGradient><filter id="ee205cc7-6ec1-4aa7-8635-e2ba09263398" name="AI_DesenfoqueGaussiano_7"><feGaussianBlur stdDeviation="7"/></filter><linearGradient id="ad37f20f-42ba-4563-a7d4-bc2a679fbf4f" x1="292.14" y1="911.16" x2="175.51" y2="943.26" gradientTransform="matrix(-0.95, 0.32, 0.32, 0.95, 487.25, 98.53)" gradientUnits="userSpaceOnUse"><stop offset="0" stop-color="#52d6ff" stop-opacity="0.1"/><stop offset="0.02" stop-color="#45cffa" stop-opacity="0.1"/><stop offset="0.15" stop-color="#20bcec" stop-opacity="0.1"/><stop offset="0.87" stop-color="#0071b0" stop-opacity="0.3"/></linearGradient><linearGradient id="a7414f9f-a340-4fbb-ac1c-95a210c83d05" x1="397.68" y1="1063.67" x2="876.99" y2="1233.01" gradientUnits="userSpaceOnUse"><stop offset="0" stop-color="#52d6ff" stop-opacity="0"/><stop offset="0.07" stop-color="#3fccf8" stop-opacity="0.04"/><stop offset="0.22" stop-color="#28c0ef" stop-opacity="0.08"/><stop offset="0.37" stop-color="#20bcec" stop-opacity="0.1"/><stop offset="0.86" stop-color="#0071b0" stop-opacity="0.6"/></linearGradient><linearGradient id="a6db2744-08d2-40ee-b6e7-39c51761eb30" x1="69.72" y1="1465.21" x2="657.14" y2="1662.29" xlink:href="#a7414f9f-a340-4fbb-ac1c-95a210c83d05"/><linearGradient id="a0a99be5-f67e-414b-a713-1fbf0ad03bd5" x1="68.15" y1="1469.88" x2="655.57" y2="1666.97" xlink:href="#a7414f9f-a340-4fbb-ac1c-95a210c83d05"/><linearGradient id="be46d476-6b12-4f28-84cf-b853173c81ec" x1="1250.89" y1="1342.11" x2="1990.22" y2="1342.11" gradientUnits="userSpaceOnUse"><stop offset="0.01" stop-color="#00b287"/><stop offset="0.33" stop-color="#08ad9f"/><stop offset="1" stop-color="#1da1dc"/></linearGradient><linearGradient id="fc18548b-0be9-4d31-8d00-fdb84c15d42e" x1="1346.48" y1="2076.88" x2="1906.22" y2="636.57" xlink:href="#be46d476-6b12-4f28-84cf-b853173c81ec"/><linearGradient id="b7e9fa06-f973-40c5-aa8c-d6134866a5c3" x1="1337.91" y1="2071.47" x2="1915.49" y2="585.26" gradientUnits="userSpaceOnUse"><stop offset="0.01" stop-color="#61eebb"/><stop offset="0.4" stop-color="#72ebd3"/><stop offset="1" stop-color="#90e5ff"/></linearGradient><linearGradient id="f7811de5-fbe3-4649-b17e-2b2c1509f142" x1="1125.38" y1="2188.27" x2="843.72" y2="1960.26" gradientTransform="matrix(-1, 0, 0, 1, 2288.09, 0)" gradientUnits="userSpaceOnUse"><stop offset="0" stop-color="#141226" stop-opacity="0.5"/><stop offset="0.8" stop-color="#141226" stop-opacity="0"/></linearGradient><linearGradient id="bb74914d-c683-4285-9632-cac3e0054f34" x1="1388.93" y1="1455.39" x2="945.45" y2="1660.35" gradientUnits="userSpaceOnUse"><stop offset="0.39" stop-color="#01171a" stop-opacity="0"/><stop offset="1" stop-color="#01171a"/></linearGradient><linearGradient id="fc1030b0-7ef8-49e4-b65e-e0449746cb72" x1="1153.54" y1="1383.05" x2="764" y2="2060.57" gradientUnits="userSpaceOnUse"><stop offset="0" stop-color="#0071b0" stop-opacity="0.5"/><stop offset="0.16" stop-color="#0071b0"/><stop offset="0.31" stop-color="#0071b0" stop-opacity="0.99"/><stop offset="0.41" stop-color="#0071b0" stop-opacity="0.94"/><stop offset="0.49" stop-color="#0071b0" stop-opacity="0.86"/><stop offset="0.56" stop-color="#0071b0" stop-opacity="0.74"/><stop offset="0.63" stop-color="#0071b0" stop-opacity="0.59"/><stop offset="0.69" stop-color="#0071b0" stop-opacity="0.4"/><stop offset="0.74" stop-color="#0071b0" stop-opacity="0.19"/><stop offset="0.78" stop-color="#0071b0" stop-opacity="0"/></linearGradient><linearGradient id="aa1d2b6f-e0e2-46b3-a93c-f43af89d4d43" x1="575.41" y1="1251.29" x2="1215.34" y2="1727.04" gradientUnits="userSpaceOnUse"><stop offset="0" stop-color="#d4ecf6" stop-opacity="0.1"/><stop offset="0.01" stop-color="#d4ecf6" stop-opacity="0.15"/><stop offset="0.03" stop-color="#d4ecf6" stop-opacity="0.26"/><stop offset="0.06" stop-color="#d4ecf6" stop-opacity="0.35"/><stop offset="0.09" stop-color="#d4ecf6" stop-opacity="0.42"/><stop offset="0.13" stop-color="#d4ecf6" stop-opacity="0.46"/><stop offset="0.19" stop-color="#d4ecf6" stop-opacity="0.49"/><stop offset="0.34" stop-color="#d4ecf6" stop-opacity="0.5"/><stop offset="0.41" stop-color="#d4ecf6" stop-opacity="0.5"/><stop offset="0.41" stop-color="#d4ecf6" stop-opacity="0.48"/><stop offset="0.45" stop-color="#d4ecf6" stop-opacity="0.35"/><stop offset="0.49" stop-color="#d4ecf6" stop-opacity="0.24"/><stop offset="0.53" stop-color="#d4ecf6" stop-opacity="0.15"/><stop offset="0.59" stop-color="#d4ecf6" stop-opacity="0.08"/><stop offset="0.65" stop-color="#d4ecf6" stop-opacity="0.04"/><stop offset="0.74" stop-color="#d4ecf6" stop-opacity="0.01"/><stop offset="0.99" stop-color="#d4ecf6" stop-opacity="0"/></linearGradient><linearGradient id="ff57eb06-edb4-43ad-a900-d245253961bb" x1="1371.44" y1="1448.55" x2="1371.44" y2="1740.67" gradientUnits="userSpaceOnUse"><stop offset="0" stop-color="#141226" stop-opacity="0"/><stop offset="0.17" stop-color="#141226" stop-opacity="0.5"/><stop offset="0.64" stop-color="#141226" stop-opacity="0.44"/><stop offset="0.87" stop-color="#141226" stop-opacity="0.25"/><stop offset="1" stop-color="#141226" stop-opacity="0"/></linearGradient><linearGradient id="ed85cd13-21a0-4251-9e1d-2b26032ed010" x1="1419.77" y1="1582.84" x2="1404.52" y2="1759.97" gradientUnits="userSpaceOnUse"><stop offset="0.01" stop-color="#12abbb"/><stop offset="0.22" stop-color="#0ca0b3"/><stop offset="0.67" stop-color="#038ea6"/><stop offset="1" stop-color="#0088a1"/></linearGradient><linearGradient id="b036822f-279b-4e65-b5db-ab5d4d281d84" x1="1449.67" y1="1498.4" x2="1543.89" y2="1440.34" gradientUnits="userSpaceOnUse"><stop offset="0.01" stop-color="#12abbb"/><stop offset="0.31" stop-color="#099aae"/><stop offset="0.67" stop-color="#028da4"/><stop offset="1" stop-color="#0088a1"/></linearGradient><linearGradient id="ac979134-1ce1-4455-86b2-c6ae5d7bb8a9" x1="1302.51" y1="1673.29" x2="1384.68" y2="1506.25" gradientUnits="userSpaceOnUse"><stop offset="0.01" stop-color="#12abbb"/><stop offset="0.31" stop-color="#11a9ba"/><stop offset="0.41" stop-color="#0ea2b5"/><stop offset="0.49" stop-color="#0797ac"/><stop offset="0.55" stop-color="#0088a1"/><stop offset="0.98" stop-color="#0088a1"/><stop offset="1" stop-color="#0088a1"/></linearGradient><linearGradient id="b56ecfaf-e6d9-4595-b4cc-39ab49fc17f7" x1="1409.37" y1="1469.68" x2="1467.21" y2="1361.69" xlink:href="#ac979134-1ce1-4455-86b2-c6ae5d7bb8a9"/><symbol id="be4838f3-6d43-4442-b1b8-e8687d0b621b" data-name="Circle Tick-Upgrade-Calendar 2" viewBox="0 0 271.49 342.37"><g id="ee4ae9fe-0143-4c28-949e-8014db517e05" data-name="Circle Tick upgrade Calendar"><g style="isolation:isolate"><path d="M223.68,8.84C199.87-5,166.9-3,130.51,18,58.2,59.71-.23,160.92,0,244c.12,41.28,14.69,70.33,38.2,84l9.61,5.54c-23.5-13.66-38.08-42.71-38.19-84-.24-83.09,58.19-184.3,130.51-226,36.39-21,69.36-23,93.17-9.12Z" fill="url(#a5c2ed87-e52a-4106-b9c4-1d97a9339444)"/><ellipse cx="140.55" cy="173.96" rx="184.57" ry="106.91" transform="translate(-80.47 208.07) rotate(-59.84)" fill="url(#bb9d2270-7709-4a3f-8761-4f422ead3c65)"/></g></g><g id="e3bbfb9d-5c78-4e58-a00b-1c741321e613" data-name="Drop shadow" filter="url(#ee205cc7-6ec1-4aa7-8635-e2ba09263398)"><path d="M191.08,162.91c5.16,1.33,9.38,4.26,13.13,7.47.94.54,1.41,1.88,1.41,3.49v21.5L71.51,272.8V251.3a10.62,10.62,0,0,1,1.4-5.11C102,188,154.51,150.7,191.08,162.91ZM81.35,247.23l-.47,9.41L196.24,190V180.9A30.17,30.17,0,0,0,185,174.5C153.1,164.42,107.14,196.32,81.35,247.23Zm57.21-165.8c19.31-11.15,35-2.65,35.62,19l0,1.31c0,22.58-15.94,50.06-35.64,61.43s-35.64,2.3-35.64-20.28S118.87,92.8,138.56,81.43Zm0,10.21C124,100,112.3,120.24,112.3,136.9s11.73,23.34,26.26,14.94c14.19-8.19,25.7-27.64,26.24-44.06l0-1.2C164.82,89.92,153.1,83.25,138.56,91.64Z"/></g><path id="acdbf42f-fdc8-4d0b-814d-1042acc25e74" data-name="User icon" d="M194.82,167c5.16,1.32,9.38,4.26,13.13,7.47.94.53,1.4,1.88,1.4,3.49v21.5L75.24,276.85v-21.5a10.49,10.49,0,0,1,1.41-5.11C105.72,192.06,158.24,154.75,194.82,167ZM85.09,251.27l-.47,9.41L200,194.08V185a30.31,30.31,0,0,0-11.26-6.41C156.83,168.46,110.88,200.37,85.09,251.27ZM142.3,85.47c19.31-11.15,35-2.64,35.62,19l0,1.31c0,22.58-15.95,50.06-35.64,61.43s-35.64,2.3-35.64-20.28S122.6,96.84,142.3,85.47Zm0,10.22C127.76,104.08,116,124.29,116,141s11.72,23.33,26.26,14.94c14.19-8.19,25.7-27.64,26.24-44.07l0-1.19C168.56,94,156.83,87.29,142.3,95.69Z" fill="#d3f2fb" fill-opacity="0.95"/></symbol></defs><g style="isolation:isolate"><g id="a50da38f-388a-4065-b23d-9670f73c9767" data-name="ARTWORK"><g id="b0ca98bb-2faa-4907-a1c2-a586e932c209" data-name="Plant"><g id="fadf03fa-c89c-4ce0-8819-e2730a2303fe" data-name="Layer1 8 MEMBER 0 FILL"><path d="M744.05,1649.73l-6.71,3.63q-47.91-82.18-50.62-242.9l16.9-17.49q-15.92,122,40.43,256.76M609,1506.49l3.79-3.94q58.83,77.16,86.39,156.6l-11.72,3.9Q665.65,1586.25,609,1506.49Z" fill="#0b97c2"/></g><g id="e11fc551-94b8-4abb-888a-ac07bef013aa" data-name="Layer1 8 MEMBER 1 FILL"><path d="M572.73,961.19q79.15,294.16,95.72,636.2-234.26-168.33-332.52-510.78T370.23,511Q527.52,793.32,572.73,961.19Z" fill="#52d6ff"/></g><g id="b1d97b31-1a36-4a33-bab2-61ba70f1f93d" data-name="Layer1 8 MEMBER 1 FILL"><path d="M572.73,961.19q79.15,294.16,95.72,636.2-234.26-168.33-332.52-510.78T370.23,511Q527.52,793.32,572.73,961.19Z" fill="url(#ad37f20f-42ba-4563-a7d4-bc2a679fbf4f)"/></g><g id="e5d1e10d-54bb-4a5f-8a9d-18e8ee45c1fb" data-name="Layer1 8 MEMBER 2 FILL"><path d="M729,696.86q93.66,124.89,108.37,298.37T734.05,1372.39q-49.74,105.63-25.25,202-42.69-62.73-81.15-196.12t-4.75-319.54Q642.51,878.64,729,696.86Z" fill="#20bcec"/></g><path d="M734.69,689.35h0l.12,0-.12,0m-24.28,370.42v.38q34.74-191.66,28.28-293.5,11.44,124.94-13.92,295.62a.41.41,0,0,0,0,.27Q677.27,1308.72,707,1451.08a286.41,286.41,0,0,0-6.29,56.33Q636.58,1374.75,710.41,1059.77Z" fill="#00a7d4"/><path d="M669.47,1598.45q-5.65-4.1-11.27-8.25c-130-254.56-244.56-775.09-288.08-1060.91,59.5,299.56,174.56,761.61,296.7,1041.45C667.75,1580,668.61,1589.21,669.47,1598.45Z" fill="#00a7d4"/><g id="ac2e0896-a138-4c18-a263-65c4ac6b3d2b" data-name="Layer1 8 MEMBER 2 FILL"><path d="M302.83,1441.85c141.25.86,326.21,106.21,392.44,227.1,21,38.41,8.75-7.14,28.31,14.65C557.23,1692.76,359.89,1605.39,302.83,1441.85Z" fill="#20bcec"/></g><path d="M670.49,1668.72a103.52,103.52,0,0,0-2.23-12.6c-119.58-63.27-236.61-131-351.76-202,116.15,74.63,233.73,146.92,354,214.73A.66.66,0,0,1,670.49,1668.72Z" fill="#00a7d4"/><g style="mix-blend-mode:multiply"><path d="M734.05,1372.39Q852,1168.77,837.39,995.23T729,696.86q-86.5,181.77-106.12,361.88-6.72,37-10.57,71.86Q595,1044,572.73,961.19,527.52,793.33,370.23,511,237.75,744,335.93,1086.61q96,334.71,322,503.07l.26.52,1.64,1.2a449.54,449.54,0,0,1,23.37,57.67c-74.5-112.33-246.94-206.41-380.38-207.22,55,157.68,240.43,244.53,402.76,242.35-2.11-1.62-5.25-6-10.32-15.25-1.31-2.39-2.68-4.77-4.07-7.14l8-2.66a502.55,502.55,0,0,0-30.59-70q-.6-6.4-1.23-12.8-2.72-49.94-6.78-98.82,21.3,55,43.8,90.14,12.25,50.15,33,85.66l6.71-3.63q-35.32-84.49-42.24-164Q706.72,1430.47,734.05,1372.39Z" fill="url(#a7414f9f-a340-4fbb-ac1c-95a210c83d05)"/><path d="M709,1684.15c4.9-.11,9.78-.28,14.63-.55C712.2,1670.92,711.6,1681,709,1684.15Z" fill="url(#a6db2744-08d2-40ee-b6e7-39c51761eb30)"/><path d="M709,1684.15l-3.36,0C707.14,1685.39,708.14,1685.1,709,1684.15Z" fill="url(#a0a99be5-f67e-414b-a713-1fbf0ad03bd5)"/></g></g><g id="bf6bb4d9-1725-461c-8b92-21b263d96a6d" data-name="Connector lines"><path d="M1980.22,1115.63v224.08c0,6.55-2.06,11.5-5.65,13.57s-8.89,1.38-14.57-1.9l-223.09-128.69V575.11h-10v641.81l-218.08-125.81c-13.67-7.89-25.22-27.88-25.22-43.66v-223h-10v223c0,19.23,13.56,42.7,30.22,52.32l223.08,128.69v567.86c0,15.78-11.54,35.78-25.2,43.68l-450.82,260.45,5,8.66,450.82-260.46c16.65-9.62,30.2-33.1,30.2-52.33V1234.23L1955,1360.05a30,30,0,0,0,14.82,4.44,19.32,19.32,0,0,0,9.76-2.55c6.86-4,10.64-11.86,10.64-22.23V1115.63Z" fill-opacity="0.2" fill="url(#be46d476-6b12-4f28-84cf-b853173c81ec)"/><path d="M1987.22,1115.63v224.08c0,9.25-3.25,16.23-9.15,19.63a16.28,16.28,0,0,1-8.26,2.14,27,27,0,0,1-13.31-4L1733.91,1229v567.28c0,18.28-12.87,40.59-28.7,49.74l-450.82,260.45-2-3.46,450.82-260.46c14.72-8.5,26.7-29.26,26.7-46.27V1226.73l-224.58-129.56c-15.83-9.14-28.72-31.44-28.72-49.72v-223h4v223c0,17,12,37.76,26.72,46.25l222.58,128.41v-647h4v649.31L1958.5,1354c6.73,3.88,13,4.56,17.57,1.9s7.15-8.41,7.15-16.17V1115.63Z" opacity="0.65" fill="url(#fc18548b-0be9-4d31-8d00-fdb84c15d42e)"/><g id="a2406998-e39a-415f-af08-fe155d9064d1" data-name="Connector Lines"><path id="ab4ec2da-0345-4d38-9b56-fe1436c45af9" data-name="Connector Lines" d="M1987.22,1060.9v278.61c0,9.25-3.25,16.23-9.15,19.63a16.28,16.28,0,0,1-8.26,2.14,27,27,0,0,1-13.31-4l-222.59-128.41v567.48c0,18.28-12.87,40.59-28.7,49.74l-450.82,260.45-2-3.46,450.82-260.46c14.72-8.5,26.7-29.26,26.7-46.27V1226.53L1505.33,1097c-15.83-9.14-28.72-31.44-28.72-49.72V769.68h4v277.57c0,17,12,37.76,26.72,46.26l222.58,128.4V520.38h4v703.84l224.59,129.56c6.73,3.88,13,4.56,17.57,1.9s7.15-8.41,7.15-16.17V1060.9Z" opacity="0.65" fill="url(#b7e9fa06-f973-40c5-aa8c-d6134866a5c3)"/></g></g><g id="f7f58c62-26e2-4221-af39-e4b7ef79c5bd" data-name="Folder"><polygon id="aa85cf3f-b260-438e-b46b-06d902703c98" data-name="Shadow folder" points="1295.05 2215.31 1795.77 2215.31 1149.43 1844.55 826.27 1921.1 1295.05 2215.31" fill="url(#f7811de5-fbe3-4649-b17e-2b2c1509f142)"/><g id="b67cb6ab-c865-47b6-9a5c-fcc02f6861e8" data-name="inside folder"><path d="M780.94,1039.17q6.48-2.28,14.48.54c2.22,1,4.45,2,6.67,3l.54.34,274.87,150.4,66.26,131.19L1384.51,1474q14.41,8.34,24.58,26a78.52,78.52,0,0,1,8.19,19.43,58.19,58.19,0,0,1,1.92,14.72l-1.33,493q-.58,18.4-6.43,41a213,213,0,0,1-15.65,41.57c-.12.22-.24.43-.34.63a187.34,187.34,0,0,1-23.6,36.17q-13.8,16.38-28.81,25.37l-11.68,7q-15.06,9-28.85,9.13-13.3.2-97.45-48.33t-68.21-51.92q15.87-3.4-369.6-782.67h.1l-.05,0,.4-242q0-16.59,10.25-22.42l.54-.3a.21.21,0,0,0,.1,0c.78-.32,1.56-.67,2.35-1M973.4,1366.79c-2-1.19-3.08-1.68-3.29-1.47l-.84.84Z" fill="#022e49"/><path d="M780.94,1039.17q6.48-2.28,14.48.54c2.22,1,4.45,2,6.67,3l.54.34,274.87,150.4,59,133.84,248,146.67q14.41,8.34,24.58,26a78.52,78.52,0,0,1,8.19,19.43,58.19,58.19,0,0,1,1.92,14.72l-1.33,493q-.58,18.4-6.43,41a213,213,0,0,1-15.65,41.57c-.12.22-.24.43-.34.63a187.34,187.34,0,0,1-23.6,36.17q-13.8,16.38-28.81,25.37l-11.68,7q-15.06,9-28.85,9.13-13.3.2-97.45-48.33t-68.21-51.92q15.87-3.4-369.6-782.67h.1l-.05,0,.4-242q0-16.59,10.25-22.42l.54-.3a.21.21,0,0,0,.1,0c.78-.32,1.56-.67,2.35-1M973.4,1366.79c-2-1.19-3.08-1.68-3.29-1.47l-.84.84Z" fill="url(#bb74914d-c683-4285-9632-cac3e0054f34)"/></g><g id="f4f9bb02-dec8-476d-920b-46a82f445c88" data-name="Folder"><path d="M1270.65,2208.3a44.48,44.48,0,0,1-4.41-3q-12.6-9.9-19.53-28.31a100.91,100.91,0,0,1-3.68-12,139.54,139.54,0,0,1-3.53-32.59v8.12c-.12-2.54-.18-5.14-.18-7.78l-.15-110.7.33-201.86V1629.84c0-20.67-14.62-45.86-32.66-56.28l-545.73-316c-18-10.41-32.65-2.1-32.65,18.57v314.19l-.6,209.55q.92,14.82,10,30.52a74,74,0,0,0,17.27,20.85,56.45,56.45,0,0,0,7.31,5.06l541.29,314.83,6.24,3.58,60.5,33.91a41.84,41.84,0,0,1-3.68-2.5Z" fill="#202f64"/><path d="M1270.65,2208.3a44.48,44.48,0,0,1-4.41-3q-12.6-9.9-19.53-28.31a100.91,100.91,0,0,1-3.68-12,139.54,139.54,0,0,1-3.53-32.59v8.12c-.12-2.54-.18-5.14-.18-7.78l-.15-110.7.33-201.86V1629.84c0-20.67-14.62-45.86-32.66-56.28l-545.73-316c-18-10.41-32.65-2.1-32.65,18.57v314.19l-.6,209.55q.92,14.82,10,30.52a74,74,0,0,0,17.27,20.85,56.45,56.45,0,0,0,7.31,5.06l541.29,314.83,6.24,3.58,60.5,33.91a41.84,41.84,0,0,1-3.68-2.5Z" fill="url(#fc1030b0-7ef8-49e4-b65e-e0449746cb72)"/></g><path d="M1435.83,1515.23a73.67,73.67,0,0,0-9.47-25.37,84,84,0,0,0-9.07-12.9,61.1,61.1,0,0,0-15.46-13l-39.94-23.06-210.81-121.42-34.87-76,0-.1-2-4.35-9.49-20.65c-7.63-16.63-20-31-33.06-38.56L817.73,1033.23c-8.46-4.88-16.17-5.65-22-2.94l0,0-2.26,1.3,0,0-15.68,9.06a18.07,18.07,0,0,1,9.67-1.41,31.8,31.8,0,0,1,12.3,4.36l253.89,146.57c13.11,7.57,25.43,21.93,33.07,38.57l11.47,25,0,.1,34.14,74.41L1384.51,1474q14.41,8.36,24.58,26a79,79,0,0,1,8.2,19.43,58.57,58.57,0,0,1,1.91,14.72l-1.33,493q-.58,18.4-6.42,41a213.64,213.64,0,0,1-15.66,41.57c-.12.21-.24.43-.34.63a187,187,0,0,1-23.6,36.17q-13.8,16.38-28.81,25.37l-11.68,7q-15.08,9-28.85,9.13a36.22,36.22,0,0,1-23.6-7.9q-10.26-8.1-15.9-23.06a92.5,92.5,0,0,1-5.36-24.39c-.35-3.84-.53-7.82-.53-12l-.29-121,.51-384.16c-1.14-13.38-7.84-28.08-17.29-39.22a58.94,58.94,0,0,0-15.19-13.07L679.13,1247c-8.46-4.89-16.18-5.65-22-2.94h0l-2.25,1.31,0,0-15.69,9.06a18,18,0,0,1,9.67-1.42,32.23,32.23,0,0,1,12.31,4.36l545.73,316.11c18,10.42,32.66,35.61,32.66,56.28v190.28l-.33,201.86.15,110.7c0,.91,0,1.82,0,2.73,0,.57,0,1.12,0,1.68,0,.73,0,1.46.07,2.17,0,.41,0,.8,0,1.2h0q.06,1.67.18,3.3c0,.74.1,1.48.17,2.22,0,.55.09,1.09.14,1.64.14,1.59.32,3.15.52,4.7.06.49.12,1,.19,1.45.09.7.2,1.39.31,2.08.06.39.11.77.18,1.16s.17,1,.26,1.49c.17,1,.35,1.92.55,2.86a1.7,1.7,0,0,0,0,.22c.08.41.16.81.25,1.22.18.82.37,1.64.56,2.45q1.1,4.54,2.53,8.79c.37,1.09.75,2.17,1.15,3.23q6.93,18.41,19.53,28.32a44,44,0,0,0,4.42,3,4.21,4.21,0,0,0,.64.39,6.73,6.73,0,0,0,.78.44,44.57,44.57,0,0,0,23.16,5.84q16.88-.2,35.33-11.24l14.33-8.53q18.49-11,35.38-31.11a227.71,227.71,0,0,0,29-44.41q4.62-9.17,8.49-18.55a255.06,255.06,0,0,0,11.14-33.22,226.87,226.87,0,0,0,6.43-36.36l.44-48.09.59-429.61.39-30.13A55.27,55.27,0,0,0,1435.83,1515.23Z" fill="#1da1dc"/><path d="M1435.83,1515.23a73.67,73.67,0,0,0-9.47-25.37,84,84,0,0,0-9.07-12.9,61.1,61.1,0,0,0-15.46-13l-39.94-23.06-210.81-121.42-34.87-76,0-.1-2-4.35-9.49-20.65c-7.63-16.63-20-31-33.06-38.56L817.73,1033.23c-8.46-4.88-16.17-5.65-22-2.94l0,0-2.26,1.3,0,0-15.68,9.06a18.07,18.07,0,0,1,9.67-1.41,31.8,31.8,0,0,1,12.3,4.36l253.89,146.57c13.11,7.57,25.43,21.93,33.07,38.57l11.47,25,0,.1,34.14,74.41L1384.51,1474q14.41,8.36,24.58,26a79,79,0,0,1,8.2,19.43,58.57,58.57,0,0,1,1.91,14.72l-1.33,493q-.58,18.4-6.42,41a213.64,213.64,0,0,1-15.66,41.57c-.12.21-.24.43-.34.63a187,187,0,0,1-23.6,36.17q-13.8,16.38-28.81,25.37l-11.68,7q-15.08,9-28.85,9.13a36.22,36.22,0,0,1-23.6-7.9q-10.26-8.1-15.9-23.06a92.5,92.5,0,0,1-5.36-24.39c-.35-3.84-.53-7.82-.53-12l-.29-121,.51-384.16c-1.14-13.38-7.84-28.08-17.29-39.22a58.94,58.94,0,0,0-15.19-13.07L679.13,1247c-8.46-4.89-16.18-5.65-22-2.94h0l-2.25,1.31,0,0-15.69,9.06a18,18,0,0,1,9.67-1.42,32.23,32.23,0,0,1,12.31,4.36l545.73,316.11c18,10.42,32.66,35.61,32.66,56.28v190.28l-.33,201.86.15,110.7c0,.91,0,1.82,0,2.73,0,.57,0,1.12,0,1.68,0,.73,0,1.46.07,2.17,0,.41,0,.8,0,1.2h0q.06,1.67.18,3.3c0,.74.1,1.48.17,2.22,0,.55.09,1.09.14,1.64.14,1.59.32,3.15.52,4.7.06.49.12,1,.19,1.45.09.7.2,1.39.31,2.08.06.39.11.77.18,1.16s.17,1,.26,1.49c.17,1,.35,1.92.55,2.86a1.7,1.7,0,0,0,0,.22c.08.41.16.81.25,1.22.18.82.37,1.64.56,2.45q1.1,4.54,2.53,8.79c.37,1.09.75,2.17,1.15,3.23q6.93,18.41,19.53,28.32a44,44,0,0,0,4.42,3,4.21,4.21,0,0,0,.64.39,6.73,6.73,0,0,0,.78.44,44.57,44.57,0,0,0,23.16,5.84q16.88-.2,35.33-11.24l14.33-8.53q18.49-11,35.38-31.11a227.71,227.71,0,0,0,29-44.41q4.62-9.17,8.49-18.55a255.06,255.06,0,0,0,11.14-33.22,226.87,226.87,0,0,0,6.43-36.36l.44-48.09.59-429.61.39-30.13A55.27,55.27,0,0,0,1435.83,1515.23Z" fill="url(#aa1d2b6f-e0e2-46b3-a93c-f43af89d4d43)"/><path d="M1436.52,1524.06l-.39,30.13-.29,211.8-17.29,9.86.65-241.78a58.57,58.57,0,0,0-1.91-14.72,79,79,0,0,0-8.2-19.43q-10.15-17.62-24.58-26l-40-23.06-.36.21-37.85-21.73,18.69-10,37.19,21.35-.34.19,39.94,23.06a61.1,61.1,0,0,1,15.46,13,84,84,0,0,1,9.07,12.9,73.67,73.67,0,0,1,9.47,25.37A55.27,55.27,0,0,1,1436.52,1524.06Z" fill="url(#ff57eb06-edb4-43ad-a900-d245253961bb)"/></g><use id="aa130f50-436d-4c88-bcc8-54f692d9c5ad" data-name="User Icon" width="271.49" height="342.37" transform="matrix(-1, 0, 0, 1, 2120.96, 830.71)" xlink:href="#be4838f3-6d43-4442-b1b8-e8687d0b621b"/><use id="a86ed091-45d2-4550-a4eb-5cc01416ebf3" data-name="User Icon" width="271.49" height="342.37" transform="matrix(-1, 0, 0, 1, 1867.66, 284.68)" xlink:href="#be4838f3-6d43-4442-b1b8-e8687d0b621b"/><use id="e2bbcea8-3599-4d91-82ab-85ee3ee8778e" data-name="User Icon" width="271.49" height="342.37" transform="matrix(-1, 0, 0, 1, 1614.36, 537.95)" xlink:href="#be4838f3-6d43-4442-b1b8-e8687d0b621b"/><g id="a4d3bce5-53bf-4580-8bdd-c4322583a3b8" data-name="+ Teal"><g style="isolation:isolate"><path d="M1424,1696.63l-.29-101.81-20.61-12,.29,101.8c0,2.34.83,4,2.16,4.75l20.61,12C1424.87,1700.61,1424,1699,1424,1696.63Z" fill="url(#ed85cd13-21a0-4251-9e1d-2b26032ed010)"/><path d="M1560.82,1420.67c-1.35-.79-3.22-.68-5.28.51l-88.6,51.15,20.61,12,88.6-51.15c2.06-1.19,3.93-1.3,5.28-.52Z" fill="url(#b036822f-279b-4e65-b5db-ab5d4d281d84)"/><path d="M1402.93,1509.29l-88.59,51.15a16.28,16.28,0,0,0-7.39,12.81l.16,56.51c0,2.33.83,4,2.16,4.75l20.61,12c-1.33-.77-2.16-2.42-2.17-4.76l-.16-56.51a16.31,16.31,0,0,1,7.39-12.8l88.6-51.15Z" fill="url(#ac979134-1ce1-4455-86b2-c6ae5d7bb8a9)"/><path d="M1479.83,1378.27c4.09-2.37,7.42-.47,7.43,4.23l.29,101.81,88.6-51.15c4.1-2.37,7.43-.47,7.44,4.24l.16,56.51a16.28,16.28,0,0,1-7.39,12.8l-88.6,51.15.29,101.81a16.29,16.29,0,0,1-7.39,12.8l-49.18,28.39c-4.1,2.37-7.43.47-7.44-4.23l-.29-101.81-88.6,51.15c-4.09,2.37-7.42.47-7.44-4.24l-.16-56.51a16.31,16.31,0,0,1,7.39-12.8l88.6-51.15-.29-101.81a16.29,16.29,0,0,1,7.4-12.8Z" fill="#4dd2d2"/><path d="M1464.49,1365.77c-1.35-.78-3.21-.67-5.27.52L1410,1394.68a16.31,16.31,0,0,0-7.4,12.81l.29,101.8,20.61,12-.29-101.81a16.29,16.29,0,0,1,7.4-12.8l49.18-28.39c2.05-1.19,3.92-1.3,5.27-.52Z" fill="url(#b56ecfaf-e6d9-4595-b4cc-39ab49fc17f7)"/></g></g></g></g></svg>