<svg xmlns="http://www.w3.org/2000/svg" xmlns:xlink="http://www.w3.org/1999/xlink" viewBox="0 0 2500 2500"><defs><linearGradient id="ab2269b0-839c-45ed-91c7-15f2e0562f15" x1="763.56" y1="1497.32" x2="1005.6" y2="1393.15" gradientUnits="userSpaceOnUse"><stop offset="0" stop-color="#c2ebe8" stop-opacity="0.1"/><stop offset="0.17" stop-color="#8fe0d9" stop-opacity="0.1"/><stop offset="0.5" stop-color="#6ad8cf" stop-opacity="0.1"/><stop offset="0.87" stop-color="#43a39b" stop-opacity="0.3"/></linearGradient><linearGradient id="eb2f05ec-4942-40c5-ac2b-ef5e51284fb6" x1="577.18" y1="987.8" x2="915.73" y2="1076.66" gradientTransform="matrix(0.67, -0.75, 0.75, 0.67, -464.93, 983.5)" gradientUnits="userSpaceOnUse"><stop offset="0.06" stop-color="#c2ebe8" stop-opacity="0.1"/><stop offset="0.09" stop-color="#8fe0d9" stop-opacity="0.1"/><stop offset="0.15" stop-color="#6ad8cf" stop-opacity="0.1"/><stop offset="0.87" stop-color="#43a39b" stop-opacity="0.3"/></linearGradient><linearGradient id="b91f7d69-8201-4d8f-b85b-07f398b2fab3" x1="937.87" y1="468.38" x2="1041.34" y2="735.96" gradientTransform="translate(273.88 40.6) rotate(17.4)" gradientUnits="userSpaceOnUse"><stop offset="0" stop-color="#c2ebe8" stop-opacity="0.1"/><stop offset="0.05" stop-color="#8fe0d9" stop-opacity="0.1"/><stop offset="0.15" stop-color="#6ad8cf" stop-opacity="0.1"/><stop offset="0.87" stop-color="#43a39b" stop-opacity="0.3"/></linearGradient><linearGradient id="ec488be8-41da-4d19-9ab5-352d8dda40d6" x1="729.13" y1="-64.37" x2="975.31" y2="973.87" xlink:href="#b91f7d69-8201-4d8f-b85b-07f398b2fab3"/><linearGradient id="e67c7416-dd4e-43bc-bbf7-a0dc875d97e9" x1="640.02" y1="725.78" x2="1186.15" y2="867.23" gradientUnits="userSpaceOnUse"><stop offset="0.16" stop-color="#c2ebe8" stop-opacity="0"/><stop offset="0.22" stop-color="#a7e5e0" stop-opacity="0.03"/><stop offset="0.36" stop-color="#79dbd3" stop-opacity="0.08"/><stop offset="0.51" stop-color="#6ad8cf" stop-opacity="0.1"/><stop offset="1" stop-color="#43a39b" stop-opacity="0.6"/></linearGradient><filter id="b5a3067d-b387-476c-80b1-c0845755127f" name="AI_DesenfoqueGaussiano_7"><feGaussianBlur stdDeviation="7"/></filter><linearGradient id="f2ec1550-1542-44a1-bc31-f7a8c1ce2ac5" x1="1888.29" y1="1768.39" x2="900.92" y2="1015.31" gradientUnits="userSpaceOnUse"><stop offset="0.01" stop-color="#e5f4fa"/><stop offset="0.21" stop-color="#d4ecf6" stop-opacity="0.9"/><stop offset="0.66" stop-color="#f5f8fa"/><stop offset="1" stop-color="#fff"/></linearGradient><linearGradient id="abcfa63b-377e-4530-9886-818700307ac8" x1="1360.19" y1="1141.76" x2="1709.55" y2="868.85" gradientTransform="matrix(-1, 0, 0, 1, 2429.39, 0)" gradientUnits="userSpaceOnUse"><stop offset="0.32" stop-color="#d4ecf6" stop-opacity="0"/><stop offset="0.78" stop-color="#5d7586" stop-opacity="0.3"/></linearGradient><linearGradient id="b8b863f2-d6b8-4973-b113-645dc005ec4e" x1="1413.55" y1="789.97" x2="1776.64" y2="446.31" gradientTransform="matrix(-1, 0, 0, 1, 2429.39, 0)" gradientUnits="userSpaceOnUse"><stop offset="0" stop-color="#fff"/><stop offset="0.15" stop-color="#eef7fb"/><stop offset="0.16" stop-color="#e3f2f9"/><stop offset="0.18" stop-color="#d8eef7"/><stop offset="0.2" stop-color="#d4ecf6"/><stop offset="0.37" stop-color="#d4ecf6"/><stop offset="0.57" stop-color="#d4ecf6"/><stop offset="0.99" stop-color="#d4ecf6"/></linearGradient><linearGradient id="a463b992-8dfc-4e63-9346-bbe3b53773b9" x1="872.46" y1="1486.71" x2="1500.02" y2="771.65" gradientTransform="matrix(-1, 0, 0, 1, 2429.39, 0)" gradientUnits="userSpaceOnUse"><stop offset="0.46" stop-color="#89d6ef"/><stop offset="0.5" stop-color="#89d6ef" stop-opacity="0.1"/></linearGradient><linearGradient id="a962d1a2-6f1f-44c5-8df3-69a97ddfc59f" x1="1080.49" y1="1014.69" x2="1452" y2="1014.69" gradientTransform="matrix(-1, 0, 0, 1, 2429.39, 0)" gradientUnits="userSpaceOnUse"><stop offset="0.01" stop-color="#89d6ef" stop-opacity="0.9"/><stop offset="0.39" stop-color="#89d6ef" stop-opacity="0.84"/><stop offset="1" stop-color="#89d6ef" stop-opacity="0.7"/></linearGradient><linearGradient id="aea0ea28-cff8-40ab-a949-bd9e9ca480ad" x1="1080.49" y1="1152" x2="1452" y2="1152" xlink:href="#a962d1a2-6f1f-44c5-8df3-69a97ddfc59f"/><linearGradient id="a2c7cfde-987e-4579-ae64-7334d006f91e" x1="1080.49" y1="1289.3" x2="1452" y2="1289.3" xlink:href="#a962d1a2-6f1f-44c5-8df3-69a97ddfc59f"/><linearGradient id="b0276cb7-d773-4df0-9379-2cadffc8d777" x1="1001" y1="1459.81" x2="1299.01" y2="1459.81" gradientTransform="matrix(1, 0, 0, 1, 0, 0)" xlink:href="#a962d1a2-6f1f-44c5-8df3-69a97ddfc59f"/><filter id="a0cd24e7-decb-4b05-87e3-fa07ef0ae2c7" name="AI_DesenfoqueGaussiano_4"><feGaussianBlur stdDeviation="4"/></filter><linearGradient id="a6890ca0-e6b5-47ad-875e-1fc70fd3c5a5" x1="1342.88" y1="917.84" x2="1470.09" y2="1164.32" gradientUnits="userSpaceOnUse"><stop offset="0" stop-color="#d4ecf6" stop-opacity="0.1"/><stop offset="0.04" stop-color="#b5cede" stop-opacity="0.1"/><stop offset="0.15" stop-color="#90aac1" stop-opacity="0.1"/><stop offset="0.87" stop-color="#5d7586" stop-opacity="0.3"/></linearGradient><linearGradient id="afe0f2b2-6db4-41d9-883d-55c8ff7fc17c" x1="1649.65" y1="1230.96" x2="1631.39" y2="1442.99" gradientTransform="matrix(-1, 0, 0, 1, 3127.36, 0)" gradientUnits="userSpaceOnUse"><stop offset="0.01" stop-color="#0071b0"/><stop offset="0.37" stop-color="#0f89c6"/><stop offset="0.73" stop-color="#199bd6"/><stop offset="1" stop-color="#1da1dc"/></linearGradient><linearGradient id="a4cb3e03-48b1-400a-8290-dce265156ee6" x1="1685.43" y1="1129.89" x2="1798.22" y2="1060.4" gradientTransform="matrix(-1, 0, 0, 1, 3127.36, 0)" gradientUnits="userSpaceOnUse"><stop offset="0.01" stop-color="#0071b0"/><stop offset="0.1" stop-color="#0579b7"/><stop offset="0.42" stop-color="#128fcc"/><stop offset="0.72" stop-color="#1a9cd8"/><stop offset="1" stop-color="#1da1dc"/></linearGradient><linearGradient id="b8f15266-c44b-4d2d-8499-3323a9352aa3" x1="1509.29" y1="1339.23" x2="1607.64" y2="1139.28" gradientTransform="matrix(-1, 0, 0, 1, 3127.36, 0)" gradientUnits="userSpaceOnUse"><stop offset="0.01" stop-color="#0071b0"/><stop offset="0.29" stop-color="#0173b2"/><stop offset="0.39" stop-color="#057ab8"/><stop offset="0.46" stop-color="#0c85c3"/><stop offset="0.52" stop-color="#1696d2"/><stop offset="0.55" stop-color="#1da1dc"/><stop offset="0.98" stop-color="#1da1dc"/><stop offset="1" stop-color="#1da1dc"/></linearGradient><linearGradient id="bbd92a2e-4310-4030-931c-299d1b1a5adb" x1="1637.2" y1="1095.51" x2="1706.43" y2="966.24" xlink:href="#b8f15266-c44b-4d2d-8499-3323a9352aa3"/></defs><g style="isolation:isolate"><g id="f7d8fec8-09d2-418d-a6fc-b7f1ff6ae63b" data-name="ARTWORK"><g id="e387b614-ca69-43f0-8450-9cc5d6151de9" data-name="Plant"><path id="f3b91405-ea60-4e1b-8e42-bdf62b6be06b" data-name="-" d="M735.35,1412.23q128.25,36.91,320.05,56.41-182.82,86.58-320.05-56.41m77.19-45.35q42.62-10.91,89.88-1.14a239.79,239.79,0,0,1,86.43,36q41.29,27.36,66.55,66.89-191.81-19.5-320.05-56.41Q766.9,1378.72,812.54,1366.88Z" fill="#91e2db"/><path d="M812.54,1366.88q42.62-10.91,89.88-1.14a239.79,239.79,0,0,1,86.43,36q41.29,27.36,66.55,66.89-191.81-19.5-320.05-56.41Q766.9,1378.71,812.54,1366.88Z" fill="#91e2db"/><path d="M1055.4,1468.64q-182.82,86.58-320.05-56.41Q863.6,1449.15,1055.4,1468.64Z" fill="url(#ab2269b0-839c-45ed-91c7-15f2e0562f15)"/><path d="M574.83,703.68q244.47,466.8,510.93,785.79,17.91-563.1-510.93-785.79m0,0q-56,215.64,50.06,400.84,122.79,214.79,460.87,385Q819.29,1170.48,574.83,703.68Z" fill="#97eee5"/><path d="M624.89,1104.52q122.79,214.79,460.87,385-266.47-319-510.93-785.79Q518.84,919.32,624.89,1104.52Z" fill="url(#eb2f05ec-4942-40c5-ac2b-ef5e51284fb6)"/><path d="M802.15,119.53Q1031.55,596.2,1127.07,1246,1359,415.19,802.15,119.53M1127.07,1246Q1031.55,596.2,802.15,119.53,635.13,870.12,1127.07,1246Z" fill="#91e2db"/><path d="M1115,1167.89Q1022.65,598.19,824,166c-6.78-14.76,9.74-29,23.62-20.62q477,289.84,299.53,1023.72C1142.93,1186.5,1117.87,1185.58,1115,1167.89Z" fill="url(#b91f7d69-8201-4d8f-b85b-07f398b2fab3)"/><path d="M802.15,119.53q-167,750.59,324.92,1126.5Q1031.55,596.2,802.15,119.53Z" fill="url(#ec488be8-41da-4d19-9ab5-352d8dda40d6)"/><path d="M1147.13,1169.11Q1138,1207,1127.07,1246h0a1036.78,1036.78,0,0,1-81.48-69.08q45.65,140.35,40.17,312.52-27.42-13.8-53.4-27.89-220.44-119.47-339.12-260.06a653.54,653.54,0,0,1-68.35-97,537.06,537.06,0,0,1-44.63-99.68l-.81-2.53q-1-3.21-2-6.42-27.18-88.42-20.67-183.18a596.12,596.12,0,0,1,18.08-109Q721.2,765.32,825.68,853q-5.52-14.24-10.57-28.73-3-8.55-5.81-17.2-1.49-4.56-2.93-9.14-90.95-288.72-4.22-678.43h0q23.29,12.38,45.21,25.69l.25.14,2.68,1.65,3.52,2.16,4.37,2.73c1.12.7,2.24,1.4,3.35,2.11l4.57,2.92,3.07,2q2.73,1.77,5.43,3.56l2.11,1.39q3.7,2.46,7.37,5l2.51,1.73q2.45,1.66,4.86,3.35l3,2.1c1.43,1,2.87,2,4.29,3l3.14,2.26,4.06,2.95c1.07.77,2.12,1.56,3.18,2.34q2,1.46,3.94,2.93l3.17,2.39,3.88,3,3.13,2.41,3.85,3,3,2.4,3.9,3.13,2.9,2.34,4.06,3.33c.88.73,1.78,1.46,2.66,2.2,1.55,1.29,3.09,2.6,4.63,3.9l2,1.68q3.27,2.79,6.49,5.6l1.76,1.56,4.69,4.15,2.45,2.23q2,1.75,3.9,3.54l2.66,2.45,3.62,3.38c.91.85,1.81,1.71,2.71,2.57l3.49,3.33,2.7,2.62,3.42,3.36,2.66,2.64c1.14,1.14,2.27,2.27,3.39,3.41l2.6,2.64,3.4,3.51c.83.86,1.66,1.72,2.48,2.59,1.18,1.23,2.34,2.47,3.5,3.71.77.82,1.54,1.63,2.3,2.45q1.95,2.1,3.88,4.22l1.82,2q2.82,3.12,5.59,6.25l1,1.16q2.28,2.58,4.51,5.17l2,2.34c1.15,1.35,2.31,2.7,3.45,4.06.74.88,1.47,1.76,2.2,2.65,1.06,1.27,2.11,2.53,3.15,3.81.76.92,1.51,1.86,2.27,2.79,1,1.24,2,2.49,3,3.74l2.27,2.86q1.47,1.86,2.92,3.74c.75,1,1.5,1.93,2.24,2.9,1,1.25,1.92,2.51,2.88,3.77l2.19,2.91,2.86,3.87,2.1,2.86,2.92,4.05c.65.91,1.31,1.82,2,2.74q1.58,2.24,3.13,4.48l1.64,2.35q2.29,3.32,4.53,6.66l.29.43q2.25,3.36,4.46,6.75c.52.79,1,1.59,1.54,2.38,1,1.54,2,3.09,3,4.64.6.94,1.19,1.89,1.78,2.83l2.65,4.25,1.84,3q1.26,2.07,2.5,4.14l1.86,3.12,2.4,4.1c.61,1.05,1.23,2.11,1.83,3.17q1.19,2.07,2.36,4.14c.59,1.06,1.19,2.11,1.78,3.18q1.17,2.1,2.33,4.22l1.71,3.13q1.18,2.2,2.36,4.41l1.59,3q1.24,2.39,2.48,4.78l1.38,2.69q1.58,3.11,3.12,6.23l.65,1.29c1.23,2.51,2.46,5,3.66,7.56.38.79.75,1.59,1.12,2.38.83,1.75,1.66,3.51,2.47,5.27.47,1,.92,2,1.37,3q1.08,2.34,2.13,4.7c.49,1.08,1,2.17,1.45,3.26q1,2.25,2,4.52c.49,1.12,1,2.25,1.45,3.38l1.89,4.47c.47,1.14.95,2.29,1.42,3.44l1.83,4.49,1.38,3.46q.9,2.27,1.79,4.56c.45,1.14.89,2.28,1.33,3.43.6,1.57,1.19,3.15,1.79,4.72.41,1.11.83,2.21,1.23,3.32.63,1.68,1.24,3.38,1.85,5.07.36,1,.73,2,1.09,3q1.08,3.06,2.14,6.12c.23.68.47,1.36.71,2q1.4,4.08,2.74,8.19c.25.75.49,1.51.73,2.26q1,3,1.94,6c.33,1,.65,2.1,1,3.16q.81,2.58,1.59,5.17c.35,1.16.7,2.32,1,3.48q.73,2.46,1.46,4.93c.35,1.2.69,2.42,1,3.63q.69,2.41,1.36,4.84c.35,1.24.68,2.47,1,3.71q.66,2.42,1.31,4.85c.33,1.24.65,2.49,1,3.73.42,1.63.84,3.27,1.25,4.9.32,1.24.63,2.49.94,3.73q.63,2.52,1.23,5c.29,1.21.59,2.41.87,3.62.42,1.78.83,3.57,1.24,5.35.26,1.13.52,2.25.77,3.38q.69,3.07,1.36,6.17c.18.87.38,1.73.57,2.6q.93,4.39,1.82,8.82c.13.63.25,1.26.37,1.88.47,2.34.93,4.67,1.37,7,.21,1.1.41,2.2.61,3.29q.54,2.84,1,5.68c.22,1.23.43,2.46.64,3.69.31,1.78.62,3.55.92,5.34.22,1.29.43,2.58.64,3.87.29,1.74.57,3.49.85,5.23.2,1.32.41,2.65.61,4l.78,5.21c.19,1.33.39,2.67.58,4,.25,1.75.49,3.5.73,5.25l.54,4c.23,1.78.46,3.58.68,5.37.17,1.31.33,2.62.49,3.93.23,1.87.45,3.76.66,5.64.15,1.24.29,2.47.43,3.71.23,2.1.45,4.21.67,6.31l.33,3.09c.32,3.14.62,6.28.91,9.44,0,.33,0,.66.08,1,.26,2.84.5,5.68.73,8.54.09,1.1.17,2.21.26,3.31q.24,3.13.47,6.28c.1,1.28.18,2.57.27,3.86q.2,2.89.38,5.79l.24,4.1c.11,1.88.21,3.75.31,5.63l.21,4.21c.09,1.86.18,3.73.26,5.6.06,1.42.12,2.84.17,4.26.08,1.87.14,3.75.21,5.63,0,1.42.09,2.84.13,4.26.06,1.91.11,3.82.16,5.74,0,1.4.07,2.79.1,4.19q.06,3,.1,6l.06,4q0,3.25,0,6.53c0,1.16,0,2.33,0,3.5q0,4.53,0,9.08v1q0,5.06-.1,10.15l-.06,3.23c0,2.32-.08,4.65-.14,7,0,1.33-.07,2.66-.1,4-.06,2.1-.11,4.19-.18,6.3,0,1.42-.1,2.85-.15,4.28q-.11,3-.22,6.07c-.06,1.48-.12,2.95-.19,4.43q-.12,3-.27,6c-.07,1.49-.15,3-.23,4.49q-.15,3-.32,6c-.09,1.5-.17,3-.26,4.52q-.18,3-.38,6.1c-.1,1.48-.19,3-.3,4.46q-.21,3.16-.44,6.34c-.11,1.42-.21,2.84-.32,4.26q-.25,3.43-.54,6.87c-.1,1.27-.2,2.53-.31,3.8-.24,2.88-.49,5.78-.75,8.67l-.18,2q-.49,5.38-1,10.8c-.09,1-.2,1.9-.29,2.85-.27,2.66-.54,5.33-.83,8-.14,1.33-.29,2.67-.44,4-.25,2.3-.5,4.6-.77,6.91-.16,1.46-.34,2.94-.51,4.41-.26,2.19-.51,4.38-.78,6.57l-.57,4.6q-.4,3.23-.82,6.47c-.2,1.55-.41,3.11-.61,4.67l-.87,6.48c-.21,1.57-.43,3.13-.65,4.69q-.45,3.28-.93,6.57c-.22,1.55-.44,3.09-.67,4.63q-.49,3.4-1,6.81c-.23,1.48-.44,2.95-.67,4.43-.38,2.44-.76,4.89-1.15,7.33-.21,1.32-.41,2.64-.62,4-.47,2.93-1,5.87-1.45,8.81-.14.85-.27,1.69-.42,2.54q-1,5.74-2,11.5c-.12.66-.24,1.33-.35,2q-.84,4.73-1.69,9.48c-.24,1.29-.48,2.57-.71,3.86q-.71,3.84-1.42,7.68c-.28,1.48-.57,3-.85,4.44q-.67,3.58-1.38,7.18c-.3,1.56-.61,3.13-.92,4.69-.46,2.33-.92,4.67-1.4,7-.32,1.6-.64,3.19-1,4.79q-.71,3.49-1.44,7c-.33,1.61-.67,3.22-1,4.83q-.73,3.52-1.5,7.07l-1,4.76q-.8,3.66-1.61,7.34c-.33,1.51-.67,3-1,4.53-.58,2.61-1.18,5.22-1.77,7.84l-.93,4.1c-.7,3.05-1.42,6.1-2.13,9.16l-.66,2.81q-1.41,6-2.86,12Z" fill="url(#e67c7416-dd4e-43bc-bbf7-a0dc875d97e9)"/></g><g id="b53f4963-3545-41bc-a4fa-777c0db5b3ee" data-name="Paper"><g id="acd310cd-463b-41c8-91d1-f06e73ac8674" data-name="Paper"><g id="e354e29b-0431-482c-98b5-f77d3ca99bf7" data-name="Shadow paper" filter="url(#b5a3067d-b387-476c-80b1-c0845755127f)"><path d="M1423.9,1849.69l-491.23-284a12.85,12.85,0,0,1-4-18.62h0a12.84,12.84,0,0,1,16.83-3.6l491.22,284.06a12.83,12.83,0,0,1,4,18.62h0A12.83,12.83,0,0,1,1423.9,1849.69Z" fill="#5d7586" opacity="0.1"/></g><g id="a9292029-e8e3-470e-bf83-21340bc928f2" data-name="PAPER 0 Layer0 0 MEMBER 0 FILL"><path d="M1029.37,678a6.14,6.14,0,0,1,5.85.4l388.35,224.2q16.15,9.36,27.5,29t11.35,38.25l-2.15,838.4c0,.93,0,1.83,0,2.7l-1,6.9a31.36,31.36,0,0,1-2,6,20.62,20.62,0,0,1-7.65,9l.5-.3c-.42.28-.86.55-1.3.8q-11.44,6.51-27.6-2.8l-500.9-289.2q-16.15-9.35-27.55-29.05t-11.3-38.25L883.07,790l0,0q130.25-106.5,144.25-110.35a5,5,0,0,1,2-1.6m-31,167.35a5.09,5.09,0,0,0,.5-.3l-2.45-1C996.59,845.56,997.24,846,998.37,845.35Z" fill="#f1f3f6"/></g><g id="a394f11f-e0a2-49ba-b44d-8a8b5051b479" data-name="PAPER 0 Layer0 0 MEMBER 0 FILL"><path d="M1029.37,678a6.14,6.14,0,0,1,5.85.4l388.35,224.2q16.15,9.36,27.5,29t11.35,38.25l-2.15,838.4c0,.93,0,1.83,0,2.7l-1,6.9a31.36,31.36,0,0,1-2,6,20.62,20.62,0,0,1-7.65,9l.5-.3c-.42.28-.86.55-1.3.8q-11.44,6.51-27.6-2.8l-500.9-289.2q-16.15-9.35-27.55-29.05t-11.3-38.25L883.07,790l0,0q130.25-106.5,144.25-110.35a5,5,0,0,1,2-1.6m-31,167.35a5.09,5.09,0,0,0,.5-.3l-2.45-1C996.59,845.56,997.24,846,998.37,845.35Z" fill="url(#f2ec1550-1542-44a1-bc31-f7a8c1ce2ac5)"/></g><path d="M1029.37,678a6.14,6.14,0,0,1,5.85.4l388.35,224.2q16.15,9.36,27.5,29t11.35,38.25l-2.15,838.4c0,.93,0,1.83,0,2.7l-1,6.9a31.36,31.36,0,0,1-2,6,20.62,20.62,0,0,1-7.65,9l.5-.3c-.42.28-.86.55-1.3.8q-11.44,6.51-27.6-2.8l-500.9-289.2q-16.15-9.35-27.55-29.05t-11.3-38.25L883.07,790l0,0q130.25-106.5,144.25-110.35a5,5,0,0,1,2-1.6m-31,167.35a5.09,5.09,0,0,0,.5-.3l-2.45-1C996.59,845.56,997.24,846,998.37,845.35Z" fill="url(#abcfa63b-377e-4530-9886-818700307ac8)"/><path d="M1029.37,678a6.14,6.14,0,0,1,5.85.4l388.35,224.2q16.15,9.36,27.5,29t11.35,38.25l-2.15,838.4c0,.93,0,1.83,0,2.7l-1,6.9a31.36,31.36,0,0,1-2,6,20.62,20.62,0,0,1-7.65,9l.5-.3c-.42.28-.86.55-1.3.8q-11.44,6.51-27.6-2.8l-500.9-289.2q-16.15-9.35-27.55-29.05t-11.3-38.25L883.07,790l0,0q130.25-106.5,144.25-110.35a5,5,0,0,1,2-1.6m-31,167.35a5.09,5.09,0,0,0,.5-.3l-2.45-1C996.59,845.56,997.24,846,998.37,845.35Z" fill="none" stroke="#fff" stroke-width="3"/><g id="f6fd6bff-814e-4154-bee1-99f71136609c" data-name="PAPER 0 Layer0 0 MEMBER 1 FILL"><path d="M1016.57,665.05a16.3,16.3,0,0,1,1.6-1.5q10.46-8.53,32.6,3.4l390.4,225.4q16.15,9.36,27.55,29t11.3,38.25l-2.1,838.4a37.14,37.14,0,0,1-3.1,15.6,20.51,20.51,0,0,1-8.3,9.4l-16.45,9.55q7.07-4.75,9.2-14.7l1-6.9c0-.87,0-1.77,0-2.7l2.15-838.4q0-18.54-11.35-38.25t-27.5-29L1035.22,678.4a6.14,6.14,0,0,0-5.85-.4c-2.37,1.07-3.43,3.55-3.2,7.45l-.35,128.3a31.82,31.82,0,0,1-2.65,13.3,17.49,17.49,0,0,1-7,8l-17.25,10,3.85-3.25a20.69,20.69,0,0,0,4.6-9.5l.8-5.75c0-.83,0-1.68,0-2.55l.35-128.3q.26-20.15,6.6-28.9A20.08,20.08,0,0,1,1016.57,665.05Z" fill="#d4ecf6"/></g><g id="b8a5890c-ea4b-4659-9755-2bc53d26ff7e" data-name="PAPER 0 Layer0 0 MEMBER 2 FILL"><path d="M1016.57,665.05a20.08,20.08,0,0,0-1.45,1.75q-6.35,8.75-6.6,28.9l-.35,128.3c0,.87,0,1.72,0,2.55l-.8,5.75a28,28,0,0,1-1.75,5,20.31,20.31,0,0,1-2.85,4.5l-3.85,3.25a5.09,5.09,0,0,1-.5.3q-9.75,5.55-23.5-2.35l-91.75-53Z" fill="url(#b8b863f2-d6b8-4973-b113-645dc005ec4e)"/></g><g id="ae698061-7280-4ccb-bd7f-f0b8068205d0" data-name="PAPER 0 Layer0 0 MEMBER 1 FILL"><path d="M1016.57,665.05a16.3,16.3,0,0,1,1.6-1.5q10.46-8.53,32.6,3.4l390.4,225.4q16.15,9.36,27.55,29t11.3,38.25l-2.1,838.4a37.14,37.14,0,0,1-3.1,15.6,20.51,20.51,0,0,1-8.3,9.4l-16.45,9.55q7.07-4.75,9.2-14.7l1-6.9c0-.87,0-1.77,0-2.7l2.15-838.4q0-18.54-11.35-38.25t-27.5-29L1035.22,678.4a6.14,6.14,0,0,0-5.85-.4c-2.37,1.07-3.43,3.55-3.2,7.45l-.35,128.3a31.82,31.82,0,0,1-2.65,13.3,17.49,17.49,0,0,1-7,8l-17.25,10,3.85-3.25a20.69,20.69,0,0,0,4.6-9.5l.8-5.75c0-.83,0-1.68,0-2.55l.35-128.3q.26-20.15,6.6-28.9A20.08,20.08,0,0,1,1016.57,665.05Z" fill="url(#a463b992-8dfc-4e63-9346-bbe3b53773b9)"/></g></g><g id="a7735c41-5070-4da8-abe8-2c98445d89a2" data-name="Text lines" opacity="0.52"><polygon points="1348.89 1102.45 1348.89 1141.45 977.38 926.94 977.38 887.94 1348.89 1102.45" fill="url(#a962d1a2-6f1f-44c5-8df3-69a97ddfc59f)"/><polygon points="1348.89 1239.75 1348.89 1278.75 977.38 1064.24 977.38 1025.24 1348.89 1239.75" fill="url(#aea0ea28-cff8-40ab-a949-bd9e9ca480ad)"/><polygon points="1348.89 1377.06 1348.89 1416.06 977.38 1201.55 977.38 1162.55 1348.89 1377.06" fill="url(#a2c7cfde-987e-4579-ae64-7334d006f91e)"/></g><g id="e9becaf4-44b7-4909-9e6e-8109b8761472" data-name="Key" opacity="0.5"><path d="M1001,1398.55c0-45,31.81-63.09,71.06-40.43,25.38,14.65,47.65,42.76,60.22,73q2.15,5.18,3.92,10.42l37.65,21.74c5.1,2.94,9.41,9.34,10.77,15.47l103.43,59.71,3.54,7.09-151.44-87.43v10.24l158.61,91.58.25.5v8.82l-3.81,2-156.57-90.39v24l45.68,26.37c-1.63,3.85-5.7,4.9-10.46,2.15l-37.65-21.74a41.57,41.57,0,0,1-3.92,5.89c-12.57,15.69-34.84,18.09-60.22,3.43C1032.81,1498.38,1001,1443.54,1001,1398.55Zm126.18,112.74-8.51-10.54a13.74,13.74,0,0,1-3.17-8.12v-56c0-2.59,1.21-4.29,3.17-4.46l8.51-.71c-11.55-27.6-31.92-53.26-55.12-66.66-36-20.78-65.18-4.18-65.18,37.09s29.18,91.57,65.18,112.36C1095.26,1527.69,1115.63,1525.56,1127.18,1511.29Z" fill="url(#b0276cb7-d773-4df0-9379-2cadffc8d777)"/><path d="M1006.88,1401.94c0-41.27,29.18-57.87,65.18-37.09,23.2,13.4,43.57,39.06,55.12,66.66l-8.51.71c-2,.17-3.17,1.87-3.17,4.46v56a13.74,13.74,0,0,0,3.17,8.12l8.51,10.54c-11.55,14.27-31.92,16.4-55.12,3C1036.06,1493.51,1006.88,1443.21,1006.88,1401.94Zm53.89,31.12c0-11.5-8.13-25.5-18.15-31.29s-18.16-1.17-18.16,10.32,8.13,25.5,18.16,31.29S1060.77,1444.55,1060.77,1433.06Z" fill="#89d6ef"/><path d="M1232.59,1551l5.14,3,4.1,7.08,4.32,2.49,5.71-3.25,8.63,5,6.77,11.66,8.46,4.89,19.48-10.52-156.57-90.39v24l45.68,26.37a9.5,9.5,0,0,0,.62-2.24l42.77,24.69Z" fill="#89d6ef"/><polygon points="1140.15 1468.33 1298.76 1559.9 1291.59 1545.51 1140.15 1458.08 1140.15 1468.33" fill="#89d6ef"/></g></g><g filter="url(#a0cd24e7-decb-4b05-87e3-fa07ef0ae2c7)"><path d="M1462.42,974.47l-8-4.59c-4.89-2.83-8.88-.56-8.9,5.07l-.35,121.86-106-61.22c-4.91-2.84-8.9-.56-8.91,5.07l-.2,67.65c0,5.62,4,12.49,8.86,15.32l106,61.23-.34,121.86c0,5.63,3.95,12.49,8.84,15.32l8,4.63,18.51-9.42V964.52Z" fill="url(#a6890ca0-e6b5-47ad-875e-1fc70fd3c5a5)" style="mix-blend-mode:multiply"/></g><g id="be9e0a99-e9ea-4dae-ad71-37b7ba7b0c99" data-name="+ Blue"><g style="isolation:isolate"><path d="M1472.6,1367.16l.35-121.85,24.67-14.34-.35,121.86c0,2.8-1,4.76-2.59,5.69L1470,1372.85C1471.61,1371.93,1472.6,1370,1472.6,1367.16Z" fill="url(#afe0f2b2-6db4-41d9-883d-55c8ff7fc17c)"/><path d="M1308.88,1036.84c1.61-.94,3.85-.8,6.32.62l106,61.23L1396.58,1113l-106-61.22c-2.47-1.43-4.71-1.56-6.32-.62Z" fill="url(#a4cb3e03-48b1-400a-8290-dce265156ee6)"/><path d="M1497.87,1142.93l106.05,61.22c4.9,2.83,8.86,9.7,8.84,15.33l-.19,67.64c0,2.8-1,4.77-2.59,5.7l-24.67,14.33c1.6-.92,2.58-2.89,2.59-5.69l.19-67.64c0-5.64-3.94-12.5-8.84-15.33l-106-61.23Z" fill="url(#b8f15266-c44b-4d2d-8499-3323a9352aa3)"/><path d="M1405.83,986.09c-4.9-2.83-8.89-.56-8.91,5.07l-.34,121.86-106-61.22c-4.91-2.84-8.9-.56-8.91,5.07l-.19,67.65c0,5.62,3.94,12.49,8.85,15.32l106,61.23-.35,121.86c0,5.63,4,12.49,8.85,15.32l58.86,34c4.91,2.84,8.9.57,8.91-5.07l.35-121.85,106,61.22c4.9,2.83,8.89.56,8.9-5.07l.19-67.64c0-5.64-3.94-12.5-8.84-15.33l-106-61.23.34-121.86c0-5.63-3.94-12.49-8.85-15.32Z" fill="#39c2ec"/><path d="M1424.18,971.14c1.61-.94,3.85-.81,6.31.62l58.87,34c4.9,2.83,8.87,9.69,8.85,15.33l-.34,121.86-24.67,14.33.34-121.86c0-5.63-3.94-12.49-8.85-15.32l-58.86-34c-2.47-1.42-4.7-1.55-6.32-.62Z" fill="url(#bbd92a2e-4310-4030-931c-299d1b1a5adb)"/></g></g></g></g></svg>