<svg xmlns="http://www.w3.org/2000/svg" xmlns:xlink="http://www.w3.org/1999/xlink" viewBox="0 0 2500 2500"><defs><filter id="ba1f6e68-c8da-4ced-a26d-c93c43a751ee" name="AI_DesenfoqueGaussiano_4"><feGaussianBlur stdDeviation="4"/></filter><linearGradient id="b2cbf914-eb8a-46e4-aea9-51f3e62d8d96" x1="29.59" y1="-40.68" x2="154.65" y2="201.61" gradientUnits="userSpaceOnUse"><stop offset="0" stop-color="#d4ecf6" stop-opacity="0.1"/><stop offset="0.04" stop-color="#b5cede" stop-opacity="0.1"/><stop offset="0.15" stop-color="#90aac1" stop-opacity="0.1"/><stop offset="0.87" stop-color="#5d7586" stop-opacity="0.3"/></linearGradient><linearGradient id="b027f701-95fa-4dfd-8fe0-ef8470fdfbed" x1="17035.22" y1="260.43" x2="17016.97" y2="472.45" gradientTransform="matrix(-1, 0, 0, 1, 17231.5, 0)" gradientUnits="userSpaceOnUse"><stop offset="0.01" stop-color="#0088a1"/><stop offset="0.22" stop-color="#0693a9"/><stop offset="0.67" stop-color="#0fa5b6"/><stop offset="1" stop-color="#12abbb"/></linearGradient><linearGradient id="e8297aa5-80a9-41b3-be29-80549fbc4ecd" x1="17071.01" y1="159.36" x2="17183.79" y2="89.86" gradientTransform="matrix(-1, 0, 0, 1, 17231.5, 0)" gradientUnits="userSpaceOnUse"><stop offset="0.01" stop-color="#0088a1"/><stop offset="0.31" stop-color="#0999ae"/><stop offset="0.67" stop-color="#10a6b8"/><stop offset="1" stop-color="#12abbb"/></linearGradient><linearGradient id="bc0fe4c8-1ca7-4163-9242-7de9c95bc93a" x1="16894.86" y1="368.7" x2="16993.22" y2="168.74" gradientTransform="matrix(-1, 0, 0, 1, 17231.5, 0)" gradientUnits="userSpaceOnUse"><stop offset="0.01" stop-color="#0088a1"/><stop offset="0.31" stop-color="#018aa2"/><stop offset="0.41" stop-color="#0491a7"/><stop offset="0.49" stop-color="#0b9cb0"/><stop offset="0.55" stop-color="#12abbb"/><stop offset="0.98" stop-color="#12abbb"/><stop offset="1" stop-color="#12abbb"/></linearGradient><linearGradient id="b31d01cd-0c8e-48a9-a59b-3af4fe71699c" x1="17022.77" y1="124.98" x2="17092" y2="-4.29" xlink:href="#bc0fe4c8-1ca7-4163-9242-7de9c95bc93a"/><linearGradient id="f6e36efa-1e96-4038-8473-a36c0a450c64" x1="2642.24" y1="1053.72" x2="2243.96" y2="1004.88" gradientTransform="matrix(-1, 0, 0, 1, 3238.6, 0)" gradientUnits="userSpaceOnUse"><stop offset="0.14" stop-color="#90e5ff" stop-opacity="0"/><stop offset="0.16" stop-color="#7ad2f1" stop-opacity="0.02"/><stop offset="0.26" stop-color="#3596c7" stop-opacity="0.08"/><stop offset="0.37" stop-color="#1f82b9" stop-opacity="0.1"/><stop offset="0.86" stop-color="#141226" stop-opacity="0.6"/></linearGradient><linearGradient id="ad0aff4f-b98b-4d0f-b180-bf17649ffd3a" x1="2897.95" y1="705.22" x2="1831.16" y2="1016.36" gradientTransform="matrix(-1, 0, 0, 1, 3238.6, 0)" gradientUnits="userSpaceOnUse"><stop offset="0" stop-color="#90e5ff" stop-opacity="0"/><stop offset="0.04" stop-color="#7ad2f1" stop-opacity="0.02"/><stop offset="0.2" stop-color="#3596c7" stop-opacity="0.08"/><stop offset="0.37" stop-color="#1f82b9" stop-opacity="0.1"/><stop offset="0.86" stop-color="#141226" stop-opacity="0.6"/></linearGradient><filter id="b6635ee9-433a-4789-9f9c-ebab2c11a71c" name="AI_DesenfoqueGaussiano_7"><feGaussianBlur stdDeviation="7"/></filter><linearGradient id="a68e88a6-1d65-416e-a83c-f65ae111b50f" x1="1888.29" y1="1768.39" x2="900.92" y2="1015.31" gradientUnits="userSpaceOnUse"><stop offset="0.01" stop-color="#e5f4fa"/><stop offset="0.21" stop-color="#d4ecf6" stop-opacity="0.9"/><stop offset="0.66" stop-color="#f5f8fa"/><stop offset="1" stop-color="#fff"/></linearGradient><linearGradient id="ab92427a-b697-400b-890e-d6451d7728cc" x1="1360.19" y1="1141.76" x2="1709.55" y2="868.85" gradientTransform="matrix(-1, 0, 0, 1, 2429.39, 0)" gradientUnits="userSpaceOnUse"><stop offset="0.32" stop-color="#d4ecf6" stop-opacity="0"/><stop offset="0.78" stop-color="#5d7586" stop-opacity="0.3"/></linearGradient><linearGradient id="a66ea02c-9ae1-4921-9fd5-931161593a4f" x1="1413.55" y1="789.97" x2="1776.64" y2="446.31" gradientTransform="matrix(-1, 0, 0, 1, 2429.39, 0)" gradientUnits="userSpaceOnUse"><stop offset="0" stop-color="#fff"/><stop offset="0.15" stop-color="#eef7fb"/><stop offset="0.16" stop-color="#e3f2f9"/><stop offset="0.18" stop-color="#d8eef7"/><stop offset="0.2" stop-color="#d4ecf6"/><stop offset="0.37" stop-color="#d4ecf6"/><stop offset="0.57" stop-color="#d4ecf6"/><stop offset="0.99" stop-color="#d4ecf6"/></linearGradient><linearGradient id="ee316fab-6bd4-442d-8e2a-7bd34349987f" x1="1359.95" y1="1230.34" x2="1222.14" y2="848.7" gradientUnits="userSpaceOnUse"><stop offset="0" stop-color="#0071b0" stop-opacity="0.4"/><stop offset="0.38" stop-color="#0071b0" stop-opacity="0.4"/><stop offset="0.95" stop-color="#0071b0" stop-opacity="0"/><stop offset="1" stop-color="#0071b0" stop-opacity="0"/></linearGradient><linearGradient id="ac9cc794-6ddc-490f-8946-6a00dc837c20" x1="1080.49" y1="1203.98" x2="1452" y2="1203.98" gradientTransform="matrix(-1, 0, 0, 1, 2429.39, 0)" gradientUnits="userSpaceOnUse"><stop offset="0.01" stop-color="#89d6ef" stop-opacity="0.9"/><stop offset="0.39" stop-color="#89d6ef" stop-opacity="0.84"/><stop offset="1" stop-color="#89d6ef" stop-opacity="0.7"/></linearGradient><linearGradient id="f88ba20f-6b89-4175-9f0a-8742790499c8" x1="1080.49" y1="1341.29" x2="1452" y2="1341.29" xlink:href="#ac9cc794-6ddc-490f-8946-6a00dc837c20"/><linearGradient id="a93d4636-7675-4f84-99de-6c8d092c7cd9" x1="1080.49" y1="1478.59" x2="1452" y2="1478.59" xlink:href="#ac9cc794-6ddc-490f-8946-6a00dc837c20"/><symbol id="b2ecd6cb-c29c-44c3-9362-83b0cffe6e16" data-name="+ Symbol" viewBox="0 0 331.34 402.92"><g filter="url(#ba1f6e68-c8da-4ced-a26d-c93c43a751ee)"><path d="M168.47,108.83l-7.95-4.59c-4.9-2.83-8.89-.56-8.9,5.07l-.35,11L45.22,59.1c-4.9-2.83-8.89-.56-8.91,5.08l-.19,67.64c0,5.63,4,12.49,8.85,15.32L151,208.37l-.34,121.86c0,5.63,3.95,12.49,8.84,15.32l8,4.64,18.52-9.42V98.88Z" fill="url(#b2cbf914-eb8a-46e4-aea9-51f3e62d8d96)" style="mix-blend-mode:multiply"/></g><g id="bcc6f152-395c-41eb-99cf-5ba57edb3d5b" data-name="+ Blue"><g style="isolation:isolate"><path d="M191.18,396.63l.34-121.86,24.67-14.34-.34,121.86c0,2.8-1,4.76-2.59,5.69l-24.67,14.34C190.18,401.39,191.17,399.42,191.18,396.63Z" fill="url(#b027f701-95fa-4dfd-8fe0-ef8470fdfbed)"/><path d="M27.45,66.3c1.62-.93,3.85-.8,6.32.62l106,61.23-24.67,14.33L9.1,81.26c-2.47-1.43-4.7-1.56-6.32-.62Z" fill="url(#e8297aa5-80a9-41b3-be29-80549fbc4ecd)"/><path d="M216.44,172.39l106.05,61.22c4.9,2.84,8.86,9.7,8.85,15.33l-.2,67.65c0,2.79-1,4.76-2.59,5.69l-24.66,14.33c1.59-.92,2.58-2.89,2.59-5.69l.19-67.64c0-5.64-3.94-12.5-8.85-15.33l-106-61.23Z" fill="url(#bc0fe4c8-1ca7-4163-9242-7de9c95bc93a)"/><path d="M124.4,15.55c-4.9-2.83-8.89-.56-8.9,5.08l-.35,121.85L9.1,81.26C4.2,78.43.21,80.7.19,86.33L0,154c0,5.62,4,12.49,8.85,15.32L114.9,230.53l-.34,121.86c0,5.63,3.94,12.49,8.84,15.32l58.87,34c4.9,2.83,8.89.56,8.91-5.07l.34-121.86,106,61.22c4.91,2.84,8.89.56,8.91-5.07l.19-67.64c0-5.64-3.94-12.5-8.85-15.33l-106-61.23.35-121.86c0-5.63-4-12.49-8.85-15.32Z" fill="#4dd2d2"/><path d="M142.75.6c1.62-.94,3.85-.81,6.32.62l58.86,34c4.91,2.83,8.87,9.69,8.86,15.33l-.35,121.86-24.67,14.33.35-121.86c0-5.63-4-12.49-8.85-15.32l-58.87-34c-2.47-1.42-4.7-1.55-6.31-.62Z" fill="url(#b31d01cd-0c8e-48a9-a59b-3af4fe71699c)"/></g></g></symbol></defs><g style="isolation:isolate"><g id="b06b69bc-fad9-4e31-b767-03ef9ea543d3" data-name="ARTWORK"><g id="bdeaff59-179c-4ac2-bdb2-50224960573c" data-name="Plant"><path d="M1087.21,1476.31q-543.45-415-484-906.21Q1075.62,812.92,1087.21,1476.31Z" fill="#90e5ff"/><path d="M1085.1,1414.13q1.56,30.61,2.11,62.18-26.85-20.5-52.2-41.21-150.19-420.58-431.83-865Q915.33,962.8,1085.1,1414.13Z" fill="#1f82b9"/><path d="M1087.21,1476.31q-543.45-415-484-906.21Q1075.62,812.92,1087.21,1476.31Z" fill="url(#f6e36efa-1e96-4038-8473-a36c0a450c64)"/><path d="M859,166.23Q1337.65,632.94,1085.69,1427,654.71,707,859,166.23Z" fill="#39c2ec"/><path d="M1085.69,1427q-10.26-17.15-20.14-34.17Q1118.07,957.46,859,166.23,1119.17,842.51,1119.4,1309.6,1104.61,1367.4,1085.69,1427Z" fill="#1f82b9"/><path d="M1053.36,1555.19l-.2-.32q-359.67,45.56-506-314.82Q843.91,1175.63,1053.36,1555.19Z" fill="#39c2ec"/><path d="M1053.16,1554.87q-16.62,2.1-32.76,3.33-137.46-155-473.25-318.15,221.49,84.06,483.13,275.07,11.67,19.39,23.08,40.07Z" fill="#1f82b9"/><g style="mix-blend-mode:hard-light"><path d="M1086,1434.81c-.11-2.61-.21-5.22-.32-7.81q2.19-6.91,4.32-13.8l1.29-4.16q1.5-4.89,3-9.78c.46-1.52.92-3,1.37-4.55q1.47-4.89,2.91-9.75c.4-1.34.8-2.68,1.19-4q1.7-5.76,3.35-11.51l.6-2.06Q1319.54,615.29,859,166.23,762.9,420.63,807.39,714.7q-88.21-85-204.21-144.6-58.65,484.85,470,895.37l1.75,1.36q6.12,4.76,12.31,9.48c-.08-4.54-.18-9-.29-13.56,0-1.48-.08-3-.11-4.43q-.13-4.69-.28-9.36-.19-6-.42-11.86Zm-55.78,80.28,0,0c1.07,1.78,2.13,3.58,3.2,5.37l.11.19q2.21,3.71,4.4,7.46,1.42,2.44,2.84,4.89l1.91,3.31q2.27,3.93,4.51,7.91l1,1.82q2.55,4.53,5.09,9.12l-.2-.32c-3.35.42-6.67.81-10,1.18l-3.1.33-7,.72-3.37.32c-2.77.25-5.52.48-8.27.7q-334.47,26.18-474.26-318.07Q827.71,1179.14,1030.24,1515.09Z" fill="url(#ad0aff4f-b98b-4d0f-b180-bf17649ffd3a)"/></g></g><g id="e3e7c5e8-31af-4035-8640-46e874be762b" data-name="Paper"><g id="fcb2453b-d33d-4481-8d8c-45b057aefca5" data-name="Paper"><g id="b340d81d-b395-4ffe-a631-ab4a803c14c4" data-name="Shadow paper" filter="url(#b6635ee9-433a-4789-9f9c-ebab2c11a71c)"><path d="M1423.9,1847.64,932.67,1563.59a12.84,12.84,0,0,1-4-18.62h0a12.84,12.84,0,0,1,16.83-3.59l491.22,284a12.83,12.83,0,0,1,4,18.62h0A12.82,12.82,0,0,1,1423.9,1847.64Z" fill="#5d7586" opacity="0.15"/></g><g id="b2d876c4-9861-42cd-b759-53772ccb4d85" data-name="PAPER 0 Layer0 0 MEMBER 0 FILL"><path d="M1029.37,678a6.14,6.14,0,0,1,5.85.4l388.35,224.2q16.15,9.36,27.5,29t11.35,38.25l-2.15,838.4c0,.93,0,1.83,0,2.7l-1,6.9a31.36,31.36,0,0,1-2,6,20.62,20.62,0,0,1-7.65,9l.5-.3c-.42.28-.86.55-1.3.8q-11.44,6.51-27.6-2.8l-500.9-289.2q-16.15-9.35-27.55-29.05t-11.3-38.25L883.07,790l0,0q130.25-106.5,144.25-110.35a5,5,0,0,1,2-1.6m-31,167.35a5.09,5.09,0,0,0,.5-.3l-2.45-1C996.59,845.56,997.24,846,998.37,845.35Z" fill="#f1f3f6"/></g><g id="a4498050-4676-4272-a4e1-bea2ed3531fc" data-name="PAPER 0 Layer0 0 MEMBER 0 FILL"><path d="M1029.37,678a6.14,6.14,0,0,1,5.85.4l388.35,224.2q16.15,9.36,27.5,29t11.35,38.25l-2.15,838.4c0,.93,0,1.83,0,2.7l-1,6.9a31.36,31.36,0,0,1-2,6,20.62,20.62,0,0,1-7.65,9l.5-.3c-.42.28-.86.55-1.3.8q-11.44,6.51-27.6-2.8l-500.9-289.2q-16.15-9.35-27.55-29.05t-11.3-38.25L883.07,790l0,0q130.25-106.5,144.25-110.35a5,5,0,0,1,2-1.6m-31,167.35a5.09,5.09,0,0,0,.5-.3l-2.45-1C996.59,845.56,997.24,846,998.37,845.35Z" fill="url(#a68e88a6-1d65-416e-a83c-f65ae111b50f)"/></g><path d="M1029.37,678a6.14,6.14,0,0,1,5.85.4l388.35,224.2q16.15,9.36,27.5,29t11.35,38.25l-2.15,838.4c0,.93,0,1.83,0,2.7l-1,6.9a31.36,31.36,0,0,1-2,6,20.62,20.62,0,0,1-7.65,9l.5-.3c-.42.28-.86.55-1.3.8q-11.44,6.51-27.6-2.8l-500.9-289.2q-16.15-9.35-27.55-29.05t-11.3-38.25L883.07,790l0,0q130.25-106.5,144.25-110.35a5,5,0,0,1,2-1.6m-31,167.35a5.09,5.09,0,0,0,.5-.3l-2.45-1C996.59,845.56,997.24,846,998.37,845.35Z" fill="url(#ab92427a-b697-400b-890e-d6451d7728cc)"/><path d="M1029.37,678a6.14,6.14,0,0,1,5.85.4l388.35,224.2q16.15,9.36,27.5,29t11.35,38.25l-2.15,838.4c0,.93,0,1.83,0,2.7l-1,6.9a31.36,31.36,0,0,1-2,6,20.62,20.62,0,0,1-7.65,9l.5-.3c-.42.28-.86.55-1.3.8q-11.44,6.51-27.6-2.8l-500.9-289.2q-16.15-9.35-27.55-29.05t-11.3-38.25L883.07,790l0,0q130.25-106.5,144.25-110.35a5,5,0,0,1,2-1.6m-31,167.35a5.09,5.09,0,0,0,.5-.3l-2.45-1C996.59,845.56,997.24,846,998.37,845.35Z" fill="none" stroke="#fff" stroke-width="3"/><g id="a80ec3c7-9da1-488d-a52f-4e81058c3fd3" data-name="PAPER 0 Layer0 0 MEMBER 1 FILL"><path d="M1016.57,665.05a16.3,16.3,0,0,1,1.6-1.5q10.46-8.53,32.6,3.4l390.4,225.4q16.15,9.36,27.55,29t11.3,38.25l-2.1,838.4a37.14,37.14,0,0,1-3.1,15.6,20.51,20.51,0,0,1-8.3,9.4l-16.45,9.55q7.07-4.75,9.2-14.7l1-6.9c0-.87,0-1.77,0-2.7l2.15-838.4q0-18.54-11.35-38.25t-27.5-29L1035.22,678.4a6.14,6.14,0,0,0-5.85-.4c-2.37,1.07-3.43,3.55-3.2,7.45l-.35,128.3a31.82,31.82,0,0,1-2.65,13.3,17.49,17.49,0,0,1-7,8l-17.25,10,3.85-3.25a20.69,20.69,0,0,0,4.6-9.5l.8-5.75c0-.83,0-1.68,0-2.55l.35-128.3q.26-20.15,6.6-28.9A20.08,20.08,0,0,1,1016.57,665.05Z" fill="#d4ecf6"/></g><g id="b64b7d34-6976-4913-b7d4-5b8da90075e1" data-name="PAPER 0 Layer0 0 MEMBER 2 FILL"><path d="M1016.57,665.05a20.08,20.08,0,0,0-1.45,1.75q-6.35,8.75-6.6,28.9l-.35,128.3c0,.87,0,1.72,0,2.55l-.8,5.75a28,28,0,0,1-1.75,5,20.31,20.31,0,0,1-2.85,4.5l-3.85,3.25a5.09,5.09,0,0,1-.5.3q-9.75,5.55-23.5-2.35l-91.75-53Z" fill="url(#a66ea02c-9ae1-4921-9fd5-931161593a4f)"/></g><path d="M1016.57,665.05a16.3,16.3,0,0,1,1.6-1.5q10.46-8.53,32.6,3.4l390.4,225.4q16.15,9.36,27.55,29t11.3,38.25l-2.1,838.4a37.14,37.14,0,0,1-3.1,15.6,20.51,20.51,0,0,1-8.3,9.4l-16.45,9.55q7.07-4.75,9.2-14.7l1-6.9c0-.87,0-1.77,0-2.7l2.15-838.4q0-18.54-11.35-38.25t-27.5-29L1035.22,678.4a6.14,6.14,0,0,0-5.85-.4c-2.37,1.07-3.43,3.55-3.2,7.45l-.35,128.3a31.82,31.82,0,0,1-2.65,13.3,17.49,17.49,0,0,1-7,8l-17.25,10,3.85-3.25a20.69,20.69,0,0,0,4.6-9.5l.8-5.75c0-.83,0-1.68,0-2.55l.35-128.3q.26-20.15,6.6-28.9A20.08,20.08,0,0,1,1016.57,665.05Z" fill="url(#ee316fab-6bd4-442d-8e2a-7bd34349987f)"/></g><g id="a5a590da-ae4f-44ab-8e8f-1dd98bc1cc4b" data-name="Text Lines" opacity="0.52"><polygon points="1348.89 1291.74 1348.89 1330.74 977.38 1116.23 977.38 1077.23 1348.89 1291.74" fill="url(#ac9cc794-6ddc-490f-8946-6a00dc837c20)"/><polygon points="1348.89 1429.04 1348.89 1468.05 977.38 1253.54 977.38 1214.53 1348.89 1429.04" fill="url(#f88ba20f-6b89-4175-9f0a-8742790499c8)"/><polygon points="1348.89 1566.35 1348.89 1605.35 977.38 1390.84 977.38 1351.84 1348.89 1566.35" fill="url(#a93d4636-7675-4f84-99de-6c8d092c7cd9)"/></g></g><use width="331.34" height="402.92" transform="translate(1281.43 833.24)" xlink:href="#b2ecd6cb-c29c-44c3-9362-83b0cffe6e16"/></g></g></svg>