<?xml version="1.0" encoding="UTF-8"?><svg id="ARTWORK" xmlns="http://www.w3.org/2000/svg" xmlns:xlink="http://www.w3.org/1999/xlink" viewBox="0 0 2500 2500"><defs><style>.cls-1{fill:#fff;}.cls-2{fill:url(#Degradado_sin_nombre_109);}.cls-3{fill:url(#Degradado_sin_nombre_90);}.cls-4{isolation:isolate;}.cls-5{fill:#d4ecf6;}.cls-6{fill:url(#Degradado_sin_nombre_115);filter:url(#AI_DesenfoqueGaussiano_4);}.cls-7{fill:url(#Degradado_sin_nombre_149);}.cls-8{fill:url(#Degradado_sin_nombre_202);}.cls-9{fill:url(#Degradado_sin_nombre_201-2);}.cls-10{fill:#6ad8cf;}.cls-11{fill:#aab2da;}.cls-12{fill:#ddf0f8;}.cls-13{fill:url(#Degradado_sin_nombre_82);}.cls-14{fill:url(#Degradado_sin_nombre_92);}.cls-15{fill:#39c2ec;}.cls-16{fill:url(#Degradado_sin_nombre_203);}.cls-17{fill:url(#Degradado_sin_nombre_68);}.cls-18{fill:url(#Nueva_muestra_de_degradado_57-2);}.cls-19{filter:url(#AI_DesenfoqueGaussiano_4-2);}.cls-20{fill:url(#Nueva_muestra_de_degradado_57-3);}.cls-21{fill:url(#Nueva_muestra_de_degradado_45);}.cls-22{fill:url(#Degradado_sin_nombre_146);}.cls-23{fill:url(#Degradado_sin_nombre_83);}.cls-24{fill:#c2ebe8;}.cls-25{fill:#91e2db;}.cls-26{fill:url(#Degradado_sin_nombre_68-2);}.cls-27{fill:#857cb9;}.cls-28{fill:#d095bf;}.cls-29{fill:url(#Nueva_muestra_de_degradado_57);}.cls-30{fill:#fafbfc;}.cls-31{fill:url(#Degradado_sin_nombre_201);}.cls-32{fill:#fcfdfe;}</style><linearGradient id="Degradado_sin_nombre_115" x1="122.92" y1="168.97" x2="149.68" y2="124.03" gradientUnits="userSpaceOnUse"><stop offset="0" stop-color="#d4ecf6" stop-opacity=".1"/><stop offset=".04" stop-color="#b4cddd" stop-opacity=".1"/><stop offset=".15" stop-color="#90aac1" stop-opacity=".1"/><stop offset="1" stop-color="#5d7586" stop-opacity=".3"/></linearGradient><filter id="AI_DesenfoqueGaussiano_4"><feGaussianBlur stdDeviation="4"/></filter><linearGradient id="Degradado_sin_nombre_90" x1="14.18" y1="60.32" x2="155.85" y2="142.28" gradientUnits="userSpaceOnUse"><stop offset="0" stop-color="#436fb6"/><stop offset=".09" stop-color="#4778b9"/><stop offset=".48" stop-color="#569dc5"/><stop offset=".8" stop-color="#5fb4cc"/><stop offset="1" stop-color="#63bdcf"/></linearGradient><linearGradient id="Degradado_sin_nombre_109" x1="174.55" y1="209.53" x2="157.32" y2="161.16" gradientUnits="userSpaceOnUse"><stop offset=".3" stop-color="#89d6ef" stop-opacity=".1"/><stop offset=".38" stop-color="#89d6ef" stop-opacity=".15"/><stop offset=".49" stop-color="#d4ecf6" stop-opacity="0"/><stop offset="1" stop-color="#fff" stop-opacity=".3"/></linearGradient><symbol id="host_buttons" viewBox="0 0 286 271"><g><g class="cls-4"><path class="cls-6" d="M253.79,151.65c4.55,2.62,8.22,8.99,8.2,14.22l-.1,76.53c-.01,5.22-3.71,7.33-8.26,4.71L32.02,119.15c-4.55-2.62-8.22-8.98-8.2-14.21l.1-76.53c.01-5.22,3.71-7.34,8.26-4.71l221.62,127.95Z"/><path class="cls-5" d="M253.96,147.17L32.35,19.22c-2.29-1.32-4.36-1.44-5.85-.57L5.35,30.94c1.5-.87,3.57-.75,5.85,.57l221.62,127.95c4.55,2.62,8.22,8.99,8.2,14.22l-.1,35.73c0,2.6-.92,4.42-2.4,5.28l21.14-12.29c1.48-.86,2.39-2.68,2.4-5.28l.1-35.73c.01-5.22-3.66-11.59-8.2-14.22Z"/><path class="cls-1" d="M232.82,159.46c4.55,2.62,8.22,8.99,8.2,14.22l-.1,35.73c-.01,5.22-3.71,7.33-8.26,4.71L11.05,86.16c-4.55-2.62-8.22-8.98-8.2-14.21l.1-35.73c.01-5.22,3.71-7.34,8.26-4.71l221.62,127.95Z"/></g><g><path class="cls-3" d="M150.61,149.6L22.02,75.36c-4.32-2.49-7.82-9.19-7.82-14.95h0c0-5.76,3.5-8.41,7.82-5.91l128.59,74.24c4.32,2.49,7.82,9.19,7.82,14.95h0c0,5.76-3.5,8.41-7.82,5.91Z"/><path class="cls-27" d="M224.96,192.53l-.94-.54c-3.29-1.9-5.96-7-5.96-11.39v-4.96c0-4.39,2.67-6.41,5.96-4.51l.94,.54c3.29,1.9,5.96,7,5.96,11.39v4.96c0,4.39-2.67,6.41-5.96,4.51Z"/><path class="cls-28" d="M202.25,179.42l-.94-.54c-3.29-1.9-5.96-7-5.96-11.39v-4.96c0-4.39,2.67-6.41,5.96-4.51l.94,.54c3.29,1.9,5.96,7,5.96,11.39v4.96c0,4.39-2.67,6.41-5.96,4.51Z"/><path class="cls-11" d="M179.53,166.3l-.94-.54c-3.29-1.9-5.96-7-5.96-11.39v-4.96c0-4.39,2.67-6.41,5.96-4.51l.94,.54c3.29,1.9,5.96,7,5.96,11.39v4.96c0,4.39-2.67,6.41-5.96,4.51Z"/></g><path class="cls-2" d="M253.96,147.17L32.35,19.22c-2.29-1.32-4.36-1.44-5.85-.57L5.35,30.94c1.5-.87,3.57-.75,5.85,.57l221.62,127.95c4.55,2.62,8.22,8.99,8.2,14.22l-.1,35.73c0,2.6-.92,4.42-2.4,5.28l21.14-12.29c1.48-.86,2.39-2.68,2.4-5.28l.1-35.73c.01-5.22-3.66-11.59-8.2-14.22Z"/></g></symbol><linearGradient id="Nueva_muestra_de_degradado_45" x1="-112.84" y1="767.6" x2="-220.53" y2="797.24" gradientTransform="translate(487.25 98.53) rotate(161.61) scale(1 -1)" gradientUnits="userSpaceOnUse"><stop offset="0" stop-color="#c2ebe8" stop-opacity=".1"/><stop offset=".05" stop-color="#8edfd9" stop-opacity=".1"/><stop offset=".15" stop-color="#6ad8cf" stop-opacity=".1"/><stop offset=".87" stop-color="#43a39b" stop-opacity=".3"/></linearGradient><linearGradient id="Nueva_muestra_de_degradado_57" x1="744.34" y1="799.05" x2="1186.94" y2="955.42" gradientUnits="userSpaceOnUse"><stop offset="0" stop-color="#c2ebe8" stop-opacity="0"/><stop offset=".06" stop-color="#a6e5e0" stop-opacity=".03"/><stop offset=".21" stop-color="#78dbd3" stop-opacity=".08"/><stop offset=".37" stop-color="#6ad8cf" stop-opacity=".1"/><stop offset=".86" stop-color="#43a39b" stop-opacity=".6"/></linearGradient><linearGradient id="Nueva_muestra_de_degradado_57-2" x1="441.5" y1="1169.84" x2="983.93" y2="1351.83" xlink:href="#Nueva_muestra_de_degradado_57"/><linearGradient id="Nueva_muestra_de_degradado_57-3" x1="440.05" y1="1174.16" x2="982.48" y2="1356.14" xlink:href="#Nueva_muestra_de_degradado_57"/><filter id="AI_DesenfoqueGaussiano_4-2"><feGaussianBlur stdDeviation="4"/></filter><linearGradient id="Degradado_sin_nombre_149" x1="1648.15" y1="1603.64" x2="952.32" y2="1603.64" gradientUnits="userSpaceOnUse"><stop offset="0" stop-color="#d4ecf6" stop-opacity=".1"/><stop offset=".04" stop-color="#b4cddd" stop-opacity=".1"/><stop offset=".15" stop-color="#90aac1" stop-opacity=".1"/><stop offset=".87" stop-color="#5d7586" stop-opacity=".3"/><stop offset="1" stop-color="#5d7586" stop-opacity="0"/></linearGradient><linearGradient id="Degradado_sin_nombre_82" x1="1110.83" y1="1599.79" x2="1128.06" y2="929.92" gradientUnits="userSpaceOnUse"><stop offset="0" stop-color="#d4ecf6" stop-opacity=".1"/><stop offset="1" stop-color="#5d7586" stop-opacity=".3"/></linearGradient><linearGradient id="Degradado_sin_nombre_83" x1="1284.16" y1="1434.45" x2="1444.5" y2="1527.87" gradientUnits="userSpaceOnUse"><stop offset="0" stop-color="#d4ecf6" stop-opacity=".1"/><stop offset=".53" stop-color="#abc3cf" stop-opacity=".17"/><stop offset="1" stop-color="#5d7586" stop-opacity=".3"/></linearGradient><linearGradient id="Degradado_sin_nombre_68" x1="963.34" y1="1600.22" x2="1433.11" y2="853.5" gradientUnits="userSpaceOnUse"><stop offset="0" stop-color="#fafbfc"/><stop offset=".55" stop-color="#f5f8fa"/><stop offset=".99" stop-color="#d4ecf6" stop-opacity=".9"/></linearGradient><linearGradient id="Degradado_sin_nombre_92" x1="1082.5" y1="1327.79" x2="1341.35" y2="1341.05" gradientUnits="userSpaceOnUse"><stop offset=".55" stop-color="#f5f8fa" stop-opacity="0"/><stop offset=".98" stop-color="#d4ecf6" stop-opacity=".9"/></linearGradient><linearGradient id="Degradado_sin_nombre_68-2" x1="1190.44" y1="941.22" x2="1288.04" y2="1115.99" xlink:href="#Degradado_sin_nombre_68"/><linearGradient id="Degradado_sin_nombre_146" x1="1404.44" y1="1331.24" x2="1232.17" y2="867.44" gradientUnits="userSpaceOnUse"><stop offset="0" stop-color="#b7d4f4" stop-opacity="0"/><stop offset=".36" stop-color="#b7d4f4" stop-opacity=".2"/><stop offset="1" stop-color="#b7d4f4" stop-opacity="0"/></linearGradient><linearGradient id="Degradado_sin_nombre_203" x1="1533.06" y1="1015.62" x2="1514.81" y2="1227.64" gradientUnits="userSpaceOnUse"><stop offset="0" stop-color="#0071b0"/><stop offset=".37" stop-color="#0e89c6"/><stop offset=".73" stop-color="#199ad6"/><stop offset="1" stop-color="#1da1dc"/></linearGradient><linearGradient id="Degradado_sin_nombre_202" x1="1568.85" y1="914.55" x2="1681.64" y2="845.05" gradientUnits="userSpaceOnUse"><stop offset="0" stop-color="#0071b0"/><stop offset=".1" stop-color="#0479b7"/><stop offset=".42" stop-color="#128fcb"/><stop offset=".72" stop-color="#1a9cd7"/><stop offset="1" stop-color="#1da1dc"/></linearGradient><linearGradient id="Degradado_sin_nombre_201" x1="1392.7" y1="1123.89" x2="1491.06" y2="923.94" gradientUnits="userSpaceOnUse"><stop offset="0" stop-color="#0071b0"/><stop offset=".29" stop-color="#0172b1"/><stop offset=".39" stop-color="#0579b7"/><stop offset=".46" stop-color="#0c85c2"/><stop offset=".52" stop-color="#1696d2"/><stop offset=".55" stop-color="#1da1dc"/><stop offset=".98" stop-color="#1da1dc"/><stop offset="1" stop-color="#1da1dc"/></linearGradient><linearGradient id="Degradado_sin_nombre_201-2" x1="1520.62" y1="880.17" x2="1589.85" y2="750.9" xlink:href="#Degradado_sin_nombre_201"/></defs><g id="Plant"><g id="Layer1_8_MEMBER_0_FILL"><path class="cls-10" d="M1064.18,1340.23l-6.19,3.35c-29.5-50.6-45.08-125.36-46.75-224.3l15.61-16.15c-9.8,75.09,2.64,154.12,37.33,237.09m-124.7-132.27l3.5-3.64c36.21,47.5,62.8,95.71,79.77,144.61l-10.83,3.6c-13.43-47.27-37.58-95.46-72.45-144.57Z"/></g><g id="Layer1_8_MEMBER_1_FILL"><path class="cls-24" d="M905.98,704.42c48.73,181.09,78.19,376.92,88.39,587.47-144.21-103.63-246.56-260.84-307.05-471.65-60.44-210.9-49.89-388.09,31.67-531.57,96.83,173.82,159.16,312.41,186.99,415.75Z"/></g><g id="Layer1_8_MEMBER_1_FILL-2"><path class="cls-21" d="M905.98,704.42c48.73,181.09,78.19,376.92,88.39,587.47-144.21-103.63-246.56-260.84-307.05-471.65-60.44-210.9-49.89-388.09,31.67-531.57,96.83,173.82,159.16,312.41,186.99,415.75Z"/></g><g id="Layer1_8_MEMBER_2_FILL"><path class="cls-25" d="M1050.3,460.34c57.66,76.88,91.01,168.72,100.07,275.52,8.99,106.83-22.82,222.92-95.42,348.28-30.62,65.02-38.39,127.2-23.32,186.54-26.28-38.62-51.26-98.98-74.93-181.1-23.75-82.08-25.22-180.44-4.39-295.07,12.07-110.87,44.74-222.26,97.99-334.17Z"/></g><path class="cls-10" d="M1055.54,453.41h0l.11-.04-.11,.04m-22.42,342.05v.35c21.39-117.99,30.09-208.33,26.11-271.03,7.04,76.91,2.76,167.91-12.85,272.98-.04,.11-.06,.19-.04,.25-29.22,151.55-34.68,271.14-16.39,358.78-3.71,17.59-5.64,34.93-5.81,52.02-39.47-81.67-36.48-219.45,8.97-413.35Z"/><path class="cls-10" d="M995.31,1292.87c-3.49-2.52-6.96-5.05-10.41-7.61-120-235.07-225.83-715.73-266.01-979.65,54.94,276.62,161.19,703.27,273.97,961.68,.86,8.52,1.66,17.05,2.45,25.59Z"/><g><g id="Layer1_8_MEMBER_2_FILL-2"><path class="cls-25" d="M656.75,1148.27c130.43,.79,301.23,98.07,362.39,209.7,19.43,35.47,8.07-6.6,26.14,13.53-153.62,8.46-335.84-72.22-388.53-223.23Z"/></g><path class="cls-10" d="M996.25,1357.77c-.47-3.93-1.09-7.8-2.05-11.64-110.42-58.43-218.5-120.95-324.82-186.52,107.25,68.91,215.82,135.67,326.88,198.29,0-.04,0-.08-.01-.13Z"/></g><g><path class="cls-29" d="M1054.95,1084.13c72.61-125.36,104.41-241.45,95.42-348.28-9.06-106.8-42.41-198.63-100.07-275.52-53.26,111.91-85.92,223.29-97.99,334.17-4.14,22.76-7.38,44.88-9.76,66.36-10.66-53.31-22.85-105.46-36.57-156.44-27.83-103.34-90.16-241.92-186.99-415.75-81.56,143.47-92.11,320.66-31.67,531.57,59.12,206.05,158.24,360.88,297.34,464.53,.08,.16,.16,.32,.24,.48,.5,.37,1.01,.74,1.52,1.11,8.67,17.88,15.87,35.62,21.58,53.25-68.79-103.73-228.03-190.6-351.25-191.35,50.8,145.6,222.02,225.81,371.91,223.79-1.95-1.5-4.84-5.53-9.52-14.08-1.21-2.2-2.47-4.4-3.76-6.59l7.38-2.45c-7.52-21.68-16.94-43.21-28.24-64.61-.37-3.94-.75-7.88-1.14-11.82-1.67-30.74-3.76-61.15-6.26-91.25,13.12,33.85,26.6,61.59,40.45,83.24,7.55,30.87,17.69,57.24,30.43,79.1l6.19-3.35c-21.74-52.02-34.74-102.48-39-151.41,3.02-34.04,12.93-68.93,29.77-104.69Z"/><path class="cls-18" d="M1031.76,1372.01c4.53-.1,9.04-.26,13.52-.51-10.51-11.71-11.07-2.37-13.52,.51Z"/><path class="cls-20" d="M1031.76,1372.01c-1.03,.02-2.07,.03-3.1,.05,1.43,1.1,2.36,.83,3.1-.05Z"/></g></g><g id="Rubrik_Host"><g id="shadow" class="cls-19"><path class="cls-7" d="M1374.52,1777.68l285.85-166.12c10.01-5.82,9.96-15.28-.11-21.1l-287.72-166.12c-10.07-5.81-114.84-5.81-124.85,0l-285.85,166.12c-10.01,5.82-9.96,15.28,.11,21.1l287.72,166.12c10.08,5.82,75.64,18.34,124.85,0Z"/></g><path id="inside" class="cls-12" d="M1272.58,1744.86c-.16,.23-.32,.46-.5,.68-.33,.45-.68,.88-1.03,1.3-.71,.84-1.46,1.63-2.25,2.36-.19,.18-.39,.36-.59,.53-2.07,1.81-4.38,3.26-6.9,4.31-.36,.16-.72,.3-1.09,.44-.49,.17-.98,.34-1.49,.49-.2,.06-.4,.12-.6,.18-.29,.08-.59,.15-.9,.23-.22,.05-.44,.1-.66,.15-.26,.05-.53,.11-.8,.16-.22,.04-.44,.08-.67,.12-4.52,.71-9.51,.4-14.82-1.01-1-.26-2-.57-3.02-.91-1.52-.51-3.07-1.11-4.64-1.81-2.09-.92-4.22-2-6.38-3.25l-210.8-121.7c-29.5-17.05-53.44-58.28-53.44-92.12V953.57c0-13.45,3.79-23.71,10.21-30.11,.17-.18,.35-.35,.54-.52,3.46-3.27,7.65-5.46,12.39-6.46,.25-.05,.5-.1,.75-.15,.25-.06,.51-.1,.76-.13,.38-.06,.77-.12,1.16-.16,.29-.04,.58-.07,.87-.09,.44-.04,.88-.07,1.32-.09,1.18-.06,2.38-.04,3.61,.05-4.52,6.38-7.1,15.31-7.1,26.42v581.44c0,33.84,23.93,75.07,53.44,92.12l210.8,121.7c7.78,4.49,15.17,6.85,21.83,7.27Z"/><path id="inside-2" class="cls-13" d="M1272.58,1744.86c-.16,.23-.32,.46-.5,.68-.33,.45-.68,.88-1.03,1.3-.71,.84-1.46,1.63-2.25,2.36-.19,.18-.39,.36-.59,.53-2.07,1.81-4.38,3.26-6.9,4.31-.36,.16-.72,.3-1.09,.44-.49,.17-.98,.34-1.49,.49-.2,.06-.4,.12-.6,.18-.29,.08-.59,.15-.9,.23-.22,.05-.44,.1-.66,.15-.26,.05-.53,.11-.8,.16-.22,.04-.44,.08-.67,.12-4.52,.71-9.51,.4-14.82-1.01-1-.26-2-.57-3.02-.91-1.52-.51-3.07-1.11-4.64-1.81-2.09-.92-4.22-2-6.38-3.25l-210.8-121.7c-29.5-17.05-53.44-58.28-53.44-92.12V953.57c0-13.45,3.79-23.71,10.21-30.11,.17-.18,.35-.35,.54-.52,3.46-3.27,7.65-5.46,12.39-6.46,.25-.05,.5-.1,.75-.15,.25-.06,.51-.1,.76-.13,.38-.06,.77-.12,1.16-.16,.29-.04,.58-.07,.87-.09,.44-.04,.88-.07,1.32-.09,1.18-.06,2.38-.04,3.61,.05-4.52,6.38-7.1,15.31-7.1,26.42v581.44c0,33.84,23.93,75.07,53.44,92.12l210.8,121.7c7.78,4.49,15.17,6.85,21.83,7.27Z"/><path id="inside-3" class="cls-23" d="M1272.58,1744.86c-.16,.23-.32,.46-.5,.68-.33,.45-.68,.88-1.03,1.3-.71,.84-1.46,1.63-2.25,2.36-.19,.18-.39,.36-.59,.53-2.07,1.81-4.38,3.26-6.9,4.31-.36,.16-.72,.3-1.09,.44-.49,.17-.98,.34-1.49,.49-.2,.06-.4,.12-.6,.18-.29,.08-.59,.15-.9,.23-.22,.05-.44,.1-.66,.15-.26,.05-.53,.11-.8,.16-.22,.04-.44,.08-.67,.12-4.52,.71-9.51,.4-14.82-1.01-1-.26-2-.57-3.02-.91-1.52-.51-3.07-1.11-4.64-1.81-2.09-.92-4.22-2-6.38-3.25l-210.8-121.7c-29.5-17.05-53.44-58.28-53.44-92.12V953.57c0-13.45,3.79-23.71,10.21-30.11,.17-.18,.35-.35,.54-.52,3.46-3.27,7.65-5.46,12.39-6.46,.25-.05,.5-.1,.75-.15,.25-.06,.51-.1,.76-.13,.38-.06,.77-.12,1.16-.16,.29-.04,.58-.07,.87-.09,.44-.04,.88-.07,1.32-.09,1.18-.06,2.38-.04,3.61,.05-4.52,6.38-7.1,15.31-7.1,26.42v581.44c0,33.84,23.93,75.07,53.44,92.12l210.8,121.7c7.78,4.49,15.17,6.85,21.83,7.27Z"/><path id="front" class="cls-17" d="M1279.69,1136.99v581.43c0,.7-.01,1.38-.03,2.06-.02,.58-.04,1.16-.08,1.73-.04,.78-.09,1.55-.17,2.31-.05,.62-.12,1.23-.2,1.83-.07,.62-.16,1.24-.26,1.85-.09,.56-.19,1.11-.29,1.65,0,.05-.02,.09-.03,.14-.1,.53-.21,1.06-.33,1.57-.03,.11-.05,.22-.08,.33-.12,.52-.25,1.03-.39,1.53l-.03,.12c-.14,.51-.29,1.02-.45,1.51-.15,.48-.31,.95-.48,1.42-.05,.17-.12,.33-.18,.5-.15,.4-.3,.79-.46,1.17-.2,.5-.41,.98-.63,1.46-.2,.44-.41,.87-.62,1.29-.02,.04-.04,.07-.06,.11-.24,.46-.48,.9-.73,1.34h-.01c-.5,.88-1.04,1.72-1.6,2.52-6.66-.42-14.05-2.78-21.83-7.27l-210.8-121.7c-29.51-17.05-53.44-58.28-53.44-92.12V942.33c0-11.11,2.58-20.04,7.1-26.42,.42,.03,.84,.06,1.26,.1,.42,.04,.84,.09,1.27,.15,.42,.05,.84,.12,1.26,.19,.03-.01,.06-.01,.09,.01,.42,.07,.83,.15,1.25,.23,1.4,.27,2.82,.63,4.27,1.07,.47,.15,.94,.3,1.42,.46,.5,.17,1,.34,1.51,.53,.89,.33,1.78,.69,2.68,1.08,.3,.13,.6,.26,.9,.4,.41,.18,.82,.37,1.23,.56,.39,.19,.78,.38,1.18,.58,.63,.32,1.26,.65,1.9,1,.53,.29,1.07,.59,1.61,.9l206.36,119.14,4.44,2.57c2.38,1.37,4.72,2.9,7.01,4.56,26.21,19.06,46.44,56.44,46.44,87.55Z"/><path id="front-2" class="cls-14" d="M1279.69,1136.99v581.43c0,.7-.01,1.38-.03,2.06-.02,.58-.04,1.16-.08,1.73-.04,.78-.09,1.55-.17,2.31-.05,.62-.12,1.23-.2,1.83-.07,.62-.16,1.24-.26,1.85-.09,.56-.19,1.11-.29,1.65,0,.05-.02,.09-.03,.14-.1,.53-.21,1.06-.33,1.57-.03,.11-.05,.22-.08,.33-.12,.52-.25,1.03-.39,1.53l-.03,.12c-.14,.51-.29,1.02-.45,1.51-.15,.48-.31,.95-.48,1.42-.05,.17-.12,.33-.18,.5-.15,.4-.3,.79-.46,1.17-.2,.5-.41,.98-.63,1.46-.2,.44-.41,.87-.62,1.29-.02,.04-.04,.07-.06,.11-.24,.46-.48,.9-.73,1.34h-.01c-.5,.88-1.04,1.72-1.6,2.52-6.66-.42-14.05-2.78-21.83-7.27l-210.8-121.7c-29.51-17.05-53.44-58.28-53.44-92.12V942.33c0-11.11,2.58-20.04,7.1-26.42,.42,.03,.84,.06,1.26,.1,.42,.04,.84,.09,1.27,.15,.42,.05,.84,.12,1.26,.19,.03-.01,.06-.01,.09,.01,.42,.07,.83,.15,1.25,.23,1.4,.27,2.82,.63,4.27,1.07,.47,.15,.94,.3,1.42,.46,.5,.17,1,.34,1.51,.53,.89,.33,1.78,.69,2.68,1.08,.3,.13,.6,.26,.9,.4,.41,.18,.82,.37,1.23,.56,.39,.19,.78,.38,1.18,.58,.63,.32,1.26,.65,1.9,1,.53,.29,1.07,.59,1.61,.9l206.36,119.14,4.44,2.57c2.38,1.37,4.72,2.9,7.01,4.56,26.21,19.06,46.44,56.44,46.44,87.55Z"/><g id="top"><path class="cls-1" d="M1562.38,986.71v581.44c0,20.13-7.01,34.38-18.39,41.21l-.65,.37-270.3,156.34c7.95-4.9,13.73-13.46,16.41-25.15,1.11-4.78,1.69-10.09,1.69-15.89v-581.43c0-38.31-25.39-84.59-57.89-107.37-2.29-1.63-4.63-3.11-7.01-4.48l-4.44-2.57-206.36-119.14c-2.8-1.61-5.56-3-8.26-4.15-14.46-6.25-27.44-6.16-37.31-.67l270.7-156.59c11.77-6.85,28.09-5.89,46.12,4.52l210.8,121.7c35.78,20.66,64.89,70.83,64.89,111.86Z"/></g><g id="top-2"><path class="cls-26" d="M1285.14,1756.76c2.81-4.38,4.92-9.54,6.26-15.4,1.15-4.97,1.74-10.47,1.74-16.34v-581.43c0-38.67-25.25-85.53-58.74-109.01-2.24-1.59-4.59-3.09-7.16-4.58l-4.44-2.57-206.36-119.14c-2.88-1.66-5.73-3.09-8.48-4.26-7.52-3.25-14.8-4.9-21.63-4.9-.7,0-1.39,.02-2.07,.05l257.3-148.84c4.68-2.73,10.07-4.11,16.03-4.11,8.72,0,18.18,2.9,28.09,8.63l210.8,121.7c35.23,20.34,63.89,69.75,63.89,110.13v581.44c0,18.73-6.19,32.75-17.42,39.5l-.61,.35-257.21,148.77Z"/><path class="cls-30" d="M1257.6,744.25v4s0,0,0,0c8.25,0,17.62,2.89,27.09,8.36l210.8,121.7c16.71,9.65,32.48,26.28,44.4,46.83,11.92,20.55,18.49,42.41,18.49,61.56v581.44c0,17.98-5.83,31.38-16.41,37.76l-.63,.36-251.15,145.27c1.31-2.99,2.37-6.24,3.16-9.71,1.19-5.13,1.79-10.78,1.79-16.79v-581.43c0-39.26-25.62-86.83-59.57-110.63-2.3-1.64-4.7-3.17-7.33-4.68l-4.44-2.57-206.37-119.14c-2.95-1.7-5.87-3.16-8.67-4.35-5.98-2.58-11.82-4.19-17.43-4.8l251.25-145.34c4.37-2.54,9.42-3.83,15.02-3.83v-4m0,0c-6.34,0-12.09,1.5-17.03,4.38l-270.7,156.59c4.81-2.68,10.36-4.07,16.47-4.07,6.41,0,13.43,1.54,20.84,4.74,2.7,1.15,5.46,2.54,8.26,4.15l206.36,119.14,4.44,2.57c2.38,1.37,4.72,2.85,7.01,4.48,32.5,22.78,57.89,69.06,57.89,107.37v581.43c0,5.8-.58,11.11-1.69,15.89-2.68,11.69-8.46,20.25-16.41,25.15l270.3-156.34,.65-.37c11.38-6.83,18.39-21.08,18.39-41.21V986.71c0-41.03-29.11-91.2-64.89-111.86l-210.8-121.7c-10.46-6.04-20.34-8.9-29.09-8.9h0Z"/><path class="cls-1" d="M1257.6,744.25v2s0,0,0,0c8.72,0,18.17,2.9,28.09,8.63l210.8,121.7c35.23,20.34,63.89,69.75,63.89,110.13v581.44c0,18.73-6.19,32.75-17.38,39.47l-.66,.38-257.2,148.76c2.81-4.37,4.92-9.54,6.26-15.39,1.16-4.98,1.74-10.48,1.74-16.34v-581.43c0-38.67-25.25-85.53-58.73-109-2.25-1.6-4.6-3.1-7.17-4.58l-4.44-2.57-206.36-119.14c-2.88-1.66-5.73-3.09-8.46-4.25-7.53-3.25-14.81-4.9-21.63-4.9-.7,0-1.39,.02-2.07,.05l257.31-148.84c4.68-2.72,10.07-4.1,16.02-4.1v-2m0,0c-6.34,0-12.09,1.5-17.03,4.38l-270.7,156.59c4.81-2.68,10.36-4.07,16.47-4.07,6.41,0,13.43,1.54,20.84,4.74,2.7,1.15,5.46,2.54,8.26,4.15l206.36,119.14,4.44,2.57c2.38,1.37,4.72,2.85,7.01,4.48,32.5,22.78,57.89,69.06,57.89,107.37v581.43c0,5.8-.58,11.11-1.69,15.89-2.68,11.69-8.46,20.25-16.41,25.15l270.3-156.34,.65-.37c11.38-6.83,18.39-21.08,18.39-41.21V986.71c0-41.03-29.11-91.2-64.89-111.86l-210.8-121.7c-10.46-6.04-20.34-8.9-29.09-8.9h0Z"/></g><path id="top-3" class="cls-22" d="M1562.38,986.71v581.44c0,20.13-7.01,34.38-18.39,41.21l-.65,.37-270.3,156.34c7.95-4.9,13.73-13.46,16.41-25.15,1.11-4.78,1.69-10.09,1.69-15.89v-581.43c0-38.31-25.39-84.59-57.89-107.37-2.29-1.63-4.63-3.11-7.01-4.48l-4.44-2.57-206.36-119.14c-2.8-1.61-5.56-3-8.26-4.15-14.46-6.25-27.44-6.16-37.31-.67l270.7-156.59c11.77-6.85,28.09-5.89,46.12,4.52l210.8,121.7c35.78,20.66,64.89,70.83,64.89,111.86Z"/><path id="Corner" class="cls-32" d="M1233.25,1036.23c-2.29-1.63-4.63-3.11-7.01-4.48l-4.44-2.57-206.36-119.14c-2.8-1.61-5.56-3-8.26-4.15-14.46-6.25-27.44-6.16-37.31-.67l-1.04,.6c-11.31,6.87-18.28,21.08-18.28,41.14v581.44c0,41.01,29.12,91.2,64.89,111.85l210.8,121.71c17.68,10.21,33.74,11.33,45.45,4.89l.04-.02,1.1-.65,.21-.11c7.95-4.9,13.73-13.46,16.41-25.15,1.11-4.78,1.69-10.09,1.69-15.89v-581.43c0-38.31-25.39-84.59-57.89-107.37Zm46.44,682.19c0,.7-.01,1.38-.03,2.06-.02,.58-.04,1.16-.08,1.73-.04,.78-.09,1.55-.17,2.31-.05,.62-.12,1.23-.2,1.83-.07,.62-.16,1.24-.26,1.85-.09,.56-.19,1.11-.29,1.65,0,.05-.02,.09-.03,.14-.1,.53-.21,1.06-.33,1.57-.03,.11-.05,.22-.08,.33-.12,.52-.25,1.03-.39,1.53l-.03,.12c-.14,.51-.29,1.02-.45,1.51-.15,.48-.31,.95-.48,1.42-.05,.17-.12,.33-.18,.5-.14,.39-.3,.78-.46,1.17-.2,.5-.41,.98-.63,1.46-.2,.44-.41,.87-.62,1.29-.02,.04-.04,.07-.06,.11-.24,.46-.48,.9-.73,1.34h-.01c-.5,.89-1.03,1.72-1.6,2.52-.16,.23-.32,.46-.5,.68-.33,.45-.68,.88-1.03,1.3-.71,.84-1.46,1.63-2.25,2.36-.19,.18-.39,.36-.59,.53-2.07,1.81-4.38,3.26-6.9,4.31-.36,.16-.72,.3-1.09,.44-.49,.17-.98,.34-1.49,.49-.2,.06-.4,.12-.6,.18-.29,.08-.59,.15-.9,.23-.22,.05-.44,.1-.66,.15-.26,.05-.53,.11-.8,.16-.22,.04-.44,.08-.67,.12-4.52,.71-9.51,.4-14.82-1.01-1-.26-2-.57-3.02-.91-1.52-.51-3.07-1.11-4.64-1.81-2.09-.92-4.22-2-6.38-3.25l-210.8-121.7c-29.5-17.05-53.44-58.28-53.44-92.12V953.57c0-13.45,3.79-23.71,10.21-30.11,.17-.18,.35-.35,.54-.52,3.46-3.27,7.65-5.46,12.39-6.46,.25-.05,.5-.1,.75-.15,.25-.06,.51-.1,.76-.13,.38-.06,.77-.12,1.16-.16,.29-.04,.58-.07,.87-.09,.44-.04,.88-.07,1.32-.09,1.18-.06,2.38-.04,3.61,.05,.42,.02,.83,.05,1.26,.1,.42,.03,.84,.08,1.27,.15,.41,.04,.84,.11,1.26,.19,.03-.01,.06-.01,.09,.01,.41,.06,.83,.14,1.25,.23,1.4,.27,2.82,.63,4.27,1.07,.47,.14,.94,.3,1.42,.46,.5,.16,1,.34,1.51,.53,.89,.33,1.78,.69,2.68,1.08,.3,.13,.6,.26,.9,.4,.41,.18,.82,.37,1.23,.56,.39,.19,.78,.38,1.18,.58,.63,.32,1.26,.65,1.9,1,.53,.29,1.07,.59,1.61,.9l206.36,119.14,4.44,2.57c2.38,1.37,4.72,2.9,7.01,4.56,26.21,19.06,46.44,56.44,46.44,87.55v581.43Z"/><g><use width="286" height="271" transform="translate(999.28 1194.88)" xlink:href="#host_buttons"/><use width="286" height="271" transform="translate(999.28 1082.34)" xlink:href="#host_buttons"/><use width="286" height="271" transform="translate(999.28 969.81)" xlink:href="#host_buttons"/></g></g><g id="_Blue"><g class="cls-4"><path class="cls-16" d="M1538.17,1151.82l-.35-121.86-24.67-14.34,.35,121.86c0,2.8,1,4.76,2.59,5.69l24.67,14.34c-1.59-.93-2.58-2.89-2.59-5.69Z"/><path class="cls-8" d="M1701.9,821.5c-1.61-.94-3.85-.81-6.32,.62l-106.05,61.23,24.67,14.34,106.05-61.23c2.47-1.42,4.7-1.56,6.32-.62l-24.67-14.34Z"/><path class="cls-31" d="M1512.9,927.58l-106.05,61.23c-4.9,2.83-8.86,9.69-8.85,15.33l.19,67.64c0,2.8,1,4.77,2.59,5.69l24.67,14.34c-1.59-.93-2.58-2.9-2.59-5.69l-.19-67.64c-.02-5.63,3.94-12.5,8.85-15.33l106.05-61.23-24.67-14.34Z"/><path class="cls-15" d="M1604.95,770.75c4.9-2.83,8.89-.56,8.9,5.07l.35,121.86,106.05-61.23c4.9-2.83,8.89-.56,8.91,5.08l.19,67.64c.02,5.63-3.95,12.49-8.85,15.33l-106.05,61.23,.35,121.86c.02,5.63-3.95,12.49-8.85,15.32l-58.87,33.99c-4.9,2.83-8.89,.56-8.91-5.07l-.35-121.86-106.05,61.23c-4.9,2.83-8.89,.55-8.9-5.07l-.19-67.64c-.02-5.63,3.94-12.5,8.85-15.33l106.05-61.23-.35-121.86c-.02-5.63,3.95-12.49,8.85-15.33l58.87-33.99Z"/><path class="cls-9" d="M1586.59,755.79c-1.61-.94-3.85-.81-6.31,.62l-58.87,33.99c-4.9,2.83-8.87,9.69-8.85,15.33l.35,121.86,24.67,14.34-.35-121.86c-.02-5.63,3.95-12.49,8.85-15.33l58.87-33.99c2.46-1.42,4.7-1.56,6.31-.62l-24.67-14.34Z"/></g></g></svg>