<?xml version="1.0" encoding="UTF-8"?><svg xmlns="http://www.w3.org/2000/svg" xmlns:xlink="http://www.w3.org/1999/xlink" viewBox="0 0 2500 2500"><defs><style>.cls-1{fill:#90aac1;opacity:.3;}.cls-1,.cls-2,.cls-3,.cls-4,.cls-5,.cls-6,.cls-7,.cls-8,.cls-9,.cls-10,.cls-11,.cls-12,.cls-13,.cls-14,.cls-15,.cls-16,.cls-17,.cls-18,.cls-19,.cls-20{stroke-width:0px;}.cls-2{fill:url(#Degradado_sin_nombre_201);}.cls-3{fill:url(#linear-gradient);}.cls-4{fill:#91e2db;}.cls-21{isolation:isolate;}.cls-5{fill:url(#Degradado_sin_nombre_201-2);}.cls-6{fill:#61c9bf;}.cls-22{filter:url(#AI_DesenfoqueGaussiano_7);}.cls-7{fill:#5d7586;opacity:.1;}.cls-23{opacity:.4;stroke:#89d6ef;stroke-width:3px;}.cls-23,.cls-8{fill:none;}.cls-9{fill:#39c2ec;}.cls-10{fill:#fafbfc;}.cls-11{fill:#fff;}.cls-12{fill:url(#linear-gradient-2);}.cls-13{fill:#71d8cb;}.cls-14{fill:url(#linear-gradient-3);}.cls-15{fill:url(#Degradado_sin_nombre_203);}.cls-24{clip-path:url(#clippath);}.cls-16{fill:url(#radial-gradient);}.cls-17{fill:#89d6ef;opacity:.7;}.cls-18{fill:url(#Degradado_sin_nombre_202);}.cls-19{fill:url(#linear-gradient-4);}.cls-20{fill:#c2ebe8;}</style><radialGradient id="radial-gradient" cx="1201.86" cy="1166.1" fx="1201.86" fy="1166.1" r="656.94" gradientTransform="translate(0 -450.32) scale(1 1.39)" gradientUnits="userSpaceOnUse"><stop offset="0" stop-color="#43a39b" stop-opacity=".6"/><stop offset=".2" stop-color="#43a39b" stop-opacity=".47"/><stop offset=".62" stop-color="#43a39b" stop-opacity=".15"/><stop offset=".8" stop-color="#43a39b" stop-opacity="0"/></radialGradient><filter id="AI_DesenfoqueGaussiano_7"><feGaussianBlur stdDeviation="7"/></filter><linearGradient id="linear-gradient" x1="1093.15" y1="526.61" x2="2001.32" y2="2127.39" gradientUnits="userSpaceOnUse"><stop offset="0" stop-color="#e5f4fa"/><stop offset=".36" stop-color="#e5f4fa"/><stop offset=".45" stop-color="#d5eaf7"/><stop offset=".54" stop-color="#c8e3f5"/><stop offset=".74" stop-color="#cbe4f4"/><stop offset="1" stop-color="#cee7f5"/></linearGradient><linearGradient id="linear-gradient-2" x1="923.54" y1="736.02" x2="1716.91" y2="2262.81" gradientUnits="userSpaceOnUse"><stop offset="0" stop-color="#fafbfc"/><stop offset=".55" stop-color="#f5f8fa"/></linearGradient><clipPath id="clippath"><path class="cls-8" d="m1658.01,2131.35l-700.94-404.69c-25.18-14.54-45.59-53.53-45.59-87.1v-786.47c0-33.57,20.41-49,45.59-34.46l700.94,404.69c25.18,14.54,45.59,53.53,45.59,87.1v786.47c0,33.57-20.41,49-45.59,34.46Z"/></clipPath><linearGradient id="linear-gradient-3" x1="1664.96" y1="1887.69" x2="1201.49" y2="1529.33" gradientTransform="translate(125.24 -748.86) rotate(30) skewX(30)" gradientUnits="userSpaceOnUse"><stop offset="0" stop-color="#89d6ef"/><stop offset=".28" stop-color="#89d6ef" stop-opacity=".94"/><stop offset=".8" stop-color="#89d6ef" stop-opacity=".77"/><stop offset="1" stop-color="#89d6ef" stop-opacity=".7"/></linearGradient><linearGradient id="linear-gradient-4" x1="864.44" y1="1551.44" x2="1031.45" y2="1674.88" gradientTransform="translate(125.24 -748.86) rotate(30) skewX(30)" gradientUnits="userSpaceOnUse"><stop offset="0" stop-color="#89d6ef" stop-opacity=".7"/><stop offset=".64" stop-color="#89d6ef" stop-opacity=".43"/><stop offset="1" stop-color="#89d6ef" stop-opacity=".3"/></linearGradient><linearGradient id="Degradado_sin_nombre_203" x1="1297.26" y1="1415.05" x2="1272.92" y2="1697.66" gradientTransform="translate(3127.36) rotate(-180) scale(1 -1)" gradientUnits="userSpaceOnUse"><stop offset="0" stop-color="#0071b0"/><stop offset=".37" stop-color="#0e89c6"/><stop offset=".73" stop-color="#199ad6"/><stop offset="1" stop-color="#1da1dc"/></linearGradient><linearGradient id="Degradado_sin_nombre_202" x1="1344.96" y1="1280.33" x2="1495.29" y2="1187.69" gradientTransform="translate(3127.36) rotate(-180) scale(1 -1)" gradientUnits="userSpaceOnUse"><stop offset="0" stop-color="#0071b0"/><stop offset=".1" stop-color="#0479b7"/><stop offset=".42" stop-color="#128fcb"/><stop offset=".72" stop-color="#1a9cd7"/><stop offset="1" stop-color="#1da1dc"/></linearGradient><linearGradient id="Degradado_sin_nombre_201" x1="1110.16" y1="1559.36" x2="1241.26" y2="1292.84" gradientTransform="translate(3127.36) rotate(-180) scale(1 -1)" gradientUnits="userSpaceOnUse"><stop offset="0" stop-color="#0071b0"/><stop offset=".29" stop-color="#0172b1"/><stop offset=".39" stop-color="#0579b7"/><stop offset=".46" stop-color="#0c85c2"/><stop offset=".52" stop-color="#1696d2"/><stop offset=".55" stop-color="#1da1dc"/><stop offset=".98" stop-color="#1da1dc"/><stop offset="1" stop-color="#1da1dc"/></linearGradient><linearGradient id="Degradado_sin_nombre_201-2" x1="1280.66" y1="1234.5" x2="1372.94" y2="1062.19" xlink:href="#Degradado_sin_nombre_201"/></defs><g id="Plant"><path class="cls-13" d="m1012.8,1844.67c-2.36,1.8-6.83,1.95-12.57,1.11-278.67-54.1-559.13-202.69-523.67-318.5,10.21-30.98,44.7-47.28,77.69-51.88,48.37-6.47,101.85,5.28,149.4,19.94,52.82,16.96,100.82,37.3,147.85,63.3,53.9,30.95,88.58,78.83,113.18,133.56,20.27,45.05,34.54,93.11,49.43,141.03,1.09,3.96,1.89,8.81-1.22,11.35l-.1.08Z"/><path class="cls-20" d="m1276.85,1640.33c1.63-4.87-3.06-15.07-6.16-21.17-165.52-323.43-370.45-678.16-633.03-910.95-95.75-78.77-180.29-96.91-210.9-14-37.46,102.2,24.49,329.75,195.65,554.8,148.99,210.62,379.72,407.04,644.05,397.03.63-.05,1.24-.12,1.83-.2,4.41-.58,7.55-2.16,8.52-5.38"/><path class="cls-4" d="m691.66,371.17c3.51-100.06,51.48-201.68,165.68-163.13,27.02,9.11,52.72,24.74,75.13,42.48,231.39,184.74,250.2,529.21,213.37,808.65-8.16,71.29-17.59,141.58-26.31,212.94-1.39,10.24-3.12,20.64-5.43,30.68-18.37,87.02-76.26,106.83-152.48,61.46-76.02-50.95-107.08-150.66-140.42-231.67-4.23-10.57-8.53-21-12.79-31.65-92.12-230.53-133.58-481.7-116.78-729.56v-.2Z"/><path class="cls-6" d="m805.54,236.29c177.85,388.94,233.75,832.68,158.18,1254.29,0,0-26.19-4.98-26.19-4.98,83.67-416.59,36.9-858.71-131.99-1249.31h0Z"/><path class="cls-6" d="m478.9,688.27c150.46,314.75,350.21,605.09,589.25,857.27l-19.58,18.09c-234.41-260.26-427.27-556.88-569.67-875.36,0,0,142.4,318.48,0,0Z"/><path class="cls-16" d="m1014.12,1833.25c1.09,3.96,1.89,8.81-1.22,11.35l-.1.08c-2.36,1.8-6.83,1.95-12.57,1.11-278.67-54.1-559.13-202.69-523.67-318.5,10.21-30.98,44.7-47.28,77.69-51.88,48.37-6.47,101.85,5.28,149.4,19.94,52.82,16.96,100.82,37.3,147.85,63.3,53.9,30.95,88.58,78.83,113.18,133.56,20.27,45.05,34.54,93.11,49.43,141.03Zm256.58-214.09c-50.05-97.79-103.7-198.44-161.46-297.71,1.84-5.83,3.47-12.05,4.86-18.65,2.31-10.04,4.04-20.44,5.43-30.68,8.72-71.35,18.15-141.65,26.31-212.94,36.83-279.44,18.02-623.91-213.37-808.65-22.41-17.74-48.11-33.38-75.13-42.48-114.2-38.55-162.17,63.07-165.68,163.13v.2c-9.34,137.59-.71,276.21,24.57,411.74-25.61-26.12-51.78-51.16-78.57-74.91-95.75-78.77-180.29-96.91-210.9-14-37.46,102.2,24.49,329.75,195.65,554.8,148.99,210.62,379.72,407.04,644.05,397.03.63-.05,1.24-.12,1.83-.2,4.41-.58,7.55-2.16,8.52-5.38l.04-.13c1.63-4.87-3.06-15.07-6.16-21.17Z"/><path class="cls-6" d="m545.79,1531.43c235.67,66.6,455.62,191.89,634.35,362.53l-18.75,18.95c-169.33-173.86-382.49-306.38-615.59-381.48,0,0,233.1,75.1,0,0Z"/></g><g id="Image"><g id="Shadow_paper" class="cls-22"><path class="cls-7" d="m1740.43,2305.98l-889.02-514.08c-11.9-6.88-15.25-22.54-7.2-33.69h0c6.97-9.66,20.13-12.47,30.45-6.51l889.02,514.08c11.9,6.88,15.25,22.54,7.2,33.69h0c-6.97,9.66-20.13,12.47-30.45,6.51Z"/></g><path class="cls-3" d="m1762.7,1151.88l-852.61-492.25c-13.54-7.82-25.94-8.5-35.57-3.31h0s-27.8,15.84-27.8,15.84l923.68,1603.98,23.78-14.63h0c14.48-4.99,23.98-21.78,23.98-47.03v-956.64c0-40.83-24.83-88.27-55.45-105.95Z"/><path class="cls-12" d="m1755.86,2278.03c-6.6,0-13.67-2.15-21.01-6.39l-852.61-492.25c-30.02-17.33-54.45-64.09-54.45-104.22v-956.64c0-28.29,12.34-46.58,31.44-46.58,6.6,0,13.67,2.15,21.01,6.39l852.61,492.25c30.03,17.33,54.45,64.09,54.45,104.22v956.64c0,28.29-12.34,46.58-31.44,46.58Z"/><path class="cls-10" d="m859.22,669.95v4s0,0,0,0c6.25,0,12.98,2.06,20.01,6.12l852.61,492.25c29.47,17.02,53.45,62.99,53.45,102.49v956.64c0,27.08-11.56,44.58-29.44,44.58-6.25,0-12.98-2.06-20.01-6.12l-852.61-492.25c-29.47-17.02-53.45-62.99-53.45-102.49v-956.64c0-27.08,11.55-44.57,29.44-44.58v-4m0,0c-19.67,0-33.44,18.17-33.44,48.58v956.64c0,40.83,24.83,88.27,55.45,105.95l852.61,492.25c7.82,4.52,15.27,6.65,22.01,6.65,19.67,0,33.44-18.17,33.44-48.58v-956.64c0-40.83-24.83-88.27-55.45-105.95l-852.61-492.25c-7.82-4.52-15.27-6.65-22.01-6.65h0Z"/><path class="cls-11" d="m859.22,669.95v2c6.6,0,13.67,2.15,21.01,6.39l852.61,492.25c30.03,17.33,54.45,64.09,54.45,104.22v956.64c0,28.29-12.34,46.58-31.44,46.58-6.6,0-13.67-2.15-21.01-6.39l-852.61-492.25c-30.03-17.34-54.45-64.09-54.45-104.22v-956.64c0-28.29,12.34-46.57,31.44-46.58v-2m0,0c-19.67,0-33.44,18.17-33.44,48.58v956.64c0,40.83,24.83,88.27,55.45,105.95l852.61,492.25c7.82,4.52,15.27,6.65,22.01,6.65,19.67,0,33.44-18.17,33.44-48.58v-956.64c0-40.83-24.83-88.27-55.45-105.95l-852.61-492.25c-7.82-4.52-15.27-6.65-22.01-6.65h0Z"/><g class="cls-24"><path class="cls-14" d="m1516.05,1411.95l556.62,1174.29-1214.25-692.48,529.38-505.53c39.66-37.87,104.76-25.83,128.25,23.72Z"/><path class="cls-19" d="m1191.19,1403l56.45,119.08-281.27,268.6-284.7-47.3,381.28-364.11c39.66-37.87,104.76-25.83,128.25,23.72Z"/><ellipse class="cls-17" cx="1143.48" cy="1152.43" rx="67.66" ry="117.2" transform="translate(-425.67 736) rotate(-30.36)"/></g><path class="cls-23" d="m1658.01,2131.35l-700.94-404.69c-25.18-14.54-45.59-53.53-45.59-87.1v-786.47c0-33.57,20.41-49,45.59-34.46l700.94,404.69c25.18,14.54,45.59,53.53,45.59,87.1v786.47c0,33.57-20.41,49-45.59,34.46Z"/></g><g id="Plus"><path class="cls-1" d="m1822.47,1105.34c-3.27-1.19-43.78,21.31-48.82,24.85l-.46,98.46-141.36-81.61c-6.54-3.77-11.86-.74-11.88,6.77l-.26,90.16c-.02,7.5,5.26,16.65,11.8,20.43l141.36,81.61-.46,162.43c-.02,7.51,5.26,16.65,11.79,20.42,0,0,35.63-26.57,35.66-34.08l2.62-389.43Z"/><g id="PlusBlue"><g id="_Blue"><g class="cls-21"><path class="cls-15" d="m1823.3,1596.59l.46-162.43,32.88-19.11-.46,162.43c-.01,3.73-1.33,6.35-3.45,7.58l-32.88,19.11c2.12-1.23,3.44-3.86,3.45-7.58Z"/><path class="cls-18" d="m1605.06,1156.29c2.15-1.25,5.13-1.08,8.42.82l141.36,81.61-32.88,19.11-141.36-81.61c-3.29-1.9-6.27-2.07-8.42-.82l32.88-19.11Z"/><path class="cls-2" d="m1856.97,1297.7l141.36,81.61c6.54,3.77,11.81,12.92,11.79,20.43l-.26,90.16c-.01,3.73-1.33,6.35-3.45,7.59l-32.88,19.11c2.12-1.23,3.44-3.86,3.45-7.59l.26-90.16c.02-7.51-5.25-16.66-11.79-20.43l-141.36-81.61,32.88-19.11Z"/><path class="cls-9" d="m1734.29,1088.64c-6.53-3.77-11.85-.75-11.87,6.76l-.46,162.43-141.36-81.61c-6.54-3.77-11.86-.74-11.88,6.77l-.26,90.16c-.02,7.5,5.26,16.65,11.8,20.43l141.36,81.61-.46,162.43c-.02,7.51,5.26,16.65,11.79,20.42l78.47,45.3c6.54,3.77,11.86.75,11.88-6.76l.46-162.43,141.36,81.61c6.54,3.77,11.85.74,11.87-6.76l.26-90.16c.02-7.51-5.25-16.66-11.79-20.43l-141.36-81.61.46-162.43c.02-7.51-5.26-16.65-11.8-20.43l-78.47-45.3Z"/><path class="cls-5" d="m1758.75,1068.71c2.15-1.25,5.13-1.07,8.42.82l78.47,45.3c6.54,3.77,11.82,12.92,11.8,20.43l-.46,162.43-32.88,19.11.46-162.43c.02-7.51-5.26-16.65-11.8-20.43l-78.47-45.3c-3.29-1.9-6.27-2.07-8.42-.82l32.88-19.11Z"/></g></g></g></g></svg>
