<svg xmlns="http://www.w3.org/2000/svg" xmlns:xlink="http://www.w3.org/1999/xlink" viewBox="0 0 2500 2500"><defs><style>.cls-1{fill:#fff;}.cls-2{opacity:0.6;}.cls-3{opacity:0.17;}.cls-4{isolation:isolate;}.cls-5{fill:url(#Degradado_sin_nombre_75);}.cls-6{fill:url(#Nueva_muestra_de_degradado_69);}.cls-7{fill:url(#Degradado_sin_nombre_98);}.cls-8{fill:url(#Nueva_muestra_de_degradado_69-2);}.cls-9{fill:url(#Nueva_muestra_de_degradado_72);}.cls-10,.cls-11,.cls-12{fill-opacity:0.58;}.cls-10{fill:url(#Degradado_sin_nombre_106);}.cls-11{fill:url(#Degradado_sin_nombre_106-2);}.cls-12{fill:url(#Degradado_sin_nombre_111);}.cls-13{fill:#20bcec;}.cls-14{fill:url(#linear-gradient);}.cls-15{fill:#00a7d4;}.cls-16{fill:#52d6ff;}.cls-17{fill:url(#linear-gradient-2);}.cls-18{fill:url(#linear-gradient-3);}.cls-19{fill:url(#linear-gradient-4);}.cls-20{filter:url(#AI_DesenfoqueGaussiano_15);}.cls-21{fill:#0f0b26;opacity:0.07;}.cls-22{fill:#a6c8e2;fill-rule:evenodd;}.cls-23{fill:url(#Degradado_sin_nombre_52);}.cls-24{fill:url(#Degradado_sin_nombre_52-2);}.cls-25{fill:url(#linear-gradient-5);}.cls-26{fill:url(#Degradado_sin_nombre_8);}.cls-27{fill:url(#Degradado_sin_nombre_5);}.cls-28{fill:url(#Degradado_sin_nombre_4);}.cls-29{fill:#4dd2d2;}.cls-30{fill:url(#Degradado_sin_nombre_4-2);}</style><linearGradient id="Degradado_sin_nombre_75" x1="8536.32" y1="-7901.2" x2="8224.21" y2="-7066.28" gradientTransform="matrix(-1, 0, 0, 1, 8683.66, 7880.69)" gradientUnits="userSpaceOnUse"><stop offset="0.25" stop-color="#58d1ed" stop-opacity="0.4"/><stop offset="0.35" stop-color="#54ceec" stop-opacity="0.44"/><stop offset="0.51" stop-color="#4bc6e9" stop-opacity="0.54"/><stop offset="0.71" stop-color="#3ab9e4" stop-opacity="0.7"/><stop offset="0.93" stop-color="#24a7de" stop-opacity="0.93"/><stop offset="0.99" stop-color="#1da1dc"/></linearGradient><linearGradient id="Nueva_muestra_de_degradado_69" x1="-94.84" y1="-94.74" x2="270.43" y2="150.07" gradientUnits="userSpaceOnUse"><stop offset="0" stop-color="#90e5ff"/><stop offset="1" stop-color="#1da1dc"/></linearGradient><linearGradient id="Degradado_sin_nombre_98" x1="10135.84" y1="-7683.69" x2="10334.76" y2="-7463.83" gradientTransform="translate(-9822.81 7880.69)" gradientUnits="userSpaceOnUse"><stop offset="0" stop-color="#90e5ff"/><stop offset="0.82" stop-color="#1da1dc"/></linearGradient><linearGradient id="Nueva_muestra_de_degradado_69-2" x1="9920.31" y1="-7983.78" x2="10331.23" y2="-7614.74" gradientTransform="translate(-9822.81 7880.69)" xlink:href="#Nueva_muestra_de_degradado_69"/><linearGradient id="Nueva_muestra_de_degradado_72" x1="8349.27" y1="-7722.08" x2="8671.86" y2="-6891.73" gradientTransform="matrix(-1, 0, 0, 1, 8683.66, 7880.69)" gradientUnits="userSpaceOnUse"><stop offset="0" stop-color="#fff" stop-opacity="0.4"/><stop offset="0.27" stop-color="#fff" stop-opacity="0.4"/><stop offset="0.43" stop-color="#b7d4f4" stop-opacity="0.4"/><stop offset="0.92" stop-color="#b7d4f4" stop-opacity="0"/></linearGradient><linearGradient id="Degradado_sin_nombre_106" x1="8238.87" y1="-7545.04" x2="7712.79" y2="-6918.84" gradientTransform="matrix(-1, 0, 0, 1, 8683.66, 7880.69)" gradientUnits="userSpaceOnUse"><stop offset="0" stop-color="#fff" stop-opacity="0.6"/><stop offset="0.17" stop-color="#fff" stop-opacity="0.6"/><stop offset="0.43" stop-color="#b7d4f4" stop-opacity="0.4"/><stop offset="0.92" stop-color="#b7d4f4" stop-opacity="0"/></linearGradient><linearGradient id="Degradado_sin_nombre_106-2" x1="8457.75" y1="-7880.09" x2="7567.87" y2="-6884.2" xlink:href="#Degradado_sin_nombre_106"/><linearGradient id="Degradado_sin_nombre_111" x1="8604.63" y1="-7871.77" x2="8316.07" y2="-7560.31" gradientTransform="matrix(-1, 0, 0, 1, 8683.66, 7880.69)" gradientUnits="userSpaceOnUse"><stop offset="0.04" stop-color="#fff" stop-opacity="0.6"/><stop offset="0.27" stop-color="#fff" stop-opacity="0.4"/><stop offset="0.43" stop-color="#b7d4f4" stop-opacity="0.4"/><stop offset="0.92" stop-color="#b7d4f4" stop-opacity="0"/></linearGradient><linearGradient id="linear-gradient" x1="565.79" y1="1496.08" x2="677.1" y2="1424.52" gradientUnits="userSpaceOnUse"><stop offset="0" stop-color="#52d6ff" stop-opacity="0.1"/><stop offset="0.18" stop-color="#36b4e4" stop-opacity="0.17"/><stop offset="0.54" stop-color="#0e82bd" stop-opacity="0.27"/><stop offset="0.87" stop-color="#0071b0" stop-opacity="0.3"/></linearGradient><linearGradient id="linear-gradient-2" x1="972.48" y1="796.26" x2="1112.95" y2="780.36" gradientUnits="userSpaceOnUse"><stop offset="0" stop-color="#52d6ff" stop-opacity="0.1"/><stop offset="1" stop-color="#0071b0" stop-opacity="0.3"/></linearGradient><linearGradient id="linear-gradient-3" x1="1050.95" y1="781.42" x2="1031.07" y2="524.34" xlink:href="#linear-gradient"/><linearGradient id="linear-gradient-4" x1="539.46" y1="1138.97" x2="437.82" y2="1149.4" xlink:href="#linear-gradient-2"/><filter id="AI_DesenfoqueGaussiano_15" name="AI_DesenfoqueGaussiano_15"><feGaussianBlur stdDeviation="15"/></filter><linearGradient id="Degradado_sin_nombre_52" x1="701.64" y1="1319.75" x2="694.37" y2="1327.03" gradientTransform="matrix(9.55, 5.51, 0, 12.73, -5521.25, -19331.58)" gradientUnits="userSpaceOnUse"><stop offset="0.18" stop-color="#90aec4"/><stop offset="1" stop-color="#a6c8e2"/></linearGradient><linearGradient id="Degradado_sin_nombre_52-2" x1="704.9" y1="1339.33" x2="712.16" y2="1332.07" xlink:href="#Degradado_sin_nombre_52"/><linearGradient id="linear-gradient-5" x1="1781.14" y1="1478.05" x2="1619.16" y2="1751.13" gradientUnits="userSpaceOnUse"><stop offset="0" stop-color="#fff" stop-opacity="0"/><stop offset="1" stop-color="#fff" stop-opacity="0.7"/></linearGradient><linearGradient id="Degradado_sin_nombre_8" x1="1717.23" y1="1597.25" x2="1688.81" y2="1927.25" gradientUnits="userSpaceOnUse"><stop offset="0.01" stop-color="#12abbb"/><stop offset="0.22" stop-color="#0ca0b3"/><stop offset="0.67" stop-color="#038ea6"/><stop offset="1" stop-color="#0088a1"/></linearGradient><linearGradient id="Degradado_sin_nombre_5" x1="1772.93" y1="1439.94" x2="1948.47" y2="1331.77" gradientUnits="userSpaceOnUse"><stop offset="0.01" stop-color="#12abbb"/><stop offset="0.31" stop-color="#099aae"/><stop offset="0.67" stop-color="#028da4"/><stop offset="1" stop-color="#0088a1"/></linearGradient><linearGradient id="Degradado_sin_nombre_4" x1="1498.76" y1="1765.76" x2="1651.85" y2="1454.55" gradientUnits="userSpaceOnUse"><stop offset="0.01" stop-color="#12abbb"/><stop offset="0.31" stop-color="#11a9ba"/><stop offset="0.41" stop-color="#0ea2b5"/><stop offset="0.49" stop-color="#0797ac"/><stop offset="0.55" stop-color="#0088a1"/><stop offset="0.98" stop-color="#0088a1"/><stop offset="1" stop-color="#0088a1"/></linearGradient><linearGradient id="Degradado_sin_nombre_4-2" x1="1697.86" y1="1386.43" x2="1805.61" y2="1185.22" xlink:href="#Degradado_sin_nombre_4"/><symbol id="cloud-2" data-name="cloud" viewBox="0 0 601.25 566.93"><g id="Clloud"><g id="Cloud-4" data-name="Cloud"><path class="cls-1" d="M135.84,64.92C61.65,23.1,1.59,58,1.34,143.44c-.24,86.12,60.32,191,135.26,234.27l300,173.19c61,35.23,110.66,7,110.86-63.17.18-65.32-42.6-143.93-97.8-182.85-17.79-97.6-85.82-201.83-167.22-248.82C220.69,20.42,166.43,26.44,135.84,64.92Z"/><g class="cls-2"><path class="cls-1" d="M205.09,35.38c23.61,0,49.13,7.82,75.84,23.24,19.69,11.37,39,26.35,57.36,44.52a383.74,383.74,0,0,1,49.12,60c29.62,44.46,50.69,95,59.3,142.28l.22,1.19,1,.7c26.47,18.66,50.89,47.25,68.77,80.51,18,33.47,27.86,69,27.78,99.91-.14,46.49-22.48,75.37-58.31,75.37-15,0-31.14-5-48.1-14.76l-300-173.19c-74-42.72-134-146.66-133.77-231.69.08-28.79,7.12-52.69,20.35-69.12C37.37,58.55,55.33,50.21,76.59,50.21c18,0,37.44,5.82,57.8,17.29l2.2,1.24,1.57-2c16.33-20.54,39.47-31.39,66.93-31.39m0-3c-28.45,0-52.43,11.34-69.25,32.5-21.26-12-41.38-17.67-59.25-17.68-44.47,0-75.07,35.22-75.25,96.2-.24,86.12,60.32,191,135.26,234.27l300,173.19c17.82,10.28,34.66,15.16,49.59,15.16,36.2,0,61.13-28.68,61.27-78.33.18-65.32-42.6-143.93-97.8-182.85-17.79-97.6-85.82-201.83-167.22-248.82-27.78-16-54.05-23.64-77.32-23.64Z"/></g><g class="cls-3"><path class="cls-1" d="M205.09,42.79c22,0,46.92,7.69,72.14,22.25,19.14,11,37.93,25.64,55.86,43.37a375.65,375.65,0,0,1,48.15,58.83c29.08,43.64,49.75,93.18,58.19,139.5l.76,4.17,3.46,2.44c25.55,18,49.17,45.7,66.52,78s27,66.64,26.89,96.38c-.06,21.61-5.19,39.35-14.82,51.31-8.79,10.91-21.27,16.68-36.08,16.68-13.45,0-28.8-4.76-44.4-13.77l-300-173.19c-34.7-20-67.38-54.58-92-97.27s-38.16-88.14-38-128c.08-27.08,6.55-49.39,18.72-64.49C41.69,65,57.65,57.61,76.59,57.61c16.47,0,35.2,5.66,54.16,16.35l7.7,4.34L144,71.38c14.87-18.71,36-28.59,61.13-28.59m0-10.37c-28.45,0-52.43,11.34-69.25,32.5-21.26-12-41.38-17.67-59.25-17.68-44.47,0-75.07,35.22-75.25,96.2-.24,86.12,60.32,191,135.26,234.27l300,173.19c17.82,10.28,34.66,15.16,49.59,15.16,36.2,0,61.13-28.68,61.27-78.33.18-65.32-42.6-143.93-97.8-182.85-17.79-97.6-85.82-201.83-167.22-248.82-27.78-16-54.05-23.64-77.32-23.64Z"/></g><g id="cloud-5" data-name="cloud"><g class="cls-4"><path class="cls-5" d="M135.84,64.92C61.65,23.1,1.59,58,1.34,143.44c-.24,86.12,60.32,191,135.26,234.27l300,173.19c61,35.23,110.66,7,110.86-63.17.18-65.32-42.6-143.93-97.8-182.85-17.79-97.6-85.82-201.83-167.22-248.82C220.69,20.42,166.43,26.44,135.84,64.92Z"/><g class="cls-3"><path class="cls-1" d="M205.09,37.42c23.25,0,48.42,7.72,74.82,23,19.54,11.28,38.7,26.15,56.95,44.2a381.2,381.2,0,0,1,48.85,59.67c29.48,44.24,50.43,94.49,59,141.52l.37,2,1.67,1.18c26.21,18.48,50.41,46.82,68.14,79.8,17.85,33.19,27.63,68.33,27.54,99-.13,45.24-21.69,73.34-56.27,73.34-14.39,0-30.67-5-47.09-14.49l-300-173.19C65.66,331,6.1,227.83,6.34,143.45,6.5,87.19,33.42,52.24,76.59,52.24c17.64,0,36.75,5.74,56.79,17l3.72,2.09L139.75,68c15.93-20,38.52-30.61,65.34-30.61m0-5c-28.45,0-52.43,11.34-69.25,32.5-21.26-12-41.38-17.67-59.25-17.68-44.47,0-75.07,35.22-75.25,96.2-.24,86.12,60.32,191,135.26,234.27l300,173.19c17.82,10.28,34.66,15.16,49.59,15.16,36.2,0,61.13-28.68,61.27-78.33.18-65.32-42.6-143.93-97.8-182.85-17.79-97.6-85.82-201.83-167.22-248.82-27.78-16-54.05-23.64-77.32-23.64Z"/></g></g></g><path class="cls-6" d="M43.2,55.14l1.21-.61L45.56,54c.4-.19.81-.36,1.21-.54l1.2-.55,1.24-.5c.41-.16.81-.34,1.23-.49s.83-.3,1.25-.45L53,51l1.29-.4c.42-.14.84-.28,1.27-.4s.88-.24,1.33-.36l1.28-.35,1.35-.31,1.3-.3,1.41-.27c.43-.08.86-.17,1.3-.24s.92-.14,1.39-.21l1.35-.21,1.41-.16L69,47.6c.48-.05,1-.08,1.44-.11l1.4-.11c.49,0,1,0,1.48-.06l1.39-.06h1.51c.47,0,.93,0,1.41,0l1.49,0c.48,0,1,0,1.46.05l1.54.09,1.45.1,1.55.14c.49,0,1,.09,1.48.15l1.57.2,1.5.19,1.58.26,1.52.24,1.6.31,1.54.29c.57.12,1.14.26,1.71.39l1.45.32,1.71.44c.5.12,1,.24,1.5.38s1.15.33,1.73.49l1.5.43,1.73.54,1.53.49c.61.19,1.22.41,1.82.62l1.47.51c.7.25,1.39.52,2.09.78l1.23.46,1.91.77,1.44.58,1.91.83,1.46.63q1.13.51,2.25,1.05c.38.17.77.34,1.15.53.67.31,1.34.65,2,1l1.41.7c.8.4,1.61.83,2.41,1.25.35.18.69.35,1,.54,1.16.61,2.31,1.25,3.47,1.9A83.82,83.82,0,0,1,187.05,34c-36.66-20.37-69.82-22-93.92-8L40.93,56.4l1.15-.64C42.45,55.56,42.82,55.34,43.2,55.14Z"/><path class="cls-7" d="M567.4,528.26,515.2,558.6c19.83-11.53,32.13-36,32.23-70.87.18-65.32-42.6-143.93-97.8-182.85l52.2-30.34c55.2,38.93,98,117.53,97.8,182.86C599.53,492.23,587.23,516.74,567.4,528.26Z"/><path class="cls-8" d="M334.61,25.72C286.72-1.93,243.33-4.5,212,13.71l-52.2,30.34c31.34-18.21,74.73-15.64,122.62,12,81.4,47,149.43,151.22,167.22,248.82l52.2-30.34C484,176.94,416,72.71,334.61,25.72Z"/><path class="cls-9" d="M135.84,64.92C61.65,23.1,1.59,58,1.34,143.44c-.24,86.12,60.32,191,135.26,234.27l300,173.19c61,35.23,110.66,7,110.86-63.17.18-65.32-42.6-143.93-97.8-182.85-17.79-97.6-85.82-201.83-167.22-248.82C220.69,20.42,166.43,26.44,135.84,64.92Z"/><g class="cls-3"><path class="cls-1" d="M205.09,42.79c22,0,46.92,7.69,72.14,22.25,19.14,11,37.93,25.64,55.86,43.37a375.65,375.65,0,0,1,48.15,58.83c29.08,43.64,49.75,93.18,58.19,139.5l.76,4.17,3.46,2.44c25.55,18,49.17,45.7,66.52,78s27,66.64,26.89,96.38c-.06,21.61-5.19,39.35-14.82,51.31-8.79,10.91-21.27,16.68-36.08,16.68-13.45,0-28.8-4.76-44.4-13.77l-300-173.19c-34.7-20-67.38-54.58-92-97.27s-38.16-88.14-38-128c.08-27.08,6.55-49.39,18.72-64.49C41.69,65,57.65,57.61,76.59,57.61c16.47,0,35.2,5.66,54.16,16.35l7.7,4.34L144,71.38c14.87-18.71,36-28.59,61.13-28.59m0-10.37c-28.45,0-52.43,11.34-69.25,32.5-21.26-12-41.38-17.67-59.25-17.68-44.47,0-75.07,35.22-75.25,96.2-.24,86.12,60.32,191,135.26,234.27l300,173.19c17.82,10.28,34.66,15.16,49.59,15.16,36.2,0,61.13-28.68,61.27-78.33.18-65.32-42.6-143.93-97.8-182.85-17.79-97.6-85.82-201.83-167.22-248.82-27.78-16-54.05-23.64-77.32-23.64Z"/></g><path class="cls-10" d="M567.4,528.26,515.2,558.6c19.83-11.53,32.13-36,32.23-70.87.18-65.32-42.6-143.93-97.8-182.85l52.2-30.34c55.2,38.93,98,117.53,97.8,182.86C599.53,492.23,587.23,516.74,567.4,528.26Z"/><path class="cls-11" d="M334.61,25.72C286.72-1.93,243.33-4.5,212,13.71l-52.2,30.34c31.34-18.21,74.73-15.64,122.62,12,81.4,47,149.43,151.22,167.22,248.82l52.2-30.34C484,176.94,416,72.71,334.61,25.72Z"/><path class="cls-12" d="M43.2,55.14c.39-.21.8-.4,1.19-.6L45.56,54c.4-.19.8-.36,1.21-.54l1.2-.55,1.22-.49,1.25-.5c.41-.16.83-.31,1.25-.45L53,51l1.29-.4c.43-.14.84-.28,1.27-.4s.89-.24,1.33-.36l1.28-.35,1.35-.31c.44-.1.87-.21,1.31-.3s.91-.18,1.37-.26.88-.18,1.33-.25.92-.14,1.39-.21l1.35-.21,1.42-.16c.46,0,.91-.11,1.37-.15s1-.08,1.47-.12l1.37-.1c.49,0,1,0,1.49-.06l1.38-.06h1.5c.47,0,.94,0,1.42,0l1.52,0c.48,0,1,0,1.43.05l1.55.09,1.44.1,1.59.15c.48,0,1,.08,1.44.14l1.58.2,1.49.19,1.57.26c.51.08,1,.15,1.53.24l1.61.31,1.53.3c.55.11,1.1.24,1.66.37l1.51.33,1.7.44c.5.12,1,.24,1.5.38l1.68.48c.52.14,1,.28,1.55.44s1.17.36,1.75.55,1,.31,1.51.48,1.19.4,1.79.61l1.5.52,1.78.66,1.54.58,1.84.74,1.51.61,1.75.76c.54.24,1.08.46,1.62.71s1.15.52,1.72.79l1.68.78c.7.33,1.41.69,2.12,1l1.3.64,2,1.05c.48.25,1,.48,1.43.74l1.35.74,2.11,1.16h0a85.25,85.25,0,0,1,24.3-21.07l-.35.2,22-12.8c-34.59-17.7-65.74-18.52-88.69-5.19L40.93,56.4c.37-.22.75-.42,1.13-.63Z"/></g></g></symbol></defs><g id="Plant"><path class="cls-13" d="M712.06,1549.61a551.84,551.84,0,0,1-89-33.48c-47-22.35-90.2-53.28-127.71-89.3-19.28-18.51-35.35-41-43-66.6-5-16.8-5.7-36.61,5.38-50.18,10.19-12.48,28.39-16.42,44-12.62s29,14.17,39.81,26.1,19.59,25.56,29.58,38.2c31.73,40.13,75.28,69.44,120.95,92.48s94,40.41,140.83,60.91c12.84,5.61,37.52,15.75,39.23,32.38,1.94,19-25.62,17.8-37.73,18.19C793.91,1567,752.24,1560.79,712.06,1549.61Z"/><path class="cls-14" d="M712.06,1549.61a551.84,551.84,0,0,1-89-33.48c-47-22.35-90.2-53.28-127.71-89.3-19.28-18.51-35.35-41-43-66.6-5-16.8-5.7-36.61,5.38-50.18,10.19-12.48,28.39-16.42,44-12.62s29,14.17,39.81,26.1,19.59,25.56,29.58,38.2c31.73,40.13,75.28,69.44,120.95,92.48s94,40.41,140.83,60.91c12.84,5.61,37.52,15.75,39.23,32.38,1.94,19-25.62,17.8-37.73,18.19C793.91,1567,752.24,1560.79,712.06,1549.61Z"/><path class="cls-15" d="M499.76,1347.46c92.54,95.77,223.91,152.72,356.45,154.31l-.74,20c-135.69-8.4-266.61-72.48-355.71-174.3Z"/><path class="cls-16" d="M782.27,1330.93c-63.14-26-96.25-66-137.45-120.53s-70.75-117-94.49-181c-42.78-115.4-67.57-239.83-52-361.93s74.88-241.7,175-313.34c58.42-41.81,132.07-66.36,202.82-53.91s135.73,67.15,147.89,138c12.86,74.93-31.4,146-65.57,214C880.87,806.25,849,983,867.91,1154.48c4.22,38.28,10.79,77.82-.48,114.64S820,1338.71,782.27,1330.93Z"/><path class="cls-17" d="M782.27,1330.93c-63.14-26-96.25-66-137.45-120.53s-70.75-117-94.49-181c-42.78-115.4-67.57-239.83-52-361.93s74.88-241.7,175-313.34c58.42-41.81,132.07-66.36,202.82-53.91s135.73,67.15,147.89,138c12.86,74.93-31.4,146-65.57,214C880.87,806.25,849,983,867.91,1154.48c4.22,38.28,10.79,77.82-.48,114.64S820,1338.71,782.27,1330.93Z"/><path class="cls-15" d="M886.8,385.47C759.21,485.25,697,647.43,683.4,805c-13.59,160.19,16.64,318.45,46.47,475.61l-46.37,7.66C672.29,1208.45,661,1128,655.22,1046.78S649.11,883.36,660,802.44c21.59-159.49,92.36-321.9,226.76-417Z"/><path class="cls-13" d="M800.93,1240.12c-5.26-18.33-3.59-36.8-4.4-56-1-24.39-1.19-48.83-.27-73.23,1.8-48.14,7.78-96.2,19.32-143,21.88-88.7,64.63-173.47,130-237.29s154.4-105.26,245.77-105c33.9.09,68.85,6.22,97.12,24.93s48.59,51.85,45.15,85.59c-4.19,41.23-41.45,72.12-80.57,85.84s-81.4,14.89-121.86,23.89a320.43,320.43,0,0,0-250.89,314.87c.17,25.71,3.22,52.61-7.17,76.12-5.78,13.08-19.12,25-32.28,30.28-17.86,7.14-30.72-2.86-37.4-19.59A77.79,77.79,0,0,1,800.93,1240.12Z"/><path class="cls-18" d="M800.93,1240.12c-5.26-18.33-3.59-36.8-4.4-56-1-24.39-1.19-48.83-.27-73.23,1.8-48.14,7.78-96.2,19.32-143,21.88-88.7,64.63-173.47,130-237.29s154.4-105.26,245.77-105c33.9.09,68.85,6.22,97.12,24.93s48.59,51.85,45.15,85.59c-4.19,41.23-41.45,72.12-80.57,85.84s-81.4,14.89-121.86,23.89a320.43,320.43,0,0,0-250.89,314.87c.17,25.71,3.22,52.61-7.17,76.12-5.78,13.08-19.12,25-32.28,30.28-17.86,7.14-30.72-2.86-37.4-19.59A77.79,77.79,0,0,1,800.93,1240.12Z"/><path class="cls-15" d="M1232.22,736.74c-73-10.5-150.21-2.9-216.71,30.29-1.42.65-4.11,2-5.46,2.8-3.31,1.79-7.56,4.1-10.76,5.89a327.5,327.5,0,0,0-54.06,40.06c-3.11,3.06-10.25,9.79-13.15,12.84-3.81,4.16-8.83,9.21-12.45,13.5C895.46,869.69,875.2,901,859,933.79c-23.76,47.57-39.07,99-50.07,150.9-5,24-9.21,48.5-12.74,72.74-4.78,32.53-8.61,65.27-12.42,98.09L763.9,1253c7.25-51.19,14.65-102.73,25.61-153.4,12.41-57,29.62-113.42,56.22-165.51,5.57-10.61,12.12-22.57,18.45-32.77a430.3,430.3,0,0,1,36.54-50.89c3.58-4.59,10.64-12,14.5-16.46,1.41-1.45,5.15-5.21,6.61-6.7.74-.74,4.82-4.91,5.5-5.58s2.65-2.44,3.45-3.19C955,795.64,982.88,776,1013.06,762c67.88-31.77,145.85-37.67,219.16-25.22Z"/><path class="cls-13" d="M723.28,1505.64c-47.91-16.6-89-48.74-124.68-84.79C463.85,1284.63,398.8,1082.77,428.66,893.5c6.06-38.45,16.25-77.33,39-108.94s60-54.9,98.86-52.15c29.31,2.08,56.22,18.61,75.95,40.38S675.52,821.3,687,848.36c73.5,173.64,76.93,370.09,145.85,545.6,9.27,23.6,19.82,46.62,30.4,69.65,7.87,17.16,9.64,30.34-9.05,40C815.3,1523.68,763.27,1519.48,723.28,1505.64Z"/><path class="cls-19" d="M723.28,1505.64c-47.91-16.6-89-48.74-124.68-84.79C463.85,1284.63,398.8,1082.77,428.66,893.5c6.06-38.45,16.25-77.33,39-108.94s60-54.9,98.86-52.15c29.31,2.08,56.22,18.61,75.95,40.38S675.52,821.3,687,848.36c73.5,173.64,76.93,370.09,145.85,545.6,9.27,23.6,19.82,46.62,30.4,69.65,7.87,17.16,9.64,30.34-9.05,40C815.3,1523.68,763.27,1519.48,723.28,1505.64Z"/><path class="cls-15" d="M775.65,1389.2c-164.3-117.67-255.6-325.58-229.79-524.62-13.71,195.35,85.07,392,249.57,495.74l-19.78,28.88Z"/></g><g id="Cloud"><g class="cls-20"><path class="cls-21" d="M1679.11,2145.61,812.56,1645.73c-21.85-12.61-19.11-34.64,6.12-49.21h0c25.22-14.56,63.38-16.15,85.23-3.53l866.56,499.88c21.84,12.61,19.1,34.64-6.12,49.21h0C1739.12,2156.64,1701,2158.22,1679.11,2145.61Z"/></g><use width="601.25" height="566.93" transform="translate(676.95 938.34) scale(2.06)" xlink:href="#cloud-2"/><path class="cls-22" d="M1365.94,1564,1210.17,1295.5l-15.09-26-117.26,66.72-53.62,30.49c-5.58,3.21-5.58,13.59,0,23.23l107.12,184.65,63.76,109.87,117.24-66.72,1.82-1,51.8-29.37c5.61-3.15,5.65-13.54.07-23.2l-.07-.13Zm-170.86-25.67-53.53-92.26,53.53-30.45,53.5,92.25Z"/><path class="cls-23" d="M1195.08,1415.61c-35-60.39-35.22-125.55-.39-145.85l-117.11,66.58,63.73,109.86Z"/><path class="cls-24" d="M1248.73,1507.77l-53.65,30.55c35.18,60.66,35.18,126.06,0,146.09l117.43-66.75Z"/></g><g id="Plus"><path class="cls-25" d="M2029.93,1326.26c0-5.72-2-10.55-5.46-13.65l.13-.26-40.82-23.73a14.58,14.58,0,0,0-7.38-1.94,20.22,20.22,0,0,0-10,2.89l-115.58,66.73-.37-132.31c0-5.74-2-10.57-5.49-13.68l.12-.25-40.79-23.7a14.42,14.42,0,0,0-7.37-1.94,20.22,20.22,0,0,0-10,2.89l-91.62,52.9c-10,5.78-17.56,18.84-17.53,30.36l.53,185.33L1517,1549c-10,5.79-17.55,18.84-17.51,30.38l.29,105.28c0,6.88,2.85,12.46,7.76,15.32l38.4,22.31,2.65,1.52.15-.29a14.66,14.66,0,0,0,4.6.71,20.17,20.17,0,0,0,9.95-2.89l115.57-66.73.38,132.31c0,6.88,2.85,12.47,7.76,15.32l38.06,22.12.11.11.58.26a14.32,14.32,0,0,0,2.12,1l.22.1v0a15,15,0,0,0,4.7.74h0a20.19,20.19,0,0,0,10-2.9l91.62-52.9c10-5.78,17.55-18.84,17.52-30.36l-.52-185.32,161.29-93.13c10-5.79,17.56-18.84,17.53-30.37Zm-24.73,122.66-168.82,97.47.55,194c0,6.14-4.66,14.24-10,17.33l-91.62,52.9a5.7,5.7,0,0,1-2.42.88l-2.33-1.6-.14.2-35.68-20.73a5.34,5.34,0,0,1-.44-2.48l-.45-158.21-138,79.68a5.64,5.64,0,0,1-2.42.87l-2.26-1.57-.15.21-35.74-20.77a5.56,5.56,0,0,1-.44-2.48l-.29-105.28c0-6.14,4.66-14.25,10-17.34l168.83-97.47-.56-194c0-6.14,4.67-14.24,10-17.33l91.62-52.9a5.76,5.76,0,0,1,2.46-.89l38.11,22.15a5.5,5.5,0,0,1,.44,2.47l.45,158.21,138-79.68a5.7,5.7,0,0,1,2.46-.88l35.81,20.8v0l2.31,1.32a5.34,5.34,0,0,1,.44,2.48l.3,105.29C2015.25,1437.73,2010.56,1445.83,2005.2,1448.92Z"/><g id="_Teal" data-name="+ Teal"><g class="cls-4"><path class="cls-26" d="M1725.17,1809.23l-.53-189.66-38.4-22.31.54,189.66c0,4.36,1.55,7.42,4,8.86l38.39,22.31C1726.72,1816.65,1725.19,1813.59,1725.17,1809.23Z"/><path class="cls-27" d="M1980,1295.11c-2.52-1.46-6-1.26-9.84,1l-165.06,95.3,38.4,22.31,165-95.3c3.85-2.22,7.33-2.42,9.84-1Z"/><path class="cls-28" d="M1685.85,1460.22l-165.06,95.3c-7.63,4.4-13.79,15.08-13.76,23.85l.29,105.29c0,4.35,1.55,7.41,4,8.85l38.4,22.32c-2.48-1.44-4-4.51-4-8.86l-.3-105.28c0-8.77,6.14-19.46,13.77-23.86l165.06-95.3Z"/><path class="cls-29" d="M1829.11,1216.11c7.62-4.4,13.83-.87,13.86,7.9l.54,189.67,165-95.3c7.64-4.41,13.85-.87,13.87,7.9l.3,105.28c0,8.76-6.14,19.45-13.78,23.86l-165.06,95.29.54,189.67c0,8.77-6.14,19.45-13.77,23.85l-91.62,52.9c-7.63,4.4-13.84.87-13.87-7.9l-.53-189.66-165.06,95.3c-7.64,4.4-13.84.86-13.86-7.9l-.3-105.28c0-8.77,6.14-19.46,13.77-23.86l165.06-95.3-.54-189.67c0-8.76,6.15-19.44,13.78-23.85Z"/><path class="cls-30" d="M1800.54,1192.84c-2.51-1.46-6-1.25-9.82,1l-91.63,52.9c-7.63,4.41-13.8,15.08-13.78,23.85l.54,189.67,38.4,22.31-.54-189.67c0-8.76,6.15-19.44,13.78-23.85l91.62-52.9c3.84-2.21,7.32-2.42,9.83-1Z"/></g></g></g></svg>