<svg xmlns="http://www.w3.org/2000/svg" xmlns:xlink="http://www.w3.org/1999/xlink" viewBox="0 0 2500 2500"><defs><style>.cls-1{fill:#91e2db;}.cls-2{fill:url(#linear-gradient);}.cls-3{fill:#6ad8cf;}.cls-4{fill:#c2ebe8;}.cls-5{fill:url(#linear-gradient-2);}.cls-6{fill:url(#linear-gradient-3);}.cls-7{fill:url(#linear-gradient-4);}.cls-8{filter:url(#AI_DesenfoqueGaussiano_15);}.cls-9{fill:#0f0b26;opacity:0.07;}.cls-10{fill:url(#Nueva_muestra_de_degradado_60);}.cls-11{fill:url(#Nueva_muestra_de_degradado_60-2);}.cls-12{fill:url(#Nueva_muestra_de_degradado_60-3);}.cls-13{fill:url(#Nueva_muestra_de_degradado_60-4);}.cls-14{opacity:0.6;}.cls-15{fill:#fff;}.cls-16{opacity:0.17;}.cls-17{fill:#ccd3d8;fill-rule:evenodd;}.cls-18{fill:url(#Degradado_sin_nombre_2);}.cls-19{fill:url(#Degradado_sin_nombre_2-2);}.cls-20{isolation:isolate;}.cls-21{fill:url(#Degradado_sin_nombre_203);}.cls-22{fill:url(#Degradado_sin_nombre_202);}.cls-23{fill:url(#Degradado_sin_nombre_201);}.cls-24{fill:#39c2ec;}.cls-25{fill:url(#Degradado_sin_nombre_201-2);}</style><linearGradient id="linear-gradient" x1="565.79" y1="1496.08" x2="677.1" y2="1424.52" gradientUnits="userSpaceOnUse"><stop offset="0" stop-color="#c2ebe8" stop-opacity="0.1"/><stop offset="0.15" stop-color="#9dd6d2" stop-opacity="0.16"/><stop offset="0.53" stop-color="#5ab0a9" stop-opacity="0.26"/><stop offset="0.87" stop-color="#43a39b" stop-opacity="0.3"/></linearGradient><linearGradient id="linear-gradient-2" x1="972.48" y1="796.26" x2="1112.95" y2="780.36" gradientUnits="userSpaceOnUse"><stop offset="0" stop-color="#c2ebe8" stop-opacity="0.1"/><stop offset="1" stop-color="#43a39b" stop-opacity="0.3"/></linearGradient><linearGradient id="linear-gradient-3" x1="1050.95" y1="781.42" x2="1031.07" y2="524.34" xlink:href="#linear-gradient"/><linearGradient id="linear-gradient-4" x1="539.46" y1="1138.97" x2="437.82" y2="1149.4" xlink:href="#linear-gradient-2"/><filter id="AI_DesenfoqueGaussiano_15" name="AI_DesenfoqueGaussiano_15"><feGaussianBlur stdDeviation="15"/></filter><linearGradient id="Nueva_muestra_de_degradado_60" x1="10623.74" y1="-6006.38" x2="11561.1" y2="-5378.15" gradientTransform="translate(-8193.58 5635.69) scale(0.82)" gradientUnits="userSpaceOnUse"><stop offset="0" stop-color="#fff"/><stop offset="0.51" stop-color="#eef7fb"/><stop offset="0.63" stop-color="#e3f2f9"/><stop offset="0.8" stop-color="#d8eef7"/><stop offset="0.99" stop-color="#d4ecf6"/></linearGradient><linearGradient id="Nueva_muestra_de_degradado_60-2" x1="11113.35" y1="-6021.11" x2="12157.07" y2="-5083.75" xlink:href="#Nueva_muestra_de_degradado_60"/><linearGradient id="Nueva_muestra_de_degradado_60-3" x1="11663.96" y1="-5262.39" x2="12169.2" y2="-4703.96" xlink:href="#Nueva_muestra_de_degradado_60"/><linearGradient id="Nueva_muestra_de_degradado_60-4" x1="11561.8" y1="-5873.29" x2="11571.86" y2="-3573.07" xlink:href="#Nueva_muestra_de_degradado_60"/><linearGradient id="Degradado_sin_nombre_2" x1="701.64" y1="1319.75" x2="694.37" y2="1327.03" gradientTransform="matrix(9.55, 5.51, 0, 12.73, -5521.25, -19331.58)" gradientUnits="userSpaceOnUse"><stop offset="0.18" stop-color="#b7bdc2"/><stop offset="1" stop-color="#ccd3d8"/></linearGradient><linearGradient id="Degradado_sin_nombre_2-2" x1="704.9" y1="1339.33" x2="712.16" y2="1332.07" xlink:href="#Degradado_sin_nombre_2"/><linearGradient id="Degradado_sin_nombre_203" x1="1717.23" y1="1597.25" x2="1688.81" y2="1927.25" gradientUnits="userSpaceOnUse"><stop offset="0.01" stop-color="#0071b0"/><stop offset="0.37" stop-color="#0f89c6"/><stop offset="0.73" stop-color="#199bd6"/><stop offset="1" stop-color="#1da1dc"/></linearGradient><linearGradient id="Degradado_sin_nombre_202" x1="1772.93" y1="1439.94" x2="1948.47" y2="1331.77" gradientUnits="userSpaceOnUse"><stop offset="0.01" stop-color="#0071b0"/><stop offset="0.1" stop-color="#0579b7"/><stop offset="0.42" stop-color="#128fcc"/><stop offset="0.72" stop-color="#1a9cd8"/><stop offset="1" stop-color="#1da1dc"/></linearGradient><linearGradient id="Degradado_sin_nombre_201" x1="1498.76" y1="1765.76" x2="1651.85" y2="1454.55" gradientUnits="userSpaceOnUse"><stop offset="0.01" stop-color="#0071b0"/><stop offset="0.29" stop-color="#0173b2"/><stop offset="0.39" stop-color="#057ab8"/><stop offset="0.46" stop-color="#0c85c3"/><stop offset="0.52" stop-color="#1696d2"/><stop offset="0.55" stop-color="#1da1dc"/><stop offset="0.98" stop-color="#1da1dc"/><stop offset="1" stop-color="#1da1dc"/></linearGradient><linearGradient id="Degradado_sin_nombre_201-2" x1="1697.86" y1="1386.43" x2="1805.61" y2="1185.22" xlink:href="#Degradado_sin_nombre_201"/></defs><g id="Plant"><path class="cls-1" d="M712.06,1549.61a551.84,551.84,0,0,1-89-33.48c-47-22.35-90.2-53.28-127.71-89.3-19.28-18.51-35.35-41-43-66.6-5-16.8-5.7-36.61,5.38-50.18,10.19-12.48,28.39-16.42,44-12.62s29,14.17,39.81,26.1,19.59,25.56,29.58,38.2c31.73,40.13,75.28,69.44,120.95,92.48s94,40.41,140.83,60.91c12.84,5.61,37.52,15.75,39.23,32.38,1.94,19-25.62,17.8-37.73,18.19C793.91,1567,752.24,1560.79,712.06,1549.61Z"/><path class="cls-2" d="M712.06,1549.61a551.84,551.84,0,0,1-89-33.48c-47-22.35-90.2-53.28-127.71-89.3-19.28-18.51-35.35-41-43-66.6-5-16.8-5.7-36.61,5.38-50.18,10.19-12.48,28.39-16.42,44-12.62s29,14.17,39.81,26.1,19.59,25.56,29.58,38.2c31.73,40.13,75.28,69.44,120.95,92.48s94,40.41,140.83,60.91c12.84,5.61,37.52,15.75,39.23,32.38,1.94,19-25.62,17.8-37.73,18.19C793.91,1567,752.24,1560.79,712.06,1549.61Z"/><path class="cls-3" d="M499.76,1347.46c92.54,95.77,223.91,152.72,356.45,154.31l-.74,20c-135.69-8.4-266.61-72.48-355.71-174.3Z"/><path class="cls-4" d="M782.27,1330.93c-63.14-26-96.25-66-137.45-120.53s-70.75-117-94.49-181c-42.78-115.4-67.57-239.83-52-361.93s74.88-241.7,175-313.34c58.42-41.81,132.07-66.36,202.82-53.91s135.73,67.15,147.89,138c12.86,74.93-31.4,146-65.57,214C880.87,806.25,849,983,867.91,1154.48c4.22,38.28,10.79,77.82-.48,114.64S820,1338.71,782.27,1330.93Z"/><path class="cls-5" d="M782.27,1330.93c-63.14-26-96.25-66-137.45-120.53s-70.75-117-94.49-181c-42.78-115.4-67.57-239.83-52-361.93s74.88-241.7,175-313.34c58.42-41.81,132.07-66.36,202.82-53.91s135.73,67.15,147.89,138c12.86,74.93-31.4,146-65.57,214C880.87,806.25,849,983,867.91,1154.48c4.22,38.28,10.79,77.82-.48,114.64S820,1338.71,782.27,1330.93Z"/><path class="cls-3" d="M886.8,385.47C759.21,485.25,697,647.43,683.4,805c-13.59,160.19,16.64,318.45,46.47,475.61l-46.37,7.66C672.29,1208.45,661,1128,655.22,1046.78S649.11,883.36,660,802.44c21.59-159.49,92.36-321.9,226.76-417Z"/><path class="cls-1" d="M800.93,1240.12c-5.26-18.33-3.59-36.8-4.4-56-1-24.39-1.19-48.83-.27-73.23,1.8-48.14,7.78-96.2,19.32-143,21.88-88.7,64.63-173.47,130-237.29s154.4-105.26,245.77-105c33.9.09,68.85,6.22,97.12,24.93s48.59,51.85,45.15,85.59c-4.19,41.23-41.45,72.12-80.57,85.84s-81.4,14.89-121.86,23.89a320.43,320.43,0,0,0-250.89,314.87c.17,25.71,3.22,52.61-7.17,76.12-5.78,13.08-19.12,25-32.28,30.28-17.86,7.14-30.72-2.86-37.4-19.59A77.79,77.79,0,0,1,800.93,1240.12Z"/><path class="cls-6" d="M800.93,1240.12c-5.26-18.33-3.59-36.8-4.4-56-1-24.39-1.19-48.83-.27-73.23,1.8-48.14,7.78-96.2,19.32-143,21.88-88.7,64.63-173.47,130-237.29s154.4-105.26,245.77-105c33.9.09,68.85,6.22,97.12,24.93s48.59,51.85,45.15,85.59c-4.19,41.23-41.45,72.12-80.57,85.84s-81.4,14.89-121.86,23.89a320.43,320.43,0,0,0-250.89,314.87c.17,25.71,3.22,52.61-7.17,76.12-5.78,13.08-19.12,25-32.28,30.28-17.86,7.14-30.72-2.86-37.4-19.59A77.79,77.79,0,0,1,800.93,1240.12Z"/><path class="cls-3" d="M1232.22,736.74c-73-10.5-150.21-2.9-216.71,30.29-1.42.65-4.11,2-5.46,2.8-3.31,1.79-7.56,4.1-10.76,5.89a327.5,327.5,0,0,0-54.06,40.06c-3.11,3.06-10.25,9.79-13.15,12.84-3.81,4.16-8.83,9.21-12.45,13.5C895.46,869.69,875.2,901,859,933.79c-23.76,47.57-39.07,99-50.07,150.9-5,24-9.21,48.5-12.74,72.74-4.78,32.53-8.61,65.27-12.42,98.09L763.9,1253c7.25-51.19,14.65-102.73,25.61-153.4,12.41-57,29.62-113.42,56.22-165.51,5.57-10.61,12.12-22.57,18.45-32.77a430.3,430.3,0,0,1,36.54-50.89c3.58-4.59,10.64-12,14.5-16.46,1.41-1.45,5.15-5.21,6.61-6.7.74-.74,4.82-4.91,5.5-5.58s2.65-2.44,3.45-3.19C955,795.64,982.88,776,1013.06,762c67.88-31.77,145.85-37.67,219.16-25.22Z"/><path class="cls-1" d="M723.28,1505.64c-47.91-16.6-89-48.74-124.68-84.79C463.85,1284.63,398.8,1082.77,428.66,893.5c6.06-38.45,16.25-77.33,39-108.94s60-54.9,98.86-52.15c29.31,2.08,56.22,18.61,75.95,40.38S675.52,821.3,687,848.36c73.5,173.64,76.93,370.09,145.85,545.6,9.27,23.6,19.82,46.62,30.4,69.65,7.87,17.16,9.64,30.34-9.05,40C815.3,1523.68,763.27,1519.48,723.28,1505.64Z"/><path class="cls-7" d="M723.28,1505.64c-47.91-16.6-89-48.74-124.68-84.79C463.85,1284.63,398.8,1082.77,428.66,893.5c6.06-38.45,16.25-77.33,39-108.94s60-54.9,98.86-52.15c29.31,2.08,56.22,18.61,75.95,40.38S675.52,821.3,687,848.36c73.5,173.64,76.93,370.09,145.85,545.6,9.27,23.6,19.82,46.62,30.4,69.65,7.87,17.16,9.64,30.34-9.05,40C815.3,1523.68,763.27,1519.48,723.28,1505.64Z"/><path class="cls-3" d="M775.65,1389.2c-164.3-117.67-255.6-325.58-229.79-524.62-13.71,195.35,85.07,392,249.57,495.74l-19.78,28.88Z"/></g><g id="Cloud"><g class="cls-8"><path class="cls-9" d="M1679.11,2145.61,812.56,1645.73c-21.85-12.61-19.11-34.64,6.12-49.21h0c25.22-14.56,63.38-16.15,85.23-3.53l866.56,499.88c21.84,12.61,19.1,34.64-6.12,49.21h0C1739.12,2156.64,1701,2158.22,1679.11,2145.61Z"/></g><g id="CloudBright"><path class="cls-10" d="M758.8,1050.91,867,988c50.38-29.28,119.88-25.64,196.68,17.66l-108.18,62.87C853.36,1082.11,792.79,1058.44,758.8,1050.91Z"/><path class="cls-11" d="M1367.4,987.33c-99.25-57.3-189.17-62.63-254.1-24.89l-108.18,62.87c64.94-37.74,563,348,599.88,550.23L1713.93,1503C1677.06,1300.7,1536.08,1084.72,1367.4,987.33Z"/><path class="cls-12" d="M1849.8,2028.75l-108.17,62.87c41.1-23.89-21.49-445.12-135.88-525.79L1713.93,1503c114.38,80.66,203,243.55,202.67,378.92C1916.39,1954.07,1890.91,2004.86,1849.8,2028.75Z"/><path class="cls-13" d="M955.48,1068.57c-153.74-86.68-278.21-14.44-278.71,162.71-.51,178.47,125,395.81,280.29,485.48l621.63,358.9c126.47,73,229.32,14.4,229.73-130.9.38-135.38-88.28-298.26-202.67-378.93-36.87-202.26-177.84-418.25-346.53-515.64C1131.31,976.34,1018.88,988.83,955.48,1068.57Z"/><g class="cls-14"><path class="cls-15" d="M1099,1005.21c24,0,49.37,4,75.47,11.86,26.94,8.12,54.79,20.43,82.77,36.59,41,23.65,81.11,54.8,119.31,92.59,37,36.56,71.31,78.5,102.06,124.65a859.94,859.94,0,0,1,77.49,144.28c21.31,50.85,36.7,101.79,45.73,151.37l.3,1.61,1.33.94c55.11,38.86,106,98.37,143.16,167.57,37.47,69.68,58,143.58,57.82,208.07-.14,48.8-12.1,89.34-34.58,117.25-21.65,26.87-52.22,41.08-88.4,41.08-31.37,0-65.26-10.39-100.75-30.88l-621.63-358.9c-37.62-21.72-74.12-51.28-108.47-87.86a666,666,0,0,1-148.25-256.77c-14.44-47.92-21.69-94.14-21.57-137.37.17-60.14,14.92-110.13,42.65-144.56,26.76-33.23,64.55-50.8,109.29-50.8,18.31,0,37.7,3,57.62,8.84,20.56,6.06,41.82,15.24,63.19,27.28l3,1.68,2.12-2.67c34.26-43.08,82.8-65.85,140.37-65.85m0-4c-58.94,0-108.63,23.51-143.5,67.36-44.06-24.84-85.75-36.63-122.77-36.64-92.16,0-155.58,73-155.94,199.35-.51,178.47,125,395.81,280.29,485.48l621.63,358.9c36.91,21.31,71.82,31.41,102.75,31.41,75,0,126.69-59.42,127-162.31.38-135.38-88.28-298.27-202.67-378.93-36.87-202.26-177.84-418.25-346.53-515.64-57.57-33.23-112-49-160.24-49Z"/></g><g class="cls-16"><path class="cls-15" d="M1099,1015.21c23,0,47.42,3.84,72.58,11.43,26.21,7.9,53.35,19.91,80.66,35.68,40.23,23.22,79.68,53.85,117.28,91,36.49,36.09,70.39,77.5,100.77,123.09A851.29,851.29,0,0,1,1546.86,1419c21,50.19,36.21,100.43,45.11,149.3l1,5.64,4.68,3.3c53.86,38,103.62,96.27,140.11,164.13,36.7,68.24,56.81,140.44,56.63,203.31-.13,46.5-11.32,84.88-32.36,111-19.69,24.44-47.57,37.36-80.62,37.36-29.17,0-62.28-10.21-95.75-29.54l-621.63-358.9c-36.77-21.23-72.5-50.18-106.18-86a656,656,0,0,1-146-252.81c-14.16-47-21.27-92.22-21.15-134.46.16-57.84,14.15-105.67,40.44-138.32,24.8-30.79,59.89-47.07,101.5-47.07,17.36,0,35.79,2.84,54.79,8.44,19.84,5.84,40.4,14.72,61.11,26.39l10.4,5.87,7.43-9.35c32.29-40.61,78.12-62.07,132.54-62.07m0-14c-58.94,0-108.63,23.51-143.5,67.36-44.06-24.84-85.75-36.63-122.77-36.64-92.16,0-155.58,73-155.94,199.35-.51,178.47,125,395.81,280.29,485.48l621.63,358.9c36.91,21.31,71.82,31.41,102.75,31.41,75,0,126.69-59.42,127-162.31.38-135.38-88.28-298.27-202.67-378.93-36.87-202.26-177.84-418.25-346.53-515.64-57.57-33.23-112-49-160.24-49Z"/></g><path class="cls-17" d="M1365.94,1564,1210.17,1295.5l-15.09-26-117.26,66.72-53.62,30.49c-5.58,3.21-5.58,13.59,0,23.23l107.12,184.65,63.76,109.87,117.24-66.72,1.82-1,51.8-29.37c5.61-3.15,5.65-13.54.07-23.2l-.07-.13Zm-170.86-25.67-53.53-92.26,53.53-30.45,53.5,92.25Z"/><path class="cls-18" d="M1195.08,1415.61c-35-60.39-35.22-125.55-.39-145.85l-117.11,66.58,63.73,109.86Z"/><path class="cls-19" d="M1248.73,1507.77l-53.65,30.55c35.18,60.66,35.18,126.06,0,146.09l117.43-66.75Z"/></g></g><g id="Plus"><g id="_Blue" data-name="+ Blue"><g class="cls-20"><path class="cls-21" d="M1725.17,1809.23l-.53-189.66-38.4-22.31.54,189.66c0,4.36,1.55,7.42,4,8.86l38.39,22.31C1726.72,1816.65,1725.19,1813.59,1725.17,1809.23Z"/><path class="cls-22" d="M1980,1295.11c-2.52-1.46-6-1.26-9.84,1l-165.06,95.3,38.4,22.31,165-95.3c3.85-2.22,7.33-2.42,9.84-1Z"/><path class="cls-23" d="M1685.85,1460.22l-165.06,95.3c-7.63,4.4-13.79,15.08-13.76,23.85l.29,105.29c0,4.35,1.55,7.41,4,8.85l38.4,22.32c-2.48-1.44-4-4.51-4-8.86l-.3-105.28c0-8.77,6.14-19.46,13.77-23.86l165.06-95.3Z"/><path class="cls-24" d="M1829.11,1216.11c7.62-4.4,13.83-.87,13.86,7.9l.54,189.67,165-95.3c7.64-4.41,13.85-.87,13.87,7.9l.3,105.28c0,8.76-6.14,19.45-13.78,23.86l-165.06,95.29.54,189.67c0,8.77-6.14,19.45-13.77,23.85l-91.62,52.9c-7.63,4.4-13.84.87-13.87-7.9l-.53-189.66-165.06,95.3c-7.64,4.4-13.84.86-13.86-7.9l-.3-105.28c0-8.77,6.14-19.46,13.77-23.86l165.06-95.3-.54-189.67c0-8.76,6.15-19.44,13.78-23.85Z"/><path class="cls-25" d="M1800.54,1192.84c-2.51-1.46-6-1.25-9.82,1l-91.63,52.9c-7.63,4.41-13.8,15.08-13.78,23.85l.54,189.67,38.4,22.31-.54-189.67c0-8.76,6.15-19.44,13.78-23.85l91.62-52.9c3.84-2.21,7.32-2.42,9.83-1Z"/></g></g></g></svg>