<?xml version="1.0" encoding="UTF-8"?><svg xmlns="http://www.w3.org/2000/svg" xmlns:xlink="http://www.w3.org/1999/xlink" viewBox="0 0 2500 2500"><defs><style>.cls-1{fill:#fff;}.cls-2{fill:url(#Degradado_sin_nombre_109);}.cls-3{fill:url(#Degradado_sin_nombre_90);}.cls-4{fill:url(#Nueva_muestra_de_degradado_68);}.cls-5{fill:url(#Degradado_sin_nombre_36);fill-opacity:.2;}.cls-6{fill:url(#Nueva_muestra_de_degradado_64-4);}.cls-7{isolation:isolate;}.cls-8{fill:#d4ecf6;}.cls-9{fill:url(#Degradado_sin_nombre_115);filter:url(#AI_DesenfoqueGaussiano_4);}.cls-10{fill:url(#Nueva_muestra_de_degradado_64-2);}.cls-11{fill:url(#Nueva_muestra_de_degradado_64-5);}.cls-12{filter:url(#AI_DesenfoqueGaussiano_7);}.cls-13{fill:#52d6ff;}.cls-14{fill:url(#Nueva_muestra_de_degradado_69);opacity:.65;}.cls-15{fill:url(#Degradado_sin_nombre_355);}.cls-16{fill:#aab2da;}.cls-17{fill:url(#Nueva_muestra_de_degradado_64-3);}.cls-18{fill:url(#Nueva_muestra_de_degradado_79);}.cls-19{fill:url(#Degradado_sin_nombre_10);}.cls-20{fill:url(#Nueva_muestra_de_degradado_64);}.cls-21{fill:url(#Degradado_sin_nombre_92);}.cls-22{fill:url(#Nueva_muestra_de_degradado_62);}.cls-23{fill:url(#Degradado_sin_nombre_68);}.cls-24{fill:#20bcec;}.cls-25{fill:url(#Degradado_sin_nombre_4-2);}.cls-26{filter:url(#AI_DesenfoqueGaussiano_4-2);}.cls-27{fill:url(#Degradado_sin_nombre_5);}.cls-28{fill:rgba(211,242,251,.95);}.cls-29{fill:url(#Nueva_muestra_de_degradado_79-2);}.cls-30{fill:url(#Degradado_sin_nombre_76);}.cls-31{fill:url(#Nueva_muestra_de_degradado_62-2);}.cls-32{fill:url(#Degradado_sin_nombre_4);}.cls-33{fill:url(#Degradado_sin_nombre_8);}.cls-34{fill:url(#Degradado_sin_nombre_354);}.cls-35{fill:url(#Degradado_sin_nombre_68-2);}.cls-36{fill:#857cb9;}.cls-37{fill:#d095bf;}.cls-38{fill:#4dd2d2;}.cls-39{fill:url(#Nueva_muestra_de_degradado_63);}.cls-40{fill:#fafbfc;}.cls-41{mix-blend-mode:multiply;}.cls-42{fill:url(#Degradado_sin_nombre_7);}.cls-43{fill:#fcfdfe;}</style><linearGradient id="Nueva_muestra_de_degradado_68" x1="118.3" y1="100.53" x2="22.26" y2="304.53" gradientUnits="userSpaceOnUse"><stop offset="0" stop-color="#90e5ff"/><stop offset="1" stop-color="#1da1dc"/></linearGradient><linearGradient id="Degradado_sin_nombre_76" x1="304.17" y1="547.09" x2="11.31" y2="-120.79" gradientTransform="translate(220.34 -34.97) rotate(59.84)" gradientUnits="userSpaceOnUse"><stop offset=".1" stop-color="#141226"/><stop offset=".69" stop-color="#27244b"/></linearGradient><filter id="AI_DesenfoqueGaussiano_7"><feGaussianBlur stdDeviation="7"/></filter><symbol id="Circle_Tick-Upgrade-Calendar" viewBox="0 0 271.49 342.37"><g><g id="Circle_Tick_upgrade_Calendar"><g class="cls-7"><path class="cls-4" d="M223.68,8.84c-23.81-13.84-56.78-11.89-93.17,9.13C58.2,59.71-.23,160.92,0,244.01c.12,41.28,14.69,70.32,38.2,83.98l9.62,5.54c-23.5-13.66-38.08-42.7-38.2-83.98-.24-83.09,58.2-184.3,130.51-226.05C176.52,2.49,209.49,.54,233.3,14.38l-9.62-5.54Z"/><ellipse class="cls-30" cx="140.55" cy="173.96" rx="184.57" ry="106.91" transform="translate(-80.47 208.07) rotate(-59.84)"/></g></g><g id="Drop_shadow" class="cls-12"><path d="M191.08,162.91c5.16,1.32,9.38,4.26,13.13,7.47,.94,.53,1.41,1.88,1.41,3.49v21.5s-134.11,77.43-134.11,77.43v-21.5c0-1.61,.47-3.5,1.41-5.11,29.07-58.18,81.59-95.49,118.17-83.28Zm-109.73,84.32l-.47,9.41,115.35-66.6v-9.14c-3.28-2.94-7.03-5.08-11.25-6.4-31.89-10.08-77.84,21.83-103.63,72.73Zm57.21-165.8c19.31-11.15,35.01-2.65,35.62,18.97l.02,1.31c0,22.58-15.94,50.06-35.64,61.43-19.69,11.37-35.64,2.3-35.64-20.28,0-22.58,15.94-50.06,35.64-61.43Zm0,10.21c-14.54,8.39-26.26,28.6-26.26,45.26s11.72,23.33,26.26,14.94,25.7-27.64,26.24-44.07l.02-1.2c0-16.66-11.72-23.33-26.26-14.94Z"/></g><path id="User_icon" class="cls-28" d="M194.82,166.96c5.16,1.32,9.38,4.26,13.13,7.47,.94,.53,1.41,1.88,1.41,3.49v21.5s-134.11,77.43-134.11,77.43v-21.5c0-1.61,.47-3.5,1.41-5.11,29.07-58.18,81.59-95.49,118.17-83.28Zm-109.73,84.32l-.47,9.41,115.35-66.6v-9.14c-3.28-2.94-7.03-5.08-11.25-6.4-31.89-10.08-77.84,21.83-103.63,72.73Zm57.21-165.8c19.31-11.15,35.01-2.65,35.62,18.97l.02,1.31c0,22.58-15.94,50.06-35.64,61.43-19.69,11.37-35.64,2.3-35.64-20.28,0-22.58,15.94-50.06,35.64-61.43Zm0,10.21c-14.54,8.39-26.26,28.6-26.26,45.26s11.72,23.33,26.26,14.94,25.7-27.64,26.24-44.07l.02-1.2c0-16.66-11.72-23.33-26.26-14.94Z"/></g></symbol><linearGradient id="Degradado_sin_nombre_115" x1="122.92" y1="168.97" x2="149.68" y2="124.03" gradientUnits="userSpaceOnUse"><stop offset="0" stop-color="#d4ecf6" stop-opacity=".1"/><stop offset=".04" stop-color="#b4cddd" stop-opacity=".1"/><stop offset=".15" stop-color="#90aac1" stop-opacity=".1"/><stop offset="1" stop-color="#5d7586" stop-opacity=".3"/></linearGradient><filter id="AI_DesenfoqueGaussiano_4"><feGaussianBlur stdDeviation="4"/></filter><linearGradient id="Degradado_sin_nombre_90" x1="14.18" y1="60.32" x2="155.85" y2="142.28" gradientUnits="userSpaceOnUse"><stop offset="0" stop-color="#436fb6"/><stop offset=".09" stop-color="#4778b9"/><stop offset=".48" stop-color="#569dc5"/><stop offset=".8" stop-color="#5fb4cc"/><stop offset="1" stop-color="#63bdcf"/></linearGradient><linearGradient id="Degradado_sin_nombre_109" x1="174.55" y1="209.53" x2="157.32" y2="161.16" gradientUnits="userSpaceOnUse"><stop offset=".3" stop-color="#89d6ef" stop-opacity=".1"/><stop offset=".38" stop-color="#89d6ef" stop-opacity=".15"/><stop offset=".49" stop-color="#d4ecf6" stop-opacity="0"/><stop offset="1" stop-color="#fff" stop-opacity=".3"/></linearGradient><symbol id="host_buttons" viewBox="0 0 286 271"><g><g class="cls-7"><path class="cls-9" d="M253.79,151.65c4.55,2.62,8.22,8.99,8.2,14.22l-.1,76.53c-.01,5.22-3.71,7.33-8.26,4.71L32.02,119.15c-4.55-2.62-8.22-8.98-8.2-14.21l.1-76.53c.01-5.22,3.71-7.34,8.26-4.71l221.62,127.95Z"/><path class="cls-8" d="M253.96,147.17L32.35,19.22c-2.29-1.32-4.36-1.44-5.85-.57L5.35,30.94c1.5-.87,3.57-.75,5.85,.57l221.62,127.95c4.55,2.62,8.22,8.99,8.2,14.22l-.1,35.73c0,2.6-.92,4.42-2.4,5.28l21.14-12.29c1.48-.86,2.39-2.68,2.4-5.28l.1-35.73c.01-5.22-3.66-11.59-8.2-14.22Z"/><path class="cls-1" d="M232.82,159.46c4.55,2.62,8.22,8.99,8.2,14.22l-.1,35.73c-.01,5.22-3.71,7.33-8.26,4.71L11.05,86.16c-4.55-2.62-8.22-8.98-8.2-14.21l.1-35.73c.01-5.22,3.71-7.34,8.26-4.71l221.62,127.95Z"/></g><g><path class="cls-3" d="M150.61,149.6L22.02,75.36c-4.32-2.49-7.82-9.19-7.82-14.95h0c0-5.76,3.5-8.41,7.82-5.91l128.59,74.24c4.32,2.49,7.82,9.19,7.82,14.95h0c0,5.76-3.5,8.41-7.82,5.91Z"/><path class="cls-36" d="M224.96,192.53l-.94-.54c-3.29-1.9-5.96-7-5.96-11.39v-4.96c0-4.39,2.67-6.41,5.96-4.51l.94,.54c3.29,1.9,5.96,7,5.96,11.39v4.96c0,4.39-2.67,6.41-5.96,4.51Z"/><path class="cls-37" d="M202.25,179.42l-.94-.54c-3.29-1.9-5.96-7-5.96-11.39v-4.96c0-4.39,2.67-6.41,5.96-4.51l.94,.54c3.29,1.9,5.96,7,5.96,11.39v4.96c0,4.39-2.67,6.41-5.96,4.51Z"/><path class="cls-16" d="M179.53,166.3l-.94-.54c-3.29-1.9-5.96-7-5.96-11.39v-4.96c0-4.39,2.67-6.41,5.96-4.51l.94,.54c3.29,1.9,5.96,7,5.96,11.39v4.96c0,4.39-2.67,6.41-5.96,4.51Z"/></g><path class="cls-2" d="M253.96,147.17L32.35,19.22c-2.29-1.32-4.36-1.44-5.85-.57L5.35,30.94c1.5-.87,3.57-.75,5.85,.57l221.62,127.95c4.55,2.62,8.22,8.99,8.2,14.22l-.1,35.73c0,2.6-.92,4.42-2.4,5.28l21.14-12.29c1.48-.86,2.39-2.68,2.4-5.28l.1-35.73c.01-5.22-3.66-11.59-8.2-14.22Z"/></g></symbol><linearGradient id="Degradado_sin_nombre_10" x1="469.19" y1="1520.65" x2="675.92" y2="1510.05" gradientUnits="userSpaceOnUse"><stop offset=".41" stop-color="#52d6ff" stop-opacity=".1"/><stop offset=".46" stop-color="#24bce7" stop-opacity=".1"/><stop offset=".56" stop-color="#00a7d4" stop-opacity=".1"/><stop offset=".92" stop-color="#0071b0" stop-opacity=".3"/></linearGradient><linearGradient id="Degradado_sin_nombre_8" x1="435.14" y1="1538.94" x2="793.81" y2="1471.79" gradientUnits="userSpaceOnUse"><stop offset="0" stop-color="#52d6ff" stop-opacity=".1"/><stop offset=".07" stop-color="#24bce7" stop-opacity=".1"/><stop offset=".23" stop-color="#00a7d4" stop-opacity=".1"/><stop offset=".87" stop-color="#0071b0" stop-opacity=".3"/></linearGradient><linearGradient id="Nueva_muestra_de_degradado_64" x1="859.3" y1="1178.45" x2="689.68" y2="1226.16" gradientUnits="userSpaceOnUse"><stop offset="0" stop-color="#52d6ff" stop-opacity=".1"/><stop offset=".05" stop-color="#24bce7" stop-opacity=".1"/><stop offset=".15" stop-color="#00a7d4" stop-opacity=".1"/><stop offset=".87" stop-color="#0071b0" stop-opacity=".3"/></linearGradient><linearGradient id="Nueva_muestra_de_degradado_64-2" x1="671.84" y1="1166.61" x2="818.49" y2="1223.15" xlink:href="#Nueva_muestra_de_degradado_64"/><linearGradient id="Nueva_muestra_de_degradado_64-3" x1="961.47" y1="992.09" x2="894.23" y2="976.98" xlink:href="#Nueva_muestra_de_degradado_64"/><linearGradient id="Nueva_muestra_de_degradado_64-4" x1="896.46" y1="965.21" x2="949.07" y2="1007.59" xlink:href="#Nueva_muestra_de_degradado_64"/><linearGradient id="Nueva_muestra_de_degradado_64-5" x1="599.21" y1="1181.07" x2="506.27" y2="1286.92" xlink:href="#Nueva_muestra_de_degradado_64"/><linearGradient id="Nueva_muestra_de_degradado_63" x1="700.83" y1="1235.51" x2="868.68" y2="1300.88" gradientUnits="userSpaceOnUse"><stop offset="0" stop-color="#52d6ff" stop-opacity="0"/><stop offset=".06" stop-color="#39c7f2" stop-opacity=".03"/><stop offset=".21" stop-color="#0eafdb" stop-opacity=".08"/><stop offset=".37" stop-color="#00a7d4" stop-opacity=".1"/><stop offset=".86" stop-color="#0071b0" stop-opacity=".6"/></linearGradient><linearGradient id="Nueva_muestra_de_degradado_62" x1="899.77" y1="965.93" x2="982.81" y2="1041.9" gradientUnits="userSpaceOnUse"><stop offset="0" stop-color="#52d6ff" stop-opacity=".1"/><stop offset=".05" stop-color="#24bce7" stop-opacity=".1"/><stop offset=".15" stop-color="#00a7d4" stop-opacity=".1"/><stop offset=".86" stop-color="#0071b0" stop-opacity=".6"/></linearGradient><linearGradient id="Nueva_muestra_de_degradado_62-2" x1="613.7" y1="1239.13" x2="927.44" y2="1358" xlink:href="#Nueva_muestra_de_degradado_62"/><linearGradient id="Degradado_sin_nombre_36" x1="1090.24" y1="1169.02" x2="1829.57" y2="1169.02" gradientUnits="userSpaceOnUse"><stop offset="0" stop-color="#00b287"/><stop offset=".33" stop-color="#08ad9f"/><stop offset="1" stop-color="#1da1dc"/></linearGradient><linearGradient id="Nueva_muestra_de_degradado_69" x1="1319.72" y1="1778.5" x2="1754.37" y2="660.07" gradientUnits="userSpaceOnUse"><stop offset="0" stop-color="#61eebb"/><stop offset=".4" stop-color="#71ead3"/><stop offset="1" stop-color="#90e5ff"/></linearGradient><filter id="AI_DesenfoqueGaussiano_4-2"><feGaussianBlur stdDeviation="4"/></filter><linearGradient id="Degradado_sin_nombre_355" x1="1232.83" y1="1902.78" x2="651.51" y2="1902.78" gradientUnits="userSpaceOnUse"><stop offset="0" stop-color="#141226" stop-opacity="0"/><stop offset="0" stop-color="#141226" stop-opacity="0"/><stop offset=".15" stop-color="#141226" stop-opacity=".1"/><stop offset=".87" stop-color="#141226" stop-opacity=".3"/><stop offset="1" stop-color="#141226" stop-opacity="0"/></linearGradient><linearGradient id="Nueva_muestra_de_degradado_79" x1="744.53" y1="2240.35" x2="864.1" y2="769.05" gradientUnits="userSpaceOnUse"><stop offset="0" stop-color="#1499c2" stop-opacity="0"/><stop offset="0" stop-color="#1499c4" stop-opacity=".03"/><stop offset=".06" stop-color="#179ccc" stop-opacity=".13"/><stop offset=".12" stop-color="#1a9ed3" stop-opacity=".21"/><stop offset=".19" stop-color="#1b9fd8" stop-opacity=".26"/><stop offset=".3" stop-color="#1ca0db" stop-opacity=".29"/><stop offset=".59" stop-color="#1da1dc" stop-opacity=".3"/><stop offset=".6" stop-color="#1b9fd8" stop-opacity=".26"/><stop offset=".64" stop-color="#189cce" stop-opacity=".14"/><stop offset=".68" stop-color="#159ac7" stop-opacity=".06"/><stop offset=".72" stop-color="#1499c3" stop-opacity=".02"/><stop offset=".77" stop-color="#1499c2" stop-opacity="0"/></linearGradient><linearGradient id="Degradado_sin_nombre_354" x1="914.12" y1="1750.54" x2="1101.22" y2="1856.82" gradientUnits="userSpaceOnUse"><stop offset="0" stop-color="#141226" stop-opacity="0"/><stop offset=".63" stop-color="#141226" stop-opacity=".14"/><stop offset="1" stop-color="#141226" stop-opacity=".3"/></linearGradient><linearGradient id="Degradado_sin_nombre_68" x1="660.72" y1="1899.93" x2="1053.17" y2="1276.09" gradientUnits="userSpaceOnUse"><stop offset="0" stop-color="#fafbfc"/><stop offset=".55" stop-color="#f5f8fa"/><stop offset=".99" stop-color="#d4ecf6" stop-opacity=".9"/></linearGradient><linearGradient id="Degradado_sin_nombre_92" x1="760.27" y1="1672.33" x2="976.51" y2="1683.41" gradientUnits="userSpaceOnUse"><stop offset=".55" stop-color="#f5f8fa" stop-opacity="0"/><stop offset=".98" stop-color="#d4ecf6" stop-opacity=".9"/></linearGradient><linearGradient id="Degradado_sin_nombre_68-2" x1="850.98" y1="1349.34" x2="932.45" y2="1495.21" xlink:href="#Degradado_sin_nombre_68"/><linearGradient id="Nueva_muestra_de_degradado_79-2" x1="1173.41" y1="1902.48" x2="759.52" y2="1267.87" xlink:href="#Nueva_muestra_de_degradado_79"/><linearGradient id="Degradado_sin_nombre_7" x1="1136.68" y1="1411.53" x2="1121.43" y2="1588.67" gradientUnits="userSpaceOnUse"><stop offset="0" stop-color="#12abbb"/><stop offset=".22" stop-color="#0c9fb2"/><stop offset=".67" stop-color="#038ea5"/><stop offset="1" stop-color="#0088a1"/></linearGradient><linearGradient id="Degradado_sin_nombre_5" x1="1166.58" y1="1327.1" x2="1260.8" y2="1269.04" gradientUnits="userSpaceOnUse"><stop offset="0" stop-color="#12abbb"/><stop offset=".31" stop-color="#0999ae"/><stop offset=".67" stop-color="#028ca4"/><stop offset="1" stop-color="#0088a1"/></linearGradient><linearGradient id="Degradado_sin_nombre_4" x1="1019.42" y1="1501.99" x2="1101.59" y2="1334.94" gradientUnits="userSpaceOnUse"><stop offset="0" stop-color="#12abbb"/><stop offset=".31" stop-color="#11a9b9"/><stop offset=".41" stop-color="#0da2b4"/><stop offset=".49" stop-color="#0796ab"/><stop offset=".55" stop-color="#0088a1"/><stop offset=".98" stop-color="#0088a1"/><stop offset="1" stop-color="#0088a1"/></linearGradient><linearGradient id="Degradado_sin_nombre_4-2" x1="1126.28" y1="1298.38" x2="1184.12" y2="1190.38" xlink:href="#Degradado_sin_nombre_4"/></defs><g class="cls-7"><g id="ARTWORK"><g id="plant_15"><g><path class="cls-13" d="M346.17,1237.03c42.26,235.95,182.71,422.03,421.37,558.24-41.7-241.98-182.15-428.06-421.37-558.24Z"/><path class="cls-19" d="M346.17,1237.03c10.27,0-5.32,293.85,421.37,558.24-41.7-241.98-182.15-428.06-421.37-558.24Z"/><path class="cls-33" d="M767.54,1795.27c-135.54-205.69-285.4-368.44-421.37-558.24,42.26,235.95,182.71,422.03,421.37,558.24Z"/></g><g><path class="cls-24" d="M832.55,1046.12c-4.08-90.03-14.71-191.87-31.87-305.51-44.74,68.2-81.69,146.67-110.84,235.42-28.57,86.95-46.69,174.52-54.37,262.71-7.9,90.73-3.84,172.5,12.19,245.29,17.21,77.9,46.87,138.99,89.01,183.25,24.96-75.51,43.71-138.47,56.25-188.87,16.54-66.54,28.05-132.11,34.52-196.7,7.28-72.68,8.99-151.21,5.13-235.58Z"/><path class="cls-20" d="M827.42,1281.7c7.28-72.68,8.99-151.21,5.13-235.58-4.08-90.03-14.71-191.87-31.87-305.51-71.47,278.26-92.81,587.15-64.02,926.67,24.96-75.51,43.71-138.47,56.25-188.87,16.54-66.54,28.05-132.11,34.52-196.7Z"/><path class="cls-10" d="M800.68,740.61c-44.74,68.2-81.69,146.67-110.84,235.42-28.57,86.95-46.69,174.52-54.37,262.71-7.9,90.73-3.84,172.5,12.19,245.29,17.21,77.9,46.87,138.99,89.01,183.25-28.79-339.52-7.45-648.41,64.02-926.67Z"/></g><g><path class="cls-13" d="M959.5,892.87c-33.07,36.05-57.98,83.39-74.72,142-3.36,11.8-6.4,24.04-9.1,36.73,3.12-2.3,6.15-4.64,9.1-7,55.92-45.02,80.83-102.26,74.72-171.72Z"/><g id="Layer1_2_MEMBER_0_FILL"><path class="cls-17" d="M875.68,1071.59c3.12-2.3,6.15-4.64,9.1-7,55.92-45.02,80.83-102.26,74.72-171.72-20.57,51.6-45.48,105.42-74.72,161.47-2.99,5.73-6.02,11.49-9.1,17.26Z"/></g><g id="Layer1_2_MEMBER_1_FILL"><path class="cls-6" d="M875.68,1071.59c3.08-5.77,6.11-11.53,9.1-17.26,29.24-56.04,54.15-109.87,74.72-161.47-33.07,36.05-57.98,83.39-74.72,142-3.36,11.8-6.39,24.04-9.1,36.73Z"/></g></g><g><path class="cls-13" d="M522.63,1086.98c-6.86,129.87,21.1,218.9,83.88,267.07,.1-116.9-27.86-205.93-83.88-267.07Z"/><path class="cls-11" d="M522.63,1086.98c23.86,97.29,51.82,186.32,83.88,267.07,.1-116.9-27.86-205.93-83.88-267.07Z"/></g><g class="cls-41"><path class="cls-39" d="M832.55,1046.12c-.89-19.7-2.1-39.95-3.62-60.78-2.39-32.72-5.55-66.84-9.48-102.36-.72-6.46-1.46-12.96-2.22-19.51-.38-3.27-.77-6.56-1.17-9.86-1.58-13.19-3.27-26.57-5.06-40.12-.45-3.39-.9-6.79-1.36-10.2-2.76-20.48-5.75-41.37-8.97-62.68h0c-44.74,68.2-81.69,146.67-110.84,235.42-16.07,48.91-28.83,98.01-38.29,147.32-4.2,21.91-7.76,43.86-10.66,65.85-1.45,11-2.74,22-3.86,33.02-.56,5.51-1.08,11.02-1.56,16.53-.74,8.51-1.38,16.93-1.91,25.28-.71,11.13-1.23,22.12-1.56,32.97-.08,2.71-.16,5.42-.22,8.11-.84,37.73,.61,73.75,4.35,108.05,2.4,22.05,5.76,43.39,10.05,64.02,.48,2.29,.97,4.58,1.47,6.85,1.54,6.98,3.19,13.81,4.93,20.52-.85-1.26-1.69-2.53-2.56-3.79-6.15-8.97-12.52-17.81-19.1-26.54-70.12-92.9-164.87-171.87-284.22-236.9-.17-.19-.35-.29-.53-.29,2.31,12.87,4.92,25.59,7.81,38.17,7.29,38.82,23.62,104.38,68.36,183.34,.74,1.38,1.47,2.77,2.21,4.14,1.72,3.15,3.45,6.29,5.22,9.42,10.58,18.76,22.02,37.08,34.32,54.96,2.05,2.98,4.13,5.95,6.22,8.91,4.2,5.91,8.49,11.78,12.88,17.59,10.97,14.54,22.55,28.77,34.72,42.7,4.87,5.57,9.83,11.09,14.89,16.57,7.59,8.21,15.4,16.31,23.42,24.3,8.02,7.99,16.26,15.87,24.71,23.65,16.91,15.55,34.68,30.65,53.31,45.32,9.32,7.33,18.85,14.56,28.6,21.67,32.5,23.72,67.39,46.22,104.68,67.5h0c-7.92-45.96-19.41-89.9-34.46-131.83,1.18,1.29,2.37,2.57,3.58,3.84,24.96-75.51,43.71-138.47,56.25-188.87,10.34-41.59,18.71-82.8,25.12-123.63,3.84-24.5,6.98-48.86,9.4-73.08,3.18-31.8,5.3-64.72,6.36-98.75,.3-9.72,.51-19.54,.64-29.45,.44-34.68-.18-70.47-1.87-107.38Z"/><path class="cls-22" d="M959.5,892.87h0s0,0,0,0c-7.23,7.89-14.08,16.31-20.53,25.28-10.14,14.09-19.32,29.51-27.53,46.27-5.97,12.19-11.43,25.08-16.39,38.67-1.24,3.4-2.44,6.84-3.62,10.33-2.35,6.97-4.57,14.12-6.66,21.45-.84,2.95-1.66,5.93-2.46,8.93-1.6,6.01-3.12,12.13-4.55,18.36-.72,3.12-1.41,6.26-2.09,9.43h0s0,0,0,0c.78-.58,1.54-1.16,2.31-1.74,1.54-1.16,3.05-2.33,4.55-3.5,.75-.59,1.51-1.17,2.24-1.76,1.75-1.41,3.46-2.83,5.15-4.26,3.37-2.86,6.63-5.77,9.76-8.73,3.13-2.96,6.14-5.96,9.03-9.01,2.89-3.05,5.66-6.15,8.3-9.3,7.94-9.44,14.79-19.32,20.55-29.62,5.76-10.3,10.43-21.04,14.01-32.2,2.39-7.44,4.29-15.07,5.71-22.9,.35-1.96,.68-3.92,.97-5.9,.59-3.96,1.05-7.97,1.4-12.02,.17-2.03,.32-4.07,.43-6.12,.56-10.26,.36-20.81-.59-31.67Z"/><path class="cls-31" d="M523.13,1166.35c.26,3.5,.56,6.96,.89,10.38,7.58,78.67,33.15,136.23,76.71,172.69,1.89,1.59,3.82,3.13,5.78,4.64,.03-32.88-2.16-63.55-6.58-92.02-11.27-72.75-37.04-131.1-77.3-175.05h0s0,0,0,0c-.64,12.18-.98,23.99-1.01,35.45-.01,3.82,.01,7.6,.07,11.34,.17,11.22,.65,22.08,1.44,32.58Z"/></g></g><g id="Connector_Lines"><g id="Connector_Lines-2"><path class="cls-5" d="M1819.57,1134.48v278.61c0,6.55-2.06,11.5-5.64,13.57-3.58,2.07-8.9,1.38-14.58-1.89l-223.08-128.7V593.96h-10v696.34l-218.09-125.81c-13.67-7.89-25.22-27.88-25.22-43.66v-277.56h-10v277.56c0,19.24,13.56,42.71,30.22,52.32l223.08,128.7v129.43c0,15.78-11.54,35.78-25.21,43.68l-450.82,260.45,5,8.66,450.82-260.45c16.66-9.62,30.21-33.1,30.21-52.34v-123.66l218.09,125.81c5.12,2.96,10.16,4.44,14.82,4.44,3.51,0,6.81-.85,9.76-2.55,6.86-3.96,10.64-11.86,10.64-22.23v-278.61h-10Z"/></g><path id="Connector_Lines-3" class="cls-14" d="M1826.57,1134.48v278.61c0,9.26-3.25,16.23-9.14,19.63-2.48,1.43-5.27,2.14-8.26,2.14-4.13,0-8.66-1.35-13.31-4.04l-222.58-128.41v128.86c0,18.28-12.88,40.59-28.71,49.74l-450.82,260.45-2-3.46,450.82-260.45c14.73-8.51,26.71-29.27,26.71-46.28v-131.16l-224.58-129.56c-15.84-9.14-28.72-31.44-28.72-49.72v-277.56h4v277.56c0,17.01,11.99,37.76,26.72,46.26l222.58,128.41V593.96h4v703.84l224.58,129.56c6.73,3.88,12.97,4.55,17.58,1.89,4.61-2.66,7.14-8.4,7.14-16.17v-278.61h4Z"/></g><use id="User_Icon" width="271.49" height="342.37" transform="translate(1960.32 849.56) rotate(-180) scale(1 -1)" xlink:href="#Circle_Tick-Upgrade-Calendar"/><use id="User_Icon-2" width="271.49" height="342.37" transform="translate(1707.01 303.54) rotate(-180) scale(1 -1)" xlink:href="#Circle_Tick-Upgrade-Calendar"/><use id="User_Icon-3" width="271.49" height="342.37" transform="translate(1453.71 556.8) rotate(-180) scale(1 -1)" xlink:href="#Circle_Tick-Upgrade-Calendar"/><g id="Rubrik_Host-Light"><g id="shadow" class="cls-26"><path class="cls-15" d="M1004.23,2048.18l238.81-138.78c8.36-4.86,8.32-12.76-.09-17.62l-240.37-138.78c-8.41-4.86-95.94-4.86-104.3,0l-238.81,138.78c-8.36,4.86-8.32,12.77,.09,17.62l240.37,138.78c8.42,4.86,63.19,15.32,104.31,0Z"/></g><path id="inside" class="cls-1" d="M919.07,2020.76c-.13,.19-.27,.38-.42,.57-.28,.38-.57,.74-.86,1.09-.59,.7-1.22,1.36-1.88,1.97-.16,.15-.33,.3-.49,.44-1.73,1.51-3.66,2.72-5.76,3.6-.3,.13-.6,.25-.91,.37-.41,.14-.82,.28-1.24,.41-.17,.05-.33,.1-.5,.15-.24,.07-.49,.13-.75,.19-.18,.04-.37,.08-.55,.13-.22,.04-.44,.09-.67,.13-.18,.03-.37,.07-.56,.1-3.78,.59-7.94,.33-12.38-.84-.84-.22-1.67-.48-2.52-.76-1.27-.43-2.56-.93-3.88-1.51-1.75-.77-3.53-1.67-5.33-2.72l-176.11-101.67c-24.65-14.24-44.65-48.69-44.65-76.96v-485.75c0-11.24,3.17-19.81,8.53-25.15,.14-.15,.29-.29,.45-.43,2.89-2.73,6.39-4.56,10.35-5.4,.21-.04,.42-.08,.63-.13,.21-.05,.43-.08,.63-.11,.32-.05,.64-.1,.97-.13,.24-.03,.48-.06,.73-.08,.37-.03,.74-.06,1.1-.08,.99-.05,1.99-.03,3.02,.04-3.78,5.33-5.93,12.79-5.93,22.07v485.75c0,28.27,19.99,62.72,44.65,76.96l176.11,101.67c6.5,3.75,12.67,5.72,18.24,6.07Z"/><path id="inside-2" class="cls-18" d="M919.07,2020.76c-.13,.19-.27,.38-.42,.57-.28,.38-.57,.74-.86,1.09-.59,.7-1.22,1.36-1.88,1.97-.16,.15-.33,.3-.49,.44-1.73,1.51-3.66,2.72-5.76,3.6-.3,.13-.6,.25-.91,.37-.41,.14-.82,.28-1.24,.41-.17,.05-.33,.1-.5,.15-.24,.07-.49,.13-.75,.19-.18,.04-.37,.08-.55,.13-.22,.04-.44,.09-.67,.13-.18,.03-.37,.07-.56,.1-3.78,.59-7.94,.33-12.38-.84-.84-.22-1.67-.48-2.52-.76-1.27-.43-2.56-.93-3.88-1.51-1.75-.77-3.53-1.67-5.33-2.72l-176.11-101.67c-24.65-14.24-44.65-48.69-44.65-76.96v-485.75c0-11.24,3.17-19.81,8.53-25.15,.14-.15,.29-.29,.45-.43,2.89-2.73,6.39-4.56,10.35-5.4,.21-.04,.42-.08,.63-.13,.21-.05,.43-.08,.63-.11,.32-.05,.64-.1,.97-.13,.24-.03,.48-.06,.73-.08,.37-.03,.74-.06,1.1-.08,.99-.05,1.99-.03,3.02,.04-3.78,5.33-5.93,12.79-5.93,22.07v485.75c0,28.27,19.99,62.72,44.65,76.96l176.11,101.67c6.5,3.75,12.67,5.72,18.24,6.07Z"/><path id="inside-3" class="cls-34" d="M919.07,2020.76c-.13,.19-.27,.38-.42,.57-.28,.38-.57,.74-.86,1.09-.59,.7-1.22,1.36-1.88,1.97-.16,.15-.33,.3-.49,.44-1.73,1.51-3.66,2.72-5.76,3.6-.3,.13-.6,.25-.91,.37-.41,.14-.82,.28-1.24,.41-.17,.05-.33,.1-.5,.15-.24,.07-.49,.13-.75,.19-.18,.04-.37,.08-.55,.13-.22,.04-.44,.09-.67,.13-.18,.03-.37,.07-.56,.1-3.78,.59-7.94,.33-12.38-.84-.84-.22-1.67-.48-2.52-.76-1.27-.43-2.56-.93-3.88-1.51-1.75-.77-3.53-1.67-5.33-2.72l-176.11-101.67c-24.65-14.24-44.65-48.69-44.65-76.96v-485.75c0-11.24,3.17-19.81,8.53-25.15,.14-.15,.29-.29,.45-.43,2.89-2.73,6.39-4.56,10.35-5.4,.21-.04,.42-.08,.63-.13,.21-.05,.43-.08,.63-.11,.32-.05,.64-.1,.97-.13,.24-.03,.48-.06,.73-.08,.37-.03,.74-.06,1.1-.08,.99-.05,1.99-.03,3.02,.04-3.78,5.33-5.93,12.79-5.93,22.07v485.75c0,28.27,19.99,62.72,44.65,76.96l176.11,101.67c6.5,3.75,12.67,5.72,18.24,6.07Z"/><path id="front" class="cls-23" d="M925.01,1512.93v485.74c0,.58,0,1.15-.03,1.72-.02,.48-.03,.97-.07,1.45-.03,.65-.08,1.29-.14,1.93-.04,.52-.1,1.03-.17,1.53-.06,.52-.13,1.04-.22,1.55-.08,.47-.16,.93-.24,1.38,0,.04-.02,.08-.02,.12-.08,.44-.18,.89-.28,1.31-.03,.09-.04,.18-.07,.28-.1,.43-.21,.86-.33,1.28l-.03,.1c-.12,.43-.24,.85-.38,1.26-.13,.4-.26,.79-.4,1.19-.04,.14-.1,.28-.15,.42-.13,.33-.25,.66-.38,.98-.17,.42-.34,.82-.53,1.22-.17,.37-.34,.73-.52,1.08-.02,.03-.03,.06-.05,.09-.2,.38-.4,.75-.61,1.12h0c-.42,.74-.87,1.44-1.34,2.11-5.56-.35-11.74-2.32-18.24-6.07l-176.11-101.67c-24.65-14.24-44.65-48.69-44.65-76.96v-485.75c0-9.28,2.16-16.74,5.93-22.07,.35,.03,.7,.05,1.05,.08,.35,.03,.7,.08,1.06,.13,.35,.04,.7,.1,1.05,.16,.03,0,.05,0,.08,0,.35,.06,.69,.13,1.04,.19,1.17,.23,2.36,.53,3.57,.89,.39,.13,.79,.25,1.19,.38,.42,.14,.84,.28,1.26,.44,.74,.28,1.49,.58,2.24,.9,.25,.11,.5,.22,.75,.33,.34,.15,.69,.31,1.03,.47,.33,.16,.65,.32,.99,.48,.53,.27,1.05,.54,1.59,.84,.44,.24,.89,.49,1.35,.75l172.4,99.53,3.71,2.15c1.99,1.14,3.94,2.42,5.86,3.81,21.9,15.92,38.8,47.15,38.8,73.14Z"/><path id="front-2" class="cls-21" d="M925.01,1512.93v485.74c0,.58,0,1.15-.03,1.72-.02,.48-.03,.97-.07,1.45-.03,.65-.08,1.29-.14,1.93-.04,.52-.1,1.03-.17,1.53-.06,.52-.13,1.04-.22,1.55-.08,.47-.16,.93-.24,1.38,0,.04-.02,.08-.02,.12-.08,.44-.18,.89-.28,1.31-.03,.09-.04,.18-.07,.28-.1,.43-.21,.86-.33,1.28l-.03,.1c-.12,.43-.24,.85-.38,1.26-.13,.4-.26,.79-.4,1.19-.04,.14-.1,.28-.15,.42-.13,.33-.25,.66-.38,.98-.17,.42-.34,.82-.53,1.22-.17,.37-.34,.73-.52,1.08-.02,.03-.03,.06-.05,.09-.2,.38-.4,.75-.61,1.12h0c-.42,.74-.87,1.44-1.34,2.11-5.56-.35-11.74-2.32-18.24-6.07l-176.11-101.67c-24.65-14.24-44.65-48.69-44.65-76.96v-485.75c0-9.28,2.16-16.74,5.93-22.07,.35,.03,.7,.05,1.05,.08,.35,.03,.7,.08,1.06,.13,.35,.04,.7,.1,1.05,.16,.03,0,.05,0,.08,0,.35,.06,.69,.13,1.04,.19,1.17,.23,2.36,.53,3.57,.89,.39,.13,.79,.25,1.19,.38,.42,.14,.84,.28,1.26,.44,.74,.28,1.49,.58,2.24,.9,.25,.11,.5,.22,.75,.33,.34,.15,.69,.31,1.03,.47,.33,.16,.65,.32,.99,.48,.53,.27,1.05,.54,1.59,.84,.44,.24,.89,.49,1.35,.75l172.4,99.53,3.71,2.15c1.99,1.14,3.94,2.42,5.86,3.81,21.9,15.92,38.8,47.15,38.8,73.14Z"/><g id="top"><path class="cls-1" d="M1161.17,1387.38v485.75c0,16.82-5.86,28.72-15.36,34.43l-.54,.31-225.82,130.61c6.64-4.09,11.47-11.24,13.71-21.01,.93-3.99,1.41-8.43,1.41-13.27v-485.74c0-32.01-21.21-70.67-48.36-89.7-1.91-1.36-3.87-2.6-5.86-3.74l-3.71-2.15-172.4-99.53c-2.34-1.35-4.64-2.51-6.9-3.47-12.08-5.22-22.92-5.15-31.17-.56l226.15-130.82c9.83-5.72,23.47-4.92,38.53,3.78l176.11,101.67c29.89,17.26,54.21,59.17,54.21,93.45Z"/></g><g id="top-2"><path class="cls-35" d="M930.52,2029.77c2.03-3.44,3.57-7.41,4.59-11.85,.97-4.18,1.46-8.8,1.46-13.72v-485.74c0-32.41-21.16-71.67-49.21-91.34-1.88-1.34-3.85-2.59-6.01-3.84l-3.71-2.14-172.4-99.54c-2.42-1.39-4.81-2.59-7.12-3.57-6.32-2.73-12.45-4.12-18.2-4.12-.14,0-.29,0-.43,0l213.83-123.69c3.86-2.25,8.31-3.39,13.22-3.39,7.23,0,15.07,2.41,23.3,7.16l176.11,101.67c29.34,16.94,53.21,58.09,53.21,91.72v485.75c0,15.53-5.11,27.14-14.39,32.71l-.5,.28-213.76,123.64Z"/><path class="cls-40" d="M906.55,1184.83v4c6.78,0,14.49,2.38,22.3,6.9l176.11,101.67c13.86,8,26.95,21.81,36.86,38.89,9.9,17.07,15.36,35.22,15.36,51.1v485.75c0,14.77-4.75,25.77-13.38,30.98l-.53,.3-208.15,120.39c.78-2.02,1.43-4.17,1.94-6.43,1.01-4.33,1.52-9.1,1.52-14.18v-485.74c0-33-21.52-72.97-50.04-92.96-1.94-1.38-3.96-2.68-6.17-3.95l-3.71-2.15-172.41-99.54c-2.49-1.43-4.95-2.67-7.31-3.67-4.37-1.89-8.66-3.16-12.82-3.8l208.22-120.45c3.55-2.07,7.66-3.11,12.21-3.11v-4m0,0c-5.29,0-10.1,1.25-14.23,3.66l-226.15,130.82c4.02-2.24,8.66-3.4,13.76-3.4,5.36,0,11.22,1.28,17.41,3.96,2.26,.96,4.56,2.12,6.9,3.47l172.4,99.53,3.71,2.15c1.99,1.14,3.94,2.38,5.86,3.74,27.15,19.03,48.36,57.69,48.36,89.7v485.74c0,4.85-.48,9.28-1.41,13.27-2.24,9.77-7.07,16.92-13.71,21.01l225.82-130.61,.54-.31c9.51-5.71,15.36-17.61,15.36-34.43v-485.75c0-34.28-24.32-76.19-54.21-93.45l-176.11-101.67c-8.74-5.04-16.99-7.43-24.3-7.43h0Z"/><path class="cls-1" d="M906.55,1184.83v2c7.23,0,15.07,2.41,23.3,7.16l176.11,101.67c29.34,16.94,53.21,58.09,53.21,91.72v485.75c0,15.53-5.11,27.14-14.35,32.69l-.55,.32-213.74,123.63c2.03-3.44,3.57-7.41,4.59-11.85,.97-4.18,1.46-8.8,1.46-13.73v-485.74c0-32.41-21.16-71.67-49.2-91.33-1.89-1.35-3.86-2.6-6.01-3.84l-3.71-2.15-172.4-99.53c-2.42-1.39-4.81-2.59-7.1-3.57-6.33-2.74-12.46-4.12-18.21-4.12-.14,0-.29,0-.43,0l213.83-123.69c3.86-2.25,8.31-3.38,13.22-3.38v-2m0,0c-5.29,0-10.1,1.25-14.23,3.66l-226.15,130.82c4.02-2.24,8.66-3.4,13.76-3.4,5.36,0,11.22,1.28,17.41,3.96,2.26,.96,4.56,2.12,6.9,3.47l172.4,99.53,3.71,2.15c1.99,1.14,3.94,2.38,5.86,3.74,27.15,19.03,48.36,57.69,48.36,89.7v485.74c0,4.85-.48,9.28-1.41,13.27-2.24,9.77-7.07,16.92-13.71,21.01l225.82-130.61,.54-.31c9.51-5.71,15.36-17.61,15.36-34.43v-485.75c0-34.28-24.32-76.19-54.21-93.45l-176.11-101.67c-8.74-5.04-16.99-7.43-24.3-7.43h0Z"/></g><path id="top-3" class="cls-29" d="M1161.17,1387.38v485.75c0,16.82-5.86,28.72-15.36,34.43l-.54,.31-225.82,130.61c6.64-4.09,11.47-11.24,13.71-21.01,.93-3.99,1.41-8.43,1.41-13.27v-485.74c0-32.01-21.21-70.67-48.36-89.7-1.91-1.36-3.87-2.6-5.86-3.74l-3.71-2.15-172.4-99.53c-2.34-1.35-4.64-2.51-6.9-3.47-12.08-5.22-22.92-5.15-31.17-.56l226.15-130.82c9.83-5.72,23.47-4.92,38.53,3.78l176.11,101.67c29.89,17.26,54.21,59.17,54.21,93.45Z"/><path id="Corner" class="cls-43" d="M886.21,1428.75c-1.91-1.36-3.87-2.6-5.86-3.74l-3.71-2.15-172.4-99.53c-2.34-1.35-4.64-2.51-6.9-3.47-12.08-5.22-22.92-5.15-31.17-.56l-.87,.5c-9.45,5.74-15.27,17.61-15.27,34.37v485.75c0,34.26,24.33,76.19,54.21,93.44l176.11,101.68c14.77,8.53,28.19,9.47,37.97,4.09l.03-.02,.92-.54,.18-.09c6.64-4.09,11.47-11.24,13.71-21.01,.93-3.99,1.41-8.43,1.41-13.27v-485.74c0-32.01-21.21-70.67-48.36-89.7Zm38.8,569.92c0,.58,0,1.15-.03,1.72-.02,.48-.03,.97-.07,1.45-.03,.65-.08,1.29-.14,1.93-.04,.52-.1,1.03-.17,1.53-.06,.52-.13,1.04-.22,1.55-.08,.47-.16,.93-.24,1.38,0,.04-.02,.08-.02,.12-.08,.44-.18,.89-.28,1.31-.03,.09-.04,.18-.07,.28-.1,.43-.21,.86-.33,1.28l-.03,.1c-.12,.43-.24,.85-.38,1.26-.13,.4-.26,.79-.4,1.19-.04,.14-.1,.28-.15,.42-.12,.33-.25,.65-.38,.98-.17,.42-.34,.82-.53,1.22-.17,.37-.34,.73-.52,1.08-.02,.03-.03,.06-.05,.09-.2,.38-.4,.75-.61,1.12h0c-.42,.74-.86,1.44-1.34,2.11-.13,.19-.27,.38-.42,.57-.28,.38-.57,.74-.86,1.09-.59,.7-1.22,1.36-1.88,1.97-.16,.15-.33,.3-.49,.44-1.73,1.51-3.66,2.72-5.76,3.6-.3,.13-.6,.25-.91,.37-.41,.14-.82,.28-1.24,.41-.17,.05-.33,.1-.5,.15-.24,.07-.49,.13-.75,.19-.18,.04-.37,.08-.55,.13-.22,.04-.44,.09-.67,.13-.18,.03-.37,.07-.56,.1-3.78,.59-7.94,.33-12.38-.84-.84-.22-1.67-.48-2.52-.76-1.27-.43-2.56-.93-3.88-1.51-1.75-.77-3.53-1.67-5.33-2.72l-176.11-101.67c-24.65-14.24-44.65-48.69-44.65-76.96v-485.75c0-11.24,3.17-19.81,8.53-25.15,.14-.15,.29-.29,.45-.43,2.89-2.73,6.39-4.56,10.35-5.4,.21-.04,.42-.08,.63-.13,.21-.05,.43-.08,.63-.11,.32-.05,.64-.1,.97-.13,.24-.03,.48-.06,.73-.08,.37-.03,.74-.06,1.1-.08,.99-.05,1.99-.03,3.02,.04,.35,.02,.69,.04,1.05,.08,.35,.03,.7,.07,1.06,.13,.34,.03,.7,.09,1.05,.16,.03,0,.05,0,.08,0,.34,.05,.69,.12,1.04,.19,1.17,.23,2.36,.53,3.57,.89,.39,.12,.79,.25,1.19,.38,.42,.13,.84,.28,1.26,.44,.74,.28,1.49,.58,2.24,.9,.25,.11,.5,.22,.75,.33,.34,.15,.69,.31,1.03,.47,.33,.16,.65,.32,.99,.48,.53,.27,1.05,.54,1.59,.84,.44,.24,.89,.49,1.35,.75l172.4,99.53,3.71,2.15c1.99,1.14,3.94,2.42,5.86,3.81,21.9,15.92,38.8,47.15,38.8,73.14v485.74Z"/><g><use width="286" height="271" transform="translate(690.75 1561.29) scale(.84)" xlink:href="#host_buttons"/><use width="286" height="271" transform="translate(690.75 1467.28) scale(.84)" xlink:href="#host_buttons"/><use width="286" height="271" transform="translate(690.75 1373.26) scale(.84)" xlink:href="#host_buttons"/></g></g><g id="_Teal"><g class="cls-7"><path class="cls-42" d="M1140.94,1525.32l-.29-101.8-20.61-11.98,.29,101.8c0,2.34,.83,3.98,2.16,4.75l20.61,11.98c-1.33-.77-2.16-2.42-2.16-4.75Z"/><path class="cls-27" d="M1277.73,1249.36c-1.35-.78-3.22-.67-5.28,.52l-88.6,51.15,20.61,11.98,88.6-51.15c2.06-1.19,3.93-1.3,5.28-.52l-20.61-11.98Z"/><path class="cls-32" d="M1119.84,1337.98l-88.6,51.15c-4.1,2.37-7.4,8.1-7.39,12.81l.16,56.51c0,2.34,.83,3.98,2.16,4.76l20.61,11.98c-1.33-.77-2.16-2.42-2.16-4.76l-.16-56.51c-.01-4.71,3.29-10.44,7.39-12.81l88.6-51.15-20.61-11.98Z"/><path class="cls-38" d="M1196.73,1206.96c4.09-2.36,7.42-.47,7.44,4.24l.29,101.8,88.6-51.15c4.1-2.37,7.43-.47,7.44,4.24l.16,56.51c.01,4.7-3.3,10.44-7.4,12.8l-88.6,51.15,.29,101.8c.01,4.71-3.3,10.44-7.39,12.8l-49.18,28.39c-4.1,2.37-7.43,.47-7.44-4.24l-.29-101.8-88.6,51.15c-4.1,2.37-7.42,.46-7.44-4.24l-.16-56.51c-.01-4.71,3.29-10.44,7.39-12.81l88.6-51.15-.29-101.8c-.01-4.71,3.3-10.44,7.4-12.8l49.18-28.39Z"/><path class="cls-25" d="M1181.4,1194.47c-1.35-.78-3.22-.67-5.28,.52l-49.18,28.39c-4.1,2.37-7.41,8.1-7.4,12.8l.29,101.8,20.61,11.98-.29-101.8c-.01-4.71,3.3-10.44,7.4-12.8l49.18-28.39c2.06-1.19,3.93-1.3,5.28-.52l-20.61-11.98Z"/></g></g></g></g></svg>