<svg xmlns="http://www.w3.org/2000/svg" xmlns:xlink="http://www.w3.org/1999/xlink" viewBox="0 0 2500 2500"><defs><linearGradient id="af05ff19-45b6-44ee-aae9-2ece5d1f90a9" x1="85" y1="85.23" x2="323.32" y2="496.25" gradientUnits="userSpaceOnUse"><stop offset="0" stop-color="#fafbfc"/><stop offset="0.05" stop-color="#fafbfc"/><stop offset="0.11" stop-color="#f4f7fb"/><stop offset="0.21" stop-color="#f1f5fa"/><stop offset="0.27" stop-color="#dbedf8"/><stop offset="0.31" stop-color="#d3eaf7"/><stop offset="0.83" stop-color="#d5ebf7"/><stop offset="0.94" stop-color="#d8eef7"/></linearGradient><linearGradient id="e7004d64-7c57-4a8f-9911-a2282bdb1876" x1="15.87" y1="129.34" x2="111.28" y2="581.22" gradientUnits="userSpaceOnUse"><stop offset="0" stop-color="#bacfda"/><stop offset="0.04" stop-color="#bfd4de"/><stop offset="0.2" stop-color="#cfe4ed"/><stop offset="0.38" stop-color="#d8edf5"/><stop offset="0.63" stop-color="#dbf0f8"/><stop offset="0.82" stop-color="#d8edf5"/><stop offset="0.97" stop-color="#cee3ec"/><stop offset="1" stop-color="#cbe0e9"/></linearGradient><linearGradient id="f5de9b17-ce22-416d-b14e-12a182aff071" x1="-15.84" y1="466.51" x2="221.1" y2="146.51" gradientUnits="userSpaceOnUse"><stop offset="0" stop-color="#fafbfc"/><stop offset="0.48" stop-color="#f5f8fa"/><stop offset="0.6" stop-color="#eff6fa"/></linearGradient><linearGradient id="a59fd2f3-193a-4af4-8ca7-5ea23b1fa256" x1="25.33" y1="343.24" x2="137.53" y2="345.89" gradientUnits="userSpaceOnUse"><stop offset="0" stop-color="#fafbfc" stop-opacity="0"/><stop offset="0.09" stop-color="#fafbfc" stop-opacity="0.02"/><stop offset="0.21" stop-color="#f9fbfc" stop-opacity="0.08"/><stop offset="0.34" stop-color="#f8fafc" stop-opacity="0.18"/><stop offset="0.47" stop-color="#f6f9fb" stop-opacity="0.32"/><stop offset="0.61" stop-color="#f5f9fb" stop-opacity="0.5"/><stop offset="0.76" stop-color="#f2f7fb" stop-opacity="0.72"/><stop offset="0.91" stop-color="#eff6fa" stop-opacity="0.97"/><stop offset="0.92" stop-color="#eff6fa"/></linearGradient><linearGradient id="a505b925-bddc-4f00-be2a-b009af3759be" x1="90.41" y1="414.09" x2="77.32" y2="445.32" gradientUnits="userSpaceOnUse"><stop offset="0.01" stop-color="#5d7586" stop-opacity="0.2"/><stop offset="0.6" stop-color="#5d7586" stop-opacity="0.09"/><stop offset="1" stop-color="#5d7586" stop-opacity="0"/></linearGradient><linearGradient id="ba01c73f-8391-4414-88b7-6ab6ef36adba" x1="54.64" y1="378.97" x2="103.79" y2="431.54" gradientUnits="userSpaceOnUse"><stop offset="0.5" stop-color="#b581a7"/><stop offset="0.59" stop-color="#a77399"/><stop offset="0.75" stop-color="#824f74"/></linearGradient><linearGradient id="a60c290e-5c16-4918-b331-636ce5d3dd43" x1="90.36" y1="469.74" x2="76.45" y2="502.92" xlink:href="#a505b925-bddc-4f00-be2a-b009af3759be"/><linearGradient id="bf463a0e-f634-4600-93c5-8723240f0a97" x1="54.64" y1="436.16" x2="103.79" y2="488.73" gradientUnits="userSpaceOnUse"><stop offset="0.5" stop-color="#9199ba"/><stop offset="0.59" stop-color="#838cb1"/><stop offset="0.75" stop-color="#5f6c9c"/></linearGradient><linearGradient id="b45230ea-fd9a-4062-bd39-0a360cb9c139" x1="-17.58" y1="930.65" x2="-136.94" y2="963.5" gradientTransform="matrix(-0.95, 0.32, 0.32, 0.95, 487.25, 98.53)" gradientUnits="userSpaceOnUse"><stop offset="0" stop-color="#c2ebe8" stop-opacity="0.1"/><stop offset="0.05" stop-color="#8fe0d9" stop-opacity="0.1"/><stop offset="0.15" stop-color="#6ad8cf" stop-opacity="0.1"/><stop offset="0.87" stop-color="#43a39b" stop-opacity="0.3"/></linearGradient><linearGradient id="b97ea1b4-e18a-46fa-8022-b599bed43cfa" x1="695.4" y1="984.66" x2="1185.93" y2="1157.96" gradientUnits="userSpaceOnUse"><stop offset="0" stop-color="#c2ebe8" stop-opacity="0"/><stop offset="0.06" stop-color="#a7e5e0" stop-opacity="0.03"/><stop offset="0.21" stop-color="#79dbd3" stop-opacity="0.08"/><stop offset="0.37" stop-color="#6ad8cf" stop-opacity="0.1"/><stop offset="0.86" stop-color="#43a39b" stop-opacity="0.6"/></linearGradient><linearGradient id="f8b1cee1-30a0-45c0-9e18-cf632ad6f71e" x1="359.77" y1="1395.6" x2="960.94" y2="1597.29" xlink:href="#b97ea1b4-e18a-46fa-8022-b599bed43cfa"/><linearGradient id="b3413f3a-66bb-487a-8840-048f0d99a4e0" x1="358.17" y1="1400.38" x2="959.33" y2="1602.07" xlink:href="#b97ea1b4-e18a-46fa-8022-b599bed43cfa"/><filter id="e010909c-427f-4a9b-92a9-6b1bd28877b8" name="AI_DesenfoqueGaussiano_4"><feGaussianBlur stdDeviation="4"/></filter><linearGradient id="eb0cdb60-a8a6-4097-b9a9-77f274b7c242" x1="1934.69" y1="1806.31" x2="931.77" y2="1806.31" gradientUnits="userSpaceOnUse"><stop offset="0.09" stop-color="#90aac1" stop-opacity="0"/><stop offset="0.17" stop-color="#809aaf" stop-opacity="0.09"/><stop offset="0.31" stop-color="#6c8598" stop-opacity="0.21"/><stop offset="0.46" stop-color="#61798a" stop-opacity="0.28"/><stop offset="0.68" stop-color="#5d7586" stop-opacity="0.3"/><stop offset="1" stop-color="#5d7586" stop-opacity="0"/></linearGradient><linearGradient id="f0c34765-fbe0-48df-be53-5bc8d2d16482" x1="1041.37" y1="1125.12" x2="1151.36" y2="1310.65" gradientUnits="userSpaceOnUse"><stop offset="0" stop-color="#0071b0" stop-opacity="0"/><stop offset="0.26" stop-color="#0071b0" stop-opacity="0.04"/><stop offset="0.6" stop-color="#0071b0" stop-opacity="0.13"/><stop offset="0.78" stop-color="#0071b0" stop-opacity="0.2"/></linearGradient><linearGradient id="f8b5ee15-526e-4d7f-9bfd-95be71acc4ef" x1="1196.32" y1="1080.29" x2="1594.87" y2="1767.66" xlink:href="#af05ff19-45b6-44ee-aae9-2ece5d1f90a9"/><linearGradient id="bfef90e6-ce6e-4e11-9aef-1e64e8c1ffe7" x1="1095.07" y1="1140.03" x2="1256.8" y2="1906" gradientUnits="userSpaceOnUse"><stop offset="0" stop-color="#bacfda"/><stop offset="0.17" stop-color="#cadfe8"/><stop offset="0.39" stop-color="#d7ecf4"/><stop offset="0.59" stop-color="#dbf0f8"/><stop offset="0.8" stop-color="#d8edf5"/><stop offset="0.96" stop-color="#cee3ec"/><stop offset="1" stop-color="#cbe0e9"/></linearGradient><linearGradient id="ac47ec88-44b5-41fc-bc26-43341a0542e6" x1="1041.93" y1="1711.95" x2="1425.16" y2="1194.4" gradientUnits="userSpaceOnUse"><stop offset="0" stop-color="#fafbfc"/><stop offset="0.55" stop-color="#f5f8fa"/><stop offset="1" stop-color="#d4ecf6"/></linearGradient><linearGradient id="a3dc1d21-3d38-4065-b2f5-5e3f1d06e53e" x1="1116.54" y1="1511.49" x2="1291.46" y2="1517.68" gradientUnits="userSpaceOnUse"><stop offset="0" stop-color="#fafbfc" stop-opacity="0"/><stop offset="0.09" stop-color="#fafbfc" stop-opacity="0.03"/><stop offset="0.22" stop-color="#f9fbfc" stop-opacity="0.1"/><stop offset="0.37" stop-color="#f8fafc" stop-opacity="0.21"/><stop offset="0.53" stop-color="#f6f9fb" stop-opacity="0.38"/><stop offset="0.71" stop-color="#f4f8fb" stop-opacity="0.59"/><stop offset="0.89" stop-color="#f1f7fa" stop-opacity="0.84"/><stop offset="1" stop-color="#eff6fa"/></linearGradient><linearGradient id="bb2533dd-4655-47b6-a82a-a1b064690566" x1="1197.05" y1="1299.11" x2="1208.81" y2="1374.1" gradientUnits="userSpaceOnUse"><stop offset="0.01" stop-color="#5d7586" stop-opacity="0.2"/><stop offset="0.39" stop-color="#5d7586" stop-opacity="0.16"/><stop offset="0.9" stop-color="#5d7586" stop-opacity="0.03"/><stop offset="1" stop-color="#5d7586" stop-opacity="0"/></linearGradient><linearGradient id="b28dda41-1533-45f4-9de6-79b40d211ecd" x1="1211" y1="1355.11" x2="1123.54" y2="1181.07" gradientUnits="userSpaceOnUse"><stop offset="0" stop-color="#2e5ca6"/><stop offset="0.21" stop-color="#357fad"/><stop offset="0.38" stop-color="#3b9fb3"/></linearGradient><linearGradient id="f306e08d-e0ab-4aa5-b27d-924414f7d9f2" x1="1108.04" y1="1281.24" x2="1252.49" y2="1362.08" gradientTransform="translate(823.48 -408.78) rotate(30.36)" gradientUnits="userSpaceOnUse"><stop offset="0" stop-color="#63bdcf"/><stop offset="0.2" stop-color="#60b5cc"/><stop offset="0.52" stop-color="#569ec5"/><stop offset="0.91" stop-color="#4779b9"/><stop offset="1" stop-color="#436fb6"/></linearGradient><linearGradient id="b229efe7-9134-4088-9b4a-0ffa33b5e6c2" x1="1717.14" y1="1288" x2="1698.88" y2="1500.03" gradientUnits="userSpaceOnUse"><stop offset="0.01" stop-color="#0071b0"/><stop offset="0.37" stop-color="#0f89c6"/><stop offset="0.73" stop-color="#199bd6"/><stop offset="1" stop-color="#1da1dc"/></linearGradient><linearGradient id="ecbf5304-cf27-4353-a444-c61ae42a1a23" x1="1752.92" y1="1186.93" x2="1865.71" y2="1117.44" gradientUnits="userSpaceOnUse"><stop offset="0.01" stop-color="#0071b0"/><stop offset="0.1" stop-color="#0579b7"/><stop offset="0.42" stop-color="#128fcc"/><stop offset="0.72" stop-color="#1a9cd8"/><stop offset="1" stop-color="#1da1dc"/></linearGradient><linearGradient id="aa04700f-68c7-414b-b3ea-1344f7c26c00" x1="1576.78" y1="1396.27" x2="1675.13" y2="1196.32" gradientUnits="userSpaceOnUse"><stop offset="0.01" stop-color="#0071b0"/><stop offset="0.29" stop-color="#0173b2"/><stop offset="0.39" stop-color="#057ab8"/><stop offset="0.46" stop-color="#0c85c3"/><stop offset="0.52" stop-color="#1696d2"/><stop offset="0.55" stop-color="#1da1dc"/><stop offset="0.98" stop-color="#1da1dc"/><stop offset="1" stop-color="#1da1dc"/></linearGradient><linearGradient id="b69ad89a-f740-48f7-a58a-8a50141918f1" x1="1704.69" y1="1152.55" x2="1773.92" y2="1023.28" xlink:href="#aa04700f-68c7-414b-b3ea-1344f7c26c00"/><symbol id="f03be8d2-b08e-4f05-b3bb-9535eb8d4ab2" data-name="sidetower" viewBox="0 0 337 580.17"><path d="M305.18,39.45,244.43,4.38c-8.87-5.12-16.91-5.6-22.71-2.23L10.28,125c5.8-3.37,110.73,449.65,105,453L326.72,455.14c5.73-3.33,9.29-10.41,9.32-20.48l1-340.1C337.06,74.39,322.74,49.59,305.18,39.45Z" fill="url(#af05ff19-45b6-44ee-aae9-2ece5d1f90a9)"/><path d="M106.89,574.67c-3.44,0-7.44-1.26-11.57-3.65L34.57,536C18.76,526.82,5.45,503.77,5.5,485.62l1-340.1c0-10.74,4.6-17.15,12.21-17.15,3.44,0,7.45,1.26,11.57,3.65L91,167.09c15.81,9.13,29.12,32.18,29.07,50.33l-1,340.1C119.07,568.26,114.5,574.67,106.89,574.67Z" fill="url(#e7004d64-7c57-4a8f-9911-a2282bdb1876)"/><path d="M24.66,137.36V475.69A51.23,51.23,0,0,0,50.26,520l69.8,40.3V189.13L96.52,163,37.75,129.73A8.77,8.77,0,0,0,24.66,137.36Z" fill="url(#f5de9b17-ce22-416d-b14e-12a182aff071)"/><path d="M24.66,137.36V475.69A51.23,51.23,0,0,0,50.26,520l69.8,40.3V189.13L96.52,163,37.75,129.73A8.77,8.77,0,0,0,24.66,137.36Z" fill="url(#a59fd2f3-193a-4af4-8ca7-5ea23b1fa256)"/><polygon points="104.32 419.39 118.12 469.79 61.46 438.14 48.33 392.67 104.32 419.39" fill="url(#a505b925-bddc-4f00-be2a-b009af3759be)"/><path d="M104.3,424.19c0,5.18-1.68,8.88-4.36,10.56l-.39.23-7.29,4.4-7.78-9L48.4,388.59l-2.73-3.17,6.82-4.17a6.78,6.78,0,0,1,3.65-1,10.54,10.54,0,0,1,5.25,1.58L91.08,399C98.38,403.16,104.3,414.46,104.3,424.19Z" fill="url(#ba01c73f-8391-4414-88b7-6ab6ef36adba)"/><path d="M83.42,438.79,53.73,421.65c-7.3-4.22-13.22-15.52-13.22-25.25h0c0-9.73,5.92-14.2,13.22-10l29.69,17.15c7.3,4.21,13.22,15.51,13.22,25.24h0C96.64,438.53,90.72,443,83.42,438.79Z" fill="#d195c1"/><polygon points="103.31 474.41 118.12 528.23 61.46 496.57 47.32 447.69 103.31 474.41" fill="url(#a60c290e-5c16-4918-b331-636ce5d3dd43)"/><path d="M104.3,481.38c0,5.18-1.68,8.88-4.36,10.56l-.39.23-7.29,4.4-7.78-9L48.4,445.78l-2.73-3.17,6.82-4.17a6.78,6.78,0,0,1,3.65-1A10.54,10.54,0,0,1,61.39,439l29.69,17.15C98.38,460.35,104.3,471.65,104.3,481.38Z" fill="url(#bf463a0e-f634-4600-93c5-8723240f0a97)"/><path d="M83.42,496,53.73,478.84c-7.3-4.22-13.22-15.52-13.22-25.25h0c0-9.73,5.92-14.2,13.22-10l29.69,17.14C90.72,465,96.64,476.26,96.64,486h0C96.64,495.72,90.72,500.2,83.42,496Z" fill="#aab2dc"/><path d="M18.67,133.87h0c1.73,0,4.66.51,8.82,2.91l60.75,35.07c14.07,8.12,26.37,29.41,26.32,45.56l-1,340.09c0,5.86-1.58,8.68-2.51,9.83a4.85,4.85,0,0,1-4.2,1.84c-1.73,0-4.66-.51-8.82-2.91L37.32,531.19C23,522.92,11,502.06,11,485.63l1-340.09c0-5.86,1.58-8.67,2.52-9.83a4.84,4.84,0,0,1,4.19-1.84m0-11C8.21,122.88,1,131.16,1,145.5L0,485.6c-.06,20.26,14.19,44.94,31.82,55.11l60.75,35.08c5.15,3,10,4.38,14.32,4.38,10.46,0,17.67-8.29,17.71-22.63l1-340.1c.06-20.18-14.26-45-31.82-55.11L33,127.25c-5.14-3-10-4.38-14.32-4.38Z" fill="#fafbfc"/></symbol></defs><g id="e3a367ef-eda8-4a0a-9498-bfc702b410e8" data-name="Plant"><g id="e7960567-35ef-46e4-9dd9-7ea4eb30fd2c" data-name="Plant"><g id="bc53d728-3030-4079-9846-56eefe0b78a2" data-name="Layer1 8 MEMBER 0 FILL"><path d="M1049.88,1584.44l-6.87,3.71q-49-84.11-51.8-248.58l17.3-17.9q-16.29,124.83,41.37,262.77m-138.2-146.59,3.88-4q60.2,79,88.41,160.27l-12,4Q969.65,1519.47,911.68,1437.85Z" fill="#6ad8cf"/></g><g id="f4960024-37dc-4da7-b4a4-10166254b567" data-name="Layer1 8 MEMBER 1 FILL"><path d="M874.55,879.78q81,301,98,651.09-239.75-172.27-340.3-522.73Q531.73,657.53,667.31,419,828.29,708,874.55,879.78Z" fill="#c2ebe8"/></g><g id="a2b9a096-a18c-497b-9ec3-10e8f05e7aa5" data-name="Layer1 8 MEMBER 1 FILL"><path d="M874.55,879.78q81,301,98,651.09-239.75-172.27-340.3-522.73Q531.73,657.53,667.31,419,828.29,708,874.55,879.78Z" fill="url(#b45230ea-fd9a-4062-bd39-0a360cb9c139)"/></g><g id="f845c306-be44-4913-a891-d4918ed2383b" data-name="Layer1 8 MEMBER 2 FILL"><path d="M1034.5,609.27q95.85,127.8,110.9,305.35t-105.75,386q-50.91,108.09-25.85,206.74-43.69-64.2-83-200.72t-4.86-327Q946,795.3,1034.5,609.27Z" fill="#91e2db"/></g><path d="M1040.3,601.59h0l.12,0-.12,0m-24.85,379.08v.39q35.57-196.14,28.94-300.37,11.71,127.86-14.24,302.54a.43.43,0,0,0,0,.28q-48.57,251.94-18.16,397.62a292.52,292.52,0,0,0-6.44,57.66Q939.9,1303,1015.45,980.67Z" fill="#6ad8cf"/><path d="M973.56,1532q-5.8-4.18-11.54-8.43C829,1263,711.73,730.28,667.2,437.78c60.89,306.57,178.64,779.43,303.64,1065.82Q972.26,1517.76,973.56,1532Z" fill="#6ad8cf"/><g id="b2d9ba1d-acde-47b2-a118-26307fe2f399" data-name="Layer1 8 MEMBER 2 FILL"><path d="M598.33,1371.69c144.56.88,333.85,108.69,401.63,232.41,21.53,39.31,8.95-7.31,29,15C858.68,1628.47,656.73,1539.06,598.33,1371.69Z" fill="#91e2db"/></g><path d="M974.59,1603.87a104.08,104.08,0,0,0-2.27-12.89c-122.38-64.76-242.16-134-360-206.73C731.2,1460.63,851.52,1534.61,974.61,1604,974.6,1604,974.6,1603.92,974.59,1603.87Z" fill="#6ad8cf"/><path d="M1039.65,1300.61q120.69-208.39,105.75-386T1034.5,609.27Q946,795.3,925.89,979.62q-6.87,37.85-10.81,73.54-17.73-88.63-40.53-173.38Q828.29,708,667.31,419q-135.59,238.52-35.1,589.12Q730.51,1350.68,961.75,1523l.27.54,1.68,1.22a461.64,461.64,0,0,1,23.92,59c-76.24-115-252.72-211.24-389.29-212.07,56.31,161.37,246.06,250.26,412.19,248-2.16-1.66-5.37-6.13-10.56-15.61-1.34-2.44-2.74-4.87-4.17-7.3l8.18-2.72a516,516,0,0,0-31.3-71.61q-.61-6.56-1.27-13.1-2.77-51.11-6.94-101.13,21.81,56.27,44.83,92.25,12.56,51.32,33.72,87.66l6.87-3.71q-36.15-86.48-43.23-167.8Q1011.68,1360,1039.65,1300.61Z" fill="url(#b97ea1b4-e18a-46fa-8022-b599bed43cfa)"/><path d="M1014,1619.66q7.53-.17,15-.56C1017.28,1606.12,1016.67,1616.47,1014,1619.66Z" fill="url(#f8b1cee1-30a0-45c0-9e18-cf632ad6f71e)"/><path d="M1014,1619.66l-3.43,0C1012.1,1620.93,1013.13,1620.63,1014,1619.66Z" fill="url(#b3413f3a-66bb-487a-8840-048f0d99a4e0)"/></g></g><g id="b3352486-a956-47fc-b974-91c72e34236e" data-name="Layer 1"><g filter="url(#e010909c-427f-4a9b-92a9-6b1bd28877b8)"><path d="M1488,1965.23l181.17-6.77a301.07,301.07,0,0,0,183-70.81l86.8-73.27c46.93-39.62,21.09-116.24-40.25-119.35l-941.52-47.71-17,7.25a9,9,0,0,0-1,16l167.47,98.53-22.84,10.35a10.34,10.34,0,0,0-1,18.34l149.66,87.63a82.37,82.37,0,0,0,39.14,11.25l66.1,2L1431,1951.4A107.57,107.57,0,0,0,1488,1965.23Z" fill="url(#eb0cdb60-a8a6-4097-b9a9-77f274b7c242)"/></g><use width="337" height="580.17" transform="translate(918.61 986.37) scale(1.28)" xlink:href="#f03be8d2-b08e-4f05-b3bb-9535eb8d4ab2"/><path d="M1350,1107.43l-1.23,435.39c0,12.89-4.59,22-11.93,26.21l-270.24,157c7.08-4.37,11.45-13.33,11.48-26l1.24-435.38c.07-25.83-18.26-57.58-40.74-70.56l-77.77-44.9c-6.59-3.8-12.81-5.61-18.33-5.61a21.37,21.37,0,0,0-10.21,2.45l270.14-157c7.44-4.32,17.73-3.71,29.08,2.84l77.77,44.91C1331.77,1049.85,1350.1,1081.6,1350,1107.43Z" fill="url(#f0c34765-fbe0-48df-be53-5bc8d2d16482)"/><g id="b0cd789f-9783-4468-a938-ae965e36a48c" data-name="CenterTorwer"><path d="M1556.68,1045.1l-137.94-79.64c-11.81-6.82-22.56-7.43-30.34-2.91L1076.22,1144c7.77-4.52,204.43,740.88,196.77,745.34l312.19-181.43c7.66-4.45,12.41-13.92,12.45-27.37l1.59-561.73C1599.3,1091.81,1580.15,1058.65,1556.68,1045.1Z" fill="url(#f8b5ee15-526e-4d7f-9bfd-95be71acc4ef)"/><path d="M1244.49,1226.52c23.48,13.55,42.62,46.71,42.54,73.69l-1.59,561.72c-.08,27.09-19.25,38-42.82,24.4l-137.94-79.64c-23.57-13.6-42.62-46.6-42.54-73.68l1.59-561.73c.08-27,19.35-38,42.82-24.4Z" fill="url(#bfef90e6-ce6e-4e11-9aef-1e64e8c1ffe7)"/><path d="M1094.05,1178.29v555a50.3,50.3,0,0,0,24.85,43.39l155.08,91,4.7-586.59-19.79-33.93-138.16-83.89A17.56,17.56,0,0,0,1094.05,1178.29Z" fill="url(#ac47ec88-44b5-41fc-bc26-43341a0542e6)"/><path d="M1094.05,1178.29v555a50.3,50.3,0,0,0,24.85,43.39l155.08,91,4.7-586.59-19.79-33.93-138.16-83.89A17.56,17.56,0,0,0,1094.05,1178.29Z" fill="url(#a3dc1d21-3d38-4065-b2f5-5e3f1d06e53e)"/><path d="M1243.52,1241.45c16.47,9.51,29.88,32.62,29.88,51.5l-2.57,561.72c0,18.89-13.4,26.51-29.88,17l-136.5-78.81c-16.48-9.51-29.88-32.61-29.88-51.5l2.57-561.72c0-18.89,13.4-26.51,29.88-17l136.5,78.81m0-15.63L1107,1147c-23.94-13.82-43.52-2.68-43.52,24.76l-2.57,561.72c0,27.43,19.59,61.19,43.52,75l136.5,78.81c23.94,13.81,43.52,2.67,43.52-24.76l2.56-561.72c0-27.44-19.58-61.19-43.51-75Z" fill="#fafbfc"/><polygon points="1206.25 1292.33 1263.91 1408.35 1181.54 1371.93 1148.62 1307.4 1206.25 1292.33" fill="url(#bb2533dd-4655-47b6-a82a-a1b064690566)"/><ellipse cx="1181.54" cy="1303.46" rx="26.99" ry="46.76" transform="translate(-496.78 775.95) rotate(-30.36)" fill="none" stroke="#022e49" stroke-width="7" opacity="0.15"/><ellipse cx="1181.54" cy="1303.46" rx="26.99" ry="46.76" transform="translate(-496.78 775.95) rotate(-30.36)" fill="none" stroke="#022e49" stroke-width="4" opacity="0.41"/><ellipse cx="1181.54" cy="1303.46" rx="26.99" ry="46.76" transform="translate(-496.78 775.95) rotate(-30.36)" fill="none" stroke="#022e49" stroke-width="2" opacity="0.72"/><path d="M1214.72,1322.61c0,10.56-3.75,17.94-9.81,21.34l-.21.12-17,9.92-7.27-13.13-32.08-58-5.81-10.49,15.78-9.28h0c5.43-3.32,13.12-3.51,23.17,2.29C1199.87,1276,1214.72,1301.6,1214.72,1322.61Z" fill="url(#b28dda41-1533-45f4-9de6-79b40d211ecd)"/><ellipse cx="1165.05" cy="1313.14" rx="26.99" ry="46.76" transform="translate(-503.94 768.94) rotate(-30.36)" fill="url(#f306e08d-e0ab-4aa5-b27d-924414f7d9f2)"/><g opacity="0.25"><path d="M1150.4,1270.49v2h0c4.06,0,8.66,1.46,13.65,4.35,17.74,10.24,32.18,35.12,32.18,55.46,0,13.23-6.24,21.44-16.28,21.44-4.23,0-9-1.48-13.9-4.29-17.75-10.25-32.19-35.13-32.19-55.47,0-10.67,5.68-21.49,16.54-21.49v-2m0,0c-12.5,0-18.53,12.38-18.53,23.49,0,21,14.86,46.62,33.19,57.2,5.36,3.1,10.42,4.56,14.9,4.56,10.84,0,18.28-8.58,18.28-23.44,0-21-14.86-46.62-33.18-57.2-5.62-3.24-10.49-4.61-14.66-4.61Z" fill="#95eee5"/></g></g><use width="337" height="580.17" transform="translate(1316.33 1214.62) scale(1.28)" xlink:href="#f03be8d2-b08e-4f05-b3bb-9535eb8d4ab2"/></g><g id="e70bdaaf-1278-4666-ae95-0416f4d3585d" data-name="PlusBlue"><g id="b1bf9f49-0054-473c-88ce-7cc64c22afc7" data-name="+ Blue"><g style="isolation:isolate"><path d="M1722.24,1424.2l-.34-121.85L1697.23,1288l.34,121.86c0,2.8,1,4.76,2.59,5.69l24.67,14.33C1723.24,1429,1722.25,1427,1722.24,1424.2Z" fill="url(#b229efe7-9134-4088-9b4a-0ffa33b5e6c2)"/><path d="M1886,1093.88c-1.62-.94-3.85-.8-6.32.62l-106.05,61.23,24.67,14.33,106-61.22c2.47-1.43,4.7-1.56,6.32-.62Z" fill="url(#ecbf5304-cf27-4353-a444-c61ae42a1a23)"/><path d="M1697,1200l-106,61.22c-4.9,2.83-8.86,9.7-8.85,15.33l.2,67.64c0,2.8,1,4.77,2.59,5.7l24.66,14.33c-1.59-.93-2.58-2.89-2.59-5.69l-.19-67.64c0-5.64,3.94-12.5,8.85-15.33l106.05-61.23Z" fill="url(#aa04700f-68c7-414b-b3ea-1344f7c26c00)"/><path d="M1789,1043.13c4.9-2.83,8.89-.56,8.9,5.07l.35,121.86,106-61.22c4.9-2.84,8.89-.56,8.91,5.07l.19,67.64c0,5.63-4,12.5-8.85,15.33l-106,61.23.34,121.86c0,5.63-3.94,12.49-8.84,15.32l-58.87,34c-4.9,2.84-8.89.57-8.91-5.07l-.34-121.85-106.05,61.22c-4.91,2.83-8.89.56-8.91-5.07l-.19-67.64c0-5.64,3.94-12.5,8.85-15.33l106.05-61.23-.35-121.86c0-5.63,4-12.49,8.85-15.32Z" fill="#39c2ec"/><path d="M1770.67,1028.18c-1.62-.94-3.85-.81-6.32.61l-58.86,34c-4.91,2.83-8.87,9.69-8.86,15.33L1697,1200l24.67,14.33-.35-121.86c0-5.63,4-12.49,8.85-15.32l58.87-34c2.47-1.42,4.7-1.56,6.32-.62Z" fill="url(#b69ad89a-f740-48f7-a58a-8a50141918f1)"/></g></g></g></svg>