<?xml version="1.0" encoding="UTF-8"?><svg xmlns="http://www.w3.org/2000/svg" xmlns:xlink="http://www.w3.org/1999/xlink" viewBox="0 0 2500 2500"><defs><style>.cls-1{fill:url(#Degradado_sin_nombre_111);}.cls-1,.cls-2,.cls-3,.cls-4,.cls-5,.cls-6,.cls-7,.cls-8,.cls-9,.cls-10,.cls-11,.cls-12,.cls-13,.cls-14,.cls-15,.cls-16,.cls-17,.cls-18,.cls-19,.cls-20,.cls-21,.cls-22,.cls-23,.cls-24,.cls-25,.cls-26,.cls-27,.cls-28{stroke-width:0px;}.cls-1,.cls-11,.cls-25{fill-opacity:.58;}.cls-2{fill:url(#Degradado_sin_nombre_201);}.cls-3{fill:url(#linear-gradient);}.cls-4{fill:#91e2db;}.cls-5{fill:url(#Nueva_muestra_de_degradado_60-3);}.cls-6{fill:url(#Nueva_muestra_de_degradado_72);}.cls-29{opacity:.6;}.cls-30{isolation:isolate;}.cls-7{fill:#a6c8e2;}.cls-7,.cls-22{fill-rule:evenodd;}.cls-8{fill:url(#Degradado_sin_nombre_201-2);}.cls-9{fill:url(#Nueva_muestra_de_degradado_69-2);}.cls-10{fill:#39c2ec;}.cls-11{fill:url(#Degradado_sin_nombre_106);}.cls-12{fill:url(#Nueva_muestra_de_degradado_60-2);}.cls-13{fill:#fff;}.cls-14{fill:url(#linear-gradient-2);}.cls-15{fill:url(#Nueva_muestra_de_degradado_69);}.cls-16{fill:url(#linear-gradient-3);}.cls-17{fill:url(#Degradado_sin_nombre_203);}.cls-18{fill:url(#Degradado_sin_nombre_75);}.cls-19{fill:url(#Nueva_muestra_de_degradado_60);}.cls-31{filter:url(#AI_DesenfoqueGaussiano_15);}.cls-20{fill:url(#Degradado_sin_nombre_98);}.cls-21{fill:url(#Nueva_muestra_de_degradado_60-4);}.cls-22{fill:#ccd3d8;}.cls-23{fill:#6ad8cf;}.cls-24{fill:url(#Degradado_sin_nombre_202);}.cls-25{fill:url(#Degradado_sin_nombre_106-2);}.cls-32{opacity:.17;}.cls-26{fill:url(#linear-gradient-4);}.cls-27{fill:#5d7586;opacity:.07;}.cls-28{fill:#c2ebe8;}</style><linearGradient id="Degradado_sin_nombre_75" x1="8536.32" y1="-7901.2" x2="8224.21" y2="-7066.28" gradientTransform="translate(8683.66 7880.69) rotate(-180) scale(1 -1)" gradientUnits="userSpaceOnUse"><stop offset=".25" stop-color="#58d1ed" stop-opacity=".4"/><stop offset=".35" stop-color="#54ceeb" stop-opacity=".44"/><stop offset=".51" stop-color="#4ac6e9" stop-opacity=".54"/><stop offset=".71" stop-color="#3ab8e4" stop-opacity=".7"/><stop offset=".93" stop-color="#24a6de" stop-opacity=".93"/><stop offset=".99" stop-color="#1da1dc"/></linearGradient><linearGradient id="Nueva_muestra_de_degradado_69" x1="-94.84" y1="-94.74" x2="270.43" y2="150.07" gradientUnits="userSpaceOnUse"><stop offset="0" stop-color="#90e5ff"/><stop offset="1" stop-color="#1da1dc"/></linearGradient><linearGradient id="Degradado_sin_nombre_98" x1="10135.84" y1="-7683.69" x2="10334.76" y2="-7463.83" gradientTransform="translate(-9822.81 7880.69)" gradientUnits="userSpaceOnUse"><stop offset="0" stop-color="#90e5ff"/><stop offset=".82" stop-color="#1da1dc"/></linearGradient><linearGradient id="Nueva_muestra_de_degradado_69-2" x1="9920.31" y1="-7983.78" x2="10331.23" y2="-7614.74" gradientTransform="translate(-9822.81 7880.69)" xlink:href="#Nueva_muestra_de_degradado_69"/><linearGradient id="Nueva_muestra_de_degradado_72" x1="8349.27" y1="-7722.08" x2="8671.86" y2="-6891.73" gradientTransform="translate(8683.66 7880.69) rotate(-180) scale(1 -1)" gradientUnits="userSpaceOnUse"><stop offset="0" stop-color="#fff" stop-opacity=".4"/><stop offset=".27" stop-color="#fff" stop-opacity=".4"/><stop offset=".43" stop-color="#b7d4f4" stop-opacity=".4"/><stop offset=".92" stop-color="#b7d4f4" stop-opacity="0"/></linearGradient><linearGradient id="Degradado_sin_nombre_106" x1="8238.87" y1="-7545.04" x2="7712.79" y2="-6918.84" gradientTransform="translate(8683.66 7880.69) rotate(-180) scale(1 -1)" gradientUnits="userSpaceOnUse"><stop offset="0" stop-color="#fff" stop-opacity=".6"/><stop offset=".17" stop-color="#fff" stop-opacity=".6"/><stop offset=".43" stop-color="#b7d4f4" stop-opacity=".4"/><stop offset=".92" stop-color="#b7d4f4" stop-opacity="0"/></linearGradient><linearGradient id="Degradado_sin_nombre_106-2" x1="8457.75" y1="-7880.09" x2="7567.87" y2="-6884.2" xlink:href="#Degradado_sin_nombre_106"/><linearGradient id="Degradado_sin_nombre_111" x1="8604.63" y1="-7871.77" x2="8316.07" y2="-7560.31" gradientTransform="translate(8683.66 7880.69) rotate(-180) scale(1 -1)" gradientUnits="userSpaceOnUse"><stop offset=".04" stop-color="#fff" stop-opacity=".6"/><stop offset=".27" stop-color="#fff" stop-opacity=".4"/><stop offset=".43" stop-color="#b7d4f4" stop-opacity=".4"/><stop offset=".92" stop-color="#b7d4f4" stop-opacity="0"/></linearGradient><symbol id="cloud" viewBox="0 0 601.25 566.93"><g id="Clloud"><g id="Cloud"><path class="cls-13" d="m135.84,64.92C61.65,23.1,1.59,57.95,1.34,143.44c-.24,86.12,60.31,191,135.26,234.27l299.97,173.19c61.03,35.23,110.66,6.95,110.86-63.17.19-65.33-42.6-143.93-97.8-182.85-17.79-97.6-85.82-201.83-167.22-248.83-61.73-35.64-115.98-29.61-146.57,8.87Z"/><g class="cls-29"><path class="cls-13" d="m205.09,35.38c23.61,0,49.13,7.82,75.85,23.24,19.69,11.37,38.99,26.35,57.36,44.52,17.79,17.59,34.31,37.78,49.11,59.99,29.63,44.46,50.69,94.99,59.31,142.28l.22,1.19.99.7c26.46,18.66,50.89,47.25,68.77,80.51,18,33.48,27.87,68.96,27.78,99.92-.13,46.49-22.48,75.37-58.31,75.37-14.95,0-31.14-4.97-48.1-14.76l-299.97-173.19C64.08,332.42,4.07,228.48,4.31,143.45c.08-28.78,7.12-52.68,20.35-69.12,12.71-15.78,30.67-24.13,51.93-24.13,17.99,0,37.44,5.82,57.79,17.3l2.2,1.24,1.57-1.98c16.33-20.53,39.47-31.39,66.93-31.39m0-2.96c-28.44,0-52.42,11.35-69.25,32.51-21.26-11.99-41.38-17.68-59.25-17.68-44.47,0-75.08,35.21-75.25,96.2-.24,86.12,60.31,191,135.26,234.27l299.97,173.19c17.81,10.28,34.66,15.16,49.58,15.16,36.21,0,61.13-28.67,61.27-78.32.19-65.33-42.6-143.93-97.8-182.85-17.79-97.6-85.82-201.83-167.22-248.83-27.78-16.04-54.05-23.64-77.33-23.64h0Z"/></g><g class="cls-32"><path class="cls-13" d="m205.09,42.79c21.98,0,46.93,7.69,72.14,22.25,19.14,11.05,37.94,25.64,55.86,43.37,17.43,17.24,33.64,37.04,48.16,58.83,29.08,43.64,49.74,93.18,58.18,139.5l.76,4.17,3.47,2.44c25.54,18.01,49.16,45.7,66.51,77.96,17.43,32.41,26.98,66.64,26.89,96.39-.06,21.61-5.19,39.35-14.82,51.31-8.79,10.91-21.27,16.68-36.09,16.68-13.44,0-28.8-4.76-44.4-13.77l-299.97-173.19c-34.7-20.03-67.38-54.58-92.03-97.27-24.65-42.69-38.16-88.14-38.04-127.99.08-27.08,6.55-49.38,18.72-64.49,11.26-13.98,27.22-21.37,46.16-21.37,16.47,0,35.2,5.65,54.16,16.34l7.7,4.34,5.5-6.92c14.87-18.7,36.01-28.59,61.13-28.59m0-10.37c-28.44,0-52.42,11.35-69.25,32.51-21.26-11.99-41.38-17.68-59.25-17.68-44.47,0-75.08,35.21-75.25,96.2-.24,86.12,60.31,191,135.26,234.27l299.97,173.19c17.81,10.28,34.66,15.16,49.58,15.16,36.21,0,61.13-28.67,61.27-78.32.19-65.33-42.6-143.93-97.8-182.85-17.79-97.6-85.82-201.83-167.22-248.83-27.78-16.04-54.05-23.64-77.33-23.64h0Z"/></g><g id="cloud-2"><g class="cls-30"><path class="cls-18" d="m135.84,64.92C61.65,23.1,1.59,57.95,1.34,143.44c-.24,86.12,60.31,191,135.26,234.27l299.97,173.19c61.03,35.23,110.66,6.95,110.86-63.17.19-65.33-42.6-143.93-97.8-182.85-17.79-97.6-85.82-201.83-167.22-248.83-61.73-35.64-115.98-29.61-146.57,8.87Z"/><g class="cls-32"><path class="cls-13" d="m205.09,37.42c23.25,0,48.43,7.73,74.83,22.97,19.54,11.28,38.7,26.15,56.95,44.2,17.69,17.5,34.13,37.57,48.85,59.67,29.48,44.23,50.43,94.49,59,141.52l.37,2.01,1.67,1.18c26.21,18.48,50.41,46.82,68.15,79.81,17.84,33.18,27.62,68.32,27.53,98.94-.13,45.24-21.69,73.34-56.27,73.34-14.39,0-30.67-5.01-47.08-14.49l-299.97-173.19C65.66,330.98,6.1,227.83,6.34,143.45c.16-56.26,27.07-91.21,70.25-91.21,17.64,0,36.75,5.73,56.79,17.03l3.71,2.09,2.65-3.34c15.93-20.03,38.52-30.62,65.33-30.62m0-5c-28.44,0-52.42,11.35-69.25,32.51-21.26-11.99-41.38-17.68-59.25-17.68-44.47,0-75.08,35.21-75.25,96.2-.24,86.12,60.31,191,135.26,234.27l299.97,173.19c17.81,10.28,34.66,15.16,49.58,15.16,36.21,0,61.13-28.67,61.27-78.32.19-65.33-42.6-143.93-97.8-182.85-17.79-97.6-85.82-201.83-167.22-248.83-27.78-16.04-54.05-23.64-77.33-23.64h0Z"/></g></g></g><path class="cls-15" d="m43.2,55.14c.4-.21.8-.41,1.21-.61.38-.19.77-.39,1.15-.58.4-.19.8-.36,1.21-.55.4-.18.8-.37,1.21-.55.41-.17.82-.33,1.23-.5.41-.17.81-.34,1.23-.5.41-.16.83-.3,1.25-.45.42-.15.84-.31,1.26-.45.43-.14.86-.27,1.29-.41.42-.13.84-.27,1.27-.4.44-.13.88-.24,1.33-.36.43-.12.85-.24,1.28-.35.45-.11.9-.21,1.35-.31.43-.1.86-.21,1.3-.3.46-.1.93-.18,1.4-.27.43-.08.86-.17,1.3-.25.46-.08.93-.14,1.39-.21.45-.07.9-.14,1.36-.2.47-.06.94-.11,1.41-.16.46-.05.92-.11,1.38-.16.47-.04.96-.07,1.44-.11.47-.04.93-.08,1.4-.11.49-.03.99-.04,1.49-.06.46-.02.92-.04,1.38-.06.5-.01,1.01,0,1.51,0,.47,0,.94-.01,1.41,0,.49,0,.99.03,1.49.04.49.01.97.02,1.46.04.51.02,1.03.06,1.54.1.48.03.96.05,1.45.09.51.04,1.03.1,1.55.15.49.05.99.09,1.48.14.52.06,1.04.13,1.56.2.5.06,1,.12,1.5.19.53.08,1.06.17,1.58.25.51.08,1.01.15,1.52.24.53.09,1.06.2,1.6.31.51.1,1.02.19,1.54.3.57.12,1.14.25,1.72.38.48.11.97.21,1.45.33.57.14,1.14.29,1.71.43.5.13.99.25,1.49.38.58.16,1.16.33,1.73.49.5.14,1,.28,1.5.43.57.17,1.15.36,1.73.54.51.16,1.02.31,1.54.48.6.2,1.21.42,1.82.63.49.17.98.33,1.47.51.69.25,1.39.52,2.09.78.41.16.82.3,1.23.46.63.25,1.27.51,1.91.77.48.19.96.38,1.44.58.63.27,1.27.55,1.91.83.49.21.97.41,1.46.63.75.33,1.5.69,2.25,1.04.38.18.76.35,1.15.53.67.32,1.34.66,2.01.99.47.23.94.45,1.41.69.8.41,1.61.83,2.41,1.26.34.18.69.35,1.03.54,1.15.62,2.31,1.25,3.47,1.9,13.14-16.52,30.64-27.05,51.21-30.88-36.67-20.37-69.83-21.98-93.92-7.98l-52.2,30.34c.38-.22.77-.42,1.15-.64.37-.21.75-.42,1.12-.62Z"/><path class="cls-20" d="m567.4,528.26l-52.2,30.34c19.83-11.53,32.13-36.03,32.23-70.87.19-65.33-42.6-143.93-97.8-182.85l52.2-30.34c55.2,38.92,97.98,117.52,97.8,182.85-.1,34.83-12.4,59.34-32.23,70.87Z"/><path class="cls-9" d="m334.61,25.72C286.72-1.93,243.33-4.5,211.99,13.71l-52.2,30.34c31.33-18.21,74.73-15.64,122.62,12.01,81.4,47,149.43,151.22,167.22,248.83l52.2-30.34c-17.79-97.6-85.82-201.83-167.22-248.83Z"/><path class="cls-6" d="m135.84,64.92C61.65,23.1,1.59,57.95,1.34,143.44c-.24,86.12,60.31,191,135.26,234.27l299.97,173.19c61.03,35.23,110.66,6.95,110.86-63.17.19-65.33-42.6-143.93-97.8-182.85-17.79-97.6-85.82-201.83-167.22-248.83-61.73-35.64-115.98-29.61-146.57,8.87Z"/><g class="cls-32"><path class="cls-13" d="m205.09,42.79c21.98,0,46.93,7.69,72.14,22.25,19.14,11.05,37.94,25.64,55.86,43.37,17.43,17.24,33.64,37.04,48.16,58.83,29.08,43.64,49.74,93.18,58.18,139.5l.76,4.17,3.47,2.44c25.54,18.01,49.16,45.7,66.51,77.96,17.43,32.41,26.98,66.64,26.89,96.39-.06,21.61-5.19,39.35-14.82,51.31-8.79,10.91-21.27,16.68-36.09,16.68-13.44,0-28.8-4.76-44.4-13.77l-299.97-173.19c-34.7-20.03-67.38-54.58-92.03-97.27-24.65-42.69-38.16-88.14-38.04-127.99.08-27.08,6.55-49.38,18.72-64.49,11.26-13.98,27.22-21.37,46.16-21.37,16.47,0,35.2,5.65,54.16,16.34l7.7,4.34,5.5-6.92c14.87-18.7,36.01-28.59,61.13-28.59m0-10.37c-28.44,0-52.42,11.35-69.25,32.51-21.26-11.99-41.38-17.68-59.25-17.68-44.47,0-75.08,35.21-75.25,96.2-.24,86.12,60.31,191,135.26,234.27l299.97,173.19c17.81,10.28,34.66,15.16,49.58,15.16,36.21,0,61.13-28.67,61.27-78.32.19-65.33-42.6-143.93-97.8-182.85-17.79-97.6-85.82-201.83-167.22-248.83-27.78-16.04-54.05-23.64-77.33-23.64h0Z"/></g><path class="cls-11" d="m567.4,528.26l-52.2,30.34c19.83-11.53,32.13-36.03,32.23-70.87.19-65.33-42.6-143.93-97.8-182.85l52.2-30.34c55.2,38.92,97.98,117.52,97.8,182.85-.1,34.83-12.4,59.34-32.23,70.87Z"/><path class="cls-25" d="m334.61,25.72C286.72-1.93,243.33-4.5,211.99,13.71l-52.2,30.34c31.33-18.21,74.73-15.64,122.62,12.01,81.4,47,149.43,151.22,167.22,248.83l52.2-30.34c-17.79-97.6-85.82-201.83-167.22-248.83Z"/><path class="cls-1" d="m43.2,55.14c.39-.21.79-.4,1.19-.6.39-.2.77-.4,1.17-.59.4-.19.8-.36,1.21-.55.4-.18.8-.37,1.21-.55.4-.17.81-.33,1.22-.49.42-.17.83-.34,1.25-.5.41-.16.83-.3,1.25-.45.42-.15.84-.31,1.26-.45.43-.14.86-.27,1.3-.41.42-.13.84-.27,1.27-.4.44-.13.89-.24,1.33-.36.43-.12.85-.24,1.28-.35.45-.11.9-.21,1.35-.31.43-.1.87-.21,1.3-.3.45-.1.92-.17,1.37-.26.44-.08.88-.18,1.33-.25.46-.08.93-.14,1.39-.21.45-.07.9-.14,1.36-.2.47-.06.94-.11,1.42-.16.46-.05.91-.11,1.37-.15.48-.05.97-.07,1.46-.11.46-.03.91-.08,1.37-.1.49-.03,1-.04,1.5-.06.46-.02.92-.04,1.38-.05.5-.01,1,0,1.5,0,.47,0,.94-.01,1.41,0,.5,0,1.01.03,1.52.04.48.01.95.02,1.43.04.51.02,1.03.06,1.55.1.48.03.96.05,1.44.09.53.04,1.06.1,1.59.15.48.05.96.08,1.44.14.52.06,1.05.13,1.58.2.5.06.99.12,1.49.19.52.08,1.05.17,1.57.25.51.08,1.02.16,1.53.25.53.09,1.07.21,1.61.31.51.1,1.01.19,1.53.29.55.11,1.11.25,1.66.37.5.11,1,.22,1.51.34.57.14,1.14.29,1.7.43.5.13,1,.25,1.5.38.56.15,1.12.32,1.69.48.52.15,1.03.29,1.55.44.58.17,1.17.37,1.75.55.5.16,1.01.31,1.51.48.59.2,1.19.41,1.79.62.5.17,1,.34,1.51.52.59.21,1.18.44,1.77.66.52.19,1.03.38,1.55.58.61.24,1.22.49,1.84.74.5.2,1.01.4,1.51.61.58.24,1.17.5,1.75.76.54.23,1.08.46,1.63.7.57.25,1.14.53,1.71.79.56.26,1.12.51,1.68.78.7.34,1.41.69,2.12,1.04.43.22.87.42,1.3.64.67.34,1.35.7,2.02,1.05.48.25.95.49,1.42.74.45.24.91.5,1.36.75.7.38,1.4.76,2.11,1.16h0c6.94-8.73,15.11-15.79,24.3-21.07-.12.07-.23.13-.35.19l22.02-12.8c-34.58-17.69-65.74-18.52-88.69-5.18l-52.2,30.34c.37-.22.76-.42,1.13-.63.38-.21.76-.43,1.14-.63Z"/></g></g></symbol><linearGradient id="linear-gradient" x1="565.79" y1="1496.08" x2="677.1" y2="1424.52" gradientUnits="userSpaceOnUse"><stop offset="0" stop-color="#c2ebe8" stop-opacity=".1"/><stop offset=".15" stop-color="#9cd6d1" stop-opacity=".16"/><stop offset=".53" stop-color="#59afa8" stop-opacity=".26"/><stop offset=".87" stop-color="#43a39b" stop-opacity=".3"/></linearGradient><linearGradient id="linear-gradient-2" x1="972.48" y1="796.26" x2="1112.95" y2="780.36" gradientUnits="userSpaceOnUse"><stop offset="0" stop-color="#c2ebe8" stop-opacity=".1"/><stop offset="1" stop-color="#43a39b" stop-opacity=".3"/></linearGradient><linearGradient id="linear-gradient-3" x1="1050.95" y1="781.42" x2="1031.07" y2="524.34" xlink:href="#linear-gradient"/><linearGradient id="linear-gradient-4" x1="539.46" y1="1138.97" x2="437.82" y2="1149.4" gradientUnits="userSpaceOnUse"><stop offset="0" stop-color="#c2ebe8" stop-opacity=".1"/><stop offset="1" stop-color="#43a39b" stop-opacity=".3"/></linearGradient><filter id="AI_DesenfoqueGaussiano_15"><feGaussianBlur stdDeviation="15"/></filter><linearGradient id="Nueva_muestra_de_degradado_60" x1="10623.74" y1="-6006.38" x2="11561.1" y2="-5378.15" gradientTransform="translate(-8193.58 5635.69) scale(.82)" gradientUnits="userSpaceOnUse"><stop offset="0" stop-color="#fff"/><stop offset=".51" stop-color="#eef7fb"/><stop offset=".63" stop-color="#e2f2f8"/><stop offset=".8" stop-color="#d7edf6"/><stop offset=".99" stop-color="#d4ecf6"/></linearGradient><linearGradient id="Nueva_muestra_de_degradado_60-2" x1="11113.35" y1="-6021.11" x2="12157.07" y2="-5083.75" xlink:href="#Nueva_muestra_de_degradado_60"/><linearGradient id="Nueva_muestra_de_degradado_60-3" x1="11663.96" y1="-5262.39" x2="12169.2" y2="-4703.96" xlink:href="#Nueva_muestra_de_degradado_60"/><linearGradient id="Nueva_muestra_de_degradado_60-4" x1="11561.8" y1="-5873.29" x2="11571.86" y2="-3573.07" xlink:href="#Nueva_muestra_de_degradado_60"/><linearGradient id="Degradado_sin_nombre_203" x1="1717.23" y1="1597.25" x2="1688.81" y2="1927.25" gradientUnits="userSpaceOnUse"><stop offset="0" stop-color="#0071b0"/><stop offset=".37" stop-color="#0e89c6"/><stop offset=".73" stop-color="#199ad6"/><stop offset="1" stop-color="#1da1dc"/></linearGradient><linearGradient id="Degradado_sin_nombre_202" x1="1772.93" y1="1439.94" x2="1948.47" y2="1331.77" gradientUnits="userSpaceOnUse"><stop offset="0" stop-color="#0071b0"/><stop offset=".1" stop-color="#0479b7"/><stop offset=".42" stop-color="#128fcb"/><stop offset=".72" stop-color="#1a9cd7"/><stop offset="1" stop-color="#1da1dc"/></linearGradient><linearGradient id="Degradado_sin_nombre_201" x1="1498.76" y1="1765.76" x2="1651.85" y2="1454.55" gradientUnits="userSpaceOnUse"><stop offset="0" stop-color="#0071b0"/><stop offset=".29" stop-color="#0172b1"/><stop offset=".39" stop-color="#0579b7"/><stop offset=".46" stop-color="#0c85c2"/><stop offset=".52" stop-color="#1696d2"/><stop offset=".55" stop-color="#1da1dc"/><stop offset=".98" stop-color="#1da1dc"/><stop offset="1" stop-color="#1da1dc"/></linearGradient><linearGradient id="Degradado_sin_nombre_201-2" x1="1697.86" y1="1386.43" x2="1805.61" y2="1185.22" xlink:href="#Degradado_sin_nombre_201"/></defs><g id="Plant"><path class="cls-4" d="m712.06,1549.61c-30.93-8.6-60.97-20.15-88.97-33.48-46.95-22.36-90.2-53.29-127.71-89.31-19.27-18.51-35.35-40.99-42.98-66.6-5-16.79-5.7-36.61,5.38-50.18,10.19-12.48,28.39-16.42,44.04-12.62,15.66,3.8,28.99,14.17,39.81,26.1,10.82,11.93,19.59,25.56,29.58,38.2,31.73,40.13,75.28,69.44,120.95,92.49,45.67,23.05,93.96,40.41,140.84,60.9,12.84,5.61,37.52,15.76,39.22,32.38,1.94,18.96-25.62,17.8-37.73,18.19-40.59,1.3-82.25-4.9-122.43-16.08Z"/><path class="cls-3" d="m712.06,1549.61c-30.93-8.6-60.97-20.15-88.97-33.48-46.95-22.36-90.2-53.29-127.71-89.31-19.27-18.51-35.35-40.99-42.98-66.6-5-16.79-5.7-36.61,5.38-50.18,10.19-12.48,28.39-16.42,44.04-12.62,15.66,3.8,28.99,14.17,39.81,26.1,10.82,11.93,19.59,25.56,29.58,38.2,31.73,40.13,75.28,69.44,120.95,92.49,45.67,23.05,93.96,40.41,140.84,60.9,12.84,5.61,37.52,15.76,39.22,32.38,1.94,18.96-25.62,17.8-37.73,18.19-40.59,1.3-82.25-4.9-122.43-16.08Z"/><path class="cls-23" d="m499.76,1347.46c92.54,95.78,223.91,152.73,356.46,154.32,0,0-.75,19.99-.75,19.99-135.68-8.4-266.6-72.48-355.71-174.3h0Z"/><path class="cls-28" d="m782.27,1330.93c-63.14-26.05-96.25-66.05-137.44-120.53-41.19-54.48-70.75-116.95-94.49-180.99-42.78-115.41-67.57-239.83-52.04-361.93,15.53-122.1,74.88-241.7,174.96-313.34,58.42-41.82,132.06-66.36,202.81-53.91s135.73,67.15,147.89,137.95c12.87,74.93-31.4,146.03-65.56,213.95-77.52,154.12-109.36,330.87-90.48,502.35,4.21,38.28,10.79,77.82-.49,114.64-11.27,36.82-47.45,69.59-85.16,61.81Z"/><path class="cls-14" d="m782.27,1330.93c-63.14-26.05-96.25-66.05-137.44-120.53-41.19-54.48-70.75-116.95-94.49-180.99-42.78-115.41-67.57-239.83-52.04-361.93,15.53-122.1,74.88-241.7,174.96-313.34,58.42-41.82,132.06-66.36,202.81-53.91s135.73,67.15,147.89,137.95c12.87,74.93-31.4,146.03-65.56,213.95-77.52,154.12-109.36,330.87-90.48,502.35,4.21,38.28,10.79,77.82-.49,114.64-11.27,36.82-47.45,69.59-85.16,61.81Z"/><path class="cls-23" d="m886.8,385.47c-127.58,99.78-189.83,261.95-203.4,419.54-13.58,160.19,16.64,318.46,46.48,475.61,0,0-46.37,7.67-46.37,7.67-11.21-79.84-22.46-160.28-28.29-241.51-5.83-81.26-6.11-163.42,4.82-244.35,21.59-159.49,92.36-321.89,226.75-416.96h0Z"/><path class="cls-4" d="m800.93,1240.12c-5.26-18.32-3.59-36.8-4.4-55.95-1.03-24.4-1.19-48.84-.27-73.24,1.8-48.14,7.78-96.2,19.33-143,21.88-88.71,64.63-173.47,130.01-237.29,65.39-63.81,154.4-105.26,245.77-105.01,33.91.09,68.85,6.22,97.13,24.93,28.28,18.71,48.58,51.85,45.15,85.59-4.2,41.23-41.46,72.12-80.57,85.84-39.11,13.72-81.4,14.9-121.86,23.89-70.82,15.74-135.86,56.37-181.07,113.11-45.21,56.74-70.29,129.21-69.82,201.76.17,25.71,3.22,52.61-7.17,76.13-5.78,13.08-19.12,25.01-32.28,30.27-17.86,7.14-30.72-2.86-37.4-19.59-.99-2.48-1.83-4.96-2.54-7.44Z"/><path class="cls-16" d="m800.93,1240.12c-5.26-18.32-3.59-36.8-4.4-55.95-1.03-24.4-1.19-48.84-.27-73.24,1.8-48.14,7.78-96.2,19.33-143,21.88-88.71,64.63-173.47,130.01-237.29,65.39-63.81,154.4-105.26,245.77-105.01,33.91.09,68.85,6.22,97.13,24.93,28.28,18.71,48.58,51.85,45.15,85.59-4.2,41.23-41.46,72.12-80.57,85.84-39.11,13.72-81.4,14.9-121.86,23.89-70.82,15.74-135.86,56.37-181.07,113.11-45.21,56.74-70.29,129.21-69.82,201.76.17,25.71,3.22,52.61-7.17,76.13-5.78,13.08-19.12,25.01-32.28,30.27-17.86,7.14-30.72-2.86-37.4-19.59-.99-2.48-1.83-4.96-2.54-7.44Z"/><path class="cls-23" d="m1232.22,736.74c-73-10.5-150.21-2.89-216.71,30.29-1.42.65-4.11,2.03-5.46,2.8-3.31,1.79-7.56,4.1-10.76,5.89-19.32,11.27-37.48,25.06-54.06,40.06-3.11,3.06-10.25,9.79-13.15,12.84-3.82,4.16-8.83,9.21-12.46,13.5-24.16,27.57-44.43,58.83-60.65,91.67-23.76,47.56-39.07,99.01-50.07,150.9-4.98,23.98-9.22,48.5-12.75,72.74-4.78,32.53-8.6,65.27-12.42,98.09l-19.84-2.56c7.25-51.19,14.65-102.73,25.61-153.41,12.4-57,29.62-113.42,56.22-165.51,5.57-10.61,12.12-22.57,18.45-32.77,10.95-17.74,23.12-34.92,36.53-50.89,3.58-4.59,10.65-12.04,14.51-16.46,1.41-1.45,5.15-5.21,6.6-6.7.75-.74,4.82-4.91,5.5-5.58.79-.75,2.66-2.44,3.46-3.19,24.22-22.82,52.1-42.43,82.27-56.5,67.88-31.77,145.85-37.67,219.16-25.23h0Z"/><path class="cls-4" d="m723.28,1505.64c-47.92-16.59-89.03-48.73-124.69-84.79-134.75-136.22-199.8-338.08-169.94-527.35,6.07-38.45,16.25-77.33,38.96-108.94s60.03-54.9,98.86-52.14c29.31,2.08,56.21,18.61,75.94,40.38s33.09,48.51,44.55,75.57c73.51,173.64,76.94,370.09,145.86,545.6,9.27,23.6,19.82,46.61,30.39,69.65,7.88,17.16,9.64,30.34-9.05,40-38.87,20.08-90.91,15.88-130.89,2.03Z"/><path class="cls-26" d="m723.28,1505.64c-47.92-16.59-89.03-48.73-124.69-84.79-134.75-136.22-199.8-338.08-169.94-527.35,6.07-38.45,16.25-77.33,38.96-108.94s60.03-54.9,98.86-52.14c29.31,2.08,56.21,18.61,75.94,40.38s33.09,48.51,44.55,75.57c73.51,173.64,76.94,370.09,145.86,545.6,9.27,23.6,19.82,46.61,30.39,69.65,7.88,17.16,9.64,30.34-9.05,40-38.87,20.08-90.91,15.88-130.89,2.03Z"/><path class="cls-23" d="m775.65,1389.2c-164.29-117.67-255.59-325.57-229.79-524.62-13.71,195.35,85.07,392.04,249.57,495.74,0,0-19.78,28.88-19.78,28.88h0Z"/></g><g id="Cloud-2"><g class="cls-31"><path class="cls-27" d="m1679.11,2145.61l-866.56-499.88c-21.85-12.61-19.11-34.64,6.12-49.21h0c25.23-14.56,63.39-16.15,85.23-3.53l866.56,499.88c21.85,12.61,19.11,34.64-6.12,49.21h0c-25.23,14.56-63.39,16.15-85.23,3.53Z"/></g><use width="601.25" height="566.93" transform="translate(676.95 938.34) scale(2.06)" xlink:href="#cloud"/><path class="cls-7" d="m1232.7,1376.78c1.35-3.79,2.07-8.27,2.07-13.35,0-25.12-17.76-55.74-39.67-68.39-21.91-12.65-39.67-2.54-39.67,22.57,0,5.09.73,10.4,2.07,15.75l-84.63,55.18c-3.98-3.83-8.23-7.12-12.66-9.67-21.91-12.65-39.67-2.54-39.67,22.57,0,25.12,17.76,55.74,39.67,68.39,8.95,5.16,17.2,6.54,23.84,4.64l71.71,110.37c-.21,1.79-.32,3.67-.32,5.65,0,25.12,17.76,55.74,39.67,68.39,21.91,12.65,39.67,2.54,39.67-22.57,0-1.98-.11-3.99-.32-6.03l71.71-27.57c6.64,9.56,14.89,17.72,23.84,22.88,21.91,12.65,39.67,2.54,39.67-22.57,0-25.12-17.76-55.74-39.67-68.39-4.43-2.56-8.68-4.18-12.66-4.94l-84.63-152.9Zm57.77,184.46c-.1-1.36-.15-2.71-.15-4.04,0-6.66,1.25-12.26,3.49-16.67l-82.55-149.14-.29-.02v189.49c2.41,2.6,4.69,5.39,6.82,8.32l72.67-27.95Zm-194.08-134.69l82.55-53.82.29.32v189.49c-2.41-.18-4.69-.03-6.82.45l-72.67-111.86c.1-1.25.15-2.54.15-3.87,0-6.66-1.25-13.71-3.49-20.7Z"/><g id="CloudBright"><path class="cls-19" d="m758.8,1050.91l108.18-62.87c50.39-29.28,119.88-25.64,196.69,17.66l-108.18,62.87c-102.13,13.54-162.7-10.13-196.69-17.66Z"/><path class="cls-12" d="m1367.4,987.33c-99.25-57.3-189.17-62.62-254.1-24.89l-108.18,62.87c64.93-37.74,563.02,347.97,599.88,550.23l108.92-72.57c-36.86-202.27-177.84-418.25-346.52-515.64Z"/><path class="cls-5" d="m1849.8,2028.75l-108.18,62.87c41.1-23.89-21.49-445.12-135.88-525.78l108.18-62.87c114.39,80.66,203.05,243.55,202.67,378.92-.2,72.18-25.69,122.97-66.79,146.86Z"/><path class="cls-21" d="m955.48,1068.57c-153.74-86.68-278.21-14.44-278.72,162.71-.51,178.47,124.99,395.81,280.29,485.48l621.63,358.9c126.46,73.01,229.31,14.4,229.72-130.9.38-135.37-88.28-298.26-202.67-378.92-36.86-202.27-177.84-418.25-346.52-515.64-127.91-73.85-240.34-61.36-303.74,18.37Z"/><g class="cls-29"><path class="cls-13" d="m1098.98,1005.21c23.98,0,49.37,3.99,75.47,11.86,26.94,8.12,54.79,20.44,82.78,36.59,40.96,23.65,81.1,54.8,119.31,92.59,36.97,36.56,71.3,78.5,102.05,124.65,30.48,45.74,56.55,94.28,77.49,144.27,21.31,50.86,36.69,101.79,45.73,151.38l.29,1.61,1.34.94c55.11,38.86,105.95,98.37,143.16,167.57,37.47,69.68,58,143.57,57.82,208.07-.14,48.8-12.09,89.34-34.57,117.24-21.65,26.87-52.22,41.08-88.4,41.08-31.37,0-65.26-10.39-100.75-30.87l-621.63-358.9c-37.62-21.72-74.12-51.28-108.47-87.86-33.23-35.38-63.05-75.8-88.64-120.11-25.59-44.32-45.64-90.3-59.61-136.66-14.44-47.92-21.7-94.14-21.57-137.37.17-60.14,14.92-110.13,42.65-144.57,26.76-33.23,64.55-50.8,109.29-50.79,18.32,0,37.7,2.98,57.62,8.84,20.56,6.06,41.83,15.23,63.19,27.28l2.97,1.68,2.12-2.67c34.25-43.08,82.79-65.85,140.37-65.85m0-4c-58.94,0-108.63,23.51-143.5,67.36-44.07-24.84-85.75-36.63-122.78-36.64-92.16-.01-155.58,72.97-155.94,199.35-.51,178.47,124.99,395.81,280.29,485.48l621.63,358.9c36.91,21.31,71.82,31.41,102.75,31.41,75.04,0,126.68-59.42,126.98-162.31.38-135.37-88.28-298.26-202.67-378.92-36.86-202.27-177.84-418.25-346.52-515.64-57.57-33.24-112-48.99-160.24-48.99h0Z"/></g><g class="cls-32"><path class="cls-13" d="m1098.98,1015.21c23,0,47.42,3.85,72.58,11.43,26.21,7.9,53.34,19.91,80.66,35.68,40.22,23.22,79.68,53.85,117.28,91.04,36.49,36.09,70.39,77.5,100.77,123.09,30.13,45.21,55.9,93.19,76.59,142.59,21.03,50.19,36.21,100.43,45.11,149.31l1.03,5.63,4.68,3.3c53.86,37.98,103.62,96.27,140.11,164.13,36.69,68.24,56.8,140.44,56.63,203.31-.13,46.5-11.32,84.88-32.36,111-19.69,24.44-47.56,37.35-80.62,37.35-29.17,0-62.28-10.21-95.75-29.54l-621.63-358.9c-36.77-21.23-72.5-50.18-106.18-86.05-32.7-34.82-62.07-74.61-87.27-118.27-25.2-43.65-44.95-88.92-58.69-134.54-14.15-46.98-21.27-92.22-21.15-134.46.16-57.84,14.15-105.67,40.44-138.32,24.8-30.79,59.89-47.07,101.5-47.07,17.36,0,35.8,2.84,54.8,8.43,19.84,5.84,40.4,14.72,61.11,26.4l10.4,5.86,7.43-9.35c32.29-40.61,78.12-62.08,132.54-62.08m0-14c-58.94,0-108.63,23.51-143.5,67.36-44.07-24.84-85.75-36.63-122.78-36.64-92.16-.01-155.58,72.97-155.94,199.35-.51,178.47,124.99,395.81,280.29,485.48l621.63,358.9c36.91,21.31,71.82,31.41,102.75,31.41,75.04,0,126.68-59.42,126.98-162.31.38-135.37-88.28-298.26-202.67-378.92-36.86-202.27-177.84-418.25-346.52-515.64-57.57-33.24-112-48.99-160.24-48.99h0Z"/></g><path class="cls-22" d="m1353.29,1575.37l-138.07-266.89c-5.07-9.95-12.6-18.31-20.47-22.85-7.87-4.55-15.4-4.88-20.65-.89l-137.2,107.96c-5.95,4.59-8.75,13.6-7.87,24.54.87,11.14,5.42,23.19,12.77,34.06l129.68,192.43c7,10.26,15.22,18.22,23.62,23.07,8.4,4.85,16.62,6.39,23.62,4.21l129.67-42.69c7.35-2.38,11.72-9.28,12.77-19.31.87-9.93-1.93-22.18-7.88-33.64Zm-158.55-244.6l26.25,50.46c-10.67-3.35-20.3-2.29-27.47,3.4l-79.63,62.76c-1.92,1.5-2.8,4.4-2.45,7.81,0,.4.18.9.35,1.21.18,1.3.53,2.71.88,4.12.35.8.88,1.71,1.23,2.51.52.9.87,1.91,1.4,2.81l61.95,91.94-7,2.18c-5.42,1.88-11.9.35-18.37-2.38-3.15-1.82-6.83-4.74-10.33-8.97l-78.22-115.38,131.43-102.46Zm.52,221.58l-57.23-84.8,57.05-44.7,57.4,110.98-57.05,18.62-.18-.1Zm1.75,74.63c-1.23.3-2.8-.61-3.85-2.22l-24.32-35.91c5.42.72,10.5.45,15.22-1.04l90.47-29.81c1.22-.3,2.1-1.19,2.8-2.19.7-1,1.05-2.4,1.22-3.91v-1.6c0-1,0-2.21-.35-3.41-.18-.9-.7-1.81-.88-2.51-.35-1-.52-1.71-.87-2.71l-67.02-129.77,1.22-.9c5.42-4.09,13.12-3.86,21.52.59,2.45,1.41,7,5.25,11.37,13.39.35.6.7.81,1.05,1.21l82.6,158.63-129.67,42.69-.52-.5Z"/></g></g><g id="Plus"><g id="_Blue"><g class="cls-30"><path class="cls-17" d="m1725.17,1809.23l-.54-189.67-38.39-22.31.54,189.67c.01,4.35,1.55,7.42,4.03,8.86l38.39,22.31c-2.48-1.44-4.02-4.5-4.03-8.86Z"/><path class="cls-24" d="m1980.01,1295.11c-2.51-1.46-5.99-1.26-9.83.96l-165.06,95.3,38.39,22.31,165.06-95.3c3.84-2.22,7.32-2.42,9.83-.96l-38.39-22.31Z"/><path class="cls-2" d="m1685.85,1460.22l-165.06,95.3c-7.63,4.41-13.79,15.09-13.77,23.86l.3,105.28c.01,4.35,1.55,7.42,4.03,8.86l38.39,22.31c-2.48-1.44-4.02-4.51-4.03-8.86l-.3-105.28c-.02-8.77,6.14-19.45,13.77-23.86l165.06-95.3-38.39-22.31Z"/><path class="cls-10" d="m1829.11,1216.11c7.62-4.4,13.83-.87,13.86,7.9l.54,189.67,165.06-95.3c7.63-4.41,13.84-.87,13.87,7.9l.3,105.28c.02,8.76-6.15,19.45-13.78,23.85l-165.06,95.3.54,189.67c.02,8.77-6.15,19.45-13.77,23.85l-91.62,52.9c-7.63,4.41-13.84.88-13.87-7.89l-.54-189.67-165.06,95.3c-7.63,4.41-13.83.86-13.86-7.9l-.3-105.28c-.02-8.77,6.14-19.45,13.77-23.86l165.06-95.3-.54-189.67c-.02-8.77,6.15-19.45,13.78-23.85l91.62-52.9Z"/><path class="cls-8" d="m1800.54,1192.84c-2.51-1.46-5.99-1.25-9.83.96l-91.62,52.9c-7.63,4.41-13.8,15.08-13.78,23.85l.54,189.67,38.39,22.31-.54-189.67c-.02-8.77,6.15-19.45,13.78-23.85l91.62-52.9c3.84-2.22,7.32-2.42,9.83-.96l-38.39-22.31Z"/></g></g></g></svg>