<svg xmlns="http://www.w3.org/2000/svg" xmlns:xlink="http://www.w3.org/1999/xlink" viewBox="0 0 2500 2500"><defs><style>.cls-1{fill:none;}.cls-2{isolation:isolate;}.cls-3{clip-path:url(#clip-path);}.cls-4{fill:#1f82b9;}.cls-5{fill:#39c2ec;}.cls-6{fill:url(#Nueva_muestra_de_degradado_80);}.cls-7{fill:#90e5ff;}.cls-8{fill:url(#Nueva_muestra_de_degradado_80-2);}.cls-9{fill:url(#Degradado_sin_nombre_7);}.cls-10{fill:url(#Nueva_muestra_de_degradado_80-3);}.cls-11{fill:url(#Nueva_muestra_de_degradado_80-4);}.cls-12{fill:url(#Degradado_sin_nombre_5);}.cls-13{mix-blend-mode:hard-light;}.cls-14{fill:url(#Degradado_sin_nombre_99);}.cls-15{filter:url(#AI_DesenfoqueGaussiano_4);}.cls-16{fill:url(#Degradado_sin_nombre_4);}.cls-17{fill:url(#Degradado_sin_nombre_6);}.cls-18{fill:url(#Nueva_muestra_de_degradado_11);}.cls-19{fill:#fafbfc;}.cls-20,.cls-30{fill:#fff;}.cls-21{fill:#d4ecf6;}.cls-22{opacity:0.81;}.cls-23{fill:url(#Degradado_sin_nombre_142);}.cls-24{fill:url(#Degradado_sin_nombre_42);}.cls-25{fill:url(#Degradado_sin_nombre_150);}.cls-26{opacity:0.55;}.cls-27{fill:#ace5f7;}.cls-28{opacity:0.5;}.cls-29{fill:#94def5;}.cls-30{fill-rule:evenodd;}.cls-31{mix-blend-mode:multiply;fill:url(#Nueva_muestra_de_degradado_42);}.cls-32{fill:url(#Degradado_sin_nombre_11);}.cls-33{fill:url(#Degradado_sin_nombre_10);}.cls-34{fill:url(#Degradado_sin_nombre_2);}.cls-35{fill:#4dd2d2;}.cls-36{fill:url(#Degradado_sin_nombre_2-2);}</style><clipPath id="clip-path"><polygon id="SVGID" class="cls-1" points="1136.69 189.34 1056.51 947.98 1186.93 1593.61 651.28 1571.8 119.26 1233.73 264.61 636.94 640.15 140.35 1136.69 189.34"/></clipPath><linearGradient id="Nueva_muestra_de_degradado_80" x1="2337.85" y1="1263.74" x2="2629.76" y2="889.83" gradientTransform="matrix(-0.95, 0.3, 0.3, 0.95, 3066.43, -137.47)" gradientUnits="userSpaceOnUse"><stop offset="0" stop-color="#90e5ff" stop-opacity="0.1"/><stop offset="0.06" stop-color="#44a2d0" stop-opacity="0.1"/><stop offset="0.15" stop-color="#1f82b9" stop-opacity="0.1"/><stop offset="0.87" stop-color="#141226" stop-opacity="0.3"/></linearGradient><linearGradient id="Nueva_muestra_de_degradado_80-2" x1="2158.12" y1="655.46" x2="2259.8" y2="921.13" xlink:href="#Nueva_muestra_de_degradado_80"/><linearGradient id="Degradado_sin_nombre_7" x1="2786.68" y1="57.28" x2="2294.13" y2="279.56" gradientTransform="matrix(-0.95, 0.3, 0.3, 0.95, 3066.43, -137.47)" gradientUnits="userSpaceOnUse"><stop offset="0" stop-color="#90e5ff" stop-opacity="0.1"/><stop offset="0.19" stop-color="#44a2d0" stop-opacity="0.1"/><stop offset="0.45" stop-color="#1f82b9" stop-opacity="0.1"/><stop offset="1" stop-color="#141226" stop-opacity="0.3"/></linearGradient><linearGradient id="Nueva_muestra_de_degradado_80-3" x1="2391.27" y1="-4.08" x2="2142" y2="110.72" xlink:href="#Nueva_muestra_de_degradado_80"/><linearGradient id="Nueva_muestra_de_degradado_80-4" x1="-938.53" y1="1522.54" x2="-778.35" y2="1348.69" gradientTransform="translate(1731.28)" xlink:href="#Nueva_muestra_de_degradado_80"/><linearGradient id="Degradado_sin_nombre_5" x1="2794.15" y1="613.01" x2="2436.64" y2="668.77" gradientTransform="matrix(-0.95, 0.3, 0.3, 0.95, 3066.43, -137.47)" gradientUnits="userSpaceOnUse"><stop offset="0" stop-color="#90e5ff" stop-opacity="0.1"/><stop offset="0.16" stop-color="#44a2d0" stop-opacity="0.1"/><stop offset="0.4" stop-color="#1f82b9" stop-opacity="0.1"/><stop offset="0.87" stop-color="#141226" stop-opacity="0.3"/></linearGradient><linearGradient id="Degradado_sin_nombre_99" x1="-27.6" y1="894.4" x2="1685.93" y2="1154.98" gradientUnits="userSpaceOnUse"><stop offset="0.29" stop-color="#90e5ff" stop-opacity="0.2"/><stop offset="0.32" stop-color="#77cff0" stop-opacity="0.18"/><stop offset="0.45" stop-color="#1f82b9" stop-opacity="0.1"/><stop offset="0.59" stop-color="#141226" stop-opacity="0.6"/></linearGradient><filter id="AI_DesenfoqueGaussiano_4" name="AI_DesenfoqueGaussiano_4"><feGaussianBlur stdDeviation="4"/></filter><linearGradient id="Degradado_sin_nombre_4" x1="356.19" y1="1671.85" x2="524.5" y2="2001.45" gradientTransform="matrix(-1, 0, 0, 1, 1797.27, 0)" gradientUnits="userSpaceOnUse"><stop offset="0.09" stop-color="#141226" stop-opacity="0"/><stop offset="0.35" stop-color="#141226" stop-opacity="0.05"/><stop offset="0.87" stop-color="#141226" stop-opacity="0.2"/><stop offset="1" stop-color="#141226" stop-opacity="0"/></linearGradient><linearGradient id="Degradado_sin_nombre_6" x1="300.15" y1="949.03" x2="904.5" y2="-205.65" gradientTransform="matrix(-1, 0, 0, 1, 1797.27, 0)" gradientUnits="userSpaceOnUse"><stop offset="0" stop-color="#7d7c93"/><stop offset="0.02" stop-color="#61607c"/><stop offset="0.05" stop-color="#484667"/><stop offset="0.09" stop-color="#363357"/><stop offset="0.12" stop-color="#2b284e"/><stop offset="0.15" stop-color="#27244b"/><stop offset="0.54" stop-color="#141226"/></linearGradient><linearGradient id="Nueva_muestra_de_degradado_11" x1="378.38" y1="782.84" x2="303.18" y2="660.89" gradientTransform="matrix(-1, 0, 0, 1, 1797.27, 0)" gradientUnits="userSpaceOnUse"><stop offset="0" stop-color="#fafbfc"/><stop offset="0.55" stop-color="#f5f8fa"/><stop offset="0.99" stop-color="#e6f4fa"/><stop offset="0.99" stop-color="#d4ecf6" stop-opacity="0.9"/></linearGradient><linearGradient id="Degradado_sin_nombre_142" x1="1608.28" y1="662.31" x2="1360.92" y2="2047.53" gradientUnits="userSpaceOnUse"><stop offset="0" stop-color="#0071b0" stop-opacity="0.2"/><stop offset="0.38" stop-color="#0071b0" stop-opacity="0.4"/><stop offset="0.95" stop-color="#0071b0" stop-opacity="0"/><stop offset="1" stop-color="#0071b0" stop-opacity="0"/></linearGradient><linearGradient id="Degradado_sin_nombre_42" x1="914.1" y1="1687.13" x2="339.21" y2="683.03" gradientTransform="matrix(-1, 0, 0, 1, 1797.27, 0)" gradientUnits="userSpaceOnUse"><stop offset="0" stop-color="#1da1dc" stop-opacity="0.2"/><stop offset="0.03" stop-color="#1da1dc" stop-opacity="0.05"/><stop offset="0.17" stop-color="#1da1dc" stop-opacity="0"/><stop offset="0.25" stop-color="#fff" stop-opacity="0"/><stop offset="0.33" stop-color="#fff" stop-opacity="0"/><stop offset="0.82" stop-color="#fff" stop-opacity="0"/><stop offset="0.99" stop-color="#1da1dc" stop-opacity="0"/></linearGradient><linearGradient id="Degradado_sin_nombre_150" x1="985.3" y1="1811.51" x2="410.42" y2="807.4" gradientTransform="matrix(-1, 0, 0, 1, 1797.27, 0)" gradientUnits="userSpaceOnUse"><stop offset="0.15" stop-color="#1da1dc" stop-opacity="0.06"/><stop offset="0.16" stop-color="#fff" stop-opacity="0.12"/><stop offset="0.17" stop-color="#e9f6fc" stop-opacity="0.11"/><stop offset="0.18" stop-color="#a2d8f1" stop-opacity="0.1"/><stop offset="0.19" stop-color="#2ba7de" stop-opacity="0.06"/><stop offset="0.19" stop-color="#1da1dc" stop-opacity="0.06"/><stop offset="0.24" stop-color="#1da1dc" stop-opacity="0.1"/><stop offset="0.39" stop-color="#fff" stop-opacity="0.03"/><stop offset="0.51" stop-color="#fff" stop-opacity="0.01"/><stop offset="0.82" stop-color="#fff" stop-opacity="0"/><stop offset="0.99" stop-color="#1da1dc" stop-opacity="0.05"/></linearGradient><linearGradient id="Nueva_muestra_de_degradado_42" x1="1335.99" y1="920.04" x2="1465.4" y2="1170.77" gradientUnits="userSpaceOnUse"><stop offset="0" stop-color="#d4ecf6" stop-opacity="0.1"/><stop offset="0.04" stop-color="#b5cede" stop-opacity="0.1"/><stop offset="0.15" stop-color="#90aac1" stop-opacity="0.1"/><stop offset="0.87" stop-color="#5d7586" stop-opacity="0.3"/></linearGradient><linearGradient id="Degradado_sin_nombre_11" x1="1649.65" y1="1242.72" x2="1631.39" y2="1454.74" gradientTransform="matrix(-1, 0, 0, 1, 3127.36, 0)" gradientUnits="userSpaceOnUse"><stop offset="0.01" stop-color="#0088a1"/><stop offset="0.22" stop-color="#0693a9"/><stop offset="0.67" stop-color="#0fa5b6"/><stop offset="1" stop-color="#12abbb"/></linearGradient><linearGradient id="Degradado_sin_nombre_10" x1="1685.43" y1="1141.64" x2="1798.22" y2="1072.15" gradientTransform="matrix(-1, 0, 0, 1, 3127.36, 0)" gradientUnits="userSpaceOnUse"><stop offset="0.01" stop-color="#0088a1"/><stop offset="0.31" stop-color="#0999ae"/><stop offset="0.67" stop-color="#10a6b8"/><stop offset="1" stop-color="#12abbb"/></linearGradient><linearGradient id="Degradado_sin_nombre_2" x1="1509.29" y1="1350.99" x2="1607.64" y2="1151.03" gradientTransform="matrix(-1, 0, 0, 1, 3127.36, 0)" gradientUnits="userSpaceOnUse"><stop offset="0.01" stop-color="#0088a1"/><stop offset="0.31" stop-color="#018aa2"/><stop offset="0.41" stop-color="#0491a7"/><stop offset="0.49" stop-color="#0b9cb0"/><stop offset="0.55" stop-color="#12abbb"/><stop offset="0.98" stop-color="#12abbb"/><stop offset="1" stop-color="#12abbb"/></linearGradient><linearGradient id="Degradado_sin_nombre_2-2" x1="1637.2" y1="1107.26" x2="1706.43" y2="977.99" xlink:href="#Degradado_sin_nombre_2"/></defs><g class="cls-2"><g id="Artwork"><g id="plant_B" data-name="plant B"><g class="cls-3"><g id="Plant14"><path class="cls-4" d="M1115.56,1545.62q71.45-1.9,97.24-.86,12.15,22.17,28.49,51.25,3.46,6.12,6.66,12.18l.08.24q10.77,19.63,20.12,38.62c6.22-5.8,12.71-11.33,19.4-16.67q-8.17-16.29-17.32-33.05,11.82-54.55,5.42-136.81-5.82-74.46-15.81-106.06l-2.95-9.45-18.9,5.92,3,9.45q9.38,30.28,15,101.65,4.85,62-.89,107.39-12.65-22.22-22.28-39.71-15-27.62-22.54-43-27-53.17-41.23-98.61-2.61-8.37-6.73-29.8-2.67-14-6-33.14-9-51.42-15.13-70.73-1.73-5.58-6-16.55,40.88-32.11,82-109.18a713,713,0,0,0,41-89.58l3.37-9.1-18.5-6.92-3.38,9.1a694.6,694.6,0,0,1-39.89,87.17q-36.51,68.37-72.44,99.18-7-16.9-17.25-41l-.07-.23q-2.87-6.24-5.41-12.31l.07.23q-2.07-4.73-4-9.39-9.14-21.58-14.09-34.23-3.51-9.93-7.73-22.22a12.12,12.12,0,0,0-.16-8q-5.37-15.49-11.74-34.19l-.07-.24q-42-121-89.16-263.34l-3.93-11.74-23.47,7.86,3.93,11.74q47.18,142.47,89.23,263.58,2.52,7.45,5,14.27-18.82-2.74-58.16-4.37-56.58-2-99.05-11.53-67-14.43-134.8-51.19l-8.76-4.78-9.32,17.44,8.75,4.78q70.51,38.21,140.09,53.16l-.31-.16q44,9.87,102.56,12,50.57,2.11,64.63,6a19.92,19.92,0,0,0,2,.67,2.24,2.24,0,0,0,.54.87l-2.84.89,3.7,11.81q2.9,9.45,20.27,50.71l3.91,9.15c.09.14.19.2.31.16q2.52,6,5.4,12.31,14.26,33.76,22.19,53.49,5.82,14.58,7.91,21.13,5.73,18.46,14.4,67.59,1.74,10.32,3.33,18.92c-2.72-.23-5.59-.54-8.59-.94l.23-.07q-55.92-6.39-60.54-7A779,779,0,0,1,886.08,1293l-9.17-3.61-7.23,18.34,9.17,3.61a797.65,797.65,0,0,0,184.8,48.51q4.59.66,60.85,7.15,7.95,1,14.6,1.92,3.75,18.63,6.24,26.57,14.72,47.16,42.65,102.32,5.17,10.64,13.91,27-28.49-.52-86.29,1.07-101.65-3.27-177-35.92l-9-3.92-7.77,18.25,9,3.93q78.39,34.14,184.22,37.53A.9.9,0,0,0,1115.56,1545.62Z"/><path class="cls-5" d="M899.43,1439.53q128.45,129,247.79,315.78-214.86-17.26-261-141.44-48.51-130.06,13.2-174.34m0,0q14.16-10,34.17-15.62,107.24-29.84,163.47,47.67,105,143.87,50.15,283.73Q1027.87,1568.52,899.43,1439.53Z"/><path class="cls-5" d="M933.6,1423.91q107.24-29.84,163.47,47.67,105,143.87,50.15,283.73-119.35-186.78-247.79-315.78Q913.59,1429.51,933.6,1423.91Z"/><path class="cls-6" d="M899.43,1439.53q128.45,129,247.79,315.78-214.86-17.26-261-141.44Q837.72,1483.81,899.43,1439.53Z"/><path class="cls-7" d="M1074.39,1031.81q109.35,149.93,187.19,360.75-253.3-38.64-265-175.68-12.45-143.57,77.77-185.07m0,0q20.65-9.39,46.81-13.49,140.07-21.8,180.48,66.31,75.71,163.61-40.1,307.93Q1183.73,1181.74,1074.39,1031.81Z"/><path class="cls-8" d="M1121.2,1018.32q140.07-21.8,180.48,66.31,75.71,163.61-40.1,307.93-77.85-210.82-187.19-360.75Q1095,1022.44,1121.2,1018.32Z"/><path class="cls-7" d="M996.62,1216.88q-12.45-143.57,77.77-185.07,109.35,149.93,187.19,360.75Q1008.28,1353.92,996.62,1216.88Z"/><path class="cls-5" d="M557.13,497q37.46-15.59,82.8-7.24,113.67,21,218.27,168.74,41.58,58.31,28.13,210.08Q883.1,908,874.87,980.36q-5.45,58-.11,82.51Q702.86,872.84,557.13,497m-72.72,71.77q23.18-46.93,64.12-67.78,4.25-2.14,8.6-4,145.73,375.8,317.63,565.83-236,13.17-346.36-138Q391.86,757,484.41,568.81Z"/><path class="cls-5" d="M639.93,489.8q113.67,21,218.27,168.74,41.58,58.31,28.13,210.08Q883.1,908,874.87,980.36q-5.45,58-.11,82.5Q702.86,872.84,557.13,497,594.59,481.45,639.93,489.8Z"/><path class="cls-9" d="M484.41,568.81q23.18-46.93,64.12-67.78,4.25-2.14,8.6-4C506.8,565.45,717.05,883,874.76,1062.86q-236,13.19-346.36-138Q391.86,757,484.41,568.81Z"/><path class="cls-7" d="M793.2,318.69q80.7-19.57,192.34,101.81,169.85,184.35-4,433.26Q853.68,570.11,793.2,318.69m-75.82,58.55q33.69-48.32,75.82-58.55,60.48,251.42,188.31,535.07-161.86-31.47-246.6-182.92Q650.37,520,717.38,377.24Z"/><path class="cls-10" d="M717.38,377.24q33.69-48.32,75.82-58.55,60.48,251.42,188.31,535.07-161.86-31.47-246.6-182.92Q650.37,520,717.38,377.24Z"/><path class="cls-7" d="M793.2,318.69q80.7-19.57,192.34,101.81,169.85,184.35-4,433.26C879.83,680.37,828.27,491.31,793.2,318.69Z"/><path class="cls-7" d="M674.89,1385.38q175.23,51.9,348.74,151.66-261.39,66-336.76-12.59-79.17-82.23-12-139.07m0,0q15.45-12.95,38.63-24.64,124.34-62.52,204.4-23.61,149.33,72,105.71,199.91Q850.11,1437.29,674.89,1385.38Z"/><path class="cls-11" d="M674.89,1385.38q15.45-12.95,38.63-24.64,124.34-62.52,204.4-23.61,149.33,72,105.71,199.91Q850.11,1437.29,674.89,1385.38Z"/><path class="cls-7" d="M674.89,1385.38q175.23,51.9,348.74,151.66-261.39,66-336.76-12.59Q607.7,1442.22,674.89,1385.38Z"/><path id="_-" data-name="-" class="cls-5" d="M574.58,1163.49q187.21,54.69,383.68,165.73-246.36,87.1-339.79-2.58-98.09-93.84-43.89-163.15m0,0q12.48-15.78,33-30.38,110-78.06,199.07-35.19,165.93,79.29,151.62,231.3Q761.79,1218.19,574.58,1163.49Z"/><path class="cls-5" d="M574.58,1163.49q12.48-15.78,33-30.38,110-78.06,199.07-35.19,165.93,79.29,151.62,231.3Q761.79,1218.19,574.58,1163.49Z"/><path class="cls-12" d="M574.58,1163.49q187.21,54.69,383.68,165.73-246.36,87.1-339.79-2.58Q520.39,1232.8,574.58,1163.49Z"/><path class="cls-4" d="M797.55,331.73s99.51,473,158.07,517.7l15.3,2.12S889.35,707.29,797.55,331.73Z"/><path class="cls-4" d="M862.15,1056.56C807.66,1010.56,588,711,543.5,525c0,0,71.65,269,346.83,522.19"/><path class="cls-4" d="M959.08,1323.46s-184.93-120-384.5-154.23c0,0,156.81,28.1,383.68,165.73"/><path class="cls-4" d="M1007.49,1513.48c-76.13-40.2-192.06-102.58-314-121.23,0,0,101.78,16,321.17,143.1"/><g class="cls-13"><path class="cls-14" d="M1148,1753.36q21.9,15.35,51,35.54c3.21-5.8,6.64-11.47,10.17-17q-31.5-21.86-54.47-38,28.42-93.54-14.31-188.87,51.4-1.11,72.45-.26,12.15,22.17,28.49,51.25,3.46,6.12,6.66,12.18l.08.24q18.95,34.53,33.51,67.06c5.74-7.18,11.55-14.3,17.53-21.29q-12.93-27.75-28.84-56.87,11.82-54.55,5.42-136.81-3.54-45.42-8.65-74.87,108.55-141.33,34.68-301a117.91,117.91,0,0,0-21.81-32.59q241.29-104.11,216.79-272.2c-17.76-120.78-134-97.59-183.62-125.34q-42.84-14.14-102.91,4.91C1091.91,720,1107.26,705.59,1091,811q-18.24,118.11,73.51,203.15a350.11,350.11,0,0,0-43.28,4.18q-26.16,4.11-46.81,13.49a135.67,135.67,0,0,0-13.68,7.28q-32.64-94.36-68.31-201.38,157.49-238.82-6.86-417.21Q873.9,299.11,793.2,318.69q-42.13,10.23-75.82,58.55Q687.91,440,687.76,504.41a224.62,224.62,0,0,0-47.83-14.61q-45.34-8.34-82.8,7.24-4.35,1.84-8.6,4-40.93,20.85-64.12,67.78Q391.85,757,528.4,924.87,626,1058.57,821.88,1063.7a478.06,478.06,0,0,0,65.35,19.12l-.31-.16q44,9.87,102.56,12,11.88.49,21.74,1.09-21,47-14.6,121.14,6.81,80,96.07,126.51-23.42-2.69-26.34-3.07a767.86,767.86,0,0,1-107.27-22.59q7.14-143.55-152.44-219.81-89-42.87-199.07,35.19-20.51,14.6-33,30.38-54.2,69.3,43.89,163.15,32.21,30.9,82.57,40.81a181.59,181.59,0,0,0-26.15,17.93q-67.2,56.83,12,139.07,50.46,52.59,184.29,40.41a402.85,402.85,0,0,0,15.07,49q46.13,124.17,261,141.44Zm-126.34-676.73q-13.57-1-31.3-1.69-56.58-2-99.05-11.53-8.6-1.86-17.19-4.08-4.29-25,.79-79,8.24-72.35,11.46-111.74,2.13-24,2.88-45.59a359.17,359.17,0,0,0,81.71,28.52q36.06,108.11,69,203.21A121.84,121.84,0,0,0,1021.62,1076.63Zm226.07,313.7q4.82,28.23,8.21,71.7,4.85,62-.89,107.39-12.65-22.22-22.28-39.71-15-27.62-22.54-43-27-53.17-41.23-98.61-1.7-5.43-4-16.38A708.65,708.65,0,0,0,1247.69,1390.33Zm-150.62,81.25q-32.11-44.25-80.88-53.49-26.07-44.5-91.5-77.6,9.76-3.1,19.77-6.49a787.78,787.78,0,0,0,119.19,25.84q4.59.66,60.85,7.15,7.95,1,14.6,1.92,3.75,18.63,6.24,26.57,14.72,47.16,42.65,102.32,5.17,10.64,13.91,27-24.6-.45-71,.67A431.25,431.25,0,0,0,1097.07,1471.58Z"/></g></g></g></g><g id="_---Certificate" data-name="---Certificate"><g id="_-----_CERTIFICATE_paper_----" data-name="-----&gt;&gt;CERTIFICATE paper&lt;&lt;----"><g id="SHADOW" class="cls-15"><path class="cls-16" d="M1375.83,1955a44,44,0,0,0,18.64,5h587.74c5.5,0,6-2.15,1.22-4.79L1352.1,1610.62a46.31,46.31,0,0,0-18.78-4.78l-547.23.77c-5.5,0-6.11,2.27-1.35,5Z"/></g><g id="_----_CERTIFICATE_" data-name="----&gt;&gt;&gt;CERTIFICATE&lt;&lt;&lt;"><g class="cls-2"><path class="cls-17" d="M1625.9,781.37c7.56,4.39,13.69,11.22,17.95,20.21s6.72,20.43,6.76,33.79l.11,40c0,4,1.43,6.86,3.72,8.19L1058.86,537.46c-2.29-1.33-3.71-4.16-3.72-8.18l-.12-40c0-13.35-2.44-24.67-6.76-33.78s-10.39-15.83-18-20.22Z"/><path class="cls-18" d="M797.8,1613.08c-1.75-1-2.72-3.31-2.73-6.46,0-7.32,5.35-16.61,11.72-20.28a101.36,101.36,0,0,0,22.88-18.51,138.92,138.92,0,0,0,25.65-39.2,124.94,124.94,0,0,0,7.3-21.83,94.74,94.74,0,0,0,2.59-21.66l-2.51-883.7c-.05-16.81,2.8-34.81,8.46-53.51a260.6,260.6,0,0,1,39.39-78A237.36,237.36,0,0,1,939,437.68a177,177,0,0,1,32.24-24.27C985.8,405,999.9,400.16,1013.17,399c2.08-.19,4.16-.28,6.18-.28a55.05,55.05,0,0,1,28,7.18L1625,741.58a66.41,66.41,0,0,0-10.08-.75c-2.14,0-4.34.09-6.53.29-13.86,1.23-28.52,6.26-43.57,14.94a181.73,181.73,0,0,0-33,24.82,240.79,240.79,0,0,0-28.95,32.82,264.8,264.8,0,0,0-40,79.18c-5.77,19.09-8.67,37.49-8.62,54.68l2.5,883.71a90.61,90.61,0,0,1-2.48,20.74,121.5,121.5,0,0,1-7.07,21.14,135.1,135.1,0,0,1-24.9,38.06,97.31,97.31,0,0,1-22,17.78c-7.71,4.45-13.74,14.89-13.71,23.76a16.2,16.2,0,0,0,.21,2.66Z"/><path class="cls-19" d="M1019.35,400.71a53.07,53.07,0,0,1,27,6.91l570,331.22h-1.38c-2.2,0-4.45.1-6.71.3-14.15,1.25-29.08,6.37-44.39,15.2a182.86,182.86,0,0,0-33.34,25.09,242.3,242.3,0,0,0-29.19,33.1A266.55,266.55,0,0,0,1461,892.3c-5.83,19.28-8.76,37.87-8.71,55.27l2.5,883.71a89,89,0,0,1-2.43,20.28,119.43,119.43,0,0,1-6.95,20.79,132.82,132.82,0,0,1-24.53,37.49,95.62,95.62,0,0,1-21.51,17.42c-8,4.62-14.32,15.25-14.69,24.56L798.8,1611.35c-1.07-.63-1.72-2.4-1.73-4.74,0-6.69,4.89-15.18,10.72-18.54a103.07,103.07,0,0,0,23.33-18.87,141.12,141.12,0,0,0,26-39.77,128.07,128.07,0,0,0,7.41-22.18,96.92,96.92,0,0,0,2.64-22.11L864.7,601.43c-.05-16.6,2.77-34.41,8.37-52.93a258.47,258.47,0,0,1,39.1-77.36,234.44,234.44,0,0,1,28.22-32,175.12,175.12,0,0,1,31.87-24c14.29-8.24,28.11-13,41.09-14.16,2-.18,4-.27,6-.27h0m0-4c-2.08,0-4.2.09-6.35.29-13.16,1.16-27.64,6-42.74,14.68a179.14,179.14,0,0,0-32.61,24.54,239.73,239.73,0,0,0-28.71,32.55,263.57,263.57,0,0,0-39.7,78.58c-5.54,18.32-8.59,36.74-8.54,54.09l2.51,883.71a92.74,92.74,0,0,1-2.54,21.2,124.28,124.28,0,0,1-7.18,21.48,137.53,137.53,0,0,1-25.28,38.63,99.32,99.32,0,0,1-22.42,18.14c-7,4.07-12.74,13.93-12.72,22,0,4,1.43,6.86,3.72,8.19l595.59,346.11c-2.29-1.33-3.71-4.16-3.72-8.18,0-8.09,5.67-18,12.71-22a99.15,99.15,0,0,0,22.42-18.14,137.92,137.92,0,0,0,25.29-38.63,124.28,124.28,0,0,0,7.18-21.48,93.3,93.3,0,0,0,2.53-21.21l-2.5-883.7c0-17.36,3-35.77,8.54-54.1a263.52,263.52,0,0,1,39.7-78.57,237.86,237.86,0,0,1,28.71-32.55,179.08,179.08,0,0,1,32.6-24.54c15.11-8.72,29.59-13.52,42.74-14.69q3.24-.29,6.36-.28a57.08,57.08,0,0,1,29,7.45L1048.38,404.16a57.05,57.05,0,0,0-29-7.45Z"/><path class="cls-20" d="M1019.35,398.71a55.05,55.05,0,0,1,28,7.18L1625,741.58a66.41,66.41,0,0,0-10.08-.75c-2.14,0-4.34.09-6.53.29-13.86,1.23-28.51,6.26-43.57,14.94a181.39,181.39,0,0,0-33,24.82,240.79,240.79,0,0,0-28.95,32.82,264.8,264.8,0,0,0-40,79.18c-5.77,19.09-8.67,37.49-8.62,54.68l2.5,883.71a90.61,90.61,0,0,1-2.48,20.74,121.5,121.5,0,0,1-7.07,21.14,135.1,135.1,0,0,1-24.9,38.06,97.31,97.31,0,0,1-22,17.78c-7.71,4.45-13.74,14.89-13.71,23.76a16.2,16.2,0,0,0,.21,2.66L797.8,1613.08c-1.75-1-2.72-3.31-2.73-6.46,0-7.32,5.35-16.61,11.72-20.28a101.36,101.36,0,0,0,22.88-18.51,138.92,138.92,0,0,0,25.65-39.2,124.94,124.94,0,0,0,7.3-21.83,94.67,94.67,0,0,0,2.59-21.66l-2.51-883.7c-.05-16.81,2.8-34.81,8.46-53.51a260.6,260.6,0,0,1,39.39-78A237.36,237.36,0,0,1,939,437.68a177,177,0,0,1,32.24-24.27C985.8,405,999.9,400.16,1013.17,399c2.08-.19,4.16-.28,6.18-.28h0m0-2c-2.08,0-4.2.09-6.35.29-13.16,1.16-27.64,6-42.74,14.68a179.14,179.14,0,0,0-32.61,24.54,239.73,239.73,0,0,0-28.71,32.55,263.57,263.57,0,0,0-39.7,78.58c-5.54,18.32-8.59,36.74-8.54,54.09l2.51,883.71a92.74,92.74,0,0,1-2.54,21.2,124.28,124.28,0,0,1-7.18,21.48,137.53,137.53,0,0,1-25.28,38.63,99.32,99.32,0,0,1-22.42,18.14c-7,4.07-12.74,13.93-12.72,22,0,4,1.43,6.86,3.72,8.19l595.59,346.11c-2.29-1.33-3.71-4.16-3.72-8.18,0-8.09,5.67-18,12.71-22a99.15,99.15,0,0,0,22.42-18.14,137.92,137.92,0,0,0,25.29-38.63,124.28,124.28,0,0,0,7.18-21.48,93.3,93.3,0,0,0,2.53-21.21l-2.5-883.7c0-17.36,3-35.77,8.54-54.1a263.52,263.52,0,0,1,39.7-78.57,237.86,237.86,0,0,1,28.71-32.55,179.08,179.08,0,0,1,32.6-24.54c15.11-8.72,29.59-13.52,42.74-14.69q3.24-.29,6.36-.28a57.08,57.08,0,0,1,29,7.45L1048.38,404.16a57.05,57.05,0,0,0-29-7.45Z"/><path id="LEFT_SIDE" data-name="LEFT SIDE" class="cls-21" d="M1565.84,757.8a179.08,179.08,0,0,0-32.6,24.54,237.86,237.86,0,0,0-28.71,32.55,263.52,263.52,0,0,0-39.7,78.57c-5.55,18.33-8.59,36.74-8.54,54.1l2.5,883.7a93.3,93.3,0,0,1-2.53,21.21,124.28,124.28,0,0,1-7.18,21.48,137.92,137.92,0,0,1-25.29,38.63,99.15,99.15,0,0,1-22.42,18.14c-7,4.07-12.73,13.93-12.71,22s5.75,11.36,12.8,7.29a136.18,136.18,0,0,0,24.7-18.56,180,180,0,0,0,21.74-24.58,198.17,198.17,0,0,0,30-59.39,142.28,142.28,0,0,0,6.42-41l-2.5-883.71a135,135,0,0,1,3.72-30.93,181.86,181.86,0,0,1,10.58-31.51,203.39,203.39,0,0,1,37.11-56.74,144.78,144.78,0,0,1,32.72-26.54,87.63,87.63,0,0,1,25-10.06,53.71,53.71,0,0,1,22.11-.5c13.53,2.69,24.33,11.37,30.8,25,4.31,9.12,6.72,20.43,6.76,33.79l.11,40c0,8.1,5.75,11.36,12.8,7.3s12.73-13.93,12.71-22l-.11-40A113,113,0,0,0,1671,786a69.12,69.12,0,0,0-14-25c-11.93-13.29-28.73-19.63-48.49-17.88C1595.43,744.28,1581,749.08,1565.84,757.8Z"/></g></g><g id="WHITE_BORDER_STROKE" data-name="WHITE BORDER STROKE"><g class="cls-22"><path class="cls-19" d="M1019.35,396.71a57.05,57.05,0,0,1,29,7.45L1644,750.28c-.7-.41-1.42-.79-2.14-1.17A53.71,53.71,0,0,1,1657.07,761a69.12,69.12,0,0,1,14,25,113,113,0,0,1,5.08,34.62l.11,40c0,8.1-5.67,18-12.71,22a11.62,11.62,0,0,1-5.7,1.74,6.52,6.52,0,0,1-3.8-1.15c.14.1.27.21.42.3l-120.9-70.26-.33.33a203.39,203.39,0,0,0-37.11,56.74,181.86,181.86,0,0,0-10.58,31.51,135,135,0,0,0-3.72,30.93l2.5,883.71a142.28,142.28,0,0,1-6.42,41,198.17,198.17,0,0,1-30,59.39,180,180,0,0,1-21.74,24.58,136.18,136.18,0,0,1-24.7,18.56,11.51,11.51,0,0,1-5.7,1.74,6.51,6.51,0,0,1-3.8-1.14,3.93,3.93,0,0,0,.42.29L796.79,1614.81c-2.29-1.33-3.71-4.16-3.72-8.19,0-8.09,5.67-17.95,12.72-22a99.32,99.32,0,0,0,22.42-18.14,137.53,137.53,0,0,0,25.28-38.63,123.43,123.43,0,0,0,7.18-21.48,92.74,92.74,0,0,0,2.54-21.2L860.7,601.44c-.05-17.35,3-35.76,8.54-54.09a263.57,263.57,0,0,1,39.7-78.58,239.73,239.73,0,0,1,28.71-32.55,179.14,179.14,0,0,1,32.61-24.54C985.36,403,999.84,398.16,1013,397c2.15-.2,4.27-.29,6.35-.29m0-5c-2.22,0-4.51.1-6.79.31-14.3,1.26-29.37,6.42-44.8,15.33a184.51,184.51,0,0,0-33.53,25.22,243.66,243.66,0,0,0-29.31,33.24,267.65,267.65,0,0,0-40.46,80.09c-5.86,19.37-8.81,38.06-8.76,55.56l2.51,883.7a88.12,88.12,0,0,1-2.41,20.06,119.05,119.05,0,0,1-6.89,20.61A132,132,0,0,1,824.56,1563a94.24,94.24,0,0,1-21.27,17.23c-8.56,4.94-15.24,16.53-15.22,26.37,0,5.65,2.28,10.21,6.21,12.49l595.59,346.12v0a11.67,11.67,0,0,0,5.88,1.54,16.43,16.43,0,0,0,8.2-2.41,140.87,140.87,0,0,0,25.62-19.24,184.13,184.13,0,0,0,22.34-25.27,202.19,202.19,0,0,0,30.74-60.91,146,146,0,0,0,6.64-42.42l-2.5-883.7a130.29,130.29,0,0,1,3.59-29.79,177.51,177.51,0,0,1,10.29-30.64,198,198,0,0,1,33.81-52.74l117.44,68.25v0a11.68,11.68,0,0,0,5.88,1.55A16.41,16.41,0,0,0,1666,887c8.56-4.95,15.24-16.53,15.21-26.37l-.11-40a118,118,0,0,0-5.32-36.15,74,74,0,0,0-15-26.82A59.18,59.18,0,0,0,1646.48,746h0L1050.9,399.84a62,62,0,0,0-31.55-8.13Z"/></g></g><path id="LEFT_SIDE-2" data-name="LEFT SIDE" class="cls-23" d="M1565.84,757.8a179.08,179.08,0,0,0-32.6,24.54,237.86,237.86,0,0,0-28.71,32.55,263.52,263.52,0,0,0-39.7,78.57c-5.55,18.33-8.59,36.74-8.54,54.1l2.5,883.7a93.3,93.3,0,0,1-2.53,21.21,124.28,124.28,0,0,1-7.18,21.48,137.92,137.92,0,0,1-25.29,38.63,99.15,99.15,0,0,1-22.42,18.14c-7,4.07-12.73,13.93-12.71,22s5.75,11.36,12.8,7.29a136.18,136.18,0,0,0,24.7-18.56,180,180,0,0,0,21.74-24.58,198.17,198.17,0,0,0,30-59.39,142.28,142.28,0,0,0,6.42-41l-2.5-883.71a135,135,0,0,1,3.72-30.93,181.86,181.86,0,0,1,10.58-31.51,203.39,203.39,0,0,1,37.11-56.74,144.78,144.78,0,0,1,32.72-26.54,87.63,87.63,0,0,1,25-10.06,53.71,53.71,0,0,1,22.11-.5c13.53,2.69,24.33,11.37,30.8,25,4.31,9.12,6.72,20.43,6.76,33.79l.11,40c0,8.1,5.75,11.36,12.8,7.3s12.73-13.93,12.71-22l-.11-40A113,113,0,0,0,1671,786a69.12,69.12,0,0,0-14-25c-11.93-13.29-28.73-19.63-48.49-17.88C1595.43,744.28,1581,749.08,1565.84,757.8Z"/><g id="FRONT"><path class="cls-24" d="M797.8,1613.08c-1.75-1-2.72-3.31-2.73-6.46,0-7.32,5.35-16.61,11.72-20.28a101.36,101.36,0,0,0,22.88-18.51,138.92,138.92,0,0,0,25.65-39.2,124.94,124.94,0,0,0,7.3-21.83,94.74,94.74,0,0,0,2.59-21.66l-2.51-883.7c-.05-16.81,2.8-34.81,8.46-53.51a260.6,260.6,0,0,1,39.39-78A237.36,237.36,0,0,1,939,437.68a177,177,0,0,1,32.24-24.27C985.8,405,999.9,400.16,1013.17,399c2.08-.19,4.16-.28,6.18-.28a55.05,55.05,0,0,1,28,7.18L1625,741.58a66.41,66.41,0,0,0-10.08-.75c-2.14,0-4.34.09-6.53.29-13.86,1.23-28.52,6.26-43.57,14.94a181.73,181.73,0,0,0-33,24.82,240.79,240.79,0,0,0-28.95,32.82,264.8,264.8,0,0,0-40,79.18c-5.77,19.09-8.67,37.49-8.62,54.68l2.5,883.71a90.61,90.61,0,0,1-2.48,20.74,121.5,121.5,0,0,1-7.07,21.14,135.1,135.1,0,0,1-24.9,38.06,97.31,97.31,0,0,1-22,17.78c-7.71,4.45-13.74,14.89-13.71,23.76a16.2,16.2,0,0,0,.21,2.66Z"/><path class="cls-19" d="M1019.35,400.71a53.07,53.07,0,0,1,27,6.91l570,331.22h-1.38c-2.2,0-4.45.1-6.71.3-14.15,1.25-29.08,6.37-44.39,15.2a182.86,182.86,0,0,0-33.34,25.09,242.3,242.3,0,0,0-29.19,33.1A266.55,266.55,0,0,0,1461,892.3c-5.83,19.28-8.76,37.87-8.71,55.27l2.5,883.71a89,89,0,0,1-2.43,20.28,119.43,119.43,0,0,1-6.95,20.79,132.82,132.82,0,0,1-24.53,37.49,95.62,95.62,0,0,1-21.51,17.42c-8,4.62-14.32,15.25-14.69,24.56L798.8,1611.35c-1.07-.63-1.72-2.4-1.73-4.74,0-6.69,4.89-15.18,10.72-18.54a103.07,103.07,0,0,0,23.33-18.87,141.12,141.12,0,0,0,26-39.77,128.07,128.07,0,0,0,7.41-22.18,96.92,96.92,0,0,0,2.64-22.11L864.7,601.43c-.05-16.6,2.77-34.41,8.37-52.93a258.47,258.47,0,0,1,39.1-77.36,234.44,234.44,0,0,1,28.22-32,175.12,175.12,0,0,1,31.87-24c14.29-8.24,28.11-13,41.09-14.16,2-.18,4-.27,6-.27h0m0-4c-2.08,0-4.2.09-6.35.29-13.16,1.16-27.64,6-42.74,14.68a179.14,179.14,0,0,0-32.61,24.54,239.73,239.73,0,0,0-28.71,32.55,263.57,263.57,0,0,0-39.7,78.58c-5.54,18.32-8.59,36.74-8.54,54.09l2.51,883.71a92.74,92.74,0,0,1-2.54,21.2,124.28,124.28,0,0,1-7.18,21.48,137.53,137.53,0,0,1-25.28,38.63,99.32,99.32,0,0,1-22.42,18.14c-7,4.07-12.74,13.93-12.72,22,0,4,1.43,6.86,3.72,8.19l595.59,346.11c-2.29-1.33-3.71-4.16-3.72-8.18,0-8.09,5.67-18,12.71-22a99.15,99.15,0,0,0,22.42-18.14,137.92,137.92,0,0,0,25.29-38.63,124.28,124.28,0,0,0,7.18-21.48,93.3,93.3,0,0,0,2.53-21.21l-2.5-883.7c0-17.36,3-35.77,8.54-54.1a263.52,263.52,0,0,1,39.7-78.57,237.86,237.86,0,0,1,28.71-32.55,179.08,179.08,0,0,1,32.6-24.54c15.11-8.72,29.59-13.52,42.74-14.69q3.24-.29,6.36-.28a57.08,57.08,0,0,1,29,7.45L1048.38,404.16a57.05,57.05,0,0,0-29-7.45Z"/><path class="cls-20" d="M1019.35,398.71a55.05,55.05,0,0,1,28,7.18L1625,741.58a66.41,66.41,0,0,0-10.08-.75c-2.14,0-4.34.09-6.53.29-13.86,1.23-28.51,6.26-43.57,14.94a181.39,181.39,0,0,0-33,24.82,240.79,240.79,0,0,0-28.95,32.82,264.8,264.8,0,0,0-40,79.18c-5.77,19.09-8.67,37.49-8.62,54.68l2.5,883.71a90.61,90.61,0,0,1-2.48,20.74,121.5,121.5,0,0,1-7.07,21.14,135.1,135.1,0,0,1-24.9,38.06,97.31,97.31,0,0,1-22,17.78c-7.71,4.45-13.74,14.89-13.71,23.76a16.2,16.2,0,0,0,.21,2.66L797.8,1613.08c-1.75-1-2.72-3.31-2.73-6.46,0-7.32,5.35-16.61,11.72-20.28a101.36,101.36,0,0,0,22.88-18.51,138.92,138.92,0,0,0,25.65-39.2,124.94,124.94,0,0,0,7.3-21.83,94.67,94.67,0,0,0,2.59-21.66l-2.51-883.7c-.05-16.81,2.8-34.81,8.46-53.51a260.6,260.6,0,0,1,39.39-78A237.36,237.36,0,0,1,939,437.68a177,177,0,0,1,32.24-24.27C985.8,405,999.9,400.16,1013.17,399c2.08-.19,4.16-.28,6.18-.28h0m0-2c-2.08,0-4.2.09-6.35.29-13.16,1.16-27.64,6-42.74,14.68a179.14,179.14,0,0,0-32.61,24.54,239.73,239.73,0,0,0-28.71,32.55,263.57,263.57,0,0,0-39.7,78.58c-5.54,18.32-8.59,36.74-8.54,54.09l2.51,883.71a92.74,92.74,0,0,1-2.54,21.2,124.28,124.28,0,0,1-7.18,21.48,137.53,137.53,0,0,1-25.28,38.63,99.32,99.32,0,0,1-22.42,18.14c-7,4.07-12.74,13.93-12.72,22,0,4,1.43,6.86,3.72,8.19l595.59,346.11c-2.29-1.33-3.71-4.16-3.72-8.18,0-8.09,5.67-18,12.71-22a99.15,99.15,0,0,0,22.42-18.14,137.92,137.92,0,0,0,25.29-38.63,124.28,124.28,0,0,0,7.18-21.48,93.3,93.3,0,0,0,2.53-21.21l-2.5-883.7c0-17.36,3-35.77,8.54-54.1a263.52,263.52,0,0,1,39.7-78.57,237.86,237.86,0,0,1,28.71-32.55,179.08,179.08,0,0,1,32.6-24.54c15.11-8.72,29.59-13.52,42.74-14.69q3.24-.29,6.36-.28a57.08,57.08,0,0,1,29,7.45L1048.38,404.16a57.05,57.05,0,0,0-29-7.45Z"/></g><g id="FRONT-2" data-name="FRONT"><path class="cls-25" d="M797.8,1613.08c-1.75-1-2.72-3.31-2.73-6.46,0-7.32,5.35-16.61,11.72-20.28a101.36,101.36,0,0,0,22.88-18.51,138.92,138.92,0,0,0,25.65-39.2,124.94,124.94,0,0,0,7.3-21.83,94.74,94.74,0,0,0,2.59-21.66l-2.51-883.7c-.05-16.81,2.8-34.81,8.46-53.51a260.6,260.6,0,0,1,39.39-78A237.36,237.36,0,0,1,939,437.68a177,177,0,0,1,32.24-24.27C985.8,405,999.9,400.16,1013.17,399c2.08-.19,4.16-.28,6.18-.28a55.05,55.05,0,0,1,28,7.18L1625,741.58a66.41,66.41,0,0,0-10.08-.75c-2.14,0-4.34.09-6.53.29-13.86,1.23-28.52,6.26-43.57,14.94a181.73,181.73,0,0,0-33,24.82,240.79,240.79,0,0,0-28.95,32.82,264.8,264.8,0,0,0-40,79.18c-5.77,19.09-8.67,37.49-8.62,54.68l2.5,883.71a90.61,90.61,0,0,1-2.48,20.74,121.5,121.5,0,0,1-7.07,21.14,135.1,135.1,0,0,1-24.9,38.06,97.31,97.31,0,0,1-22,17.78c-7.71,4.45-13.74,14.89-13.71,23.76a16.2,16.2,0,0,0,.21,2.66Z"/><path class="cls-19" d="M1019.35,400.71a53.07,53.07,0,0,1,27,6.91l570,331.22h-1.38c-2.2,0-4.45.1-6.71.3-14.15,1.25-29.08,6.37-44.39,15.2a182.86,182.86,0,0,0-33.34,25.09,242.3,242.3,0,0,0-29.19,33.1A266.55,266.55,0,0,0,1461,892.3c-5.83,19.28-8.76,37.87-8.71,55.27l2.5,883.71a89,89,0,0,1-2.43,20.28,119.43,119.43,0,0,1-6.95,20.79,132.82,132.82,0,0,1-24.53,37.49,95.62,95.62,0,0,1-21.51,17.42c-8,4.62-14.32,15.25-14.69,24.56L798.8,1611.35c-1.07-.63-1.72-2.4-1.73-4.74,0-6.69,4.89-15.18,10.72-18.54a103.07,103.07,0,0,0,23.33-18.87,141.12,141.12,0,0,0,26-39.77,128.07,128.07,0,0,0,7.41-22.18,96.92,96.92,0,0,0,2.64-22.11L864.7,601.43c-.05-16.6,2.77-34.41,8.37-52.93a258.47,258.47,0,0,1,39.1-77.36,234.44,234.44,0,0,1,28.22-32,175.12,175.12,0,0,1,31.87-24c14.29-8.24,28.11-13,41.09-14.16,2-.18,4-.27,6-.27h0m0-4c-2.08,0-4.2.09-6.35.29-13.16,1.16-27.64,6-42.74,14.68a179.14,179.14,0,0,0-32.61,24.54,239.73,239.73,0,0,0-28.71,32.55,263.57,263.57,0,0,0-39.7,78.58c-5.54,18.32-8.59,36.74-8.54,54.09l2.51,883.71a92.74,92.74,0,0,1-2.54,21.2,124.28,124.28,0,0,1-7.18,21.48,137.53,137.53,0,0,1-25.28,38.63,99.32,99.32,0,0,1-22.42,18.14c-7,4.07-12.74,13.93-12.72,22,0,4,1.43,6.86,3.72,8.19l595.59,346.11c-2.29-1.33-3.71-4.16-3.72-8.18,0-8.09,5.67-18,12.71-22a99.15,99.15,0,0,0,22.42-18.14,137.92,137.92,0,0,0,25.29-38.63,124.28,124.28,0,0,0,7.18-21.48,93.3,93.3,0,0,0,2.53-21.21l-2.5-883.7c0-17.36,3-35.77,8.54-54.1a263.52,263.52,0,0,1,39.7-78.57,237.86,237.86,0,0,1,28.71-32.55,179.08,179.08,0,0,1,32.6-24.54c15.11-8.72,29.59-13.52,42.74-14.69q3.24-.29,6.36-.28a57.08,57.08,0,0,1,29,7.45L1048.38,404.16a57.05,57.05,0,0,0-29-7.45Z"/><path class="cls-20" d="M1019.35,398.71a55.05,55.05,0,0,1,28,7.18L1625,741.58a66.41,66.41,0,0,0-10.08-.75c-2.14,0-4.34.09-6.53.29-13.86,1.23-28.51,6.26-43.57,14.94a181.39,181.39,0,0,0-33,24.82,240.79,240.79,0,0,0-28.95,32.82,264.8,264.8,0,0,0-40,79.18c-5.77,19.09-8.67,37.49-8.62,54.68l2.5,883.71a90.61,90.61,0,0,1-2.48,20.74,121.5,121.5,0,0,1-7.07,21.14,135.1,135.1,0,0,1-24.9,38.06,97.31,97.31,0,0,1-22,17.78c-7.71,4.45-13.74,14.89-13.71,23.76a16.2,16.2,0,0,0,.21,2.66L797.8,1613.08c-1.75-1-2.72-3.31-2.73-6.46,0-7.32,5.35-16.61,11.72-20.28a101.36,101.36,0,0,0,22.88-18.51,138.92,138.92,0,0,0,25.65-39.2,124.94,124.94,0,0,0,7.3-21.83,94.67,94.67,0,0,0,2.59-21.66l-2.51-883.7c-.05-16.81,2.8-34.81,8.46-53.51a260.6,260.6,0,0,1,39.39-78A237.36,237.36,0,0,1,939,437.68a177,177,0,0,1,32.24-24.27C985.8,405,999.9,400.16,1013.17,399c2.08-.19,4.16-.28,6.18-.28h0m0-2c-2.08,0-4.2.09-6.35.29-13.16,1.16-27.64,6-42.74,14.68a179.14,179.14,0,0,0-32.61,24.54,239.73,239.73,0,0,0-28.71,32.55,263.57,263.57,0,0,0-39.7,78.58c-5.54,18.32-8.59,36.74-8.54,54.09l2.51,883.71a92.74,92.74,0,0,1-2.54,21.2,124.28,124.28,0,0,1-7.18,21.48,137.53,137.53,0,0,1-25.28,38.63,99.32,99.32,0,0,1-22.42,18.14c-7,4.07-12.74,13.93-12.72,22,0,4,1.43,6.86,3.72,8.19l595.59,346.11c-2.29-1.33-3.71-4.16-3.72-8.18,0-8.09,5.67-18,12.71-22a99.15,99.15,0,0,0,22.42-18.14,137.92,137.92,0,0,0,25.29-38.63,124.28,124.28,0,0,0,7.18-21.48,93.3,93.3,0,0,0,2.53-21.21l-2.5-883.7c0-17.36,3-35.77,8.54-54.1a263.52,263.52,0,0,1,39.7-78.57,237.86,237.86,0,0,1,28.71-32.55,179.08,179.08,0,0,1,32.6-24.54c15.11-8.72,29.59-13.52,42.74-14.69q3.24-.29,6.36-.28a57.08,57.08,0,0,1,29,7.45L1048.38,404.16a57.05,57.05,0,0,0-29-7.45Z"/></g></g><g id="text_lines" data-name="text lines" class="cls-26"><polygon class="cls-27" points="942.84 744 1368.12 989.54 1368.12 964.74 942.84 719.2 942.84 744"/><polygon class="cls-27" points="942.84 844.01 1368.12 1089.55 1368.12 1064.75 942.84 819.22 942.84 844.01"/><polygon class="cls-27" points="942.84 942.62 1368.12 1188.16 1368.12 1163.36 942.84 917.82 942.84 942.62"/><polygon class="cls-27" points="942.84 1041.57 1155.48 1164.34 1155.48 1139.54 942.84 1016.77 942.84 1041.57"/></g><g id="Question" class="cls-28"><ellipse class="cls-27" cx="1050.36" cy="1368.7" rx="84.35" ry="146.1" transform="translate(-547.75 718.6) rotate(-30.36)"/><path class="cls-29" d="M1050.36,1269.11c23.21,13.4,45,36.35,61.43,64.64s25.45,58.51,25.45,85.11-9,46.39-25.45,55.73-38.22,7.1-61.43-6.3-45-36.35-61.43-64.64-25.44-58.51-25.44-85.11,9-46.39,25.44-55.73,38.23-7.1,61.43,6.3m0-33.3c-64-37-115.92-7.43-115.92,66s51.9,162.86,115.92,199.82,115.93,7.43,115.93-66-51.9-162.86-115.93-199.82Z"/><path id="Question-2" data-name="Question" class="cls-30" d="M1093.39,1368.29a31.47,31.47,0,0,1-1.48,10.23,19.94,19.94,0,0,1-3.35,6.46,13.17,13.17,0,0,1-5.27,3.49,24.41,24.41,0,0,1-5.5,1.6c-1.41.17-3.35.35-5.84.52a9.09,9.09,0,0,0-6.56,3.35c-1.76,2.06-2.63,4-2.63,5.83a3.71,3.71,0,0,1-1.15,2.9,2.09,2.09,0,0,1-2.68.16l-23-13.27a6.46,6.46,0,0,1-2.44-3.44,13.23,13.23,0,0,1-1-4.69v-4.94q0-9.1,6.23-13.58a20.57,20.57,0,0,1,13.69-4q5.64.3,8-1.5t2.39-7q0-4.61-4.45-10.69a33.61,33.61,0,0,0-10.29-9.45q-6.22-3.6-10.34-2.79-3.36.81-10.24,6.71a2.42,2.42,0,0,1-3,0,8.81,8.81,0,0,1-2.4-2.26l-15.7-22.79a8.29,8.29,0,0,1-1.48-3.6,3.53,3.53,0,0,1,.53-2.76q15.32-20.36,44.42-3.55a74,74,0,0,1,15.41,12.3,117.84,117.84,0,0,1,14,17.18,95.54,95.54,0,0,1,10.15,19.85A56.8,56.8,0,0,1,1093.39,1368.29Zm-30.25,48.38V1443a2.52,2.52,0,0,1-1.15,2.41,2.57,2.57,0,0,1-2.68-.23l-23-13.26a7.64,7.64,0,0,1-2.68-2.87,7.54,7.54,0,0,1-1.15-3.73V1399a2.54,2.54,0,0,1,1.15-2.41,2.57,2.57,0,0,1,2.68.23l23,13.26a7.64,7.64,0,0,1,2.68,2.87A7.44,7.44,0,0,1,1063.14,1416.67Z"/></g></g><g id="PlusTeal"><g class="cls-15"><path class="cls-31" d="M1455.6,984.89l-13.68-8.06c-4.9-2.82-8.89-.56-8.9,5.08l-.35,121.85-106.05-61.22c-4.9-2.83-8.89-.56-8.91,5.07l-.19,67.65c0,5.62,4,12.49,8.85,15.32l106.05,61.23-.35,121.86c0,5.63,4,12.49,8.85,15.32l13.76,8.11,27.58-15.67V968.69Z"/></g><g id="_Teal" data-name="+ Teal"><g class="cls-2"><path class="cls-32" d="M1472.6,1378.92l.35-121.86,24.67-14.34-.35,121.86c0,2.8-1,4.76-2.59,5.69L1470,1384.61C1471.61,1383.68,1472.6,1381.71,1472.6,1378.92Z"/><path class="cls-33" d="M1308.88,1048.59c1.61-.94,3.85-.8,6.32.62l106,61.23-24.66,14.33-106-61.22c-2.47-1.43-4.71-1.56-6.32-.62Z"/><path class="cls-34" d="M1497.87,1154.68l106.05,61.22c4.9,2.83,8.86,9.7,8.84,15.33l-.19,67.64c0,2.8-1,4.77-2.59,5.7l-24.67,14.33c1.6-.92,2.58-2.89,2.59-5.69l.19-67.64c0-5.64-3.94-12.5-8.84-15.33l-106-61.23Z"/><path class="cls-35" d="M1405.83,997.84c-4.9-2.83-8.89-.56-8.91,5.08l-.34,121.85-106-61.22c-4.91-2.83-8.9-.56-8.91,5.07l-.19,67.65c0,5.62,3.94,12.49,8.85,15.32l106,61.23-.35,121.86c0,5.63,4,12.49,8.85,15.32l58.86,34c4.91,2.83,8.9.56,8.91-5.07l.35-121.86,106,61.22c4.9,2.84,8.89.56,8.9-5.07l.19-67.64c0-5.64-3.94-12.5-8.84-15.33l-106-61.23.34-121.86c0-5.63-3.94-12.49-8.85-15.32Z"/><path class="cls-36" d="M1424.18,982.89c1.61-.94,3.85-.81,6.31.62l58.87,34c4.9,2.83,8.87,9.69,8.85,15.33l-.34,121.86L1473.2,1169l.34-121.86c0-5.63-3.94-12.49-8.85-15.32l-58.86-34c-2.47-1.42-4.7-1.55-6.32-.62Z"/></g></g></g></g></g></svg>