<svg xmlns="http://www.w3.org/2000/svg" xmlns:xlink="http://www.w3.org/1999/xlink" viewBox="0 0 2500 2500"><defs><style>.cls-1{fill:#fff;}.cls-2{opacity:0.6;}.cls-3{opacity:0.17;}.cls-4{isolation:isolate;}.cls-5{fill:url(#Nueva_muestra_de_degradado_68);}.cls-6{fill:url(#Degradado_sin_nombre_2);}.cls-7{fill:url(#Nueva_muestra_de_degradado_68-2);}.cls-8{fill:url(#Degradado_sin_nombre_75);}.cls-9{fill:url(#Nueva_muestra_de_degradado_72);}.cls-10,.cls-11,.cls-12{fill-opacity:0.58;}.cls-10{fill:url(#Degradado_sin_nombre_106);}.cls-11{fill:url(#Degradado_sin_nombre_106-2);}.cls-12{fill:url(#Degradado_sin_nombre_111);}.cls-13{fill:#0b97c2;}.cls-14{fill:#52d6ff;}.cls-15{fill:url(#Nueva_muestra_de_degradado_66);}.cls-16{fill:#20bcec;}.cls-17{fill:#00a7d4;}.cls-18{mix-blend-mode:multiply;}.cls-19{fill:url(#Nueva_muestra_de_degradado_65);}.cls-20{fill:url(#Nueva_muestra_de_degradado_65-2);}.cls-21{fill:url(#Nueva_muestra_de_degradado_65-3);}.cls-22{fill-opacity:0.2;fill:url(#Degradado_sin_nombre_36);}.cls-23,.cls-24{opacity:0.65;}.cls-23{fill:url(#Nueva_muestra_de_degradado_58);}.cls-24{fill:url(#Nueva_muestra_de_degradado_69);}.cls-25{fill:url(#Degradado_sin_nombre_296);}.cls-26{fill:#022e49;}.cls-27{fill:url(#linear-gradient);}.cls-28{fill:#202f64;}.cls-29{fill:url(#Degradado_sin_nombre_13);}.cls-30{fill:#1da1dc;}.cls-31{fill:url(#linear-gradient-2);}.cls-32{fill:url(#linear-gradient-3);}.cls-33{fill:url(#Degradado_sin_nombre_6);}.cls-34{fill:url(#Degradado_sin_nombre_5);}.cls-35{fill:url(#Degradado_sin_nombre_4);}.cls-36{fill:#4dd2d2;}.cls-37{fill:url(#Degradado_sin_nombre_4-2);}.cls-38{opacity:0.7;fill:url(#New_Gradient_Swatch_1);}</style><linearGradient id="Nueva_muestra_de_degradado_68" x1="7783.74" y1="-7197.42" x2="8095.08" y2="-6988.76" gradientTransform="translate(-6996.93 6330.92) scale(0.89)" gradientUnits="userSpaceOnUse"><stop offset="0" stop-color="#90e5ff"/><stop offset="1" stop-color="#1da1dc"/></linearGradient><linearGradient id="Degradado_sin_nombre_2" x1="8129.24" y1="-6950.31" x2="8297.05" y2="-6764.83" gradientTransform="translate(-6996.93 6330.92) scale(0.89)" gradientUnits="userSpaceOnUse"><stop offset="0" stop-color="#90e5ff"/><stop offset="0.82" stop-color="#1da1dc"/></linearGradient><linearGradient id="Nueva_muestra_de_degradado_68-2" x1="7947.41" y1="-7203.48" x2="8294.08" y2="-6892.14" xlink:href="#Nueva_muestra_de_degradado_68"/><linearGradient id="Degradado_sin_nombre_75" x1="10367.01" y1="-7133.81" x2="10103.69" y2="-6429.44" gradientTransform="matrix(-0.89, 0, 0, 0.89, 9333.19, 6330.92)" gradientUnits="userSpaceOnUse"><stop offset="0.25" stop-color="#58d1ed" stop-opacity="0.4"/><stop offset="0.35" stop-color="#54ceec" stop-opacity="0.44"/><stop offset="0.51" stop-color="#4bc6e9" stop-opacity="0.54"/><stop offset="0.71" stop-color="#3ab9e4" stop-opacity="0.7"/><stop offset="0.93" stop-color="#24a7de" stop-opacity="0.93"/><stop offset="0.99" stop-color="#1da1dc"/></linearGradient><linearGradient id="Nueva_muestra_de_degradado_72" x1="10209.21" y1="-6982.69" x2="10481.35" y2="-6282.19" gradientTransform="matrix(-0.89, 0, 0, 0.89, 9333.19, 6330.92)" gradientUnits="userSpaceOnUse"><stop offset="0" stop-color="#fff" stop-opacity="0.4"/><stop offset="0.27" stop-color="#fff" stop-opacity="0.4"/><stop offset="0.43" stop-color="#b7d4f4" stop-opacity="0.4"/><stop offset="0.92" stop-color="#b7d4f4" stop-opacity="0"/></linearGradient><linearGradient id="Degradado_sin_nombre_106" x1="10116.06" y1="-6833.34" x2="9672.25" y2="-6305.06" gradientTransform="matrix(-0.89, 0, 0, 0.89, 9333.19, 6330.92)" gradientUnits="userSpaceOnUse"><stop offset="0" stop-color="#fff" stop-opacity="0.6"/><stop offset="0.17" stop-color="#fff" stop-opacity="0.6"/><stop offset="0.43" stop-color="#b7d4f4" stop-opacity="0.4"/><stop offset="0.92" stop-color="#b7d4f4" stop-opacity="0"/></linearGradient><linearGradient id="Degradado_sin_nombre_106-2" x1="10300.72" y1="-7116" x2="9549.98" y2="-6275.83" xlink:href="#Degradado_sin_nombre_106"/><linearGradient id="Degradado_sin_nombre_111" x1="10424.63" y1="-7108.98" x2="10181.19" y2="-6846.22" gradientTransform="matrix(-0.89, 0, 0, 0.89, 9333.19, 6330.92)" gradientUnits="userSpaceOnUse"><stop offset="0.04" stop-color="#fff" stop-opacity="0.6"/><stop offset="0.27" stop-color="#fff" stop-opacity="0.4"/><stop offset="0.43" stop-color="#b7d4f4" stop-opacity="0.4"/><stop offset="0.92" stop-color="#b7d4f4" stop-opacity="0"/></linearGradient><linearGradient id="Nueva_muestra_de_degradado_66" x1="292.14" y1="911.16" x2="175.51" y2="943.26" gradientTransform="matrix(-0.95, 0.32, 0.32, 0.95, 487.25, 98.53)" gradientUnits="userSpaceOnUse"><stop offset="0" stop-color="#52d6ff" stop-opacity="0.1"/><stop offset="0.02" stop-color="#45cffa" stop-opacity="0.1"/><stop offset="0.15" stop-color="#20bcec" stop-opacity="0.1"/><stop offset="0.87" stop-color="#0071b0" stop-opacity="0.3"/></linearGradient><linearGradient id="Nueva_muestra_de_degradado_65" x1="397.68" y1="1063.67" x2="876.99" y2="1233.01" gradientUnits="userSpaceOnUse"><stop offset="0" stop-color="#52d6ff" stop-opacity="0"/><stop offset="0.07" stop-color="#3fccf8" stop-opacity="0.04"/><stop offset="0.22" stop-color="#28c0ef" stop-opacity="0.08"/><stop offset="0.37" stop-color="#20bcec" stop-opacity="0.1"/><stop offset="0.86" stop-color="#0071b0" stop-opacity="0.6"/></linearGradient><linearGradient id="Nueva_muestra_de_degradado_65-2" x1="69.72" y1="1465.21" x2="657.14" y2="1662.29" xlink:href="#Nueva_muestra_de_degradado_65"/><linearGradient id="Nueva_muestra_de_degradado_65-3" x1="68.15" y1="1469.88" x2="655.57" y2="1666.97" xlink:href="#Nueva_muestra_de_degradado_65"/><linearGradient id="Degradado_sin_nombre_36" x1="1250.89" y1="1342.11" x2="1990.22" y2="1342.11" gradientUnits="userSpaceOnUse"><stop offset="0.01" stop-color="#00b287"/><stop offset="0.33" stop-color="#08ad9f"/><stop offset="1" stop-color="#1da1dc"/></linearGradient><linearGradient id="Nueva_muestra_de_degradado_58" x1="1346.48" y1="2076.88" x2="1906.22" y2="636.57" xlink:href="#Degradado_sin_nombre_36"/><linearGradient id="Nueva_muestra_de_degradado_69" x1="1337.91" y1="2071.47" x2="1915.49" y2="585.26" gradientUnits="userSpaceOnUse"><stop offset="0.01" stop-color="#61eebb"/><stop offset="0.4" stop-color="#72ebd3"/><stop offset="1" stop-color="#90e5ff"/></linearGradient><linearGradient id="Degradado_sin_nombre_296" x1="1125.38" y1="2188.27" x2="843.72" y2="1960.26" gradientTransform="matrix(-1, 0, 0, 1, 2288.09, 0)" gradientUnits="userSpaceOnUse"><stop offset="0" stop-color="#141226" stop-opacity="0.5"/><stop offset="0.8" stop-color="#141226" stop-opacity="0"/></linearGradient><linearGradient id="linear-gradient" x1="1388.93" y1="1455.39" x2="945.45" y2="1660.35" gradientUnits="userSpaceOnUse"><stop offset="0.39" stop-color="#01171a" stop-opacity="0"/><stop offset="1" stop-color="#01171a"/></linearGradient><linearGradient id="Degradado_sin_nombre_13" x1="1153.54" y1="1383.05" x2="764" y2="2060.57" gradientUnits="userSpaceOnUse"><stop offset="0" stop-color="#0071b0" stop-opacity="0.5"/><stop offset="0.16" stop-color="#0071b0"/><stop offset="0.31" stop-color="#0071b0" stop-opacity="0.99"/><stop offset="0.41" stop-color="#0071b0" stop-opacity="0.94"/><stop offset="0.49" stop-color="#0071b0" stop-opacity="0.86"/><stop offset="0.56" stop-color="#0071b0" stop-opacity="0.74"/><stop offset="0.63" stop-color="#0071b0" stop-opacity="0.59"/><stop offset="0.69" stop-color="#0071b0" stop-opacity="0.4"/><stop offset="0.74" stop-color="#0071b0" stop-opacity="0.19"/><stop offset="0.78" stop-color="#0071b0" stop-opacity="0"/></linearGradient><linearGradient id="linear-gradient-2" x1="575.41" y1="1251.29" x2="1215.34" y2="1727.04" gradientUnits="userSpaceOnUse"><stop offset="0" stop-color="#d4ecf6" stop-opacity="0.1"/><stop offset="0.01" stop-color="#d4ecf6" stop-opacity="0.15"/><stop offset="0.03" stop-color="#d4ecf6" stop-opacity="0.26"/><stop offset="0.06" stop-color="#d4ecf6" stop-opacity="0.35"/><stop offset="0.09" stop-color="#d4ecf6" stop-opacity="0.42"/><stop offset="0.13" stop-color="#d4ecf6" stop-opacity="0.46"/><stop offset="0.19" stop-color="#d4ecf6" stop-opacity="0.49"/><stop offset="0.34" stop-color="#d4ecf6" stop-opacity="0.5"/><stop offset="0.41" stop-color="#d4ecf6" stop-opacity="0.5"/><stop offset="0.41" stop-color="#d4ecf6" stop-opacity="0.48"/><stop offset="0.45" stop-color="#d4ecf6" stop-opacity="0.35"/><stop offset="0.49" stop-color="#d4ecf6" stop-opacity="0.24"/><stop offset="0.53" stop-color="#d4ecf6" stop-opacity="0.15"/><stop offset="0.59" stop-color="#d4ecf6" stop-opacity="0.08"/><stop offset="0.65" stop-color="#d4ecf6" stop-opacity="0.04"/><stop offset="0.74" stop-color="#d4ecf6" stop-opacity="0.01"/><stop offset="0.99" stop-color="#d4ecf6" stop-opacity="0"/></linearGradient><linearGradient id="linear-gradient-3" x1="1371.44" y1="1448.55" x2="1371.44" y2="1740.67" gradientUnits="userSpaceOnUse"><stop offset="0" stop-color="#141226" stop-opacity="0"/><stop offset="0.17" stop-color="#141226" stop-opacity="0.5"/><stop offset="0.64" stop-color="#141226" stop-opacity="0.44"/><stop offset="0.87" stop-color="#141226" stop-opacity="0.25"/><stop offset="1" stop-color="#141226" stop-opacity="0"/></linearGradient><linearGradient id="Degradado_sin_nombre_6" x1="1419.77" y1="1582.84" x2="1404.52" y2="1759.97" gradientUnits="userSpaceOnUse"><stop offset="0.01" stop-color="#12abbb"/><stop offset="0.22" stop-color="#0ca0b3"/><stop offset="0.67" stop-color="#038ea6"/><stop offset="1" stop-color="#0088a1"/></linearGradient><linearGradient id="Degradado_sin_nombre_5" x1="1449.67" y1="1498.4" x2="1543.89" y2="1440.34" gradientUnits="userSpaceOnUse"><stop offset="0.01" stop-color="#12abbb"/><stop offset="0.31" stop-color="#099aae"/><stop offset="0.67" stop-color="#028da4"/><stop offset="1" stop-color="#0088a1"/></linearGradient><linearGradient id="Degradado_sin_nombre_4" x1="1302.51" y1="1673.29" x2="1384.68" y2="1506.25" gradientUnits="userSpaceOnUse"><stop offset="0.01" stop-color="#12abbb"/><stop offset="0.31" stop-color="#11a9ba"/><stop offset="0.41" stop-color="#0ea2b5"/><stop offset="0.49" stop-color="#0797ac"/><stop offset="0.55" stop-color="#0088a1"/><stop offset="0.98" stop-color="#0088a1"/><stop offset="1" stop-color="#0088a1"/></linearGradient><linearGradient id="Degradado_sin_nombre_4-2" x1="1409.37" y1="1469.68" x2="1467.21" y2="1361.69" xlink:href="#Degradado_sin_nombre_4"/><linearGradient id="New_Gradient_Swatch_1" x1="920.68" y1="1859.79" x2="920.68" y2="1577.15" gradientUnits="userSpaceOnUse"><stop offset="0" stop-color="#90e5ff" stop-opacity="0.45"/><stop offset="1" stop-color="#90e5ff" stop-opacity="0.6"/></linearGradient><symbol id="Cloud" data-name="Cloud" viewBox="0 0 451.25 425.49"><g id="Rubrik_Cloud" data-name="Rubrik Cloud"><g id="Rubrik_Blue" data-name="Rubrik Blue"><g id="Clloud"><g id="Cloud-3" data-name="Cloud"><path class="cls-1" d="M102,48.73C46.27,17.33,1.19,43.5,1,107.65.83,172.29,46.28,251,102.52,283.48l225.13,130c45.8,26.44,83.05,5.21,83.2-47.41.14-49-32-108-73.4-137.23C324.1,155.56,273,77.34,212,42.07,165.63,15.32,124.91,19.85,102,48.73Z"/><g class="cls-2"><path class="cls-1" d="M153.92,26.56c17.72,0,36.87,5.86,56.92,17.44,29,16.73,57.36,44.58,79.91,78.43,22.24,33.37,38,71.29,44.51,106.79l.16.89.75.53c19.86,14,38.19,35.46,51.61,60.42,13.51,25.12,20.91,51.75,20.84,75-.09,34.89-16.86,56.57-43.76,56.57-11.22,0-23.36-3.73-36.09-11.08l-225.14-130C48.09,249.48,3.05,171.48,3.24,107.66c.06-21.6,5.34-39.54,15.27-51.87,9.54-11.85,23-18.11,39-18.11,13.51,0,28.1,4.37,43.38,13l1.65.94,1.18-1.49c12.25-15.41,29.62-23.55,50.23-23.55m0-2.23c-21.35,0-39.34,8.51-52,24.4-16-9-31.06-13.27-44.47-13.27C24.11,35.45,1.14,61.89,1,107.65.83,172.29,46.28,251,102.52,283.48l225.13,130c13.37,7.71,26,11.37,37.21,11.37,27.18,0,45.88-21.52,46-58.78.14-49-32-108-73.4-137.23C324.1,155.56,273,77.34,212,42.07c-20.85-12-40.56-17.74-58-17.74Z"/></g><g class="cls-3"><path class="cls-1" d="M153.92,32.12c16.5,0,35.22,5.77,54.14,16.7,28.25,16.31,56,43.55,78.06,76.7,21.82,32.75,37.33,69.93,43.67,104.69l.57,3.14,2.6,1.83c19.17,13.52,36.9,34.3,49.92,58.51s20.24,50,20.18,72.34c-.05,16.21-3.89,29.52-11.12,38.5-6.59,8.18-16,12.51-27.08,12.51-10.08,0-21.6-3.57-33.31-10.33l-225.13-130c-26-15-50.57-41-69.07-73s-28.63-66.15-28.55-96c.06-20.33,4.91-37.06,14-48.4,8.45-10.49,20.43-16,34.64-16,12.36,0,26.42,4.24,40.64,12.26l5.79,3.27,4.14-5.21c11.16-14,27-21.45,45.87-21.45m0-7.79c-21.35,0-39.34,8.51-52,24.4-16-9-31.06-13.27-44.47-13.27C24.11,35.45,1.14,61.89,1,107.65.83,172.29,46.28,251,102.52,283.48l225.13,130c13.37,7.71,26,11.37,37.21,11.37,27.18,0,45.88-21.52,46-58.78.14-49-32-108-73.4-137.23C324.1,155.56,273,77.34,212,42.07c-20.85-12-40.56-17.74-58-17.74Z"/></g><g id="cloud-4" data-name="cloud"><g class="cls-4"><path class="cls-5" d="M30.72,42.33,69.9,19.56C88.14,9,113.31,10.28,141.13,26L102,48.73C74.14,33,49,31.73,30.72,42.33Z"/><path class="cls-6" d="M425.84,396.47l-39.18,22.76c14.89-8.65,24.12-27,24.19-53.18.14-49-32-108-73.4-137.23l39.18-22.77c41.43,29.21,73.54,88.2,73.4,137.23C450,369.42,440.72,387.82,425.84,396.47Z"/><path class="cls-7" d="M251.13,19.3c-35.94-20.75-68.51-22.68-92-9L119.93,33.06c23.51-13.67,56.08-11.74,92,9C273,77.34,324.1,155.56,337.45,228.82l39.18-22.77C363.28,132.8,312.22,54.57,251.13,19.3Z"/><path class="cls-8" d="M102,48.73C46.27,17.33,1.19,43.5,1,107.65.83,172.29,46.28,251,102.52,283.48l225.13,130c45.8,26.44,83.05,5.21,83.2-47.41.14-49-32-108-73.4-137.23C324.1,155.56,273,77.34,212,42.07,165.63,15.32,124.91,19.85,102,48.73Z"/><g class="cls-2"><path class="cls-1" d="M153.92,26.56c17.72,0,36.87,5.86,56.92,17.44,29,16.73,57.36,44.58,79.91,78.43,22.24,33.37,38,71.29,44.51,106.79l.16.89.75.53c19.86,14,38.19,35.46,51.61,60.42,13.51,25.12,20.91,51.75,20.84,75-.09,34.89-16.86,56.57-43.76,56.57-11.22,0-23.36-3.73-36.09-11.08l-225.14-130C48.09,249.48,3.05,171.48,3.24,107.66c.06-21.6,5.34-39.54,15.27-51.87,9.54-11.85,23-18.11,39-18.11,13.51,0,28.1,4.37,43.38,13l1.65.94,1.18-1.49c12.25-15.41,29.62-23.55,50.23-23.55m0-2.23c-21.35,0-39.34,8.51-52,24.4-16-9-31.06-13.27-44.47-13.27C24.11,35.45,1.14,61.89,1,107.65.83,172.29,46.28,251,102.52,283.48l225.13,130c13.37,7.71,26,11.37,37.21,11.37,27.18,0,45.88-21.52,46-58.78.14-49-32-108-73.4-137.23C324.1,155.56,273,77.34,212,42.07c-20.85-12-40.56-17.74-58-17.74Z"/></g><g class="cls-3"><path class="cls-1" d="M153.92,32.12c16.5,0,35.22,5.77,54.14,16.7,28.25,16.31,56,43.55,78.06,76.7,21.82,32.75,37.33,69.93,43.67,104.69l.57,3.14,2.6,1.83c19.17,13.52,36.9,34.3,49.92,58.51s20.24,50,20.18,72.34c-.05,16.21-3.89,29.52-11.12,38.5-6.59,8.18-16,12.51-27.08,12.51-10.08,0-21.6-3.57-33.31-10.33l-225.13-130c-26-15-50.57-41-69.07-73s-28.63-66.15-28.55-96c.06-20.33,4.91-37.06,14-48.4,8.45-10.49,20.43-16,34.64-16,12.36,0,26.42,4.24,40.64,12.26l5.79,3.27,4.14-5.21c11.16-14,27-21.45,45.87-21.45m0-7.79c-21.35,0-39.34,8.51-52,24.4-16-9-31.06-13.27-44.47-13.27C24.11,35.45,1.14,61.89,1,107.65.83,172.29,46.28,251,102.52,283.48l225.13,130c13.37,7.71,26,11.37,37.21,11.37,27.18,0,45.88-21.52,46-58.78.14-49-32-108-73.4-137.23C324.1,155.56,273,77.34,212,42.07c-20.85-12-40.56-17.74-58-17.74Z"/></g></g></g><path class="cls-9" d="M102,48.73C46.27,17.33,1.19,43.5,1,107.65.83,172.29,46.28,251,102.52,283.48l225.13,130c45.8,26.44,83.05,5.21,83.2-47.41.14-49-32-108-73.4-137.23C324.1,155.56,273,77.34,212,42.07,165.63,15.32,124.91,19.85,102,48.73Z"/><g class="cls-2"><path class="cls-1" d="M153.92,26.56c17.72,0,36.87,5.86,56.92,17.44,29,16.73,57.36,44.58,79.91,78.43,22.24,33.37,38,71.29,44.51,106.79l.16.89.75.53c19.86,14,38.19,35.46,51.61,60.42,13.51,25.12,20.91,51.75,20.84,75-.09,34.89-16.86,56.57-43.76,56.57-11.22,0-23.36-3.73-36.09-11.08l-225.14-130C48.09,249.48,3.05,171.48,3.24,107.66c.06-21.6,5.34-39.54,15.27-51.87,9.54-11.85,23-18.11,39-18.11,13.51,0,28.1,4.37,43.38,13l1.65.94,1.18-1.49c12.25-15.41,29.62-23.55,50.23-23.55m0-2.23c-21.35,0-39.34,8.51-52,24.4-16-9-31.06-13.27-44.47-13.27C24.11,35.45,1.14,61.89,1,107.65.83,172.29,46.28,251,102.52,283.48l225.13,130c13.37,7.71,26,11.37,37.21,11.37,27.18,0,45.88-21.52,46-58.78.14-49-32-108-73.4-137.23C324.1,155.56,273,77.34,212,42.07c-20.85-12-40.56-17.74-58-17.74Z"/></g><g class="cls-3"><path class="cls-1" d="M153.92,32.12c16.5,0,35.22,5.77,54.14,16.7,28.25,16.31,56,43.55,78.06,76.7,21.82,32.75,37.33,69.93,43.67,104.69l.57,3.14,2.6,1.83c19.17,13.52,36.9,34.3,49.92,58.51s20.24,50,20.18,72.34c-.05,16.21-3.89,29.52-11.12,38.5-6.59,8.18-16,12.51-27.08,12.51-10.08,0-21.6-3.57-33.31-10.33l-225.13-130c-26-15-50.57-41-69.07-73s-28.63-66.15-28.55-96c.06-20.33,4.91-37.06,14-48.4,8.45-10.49,20.43-16,34.64-16,12.36,0,26.42,4.24,40.64,12.26l5.79,3.27,4.14-5.21c11.16-14,27-21.45,45.87-21.45m0-7.79c-21.35,0-39.34,8.51-52,24.4-16-9-31.06-13.27-44.47-13.27C24.11,35.45,1.14,61.89,1,107.65.83,172.29,46.28,251,102.52,283.48l225.13,130c13.37,7.71,26,11.37,37.21,11.37,27.18,0,45.88-21.52,46-58.78.14-49-32-108-73.4-137.23C324.1,155.56,273,77.34,212,42.07c-20.85-12-40.56-17.74-58-17.74Z"/></g><path class="cls-10" d="M425.84,396.47l-39.18,22.76c14.89-8.65,24.12-27,24.19-53.18.14-49-32-108-73.4-137.23l39.18-22.77c41.43,29.21,73.54,88.2,73.4,137.23C450,369.42,440.72,387.82,425.84,396.47Z"/><path class="cls-11" d="M251.13,19.3c-35.94-20.75-68.51-22.68-92-9L119.93,33.06c23.51-13.67,56.08-11.74,92,9C273,77.34,324.1,155.56,337.45,228.82l39.18-22.77C363.28,132.8,312.22,54.57,251.13,19.3Z"/><path class="cls-12" d="M32.42,41.38l.9-.45.88-.44.9-.41.91-.41.91-.37.93-.37.94-.34,1-.34,1-.31.95-.29,1-.28,1-.26,1-.23c.33-.07.65-.16,1-.22s.69-.14,1-.2l1-.19,1-.16,1-.15c.35-.05.71-.08,1.07-.12s.68-.09,1-.12l1.09-.08,1-.08L55,35.51l1,0h2.19l1.14,0,1.07,0,1.17.07,1.08.07,1.19.11,1.08.11c.4,0,.79.1,1.19.15l1.12.15,1.18.18,1.14.19,1.21.23L72,37l1.24.28,1.14.25,1.27.33c.38.09.75.18,1.13.29l1.26.35,1.16.34,1.32.41,1.13.36c.45.14.9.3,1.34.46l1.13.39,1.33.5,1.16.43L88,42l1.14.46,1.31.56,1.22.53c.43.19.86.4,1.28.6l1.27.58,1.59.78,1,.48,1.52.79,1.07.56,1,.56c.53.28,1,.57,1.58.87h0a64,64,0,0,1,18.24-15.82l-.26.15,16.53-9.61c-26-13.28-49.34-13.9-66.56-3.89L30.72,42.33l.85-.47Z"/></g></g></g></g></symbol></defs><g class="cls-4"><g id="ARTWORK"><g id="Plant"><g id="Layer1_8_MEMBER_0_FILL" data-name="Layer1 8 MEMBER 0 FILL"><path class="cls-13" d="M744.05,1649.73l-6.71,3.63q-47.91-82.18-50.62-242.9l16.9-17.49q-15.92,122,40.43,256.76M609,1506.49l3.79-3.94q58.83,77.16,86.39,156.6l-11.72,3.9Q665.65,1586.25,609,1506.49Z"/></g><g id="Layer1_8_MEMBER_1_FILL" data-name="Layer1 8 MEMBER 1 FILL"><path class="cls-14" d="M572.73,961.19q79.15,294.16,95.72,636.2-234.26-168.33-332.52-510.78T370.23,511Q527.52,793.32,572.73,961.19Z"/></g><g id="Layer1_8_MEMBER_1_FILL-2" data-name="Layer1 8 MEMBER 1 FILL"><path class="cls-15" d="M572.73,961.19q79.15,294.16,95.72,636.2-234.26-168.33-332.52-510.78T370.23,511Q527.52,793.32,572.73,961.19Z"/></g><g id="Layer1_8_MEMBER_2_FILL" data-name="Layer1 8 MEMBER 2 FILL"><path class="cls-16" d="M729,696.86q93.66,124.89,108.37,298.37T734.05,1372.39q-49.74,105.63-25.25,202-42.69-62.73-81.15-196.12t-4.75-319.54Q642.51,878.64,729,696.86Z"/></g><path class="cls-17" d="M734.69,689.35h0l.12,0-.12,0m-24.28,370.42v.38q34.74-191.66,28.28-293.5,11.44,124.94-13.92,295.62a.41.41,0,0,0,0,.27Q677.27,1308.72,707,1451.08a286.41,286.41,0,0,0-6.29,56.33Q636.58,1374.75,710.41,1059.77Z"/><path class="cls-17" d="M669.47,1598.45q-5.65-4.1-11.27-8.25c-130-254.56-244.56-775.09-288.08-1060.91,59.5,299.56,174.56,761.61,296.7,1041.45C667.75,1580,668.61,1589.21,669.47,1598.45Z"/><g id="Layer1_8_MEMBER_2_FILL-2" data-name="Layer1 8 MEMBER 2 FILL"><path class="cls-16" d="M302.83,1441.85c141.25.86,326.21,106.21,392.44,227.1,21,38.41,8.75-7.14,28.31,14.65C557.23,1692.76,359.89,1605.39,302.83,1441.85Z"/></g><path class="cls-17" d="M670.49,1668.72a103.52,103.52,0,0,0-2.23-12.6c-119.58-63.27-236.61-131-351.76-202,116.15,74.63,233.73,146.92,354,214.73A.66.66,0,0,1,670.49,1668.72Z"/><g class="cls-18"><path class="cls-19" d="M734.05,1372.39Q852,1168.77,837.39,995.23T729,696.86q-86.5,181.77-106.12,361.88-6.72,37-10.57,71.86Q595,1044,572.73,961.19,527.52,793.33,370.23,511,237.75,744,335.93,1086.61q96,334.71,322,503.07l.26.52,1.64,1.2a449.54,449.54,0,0,1,23.37,57.67c-74.5-112.33-246.94-206.41-380.38-207.22,55,157.68,240.43,244.53,402.76,242.35-2.11-1.62-5.25-6-10.32-15.25-1.31-2.39-2.68-4.77-4.07-7.14l8-2.66a502.55,502.55,0,0,0-30.59-70q-.6-6.4-1.23-12.8-2.72-49.94-6.78-98.82,21.3,55,43.8,90.14,12.25,50.15,33,85.66l6.71-3.63q-35.32-84.49-42.24-164Q706.72,1430.47,734.05,1372.39Z"/><path class="cls-20" d="M709,1684.15c4.9-.11,9.78-.28,14.63-.55C712.2,1670.92,711.6,1681,709,1684.15Z"/><path class="cls-21" d="M709,1684.15l-3.36,0C707.14,1685.39,708.14,1685.1,709,1684.15Z"/></g></g><g id="Connector_lines" data-name="Connector lines"><path class="cls-22" d="M1980.22,1115.63v224.08c0,6.55-2.06,11.5-5.65,13.57s-8.89,1.38-14.57-1.9l-223.09-128.69V575.11h-10v641.81l-218.08-125.81c-13.67-7.89-25.22-27.88-25.22-43.66v-223h-10v223c0,19.23,13.56,42.7,30.22,52.32l223.08,128.69v567.86c0,15.78-11.54,35.78-25.2,43.68l-450.82,260.45,5,8.66,450.82-260.46c16.65-9.62,30.2-33.1,30.2-52.33V1234.23L1955,1360.05a30,30,0,0,0,14.82,4.44,19.32,19.32,0,0,0,9.76-2.55c6.86-4,10.64-11.86,10.64-22.23V1115.63Z"/><path class="cls-23" d="M1987.22,1115.63v224.08c0,9.25-3.25,16.23-9.15,19.63a16.28,16.28,0,0,1-8.26,2.14,27,27,0,0,1-13.31-4L1733.91,1229v567.28c0,18.28-12.87,40.59-28.7,49.74l-450.82,260.45-2-3.46,450.82-260.46c14.72-8.5,26.7-29.26,26.7-46.27V1226.73l-224.58-129.56c-15.83-9.14-28.72-31.44-28.72-49.72v-223h4v223c0,17,12,37.76,26.72,46.25l222.58,128.41v-647h4v649.31L1958.5,1354c6.73,3.88,13,4.56,17.57,1.9s7.15-8.41,7.15-16.17V1115.63Z"/><g id="Connector_Lines-2" data-name="Connector Lines"><path id="Connector_Lines-3" data-name="Connector Lines" class="cls-24" d="M1987.22,1060.9v278.61c0,9.25-3.25,16.23-9.15,19.63a16.28,16.28,0,0,1-8.26,2.14,27,27,0,0,1-13.31-4l-222.59-128.41v567.48c0,18.28-12.87,40.59-28.7,49.74l-450.82,260.45-2-3.46,450.82-260.46c14.72-8.5,26.7-29.26,26.7-46.27V1226.53L1505.33,1097c-15.83-9.14-28.72-31.44-28.72-49.72V769.68h4v277.57c0,17,12,37.76,26.72,46.26l222.58,128.4V520.38h4v703.84l224.59,129.56c6.73,3.88,13,4.56,17.57,1.9s7.15-8.41,7.15-16.17V1060.9Z"/></g></g><g id="Folder"><polygon id="Shadow_folder" data-name="Shadow folder" class="cls-25" points="1295.05 2215.31 1795.77 2215.31 1149.43 1844.55 826.27 1921.1 1295.05 2215.31"/><g id="inside_folder" data-name="inside folder"><path class="cls-26" d="M780.94,1039.17q6.48-2.28,14.48.54c2.22,1,4.45,2,6.67,3l.54.34,274.87,150.4,66.26,131.19L1384.51,1474q14.41,8.34,24.58,26a78.52,78.52,0,0,1,8.19,19.43,58.19,58.19,0,0,1,1.92,14.72l-1.33,493q-.58,18.4-6.43,41a213,213,0,0,1-15.65,41.57c-.12.22-.24.43-.34.63a187.34,187.34,0,0,1-23.6,36.17q-13.8,16.38-28.81,25.37l-11.68,7q-15.06,9-28.85,9.13-13.3.2-97.45-48.33t-68.21-51.92q15.87-3.4-369.6-782.67h.1l-.05,0,.4-242q0-16.59,10.25-22.42l.54-.3a.21.21,0,0,0,.1,0c.78-.32,1.56-.67,2.35-1M973.4,1366.79c-2-1.19-3.08-1.68-3.29-1.47l-.84.84Z"/><path class="cls-27" d="M780.94,1039.17q6.48-2.28,14.48.54c2.22,1,4.45,2,6.67,3l.54.34,274.87,150.4,59,133.84,248,146.67q14.41,8.34,24.58,26a78.52,78.52,0,0,1,8.19,19.43,58.19,58.19,0,0,1,1.92,14.72l-1.33,493q-.58,18.4-6.43,41a213,213,0,0,1-15.65,41.57c-.12.22-.24.43-.34.63a187.34,187.34,0,0,1-23.6,36.17q-13.8,16.38-28.81,25.37l-11.68,7q-15.06,9-28.85,9.13-13.3.2-97.45-48.33t-68.21-51.92q15.87-3.4-369.6-782.67h.1l-.05,0,.4-242q0-16.59,10.25-22.42l.54-.3a.21.21,0,0,0,.1,0c.78-.32,1.56-.67,2.35-1M973.4,1366.79c-2-1.19-3.08-1.68-3.29-1.47l-.84.84Z"/></g><g id="Folder-2" data-name="Folder"><path class="cls-28" d="M1270.65,2208.3a44.48,44.48,0,0,1-4.41-3q-12.6-9.9-19.53-28.31a100.91,100.91,0,0,1-3.68-12,139.54,139.54,0,0,1-3.53-32.59v8.12c-.12-2.54-.18-5.14-.18-7.78l-.15-110.7.33-201.86V1629.84c0-20.67-14.62-45.86-32.66-56.28l-545.73-316c-18-10.41-32.65-2.1-32.65,18.57v314.19l-.6,209.55q.92,14.82,10,30.52a74,74,0,0,0,17.27,20.85,56.45,56.45,0,0,0,7.31,5.06l541.29,314.83,6.24,3.58,60.5,33.91a41.84,41.84,0,0,1-3.68-2.5Z"/><path class="cls-29" d="M1270.65,2208.3a44.48,44.48,0,0,1-4.41-3q-12.6-9.9-19.53-28.31a100.91,100.91,0,0,1-3.68-12,139.54,139.54,0,0,1-3.53-32.59v8.12c-.12-2.54-.18-5.14-.18-7.78l-.15-110.7.33-201.86V1629.84c0-20.67-14.62-45.86-32.66-56.28l-545.73-316c-18-10.41-32.65-2.1-32.65,18.57v314.19l-.6,209.55q.92,14.82,10,30.52a74,74,0,0,0,17.27,20.85,56.45,56.45,0,0,0,7.31,5.06l541.29,314.83,6.24,3.58,60.5,33.91a41.84,41.84,0,0,1-3.68-2.5Z"/></g><path class="cls-30" d="M1435.83,1515.23a73.67,73.67,0,0,0-9.47-25.37,84,84,0,0,0-9.07-12.9,61.1,61.1,0,0,0-15.46-13l-39.94-23.06-210.81-121.42-34.87-76,0-.1-2-4.35-9.49-20.65c-7.63-16.63-20-31-33.06-38.56L817.73,1033.23c-8.46-4.88-16.17-5.65-22-2.94l0,0-2.26,1.3,0,0-15.68,9.06a18.07,18.07,0,0,1,9.67-1.41,31.8,31.8,0,0,1,12.3,4.36l253.89,146.57c13.11,7.57,25.43,21.93,33.07,38.57l11.47,25,0,.1,34.14,74.41L1384.51,1474q14.41,8.36,24.58,26a79,79,0,0,1,8.2,19.43,58.57,58.57,0,0,1,1.91,14.72l-1.33,493q-.58,18.4-6.42,41a213.64,213.64,0,0,1-15.66,41.57c-.12.21-.24.43-.34.63a187,187,0,0,1-23.6,36.17q-13.8,16.38-28.81,25.37l-11.68,7q-15.08,9-28.85,9.13a36.22,36.22,0,0,1-23.6-7.9q-10.26-8.1-15.9-23.06a92.5,92.5,0,0,1-5.36-24.39c-.35-3.84-.53-7.82-.53-12l-.29-121,.51-384.16c-1.14-13.38-7.84-28.08-17.29-39.22a58.94,58.94,0,0,0-15.19-13.07L679.13,1247c-8.46-4.89-16.18-5.65-22-2.94h0l-2.25,1.31,0,0-15.69,9.06a18,18,0,0,1,9.67-1.42,32.23,32.23,0,0,1,12.31,4.36l545.73,316.11c18,10.42,32.66,35.61,32.66,56.28v190.28l-.33,201.86.15,110.7c0,.91,0,1.82,0,2.73,0,.57,0,1.12,0,1.68,0,.73,0,1.46.07,2.17,0,.41,0,.8,0,1.2h0q.06,1.67.18,3.3c0,.74.1,1.48.17,2.22,0,.55.09,1.09.14,1.64.14,1.59.32,3.15.52,4.7.06.49.12,1,.19,1.45.09.7.2,1.39.31,2.08.06.39.11.77.18,1.16s.17,1,.26,1.49c.17,1,.35,1.92.55,2.86a1.7,1.7,0,0,0,0,.22c.08.41.16.81.25,1.22.18.82.37,1.64.56,2.45q1.1,4.54,2.53,8.79c.37,1.09.75,2.17,1.15,3.23q6.93,18.41,19.53,28.32a44,44,0,0,0,4.42,3,4.21,4.21,0,0,0,.64.39,6.73,6.73,0,0,0,.78.44,44.57,44.57,0,0,0,23.16,5.84q16.88-.2,35.33-11.24l14.33-8.53q18.49-11,35.38-31.11a227.71,227.71,0,0,0,29-44.41q4.62-9.17,8.49-18.55a255.06,255.06,0,0,0,11.14-33.22,226.87,226.87,0,0,0,6.43-36.36l.44-48.09.59-429.61.39-30.13A55.27,55.27,0,0,0,1435.83,1515.23Z"/><path class="cls-31" d="M1435.83,1515.23a73.67,73.67,0,0,0-9.47-25.37,84,84,0,0,0-9.07-12.9,61.1,61.1,0,0,0-15.46-13l-39.94-23.06-210.81-121.42-34.87-76,0-.1-2-4.35-9.49-20.65c-7.63-16.63-20-31-33.06-38.56L817.73,1033.23c-8.46-4.88-16.17-5.65-22-2.94l0,0-2.26,1.3,0,0-15.68,9.06a18.07,18.07,0,0,1,9.67-1.41,31.8,31.8,0,0,1,12.3,4.36l253.89,146.57c13.11,7.57,25.43,21.93,33.07,38.57l11.47,25,0,.1,34.14,74.41L1384.51,1474q14.41,8.36,24.58,26a79,79,0,0,1,8.2,19.43,58.57,58.57,0,0,1,1.91,14.72l-1.33,493q-.58,18.4-6.42,41a213.64,213.64,0,0,1-15.66,41.57c-.12.21-.24.43-.34.63a187,187,0,0,1-23.6,36.17q-13.8,16.38-28.81,25.37l-11.68,7q-15.08,9-28.85,9.13a36.22,36.22,0,0,1-23.6-7.9q-10.26-8.1-15.9-23.06a92.5,92.5,0,0,1-5.36-24.39c-.35-3.84-.53-7.82-.53-12l-.29-121,.51-384.16c-1.14-13.38-7.84-28.08-17.29-39.22a58.94,58.94,0,0,0-15.19-13.07L679.13,1247c-8.46-4.89-16.18-5.65-22-2.94h0l-2.25,1.31,0,0-15.69,9.06a18,18,0,0,1,9.67-1.42,32.23,32.23,0,0,1,12.31,4.36l545.73,316.11c18,10.42,32.66,35.61,32.66,56.28v190.28l-.33,201.86.15,110.7c0,.91,0,1.82,0,2.73,0,.57,0,1.12,0,1.68,0,.73,0,1.46.07,2.17,0,.41,0,.8,0,1.2h0q.06,1.67.18,3.3c0,.74.1,1.48.17,2.22,0,.55.09,1.09.14,1.64.14,1.59.32,3.15.52,4.7.06.49.12,1,.19,1.45.09.7.2,1.39.31,2.08.06.39.11.77.18,1.16s.17,1,.26,1.49c.17,1,.35,1.92.55,2.86a1.7,1.7,0,0,0,0,.22c.08.41.16.81.25,1.22.18.82.37,1.64.56,2.45q1.1,4.54,2.53,8.79c.37,1.09.75,2.17,1.15,3.23q6.93,18.41,19.53,28.32a44,44,0,0,0,4.42,3,4.21,4.21,0,0,0,.64.39,6.73,6.73,0,0,0,.78.44,44.57,44.57,0,0,0,23.16,5.84q16.88-.2,35.33-11.24l14.33-8.53q18.49-11,35.38-31.11a227.71,227.71,0,0,0,29-44.41q4.62-9.17,8.49-18.55a255.06,255.06,0,0,0,11.14-33.22,226.87,226.87,0,0,0,6.43-36.36l.44-48.09.59-429.61.39-30.13A55.27,55.27,0,0,0,1435.83,1515.23Z"/><path class="cls-32" d="M1436.52,1524.06l-.39,30.13-.29,211.8-17.29,9.86.65-241.78a58.57,58.57,0,0,0-1.91-14.72,79,79,0,0,0-8.2-19.43q-10.15-17.62-24.58-26l-40-23.06-.36.21-37.85-21.73,18.69-10,37.19,21.35-.34.19,39.94,23.06a61.1,61.1,0,0,1,15.46,13,84,84,0,0,1,9.07,12.9,73.67,73.67,0,0,1,9.47,25.37A55.27,55.27,0,0,1,1436.52,1524.06Z"/></g><g id="_Teal" data-name="+ Teal"><g class="cls-4"><path class="cls-33" d="M1424,1696.63l-.29-101.81-20.61-12,.29,101.8c0,2.34.83,4,2.16,4.75l20.61,12C1424.87,1700.61,1424,1699,1424,1696.63Z"/><path class="cls-34" d="M1560.82,1420.67c-1.35-.79-3.22-.68-5.28.51l-88.6,51.15,20.61,12,88.6-51.15c2.06-1.19,3.93-1.3,5.28-.52Z"/><path class="cls-35" d="M1402.93,1509.29l-88.59,51.15a16.28,16.28,0,0,0-7.39,12.81l.16,56.51c0,2.33.83,4,2.16,4.75l20.61,12c-1.33-.77-2.16-2.42-2.17-4.76l-.16-56.51a16.31,16.31,0,0,1,7.39-12.8l88.6-51.15Z"/><path class="cls-36" d="M1479.83,1378.27c4.09-2.37,7.42-.47,7.43,4.23l.29,101.81,88.6-51.15c4.1-2.37,7.43-.47,7.44,4.24l.16,56.51a16.28,16.28,0,0,1-7.39,12.8l-88.6,51.15.29,101.81a16.29,16.29,0,0,1-7.39,12.8l-49.18,28.39c-4.1,2.37-7.43.47-7.44-4.23l-.29-101.81-88.6,51.15c-4.09,2.37-7.42.47-7.44-4.24l-.16-56.51a16.31,16.31,0,0,1,7.39-12.8l88.6-51.15-.29-101.81a16.29,16.29,0,0,1,7.4-12.8Z"/><path class="cls-37" d="M1464.49,1365.77c-1.35-.78-3.21-.67-5.27.52L1410,1394.68a16.31,16.31,0,0,0-7.4,12.81l.29,101.8,20.61,12-.29-101.81a16.29,16.29,0,0,1,7.4-12.8l49.18-28.39c2.05-1.19,3.92-1.3,5.27-.52Z"/></g></g><use width="451.25" height="425.49" transform="translate(1528.47 290.22) scale(0.91)" xlink:href="#Cloud"/><use width="451.25" height="425.49" transform="translate(1275.08 542.37) scale(0.91)" xlink:href="#Cloud"/><use width="451.25" height="425.49" transform="translate(1780.89 834.19) scale(0.91)" xlink:href="#Cloud"/><path id="TagIcon" class="cls-38" d="M1030.29,1642c-.73-.41-1.46-.8-2.19-1.14l-92.71-43.23c-5.17-2.41-10-2.58-13.72-.48l-119.21,67.94c-8.77,5-8.81,21.33-.1,36.42L885.82,1846c4.35,7.54,10.09,13.36,15.83,16.68s11.48,4.11,15.86,1.61l119.22-67.92c3.67-2.11,6-6.37,6.5-12l9.26-101.34c.66-7.3-1.67-16.21-6.41-24.41-4.22-7.31-9.88-13.26-15.79-16.68M1001,1665.72c-4.15-2.4-8.31-3-11.48-1.16-6.36,3.61-6.39,15.41-.08,26.34a33,33,0,0,0,11.45,12.07c4.15,2.4,8.3,3,11.48,1.17,6.35-3.62,6.38-15.42.08-26.34a33.08,33.08,0,0,0-11.45-12.08m-99.34,179a13.74,13.74,0,0,1-4.76-5l-83.46-144.56c-2.62-4.53-2.6-9.45,0-11l119.21-67.93a4.49,4.49,0,0,1,4.13.14l92.71,43.23c.23.11.47.24.69.37a13.66,13.66,0,0,1,4.71,5,13.09,13.09,0,0,1,1.93,7.33l-9.26,101.34a4.4,4.4,0,0,1-2,3.6L906.47,1845.2c-1.32.75-3.05.51-4.77-.49m115.79-240.84a8,8,0,0,0-.77-.4L924,1560.24c-5.17-2.41-10-2.58-13.72-.49l-119.21,67.94c-3.07,1.75-3.08,7.45,0,12.73a15.89,15.89,0,0,0,5.53,5.84c2,1.16,4,1.44,5.55.56l119.21-67.92a4.43,4.43,0,0,1,4.12.13l92.72,43.24c4.3,2,7.47-.57,7.07-5.77-.38-4.88-3.77-10.33-7.76-12.63"/></g></g></svg>