<svg id="ARTWORK" xmlns="http://www.w3.org/2000/svg" xmlns:xlink="http://www.w3.org/1999/xlink" viewBox="0 0 2500 2500"><defs><style>.cls-1{isolation:isolate;}.cls-2{fill:url(#Nueva_muestra_de_degradado_60);}.cls-3{fill:url(#Nueva_muestra_de_degradado_60-2);}.cls-4{fill:url(#Nueva_muestra_de_degradado_60-3);}.cls-5{fill:url(#Nueva_muestra_de_degradado_60-4);}.cls-6{opacity:0.6;}.cls-7{fill:#fff;}.cls-8{opacity:0.17;}.cls-9{fill:#6ad8cf;}.cls-10{fill:#c2ebe8;}.cls-11{fill:url(#Nueva_muestra_de_degradado_45);}.cls-12{fill:#91e2db;}.cls-13{fill:url(#Nueva_muestra_de_degradado_57);}.cls-14{fill:url(#Nueva_muestra_de_degradado_57-2);}.cls-15{fill:url(#Nueva_muestra_de_degradado_57-3);}.cls-16{fill-opacity:0.2;fill:url(#Degradado_sin_nombre_36);}.cls-17{opacity:0.65;fill:url(#Nueva_muestra_de_degradado_58);}.cls-18{fill:url(#Degradado_sin_nombre_57);}.cls-19{fill:#90aac1;}.cls-20{fill:url(#Nueva_muestra_de_degradado_32);}.cls-21{fill:url(#linear-gradient);}.cls-22{fill:url(#linear-gradient-2);}.cls-23{fill:#d4ecf6;}.cls-24{fill:url(#linear-gradient-3);}.cls-25{fill:url(#Degradado_sin_nombre_203);}.cls-26{fill:url(#Degradado_sin_nombre_202);}.cls-27{fill:url(#Degradado_sin_nombre_201);}.cls-28{fill:#39c2ec;}.cls-29{fill:url(#Degradado_sin_nombre_201-2);}.cls-30{fill:#ccd3d8;fill-rule:evenodd;}</style><linearGradient id="Nueva_muestra_de_degradado_60" x1="115.47" y1="-74.15" x2="394.72" y2="113.01" gradientTransform="translate(-189.51)" gradientUnits="userSpaceOnUse"><stop offset="0" stop-color="#fff"/><stop offset="0.51" stop-color="#eef7fb"/><stop offset="0.63" stop-color="#e3f2f9"/><stop offset="0.8" stop-color="#d8eef7"/><stop offset="0.99" stop-color="#d4ecf6"/></linearGradient><linearGradient id="Nueva_muestra_de_degradado_60-2" x1="425.36" y1="147.5" x2="575.89" y2="313.86" xlink:href="#Nueva_muestra_de_degradado_60"/><linearGradient id="Nueva_muestra_de_degradado_60-3" x1="262.27" y1="-79.59" x2="573.21" y2="199.67" xlink:href="#Nueva_muestra_de_degradado_60"/><linearGradient id="Nueva_muestra_de_degradado_60-4" x1="205.42" y1="-34.5" x2="208.42" y2="650.78" gradientTransform="matrix(1, 0, 0, 1, 0, 0)" xlink:href="#Nueva_muestra_de_degradado_60"/><linearGradient id="Nueva_muestra_de_degradado_45" x1="292.01" y1="910.38" x2="175.17" y2="942.53" gradientTransform="matrix(-0.95, 0.32, 0.32, 0.95, 487.25, 98.53)" gradientUnits="userSpaceOnUse"><stop offset="0" stop-color="#c2ebe8" stop-opacity="0.1"/><stop offset="0.05" stop-color="#8fe0d9" stop-opacity="0.1"/><stop offset="0.15" stop-color="#6ad8cf" stop-opacity="0.1"/><stop offset="0.87" stop-color="#43a39b" stop-opacity="0.3"/></linearGradient><linearGradient id="Nueva_muestra_de_degradado_57" x1="397.37" y1="1062.9" x2="877.56" y2="1232.55" gradientUnits="userSpaceOnUse"><stop offset="0" stop-color="#c2ebe8" stop-opacity="0"/><stop offset="0.06" stop-color="#a7e5e0" stop-opacity="0.03"/><stop offset="0.21" stop-color="#79dbd3" stop-opacity="0.08"/><stop offset="0.37" stop-color="#6ad8cf" stop-opacity="0.1"/><stop offset="0.86" stop-color="#43a39b" stop-opacity="0.6"/></linearGradient><linearGradient id="Nueva_muestra_de_degradado_57-2" x1="68.81" y1="1465.18" x2="657.31" y2="1662.62" xlink:href="#Nueva_muestra_de_degradado_57"/><linearGradient id="Nueva_muestra_de_degradado_57-3" x1="67.24" y1="1469.86" x2="655.74" y2="1667.31" xlink:href="#Nueva_muestra_de_degradado_57"/><linearGradient id="Degradado_sin_nombre_36" x1="1250.89" y1="1342.11" x2="1990.22" y2="1342.11" gradientUnits="userSpaceOnUse"><stop offset="0.01" stop-color="#00b287"/><stop offset="0.33" stop-color="#08ad9f"/><stop offset="1" stop-color="#1da1dc"/></linearGradient><linearGradient id="Nueva_muestra_de_degradado_58" x1="1346.48" y1="2076.88" x2="1906.22" y2="636.57" xlink:href="#Degradado_sin_nombre_36"/><linearGradient id="Degradado_sin_nombre_57" x1="1125.38" y1="2188.27" x2="843.72" y2="1960.26" gradientTransform="matrix(-1, 0, 0, 1, 2288.09, 0)" gradientUnits="userSpaceOnUse"><stop offset="0.27" stop-color="#90aac1" stop-opacity="0.5"/><stop offset="0.64" stop-color="#90aac1" stop-opacity="0.1"/><stop offset="0.82" stop-color="#90aac1" stop-opacity="0"/></linearGradient><linearGradient id="Nueva_muestra_de_degradado_32" x1="1381.07" y1="1384.84" x2="480.65" y2="2006.89" gradientUnits="userSpaceOnUse"><stop offset="0" stop-color="#fff" stop-opacity="0.4"/><stop offset="0.24" stop-color="#fff" stop-opacity="0.4"/><stop offset="0.41" stop-color="#b7d4f4" stop-opacity="0.4"/><stop offset="1" stop-color="#b7d4f4" stop-opacity="0"/></linearGradient><linearGradient id="linear-gradient" x1="1381.07" y1="1384.84" x2="480.65" y2="2006.89" gradientUnits="userSpaceOnUse"><stop offset="0.34" stop-color="#01171a" stop-opacity="0"/><stop offset="0.6" stop-color="#01171a" stop-opacity="0.25"/><stop offset="0.98" stop-color="#01171a" stop-opacity="0.95"/><stop offset="1" stop-color="#01171a"/></linearGradient><linearGradient id="linear-gradient-2" x1="1098.02" y1="1479.95" x2="791.91" y2="2012.36" gradientUnits="userSpaceOnUse"><stop offset="0.24" stop-color="#f5f8fa"/><stop offset="0.47" stop-color="#f2f7fa"/><stop offset="0.67" stop-color="#e7f3f8"/><stop offset="0.85" stop-color="#d6edf6"/><stop offset="0.87" stop-color="#d4ecf6"/><stop offset="0.93" stop-color="#89d6ef"/></linearGradient><linearGradient id="linear-gradient-3" x1="607.9" y1="1316.57" x2="995.22" y2="1576.28" gradientUnits="userSpaceOnUse"><stop offset="0.7" stop-color="#f5f8fa" stop-opacity="0.3"/><stop offset="0.71" stop-color="#f4f7fa" stop-opacity="0.29"/><stop offset="0.73" stop-color="#eff6f9" stop-opacity="0.25"/><stop offset="0.74" stop-color="#e7f3f8" stop-opacity="0.18"/><stop offset="0.75" stop-color="#ddeff7" stop-opacity="0.08"/><stop offset="0.75" stop-color="#d4ecf6" stop-opacity="0"/></linearGradient><linearGradient id="Degradado_sin_nombre_203" x1="1419.77" y1="1582.84" x2="1404.52" y2="1759.97" gradientUnits="userSpaceOnUse"><stop offset="0.01" stop-color="#0071b0"/><stop offset="0.37" stop-color="#0f89c6"/><stop offset="0.73" stop-color="#199bd6"/><stop offset="1" stop-color="#1da1dc"/></linearGradient><linearGradient id="Degradado_sin_nombre_202" x1="1449.67" y1="1498.4" x2="1543.89" y2="1440.34" gradientUnits="userSpaceOnUse"><stop offset="0.01" stop-color="#0071b0"/><stop offset="0.1" stop-color="#0579b7"/><stop offset="0.42" stop-color="#128fcc"/><stop offset="0.72" stop-color="#1a9cd8"/><stop offset="1" stop-color="#1da1dc"/></linearGradient><linearGradient id="Degradado_sin_nombre_201" x1="1302.51" y1="1673.29" x2="1384.68" y2="1506.25" gradientUnits="userSpaceOnUse"><stop offset="0.01" stop-color="#0071b0"/><stop offset="0.29" stop-color="#0173b2"/><stop offset="0.39" stop-color="#057ab8"/><stop offset="0.46" stop-color="#0c85c3"/><stop offset="0.52" stop-color="#1696d2"/><stop offset="0.55" stop-color="#1da1dc"/><stop offset="0.98" stop-color="#1da1dc"/><stop offset="1" stop-color="#1da1dc"/></linearGradient><linearGradient id="Degradado_sin_nombre_201-2" x1="1409.37" y1="1469.68" x2="1467.21" y2="1361.69" xlink:href="#Degradado_sin_nombre_201"/><symbol id="Cloud" data-name="Cloud" viewBox="0 0 452.73 426.76"><g id="Cloud-3" data-name="Cloud"><g id="cloud-4" data-name="cloud"><g class="cls-1"><path class="cls-2" d="M30,41.1l39.51-23c18.39-10.69,43.77-9.36,71.82,6.45L101.77,47.55C73.73,31.74,48.35,30.41,30,41.1Z"/><path class="cls-3" d="M428.34,398.17l-39.5,22.95c15-8.72,24.31-27.27,24.39-53.62.14-49.44-32.24-108.91-74-138.37l39.5-22.95c41.77,29.45,74.15,88.93,74,138.36C452.65,370.9,443.35,389.45,428.34,398.17Z"/><path class="cls-4" d="M252.19,17.89C216-3,183.11-5,159.4,8.8l-39.5,23c23.71-13.78,56.55-11.84,92.79,9.08,61.59,35.57,113.07,114.43,126.53,188.29l39.5-22.95C365.26,132.32,313.78,53.45,252.19,17.89Z"/><path class="cls-5" d="M212.69,40.84c61.59,35.57,113.07,114.43,126.53,188.29,41.77,29.46,74.15,88.93,74,138.37-.15,53.06-37.71,74.46-83.89,47.8l-227-131.06C45.64,251.5-.18,172.14,0,107,.18,42.28,45.64,15.9,101.77,47.55,124.93,18.44,166,13.88,212.69,40.84Z"/><g class="cls-6"><path class="cls-7" d="M154.18,26c17.73,0,36.9,5.88,57,17.48,29.12,16.81,57.64,44.81,80.32,78.84,22.36,33.56,38.25,71.69,44.75,107.37l.23,1.22,1,.71c19.93,14.06,38.32,35.6,51.8,60.66,13.56,25.21,21,51.93,20.92,75.23-.1,34.69-16.7,56.25-43.34,56.25-11.17,0-23.29-3.72-36-11.07l-227-131C48.08,249.41,2.84,171.07,3,107c.12-43,20.78-69.78,53.91-69.78,13.48,0,28.06,4.37,43.35,13l2.25,1.27,1.6-2c12.2-15.35,29.5-23.46,50-23.46h0m0-3c-21.52,0-39.67,8.58-52.39,24.59-16.1-9.07-31.31-13.37-44.84-13.37C23.3,34.18.13,60.83,0,107-.18,172.14,45.64,251.5,102.35,284.24l227,131.06c13.48,7.78,26.23,11.47,37.52,11.47,27.4,0,46.26-21.7,46.37-59.27.14-49.44-32.24-108.91-74-138.37C325.76,155.27,274.28,76.41,212.69,40.84,191.66,28.71,171.79,23,154.17,23Z"/></g><g class="cls-8"><path class="cls-7" d="M154.18,23V33.55h0c16.15,0,34.55,5.69,53.21,16.47,28.13,16.23,55.76,43.4,77.8,76.48C307,159.22,322.48,196.34,328.8,231l.78,4.26,3.54,2.5c19,13.39,36.56,34,49.49,58s20.09,49.57,20,71.63c-.09,30.5-13.46,48.7-35.78,48.7-9.69,0-20.83-3.47-32.22-10.05l-227-131C81.8,260.15,57.43,234.37,39,202.47S10.51,136.67,10.59,107c.06-19.86,4.75-36.15,13.56-47.09,8-9.91,19.32-15.14,32.79-15.14,12,0,25.69,4.15,39.63,12l7.87,4.44,5.63-7.07c10.71-13.48,26-20.6,44.1-20.6V23m0,0c-21.52,0-39.67,8.58-52.39,24.59-16.1-9.07-31.31-13.37-44.84-13.37C23.3,34.18.13,60.83,0,107-.18,172.14,45.64,251.5,102.35,284.24l227,131.06c13.48,7.78,26.23,11.47,37.52,11.47,27.4,0,46.26-21.7,46.37-59.27.14-49.44-32.24-108.91-74-138.37C325.76,155.27,274.28,76.41,212.69,40.84,191.66,28.71,171.79,23,154.17,23Z"/></g></g></g></g></symbol></defs><g id="Plant11"><g id="Layer1_8_MEMBER_0_FILL" data-name="Layer1 8 MEMBER 0 FILL"><path class="cls-9" d="M744.37,1650l-6.71,3.64q-48-82.35-50.72-243.35l16.94-17.52q-16,122.2,40.49,257.23m-135.29-143.5,3.81-4q58.92,77.29,86.54,156.89l-11.74,3.9Q665.84,1586.44,609.08,1506.54Z"/></g><g id="Layer1_8_MEMBER_1_FILL" data-name="Layer1 8 MEMBER 1 FILL"><path class="cls-10" d="M572.74,960.23q79.29,294.7,95.9,637.37Q433.95,1429,335.51,1085.89q-98.37-343.23,34.36-576.72Q527.45,792.06,572.74,960.23Z"/></g><g id="Layer1_8_MEMBER_1_FILL-2" data-name="Layer1 8 MEMBER 1 FILL"><path class="cls-11" d="M572.74,960.23q79.29,294.7,95.9,637.37Q433.95,1429,335.51,1085.89q-98.37-343.23,34.36-576.72Q527.45,792.06,572.74,960.23Z"/></g><g id="Layer1_8_MEMBER_2_FILL" data-name="Layer1 8 MEMBER 2 FILL"><path class="cls-12" d="M729.32,695.41q93.82,125.12,108.57,298.92T734.36,1372.19q-49.83,105.81-25.3,202.38-42.78-62.83-81.3-196.48T623,1058Q642.65,877.52,729.32,695.41Z"/></g><path class="cls-9" d="M735,687.9h0l.12,0-.12,0M710.68,1059v.39q34.8-192,28.33-294.05,11.46,125.17-14,296.17a.41.41,0,0,0,0,.27Q677.47,1308.4,707.24,1451a286.77,286.77,0,0,0-6.3,56.44Q636.71,1374.54,710.68,1059Z"/><path class="cls-9" d="M669.66,1598.66q-5.67-4.1-11.29-8.26c-130.2-255-245-776.52-288.61-1062.86,59.61,300.11,174.88,763,297.24,1043.36C667.94,1580.15,668.8,1589.4,669.66,1598.66Z"/><g id="Layer1_8_MEMBER_2_FILL-2" data-name="Layer1 8 MEMBER 2 FILL"><path class="cls-12" d="M302.34,1441.78c141.51.86,326.82,106.4,393.17,227.51,21.08,38.48,8.76-7.15,28.36,14.68C557.21,1693.15,359.51,1605.62,302.34,1441.78Z"/></g><path class="cls-9" d="M670.68,1669.07a104,104,0,0,0-2.23-12.63C548.65,1593.05,431.4,1525.22,316,1454.07c116.37,74.77,234.16,147.2,354.65,215.14C670.69,1669.16,670.68,1669.12,670.68,1669.07Z"/><path class="cls-13" d="M734.36,1372.19q118.15-204,103.53-377.86T729.32,695.41Q642.65,877.53,623,1058q-6.74,37.05-10.58,72-17.35-86.76-39.68-169.72Q527.45,792.05,369.87,509.17q-132.74,233.49-34.36,576.72,96.21,335.31,322.59,504l.27.52,1.65,1.21a452.56,452.56,0,0,1,23.41,57.77c-74.64-112.54-247.4-206.79-381.09-207.6,55.12,158,240.88,245,403.5,242.79-2.11-1.62-5.25-6-10.33-15.28-1.31-2.39-2.68-4.77-4.09-7.15l8-2.66a503.85,503.85,0,0,0-30.64-70.1q-.6-6.42-1.24-12.83-2.71-50-6.79-99,21.35,55.08,43.88,90.31,12.29,50.23,33,85.82l6.71-3.64q-35.39-84.66-42.31-164.27Q707,1430.38,734.36,1372.19Z"/><path class="cls-14" d="M709.21,1684.52q7.37-.15,14.66-.55C712.47,1671.27,711.87,1681.4,709.21,1684.52Z"/><path class="cls-15" d="M709.21,1684.52l-3.37,0C707.4,1685.76,708.4,1685.47,709.21,1684.52Z"/></g><g id="Connector_lines" data-name="Connector lines"><path class="cls-16" d="M1980.22,1115.63v224.08c0,6.55-2.06,11.5-5.65,13.57s-8.89,1.38-14.57-1.9l-223.09-128.69V575.11h-10v641.81l-218.08-125.81c-13.67-7.89-25.22-27.88-25.22-43.66v-223h-10v223c0,19.23,13.56,42.7,30.22,52.32l223.08,128.69v567.86c0,15.78-11.54,35.78-25.2,43.68l-450.82,260.45,5,8.66,450.82-260.46c16.65-9.62,30.2-33.1,30.2-52.33V1234.23L1955,1360.05a30,30,0,0,0,14.82,4.44,19.32,19.32,0,0,0,9.76-2.55c6.86-4,10.64-11.86,10.64-22.23V1115.63Z"/><path class="cls-17" d="M1987.22,1115.63v224.08c0,9.25-3.25,16.23-9.15,19.63a16.28,16.28,0,0,1-8.26,2.14,27,27,0,0,1-13.31-4L1733.91,1229v567.28c0,18.28-12.87,40.59-28.7,49.74l-450.82,260.45-2-3.46,450.82-260.46c14.72-8.5,26.7-29.26,26.7-46.27V1226.73l-224.58-129.56c-15.83-9.14-28.72-31.44-28.72-49.72v-223h4v223c0,17,12,37.76,26.72,46.25l222.58,128.41v-647h4v649.31L1958.5,1354c6.73,3.88,13,4.56,17.57,1.9s7.15-8.41,7.15-16.17V1115.63Z"/></g><g id="Folder"><polygon id="Shadow_folder" data-name="Shadow folder" class="cls-18" points="1295.05 2215.31 1795.77 2215.31 1149.43 1844.55 826.27 1921.1 1295.05 2215.31"/><g id="inside_folder" data-name="inside folder"><path class="cls-19" d="M780.94,1039.3q6.48-2.28,14.48.54c2.22,1,4.45,2,6.67,3,.18.13.36.24.54.35l270.68,148.29,66.92,130.74L1384.51,1474q14.41,8.34,24.58,26a78.52,78.52,0,0,1,8.19,19.43,58.19,58.19,0,0,1,1.92,14.72l-1.33,493q-.58,18.4-6.43,41a213,213,0,0,1-15.65,41.57c-.12.22-.24.43-.34.63a187.34,187.34,0,0,1-23.6,36.17q-13.8,16.38-28.81,25.37l-11.68,7q-15.06,9-28.85,9.13c-8.87.13-32.56-1-97.45-48.33q-84.15-48.53-68.21-51.92T767.25,1305h.1l-.05,0,.4-241.82q0-16.59,10.25-22.43l.54-.29a.21.21,0,0,0,.1-.05c.78-.33,1.56-.67,2.35-1"/><path class="cls-20" d="M780.94,1039.3q6.48-2.28,14.48.54c2.22,1,4.45,2,6.67,3,.18.13.36.24.54.35l272.44,149.61,73.77,133.62L1384.51,1474q14.41,8.34,24.58,26a78.52,78.52,0,0,1,8.19,19.43,58.19,58.19,0,0,1,1.92,14.72l-1.33,493q-.58,18.4-6.43,41a213,213,0,0,1-15.65,41.57c-.12.22-.24.43-.34.63a187.34,187.34,0,0,1-23.6,36.17q-13.8,16.38-28.81,25.37l-11.68,7q-15.06,9-28.85,9.13-13.3.2-97.45-48.33t-68.21-51.92q15.87-3.4-369.6-782.67h.1l-.05,0,.4-241.82q0-16.59,10.25-22.43l.54-.29a.21.21,0,0,0,.1-.05c.78-.33,1.56-.67,2.35-1"/><path class="cls-21" d="M780.94,1039.3q6.48-2.28,14.48.54c2.22,1,4.45,2,6.67,3,.18.13.36.24.54.35l270.24,145.42,68.68,138.47,243,146.89q14.41,8.34,24.58,26a78.52,78.52,0,0,1,8.19,19.43,58.19,58.19,0,0,1,1.92,14.72l-1.33,493q-.58,18.4-6.43,41a213,213,0,0,1-15.65,41.57c-.12.22-.24.43-.34.63a187.34,187.34,0,0,1-23.6,36.17q-13.8,16.38-28.81,25.37l-11.68,7q-15.06,9-28.85,9.13-13.3.2-97.45-48.33t-68.21-51.92q15.87-3.4-369.6-782.67h.1l-.05,0,.4-241.82q0-16.59,10.25-22.43l.54-.29a.21.21,0,0,0,.1-.05c.78-.33,1.56-.67,2.35-1"/></g><g id="Folder-2" data-name="Folder"><path class="cls-22" d="M1270.65,2208.3a44.48,44.48,0,0,1-4.41-3q-12.6-9.9-19.53-28.31a100.91,100.91,0,0,1-3.68-12,139.54,139.54,0,0,1-3.53-32.59v8.12c-.12-2.54-.18-5.14-.18-7.78l-.15-110.7.33-201.86V1629.84c0-20.67-14.62-45.86-32.66-56.28L661.1,1258.24c-18-10.41-32.65-2.1-32.65,18.57v313.53l-.6,209.55q.92,14.82,10,30.52a74,74,0,0,0,17.27,20.85,56.45,56.45,0,0,0,7.31,5.06l541.29,314.83,6.24,3.58,60.5,33.91a41.84,41.84,0,0,1-3.68-2.5Z"/><path class="cls-7" d="M646.43,1255.75c4.16,0,8.89,1.46,13.67,4.23l545.73,315.32c17.46,10.07,31.66,34.54,31.66,54.54v190.28l-.33,201.86.15,110.7c0,2.66.06,5.31.18,7.87h.2a134.55,134.55,0,0,0,3.39,24.84,103.1,103.1,0,0,0,3.76,12.26,72.87,72.87,0,0,0,11.75,20.92L1211,2173c-1.69-1-3.76-2.14-6.22-3.57l-541.3-314.83a56.07,56.07,0,0,1-7.05-4.88,72.36,72.36,0,0,1-16.8-20.31c-5.87-10.12-9.15-20.07-9.74-29.57l.6-209.49V1276.81c0-6.6,1.57-12,4.55-15.76a14.11,14.11,0,0,1,11.43-5.3m0-2c-10.67,0-18,8.44-18,23.06v313.53l-.6,209.55q.92,14.82,10,30.52a74,74,0,0,0,17.27,20.85,56.45,56.45,0,0,0,7.31,5.06l541.29,314.83,6.24,3.58,60.5,33.91a41.84,41.84,0,0,1-3.68-2.5l3.86,2.16a44.48,44.48,0,0,1-4.41-3q-12.6-9.9-19.53-28.31a100.91,100.91,0,0,1-3.68-12,139.54,139.54,0,0,1-3.53-32.59v8.12c-.12-2.54-.18-5.14-.18-7.78l-.15-110.7.33-201.86V1629.84c0-20.67-14.62-45.86-32.66-56.28L661.1,1258.24c-5.28-3-10.26-4.49-14.67-4.49Z"/></g><path class="cls-23" d="M1435.83,1515.23a73.67,73.67,0,0,0-9.47-25.37,84,84,0,0,0-9.07-12.9,61.1,61.1,0,0,0-15.46-13l-39.94-23.06-210.81-121.42-34.87-76,0-.1-2-4.35-9.49-20.65c-7.63-16.63-20-31-33.06-38.56L817.73,1033.23c-8.46-4.88-16.17-5.65-22-2.94l0,0-2.26,1.3,0,0-15.68,9.06a18.07,18.07,0,0,1,9.67-1.41,31.8,31.8,0,0,1,12.3,4.36l253.89,146.57c13.11,7.57,25.43,21.93,33.07,38.57l11.47,25,0,.1,34.14,74.41L1384.51,1474q14.41,8.36,24.58,26a79,79,0,0,1,8.2,19.43,58.57,58.57,0,0,1,1.91,14.72l-1.33,493q-.58,18.4-6.42,41a213.64,213.64,0,0,1-15.66,41.57c-.12.21-.24.43-.34.63a187,187,0,0,1-23.6,36.17q-13.8,16.38-28.81,25.37l-11.68,7q-15.08,9-28.85,9.13a36.22,36.22,0,0,1-23.6-7.9q-10.26-8.1-15.9-23.06a92.5,92.5,0,0,1-5.36-24.39c-.35-3.84-.53-7.82-.53-12l-.29-121,.51-384.16c-1.14-13.38-7.84-28.08-17.29-39.22a58.94,58.94,0,0,0-15.19-13.07L679.13,1247c-8.46-4.89-16.18-5.65-22-2.94h0l-2.25,1.31,0,0-15.69,9.06a18,18,0,0,1,9.67-1.42,32.23,32.23,0,0,1,12.31,4.36l545.73,316.11c18,10.42,32.66,35.61,32.66,56.28v190.28l-.33,201.86.15,110.7c0,.91,0,1.82,0,2.73,0,.57,0,1.12,0,1.68,0,.73,0,1.46.07,2.17,0,.41,0,.8,0,1.2h0q.06,1.67.18,3.3c0,.74.1,1.48.17,2.22,0,.55.09,1.09.14,1.64.14,1.59.32,3.15.52,4.7.06.49.12,1,.19,1.45.09.7.2,1.39.31,2.08.06.39.11.77.18,1.16s.17,1,.26,1.49c.17,1,.35,1.92.55,2.86a1.7,1.7,0,0,0,0,.22c.08.41.16.81.25,1.22.18.82.37,1.64.56,2.45q1.1,4.54,2.53,8.79c.37,1.09.75,2.17,1.15,3.23q6.93,18.41,19.53,28.32a44,44,0,0,0,4.42,3,4.21,4.21,0,0,0,.64.39,6.73,6.73,0,0,0,.78.44,44.57,44.57,0,0,0,23.16,5.84q16.88-.2,35.33-11.24l14.33-8.53q18.49-11,35.38-31.11a227.71,227.71,0,0,0,29-44.41q4.62-9.17,8.49-18.55a255.06,255.06,0,0,0,11.14-33.22,226.87,226.87,0,0,0,6.43-36.36l.44-48.09.59-429.61.39-30.13A55.27,55.27,0,0,0,1435.83,1515.23Z"/><path class="cls-24" d="M1435.83,1515.23a73.67,73.67,0,0,0-9.47-25.37,84,84,0,0,0-9.07-12.9,61.1,61.1,0,0,0-15.46-13l-39.94-23.06-210.81-121.42-34.87-76,0-.1-2-4.35-9.49-20.65c-7.63-16.63-20-31-33.06-38.56L817.73,1033.23c-8.46-4.88-16.17-5.65-22-2.94l0,0-2.26,1.3,0,0-15.68,9.06a18.07,18.07,0,0,1,9.67-1.41,31.8,31.8,0,0,1,12.3,4.36l253.89,146.57c13.11,7.57,25.43,21.93,33.07,38.57l11.47,25,0,.1,34.14,74.41L1384.51,1474q14.41,8.36,24.58,26a79,79,0,0,1,8.2,19.43,58.57,58.57,0,0,1,1.91,14.72l-1.33,493q-.58,18.4-6.42,41a213.64,213.64,0,0,1-15.66,41.57c-.12.21-.24.43-.34.63a187,187,0,0,1-23.6,36.17q-13.8,16.38-28.81,25.37l-11.68,7q-15.08,9-28.85,9.13a36.22,36.22,0,0,1-23.6-7.9q-10.26-8.1-15.9-23.06a92.5,92.5,0,0,1-5.36-24.39c-.35-3.84-.53-7.82-.53-12l-.29-121,.51-384.16c-1.14-13.38-7.84-28.08-17.29-39.22a58.94,58.94,0,0,0-15.19-13.07L679.13,1247c-8.46-4.89-16.18-5.65-22-2.94h0l-2.25,1.31,0,0-15.69,9.06a18,18,0,0,1,9.67-1.42,32.23,32.23,0,0,1,12.31,4.36l545.73,316.11c18,10.42,32.66,35.61,32.66,56.28v190.28l-.33,201.86.15,110.7c0,.91,0,1.82,0,2.73,0,.57,0,1.12,0,1.68,0,.73,0,1.46.07,2.17,0,.41,0,.8,0,1.2h0q.06,1.67.18,3.3c0,.74.1,1.48.17,2.22,0,.55.09,1.09.14,1.64.14,1.59.32,3.15.52,4.7.06.49.12,1,.19,1.45.09.7.2,1.39.31,2.08.06.39.11.77.18,1.16s.17,1,.26,1.49c.17,1,.35,1.92.55,2.86a1.7,1.7,0,0,0,0,.22c.08.41.16.81.25,1.22.18.82.37,1.64.56,2.45q1.1,4.54,2.53,8.79c.37,1.09.75,2.17,1.15,3.23q6.93,18.41,19.53,28.32a44,44,0,0,0,4.42,3,4.21,4.21,0,0,0,.64.39,6.73,6.73,0,0,0,.78.44,44.57,44.57,0,0,0,23.16,5.84q16.88-.2,35.33-11.24l14.33-8.53q18.49-11,35.38-31.11a227.71,227.71,0,0,0,29-44.41q4.62-9.17,8.49-18.55a255.06,255.06,0,0,0,11.14-33.22,226.87,226.87,0,0,0,6.43-36.36l.44-48.09.59-429.61.39-30.13A55.27,55.27,0,0,0,1435.83,1515.23Z"/></g><g id="_Blue" data-name="+ Blue"><g class="cls-1"><path class="cls-25" d="M1424,1696.63l-.29-101.81-20.61-12,.29,101.8c0,2.34.83,4,2.16,4.75l20.61,12C1424.87,1700.61,1424,1699,1424,1696.63Z"/><path class="cls-26" d="M1560.82,1420.67c-1.35-.79-3.22-.68-5.28.51l-88.6,51.15,20.61,12,88.6-51.15c2.06-1.19,3.93-1.3,5.28-.52Z"/><path class="cls-27" d="M1402.93,1509.29l-88.59,51.15a16.28,16.28,0,0,0-7.39,12.81l.16,56.51c0,2.33.83,4,2.16,4.75l20.61,12c-1.33-.77-2.16-2.42-2.17-4.76l-.16-56.51a16.31,16.31,0,0,1,7.39-12.8l88.6-51.15Z"/><path class="cls-28" d="M1479.83,1378.27c4.09-2.37,7.42-.47,7.43,4.23l.29,101.81,88.6-51.15c4.1-2.37,7.43-.47,7.44,4.24l.16,56.51a16.28,16.28,0,0,1-7.39,12.8l-88.6,51.15.29,101.81a16.29,16.29,0,0,1-7.39,12.8l-49.18,28.39c-4.1,2.37-7.43.47-7.44-4.23l-.29-101.81-88.6,51.15c-4.09,2.37-7.42.47-7.44-4.24l-.16-56.51a16.31,16.31,0,0,1,7.39-12.8l88.6-51.15-.29-101.81a16.29,16.29,0,0,1,7.4-12.8Z"/><path class="cls-29" d="M1464.49,1365.77c-1.35-.78-3.21-.67-5.27.52L1410,1394.68a16.31,16.31,0,0,0-7.4,12.81l.29,101.8,20.61,12-.29-101.81a16.29,16.29,0,0,1,7.4-12.8l49.18-28.39c2.05-1.19,3.92-1.3,5.27-.52Z"/></g></g><path id="TagIcon" class="cls-30" d="M1030.29,1642c-.73-.41-1.46-.8-2.19-1.14l-92.71-43.23c-5.17-2.41-10-2.58-13.72-.48l-119.21,67.94c-8.77,5-8.81,21.33-.1,36.42L885.82,1846c4.35,7.54,10.09,13.36,15.83,16.68s11.48,4.11,15.86,1.61l119.22-67.92c3.67-2.11,6-6.37,6.5-12l9.26-101.34c.66-7.3-1.67-16.21-6.41-24.41-4.22-7.31-9.88-13.26-15.79-16.68M1001,1665.72c-4.15-2.4-8.31-3-11.48-1.16-6.36,3.61-6.39,15.41-.08,26.34a33,33,0,0,0,11.45,12.07c4.15,2.4,8.3,3,11.48,1.17,6.35-3.62,6.38-15.42.08-26.34a33.08,33.08,0,0,0-11.45-12.08m-99.34,179a13.74,13.74,0,0,1-4.76-5l-83.46-144.56c-2.62-4.53-2.6-9.45,0-11l119.21-67.93a4.49,4.49,0,0,1,4.13.14l92.71,43.23c.23.11.47.24.69.37a13.66,13.66,0,0,1,4.71,5,13.09,13.09,0,0,1,1.93,7.33l-9.26,101.34a4.4,4.4,0,0,1-2,3.6L906.47,1845.2c-1.32.75-3.05.51-4.77-.49m115.79-240.84a8,8,0,0,0-.77-.4L924,1560.24c-5.17-2.41-10-2.58-13.72-.49l-119.21,67.94c-3.07,1.75-3.08,7.45,0,12.73a15.89,15.89,0,0,0,5.53,5.84c2,1.16,4,1.44,5.55.56l119.21-67.92a4.43,4.43,0,0,1,4.12.13l92.72,43.24c4.3,2,7.47-.57,7.07-5.77-.38-4.88-3.77-10.33-7.76-12.63"/><use width="452.73" height="426.77" transform="translate(1527.79 288.45) scale(0.91)" xlink:href="#Cloud"/><use width="452.73" height="426.77" transform="translate(1274.4 540.6) scale(0.91)" xlink:href="#Cloud"/><use width="452.73" height="426.77" transform="translate(1780.22 832.43) scale(0.91)" xlink:href="#Cloud"/></svg>