<svg id="Artwork" xmlns="http://www.w3.org/2000/svg" xmlns:xlink="http://www.w3.org/1999/xlink" viewBox="0 0 2500 2500"><defs><style>.cls-1{fill:url(#linear-gradient);}.cls-2{fill:url(#linear-gradient-2);}.cls-3{fill:url(#linear-gradient-3);}.cls-4{fill:url(#linear-gradient-4);}.cls-5{fill:url(#linear-gradient-5);}.cls-6{fill:url(#linear-gradient-6);}.cls-7{fill:url(#linear-gradient-7);}.cls-8{fill:url(#linear-gradient-8);}.cls-9{fill:url(#Degradado_sin_nombre_20);}.cls-10{fill:url(#Degradado_sin_nombre_28);}.cls-11{opacity:0.16;}.cls-12{fill:#85d8d1;}.cls-13{opacity:0.18;}.cls-14{fill:#333a45;}.cls-15,.cls-23{fill:none;}.cls-15{stroke:#333a45;stroke-width:7.33px;opacity:0.47;}.cls-16{fill:url(#Nueva_muestra_de_degradado_11);}.cls-17{fill:#fafbfc;}.cls-18{fill:#fff;}.cls-19{fill:url(#linear-gradient-9);}.cls-20{fill:#f1f3f6;}.cls-21{fill:url(#linear-gradient-10);}.cls-22{fill:url(#Degradado_sin_nombre_97);}.cls-23{stroke:#fff;stroke-width:1.06px;opacity:0.75;}.cls-24{opacity:0.2;}.cls-25{fill:#9aa8b1;}.cls-25,.cls-26{fill-rule:evenodd;}.cls-26{fill:#ccd3d8;}.cls-27{fill:url(#linear-gradient-11);}.cls-28{fill:url(#Nueva_muestra_de_degradado_11-3);}.cls-29,.cls-30,.cls-31,.cls-32,.cls-33,.cls-34,.cls-35,.cls-36,.cls-37,.cls-38{fill-opacity:0.17;}.cls-29{fill:url(#Nueva_muestra_de_degradado_58);}.cls-30{fill:url(#Nueva_muestra_de_degradado_58-2);}.cls-31{fill:url(#Nueva_muestra_de_degradado_58-3);}.cls-32{fill:url(#Nueva_muestra_de_degradado_58-4);}.cls-33{fill:url(#Nueva_muestra_de_degradado_58-5);}.cls-34{fill:url(#Nueva_muestra_de_degradado_58-6);}.cls-35{fill:url(#Nueva_muestra_de_degradado_58-7);}.cls-36{fill:url(#Nueva_muestra_de_degradado_58-8);}.cls-37{fill:url(#Nueva_muestra_de_degradado_58-9);}.cls-38{fill:url(#Nueva_muestra_de_degradado_58-10);}.cls-39{isolation:isolate;}.cls-40{fill:url(#Degradado_sin_nombre_203);}.cls-41{fill:url(#Degradado_sin_nombre_202);}.cls-42{fill:url(#Degradado_sin_nombre_201);}.cls-43{fill:#39c2ec;}.cls-44{fill:url(#Degradado_sin_nombre_201-2);}</style><linearGradient id="linear-gradient" x1="1020.46" y1="1638.62" x2="1117.79" y2="1509.83" gradientTransform="matrix(0.99, 0.16, -0.16, 0.99, 142.99, -70.27)" gradientUnits="userSpaceOnUse"><stop offset="0" stop-color="#91e2db"/><stop offset="0.2" stop-color="#88dbd4"/><stop offset="0.59" stop-color="#7dd2cb"/><stop offset="1" stop-color="#79cfc8"/></linearGradient><linearGradient id="linear-gradient-2" x1="1062.1" y1="1607.32" x2="1171.42" y2="1445.59" xlink:href="#linear-gradient"/><linearGradient id="linear-gradient-3" x1="718.63" y1="1274.66" x2="1006.14" y2="1150.37" gradientTransform="matrix(0.99, 0.16, -0.16, 0.99, 142.99, -70.27)" gradientUnits="userSpaceOnUse"><stop offset="0" stop-color="#c2ebe8"/><stop offset="1" stop-color="#91e2db"/></linearGradient><linearGradient id="linear-gradient-4" x1="838.92" y1="1209.25" x2="987.17" y2="1116.41" gradientTransform="matrix(0.99, 0.16, -0.16, 0.99, 142.99, -70.27)" gradientUnits="userSpaceOnUse"><stop offset="0" stop-color="#c2ebe8"/><stop offset="0.16" stop-color="#b3e8e4"/><stop offset="0.43" stop-color="#a0e5df"/><stop offset="0.7" stop-color="#95e3dc"/><stop offset="1" stop-color="#91e2db"/></linearGradient><linearGradient id="linear-gradient-5" x1="694.65" y1="738.66" x2="1048.05" y2="874.93" xlink:href="#linear-gradient"/><linearGradient id="linear-gradient-6" x1="871.28" y1="680.07" x2="1134.39" y2="861.84" gradientTransform="matrix(0.99, 0.16, -0.16, 0.99, 142.99, -70.27)" gradientUnits="userSpaceOnUse"><stop offset="0" stop-color="#91e2db"/><stop offset="1" stop-color="#79cfc8"/></linearGradient><linearGradient id="linear-gradient-7" x1="1227.16" y1="749.22" x2="1174.75" y2="855.54" xlink:href="#linear-gradient-4"/><linearGradient id="linear-gradient-8" x1="1413.04" y1="628.75" x2="1125.52" y2="812.94" xlink:href="#linear-gradient-4"/><radialGradient id="Degradado_sin_nombre_20" cx="1280.41" cy="1306.46" r="608.81" gradientTransform="matrix(0.93, -0.36, 0.58, 1.5, -755.55, -78.76)" gradientUnits="userSpaceOnUse"><stop offset="0.36" stop-color="#43a39b" stop-opacity="0.6"/><stop offset="0.45" stop-color="#4db0a8" stop-opacity="0.47"/><stop offset="0.65" stop-color="#66d3ca" stop-opacity="0.15"/><stop offset="0.67" stop-color="#6ad8cf" stop-opacity="0.1"/></radialGradient><linearGradient id="Degradado_sin_nombre_28" x1="1349.76" y1="1878.62" x2="1800.52" y2="1878.62" gradientUnits="userSpaceOnUse"><stop offset="0" stop-color="#5d7586" stop-opacity="0.07"/><stop offset="0.64" stop-color="#5d7586" stop-opacity="0.05"/><stop offset="1" stop-color="#5d7586" stop-opacity="0"/></linearGradient><linearGradient id="Nueva_muestra_de_degradado_11" x1="1011.72" y1="1187.66" x2="1781.57" y2="1296.6" gradientUnits="userSpaceOnUse"><stop offset="0" stop-color="#fafbfc"/><stop offset="0.55" stop-color="#f5f8fa"/><stop offset="0.99" stop-color="#e6f4fa"/><stop offset="0.99" stop-color="#d4ecf6" stop-opacity="0.9"/></linearGradient><linearGradient id="linear-gradient-9" x1="987.71" y1="1641.31" x2="1733.08" y2="1641.31" gradientUnits="userSpaceOnUse"><stop offset="0" stop-color="#e5f4fa"/><stop offset="0.41" stop-color="#e5f4fa"/><stop offset="0.51" stop-color="#d5eaf7"/><stop offset="0.58" stop-color="#c8e3f5"/><stop offset="0.74" stop-color="#cbe4f4"/><stop offset="1" stop-color="#cee7f5"/></linearGradient><linearGradient id="linear-gradient-10" x1="1269.82" y1="1798.21" x2="1070.73" y2="1416.9" gradientUnits="userSpaceOnUse"><stop offset="0" stop-color="#d8dee6" stop-opacity="0"/><stop offset="0.41" stop-color="#d8dee6" stop-opacity="0.5"/></linearGradient><linearGradient id="Degradado_sin_nombre_97" x1="1172.52" y1="1518.74" x2="1156.88" y2="1858.32" gradientUnits="userSpaceOnUse"><stop offset="0" stop-color="#fafbfc"/><stop offset="0.48" stop-color="#f6f9fa"/><stop offset="0.55" stop-color="#f5f8fa"/><stop offset="0.99" stop-color="#e5f4fa"/></linearGradient><linearGradient id="linear-gradient-11" x1="984.57" y1="1241.27" x2="1740.31" y2="1241.27" gradientUnits="userSpaceOnUse"><stop offset="0" stop-color="#e5f4fa"/><stop offset="0.36" stop-color="#e5f4fa"/><stop offset="0.45" stop-color="#d5eaf7"/><stop offset="0.54" stop-color="#c8e3f5"/><stop offset="0.74" stop-color="#cbe4f4"/><stop offset="1" stop-color="#cee7f5"/></linearGradient><linearGradient id="Nueva_muestra_de_degradado_11-3" x1="1006.8" y1="1003.53" x2="1792.09" y2="1114.66" xlink:href="#Nueva_muestra_de_degradado_11"/><linearGradient id="Nueva_muestra_de_degradado_58" x1="1032.57" y1="1265.21" x2="1286.63" y2="1265.21" gradientUnits="userSpaceOnUse"><stop offset="0.01" stop-color="#00b287"/><stop offset="0.33" stop-color="#08ad9f"/><stop offset="1" stop-color="#1da1dc"/></linearGradient><linearGradient id="Nueva_muestra_de_degradado_58-2" x1="1038.75" y1="1262.12" x2="1286.63" y2="1262.12" xlink:href="#Nueva_muestra_de_degradado_58"/><linearGradient id="Nueva_muestra_de_degradado_58-3" x1="1032.57" y1="1867.53" x2="1229.75" y2="1867.53" xlink:href="#Nueva_muestra_de_degradado_58"/><linearGradient id="Nueva_muestra_de_degradado_58-4" x1="1242.68" y1="1944.61" x2="1286.63" y2="1944.61" xlink:href="#Nueva_muestra_de_degradado_58"/><linearGradient id="Nueva_muestra_de_degradado_58-5" x1="1038.75" y1="1864.44" x2="1229.75" y2="1864.44" xlink:href="#Nueva_muestra_de_degradado_58"/><linearGradient id="Nueva_muestra_de_degradado_58-6" x1="1248.86" y1="1941.51" x2="1286.63" y2="1941.51" xlink:href="#Nueva_muestra_de_degradado_58"/><linearGradient id="Nueva_muestra_de_degradado_58-7" x1="1032.57" y1="1802.53" x2="1229.75" y2="1802.53" xlink:href="#Nueva_muestra_de_degradado_58"/><linearGradient id="Nueva_muestra_de_degradado_58-8" x1="1242.68" y1="1879.61" x2="1286.63" y2="1879.61" xlink:href="#Nueva_muestra_de_degradado_58"/><linearGradient id="Nueva_muestra_de_degradado_58-9" x1="1038.75" y1="1799.44" x2="1229.75" y2="1799.44" xlink:href="#Nueva_muestra_de_degradado_58"/><linearGradient id="Nueva_muestra_de_degradado_58-10" x1="1248.86" y1="1876.51" x2="1286.63" y2="1876.51" xlink:href="#Nueva_muestra_de_degradado_58"/><linearGradient id="Degradado_sin_nombre_203" x1="1700.69" y1="1122.72" x2="1682.44" y2="1334.74" gradientUnits="userSpaceOnUse"><stop offset="0.01" stop-color="#0071b0"/><stop offset="0.37" stop-color="#0f89c6"/><stop offset="0.73" stop-color="#199bd6"/><stop offset="1" stop-color="#1da1dc"/></linearGradient><linearGradient id="Degradado_sin_nombre_202" x1="1736.48" y1="1021.65" x2="1849.26" y2="952.15" gradientUnits="userSpaceOnUse"><stop offset="0.01" stop-color="#0071b0"/><stop offset="0.1" stop-color="#0579b7"/><stop offset="0.42" stop-color="#128fcc"/><stop offset="0.72" stop-color="#1a9cd8"/><stop offset="1" stop-color="#1da1dc"/></linearGradient><linearGradient id="Degradado_sin_nombre_201" x1="1560.33" y1="1230.99" x2="1658.69" y2="1031.04" gradientUnits="userSpaceOnUse"><stop offset="0.01" stop-color="#0071b0"/><stop offset="0.29" stop-color="#0173b2"/><stop offset="0.39" stop-color="#057ab8"/><stop offset="0.46" stop-color="#0c85c3"/><stop offset="0.52" stop-color="#1696d2"/><stop offset="0.55" stop-color="#1da1dc"/><stop offset="0.98" stop-color="#1da1dc"/><stop offset="1" stop-color="#1da1dc"/></linearGradient><linearGradient id="Degradado_sin_nombre_201-2" x1="1688.25" y1="987.27" x2="1757.48" y2="858" xlink:href="#Degradado_sin_nombre_201"/></defs><g id="Plant2"><path class="cls-1" d="M764.46,1682.74c92.64,5.17,226.53-37.66,355.2-39.46,3.82,0-9.16-19-5.34-19-267.56-71-334.72,23-349.16,54.08A9.11,9.11,0,0,0,764.46,1682.74Z"/><path class="cls-2" d="M1131.44,1654.5l-14.67-29.61-2.45-.66c-132.7.91-262.37,18-349.86,58.51a19.32,19.32,0,0,0,8.74,14.19C854.45,1745,1131.44,1654.5,1131.44,1654.5Z"/><path class="cls-3" d="M1131.64,1646.34c-216.08,74-695.43-298.49-638.54-768.18,42.77,127.78,103.25,280.65,205.78,395.84,151.71,170.43,321,308.93,433.52,340.88C1142.16,1630.34,1143.93,1642.14,1131.64,1646.34Z"/><path class="cls-4" d="M1132.4,1614.88c-112.55-32-281.81-170.45-433.52-340.88-102.53-115.19-163-268.06-205.78-395.84.12-1.08.26-2.17.39-3.26,6.29-49.78,290.49,259.24,499.86,607.38C993.35,1482.28,1101.9,1566.51,1132.4,1614.88Z"/><path class="cls-5" d="M1157.65,1263.23c-67.1,42.08-168.76,100.64-168.76,100.64-408.55-417.2-196.19-840-147.72-923.3a19.57,19.57,0,0,1,13.63-9.47C905.07,584.43,958.39,958.1,1157.65,1263.23Z"/><path class="cls-6" d="M1238.74,1212.25c-15,2.72-62.18,30.38-111.57,61.36C927.91,968.48,875,601.69,854.8,431.1a19.61,19.61,0,0,1,11.86,1.67C1079.18,535.82,1379,1186.82,1238.74,1212.25Z"/><path class="cls-7" d="M1429.81,575.83c-54.64,134.45-199,329.65-286.59,516.56-2.6,5.55-18.67-13-21.24-7.42,84.87-387.31,251.62-486.52,301.62-508.05A13.52,13.52,0,0,1,1429.81,575.83Z"/><path class="cls-8" d="M1150,1109.3l-28.79-20.78c.25-1.19.51-2.38.77-3.55,89.08-192.74,197.23-381.35,307.83-509.14a13.49,13.49,0,0,1,12.66,12.45C1451.23,705.42,1150,1109.3,1150,1109.3Z"/><path class="cls-9" d="M1132.4,1614.88c9.76,15.46,11.53,27.26-.76,31.46-1.21.42-2.43.8-3.65,1.18l3.45,7s-277,90.54-358.24,42.43a19.32,19.32,0,0,1-8.74-14.19,9.11,9.11,0,0,1,.7-4.43c9-19.3,38.26-62.86,123.23-76.11-211.67-113.47-435.15-394.89-395.29-724,.12-1.08.26-2.17.39-3.26,6.29-49.78,290.49,259.24,499.86,607.38C993.35,1482.28,1101.9,1566.51,1132.4,1614.88Zm310.07-1026.6a13.53,13.53,0,0,0-18.87-11.36c-38.63,16.63-146.94,79.64-233.35,286-83.82-182.11-215.08-377.57-323.59-430.19a19.61,19.61,0,0,0-25.49,7.8c-48.47,83.26-260.83,506.1,147.72,923.3,0,0,101.66-58.56,168.76-100.64l-3.93-6.07c38.94-23.77,72.76-42.69,85-44.91,52.32-9.49,43.38-106.08.57-228.79C1327.36,854.64,1448.06,663.05,1442.47,588.28Z"/></g><g id="vCenter"><polygon class="cls-10" points="1351.82 2044.2 1800.52 2044.2 1800.52 1713.04 1349.76 1713.04 1351.82 2044.2"/><g class="cls-11"><path class="cls-12" d="M1362.17,1611.35c17.8,0,34.78,3.61,47.47,11l304.51,176.84c13.13,7.62,19.33,17.9,18.87,28.6-.45,12.15-9.5,24.87-26.71,34.86l-71.81,41.69-214.07,124.32c-17.69,10.28-40.36,15.55-61.84,15.55-17.79,0-34.76-3.61-47.44-11l-224.89-130.58-79.62-46.26c-12.7-7.37-18.93-17.22-18.93-27.57,0-12.47,9.07-25.62,26.77-35.88l285.87-166c17.69-10.27,40.35-15.53,61.82-15.53m0-25.66v0h0c-27.06,0-53.58,6.74-74.69,19l-285.89,166c-25.12,14.57-39.54,35.74-39.54,58.07,0,19.93,11.55,38.07,31.7,49.77l79.62,46.25,224.89,130.59c16.26,9.45,37.13,14.45,60.33,14.45,27.08,0,53.62-6.75,74.73-19l214.07-124.32,71.81-41.69c11.4-6.62,20.57-14.49,27.26-23.39,7.55-10,11.77-21.33,12.2-32.65.86-20.77-10.67-39.65-31.63-51.81l-304.5-176.83c-16.27-9.46-37.14-14.46-60.35-14.46Z"/></g><g class="cls-13"><path class="cls-14" d="M1362.17,1611.35c17.8,0,34.78,3.61,47.47,11l304.51,176.84c13.13,7.62,19.33,17.9,18.87,28.6-.45,12.15-9.5,24.87-26.71,34.86l-71.81,41.69-214.07,124.32c-17.69,10.28-40.36,15.55-61.84,15.55-17.79,0-34.76-3.61-47.44-11l-224.89-130.58-79.62-46.26c-12.7-7.37-18.93-17.22-18.93-27.57,0-12.47,9.07-25.62,26.77-35.88l285.87-166c17.69-10.27,40.35-15.53,61.82-15.53m0-14.67v0h0c-24.78,0-50,6.39-69.18,17.51l-285.88,166c-21.64,12.55-34.06,30.25-34.06,48.56,0,16.14,9.31,30.44,26.22,40.26l79.62,46.25,224.89,130.59c14.59,8.48,33.55,13,54.81,13,24.8,0,50-6.39,69.21-17.54L1641.86,1917l71.81-41.69c10.12-5.88,18.2-12.77,24-20.49,6.2-8.25,9.65-17.39,10-26.46.7-16.57-8.84-31.82-26.16-41.87L1417,1609.66c-14.6-8.49-33.56-13-54.83-13Z"/></g><path class="cls-15" d="M1733,1827.78c-.45,12.15-9.5,24.87-26.71,34.86l-71.81,41.69-214.07,124.32c-32.35,18.79-81.28,20.85-109.28,4.56l-224.89-130.58-79.62-46.26c-12.7-7.37-18.93-17.22-18.93-27.57,0-12.47,9.07-25.62,26.77-35.88l285.87-166c32.35-18.77,81.29-20.82,109.29-4.54l304.51,176.84C1727.28,1806.8,1733.48,1817.08,1733,1827.78Z"/><path class="cls-16" d="M1358.59,1446.09c-17.13,0-32.67-3.55-43.76-10l-224.89-130.59-79.62-46.25c-7-4-15.28-11-15.28-21.23s8.43-21,23.11-29.55l285.89-166c15.92-9.24,37.11-14.54,58.13-14.54,17.15,0,32.7,3.55,43.79,10l304.51,176.84c10.17,5.91,15.58,13.7,15.23,22-.38,10-8.79,20.54-23.07,28.83l-71.81,41.69-214.07,124.32C1400.82,1440.79,1379.63,1446.09,1358.59,1446.09Z"/><path class="cls-17" d="M1362.18,1020.57v14.67h0c15.87,0,30.11,3.19,40.1,9l304.51,176.85c4.46,2.58,11.89,8,11.58,15.29v.07c-.28,7.33-7.54,15.83-19.42,22.73l-71.82,41.69-214.06,124.32c-14.84,8.63-34.7,13.57-54.48,13.57-15.86,0-30.09-3.19-40.08-9l-224.88-130.59L1014,1252.91c-4.34-2.52-11.62-7.8-11.62-14.88,0-7.35,7.45-16.24,19.46-23.21l285.87-166c14.84-8.61,34.69-13.54,54.47-13.54v-14.67m0,0c-21.48,0-44.14,5.27-61.83,15.53l-285.87,166c-17.7,10.26-26.77,23.41-26.77,35.89,0,10.34,6.23,20.19,18.93,27.57l79.62,46.25,224.89,130.59c12.68,7.37,29.65,11,47.44,11,21.48,0,44.15-5.28,61.84-15.56l214.07-124.32,71.81-41.69c17.21-10,26.26-22.71,26.71-34.86.46-10.69-5.74-21-18.87-28.6l-304.51-176.84c-12.69-7.37-29.67-11-47.46-11Z"/><path class="cls-18" d="M1362.18,1020.57v7.33h0c17.14,0,32.69,3.55,43.78,10l304.51,176.85c10.17,5.9,15.58,13.69,15.22,22-.37,10-8.78,20.5-23.06,28.79l-71.81,41.69-214.07,124.32c-15.93,9.26-37.12,14.56-58.16,14.56-17.13,0-32.68-3.55-43.76-10l-224.89-130.59-79.62-46.25c-7-4-15.28-11-15.28-21.23s8.43-21,23.12-29.55l285.87-166c15.93-9.24,37.12-14.54,58.15-14.54v-7.33m0,0c-21.47,0-44.13,5.27-61.82,15.53l-285.87,166c-17.7,10.26-26.77,23.41-26.77,35.89,0,10.34,6.23,20.19,18.93,27.57l79.62,46.25,224.89,130.59c12.68,7.37,29.65,11,47.44,11,21.48,0,44.15-5.28,61.84-15.56l214.07-124.32,71.81-41.69c17.21-10,26.26-22.71,26.71-34.86.46-10.69-5.74-21-18.87-28.6l-304.51-176.84c-12.69-7.37-29.67-11-47.47-11Z"/><path class="cls-19" d="M1733.08,1238.42v588.31c0,12.48-9.08,25.63-26.77,35.92l-285.88,166c-32.35,18.8-81.28,20.82-109.28,4.57l-304.51-176.85c-13.13-7.61-19.33-17.87-18.88-28.59h0V1239.45c0,10.34,744.86,11.12,745.31-1Z"/><path class="cls-16" d="M1358.59,1446.09c-17.13,0-32.67-3.55-43.76-10l-224.89-130.59-79.62-46.25c-7-4-15.28-11-15.28-21.23s8.43-21,23.11-29.55l285.89-166c15.92-9.24,37.11-14.54,58.13-14.54,17.15,0,32.7,3.55,43.79,10l304.51,176.84c10.17,5.91,15.58,13.7,15.23,22-.38,10-8.79,20.54-23.07,28.83l-71.81,41.69-214.07,124.32C1400.82,1440.79,1379.63,1446.09,1358.59,1446.09Z"/><path class="cls-17" d="M1362.18,1020.57v14.67h0c15.87,0,30.11,3.19,40.1,9l304.51,176.85c4.46,2.58,11.89,8,11.58,15.29v.07c-.28,7.33-7.54,15.83-19.42,22.73l-71.82,41.69-214.06,124.32c-14.84,8.63-34.7,13.57-54.48,13.57-15.86,0-30.09-3.19-40.08-9l-224.88-130.59L1014,1252.91c-4.34-2.52-11.62-7.8-11.62-14.88,0-7.35,7.45-16.24,19.46-23.21l285.87-166c14.84-8.61,34.69-13.54,54.47-13.54v-14.67m0,0c-21.48,0-44.14,5.27-61.83,15.53l-285.87,166c-17.7,10.26-26.77,23.41-26.77,35.89,0,10.34,6.23,20.19,18.93,27.57l79.62,46.25,224.89,130.59c12.68,7.37,29.65,11,47.44,11,21.48,0,44.15-5.28,61.84-15.56l214.07-124.32,71.81-41.69c17.21-10,26.26-22.71,26.71-34.86.46-10.69-5.74-21-18.87-28.6l-304.51-176.84c-12.69-7.37-29.67-11-47.46-11Z"/><path class="cls-18" d="M1362.18,1020.57v7.33h0c17.14,0,32.69,3.55,43.78,10l304.51,176.85c10.17,5.9,15.58,13.69,15.22,22-.37,10-8.78,20.5-23.06,28.79l-71.81,41.69-214.07,124.32c-15.93,9.26-37.12,14.56-58.16,14.56-17.13,0-32.68-3.55-43.76-10l-224.89-130.59-79.62-46.25c-7-4-15.28-11-15.28-21.23s8.43-21,23.12-29.55l285.87-166c15.93-9.24,37.12-14.54,58.15-14.54v-7.33m0,0c-21.47,0-44.13,5.27-61.82,15.53l-285.87,166c-17.7,10.26-26.77,23.41-26.77,35.89,0,10.34,6.23,20.19,18.93,27.57l79.62,46.25,224.89,130.59c12.68,7.37,29.65,11,47.44,11,21.48,0,44.15-5.28,61.84-15.56l214.07-124.32,71.81-41.69c17.21-10,26.26-22.71,26.71-34.86.46-10.69-5.74-21-18.87-28.6l-304.51-176.84c-12.69-7.37-29.67-11-47.47-11Z"/><path class="cls-20" d="M1272.65,1580.54v159.58c0,11-3.1,19.25-8.21,23.91-5.91,5.38-14.49,6-24,.45L1090.68,1678c-17.8-10.28-32.23-37.85-32.23-61.58V1456.87c0-15.27,6-25.24,15-27.66,5-1.34,10.9-.37,17.25,3.29L1240.41,1519C1258.21,1529.23,1272.65,1556.8,1272.65,1580.54Z"/><path class="cls-21" d="M1272.65,1580.54v159.58c0,11-3.1,19.25-8.21,23.91-5.91,5.38-14.49,6-24,.45L1090.68,1678c-17.8-10.28-32.23-37.85-32.23-61.58V1456.87c0-15.27,6-25.24,15-27.66,5-1.34,10.9-.37,17.25,3.29L1240.41,1519C1258.21,1529.23,1272.65,1556.8,1272.65,1580.54Z"/><path class="cls-22" d="M1272.65,1580.54v159.58c0,11-3.1,19.25-8.21,23.91-5,1.34-10.9.37-17.26-3.29l-149.73-86.45c-17.8-10.28-32.23-37.84-32.23-61.58V1453.12c0-11,3.1-19.25,8.21-23.91,5-1.34,10.9-.37,17.25,3.29L1240.41,1519C1258.21,1529.23,1272.65,1556.8,1272.65,1580.54Z"/><path class="cls-23" d="M1272.65,1580.54v159.58c0,11-3.1,19.25-8.21,23.91-5.91,5.38-14.49,6-24,.45L1090.68,1678c-17.8-10.28-32.23-37.85-32.23-61.58V1456.87c0-15.27,6-25.24,15-27.66,5-1.34,10.9-.37,17.25,3.29L1240.41,1519C1258.21,1529.23,1272.65,1556.8,1272.65,1580.54Z"/><g class="cls-24"><path class="cls-18" d="M1077.89,1428.64a25.87,25.87,0,0,1,12.79,3.86L1240.41,1519c17.8,10.28,32.24,37.85,32.24,61.59v159.58c0,11-3.1,19.25-8.21,23.91a16.32,16.32,0,0,1-11.24,4.32,25.76,25.76,0,0,1-12.79-3.87L1090.68,1678c-17.8-10.28-32.23-37.85-32.23-61.58V1456.87c0-15.27,6-25.24,15-27.66a17.09,17.09,0,0,1,4.46-.57m0-3.19a20.57,20.57,0,0,0-5.29.69c-10.85,2.91-17.33,14.4-17.33,30.73v159.59c0,12,3.48,25.23,9.8,37.31s14.9,21.76,24,27l149.73,86.44a28.85,28.85,0,0,0,14.38,4.29,19.54,19.54,0,0,0,13.38-5.15c6-5.43,9.25-14.76,9.25-26.26V1580.54c0-12-3.49-25.24-9.81-37.32s-14.9-21.75-24-27l-149.73-86.45a28.92,28.92,0,0,0-14.38-4.3Z"/></g><path id="VMwareIcon" class="cls-25" d="M1219.55,1558l-80.48-46.46c-3.8-2.2-6.34-.75-6.34,3.6v31.24l-27.25-15.73c-3.8-2.2-6.33-.75-6.33,3.61v92.25a13,13,0,0,0,6.33,10.93l80.48,46.46c3.81,2.2,6.34.75,6.34-3.6v-31.24l27.25,15.73c3.8,2.2,6.34.75,6.34-3.6V1569A13,13,0,0,0,1219.55,1558Zm-6.34,88.6L1186,1630.89c-3.8-2.19-6.33-.75-6.33,3.61v31.23l-67.81-39.14v-77.73l27.25,15.73c3.8,2.19,6.34.75,6.34-3.61v-31.23l67.8,39.14Zm-91.25-72.3v37.78a12.94,12.94,0,0,0,6.34,10.92l33,19c3.8,2.19,6.34.75,6.34-3.61v-30.51l26.61,15.37c3.8,2.19,6.34.75,6.34-3.61v-37.77a13,13,0,0,0-6.34-10.93l-33-19c-3.8-2.2-6.34-.75-6.34,3.61v30.51l-26.61-15.37C1124.49,1568.52,1122,1570,1122,1574.32Zm45.63-4.16,20.27,11.7v23.25l-20.27-11.71Zm-33,18.75,20.28,11.7v23.25l-20.28-11.71Z"/><path id="VMwareIcon-2" data-name="VMwareIcon" class="cls-26" d="M1217.79,1558.78l-80.48-46.47c-3.8-2.19-6.34-.75-6.34,3.61v31.24l-27.25-15.74c-3.8-2.19-6.33-.75-6.33,3.61v92.26a13,13,0,0,0,6.33,10.92l80.48,46.47c3.81,2.19,6.34.75,6.34-3.61v-31.24l27.25,15.73c3.8,2.2,6.34.76,6.34-3.6V1569.7A13,13,0,0,0,1217.79,1558.78Zm-6.34,88.6-27.25-15.74c-3.8-2.19-6.33-.75-6.33,3.61v31.24l-67.81-39.15v-77.73l27.25,15.73c3.8,2.2,6.34.76,6.34-3.6V1530.5l67.8,39.15Zm-91.25-72.3v37.77a13,13,0,0,0,6.34,10.93l33,19c3.8,2.2,6.34.75,6.34-3.6v-30.51l26.61,15.36c3.8,2.2,6.34.75,6.34-3.6v-37.78a13,13,0,0,0-6.34-10.92l-33-19c-3.8-2.19-6.34-.75-6.34,3.61v30.51l-26.61-15.37C1122.73,1569.28,1120.2,1570.72,1120.2,1575.08Zm45.63-4.17,20.27,11.71v23.24l-20.27-11.7Zm-33,18.75,20.28,11.71v23.24l-20.28-11.7Z"/><path class="cls-27" d="M1719.78,1237.31l-310.89,179.51c-24.83,14.33-62.43,15.9-83.92,3.48L999.08,1232.15c-12-6.91-16.45-16.71-13.75-26.52V1053.86h754.23v150.73C1742.7,1215.56,1735.91,1228,1719.78,1237.31Z"/><path class="cls-28" d="M1361.41,1266.8c-13.24,0-25.26-2.73-33.84-7.69L1001.71,1071c-5.43-3.14-11.91-8.55-11.91-16.52s6.54-16.3,17.94-22.88l310.88-179.49c12.29-7.1,28.64-11.17,44.87-11.17,13.24,0,25.25,2.73,33.84,7.69l325.85,188.13c5.44,3.14,11.91,8.55,11.91,16.52s-6.54,16.3-17.93,22.88l-310.88,179.49C1394,1262.73,1377.63,1266.8,1361.41,1266.8Z"/><path class="cls-17" d="M1363.49,835.69v10.47c12.33,0,23.42,2.48,31.22,7l325.86,188.13c3.47,2,9.29,6.23,9.29,12,0,6-5.73,12.81-15.32,18.35L1403.66,1251.1c-11.52,6.65-26.92,10.46-42.25,10.46-12.33,0-23.42-2.48-31.22-7l-325.86-188.13c-3.47-2-9.29-6.23-9.29-12,0-6,5.72-12.81,15.31-18.35l310.89-179.49c11.51-6.65,26.91-10.46,42.25-10.46V835.69m0,0c-16.5,0-33.9,4-47.48,11.87l-310.89,179.49c-24.84,14.34-27.54,36-6,48.46L1325,1263.64c9.75,5.63,22.8,8.39,36.46,8.39,16.49,0,33.89-4,47.48-11.87l310.88-179.49c24.85-14.34,27.54-36,6-48.46L1399.94,844.08c-9.75-5.63-22.79-8.39-36.45-8.39Z"/><path class="cls-18" d="M1363.49,835.69v5.23c13.24,0,25.25,2.73,33.84,7.69l325.85,188.13c5.44,3.14,11.91,8.55,11.91,16.52s-6.53,16.3-17.93,22.88l-310.88,179.49c-12.29,7.1-28.65,11.17-44.87,11.17-13.24,0-25.26-2.73-33.84-7.69L1001.71,1071c-5.43-3.14-11.91-8.55-11.91-16.52s6.54-16.3,17.94-22.88l310.88-179.49c12.29-7.1,28.64-11.16,44.87-11.17v-5.23m0,0c-16.5,0-33.9,4-47.48,11.87l-310.89,179.49c-24.84,14.34-27.54,36-6,48.46L1325,1263.64c9.75,5.63,22.8,8.39,36.46,8.39,16.49,0,33.89-4,47.48-11.87l310.88-179.49c24.85-14.34,27.54-36,6-48.46L1399.94,844.08c-9.75-5.63-22.79-8.39-36.45-8.39Z"/><path class="cls-29" d="M1286.63,1338.55a15.86,15.86,0,0,1-.25,2.86c-.72,3.93-3,6.19-6,6.19a8.29,8.29,0,0,1-4.1-1.24l-233.4-134.75c-5.71-3.29-10.33-12.13-10.33-19.74,0-5.67,2.56-9,6.23-9h.2a8.31,8.31,0,0,1,3.9,1.23l233.4,134.75C1282,1322.11,1286.63,1331,1286.63,1338.55Z"/><path class="cls-30" d="M1286.63,1338.55a15.86,15.86,0,0,1-.25,2.86,8.31,8.31,0,0,1-3.9-1.23l-233.4-134.75c-5.7-3.3-10.33-12.14-10.33-19.74a15.86,15.86,0,0,1,.25-2.86,8.31,8.31,0,0,1,3.9,1.23l233.4,134.75C1282,1322.11,1286.63,1331,1286.63,1338.55Z"/><path class="cls-31" d="M1229.75,1924.46a14.9,14.9,0,0,1-.25,2.85c-.72,3.93-3,6.2-6,6.2a8.26,8.26,0,0,1-4.1-1.24L1042.9,1830.35c-5.71-3.29-10.33-12.13-10.33-19.74,0-5.66,2.56-9,6.23-9h.2a8.28,8.28,0,0,1,3.9,1.23l176.52,101.92C1225.12,1908,1229.75,1916.85,1229.75,1924.46Z"/><path class="cls-32" d="M1286.63,1957.3a14.9,14.9,0,0,1-.25,2.85c-.72,3.93-3,6.2-6,6.2a8.26,8.26,0,0,1-4.1-1.24L1253,1951.66c-5.71-3.29-10.33-12.13-10.33-19.74,0-5.67,2.56-9.05,6.23-9.05h.2a8.31,8.31,0,0,1,3.9,1.23l23.29,13.45C1282,1940.85,1286.63,1949.69,1286.63,1957.3Z"/><path class="cls-33" d="M1229.75,1924.46a14.9,14.9,0,0,1-.25,2.85,8.51,8.51,0,0,1-3.9-1.23l-176.52-101.91c-5.7-3.29-10.33-12.13-10.33-19.74a15.86,15.86,0,0,1,.25-2.86,8.28,8.28,0,0,1,3.9,1.23l176.52,101.92C1225.12,1908,1229.75,1916.85,1229.75,1924.46Z"/><path class="cls-34" d="M1286.63,1957.3a14.9,14.9,0,0,1-.25,2.85,8.51,8.51,0,0,1-3.9-1.23l-23.29-13.44c-5.7-3.3-10.33-12.14-10.33-19.74a15.86,15.86,0,0,1,.25-2.86,8.31,8.31,0,0,1,3.9,1.23l23.29,13.45C1282,1940.85,1286.63,1949.69,1286.63,1957.3Z"/><path class="cls-35" d="M1229.75,1859.46a14.9,14.9,0,0,1-.25,2.85c-.72,3.93-3,6.2-6,6.2a8.26,8.26,0,0,1-4.1-1.24L1042.9,1765.35c-5.71-3.29-10.33-12.13-10.33-19.74,0-5.66,2.56-9,6.23-9h.2a8.28,8.28,0,0,1,3.9,1.23l176.52,101.92C1225.12,1843,1229.75,1851.85,1229.75,1859.46Z"/><path class="cls-36" d="M1286.63,1892.3a14.9,14.9,0,0,1-.25,2.85c-.72,3.93-3,6.2-6,6.2a8.26,8.26,0,0,1-4.1-1.24L1253,1886.66c-5.71-3.29-10.33-12.13-10.33-19.74,0-5.67,2.56-9.05,6.23-9.05h.2a8.31,8.31,0,0,1,3.9,1.23l23.29,13.45C1282,1875.85,1286.63,1884.69,1286.63,1892.3Z"/><path class="cls-37" d="M1229.75,1859.46a14.9,14.9,0,0,1-.25,2.85,8.51,8.51,0,0,1-3.9-1.23l-176.52-101.91c-5.7-3.29-10.33-12.13-10.33-19.74a15.86,15.86,0,0,1,.25-2.86,8.28,8.28,0,0,1,3.9,1.23l176.52,101.92C1225.12,1843,1229.75,1851.85,1229.75,1859.46Z"/><path class="cls-38" d="M1286.63,1892.3a14.9,14.9,0,0,1-.25,2.85,8.51,8.51,0,0,1-3.9-1.23l-23.29-13.44c-5.7-3.3-10.33-12.14-10.33-19.74a15.86,15.86,0,0,1,.25-2.86,8.31,8.31,0,0,1,3.9,1.23l23.29,13.45C1282,1875.85,1286.63,1884.69,1286.63,1892.3Z"/></g><g id="_Blue" data-name="+ Blue"><g class="cls-39"><path class="cls-40" d="M1705.8,1258.92l-.35-121.86-24.67-14.34.35,121.86c0,2.8,1,4.77,2.59,5.69l24.67,14.34C1706.79,1263.68,1705.81,1261.71,1705.8,1258.92Z"/><path class="cls-41" d="M1869.52,928.59c-1.61-.93-3.85-.8-6.31.62l-106,61.23,24.66,14.33,106-61.22c2.47-1.43,4.71-1.56,6.32-.62Z"/><path class="cls-42" d="M1680.53,1034.68l-106,61.22c-4.91,2.84-8.87,9.7-8.85,15.33l.19,67.65c0,2.79,1,4.76,2.59,5.69l24.67,14.33c-1.59-.92-2.58-2.89-2.59-5.69l-.19-67.64c0-5.64,3.94-12.5,8.84-15.33l106-61.23Z"/><path class="cls-43" d="M1772.58,877.84c4.89-2.83,8.88-.56,8.9,5.08l.34,121.85,106-61.22c4.91-2.83,8.9-.56,8.91,5.07l.2,67.65c0,5.62-4,12.49-8.86,15.32l-106,61.23.35,121.86c0,5.63-4,12.49-8.85,15.32l-58.86,34c-4.91,2.83-8.9.56-8.91-5.07l-.35-121.86-106,61.22c-4.9,2.84-8.88.56-8.9-5.07l-.19-67.64c0-5.64,3.94-12.5,8.84-15.33l106-61.23-.34-121.86c0-5.63,4-12.49,8.85-15.32Z"/><path class="cls-44" d="M1754.22,862.89c-1.61-.94-3.85-.81-6.31.62l-58.87,34c-4.9,2.83-8.87,9.69-8.85,15.33l.34,121.86L1705.2,1049l-.34-121.86c0-5.63,4-12.49,8.85-15.32l58.87-34c2.46-1.42,4.7-1.55,6.31-.62Z"/></g></g></svg>