<svg xmlns="http://www.w3.org/2000/svg" xmlns:xlink="http://www.w3.org/1999/xlink" viewBox="0 0 2500 2500"><defs><style>.cls-1{isolation:isolate;}.cls-2{fill:url(#linear-gradient);}.cls-3{fill:url(#linear-gradient-2);}.cls-4{fill:url(#linear-gradient-3);}.cls-5{fill:url(#linear-gradient-4);}.cls-6{fill:url(#linear-gradient-5);}.cls-7{fill:url(#linear-gradient-6);}.cls-8{fill:url(#linear-gradient-7);}.cls-9{fill:url(#linear-gradient-8);}.cls-10{mix-blend-mode:multiply;fill:url(#linear-gradient-9);}.cls-11,.cls-12,.cls-13,.cls-22{fill:none;}.cls-11,.cls-12,.cls-13{stroke:#022e49;}.cls-11{stroke-width:35px;opacity:0.15;}.cls-12{stroke-width:22px;opacity:0.41;}.cls-13{stroke-width:13px;opacity:0.72;}.cls-14{fill:url(#Nueva_muestra_de_degradado_11);}.cls-15{fill:#fafbfc;}.cls-16{fill:#fff;}.cls-17{fill:url(#linear-gradient-10);}.cls-18{fill:url(#linear-gradient-11);}.cls-19{fill:#f1f3f6;}.cls-20{fill:url(#linear-gradient-12);}.cls-21{fill:url(#linear-gradient-13);}.cls-22{stroke:#fff;stroke-width:1.06px;opacity:0.75;}.cls-23{opacity:0.2;}.cls-24{fill:#045989;fill-rule:evenodd;}.cls-25{fill:#a6c8e2;}.cls-26{fill:url(#linear-gradient-14);}.cls-27{fill:url(#linear-gradient-15);}.cls-28,.cls-29,.cls-30,.cls-31,.cls-32,.cls-33,.cls-34,.cls-35,.cls-36,.cls-37{fill-opacity:0.25;}.cls-28{fill:url(#Nueva_muestra_de_degradado_58);}.cls-29{fill:url(#Nueva_muestra_de_degradado_58-2);}.cls-30{fill:url(#Nueva_muestra_de_degradado_58-3);}.cls-31{fill:url(#Nueva_muestra_de_degradado_58-4);}.cls-32{fill:url(#Nueva_muestra_de_degradado_58-5);}.cls-33{fill:url(#Nueva_muestra_de_degradado_58-6);}.cls-34{fill:url(#Nueva_muestra_de_degradado_58-7);}.cls-35{fill:url(#Nueva_muestra_de_degradado_58-8);}.cls-36{fill:url(#Nueva_muestra_de_degradado_58-9);}.cls-37{fill:url(#Nueva_muestra_de_degradado_58-10);}.cls-38{fill:url(#Degradado_sin_nombre_8);}.cls-39{fill:url(#Degradado_sin_nombre_5);}.cls-40{fill:url(#Degradado_sin_nombre_4);}.cls-41{fill:#4dd2d2;}.cls-42{fill:url(#Degradado_sin_nombre_4-2);}</style><linearGradient id="linear-gradient" x1="1020.46" y1="1638.62" x2="1117.79" y2="1509.83" gradientTransform="matrix(0.99, 0.16, -0.16, 0.99, 142.99, -70.27)" gradientUnits="userSpaceOnUse"><stop offset="0" stop-color="#45bfe0"/><stop offset="0.06" stop-color="#3cbcde"/><stop offset="0.29" stop-color="#22b3da"/><stop offset="0.51" stop-color="#0facd7"/><stop offset="0.75" stop-color="#04a8d5"/><stop offset="1" stop-color="#00a7d4"/></linearGradient><linearGradient id="linear-gradient-2" x1="1062.1" y1="1607.32" x2="1171.42" y2="1445.59" xlink:href="#linear-gradient"/><linearGradient id="linear-gradient-3" x1="718.63" y1="1274.66" x2="1006.14" y2="1150.37" gradientTransform="matrix(0.99, 0.16, -0.16, 0.99, 142.99, -70.27)" gradientUnits="userSpaceOnUse"><stop offset="0" stop-color="#52d6ff"/><stop offset="1" stop-color="#45bfe0"/></linearGradient><linearGradient id="linear-gradient-4" x1="838.92" y1="1209.25" x2="987.17" y2="1116.41" gradientTransform="matrix(0.99, 0.16, -0.16, 0.99, 142.99, -70.27)" gradientUnits="userSpaceOnUse"><stop offset="0" stop-color="#52d6ff"/><stop offset="0.29" stop-color="#4bcaef"/><stop offset="0.63" stop-color="#47c2e4"/><stop offset="1" stop-color="#45bfe0"/></linearGradient><linearGradient id="linear-gradient-5" x1="694.65" y1="738.66" x2="1048.05" y2="874.93" xlink:href="#linear-gradient"/><linearGradient id="linear-gradient-6" x1="871.28" y1="680.07" x2="1134.39" y2="861.84" gradientTransform="matrix(0.99, 0.16, -0.16, 0.99, 142.99, -70.27)" gradientUnits="userSpaceOnUse"><stop offset="0" stop-color="#45bfe0"/><stop offset="0.59" stop-color="#1eb1d9"/><stop offset="1" stop-color="#00a7d4"/></linearGradient><linearGradient id="linear-gradient-7" x1="1227.16" y1="749.22" x2="1174.75" y2="855.54" xlink:href="#linear-gradient-4"/><linearGradient id="linear-gradient-8" x1="1413.04" y1="628.75" x2="1125.52" y2="812.94" xlink:href="#linear-gradient-4"/><linearGradient id="linear-gradient-9" x1="1353.8" y1="1878.62" x2="1761.28" y2="1878.62" gradientUnits="userSpaceOnUse"><stop offset="0.13" stop-color="#141226" stop-opacity="0.3"/><stop offset="1" stop-color="#141226" stop-opacity="0"/></linearGradient><linearGradient id="Nueva_muestra_de_degradado_11" x1="1011.72" y1="1187.66" x2="1781.57" y2="1296.6" gradientUnits="userSpaceOnUse"><stop offset="0" stop-color="#fafbfc"/><stop offset="0.55" stop-color="#f5f8fa"/><stop offset="0.99" stop-color="#e6f4fa"/><stop offset="0.99" stop-color="#d4ecf6" stop-opacity="0.9"/></linearGradient><linearGradient id="linear-gradient-10" x1="983.96" y1="1641.31" x2="1832.85" y2="1641.31" gradientUnits="userSpaceOnUse"><stop offset="0.01" stop-color="#f3fafc"/><stop offset="0.14" stop-color="#f0f8fb"/><stop offset="0.22" stop-color="#e9f5fa"/><stop offset="0.36" stop-color="#deeef8"/><stop offset="0.39" stop-color="#d9ecf7"/><stop offset="0.42" stop-color="#cae6f5"/><stop offset="0.46" stop-color="#b2dcf2"/><stop offset="0.49" stop-color="#99d2ee"/><stop offset="0.81" stop-color="#a6d5ee"/><stop offset="0.84" stop-color="#add8ef"/><stop offset="0.9" stop-color="#c0e1f3"/><stop offset="0.96" stop-color="#dff0f9"/><stop offset="0.98" stop-color="#eaf5fb"/></linearGradient><linearGradient id="linear-gradient-11" x1="1022.08" y1="1215.23" x2="1718.45" y2="1260.04" gradientUnits="userSpaceOnUse"><stop offset="0" stop-color="#f4f8fa"/><stop offset="0.77" stop-color="#e8f5fa"/><stop offset="1" stop-color="#d4ecf6"/></linearGradient><linearGradient id="linear-gradient-12" x1="1258.2" y1="1765.74" x2="1035.98" y2="1364.61" gradientUnits="userSpaceOnUse"><stop offset="0" stop-color="#7dc2db"/><stop offset="0" stop-color="#7ec3db"/><stop offset="0.03" stop-color="#99cfe4"/><stop offset="0.07" stop-color="#afdaea"/><stop offset="0.11" stop-color="#c0e2f0"/><stop offset="0.16" stop-color="#cbe8f3"/><stop offset="0.24" stop-color="#d2ebf5"/><stop offset="0.44" stop-color="#d4ecf6"/><stop offset="0.54" stop-color="#cce7f3"/><stop offset="0.69" stop-color="#b7d9ec"/><stop offset="0.84" stop-color="#9cc7e3"/></linearGradient><linearGradient id="linear-gradient-13" x1="1050.08" y1="1579.8" x2="1312.51" y2="1616.94" gradientUnits="userSpaceOnUse"><stop offset="0" stop-color="#f4f8fa"/><stop offset="0.77" stop-color="#e8f5fa"/><stop offset="1" stop-color="#d4ecf6" stop-opacity="0.9"/></linearGradient><linearGradient id="linear-gradient-14" x1="980.77" y1="1241.19" x2="1841.47" y2="1241.19" xlink:href="#linear-gradient-10"/><linearGradient id="linear-gradient-15" x1="1019.36" y1="1031.7" x2="1725.6" y2="1077.15" xlink:href="#linear-gradient-11"/><linearGradient id="Nueva_muestra_de_degradado_58" x1="1032.57" y1="1265.21" x2="1286.63" y2="1265.21" gradientUnits="userSpaceOnUse"><stop offset="0.01" stop-color="#00b287"/><stop offset="0.33" stop-color="#08ad9f"/><stop offset="1" stop-color="#1da1dc"/></linearGradient><linearGradient id="Nueva_muestra_de_degradado_58-2" x1="1038.75" y1="1262.12" x2="1286.63" y2="1262.12" xlink:href="#Nueva_muestra_de_degradado_58"/><linearGradient id="Nueva_muestra_de_degradado_58-3" x1="1032.57" y1="1867.53" x2="1229.75" y2="1867.53" xlink:href="#Nueva_muestra_de_degradado_58"/><linearGradient id="Nueva_muestra_de_degradado_58-4" x1="1242.68" y1="1944.61" x2="1286.63" y2="1944.61" xlink:href="#Nueva_muestra_de_degradado_58"/><linearGradient id="Nueva_muestra_de_degradado_58-5" x1="1038.75" y1="1864.44" x2="1229.75" y2="1864.44" xlink:href="#Nueva_muestra_de_degradado_58"/><linearGradient id="Nueva_muestra_de_degradado_58-6" x1="1248.86" y1="1941.51" x2="1286.63" y2="1941.51" xlink:href="#Nueva_muestra_de_degradado_58"/><linearGradient id="Nueva_muestra_de_degradado_58-7" x1="1032.57" y1="1802.54" x2="1229.75" y2="1802.54" xlink:href="#Nueva_muestra_de_degradado_58"/><linearGradient id="Nueva_muestra_de_degradado_58-8" x1="1242.68" y1="1879.62" x2="1286.63" y2="1879.62" xlink:href="#Nueva_muestra_de_degradado_58"/><linearGradient id="Nueva_muestra_de_degradado_58-9" x1="1038.75" y1="1799.45" x2="1229.75" y2="1799.45" xlink:href="#Nueva_muestra_de_degradado_58"/><linearGradient id="Nueva_muestra_de_degradado_58-10" x1="1248.86" y1="1876.52" x2="1286.63" y2="1876.52" xlink:href="#Nueva_muestra_de_degradado_58"/><linearGradient id="Degradado_sin_nombre_8" x1="1700.69" y1="1122.72" x2="1682.44" y2="1334.74" gradientUnits="userSpaceOnUse"><stop offset="0.01" stop-color="#12abbb"/><stop offset="0.22" stop-color="#0ca0b3"/><stop offset="0.67" stop-color="#038ea6"/><stop offset="1" stop-color="#0088a1"/></linearGradient><linearGradient id="Degradado_sin_nombre_5" x1="1736.48" y1="1021.65" x2="1849.26" y2="952.15" gradientUnits="userSpaceOnUse"><stop offset="0.01" stop-color="#12abbb"/><stop offset="0.31" stop-color="#099aae"/><stop offset="0.67" stop-color="#028da4"/><stop offset="1" stop-color="#0088a1"/></linearGradient><linearGradient id="Degradado_sin_nombre_4" x1="1560.33" y1="1230.99" x2="1658.69" y2="1031.04" gradientUnits="userSpaceOnUse"><stop offset="0.01" stop-color="#12abbb"/><stop offset="0.31" stop-color="#11a9ba"/><stop offset="0.41" stop-color="#0ea2b5"/><stop offset="0.49" stop-color="#0797ac"/><stop offset="0.55" stop-color="#0088a1"/><stop offset="0.98" stop-color="#0088a1"/><stop offset="1" stop-color="#0088a1"/></linearGradient><linearGradient id="Degradado_sin_nombre_4-2" x1="1688.25" y1="987.27" x2="1757.48" y2="858" xlink:href="#Degradado_sin_nombre_4"/></defs><g class="cls-1"><g id="Artwork"><g id="Plant2"><path class="cls-2" d="M764.46,1682.74c92.64,5.17,226.53-37.66,355.2-39.46,3.82,0-9.16-19-5.34-19-267.56-71-334.72,23-349.16,54.08A9.11,9.11,0,0,0,764.46,1682.74Z"/><path class="cls-3" d="M1131.44,1654.5l-14.67-29.61-2.45-.66c-132.7.91-262.37,18-349.86,58.51a19.32,19.32,0,0,0,8.74,14.19C854.45,1745,1131.44,1654.5,1131.44,1654.5Z"/><path class="cls-4" d="M1131.64,1646.34c-216.08,74-695.43-298.49-638.54-768.18,42.77,127.78,103.25,280.65,205.78,395.84,151.71,170.43,321,308.93,433.52,340.88C1142.16,1630.34,1143.93,1642.14,1131.64,1646.34Z"/><path class="cls-5" d="M1132.4,1614.88c-112.55-32-281.81-170.45-433.52-340.88-102.53-115.19-163-268.06-205.78-395.84.12-1.08.26-2.17.39-3.26,6.29-49.78,290.49,259.24,499.86,607.38C993.35,1482.28,1101.9,1566.51,1132.4,1614.88Z"/><path class="cls-6" d="M1157.65,1263.23c-67.1,42.08-168.76,100.64-168.76,100.64-408.55-417.2-196.19-840-147.72-923.3a19.57,19.57,0,0,1,13.63-9.47C905.07,584.43,958.39,958.1,1157.65,1263.23Z"/><path class="cls-7" d="M1238.74,1212.25c-15,2.72-62.18,30.38-111.57,61.36C927.91,968.48,875,601.69,854.8,431.1a19.61,19.61,0,0,1,11.86,1.67C1079.18,535.82,1379,1186.82,1238.74,1212.25Z"/><path class="cls-8" d="M1429.81,575.83c-54.64,134.45-199,329.65-286.59,516.56-2.6,5.55-18.67-13-21.24-7.42,84.87-387.31,251.62-486.52,301.62-508.05A13.52,13.52,0,0,1,1429.81,575.83Z"/><path class="cls-9" d="M1150,1109.3l-28.79-20.78c.25-1.19.51-2.38.77-3.55,89.08-192.74,197.23-381.35,307.83-509.14a13.49,13.49,0,0,1,12.66,12.45C1451.23,705.42,1150,1109.3,1150,1109.3Z"/></g><g id="vCenter"><polygon class="cls-10" points="1351.82 2044.2 1800.52 2044.2 1800.52 1713.04 1349.76 1713.04 1351.82 2044.2"/><path class="cls-11" d="M1733,1827.78c-.45,12.15-9.5,24.87-26.71,34.86l-71.81,41.69-214.07,124.32c-32.35,18.79-81.28,20.85-109.28,4.56l-224.89-130.58-79.62-46.26c-12.7-7.37-18.93-17.22-18.93-27.57,0-12.47,9.07-25.62,26.77-35.88l285.87-166c32.35-18.77,81.29-20.82,109.29-4.54l304.51,176.84C1727.28,1806.8,1733.48,1817.08,1733,1827.78Z"/><path class="cls-12" d="M1733,1827.78c-.45,12.15-9.5,24.87-26.71,34.86l-71.81,41.69-214.07,124.32c-32.35,18.79-81.28,20.85-109.28,4.56l-224.89-130.58-79.62-46.26c-12.7-7.37-18.93-17.22-18.93-27.57,0-12.47,9.07-25.62,26.77-35.88l285.87-166c32.35-18.77,81.29-20.82,109.29-4.54l304.51,176.84C1727.28,1806.8,1733.48,1817.08,1733,1827.78Z"/><path class="cls-13" d="M1733,1827.78c-.45,12.15-9.5,24.87-26.71,34.86l-71.81,41.69-214.07,124.32c-32.35,18.79-81.28,20.85-109.28,4.56l-224.89-130.58-79.62-46.26c-12.7-7.37-18.93-17.22-18.93-27.57,0-12.47,9.07-25.62,26.77-35.88l285.87-166c32.35-18.77,81.29-20.82,109.29-4.54l304.51,176.84C1727.28,1806.8,1733.48,1817.08,1733,1827.78Z"/><path class="cls-14" d="M1358.59,1446.09c-17.13,0-32.67-3.55-43.76-10l-224.89-130.59-79.62-46.25c-7-4-15.28-11-15.28-21.23s8.43-21,23.11-29.55l285.89-166c15.92-9.24,37.11-14.54,58.13-14.54,17.15,0,32.7,3.55,43.79,10l304.51,176.84c10.17,5.91,15.58,13.7,15.23,22-.38,10-8.79,20.54-23.07,28.83l-71.81,41.69-214.07,124.32C1400.82,1440.79,1379.63,1446.09,1358.59,1446.09Z"/><path class="cls-15" d="M1362.18,1020.57v14.67h0c15.87,0,30.11,3.19,40.1,9l304.51,176.85c4.46,2.58,11.89,8,11.58,15.29v.07c-.28,7.33-7.54,15.83-19.42,22.73l-71.82,41.69-214.06,124.32c-14.84,8.63-34.7,13.57-54.48,13.57-15.86,0-30.09-3.19-40.08-9l-224.88-130.59L1014,1252.91c-4.34-2.52-11.62-7.8-11.62-14.88,0-7.35,7.45-16.24,19.46-23.21l285.87-166c14.84-8.61,34.69-13.54,54.47-13.54v-14.67m0,0c-21.48,0-44.14,5.27-61.83,15.53l-285.87,166c-17.7,10.26-26.77,23.41-26.77,35.89,0,10.34,6.23,20.19,18.93,27.57l79.62,46.25,224.89,130.59c12.68,7.37,29.65,11,47.44,11,21.48,0,44.15-5.28,61.84-15.56l214.07-124.32,71.81-41.69c17.21-10,26.26-22.71,26.71-34.86.46-10.69-5.74-21-18.87-28.6l-304.51-176.84c-12.69-7.37-29.67-11-47.46-11Z"/><path class="cls-16" d="M1362.18,1020.57v7.33h0c17.14,0,32.69,3.55,43.78,10l304.51,176.85c10.17,5.9,15.58,13.69,15.22,22-.37,10-8.78,20.5-23.06,28.79l-71.81,41.69-214.07,124.32c-15.93,9.26-37.12,14.56-58.16,14.56-17.13,0-32.68-3.55-43.76-10l-224.89-130.59-79.62-46.25c-7-4-15.28-11-15.28-21.23s8.43-21,23.12-29.55l285.87-166c15.93-9.24,37.12-14.54,58.15-14.54v-7.33m0,0c-21.47,0-44.13,5.27-61.82,15.53l-285.87,166c-17.7,10.26-26.77,23.41-26.77,35.89,0,10.34,6.23,20.19,18.93,27.57l79.62,46.25,224.89,130.59c12.68,7.37,29.65,11,47.44,11,21.48,0,44.15-5.28,61.84-15.56l214.07-124.32,71.81-41.69c17.21-10,26.26-22.71,26.71-34.86.46-10.69-5.74-21-18.87-28.6l-304.51-176.84c-12.69-7.37-29.67-11-47.47-11Z"/><path class="cls-17" d="M1733.08,1238.42v588.31c0,12.48-9.08,25.63-26.77,35.92l-285.88,166c-32.35,18.8-81.28,20.82-109.28,4.57l-304.51-176.85c-13.13-7.61-19.33-17.87-18.88-28.59h0V1239.45c0,10.34,744.86,11.12,745.31-1Z"/><path class="cls-18" d="M1358.59,1449.43c-17.71,0-33.85-3.71-45.43-10.45l-224.89-130.59-79.62-46.25c-10.92-6.34-16.94-14.91-16.94-24.11,0-11.48,9-23.3,24.77-32.43l285.88-166c16.42-9.52,38.22-15,59.81-15,17.73,0,33.87,3.71,45.46,10.45l304.51,176.84c11.3,6.56,17.29,15.42,16.89,25-.43,11.19-9.44,22.69-24.73,31.57l-71.81,41.69-214.07,124.33C1402,1444,1380.2,1449.43,1358.59,1449.43Z"/><path class="cls-15" d="M1362.18,1020.57v8h0c17,0,32.45,3.52,43.44,9.91l304.52,176.84c9.94,5.77,15.23,13.35,14.89,21.38-.37,9.77-8.66,20.07-22.74,28.24l-71.81,41.7L1416.41,1431c-15.82,9.19-36.9,14.47-57.82,14.47-17,0-32.44-3.52-43.43-9.91l-224.88-130.59-79.63-46.25c-6.81-4-14.94-10.75-14.94-20.65s8.3-20.57,22.78-29l285.88-166c15.82-9.18,36.89-14.45,57.81-14.45v-8m0,0c-21.47,0-44.13,5.27-61.82,15.53l-285.87,166c-17.7,10.26-26.77,23.41-26.77,35.89,0,10.34,6.23,20.19,18.93,27.57l79.62,46.25,224.89,130.59c12.68,7.37,29.65,11,47.44,11,21.48,0,44.15-5.28,61.84-15.56l214.07-124.32,71.81-41.69c17.21-10,26.26-22.71,26.71-34.86.46-10.69-5.74-21-18.87-28.6l-304.51-176.84c-12.69-7.37-29.67-11-47.47-11Z"/><path class="cls-16" d="M1362.18,1020.57v5h0c17.55,0,33.51,3.66,45,10.32l304.51,176.84c11,6.36,16.78,14.9,16.39,24.08-.41,10.83-9.24,22-24.23,30.73L1632,1309.23l-214.07,124.32c-16.27,9.45-37.89,14.88-59.33,14.88-17.54,0-33.5-3.67-44.93-10.32l-224.89-130.58-79.62-46.26C998.39,1255,992.71,1247,992.71,1238c0-11.11,8.85-22.62,24.28-31.57l285.87-166c16.27-9.43,37.89-14.85,59.32-14.85v-5m0,0c-21.47,0-44.13,5.27-61.82,15.53l-285.87,166c-17.7,10.26-26.77,23.41-26.77,35.89,0,10.34,6.23,20.19,18.93,27.57l79.62,46.25,224.89,130.59c12.68,7.37,29.65,11,47.44,11,21.48,0,44.15-5.28,61.84-15.56l214.07-124.32,71.81-41.69c17.21-10,26.26-22.71,26.71-34.86.46-10.69-5.74-21-18.87-28.6l-304.51-176.84c-12.69-7.37-29.67-11-47.47-11Z"/><path class="cls-19" d="M1272.65,1580.54v159.58c0,11-3.1,19.25-8.21,23.91-5.91,5.38-14.49,6-24,.45L1090.68,1678c-17.8-10.28-32.23-37.85-32.23-61.58V1456.87c0-15.27,6-25.24,15-27.66,5-1.34,10.9-.37,17.25,3.29L1240.41,1519C1258.21,1529.23,1272.65,1556.8,1272.65,1580.54Z"/><path class="cls-20" d="M1272.65,1580.54v159.58c0,11-3.1,19.25-8.21,23.91-5.91,5.38-14.49,6-24,.45L1090.68,1678c-17.8-10.28-32.23-37.85-32.23-61.58V1456.87c0-15.27,6-25.24,15-27.66,5-1.34,10.9-.37,17.25,3.29L1240.41,1519C1258.21,1529.23,1272.65,1556.8,1272.65,1580.54Z"/><path class="cls-21" d="M1272.65,1580.54v159.58c0,11-3.1,19.25-8.21,23.91-5,1.34-10.9.37-17.26-3.29l-149.73-86.45c-17.8-10.28-32.23-37.84-32.23-61.58V1453.12c0-11,3.1-19.25,8.21-23.91,5-1.34,10.9-.37,17.25,3.29L1240.41,1519C1258.21,1529.23,1272.65,1556.8,1272.65,1580.54Z"/><path class="cls-22" d="M1272.65,1580.54v159.58c0,11-3.1,19.25-8.21,23.91-5.91,5.38-14.49,6-24,.45L1090.68,1678c-17.8-10.28-32.23-37.85-32.23-61.58V1456.87c0-15.27,6-25.24,15-27.66,5-1.34,10.9-.37,17.25,3.29L1240.41,1519C1258.21,1529.23,1272.65,1556.8,1272.65,1580.54Z"/><g class="cls-23"><path class="cls-16" d="M1077.89,1428.64a25.87,25.87,0,0,1,12.79,3.86L1240.41,1519c17.8,10.28,32.24,37.85,32.24,61.59v159.58c0,11-3.1,19.25-8.21,23.91a16.32,16.32,0,0,1-11.24,4.32,25.76,25.76,0,0,1-12.79-3.87L1090.68,1678c-17.8-10.28-32.23-37.85-32.23-61.58V1456.87c0-15.27,6-25.24,15-27.66a17.09,17.09,0,0,1,4.46-.57m0-3.19a20.57,20.57,0,0,0-5.29.69c-10.85,2.91-17.33,14.4-17.33,30.73v159.59c0,12,3.48,25.23,9.8,37.31s14.9,21.76,24,27l149.73,86.44a28.85,28.85,0,0,0,14.38,4.29,19.54,19.54,0,0,0,13.38-5.15c6-5.43,9.25-14.76,9.25-26.26V1580.54c0-12-3.49-25.24-9.81-37.32s-14.9-21.75-24-27l-149.73-86.45a28.92,28.92,0,0,0-14.38-4.3Z"/></g><path id="VMwareIcon" class="cls-24" d="M1219.55,1558l-80.48-46.46c-3.8-2.2-6.34-.75-6.34,3.6v31.24l-27.25-15.73c-3.8-2.2-6.33-.75-6.33,3.61v92.25a13,13,0,0,0,6.33,10.93l80.48,46.46c3.81,2.2,6.34.75,6.34-3.6v-31.24l27.25,15.73c3.8,2.2,6.34.75,6.34-3.6V1569A13,13,0,0,0,1219.55,1558Zm-6.34,88.6L1186,1630.89c-3.8-2.19-6.33-.75-6.33,3.61v31.23l-67.81-39.14v-77.73l27.25,15.73c3.8,2.19,6.34.75,6.34-3.61v-31.23l67.8,39.14Zm-91.25-72.3v37.78a12.94,12.94,0,0,0,6.34,10.92l33,19c3.8,2.19,6.34.75,6.34-3.61v-30.51l26.61,15.37c3.8,2.19,6.34.75,6.34-3.61v-37.77a13,13,0,0,0-6.34-10.93l-33-19c-3.8-2.2-6.34-.75-6.34,3.61v30.51l-26.61-15.37C1124.49,1568.52,1122,1570,1122,1574.32Zm45.63-4.16,20.27,11.7v23.25l-20.27-11.71Zm-33,18.75,20.28,11.7v23.25l-20.28-11.71Z"/><path id="VMwareIcon-2" data-name="VMwareIcon" class="cls-25" d="M1217.79,1558.78l-80.48-46.47c-3.8-2.19-6.34-.75-6.34,3.61v31.24l-27.25-15.74c-3.8-2.19-6.33-.75-6.33,3.61v92.26a13,13,0,0,0,6.33,10.92l80.48,46.47c3.81,2.19,6.34.75,6.34-3.61v-31.24l27.25,15.73c3.8,2.2,6.34.76,6.34-3.6V1569.7A13,13,0,0,0,1217.79,1558.78Zm-6.34,88.6-27.25-15.74c-3.8-2.19-6.33-.75-6.33,3.61v31.24l-67.81-39.15v-77.73l27.25,15.73c3.8,2.2,6.34.76,6.34-3.6V1530.5l67.8,39.15Zm-91.25-72.3v37.77a13,13,0,0,0,6.34,10.93l33,19c3.8,2.2,6.34.75,6.34-3.6v-30.51l26.61,15.36c3.8,2.2,6.34.75,6.34-3.6v-37.78a13,13,0,0,0-6.34-10.92l-33-19c-3.8-2.19-6.34-.75-6.34,3.61v30.51l-26.61-15.37C1122.73,1569.28,1120.2,1570.72,1120.2,1575.08Zm45.63-4.17,20.27,11.71v23.24l-20.27-11.7Zm-33,18.75,20.28,11.71v23.24l-20.28-11.7Z"/><path class="cls-26" d="M1719.78,1237.23l-310.89,179.51c-24.83,14.33-62.43,15.9-83.92,3.48L999.08,1232.07c-12-6.9-16.45-16.71-13.75-26.51V1053.78h754.23v150.73C1742.7,1215.48,1735.91,1227.92,1719.78,1237.23Z"/><path class="cls-27" d="M1361.41,1268c-13.45,0-25.69-2.79-34.46-7.85L1001.1,1072c-8.08-4.66-12.53-10.9-12.53-17.58,0-8.41,6.76-17.14,18.55-24L1318,850.94c12.48-7.2,29-11.32,45.49-11.32,13.45,0,25.68,2.78,34.45,7.85L1723.8,1035.6c8.08,4.66,12.52,10.91,12.52,17.58,0,8.42-6.76,17.15-18.55,24l-310.88,179.49C1394.42,1263.82,1377.84,1268,1361.41,1268Z"/><path class="cls-15" d="M1363.49,835.62v8c12.76,0,24.28,2.59,32.45,7.31l325.86,188.13c4.8,2.77,10.52,7.47,10.52,14.12,0,6.85-6.18,14.5-16.55,20.49l-310.88,179.49C1393,1260,1377.16,1264,1361.41,1264c-12.76,0-24.29-2.6-32.46-7.32L1003.1,1068.5c-4.8-2.77-10.53-7.47-10.53-14.12,0-6.84,6.19-14.5,16.55-20.48L1320,854.41c11.88-6.86,27.72-10.79,43.48-10.79v-8m0,0c-16.5,0-33.9,4-47.48,11.86L1005.12,1027c-24.84,14.34-27.54,36-6,48.46L1325,1263.56c9.75,5.63,22.8,8.39,36.46,8.39,16.5,0,33.89-4,47.48-11.87l310.88-179.48c24.85-14.35,27.54-36,6-48.47L1399.94,844c-9.75-5.63-22.79-8.38-36.45-8.38Z"/><path class="cls-16" d="M1363.49,835.62v5c13.28,0,25.33,2.74,34,7.71l325.86,188.13c7.87,4.55,12,10.33,12,16.72,0,8-6.58,16.46-18,23.09l-310.88,179.48c-12.32,7.12-28.72,11.2-45,11.2-13.28,0-25.34-2.74-34-7.72L1001.6,1071.1c-7.87-4.54-12-10.32-12-16.72,0-8.05,6.58-16.46,18-23.08l310.89-179.49c12.32-7.11,28.71-11.19,45-11.19v-5m0,0c-16.5,0-33.9,4-47.48,11.86L1005.12,1027c-24.84,14.34-27.54,36-6,48.46L1325,1263.56c9.75,5.63,22.8,8.39,36.46,8.39,16.49,0,33.89-4,47.48-11.87l310.88-179.48c24.85-14.35,27.54-36,6-48.47L1399.94,844c-9.75-5.63-22.79-8.38-36.45-8.38Z"/><path class="cls-28" d="M1286.63,1338.55a15.86,15.86,0,0,1-.25,2.86c-.72,3.93-3,6.19-6,6.19a8.29,8.29,0,0,1-4.1-1.24l-233.4-134.75c-5.71-3.29-10.33-12.13-10.33-19.74,0-5.67,2.56-9,6.23-9h.2a8.31,8.31,0,0,1,3.9,1.23l233.4,134.75C1282,1322.11,1286.63,1331,1286.63,1338.55Z"/><path class="cls-29" d="M1286.63,1338.55a15.86,15.86,0,0,1-.25,2.86,8.31,8.31,0,0,1-3.9-1.23l-233.4-134.75c-5.7-3.3-10.33-12.14-10.33-19.74a15.86,15.86,0,0,1,.25-2.86,8.31,8.31,0,0,1,3.9,1.23l233.4,134.75C1282,1322.11,1286.63,1331,1286.63,1338.55Z"/><path class="cls-30" d="M1229.75,1924.46a14.9,14.9,0,0,1-.25,2.85c-.72,3.93-3,6.2-6,6.2a8.26,8.26,0,0,1-4.1-1.24L1042.9,1830.35c-5.71-3.29-10.33-12.13-10.33-19.74,0-5.66,2.56-9,6.23-9h.2a8.28,8.28,0,0,1,3.9,1.23l176.52,101.92C1225.12,1908,1229.75,1916.85,1229.75,1924.46Z"/><path class="cls-31" d="M1286.63,1957.3a14.9,14.9,0,0,1-.25,2.85c-.72,3.93-3,6.2-6,6.2a8.26,8.26,0,0,1-4.1-1.24L1253,1951.66c-5.71-3.29-10.33-12.13-10.33-19.74,0-5.67,2.56-9.05,6.23-9.05h.2a8.31,8.31,0,0,1,3.9,1.23l23.29,13.45C1282,1940.85,1286.63,1949.69,1286.63,1957.3Z"/><path class="cls-32" d="M1229.75,1924.46a14.9,14.9,0,0,1-.25,2.85,8.51,8.51,0,0,1-3.9-1.23l-176.52-101.91c-5.7-3.29-10.33-12.13-10.33-19.74a15.86,15.86,0,0,1,.25-2.86,8.28,8.28,0,0,1,3.9,1.23l176.52,101.92C1225.12,1908,1229.75,1916.85,1229.75,1924.46Z"/><path class="cls-33" d="M1286.63,1957.3a14.9,14.9,0,0,1-.25,2.85,8.51,8.51,0,0,1-3.9-1.23l-23.29-13.44c-5.7-3.3-10.33-12.14-10.33-19.74a15.86,15.86,0,0,1,.25-2.86,8.31,8.31,0,0,1,3.9,1.23l23.29,13.45C1282,1940.85,1286.63,1949.69,1286.63,1957.3Z"/><path class="cls-34" d="M1229.75,1859.47a14.9,14.9,0,0,1-.25,2.85c-.72,3.93-3,6.2-6,6.2a8.26,8.26,0,0,1-4.1-1.24L1042.9,1765.36c-5.71-3.29-10.33-12.13-10.33-19.74,0-5.66,2.56-9,6.23-9h.2a8.28,8.28,0,0,1,3.9,1.23l176.52,101.92C1225.12,1843,1229.75,1851.86,1229.75,1859.47Z"/><path class="cls-35" d="M1286.63,1892.31a14.9,14.9,0,0,1-.25,2.85c-.72,3.93-3,6.2-6,6.2a8.26,8.26,0,0,1-4.1-1.24L1253,1886.67c-5.71-3.29-10.33-12.13-10.33-19.74,0-5.67,2.56-9,6.23-9h.2a8.31,8.31,0,0,1,3.9,1.23l23.29,13.45C1282,1875.86,1286.63,1884.7,1286.63,1892.31Z"/><path class="cls-36" d="M1229.75,1859.47a14.9,14.9,0,0,1-.25,2.85,8.51,8.51,0,0,1-3.9-1.23l-176.52-101.91c-5.7-3.29-10.33-12.13-10.33-19.74a15.86,15.86,0,0,1,.25-2.86,8.28,8.28,0,0,1,3.9,1.23l176.52,101.92C1225.12,1843,1229.75,1851.86,1229.75,1859.47Z"/><path class="cls-37" d="M1286.63,1892.31a14.9,14.9,0,0,1-.25,2.85,8.51,8.51,0,0,1-3.9-1.23l-23.29-13.44c-5.7-3.3-10.33-12.14-10.33-19.74a15.86,15.86,0,0,1,.25-2.86,8.31,8.31,0,0,1,3.9,1.23l23.29,13.45C1282,1875.86,1286.63,1884.7,1286.63,1892.31Z"/></g><g id="_Teal" data-name="+ Teal"><g class="cls-1"><path class="cls-38" d="M1705.8,1258.92l-.35-121.86-24.67-14.34.35,121.86c0,2.8,1,4.77,2.59,5.69l24.67,14.34C1706.79,1263.68,1705.81,1261.71,1705.8,1258.92Z"/><path class="cls-39" d="M1869.52,928.59c-1.61-.93-3.85-.8-6.31.62l-106,61.23,24.66,14.33,106-61.22c2.47-1.43,4.71-1.56,6.32-.62Z"/><path class="cls-40" d="M1680.53,1034.68l-106,61.22c-4.91,2.84-8.87,9.7-8.85,15.33l.19,67.65c0,2.79,1,4.76,2.59,5.69l24.67,14.33c-1.59-.92-2.58-2.89-2.59-5.69l-.19-67.64c0-5.64,3.94-12.5,8.84-15.33l106-61.23Z"/><path class="cls-41" d="M1772.58,877.84c4.89-2.83,8.88-.56,8.9,5.08l.34,121.85,106-61.22c4.91-2.83,8.9-.56,8.91,5.07l.2,67.65c0,5.62-4,12.49-8.86,15.32l-106,61.23.35,121.86c0,5.63-4,12.49-8.85,15.32l-58.86,34c-4.91,2.83-8.9.56-8.91-5.07l-.35-121.86-106,61.22c-4.9,2.84-8.88.56-8.9-5.07l-.19-67.64c0-5.64,3.94-12.5,8.84-15.33l106-61.23-.34-121.86c0-5.63,4-12.49,8.85-15.32Z"/><path class="cls-42" d="M1754.22,862.89c-1.61-.94-3.85-.81-6.31.62l-58.87,34c-4.9,2.83-8.87,9.69-8.85,15.33l.34,121.86L1705.2,1049l-.34-121.86c0-5.63,4-12.49,8.85-15.32l58.87-34c2.46-1.42,4.7-1.55,6.31-.62Z"/></g></g></g></g></svg>