<svg xmlns="http://www.w3.org/2000/svg" xmlns:xlink="http://www.w3.org/1999/xlink" viewBox="0 0 2500 2500"><defs><style>.cls-1{fill:url(#radial-gradient);}.cls-2{opacity:0.16;}.cls-3{fill:#85d8d1;}.cls-4{opacity:0.18;}.cls-5{fill:#333a45;}.cls-6{fill:none;stroke:#333a45;opacity:0.47;}.cls-7{fill:url(#linear-gradient);}.cls-8{fill:url(#Nueva_muestra_de_degradado_11);}.cls-9{fill:#fafbfc;}.cls-10{fill:#fff;}.cls-11{fill:url(#linear-gradient-2);}.cls-12{fill:url(#Nueva_muestra_de_degradado_2);}.cls-13{fill:url(#Degradado_sin_nombre_79);}.cls-14{fill:url(#linear-gradient-3);}.cls-15{fill:#6ad8cf;}.cls-16{fill:#c2ebe8;}.cls-17{fill:url(#Nueva_muestra_de_degradado_45);}.cls-18{fill:#91e2db;}.cls-19{fill:url(#linear-gradient-4);}.cls-20{fill:url(#Nueva_muestra_de_degradado_57);}.cls-21{fill:url(#Nueva_muestra_de_degradado_57-2);}.cls-22{filter:url(#AI_DesenfoqueGaussiano_7);}.cls-23{fill:url(#radial-gradient-2);}.cls-24{fill:#ccd3d8;}.cls-25{isolation:isolate;}.cls-26{fill:url(#Degradado_sin_nombre_203);}.cls-27{fill:url(#Degradado_sin_nombre_202);}.cls-28{fill:url(#Degradado_sin_nombre_201);}.cls-29{fill:#39c2ec;}.cls-30{fill:url(#Degradado_sin_nombre_201-2);}</style><radialGradient id="radial-gradient" cx="-67.39" cy="-4321.07" r="96.6" gradientTransform="translate(184.93 3026.92) scale(1.13 0.65)" gradientUnits="userSpaceOnUse"><stop offset="0.59" stop-color="#5d7586" stop-opacity="0.3"/><stop offset="0.76" stop-color="#5d7586" stop-opacity="0.14"/><stop offset="0.94" stop-color="#5d7586" stop-opacity="0"/></radialGradient><linearGradient id="linear-gradient" x1="15245.42" y1="93.69" x2="15064.37" y2="93.69" gradientTransform="matrix(-1, 0, 0, 1, 15261.98, 0)" gradientUnits="userSpaceOnUse"><stop offset="0" stop-color="#e5f4fa"/><stop offset="0.36" stop-color="#e5f4fa"/><stop offset="0.45" stop-color="#d5eaf7"/><stop offset="0.54" stop-color="#c8e3f5"/><stop offset="0.74" stop-color="#cbe4f4"/><stop offset="1" stop-color="#cee7f5"/></linearGradient><linearGradient id="Nueva_muestra_de_degradado_11" x1="24.46" y1="39.86" x2="208.73" y2="65.93" gradientUnits="userSpaceOnUse"><stop offset="0" stop-color="#fafbfc"/><stop offset="0.55" stop-color="#f5f8fa"/><stop offset="0.99" stop-color="#e6f4fa"/><stop offset="0.99" stop-color="#d4ecf6" stop-opacity="0.9"/></linearGradient><linearGradient id="linear-gradient-2" x1="108.72" y1="56.44" x2="-0.24" y2="56.44" gradientTransform="matrix(1, 0, 0, 1, 0, 0)" xlink:href="#linear-gradient"/><linearGradient id="Nueva_muestra_de_degradado_2" x1="4.26" y1="24.24" x2="113.52" y2="39.7" gradientUnits="userSpaceOnUse"><stop offset="0" stop-color="#fafbfc"/><stop offset="0.55" stop-color="#f5f8fa"/><stop offset="0.99" stop-color="#e5f4fa"/><stop offset="0.99" stop-color="#d4ecf6" stop-opacity="0.9"/></linearGradient><radialGradient id="Degradado_sin_nombre_79" cx="-466.72" cy="26.72" r="55.74" gradientTransform="matrix(0.01, 0.94, -0.53, 0, 70.79, 469.47)" gradientUnits="userSpaceOnUse"><stop offset="0.37" stop-color="#1da1dc"/><stop offset="0.49" stop-color="#1da1db" stop-opacity="0.99"/><stop offset="0.57" stop-color="#1ba2d7" stop-opacity="0.94"/><stop offset="0.65" stop-color="#19a3d1" stop-opacity="0.87"/><stop offset="0.72" stop-color="#16a5c8" stop-opacity="0.77"/><stop offset="0.79" stop-color="#12a7bd" stop-opacity="0.63"/><stop offset="0.85" stop-color="#0eaaaf" stop-opacity="0.47"/><stop offset="0.91" stop-color="#08ad9e" stop-opacity="0.27"/><stop offset="0.97" stop-color="#02b18c" stop-opacity="0.05"/><stop offset="0.98" stop-color="#00b287" stop-opacity="0"/></radialGradient><linearGradient id="linear-gradient-3" x1="100.88" y1="33.67" x2="7.49" y2="33.67" gradientUnits="userSpaceOnUse"><stop offset="0.05" stop-color="#38b6be"/><stop offset="0.37" stop-color="#37b6bc"/><stop offset="0.48" stop-color="#35b8b5"/><stop offset="0.5" stop-color="#34b8b3"/><stop offset="1" stop-color="#31baaa"/></linearGradient><linearGradient id="Nueva_muestra_de_degradado_45" x1="-17.5" y1="929.48" x2="-136.71" y2="962.29" gradientTransform="matrix(-0.95, 0.32, 0.32, 0.95, 487.25, 98.53)" gradientUnits="userSpaceOnUse"><stop offset="0" stop-color="#c2ebe8" stop-opacity="0.1"/><stop offset="0.05" stop-color="#8fe0d9" stop-opacity="0.1"/><stop offset="0.15" stop-color="#6ad8cf" stop-opacity="0.1"/><stop offset="0.87" stop-color="#43a39b" stop-opacity="0.3"/></linearGradient><linearGradient id="linear-gradient-4" x1="695.09" y1="983.57" x2="1185" y2="1156.65" gradientUnits="userSpaceOnUse"><stop offset="0" stop-color="#c2ebe8" stop-opacity="0"/><stop offset="0.05" stop-color="#a7e5e0" stop-opacity="0.03"/><stop offset="0.17" stop-color="#79dbd3" stop-opacity="0.08"/><stop offset="0.31" stop-color="#6ad8cf" stop-opacity="0.1"/><stop offset="0.77" stop-color="#43a39b" stop-opacity="0.6"/></linearGradient><linearGradient id="Nueva_muestra_de_degradado_57" x1="359.88" y1="1393.98" x2="960.29" y2="1595.43" gradientUnits="userSpaceOnUse"><stop offset="0" stop-color="#c2ebe8" stop-opacity="0"/><stop offset="0.06" stop-color="#a7e5e0" stop-opacity="0.03"/><stop offset="0.21" stop-color="#79dbd3" stop-opacity="0.08"/><stop offset="0.37" stop-color="#6ad8cf" stop-opacity="0.1"/><stop offset="0.86" stop-color="#43a39b" stop-opacity="0.6"/></linearGradient><linearGradient id="Nueva_muestra_de_degradado_57-2" x1="358.27" y1="1398.76" x2="958.68" y2="1600.2" xlink:href="#Nueva_muestra_de_degradado_57"/><filter id="AI_DesenfoqueGaussiano_7" name="AI_DesenfoqueGaussiano_7"><feGaussianBlur stdDeviation="7"/></filter><radialGradient id="radial-gradient-2" cx="1278.21" cy="1760.97" r="508.38" gradientUnits="userSpaceOnUse"><stop offset="0" stop-color="#5d7586" stop-opacity="0.3"/><stop offset="1" stop-color="#5d7586" stop-opacity="0"/></radialGradient><linearGradient id="Degradado_sin_nombre_203" x1="1609.74" y1="1244.64" x2="1591.49" y2="1456.66" gradientUnits="userSpaceOnUse"><stop offset="0.01" stop-color="#0071b0"/><stop offset="0.37" stop-color="#0f89c6"/><stop offset="0.73" stop-color="#199bd6"/><stop offset="1" stop-color="#1da1dc"/></linearGradient><linearGradient id="Degradado_sin_nombre_202" x1="1645.53" y1="1143.57" x2="1758.31" y2="1074.07" gradientUnits="userSpaceOnUse"><stop offset="0.01" stop-color="#0071b0"/><stop offset="0.1" stop-color="#0579b7"/><stop offset="0.42" stop-color="#128fcc"/><stop offset="0.72" stop-color="#1a9cd8"/><stop offset="1" stop-color="#1da1dc"/></linearGradient><linearGradient id="Degradado_sin_nombre_201" x1="1469.38" y1="1352.91" x2="1567.74" y2="1152.96" gradientUnits="userSpaceOnUse"><stop offset="0.01" stop-color="#0071b0"/><stop offset="0.29" stop-color="#0173b2"/><stop offset="0.39" stop-color="#057ab8"/><stop offset="0.46" stop-color="#0c85c3"/><stop offset="0.52" stop-color="#1696d2"/><stop offset="0.55" stop-color="#1da1dc"/><stop offset="0.98" stop-color="#1da1dc"/><stop offset="1" stop-color="#1da1dc"/></linearGradient><linearGradient id="Degradado_sin_nombre_201-2" x1="1597.3" y1="1109.19" x2="1666.53" y2="979.92" xlink:href="#Degradado_sin_nombre_201"/><symbol id="base_6" data-name="base 6" viewBox="0 0 107.74 81.79"><path class="cls-11" d="M107.42,31.4l-.07,19.45c0,7.91-5.22,15.8-15.6,21.83-20.89,12.15-54.87,12.15-75.9,0C5.26,66.57,0,58.56,0,50.55L.07,31.09C.05,39.1,107.4,39.3,107.42,31.4Z"/><path class="cls-12" d="M53.92,60.34c-14,0-27.13-3.14-37-8.84C7.35,46,2.08,38.76,2.07,31.17S7.24,16.47,16.67,11c9.81-5.7,22.91-8.84,36.9-8.84S80.7,5.29,90.58,11c9.56,5.52,14.83,12.75,14.84,20.34S100.25,46,90.82,51.5C81,57.2,67.91,60.34,53.92,60.34Z"/><path class="cls-9" d="M53.57.15v4c13.65,0,26.43,3.05,36,8.58,8.92,5.14,13.83,11.75,13.84,18.6S98.6,44.67,89.81,49.77c-9.5,5.53-22.25,8.57-35.89,8.57s-26.43-3.05-36-8.57C9,44.62,4.08,38,4.07,31.16S8.89,17.83,17.68,12.72c9.5-5.52,22.25-8.57,35.89-8.57v-4m0,0c-13.74,0-27.45,3-37.9,9.11-20.9,12.14-20.79,31.83.25,44,10.51,6.07,24.26,9.11,38,9.11s27.46-3,37.9-9.11c20.9-12.14,20.79-31.83-.24-44C81.06,3.19,67.31.15,53.57.15Z"/><path class="cls-10" d="M53.57.15v2c14,0,27.13,3.14,37,8.84,9.56,5.52,14.83,12.75,14.84,20.33S100.25,46,90.82,51.5c-9.81,5.7-22.91,8.84-36.9,8.84s-27.13-3.14-37-8.84C7.35,46,2.08,38.76,2.07,31.17S7.24,16.47,16.67,11c9.81-5.7,22.91-8.84,36.9-8.84v-2m0,0c-13.74,0-27.45,3-37.9,9.11-20.9,12.14-20.79,31.83.25,44,10.51,6.07,24.26,9.11,38,9.11s27.46-3,37.9-9.11c20.9-12.14,20.79-31.83-.24-44C81.06,3.19,67.31.15,53.57.15Z"/><ellipse class="cls-13" cx="54.07" cy="31.09" rx="31.09" ry="53.68" transform="translate(22.63 84.96) rotate(-89.64)"/><path class="cls-14" d="M99.77,12.21l-.06,16.67c0,6.78-4.47,13.54-13.37,18.71C68.43,58,39.31,58,21.28,47.59c-9.07-5.23-13.6-12.11-13.58-19L7.76,12C7.74,18.81,99.75,19,99.77,12.21Z"/></symbol><symbol id="DataBase" data-name="DataBase" viewBox="0 0 217.87 276.45"><g id="Data_warehouse" data-name="Data warehouse"><ellipse class="cls-1" cx="108.94" cy="213.55" rx="108.94" ry="62.89"/><g class="cls-2"><path class="cls-3" d="M108.2,157.14c22.83,0,45.63,5,63,15.13,34.72,20.18,34.53,52.89-.41,73.07-17.48,10.08-40.33,15.13-63.16,15.13s-45.62-5.05-63-15.13c-34.72-20.18-34.54-52.89.41-73.07,17.47-10.09,40.33-15.13,63.15-15.13m0-3c-24.34,0-47.3,5.52-64.65,15.53C25.62,180,15.74,194,15.72,208.93s9.71,28.71,27.41,39c17.24,10,40.15,15.54,64.49,15.54s47.3-5.52,64.66-15.54c17.92-10.35,27.81-24.29,27.83-39.25s-9.72-28.72-27.42-39c-17.24-10-40.14-15.54-64.49-15.54Z"/></g><g class="cls-4"><path class="cls-5" d="M108.2,157.14c22.83,0,45.63,5,63,15.13,34.72,20.18,34.53,52.89-.41,73.07-17.48,10.08-40.33,15.13-63.16,15.13s-45.62-5.05-63-15.13c-34.72-20.18-34.54-52.89.41-73.07,17.47-10.09,40.33-15.13,63.15-15.13m0-2c-24.17,0-46.95,5.47-64.15,15.4-17.61,10.16-27.31,23.8-27.33,38.39s9.54,28,26.91,38.14c17.1,9.93,39.82,15.4,64,15.4s46.95-5.47,64.16-15.4c17.6-10.17,27.31-23.8,27.33-38.39s-9.54-28-26.92-38.14c-17.09-9.93-39.82-15.4-64-15.4Z"/></g><ellipse class="cls-6" cx="107.91" cy="208.8" rx="89.19" ry="51.66" transform="translate(-0.59 0.31) rotate(-0.16)"/><use width="107.74" height="81.79" transform="matrix(-1.66, 0, 0, 1.66, 197.22, 123.85)" xlink:href="#base_6"/><use width="107.74" height="81.79" transform="matrix(-1.66, 0, 0, 1.66, 197.22, 63.06)" xlink:href="#base_6"/><path class="cls-7" d="M197.22,51.92l-.11,32.63c0,13.14-8.67,26.26-25.92,36.28C136.47,141,80,141,45.05,120.83,27.46,110.68,18.68,97.35,18.72,84.05l.11-32.64C18.8,64.72,197.18,65.06,197.22,51.92Z"/><path class="cls-8" d="M107.62,101.33c-23.47,0-45.49-5.28-62-14.86C29.55,77.12,20.7,64.8,20.72,51.79s9-25.5,25.33-34.92C62.65,7.28,84.73,2,108.2,2s45.49,5.28,62,14.86c16.09,9.35,24.95,21.67,24.93,34.68s-9,25.5-25.34,34.92C153.17,96.05,131.1,101.33,107.62,101.33Z"/><path class="cls-9" d="M108.2,4c23.13,0,44.79,5.18,61,14.59,15.45,9,23.94,20.68,23.93,32.94s-8.66,24.15-24.33,33.2c-16.31,9.42-38,14.6-61.16,14.6s-44.78-5.18-61-14.59C31.2,75.76,22.7,64.06,22.72,51.8s8.66-24.15,24.33-33.2C63.35,9.18,85.07,4,108.2,4m0-4C85.38,0,62.52,5,45.05,15.13,10.1,35.31,9.92,68,44.64,88.2c17.36,10.08,40.16,15.13,63,15.13s45.68-5,63.16-15.13c34.94-20.18,35.13-52.89.41-73.07C153.83,5,131,0,108.2,0Z"/><path class="cls-10" d="M108.2,2c23.48,0,45.49,5.28,62,14.86,16.09,9.35,24.95,21.67,24.93,34.68s-9,25.5-25.33,34.92c-16.61,9.59-38.68,14.87-62.16,14.87s-45.49-5.28-62-14.86C29.55,77.12,20.7,64.8,20.72,51.79s9-25.51,25.33-34.93C62.65,7.28,84.72,2,108.2,2m0-2C85.38,0,62.52,5,45.05,15.13,10.1,35.31,9.92,68,44.64,88.2c17.36,10.08,40.16,15.13,63,15.13s45.68-5,63.16-15.13c34.94-20.18,35.13-52.89.41-73.07C153.83,5,131,0,108.2,0Z"/></g></symbol></defs><g id="Plant"><g id="Plant-2" data-name="Plant"><g id="Layer1_8_MEMBER_0_FILL" data-name="Layer1 8 MEMBER 0 FILL"><path class="cls-15" d="M1049.11,1582.59l-6.85,3.71q-49-84-51.74-248.27l17.28-17.88q-16.27,124.68,41.31,262.44m-138-146.41,3.88-4q60.12,78.87,88.29,160.07l-12,4Q969,1517.71,911.09,1436.18Z"/></g><g id="Layer1_8_MEMBER_1_FILL" data-name="Layer1 8 MEMBER 1 FILL"><path class="cls-16" d="M874,878.82q80.9,300.67,97.83,650.27Q732.41,1357,632,1007,531.62,656.85,667,418.63,827.8,707.24,874,878.82Z"/></g><g id="Layer1_8_MEMBER_1_FILL-2" data-name="Layer1 8 MEMBER 1 FILL"><path class="cls-17" d="M874,878.82q80.9,300.67,97.83,650.27Q732.41,1357,632,1007,531.62,656.85,667,418.63,827.8,707.24,874,878.82Z"/></g><g id="Layer1_8_MEMBER_2_FILL" data-name="Layer1 8 MEMBER 2 FILL"><path class="cls-18" d="M1033.75,608.64q95.73,127.65,110.77,305T1038.9,1299.12q-50.85,108-25.82,206.47-43.64-64.11-82.94-200.46t-4.86-326.6Q945.34,794.45,1033.75,608.64Z"/></g><path class="cls-15" d="M1039.55,601h0l.12,0-.12,0m-24.82,378.6V980q35.52-195.9,28.91-300,11.68,127.69-14.23,302.16a.41.41,0,0,0,0,.27q-48.51,251.63-18.14,397.13a292.46,292.46,0,0,0-6.43,57.58Q939.28,1301.52,1014.73,979.58Z"/><path class="cls-15" d="M972.89,1530.17q-5.79-4.18-11.52-8.43c-132.83-260.19-250-792.23-294.45-1084.37,60.81,306.19,178.42,778.45,303.25,1064.48C971.13,1511.28,972,1520.73,972.89,1530.17Z"/><g id="Layer1_8_MEMBER_2_FILL-2" data-name="Layer1 8 MEMBER 2 FILL"><path class="cls-18" d="M598.14,1370.11c144.37.88,333.43,108.55,401.12,232.12,21.51,39.26,8.94-7.3,28.94,15C858.16,1626.57,656.46,1537.27,598.14,1370.11Z"/></g><path class="cls-15" d="M973.93,1602a104,104,0,0,0-2.28-12.88c-122.22-64.67-241.85-133.88-359.53-206.46,118.71,76.28,238.89,150.17,361.82,219.48A.66.66,0,0,1,973.93,1602Z"/><path class="cls-19" d="M1038.9,1299.12Q1159.44,1091,1144.52,913.61t-110.77-305q-88.41,185.8-108.47,369.89-6.85,37.8-10.79,73.45Q896.77,963.47,874,878.82,827.8,707.23,667,418.63,531.63,656.85,632,1007q98.17,342.11,329.13,514.19l.27.53,1.68,1.23a459.74,459.74,0,0,1,23.88,58.94c-76.14-114.82-252.4-211-388.79-211.8,56.23,161.17,245.75,249.94,411.66,247.71-2.16-1.66-5.36-6.13-10.54-15.59-1.34-2.44-2.74-4.87-4.17-7.3l8.17-2.71A513.54,513.54,0,0,0,972,1520.7q-.62-6.54-1.26-13.09-2.78-51-6.93-101,21.78,56.21,44.77,92.14,12.52,51.26,33.68,87.55l6.85-3.71q-36.1-86.37-43.17-167.59Q1011,1358.48,1038.9,1299.12Z"/><path class="cls-20" d="M1013.24,1617.76q7.51-.15,15-.55C1016.56,1604.25,1016,1614.58,1013.24,1617.76Z"/><path class="cls-21" d="M1013.24,1617.76l-3.44.06C1011.39,1619,1012.41,1618.73,1013.24,1617.76Z"/></g></g><g id="Webhooks"><g class="cls-22"><path class="cls-23" d="M1243.89,1959.17h680.59V1602.52H1243.89a178.33,178.33,0,0,0-178.33,178.33h0A178.33,178.33,0,0,0,1243.89,1959.17Z"/></g><use width="217.87" height="276.45" transform="translate(865.74 946.71) scale(3.87)" xlink:href="#DataBase"/><g id="WebhookiconB"><path class="cls-24" d="M1271.92,1103.15c-1-5.22-1.38-12.25.78-17.34,10.23-24.07,52.46-38.66,94.25-32.54s67.42,30.63,57.2,54.7c-3.63,8.52-11.49,16.22-22.62,22.16a14.49,14.49,0,0,1-4.15,1.41,19.26,19.26,0,0,1-4.81.25,17.25,17.25,0,0,1-4.56-.94,10.47,10.47,0,0,1-3.46-2,0,0,0,0,1,0-.06,4.74,4.74,0,0,1-1.85-4.49,6.48,6.48,0,0,1,3.56-4.1c7.73-4.17,13.19-9.56,15.72-15.51,7.23-17-10.89-34.34-40.43-38.66s-59.4,6-66.62,23c-2.51,5.89-.59,16.68,2.81,22.52a1.54,1.54,0,0,1,.33,1,1.58,1.58,0,0,1-.41,1,3.14,3.14,0,0,1-1.06.78,5.46,5.46,0,0,1-1.53.44l-88.92,15.15-.11-.24a16.38,16.38,0,0,1-6.56,6.6c-10.42,6.23-27.69,6.36-38.57.29s-11.26-16-.84-22.27,27.68-6.36,38.57-.29a23.1,23.1,0,0,1,2.54,1.63Z"/><path class="cls-24" d="M1333.44,1155.14l19-40.29-1-.18a36.83,36.83,0,0,0,15.75-4.61c10.42-6.23,10-16.2-.84-22.27s-28.15-5.94-38.57.29-10,16.2.84,22.27l.91.49-1.17-.21-23.68,50.19a1.36,1.36,0,0,0-.08,1,1.94,1.94,0,0,0,.63.92,3.88,3.88,0,0,0,1.24.69,6.46,6.46,0,0,0,1.63.34c10.43,1.26,24.42,5.37,32,9.62,22,12.25,22.73,32.41,1.7,45s-55.94,12.84-77.91.58c-7.68-4.28-13.06-9.74-15.51-15.73a8.06,8.06,0,0,0-4.41-3.86,18.48,18.48,0,0,0-7.64-1.36h-.11a17.46,17.46,0,0,0-4.65.73,11.59,11.59,0,0,0-3.66,1.8,5.8,5.8,0,0,0-2,2.54,3.84,3.84,0,0,0,.06,2.79c3.43,8.58,11.12,16.42,22.11,22.55,31.08,17.34,80.47,17,110.22-.83s28.68-46.31-2.41-63.64A95.14,95.14,0,0,0,1333.44,1155.14Z"/><path class="cls-24" d="M1201,1169c8.72-1.42,15.4-2.79,22.72-5.85l49.75,28.72c-2,5.19.62,10.86,7.77,14.84,10.88,6.07,28.14,5.94,38.56-.29s10-16.2-.84-22.27c-8-4.47-19.49-5.58-29.14-3.36l-60.46-34.91a5,5,0,0,0-1.44-.54,6.82,6.82,0,0,0-1.7-.16,6.7,6.7,0,0,0-1.65.27,4.11,4.11,0,0,0-1.29.65c-7,4.57-18.56,8.55-28.68,10.2-29.19,4.77-59.81-5.08-68.32-22s8.28-34.49,37.48-39.26a94.13,94.13,0,0,1,31.24.23,19.72,19.72,0,0,0,8-.25,11.17,11.17,0,0,0,5.8-3.13l.08,0a4.5,4.5,0,0,0,1.19-2.7,4.15,4.15,0,0,0-.91-2.74,8,8,0,0,0-2.82-2.28,14.57,14.57,0,0,0-4.21-1.39,133.74,133.74,0,0,0-44.72-.4c-41.31,6.75-65.07,31.63-53,55.54S1159.73,1175.74,1201,1169Z"/></g></g><g id="PlusBlue"><g id="_Blue" data-name="+ Blue"><g class="cls-25"><path class="cls-26" d="M1614.85,1380.84,1614.5,1259l-24.67-14.33.35,121.85c0,2.8,1,4.77,2.59,5.69l24.67,14.34C1615.84,1385.6,1614.86,1383.64,1614.85,1380.84Z"/><path class="cls-27" d="M1778.57,1050.52c-1.61-.94-3.85-.81-6.31.61l-106,61.23,24.66,14.34,106.05-61.23c2.47-1.42,4.71-1.56,6.32-.62Z"/><path class="cls-28" d="M1589.58,1156.6l-106,61.23c-4.91,2.83-8.87,9.69-8.85,15.33l.19,67.64c0,2.8,1,4.76,2.59,5.69l24.67,14.34c-1.6-.93-2.58-2.9-2.59-5.7l-.19-67.64c0-5.63,3.94-12.5,8.84-15.33l106-61.22Z"/><path class="cls-29" d="M1681.63,999.77c4.89-2.83,8.88-.57,8.9,5.07l.34,121.86,106.05-61.23c4.91-2.83,8.9-.56,8.91,5.08l.2,67.64c0,5.63-4,12.49-8.86,15.33l-106.05,61.22.35,121.86c0,5.64-4,12.5-8.85,15.32l-58.86,34c-4.91,2.83-8.9.56-8.91-5.07L1614.5,1259l-106,61.23c-4.9,2.83-8.89.55-8.9-5.08l-.19-67.64c0-5.63,3.94-12.5,8.84-15.33l106-61.22-.34-121.86c0-5.64,3.95-12.5,8.85-15.33Z"/><path class="cls-30" d="M1663.27,984.81c-1.61-.94-3.85-.8-6.31.62l-58.87,34c-4.9,2.83-8.87,9.69-8.85,15.32l.34,121.86,24.67,14.34-.34-121.86c0-5.64,3.95-12.5,8.85-15.33l58.87-34c2.46-1.43,4.7-1.56,6.31-.62Z"/></g></g></g></svg>