<?xml version="1.0" encoding="UTF-8"?>
<svg width="24px" height="24px" viewBox="0 0 24 24" version="1.1" xmlns="http://www.w3.org/2000/svg" xmlns:xlink="http://www.w3.org/1999/xlink">
    <title>Icons/Large Set/Infrastructure Cluster Thin Version</title>
    <g id="Icons/Large-Set/Infrastructure-Cluster-Thin-Version" stroke="none" stroke-width="1" fill="none" fill-rule="evenodd">
        <path d="M18.75,2 C19.4395,2 20,2.5435 20,3.211 L20,3.211 L20,20.7895 C20,21.457 19.4395,22 18.75,22 L18.75,22 L5.25,22 C4.5605,22 4,21.457 4,20.7895 L4,20.7895 L4,3.211 C4,2.5435 4.5605,2 5.25,2 L5.25,2 Z M19,15.667 L5,15.667 L5,20.7895 C5,20.906 5.1125,21 5.25,21 L5.25,21 L18.75,21 C18.8875,21 19,20.906 19,20.7895 L19,20.7895 L19,15.667 Z M8.06715,17.8614 L8.47215,18.2659 C8.50915,18.3034 8.50915,18.3639 8.47215,18.4009 L8.06715,18.8059 C8.03015,18.8429 7.96965,18.8429 7.93265,18.8059 L7.52765,18.4009 C7.49065,18.3639 7.49065,18.3034 7.52765,18.2659 L7.93265,17.8614 C7.96965,17.8244 8.03015,17.8244 8.06715,17.8614 Z M16.5,17.8335 L16.5,18.8335 L10.5,18.8335 L10.5,17.8335 L16.5,17.8335 Z M19,9.3335 L5,9.3335 L5,14.667 L19,14.667 L19,9.3335 Z M8.06715,11.52835 L8.47215,11.93235 C8.50915,11.97035 8.50915,12.03035 8.47215,12.06785 L8.06715,12.47235 C8.03015,12.50985 7.96965,12.50985 7.93265,12.47235 L7.52765,12.06785 C7.49065,12.03035 7.49065,11.97035 7.52765,11.93235 L7.93265,11.52835 C7.96965,11.49085 8.03015,11.49085 8.06715,11.52835 Z M16.5,11.5 L16.5,12.5 L10.5,12.5 L10.5,11.5 L16.5,11.5 Z M18.75,3 L5.25,3 C5.1125,3 5,3.0945 5,3.211 L5,3.211 L5,8.3335 L19,8.3335 L19,3.211 C19,3.0945 18.8875,3 18.75,3 L18.75,3 Z M8.06715,5.19485 L8.47215,5.59935 C8.50915,5.63685 8.50915,5.69735 8.47215,5.73435 L8.06715,6.13935 C8.03015,6.17635 7.96965,6.17635 7.93265,6.13935 L7.52765,5.73435 C7.49065,5.69735 7.49065,5.63685 7.52765,5.59935 L7.93265,5.19485 C7.96965,5.15785 8.03015,5.15785 8.06715,5.19485 Z M16.5,5.167 L16.5,6.167 L10.5,6.167 L10.5,5.167 L16.5,5.167 Z" id="Combined-Shape" fill="#273637"></path>
    </g>
</svg>