<?xml version="1.0" encoding="UTF-8"?>
<svg width="24px" height="24px" viewBox="0 0 24 24" version="1.1" xmlns="http://www.w3.org/2000/svg" xmlns:xlink="http://www.w3.org/1999/xlink">
    <title>Icons/Full Set/Hyper-v/Hyper-v Cluster</title>
    <g id="Icons/Full-Set/Hyper-v/Hyper-v-Cluster" stroke="none" stroke-width="1" fill="none" fill-rule="evenodd">
        <path d="M21.3863,18.0055 L21.3863,22.6625 L17.0463,21.9545 L17.0463,18.0055 L21.3863,18.0055 Z M17.0004,2 C18.0994,2 19.0004,2.9 19.0004,4 L19.0004,4 L19,10.8466 L17,11.4116 L16.9994,10 L5.0004,10 L5.0004,14 L11.4634,14 L11.4634,16 L5.0004,16 L5.0004,20 L11.4634,20 L11.4634,22 L5.0004,22 C3.9004,22 3.0004,21.1 3.0004,20 L3.0004,20 L3.0004,4 C3.0004,2.9 3.9004,2 5.0004,2 L5.0004,2 Z M16.0587,18.0226 L16.0587,21.7936 L13.1817,21.3236 L13.1817,18.0226 L16.0587,18.0226 Z M7.1904,17.0595 L7.9004,17.7695 C8.0194,17.8895 8.0194,18.0805 7.9004,18.1905 L7.1904,18.9005 C7.0804,19.0195 6.8894,19.0195 6.7694,18.9005 L6.0594,18.1905 C5.9404,18.0805 5.9404,17.8895 6.0594,17.7695 L6.7694,17.0595 C6.8894,16.9405 7.0804,16.9405 7.1904,17.0595 Z M21.3863,12.4387 L21.3863,17.0527 L17.0463,17.0527 L17.0463,13.3417 L21.3863,12.4387 Z M16.0762,13.544 L16.0762,17.035 L13.1812,17.035 L13.1812,14.147 L16.0762,13.544 Z M7.1904,11.06 L7.9004,11.77 C8.0194,11.89 8.0194,12.08 7.9004,12.19 L7.1904,12.9 C7.0804,13.02 6.8894,13.02 6.7694,12.9 L6.0594,12.19 C5.9404,12.08 5.9404,11.89 6.0594,11.77 L6.7694,11.06 C6.8894,10.94 7.0804,10.94 7.1904,11.06 Z M15,10.9702 L15,11.9772 L11.418,12.8752 L10,12.8752 L10,10.9702 L15,10.9702 Z M17.0004,4 L5.0004,4 L5.0004,8 L17.0004,8 L17.0004,4 Z M15.0004,5 L15.0004,7 L10.0004,7 L10.0004,5 L15.0004,5 Z M7.01630379,4.97183673 C7.0379481,4.97428571 7.0592688,4.97918367 7.07982274,4.98653061 L7.1074,5 L7.13874111,5.01591837 L7.13874111,5.01591837 L7.1904,5.06 L7.9004,5.77 C8.0194,5.89 8.0194,6.08 7.9004,6.19 L7.9004,6.19 L7.1904,6.9 C7.15897143,6.93428571 7.12093061,6.95877551 7.07982274,6.97346939 L7.01630379,6.98816327 C6.92972653,6.99795918 6.83797143,6.96857143 6.7694,6.9 L6.7694,6.9 L6.0594,6.19 C5.9404,6.08 5.9404,5.89 6.0594,5.77 L6.0594,5.77 L6.7694,5.06 C6.78654286,5.04285714 6.80513469,5.02816327 6.82473236,5.01591837 L6.8564,5 L6.88609971,4.98653061 C6.90726589,4.97918367 6.92899475,4.97428571 6.95084315,4.97183673 Z" id="Combined-Shape" fill="#273637"></path>
    </g>
</svg>