<?xml version="1.0" encoding="UTF-8"?><svg id="Layer_1" xmlns="http://www.w3.org/2000/svg" viewBox="0 0 64.56 64.56"><defs><style>.cls-1{fill:#20ddaa;}.cls-1,.cls-2,.cls-3{fill-rule:evenodd;}.cls-2{fill:#ff6875;}.cls-3{fill:#ffb821;}</style></defs><path class="cls-3" d="M31.38,64.56c-11.44,0-22.16-6.92-27.59-17.1,1.49-.79,3.16-1.68,4.92-2.62,4.5,8.42,13.36,14.15,22.67,14.15,11.18,0,20.09-5.82,24.56-14.33l4.94,2.58c-5.4,10.29-16.17,17.31-29.5,17.31Z"/><path class="cls-1" d="M5.56,32.28c0,4.71,1.23,9.13,3.37,12.98l-4.87,2.71C1.48,43.32,0,37.97,0,32.28,0,14.45,14.45,0,31.38,0V5.56c-13.85,0-25.81,11.96-25.81,26.72Z"/><path class="cls-2" d="M58.99,32.28c0-14.75-11.96-26.72-27.62-26.72V0c18.73,0,33.18,14.45,33.18,32.28,0,5.59-1.42,10.85-3.92,15.43l-4.89-2.66c2.07-3.79,3.25-8.15,3.25-12.77Z"/></svg>