<?xml version="1.0" encoding="UTF-8"?><svg id="Layer_1" xmlns="http://www.w3.org/2000/svg" viewBox="0 0 61.04 59.9"><defs><style>.cls-1{fill:#2fcaff;}.cls-2{fill:rgba(197,203,203,.32);}.cls-3{fill:#ff6975;}.cls-3,.cls-4{fill-rule:evenodd;}.cls-4{fill:#fff;}</style></defs><g><path class="cls-4" d="M19.85,12.87c-.78,1.22-1.97,1.83-3.57,1.83s-2.7-.62-3.51-1.87c-.8-1.25-1.2-3.08-1.2-5.48s.39-4.33,1.16-5.54c.77-1.2,1.96-1.81,3.54-1.81s2.73,.63,3.53,1.88c.8,1.26,1.21,3.08,1.21,5.46s-.39,4.31-1.17,5.53Zm-1.22-10.03c-.48-.95-1.27-1.43-2.35-1.43s-1.85,.47-2.33,1.41c-.49,.94-.73,2.45-.73,4.53s.24,3.59,.73,4.54c.49,.95,1.27,1.42,2.33,1.42s1.86-.48,2.35-1.44c.49-.96,.73-2.47,.73-4.52s-.24-3.55-.73-4.51Zm-4.33,49.15c0,3.48-2.82,6.31-6.31,6.31s-6.31-2.82-6.31-6.31,2.82-6.31,6.31-6.31,6.31,2.82,6.31,6.31ZM4.54,4.33c0-.85,.03-1.65,.08-2.4-.14,.14-.29,.28-.46,.43-.17,.15-.94,.79-2.33,1.91l-.86-1.11L4.76,.22h1.37V14.5h-1.58V4.33Z"/><path class="cls-3" d="M8,43.9c-1.05,0-2.09,.21-3.06,.61-.97,.4-1.85,.99-2.59,1.73-.74,.74-1.33,1.62-1.73,2.59-.4,.97-.61,2.01-.61,3.06s.21,2.09,.61,3.06c.4,.97,.99,1.85,1.73,2.59,.74,.74,1.62,1.33,2.59,1.73,.97,.4,2.01,.61,3.06,.61,2.12,0,4.16-.84,5.66-2.34s2.34-3.53,2.34-5.66-.84-4.15-2.34-5.65-3.53-2.34-5.66-2.34h0Zm3.39,11.39c-.15,.15-.35,.23-.56,.23s-.41-.08-.56-.23l-2.27-2.27-2.27,2.27c-.15,.14-.35,.22-.56,.22-.21,0-.41-.09-.55-.23-.15-.15-.23-.35-.23-.55,0-.21,.07-.41,.22-.56l2.27-2.27-2.27-2.27c-.08-.07-.14-.16-.18-.26-.04-.1-.07-.2-.07-.31,0-.11,.02-.21,.06-.31,.04-.1,.1-.19,.17-.26,.08-.08,.16-.14,.26-.17,.1-.04,.2-.06,.31-.06,.11,0,.21,.03,.31,.07,.1,.04,.18,.1,.26,.18l2.27,2.27,2.27-2.27c.07-.08,.16-.14,.26-.18,.1-.04,.2-.07,.31-.07,.11,0,.21,.02,.31,.06,.1,.04,.19,.1,.26,.18,.07,.07,.14,.16,.18,.26,.04,.1,.06,.2,.06,.31,0,.11-.02,.21-.07,.31-.04,.1-.11,.19-.18,.26l-2.27,2.27,2.27,2.27c.31,.31,.31,.82,0,1.13h0Z"/></g><rect class="cls-1" y="25.46" width="42.03" height="6" rx="2.16" ry="2.16"/><rect class="cls-2" x="46.03" y="25.46" width="15.01" height="6" rx="2.14" ry="2.14"/></svg>