<?xml version="1.0" encoding="UTF-8"?><svg id="Layer_1" xmlns="http://www.w3.org/2000/svg" viewBox="0 0 61.64 54.7"><defs><style>.cls-1{fill:rgba(255,255,255,.16);}.cls-1,.cls-2,.cls-3,.cls-4,.cls-5{fill-rule:evenodd;}.cls-2{fill:rgba(32,221,170,.16);}.cls-3{fill:rgba(255,104,117,.32);}.cls-4{fill:#20ddaa;}.cls-5{fill:#ff6683;}</style></defs><path class="cls-2" d="M14.29,41.46C6.8,39.97,1.79,49.61,.08,53.73,0,43.18,8.14,1.94,16.69,1.82c7.78-.11,9.79,18.52,15.7,29-3.57,5.6-7.61,12.6-18.11,10.63Z"/><path class="cls-4" d="M28.79,33.35c-5.19-10.98-5.41-28.89-12.15-28.89-5.85,0-9.96,22.12-11.95,37.96-2.14,1.91-3.32,3.66-4.35,6.97C1.25,36.82,4.92,0,16.45,0c10.52,0,10.81,18.09,15.07,29.18-.89,1.38-1.78,2.8-2.72,4.17Z"/><path class="cls-3" d="M60.89,53.65s-8.09-29.14-19.54-29.14c-9.88,0-9.88,20.88-26.68,17.66C4.07,40.14,.78,53.72,.78,53.72l60.11-.07Z"/><path class="cls-5" d="M57.73,53.66c-1.97-6.3-8.88-26.54-16.07-26.51-6.62,.03-8.9,21.58-26.68,17.97-7.15-1.45-10.07,5.23-11.08,8.61H.08s3.37-14.43,14.21-12.27c17.2,3.42,17.2-18.77,27.31-18.77,11.72,0,20,30.97,20,30.97h-3.87Z"/><path class="cls-1" d="M0,53.7H61.64v1H0v-1Z"/></svg>