<?xml version="1.0" encoding="UTF-8"?><svg id="Layer_1" xmlns="http://www.w3.org/2000/svg" viewBox="0 0 61.88 41.17"><defs><style>.cls-1{fill:#20dda9;}.cls-1,.cls-2{fill-rule:evenodd;}.cls-2{fill:#ff6975;}</style></defs><path class="cls-1" d="M56.13,14.86l-23.67,23.65-12.75-13.01-14.61,14.85c-.57,.54-1.32,.84-2.11,.83-.59,0-1.17-.17-1.66-.49-.49-.33-.87-.79-1.1-1.34-.23-.54-.29-1.14-.17-1.72,.12-.58,.4-1.11,.82-1.53L19.68,17l12.93,12.92L51.83,10.75l-5.56-5.31,15.54-.08,.08,14.99-5.76-5.5Z"/><path class="cls-2" d="M55.77,40.34h-15.22s15.22-15.39,15.22-15.39v15.39ZM19.71,8.49L5.1,23.34c-.57,.55-1.32,.84-2.11,.83-.59,0-1.17-.17-1.66-.49-.49-.33-.87-.79-1.1-1.34C0,21.8-.06,21.2,.06,20.62c.12-.58,.4-1.11,.82-1.52L19.68,0l17.16,17.16c.22,0-4.38,4.35-4.38,4.35l-12.75-13.01Z"/></svg>