<?xml version="1.0" encoding="UTF-8"?>
<svg width="24px" height="24px" viewBox="0 0 24 24" version="1.1" xmlns="http://www.w3.org/2000/svg" xmlns:xlink="http://www.w3.org/1999/xlink">
    <g stroke="none" stroke-width="1" fill="none" fill-rule="evenodd">
      <path d="M12 3c-4.95 0-9 4.05-9 9s4.05 9 9 9 9-4.05 9-9-3.96-9-8.91-9H12zm.9 12.51c0 .54-.36.9-.9.9s-.9-.36-.9-.9v-3.87c0-.54.36-.9.9-.9s.9.36.9.9v3.87zM12 9.48c-.45 0-.9-.45-.9-.9 0-.54.36-.9.9-.9s.9.36.9.9-.36.9-.9.9z" fill="#273637" />
    </g>
</svg>
