<?xml version="1.0" encoding="UTF-8"?>
<svg width="24px" height="24px" viewBox="0 0 24 24" version="1.1" xmlns="http://www.w3.org/2000/svg" xmlns:xlink="http://www.w3.org/1999/xlink">
    <title>Icons/Full Set/Instance/EC2 Instance</title>
    <g id="Icons/Full-Set/Instance/EC2-Instance" stroke="none" stroke-width="1" fill="none" fill-rule="evenodd">
        <path d="M16,2 C16.55,2 17,2.45 17,3 L17,3 L17,4.75 L17.75,4.75 C18.57,4.75 19.25,5.42 19.25,6.25 L19.25,6.25 L19.25,7 L21,7 C21.55,7 22,7.45 22,8 C22,8.55 21.55,9 21,9 L21,9 L19.25,9 L19.25,11 L21,11 C21.55,11 22,11.45 22,12 C22,12.55 21.55,13 21,13 L21,13 L19.25,13 L19.25,15 L21,15 C21.55,15 22,15.45 22,16 C22,16.55 21.55,17 21,17 L21,17 L19.25,17 L19.25,17.75 C19.25,18.58 18.57,19.25 17.75,19.25 L17.75,19.25 L17,19.25 L17,21 C17,21.55 16.55,22 16,22 C15.45,22 15,21.55 15,21 L15,21 L15,19.25 L13,19.25 L13,21 C13,21.55 12.55,22 12,22 C11.45,22 11,21.55 11,21 L11,21 L11,19.25 L9,19.25 L9,21 C9,21.55 8.55,22 8,22 C7.45,22 7,21.55 7,21 L7,21 L7,19.25 L6.25,19.25 C5.42,19.25 4.75,18.58 4.75,17.75 L4.75,17.75 L4.75,17 L3,17 C2.45,17 2,16.55 2,16 C2,15.45 2.45,15 3,15 L3,15 L4.75,15 L4.75,13 L3,13 C2.45,13 2,12.55 2,12 C2,11.45 2.45,11 3,11 L3,11 L4.75,11 L4.75,9 L3,9 C2.45,9 2,8.55 2,8 C2,7.45 2.45,7 3,7 L3,7 L4.75,7 L4.75,6.25 C4.75,5.42 5.42,4.75 6.25,4.75 L6.25,4.75 L7,4.75 L7,3 C7,2.45 7.45,2 8,2 C8.55,2 9,2.45 9,3 L9,3 L9,4.75 L11,4.75 L11,3 C11,2.45 11.45,2 12,2 C12.55,2 13,2.45 13,3 L13,3 L13,4.75 L15,4.75 L15,3 C15,2.45 15.45,2 16,2 Z M17.25,6.75 L6.75,6.75 L6.75,17.25 L17.25,17.25 L17.25,6.75 Z M13.6702,9.1 L13.6702,10.108 L11.5592,10.108 L11.5592,11.381 L13.5232,11.381 L13.5232,12.389 L11.5592,12.389 L11.5592,13.884 L13.6702,13.884 L13.6702,14.9 L10.3302,14.9 L10.3302,9.1 L13.6702,9.1 Z" id="Combined-Shape" fill="#273637"></path>
    </g>
</svg>