<?xml version="1.0" encoding="UTF-8"?>
<svg width="24px" height="24px" viewBox="0 0 24 24" version="1.1" xmlns="http://www.w3.org/2000/svg" xmlns:xlink="http://www.w3.org/1999/xlink">
    <title>Icons/Full Set/Instance/MSSQL Instance</title>
    <g id="Icons/Full-Set/Instance/MSSQL-Instance" stroke="none" stroke-width="1" fill="none" fill-rule="evenodd">
        <path d="M12.0001,3 C17.1001,3 20.1901,4.01 20.3201,4.05 C20.7201,4.19 21.0001,4.57 21.0001,5 L21.0001,5 L21.0001,19 C21.0001,19.43 20.7201,19.81 20.3201,19.95 C20.1901,19.99 17.1001,21 12.0001,21 C6.9001,21 3.8101,19.99 3.6801,19.95 C3.2801,19.81 3.0001,19.43 3.0001,19 L3.0001,19 L3.0001,17.212 L5.0001,17.212 L5.0001,18.23 C5.1971,18.284 5.4261,18.337 5.6701,18.391 C5.7491,18.407 5.8311,18.424 5.9161,18.441 C6.0651,18.471 6.2121,18.5 6.3401,18.521 L6.3401,18.521 L6.4241,18.535 C6.7081,18.586 7.0261,18.636 7.3611,18.683 C7.4241,18.692 7.4821,18.702 7.5471,18.711 C7.9051,18.759 8.2931,18.804 8.7031,18.843 C8.8091,18.854 8.9241,18.862 9.0331,18.871 C9.3601,18.899 9.7031,18.923 10.0591,18.943 C10.1991,18.95 10.3391,18.958 10.4841,18.964 C10.9681,18.985 11.4681,19 12.0001,19 C12.4261,19 12.8381,18.993 13.2331,18.979 C14.0251,18.951 14.7541,18.899 15.4151,18.833 C17.0681,18.668 18.2941,18.415 19.0001,18.24 L19.0001,18.24 L19.0001,15.67 L12.2291,15.67 L12.2291,13.67 L19.0001,13.67 L19.0001,10.33 L12.2291,10.33 L12.2291,8.33 L19.0001,8.33 L19.0001,5.76 C18.5761,5.655 17.9651,5.522 17.1881,5.396 C16.1511,5.229 14.8171,5.076 13.2331,5.021 C12.8381,5.008 12.4261,5 12.0001,5 C11.4681,5 10.9681,5.015 10.4841,5.036 C10.3391,5.042 10.1991,5.05 10.0591,5.057 C9.7031,5.077 9.3601,5.101 9.0331,5.129 C8.9241,5.139 8.8091,5.146 8.7031,5.157 C8.2931,5.196 7.9041,5.241 7.5461,5.29 L7.45435,5.302625 L7.45435,5.302625 L7.3641,5.316 C7.0281,5.364 6.7091,5.414 6.4241,5.465 L6.4241,5.465 L6.3401,5.479 C6.2121,5.5 6.0651,5.529 5.9161,5.559 C5.8311,5.576 5.7491,5.593 5.6701,5.609 C5.4261,5.663 5.1971,5.716 5.0001,5.77 L5.0001,5.77 L5.0001,6.788 L3.0001,6.788 L3.0001,5 C3.0001,4.57 3.2801,4.19 3.6801,4.05 C3.8101,4.01 6.9001,3 12.0001,3 Z M5.4377,8.33 L6.8507,13.538 L6.8837,13.538 L8.2647,8.33 L10.7097,8.33 L10.7097,15.67 L9.0287,15.67 L9.0289963,12.2803333 C9.02958889,12.1607778 9.03136667,12.0336667 9.0367,11.899 C9.0367,11.687 9.0607,11.194 9.0937,10.392 L9.0937,10.392 L9.0527,10.392 L7.6877,15.67 L5.9487,15.67 L4.6247,10.603 L4.5677,10.383 L4.5197,10.383 C4.5847,11.282 4.6167,11.987 4.6167,12.48 L4.6167,12.48 L4.6167,15.67 L2.9997,15.67 L2.9997,8.33 L5.4377,8.33 Z" id="Combined-Shape" fill="#273637"></path>
    </g>
</svg>