<?xml version="1.0" encoding="UTF-8"?>
<svg width="24px" height="24px" viewBox="0 0 24 24" version="1.1" xmlns="http://www.w3.org/2000/svg" xmlns:xlink="http://www.w3.org/1999/xlink">
    <title>Icons/Full Set/Shield/CDP</title>
    <g id="Icons/Full-Set/Shield/CDP" stroke="none" stroke-width="1" fill="none" fill-rule="evenodd">
        <path d="M11.6894805,2.005 C11.9898701,1.905 12.2902597,1.905 12.5906494,2.005 L12.5906494,2.005 L18.7987013,4.505 C19.3994805,4.805 19.8,5.305 19.8,5.905 L19.8,5.905 L19.8,14.105 C19.8,15.605 19.1992208,17.005 18.2980519,18.105 C17.5971429,19.005 15.5945455,21.005 12.3903896,22.005 L12.3903896,22.005 L12.09,22.105 L11.7896104,22.005 C8.58545455,21.005 6.58285714,19.005 5.88194805,18.105 C4.88064935,17.005 4.38,15.605 4.38,14.105 L4.38,14.105 L4.38,5.905 C4.38,5.305 4.78051948,4.805 5.3812987,4.505 L5.3812987,4.505 Z M12.09,4.005 L6.3825974,6.305 L6.3825974,14.205 C6.3825974,15.105 6.78311688,16.105 7.3838961,16.805 C7.98467532,17.505 9.58675325,19.105 12.09,20.005 C14.5932468,19.105 16.1953247,17.505 16.7961039,16.805 C17.497013,16.105 17.7974026,15.205 17.7974026,14.205 L17.7974026,14.205 L17.7974026,6.305 L12.09,4.005 Z M9.88714286,9.605 L10.1875325,12.605 L9.58675325,12.305 C9.68688312,13.705 10.8884416,14.805 12.2902597,14.805 C12.5906494,14.805 12.891039,14.705 13.1914286,14.605 C13.5919481,14.405 13.9924675,14.605 14.1927273,14.905 C14.392987,15.305 14.1927273,15.805 13.7922078,15.905 C13.2915584,16.105 12.7909091,16.205 12.2902597,16.205 C9.98727273,16.205 8.08480519,14.305 8.08480519,12.005 L8.08480519,12.005 L8.08480519,11.505 L7.3838961,11.305 L9.88714286,9.605 Z M12.1901299,7.705 C14.4931169,7.705 16.3955844,9.605 16.3955844,11.905 L16.3955844,11.905 L16.3955844,12.405 L17.0964935,12.705 L14.6933766,14.405 L14.392987,11.405 L14.9937662,11.705 C14.8936364,10.305 13.6920779,9.205 12.2902597,9.205 C11.8897403,9.205 11.5893506,9.305 11.288961,9.405 C10.8884416,9.605 10.3877922,9.405 10.2876623,9.005 C10.1875325,8.605 10.3877922,8.205 10.6881818,8.005 C11.1888312,7.805 11.6894805,7.705 12.1901299,7.705 Z" id="Combined-Shape" fill="#273637"></path>
    </g>
</svg>
