<?xml version="1.0" encoding="UTF-8"?>
<svg width="24px" height="24px" viewBox="0 0 24 24" version="1.1" xmlns="http://www.w3.org/2000/svg" xmlns:xlink="http://www.w3.org/1999/xlink">
    <title>Icons/Large Set/Compliance Thin Version</title>
    <g id="Icons/Large-Set/Compliance-Thin-Version" stroke="none" stroke-width="1" fill="none" fill-rule="evenodd">
        <path d="M12.494,2.10225749 L19.08,4.74222333 C19.6435,4.98472019 20,5.52671317 20,6.12870538 L20,15.0000906 C20,17.0720638 17.9395,18.8545407 16.2115,19.9855261 C14.4545,21.1350112 12.445,22 12,22 C11.5545,22 9.5455,21.1350112 7.7885,19.9855261 C6.0605,18.8545407 4,17.0720638 4,15.0000906 L4,6.12870538 C4,5.52671317 4.3565,4.98472019 4.908,4.74672327 L11.5185,2.09725755 C11.82,1.96675924 12.18,1.96675924 12.494,2.10225749 Z M11.997,3.00074586 C11.964,3.00074586 11.9325,3.00774577 11.9035,3.02024561 L5.292,5.67021132 C5.119,5.74471035 5,5.926708 5,6.12870538 L5,15.0000906 C5,17.9870519 11.1705,20.7925156 12,20.994013 C12.8295,20.7925156 19,17.9870519 19,15.0000906 L19,6.12870538 C19,5.926708 18.881,5.74471035 18.696,5.66571138 L12.1095,3.02524554 C12.0705,3.00874576 12.0325,3.00074586 11.997,3.00074586 Z M15.82655,9.08801709 C16.03555,9.26851475 16.05905,9.58401067 15.87905,9.79350796 L11.69505,14.6474451 C11.48405,14.8589424 11.21655,14.964441 10.95305,14.964441 C10.73455,14.964441 10.51855,14.891942 10.33855,14.7479438 L10.27855,14.6919446 L8.12855,12.3014755 C7.94305,12.0959782 7.96055,11.7799823 8.16555,11.5954846 C8.37105,11.410487 8.68655,11.4264868 8.87155,11.6324842 L10.96655,13.961454 L15.12105,9.14051641 C15.30155,8.93151911 15.61705,8.9090194 15.82655,9.08801709 Z" id="Combined-Shape" fill="#273637"></path>
    </g>
</svg>