<svg width="24" height="24" fill="none" xmlns="http://www.w3.org/2000/svg">
  <path d="M8.1 12c0 2.1 1.7 3.9 3.9 3.9 2.1 0 3.9-1.7 3.9-3.9 0-2.1-1.7-3.9-3.9-3.9-2.1 0-3.9 1.7-3.9 3.9zm1.5 0c0-.4.1-.7.3-1.1l3.2 3.2c-.3.2-.7.3-1.1.3-1.3 0-2.4-1.1-2.4-2.4zm4.8 0c0 .4-.1.8-.3 1.1l-3.2-3.2c.3-.2.7-.3 1.1-.3 1.3 0 2.4 1.1 2.4 2.4z" fill="#273637"/>
  <path d="M19 4.7l-6.5-2.6c-.3-.1-.6-.1-.9 0L5 4.7c-.4.1-.6.5-.6.9V13c0 1.8.6 3.5 1.8 4.9 1 1.2 2.6 3.1 5.6 4h.6c2.8-.9 4.7-2.6 5.8-3.9.9-1.1 1.4-2.5 1.4-3.9V5.6c0-.4-.2-.8-.6-.9zm-1.4 9.5c0 1-.3 1.9-.9 2.6-.9 1-2.4 2.4-4.6 3.2-2-.7-3.2-1.9-4.3-3.3-.9-1-1.3-2.3-1.3-3.6V6.3L12 4.1l5.6 2.2v7.9z" fill="#273637"/>
</svg>
