<?xml version="1.0" encoding="UTF-8"?>
<svg width="24px" height="24px" viewBox="0 0 24 24" version="1.1" xmlns="http://www.w3.org/2000/svg" xmlns:xlink="http://www.w3.org/1999/xlink">
    <title>Icons/Full Set/Shield/Info</title>
    <g id="Icons/Full-Set/Shield/Info" stroke="none" stroke-width="1" fill="none" fill-rule="evenodd">
        <path d="M11.3,2.075 C11.6,1.975 11.9,1.975 12.2,2.075 L12.2,2.075 L18.5,4.575 C19,4.775 19.4,5.275 19.5,5.875 L19.5,5.875 L19.5,14.075 C19.5,15.575 19,16.975 18,18.075 C16.4,19.875 14.4,21.275 12.1,21.975 L12.1,21.975 L11.8,22.075 L11.5,21.975 C9.2,21.275 7.1,19.975 5.5,18.175 C4.5,17.075 4,15.675 4,14.175 L4,14.175 L4,5.975 C4,5.375 4.4,4.775 5,4.575 L5,4.575 Z M11.7,3.975 L6,6.275 L6,14.175 C6,15.075 6.4,16.075 7,16.775 C8.3,18.275 9.9,19.375 11.7,19.975 C13.5,19.275 15.1,18.175 16.4,16.775 C17,16.075 17.4,15.175 17.4,14.175 L17.4,14.175 L17.4,6.275 L11.7,3.975 Z M11.7,14.975 C12.2522847,14.975 12.7,15.4227153 12.7,15.975 C12.7,16.5272847 12.2522847,16.975 11.7,16.975 C11.1477153,16.975 10.7,16.5272847 10.7,15.975 C10.7,15.4227153 11.1477153,14.975 11.7,14.975 Z M11.7,6.975 C12.3,6.975 12.7,7.375 12.7,7.975 L12.7,7.975 L12.7,12.175 C12.7,12.775 12.3,13.175 11.7,13.175 C11.1,13.175 10.7,12.775 10.7,12.175 L10.7,12.175 L10.7,7.975 C10.7,7.375 11.1,6.975 11.7,6.975 Z" id="Combined-Shape" fill="#273637"></path>
    </g>
</svg>
