<?xml version="1.0" encoding="UTF-8"?>
<svg width="24px" height="24px" viewBox="0 0 24 24" version="1.1" xmlns="http://www.w3.org/2000/svg" xmlns:xlink="http://www.w3.org/1999/xlink">
    <title>Icons/Large Set/Protection Thin Version</title>
    <g id="Icons/Large-Set/Protection-Thin-Version" stroke="none" stroke-width="1" fill="none" fill-rule="evenodd">
        <path d="M12,2 C12.17,2 12.335,2.0300075 12.495,2.10002501 L12.495,2.10002501 L19.08,4.74068517 C19.645,4.98074519 20,5.52588147 20,6.12603151 L20,6.12603151 L20,14.9982496 C20,17.0732683 17.94,18.8542136 16.21,19.9844961 C14.455,21.1347837 12.445,22 12,22 L12,22 Z M11,2.30497624 L11,3.37524381 L5.29,5.66581645 C5.12,5.74083521 5,5.9263816 5,6.12593148 L5,14.9981495 C5,17.4092523 9.015,19.7043261 11,20.6045511 L11,21.6898225 C10.145,21.3397349 8.915,20.7195799 7.79,19.9843961 C6.06,18.8541135 4,17.0736684 4,14.9981495 L4,6.12593148 C4,5.52578145 4.355,4.98064516 4.91,4.7455864 L11,2.30497624 Z M13,3.37784446 L13,20.6021505 C14.989,19.7004251 19,17.4098525 19,14.9982496 L19,14.9982496 L19,6.12603151 C19,5.9259815 18.88,5.74093523 18.695,5.66591648 L18.695,5.66591648 L13,3.37784446 Z" id="Combined-Shape" fill="#273637"></path>
    </g>
</svg>