<?xml version="1.0" encoding="UTF-8"?>
<svg width="24px" height="24px" viewBox="0 0 24 24" version="1.1" xmlns="http://www.w3.org/2000/svg" xmlns:xlink="http://www.w3.org/1999/xlink">
    <title>Icons/Large Set/Protection Detail Thin Version</title>
    <g id="Icons/Large-Set/Protection-Detail-Thin-Version" stroke="none" stroke-width="1" fill="none" fill-rule="evenodd">
        <path d="M12.494,2.10226269 L19.08,4.74226269 C19.6435,4.98476269 20,5.52676269 20,6.12876269 L20,15.0002627 C20,17.0722627 17.9395,18.8547627 16.2115,19.9857627 C14.4545,21.1352627 12.445,22.0002627 12,22.0002627 C11.5545,22.0002627 9.5455,21.1352627 7.7885,19.9857627 C6.0605,18.8547627 4,17.0722627 4,15.0002627 L4,6.12876269 C4,5.52676269 4.3565,4.98476269 4.908,4.74676269 L11.5185,2.09726269 C11.8205,1.96626269 12.18,1.96726269 12.494,2.10226269 Z M11.997,3.00076269 C11.964,3.00076269 11.9325,3.00776269 11.9035,3.02026269 L5.292,5.67026269 C5.119,5.74476269 5,5.92676269 5,6.12876269 L5,15.0002627 C5,17.9872627 11.1705,20.7927627 12,20.9942627 C12.8295,20.7927627 19,17.9872627 19,15.0002627 L19,6.12876269 C19,5.92676269 18.881,5.74476269 18.696,5.66576269 L12.1095,3.02526269 C12.0705,3.00876269 12.0325,3.00076269 11.997,3.00076269 Z M15.99995,14.5002627 C16.27645,14.5002627 16.49995,14.7237627 16.49995,15.0002627 C16.49995,15.2767627 16.27645,15.5002627 15.99995,15.5002627 L10.99995,15.5002627 C10.72345,15.5002627 10.49995,15.2767627 10.49995,15.0002627 C10.49995,14.7237627 10.72345,14.5002627 10.99995,14.5002627 L15.99995,14.5002627 Z M7.99995,14.5002627 C8.27645,14.5002627 8.49995,14.7237627 8.49995,15.0002627 C8.49995,15.2767627 8.27645,15.5002627 7.99995,15.5002627 C7.72345,15.5002627 7.49995,15.2767627 7.49995,15.0002627 C7.49995,14.7237627 7.72345,14.5002627 7.99995,14.5002627 Z M15.99995,11.0002627 C16.27645,11.0002627 16.49995,11.2237627 16.49995,11.5002627 C16.49995,11.7767627 16.27645,12.0002627 15.99995,12.0002627 L10.99995,12.0002627 C10.72345,12.0002627 10.49995,11.7767627 10.49995,11.5002627 C10.49995,11.2237627 10.72345,11.0002627 10.99995,11.0002627 L15.99995,11.0002627 Z M7.99995,11.0002627 C8.27645,11.0002627 8.49995,11.2237627 8.49995,11.5002627 C8.49995,11.7767627 8.27645,12.0002627 7.99995,12.0002627 C7.72345,12.0002627 7.49995,11.7767627 7.49995,11.5002627 C7.49995,11.2237627 7.72345,11.0002627 7.99995,11.0002627 Z M15.99995,7.50026269 C16.27645,7.50026269 16.49995,7.72376269 16.49995,8.00026269 C16.49995,8.27676269 16.27645,8.50026269 15.99995,8.50026269 L10.99995,8.50026269 C10.72345,8.50026269 10.49995,8.27676269 10.49995,8.00026269 C10.49995,7.72376269 10.72345,7.50026269 10.99995,7.50026269 L15.99995,7.50026269 Z M7.99995,7.50026269 C8.27645,7.50026269 8.49995,7.72376269 8.49995,8.00026269 C8.49995,8.27676269 8.27645,8.50026269 7.99995,8.50026269 C7.72345,8.50026269 7.49995,8.27676269 7.49995,8.00026269 C7.49995,7.72376269 7.72345,7.50026269 7.99995,7.50026269 Z" id="Combined-Shape" fill="#273637"></path>
    </g>
</svg>