<?xml version="1.0" encoding="UTF-8"?>
<svg width="24px" height="24px" viewBox="0 0 24 24" version="1.1" xmlns="http://www.w3.org/2000/svg" xmlns:xlink="http://www.w3.org/1999/xlink">
    <title>Icons/Full Set/Shield/Retention Lock</title>
    <g id="Icons/Full-Set/Shield/Retention-Lock" stroke="none" stroke-width="1" fill="none" fill-rule="evenodd">
        <path d="M11.75,2.05833333 C12,2.00277778 12.25,2.01666667 12.5,2.1 L12.5,2.1 L19,4.7 C19.4,4.8 19.6,5.2 19.6,5.6 L19.6,5.6 L19.6,14.1 C19.6,15.5 19.1,16.9 18.2,18 C17.1,19.3 15.2,21 12.4,21.9 L12.4,21.9 L11.8,21.9 C8.8,21 7.2,19.1 6.2,17.9 C5,16.5 4.4,14.8 4.4,13 L4.4,13 L4.4,5.6 C4.4,5.2 4.6,4.8 5,4.7 L5,4.7 L11.6,2.1 L11.6,2.1 Z M12,4.1 L6.5,6.3 L6.5,13.1 C6.5,14.4 6.9,15.7 7.8,16.7 C8.9,18.1 10.1,19.3 12.1,20 C14.3,19.2 15.8,17.8 16.7,16.8 C17.3,16.1 17.6,15.2 17.6,14.2 L17.6,14.2 L17.6,6.3 L12,4.1 Z M12,7.2 C13.7,7.2 15.1,8.6 15.2,10.3 L15.2,10.3 L16.4,10.3 L16.4,13.3 C16.4,15.3 14.4,16.9 12,16.9 C9.6,16.9 7.6,15.3 7.6,13.3 L7.6,13.3 L7.6,10.3 L8.8,10.3 C8.9,8.5 10.3,7.2 12,7.2 Z M14.9,11.7 L9.1,11.7 L9.1,13.2 C9.1,14.3 10.4,15.3 12,15.3 C13.6,15.3 14.9,14.3 14.9,13.2 L14.9,13.2 L14.9,11.7 Z M12,12.8 C12.4,12.8 12.7,13.1 12.7,13.5 C12.7,13.9 12.4,14.2 12,14.2 C11.6,14.2 11.3,13.9 11.3,13.5 C11.3,13.1 11.6,12.8 12,12.8 Z M12,8.7 C11.1,8.7 10.4,9.4 10.3,10.3 L10.3,10.3 L13.7,10.3 C13.6,9.4 12.9,8.7 12,8.7 Z" id="Combined-Shape" fill="#273637"></path>
    </g>
</svg>
