<?xml version="1.0" encoding="UTF-8"?>
<svg width="24px" height="24px" viewBox="0 0 24 24" version="1.1" xmlns="http://www.w3.org/2000/svg" xmlns:xlink="http://www.w3.org/1999/xlink">
    <title>Icons/Full Set/Shield/SLA Domain Audit Report</title>
    <g id="Icons/Full-Set/Shield/SLA-Domain-Audit-Report" stroke="none" stroke-width="1" fill="none" fill-rule="evenodd">
        <path d="M11.2999,2.0748 C11.5999,1.9748 11.8999,1.9748 12.1999,2.0748 L12.1999,2.0748 L18.3999,4.5748 C18.9999,4.8758 19.3999,5.3758 19.4999,5.9748 L19.4999,5.9748 L19.4999,14.0748 C19.4999,15.5748 18.9999,16.9748 17.9999,18.0748 C16.3999,19.8758 14.3999,21.2748 12.0999,21.9748 L12.0999,21.9748 L11.7999,22.0748 L11.4999,21.9748 C9.1999,21.2748 7.0999,19.9748 5.4999,18.1748 C4.4999,17.0748 3.9999,15.6748 3.9999,14.1748 L3.9999,14.1748 L3.9999,5.9748 C3.9999,5.3758 4.3999,4.7748 4.9999,4.5748 L4.9999,4.5748 Z M11.6999,4.0748 L5.9999,6.3758 L5.9999,14.2748 C5.9999,15.1748 6.3999,16.1748 6.9999,16.8758 C8.2999,18.3758 9.8999,19.4748 11.6999,20.0748 C13.4999,19.4748 15.0999,18.3758 16.3999,16.8758 C16.9999,16.1748 17.3999,15.2748 17.3999,14.2748 L17.3999,14.2748 L17.3999,6.3758 L11.6999,4.0748 Z M11.5,7.6996 C13.433,7.6996 15,9.2666 15,11.1996 C15,11.9036 14.788,12.5546 14.431,13.1036 C14.464,13.1276 14.501,13.1396 14.53,13.1696 L14.53,13.1696 L15.53,14.1696 C15.823,14.4626 15.823,14.9366 15.53,15.2296 C15.384,15.3766 15.192,15.4496 15,15.4496 C14.808,15.4496 14.616,15.3766 14.47,15.2296 L14.47,15.2296 L13.47,14.2296 C13.44,14.2006 13.427,14.1636 13.404,14.1316 C12.855,14.4876 12.203,14.6996 11.5,14.6996 C9.567,14.6996 8,13.1336 8,11.1996 C8,9.2666 9.567,7.6996 11.5,7.6996 Z M11.5,9.1996 C10.397,9.1996 9.5,10.0966 9.5,11.1996 C9.5,12.3036 10.397,13.1996 11.5,13.1996 C12.603,13.1996 13.5,12.3036 13.5,11.1996 C13.5,10.0966 12.603,9.1996 11.5,9.1996 Z" id="Combined-Shape" fill="#273637"></path>
    </g>
</svg>