<?xml version="1.0" encoding="UTF-8"?>
<svg width="24px" height="24px" viewBox="0 0 24 24" version="1.1" xmlns="http://www.w3.org/2000/svg" xmlns:xlink="http://www.w3.org/1999/xlink">
    <title>Icons/Large Set/SLA Domain Audit Report Thin Version</title>
    <g id="Icons/Large-Set/SLA-Domain-Audit-Report-Thin-Version" stroke="none" stroke-width="1" fill="none" fill-rule="evenodd">
        <path d="M12.494,2.10226269 L19.08,4.74226269 C19.6435,4.98476269 20,5.52676269 20,6.12876269 L20,15.0002627 C20,17.0722627 17.9395,18.8547627 16.2115,19.9857627 C14.4545,21.1352627 12.445,22.0002627 12,22.0002627 C11.5545,22.0002627 9.5455,21.1352627 7.7885,19.9857627 C6.0605,18.8547627 4,17.0722627 4,15.0002627 L4,6.12876269 C4,5.52676269 4.3565,4.98476269 4.908,4.74676269 L11.5185,2.09726269 C11.82,1.96626269 12.1795,1.96726269 12.494,2.10226269 Z M11.997,3.00076269 C11.964,3.00076269 11.9325,3.00776269 11.9035,3.02026269 L5.292,5.67026269 C5.119,5.74476269 5,5.92676269 5,6.12876269 L5,15.0002627 C5,17.9872627 11.1705,20.7927627 12,20.9942627 C12.8295,20.7927627 19,17.9872627 19,15.0002627 L19,6.12876269 C19,5.92676269 18.881,5.74476269 18.696,5.66576269 L12.1095,3.02526269 C12.0705,3.00876269 12.0325,3.00076269 11.997,3.00076269 Z M11.7724,7.25026269 C13.8439,7.25026269 15.5224,8.92876269 15.5224,11.0002627 C15.5224,11.8552627 15.2329,12.6407627 14.7509,13.2717627 L14.7509,13.2717627 L16.1259,14.6467627 C16.3214,14.8422627 16.3214,15.1582627 16.1259,15.3537627 C16.0284,15.4512627 15.9004,15.5002627 15.7724,15.5002627 C15.6444,15.5002627 15.5164,15.4512627 15.4189,15.3537627 L15.4189,15.3537627 L14.0439,13.9787627 C13.4129,14.4607627 12.6274,14.7502627 11.7724,14.7502627 C9.7009,14.7502627 8.0224,13.0717627 8.0224,11.0002627 C8.0224,8.92876269 9.7009,7.25026269 11.7724,7.25026269 Z M11.7724,8.25026269 C10.2559,8.25026269 9.0224,9.48376269 9.0224,11.0002627 C9.0224,12.5162627 10.2559,13.7502627 11.7724,13.7502627 C13.2884,13.7502627 14.5224,12.5162627 14.5224,11.0002627 C14.5224,9.48376269 13.2884,8.25026269 11.7724,8.25026269 Z" id="Combined-Shape" fill="#273637"></path>
    </g>
</svg>