<?xml version="1.0" encoding="UTF-8"?>
<svg width="24px" height="24px" viewBox="0 0 24 24" version="1.1" xmlns="http://www.w3.org/2000/svg" xmlns:xlink="http://www.w3.org/1999/xlink">
    <title>Icons/Full Set/Status/Not Available</title>
    <g id="Icons/Full-Set/Status/Not-Available" stroke="none" stroke-width="1" fill="none" fill-rule="evenodd">
        <path d="M16.419,17.422 L9.293,5.545 C10.126,5.194 11.041,5 12,5 C15.859,5 19,8.14 19,12 C19,14.184 17.992,16.137 16.419,17.422 M5,12 C5,9.815 6.007,7.862 7.58,6.577 L14.706,18.454 C13.873,18.805 12.959,19 12,19 C8.14,19 5,15.859 5,12 M12,3 C7.029,3 3,7.029 3,12 C3,16.97 7.029,21 12,21 C16.97,21 21,16.97 21,12 C21,7.029 16.97,3 12,3" id="Fill-1" fill="#273637"></path>
    </g>
</svg>