<?xml version="1.0" encoding="UTF-8"?>
<svg width="24px" height="24px" viewBox="0 0 24 24" version="1.1" xmlns="http://www.w3.org/2000/svg" xmlns:xlink="http://www.w3.org/1999/xlink">
    <title>Icons/Full Set/Status/Downloading</title>
    <g id="Icons/Full-Set/Status/Downloading" stroke="none" stroke-width="1" fill="none" fill-rule="evenodd">
        <path d="M12,3 C17,3 21,7 21,12 C21,17 17,21 12,21 C7,21 3,17 3,12 C3,7 7,3 12,3 Z M12,5 C8.1,5 5,8.1 5,12 C5,15.9 8.1,19 12,19 C15.9,19 19,15.9 19,12 C19,8.1 15.9,5 12,5 Z M12,8.50280783 C12.4518693,8.50280783 12.8181818,8.86912031 12.8181818,9.32098965 L12.8181818,9.32098965 L12.8181818,12.4545455 L14.4292569,12.4545455 C14.5618651,12.4545455 14.6890421,12.5072239 14.7828102,12.6009921 C14.9780724,12.7962542 14.9780724,13.1128367 14.7828102,13.3080988 L14.7828102,13.3080988 L12.3535534,15.7373557 C12.1582912,15.9326178 11.8417088,15.9326178 11.6464466,15.7373557 L11.6464466,15.7373557 L9.21718975,13.3080988 C9.12342157,13.2143307 9.07074314,13.0871537 9.07074314,12.9545455 C9.07074314,12.6784031 9.29460077,12.4545455 9.57074314,12.4545455 L9.57074314,12.4545455 L11.1818182,12.4545455 L11.1818182,9.32098965 C11.1818182,8.86912031 11.5481307,8.50280783 12,8.50280783 Z" id="Combined-Shape" fill="#273637"></path>
    </g>
</svg>
