<svg width="24" height="24" viewBox="0 0 24 24" fill="none" xmlns="http://www.w3.org/2000/svg">
<path fill-rule="evenodd" clip-rule="evenodd" d="M8.82273 12C8.82273 10.2727 10.2773 8.81818 12.0046 8.81818C13.7318 8.81818 15.1864 10.1818 15.1864 12C15.1864 13.7273 13.7318 15.1818 12.0046 15.1818C10.2773 15.1818 8.82273 13.7273 8.82273 12ZM10.6409 12C10.6409 12.7273 11.2773 13.3636 12.0046 13.3636C12.7318 13.3636 13.3682 12.7273 13.3682 12C13.3682 11.2727 12.7318 10.6364 12.0046 10.6364C11.2773 10.6364 10.6409 11.2727 10.6409 12Z" fill="#273637"/>
<path fill-rule="evenodd" clip-rule="evenodd" d="M19.7318 12C19.7318 12.2727 19.7318 12.6364 19.6409 13L21.3682 14.2727C21.7318 14.5455 21.9136 15.0909 21.6409 15.4545L19.8227 18.6364C19.55 19 19.0955 19.1818 18.6409 19L16.7318 18.1818C16.1864 18.5455 15.55 18.9091 14.9136 19.1818L14.7318 21.1818C14.6409 21.6364 14.2773 22 13.8227 22H10.1864C9.73183 22 9.36819 21.6364 9.27728 21.1818L9.18637 19C8.55001 18.8182 7.91365 18.4545 7.36819 18L5.4591 18.8182C5.00456 19 4.55001 18.8182 4.27728 18.4545L2.4591 15.2727C2.27728 14.9091 2.36819 14.3636 2.73183 14.0909L4.36819 12.9091C4.27728 12.6364 4.27728 12.2727 4.27728 11.9091C4.27728 11.6364 4.27728 11.2727 4.36819 10.9091L2.73183 9.72727C2.36819 9.45455 2.18638 8.90909 2.4591 8.54545L4.27728 5.36364C4.55001 5 5.00456 4.81818 5.4591 5L7.27728 5.90909C7.82274 5.45455 8.4591 5.09091 9.09547 4.81818L9.27728 2.81818C9.36819 2.36364 9.73183 2 10.1864 2H13.8227C14.2773 2 14.6409 2.36364 14.7318 2.81818L14.9136 4.81818C15.55 5.09091 16.1864 5.45455 16.7318 5.90909L18.55 5.09091C19.0046 4.90909 19.4591 5.09091 19.7318 5.45455L21.55 8.63636C21.7318 9 21.6409 9.54545 21.2773 9.81818L19.6409 11C19.7318 11.2727 19.7318 11.6364 19.7318 12ZM17.7713 10.921C17.7584 10.858 17.7451 10.7936 17.7318 10.7273C17.7318 10.3636 17.8227 10 18.1864 9.81818L19.6409 8.81818L18.6409 7.09091L17.0046 7.81818C16.6409 7.90909 16.2773 7.90909 16.0046 7.63636C15.3682 7 14.6409 6.63636 13.8227 6.36364C13.4591 6.18182 13.1864 5.90909 13.1864 5.54545L13.0046 3.72727H11.0046L10.8227 5.54545C10.8227 5.90909 10.55 6.27273 10.1864 6.36364C9.36819 6.63636 8.64092 7 8.09547 7.54545C7.82274 7.81818 7.4591 7.90909 7.09547 7.72727L5.4591 7L4.4591 8.72727L5.82274 9.72727C6.09547 9.90909 6.27728 10.2727 6.18637 10.6364C6.17311 10.7027 6.15985 10.7671 6.14687 10.8301C6.07087 11.199 6.00456 11.5209 6.00456 11.9091C6.00456 12.3636 6.00456 12.7273 6.09547 13.1818C6.18637 13.5455 6.00456 13.9091 5.73183 14.0909L4.27728 15.1818L5.27728 16.9091L6.91365 16.1818C7.27728 16.0909 7.64092 16.0909 7.91365 16.3636C8.55001 17 9.27728 17.3636 10.0955 17.6364C10.4591 17.8182 10.7318 18.0909 10.7318 18.4545L10.9136 20.2727H12.9136L13.0955 18.4545C13.0955 18.0909 13.3682 17.7273 13.7318 17.6364C14.55 17.3636 15.2773 16.9091 15.9136 16.3636C16.1864 16.0909 16.55 16 16.9136 16.1818L18.55 16.9091L19.55 15.1818L18.0955 14.1818C17.8227 14 17.6409 13.6364 17.7318 13.2727C17.7451 13.2064 17.7584 13.142 17.7713 13.079C17.8473 12.7101 17.9136 12.3882 17.9136 12C17.9136 11.6118 17.8473 11.2899 17.7713 10.921Z" fill="#273637"/>
</svg>
