<?xml version="1.0" encoding="UTF-8"?>
<svg width="24px" height="24px" viewBox="0 0 24 24" version="1.1" xmlns="http://www.w3.org/2000/svg" xmlns:xlink="http://www.w3.org/1999/xlink">
    <title>Icons/Full Set/NetApp/NetApp Cluster</title>
    <g id="Icons/Full-Set/NetApp/NetApp-Cluster" stroke="none" stroke-width="1" fill="none" fill-rule="evenodd">
        <path d="M17,2 C18.1,2 19,2.9 19,4 L19,4 L19,13 L17,13 L17,10 L5,10 L5,14 L11,14 L11,16 L5,16 L5,20 L11,20 L11,22 L5,22 C3.9,22 3,21.1 3,20 L3,20 L3,4 C3,2.9 3.9,2 5,2 L5,2 Z M22.0002,14 L22.0002,22 L18.2412,22 L18.2412,17.193 L15.9812,17.193 L15.9812,22 L12.2222,22 L12.2222,14 L22.0002,14 Z M7.1899,17.0594 L7.8999,17.7694 C8.0199,17.8894 8.0199,18.0804 7.8999,18.1904 L7.1899,18.9004 C7.0799,19.0194 6.8899,19.0194 6.7699,18.9004 L6.0599,18.1904 C5.9399,18.0804 5.9399,17.8894 6.0599,17.7694 L6.7699,17.0594 C6.8899,16.9404 7.0799,16.9404 7.1899,17.0594 Z M15,11 L15,13 L10,13 L10,11 L15,11 Z M7.1899,11.0594 L7.8999,11.7694 C8.0199,11.8894 8.0199,12.0804 7.8999,12.1904 L7.1899,12.9004 C7.0799,13.0194 6.8899,13.0194 6.7699,12.9004 L6.0599,12.1904 C5.9399,12.0804 5.9399,11.8894 6.0599,11.7694 L6.7699,11.0594 C6.8899,10.9404 7.0799,10.9404 7.1899,11.0594 Z M17,4 L5,4 L5,8 L17,8 L17,4 Z M15,5 L15,7 L10,7 L10,5 L15,5 Z M7.1899,5.0594 L7.8999,5.7694 C8.0199,5.8894 8.0199,6.0804 7.8999,6.1904 L7.1899,6.9004 C7.0799,7.0194 6.8899,7.0194 6.7699,6.9004 L6.0599,6.1904 C5.9399,6.0804 5.9399,5.8894 6.0599,5.7694 L6.7699,5.0594 C6.8899,4.9404 7.0799,4.9404 7.1899,5.0594 Z" id="Combined-Shape" fill="#273637"></path>
    </g>
</svg>