<?xml version="1.0" encoding="UTF-8"?>
<svg width="24px" height="24px" viewBox="0 0 24 24" version="1.1" xmlns="http://www.w3.org/2000/svg" xmlns:xlink="http://www.w3.org/1999/xlink">
    <g stroke="none" stroke-width="1" fill="none" fill-rule="evenodd">
      <path d="M15.5 9.9c.4-.4.4-1 0-1.4-.4-.4-1-.4-1.4 0l-1.9 1.9c-.1.1-.3.1-.4 0L9.9 8.5c-.4-.4-1-.4-1.4 0-.4.4-.4 1 0 1.4l1.9 1.9c.1.1.1.3 0 .4l-1.9 1.9c-.4.4-.4 1 0 1.4.4.4 1 .4 1.4 0l1.9-1.9c.1-.1.3-.1.4 0l1.9 1.9c.4.4 1 .4 1.4 0 .4-.4.4-1 0-1.4l-1.9-1.9c-.1-.1-.1-.3 0-.4l1.9-1.9z" fill="#273637" />
      <path d="M12 3c-5 0-9 4-9 9s4 9 9 9 9-4 9-9-4-9-9-9zm0 16c-3.9 0-7-3.1-7-7s3.1-7 7-7 7 3.1 7 7-3.1 7-7 7z" fill="#273637" />
    </g>
</svg>
