<?xml version="1.0" encoding="UTF-8"?>
<svg width="24px" height="24px" viewBox="0 0 24 24" version="1.1" xmlns="http://www.w3.org/2000/svg" xmlns:xlink="http://www.w3.org/1999/xlink">
    <title>Icons/Full Set/Action/Add Icon</title>
    <g id="Icons/Full-Set/Action/Add-Icon" stroke="none" stroke-width="1" fill="none" fill-rule="evenodd">
        <path d="M12,3 C14.3869484,3 16.6761336,3.94821156 18.363961,5.63603897 C20.0517884,7.32386638 21,9.61305159 21,12 C21,16.9705627 16.9705627,21 12,21 C7.02943725,21 3,16.9705627 3,12 C3,7.02943725 7.02943725,3 12,3 Z M12,4.8 C8.0235498,4.8 4.8,8.0235498 4.8,12 C4.8,15.9764502 8.0235498,19.2 12,19.2 C13.9095587,19.2 15.7409069,18.4414307 17.0911688,17.0911688 C18.4414307,15.7409069 19.2,13.9095587 19.2,12 C19.2,8.0235498 15.9764502,4.8 12,4.8 Z M12,7.50067955 C12.4955753,7.50067955 12.8973185,7.90242273 12.8973185,8.39799806 L12.8973185,8.39799806 L12.8973185,11.1026815 L15.6020019,11.1026815 C16.0975773,11.1026815 16.4993204,11.5044247 16.4993204,12 C16.4993204,12.4955753 16.0975773,12.8973185 15.6020019,12.8973185 L15.6020019,12.8973185 L12.8973185,12.8973185 L12.8973185,15.6020019 C12.8973185,16.0975773 12.4955753,16.4993204 12,16.4993204 C11.5044247,16.4993204 11.1026815,16.0975773 11.1026815,15.6020019 L11.1026815,15.6020019 L11.1026815,12.8973185 L8.39799806,12.8973185 C7.90242273,12.8973185 7.50067955,12.4955753 7.50067955,12 C7.50067955,11.5044247 7.90242273,11.1026815 8.39799806,11.1026815 L8.39799806,11.1026815 L11.1026815,11.1026815 L11.1026815,8.39799806 C11.1026815,7.90242273 11.5044247,7.50067955 12,7.50067955 Z" id="Combined-Shape" fill="#273637"></path>
    </g>
</svg>
