<?xml version="1.0" encoding="UTF-8"?>
<svg width="24px" height="24px" viewBox="0 0 24 24" version="1.1" xmlns="http://www.w3.org/2000/svg" xmlns:xlink="http://www.w3.org/1999/xlink">
    <title>Icons/Full Set/Action/Collapse</title>
    <g id="Icons/Full-Set/Action/Collapse" stroke="none" stroke-width="1" fill="none" fill-rule="evenodd">
        <path d="M9,3 C11.757,3 14,5.243 14,8 L14,16 C14,18.757 11.757,21 9,21 L4,21 C3.448,21 3,20.553 3,20 C3,19.447 3.448,19 4,19 L9,19 C10.654,19 12,17.654 12,16 L12,8 C12,6.346 10.654,5 9,5 L4,5 C3.448,5 3,4.553 3,4 C3,3.447 3.448,3 4,3 L9,3 Z M9,13.667 C9.552,13.667 10,14.114 10,14.667 C10,15.219 9.552,15.667 9,15.667 L4,15.667 C3.448,15.667 3,15.219 3,14.667 C3,14.114 3.448,13.667 4,13.667 L9,13.667 Z M17.25,7.75 C17.506,7.75 17.762,7.848 17.957,8.043 L20.707,10.793 C21.098,11.184 21.098,11.816 20.707,12.207 L17.957,14.957 C17.566,15.348 16.934,15.348 16.543,14.957 C16.152,14.566 16.152,13.934 16.543,13.543 L18.586,11.5 L16.543,9.457 C16.152,9.066 16.152,8.434 16.543,8.043 C16.738,7.848 16.994,7.75 17.25,7.75 Z M9,8.333 C9.552,8.333 10,8.781 10,9.333 C10,9.886 9.552,10.333 9,10.333 L4,10.333 C3.448,10.333 3,9.886 3,9.333 C3,8.781 3.448,8.333 4,8.333 L9,8.333 Z" id="Combined-Shape" fill="#273637"></path>
    </g>
</svg>