<?xml version="1.0" encoding="UTF-8"?>
<svg width="24px" height="24px" viewBox="0 0 24 24" version="1.1" xmlns="http://www.w3.org/2000/svg" xmlns:xlink="http://www.w3.org/1999/xlink">
    <title>Icons/Full Set/Action/Create_A_Report</title>
    <g id="Icons/Full-Set/Action/Create_A_Report" stroke="none" stroke-width="1" fill="none" fill-rule="evenodd">
        <path d="M16.9,1.8 C17.4,1.8 17.9,2.1 18.2,2.6 L18.2,2.6 L20.8,7.2 C20.9,7.4 21,7.7 21,7.9 L21,7.9 L21,20.3 C21,21.1 20.3,21.8 19.5,21.8 L19.5,21.8 L4.5,21.8 C3.7,21.8 3,21.1 3,20.3 L3,20.3 L3,3.3 C3,2.5 3.7,1.8 4.5,1.8 L4.5,1.8 Z M15.2,3.8 L5,3.8 L5,19.7 L19,19.7 L19,8.7 L16.4,8.7 C15.8,8.7 15.2,8.2 15.2,7.5 L15.2,7.5 L15.2,3.8 Z M12.1,8.4 C12.6,8.4 12.9,8.8 12.9,9.2 L12.9,9.2 L12.9,11.1 L14.8,11.1 C15.2,11.1 15.6,11.4 15.6,11.9 C15.6,12.4 15.2,12.7 14.8,12.7 L14.8,12.7 L12.9,12.7 L12.9,14.7 C12.9,15.2 12.6,15.5 12.1,15.5 C11.6,15.5 11.3,15.1 11.3,14.7 L11.3,14.7 L11.3,12.7 L9.4,12.7 C8.9,12.7 8.6,12.4 8.6,11.9 C8.6,11.4 9,11.1 9.4,11.1 L9.4,11.1 L11.3,11.1 L11.3,9.2 C11.3,8.7 11.6,8.4 12.1,8.4 Z" id="Combined-Shape" fill="#273637"></path>
    </g>
</svg>
