<?xml version="1.0" encoding="UTF-8"?>
<svg width="24" height="24" viewBox="0 0 24 24" fill="none" xmlns="http://www.w3.org/2000/svg" xmlns:xlink="http://www.w3.org/1999/xlink">
  <g stroke="none" stroke-width="1" fill="none" fill-rule="evenodd">
    <path fill-rule="evenodd" clip-rule="evenodd" d="M4.18184 19.8174C3.79132 19.4269 3.79132 18.7937 4.18184 18.4032L18.4032 4.18181C18.7937 3.79129 19.4269 3.79128 19.8174 4.18181C20.208 4.57233 20.208 5.2055 19.8174 5.59602L5.59605 19.8174C5.20553 20.2079 4.57236 20.2079 4.18184 19.8174ZM10.1061 19.8174C9.71556 19.4269 9.71556 18.7937 10.1061 18.4032L18.4019 10.1074C18.7924 9.71686 19.4256 9.71686 19.8161 10.1074C20.2066 10.4979 20.2066 11.1311 19.8161 11.5216L11.5203 19.8174C11.1298 20.2079 10.4966 20.2079 10.1061 19.8174ZM16.0338 18.4032C15.6432 18.7937 15.6432 19.4269 16.0338 19.8174C16.4243 20.2079 17.0575 20.2079 17.448 19.8174L19.8182 17.4472C20.2087 17.0566 20.2087 16.4235 19.8182 16.033C19.4277 15.6424 18.7945 15.6424 18.404 16.033L16.0338 18.4032Z" fill="#2FCAFF"/>
  </g>
</svg>
