<?xml version="1.0" encoding="UTF-8"?>
<svg width="24px" height="24px" viewBox="0 0 24 24" version="1.1" xmlns="http://www.w3.org/2000/svg" xmlns:xlink="http://www.w3.org/1999/xlink">
    <g stroke="none" stroke-width="1" fill="none" fill-rule="evenodd">
      <path d="M5.1 16.7v-1.9h5.4c.2-.8.6-1.4 1.1-2H5.1v-2.1h11.6v.3c.7.2 1.4.5 2 .9V6.4c0-2.3-5.4-2.5-7.8-2.5-2.3 0-7.8.2-7.8 2.5V17c0 2.3 5.4 2.5 7.8 2.5h.6c-.5-.6-.8-1.3-1-2-3-.1-4.9-.5-5.4-.8zm0-10c.6-.3 2.6-.8 5.8-.8s5.2.5 5.8.8v1.9H5.1V6.7z" fill="#273637" />
      <path d="M20.7 20.1l-.9-.9-.8-.8c.4-.7.7-1.4.7-2.3 0-1.1-.4-2-1.1-2.8-.5-.6-1.2-1-2-1.2-.3-.1-.7-.2-1.1-.2-.9 0-1.7.3-2.3.7-.7.5-1.2 1.2-1.5 2-.2.4-.3.9-.3 1.4 0 .5.1.9.2 1.3.3.8.7 1.4 1.4 1.9s1.6.9 2.5.9c.9 0 1.7-.3 2.4-.8l.8.8.9.9c.1.1.3.2.5.2s.4-.1.5-.2c.4-.1.4-.6.1-.9zm-5.1-1.3c-1 0-1.9-.6-2.3-1.4-.2-.4-.3-.8-.3-1.2 0-.5.2-1 .4-1.4.5-.7 1.3-1.2 2.2-1.2 1.5 0 2.6 1.2 2.6 2.6s-1.2 2.6-2.6 2.6z" fill="#273637" />
    </g>
</svg>
