<svg width="24" height="24" viewBox="0 0 24 24" fill="none" xmlns="http://www.w3.org/2000/svg">
<path d="M18.43 21.5H5.57C4.43 21.5 3.5 20.57 3.5 19.44V4.56C3.5 3.43 4.43 2.5 5.57 2.5H14.77C15.32 2.5 15.84 2.71 16.23 3.1L19.89 6.73C20.28 7.12 20.5 7.64 20.5 8.19V19.44C20.5 20.58 19.57 21.5 18.43 21.5ZM5.57 4.5L5.5 19.44C5.5 19.44 5.53 19.5 5.57 19.5H18.43L18.5 8.19L14.82 4.52L5.57 4.5Z" fill="white"/>
<path d="M15.71 13.29C15.32 12.9 14.69 12.9 14.3 13.29L13.01 14.58V7.99C13.01 7.44 12.56 6.99 12.01 6.99C11.46 6.99 11.01 7.44 11.01 7.99V14.58L9.72 13.29C9.33 12.9 8.7 12.9 8.31 13.29C7.92 13.68 7.92 14.31 8.31 14.7L11.31 17.7C11.51 17.9 11.76 17.99 12.02 17.99C12.28 17.99 12.53 17.89 12.73 17.7L15.73 14.7C16.12 14.31 16.12 13.68 15.73 13.29H15.71Z" fill="white"/>
</svg>
