<?xml version="1.0" encoding="UTF-8"?>
<svg width="24px" height="24px" viewBox="0 0 24 24" version="1.1" xmlns="http://www.w3.org/2000/svg" xmlns:xlink="http://www.w3.org/1999/xlink">
    <title>Icons/Full Set/Action/Download</title>
    <g id="Icons/Full-Set/Action/Download" stroke="none" stroke-width="1" fill="none" fill-rule="evenodd">
        <path d="M12.2110077,10.9981583 C12.7640077,10.9981583 13.2110077,11.4451583 13.2110077,11.9981583 L13.2110077,11.9981583 L13.2110077,18.8081583 L14.5560077,17.6421583 C14.9730077,17.2811583 15.6050077,17.3271583 15.9670077,17.7431583 C16.3280077,18.1611583 16.2830077,18.7931583 15.8660077,19.1541583 L15.8660077,19.1541583 L12.8660077,21.7541583 C12.8180077,21.7961583 12.7600077,21.8171583 12.7060077,21.8481583 C12.6620077,21.8741583 12.6250077,21.9051583 12.5770077,21.9241583 C12.4590077,21.9711583 12.3360077,21.9981583 12.2110077,21.9981583 C12.0860077,21.9981583 11.9630077,21.9711583 11.8450077,21.9241583 C11.7970077,21.9051583 11.7600077,21.8741583 11.7170077,21.8481583 C11.6620077,21.8171583 11.6050077,21.7961583 11.5560077,21.7541583 L11.5560077,21.7541583 L8.55600771,19.1541583 C8.13900771,18.7931583 8.09400771,18.1611583 8.45500771,17.7431583 C8.81900771,17.3271583 9.44900771,17.2811583 9.86600771,17.6421583 L9.86600771,17.6421583 L11.2110077,18.8081583 L11.2110077,11.9981583 C11.2110077,11.4451583 11.6580077,10.9981583 12.2110077,10.9981583 Z M14.6915077,3.13765827 C16.9615077,3.61765827 19.2115077,5.44865827 19.4415077,8.48865827 C20.8815077,9.29765827 21.6615077,10.9176583 21.3615077,12.6376583 C21.0815077,14.2976583 19.7605077,15.9676583 17.4515077,15.9676583 L15.2115077,15.9676583 L15.2115077,13.9676583 L17.4515077,13.9676583 C18.6805077,13.9676583 19.2605077,13.0686583 19.3905077,12.2976583 C19.5205077,11.5286583 19.2705077,10.4886583 18.1315077,10.0776583 L17.4415077,9.83765827 L17.4615077,9.11765827 C17.5105077,6.65865827 15.7815077,5.40865827 14.2815077,5.08765827 C12.7705077,4.77865827 10.6915077,5.19865827 9.75150771,7.44865827 L9.44150771,8.18865827 L8.66150771,8.04765827 C8.39050771,7.99765827 8.14050771,7.97865827 7.91150771,7.97865827 C6.73050771,7.97865827 6.04150771,8.52865827 5.64050771,9.03765827 C4.95150771,9.94865827 4.80050771,11.3076583 5.28150771,12.3376583 C5.60050771,13.0376583 6.34050771,13.8876583 8.00150771,13.9676583 L9.21150771,13.9676583 L9.21150771,15.9676583 L7.95150771,15.9676583 C5.86150771,15.8676583 4.24150771,14.8586583 3.46150771,13.1886583 C2.67150771,11.4786583 2.91150771,9.31865827 4.06050771,7.81865827 C5.04150771,6.54765827 6.51050771,5.89865827 8.24150771,5.98865827 C9.69150771,3.38765827 12.4515077,2.65865827 14.6915077,3.13765827 Z" id="Combined-Shape" fill="#273637"></path>
    </g>
</svg>
