<?xml version="1.0" encoding="UTF-8"?>
<svg width="24px" height="24px" viewBox="0 0 24 24" version="1.1" xmlns="http://www.w3.org/2000/svg" xmlns:xlink="http://www.w3.org/1999/xlink">
    <title>Icons/Full Set/Action/Expand</title>
    <g id="Icons/Full-Set/Action/Expand" stroke="none" stroke-width="1" fill="none" fill-rule="evenodd">
        <path d="M20,3 C20.552,3 21,3.447 21,4 C21,4.553 20.552,5 20,5 L15,5 C13.346,5 12,6.346 12,8 L12,16 C12,17.654 13.346,19 15,19 L20,19 C20.552,19 21,19.447 21,20 C21,20.553 20.552,21 20,21 L15,21 C12.243,21 10,18.757 10,16 L10,8 C10,5.243 12.243,3 15,3 L20,3 Z M7.457,9.043 C7.848,9.434 7.848,10.066 7.457,10.457 L5.414,12.5 L7.457,14.543 C7.848,14.934 7.848,15.566 7.457,15.957 C7.262,16.152 7.006,16.25 6.75,16.25 C6.494,16.25 6.238,16.152 6.043,15.957 L3.293,13.207 C2.902,12.816 2.902,12.184 3.293,11.793 L6.043,9.043 C6.434,8.652 7.066,8.652 7.457,9.043 Z M20,13.667 C20.552,13.667 21,14.114 21,14.667 C21,15.219 20.552,15.667 20,15.667 L15,15.667 C14.448,15.667 14,15.219 14,14.667 C14,14.114 14.448,13.667 15,13.667 L20,13.667 Z M20,8.333 C20.552,8.333 21,8.781 21,9.333 C21,9.886 20.552,10.333 20,10.333 L15,10.333 C14.448,10.333 14,9.886 14,9.333 C14,8.781 14.448,8.333 15,8.333 L20,8.333 Z" id="Combined-Shape" fill="#273637"></path>
    </g>
</svg>