<?xml version="1.0" encoding="UTF-8"?>
<svg width="24px" height="24px" viewBox="0 0 24 24" version="1.1" xmlns="http://www.w3.org/2000/svg" xmlns:xlink="http://www.w3.org/1999/xlink">
    <title>Icons/Full Set/Action/Import</title>
    <g id="Icons/Full-Set/Action/Import" stroke="none" stroke-width="1" fill="none" fill-rule="evenodd">
        <path d="M19,12 C19.553,12 20,12.448 20,13 L20,19 C20,19.552 19.553,20 19,20 L5,20 C4.447,20 4,19.552 4,19 L4,13 C4,12.448 4.447,12 5,12 C5.553,12 6,12.448 6,13 L6,18 L18,18 L18,13 C18,12.448 18.447,12 19,12 Z M12,2 C12.553,2 13,2.448 13,3 L13,3 L13,11.586 L15.293,9.293 C15.684,8.902 16.316,8.902 16.707,9.293 C17.098,9.684 17.098,10.316 16.707,10.707 L16.707,10.707 L12.708,14.706 C12.615,14.799 12.505,14.872 12.382,14.923 C12.26,14.974 12.13,15 12,15 C11.87,15 11.74,14.974 11.618,14.923 C11.495,14.872 11.385,14.799 11.292,14.706 L11.292,14.706 L7.293,10.707 C6.902,10.316 6.902,9.684 7.293,9.293 C7.684,8.902 8.316,8.902 8.707,9.293 L8.707,9.293 L11,11.586 L11,3 C11,2.448 11.447,2 12,2 Z" id="Combined-Shape" fill="#273637"></path>
    </g>
</svg>
