<svg width="24" height="24" viewBox="0 0 24 24" fill="none" xmlns="http://www.w3.org/2000/svg">
<path d="M10.1076 4.24303C10.6175 4.24303 11 4.6255 11 5.13546L11 9.85259C11 10.2351 10.9363 10.4263 10.6813 10.6813C10.4263 10.9363 10.1076 11 9.85259 11L5.13546 11C4.88048 11 4.6255 10.8725 4.49801 10.745C4.37052 10.6175 4.24303 10.3625 4.24303 10.1076C4.24303 9.59761 4.6255 9.21514 5.13546 9.21514H7.94024L3.28685 4.56175C2.90438 4.17928 2.90438 3.66932 3.28685 3.28685C3.66932 2.90438 4.17928 2.90438 4.56175 3.28685L9.21514 7.94024V5.13546C9.21514 4.6255 9.59761 4.24303 10.1076 4.24303Z" fill="#273637"/>
<path d="M16.0186 14.7992L20.6987 19.49C21.0192 19.8112 21.1474 20.3253 20.7628 20.7108C20.3781 21.0964 19.8652 21.0964 19.4806 20.7108L14.8005 16.0201V18.8474C14.8005 19.3614 14.4159 19.747 13.903 19.747C13.6465 19.747 13.3901 19.6185 13.2619 19.49C13.1336 19.3614 13.0054 19.1044 13.0054 18.8474L13.0054 14.0924C12.9413 13.5141 13.4542 13 14.0953 13H18.8395C19.3524 13 19.737 13.3855 19.737 13.8996C19.737 14.4137 19.3524 14.7992 18.8395 14.7992H16.0186Z" fill="#273637"/>
</svg>
