<?xml version="1.0" encoding="UTF-8"?>
<svg width="24px" height="24px" viewBox="0 0 24 24" version="1.1" xmlns="http://www.w3.org/2000/svg" xmlns:xlink="http://www.w3.org/1999/xlink">
    <title>Icons/Full Set/Action/New_link</title>
    <g id="Icons/Full-Set/Action/New_link" stroke="none" stroke-width="1" fill="none" fill-rule="evenodd">
        <path d="M19.5221675,3 C20.3103448,3 21,3.69306931 21,4.48514851 L21,4.48514851 L21,9.61386139 L19.0295567,9.61386139 L19.0295567,4.98019802 L4.97044335,4.98019802 L4.97044335,19.019802 L9.4729064,19.019802 L9.4729064,21 L4.47783251,21 C3.68965517,21 3,20.3069307 3,19.5148515 L3,19.5148515 L3,4.48514851 C3,3.69306931 3.68965517,3 4.47783251,3 L4.47783251,3 Z M20.0430622,12.5789474 C20.6172249,12.5789474 21,12.9617225 21,13.5358852 L21,13.5358852 L21,19.8516746 C21,20.4258373 20.5215311,21 19.8516746,21 L19.8516746,21 L13.5358852,21 C12.9617225,21 12.5789474,20.6172249 12.5789474,20.0430622 C12.5789474,19.4688995 12.9617225,19.0861244 13.5358852,19.0861244 L13.5358852,19.0861244 L17.7464115,19.0861244 L12.9617225,14.3014354 C12.5789474,13.9186603 12.5789474,13.3444976 12.9617225,12.9617225 C13.15311,12.7703349 13.4401914,12.6746411 13.6315789,12.6746411 C13.8229665,12.6746411 14.1100478,12.7703349 14.3014354,12.9617225 L14.3014354,12.9617225 L19.0861244,17.7464115 L19.0861244,13.5358852 C19.0861244,12.9617225 19.4688995,12.5789474 20.0430622,12.5789474 Z" id="Combined-Shape" fill="#273637" transform="translate(12.000000, 12.000000) scale(1, -1) translate(-12.000000, -12.000000) "></path>
    </g>
</svg>
