<?xml version="1.0" encoding="UTF-8"?>
<svg width="24px" height="24px" viewBox="0 0 24 24" version="1.1" xmlns="http://www.w3.org/2000/svg" xmlns:xlink="http://www.w3.org/1999/xlink">
    <g stroke="none" stroke-width="1" fill="none" fill-rule="evenodd">
      <path d="M19,11h-5.7c-0.1,0-0.3-0.1-0.3-0.3V5c0-0.6-0.4-1-1-1h0c-0.6,0-1,0.4-1,1v5.7c0,0.1-0.1,0.3-0.3,0.3H5c-0.6,0-1,0.4-1,1v0 c0,0.6,0.4,1,1,1h5.7c0.1,0,0.3,0.1,0.3,0.3V19c0,0.6,0.4,1,1,1h0c0.6,0,1-0.4,1-1v-5.7c0-0.1,0.1-0.3,0.3-0.3H19c0.6,0,1-0.4,1-1v0 C20,11.4,19.6,11,19,11z" fill="#273637" />
    </g>
</svg>
