<?xml version="1.0" encoding="UTF-8"?>
<svg width="24px" height="24px" viewBox="0 0 24 24" version="1.1" xmlns="http://www.w3.org/2000/svg" xmlns:xlink="http://www.w3.org/1999/xlink">
    <g stroke="none" stroke-width="1" fill="none" fill-rule="evenodd">
      <path d="M20 11.9C20 7.6 16.4 4 12 4 9.4 4 7.1 5.3 5.6 7.2l1.2 1.7C7.9 7.2 9.8 6 12 6c3.3 0 6 2.7 6 5.9h-1.9l2.9 3.9 2.8-3.9H20zM12 18c-3.3 0-6-2.7-6-6h1.9l-1.5-2L5 8.1 2.1 12H4c0 4.4 3.6 8 8 8 2.6 0 4.9-1.3 6.4-3.2l-1.2-1.7c-1.1 1.7-3 2.9-5.2 2.9z" fill="#273637" />
    </g>
</svg>
