<?xml version="1.0" encoding="UTF-8"?>
<svg width="24px" height="24px" viewBox="0 0 24 24" version="1.1" xmlns="http://www.w3.org/2000/svg" xmlns:xlink="http://www.w3.org/1999/xlink">
    <g stroke="none" stroke-width="1" fill="none" fill-rule="evenodd">
      <path d="M20.6 19.1l-4.8-4.8c.8-1.2 1.3-2.6 1.3-4.1 0-3.9-3.1-7-7-7s-7 3.1-7 7 3.1 7 7 7c1.6 0 3.1-.6 4.3-1.5l4.8 4.8c.2.2.5.3.7.3s.5-.1.7-.3c.4-.4.4-1 0-1.4zM5.1 10.2c0-2.8 2.2-5 5-5s5 2.2 5 5-2.2 5-5 5-5-2.3-5-5z" fill="#273637" />
    </g>
</svg>
