<?xml version="1.0" encoding="UTF-8"?>
<svg width="24px" height="24px" viewBox="0 0 24 24" version="1.1" xmlns="http://www.w3.org/2000/svg" xmlns:xlink="http://www.w3.org/1999/xlink">
    <g stroke="none" stroke-width="1" fill="none" fill-rule="evenodd">
      <path d="M14 19c.6 0 1-.4 1-1v-6c0-.6-.4-1-1-1s-1 .4-1 1v6c0 .6.4 1 1 1zm-4 0c.6 0 1-.4 1-1v-6c0-.6-.4-1-1-1s-1 .4-1 1v6c0 .6.4 1 1 1zM6 8h12v12c0 1.1-.9 2-2 2H8c-1.1 0-2-.9-2-2V8zm6.8-6c.6 0 1.1.2 1.5.7L15.5 4H18c.6 0 1 .4 1 1s-.4 1-1 1H6c-.5 0-1-.4-1-1s.4-1 1-1h2.5l1.2-1.3c.3-.5.9-.7 1.4-.7h1.7z" fill="#273637" />
    </g>
</svg>
