<svg width="24" height="24" fill="none" xmlns="http://www.w3.org/2000/svg">
  <path fill-rule="evenodd" clip-rule="evenodd" d="M20.5 5.1h-3.8l-.5-1.2c-.2-.6-.7-.9-1.3-.9H9.2c-.6 0-1.2.3-1.4.9l-.6 1.2H3.5c-.8 0-1.5.7-1.5 1.5v13c0 .8.7 1.5 1.5 1.5h17c.8 0 1.5-.7 1.5-1.5v-13c0-.8-.6-1.5-1.5-1.5zm-.5 14H4v-12h4.5l1-2.1h5.1l.9 2.1H20v12z" fill="#273637"/>
  <path fill-rule="evenodd" clip-rule="evenodd" d="M12 9c-2.2 0-4 1.8-4 4s1.8 4 4 4 4-1.8 4-4c0-2.3-1.8-4-4-4zm0 5.9c-1.1 0-2-.9-2-2s.9-2 2-2 2 .9 2 2-.9 2-2 2z" fill="#273637"/>
</svg>
