<?xml version="1.0" encoding="UTF-8"?>
<svg width="24px" height="24px" viewBox="0 0 24 24" version="1.1" xmlns="http://www.w3.org/2000/svg" xmlns:xlink="http://www.w3.org/1999/xlink">
    <title>Icons/Full Set/Hyper-v/Hyper-v Server</title>
    <g id="Icons/Full-Set/Hyper-v/Hyper-v-Server" stroke="none" stroke-width="1" fill="none" fill-rule="evenodd">
        <path d="M19.2,14.0038 C20.192,14.0038 21,14.8118 21,15.8038 L21,20.2038 C21,21.1958 20.192,22.0038 19.2,22.0038 L4.8,22.0038 C3.808,22.0038 3,21.1958 3,20.2038 L3,15.8038 C3,14.8118 3.808,14.0038 4.8,14.0038 L19.2,14.0038 Z M19,16.0038 L5,16.0038 L5,20.0038 L19,20.0038 L19,16.0038 Z M16.2197,17.0838 L16.9297,17.7938 C17.0497,17.9138 17.0497,18.1038 16.9297,18.2138 L16.2197,18.9238 C16.1107,19.0438 15.9197,19.0438 15.7997,18.9238 L15.0897,18.2138 C14.9697,18.1038 14.9697,17.9138 15.0897,17.7938 L15.7997,17.0838 C15.9197,16.9638 16.1107,16.9638 16.2197,17.0838 Z M15.8145,7.37 L15.8145,12.196 L11.4815,11.432 L11.4815,7.37 L15.8145,7.37 Z M10.4961,7.3876 L10.4961,11.2276 L7.6251,10.6836 L7.6251,7.3876 L10.4961,7.3876 Z M15.8143,1.77 L15.8143,6.418 L11.4813,6.418 L11.4813,2.566 L15.8093,1.77 L15.8143,1.77 Z M10.5137,2.7489 L10.5137,6.4019 L7.6247,6.4019 L7.6247,3.2749 L10.5137,2.7489 Z" id="Combined-Shape" fill="#273637"></path>
    </g>
</svg>