<?xml version="1.0" encoding="UTF-8"?>
<svg width="24px" height="24px" viewBox="0 0 24 24" version="1.1" xmlns="http://www.w3.org/2000/svg" xmlns:xlink="http://www.w3.org/1999/xlink">
    <title>Icons/Full Set/Hyper-v/Hyper-v SCVMM</title>
    <g id="Icons/Full-Set/Hyper-v/Hyper-v-SCVMM" stroke="none" stroke-width="1" fill="none" fill-rule="evenodd">
        <path d="M13.699,12.2244 C14.023,16.7574 12.401,20.3644 11.964,21.2384 C10.653,21.1964 4.28,20.8324 4.28,17.4744 C4.28,16.6114 5.175,15.7594 6.568,14.9794 C6.578,14.9684 6.599,14.9594 6.61,14.9484 C6.735,14.8854 6.849,14.8134 6.963,14.7514 C8.762,13.7944 11.246,12.9314 13.699,12.2244 Z M12.3071,8.9797 C12.9511,9.1467 13.6061,9.3237 14.2511,9.5207 L14.211372,9.56218084 L14.211372,9.56218084 L14.0951045,9.67835214 C13.9076124,9.86160083 13.5909182,10.1551545 13.1531,10.5217 C12.6731,10.9227 12.2171,11.2777 11.5961,11.5637 C10.9601,11.8577 9.7741,11.9877 9.1851,12.0987 C9.9191,11.5397 11.3771,10.3557 12.3071,8.9797 Z M9.7283,8.4291 C10.2683,8.5321 10.8723,8.6471 11.4963,8.7931 C10.9063,9.9371 9.6803,11.3811 9.1143,11.7031 C9.6543,10.7361 9.7913,9.8121 9.7603,8.8141 C9.7603,8.6781 9.7493,8.5541 9.7283,8.4291 Z M15.0817,9.8005 C15.4777,9.9365 15.8517,10.0825 16.2257,10.2375 C15.4027,10.5605 13.9457,11.0425 12.8557,11.2645 C13.7427,10.7775 14.3127,10.4245 15.0817,9.8005 Z M17.0892,7.3477 C18.4612,7.8567 19.5632,8.5227 20.0002,9.3957 C19.4492,9.4997 18.5552,9.6867 17.4632,9.9367 C16.9012,9.6557 16.2992,9.4067 15.6752,9.1777 C16.4132,8.3557 16.8602,7.7107 17.0892,7.3477 Z M13.513,6.3593 C14.469,6.5573 15.446,6.7973 16.34,7.0773 C16.08,7.4623 15.612,8.0963 14.864,8.8963 C14.147,8.6573 13.419,8.4603 12.712,8.2723 C13.159,7.4313 13.399,6.7553 13.513,6.3593 Z M8.1193,5.3223 C8.5973,5.4263 9.5723,5.6633 10.2903,5.7773 C11.0273,5.9023 11.8703,6.0373 12.7433,6.2043 C12.6183,6.5893 12.3693,7.2653 11.9223,8.0863 C11.0803,7.8883 10.2793,7.7323 9.5723,7.6073 C9.3333,6.7243 8.5253,5.8523 8.1193,5.3223 Z M10.5007,2 C10.5007,2 10.9157,3.723 11.5137,4.727 C11.5137,4.727 11.4204678,4.71353846 11.261171,4.68954552 L11.0400426,4.65588644 C10.2503967,4.53447929 8.6637,4.27792308 7.7707,4.047 C7.3507,3.938 7.2187,3.381 7.5607,3.112 C8.3807,2.469 9.4517,2.107 10.5007,2 Z" id="Combined-Shape" fill="#273637"></path>
    </g>
</svg>