<svg width="24" height="24" viewBox="0 0 24 24" fill="none" xmlns="http://www.w3.org/2000/svg">
<path d="M6.33 6.4V4H16.02C16.55 3.94 16.89 3.56 16.89 3C16.89 2.4 16.49 2 15.89 2H5.27C4.92 2.05 4.57 2.24 4.3 2.6L2.1 6.4L2 6.7V17.63C2.06 18.16 2.44 18.5 3 18.5C3.6 18.5 4 18.1 4 17.5V7.6H5.35C5.9 7.53 6.33 7.05 6.33 6.4Z" fill="white"/>
<path d="M11.1199 21.43L11.0899 21.45V21.46H7.2999C6.5499 21.46 5.9699 20.93 5.8999 20.2V10.31C5.8999 10.15 5.9599 9.92999 6.0399 9.73999L6.0999 9.60999L8.2999 5.80999C8.4799 5.44999 8.9099 5.16999 9.3599 5.10999H18.7199C19.4699 5.10999 20.0399 5.72999 20.1099 6.38999V14.28H19.5999C19.2199 14.28 18.9399 14.48 18.8199 14.59L18.2099 15.13V7.09999H10.2399V9.65999C10.2399 10.32 9.7999 10.8 9.1699 10.86H7.9099V19.45H13.3999L11.1199 21.43Z" fill="white"/>
<path d="M15.87 10.91H12.64C12.08 10.91 11.7 10.51 11.7 9.91003C11.7 9.35003 12.03 8.97003 12.53 8.91003H15.76C16.32 8.91003 16.7 9.31003 16.7 9.91003C16.7 10.47 16.37 10.85 15.87 10.91Z" fill="white"/>
<path d="M9.25 13.3C9.25 12.75 9.59 12.36 10.13 12.31V12.3H15.74C16.35 12.3 16.75 12.7 16.75 13.3C16.75 13.86 16.41 14.24 15.87 14.3H10.26C9.65 14.3 9.25 13.9 9.25 13.3Z" fill="white"/>
<path d="M10.26 17.6H12.53L11.11 16.34L10.96 16.21L10.87 16.04C10.8 15.9 10.77 15.75 10.76 15.6H10.13C9.59 15.66 9.25 16.04 9.25 16.6C9.25 17.2 9.65 17.6 10.26 17.6Z" fill="white"/>
<path d="M13.8001 15.3H11.8201L11.8101 15.29C11.7001 15.29 11.6501 15.45 11.7001 15.56L15.3401 18.77C15.3901 18.82 15.3901 18.93 15.3401 18.98L11.7001 22.14C11.6501 22.19 11.7001 22.35 11.8101 22.35H13.7401C13.8001 22.35 13.8501 22.3 13.8501 22.3L17.7601 18.93C17.8101 18.88 17.8101 18.77 17.7601 18.72L13.9101 15.35C13.8701 15.3167 13.8334 15.3 13.8001 15.3Z" fill="white"/>
<path d="M21.6701 15.57L18.6201 18.19C18.5701 18.24 18.5101 18.24 18.4601 18.19L17.4401 17.28C17.3901 17.23 17.3901 17.12 17.4401 17.07L19.4201 15.3C19.4201 15.3 19.4701 15.25 19.5301 15.25H21.5601C21.6701 15.3 21.7201 15.46 21.6701 15.57Z" fill="white"/>
<path d="M19.53 22.31H21.52C21.68 22.31 21.73 22.15 21.57 21.99L18.57 19.37C18.52 19.37 18.46 19.37 18.41 19.42L17.39 20.28C17.34 20.33 17.34 20.44 17.39 20.49L19.42 22.26C19.46 22.2933 19.4967 22.31 19.53 22.31Z" fill="white"/>
</svg>
