<svg width="24" height="24" viewBox="0 0 24 24" fill="none" xmlns="http://www.w3.org/2000/svg">
<path d="M6.33 6.4V4H16.02C16.55 3.94 16.89 3.56 16.89 3C16.89 2.4 16.49 2 15.89 2H5.27C4.92 2.05 4.57 2.24 4.3 2.6L2.1 6.4L2 6.7V17.63C2.06 18.16 2.44 18.5 3 18.5C3.6 18.5 4 18.1 4 17.5V7.6H5.35C5.9 7.53 6.33 7.05 6.33 6.4Z" fill="white"/>
<path d="M7.8999 19.45H11.9999L11.3099 21.45H7.2999C6.5499 21.45 5.9699 20.92 5.8999 20.19V10.3C5.8999 10.14 5.9599 9.91998 6.0399 9.72998L6.0999 9.59998L8.2999 5.79998C8.4799 5.43998 8.9099 5.15998 9.3599 5.09998H18.7099C19.4599 5.09998 20.0299 5.71998 20.0999 6.37998V12.38H18.1999V7.09998H10.2299V9.65998C10.2299 10.32 9.7899 10.8 9.1599 10.86H7.8999V19.45Z" fill="white"/>
<path d="M15.87 10.91C16.37 10.85 16.7 10.47 16.7 9.90997C16.7 9.30997 16.32 8.90997 15.76 8.90997H12.53C12.03 8.96997 11.7 9.34997 11.7 9.90997C11.7 10.51 12.08 10.91 12.64 10.91H15.87Z" fill="white"/>
<path d="M15.61 12.3V12.5L15.06 12.6H14.98L14.91 12.63C14.58 12.76 14.3 13.02 14.16 13.35C14.13 13.4 14.1 13.52 14.1 13.52L13.82 14.3H10.26C9.65 14.3 9.25 13.9 9.25 13.3C9.25 12.74 9.59 12.36 10.13 12.3H15.61Z" fill="white"/>
<path d="M19.0299 13.51C18.9599 13.31 18.7599 13.17 18.5499 13.17L18.5399 13.19H15.6299C15.7699 13.2 15.8899 13.29 15.9399 13.42L17.8299 18.76L18.4599 20.55C18.4999 20.66 18.5399 20.8 18.5699 20.92V20.9C18.6885 21.4931 18.5629 21.5976 18.502 21.6482L18.4999 21.65H18.4899C18.5699 21.48 18.4099 21.09 18.4099 21.09L17.5199 18.75H15.4599C15.2299 18.75 15.1199 19.02 15.2799 19.18L16.0499 19.82L18.2199 21.64C18.3099 21.73 18.4399 21.79 18.5699 21.79H21.2299C21.5799 21.79 21.8299 21.44 21.7099 21.11L19.0299 13.51Z" fill="white"/>
<path d="M15.6799 13.89C15.6399 13.78 15.5299 13.7 15.3999 13.7L15.4199 13.71H15.3099C15.2299 13.74 15.1599 13.81 15.1199 13.89C15.1099 13.91 15.0999 13.95 15.0999 13.95L12.5699 21.11C12.4599 21.43 12.6999 21.78 13.0499 21.78H15.0199C15.2399 21.78 15.4199 21.64 15.4999 21.44L15.9599 20.15L15.0899 19.43C14.8999 19.25 14.8499 19 14.9399 18.78C15.0299 18.56 15.2399 18.42 15.4799 18.42H16.5599L16.9299 17.34L16.9599 17.25L15.7099 13.96C15.6999 13.93 15.6899 13.91 15.6799 13.89Z" fill="white"/>
<path d="M12.66 17.6H10.27C9.66001 17.6 9.26001 17.2 9.26001 16.6C9.26001 16.04 9.60001 15.66 10.14 15.6H13.37L12.66 17.6Z" fill="white"/>
</svg>
