<?xml version="1.0" encoding="UTF-8"?>
<svg width="24px" height="24px" viewBox="0 0 24 24" version="1.1" xmlns="http://www.w3.org/2000/svg" xmlns:xlink="http://www.w3.org/1999/xlink">
    <title>Icons/Full Set/File/Sets/Linux</title>
    <g id="Icons/Full-Set/File/Sets/Linux" stroke="none" stroke-width="1" fill="none" fill-rule="evenodd">
        <path d="M14.9008,19.4648 L14.9808,19.4758 C15.0598,19.4968 15.1388,19.5528 15.2198,19.6418 L15.4538,19.9218 C15.6048,20.1118 15.7488,20.3108 15.8838,20.5118 L16.1328,20.8948 C16.3778,21.2808 16.6148,21.6738 16.9098,22.0278 L16.9858,22.1328 C17.0748,22.2788 17.1128,22.4458 17.0948,22.6438 L17.1038,22.7378 C17.0998,22.8908 17.0078,23.0118 16.8608,23.1098 L16.7788,23.1738 L16.7048,23.2448 L16.6108,23.3288 C16.4188,23.4748 16.1968,23.4988 15.9558,23.4408 L15.7358,23.3778 L15.5208,23.3028 L15.1178,23.1558 C14.7118,23.0228 14.2968,22.9238 13.8788,22.8388 L13.6858,22.7958 C13.5578,22.7638 13.4318,22.7268 13.3088,22.6838 L13.2188,22.6458 C13.0268,22.5498 12.9678,22.4028 13.0158,22.1678 L13.0548,21.9338 C13.0938,21.6218 13.0868,21.3108 13.0368,20.9958 L13.0248,20.9008 C13.0058,20.6638 13.0968,20.5718 13.3668,20.5008 L13.5388,20.4548 L13.7138,20.4168 L13.8368,20.3838 C13.9918,20.3278 14.1148,20.2298 14.2148,20.0908 L14.3258,19.9378 C14.3998,19.8358 14.4768,19.7358 14.5638,19.6468 C14.6818,19.5268 14.7928,19.4648 14.9008,19.4648 Z M20.1628,19.8708 L20.2048,19.8728 C20.2538,19.8768 20.3208,19.8858 20.4148,19.8888 L20.4958,19.8938 C20.6638,19.9068 20.6858,19.9578 20.6618,20.1628 L20.6638,20.2578 C20.7008,20.5008 20.9778,20.6768 21.2698,20.7038 L21.4018,20.7058 C21.6948,20.6868 21.8988,20.5008 22.0868,20.2828 L22.1458,20.1988 L22.2008,20.1108 L22.2478,20.0608 C22.3508,19.9778 22.4988,20.0038 22.5558,20.1368 L22.5878,20.2358 C22.6048,20.3048 22.6118,20.3778 22.6048,20.4438 L22.5988,20.5578 C22.6068,20.7368 22.6958,20.8808 22.8258,21.0018 L22.9328,21.0818 C23.0768,21.1678 23.2278,21.1828 23.3838,21.2948 L23.4598,21.3588 C23.6128,21.5108 23.6108,21.7058 23.4208,21.8598 L23.3008,21.9468 C23.2198,22.0038 23.1348,22.0548 23.0488,22.1028 L22.7238,22.2928 C22.2938,22.5508 21.8798,22.8338 21.5138,23.1838 L21.3988,23.2788 C21.2008,23.4188 20.9718,23.4668 20.7238,23.4648 L20.5948,23.4578 L20.4658,23.4478 L20.3538,23.4268 C20.1068,23.3608 19.9588,23.1888 19.8978,22.9188 L19.8698,22.7288 C19.8538,22.5388 19.8738,22.3508 19.9148,22.1638 L19.9888,21.7568 C20.0678,21.2118 20.0728,20.6608 20.0788,20.1108 C20.0828,19.9118 20.0748,19.8708 20.1628,19.8708 Z M19.7598,20.9568 L19.6808,21.4338 C19.6438,21.7288 19.6078,22.0158 19.5708,22.2998 C19.5468,22.4938 19.5618,22.7228 19.6138,22.9398 C19.0708,22.8048 18.5778,22.8258 18.0568,22.8488 C17.8608,22.8558 17.6598,22.8638 17.4508,22.8628 C17.5848,22.4668 17.5408,22.1018 17.3198,21.7668 C18.2598,21.8818 19.0288,21.6438 19.7598,20.9568 Z M18.2548,10.9998 C18.7868,10.9998 19.2658,11.2048 19.6818,11.6148 C19.9838,11.9108 20.1228,12.3058 20.1968,12.7118 C20.2418,12.9428 20.2558,13.1838 20.2498,13.4158 C20.2368,14.0688 20.4028,14.6788 20.7178,15.2378 C20.9418,15.6318 21.2108,15.9948 21.4728,16.3618 C21.8908,16.9448 22.2308,17.5688 22.4378,18.2588 C22.5338,18.5858 22.6158,18.9168 22.5488,19.2628 C22.5288,19.3778 22.5288,19.6028 22.2548,19.6758 C21.9618,19.7718 21.8018,20.0838 21.6288,20.1908 C21.4488,20.2988 21.2428,20.3288 21.0858,20.1908 C20.7678,19.7398 21.2638,19.3498 21.2648,19.3448 C21.5938,19.0978 21.8448,18.5208 21.3228,17.5638 C21.1468,17.2788 20.9068,17.0638 20.6128,16.9158 C20.7388,17.0278 20.8138,17.1938 20.8988,17.3368 C21.2578,17.9698 21.1328,18.0278 21.0858,18.4588 C21.0638,18.6408 20.9748,18.8138 20.8188,18.9678 C20.0808,19.4568 20.0338,18.3918 19.9958,18.1788 C19.7358,16.7228 19.0418,16.2298 19.2768,15.0718 C19.4028,14.7098 19.4698,14.4828 19.4788,14.3898 C19.4938,14.2348 19.4028,14.1208 19.2768,14.0418 C19.3088,13.9258 19.3508,13.8158 19.3728,13.6998 C19.4268,13.3818 19.3128,13.1068 19.1088,12.8758 C18.8928,12.6268 18.4568,12.6878 18.2698,12.9818 C18.1768,13.1258 18.1108,13.2768 18.1328,13.4558 C18.1378,13.4948 18.1328,13.5358 18.1328,13.5768 L17.6448,13.5768 C17.6368,13.4928 17.6338,13.4078 17.6248,13.3258 C17.5988,13.1478 17.5048,13.0078 17.3748,12.8978 C17.1818,12.7328 16.9218,12.8098 16.8318,13.0568 C16.7218,13.3538 16.7498,13.6568 16.8648,13.9448 C16.8958,14.0228 16.8998,14.0628 16.8318,14.1208 C16.5558,14.3548 16.5538,14.6178 16.7788,14.9128 C17.0218,15.2378 18.2928,16.5348 17.2438,17.1408 C16.5548,17.4948 16.2488,17.9658 16.3248,18.5508 C16.3438,18.8568 16.4698,19.0938 16.7008,19.2628 C16.9308,19.4318 17.3888,19.5688 18.0728,19.6758 C18.8988,20.0658 17.0768,21.5278 17.0798,21.5868 C16.6818,21.0618 16.5298,20.8068 16.0908,20.1908 C15.8588,19.8618 15.1728,19.0968 15.1888,19.1898 C14.9718,19.0478 14.7318,19.1508 14.4918,19.3118 C14.4158,19.0808 14.4548,18.9868 14.5338,18.7758 C14.8488,17.9338 15.1928,17.1058 15.7288,16.3738 C15.8558,16.1968 16.0078,16.0488 16.1268,15.8588 C16.3158,15.5578 16.3738,15.1038 16.3798,14.4788 C16.3848,13.8538 16.3848,13.2378 16.3798,12.6328 C16.3768,12.3048 16.5258,12.0038 16.7008,11.7148 C16.9208,11.3598 17.2658,11.1838 17.6518,11.0808 C17.8598,11.0268 18.0608,10.9998 18.2548,10.9998 Z M18.8,5.1 C19.5529412,5.1 20.1287198,5.7200692 20.1938531,6.37661307 L20.2,6.5 L20.1992447,10.4758141 C19.5323612,10.1300267 18.8990597,9.97270933 18.2993405,10.003862 L18.3,7.1 L10.3329864,7.1 L10.3329864,9.65908989 C10.3329864,10.3153399 9.89353331,10.7958086 9.26181944,10.8533038 L9.13298643,10.8590899 L8.00000005,10.8590899 L8.00000005,19.4483623 L12.6203031,19.4473309 C12.4228237,19.5946066 12.2468368,19.7899447 12.1442119,20.144703 C12.0008744,20.6401984 11.8577179,21.0724926 11.7178769,21.4498684 L7.40000005,21.4483623 C6.64705887,21.4483623 6.07128033,20.9168744 6.00614701,20.1873812 L6.00000005,20.0483623 L6.00000005,10.3 C6.00000005,10.14 6.06400005,9.916 6.14080005,9.7304 L6.20000005,9.6 L8.40000005,5.8 C8.58181823,5.43636364 9.0115703,5.1553719 9.46386181,5.10728775 L9.60000005,5.1 L18.8,5.1 Z M16,2 C16.6,2 17,2.4 17,3 C17,3.55714286 16.6551021,3.94183673 16.1254374,3.99395044 L16,4 L6.43357852,4 L6.43357852,6.4 C6.43357852,7.05333333 5.99802297,7.53244444 5.45212667,7.59342222 L5.33357852,7.6 L4.10000005,7.6 L4.10000005,17.5 C4.10000005,18.1 3.70000005,18.5 3.10000005,18.5 C2.54285719,18.5 2.15816331,18.155102 2.10604961,17.6254373 L2.10000005,17.5 L2.10000005,6.7 L2.20000005,6.4 L4.40000005,2.6 C4.66666672,2.24444444 5.01234573,2.04691358 5.36680389,2.00740741 L5.50000005,2 L16,2 Z M14.7746679,15.6101117 C14.4287155,16.2297975 14.0239214,16.8793412 13.7956273,17.6100108 L10.1623734,17.6105225 C9.63911756,17.6105225 9.29028035,17.2105225 9.29028035,16.6105225 C9.29028035,16.0533797 9.59106346,15.6686858 10.0529804,15.6165721 L10.1623734,15.6105225 L14.7746679,15.6101117 Z M18.7528,13.2148 L18.8208,13.2228 C18.8648,13.2338 18.9068,13.2568 18.9438,13.2968 L19.0078,13.3838 C19.0628,13.4758 19.0858,13.5778 19.0768,13.6918 L19.0578,13.7788 C19.0198,13.8858 18.9318,13.9508 18.7978,13.9968 L18.8428,14.0218 C18.8718,14.0538 18.7938,14.0828 18.8728,14.1158 L18.9208,14.1418 C19.0838,14.2608 19.1128,14.6328 18.6848,14.9088 L18.5438,15.0138 C18.4508,15.0898 18.3608,15.1738 18.2668,15.2378 L18.1698,15.3078 C18.0008,15.4318 17.9728,15.4578 17.7048,15.4098 L17.6678,15.3878 C17.5588,15.2958 17.3038,14.9458 17.1508,14.7918 L17.0858,14.7208 C16.9308,14.5408 16.9348,14.4358 17.1438,14.2558 L17.1768,14.2158 C17.2108,14.1608 17.1988,14.0978 17.1438,14.0228 L17.0698,13.9388 C16.9918,13.8288 16.9888,13.7228 16.9938,13.5768 L17.0038,13.5018 C17.0238,13.4088 17.0768,13.3468 17.1508,13.3318 L17.2088,13.3328 C17.2858,13.3468 17.3618,13.4118 17.3858,13.5088 L17.4038,13.6028 C17.4118,13.6598 17.4138,13.7138 17.4218,13.7968 L17.5518,13.7528 C17.8528,13.6628 18.1478,13.6708 18.4318,13.8508 L18.4288,13.6888 L18.4328,13.5278 L18.4438,13.4558 C18.4628,13.3618 18.5048,13.2778 18.6098,13.2408 C18.6568,13.2238 18.7058,13.2148 18.7528,13.2148 Z M15.4783026,12.3104958 C15.3831861,12.7706301 15.4007864,13.2592215 15.4007864,13.8115005 C15.4007864,13.9789979 15.3788724,14.1449315 15.3398993,14.3103589 L10.1623734,14.3105225 C9.63911756,14.3105225 9.29028035,13.9105225 9.29028035,13.3105225 C9.29028035,12.7533797 9.59106346,12.3686858 10.0529804,12.3165721 L10.1623734,12.3105225 L15.4783026,12.3104958 Z M15.8468841,8.91052253 C16.4129219,8.91052253 16.7902804,9.31052253 16.7902804,9.91052253 C16.7902804,10.4676654 16.4649049,10.8523593 15.9652212,10.904473 L15.8468841,10.9105225 L12.7336766,10.9105225 C12.1676388,10.9105225 11.7902804,10.5105225 11.7902804,9.91052253 C11.7902804,9.35337967 12.1156558,8.96868579 12.6153395,8.91657209 L12.7336766,8.91052253 L15.8468841,8.91052253 Z" id="Combined-Shape" fill="#273637"></path>
    </g>
</svg>
