<?xml version="1.0" encoding="UTF-8"?>
<svg width="24px" height="24px" viewBox="0 0 24 24" version="1.1" xmlns="http://www.w3.org/2000/svg" xmlns:xlink="http://www.w3.org/1999/xlink">
    <title>Icons/Full Set/File/Symlink Files</title>
    <g id="Icons/Full-Set/File/Symlink-Files" stroke="none" stroke-width="1" fill="none" fill-rule="evenodd">
        <path d="M19.5,1.9998 C20.3,1.9998 21,2.6998 21,3.4998 L21,3.4998 L21,20.4998 C21,21.2998 20.3,21.9998 19.5,21.9998 L19.5,21.9998 L4.5,21.9998 C3.7,21.9998 3,21.2998 3,20.4998 L3,20.4998 L3,8.0998 C3,7.8998 3.1,7.5998 3.2,7.3998 L3.2,7.3998 L5.8,2.7998 C6.1,2.2998 6.6,1.9998 7.1,1.9998 L7.1,1.9998 Z M19,3.9998 L8.7,3.9998 L8.7,7.7998 C8.7,8.3998 8.2,8.9998 7.5,8.9998 L7.5,8.9998 L5,8.9998 L5,19.9998 L19,19.9998 L19,3.9998 Z M14.1318,10.4172 C14.3688,10.4172 14.5588,10.6082 14.5588,10.8452 L14.5588,10.8452 L14.5588,14.7672 C14.5588,15.0512 14.2128,15.1942 14.0148,14.9922 L14.0148,14.9922 L12.9658,13.9422 C12.6698,14.1322 10.7958,15.4322 11.4568,17.1792 C11.5078,17.3582 11.3008,17.4822 11.1458,17.3812 C9.7468,16.4282 9.6888,13.1922 11.0448,12.0202 L11.0448,12.0202 L9.9868,10.9622 C9.7848,10.7642 9.9288,10.4172 10.2128,10.4172 L10.2128,10.4172 Z" id="Combined-Shape" fill="#273637"></path>
    </g>
</svg>