<?xml version="1.0" encoding="UTF-8"?>
<svg width="24px" height="24px" viewBox="0 0 24 24" version="1.1" xmlns="http://www.w3.org/2000/svg" xmlns:xlink="http://www.w3.org/1999/xlink">
    <g stroke="none" stroke-width="1" fill="none" fill-rule="evenodd">
      <path d="M12 3c5 0 9 4 9 9s-4 9-9 9-9-4-9-9 4-9 9-9zm0 2c-3.9 0-7 3.1-7 7s3.1 7 7 7 7-3.1 7-7-3.1-7-7-7zm.1 1.9c.6 0 1 .4 1 1v3.8l1.8 1.9c.4.4.4 1 0 1.4-.2.2-.5.3-.7.3-.2 0-.5-.1-.7-.3l-2.1-2.2c-.2-.2-.3-.4-.3-.7V7.9c0-.6.4-1 1-1z" fill="#273637" />
    </g>
</svg>
