<svg width="24" height="24" viewBox="0 0 24 24" fill="none" xmlns="http://www.w3.org/2000/svg">
<path d="M14.3783 9.5139C15.9104 9.5139 19.1159 9.69284 19.8499 11.1554C20.3991 12.2497 19.3048 16.6269 18.7556 17.7212C18.717 17.7982 18.6895 17.8919 18.6592 17.9953C18.4985 18.544 18.2587 19.3627 15.8557 19.3627C15.8557 19.3627 13.284 19.4946 12.0822 19.1439C11.8502 19.0762 11.6223 19.0053 11.396 18.935C10.5471 18.6711 9.72213 18.4147 8.79997 18.3612C8.58078 18.3481 8.35962 18.0232 8.35962 17.8V11C8.35962 10.4217 8.58182 10.2401 8.7484 10.1039C8.76635 10.0893 8.78366 10.0751 8.79997 10.0611C9.7458 9.25151 12.2721 7.07825 13.0104 4.86308C13.8312 2.40088 17.2783 5.62908 14.1048 9.24032C13.9588 9.4064 14.1635 9.54453 14.3783 9.5139Z" fill="#273637"/>
<path d="M4.6 10.7177C4.26863 10.7177 4 10.9863 4 11.3177V17.7778C4 18.1092 4.26863 18.3778 4.6 18.3778H6.4774C6.80877 18.3778 7.0774 18.1092 7.0774 17.7778V11.3177C7.0774 10.9863 6.80877 10.7177 6.4774 10.7177H4.6Z" fill="#273637"/>
</svg>
