<svg width="24" height="24" viewBox="0 0 24 24" fill="none" xmlns="http://www.w3.org/2000/svg">
<path d="M14.3783 13.8731C15.9104 13.8731 19.1159 13.6942 19.8499 12.2316C20.3991 11.1373 19.3048 6.76007 18.7556 5.66575C18.717 5.58884 18.6895 5.49506 18.6592 5.39169C18.4985 4.84304 18.2587 4.02428 15.8557 4.02428C15.8557 4.02428 13.284 3.89244 12.0822 4.24315C11.8502 4.31083 11.6223 4.38169 11.396 4.45202C10.5471 4.7159 9.72213 4.97233 8.79997 5.0258C8.58078 5.03885 8.35962 5.36382 8.35962 5.587V12.387C8.35962 12.9653 8.58182 13.1469 8.7484 13.2831C8.76635 13.2977 8.78366 13.3119 8.79997 13.3259C9.7458 14.1355 12.2721 16.3087 13.0104 18.5239C13.8312 20.9861 17.2783 17.7579 14.1048 14.1467C13.9588 13.9806 14.1635 13.8425 14.3783 13.8731Z" fill="#273637"/>
<path d="M4.6 12.6693C4.26863 12.6693 4 12.4007 4 12.0693V5.60916C4 5.27779 4.26863 5.00916 4.6 5.00916H6.4774C6.80877 5.00916 7.0774 5.27779 7.0774 5.60916V12.0693C7.0774 12.4007 6.80877 12.6693 6.4774 12.6693H4.6Z" fill="#273637"/>
</svg>
