<svg width="24" height="24" viewBox="0 0 24 24" fill="none" xmlns="http://www.w3.org/2000/svg">
<path fill-rule="evenodd" clip-rule="evenodd" d="M15.5047 5.31652C16.0429 6.32366 16.0964 7.73767 15.2107 9.20515C15.7374 9.2459 16.2988 9.32984 16.8359 9.45883C17.4064 9.59583 17.9872 9.79236 18.4912 10.0669C18.9891 10.338 19.4725 10.7185 19.753 11.2492C19.874 11.4781 19.931 11.7353 19.9615 11.9616C19.9934 12.1985 20.0032 12.4581 19.9991 12.7228C19.9909 13.2524 19.9258 13.8575 19.8324 14.4464C19.7386 15.0375 19.6135 15.6301 19.4791 16.1386C19.3495 16.6288 19.1967 17.098 19.0329 17.4078C19.0208 17.4308 19.0018 17.4755 18.967 17.5746L18.9437 17.6419C18.9161 17.7218 18.8807 17.8245 18.8424 17.9233C18.7357 18.1989 18.5704 18.5485 18.2608 18.8801C17.6172 19.5696 16.5542 19.9765 14.8189 19.9808C14.8011 19.9818 14.7762 19.9832 14.7448 19.9848C14.6809 19.9879 14.59 19.9917 14.4775 19.9947C14.2531 20.0008 13.94 20.0038 13.5827 19.9917C12.8984 19.9685 11.9708 19.8881 11.1949 19.6247L11.1517 19.6125C11.1069 19.5997 11.0449 19.5813 10.9727 19.5579C10.8329 19.5127 10.6342 19.4426 10.4426 19.3516L10.4385 19.3498L10.4265 19.3448C10.4159 19.3405 10.4016 19.335 10.3834 19.3284C10.3467 19.3152 10.2986 19.2993 10.2392 19.2816C10.1204 19.2462 9.96709 19.2068 9.78667 19.1684C9.42498 19.0914 8.97401 19.0229 8.49734 18.9967L8.49602 18.9966C8.45102 18.9941 8.40661 18.9892 8.36292 18.982H5.80019C4.80597 18.982 4 18.2198 4 17.2795V12.0585C4 11.1182 4.80597 10.356 5.80019 10.356H7.83783C7.86325 10.3316 7.88987 10.3079 7.91772 10.2852L7.91984 10.2834C8.73184 9.62367 11.1082 7.5271 12.129 5.03198C12.2709 4.68567 12.5091 4.37325 12.8675 4.18082C13.2316 3.9853 13.6293 3.96262 13.9827 4.04496C14.6519 4.2009 15.187 4.7221 15.5047 5.31652ZM11.1961 17.9314C10.9591 17.8189 10.5741 17.7072 10.1555 17.6181C9.61249 17.5026 9.05826 17.4431 8.5 17.4135V11.7375C8.75392 11.6499 8.98236 11.5342 9.13379 11.391C10.0792 10.6074 12.5445 8.38687 13.6812 5.64142C13.7666 5.70136 13.8907 5.8191 14.0051 6.0333C14.3252 6.63227 14.4488 7.84818 13.0769 9.28679C13.0082 9.35758 12.9175 9.46562 12.855 9.60888C12.7928 9.75154 12.7164 10.0371 12.882 10.3407C13.0485 10.646 13.341 10.7525 13.5031 10.7866C13.6681 10.8213 13.8175 10.8111 13.9181 10.7975L13.9191 10.7973C14.4527 10.7245 15.4603 10.7679 16.4223 10.999C16.8962 11.1128 17.3216 11.2635 17.6527 11.4439C17.99 11.6275 18.1708 11.8098 18.2504 11.9602C18.2527 11.966 18.2761 12.0233 18.2948 12.1624C18.3136 12.3015 18.3225 12.4817 18.3191 12.6994C18.3123 13.1346 18.2574 13.6645 18.1708 14.2106C18.0845 14.7545 17.9697 15.2969 17.8491 15.7532C17.7236 16.2277 17.6064 16.553 17.5301 16.6972C17.4595 16.8308 17.4088 16.9703 17.3726 17.0735C17.3601 17.109 17.3488 17.1416 17.3383 17.1723C17.3133 17.2446 17.2918 17.3069 17.2647 17.377C17.1937 17.5602 17.1166 17.7049 17.0013 17.8285C16.7985 18.0457 16.2898 18.3918 14.7912 18.3918H14.7615L14.7318 18.3938L14.7297 18.394L14.7164 18.3948L14.6956 18.3959L14.6581 18.3979C14.6059 18.4004 14.528 18.4037 14.4297 18.4063C14.2326 18.4116 13.9564 18.4143 13.6428 18.4037C12.9942 18.3817 12.2687 18.3051 11.744 18.1228L11.7113 18.1114L11.6778 18.1027L11.6717 18.101L11.6392 18.0919C11.6098 18.0834 11.5668 18.0707 11.5162 18.0543C11.4103 18.0201 11.2915 17.9767 11.1961 17.9314ZM9.13379 11.391C9.1097 11.411 9.0866 11.43 9.06454 11.4481L9.13379 11.391ZM7.5 11.9352C7.44274 11.9387 7.38793 11.9404 7.33635 11.9404L5.80019 11.945C5.73391 11.945 5.68018 11.9958 5.68018 12.0585V17.2795C5.68018 17.3422 5.73391 17.393 5.80019 17.393C6.06232 17.3938 6.32615 17.3918 6.59091 17.3897C6.89311 17.3874 7.19652 17.3851 7.5 17.3869V11.9352Z" fill="#273637"/>
</svg>
