<svg width="24" height="24" viewBox="0 0 24 24" fill="none" xmlns="http://www.w3.org/2000/svg">
<path fill-rule="evenodd" clip-rule="evenodd" d="M15.5047 18.6835C16.0429 17.6763 16.0964 16.2623 15.2107 14.7948C15.7374 14.7541 16.2988 14.6702 16.8359 14.5412C17.4064 14.4042 17.9872 14.2076 18.4912 13.9331C18.9891 13.662 19.4725 13.2815 19.753 12.7508C19.874 12.5219 19.931 12.2647 19.9615 12.0384C19.9934 11.8015 20.0032 11.5419 19.9991 11.2772C19.9909 10.7476 19.9258 10.1425 19.8324 9.55365C19.7386 8.96247 19.6135 8.36992 19.4791 7.86142C19.3495 7.37119 19.1967 6.90198 19.0329 6.59216C19.0208 6.56916 19.0018 6.52454 18.967 6.42542L18.9437 6.35812C18.9161 6.2782 18.8807 6.17551 18.8424 6.0767C18.7357 5.80114 18.5704 5.45146 18.2608 5.11988C17.6172 4.43044 16.5542 4.02346 14.8189 4.01919C14.8011 4.01815 14.7762 4.01678 14.7448 4.01525C14.6809 4.01212 14.59 4.00832 14.4775 4.00529C14.2531 3.99924 13.94 3.99622 13.5827 4.00831C12.8984 4.03146 11.9708 4.1119 11.1949 4.37527L11.1517 4.38746C11.1069 4.4003 11.0449 4.41874 10.9727 4.44211C10.8329 4.48731 10.6342 4.55741 10.4426 4.64835L10.4385 4.65019L10.4265 4.65523C10.4159 4.65952 10.4016 4.66501 10.3834 4.67159C10.3467 4.68483 10.2986 4.70069 10.2392 4.71837C10.1204 4.75377 9.96709 4.79323 9.78667 4.83163C9.42498 4.9086 8.97401 4.97709 8.49734 5.00333L8.49602 5.0034C8.45102 5.00595 8.40661 5.01084 8.36292 5.01796H5.80019C4.80597 5.01796 4 5.7802 4 6.72048V11.9415C4 12.8818 4.80597 13.644 5.80019 13.644H7.83783C7.86325 13.6684 7.88987 13.6921 7.91772 13.7148L7.91984 13.7166C8.73184 14.3763 11.1082 16.4729 12.129 18.968C12.2709 19.3143 12.5091 19.6268 12.8675 19.8192C13.2316 20.0147 13.6293 20.0374 13.9827 19.955C14.6519 19.7991 15.187 19.2779 15.5047 18.6835ZM11.1961 6.06858C10.9591 6.18107 10.5741 6.29279 10.1555 6.38188C9.61249 6.49744 9.05826 6.55688 8.5 6.58647V12.2625C8.75392 12.3501 8.98236 12.4658 9.13379 12.609C10.0792 13.3926 12.5445 15.6131 13.6812 18.3586C13.7666 18.2986 13.8907 18.1809 14.0051 17.9667C14.3252 17.3677 14.4488 16.1518 13.0769 14.7132C13.0082 14.6424 12.9175 14.5344 12.855 14.3911C12.7928 14.2485 12.7164 13.9629 12.882 13.6593C13.0485 13.354 13.341 13.2475 13.5031 13.2134C13.6681 13.1787 13.8175 13.1889 13.9181 13.2025L13.9191 13.2027C14.4527 13.2755 15.4603 13.2321 16.4223 13.001C16.8962 12.8872 17.3216 12.7365 17.6527 12.5561C17.99 12.3725 18.1708 12.1902 18.2504 12.0398C18.2527 12.034 18.2761 11.9767 18.2948 11.8376C18.3136 11.6985 18.3225 11.5183 18.3191 11.3006C18.3123 10.8654 18.2574 10.3355 18.1708 9.78936C18.0845 9.24552 17.9697 8.70306 17.8491 8.24681C17.7236 7.77228 17.6064 7.44698 17.5301 7.30279C17.4595 7.16922 17.4088 7.02973 17.3726 6.92653C17.3601 6.89098 17.3488 6.85838 17.3383 6.82772C17.3133 6.75544 17.2918 6.69305 17.2647 6.62301C17.1937 6.43975 17.1166 6.29512 17.0013 6.17154C16.7985 5.9543 16.2898 5.60817 14.7912 5.60817H14.7615L14.7318 5.60618L14.7297 5.60604L14.7164 5.60524L14.6956 5.60407L14.6581 5.60214C14.6059 5.59959 14.528 5.5963 14.4297 5.59366C14.2326 5.58835 13.9564 5.5857 13.6428 5.59631C12.9942 5.61825 12.2687 5.69491 11.744 5.87723L11.7113 5.88859L11.6778 5.89735L11.6717 5.899L11.6392 5.9081C11.6098 5.91655 11.5668 5.92932 11.5162 5.94568C11.4103 5.97993 11.2915 6.02334 11.1961 6.06858ZM9.13379 12.609C9.1097 12.589 9.0866 12.57 9.06454 12.5519L9.13379 12.609ZM7.5 12.0648C7.44274 12.0613 7.38793 12.0596 7.33635 12.0596L5.80019 12.055C5.73391 12.055 5.68018 12.0042 5.68018 11.9415V6.72048C5.68018 6.65779 5.73391 6.60698 5.80019 6.60698C6.06232 6.6062 6.32615 6.60823 6.59091 6.61028C6.89311 6.61261 7.19652 6.61495 7.5 6.61313V12.0648Z" fill="#273637"/>
</svg>
