<svg xmlns="http://www.w3.org/2000/svg" xmlns:xlink="http://www.w3.org/1999/xlink" viewBox="0 0 1000 1000"><defs><style>.cls-1,.cls-26{filter:url(#AI_DesenfoqueGaussiano_4);}.cls-2{fill:url(#Degradado_sin_nombre_11);}.cls-3{fill:url(#linear-gradient);}.cls-4{mix-blend-mode:screen;}.cls-14,.cls-15,.cls-5,.cls-6{fill-opacity:0.4;}.cls-5{fill:url(#Nueva_muestra_de_degradado_71);}.cls-6{fill:url(#Nueva_muestra_de_degradado_71-2);}.cls-7{fill:url(#linear-gradient-2);}.cls-8{opacity:0.8;}.cls-9{fill:#fafbfc;}.cls-10,.cls-11,.cls-12,.cls-28,.cls-29{fill:none;}.cls-10,.cls-11,.cls-12{stroke:#022e49;}.cls-10{stroke-width:19px;opacity:0.15;}.cls-11{stroke-width:11px;opacity:0.41;}.cls-12{stroke-width:5px;opacity:0.72;}.cls-13{fill:url(#linear-gradient-3);}.cls-14{fill:url(#Nueva_muestra_de_degradado_71-3);}.cls-15{fill:url(#Nueva_muestra_de_degradado_71-4);}.cls-16{fill:url(#linear-gradient-4);}.cls-17{isolation:isolate;}.cls-18{opacity:0.5;}.cls-19{opacity:0.64;fill:url(#Degradado_sin_nombre_30);}.cls-20{fill:url(#Degradado_sin_nombre_30-2);}.Estilo-gráfico-82{fill:url(#Nueva_muestra_de_degradado_57);}.cls-21{fill-opacity:0.72;fill:url(#Degradado_sin_nombre_132);}.cls-22{fill:url(#Nueva_muestra_de_degradado_57-2);}.cls-23{opacity:0.25;}.cls-24{fill:#61eebb;}.cls-25{mix-blend-mode:overlay;opacity:0.34;fill:url(#Degradado_sin_nombre_9);}.cls-26{opacity:0.24;}.cls-27{fill:#fff;fill-opacity:0.95;}.cls-28,.cls-29{stroke:#00b287;stroke-linecap:round;stroke-width:12.91px;}.cls-28{stroke-dasharray:25.82 51.64;}.cls-29{stroke-linejoin:round;}</style><filter id="AI_DesenfoqueGaussiano_4" name="AI_DesenfoqueGaussiano_4"><feGaussianBlur stdDeviation="4"/></filter><radialGradient id="Degradado_sin_nombre_11" cx="-6762.35" cy="4392.3" r="164.68" gradientTransform="matrix(0.71, 0.41, -1.06, 0.2, 9562.73, 2007.21)" gradientUnits="userSpaceOnUse"><stop offset="0" stop-color="#00b287"/><stop offset="0.14" stop-color="#01b289" stop-opacity="0.98"/><stop offset="0.29" stop-color="#03b08f" stop-opacity="0.9"/><stop offset="0.45" stop-color="#06ae99" stop-opacity="0.78"/><stop offset="0.6" stop-color="#0baba8" stop-opacity="0.62"/><stop offset="0.76" stop-color="#11a8ba" stop-opacity="0.4"/><stop offset="0.92" stop-color="#19a3d0" stop-opacity="0.14"/><stop offset="1" stop-color="#1da1dc" stop-opacity="0"/></radialGradient><linearGradient id="linear-gradient" x1="15.44" y1="108.83" x2="219.25" y2="108.83" gradientUnits="userSpaceOnUse"><stop offset="0" stop-color="#a9e5f5"/><stop offset="0.45" stop-color="#9de6fc"/><stop offset="0.58" stop-color="#64c7ef"/><stop offset="1" stop-color="#1da1dc"/></linearGradient><linearGradient id="Nueva_muestra_de_degradado_71" x1="134.85" y1="130.5" x2="144.5" y2="130.5" gradientTransform="translate(181.68 -55.98) rotate(59.64)" gradientUnits="userSpaceOnUse"><stop offset="0.01" stop-color="#00a37c"/><stop offset="0.35" stop-color="#089f94"/><stop offset="1" stop-color="#1b96cd"/></linearGradient><linearGradient id="Nueva_muestra_de_degradado_71-2" x1="152.02" y1="101.15" x2="219.36" y2="101.15" gradientTransform="matrix(1, 0, 0, 1, 0, 0)" xlink:href="#Nueva_muestra_de_degradado_71"/><linearGradient id="linear-gradient-2" x1="15.44" y1="58.84" x2="219.25" y2="58.84" gradientUnits="userSpaceOnUse"><stop offset="0" stop-color="#a6e7f9"/><stop offset="1" stop-color="#6ed2f1"/></linearGradient><linearGradient id="linear-gradient-3" x1="9.5" y1="109.15" x2="213.9" y2="109.15" xlink:href="#linear-gradient"/><linearGradient id="Nueva_muestra_de_degradado_71-3" x1="129.25" y1="130.88" x2="138.93" y2="130.88" gradientTransform="translate(179.25 -50.98) rotate(59.64)" xlink:href="#Nueva_muestra_de_degradado_71"/><linearGradient id="Nueva_muestra_de_degradado_71-4" x1="146.48" y1="101.44" x2="214.01" y2="101.44" gradientTransform="matrix(1, 0, 0, 1, 0, 0)" xlink:href="#Nueva_muestra_de_degradado_71"/><linearGradient id="linear-gradient-4" x1="9.5" y1="59.01" x2="213.9" y2="59.01" xlink:href="#linear-gradient-2"/><linearGradient id="Degradado_sin_nombre_30" x1="-1549.19" y1="620.02" x2="-1430.37" y2="688.84" gradientTransform="translate(1984.6)" gradientUnits="userSpaceOnUse"><stop offset="0" stop-color="#0f0b26" stop-opacity="0.05"/><stop offset="0.3" stop-color="#0f0b26" stop-opacity="0.3"/><stop offset="0.32" stop-color="#0f0b26" stop-opacity="0.3"/><stop offset="0.74" stop-color="#0f0b26" stop-opacity="0.3"/><stop offset="1" stop-color="#0f0b26" stop-opacity="0.05"/></linearGradient><linearGradient id="Degradado_sin_nombre_30-2" x1="-1543.91" y1="623.19" x2="-1439.38" y2="683.73" xlink:href="#Degradado_sin_nombre_30"/><linearGradient id="Nueva_muestra_de_degradado_57" x1="-1102.47" y1="306.22" x2="-1767.93" y2="720.47" gradientTransform="matrix(-1, 0, 0, 1, -876.91, 0)" gradientUnits="userSpaceOnUse"><stop offset="0.01" stop-color="#00b287"/><stop offset="0.33" stop-color="#08ad9f"/><stop offset="1" stop-color="#1da1dc"/></linearGradient><linearGradient id="Degradado_sin_nombre_132" x1="-1331.65" y1="364.66" x2="-1494.51" y2="595.73" gradientTransform="matrix(-1, 0, 0, 1, -876.91, 0)" gradientUnits="userSpaceOnUse"><stop offset="0" stop-color="#010d1a" stop-opacity="0.1"/><stop offset="0.13" stop-color="#010d1a" stop-opacity="0"/><stop offset="0.16" stop-color="#010d1a" stop-opacity="0.3"/><stop offset="0.49" stop-color="#010d1a" stop-opacity="0.2"/><stop offset="0.51" stop-color="#010d1a" stop-opacity="0.34"/><stop offset="0.58" stop-color="#010d1a" stop-opacity="0.5"/><stop offset="0.84" stop-color="#010d1a" stop-opacity="0.4"/><stop offset="0.98" stop-color="#010d1a" stop-opacity="0.6"/></linearGradient><linearGradient id="Nueva_muestra_de_degradado_57-2" x1="-1443.87" y1="458" x2="-1167.19" y2="563.93" xlink:href="#Nueva_muestra_de_degradado_57"/><radialGradient id="Degradado_sin_nombre_9" cx="611.93" cy="544.7" r="133.19" gradientTransform="matrix(-0.36, -0.63, -0.36, 0.62, 899.29, 560.63)" gradientUnits="userSpaceOnUse"><stop offset="0.27" stop-color="#ffeb2f" stop-opacity="0.8"/><stop offset="0.38" stop-color="#ffeb31" stop-opacity="0.79"/><stop offset="0.49" stop-color="#ffec35" stop-opacity="0.74"/><stop offset="0.58" stop-color="#ffec3e" stop-opacity="0.67"/><stop offset="0.67" stop-color="#ffee49" stop-opacity="0.58"/><stop offset="0.77" stop-color="#ffef58" stop-opacity="0.45"/><stop offset="0.85" stop-color="#fff16a" stop-opacity="0.29"/><stop offset="0.94" stop-color="#fff37f" stop-opacity="0.11"/><stop offset="0.98" stop-color="#fff48c" stop-opacity="0"/></radialGradient><symbol id="Snapshots_2" data-name="Snapshots 2" viewBox="0 0 223.4 168.79"><path class="cls-10" d="M213.89,100.28c-.13,3.32-2.61,6.79-7.33,9.51l-19.69,11.37-58.7,33.89c-8.87,5.12-22.29,5.68-30,1.24l-61.67-35.6L14.69,108.08c-3.48-2-5.19-4.7-5.19-7.52,0-3.4,2.49-7,7.34-9.78l78.4-45.27c8.87-5.11,22.29-5.67,30-1.23l83.5,48.21C212.31,94.56,214,97.37,213.89,100.28Z"/><path class="cls-11" d="M213.89,100.28c-.13,3.32-2.61,6.79-7.33,9.51l-19.69,11.37-58.7,33.89c-8.87,5.12-22.29,5.68-30,1.24l-61.67-35.6L14.69,108.08c-3.48-2-5.19-4.7-5.19-7.52,0-3.4,2.49-7,7.34-9.78l78.4-45.27c8.87-5.11,22.29-5.67,30-1.23l83.5,48.21C212.31,94.56,214,97.37,213.89,100.28Z"/><path class="cls-12" d="M213.89,100.28c-.13,3.32-2.61,6.79-7.33,9.51l-19.69,11.37-58.7,33.89c-8.87,5.12-22.29,5.68-30,1.24l-61.67-35.6L14.69,108.08c-3.48-2-5.19-4.7-5.19-7.52,0-3.4,2.49-7,7.34-9.78l78.4-45.27c8.87-5.11,22.29-5.67,30-1.23l83.5,48.21C212.31,94.56,214,97.37,213.89,100.28Z"/><path class="cls-13" d="M213.9,59v41c0,3.4-2.48,7-7.34,9.79l-78.39,45.26c-8.87,5.12-22.29,5.68-30,1.24L14.69,108.08c-3.6-2.07-5.3-4.87-5.18-7.8h0v-41c0,2.82,204.26,3,204.39-.28Z"/><g id="Deco" class="cls-4"><ellipse class="cls-14" cx="134.09" cy="130.88" rx="6.82" ry="3.94" transform="translate(-46.61 180.43) rotate(-59.64)"/><path class="cls-15" d="M214,88.43v.29c-.18.6-1.4,2.25-8,6.12l-.7.4L150.9,126.65c-2.44,1.41-4.42-.09-4.42-3.34s2-7,4.42-8.46l54.41-31.41.08,0a25.82,25.82,0,0,0,4.47-2.58c1.83-1.34,3.63-3.1,4.14-5.12V88.43Z"/></g><path class="cls-16" d="M213.89,59c-.13,3.31-2.61,6.78-7.33,9.5L186.87,79.88l-58.7,33.89c-8.87,5.13-22.29,5.69-30,1.25L36.53,79.41,14.69,66.8c-3.48-2-5.19-4.69-5.19-7.51,0-3.41,2.49-7,7.34-9.79L95.24,4.23c8.87-5.11,22.29-5.67,30-1.23l83.5,48.21C212.31,53.29,214,56.09,213.89,59Z"/><g class="cls-8"><path class="cls-9" d="M112.19,3h0a23.63,23.63,0,0,1,11.52,2.59l83.51,48.22c1.73,1,3.77,2.69,3.67,5.08s-2.26,5-5.82,7l-19.7,11.37-58.7,33.89A31.82,31.82,0,0,1,111.21,115a23.56,23.56,0,0,1-11.51-2.59L38,76.82,16.19,64.2c-1.68-1-3.69-2.61-3.69-4.91s2.18-5.08,5.84-7.19L96.74,6.83A31.86,31.86,0,0,1,112.19,3m0-3a34.93,34.93,0,0,0-17,4.23L16.84,49.5C12,52.3,9.5,55.88,9.5,59.29c0,2.82,1.71,5.5,5.19,7.51L36.53,79.41,98.2,115a26.5,26.5,0,0,0,13,3,34.89,34.89,0,0,0,17-4.24l58.7-33.89,19.69-11.37c4.72-2.72,7.2-6.19,7.33-9.5.13-2.92-1.58-5.72-5.18-7.8L125.21,3a26.54,26.54,0,0,0-13-3Z"/></g></symbol><symbol id="Snapshots" data-name="Snapshots" viewBox="0 0 236 177.28"><g class="cls-1"><path class="cls-2" d="M108.83,164.13,23.2,114.69c-5.24-3-4.58-8.37,1.48-11.87l81.91-47.29c6.06-3.5,15.31-3.88,20.56-.85l85.62,49.43c5.25,3,4.58,8.37-1.48,11.87l-81.91,47.29C123.32,166.77,114.07,167.16,108.83,164.13Z"/></g><path class="cls-3" d="M219.25,58.84V99.71c0,3.39-2.48,7-7.31,9.76L133.77,154.6c-8.85,5.11-22.23,5.66-29.89,1.24L20.62,107.77c-3.59-2.07-5.29-4.86-5.16-7.78h0V59.11c0,2.82,203.67,3,203.8-.27Z"/><g id="Deco-2" data-name="Deco" class="cls-4"><ellipse class="cls-5" cx="139.67" cy="130.5" rx="6.8" ry="3.93" transform="translate(-43.53 185.06) rotate(-59.64)"/><path class="cls-6" d="M219.36,88.17v.29c-.18.6-1.4,2.25-8,6.11l-.7.4-54.25,31.31C154,127.69,152,126.19,152,123s2-7,4.41-8.43L210.68,83.2l.08,0a26.29,26.29,0,0,0,4.46-2.57c1.82-1.34,3.62-3.09,4.13-5.11V88.17Z"/></g><path class="cls-7" d="M219.24,58.84c-.13,3.3-2.6,6.76-7.3,9.47L192.3,79.65l-58.53,33.79c-8.85,5.11-22.23,5.67-29.89,1.24L42.39,79.18,20.62,66.61c-3.47-2-5.18-4.68-5.18-7.5,0-3.39,2.48-7,7.32-9.75L100.93,4.22c8.85-5.1,22.23-5.66,29.88-1.23l83.27,48.07C217.67,53.13,219.36,55.93,219.24,58.84Z"/><g class="cls-8"><path class="cls-9" d="M117.84,3h0a23.42,23.42,0,0,1,11.47,2.59l83.27,48.07c1.73,1,3.76,2.68,3.66,5.06s-2.26,5-5.8,7L190.8,77.05l-58.53,33.79a31.62,31.62,0,0,1-15.41,3.83,23.46,23.46,0,0,1-11.48-2.59L43.89,76.59,22.12,64c-1.68-1-3.68-2.6-3.68-4.9s2.18-5,5.82-7.15L102.43,6.82A31.69,31.69,0,0,1,117.84,3m0-3a34.77,34.77,0,0,0-16.91,4.22L22.76,49.36c-4.84,2.79-7.32,6.36-7.32,9.75,0,2.82,1.71,5.5,5.18,7.5L42.39,79.18l61.49,35.5a26.38,26.38,0,0,0,13,3,34.69,34.69,0,0,0,16.91-4.23L192.3,79.65l19.64-11.34c4.7-2.71,7.17-6.17,7.3-9.47.12-2.91-1.57-5.71-5.16-7.78L130.81,3a26.34,26.34,0,0,0-13-3Z"/></g></symbol></defs><g class="cls-17"><g id="ARTWORK"><g id="RemoteFailover"><g id="Server1"><use width="223.4" height="168.79" transform="translate(623.7 364.85) scale(1.27)" xlink:href="#Snapshots_2"/><use width="236" height="177.28" transform="translate(618.12 288.83) scale(1.27)" xlink:href="#Snapshots"/><use width="236" height="177.28" transform="translate(618.12 214.64) scale(1.27)" xlink:href="#Snapshots"/></g><g id="Server2"><use width="223.4" height="168.79" transform="translate(86.31 674.89) scale(1.27)" xlink:href="#Snapshots_2"/><use width="236" height="177.28" transform="translate(80.72 598.88) scale(1.27)" xlink:href="#Snapshots"/><use width="236" height="177.28" transform="translate(80.72 524.68) scale(1.27)" xlink:href="#Snapshots"/></g><g id="Shield"><g id="Shadow_shield" data-name="Shadow shield" class="cls-18"><g class="cls-1"><path class="cls-19" d="M544.39,690.34l-112.07-64.7c-3-1.74-2.64-4.79.85-6.8h0c3.49-2,8.76-2.23,11.78-.49L557,683.06c3,1.74,2.64,4.78-.85,6.8h0C552.68,691.87,547.41,692.09,544.39,690.34Z"/></g><g class="cls-1"><path class="cls-20" d="M536.57,685.05,438,628.13c-2.66-1.53-2.32-4.21.74-6h0c3.07-1.77,7.71-2,10.36-.43l98.59,56.92c2.66,1.53,2.32,4.21-.74,6h0C543.86,686.39,539.22,686.58,536.57,685.05Z"/></g></g><path class="Estilo-gráfico-82" d="M404.53,365.26c1.28-.74,3.05-.63,5,.48a9.46,9.46,0,0,1,.82.53c4,2.82,9.24,6.34,15.28,9.83,16.6,9.59,39.09,18.94,56.81,12.95a5.37,5.37,0,0,1,4.34.77,13.46,13.46,0,0,1,4.33,4.24c17.62,26.39,40.1,43,56.7,52.59a165.24,165.24,0,0,0,15.28,7.8c.28.13.55.27.82.42a15.45,15.45,0,0,1,7,12.13l-.31,110.28c-.06,22.05-9.12,34.72-21.28,41.79l26.86-15.61c12.16-7.07,21.22-19.74,21.28-41.79l.32-110.29a15.43,15.43,0,0,0-7-12.12,8,8,0,0,0-.82-.42A162,162,0,0,1,574.65,431c-16.6-9.58-39.08-26.19-56.7-52.58a13.71,13.71,0,0,0-4.33-4.25,5.43,5.43,0,0,0-4.35-.76c-17.71,6-40.2-3.37-56.81-12.95-6-3.49-11.3-7-15.27-9.83a8.69,8.69,0,0,0-.82-.53c-1.93-1.11-3.69-1.22-5-.48Z"/><path class="cls-21" d="M404.53,365.26c1.28-.74,3.05-.63,5,.48a9.46,9.46,0,0,1,.82.53c4,2.82,9.24,6.34,15.28,9.83,16.6,9.59,39.09,18.94,56.81,12.95a5.37,5.37,0,0,1,4.34.77,13.46,13.46,0,0,1,4.33,4.24c17.62,26.39,40.1,43,56.7,52.59a165.24,165.24,0,0,0,15.28,7.8c.28.13.55.27.82.42a15.45,15.45,0,0,1,7,12.13l-.31,110.28c-.06,22.05-9.12,34.72-21.28,41.79l26.86-15.61c12.16-7.07,21.22-19.74,21.28-41.79l.32-110.29a15.43,15.43,0,0,0-7-12.12,8,8,0,0,0-.82-.42A162,162,0,0,1,574.65,431c-16.6-9.58-39.08-26.19-56.7-52.58a13.71,13.71,0,0,0-4.33-4.25,5.43,5.43,0,0,0-4.35-.76c-17.71,6-40.2-3.37-56.81-12.95-6-3.49-11.3-7-15.27-9.83a8.69,8.69,0,0,0-.82-.53c-1.93-1.11-3.69-1.22-5-.48Z"/><g class="cls-17"><path class="cls-22" d="M486.75,389.82a5.37,5.37,0,0,0-4.34-.77c-17.72,6-40.21-3.36-56.81-12.95-6-3.49-11.31-7-15.28-9.83a9.46,9.46,0,0,0-.82-.53c-3.82-2.2-7-.46-7,4l-.31,110.28C402,536.34,460.58,599.24,480,618.51a30.53,30.53,0,0,0,6.14,4.78,18.27,18.27,0,0,0,6.15,2.31c19.41,3.13,78.15,8,78.31-48.32L570.86,467a15.45,15.45,0,0,0-7-12.13c-.27-.15-.54-.29-.82-.42a165.24,165.24,0,0,1-15.28-7.8c-16.6-9.59-39.08-26.2-56.7-52.59A13.46,13.46,0,0,0,486.75,389.82Z"/><g class="cls-23"><path class="cls-24" d="M406.6,368.82a3.21,3.21,0,0,1,.9.38l.5.33c5.13,3.64,10.37,7,15.6,10,17.67,10.21,33.35,15.38,46.61,15.38a42,42,0,0,0,13.42-2.08,2.61,2.61,0,0,1,1.12.42,9.74,9.74,0,0,1,3,3c18.25,27.34,41.63,44.36,58,53.83a166.84,166.84,0,0,0,15.66,8,3.09,3.09,0,0,1,.44.23,11.52,11.52,0,0,1,5,8.64l-.31,110.29c0,17.32-6,29.92-17.8,37.43-8.91,5.7-21,8.59-35.92,8.59a127.21,127.21,0,0,1-20-1.64,14.21,14.21,0,0,1-4.79-1.82,26.33,26.33,0,0,1-5.32-4.16c-18-17.91-76.76-80.61-76.6-135.6l.31-110.28a3.32,3.32,0,0,1,.12-1m-.22-4c-2.29,0-3.89,1.8-3.9,5l-.31,110.28C402,536.34,460.58,599.24,480,618.51a30.53,30.53,0,0,0,6.14,4.78,18.27,18.27,0,0,0,6.15,2.31,131.56,131.56,0,0,0,20.59,1.69c24.7,0,57.6-7.91,57.72-50L570.86,467a15.45,15.45,0,0,0-7-12.13c-.27-.15-.54-.29-.82-.42a165.24,165.24,0,0,1-15.28-7.8c-16.6-9.59-39.08-26.2-56.7-52.59a13.46,13.46,0,0,0-4.33-4.24,6.39,6.39,0,0,0-3.13-1,3.74,3.74,0,0,0-1.21.19,38,38,0,0,1-12.2,1.89c-15.07,0-31.64-7.35-44.61-14.84-6-3.49-11.31-7-15.28-9.83a9.46,9.46,0,0,0-.82-.53,6.37,6.37,0,0,0-3.12-.95Z"/></g></g><ellipse class="cls-25" cx="485.05" cy="513.69" rx="67.49" ry="116.9" transform="translate(-193.12 315.61) rotate(-30.36)"/><g id="Checkmark"><g id="SYMBOLS" class="cls-26"><path d="M551.41,484.37c2.37,4.08,2.37,8.47,0,9.81l-85.48,48.63-29.46-45.19c-2.76-5.29-1.19-9,1.06-10.5,2.72-1.83,7.68-2.69,11.16,2.58l20.19,31.74,74-42C545.22,478.09,549.05,480.3,551.41,484.37Z"/></g><path id="SYMBOLS-2" data-name="SYMBOLS" class="cls-27" d="M546.69,483.81c2.36,4.07,2.36,8.46,0,9.81l-85.48,48.63-29.47-45.19c-2.75-5.29-1.18-9,1.07-10.51,2.72-1.83,7.68-2.68,11.16,2.58l20.19,31.74,74-42C540.49,477.52,544.32,479.73,546.69,483.81Z"/></g></g><g id="arrow"><path class="cls-28" d="M230.79,596l1.2-11.52c.21-1.91.36-3.84.63-5.75l.82-5.73.82-5.74c.29-1.9.51-3.82.88-5.72l2.06-11.39c.62-3.82,1.55-7.57,2.33-11.35l1.23-5.65.61-2.83.71-2.81,2.83-11.23.72-2.81.79-2.78,1.6-5.56a590.55,590.55,0,0,1,32.59-86.62"/><path class="cls-29" d="M262.29,417.23q5.29-1.25,10.54-2.4c3.5-.78,7-1.53,10.53-2.22,1.61,3.16,3.32,6.33,5,9.47s3.44,6.26,5.17,9.34"/><path class="cls-28" d="M301,378.54A638.38,638.38,0,0,1,351.45,301c9.24-12.38,19.2-24.19,29.34-35.83l7.81-8.55c1.31-1.42,2.58-2.87,3.92-4.26l4-4.16c2.7-2.76,5.36-5.55,8.09-8.28l8.33-8"/><path class="cls-29" d="M396.35,224c7.21,1,14.24,2.08,21.31,3.37.72,7.11,1.68,14.26,2.66,21.23"/><path class="cls-28" d="M446.8,202.48a409.7,409.7,0,0,1,37.81-26.71,333.64,333.64,0,0,1,40.76-21.93c3.51-1.61,7.08-3.07,10.65-4.56s7.19-2.81,10.84-4.07c7.28-2.57,14.67-4.82,22.16-6.7a191.54,191.54,0,0,1,45.83-5.91"/><path class="cls-29" d="M607.72,115.57a177.41,177.41,0,0,1,13.58,17.14,165,165,0,0,0-12.23,17.19"/><path class="cls-28" d="M659,139.12a126.93,126.93,0,0,1,40.69,21.59,137.81,137.81,0,0,1,30.69,34.4,181,181,0,0,1,19.36,41.94,248.77,248.77,0,0,1,9.65,45.24"/><path class="cls-29" d="M775.55,273.44q-3.81,4-7.64,7.82c-2.57,2.54-5.21,5-7.83,7.45-3.08-1.86-6.13-3.66-9.22-5.39s-6.22-3.38-9.31-5"/></g></g></g></g></svg>