<svg xmlns="http://www.w3.org/2000/svg" xmlns:xlink="http://www.w3.org/1999/xlink" viewBox="0 0 2500 2500"><defs><linearGradient id="eab60d53-950a-477d-8e02-4c8e1cc14ffc" x1="-7029.39" y1="6637.75" x2="-6906.39" y2="6959.11" gradientTransform="matrix(0.01, 1, 1.38, -0.02, -8478.29, 8398.69)" gradientUnits="userSpaceOnUse"><stop offset="0" stop-color="#39c2ec" stop-opacity="0.1"/><stop offset="0.03" stop-color="#2ea7d6" stop-opacity="0.1"/><stop offset="0.15" stop-color="#1f82b9" stop-opacity="0.1"/><stop offset="0.87" stop-color="#0071b0" stop-opacity="0.3"/></linearGradient><linearGradient id="a29b6483-9bd4-459e-b059-facf43d378ea" x1="-5051.37" y1="7803.34" x2="-4607.84" y2="7803.34" gradientTransform="translate(-6201.61 -4153.13) rotate(-83.08)" xlink:href="#eab60d53-950a-477d-8e02-4c8e1cc14ffc"/><linearGradient id="f331f4ce-745c-4aa6-8a7f-0793474fc067" x1="1223.82" y1="708.11" x2="1122.45" y2="710.92" gradientTransform="matrix(1, 0, 0, 1, 0, 0)" xlink:href="#eab60d53-950a-477d-8e02-4c8e1cc14ffc"/><linearGradient id="e28b8abf-24cf-4ae1-b5f4-3dd6bbad44c7" x1="1178.74" y1="721.06" x2="836.6" y2="904.1" gradientUnits="userSpaceOnUse"><stop offset="0" stop-color="#39c2ec" stop-opacity="0.1"/><stop offset="0.08" stop-color="#2ea7d6" stop-opacity="0.1"/><stop offset="0.36" stop-color="#1f82b9" stop-opacity="0.1"/><stop offset="0.6" stop-color="#0071b0" stop-opacity="0.3"/></linearGradient><linearGradient id="bf7948b4-b430-4357-9dbb-dce4dcb60c15" x1="-4740.5" y1="4730.54" x2="-4342.4" y2="4730.54" gradientTransform="matrix(0.75, -0.69, 0.75, 0.81, 514.88, -5940.67)" xlink:href="#eab60d53-950a-477d-8e02-4c8e1cc14ffc"/><linearGradient id="fb6d185a-7fee-4769-90ee-1792922db597" x1="-4776.51" y1="2129.42" x2="-4374.99" y2="2129.42" gradientTransform="matrix(0.95, 0.3, -0.35, 1.09, 5936.04, -383.91)" xlink:href="#eab60d53-950a-477d-8e02-4c8e1cc14ffc"/><radialGradient id="beae766b-0a78-48d4-a09c-2a51cbd9a1b6" cx="1238.84" cy="1218.31" r="761" gradientTransform="translate(-821.86 151.36) rotate(-30.36) scale(1 1.61)" gradientUnits="userSpaceOnUse"><stop offset="0.34" stop-color="#141226" stop-opacity="0.6"/><stop offset="0.67" stop-color="#0071b0" stop-opacity="0.1"/><stop offset="0.83" stop-color="#1e89c0" stop-opacity="0.08"/><stop offset="0.97" stop-color="#7ad3f3" stop-opacity="0.02"/><stop offset="1" stop-color="#90e5ff" stop-opacity="0"/></radialGradient><linearGradient id="ac1ddb53-7244-4137-9c71-81443ba56609" x1="-6556.86" y1="-6356.99" x2="-6816.14" y2="-5806.24" gradientTransform="matrix(-1, 0, 0, 1, -5239.74, 7415.42)" gradientUnits="userSpaceOnUse"><stop offset="0" stop-color="#90e5ff"/><stop offset="1" stop-color="#1da1dc"/></linearGradient><linearGradient id="b4a79d78-496e-4213-b5e2-5627190b4ed2" x1="-6100.57" y1="-5255.22" x2="-6891.25" y2="-7058.39" gradientTransform="matrix(-0.86, -0.5, -0.5, 0.86, -7454.59, 3317.23)" gradientUnits="userSpaceOnUse"><stop offset="0.21" stop-color="#141226"/><stop offset="0.53" stop-color="#27244b"/><stop offset="0.98" stop-color="#27244b"/><stop offset="1" stop-color="#27244b"/></linearGradient><filter id="b84b7096-af80-4459-b186-c85e02a86bff" name="AI_DesenfoqueGaussiano_7"><feGaussianBlur stdDeviation="7"/></filter><filter id="a4308bf6-5308-44a1-8509-521c2592cf27" name="AI_DesenfoqueGaussiano_4"><feGaussianBlur stdDeviation="4"/></filter><linearGradient id="b0c98e93-3bca-4e6d-ac2d-0f0569eeadb0" x1="1514.49" y1="1453.11" x2="1480.7" y2="1544.54" gradientUnits="userSpaceOnUse"><stop offset="0" stop-color="#141226" stop-opacity="0.1"/><stop offset="0.01" stop-color="#141226" stop-opacity="0.1"/><stop offset="0.15" stop-color="#141226" stop-opacity="0.1"/><stop offset="0.87" stop-color="#141226" stop-opacity="0.3"/></linearGradient><linearGradient id="aea267ae-768b-42f0-a405-75f94c43a279" x1="1476.21" y1="1660.93" x2="1294.6" y2="1342.41" gradientUnits="userSpaceOnUse"><stop offset="0.01" stop-color="#0088a1"/><stop offset="0.31" stop-color="#018aa2"/><stop offset="0.41" stop-color="#0491a7"/><stop offset="0.49" stop-color="#0b9cb0"/><stop offset="0.55" stop-color="#12abbb"/><stop offset="0.98" stop-color="#12abbb"/><stop offset="1" stop-color="#12abbb"/></linearGradient><linearGradient id="a92a6c6e-051b-464b-bfc4-92aaf530fdec" x1="1420.91" y1="1623.84" x2="1552.27" y2="1813.37" gradientUnits="userSpaceOnUse"><stop offset="0.01" stop-color="#0088a1"/><stop offset="0.3" stop-color="#0694aa"/><stop offset="0.7" stop-color="#12abbb"/><stop offset="0.99" stop-color="#12abbb"/><stop offset="1" stop-color="#12abbb"/></linearGradient><linearGradient id="a52156d2-e597-408f-a596-5b340f398d5d" x1="1618.39" y1="1847.1" x2="1499.69" y2="1707.82" gradientUnits="userSpaceOnUse"><stop offset="0.01" stop-color="#0088a1"/><stop offset="0.3" stop-color="#018aa2"/><stop offset="0.4" stop-color="#0491a7"/><stop offset="0.47" stop-color="#0b9cb0"/><stop offset="0.53" stop-color="#12abbb"/><stop offset="0.66" stop-color="#12abbb"/><stop offset="0.67" stop-color="#12abbb"/><stop offset="1" stop-color="#12abbb"/></linearGradient><linearGradient id="a340af88-a373-4264-b6b0-dd7ec8d1da1f" x1="1635.17" y1="1786.95" x2="1524.18" y2="1646.89" gradientUnits="userSpaceOnUse"><stop offset="0.01" stop-color="#0088a1"/><stop offset="0.23" stop-color="#028ba3"/><stop offset="0.4" stop-color="#0795aa"/><stop offset="0.55" stop-color="#0fa5b7"/><stop offset="0.59" stop-color="#12abbb"/><stop offset="0.98" stop-color="#12abbb"/><stop offset="1" stop-color="#12abbb"/></linearGradient><linearGradient id="af541c24-30e7-4900-af2a-245904b5d03a" x1="1632.55" y1="1752.76" x2="1676.6" y2="1829.85" gradientUnits="userSpaceOnUse"><stop offset="0.01" stop-color="#0088a1"/><stop offset="0.2" stop-color="#0796ac"/><stop offset="0.42" stop-color="#12abbb"/><stop offset="0.98" stop-color="#12abbb"/><stop offset="1" stop-color="#12abbb"/></linearGradient><linearGradient id="eae57860-a107-4132-8dd7-3d6b2feecf12" x1="1658.3" y1="1767.95" x2="1390.83" y2="1365.95" gradientUnits="userSpaceOnUse"><stop offset="0.01" stop-color="#0088a1"/><stop offset="0.09" stop-color="#0490a7"/><stop offset="0.36" stop-color="#0ea4b6"/><stop offset="0.55" stop-color="#12abbb"/><stop offset="0.83" stop-color="#12abbb"/><stop offset="0.84" stop-color="#12abbb"/></linearGradient></defs><g style="isolation:isolate"><g id="bf06674e-60ea-4086-8b08-af2a4bf2c868" data-name="ARTWORK"><g id="bd50e95c-5c13-4b3d-80a6-a52bc5237fc6" data-name="Plant"><path d="M384.22,1366.08q293-75.84,668.14-94.39Q867.77,1552.57,642.77,1519.4,407,1484.95,384.22,1366.08m0,0q-5-27.16,1.09-58.92,33-170,193.6-186.91,298.56-32.14,473.45,151.44Q677.18,1290.23,384.22,1366.08Z" fill="#39c2ec"/><path d="M385.31,1307.16q33-170,193.6-186.91,298.56-32.14,473.45,151.44-375.18,18.54-668.14,94.39Q379.23,1338.92,385.31,1307.16Z" fill="url(#eab60d53-950a-477d-8e02-4c8e1cc14ffc)"/><path d="M642.77,1519.4Q407,1484.95,384.22,1366.08q293-75.84,668.14-94.39Q867.77,1552.57,642.77,1519.4Z" fill="#39c2ec"/><path d="M816.8,1785.94q69.94,21.16,170.47-52,169.37-123.41,47.69-366.6-184.6,187.17-218.16,418.65M770.7,1461.6q-88.08,113-34.86,251.53,33.38,58.3,81,72.81,33.56-231.48,218.16-418.65Q859.06,1348.74,770.7,1461.6Z" fill="#90e5ff"/><path d="M770.7,1461.6q-88.08,113-34.86,251.53,33.38,58.3,81,72.81,33.56-231.48,218.16-418.65Q859.06,1348.74,770.7,1461.6Z" fill="#90e5ff"/><path d="M816.8,1785.94q69.94,21.16,170.47-52,169.37-123.41,47.69-366.6Q850.36,1554.46,816.8,1785.94Z" fill="url(#a29b6483-9bd4-459e-b059-facf43d378ea)"/><path d="M1245.22,448.56q-86.55-30.56-199,83.62-171,173.37-2.23,447.42,149.48-273.57,201.18-531m83.3,71q-38.12-55.05-83.3-71Q1193.51,706,1044,979.6q198-3.66,280.41-152.81Q1406.65,678.19,1328.52,519.57Z" fill="#39c2ec"/><path d="M1046.27,532.18q-171,173.37-2.23,447.42,149.48-273.57,201.18-531Q1158.67,418,1046.27,532.18Z" fill="url(#f331f4ce-745c-4aa6-8a7f-0793474fc067)"/><path d="M1324.45,826.79q82.2-148.6,4.07-307.22-38.12-55.05-83.3-71Q1193.51,706,1044,979.6,1242.07,975.94,1324.45,826.79Z" fill="url(#e28b8abf-24cf-4ae1-b5f4-3dd6bbad44c7)"/><path d="M324.32,921.67q-17.62,90.26,173.81,194.49,224,135.72,519.56,17.55Q693,945.13,324.32,921.67m46-68.81q-39.15,33.32-46,68.81,368.66,23.46,693.37,212-81.41-202.44-311.94-320Q508.64,734.25,370.29,852.86Z" fill="#90e5ff"/><path d="M705.75,813.69q-197.11-79.44-335.46,39.17-39.15,33.32-46,68.81,368.66,23.46,693.37,212Q936.28,931.27,705.75,813.69Z" fill="#90e5ff"/><path d="M324.32,921.67q-17.62,90.26,173.81,194.49,224,135.72,519.56,17.55Q693,945.13,324.32,921.67Z" fill="url(#bf7948b4-b430-4357-9dbb-dce4dcb60c15)"/><path d="M780.64,208.71q-91.1,58.36-133,300.39Q606,751.53,938.26,882.28q-39-383.44-157.62-673.57m122.53,2.4q-70.63-22.92-122.53-2.4Q899.26,498.83,938.26,882.28q212.19-138.51,191.82-348.09Q1109.74,324.91,903.17,211.11Z" fill="#90e5ff"/><path d="M647.67,509.1Q606,751.53,938.26,882.28q-39-383.44-157.62-673.57Q689.55,267.08,647.67,509.1Z" fill="url(#fb6d185a-7fee-4769-90ee-1792922db597)"/><path d="M1130.08,534.19q-20.34-209.28-226.91-323.08-70.63-22.92-122.53-2.4Q899.26,498.83,938.26,882.28,1150.45,743.77,1130.08,534.19Z" fill="#90e5ff"/><g id="f50d6aa6-ba99-4de6-a330-1a6c0a3b2d3b" data-name="Gradient top"><g style="mix-blend-mode:hard-light"><path d="M1056.71,1659.88q-24.46,41.23-69.44,74-100.53,73.21-170.47,52-46.74-14.25-79.76-70.76l-1.2-2h0q-40-104.07-.24-193.68a312.26,312.26,0,0,1-92.83,0q-140-20.46-204.91-70.67-5.12-4-9.78-8.12-6.19-5.53-11.58-11.39A141.26,141.26,0,0,1,404.37,1414c-2.43-3.5-4.64-7.09-6.68-10.76q-2.91-5.25-5.29-10.72c-.42-1-.82-1.91-1.21-2.88a123.81,123.81,0,0,1-5.08-15.28c-.16-.61-.31-1.23-.46-1.84q-.79-3.21-1.43-6.48c-.17-.94-.33-1.88-.48-2.83q-4.2-26,1.57-56.09,8.74-45.12,26.49-79.45l.51-1q5-9.62,10.76-18.38,4.24-6.48,8.89-12.5t9.89-11.82a183.28,183.28,0,0,1,18.29-17.53q2.58-2.15,5.24-4.19,3.69-2.85,7.52-5.51,3.47-2.4,7.05-4.65A201.51,201.51,0,0,1,525,1131.37q-13.56-7.15-26.87-15.21-35.89-19.54-64.44-38.6-120.49-80.41-110-152.09c.18-1.27.39-2.54.63-3.8h0q6.82-35.49,46-68.81,58.86-50.46,128.36-65.07c2.83-.59,5.67-1.15,8.52-1.65l.56-.11.28,0c3.35-.58,6.71-1.11,10.09-1.57q86-11.68,187.65,29.27a824,824,0,0,1,102.43,61.59q147.71,104.78,209.51,258.43h0a846.54,846.54,0,0,1-105.46,34.66c1.76.86,3.53,1.72,5.28,2.6,2.26,1.14,4.52,2.29,6.76,3.47q6.74,3.52,13.35,7.26c2.2,1.25,4.4,2.51,6.58,3.79a494.26,494.26,0,0,1,108.16,86.2,896.71,896.71,0,0,1-69.55,93,452.6,452.6,0,0,1,52.15,2.6h0Q1124.32,1545.9,1056.71,1659.88Zm308.57-1016c-.14-1.43-.28-2.87-.44-4.31s-.34-3.05-.53-4.58q-.66-5.43-1.53-10.87c-.17-1-.33-2.06-.51-3.08q-8.51-50.24-33.75-101.51-38.12-55.05-83.3-71a112.4,112.4,0,0,0-39.1-6.44h-.27q-40.77.58-86.57,29.42-41.6-164.29-216.11-260.43a242.71,242.71,0,0,0-53.48-11.38l-1.39-.12c-2.3-.18-4.57-.32-6.83-.42-4-.17-7.88-.22-11.73-.12h-.37a142,142,0,0,0-48.73,9.63q-91.1,58.36-133,300.39Q606,751.53,938.26,882.28h0q23.1-15.09,43.46-31,21,61.14,62.32,128.33h0q51.78-1,95.65-11.87,123.91-30.79,184.76-140.94Q1374,737.18,1365.28,643.92Z" fill="url(#beae766b-0a78-48d4-a09c-2a51cbd9a1b6)"/></g></g></g><g id="e987e3c0-b88c-480a-83cd-a559b9ffddef" data-name="Icon users"><g id="accabfc7-194f-4d25-b138-fd289d9dddba" data-name="Circle Tick upgrade Calendar"><g style="isolation:isolate"><path d="M1032.6,810.87c64.28-37.36,153.29-32.09,251.54,24.63,195.23,112.72,353,386,352.36,610.31-.32,111.45-39.67,189.86-103.12,226.74l-26,15c63.46-36.88,102.81-115.29,103.13-226.74.63-224.34-157.13-497.59-352.36-610.31-98.25-56.72-187.27-62-251.54-24.64Z" fill="url(#ac1ddb53-7244-4137-9c71-81443ba56609)"/><ellipse cx="1257.03" cy="1256.67" rx="288.64" ry="498.32" transform="translate(-461.22 801.74) rotate(-30.16)" fill="url(#b4a79d78-496e-4213-b5e2-5627190b4ed2)"/></g></g><g id="a8819d64-a67b-49b6-a0e2-b2725505bc79" data-name="Drop shadow" opacity="0.23" filter="url(#b84b7096-af80-4459-b186-c85e02a86bff)"><g id="f3b03beb-76ba-46d5-9513-72023bb5dbc8" data-name="User icon"><g opacity="0.95"><path d="M1347,1408.39a24.56,24.56,0,0,1,3.28,11.93v50.18l-313-180.69v-50.17c0-3.76,1.09-6.9,3.28-8.14,8.75-7.49,18.6-14.35,30.64-17.43C1156.61,1185.57,1279.16,1272.64,1347,1408.39Zm-261.53-167.3a70.71,70.71,0,0,0-26.26,15v21.32l269.18,155.41-1.09-22C1267.13,1292,1159.89,1217.57,1085.48,1241.09Zm191.5-73.83c0,52.68-37.21,73.85-83.17,47.32s-83.16-90.66-83.16-143.35l0-3.06c1.42-50.43,38.07-70.27,83.12-44.26C1239.77,1050.45,1277,1114.58,1277,1167.26Zm-144.44-84.65,0,2.79c1.26,38.33,28.12,83.72,61.23,102.84,33.92,19.58,61.28,4,61.28-34.87s-27.36-86-61.28-105.62S1132.54,1043.73,1132.54,1082.61Z"/></g></g><g id="e3f3f793-473e-4d67-a6ff-24b843e065f2" data-name="User icon"><g opacity="0.95"><path d="M1377.24,1093.47c-34.7-20-62.92-4.75-64,34.09l0,2.35c0,40.57,28.66,90,64,110.39s64,4.13,64-36.44S1412.63,1113.91,1377.24,1093.47Zm0,126.54c-25.5-14.72-46.18-49.67-47.15-79.18l0-2.16c0-29.94,21.07-41.92,47.19-26.84s47.19,51.39,47.19,81.34S1403.36,1235.09,1377.24,1220Z"/></g></g><path d="M1497.74,1398.74v38.64L1335.9,1344c-8-11.83-16.47-23.14-25.19-33.86l170.18,98.24-.84-16.91c-46.35-91.47-128.93-148.82-186.24-130.7A54.16,54.16,0,0,0,1275,1271q-8.58-8.36-17.35-15.94a4.15,4.15,0,0,1,1.57-1.71c6.75-5.77,14.33-11,23.6-13.42,65.73-21.94,160.11,45.1,212.35,149.65A18.94,18.94,0,0,1,1497.74,1398.74Z" opacity="0.95"/></g><path id="a88b8b0d-2bdc-45d3-9400-2892f841b93b" data-name="User icon" d="M1340.57,1407.53a24.56,24.56,0,0,1,3.28,11.93v50.18L1030.9,1289v-50.17c0-3.76,1.1-6.89,3.28-8.14,8.76-7.49,18.61-14.35,30.64-17.43C1150.17,1184.71,1272.73,1271.78,1340.57,1407.53Zm-261.52-167.29a70.47,70.47,0,0,0-26.26,14.94v21.32L1322,1431.91l-1.1-22C1260.69,1291.17,1153.46,1216.71,1079.05,1240.24Zm191.49-73.84c0,52.68-37.21,73.85-83.16,47.32s-83.17-90.66-83.17-143.35l0-3.06c1.42-50.43,38.06-70.27,83.12-44.26C1233.33,1049.59,1270.54,1113.72,1270.54,1166.4Zm-144.44-84.65.05,2.8c1.26,38.32,28.11,83.71,61.23,102.83,33.92,19.58,61.27,4,61.27-34.87s-27.35-86-61.27-105.62S1126.1,1042.87,1126.1,1081.75Z" fill="#fff" fill-opacity="0.95"/><path id="a8baebc1-1cc3-448f-90e6-bc8bb32f1629" data-name="User icon" d="M1370.8,1092.61c-34.7-20-62.91-4.75-64,34.09l0,2.36c0,40.56,28.65,90,64,110.38s64,4.13,64-36.44S1406.19,1113.05,1370.8,1092.61Zm0,126.54c-25.5-14.72-46.18-49.67-47.15-79.18l0-2.16c0-29.94,21.07-41.92,47.19-26.84s47.19,51.39,47.19,81.34S1396.93,1234.23,1370.8,1219.15Z" fill="#fff" fill-opacity="0.95"/><path d="M1491.3,1397.88v38.64l-161.84-93.43q-12.06-17.74-25.18-33.86l170.17,98.24-.84-16.91c-46.35-91.47-128.93-148.82-186.23-130.7a54.2,54.2,0,0,0-18.78,10.26q-8.58-8.36-17.35-15.93a4.07,4.07,0,0,1,1.58-1.72c6.74-5.77,14.32-11,23.59-13.42,65.74-21.94,160.11,45.1,212.36,149.65A18.93,18.93,0,0,1,1491.3,1397.88Z" fill="#fff" fill-opacity="0.95"/></g><g id="b0e90fc3-4261-4ecf-ae37-a8ff45f932e2" data-name="Refresh Icon"><g id="b36f10e9-5b46-4233-b24b-c3fc65f97191" data-name="Shadow" filter="url(#a4308bf6-5308-44a1-8509-521c2592cf27)"><path d="M1489.92,1617.12l-31.49-18.18c-.09,31.51,13,67.17,33.41,96.55a180.55,180.55,0,0,1-56.37,14.82c-.31-.51-.6-1-.9-1.53-28.59-49.53-44.27-102.48-44.14-149.1l-31.49-18.18c-11.19-6.46-16.85-25.19-9-30l65.71-40.13c2.5-1.53,5.82-1.1,9.13.81a25.88,25.88,0,0,1,9.12,9.72l65.26,115.75C1506.86,1611.44,1501.11,1623.58,1489.92,1617.12Zm116.91-100.69c-18.58-19.87-38.77-36.33-59.61-48.36-39.83-23-77.51-27.14-106.11-11.67l-5.32,2.88,47.91,83,5.18-2.72c15.77-8.25,36.41-5.89,58.12,6.65,20.85,12,39.91,31.84,54.56,54.83a260.94,260.94,0,0,0,24.13-62.54,340,340,0,0,0,7.14-37.29Z" fill="url(#b0c98e93-3bca-4e6d-ac2d-0f0569eeadb0)"/></g><g id="b00739f2-5ae8-4104-8831-35eeab37d01b" data-name="Symbol"><path d="M1469,1616.48l-65.27-115.75a25.78,25.78,0,0,0-9.11-9.72c-3.26-1.88-6.52-2.33-9-.88l-18.94,11c2.49-1.44,5.75-1,9,.89a25.88,25.88,0,0,1,9.12,9.72l65.26,115.75c5.21,9.22,4.32,17.73-.21,20.37l18.94-11C1473.34,1634.21,1474.23,1625.71,1469,1616.48Z" fill="url(#aea267ae-768b-42f0-a405-75f94c43a279)"/><path d="M1409.4,1628.73l18.94-11c-.15,53.16,37.36,118.13,83.62,144.83,21.71,12.54,42.35,14.91,58.12,6.65l-18.94,11c-15.77,8.25-36.41,5.89-58.12-6.65C1446.76,1746.86,1409.25,1681.88,1409.4,1628.73Z" fill="url(#a92a6c6e-051b-464b-bfc4-92aaf530fdec)"/><polygon points="1556.32 1777.5 1575.26 1766.49 1623.17 1849.48 1604.23 1860.48 1556.32 1777.5" fill="url(#a52156d2-e597-408f-a596-5b340f398d5d)"/><path d="M1375.7,1502a25.88,25.88,0,0,1,9.12,9.72l65.26,115.75c7.75,13.74,2,25.88-9.19,19.42l-31.49-18.18c-.15,53.15,37.36,118.13,83.62,144.83,21.71,12.54,42.35,14.9,58.12,6.65l5.18-2.71,47.91,83-5.32,2.87c-28.6,15.47-66.29,11.33-106.12-11.67-40.57-23.42-78.66-63.59-107.25-113.12s-44.27-102.48-44.14-149.1l-31.49-18.18c-11.19-6.46-16.85-25.19-9.05-30l65.71-40.13C1369.07,1499.67,1372.39,1500.1,1375.7,1502Z" fill="#4dd2d2"/><path d="M1569,1691.63c-3.67-2.12-6.75-2.23-9-1l-18.94,11c2.22-1.29,5.3-1.17,9,1l31.49,18.18,18.94-11Z" fill="url(#a340af88-a373-4264-b6b0-dd7ec8d1da1f)"/><path d="M1700,1767.25l-31.49-18.18-18.94,11,31.49,18.18c11.19,6.46,16.85,25.2,9.06,30l-65.71,40.13,18.94-11,65.71-40.13C1716.86,1792.45,1711.2,1773.71,1700,1767.25Z" fill="url(#af541c24-30e7-4900-af2a-245904b5d03a)"/><path d="M1624.39,1600c-28.6-49.53-66.69-89.71-107.26-113.13-39.83-23-77.51-27.14-106.11-11.67l-18.94,11c28.6-15.47,66.28-11.33,106.11,11.66,40.57,23.43,78.66,63.61,107.26,113.13s44.26,102.48,44.13,149.1l18.94-11C1668.65,1702.46,1653,1649.5,1624.39,1600Z" fill="url(#eae57860-a107-4132-8dd7-3d6b2feecf12)"/><path d="M1498.19,1497.85c40.57,23.43,78.66,63.61,107.26,113.13s44.26,102.48,44.13,149.1l31.49,18.18c11.19,6.46,16.85,25.2,9.06,30l-65.71,40.13c-2.51,1.53-5.83,1.09-9.14-.82a26,26,0,0,1-9.11-9.71l-65.27-115.75c-7.74-13.74-2-25.89,9.2-19.43l31.49,18.18c.15-53.15-37.36-118.13-83.63-144.84-21.71-12.53-42.34-14.89-58.11-6.64l-5.18,2.72-47.91-83,5.32-2.88C1420.68,1470.72,1458.36,1474.86,1498.19,1497.85Z" fill="#4dd2d2"/></g></g></g></g></svg>