<?xml version="1.0" encoding="UTF-8"?><svg xmlns="http://www.w3.org/2000/svg" xmlns:xlink="http://www.w3.org/1999/xlink" viewBox="0 0 2500 2500"><defs><style>.cls-1{fill:url(#Nueva_muestra_de_degradado_64-8);}.cls-2{fill:url(#Nueva_muestra_de_degradado_64-9);}.cls-3,.cls-4{opacity:.6;}.cls-5{fill:url(#Nueva_muestra_de_degradado_69-2);}.cls-6{opacity:.9;}.cls-7{fill:#00d8c6;}.cls-8{fill:url(#Nueva_muestra_de_degradado_64-2);}.cls-9{fill:url(#Degradado_sin_nombre_10);fill-opacity:.2;}.cls-10{fill:url(#Nueva_muestra_de_degradado_67);}.cls-11{fill:url(#Nueva_muestra_de_degradado_64-3);}.cls-12{fill:url(#Degradado_sin_nombre_13-2);}.cls-13{fill:#97eee5;}.cls-14{fill:#4dd2d2;opacity:.98;}.cls-15{fill:url(#Nueva_muestra_de_degradado_58);}.cls-16{fill:rgba(255,163,171,.99);}.cls-17{stroke:#141226;stroke-width:1.68px;}.cls-17,.cls-18,.cls-19,.cls-20,.cls-21,.cls-22,.cls-23,.cls-24{fill:none;}.cls-17,.cls-20{stroke-linecap:round;stroke-linejoin:round;}.cls-25{fill:url(#linear-gradient-2);}.cls-26{fill:url(#Nueva_muestra_de_degradado_19-5);}.cls-26,.cls-27,.cls-28{opacity:.99;}.cls-29{fill:rgba(53,91,252,.99);}.cls-30{fill:url(#Nueva_muestra_de_degradado_69);}.cls-31{fill:#d2a57d;}.cls-32{fill:url(#Nueva_muestra_de_degradado_57-2);}.cls-33{fill:url(#Degradado_sin_nombre_58);}.cls-34{fill:url(#Nueva_muestra_de_degradado_11);}.cls-35{fill:#d4ecf6;}.cls-36{fill:url(#Nueva_muestra_de_degradado_72);}.cls-37{fill:url(#Degradado_sin_nombre_48);}.cls-38{fill:url(#Nueva_muestra_de_degradado_19-11);}.cls-38,.cls-39,.cls-40,.cls-41,.cls-42,.cls-43{fill-opacity:.37;}.cls-44{fill:#fff;}.cls-45{fill:url(#Nueva_muestra_de_degradado_66);}.cls-46{fill:#27244b;}.cls-47{fill:url(#Degradado_sin_nombre_133);}.cls-48{opacity:.17;}.cls-4{fill:url(#Degradado_sin_nombre_16-6);}.cls-49{fill:url(#Degradado_sin_nombre_138);}.cls-50{opacity:.25;}.cls-51{fill:rgba(20,37,63,.99);}.cls-52{opacity:.72;}.cls-53{fill:#202f64;}.cls-54{fill:url(#Degradado_sin_nombre_16);opacity:.13;}.cls-55{filter:url(#AI_DesenfoqueGaussiano_4-2);}.cls-56{fill:url(#Nueva_muestra_de_degradado_64-4);}.cls-57{fill:url(#Degradado_sin_nombre_98);}.cls-18{stroke-width:33.64px;}.cls-18,.cls-21,.cls-22{stroke:#022e49;}.cls-58{fill:rgba(238,247,251,.99);}.cls-59{fill:url(#linear-gradient-4);}.cls-60{fill:url(#Degradado_sin_nombre_159);}.cls-61{fill:url(#Degradado_sin_nombre_138-2);}.cls-62{fill:url(#Nueva_muestra_de_degradado_64-11);}.cls-63{fill:#4f18cd;}.cls-64{fill:url(#Degradado_sin_nombre_4);}.cls-39{fill:url(#Nueva_muestra_de_degradado_19-7);}.cls-65{fill:url(#Degradado_sin_nombre_16-8);opacity:.4;}.cls-66{fill:url(#Degradado_sin_nombre_234);}.cls-67{filter:url(#AI_DesenfoqueGaussiano_4);}.cls-68{fill:#95eee5;}.Estilo_gráfico_95{fill:url(#Nueva_muestra_de_degradado_57);}.cls-69{fill:url(#Nueva_muestra_de_degradado_64-13);}.cls-70{fill:url(#Degradado_sin_nombre_20);opacity:.64;}.cls-71{fill:#1da1dc;}.cls-72{opacity:.41;}.cls-73{fill:url(#linear-gradient-3);}.cls-74{fill:url(#Degradado_sin_nombre_16-4);}.cls-74,.cls-75,.cls-76{opacity:.1;}.cls-77{fill:rgba(77,210,210,.98);}.cls-78{fill:url(#linear-gradient-5);}.cls-79{fill:url(#Degradado_sin_nombre_20-2);}.cls-80{fill:url(#Nueva_muestra_de_degradado_19-6);}.cls-81{fill:url(#Degradado_sin_nombre_16-11);}.cls-81,.cls-82,.cls-83,.cls-84{opacity:.35;}.cls-85{fill:url(#Nueva_muestra_de_degradado_64-14);}.cls-86{fill:#142540;}.cls-40{fill:url(#Nueva_muestra_de_degradado_19-3);}.cls-87{fill:url(#Degradado_sin_nombre_2);}.cls-88{fill:url(#Degradado_sin_nombre_56);fill-opacity:.99;}.cls-89{isolation:isolate;}.cls-90{fill:url(#Nueva_muestra_de_degradado_64-15);}.cls-91{fill:url(#Degradado_sin_nombre_111);}.cls-91,.cls-92,.cls-93{fill-opacity:.58;}.cls-94,.cls-95{opacity:.15;}.cls-96{fill:#141226;}.cls-27{fill:url(#Nueva_muestra_de_degradado_19-9);}.cls-97{fill:url(#Degradado_sin_nombre_9);}.cls-98{fill:#6da0e8;}.cls-99{fill:url(#Degradado_sin_nombre_13);}.cls-100{fill:url(#Degradado_sin_nombre_7);}.cls-101{fill:url(#Degradado_sin_nombre_75);}.cls-102{fill:url(#Nueva_muestra_de_degradado_64-7);}.cls-103{fill:url(#Nueva_muestra_de_degradado_64);}.cls-75{fill:url(#Degradado_sin_nombre_16-7);}.cls-104{fill:url(#Degradado_sin_nombre_6);mix-blend-mode:overlay;opacity:.34;}.cls-105{fill:#a6c8e2;fill-rule:evenodd;}.cls-106{fill:url(#linear-gradient-7);}.cls-107{fill:#232484;}.cls-108{fill:url(#Degradado_sin_nombre_132);fill-opacity:.72;}.cls-109{fill:url(#Nueva_muestra_de_degradado_19-8);}.cls-41{fill:url(#Nueva_muestra_de_degradado_19-4);}.cls-110{mix-blend-mode:multiply;}.cls-95{fill:url(#Degradado_sin_nombre_16-10);}.cls-111{fill:#e7708a;}.cls-82{fill:url(#Degradado_sin_nombre_16-5);}.cls-112{fill:url(#Nueva_muestra_de_degradado_64-6);}.cls-113{fill:url(#linear-gradient-6);}.cls-114{fill:url(#Degradado_sin_nombre_409);}.cls-114,.cls-115{fill-opacity:.98;}.cls-20{stroke:#cff;stroke-width:1.68px;}.cls-116{filter:url(#AI_DesenfoqueGaussiano_4-3);}.cls-117{fill:#12abbb;}.cls-83{fill:url(#Degradado_sin_nombre_16-2);}.cls-84{fill:url(#Degradado_sin_nombre_16-9);}.cls-118{fill:rgba(212,236,246,.99);}.cls-119{fill:url(#Degradado_sin_nombre_184);}.cls-120{fill:url(#Degradado_sin_nombre_239);}.cls-121{fill:url(#Degradado_sin_nombre_37-2);filter:url(#AI_DesenfoqueGaussiano_7-2);}.cls-42{fill:url(#Nueva_muestra_de_degradado_19-10);}.cls-122{filter:url(#AI_DesenfoqueGaussiano_4-4);opacity:.24;}.cls-92{fill:url(#Degradado_sin_nombre_106-2);}.cls-123{fill:#ffa3ab;}.cls-43{fill:url(#Nueva_muestra_de_degradado_19-2);}.cls-115{fill:url(#Degradado_sin_nombre_408);}.cls-124{fill:#61eebb;}.cls-21{stroke-width:10.09px;}.cls-125{fill:#355bfc;}.cls-126{fill:url(#Degradado_sin_nombre_137);}.cls-127{opacity:.28;}.cls-28{fill:url(#Nueva_muestra_de_degradado_19);}.cls-128{fill:url(#Degradado_sin_nombre_37);filter:url(#AI_DesenfoqueGaussiano_7);}.cls-129{fill:url(#Nueva_muestra_de_degradado_64-10);}.cls-130{fill:#8586c1;}.cls-131{fill:url(#Degradado_sin_nombre_8);}.cls-132{fill:url(#Degradado_sin_nombre_30);}.cls-133{fill:url(#linear-gradient);}.cls-134{fill:rgba(6,70,123,.99);}.cls-135{fill:rgba(255,255,255,.95);}.cls-22{stroke-width:18.5px;}.cls-136{clip-path:url(#clippath);}.cls-137{opacity:.5;}.cls-23{opacity:.65;stroke:url(#Nueva_muestra_de_degradado_62);stroke-width:6.73px;}.cls-23,.cls-24{stroke-miterlimit:10;}.cls-138{fill:rgba(10,38,75,.2);}.cls-76{fill:url(#Degradado_sin_nombre_16-3);}.cls-93{fill:url(#Degradado_sin_nombre_106);}.cls-139{fill:url(#Degradado_sin_nombre_38);}.cls-140{fill:url(#Nueva_muestra_de_degradado_64-16);}.cls-141{fill:url(#Nueva_muestra_de_degradado_64-5);}.cls-24{opacity:.2;stroke:url(#Degradado_sin_nombre_5);stroke-width:16.82px;}.cls-142{fill:url(#Nueva_muestra_de_degradado_64-12);}.cls-143{fill:url(#Degradado_sin_nombre_12);}</style><filter id="AI_DesenfoqueGaussiano_4"><feGaussianBlur stdDeviation="4"/></filter><linearGradient id="Degradado_sin_nombre_4" x1="29.03" y1="32.92" x2="247.63" y2="32.92" gradientUnits="userSpaceOnUse"><stop offset="0" stop-color="#0f0b26" stop-opacity=".5"/><stop offset=".48" stop-color="#0f0b26" stop-opacity=".1"/><stop offset="1" stop-color="#0f0b26" stop-opacity="0"/></linearGradient><radialGradient id="Degradado_sin_nombre_2" cx="2494.08" cy="-1747.42" fx="2494.08" fy="-1747.42" r="44.83" gradientTransform="translate(-3438.44 1452.55) scale(1.4 .81)" gradientUnits="userSpaceOnUse"><stop offset="0" stop-color="#0f0b26" stop-opacity=".3"/><stop offset="1" stop-color="#0f0b26" stop-opacity="0"/></radialGradient><symbol id="shadowsvgdark_2" viewBox="0 0 269.17 73.98"><g class="cls-67"><path class="cls-64" d="M247.63,32.92c.09,15.15-21.04,27.43-47.19,27.42h-123.91c-2.86.01-5.66-.14-8.38-.42-.78-.08-1.55-.18-2.31-.28-.76-.1-1.52-.21-2.27-.34-.75-.12-1.49-.25-2.23-.4-.73-.14-1.46-.29-2.17-.46-1.35-.3-2.66-.65-3.95-1.02-.42-.13-.85-.25-1.27-.38-.67-.22-1.33-.44-1.99-.67-.65-.22-1.29-.46-1.92-.71-1.26-.49-2.48-1.02-3.65-1.58-.59-.28-1.16-.56-1.73-.86-.56-.29-1.11-.6-1.65-.91-.53-.31-1.06-.63-1.57-.95-.51-.32-1.01-.66-1.49-1-.97-.67-1.89-1.38-2.74-2.11-.43-.36-.84-.73-1.24-1.11-.4-.38-.78-.76-1.15-1.15-.18-.19-.36-.39-.53-.58-.65-.73-1.25-1.48-1.78-2.25-.19-.27-.37-.54-.55-.81-.13-.21-.26-.42-.39-.63-.25-.43-.48-.86-.7-1.29-.21-.44-.41-.87-.59-1.32-.18-.44-.34-.89-.48-1.34-.07-.22-.14-.45-.2-.67-.12-.46-.22-.92-.31-1.38-.16-.92-.25-1.85-.26-2.8-.08-15.15,21.05-27.43,47.2-27.43h123.9c.41,0,.82.01,1.22.01,1.63.03,3.23.1,4.81.21,1.19.09,2.36.2,3.52.34,1.15.14,2.29.3,3.42.48,1.76.29,3.48.64,5.16,1.04.46.11.92.23,1.37.34,1.4.37,2.76.77,4.09,1.21.66.22,1.31.45,1.95.69,2.89,1.07,5.57,2.32,7.99,3.71,3.22,1.86,5.98,3.99,8.18,6.32.37.39.72.79,1.06,1.19.33.4.65.8.95,1.21.76,1.03,1.41,2.08,1.94,3.17.65,1.3,1.13,2.64,1.44,4.02.21.91.34,1.84.38,2.78.01.24.02.47.02.71Z"/></g><ellipse class="cls-87" cx="62.94" cy="37.68" rx="62.94" ry="36.3"/></symbol><linearGradient id="Nueva_muestra_de_degradado_57" x1="407.05" y1="1332.07" x2="-377.73" y2="1820.59" gradientTransform="translate(623.09) rotate(-180) scale(1 -1)" gradientUnits="userSpaceOnUse"><stop offset="0" stop-color="#00b287"/><stop offset=".33" stop-color="#08ad9f"/><stop offset="1" stop-color="#1da1dc"/></linearGradient><linearGradient id="Degradado_sin_nombre_5" x1="123.08" y1="1520.41" x2="1408.7" y2="1520.41" gradientTransform="translate(384.27)" gradientUnits="userSpaceOnUse"><stop offset="0" stop-color="#1da1dc"/><stop offset="1" stop-color="#1da1dc"/></linearGradient><linearGradient id="Nueva_muestra_de_degradado_62" x1="128.13" y1="1517.89" x2="1403.66" y2="1517.89" gradientTransform="translate(384.27)" gradientUnits="userSpaceOnUse"><stop offset="0" stop-color="#1da1dc"/><stop offset="1" stop-color="#1da1dc"/></linearGradient><linearGradient id="Nueva_muestra_de_degradado_11" x1="-110.19" y1="1731.44" x2="298.98" y2="1731.44" gradientTransform="translate(623.09) rotate(-180) scale(1 -1)" gradientUnits="userSpaceOnUse"><stop offset="0" stop-color="#fafbfc"/><stop offset=".55" stop-color="#f5f8fa"/><stop offset=".99" stop-color="#e6f4fa"/><stop offset=".99" stop-color="#d4ecf6" stop-opacity=".9"/></linearGradient><linearGradient id="Degradado_sin_nombre_239" x1="194.53" y1="1919.42" x2="848.77" y2="1551.38" gradientUnits="userSpaceOnUse"><stop offset="0" stop-color="#fff" stop-opacity=".3"/><stop offset=".3" stop-color="#82b9d8" stop-opacity=".4"/><stop offset=".58" stop-color="#2384ba" stop-opacity=".47"/><stop offset=".74" stop-color="#0071b0" stop-opacity=".5"/></linearGradient><linearGradient id="Degradado_sin_nombre_38" x1="206.6" y1="1733.82" x2="1068.75" y2="1621.12" gradientUnits="userSpaceOnUse"><stop offset="0" stop-color="#0071b0" stop-opacity="0"/><stop offset=".28" stop-color="#0071b0" stop-opacity=".26"/><stop offset=".92" stop-color="#0071b0" stop-opacity=".91"/><stop offset="1" stop-color="#0071b0"/></linearGradient><linearGradient id="Degradado_sin_nombre_184" x1="-112.32" y1="1683.7" x2="301.11" y2="1683.7" gradientTransform="translate(623.09) rotate(-180) scale(1 -1)" gradientUnits="userSpaceOnUse"><stop offset="0" stop-color="#141226" stop-opacity=".1"/><stop offset=".1" stop-color="#141226" stop-opacity=".1"/><stop offset=".67" stop-color="#141226" stop-opacity=".1"/><stop offset=".91" stop-color="#141226" stop-opacity=".22"/><stop offset="1" stop-color="#141226" stop-opacity=".3"/></linearGradient><filter id="AI_DesenfoqueGaussiano_4-2"><feGaussianBlur stdDeviation="4"/></filter><linearGradient id="Degradado_sin_nombre_20" x1="-1521.09" y1="1702.14" x2="-1380.96" y2="1783.3" gradientTransform="translate(1984.6)" gradientUnits="userSpaceOnUse"><stop offset="0" stop-color="#0f0b26" stop-opacity=".05"/><stop offset=".3" stop-color="#0f0b26" stop-opacity=".3"/><stop offset=".32" stop-color="#0f0b26" stop-opacity=".3"/><stop offset=".74" stop-color="#0f0b26" stop-opacity=".3"/><stop offset="1" stop-color="#0f0b26" stop-opacity=".05"/></linearGradient><filter id="AI_DesenfoqueGaussiano_4-3"><feGaussianBlur stdDeviation="4"/></filter><linearGradient id="Degradado_sin_nombre_20-2" x1="-1514.86" y1="1705.87" x2="-1391.59" y2="1777.26" xlink:href="#Degradado_sin_nombre_20"/><linearGradient id="Degradado_sin_nombre_132" x1="136.78" y1="1400.99" x2="-55.28" y2="1673.48" gradientTransform="translate(623.09) rotate(-180) scale(1 -1)" gradientUnits="userSpaceOnUse"><stop offset="0" stop-color="#010d1a" stop-opacity=".1"/><stop offset=".13" stop-color="#010d1a" stop-opacity="0"/><stop offset=".16" stop-color="#010d1a" stop-opacity=".3"/><stop offset=".49" stop-color="#010d1a" stop-opacity=".2"/><stop offset=".51" stop-color="#010d1a" stop-opacity=".34"/><stop offset=".58" stop-color="#010d1a" stop-opacity=".5"/><stop offset=".84" stop-color="#010d1a" stop-opacity=".4"/><stop offset=".98" stop-color="#010d1a" stop-opacity=".6"/></linearGradient><linearGradient id="Nueva_muestra_de_degradado_57-2" x1="384.73" y1="1515.23" x2="838.64" y2="1689.02" gradientTransform="matrix(1,0,0,1,0,0)" xlink:href="#Nueva_muestra_de_degradado_57"/><radialGradient id="Degradado_sin_nombre_6" cx="2450.01" cy="2447.01" fx="2450.01" fy="2447.01" r="137.77" gradientTransform="translate(2261.9 589.22) rotate(-150) scale(.82 -.71) skewX(-26.4)" gradientUnits="userSpaceOnUse"><stop offset=".27" stop-color="#ffeb2f" stop-opacity=".8"/><stop offset=".38" stop-color="#ffeb30" stop-opacity=".79"/><stop offset=".49" stop-color="#ffeb35" stop-opacity=".74"/><stop offset=".58" stop-color="#ffec3d" stop-opacity=".67"/><stop offset=".67" stop-color="#ffed49" stop-opacity=".58"/><stop offset=".77" stop-color="#ffee57" stop-opacity=".45"/><stop offset=".85" stop-color="#fff06a" stop-opacity=".29"/><stop offset=".94" stop-color="#fff27f" stop-opacity=".11"/><stop offset=".98" stop-color="#fff48c" stop-opacity="0"/></radialGradient><filter id="AI_DesenfoqueGaussiano_4-4"><feGaussianBlur stdDeviation="4"/></filter><linearGradient id="Degradado_sin_nombre_30" x1="1926.61" y1="1067.68" x2="1265.4" y2="1067.68" gradientTransform="translate(2361.48) rotate(-180) scale(1 -1)" gradientUnits="userSpaceOnUse"><stop offset=".13" stop-color="#141226" stop-opacity=".3"/><stop offset=".85" stop-color="#141226" stop-opacity=".1"/><stop offset=".99" stop-color="#141226" stop-opacity=".1"/><stop offset="1" stop-color="#141226" stop-opacity=".1"/></linearGradient><linearGradient id="Degradado_sin_nombre_12" x1="395.72" y1="1130.38" x2="1062.93" y2="1130.38" gradientUnits="userSpaceOnUse"><stop offset="0" stop-color="#1189a4"/><stop offset=".34" stop-color="#1087a2"/><stop offset=".46" stop-color="#0f809e"/><stop offset=".54" stop-color="#0d7498"/><stop offset=".61" stop-color="#0a638e"/><stop offset=".64" stop-color="#085988"/><stop offset="1" stop-color="#045989"/></linearGradient><linearGradient id="linear-gradient" x1="834.31" y1="1132.61" x2="563.12" y2="861.41" gradientUnits="userSpaceOnUse"><stop offset="0" stop-color="#202f64"/><stop offset="1" stop-color="#0071b0"/></linearGradient><linearGradient id="Degradado_sin_nombre_8" x1="812.87" y1="1094.09" x2="858.03" y2="1006.62" gradientUnits="userSpaceOnUse"><stop offset="0" stop-color="#141226" stop-opacity=".5"/><stop offset=".87" stop-color="#141226" stop-opacity=".1"/><stop offset="1" stop-color="#141226" stop-opacity="0"/></linearGradient><linearGradient id="Degradado_sin_nombre_138" x1="850.06" y1="974.96" x2="986.01" y2="974.96" gradientUnits="userSpaceOnUse"><stop offset="0" stop-color="#fff" stop-opacity=".4"/><stop offset=".21" stop-color="#fff" stop-opacity=".4"/><stop offset=".3" stop-color="#b7d4f4" stop-opacity=".4"/><stop offset=".32" stop-color="#b7d4f4" stop-opacity=".35"/><stop offset=".37" stop-color="#b7d4f4" stop-opacity=".24"/><stop offset=".42" stop-color="#b7d4f4" stop-opacity=".15"/><stop offset=".49" stop-color="#b7d4f4" stop-opacity=".08"/><stop offset=".57" stop-color="#b7d4f4" stop-opacity=".04"/><stop offset=".68" stop-color="#b7d4f4" stop-opacity="0"/><stop offset="1" stop-color="#b7d4f4" stop-opacity="0"/></linearGradient><linearGradient id="Degradado_sin_nombre_137" x1="844.94" y1="865.5" x2="728.3" y2="1057.62" gradientUnits="userSpaceOnUse"><stop offset=".3" stop-color="#0071b0" stop-opacity="0"/><stop offset=".31" stop-color="#0071b0" stop-opacity=".17"/><stop offset=".33" stop-color="#0071b0" stop-opacity=".39"/><stop offset=".36" stop-color="#0071b0" stop-opacity=".58"/><stop offset=".38" stop-color="#0071b0" stop-opacity=".73"/><stop offset=".41" stop-color="#0071b0" stop-opacity=".85"/><stop offset=".44" stop-color="#0071b0" stop-opacity=".94"/><stop offset=".48" stop-color="#0071b0" stop-opacity=".99"/><stop offset=".53" stop-color="#0071b0"/><stop offset="1" stop-color="#0071b0" stop-opacity=".5"/></linearGradient><linearGradient id="Degradado_sin_nombre_138-2" x1="813.66" y1="974.67" x2="1070.82" y2="970.87" xlink:href="#Degradado_sin_nombre_138"/><linearGradient id="Degradado_sin_nombre_159" x1="673.86" y1="941.19" x2="930.55" y2="1013.91" gradientUnits="userSpaceOnUse"><stop offset=".33" stop-color="#b7d4f4" stop-opacity=".4"/><stop offset="1" stop-color="#b7d4f4" stop-opacity="0"/></linearGradient><linearGradient id="Degradado_sin_nombre_133" x1="847.95" y1="790.31" x2="879.8" y2="854.92" gradientUnits="userSpaceOnUse"><stop offset="0" stop-color="#58d1ed"/><stop offset=".09" stop-color="#6cd8f3"/><stop offset=".2" stop-color="#80dff9"/><stop offset=".31" stop-color="#8ce3fd"/><stop offset=".42" stop-color="#90e5ff"/><stop offset=".45" stop-color="#75d5f6"/><stop offset=".48" stop-color="#5ac5ee"/><stop offset=".52" stop-color="#43b7e7"/><stop offset=".56" stop-color="#32ade2"/><stop offset=".62" stop-color="#25a6de"/><stop offset=".69" stop-color="#1ea2dc"/><stop offset=".88" stop-color="#1da1dc"/></linearGradient><linearGradient id="Degradado_sin_nombre_9" x1="1644.3" y1="959.7" x2="1478.13" y2="719.45" gradientTransform="translate(2361.48) rotate(-180) scale(1 -1)" gradientUnits="userSpaceOnUse"><stop offset="0" stop-color="#141226"/><stop offset=".58" stop-color="#27244b"/><stop offset=".98" stop-color="#27244b"/><stop offset="1" stop-color="#27244b"/></linearGradient><linearGradient id="Degradado_sin_nombre_16" x1="671.84" y1="6585.19" x2="957.77" y2="6299.26" gradientTransform="translate(1460.6 8644.09) rotate(-150) skewX(30)" gradientUnits="userSpaceOnUse"><stop offset="0" stop-color="#00b280"/><stop offset=".19" stop-color="#07af97"/><stop offset=".54" stop-color="#13abbf"/><stop offset=".83" stop-color="#1ba9d7"/><stop offset="1" stop-color="#1da8e0"/></linearGradient><linearGradient id="Degradado_sin_nombre_16-2" x1="741.05" y1="6460.93" x2="849.99" y2="6352" xlink:href="#Degradado_sin_nombre_16"/><linearGradient id="Degradado_sin_nombre_16-3" x1="-549.97" y1="1904.29" x2="-490.91" y2="1845.23" gradientTransform="translate(2485.82 2345.9) rotate(90) scale(1.15 .87) skewX(-23.41)" xlink:href="#Degradado_sin_nombre_16"/><linearGradient id="Degradado_sin_nombre_16-4" x1="-549.97" y1="1923.51" x2="-490.91" y2="1864.45" gradientTransform="translate(2485.82 2345.9) rotate(90) scale(1.15 .87) skewX(-23.41)" xlink:href="#Degradado_sin_nombre_16"/><linearGradient id="Degradado_sin_nombre_16-5" x1="-529.22" y1="1923.51" x2="-470.15" y2="1864.45" gradientTransform="translate(2485.82 2345.9) rotate(90) scale(1.15 .87) skewX(-23.41)" xlink:href="#Degradado_sin_nombre_16"/><linearGradient id="Degradado_sin_nombre_16-6" x1="-508.46" y1="1885.07" x2="-449.4" y2="1826.01" gradientTransform="translate(2485.82 2345.9) rotate(90) scale(1.15 .87) skewX(-23.41)" xlink:href="#Degradado_sin_nombre_16"/><linearGradient id="Degradado_sin_nombre_16-7" x1="-508.46" y1="1942.73" x2="-449.4" y2="1883.67" gradientTransform="translate(2485.82 2345.9) rotate(90) scale(1.15 .87) skewX(-23.41)" xlink:href="#Degradado_sin_nombre_16"/><linearGradient id="Degradado_sin_nombre_16-8" x1="-487.71" y1="1904.29" x2="-428.65" y2="1845.23" gradientTransform="translate(2485.82 2345.9) rotate(90) scale(1.15 .87) skewX(-23.41)" xlink:href="#Degradado_sin_nombre_16"/><linearGradient id="Degradado_sin_nombre_16-9" x1="-487.71" y1="1942.73" x2="-428.65" y2="1883.67" gradientTransform="translate(2485.82 2345.9) rotate(90) scale(1.15 .87) skewX(-23.41)" xlink:href="#Degradado_sin_nombre_16"/><linearGradient id="Degradado_sin_nombre_16-10" x1="-466.96" y1="1885.07" x2="-407.9" y2="1826.01" gradientTransform="translate(2485.82 2345.9) rotate(90) scale(1.15 .87) skewX(-23.41)" xlink:href="#Degradado_sin_nombre_16"/><linearGradient id="Degradado_sin_nombre_16-11" x1="-466.96" y1="1923.51" x2="-407.9" y2="1864.45" gradientTransform="translate(2485.82 2345.9) rotate(90) scale(1.15 .87) skewX(-23.41)" xlink:href="#Degradado_sin_nombre_16"/><linearGradient id="Degradado_sin_nombre_56" x1="1762.23" y1="866" x2="1814.94" y2="866" gradientTransform="translate(2361.48) rotate(-180) scale(1 -1)" gradientUnits="userSpaceOnUse"><stop offset=".15" stop-color="#010d1a" stop-opacity="0"/><stop offset=".55" stop-color="#010d1a" stop-opacity=".37"/><stop offset="1" stop-color="#010d1a"/></linearGradient><linearGradient id="Nueva_muestra_de_degradado_19" x1="1775.54" y1="785.67" x2="1818.83" y2="789.6" gradientTransform="translate(2361.48) rotate(-180) scale(1 -1)" gradientUnits="userSpaceOnUse"><stop offset="0" stop-color="#010d1a" stop-opacity="0"/><stop offset="1" stop-color="#010d1a"/></linearGradient><linearGradient id="Nueva_muestra_de_degradado_19-2" x1="566.4" y1="887.85" x2="543.48" y2="869.88" gradientTransform="matrix(1,0,0,1,0,0)" xlink:href="#Nueva_muestra_de_degradado_19"/><linearGradient id="Nueva_muestra_de_degradado_19-3" x1="1814.69" y1="920.37" x2="1835.09" y2="782.26" xlink:href="#Nueva_muestra_de_degradado_19"/><linearGradient id="Nueva_muestra_de_degradado_19-4" x1="1832.18" y1="785.84" x2="1846.13" y2="777.25" xlink:href="#Nueva_muestra_de_degradado_19"/><linearGradient id="Nueva_muestra_de_degradado_19-5" x1="1849.61" y1="831.77" x2="1844.25" y2="884.01" xlink:href="#Nueva_muestra_de_degradado_19"/><linearGradient id="Nueva_muestra_de_degradado_19-6" x1="1675.73" y1="1118.9" x2="1737.63" y2="834.11" xlink:href="#Nueva_muestra_de_degradado_19"/><linearGradient id="Nueva_muestra_de_degradado_19-7" x1="1676.78" y1="1005.92" x2="1693.38" y2="1005.92" xlink:href="#Nueva_muestra_de_degradado_19"/><linearGradient id="Nueva_muestra_de_degradado_19-8" x1="1671.49" y1="1027.37" x2="1710.49" y2="919.32" xlink:href="#Nueva_muestra_de_degradado_19"/><linearGradient id="Nueva_muestra_de_degradado_19-9" x1="1655.05" y1="846.38" x2="1749.86" y2="914.35" xlink:href="#Nueva_muestra_de_degradado_19"/><linearGradient id="Nueva_muestra_de_degradado_19-10" x1="1671.8" y1="896.21" x2="1685.76" y2="865.45" xlink:href="#Nueva_muestra_de_degradado_19"/><linearGradient id="Nueva_muestra_de_degradado_19-11" x1="1652.19" y1="907" x2="1677.52" y2="907" xlink:href="#Nueva_muestra_de_degradado_19"/><linearGradient id="Nueva_muestra_de_degradado_69" x1="9197.42" y1="-7079.76" x2="10035.56" y2="-6518.02" gradientTransform="translate(-6003.09 4975.11) scale(.72)" gradientUnits="userSpaceOnUse"><stop offset="0" stop-color="#90e5ff"/><stop offset="1" stop-color="#1da1dc"/></linearGradient><linearGradient id="Degradado_sin_nombre_98" x1="10127.54" y1="-6414.51" x2="10579.3" y2="-5915.19" gradientTransform="translate(-6003.09 4975.11) scale(.72)" gradientUnits="userSpaceOnUse"><stop offset="0" stop-color="#90e5ff"/><stop offset=".82" stop-color="#1da1dc"/></linearGradient><linearGradient id="Nueva_muestra_de_degradado_69-2" x1="9638.03" y1="-7096.07" x2="10571.28" y2="-6257.93" xlink:href="#Nueva_muestra_de_degradado_69"/><linearGradient id="Degradado_sin_nombre_75" x1="1402.44" y1="120.1" x2="1070.03" y2="1009.3" gradientUnits="userSpaceOnUse"><stop offset=".25" stop-color="#58d1ed" stop-opacity=".4"/><stop offset=".35" stop-color="#54ceeb" stop-opacity=".44"/><stop offset=".51" stop-color="#4ac6e9" stop-opacity=".54"/><stop offset=".71" stop-color="#3ab8e4" stop-opacity=".7"/><stop offset=".93" stop-color="#24a6de" stop-opacity=".93"/><stop offset=".99" stop-color="#1da1dc"/></linearGradient><linearGradient id="Nueva_muestra_de_degradado_72" x1="1125.58" y1="227.48" x2="1954.16" y2="2360.28" gradientUnits="userSpaceOnUse"><stop offset="0" stop-color="#fff" stop-opacity=".4"/><stop offset=".27" stop-color="#fff" stop-opacity=".4"/><stop offset=".43" stop-color="#b7d4f4" stop-opacity=".4"/><stop offset=".92" stop-color="#b7d4f4" stop-opacity="0"/></linearGradient><linearGradient id="Degradado_sin_nombre_106" x1="-6854.11" y1="-6099.62" x2="-8048.91" y2="-4677.45" gradientTransform="translate(-3422.71 4975.11) rotate(-180) scale(.72 -.72)" gradientUnits="userSpaceOnUse"><stop offset="0" stop-color="#fff" stop-opacity=".6"/><stop offset=".17" stop-color="#fff" stop-opacity=".6"/><stop offset=".43" stop-color="#b7d4f4" stop-opacity=".4"/><stop offset=".92" stop-color="#b7d4f4" stop-opacity="0"/></linearGradient><linearGradient id="Degradado_sin_nombre_106-2" x1="-6356.99" y1="-6860.57" x2="-8378.05" y2="-4598.77" xlink:href="#Degradado_sin_nombre_106"/><linearGradient id="Degradado_sin_nombre_111" x1="-6023.43" y1="-6841.67" x2="-6678.78" y2="-6134.3" gradientTransform="translate(-3422.71 4975.11) rotate(-180) scale(.72 -.72)" gradientUnits="userSpaceOnUse"><stop offset=".04" stop-color="#fff" stop-opacity=".6"/><stop offset=".27" stop-color="#fff" stop-opacity=".4"/><stop offset=".43" stop-color="#b7d4f4" stop-opacity=".4"/><stop offset=".92" stop-color="#b7d4f4" stop-opacity="0"/></linearGradient><linearGradient id="Nueva_muestra_de_degradado_64" x1="180.97" y1="7371.38" x2="382.47" y2="7169.89" gradientTransform="translate(998.23 8669.78) rotate(30) scale(1 -1) skewX(-30)" gradientUnits="userSpaceOnUse"><stop offset="0" stop-color="#00b280"/><stop offset=".19" stop-color="#07af97"/><stop offset=".54" stop-color="#13abbf"/><stop offset=".83" stop-color="#1ba9d7"/><stop offset="1" stop-color="#1da8e0"/></linearGradient><linearGradient id="Nueva_muestra_de_degradado_64-2" x1="78.9" y1="7296.45" x2="282.22" y2="7093.14" xlink:href="#Nueva_muestra_de_degradado_64"/><linearGradient id="Nueva_muestra_de_degradado_64-3" x1="182.41" y1="7384.68" x2="385.09" y2="7182" xlink:href="#Nueva_muestra_de_degradado_64"/><linearGradient id="Nueva_muestra_de_degradado_64-4" x1="43.41" y1="7253.8" x2="237.88" y2="7059.33" xlink:href="#Nueva_muestra_de_degradado_64"/><linearGradient id="Nueva_muestra_de_degradado_64-5" x1="108.92" y1="7303.64" x2="299.43" y2="7113.13" xlink:href="#Nueva_muestra_de_degradado_64"/><linearGradient id="Nueva_muestra_de_degradado_64-6" x1="141.02" y1="7333.73" x2="332.58" y2="7142.17" xlink:href="#Nueva_muestra_de_degradado_64"/><linearGradient id="Nueva_muestra_de_degradado_64-7" x1="221.92" y1="7417.72" x2="425.23" y2="7214.42" xlink:href="#Nueva_muestra_de_degradado_64"/><linearGradient id="Nueva_muestra_de_degradado_64-8" x1="225.82" y1="7405.43" x2="418.61" y2="7212.63" xlink:href="#Nueva_muestra_de_degradado_64"/><linearGradient id="Nueva_muestra_de_degradado_64-9" x1="94.88" y1="7291.4" x2="287.46" y2="7098.82" xlink:href="#Nueva_muestra_de_degradado_64"/><linearGradient id="Nueva_muestra_de_degradado_64-10" x1="130.46" y1="7322.92" x2="322.02" y2="7131.35" xlink:href="#Nueva_muestra_de_degradado_64"/><linearGradient id="Nueva_muestra_de_degradado_64-11" x1="163.79" y1="7352.11" x2="354.3" y2="7161.6" xlink:href="#Nueva_muestra_de_degradado_64"/><linearGradient id="Nueva_muestra_de_degradado_64-12" x1="175.9" y1="7366.41" x2="368.4" y2="7173.92" xlink:href="#Nueva_muestra_de_degradado_64"/><linearGradient id="Nueva_muestra_de_degradado_64-13" x1="59.03" y1="7262.38" x2="250.6" y2="7070.82" xlink:href="#Nueva_muestra_de_degradado_64"/><linearGradient id="Nueva_muestra_de_degradado_64-14" x1="37.97" y1="7250.81" x2="241.3" y2="7047.49" xlink:href="#Nueva_muestra_de_degradado_64"/><linearGradient id="Nueva_muestra_de_degradado_64-15" x1="212.5" y1="7394.22" x2="403.94" y2="7202.78" xlink:href="#Nueva_muestra_de_degradado_64"/><linearGradient id="Nueva_muestra_de_degradado_64-16" x1="77.88" y1="7283.3" x2="280.57" y2="7080.62" xlink:href="#Nueva_muestra_de_degradado_64"/><radialGradient id="Degradado_sin_nombre_13" cx="-544.29" cy="1403.83" fx="-544.29" fy="1403.83" r="23.88" gradientTransform="translate(2252.06 901.98) rotate(30) scale(.82 .7) skewX(-26.4)" gradientUnits="userSpaceOnUse"><stop offset="0" stop-color="#141226" stop-opacity=".3"/><stop offset="1" stop-color="#141226" stop-opacity="0"/></radialGradient><linearGradient id="Degradado_sin_nombre_37" x1="862.95" y1="1248.38" x2="945.83" y2="1248.38" gradientUnits="userSpaceOnUse"><stop offset="0" stop-color="#0f0b26" stop-opacity=".5"/><stop offset=".48" stop-color="#0f0b26" stop-opacity=".1"/><stop offset="1" stop-color="#0f0b26" stop-opacity="0"/></linearGradient><filter id="AI_DesenfoqueGaussiano_7"><feGaussianBlur stdDeviation="7"/></filter><radialGradient id="Degradado_sin_nombre_13-2" cx="-547.91" cy="1381" fx="-547.91" fy="1381" r="62.51" xlink:href="#Degradado_sin_nombre_13"/><linearGradient id="Degradado_sin_nombre_37-2" x1="855.63" y1="1234.64" x2="1072.58" y2="1234.64" xlink:href="#Degradado_sin_nombre_37"/><filter id="AI_DesenfoqueGaussiano_7-2"><feGaussianBlur stdDeviation="7"/></filter><linearGradient id="Degradado_sin_nombre_234" x1="837.84" y1="1185.79" x2="995.15" y2="1185.86" gradientUnits="userSpaceOnUse"><stop offset="0" stop-color="#fcfdfe" stop-opacity=".8"/><stop offset=".55" stop-color="#f5f8fa" stop-opacity=".8"/><stop offset=".99" stop-color="#e5f4fa" stop-opacity=".8"/></linearGradient><linearGradient id="Degradado_sin_nombre_10" x1="919.89" y1="1159.01" x2="835.34" y2="1255" gradientUnits="userSpaceOnUse"><stop offset="0" stop-color="#069" stop-opacity=".3"/><stop offset=".21" stop-color="#069" stop-opacity=".33"/><stop offset=".45" stop-color="#069" stop-opacity=".42"/><stop offset=".7" stop-color="#069" stop-opacity=".57"/><stop offset=".97" stop-color="#069" stop-opacity=".78"/><stop offset=".99" stop-color="#069" stop-opacity=".8"/></linearGradient><linearGradient id="Degradado_sin_nombre_7" x1="876.66" y1="1174.76" x2="893.42" y2="1184.76" gradientUnits="userSpaceOnUse"><stop offset="0" stop-color="#fcfdfe" stop-opacity=".6"/><stop offset=".55" stop-color="#f5f8fa" stop-opacity=".4"/><stop offset=".99" stop-color="#e5f4fa" stop-opacity="0"/></linearGradient><linearGradient id="Degradado_sin_nombre_58" x1="979.53" y1="1225.68" x2="879.95" y2="1164.08" gradientUnits="userSpaceOnUse"><stop offset="0" stop-color="#0a264b" stop-opacity=".6"/><stop offset=".99" stop-color="#0a264b" stop-opacity="0"/></linearGradient><linearGradient id="linear-gradient-2" x1="1019.49" y1="1149.57" x2="1076.12" y2="1149.57" gradientUnits="userSpaceOnUse"><stop offset="0" stop-color="#c0e5f8"/><stop offset=".37" stop-color="#a0d3f5"/><stop offset=".81" stop-color="#c3e7f9"/><stop offset=".99" stop-color="#bee4f8"/></linearGradient><linearGradient id="Degradado_sin_nombre_48" x1="1047.3" y1="1108.63" x2="1048.4" y2="1193.77" gradientUnits="userSpaceOnUse"><stop offset=".54" stop-color="#000c1a" stop-opacity="0"/><stop offset=".82" stop-color="#000c1a" stop-opacity=".55"/><stop offset="1" stop-color="#000c1a"/></linearGradient><linearGradient id="Nueva_muestra_de_degradado_67" x1="1517.44" y1="1429.28" x2="1574.94" y2="1437.42" gradientTransform="translate(1144.34 -537.85) rotate(31.03) scale(1.01 1.03) skewX(-28.42)" gradientUnits="userSpaceOnUse"><stop offset="0" stop-color="#cfe5fc"/><stop offset=".55" stop-color="#cae7fa"/><stop offset=".99" stop-color="#ceedfa"/><stop offset=".99" stop-color="#aae0f6" stop-opacity=".9"/></linearGradient><linearGradient id="Nueva_muestra_de_degradado_66" x1="1018.86" y1="1130.33" x2="1076.45" y2="1130.33" gradientUnits="userSpaceOnUse"><stop offset="0" stop-color="#141226"/><stop offset="1" stop-color="#27244b"/></linearGradient><linearGradient id="linear-gradient-3" x1="1018.92" y1="1119.59" x2="1076.39" y2="1119.59" gradientUnits="userSpaceOnUse"><stop offset="0" stop-color="#6b93b6"/><stop offset="1" stop-color="#527692"/></linearGradient><clipPath id="clippath"><path id="SVGID" class="cls-19" d="M1047.59,1131.75h0c1.15,0,2.19-.7,2.62-1.77l68.35-63.94,15.39-143.38-94.58-23.72-90.07,53.98,58.89,166.28,36.91,11.07c.49.91,1.45,1.48,2.49,1.48Z"/></clipPath><linearGradient id="Nueva_muestra_de_degradado_58" x1="98.65" y1="1066.84" x2="107.77" y2="1186.51" gradientTransform="translate(945.77)" gradientUnits="userSpaceOnUse"><stop offset="0" stop-color="#010d1a" stop-opacity="0"/><stop offset="1" stop-color="#010d1a"/></linearGradient><linearGradient id="Degradado_sin_nombre_409" x1="293.92" y1="1352.82" x2="350.31" y2="1352.82" gradientTransform="translate(1370.02 -252.93) rotate(27.72)" gradientUnits="userSpaceOnUse"><stop offset="0" stop-color="#12abbb" stop-opacity="0"/><stop offset="1" stop-color="#12abbb" stop-opacity=".5"/></linearGradient><linearGradient id="Degradado_sin_nombre_408" x1="335.2" y1="1511.57" x2="463.04" y2="1511.57" gradientTransform="translate(1370.02 -252.93) rotate(27.72)" gradientUnits="userSpaceOnUse"><stop offset=".34" stop-color="#12abbb" stop-opacity="0"/><stop offset="1" stop-color="#12abbb" stop-opacity=".5"/></linearGradient><linearGradient id="linear-gradient-4" x1="1563.04" y1="1456" x2="1648.87" y2="1513.53" gradientUnits="userSpaceOnUse"><stop offset="0" stop-color="#8dd6f3"/><stop offset="1" stop-color="#7bcdef"/></linearGradient><linearGradient id="linear-gradient-5" x1="11557.78" y1="-6447.45" x2="11939.72" y2="-6104.43" gradientTransform="translate(-9822.81 7880.69)" gradientUnits="userSpaceOnUse"><stop offset="0" stop-color="#9fe0f8"/><stop offset=".6" stop-color="#79caec"/><stop offset="1" stop-color="#5bb9e6"/></linearGradient><linearGradient id="linear-gradient-6" x1="11833.31" y1="-6035.45" x2="12061.41" y2="-5783.34" gradientTransform="translate(-9822.81 7880.69)" gradientUnits="userSpaceOnUse"><stop offset="0" stop-color="#7ecced"/><stop offset=".2" stop-color="#71c4ea"/><stop offset=".6" stop-color="#6cc1e8"/><stop offset="1" stop-color="#5ab9e5"/></linearGradient><linearGradient id="linear-gradient-7" x1="1734.3" y1="1498.25" x2="1884.12" y2="2163.56" gradientUnits="userSpaceOnUse"><stop offset="0" stop-color="#d7f4fb"/><stop offset=".5" stop-color="#d0f1fa"/><stop offset="1" stop-color="#a7ddf3"/></linearGradient></defs><g class="cls-89"><g id="LinesArrows"><g id="Connector_Blue_Line"><path class="cls-24" d="M1198.54,588.52v664.71c0,29.61-20.99,65.91-46.65,80.69l-616.87,355.16c-25.66,14.77-25.67,38.97-.04,53.78l1202.97,694.72c25.64,14.81,46.61,2.7,46.61-26.91v-607.12"/><path class="cls-23" d="M1198.54,588.52v664.71c0,29.61-20.99,65.91-46.65,80.69l-616.87,355.16c-25.66,14.77-25.67,38.97-.04,53.78l1202.97,694.72c25.64,14.81,46.61,2.7,46.61-26.91v-607.12"/></g></g><g id="Shield"><g id="Shield_Group"><g id="Shield_Green"><g id="Base_shield_pill"><path class="cls-34" d="M324.11,1693.33c5.52,18.84,21.8,37.62,48.4,52.99l105.76,61.06c61.09,35.26,153.49,39.1,206.39,8.55l15.03-8.68c18.1-10.45,29.23-23.57,33.59-37.71-5.53-18.84-21.81-37.63-48.41-52.99l-105.76-61.06c-61.08-35.26-153.49-39.1-206.38-8.55l-15.03,8.68c-18.1,10.44-29.23,23.56-33.59,37.72Z"/><path class="cls-71" d="M324.11,1693.33c5.52,18.84,21.8,37.62,48.4,52.99l105.76,61.06c61.09,35.26,153.49,39.1,206.39,8.55l15.03-8.68c18.1-10.45,29.23-23.57,33.59-37.71-5.53-18.84-21.81-37.63-48.41-52.99l-105.76-61.06c-61.08-35.26-153.49-39.1-206.38-8.55l-15.03,8.68c-18.1,10.44-29.23,23.56-33.59,37.72Z"/><path class="cls-120" d="M324.11,1693.33c5.52,18.84,21.8,37.62,48.4,52.99l105.76,61.06c61.09,35.26,153.49,39.1,206.39,8.55l15.03-8.68c18.1-10.45,29.23-23.57,33.59-37.71-5.53-18.84-21.81-37.63-48.41-52.99l-105.76-61.06c-61.08-35.26-153.49-39.1-206.38-8.55l-15.03,8.68c-18.1,10.44-29.23,23.56-33.59,37.72Z"/><path class="cls-46" d="M321.98,1678.92c0,4.77.71,9.59,2.13,14.42,4.36-14.16,15.48-27.27,33.59-37.72l15.03-8.68c52.89-30.54,145.3-26.71,206.38,8.55l105.76,61.06c26.6,15.36,42.88,34.15,48.41,52.99,1.43-4.59,2.13-9.28,2.13-14.03,0-23.42-17.12-48.12-50.54-67.41l-105.76-61.06c-61.08-35.26-153.49-39.1-206.38-8.55l-15.03,8.68c-23.97,13.83-35.71,32.35-35.71,51.75Z"/><path class="cls-139" d="M321.98,1678.92c0,4.77.71,9.59,2.13,14.42,4.36-14.16,15.48-27.27,33.59-37.72l15.03-8.68c52.89-30.54,145.3-26.71,206.38,8.55l105.76,61.06c26.6,15.36,42.88,34.15,48.41,52.99,1.43-4.59,2.13-9.28,2.13-14.03,0-23.42-17.12-48.12-50.54-67.41l-105.76-61.06c-61.08-35.26-153.49-39.1-206.38-8.55l-15.03,8.68c-23.97,13.83-35.71,32.35-35.71,51.75Z"/><path class="cls-119" d="M321.98,1678.92c0,4.77.71,9.59,2.13,14.42,4.36-14.16,15.48-27.27,33.59-37.72l15.03-8.68c52.89-30.54,145.3-26.71,206.38,8.55l105.76,61.06c26.6,15.36,42.88,34.15,48.41,52.99,1.43-4.59,2.13-9.28,2.13-14.03,0-23.42-17.12-48.12-50.54-67.41l-105.76-61.06c-61.08-35.26-153.49-39.1-206.38-8.55l-15.03,8.68c-23.97,13.83-35.71,32.35-35.71,51.75Z"/><g class="cls-127"><path class="cls-98" d="M462.36,1597.86c40.56,0,83.34,9.88,116.75,29.17l105.76,61.06c33.41,19.29,50.54,43.99,50.54,67.41,0,4.75-.7,9.44-2.13,14.03-4.36,14.15-15.48,27.26-33.59,37.71l-15.03,8.68c-23.97,13.84-56.04,20.62-89.64,20.62-40.56,0-83.34-9.88-116.75-29.17l-105.76-61.06c-26.6-15.36-42.88-34.15-48.4-52.99-1.42-4.82-2.13-9.64-2.13-14.42,0-19.4,11.74-37.92,35.71-51.75l15.03-8.68c23.96-13.84,56.04-20.62,89.63-20.62M462.37,1587.77v10.09-10.09c-36.53,0-70.15,7.8-94.69,21.97l-15.03,8.68c-26.28,15.17-40.76,36.65-40.76,60.49,0,5.73.85,11.54,2.54,17.27,6.52,22.24,24.86,42.6,53.03,58.88l105.76,61.06c33.61,19.4,78,30.52,121.8,30.52,36.52,0,70.14-7.8,94.68-21.97l15.03-8.68c19.72-11.39,32.93-26.42,38.18-43.48,1.71-5.48,2.58-11.21,2.58-17,0-13.88-5.08-28.14-14.7-41.23-9.58-13.04-23.33-24.79-40.88-34.92l-105.76-61.06c-33.6-19.4-77.99-30.52-121.79-30.52h0Z"/></g><path class="cls-98" d="M462.36,1597.86c40.56,0,83.34,9.88,116.75,29.17l105.76,61.06c33.41,19.29,50.54,43.99,50.54,67.41,0,4.75-.7,9.44-2.13,14.03-4.36,14.15-15.48,27.26-33.59,37.71l-15.03,8.68c-23.97,13.84-56.04,20.62-89.64,20.62-40.56,0-83.34-9.88-116.75-29.17l-105.76-61.06c-26.6-15.36-42.88-34.15-48.4-52.99-1.42-4.82-2.13-9.64-2.13-14.42,0-19.4,11.74-37.92,35.71-51.75l15.03-8.68c23.96-13.84,56.04-20.62,89.63-20.62M462.37,1592.82v5.05-5.05c-35.66,0-68.39,7.56-92.17,21.3l-15.03,8.68c-24.66,14.23-38.24,34.16-38.24,56.12,0,5.25.79,10.58,2.33,15.84,6.15,20.98,23.68,40.32,50.71,55.93l105.76,61.06c32.86,18.97,76.34,29.85,119.28,29.85,35.64,0,68.37-7.56,92.16-21.3l15.03-8.68c18.6-10.74,31.01-24.78,35.88-40.6,1.56-5.01,2.35-10.24,2.35-15.51,0-26.15-19.34-52.31-53.06-71.78l-105.76-61.06c-32.86-18.97-76.33-29.85-119.26-29.85h0Z"/></g><g id="Shield-2"><g id="Shadow_shield" class="cls-137"><g class="cls-55"><path class="cls-70" d="M592.04,1785.07l-132.16-76.3c-3.56-2.06-3.11-5.65,1-8.02h0c4.11-2.37,10.33-2.63,13.89-.58l132.16,76.3c3.56,2.06,3.11,5.65-1,8.02h0c-4.11,2.37-10.33,2.63-13.89.58Z"/></g><g class="cls-116"><path class="cls-79" d="M582.81,1778.82l-116.26-67.12c-3.13-1.81-2.74-4.97.88-7.05h0c3.62-2.09,9.09-2.31,12.22-.51l116.26,67.12c3.13,1.81,2.74,4.97-.88,7.05h0c-3.62,2.09-9.09,2.31-12.22.51Z"/></g></g><path class="Estilo_gráfico_95" d="M427.1,1401.7c1.51-.88,3.59-.75,5.86.56.32.18.64.39.97.62,4.68,3.33,10.89,7.48,18.01,11.59,19.58,11.31,46.11,22.34,67,15.27,1.5-.51,3.31-.14,5.12.9,1.81,1.05,3.62,2.78,5.11,5.01,20.78,31.12,47.28,50.71,66.87,62.01,7.13,4.11,13.33,7.13,18.02,9.21.33.14.65.31.97.49,4.5,2.6,8.24,8.99,8.23,14.3l-.37,130.06c-.07,26.01-10.75,40.95-25.09,49.28l31.68-18.41c14.34-8.33,25.02-23.28,25.09-49.28l.37-130.06c.02-5.31-3.73-11.7-8.23-14.3-.32-.18-.64-.35-.97-.49-4.68-2.08-10.89-5.09-18.02-9.21-19.58-11.31-46.09-30.89-66.87-62.01-1.49-2.23-3.3-3.96-5.11-5.01-1.81-1.05-3.62-1.41-5.12-.9-20.89,7.06-47.41-3.97-67-15.27-7.12-4.11-13.33-8.27-18.01-11.59-.33-.23-.65-.44-.97-.62-2.27-1.31-4.35-1.44-5.86-.56l-31.68,18.41Z"/><path class="cls-108" d="M427.1,1401.7c1.51-.88,3.59-.75,5.86.56.32.18.64.39.97.62,4.68,3.33,10.89,7.48,18.01,11.59,19.58,11.31,46.11,22.34,67,15.27,1.5-.51,3.31-.14,5.12.9,1.81,1.05,3.62,2.78,5.11,5.01,20.78,31.12,47.28,50.71,66.87,62.01,7.13,4.11,13.33,7.13,18.02,9.21.33.14.65.31.97.49,4.5,2.6,8.24,8.99,8.23,14.3l-.37,130.06c-.07,26.01-10.75,40.95-25.09,49.28l31.68-18.41c14.34-8.33,25.02-23.28,25.09-49.28l.37-130.06c.02-5.31-3.73-11.7-8.23-14.3-.32-.18-.64-.35-.97-.49-4.68-2.08-10.89-5.09-18.02-9.21-19.58-11.31-46.09-30.89-66.87-62.01-1.49-2.23-3.3-3.96-5.11-5.01-1.81-1.05-3.62-1.41-5.12-.9-20.89,7.06-47.41-3.97-67-15.27-7.12-4.11-13.33-8.27-18.01-11.59-.33-.23-.65-.44-.97-.62-2.27-1.31-4.35-1.44-5.86-.56l-31.68,18.41Z"/><g class="cls-89"><path class="cls-32" d="M524.06,1430.65c-1.81-1.05-3.62-1.41-5.12-.9-20.89,7.06-47.41-3.97-67-15.27-7.12-4.11-13.33-8.27-18.01-11.59-.33-.23-.65-.44-.97-.62-4.5-2.6-8.27-.54-8.28,4.77l-.37,130.06c-.19,66.37,68.88,140.55,91.73,163.27,2.34,2.32,4.79,4.22,7.24,5.64,2.45,1.42,4.9,2.34,7.25,2.73,22.89,3.69,92.16,9.38,92.35-56.99l.37-130.06c.02-5.31-3.73-11.7-8.23-14.3-.32-.18-.64-.35-.97-.49-4.68-2.08-10.89-5.09-18.02-9.21-19.58-11.31-46.09-30.89-66.87-62.01-1.49-2.23-3.3-3.96-5.11-5.01Z"/><g class="cls-50"><path class="cls-124" d="M431.4,1409.34c5.65,3.96,11.43,7.65,17.18,10.97,21.15,12.21,39.98,18.4,55.98,18.4,5.66,0,11-.79,15.88-2.36.07.03.16.08.26.14.46.26,1.65,1.07,2.88,2.92,21.74,32.56,49.58,52.83,69.1,64.1,6.24,3.6,12.51,6.81,18.66,9.53.1.05.22.1.33.17,2.46,1.42,4.87,5.61,4.86,8.45l-.37,130.06c-.06,19.98-6.62,33.87-20.06,42.46-10.18,6.51-24.07,9.81-41.28,9.81-9.44,0-17.83-1.03-23.2-1.9-1.51-.24-3.22-.91-4.96-1.91-1.97-1.14-3.95-2.68-5.86-4.58-21.1-20.98-89.93-94.41-89.75-158.48l.36-127.76M429.28,1401.14c-2.7,0-4.59,2.13-4.6,5.89l-.37,130.06c-.19,66.37,68.88,140.55,91.73,163.27,2.34,2.32,4.79,4.22,7.24,5.64,2.45,1.42,4.9,2.34,7.25,2.73,5.77.93,14.48,1.99,24.28,1.99,29.13,0,67.93-9.32,68.07-58.97l.37-130.06c.02-5.31-3.73-11.7-8.23-14.3-.32-.18-.64-.35-.97-.49-4.68-2.08-10.89-5.09-18.02-9.21-19.58-11.31-46.09-30.89-66.87-62.01-1.49-2.23-3.3-3.96-5.11-5.01-1.27-.73-2.53-1.13-3.69-1.13-.5,0-.98.07-1.43.23-4.57,1.54-9.41,2.22-14.38,2.22-17.78,0-37.31-8.66-52.61-17.5-7.12-4.11-13.33-8.27-18.01-11.59-.33-.23-.65-.44-.97-.62-1.31-.76-2.57-1.12-3.68-1.12h0Z"/></g></g><path class="cls-104" d="M424.22,1520.26c0,61.94,43.8,137.44,97.83,168.63,54.03,31.2,97.83,6.27,97.83-55.67,0-61.94-43.8-137.44-97.83-168.63-54.03-31.2-97.83-6.27-97.83,55.67Z"/><g id="Checkmark"><g id="SYMBOLS" class="cls-122"><path d="M600.31,1542.16c2.79,4.8,2.79,9.99,0,11.57l-100.81,57.35-34.74-53.29c-3.25-6.24-1.4-10.6,1.26-12.39,3.2-2.16,9.05-3.17,13.15,3.05l23.81,37.43,87.23-49.54c2.79-1.59,7.31,1.02,10.09,5.83Z"/></g><path id="SYMBOLS-2" class="cls-135" d="M594.74,1541.5c2.79,4.8,2.79,9.99,0,11.57l-100.81,57.35-34.74-53.29c-3.25-6.24-1.4-10.6,1.26-12.39,3.2-2.16,9.05-3.17,13.15,3.05l23.81,37.43,87.23-49.54c2.79-1.59,7.31,1.02,10.09,5.83Z"/></g></g></g></g></g><g id="Rubrik"><g id="Rubrik_Cloud"><g id="Base-Dark"><path class="cls-132" d="M406.42,1021.78l256.82-151.79c3.81-2.2,9.05-3.16,14.43-2.93.92-.03,1.84-.04,2.78,0,.92-.03,1.84-.04,2.78,0,.92-.03,1.84-.04,2.78,0,.92-.03,1.84-.04,2.78,0,.92-.03,1.84-.04,2.78,0,.92-.03,1.84-.04,2.78,0,.92-.03,1.84-.04,2.78,0,.92-.03,1.84-.04,2.78,0,.92-.03,1.84-.04,2.78,0,.92-.03,1.84-.04,2.78,0,.92-.03,1.84-.04,2.78,0,.92-.03,1.84-.04,2.78,0,.92-.03,1.84-.04,2.78,0,.92-.03,1.84-.04,2.78,0,.92-.03,1.84-.04,2.78,0,.92-.03,1.84-.04,2.78,0,.92-.03,1.84-.04,2.78,0,.92-.03,1.84-.04,2.78,0,.92-.03,1.84-.04,2.78,0,.92-.03,1.84-.04,2.78,0,6.18-.22,12.86,1.19,18,4.16l386.2,225.23c8.78,5.07,9.73,12.73,2.13,17.12l-256.82,151.79c-3.81,2.2-9.05,3.16-14.43,2.93-.92.03-1.84.04-2.78,0-.92.03-1.84.04-2.78,0-.92.03-1.84.04-2.78,0-.92.03-1.84.04-2.78,0-.92.03-1.84.04-2.78,0-.92.03-1.84.04-2.78,0-.92.03-1.84.04-2.78,0-.92.03-1.84.04-2.78,0-.92.03-1.84.04-2.78,0-.92.03-1.84.04-2.78,0-.92.03-1.84.04-2.78,0-.92.03-1.84.04-2.78,0-.92.03-1.84.04-2.78,0-.92.03-1.84.04-2.78,0-.92.03-1.84.04-2.78,0-.92.03-1.84.04-2.78,0-.92.03-1.84.04-2.78,0-.92.03-1.84.04-2.78,0-.92.03-1.84.04-2.78,0-.92.03-1.84.04-2.78,0-6.18.22-12.86-1.19-18-4.16l-386.2-225.23c-8.78-5.07-9.73-12.73-2.13-17.12Z"/><g class="cls-94"><path class="cls-18" d="M405,1027.57c-5.05,2.92-5.08,7.64-.06,10.56l384.75,222.55c5.02,2.92,13.18,2.92,18.23,0l259.27-150.88c5.05-2.92,5.08-7.64.06-10.56l-383.14-223.62c-5.02-2.92-13.18-2.91-18.23,0l-260.88,151.95Z"/></g><g class="cls-72"><path class="cls-22" d="M405,1027.57c-5.05,2.92-5.08,7.64-.06,10.56l384.75,222.55c5.02,2.92,13.18,2.92,18.23,0l259.27-150.88c5.05-2.92,5.08-7.64.06-10.56l-383.14-223.62c-5.02-2.92-13.18-2.91-18.23,0l-260.88,151.95Z"/></g><g class="cls-52"><path class="cls-21" d="M405,1027.57c-5.05,2.92-5.08,7.64-.06,10.56l384.75,222.55c5.02,2.92,13.18,2.92,18.23,0l259.27-150.88c5.05-2.92,5.08-7.64.06-10.56l-383.14-223.62c-5.02-2.92-13.18-2.91-18.23,0l-260.88,151.95Z"/></g><path class="cls-143" d="M1071.07,1103.8c0,1.93-1.26,3.85-3.81,5.31l-259.27,150.88c-5.06,2.92-13.21,2.92-18.24,0l-384.75-222.54c-2.49-1.45-3.74-3.35-3.75-5.24l-.07-33.62c0,1.54,665.99,76.91,665.99,76.91,1.74-1.01,2.89-2.23,3.43-3.52.09-.23.17-.48.23-.71.09-.36.14-.72.14-1.08l.08,33.6Z"/><path class="cls-133" d="M1070.99,1070.2c0,.36-.05.72-.14,1.08-.06.23-.14.48-.23.71-.55,1.29-1.69,2.51-3.43,3.52l-259.27,150.88c-5.05,2.91-13.21,2.91-18.23,0l-384.75-222.55c-.16-.09-.31-.19-.45-.28-.3-.19-.57-.38-.82-.58-1.65-1.3-2.47-2.84-2.47-4.39-.01-1.93,1.26-3.85,3.81-5.31l260.87-151.95c5.06-2.92,13.21-2.92,18.24-.01l383.14,223.63c2.51,1.45,3.75,3.35,3.75,5.26Z"/><g class="cls-127"><path class="cls-98" d="M675.02,846.09c2.17,0,4.26.46,5.59,1.23l381.85,222.88-258.01,150.15c-1.36.78-3.47,1.25-5.65,1.25s-4.26-.46-5.61-1.25l-383.43-221.79,259.61-151.22c1.36-.79,3.48-1.26,5.66-1.26M675.02,839.13c-3.3,0-6.61.73-9.14,2.19l-260.87,151.95c-2.54,1.46-3.82,3.39-3.81,5.31,0,1.54.82,3.09,2.47,4.39.26.2.52.39.82.58.14.09.29.19.45.28l384.75,222.55c2.51,1.46,5.8,2.18,9.1,2.18s6.6-.73,9.13-2.18l259.27-150.88c1.74-1.01,2.89-2.23,3.43-3.52.09-.23.17-.48.23-.71.09-.36.14-.72.14-1.08,0-1.9-1.24-3.81-3.75-5.26l-383.14-223.63c-2.51-1.45-5.8-2.18-9.1-2.18h0Z"/></g><path class="cls-98" d="M675.02,842.61c2.79,0,5.47.62,7.34,1.71l383.15,223.64c1.48.86,2.01,1.72,2.01,2.24,0,.07,0,.13-.04.24-.02.06-.04.14-.07.22-.27.6-.98,1.26-1.97,1.84l-259.26,150.88c-1.89,1.09-4.58,1.72-7.39,1.72s-5.48-.62-7.36-1.72l-384.76-222.56c-.09-.05-.17-.1-.25-.15l-.05-.04-.05-.03c-.18-.11-.35-.24-.49-.35-.72-.57-1.15-1.18-1.15-1.67,0-.5.53-1.4,2.08-2.28l260.86-151.94c1.9-1.1,4.6-1.73,7.4-1.73M675.02,839.13c-3.3,0-6.61.73-9.14,2.19l-260.87,151.95c-2.54,1.46-3.82,3.39-3.81,5.31,0,1.54.82,3.09,2.47,4.39.26.2.52.39.82.58.14.09.29.19.45.28l384.75,222.55c2.51,1.46,5.8,2.18,9.1,2.18s6.6-.73,9.13-2.18l259.27-150.88c1.74-1.01,2.89-2.23,3.43-3.52.09-.23.17-.48.23-.71.09-.36.14-.72.14-1.08,0-1.9-1.24-3.81-3.75-5.26l-383.14-223.63c-2.51-1.45-5.8-2.18-9.1-2.18h0Z"/></g><g id="screen"><polyline class="cls-131" points="888.37 1074.34 1002.27 1074.34 833.95 978.72 776.75 963.61 701.04 963.61"/><path class="cls-49" d="M699.75,879.28l184.72,107.35c3.54,2.06,9.3,2.06,12.87,0l23.65-13.66c1.79-1.03,2.69-2.39,2.68-3.75l.24,86.16c0,1.36-.89,2.71-2.68,3.75l-23.65,13.66c-3.57,2.06-9.32,2.06-12.87,0l-184.72-107.35c-1.76-1.02-2.64-2.36-2.64-3.69l-.24-86.16c0,1.34.88,2.67,2.64,3.69Z"/><path class="cls-53" d="M699.8,871.83c-3.57,2.06-3.59,5.39-.05,7.45l184.72,107.35c3.54,2.06,9.3,2.06,12.87,0l23.65-13.66c3.56-2.06,3.58-5.39.03-7.45l-184.72-107.35c-3.54-2.06-9.29-2.06-12.85,0l-23.65,13.66Z"/><path class="cls-126" d="M699.8,871.83c-3.57,2.06-3.59,5.39-.05,7.45l184.72,107.35c3.54,2.06,9.3,2.06,12.87,0l23.65-13.66c3.56-2.06,3.58-5.39.03-7.45l-184.72-107.35c-3.54-2.06-9.29-2.06-12.85,0l-23.65,13.66Z"/><path class="cls-71" d="M699.75,879.28l184.72,107.35c3.54,2.06,9.3,2.06,12.87,0l23.65-13.66c1.79-1.03,2.69-2.39,2.68-3.75l.24,86.16c0,1.36-.89,2.71-2.68,3.75l-23.65,13.66c-3.57,2.06-9.32,2.06-12.87,0l-184.72-107.35c-1.76-1.02-2.64-2.36-2.64-3.69l-.24-86.16c0,1.34.88,2.67,2.64,3.69Z"/><path class="cls-61" d="M699.75,879.28l184.72,107.35c3.54,2.06,9.3,2.06,12.87,0l23.65-13.66c1.79-1.03,2.69-2.39,2.68-3.75l.24,86.16c0,1.36-.89,2.71-2.68,3.75l-23.65,13.66c-3.57,2.06-9.32,2.06-12.87,0l-184.72-107.35c-1.76-1.02-2.64-2.36-2.64-3.69l-.24-86.16c0,1.34.88,2.67,2.64,3.69Z"/><path class="cls-60" d="M699.75,879.28l184.72,107.35c3.54,2.06,9.3,2.06,12.87,0l23.65-13.66c1.79-1.03,2.69-2.39,2.68-3.75l.24,86.16c0,1.36-.89,2.71-2.68,3.75l-23.65,13.66c-3.57,2.06-9.32,2.06-12.87,0l-184.72-107.35c-1.76-1.02-2.64-2.36-2.64-3.69l-.24-86.16c0,1.34.88,2.67,2.64,3.69Z"/><g class="cls-89"><path class="cls-47" d="M714.67,661.56c2.35-1.37,5.61-1.17,9.2.9l195.72,113c7.14,4.12,12.9,14.11,12.88,22.32l-.48,168.75c-.01,4.07-1.45,6.94-3.77,8.29l-10.61,6.12c2.32-1.35,3.76-4.21,3.77-8.29l.48-168.75c.02-8.21-5.74-18.2-12.88-22.32l-195.72-113c-3.6-2.08-6.85-2.27-9.2-.9l10.61-6.12Z"/><path class="cls-97" d="M713.26,668.57c-7.14-4.12-12.95-.82-12.97,7.39l-.48,168.75c-.02,8.2,5.74,18.19,12.89,22.32l195.72,113c7.14,4.12,12.94.81,12.97-7.39l.48-168.75c.02-8.21-5.74-18.2-12.88-22.32l-195.72-113Z"/></g><g id="Data_screen"><path class="cls-54" d="M722.72,806.87c0,5.12,3.65,11.88,8.53,14.7l47.91,27.66c4.47,2.58,8.53.73,8.53-4.85v-55.38c0-5.12-3.65-11.88-8.53-14.7l-48.31-27.89c-4.47-2.58-8.53-.73-8.53,4.85v55.38s.41.23.41.23Z"/><path class="cls-83" d="M759.38,852.22c0,1.95,1.39,4.53,3.25,5.6l18.25,10.54c1.7.98,3.25.28,3.25-1.85v-21.1c0-1.95-1.39-4.53-3.25-5.6l-18.41-10.63c-1.7-.98-3.25-.28-3.25,1.85v21.1s.15.09.15.09Z"/></g><polygon class="cls-76" points="855.99 811.05 855.99 796.81 868.41 803.98 868.41 818.23 855.99 811.05"/><polygon class="cls-74" points="839.34 801.44 839.34 787.2 851.77 794.37 851.77 808.62 839.34 801.44"/><polygon class="cls-82" points="839.34 825.41 839.34 811.16 851.77 818.34 851.77 832.58 839.34 825.41"/><polygon class="cls-4" points="872.63 868.59 872.63 854.35 885.06 861.52 885.06 875.77 872.63 868.59"/><polygon class="cls-75" points="822.69 839.76 822.69 825.51 835.12 832.69 835.12 846.93 822.69 839.76"/><polygon class="cls-65" points="855.99 882.94 855.99 868.7 868.41 875.87 868.41 890.12 855.99 882.94"/><polygon class="cls-84" points="822.69 863.72 822.69 849.48 835.12 856.65 835.12 870.89 822.69 863.72"/><polygon class="cls-95" points="872.63 916.52 872.63 902.27 885.06 909.45 885.06 923.69 872.63 916.52"/><polygon class="cls-81" points="839.34 897.3 839.34 883.05 851.77 890.23 851.77 904.47 839.34 897.3"/></g><g id="man_rubrik_cloud"><use width="269.17" height="73.98" transform="translate(462.29 953.46) scale(1.21)" xlink:href="#shadowsvgdark_2"/><g id="Layer1_1_FILL"><path class="cls-125" d="M565.79,959.56l-1.14,12.54,4.9,7.58c4.49,5.83,1.77,6.9-8.15,3.19-5.62-3-8.11-5.32-7.47-6.96l.46-16.36h11.4Z"/></g><path id="Layer1_2_1_STROKES" class="cls-20" d="M562.23,974.36l3.65-.68"/><path id="Layer1_3_1_STROKES" class="cls-20" d="M567.02,975.73l-3.42.91"/><g id="Layer1_4_FILL"><path class="cls-16" d="M582.96,844.1l1.4.61,5.59,9.66h-4.13l-2.86-10.27Z"/></g><g id="Layer1_5_MEMBER_0_FILL"><path class="cls-13" d="M598.19,854.06c1.32.54,2,1.57,2.04,3.1l.83,36.76c0,1.53-.98,2.52-2.95,2.98l-47.02-21.71c-1.32-.54-1.98-1.57-1.98-3.1l-2.83-36.57c1.29-1.65,2.6-2.21,3.91-1.67l48,20.21Z"/></g><g id="Layer1_5_MEMBER_1_FILL"><path class="cls-7" d="M598.45,858.55l.8,36.75c.03,1.54-.6,2.04-1.9,1.49l-48.02-20.22c-1.3-.55-1.96-1.59-2-3.13l-.8-36.75c-.03-1.54.6-2.04,1.9-1.49l48.02,20.22c1.3.55,1.96,1.59,2,3.13Z"/></g><path class="cls-88" d="M598.45,858.55l.8,36.75c.03,1.54-.6,2.04-1.9,1.49l-48.02-20.22c-1.3-.55-1.96-1.59-2-3.13l-.8-36.75c-.03-1.54.6-2.04,1.9-1.49l48.02,20.22c1.3.55,1.96,1.59,2,3.13Z"/><g id="Layer1_6_FILL"><path class="cls-16" d="M578.89,851.14l-2.43-7.47,1.7.61,5.59-2.19.67,4.31c.29.98.11,1.59-.55,1.82-.4.72-.68,1.24-.85,1.58l-1.46,4.56c-.78,2.16-1.68,1.09-2.67-3.22Z"/></g><g id="Layer1_7_FILL"><path class="cls-118" d="M561.03,729.47c6.01-4.89,11.27-4.57,15.79.97,8.3,14.66,9.76,42.4,4.37,83.22l3.28,30.92c-1.12,3.07-5.65,3.74-13.61,2l-9.84-56.31v-60.81Z"/></g><g id="Layer1_7_FILL-2"><path class="cls-28" d="M561.03,729.47c6.01-4.89,11.27-4.57,15.79.97,8.3,14.66,9.76,42.4,4.37,83.22l3.28,30.92c-1.12,3.07-5.65,3.74-13.61,2l-9.84-56.31v-60.81Z"/></g><g id="Layer1_8_FILL"><path class="cls-107" d="M546.17,820.91l28.22-6.84c7.62,52.26,4.68,103.58-8.84,153.95-.6,2.04-.89,3.12-.86,3.25-4.48,1.2-8.06.42-10.72-2.34-2.79-22.7-2.44-42.93,1.03-60.67-7.63-33.41-10.58-62.53-8.84-87.35Z"/></g><g id="Layer1_9_FILL"><path class="cls-125" d="M525.21,981.01l-1.14,12.54,4.9,7.58c4.49,5.83,1.77,6.9-8.15,3.19-5.62-3-8.11-5.32-7.47-6.96l.46-16.36h11.4Z"/></g><path id="Layer1_10_1_STROKES" class="cls-20" d="M521.67,995.94l3.65-.68"/><path id="Layer1_11_1_STROKES" class="cls-20" d="M526.46,997.31l-3.42.91"/><path class="cls-43" d="M548.84,876.82s1.97,11.06,2.57,14.21c0,0,2.57-13.6,0-29.86l-3.38-.4.81,16.06Z"/><g id="Layer1_12_FILL"><path class="cls-107" d="M519.14,813.13c3.48,4.16,6.06,4.96,7.75,2.39l29.36,5.7c-6.94,62.6-17.16,119.09-30.68,169.46-.6,2.04-.89,3.12-.86,3.25-4.48,1.2-8.06.42-10.72-2.34-3.46-39.63-2.11-66.54,4.05-80.74-4.74-46.98-4.38-79.56,1.08-97.73Z"/></g><path class="cls-40" d="M518.05,910.86c-4.74-46.98-4.38-79.56,1.08-97.73,3.48,4.16,6.06,4.96,7.75,2.39l23.06,4.48,24.44-5.92c7.62,52.26,4.68,103.58-8.84,153.95-.6,2.04-.89,3.12-.86,3.25-4.48,1.2-8.06.42-10.72-2.34-2.79-22.7-2.44-42.93,1.03-60.67-2.51-10.99-4.5-21.51-6-31.57-6.22,40.95-14.02,78.95-23.42,113.98-.6,2.04-.89,3.12-.86,3.25-4.48,1.2-8.06.42-10.72-2.34-3.46-39.63-2.11-66.54,4.05-80.74Z"/><g id="Layer1_14_FILL"><path class="cls-58" d="M537.16,731.84c.2.65.41,1.3.61,1.94-.19-.65-.37-1.29-.55-1.94l-.06-.06h.06c6.54-2.92,12.63-4.99,18.29-6.2,11.38-2.43,18.06.47,20.05,8.69,2.51,9.67,2.21,35.19-.91,76.54.53,5.65-2.92,9.45-10.33,11.42-20.49,6.54-35.74,4.55-45.74-5.95-.4-.15-.47-3.07-.18-8.75l-6.74-53.64c-.81-4.78.71-8.28,4.56-10.51,7.45-4.74,14.44-8.59,20.96-11.54Z"/></g><g id="Layer1_15_FILL"><path class="cls-134" d="M553.98,702.43c-1.05-1.05-1.58-2.33-1.58-3.83,0-1.5.53-2.77,1.58-3.83,1.05-1.05,2.33-1.58,3.83-1.58s2.77.53,3.83,1.58c1.05,1.05,1.58,2.33,1.58,3.83,0,1.5-1.13,3.58-3.4,6.26-2.27,2.67-3.54,3.2-3.83,1.58-.28-1.62-.95-2.95-2-4.01Z"/></g><g id="Layer1_16_FILL"><path class="cls-123" d="M557.54,695.04c1.72,1.34,2.39,3.55,2,6.61-.41,1.97-.22,4.38.57,7.24-.05,4.87-1.61,7.77-4.68,8.72l1.25,10.38s-.08-.04-.11-.06c.72,5.6.77,8.56.17,8.89-3.19,4.06-9.14,2.19-17.85-5.59.97-6.14,2-12.37,3.08-18.7-.8-1.86-1.51-3.88-2.11-6.04-1.06-4.63-.93-8.01.4-10.15,4.79-5.54,10.55-5.98,17.28-1.31Z"/></g><g id="Layer1_17_FILL"><path class="cls-111" d="M555.15,717.91l.34.06.23,2.17c-2.58.25-5.47-.85-8.67-3.31,3.32,1.22,6.02,1.58,8.1,1.08Z"/></g><path class="cls-41" d="M529.28,760.1c0,16.1.09,37.5-11.26,44.51l-2.8-22.25,14.06-22.25Z"/><g id="Layer1_18_FILL"><path class="cls-118" d="M512.31,746.29c2.35-1.66,4.88-2.09,7.59-1.28,2.67.81,4.86,2.61,6.56,5.41,4.21,6.97,3.75,15.75-1.4,26.36l-19.2,30.86,34.87,27.21c-1.54,3.92-5.18,6.23-10.93,6.93-29.88-11.56-46-20.93-48.35-28.13,6.12-31.62,16.41-54.07,30.86-67.37Z"/></g><g id="Layer1_18_FILL-2"><path class="cls-26" d="M512.31,746.29c2.35-1.66,4.88-2.09,7.59-1.28,2.67.81,4.86,2.61,6.56,5.41,4.21,6.97,3.75,15.75-1.4,26.36l-19.2,30.86,34.87,27.21c-1.54,3.92-5.18,6.23-10.93,6.93-29.88-11.56-46-20.93-48.35-28.13,6.12-31.62,16.41-54.07,30.86-67.37Z"/></g><g id="Layer1_19_FILL"><path class="cls-51" d="M538.49,693.99c-.04-1.42.45-2.73,1.46-3.95,1.05-1.21,2.92-2.07,5.59-2.55,1.12-.22,2.17-.32,3.16-.3.32-.25.85-.37,1.58-.36,1.1,0,2.39.27,3.89.79.34.15.64.31.91.49.57-.32,1.21-.49,1.94-.49,1.13,0,2.33.34,3.58,1.03,1.25.7,1.72,1.65,1.4,2.86-.32,1.2-.95,2.22-1.88,3.04-.93.81-1.96,1.22-3.1,1.21-1.11,0-2.04-.38-2.79-1.15v.18c0,.89-.3,1.64-.91,2.25-.61.61-2.06,1.48-4.37,2.61-.4.18-.74.32-1.03.43.07.36.15.7.24,1.03.32,1.57.48,2.65.49,3.22,0,.57-.18,1.03-.55,1.4-.4.41-.89.61-1.46.61-.2,0-.38-.02-.55-.06l-1.82-4.86h-.18c-.93,0-1.56.34-1.88,1.03-.28.69-.16,1.62.36,2.79.39.86,1.26,1.61,2.61,2.25-.12.21-.24.41-.36.61-.52.81-1.19,1.16-2,1.03.16,1.35.24,2.22.24,2.61,0,.57-.18,1.03-.55,1.4-.4.41-1.84-.83-4.31-3.71-1.49-1.73-2-3.35-1.52-4.86-.07-.03-.13-.07-.18-.12-1.01-1.01-1.52-2.23-1.52-3.64s.51-2.63,1.52-3.64c.7-.7,1.51-1.17,2.43-1.4-.25-.56-.39-1.15-.43-1.76Z"/></g><path id="Layer1_20_1_STROKES" class="cls-17" d="M543.11,832.62c-3.84,6.07-8.92,9.31-15.25,9.72"/></g><g id="woman_rubrik_cloud"><use width="269.17" height="73.98" transform="translate(597.63 1064.69) scale(1.21)" xlink:href="#shadowsvgdark_2"/><g id="Layer1_0_FILL"><path class="cls-111" d="M736.42,826.84c.44-.17,1.26.89,2.45,3.19.1.75-.21,1.79-.93,3.14.06.36-2.04.64-6.3.82,1.59-.39,1.45-.94-.4-1.66l-3.43,1.05,1.36-3.65,7.26-2.9Z"/></g><g id="Layer1_13_FILL"><path class="cls-123" d="M727.46,838.83l-2.05-7.66c3.99-3.04,6.93-4.94,8.84-5.7,1.22-.38,2.68-.73,4.39-1.05,1.62-.29,2.6-.39,2.94-.31.41.96-.08,1.64-1.48,2.04-2.47.79-4.46,1.67-5.99,2.64l-2.86,2.88,4.92-.84c.67-.16.78.26.33,1.25l-4.37,3.03c-1.58,1.58-3.13,2.82-4.66,3.71Z"/></g><g id="Layer1_21_FILL"><path class="cls-86" d="M683.81,1123.07c-3.35.81-5.04.46-5.06-1.07v-10.29l8.54,2.74c10.09-.94,14.87-.49,14.33,1.36-3.41,2.84-9.35,5.26-17.81,7.26Z"/></g><g id="Layer1_22_FILL"><path class="cls-86" d="M650.76,1106.61c-3.35.81-5.04.46-5.06-1.07v-10.29l8.54,2.74c10.09-.94,14.87-.49,14.33,1.36-3.41,2.84-9.35,5.26-17.81,7.26Z"/></g><g id="Layer1_23_FILL"><path class="cls-63" d="M650.14,957.12c-4.15-34.11,5.39-45.18,28.61-33.21,5.12,14.99,7.01,36.61,5.69,64.87-1.34,28.24-11.06,64.4-29.17,108.49-3.05,2.9-6.42,2.98-10.12.22,2.78-41.23,7.39-68.55,13.85-81.96-6.8-20.04-9.75-39.5-8.86-58.41Z"/></g><g id="Layer1_23_FILL-2"><path class="cls-80" d="M650.14,957.12c-4.15-34.11,5.39-45.18,28.61-33.21,5.12,14.99,7.01,36.61,5.69,64.87-1.34,28.24-11.06,64.4-29.17,108.49-3.05,2.9-6.42,2.98-10.12.22,2.78-41.23,7.39-68.55,13.85-81.96-6.8-20.04-9.75-39.5-8.86-58.41Z"/></g><g id="Layer1_24_FILL"><path class="cls-39" d="M684.7,981.66v.1c-.07,2.3-.15,4.64-.27,7.02-.67,14.22-3.47,30.45-8.4,48.68l-7.94-63.08,16.6,7.29Z"/></g><g id="Layer1_25_FILL"><path class="cls-63" d="M698.8,936.03c6.28,14.55,9.86,35.95,10.72,64.22.87,28.28-6.01,65.09-20.62,110.45-.26,1.39-.96,2.49-2.11,3.32-1.02.74-2.19,1.15-3.51,1.23-1.31.06-2.39-.21-3.24-.82-.92-.66-1.32-1.57-1.19-2.74-.46-41.3,2-68.89,7.38-82.76l-26.43-80.07c-5.52-16.74,7.48-21.01,38.99-12.83Z"/></g><g id="Layer1_25_FILL-2"><path class="cls-109" d="M698.8,936.03c6.28,14.55,9.86,35.95,10.72,64.22.87,28.28-6.01,65.09-20.62,110.45-.26,1.39-.96,2.49-2.11,3.32-1.02.74-2.19,1.15-3.51,1.23-1.31.06-2.39-.21-3.24-.82-.92-.66-1.32-1.57-1.19-2.74-.46-41.3,2-68.89,7.38-82.76l-26.43-80.07c-5.52-16.74,7.48-21.01,38.99-12.83Z"/></g><g id="Layer1_27_FILL"><path class="cls-29" d="M653.85,865.17c-2.43-7.42-.49-11.94,5.82-13.57,10.77,1.55,23.31,5.48,37.6,11.8,10.62-13.21,20.23-24.32,28.82-33.35,1.26.11,2.19,2.68,2.79,7.72-5.24,15.74-14.54,29.69-27.92,41.86-8.78,1.25-24.49-3.57-47.12-14.45Z"/></g><g id="Layer1_27_FILL-2"><path class="cls-27" d="M653.85,865.17c-2.43-7.42-.49-11.94,5.82-13.57,10.77,1.55,23.31,5.48,37.6,11.8,10.62-13.21,20.23-24.32,28.82-33.35,1.26.11,2.19,2.68,2.79,7.72-5.24,15.74-14.54,29.69-27.92,41.86-8.78,1.25-24.49-3.57-47.12-14.45Z"/></g><g id="Layer1_28_MEMBER_0_FILL"><path class="cls-130" d="M683.94,847.25l.3-.09.29,2.03c-2.37.4-5.06-.41-8.06-2.42,3.09.9,5.58,1.06,7.47.48Z"/></g><g id="Layer1_28_MEMBER_1_FILL"><path class="cls-123" d="M672.88,842.25c-1.27-4.17-1.34-7.24-.21-9.21,3.88-5.41,9-6.22,15.37-2.42,1.64,1.12,2.4,3.06,2.26,5.82-.05.88.07,1.82.37,2.81l1.19,3.38c.18,2.01-.13,3.84-.93,5.49-.83,1.55-1.94,2.54-3.32,2.97.9,8.33.1,17.58-2.43,27.75l-14.27-11.58c2.54-8.55,4-15.12,4.39-19.72l-2.43-5.28Z"/></g><g id="Layer1_28_MEMBER_2_FILL"><path class="cls-31" d="M687.62,851.27l-2.98-.72c1.88.27,3.89-.4,6.06-2.01-.69,1.3-1.71,2.2-3.07,2.73Z"/></g><g id="Layer1_29_FILL"><path class="cls-29" d="M650.67,860.32c1.54-6.97,5.61-9.78,12.21-8.44,17.54,8.67,30.5,16.87,38.88,24.6,4.54,6.44,5.04,13.97,1.52,22.6,5.31,20.65,8.04,43.43,8.2,68.34-14.89,3.82-28.23,5.14-40.03,3.95-2.28-4.13-4.24-9.56-5.89-16.28-1.88,5.1-3.27,9.96-4.19,14.58-7.19-1.74-13.71-4.55-19.56-8.44,1.7-14.34,5.08-26.08,10.14-35.23-1.74-20.82-2.17-42.71-1.28-65.67Z"/></g><g id="Layer1_30_FILL"><path class="cls-42" d="M689.62,830.59c.76,2.08-.07,3.47-2.5,4.14,1.89,5.31.73,7.31-3.48,5.98,4.01,4.15,3.68,12.24-.98,24.26-4.67,12.05-9.87,19.11-15.58,21.18-5.7,2.07-10.53-.18-14.49-6.74-4.02-6.53-3.86-11.29.46-14.28,4.33-3,7.77-5.98,10.3-8.94,2.49-2.95,4.24-6.32,5.25-10.09,1.11-4.4,1.96-7.76,2.55-10.08.74-2.93,2.65-5.29,5.71-7.09,3.02-1.82,5.73-2.53,8.12-2.12,2.34.45,3.89,1.71,4.65,3.8Z"/></g><g id="Layer1_31_FILL"><path class="cls-51" d="M681.63,824.12c2.37.45,4.68,1.24,6.92,2.38,4.23,2.23,3.77,4.52-1.39,6.86.92,4.86-.76,6.88-5.03,6.08,4.84,6.66,4.02,16.84-2.48,30.55-2.84,5.2-7.31,8.6-13.41,10.19-8.24,1.94-14.14.2-17.7-5.2-3.56-5.36-3.18-9.54,1.15-12.53,4.33-3,7.77-5.98,10.3-8.94,2.49-2.95,4.24-6.32,5.25-10.09,1.11-4.4,1.96-7.76,2.55-10.08.74-2.93,2.65-5.29,5.71-7.09,3.02-1.82,5.72-2.52,8.12-2.12Z"/></g><g id="Layer1_32_FILL"><path class="cls-16" d="M762.44,857.63c2.76,4.16,2.97,8.01.63,11.54l-4.98,7.62-2.32,5.52-3.53-6.28c.35-7.02,1.08-12.62,2.2-16.8,1.27-.36,1.52,1.36.73,5.18l8.01-12c1.53-.51,1.28,1.23-.75,5.23Z"/></g><g id="Layer1_33_FILL"><path class="cls-38" d="M703.28,899.07c2.65,10.31,4.65,21.15,6.01,32.5v.12c-13.79-13.83-22.23-30.29-25.33-49.39l21.5,3.83c.43,4.01-.3,8.32-2.19,12.94Z"/></g><g id="Layer1_34_FILL"><path class="cls-29" d="M752.69,868.88c2.1.36,4.02,3.02,5.75,7.98-10.39,29.89-18.32,46.49-23.81,49.81-9.82-2.02-20.64-8.42-32.46-19.21-13.45-13.57-19.76-24.02-18.92-31.34.32-2.74,1.41-4.8,3.26-6.19,1.77-1.32,3.55-1.68,5.35-1.07,2.78.94,8.27,5.31,16.47,13.13,6.86,6.54,13.88,13.75,21.06,21.63,1.66-3.94,9.42-15.52,23.31-34.74Z"/></g></g><g id="Rubrik_Blue"><g id="Clloud"><g id="Cloud"><path class="cls-44" d="M1020.95,125.52c-121.7-68.61-220.22-11.43-220.62,128.8-.4,141.27,98.94,313.31,221.87,384.29l492.06,284.09c100.1,57.8,181.51,11.4,181.84-103.62.3-107.16-69.88-236.09-160.43-299.94-29.18-160.11-140.77-331.07-274.29-408.16-101.25-58.46-190.24-48.57-240.43,14.54Z"/><g class="cls-3"><path class="cls-44" d="M1134.53,77.06c18.82,0,38.75,3.13,59.25,9.32,21.2,6.39,43.13,16.09,65.16,28.81,32.3,18.65,63.96,43.22,94.1,73.03,29.18,28.86,56.29,61.97,80.56,98.41,24.07,36.12,44.65,74.44,61.19,113.92,16.82,40.15,28.96,80.34,36.09,119.47l.36,1.96,1.62,1.15c43.41,30.61,83.47,77.51,112.8,132.06,29.53,54.91,45.71,113.12,45.56,163.9-.11,38.24-9.44,69.96-26.99,91.75-16.8,20.86-40.55,31.89-68.66,31.89-24.53,0-51.07-8.15-78.9-24.21l-492.06-284.09c-121.4-70.09-219.84-240.58-219.44-380.06.13-47.22,11.68-86.42,33.39-113.37,20.85-25.89,50.3-39.58,85.19-39.57,29.52,0,61.41,9.55,94.8,28.37l3.61,2.04,2.58-3.24c26.78-33.68,64.74-51.49,109.78-51.49M1134.53,72.2c-46.65,0-85.99,18.61-113.59,53.32-34.88-19.67-67.88-29-97.19-29-72.95,0-123.15,57.76-123.44,157.8-.4,141.27,98.94,313.31,221.87,384.29l492.06,284.09c29.22,16.87,56.85,24.86,81.33,24.86,59.4,0,100.28-47.03,100.51-128.48.3-107.16-69.88-236.09-160.43-299.94-29.18-160.11-140.77-331.07-274.29-408.16-45.57-26.31-88.66-38.78-126.84-38.78h0Z"/></g><g class="cls-48"><path class="cls-44" d="M1134.53,89.2c17.63,0,36.38,2.96,55.74,8.8,20.31,6.12,41.37,15.44,62.6,27.7,31.4,18.13,62.23,42.07,91.63,71.14,28.6,28.28,55.17,60.75,79,96.51,47.7,71.58,81.59,152.85,95.44,228.83l1.25,6.84,5.68,4.01c41.9,29.54,80.65,74.96,109.1,127.88,28.59,53.16,44.25,109.31,44.12,158.11-.1,35.45-8.5,64.55-24.3,84.16-14.42,17.9-34.89,27.36-59.2,27.36-22.05,0-47.24-7.81-72.83-22.58l-492.06-284.09c-28.61-16.52-56.43-39.07-82.69-67.04-25.58-27.23-48.54-58.36-68.27-92.52-19.72-34.16-35.17-69.57-45.92-105.24-11.03-36.63-16.58-71.86-16.49-104.71.13-44.43,10.74-81.01,30.7-105.79,18.47-22.93,44.65-35.05,75.72-35.05,27.01,0,57.73,9.27,88.83,26.81l12.64,7.12,9.03-11.36c24.39-30.68,59.07-46.9,100.27-46.9M1134.53,72.2c-46.65,0-85.99,18.61-113.59,53.32-34.88-19.67-67.88-29-97.19-29-72.95,0-123.15,57.76-123.44,157.8-.4,141.27,98.94,313.31,221.87,384.29l492.06,284.09c29.22,16.87,56.85,24.86,81.33,24.86,59.4,0,100.28-47.03,100.51-128.48.3-107.16-69.88-236.09-160.43-299.94-29.18-160.11-140.77-331.07-274.29-408.16-45.57-26.31-88.66-38.78-126.84-38.78h0Z"/></g><g id="cloud"><g class="cls-89"><path class="cls-30" d="M865.26,111.54l85.63-49.76c39.88-23.18,94.9-20.3,155.69,13.98l-85.63,49.76c-60.79-34.27-115.8-37.16-155.69-13.98Z"/><path class="cls-57" d="M1728.86,885.56l-85.63,49.76c32.53-18.91,52.71-59.11,52.87-116.25.3-107.16-69.88-236.09-160.43-299.94l85.63-49.76c90.55,63.85,160.73,192.78,160.43,299.94-.16,57.14-20.33,97.34-52.87,116.25Z"/><path class="cls-5" d="M1347,61.21c-78.56-45.36-149.74-49.57-201.14-19.7l-85.63,49.76c51.4-29.87,122.58-25.66,201.14,19.7,133.52,77.09,245.12,248.05,274.29,408.16l85.63-49.76c-29.18-160.11-140.77-331.07-274.29-408.16Z"/><path class="cls-101" d="M1020.95,125.52c-121.7-68.61-220.22-11.43-220.62,128.8-.4,141.27,98.94,313.31,221.87,384.29l492.06,284.09c100.1,57.8,181.51,11.4,181.84-103.62.3-107.16-69.88-236.09-160.43-299.94-29.18-160.11-140.77-331.07-274.29-408.16-101.25-58.46-190.24-48.57-240.43,14.54Z"/><g class="cls-3"><path class="cls-44" d="M1134.53,77.06c18.82,0,38.75,3.13,59.25,9.32,21.2,6.39,43.13,16.09,65.16,28.81,32.3,18.65,63.96,43.22,94.1,73.03,29.18,28.86,56.29,61.97,80.56,98.41,24.07,36.12,44.65,74.44,61.19,113.92,16.82,40.15,28.96,80.34,36.09,119.47l.36,1.96,1.62,1.15c43.41,30.61,83.47,77.51,112.8,132.06,29.53,54.91,45.71,113.12,45.56,163.9-.11,38.24-9.44,69.96-26.99,91.75-16.8,20.86-40.55,31.89-68.66,31.89-24.53,0-51.07-8.15-78.9-24.21l-492.06-284.09c-121.4-70.09-219.84-240.58-219.44-380.06.13-47.22,11.68-86.42,33.39-113.37,20.85-25.89,50.3-39.58,85.19-39.57,29.52,0,61.41,9.55,94.8,28.37l3.61,2.04,2.58-3.24c26.78-33.68,64.74-51.49,109.78-51.49M1134.53,72.2c-46.65,0-85.99,18.61-113.59,53.32-34.88-19.67-67.88-29-97.19-29-72.95,0-123.15,57.76-123.44,157.8-.4,141.27,98.94,313.31,221.87,384.29l492.06,284.09c29.22,16.87,56.85,24.86,81.33,24.86,59.4,0,100.28-47.03,100.51-128.48.3-107.16-69.88-236.09-160.43-299.94-29.18-160.11-140.77-331.07-274.29-408.16-45.57-26.31-88.66-38.78-126.84-38.78h0Z"/></g><g class="cls-48"><path class="cls-44" d="M1134.53,89.2c17.63,0,36.38,2.96,55.74,8.8,20.31,6.12,41.37,15.44,62.6,27.7,31.4,18.13,62.23,42.07,91.63,71.14,28.6,28.28,55.17,60.75,79,96.51,47.7,71.58,81.59,152.85,95.44,228.83l1.25,6.84,5.68,4.01c41.9,29.54,80.65,74.96,109.1,127.88,28.59,53.16,44.25,109.31,44.12,158.11-.1,35.45-8.5,64.55-24.3,84.16-14.42,17.9-34.89,27.36-59.2,27.36-22.05,0-47.24-7.81-72.83-22.58l-492.06-284.09c-28.61-16.52-56.43-39.07-82.69-67.04-25.58-27.23-48.54-58.36-68.27-92.52-19.72-34.16-35.17-69.57-45.92-105.24-11.03-36.63-16.58-71.86-16.49-104.71.13-44.43,10.74-81.01,30.7-105.79,18.47-22.93,44.65-35.05,75.72-35.05,27.01,0,57.73,9.27,88.83,26.81l12.64,7.12,9.03-11.36c24.39-30.68,59.07-46.9,100.27-46.9M1134.53,72.2c-46.65,0-85.99,18.61-113.59,53.32-34.88-19.67-67.88-29-97.19-29-72.95,0-123.15,57.76-123.44,157.8-.4,141.27,98.94,313.31,221.87,384.29l492.06,284.09c29.22,16.87,56.85,24.86,81.33,24.86,59.4,0,100.28-47.03,100.51-128.48.3-107.16-69.88-236.09-160.43-299.94-29.18-160.11-140.77-331.07-274.29-408.16-45.57-26.31-88.66-38.78-126.84-38.78h0Z"/></g></g></g><path class="cls-36" d="M1020.95,125.52c-121.7-68.61-220.22-11.43-220.62,128.8-.4,141.27,98.94,313.31,221.87,384.29l492.06,284.09c100.1,57.8,181.51,11.4,181.84-103.62.3-107.16-69.88-236.09-160.43-299.94-29.18-160.11-140.77-331.07-274.29-408.16-101.25-58.46-190.24-48.57-240.43,14.54Z"/><g class="cls-3"><path class="cls-44" d="M1134.53,77.06c18.82,0,38.75,3.13,59.25,9.32,21.2,6.39,43.13,16.09,65.16,28.81,32.3,18.65,63.96,43.22,94.1,73.03,29.18,28.86,56.29,61.97,80.56,98.41,24.07,36.12,44.65,74.44,61.19,113.92,16.82,40.15,28.96,80.34,36.09,119.47l.36,1.96,1.62,1.15c43.41,30.61,83.47,77.51,112.8,132.06,29.53,54.91,45.71,113.12,45.56,163.9-.11,38.24-9.44,69.96-26.99,91.75-16.8,20.86-40.55,31.89-68.66,31.89-24.53,0-51.07-8.15-78.9-24.21l-492.06-284.09c-121.4-70.09-219.84-240.58-219.44-380.06.13-47.22,11.68-86.42,33.39-113.37,20.85-25.89,50.3-39.58,85.19-39.57,29.52,0,61.41,9.55,94.8,28.37l3.61,2.04,2.58-3.24c26.78-33.68,64.74-51.49,109.78-51.49M1134.53,72.2c-46.65,0-85.99,18.61-113.59,53.32-34.88-19.67-67.88-29-97.19-29-72.95,0-123.15,57.76-123.44,157.8-.4,141.27,98.94,313.31,221.87,384.29l492.06,284.09c29.22,16.87,56.85,24.86,81.33,24.86,59.4,0,100.28-47.03,100.51-128.48.3-107.16-69.88-236.09-160.43-299.94-29.18-160.11-140.77-331.07-274.29-408.16-45.57-26.31-88.66-38.78-126.84-38.78h0Z"/></g><g class="cls-48"><path class="cls-44" d="M1134.53,89.2c17.63,0,36.38,2.96,55.74,8.8,20.31,6.12,41.37,15.44,62.6,27.7,31.4,18.13,62.23,42.07,91.63,71.14,28.6,28.28,55.17,60.75,79,96.51,47.7,71.58,81.59,152.85,95.44,228.83l1.25,6.84,5.68,4.01c41.9,29.54,80.65,74.96,109.1,127.88,28.59,53.16,44.25,109.31,44.12,158.11-.1,35.45-8.5,64.55-24.3,84.16-14.42,17.9-34.89,27.36-59.2,27.36-22.05,0-47.24-7.81-72.83-22.58l-492.06-284.09c-28.61-16.52-56.43-39.07-82.69-67.04-25.58-27.23-48.54-58.36-68.27-92.52-19.72-34.16-35.17-69.57-45.92-105.24-11.03-36.63-16.58-71.86-16.49-104.71.13-44.43,10.74-81.01,30.7-105.79,18.47-22.93,44.65-35.05,75.72-35.05,27.01,0,57.73,9.27,88.83,26.81l12.64,7.12,9.03-11.36c24.39-30.68,59.07-46.9,100.27-46.9M1134.53,72.2c-46.65,0-85.99,18.61-113.59,53.32-34.88-19.67-67.88-29-97.19-29-72.95,0-123.15,57.76-123.44,157.8-.4,141.27,98.94,313.31,221.87,384.29l492.06,284.09c29.22,16.87,56.85,24.86,81.33,24.86,59.4,0,100.28-47.03,100.51-128.48.3-107.16-69.88-236.09-160.43-299.94-29.18-160.11-140.77-331.07-274.29-408.16-45.57-26.31-88.66-38.78-126.84-38.78h0Z"/></g><path class="cls-93" d="M1728.86,885.56l-85.63,49.76c32.53-18.91,52.71-59.11,52.87-116.25.3-107.16-69.88-236.09-160.43-299.94l85.63-49.76c90.55,63.85,160.73,192.78,160.43,299.94-.16,57.14-20.33,97.34-52.87,116.25Z"/><path class="cls-92" d="M1347,61.21c-78.56-45.36-149.74-49.57-201.14-19.7l-85.63,49.76c51.4-29.87,122.58-25.66,201.14,19.7,133.52,77.09,245.12,248.05,274.29,408.16l85.63-49.76c-29.18-160.11-140.77-331.07-274.29-408.16Z"/><path class="cls-91" d="M868.99,109.47c.64-.34,1.3-.66,1.95-.98.64-.32,1.27-.65,1.92-.96.65-.31,1.32-.6,1.98-.9.66-.3,1.31-.61,1.98-.9.66-.28,1.33-.54,2-.81.68-.28,1.36-.56,2.04-.83.68-.26,1.37-.49,2.05-.74.69-.25,1.37-.51,2.07-.74.7-.24,1.42-.45,2.12-.67.69-.22,1.38-.45,2.08-.65.72-.21,1.45-.4,2.18-.59.7-.19,1.39-.39,2.1-.57.73-.18,1.48-.34,2.22-.51.71-.16,1.42-.34,2.14-.49.74-.16,1.5-.29,2.25-.43.73-.14,1.45-.29,2.18-.41.75-.13,1.52-.23,2.28-.35.74-.11,1.48-.24,2.23-.34.77-.1,1.55-.18,2.32-.26.75-.08,1.5-.18,2.25-.25.79-.07,1.6-.12,2.4-.18.75-.06,1.49-.13,2.25-.17.81-.05,1.63-.07,2.45-.1.75-.03,1.5-.07,2.26-.09.82-.02,1.64,0,2.46-.01.77,0,1.54-.02,2.32-.01.83.01,1.66.05,2.5.07.78.02,1.56.03,2.35.07.84.04,1.7.11,2.55.16.79.05,1.57.09,2.36.15.86.07,1.74.17,2.61.25.79.08,1.57.14,2.36.23.86.1,1.72.22,2.59.33.82.11,1.63.2,2.45.32.86.12,1.72.28,2.58.41.84.13,1.67.26,2.51.4.88.15,1.76.34,2.64.51.83.16,1.66.31,2.5.48.9.19,1.81.4,2.72.61.83.19,1.65.36,2.48.55.93.22,1.86.47,2.79.71.82.21,1.63.4,2.46.63.92.25,1.84.52,2.76.79.85.24,1.69.47,2.54.72.95.29,1.91.6,2.87.9.83.26,1.65.51,2.48.78.97.32,1.95.67,2.93,1.01.82.29,1.64.55,2.47.85.96.35,1.94.72,2.91,1.09.85.32,1.69.62,2.54.95,1,.39,2.01.81,3.01,1.22.83.34,1.65.65,2.48,1,.95.4,1.91.83,2.87,1.24.89.39,1.77.76,2.67,1.16.93.42,1.87.87,2.81,1.3.92.43,1.84.84,2.76,1.28,1.15.55,2.31,1.13,3.47,1.71.71.35,1.42.69,2.14,1.05,1.1.56,2.21,1.15,3.32,1.72.78.41,1.56.8,2.34,1.22.74.4,1.48.82,2.23,1.22,1.15.63,2.3,1.25,3.46,1.9h0c11.39-14.33,24.79-25.9,39.86-34.56-.19.11-.38.21-.57.32l36.13-20.99c-56.73-29.02-107.84-30.37-145.48-8.5l-85.63,49.76c.61-.36,1.24-.69,1.86-1.03.62-.35,1.24-.7,1.87-1.04Z"/></g></g><g id="Rubrik_Logo" class="cls-6"><path class="cls-103" d="M1202.75,379.71c-2.17,1.24-5.71-.8-7.88-4.55l-35.88-61.54c-2.17-3.75-2.17-7.8,0-9.04l35.61-20.57c2.17-1.24,5.71.8,7.88,4.55l35.61,61.38c2.17,3.75,2.17,7.8,0,9.04l-35.34,20.73Z"/><path class="cls-8" d="M1202.75,584.12c-2.17,1.24-5.71-.8-7.88-4.55l-35.88-61.54c-2.17-3.75-2.17-7.8,0-9.04l35.88-20.1c2.17-1.24,5.71.8,7.88,4.55l35.61,61.38c2.17,3.75,2.17,7.8,0,9.04l-35.61,20.26Z"/><path class="cls-11" d="M1291.91,533.39c-2.17,1.24-5.71-.8-7.88-4.55l-35.88-61.85c-2.17-3.75-2.17-7.8,0-9.04l35.88-20.1c2.17-1.24,5.71.8,7.88,4.55l35.61,61.38c2.17,3.75,2.17,7.8,0,9.04l-35.61,20.57Z"/><path class="cls-56" d="M1154.1,517.7c0-3.43-1.9-5.46-4.08-4.22l-15.77,8.97c-2.17,1.24-1.63,4.98,1.09,8.11l13.59,15.33c2.99,2.97,5.16,2.67,5.16-1.07v-27.11Z"/><path class="cls-141" d="M1262.28,604.16c2.72.01,3.26-3.1,1.09-6.85l-15.77-27.18c-2.17-3.75-4.08-3.91-4.08-.48v27.42c0,3.43,2.45,6.71,5.16,7.03l13.59.06Z"/><path class="cls-112" d="M1286.75,542.56c0-3.43-2.45-7.96-5.71-9.84l-32.08-18.52c-2.99-1.73-5.71-.49-5.71,3.25v36.77c0,3.43,2.45,7.96,5.71,9.84l32.35,18.68c2.99,1.73,5.71.49,5.71-3.25v-36.77s-.27-.16-.27-.16Z"/><path class="cls-102" d="M1315.29,428.48c-1.36-3.9-4.35-6.25-6.52-5.01l-15.77,8.97c-2.17,1.24-1.36,3.89,1.63,5.62l23.65,13.65c2.99,1.73,4.62-.14,3.53-3.88l-6.52-19.35Z"/><path class="cls-1" d="M1263.37,345.53c2.17-1.24,1.63-4.98-1.09-8.11l-13.59-15.33c-2.99-2.97-5.16-2.67-5.16,1.07v27.42c0,3.43,1.9,5.46,4.08,4.22l15.77-9.28Z"/><path class="cls-2" d="M1088.86,296.5c-2.17-3.75-5.16-4.85-6.52-2.52l-6.52,11.81c-1.09,2.8.27,6.08,3.53,7.96l23.92,13.81c2.99,1.73,3.81.02,1.63-3.73l-16.04-27.33Z"/><path class="cls-129" d="M1154.1,313.6c0-3.43-2.45-7.96-5.71-9.84l-32.35-18.68c-2.99-1.73-5.71-.49-5.71,3.25v36.77c0,3.43,2.45,7.96,5.71,9.84l32.35,18.68c2.99,1.73,5.71.49,5.71-3.25v-36.77Z"/><path class="cls-62" d="M1154.1,271.23c0-3.43-2.45-6.71-5.16-7.03l-13.59-.37c-2.72-.01-3.26,3.1-1.09,6.85l15.77,27.18c2.17,3.75,4.08,3.91,4.08.48v-27.11Z"/><path class="cls-142" d="M1321.81,562.18c1.09-2.8-.27-6.08-3.53-7.96l-23.92-13.81c-2.99-1.73-3.81-.02-1.63,3.73l15.77,27.18c2.17,3.75,5.16,4.85,6.52,2.52l6.8-11.66Z"/><path class="cls-69" d="M1154.1,465.98c0-3.43-2.45-7.96-5.71-9.84l-32.35-18.68c-2.99-1.73-5.71-.49-5.71,3.25v36.77c0,3.43,2.45,7.96,5.71,9.84l32.35,18.68c2.99,1.73,5.71.49,5.71-3.25v-36.77Z"/><path class="cls-85" d="M1104.63,435.54c2.17-1.24,1.36-3.89-1.63-5.62l-23.92-13.81c-2.99-1.73-4.62.14-3.53,3.88l6.52,19.35c1.36,3.9,4.35,6.25,6.52,5.01l16.04-8.81Z"/><path class="cls-90" d="M1286.75,427.27c0,3.43-2.45,5.13-5.71,3.25l-32.08-18.52c-2.99-1.73-5.71-6.1-5.71-9.84v-37.08c0-3.43,2.45-5.13,5.71-3.25l32.35,18.68c2.99,1.73,5.71,6.1,5.71,9.84v37.08s-.27-.16-.27-.16Z"/><path class="cls-140" d="M1113.6,430.44c-2.17,1.24-5.71-.8-7.88-4.55l-35.88-61.85c-2.17-3.75-2.17-7.8,0-9.04l35.88-20.1c2.17-1.24,5.71.8,7.88,4.55l35.61,61.38c2.17,3.75,2.17,7.8,0,9.04l-35.61,20.57Z"/></g></g><g id="Bulldog"><path class="cls-99" d="M892.79,1260.01c-9.3,5.37-24.43,5.34-33.79-.07-9.37-5.41-9.42-14.14-.12-19.51,9.3-5.37,24.43-5.34,33.79.07,9.37,5.41,9.42,14.14.12,19.51Z"/><path class="cls-128" d="M945.83,1248.38c.03,5.74-7.98,10.4-17.89,10.4h-46.98c-1.08,0-2.15-.05-3.18-.16-.3-.03-.59-.07-.88-.11-.29-.04-.58-.08-.86-.13-.28-.05-.56-.09-.85-.15-.28-.05-.55-.11-.82-.17-.51-.11-1.01-.25-1.5-.39-.16-.05-.32-.09-.48-.14-.25-.08-.5-.17-.75-.25-.25-.08-.49-.17-.73-.27-.48-.19-.94-.39-1.38-.6-.22-.11-.44-.21-.66-.33-.21-.11-.42-.23-.63-.35-.2-.12-.4-.24-.6-.36-.19-.12-.38-.25-.57-.38-.37-.25-.72-.52-1.04-.8-.16-.14-.32-.28-.47-.42-.15-.14-.3-.29-.44-.44-.07-.07-.14-.15-.2-.22-.25-.28-.47-.56-.67-.85-.07-.1-.14-.2-.21-.31-.05-.08-.1-.16-.15-.24-.09-.16-.18-.33-.27-.49-.08-.17-.16-.33-.22-.5-.07-.17-.13-.34-.18-.51-.03-.08-.05-.17-.08-.25-.05-.17-.08-.35-.12-.52-.06-.35-.09-.7-.1-1.06-.03-5.74,7.98-10.4,17.9-10.4h46.98c.16,0,.31,0,.46,0,.62.01,1.22.04,1.82.08.45.03.89.08,1.33.13.44.05.87.11,1.3.18.67.11,1.32.24,1.96.39.17.04.35.09.52.13.53.14,1.05.29,1.55.46.25.08.5.17.74.26,1.1.41,2.11.88,3.03,1.41,1.22.71,2.27,1.51,3.1,2.4.14.15.27.3.4.45.13.15.25.3.36.46.29.39.53.79.74,1.2.25.49.43,1,.55,1.52.08.35.13.7.14,1.05,0,.09,0,.18,0,.27Z"/><path class="cls-12" d="M933.75,1265.07c-24.34,14.05-63.94,13.97-88.45-.19-24.51-14.15-24.66-37.02-.32-51.07,24.34-14.05,63.94-13.97,88.45.19,24.51,14.15,24.66,37.02.32,51.07Z"/><path class="cls-121" d="M1072.58,1234.64c.09,15.04-20.88,27.22-46.83,27.21h-122.98c-2.84,0-5.62-.14-8.32-.42-.77-.08-1.54-.18-2.29-.28-.75-.1-1.51-.21-2.25-.34-.74-.12-1.48-.25-2.21-.4-.72-.14-1.45-.29-2.15-.46-1.34-.3-2.64-.65-3.92-1.01-.42-.13-.84-.25-1.26-.38-.66-.22-1.32-.44-1.98-.66-.65-.22-1.28-.46-1.91-.7-1.25-.49-2.46-1.01-3.62-1.57-.59-.28-1.15-.56-1.72-.85-.56-.29-1.1-.6-1.64-.9-.53-.31-1.05-.63-1.56-.94-.51-.32-1-.66-1.48-.99-.96-.66-1.88-1.37-2.72-2.09-.43-.36-.83-.72-1.23-1.1-.4-.38-.77-.75-1.14-1.14-.18-.19-.36-.39-.53-.58-.65-.72-1.24-1.47-1.77-2.23-.19-.27-.37-.54-.55-.8-.13-.21-.26-.42-.39-.63-.25-.43-.48-.85-.69-1.28-.21-.44-.41-.86-.59-1.31-.18-.44-.34-.88-.48-1.33-.07-.22-.14-.45-.2-.66-.12-.46-.22-.91-.31-1.37-.16-.91-.25-1.84-.26-2.78-.08-15.04,20.89-27.22,46.84-27.22h122.97c.41,0,.81,0,1.21,0,1.62.03,3.21.1,4.77.21,1.18.09,2.34.2,3.49.34,1.14.14,2.27.3,3.39.48,1.75.29,3.45.64,5.12,1.03.46.11.91.23,1.36.34,1.39.37,2.74.76,4.06,1.2.66.22,1.3.45,1.94.68,2.87,1.06,5.53,2.3,7.93,3.68,3.2,1.85,5.94,3.96,8.12,6.27.37.39.71.78,1.05,1.18.33.4.65.79.94,1.2.75,1.02,1.4,2.06,1.93,3.15.65,1.29,1.12,2.62,1.43,3.99.21.9.34,1.83.38,2.76,0,.24.02.47.02.7Z"/><g id="Layer1_0_FILL-2"><path class="cls-35" d="M923,1119.99c-2.87.64-6.14,2.06-9.81,4.27l-18.63-8.27c-1.43-1.03-2.66-1.25-3.68-.66-1.22,1.01-1.09,2.64.4,4.88,4.94,5.5,9.76,10.05,14.46,13.66.99,2.38,1.86,3.97,2.62,4.76l-8.53,19.13c-18.8,17.77-32.84,36.06-42.12,54.88-2.62,5.39-4.51,10.78-5.68,16.17-.03,5.01,1.57,10.01,4.78,15.02,5.11,5.57,10.79,9.79,17.05,12.65,6.02.33,12.45.04,19.29-.85,5.47-1.82,10.28-3.81,14.43-5.98,1.12-1.02,1.4-2.39.83-4.09-1.33-2.51-2.78-3.69-4.34-3.55l-2.36.11c1.01-1.12,1.78-2.42,2.31-3.9l-.1-6.52c1.71-1.25,3.42-3.37,5.13-6.35l.98,6.33c1.12,4.02,3.01,5.81,5.68,5.37l7.44-1.83c1.46-1.19,1.86-2.6,1.19-4.23-1.04-2-2.44-2.92-4.2-2.75l.84-5.23c2.57-4.37,4.28-9.62,5.12-15.75,4.05-5.25,7.21-10.51,9.47-15.76.96-7.61,1.32-15.39,1.09-23.35.69-4.02,2.14-8.03,4.33-12.05,2.8-1.12,5.38-3.34,7.74-6.67l3.22-7.04c.35-6.66-.59-12.45-2.81-17.36-.7-1.39-1.45-2.6-2.25-3.63-2.52-3.27-5.51-4.68-8.95-4.24l-6.83,3.28c-3.14-1.02-5.84-1.16-8.11-.43Z"/></g><path class="cls-66" d="M949.15,1125.02c-.7-1.39-1.45-2.6-2.25-3.63-2.52-3.27-5.51-4.68-8.95-4.24l-1.26.6s0,0,0,0l-5.58,2.67c-3.14-1.02-5.84-1.16-8.11-.43-2.87.64-6.14,2.06-9.81,4.27l-18.63-8.27c-1.43-1.03-2.66-1.25-3.68-.66-1.17.97-1.09,2.51.23,4.62.05.09.11.18.17.26,4.94,5.5,9.76,10.05,14.46,13.66.99,2.38,1.86,3.97,2.62,4.76l-2.5,5.6s0,0,0,0l-2.74,6.14s0,0,0,0l-3.3,7.39c-18.8,17.77-32.84,36.06-42.12,54.88-2.62,5.39-4.51,10.78-5.68,16.17-.03,5.01,1.57,10.01,4.78,15.02,5.11,5.57,10.79,9.79,17.05,12.65.19.01.38.02.57.03.97.05,1.94.08,2.93.09.63,0,1.26,0,1.89,0,.04,0,.09,0,.13,0,.05,0,.1,0,.16,0,3.45-.2,6.89-.4,10.33-.6.04,0,.09,0,.13-.01.07,0,.13-.01.2-.02.05,0,.11-.01.16-.02.14-.01.28-.03.43-.05.3-.03.61-.07.91-.1.08,0,.16-.02.24-.03.14-.02.28-.03.42-.05.14-.02.28-.03.43-.05.06,0,.11-.01.17-.02.07,0,.14-.02.21-.03,5.47-1.82,10.28-3.81,14.43-5.98,1.12-1.02,1.4-2.39.83-4.09-1.33-2.51-2.78-3.69-4.34-3.55l-2.36.11c1.01-1.12,1.78-2.42,2.31-3.9l-.1-6.52c1.71-1.25,3.42-3.37,5.13-6.35l.98,6.33c1.12,4.02,3.01,5.81,5.68,5.37l7.44-1.83c1.46-1.19,1.86-2.6,1.19-4.23-1.04-2-2.44-2.92-4.2-2.75l.84-5.23c2.57-4.37,4.28-9.62,5.12-15.75,4.05-5.25,7.21-10.51,9.47-15.76.96-7.61,1.32-15.39,1.09-23.35.14-.8.31-1.6.51-2.4l1.91-5.7c.56-1.31,1.19-2.63,1.9-3.94,2.8-1.12,5.38-3.34,7.74-6.67l3.22-7.04c.35-6.66-.59-12.45-2.81-17.36Z"/><g id="Layer1_5_FILL"><path class="cls-117" d="M907.48,1154.31c2.51,1.67,5.55,3.37,9.11,5.08,3.79,1.83,7.42,3.3,10.89,4.43,3.91,1.27,7.13,1.93,9.68,1.98l1.96-5.85c-2.3-.05-5.39-.79-9.27-2.2-3.37-1.23-6.99-2.83-10.86-4.8-3.54-1.8-6.58-3.55-9.12-5.24-2.56-1.7-3.89-2.87-4-3.51l-2.74,6.14c.32.92,1.77,2.23,4.35,3.95Z"/></g><path class="cls-9" d="M914.49,1131.26l1.59.81,8.91,5.17c4.35-5.37,5.62-9.73,3.79-13.08-.96-3-2.89-4.39-5.78-4.16-5.1,1.49-8.64,3.29-10.64,5.41l-4.22,5.15-17.26-15.22c-1.17.97-1.09,2.51.23,4.62.05.09.11.18.17.26,4.94,5.5,9.76,10.05,14.46,13.66.99,2.38,1.86,3.97,2.62,4.76l-8.53,19.13c-18.8,17.77-32.84,36.06-42.12,54.88-2.62,5.39-4.51,10.78-5.68,16.17-.03,5.01,1.57,10.01,4.78,15.02,5.11,5.57,10.79,9.79,17.05,12.65,1.8.1,3.64.14,5.52.13,4.39-.03,8.98-.35,13.77-.98,5.47-1.82,10.28-3.81,14.43-5.98-7.99-.72-15.43.23-22.3,2.87,4.7-6.02,6.56-11.75,5.58-17.19-4.37-8.12-9.41-11.56-15.12-10.3v-19.7c7.18-12.46,22.87-24.07,47.07-34.84h-11.46c13.19-10.56,21.42-19.56,24.68-27l-22.89-7.13-1.31-1.64c-1.01-2.93-.12-4.08,2.66-3.45Z"/><path class="cls-100" d="M914.49,1131.26l1.59.81,8.91,5.17c4.35-5.37,5.62-9.73,3.79-13.08-.96-3-2.89-4.39-5.78-4.16-5.1,1.49-8.64,3.29-10.64,5.41l-4.22,5.15-17.26-15.22c-1.17.97-1.09,2.51.23,4.62.05.09.11.18.17.26,4.94,5.5,9.76,10.05,14.46,13.66.99,2.38,1.86,3.97,2.62,4.76l-8.53,19.13c-18.8,17.77-32.84,36.06-42.12,54.88-2.62,5.39-4.51,10.78-5.68,16.17-.03,5.01,1.57,10.01,4.78,15.02,5.11,5.57,10.79,9.79,17.05,12.65.19.01.38.02.57.03.97.05,1.94.08,2.93.09.63,0,1.26,0,1.89,0,.04,0,.09,0,.13,0,.05,0,.1,0,.16,0,3.45-.2,6.89-.4,10.33-.6.04,0,.09,0,.13-.01.07,0,.13-.01.2-.02.05,0,.11-.01.16-.02.14-.01.28-.03.43-.05.3-.03.61-.07.91-.1.08,0,.16-.02.24-.03.14-.02.28-.03.42-.05.14-.02.28-.03.43-.05.06,0,.11-.01.17-.02.07,0,.14-.02.21-.03,5.47-1.82,10.28-3.81,14.43-5.98-7.99-.72-15.43.23-22.3,2.87,4.7-6.02,6.56-11.75,5.58-17.19-4.37-8.12-9.41-11.56-15.12-10.3v-19.7c7.18-12.46,22.87-24.07,47.07-34.84h-11.46c13.19-10.56,21.42-19.56,24.68-27-4.3,3.45-11.93,1.07-22.89-7.13l-1.31-1.64c-1.01-2.93-.12-4.08,2.66-3.45Z"/><path class="cls-138" d="M912.37,1125.4c.33-.32.56-.72.67-1.21l-18.47-8.2c-.84-.61-1.61-.93-2.31-.98.12.52.53,1.14,1.22,1.88,6.9,5.37,13.01,9.18,18.35,11.43l.53-2.92ZM924.59,1150.66l2.13-.8c2.82-.18,5.92-2.3,9.31-6.39l-10.78,3.99-5.87-7.64c-4.91-5.3-7.43-7-7.55-5.12,3,5.82,7.26,11.14,12.76,15.96ZM935.5,1143.21l2.13-.26-2.93-3.72-4.32-.33-15.89-7.65,21.01,11.96ZM935.58,1191.49c.02-.18.04-.35.06-.53l-.41.39c-6.03,9.43-12.05,17.5-18.08,24.19l4.08-2.36-1.95,18.31,5.29.2c-.05-.23-.13-.46-.22-.7-1.04-2-2.44-2.92-4.2-2.75l.84-5.23c2.57-4.37,4.28-9.62,5.12-15.75,4.05-5.25,7.21-10.51,9.47-15.76ZM901.94,1241.85c.89-1.04,1.57-2.24,2.06-3.59-.69,1.28-1.38,2.47-2.06,3.59M904.07,1242l-2.29.1c-2.13,3.43-4.24,6.07-6.31,7.93l10.22-5.66,1.58-.6c-1.01-1.28-2.07-1.87-3.2-1.77M913.9,1220.58l2.04-2.98c-4.14,1.52-7.82,1.07-11.04-1.34-6.69-2.22-12.67-2.62-17.95-1.2,3.91-.15,9.1,1.65,15.56,5.42.72,5.31,1.2,9.71,1.43,13.19l-.03-1.98c1.71-1.25,3.42-3.37,5.13-6.35l.98,6.33c.95,3.4,2.45,5.2,4.51,5.41l-.64-16.51ZM941,1156.09c2.8-1.12,5.38-3.34,7.74-6.67l2.83-6.19c-1.65,3.34-3.67,5.9-6.04,7.7-3.25,1.33-6.95,2.5-11.12,3.5,1.52,2.35,2.21,7,2.08,13.97l.18-.17s0-.06,0-.09c.69-4.02,2.14-8.03,4.33-12.05ZM936.54,1120.88c-1.51-.65-2.87-.73-4.1-.24l-5.53-1.41c6.43,3.02,12.05,6.76,16.87,11.25,1.54-2.51-.87-5.71-7.24-9.6Z"/><g id="Layer1_10_FILL"><path class="cls-96" d="M937.95,1117.15l-1.26.6c3.27,2.53,6.67,3.74,10.21,3.63-2.52-3.27-5.51-4.68-8.95-4.24Z"/></g><path class="cls-33" d="M908.14,1130.55l4.22-5.15c1.99-2.12,5.54-3.92,10.64-5.41-2.87.64-6.14,2.06-9.81,4.27l-18.63-8.27c-1.43-1.03-2.66-1.25-3.68-.66l17.26,15.22M916.08,1132.06l-1.59-.81c-2.78-.63-3.67.52-2.66,3.45l1.31,1.64,22.89,7.13c-3.26,7.45-11.49,16.45-24.68,27h11.46c-24.2,10.77-39.89,22.39-47.07,34.84v19.7c5.71-1.26,10.75,2.18,15.12,10.3.98,5.44-.88,11.16-5.58,17.19,6.87-2.64,14.31-3.59,22.3-2.87,1.12-1.02,1.4-2.39.83-4.09-1.33-2.51-2.78-3.69-4.34-3.55l-2.36.11c1.01-1.12,1.78-2.42,2.31-3.9l-.1-6.52c1.71-1.25,3.42-3.37,5.13-6.35l.98,6.33c1.12,4.02,3.01,5.81,5.68,5.37l7.44-1.83c1.46-1.19,1.86-2.6,1.19-4.23-1.04-2-2.44-2.92-4.2-2.75l.84-5.23c2.57-4.37,4.28-9.62,5.12-15.75,4.05-5.25,7.21-10.51,9.47-15.76.96-7.61,1.32-15.39,1.09-23.35.69-4.02,2.14-8.03,4.33-12.05,2.8-1.12,5.38-3.34,7.74-6.67l3.22-7.04c.35-6.66-.59-12.45-2.81-17.36-.7-1.39-1.45-2.6-2.25-3.63-2.52-3.27-5.51-4.68-8.95-4.24l-6.83,3.28c-3.14-1.02-5.84-1.16-8.11-.43,2.89-.23,4.82,1.15,5.78,4.16,1.83,3.35.56,7.71-3.79,13.08l-8.91-5.17Z"/></g><g id="Plant_Rubrik_base"><use width="269.17" height="73.98" transform="translate(1016.62 1139.88) scale(.58)" xlink:href="#shadowsvgdark_2"/><g id="Plantpot"><path class="cls-25" d="M1014.57,1127.71h66.12v13.05c0,16.93-13.74,30.67-30.67,30.67h-4.77c-16.93,0-30.67-13.74-30.67-30.67v-13.05h0Z"/><path class="cls-37" d="M1014.57,1127.71h66.12v13.05c0,16.93-13.74,30.67-30.67,30.67h-4.77c-16.93,0-30.67-13.74-30.67-30.67v-13.05h0Z"/><path class="cls-10" d="M1071.1,1142.83c-12.86,7.74-33.79,7.7-46.74-.09-12.95-7.79-13.03-20.38-.16-28.13,12.86-7.74,33.79-7.7,46.74.09,12.95,7.79,13.03,20.38.16,28.13Z"/><path class="cls-45" d="M1068.08,1141.02c-11.21,6.74-29.45,6.71-40.74-.09-6.12-3.69-8.94-8.61-8.43-13.41,1.32-2.82,3.84-5.48,7.52-7.7,11.64-7,30.56-6.96,42.27.09,3.78,2.27,6.34,5.01,7.69,7.9.47,4.76-2.3,9.6-8.31,13.22Z"/><path class="cls-73" d="M1076.39,1127.8c-1.35-2.89-3.91-5.63-7.69-7.9-11.71-7.05-30.63-7.08-42.27-.09-3.68,2.22-6.2,4.88-7.52,7.7.4-4.06,3.17-8.02,8.29-11.1,11.21-6.74,29.45-6.71,40.74.08,5.24,3.15,8.06,7.19,8.46,11.3Z"/></g><g class="cls-136"><g id="PLANT_LEFT"><g id="Layer1_0_FILL-3"><path class="cls-14" d="M1052.23,1054.4l-4.1-.57c-8.49,119.21,2.17,198.37,31.97,237.46l3.91-1.41c-30.97-87.03-41.56-165.52-31.78-235.48Z"/></g><g id="Layer1_14_FILL-2"><path class="cls-68" d="M1013.53,1067.67c-8,1.63-11.7,8.68-11.11,21.14,3.05,19.78,17.36,29.56,42.92,29.36-3.42-13.41-6.99-25.1-10.72-35.07-3.73-9.97-10.76-15.11-21.1-15.42M1030.7,1002.86c-10.26,2.78-15.24,12.26-14.95,28.44,1.69,18.36,12.25,30.26,31.67,35.7,7.4-11.48,8.63-25.31,3.69-41.51-4.95-16.25-11.76-23.79-20.42-22.63M1065.5,959.28c-4.58-14.15-10.01-18.47-16.29-12.96-6.3,5.54-9.73,14.85-10.27,27.91-.55,13.09,1.41,25.32,5.88,36.69,18.39-20.22,25.28-37.44,20.68-51.64M996.24,1137.52c-12.17,12.53-14.48,31.41-6.95,56.63,9.14,34.49,35.8,49.34,79.98,44.54,25.81-32.4,31.22-59.31,16.21-80.73-14.97-21.41-44.72-28.22-89.24-20.44M1086.75,1051.08c14.33-12.41,21.31-26.96,20.94-43.65-.35-16.64-7.95-16.26-22.78,1.17-14.82,17.47-27.41,39.98-37.77,67.53,15.2-4.93,28.4-13.28,39.61-25.05M1008.97,1294.32c23.75,7.75,44.98,4.32,63.69-10.28-13.64-34.72-42.2-48.6-85.68-41.62-7.83,1.29-16.42,4.06-25.78,8.33-6.73,3.88-7.74,9.04-3.03,15.47,7.38,10.2,24.31,19.56,50.8,28.1Z"/></g><g id="Layer1_15_FILL-2"><path class="cls-77" d="M1072.66,1284.04c-.36-.91-.73-1.81-1.11-2.69-34.18-13.64-68.95-19.63-104.31-17.98,37.78,4.53,72.24,11.93,103.39,22.19.68-.49,1.36-.99,2.03-1.51M1015,1160.74l.02.07c22.91,25,40.27,51.03,52.09,78.09.72-.06,1.44-.13,2.16-.21.53-.67,1.06-1.33,1.57-1.99-8.21-29.17-26.82-54.49-55.85-75.96M1041.33,1118.11c1.31.05,2.65.07,4.02.06-.21-.84-.44-1.68-.67-2.52-14.97-7.18-25.6-18.02-31.88-32.52,1.77,12.42,11.27,24.08,28.53,34.99M1049.47,1070.14c-.79,1.97-1.56,3.96-2.33,5.99,1.29-.42,2.56-.86,3.81-1.34,19.35-23.22,33.4-43.53,42.16-60.94-10.71,15.49-25.26,34.26-43.65,56.29M1044.19,1066.01c1.05.35,2.13.69,3.23.99.41-.63.79-1.29,1.15-1.97-11.53-16.32-18.82-31.41-21.89-45.28.27,14.25,6.1,29.67,17.5,46.26M1044.77,1010.9s.04.02.05.02c.79-.87,1.56-1.73,2.3-2.6l4.09-47.52-7.83,46.14c.44,1.34.9,2.66,1.38,3.95Z"/></g><g class="cls-110"><path class="cls-15" d="M1083.77,1290.27l-3.91,1.41c-9.83-12.89-17.58-30.15-23.24-51.76-36.79.87-59.31-14.25-67.56-45.38-7.54-25.23-5.22-44.1,6.95-56.63,19.09-3.34,35.45-3.98,49.11-1.95-.23-21.06.41-43.93,1.91-68.61-.51-.14-1.02-.29-1.53-.45-.37-.11-.73-.23-1.1-.35-.15-.05-.3-.09-.45-.14,0,0,0,0,0,0-17.37-5.82-26.85-17.39-28.44-34.7-.29-16.18,4.69-25.66,14.95-28.44,5.42-.72,10.11,1.96,14.07,8.03-.26-.69-.51-1.4-.76-2.1-3.9-10.76-5.59-22.28-5.07-34.56.54-13.07,3.96-22.37,10.27-27.91,6.28-5.51,11.71-1.19,16.29,12.96,4.6,14.2-2.3,31.42-20.68,51.64,0,0-.02-.01-.04-.02,2.38,3.64,4.49,8.51,6.34,14.59,3.73,12.24,3.94,23.14.62,32.68-.38,2.98-.74,5.96-1.05,8.97,9.65-23.49,21.06-43.02,34.23-58.55,14.83-17.42,22.43-17.81,22.78-1.17.37,16.69-6.61,31.24-20.94,43.65-10.51,11.03-22.78,19.06-36.8,24.09-1.6,19.74-1.65,40.13-.15,61.17,15.94,3.21,27.84,10.41,35.69,21.62,14.7,20.98,9.81,47.23-14.64,78.73,0,0,0,.01,0,.02-.52.66-1.04,1.32-1.57,1.99-.45.05-.9.09-1.35.14,4.56,16.68,9.91,33.7,16.09,51.06ZM1041.09,1118.49s0,0,0,0c.12,0,.24,0,.35,0,.51.02,1.01.03,1.53.04.7.01,1.41.01,2.13,0-3.42-13.41-6.99-25.1-10.72-35.07-3.73-9.97-10.76-15.11-21.1-15.42-8,1.63-11.7,8.68-11.11,21.14,2.89,18.71,15.86,28.48,38.9,29.3Z"/><path class="cls-114" d="M1041.09,1118.49s0,0,0,0c.12,0,.24,0,.35,0,.51.02,1.01.03,1.53.04.7.01,1.41.01,2.13,0-3.42-13.41-6.99-25.1-10.72-35.07-3.73-9.97-10.76-15.11-21.1-15.42-8,1.63-11.7,8.68-11.11,21.14,2.89,18.71,15.86,28.48,38.9,29.3Z"/><path class="cls-115" d="M1071.31,1281.73s0,0,0,0c-14.04-32.74-42.23-45.72-84.57-38.92-7.83,1.29-16.42,4.06-25.78,8.33-6.73,3.88-7.74,9.04-3.03,15.47,7.38,10.2,24.31,19.56,50.8,28.1,23.75,7.75,44.98,4.32,63.69-10.28-.34-.86-.69-1.7-1.04-2.53-.02-.05-.04-.11-.07-.16Z"/></g></g></g></g></g></g><g id="Servicenow"><g id="JiraCLOUD"><g id="Azure"><g id="CloudDark"><path class="cls-59" d="M1697.58,1468.92c-47.1-26.16-89.69-28.24-120.64-10.25l-67.05,38.97,129.37,38.03,58.32-66.75Z"/><path class="cls-78" d="M1887.13,1458.23c-61.52-35.52-117.26-38.82-157.5-15.43l-67.05,38.97c40.25-23.39,346.5,214.21,369.35,339.58l70-43.5c-22.85-125.37-110.24-259.25-214.79-319.62Z"/><path class="cls-113" d="M2186.14,2103.75l-67.05,38.97c25.48-14.81-13.32-275.91-84.22-325.9l67.05-38.97c70.9,50,125.86,150.96,125.62,234.87-.13,44.74-15.92,76.22-41.4,91.03Z"/><path class="cls-106" d="M1631.8,1508.58c-95.3-53.73-172.45-8.95-172.76,100.86-.31,110.62,77.47,245.34,173.74,300.92l385.32,222.46c78.39,45.26,142.14,8.93,142.39-81.14.24-83.91-54.72-184.88-125.62-234.87-22.85-125.37-110.23-259.25-214.79-319.62-79.29-45.78-148.97-38.04-188.27,11.39Z"/><g class="cls-48"><path class="cls-44" d="M1720.75,1475.34c29.5,0,61.48,9.83,95.07,29.22,24.94,14.4,49.41,33.4,72.73,56.46,22.62,22.38,43.65,48.06,62.48,76.32,37.71,56.59,64.51,120.87,75.47,180.99l.62,3.42,2.84,2.01c33.41,23.56,64.27,59.71,86.9,101.79,22.76,42.32,35.23,87.11,35.12,126.1-.08,28.86-7.03,52.69-20.1,68.91-12.24,15.19-29.56,23.22-50.1,23.22-18.11,0-38.66-6.34-59.43-18.33l-385.32-222.46c-22.81-13.17-44.97-31.12-65.85-53.37-20.28-21.59-38.49-46.27-54.12-73.34-15.63-27.07-27.87-55.14-36.4-83.43-8.78-29.14-13.19-57.19-13.12-83.39.2-70.99,33.97-115.08,88.15-115.08,22.29,0,46.49,7.27,71.92,21.61l6.32,3.56,4.52-5.68c20.05-25.21,48.5-38.54,82.28-38.54M1720.75,1466.83c-36.53,0-67.33,14.57-88.95,41.75-27.31-15.4-53.15-22.71-76.1-22.71-57.12,0-96.44,45.23-96.66,123.56-.31,110.62,77.47,245.34,173.74,300.92l385.32,222.46c22.88,13.21,44.52,19.47,63.69,19.47,46.51,0,78.53-36.83,78.71-100.61.24-83.91-54.72-184.88-125.62-234.87-22.85-125.37-110.23-259.25-214.79-319.62-35.69-20.6-69.43-30.36-99.33-30.36h0Z"/></g></g><path class="cls-105" d="M1930.64,1888.87c-10.33-5.97-17.61-19.41-17.61-31.57,0-12.15,7.28-17.19,17.61-11.23,10.33,5.97,17.41,19.29,17.41,31.45,0,12.15-7.18,17.25-17.41,11.34ZM1928.98,1900.65c8.33,4.81,15.41,5.17,19.88-.05.85,8.06,5.62,13.58,11.65,17.06l4.81,2.78v-12s-2.07-1.19-2.07-1.19c-3.42-1.98-4.27-4.37-4.27-8.83v-47.45s-11.04-6.38-11.04-6.38v9.75c-3.76-9.01-10.84-17.21-18.97-21.9-14.5-8.37-27.81-2.12-27.81,18.04,0,20.15,13.35,41.8,27.81,50.15v.04ZM1872.1,1851.35c0,10.8,5.83,18.63,12.8,22.65l13.45,7.76v-12s-9.79-5.65-9.79-5.65c-4.06-2.35-4.91-4.62-4.91-9.2v-35.45s14.7,8.49,14.7,8.49v-12s-14.7-8.49-14.7-8.49v-22.1s-11.55-6.67-11.55-6.67c0,0,0,72.66,0,72.66ZM1819.49,1836.23l11.55,6.67v-28.23s3.86,2.23,3.86,2.23l19.68,39.59,14.6,8.43-25.1-50.3,19.27-18.89-13.01-7.51-15.75,16.26-3.56-2.05v-47.45s-11.55-6.67-11.55-6.67c0,0,0,87.92,0,87.92ZM1781.99,1747.56c-16.16-9.33-29.47-3.07-29.47,17.08,0,20.15,13.35,41.8,29.47,51.11,16.12,9.31,29.47,3.07,29.47-17.08,0-20.15-13.35-41.8-29.47-51.11ZM1781.99,1803.05c-10.33-5.97-17.61-19.41-17.61-31.57s7.28-17.19,17.61-11.23c10.33,5.97,17.61,19.41,17.61,31.57s-7.28,17.19-17.61,11.23ZM1662.45,1643.13l-2.51,33.97c-1.19-.84-2.37-1.6-3.59-2.31-1.52-.88-3.01-1.62-4.47-2.19l-1.42-17.99c-.03-.56.34-.81.81-.54l2.54,1.47-1.22-18.06c-.03-.56.34-.81.78-.56l8.3,4.79c.47.27.85.95.78,1.46h0v-.04ZM1641.51,1632.79c-.14-.58-.61-1.17-1.05-1.23l-7.79-1.24c-.44-.06-.64.41-.44.99l6.33,19.5-2.41-.38c-.44-.06-.64.41-.44.99l6.47,19.31c2.34-.13,4.88.21,7.55,1.06l-8.2-38.98-.03-.02ZM1622.41,1631.62l17.92,39.31c-2.27.4-4.34,1.22-6.1,2.54l-10.74-18.32c-.34-.58-.3-1.19.03-1.34l1.96-.73-10.67-18.55c-.34-.58-.3-1.19.07-1.32l6.33-2.44c.37-.13.88.24,1.15.82l.03.02ZM1607.37,1639.71c-.37-.53-.91-.68-1.15-.35l-4.13,5.85c-.24.33-.07,1.01.34,1.48l13.75,15.4-1.29,1.78c-.24.33-.07,1.05.37,1.5l13.69,15.09c.98-2.35,2.3-4.3,3.93-5.81l-25.51-34.92ZM1597.24,1656.23c.07-.5.54-.54.98-.17l29.98,26.28c-.78,2.46-1.22,5.28-1.29,8.42l-15.01-10.06c-.47-.31-.81-1.01-.71-1.5l.44-2.62-15.14-10.37c-.47-.31-.78-.99-.71-1.5l1.42-8.54h0l.03.06ZM1596.12,1678.81c-.47-.23-.78.09-.71.68l1.46,10.2c.07.58.54,1.17.98,1.3l14.7,4.1.44,3.13c.07.58.54,1.17.98,1.3l14.5,3.79c-.85-3.36-1.39-6.74-1.52-9.97l-30.86-14.56.03.02ZM1600.93,1706.2c-.24-.6-.07-1.09.34-1.09l27.98.93c1.05,3.48,2.47,6.98,4.17,10.37l-12.26,2.94c-.37.1-.91-.33-1.15-.94l-1.29-3.31-12.5,2.69c-.37.1-.91-.37-1.15-.98l-4.17-10.64.03.02ZM1634.84,1719.1l-21.78,12.7c-.34.19-.3.83.07,1.4l6.37,9.77c.37.56.88.78,1.15.51l8.81-9.13,1.96,3.04c.37.56.91.8,1.19.49l8.54-9.28c-2.3-2.96-4.44-6.17-6.27-9.48l-.03-.02ZM1630.54,1757.2c-.44-.45-.64-1.15-.44-1.5l12.91-24.86c2.37,2.77,4.95,5.3,7.62,7.43l-3.79,14.51c-.1.45-.61.46-1.05.02l-2.41-2.4-4.03,14.49c-.14.43-.61.46-1.05.02l-7.79-7.76h0l.03.06ZM1652.76,1739.93l-2.51,33.97c-.03.52.34,1.21.78,1.46l8.3,4.79c.47.27.85.02.78-.56l-1.22-18.06,2.54,1.47c.47.27.85.02.81-.54l-1.42-17.99c-1.46-.57-2.95-1.31-4.47-2.19-1.22-.7-2.41-1.47-3.59-2.34h0ZM1682.64,1661.31c.2-.39,0-1.05-.44-1.5l-7.79-7.76c-.44-.45-.91-.41-1.05.02l-4.03,14.49-2.41-2.4c-.44-.45-.91-.41-1.05.02l-3.79,14.51c2.71,2.19,5.25,4.7,7.62,7.43l12.94-24.8h0ZM1699.64,1685.22l-21.78,12.7c-1.83-3.31-3.93-6.5-6.27-9.48l8.54-9.28c.27-.27.81-.07,1.19.49l1.96,3.04,8.81-9.13c.27-.27.81-.04,1.15.51l6.37,9.77c.37.56.37,1.19.07,1.4l-.03-.02ZM1711.43,1711.91c.44.02.58-.48.34-1.09l-4.17-10.64c-.24-.6-.78-1.03-1.15-.98l-12.5,2.69-1.29-3.27c-.24-.6-.78-1.07-1.15-.94l-12.26,2.94c1.69,3.39,3.08,6.87,4.17,10.37l27.98.93.03-.02ZM1715.84,1727.34l1.42,10.18c.07.58-.24.87-.71.68l-30.86-14.52c-.14-3.26-.68-6.6-1.52-9.97l14.5,3.79c.44.1.91.72.98,1.3l.44,3.13,14.7,4.1c.44.14.91.72.98,1.3h.07ZM1714.45,1760.91c.44.37.91.33.98-.17l1.42-8.54c.07-.5-.24-1.15-.71-1.5l-15.14-10.37.44-2.62c.07-.5-.24-1.15-.71-1.5l-15.01-10.06c-.07,3.15-.51,5.96-1.29,8.42l29.98,26.28h0l.03.06ZM1706.45,1777.65c-.24.33-.78.13-1.15-.35l-25.51-34.92c1.63-1.51,2.95-3.46,3.93-5.81l13.69,15.09c.44.49.61,1.17.37,1.5l-1.29,1.78,13.75,15.4c.41.47.58,1.15.34,1.48l-4.13,5.85h0ZM1672.34,1746.03l17.92,39.31c.27.58.81.97,1.15.82l6.33-2.44c.37-.13.37-.76.07-1.32l-10.67-18.55,1.96-.73c.37-.13.37-.76.03-1.34l-10.74-18.32c-1.8,1.29-3.83,2.18-6.1,2.54h0l.03.02ZM1672.17,1785.39c-.44-.06-.91-.64-1.05-1.23l-8.2-38.98c2.68.85,5.22,1.19,7.55,1.06l6.47,19.31c.2.62,0,1.09-.44.99l-2.41-.38,6.33,19.5c.2.62,0,1.05-.44.99l-7.79-1.24h0l-.03-.02Z"/></g></g></g></g></svg>