<svg xmlns="http://www.w3.org/2000/svg" xmlns:xlink="http://www.w3.org/1999/xlink" viewBox="0 0 2500 2500"><defs><style>.cls-1{isolation:isolate;}.cls-2{fill:url(#linear-gradient);}.cls-3{fill:url(#linear-gradient-2);}.cls-4{fill:url(#linear-gradient-3);}.cls-5{fill:url(#linear-gradient-4);}.cls-6{fill:url(#linear-gradient-5);}.cls-7{fill:url(#linear-gradient-6);}.cls-8{fill:url(#linear-gradient-7);}.cls-9{fill:url(#linear-gradient-8);}.cls-10{mix-blend-mode:hard-light;}.cls-11{fill:url(#Degradado_sin_nombre_14);}.cls-12{fill:url(#Nueva_muestra_de_degradado_69);}.cls-13{fill:url(#Degradado_sin_nombre_13);}.cls-14{filter:url(#AI_DesenfoqueGaussiano_4);}.cls-15{fill:#fff;fill-opacity:0.95;}.cls-16{fill:url(#linear-gradient-9);}.cls-17{fill:url(#Degradado_sin_nombre_6);}.cls-18{fill:url(#Degradado_sin_nombre_5);}.cls-19{fill:url(#Degradado_sin_nombre_2);}.cls-20{fill:#4dd2d2;}.cls-21{fill:url(#Degradado_sin_nombre_2-2);}</style><linearGradient id="linear-gradient" x1="1200.47" y1="1989.3" x2="1315.31" y2="1837.35" gradientUnits="userSpaceOnUse"><stop offset="0" stop-color="#39c2ec"/><stop offset="0.17" stop-color="#34bbe7"/><stop offset="0.57" stop-color="#2db0df"/><stop offset="1" stop-color="#2aacdc"/></linearGradient><linearGradient id="linear-gradient-2" x1="1249.6" y1="1952.37" x2="1378.58" y2="1761.54" xlink:href="#linear-gradient"/><linearGradient id="linear-gradient-3" x1="844.33" y1="1559.87" x2="1183.57" y2="1413.22" gradientUnits="userSpaceOnUse"><stop offset="0" stop-color="#90e5ff"/><stop offset="1" stop-color="#65c2e7"/></linearGradient><linearGradient id="linear-gradient-4" x1="986.27" y1="1482.69" x2="1161.19" y2="1373.15" gradientUnits="userSpaceOnUse"><stop offset="0" stop-color="#90e5ff"/><stop offset="0.11" stop-color="#87ddfa"/><stop offset="0.39" stop-color="#74ceef"/><stop offset="0.68" stop-color="#69c5e9"/><stop offset="1" stop-color="#65c2e7"/></linearGradient><linearGradient id="linear-gradient-5" x1="816.04" y1="927.44" x2="1233.02" y2="1088.22" xlink:href="#linear-gradient"/><linearGradient id="linear-gradient-6" x1="1024.45" y1="858.31" x2="1334.89" y2="1072.78" gradientUnits="userSpaceOnUse"><stop offset="0" stop-color="#39c2ec"/><stop offset="1" stop-color="#2aacdc"/></linearGradient><linearGradient id="linear-gradient-7" x1="1444.35" y1="939.89" x2="1382.51" y2="1065.34" xlink:href="#linear-gradient-4"/><linearGradient id="linear-gradient-8" x1="1663.67" y1="797.75" x2="1324.43" y2="1015.07" xlink:href="#linear-gradient-4"/><radialGradient id="Degradado_sin_nombre_14" cx="1509.72" cy="1460.19" r="718.34" gradientTransform="translate(-981.61 194.01) rotate(-30.36) scale(1 1.61)" gradientUnits="userSpaceOnUse"><stop offset="0.34" stop-color="#141226" stop-opacity="0.6"/><stop offset="0.67" stop-color="#0071b0" stop-opacity="0.1"/><stop offset="0.83" stop-color="#1e89c0" stop-opacity="0.08"/><stop offset="0.97" stop-color="#7ad3f3" stop-opacity="0.02"/><stop offset="1" stop-color="#90e5ff" stop-opacity="0"/></radialGradient><linearGradient id="Nueva_muestra_de_degradado_69" x1="-6721.01" y1="-6126.85" x2="-6980.3" y2="-5576.09" gradientTransform="matrix(-1, 0, 0, 1, -5239.74, 7415.42)" gradientUnits="userSpaceOnUse"><stop offset="0" stop-color="#90e5ff"/><stop offset="1" stop-color="#1da1dc"/></linearGradient><linearGradient id="Degradado_sin_nombre_13" x1="-6264.73" y1="-5025.08" x2="-7055.41" y2="-6828.24" gradientTransform="matrix(-0.86, -0.5, -0.5, 0.86, -7316.73, 3265.91)" gradientUnits="userSpaceOnUse"><stop offset="0.21" stop-color="#141226"/><stop offset="0.53" stop-color="#27244b"/><stop offset="0.98" stop-color="#27244b"/><stop offset="1" stop-color="#27244b"/></linearGradient><filter id="AI_DesenfoqueGaussiano_4" name="AI_DesenfoqueGaussiano_4"><feGaussianBlur stdDeviation="4"/></filter><linearGradient id="linear-gradient-9" x1="1675.5" y1="1384.63" x2="1709.95" y2="1383.74" gradientUnits="userSpaceOnUse"><stop offset="0" stop-color="#141226" stop-opacity="0"/><stop offset="0.01" stop-color="#141226" stop-opacity="0"/><stop offset="0.52" stop-color="#141226" stop-opacity="0.1"/><stop offset="0.87" stop-color="#141226" stop-opacity="0.3"/></linearGradient><linearGradient id="Degradado_sin_nombre_6" x1="1348.56" y1="1503.72" x2="1330.3" y2="1715.75" gradientTransform="matrix(-1, 0, 0, 1, 3127.36, 0)" gradientUnits="userSpaceOnUse"><stop offset="0.01" stop-color="#0088a1"/><stop offset="0.22" stop-color="#0693a9"/><stop offset="0.67" stop-color="#0fa5b6"/><stop offset="1" stop-color="#12abbb"/></linearGradient><linearGradient id="Degradado_sin_nombre_5" x1="1384.34" y1="1402.65" x2="1497.13" y2="1333.16" gradientTransform="matrix(-1, 0, 0, 1, 3127.36, 0)" gradientUnits="userSpaceOnUse"><stop offset="0.01" stop-color="#0088a1"/><stop offset="0.31" stop-color="#0999ae"/><stop offset="0.67" stop-color="#10a6b8"/><stop offset="1" stop-color="#12abbb"/></linearGradient><linearGradient id="Degradado_sin_nombre_2" x1="1208.19" y1="1611.99" x2="1306.55" y2="1412.04" gradientTransform="matrix(-1, 0, 0, 1, 3127.36, 0)" gradientUnits="userSpaceOnUse"><stop offset="0.01" stop-color="#0088a1"/><stop offset="0.31" stop-color="#018aa2"/><stop offset="0.41" stop-color="#0491a7"/><stop offset="0.49" stop-color="#0b9cb0"/><stop offset="0.55" stop-color="#12abbb"/><stop offset="0.98" stop-color="#12abbb"/><stop offset="1" stop-color="#12abbb"/></linearGradient><linearGradient id="Degradado_sin_nombre_2-2" x1="1336.11" y1="1368.27" x2="1405.34" y2="1239" xlink:href="#Degradado_sin_nombre_2"/></defs><g class="cls-1"><g id="ARTWORK"><g id="Plant2"><path class="cls-2" d="M1056.9,1977.15c108.84-11.79,256.47-87.39,405.92-114.21,4.44-.8-14.33-20.39-9.88-21.15-325.13-31.25-385.24,91.11-396.08,130.07A10.77,10.77,0,0,0,1056.9,1977.15Z"/><path class="cls-3" d="M1478.69,1873.73l-22.77-31.66-3-.28c-154.31,26.56-302,71.41-396,135.36a22.78,22.78,0,0,0,12.91,14.84C1173.65,2032.38,1478.69,1873.73,1478.69,1873.73Z"/><path class="cls-4" d="M1477.35,1864.2c-237.31,127.69-866.95-213.8-891-771.51,74.35,140.53,174.15,306.86,315.65,421.25,209.38,169.24,433.05,297.93,570.21,313.48C1486.52,1843.55,1490.85,1856.94,1477.35,1864.2Z"/><path class="cls-5" d="M1472.19,1827.42C1335,1811.87,1111.36,1683.18,902,1513.94c-141.5-114.39-241.3-280.72-315.65-421.25-.07-1.29-.12-2.58-.17-3.87-2.25-59.17,388,245.94,698.67,611C1284.83,1699.79,1427.39,1777,1472.19,1827.42Z"/><path class="cls-6" d="M1434,1413.19c-70,61.9-177.11,149.61-177.11,149.61C701.06,1155.67,867,622.6,907.4,516.35a23.1,23.1,0,0,1,14.05-13.64C1009.45,671.54,1143.36,1096.29,1434,1413.19Z"/><path class="cls-7" d="M1518.57,1338.26c-16.92,6-66.54,47.33-118.08,92.88-290.63-316.9-422.69-733.73-479-928.43a23,23,0,0,1,14.12-.33C1202.78,581.48,1676.94,1281.7,1518.57,1338.26Z"/><path class="cls-8" d="M1618.67,560.66c-37.77,167-168.33,422-234.33,656.44-2,7-24.23-11.52-26.15-4.56,24.34-467.19,199.39-614.75,253.45-649.42A15.93,15.93,0,0,1,1618.67,560.66Z"/><path class="cls-9" d="M1395.49,1235.48,1358,1216.82c.07-1.43.14-2.86.22-4.28,66.65-241.5,156.29-481.86,260.48-651.88a15.91,15.91,0,0,1,17.13,12.05C1668.51,707.4,1395.49,1235.48,1395.49,1235.48Z"/><g class="cls-10"><path class="cls-11" d="M1472.19,1827.42c14.33,16.13,18.66,29.52,5.16,36.78-1.33.71-2.68,1.39-4,2.07l5.37,7.46s-305,158.65-408.88,118.26a22.78,22.78,0,0,1-12.91-14.84,10.77,10.77,0,0,1,0-5.29c6.73-24.19,32.46-80.53,128.83-112.29-268.23-91.41-582.49-376-599.36-766.88-.07-1.29-.12-2.58-.17-3.87-2.25-59.17,388,245.94,698.67,611C1284.83,1699.79,1427.39,1777,1472.19,1827.42ZM1635.8,572.71a16,16,0,0,0-24.16-9.59C1569.87,589.9,1455.89,684.07,1395,941c-132.59-195.88-323-398.19-459.41-438.58a23.13,23.13,0,0,0-28.17,14C867,622.6,701.06,1155.67,1256.87,1562.8c0,0,107.08-87.71,177.11-149.61q-2.88-3.14-5.74-6.3c40.76-35.15,76.49-63.68,90.33-68.63,59.09-21.1,30.12-131.82-43.31-266.45C1553,904.92,1656.68,658.68,1635.8,572.71Z"/></g></g><g id="Icon_users" data-name="Icon users"><g id="Circle_Tick_upgrade_Calendar" data-name="Circle Tick upgrade Calendar"><g class="cls-1"><path class="cls-12" d="M1196.76,1041c64.27-37.35,153.29-32.08,251.54,24.64,195.23,112.72,353,386,352.36,610.31-.32,111.45-39.67,189.86-103.13,226.74l-26,15c63.46-36.87-436.5-899-500.77-861.68Z"/><ellipse class="cls-13" cx="1421.18" cy="1486.82" rx="288.64" ry="498.32" transform="translate(-554.63 915.39) rotate(-30.16)"/></g></g><g id="OrgIcon-"><g id="OrgIcon" class="cls-14"><path d="M1624.13,1618.43c-5.3-9.09-12.47-16.61-19.92-20.92l-17.84-10.3v-52.84a31.66,31.66,0,0,0-4.55-15,32.25,32.25,0,0,0-10.81-11.47L1443,1434v-35.23l15.37,8.87c7.45,4.31,14.62,5.07,19.92,2.1s8.29-9.43,8.35-17.94v-70.46c0-8.61-3-18.57-8.28-27.7s-12.5-16.72-20-21l-61.47-35.48c-7.5-4.34-14.7-5.07-20-2s-8.29,9.54-8.29,18.14v70.46c.05,8.58,3.06,18.5,8.36,27.59s12.45,16.59,19.92,20.91l15.36,8.87v35.23l-128.06-73.94c-4.05-2.28-7.93-2.63-10.8-1s-4.5,5.14-4.56,9.76v52.84L1251,1393.57c-7.47-4.31-14.62-5-19.92-2.08s-8.31,9.41-8.36,17.94v70.46c0,8.6,3,18.57,8.29,27.7s12.49,16.7,20,21l61.47,35.49c7.45,4.26,14.59,4.93,19.85,1.89s8.22-9.53,8.22-18.09v-70.46c-.06-8.54-3-18.41-8.29-27.47s-12.36-16.57-19.78-20.92l-12.91-7.45v-35.23l112.68,65.06v35.23l-15.36-8.87c-7.47-4.31-14.62-5.06-19.92-2.09s-8.31,9.41-8.36,17.94v70.46c0,8.6,3,18.57,8.29,27.71s12.49,16.7,20,21l61.47,35.49c7.49,4.32,14.68,5.07,20,2.05s8.28-9.54,8.28-18.14v-70.46c-.06-8.59-3.06-18.5-8.35-27.59s-12.47-16.61-19.92-20.91l-15.37-8.88v-35.23l112.69,65.07v35.23l-12.91-7.46c-7.43-4.22-14.54-4.92-19.79-1.92s-8.23,9.42-8.28,17.89v70.47c0,8.56,2.94,18.46,8.2,27.57s12.4,16.68,19.87,21l61.47,35.49c7.49,4.33,14.68,5.07,20,2s8.28-9.53,8.28-18.14V1646C1632.42,1637.42,1629.42,1627.52,1624.13,1618.43Zm-319.47-152.76v52.85l-46.1-26.62v-52.85Zm145.88,84.23v52.85l-45.89-26.5V1523.4Zm-45.89-214.39v-52.85l45.89,26.49V1362Zm192,351.58-46.09-26.62v-52.85l46.09,26.62Z"/></g><path id="OrgIcon-2" data-name="OrgIcon" class="cls-15" d="M1612,1623.47c-5.3-9.09-12.46-16.61-19.92-20.92l-17.83-10.3v-52.84a31.79,31.79,0,0,0-4.56-15,32.25,32.25,0,0,0-10.81-11.47L1430.87,1439v-35.23l15.37,8.87c7.46,4.31,14.62,5.07,19.92,2.1s8.3-9.42,8.35-17.94v-70.46c0-8.61-3-18.57-8.28-27.7s-12.5-16.72-20-21.05l-61.47-35.48c-7.5-4.34-14.7-5.07-20-2s-8.29,9.54-8.29,18.14v70.46c.06,8.58,3.06,18.5,8.36,27.59s12.45,16.6,19.92,20.91l15.36,8.87v35.23l-128.05-73.94c-4.06-2.28-7.94-2.63-10.81-1s-4.5,5.14-4.56,9.76v52.84l-17.82-10.29c-7.47-4.31-14.62-5-19.92-2.08s-8.31,9.41-8.36,17.94v70.46c0,8.6,3,18.57,8.29,27.7s12.49,16.7,20,21l61.47,35.49c7.46,4.26,14.59,4.93,19.85,1.89s8.22-9.53,8.22-18.09v-70.46c-.06-8.54-3-18.41-8.29-27.47s-12.36-16.57-19.78-20.92l-12.91-7.45v-35.23l112.68,65.06v35.23l-15.36-8.87c-7.47-4.31-14.62-5.06-19.92-2.09s-8.3,9.41-8.36,17.94v70.46c0,8.6,3,18.57,8.29,27.71s12.49,16.7,20,21l61.47,35.49c7.49,4.32,14.69,5.07,20,2s8.28-9.54,8.28-18.14v-70.46c0-8.59-3-18.5-8.35-27.59s-12.46-16.61-19.92-20.91l-15.37-8.88v-35.23l112.69,65.07v35.23l-12.91-7.46c-7.43-4.22-14.54-4.92-19.79-1.92s-8.22,9.42-8.28,17.9v70.46c0,8.56,3,18.46,8.21,27.57s12.4,16.68,19.86,21l61.47,35.49c7.49,4.33,14.69,5.07,20,2.05s8.28-9.53,8.28-18.14v-70.46C1620.34,1642.46,1617.34,1632.56,1612,1623.47Zm-319.47-152.76v52.85l-46.1-26.62v-52.85Zm145.88,84.23v52.85l-45.89-26.5v-52.85Zm-45.89-214.39V1287.7l45.89,26.49V1367Zm192,351.58-46.09-26.62v-52.85l46.09,26.62Z"/></g><path class="cls-16" d="M1623.75,1465.89V1269.43l26.39-14.27s72.3,103.26,98,176v81.74Z"/></g><g id="PlusTeal"><g id="_Blue" data-name="+ Blue"><g class="cls-1"><path class="cls-17" d="M1773.69,1639.93l.35-121.86,24.67-14.34-.35,121.86c0,2.8-1,4.76-2.59,5.69l-24.66,14.33C1772.7,1644.69,1773.69,1642.72,1773.69,1639.93Z"/><path class="cls-18" d="M1610,1309.6c1.61-.94,3.85-.8,6.32.62l106,61.23-24.67,14.33-106.05-61.22c-2.47-1.43-4.71-1.56-6.32-.62Z"/><path class="cls-19" d="M1799,1415.69l106,61.22c4.9,2.83,8.86,9.7,8.84,15.33l-.19,67.64c0,2.8-1,4.77-2.59,5.7l-24.67,14.33c1.6-.92,2.58-2.89,2.59-5.69l.19-67.64c0-5.64-3.94-12.5-8.84-15.33l-106-61.23Z"/><path class="cls-20" d="M1706.92,1258.85c-4.9-2.83-8.89-.56-8.91,5.08l-.34,121.85-106.05-61.22c-4.91-2.83-8.9-.56-8.91,5.07l-.19,67.65c0,5.62,4,12.49,8.85,15.32l106.05,61.23-.35,121.86c0,5.63,4,12.49,8.85,15.32l58.86,34c4.91,2.83,8.9.56,8.91-5.07l.35-121.86,106,61.22c4.9,2.83,8.89.56,8.9-5.07l.19-67.64c0-5.64-3.94-12.5-8.84-15.33l-106-61.23.35-121.86c0-5.63-4-12.49-8.86-15.32Z"/><path class="cls-21" d="M1725.27,1243.9c1.61-.94,3.85-.81,6.31.62l58.87,34c4.9,2.83,8.87,9.69,8.85,15.33l-.34,121.86L1774.29,1430l.35-121.86c0-5.63-4-12.49-8.86-15.32l-58.86-34c-2.47-1.42-4.7-1.55-6.32-.62Z"/></g></g></g></g></g></svg>