<?xml version="1.0" encoding="UTF-8"?><svg xmlns="http://www.w3.org/2000/svg" xmlns:xlink="http://www.w3.org/1999/xlink" viewBox="0 0 2500 2500"><defs><style>.cls-1{fill:#6da0e8;}.cls-1,.cls-2,.cls-3,.cls-4,.cls-5,.cls-6,.cls-7,.cls-8,.cls-9,.cls-10,.cls-11,.cls-12,.cls-13,.cls-14,.cls-15,.cls-16,.cls-17,.cls-18,.cls-19,.cls-20,.cls-21,.cls-22,.cls-23{stroke-width:0px;}.cls-2{fill:url(#linear-gradient);}.cls-3{fill:url(#linear-gradient-6);}.cls-4{fill:url(#Degradado_sin_nombre_17-2);}.cls-4,.cls-5,.cls-10{opacity:.3;}.cls-24{filter:url(#AI_DesenfoqueGaussiano_4);}.cls-25{opacity:.28;}.cls-5{fill:url(#Degradado_sin_nombre_17);}.cls-26,.cls-27,.cls-8,.cls-28,.cls-29,.cls-30,.cls-31,.cls-32{fill:none;}.cls-26,.cls-29,.cls-30,.cls-32{stroke:#1da1dc;stroke-linecap:round;stroke-linejoin:round;}.cls-26,.cls-30{stroke-width:18.2px;}.cls-26,.cls-32{stroke-dasharray:0 0 19.21 33.61;}.cls-33,.cls-23{opacity:.2;}.cls-6{fill:url(#linear-gradient-11);}.cls-27{opacity:.41;stroke-width:11px;}.cls-27,.cls-28,.cls-31{stroke:#022e49;}.cls-7{fill:url(#linear-gradient-5);}.cls-28{opacity:.15;stroke-width:17px;}.cls-9{fill:#fcfdfe;}.cls-10{fill:#0f0b26;}.cls-29,.cls-32{stroke-width:7.3px;}.cls-11{fill:url(#linear-gradient-2);}.cls-12{fill:#4dd2d2;}.cls-13{fill:url(#linear-gradient-7);}.cls-14{fill:url(#linear-gradient-3);}.cls-15{fill:url(#linear-gradient-9);}.cls-16{fill:url(#linear-gradient-8);}.cls-17{fill:#fff;}.cls-31{opacity:.72;stroke-width:6px;}.cls-18{fill:url(#Degradado_sin_nombre_2);}.cls-19{fill:url(#linear-gradient-10);}.cls-20{fill:#fafbfc;}.cls-21{fill:url(#linear-gradient-4);}.cls-22{fill:#e2e7eb;}.cls-23{fill:url(#Nueva_muestra_de_degradado_62);}</style><linearGradient id="linear-gradient" x1="285.85" y1="271.08" x2="550.87" y2="180.81" gradientUnits="userSpaceOnUse"><stop offset="0" stop-color="#141226" stop-opacity=".3"/><stop offset=".62" stop-color="#141226" stop-opacity=".1"/><stop offset="1" stop-color="#141226" stop-opacity="0"/></linearGradient><linearGradient id="linear-gradient-2" x1="554.36" y1="251.13" x2="8.5" y2="251.13" gradientUnits="userSpaceOnUse"><stop offset="0" stop-color="#045989"/><stop offset=".51" stop-color="#085988"/><stop offset="1" stop-color="#1189a4"/></linearGradient><linearGradient id="linear-gradient-3" x1="357.8" y1="253.99" x2="147.2" y2="43.39" gradientUnits="userSpaceOnUse"><stop offset="0" stop-color="#202f64"/><stop offset="1" stop-color="#0071b0"/></linearGradient><linearGradient id="linear-gradient-4" x1="476.12" y1="218.43" x2="89.06" y2="290.32" gradientUnits="userSpaceOnUse"><stop offset="0" stop-color="#0f0b26" stop-opacity="0"/><stop offset="0" stop-color="rgba(15,11,38,0)" stop-opacity="0"/><stop offset=".34" stop-color="#0f0b26" stop-opacity=".1"/><stop offset=".87" stop-color="#0f0b26" stop-opacity=".3"/><stop offset="1" stop-color="#0f0b26" stop-opacity="0"/></linearGradient><symbol id="ClusterPlusBase_2" viewBox="0 0 617.23 382.42"><g id="RubrikClusters"><g id="Circular_base"><path class="cls-28" d="M475.13,328.17c-106.2,61.32-279.02,60.95-385.99-.81-106.98-61.76-107.6-161.54-1.4-222.85,106.2-61.32,279.02-60.95,385.99.81,106.98,61.76,107.6,161.54,1.4,222.85Z"/><path class="cls-27" d="M475.13,328.17c-106.2,61.32-279.02,60.95-385.99-.81-106.98-61.76-107.6-161.54-1.4-222.85,106.2-61.32,279.02-60.95,385.99.81,106.98,61.76,107.6,161.54,1.4,222.85Z"/><path class="cls-31" d="M475.13,328.17c-106.2,61.32-279.02,60.95-385.99-.81-106.98-61.76-107.6-161.54-1.4-222.85,106.2-61.32,279.02-60.95,385.99.81,106.98,61.76,107.6,161.54,1.4,222.85Z"/><polygon class="cls-2" points="518.56 58.28 281.44 58.28 281.44 373.91 613.09 373.91 518.56 58.28"/><path class="cls-11" d="M475.14,328.17c-106.2,61.31-279.01,60.96-385.99-.81C8.75,280.95-11.58,213.06,28.37,156.17h-.01l17.76-27.83h469.57l17.32,27.83h-.02c41.66,57.28,22.46,125.64-57.85,172Z"/><path class="cls-14" d="M458.82,280.08c-97.21,56.12-255.39,55.79-353.3-.74C7.6,222.8,7.02,131.48,104.23,75.35c97.21-56.12,255.39-55.79,353.3.74,97.92,56.53,98.49,147.86,1.28,203.98Z"/><g class="cls-25"><path class="cls-1" d="M279.73,33.48v6c32.14,0,63.49,3.53,93.18,10.5,30.63,7.19,58.09,17.72,81.63,31.31,23.29,13.45,41.27,29.03,53.45,46.33,11.52,16.37,17.37,33.58,17.37,51.14s-5.73,34.38-17.04,50.51c-11.95,17.04-29.61,32.39-52.49,45.6-45.87,26.49-107.13,41.07-172.47,41.07-32.14,0-63.5-3.53-93.19-10.5-30.63-7.19-58.1-17.72-81.64-31.31-23.29-13.45-41.27-29.03-53.45-46.33-11.52-16.37-17.37-33.58-17.37-51.14s5.73-34.38,17.04-50.51c11.95-17.04,29.61-32.39,52.49-45.6,45.87-26.48,107.12-41.07,172.47-41.07l.02-6M279.7,33.48c-63.62,0-127.11,13.95-175.47,41.88-97.21,56.12-96.63,147.45,1.28,203.98,49.2,28.4,113.58,42.62,177.83,42.62s127.11-13.95,175.47-41.88c97.21-56.12,96.63-147.45-1.28-203.98-49.2-28.4-113.58-42.62-177.83-42.62h0Z"/></g><path class="cls-1" d="M279.73,36.48c32.37,0,63.95,3.56,93.86,10.58,30.91,7.25,58.65,17.9,82.45,31.64,23.67,13.66,41.97,29.55,54.4,47.21,11.89,16.89,17.91,34.67,17.91,52.87s-5.92,35.59-17.58,52.24c-12.2,17.41-30.18,33.04-53.45,46.48-46.32,26.74-108.11,41.47-173.97,41.47s-129.18-14.99-176.33-42.22c-23.67-13.66-41.97-29.55-54.4-47.21-11.89-16.89-17.91-34.67-17.91-52.87s5.92-35.59,17.58-52.24c12.2-17.41,30.18-33.04,53.45-46.47,46.32-26.74,108.1-41.47,173.99-41.47h0M279.7,33.48c-63.62,0-127.11,13.95-175.47,41.88-97.21,56.12-96.63,147.45,1.28,203.98,49.2,28.4,113.58,42.62,177.83,42.62s127.11-13.95,175.47-41.88c97.21-56.12,96.63-147.45-1.28-203.98-49.2-28.4-113.58-42.62-177.83-42.62h0Z"/></g></g><g id="RubrikClusterLogo"><polygon class="cls-21" points="306.33 283.6 453.72 283.6 506.77 307.39 617.23 307.39 535.07 162.48 495.41 134.8 306.33 134.8 306.33 283.6"/><use width="1160" height="803.4" transform="translate(61.48) scale(.39)" xlink:href="#RubrikCluster"/></g></symbol><linearGradient id="Degradado_sin_nombre_17" x1="-5.36" y1="3.41" x2="18.71" y2="13.62" gradientUnits="userSpaceOnUse"><stop offset="0" stop-color="#00b080"/><stop offset=".19" stop-color="#07ad95"/><stop offset=".54" stop-color="#13a9bd"/><stop offset=".83" stop-color="#1ba7d5"/><stop offset="1" stop-color="#1da6de"/></linearGradient><linearGradient id="Degradado_sin_nombre_17-2" x1="-13.89" y1="11.74" x2="188.88" y2="97.79" xlink:href="#Degradado_sin_nombre_17"/><symbol id="Rubrik_cluster_front_2" viewBox="0 0 139.16 107.03"><g id="ARTWORK"><path class="cls-5" d="M7.15,1.66l-1.76-1.02C2.41-1.07,0,.75,0,4.72s2.41,8.59,5.39,10.31l1.76,1.02c2.98,1.72,5.39-.11,5.39-4.08S10.13,3.38,7.15,1.66Z"/><path class="cls-4" d="M139.16,77.28c-.57-.04-1.14-.2-1.66-.49L32.79,16.33c-2.98-1.72-5.39.11-5.39,4.08s2.41,8.59,5.39,10.31l105.1,60.68c.4.23.83.38,1.27.45v-14.56Z"/></g></symbol><filter id="AI_DesenfoqueGaussiano_4"><feGaussianBlur stdDeviation="4"/></filter><linearGradient id="linear-gradient-5" x1="691.06" y1="490.28" x2="732.85" y2="555.68" gradientUnits="userSpaceOnUse"><stop offset="0" stop-color="#d4ecf6"/><stop offset=".8" stop-color="#89d6ef" stop-opacity=".9"/></linearGradient><linearGradient id="linear-gradient-6" x1="-357.37" y1="48.82" x2="636.76" y2="696.94" gradientUnits="userSpaceOnUse"><stop offset="0" stop-color="#fafbfc"/><stop offset=".55" stop-color="#f5f8fa"/><stop offset="1" stop-color="#e5f4fa"/></linearGradient><linearGradient id="linear-gradient-7" x1="451.25" y1="48.34" x2="804.54" y2="631.93" gradientUnits="userSpaceOnUse"><stop offset="0" stop-color="#f3fafc"/><stop offset=".31" stop-color="#f3fafc"/><stop offset=".69" stop-color="#e5f1fa"/><stop offset=".73" stop-color="#e0eef9"/><stop offset=".77" stop-color="#d1e7f6"/><stop offset=".82" stop-color="#badcf1"/><stop offset=".82" stop-color="#b7dbf1"/><stop offset=".83" stop-color="#b4daf0"/><stop offset=".86" stop-color="#a4d5ef"/><stop offset=".91" stop-color="#9bd1ee"/><stop offset=".97" stop-color="#98d1ee"/><stop offset="1" stop-color="#addbef"/></linearGradient><symbol id="RubrikCluster" viewBox="0 0 1160 803.4"><g id="shadowSVG" class="cls-24"><path class="cls-10" d="M102.74,446.9c-8.09-4.69-8.11-12.4-.04-17.13l402.49-244.3c8.06-4.73,21.31-4.81,29.43-.18l522.58,298.23c8.12,4.63,8.11,12.2-.02,16.82l-414.31,242.83c-8.13,4.62-21.4,4.55-29.49-.14L102.74,446.9Z"/></g><g id="clusterIn"><path class="cls-7" d="M1047,313L554.01,28.38c-4.57-2.64-8.71-2.88-11.69-1.15L90.09,290.04c2.99-1.74,7.13-1.49,11.69,1.15l492.99,284.63c9.08,5.24,16.41,17.94,16.38,28.37l-.32,112.18c-.01,5.18-1.84,8.83-4.79,10.54l452.23-262.8c2.95-1.71,4.78-5.36,4.79-10.54l.32-112.18c.03-10.43-7.3-23.13-16.38-28.37Z"/><path class="cls-3" d="M601.72,726.27c-1.92,0-4.12-.69-6.37-1.99L102.36,439.65c-8.51-4.91-15.41-16.86-15.38-26.63l.32-112.18c.02-6.05,2.68-9.65,7.11-9.65,1.92,0,4.12.69,6.38,1.99l492.99,284.63c8.51,4.91,15.41,16.86,15.38,26.63l-.32,112.19c-.02,6.05-2.68,9.66-7.11,9.66Z"/><path class="cls-20" d="M94.41,293.18h0c1.57,0,3.43.59,5.37,1.72l492.99,284.63c7.82,4.51,14.4,15.91,14.38,24.89l-.32,112.18c0,2.3-.52,7.66-5.11,7.66-1.57,0-3.43-.59-5.37-1.72L103.36,437.92c-7.82-4.51-14.4-15.91-14.38-24.89l.32-112.19c0-2.3.52-7.66,5.11-7.66M94.41,289.18c-5.38,0-9.09,4.26-9.11,11.65l-.32,112.19c-.03,10.43,7.31,23.13,16.38,28.37l492.99,284.63c2.65,1.53,5.15,2.25,7.37,2.25,5.39,0,9.09-4.27,9.11-11.65l.32-112.19c.03-10.43-7.3-23.13-16.38-28.37L101.78,291.44c-2.65-1.53-5.15-2.25-7.37-2.25h0Z"/><path class="cls-17" d="M94.41,291.18h0c1.92,0,4.12.69,6.37,1.99l492.99,284.63c8.51,4.91,15.41,16.86,15.38,26.63l-.32,112.19c-.02,6.05-2.68,9.66-7.11,9.66-1.92,0-4.12-.69-6.37-1.99L102.36,439.65c-8.51-4.91-15.41-16.86-15.38-26.63l.32-112.19c.02-6.05,2.68-9.65,7.11-9.65M94.41,289.18c-5.38,0-9.09,4.26-9.11,11.65l-.32,112.19c-.03,10.43,7.31,23.13,16.38,28.37l492.99,284.63c2.65,1.53,5.15,2.25,7.37,2.25,5.39,0,9.09-4.27,9.11-11.65l.32-112.19c.03-10.43-7.3-23.13-16.38-28.37L101.78,291.44c-2.65-1.53-5.15-2.25-7.37-2.25h0Z"/></g><path class="cls-13" d="M1068.22,288.37L575.23,3.74c-7.59-4.38-14.48-4.78-19.46-1.89L103.54,264.66c4.98-2.89,11.87-2.49,19.46,1.89l492.99,284.63c15.1,8.72,27.34,29.92,27.29,47.26l-.32,112.18c-.02,8.62-3.08,14.69-7.99,17.54l452.23-262.8c4.92-2.86,7.97-8.93,7.99-17.54l.32-112.18c.05-17.34-12.19-38.55-27.29-47.26Z"/><path class="cls-8" d="M627.2,714.87l-.04.02s.03-.01.04-.02Z"/><path class="cls-9" d="M616,551.18L126.99,268.85l-3.98-2.3c-15.09-8.71-27.41-1.69-27.46,15.66v4.93s15.71-9.14,15.71-9.14l.96-.56c1.58-.71,5.12-1.49,10.75,1.69l492.99,284.63c9.08,5.24,16.42,17.95,16.39,28.37l-.32,112.19c-.01,5.2-1.86,8.85-4.83,10.56-.01,0-.03.02-.04.02l-15.64,9.09,3.98,2.3c15.1,8.72,27.42,1.69,27.47-15.65v-4.93s.32-107.25.32-107.25c.05-17.34-12.19-38.55-27.29-47.26Z"/><g id="Isolation_Mode"><use width="139.16" height="107.03" transform="translate(471.74 587.22)" xlink:href="#Rubrik_cluster_front_2"/></g><polygon class="cls-22" points="123.01 266.55 184.75 301.92 246.42 337.42 369.75 408.43 492.92 479.73 554.5 515.39 616 551.18 554.25 515.81 492.58 480.31 369.25 409.29 246.09 337.99 184.51 302.34 123.01 266.55"/></symbol><linearGradient id="Nueva_muestra_de_degradado_62" x1="582.92" y1="1042.98" x2="-549.75" y2="1253.35" gradientTransform="translate(1333.84 265.26) rotate(30) skewX(-30)" gradientUnits="userSpaceOnUse"><stop offset="0" stop-color="#00b287"/><stop offset="1" stop-color="#1da1dc"/></linearGradient><linearGradient id="linear-gradient-8" x1="1427.23" y1="1205.05" x2="1482.59" y2="1316.95" gradientUnits="userSpaceOnUse"><stop offset="0" stop-color="#0088a1"/><stop offset="0" stop-color="#0088a1"/><stop offset=".2" stop-color="#0a9baf"/><stop offset=".39" stop-color="#10a7b8"/><stop offset=".58" stop-color="#12abbb"/></linearGradient><linearGradient id="linear-gradient-9" x1="1405.4" y1="1095.64" x2="1584.29" y2="1290.43" gradientUnits="userSpaceOnUse"><stop offset="0" stop-color="#0088a1"/><stop offset=".12" stop-color="#028ca4"/><stop offset=".25" stop-color="#099aae"/><stop offset=".35" stop-color="#12abbb"/><stop offset=".88" stop-color="#12abbb"/><stop offset=".9" stop-color="#12abbb"/><stop offset=".99" stop-color="#028da4"/><stop offset="1" stop-color="#0089a1"/></linearGradient><linearGradient id="linear-gradient-10" x1="1450.92" y1="1136.2" x2="1368.48" y2="997.13" gradientUnits="userSpaceOnUse"><stop offset="0" stop-color="#0088a1"/><stop offset=".3" stop-color="#0089a2"/><stop offset=".41" stop-color="#0490a7"/><stop offset=".49" stop-color="#0a9cb0"/><stop offset=".54" stop-color="#12abbb"/><stop offset=".59" stop-color="#12abbb"/><stop offset=".59" stop-color="#12abbb"/></linearGradient><linearGradient id="Degradado_sin_nombre_2" x1="1505.41" y1="945.86" x2="1371.57" y2="858.4" gradientUnits="userSpaceOnUse"><stop offset="0" stop-color="#0088a1"/><stop offset=".31" stop-color="#0899ad"/><stop offset=".67" stop-color="#0fa6b7"/><stop offset="1" stop-color="#12abbb"/></linearGradient><linearGradient id="linear-gradient-11" x1="1614.64" y1="1066.91" x2="1398.64" y2="702.49" xlink:href="#linear-gradient-10"/></defs><g id="Line-Dahsed"><g class="cls-33"><line class="cls-30" x1="1597.02" y1="1645.44" x2="1588.36" y2="1640.44"/><line class="cls-26" x1="1559.25" y1="1623.63" x2="1024.88" y2="1315.12"/><line class="cls-30" x1="1010.32" y1="1306.71" x2="1001.66" y2="1301.71"/></g><line class="cls-29" x1="1597.02" y1="1645.44" x2="1588.36" y2="1640.44"/><line class="cls-32" x1="1559.25" y1="1623.63" x2="1024.88" y2="1315.12"/><line class="cls-29" x1="1010.32" y1="1306.71" x2="1001.66" y2="1301.71"/></g><g id="RubrikClusters-2"><path class="cls-23" d="M1093.86,1348.42c-210.23,121.38-552.33,120.66-764.1-1.6-211.77-122.26-213.01-319.77-2.78-441.15,210.23-121.38,552.33-120.66,764.1,1.6,211.77,122.26,213.01,319.77,2.78,441.15Z"/><g id="Step1"><use width="617.23" height="382.42" transform="translate(238.24 749.16) scale(1.68)" xlink:href="#ClusterPlusBase_2"/></g><g id="Step1-2"><use width="617.23" height="382.42" transform="translate(1352.67 1389.05) scale(1.68)" xlink:href="#ClusterPlusBase_2"/></g></g><g id="Arrow"><g id="ArrowsDark"><path class="cls-16" d="M1445.38,1281.04l22.29-12.68c5.27-3,5.27-12.82,0-21.9l-28.42-48.99-44.09-19.4s48.94,103.7,50.22,102.97Z"/><path class="cls-15" d="M1615.16,1231.92l-175.62-101.39-41.62-10.77c-1.47,29.5-2.76,58.3-2.76,58.3l44.09,19.4,161.13,116.7,24.18-14.1c.11-.06.22-.12.32-.19l.25-.15h-.02c2.2-1.5,3.55-4.37,3.55-8.39v-36.13c0-8.54-6.06-18.98-13.51-23.29Z"/><path class="cls-19" d="M1467.66,1114.19c5.27-3,5.27-12.82,0-21.9l-22.29-38.42c-2.55-4.4-5.94-7.97-9.55-10.05-3.61-2.08-7-2.43-9.55-.98l-24.46,14.25c-.65.37-2.37,31.9-3.9,62.67l41.62,10.77,28.13-16.34Z"/><path class="cls-18" d="M1477.54,899.8h0l-131.25-75.77c-3.72-2.15-7.1-2.36-9.55-.97l-23.79,13.93s118.57,83.01,203.38,143.87v-21.67l-38.79-59.37Z"/><path class="cls-6" d="M1624.71,1007.37l-89.53-154.32c-2.55-4.4-5.94-7.97-9.55-10.05-3.61-2.08-7-2.43-9.55-.98l-24.46,14.25c-5.27,3-14.08,43.53-14.08,43.53l38.79,59.37v21.67c45.99,33,82.06,59.48,83.92,62.68l24.46-14.25c2.55-1.45,3.96-4.53,3.96-8.67s-1.4-8.84-3.96-13.24Z"/><path class="cls-12" d="M1501.17,1093.49c-3.61-2.08-7-5.65-9.55-10.05l-22.29-38.42c-5.27-9.08-5.27-18.9,0-21.9l28.42-16.17-175.91-101.56c-7.45-4.3-13.51-14.75-13.51-23.29v-36.13c0-8.54,6.06-11.99,13.51-7.69l175.91,101.56-28.42-48.99c-5.27-9.08-5.27-18.9,0-21.9l22.29-12.68c2.55-1.45,5.94-1.1,9.55.98,3.61,2.08,7,5.65,9.55,10.05l89.53,154.32c2.55,4.4,3.96,9.1,3.96,13.24,0,4.14-1.4,7.21-3.96,8.67l-89.53,50.94c-2.55,1.45-5.94,1.1-9.55-.98Z"/><path class="cls-12" d="M1411.37,1294.31c-3.61-2.08-7-5.65-9.55-10.05l-89.53-154.32c-2.55-4.4-3.96-9.1-3.96-13.24,0-4.14,1.4-7.21,3.96-8.67l89.53-50.94c2.55-1.45,5.94-1.1,9.55.98,3.61,2.08,7,5.65,9.55,10.05l22.29,38.42c5.27,9.08,5.27,18.9,0,21.9l-28.42,16.17,175.91,101.56c7.45,4.3,13.51,14.75,13.51,23.29v36.13c0,8.54-6.06,11.99-13.51,7.69l-175.91-101.56,28.42,48.99c5.27,9.08,5.27,18.9,0,21.9l-22.29,12.68c-2.55,1.45-5.94,1.1-9.55-.98Z"/></g></g></svg>