<?xml version="1.0" encoding="UTF-8"?><svg xmlns="http://www.w3.org/2000/svg" xmlns:xlink="http://www.w3.org/1999/xlink" viewBox="0 0 2500 2500"><defs><style>.cls-1{fill:url(#Degradado_sin_nombre_14);}.cls-1,.cls-2,.cls-3,.cls-4,.cls-5,.cls-6,.cls-7,.cls-8,.cls-9,.cls-10,.cls-11,.cls-12,.cls-13,.cls-14,.cls-15,.cls-16,.cls-17,.cls-18,.cls-19{stroke-width:0px;}.cls-2{fill:url(#linear-gradient);}.cls-3{fill:url(#Degradado_sin_nombre_13);}.cls-4{fill:url(#linear-gradient-6);}.cls-20{filter:url(#AI_DesenfoqueGaussiano_4);}.cls-21{isolation:isolate;}.cls-5{fill:url(#Degradado_sin_nombre_2-2);}.cls-7{fill:url(#linear-gradient-5);}.cls-22{mix-blend-mode:hard-light;}.cls-8{fill:#fff;}.cls-9{fill:url(#linear-gradient-2);}.cls-10{fill:url(#Nueva_muestra_de_degradado_69);}.cls-11{fill:url(#linear-gradient-7);}.cls-12{fill:url(#linear-gradient-3);}.cls-13{fill:url(#linear-gradient-9);}.cls-14{fill:#4dd2d2;}.cls-15{fill:url(#linear-gradient-8);}.cls-16{fill:url(#Degradado_sin_nombre_2);}.cls-17{fill:url(#Degradado_sin_nombre_5);}.cls-18{fill:url(#linear-gradient-4);}.cls-19{fill:url(#Degradado_sin_nombre_6);}</style><linearGradient id="linear-gradient" x1="1200.47" y1="1989.3" x2="1315.31" y2="1837.35" gradientUnits="userSpaceOnUse"><stop offset="0" stop-color="#39c2ec"/><stop offset=".17" stop-color="#34bae6"/><stop offset=".57" stop-color="#2cafde"/><stop offset="1" stop-color="#2aacdc"/></linearGradient><linearGradient id="linear-gradient-2" x1="1249.6" y1="1952.37" x2="1378.58" y2="1761.54" xlink:href="#linear-gradient"/><linearGradient id="linear-gradient-3" x1="844.33" y1="1559.87" x2="1183.57" y2="1413.22" gradientUnits="userSpaceOnUse"><stop offset="0" stop-color="#90e5ff"/><stop offset="1" stop-color="#65c2e7"/></linearGradient><linearGradient id="linear-gradient-4" x1="986.27" y1="1482.69" x2="1161.19" y2="1373.15" gradientUnits="userSpaceOnUse"><stop offset="0" stop-color="#90e5ff"/><stop offset=".11" stop-color="#86ddf9"/><stop offset=".39" stop-color="#73ceef"/><stop offset=".68" stop-color="#68c4e9"/><stop offset="1" stop-color="#65c2e7"/></linearGradient><linearGradient id="linear-gradient-5" x1="816.04" y1="927.44" x2="1233.02" y2="1088.22" xlink:href="#linear-gradient"/><linearGradient id="linear-gradient-6" x1="1024.45" y1="858.31" x2="1334.89" y2="1072.78" gradientUnits="userSpaceOnUse"><stop offset="0" stop-color="#39c2ec"/><stop offset="1" stop-color="#2aacdc"/></linearGradient><linearGradient id="linear-gradient-7" x1="1444.35" y1="939.89" x2="1382.51" y2="1065.34" xlink:href="#linear-gradient-4"/><linearGradient id="linear-gradient-8" x1="1663.67" y1="797.75" x2="1324.43" y2="1015.07" xlink:href="#linear-gradient-4"/><radialGradient id="Degradado_sin_nombre_14" cx="1509.72" cy="1460.19" fx="1509.72" fy="1460.19" r="718.34" gradientTransform="translate(-981.61 194.01) rotate(-30.36) scale(1 1.61)" gradientUnits="userSpaceOnUse"><stop offset=".34" stop-color="#141226" stop-opacity=".6"/><stop offset=".67" stop-color="#0071b0" stop-opacity=".1"/><stop offset=".83" stop-color="#1e89c0" stop-opacity=".08"/><stop offset=".97" stop-color="#79d2f2" stop-opacity=".02"/><stop offset="1" stop-color="#90e5ff" stop-opacity="0"/></radialGradient><linearGradient id="Nueva_muestra_de_degradado_69" x1="-6721.01" y1="-6126.85" x2="-6980.3" y2="-5576.09" gradientTransform="translate(-5239.74 7415.42) rotate(-180) scale(1 -1)" gradientUnits="userSpaceOnUse"><stop offset="0" stop-color="#90e5ff"/><stop offset="1" stop-color="#1da1dc"/></linearGradient><linearGradient id="Degradado_sin_nombre_13" x1="-6264.73" y1="-5025.08" x2="-7055.41" y2="-6828.24" gradientTransform="translate(-7316.73 3265.91) rotate(-149.84) scale(1 -1)" gradientUnits="userSpaceOnUse"><stop offset=".21" stop-color="#141226"/><stop offset=".53" stop-color="#27244b"/><stop offset=".98" stop-color="#27244b"/><stop offset="1" stop-color="#27244b"/></linearGradient><linearGradient id="linear-gradient-9" x1="1675.5" y1="1384.63" x2="1709.95" y2="1383.74" gradientUnits="userSpaceOnUse"><stop offset="0" stop-color="#141226" stop-opacity="0"/><stop offset="0" stop-color="#141226" stop-opacity="0"/><stop offset=".52" stop-color="#141226" stop-opacity=".1"/><stop offset=".87" stop-color="#141226" stop-opacity=".3"/></linearGradient><linearGradient id="Degradado_sin_nombre_6" x1="1348.56" y1="1503.72" x2="1330.3" y2="1715.75" gradientTransform="translate(3127.36) rotate(-180) scale(1 -1)" gradientUnits="userSpaceOnUse"><stop offset="0" stop-color="#0088a1"/><stop offset=".22" stop-color="#0593a9"/><stop offset=".67" stop-color="#0ea4b6"/><stop offset="1" stop-color="#12abbb"/></linearGradient><linearGradient id="Degradado_sin_nombre_5" x1="1384.34" y1="1402.65" x2="1497.13" y2="1333.16" gradientTransform="translate(3127.36) rotate(-180) scale(1 -1)" gradientUnits="userSpaceOnUse"><stop offset="0" stop-color="#0088a1"/><stop offset=".31" stop-color="#0899ad"/><stop offset=".67" stop-color="#0fa6b7"/><stop offset="1" stop-color="#12abbb"/></linearGradient><linearGradient id="Degradado_sin_nombre_2" x1="1208.19" y1="1611.99" x2="1306.55" y2="1412.04" gradientTransform="translate(3127.36) rotate(-180) scale(1 -1)" gradientUnits="userSpaceOnUse"><stop offset="0" stop-color="#0088a1"/><stop offset=".31" stop-color="#0089a2"/><stop offset=".41" stop-color="#0490a7"/><stop offset=".49" stop-color="#0a9cb0"/><stop offset=".55" stop-color="#12abbb"/><stop offset=".98" stop-color="#12abbb"/><stop offset="1" stop-color="#12abbb"/></linearGradient><linearGradient id="Degradado_sin_nombre_2-2" x1="1336.11" y1="1368.27" x2="1405.34" y2="1239" xlink:href="#Degradado_sin_nombre_2"/><filter id="AI_DesenfoqueGaussiano_4"><feGaussianBlur stdDeviation="4"/></filter></defs><g class="cls-21"><g id="ARTWORK"><g id="Plant2"><path class="cls-2" d="m1056.9,1977.15c108.84-11.79,256.46-87.39,405.92-114.22,4.43-.8-14.33-20.39-9.89-21.15-325.12-31.25-385.24,91.11-396.08,130.08-.44,1.6-.4,3.41.04,5.29Z"/><path class="cls-9" d="m1478.69,1873.73l-22.78-31.66c-1-.1-1.99-.2-2.98-.29-154.31,26.57-301.96,71.42-396.03,135.37,1.37,5.9,6.67,12.41,12.9,14.84,103.84,40.4,408.89-118.25,408.89-118.25Z"/><path class="cls-12" d="m1477.35,1864.2c-237.31,127.69-866.95-213.8-891.02-771.51,74.35,140.53,174.15,306.86,315.65,421.25,209.38,169.24,433.05,297.93,570.21,313.48,14.33,16.13,18.66,29.52,5.16,36.78Z"/><path class="cls-18" d="m1472.19,1827.42c-137.16-15.55-360.83-144.24-570.21-313.48-141.5-114.39-241.3-280.72-315.65-421.25-.07-1.29-.12-2.58-.17-3.87-2.25-59.17,388,245.94,698.67,610.97,0,0,142.56,77.19,187.36,127.63Z"/><path class="cls-7" d="m1433.98,1413.19c-70.03,61.89-177.11,149.61-177.11,149.61-555.81-407.13-389.88-940.2-349.47-1046.45,2.52-6.63,7.79-11.47,14.05-13.65,88,168.83,221.91,593.59,512.53,910.49Z"/><path class="cls-4" d="m1518.57,1338.26c-16.92,6.04-66.54,47.32-118.09,92.87-290.62-316.9-422.69-733.73-479.03-928.43,4.41-1.53,9.32-1.74,14.12-.33,267.21,79.1,741.36,779.32,583,835.88Z"/><path class="cls-11" d="m1618.67,560.66c-37.77,167.02-168.32,422.02-234.33,656.44-1.96,6.95-24.23-11.52-26.15-4.56,24.34-467.19,199.39-614.75,253.45-649.42,2.22-1.42,4.62-2.22,7.03-2.46Z"/><path class="cls-15" d="m1395.49,1235.48l-37.52-18.66c.07-1.43.14-2.86.22-4.28,66.65-241.5,156.29-481.86,260.48-651.88,7.57-.78,15.17,3.96,17.13,12.05,32.71,134.69-240.31,662.77-240.31,662.77Z"/><g class="cls-22"><path class="cls-1" d="m1472.19,1827.42c14.33,16.13,18.66,29.52,5.16,36.78-1.32.71-2.67,1.39-4.02,2.08l5.37,7.46s-305.05,158.65-408.89,118.25c-6.24-2.42-11.53-8.94-12.9-14.84-.44-1.88-.49-3.69-.04-5.29,6.73-24.19,32.46-80.54,128.83-112.3-268.23-91.4-582.5-376.04-599.36-766.88-.07-1.29-.12-2.58-.17-3.87-2.25-59.17,388,245.94,698.67,610.97,0,0,142.56,77.19,187.36,127.63Zm163.61-1254.71c-1.96-8.09-9.56-12.83-17.13-12.05-2.41.24-4.81,1.04-7.03,2.46-41.77,26.79-155.75,120.96-216.66,377.85-132.59-195.88-322.98-398.2-459.41-438.58-4.8-1.42-9.71-1.21-14.12.33-6.26,2.18-11.53,7.01-14.05,13.65-40.42,106.25-206.35,639.32,349.47,1046.45,0,0,107.08-87.71,177.11-149.61-1.92-2.1-3.83-4.2-5.74-6.3,40.76-35.15,76.49-63.68,90.33-68.63,59.09-21.11,30.11-131.83-43.31-266.46,77.74-166.89,181.42-413.13,160.54-499.1Z"/></g></g><g id="Icon_users"><g id="Circle_Tick_upgrade_Calendar"><g class="cls-21"><path class="cls-10" d="m1196.76,1041.01c64.28-37.35,153.29-32.09,251.54,24.64,195.23,112.72,352.99,385.97,352.36,610.31-.32,111.45-39.66,189.86-103.12,226.74l-25.96,14.96c63.46-36.88-436.5-899.04-500.78-861.68l25.96-14.96Z"/><ellipse class="cls-3" cx="1421.18" cy="1486.82" rx="288.64" ry="498.32" transform="translate(-554.63 915.39) rotate(-30.16)"/></g></g><path class="cls-13" d="m1623.75,1465.89v-196.46l26.4-14.27s72.29,103.26,98.04,175.98v81.74l-124.44-46.98Z"/></g><g id="PlusTeal"><g id="_Blue"><g class="cls-21"><path class="cls-19" d="m1773.69,1639.93l.35-121.86,24.67-14.34-.35,121.86c0,2.8-1,4.76-2.59,5.69l-24.67,14.34c1.59-.93,2.58-2.89,2.59-5.69Z"/><path class="cls-17" d="m1609.97,1309.6c1.61-.94,3.85-.81,6.32.62l106.05,61.23-24.67,14.34-106.05-61.23c-2.47-1.42-4.7-1.56-6.32-.62l24.67-14.34Z"/><path class="cls-16" d="m1798.96,1415.69l106.05,61.23c4.9,2.83,8.86,9.69,8.85,15.33l-.19,67.64c0,2.8-1,4.77-2.59,5.69l-24.67,14.34c1.59-.93,2.58-2.9,2.59-5.69l.19-67.64c.02-5.63-3.94-12.5-8.85-15.33l-106.05-61.23,24.67-14.34Z"/><path class="cls-14" d="m1706.92,1258.85c-4.9-2.83-8.89-.56-8.9,5.07l-.35,121.86-106.05-61.23c-4.9-2.83-8.89-.56-8.91,5.08l-.19,67.64c-.02,5.63,3.95,12.49,8.85,15.33l106.05,61.23-.35,121.86c-.02,5.63,3.95,12.49,8.85,15.32l58.87,33.99c4.9,2.83,8.89.56,8.91-5.07l.35-121.86,106.05,61.23c4.9,2.83,8.89.55,8.9-5.07l.19-67.64c.02-5.63-3.94-12.5-8.85-15.33l-106.05-61.23.35-121.86c.02-5.63-3.95-12.49-8.85-15.33l-58.87-33.99Z"/><path class="cls-5" d="m1725.27,1243.9c1.61-.94,3.85-.81,6.31.62l58.87,33.99c4.9,2.83,8.87,9.69,8.85,15.33l-.35,121.86-24.67,14.34.35-121.86c.02-5.63-3.95-12.49-8.85-15.33l-58.87-33.99c-2.46-1.42-4.7-1.56-6.31-.62l24.67-14.34Z"/></g></g></g><g id="Key"><g class="cls-20"><path class="cls-6" d="m1320.57,1349.14c-5.13-2.96-10.26-8.17-14.16-14.92-7.79-13.49-7.75-28.11.09-32.58,3.92-2.23,9.06-1.51,14.2,1.45,5.13,2.96,10.26,8.17,14.16,14.92,7.79,13.5,7.75,28.11-.09,32.58-3.92,2.23-9.06,1.52-14.19-1.45m.18-65.03c-9.37-5.41-18.74-6.72-25.9-2.65-14.3,8.16-14.38,34.82-.17,59.43,7.11,12.31,16.46,21.81,25.83,27.22,9.37,5.41,18.74,6.72,25.89,2.64,14.3-8.15,14.38-34.81.17-59.43-7.11-12.31-16.46-21.81-25.82-27.22m17.31,173.66c-23.14-13.36-45.18-36.52-61.76-65.24-16.75-29.03-25.83-59.89-25.56-86.91.27-27.04,9.87-46.97,27.01-56.12,16.95-9.04,39-5.7,61.03,7.02,22.51,13,44.99,35.79,61.94,65.15,19.27,33.38,28.28,69.27,24.73,98.48-1.55,12.71,2.34,28.27,10.66,42.68l26.81,46.44-9.44,34.61c-1.23,4.51.06,10.88,3.37,16.62,2.49,4.32,5.87,7.84,9.33,9.84,1.14.66,2.28,1.15,3.41,1.45l31.12,8.38-8.43,30.93c-1.23,4.51.06,10.88,3.37,16.62,2.5,4.32,5.88,7.84,9.34,9.84,1.13.65,2.27,1.15,3.4,1.45l34.83,9.37,6.67,11.55-.18,62.68-8.21,4.68-39.29-22.68-121.6-210.61c-7.1-12.3-16.82-22.5-26.69-28.2-1.52-.88-3.05-1.65-4.57-2.31-3.78-1.63-7.55-3.53-11.29-5.69m.8-220.4c-27.2-15.71-52.95-18.61-72.56-8.14-20.37,10.86-31.76,34.55-32.08,66.7-.32,32.13,10.46,68.8,30.36,103.28,11.56,20.02,25.24,37.69,40.68,52.52,10.58,10.16,21.79,18.69,32.99,25.16,4.39,2.53,8.78,4.75,13.12,6.62.84.36,1.68.79,2.53,1.28,5.53,3.19,10.99,8.94,14.99,15.88l124.01,214.79c1.55,2.68,3.64,4.89,5.83,6.15l46.14,26.64c2.19,1.26,4.29,1.48,5.85.59l13.07-7.45c1.56-.88,2.43-2.8,2.44-5.32l.2-70.55c0-2.52-.85-5.44-2.4-8.11l-12.44-21.55c-1.56-2.71-3.67-4.91-5.84-6.16-.71-.41-1.43-.72-2.14-.91l-33.88-9.13,8.43-30.92c1.23-4.51-.06-10.88-3.37-16.62-2.49-4.32-5.88-7.84-9.34-9.83-1.13-.65-2.27-1.15-3.39-1.45l-31.13-8.38,9.18-33.65c.77-2.84-.03-6.8-2.11-10.41l-30.17-52.27c-4.69-8.12-6.88-16.92-6-24.14,2.02-16.61.53-35.83-4.31-55.6-5.08-20.73-13.52-41.39-25.08-61.42-19.4-33.61-45.26-61.01-72.79-77.15-.27-.16-.53-.31-.79-.46"/></g><path class="cls-8" d="m1312.46,1354.39c-5.13-2.96-10.26-8.17-14.16-14.92-7.79-13.49-7.75-28.11.09-32.58,3.92-2.23,9.06-1.51,14.2,1.45,5.13,2.96,10.26,8.17,14.16,14.92,7.79,13.5,7.75,28.11-.09,32.58-3.92,2.23-9.06,1.52-14.19-1.45m.18-65.03c-9.37-5.41-18.74-6.72-25.9-2.65-14.3,8.16-14.38,34.82-.17,59.43,7.11,12.31,16.46,21.81,25.83,27.22,9.37,5.41,18.74,6.72,25.89,2.64,14.3-8.15,14.38-34.81.17-59.43-7.11-12.31-16.46-21.81-25.82-27.22m17.31,173.66c-23.14-13.36-45.18-36.52-61.76-65.24-16.75-29.03-25.83-59.89-25.56-86.91.27-27.04,9.87-46.97,27.01-56.12,16.95-9.04,39-5.7,61.03,7.02,22.51,13,44.99,35.79,61.94,65.15,19.27,33.38,28.28,69.27,24.73,98.48-1.55,12.71,2.34,28.27,10.66,42.68l26.81,46.44-9.44,34.61c-1.23,4.51.06,10.88,3.37,16.62,2.49,4.32,5.87,7.84,9.33,9.84,1.14.66,2.28,1.15,3.41,1.45l31.12,8.38-8.43,30.93c-1.23,4.51.06,10.88,3.37,16.62,2.5,4.32,5.88,7.84,9.34,9.84,1.13.65,2.27,1.15,3.4,1.45l34.83,9.37,6.67,11.55-.18,62.68-8.21,4.68-39.29-22.68-121.6-210.61c-7.1-12.3-16.82-22.5-26.69-28.2-1.52-.88-3.05-1.65-4.57-2.31-3.78-1.63-7.55-3.53-11.29-5.69m.8-220.4c-27.2-15.71-52.95-18.61-72.56-8.14-20.37,10.86-31.76,34.55-32.08,66.7-.32,32.13,10.46,68.8,30.36,103.28,11.56,20.02,25.24,37.69,40.68,52.52,10.58,10.16,21.79,18.69,32.99,25.16,4.39,2.53,8.78,4.75,13.12,6.62.84.36,1.68.79,2.53,1.28,5.53,3.19,10.99,8.94,14.99,15.88l124.01,214.79c1.55,2.68,3.64,4.89,5.83,6.15l46.14,26.64c2.19,1.26,4.29,1.48,5.85.59l13.07-7.45c1.56-.88,2.43-2.8,2.44-5.32l.2-70.55c0-2.52-.85-5.44-2.4-8.11l-12.44-21.55c-1.56-2.71-3.67-4.91-5.84-6.16-.71-.41-1.43-.72-2.14-.91l-33.88-9.13,8.43-30.92c1.23-4.51-.06-10.88-3.37-16.62-2.49-4.32-5.88-7.84-9.34-9.83-1.13-.65-2.27-1.15-3.39-1.45l-31.13-8.38,9.18-33.65c.77-2.84-.03-6.8-2.11-10.41l-30.17-52.27c-4.69-8.12-6.88-16.92-6-24.14,2.02-16.61.53-35.83-4.31-55.6-5.08-20.73-13.52-41.39-25.08-61.42-19.4-33.61-45.26-61.01-72.79-77.15-.27-.16-.53-.31-.79-.46"/></g></g></g></svg>