<?xml version="1.0" encoding="UTF-8"?><svg xmlns="http://www.w3.org/2000/svg" xmlns:xlink="http://www.w3.org/1999/xlink" viewBox="0 0 2500 2500"><defs><style>.cls-1{fill:rgba(255,204,204,.99);}.cls-1,.cls-2,.cls-3,.cls-4,.cls-5,.cls-6,.cls-7,.cls-8,.cls-9,.cls-10,.cls-11,.cls-12,.cls-13,.cls-14,.cls-15,.cls-16,.cls-17,.cls-18,.cls-19,.cls-20,.cls-21,.cls-22,.cls-23,.cls-24,.cls-25,.cls-26,.cls-27,.cls-28,.cls-29,.cls-30,.cls-31,.cls-32,.cls-33,.cls-34,.cls-35,.cls-36,.cls-37,.cls-38,.cls-39,.cls-40,.cls-41,.cls-42,.cls-43,.cls-44,.cls-45,.cls-46,.cls-47,.cls-48,.cls-49,.cls-50,.cls-51,.cls-52,.cls-53,.cls-54,.cls-55,.cls-56,.cls-57,.cls-58,.cls-59,.cls-60,.cls-61,.cls-62,.cls-63,.cls-64,.cls-65,.cls-66,.cls-67,.cls-68,.cls-69,.cls-70,.cls-71,.cls-72,.cls-73,.cls-74,.cls-75,.cls-76,.cls-77,.cls-78,.cls-79,.cls-80,.cls-81,.cls-82,.cls-83,.cls-84,.cls-85,.cls-86,.cls-87,.cls-88,.cls-89,.cls-90,.cls-91,.cls-92,.cls-93,.cls-94,.cls-95,.cls-96,.cls-97,.Estilo_grÃ_fico_96,.cls-98,.cls-99,.cls-100,.cls-101,.cls-102,.cls-103,.cls-104,.cls-105,.cls-106,.cls-107,.cls-108,.cls-109,.cls-110,.cls-111,.cls-112,.cls-113,.cls-114,.cls-115,.cls-116,.cls-117,.cls-118,.cls-119,.cls-120{stroke-width:0px;}.cls-2{fill:url(#Degradado_sin_nombre_12);}.cls-3{fill:url(#Degradado_sin_nombre_232);}.cls-4{fill:url(#Nueva_muestra_de_degradado_56-3);}.cls-121{opacity:.18;}.cls-5{fill:#036;}.cls-6{fill:url(#Degradado_sin_nombre_409);}.cls-6,.cls-31{fill-opacity:.98;}.cls-7{fill:url(#Nueva_muestra_de_degradado_56-7);}.cls-8{fill:#141226;}.cls-9{fill:#90e5ff;}.cls-10{fill:url(#linear-gradient);}.cls-11{fill:rgba(162,188,212,.99);}.cls-12{fill:url(#Degradado_sin_nombre_16-18);}.cls-13{fill:url(#Degradado_sin_nombre_16-23);}.cls-14{fill:url(#Nueva_muestra_de_degradado_19-7);}.cls-14,.cls-18,.cls-29,.cls-85,.cls-92,.cls-105{fill-opacity:.37;}.cls-15{fill:url(#Degradado_sin_nombre_16-3);}.cls-15,.cls-60,.cls-81{opacity:.1;}.cls-16{fill:url(#Degradado_sin_nombre_37);filter:url(#AI_DesenfoqueGaussiano_7);}.cls-17{fill:url(#Nueva_muestra_de_degradado_11-2);}.cls-18{fill:url(#Nueva_muestra_de_degradado_19-4);}.cls-19{fill:url(#Degradado_sin_nombre_13);}.cls-122{opacity:.5;}.cls-20{fill:url(#Degradado_sin_nombre_19);}.cls-123{stroke:#fff;stroke-width:.61px;}.cls-123,.cls-124,.cls-42,.cls-125,.cls-126,.cls-127,.cls-128{fill:none;}.cls-21{fill:url(#Nueva_muestra_de_degradado_11);}.cls-129{filter:url(#AI_DesenfoqueGaussiano_4);}.cls-22{fill:url(#Degradado_sin_nombre_16-19);}.cls-130,.cls-46{opacity:.6;}.cls-23{fill:url(#Nueva_muestra_de_degradado_56-6);}.cls-24{fill:url(#Degradado_sin_nombre_16-13);}.cls-25{fill:#1d5d94;}.cls-26{fill:url(#Degradado_sin_nombre_16-11);}.cls-26,.cls-51,.cls-84,.cls-96{opacity:.35;}.cls-27{fill:url(#Degradado_sin_nombre_966);}.cls-131{isolation:isolate;}.cls-29{fill:url(#Nueva_muestra_de_degradado_19-3);}.cls-30{fill:#85d8d1;}.cls-31{fill:url(#Degradado_sin_nombre_408);}.cls-124{opacity:.2;stroke:url(#Degradado_sin_nombre_5);stroke-width:16.82px;}.cls-124,.cls-125{stroke-miterlimit:10;}.cls-32{fill:rgba(10,38,75,.2);}.cls-33{fill:url(#Degradado_sin_nombre_234);}.cls-34{fill:url(#Degradado_sin_nombre_58);}.cls-35{fill:#353b3e;}.cls-36{fill:url(#Degradado_sin_nombre_232-2);}.cls-37{fill:url(#Nueva_muestra_de_degradado_58);}.cls-38{fill:url(#Degradado_sin_nombre_6-2);}.cls-39{fill:url(#Degradado_sin_nombre_16-22);}.cls-40{fill:url(#linear-gradient-5);}.cls-41{fill:url(#Nueva_muestra_de_degradado_56-2);}.cls-43{fill:url(#Degradado_sin_nombre_16);opacity:.13;}.cls-44{fill:url(#Nueva_muestra_de_degradado_19-8);}.cls-45{fill:#142540;}.cls-125{opacity:.65;stroke:url(#Nueva_muestra_de_degradado_62);stroke-width:6.73px;}.cls-46{fill:url(#Degradado_sin_nombre_16-6);}.cls-47{fill:url(#Degradado_sin_nombre_114);}.cls-48{fill:#fafbfc;}.cls-49{fill:url(#Nueva_muestra_de_degradado_19);}.cls-49,.cls-50,.cls-59{opacity:.99;}.cls-50{fill:url(#Nueva_muestra_de_degradado_19-5);}.cls-51{fill:url(#Degradado_sin_nombre_16-5);}.cls-52{fill:url(#Degradado_sin_nombre_16-26);}.cls-53{fill:url(#Degradado_sin_nombre_16-21);}.cls-54{fill:url(#Nueva_muestra_de_degradado_56);}.cls-55{fill:rgba(57,108,152,.99);}.cls-56{fill:url(#Degradado_sin_nombre_16-27);}.cls-57{fill:url(#Degradado_sin_nombre_16-25);}.cls-58{fill:#fff;}.cls-59{fill:url(#Nueva_muestra_de_degradado_19-9);}.cls-60{fill:url(#Degradado_sin_nombre_16-7);}.cls-61{fill:url(#Degradado_sin_nombre_15);}.cls-132{opacity:.47;}.cls-62{opacity:.8;}.cls-62,.cls-89{fill:#ccd3d8;fill-rule:evenodd;}.cls-133{filter:url(#AI_DesenfoqueGaussiano_4-3);}.cls-63{fill:#333a45;}.cls-64{fill:url(#Degradado_sin_nombre_7);}.cls-65{fill:url(#Degradado_sin_nombre_214);}.cls-66{fill:url(#linear-gradient-2);}.cls-67{fill:url(#Nueva_muestra_de_degradado_11-3);}.cls-68{fill:url(#Degradado_sin_nombre_273);}.cls-69{fill:url(#Degradado_sin_nombre_9);}.cls-70{fill:url(#Nueva_muestra_de_degradado_56-4);}.cls-71{fill:url(#Degradado_sin_nombre_16-8);opacity:.4;}.cls-72{fill:url(#Degradado_sin_nombre_16-16);}.cls-73{fill:url(#Degradado_sin_nombre_18);}.cls-74{fill:url(#Degradado_sin_nombre_11);}.cls-134{opacity:.16;}.cls-75{fill:url(#linear-gradient-3);}.cls-135{filter:url(#AI_DesenfoqueGaussiano_4-2);}.cls-76{fill:url(#Degradado_sin_nombre_16-24);}.cls-77{fill:url(#Degradado_sin_nombre_31);}.cls-136{clip-path:url(#clippath);}.cls-78{fill:url(#Degradado_sin_nombre_6);opacity:.64;}.cls-79{fill:url(#Degradado_sin_nombre_16-20);}.cls-80{fill:url(#Nueva_muestra_de_degradado_56-5);}.cls-81{fill:url(#Degradado_sin_nombre_16-4);}.cls-82{fill:url(#Nueva_muestra_de_degradado_19-6);}.cls-83{fill:rgba(127,160,190,.99);}.cls-84{fill:url(#Degradado_sin_nombre_16-9);}.cls-85{fill:url(#Nueva_muestra_de_degradado_19-2);}.cls-86{fill:url(#Degradado_sin_nombre_10);fill-opacity:.2;}.cls-87{fill:#d2a57d;}.cls-88{fill:#8586c1;}.cls-90{fill:#95eee5;}.cls-91{fill:#3cb3a3;}.cls-92{fill:url(#Nueva_muestra_de_degradado_19-10);}.cls-93{fill:url(#Degradado_sin_nombre_56);fill-opacity:.99;}.cls-94{fill:#e8ceb7;}.cls-95{fill:url(#Degradado_sin_nombre_59);opacity:.72;}.cls-95,.cls-137{mix-blend-mode:multiply;}.cls-96{fill:url(#Degradado_sin_nombre_16-2);}.cls-97{fill:#12abbb;}.Estilo_grÃ_fico_96{fill:url(#Degradado_sin_nombre_122);}.cls-98{fill:rgba(20,37,64,.99);}.cls-99{fill:rgba(77,210,210,.98);}.cls-126{stroke:#cff;stroke-width:1.21px;}.cls-126,.cls-127{stroke-linecap:round;stroke-linejoin:round;}.cls-100{fill:url(#Degradado_sin_nombre_24);}.cls-101{fill:rgba(6,70,123,.99);}.cls-102{fill:url(#Degradado_sin_nombre_23);}.cls-103{fill:url(#Degradado_sin_nombre_8);filter:url(#AI_DesenfoqueGaussiano_7-2);}.cls-104{fill:#225b8b;}.cls-105{fill:url(#Nueva_muestra_de_degradado_19-11);}.cls-106{fill:url(#Degradado_sin_nombre_16-12);}.cls-107{fill:#d4ecf6;}.cls-108{fill:url(#Degradado_sin_nombre_54);}.cls-127{stroke:#225b8b;stroke-width:1.21px;}.cls-109{fill:url(#Degradado_sin_nombre_16-17);}.cls-138{filter:url(#AI_DesenfoqueGaussiano_4-4);opacity:.24;}.cls-139{opacity:.17;}.cls-110{fill:url(#linear-gradient-4);}.cls-111{fill:#4dd2d2;opacity:.98;}.cls-112{fill:#a4dad3;}.cls-140{opacity:.25;}.cls-113{fill:url(#Degradado_sin_nombre_16-15);}.cls-114{fill:url(#Degradado_sin_nombre_16-10);opacity:.15;}.cls-115{fill:rgba(255,255,255,.95);}.cls-116{fill:rgba(232,206,183,.99);}.cls-117{fill:url(#Degradado_sin_nombre_16-14);}.cls-118{fill:url(#Nueva_muestra_de_degradado_56-8);}.cls-128{stroke:#333a45;stroke-width:5px;}.cls-119{fill:url(#Degradado_sin_nombre_379);mix-blend-mode:overlay;opacity:.34;}.cls-120{fill:rgba(34,91,139,.99);}</style><filter id="AI_DesenfoqueGaussiano_4"><feGaussianBlur stdDeviation="4"/></filter><linearGradient id="Degradado_sin_nombre_24" x1="28.96" y1="32.92" x2="247.56" y2="32.92" gradientUnits="userSpaceOnUse"><stop offset="0" stop-color="#7e9cbd" stop-opacity=".5"/><stop offset=".48" stop-color="#7e9cbd" stop-opacity=".1"/><stop offset="1" stop-color="#7e9cbd" stop-opacity="0"/></linearGradient><radialGradient id="Degradado_sin_nombre_23" cx="2494.06" cy="-1747.14" fx="2494.06" fy="-1747.14" r="44.83" gradientTransform="translate(-3438.41 1452.55) scale(1.4 .81)" gradientUnits="userSpaceOnUse"><stop offset="0" stop-color="#7e9cbd" stop-opacity=".3"/><stop offset="1" stop-color="#7e9cbd" stop-opacity="0"/></radialGradient><symbol id="shadowsvglight2OK" viewBox="0 0 269.1 74.2"><g class="cls-129"><path class="cls-100" d="m247.56,32.92c.09,15.15-21.04,27.43-47.19,27.42h-123.91c-2.86.01-5.66-.14-8.38-.42-.78-.08-1.55-.18-2.31-.28-.76-.1-1.52-.21-2.27-.34-.75-.12-1.49-.25-2.23-.4-.73-.14-1.46-.29-2.17-.46-1.35-.3-2.66-.65-3.95-1.02-.42-.13-.85-.25-1.27-.38-.67-.22-1.33-.44-1.99-.67-.65-.22-1.29-.46-1.92-.71-1.26-.49-2.48-1.02-3.65-1.58-.59-.28-1.16-.56-1.73-.86-.56-.29-1.11-.6-1.65-.91-.53-.31-1.06-.63-1.57-.95-.51-.32-1.01-.66-1.49-1-.97-.67-1.89-1.38-2.74-2.11-.43-.36-.84-.73-1.24-1.11-.4-.38-.78-.76-1.15-1.15-.18-.19-.36-.39-.53-.58-.65-.73-1.25-1.48-1.78-2.25-.19-.27-.37-.54-.55-.81-.13-.21-.26-.42-.39-.63-.25-.43-.48-.86-.7-1.29-.21-.44-.41-.87-.59-1.32-.18-.44-.34-.89-.48-1.34-.07-.22-.14-.45-.2-.67-.12-.46-.22-.92-.31-1.38-.16-.92-.25-1.85-.26-2.8-.08-15.15,21.05-27.43,47.2-27.43h123.9c.41,0,.82.01,1.22.01,1.63.03,3.23.1,4.81.21,1.19.09,2.36.2,3.52.34,1.15.14,2.29.3,3.42.48,1.76.29,3.48.64,5.16,1.04.46.11.92.23,1.37.34,1.4.37,2.76.77,4.09,1.21.66.22,1.31.45,1.95.69,2.89,1.07,5.57,2.32,7.99,3.71,3.22,1.86,5.98,3.99,8.18,6.32.37.39.72.79,1.06,1.19.33.4.65.8.95,1.21.76,1.03,1.41,2.08,1.94,3.17.65,1.3,1.13,2.64,1.44,4.02.21.91.34,1.84.38,2.78.01.24.02.47.02.71Z"/></g><ellipse class="cls-102" cx="62.94" cy="37.9" rx="62.94" ry="36.3"/></symbol><linearGradient id="Degradado_sin_nombre_122" x1="1427.46" y1="974.69" x2="1654.27" y2="974.69" gradientTransform="translate(2361.48) rotate(-180) scale(1 -1)" gradientUnits="userSpaceOnUse"><stop offset="0" stop-color="#eef7fb"/><stop offset="0" stop-color="#f0f8fb"/><stop offset=".07" stop-color="#fbfdfe"/><stop offset=".14" stop-color="#fff"/><stop offset=".2" stop-color="#d4ecf6"/><stop offset=".37" stop-color="#d4ecf6"/><stop offset=".57" stop-color="#d4ecf6"/><stop offset=".99" stop-color="#d4ecf6"/></linearGradient><linearGradient id="Degradado_sin_nombre_5" x1="123.08" y1="1520.41" x2="1408.7" y2="1520.41" gradientTransform="translate(384.27)" gradientUnits="userSpaceOnUse"><stop offset="0" stop-color="#1da1dc"/><stop offset="1" stop-color="#1da1dc"/></linearGradient><linearGradient id="Nueva_muestra_de_degradado_62" x1="128.13" y1="1517.89" x2="1403.66" y2="1517.89" gradientTransform="translate(384.27)" gradientUnits="userSpaceOnUse"><stop offset="0" stop-color="#1da1dc"/><stop offset="1" stop-color="#1da1dc"/></linearGradient><linearGradient id="Nueva_muestra_de_degradado_11" x1="1628.2" y1="1731.44" x2="2037.37" y2="1731.44" gradientTransform="translate(2361.48) rotate(-180) scale(1 -1)" gradientUnits="userSpaceOnUse"><stop offset="0" stop-color="#fafbfc"/><stop offset=".55" stop-color="#f5f8fa"/><stop offset=".99" stop-color="#e6f4fa"/><stop offset=".99" stop-color="#d4ecf6" stop-opacity=".9"/></linearGradient><linearGradient id="Degradado_sin_nombre_232" x1="1659.06" y1="1779.23" x2="2053.57" y2="1670.69" gradientTransform="translate(2361.48) rotate(-180) scale(1 -1)" gradientUnits="userSpaceOnUse"><stop offset="0" stop-color="#fff" stop-opacity="0"/><stop offset=".44" stop-color="#fff" stop-opacity="0"/><stop offset=".55" stop-color="#fcfdfe" stop-opacity=".01"/><stop offset=".64" stop-color="#f4f8fd" stop-opacity=".06"/><stop offset=".73" stop-color="#e7f0fb" stop-opacity=".13"/><stop offset=".82" stop-color="#d4e5f8" stop-opacity=".24"/><stop offset=".91" stop-color="#bcd7f4" stop-opacity=".37"/><stop offset=".93" stop-color="#b7d4f4" stop-opacity=".4"/></linearGradient><linearGradient id="Degradado_sin_nombre_232-2" x1="1559.02" y1="1102.83" x2="1934.15" y2="1964.17" xlink:href="#Degradado_sin_nombre_232"/><radialGradient id="Degradado_sin_nombre_273" cx="1736.19" cy="1810.33" fx="1736.19" fy="1810.33" r="379.03" gradientTransform="translate(2596.05 1435.32) rotate(-160.71) scale(1 -.56)" gradientUnits="userSpaceOnUse"><stop offset="0" stop-color="#fff" stop-opacity="0"/><stop offset=".44" stop-color="#fff" stop-opacity="0"/><stop offset=".55" stop-color="#fcfdfe" stop-opacity=".01"/><stop offset=".64" stop-color="#f4f8fd" stop-opacity=".06"/><stop offset=".73" stop-color="#e7f0fb" stop-opacity=".13"/><stop offset=".82" stop-color="#d4e5f8" stop-opacity=".24"/><stop offset=".91" stop-color="#bcd7f4" stop-opacity=".37"/><stop offset=".93" stop-color="#b7d4f4" stop-opacity=".4"/></radialGradient><linearGradient id="Degradado_sin_nombre_31" x1="1626.07" y1="1683.7" x2="2039.5" y2="1683.7" gradientTransform="translate(2361.48) rotate(-180) scale(1 -1)" gradientUnits="userSpaceOnUse"><stop offset="0" stop-color="#d4ecf6" stop-opacity=".1"/><stop offset=".13" stop-color="#b4cddd" stop-opacity=".1"/><stop offset=".53" stop-color="#90aac1" stop-opacity=".1"/><stop offset=".77" stop-color="#6d8699" stop-opacity=".23"/><stop offset="1" stop-color="#5d7586" stop-opacity=".3"/></linearGradient><linearGradient id="Degradado_sin_nombre_19" x1="1616.41" y1="1683.7" x2="2029.84" y2="1683.7" gradientTransform="translate(2361.48) rotate(-180) scale(1 -1)" gradientUnits="userSpaceOnUse"><stop offset="0" stop-color="#5d7586" stop-opacity=".3"/><stop offset=".05" stop-color="#6d8699" stop-opacity=".23"/><stop offset=".11" stop-color="#90aac1" stop-opacity=".1"/><stop offset=".49" stop-color="#b4cddd" stop-opacity=".1"/><stop offset=".62" stop-color="#d4ecf6" stop-opacity=".1"/></linearGradient><filter id="AI_DesenfoqueGaussiano_4-2"><feGaussianBlur stdDeviation="4"/></filter><linearGradient id="Degradado_sin_nombre_6" x1="-1519.01" y1="1703.34" x2="-1383.05" y2="1782.09" gradientTransform="translate(1984.6)" gradientUnits="userSpaceOnUse"><stop offset="0" stop-color="#5d7586" stop-opacity=".05"/><stop offset=".3" stop-color="#5d7586" stop-opacity=".3"/><stop offset=".32" stop-color="#5d7586" stop-opacity=".3"/><stop offset=".74" stop-color="#5d7586" stop-opacity=".3"/><stop offset="1" stop-color="#5d7586" stop-opacity=".05"/></linearGradient><filter id="AI_DesenfoqueGaussiano_4-3"><feGaussianBlur stdDeviation="4"/></filter><linearGradient id="Degradado_sin_nombre_6-2" x1="-1512.97" y1="1706.96" x2="-1393.36" y2="1776.23" xlink:href="#Degradado_sin_nombre_6"/><linearGradient id="Degradado_sin_nombre_18" x1="1820.93" y1="1412.5" x2="1817.71" y2="1688.34" gradientTransform="translate(2361.48) rotate(-180) scale(1 -1)" gradientUnits="userSpaceOnUse"><stop offset="0" stop-color="#1da1dc"/><stop offset=".42" stop-color="#1da1dc"/><stop offset=".98" stop-color="#0071b0"/></linearGradient><linearGradient id="Degradado_sin_nombre_59" x1="1875.18" y1="1400.99" x2="1683.11" y2="1673.48" gradientTransform="translate(2361.48) rotate(-180) scale(1 -1)" gradientUnits="userSpaceOnUse"><stop offset="0" stop-color="#1364c3" stop-opacity=".1"/><stop offset=".13" stop-color="#1364c3" stop-opacity="0"/><stop offset=".16" stop-color="#1364c3" stop-opacity=".3"/><stop offset=".31" stop-color="#1364c3" stop-opacity=".27"/><stop offset=".49" stop-color="#1364c3" stop-opacity=".2"/><stop offset=".5" stop-color="#1364c3" stop-opacity=".26"/><stop offset=".52" stop-color="#1364c3" stop-opacity=".41"/><stop offset=".54" stop-color="#1364c3" stop-opacity=".52"/><stop offset=".56" stop-color="#1364c3" stop-opacity=".58"/><stop offset=".58" stop-color="#1364c3" stop-opacity=".6"/><stop offset=".6" stop-color="#1364c3" stop-opacity=".56"/><stop offset=".76" stop-color="#1364c3" stop-opacity=".34"/><stop offset=".84" stop-color="#1364c3" stop-opacity=".25"/><stop offset=".92" stop-color="#1364c3" stop-opacity=".41"/><stop offset=".98" stop-color="#1364c3" stop-opacity=".5"/></linearGradient><linearGradient id="Degradado_sin_nombre_15" x1="468.81" y1="1468.97" x2="767.73" y2="1903.77" gradientUnits="userSpaceOnUse"><stop offset=".14" stop-color="#1da1dc"/><stop offset=".58" stop-color="#0e89c6"/><stop offset=".98" stop-color="#0071b0"/></linearGradient><radialGradient id="Degradado_sin_nombre_379" cx="2455.56" cy="2449.6" fx="2455.56" fy="2449.6" r="142.45" gradientTransform="translate(2461.22 1589.76) rotate(-119.64) scale(.79 -.68) skewX(-26.4)" gradientUnits="userSpaceOnUse"><stop offset=".27" stop-color="#f9a51f" stop-opacity=".8"/><stop offset=".39" stop-color="#f9a41f" stop-opacity=".79"/><stop offset=".49" stop-color="#f9a222" stop-opacity=".74"/><stop offset=".59" stop-color="#f99f26" stop-opacity=".67"/><stop offset=".68" stop-color="#fa9b2c" stop-opacity=".57"/><stop offset=".77" stop-color="#fb9633" stop-opacity=".44"/><stop offset=".86" stop-color="#fc8f3c" stop-opacity=".28"/><stop offset=".95" stop-color="#fe8747" stop-opacity=".09"/><stop offset=".98" stop-color="#ff844d" stop-opacity="0"/></radialGradient><filter id="AI_DesenfoqueGaussiano_4-4"><feGaussianBlur stdDeviation="4"/></filter><linearGradient id="Degradado_sin_nombre_114" x1="1926.61" y1="1067.68" x2="1265.4" y2="1067.68" gradientTransform="translate(2361.48) rotate(-180) scale(1 -1)" gradientUnits="userSpaceOnUse"><stop offset=".13" stop-color="#5d7586" stop-opacity=".3"/><stop offset=".85" stop-color="#90aac1" stop-opacity=".1"/><stop offset=".96" stop-color="#b4cddd" stop-opacity=".1"/><stop offset="1" stop-color="#d4ecf6" stop-opacity=".1"/></linearGradient><linearGradient id="linear-gradient" x1="401.2" y1="1130.38" x2="1071.07" y2="1130.38" gradientUnits="userSpaceOnUse"><stop offset="0" stop-color="#e5f4fa"/><stop offset=".54" stop-color="#e5f4fa"/><stop offset=".6" stop-color="#d5eaf7"/><stop offset=".64" stop-color="#c8e3f5"/><stop offset=".74" stop-color="#cbe4f4"/><stop offset="1" stop-color="#cee7f5"/></linearGradient><linearGradient id="Nueva_muestra_de_degradado_11-2" x1="414.63" y1="988.24" x2="1124.64" y2="1088.72" gradientTransform="matrix(1,0,0,1,0,0)" xlink:href="#Nueva_muestra_de_degradado_11"/><linearGradient id="linear-gradient-2" x1="1432.49" y1="984.02" x2="1693.67" y2="1097.72" gradientTransform="translate(2361.48) rotate(-180) scale(1 -1)" gradientUnits="userSpaceOnUse"><stop offset="0" stop-color="#90aac1" stop-opacity="0"/><stop offset=".13" stop-color="#90aac1" stop-opacity=".1"/><stop offset="1" stop-color="#90aac1" stop-opacity=".5"/></linearGradient><linearGradient id="Nueva_muestra_de_degradado_11-3" x1="638.14" y1="969.19" x2="947.35" y2="884.77" gradientTransform="matrix(1,0,0,1,0,0)" xlink:href="#Nueva_muestra_de_degradado_11"/><linearGradient id="Degradado_sin_nombre_54" x1="1273.88" y1="974.69" x2="1515.64" y2="974.69" gradientTransform="translate(2361.48) rotate(-180) scale(1 -1)" gradientUnits="userSpaceOnUse"><stop offset="0" stop-color="#d4ecf6"/><stop offset=".43" stop-color="#d4ecf6"/><stop offset=".63" stop-color="#d4ecf6"/><stop offset=".8" stop-color="#d4ecf6"/><stop offset=".86" stop-color="#fff"/><stop offset=".93" stop-color="#fbfdfe"/><stop offset=".99" stop-color="#f0f8fb"/><stop offset="1" stop-color="#eef7fb"/></linearGradient><linearGradient id="Degradado_sin_nombre_214" x1="1680.41" y1="954.88" x2="862.53" y2="1098.97" gradientTransform="translate(2361.48) rotate(-180) scale(1 -1)" gradientUnits="userSpaceOnUse"><stop offset=".19" stop-color="#b7d4f4" stop-opacity=".4"/><stop offset="1" stop-color="#b7d4f4" stop-opacity="0"/></linearGradient><linearGradient id="Degradado_sin_nombre_966" x1="1541.61" y1="791.47" x2="1540.54" y2="833.33" gradientTransform="translate(2361.48) rotate(-180) scale(1 -1)" gradientUnits="userSpaceOnUse"><stop offset="0" stop-color="#a9a7b7"/><stop offset=".59" stop-color="#8c8a9f"/><stop offset="1" stop-color="#7d7c93"/></linearGradient><linearGradient id="Degradado_sin_nombre_9" x1="1644.21" y1="959.43" x2="1478.04" y2="719.18" gradientTransform="translate(2361.48) rotate(-180) scale(1 -1)" gradientUnits="userSpaceOnUse"><stop offset="0" stop-color="#141226"/><stop offset=".58" stop-color="#27244b"/><stop offset=".98" stop-color="#27244b"/><stop offset="1" stop-color="#27244b"/></linearGradient><linearGradient id="Degradado_sin_nombre_16" x1="671.84" y1="6585.19" x2="957.77" y2="6299.26" gradientTransform="translate(1460.6 8644.09) rotate(-150) skewX(30)" gradientUnits="userSpaceOnUse"><stop offset="0" stop-color="#00b280"/><stop offset=".19" stop-color="#07af97"/><stop offset=".54" stop-color="#13abbf"/><stop offset=".83" stop-color="#1ba9d7"/><stop offset="1" stop-color="#1da8e0"/></linearGradient><linearGradient id="Degradado_sin_nombre_16-2" x1="741.05" y1="6460.93" x2="849.99" y2="6352" xlink:href="#Degradado_sin_nombre_16"/><linearGradient id="Degradado_sin_nombre_16-3" x1="-549.97" y1="1904.29" x2="-490.91" y2="1845.23" gradientTransform="translate(2485.82 2345.9) rotate(90) scale(1.15 .87) skewX(-23.41)" xlink:href="#Degradado_sin_nombre_16"/><linearGradient id="Degradado_sin_nombre_16-4" x1="-549.97" y1="1923.51" x2="-490.91" y2="1864.45" gradientTransform="translate(2485.82 2345.9) rotate(90) scale(1.15 .87) skewX(-23.41)" xlink:href="#Degradado_sin_nombre_16"/><linearGradient id="Degradado_sin_nombre_16-5" x1="-529.22" y1="1923.51" x2="-470.15" y2="1864.45" gradientTransform="translate(2485.82 2345.9) rotate(90) scale(1.15 .87) skewX(-23.41)" xlink:href="#Degradado_sin_nombre_16"/><linearGradient id="Degradado_sin_nombre_16-6" x1="-508.46" y1="1885.07" x2="-449.4" y2="1826.01" gradientTransform="translate(2485.82 2345.9) rotate(90) scale(1.15 .87) skewX(-23.41)" xlink:href="#Degradado_sin_nombre_16"/><linearGradient id="Degradado_sin_nombre_16-7" x1="-508.46" y1="1942.73" x2="-449.4" y2="1883.67" gradientTransform="translate(2485.82 2345.9) rotate(90) scale(1.15 .87) skewX(-23.41)" xlink:href="#Degradado_sin_nombre_16"/><linearGradient id="Degradado_sin_nombre_16-8" x1="-487.71" y1="1904.29" x2="-428.65" y2="1845.23" gradientTransform="translate(2485.82 2345.9) rotate(90) scale(1.15 .87) skewX(-23.41)" xlink:href="#Degradado_sin_nombre_16"/><linearGradient id="Degradado_sin_nombre_16-9" x1="-487.71" y1="1942.73" x2="-428.65" y2="1883.67" gradientTransform="translate(2485.82 2345.9) rotate(90) scale(1.15 .87) skewX(-23.41)" xlink:href="#Degradado_sin_nombre_16"/><linearGradient id="Degradado_sin_nombre_16-10" x1="-466.96" y1="1885.07" x2="-407.9" y2="1826.01" gradientTransform="translate(2485.82 2345.9) rotate(90) scale(1.15 .87) skewX(-23.41)" xlink:href="#Degradado_sin_nombre_16"/><linearGradient id="Degradado_sin_nombre_16-11" x1="-466.96" y1="1923.51" x2="-407.9" y2="1864.45" gradientTransform="translate(2485.82 2345.9) rotate(90) scale(1.15 .87) skewX(-23.41)" xlink:href="#Degradado_sin_nombre_16"/><radialGradient id="Degradado_sin_nombre_13" cx="-544.29" cy="1403.83" fx="-544.29" fy="1403.83" r="23.88" gradientTransform="translate(1232.73 2624.22) rotate(119.64) scale(.82 .7) skewX(-26.4)" gradientUnits="userSpaceOnUse"><stop offset="0" stop-color="#141226" stop-opacity=".3"/><stop offset="1" stop-color="#141226" stop-opacity="0"/></radialGradient><linearGradient id="Degradado_sin_nombre_37" x1="862.95" y1="1248.38" x2="945.83" y2="1248.38" gradientUnits="userSpaceOnUse"><stop offset="0" stop-color="#0f0b26" stop-opacity=".5"/><stop offset=".48" stop-color="#0f0b26" stop-opacity=".1"/><stop offset="1" stop-color="#0f0b26" stop-opacity="0"/></linearGradient><filter id="AI_DesenfoqueGaussiano_7"><feGaussianBlur stdDeviation="7"/></filter><radialGradient id="Degradado_sin_nombre_12" cx="-547.91" cy="1381" fx="-547.91" fy="1381" r="62.51" gradientTransform="translate(1235.39 2599.99) rotate(119.64) scale(.82 .7) skewX(-26.4)" gradientUnits="userSpaceOnUse"><stop offset="0" stop-color="#5d7586" stop-opacity=".3"/><stop offset="1" stop-color="#5d7586" stop-opacity="0"/></radialGradient><linearGradient id="Degradado_sin_nombre_8" x1="855.63" y1="1234.64" x2="1072.58" y2="1234.64" gradientUnits="userSpaceOnUse"><stop offset="0" stop-color="#5d7586" stop-opacity=".5"/><stop offset=".48" stop-color="#5d7586" stop-opacity=".1"/><stop offset="1" stop-color="#5d7586" stop-opacity="0"/></linearGradient><filter id="AI_DesenfoqueGaussiano_7-2"><feGaussianBlur stdDeviation="7"/></filter><linearGradient id="Degradado_sin_nombre_234" x1="837.84" y1="1185.79" x2="995.15" y2="1185.86" gradientUnits="userSpaceOnUse"><stop offset="0" stop-color="#fcfdfe" stop-opacity=".8"/><stop offset=".55" stop-color="#f5f8fa" stop-opacity=".8"/><stop offset=".99" stop-color="#e5f4fa" stop-opacity=".8"/></linearGradient><linearGradient id="Degradado_sin_nombre_10" x1="919.89" y1="1159.01" x2="835.34" y2="1255" gradientUnits="userSpaceOnUse"><stop offset="0" stop-color="#069" stop-opacity=".3"/><stop offset=".21" stop-color="#069" stop-opacity=".33"/><stop offset=".45" stop-color="#069" stop-opacity=".42"/><stop offset=".7" stop-color="#069" stop-opacity=".57"/><stop offset=".97" stop-color="#069" stop-opacity=".78"/><stop offset=".99" stop-color="#069" stop-opacity=".8"/></linearGradient><linearGradient id="Degradado_sin_nombre_7" x1="876.66" y1="1174.76" x2="893.42" y2="1184.76" gradientUnits="userSpaceOnUse"><stop offset="0" stop-color="#fcfdfe" stop-opacity=".6"/><stop offset=".55" stop-color="#f5f8fa" stop-opacity=".4"/><stop offset=".99" stop-color="#e5f4fa" stop-opacity="0"/></linearGradient><linearGradient id="Degradado_sin_nombre_58" x1="979.53" y1="1225.68" x2="879.95" y2="1164.08" gradientUnits="userSpaceOnUse"><stop offset="0" stop-color="#0a264b" stop-opacity=".6"/><stop offset=".99" stop-color="#0a264b" stop-opacity="0"/></linearGradient><linearGradient id="Nueva_muestra_de_degradado_56" x1="2281.02" y1="-139.46" x2="2887.02" y2="266.69" gradientTransform="translate(-1641.77)" gradientUnits="userSpaceOnUse"><stop offset="0" stop-color="#fff"/><stop offset=".51" stop-color="#eef7fb"/><stop offset=".63" stop-color="#e2f2f8"/><stop offset=".8" stop-color="#d7edf6"/><stop offset=".99" stop-color="#d4ecf6"/></linearGradient><linearGradient id="Nueva_muestra_de_degradado_56-2" x1="2953.52" y1="341.53" x2="3280.16" y2="702.55" xlink:href="#Nueva_muestra_de_degradado_56"/><linearGradient id="Nueva_muestra_de_degradado_56-3" x1="2599.59" y1="-151.26" x2="3274.36" y2="454.74" xlink:href="#Nueva_muestra_de_degradado_56"/><linearGradient id="Nueva_muestra_de_degradado_56-4" x1="1245.7" y1="-53.42" x2="1252.2" y2="1433.67" gradientTransform="matrix(1,0,0,1,0,0)" xlink:href="#Nueva_muestra_de_degradado_56"/><linearGradient id="Degradado_sin_nombre_16-12" x1="216.19" y1="7422.98" x2="417.9" y2="7221.28" gradientTransform="translate(967.75 8711.77) rotate(30) scale(1 -1) skewX(-30)" xlink:href="#Degradado_sin_nombre_16"/><linearGradient id="Degradado_sin_nombre_16-13" x1="114.01" y1="7347.97" x2="317.54" y2="7144.44" gradientTransform="translate(967.75 8711.77) rotate(30) scale(1 -1) skewX(-30)" xlink:href="#Degradado_sin_nombre_16"/><linearGradient id="Degradado_sin_nombre_16-14" x1="217.62" y1="7436.3" x2="420.52" y2="7233.4" gradientTransform="translate(967.75 8711.77) rotate(30) scale(1 -1) skewX(-30)" xlink:href="#Degradado_sin_nombre_16"/><linearGradient id="Degradado_sin_nombre_16-15" x1="78.48" y1="7305.27" x2="273.15" y2="7110.6" gradientTransform="translate(967.75 8711.77) rotate(30) scale(1 -1) skewX(-30)" xlink:href="#Degradado_sin_nombre_16"/><linearGradient id="Degradado_sin_nombre_16-16" x1="144.06" y1="7355.17" x2="334.77" y2="7164.46" gradientTransform="translate(967.75 8711.77) rotate(30) scale(1 -1) skewX(-30)" xlink:href="#Degradado_sin_nombre_16"/><linearGradient id="Degradado_sin_nombre_16-17" x1="176.19" y1="7385.29" x2="367.95" y2="7193.52" gradientTransform="translate(967.75 8711.77) rotate(30) scale(1 -1) skewX(-30)" xlink:href="#Degradado_sin_nombre_16"/><linearGradient id="Degradado_sin_nombre_16-18" x1="257.18" y1="7469.37" x2="460.7" y2="7265.85" gradientTransform="translate(967.75 8711.77) rotate(30) scale(1 -1) skewX(-30)" xlink:href="#Degradado_sin_nombre_16"/><linearGradient id="Degradado_sin_nombre_16-19" x1="261.08" y1="7457.07" x2="454.08" y2="7264.07" gradientTransform="translate(967.75 8711.77) rotate(30) scale(1 -1) skewX(-30)" xlink:href="#Degradado_sin_nombre_16"/><linearGradient id="Degradado_sin_nombre_16-20" x1="130" y1="7342.91" x2="322.79" y2="7150.13" gradientTransform="translate(967.75 8711.77) rotate(30) scale(1 -1) skewX(-30)" xlink:href="#Degradado_sin_nombre_16"/><linearGradient id="Degradado_sin_nombre_16-21" x1="165.62" y1="7374.47" x2="357.39" y2="7182.7" gradientTransform="translate(967.75 8711.77) rotate(30) scale(1 -1) skewX(-30)" xlink:href="#Degradado_sin_nombre_16"/><linearGradient id="Degradado_sin_nombre_16-22" x1="198.98" y1="7403.69" x2="389.69" y2="7212.98" gradientTransform="translate(967.75 8711.77) rotate(30) scale(1 -1) skewX(-30)" xlink:href="#Degradado_sin_nombre_16"/><linearGradient id="Degradado_sin_nombre_16-23" x1="211.11" y1="7418.01" x2="403.81" y2="7225.31" gradientTransform="translate(967.75 8711.77) rotate(30) scale(1 -1) skewX(-30)" xlink:href="#Degradado_sin_nombre_16"/><linearGradient id="Degradado_sin_nombre_16-24" x1="94.12" y1="7313.87" x2="285.89" y2="7122.1" gradientTransform="translate(967.75 8711.77) rotate(30) scale(1 -1) skewX(-30)" xlink:href="#Degradado_sin_nombre_16"/><linearGradient id="Degradado_sin_nombre_16-25" x1="73.03" y1="7302.29" x2="276.58" y2="7098.74" gradientTransform="translate(967.75 8711.77) rotate(30) scale(1 -1) skewX(-30)" xlink:href="#Degradado_sin_nombre_16"/><linearGradient id="Degradado_sin_nombre_16-26" x1="247.75" y1="7445.85" x2="439.39" y2="7254.2" gradientTransform="translate(967.75 8711.77) rotate(30) scale(1 -1) skewX(-30)" xlink:href="#Degradado_sin_nombre_16"/><linearGradient id="Degradado_sin_nombre_16-27" x1="112.99" y1="7334.81" x2="315.89" y2="7131.91" gradientTransform="translate(967.75 8711.77) rotate(30) scale(1 -1) skewX(-30)" xlink:href="#Degradado_sin_nombre_16"/><linearGradient id="linear-gradient-3" x1="1014.43" y1="1149.46" x2="1080.52" y2="1149.46" gradientUnits="userSpaceOnUse"><stop offset="0" stop-color="#e5f4fa"/><stop offset=".37" stop-color="#daedf8"/><stop offset=".81" stop-color="#cae3f5"/><stop offset=".99" stop-color="#e2f2f9"/></linearGradient><linearGradient id="Degradado_sin_nombre_11" x1="1047.14" y1="1108.53" x2="1048.24" y2="1193.64" gradientUnits="userSpaceOnUse"><stop offset=".54" stop-color="#010d1a" stop-opacity="0"/><stop offset=".82" stop-color="#010d1a" stop-opacity=".55"/><stop offset="1" stop-color="#010d1a"/></linearGradient><linearGradient id="linear-gradient-4" x1="1517.26" y1="1429.28" x2="1574.73" y2="1437.41" gradientTransform="translate(2714.53 1214.98) rotate(120.67) scale(1.01 1.03) skewX(-28.42)" gradientUnits="userSpaceOnUse"><stop offset="0" stop-color="#f1f7fa"/><stop offset=".55" stop-color="#eaf5fa"/><stop offset=".96" stop-color="#f8fafb"/></linearGradient><linearGradient id="linear-gradient-5" x1="1018.77" y1="1119.49" x2="1076.22" y2="1119.49" gradientUnits="userSpaceOnUse"><stop offset="0" stop-color="#657d8f"/><stop offset="1" stop-color="#aec8d9"/></linearGradient><clipPath id="clippath"><path id="SVGID" class="cls-42" d="m1047.43,1131.64h0c1.15,0,2.19-.7,2.62-1.77l68.32-63.91,15.38-143.32-94.54-23.71-90.03,53.95,58.87,166.2,36.89,11.06c.49.91,1.45,1.48,2.49,1.48Z"/></clipPath><linearGradient id="Nueva_muestra_de_degradado_58" x1="98.49" y1="1066.76" x2="107.61" y2="1186.38" gradientTransform="translate(945.77)" gradientUnits="userSpaceOnUse"><stop offset="0" stop-color="#010d1a" stop-opacity="0"/><stop offset="1" stop-color="#010d1a"/></linearGradient><linearGradient id="Degradado_sin_nombre_409" x1="293.76" y1="1352.81" x2="350.13" y2="1352.81" gradientTransform="translate(1370.02 -252.93) rotate(27.72)" gradientUnits="userSpaceOnUse"><stop offset="0" stop-color="#12abbb" stop-opacity="0"/><stop offset="1" stop-color="#12abbb" stop-opacity=".5"/></linearGradient><linearGradient id="Degradado_sin_nombre_408" x1="335.03" y1="1511.49" x2="462.81" y2="1511.49" gradientTransform="translate(1370.02 -252.93) rotate(27.72)" gradientUnits="userSpaceOnUse"><stop offset=".34" stop-color="#12abbb" stop-opacity="0"/><stop offset="1" stop-color="#12abbb" stop-opacity=".5"/></linearGradient><linearGradient id="Degradado_sin_nombre_56" x1="1762.27" y1="865.93" x2="1814.96" y2="865.93" gradientTransform="translate(2361.48) rotate(-180) scale(1 -1)" gradientUnits="userSpaceOnUse"><stop offset=".15" stop-color="#010d1a" stop-opacity="0"/><stop offset=".55" stop-color="#010d1a" stop-opacity=".37"/><stop offset="1" stop-color="#010d1a"/></linearGradient><linearGradient id="Nueva_muestra_de_degradado_19" x1="1775.58" y1="785.65" x2="1818.84" y2="789.58" gradientTransform="translate(2361.48) rotate(-180) scale(1 -1)" gradientUnits="userSpaceOnUse"><stop offset="0" stop-color="#010d1a" stop-opacity="0"/><stop offset="1" stop-color="#010d1a"/></linearGradient><linearGradient id="Nueva_muestra_de_degradado_19-2" x1="566.37" y1="887.77" x2="543.46" y2="869.8" gradientTransform="matrix(1,0,0,1,0,0)" xlink:href="#Nueva_muestra_de_degradado_19"/><linearGradient id="Nueva_muestra_de_degradado_19-3" x1="1814.71" y1="920.26" x2="1835.09" y2="782.24" xlink:href="#Nueva_muestra_de_degradado_19"/><linearGradient id="Nueva_muestra_de_degradado_19-4" x1="1832.18" y1="785.82" x2="1846.13" y2="777.23" xlink:href="#Nueva_muestra_de_degradado_19"/><linearGradient id="Nueva_muestra_de_degradado_19-5" x1="1849.61" y1="831.72" x2="1844.24" y2="883.93" xlink:href="#Nueva_muestra_de_degradado_19"/><linearGradient id="Nueva_muestra_de_degradado_19-6" x1="1675.83" y1="1118.69" x2="1737.69" y2="834.06" xlink:href="#Nueva_muestra_de_degradado_19"/><linearGradient id="Nueva_muestra_de_degradado_19-7" x1="1676.87" y1="1005.77" x2="1693.47" y2="1005.77" xlink:href="#Nueva_muestra_de_degradado_19"/><linearGradient id="Nueva_muestra_de_degradado_19-8" x1="1671.59" y1="1027.21" x2="1710.57" y2="919.22" xlink:href="#Nueva_muestra_de_degradado_19"/><linearGradient id="Nueva_muestra_de_degradado_19-9" x1="1655.16" y1="846.32" x2="1749.92" y2="914.26" xlink:href="#Nueva_muestra_de_degradado_19"/><linearGradient id="Nueva_muestra_de_degradado_19-10" x1="1671.9" y1="896.13" x2="1685.85" y2="865.38" xlink:href="#Nueva_muestra_de_degradado_19"/><linearGradient id="Nueva_muestra_de_degradado_19-11" x1="1652.29" y1="906.91" x2="1677.61" y2="906.91" xlink:href="#Nueva_muestra_de_degradado_19"/><linearGradient id="Nueva_muestra_de_degradado_56-5" x1="11727.88" y1="-5540.25" x2="12308.9" y2="-5150.84" gradientTransform="translate(-8235.06 5822.11) scale(.82)" xlink:href="#Nueva_muestra_de_degradado_56"/><linearGradient id="Nueva_muestra_de_degradado_56-6" x1="12031.36" y1="-5549.38" x2="12678.31" y2="-4968.36" gradientTransform="translate(-8235.06 5822.11) scale(.82)" xlink:href="#Nueva_muestra_de_degradado_56"/><linearGradient id="Nueva_muestra_de_degradado_56-7" x1="12372.65" y1="-5079.09" x2="12685.83" y2="-4732.95" gradientTransform="translate(-8235.06 5822.11) scale(.82)" xlink:href="#Nueva_muestra_de_degradado_56"/><linearGradient id="Nueva_muestra_de_degradado_56-8" x1="12309.33" y1="-5457.75" x2="12315.57" y2="-4031.97" gradientTransform="translate(-8235.06 5822.11) scale(.82)" xlink:href="#Nueva_muestra_de_degradado_56"/></defs><g class="cls-131"><g id="LinesArrows"><g id="Connector_Blue_Line"><path class="cls-124" d="m1198.54,588.52v664.71c0,29.61-20.99,65.91-46.65,80.69l-616.87,355.16c-25.66,14.77-25.67,38.97-.04,53.78l1202.97,694.72c25.64,14.81,46.61,2.7,46.61-26.91v-607.12"/><path class="cls-125" d="m1198.54,588.52v664.71c0,29.61-20.99,65.91-46.65,80.69l-616.87,355.16c-25.66,14.77-25.67,38.97-.04,53.78l1202.97,694.72c25.64,14.81,46.61,2.7,46.61-26.91v-607.12"/></g></g><g id="Shield"><g id="Shield_Group"><g id="Shield-Blue"><g id="Base_shield_pill"><path class="cls-21" d="m324.11,1693.33c5.52,18.84,21.8,37.62,48.4,52.99l105.76,61.06c61.09,35.26,153.49,39.1,206.39,8.55l15.03-8.68c18.1-10.45,29.23-23.57,33.59-37.71-5.53-18.84-21.81-37.63-48.41-52.99l-105.76-61.06c-61.08-35.26-153.49-39.1-206.38-8.55l-15.03,8.68c-18.1,10.44-29.23,23.56-33.59,37.72Z"/><path class="cls-3" d="m324.11,1693.33c5.52,18.84,21.8,37.62,48.4,52.99l105.76,61.06c61.09,35.26,153.49,39.1,206.39,8.55l15.03-8.68c18.1-10.45,29.23-23.57,33.59-37.71-5.53-18.84-21.81-37.63-48.41-52.99l-105.76-61.06c-61.08-35.26-153.49-39.1-206.38-8.55l-15.03,8.68c-18.1,10.44-29.23,23.56-33.59,37.72Z"/><path class="cls-36" d="m324.11,1693.33c5.52,18.84,21.8,37.62,48.4,52.99l105.76,61.06c61.09,35.26,153.49,39.1,206.39,8.55l15.03-8.68c18.1-10.45,29.23-23.57,33.59-37.71-5.53-18.84-21.81-37.63-48.41-52.99l-105.76-61.06c-61.08-35.26-153.49-39.1-206.38-8.55l-15.03,8.68c-18.1,10.44-29.23,23.56-33.59,37.72Z"/><path class="cls-68" d="m324.11,1693.33c5.52,18.84,21.8,37.62,48.4,52.99l105.76,61.06c61.09,35.26,153.49,39.1,206.39,8.55l15.03-8.68c18.1-10.45,29.23-23.57,33.59-37.71-5.53-18.84-21.81-37.63-48.41-52.99l-105.76-61.06c-61.08-35.26-153.49-39.1-206.38-8.55l-15.03,8.68c-18.1,10.44-29.23,23.56-33.59,37.72Z"/><path class="cls-107" d="m321.98,1678.92c0,4.77.71,9.59,2.13,14.42,4.36-14.16,15.48-27.27,33.59-37.72l15.03-8.68c52.89-30.54,145.3-26.71,206.38,8.55l105.76,61.06c26.6,15.36,42.88,34.15,48.41,52.99,1.43-4.59,2.13-9.28,2.13-14.03,0-23.42-17.12-48.12-50.54-67.41l-105.76-61.06c-61.08-35.26-153.49-39.1-206.38-8.55l-15.03,8.68c-23.97,13.83-35.71,32.35-35.71,51.75Z"/><path class="cls-77" d="m321.98,1678.92c0,4.77.71,9.59,2.13,14.42,4.36-14.16,15.48-27.27,33.59-37.72l15.03-8.68c52.89-30.54,145.3-26.71,206.38,8.55l105.76,61.06c26.6,15.36,42.88,34.15,48.41,52.99,1.43-4.59,2.13-9.28,2.13-14.03,0-23.42-17.12-48.12-50.54-67.41l-105.76-61.06c-61.08-35.26-153.49-39.1-206.38-8.55l-15.03,8.68c-23.97,13.83-35.71,32.35-35.71,51.75Z"/><path class="cls-20" d="m321.98,1678.92c0,4.77.71,9.59,2.13,14.42,4.36-14.16,15.48-27.27,33.59-37.72l15.03-8.68c52.89-30.54,145.3-26.71,206.38,8.55l105.76,61.06c26.6,15.36,42.88,34.15,48.41,52.99,1.43-4.59,2.13-9.28,2.13-14.03,0-23.42-17.12-48.12-50.54-67.41l-105.76-61.06c-61.08-35.26-153.49-39.1-206.38-8.55l-15.03,8.68c-23.97,13.83-35.71,32.35-35.71,51.75Z"/><path class="cls-58" d="m462.36,1597.86c40.56,0,83.34,9.88,116.75,29.17l105.76,61.06c33.41,19.29,50.54,43.99,50.54,67.41,0,4.75-.7,9.44-2.13,14.03-4.36,14.15-15.48,27.26-33.59,37.71l-15.03,8.68c-23.97,13.84-56.04,20.62-89.64,20.62-40.56,0-83.34-9.88-116.75-29.17l-105.76-61.06c-26.6-15.36-42.88-34.15-48.4-52.99-1.42-4.82-2.13-9.64-2.13-14.42,0-19.4,11.74-37.92,35.71-51.75l15.03-8.68c23.96-13.84,56.04-20.62,89.63-20.62m0-6.07v6.07-6.07c-35.83,0-68.75,7.61-92.68,21.43l-15.03,8.68c-24.99,14.42-38.75,34.67-38.75,57.01,0,5.35.8,10.78,2.38,16.13,6.22,21.23,23.92,40.78,51.19,56.53l105.76,61.06c33.01,19.06,76.68,29.99,119.79,29.99,35.82,0,68.74-7.61,92.67-21.43l15.03-8.68c18.83-10.87,31.4-25.11,36.35-41.19,1.59-5.11,2.4-10.43,2.4-15.82,0-26.53-19.53-53.01-53.57-72.67l-105.76-61.06c-33.01-19.06-76.67-29.99-119.78-29.99h0Z"/></g><g id="Shield-2"><g id="Shadow_shield" class="cls-122"><g class="cls-135"><path class="cls-78" d="m590.29,1783.8l-128.23-74.04c-3.45-1.99-3.02-5.48.97-7.78h0c3.99-2.3,10.02-2.55,13.48-.56l128.23,74.04c3.45,1.99,3.02,5.48-.97,7.78h0c-3.99,2.3-10.02,2.55-13.48.56Z"/></g><g class="cls-133"><path class="cls-38" d="m581.34,1777.74l-112.81-65.13c-3.04-1.75-2.66-4.82.85-6.84h0c3.51-2.03,8.82-2.25,11.85-.49l112.81,65.13c3.04,1.75,2.66,4.82-.85,6.84h0c-3.51,2.03-8.82,2.25-11.85.49Z"/></g></g><path class="cls-73" d="m427.1,1401.7c1.51-.88,3.59-.75,5.86.56.32.18.64.39.97.62,4.68,3.33,10.89,7.48,18.01,11.59,19.58,11.31,46.11,22.34,67,15.27,1.5-.51,3.31-.14,5.12.9,1.81,1.05,3.62,2.78,5.11,5.01,20.78,31.12,47.28,50.71,66.87,62.01,7.13,4.11,13.33,7.13,18.02,9.21.33.14.65.31.97.49,4.5,2.6,8.24,8.99,8.23,14.3l-.37,130.06c-.07,26.01-10.75,40.95-25.09,49.28l31.68-18.41c14.34-8.33,25.02-23.28,25.09-49.28l.37-130.06c.02-5.31-3.73-11.7-8.23-14.3-.32-.18-.64-.35-.97-.49-4.68-2.08-10.89-5.09-18.02-9.21-19.58-11.31-46.09-30.89-66.87-62.01-1.49-2.23-3.3-3.96-5.11-5.01-1.81-1.05-3.62-1.41-5.12-.9-20.89,7.06-47.41-3.97-67-15.27-7.12-4.11-13.33-8.27-18.01-11.59-.33-.23-.65-.44-.97-.62-2.27-1.31-4.35-1.44-5.86-.56l-31.68,18.41Z"/><path class="cls-95" d="m427.1,1401.7c1.51-.88,185.03,290.98,170.69,299.31l31.68-18.41c14.34-8.33,25.02-23.28,25.09-49.28l.37-130.06c.02-5.31-3.73-11.7-8.23-14.3-.32-.18-.64-.35-.97-.49-4.68-2.08-10.89-5.09-18.02-9.21-19.58-11.31-46.09-30.89-66.87-62.01-1.49-2.23-3.3-3.96-5.11-5.01-1.81-1.05-3.62-1.41-5.12-.9-20.89,7.06-47.41-3.97-67-15.27-7.12-4.11-13.33-8.27-18.01-11.59-.33-.23-.65-.44-.97-.62-2.27-1.31-4.35-1.44-5.86-.56l-31.68,18.41Z"/><path class="cls-61" d="m524.06,1430.65c-1.81-1.05-3.62-1.41-5.12-.9-20.89,7.06-47.41-3.97-67-15.27-7.12-4.11-13.33-8.27-18.01-11.59-.33-.23-.65-.44-.97-.62-4.5-2.6-8.27-.54-8.28,4.77l-.37,130.06c-.19,66.37,68.88,140.55,91.73,163.27,2.34,2.32,4.79,4.22,7.24,5.64,2.45,1.42,4.9,2.34,7.25,2.73,22.89,3.69,92.16,9.38,92.35-56.99l.37-130.06c.02-5.31-3.73-11.7-8.23-14.3-.32-.18-.64-.35-.97-.49-4.68-2.08-10.89-5.09-18.02-9.21-19.58-11.31-46.09-30.89-66.87-62.01-1.49-2.23-3.3-3.96-5.11-5.01Z"/><g class="cls-140"><path class="cls-9" d="m429.75,1406.26c.19.07.43.18.71.34.18.11.37.23.57.37,6.05,4.3,12.24,8.29,18.41,11.85,20.88,12.06,39.43,18.17,55.12,18.17,5.68,0,11.02-.82,15.87-2.45.13.02.51.09,1.14.45,1.18.68,2.44,1.94,3.45,3.45,21.56,32.29,49.17,52.39,68.53,63.57,6.19,3.57,12.41,6.75,18.49,9.45.16.07.33.16.49.25,3,1.73,5.73,6.47,5.72,9.94l-.37,130.06c-.06,20.33-7.07,35.1-20.85,43.9-10.46,6.69-24.67,10.08-42.21,10.08-9.56,0-18.04-1.05-23.48-1.92-1.73-.28-3.6-.99-5.55-2.12-2.1-1.21-4.19-2.85-6.21-4.85-21.22-21.1-90.44-94.97-90.26-159.7l.37-130.06c0-.32.03-.58.06-.78m-.47-5.12c-2.7,0-4.59,2.13-4.6,5.89l-.37,130.06c-.19,66.37,68.88,140.55,91.73,163.27,2.34,2.32,4.79,4.22,7.24,5.64,2.45,1.42,4.9,2.34,7.25,2.73,5.77.93,14.48,1.99,24.28,1.99,29.13,0,67.93-9.32,68.07-58.97l.37-130.06c.02-5.31-3.73-11.7-8.23-14.3-.32-.18-.64-.35-.97-.49-4.68-2.08-10.89-5.09-18.02-9.21-19.58-11.31-46.09-30.89-66.87-62.01-1.49-2.23-3.3-3.96-5.11-5.01-1.27-.73-2.53-1.13-3.69-1.13-.5,0-.98.07-1.43.23-4.57,1.54-9.41,2.22-14.38,2.22-17.78,0-37.31-8.66-52.61-17.5-7.12-4.11-13.33-8.27-18.01-11.59-.33-.23-.65-.44-.97-.62-1.31-.76-2.57-1.12-3.68-1.12h0Z"/></g><g id="inner_glow_front"><ellipse class="cls-119" cx="523.48" cy="1561.3" rx="79.59" ry="137.86" transform="translate(-717.35 478.7) rotate(-30.36)"/><ellipse class="cls-119" cx="523.48" cy="1561.3" rx="79.59" ry="137.86" transform="translate(-717.35 478.7) rotate(-30.36)"/></g><g id="Checkmark"><g id="SYMBOLS" class="cls-138"><path class="cls-28" d="m600.55,1542.28c2.79,4.8,2.79,9.99,0,11.57l-100.81,57.35-34.74-53.29c-3.25-6.24-1.4-10.6,1.26-12.39,3.2-2.16,9.05-3.17,13.15,3.05l23.81,37.43,87.23-49.54c2.79-1.59,7.31,1.02,10.09,5.83Z"/></g><path id="SYMBOLS-2" class="cls-115" d="m594.98,1541.61c2.79,4.8,2.79,9.99,0,11.57l-100.81,57.35-34.74-53.29c-3.25-6.24-1.4-10.6,1.26-12.39,3.2-2.16,9.05-3.17,13.15,3.05l23.81,37.43,87.23-49.54c2.79-1.59,7.31,1.02,10.09,5.83Z"/></g></g></g></g></g><g id="Rubrik"><g id="Rubrik_Cloud"><g id="Base-Dark"><path class="cls-47" d="m406.42,1021.78l256.82-151.79c3.81-2.2,9.05-3.16,14.43-2.93.92-.03,1.84-.04,2.78,0,.92-.03,1.84-.04,2.78,0,.92-.03,1.84-.04,2.78,0,.92-.03,1.84-.04,2.78,0,.92-.03,1.84-.04,2.78,0,.92-.03,1.84-.04,2.78,0,.92-.03,1.84-.04,2.78,0,.92-.03,1.84-.04,2.78,0,.92-.03,1.84-.04,2.78,0,.92-.03,1.84-.04,2.78,0,.92-.03,1.84-.04,2.78,0,.92-.03,1.84-.04,2.78,0,.92-.03,1.84-.04,2.78,0,.92-.03,1.84-.04,2.78,0,.92-.03,1.84-.04,2.78,0,.92-.03,1.84-.04,2.78,0,.92-.03,1.84-.04,2.78,0,.92-.03,1.84-.04,2.78,0,.92-.03,1.84-.04,2.78,0,.92-.03,1.84-.04,2.78,0,6.18-.22,12.86,1.19,18,4.16l386.2,225.23c8.78,5.07,9.73,12.73,2.13,17.12l-256.82,151.79c-3.81,2.2-9.05,3.16-14.43,2.93-.92.03-1.84.04-2.78,0-.92.03-1.84.04-2.78,0-.92.03-1.84.04-2.78,0-.92.03-1.84.04-2.78,0-.92.03-1.84.04-2.78,0-.92.03-1.84.04-2.78,0-.92.03-1.84.04-2.78,0-.92.03-1.84.04-2.78,0-.92.03-1.84.04-2.78,0-.92.03-1.84.04-2.78,0-.92.03-1.84.04-2.78,0-.92.03-1.84.04-2.78,0-.92.03-1.84.04-2.78,0-.92.03-1.84.04-2.78,0-.92.03-1.84.04-2.78,0-.92.03-1.84.04-2.78,0-.92.03-1.84.04-2.78,0-.92.03-1.84.04-2.78,0-.92.03-1.84.04-2.78,0-.92.03-1.84.04-2.78,0-6.18.22-12.86-1.19-18-4.16l-386.2-225.23c-8.78-5.07-9.73-12.73-2.13-17.12Z"/><g class="cls-134"><path class="cls-30" d="m675.01,873.42c3.3,0,6.59.73,9.1,2.19l383.14,223.62c5.02,2.92,4.99,7.64-.06,10.56l-259.27,150.88c-2.53,1.46-5.83,2.19-9.13,2.19s-6.59-.73-9.1-2.19l-384.75-222.55c-5.02-2.92-4.99-7.64.06-10.56l260.88-151.95c2.53-1.46,5.83-2.19,9.13-2.19m0-15c-4.27,0-10.62.73-16.63,4.2h-.02s-.02.03-.02.03l-260.87,151.95c-7.05,4.08-11.26,10.9-11.27,18.24-.01,7.34,4.18,14.17,11.21,18.25l384.78,222.57c5.97,3.47,12.33,4.2,16.61,4.2s10.62-.73,16.63-4.2h.02s.02-.03.02-.03l259.26-150.88c7.05-4.08,11.26-10.9,11.27-18.25.01-7.34-4.18-14.17-11.21-18.25l-383.12-223.61c-6.02-3.5-12.38-4.23-16.66-4.23h0Z"/></g><g class="cls-121"><path class="cls-63" d="m675.01,873.42c3.3,0,6.59.73,9.1,2.19l383.14,223.62c5.02,2.92,4.99,7.64-.06,10.56l-259.27,150.88c-2.53,1.46-5.83,2.19-9.13,2.19s-6.59-.73-9.1-2.19l-384.75-222.55c-5.02-2.92-4.99-7.64.06-10.56l260.88-151.95c2.53-1.46,5.83-2.19,9.13-2.19m0-9c-5,0-9.84,1.21-13.63,3.39l-260.91,151.97c-5.24,3.03-8.27,7.79-8.28,13.06,0,5.26,2.99,10.01,8.22,13.06l384.77,222.56c3.76,2.19,8.6,3.4,13.61,3.4s9.84-1.2,13.63-3.39l259.29-150.9c5.24-3.03,8.27-7.8,8.28-13.07,0-5.26-2.99-10.01-8.22-13.05l-383.13-223.61c-3.79-2.2-8.63-3.41-13.64-3.41h0Z"/></g><g class="cls-132"><path class="cls-128" d="m405,1027.57c-5.05,2.92-5.08,7.64-.06,10.56l384.75,222.55c5.02,2.92,13.18,2.92,18.23,0l259.27-150.88c5.05-2.92,5.08-7.64.06-10.56l-383.14-223.62c-5.02-2.92-13.18-2.91-18.23,0l-260.88,151.95Z"/></g><path class="cls-10" d="m1071.07,1103.8c0,1.93-1.26,3.85-3.81,5.31l-259.27,150.88c-5.06,2.92-13.21,2.92-18.24,0l-384.75-222.54c-2.49-1.45-3.74-3.35-3.75-5.24l-.07-33.62c0,1.54,665.99,76.91,665.99,76.91,1.74-1.01,2.89-2.23,3.43-3.52.09-.23.17-.48.23-.71.09-.36.14-.72.14-1.08l.08,33.6Z"/><path class="cls-17" d="m798.79,1225.57c-2.88,0-5.65-.65-7.59-1.78l-384.75-222.56c-.11-.06-.2-.12-.28-.17l-.1-.06c-.21-.13-.39-.26-.56-.4-.83-.66-1.31-1.38-1.31-2.01,0-.87.85-1.88,2.3-2.71l260.89-151.96c1.96-1.13,4.75-1.79,7.63-1.79s5.64.65,7.59,1.78l383.13,223.63c1.42.82,2.26,1.81,2.26,2.66,0,.11-.01.21-.04.33-.03.13-.07.24-.11.34-.28.65-1.05,1.39-2.15,2.04l-259.27,150.88c-1.95,1.13-4.73,1.78-7.62,1.78Z"/><path class="cls-48" d="m675.02,845.13c2.33,0,4.6.51,6.07,1.36l383.15,223.64s.08.05.11.07c-.06.04-.12.07-.18.11l-259.25,150.87c-1.5.86-3.79,1.38-6.13,1.38s-4.61-.51-6.1-1.38l-384.78-222.57s-.06-.03-.09-.05c.06-.04.12-.07.19-.11l260.86-151.94c1.53-.88,3.76-1.39,6.14-1.39m0-6c-3.3,0-6.61.73-9.14,2.19l-260.87,151.95c-2.54,1.46-3.82,3.39-3.81,5.31,0,1.54.82,3.09,2.47,4.39.26.2.52.39.82.58.14.09.29.19.45.28l384.75,222.55c2.51,1.46,5.8,2.18,9.1,2.18s6.6-.73,9.13-2.18l259.27-150.88c1.74-1.01,2.89-2.23,3.43-3.52.09-.23.17-.48.23-.71.09-.36.14-.72.14-1.08,0-1.9-1.24-3.81-3.75-5.26l-383.14-223.63c-2.51-1.45-5.8-2.18-9.1-2.18h0Z"/><path class="cls-58" d="m675.02,842.13c2.87,0,5.64.65,7.58,1.77l383.14,223.64c1.41.82,2.25,1.81,2.25,2.66,0,.11-.01.21-.05.35-.02.08-.05.19-.09.29-.31.7-1.07,1.43-2.17,2.07l-259.26,150.88c-1.96,1.13-4.74,1.78-7.63,1.78s-5.65-.65-7.6-1.78l-384.76-222.56c-.1-.06-.19-.11-.28-.17l-.05-.03-.05-.03c-.2-.12-.38-.26-.54-.38-.86-.68-1.33-1.4-1.33-2.05,0-.86.86-1.86,2.32-2.7l260.86-151.95c1.97-1.14,4.75-1.79,7.64-1.79m0-3c-3.3,0-6.61.73-9.14,2.19l-260.87,151.95c-2.54,1.46-3.82,3.39-3.81,5.31,0,1.54.82,3.09,2.47,4.39.26.2.52.39.82.58.14.09.29.19.45.28l384.75,222.55c2.51,1.46,5.8,2.18,9.1,2.18s6.6-.73,9.13-2.18l259.27-150.88c1.74-1.01,2.89-2.23,3.43-3.52.09-.23.17-.48.23-.71.09-.36.14-.72.14-1.08,0-1.9-1.24-3.81-3.75-5.26l-383.14-223.63c-2.51-1.45-5.8-2.18-9.1-2.18h0Z"/></g><g id="screen"><polyline class="cls-66" points="891.22 1074.07 1045.72 1074.07 882.55 967.49 824.59 925.11 740.74 925.11 891.22 1074.07"/><g class="cls-131"><path class="Estilo_grÃ_fico_96" d="m699.83,879.01l184.72,107.35c3.54,2.06,9.3,2.06,12.87,0l23.65-13.66c1.79-1.03,2.69-2.39,2.68-3.75l.24,86.16c0,1.36-.89,2.71-2.68,3.75l-23.65,13.66c-3.57,2.06-9.32,2.06-12.87,0l-184.72-107.35c-1.76-1.02-2.64-2.36-2.64-3.69l-.24-86.16c0,1.34.88,2.67,2.64,3.69Z"/><path class="cls-67" d="m699.88,871.56c-3.57,2.06-3.59,5.39-.05,7.45l184.72,107.35c3.54,2.06,9.3,2.06,12.87,0l23.65-13.66c3.56-2.06,3.58-5.39.03-7.45l-184.72-107.35c-3.54-2.06-9.29-2.06-12.85,0l-23.65,13.66Z"/><path class="cls-123" d="m699.88,871.56c-3.57,2.06-3.59,5.39-.05,7.45l184.72,107.35c3.54,2.06,9.3,2.06,12.87,0l23.65-13.66c3.56-2.06,3.58-5.39.03-7.45l-184.72-107.35c-3.54-2.06-9.29-2.06-12.85,0l-23.65,13.66Z"/></g><path class="cls-108" d="m699.83,879.01l184.72,107.35c3.54,2.06,9.3,2.06,12.87,0l23.65-13.66c1.79-1.03,2.69-2.39,2.68-3.75l.24,86.16c0,1.36-.89,2.71-2.68,3.75l-23.65,13.66c-3.57,2.06-9.32,2.06-12.87,0l-184.72-107.35c-1.76-1.02-2.64-2.36-2.64-3.69l-.24-86.16c0,1.34.88,2.67,2.64,3.69Z"/><path class="cls-65" d="m699.83,879.01l184.72,107.35c3.54,2.06,9.3,2.06,12.87,0l23.65-13.66c1.79-1.03,2.69-2.39,2.68-3.75l.24,86.16c0,1.36-.89,2.71-2.68,3.75l-23.65,13.66c-3.57,2.06-9.32,2.06-12.87,0l-184.72-107.35c-1.76-1.02-2.64-2.36-2.64-3.69l-.24-86.16c0,1.34.88,2.67,2.64,3.69Z"/><g class="cls-131"><path class="cls-27" d="m714.75,661.29c2.35-1.37,5.61-1.17,9.2.9l195.72,113c7.14,4.12,12.9,14.11,12.88,22.32l-.48,168.75c-.01,4.07-1.45,6.94-3.77,8.29l-10.61,6.12c2.32-1.35,3.76-4.21,3.77-8.29l.48-168.75c.02-8.21-5.74-18.2-12.88-22.32l-195.72-113c-3.6-2.08-6.85-2.27-9.2-.9l10.61-6.12Z"/><path class="cls-69" d="m713.35,668.3c-7.14-4.12-12.95-.82-12.97,7.39l-.48,168.75c-.02,8.2,5.74,18.19,12.89,22.32l195.72,113c7.14,4.12,12.94.81,12.97-7.39l.48-168.75c.02-8.21-5.74-18.2-12.88-22.32l-195.72-113Z"/></g><g id="Data_screen"><path class="cls-43" d="m722.72,806.87c0,5.12,3.65,11.88,8.53,14.7l47.91,27.66c4.47,2.58,8.53.73,8.53-4.85v-55.38c0-5.12-3.65-11.88-8.53-14.7l-48.31-27.89c-4.47-2.58-8.53-.73-8.53,4.85v55.38s.41.23.41.23Z"/><path class="cls-96" d="m759.38,852.22c0,1.95,1.39,4.53,3.25,5.6l18.25,10.54c1.7.98,3.25.28,3.25-1.85v-21.1c0-1.95-1.39-4.53-3.25-5.6l-18.41-10.63c-1.7-.98-3.25-.28-3.25,1.85v21.1s.15.09.15.09Z"/></g><polygon class="cls-15" points="855.99 811.05 855.99 796.81 868.41 803.98 868.41 818.23 855.99 811.05"/><polygon class="cls-81" points="839.34 801.44 839.34 787.2 851.77 794.37 851.77 808.62 839.34 801.44"/><polygon class="cls-51" points="839.34 825.41 839.34 811.16 851.77 818.34 851.77 832.58 839.34 825.41"/><polygon class="cls-46" points="872.63 868.59 872.63 854.35 885.06 861.52 885.06 875.77 872.63 868.59"/><polygon class="cls-60" points="822.69 839.76 822.69 825.51 835.12 832.69 835.12 846.93 822.69 839.76"/><polygon class="cls-71" points="855.99 882.94 855.99 868.7 868.41 875.87 868.41 890.12 855.99 882.94"/><polygon class="cls-84" points="822.69 863.72 822.69 849.48 835.12 856.65 835.12 870.89 822.69 863.72"/><polygon class="cls-114" points="872.63 916.52 872.63 902.27 885.06 909.45 885.06 923.69 872.63 916.52"/><polygon class="cls-26" points="839.34 897.3 839.34 883.05 851.77 890.23 851.77 904.47 839.34 897.3"/></g><g id="Bulldog"><ellipse class="cls-19" cx="875.83" cy="1250.22" rx="13.8" ry="23.9" transform="translate(-379.87 2118.17) rotate(-89.64)"/><path class="cls-16" d="m945.83,1248.38c.03,5.74-7.98,10.4-17.89,10.4h-46.98c-1.08,0-2.15-.05-3.18-.16-.3-.03-.59-.07-.88-.11-.29-.04-.58-.08-.86-.13-.28-.05-.56-.09-.85-.15-.28-.05-.55-.11-.82-.17-.51-.11-1.01-.25-1.5-.39-.16-.05-.32-.09-.48-.14-.25-.08-.5-.17-.75-.25-.25-.08-.49-.17-.73-.27-.48-.19-.94-.39-1.38-.6-.22-.11-.44-.21-.66-.33-.21-.11-.42-.23-.63-.35-.2-.12-.4-.24-.6-.36-.19-.12-.38-.25-.57-.38-.37-.25-.72-.52-1.04-.8-.16-.14-.32-.28-.47-.42-.15-.14-.3-.29-.44-.44-.07-.07-.14-.15-.2-.22-.25-.28-.47-.56-.67-.85-.07-.1-.14-.2-.21-.31-.05-.08-.1-.16-.15-.24-.09-.16-.18-.33-.27-.49-.08-.17-.16-.33-.22-.5-.07-.17-.13-.34-.18-.51-.03-.08-.05-.17-.08-.25-.05-.17-.08-.35-.12-.52-.06-.35-.09-.7-.1-1.06-.03-5.74,7.98-10.4,17.9-10.4h46.98c.16,0,.31,0,.46,0,.62.01,1.22.04,1.82.08.45.03.89.08,1.33.13.44.05.87.11,1.3.18.67.11,1.32.24,1.96.39.17.04.35.09.52.13.53.14,1.05.29,1.55.46.25.08.5.17.74.26,1.1.41,2.11.88,3.03,1.41,1.22.71,2.27,1.51,3.1,2.4.14.15.27.3.4.45.13.15.25.3.36.46.29.39.53.79.74,1.2.25.49.43,1,.55,1.52.08.35.13.7.14,1.05,0,.09,0,.18,0,.27Z"/><ellipse class="cls-2" cx="889.36" cy="1239.44" rx="36.11" ry="62.55" transform="translate(-355.65 2120.99) rotate(-89.64)"/><path class="cls-103" d="m1072.58,1234.64c.09,15.04-20.88,27.22-46.83,27.21h-122.98c-2.84,0-5.62-.14-8.32-.42-.77-.08-1.54-.18-2.29-.28-.75-.1-1.51-.21-2.25-.34-.74-.12-1.48-.25-2.21-.4-.72-.14-1.45-.29-2.15-.46-1.34-.3-2.64-.65-3.92-1.01-.42-.13-.84-.25-1.26-.38-.66-.22-1.32-.44-1.98-.66-.65-.22-1.28-.46-1.91-.7-1.25-.49-2.46-1.01-3.62-1.57-.59-.28-1.15-.56-1.72-.85-.56-.29-1.1-.6-1.64-.9-.53-.31-1.05-.63-1.56-.94-.51-.32-1-.66-1.48-.99-.96-.66-1.88-1.37-2.72-2.09-.43-.36-.83-.72-1.23-1.1-.4-.38-.77-.75-1.14-1.14-.18-.19-.36-.39-.53-.58-.65-.72-1.24-1.47-1.77-2.23-.19-.27-.37-.54-.55-.8-.13-.21-.26-.42-.39-.63-.25-.43-.48-.85-.69-1.28-.21-.44-.41-.86-.59-1.31-.18-.44-.34-.88-.48-1.33-.07-.22-.14-.45-.2-.66-.12-.46-.22-.91-.31-1.37-.16-.91-.25-1.84-.26-2.78-.08-15.04,20.89-27.22,46.84-27.22h122.97c.41,0,.81,0,1.21,0,1.62.03,3.21.1,4.77.21,1.18.09,2.34.2,3.49.34,1.14.14,2.27.3,3.39.48,1.75.29,3.45.64,5.12,1.03.46.11.91.23,1.36.34,1.39.37,2.74.76,4.06,1.2.66.22,1.3.45,1.94.68,2.87,1.06,5.53,2.3,7.93,3.68,3.2,1.85,5.94,3.96,8.12,6.27.37.39.71.78,1.05,1.18.33.4.65.79.94,1.2.75,1.02,1.4,2.06,1.93,3.15.65,1.29,1.12,2.62,1.43,3.99.21.9.34,1.83.38,2.76,0,.24.02.47.02.7Z"/><g id="Layer1_0_FILL"><path class="cls-107" d="m923,1119.99c-2.87.64-6.14,2.06-9.81,4.27l-18.63-8.27c-1.43-1.03-2.66-1.25-3.68-.66-1.22,1.01-1.09,2.64.4,4.88,4.94,5.5,9.76,10.05,14.46,13.66.99,2.38,1.86,3.97,2.62,4.76l-8.53,19.13c-18.8,17.77-32.84,36.06-42.12,54.88-2.62,5.39-4.51,10.78-5.68,16.17-.03,5.01,1.57,10.01,4.78,15.02,5.11,5.57,10.79,9.79,17.05,12.65,6.02.33,12.45.04,19.29-.85,5.47-1.82,10.28-3.81,14.43-5.98,1.12-1.02,1.4-2.39.83-4.09-1.33-2.51-2.78-3.69-4.34-3.55l-2.36.11c1.01-1.12,1.78-2.42,2.31-3.9l-.1-6.52c1.71-1.25,3.42-3.37,5.13-6.35l.98,6.33c1.12,4.02,3.01,5.81,5.68,5.37l7.44-1.83c1.46-1.19,1.86-2.6,1.19-4.23-1.04-2-2.44-2.92-4.2-2.75l.84-5.23c2.57-4.37,4.28-9.62,5.12-15.75,4.05-5.25,7.21-10.51,9.47-15.76.96-7.61,1.32-15.39,1.09-23.35.69-4.02,2.14-8.03,4.33-12.05,2.8-1.12,5.38-3.34,7.74-6.67l3.22-7.04c.35-6.66-.59-12.45-2.81-17.36-.7-1.39-1.45-2.6-2.25-3.63-2.52-3.27-5.51-4.68-8.95-4.24l-6.83,3.28c-3.14-1.02-5.84-1.16-8.11-.43Z"/></g><path class="cls-33" d="m949.15,1125.02c-.7-1.39-1.45-2.6-2.25-3.63-2.52-3.27-5.51-4.68-8.95-4.24l-1.26.6s0,0,0,0l-5.58,2.67c-3.14-1.02-5.84-1.16-8.11-.43-2.87.64-6.14,2.06-9.81,4.27l-18.63-8.27c-1.43-1.03-2.66-1.25-3.68-.66-1.17.97-1.09,2.51.23,4.62.05.09.11.18.17.26,4.94,5.5,9.76,10.05,14.46,13.66.99,2.38,1.86,3.97,2.62,4.76l-2.5,5.6s0,0,0,0l-2.74,6.14s0,0,0,0l-3.3,7.39c-18.8,17.77-32.84,36.06-42.12,54.88-2.62,5.39-4.51,10.78-5.68,16.17-.03,5.01,1.57,10.01,4.78,15.02,5.11,5.57,10.79,9.79,17.05,12.65.19.01.38.02.57.03.97.05,1.94.08,2.93.09.63,0,1.26,0,1.89,0,.04,0,.09,0,.13,0,.05,0,.1,0,.16,0,3.45-.2,6.89-.4,10.33-.6.04,0,.09,0,.13-.01.07,0,.13-.01.2-.02.05,0,.11-.01.16-.02.14-.01.28-.03.43-.05.3-.03.61-.07.91-.1.08,0,.16-.02.24-.03.14-.02.28-.03.42-.05.14-.02.28-.03.43-.05.06,0,.11-.01.17-.02.07,0,.14-.02.21-.03,5.47-1.82,10.28-3.81,14.43-5.98,1.12-1.02,1.4-2.39.83-4.09-1.33-2.51-2.78-3.69-4.34-3.55l-2.36.11c1.01-1.12,1.78-2.42,2.31-3.9l-.1-6.52c1.71-1.25,3.42-3.37,5.13-6.35l.98,6.33c1.12,4.02,3.01,5.81,5.68,5.37l7.44-1.83c1.46-1.19,1.86-2.6,1.19-4.23-1.04-2-2.44-2.92-4.2-2.75l.84-5.23c2.57-4.37,4.28-9.62,5.12-15.75,4.05-5.25,7.21-10.51,9.47-15.76.96-7.61,1.32-15.39,1.09-23.35.14-.8.31-1.6.51-2.4l1.91-5.7c.56-1.31,1.19-2.63,1.9-3.94,2.8-1.12,5.38-3.34,7.74-6.67l3.22-7.04c.35-6.66-.59-12.45-2.81-17.36Z"/><g id="Layer1_5_FILL"><path class="cls-97" d="m907.48,1154.31c2.51,1.67,5.55,3.37,9.11,5.08,3.79,1.83,7.42,3.3,10.89,4.43,3.91,1.27,7.13,1.93,9.68,1.98l1.96-5.85c-2.3-.05-5.39-.79-9.27-2.2-3.37-1.23-6.99-2.83-10.86-4.8-3.54-1.8-6.58-3.55-9.12-5.24-2.56-1.7-3.89-2.87-4-3.51l-2.74,6.14c.32.92,1.77,2.23,4.35,3.95Z"/></g><path class="cls-86" d="m914.49,1131.26l1.59.81,8.91,5.17c4.35-5.37,5.62-9.73,3.79-13.08-.96-3-2.89-4.39-5.78-4.16-5.1,1.49-8.64,3.29-10.64,5.41l-4.22,5.15-17.26-15.22c-1.17.97-1.09,2.51.23,4.62.05.09.11.18.17.26,4.94,5.5,9.76,10.05,14.46,13.66.99,2.38,1.86,3.97,2.62,4.76l-8.53,19.13c-18.8,17.77-32.84,36.06-42.12,54.88-2.62,5.39-4.51,10.78-5.68,16.17-.03,5.01,1.57,10.01,4.78,15.02,5.11,5.57,10.79,9.79,17.05,12.65,1.8.1,3.64.14,5.52.13,4.39-.03,8.98-.35,13.77-.98,5.47-1.82,10.28-3.81,14.43-5.98-7.99-.72-15.43.23-22.3,2.87,4.7-6.02,6.56-11.75,5.58-17.19-4.37-8.12-9.41-11.56-15.12-10.3v-19.7c7.18-12.46,22.87-24.07,47.07-34.84h-11.46c13.19-10.56,21.42-19.56,24.68-27l-22.89-7.13-1.31-1.64c-1.01-2.93-.12-4.08,2.66-3.45Z"/><path class="cls-64" d="m914.49,1131.26l1.59.81,8.91,5.17c4.35-5.37,5.62-9.73,3.79-13.08-.96-3-2.89-4.39-5.78-4.16-5.1,1.49-8.64,3.29-10.64,5.41l-4.22,5.15-17.26-15.22c-1.17.97-1.09,2.51.23,4.62.05.09.11.18.17.26,4.94,5.5,9.76,10.05,14.46,13.66.99,2.38,1.86,3.97,2.62,4.76l-8.53,19.13c-18.8,17.77-32.84,36.06-42.12,54.88-2.62,5.39-4.51,10.78-5.68,16.17-.03,5.01,1.57,10.01,4.78,15.02,5.11,5.57,10.79,9.79,17.05,12.65.19.01.38.02.57.03.97.05,1.94.08,2.93.09.63,0,1.26,0,1.89,0,.04,0,.09,0,.13,0,.05,0,.1,0,.16,0,3.45-.2,6.89-.4,10.33-.6.04,0,.09,0,.13-.01.07,0,.13-.01.2-.02.05,0,.11-.01.16-.02.14-.01.28-.03.43-.05.3-.03.61-.07.91-.1.08,0,.16-.02.24-.03.14-.02.28-.03.42-.05.14-.02.28-.03.43-.05.06,0,.11-.01.17-.02.07,0,.14-.02.21-.03,5.47-1.82,10.28-3.81,14.43-5.98-7.99-.72-15.43.23-22.3,2.87,4.7-6.02,6.56-11.75,5.58-17.19-4.37-8.12-9.41-11.56-15.12-10.3v-19.7c7.18-12.46,22.87-24.07,47.07-34.84h-11.46c13.19-10.56,21.42-19.56,24.68-27-4.3,3.45-11.93,1.07-22.89-7.13l-1.31-1.64c-1.01-2.93-.12-4.08,2.66-3.45Z"/><path class="cls-32" d="m912.37,1125.4c.33-.32.56-.72.67-1.21l-18.47-8.2c-.84-.61-1.61-.93-2.31-.98.12.52.53,1.14,1.22,1.88,6.9,5.37,13.01,9.18,18.35,11.43l.53-2.92Zm12.23,25.26l2.13-.8c2.82-.18,5.92-2.3,9.31-6.39l-10.78,3.99-5.87-7.64c-4.91-5.3-7.43-7-7.55-5.12,3,5.82,7.26,11.14,12.76,15.96Zm10.9-7.45l2.13-.26-2.93-3.72-4.32-.33-15.89-7.65,21.01,11.96Zm.08,48.28c.02-.18.04-.35.06-.53l-.41.39c-6.03,9.43-12.05,17.5-18.08,24.19l4.08-2.36-1.95,18.31,5.29.2c-.05-.23-.13-.46-.22-.7-1.04-2-2.44-2.92-4.2-2.75l.84-5.23c2.57-4.37,4.28-9.62,5.12-15.75,4.05-5.25,7.21-10.51,9.47-15.76Zm-33.64,50.36c.89-1.04,1.57-2.24,2.06-3.59-.69,1.28-1.38,2.47-2.06,3.59m2.13.15l-2.29.1c-2.13,3.43-4.24,6.07-6.31,7.93l10.22-5.66,1.58-.6c-1.01-1.28-2.07-1.87-3.2-1.77m9.83-21.43l2.04-2.98c-4.14,1.52-7.82,1.07-11.04-1.34-6.69-2.22-12.67-2.62-17.95-1.2,3.91-.15,9.1,1.65,15.56,5.42.72,5.31,1.2,9.71,1.43,13.19l-.03-1.98c1.71-1.25,3.42-3.37,5.13-6.35l.98,6.33c.95,3.4,2.45,5.2,4.51,5.41l-.64-16.51Zm27.1-64.49c2.8-1.12,5.38-3.34,7.74-6.67l2.83-6.19c-1.65,3.34-3.67,5.9-6.04,7.7-3.25,1.33-6.95,2.5-11.12,3.5,1.52,2.35,2.21,7,2.08,13.97l.18-.17s0-.06,0-.09c.69-4.02,2.14-8.03,4.33-12.05Zm-4.46-35.21c-1.51-.65-2.87-.73-4.1-.24l-5.53-1.41c6.43,3.02,12.05,6.76,16.87,11.25,1.54-2.51-.87-5.71-7.24-9.6Z"/><g id="Layer1_10_FILL"><path class="cls-8" d="m937.95,1117.15l-1.26.6c3.27,2.53,6.67,3.74,10.21,3.63-2.52-3.27-5.51-4.68-8.95-4.24Z"/></g><path class="cls-34" d="m908.14,1130.55l4.22-5.15c1.99-2.12,5.54-3.92,10.64-5.41-2.87.64-6.14,2.06-9.81,4.27l-18.63-8.27c-1.43-1.03-2.66-1.25-3.68-.66l17.26,15.22m7.94,1.51l-1.59-.81c-2.78-.63-3.67.52-2.66,3.45l1.31,1.64,22.89,7.13c-3.26,7.45-11.49,16.45-24.68,27h11.46c-24.2,10.77-39.89,22.39-47.07,34.84v19.7c5.71-1.26,10.75,2.18,15.12,10.3.98,5.44-.88,11.16-5.58,17.19,6.87-2.64,14.31-3.59,22.3-2.87,1.12-1.02,1.4-2.39.83-4.09-1.33-2.51-2.78-3.69-4.34-3.55l-2.36.11c1.01-1.12,1.78-2.42,2.31-3.9l-.1-6.52c1.71-1.25,3.42-3.37,5.13-6.35l.98,6.33c1.12,4.02,3.01,5.81,5.68,5.37l7.44-1.83c1.46-1.19,1.86-2.6,1.19-4.23-1.04-2-2.44-2.92-4.2-2.75l.84-5.23c2.57-4.37,4.28-9.62,5.12-15.75,4.05-5.25,7.21-10.51,9.47-15.76.96-7.61,1.32-15.39,1.09-23.35.69-4.02,2.14-8.03,4.33-12.05,2.8-1.12,5.38-3.34,7.74-6.67l3.22-7.04c.35-6.66-.59-12.45-2.81-17.36-.7-1.39-1.45-2.6-2.25-3.63-2.52-3.27-5.51-4.68-8.95-4.24l-6.83,3.28c-3.14-1.02-5.84-1.16-8.11-.43,2.89-.23,4.82,1.15,5.78,4.16,1.83,3.35.56,7.71-3.79,13.08l-8.91-5.17Z"/></g><g id="Rubrik_Cloud-2"><g id="RubrikCloud_Bright"><g id="cloud"><g class="cls-131"><path class="cls-54" d="m864.92,110.65l85.72-49.81c39.93-23.2,95-20.32,155.85,13.99l-85.72,49.81c-60.86-34.31-115.93-37.2-155.85-13.99Z"/><path class="cls-41" d="m1729.43,885.49l-85.72,49.81c32.57-18.93,52.76-59.17,52.93-116.37.3-107.27-69.95-236.34-160.6-300.26l85.72-49.81c90.64,63.92,160.9,192.99,160.6,300.26-.16,57.2-20.36,97.44-52.93,116.37Z"/><path class="cls-4" d="m1347.18,60.27c-78.64-45.4-149.9-49.62-201.35-19.72l-85.72,49.81c51.45-29.9,122.71-25.68,201.35,19.72,133.66,77.17,245.38,248.32,274.59,408.59l85.72-49.82c-29.21-160.28-140.92-331.42-274.59-408.59Z"/><path class="cls-70" d="m1261.46,110.09c133.66,77.17,245.38,248.32,274.59,408.59,90.64,63.92,160.9,192.99,160.6,300.26-.33,115.14-81.82,161.58-182.03,103.73l-492.58-284.39c-123.06-71.05-222.51-243.27-222.11-384.69.4-140.37,99.03-197.61,220.86-128.93,50.24-63.19,139.32-73.08,240.68-14.56Z"/><g class="cls-130"><path class="cls-58" d="m1134.5,74.82c18.96,0,39.04,3.16,59.68,9.38,21.31,6.43,43.35,16.17,65.5,28.96,32.43,18.72,64.21,43.39,94.46,73.31,29.27,28.95,56.47,62.17,80.82,98.72,24.14,36.22,44.79,74.67,61.37,114.26,16.87,40.27,29.06,80.61,36.21,119.87l.26,1.43,1.19.84c43.62,30.76,83.86,77.87,113.32,132.65,29.66,55.16,45.91,113.65,45.77,164.69-.11,38.57-9.55,70.62-27.31,92.66-17.08,21.2-41.2,32.41-69.75,32.41-24.79,0-51.58-8.21-79.64-24.41l-492.58-284.39c-121.89-70.37-220.72-241.56-220.33-381.6.13-47.56,11.8-87.09,33.72-114.31,21.14-26.24,50.97-40.11,86.29-40.11,29.77,0,61.91,9.61,95.54,28.57l2.64,1.49,1.89-2.37c27.06-34.04,65.42-52.03,110.94-52.04h0m-.02-3.56c-46.7,0-86.08,18.64-113.71,53.38-34.93-19.69-67.94-29.03-97.29-29.03-73.02,0-123.28,57.83-123.57,157.96-.4,141.42,99.04,313.64,222.11,384.69l492.58,284.39c29.25,16.89,56.91,24.89,81.42,24.89,59.45,0,100.39-47.09,100.62-128.62.3-107.27-69.95-236.34-160.6-300.26-29.21-160.28-140.92-331.42-274.59-408.59-45.63-26.34-88.75-38.82-126.98-38.82h0Z"/></g><g class="cls-139"><path class="cls-58" d="m1134.5,83.71c18.09,0,37.31,3.03,57.11,9,20.66,6.23,42.07,15.7,63.62,28.15,31.77,18.34,62.95,42.54,92.66,71.93,28.85,28.53,55.65,61.28,79.67,97.33,23.82,35.75,44.2,73.69,60.57,112.76,16.62,39.68,28.62,79.39,35.67,118.03l.91,5.01,4.16,2.93c42.51,29.98,81.8,76,110.61,129.59,28.97,53.88,44.85,110.87,44.71,160.46-.1,36.53-8.87,66.65-25.35,87.11-15.34,19.04-37.06,29.1-62.82,29.1-22.88,0-48.88-8.03-75.2-23.22l-492.58-284.39c-29.03-16.76-57.23-39.62-83.83-67.94-25.84-27.52-49.05-58.97-68.97-93.47-19.92-34.5-35.53-70.27-46.39-106.32-11.18-37.1-16.79-72.81-16.7-106.15.13-45.52,11.11-83.13,31.76-108.76,19.39-24.07,46.84-36.79,79.37-36.79,28.22,0,58.9,9.23,91.18,27.43l9.25,5.21,6.61-8.31c25.32-31.84,61.27-48.68,103.98-48.68h0m-.02-12.44c-46.7,0-86.08,18.64-113.71,53.38-34.93-19.69-67.94-29.03-97.29-29.03-73.02,0-123.28,57.83-123.57,157.96-.4,141.42,99.04,313.64,222.11,384.69l492.58,284.39c29.25,16.89,56.91,24.89,81.42,24.89,59.45,0,100.39-47.09,100.62-128.62.3-107.27-69.95-236.34-160.6-300.26-29.21-160.28-140.92-331.42-274.59-408.59-45.63-26.34-88.75-38.82-126.98-38.82h0Z"/></g></g></g><g id="Rubrik_Logo"><path class="cls-106" d="m1202.81,379.87c-2.18,1.24-5.71-.8-7.89-4.56l-35.92-61.6c-2.18-3.75-2.18-7.81,0-9.05l35.65-20.59c2.18-1.24,5.71.8,7.89,4.56l35.65,61.44c2.18,3.75,2.18,7.81,0,9.05l-35.37,20.75Z"/><path class="cls-24" d="m1202.81,584.49c-2.18,1.24-5.71-.8-7.89-4.56l-35.92-61.6c-2.18-3.75-2.18-7.81,0-9.05l35.92-20.13c2.18-1.24,5.71.8,7.89,4.56l35.65,61.44c2.18,3.75,2.18,7.81,0,9.05l-35.65,20.28Z"/><path class="cls-117" d="m1292.07,533.71c-2.18,1.24-5.71-.8-7.89-4.56l-35.92-61.91c-2.18-3.75-2.18-7.81,0-9.05l35.92-20.13c2.18-1.24,5.71.8,7.89,4.56l35.65,61.44c2.18,3.75,2.18,7.81,0,9.05l-35.65,20.59Z"/><path class="cls-113" d="m1154.11,518.01c0-3.43-1.9-5.47-4.08-4.23l-15.78,8.98c-2.18,1.24-1.63,4.98,1.09,8.11l13.61,15.34c2.99,2.98,5.17,2.67,5.17-1.07v-27.14Z"/><path class="cls-72" d="m1262.41,604.55c2.72.01,3.27-3.11,1.09-6.86l-15.78-27.2c-2.18-3.75-4.08-3.92-4.08-.48v27.45c0,3.43,2.45,6.72,5.17,7.04l13.61.06Z"/><path class="cls-109" d="m1286.9,542.89c0-3.43-2.45-7.96-5.71-9.85l-32.11-18.54c-2.99-1.73-5.71-.49-5.71,3.25v36.81c0,3.43,2.45,7.96,5.71,9.85l32.38,18.7c2.99,1.73,5.71.49,5.71-3.25v-36.81s-.27-.16-.27-.16Z"/><path class="cls-12" d="m1315.47,428.69c-1.36-3.9-4.35-6.26-6.53-5.02l-15.78,8.98c-2.18,1.24-1.36,3.89,1.63,5.62l23.67,13.67c2.99,1.73,4.63-.14,3.54-3.88l-6.53-19.37Z"/><path class="cls-22" d="m1263.49,345.65c2.18-1.24,1.63-4.98-1.09-8.11l-13.61-15.34c-2.99-2.98-5.17-2.67-5.17,1.07v27.45c0,3.43,1.9,5.47,4.08,4.23l15.78-9.29Z"/><path class="cls-79" d="m1088.8,296.57c-2.18-3.75-5.17-4.86-6.53-2.52l-6.53,11.83c-1.09,2.8.27,6.08,3.54,7.97l23.95,13.83c2.99,1.73,3.81.02,1.63-3.74l-16.05-27.36Z"/><path class="cls-53" d="m1154.11,313.69c0-3.43-2.45-7.96-5.71-9.85l-32.38-18.7c-2.99-1.73-5.71-.49-5.71,3.25v36.81c0,3.43,2.45,7.96,5.71,9.85l32.38,18.7c2.99,1.73,5.71.49,5.71-3.25v-36.81Z"/><path class="cls-39" d="m1154.11,271.27c0-3.43-2.45-6.72-5.17-7.04l-13.61-.37c-2.72-.01-3.27,3.11-1.09,6.86l15.78,27.2c2.18,3.75,4.08,3.92,4.08.48v-27.14Z"/><path class="cls-13" d="m1322,562.53c1.09-2.8-.27-6.08-3.54-7.97l-23.95-13.83c-2.99-1.73-3.81-.02-1.63,3.74l15.78,27.2c2.18,3.75,5.17,4.86,6.53,2.52l6.8-11.67Z"/><path class="cls-76" d="m1154.11,466.22c0-3.43-2.45-7.96-5.71-9.85l-32.38-18.7c-2.99-1.73-5.71-.49-5.71,3.25v36.81c0,3.43,2.45,7.96,5.71,9.85l32.38,18.7c2.99,1.73,5.71.49,5.71-3.25v-36.81Z"/><path class="cls-57" d="m1104.58,435.76c2.18-1.24,1.36-3.89-1.63-5.62l-23.95-13.83c-2.99-1.73-4.63.14-3.54,3.88l6.53,19.37c1.36,3.9,4.35,6.26,6.53,5.02l16.05-8.82Z"/><path class="cls-52" d="m1286.9,427.48c0,3.43-2.45,5.14-5.71,3.25l-32.11-18.54c-2.99-1.73-5.71-6.11-5.71-9.85v-37.12c0-3.43,2.45-5.14,5.71-3.25l32.38,18.7c2.99,1.73,5.71,6.11,5.71,9.85v37.12s-.27-.16-.27-.16Z"/><path class="cls-56" d="m1113.56,430.65c-2.18,1.24-5.71-.8-7.89-4.56l-35.92-61.91c-2.18-3.75-2.18-7.81,0-9.05l35.92-20.13c2.18-1.24,5.71.8,7.89,4.56l35.65,61.44c2.18,3.75,2.18,7.81,0,9.05l-35.65,20.59Z"/></g></g></g><g id="Plant_Rubrik_base"><use width="269.1" height="74.2" transform="translate(1016.52 1139.77) scale(.58)" xlink:href="#shadowsvglight2OK"/><g id="Plantpot"><path class="cls-75" d="m1014.43,1127.61h66.09v13.04c0,16.92-13.74,30.66-30.66,30.66h-4.77c-16.92,0-30.66-13.74-30.66-30.66v-13.04h0Z"/><path class="cls-74" d="m1014.43,1127.61h66.09v13.04c0,16.92-13.74,30.66-30.66,30.66h-4.77c-16.92,0-30.66-13.74-30.66-30.66v-13.04h0Z"/><ellipse class="cls-110" cx="1047.49" cy="1128.62" rx="19.88" ry="33.04" transform="translate(-87.7 2168.98) rotate(-89.64)"/><path class="cls-35" d="m1067.92,1140.91c-11.21,6.74-29.44,6.7-40.72-.09-6.12-3.69-8.94-8.61-8.43-13.41,1.32-2.82,3.84-5.48,7.52-7.7,11.63-6.99,30.54-6.96,42.25.09,3.78,2.27,6.34,5,7.69,7.89.47,4.76-2.3,9.59-8.31,13.21Z"/><path class="cls-40" d="m1076.22,1127.7c-1.35-2.89-3.91-5.62-7.69-7.89-11.71-7.04-30.61-7.08-42.25-.09-3.68,2.22-6.19,4.88-7.52,7.7.4-4.06,3.17-8.01,8.28-11.1,11.21-6.74,29.44-6.7,40.72.08,5.23,3.15,8.05,7.19,8.45,11.29Z"/></g><g class="cls-136"><g id="PLANT_LEFT"><g id="Layer1_0_FILL-2"><path class="cls-111" d="m1052.07,1054.33l-4.1-.57c-8.49,119.16,2.17,198.28,31.96,237.35l3.9-1.41c-30.95-86.99-41.54-165.45-31.77-235.38Z"/></g><g id="Layer1_14_FILL"><path class="cls-90" d="m1013.39,1067.6c-7.99,1.63-11.69,8.68-11.1,21.13,3.05,19.77,17.35,29.55,42.9,29.34-3.42-13.41-6.99-25.09-10.71-35.05-3.73-9.96-10.76-15.1-21.09-15.42m17.16-64.78c-10.25,2.78-15.23,12.26-14.94,28.43,1.69,18.35,12.24,30.25,31.66,35.68,7.4-11.47,8.63-25.3,3.69-41.49-4.95-16.24-11.75-23.78-20.41-22.62m34.79-43.56c-4.58-14.15-10.01-18.47-16.29-12.95-6.3,5.54-9.72,14.84-10.26,27.9-.55,13.09,1.41,25.31,5.88,36.67,18.38-20.21,25.27-37.42,20.67-51.62m-69.22,178.15c-12.16,12.52-14.48,31.39-6.94,56.61,9.14,34.48,35.79,49.32,79.94,44.52,25.8-32.38,31.2-59.28,16.2-80.7-14.97-21.4-44.7-28.21-89.2-20.43m90.47-86.4c14.32-12.41,21.3-26.95,20.93-43.63-.35-16.64-7.94-16.25-22.77,1.17-14.81,17.47-27.39,39.97-37.75,67.5,15.19-4.93,28.38-13.28,39.59-25.03m-77.75,243.13c23.73,7.74,44.95,4.32,63.66-10.28-13.63-34.71-42.18-48.58-85.64-41.6-7.83,1.29-16.42,4.06-25.77,8.32-6.73,3.88-7.74,9.04-3.03,15.47,7.38,10.19,24.3,19.56,50.77,28.08Z"/></g><g id="Layer1_15_FILL"><path class="cls-99" d="m1072.49,1283.87c-.36-.91-.73-1.8-1.11-2.69-34.16-13.63-68.92-19.62-104.26-17.98,37.76,4.53,72.21,11.92,103.34,22.18.68-.49,1.36-.99,2.03-1.51m-57.63-123.24l.02.07c22.9,24.99,40.25,51.01,52.06,78.06.72-.06,1.44-.13,2.16-.21.53-.67,1.06-1.33,1.57-1.99-8.2-29.16-26.81-54.47-55.82-75.93m26.32-42.62c1.31.05,2.65.07,4.01.06-.21-.84-.44-1.68-.67-2.52-14.97-7.18-25.59-18.01-31.86-32.51,1.76,12.41,11.27,24.07,28.52,34.97m8.14-47.95c-.79,1.97-1.56,3.96-2.33,5.99,1.28-.42,2.55-.86,3.81-1.34,19.34-23.21,33.39-43.51,42.15-60.91-10.7,15.49-25.25,34.24-43.63,56.26m-5.28-4.12c1.05.35,2.13.69,3.23.99.41-.63.79-1.29,1.15-1.97-11.52-16.31-18.82-31.39-21.88-45.26.27,14.24,6.1,29.66,17.5,46.24m.58-55.09s.04.02.05.02c.79-.87,1.56-1.73,2.3-2.6l4.09-47.5-7.82,46.12c.44,1.34.9,2.66,1.38,3.95Z"/></g><g class="cls-137"><path class="cls-37" d="m1083.6,1290.1l-3.9,1.41c-9.83-12.89-17.57-30.14-23.23-51.74-36.77.87-59.28-14.25-67.53-45.36-7.53-25.21-5.22-44.08,6.94-56.61,19.08-3.33,35.44-3.98,49.09-1.95-.23-21.05.41-43.91,1.91-68.57-.51-.14-1.02-.29-1.52-.45-.37-.11-.73-.23-1.1-.35-.15-.05-.3-.09-.45-.14,0,0,0,0,0,0-17.36-5.82-26.84-17.38-28.43-34.69-.29-16.17,4.69-25.65,14.94-28.43,5.41-.72,10.1,1.95,14.06,8.03-.26-.69-.51-1.4-.76-2.1-3.9-10.76-5.59-22.27-5.07-34.54.54-13.06,3.96-22.36,10.26-27.9,6.28-5.51,11.71-1.19,16.29,12.95,4.6,14.2-2.3,31.4-20.67,51.62,0,0-.02-.01-.04-.02,2.37,3.64,4.49,8.5,6.34,14.59,3.73,12.24,3.93,23.13.62,32.67-.38,2.97-.74,5.96-1.05,8.97,9.65-23.48,21.05-43,34.21-58.52,14.83-17.41,22.41-17.8,22.77-1.17.37,16.68-6.61,31.22-20.93,43.63-10.51,11.03-22.77,19.05-36.79,24.08-1.6,19.73-1.65,40.11-.15,61.14,15.94,3.21,27.83,10.4,35.67,21.61,14.69,20.97,9.8,47.21-14.63,78.69,0,0,0,.01,0,.02-.52.66-1.04,1.32-1.57,1.99-.45.05-.9.09-1.35.14,4.55,16.67,9.9,33.68,16.08,51.03Zm-42.66-171.7s0,0,0,0c.12,0,.24,0,.35,0,.51.02,1.01.03,1.53.04.7.01,1.41.01,2.13,0-3.42-13.41-6.99-25.09-10.71-35.05-3.73-9.96-10.76-15.1-21.09-15.42-7.99,1.63-11.69,8.68-11.1,21.13,2.88,18.71,15.85,28.46,38.89,29.28Z"/><path class="cls-6" d="m1040.94,1118.39s0,0,0,0c.12,0,.24,0,.35,0,.51.02,1.01.03,1.53.04.7.01,1.41.01,2.13,0-3.42-13.41-6.99-25.09-10.71-35.05-3.73-9.96-10.76-15.1-21.09-15.42-7.99,1.63-11.69,8.68-11.1,21.13,2.88,18.71,15.85,28.46,38.89,29.28Z"/><path class="cls-31" d="m1071.14,1281.56s0,0,0,0c-14.04-32.73-42.21-45.7-84.53-38.91-7.83,1.29-16.42,4.06-25.77,8.32-6.73,3.88-7.74,9.04-3.03,15.47,7.38,10.19,24.3,19.56,50.77,28.08,23.73,7.74,44.95,4.32,63.66-10.28-.34-.86-.68-1.7-1.04-2.53-.02-.05-.04-.11-.07-.16Z"/></g></g></g></g><g id="man_rubrik_cloud"><use width="269.1" height="74.2" transform="translate(462.41 953.34) scale(1.21)" xlink:href="#shadowsvglight2OK"/><g id="Layer1_1_FILL"><path class="cls-5" d="m565.77,959.44l-1.14,12.54,4.9,7.58c4.48,5.83,1.77,6.89-8.15,3.19-5.62-3-8.11-5.31-7.46-6.95l.46-16.35h11.4Z"/></g><path id="Layer1_2_1_STROKES" class="cls-126" d="m562.21,974.23l3.65-.68"/><path id="Layer1_3_1_STROKES" class="cls-126" d="m566.99,975.59l-3.42.91"/><g id="Layer1_4_FILL"><path class="cls-1" d="m582.92,844.04l1.4.61,5.59,9.65h-4.13l-2.85-10.26Z"/></g><g id="Layer1_5_MEMBER_0_FILL"><path class="cls-112" d="m598.14,854c1.32.54,2,1.57,2.04,3.1l.83,36.74c0,1.53-.98,2.52-2.94,2.98l-46.99-21.7c-1.32-.54-1.98-1.57-1.98-3.1l-2.83-36.55c1.29-1.65,2.59-2.21,3.91-1.67l47.97,20.2Z"/></g><g id="Layer1_5_MEMBER_1_FILL"><path class="cls-91" d="m598.4,858.49l.8,36.73c.03,1.54-.6,2.04-1.9,1.49l-47.99-20.2c-1.3-.55-1.96-1.59-2-3.13l-.8-36.73c-.03-1.54.6-2.04,1.9-1.49l47.99,20.2c1.3.55,1.96,1.59,2,3.13Z"/></g><path class="cls-93" d="m598.4,858.49l.8,36.73c.03,1.54-.6,2.04-1.9,1.49l-47.99-20.2c-1.3-.55-1.96-1.59-2-3.13l-.8-36.73c-.03-1.54.6-2.04,1.9-1.49l47.99,20.2c1.3.55,1.96,1.59,2,3.13Z"/><g id="Layer1_6_FILL"><path class="cls-1" d="m578.85,851.08l-2.43-7.47,1.7.61,5.59-2.19.67,4.31c.29.98.11,1.59-.55,1.82-.4.72-.68,1.24-.85,1.58l-1.46,4.55c-.78,2.16-1.67,1.09-2.67-3.22Z"/></g><g id="Layer1_7_FILL"><path class="cls-11" d="m561.01,729.48c6.01-4.89,11.27-4.57,15.79.97,8.29,14.65,9.75,42.37,4.37,83.18l3.28,30.9c-1.12,3.07-5.65,3.74-13.6,2l-9.84-56.28v-60.77Z"/></g><g id="Layer1_7_FILL-2"><path class="cls-49" d="m561.01,729.48c6.01-4.89,11.27-4.57,15.79.97,8.29,14.65,9.75,42.37,4.37,83.18l3.28,30.9c-1.12,3.07-5.65,3.74-13.6,2l-9.84-56.28v-60.77Z"/></g><g id="Layer1_8_FILL"><path class="cls-25" d="m546.15,820.87l28.21-6.84c7.62,52.23,4.67,103.52-8.83,153.86-.6,2.04-.88,3.12-.85,3.25-4.48,1.2-8.05.42-10.71-2.34-2.78-22.69-2.44-42.9,1.03-60.63-7.63-33.39-10.57-62.49-8.83-87.3Z"/></g><g id="Layer1_9_FILL"><path class="cls-5" d="m525.21,980.87l-1.14,12.54,4.9,7.58c4.48,5.83,1.77,6.89-8.15,3.19-5.62-3-8.11-5.31-7.46-6.95l.46-16.35h11.4Z"/></g><path id="Layer1_10_1_STROKES" class="cls-126" d="m521.67,995.79l3.65-.68"/><path id="Layer1_11_1_STROKES" class="cls-126" d="m526.45,997.16l-3.42.91"/><path class="cls-85" d="m548.82,876.74s1.97,11.05,2.57,14.2c0,0,2.57-13.6,0-29.84l-3.38-.4.81,16.05Z"/><g id="Layer1_12_FILL"><path class="cls-104" d="m519.14,813.09c3.48,4.16,6.06,4.96,7.75,2.39l29.35,5.7c-6.93,62.57-17.15,119.02-30.66,169.36-.6,2.04-.88,3.12-.85,3.25-4.48,1.2-8.05.42-10.71-2.34-3.46-39.61-2.11-66.5,4.05-80.69-4.74-46.96-4.38-79.51,1.08-97.67Z"/></g><path class="cls-29" d="m518.05,910.76c-4.74-46.96-4.38-79.51,1.08-97.67,3.48,4.16,6.06,4.96,7.75,2.39l23.04,4.47,24.43-5.92c7.62,52.23,4.67,103.52-8.83,153.86-.6,2.04-.88,3.12-.85,3.25-4.48,1.2-8.05.42-10.71-2.34-2.78-22.69-2.44-42.9,1.03-60.63-2.51-10.98-4.5-21.5-6-31.55-6.21,40.93-14.01,78.91-23.41,113.92-.6,2.04-.88,3.12-.85,3.25-4.48,1.2-8.05.42-10.71-2.34-3.46-39.61-2.11-66.5,4.05-80.69Z"/><g id="Layer1_14_FILL-2"><path class="cls-83" d="m537.15,731.84c.2.65.41,1.3.61,1.94-.19-.65-.37-1.29-.55-1.94l-.06-.06h.06c6.53-2.92,12.63-4.98,18.27-6.19,11.37-2.43,18.05.47,20.04,8.68,2.51,9.67,2.2,35.17-.91,76.5.53,5.64-2.91,9.45-10.32,11.41-20.48,6.53-35.72,4.55-45.72-5.95-.4-.15-.47-3.07-.18-8.74l-6.74-53.61c-.81-4.78.71-8.28,4.55-10.5,7.45-4.74,14.43-8.58,20.95-11.54Z"/></g><g id="Layer1_15_FILL-2"><path class="cls-101" d="m553.96,702.46c-1.05-1.05-1.58-2.33-1.58-3.82,0-1.5.53-2.77,1.58-3.82,1.05-1.05,2.33-1.58,3.82-1.58s2.77.53,3.82,1.58c1.05,1.05,1.58,2.33,1.58,3.82,0,1.5-1.13,3.58-3.4,6.25-2.27,2.67-3.54,3.2-3.82,1.58-.28-1.62-.95-2.95-2-4.01Z"/></g><g id="Layer1_16_FILL"><path class="cls-94" d="m557.52,695.07c1.72,1.34,2.39,3.55,1.99,6.61-.41,1.96-.22,4.38.57,7.24-.05,4.86-1.61,7.77-4.67,8.72l1.25,10.37s-.08-.04-.11-.06c.72,5.59.77,8.56.17,8.89-3.19,4.05-9.14,2.19-17.84-5.58.97-6.13,2-12.36,3.08-18.69-.8-1.86-1.51-3.87-2.11-6.04-1.06-4.63-.93-8.01.4-10.14,4.79-5.54,10.54-5.97,17.27-1.31Z"/></g><g id="Layer1_17_FILL"><path class="cls-87" d="m555.13,717.92l.34.06.23,2.17c-2.58.25-5.47-.85-8.66-3.31,3.32,1.22,6.01,1.58,8.09,1.08Z"/></g><path class="cls-18" d="m529.28,760.1c0,16.09.09,37.47-11.26,44.48l-2.8-22.24,14.05-22.24Z"/><g id="Layer1_18_FILL"><path class="cls-11" d="m512.31,746.29c2.35-1.66,4.88-2.08,7.59-1.27,2.67.81,4.86,2.61,6.56,5.4,4.21,6.96,3.74,15.74-1.4,26.35l-19.19,30.84,34.85,27.2c-1.54,3.92-5.18,6.23-10.93,6.92-29.87-11.55-45.97-20.92-48.33-28.11,6.12-31.6,16.4-54.04,30.84-67.33Z"/></g><g id="Layer1_18_FILL-2"><path class="cls-50" d="m512.31,746.29c2.35-1.66,4.88-2.08,7.59-1.27,2.67.81,4.86,2.61,6.56,5.4,4.21,6.96,3.74,15.74-1.4,26.35l-19.19,30.84,34.85,27.2c-1.54,3.92-5.18,6.23-10.93,6.92-29.87-11.55-45.97-20.92-48.33-28.11,6.12-31.6,16.4-54.04,30.84-67.33Z"/></g><g id="Layer1_19_FILL"><path class="cls-120" d="m538.48,694.02c-.04-1.42.45-2.73,1.46-3.95,1.05-1.21,2.91-2.06,5.59-2.55,1.12-.22,2.17-.32,3.16-.3.32-.25.85-.37,1.58-.36,1.1,0,2.39.27,3.89.79.34.15.64.31.91.49.57-.32,1.21-.49,1.94-.49,1.13,0,2.33.34,3.58,1.03,1.25.7,1.72,1.65,1.4,2.85-.32,1.2-.95,2.21-1.88,3.04-.93.81-1.96,1.22-3.1,1.21-1.11,0-2.04-.38-2.79-1.15v.18c0,.89-.3,1.64-.91,2.25-.61.61-2.06,1.48-4.37,2.61-.4.18-.74.32-1.03.42.07.36.15.7.24,1.03.32,1.57.48,2.65.49,3.22,0,.57-.18,1.03-.55,1.4-.4.4-.89.61-1.46.61-.2,0-.38-.02-.55-.06l-1.82-4.86h-.18c-.93,0-1.56.34-1.88,1.03-.28.69-.16,1.62.36,2.79.39.86,1.26,1.6,2.61,2.25-.12.21-.24.41-.36.61-.52.81-1.19,1.16-2,1.03.16,1.34.24,2.21.24,2.61,0,.57-.18,1.03-.55,1.4-.4.41-1.83-.83-4.31-3.7-1.49-1.73-2-3.35-1.52-4.86-.07-.03-.13-.07-.18-.12-1.01-1.01-1.52-2.23-1.52-3.64s.51-2.63,1.52-3.64c.7-.7,1.51-1.17,2.43-1.4-.25-.56-.39-1.15-.42-1.76Z"/></g><path id="Layer1_20_1_STROKES" class="cls-127" d="m543.1,832.57c-3.84,6.06-8.92,9.3-15.24,9.71"/></g><g id="woman_rubrik_cloud"><use width="269.1" height="74.2" transform="translate(597.67 1064.51) scale(1.21)" xlink:href="#shadowsvglight2OK"/><g id="Layer1_0_FILL-3"><path class="cls-87" d="m736.3,826.79c.44-.17,1.26.89,2.45,3.19.1.75-.21,1.79-.93,3.14.06.36-2.04.64-6.3.82,1.58-.39,1.45-.94-.4-1.66l-3.43,1.05,1.36-3.64,7.26-2.89Z"/></g><g id="Layer1_13_FILL"><path class="cls-94" d="m727.34,838.78l-2.05-7.65c3.98-3.04,6.93-4.94,8.84-5.69,1.22-.38,2.68-.73,4.38-1.04,1.62-.29,2.6-.39,2.94-.31.41.96-.08,1.64-1.48,2.04-2.46.79-4.46,1.66-5.98,2.64l-2.85,2.88,4.91-.84c.67-.16.78.26.33,1.25l-4.37,3.03c-1.58,1.58-3.13,2.82-4.66,3.71Z"/></g><g id="Layer1_21_FILL"><path class="cls-45" d="m683.71,1122.85c-3.35.81-5.03.46-5.06-1.06v-10.28l8.54,2.73c10.09-.94,14.86-.49,14.32,1.35-3.41,2.84-9.34,5.26-17.8,7.26Z"/></g><g id="Layer1_22_FILL"><path class="cls-45" d="m650.68,1106.4c-3.35.81-5.03.46-5.06-1.06v-10.28l8.54,2.73c10.09-.94,14.86-.49,14.32,1.35-3.41,2.84-9.34,5.26-17.8,7.26Z"/></g><g id="Layer1_23_FILL"><path class="cls-104" d="m650.06,957c-4.14-34.09,5.39-45.16,28.59-33.19,5.11,14.98,7.01,36.59,5.68,64.83-1.34,28.22-11.06,64.36-29.15,108.42-3.05,2.9-6.42,2.98-10.11.22,2.77-41.21,7.39-68.51,13.84-81.91-6.8-20.02-9.75-39.48-8.85-58.37Z"/></g><g id="Layer1_23_FILL-2"><path class="cls-82" d="m650.06,957c-4.14-34.09,5.39-45.16,28.59-33.19,5.11,14.98,7.01,36.59,5.68,64.83-1.34,28.22-11.06,64.36-29.15,108.42-3.05,2.9-6.42,2.98-10.11.22,2.77-41.21,7.39-68.51,13.84-81.91-6.8-20.02-9.75-39.48-8.85-58.37Z"/></g><g id="Layer1_24_FILL"><path class="cls-14" d="m684.61,981.53v.1c-.07,2.29-.15,4.63-.27,7.02-.67,14.21-3.47,30.43-8.39,48.65l-7.93-63.04,16.6,7.28Z"/></g><g id="Layer1_25_FILL"><path class="cls-104" d="m698.69,935.92c6.28,14.54,9.85,35.93,10.72,64.18.87,28.26-6,65.06-20.61,110.38-.26,1.39-.96,2.49-2.1,3.31-1.02.74-2.19,1.15-3.51,1.23-1.31.06-2.39-.21-3.24-.82-.92-.66-1.31-1.57-1.19-2.73-.46-41.28,2-68.85,7.38-82.71l-26.42-80.02c-5.52-16.73,7.47-21,38.97-12.82Z"/></g><g id="Layer1_25_FILL-2"><path class="cls-44" d="m698.69,935.92c6.28,14.54,9.85,35.93,10.72,64.18.87,28.26-6,65.06-20.61,110.38-.26,1.39-.96,2.49-2.1,3.31-1.02.74-2.19,1.15-3.51,1.23-1.31.06-2.39-.21-3.24-.82-.92-.66-1.31-1.57-1.19-2.73-.46-41.28,2-68.85,7.38-82.71l-26.42-80.02c-5.52-16.73,7.47-21,38.97-12.82Z"/></g><g id="Layer1_27_FILL"><path class="cls-83" d="m653.78,865.1c-2.43-7.41-.49-11.94,5.82-13.56,10.77,1.54,23.29,5.47,37.58,11.79,10.61-13.2,20.21-24.31,28.8-33.33,1.26.11,2.19,2.68,2.78,7.71-5.23,15.73-14.53,29.68-27.9,41.84-8.78,1.25-24.47-3.56-47.09-14.45Z"/></g><g id="Layer1_27_FILL-2"><path class="cls-59" d="m653.78,865.1c-2.43-7.41-.49-11.94,5.82-13.56,10.77,1.54,23.29,5.47,37.58,11.79,10.61-13.2,20.21-24.31,28.8-33.33,1.26.11,2.19,2.68,2.78,7.71-5.23,15.73-14.53,29.68-27.9,41.84-8.78,1.25-24.47-3.56-47.09-14.45Z"/></g><g id="Layer1_28_MEMBER_0_FILL"><path class="cls-88" d="m683.84,847.19l.3-.09.29,2.02c-2.37.4-5.06-.41-8.05-2.42,3.09.9,5.58,1.06,7.46.48Z"/></g><g id="Layer1_28_MEMBER_1_FILL"><path class="cls-94" d="m672.79,842.19c-1.27-4.16-1.34-7.23-.21-9.2,3.88-5.41,9-6.22,15.36-2.41,1.64,1.12,2.4,3.06,2.26,5.81-.05.88.07,1.82.37,2.81l1.19,3.38c.18,2-.13,3.83-.93,5.49-.83,1.55-1.93,2.54-3.32,2.97.9,8.33.1,17.57-2.43,27.73l-14.27-11.58c2.54-8.54,4-15.11,4.39-19.71l-2.42-5.28Z"/></g><g id="Layer1_28_MEMBER_2_FILL"><path class="cls-87" d="m687.52,851.21l-2.98-.72c1.88.27,3.89-.4,6.05-2.01-.69,1.29-1.71,2.2-3.07,2.73Z"/></g><g id="Layer1_29_FILL"><path class="cls-55" d="m650.6,860.25c1.54-6.96,5.61-9.77,12.2-8.44,17.53,8.66,30.48,16.86,38.86,24.59,4.53,6.44,5.04,13.96,1.52,22.59,5.3,20.64,8.03,43.41,8.2,68.3-14.88,3.82-28.21,5.13-40.01,3.95-2.27-4.13-4.24-9.56-5.89-16.27-1.87,5.1-3.27,9.95-4.19,14.57-7.19-1.74-13.7-4.55-19.55-8.44,1.7-14.33,5.08-26.07,10.14-35.21-1.74-20.8-2.17-42.68-1.28-65.63Z"/></g><g id="Layer1_30_FILL"><path class="cls-92" d="m689.52,830.54c.76,2.08-.07,3.46-2.5,4.14,1.89,5.31.73,7.3-3.48,5.97,4,4.15,3.68,12.23-.98,24.24-4.67,12.04-9.86,19.1-15.57,21.16-5.7,2.07-10.53-.18-14.49-6.74-4.01-6.52-3.86-11.28.46-14.27,4.33-3,7.76-5.98,10.3-8.94,2.49-2.95,4.24-6.31,5.24-10.09,1.11-4.4,1.96-7.75,2.55-10.08.74-2.92,2.65-5.29,5.71-7.09,3.02-1.82,5.73-2.53,8.12-2.12,2.34.45,3.88,1.71,4.65,3.79Z"/></g><g id="Layer1_31_FILL"><path class="cls-98" d="m681.53,824.07c2.37.45,4.67,1.24,6.91,2.38,4.23,2.23,3.77,4.51-1.39,6.86.92,4.85-.75,6.88-5.02,6.08,4.84,6.66,4.01,16.83-2.48,30.54-2.84,5.2-7.31,8.6-13.4,10.18-8.24,1.94-14.13.2-17.69-5.2-3.56-5.36-3.18-9.53,1.15-12.52,4.33-3,7.76-5.98,10.3-8.94,2.49-2.95,4.24-6.31,5.24-10.09,1.11-4.4,1.96-7.75,2.55-10.08.74-2.92,2.65-5.29,5.71-7.09,3.01-1.82,5.72-2.52,8.12-2.12Z"/></g><g id="Layer1_32_FILL"><path class="cls-116" d="m762.31,857.57c2.76,4.16,2.97,8,.63,11.53l-4.98,7.61-2.32,5.51-3.52-6.28c.35-7.02,1.08-12.61,2.2-16.79,1.27-.36,1.52,1.36.73,5.18l8-11.99c1.53-.51,1.28,1.23-.75,5.23Z"/></g><g id="Layer1_33_FILL"><path class="cls-105" d="m703.17,898.98c2.65,10.31,4.65,21.13,6.01,32.48v.12c-13.78-13.82-22.22-30.27-25.32-49.36l21.49,3.82c.43,4-.3,8.31-2.19,12.93Z"/></g><g id="Layer1_34_FILL"><path class="cls-83" d="m752.56,868.81c2.1.36,4.01,3.02,5.75,7.98-10.38,29.87-18.31,46.47-23.8,49.78-9.82-2.02-20.63-8.42-32.44-19.2-13.45-13.56-19.75-24-18.91-31.32.32-2.73,1.41-4.8,3.26-6.19,1.77-1.32,3.55-1.68,5.35-1.07,2.78.94,8.26,5.31,16.46,13.12,6.86,6.53,13.87,13.74,21.04,21.62,1.65-3.94,9.42-15.51,23.29-34.72Z"/></g></g></g></g><g id="Jira"><g id="CloudBright"><path class="cls-80" d="m1509.89,1497.64l67.05-38.97c31.23-18.15,74.31-15.89,121.92,10.95l-67.05,38.97c-63.3,8.39-100.85-6.28-121.92-10.95Z"/><path class="cls-23" d="m1887.13,1458.23c-61.52-35.52-117.26-38.82-157.5-15.43l-67.05,38.97c40.25-23.39,348.99,215.69,371.83,341.06l67.51-44.98c-22.85-125.37-110.24-259.25-214.79-319.62Z"/><path class="cls-7" d="m2186.14,2103.75l-67.05,38.97c25.48-14.81-13.32-275.91-84.22-325.9l67.05-38.97c70.9,50,125.86,150.96,125.62,234.87-.13,44.74-15.92,76.22-41.4,91.03Z"/><path class="cls-118" d="m1631.8,1508.58c-95.3-53.73-172.45-8.95-172.76,100.86-.31,110.62,77.47,245.34,173.74,300.92l385.32,222.46c78.39,45.26,142.14,8.93,142.39-81.14.24-83.91-54.72-184.88-125.62-234.87-22.85-125.37-110.23-259.25-214.79-319.62-79.29-45.78-148.97-38.04-188.27,11.39Z"/><g class="cls-130"><path class="cls-58" d="m1720.75,1471.67c30.15,0,62.75,10,96.91,29.72,25.22,14.56,49.94,33.74,73.47,57.03,22.8,22.55,43.98,48.42,62.95,76.9,37.98,57,64.98,121.76,76.02,182.37l.35,1.95,1.62,1.14c33.86,23.88,65.12,60.48,88.02,103.06,23.04,42.85,35.67,88.26,35.56,127.85-.17,59.08-28.47,95.78-73.87,95.78-19.02,0-39.64-6.33-61.27-18.82l-385.32-222.46c-94.77-54.72-171.63-187.83-171.32-296.72.1-36.74,9.07-67.21,25.92-88.13,16.13-20.02,38.91-30.61,65.9-30.6,22.93,0,47.74,7.43,73.73,22.09l3.6,2.03,2.57-3.23c20.77-26.12,50.22-39.93,85.16-39.93m0-4.84c-36.53,0-67.33,14.57-88.95,41.75-27.31-15.4-53.15-22.71-76.1-22.71-57.12,0-96.44,45.23-96.66,123.56-.31,110.62,77.47,245.34,173.74,300.92l385.32,222.46c22.88,13.21,44.52,19.47,63.69,19.47,46.51,0,78.53-36.83,78.71-100.61.24-83.91-54.72-184.88-125.62-234.87-22.85-125.37-110.23-259.25-214.79-319.62-35.69-20.6-69.43-30.37-99.33-30.37h0Z"/></g><g class="cls-139"><path class="cls-58" d="m1720.75,1483.77c27.6,0,59.02,9.72,90.86,28.1,24.32,14.04,48.21,32.6,71.02,55.15,22.22,21.98,42.88,47.21,61.39,75,37.08,55.65,63.43,118.81,74.19,177.83l1.24,6.81,5.66,3.99c32.36,22.82,62.31,57.94,84.33,98.9,22.11,41.11,34.22,84.47,34.11,122.09-.08,26.93-6.38,48.93-18.23,63.65-10.73,13.32-25.38,20.08-43.54,20.08-16.63,0-35.73-5.95-55.22-17.2l-385.32-222.46c-22.09-12.76-43.6-30.2-63.93-51.84-19.84-21.12-37.66-45.27-52.96-71.78-15.3-26.51-27.29-53.98-35.63-81.65-8.54-28.34-12.83-55.57-12.76-80.94.1-33.96,8.13-61.82,23.24-80.58,13.75-17.07,33.28-26.1,56.48-26.1,20.53,0,43.97,7.1,67.79,20.53l12.58,7.09,8.99-11.31c18.39-23.13,44.57-35.36,75.69-35.36m0-16.94c-36.53,0-67.33,14.57-88.95,41.75-27.31-15.4-53.15-22.71-76.1-22.71-57.12,0-96.44,45.23-96.66,123.56-.31,110.62,77.47,245.34,173.74,300.92l385.32,222.46c22.88,13.21,44.52,19.47,63.69,19.47,46.51,0,78.52-36.83,78.71-100.61.24-83.91-54.72-184.88-125.62-234.87-22.85-125.37-110.23-259.25-214.79-319.62-35.69-20.6-69.43-30.36-99.33-30.36h0Z"/></g><path class="cls-89" d="m1670.71,1707.22c-5.07-2.93-9.42-3.36-13.04-2.13v-4.57s-12.31-7.11-12.31-7.11v53.55s12.67,7.32,12.67,7.32v-34.04c1.81-1.86,6.16-3.09,11.59.05,1.81,1.05,3.62,2.51,5.07,3.76v-13.7c-1.45-1.25-2.9-2.5-3.98-3.13"/><path class="cls-89" d="m1561.7,1682.05c3.26,5.2,8.33,10.21,12.67,12.71,3.26,1.88,6.16,1.48,6.16-1.01,0-8.3-22.81-18.57-22.81-35.59,0-10.38,8.69-11.59,17.74-6.36,6.16,3.55,12.67,9.81,15.93,14.6l-5.79,7.03c-2.53-3.12-5.43-6.87-9.05-8.96-3.62-2.09-6.16-1.89-6.16,1.01,0,7.06,22.81,17.32,22.81,36,0,10.38-8.69,11.59-18.47,5.94-6.52-3.76-13.4-10.23-18.83-17.93l5.79-7.45Z"/><path class="cls-89" d="m1639.93,1716.42c0-14.94-9.05-32.63-22.09-40.15-13.76-7.95-22.81.11-22.81,14.64,0,17.02,10.5,33.88,24.26,41.82,7.24,4.18,14.49,5.04,19.19,1.53l-7.24-12.48c-2.17,1.65-6.52,2.46-11.59-.46-6.52-3.76-11.95-12.3-12.67-20.19l32.23,18.61c.72-.41.72-1.66.72-3.32Zm-31.87-24.63c.72-4.56,5.07-6.62,10.14-3.69,5.07,2.93,8.69,9.58,9.42,14.98l-19.56-11.29Z"/><polygon class="cls-89" points="1729.74 1742.13 1708.37 1783.34 1699.68 1778.33 1678.31 1712.44 1690.99 1719.76 1704.02 1760.08 1716.7 1734.6 1729.74 1742.13"/><path class="cls-89" d="m1740.24,1722.87c4.71,2.72,8.33,8.96,8.33,13.94,0,5.4-3.62,7.04-8.33,4.32-4.71-2.72-7.97-8.75-7.97-13.73,0-5.4,3.26-7.25,7.97-4.53"/><polygon class="cls-89" points="1734.08 1744.64 1746.76 1751.95 1746.76 1805.51 1734.08 1798.19 1734.08 1744.64"/><path class="cls-89" d="m1798.18,1823.98c-5.43,5.17-12.31,4.93-21-.09-14.49-8.36-24.99-26.88-24.99-42.24,0-15.78,10.86-21.54,24.99-13.39,8.33,4.81,15.21,13.35,19.56,22.08l-8.33,3.91c-2.53-5.2-6.16-9.78-10.5-12.29-7.24-4.18-12.67-.68-12.67,7.21,0,8.3,5.07,17.46,12.67,21.85,5.07,2.93,9.05,1.91,11.23-.58l9.05,13.53Z"/><path class="cls-89" d="m1843.45,1852.61c-4.71,3.51-11.95,2.65-19.19-1.53-13.76-7.95-24.26-24.8-24.26-41.82,0-14.94,8.69-22.8,22.81-14.64,12.67,7.32,22.09,25.21,22.09,40.15,0,1.66,0,2.91-.36,3.94l-32.59-18.82c.72,7.89,6.16,16.42,12.67,20.19,5.07,2.93,9.42,2.12,11.59.46l7.24,12.07Zm-11.59-31.6c-.36-4.78-3.98-11.85-9.42-14.98-5.07-2.93-9.42-.87-10.14,3.69l19.56,11.29Z"/><path class="cls-89" d="m1849.6,1864.88v-53.55s11.95,6.9,11.95,6.9v4.57c3.62-1.23,7.97-.8,13.04,2.13,6.52,3.76,12.31,10.43,16.3,18.13,2.9,5.82,5.07,12.48,5.07,21.61v27.4s-12.67-7.32-12.67-7.32v-28.64c0-5.4-1.09-8.93-2.9-11.64-1.81-3.12-3.98-5.62-7.24-7.5-5.07-2.93-9.42-1.7-11.59-.05v34.87s-11.95-6.9-11.95-6.9Z"/><path class="cls-62" d="m1928.19,1855.46c-15.21-8.78-27.16-1.98-27.16,15.45,0,9.13,3.26,19.32,8.33,28.06,1.81,3.12,5.07,5,7.24,4.6,2.9-1.23,7.24-.38,11.59,2.12,4.71,2.72,8.33,6.47,11.59,11.26,2.17,3.33,5.07,4.59,7.24,3.35,5.07-2.88,8.33-8.89,8.33-18.02-.36-17.23-12.31-38.24-27.16-46.82m-.36,47.12c-8.33-4.81-13.76-15-13.76-23.72,0-8.72,5.43-12.64,13.76-7.83,8.33,4.81,13.76,15,13.76,23.72,0,8.72-5.43,12.64-13.76,7.83"/><polygon class="cls-89" points="1952.09 1870.5 1964.4 1877.61 1974.54 1914.19 1984.68 1889.32 1995.18 1895.38 2004.96 1931.75 2015.1 1906.88 2027.77 1914.2 2009.31 1957.09 1999.89 1951.65 1989.75 1915.5 1979.97 1940.15 1970.56 1934.72 1952.09 1870.5"/></g></g></g></svg>