<?xml version="1.0" encoding="UTF-8"?><svg xmlns="http://www.w3.org/2000/svg" xmlns:xlink="http://www.w3.org/1999/xlink" viewBox="0 0 2500 2500"><defs><style>.cls-1{stroke-linejoin:round;}.cls-1,.cls-2{fill:none;stroke:#00b287;stroke-linecap:round;stroke-width:21px;}.cls-3{fill:#90e5ff;}.cls-3,.cls-4,.cls-5,.cls-6,.cls-7,.cls-8,.cls-9,.cls-10,.cls-11,.cls-12,.cls-13,.cls-14,.cls-15,.cls-16,.cls-17,.cls-18,.cls-19,.cls-20{stroke-width:0px;}.cls-4{fill:url(#Degradado_sin_nombre_8-2);}.cls-5{fill:url(#Degradado_sin_nombre_13);}.cls-21{opacity:.5;}.cls-22{opacity:.9;}.cls-23{filter:url(#AI_DesenfoqueGaussiano_4);}.cls-6{fill:url(#Degradado_sin_nombre_4);}.cls-6,.cls-10,.cls-14{opacity:.64;}.cls-24{filter:url(#AI_DesenfoqueGaussiano_4-9);opacity:.24;}.cls-25{filter:url(#AI_DesenfoqueGaussiano_4-6);}.cls-7{fill:url(#Degradado_sin_nombre_966);}.cls-26{isolation:isolate;}.cls-8{fill:url(#Degradado_sin_nombre_4-2);}.cls-27{filter:url(#AI_DesenfoqueGaussiano_4-5);}.cls-10{fill:url(#Degradado_sin_nombre_52);}.cls-11{fill:#fff;}.cls-28{filter:url(#AI_DesenfoqueGaussiano_4-3);}.cls-12{fill:url(#Degradado_sin_nombre_52-2);}.cls-2{stroke-dasharray:0 0 75 123;}.cls-29{filter:url(#AI_DesenfoqueGaussiano_4-8);}.cls-30{filter:url(#AI_DesenfoqueGaussiano_4-2);}.cls-13{fill:url(#Degradado_sin_nombre_43);}.cls-14{fill:url(#Degradado_sin_nombre_8);}.cls-15{fill:url(#Degradado_sin_nombre_59);mix-blend-mode:multiply;opacity:.72;}.cls-16{fill:url(#Degradado_sin_nombre_2);}.cls-31{filter:url(#AI_DesenfoqueGaussiano_4-4);}.cls-17{fill:url(#Degradado_sin_nombre_966-2);}.cls-32{opacity:.25;}.cls-18{fill:rgba(255,255,255,.95);}.cls-19{fill:url(#Degradado_sin_nombre_379);mix-blend-mode:overlay;opacity:.34;}.cls-33{filter:url(#AI_DesenfoqueGaussiano_4-7);}.cls-20{fill:url(#Degradado_sin_nombre_13-2);}</style><linearGradient id="Degradado_sin_nombre_966" x1="-5927.86" y1="-6036.9" x2="-6146.24" y2="-5573.03" gradientTransform="translate(-5239.74 7415.42) rotate(-180) scale(1 -1)" gradientUnits="userSpaceOnUse"><stop offset="0" stop-color="#a9a7b7"/><stop offset=".59" stop-color="#8c8a9f"/><stop offset="1" stop-color="#7d7c93"/></linearGradient><linearGradient id="Degradado_sin_nombre_13" x1="-5543.57" y1="-5108.95" x2="-6209.5" y2="-6627.64" gradientTransform="translate(-7393.35 3667.61) rotate(-149.84) scale(1 -1)" gradientUnits="userSpaceOnUse"><stop offset=".21" stop-color="#141226"/><stop offset=".53" stop-color="#27244b"/><stop offset=".98" stop-color="#27244b"/><stop offset="1" stop-color="#27244b"/></linearGradient><filter id="AI_DesenfoqueGaussiano_4"><feGaussianBlur stdDeviation="4"/></filter><filter id="AI_DesenfoqueGaussiano_4-2"><feGaussianBlur stdDeviation="4"/></filter><linearGradient id="Degradado_sin_nombre_4" x1="-1472.16" y1="1809.84" x2="-1157.91" y2="1991.84" gradientTransform="translate(1984.6)" gradientUnits="userSpaceOnUse"><stop offset="0" stop-color="#5d7586" stop-opacity=".05"/><stop offset=".3" stop-color="#5d7586" stop-opacity=".3"/><stop offset=".32" stop-color="#5d7586" stop-opacity=".3"/><stop offset=".74" stop-color="#5d7586" stop-opacity=".3"/><stop offset="1" stop-color="#5d7586" stop-opacity=".05"/></linearGradient><filter id="AI_DesenfoqueGaussiano_4-3"><feGaussianBlur stdDeviation="4"/></filter><linearGradient id="Degradado_sin_nombre_4-2" x1="-1458.18" y1="1818.21" x2="-1181.73" y2="1978.31" xlink:href="#Degradado_sin_nombre_4"/><linearGradient id="Degradado_sin_nombre_966-2" x1="-7166.68" y1="-6722.93" x2="-7385.06" y2="-6259.07" xlink:href="#Degradado_sin_nombre_966"/><linearGradient id="Degradado_sin_nombre_13-2" x1="-6782.38" y1="-5794.98" x2="-7448.31" y2="-7313.67" gradientTransform="translate(-7570.32 2952.28) rotate(-149.84) scale(1 -1)" xlink:href="#Degradado_sin_nombre_13"/><filter id="AI_DesenfoqueGaussiano_4-4"><feGaussianBlur stdDeviation="4"/></filter><filter id="AI_DesenfoqueGaussiano_4-5"><feGaussianBlur stdDeviation="4"/></filter><linearGradient id="Degradado_sin_nombre_8" x1="-252.57" y1="1114.8" x2="61.69" y2="1296.8" gradientTransform="translate(1984.6)" gradientUnits="userSpaceOnUse"><stop offset="0" stop-color="#5d7586" stop-opacity=".05"/><stop offset=".3" stop-color="#5d7586" stop-opacity=".3"/><stop offset=".32" stop-color="#5d7586" stop-opacity=".3"/><stop offset=".74" stop-color="#5d7586" stop-opacity=".3"/><stop offset="1" stop-color="#5d7586" stop-opacity=".05"/></linearGradient><filter id="AI_DesenfoqueGaussiano_4-6"><feGaussianBlur stdDeviation="4"/></filter><linearGradient id="Degradado_sin_nombre_8-2" x1="-238.59" y1="1123.17" x2="37.86" y2="1283.28" xlink:href="#Degradado_sin_nombre_8"/><filter id="AI_DesenfoqueGaussiano_4-7"><feGaussianBlur stdDeviation="4"/></filter><linearGradient id="Degradado_sin_nombre_52" x1="-888.29" y1="1483.84" x2="-597.53" y2="1652.23" gradientTransform="translate(1984.6)" gradientUnits="userSpaceOnUse"><stop offset="0" stop-color="#5d7586" stop-opacity=".05"/><stop offset=".3" stop-color="#5d7586" stop-opacity=".3"/><stop offset=".32" stop-color="#5d7586" stop-opacity=".3"/><stop offset=".74" stop-color="#5d7586" stop-opacity=".3"/><stop offset="1" stop-color="#5d7586" stop-opacity=".05"/></linearGradient><filter id="AI_DesenfoqueGaussiano_4-8"><feGaussianBlur stdDeviation="4"/></filter><linearGradient id="Degradado_sin_nombre_52-2" x1="-875.36" y1="1491.58" x2="-619.57" y2="1639.72" xlink:href="#Degradado_sin_nombre_52"/><linearGradient id="Degradado_sin_nombre_43" x1="1555.41" y1="861.87" x2="1548.52" y2="1451.77" gradientTransform="translate(2812.03) rotate(-180) scale(1 -1)" gradientUnits="userSpaceOnUse"><stop offset="0" stop-color="#1da1dc"/><stop offset=".42" stop-color="#1da1dc"/><stop offset=".98" stop-color="#0071b0"/></linearGradient><linearGradient id="Degradado_sin_nombre_59" x1="1671.41" y1="837.27" x2="1260.68" y2="1419.99" gradientTransform="translate(2812.03) rotate(-180) scale(1 -1)" gradientUnits="userSpaceOnUse"><stop offset="0" stop-color="#1364c3" stop-opacity=".1"/><stop offset=".13" stop-color="#1364c3" stop-opacity="0"/><stop offset=".16" stop-color="#1364c3" stop-opacity=".3"/><stop offset=".31" stop-color="#1364c3" stop-opacity=".27"/><stop offset=".49" stop-color="#1364c3" stop-opacity=".2"/><stop offset=".5" stop-color="#1364c3" stop-opacity=".26"/><stop offset=".52" stop-color="#1364c3" stop-opacity=".41"/><stop offset=".54" stop-color="#1364c3" stop-opacity=".52"/><stop offset=".56" stop-color="#1364c3" stop-opacity=".58"/><stop offset=".58" stop-color="#1364c3" stop-opacity=".6"/><stop offset=".6" stop-color="#1364c3" stop-opacity=".56"/><stop offset=".76" stop-color="#1364c3" stop-opacity=".34"/><stop offset=".84" stop-color="#1364c3" stop-opacity=".25"/><stop offset=".92" stop-color="#1364c3" stop-opacity=".41"/><stop offset=".98" stop-color="#1364c3" stop-opacity=".5"/></linearGradient><linearGradient id="Degradado_sin_nombre_2" x1="1103.2" y1="982.65" x2="1742.45" y2="1912.47" gradientUnits="userSpaceOnUse"><stop offset=".14" stop-color="#1da1dc"/><stop offset=".58" stop-color="#0e89c6"/><stop offset=".98" stop-color="#0071b0"/></linearGradient><radialGradient id="Degradado_sin_nombre_379" cx="1994.48" cy="1893.26" fx="1994.48" fy="1893.26" r="304.64" gradientTransform="translate(2755.66 1268.67) rotate(-119.64) scale(.79 -.68) skewX(-26.4)" gradientUnits="userSpaceOnUse"><stop offset=".27" stop-color="#f9a51f" stop-opacity=".8"/><stop offset=".39" stop-color="#f9a41f" stop-opacity=".79"/><stop offset=".49" stop-color="#f9a222" stop-opacity=".74"/><stop offset=".59" stop-color="#f99f26" stop-opacity=".67"/><stop offset=".68" stop-color="#fa9b2c" stop-opacity=".57"/><stop offset=".77" stop-color="#fb9633" stop-opacity=".44"/><stop offset=".86" stop-color="#fc8f3c" stop-opacity=".28"/><stop offset=".95" stop-color="#fe8747" stop-opacity=".09"/><stop offset=".98" stop-color="#ff844d" stop-opacity="0"/></radialGradient><filter id="AI_DesenfoqueGaussiano_4-9"><feGaussianBlur stdDeviation="4"/></filter></defs><g class="cls-26"><g id="Pills"><g id="Icon_users"><g id="Circle_Tick_upgrade_Calendar"><g class="cls-26"><path class="cls-7" d="m448.49,1170.02c54.14-31.46,129.11-27.03,211.86,20.75,164.43,94.94,297.3,325.08,296.77,514.02-.27,93.87-33.41,159.91-86.85,190.97l-21.87,12.6c53.45-31.06-367.64-757.2-421.77-725.74l21.87-12.6Z"/><ellipse class="cls-5" cx="637.51" cy="1545.49" rx="243.1" ry="419.7" transform="translate(-690.22 529.57) rotate(-30.16)"/></g></g></g><g class="cls-23"><path class="cls-9" d="m637.32,1483.16c-2.54,1.44-6.66-.94-9.19-5.31l-41.84-71.76c-2.54-4.37-2.54-9.09,0-10.54l41.52-23.99c2.54-1.44,6.66.94,9.19,5.31l41.52,71.57c2.54,4.37,2.54,9.09,0,10.54l-41.21,24.17Zm41.52,214.74c2.54-1.44,2.54-6.17,0-10.54l-41.52-71.57c-2.54-4.37-6.66-6.75-9.19-5.31l-41.84,23.44c-2.54,1.44-2.54,6.17,0,10.54l41.84,71.76c2.54,4.37,6.66,6.75,9.19,5.31l41.52-23.63Zm103.97-59.52c2.54-1.44,2.54-6.17,0-10.54l-41.52-71.57c-2.54-4.37-6.66-6.75-9.19-5.31l-41.84,23.44c-2.54,1.44-2.54,6.17,0,10.54l41.84,72.12c2.54,4.37,6.66,6.75,9.19,5.31l41.52-23.99Zm-202.23,5.7c0-4-2.22-6.37-4.75-4.93l-18.38,10.46c-2.54,1.44-1.9,5.81,1.27,9.45l15.85,17.87c3.49,3.47,6.02,3.11,6.02-1.25v-31.61Zm126.15,100.81c3.17.01,3.8-3.62,1.27-7.99l-18.38-31.69c-2.54-4.37-4.75-4.56-4.75-.56v31.98c0,4,2.85,7.82,6.02,8.2l15.85.07Zm28.53-71.83c0-4-2.85-9.28-6.66-11.47l-37.4-21.59c-3.49-2.01-6.66-.57-6.66,3.79v42.88c0,4,2.85,9.28,6.66,11.47l37.72,21.78c3.49,2.01,6.66.57,6.66-3.79v-42.88s-.32-.18-.32-.18Zm33.28-133.03c-1.58-4.55-5.07-7.29-7.61-5.85l-18.38,10.46c-2.54,1.44-1.58,4.54,1.9,6.55l27.58,15.92c3.49,2.01,5.39-.16,4.12-4.52l-7.61-22.56Zm-60.54-96.72c2.54-1.44,1.9-5.81-1.27-9.45l-15.85-17.87c-3.49-3.47-6.02-3.11-6.02,1.25v31.98c0,4,2.22,6.37,4.75,4.93l18.38-10.82Zm-203.49-57.17c-2.54-4.37-6.02-5.66-7.61-2.94l-7.61,13.78c-1.27,3.26.32,7.09,4.12,9.28l27.89,16.1c3.49,2.01,4.44.02,1.9-4.35l-18.7-31.87Zm76.07,19.94c0-4-2.85-9.28-6.66-11.47l-37.72-21.78c-3.49-2.01-6.66-.57-6.66,3.79v42.88c0,4,2.85,9.28,6.66,11.47l37.72,21.78c3.49,2.01,6.66.57,6.66-3.79v-42.88Zm0-49.42c0-4-2.85-7.82-6.02-8.2l-15.85-.43c-3.17-.01-3.8,3.62-1.27,7.99l18.38,31.69c2.54,4.37,4.75,4.56,4.75.56v-31.61Zm195.57,339.28c1.27-3.26-.32-7.09-4.12-9.28l-27.89-16.1c-3.49-2.01-4.44-.02-1.9,4.35l18.38,31.69c2.54,4.37,6.02,5.66,7.61,2.94l7.92-13.59Zm-195.57-112.19c0-4-2.85-9.28-6.66-11.47l-37.72-21.78c-3.49-2.01-6.66-.57-6.66,3.79v42.88c0,4,2.85,9.28,6.66,11.47l37.72,21.78c3.49,2.01,6.66.57,6.66-3.79v-42.88Zm-57.69-35.49c2.54-1.44,1.58-4.54-1.9-6.55l-27.89-16.1c-3.49-2.01-5.39.16-4.12,4.52l7.61,22.56c1.58,4.55,5.07,7.29,7.61,5.85l18.7-10.28Zm212.69-9.47v-43.24c0-4.36-3.17-9.46-6.66-11.47l-37.72-21.78c-3.8-2.2-6.66-.21-6.66,3.79v43.24c0,4.36,3.17,9.46,6.66,11.47l37.4,21.59c3.8,2.2,6.66.21,6.66-3.79l.32.18Zm-160.7-20.47c2.54-1.44,2.54-6.17,0-10.54l-41.52-71.57c-2.54-4.37-6.66-6.75-9.19-5.31l-41.84,23.44c-2.54,1.44-2.54,6.17,0,10.54l41.84,72.12c2.54,4.37,6.66,6.75,9.19,5.31l41.52-23.99Z"/></g><g id="Rubrik_Logo" class="cls-22"><path class="cls-11" d="m633.03,1485.03c-2.54,1.44-6.66-.94-9.19-5.31l-41.84-71.76c-2.54-4.37-2.54-9.09,0-10.54l41.52-23.99c2.54-1.44,6.66.94,9.19,5.31l41.52,71.57c2.54,4.37,2.54,9.09,0,10.54l-41.21,24.17Z"/><path class="cls-11" d="m633.03,1723.39c-2.54,1.44-6.66-.94-9.19-5.31l-41.84-71.76c-2.54-4.37-2.54-9.09,0-10.54l41.84-23.44c2.54-1.44,6.66.94,9.19,5.31l41.52,71.57c2.54,4.37,2.54,9.09,0,10.54l-41.52,23.63Z"/><path class="cls-11" d="m736.99,1664.23c-2.54,1.44-6.66-.94-9.19-5.31l-41.84-72.12c-2.54-4.37-2.54-9.09,0-10.54l41.84-23.44c2.54-1.44,6.66.94,9.19,5.31l41.52,71.57c2.54,4.37,2.54,9.09,0,10.54l-41.52,23.99Z"/><path class="cls-11" d="m576.29,1645.94c0-4-2.22-6.37-4.75-4.93l-18.38,10.46c-2.54,1.44-1.9,5.81,1.27,9.45l15.85,17.87c3.49,3.47,6.02,3.11,6.02-1.25v-31.61Z"/><path class="cls-11" d="m702.44,1746.75c3.17.01,3.8-3.62,1.27-7.99l-18.38-31.69c-2.54-4.37-4.75-4.56-4.75-.56v31.98c0,4,2.85,7.82,6.02,8.2l15.85.07Z"/><path class="cls-11" d="m730.97,1674.93c0-4-2.85-9.28-6.66-11.47l-37.4-21.59c-3.49-2.01-6.66-.57-6.66,3.79v42.88c0,4,2.85,9.28,6.66,11.47l37.72,21.78c3.49,2.01,6.66.57,6.66-3.79v-42.88s-.32-.18-.32-.18Z"/><path class="cls-11" d="m764.25,1541.9c-1.58-4.55-5.07-7.29-7.61-5.85l-18.38,10.46c-2.54,1.44-1.58,4.54,1.9,6.55l27.58,15.92c3.49,2.01,5.39-.16,4.12-4.52l-7.61-22.56Z"/><path class="cls-11" d="m703.71,1445.17c2.54-1.44,1.9-5.81-1.27-9.45l-15.85-17.87c-3.49-3.47-6.02-3.11-6.02,1.25v31.98c0,4,2.22,6.37,4.75,4.93l18.38-10.82Z"/><path class="cls-11" d="m500.22,1388c-2.54-4.37-6.02-5.66-7.61-2.94l-7.61,13.78c-1.27,3.26.32,7.09,4.12,9.28l27.89,16.1c3.49,2.01,4.44.02,1.9-4.35l-18.7-31.87Z"/><path class="cls-11" d="m576.29,1407.94c0-4-2.85-9.28-6.66-11.47l-37.72-21.78c-3.49-2.01-6.66-.57-6.66,3.79v42.88c0,4,2.85,9.28,6.66,11.47l37.72,21.78c3.49,2.01,6.66.57,6.66-3.79v-42.88Z"/><path class="cls-11" d="m576.29,1358.52c0-4-2.85-7.82-6.02-8.2l-15.85-.43c-3.17-.01-3.8,3.62-1.27,7.99l18.38,31.69c2.54,4.37,4.75,4.56,4.75.56v-31.61Z"/><path class="cls-11" d="m771.86,1697.81c1.27-3.26-.32-7.09-4.12-9.28l-27.89-16.1c-3.49-2.01-4.44-.02-1.9,4.35l18.38,31.69c2.54,4.37,6.02,5.66,7.61,2.94l7.92-13.59Z"/><path class="cls-11" d="m576.29,1585.62c0-4-2.85-9.28-6.66-11.47l-37.72-21.78c-3.49-2.01-6.66-.57-6.66,3.79v42.88c0,4,2.85,9.28,6.66,11.47l37.72,21.78c3.49,2.01,6.66.57,6.66-3.79v-42.88Z"/><path class="cls-11" d="m518.6,1550.13c2.54-1.44,1.58-4.54-1.9-6.55l-27.89-16.1c-3.49-2.01-5.39.16-4.12,4.52l7.61,22.56c1.58,4.55,5.07,7.29,7.61,5.85l18.7-10.28Z"/><path class="cls-11" d="m730.97,1540.48c0,4-2.85,5.98-6.66,3.79l-37.4-21.59c-3.49-2.01-6.66-7.11-6.66-11.47v-43.24c0-4,2.85-5.98,6.66-3.79l37.72,21.78c3.49,2.01,6.66,7.11,6.66,11.47v43.24s-.32-.18-.32-.18Z"/><path class="cls-11" d="m529.06,1544.18c-2.54,1.44-6.66-.94-9.19-5.31l-41.84-72.12c-2.54-4.37-2.54-9.09,0-10.54l41.84-23.44c2.54-1.44,6.66.94,9.19,5.31l41.52,71.57c2.54,4.37,2.54,9.09,0,10.54l-41.52,23.99Z"/></g><g id="Shadow_shield" class="cls-21"><g class="cls-30"><path class="cls-6" d="m800.68,1995.81l-296.38-171.12c-7.98-4.61-6.98-12.66,2.24-17.98h0c9.22-5.32,23.16-5.9,31.15-1.29l296.38,171.12c7.98,4.61,6.98,12.66-2.24,17.98h0c-9.22,5.32-23.16,5.9-31.15,1.29Z"/></g><g class="cls-28"><path class="cls-8" d="m779.98,1981.81l-260.73-150.53c-7.02-4.05-6.14-11.14,1.97-15.82h0c8.11-4.68,20.38-5.19,27.4-1.14l260.73,150.53c7.02,4.05,6.14,11.14-1.97,15.82h0c-8.11,4.68-20.38,5.19-27.4,1.14Z"/></g></g><g id="Icon_users-2"><g id="Circle_Tick_upgrade_Calendar-2"><g class="cls-26"><path class="cls-17" d="m1687.31,483.99c54.14-31.46,129.11-27.03,211.86,20.75,164.43,94.94,297.3,325.08,296.77,514.02-.27,93.87-33.41,159.91-86.85,190.97l-21.87,12.6c53.45-31.06-367.64-757.2-421.77-725.74l21.87-12.6Z"/><ellipse class="cls-20" cx="1876.33" cy="859.45" rx="243.1" ry="419.7" transform="translate(-177.79 1059.13) rotate(-30.16)"/></g></g><g id="OrgIcon-"><g id="OrgIcon" class="cls-31"><path class="cls-9" d="m2030.19,959.26c-4.02-6.89-9.45-12.59-15.1-15.86l-13.52-7.8v-40.05c-.03-3.55-1.28-7.64-3.46-11.39-2.17-3.74-5.11-6.87-8.19-8.69l-97.07-56.04v-26.71s11.65,6.73,11.65,6.73c5.65,3.26,11.08,3.84,15.1,1.59,4.02-2.25,6.29-7.14,6.33-13.6v-53.41c0-6.52-2.26-14.08-6.27-21-4.02-6.93-9.47-12.67-15.16-15.95l-46.59-26.9c-5.69-3.28-11.14-3.84-15.16-1.55-4.02,2.28-6.28,7.23-6.28,13.75v53.41c.04,6.5,2.32,14.02,6.34,20.91,4.02,6.89,9.44,12.58,15.1,15.85l11.64,6.72v26.71s-97.07-56.04-97.07-56.04c-3.08-1.73-6.01-2-8.19-.77-2.18,1.24-3.41,3.9-3.46,7.4v40.05s-13.51-7.8-13.51-7.8c-5.66-3.27-11.08-3.83-15.1-1.58-4.02,2.25-6.3,7.13-6.34,13.6v53.41c0,6.52,2.26,14.08,6.28,21,4.02,6.93,9.47,12.66,15.16,15.94l46.59,26.9c5.65,3.22,11.06,3.73,15.05,1.43,3.99-2.3,6.23-7.23,6.23-13.71v-53.41c-.04-6.47-2.3-13.96-6.28-20.82-3.98-6.87-9.37-12.56-15-15.86l-9.79-5.65v-26.71s85.42,49.32,85.42,49.32v26.71s-11.64-6.72-11.64-6.72c-5.66-3.27-11.08-3.83-15.1-1.58-4.02,2.25-6.3,7.13-6.34,13.6v53.41c0,6.52,2.26,14.08,6.28,21,4.02,6.93,9.47,12.66,15.16,15.94l46.59,26.9c5.68,3.28,11.13,3.85,15.16,1.56,4.02-2.28,6.27-7.23,6.27-13.75v-53.41c-.04-6.51-2.32-14.02-6.33-20.91-4.02-6.89-9.45-12.59-15.1-15.86l-11.65-6.73v-26.71s85.42,49.32,85.42,49.32v26.71s-9.79-5.65-9.79-5.65c-5.63-3.2-11.02-3.73-15-1.46-3.98,2.26-6.23,7.14-6.27,13.57v53.41c0,6.49,2.23,14,6.22,20.9,3.99,6.9,9.4,12.64,15.06,15.95l46.59,26.9c5.68,3.28,11.13,3.85,15.16,1.56,4.02-2.28,6.27-7.23,6.27-13.75v-53.41c-.04-6.51-2.32-14.02-6.33-20.91Zm-242.16-115.79v40.06s-34.95-20.18-34.95-20.18v-40.06s34.95,20.18,34.95,20.18Zm110.58,63.84v40.06s-34.79-20.09-34.79-20.09v-40.06s34.79,20.09,34.79,20.09Zm-34.79-162.51v-40.06s34.79,20.09,34.79,20.09v40.06s-34.79-20.09-34.79-20.09Zm145.52,266.5l-34.94-20.17v-40.06s34.94,20.17,34.94,20.17v40.06Z"/></g><path id="OrgIcon-2" class="cls-18" d="m2021.03,963.08c-4.02-6.89-9.45-12.59-15.1-15.86l-13.52-7.8v-40.05c-.03-3.55-1.28-7.64-3.46-11.39-2.17-3.74-5.11-6.87-8.19-8.69l-97.07-56.04v-26.71s11.65,6.73,11.65,6.73c5.65,3.26,11.08,3.84,15.1,1.59,4.02-2.25,6.29-7.14,6.33-13.6v-53.41c0-6.52-2.26-14.08-6.27-21-4.02-6.93-9.47-12.67-15.16-15.95l-46.59-26.9c-5.69-3.28-11.14-3.84-15.16-1.55-4.02,2.28-6.28,7.23-6.28,13.75v53.41c.04,6.5,2.32,14.02,6.34,20.91,4.02,6.89,9.44,12.58,15.1,15.85l11.64,6.72v26.71s-97.07-56.04-97.07-56.04c-3.08-1.73-6.01-2-8.19-.77-2.18,1.24-3.41,3.9-3.46,7.4v40.05s-13.51-7.8-13.51-7.8c-5.66-3.27-11.08-3.83-15.1-1.58-4.02,2.25-6.3,7.13-6.34,13.6v53.41c0,6.52,2.26,14.08,6.28,21,4.02,6.93,9.47,12.66,15.16,15.94l46.59,26.9c5.65,3.22,11.06,3.73,15.05,1.43,3.99-2.3,6.23-7.23,6.23-13.71v-53.41c-.04-6.47-2.3-13.96-6.28-20.82-3.98-6.87-9.37-12.56-15-15.86l-9.79-5.65v-26.71s85.42,49.32,85.42,49.32v26.71s-11.64-6.72-11.64-6.72c-5.66-3.27-11.08-3.83-15.1-1.58-4.02,2.25-6.3,7.13-6.34,13.6v53.41c0,6.52,2.26,14.08,6.28,21,4.02,6.93,9.47,12.66,15.16,15.94l46.59,26.9c5.68,3.28,11.13,3.85,15.16,1.56,4.02-2.28,6.27-7.23,6.27-13.75v-53.41c-.04-6.51-2.32-14.02-6.33-20.91-4.02-6.89-9.45-12.59-15.1-15.86l-11.65-6.73v-26.71s85.42,49.32,85.42,49.32v26.71s-9.79-5.65-9.79-5.65c-5.63-3.2-11.02-3.73-15-1.46-3.98,2.26-6.23,7.14-6.27,13.57v53.41c0,6.49,2.23,14,6.22,20.9,3.99,6.9,9.4,12.64,15.06,15.95l46.59,26.9c5.68,3.28,11.13,3.85,15.16,1.56,4.02-2.28,6.27-7.23,6.27-13.75v-53.41c-.04-6.51-2.32-14.02-6.33-20.91Zm-242.16-115.79v40.06s-34.95-20.18-34.95-20.18v-40.06s34.95,20.18,34.95,20.18Zm110.58,63.84v40.06s-34.79-20.09-34.79-20.09v-40.06s34.79,20.09,34.79,20.09Zm-34.79-162.51v-40.06s34.79,20.09,34.79,20.09v40.06s-34.79-20.09-34.79-20.09Zm145.52,266.5l-34.94-20.17v-40.06s34.94,20.17,34.94,20.17v40.06Z"/></g></g><g id="Shadow_shield-2" class="cls-21"><g class="cls-27"><path class="cls-14" d="m2020.27,1300.77l-296.38-171.12c-7.98-4.61-6.98-12.66,2.24-17.98h0c9.22-5.32,23.16-5.9,31.15-1.29l296.38,171.12c7.98,4.61,6.98,12.66-2.24,17.98h0c-9.22,5.32-23.16,5.9-31.15,1.29Z"/></g><g class="cls-25"><path class="cls-4" d="m1999.57,1286.77l-260.73-150.53c-7.02-4.05-6.14-11.14,1.97-15.82h0c8.11-4.68,20.38-5.19,27.4-1.14l260.73,150.53c7.02,4.05,6.14,11.14-1.97,15.82h0c-8.11,4.68-20.38,5.19-27.4,1.14Z"/></g></g></g><g id="Shield"><g id="Shield-2"><g id="Shadow_shield-3" class="cls-21"><g class="cls-33"><path class="cls-10" d="m1363,1655.91l-274.23-158.32c-7.39-4.26-6.46-11.71,2.07-16.64h0c8.53-4.92,21.43-5.46,28.82-1.19l274.23,158.32c7.39,4.26,6.46,11.71-2.07,16.64h0c-8.53,4.92-21.43,5.46-28.82,1.19Z"/></g><g class="cls-29"><path class="cls-12" d="m1343.85,1642.95l-241.24-139.28c-6.5-3.75-5.68-10.3,1.82-14.64h0c7.5-4.33,18.85-4.8,25.35-1.05l241.24,139.28c6.5,3.75,5.68,10.3-1.82,14.64h0c-7.5,4.33-18.85,4.8-25.35,1.05Z"/></g></g><path class="cls-13" d="m1014.01,838.78c3.23-1.88,7.68-1.6,12.53,1.2.68.39,1.38.84,2.07,1.34,10.01,7.12,23.29,16,38.52,24.79,41.88,24.18,98.6,47.77,143.27,32.66,3.2-1.08,7.08-.31,10.95,1.93,3.87,2.24,7.74,5.94,10.93,10.71,44.44,66.55,101.12,108.44,143,132.61,15.24,8.8,28.51,15.25,38.53,19.69.7.31,1.39.66,2.07,1.06,9.62,5.56,17.62,19.22,17.59,30.57l-.79,278.12c-.16,55.61-23,87.57-53.66,105.39l67.75-39.37c30.67-17.82,53.51-49.78,53.66-105.39l.79-278.12c.03-11.35-7.97-25.02-17.59-30.57-.68-.39-1.38-.75-2.07-1.06-10.01-4.44-23.29-10.89-38.53-19.69-41.88-24.18-98.56-66.07-143-132.61-3.18-4.77-7.05-8.47-10.93-10.71-3.87-2.24-7.75-3.01-10.95-1.93-44.67,15.1-101.39-8.48-143.27-32.66-15.23-8.8-28.51-17.68-38.52-24.79-.7-.5-1.39-.94-2.07-1.34-4.85-2.8-9.31-3.07-12.53-1.2l-67.75,39.37Z"/><path class="cls-13" d="m1014.01,838.78c3.23-1.88,7.68-1.6,12.53,1.2.68.39,1.38.84,2.07,1.34,10.01,7.12,23.29,16,38.52,24.79,41.88,24.18,98.6,47.77,143.27,32.66,3.2-1.08,7.08-.31,10.95,1.93,3.87,2.24,7.74,5.94,10.93,10.71,44.44,66.55,101.12,108.44,143,132.61,15.24,8.8,28.51,15.25,38.53,19.69.7.31,1.39.66,2.07,1.06,9.62,5.56,17.62,19.22,17.59,30.57l-.79,278.12c-.16,55.61-23,87.57-53.66,105.39l67.75-39.37c30.67-17.82,53.51-49.78,53.66-105.39l.79-278.12c.03-11.35-7.97-25.02-17.59-30.57-.68-.39-1.38-.75-2.07-1.06-10.01-4.44-23.29-10.89-38.53-19.69-41.88-24.18-98.56-66.07-143-132.61-3.18-4.77-7.05-8.47-10.93-10.71-3.87-2.24-7.75-3.01-10.95-1.93-44.67,15.1-101.39-8.48-143.27-32.66-15.23-8.8-28.51-17.68-38.52-24.79-.7-.5-1.39-.94-2.07-1.34-4.85-2.8-9.31-3.07-12.53-1.2l-67.75,39.37Z"/><path class="cls-15" d="m1014.01,838.78c3.23-1.88,395.68,622.25,365.02,640.07l67.75-39.37c30.67-17.82,53.51-49.78,53.66-105.39l.79-278.12c.03-11.35-7.97-25.02-17.59-30.57-.68-.39-1.38-.75-2.07-1.06-10.01-4.44-23.29-10.89-38.53-19.69-41.88-24.18-98.56-66.07-143-132.61-3.18-4.77-7.05-8.47-10.93-10.71-3.87-2.24-7.75-3.01-10.95-1.93-44.67,15.1-101.39-8.48-143.27-32.66-15.23-8.8-28.51-17.68-38.52-24.79-.7-.5-1.39-.94-2.07-1.34-4.85-2.8-9.31-3.07-12.53-1.2l-67.75,39.37Z"/><g class="cls-26"><path class="cls-16" d="m1221.36,900.7c-3.87-2.24-7.75-3.01-10.95-1.93-44.67,15.1-101.39-8.48-143.27-32.66-15.23-8.8-28.51-17.68-38.52-24.79-.7-.5-1.39-.94-2.07-1.34-9.62-5.56-17.68-1.16-17.71,10.19l-.79,278.12c-.4,141.93,147.31,300.56,196.17,349.15,5,4.97,10.24,9.04,15.48,12.06,5.24,3.03,10.49,5.01,15.5,5.83,48.96,7.9,197.09,20.06,197.49-121.87l.79-278.12c.03-11.35-7.97-25.02-17.59-30.57-.68-.39-1.38-.75-2.07-1.06-10.01-4.44-23.29-10.89-38.53-19.69-41.88-24.18-98.56-66.07-143-132.61-3.18-4.77-7.05-8.47-10.93-10.71Z"/><g class="cls-32"><path class="cls-3" d="m1019.16,847.64c.47.1,1.26.35,2.38,1,.41.24.84.51,1.27.82,12.91,9.18,26.14,17.7,39.32,25.3,44.55,25.72,84.08,38.76,117.51,38.76,12.12,0,23.5-1.76,33.84-5.24.17,0,1.14.07,2.88,1.07,2.66,1.54,5.37,4.24,7.61,7.6,46.03,68.93,104.97,111.85,146.31,135.72,13.21,7.63,26.49,14.41,39.48,20.17.37.16.74.36,1.13.58,6.61,3.82,12.61,14.25,12.59,21.88l-.79,278.12c-.07,23.43-4.43,43.58-12.97,59.89-7.4,14.13-18.15,25.76-31.95,34.59-22.5,14.38-52.99,21.66-90.64,21.66-20.48,0-38.68-2.24-50.32-4.12-3.79-.62-7.86-2.17-12.11-4.62-4.55-2.63-9.07-6.16-13.43-10.49-24.94-24.8-73.09-75.72-115.33-138.08-23.56-34.79-42.07-68.49-55.02-100.16-15.26-37.32-22.96-72.24-22.87-103.79l.79-278.12c0-1.28.18-2.09.33-2.55m-.49-10.06c-5.77,0-9.82,4.55-9.84,12.59l-.79,278.12c-.4,141.93,147.31,300.56,196.17,349.15,5,4.97,10.24,9.04,15.48,12.06,5.24,3.03,10.49,5.01,15.5,5.83,12.33,1.99,30.96,4.25,51.92,4.25,62.28,0,145.26-19.93,145.56-126.12l.79-278.12c.03-11.35-7.97-25.02-17.59-30.57-.68-.39-1.38-.75-2.07-1.06-10.01-4.44-23.29-10.89-38.53-19.69-41.88-24.18-98.56-66.07-143-132.61-3.18-4.77-7.05-8.47-10.93-10.71-2.71-1.56-5.42-2.41-7.89-2.41-1.07,0-2.09.16-3.06.48-9.77,3.3-20.12,4.76-30.76,4.76-38.02,0-79.79-18.53-112.51-37.42-15.23-8.8-28.51-17.68-38.52-24.79-.7-.5-1.39-.94-2.07-1.34-2.81-1.62-5.49-2.4-7.87-2.4h0Z"/></g></g><g id="inner_glow_front"><ellipse class="cls-19" cx="1220.12" cy="1180.08" rx="170.2" ry="294.81" transform="translate(-429.13 778.53) rotate(-30.36)"/><ellipse class="cls-19" cx="1220.12" cy="1180.08" rx="170.2" ry="294.81" transform="translate(-429.13 778.53) rotate(-30.36)"/></g><g id="Checkmark"><g id="SYMBOLS" class="cls-24"><path class="cls-9" d="m1384.93,1139.41c5.96,10.27,5.96,21.35,0,24.74l-215.58,122.64-74.3-113.97c-6.95-13.34-2.99-22.66,2.69-26.5,6.85-4.62,19.36-6.77,28.13,6.51l50.93,80.05,186.54-105.95c5.96-3.39,15.63,2.19,21.59,12.46Z"/></g><path id="SYMBOLS-2" class="cls-18" d="m1373.02,1137.98c5.96,10.27,5.96,21.35,0,24.74l-215.58,122.64-74.3-113.97c-6.95-13.34-2.99-22.66,2.69-26.5,6.85-4.62,19.36-6.77,28.13,6.51l50.93,80.05,186.54-105.95c5.96-3.39,15.63,2.19,21.59,12.46Z"/></g></g></g><g id="Arrows"><path class="cls-2" d="m267.54,1424.23c-179.28-224.53-110.1-498.19,208.42-682.09,267.55-154.47,644.79-207.37,989.15-159"/><path class="cls-1" d="m1463.84,540.2c7.79,17,15.3,33.66,22.34,50.71-14.33,11.42-28.44,23.43-42.13,35.24"/><path class="cls-1" d="m864.73,554.38c14,12.4,27.6,24.61,40.92,37.37-8.5,16.24-16.55,32.92-24.3,49.26"/><path class="cls-1" d="m301.69,813.38c18.33,3.73,36.21,7.48,54.13,11.85.78,18.31,2.16,36.79,3.64,54.8"/><path class="cls-1" d="m127.37,1186.4c14.65-11.62,29.04-22.89,43.92-33.78,14.51,11.2,29.53,22.03,44.27,32.51"/><path class="cls-2" d="m2234.44,1057.59c179.28,224.53,110.1,498.19-208.42,682.09-267.55,154.47-644.79,207.37-989.15,159"/><path class="cls-1" d="m1056.98,1945.73c-9.65-16.02-18.97-31.74-27.87-47.9,12.97-12.96,25.64-26.46,37.92-39.73"/><path class="cls-1" d="m1637.29,1927.03c-14.02-12.38-27.64-24.56-40.99-37.29,8.47-16.26,16.49-32.95,24.21-49.3"/><path class="cls-1" d="m2199.77,1668.12c-18.33-3.73-36.21-7.48-54.13-11.85-.78-18.31-2.16-36.79-3.64-54.8"/><path class="cls-1" d="m2371.92,1291.24c-13.43,13.02-26.63,25.65-40.36,37.97-15.55-9.7-31.57-19-47.27-27.97"/></g></g></svg>