<?xml version="1.0" encoding="UTF-8"?><svg xmlns="http://www.w3.org/2000/svg" xmlns:xlink="http://www.w3.org/1999/xlink" viewBox="0 0 2500 2500"><defs><style>.cls-1{fill:#0a264b;}.cls-1,.cls-2,.cls-3,.cls-4,.cls-5,.cls-6,.cls-7,.cls-8,.cls-9,.cls-10,.cls-11,.cls-12,.cls-13,.cls-14,.cls-15,.cls-16,.cls-17,.cls-18,.cls-19,.cls-20,.cls-21,.cls-22,.cls-23,.cls-24,.cls-25,.cls-26,.cls-27,.cls-28,.cls-29,.cls-30,.cls-31,.cls-32,.cls-33,.cls-34,.cls-35,.cls-36,.cls-37,.cls-38,.cls-39,.cls-40,.cls-41,.cls-42,.cls-43{stroke-width:0px;}.cls-2{fill:url(#Degradado_sin_nombre_16-9);}.cls-3{fill:url(#linear-gradient-12);}.cls-4{fill:#12abbb;}.cls-5{fill:#022e49;}.cls-6{fill:url(#linear-gradient-17);}.cls-44{opacity:.5;stroke:#12abbb;}.cls-44,.cls-45,.cls-14,.cls-46,.cls-47,.cls-48,.cls-49{fill:none;}.cls-44,.cls-50{stroke-width:2px;}.cls-44,.cls-51,.cls-52,.cls-49{stroke-miterlimit:10;}.cls-7{fill:url(#linear-gradient);}.cls-45{opacity:.41;stroke-width:16px;}.cls-45,.cls-46,.cls-48{stroke:#012033;}.cls-8{fill:url(#linear-gradient-6);}.cls-9{fill:url(#Degradado_sin_nombre_16-13);}.cls-50{fill:url(#linear-gradient-4);stroke:#4dd2d2;}.cls-10{fill:url(#Degradado_sin_nombre_16-3);}.cls-11{fill:url(#linear-gradient-15);}.cls-12{fill:url(#linear-gradient-11);}.cls-13{fill:url(#linear-gradient-5);}.cls-15{fill:url(#Degradado_sin_nombre_16-5);}.cls-53{clip-path:url(#clippath-1);}.cls-51{fill:rgba(0,112,134,.15);stroke-width:1.1px;}.cls-51,.cls-52{stroke:rgba(0,112,134,.25);}.cls-16{fill:url(#linear-gradient-13);}.cls-54,.cls-48{opacity:.15;}.cls-17{fill:url(#Degradado_sin_nombre_16-7);}.cls-18{fill:url(#Degradado_sin_nombre_16-8);}.cls-19{fill:url(#Degradado_sin_nombre_16-6);}.cls-20{fill:url(#linear-gradient-16);}.cls-21{fill:url(#Degradado_sin_nombre_16);}.cls-22{fill:url(#linear-gradient-14);}.cls-23{fill:url(#linear-gradient-2);}.cls-24{fill:url(#Degradado_sin_nombre_16-4);}.cls-25{fill:url(#Degradado_sin_nombre_16-16);}.cls-26{fill:url(#linear-gradient-7);}.cls-27{fill:url(#linear-gradient-3);}.cls-46{opacity:.72;stroke-width:6px;}.cls-28{fill:#fff;opacity:.4;}.cls-29{fill:#b5eaf7;}.cls-55{clip-path:url(#clippath);}.cls-52{fill:rgba(0,112,134,.3);stroke-width:.35px;}.cls-30{fill:url(#linear-gradient-9);}.cls-31{fill:url(#radial-gradient);}.cls-32{fill:url(#Nueva_muestra_de_degradado_38);}.cls-47{stroke:#0a264b;stroke-linecap:round;stroke-linejoin:round;stroke-width:24.24px;}.cls-48{stroke-width:28px;}.cls-33{fill:url(#linear-gradient-8);}.cls-34{fill:url(#linear-gradient-18);}.cls-35{fill:url(#Degradado_sin_nombre_16-11);}.cls-49{stroke:#000;stroke-width:1px;}.cls-36{fill:url(#linear-gradient-10);}.cls-37{fill:url(#Degradado_sin_nombre_16-12);}.cls-38{fill:url(#Degradado_sin_nombre_133);}.cls-39{fill:url(#Degradado_sin_nombre_16-10);}.cls-40{fill:url(#Degradado_sin_nombre_16-15);}.cls-41{fill:#007086;}.cls-42{fill:url(#Degradado_sin_nombre_16-2);}.cls-43{fill:url(#Degradado_sin_nombre_16-14);}</style><linearGradient id="Degradado_sin_nombre_133" x1="2041.32" y1="830.11" x2="2204.31" y2="1068.64" gradientUnits="userSpaceOnUse"><stop offset="0" stop-color="#58d1ed"/><stop offset=".09" stop-color="#6cd8f3"/><stop offset=".2" stop-color="#80dff9"/><stop offset=".31" stop-color="#8ce3fd"/><stop offset=".42" stop-color="#90e5ff"/><stop offset=".45" stop-color="#75d5f6"/><stop offset=".48" stop-color="#5ac5ee"/><stop offset=".52" stop-color="#43b7e7"/><stop offset=".56" stop-color="#32ade2"/><stop offset=".62" stop-color="#25a6de"/><stop offset=".69" stop-color="#1ea2dc"/><stop offset=".88" stop-color="#1da1dc"/></linearGradient><linearGradient id="Nueva_muestra_de_degradado_38" x1="1486.43" y1="1807.15" x2="2195.49" y2="-189.57" gradientUnits="userSpaceOnUse"><stop offset="0" stop-color="#141226"/><stop offset=".58" stop-color="#27244b"/><stop offset=".98" stop-color="#27244b"/><stop offset="1" stop-color="#27244b"/></linearGradient><linearGradient id="linear-gradient" x1="1499.8" y1="461.85" x2="1652.19" y2="1136.35" gradientUnits="userSpaceOnUse"><stop offset="0" stop-color="#00637f"/><stop offset=".65" stop-color="#00637f"/><stop offset=".71" stop-color="#004a5f"/><stop offset=".8" stop-color="#00637f"/><stop offset=".99" stop-color="#0088a1"/></linearGradient><linearGradient id="linear-gradient-2" x1="1490.93" y1="650.5" x2="1535.1" y2="1281.28" gradientUnits="userSpaceOnUse"><stop offset="0" stop-color="#0088a1"/><stop offset="1" stop-color="#00637f"/></linearGradient><linearGradient id="linear-gradient-3" x1="1587.57" y1="902.6" x2="1444.45" y2="619.01" gradientUnits="userSpaceOnUse"><stop offset="0" stop-color="#4dd2d2"/><stop offset=".2" stop-color="#47ced0"/><stop offset=".44" stop-color="#39c4ca"/><stop offset=".71" stop-color="#20b4c0"/><stop offset=".84" stop-color="#12abbb"/><stop offset="1" stop-color="#4dd2d2"/></linearGradient><linearGradient id="linear-gradient-4" x1="1428.49" y1="547.05" x2="1532.74" y2="934" gradientUnits="userSpaceOnUse"><stop offset="0" stop-color="#12abbb"/><stop offset=".56" stop-color="#12abbb"/><stop offset=".94" stop-color="#0088a1"/></linearGradient><linearGradient id="linear-gradient-5" x1="1473.38" y1="972.59" x2="1493.2" y2="741.93" gradientUnits="userSpaceOnUse"><stop offset="0" stop-color="#010d1a" stop-opacity="0"/><stop offset=".41" stop-color="rgba(1,13,26,.13)" stop-opacity=".13"/><stop offset=".76" stop-color="rgba(1,13,26,.53)" stop-opacity=".53"/><stop offset="1" stop-color="#010d1a"/></linearGradient><linearGradient id="Degradado_sin_nombre_16" x1="2261.21" y1="2204.41" x2="2379.62" y2="2086" gradientTransform="translate(140.43 2665.13) rotate(30) scale(1 -1) skewX(-30)" gradientUnits="userSpaceOnUse"><stop offset="0" stop-color="#00b280"/><stop offset=".19" stop-color="#07af97"/><stop offset=".54" stop-color="#13abbf"/><stop offset=".83" stop-color="#1ba9d7"/><stop offset="1" stop-color="#1da8e0"/></linearGradient><linearGradient id="Degradado_sin_nombre_16-2" x1="2201.22" y1="2160.37" x2="2320.7" y2="2040.89" xlink:href="#Degradado_sin_nombre_16"/><linearGradient id="Degradado_sin_nombre_16-3" x1="2262.05" y1="2212.22" x2="2381.16" y2="2093.11" xlink:href="#Degradado_sin_nombre_16"/><linearGradient id="Degradado_sin_nombre_16-4" x1="2180.36" y1="2135.31" x2="2294.65" y2="2021.03" xlink:href="#Degradado_sin_nombre_16"/><linearGradient id="Degradado_sin_nombre_16-5" x1="2218.86" y1="2164.6" x2="2330.82" y2="2052.64" xlink:href="#Degradado_sin_nombre_16"/><linearGradient id="Degradado_sin_nombre_16-6" x1="2237.72" y1="2182.28" x2="2350.3" y2="2069.71" xlink:href="#Degradado_sin_nombre_16"/><linearGradient id="Degradado_sin_nombre_16-7" x1="2285.27" y1="2231.64" x2="2404.75" y2="2112.17" xlink:href="#Degradado_sin_nombre_16"/><linearGradient id="Degradado_sin_nombre_16-8" x1="2287.56" y1="2224.42" x2="2400.86" y2="2111.12" xlink:href="#Degradado_sin_nombre_16"/><linearGradient id="Degradado_sin_nombre_16-9" x1="2210.61" y1="2157.4" x2="2323.78" y2="2044.23" xlink:href="#Degradado_sin_nombre_16"/><linearGradient id="Degradado_sin_nombre_16-10" x1="2231.52" y1="2175.93" x2="2344.09" y2="2063.35" xlink:href="#Degradado_sin_nombre_16"/><linearGradient id="Degradado_sin_nombre_16-11" x1="2251.11" y1="2193.08" x2="2363.06" y2="2081.12" xlink:href="#Degradado_sin_nombre_16"/><linearGradient id="Degradado_sin_nombre_16-12" x1="2258.22" y1="2201.49" x2="2371.35" y2="2088.36" xlink:href="#Degradado_sin_nombre_16"/><linearGradient id="Degradado_sin_nombre_16-13" x1="2189.55" y1="2140.35" x2="2302.12" y2="2027.78" xlink:href="#Degradado_sin_nombre_16"/><linearGradient id="Degradado_sin_nombre_16-14" x1="2177.17" y1="2133.55" x2="2296.66" y2="2014.07" xlink:href="#Degradado_sin_nombre_16"/><linearGradient id="Degradado_sin_nombre_16-15" x1="2279.73" y1="2217.83" x2="2392.24" y2="2105.33" xlink:href="#Degradado_sin_nombre_16"/><linearGradient id="Degradado_sin_nombre_16-16" x1="2200.62" y1="2152.65" x2="2319.73" y2="2033.54" xlink:href="#Degradado_sin_nombre_16"/><linearGradient id="linear-gradient-6" x1="933.44" y1="1869.89" x2="257.46" y2="2263.02" gradientUnits="userSpaceOnUse"><stop offset=".04" stop-color="#0f0b26" stop-opacity="0"/><stop offset=".54" stop-color="#0f0b26" stop-opacity=".05"/><stop offset="1" stop-color="#0f0b26" stop-opacity=".3"/></linearGradient><linearGradient id="linear-gradient-7" x1="339.96" y1="1968.32" x2="355.83" y2="1920.7" gradientUnits="userSpaceOnUse"><stop offset="0" stop-color="#12abbb"/><stop offset="1" stop-color="#4dd2d2"/></linearGradient><linearGradient id="linear-gradient-8" x1="423.21" y1="1721.77" x2="656.44" y2="1997.4" xlink:href="#linear-gradient-2"/><clipPath id="clippath"><path class="cls-14" d="M505.05,1820.42c15.76,78.91-33.69,193.45-110.47,255.85-76.77,62.39-151.79,49.01-167.55-29.9-15.76-78.91,33.69-193.45,110.47-255.85,76.77-62.39,151.79-49.01,167.55,29.9Z"/></clipPath><radialGradient id="radial-gradient" cx="236.85" cy="2054.08" fx="236.85" fy="2054.08" r="144.44" gradientTransform="translate(0 1206.78) scale(1 .5)" gradientUnits="userSpaceOnUse"><stop offset="0" stop-color="#0f0b26" stop-opacity=".3"/><stop offset=".46" stop-color="#0f0b26" stop-opacity="0"/></radialGradient><clipPath id="clippath-1"><path class="cls-14" d="M1457.65,599.26l33.01,19.4c1.38,1.01,2.19,2.61,2.19,4.32v228.08l-259.41,984.8-686.61,279.68-322.73-957.19,390.85-783.24,842.33,223.98c.13.03.26.09.37.18Z"/></clipPath><linearGradient id="linear-gradient-9" x1="973.81" y1="892.49" x2="1892.54" y2="581.46" gradientUnits="userSpaceOnUse"><stop offset=".1" stop-color="#20bcec"/><stop offset=".18" stop-color="#5ccef1"/><stop offset=".51" stop-color="#97dff5"/><stop offset=".79" stop-color="#c6edf9"/></linearGradient><linearGradient id="linear-gradient-10" x1="1119.87" y1="733.83" x2="1237.15" y2="747.69" gradientUnits="userSpaceOnUse"><stop offset="0" stop-color="#5ccef1"/><stop offset="1" stop-color="#c6edf9"/></linearGradient><linearGradient id="linear-gradient-11" x1="1341.72" y1="649.71" x2="1516.98" y2="946.9" gradientUnits="userSpaceOnUse"><stop offset="0" stop-color="#20bcec"/><stop offset=".28" stop-color="#5ccef1"/><stop offset=".37" stop-color="#97dff5"/><stop offset=".45" stop-color="#c6edf9"/></linearGradient><linearGradient id="linear-gradient-12" x1="702.62" y1="1256.36" x2="984.21" y2="734.52" gradientUnits="userSpaceOnUse"><stop offset=".22" stop-color="#20bcec"/><stop offset=".47" stop-color="#5ccef1"/><stop offset=".73" stop-color="#97dff5"/><stop offset=".95" stop-color="#c6edf9"/></linearGradient><linearGradient id="linear-gradient-13" x1="729.54" y1="1031.03" x2="1176.02" y2="1031.03" gradientUnits="userSpaceOnUse"><stop offset="0" stop-color="#e5f7fd"/><stop offset="1" stop-color="#d5f2fb"/></linearGradient><linearGradient id="linear-gradient-14" x1="746.54" y1="1031.03" x2="1159.02" y2="1031.03" gradientUnits="userSpaceOnUse"><stop offset="0" stop-color="#d5f2fb"/><stop offset="1" stop-color="#c6edf9"/></linearGradient><linearGradient id="linear-gradient-15" x1="830.2" y1="1166.72" x2="905.01" y2="1028.07" gradientUnits="userSpaceOnUse"><stop offset="0" stop-color="#20bcec"/><stop offset="1" stop-color="#5ccef1"/></linearGradient><linearGradient id="linear-gradient-16" x1="814.86" y1="1283.97" x2="832.4" y2="1079.91" xlink:href="#linear-gradient-5"/><linearGradient id="linear-gradient-17" x1="722.36" y1="1153.5" x2="766.53" y2="1234.77" gradientUnits="userSpaceOnUse"><stop offset="0" stop-color="#0a264b"/><stop offset="1" stop-color="#045989"/></linearGradient><linearGradient id="linear-gradient-18" x1="1431.97" y1="706.23" x2="1533.78" y2="700.66" gradientUnits="userSpaceOnUse"><stop offset=".23" stop-color="#010d1a" stop-opacity="0"/><stop offset=".46" stop-color="rgba(1,13,26,.13)" stop-opacity=".13"/><stop offset=".66" stop-color="rgba(1,13,26,.53)" stop-opacity=".53"/><stop offset=".79" stop-color="#010d1a"/></linearGradient></defs><g id="Screen"><path class="cls-38" d="M2332.05,760.54L1334.1,184.38c-9.31-5.37-17.82-5.78-24.4-2.13h0s-40.75,22.68-40.75,22.68l1043.85,1491.32,43.06-23.82c.27-.14.54-.29.81-.45l.4-.22h0c7.79-4.72,12.7-15.32,12.7-30.29v-808.87c0-27.77-16.88-60.02-37.71-72.05Z"/><path class="cls-32" d="M2289.54,1693.51l-997.95-576.16c-20.82-12.02-37.71-44.28-37.71-72.05V236.43c0-27.77,16.88-40.53,37.71-28.51l997.95,576.16c20.82,12.02,37.71,44.28,37.71,72.05v808.87c0,27.77-16.88,40.53-37.71,28.51Z"/><path class="cls-28" d="M2254.15,842.86c0,12.9-9.12,18.09-20.38,11.59-11.25-6.5-20.38-22.22-20.38-35.12s9.12-18.09,20.38-11.59c11.25,6.5,20.38,22.22,20.38,35.12Z"/><path class="cls-28" d="M2182.82,801.68c0,12.9-9.12,18.09-20.38,11.59s-20.38-22.22-20.38-35.12c0-12.9,9.12-18.09,20.38-11.59s20.38,22.22,20.38,35.12Z"/><path class="cls-28" d="M2111.5,760.5c0,12.9-9.12,18.09-20.38,11.59-11.25-6.5-20.38-22.22-20.38-35.12,0-12.9,9.12-18.09,20.38-11.59,11.25,6.5,20.38,22.22,20.38,35.12Z"/><path class="cls-51" d="M2237.89,1570.35l-438.27-253.04c-8.98-5.19-16.26-19.1-16.26-31.07v-599.91c0-11.97,7.28-17.48,16.26-12.29l438.27,253.04c8.98,5.19,16.26,19.1,16.26,31.07v599.91c0,11.97-7.28,17.48-16.26,12.29Z"/><path class="cls-52" d="M2254.15,1003.81l-470.8-271.82v-46.32c0-11.61,7.06-16.94,15.76-11.92l439.27,253.62c8.71,5.03,15.76,18.51,15.76,30.12v46.32Z"/></g><g id="Lock"><path class="cls-48" d="M1728.45,786.34c0,52.31-17.14,90.12-45.33,110-5.58,3.93-28.98,19.5-37.35,23.4v153.43c0,31.57-11.64,53.31-30.27,62.56-6.65,3.3-58.27,31.91-66.49,31.91-12.92,0-29.46-11.36-44.91-20.28-52.82-30.49-49.63-124.07-49.63-184.63v-162.01c-49.7-64.98-120.58-124.12-120.58-196.67,0-49.42,6.64-91.84,32.1-112.48,7.26-5.89,61.9-28.16,70.7-31.41,30.82-11.36,70.34-6.06,113.42,18.81,98.49,56.86,178.33,194.48,178.33,307.37Z"/><path class="cls-45" d="M1728.45,786.34c0,52.31-17.14,90.12-45.33,110-5.58,3.93-28.98,19.5-37.35,23.4v153.43c0,31.57-11.64,53.31-30.27,62.56-6.65,3.3-58.27,31.91-66.49,31.91-12.92,0-29.46-11.36-44.91-20.28-52.82-30.49-49.63-124.07-49.63-184.63v-162.01c-49.7-64.98-120.58-124.12-120.58-196.67,0-49.42,6.64-91.84,32.1-112.48,7.26-5.89,61.9-28.16,70.7-31.41,30.82-11.36,70.34-6.06,113.42,18.81,98.49,56.86,178.33,194.48,178.33,307.37Z"/><path class="cls-46" d="M1728.45,786.34c0,52.31-17.14,90.12-45.33,110-5.58,3.93-28.98,19.5-37.35,23.4v153.43c0,31.57-11.64,53.31-30.27,62.56-6.65,3.3-58.27,31.91-66.49,31.91-12.92,0-29.46-11.36-44.91-20.28-52.82-30.49-49.63-124.07-49.63-184.63v-162.01c-49.7-64.98-120.58-124.12-120.58-196.67,0-49.42,6.64-91.84,32.1-112.48,7.26-5.89,61.9-28.16,70.7-31.41,30.82-11.36,70.34-6.06,113.42,18.81,98.49,56.86,178.33,194.48,178.33,307.37Z"/><path class="cls-7" d="M1728.45,786.34c0,52.31-17.14,90.12-45.33,110-5.58,3.93-28.98,19.5-37.35,23.4v153.43c0,31.57-11.64,53.31-30.27,62.56-6.65,3.3-58.27,31.91-66.49,31.91-12.92,0,16.55-31.12,1.11-40.04-52.82-30.49-95.64-104.3-95.64-164.86v-162.01c-49.7-64.98-82.68-147.73-82.68-220.28,0-49.42-31.26-68.23-5.8-88.87,7.26-5.89,61.9-28.16,70.7-31.41,30.82-11.36,70.34-6.06,113.42,18.81,98.49,56.86,178.33,194.48,178.33,307.37Z"/><g class="cls-54"><path class="cls-41" d="M1673.33,811.72c0-112.9-79.84-250.51-178.32-307.37s-178.32-11.43-178.32,101.46c0,72.55,32.97,155.31,82.68,220.28v153.41c0,65.31,39.71,141.17,88.68,169.45l13.92,8.04c48.98,28.28,88.68-1.74,88.68-67.04v-153.41c49.7-7.58,82.68-52.26,82.68-124.81Z"/><path class="cls-41" d="M1673.33,811.72c0-112.9-79.84-250.51-178.32-307.37s-178.32-11.43-178.32,101.46c0,72.55,32.97,155.31,82.68,220.28v153.41c0,65.31,39.71,141.17,88.68,169.45l13.92,8.04c48.98,28.28,88.68-1.74,88.68-67.04v-153.41c49.7-7.58,82.68-52.26,82.68-124.81Z"/><path class="cls-41" d="M1635.23,789.73c0,88.78-62.78,124.5-140.23,79.79-77.44-44.71-140.23-152.93-140.23-241.7,0-88.78,62.78-124.5,140.23-79.79,77.44,44.71,140.23,152.93,140.23,241.7Z"/><path class="cls-41" d="M1631.72,787.7c0,53.9-23.74,87.74-59.88,95.08-21.9,4.44-55.66-2.86-95.17-26.01-75.22-44.08-126.08-139.11-126.08-225.66,0-35.3,17.88-63.27,35.06-79.55,24.94-23.64,64.64-25.32,109.35.49,75.5,43.59,136.71,149.1,136.71,235.65Z"/><path class="cls-41" d="M1596.59,784.82c0,78-55.16,109.39-123.2,70.1-68.04-39.28-123.2-134.36-123.2-212.36s55.16-109.39,123.2-70.1c68.04,39.28,123.2,134.36,123.2,212.36Z"/><path class="cls-41" d="M1445.82,799.42v-203.31c0-7.46,4.53-10.88,10.13-7.65l34.88,20.14c5.59,3.23,10.13,11.89,10.13,19.35v203.31c0,7.46-4.53,10.88-10.13,7.65l-34.88-20.14c-5.59-3.23-10.13-11.89-10.13-19.35Z"/></g><path class="cls-23" d="M1673.33,811.72c0-112.9-79.84-250.51-178.32-307.37s-178.32-11.43-178.32,101.46c0,72.55,32.97,155.31,82.68,220.28v153.41c0,65.31,39.71,141.17,88.68,169.45l13.92,8.04c48.98,28.28,88.68-1.74,88.68-67.04v-153.41c49.7-7.58,82.68-52.26,82.68-124.81Z"/><path class="cls-44" d="M1673.33,811.72c0-112.9-79.84-250.51-178.32-307.37s-178.32-11.43-178.32,101.46c0,72.55,32.97,155.31,82.68,220.28v153.41c0,65.31,39.71,141.17,88.68,169.45l13.92,8.04c48.98,28.28,88.68-1.74,88.68-67.04v-153.41c49.7-7.58,82.68-52.26,82.68-124.81Z"/><path class="cls-1" d="M1635.23,789.73c0,88.78-62.78,124.5-140.23,79.79-77.44-44.71-140.23-152.93-140.23-241.7,0-88.78,62.78-124.5,140.23-79.79,77.44,44.71,140.23,152.93,140.23,241.7Z"/><path class="cls-27" d="M1631.72,787.7c0,53.9-23.74,87.74-59.88,95.08-21.9,4.44-55.66-2.86-95.17-26.01-75.22-44.08-126.08-139.11-126.08-225.66,0-35.3,17.88-63.27,35.06-79.55,24.94-23.64,64.64-25.32,109.35.49,75.5,43.59,136.71,149.1,136.71,235.65Z"/><path class="cls-50" d="M1596.59,784.82c0,78-55.16,109.39-123.2,70.1-68.04-39.28-123.2-134.36-123.2-212.36s55.16-109.39,123.2-70.1c68.04,39.28,123.2,134.36,123.2,212.36Z"/><path class="cls-1" d="M1445.82,799.42v-203.31c0-7.46,4.53-10.88,10.13-7.65l34.88,20.14c5.59,3.23,10.13,11.89,10.13,19.35v203.31c0,7.46-4.53,10.88-10.13,7.65l-34.88-20.14c-5.59-3.23-10.13-11.89-10.13-19.35Z"/><polyline class="cls-13" points="1492.86 827.55 1492.86 863.72 1503.92 874.33 1503.92 1009.1 1466.34 985.69 1466.34 852.41 1454.19 843.57 1454.19 803.9 1492.86 827.55"/></g><g id="Logo"><path class="cls-21" d="M2126.78,1327.39c-1.28.73-3.35-.47-4.63-2.67l-21.09-36.16c-1.28-2.2-1.28-4.58,0-5.31l20.93-12.09c1.28-.73,3.35.47,4.63,2.67l20.93,36.07c1.28,2.2,1.28,4.58,0,5.31l-20.77,12.18Z"/><path class="cls-42" d="M2126.78,1447.52c-1.28.73-3.35-.47-4.63-2.67l-21.09-36.16c-1.28-2.2-1.28-4.58,0-5.31l21.09-11.81c1.28-.73,3.35.47,4.63,2.67l20.93,36.07c1.28,2.2,1.28,4.58,0,5.31l-20.93,11.91Z"/><path class="cls-10" d="M2179.18,1417.7c-1.28.73-3.35-.47-4.63-2.67l-21.09-36.35c-1.28-2.2-1.28-4.58,0-5.31l21.09-11.81c1.28-.73,3.35.47,4.63,2.67l20.93,36.07c1.28,2.2,1.28,4.58,0,5.31l-20.93,12.09Z"/><path class="cls-24" d="M2098.19,1408.48c0-2.01-1.12-3.21-2.4-2.48l-9.26,5.27c-1.28.73-.96,2.93.64,4.76l7.99,9.01c1.76,1.75,3.04,1.57,3.04-.63v-15.93Z"/><path class="cls-15" d="M2161.76,1459.29c1.6,0,1.92-1.82.64-4.03l-9.26-15.97c-1.28-2.2-2.4-2.3-2.4-.28v16.11c0,2.01,1.44,3.94,3.04,4.13l7.99.03Z"/><path class="cls-19" d="M2176.14,1423.09c0-2.01-1.44-4.68-3.35-5.78l-18.85-10.88c-1.76-1.01-3.35-.29-3.35,1.91v21.61c0,2.01,1.44,4.68,3.35,5.78l19.01,10.97c1.76,1.01,3.35.29,3.35-1.91v-21.61s-.16-.09-.16-.09Z"/><path class="cls-17" d="M2192.91,1356.05c-.8-2.29-2.56-3.67-3.83-2.95l-9.26,5.27c-1.28.73-.8,2.29.96,3.3l13.9,8.02c1.76,1.01,2.72-.08,2.08-2.28l-3.83-11.37Z"/><path class="cls-18" d="M2162.4,1307.31c1.28-.73.96-2.93-.64-4.76l-7.99-9.01c-1.76-1.75-3.04-1.57-3.04.63v16.11c0,2.01,1.12,3.21,2.4,2.48l9.26-5.45Z"/><path class="cls-2" d="M2059.85,1278.49c-1.28-2.2-3.04-2.85-3.83-1.48l-3.83,6.94c-.64,1.65.16,3.57,2.08,4.68l14.06,8.12c1.76,1.01,2.24,0,.96-2.19l-9.42-16.06Z"/><path class="cls-39" d="M2098.19,1288.54c0-2.01-1.44-4.68-3.35-5.78l-19.01-10.97c-1.76-1.01-3.35-.29-3.35,1.91v21.61c0,2.01,1.44,4.68,3.35,5.78l19.01,10.97c1.76,1.01,3.35.29,3.35-1.91v-21.61Z"/><path class="cls-35" d="M2098.19,1263.64c0-2.01-1.44-3.94-3.04-4.13l-7.99-.22c-1.6,0-1.92,1.82-.64,4.03l9.26,15.97c1.28,2.2,2.4,2.3,2.4.28v-15.93Z"/><path class="cls-37" d="M2196.75,1434.62c.64-1.65-.16-3.57-2.08-4.68l-14.06-8.12c-1.76-1.01-2.24,0-.96,2.19l9.26,15.97c1.28,2.2,3.04,2.85,3.83,1.48l3.99-6.85Z"/><path class="cls-9" d="M2098.19,1378.09c0-2.01-1.44-4.68-3.35-5.78l-19.01-10.97c-1.76-1.01-3.35-.29-3.35,1.91v21.61c0,2.01,1.44,4.68,3.35,5.78l19.01,10.97c1.76,1.01,3.35.29,3.35-1.91v-21.61Z"/><path class="cls-43" d="M2069.12,1360.2c1.28-.73.8-2.29-.96-3.3l-14.06-8.12c-1.76-1.01-2.72.08-2.08,2.28l3.83,11.37c.8,2.29,2.56,3.67,3.83,2.95l9.42-5.18Z"/><path class="cls-40" d="M2176.14,1355.34c0,2.01-1.44,3.02-3.35,1.91l-18.85-10.88c-1.76-1.01-3.35-3.58-3.35-5.78v-21.79c0-2.01,1.44-3.02,3.35-1.91l19.01,10.97c1.76,1.01,3.35,3.58,3.35,5.78v21.79s-.16-.09-.16-.09Z"/><path class="cls-25" d="M2074.39,1357.2c-1.28.73-3.35-.47-4.63-2.67l-21.09-36.35c-1.28-2.2-1.28-4.58,0-5.31l21.09-11.81c1.28-.73,3.35.47,4.63,2.67l20.93,36.07c1.28,2.2,1.28,4.58,0,5.31l-20.93,12.09Z"/></g><g id="Card"><path class="cls-8" d="M245.27,2242.01l757.71-349.68-26.5-18.72-762.24,351.7c-3.7,1.71-3.75,6.95-.08,8.72l16.2,7.84c4.7,2.28,10.18,2.33,14.92.14Z"/><path class="cls-47" d="M814.28,1117.34s-187.01,285.39-116.76,322.81"/><path class="cls-26" d="M745.63,1373.62c-4.62-2.69-11-2.19-17.77,1.72-1.66.96-3.35,2.13-5.04,3.5l-574.05,467.18c-13.51,10.99-22.17,31.19-19.35,45.12l64.81,320.22c1.03,5.08,3.44,8.62,6.74,10.54l27.96,16.25c-3.3-1.92-5.71-5.46-6.74-10.54l-64.81-320.22c-2.82-13.92,5.84-34.13,19.35-45.12l574.05-467.18c1.69-1.38,3.38-2.54,5.04-3.5,6.77-3.91,13.15-4.4,17.77-1.72l-27.96-16.25Z"/><path class="cls-33" d="M755.82,1391.59c11.61-6.7,22.05-3.36,24.51,8.82l64.81,320.22c2.82,13.93-5.84,34.13-19.35,45.11l-574.05,467.18c-1.69,1.38-3.38,2.54-5.05,3.5-11.62,6.71-22.05,3.36-24.52-8.82l-64.81-320.22c-2.82-13.92,5.84-34.13,19.35-45.12l574.05-467.18c1.69-1.38,3.38-2.54,5.04-3.5Z"/><path class="cls-1" d="M505.05,1820.42c15.76,78.91-33.69,193.45-110.47,255.85-76.77,62.39-151.79,49.01-167.55-29.9-15.76-78.91,33.69-193.45,110.47-255.85,76.77-62.39,151.79-49.01,167.55,29.9Z"/><g class="cls-55"><path class="cls-4" d="M457.93,1931l-54.46,44.26c-1.53-5.62-3.46-11.45-5.66-17.43,16.22-20.79,25.29-48.23,21.24-68.51l-.94-4.72c2.52-2.61,4.06-6.61,3.49-9.43l-4.58-22.93c-.56-2.83-3.04-3.56-5.76-1.91l-2.44-12.24c-.88-4.43-2.35-8.21-4.27-11.36,5.85-15.4,8.11-31.1,5.51-44.14l-2.2-10.99-70.73,57.49c-.5.41-1,.82-1.5,1.24-31.8,26.95-47.86,77.15-33.22,102.19l2.45,4.19-4.79,3.9c-3.09,2.51-5.09,7.16-4.46,10.33l4.58,22.93c.63,3.17,3.68,3.72,6.77,1.21l4.79-3.9.92,4.62c4.06,20.33,20.11,27.4,39.01,19.6.47,7.39,1.07,14.29,1.86,20.46l-54.52,44.31c-21.25,17.27-34.94,48.97-30.57,70.81l13.23,66.24,235.87-191.7-13.23-66.24c-4.36-21.84-25.13-25.54-46.37-8.27Z"/></g><path class="cls-1" d="M720.93,1543.29l-181.96,147.88c-7.57,6.16-14.97,4.83-16.53-2.95h0c-1.56-7.78,3.32-19.08,10.9-25.24l181.96-147.88c7.57-6.16,14.97-4.83,16.53,2.95h0c1.56,7.78-3.32,19.08-10.9,25.24Z"/><path class="cls-1" d="M729.37,1621.46l-180.76,146.91c-4.83,3.92-9.54,3.08-10.53-1.88h0c-.99-4.96,2.12-12.16,6.94-16.08l180.76-146.91c4.83-3.92,9.54-3.08,10.53,1.88h0c.99,4.96-2.12,12.16-6.94,16.08Z"/><path class="cls-1" d="M738.32,1666.21l-180.76,146.91c-4.83,3.92-9.54,3.08-10.53-1.88h0c-.99-4.96,2.12-12.16,6.94-16.08l180.76-146.91c4.83-3.92,9.54-3.08,10.53,1.88h0c.99,4.96-2.12,12.16-6.94,16.08Z"/><path class="cls-1" d="M768.43,1772.43l-184.92,150.29c-6.75,5.49-13.35,4.31-14.74-2.63l-7.2-36.03c-1.39-6.94,2.96-17.02,9.72-22.51l184.92-150.29c6.75-5.49,13.35-4.31,14.74,2.63l7.2,36.03c1.39,6.94-2.96,17.02-9.72,22.51Z"/><path class="cls-4" d="M614.83,1869.24l-.79,3.16c-.43,1.75-1.86,3.39-3.17,3.65l-5.69,1.13,1.21,6.04c.28,1.38-.61,3.42-1.95,4.51l-2.45,1.99c-1.34,1.09-2.68.85-2.95-.53l-1.21-6.04-4.49,7.15c-1.03,1.64-2.63,2.45-3.54,1.8l-1.66-1.17c-.91-.66-.82-2.54.21-4.18l4.49-7.17-5.7,1.11c-1.31.26-2.02-.97-1.59-2.71l.79-3.16c.43-1.75,1.86-3.39,3.17-3.65l5.69-1.13-1.21-6.04c-.28-1.38.61-3.42,1.95-4.51l2.45-1.99c1.34-1.09,2.68-.85,2.95.53l1.21,6.04,4.49-7.15c1.03-1.64,2.63-2.45,3.54-1.8l1.66,1.17c.91.66.82,2.54-.21,4.18l-4.49,7.17,5.7-1.11c1.31-.26,2.02.97,1.59,2.71Z"/><path class="cls-4" d="M661.28,1831.49l-.79,3.16c-.43,1.75-1.86,3.39-3.17,3.65l-5.69,1.13,1.21,6.04c.28,1.38-.61,3.42-1.95,4.51l-2.45,1.99c-1.34,1.09-2.68.85-2.95-.53l-1.21-6.04-4.49,7.15c-1.03,1.64-2.63,2.45-3.54,1.8l-1.66-1.17c-.91-.66-.82-2.54.21-4.18l4.49-7.17-5.7,1.11c-1.31.26-2.02-.97-1.59-2.71l.79-3.16c.43-1.75,1.86-3.39,3.17-3.65l5.69-1.13-1.21-6.04c-.28-1.38.61-3.42,1.95-4.51l2.45-1.99c1.34-1.09,2.68-.85,2.95.53l1.21,6.04,4.49-7.15c1.03-1.64,2.63-2.45,3.54-1.8l1.66,1.17c.91.66.82,2.54-.21,4.18l-4.49,7.17,5.7-1.11c1.31-.26,2.02.97,1.59,2.71Z"/><path class="cls-4" d="M707.72,1793.74l-.79,3.16c-.43,1.75-1.86,3.39-3.17,3.65l-5.69,1.13,1.21,6.04c.28,1.38-.61,3.42-1.95,4.51l-2.45,1.99c-1.34,1.09-2.68.85-2.95-.53l-1.21-6.04-4.49,7.15c-1.03,1.64-2.63,2.45-3.54,1.8l-1.66-1.17c-.91-.66-.82-2.54.21-4.18l4.49-7.17-5.7,1.11c-1.31.26-2.02-.97-1.59-2.71l.79-3.16c.43-1.75,1.86-3.39,3.17-3.65l5.69-1.13-1.21-6.04c-.28-1.38.61-3.42,1.95-4.51l2.45-1.99c1.34-1.09,2.68-.85,2.95.53l1.21,6.04,4.49-7.15c1.03-1.64,2.63-2.45,3.54-1.8l1.66,1.17c.91.66.82,2.54-.21,4.18l-4.49,7.17,5.7-1.11c1.31-.26,2.02.97,1.59,2.71Z"/><path class="cls-4" d="M754.17,1756l-.79,3.16c-.43,1.75-1.86,3.39-3.17,3.65l-5.69,1.13,1.21,6.04c.28,1.38-.61,3.42-1.95,4.51l-2.45,1.99c-1.34,1.09-2.68.85-2.95-.53l-1.21-6.04-4.49,7.15c-1.03,1.64-2.63,2.45-3.54,1.8l-1.66-1.17c-.91-.66-.82-2.54.21-4.18l4.49-7.17-5.7,1.11c-1.31.26-2.02-.97-1.59-2.71l.79-3.16c.43-1.75,1.86-3.39,3.17-3.65l5.69-1.13-1.21-6.04c-.28-1.38.61-3.42,1.95-4.51l2.45-1.99c1.34-1.09,2.68-.85,2.95.53l1.21,6.04,4.49-7.15c1.03-1.64,2.63-2.45,3.54-1.8l1.66,1.17c.91.66.82,2.54-.21,4.18l-4.49,7.17,5.7-1.11c1.31-.26,2.02.97,1.59,2.71Z"/><path class="cls-5" d="M771.85,1448.29c0,11.12-7.86,24.66-17.56,30.26-9.7,5.6-17.56,1.13-17.56-9.99,0-11.12,7.86-24.66,17.56-30.26,9.7-5.6,17.56-1.13,17.56,9.99Z"/><ellipse class="cls-31" cx="236.85" cy="2233.82" rx="144.44" ry="72.22"/></g><g id="Key"><g class="cls-53"><path class="cls-30" d="M1626.04,559.9h0c0,29.66-11.1,64.3-30.49,95.14l-80.73,128.41c-15.44,24.56-38.64,37.95-54.08,31.22l-98.76-43.04c-7.12-3.1-17.81,3.07-24.93,14.39l-98.75,157.07c-15.44,24.56-38.64,37.95-54.08,31.22l-93.95-40.95,30.79-140.37,453.97-262.1c28.17-16.26,51-3.27,51,29.02Z"/><line class="cls-49" x1="1627.73" y1="552.96" x2="1136.34" y2="836.67"/><path class="cls-36" d="M1664.84,580.94h0c0,29.66-11.1,64.3-30.49,95.14l-80.73,128.41c-15.44,24.56-38.64,37.95-54.08,31.22l-98.76-43.04c-7.12-3.1-17.81,3.07-24.93,14.39l-98.75,157.07c-15.44,24.56-38.64,37.95-54.08,31.22l-93.95-40.95,30.79-140.37,453.97-262.1c28.17-16.26,51-3.27,51,29.02Z"/><polyline class="cls-12" points="1173.45 864.65 1664.84 580.94 1665.97 610.95 1136.84 918.97 1173.45 864.65"/><path class="cls-3" d="M1112.27,759.89s-22-12.67-38.95-22.65c-5.52-4.11-11.41-7.64-17.6-10.6-.02-.02-.05-.03-.08-.05h-.02c-39.75-18.92-92.77-13.89-151.01,19.74-123.29,71.18-223.24,243.46-223.24,384.79,0,67.26,22.47,116.53,59.48,140.84l45.85,25.65-22.14-187.05,79.25-130.9,268.45-219.77Z"/><path class="cls-16" d="M952.78,775.13c-123.29,71.18-223.24,243.46-223.24,384.79s99.95,198.21,223.24,127.02c123.29-71.18,223.24-243.46,223.24-384.79s-99.95-198.2-223.24-127.02ZM858.25,1153.77c-24.68,14.24-45.84,9.23-54.83-10.13-2.98-6.39-4.62-14.35-4.62-23.7,0-37.64,26.62-83.52,59.45-102.48,5.89-3.39,11.57-5.69,16.93-6.97,24.59-5.83,42.52,9.9,42.52,40.8,0,37.64-26.61,83.52-59.45,102.48Z"/><path class="cls-22" d="M852.5,1300.63c-31.05,0-57.18-12.11-75.57-35-19.88-24.76-30.39-61.31-30.39-105.71,0-65.4,22.41-140.04,63.09-210.17,40.7-70.15,94.55-126.93,151.65-159.9,32.19-18.58,63.93-28.41,91.78-28.41,31.05,0,57.18,12.1,75.57,35,19.88,24.76,30.39,61.31,30.39,105.7,0,65.4-22.41,140.04-63.09,210.17-40.7,70.15-94.55,126.93-151.65,159.9-32.19,18.59-63.93,28.41-91.78,28.41h0ZM884.95,992.29c-4.45,0-9.06.56-13.69,1.66-7.08,1.69-14.3,4.64-21.49,8.78-38.12,22.02-67.97,73.5-67.97,117.21,0,11.65,2.09,22.04,6.21,30.88,8.29,17.86,24.16,28.11,43.53,28.11,11.35,0,23.19-3.51,35.2-10.44,38.11-22,67.95-73.48,67.95-117.21,0-40.76-24.99-59-49.75-59Z"/><path class="cls-11" d="M917.7,1051.29c0,37.64-26.61,83.52-59.45,102.48-24.68,14.24-45.84,9.23-54.83-10.13,5.36-1.28,11.04-3.58,16.93-6.97,32.83-18.96,59.45-64.84,59.45-102.48,0-9.35-1.64-17.31-4.62-23.7,24.59-5.83,42.52,9.9,42.52,40.8Z"/><path class="cls-29" d="M1128.63,796.45c-6.15-7.66-13.16-14.11-20.94-19.3,4.06,3.57,7.86,7.55,11.38,11.93,19.88,24.75,30.38,61.31,30.38,105.7,0,65.41-22.4,140.05-63.09,210.17-40.69,70.15-94.55,126.94-151.65,159.9-32.19,18.59-63.92,28.41-91.77,28.41h-.01c-20.68,0-39.17-5.37-54.65-15.72,17.18,15.17,39.09,23.09,64.22,23.09,27.85,0,59.59-9.82,91.78-28.41,57.1-32.97,110.95-89.75,151.65-159.9,40.68-70.13,63.09-144.77,63.09-210.17,0-44.39-10.51-80.95-30.39-105.7Z"/><path class="cls-29" d="M899.34,994.42c-4.68-1.43-9.54-2.13-14.39-2.13-4.45,0-9.05.56-13.69,1.66-7.09,1.69-14.31,4.64-21.49,8.78-38.12,22.01-67.97,73.49-67.97,117.21,0,11.65,2.09,22.04,6.21,30.88,4.54,9.79,11.36,17.29,19.79,22.06-12.71-3.83-22.93-12.86-29.05-26.02-4.12-8.84-6.21-19.23-6.21-30.88,0-43.72,29.85-95.2,67.97-117.22,7.18-4.13,14.4-7.08,21.49-8.78,4.64-1.1,9.24-1.65,13.69-1.65,8.16,0,16.35,1.98,23.65,6.09Z"/><path class="cls-20" d="M808.24,1142.23l21.26,19.64-1.58,16.95h-2.22s-10.71,103.21-15.7,109.33c-4.99,6.12,0,0,0,0h0l2.7,4.78-4.92,16.41s12.69,4.92,17.11,5.47c4.42.55,19.56-156.44,19.56-156.44l-24.11-21.7-12.11,5.56Z"/><path class="cls-6" d="M762.22,1470.57c-1.83,0-3.66-.12-5.51-.37-6.63-.9-11.28-7.01-10.38-13.64.9-6.63,7.01-11.27,13.64-10.38,3.26.44,8.36.4,14.89-5.11,43.21-36.44,58.7-216.12,61.03-282.6-.07-11.05-5.95-22.05-11.77-27.25-2.77-2.48-4.57-2.84-4.91-2.81-6.11,2.74-13.27.01-16.01-6.1-2.74-6.11,0-13.28,6.11-16.02,8.12-3.65,17.3-2.6,25.86,2.93,14.47,9.36,24.97,30.15,24.97,49.44,0,.14,0,.28,0,.42-.02.62-2.25,62.33-11.46,129.09-5.44,39.46-12.23,73.04-20.18,99.81-10.55,35.53-22.98,58.95-38,71.61-8.58,7.24-18.26,10.98-28.27,10.98Z"/><path class="cls-34" d="M1513.61,566.35l-133.18,76.89v157.77c6.62-7.33,14.64-10.83,20.35-8.34l98.76,43.04c4.22,1.84,9.01,2.17,14.07,1.19v-270.55Z"/></g></g></svg>