<?xml version="1.0" encoding="UTF-8"?><svg xmlns="http://www.w3.org/2000/svg" xmlns:xlink="http://www.w3.org/1999/xlink" viewBox="0 0 2500 2500"><defs><style>.cls-1{fill:#91e2db;}.cls-1,.cls-2,.cls-3,.cls-4,.cls-5,.cls-6,.cls-7,.cls-8,.cls-9,.cls-10,.cls-11,.cls-12,.cls-13,.cls-14,.cls-15,.cls-16,.cls-17,.cls-18,.cls-19,.cls-20,.cls-21,.cls-22,.cls-23{stroke-width:0px;}.cls-2{fill:url(#Degradado_sin_nombre_48);}.cls-3{fill:url(#Degradado_sin_nombre_33);}.cls-24{filter:url(#AI_DesenfoqueGaussiano_4);}.cls-25{filter:url(#AI_DesenfoqueGaussiano_7);opacity:.23;}.cls-4{fill:url(#Degradado_sin_nombre_966);}.cls-26{isolation:isolate;}.cls-27,.cls-6{opacity:.95;}.cls-7{fill:#0b477d;}.cls-8{fill:url(#Degradado_sin_nombre_4);}.cls-28{fill:none;stroke:#06467b;stroke-linecap:round;stroke-linejoin:round;stroke-width:2.82px;}.cls-9{fill:url(#Degradado_sin_nombre_18);}.cls-10{fill:#5f89ad;}.cls-11{fill:url(#radial-gradient);}.cls-12{fill:#d2a57d;}.cls-13{fill:url(#Nueva_muestra_de_degradado_19-2);}.cls-14{fill:#6ad8cf;}.cls-15{fill:#cedce7;}.cls-16{fill:#e8ceb7;}.cls-17{fill:url(#Degradado_sin_nombre_24);}.cls-18{fill:url(#Degradado_sin_nombre_23);}.cls-19{fill:#225b8b;}.cls-20{fill:#85a5c1;}.cls-21{fill:url(#Nueva_muestra_de_degradado_19);}.cls-22{fill:rgba(255,255,255,.95);}.cls-23{fill:#c2ebe8;}</style><radialGradient id="Degradado_sin_nombre_23" cx="-7703.38" cy="4309.81" fx="-7703.38" fy="4309.81" r="62.98" gradientTransform="translate(-1287.57 8555.33) rotate(119.64) scale(.82 .7) skewX(-26.4)" gradientUnits="userSpaceOnUse"><stop offset="0" stop-color="#7e9cbd" stop-opacity=".3"/><stop offset="1" stop-color="#7e9cbd" stop-opacity="0"/></radialGradient><filter id="AI_DesenfoqueGaussiano_4"><feGaussianBlur stdDeviation="4"/></filter><linearGradient id="Degradado_sin_nombre_24" x1="29.03" y1="32.92" x2="247.63" y2="32.92" gradientUnits="userSpaceOnUse"><stop offset="0" stop-color="#7e9cbd" stop-opacity=".5"/><stop offset=".48" stop-color="#7e9cbd" stop-opacity=".1"/><stop offset="1" stop-color="#7e9cbd" stop-opacity="0"/></linearGradient><symbol id="SHADOW_PEOPLE_4" viewBox="0 0 269.17 74.14"><ellipse class="cls-18" cx="63.02" cy="37.76" rx="36.38" ry="63.02" transform="translate(24.87 100.54) rotate(-89.64)"/><g class="cls-24"><path class="cls-17" d="m247.63,32.92c.09,15.15-21.04,27.43-47.19,27.42h-123.91c-2.86.01-5.66-.14-8.38-.42-.78-.08-1.55-.18-2.31-.28-.76-.1-1.52-.21-2.27-.34-.75-.12-1.49-.25-2.23-.4-.73-.14-1.46-.29-2.17-.46-1.35-.3-2.66-.65-3.95-1.02-.42-.13-.85-.25-1.27-.38-.67-.22-1.33-.44-1.99-.67-.65-.22-1.29-.46-1.92-.71-1.26-.49-2.48-1.02-3.65-1.58-.59-.28-1.16-.56-1.73-.86-.56-.29-1.11-.6-1.65-.91-.53-.31-1.06-.63-1.57-.95-.51-.32-1.01-.66-1.49-1-.97-.67-1.89-1.38-2.74-2.11-.43-.36-.84-.73-1.24-1.11-.4-.38-.78-.76-1.15-1.15-.18-.19-.36-.39-.53-.58-.65-.73-1.25-1.48-1.78-2.25-.19-.27-.37-.54-.55-.81-.13-.21-.26-.42-.39-.63-.25-.43-.48-.86-.7-1.29-.21-.44-.41-.87-.59-1.32-.18-.44-.34-.89-.48-1.34-.07-.22-.14-.45-.2-.67-.12-.46-.22-.92-.31-1.38-.16-.92-.25-1.85-.26-2.8-.08-15.15,21.05-27.43,47.2-27.43h123.9c.41,0,.82.01,1.22.01,1.63.03,3.23.1,4.81.21,1.19.09,2.36.2,3.52.34,1.15.14,2.29.3,3.42.48,1.76.29,3.48.64,5.16,1.04.46.11.92.23,1.37.34,1.4.37,2.76.77,4.09,1.21.66.22,1.31.45,1.95.69,2.89,1.07,5.57,2.32,7.99,3.71,3.22,1.86,5.98,3.99,8.18,6.32.37.39.72.79,1.06,1.19.33.4.65.8.95,1.21.76,1.03,1.41,2.08,1.94,3.17.65,1.3,1.13,2.64,1.44,4.02.21.91.34,1.84.38,2.78.01.24.02.47.02.71Z"/></g></symbol><radialGradient id="radial-gradient" cx="1380.19" cy="1127.33" fx="1380.19" fy="1127.33" r="716.96" gradientTransform="translate(-728.42 258.26) rotate(-30.36) scale(1 1.61)" gradientUnits="userSpaceOnUse"><stop offset=".36" stop-color="#43a39b" stop-opacity=".6"/><stop offset=".41" stop-color="#4cb0a7" stop-opacity=".45"/><stop offset=".49" stop-color="#59c1b8" stop-opacity=".26"/><stop offset=".56" stop-color="#62cdc5" stop-opacity=".11"/><stop offset=".64" stop-color="#68d5cc" stop-opacity=".03"/><stop offset=".7" stop-color="#6ad8cf" stop-opacity="0"/></radialGradient><linearGradient id="Degradado_sin_nombre_966" x1="-6865.29" y1="-6383.44" x2="-7229.92" y2="-5608.93" gradientTransform="translate(-5239.74 7415.42) rotate(-180) scale(1 -1)" gradientUnits="userSpaceOnUse"><stop offset="0" stop-color="#a9a7b7"/><stop offset=".59" stop-color="#8c8a9f"/><stop offset="1" stop-color="#7d7c93"/></linearGradient><linearGradient id="Degradado_sin_nombre_18" x1="-6223.64" y1="-4834.06" x2="-7335.53" y2="-7369.78" gradientTransform="translate(-7388.96 3181.85) rotate(-149.84) scale(1 -1)" gradientUnits="userSpaceOnUse"><stop offset=".21" stop-color="#141226"/><stop offset=".53" stop-color="#27244b"/><stop offset=".98" stop-color="#27244b"/><stop offset="1" stop-color="#27244b"/></linearGradient><filter id="AI_DesenfoqueGaussiano_7"><feGaussianBlur stdDeviation="7"/></filter><linearGradient id="Degradado_sin_nombre_48" x1="1406.49" y1="1703.61" x2="1436.38" y2="1563.49" gradientTransform="translate(2288.09) rotate(-180) scale(1 -1)" gradientUnits="userSpaceOnUse"><stop offset="0" stop-color="#010d1a" stop-opacity="0"/><stop offset=".76" stop-color="#010d1a"/><stop offset="1" stop-color="#010d1a" stop-opacity=".4"/></linearGradient><linearGradient id="Nueva_muestra_de_degradado_19" x1="1442.73" y1="2049.59" x2="1194.25" y2="1797.37" gradientTransform="translate(2288.09) rotate(-180) scale(1 -1)" gradientUnits="userSpaceOnUse"><stop offset="0" stop-color="#010d1a" stop-opacity="0"/><stop offset="1" stop-color="#010d1a"/></linearGradient><linearGradient id="Degradado_sin_nombre_33" x1="1231.3" y1="2243.95" x2="1313.51" y2="1571.35" gradientTransform="translate(2288.09) rotate(-180) scale(1 -1)" gradientUnits="userSpaceOnUse"><stop offset=".38" stop-color="#010d1a" stop-opacity="0"/><stop offset=".54" stop-color="#010d1a" stop-opacity=".24"/><stop offset=".77" stop-color="#010d1a" stop-opacity=".93"/><stop offset=".79" stop-color="#010d1a"/></linearGradient><linearGradient id="Nueva_muestra_de_degradado_19-2" x1="1263.88" y1="1658.49" x2="1252.26" y2="1540.14" xlink:href="#Nueva_muestra_de_degradado_19"/><linearGradient id="Degradado_sin_nombre_4" x1="1333.77" y1="1340.22" x2="1397.29" y2="1586.84" gradientTransform="translate(2288.09) rotate(-180) scale(1 -1)" gradientUnits="userSpaceOnUse"><stop offset="0" stop-color="#d4ecf6" stop-opacity=".6"/><stop offset="1" stop-color="#5d7586" stop-opacity=".3"/></linearGradient></defs><g id="Plant"><path class="cls-23" d="m1433.59,1614.7c5.69.01,16.22,3.33,16.67-2.29C1540,494.86,770.78,125,770.77,125c0,0-48.32,147.45-56.47,214.87-17.5,144.67,4.49,291.36,50.84,428.82,92.83,275.29,277.76,520.64,486.44,716.35,42.46,39.82,119.45,129.52,182.01,129.67Z"/><path class="cls-1" d="m407.29,988.23c120.29,238.76,379.44,400.9,646.75,404.65,46.47.65,93.21-3.15,138.26-14.55-166.4-289.8-450.89-384.18-785.02-390.1Z"/><path class="cls-14" d="m799.8,191.25c141.01,237.47,264.28,485.71,360.57,744.8,97.25,258.9,165.44,527.88,223.17,797.99,0,0-26.77,5.53-26.77,5.53-53.14-270.37-116.55-539.08-209.24-798.85-91.79-260.06-210.89-510.13-347.73-749.47h0Z"/><path class="cls-14" d="m1181.4,1386.57c-35.26-48.47-81.14-89.25-131.62-121.5-58.27-37.14-122.07-64.98-186.83-89.15-120.92-44.7-251.77-81.33-374.38-121.69,124.35,36.2,255.94,68.13,378.94,108.8,70.52,23.64,140.4,51.37,203.94,90.77,3.02,1.84,7.68,4.7,10.59,6.71,3.31,2.27,12.44,8.12,15.63,10.5,3.52,2.5,11.75,8.5,15.3,11.04,0,0,9.92,7.76,9.92,7.76,29.78,23.41,56.75,50.41,80.32,80.28,0,0-21.81,16.48-21.81,16.48h0Z"/><path class="cls-1" d="m659.34,701.68c123.06,35.9,228.56,127.86,280.92,244.87-128.11-21.6-244.27-120.23-280.92-244.87Z"/><path class="cls-14" d="m1184.49,1331.12c-97.77-223.54-259.82-418.88-461.78-556.89,208.61,131.5,379.21,322.8,486.61,545.47,0,0-24.83,11.42-24.83,11.42h0Z"/><path class="cls-1" d="m1430.99,249.37c-166.08,199.29-227.23,481.39-158.58,731.56,109.02-82.41,186.18-214.68,215.55-348.15,29.36-133.47,7.4-262.86-56.97-383.42Z"/><path class="cls-14" d="m1422.62,358.13c-8.61,240.54-55.8,480.39-139.66,707.56l-25.46-9.95c91.29-221.14,147.41-457.57,165.12-697.61,0,0-17.71,240.05,0,0Z"/><path class="cls-11" d="m1430.99,249.37c-88.55,106.25-147.26,236.05-172.38,371.99-202.81-359.31-487.83-496.36-487.83-496.36,0,0-48.32,147.45-56.47,214.87-17.5,144.67,4.49,291.36,50.84,428.82,41.17,122.1,100.47,238.3,171.92,346.9-149.34-88.91-330.75-123.83-529.77-127.36,120.29,238.76,379.44,400.9,646.75,404.65,32.96.46,66.05-1.33,98.58-6.47,32.18,34.11,65.25,67.02,98.96,98.63,42.46,39.82,119.45,129.52,182.01,129.67,5.69.01,16.22,3.33,16.67-2.29,23.55-293.26-12.06-535.03-77.38-732.15,55.94-72.81,95.8-159.89,115.07-247.48,29.36-133.47,7.4-262.86-56.97-383.42Z"/></g><g id="UserBadge"><g id="Icon_users"><g id="Circle_Tick_upgrade_Calendar"><g class="cls-26"><path class="cls-4" d="m1225.45,683.85c90.39-52.53,215.57-45.12,353.73,34.65,274.55,158.51,496.4,542.77,495.51,858.25-.44,156.73-55.78,267-145.02,318.86l-36.51,21.03c89.24-51.86,144.57-162.13,145.02-318.86.89-315.48-220.96-699.74-495.51-858.25-138.17-79.77-263.34-87.17-353.73-34.65l36.51-21.03Z"/><ellipse class="cls-9" cx="1541.05" cy="1310.76" rx="405.9" ry="700.76" transform="translate(-449.95 951.78) rotate(-30.16)"/></g></g><g class="cls-25"><g id="User_icon"><g class="cls-27"><path class="cls-5" d="m1667.59,1524.13c3.08,5.3,4.62,11.49,4.62,16.78v70.56s-440.09-254.09-440.09-254.09v-70.56c0-5.29,1.54-9.7,4.62-11.45,12.31-10.53,26.16-20.18,43.09-24.52,120.03-40.07,292.37,82.36,387.77,273.27Zm-367.77-235.26c-13.85,4.35-26.16,11.36-36.93,21.01v29.99s378.54,218.55,378.54,218.55l-1.54-30.88c-84.63-167.05-235.43-271.75-340.07-238.68Zm269.29-103.83c0,74.09-52.32,103.86-116.95,66.54-64.63-37.31-116.95-127.49-116.95-201.58l.06-4.31c2-70.92,53.53-98.82,116.89-62.24,64.63,37.31,116.95,127.49,116.95,201.58Zm-203.12-119.04l.07,3.93c1.77,53.89,39.54,117.72,86.11,144.61,47.7,27.54,86.17,5.65,86.17-49.03,0-54.68-38.47-120.99-86.17-148.53-47.7-27.54-86.17-5.65-86.17,49.03Z"/></g></g><g id="User_icon-2"><g class="cls-27"><path class="cls-5" d="m1710.1,1081.27c-48.8-28.18-88.47-6.69-90.01,47.93l-.05,3.32c0,57.05,40.3,126.5,90.06,155.23,49.77,28.74,90.06,5.81,90.06-51.23s-40.3-126.5-90.06-155.24Zm0,177.95c-35.86-20.7-64.94-69.85-66.31-111.35l-.05-3.03c0-42.11,29.63-58.96,66.36-37.75,36.74,21.21,66.36,72.27,66.36,114.38s-29.62,58.96-66.36,37.75Z"/></g></g><path class="cls-6" d="m1879.56,1510.55v54.34l-227.59-131.39c-11.31-16.63-23.15-32.53-35.42-47.61l239.31,138.16-1.18-23.78c-65.18-128.64-181.3-209.28-261.89-183.81-9.81,3.08-18.6,7.9-26.4,14.43-8.04-7.83-16.17-15.29-24.4-22.4.56-1.06,1.3-1.89,2.22-2.41,9.48-8.11,20.15-15.53,33.19-18.88,92.44-30.85,225.15,63.43,298.62,210.45,2.36,4.08,3.55,8.84,3.55,12.91Z"/></g><path id="User_icon-3" class="cls-22" d="m1658.53,1522.92c3.08,5.3,4.62,11.49,4.62,16.78v70.56s-440.09-254.09-440.09-254.09v-70.56c0-5.29,1.54-9.7,4.62-11.45,12.31-10.53,26.16-20.18,43.09-24.52,120.03-40.07,292.37,82.36,387.77,273.27Zm-367.77-235.26c-13.85,4.35-26.16,11.36-36.93,21.01v29.99s378.54,218.55,378.54,218.55l-1.54-30.88c-84.63-167.05-235.43-271.75-340.07-238.68Zm269.29-103.83c0,74.09-52.32,103.86-116.95,66.54-64.63-37.31-116.95-127.49-116.95-201.58l.06-4.31c2-70.92,53.53-98.82,116.89-62.24,64.63,37.31,116.95,127.49,116.95,201.58Zm-203.12-119.04l.07,3.93c1.77,53.89,39.54,117.72,86.11,144.61,47.7,27.54,86.17,5.65,86.17-49.03,0-54.68-38.47-120.99-86.17-148.53-47.7-27.54-86.17-5.65-86.17,49.03Z"/><path id="User_icon-4" class="cls-22" d="m1701.05,1080.06c-48.8-28.18-88.47-6.69-90.01,47.93l-.05,3.32c0,57.05,40.3,126.5,90.06,155.23,49.77,28.74,90.06,5.81,90.06-51.23s-40.3-126.5-90.06-155.24Zm0,177.95c-35.86-20.7-64.94-69.85-66.31-111.35l-.05-3.03c0-42.11,29.63-58.96,66.36-37.75,36.74,21.21,66.36,72.27,66.36,114.38s-29.62,58.96-66.36,37.75Z"/><path class="cls-22" d="m1870.51,1509.34v54.34l-227.59-131.39c-11.31-16.63-23.15-32.53-35.42-47.61l239.31,138.16-1.18-23.78c-65.18-128.64-181.3-209.28-261.89-183.81-9.81,3.08-18.6,7.9-26.4,14.43-8.04-7.83-16.17-15.29-24.4-22.4.56-1.06,1.3-1.89,2.22-2.41,9.48-8.11,20.15-15.53,33.19-18.88,92.44-30.85,225.15,63.43,298.62,210.45,2.36,4.08,3.55,8.84,3.55,12.91Z"/></g></g><g id="Woman"><g id="woman"><use width="269.17" height="74.14" transform="translate(756.72 2216.01) scale(2.54)" xlink:href="#SHADOW_PEOPLE_4"/><use width="269.17" height="74.14" transform="translate(788.24 2276.14) scale(.71)" xlink:href="#SHADOW_PEOPLE_4"/><g id="WOMAN_0_Layer0_0_FILL"><path class="cls-16" d="m926,1417.84c10.31-2.8,17.38-1.64,21.22,3.45l9.23,15.02,6.56,5.99c4.5,7.54,7.3,15.63,8.39,24.25-.67,2.56-3.89,6.11-9.66,10.64,4.34,12.01,7.56,26.18,9.66,42.51l-42.16-5.29v-35.11c-13.32-8.38-20.41-18.57-21.29-30.59-1.58-14.5,4.43-24.79,18.05-30.88Z"/></g><path class="cls-12" d="m970.79,1468.03s-5.82,7.83-9.05,9.17l-7.62-4.96s5.47.66,16.67-4.2Z"/><g id="WOMAN_0_Layer0_1_FILL"><path class="cls-15" d="m887.93,1519.28c5.81-17.41,16.24-26.13,31.3-26.15,15.02-.04,30.05,2.69,45.12,8.18,15.46,5.57,26.46,14.78,32.99,27.63l-109.41-9.66Z"/></g><g id="WOMAN_0_Layer0_2_FILL"><path class="cls-10" d="m898.43,1515.62c19.23,6.31,26.5,17.99,21.78,35.04-7.89,49.75-26.03,104.97-54.42,165.66,18.62,20.88,39.65,52.37,63.09,94.46l-18.4,22.77c-46.74-37.31-80.98-78.4-102.71-123.3-1.78-30.68,13.31-82.75,45.26-156.22,23.48-39.43,38.61-52.24,45.4-38.42Z"/></g><g id="WOMAN_0_Layer0_2_FILL-2"><path class="cls-2" d="m898.43,1515.62c19.23,6.31,26.5,17.99,21.78,35.04-7.89,49.75-26.03,104.97-54.42,165.66,18.62,20.88,39.65,52.37,63.09,94.46l-18.4,22.77c-46.74-37.31-80.98-78.4-102.71-123.3-1.78-30.68,13.31-82.75,45.26-156.22,23.48-39.43,38.61-52.24,45.4-38.42Z"/></g><g id="WOMAN_0_Layer0_3_FILL"><path class="cls-19" d="m850.15,2276.61l11.14,11.63c9.33,9.82,12.03,16.66,8.11,20.51-3.97,3.9-21.15-1.46-51.53-16.07-7.7-3.71-10.73-8.48-9.09-14.31,1.44-3.96,2.89-7.93,4.37-11.91,10.81,11.63,23.14,19.1,37.01,22.42,5.76-1.67,5.76-5.76,0-12.27m56.25-504.18l77.69,60.84c22.58,68.18,25.83,142.81,9.73,223.89-14.87,38.85-41.91,85.28-81.14,139.3-15.41-1.67-34.94-12.88-58.58-33.63,3-7.13,6.05-14.32,9.16-21.57,20.4-47.51,36.64-78.34,48.71-92.49-24.47-88.52-26.33-180.63-5.57-276.34Z"/><path class="cls-16" d="m854.09,2162.83c23.64,20.75,43.17,31.96,58.58,33.63-18.22,25.08-39.06,51.8-62.53,80.15,5.76,6.5,5.76,10.59,0,12.27-13.87-3.32-26.2-10.79-37.01-22.42,12.37-33.5,26.02-68.04,40.96-103.63Z"/><path class="cls-21" d="m906.4,1772.43l77.69,60.84c22.58,68.18,25.83,142.81,9.73,223.89-14.87,38.85-41.91,85.28-81.14,139.3-15.41-1.67-34.94-12.88-58.58-33.63,3-7.13,6.05-14.32,9.16-21.57,20.4-47.51,36.64-78.34,48.71-92.49-24.47-88.52-26.33-180.63-5.57-276.34Z"/></g><g id="WOMAN_0_Layer0_4_FILL"><path class="cls-7" d="m1010.24,2330.96c3.26,1.22,6.62,1.43,10.08.63,19.5-2.04,31.96-5.56,37.36-10.57,2.3-6.14-.82-9.88-9.38-11.21,29.64,2.04,46.28,6.6,49.91,13.68,3.58,7.08-22.27,17.58-77.54,31.51-7.23.54-10.64-2.37-10.22-8.74-.08-5.16-.15-10.26-.21-15.3Z"/><path class="cls-16" d="m1020.32,2331.6c-3.46.79-6.82.58-10.08-.63-.51-37.36-.53-71.01-.07-100.95,14.14,5.67,34.4,5.93,60.77.78-7.03,28.64-14.57,54.98-22.63,79.02,8.56,1.33,11.68,5.07,9.38,11.21-5.4,5.01-17.86,8.54-37.36,10.57Z"/><path class="cls-19" d="m927.48,1764.96h130.77c36.02,94.98,51.34,189.96,45.96,284.94-9.33,68.03-20.42,128.33-33.27,180.89-26.37,5.16-46.63,4.9-60.77-.78,1.12-77.12,5.37-129.47,12.76-157.06-85.24-174.27-117.06-276.94-95.45-307.99Z"/><path class="cls-3" d="m927.48,1764.96h130.77c36.02,94.98,51.34,189.96,45.96,284.94-9.33,68.03-20.42,128.33-33.27,180.89-26.37,5.16-46.63,4.9-60.77-.78,1.12-77.12,5.37-129.47,12.76-157.06-85.24-174.27-117.06-276.94-95.45-307.99Z"/></g><path class="cls-28" d="m1013.09,1808.39c42.97,88.46,60.89,172.49,65.03,213.73,4.77,47.56-37.73,207.89-37.73,207.89"/><g id="WOMAN_0_Layer0_5_FILL"><path class="cls-20" d="m1091.24,1819.1c2.96,7.94-6.67,13.09-28.9,15.44-19.83,2.11-45.14,1.74-75.92-1.13-16.72-1.57-32.09-3.59-46.1-6.06-2.1-11.61-3.16-23.64-3.17-36.09-7.36,8.79-14.06,19.2-20.09,31.23-3-.69-5.92-1.42-8.74-2.19-23.92-6.53-35.79-13.35-35.6-20.44l28.13-89.67c-27.27-110.48-34.84-173.32-22.7-188.5,7.9-16.42,31.19-21.05,69.86-13.89,35.94,6.45,71.21,20.64,105.81,42.58l13.82,200.91,23.62,67.82Z"/></g><path class="cls-13" d="m993.13,1587.35s17,55.12,68.54,77.34l-3.58-38.19-64.97-39.15Z"/><g id="WOMAN_0_Layer0_6_FILL"><path class="cls-16" d="m1425.45,1579.91c1.42,1.51.43,3.29-2.96,5.36l-15.02,6.7v9.52c-.17,2.68-1.82,4.77-4.93,6.27l-31.51,11.77-16.71,6.98-2.4-26.01,4.65-.28,2.04.63,37.64-14.59,29.18-6.34Z"/></g><g id="WOMAN_0_Layer0_7_FILL"><path class="cls-10" d="m1356.58,1600.21c12.58,3.34,17.39,9.77,14.45,19.32-70.18,30.14-125.94,45.86-167.28,47.16-69.13-6.7-130.63-24.02-184.49-51.95-23.73-17.08-35.13-36.99-34.19-59.71.7-17.63,9.6-24.96,26.72-21.99,63.35,25.04,126.7,55.11,190.05,90.23,25.59-10.4,77.17-18.08,154.74-23.05Z"/></g><g id="WOMAN_0_Layer0_9_FILL"><path class="cls-19" d="m919.3,1474.87h10.43c21.47-16.02,21.36-13.15-.35,8.6-21.75,21.74-20.62,46.79,3.38,75.15,23.96,28.36,26.62,47.59,7.97,57.66-3.29,2.1-7.54,3.46-12.76,4.09,7.76-8.53,10.08-15.39,6.98-20.58-34.25-35.99-52.67-65.37-55.27-88.12-2.64-22.75,10.57-35.02,39.62-36.8Z"/></g><g id="Layer5_20_MEMBER_5_FILL"><path class="cls-19" d="m913.72,1420.59c-13.41,3.07-21.36,15.53-20.7,23.76.74,9.24,3.89,18.58,4.16,21.42.8,8.53.49,7.34-2,12.77-28.85,21.5-29.77,36.63-25.05,71.04-42.39,23.86-70.2,23.94-73.73,81.99-3.53,58.05,77.6,64.9,130.35,36.48,52.75-28.42,62.37-97.6,9.29-145.3,16.5-9.15,19-19.61,20.38-35.19,1.71-18.19-.47-35.28-4.81-53,3.78-1.92,7.12-3.92,8.7-8.15,1.78-4.78.13-6.67-5.14-8.29-13.1-4.02-29.3-.32-41.45,2.46Z"/></g><g id="Layer5_20_MEMBER_5_FILL-2"><path class="cls-8" d="m913.72,1420.59c-13.41,3.07-21.36,15.53-20.7,23.76.74,9.24,3.89,18.58,4.16,21.42.8,8.53.49,7.34-2,12.77-28.85,21.5-29.77,36.63-25.05,71.04-42.39,23.86-70.2,23.94-73.73,81.99-3.53,58.05,77.6,64.9,130.35,36.48,52.75-28.42,62.37-97.6,9.29-145.3,16.5-9.15,19-19.61,20.38-35.19,1.71-18.19-.47-35.28-4.81-53,3.78-1.92,7.12-3.92,8.7-8.15,1.78-4.78.13-6.67-5.14-8.29-13.1-4.02-29.3-.32-41.45,2.46Z"/></g></g></g></svg>