<?xml version="1.0" encoding="UTF-8"?><svg xmlns="http://www.w3.org/2000/svg" xmlns:xlink="http://www.w3.org/1999/xlink" viewBox="0 0 2500 2500"><defs><style>.cls-1{fill:#90e5ff;}.cls-1,.cls-2,.cls-3,.cls-4,.cls-5,.cls-6,.cls-7,.cls-8,.cls-9,.cls-10,.cls-11,.cls-12,.cls-13,.cls-14,.cls-15,.cls-16,.cls-17,.cls-18,.cls-19,.cls-20,.cls-21,.cls-22,.cls-23,.cls-24,.cls-25,.cls-26,.cls-27,.cls-28,.cls-29,.cls-30,.cls-31,.cls-32,.cls-33{stroke-width:0px;}.cls-2{fill:#0b97c2;}.cls-3{fill:url(#Degradado_sin_nombre_513-2);}.cls-4{fill:url(#Nueva_muestra_de_degradado_36);}.cls-5{fill:url(#Degradado_sin_nombre_48);}.cls-6{fill:url(#Degradado_sin_nombre_33);}.cls-34{filter:url(#AI_DesenfoqueGaussiano_7);opacity:.23;}.cls-7{fill:url(#Degradado_sin_nombre_15-2);}.cls-8{fill:url(#Degradado_sin_nombre_521);}.cls-35{isolation:isolate;}.cls-10{fill:#2942ab;}.cls-11{fill:#20bcec;}.cls-36{opacity:.65;}.cls-12{fill:url(#Degradado_sin_nombre_19);mix-blend-mode:hard-light;}.cls-13{fill:url(#Degradado_sin_nombre_14);filter:url(#AI_DesenfoqueGaussiano_7-2);}.cls-37,.cls-14{opacity:.95;}.cls-15{fill:#fafbfc;}.cls-16{fill:#00a7d4;}.cls-17{fill:#f7bcc3;}.cls-18{fill:url(#Nueva_muestra_de_degradado_83);}.cls-19{fill:url(#Degradado_sin_nombre_15);}.cls-20{fill:url(#Degradado_sin_nombre_18);}.cls-38{fill:none;stroke:rgba(20,18,38,.48);stroke-linecap:round;stroke-linejoin:round;stroke-width:2.73px;}.cls-21{fill:url(#Nueva_muestra_de_degradado_61);}.cls-22{fill:#ffa3ab;}.cls-23{fill:url(#Nueva_muestra_de_degradado_62);}.cls-24{fill:#cedce7;}.cls-25{fill:#fcfaff;}.cls-26{fill:#e86f8a;}.cls-27{fill:url(#Degradado_sin_nombre_513);}.cls-28{fill:#225b8b;}.cls-29{fill:#d4ecf6;}.cls-30{fill:url(#Degradado_sin_nombre_14-2);filter:url(#AI_DesenfoqueGaussiano_7-3);}.cls-31{fill:url(#Nueva_muestra_de_degradado_19);}.cls-32{fill:rgba(255,255,255,.95);}.cls-33{fill:#52d6ff;}</style><radialGradient id="Degradado_sin_nombre_19" cx="1461.22" cy="1094.11" fx="1461.22" fy="1094.11" r="715.49" gradientTransform="translate(-690.27 312.16) rotate(-30.36) scale(1 1.61)" gradientUnits="userSpaceOnUse"><stop offset=".34" stop-color="#141226" stop-opacity=".6"/><stop offset=".67" stop-color="#0071b0" stop-opacity=".1"/><stop offset=".83" stop-color="#1e89c0" stop-opacity=".08"/><stop offset=".97" stop-color="#79d2f2" stop-opacity=".02"/><stop offset="1" stop-color="#90e5ff" stop-opacity="0"/></radialGradient><linearGradient id="Nueva_muestra_de_degradado_83" x1="-6865.29" y1="-6383.44" x2="-7229.92" y2="-5608.93" gradientTransform="translate(-5239.74 7415.42) rotate(-180) scale(1 -1)" gradientUnits="userSpaceOnUse"><stop offset="0" stop-color="#90e5ff"/><stop offset="1" stop-color="#1da1dc"/></linearGradient><linearGradient id="Degradado_sin_nombre_18" x1="-6223.64" y1="-4834.06" x2="-7335.53" y2="-7369.78" gradientTransform="translate(-7388.96 3181.85) rotate(-149.84) scale(1 -1)" gradientUnits="userSpaceOnUse"><stop offset=".21" stop-color="#141226"/><stop offset=".53" stop-color="#27244b"/><stop offset=".98" stop-color="#27244b"/><stop offset="1" stop-color="#27244b"/></linearGradient><filter id="AI_DesenfoqueGaussiano_7"><feGaussianBlur stdDeviation="7"/></filter><radialGradient id="Degradado_sin_nombre_15" cx="2074.12" cy="3081.77" fx="2074.12" fy="3081.77" r="155.67" gradientTransform="translate(3013 3000.52) rotate(119.64) scale(.82 .7) skewX(-26.4)" gradientUnits="userSpaceOnUse"><stop offset="0" stop-color="#141226" stop-opacity=".3"/><stop offset="1" stop-color="#141226" stop-opacity="0"/></radialGradient><linearGradient id="Degradado_sin_nombre_14" x1="819.86" y1="2302.08" x2="1360.17" y2="2302.08" gradientUnits="userSpaceOnUse"><stop offset="0" stop-color="#0f0b26" stop-opacity=".5"/><stop offset=".48" stop-color="#0f0b26" stop-opacity=".1"/><stop offset="1" stop-color="#0f0b26" stop-opacity="0"/></linearGradient><filter id="AI_DesenfoqueGaussiano_7-2"><feGaussianBlur stdDeviation="7"/></filter><radialGradient id="Degradado_sin_nombre_15-2" cx="2033.56" cy="3117.75" fx="2033.56" fy="3117.75" r="52.96" gradientTransform="translate(2957.18 3052.73) rotate(119.64) scale(.82 .7) skewX(-26.4)" xlink:href="#Degradado_sin_nombre_15"/><linearGradient id="Degradado_sin_nombre_14-2" x1="821.11" y1="2307.99" x2="1004.94" y2="2307.99" xlink:href="#Degradado_sin_nombre_14"/><filter id="AI_DesenfoqueGaussiano_7-3"><feGaussianBlur stdDeviation="7"/></filter><linearGradient id="Degradado_sin_nombre_48" x1="1311.65" y1="1702.88" x2="1341.46" y2="1563.11" gradientTransform="translate(2193.43) rotate(-180) scale(1 -1)" gradientUnits="userSpaceOnUse"><stop offset="0" stop-color="#010d1a" stop-opacity="0"/><stop offset=".76" stop-color="#010d1a"/><stop offset="1" stop-color="#010d1a" stop-opacity=".4"/></linearGradient><linearGradient id="Nueva_muestra_de_degradado_62" x1="1347.8" y1="2047.96" x2="1099.95" y2="1796.39" gradientTransform="translate(2193.43) rotate(-180) scale(1 -1)" gradientUnits="userSpaceOnUse"><stop offset="0" stop-color="#141226" stop-opacity="0"/><stop offset="1" stop-color="#141226"/></linearGradient><linearGradient id="Degradado_sin_nombre_513" x1="1318.04" y1="2242.2" x2="1357.17" y2="2201.21" gradientTransform="translate(2193.43) rotate(-180) scale(1 -1)" gradientUnits="userSpaceOnUse"><stop offset="0" stop-color="#e86f8a" stop-opacity=".1"/><stop offset=".99" stop-color="#e86f8a" stop-opacity=".5"/></linearGradient><linearGradient id="Degradado_sin_nombre_33" x1="1136.91" y1="2241.82" x2="1218.91" y2="1570.96" gradientTransform="translate(2193.43) rotate(-180) scale(1 -1)" gradientUnits="userSpaceOnUse"><stop offset=".38" stop-color="#010d1a" stop-opacity="0"/><stop offset=".54" stop-color="#010d1a" stop-opacity=".24"/><stop offset=".77" stop-color="#010d1a" stop-opacity=".93"/><stop offset=".79" stop-color="#010d1a"/></linearGradient><linearGradient id="Degradado_sin_nombre_513-2" x1="1138.55" y1="2280.64" x2="1185.14" y2="2275.05" xlink:href="#Degradado_sin_nombre_513"/><radialGradient id="Degradado_sin_nombre_521" cx="1336.41" cy="1601.92" fx="1336.41" fy="1601.92" r="141.92" gradientTransform="translate(2193.43) rotate(-180) scale(1 -1)" gradientUnits="userSpaceOnUse"><stop offset="0" stop-color="#5d7586"/><stop offset="1" stop-color="#5d7586" stop-opacity="0"/></radialGradient><linearGradient id="Nueva_muestra_de_degradado_19" x1="1167.41" y1="1658.25" x2="1156.66" y2="1548.75" gradientTransform="translate(2193.43) rotate(-180) scale(1 -1)" gradientUnits="userSpaceOnUse"><stop offset="0" stop-color="#010d1a" stop-opacity="0"/><stop offset="1" stop-color="#010d1a"/></linearGradient><linearGradient id="Nueva_muestra_de_degradado_36" x1="822.64" y1="1599.07" x2="1208.49" y2="1599.07" gradientTransform="translate(2193.43) rotate(-180) scale(1 -1)" gradientUnits="userSpaceOnUse"><stop offset="0" stop-color="#f5f8fa"/><stop offset=".55" stop-color="#fafbfc"/><stop offset=".99" stop-color="#fff"/><stop offset=".99" stop-color="#fff" stop-opacity=".9"/></linearGradient><linearGradient id="Nueva_muestra_de_degradado_61" x1="1239.11" y1="1340.42" x2="1302.47" y2="1586.4" gradientTransform="translate(2193.43) rotate(-180) scale(1 -1)" gradientUnits="userSpaceOnUse"><stop offset="0" stop-color="#406eb3" stop-opacity="0"/><stop offset="1" stop-color="#406eb3"/></linearGradient></defs><g class="cls-35"><g id="Plant"><path class="cls-1" d="m1433.59,1614.7c5.69.01,16.22,3.33,16.67-2.29C1540,494.86,770.78,125,770.77,125c0,0-48.32,147.45-56.47,214.87-17.5,144.67,4.49,291.36,50.84,428.82,92.83,275.29,277.76,520.64,486.44,716.35,42.46,39.82,119.45,129.52,182.01,129.67Z"/><path class="cls-33" d="m407.29,988.23c120.29,238.76,379.44,400.9,646.75,404.65,46.47.65,93.21-3.15,138.26-14.55-166.4-289.8-450.89-384.18-785.02-390.1Z"/><path class="cls-16" d="m799.8,191.25c141.01,237.47,264.28,485.71,360.57,744.8,97.25,258.9,165.44,527.88,223.17,797.99,0,0-26.77,5.53-26.77,5.53-53.14-270.37-116.55-539.08-209.24-798.85-91.79-260.06-210.89-510.13-347.73-749.47h0Z"/><path class="cls-16" d="m1181.4,1386.57c-35.26-48.47-81.14-89.25-131.62-121.5-58.27-37.14-122.07-64.98-186.83-89.15-120.92-44.7-251.77-81.33-374.38-121.69,124.35,36.2,255.94,68.13,378.94,108.8,70.52,23.64,140.4,51.37,203.94,90.77,3.02,1.84,7.68,4.7,10.59,6.71,3.31,2.27,12.44,8.12,15.63,10.5,3.52,2.5,11.75,8.5,15.3,11.04,0,0,9.92,7.76,9.92,7.76,29.78,23.41,56.75,50.41,80.32,80.28,0,0-21.81,16.48-21.81,16.48h0Z"/><path class="cls-11" d="m659.34,701.68c123.06,35.9,228.56,127.86,280.92,244.87-128.11-21.6-244.27-120.23-280.92-244.87Z"/><path class="cls-16" d="m1184.49,1331.12c-97.77-223.54-259.82-418.88-461.78-556.89,208.61,131.5,379.21,322.8,486.61,545.47,0,0-24.83,11.42-24.83,11.42h0Z"/><path class="cls-11" d="m1430.99,249.37c-166.08,199.29-227.23,481.39-158.58,731.56,109.02-82.41,186.18-214.68,215.55-348.15,29.36-133.47,7.4-262.86-56.97-383.42Z"/><path class="cls-2" d="m1422.63,358.13c-8.61,240.54-55.8,480.39-139.66,707.56l-25.46-9.95c91.29-221.14,147.41-457.57,165.12-697.61,0,0-17.71,240.05,0,0Z"/><path class="cls-12" d="m1430.99,249.37c-88.55,106.25-147.26,236.05-172.38,371.99-202.81-359.31-487.83-496.36-487.83-496.36,0,0-48.32,147.45-56.47,214.87-17.5,144.67,4.49,291.36,50.84,428.82,41.17,122.1,100.47,238.3,171.92,346.9-149.34-88.91-330.75-123.83-529.77-127.36,120.29,238.76,379.44,400.9,646.75,404.65,32.96.46,66.05-1.33,98.58-6.47,32.18,34.11,65.25,67.02,98.96,98.63,42.46,39.82,119.45,129.52,182.01,129.67,5.69.01,16.22,3.33,16.67-2.29,23.55-293.26-12.06-535.03-77.38-732.15,55.94-72.81,95.8-159.89,115.07-247.48,29.36-133.47,7.4-262.86-56.97-383.42Z"/></g><g id="UserBadge"><g id="Icon_users"><g id="Circle_Tick_upgrade_Calendar"><g class="cls-35"><path class="cls-18" d="m1225.45,683.85c90.39-52.53,215.57-45.12,353.73,34.65,274.55,158.51,496.4,542.77,495.51,858.25-.44,156.73-55.78,267-145.02,318.86l-36.51,21.03c89.24-51.86,144.57-162.13,145.02-318.86.89-315.48-220.96-699.74-495.51-858.25-138.17-79.77-263.34-87.17-353.73-34.65l36.51-21.03Z"/><ellipse class="cls-20" cx="1541.05" cy="1310.76" rx="405.9" ry="700.76" transform="translate(-449.95 951.78) rotate(-30.16)"/></g></g><g class="cls-34"><g id="User_icon"><g class="cls-37"><path class="cls-9" d="m1667.59,1524.13c3.08,5.3,4.62,11.49,4.62,16.78v70.56s-440.09-254.09-440.09-254.09v-70.56c0-5.29,1.54-9.7,4.62-11.45,12.31-10.53,26.16-20.18,43.09-24.52,120.03-40.07,292.37,82.36,387.77,273.27Zm-367.77-235.26c-13.85,4.35-26.16,11.36-36.93,21.01v29.99s378.54,218.55,378.54,218.55l-1.54-30.88c-84.63-167.05-235.43-271.75-340.07-238.68Zm269.29-103.83c0,74.09-52.32,103.86-116.95,66.54-64.63-37.31-116.95-127.49-116.95-201.58l.06-4.31c2-70.92,53.53-98.82,116.89-62.24,64.63,37.31,116.95,127.49,116.95,201.58Zm-203.12-119.04l.07,3.93c1.77,53.89,39.54,117.72,86.11,144.61,47.7,27.54,86.17,5.65,86.17-49.03,0-54.68-38.47-120.99-86.17-148.53-47.7-27.54-86.17-5.65-86.17,49.03Z"/></g></g><g id="User_icon-2"><g class="cls-37"><path class="cls-9" d="m1710.1,1081.27c-48.8-28.18-88.47-6.69-90.01,47.93l-.05,3.32c0,57.05,40.3,126.5,90.06,155.23,49.77,28.74,90.06,5.81,90.06-51.23s-40.3-126.5-90.06-155.24Zm0,177.95c-35.86-20.7-64.94-69.85-66.31-111.35l-.05-3.03c0-42.11,29.63-58.96,66.36-37.75,36.74,21.21,66.36,72.27,66.36,114.38s-29.62,58.96-66.36,37.75Z"/></g></g><path class="cls-14" d="m1879.56,1510.55v54.34l-227.59-131.39c-11.31-16.63-23.15-32.53-35.42-47.61l239.31,138.16-1.18-23.78c-65.18-128.64-181.3-209.28-261.89-183.81-9.81,3.08-18.6,7.9-26.4,14.43-8.04-7.83-16.17-15.29-24.4-22.4.56-1.06,1.3-1.89,2.22-2.41,9.48-8.11,20.15-15.53,33.19-18.88,92.44-30.85,225.15,63.43,298.62,210.45,2.36,4.08,3.55,8.84,3.55,12.91Z"/></g><path id="User_icon-3" class="cls-32" d="m1658.53,1522.92c3.08,5.3,4.62,11.49,4.62,16.78v70.56s-440.09-254.09-440.09-254.09v-70.56c0-5.29,1.54-9.7,4.62-11.45,12.31-10.53,26.16-20.18,43.09-24.52,120.03-40.07,292.37,82.36,387.77,273.27Zm-367.77-235.26c-13.85,4.35-26.16,11.36-36.93,21.01v29.99s378.54,218.55,378.54,218.55l-1.54-30.88c-84.63-167.05-235.43-271.75-340.07-238.68Zm269.29-103.83c0,74.09-52.32,103.86-116.95,66.54-64.63-37.31-116.95-127.49-116.95-201.58l.06-4.31c2-70.92,53.53-98.82,116.89-62.24,64.63,37.31,116.95,127.49,116.95,201.58Zm-203.12-119.04l.07,3.93c1.77,53.89,39.54,117.72,86.11,144.61,47.7,27.54,86.17,5.65,86.17-49.03,0-54.68-38.47-120.99-86.17-148.53-47.7-27.54-86.17-5.65-86.17,49.03Z"/><path id="User_icon-4" class="cls-32" d="m1701.05,1080.06c-48.8-28.18-88.47-6.69-90.01,47.93l-.05,3.32c0,57.05,40.3,126.5,90.06,155.23,49.77,28.74,90.06,5.81,90.06-51.23s-40.3-126.5-90.06-155.24Zm0,177.95c-35.86-20.7-64.94-69.85-66.31-111.35l-.05-3.03c0-42.11,29.63-58.96,66.36-37.75,36.74,21.21,66.36,72.27,66.36,114.38s-29.62,58.96-66.36,37.75Z"/><path class="cls-32" d="m1870.51,1509.34v54.34l-227.59-131.39c-11.31-16.63-23.15-32.53-35.42-47.61l239.31,138.16-1.18-23.78c-65.18-128.64-181.3-209.28-261.89-183.81-9.81,3.08-18.6,7.9-26.4,14.43-8.04-7.83-16.17-15.29-24.4-22.4.56-1.06,1.3-1.89,2.22-2.41,9.48-8.11,20.15-15.53,33.19-18.88,92.44-30.85,225.15,63.43,298.62,210.45,2.36,4.08,3.55,8.84,3.55,12.91Z"/></g></g><g id="Woman"><g id="woman"><ellipse class="cls-19" cx="903.87" cy="2314.05" rx="89.93" ry="155.77" transform="translate(-1415.82 3203.34) rotate(-89.64)"/><path class="cls-13" d="m1360.17,2302.08c.22,37.45-52,67.8-116.64,67.77l-306.27.02c-7.07,0-13.99-.37-20.71-1.06-1.93-.2-3.83-.45-5.71-.69-1.88-.25-3.76-.52-5.61-.84-1.85-.3-3.68-.62-5.51-.99-1.8-.35-3.61-.72-5.36-1.14-3.34-.74-6.58-1.61-9.76-2.52-1.04-.32-2.1-.62-3.14-.94-1.66-.54-3.29-1.09-4.92-1.66-1.61-.54-3.19-1.14-4.75-1.75-3.11-1.21-6.13-2.52-9.02-3.91-1.46-.69-2.87-1.38-4.28-2.13-1.38-.72-2.74-1.48-4.08-2.25-1.31-.77-2.62-1.56-3.88-2.35-1.26-.79-2.5-1.63-3.68-2.47-2.4-1.66-4.67-3.41-6.77-5.22-1.06-.89-2.08-1.8-3.06-2.74-.99-.94-1.93-1.88-2.84-2.84-.44-.47-.89-.96-1.31-1.43-1.61-1.8-3.09-3.66-4.4-5.56-.47-.67-.91-1.33-1.36-2-.32-.52-.64-1.04-.96-1.56-.62-1.06-1.19-2.13-1.73-3.19-.52-1.09-1.01-2.15-1.46-3.26-.44-1.09-.84-2.2-1.19-3.31-.17-.54-.35-1.11-.49-1.66-.3-1.14-.54-2.27-.77-3.41-.4-2.27-.62-4.57-.64-6.92-.2-37.45,52.03-67.8,116.66-67.8h306.24c1.01,0,2.03.02,3.02.02,4.03.07,7.98.25,11.89.52,2.94.22,5.83.49,8.7.84,2.84.35,5.66.74,8.45,1.19,4.35.72,8.6,1.58,12.75,2.57,1.14.27,2.27.57,3.39.84,3.46.91,6.82,1.9,10.11,2.99,1.63.54,3.24,1.11,4.82,1.71,7.14,2.64,13.77,5.73,19.75,9.17,7.96,4.6,14.78,9.86,20.22,15.62.91.96,1.78,1.95,2.62,2.94.82.99,1.61,1.98,2.35,2.99,1.88,2.55,3.48,5.14,4.79,7.84,1.61,3.21,2.79,6.52,3.56,9.94.52,2.25.84,4.55.94,6.87.02.59.05,1.16.05,1.76Z"/><g class="cls-36"><ellipse class="cls-7" cx="849.7" cy="2312.07" rx="30.6" ry="53" transform="translate(-1467.67 3147.2) rotate(-89.64)"/><path class="cls-30" d="m1004.94,2307.99c.08,12.74-17.69,23.07-39.68,23.06h-104.2c-2.4,0-4.76-.12-7.05-.35-.66-.07-1.3-.15-1.94-.24-.64-.08-1.28-.18-1.91-.29-.63-.1-1.25-.21-1.88-.34-.61-.12-1.23-.24-1.82-.39-1.14-.25-2.24-.55-3.32-.86-.35-.11-.71-.21-1.07-.32-.56-.18-1.12-.37-1.67-.56-.55-.18-1.08-.39-1.61-.6-1.06-.41-2.09-.86-3.07-1.33-.5-.24-.98-.47-1.46-.72-.47-.24-.93-.5-1.39-.77-.45-.26-.89-.53-1.32-.8-.43-.27-.85-.56-1.25-.84-.82-.56-1.59-1.16-2.3-1.77-.36-.3-.71-.61-1.04-.93-.34-.32-.66-.64-.97-.97-.15-.16-.3-.33-.45-.49-.55-.61-1.05-1.24-1.5-1.89-.16-.23-.31-.45-.46-.68-.11-.18-.22-.35-.33-.53-.21-.36-.4-.72-.59-1.08-.18-.37-.34-.73-.5-1.11-.15-.37-.29-.75-.4-1.13-.06-.18-.12-.38-.17-.56-.1-.39-.18-.77-.26-1.16-.13-.77-.21-1.56-.22-2.35-.07-12.74,17.7-23.07,39.69-23.07h104.19c.34,0,.69,0,1.03,0,1.37.03,2.72.08,4.04.18,1,.08,1.98.17,2.96.29.97.12,1.93.25,2.88.4,1.48.24,2.93.54,4.34.87.39.09.77.19,1.15.29,1.18.31,2.32.65,3.44,1.02.56.18,1.1.38,1.64.58,2.43.9,4.68,1.95,6.72,3.12,2.71,1.56,5.03,3.36,6.88,5.31.31.33.61.66.89,1,.28.34.55.67.8,1.02.64.87,1.19,1.75,1.63,2.67.55,1.09.95,2.22,1.21,3.38.18.77.29,1.55.32,2.34,0,.2.02.4.02.6Z"/></g><g id="WOMAN_0_Layer0_0_FILL"><path class="cls-22" d="m926.07,1417.84c10.28-2.79,17.34-1.64,21.16,3.45l9.21,14.98,6.54,5.98c4.49,7.53,7.28,15.59,8.37,24.19-.67,2.55-3.88,6.09-9.63,10.62,4.33,11.98,7.54,26.11,9.63,42.4l-42.05-5.27v-35.02c-13.28-8.35-20.36-18.53-21.23-30.52-1.58-14.46,4.42-24.72,18-30.8Z"/></g><path class="cls-26" d="m970.75,1467.9s-5.8,7.81-9.02,9.14l-7.6-4.95s5.45.65,16.62-4.19Z"/><g id="WOMAN_0_Layer0_1_FILL"><path class="cls-24" d="m888.1,1519.02c5.8-17.36,16.2-26.06,31.22-26.09,14.98-.04,29.98,2.68,45,8.16,15.42,5.56,26.39,14.75,32.91,27.56l-109.13-9.63Z"/></g><g id="WOMAN_0_Layer0_2_FILL"><path class="cls-29" d="m898.58,1515.37c19.18,6.3,26.43,17.95,21.73,34.95-7.87,49.62-25.96,104.7-54.28,165.24,18.57,20.83,39.55,52.23,62.93,94.22l-18.35,22.71c-46.62-37.21-80.77-78.2-102.45-122.98-1.77-30.6,13.27-82.54,45.14-155.81,23.42-39.33,38.51-52.1,45.28-38.32Z"/></g><g id="WOMAN_0_Layer0_2_FILL-2"><path class="cls-5" d="m898.58,1515.37c19.18,6.3,26.43,17.95,21.73,34.95-7.87,49.62-25.96,104.7-54.28,165.24,18.57,20.83,39.55,52.23,62.93,94.22l-18.35,22.71c-46.62-37.21-80.77-78.2-102.45-122.98-1.77-30.6,13.27-82.54,45.14-155.81,23.42-39.33,38.51-52.1,45.28-38.32Z"/></g><g id="WOMAN_0_Layer0_3_FILL"><path class="cls-10" d="m850.42,2274.4l11.11,11.6c9.31,9.8,12,16.62,8.09,20.46-3.96,3.89-21.09-1.45-51.4-16.03-7.68-3.7-10.7-8.46-9.07-14.27,1.43-3.95,2.89-7.91,4.36-11.88,10.78,11.6,23.08,19.05,36.91,22.36,5.75-1.67,5.75-5.75,0-12.23m56.11-502.88l77.49,60.68c22.53,68,25.76,142.44,9.7,223.31-14.83,38.75-41.81,85.06-80.93,138.94-15.37-1.66-34.85-12.84-58.43-33.54,2.99-7.12,6.04-14.29,9.14-21.52,20.35-47.39,36.55-78.14,48.59-92.25-24.41-88.29-26.26-180.17-5.55-275.63Z"/><path class="cls-22" d="m854.35,2160.91c23.58,20.69,43.06,31.87,58.43,33.54-18.17,25.02-38.96,51.67-62.37,79.95,5.75,6.49,5.75,10.57,0,12.23-13.83-3.31-26.14-10.76-36.91-22.36,12.33-33.41,25.95-67.87,40.85-103.36Z"/><path class="cls-23" d="m906.53,1771.52l77.49,60.68c22.53,68,25.76,142.44,9.7,223.31-14.83,38.75-41.81,85.06-80.93,138.94-15.37-1.66-34.85-12.84-58.43-33.54,2.99-7.12,6.04-14.29,9.14-21.52,20.35-47.39,36.55-78.14,48.59-92.25-24.41-88.29-26.26-180.17-5.55-275.63Z"/><path class="cls-27" d="m854.35,2160.91c23.58,20.69,43.06,31.87,58.43,33.54-18.17,25.02-38.96,51.67-62.37,79.95,5.75,6.49,5.75,10.57,0,12.23-13.83-3.31-26.14-10.76-36.91-22.36,12.33-33.41,25.95-67.87,40.85-103.36Z"/></g><g id="WOMAN_0_Layer0_4_FILL"><path class="cls-10" d="m1010.1,2328.61c3.26,1.21,6.61,1.42,10.05.63,19.45-2.03,31.88-5.55,37.27-10.55,2.3-6.12-.82-9.85-9.35-11.18,29.56,2.04,46.16,6.58,49.78,13.64,3.57,7.06-22.21,17.54-77.34,31.43-7.21.54-10.61-2.37-10.2-8.72-.08-5.15-.15-10.23-.21-15.26Z"/><path class="cls-22" d="m1020.15,2329.24c-3.45.79-6.8.58-10.05-.63-.51-37.26-.53-70.83-.07-100.69,14.1,5.66,34.31,5.92,60.61.77-7.01,28.57-14.53,54.84-22.57,78.82,8.53,1.33,11.65,5.06,9.35,11.18-5.39,5-17.81,8.52-37.27,10.55Z"/><path class="cls-10" d="m927.55,1764.06h130.43c35.92,94.74,51.2,189.47,45.84,284.21-9.31,67.86-20.37,128-33.19,180.42-26.3,5.14-46.51,4.89-60.61-.77,1.11-76.92,5.35-129.14,12.73-156.66-85.02-173.82-116.75-276.22-95.2-307.2Z"/><path class="cls-6" d="m927.55,1764.06h130.43c35.92,94.74,51.2,189.47,45.84,284.21-9.31,67.86-20.37,128-33.19,180.42-26.3,5.14-46.51,4.89-60.61-.77,1.11-76.92,5.35-129.14,12.73-156.66-85.02-173.82-116.75-276.22-95.2-307.2Z"/><path class="cls-3" d="m1020.15,2329.24c-3.45.79-6.8.58-10.05-.63-.51-37.26-.53-70.83-.07-100.69,14.1,5.66,34.31,5.92,60.61.77-7.01,28.57-14.53,54.84-22.57,78.82,8.53,1.33,11.65,5.06,9.35,11.18-5.39,5-17.81,8.52-37.27,10.55Z"/></g><path class="cls-38" d="m1012.94,1807.39c42.86,88.23,60.73,172.04,64.86,213.18,4.76,47.44-37.63,207.36-37.63,207.36"/><g id="WOMAN_0_Layer0_5_FILL"><path class="cls-15" d="m1090.89,1818.06c2.95,7.92-6.66,13.05-28.83,15.4-19.78,2.11-45.02,1.73-75.73-1.12-16.67-1.57-32-3.58-45.98-6.05-2.09-11.58-3.15-23.58-3.16-36-7.34,8.76-14.02,19.15-20.04,31.15-3-.69-5.9-1.41-8.72-2.18-23.86-6.52-35.7-13.31-35.51-20.39l28.05-89.44c-27.2-110.2-34.75-172.87-22.64-188.02,7.88-16.38,31.11-21,69.68-13.85,35.85,6.43,71.03,20.59,105.54,42.47l13.78,200.39,23.55,67.64Z"/></g><g id="WOMAN_0_Layer0_5_FILL-2"><path class="cls-8" d="m1090.89,1821.45c2.95,7.92-6.66,13.05-28.83,15.4-19.78,2.11-45.02,1.73-75.73-1.12-16.67-1.57-32-3.58-45.98-6.05-2.09-11.58-3.15-23.58-3.16-36-7.34,8.76-14.02,19.15-20.04,31.15-3-.69-5.9-1.41-8.72-2.18-23.86-6.52-35.7-13.31-35.51-20.39l28.05-89.44c-27.2-110.2-34.75-172.87-22.64-188.02,7.88-16.38,31.11-21,69.68-13.85,35.85,6.43,71.03,20.59,105.54,42.47l13.78,200.39,23.55,67.64Z"/></g><path class="cls-31" d="m996.56,1592.37s13.43,49.53,64.83,71.69l-2.62-38.09-62.22-33.6Z"/><g id="WOMAN_0_Layer0_6_FILL"><path class="cls-17" d="m1424.24,1579.49c1.42,1.5.43,3.29-2.95,5.34l-14.98,6.68v9.49c-.17,2.67-1.81,4.76-4.92,6.26l-31.43,11.74-16.66,6.96-2.39-25.95,4.64-.28,2.04.63,37.55-14.55,29.11-6.33Z"/></g><g id="WOMAN_0_Layer0_7_FILL"><path class="cls-4" d="m1355.55,1599.74c12.54,3.33,17.35,9.75,14.41,19.27-70,30.06-125.61,45.74-166.85,47.04-68.95-6.69-130.29-23.96-184.01-51.82-23.67-17.04-35.04-36.89-34.1-59.56.7-17.58,9.58-24.89,26.65-21.94,63.19,24.97,126.38,54.97,189.56,90,25.52-10.37,76.97-18.03,154.34-22.99Z"/></g><g id="WOMAN_0_Layer0_9_FILL"><path class="cls-28" d="m919.39,1474.73h10.41c21.42-15.98,21.3-13.12-.35,8.58-21.69,21.68-20.57,46.67,3.38,74.95,23.9,28.29,26.55,47.46,7.95,57.52-3.28,2.09-7.52,3.45-12.73,4.08,7.74-8.5,10.06-15.35,6.96-20.53-34.16-35.9-52.54-65.2-55.13-87.89-2.63-22.69,10.54-34.93,39.52-36.7Z"/></g><g id="Layer5_20_MEMBER_5_FILL"><path class="cls-25" d="m913.82,1420.58c-13.38,3.06-21.31,15.49-20.65,23.7.74,9.22,3.88,18.53,4.15,21.36.8,8.5.49,7.32-1.99,12.74-28.78,21.44-29.7,36.54-24.99,70.86-42.28,23.8-70.02,23.88-73.54,81.78-3.52,57.9,77.4,64.73,130.02,36.38,52.61-28.35,62.21-97.35,9.26-144.93,16.46-9.13,18.95-19.56,20.32-35.1,1.7-18.14-.47-35.19-4.8-52.86,3.77-1.92,7.1-3.91,8.68-8.13,1.77-4.77.13-6.65-5.12-8.27-13.07-4.01-29.22-.32-41.34,2.45Z"/></g><g id="Layer5_20_MEMBER_5_FILL-2"><path class="cls-21" d="m913.82,1420.58c-13.38,3.06-21.31,15.49-20.65,23.7.74,9.22,3.88,18.53,4.15,21.36.8,8.5.49,7.32-1.99,12.74-28.78,21.44-29.7,36.54-24.99,70.86-42.28,23.8-70.02,23.88-73.54,81.78-3.52,57.9,77.4,64.73,130.02,36.38,52.61-28.35,62.21-97.35,9.26-144.93,16.46-9.13,18.95-19.56,20.32-35.1,1.7-18.14-.47-35.19-4.8-52.86,3.77-1.92,7.1-3.91,8.68-8.13,1.77-4.77.13-6.65-5.12-8.27-13.07-4.01-29.22-.32-41.34,2.45Z"/></g></g></g></g></svg>