<svg xmlns="http://www.w3.org/2000/svg" xmlns:xlink="http://www.w3.org/1999/xlink" viewBox="0 0 2500 2500"><defs><style>.cls-1,.cls-16,.cls-24,.cls-46,.cls-47,.cls-51,.cls-53,.cls-59,.cls-61{fill:none;}.cls-2{fill:url(#linear-gradient);}.cls-3{fill:url(#linear-gradient-2);}.cls-4{fill:url(#linear-gradient-3);}.cls-5{fill:url(#linear-gradient-4);}.cls-6{fill:url(#linear-gradient-5);}.cls-7{fill:url(#linear-gradient-6);}.cls-8{fill:url(#linear-gradient-7);}.cls-9{fill:url(#linear-gradient-8);}.cls-10{fill:url(#Degradado_sin_nombre_20);}.cls-11{fill:url(#Degradado_sin_nombre_28);}.cls-12{opacity:0.16;}.cls-13{fill:#85d8d1;}.cls-14{opacity:0.18;}.cls-15{fill:#333a45;}.cls-16{stroke:#333a45;stroke-width:7.33px;opacity:0.47;}.cls-17{fill:url(#Nueva_muestra_de_degradado_11);}.cls-18{fill:#fafbfc;}.cls-19,.cls-57,.cls-60{fill:#fff;}.cls-20{fill:url(#linear-gradient-9);}.cls-21{fill:#f1f3f6;}.cls-22{fill:url(#linear-gradient-10);}.cls-23{fill:url(#Degradado_sin_nombre_97);}.cls-24,.cls-46,.cls-47,.cls-51,.cls-53{stroke:#fff;}.cls-24{stroke-width:1.06px;opacity:0.75;}.cls-25{opacity:0.2;}.cls-26{fill:#9aa8b1;}.cls-26,.cls-27{fill-rule:evenodd;}.cls-27{fill:#ccd3d8;}.cls-28{fill:url(#linear-gradient-11);}.cls-29{fill:url(#Nueva_muestra_de_degradado_11-3);}.cls-30,.cls-31,.cls-32,.cls-33,.cls-34,.cls-35,.cls-36,.cls-37,.cls-38,.cls-39{fill-opacity:0.17;}.cls-30{fill:url(#Nueva_muestra_de_degradado_58);}.cls-31{fill:url(#Nueva_muestra_de_degradado_58-2);}.cls-32{fill:url(#Nueva_muestra_de_degradado_58-3);}.cls-33{fill:url(#Nueva_muestra_de_degradado_58-4);}.cls-34{fill:url(#Nueva_muestra_de_degradado_58-5);}.cls-35{fill:url(#Nueva_muestra_de_degradado_58-6);}.cls-36{fill:url(#Nueva_muestra_de_degradado_58-7);}.cls-37{fill:url(#Nueva_muestra_de_degradado_58-8);}.cls-38{fill:url(#Nueva_muestra_de_degradado_58-9);}.cls-39{fill:url(#Nueva_muestra_de_degradado_58-10);}.cls-40{fill:url(#linear-gradient-12);}.cls-41{fill:url(#linear-gradient-13);}.cls-42{fill:url(#linear-gradient-14);}.cls-43{fill:url(#linear-gradient-15);}.cls-44{fill:url(#linear-gradient-16);}.cls-45{fill:url(#radial-gradient);}.cls-46{stroke-width:2.39px;opacity:0.25;}.cls-47{stroke-width:5.97px;}.cls-47,.cls-52{opacity:0.07;}.cls-48{fill:url(#radial-gradient-2);}.cls-49{fill:url(#linear-gradient-17);}.cls-50{opacity:0.15;}.cls-51{stroke-width:1.19px;}.cls-53{stroke-width:3.58px;}.cls-54{fill:url(#radial-gradient-3);}.cls-55{fill:url(#radial-gradient-4);}.cls-56{clip-path:url(#clip-path);}.cls-57{opacity:0.05;}.cls-58{fill:url(#linear-gradient-18);}.cls-59{stroke:#a63c97;}.cls-59,.cls-61{stroke-linecap:round;stroke-miterlimit:10;stroke-width:3.71px;}.cls-60{opacity:0.4;}.cls-61{stroke:#1da1dc;}.cls-62{fill:url(#linear-gradient-19);}.cls-63{fill:url(#radial-gradient-5);}</style><linearGradient id="linear-gradient" x1="997.42" y1="1499.09" x2="1094.75" y2="1370.3" gradientTransform="matrix(0.99, 0.16, -0.16, 0.99, 142.99, -70.27)" gradientUnits="userSpaceOnUse"><stop offset="0" stop-color="#91e2db"/><stop offset="0.2" stop-color="#88dbd4"/><stop offset="0.59" stop-color="#7dd2cb"/><stop offset="1" stop-color="#79cfc8"/></linearGradient><linearGradient id="linear-gradient-2" x1="1039.06" y1="1467.79" x2="1148.38" y2="1306.06" xlink:href="#linear-gradient"/><linearGradient id="linear-gradient-3" x1="695.59" y1="1135.13" x2="983.1" y2="1010.84" gradientTransform="matrix(0.99, 0.16, -0.16, 0.99, 142.99, -70.27)" gradientUnits="userSpaceOnUse"><stop offset="0" stop-color="#c2ebe8"/><stop offset="1" stop-color="#91e2db"/></linearGradient><linearGradient id="linear-gradient-4" x1="815.88" y1="1069.72" x2="964.13" y2="976.88" gradientTransform="matrix(0.99, 0.16, -0.16, 0.99, 142.99, -70.27)" gradientUnits="userSpaceOnUse"><stop offset="0" stop-color="#c2ebe8"/><stop offset="0.16" stop-color="#b3e8e4"/><stop offset="0.43" stop-color="#a0e5df"/><stop offset="0.7" stop-color="#95e3dc"/><stop offset="1" stop-color="#91e2db"/></linearGradient><linearGradient id="linear-gradient-5" x1="671.61" y1="599.13" x2="1025.01" y2="735.4" xlink:href="#linear-gradient"/><linearGradient id="linear-gradient-6" x1="848.24" y1="540.54" x2="1111.34" y2="722.31" gradientTransform="matrix(0.99, 0.16, -0.16, 0.99, 142.99, -70.27)" gradientUnits="userSpaceOnUse"><stop offset="0" stop-color="#91e2db"/><stop offset="1" stop-color="#79cfc8"/></linearGradient><linearGradient id="linear-gradient-7" x1="1204.12" y1="609.69" x2="1151.71" y2="716.01" xlink:href="#linear-gradient-4"/><linearGradient id="linear-gradient-8" x1="1390" y1="489.22" x2="1102.48" y2="673.41" xlink:href="#linear-gradient-4"/><radialGradient id="Degradado_sin_nombre_20" cx="1257.37" cy="1166.93" r="608.81" gradientTransform="matrix(0.93, -0.36, 0.58, 1.5, -653.57, -18.61)" gradientUnits="userSpaceOnUse"><stop offset="0.36" stop-color="#43a39b" stop-opacity="0.6"/><stop offset="0.45" stop-color="#4db0a8" stop-opacity="0.47"/><stop offset="0.65" stop-color="#66d3ca" stop-opacity="0.15"/><stop offset="0.67" stop-color="#6ad8cf" stop-opacity="0.1"/></radialGradient><linearGradient id="Degradado_sin_nombre_28" x1="1349.76" y1="1878.62" x2="1800.52" y2="1878.62" gradientUnits="userSpaceOnUse"><stop offset="0" stop-color="#5d7586" stop-opacity="0.07"/><stop offset="0.64" stop-color="#5d7586" stop-opacity="0.05"/><stop offset="1" stop-color="#5d7586" stop-opacity="0"/></linearGradient><linearGradient id="Nueva_muestra_de_degradado_11" x1="1011.72" y1="933.08" x2="1781.57" y2="1042.02" gradientUnits="userSpaceOnUse"><stop offset="0" stop-color="#fafbfc"/><stop offset="0.55" stop-color="#f5f8fa"/><stop offset="0.99" stop-color="#e6f4fa"/><stop offset="0.99" stop-color="#d4ecf6" stop-opacity="0.9"/></linearGradient><linearGradient id="linear-gradient-9" x1="987.71" y1="1514.02" x2="1733.08" y2="1514.02" gradientUnits="userSpaceOnUse"><stop offset="0" stop-color="#e5f4fa"/><stop offset="0.41" stop-color="#e5f4fa"/><stop offset="0.51" stop-color="#d5eaf7"/><stop offset="0.58" stop-color="#c8e3f5"/><stop offset="0.74" stop-color="#cbe4f4"/><stop offset="1" stop-color="#cee7f5"/></linearGradient><linearGradient id="linear-gradient-10" x1="1269.82" y1="1835.05" x2="1070.73" y2="1453.73" gradientUnits="userSpaceOnUse"><stop offset="0" stop-color="#d8dee6" stop-opacity="0"/><stop offset="0.41" stop-color="#d8dee6" stop-opacity="0.5"/></linearGradient><linearGradient id="Degradado_sin_nombre_97" x1="1172.52" y1="1555.58" x2="1156.88" y2="1895.16" gradientUnits="userSpaceOnUse"><stop offset="0" stop-color="#fafbfc"/><stop offset="0.48" stop-color="#f6f9fa"/><stop offset="0.55" stop-color="#f5f8fa"/><stop offset="0.99" stop-color="#e5f4fa"/></linearGradient><linearGradient id="linear-gradient-11" x1="984.57" y1="991.69" x2="1740.31" y2="991.69" gradientUnits="userSpaceOnUse"><stop offset="0" stop-color="#e5f4fa"/><stop offset="0.36" stop-color="#e5f4fa"/><stop offset="0.45" stop-color="#d5eaf7"/><stop offset="0.54" stop-color="#c8e3f5"/><stop offset="0.74" stop-color="#cbe4f4"/><stop offset="1" stop-color="#cee7f5"/></linearGradient><linearGradient id="Nueva_muestra_de_degradado_11-3" x1="1006.8" y1="753.96" x2="1792.09" y2="865.08" xlink:href="#Nueva_muestra_de_degradado_11"/><linearGradient id="Nueva_muestra_de_degradado_58" x1="1032.57" y1="1015.63" x2="1286.63" y2="1015.63" gradientUnits="userSpaceOnUse"><stop offset="0.01" stop-color="#00b287"/><stop offset="0.33" stop-color="#08ad9f"/><stop offset="1" stop-color="#1da1dc"/></linearGradient><linearGradient id="Nueva_muestra_de_degradado_58-2" x1="1038.75" y1="1012.54" x2="1286.63" y2="1012.54" xlink:href="#Nueva_muestra_de_degradado_58"/><linearGradient id="Nueva_muestra_de_degradado_58-3" x1="1032.57" y1="1865.53" x2="1229.75" y2="1865.53" xlink:href="#Nueva_muestra_de_degradado_58"/><linearGradient id="Nueva_muestra_de_degradado_58-4" x1="1242.68" y1="1942.61" x2="1286.63" y2="1942.61" xlink:href="#Nueva_muestra_de_degradado_58"/><linearGradient id="Nueva_muestra_de_degradado_58-5" x1="1038.75" y1="1862.44" x2="1229.75" y2="1862.44" xlink:href="#Nueva_muestra_de_degradado_58"/><linearGradient id="Nueva_muestra_de_degradado_58-6" x1="1248.86" y1="1939.51" x2="1286.63" y2="1939.51" xlink:href="#Nueva_muestra_de_degradado_58"/><linearGradient id="Nueva_muestra_de_degradado_58-7" x1="1032.57" y1="1809.53" x2="1229.75" y2="1809.53" xlink:href="#Nueva_muestra_de_degradado_58"/><linearGradient id="Nueva_muestra_de_degradado_58-8" x1="1242.68" y1="1886.61" x2="1286.63" y2="1886.61" xlink:href="#Nueva_muestra_de_degradado_58"/><linearGradient id="Nueva_muestra_de_degradado_58-9" x1="1038.75" y1="1806.44" x2="1229.75" y2="1806.44" xlink:href="#Nueva_muestra_de_degradado_58"/><linearGradient id="Nueva_muestra_de_degradado_58-10" x1="1248.86" y1="1883.51" x2="1286.63" y2="1883.51" xlink:href="#Nueva_muestra_de_degradado_58"/><linearGradient id="linear-gradient-12" x1="1556.16" y1="1810.47" x2="1496.55" y2="1834.14" gradientUnits="userSpaceOnUse"><stop offset="0" stop-color="#1da1dc"/><stop offset="1" stop-color="#39c2ec"/></linearGradient><linearGradient id="linear-gradient-13" x1="1468.11" y1="1586.26" x2="1412.07" y2="1608.51" gradientTransform="translate(660.63 -402.46) rotate(20.76)" gradientUnits="userSpaceOnUse"><stop offset="0" stop-color="#39c2ec"/><stop offset="1" stop-color="#90e5ff"/></linearGradient><linearGradient id="linear-gradient-14" x1="1449.07" y1="1563.01" x2="1391.65" y2="1584.93" gradientUnits="userSpaceOnUse"><stop offset="0" stop-color="#9aa8b1"/><stop offset="0.04" stop-color="#84919a"/><stop offset="0.08" stop-color="#737f89"/><stop offset="0.12" stop-color="#69747e"/><stop offset="0.17" stop-color="#66717b"/><stop offset="0.57" stop-color="#9aa8b1"/><stop offset="0.58" stop-color="#9facb5"/><stop offset="0.73" stop-color="#d0d8dc"/><stop offset="0.91" stop-color="#d0d8dc"/><stop offset="1" stop-color="#bec7ce"/></linearGradient><linearGradient id="linear-gradient-15" x1="1372.85" y1="1536.63" x2="1185.62" y2="1155.42" gradientUnits="userSpaceOnUse"><stop offset="0.05" stop-color="#66717b"/><stop offset="0.57" stop-color="#9aa8b1"/><stop offset="0.58" stop-color="#9facb5"/><stop offset="0.73" stop-color="#d0d8dc"/><stop offset="0.91" stop-color="#d0d8dc"/><stop offset="1" stop-color="#9aa8b1"/></linearGradient><linearGradient id="linear-gradient-16" x1="1506.86" y1="1514.62" x2="1286.33" y2="1065.63" xlink:href="#linear-gradient-14"/><radialGradient id="radial-gradient" cx="1409.27" cy="1264.17" r="300.48" gradientUnits="userSpaceOnUse"><stop offset="0.57" stop-opacity="0"/><stop offset="0.74" stop-color="#020203" stop-opacity="0.12"/><stop offset="0.89" stop-color="#080a0e" stop-opacity="0.51"/><stop offset="1" stop-color="#10141b"/></radialGradient><radialGradient id="radial-gradient-2" cx="999.52" cy="1510.98" r="609.55" gradientUnits="userSpaceOnUse"><stop offset="0" stop-color="#90e5ff"/><stop offset="0.18" stop-color="#9ae6fa" stop-opacity="0.8"/><stop offset="0.59" stop-color="#afe9f1" stop-opacity="0.37"/><stop offset="0.87" stop-color="#bdeaea" stop-opacity="0.1"/><stop offset="1" stop-color="#c2ebe8" stop-opacity="0"/></radialGradient><linearGradient id="linear-gradient-17" x1="1384.3" y1="1168.58" x2="1224.58" y2="1478.53" gradientUnits="userSpaceOnUse"><stop offset="0" stop-color="#66717b"/><stop offset="0.79" stop-color="#7f8b94"/><stop offset="1" stop-color="#87939c"/></linearGradient><radialGradient id="radial-gradient-3" cx="1194.93" cy="596.9" r="22.23" gradientTransform="translate(0 231.33) scale(1 1.61)" gradientUnits="userSpaceOnUse"><stop offset="0" stop-color="#fff" stop-opacity="0.4"/><stop offset="0.15" stop-color="#fff" stop-opacity="0.37"/><stop offset="0.37" stop-color="#fff" stop-opacity="0.29"/><stop offset="0.63" stop-color="#fff" stop-opacity="0.16"/><stop offset="0.87" stop-color="#fff" stop-opacity="0.02"/><stop offset="1" stop-color="#fff" stop-opacity="0"/></radialGradient><radialGradient id="radial-gradient-4" cx="1194.93" cy="1250.26" r="12.39" gradientUnits="userSpaceOnUse"><stop offset="0" stop-color="#fff" stop-opacity="0.4"/><stop offset="0.18" stop-color="#fff" stop-opacity="0.27"/><stop offset="0.4" stop-color="#fff" stop-opacity="0.15"/><stop offset="0.61" stop-color="#fff" stop-opacity="0.07"/><stop offset="0.81" stop-color="#fff" stop-opacity="0.02"/><stop offset="1" stop-color="#fff" stop-opacity="0"/></radialGradient><clipPath id="clip-path"><path class="cls-1" d="M1455.94,1468.27c-7.65,23.5-20.48,41.06-37.44,51.84h0c-3.49.27-7,.42-10.66.42-96,0-201.71-98.91-236.17-220.93-18.7-66.19-12.56-125.6,12.28-166.09,13-9.68,28.65-15.06,46.52-15.69,38-1.33,81.34,19,122,57.23s73.86,89.76,93.39,145.15S1469,1428.16,1455.94,1468.27Z"/></clipPath><linearGradient id="linear-gradient-18" x1="-6825.83" y1="-7563.11" x2="-6825.83" y2="-7641.35" gradientTransform="matrix(0.59, 0.34, 0, 0.68, 5334.55, 8926.86)" gradientUnits="userSpaceOnUse"><stop offset="0" stop-color="#a63c97" stop-opacity="0"/><stop offset="1" stop-color="#a63c97" stop-opacity="0.5"/></linearGradient><linearGradient id="linear-gradient-19" x1="-6827.83" y1="-7756.31" x2="-6827.83" y2="-7864.25" gradientTransform="matrix(0.59, 0.34, 0, 0.68, 5334.55, 8926.86)" gradientUnits="userSpaceOnUse"><stop offset="0" stop-color="#1da1dc" stop-opacity="0"/><stop offset="1" stop-color="#1da1dc" stop-opacity="0.5"/></linearGradient><radialGradient id="radial-gradient-5" cx="1477.88" cy="2138.46" r="76.2" gradientTransform="matrix(-0.41, 0.71, -0.41, -0.7, 3037.66, 2637.4)" gradientUnits="userSpaceOnUse"><stop offset="0" stop-color="#5d7586" stop-opacity="0.15"/><stop offset="0.64" stop-color="#5d7586" stop-opacity="0.07"/><stop offset="1" stop-color="#5d7586" stop-opacity="0"/></radialGradient></defs><g id="Plant"><g id="Plant2"><path class="cls-2" d="M764.46,1541.32c92.64,5.17,226.53-37.66,355.2-39.45,3.82-.06-9.16-19-5.34-19.06-267.56-71-334.72,23-349.16,54.08A9.11,9.11,0,0,0,764.46,1541.32Z"/><path class="cls-3" d="M1131.44,1513.09l-14.67-29.62-2.45-.66c-132.7.91-262.37,18-349.86,58.51a19.32,19.32,0,0,0,8.74,14.19C854.45,1603.62,1131.44,1513.09,1131.44,1513.09Z"/><path class="cls-4" d="M1131.64,1504.92c-216.08,74-695.43-298.49-638.54-768.18,42.77,127.78,103.25,280.65,205.78,395.84,151.71,170.43,321,308.93,433.52,340.88C1142.16,1488.92,1143.93,1500.72,1131.64,1504.92Z"/><path class="cls-5" d="M1132.4,1473.46c-112.55-32-281.81-170.45-433.52-340.88-102.53-115.19-163-268.06-205.78-395.84.12-1.08.26-2.17.39-3.26C499.78,683.7,784,992.72,993.35,1340.86,993.35,1340.86,1101.9,1425.09,1132.4,1473.46Z"/><path class="cls-6" d="M1157.65,1121.81c-67.1,42.08-168.76,100.64-168.76,100.64-408.55-417.2-196.19-840-147.72-923.3a19.57,19.57,0,0,1,13.63-9.47C905.07,443,958.39,816.68,1157.65,1121.81Z"/><path class="cls-7" d="M1238.74,1070.83c-15,2.72-62.18,30.38-111.57,61.36C927.91,827.06,875,460.27,854.8,289.68a19.54,19.54,0,0,1,11.86,1.68C1079.18,394.4,1379,1045.4,1238.74,1070.83Z"/><path class="cls-8" d="M1429.81,434.41c-54.64,134.45-199,329.65-286.59,516.56-2.6,5.55-18.67-13-21.24-7.42,84.87-387.31,251.62-486.52,301.62-508A13.52,13.52,0,0,1,1429.81,434.41Z"/><path class="cls-9" d="M1150,967.88l-28.79-20.78c.25-1.19.51-2.37.77-3.55,89.08-192.74,197.23-381.35,307.83-509.14a13.49,13.49,0,0,1,12.66,12.45C1451.23,564,1150,967.88,1150,967.88Z"/><path class="cls-10" d="M1132.4,1473.46c9.76,15.46,11.53,27.26-.76,31.46-1.21.42-2.43.8-3.65,1.18l3.45,7s-277,90.53-358.24,42.42a19.32,19.32,0,0,1-8.74-14.19,9.11,9.11,0,0,1,.7-4.43c9-19.3,38.26-62.86,123.23-76.11-211.67-113.47-435.15-394.88-395.29-724,.12-1.08.26-2.17.39-3.26C499.78,683.7,784,992.72,993.35,1340.86,993.35,1340.86,1101.9,1425.09,1132.4,1473.46Zm310.07-1026.6a13.53,13.53,0,0,0-18.87-11.36c-38.63,16.63-146.94,79.64-233.35,286C1106.43,539.43,975.17,344,866.66,291.36a19.59,19.59,0,0,0-25.49,7.79c-48.47,83.26-260.83,506.1,147.72,923.3,0,0,101.66-58.56,168.76-100.64l-3.93-6.07c38.94-23.77,72.76-42.69,85-44.91,52.32-9.49,43.38-106.08.57-228.79C1327.36,713.22,1448.06,521.63,1442.47,446.86Z"/></g></g><g id="vHost"><polygon class="cls-11" points="1351.82 2044.2 1800.52 2044.2 1800.52 1713.04 1349.76 1713.04 1351.82 2044.2"/><g class="cls-12"><path class="cls-13" d="M1362.17,1611.35c17.8,0,34.78,3.61,47.47,11l304.51,176.84c13.13,7.62,19.33,17.9,18.87,28.6-.45,12.15-9.5,24.87-26.71,34.86l-71.81,41.69-214.07,124.32c-17.69,10.28-40.36,15.55-61.84,15.55-17.79,0-34.76-3.61-47.44-11l-224.89-130.58-79.62-46.26c-12.7-7.37-18.93-17.22-18.93-27.57,0-12.47,9.07-25.62,26.77-35.88l285.87-166c17.69-10.27,40.35-15.53,61.82-15.53m0-25.66v0h0c-27.06,0-53.58,6.74-74.69,19l-285.89,166c-25.12,14.57-39.54,35.74-39.54,58.07,0,19.93,11.55,38.07,31.7,49.77l79.62,46.25,224.89,130.59c16.26,9.45,37.13,14.46,60.33,14.46,27.08,0,53.62-6.76,74.73-19l214.07-124.32,71.81-41.69c11.4-6.62,20.57-14.49,27.26-23.39,7.55-10,11.77-21.33,12.2-32.65.86-20.76-10.67-39.64-31.63-51.81l-304.5-176.83c-16.27-9.46-37.14-14.46-60.35-14.46Z"/></g><g class="cls-14"><path class="cls-15" d="M1362.17,1611.35c17.8,0,34.78,3.61,47.47,11l304.51,176.84c13.13,7.62,19.33,17.9,18.87,28.6-.45,12.15-9.5,24.87-26.71,34.86l-71.81,41.69-214.07,124.32c-17.69,10.28-40.36,15.55-61.84,15.55-17.79,0-34.76-3.61-47.44-11l-224.89-130.58-79.62-46.26c-12.7-7.37-18.93-17.22-18.93-27.57,0-12.47,9.07-25.62,26.77-35.88l285.87-166c17.69-10.27,40.35-15.53,61.82-15.53m0-14.67v0h0c-24.78,0-50,6.39-69.18,17.51l-285.88,166c-21.64,12.55-34.06,30.25-34.06,48.56,0,16.14,9.31,30.44,26.22,40.25l79.62,46.26,224.89,130.59c14.59,8.48,33.55,13,54.81,13,24.8,0,50-6.39,69.21-17.54L1641.86,1917l71.81-41.69c10.12-5.88,18.2-12.77,24-20.49,6.2-8.25,9.65-17.39,10-26.46.7-16.56-8.84-31.82-26.16-41.87L1417,1609.66c-14.6-8.49-33.56-13-54.83-13Z"/></g><path class="cls-16" d="M1733,1827.78c-.45,12.15-9.5,24.87-26.71,34.86l-71.81,41.69-214.07,124.32c-32.35,18.79-81.28,20.85-109.28,4.56l-224.89-130.58-79.62-46.26c-12.7-7.37-18.93-17.22-18.93-27.57,0-12.47,9.07-25.62,26.77-35.88l285.87-166c32.35-18.77,81.29-20.82,109.29-4.54l304.51,176.84C1727.28,1806.8,1733.48,1817.08,1733,1827.78Z"/><path class="cls-17" d="M1358.59,1191.51c-17.13,0-32.68-3.55-43.76-10l-224.89-130.59-79.62-46.25c-7-4-15.28-11-15.28-21.23s8.43-21,23.11-29.55l285.89-166c15.92-9.24,37.11-14.54,58.13-14.54,17.15,0,32.7,3.55,43.79,10l304.51,176.84c10.17,5.91,15.58,13.7,15.23,22-.38,10-8.79,20.54-23.07,28.83l-71.81,41.69L1416.75,1177C1400.82,1186.21,1379.63,1191.51,1358.59,1191.51Z"/><path class="cls-18" d="M1362.18,766v14.67c15.87,0,30.11,3.19,40.1,9l304.51,176.85c4.46,2.58,11.89,8,11.58,15.28v.08c-.28,7.33-7.54,15.83-19.42,22.73l-71.82,41.69-214.06,124.32c-14.84,8.63-34.7,13.57-54.48,13.57-15.86,0-30.09-3.2-40.08-9l-224.88-130.59L1014,998.33c-4.34-2.52-11.62-7.8-11.62-14.88,0-7.35,7.45-16.24,19.46-23.21l285.87-166c14.84-8.61,34.69-13.54,54.47-13.54V766m0,0c-21.47,0-44.13,5.27-61.82,15.53l-285.87,166c-17.7,10.26-26.77,23.41-26.77,35.89,0,10.34,6.23,20.19,18.93,27.57l79.62,46.25,224.89,130.59c12.68,7.37,29.65,11,47.44,11,21.48,0,44.15-5.28,61.84-15.56L1634.5,1059l71.81-41.69c17.21-10,26.26-22.71,26.71-34.86.46-10.69-5.74-21-18.87-28.6L1409.64,777c-12.69-7.38-29.67-11-47.47-11Z"/><path class="cls-19" d="M1362.18,766v7.33h0c17.14,0,32.69,3.55,43.78,10l304.51,176.85c10.17,5.9,15.58,13.69,15.23,22-.38,10-8.79,20.51-23.07,28.8l-71.81,41.69L1416.75,1177c-15.93,9.26-37.12,14.56-58.16,14.56-17.13,0-32.68-3.55-43.76-10l-224.89-130.59-79.62-46.26c-7-4-15.28-11-15.28-21.22s8.43-21,23.12-29.55l285.87-166c15.93-9.24,37.12-14.54,58.14-14.54V766m0,0c-21.47,0-44.13,5.27-61.82,15.53l-285.87,166c-17.7,10.26-26.77,23.41-26.77,35.89,0,10.34,6.23,20.19,18.93,27.57l79.62,46.25,224.89,130.59c12.68,7.37,29.65,11,47.44,11,21.48,0,44.15-5.28,61.84-15.56L1634.5,1059l71.81-41.69c17.21-10,26.26-22.71,26.71-34.86.46-10.69-5.74-21-18.87-28.6L1409.64,777c-12.69-7.38-29.67-11-47.47-11Z"/><path class="cls-20" d="M1733.08,983.84v842.89c0,12.48-9.08,25.63-26.77,35.92l-285.88,166c-32.35,18.8-81.28,20.82-109.28,4.57l-304.51-176.85c-13.13-7.61-19.33-17.87-18.88-28.59h0V984.87c0,10.34,744.86,11.12,745.31-1Z"/><path class="cls-17" d="M1358.59,1191.51c-17.13,0-32.68-3.55-43.76-10l-224.89-130.59-79.62-46.25c-7-4-15.28-11-15.28-21.23s8.43-21,23.11-29.55l285.89-166c15.92-9.24,37.11-14.54,58.13-14.54,17.15,0,32.7,3.55,43.79,10l304.51,176.84c10.17,5.91,15.58,13.7,15.23,22-.38,10-8.79,20.54-23.07,28.83l-71.81,41.69L1416.75,1177C1400.82,1186.21,1379.63,1191.51,1358.59,1191.51Z"/><path class="cls-18" d="M1362.18,766v14.67c15.87,0,30.11,3.19,40.1,9l304.51,176.85c4.46,2.58,11.89,8,11.58,15.28v.08c-.28,7.33-7.54,15.83-19.42,22.73l-71.82,41.69-214.06,124.32c-14.84,8.63-34.7,13.57-54.48,13.57-15.86,0-30.09-3.2-40.08-9l-224.88-130.59L1014,998.33c-4.34-2.52-11.62-7.8-11.62-14.88,0-7.35,7.45-16.24,19.46-23.21l285.87-166c14.84-8.61,34.69-13.54,54.47-13.54V766m0,0c-21.47,0-44.13,5.27-61.82,15.53l-285.87,166c-17.7,10.26-26.77,23.41-26.77,35.89,0,10.34,6.23,20.19,18.93,27.57l79.62,46.25,224.89,130.59c12.68,7.37,29.65,11,47.44,11,21.48,0,44.15-5.28,61.84-15.56L1634.5,1059l71.81-41.69c17.21-10,26.26-22.71,26.71-34.86.46-10.69-5.74-21-18.87-28.6L1409.64,777c-12.69-7.38-29.67-11-47.47-11Z"/><path class="cls-19" d="M1362.18,766v7.33h0c17.14,0,32.69,3.55,43.78,10l304.51,176.85c10.17,5.9,15.58,13.69,15.23,22-.38,10-8.79,20.51-23.07,28.8l-71.81,41.69L1416.75,1177c-15.93,9.26-37.12,14.56-58.16,14.56-17.13,0-32.68-3.55-43.76-10l-224.89-130.59-79.62-46.26c-7-4-15.28-11-15.28-21.22s8.43-21,23.12-29.55l285.87-166c15.93-9.24,37.12-14.54,58.14-14.54V766m0,0c-21.47,0-44.13,5.27-61.82,15.53l-285.87,166c-17.7,10.26-26.77,23.41-26.77,35.89,0,10.34,6.23,20.19,18.93,27.57l79.62,46.25,224.89,130.59c12.68,7.37,29.65,11,47.44,11,21.48,0,44.15-5.28,61.84-15.56L1634.5,1059l71.81-41.69c17.21-10,26.26-22.71,26.71-34.86.46-10.69-5.74-21-18.87-28.6L1409.64,777c-12.69-7.38-29.67-11-47.47-11Z"/><path class="cls-21" d="M1272.65,1617.37V1777c0,11-3.1,19.25-8.21,23.9-5.91,5.39-14.49,6-24,.46l-149.73-86.44c-17.8-10.28-32.23-37.85-32.23-61.59V1493.71c0-15.27,6-25.24,15-27.66,5-1.35,10.9-.37,17.25,3.29l149.73,86.45C1258.21,1566.07,1272.65,1593.64,1272.65,1617.37Z"/><path class="cls-22" d="M1272.65,1617.37V1777c0,11-3.1,19.25-8.21,23.9-5.91,5.39-14.49,6-24,.46l-149.73-86.44c-17.8-10.28-32.23-37.85-32.23-61.59V1493.71c0-15.27,6-25.24,15-27.66,5-1.35,10.9-.37,17.25,3.29l149.73,86.45C1258.21,1566.07,1272.65,1593.64,1272.65,1617.37Z"/><path class="cls-23" d="M1272.65,1617.37V1777c0,11-3.1,19.25-8.21,23.9-5,1.35-10.9.37-17.26-3.28l-149.73-86.46c-17.8-10.27-32.23-37.84-32.23-61.57V1490c0-11,3.1-19.24,8.21-23.9,5-1.35,10.9-.37,17.25,3.29l149.73,86.45C1258.21,1566.07,1272.65,1593.64,1272.65,1617.37Z"/><path class="cls-24" d="M1272.65,1617.37V1777c0,11-3.1,19.25-8.21,23.9-5.91,5.39-14.49,6-24,.46l-149.73-86.44c-17.8-10.28-32.23-37.85-32.23-61.59V1493.71c0-15.27,6-25.24,15-27.66,5-1.35,10.9-.37,17.25,3.29l149.73,86.45C1258.21,1566.07,1272.65,1593.64,1272.65,1617.37Z"/><g class="cls-25"><path class="cls-19" d="M1077.89,1465.47a25.89,25.89,0,0,1,12.79,3.87l149.73,86.45c17.8,10.28,32.24,37.85,32.24,61.58V1777c0,11-3.1,19.25-8.21,23.9a16.28,16.28,0,0,1-11.24,4.33,25.76,25.76,0,0,1-12.79-3.87l-149.73-86.44c-17.8-10.28-32.23-37.85-32.23-61.59V1493.71c0-15.27,6-25.24,15-27.66a17.09,17.09,0,0,1,4.46-.58m0-3.18h0a20.15,20.15,0,0,0-5.29.69c-10.85,2.91-17.33,14.4-17.33,30.73v159.58c0,12,3.48,25.24,9.8,37.32s14.9,21.76,24,27l149.73,86.44a28.76,28.76,0,0,0,14.38,4.3,19.5,19.5,0,0,0,13.38-5.16c6-5.43,9.25-14.75,9.25-26.25V1617.37c0-12-3.49-25.23-9.81-37.31s-14.9-21.76-24-27l-149.73-86.45a28.9,28.9,0,0,0-14.38-4.29Z"/></g><path id="VMwareIcon" class="cls-26" d="M1219.55,1594.86l-80.48-46.46c-3.8-2.2-6.34-.76-6.34,3.6v31.24l-27.25-15.73c-3.8-2.2-6.33-.76-6.33,3.6v92.26a13,13,0,0,0,6.33,10.92l80.48,46.47c3.81,2.19,6.34.75,6.34-3.61v-31.23l27.25,15.73c3.8,2.19,6.34.75,6.34-3.61v-92.26A13,13,0,0,0,1219.55,1594.86Zm-6.34,88.6L1186,1667.73c-3.8-2.2-6.33-.75-6.33,3.6v31.24l-67.81-39.15v-77.73l27.25,15.74c3.8,2.19,6.34.75,6.34-3.61v-31.24l67.8,39.15Zm-91.25-72.3v37.78a13,13,0,0,0,6.34,10.92l33,19c3.8,2.19,6.34.75,6.34-3.61v-30.51l26.61,15.37c3.8,2.19,6.34.75,6.34-3.61v-37.78a13,13,0,0,0-6.34-10.92l-33-19c-3.8-2.2-6.34-.76-6.34,3.6v30.51l-26.61-15.36C1124.49,1605.36,1122,1606.8,1122,1611.16Zm45.63-4.17,20.27,11.71V1642l-20.27-11.71Zm-33,18.75,20.28,11.71v23.25L1134.63,1649Z"/><path id="VMwareIcon-2" data-name="VMwareIcon" class="cls-27" d="M1217.79,1595.61l-80.48-46.46c-3.8-2.2-6.34-.75-6.34,3.61V1584l-27.25-15.73c-3.8-2.2-6.33-.75-6.33,3.61v92.25a13,13,0,0,0,6.33,10.93l80.48,46.46c3.81,2.2,6.34.76,6.34-3.6v-31.24l27.25,15.73c3.8,2.2,6.34.75,6.34-3.6v-92.26A13,13,0,0,0,1217.79,1595.61Zm-6.34,88.6-27.25-15.73c-3.8-2.19-6.33-.75-6.33,3.61v31.23l-67.81-39.14v-77.73l27.25,15.73c3.8,2.2,6.34.75,6.34-3.61v-31.23l67.8,39.15Zm-91.25-72.29v37.77a12.94,12.94,0,0,0,6.34,10.92l33,19c3.8,2.19,6.34.75,6.34-3.61v-30.51l26.61,15.37c3.8,2.19,6.34.75,6.34-3.61v-37.77a13,13,0,0,0-6.34-10.93l-33-19c-3.8-2.2-6.34-.75-6.34,3.61v30.51l-26.61-15.37C1122.73,1606.11,1120.2,1607.56,1120.2,1611.92Zm45.63-4.17,20.27,11.71v23.24L1165.83,1631Zm-33,18.75,20.28,11.7v23.25l-20.28-11.71Z"/><path class="cls-28" d="M1719.78,987.74l-310.89,179.5c-24.83,14.33-62.43,15.9-83.92,3.48L999.08,982.57c-12-6.9-16.45-16.71-13.75-26.51V804.28h754.23V955C1742.7,966,1735.91,978.42,1719.78,987.74Z"/><path class="cls-29" d="M1361.41,1017.22c-13.24,0-25.26-2.73-33.84-7.69L1001.71,821.4c-5.43-3.14-11.91-8.55-11.91-16.52s6.54-16.3,17.94-22.88l310.88-179.49c12.29-7.09,28.64-11.16,44.87-11.16,13.24,0,25.25,2.73,33.84,7.68l325.85,188.14c5.44,3.13,11.91,8.54,11.91,16.51s-6.54,16.31-17.93,22.89l-310.88,179.48C1394,1013.15,1377.63,1017.22,1361.41,1017.22Z"/><path class="cls-18" d="M1363.49,586.12v10.46c12.33,0,23.42,2.48,31.22,7L1720.57,791.7c3.47,2,9.29,6.22,9.29,12,0,6-5.73,12.82-15.32,18.36l-310.88,179.48c-11.52,6.65-26.92,10.47-42.25,10.47-12.33,0-23.42-2.48-31.22-7L1004.33,816.87c-3.47-2-9.29-6.23-9.29-12,0-6,5.72-12.81,15.31-18.35L1321.24,607c11.51-6.65,26.91-10.46,42.25-10.46V586.12m0,0c-16.5,0-33.9,4-47.48,11.86L1005.12,777.47c-24.84,14.34-27.54,36-6,48.46L1325,1014.06c9.75,5.63,22.8,8.39,36.46,8.39,16.49,0,33.89-4,47.48-11.87L1719.77,831.1c24.85-14.35,27.54-36,6-48.46L1399.94,594.5c-9.75-5.63-22.79-8.38-36.45-8.38Z"/><path class="cls-19" d="M1363.49,586.12v5.23c13.24,0,25.25,2.73,33.84,7.68l325.85,188.14c5.44,3.13,11.91,8.54,11.91,16.51s-6.53,16.31-17.93,22.89l-310.88,179.48c-12.29,7.1-28.65,11.17-44.87,11.17-13.24,0-25.26-2.73-33.84-7.69L1001.71,821.4c-5.43-3.14-11.91-8.55-11.91-16.52s6.54-16.3,17.94-22.88l310.88-179.49c12.29-7.09,28.64-11.16,44.87-11.16v-5.23m0,0c-16.5,0-33.9,4-47.48,11.86L1005.12,777.47c-24.84,14.34-27.54,36-6,48.46L1325,1014.06c9.75,5.63,22.8,8.39,36.46,8.39,16.49,0,33.89-4,47.48-11.87L1719.77,831.1c24.85-14.35,27.54-36,6-48.46L1399.94,594.5c-9.75-5.63-22.79-8.38-36.45-8.38Z"/><path class="cls-30" d="M1286.63,1089a15.86,15.86,0,0,1-.25,2.86c-.72,3.93-3,6.19-6,6.19a8.29,8.29,0,0,1-4.1-1.24L1042.9,962c-5.71-3.29-10.33-12.13-10.33-19.74,0-5.67,2.56-9,6.23-9h.2a8.31,8.31,0,0,1,3.9,1.23l233.4,134.75C1282,1072.53,1286.63,1081.37,1286.63,1089Z"/><path class="cls-31" d="M1286.63,1089a15.86,15.86,0,0,1-.25,2.86,8.31,8.31,0,0,1-3.9-1.23l-233.4-134.75c-5.7-3.3-10.33-12.14-10.33-19.74a15.86,15.86,0,0,1,.25-2.86,8.31,8.31,0,0,1,3.9,1.23l233.4,134.75C1282,1072.53,1286.63,1081.37,1286.63,1089Z"/><path class="cls-32" d="M1229.75,1922.46a14.9,14.9,0,0,1-.25,2.85c-.72,3.93-3,6.2-6,6.2a8.26,8.26,0,0,1-4.1-1.24L1042.9,1828.35c-5.71-3.29-10.33-12.13-10.33-19.74,0-5.66,2.56-9,6.23-9h.2a8.28,8.28,0,0,1,3.9,1.23l176.52,101.92C1225.12,1906,1229.75,1914.85,1229.75,1922.46Z"/><path class="cls-33" d="M1286.63,1955.3a14.9,14.9,0,0,1-.25,2.85c-.72,3.93-3,6.2-6,6.2a8.26,8.26,0,0,1-4.1-1.24L1253,1949.66c-5.71-3.29-10.33-12.13-10.33-19.74,0-5.67,2.56-9.05,6.23-9.05h.2a8.31,8.31,0,0,1,3.9,1.23l23.29,13.45C1282,1938.85,1286.63,1947.69,1286.63,1955.3Z"/><path class="cls-34" d="M1229.75,1922.46a14.9,14.9,0,0,1-.25,2.85,8.51,8.51,0,0,1-3.9-1.23l-176.52-101.91c-5.7-3.29-10.33-12.13-10.33-19.74a15.86,15.86,0,0,1,.25-2.86,8.28,8.28,0,0,1,3.9,1.23l176.52,101.92C1225.12,1906,1229.75,1914.85,1229.75,1922.46Z"/><path class="cls-35" d="M1286.63,1955.3a14.9,14.9,0,0,1-.25,2.85,8.51,8.51,0,0,1-3.9-1.23l-23.29-13.44c-5.7-3.3-10.33-12.14-10.33-19.74a15.86,15.86,0,0,1,.25-2.86,8.31,8.31,0,0,1,3.9,1.23l23.29,13.45C1282,1938.85,1286.63,1947.69,1286.63,1955.3Z"/><path class="cls-36" d="M1229.75,1866.46a14.9,14.9,0,0,1-.25,2.85c-.72,3.93-3,6.2-6,6.2a8.26,8.26,0,0,1-4.1-1.24L1042.9,1772.35c-5.71-3.29-10.33-12.13-10.33-19.74,0-5.66,2.56-9,6.23-9h.2a8.28,8.28,0,0,1,3.9,1.23l176.52,101.92C1225.12,1850,1229.75,1858.85,1229.75,1866.46Z"/><path class="cls-37" d="M1286.63,1899.3a14.9,14.9,0,0,1-.25,2.85c-.72,3.93-3,6.2-6,6.2a8.26,8.26,0,0,1-4.1-1.24L1253,1893.66c-5.71-3.29-10.33-12.13-10.33-19.74,0-5.67,2.56-9.05,6.23-9.05h.2a8.31,8.31,0,0,1,3.9,1.23l23.29,13.45C1282,1882.85,1286.63,1891.69,1286.63,1899.3Z"/><path class="cls-38" d="M1229.75,1866.46a14.9,14.9,0,0,1-.25,2.85,8.51,8.51,0,0,1-3.9-1.23l-176.52-101.91c-5.7-3.29-10.33-12.13-10.33-19.74a15.86,15.86,0,0,1,.25-2.86,8.28,8.28,0,0,1,3.9,1.23l176.52,101.92C1225.12,1850,1229.75,1858.85,1229.75,1866.46Z"/><path class="cls-39" d="M1286.63,1899.3a14.9,14.9,0,0,1-.25,2.85,8.51,8.51,0,0,1-3.9-1.23l-23.29-13.44c-5.7-3.3-10.33-12.14-10.33-19.74a15.86,15.86,0,0,1,.25-2.86,8.31,8.31,0,0,1,3.9,1.23l23.29,13.45C1282,1882.85,1286.63,1891.69,1286.63,1899.3Z"/></g><g id="MGlass"><g id="MGlass-2" data-name="MGlass"><path class="cls-40" d="M1481.7,1581.79l163.79,432c2.21,5.85-2.85,14.37-15.19,23.38-20.9,15.26-54.72,26.16-75.56,24.33-8.52-.74-13.55-3.5-15.09-7.55l-163.79-432C1377.4,1626,1483.91,1587.64,1481.7,1581.79Z"/><ellipse class="cls-41" cx="1428.78" cy="1601.87" rx="56.6" ry="20.63" transform="translate(-475.06 610.51) rotate(-20.76)"/><path class="cls-42" d="M1435.05,1527.35l22.93,60.49c1.3,3.44-1.68,8.45-9,13.76-12.29,9-32.2,15.39-44.47,14.32-5-.44-8-2.06-8.88-4.45L1372.75,1551C1373.65,1553.37,1436.35,1530.79,1435.05,1527.35Z"/><path class="cls-43" d="M1192.11,1128.19l49.78-28.13c-18.65,10.53-32.68,28.84-40.84,53.88-13.06,40.09-9.49,92.68,10,148.07s52.7,106.92,93.39,145.15,84,58.54,122,57.22a83,83,0,0,0,38.35-10.36l-49.78,28.13a83,83,0,0,1-38.35,10.36c-38,1.32-81.36-19-122-57.22s-73.85-89.77-93.39-145.16-23.11-108-10-148.06C1159.43,1157,1173.46,1138.72,1192.11,1128.19Z"/><path class="cls-44" d="M1521.2,1291.18c-47.64-135-161.39-241.91-254.07-238.67-17,.59-32.05,4.83-45.09,12.2l-49.78,28.13c13-7.37,28.12-11.61,45.09-12.2,92.67-3.24,206.42,103.62,254.06,238.67,38.92,110.32,21.69,205.33-36.46,238.19l49.78-28.13C1542.88,1496.51,1560.11,1401.5,1521.2,1291.18Z"/><path class="cls-45" d="M1469.22,1479.29c-7.66,23.51-31.23,39.5-50.72,40.82-3.48.27-7,.42-10.65.42-96,0-201.72-98.91-236.18-220.93-18.7-66.19-12.57-125.6,12.28-166.09,8-13.45,24.24-31.49,42.11-32.12,38-1.34,97.57,26.83,138.27,65.06s79.81,98.8,99.34,154.18S1482.27,1439.2,1469.22,1479.29Z"/><path class="cls-46" d="M1469.22,1479.29c-7.66,23.51-31.23,39.5-50.72,40.82-3.48.27-7,.42-10.65.42-96,0-201.72-98.91-236.18-220.93-18.7-66.19-12.57-125.6,12.28-166.09,8-13.45,24.24-31.49,42.11-32.12,38-1.34,97.57,26.83,138.27,65.06s79.81,98.8,99.34,154.18S1482.27,1439.2,1469.22,1479.29Z"/><path class="cls-47" d="M1469.22,1479.29c-7.66,23.51-31.23,39.5-50.72,40.82-3.48.27-7,.42-10.65.42-96,0-201.72-98.91-236.18-220.93-18.7-66.19-12.57-125.6,12.28-166.09,8-13.45,24.24-31.49,42.11-32.12,38-1.34,97.57,26.83,138.27,65.06s79.81,98.8,99.34,154.18S1482.27,1439.2,1469.22,1479.29Z"/><path class="cls-48" d="M1469.22,1479.29c-7.66,23.51-31.23,39.5-50.72,40.82-3.48.27-7,.42-10.65.42-96,0-201.72-98.91-236.18-220.93-18.7-66.19-12.57-125.6,12.28-166.09,8-13.45,24.24-31.49,42.11-32.12,38-1.34,97.57,26.83,138.27,65.06s79.81,98.8,99.34,154.18S1482.27,1439.2,1469.22,1479.29Z"/><path class="cls-46" d="M1469.22,1479.29c-7.66,23.51-31.23,39.5-50.72,40.82-3.48.27-7,.42-10.65.42-96,0-201.72-98.91-236.18-220.93-18.7-66.19-12.57-125.6,12.28-166.09,8-13.45,24.24-31.49,42.11-32.12,38-1.34,97.57,26.83,138.27,65.06s79.81,98.8,99.34,154.18S1482.27,1439.2,1469.22,1479.29Z"/><path class="cls-47" d="M1469.22,1479.29c-7.66,23.51-31.23,39.5-50.72,40.82-3.48.27-7,.42-10.65.42-96,0-201.72-98.91-236.18-220.93-18.7-66.19-12.57-125.6,12.28-166.09,8-13.45,24.24-31.49,42.11-32.12,38-1.34,97.57,26.83,138.27,65.06s79.81,98.8,99.34,154.18S1482.27,1439.2,1469.22,1479.29Z"/><path class="cls-49" d="M1217.35,1080.64c92.67-3.24,206.42,103.62,254.06,238.67s11.14,247.15-81.54,250.38S1183.44,1466.07,1135.8,1331,1124.66,1083.88,1217.35,1080.64Zm238.59,387.62c13.06-40.1,9.5-92.68-10-148.06s-52.71-106.94-93.4-145.16-84-58.54-122-57.21-66.14,24.14-79.2,64.24-9.49,92.68,10,148.06,52.7,106.93,93.39,145.16,84,58.54,122,57.22,66.12-24.14,79.18-64.25"/><g class="cls-50"><path class="cls-51" d="M1217.35,1080.64c92.67-3.24,206.42,103.62,254.06,238.67s11.14,247.15-81.54,250.38S1183.44,1466.07,1135.8,1331,1124.66,1083.88,1217.35,1080.64Zm238.59,387.62c13.06-40.1,9.5-92.68-10-148.06s-52.71-106.94-93.4-145.16-84-58.54-122-57.21-66.14,24.14-79.2,64.24-9.49,92.68,10,148.06,52.7,106.93,93.39,145.16,84,58.54,122,57.22,66.12-24.14,79.18-64.25"/></g><g class="cls-52"><path class="cls-53" d="M1217.35,1080.64c92.67-3.24,206.42,103.62,254.06,238.67s11.14,247.15-81.54,250.38S1183.44,1466.07,1135.8,1331,1124.66,1083.88,1217.35,1080.64Zm238.59,387.62c13.06-40.1,9.5-92.68-10-148.06s-52.71-106.94-93.4-145.16-84-58.54-122-57.21-66.14,24.14-79.2,64.24-9.49,92.68,10,148.06,52.7,106.93,93.39,145.16,84,58.54,122,57.22,66.12-24.14,79.18-64.25"/></g><ellipse class="cls-54" cx="1194.93" cy="1192.65" rx="22.23" ry="35.8"/><circle class="cls-55" cx="1194.93" cy="1250.26" r="12.39"/><g class="cls-56"><path class="cls-57" d="M1471.4,1547l-407.1-235a10.12,10.12,0,0,1-4.6-7.91V1189.73c0-2.89,2.07-4.07,4.6-2.61l407.1,235a10.14,10.14,0,0,1,4.59,7.91v114.32C1476,1547.28,1473.93,1548.45,1471.4,1547Z"/><path class="cls-58" d="M1459.85,1502.37c-16.15-8.27-67.79-44.52-82.63-58.38s-36.56-45.78-65.54-37.84-118.22-57-130.89-66.4-70.25-39.14-91.8-51.5v30.35L1460.32,1533Z"/><path class="cls-59" d="M1089,1288.25c21.55,12.36,79.13,42.11,91.8,51.5s101.91,74.34,130.89,66.4,50.71,24,65.54,37.84,66.48,50.11,82.63,58.38"/><path class="cls-60" d="M1094,1235.73l-12.7-7.33c-4.45-2.57-8.06-8.79-8.06-13.9h0c0-5.1,3.61-7.16,8.06-4.58l12.7,7.33c4.45,2.57,8.06,8.79,8.06,13.9h0C1102,1236.25,1098.41,1238.31,1094,1235.73Z"/><path class="cls-57" d="M1471.4,1410.91l-407.1-235a10.15,10.15,0,0,1-4.6-7.91V1053.64c0-2.89,2.07-4.07,4.6-2.61l407.1,235A10.11,10.11,0,0,1,1476,1294V1408.3C1476,1411.19,1473.93,1412.37,1471.4,1410.91Z"/><path class="cls-61" d="M1087.09,1148.93c25.57,24.13,74,54.71,126.28,84.88s76,40.07,94.53,36.61,25.68-24.1,44-5.13,14.36,37.59,107.92,97.76"/><path class="cls-62" d="M1459.85,1363.05c-93.56-60.17-89.57-78.8-107.92-97.76s-25.52,1.67-44,5.13-42.27-6.43-94.53-36.61-100.71-60.75-126.28-84.88v37.21l372.76,215.21Z"/><path class="cls-60" d="M1108.15,1106.63l-26.89-15.53c-4.45-2.57-8.06-8.79-8.06-13.89h0c0-5.11,3.61-7.16,8.06-4.59l26.89,15.53c4.45,2.57,8.06,8.79,8.06,13.89h0C1116.21,1107.15,1112.6,1109.2,1108.15,1106.63Z"/></g><ellipse class="cls-63" cx="1558.45" cy="2188.59" rx="44.02" ry="76.25" transform="translate(-639.9 3733.24) rotate(-89.64)"/></g></g></svg>