<?xml version="1.0" encoding="UTF-8"?>
<svg width="24px" height="24px" viewBox="0 0 24 24" version="1.1" xmlns="http://www.w3.org/2000/svg" xmlns:xlink="http://www.w3.org/1999/xlink">
    <title>Icons/Full Set/Blueprint/Blueprint</title>
    <g id="Icons/Full-Set/Blueprint/Blueprint" stroke="none" stroke-width="1" fill="none" fill-rule="evenodd">
        <path d="M21.2,1.6 C21.9,1.6 22.4,2.2 22.4,2.9 L22.4,2.9 L22.4,11.8 C22.4,12.4 21.9,13 21.2,13 L21.2,13 L13.1,13 L13.1,21.1 C13.1,21.7 12.5,22.3 11.8,22.3 L11.8,22.3 L2.9,22.3 C2.3,22.3 1.7,21.8 1.7,21.1 L1.7,21.1 L1.7,12.2 C1.7,11.6 2.2,11 2.9,11 L2.9,11 L11.1,11 L11.1,2.8 C11.1,2.2 11.6,1.6 12.3,1.6 L12.3,1.6 Z M11,13 L3.6,13 L3.6,20.4 L11,20.4 L11,13 Z M5.5,14.8 L9.3,18.6 C9.3,18.7 9.3,18.7 9.2,18.7 L9.2,18.7 L5.5,18.7 C5.4,18.7 5.4,18.6 5.4,18.6 L5.4,18.6 L5.4,14.9 C5.4,14.8 5.4,14.8 5.5,14.8 L5.5,14.8 Z M20.4,3.6 L13,3.6 L13,11 L20.4,11 L20.4,3.6 Z M18.6421296,5.30046296 C18.7,5.30277778 18.7,5.31666667 18.7,5.4 L18.7,9.1 C18.7,9.2 18.6,9.2 18.6,9.2 L18.6,9.2 L14.8,5.4 C14.8,5.3 14.8,5.3 14.9,5.3 Z" id="Combined-Shape" fill="#273637"></path>
    </g>
</svg>
