<svg width="24" height="24" fill="none" xmlns="http://www.w3.org/2000/svg">
  <path fill-rule="evenodd" clip-rule="evenodd" d="M14 3l-.5.4c-.6.6-1 1.5-1 2.4 0 .7.2 1.4.6 1.9l-4.8 3.4c-.6-.3-1.2-.5-1.9-.5-1.1 0-2.1.4-2.9 1.2l-.4.4 3.4 3.4L3 20l.6.7 4.7-3.4 3.5 3.4.4-.4c.8-.8 1.2-1.8 1.2-2.9 0-.7-.2-1.3-.5-1.9l3.4-4.8c.6.4 1.2.6 1.9.6.9 0 1.7-.3 2.4-1l.5-.4L14 3zm.6 4.3c-.8-.8-.7-1.8-.4-2.2l4.5 4.6c-.8.5-1.7 0-2.4-.7l-1.7-1.7zm-4.8 4.9L14 8.9l.9.9-3.3 4.3c-1.2-1.2-1.8-1.9-1.8-1.9zm-4.2.3c.9-.7 2.1-.3 2.9.6l2.7 2.7c.7.7 1 1.8.3 2.6l-5.9-5.9z" fill="#273637"/>
</svg>
