<svg width="24" height="24" viewBox="0 0 24 24" fill="none" xmlns="http://www.w3.org/2000/svg">
<g clip-path="url(#clip0_13_150)">
<path fill-rule="evenodd" clip-rule="evenodd" d="M7.171 4.21325L7.10029 4.84965C7.10029 5.69817 7.45384 6.61741 8.09024 7.25381C8.58521 7.74878 9.22161 8.10234 9.858 8.17305L8.86805 13.9713C8.23166 14.1835 7.66597 14.4663 7.171 14.9613C6.39318 15.7391 5.96892 16.729 5.96892 17.8604L5.96892 18.4261L10.7772 18.4261L11.4136 24.0122L12.3329 24.083L13.2521 18.3554L18.1312 18.2847L18.1312 17.719C18.1312 16.5876 17.7069 15.5977 16.9291 14.8199C16.4341 14.3249 15.8684 14.042 15.232 13.8299L14.2421 8.03163C14.9492 7.89021 15.5149 7.60736 16.0098 7.11239C16.6462 6.47599 16.9998 5.69817 16.9998 4.70822L17.0705 4.07183L7.171 4.21325ZM10.6358 6.82955C9.50445 6.82955 8.86805 6.05173 8.79734 5.55675L15.232 5.62746C15.0199 6.5467 14.0299 6.82955 13.04 6.82955L10.6358 6.82955ZM10.7065 13.6885L11.3429 8.38518L12.6157 8.38518L13.3228 13.7592C11.6258 13.7592 10.7065 13.6885 10.7065 13.6885ZM7.94881 16.8705C8.09024 15.7391 9.22161 15.1734 10.4237 15.2441H14.2421C15.232 15.2441 16.222 15.8098 16.2927 16.8705L7.94881 16.8705Z" fill="#273637"/>
</g>
<defs>
<clipPath id="clip0_13_150">
<rect width="24" height="24" fill="white"/>
</clipPath>
</defs>
</svg>
