<svg width="24" height="24" viewBox="0 0 24 24" fill="none" xmlns="http://www.w3.org/2000/svg">
<path d="M8 3H18.91C19.4635 3.00263 19.9936 3.22367 20.3849 3.61505C20.7763 4.00643 20.9974 4.53651 21 5.09V16C21 16.2652 20.8946 16.5196 20.7071 16.7071C20.5196 16.8946 20.2652 17 20 17H19V5.09C19 5.06613 18.9905 5.04324 18.9736 5.02636C18.9568 5.00948 18.9339 5 18.91 5H7V4C7 3.73478 7.10536 3.48043 7.29289 3.29289C7.48043 3.10536 7.73478 3 8 3Z" fill="#273637"/>
<path d="M6.94 12.17C7.35422 12.17 7.69 11.8342 7.69 11.42C7.69 11.0058 7.35422 10.67 6.94 10.67C6.52579 10.67 6.19 11.0058 6.19 11.42C6.19 11.8342 6.52579 12.17 6.94 12.17Z" fill="#273637"/>
<path fill-rule="evenodd" clip-rule="evenodd" d="M15 7H5C4.46957 7 3.96086 7.21071 3.58579 7.58579C3.21071 7.96086 3 8.46957 3 9V19C3 19.5304 3.21071 20.0391 3.58579 20.4142C3.96086 20.7893 4.46957 21 5 21H15C15.5304 21 16.0391 20.7893 16.4142 20.4142C16.7893 20.0391 17 19.5304 17 19V9C17 8.46957 16.7893 7.96086 16.4142 7.58579C16.0391 7.21071 15.5304 7 15 7ZM5 19V9H8.88V19H5ZM10.13 19V9H11.88V19H10.13ZM13.13 19V9H15V19H13.13Z" fill="#273637"/>
</svg>
