<?xml version="1.0" encoding="UTF-8"?>
<svg width="24px" height="24px" viewBox="0 0 24 24" version="1.1" xmlns="http://www.w3.org/2000/svg" xmlns:xlink="http://www.w3.org/1999/xlink">
    <g stroke="none" stroke-width="1" fill="none" fill-rule="evenodd">
        <path d="M20.5 2h-17C2.7 2 2 2.7 2 3.5v17c0 .8.7 1.5 1.5 1.5h17c.8 0 1.5-.7 1.5-1.5v-17c0-.8-.6-1.5-1.5-1.5zM15 4v16h-3.7V4H15zM4 4h5.9v16H4V4zm16 16.1h-3.5V4H20v16.1z" fill="#273637" />
        <path d="M6.9 6.3c-.5 0-.9.4-.9.9 0 .4.4.8.9.8s.9-.4.9-.9c-.1-.4-.4-.8-.9-.8zM13.1 8c.5 0 .9-.4.9-.8 0-.5-.4-.9-.9-.9s-.9.4-.9.9c.1.4.5.8.9.8zM18.1 8c.5 0 .9-.4.9-.8 0-.5-.4-.9-.9-.9s-.9.4-.9.9c.1.4.4.8.9.8zM13.2 10.3c-.4 0-.8.3-.8.8V17c0 .4.3.8.8.8s.8-.3.8-.8v-5.9c-.1-.4-.4-.8-.8-.8zM18.1 10.3c-.4 0-.8.3-.8.8V17c0 .4.3.8.8.8s.8-.3.8-.8v-5.9c0-.4-.4-.8-.8-.8z" fill="#273637" />
    </g>
</svg>
