<?xml version="1.0" encoding="UTF-8"?>
<svg width="24px" height="24px" viewBox="0 0 24 24" version="1.1" xmlns="http://www.w3.org/2000/svg" xmlns:xlink="http://www.w3.org/1999/xlink">
    <title>Icons/Full Set/Archive/Local Archival Location</title>
    <g id="Icons/Full-Set/Archive/Local-Archival-Location" stroke="none" stroke-width="1" fill="none" fill-rule="evenodd">
        <g id="Group-7" transform="translate(3.000000, 3.000000)" fill="#273637">
            <path d="M11.8808,4.8129 L6.1188,4.8129 C5.7768,4.8129 5.4998,4.5359 5.4998,4.1939 L5.4998,4.1819 C5.4998,3.8399 5.7768,3.5629 6.1188,3.5629 L11.8808,3.5629 C12.2228,3.5629 12.4998,3.8399 12.4998,4.1819 L12.4998,4.1939 C12.4998,4.5359 12.2228,4.8129 11.8808,4.8129" id="Fill-1"></path>
            <path d="M11.8808,7.5314 L6.1188,7.5314 C5.7768,7.5314 5.4998,7.2544 5.4998,6.9124 L5.4998,6.9004 C5.4998,6.5584 5.7768,6.2814 6.1188,6.2814 L11.8808,6.2814 C12.2228,6.2814 12.4998,6.5584 12.4998,6.9004 L12.4998,6.9124 C12.4998,7.2544 12.2228,7.5314 11.8808,7.5314" id="Fill-3"></path>
            <path d="M16,16.11 L2,16.11 L2,11 L5.1,11 C5.49,12.83 6.96,14 9,14 C11.04,14 12.51,12.83 12.9,11 L16,11 L16,16.11 Z M14.01,8.99 L13.62,8.99 L13.62,9 L12,9 C11.45,9 11,9.45 11,10 C11,10.41 10.93,10.74 10.8,11 C10.4,11.88 9.46,12 9,12 C8.54,12 7.6,11.88 7.2,11 C7.07,10.74 7,10.41 7,10 C7,9.45 6.55,9 6,9 L4.58,9 L4.58,8.99 L4,8.99 L4,2 L13.991,2 L14,2.047 L14.01,8.99 Z M17.99,10.11 C18,10 18,9.89 17.98,9.78 L17.97,9.77 L17.93,9.68 L17.93,9.67 L17.61,9 L17.61,8.99 L16.68,7 L16.68,6.99 L16,5.513 L16,2 C16,0.9 15.11,0 14,0 L4,0 C2.9,0 2,0.9 2,2 L2,5.48 L1.3,7 L0.37,9 L0.05,9.68 L0.05,9.69 L0,9.79 L0.02,9.79 C0,9.9 0,10.01 0.01,10.11 C0.01,10.13 0,10.15 0,10.17 L0,16.61 C0,17.44 0.67,18.11 1.5,18.11 L16.5,18.11 C17.33,18.11 18,17.44 18,16.61 L18,10.17 C18,10.15 17.99,10.13 17.99,10.11 L17.99,10.11 Z" id="Fill-5"></path>
        </g>
    </g>
</svg>