<?xml version="1.0" encoding="UTF-8"?>
<svg width="24px" height="24px" viewBox="0 0 24 24" version="1.1" xmlns="http://www.w3.org/2000/svg" xmlns:xlink="http://www.w3.org/1999/xlink">
    <title>Icons/Large Set/Certificate Thin Version</title>
    <g id="Icons/Large-Set/Certificate-Thin-Version" stroke="none" stroke-width="1" fill="none" fill-rule="evenodd">
        <path d="M19,2 C19.6895,2 20.25,2.5605 20.25,3.25 L20.25,3.25 L20.25,20.75 C20.25,21.4395 19.6895,22 19,22 L19,22 L5,22 C4.3105,22 3.75,21.4395 3.75,20.75 L3.75,20.75 L3.75,7.665 C3.75,7.4535 3.8195,7.2425 3.9455,7.0715 L3.9455,7.0715 L7.253,2.607 C7.535,2.227 7.9855,2 8.4585,2 L8.4585,2 Z M19,3 L8.9585,3 L8.9585,6.665 C8.9585,7.492 8.2855,8.165 7.4585,8.165 L7.4585,8.165 L4.75,8.165 L4.75,20.75 C4.75,20.8875 4.8625,21 5,21 L5,21 L19,21 C19.1375,21 19.25,20.8875 19.25,20.75 L19.25,20.75 L19.25,3.25 C19.25,3.1125 19.1375,3 19,3 L19,3 Z M12.27275,7.7786 C14.20625,7.7786 15.77275,9.3456 15.77275,11.2786 C15.77275,12.2066 15.40925,13.0476 14.82025,13.6736 L14.82025,13.6736 L15.26975,17.7236 C15.29075,17.9126 15.20325,18.0971 15.04275,18.1996 C14.96075,18.2526 14.86675,18.2786 14.77275,18.2786 C14.68425,18.2786 14.59475,18.2551 14.51575,18.2076 L14.51575,18.2076 L12.27275,16.8616 L10.03025,18.2076 C9.86775,18.3051 9.66325,18.3026 9.50275,18.1996 C9.34275,18.0971 9.25475,17.9126 9.27575,17.7236 L9.27575,17.7236 L9.72625,13.6736 C9.13675,13.0476 8.77275,12.2066 8.77275,11.2786 C8.77275,9.3456 10.33975,7.7786 12.27275,7.7786 Z M13.89225,14.3801 C13.40775,14.6331 12.85725,14.7786 12.27275,14.7786 C11.68825,14.7786 11.13825,14.6331 10.65375,14.3801 L10.65375,14.3801 L10.38125,16.8306 L12.01575,15.8501 C12.17375,15.7556 12.37225,15.7556 12.53025,15.8501 L12.53025,15.8501 L14.16475,16.8306 Z M12.27275,8.7786 C10.89475,8.7786 9.77275,9.9001 9.77275,11.2786 C9.77275,12.6571 10.89475,13.7786 12.27275,13.7786 C13.65125,13.7786 14.77275,12.6571 14.77275,11.2786 C14.77275,9.9001 13.65125,8.7786 12.27275,8.7786 Z M7.9585,3.335 L5.1205,7.165 L7.4585,7.165 C7.7345,7.165 7.9585,6.941 7.9585,6.665 L7.9585,6.665 L7.9585,3.335 Z" id="Combined-Shape" fill="#273637"></path>
    </g>
</svg>