<?xml version="1.0" encoding="UTF-8"?>
<svg width="24px" height="24px" viewBox="0 0 24 24" version="1.1" xmlns="http://www.w3.org/2000/svg" xmlns:xlink="http://www.w3.org/1999/xlink">
    <title>Icons/Full Set/Policy/Certificate</title>
    <g id="Icons/Full-Set/Policy/Certificate" stroke="none" stroke-width="1" fill="none" fill-rule="evenodd">
        <path d="M16.5714286,14 C18.5714286,14 20.2857143,15.6363636 20.2857143,17.5454545 C20.2857143,18.2272727 20,19.0454545 19.5714286,19.5909091 L19.5714286,19.5909091 L21,21.6363636 L18.4285714,21.6363636 L17.8571429,20.8181818 C17.5714286,20.8181818 17.1428571,20.9545455 16.7142857,20.9545455 L16.7142857,20.9545455 L16.4285714,20.9545455 L15.4285714,23 L13.1428571,23 L14.4285714,20.2727273 C13.5714286,19.5909091 13,18.6363636 13,17.5454545 C13,15.6363636 14.5714286,14 16.5714286,14 Z M18.5,2.9 C19.2529412,2.9 19.8287197,3.43148789 19.893853,4.16098107 L19.9,4.3 L19.9001224,14.0859927 C19.3427799,13.5628564 18.6591438,13.172695 17.8998562,12.9661508 L17.9,4.9 L9,4.9 L9,7.6 C9,8.25625 8.56054687,8.73671875 7.92883301,8.79421387 L7.8,8.8 L6,8.8 L6,18.4 L11.9759886,18.4008363 C12.1099518,19.1416045 12.4156938,19.8226038 12.8504733,20.401093 L5.4,20.4 C4.64705882,20.4 4.07128028,19.8685121 4.00614696,19.1390189 L4,19 L4,8.3 C4,8.14 4.064,7.916 4.1408,7.7304 L4.2,7.6 L6.5,3.6 C6.68181818,3.23636364 7.11157025,2.9553719 7.56386176,2.90728775 L7.7,2.9 L18.5,2.9 Z M16.5,16 C15.6818182,16 15,16.6818182 15,17.5 C15,18.3181818 15.6818182,19 16.5,19 C17.3181818,19 18,18.3181818 18,17.5 C18,16.6818182 17.3181818,16 16.5,16 Z M12.1,14.6 C12.3669078,14.6 12.5942379,14.6791553 12.7643844,14.8198599 C12.3931053,15.3450579 12.127616,15.9476973 11.9952783,16.5987148 L8.6,16.6 C8,16.6 7.6,16.2 7.6,15.6 C7.6,15.0428571 7.94489796,14.6581633 8.47456268,14.6060496 L8.6,14.6 L12.1,14.6 Z M15.5,10.7 C16.1,10.7 16.5,11.1 16.5,11.7 C16.5,12.1642857 16.155102,12.6285714 15.6254373,12.6925292 L15.5,12.7 L8.6,12.7 C8,12.7 7.6,12.3 7.6,11.7 C7.6,11.1428571 7.94489796,10.7581633 8.47456268,10.7060496 L8.6,10.7 L15.5,10.7 Z M15.6,6.8 C16.1,6.8 16.6,7.2 16.6,7.8 C16.6,8.35714286 16.255102,8.74183673 15.7254373,8.79395044 L15.6,8.8 L12.1,8.8 C11.5,8.8 11.1,8.4 11.1,7.8 C11.1,7.24285714 11.444898,6.85816327 11.9745627,6.80604956 L12.1,6.8 L15.6,6.8 Z" id="Combined-Shape" fill="#273637"></path>
    </g>
</svg>
