<?xml version="1.0" encoding="UTF-8"?>
<svg width="24px" height="24px" viewBox="0 0 24 24" version="1.1" xmlns="http://www.w3.org/2000/svg" xmlns:xlink="http://www.w3.org/1999/xlink">
    <title>Icons/Full Set/Policy/Certificate Signing Request</title>
    <g id="Icons/Full-Set/Policy/Certificate-Signing-Request" stroke="none" stroke-width="1" fill="none" fill-rule="evenodd">
        <path d="M16.5714286,14 C18.5714286,14 20.2857143,15.6363636 20.2857143,17.5454545 C20.2857143,18.1590909 20.0542857,18.8831818 19.6955714,19.4195 L19.5714286,19.5909091 L21,21.6363636 L18.4285714,21.6363636 L17.8571428,20.8181818 C17.6190476,20.8181818 17.281746,20.9128788 16.92791,20.9444444 L16.7142857,20.9545455 L16.4285714,20.9545455 L15.4285714,23 L13.1428571,23 L14.4285714,20.2727273 C13.5714286,19.5909091 13,18.6363636 13,17.5454545 C13,15.6363636 14.5714286,14 16.5714286,14 Z M16.0532066,2.89997267 C15.3418904,3.66399862 14.7308739,4.33101222 14.2201572,4.90101347 L8.99999999,4.9 L8.99999999,7.6 C8.99999999,8.25625 8.56054686,8.73671875 7.928833,8.79421387 L7.79999999,8.8 L5.99999999,8.8 L5.99999999,18.4 L11.9759885,18.4008363 C12.1099517,19.1416045 12.4156938,19.8226038 12.8504733,20.401093 L5.39999999,20.4 C4.64705881,20.4 4.07128026,19.8685121 4.00614695,19.1390189 L3.99999999,19 L3.99999999,8.3 C3.99999999,8.14 4.06399999,7.916 4.14079999,7.7304 L4.19999999,7.6 L6.49999999,3.6 C6.68181817,3.23636364 7.11157024,2.9553719 7.56386175,2.90728775 L7.69999999,2.9 L16.0532066,2.89997267 Z M16.5,16 C15.6818182,16 15,16.6818182 15,17.5 C15,18.3181818 15.6818182,19 16.5,19 C17.3181818,19 18,18.3181818 18,17.5 C18,16.6818182 17.3181818,16 16.5,16 Z M9.39919958,13.1622771 L10.5,14.2629625 C10.1292915,14.5235684 9.73215773,14.7322041 9.31300293,14.8866045 C9.20730193,14.9198252 9.11091268,14.9777096 9.03201444,15.0554761 C8.91423332,15.1868487 8.71264642,15.1986772 8.58039433,15.0817758 C8.46361989,14.9496483 8.47544834,14.7480594 8.60681958,14.6302771 C8.68458532,14.5512522 8.74234336,14.4548621 8.77556368,14.34916 C8.92996264,13.9301269 9.13859628,13.5328634 9.39567621,13.1676881 C9.39693456,13.1658005 9.39794123,13.1640388 9.39919958,13.1622771 Z M19.8989897,7.20071424 L19.9001224,14.0859927 C19.3427799,13.5628564 18.6591438,13.172695 17.8998562,12.9661508 L17.9005154,9.43656941 C18.1693067,9.139815 18.4292775,8.85307242 18.6804277,8.57634167 C19.0787198,8.1374821 19.4849072,7.67893963 19.8989897,7.20071424 Z M20.6276448,2.10518684 C20.7172501,2.19868625 20.8381388,2.32464507 20.9903109,2.48306329 C21.1056856,2.60327682 21.1221677,2.78753424 21.0397572,2.92604603 L20.9903109,2.9909815 L20.1685812,3.84737897 C20.2888822,4.26792218 20.1658777,4.5821812 19.9960066,4.98863826 C19.872689,5.32285917 17.6386407,7.75365831 15.487496,9.97255877 C13.5689408,11.9515436 11.6556468,13.7137714 11.5481858,13.8115794 L11.5434841,13.8158002 L9.99999999,12.1752318 C10.0684687,12.0881529 10.1944783,11.9250461 10.3677502,11.7020556 L10.66182,11.3246748 C11.4246964,10.3487402 12.7035811,8.73810995 14.0577856,7.18495475 L14.4896999,6.6946406 C15.7176669,5.31553555 16.9688423,4.04218974 17.9225302,3.37830619 C18.4136243,3.03644454 18.9373082,2.88708669 19.2358809,2.93972382 L19.3184417,2.96158431 L20.1403673,2.10518684 C20.2749711,1.96493772 20.493237,1.96493772 20.6276448,2.10518684 Z" id="Combined-Shape" fill="#273637"></path>
    </g>
</svg>
