<?xml version="1.0" encoding="UTF-8"?>
<svg width="24px" height="24px" viewBox="0 0 24 24" version="1.1" xmlns="http://www.w3.org/2000/svg" xmlns:xlink="http://www.w3.org/1999/xlink">
    <title>Icons/Full Set/Policy/Object Details</title>
    <g id="Icons/Full-Set/Policy/Object-Details" stroke="none" stroke-width="1" fill="none" fill-rule="evenodd">
        <path d="M19.4,11.7 C20,11.7 20.5,12.2 20.4,12.7 L20.4,12.7 L20.4,19.9 C20.4,20.4 20,20.9 19.4,20.9 L19.4,20.9 L12.2,20.9 C11.7,20.9 11.2,20.5 11.2,19.9 L11.2,19.9 L11.2,12.7 C11.2,12.2 11.6,11.7 12.2,11.7 L12.2,11.7 Z M15.3,3 C16.1,3 16.7,3.7 16.7,4.4 L16.7,4.4 L16.7,10.7 L14.7,10.7 L14.7,5 L8.1,5 L8.1,7.4 C8.1,8 7.6,8.5 7,8.5 L7,8.5 L5.5,8.5 L5.5,15.6 L10.1,15.6 L10.1,17.6 L4.8,17.6 C4.1,17.6 3.5,17 3.5,16.3 L3.5,16.3 L3.5,7.6 C3.5,7.4 3.6,7.1 3.7,6.9 L3.7,6.9 L5.6,3.7 C5.8,3.3 6.3,3 6.7,3 L6.7,3 Z M9.3,12.4 C9.8,12.4 10.1,12.7 10.1,13.2 C10.1,13.7 9.7,14 9.3,14 L9.3,14 L7.7,14 C7.3,14 6.9,13.8 6.9,13.3 C6.9,12.8 7.3,12.5 7.7,12.5 L7.7,12.5 L7.7,12.4 Z M12.5,9.6 C13,9.6 13.3,10 13.3,10.4 C13.3,10.8 13,11.1 12.6,11.2 L12.6,11.2 L7.7,11.2 C7.2,11.2 6.9,10.9 6.9,10.4 C6.9,9.9 7.3,9.6 7.7,9.6 L7.7,9.6 Z M12.3,6.7 C12.8,6.7 13.1,7 13.1,7.5 C13.1,8 12.7,8.3 12.3,8.3 L12.3,8.3 L10.7,8.3 C10.2,8.3 9.9,8 9.9,7.5 C9.9,7 10.3,6.7 10.7,6.7 L10.7,6.7 Z" id="Combined-Shape" fill="#273637"></path>
    </g>
</svg>
