<?xml version="1.0" encoding="UTF-8"?><svg xmlns="http://www.w3.org/2000/svg" xmlns:xlink="http://www.w3.org/1999/xlink" viewBox="0 0 2500 2500"><defs><style>.cls-1{fill:#232488;}.cls-1,.cls-2,.cls-3,.cls-4,.Graphic_Style_10,.cls-5,.cls-6,.cls-7,.cls-8,.cls-9,.cls-10,.cls-11,.cls-12,.cls-13,.cls-14,.cls-15,.cls-16,.cls-17,.cls-18,.cls-19,.cls-20,.cls-21,.cls-22,.cls-23,.cls-24,.cls-25,.cls-26,.cls-27,.cls-28,.cls-29,.cls-30,.cls-31,.cls-32,.cls-33,.cls-34,.cls-35,.cls-36,.cls-37,.cls-38,.cls-39,.cls-40,.cls-41,.cls-42,.cls-43,.cls-44,.cls-45,.cls-46,.cls-47,.cls-48,.cls-49,.cls-50,.cls-51,.cls-52,.cls-53,.cls-54,.cls-55,.cls-56,.cls-57,.cls-58,.cls-59,.cls-60,.cls-61,.cls-62,.cls-63,.cls-64,.cls-65,.cls-66,.cls-67,.cls-68,.cls-69,.cls-70,.cls-71,.cls-72,.cls-73{stroke-width:0px;}.cls-74,.cls-75,.cls-76,.cls-77,.cls-78,.cls-79,.cls-80,.cls-81,.cls-82,.cls-22,.cls-83,.cls-84,.cls-85,.cls-86,.cls-87,.cls-88,.cls-89,.cls-90,.cls-91,.cls-92{fill:none;}.cls-74,.cls-75,.cls-76,.cls-77,.cls-78,.cls-79,.cls-83,.cls-87,.cls-88,.cls-93,.cls-90,.cls-92{stroke-miterlimit:10;}.cls-74,.cls-5,.cls-7,.cls-94,.cls-78,.cls-14,.cls-20,.cls-85,.cls-45,.cls-65,.cls-66{opacity:.5;}.cls-74,.cls-80,.cls-81,.cls-95,.cls-84,.cls-86,.cls-89,.cls-91{stroke:#022e49;}.cls-75,.cls-76,.cls-79,.cls-96,.cls-88,.cls-93,.cls-90,.cls-92{stroke-width:2px;}.cls-75,.cls-77{stroke:#0f0b26;}.cls-75,.cls-82,.cls-83{opacity:.25;}.cls-2{fill:url(#linear-gradient-12);}.cls-3{fill:url(#linear-gradient-17);}.cls-4{fill:#141226;}.cls-76,.cls-96,.cls-93{stroke:#6da0e8;}.Graphic_Style_10{fill:url(#linear-gradient);}.cls-5{fill:url(#linear-gradient-28);}.cls-6{fill:#27244b;opacity:.35;}.cls-7,.cls-42{fill:#045989;}.cls-8{fill:url(#linear-gradient-21);}.cls-9{fill:url(#linear-gradient-6);}.cls-77{stroke-width:3px;}.cls-10{fill:#6363ad;}.cls-11{fill:#355bfc;}.cls-12{fill:url(#Nueva_muestra_de_degradado_36);fill-opacity:.69;}.cls-97{clip-path:url(#clippath-2);}.cls-13{fill:url(#Nueva_muestra_de_degradado_2-2);}.cls-78{stroke:#045989;stroke-width:.5px;}.cls-79{stroke:#4f18d3;stroke-linecap:round;}.cls-80,.cls-89{opacity:.72;}.cls-14{fill:url(#linear-gradient-27);}.cls-81{stroke-width:11px;}.cls-81,.cls-84{opacity:.41;}.cls-15{fill:url(#linear-gradient-15);}.cls-82,.cls-85{stroke:#085988;}.cls-16{fill:url(#linear-gradient-11);}.cls-17{fill:url(#Degradado_sin_nombre_262);}.cls-18{fill:url(#linear-gradient-5);}.cls-19{fill:rgba(255,94,183,.29);opacity:.88;}.cls-20{fill:url(#linear-gradient-29);}.cls-21{fill:url(#Nueva_muestra_de_degradado_2-3);}.cls-23{fill:url(#linear-gradient-31);}.cls-95,.cls-26{fill:#085988;}.cls-95,.cls-26,.cls-48,.cls-88{opacity:.2;}.cls-24,.cls-98{fill:#cced28;}.cls-25{fill:url(#Nueva_muestra_de_degradado_13);}.cls-99{clip-path:url(#clippath-1);}.cls-83,.cls-88,.cls-90{stroke:#58d1ed;}.cls-84{stroke-width:4px;}.cls-27{fill:url(#linear-gradient-13);}.cls-28{fill:url(#linear-gradient-23);}.cls-29{fill:#001a3f;}.cls-30{fill:url(#linear-gradient-25);}.cls-31{fill:url(#linear-gradient-16);}.cls-32{fill:url(#linear-gradient-22);}.cls-33{fill:#fff;}.cls-34{fill:#869dfd;}.cls-35{fill:url(#linear-gradient-32);}.cls-36{fill:url(#linear-gradient-20);}.cls-37{fill:url(#linear-gradient-14);}.cls-38{fill:url(#linear-gradient-2);}.cls-39{fill:url(#Nueva_muestra_de_degradado_2-4);}.cls-96{fill:url(#linear-gradient-4);}.cls-40{fill:url(#linear-gradient-7);}.cls-41{fill:url(#linear-gradient-3);}.cls-42{opacity:.3;}.cls-86{stroke-width:8px;}.cls-86,.cls-91{opacity:.15;}.cls-43{fill:url(#Nueva_muestra_de_degradado_45);}.cls-100{clip-path:url(#clippath);}.cls-87{stroke:snow;stroke-width:15px;}.cls-44{fill:url(#radial-gradient-5);}.cls-45{fill:url(#linear-gradient-26);}.cls-46{fill:url(#linear-gradient-9);}.cls-47{fill:url(#radial-gradient);}.cls-48,.cls-65{fill:#022e49;}.cls-49{fill:#005584;}.cls-50{fill:#ffa3ab;}.cls-51{fill:url(#Nueva_muestra_de_degradado_44);}.cls-101{clip-path:url(#clippath-3);}.cls-52{fill:url(#linear-gradient-8);}.cls-53{fill:#d0d8dc;}.cls-54{fill:url(#linear-gradient-24);}.cls-93{fill:url(#radial-gradient-2);}.cls-55{fill:url(#linear-gradient-18);}.cls-56{fill:#58d1ed;}.cls-57{fill:#95eee5;}.cls-58{fill:#6da0e8;}.cls-59{fill:#1da1dc;}.cls-59,.cls-68{opacity:.6;}.cls-60{fill:#fcfaff;}.cls-61{fill:url(#linear-gradient-30);}.cls-62{fill:#e86f8a;}.cls-102{mask:url(#mask);}.cls-63{fill:url(#Nueva_muestra_de_degradado_2);}.cls-64{fill:#12abbb;}.cls-89{stroke-width:6px;}.cls-66{fill:#0071b0;}.cls-90{opacity:.8;}.cls-67{fill:url(#linear-gradient-10);}.cls-68{fill:#00b287;}.cls-91{stroke-width:17px;}.cls-92{stroke:#91ccee;}.cls-69{fill:url(#radial-gradient-3);}.cls-70{fill:url(#Degradado_sin_nombre_539);fill-opacity:.52;}.cls-71{fill:url(#linear-gradient-19);fill-opacity:.8;}.cls-72{fill:url(#radial-gradient-4);}.cls-73{fill:url(#Nueva_muestra_de_degradado_13-2);}</style><linearGradient id="linear-gradient" x1="-3547.34" y1="1526.23" x2="-4674.93" y2="1526.23" gradientTransform="translate(-3303.06) rotate(-180) scale(1 -1)" gradientUnits="userSpaceOnUse"><stop offset="0" stop-color="#1189a4"/><stop offset=".15" stop-color="#1084a1"/><stop offset=".32" stop-color="#0d7699"/><stop offset=".51" stop-color="#095f8c"/><stop offset=".55" stop-color="#085988"/><stop offset="1" stop-color="#045989"/></linearGradient><radialGradient id="radial-gradient" cx="1063.68" cy="1785.23" fx="979.67" fy="1502.41" r="941.23" gradientTransform="translate(23.71 804.71) scale(.84 .45)" gradientUnits="userSpaceOnUse"><stop offset=".45" stop-color="#0f0b26" stop-opacity=".2"/><stop offset="1" stop-color="#0f0b26" stop-opacity="0"/></radialGradient><linearGradient id="linear-gradient-2" x1="-4209.85" y1="875.01" x2="-4236.03" y2="1075.2" gradientTransform="translate(-3303.06) rotate(-180) scale(1 -1)" gradientUnits="userSpaceOnUse"><stop offset="0" stop-color="#91ccee"/><stop offset=".11" stop-color="#8ccaed"/><stop offset=".23" stop-color="#7ec4eb"/><stop offset=".36" stop-color="#67bce7"/><stop offset=".5" stop-color="#48afe3"/><stop offset=".55" stop-color="#39aae1"/><stop offset="1" stop-color="#39aae1"/></linearGradient><linearGradient id="linear-gradient-3" x1="-4174.24" y1="1039.8" x2="-4363.42" y2="1042.67" gradientTransform="translate(-3099.07 -616.49) rotate(-171.35) scale(1 -1)" gradientUnits="userSpaceOnUse"><stop offset="0" stop-color="#0071b0"/><stop offset=".45" stop-color="#39aae1"/><stop offset=".53" stop-color="#60bae6"/><stop offset=".63" stop-color="#88cbed"/><stop offset=".73" stop-color="#a8d8f1"/><stop offset=".83" stop-color="#bfe2f5"/><stop offset=".92" stop-color="#cde8f7"/><stop offset="1" stop-color="#d2eaf8"/></linearGradient><linearGradient id="linear-gradient-4" x1="-4376.82" y1="1486.93" x2="-3787.33" y2="1490.18" gradientTransform="translate(-3303.06) rotate(-180) scale(1 -1)" gradientUnits="userSpaceOnUse"><stop offset="0" stop-color="#0071b0"/><stop offset=".07" stop-color="#006daa"/><stop offset=".39" stop-color="#035e91"/><stop offset=".59" stop-color="#045989"/><stop offset="1" stop-color="#0071b0"/></linearGradient><linearGradient id="linear-gradient-5" x1="-4422.47" y1="1399.22" x2="-3810.72" y2="1399.22" gradientTransform="translate(-3303.06) rotate(-180) scale(1 -1)" gradientUnits="userSpaceOnUse"><stop offset=".26" stop-color="#91ccee"/><stop offset=".27" stop-color="#8ecaed"/><stop offset=".4" stop-color="#6fbfe9"/><stop offset=".53" stop-color="#57b5e5"/><stop offset=".67" stop-color="#46afe2"/><stop offset=".82" stop-color="#3cabe1"/><stop offset="1" stop-color="#39aae1"/></linearGradient><radialGradient id="radial-gradient-2" cx="-4118.82" cy="1233.7" fx="-4118.82" fy="1233.7" r="265.31" gradientTransform="translate(-1219.85 5352.52) rotate(90) scale(1 -1.65)" gradientUnits="userSpaceOnUse"><stop offset="0" stop-color="#022e49"/><stop offset=".13" stop-color="#0071b0"/><stop offset=".31" stop-color="#006fad"/><stop offset=".4" stop-color="#006ba6"/><stop offset=".46" stop-color="#026399"/><stop offset=".51" stop-color="#045989"/><stop offset=".52" stop-color="#035989"/><stop offset=".68" stop-color="#01669e"/><stop offset=".84" stop-color="#006eab"/><stop offset=".99" stop-color="#0071b0"/></radialGradient><linearGradient id="linear-gradient-6" x1="670.24" y1="1279.52" x2="956.83" y2="1279.52" gradientTransform="matrix(1,0,0,1,0,0)" xlink:href="#linear-gradient-5"/><linearGradient id="linear-gradient-7" x1="827.45" y1="1132.55" x2="830.88" y2="1317.84" gradientUnits="userSpaceOnUse"><stop offset="0" stop-color="#0071b0"/><stop offset=".09" stop-color="#39aae1"/><stop offset=".19" stop-color="#2798d1"/><stop offset=".37" stop-color="#0a7bb9"/><stop offset=".47" stop-color="#0071b0"/><stop offset=".99" stop-color="#91ccee"/></linearGradient><linearGradient id="linear-gradient-8" x1="784.79" y1="1218.08" x2="749.05" y2="1323.87" gradientUnits="userSpaceOnUse"><stop offset="0" stop-color="#0071b0"/><stop offset=".94" stop-color="#91ccee"/></linearGradient><linearGradient id="linear-gradient-9" x1="-4278.2" y1="623.41" x2="-4388.19" y2="686.6" gradientTransform="translate(5092.58 -949.19) rotate(-30) scale(1 -1)" gradientUnits="userSpaceOnUse"><stop offset=".08" stop-color="#a9e5f5"/><stop offset=".21" stop-color="#91ccee"/><stop offset=".25" stop-color="#83c6ec"/><stop offset=".32" stop-color="#61b9e6"/><stop offset=".4" stop-color="#39aae1"/><stop offset=".51" stop-color="#40ace2"/><stop offset=".67" stop-color="#53b4e4"/><stop offset=".86" stop-color="#73c0e9"/><stop offset="1" stop-color="#91ccee"/></linearGradient><linearGradient id="linear-gradient-10" x1="-4545.67" y1="280.8" x2="-4094.71" y2="1037.51" gradientTransform="translate(5092.58 -949.19) rotate(-30) scale(1 -1)" gradientUnits="userSpaceOnUse"><stop offset="0" stop-color="#005584"/><stop offset=".18" stop-color="#39aae1" stop-opacity="0"/><stop offset=".78" stop-color="#39aae1" stop-opacity="0"/><stop offset=".83" stop-color="#339dd2" stop-opacity=".1"/><stop offset=".89" stop-color="#247ca9" stop-opacity=".37"/><stop offset=".97" stop-color="#0c4566" stop-opacity=".81"/><stop offset="1" stop-color="#022e49"/></linearGradient><linearGradient id="linear-gradient-11" x1="-4646.12" y1="736.84" x2="-4916.04" y2="1221.88" gradientTransform="translate(-3513.21 177.47) rotate(171.35) scale(1 -1)" gradientUnits="userSpaceOnUse"><stop offset=".03" stop-color="#d2eaf8"/><stop offset=".18" stop-color="#91ccee"/><stop offset=".32" stop-color="#8ccaed"/><stop offset=".48" stop-color="#7ec4eb"/><stop offset=".65" stop-color="#67bce7"/><stop offset=".82" stop-color="#48afe3"/><stop offset=".89" stop-color="#39aae1"/><stop offset="1" stop-color="#39aae1"/></linearGradient><linearGradient id="Nueva_muestra_de_degradado_2" x1="-4894.89" y1="967.55" x2="-4647.98" y2="1002.49" gradientTransform="translate(-3513.21 177.47) rotate(171.35) scale(1 -1)" gradientUnits="userSpaceOnUse"><stop offset="0" stop-color="#91ccee"/><stop offset=".55" stop-color="#91ccee"/><stop offset=".99" stop-color="#bfe1f5"/><stop offset=".99" stop-color="#91ccee" stop-opacity=".9"/></linearGradient><linearGradient id="linear-gradient-12" x1="-4703.94" y1="743.65" x2="-4710.36" y2="792.77" gradientTransform="translate(-560.84 -4170.48) rotate(-121.85) scale(1 -1)" xlink:href="#linear-gradient-2"/><linearGradient id="Nueva_muestra_de_degradado_2-2" x1="-4754.09" y1="766.73" x2="-4676.56" y2="777.7" xlink:href="#Nueva_muestra_de_degradado_2"/><linearGradient id="linear-gradient-13" x1="-4125.37" y1="943.38" x2="-4186.97" y2="1261.97" gradientTransform="translate(-3303.06) rotate(-180) scale(1 -1)" gradientUnits="userSpaceOnUse"><stop offset="0" stop-color="#0071b0"/><stop offset=".39" stop-color="#39aae1"/><stop offset=".54" stop-color="#2798d1"/><stop offset=".83" stop-color="#0a7bb9"/><stop offset="1" stop-color="#0071b0"/></linearGradient><linearGradient id="linear-gradient-14" x1="-4104.95" y1="890.6" x2="-4131.13" y2="1090.79" xlink:href="#linear-gradient-2"/><linearGradient id="Nueva_muestra_de_degradado_2-3" x1="-4139.69" y1="1045.71" x2="-3988.32" y2="1067.13" gradientTransform="translate(-3303.06) rotate(-180) scale(1 -1)" xlink:href="#Nueva_muestra_de_degradado_2"/><linearGradient id="linear-gradient-15" x1="-4061.71" y1="958.17" x2="-4077.69" y2="1080.43" xlink:href="#linear-gradient-2"/><linearGradient id="Nueva_muestra_de_degradado_2-4" x1="-4082.55" y1="1052.96" x2="-3990.93" y2="1065.92" gradientTransform="translate(-3303.06) rotate(-180) scale(1 -1)" xlink:href="#Nueva_muestra_de_degradado_2"/><radialGradient id="radial-gradient-3" cx="995.21" cy="2012.54" fx="995.21" fy="2012.54" r="108.85" gradientTransform="translate(0 977.99) scale(1 .52)" gradientUnits="userSpaceOnUse"><stop offset="0" stop-color="#0f0b26" stop-opacity=".3"/><stop offset="1" stop-color="#0f0b26" stop-opacity="0"/></radialGradient><linearGradient id="linear-gradient-16" x1="1005.08" y1="2038.2" x2="1005.08" y2="1790.81" gradientUnits="userSpaceOnUse"><stop offset="0" stop-color="#4f18d3"/><stop offset=".17" stop-color="#4c18ce"/><stop offset=".35" stop-color="#4619c2"/><stop offset=".52" stop-color="#3c1cae"/><stop offset=".7" stop-color="#2e1f92"/><stop offset=".87" stop-color="#1c236e"/><stop offset="1" stop-color="#0d2750"/></linearGradient><linearGradient id="Degradado_sin_nombre_262" x1="3599.72" y1="-1729.21" x2="3622.5" y2="-1729.21" gradientTransform="translate(-2953.05 1390.68) rotate(29.7) skewX(-.36)" gradientUnits="userSpaceOnUse"><stop offset="0" stop-color="#05034f" stop-opacity=".3"/><stop offset="1" stop-color="#05034f" stop-opacity="0"/></linearGradient><clipPath id="clippath"><path class="cls-24" d="m1045.89,1655.03c4.25,4.81,5.49,97.33,10.94,124.94-2.54,6.35-30.16,14.86-29.74,12.79,2.1-9.32,1.36-118.82-5.66-141.27,0,0,15.25-5.28,24.47,3.54Z"/></clipPath><clipPath id="clippath-1"><path class="cls-24" d="m991.55,1659.26c-3.35-.77-30.57,14.55-30.21,17.3,10.24,3.13,21.17,58.9,2.27,55.17-.61-.12-1.51,1.93-1.34,3.13,7.68,52.85-23.6,56.22,52.97,60.02,0,0-11.74-124.84-23.7-135.62Z"/></clipPath><radialGradient id="radial-gradient-4" cx="1663.2" cy="1721.33" fx="1663.2" fy="1721.33" r="717.13" gradientTransform="translate(0 292.09) scale(1 .78)" gradientUnits="userSpaceOnUse"><stop offset="0" stop-color="#61eebb"/><stop offset=".64" stop-color="#21c698" stop-opacity=".34"/><stop offset="1" stop-color="#00b287" stop-opacity="0"/></radialGradient><linearGradient id="linear-gradient-17" x1="1965.36" y1="1848.1" x2="1814.77" y2="1656.76" gradientUnits="userSpaceOnUse"><stop offset=".01" stop-color="#107d76"/><stop offset=".23" stop-color="#09788d"/><stop offset=".48" stop-color="#0474a0"/><stop offset=".73" stop-color="#0171ac"/><stop offset="1" stop-color="#0071b0"/></linearGradient><linearGradient id="linear-gradient-18" x1="1874.1" y1="1586.91" x2="996.85" y2="1060.56" gradientUnits="userSpaceOnUse"><stop offset="0" stop-color="#202f64"/><stop offset=".2" stop-color="#1c356b"/><stop offset=".5" stop-color="#14467f"/><stop offset=".85" stop-color="#06639f"/><stop offset="1" stop-color="#0071b0"/></linearGradient><linearGradient id="Nueva_muestra_de_degradado_44" x1="1486.39" y1="1014.82" x2="1477.53" y2="1083.47" gradientUnits="userSpaceOnUse"><stop offset="0" stop-color="#90e5ff"/><stop offset="1" stop-color="#1da1dc"/></linearGradient><linearGradient id="Nueva_muestra_de_degradado_45" x1="1321.85" y1="1056.88" x2="1679.44" y2="1056.88" gradientUnits="userSpaceOnUse"><stop offset="0" stop-color="#141226"/><stop offset="1" stop-color="#27244b"/></linearGradient><linearGradient id="linear-gradient-19" x1="1578.64" y1="1086.15" x2="1520.44" y2="1067.24" gradientUnits="userSpaceOnUse"><stop offset="0" stop-color="#ff844d"/><stop offset="1" stop-color="#ff66bf"/></linearGradient><linearGradient id="Degradado_sin_nombre_539" x1="-19366.35" y1="-17879.51" x2="-19166.52" y2="-18167.41" gradientTransform="translate(-3332.79 8398.07) rotate(106.32) scale(.33 .15) skewX(18.04)" gradientUnits="userSpaceOnUse"><stop offset="0" stop-color="#ff5eb7" stop-opacity=".6"/><stop offset=".21" stop-color="#ff5fa6" stop-opacity=".45"/><stop offset=".59" stop-color="#ff618c" stop-opacity=".21"/><stop offset=".86" stop-color="#ff627c" stop-opacity=".06"/><stop offset="1" stop-color="#ff6376" stop-opacity="0"/></linearGradient><linearGradient id="Nueva_muestra_de_degradado_36" x1="-19272.44" y1="-17719.72" x2="-19003.28" y2="-17719.72" gradientTransform="translate(-3332.79 8398.07) rotate(106.32) scale(.33 .15) skewX(18.04)" gradientUnits="userSpaceOnUse"><stop offset="0" stop-color="#ff6376" stop-opacity=".4"/><stop offset="1" stop-color="#ff6376" stop-opacity="0"/></linearGradient><linearGradient id="linear-gradient-20" x1="1307.42" y1="2294.47" x2="1448.64" y2="1486.07" gradientUnits="userSpaceOnUse"><stop offset=".1" stop-color="#90e5ff" stop-opacity="0"/><stop offset=".2" stop-color="#8de3fe" stop-opacity=".03"/><stop offset=".32" stop-color="#84defb" stop-opacity=".1"/><stop offset=".46" stop-color="#76d6f7" stop-opacity=".22"/><stop offset=".6" stop-color="#63caf1" stop-opacity=".39"/><stop offset=".76" stop-color="#4abbe9" stop-opacity=".61"/><stop offset=".92" stop-color="#2caae0" stop-opacity=".87"/><stop offset="1" stop-color="#1da1dc"/></linearGradient><linearGradient id="linear-gradient-21" x1="1452.86" y1="2163.85" x2="1251.44" y2="1623.19" gradientUnits="userSpaceOnUse"><stop offset=".32" stop-color="#47bae9" stop-opacity="0"/><stop offset=".39" stop-color="#45b9e8" stop-opacity=".02"/><stop offset=".48" stop-color="#42b7e7" stop-opacity=".1"/><stop offset=".59" stop-color="#3eb4e6" stop-opacity=".21"/><stop offset=".7" stop-color="#37b0e4" stop-opacity=".38"/><stop offset=".81" stop-color="#2eabe1" stop-opacity=".58"/><stop offset=".93" stop-color="#23a5de" stop-opacity=".84"/><stop offset="1" stop-color="#1da1dc"/></linearGradient><linearGradient id="linear-gradient-22" x1="1435.66" y1="1799.38" x2="1601.74" y2="1714.57" gradientUnits="userSpaceOnUse"><stop offset="0" stop-color="#47bae9" stop-opacity="0"/><stop offset=".11" stop-color="#44b8e8" stop-opacity=".07"/><stop offset=".32" stop-color="#3cb3e5" stop-opacity=".26"/><stop offset=".61" stop-color="#2face1" stop-opacity=".56"/><stop offset=".98" stop-color="#1ea1dc" stop-opacity=".97"/><stop offset="1" stop-color="#1da1dc"/></linearGradient><linearGradient id="linear-gradient-23" x1="2137.48" y1="2047.28" x2="1956.27" y2="1892.91" gradientUnits="userSpaceOnUse"><stop offset=".2" stop-color="#0f0b26" stop-opacity="0"/><stop offset="1" stop-color="#0f0b26" stop-opacity=".2"/></linearGradient><linearGradient id="linear-gradient-24" x1="1392.08" y1="1563.07" x2="1267.52" y2="2048.07" gradientUnits="userSpaceOnUse"><stop offset="0" stop-color="#fff"/><stop offset=".11" stop-color="#fafafa"/><stop offset=".23" stop-color="#ebebeb"/><stop offset=".36" stop-color="#d4d4d4"/><stop offset=".5" stop-color="#b3b3b3"/><stop offset=".65" stop-color="#898989"/><stop offset=".79" stop-color="#555"/><stop offset=".94" stop-color="#191919"/><stop offset="1" stop-color="#000"/></linearGradient><mask id="mask" x="1035.83" y="1542.02" width="516.95" height="507.13" maskUnits="userSpaceOnUse"><rect class="cls-54" x="1119.41" y="1670.29" width="398.4" height="357.7"/></mask><clipPath id="clippath-2"><polygon class="cls-22" points="1476.97 1999.45 1145.78 1901.78 1153.85 1896.79 1153.85 1855.29 1192.22 1866.17 1192.22 1732.51 1476.97 1805.79 1476.97 1999.45"/></clipPath><linearGradient id="linear-gradient-25" x1="1226.42" y1="1839.28" x2="1183.92" y2="1785.28" gradientUnits="userSpaceOnUse"><stop offset="0" stop-color="#107d76"/><stop offset=".22" stop-color="#09788d"/><stop offset=".47" stop-color="#0474a0"/><stop offset=".73" stop-color="#0171ac"/><stop offset="1" stop-color="#0071b0"/></linearGradient><linearGradient id="linear-gradient-26" x1="1357.55" y1="1759.9" x2="1347.11" y2="1798.68" gradientUnits="userSpaceOnUse"><stop offset=".4" stop-color="#0f0b26"/><stop offset=".55" stop-color="#0f0b26" stop-opacity=".65"/><stop offset=".81" stop-color="#0f0b26" stop-opacity=".17"/><stop offset="1" stop-color="#0f0b26" stop-opacity="0"/></linearGradient><linearGradient id="linear-gradient-27" x1="1550.29" y1="1867.41" x2="1421.99" y2="1864.42" xlink:href="#linear-gradient-26"/><linearGradient id="linear-gradient-28" x1="1151.3" y1="1805.4" x2="1240.82" y2="1831.13" xlink:href="#linear-gradient-26"/><linearGradient id="linear-gradient-29" x1="1309.19" y1="1943.75" x2="1330.57" y2="1875.13" gradientUnits="userSpaceOnUse"><stop offset="0" stop-color="#12abbb"/><stop offset=".13" stop-color="#12abbb" stop-opacity=".8"/><stop offset=".35" stop-color="#12abbb" stop-opacity=".52"/><stop offset=".55" stop-color="#12abbb" stop-opacity=".29"/><stop offset=".73" stop-color="#12abbb" stop-opacity=".13"/><stop offset=".89" stop-color="#12abbb" stop-opacity=".04"/><stop offset="1" stop-color="#12abbb" stop-opacity="0"/></linearGradient><radialGradient id="radial-gradient-5" cx="1664.86" cy="932.04" fx="1664.86" fy="932.04" r="108.85" xlink:href="#radial-gradient-3"/><linearGradient id="Nueva_muestra_de_degradado_13" x1="-4412.56" y1="1381.68" x2="-3969.14" y2="1131.81" gradientTransform="translate(-2655.9) rotate(-180) scale(1 -1)" gradientUnits="userSpaceOnUse"><stop offset="0" stop-color="#01171a" stop-opacity="0"/><stop offset="1" stop-color="#01171a"/></linearGradient><linearGradient id="linear-gradient-30" x1="-4366.13" y1="1282.27" x2="-3984.5" y2="1273.79" gradientTransform="translate(-2655.9) rotate(-180) scale(1 -1)" gradientUnits="userSpaceOnUse"><stop offset=".09" stop-color="#01171a" stop-opacity="0"/><stop offset="1" stop-color="#01171a"/></linearGradient><clipPath id="clippath-3"><path class="cls-24" d="m1609.65,1196.72c-.18,5.35-.36,10.78.95,15.96.64,2.54,2.05,5.36,4.64,5.8,1.05.18,2.14-.09,3.11-.53,3.34-1.52,5.38-4.9,7.12-8.13,3.48-6.46,6.67-13.21,7.9-20.45,1.23-7.24.33-15.08-3.83-21.13,14.84-8.62,33.66-10.97,50.61-8.32-.26,16.59,2.69,32.33,2.43,48.91-.08,4.95-.15,9.98,1.25,14.73,1.41,4.79,4.22,9.02,6.88,13.26,4.16,6.63,8.01,13.45,11.55,20.44-13.45,7.2-28.33,11.22-43.06,15.19-7.09,1.91-14.26,3.83-21.6,4.04-16.4.46-31.7-7.57-46.12-15.39,7.41-22.41,7.16-43.53,18.19-64.39Z"/></clipPath><linearGradient id="Nueva_muestra_de_degradado_13-2" x1="-4302.23" y1="1242.11" x2="-4336.44" y2="1143.23" xlink:href="#Nueva_muestra_de_degradado_13"/><linearGradient id="linear-gradient-31" x1="1720.82" y1="1128.32" x2="1671.58" y2="1182.25" gradientUnits="userSpaceOnUse"><stop offset=".15" stop-color="#3cb3a3"/><stop offset=".22" stop-color="#339f92"/><stop offset=".4" stop-color="#21736f"/><stop offset=".57" stop-color="#125153"/><stop offset=".73" stop-color="#083840"/><stop offset=".88" stop-color="#022a34"/><stop offset="1" stop-color="#002530"/></linearGradient><linearGradient id="linear-gradient-32" x1="-4225.98" y1="1089.9" x2="-4223.92" y2="1061.46" gradientTransform="translate(-2655.9) rotate(-180) scale(1 -1)" gradientUnits="userSpaceOnUse"><stop offset=".15" stop-color="#0f0b26" stop-opacity="0"/><stop offset=".67" stop-color="#0f0b26" stop-opacity=".3"/></linearGradient></defs><g id="Crane"><ellipse class="cls-47" cx="916.03" cy="1602.05" rx="789.6" ry="420.38"/><line class="cls-77" x1="1491.21" y1="652.8" x2="1491.21" y2="1033.26"/><path class="cls-38" d="m890.03,892.42c12.36-2.55,25.95,1.27,39.57,12.43,40.1,32.85,65.29,116.65,56.25,187.19-6.71,52.4-27.23,73.57-58.63,81.37h0l-36.94,7.28-38.93-281.27,38.68-7Z"/><ellipse class="cls-41" cx="872.98" cy="1039.83" rx="72.12" ry="142.08" transform="translate(-146.51 143.19) rotate(-8.65)"/><ellipse class="cls-91" cx="813.54" cy="1526.23" rx="555.86" ry="170.51"/><ellipse class="cls-81" cx="813.54" cy="1526.23" rx="555.86" ry="170.51"/><ellipse class="cls-89" cx="813.54" cy="1526.23" rx="555.86" ry="170.51"/><path class="Graphic_Style_10" d="m262.03,1504.82c34.33-84.06,268.16-149.1,551.51-149.1s517.18,65.04,551.51,149.1h4.35v21.41c0,94.17-248.87,170.51-555.86,170.51s-555.86-76.34-555.86-170.51v-21.41h4.35Z"/><path class="cls-96" d="m257.67,1504.82c0,94.17,248.87,170.51,555.86,170.51s555.86-76.34,555.86-170.51-248.87-203.43-555.86-203.43-555.86,109.26-555.86,203.43Z"/><path class="cls-92" d="m1062.36,1457.8c140.73,39.26,234.98,131.02,234.98,131.02"/><path class="cls-76" d="m553.13,1435.6c-148.59-14.75-295.46,90.63-295.46,90.63"/><ellipse class="cls-91" cx="813.54" cy="1403.24" rx="305.87" ry="93.83"/><ellipse class="cls-81" cx="813.54" cy="1403.24" rx="305.87" ry="93.83"/><ellipse class="cls-89" cx="813.54" cy="1403.24" rx="305.87" ry="93.83"/><path class="cls-18" d="m604.2,1328.28c18.89-46.26,53.41-18.87,209.33-18.87s261.62-16.67,280.51,29.58l25.36,24.98v39.26c0,51.82-136.94,93.83-305.87,93.83s-305.87-42.01-305.87-93.83v-39.26l96.54-35.7Z"/><path class="cls-93" d="m507.66,1363.98c0,51.82,136.94,93.83,305.87,93.83s305.87-42.01,305.87-93.83-136.94-137.74-305.87-137.74-305.87,85.92-305.87,137.74Z"/><ellipse class="cls-9" cx="813.54" cy="1279.52" rx="143.29" ry="43.95"/><path class="cls-40" d="m911.34,972.64l29.21,322.97s5.96,12.28-52.32,21.43c-41.02,6.44-58.34,2.54-58.34,2.54l-80.07-36.55-31.71-102.52,193.24-207.86Z"/><path class="cls-52" d="m718.1,1285.07v-104.57l111.79,38.31v100.77s-38.61,3.67-51.44,2.57c-64.21-5.5-60.34-37.07-60.34-37.07Z"/><path class="cls-46" d="m956.48,178.7h130.89v875.83c0,37.08-30.1,67.18-67.18,67.18h-63.72V178.7h0Z" transform="translate(1581.83 1724.27) rotate(-150)"/><path class="cls-67" d="m956.48,178.7h130.89v875.83c0,37.08-30.1,67.18-67.18,67.18h-63.72V178.7h0Z" transform="translate(1581.83 1724.27) rotate(-150)"/><path class="cls-16" d="m1526.62,672.1h0c16.56-12.19,21.25-34.92,10.88-52.67l-243.85-417.43c-11.76-15.98-32.18-23.01-51.29-17.67l-46.28,12.93c-31.48,8.79-61.13,73.7-41.76,100.02l305.33,364.66c15.68,21.3,45.66,25.85,66.96,10.17Z"/><path class="cls-63" d="m1519.9,663.6c-13.07,0-27.07-7.99-36.54-20.84l-270.65-367.58c-2.09-2.84-4.42-5.86-6.88-9.05-13.31-17.28-29.88-38.78-25.5-53.78,1.83-6.27,7.09-10.89,16.09-14.14l57.91-15.04c1.57-.27,3.28-.41,5.02-.41,12.99,0,26.91,7.94,36.34,20.73l242.89,412.38c9.89,15.97,8.76,34.31-2.6,42.68-4.49,3.31-10.05,5.05-16.08,5.05h0Z"/><path class="cls-33" d="m1259.35,183.75c12.66,0,26.26,7.77,35.51,20.28l242.89,412.37c9.6,15.51,8.58,33.27-2.36,41.33-4.32,3.18-9.67,4.86-15.49,4.86-12.76,0-26.45-7.83-35.73-20.44l-270.65-367.58c-2.1-2.85-4.43-5.87-6.89-9.07-13.18-17.1-29.57-38.37-25.34-52.89,1.73-5.92,6.76-10.32,15.38-13.45l57.83-15.02c1.57-.27,3.2-.4,4.85-.4m0-2c-1.78,0-3.54.15-5.27.44l-58,15.06c-39.41,14.21-2.34,53.82,15.83,78.5l270.65,367.58c10.01,13.59,24.4,21.25,37.34,21.25,6.08,0,11.84-1.69,16.67-5.25,11.76-8.66,13-27.64,2.87-44l-242.92-412.42c-9.72-13.2-23.99-21.18-37.18-21.18h0Z"/><ellipse class="cls-2" cx="1259.81" cy="242.14" rx="29.46" ry="42.1" transform="translate(541.01 1304.72) rotate(-66.8)"/><path class="cls-13" d="m1278.43,261.13c-17.76,0-36.25-9.8-44.98-23.83-4.95-7.96-6.05-16.16-3.08-23.09,2.96-6.92,9.63-11.79,18.8-13.71,2.76-.58,5.69-.87,8.7-.87,17.76,0,36.25,9.8,44.98,23.83,4.95,7.96,6.05,16.17,3.08,23.09-2.96,6.92-9.63,11.79-18.8,13.71-2.76.58-5.69.87-8.7.87h0Z"/><path class="cls-33" d="m1257.87,200.61c17.43,0,35.58,9.61,44.13,23.36,4.77,7.68,5.84,15.55,3.01,22.17-2.83,6.61-9.25,11.28-18.08,13.13-2.7.57-5.55.85-8.5.85-17.43,0-35.58-9.61-44.13-23.36-4.77-7.68-5.84-15.55-3.01-22.17,2.83-6.61,9.25-11.28,18.08-13.13,2.7-.57,5.55-.85,8.5-.85m0-2c-3.03,0-6.02.29-8.91.89-19.63,4.12-26.95,21.27-16.36,38.32,9.04,14.54,28.2,24.31,45.83,24.31,3.03,0,6.02-.29,8.91-.89,19.63-4.12,26.95-21.27,16.36-38.32-9.04-14.54-28.2-24.31-45.83-24.31h0Z"/><path class="cls-27" d="m911.34,972.64s-19.43,61.07-74.77,33.24c-55.34-27.83-88.07-12.98-88.07-12.98l81.38,225.92,103.7-.19-22.25-245.98Z"/><path class="cls-37" d="m785.13,908.01c12.36-2.55,25.95,1.27,39.57,12.43,40.1,32.85,65.29,116.65,56.25,187.19-6.71,52.4-27.23,73.57-58.63,81.37h0l-36.94,7.28-38.93-281.27,38.68-7Z"/><path class="cls-21" d="m783.86,1195.33c-10.4,0-21-4.37-31.51-12.98-39.8-32.6-64.88-116.17-55.89-186.29,6.27-48.94,28.19-80.56,55.84-80.56,10.39,0,21,4.37,31.51,12.98,39.8,32.6,64.88,116.17,55.89,186.29-6.27,48.94-28.19,80.56-55.84,80.56h0Z"/><path class="cls-33" d="m752.3,916.5c10.16,0,20.55,4.29,30.88,12.75,39.57,32.41,64.48,115.57,55.53,185.38-3.14,24.47-10.14,44.89-20.25,59.05-9.65,13.51-21.61,20.65-34.6,20.65-10.16,0-20.55-4.29-30.88-12.75-39.57-32.41-64.48-115.57-55.53-185.38,3.14-24.47,10.14-44.89,20.25-59.05,9.65-13.51,21.61-20.65,34.6-20.65m0-2c-27.41,0-50.26,30.14-56.84,81.44-9.04,70.53,16.15,154.34,56.25,187.19,10.94,8.96,21.86,13.2,32.14,13.2,27.41,0,50.26-30.14,56.84-81.44,9.04-70.53-16.15-154.34-56.25-187.19-10.94-8.96-21.86-13.2-32.14-13.2h0Z"/><ellipse class="cls-86" cx="763.57" cy="1053.58" rx="44.05" ry="86.77" transform="translate(-149.83 126.88) rotate(-8.65)"/><ellipse class="cls-84" cx="763.57" cy="1053.58" rx="44.05" ry="86.77" transform="translate(-149.83 126.88) rotate(-8.65)"/><ellipse class="cls-80" cx="763.57" cy="1053.58" rx="44.05" ry="86.77" transform="translate(-149.83 126.88) rotate(-8.65)"/><path class="cls-15" d="m748.41,968.81c7.55-1.56,15.85.78,24.17,7.59,24.49,20.06,39.87,71.24,34.35,114.32-4.1,32-16.63,44.93-35.81,49.69h0l-22.56,4.45-23.78-171.77,23.62-4.27Z"/><path class="cls-39" d="m747.63,1143.89c-6.26,0-12.65-2.64-19-7.84-24.22-19.83-39.47-70.71-34-113.42,3.8-29.68,17.04-48.86,33.72-48.86,6.26,0,12.65,2.64,19,7.84,24.22,19.83,39.47,70.71,33.99,113.42-3.8,29.68-17.04,48.86-33.72,48.86h0Z"/><path class="cls-33" d="m728.36,974.77c6.02,0,12.2,2.56,18.36,7.61,23.98,19.64,39.07,70.12,33.64,112.52-3.74,29.15-16.58,47.99-32.73,47.99-6.02,0-12.2-2.56-18.36-7.61-23.98-19.64-39.07-70.12-33.64-112.52,3.74-29.15,16.58-47.99,32.73-47.99m0-2c-16.74,0-30.7,18.41-34.71,49.74-5.52,43.08,9.86,94.26,34.35,114.32,6.68,5.47,13.35,8.06,19.63,8.06,16.74,0,30.7-18.41,34.71-49.74,5.52-43.08-9.86-94.26-34.35-114.32-6.68-5.47-13.35-8.06-19.63-8.06h0Z"/></g><g id="Man"><ellipse class="cls-69" cx="995.21" cy="2031.89" rx="108.85" ry="57"/><path class="cls-1" d="m1017.77,1990.96l-.63,23.76c-3.56,6.46,38.07,22.99,22.67,5.48,0,0-7.14-11.02-7.14-11.02l1.66-18.22h-16.56Z"/><path class="cls-1" d="m973.8,2040.64l1.66-18.22h-16.56l-.63,23.76c-3.56,6.46,38.07,22.99,22.67,5.48,0,0-7.14-11.02-7.14-11.02Z"/><path class="cls-31" d="m1047.24,1779.62l-35.97,8.73-32.9-6.39c-13.63,20.67-17.91,66.81-12.85,138.42-8.95,20.6-10.91,59.69-5.88,117.29,3.88,4,9.08,5.12,15.59,3.37,14.26-52.7,25.92-108.92,35.18-169.77,3.56,43.19,8,88.97,7.19,133.28,3.88,4,9.08,5.12,15.59,3.37,20.55-74.44,25.42-150.97,14.05-228.3Z"/><path class="cls-60" d="m1144.14,1682.81l-4.05-11.83c-29.47,15.75-53.11,29.69-70.9,41.81-11.62-39.55-23.56-59.41-30.25-61.38l-16.83,47.78c44.08,81.7,67.21,45.51,122.02-16.37Z"/><path class="cls-17" d="m1027.27,1707.37c2.83,5.79,6.32,11.13,10.47,16.01,4.17-11.26,5.85-29.31,5.02-54.14-3.03,16.36-8.2,29.07-15.5,38.13Z"/><path class="cls-10" d="m1021.2,1654.68c6.13,23.43-15.06,11.8-27.98,5.48,10.74,34.41,14.26,84.04,10.56,148.87,9.44.19,18.5-1.58,27.18-5.31,8.68-90.72,5.42-140.4-9.76-149.04Z"/><path class="cls-60" d="m962.72,1676.95c-17.15,5.72,8.82,78.97,7.76,90.34,0,0-8.85,32.89-8.85,32.89,8.68,11.84,21.76,17.82,39.23,17.93,26.39-46.27-3.24-129.76-7.65-157.95-9.52,4.34-19.68,9.94-30.49,16.79m86.17-13.25c-4.92-23.21-38.01-11.54-55.62-3.54,12.87,6.33,34.06,17.94,27.92-5.48,24.25,6.86,1.41,103.27,19.59,162.23,24.61-3.44,7.32-36.29,5.42-43.23,6.82-60.15,7.71-96.81,2.69-109.98Z"/><path class="cls-53" d="m1019.26,1603.57v13.93l6.17,4c5.28-10.62,3.5-14.69-6.17-17.93Z"/><path class="cls-50" d="m1019.54,1639.71c9.08-1.73,5.49-16.62,5.94-23.18-4.45-28.96-42.92-10.14-25.52,15.82-1.71,10.39-4.05,19.49-7.02,27.3,11.81,6.82,34.8,18.56,28.27-4.97l.17.06-1.83-15.02Z"/><path class="cls-60" d="m1023.31,1610.19c6.78-6.93,6.22-13-1.66-18.22-2.74-.11-4.66,1.29-5.77,4.23-1.98.08-4.05.97-6.22,2.68-15.65,2.32-18.19,20.6-9.54,33.52,1.03.57,2.06-1.16,3.08-5.2-7.77-9.24,2.6-12.53,3.31-1.66,4.76-5.82,5.03-10.75.8-14.79,3.24-3.46,8.57-3.65,15.99-.57Z"/><path id="_23" class="cls-79" d="m1013.83,1621.96l-7.82-2.63"/><path id="S2" class="cls-79" d="m1022.11,1621.21c1.11,6.61,9.15-3.33,5.37-5.94-2.82-1-5.42,3.43-5.37,5.94Z"/><path id="S" class="cls-79" d="m1013.49,1624.87c.77,5.6,6.85-.75,6.28-3.83-.66-5.74-6.87.66-6.28,3.83Z"/><path id="Str" class="cls-22" d="m1021.6,1621.33l-1.66.63"/><path class="cls-62" d="m1019.94,1643.31l-.34-3.14c-3.42.39-7.11.32-12.28-1.66,4.68,3.58,8.89,5.18,12.62,4.8Z"/><path class="cls-6" d="m961.58,1724.97l5.54,24.5c4.72-14.96,6.57-31.65,5.54-50.08l-11.08,25.58Z"/><path class="cls-98" d="m1045.89,1655.03c4.25,4.81,5.49,97.33,10.94,124.94-2.54,6.35-30.16,14.86-29.74,12.79,2.1-9.32,1.36-118.82-5.66-141.27,0,0,15.25-5.28,24.47,3.54Z"/><g class="cls-100"><path class="cls-87" d="m1061.43,1758.8c-10.6,12.73-27.61,15.17-43.57,16.26"/><path class="cls-87" d="m1059.83,1738.68c-11.85,8.89-28.39,17.98-43.48,12.96"/></g><path class="cls-62" d="m984.14,1832.74l-.54,5.34c12.98,2.22,20.2,2.26,21.68.11-5.11-1.74-12.15-3.55-21.15-5.45Z"/><path class="cls-60" d="m964.1,1677.33c-30.92,16.77-42.92,70.11-47.03,107.18-.96,14.41,28.8,44.92,58.39,56.31,9.09,3.5,15.87,3.01,24.66,2.48l-60.28-56.96c5.52-19.21,50.93-93.79,24.26-109.01Z"/><path class="cls-64" d="m1022.49,1793.09c.96-1.81,2.55-2.64,4.74-2.48l52.9,4.08c2.19.21,3.48,1.77,3.86,4.66l-95.58,65.63c-2.19-2.09-2.8-4.04-1.83-5.86l35.91-66.03Z"/><path class="cls-57" d="m1028.9,1793.9l52.89,4.11c2.22.17,2.84,1.15,1.87,2.94l-35.92,66.05c-.97,1.79-2.57,2.59-4.79,2.42l-52.89-4.11c-2.22-.17-2.84-1.15-1.87-2.94l35.92-66.05c.97-1.79,2.57-2.59,4.79-2.42Z"/><path class="cls-50" d="m991.69,1835.28l-16.22,5.54c11.8,9.57,12.56,12.44,25.08,7.45,2.41,1.16,4.37.82,5.9-1.01l-14.75-11.98Z"/><path class="cls-62" d="m1159.77,1669.09c-.41.15,3.01-5.04,10.25-15.58-6-6.44-20.24,4.86-25.93,15.09l.79,12.79c6.32-1.86,10.42-7.65,14.89-12.31Z"/><path class="cls-50" d="m1156.5,1657.97c-6.75,4.94-10.38,5.09-16.37,14.42l4.24,10.23c2.74.16,17.53-25.03,12.13-24.65Z"/><path class="cls-98" d="m991.55,1659.26c-3.35-.77-30.57,14.55-30.21,17.3,10.24,3.13,21.17,58.9,2.27,55.17-.61-.12-1.51,1.93-1.34,3.13,7.68,52.85-23.6,56.22,52.97,60.02,0,0-11.74-124.84-23.7-135.62Z"/><g class="cls-99"><path class="cls-87" d="m1022.18,1774.94c-28.36,3.29-60.14,2.03-83.17-16.75"/><path class="cls-87" d="m1018.37,1755.49c-27.7,1.27-55.66-3.6-81.3-14.17"/></g></g><g id="Base"><ellipse class="cls-72" cx="1663.2" cy="1637.15" rx="717.13" ry="560.37"/><g id="Base-2"><path id="G" class="cls-3" d="m2058.1,1301.43c-57.88,81.2-137.23,160.82-238.05,238.85-55.92,43.23-117.45,85.25-184.59,126.07-.18.11-.36.2-.53.27v426.16c41.65-24.73,81.19-49.91,118.63-75.54,29.6-20.2,57.88-40.68,84.85-61.44,90.41-69.66,163.65-140.59,219.7-212.79v-441.58Z"/><g id="G-2"><path class="cls-55" d="m1820.05,1540.28c100.82-78.03,180.18-157.65,238.05-238.85l-474.24-65.7c-45.37,49.31-100.69,97.89-165.97,145.76-78.3,57.42-168.82,112.3-271.57,164.64l488.61,119.96.53.27c67.14-40.82,128.67-82.85,184.59-126.07Z"/><path class="cls-58" d="m1585.76,1241.04l463.43,64.2c-27.66,37.97-60.44,76.04-97.55,113.27-39.34,39.47-84.64,79.11-134.65,117.81-54.97,42.5-116.26,84.4-182.2,124.58l-474.27-116.44c97.69-50.43,185.21-103.87,260.32-158.95,64.39-47.21,119.86-95.81,164.92-144.48m-1.9-5.31c-45.37,49.31-100.69,97.89-165.97,145.76-78.3,57.42-168.82,112.3-271.57,164.64l488.61,119.96.53.27c67.14-40.82,128.67-82.85,184.59-126.07,100.82-78.03,180.18-157.65,238.05-238.85l-474.24-65.7h0Z"/></g></g><g id="Screen"><g id="Layer1_13_MEMBER_0_FILL"><path class="cls-51" d="m1320.77,993.17c-11.87,8.36-17.8,20.72-17.8,37.1v288.27c0,16.38,9.11,23.98,27.32,22.81l312.58-234.37c11.86-8.19,17.8-20.47,17.8-36.85l14.79-296.54c-9.56-9.07-20.42-10.41-32.59-4.01l-322.11,223.59Z"/></g><g id="Layer1_13_MEMBER_1_FILL"><path class="cls-43" d="m1339.69,1000.01c-11.9,8.27-17.84,20.58-17.84,36.96v288.27c0,16.38,5.95,20.43,17.84,12.17l321.9-223.66c11.9-8.27,17.84-20.59,17.84-36.96v-288.27c0-16.38-5.95-20.43-17.84-12.17l-321.9,223.66Z"/></g></g><path id="lll" class="cls-68" d="m1360.52,1034.16l148.78-104.39c4.77-3.71,9.01,1.61,4.46,10.73-1.21,2.48-2.7,4.34-4.46,5.58l-148.78,104.39c-7,6.01-9.51-9.13,0-16.31Z"/><path id="ll" class="cls-59" d="m1418.75,1037.46c4.55-9.12.3-14.44-4.46-10.73,0,0-53.77,37.73-53.77,37.73-9.46,7.14-7.06,22.36,0,16.31,2.12-2.54,57.84-37.95,58.23-43.31Z"/><path id="l" class="cls-59" d="m1360.52,1166.19c6.7-5.04,25.23-19.65,17.22,1.98-2.83,6.2-14.05,11.44-17.22,14.33-7.15,6.16-9.34-8.85,0-16.31Z"/><polygon class="cls-19" points="1598.61 1037.73 1543.51 1057.62 1490.12 1155.8 1545.22 1135.91 1598.61 1037.73"/><polygon id="G-3" class="cls-71" points="1598.61 1015.98 1543.51 1035.87 1490.12 1134.05 1545.22 1114.16 1598.61 1015.98"/><polygon id="G-4" class="cls-70" points="1598.85 1150.91 1598.61 1037.73 1545.22 1135.91 1545.5 1192.66 1598.85 1150.91"/><polygon id="G-5" class="cls-12" points="1490.12 1155.8 1490.54 1232.48 1545.5 1192.66 1545.22 1135.91 1490.12 1155.8"/><path id="G-6" class="cls-36" d="m1634.93,2092.78v-426.69l-488.61-119.96c-.13.2-.31.38-.53.53v779.38c186.53-72.72,349.58-150.48,489.14-233.27Z"/><path id="G-7" class="cls-8" d="m1634.93,2092.78v-426.69l-488.61-119.96c-.13.2-.31.38-.53.53v779.38c186.53-72.72,349.58-150.48,489.14-233.27Z"/><path id="G-8" class="cls-32" d="m1634.93,2092.78v-426.69l-488.61-119.96c-.13.2-.31.38-.53.53v779.38c186.53-72.72,349.58-150.48,489.14-233.27Z"/><path class="cls-28" d="m1634.93,2092.78l373.37,104.75,357.39-429.45-307.58-25.06s-31.59,41.58-97.77,108.12c-88.78,89.26-249.26,199.43-325.4,241.65Z"/><g class="cls-102"><g class="cls-94"><g class="cls-97"><polygon class="cls-49" points="1476.97 1999.45 1145.78 1901.78 1153.85 1896.79 1153.85 1855.29 1192.22 1866.17 1192.22 1732.51 1476.97 1805.79 1476.97 1999.45"/><path class="cls-65" d="m1337.97,1939.47l1.28,68.75c-21.52-5.72-42.89-12.27-64.09-19.62l4.12-66.09c19.42,6.37,39,12.03,58.69,16.96Z"/><path class="cls-65" d="m1533.19,1976.45l19.6,72.7c-18.59,0-37.21-.7-55.81-2.05l-14.72-72.42c16.98,1.19,33.96,1.78,50.93,1.78Z"/><path class="cls-65" d="m1474.72,1946.73l14.72,72.42c-14.34-1.04-28.69-2.48-43.02-4.35-19.36-2.45-38.69-5.63-57.96-9.52l-5.87-70.43c17.58,3.34,35.22,6.06,52.89,8.17,13.07,1.59,26.15,2.82,39.24,3.7Z"/><path class="cls-7" d="m1380.53,1847.68l9.59,115.12,5.87,70.43c-17.85-3.55-35.64-7.68-53.34-12.4l-1.28-68.75-2.13-114.66c13.71,3.89,27.48,7.32,41.29,10.25Z"/><path class="cls-66" d="m1337.78,1832.02l2.13,114.66c-19.69-4.93-39.27-10.59-58.69-16.96-85.26-27.82-167.51-68.87-243.07-120.26l49.71-103.67c62.35,46.83,130.2,84.39,200.46,110.16,16.38,6.03,32.87,11.39,49.46,16.07Z"/><path class="cls-74" d="m1336.28,1853.27l1.6,85.85c-19.69-4.93-39.27-10.59-58.69-16.96-85.26-27.82-167.51-68.87-243.07-120.26"/><line class="cls-85" x1="1385.42" y1="1929.49" x2="1378.16" y2="1842.31"/><path class="cls-7" d="m1509.33,1873.44l31.17,115.64c-16.97,0-33.95-.58-50.93-1.78-13.09-.89-26.17-2.11-39.24-3.7-17.67-2.11-35.31-4.84-52.89-8.17l-9.59-115.12-19.3-231.43c9.41,1.5,18.84,2.72,28.29,3.64l35.91,235.66c11.1,1.5,22.22,2.69,33.34,3.58,14.42,1.1,28.85,1.68,43.24,1.68Z"/><path class="cls-65" d="m1303.42,1602.99l-13.64,218.37c-70.26-25.77-138.11-63.33-200.46-110.16l81.12-169.18c41.54,26.45,86.51,47.26,132.98,60.97Z"/><path class="cls-65" d="m1437.56,1621.72l64.45,239.09c-14.39,0-28.82-.58-43.24-1.68l-48.32-237.74h0c6.33.28,12.66.43,18.99.43,2.72,0,5.43-.03,8.11-.09Z"/><path class="cls-66" d="m1410.45,1621.39l48.32,237.74c-11.12-.89-22.24-2.08-33.34-3.58l-35.91-235.66c6.98.67,13.95,1.16,20.94,1.5Z"/><path class="cls-65" d="m1366.11,1634.35l19.3,231.43c-13.81-2.94-27.58-6.37-41.29-10.25-16.59-4.68-33.08-10.04-49.46-16.07l13.64-218.37c10.48,3.12,21.03,5.85,31.63,8.2,8.69,1.93,17.42,3.61,26.18,5.05Z"/><line class="cls-82" x1="1337.78" y1="1832.02" x2="1339.92" y2="1946.68"/><line class="cls-85" x1="1425.22" y1="1854.15" x2="1414.43" y2="1783.4"/><polygon class="cls-26" points="1439.56 1915.9 1442.07 1931.45 1446.89 1931.45 1444.23 1915.97 1439.56 1915.9"/><polygon class="cls-95" points="1440.43 1917.59 1442.95 1933.14 1447.76 1933.14 1445.1 1917.66 1440.43 1917.59"/><polygon class="cls-26" points="1412.18 1831.56 1415.18 1858.29 1420.63 1859.12 1416.82 1832.48 1412.18 1831.56"/><polygon class="cls-48" points="1413.06 1833.25 1416.05 1859.98 1421.51 1860.81 1417.69 1834.17 1413.06 1833.25"/><path class="cls-78" d="m1339.08,1829.85c-.95,0-1.94-.13-2.93-.4-5.86-1.57-11.43-7.58-14.91-16.08-1.92-4.68-3.08-9.87-3.27-14.61-.47-11.34,4.46-19.26,11.99-19.26.95,0,1.94.13,2.93.4,5.86,1.57,11.43,7.58,14.91,16.08,1.92,4.68,3.08,9.87,3.27,14.61.47,11.34-4.46,19.26-11.99,19.26Z"/><path class="cls-65" d="m1349.92,1774.07c-.39-.09-.8-.23-1.2-.42-2.39-1.11-4.6-3.8-5.9-7.21-.72-1.88-1.12-3.86-1.12-5.6-.02-4.16,2.14-6.57,5.24-5.88.39.09.8.23,1.2.42,2.39,1.11,4.6,3.8,5.9,7.21.72,1.88,1.12,3.86,1.12,5.6.02,4.16-2.14,6.57-5.24,5.88Z"/><path class="cls-78" d="m1444.71,1841.88c-.2,0-.42-.02-.64-.07-.24-.06-.49-.14-.74-.26-1.48-.69-2.62-2.26-3.1-3.51-.21-.54-.32-1.12-.32-1.71,0-1.95,1.04-3.3,2.54-3.3.2,0,.42.02.64.07.24.06.49.14.74.26,1.48.69,2.62,2.26,3.1,3.51.21.54.32,1.12.32,1.71,0,1.95-1.04,3.3-2.54,3.3Z"/><ellipse class="cls-65" cx="1334.52" cy="1804.67" rx="12.4" ry="19.36" transform="translate(-456.45 451.82) rotate(-16.45)"/><path class="cls-65" d="m1335.62,1793.03c-7.22-1.94-12.73,4.81-12.3,15.07.04.95.14,1.89.28,2.82,2.49,6.15,6.86,11.02,11.69,12.32,7.22,1.94,12.73-4.81,12.3-15.07-.04-.95-.14-1.89-.28-2.82-2.49-6.15-6.86-11.02-11.69-12.32Z"/><ellipse class="cls-42" cx="1335.45" cy="1808.14" rx="3.7" ry="5.78" transform="translate(-457.4 452.23) rotate(-16.45)"/></g><polygon class="cls-30" points="1192.22 1866.17 1199.15 1862.96 1199.15 1734.29 1192.22 1732.51 1192.22 1866.17"/><polygon class="cls-56" points="1153.85 1896.79 1476.97 1992.27 1476.97 1999.45 1145.78 1901.78 1153.85 1896.79"/><polygon class="cls-45" points="1192.22 1732.51 1476.97 1805.79 1476.97 1957.82 1192.22 1818.05 1192.22 1732.51"/><polygon class="cls-14" points="1476.97 1992.27 1153.85 1896.79 1153.85 1855.29 1192.22 1866.17 1192.22 1732.51 1476.97 1805.79 1476.97 1992.27"/><polygon class="cls-5" points="1476.97 1992.27 1153.85 1896.79 1153.85 1855.29 1192.22 1866.17 1192.22 1732.51 1476.97 1805.79 1476.97 1992.27"/><polygon class="cls-20" points="1476.97 1992.27 1153.85 1896.79 1153.85 1855.29 1192.22 1866.17 1192.22 1732.51 1476.97 1805.79 1476.97 1992.27"/><path class="cls-88" d="m1294.66,1839.46s60.39,22.93,90.75,26.32"/><path class="cls-88" d="m1443.3,1933.63c1.99.96,4.37,1.11,6.47.4"/><path class="cls-88" d="m1413.95,1860.6c2.74.83,5.64,1.12,8.49.86"/><path class="cls-88" d="m1216.53,1785.71c25.58,12.43,51.59,23.97,77.97,34.59"/><path class="cls-88" d="m1183.36,1881.85c45.68,21.03,93.06,38.37,141.52,51.81"/><path class="cls-88" d="m1430.94,1854.51c12.45,2.24,25.1,3.36,37.75,3.32"/><path class="cls-88" d="m1322.36,1806.56c1.13,4.64,3.42,9,6.61,12.56,1.73,1.93,3.81,3.68,6.31,4.35,2.5.67,5.49.02,7.01-2.09"/><path class="cls-88" d="m1331.61,1806.57c-.81,3.37,2.37,7.04,5.82,6.73"/><line class="cls-75" x1="1413.06" y1="1833.25" x2="1415.18" y2="1858.29"/><line class="cls-75" x1="1382.59" y1="1934.86" x2="1384.39" y2="1962.19"/><line class="cls-75" x1="1416.1" y1="1791.74" x2="1425.43" y2="1855.55"/><line class="cls-75" x1="1302.46" y1="1762.89" x2="1297.24" y2="1839.46"/><line class="cls-75" x1="1339.76" y1="1874.29" x2="1339.92" y2="1946.68"/><path class="cls-75" d="m1388.74,1935.83c16.41,4.85,58.74,9.98,72.36,10.44"/><path class="cls-88" d="m1384.58,1933.63c16.41,4.85,58.74,9.98,72.36,10.44"/><line class="cls-90" x1="1145.78" y1="1853.33" x2="1192.22" y2="1866.17"/><line class="cls-90" x1="1192.22" y1="1731.09" x2="1476.97" y2="1804.36"/><line class="cls-83" x1="1199.54" y1="1767.72" x2="1199.15" y2="1862.96"/><line class="cls-75" x1="1192.22" y1="1866.17" x2="1199.15" y2="1862.96"/><line class="cls-75" x1="1153.85" y1="1857.51" x2="1153.85" y2="1894.31"/></g></g></g><g id="Woman"><g id="_woman_"><ellipse class="cls-44" cx="1664.86" cy="1466.07" rx="108.85" ry="57"/><path class="cls-50" d="m1646.65,1108.49c8.07-1.44,14.14,2.52,18.22,11.88l-18.35,43.02-14.52-8.32v-10.17l-4.33-4.49,2.51-8.57c-2.02-.95-2.87-1.72-2.54-2.31,7.77-5.24,9.63-18.12,19.01-21.03Z"/><path class="cls-11" d="m1628.18,1151.32c.22-6.29,16.7,5.11,22.1,3.22-2.37,4.02-10.97,23.24-15.79,24.72h-2.62c-1.82-9.2-.14-19.19-3.69-27.94Z"/><path class="cls-29" d="m1772.45,1428c-1.37-4.94-2.44-14.97,2.34-19.04,2.6-.06,11.63,33.99,4.71,35.36-3.04-5.59-5.46-11.3-7.05-16.31Z"/><path class="cls-4" d="m1772.56,1412.07c-3.6,12.36,1.45,21.2,6.94,32.24-7.39-4.31-16.89-24.4-24.31-26.62,0,0-13.86-8.63-13.86-8.63-.74-11.49,2.09-19.17,8.49-23.04,6.81,6.88,16.63,18.28,24.97,22.93-1.02.3-1.77,1.33-2.23,3.11Z"/><path class="cls-34" d="m1657.51,1313.11c1.82-13.54,21.52-31.34,33.76-28.08,22.99,10.09,11.89,39.73,13.09,65.28,4.44-1.95,31.16,20.43,45.47,35.72-6.4,3.87-9.23,11.55-8.49,23.04-41.24-24.91-70.84-35.76-83.83-95.96Z"/><path class="cls-25" d="m1761.37,1422.6c-.18-.17-.35-.35-.52-.52l.72.58c-.06-.02-.13-.04-.19-.06m-97.44-89.51c-.75-.72.02-21.19-.25-21.99l28.44-4.05c-2.5,4.23-6.53,13.42-12.1,27.56,1.14,38.16,52.55,62.6,75.15,83.06-23.86-18.14-71.97-34.32-83.58-65.89h0c-2.68-5.61-5.16-11.69-7.66-18.68Z"/><path class="cls-4" d="m1675.67,1469.01c1.44,18.06-68.68-13.79-17.33-12.37l-7.61-29.05c7.03,2.21,18.67,10.23,23.95.74.16,13.98.99,29.13.99,40.68Z"/><path class="cls-34" d="m1671.23,1335.32l-3.47,35.03c7.53,11.36,6.88,41.42,6.92,57.98-5.27,9.49-16.92,1.47-23.95-.74l-12.76-48.81-.03.03c-1.53-6.1-3.11-10.93-4.71-16.51.02.11.05.21.08.3-16.29-52.29-17.37-72.81,42.96-62.42l-5.04,35.14Z"/><path class="cls-11" d="m1569.98,1085.4l9.09-4.88,13.81,61.95,39.33,26.15c70.2-43.99,51.9,9.59,44.4,57.65,17.1,26.42,28.15,37.82,28.52,74.24-24.3,12.14-55.82,23.19-81.54,20.48-4.39-27.06-3.8-50.14,1.76-69.23-4.9-14.7-15.61-36.74-13.15-52.19-43.02-51.29-45.96-59.86-42.22-114.17Z"/><path class="cls-61" d="m1569.98,1085.4l.36-.19c3.88,20.58,3.92,42.94,5.54,58.92,21.14,26.95,46.02,44.03,52.91,78.32,25.36,61.02,12.72,66.13,14.63,126.08,1.98,36.6,21.19,87.71,24.95,126.77-15.5-3.68-51.18-17.44-10.03-18.66-3.37-12.57-21.63-83.55-25.11-94.33.02.11.04.22.06.33-10.84-35.46-17.54-80.01-7.94-110.87-5.27-14.94-15.56-36.65-13.15-52.19-43.02-51.29-45.96-59.86-42.22-114.17Z"/><path class="cls-98" d="m1609.65,1196.72c-.18,5.35-.36,10.78.95,15.96.64,2.54,2.05,5.36,4.64,5.8,1.05.18,2.14-.09,3.11-.53,3.34-1.52,5.38-4.9,7.12-8.13,3.48-6.46,6.67-13.21,7.9-20.45,1.23-7.24.33-15.08-3.83-21.13,14.84-8.62,33.66-10.97,50.61-8.32-.26,16.59,2.69,32.33,2.43,48.91-.08,4.95-.15,9.98,1.25,14.73,1.41,4.79,4.22,9.02,6.88,13.26,4.16,6.63,8.01,13.45,11.55,20.44-13.45,7.2-28.33,11.22-43.06,15.19-7.09,1.91-14.26,3.83-21.6,4.04-16.4.46-31.7-7.57-46.12-15.39,7.41-22.41,7.16-43.53,18.19-64.39Z"/><g class="cls-101"><path class="cls-87" d="m1586.41,1243.96c11.72,5.53,23.84,10.23,36.22,14.05,6.49,2,13.18,3.77,19.97,3.54,5.56-.19,10.98-1.72,16.29-3.35,20.49-6.29,40.44-14.3,59.59-23.92"/><path class="cls-87" d="m1587.89,1221.76c11.72,5.53,23.84,10.23,36.22,14.05,6.49,2,13.18,3.77,19.97,3.54,5.56-.19,10.98-1.72,16.29-3.35,20.49-6.29,40.44-14.3,59.59-23.92"/></g><path class="cls-73" d="m1644.75,1128.67c3.01-4.01,6.53-7.13,10.55-9.34,7.79,22.66,24.06,97.89,35.4,117.49-41.52-11.6-70.57-70.59-45.96-108.15Z"/><path class="cls-23" d="m1646.51,1123.29c-.52-2.46-2.44-1.04-5.76,4.27-6.41-17.53,10.89-26.98,22.93-18,9.63,3.99,4.81,23.6,12.59,30.21,32.81,10.54,84.56,31.69,59.82,74.79-50.74,42.27-111.57-26.5-95.17-81.73,4.23-3.9,6.09-7.07,5.59-9.54Z"/><path class="cls-62" d="m1627.66,1140.41l7.47-.19-3.14,4.68-4.33-4.49Z"/><polygon class="cls-35" points="1567.25 1057.35 1567.25 1080.57 1565.38 1081.65 1565.38 1093.46 1574.93 1088.36 1571.53 1059.32 1567.25 1057.35"/><path class="cls-62" d="m1576.46,1069.86c1.23-1.52,3.13-11.38,5.9-10.22.2,5.31-1.56,14.8-5.9,18.35v-8.13Z"/><path class="cls-50" d="m1568.71,1073.38c.36-4.01-.58-12.1-1.46-16.04,12.73-19.17,11.32,25.1,13.83,32.19h-11.46c-.05-2.77.39-13.75-.91-16.15Z"/></g></g></svg>