<?xml version="1.0" encoding="UTF-8"?><svg xmlns="http://www.w3.org/2000/svg" xmlns:xlink="http://www.w3.org/1999/xlink" viewBox="0 0 2500 2500"><defs><style>.cls-1{fill:url(#linear-gradient-15);fill-opacity:.8;}.cls-1,.cls-2,.cls-3,.cls-4,.cls-5,.cls-6,.cls-7,.cls-8,.cls-9,.cls-10,.cls-11,.cls-12,.cls-13,.cls-14,.cls-15,.cls-16,.cls-17,.cls-18,.cls-19,.cls-20,.cls-21,.cls-22,.cls-23,.cls-24,.cls-25,.cls-26,.cls-27,.cls-28,.cls-29,.cls-30,.cls-31,.cls-32,.cls-33,.cls-34,.cls-35,.cls-36,.cls-37,.cls-38,.cls-39,.cls-40,.cls-41,.cls-42,.cls-43,.cls-44,.cls-45,.cls-46,.cls-47,.cls-48,.cls-49,.cls-50,.cls-51,.cls-52,.cls-53,.cls-54,.cls-55,.cls-56,.cls-57,.cls-58,.cls-59,.cls-60,.cls-61,.cls-62,.cls-63,.cls-64,.cls-65,.cls-66,.cls-67,.cls-68,.cls-69,.cls-70,.cls-71,.cls-72{stroke-width:0px;}.cls-73,.cls-74,.cls-75,.cls-76,.cls-77,.cls-78,.cls-79,.cls-80,.cls-81,.cls-82,.cls-23,.cls-83,.cls-84,.cls-85,.cls-86,.cls-87,.cls-88,.cls-89,.cls-90,.cls-91{fill:none;}.cls-73,.cls-74,.cls-81,.cls-82,.cls-83,.cls-85,.cls-87,.cls-88,.cls-89,.cls-90{stroke-miterlimit:10;}.cls-73,.cls-92,.cls-31,.cls-72{opacity:.2;}.cls-73,.cls-78,.cls-87,.cls-89,.cls-91{stroke-width:2px;}.cls-73,.cls-81,.cls-83,.cls-85,.cls-89{stroke:#b7d4f4;}.cls-74,.cls-92,.cls-82{stroke:#4a7fb0;}.cls-74,.cls-8,.cls-93,.cls-80,.cls-81,.cls-25,.cls-28,.cls-32,.cls-39,.cls-61,.cls-71{opacity:.5;}.cls-2{fill:url(#linear-gradient-12);}.cls-92,.cls-31,.cls-61{fill:#78aad6;}.cls-3{fill:url(#linear-gradient-17);}.cls-75,.cls-76,.cls-77,.cls-78,.cls-79,.cls-80,.cls-84,.cls-86{stroke:#78aad6;}.cls-75,.cls-86{opacity:.15;}.cls-75,.cls-88{stroke-width:15px;}.cls-76,.cls-85,.cls-87{opacity:.25;}.cls-4{fill:url(#radial-gradient-4);opacity:.3;}.cls-5{fill:url(#linear-gradient-19);}.cls-6{fill:#fdfdfe;}.cls-7{fill:url(#linear-gradient);}.cls-8{fill:url(#linear-gradient-24);}.cls-77,.cls-78{opacity:.72;}.cls-77,.cls-84{stroke-width:4px;}.cls-9{fill:url(#Nueva_muestra_de_degradado_11-2);}.cls-10{fill:#27244b;opacity:.35;}.cls-11{fill:url(#linear-gradient-21);}.cls-12{fill:url(#linear-gradient-6);}.cls-13{fill:url(#Nueva_muestra_de_degradado_11);}.cls-14{fill:#7499b8;}.cls-15,.cls-25,.cls-67{fill:#b7d4f4;}.cls-79{stroke-width:8px;}.cls-79,.cls-84{opacity:.41;}.cls-16{fill:url(#Nueva_muestra_de_degradado_36);fill-opacity:.69;}.cls-94{clip-path:url(#clippath-2);}.cls-95{fill:url(#linear-gradient-4);}.cls-95,.cls-90{stroke:#d4ecf6;}.cls-17{fill:#628baf;}.cls-18{fill:url(#linear-gradient-11);}.cls-19{fill:url(#Degradado_sin_nombre_262);}.cls-81{stroke-width:.5px;}.cls-20{fill:#6fc7bb;}.cls-82{stroke-width:3px;}.cls-21{fill:url(#linear-gradient-5);}.cls-22{fill:rgba(255,94,183,.29);opacity:.88;}.cls-24,.cls-96{fill:#cced28;}.cls-26{fill:url(#Nueva_muestra_de_degradado_13);}.cls-97{clip-path:url(#clippath-1);}.cls-27{fill:#fafbfc;}.cls-28{fill:url(#linear-gradient-25);}.cls-29{fill:url(#Nueva_muestra_de_degradado_65);}.cls-30{fill:url(#linear-gradient-13);}.cls-32,.cls-50,.cls-72{fill:#4a7fb0;}.cls-33{fill:url(#linear-gradient-16);}.cls-34{fill:#fff;}.cls-35{fill:url(#linear-gradient-20);}.cls-36{fill:url(#linear-gradient-14);}.cls-37{fill:url(#linear-gradient-2);}.cls-38{fill:url(#Nueva_muestra_de_degradado_11-3);}.cls-39{fill:url(#linear-gradient-23);}.cls-40{fill:url(#Nueva_muestra_de_degradado_11-5);}.cls-86{stroke-width:6px;}.cls-41{fill:#5f89ad;}.cls-42{fill:url(#linear-gradient-7);}.cls-43{fill:url(#radial-gradient-2);}.cls-44{fill:url(#linear-gradient-3);}.cls-87{stroke:#1c4a75;}.cls-98{clip-path:url(#clippath);}.cls-88{stroke:snow;}.cls-45{fill:url(#radial-gradient-5);}.cls-46{fill:url(#linear-gradient-9);}.cls-47{fill:url(#linear-gradient-27);}.cls-48{fill:url(#radial-gradient);}.cls-49{fill:#1c8a7c;}.cls-51{fill:url(#Nueva_muestra_de_degradado_60);}.cls-99{clip-path:url(#clippath-3);}.cls-89{opacity:.8;}.cls-52{fill:url(#linear-gradient-8);}.cls-53{fill:#d2a57d;}.cls-54{fill:#eef7fb;}.cls-55{fill:url(#linear-gradient-26);}.cls-56{fill:url(#linear-gradient-18);}.cls-57{fill:#cedce7;}.cls-58{fill:#1da1dc;}.cls-58,.cls-66{opacity:.6;}.cls-59{fill:#e8ceb7;}.cls-100{mask:url(#mask);}.cls-60{fill:url(#linear-gradient-29);}.cls-62{fill:#225b8b;}.cls-63{fill:url(#Nueva_muestra_de_degradado_11-4);}.cls-64{fill:url(#linear-gradient-28);}.cls-65{fill:url(#linear-gradient-10);}.cls-66{fill:#00b287;}.cls-67{opacity:.3;}.cls-68{fill:url(#radial-gradient-3);}.cls-69{fill:#85a5c1;}.cls-70{fill:url(#Degradado_sin_nombre_539);fill-opacity:.52;}.cls-91{stroke:#1e5d95;stroke-linecap:round;stroke-linejoin:round;}.cls-71{fill:url(#linear-gradient-22);}</style><radialGradient id="radial-gradient" cx="1063.68" cy="1785.23" fx="979.67" fy="1502.41" r="941.23" gradientTransform="translate(23.71 804.71) scale(.84 .45)" gradientUnits="userSpaceOnUse"><stop offset=".45" stop-color="#90aac1" stop-opacity=".2"/><stop offset="1" stop-color="#90aac1" stop-opacity="0"/></radialGradient><linearGradient id="linear-gradient" x1="-4209.95" y1="874.68" x2="-4236.11" y2="1074.77" gradientTransform="translate(-3303.06) rotate(-180) scale(1 -1)" gradientUnits="userSpaceOnUse"><stop offset="0" stop-color="#d4ecf6"/><stop offset=".2" stop-color="#cfe8f5"/><stop offset=".43" stop-color="#c1dcf4"/><stop offset=".55" stop-color="#b7d4f4"/><stop offset="1" stop-color="#b7d4f4"/></linearGradient><linearGradient id="linear-gradient-2" x1="-4174.35" y1="1039.39" x2="-4363.44" y2="1042.26" gradientTransform="translate(-3099.13 -616.51) rotate(-171.35) scale(1 -1)" gradientUnits="userSpaceOnUse"><stop offset="0" stop-color="#4a7fb0"/><stop offset=".45" stop-color="#b7d4f4"/><stop offset=".53" stop-color="#c4dcf5"/><stop offset=".7" stop-color="#dbebf8"/><stop offset=".86" stop-color="#e9f4fa"/><stop offset="1" stop-color="#eef7fb"/></linearGradient><linearGradient id="linear-gradient-3" x1="-3547.34" y1="1526.23" x2="-4674.93" y2="1526.23" gradientTransform="translate(-3303.06) rotate(-180) scale(1 -1)" gradientUnits="userSpaceOnUse"><stop offset="0" stop-color="#b7d4f4"/><stop offset=".45" stop-color="#b7d4f4"/><stop offset=".57" stop-color="#c1dcf4"/><stop offset=".8" stop-color="#cfe8f5"/><stop offset="1" stop-color="#d4ecf6"/></linearGradient><linearGradient id="linear-gradient-4" x1="-4376.82" y1="1486.93" x2="-3787.33" y2="1490.18" gradientTransform="translate(-3303.06) rotate(-180) scale(1 -1)" gradientUnits="userSpaceOnUse"><stop offset="0" stop-color="#eef7fb"/><stop offset="0" stop-color="#edf6fa"/><stop offset=".59" stop-color="#e5f4fa"/><stop offset="1" stop-color="#d4ecf6"/></linearGradient><linearGradient id="linear-gradient-5" x1="-3803.35" y1="1399.22" x2="-4423.83" y2="1399.22" xlink:href="#linear-gradient-3"/><radialGradient id="radial-gradient-2" cx="-4112.2" cy="1234.21" fx="-4112.2" fy="1234.21" r="267.01" gradientTransform="translate(-1207.7 5319.69) rotate(90) scale(.99 -1.64)" gradientUnits="userSpaceOnUse"><stop offset="0" stop-color="#fafbfc"/><stop offset=".13" stop-color="#f5f8fa"/><stop offset=".32" stop-color="#f2f7f9"/><stop offset=".41" stop-color="#ebf4f8"/><stop offset=".48" stop-color="#deeff7"/><stop offset=".51" stop-color="#d4ecf6"/><stop offset=".52" stop-color="#d4ecf6"/><stop offset=".76" stop-color="#e1f2f9"/><stop offset=".99" stop-color="#e6f4fa"/></radialGradient><linearGradient id="linear-gradient-6" x1="-4278.25" y1="623.2" x2="-4368.02" y2="674.77" gradientTransform="translate(5092.53 -949.62) rotate(-30) scale(1 -1)" gradientUnits="userSpaceOnUse"><stop offset=".08" stop-color="#eef7fb"/><stop offset=".29" stop-color="#e5f4fa"/><stop offset=".45" stop-color="#d8edf6"/><stop offset=".49" stop-color="#d4ecf6"/><stop offset="1" stop-color="#d4ecf6"/></linearGradient><linearGradient id="linear-gradient-7" x1="-4545.6" y1="280.76" x2="-4094.85" y2="1037.1" gradientTransform="translate(5092.53 -949.62) rotate(-30) scale(1 -1)" gradientUnits="userSpaceOnUse"><stop offset="0" stop-color="#78aad6"/><stop offset=".18" stop-color="#78aad6" stop-opacity="0"/><stop offset=".78" stop-color="#78aad6" stop-opacity="0"/><stop offset=".81" stop-color="#76a8d4" stop-opacity=".04"/><stop offset=".84" stop-color="#70a3d0" stop-opacity=".15"/><stop offset=".89" stop-color="#689bc9" stop-opacity=".34"/><stop offset=".93" stop-color="#5c90bf" stop-opacity=".59"/><stop offset=".99" stop-color="#4d82b3" stop-opacity=".92"/><stop offset="1" stop-color="#4a7fb0"/></linearGradient><linearGradient id="linear-gradient-8" x1="-4646.08" y1="736.82" x2="-4915.87" y2="1221.63" gradientTransform="translate(-3513.21 177.47) rotate(171.35) scale(1 -1)" gradientUnits="userSpaceOnUse"><stop offset=".03" stop-color="#eef7fb"/><stop offset=".18" stop-color="#d4ecf6"/><stop offset=".44" stop-color="#cfe8f5"/><stop offset=".73" stop-color="#c1dcf4"/><stop offset=".89" stop-color="#b7d4f4"/><stop offset="1" stop-color="#b7d4f4"/></linearGradient><linearGradient id="Nueva_muestra_de_degradado_11" x1="-4894.73" y1="967.42" x2="-4647.93" y2="1002.34" gradientTransform="translate(-3513.21 177.47) rotate(171.35) scale(1 -1)" gradientUnits="userSpaceOnUse"><stop offset="0" stop-color="#fafbfc"/><stop offset=".55" stop-color="#f5f8fa"/><stop offset=".99" stop-color="#e6f4fa"/><stop offset=".99" stop-color="#d4ecf6" stop-opacity=".9"/></linearGradient><linearGradient id="linear-gradient-9" x1="-4703.86" y1="743.63" x2="-4710.28" y2="792.72" gradientTransform="translate(-560.91 -4170.42) rotate(-121.85) scale(1 -1)" xlink:href="#linear-gradient"/><linearGradient id="Nueva_muestra_de_degradado_11-2" x1="-4753.99" y1="766.7" x2="-4676.51" y2="777.66" xlink:href="#Nueva_muestra_de_degradado_11"/><linearGradient id="linear-gradient-10" x1="-4125.5" y1="943.01" x2="-4187.08" y2="1261.45" gradientTransform="translate(-3303.06) rotate(-180) scale(1 -1)" gradientUnits="userSpaceOnUse"><stop offset="0" stop-color="#4a7fb0"/><stop offset=".39" stop-color="#b7d4f4"/><stop offset=".53" stop-color="#c6def6"/><stop offset=".83" stop-color="#e3f0f9"/><stop offset="1" stop-color="#eef7fb"/></linearGradient><linearGradient id="linear-gradient-11" x1="-4105.09" y1="890.26" x2="-4131.26" y2="1090.35" xlink:href="#linear-gradient"/><linearGradient id="Nueva_muestra_de_degradado_11-3" x1="-4139.82" y1="1045.3" x2="-3988.52" y2="1066.71" gradientTransform="translate(-3303.06) rotate(-180) scale(1 -1)" xlink:href="#Nueva_muestra_de_degradado_11"/><linearGradient id="linear-gradient-12" x1="-4061.87" y1="957.8" x2="-4077.85" y2="1080" xlink:href="#linear-gradient"/><linearGradient id="Nueva_muestra_de_degradado_11-4" x1="-4082.7" y1="1052.54" x2="-3991.12" y2="1065.5" gradientTransform="translate(-3303.06) rotate(-180) scale(1 -1)" xlink:href="#Nueva_muestra_de_degradado_11"/><radialGradient id="radial-gradient-3" cx="995.21" cy="2012.54" fx="995.21" fy="2012.54" r="108.85" gradientTransform="translate(0 977.99) scale(1 .52)" gradientUnits="userSpaceOnUse"><stop offset="0" stop-color="#90aac1" stop-opacity=".3"/><stop offset="1" stop-color="#90aac1" stop-opacity="0"/></radialGradient><linearGradient id="linear-gradient-13" x1="1005.08" y1="2038.2" x2="1005.08" y2="1790.81" gradientUnits="userSpaceOnUse"><stop offset="0" stop-color="#0b477d"/><stop offset=".26" stop-color="#0a4478"/><stop offset=".51" stop-color="#093d6c"/><stop offset=".77" stop-color="#073158"/><stop offset="1" stop-color="#052340"/></linearGradient><linearGradient id="Degradado_sin_nombre_262" x1="3599.72" y1="-1729.21" x2="3622.5" y2="-1729.21" gradientTransform="translate(-2953.05 1390.68) rotate(29.7) skewX(-.36)" gradientUnits="userSpaceOnUse"><stop offset="0" stop-color="#05034f" stop-opacity=".3"/><stop offset="1" stop-color="#05034f" stop-opacity="0"/></linearGradient><clipPath id="clippath"><path class="cls-24" d="m1045.89,1655.03c4.25,4.81,5.49,97.33,10.94,124.94-2.54,6.35-30.16,14.86-29.74,12.79,2.1-9.32,1.36-119.5-5.66-141.95,0,0,15.25-4.61,24.47,4.22Z"/></clipPath><clipPath id="clippath-1"><path class="cls-24" d="m991.55,1659.26c-3.35-.77-30.57,14.55-30.21,17.3,10.24,3.13,21.17,58.9,2.27,55.17-.61-.12-1.51,1.93-1.34,3.13,7.68,52.85-23.6,56.22,52.97,60.02,0,0-11.74-124.84-23.7-135.62Z"/></clipPath><radialGradient id="radial-gradient-4" cx="1663.2" cy="1721.33" fx="1663.2" fy="1721.33" r="717.13" gradientTransform="translate(0 292.09) scale(1 .78)" gradientUnits="userSpaceOnUse"><stop offset="0" stop-color="#61eebb"/><stop offset=".64" stop-color="#21c698" stop-opacity=".34"/><stop offset="1" stop-color="#00b287" stop-opacity="0"/></radialGradient><linearGradient id="linear-gradient-14" x1="2067.27" y1="1977.59" x2="1815.31" y2="1657.45" gradientUnits="userSpaceOnUse"><stop offset=".01" stop-color="#78aad6"/><stop offset=".03" stop-color="#7aabd7"/><stop offset=".26" stop-color="#94bde3"/><stop offset=".5" stop-color="#a7c9ec"/><stop offset=".74" stop-color="#b3d1f2"/><stop offset="1" stop-color="#b7d4f4"/></linearGradient><linearGradient id="Nueva_muestra_de_degradado_11-5" x1="1186.89" y1="1390.41" x2="2099.2" y2="1519.51" gradientTransform="matrix(1,0,0,1,0,0)" xlink:href="#Nueva_muestra_de_degradado_11"/><linearGradient id="Nueva_muestra_de_degradado_60" x1="1402.43" y1="1038.09" x2="1373.27" y2="1085.8" gradientUnits="userSpaceOnUse"><stop offset="0" stop-color="#a9a7b7"/><stop offset=".59" stop-color="#8c8a9f"/><stop offset="1" stop-color="#7d7c93"/></linearGradient><linearGradient id="Nueva_muestra_de_degradado_65" x1="1321.85" y1="1056.88" x2="1679.44" y2="1056.88" gradientUnits="userSpaceOnUse"><stop offset="0" stop-color="#22294d"/><stop offset="1" stop-color="#374375"/></linearGradient><linearGradient id="linear-gradient-15" x1="1578.64" y1="1086.15" x2="1520.44" y2="1067.24" gradientUnits="userSpaceOnUse"><stop offset="0" stop-color="#ff844d"/><stop offset="1" stop-color="#ff66bf"/></linearGradient><linearGradient id="Degradado_sin_nombre_539" x1="-19366.35" y1="-17879.51" x2="-19166.52" y2="-18167.41" gradientTransform="translate(-3332.79 8398.07) rotate(106.32) scale(.33 .15) skewX(18.04)" gradientUnits="userSpaceOnUse"><stop offset="0" stop-color="#ff5eb7" stop-opacity=".6"/><stop offset=".21" stop-color="#ff5fa6" stop-opacity=".45"/><stop offset=".59" stop-color="#ff618c" stop-opacity=".21"/><stop offset=".86" stop-color="#ff627c" stop-opacity=".06"/><stop offset="1" stop-color="#ff6376" stop-opacity="0"/></linearGradient><linearGradient id="Nueva_muestra_de_degradado_36" x1="-19272.44" y1="-17719.72" x2="-19003.28" y2="-17719.72" gradientTransform="translate(-3332.79 8398.07) rotate(106.32) scale(.33 .15) skewX(18.04)" gradientUnits="userSpaceOnUse"><stop offset="0" stop-color="#ff6376" stop-opacity=".4"/><stop offset="1" stop-color="#ff6376" stop-opacity="0"/></linearGradient><linearGradient id="linear-gradient-16" x1="1307.42" y1="2294.47" x2="1448.64" y2="1486.07" gradientUnits="userSpaceOnUse"><stop offset=".1" stop-color="#d4ecf6" stop-opacity="0"/><stop offset=".19" stop-color="#d4ecf6" stop-opacity=".02"/><stop offset=".3" stop-color="#d4ecf6" stop-opacity=".09"/><stop offset=".43" stop-color="#d4ecf6" stop-opacity=".2"/><stop offset=".57" stop-color="#d4ecf6" stop-opacity=".35"/><stop offset=".72" stop-color="#d4ecf6" stop-opacity=".54"/><stop offset=".87" stop-color="#d4ecf6" stop-opacity=".77"/><stop offset="1" stop-color="#d4ecf6"/></linearGradient><linearGradient id="linear-gradient-17" x1="1452.86" y1="2163.85" x2="1251.44" y2="1623.19" gradientUnits="userSpaceOnUse"><stop offset=".32" stop-color="#d4ecf6" stop-opacity="0"/><stop offset=".38" stop-color="#d4ecf6" stop-opacity=".02"/><stop offset=".47" stop-color="#d4ecf6" stop-opacity=".09"/><stop offset=".57" stop-color="#d4ecf6" stop-opacity=".19"/><stop offset=".67" stop-color="#d4ecf6" stop-opacity=".34"/><stop offset=".78" stop-color="#d4ecf6" stop-opacity=".52"/><stop offset=".89" stop-color="#d4ecf6" stop-opacity=".75"/><stop offset="1" stop-color="#d4ecf6"/></linearGradient><linearGradient id="linear-gradient-18" x1="1435.66" y1="1799.38" x2="1601.74" y2="1714.57" gradientUnits="userSpaceOnUse"><stop offset="0" stop-color="#d4ecf6" stop-opacity="0"/><stop offset=".1" stop-color="#d4ecf6" stop-opacity=".06"/><stop offset=".29" stop-color="#d4ecf6" stop-opacity=".23"/><stop offset=".56" stop-color="#d4ecf6" stop-opacity=".5"/><stop offset=".89" stop-color="#d4ecf6" stop-opacity=".87"/><stop offset="1" stop-color="#d4ecf6"/></linearGradient><linearGradient id="linear-gradient-19" x1="2137.48" y1="2047.28" x2="1956.27" y2="1892.91" gradientUnits="userSpaceOnUse"><stop offset=".2" stop-color="#90aac1" stop-opacity="0"/><stop offset="1" stop-color="#90aac1" stop-opacity=".2"/></linearGradient><linearGradient id="linear-gradient-20" x1="1392.08" y1="1563.07" x2="1267.52" y2="2048.07" gradientUnits="userSpaceOnUse"><stop offset="0" stop-color="#fff"/><stop offset=".11" stop-color="#fafafa"/><stop offset=".23" stop-color="#ebebeb"/><stop offset=".36" stop-color="#d4d4d4"/><stop offset=".5" stop-color="#b3b3b3"/><stop offset=".65" stop-color="#898989"/><stop offset=".79" stop-color="#555"/><stop offset=".94" stop-color="#191919"/><stop offset="1" stop-color="#000"/></linearGradient><mask id="mask" x="1035.83" y="1542.02" width="516.95" height="507.13" maskUnits="userSpaceOnUse"><rect class="cls-35" x="1119.41" y="1670.29" width="398.4" height="357.7"/></mask><clipPath id="clippath-2"><polygon class="cls-23" points="1476.97 1999.45 1145.78 1901.78 1153.85 1896.79 1153.85 1855.29 1192.22 1866.17 1192.22 1732.51 1476.97 1805.79 1476.97 1999.45"/></clipPath><linearGradient id="linear-gradient-21" x1="1226.42" y1="1839.28" x2="1183.92" y2="1785.28" gradientUnits="userSpaceOnUse"><stop offset="0" stop-color="#e5f4fa"/><stop offset=".06" stop-color="#d7eaf5"/><stop offset=".24" stop-color="#b5d3ea"/><stop offset=".42" stop-color="#9ac1e1"/><stop offset=".61" stop-color="#87b4db"/><stop offset=".8" stop-color="#7bacd7"/><stop offset="1" stop-color="#78aad6"/></linearGradient><linearGradient id="linear-gradient-22" x1="1357.55" y1="1759.9" x2="1347.11" y2="1798.68" gradientUnits="userSpaceOnUse"><stop offset=".4" stop-color="#1c4a75"/><stop offset=".47" stop-color="#1c4a75" stop-opacity=".83"/><stop offset=".64" stop-color="#1c4a75" stop-opacity=".47"/><stop offset=".78" stop-color="#1c4a75" stop-opacity=".21"/><stop offset=".91" stop-color="#1c4a75" stop-opacity=".06"/><stop offset="1" stop-color="#1c4a75" stop-opacity="0"/></linearGradient><linearGradient id="linear-gradient-23" x1="1550.29" y1="1867.41" x2="1421.99" y2="1864.42" xlink:href="#linear-gradient-22"/><linearGradient id="linear-gradient-24" x1="1151.3" y1="1805.4" x2="1240.82" y2="1831.13" xlink:href="#linear-gradient-22"/><linearGradient id="linear-gradient-25" x1="1309.19" y1="1943.75" x2="1330.57" y2="1875.13" gradientUnits="userSpaceOnUse"><stop offset="0" stop-color="#e6f4fa"/><stop offset=".09" stop-color="#e6f4fa" stop-opacity=".86"/><stop offset=".28" stop-color="#e6f4fa" stop-opacity=".61"/><stop offset=".46" stop-color="#e6f4fa" stop-opacity=".39"/><stop offset=".63" stop-color="#e6f4fa" stop-opacity=".22"/><stop offset=".78" stop-color="#e6f4fa" stop-opacity=".1"/><stop offset=".91" stop-color="#e6f4fa" stop-opacity=".03"/><stop offset="1" stop-color="#e6f4fa" stop-opacity="0"/></linearGradient><radialGradient id="radial-gradient-5" cx="1664.86" cy="932.04" fx="1664.86" fy="932.04" r="108.85" xlink:href="#radial-gradient-3"/><linearGradient id="Nueva_muestra_de_degradado_13" x1="-4412.56" y1="1381.68" x2="-3969.14" y2="1131.81" gradientTransform="translate(-2655.9) rotate(-180) scale(1 -1)" gradientUnits="userSpaceOnUse"><stop offset="0" stop-color="#01171a" stop-opacity="0"/><stop offset="1" stop-color="#01171a"/></linearGradient><linearGradient id="linear-gradient-26" x1="-4366.13" y1="1282.27" x2="-3984.5" y2="1273.79" gradientTransform="translate(-2655.9) rotate(-180) scale(1 -1)" gradientUnits="userSpaceOnUse"><stop offset=".09" stop-color="#01171a" stop-opacity="0"/><stop offset="1" stop-color="#01171a"/></linearGradient><clipPath id="clippath-3"><path class="cls-24" d="m1609.65,1196.72c-.18,5.35-.36,10.78.95,15.96.64,2.54,2.05,5.36,4.64,5.8,1.05.18,2.14-.09,3.11-.53,3.34-1.52,5.38-4.9,7.12-8.13,3.48-6.46,6.67-13.21,7.9-20.45,1.23-7.24.33-15.08-3.83-21.13,14.84-8.62,33.66-10.97,50.61-8.32-.26,16.59,2.69,32.33,2.43,48.91-.08,4.95-.15,9.98,1.25,14.73,1.41,4.79,4.22,9.02,6.88,13.26,4.16,6.63,8.01,13.45,11.55,20.44-13.45,7.2-28.33,11.22-43.06,15.19-7.09,1.91-14.26,3.83-21.6,4.04-16.4.46-31.7-7.57-46.12-15.39,7.41-22.41,7.16-43.53,18.19-64.39Z"/></clipPath><linearGradient id="linear-gradient-27" x1="-4367.68" y1="1178.93" x2="-4166.68" y2="1174.47" xlink:href="#linear-gradient-26"/><linearGradient id="linear-gradient-28" x1="1720.82" y1="1128.32" x2="1671.58" y2="1182.25" gradientUnits="userSpaceOnUse"><stop offset=".15" stop-color="#3cb3a3"/><stop offset=".2" stop-color="#39a9a0"/><stop offset=".43" stop-color="#2f8797"/><stop offset=".64" stop-color="#276e90"/><stop offset=".84" stop-color="#23608c"/><stop offset="1" stop-color="#225b8b"/></linearGradient><linearGradient id="linear-gradient-29" x1="-4225.98" y1="1089.9" x2="-4223.92" y2="1061.46" gradientTransform="translate(-2655.9) rotate(-180) scale(1 -1)" gradientUnits="userSpaceOnUse"><stop offset=".15" stop-color="#0f0b26" stop-opacity="0"/><stop offset=".67" stop-color="#0f0b26" stop-opacity=".3"/></linearGradient></defs><g id="Crane"><ellipse class="cls-48" cx="916.03" cy="1602.05" rx="789.6" ry="420.38"/><line class="cls-82" x1="1491.21" y1="649.98" x2="1491.21" y2="1030.26"/><path class="cls-7" d="m890.13,892.08c12.36-2.55,25.94,1.27,39.55,12.42,40.08,32.83,65.26,116.6,56.22,187.1-6.71,52.38-27.22,73.53-58.6,81.33h0l-36.92,7.28-38.92-281.13,38.66-6.99Z"/><ellipse class="cls-37" cx="873.09" cy="1039.42" rx="72.09" ry="142.01" transform="translate(-146.45 143.2) rotate(-8.65)"/><ellipse class="cls-75" cx="813.54" cy="1526.23" rx="555.86" ry="170.51"/><ellipse class="cls-79" cx="813.54" cy="1526.23" rx="555.86" ry="170.51"/><ellipse class="cls-77" cx="813.54" cy="1526.23" rx="555.86" ry="170.51"/><path class="cls-44" d="m262.03,1504.82c34.33-84.06,268.16-149.1,551.51-149.1s517.18,65.04,551.51,149.1h4.35v21.41c0,94.17-248.87,170.51-555.86,170.51s-555.86-76.34-555.86-170.51v-21.41h4.35Z"/><path class="cls-95" d="m257.67,1504.82c0,94.17,248.87,170.51,555.86,170.51s555.86-76.34,555.86-170.51-248.87-203.43-555.86-203.43-555.86,109.26-555.86,203.43Z"/><path class="cls-90" d="m1062.36,1457.8c140.73,39.26,234.98,131.02,234.98,131.02"/><path class="cls-83" d="m553.13,1435.6c-148.59-14.75-295.46,90.63-295.46,90.63"/><ellipse class="cls-75" cx="813.54" cy="1403.24" rx="305.87" ry="93.83"/><ellipse class="cls-79" cx="813.54" cy="1403.24" rx="305.87" ry="93.83"/><ellipse class="cls-77" cx="813.54" cy="1403.24" rx="305.87" ry="93.83"/><path class="cls-21" d="m604.2,1328.28c18.89-46.26,53.41-18.87,209.33-18.87s261.62-16.67,280.51,29.58l25.36,24.98v39.26c0,51.82-136.94,93.83-305.87,93.83s-305.87-42.01-305.87-93.83v-39.26l96.54-35.7Z"/><path class="cls-43" d="m507.66,1363.98c0,51.82,136.94,93.83,305.87,93.83s305.87-42.01,305.87-93.83-136.94-137.74-305.87-137.74-305.87,85.92-305.87,137.74Z"/><ellipse class="cls-27" cx="813.54" cy="1279.52" rx="143.29" ry="43.95"/><path class="cls-34" d="m813.54,1237.56c38.08,0,73.86,4.54,100.74,12.79,25.77,7.91,40.56,18.54,40.56,29.17s-14.78,21.26-40.56,29.17c-26.88,8.25-62.66,12.79-100.74,12.79s-73.86-4.54-100.74-12.79c-25.77-7.91-40.56-18.54-40.56-29.17s14.78-21.26,40.56-29.17c26.88-8.25,62.66-12.79,100.74-12.79m0-2c-79.14,0-143.29,19.68-143.29,43.95s64.15,43.95,143.29,43.95,143.29-19.68,143.29-43.95-64.15-43.95-143.29-43.95h0Z"/><path class="cls-54" d="m911.43,972.26l29.61,327.34s-13.59,8.33-51.73,17.23c-27.51,6.42-61.38,6.42-61.38,6.42l-77.95-40.75-31.7-102.47,193.15-207.76Z"/><polygon class="cls-6" points="718.28 1284.54 718.28 1180.02 830.02 1218.31 827.93 1323.25 718.28 1284.54"/><path class="cls-12" d="m956.54,178.71h130.83v875.41c0,37.06-30.09,67.15-67.15,67.15h-63.69V178.71h0Z" transform="translate(1582.01 1723.87) rotate(-150)"/><path class="cls-42" d="m956.54,178.71h130.83v875.41c0,37.06-30.09,67.15-67.15,67.15h-63.69V178.71h0Z" transform="translate(1582.01 1723.87) rotate(-150)"/><path class="cls-52" d="m1526.41,671.87h0c16.55-12.19,21.24-34.9,10.88-52.65l-243.73-417.23c-11.76-15.97-32.16-23-51.26-17.66l-46.26,12.92c-31.46,8.79-61.11,73.66-41.74,99.97l305.18,364.48c15.68,21.29,45.64,25.84,66.93,10.17Z"/><path class="cls-13" d="m1519.7,663.36c-13.07,0-27.06-7.98-36.52-20.83l-270.52-367.4c-2.09-2.84-4.42-5.86-6.88-9.05-13.31-17.27-29.87-38.76-25.49-53.75,1.83-6.27,7.09-10.89,16.08-14.13l57.88-15.03c1.57-.27,3.28-.41,5.01-.41,12.98,0,26.9,7.94,36.32,20.72l242.78,412.18c9.88,15.96,8.76,34.3-2.6,42.66-4.49,3.3-10.04,5.05-16.07,5.05h0Z"/><path class="cls-34" d="m1259.27,183.75c12.66,0,26.25,7.76,35.49,20.27l242.77,412.17c9.59,15.5,8.58,33.26-2.36,41.31-4.32,3.18-9.67,4.86-15.48,4.86-12.75,0-26.44-7.83-35.71-20.43l-270.52-367.4c-2.1-2.85-4.43-5.87-6.89-9.07-13.17-17.09-29.56-38.36-25.32-52.86,1.73-5.92,6.76-10.31,15.38-13.44l57.8-15.01c1.57-.27,3.2-.4,4.84-.4m0-2c-1.78,0-3.54.15-5.26.44l-57.97,15.06c-39.39,14.2-2.34,53.8,15.82,78.47l270.52,367.4c10,13.58,24.39,21.24,37.32,21.24,6.08,0,11.83-1.69,16.66-5.25,11.75-8.65,12.99-27.62,2.87-43.97l-242.8-412.22c-9.71-13.19-23.98-21.17-37.16-21.17h0Z"/><ellipse class="cls-46" cx="1259.73" cy="242.11" rx="29.44" ry="42.08" transform="translate(540.99 1304.63) rotate(-66.8)"/><path class="cls-9" d="m1278.35,261.09c-17.75,0-36.24-9.8-44.96-23.82-4.95-7.96-6.04-16.16-3.08-23.08,2.96-6.92,9.63-11.79,18.79-13.71,2.76-.58,5.69-.87,8.7-.87,17.75,0,36.24,9.8,44.96,23.82,4.95,7.96,6.04,16.16,3.08,23.08-2.96,6.92-9.63,11.79-18.79,13.71-2.76.58-5.69.87-8.7.87h0Z"/><path class="cls-34" d="m1257.79,200.61c17.42,0,35.56,9.6,44.11,23.35,4.77,7.67,5.84,15.54,3.01,22.16-2.83,6.61-9.24,11.27-18.07,13.12-2.69.56-5.55.85-8.49.85-17.42,0-35.56-9.6-44.11-23.35-4.77-7.67-5.84-15.54-3.01-22.16,2.83-6.61,9.24-11.27,18.07-13.12,2.69-.56,5.55-.85,8.49-.85m0-2c-3.03,0-6.02.29-8.9.89-19.62,4.11-26.94,21.26-16.35,38.3,9.04,14.53,28.19,24.29,45.81,24.29,3.03,0,6.02-.29,8.9-.89,19.62-4.11,26.94-21.26,16.35-38.3-9.04-14.53-28.19-24.29-45.81-24.29h0Z"/><path class="cls-65" d="m911.43,972.26s-19.42,61.04-74.73,33.22c-55.31-27.82-88.03-12.98-88.03-12.98l81.34,225.81,103.65-.19-22.24-245.86Z"/><path class="cls-18" d="m785.28,907.66c12.36-2.55,25.94,1.27,39.55,12.42,40.08,32.83,65.26,116.6,56.22,187.1-6.71,52.38-27.22,73.53-58.6,81.33h0l-36.92,7.28-38.92-281.13,38.66-6.99Z"/><path class="cls-38" d="m784.01,1194.84c-10.39,0-20.99-4.37-31.49-12.97-39.79-32.59-64.85-116.11-55.86-186.2,6.27-48.92,28.18-80.53,55.82-80.53,10.39,0,20.99,4.36,31.49,12.97,39.79,32.59,64.85,116.11,55.87,186.2-6.27,48.92-28.18,80.53-55.81,80.53h0Z"/><path class="cls-34" d="m752.47,916.15c10.15,0,20.53,4.29,30.86,12.74,39.55,32.39,64.45,115.51,55.51,185.29-3.13,24.46-10.13,44.87-20.24,59.02-9.64,13.5-21.6,20.64-34.59,20.64-10.15,0-20.53-4.29-30.86-12.74-39.55-32.39-64.45-115.51-55.51-185.29,3.13-24.46,10.13-44.87,20.24-59.02,9.64-13.5,21.6-20.64,34.59-20.64m0-2c-27.39,0-50.24,30.13-56.81,81.4-9.03,70.5,16.14,154.26,56.22,187.1,10.93,8.96,21.85,13.2,32.13,13.2,27.39,0,50.24-30.13,56.81-81.4,9.03-70.5-16.14-154.26-56.22-187.1-10.93-8.96-21.85-13.2-32.13-13.2h0Z"/><ellipse class="cls-86" cx="763.73" cy="1053.17" rx="44.02" ry="86.73" transform="translate(-149.76 126.9) rotate(-8.65)"/><ellipse class="cls-84" cx="763.73" cy="1053.17" rx="44.02" ry="86.73" transform="translate(-149.76 126.9) rotate(-8.65)"/><ellipse class="cls-78" cx="763.73" cy="1053.17" rx="44.02" ry="86.73" transform="translate(-149.76 126.9) rotate(-8.65)"/><path class="cls-2" d="m748.57,968.43c7.55-1.56,15.84.78,24.15,7.59,24.48,20.05,39.85,71.21,34.34,114.26-4.1,31.99-16.62,44.91-35.79,49.67h0l-22.55,4.45-23.77-171.69,23.61-4.27Z"/><path class="cls-63" d="m747.8,1143.42c-6.25,0-12.64-2.64-18.99-7.83-24.21-19.83-39.45-70.68-33.98-113.36,3.8-29.67,17.03-48.84,33.7-48.84,6.25,0,12.64,2.64,18.99,7.83,24.21,19.83,39.45,70.68,33.98,113.36-3.8,29.67-17.03,48.84-33.7,48.84h0Z"/><path class="cls-34" d="m728.54,974.39c6.02,0,12.19,2.56,18.35,7.61,23.97,19.63,39.05,70.08,33.62,112.46-3.73,29.14-16.57,47.97-32.71,47.97-6.02,0-12.19-2.56-18.35-7.61-23.97-19.63-39.05-70.08-33.62-112.46,3.73-29.14,16.57-47.97,32.71-47.97m0-2c-16.73,0-30.68,18.4-34.69,49.71-5.52,43.05,9.86,94.21,34.34,114.26,6.68,5.47,13.35,8.06,19.62,8.06,16.73,0,30.68-18.4,34.69-49.71,5.52-43.05-9.86-94.21-34.34-114.26-6.68-5.47-13.35-8.06-19.62-8.06h0Z"/></g><g id="Man"><ellipse class="cls-68" cx="995.21" cy="2031.89" rx="108.85" ry="57"/><path class="cls-62" d="m1017.77,1990.96l-.63,23.76c-3.56,6.46,38.07,22.99,22.67,5.48,0,0-7.14-11.02-7.14-11.02l1.66-18.22h-16.56Z"/><path class="cls-62" d="m973.8,2040.64l1.66-18.22h-16.56l-.63,23.76c-3.56,6.46,38.07,22.99,22.67,5.48,0,0-7.14-11.02-7.14-11.02Z"/><path class="cls-30" d="m1047.24,1779.62l-35.97,8.73-32.9-6.39c-13.63,20.67-17.91,66.81-12.85,138.42-8.95,20.6-10.91,59.69-5.88,117.29,3.88,4,9.08,5.12,15.59,3.37,14.26-52.7,25.92-108.92,35.18-169.77,3.56,43.19,8,88.97,7.19,133.28,3.88,4,9.08,5.12,15.59,3.37,20.55-74.44,25.42-150.97,14.05-228.3Z"/><path class="cls-17" d="m1144.14,1682.81l-4.05-11.83c-29.47,15.75-53.11,29.69-70.9,41.81-11.62-39.55-23.56-59.41-30.25-61.38l-16.83,47.78c44.08,81.7,67.21,45.51,122.02-16.37Z"/><path class="cls-19" d="m1027.27,1707.37c2.83,5.79,6.32,11.13,10.47,16.01,4.17-11.26,5.85-29.31,5.02-54.14-3.03,16.36-8.2,29.07-15.5,38.13Z"/><path class="cls-57" d="m1021.2,1654.68c6.13,23.43-15.06,11.8-27.98,5.48,10.74,34.41,14.26,84.04,10.56,148.87,9.44.19,18.5-1.58,27.18-5.31,8.68-90.72,5.42-140.4-9.76-149.04Z"/><path class="cls-17" d="m962.72,1676.95c-17.15,5.72,8.82,78.97,7.76,90.34,0,0-8.85,32.89-8.85,32.89,8.68,11.84,21.76,17.82,39.23,17.93,26.39-46.27-3.24-129.76-7.65-157.95-9.52,4.34-19.68,9.94-30.49,16.79m86.17-13.25c-4.92-23.21-38.01-11.54-55.62-3.54,12.87,6.33,34.06,17.94,27.92-5.48,24.25,6.86,1.41,103.27,19.59,162.23,24.61-3.44,7.32-36.29,5.42-43.23,6.82-60.15,7.71-96.81,2.69-109.98Z"/><path class="cls-14" d="m1019.26,1603.57v13.93l6.17,4c5.28-10.62,3.5-14.69-6.17-17.93Z"/><path class="cls-59" d="m1019.54,1639.71c9.08-1.73,5.49-16.62,5.94-23.18-4.45-28.96-42.92-10.14-25.52,15.82-1.71,10.39-4.05,19.49-7.02,27.3,11.81,6.82,34.8,18.56,28.27-4.97l.17.06-1.83-15.02Z"/><path class="cls-69" d="m1023.31,1610.19c6.78-6.93,6.22-13-1.66-18.22-2.74-.11-4.66,1.29-5.77,4.23-1.98.08-4.05.97-6.22,2.68-15.65,2.32-18.19,20.6-9.54,33.52,1.03.57,2.06-1.16,3.08-5.2-7.77-9.24,2.6-12.53,3.31-1.66,4.76-5.82,5.03-10.75.8-14.79,3.24-3.46,8.57-3.65,15.99-.57Z"/><path id="_23" class="cls-91" d="m1013.83,1621.96l-7.82-2.63"/><path id="S2" class="cls-91" d="m1022.11,1621.21c1.11,6.61,9.15-3.33,5.37-5.94-2.82-1-5.42,3.43-5.37,5.94Z"/><path id="S" class="cls-91" d="m1013.49,1624.87c.77,5.6,6.85-.75,6.28-3.83-.66-5.74-6.87.66-6.28,3.83Z"/><path id="Str" class="cls-23" d="m1021.6,1621.33l-1.66.63"/><path class="cls-53" d="m1019.94,1643.31l-.34-3.14c-3.42.39-7.11.32-12.28-1.66,4.68,3.58,8.89,5.18,12.62,4.8Z"/><path class="cls-10" d="m961.58,1724.97l5.54,24.5c4.72-14.96,6.57-31.65,5.54-50.08l-11.08,25.58Z"/><path class="cls-96" d="m1045.89,1655.03c4.25,4.81,5.49,97.33,10.94,124.94-2.54,6.35-30.16,14.86-29.74,12.79,2.1-9.32,1.36-119.5-5.66-141.95,0,0,15.25-4.61,24.47,4.22Z"/><g class="cls-98"><path class="cls-88" d="m1061.43,1758.8c-10.6,12.73-27.61,15.17-43.57,16.26"/><path class="cls-88" d="m1059.83,1738.68c-11.85,8.89-28.39,17.98-43.48,12.96"/></g><path class="cls-53" d="m984.14,1832.74l-.54,5.34c12.98,2.22,20.2,2.26,21.68.11-5.11-1.74-12.15-3.55-21.15-5.45Z"/><path class="cls-17" d="m964.1,1677.33c-30.92,16.77-42.92,70.11-47.03,107.18-.96,14.41,28.8,44.92,58.39,56.31,9.09,3.5,15.87,3.01,24.66,2.48l-60.28-56.96c5.52-19.21,50.93-93.79,24.26-109.01Z"/><path class="cls-49" d="m1022.49,1793.09c.96-1.81,2.55-2.64,4.74-2.48l52.9,4.08c2.19.21,3.48,1.77,3.86,4.66l-95.58,65.63c-2.19-2.09-2.8-4.04-1.83-5.86l35.91-66.03Z"/><path class="cls-20" d="m1028.9,1793.9l52.89,4.11c2.22.17,2.84,1.15,1.87,2.94l-35.92,66.05c-.97,1.79-2.57,2.59-4.79,2.42l-52.89-4.11c-2.22-.17-2.84-1.15-1.87-2.94l35.92-66.05c.97-1.79,2.57-2.59,4.79-2.42Z"/><path class="cls-59" d="m991.69,1835.28l-16.22,5.54c11.8,9.57,12.56,12.44,25.08,7.45,2.41,1.16,4.37.82,5.9-1.01l-14.75-11.98Z"/><path class="cls-53" d="m1159.77,1669.09c-.41.15,3.01-5.04,10.25-15.58-6-6.44-20.24,4.86-25.93,15.09l.79,12.79c6.32-1.86,10.42-7.65,14.89-12.31Z"/><path class="cls-59" d="m1156.5,1657.97c-6.75,4.94-10.38,5.09-16.37,14.42l4.24,10.23c2.74.16,17.53-25.03,12.13-24.65Z"/><path class="cls-96" d="m991.55,1659.26c-3.35-.77-30.57,14.55-30.21,17.3,10.24,3.13,21.17,58.9,2.27,55.17-.61-.12-1.51,1.93-1.34,3.13,7.68,52.85-23.6,56.22,52.97,60.02,0,0-11.74-124.84-23.7-135.62Z"/><g class="cls-97"><path class="cls-88" d="m1022.18,1774.94c-28.36,3.29-60.14,2.03-83.17-16.75"/><path class="cls-88" d="m1018.37,1755.49c-27.7,1.27-55.66-3.6-81.3-14.17"/></g></g><g id="Base"><ellipse class="cls-4" cx="1663.2" cy="1637.15" rx="717.13" ry="560.37"/><g id="Base-2"><path id="G" class="cls-36" d="m2058.1,1301.43c-57.88,81.2-137.23,160.82-238.05,238.85-55.92,43.23-117.45,85.25-184.59,126.07-.18.11-.36.2-.53.27v426.16c41.65-24.73,81.19-49.91,118.63-75.54,29.6-20.2,57.88-40.68,84.85-61.44,90.41-69.66,163.65-140.59,219.7-212.79v-441.58Z"/><g id="G-2"><path class="cls-40" d="m1153.43,1545.3c99.96-51.27,189.41-105.69,265.93-161.8,64.68-47.42,120.34-96.24,165.45-145.12l468.85,64.95c-57.28,79.49-136.37,158.53-235.14,234.97-55.29,42.74-116.96,84.89-183.31,125.28l-481.77-118.28Z"/><path class="cls-27" d="m1585.76,1241.04l463.43,64.2c-27.66,37.97-60.44,76.04-97.55,113.27-39.34,39.47-84.64,79.11-134.65,117.81-54.97,42.5-116.26,84.4-182.2,124.58l-474.27-116.44c97.69-50.43,185.21-103.87,260.32-158.95,64.39-47.21,119.86-95.81,164.92-144.48m-1.9-5.31c-45.37,49.31-100.69,97.89-165.97,145.76-78.3,57.42-168.82,112.3-271.57,164.64l488.61,119.96.53.27c67.14-40.82,128.67-82.85,184.59-126.07,100.82-78.03,180.18-157.65,238.05-238.85l-474.24-65.7h0Z"/><path class="cls-34" d="m1585,1238.92l467.77,64.8c-28.12,38.94-61.65,78.02-99.71,116.21-39.4,39.53-84.77,79.23-134.84,117.98-55.23,42.69-116.82,84.79-183.09,125.14l-480.27-117.91c99.51-51.1,188.57-105.32,264.81-161.23,64.62-47.38,120.24-96.16,165.34-144.99m-1.14-3.19c-45.37,49.31-100.69,97.89-165.97,145.76-78.3,57.42-168.82,112.3-271.57,164.64l488.61,119.96.53.27c67.14-40.82,128.67-82.85,184.59-126.07,100.82-78.03,180.18-157.65,238.05-238.85l-474.24-65.7h0Z"/></g></g><g id="Screen"><g id="Layer1_13_MEMBER_0_FILL"><path class="cls-51" d="m1320.77,993.17c-11.87,8.36-17.8,20.72-17.8,37.1v288.27c0,16.38,9.11,23.98,27.32,22.81l345.17-567.76c-9.56-9.07-20.42-10.41-32.59-4.01l-322.11,223.59Z"/></g><path class="cls-29" d="m1339.69,1000.01c-11.9,8.27-17.84,20.58-17.84,36.96v288.27c0,16.38,5.95,20.43,17.84,12.17l321.9-223.66c11.9-8.27,17.84-20.59,17.84-36.96v-288.27c0-16.38-5.95-20.43-17.84-12.17l-321.9,223.66Z"/></g><path id="lll" class="cls-66" d="m1360.52,1034.16l148.78-104.39c4.77-3.71,9.01,1.61,4.46,10.73-1.21,2.48-2.7,4.34-4.46,5.58l-148.78,104.39c-7,6.01-9.51-9.13,0-16.31Z"/><path id="ll" class="cls-58" d="m1418.75,1037.46c4.55-9.12.3-14.44-4.46-10.73,0,0-53.77,37.73-53.77,37.73-9.46,7.14-7.06,22.36,0,16.31,2.12-2.54,57.84-37.95,58.23-43.31Z"/><path id="l" class="cls-58" d="m1360.52,1166.19c6.7-5.04,25.23-19.65,17.22,1.98-2.83,6.2-14.05,11.44-17.22,14.33-7.15,6.16-9.34-8.85,0-16.31Z"/><polygon class="cls-22" points="1598.61 1037.73 1543.51 1057.62 1490.12 1155.8 1545.22 1135.91 1598.61 1037.73"/><polygon id="G-3" class="cls-1" points="1598.61 1015.98 1543.51 1035.87 1490.12 1134.05 1545.22 1114.16 1598.61 1015.98"/><polygon id="G-4" class="cls-70" points="1598.85 1150.91 1598.61 1037.73 1545.22 1135.91 1545.5 1192.66 1598.85 1150.91"/><polygon id="G-5" class="cls-16" points="1490.12 1155.8 1490.54 1232.48 1545.5 1192.66 1545.22 1135.91 1490.12 1155.8"/><path id="G-6" class="cls-33" d="m1634.93,2092.78v-426.69l-488.61-119.96c-.13.2-.31.38-.53.53v779.38c186.53-72.72,349.58-150.48,489.14-233.27Z"/><path id="G-7" class="cls-3" d="m1634.93,2092.78v-426.69l-488.61-119.96c-.13.2-.31.38-.53.53v779.38c186.53-72.72,349.58-150.48,489.14-233.27Z"/><path id="G-8" class="cls-56" d="m1634.93,2092.78v-426.69l-488.61-119.96c-.13.2-.31.38-.53.53v779.38c186.53-72.72,349.58-150.48,489.14-233.27Z"/><path class="cls-5" d="m1634.93,2092.78l373.37,104.75,357.39-429.45-307.58-25.06s-31.59,41.58-97.77,108.12c-88.78,89.26-249.26,199.43-325.4,241.65Z"/><g class="cls-100"><g class="cls-93"><g class="cls-94"><polygon class="cls-50" points="1476.97 1999.45 1145.78 1901.78 1153.85 1896.79 1153.85 1855.29 1192.22 1866.17 1192.22 1732.51 1476.97 1805.79 1476.97 1999.45"/><path class="cls-32" d="m1337.97,1939.47l1.28,68.75c-21.52-5.72-42.89-12.27-64.09-19.62l4.12-66.09c19.42,6.37,39,12.03,58.69,16.96Z"/><path class="cls-32" d="m1533.19,1976.45l19.6,72.7c-18.59,0-37.21-.7-55.81-2.05l-14.72-72.42c16.98,1.19,33.96,1.78,50.93,1.78Z"/><path class="cls-32" d="m1474.72,1946.73l14.72,72.42c-14.34-1.04-28.69-2.48-43.02-4.35-19.36-2.45-38.69-5.63-57.96-9.52l-5.87-70.43c17.58,3.34,35.22,6.06,52.89,8.17,13.07,1.59,26.15,2.82,39.24,3.7Z"/><path class="cls-25" d="m1380.53,1847.68l9.59,115.12,5.87,70.43c-17.85-3.55-35.64-7.68-53.34-12.4l-1.28-68.75-2.13-114.66c13.71,3.89,27.48,7.32,41.29,10.25Z"/><path class="cls-61" d="m1337.78,1832.02l2.13,114.66c-19.69-4.93-39.27-10.59-58.69-16.96-85.26-27.82-167.51-68.87-243.07-120.26l49.71-103.67c62.35,46.83,130.2,84.39,200.46,110.16,16.38,6.03,32.87,11.39,49.46,16.07Z"/><path class="cls-74" d="m1336.28,1853.27l1.6,85.85c-19.69-4.93-39.27-10.59-58.69-16.96-85.26-27.82-167.51-68.87-243.07-120.26"/><line class="cls-80" x1="1385.42" y1="1929.49" x2="1378.16" y2="1842.31"/><path class="cls-25" d="m1509.33,1873.44l31.17,115.64c-16.97,0-33.95-.58-50.93-1.78-13.09-.89-26.17-2.11-39.24-3.7-17.67-2.11-35.31-4.84-52.89-8.17l-9.59-115.12-19.3-231.43c9.41,1.5,18.84,2.72,28.29,3.64l35.91,235.66c11.1,1.5,22.22,2.69,33.34,3.58,14.42,1.1,28.85,1.68,43.24,1.68Z"/><path class="cls-32" d="m1303.42,1602.99l-13.64,218.37c-70.26-25.77-138.11-63.33-200.46-110.16l81.12-169.18c41.54,26.45,86.51,47.26,132.98,60.97Z"/><path class="cls-32" d="m1437.56,1621.72l64.45,239.09c-14.39,0-28.82-.58-43.24-1.68l-48.32-237.74h0c6.33.28,12.66.43,18.99.43,2.72,0,5.43-.03,8.11-.09Z"/><path class="cls-61" d="m1410.45,1621.39l48.32,237.74c-11.12-.89-22.24-2.08-33.34-3.58l-35.91-235.66c6.98.67,13.95,1.16,20.94,1.5Z"/><path class="cls-32" d="m1366.11,1634.35l19.3,231.43c-13.81-2.94-27.58-6.37-41.29-10.25-16.59-4.68-33.08-10.04-49.46-16.07l13.64-218.37c10.48,3.12,21.03,5.85,31.63,8.2,8.69,1.93,17.42,3.61,26.18,5.05Z"/><line class="cls-76" x1="1337.78" y1="1832.02" x2="1339.92" y2="1946.68"/><line class="cls-80" x1="1425.22" y1="1854.15" x2="1414.43" y2="1783.4"/><polygon class="cls-31" points="1439.56 1915.9 1442.07 1931.45 1446.89 1931.45 1444.23 1915.97 1439.56 1915.9"/><polygon class="cls-92" points="1440.43 1917.59 1442.95 1933.14 1447.76 1933.14 1445.1 1917.66 1440.43 1917.59"/><polygon class="cls-31" points="1412.18 1831.56 1415.18 1858.29 1420.63 1859.12 1416.82 1832.48 1412.18 1831.56"/><polygon class="cls-72" points="1413.06 1833.25 1416.05 1859.98 1421.51 1860.81 1417.69 1834.17 1413.06 1833.25"/><path class="cls-81" d="m1339.08,1829.85c-.95,0-1.94-.13-2.93-.4-5.86-1.57-11.43-7.58-14.91-16.08-1.92-4.68-3.08-9.87-3.27-14.61-.47-11.34,4.46-19.26,11.99-19.26.95,0,1.94.13,2.93.4,5.86,1.57,11.43,7.58,14.91,16.08,1.92,4.68,3.08,9.87,3.27,14.61.47,11.34-4.46,19.26-11.99,19.26Z"/><path class="cls-32" d="m1349.92,1774.07c-.39-.09-.8-.23-1.2-.42-2.39-1.11-4.6-3.8-5.9-7.21-.72-1.88-1.12-3.86-1.12-5.6-.02-4.16,2.14-6.57,5.24-5.88.39.09.8.23,1.2.42,2.39,1.11,4.6,3.8,5.9,7.21.72,1.88,1.12,3.86,1.12,5.6.02,4.16-2.14,6.57-5.24,5.88Z"/><path class="cls-81" d="m1444.71,1841.88c-.2,0-.42-.02-.64-.07-.24-.06-.49-.14-.74-.26-1.48-.69-2.62-2.26-3.1-3.51-.21-.54-.32-1.12-.32-1.71,0-1.95,1.04-3.3,2.54-3.3.2,0,.42.02.64.07.24.06.49.14.74.26,1.48.69,2.62,2.26,3.1,3.51.21.54.32,1.12.32,1.71,0,1.95-1.04,3.3-2.54,3.3Z"/><ellipse class="cls-32" cx="1334.52" cy="1804.67" rx="12.4" ry="19.36" transform="translate(-456.45 451.82) rotate(-16.45)"/><path class="cls-32" d="m1335.62,1793.03c-7.22-1.94-12.73,4.81-12.3,15.07.04.95.14,1.89.28,2.82,2.49,6.15,6.86,11.02,11.69,12.32,7.22,1.94,12.73-4.81,12.3-15.07-.04-.95-.14-1.89-.28-2.82-2.49-6.15-6.86-11.02-11.69-12.32Z"/><ellipse class="cls-67" cx="1335.45" cy="1808.14" rx="3.7" ry="5.78" transform="translate(-457.4 452.23) rotate(-16.45)"/></g><polygon class="cls-11" points="1192.22 1866.17 1199.15 1862.96 1199.15 1734.29 1192.22 1732.51 1192.22 1866.17"/><polygon class="cls-15" points="1153.85 1896.79 1476.97 1992.27 1476.97 1999.45 1145.78 1901.78 1153.85 1896.79"/><polygon class="cls-71" points="1192.22 1732.51 1476.97 1805.79 1476.97 1957.82 1192.22 1818.05 1192.22 1732.51"/><polygon class="cls-39" points="1476.97 1992.27 1153.85 1896.79 1153.85 1855.29 1192.22 1866.17 1192.22 1732.51 1476.97 1805.79 1476.97 1992.27"/><polygon class="cls-8" points="1476.97 1992.27 1153.85 1896.79 1153.85 1855.29 1192.22 1866.17 1192.22 1732.51 1476.97 1805.79 1476.97 1992.27"/><polygon class="cls-28" points="1476.97 1992.27 1153.85 1896.79 1153.85 1855.29 1192.22 1866.17 1192.22 1732.51 1476.97 1805.79 1476.97 1992.27"/><path class="cls-73" d="m1294.66,1839.46s60.39,22.93,90.75,26.32"/><path class="cls-73" d="m1443.3,1933.63c1.99.96,4.37,1.11,6.47.4"/><path class="cls-73" d="m1413.95,1860.6c2.74.83,5.64,1.12,8.49.86"/><path class="cls-73" d="m1216.53,1785.71c25.58,12.43,51.59,23.97,77.97,34.59"/><path class="cls-73" d="m1183.36,1881.85c45.68,21.03,93.06,38.37,141.52,51.81"/><path class="cls-73" d="m1430.94,1854.51c12.45,2.24,25.1,3.36,37.75,3.32"/><path class="cls-73" d="m1322.36,1806.56c1.13,4.64,3.42,9,6.61,12.56,1.73,1.93,3.81,3.68,6.31,4.35,2.5.67,5.49.02,7.01-2.09"/><path class="cls-73" d="m1331.61,1806.57c-.81,3.37,2.37,7.04,5.82,6.73"/><line class="cls-87" x1="1413.06" y1="1833.25" x2="1415.18" y2="1858.29"/><line class="cls-87" x1="1382.59" y1="1934.86" x2="1384.39" y2="1962.19"/><line class="cls-87" x1="1416.1" y1="1791.74" x2="1425.43" y2="1855.55"/><line class="cls-87" x1="1302.46" y1="1762.89" x2="1297.24" y2="1839.46"/><line class="cls-87" x1="1339.76" y1="1874.29" x2="1339.92" y2="1946.68"/><path class="cls-87" d="m1388.74,1935.83c16.41,4.85,58.74,9.98,72.36,10.44"/><path class="cls-73" d="m1384.58,1933.63c16.41,4.85,58.74,9.98,72.36,10.44"/><line class="cls-89" x1="1145.78" y1="1853.33" x2="1192.22" y2="1866.17"/><line class="cls-89" x1="1192.22" y1="1731.09" x2="1476.97" y2="1804.36"/><line class="cls-85" x1="1199.54" y1="1767.72" x2="1199.15" y2="1862.96"/><line class="cls-87" x1="1192.22" y1="1866.17" x2="1199.15" y2="1862.96"/><line class="cls-87" x1="1153.85" y1="1857.51" x2="1153.85" y2="1894.31"/></g></g></g><g id="Woman"><g id="_woman_"><ellipse class="cls-45" cx="1664.86" cy="1466.07" rx="108.85" ry="57"/><path class="cls-59" d="m1646.65,1108.49c8.07-1.44,14.14,2.52,18.22,11.88l-18.35,43.02-14.52-8.32v-10.17l-4.33-4.49,2.51-8.57c-2.02-.95-2.87-1.72-2.54-2.31,7.77-5.24,9.63-18.12,19.01-21.03Z"/><path class="cls-41" d="m1628.18,1151.32c.22-6.29,16.7,5.11,22.1,3.22-2.37,4.02-10.97,23.24-15.79,24.72h-2.62c-1.82-9.2-.14-19.19-3.69-27.94Z"/><path class="cls-62" d="m1772.45,1428c-1.37-4.94-2.44-14.97,2.34-19.04,2.6-.06,11.63,33.99,4.71,35.36-3.04-5.59-5.46-11.3-7.05-16.31Z"/><path class="cls-17" d="m1772.56,1412.07c-3.6,12.36,1.45,21.2,6.94,32.24-7.39-4.31-16.89-24.4-24.31-26.62,0,0-13.86-8.63-13.86-8.63-.74-11.49,2.09-19.17,8.49-23.04,6.81,6.88,16.63,18.28,24.97,22.93-1.02.3-1.77,1.33-2.23,3.11Z"/><path class="cls-62" d="m1657.51,1313.11c1.82-13.54,21.52-31.34,33.76-28.08,22.99,10.09,11.89,39.73,13.09,65.28,4.44-1.95,31.16,20.43,45.47,35.72-6.4,3.87-9.23,11.55-8.49,23.04-41.24-24.91-70.84-35.76-83.83-95.96Z"/><path class="cls-26" d="m1761.37,1422.6c-.18-.17-.35-.35-.52-.52l.72.58c-.06-.02-.13-.04-.19-.06m-97.44-89.51c-.75-.72.02-21.19-.25-21.99l28.44-4.05c-2.5,4.23-6.53,13.42-12.1,27.56,1.14,38.16,52.55,62.6,75.15,83.06-23.86-18.14-71.97-34.32-83.58-65.89h0c-2.68-5.61-5.16-11.69-7.66-18.68Z"/><path class="cls-17" d="m1675.67,1469.01c1.44,18.06-68.68-13.79-17.33-12.37l-7.61-29.05c7.03,2.21,18.67,10.23,23.95.74.16,13.98.99,29.13.99,40.68Z"/><path class="cls-62" d="m1671.23,1335.32l-3.47,35.03c7.53,11.36,6.88,41.42,6.92,57.98-5.27,9.49-16.92,1.47-23.95-.74l-12.76-48.81-.03.03c-1.53-6.1-3.11-10.93-4.71-16.51.02.11.05.21.08.3-16.29-52.29-17.37-72.81,42.96-62.42l-5.04,35.14Z"/><path class="cls-69" d="m1569.98,1085.4l9.09-4.88,13.81,61.95,39.33,26.15c70.2-43.99,51.9,9.59,44.4,57.65,17.1,26.42,28.15,37.82,28.52,74.24-24.3,12.14-55.82,23.19-81.54,20.48-4.39-27.06-3.8-50.14,1.76-69.23-4.9-14.7-15.61-36.74-13.15-52.19-43.02-51.29-45.96-59.86-42.22-114.17Z"/><path class="cls-55" d="m1569.98,1085.4l.36-.19c3.88,20.58,3.92,42.94,5.54,58.92,21.14,26.95,46.02,44.03,52.91,78.32,25.36,61.02,12.72,66.13,14.63,126.08,1.98,36.6,21.19,87.71,24.95,126.77-15.5-3.68-51.18-17.44-10.03-18.66-3.37-12.57-21.63-83.55-25.11-94.33.02.11.04.22.06.33-10.84-35.46-17.54-80.01-7.94-110.87-5.27-14.94-15.56-36.65-13.15-52.19-43.02-51.29-45.96-59.86-42.22-114.17Z"/><path class="cls-96" d="m1609.65,1196.72c-.18,5.35-.36,10.78.95,15.96.64,2.54,2.05,5.36,4.64,5.8,1.05.18,2.14-.09,3.11-.53,3.34-1.52,5.38-4.9,7.12-8.13,3.48-6.46,6.67-13.21,7.9-20.45,1.23-7.24.33-15.08-3.83-21.13,14.84-8.62,33.66-10.97,50.61-8.32-.26,16.59,2.69,32.33,2.43,48.91-.08,4.95-.15,9.98,1.25,14.73,1.41,4.79,4.22,9.02,6.88,13.26,4.16,6.63,8.01,13.45,11.55,20.44-13.45,7.2-28.33,11.22-43.06,15.19-7.09,1.91-14.26,3.83-21.6,4.04-16.4.46-31.7-7.57-46.12-15.39,7.41-22.41,7.16-43.53,18.19-64.39Z"/><g class="cls-99"><path class="cls-88" d="m1586.41,1243.96c11.72,5.53,23.84,10.23,36.22,14.05,6.49,2,13.18,3.77,19.97,3.54,5.56-.19,10.98-1.72,16.29-3.35,20.49-6.29,40.44-14.3,59.59-23.92"/><path class="cls-88" d="m1587.89,1221.76c11.72,5.53,23.84,10.23,36.22,14.05,6.49,2,13.18,3.77,19.97,3.54,5.56-.19,10.98-1.72,16.29-3.35,20.49-6.29,40.44-14.3,59.59-23.92"/></g><path class="cls-47" d="m1644.75,1128.67c3.01-4.01,6.53-7.13,10.55-9.34,7.79,22.66,24.06,97.89,35.4,117.49-41.52-11.6-70.57-70.59-45.96-108.15Z"/><path class="cls-64" d="m1646.51,1123.29c-.52-2.46-2.44-1.04-5.76,4.27-6.41-17.53,10.89-26.98,22.93-18,9.63,3.99,4.81,23.6,12.59,30.21,32.81,10.54,84.56,31.69,59.82,74.79-50.74,42.27-111.57-26.5-95.17-81.73,4.23-3.9,6.09-7.07,5.59-9.54Z"/><path class="cls-53" d="m1627.66,1140.41l7.47-.19-3.14,4.68-4.33-4.49Z"/><polygon class="cls-60" points="1567.25 1057.35 1567.25 1080.57 1565.38 1081.65 1565.38 1093.46 1574.93 1088.36 1571.53 1059.32 1567.25 1057.35"/><path class="cls-53" d="m1576.46,1069.86c1.23-1.52,3.13-11.38,5.9-10.22.2,5.31-1.56,14.8-5.9,18.35v-8.13Z"/><path class="cls-59" d="m1568.71,1073.38c.36-4.01-.58-12.1-1.46-16.04,12.73-19.17,11.32,25.1,13.83,32.19h-11.46c-.05-2.77.39-13.75-.91-16.15Z"/></g></g></svg>