<svg xmlns="http://www.w3.org/2000/svg" xmlns:xlink="http://www.w3.org/1999/xlink" viewBox="0 0 1000 1000"><defs><filter id="b6ec9ae1-b31f-499e-992d-2e45b0016c93" name="AI_DesenfoqueGaussiano_4"><feGaussianBlur stdDeviation="4"/></filter><radialGradient id="b97846db-f163-4250-b7b8-b451b94be9cc" cx="-6762.35" cy="4392.3" r="164.68" gradientTransform="matrix(0.71, 0.41, -1.06, 0.2, 9562.73, 2007.21)" gradientUnits="userSpaceOnUse"><stop offset="0" stop-color="#00b287"/><stop offset="0.14" stop-color="#01b289" stop-opacity="0.98"/><stop offset="0.29" stop-color="#03b08f" stop-opacity="0.9"/><stop offset="0.45" stop-color="#06ae99" stop-opacity="0.78"/><stop offset="0.6" stop-color="#0baba8" stop-opacity="0.62"/><stop offset="0.76" stop-color="#11a8ba" stop-opacity="0.4"/><stop offset="0.92" stop-color="#19a3d0" stop-opacity="0.14"/><stop offset="1" stop-color="#1da1dc" stop-opacity="0"/></radialGradient><linearGradient id="a2b2f1a0-7233-402f-a2a0-12241548637a" x1="22" y1="45.37" x2="232.63" y2="75.17" gradientUnits="userSpaceOnUse"><stop offset="0" stop-color="#fafbfc"/><stop offset="0.55" stop-color="#f5f8fa"/><stop offset="0.99" stop-color="#e5f4fa"/><stop offset="0.99" stop-color="#d4ecf6" stop-opacity="0.9"/></linearGradient><linearGradient id="f74067e3-2dd2-4a49-aad3-85360e4209ef" x1="15.44" y1="108.88" x2="320.86" y2="108.88" gradientUnits="userSpaceOnUse"><stop offset="0.24" stop-color="#fff" stop-opacity="0.4"/><stop offset="0.36" stop-color="#b7d4f4" stop-opacity="0.4"/><stop offset="1" stop-color="#b7d4f4" stop-opacity="0"/></linearGradient><linearGradient id="a74326d2-b3df-4844-ad55-b16489b7d7e8" x1="134.6" y1="130.88" x2="144.28" y2="130.88" gradientTransform="translate(181.89 -55.59) rotate(59.64)" gradientUnits="userSpaceOnUse"><stop offset="0.01" stop-color="#00b287"/><stop offset="0.33" stop-color="#08ad9f"/><stop offset="1" stop-color="#1da1dc"/></linearGradient><linearGradient id="f3f31c3b-4cea-4aa8-8e7f-5c13fdefeb4f" x1="151.83" y1="101.44" x2="219.36" y2="101.44" gradientTransform="matrix(1, 0, 0, 1, 0, 0)" xlink:href="#a74326d2-b3df-4844-ad55-b16489b7d7e8"/><linearGradient id="eb8ae136-0e30-4e6a-9fad-13d8c771fea6" x1="106.05" y1="114.26" x2="229.36" y2="114.26" gradientUnits="userSpaceOnUse"><stop offset="0" stop-color="#5d7586" stop-opacity="0.07"/><stop offset="0.64" stop-color="#5d7586" stop-opacity="0.05"/><stop offset="1" stop-color="#5d7586" stop-opacity="0"/></linearGradient><linearGradient id="f00097f8-6ced-4339-b346-3bcb19403ad7" x1="13.56" y1="45.37" x2="224.18" y2="75.17" xlink:href="#a2b2f1a0-7233-402f-a2a0-12241548637a"/><linearGradient id="f75bbc87-e2c7-49c0-afb8-42f6e58f3402" x1="7" y1="109.27" x2="312.41" y2="109.27" xlink:href="#f74067e3-2dd2-4a49-aad3-85360e4209ef"/><linearGradient id="fbcd8f17-2676-4ea1-8e32-00f7ef140be1" x1="126.16" y1="130.88" x2="135.84" y2="130.88" gradientTransform="translate(177.72 -48.31) rotate(59.64)" xlink:href="#a74326d2-b3df-4844-ad55-b16489b7d7e8"/><linearGradient id="beb6fb39-7955-449e-896a-6362db6405c3" x1="143.38" y1="101.44" x2="210.91" y2="101.44" gradientTransform="matrix(1, 0, 0, 1, 0, 0)" xlink:href="#a74326d2-b3df-4844-ad55-b16489b7d7e8"/><linearGradient id="b41cf7be-0a3d-4847-a355-e83383fd9199" x1="-1547.5" y1="621.64" x2="-1432.16" y2="688.44" gradientTransform="translate(1984.6)" gradientUnits="userSpaceOnUse"><stop offset="0" stop-color="#5d7586" stop-opacity="0.05"/><stop offset="0.3" stop-color="#5d7586" stop-opacity="0.3"/><stop offset="0.32" stop-color="#5d7586" stop-opacity="0.3"/><stop offset="0.74" stop-color="#5d7586" stop-opacity="0.3"/><stop offset="1" stop-color="#5d7586" stop-opacity="0.05"/></linearGradient><linearGradient id="b65691c3-8a7a-4a72-80dc-7e8ff0c64932" x1="-1542.37" y1="624.71" x2="-1440.9" y2="683.47" xlink:href="#b41cf7be-0a3d-4847-a355-e83383fd9199"/><linearGradient id="a97b5f65-8c1f-4d50-93c9-93e8d2133920" x1="360.78" y1="374.92" x2="358.05" y2="608.92" gradientTransform="matrix(-1, 0, 0, 1, 861.48, 0)" gradientUnits="userSpaceOnUse"><stop offset="0" stop-color="#1da1dc"/><stop offset="0.42" stop-color="#1da1dc"/><stop offset="0.98" stop-color="#0071b0"/></linearGradient><linearGradient id="a03cb6b5-9f3a-408f-a0b1-4ba1a23a2a1c" x1="406.8" y1="365.15" x2="243.87" y2="596.31" gradientTransform="matrix(-1, 0, 0, 1, 861.48, 0)" gradientUnits="userSpaceOnUse"><stop offset="0" stop-color="#1364c3" stop-opacity="0.1"/><stop offset="0.13" stop-color="#1364c3" stop-opacity="0"/><stop offset="0.16" stop-color="#1364c3" stop-opacity="0.3"/><stop offset="0.31" stop-color="#1364c3" stop-opacity="0.27"/><stop offset="0.49" stop-color="#1364c3" stop-opacity="0.2"/><stop offset="0.5" stop-color="#1364c3" stop-opacity="0.26"/><stop offset="0.52" stop-color="#1364c3" stop-opacity="0.41"/><stop offset="0.54" stop-color="#1364c3" stop-opacity="0.52"/><stop offset="0.56" stop-color="#1364c3" stop-opacity="0.58"/><stop offset="0.58" stop-color="#1364c3" stop-opacity="0.6"/><stop offset="0.6" stop-color="#1364c3" stop-opacity="0.56"/><stop offset="0.76" stop-color="#1364c3" stop-opacity="0.34"/><stop offset="0.84" stop-color="#1364c3" stop-opacity="0.25"/><stop offset="0.92" stop-color="#1364c3" stop-opacity="0.41"/><stop offset="0.98" stop-color="#1364c3" stop-opacity="0.5"/></linearGradient><linearGradient id="ba910586-2ae1-4bb9-b8ad-d7a801f6b362" x1="439.84" y1="422.82" x2="693.41" y2="791.67" gradientUnits="userSpaceOnUse"><stop offset="0.14" stop-color="#1da1dc"/><stop offset="0.58" stop-color="#0f8ac7"/><stop offset="0.98" stop-color="#0071b0"/></linearGradient><radialGradient id="f8931a15-9f1a-4938-a107-b965209da994" cx="667.75" cy="782.94" r="120.84" gradientTransform="matrix(-0.39, -0.69, -0.4, 0.68, 1059.63, 429.53)" gradientUnits="userSpaceOnUse"><stop offset="0.27" stop-color="#f9a51f" stop-opacity="0.8"/><stop offset="0.39" stop-color="#f9a420" stop-opacity="0.79"/><stop offset="0.49" stop-color="#f9a322" stop-opacity="0.74"/><stop offset="0.59" stop-color="#faa026" stop-opacity="0.67"/><stop offset="0.68" stop-color="#fb9c2c" stop-opacity="0.57"/><stop offset="0.77" stop-color="#fc9634" stop-opacity="0.44"/><stop offset="0.86" stop-color="#fd903d" stop-opacity="0.28"/><stop offset="0.95" stop-color="#fe8848" stop-opacity="0.09"/><stop offset="0.98" stop-color="#ff844d" stop-opacity="0"/></radialGradient><symbol id="ae540ca6-45de-4d13-bc29-62acf3a82acf" data-name="Snapshots 2" viewBox="0 0 229.36 166.29"><polygon points="106.61 159.29 229.36 159.29 229.36 69.22 106.05 69.22 106.61 159.29" fill="url(#eb8ae136-0e30-4e6a-9fad-13d8c771fea6)"/><g opacity="0.16"><path d="M109.44,41.56a26.53,26.53,0,0,1,13,3l83.31,48.1c3.59,2.07,5.28,4.87,5.16,7.78-.13,3.3-2.6,6.76-7.31,9.48l-19.65,11.34-58.56,33.81a34.7,34.7,0,0,1-16.92,4.23,26.41,26.41,0,0,1-13-3L34,120.79,12.18,108.2C8.7,106.2,7,103.52,7,100.71c0-3.4,2.48-7,7.32-9.76L92.53,45.79a34.69,34.69,0,0,1,16.91-4.23m0-7h0A41.51,41.51,0,0,0,89,39.72L10.82,84.88C4,88.85,0,94.62,0,100.71c0,5.43,3.16,10.37,8.68,13.56l21.78,12.58L92,162.36a33,33,0,0,0,16.48,3.93,41.31,41.31,0,0,0,20.42-5.17l58.56-33.81L207.09,116c6.74-3.89,10.58-9.32,10.8-15.28.25-5.64-2.91-10.79-8.66-14.1l-83.3-48.1a33,33,0,0,0-16.49-3.93Z" fill="#85d8d1"/></g><g opacity="0.18"><path d="M109.44,41.56a26.53,26.53,0,0,1,13,3l83.31,48.1c3.59,2.07,5.28,4.87,5.16,7.78-.13,3.3-2.6,6.76-7.31,9.48l-19.65,11.34-58.56,33.81a34.7,34.7,0,0,1-16.92,4.23,26.41,26.41,0,0,1-13-3L34,120.79,12.18,108.2C8.7,106.2,7,103.52,7,100.71c0-3.4,2.48-7,7.32-9.76L92.53,45.79a34.69,34.69,0,0,1,16.91-4.23m0-4h0a39,39,0,0,0-18.91,4.76L12.32,87.48C6.4,90.9,3,95.72,3,100.71c0,4.39,2.55,8.29,7.18,11L32,124.25l61.52,35.52a30.12,30.12,0,0,0,15,3.52,38.88,38.88,0,0,0,18.92-4.77l58.56-33.81,19.65-11.34c5.82-3.35,9.12-7.9,9.31-12.79.19-4.5-2.42-8.66-7.17-11.4l-83.3-48.09a30,30,0,0,0-15-3.53Z" fill="#333a45"/></g><path d="M210.9,100.43c-.13,3.3-2.6,6.76-7.31,9.48l-19.65,11.34-58.56,33.81c-8.85,5.11-22.24,5.67-29.9,1.24L34,120.79,12.18,108.2C8.7,106.2,7,103.52,7,100.71c0-3.4,2.48-7,7.32-9.76L92.53,45.79c8.85-5.11,22.24-5.67,29.9-1.24l83.31,48.1C209.33,94.72,211,97.52,210.9,100.43Z" fill="none" stroke="#333a45" stroke-width="2" opacity="0.47"/><path d="M108.46,115.73a24.54,24.54,0,0,1-12-2.72L35,77.49,13.18,64.91c-1.91-1.1-4.18-3-4.18-5.77s2.3-5.71,6.32-8L93.53,6a32.7,32.7,0,0,1,15.91-4,24.55,24.55,0,0,1,12,2.72l83.31,48.1c2.78,1.6,4.26,3.72,4.16,6-.1,2.73-2.4,5.58-6.31,7.83l-78.21,45.16A32.83,32.83,0,0,1,108.46,115.73Z" fill="url(#f00097f8-6ced-4339-b346-3bcb19403ad7)"/><path d="M109.44,4h0a22.54,22.54,0,0,1,11,2.45l83.31,48.1c1.22.7,3.25,2.18,3.16,4.16s-2.06,4.3-5.31,6.17L181.94,76.22,123.38,110a30.65,30.65,0,0,1-14.92,3.7,22.53,22.53,0,0,1-11-2.45L36,75.76,14.18,63.18C13,62.49,11,61.06,11,59.14s2-4.4,5.32-6.29L94.53,7.69A30.63,30.63,0,0,1,109.44,4m0-4A34.8,34.8,0,0,0,92.53,4.22L14.32,49.38C9.48,52.17,7,55.75,7,59.14c0,2.82,1.7,5.5,5.18,7.5L34,79.22l61.52,35.52a26.41,26.41,0,0,0,13,3,34.81,34.81,0,0,0,16.92-4.23l58.56-33.81,19.65-11.34c4.71-2.72,7.18-6.18,7.31-9.49.12-2.9-1.57-5.7-5.16-7.77L122.43,3a26.42,26.42,0,0,0-13-3Z" fill="#fafbfc"/><path d="M109.44,2h0a24.55,24.55,0,0,1,12,2.72l83.31,48.1c2.78,1.6,4.26,3.72,4.16,6-.1,2.72-2.4,5.57-6.31,7.82L182.94,78l-58.56,33.82a32.83,32.83,0,0,1-15.92,4,24.54,24.54,0,0,1-12-2.72L35,77.49,13.18,64.91c-1.91-1.1-4.18-3-4.18-5.77s2.3-5.71,6.32-8L93.53,6a32.7,32.7,0,0,1,15.91-4m0-2A34.8,34.8,0,0,0,92.53,4.22L14.32,49.38C9.48,52.17,7,55.75,7,59.14c0,2.82,1.7,5.5,5.18,7.5L34,79.22l61.52,35.52a26.41,26.41,0,0,0,13,3,34.81,34.81,0,0,0,16.92-4.23l58.56-33.81,19.65-11.34c4.71-2.72,7.18-6.18,7.31-9.49.12-2.9-1.57-5.7-5.16-7.77L122.43,3a26.42,26.42,0,0,0-13-3Z" fill="#fff"/><path d="M210.91,59.25v40.89c0,3.4-2.48,7-7.32,9.77l-78.21,45.15c-8.85,5.12-22.24,5.67-29.9,1.24l-83.3-48.09c-3.59-2.07-5.29-4.86-5.17-7.78H7V59.53C7,62.34,8.7,65,12.18,67L34,79.61l61.52,35.52c7.66,4.42,21,3.87,29.9-1.25l58.56-33.81,19.65-11.34c4.71-2.72,7.18-6.17,7.31-9.48Z" fill="#d4ecf6"/><path d="M108.46,115.73a24.54,24.54,0,0,1-12-2.72L35,77.49,13.18,64.91c-1.91-1.1-4.18-3-4.18-5.77s2.3-5.71,6.32-8L93.53,6a32.7,32.7,0,0,1,15.91-4,24.55,24.55,0,0,1,12,2.72l83.31,48.1c2.78,1.6,4.26,3.72,4.16,6-.1,2.73-2.4,5.58-6.31,7.83l-78.21,45.16A32.83,32.83,0,0,1,108.46,115.73Z" fill="url(#f00097f8-6ced-4339-b346-3bcb19403ad7)"/><path d="M109.44,4h0a22.54,22.54,0,0,1,11,2.45l83.31,48.1c1.22.7,3.25,2.18,3.16,4.16s-2.06,4.3-5.31,6.17L181.94,76.22,123.38,110a30.65,30.65,0,0,1-14.92,3.7,22.53,22.53,0,0,1-11-2.45L36,75.76,14.18,63.18C13,62.49,11,61.06,11,59.14s2-4.4,5.32-6.29L94.53,7.69A30.63,30.63,0,0,1,109.44,4m0-4A34.8,34.8,0,0,0,92.53,4.22L14.32,49.38C9.48,52.17,7,55.75,7,59.14c0,2.82,1.7,5.5,5.18,7.5L34,79.22l61.52,35.52a26.41,26.41,0,0,0,13,3,34.81,34.81,0,0,0,16.92-4.23l58.56-33.81,19.65-11.34c4.71-2.72,7.18-6.18,7.31-9.49.12-2.9-1.57-5.7-5.16-7.77L122.43,3a26.42,26.42,0,0,0-13-3Z" fill="#fafbfc"/><path d="M109.44,2h0a24.55,24.55,0,0,1,12,2.72l83.31,48.1c2.78,1.6,4.26,3.72,4.16,6-.1,2.72-2.4,5.57-6.31,7.82L182.94,78l-58.56,33.82a32.83,32.83,0,0,1-15.92,4,24.54,24.54,0,0,1-12-2.72L35,77.49,13.18,64.91c-1.91-1.1-4.18-3-4.18-5.77s2.3-5.71,6.32-8L93.53,6a32.7,32.7,0,0,1,15.91-4m0-2A34.8,34.8,0,0,0,92.53,4.22L14.32,49.38C9.48,52.17,7,55.75,7,59.14c0,2.82,1.7,5.5,5.18,7.5L34,79.22l61.52,35.52a26.41,26.41,0,0,0,13,3,34.81,34.81,0,0,0,16.92-4.23l58.56-33.81,19.65-11.34c4.71-2.72,7.18-6.18,7.31-9.49.12-2.9-1.57-5.7-5.16-7.77L122.43,3a26.42,26.42,0,0,0-13-3Z" fill="#fff"/><path d="M210.91,59.25v40.89c0,3.4-2.48,7-7.32,9.77l-78.21,45.15c-8.85,5.12-22.24,5.67-29.9,1.24l-83.3-48.09c-3.59-2.07-5.29-4.86-5.17-7.78H7V59.53C7,62.34,8.7,65,12.18,67L34,79.61l61.52,35.52c7.66,4.42,21,3.87,29.9-1.25l58.56-33.81,19.65-11.34c4.71-2.72,7.18-6.17,7.31-9.48Z" fill="url(#f75bbc87-e2c7-49c0-afb8-42f6e58f3402)"/><g id="e6c4baac-18b8-4784-9eb3-54dad50e15c6" data-name="Deco"><ellipse cx="131" cy="130.88" rx="6.82" ry="3.94" transform="translate(-48.14 177.76) rotate(-59.64)" fill-opacity="0.17" fill="url(#fbcd8f17-2676-4ea1-8e32-00f7ef140be1)"/><path d="M210.91,88.43v.29c-.18.6-1.4,2.25-8,6.12l-.7.4L147.8,126.65c-2.44,1.41-4.42-.09-4.42-3.34s2-7,4.42-8.46l54.41-31.41.08,0a25.82,25.82,0,0,0,4.47-2.58c1.83-1.34,3.63-3.1,4.14-5.12V88.43Z" fill-opacity="0.17" fill="url(#beb6fb39-7955-449e-896a-6362db6405c3)"/></g></symbol><symbol id="b7f4b7d1-b7d7-4ca6-9004-51c6db2fb499" data-name="Snapshots" viewBox="0 0 236 177.28"><g filter="url(#b6ec9ae1-b31f-499e-992d-2e45b0016c93)"><path d="M108.83,164.13,23.2,114.69c-5.24-3-4.58-8.37,1.48-11.87l81.91-47.29c6.06-3.5,15.31-3.88,20.56-.85l85.62,49.43c5.25,3,4.58,8.37-1.48,11.87l-81.91,47.29C123.32,166.77,114.07,167.16,108.83,164.13Z" fill="url(#b97846db-f163-4250-b7b8-b451b94be9cc)"/></g><path d="M205.94,90.85c-.05,2-1.52,4.08-4.36,5.71l-10.26,5.92-64,37c-5.28,3.05-13.25,3.38-17.82.74l-66-38.1L31.94,95.43c-2.07-1.2-3.09-2.79-3.09-4.47,0-2,1.48-4.15,4.37-5.82l74.29-42.89c5.27-3,13.25-3.38,17.82-.74l77.53,44.76C205,87.49,206,89.13,205.94,90.85Z" fill="#fcfdfe" stroke="#6c7576" stroke-miterlimit="10"/><path d="M116.91,115.73a24.48,24.48,0,0,1-12-2.72L43.4,77.49,21.62,64.91c-1.91-1.1-4.18-3-4.18-5.77s2.31-5.71,6.32-8L102,6a32.72,32.72,0,0,1,15.92-4,24.51,24.51,0,0,1,12,2.72l83.31,48.1c2.78,1.6,4.26,3.72,4.16,6-.1,2.73-2.4,5.58-6.31,7.83l-78.21,45.16A32.81,32.81,0,0,1,116.91,115.73Z" fill="url(#a2b2f1a0-7233-402f-a2a0-12241548637a)"/><path d="M117.89,4h0a22.53,22.53,0,0,1,11,2.45l83.31,48.1c1.22.7,3.25,2.18,3.16,4.16S213.28,63,210,64.88L190.39,76.22,131.82,110a30.64,30.64,0,0,1-14.91,3.7,22.47,22.47,0,0,1-11-2.45L44.4,75.76,22.62,63.18c-1.19-.69-3.18-2.12-3.18-4s2-4.4,5.32-6.29L103,7.69A30.67,30.67,0,0,1,117.89,4m0-4A34.81,34.81,0,0,0,101,4.22L22.76,49.38c-4.84,2.79-7.32,6.37-7.32,9.76,0,2.82,1.71,5.5,5.18,7.5L42.4,79.22l61.53,35.52a26.38,26.38,0,0,0,13,3,34.8,34.8,0,0,0,16.91-4.23l58.57-33.81L212,68.35c4.71-2.72,7.19-6.18,7.31-9.49.12-2.9-1.57-5.7-5.16-7.77L130.87,3a26.41,26.41,0,0,0-13-3Z" fill="#fafbfc"/><path d="M117.89,2h0a24.51,24.51,0,0,1,12,2.72l83.31,48.1c2.78,1.6,4.26,3.72,4.16,6-.1,2.72-2.4,5.57-6.31,7.82L191.39,78l-58.57,33.82a32.81,32.81,0,0,1-15.91,4,24.48,24.48,0,0,1-12-2.72L43.4,77.49,21.62,64.91c-1.91-1.1-4.18-3-4.18-5.77s2.31-5.71,6.32-8L102,6a32.72,32.72,0,0,1,15.92-4m0-2A34.81,34.81,0,0,0,101,4.22L22.76,49.38c-4.84,2.79-7.32,6.37-7.32,9.76,0,2.82,1.71,5.5,5.18,7.5L42.4,79.22l61.53,35.52a26.38,26.38,0,0,0,13,3,34.8,34.8,0,0,0,16.91-4.23l58.57-33.81L212,68.35c4.71-2.72,7.19-6.18,7.31-9.49.12-2.9-1.57-5.7-5.16-7.77L130.87,3a26.41,26.41,0,0,0-13-3Z" fill="#fff"/><path d="M219.35,58.86v40.9c0,3.39-2.48,7-7.32,9.76l-78.21,45.16c-8.85,5.11-22.23,5.66-29.89,1.24l-83.31-48.1C17,105.75,15.33,103,15.46,100h0V59.14c0,2.82,1.71,5.5,5.18,7.5L42.4,79.22l61.53,35.52c7.66,4.43,21,3.87,29.89-1.24l58.57-33.81L212,68.35c4.71-2.72,7.19-6.18,7.31-9.49Z" fill="#d4ecf6"/><path d="M116.91,115.73a24.48,24.48,0,0,1-12-2.72L43.4,77.49,21.62,64.91c-1.91-1.1-4.18-3-4.18-5.77s2.31-5.71,6.32-8L102,6a32.72,32.72,0,0,1,15.92-4,24.51,24.51,0,0,1,12,2.72l83.31,48.1c2.78,1.6,4.26,3.72,4.16,6-.1,2.73-2.4,5.58-6.31,7.83l-78.21,45.16A32.81,32.81,0,0,1,116.91,115.73Z" fill="url(#a2b2f1a0-7233-402f-a2a0-12241548637a)"/><path d="M117.89,4h0a22.53,22.53,0,0,1,11,2.45l83.31,48.1c1.22.7,3.25,2.18,3.16,4.16S213.28,63,210,64.88L190.39,76.22,131.82,110a30.64,30.64,0,0,1-14.91,3.7,22.47,22.47,0,0,1-11-2.45L44.4,75.76,22.62,63.18c-1.19-.69-3.18-2.12-3.18-4s2-4.4,5.32-6.29L103,7.69A30.67,30.67,0,0,1,117.89,4m0-4A34.81,34.81,0,0,0,101,4.22L22.76,49.38c-4.84,2.79-7.32,6.37-7.32,9.76,0,2.82,1.71,5.5,5.18,7.5L42.4,79.22l61.53,35.52a26.38,26.38,0,0,0,13,3,34.8,34.8,0,0,0,16.91-4.23l58.57-33.81L212,68.35c4.71-2.72,7.19-6.18,7.31-9.49.12-2.9-1.57-5.7-5.16-7.77L130.87,3a26.41,26.41,0,0,0-13-3Z" fill="#fafbfc"/><path d="M117.89,2h0a24.51,24.51,0,0,1,12,2.72l83.31,48.1c2.78,1.6,4.26,3.72,4.16,6-.1,2.72-2.4,5.57-6.31,7.82L191.39,78l-58.57,33.82a32.81,32.81,0,0,1-15.91,4,24.48,24.48,0,0,1-12-2.72L43.4,77.49,21.62,64.91c-1.91-1.1-4.18-3-4.18-5.77s2.31-5.71,6.32-8L102,6a32.72,32.72,0,0,1,15.92-4m0-2A34.81,34.81,0,0,0,101,4.22L22.76,49.38c-4.84,2.79-7.32,6.37-7.32,9.76,0,2.82,1.71,5.5,5.18,7.5L42.4,79.22l61.53,35.52a26.38,26.38,0,0,0,13,3,34.8,34.8,0,0,0,16.91-4.23l58.57-33.81L212,68.35c4.71-2.72,7.19-6.18,7.31-9.49.12-2.9-1.57-5.7-5.16-7.77L130.87,3a26.41,26.41,0,0,0-13-3Z" fill="#fff"/><path d="M219.35,58.86v40.9c0,3.39-2.48,7-7.32,9.76l-78.21,45.16c-8.85,5.11-22.23,5.66-29.89,1.24l-83.31-48.1C17,105.75,15.33,103,15.46,100h0V59.14c0,2.82,1.71,5.5,5.18,7.5L42.4,79.22l61.53,35.52c7.66,4.43,21,3.87,29.89-1.24l58.57-33.81L212,68.35c4.71-2.72,7.19-6.18,7.31-9.49Z" fill="url(#f74067e3-2dd2-4a49-aad3-85360e4209ef)"/><g id="a626203e-bc62-4def-94ab-155f184e81ee" data-name="Deco"><ellipse cx="139.44" cy="130.88" rx="6.82" ry="3.94" transform="translate(-43.97 185.05) rotate(-59.64)" fill-opacity="0.17" fill="url(#a74326d2-b3df-4844-ad55-b16489b7d7e8)"/><path d="M219.36,88.43v.29c-.18.6-1.4,2.25-8,6.12l-.7.4-54.41,31.41c-2.44,1.41-4.42-.09-4.42-3.34s2-7,4.42-8.46l54.41-31.41.08,0a25.82,25.82,0,0,0,4.47-2.58c1.83-1.34,3.63-3.1,4.14-5.12V88.43Z" fill-opacity="0.17" fill="url(#f3f31c3b-4cea-4aa8-8e7f-5c13fdefeb4f)"/></g></symbol></defs><g style="isolation:isolate"><g id="e7b10616-149b-4b67-a12a-5cb3ce51a01f" data-name="ARTWORK"><g id="ac4ea057-147f-43ae-bc92-a196a7ef7f64" data-name="RemoteFailover"><g id="a5a8f20b-5939-4f29-a64a-254a37111b7a" data-name="Server1"><use width="229.36" height="166.29" transform="translate(627.64 364.85) scale(1.27)" xlink:href="#ae540ca6-45de-4d13-bc29-62acf3a82acf"/><use width="236" height="177.28" transform="translate(618.12 288.83) scale(1.27)" xlink:href="#b7f4b7d1-b7d7-4ca6-9004-51c6db2fb499"/><use width="236" height="177.28" transform="translate(618.12 214.64) scale(1.27)" xlink:href="#b7f4b7d1-b7d7-4ca6-9004-51c6db2fb499"/></g><g id="bb356fd8-8f5b-406f-bc80-f38ebc2b0c4a" data-name="Server2"><use width="229.36" height="166.29" transform="translate(90.24 674.89) scale(1.27)" xlink:href="#ae540ca6-45de-4d13-bc29-62acf3a82acf"/><use width="236" height="177.28" transform="translate(80.72 598.88) scale(1.27)" xlink:href="#b7f4b7d1-b7d7-4ca6-9004-51c6db2fb499"/><use width="236" height="177.28" transform="translate(80.72 524.68) scale(1.27)" xlink:href="#b7f4b7d1-b7d7-4ca6-9004-51c6db2fb499"/></g><g id="b68ae96b-b6b9-4613-b3ef-c94cfc909200" data-name="Shield"><g id="b627ed46-657f-4496-ab09-6c744848a749" data-name="Shadow shield" opacity="0.5"><g filter="url(#b6ec9ae1-b31f-499e-992d-2e45b0016c93)"><path d="M542.89,689.89l-108.78-62.8c-2.93-1.69-2.56-4.65.82-6.6h0c3.39-2,8.5-2.17,11.43-.47l108.79,62.8c2.93,1.69,2.56,4.65-.83,6.6h0C550.94,691.37,545.82,691.59,542.89,689.89Z" opacity="0.64" fill="url(#b41cf7be-0a3d-4847-a355-e83383fd9199)"/></g><g filter="url(#b6ec9ae1-b31f-499e-992d-2e45b0016c93)"><path d="M535.3,684.75,439.6,629.5c-2.58-1.48-2.25-4.08.72-5.8h0c3-1.72,7.48-1.91,10.06-.42l95.69,55.25c2.58,1.49,2.26,4.09-.72,5.81h0C542.38,686.06,537.87,686.24,535.3,684.75Z" fill="url(#b65691c3-8a7a-4a72-80dc-7e8ff0c64932)"/></g></g><path d="M404.45,365.75c1.28-.74,3.05-.63,5,.48a9.59,9.59,0,0,1,.83.53c4,2.82,9.24,6.35,15.28,9.84,16.61,9.59,39.11,18.94,56.83,12.95a5.39,5.39,0,0,1,4.35.77,13.56,13.56,0,0,1,4.33,4.24c17.63,26.4,40.11,43,56.72,52.61A163.2,163.2,0,0,0,563.05,455a7.05,7.05,0,0,1,.82.42,15.44,15.44,0,0,1,7,12.13l-.31,110.32c-.07,22.07-9.13,34.74-21.29,41.81L576.13,604c12.16-7.07,21.22-19.74,21.28-41.81l.32-110.32a15.44,15.44,0,0,0-7-12.13,7.18,7.18,0,0,0-.83-.42,163.22,163.22,0,0,1-15.28-7.81c-16.61-9.59-39.1-26.21-56.72-52.61a13.59,13.59,0,0,0-4.34-4.24,5.37,5.37,0,0,0-4.34-.77c-17.72,6-40.22-3.36-56.84-12.95-6-3.49-11.31-7-15.28-9.84a9.46,9.46,0,0,0-.82-.53c-1.92-1.11-3.69-1.22-5-.47Z" fill="url(#a97b5f65-8c1f-4d50-93c9-93e8d2133920)"/><path d="M404.45,365.75c1.28-.74,3.05-.63,5,.48a9.59,9.59,0,0,1,.83.53c4,2.82,9.24,6.35,15.28,9.84,16.61,9.59,39.11,18.94,56.83,12.95a5.39,5.39,0,0,1,4.35.77,13.56,13.56,0,0,1,4.33,4.24c17.63,26.4,40.11,43,56.72,52.61A163.2,163.2,0,0,0,563.05,455a7.05,7.05,0,0,1,.82.42,15.44,15.44,0,0,1,7,12.13l-.31,110.32c-.07,22.07-9.13,34.74-21.29,41.81L576.13,604c12.16-7.07,21.22-19.74,21.28-41.81l.32-110.32a15.44,15.44,0,0,0-7-12.13,7.18,7.18,0,0,0-.83-.42,163.22,163.22,0,0,1-15.28-7.81c-16.61-9.59-39.1-26.21-56.72-52.61a13.59,13.59,0,0,0-4.34-4.24,5.37,5.37,0,0,0-4.34-.77c-17.72,6-40.22-3.36-56.84-12.95-6-3.49-11.31-7-15.28-9.84a9.46,9.46,0,0,0-.82-.53c-1.92-1.11-3.69-1.22-5-.47Z" fill="url(#a97b5f65-8c1f-4d50-93c9-93e8d2133920)"/><path d="M404.45,365.75c1.28-.74,157,246.84,144.8,253.91L576.13,604c12.16-7.07,21.22-19.74,21.28-41.81l.32-110.32a15.44,15.44,0,0,0-7-12.13,7.18,7.18,0,0,0-.83-.42,163.22,163.22,0,0,1-15.28-7.81c-16.61-9.59-39.1-26.21-56.72-52.61a13.59,13.59,0,0,0-4.34-4.24,5.37,5.37,0,0,0-4.34-.77c-17.72,6-40.22-3.36-56.84-12.95-6-3.49-11.31-7-15.28-9.84a9.46,9.46,0,0,0-.82-.53c-1.92-1.11-3.69-1.22-5-.47Z" opacity="0.72" fill="url(#a03cb6b5-9f3a-408f-a0b1-4ba1a23a2a1c)" style="mix-blend-mode:multiply"/><g style="isolation:isolate"><path d="M486.71,390.32a5.39,5.39,0,0,0-4.35-.77c-17.72,6-40.22-3.36-56.83-12.95-6-3.49-11.31-7-15.28-9.84a9.59,9.59,0,0,0-.83-.53c-3.81-2.2-7-.46-7,4l-.31,110.33c-.16,56.3,58.43,119.23,77.81,138.5a30.57,30.57,0,0,0,6.15,4.78,18.52,18.52,0,0,0,6.15,2.32c19.42,3.13,78.18,7.95,78.34-48.35l.31-110.32a15.44,15.44,0,0,0-7-12.13,7.05,7.05,0,0,0-.82-.42,163.2,163.2,0,0,1-15.29-7.81C531.15,437.58,508.67,421,491,394.56A13.56,13.56,0,0,0,486.71,390.32Z" fill="url(#ba910586-2ae1-4bb9-b8ad-d7a801f6b362)"/><g opacity="0.25"><path d="M406.61,369.46a3.56,3.56,0,0,1,.75.34,5.91,5.91,0,0,1,.5.32c5.13,3.65,10.38,7,15.61,10.05,17.69,10.21,33.4,15.39,46.69,15.39a42.16,42.16,0,0,0,13.44-2.08,2.62,2.62,0,0,1,1,.41,9.59,9.59,0,0,1,3,3c18.28,27.37,41.68,44.41,58.09,53.89a167.27,167.27,0,0,0,15.68,8c.14.06.28.14.43.22a11.4,11.4,0,0,1,4.92,8.55l-.32,110.32c0,17.29-6,29.86-17.74,37.35-8.9,5.69-21,8.57-35.88,8.57a128.36,128.36,0,0,1-19.93-1.63,14,14,0,0,1-4.75-1.82,26,26,0,0,1-5.3-4.13c-18-17.91-76.76-80.61-76.6-135.57l.31-110.33a3.26,3.26,0,0,1,.09-.82m-.31-4.18c-2.29,0-3.89,1.8-3.9,5l-.31,110.33c-.16,56.3,58.43,119.23,77.81,138.5a30.57,30.57,0,0,0,6.15,4.78,18.52,18.52,0,0,0,6.15,2.32,131.75,131.75,0,0,0,20.59,1.68c24.71,0,57.63-7.9,57.75-50l.31-110.32a15.44,15.44,0,0,0-7-12.13,7.05,7.05,0,0,0-.82-.42,163.2,163.2,0,0,1-15.29-7.81C531.15,437.58,508.67,421,491,394.56a13.56,13.56,0,0,0-4.33-4.24,6.43,6.43,0,0,0-3.14-1,3.74,3.74,0,0,0-1.21.19,37.93,37.93,0,0,1-12.2,1.89c-15.08,0-31.65-7.35-44.63-14.84-6-3.49-11.31-7-15.28-9.84a9.59,9.59,0,0,0-.83-.53,6.34,6.34,0,0,0-3.12-1Z" fill="#90e5ff"/></g></g><g id="b983a84d-5781-487c-a579-cc2eab06a582" data-name="inner glow front"><ellipse cx="486.21" cy="501.14" rx="67.51" ry="116.95" transform="translate(-186.62 314.48) rotate(-30.36)" opacity="0.34" fill="url(#f8931a15-9f1a-4938-a107-b965209da994)" style="mix-blend-mode:overlay"/><ellipse cx="486.21" cy="501.14" rx="67.51" ry="116.95" transform="translate(-186.62 314.48) rotate(-30.36)" opacity="0.34" fill="url(#f8931a15-9f1a-4938-a107-b965209da994)" style="mix-blend-mode:overlay"/></g><g id="f70e58e1-ea1b-42ed-afdd-34ba65a793f2" data-name="Checkmark"><g id="ebc6dd50-2da1-4395-a4a4-31c011f24413" data-name="SYMBOLS" opacity="0.24" filter="url(#b6ec9ae1-b31f-499e-992d-2e45b0016c93)"><path d="M551.59,485c2.37,4.07,2.37,8.47,0,9.81l-85.51,48.65-29.48-45.2c-2.76-5.3-1.19-9,1.07-10.51,2.72-1.84,7.68-2.69,11.16,2.58L469,522.09l74-42C545.39,478.72,549.23,480.93,551.59,485Z"/></g><path id="f488d5c4-07ad-402c-a7fe-f57813808b52" data-name="SYMBOLS" d="M546.87,484.44c2.36,4.08,2.36,8.47,0,9.82l-85.52,48.65L431.88,497.7c-2.76-5.29-1.19-9,1.06-10.51,2.72-1.83,7.68-2.69,11.16,2.58l20.21,31.76,74-42C540.67,478.15,544.5,480.37,546.87,484.44Z" fill="#fff" fill-opacity="0.95"/></g></g><g id="ab22ad4c-3417-492f-8a43-fb29e78d3232" data-name="arrow"><path d="M230.79,596l1.2-11.52c.21-1.91.36-3.84.63-5.75l.82-5.73.82-5.74c.29-1.9.51-3.82.88-5.72l2.06-11.39c.62-3.82,1.55-7.57,2.33-11.35l1.23-5.65.61-2.83.71-2.81,2.83-11.23.72-2.81.79-2.78,1.6-5.56a590.55,590.55,0,0,1,32.59-86.62" fill="none" stroke="#00b287" stroke-linecap="round" stroke-width="12.91" stroke-dasharray="25.82 51.64"/><path d="M262.29,417.23q5.29-1.25,10.54-2.4c3.5-.78,7-1.53,10.53-2.22,1.61,3.16,3.32,6.33,5,9.47s3.44,6.26,5.17,9.34" fill="none" stroke="#00b287" stroke-linecap="round" stroke-linejoin="round" stroke-width="12.91"/><path d="M301,378.54A638.38,638.38,0,0,1,351.45,301c9.24-12.38,19.2-24.19,29.34-35.83l7.81-8.55c1.31-1.42,2.58-2.87,3.92-4.26l4-4.16c2.7-2.76,5.36-5.55,8.09-8.28l8.33-8" fill="none" stroke="#00b287" stroke-linecap="round" stroke-width="12.91" stroke-dasharray="25.82 51.64"/><path d="M396.35,224c7.21,1,14.24,2.08,21.31,3.37.72,7.11,1.68,14.26,2.66,21.23" fill="none" stroke="#00b287" stroke-linecap="round" stroke-linejoin="round" stroke-width="12.91"/><path d="M446.8,202.48a409.7,409.7,0,0,1,37.81-26.71,333.64,333.64,0,0,1,40.76-21.93c3.51-1.61,7.08-3.07,10.65-4.56s7.19-2.81,10.84-4.07c7.28-2.57,14.67-4.82,22.16-6.7a191.54,191.54,0,0,1,45.83-5.91" fill="none" stroke="#00b287" stroke-linecap="round" stroke-width="12.91" stroke-dasharray="25.82 51.64"/><path d="M607.72,115.57a177.41,177.41,0,0,1,13.58,17.14,165,165,0,0,0-12.23,17.19" fill="none" stroke="#00b287" stroke-linecap="round" stroke-linejoin="round" stroke-width="12.91"/><path d="M659,139.12a126.93,126.93,0,0,1,40.69,21.59,137.81,137.81,0,0,1,30.69,34.4,181,181,0,0,1,19.36,41.94,248.77,248.77,0,0,1,9.65,45.24" fill="none" stroke="#00b287" stroke-linecap="round" stroke-width="12.91" stroke-dasharray="25.82 51.64"/><path d="M775.55,273.44q-3.81,4-7.64,7.82c-2.57,2.54-5.21,5-7.83,7.45-3.08-1.86-6.13-3.66-9.22-5.39s-6.22-3.38-9.31-5" fill="none" stroke="#00b287" stroke-linecap="round" stroke-linejoin="round" stroke-width="12.91"/></g></g></g></g></svg>