<svg xmlns="http://www.w3.org/2000/svg" xmlns:xlink="http://www.w3.org/1999/xlink" viewBox="0 0 1000 1000"><defs><style>.cls-1,.cls-18,.cls-19,.cls-2,.cls-3{fill:none;}.cls-1,.cls-2,.cls-3{stroke:#022e49;}.cls-1{stroke-width:19px;opacity:0.15;}.cls-2{stroke-width:11px;opacity:0.41;}.cls-3{stroke-width:5px;opacity:0.72;}.cls-4{fill:url(#linear-gradient);}.cls-5{mix-blend-mode:screen;}.cls-14,.cls-15,.cls-6,.cls-7{fill-opacity:0.4;}.cls-6{fill:url(#Nueva_muestra_de_degradado_71);}.cls-7{fill:url(#Nueva_muestra_de_degradado_71-2);}.cls-8{fill:url(#linear-gradient-2);}.cls-9{opacity:0.8;}.cls-10{fill:#fafbfc;}.cls-11,.cls-28{filter:url(#AI_DesenfoqueGaussiano_4);}.cls-12{fill:url(#Degradado_sin_nombre_11);}.cls-13{fill:url(#linear-gradient-3);}.cls-14{fill:url(#Nueva_muestra_de_degradado_71-3);}.cls-15{fill:url(#Nueva_muestra_de_degradado_71-4);}.cls-16{fill:url(#linear-gradient-4);}.cls-17{isolation:isolate;}.cls-18,.cls-19{stroke:#00b287;stroke-linecap:round;stroke-width:12.91px;}.cls-18{stroke-miterlimit:10;stroke-dasharray:25 50;}.cls-19{stroke-linejoin:round;}.cls-20{opacity:0.5;}.cls-21{opacity:0.64;fill:url(#Degradado_sin_nombre_30);}.cls-22{fill:url(#Degradado_sin_nombre_30-2);}.Estilo-gráfico-74{fill:url(#Nueva_muestra_de_degradado_57);}.cls-23{fill-opacity:0.72;fill:url(#Degradado_sin_nombre_132);}.cls-24{fill:url(#Nueva_muestra_de_degradado_57-2);}.cls-25{opacity:0.25;}.cls-26{fill:#61eebb;}.cls-27{mix-blend-mode:overlay;opacity:0.34;fill:url(#Degradado_sin_nombre_9);}.cls-28{opacity:0.24;}.cls-29{fill:#fff;fill-opacity:0.95;}</style><linearGradient id="linear-gradient" x1="9.5" y1="109.15" x2="213.9" y2="109.15" gradientUnits="userSpaceOnUse"><stop offset="0" stop-color="#a9e5f5"/><stop offset="0.45" stop-color="#9de6fc"/><stop offset="0.58" stop-color="#64c7ef"/><stop offset="1" stop-color="#1da1dc"/></linearGradient><linearGradient id="Nueva_muestra_de_degradado_71" x1="129.25" y1="130.88" x2="138.93" y2="130.88" gradientTransform="translate(179.25 -50.98) rotate(59.64)" gradientUnits="userSpaceOnUse"><stop offset="0.01" stop-color="#00a37c"/><stop offset="0.35" stop-color="#089f94"/><stop offset="1" stop-color="#1b96cd"/></linearGradient><linearGradient id="Nueva_muestra_de_degradado_71-2" x1="146.48" y1="101.44" x2="214.01" y2="101.44" gradientTransform="matrix(1, 0, 0, 1, 0, 0)" xlink:href="#Nueva_muestra_de_degradado_71"/><linearGradient id="linear-gradient-2" x1="9.5" y1="59.01" x2="213.9" y2="59.01" gradientUnits="userSpaceOnUse"><stop offset="0" stop-color="#a6e7f9"/><stop offset="1" stop-color="#6ed2f1"/></linearGradient><filter id="AI_DesenfoqueGaussiano_4" name="AI_DesenfoqueGaussiano_4"><feGaussianBlur stdDeviation="4"/></filter><radialGradient id="Degradado_sin_nombre_11" cx="-6762.35" cy="4392.3" r="164.68" gradientTransform="matrix(0.71, 0.41, -1.06, 0.2, 9562.73, 2007.21)" gradientUnits="userSpaceOnUse"><stop offset="0" stop-color="#00b287"/><stop offset="0.14" stop-color="#01b289" stop-opacity="0.98"/><stop offset="0.29" stop-color="#03b08f" stop-opacity="0.9"/><stop offset="0.45" stop-color="#06ae99" stop-opacity="0.78"/><stop offset="0.6" stop-color="#0baba8" stop-opacity="0.62"/><stop offset="0.76" stop-color="#11a8ba" stop-opacity="0.4"/><stop offset="0.92" stop-color="#19a3d0" stop-opacity="0.14"/><stop offset="1" stop-color="#1da1dc" stop-opacity="0"/></radialGradient><linearGradient id="linear-gradient-3" x1="15.44" y1="108.83" x2="219.25" y2="108.83" xlink:href="#linear-gradient"/><linearGradient id="Nueva_muestra_de_degradado_71-3" x1="134.85" y1="130.5" x2="144.5" y2="130.5" gradientTransform="translate(181.68 -55.98) rotate(59.64)" xlink:href="#Nueva_muestra_de_degradado_71"/><linearGradient id="Nueva_muestra_de_degradado_71-4" x1="152.02" y1="101.15" x2="219.36" y2="101.15" gradientTransform="matrix(1, 0, 0, 1, 0, 0)" xlink:href="#Nueva_muestra_de_degradado_71"/><linearGradient id="linear-gradient-4" x1="15.44" y1="58.84" x2="219.25" y2="58.84" xlink:href="#linear-gradient-2"/><linearGradient id="Degradado_sin_nombre_30" x1="-1540.24" y1="808.87" x2="-1439.07" y2="867.46" gradientTransform="translate(1984.6)" gradientUnits="userSpaceOnUse"><stop offset="0" stop-color="#0f0b26" stop-opacity="0.05"/><stop offset="0.3" stop-color="#0f0b26" stop-opacity="0.3"/><stop offset="0.32" stop-color="#0f0b26" stop-opacity="0.3"/><stop offset="0.74" stop-color="#0f0b26" stop-opacity="0.3"/><stop offset="1" stop-color="#0f0b26" stop-opacity="0.05"/></linearGradient><linearGradient id="Degradado_sin_nombre_30-2" x1="-1535.74" y1="811.56" x2="-1446.75" y2="863.1" xlink:href="#Degradado_sin_nombre_30"/><linearGradient id="Nueva_muestra_de_degradado_57" x1="-692.06" y1="541.7" x2="-1258.62" y2="894.38" gradientTransform="matrix(-1, 0, 0, 1, -426.36, 0)" gradientUnits="userSpaceOnUse"><stop offset="0.01" stop-color="#00b287"/><stop offset="0.33" stop-color="#08ad9f"/><stop offset="1" stop-color="#1da1dc"/></linearGradient><linearGradient id="Degradado_sin_nombre_132" x1="-887.17" y1="591.46" x2="-1025.83" y2="788.18" gradientTransform="matrix(-1, 0, 0, 1, -426.36, 0)" gradientUnits="userSpaceOnUse"><stop offset="0" stop-color="#010d1a" stop-opacity="0.1"/><stop offset="0.13" stop-color="#010d1a" stop-opacity="0"/><stop offset="0.16" stop-color="#010d1a" stop-opacity="0.3"/><stop offset="0.49" stop-color="#010d1a" stop-opacity="0.2"/><stop offset="0.51" stop-color="#010d1a" stop-opacity="0.34"/><stop offset="0.58" stop-color="#010d1a" stop-opacity="0.5"/><stop offset="0.84" stop-color="#010d1a" stop-opacity="0.4"/><stop offset="0.98" stop-color="#010d1a" stop-opacity="0.6"/></linearGradient><linearGradient id="Nueva_muestra_de_degradado_57-2" x1="-982.72" y1="670.92" x2="-747.16" y2="761.11" xlink:href="#Nueva_muestra_de_degradado_57"/><radialGradient id="Degradado_sin_nombre_9" cx="1196.35" cy="1417.65" r="113.39" gradientTransform="matrix(-0.36, -0.63, -0.36, 0.62, 1423.78, 592.78)" gradientUnits="userSpaceOnUse"><stop offset="0.27" stop-color="#ffeb2f" stop-opacity="0.8"/><stop offset="0.38" stop-color="#ffeb31" stop-opacity="0.79"/><stop offset="0.49" stop-color="#ffec35" stop-opacity="0.74"/><stop offset="0.58" stop-color="#ffec3e" stop-opacity="0.67"/><stop offset="0.67" stop-color="#ffee49" stop-opacity="0.58"/><stop offset="0.77" stop-color="#ffef58" stop-opacity="0.45"/><stop offset="0.85" stop-color="#fff16a" stop-opacity="0.29"/><stop offset="0.94" stop-color="#fff37f" stop-opacity="0.11"/><stop offset="0.98" stop-color="#fff48c" stop-opacity="0"/></radialGradient><symbol id="Snapshots_3" data-name="Snapshots 3" viewBox="0 0 223.4 168.79"><path class="cls-1" d="M213.89,100.28c-.13,3.32-2.61,6.79-7.33,9.51l-19.69,11.37-58.7,33.89c-8.87,5.12-22.29,5.68-30,1.24l-61.67-35.6L14.69,108.08c-3.48-2-5.19-4.7-5.19-7.52,0-3.4,2.49-7,7.34-9.78l78.4-45.27c8.87-5.11,22.29-5.67,30-1.23l83.5,48.21C212.31,94.56,214,97.37,213.89,100.28Z"/><path class="cls-2" d="M213.89,100.28c-.13,3.32-2.61,6.79-7.33,9.51l-19.69,11.37-58.7,33.89c-8.87,5.12-22.29,5.68-30,1.24l-61.67-35.6L14.69,108.08c-3.48-2-5.19-4.7-5.19-7.52,0-3.4,2.49-7,7.34-9.78l78.4-45.27c8.87-5.11,22.29-5.67,30-1.23l83.5,48.21C212.31,94.56,214,97.37,213.89,100.28Z"/><path class="cls-3" d="M213.89,100.28c-.13,3.32-2.61,6.79-7.33,9.51l-19.69,11.37-58.7,33.89c-8.87,5.12-22.29,5.68-30,1.24l-61.67-35.6L14.69,108.08c-3.48-2-5.19-4.7-5.19-7.52,0-3.4,2.49-7,7.34-9.78l78.4-45.27c8.87-5.11,22.29-5.67,30-1.23l83.5,48.21C212.31,94.56,214,97.37,213.89,100.28Z"/><path class="cls-4" d="M213.9,59v41c0,3.4-2.48,7-7.34,9.79l-78.39,45.26c-8.87,5.12-22.29,5.68-30,1.24L14.69,108.08c-3.6-2.07-5.3-4.87-5.18-7.8h0v-41c0,2.82,204.26,3,204.39-.28Z"/><g id="Deco" class="cls-5"><ellipse class="cls-6" cx="134.09" cy="130.88" rx="6.82" ry="3.94" transform="translate(-46.61 180.43) rotate(-59.64)"/><path class="cls-7" d="M214,88.43v.29c-.18.6-1.4,2.25-8,6.12l-.7.4L150.9,126.65c-2.44,1.41-4.42-.09-4.42-3.34s2-7,4.42-8.46l54.41-31.41.08,0a25.82,25.82,0,0,0,4.47-2.58c1.83-1.34,3.63-3.1,4.14-5.12V88.43Z"/></g><path class="cls-8" d="M213.89,59c-.13,3.31-2.61,6.78-7.33,9.5L186.87,79.88l-58.7,33.89c-8.87,5.13-22.29,5.69-30,1.25L36.53,79.41,14.69,66.8c-3.48-2-5.19-4.69-5.19-7.51,0-3.41,2.49-7,7.34-9.79L95.24,4.23c8.87-5.11,22.29-5.67,30-1.23l83.5,48.21C212.31,53.29,214,56.09,213.89,59Z"/><g class="cls-9"><path class="cls-10" d="M112.19,3h0a23.63,23.63,0,0,1,11.52,2.59l83.51,48.22c1.73,1,3.77,2.69,3.67,5.08s-2.26,5-5.82,7l-19.7,11.37-58.7,33.89A31.82,31.82,0,0,1,111.21,115a23.56,23.56,0,0,1-11.51-2.59L38,76.82,16.19,64.2c-1.68-1-3.69-2.61-3.69-4.91s2.18-5.08,5.84-7.19L96.74,6.83A31.86,31.86,0,0,1,112.19,3m0-3a34.93,34.93,0,0,0-17,4.23L16.84,49.5C12,52.3,9.5,55.89,9.5,59.29c0,2.82,1.71,5.5,5.19,7.51L36.53,79.41,98.2,115a26.5,26.5,0,0,0,13,3,34.89,34.89,0,0,0,17-4.24l58.7-33.89,19.69-11.37c4.72-2.72,7.2-6.19,7.33-9.5.13-2.92-1.58-5.72-5.18-7.8L125.21,3a26.54,26.54,0,0,0-13-3Z"/></g></symbol><symbol id="Snapshots_4" data-name="Snapshots 4" viewBox="0 0 236 177.28"><g class="cls-11"><path class="cls-12" d="M108.83,164.13,23.2,114.69c-5.24-3-4.58-8.37,1.48-11.87l81.91-47.29c6.06-3.5,15.31-3.88,20.56-.85l85.62,49.43c5.25,3,4.58,8.37-1.48,11.87l-81.91,47.29C123.32,166.77,114.07,167.16,108.83,164.13Z"/></g><path class="cls-13" d="M219.25,58.84V99.71c0,3.39-2.48,7-7.31,9.76L133.77,154.6c-8.85,5.11-22.23,5.66-29.89,1.24L20.62,107.77c-3.59-2.07-5.29-4.86-5.16-7.78h0V59.11c0,2.82,203.67,3,203.8-.27Z"/><g id="Deco-2" data-name="Deco" class="cls-5"><ellipse class="cls-14" cx="139.67" cy="130.5" rx="6.8" ry="3.93" transform="translate(-43.53 185.06) rotate(-59.64)"/><path class="cls-15" d="M219.36,88.17v.29c-.18.6-1.4,2.25-8,6.11l-.7.4-54.25,31.31C154,127.69,152,126.19,152,123s2-7,4.41-8.43L210.68,83.2l.08,0a26.29,26.29,0,0,0,4.46-2.57c1.82-1.34,3.62-3.09,4.13-5.11V88.17Z"/></g><path class="cls-16" d="M219.24,58.84c-.13,3.3-2.6,6.76-7.3,9.47L192.3,79.65l-58.53,33.79c-8.85,5.11-22.23,5.67-29.89,1.24L42.39,79.18,20.62,66.61c-3.47-2-5.18-4.68-5.18-7.5,0-3.39,2.48-7,7.32-9.75L100.93,4.22c8.85-5.1,22.23-5.66,29.88-1.23l83.27,48.07C217.67,53.13,219.36,55.93,219.24,58.84Z"/><g class="cls-9"><path class="cls-10" d="M117.84,3h0a23.42,23.42,0,0,1,11.47,2.59l83.27,48.07c1.73,1,3.76,2.68,3.66,5.06s-2.26,5-5.8,7L190.8,77.05l-58.53,33.79a31.62,31.62,0,0,1-15.41,3.83,23.46,23.46,0,0,1-11.48-2.59L43.89,76.59,22.12,64c-1.68-1-3.68-2.6-3.68-4.9s2.18-5,5.82-7.15L102.43,6.82A31.69,31.69,0,0,1,117.84,3m0-3a34.76,34.76,0,0,0-16.9,4.22L22.76,49.36c-4.84,2.79-7.32,6.36-7.32,9.75,0,2.82,1.71,5.5,5.18,7.5L42.39,79.18l61.49,35.5a26.38,26.38,0,0,0,13,3,34.69,34.69,0,0,0,16.91-4.23L192.3,79.65l19.64-11.34c4.7-2.71,7.17-6.17,7.3-9.47.12-2.91-1.57-5.71-5.16-7.78L130.81,3a26.35,26.35,0,0,0-13-3Z"/></g></symbol></defs><g class="cls-17"><g id="Artwork"><g id="LocalRecovery"><g id="arrows"><path class="cls-18" d="M277.31,353.36c0,123,99.7,222.7,222.69,222.7,103.63,0,190.74-70.79,215.59-166.66"/><path class="cls-18" d="M722.69,353.36c0-123-99.71-222.69-222.69-222.69-103.64,0-190.74,70.8-215.59,166.66"/><polyline class="cls-19" points="259.17 355.74 277.31 342.11 295.44 355.74"/><polyline class="cls-19" points="704.55 348.92 722.7 362.56 740.83 348.92"/></g><g id="Server2"><use width="223.4" height="168.79" transform="translate(355.59 503.58) scale(1.27)" xlink:href="#Snapshots_3"/><use width="236" height="177.28" transform="translate(350 427.57) scale(1.27)" xlink:href="#Snapshots_4"/><use width="236" height="177.28" transform="translate(350 353.37) scale(1.27)" xlink:href="#Snapshots_4"/></g><g id="Shield"><g id="Shadow_shield" data-name="Shadow shield" class="cls-20"><g class="cls-11"><path class="cls-21" d="M537.15,868.74l-95.42-55.09c-2.57-1.48-2.24-4.08.72-5.79h0c3-1.71,7.46-1.9,10-.42l95.42,55.09c2.57,1.49,2.24,4.08-.72,5.79h0C544.21,870,539.72,870.22,537.15,868.74Z"/></g><g class="cls-11"><path class="cls-22" d="M530.48,864.23l-83.93-48.46c-2.26-1.31-2-3.59.63-5.1h0c2.61-1.5,6.56-1.67,8.82-.36l83.94,48.46c2.26,1.3,2,3.58-.63,5.09h0C536.7,865.37,532.75,865.53,530.48,864.23Z"/></g></g><path class="Estilo-gráfico-74" d="M418.07,592c1.09-.63,2.59-.54,4.23.4.23.14.47.29.7.45,3.38,2.41,7.86,5.4,13,8.37,14.14,8.17,33.28,16.13,48.37,11a4.61,4.61,0,0,1,3.69.65,11.49,11.49,0,0,1,3.69,3.62A145.79,145.79,0,0,0,540,661.25a138.38,138.38,0,0,0,13,6.65c.24.11.47.23.7.36a13.16,13.16,0,0,1,5.94,10.32l-.26,93.89c-.06,18.78-7.77,29.57-18.12,35.58l22.87-13.29c10.36-6,18.07-16.8,18.12-35.58l.27-93.89A13.14,13.14,0,0,0,576.62,655a5.81,5.81,0,0,0-.7-.36,138.36,138.36,0,0,1-13-6.65,145.82,145.82,0,0,1-48.28-44.77,11.53,11.53,0,0,0-3.68-3.61,4.56,4.56,0,0,0-3.7-.65c-15.08,5.1-34.23-2.87-48.37-11-5.14-3-9.63-6-13-8.37a8.17,8.17,0,0,0-.7-.45c-1.64-1-3.15-1-4.24-.4Z"/><path class="cls-23" d="M418.07,592c1.09-.63,2.59-.54,4.23.4.23.14.47.29.7.45,3.38,2.41,7.86,5.4,13,8.37,14.14,8.17,33.28,16.13,48.37,11a4.61,4.61,0,0,1,3.69.65,11.49,11.49,0,0,1,3.69,3.62A145.79,145.79,0,0,0,540,661.25a138.38,138.38,0,0,0,13,6.65c.24.11.47.23.7.36a13.16,13.16,0,0,1,5.94,10.32l-.26,93.89c-.06,18.78-7.77,29.57-18.12,35.58l22.87-13.29c10.36-6,18.07-16.8,18.12-35.58l.27-93.89A13.14,13.14,0,0,0,576.62,655a5.81,5.81,0,0,0-.7-.36,138.36,138.36,0,0,1-13-6.65,145.82,145.82,0,0,1-48.28-44.77,11.53,11.53,0,0,0-3.68-3.61,4.56,4.56,0,0,0-3.7-.65c-15.08,5.1-34.23-2.87-48.37-11-5.14-3-9.63-6-13-8.37a8.17,8.17,0,0,0-.7-.45c-1.64-1-3.15-1-4.24-.4Z"/><g class="cls-17"><path class="cls-24" d="M488.07,612.87a4.61,4.61,0,0,0-3.69-.65c-15.09,5.1-34.23-2.86-48.37-11-5.15-3-9.63-6-13-8.37-.23-.16-.47-.31-.7-.45-3.25-1.87-6-.39-6,3.44l-.26,93.9c-.14,47.91,49.73,101.46,66.22,117.87a26.11,26.11,0,0,0,5.23,4.07,15.73,15.73,0,0,0,5.24,2c16.52,2.66,66.53,6.77,66.67-41.15l.26-93.89a13.16,13.16,0,0,0-5.94-10.32c-.23-.13-.46-.25-.7-.36a138.38,138.38,0,0,1-13-6.65,145.79,145.79,0,0,1-48.28-44.76A11.49,11.49,0,0,0,488.07,612.87Z"/><g class="cls-25"><path class="cls-26" d="M420.32,595.85l.36.23c4.38,3.12,8.86,6,13.33,8.58,15.13,8.74,28.58,13.17,40,13.17a36.3,36.3,0,0,0,11.48-1.76,2.36,2.36,0,0,1,.6.27,7.62,7.62,0,0,1,2.37,2.37c15.6,23.37,35.58,37.92,49.6,46a142.32,142.32,0,0,0,13.38,6.84l.32.16a9.29,9.29,0,0,1,3.94,6.85l-.26,93.89c0,14.54-5,25.09-14.88,31.37-7.49,4.79-17.68,7.22-30.27,7.22a108.26,108.26,0,0,1-16.88-1.38,11.71,11.71,0,0,1-3.88-1.49,22.13,22.13,0,0,1-4.41-3.44c-15.29-15.21-65.17-68.44-65-115l.26-93.87m-.67-4.29c-1.95,0-3.32,1.54-3.33,4.25l-.26,93.9c-.14,47.91,49.73,101.46,66.22,117.87a26.11,26.11,0,0,0,5.23,4.07,15.73,15.73,0,0,0,5.24,2,112.37,112.37,0,0,0,17.52,1.43c21,0,49-6.73,49.15-42.58l.26-93.89a13.16,13.16,0,0,0-5.94-10.32c-.23-.13-.46-.25-.7-.36a138.38,138.38,0,0,1-13-6.65,145.79,145.79,0,0,1-48.28-44.76,11.6,11.6,0,0,0-3.69-3.62,5.4,5.4,0,0,0-2.66-.81,3.17,3.17,0,0,0-1,.16A32.22,32.22,0,0,1,474,613.83c-12.83,0-26.94-6.26-38-12.64-5.15-3-9.63-6-13-8.37-.23-.16-.47-.31-.7-.45a5.36,5.36,0,0,0-2.65-.81Z"/></g></g><ellipse class="cls-27" cx="486.62" cy="718.34" rx="57.46" ry="99.53" transform="matrix(0.86, -0.51, 0.51, 0.86, -296.34, 344.47)"/><g id="Checkmark"><g id="SYMBOLS" class="cls-28"><path d="M543.12,693.37c2,3.47,2,7.21,0,8.36l-72.77,41.4-25.09-38.47c-2.35-4.51-1-7.65.91-8.95,2.31-1.56,6.54-2.28,9.5,2.2l17.19,27,63-35.76C537.85,688,541.11,689.91,543.12,693.37Z"/></g><path id="SYMBOLS-2" data-name="SYMBOLS" class="cls-29" d="M539.1,692.89c2,3.47,2,7.21,0,8.36l-72.78,41.4-25.08-38.47c-2.35-4.51-1-7.66.91-8.95,2.31-1.56,6.53-2.29,9.5,2.2l17.19,27,63-35.77C533.83,687.54,537.09,689.42,539.1,692.89Z"/></g></g></g></g></g></svg>