<svg xmlns="http://www.w3.org/2000/svg" xmlns:xlink="http://www.w3.org/1999/xlink" viewBox="0 0 1000 1000"><defs><filter id="e9e9877a-395e-4f40-864b-3068fde4cb65" name="AI_DesenfoqueGaussiano_4"><feGaussianBlur stdDeviation="4"/></filter><radialGradient id="bf9afebe-a4ce-4b91-966e-07ea09882aff" cx="-6762.35" cy="4392.3" r="164.68" gradientTransform="matrix(0.71, 0.41, -1.06, 0.2, 9562.73, 2007.21)" gradientUnits="userSpaceOnUse"><stop offset="0" stop-color="#00b287"/><stop offset="0.14" stop-color="#01b289" stop-opacity="0.98"/><stop offset="0.29" stop-color="#03b08f" stop-opacity="0.9"/><stop offset="0.45" stop-color="#06ae99" stop-opacity="0.78"/><stop offset="0.6" stop-color="#0baba8" stop-opacity="0.62"/><stop offset="0.76" stop-color="#11a8ba" stop-opacity="0.4"/><stop offset="0.92" stop-color="#19a3d0" stop-opacity="0.14"/><stop offset="1" stop-color="#1da1dc" stop-opacity="0"/></radialGradient><linearGradient id="b949e7d0-5116-4e5f-b1ed-21e5c500e2ee" x1="22" y1="45.37" x2="232.63" y2="75.17" gradientUnits="userSpaceOnUse"><stop offset="0" stop-color="#fafbfc"/><stop offset="0.55" stop-color="#f5f8fa"/><stop offset="0.99" stop-color="#e5f4fa"/><stop offset="0.99" stop-color="#d4ecf6" stop-opacity="0.9"/></linearGradient><linearGradient id="a937d0d3-a022-4162-838d-37f01cb70916" x1="15.44" y1="108.88" x2="320.86" y2="108.88" gradientUnits="userSpaceOnUse"><stop offset="0.24" stop-color="#fff" stop-opacity="0.4"/><stop offset="0.36" stop-color="#b7d4f4" stop-opacity="0.4"/><stop offset="1" stop-color="#b7d4f4" stop-opacity="0"/></linearGradient><linearGradient id="acad19d1-a381-478e-bb98-00918a9f5e2e" x1="134.6" y1="130.88" x2="144.28" y2="130.88" gradientTransform="translate(181.89 -55.59) rotate(59.64)" gradientUnits="userSpaceOnUse"><stop offset="0.01" stop-color="#00b287"/><stop offset="0.33" stop-color="#08ad9f"/><stop offset="1" stop-color="#1da1dc"/></linearGradient><linearGradient id="a3f499ff-3d92-443c-bff4-ded4ef8e28aa" x1="151.83" y1="101.44" x2="219.36" y2="101.44" gradientTransform="matrix(1, 0, 0, 1, 0, 0)" xlink:href="#acad19d1-a381-478e-bb98-00918a9f5e2e"/><linearGradient id="a553ac39-10bc-4c4a-a69b-3624ee6e351f" x1="106.05" y1="114.26" x2="229.36" y2="114.26" gradientUnits="userSpaceOnUse"><stop offset="0" stop-color="#5d7586" stop-opacity="0.07"/><stop offset="0.64" stop-color="#5d7586" stop-opacity="0.05"/><stop offset="1" stop-color="#5d7586" stop-opacity="0"/></linearGradient><linearGradient id="ac15961b-b734-44b3-80aa-581cfe842c82" x1="13.56" y1="45.37" x2="224.18" y2="75.17" xlink:href="#b949e7d0-5116-4e5f-b1ed-21e5c500e2ee"/><linearGradient id="e3432a23-b65b-4afa-8ac8-c51a467a68b9" x1="7" y1="109.27" x2="312.41" y2="109.27" xlink:href="#a937d0d3-a022-4162-838d-37f01cb70916"/><linearGradient id="f75cf786-abb0-4bcb-a8cc-ada2f8dae5c2" x1="126.16" y1="130.88" x2="135.84" y2="130.88" gradientTransform="translate(177.72 -48.31) rotate(59.64)" xlink:href="#acad19d1-a381-478e-bb98-00918a9f5e2e"/><linearGradient id="a387c1a1-1a62-432a-be1a-a4a00a6eca14" x1="143.38" y1="101.44" x2="210.91" y2="101.44" gradientTransform="matrix(1, 0, 0, 1, 0, 0)" xlink:href="#acad19d1-a381-478e-bb98-00918a9f5e2e"/><linearGradient id="bb9e3a37-3b13-49f4-b982-0c9ddceb99e3" x1="-1538.8" y1="810.24" x2="-1440.6" y2="867.11" gradientTransform="translate(1984.6)" gradientUnits="userSpaceOnUse"><stop offset="0" stop-color="#5d7586" stop-opacity="0.05"/><stop offset="0.3" stop-color="#5d7586" stop-opacity="0.3"/><stop offset="0.32" stop-color="#5d7586" stop-opacity="0.3"/><stop offset="0.74" stop-color="#5d7586" stop-opacity="0.3"/><stop offset="1" stop-color="#5d7586" stop-opacity="0.05"/></linearGradient><linearGradient id="ab878c31-81bb-43d1-acc3-c2f9b6bb8c34" x1="-1534.43" y1="812.85" x2="-1448.04" y2="862.88" xlink:href="#bb9e3a37-3b13-49f4-b982-0c9ddceb99e3"/><linearGradient id="aabfdc57-cf98-4e67-8a00-08847fb2ee71" x1="812.66" y1="600.19" x2="810.34" y2="799.42" gradientTransform="matrix(-1, 0, 0, 1, 1312.03, 0)" gradientUnits="userSpaceOnUse"><stop offset="0" stop-color="#1da1dc"/><stop offset="0.42" stop-color="#1da1dc"/><stop offset="0.98" stop-color="#0071b0"/></linearGradient><linearGradient id="b9b09b90-2f0d-4563-b4fa-9e2276d1f2b3" x1="812.09" y1="600.19" x2="809.76" y2="799.41" xlink:href="#aabfdc57-cf98-4e67-8a00-08847fb2ee71"/><linearGradient id="a7af979f-b0be-42ae-a26a-58e6ac484a15" x1="851.26" y1="591.88" x2="712.55" y2="788.68" gradientTransform="matrix(-1, 0, 0, 1, 1312.03, 0)" gradientUnits="userSpaceOnUse"><stop offset="0" stop-color="#1364c3" stop-opacity="0.1"/><stop offset="0.13" stop-color="#1364c3" stop-opacity="0"/><stop offset="0.16" stop-color="#1364c3" stop-opacity="0.3"/><stop offset="0.31" stop-color="#1364c3" stop-opacity="0.27"/><stop offset="0.49" stop-color="#1364c3" stop-opacity="0.2"/><stop offset="0.5" stop-color="#1364c3" stop-opacity="0.26"/><stop offset="0.52" stop-color="#1364c3" stop-opacity="0.41"/><stop offset="0.54" stop-color="#1364c3" stop-opacity="0.52"/><stop offset="0.56" stop-color="#1364c3" stop-opacity="0.58"/><stop offset="0.58" stop-color="#1364c3" stop-opacity="0.6"/><stop offset="0.6" stop-color="#1364c3" stop-opacity="0.56"/><stop offset="0.76" stop-color="#1364c3" stop-opacity="0.34"/><stop offset="0.84" stop-color="#1364c3" stop-opacity="0.25"/><stop offset="0.92" stop-color="#1364c3" stop-opacity="0.41"/><stop offset="0.98" stop-color="#1364c3" stop-opacity="0.5"/></linearGradient><linearGradient id="a1319b2e-21fb-47ce-8c6f-0de04d118d13" x1="448.13" y1="640.97" x2="664.02" y2="955" gradientUnits="userSpaceOnUse"><stop offset="0.14" stop-color="#1da1dc"/><stop offset="0.58" stop-color="#0f8ac7"/><stop offset="0.98" stop-color="#0071b0"/></linearGradient><radialGradient id="eec1c5bb-9a17-47ff-bcad-8bf4b6148c74" cx="1219.01" cy="1483.01" r="102.89" gradientTransform="matrix(-0.39, -0.69, -0.4, 0.68, 1555.79, 540.43)" gradientUnits="userSpaceOnUse"><stop offset="0.27" stop-color="#f9a51f" stop-opacity="0.8"/><stop offset="0.39" stop-color="#f9a420" stop-opacity="0.79"/><stop offset="0.49" stop-color="#f9a322" stop-opacity="0.74"/><stop offset="0.59" stop-color="#faa026" stop-opacity="0.67"/><stop offset="0.68" stop-color="#fb9c2c" stop-opacity="0.57"/><stop offset="0.77" stop-color="#fc9634" stop-opacity="0.44"/><stop offset="0.86" stop-color="#fd903d" stop-opacity="0.28"/><stop offset="0.95" stop-color="#fe8848" stop-opacity="0.09"/><stop offset="0.98" stop-color="#ff844d" stop-opacity="0"/></radialGradient><symbol id="f0da9780-027b-45a2-b403-ddd795d3e469" data-name="Snapshots 2" viewBox="0 0 229.36 166.29"><polygon points="106.61 159.29 229.36 159.29 229.36 69.22 106.05 69.22 106.61 159.29" fill="url(#a553ac39-10bc-4c4a-a69b-3624ee6e351f)"/><g opacity="0.16"><path d="M109.44,41.56a26.53,26.53,0,0,1,13,3l83.31,48.1c3.59,2.07,5.28,4.87,5.16,7.78-.13,3.3-2.6,6.76-7.31,9.48l-19.65,11.34-58.56,33.81a34.7,34.7,0,0,1-16.92,4.23,26.41,26.41,0,0,1-13-3L34,120.79,12.18,108.21c-3.48-2-5.18-4.69-5.18-7.5,0-3.4,2.48-7,7.32-9.76L92.53,45.79a34.8,34.8,0,0,1,16.91-4.23m0-7h0A41.51,41.51,0,0,0,89,39.72L10.82,84.88C4,88.85,0,94.62,0,100.71c0,5.43,3.16,10.37,8.68,13.56l21.78,12.58L92,162.36a33,33,0,0,0,16.48,3.93,41.31,41.31,0,0,0,20.42-5.17l58.56-33.81L207.09,116c6.74-3.89,10.58-9.32,10.8-15.28.25-5.64-2.91-10.79-8.66-14.1l-83.3-48.1a33,33,0,0,0-16.49-3.93Z" fill="#85d8d1"/></g><g opacity="0.18"><path d="M109.44,41.56a26.53,26.53,0,0,1,13,3l83.31,48.1c3.59,2.07,5.28,4.87,5.16,7.78-.13,3.3-2.6,6.76-7.31,9.48l-19.65,11.34-58.56,33.81a34.7,34.7,0,0,1-16.92,4.23,26.41,26.41,0,0,1-13-3L34,120.79,12.18,108.21c-3.48-2-5.18-4.69-5.18-7.5,0-3.4,2.48-7,7.32-9.76L92.53,45.79a34.8,34.8,0,0,1,16.91-4.23m0-4h0a39,39,0,0,0-18.91,4.76L12.32,87.48C6.4,90.9,3,95.72,3,100.71c0,4.39,2.55,8.29,7.18,11L32,124.25l61.52,35.52a30.12,30.12,0,0,0,15,3.52,38.88,38.88,0,0,0,18.92-4.77l58.56-33.81,19.65-11.34c5.82-3.35,9.12-7.9,9.31-12.79.19-4.5-2.42-8.66-7.17-11.4l-83.3-48.09a30,30,0,0,0-15-3.53Z" fill="#333a45"/></g><path d="M210.9,100.43c-.13,3.3-2.6,6.76-7.31,9.48l-19.65,11.34-58.56,33.81c-8.85,5.11-22.24,5.67-29.9,1.24L34,120.79,12.18,108.2C8.7,106.2,7,103.52,7,100.71c0-3.4,2.48-7,7.32-9.76L92.53,45.79c8.85-5.11,22.24-5.67,29.9-1.24l83.31,48.1C209.33,94.72,211,97.52,210.9,100.43Z" fill="none" stroke="#333a45" stroke-width="2" opacity="0.47"/><path d="M108.46,115.73a24.54,24.54,0,0,1-12-2.72L35,77.49,13.18,64.91c-1.91-1.1-4.18-3-4.18-5.77s2.3-5.71,6.32-8L93.53,6a32.7,32.7,0,0,1,15.91-4,24.55,24.55,0,0,1,12,2.72l83.31,48.1c2.78,1.6,4.26,3.72,4.16,6-.1,2.73-2.4,5.58-6.31,7.83l-78.21,45.16A32.83,32.83,0,0,1,108.46,115.73Z" fill="url(#ac15961b-b734-44b3-80aa-581cfe842c82)"/><path d="M109.44,4h0a22.54,22.54,0,0,1,11,2.45l83.31,48.1c1.22.7,3.25,2.18,3.16,4.16s-2.06,4.3-5.31,6.17L181.94,76.22,123.38,110a30.65,30.65,0,0,1-14.92,3.7,22.53,22.53,0,0,1-11-2.45L36,75.76,14.18,63.18C13,62.49,11,61.06,11,59.14s2-4.4,5.32-6.29L94.53,7.69A30.63,30.63,0,0,1,109.44,4m0-4A34.8,34.8,0,0,0,92.53,4.22L14.32,49.38C9.48,52.17,7,55.75,7,59.14c0,2.82,1.7,5.5,5.18,7.5L34,79.22l61.52,35.52a26.41,26.41,0,0,0,13,3,34.81,34.81,0,0,0,16.92-4.23l58.56-33.81,19.65-11.34c4.71-2.72,7.18-6.18,7.31-9.49.12-2.9-1.57-5.7-5.16-7.77L122.43,3a26.42,26.42,0,0,0-13-3Z" fill="#fafbfc"/><path d="M109.44,2h0a24.55,24.55,0,0,1,12,2.72l83.31,48.1c2.78,1.6,4.26,3.72,4.16,6-.1,2.72-2.4,5.57-6.31,7.82L182.94,78l-58.56,33.82a32.83,32.83,0,0,1-15.92,4,24.54,24.54,0,0,1-12-2.72L35,77.49,13.18,64.91c-1.91-1.1-4.18-3-4.18-5.77s2.3-5.71,6.32-8L93.53,6a32.7,32.7,0,0,1,15.91-4m0-2A34.8,34.8,0,0,0,92.53,4.22L14.32,49.38C9.48,52.17,7,55.75,7,59.14c0,2.82,1.7,5.5,5.18,7.5L34,79.22l61.52,35.52a26.41,26.41,0,0,0,13,3,34.81,34.81,0,0,0,16.92-4.23l58.56-33.81,19.65-11.34c4.71-2.72,7.18-6.18,7.31-9.49.12-2.9-1.57-5.7-5.16-7.77L122.43,3a26.42,26.42,0,0,0-13-3Z" fill="#fff"/><path d="M210.91,59.25v40.89c0,3.4-2.48,7-7.32,9.77l-78.21,45.15c-8.85,5.12-22.24,5.67-29.9,1.25l-83.3-48.1c-3.59-2.07-5.29-4.86-5.17-7.78H7V59.53C7,62.34,8.7,65,12.18,67L34,79.61l61.52,35.52c7.66,4.42,21,3.87,29.9-1.24l58.56-33.82,19.65-11.34c4.71-2.71,7.18-6.17,7.31-9.48Z" fill="#d4ecf6"/><path d="M108.46,115.73a24.54,24.54,0,0,1-12-2.72L35,77.49,13.18,64.91c-1.91-1.1-4.18-3-4.18-5.77s2.3-5.71,6.32-8L93.53,6a32.7,32.7,0,0,1,15.91-4,24.55,24.55,0,0,1,12,2.72l83.31,48.1c2.78,1.6,4.26,3.72,4.16,6-.1,2.73-2.4,5.58-6.31,7.83l-78.21,45.16A32.83,32.83,0,0,1,108.46,115.73Z" fill="url(#ac15961b-b734-44b3-80aa-581cfe842c82)"/><path d="M109.44,4h0a22.54,22.54,0,0,1,11,2.45l83.31,48.1c1.22.7,3.25,2.18,3.16,4.16s-2.06,4.3-5.31,6.17L181.94,76.22,123.38,110a30.65,30.65,0,0,1-14.92,3.7,22.53,22.53,0,0,1-11-2.45L36,75.76,14.18,63.18C13,62.49,11,61.06,11,59.14s2-4.4,5.32-6.29L94.53,7.69A30.63,30.63,0,0,1,109.44,4m0-4A34.8,34.8,0,0,0,92.53,4.22L14.32,49.38C9.48,52.17,7,55.75,7,59.14c0,2.82,1.7,5.5,5.18,7.5L34,79.22l61.52,35.52a26.41,26.41,0,0,0,13,3,34.81,34.81,0,0,0,16.92-4.23l58.56-33.81,19.65-11.34c4.71-2.72,7.18-6.18,7.31-9.49.12-2.9-1.57-5.7-5.16-7.77L122.43,3a26.42,26.42,0,0,0-13-3Z" fill="#fafbfc"/><path d="M109.44,2h0a24.55,24.55,0,0,1,12,2.72l83.31,48.1c2.78,1.6,4.26,3.72,4.16,6-.1,2.72-2.4,5.57-6.31,7.82L182.94,78l-58.56,33.82a32.83,32.83,0,0,1-15.92,4,24.54,24.54,0,0,1-12-2.72L35,77.49,13.18,64.91c-1.91-1.1-4.18-3-4.18-5.77s2.3-5.71,6.32-8L93.53,6a32.7,32.7,0,0,1,15.91-4m0-2A34.8,34.8,0,0,0,92.53,4.22L14.32,49.38C9.48,52.17,7,55.75,7,59.14c0,2.82,1.7,5.5,5.18,7.5L34,79.22l61.52,35.52a26.41,26.41,0,0,0,13,3,34.81,34.81,0,0,0,16.92-4.23l58.56-33.81,19.65-11.34c4.71-2.72,7.18-6.18,7.31-9.49.12-2.9-1.57-5.7-5.16-7.77L122.43,3a26.42,26.42,0,0,0-13-3Z" fill="#fff"/><path d="M210.91,59.25v40.89c0,3.4-2.48,7-7.32,9.77l-78.21,45.15c-8.85,5.12-22.24,5.67-29.9,1.25l-83.3-48.1c-3.59-2.07-5.29-4.86-5.17-7.78H7V59.53C7,62.34,8.7,65,12.18,67L34,79.61l61.52,35.52c7.66,4.42,21,3.87,29.9-1.24l58.56-33.82,19.65-11.34c4.71-2.71,7.18-6.17,7.31-9.48Z" fill="url(#e3432a23-b65b-4afa-8ac8-c51a467a68b9)"/><g id="a78c69c3-1c97-4a61-b4e9-e75e28c5aaa3" data-name="Deco"><ellipse cx="131" cy="130.88" rx="6.82" ry="3.94" transform="translate(-48.14 177.76) rotate(-59.64)" fill-opacity="0.17" fill="url(#f75cf786-abb0-4bcb-a8cc-ada2f8dae5c2)"/><path d="M210.91,88.43v.29c-.18.6-1.4,2.25-8,6.12l-.7.4L147.8,126.65c-2.44,1.41-4.42-.09-4.42-3.34s2-7,4.42-8.46l54.41-31.41.08,0a25.82,25.82,0,0,0,4.47-2.58c1.83-1.34,3.63-3.1,4.14-5.12V88.43Z" fill-opacity="0.17" fill="url(#a387c1a1-1a62-432a-be1a-a4a00a6eca14)"/></g></symbol><symbol id="fc880132-e6f0-481b-be17-4798e24d7e95" data-name="Snapshots" viewBox="0 0 236 177.28"><g filter="url(#e9e9877a-395e-4f40-864b-3068fde4cb65)"><path d="M108.83,164.13,23.2,114.69c-5.24-3-4.58-8.37,1.48-11.87l81.91-47.29c6.06-3.5,15.31-3.88,20.56-.85l85.62,49.43c5.25,3,4.58,8.38-1.48,11.87l-81.91,47.29C123.32,166.77,114.07,167.16,108.83,164.13Z" fill="url(#bf9afebe-a4ce-4b91-966e-07ea09882aff)"/></g><path d="M205.94,90.85c-.05,2-1.52,4.08-4.36,5.71l-10.26,5.92-64,37c-5.28,3.05-13.25,3.38-17.82.74l-66-38.1L31.94,95.43c-2.07-1.2-3.09-2.79-3.09-4.47,0-2,1.48-4.15,4.37-5.82l74.29-42.89c5.27-3,13.25-3.38,17.82-.74l77.53,44.76C205,87.49,206,89.14,205.94,90.85Z" fill="#fcfdfe" stroke="#6c7576" stroke-miterlimit="10"/><path d="M116.91,115.73a24.48,24.48,0,0,1-12-2.72L43.4,77.49,21.62,64.91c-1.91-1.1-4.18-3-4.18-5.77s2.31-5.71,6.32-8L102,6a32.72,32.72,0,0,1,15.92-4,24.51,24.51,0,0,1,12,2.72l83.31,48.1c2.78,1.6,4.26,3.72,4.16,6-.1,2.73-2.4,5.58-6.31,7.83l-78.21,45.16A32.81,32.81,0,0,1,116.91,115.73Z" fill="url(#b949e7d0-5116-4e5f-b1ed-21e5c500e2ee)"/><path d="M117.89,4h0a22.53,22.53,0,0,1,11,2.45l83.31,48.1c1.22.7,3.25,2.18,3.16,4.16S213.28,63,210,64.88L190.39,76.22,131.82,110a30.64,30.64,0,0,1-14.91,3.7,22.47,22.47,0,0,1-11-2.45L44.4,75.76,22.62,63.18c-1.19-.69-3.18-2.12-3.18-4s2-4.4,5.32-6.29L103,7.69A30.67,30.67,0,0,1,117.89,4m0-4A34.81,34.81,0,0,0,101,4.22L22.76,49.38c-4.84,2.79-7.32,6.37-7.32,9.76,0,2.82,1.71,5.5,5.18,7.5L42.4,79.22l61.53,35.52a26.38,26.38,0,0,0,13,3,34.8,34.8,0,0,0,16.91-4.23l58.57-33.81L212,68.35c4.71-2.72,7.19-6.18,7.31-9.49.12-2.9-1.57-5.7-5.16-7.77L130.87,3a26.41,26.41,0,0,0-13-3Z" fill="#fafbfc"/><path d="M117.89,2h0a24.51,24.51,0,0,1,12,2.72l83.31,48.1c2.78,1.6,4.26,3.72,4.16,6-.1,2.72-2.4,5.57-6.31,7.82L191.39,78l-58.57,33.82a32.81,32.81,0,0,1-15.91,4,24.48,24.48,0,0,1-12-2.72L43.4,77.49,21.62,64.91c-1.91-1.1-4.18-3-4.18-5.77s2.31-5.71,6.32-8L102,6a32.72,32.72,0,0,1,15.92-4m0-2A34.81,34.81,0,0,0,101,4.22L22.76,49.38c-4.84,2.79-7.32,6.37-7.32,9.76,0,2.82,1.71,5.5,5.18,7.5L42.4,79.22l61.53,35.52a26.38,26.38,0,0,0,13,3,34.8,34.8,0,0,0,16.91-4.23l58.57-33.81L212,68.35c4.71-2.72,7.19-6.18,7.31-9.49.12-2.9-1.57-5.7-5.16-7.77L130.87,3a26.41,26.41,0,0,0-13-3Z" fill="#fff"/><path d="M219.35,58.86v40.9c0,3.39-2.48,7-7.32,9.77l-78.21,45.15c-8.85,5.11-22.23,5.66-29.89,1.24l-83.31-48.1C17,105.75,15.33,103,15.46,100h0V59.14c0,2.82,1.71,5.5,5.18,7.5L42.4,79.22l61.53,35.52c7.66,4.43,21,3.87,29.89-1.24l58.57-33.81L212,68.35c4.71-2.72,7.19-6.18,7.31-9.49Z" fill="#d4ecf6"/><path d="M116.91,115.73a24.48,24.48,0,0,1-12-2.72L43.4,77.49,21.62,64.91c-1.91-1.1-4.18-3-4.18-5.77s2.31-5.71,6.32-8L102,6a32.72,32.72,0,0,1,15.92-4,24.51,24.51,0,0,1,12,2.72l83.31,48.1c2.78,1.6,4.26,3.72,4.16,6-.1,2.73-2.4,5.58-6.31,7.83l-78.21,45.16A32.81,32.81,0,0,1,116.91,115.73Z" fill="url(#b949e7d0-5116-4e5f-b1ed-21e5c500e2ee)"/><path d="M117.89,4h0a22.53,22.53,0,0,1,11,2.45l83.31,48.1c1.22.7,3.25,2.18,3.16,4.16S213.28,63,210,64.88L190.39,76.22,131.82,110a30.64,30.64,0,0,1-14.91,3.7,22.47,22.47,0,0,1-11-2.45L44.4,75.76,22.62,63.18c-1.19-.69-3.18-2.12-3.18-4s2-4.4,5.32-6.29L103,7.69A30.67,30.67,0,0,1,117.89,4m0-4A34.81,34.81,0,0,0,101,4.22L22.76,49.38c-4.84,2.79-7.32,6.37-7.32,9.76,0,2.82,1.71,5.5,5.18,7.5L42.4,79.22l61.53,35.52a26.38,26.38,0,0,0,13,3,34.8,34.8,0,0,0,16.91-4.23l58.57-33.81L212,68.35c4.71-2.72,7.19-6.18,7.31-9.49.12-2.9-1.57-5.7-5.16-7.77L130.87,3a26.41,26.41,0,0,0-13-3Z" fill="#fafbfc"/><path d="M117.89,2h0a24.51,24.51,0,0,1,12,2.72l83.31,48.1c2.78,1.6,4.26,3.72,4.16,6-.1,2.72-2.4,5.57-6.31,7.82L191.39,78l-58.57,33.82a32.81,32.81,0,0,1-15.91,4,24.48,24.48,0,0,1-12-2.72L43.4,77.49,21.62,64.91c-1.91-1.1-4.18-3-4.18-5.77s2.31-5.71,6.32-8L102,6a32.72,32.72,0,0,1,15.92-4m0-2A34.81,34.81,0,0,0,101,4.22L22.76,49.38c-4.84,2.79-7.32,6.37-7.32,9.76,0,2.82,1.71,5.5,5.18,7.5L42.4,79.22l61.53,35.52a26.38,26.38,0,0,0,13,3,34.8,34.8,0,0,0,16.91-4.23l58.57-33.81L212,68.35c4.71-2.72,7.19-6.18,7.31-9.49.12-2.9-1.57-5.7-5.16-7.77L130.87,3a26.41,26.41,0,0,0-13-3Z" fill="#fff"/><path d="M219.35,58.86v40.9c0,3.39-2.48,7-7.32,9.77l-78.21,45.15c-8.85,5.11-22.23,5.66-29.89,1.24l-83.31-48.1C17,105.75,15.33,103,15.46,100h0V59.14c0,2.82,1.71,5.5,5.18,7.5L42.4,79.22l61.53,35.52c7.66,4.43,21,3.87,29.89-1.24l58.57-33.81L212,68.35c4.71-2.72,7.19-6.18,7.31-9.49Z" fill="url(#a937d0d3-a022-4162-838d-37f01cb70916)"/><g id="aa4d0d68-8fef-4232-9392-487ea935a5f5" data-name="Deco"><ellipse cx="139.44" cy="130.88" rx="6.82" ry="3.94" transform="translate(-43.97 185.05) rotate(-59.64)" fill-opacity="0.17" fill="url(#acad19d1-a381-478e-bb98-00918a9f5e2e)"/><path d="M219.36,88.43v.29c-.18.6-1.4,2.25-8,6.12l-.7.4-54.41,31.41c-2.44,1.41-4.42-.09-4.42-3.34s2-7,4.42-8.46l54.41-31.41.08,0a25.82,25.82,0,0,0,4.47-2.58c1.83-1.34,3.63-3.1,4.14-5.12V88.43Z" fill-opacity="0.17" fill="url(#a3f499ff-3d92-443c-bff4-ded4ef8e28aa)"/></g></symbol></defs><g style="isolation:isolate"><g id="bca36f05-b4b4-4ea5-940c-d7c3e3f2b2f5" data-name="Artwork"><g id="f7726819-d109-47f1-8ea7-a152f5b2054e" data-name="LocalRecovery"><g id="bab3ba25-3791-421e-872f-d02fcbd7e3ff" data-name="arrows"><path d="M277.31,353.36c0,123,99.7,222.7,222.69,222.7,103.63,0,190.74-70.79,215.59-166.66" fill="none" stroke="#12b289" stroke-linecap="round" stroke-miterlimit="10" stroke-width="12.91" stroke-dasharray="25 50"/><path d="M722.69,353.36c0-123-99.71-222.69-222.69-222.69-103.64,0-190.74,70.8-215.59,166.66" fill="none" stroke="#12b289" stroke-linecap="round" stroke-miterlimit="10" stroke-width="12.91" stroke-dasharray="25 50"/><polyline points="259.17 355.74 277.31 342.11 295.44 355.74" fill="none" stroke="#00b287" stroke-linecap="round" stroke-linejoin="round" stroke-width="12.91"/><polyline points="704.55 348.92 722.7 362.56 740.83 348.92" fill="none" stroke="#00b287" stroke-linecap="round" stroke-linejoin="round" stroke-width="12.91"/></g><g id="e02e228d-c55c-4223-8db6-52534cf77ad9" data-name="Server2"><use width="229.36" height="166.29" transform="translate(359.52 503.58) scale(1.27)" xlink:href="#f0da9780-027b-45a2-b403-ddd795d3e469"/><use width="236" height="177.28" transform="translate(350 427.57) scale(1.27)" xlink:href="#fc880132-e6f0-481b-be17-4798e24d7e95"/><use width="236" height="177.28" transform="translate(350 353.37) scale(1.27)" xlink:href="#fc880132-e6f0-481b-be17-4798e24d7e95"/></g><g id="ea4ef526-74a2-41a9-ab63-6cc2f2cbc60d" data-name="Shield"><g id="e8a0e39e-e254-4cde-a49f-a9cafb10a3db" data-name="Shadow shield" opacity="0.5"><g filter="url(#e9e9877a-395e-4f40-864b-3068fde4cb65)"><path d="M535.87,868.35l-92.61-53.47c-2.5-1.44-2.18-4,.7-5.62h0c2.88-1.66,7.23-1.84,9.73-.4l92.61,53.47c2.5,1.44,2.18,4-.7,5.62h0C542.72,869.61,538.37,869.79,535.87,868.35Z" opacity="0.64" fill="url(#bb9e3a37-3b13-49f4-b982-0c9ddceb99e3)"/></g><g filter="url(#e9e9877a-395e-4f40-864b-3068fde4cb65)"><path d="M529.4,864l-81.47-47c-2.19-1.27-1.92-3.48.62-5h0c2.53-1.46,6.36-1.62,8.56-.35l81.47,47c2.19,1.27,1.92,3.48-.61,4.94h0C535.43,865.08,531.6,865.24,529.4,864Z" fill="url(#ab878c31-81bb-43d1-acc3-c2f9b6bb8c34)"/></g></g><path d="M418,592.39c1.09-.64,1.33,1.28,0,2.61-3.24,3.21,1.76,6.83,2,7,3.38,2.4,2.86,5,8,8,14.14,8.17,64.92,33.39,66,35,15,22.47,31.88,8.53,46,16.7a139.6,139.6,0,0,0,13,6.65,6.61,6.61,0,0,1,.7.36A13.14,13.14,0,0,1,559.67,679L559.41,773c-.06,18.79-7.77,29.58-18.13,35.6l22.89-13.3c10.35-6,18.07-16.81,18.12-35.59l.27-93.93a13.17,13.17,0,0,0-5.95-10.33c-.23-.13-.46-.25-.7-.36a139.6,139.6,0,0,1-13-6.65,145.89,145.89,0,0,1-48.29-44.78,11.49,11.49,0,0,0-3.69-3.62,4.56,4.56,0,0,0-3.7-.65c-15.09,5.1-34.24-2.87-48.39-11-5.14-3-9.63-6-13-8.38-.23-.16-.47-.31-.7-.45-1.64-.94-3.14-1-4.23-.4Z" fill="url(#aabfdc57-cf98-4e67-8a00-08847fb2ee71)"/><path d="M418,592.39c1.09-.64,2.59-.55,4.23.4a8.17,8.17,0,0,1,.7.45c3.38,2.41,7.86,5.4,13,8.38,14.14,8.16,33.3,16.13,48.39,11a4.53,4.53,0,0,1,3.69.65,11.58,11.58,0,0,1,3.7,3.61A145.84,145.84,0,0,0,540,661.7a139.6,139.6,0,0,0,13,6.65,6.61,6.61,0,0,1,.7.36A13.14,13.14,0,0,1,559.67,679L559.41,773c-.06,18.79-7.77,29.58-18.13,35.6l22.89-13.3c10.35-6,18.07-16.81,18.12-35.59l.27-93.93a13.17,13.17,0,0,0-5.95-10.33c-.23-.13-.46-.25-.7-.36a139.6,139.6,0,0,1-13-6.65,145.89,145.89,0,0,1-48.29-44.78,11.49,11.49,0,0,0-3.69-3.62,4.56,4.56,0,0,0-3.7-.65c-15.09,5.1-34.24-2.87-48.39-11-5.14-3-9.63-6-13-8.38-.23-.16-.47-.31-.7-.45-1.64-.94-3.14-1-4.23-.4Z" fill="url(#b9b09b90-2f0d-4563-b4fa-9e2276d1f2b3)"/><path d="M418,592.39c1.09-.64,133.63,210.15,123.27,216.17l22.89-13.3c10.35-6,18.07-16.81,18.12-35.59l.27-93.93a13.17,13.17,0,0,0-5.95-10.33c-.23-.13-.46-.25-.7-.36a139.6,139.6,0,0,1-13-6.65,145.89,145.89,0,0,1-48.29-44.78,11.49,11.49,0,0,0-3.69-3.62,4.56,4.56,0,0,0-3.7-.65c-15.09,5.1-34.24-2.87-48.39-11-5.14-3-9.63-6-13-8.38-.23-.16-.47-.31-.7-.45-1.64-.94-3.14-1-4.23-.4Z" opacity="0.72" fill="url(#a7af979f-b0be-42ae-a26a-58e6ac484a15)" style="mix-blend-mode:multiply"/><g style="isolation:isolate"><path d="M488,613.3a4.53,4.53,0,0,0-3.69-.65c-15.09,5.1-34.25-2.87-48.39-11-5.15-3-9.63-6-13-8.38a8.17,8.17,0,0,0-.7-.45c-3.25-1.88-6-.39-6,3.44L416,690.16c-.13,47.94,49.75,101.51,66.25,117.92a25.75,25.75,0,0,0,5.23,4.07,15.39,15.39,0,0,0,5.24,2c16.53,2.67,66.56,6.78,66.7-41.16l.26-93.93a13.14,13.14,0,0,0-5.94-10.32,6.61,6.61,0,0,0-.7-.36,139.6,139.6,0,0,1-13-6.65,145.84,145.84,0,0,1-48.29-44.79A11.58,11.58,0,0,0,488,613.3Z" fill="url(#a1319b2e-21fb-47ce-8c6f-0de04d118d13)"/><g opacity="0.25"><path d="M419.71,595.32a2.37,2.37,0,0,1,.87.35,3.49,3.49,0,0,1,.43.28c4.37,3.1,8.83,6,13.28,8.54,15,8.68,28.38,13.08,39.66,13.08a35.74,35.74,0,0,0,11.42-1.77,2.4,2.4,0,0,1,1,.37,8.28,8.28,0,0,1,2.59,2.59c15.54,23.27,35.44,37.76,49.4,45.82a143.61,143.61,0,0,0,13.33,6.81l.38.19a9.92,9.92,0,0,1,4.28,7.44L556.09,773c-.05,14.79-5.16,25.54-15.2,32-7.61,4.86-17.92,7.33-30.64,7.33a108.42,108.42,0,0,1-17-1.4,12.29,12.29,0,0,1-4.11-1.56,22.27,22.27,0,0,1-4.54-3.56c-15.35-15.25-65.41-68.68-65.28-115.55l.27-93.93a2.57,2.57,0,0,1,.13-.92m-.13-3.34c-1.95,0-3.31,1.54-3.32,4.25L416,690.16c-.13,47.94,49.75,101.51,66.25,117.92a25.75,25.75,0,0,0,5.23,4.07,15.39,15.39,0,0,0,5.24,2,112.36,112.36,0,0,0,17.54,1.44c21,0,49.06-6.73,49.16-42.6l.26-93.93a13.14,13.14,0,0,0-5.94-10.32,6.61,6.61,0,0,0-.7-.36,139.6,139.6,0,0,1-13-6.65,145.84,145.84,0,0,1-48.29-44.79,11.58,11.58,0,0,0-3.7-3.61,5.39,5.39,0,0,0-2.66-.82,3.18,3.18,0,0,0-1,.17,32.49,32.49,0,0,1-10.39,1.6c-12.84,0-26.95-6.25-38-12.63-5.15-3-9.63-6-13-8.38a8.17,8.17,0,0,0-.7-.45,5.37,5.37,0,0,0-2.66-.81Z" fill="#90e5ff"/></g></g><g id="e1c6d22e-1ffc-4d81-9c9a-909ddf33901b" data-name="inner glow front"><ellipse cx="487.62" cy="707.65" rx="57.48" ry="99.57" transform="translate(-290.8 343.51) rotate(-30.36)" opacity="0.34" fill="url(#eec1c5bb-9a17-47ff-bcad-8bf4b6148c74)" style="mix-blend-mode:overlay"/><ellipse cx="487.62" cy="707.65" rx="57.48" ry="99.57" transform="translate(-290.8 343.51) rotate(-30.36)" opacity="0.34" fill="url(#eec1c5bb-9a17-47ff-bcad-8bf4b6148c74)" style="mix-blend-mode:overlay"/></g><g id="a4bad9e9-8c72-41a8-8355-0ee6f35e7621" data-name="Checkmark"><g id="ab445d82-d3ec-4bfe-be1c-d545146c9fea" data-name="shadow" opacity="0.25" filter="url(#e9e9877a-395e-4f40-864b-3068fde4cb65)"><path d="M543.28,693.92c2,3.47,2,7.21,0,8.35l-72.81,41.42L445.38,705.2c-2.35-4.5-1-7.65.91-9,2.31-1.56,6.53-2.28,9.5,2.2l17.2,27,63-35.78C538,688.56,541.26,690.45,543.28,693.92Z" fill="#141226"/></g><path id="e5cce644-dd80-4603-9686-46696981664e" data-name="SYMBOLS" d="M539.25,693.43c2,3.47,2,7.22,0,8.36l-72.8,41.42-25.1-38.49c-2.35-4.5-1-7.65.91-9,2.32-1.56,6.54-2.28,9.5,2.2L469,725l63-35.78C534,688.08,537.24,690,539.25,693.43Z" fill="#fff" fill-opacity="0.95"/></g></g></g></g></g></svg>