<svg id="ea690890-0e66-45d5-982b-81fd2a6f9b99" data-name="ARTWORK" xmlns="http://www.w3.org/2000/svg" xmlns:xlink="http://www.w3.org/1999/xlink" viewBox="0 0 2500 2500"><defs><filter id="a8ff3cb5-8ba9-4a81-9986-9af04e8ee002" name="AI_DesenfoqueGaussiano_4"><feGaussianBlur stdDeviation="4"/></filter><linearGradient id="b70542bc-900a-4aff-aa4d-3bf476a3f7bf" x1="235.59" y1="43.83" x2="180.81" y2="96.84" gradientUnits="userSpaceOnUse"><stop offset="0" stop-color="#141226" stop-opacity="0.1"/><stop offset="0.01" stop-color="#141226" stop-opacity="0.1"/><stop offset="0.15" stop-color="#141226" stop-opacity="0.1"/><stop offset="0.87" stop-color="#141226" stop-opacity="0.3"/></linearGradient><linearGradient id="b2754f8f-bd03-4199-978c-80ac9bf54e53" x1="17084.75" y1="295.63" x2="17066.5" y2="507.65" gradientTransform="matrix(-1, 0, 0, 1, 17281.03, 0)" gradientUnits="userSpaceOnUse"><stop offset="0.01" stop-color="#0071b0"/><stop offset="0.37" stop-color="#0f89c6"/><stop offset="0.73" stop-color="#199bd6"/><stop offset="1" stop-color="#1da1dc"/></linearGradient><linearGradient id="f6101aeb-d666-4c62-aa70-778f73c9fa5a" x1="17120.54" y1="194.56" x2="17233.32" y2="125.06" gradientTransform="matrix(-1, 0, 0, 1, 17281.03, 0)" gradientUnits="userSpaceOnUse"><stop offset="0.01" stop-color="#0071b0"/><stop offset="0.1" stop-color="#0579b7"/><stop offset="0.42" stop-color="#128fcc"/><stop offset="0.72" stop-color="#1a9cd8"/><stop offset="1" stop-color="#1da1dc"/></linearGradient><linearGradient id="afc767e7-0867-45d0-bf22-b24e443ecc3b" x1="16944.39" y1="403.9" x2="17042.75" y2="203.95" gradientTransform="matrix(-1, 0, 0, 1, 17281.03, 0)" gradientUnits="userSpaceOnUse"><stop offset="0.01" stop-color="#0071b0"/><stop offset="0.29" stop-color="#0173b2"/><stop offset="0.39" stop-color="#057ab8"/><stop offset="0.46" stop-color="#0c85c3"/><stop offset="0.52" stop-color="#1696d2"/><stop offset="0.55" stop-color="#1da1dc"/><stop offset="0.98" stop-color="#1da1dc"/><stop offset="1" stop-color="#1da1dc"/></linearGradient><linearGradient id="ab519748-2414-4616-97e7-663e4b874af4" x1="17072.3" y1="160.18" x2="17141.53" y2="30.91" xlink:href="#afc767e7-0867-45d0-bf22-b24e443ecc3b"/><linearGradient id="bfdd520e-a507-4f45-837f-1cf53569d949" x1="-7029.39" y1="6637.75" x2="-6906.39" y2="6959.11" gradientTransform="matrix(0.01, 1, 1.38, -0.02, -8478.29, 8398.69)" gradientUnits="userSpaceOnUse"><stop offset="0" stop-color="#c2ebe8" stop-opacity="0.1"/><stop offset="0.05" stop-color="#8fe0d9" stop-opacity="0.1"/><stop offset="0.15" stop-color="#6ad8cf" stop-opacity="0.1"/><stop offset="0.87" stop-color="#43a39b" stop-opacity="0.3"/></linearGradient><linearGradient id="bc688227-6bff-4223-82b3-0abfed20ed51" x1="-5051.37" y1="7803.34" x2="-4607.84" y2="7803.34" gradientTransform="translate(-6201.61 -4153.13) rotate(-83.08)" xlink:href="#bfdd520e-a507-4f45-837f-1cf53569d949"/><linearGradient id="aa9b1fb7-6425-480b-9691-588925842a93" x1="1223.82" y1="708.11" x2="1122.45" y2="710.92" gradientTransform="matrix(1, 0, 0, 1, 0, 0)" xlink:href="#bfdd520e-a507-4f45-837f-1cf53569d949"/><linearGradient id="a4f73d97-c7f9-453f-a05f-90ba47132da2" x1="1178.74" y1="721.06" x2="836.6" y2="904.1" gradientUnits="userSpaceOnUse"><stop offset="0" stop-color="#c2ebe8" stop-opacity="0.1"/><stop offset="0.12" stop-color="#8fe0d9" stop-opacity="0.1"/><stop offset="0.36" stop-color="#6ad8cf" stop-opacity="0.1"/><stop offset="0.6" stop-color="#43a39b" stop-opacity="0.3"/></linearGradient><linearGradient id="b7821286-93d6-4e1b-aaaa-8724babc526a" x1="-4740.5" y1="4730.54" x2="-4342.4" y2="4730.54" gradientTransform="matrix(0.75, -0.69, 0.75, 0.81, 514.88, -5940.67)" xlink:href="#bfdd520e-a507-4f45-837f-1cf53569d949"/><linearGradient id="ab66fe8d-792e-46ec-b813-71e60d6a4ade" x1="-4776.51" y1="2129.42" x2="-4374.99" y2="2129.42" gradientTransform="matrix(0.95, 0.3, -0.35, 1.09, 5936.04, -383.91)" xlink:href="#bfdd520e-a507-4f45-837f-1cf53569d949"/><radialGradient id="bf2ccc28-640e-49a7-a7bb-d0833f794551" cx="1238.84" cy="1218.31" r="761" gradientTransform="translate(-821.86 151.36) rotate(-30.36) scale(1 1.61)" gradientUnits="userSpaceOnUse"><stop offset="0.36" stop-color="#43a39b" stop-opacity="0.6"/><stop offset="0.45" stop-color="#4db0a8" stop-opacity="0.47"/><stop offset="0.65" stop-color="#66d3ca" stop-opacity="0.15"/><stop offset="0.67" stop-color="#6ad8cf" stop-opacity="0.1"/></radialGradient><linearGradient id="ec1c36e2-c924-47a5-af63-33b8ffbcef8c" x1="-6556.86" y1="-6356.99" x2="-6816.14" y2="-5806.24" gradientTransform="matrix(-1, 0, 0, 1, -5239.74, 7415.42)" gradientUnits="userSpaceOnUse"><stop offset="0" stop-color="#a9a7b7"/><stop offset="0.59" stop-color="#8c8b9f"/><stop offset="1" stop-color="#7d7c93"/></linearGradient><linearGradient id="beab2473-8109-4a52-a19c-e216876d7f88" x1="-6100.57" y1="-5255.22" x2="-6891.25" y2="-7058.39" gradientTransform="matrix(-0.86, -0.5, -0.5, 0.86, -7454.59, 3317.23)" gradientUnits="userSpaceOnUse"><stop offset="0.21" stop-color="#141226"/><stop offset="0.53" stop-color="#27244b"/><stop offset="0.98" stop-color="#27244b"/><stop offset="1" stop-color="#27244b"/></linearGradient><filter id="f9a1cc74-62cc-4beb-8d48-7a99d719f8e0" name="AI_DesenfoqueGaussiano_7"><feGaussianBlur stdDeviation="7"/></filter><symbol id="b9de48a0-e8eb-4da2-bdbf-9582c44e876f" data-name="+ symbol blue" viewBox="0 0 331.34 438.12"><g id="a19290aa-d6e8-4798-98b1-b895319fab8e" data-name="Shadow" filter="url(#a8ff3cb5-8ba9-4a81-9986-9af04e8ee002)"><path d="M161,251.55l0-12.49-3.28-1.89L55,177.83c-4.9-2.83-8.87-9.69-8.85-15.32l.19-67.64c0-5.64,4-7.91,8.91-5.08l106,61.23.34-121.86c0-5.64,4-7.9,8.91-5.08L198.58,40.3l.11.06,25.84-15.24q.91,15.36.87,30.47C225.16,142.18,201.35,208.83,161,251.55Z" fill="url(#b70542bc-900a-4aff-aa4d-3bf476a3f7bf)" style="mix-blend-mode:multiply"/></g><g id="afc116da-14a2-4f8a-b864-77646ef7a010" data-name="+ Blue"><g style="isolation:isolate"><path d="M191.18,431.83,191.52,310l24.67-14.34-.34,121.86c0,2.8-1,4.77-2.59,5.69l-24.67,14.34C190.18,436.59,191.17,434.63,191.18,431.83Z" fill="url(#b2754f8f-bd03-4199-978c-80ac9bf54e53)"/><path d="M27.45,101.51c1.62-.94,3.85-.81,6.32.61l106,61.23-24.67,14.34L9.1,116.46c-2.47-1.43-4.7-1.56-6.32-.62Z" fill="url(#f6101aeb-d666-4c62-aa70-778f73c9fa5a)"/><path d="M216.44,207.59l106.05,61.23c4.9,2.83,8.86,9.69,8.85,15.33l-.2,67.64c0,2.79-1,4.76-2.59,5.69l-24.66,14.33c1.59-.92,2.58-2.89,2.59-5.69l.19-67.64c0-5.63-3.94-12.5-8.85-15.33l-106-61.23Z" fill="url(#afc767e7-0867-45d0-bf22-b24e443ecc3b)"/><path d="M124.4,50.75c-4.9-2.82-8.89-.56-8.9,5.08l-.35,121.86L9.1,116.46c-4.9-2.83-8.89-.56-8.91,5.08L0,189.18c0,5.63,4,12.49,8.85,15.32L114.9,265.73l-.34,121.86c0,5.63,3.94,12.49,8.84,15.32l58.87,34c4.9,2.83,8.89.56,8.91-5.07L191.52,310l106,61.23c4.91,2.83,8.89.55,8.91-5.08l.19-67.64c0-5.63-3.94-12.5-8.85-15.33l-106-61.23.35-121.85c0-5.64-4-12.5-8.85-15.33Z" fill="#39c2ec"/><path d="M142.75,35.8c1.62-.94,3.85-.8,6.32.62l58.86,34c4.91,2.83,8.87,9.69,8.86,15.32l-.35,121.86-24.67,14.33.35-121.85c0-5.64-4-12.5-8.85-15.33l-58.87-34c-2.47-1.42-4.7-1.55-6.31-.61Z" fill="url(#ab519748-2414-4616-97e7-663e4b874af4)"/></g></g></symbol></defs><g id="bd38d0c6-6437-4482-8fb8-b126f9fdb714" data-name="Plant"><path d="M384.22,1366.08q293-75.84,668.14-94.39Q867.77,1552.57,642.77,1519.4,407,1484.95,384.22,1366.08m0,0q-5-27.16,1.09-58.92,33-170,193.6-186.91,298.56-32.14,473.45,151.44Q677.18,1290.23,384.22,1366.08Z" fill="#c2ebe8"/><path d="M385.31,1307.16q33-170,193.6-186.91,298.56-32.14,473.45,151.44-375.18,18.54-668.14,94.39Q379.23,1338.92,385.31,1307.16Z" fill="url(#bfdd520e-a507-4f45-837f-1cf53569d949)"/><path d="M642.77,1519.4Q407,1484.95,384.22,1366.08q293-75.84,668.14-94.39Q867.77,1552.57,642.77,1519.4Z" fill="#c2ebe8"/><path d="M816.8,1785.94q69.94,21.16,170.47-52,169.37-123.41,47.69-366.6-184.6,187.17-218.16,418.65M770.7,1461.6q-88.08,113-34.86,251.53,33.38,58.3,81,72.81,33.56-231.48,218.16-418.65Q859.06,1348.74,770.7,1461.6Z" fill="#91e2db"/><path d="M770.7,1461.6q-88.08,113-34.86,251.53,33.38,58.3,81,72.81,33.56-231.48,218.16-418.65Q859.06,1348.74,770.7,1461.6Z" fill="#91e2db"/><path d="M816.8,1785.94q69.94,21.16,170.47-52,169.37-123.41,47.69-366.6Q850.36,1554.46,816.8,1785.94Z" fill="url(#bc688227-6bff-4223-82b3-0abfed20ed51)"/><path d="M1245.22,448.56q-86.55-30.56-199,83.62-171,173.37-2.23,447.42,149.48-273.57,201.18-531m83.3,71q-38.12-55.05-83.3-71Q1193.51,706,1044,979.6q198-3.66,280.41-152.81Q1406.65,678.19,1328.52,519.57Z" fill="#c2ebe8"/><path d="M1046.27,532.18q-171,173.37-2.23,447.42,149.48-273.57,201.18-531Q1158.67,418,1046.27,532.18Z" fill="url(#aa9b1fb7-6425-480b-9691-588925842a93)"/><path d="M1324.45,826.79q82.2-148.6,4.07-307.22-38.12-55.05-83.3-71Q1193.51,706,1044,979.6,1242.07,975.94,1324.45,826.79Z" fill="url(#a4f73d97-c7f9-453f-a05f-90ba47132da2)"/><path d="M324.32,921.67q-17.62,90.26,173.81,194.49,224,135.72,519.56,17.55Q693,945.13,324.32,921.67m46-68.81q-39.15,33.32-46,68.81,368.66,23.46,693.37,212-81.41-202.44-311.94-320Q508.64,734.25,370.29,852.86Z" fill="#91e2db"/><path d="M705.75,813.69q-197.11-79.44-335.46,39.17-39.15,33.32-46,68.81,368.66,23.46,693.37,212Q936.28,931.27,705.75,813.69Z" fill="#91e2db"/><path d="M324.32,921.67q-17.62,90.26,173.81,194.49,224,135.72,519.56,17.55Q693,945.13,324.32,921.67Z" fill="url(#b7821286-93d6-4e1b-aaaa-8724babc526a)"/><path d="M780.64,208.71q-91.1,58.36-133,300.39Q606,751.53,938.26,882.28q-39-383.44-157.62-673.57m122.53,2.4q-70.63-22.92-122.53-2.4Q899.26,498.83,938.26,882.28q212.19-138.51,191.82-348.09Q1109.74,324.91,903.17,211.11Z" fill="#91e2db"/><path d="M647.67,509.1Q606,751.53,938.26,882.28q-39-383.44-157.62-673.57Q689.55,267.08,647.67,509.1Z" fill="url(#ab66fe8d-792e-46ec-b813-71e60d6a4ade)"/><path d="M1130.08,534.19q-20.34-209.28-226.91-323.08-70.63-22.92-122.53-2.4Q899.26,498.83,938.26,882.28,1150.45,743.77,1130.08,534.19Z" fill="#91e2db"/><path id="b1857f8d-3934-41d0-9458-cefd01179e06" data-name="Gradient top" d="M1056.71,1659.88q-24.46,41.23-69.44,74-100.53,73.21-170.47,52-46.74-14.25-79.76-70.76l-1.2-2h0q-40-104.07-.24-193.68a312.26,312.26,0,0,1-92.83,0q-140-20.46-204.91-70.67-5.12-4-9.78-8.12-6.19-5.53-11.58-11.39A141.26,141.26,0,0,1,404.37,1414c-2.43-3.5-4.64-7.09-6.68-10.76q-2.91-5.25-5.29-10.72c-.42-1-.82-1.91-1.21-2.88a123.81,123.81,0,0,1-5.08-15.28c-.16-.61-.31-1.23-.46-1.84q-.79-3.21-1.43-6.48c-.17-.94-.33-1.88-.48-2.83q-4.2-26,1.57-56.09,8.74-45.12,26.49-79.45l.51-1q5-9.62,10.76-18.38,4.24-6.48,8.89-12.5t9.89-11.82a183.28,183.28,0,0,1,18.29-17.53q2.58-2.15,5.24-4.19,3.69-2.85,7.52-5.51,3.47-2.4,7.05-4.65A201.51,201.51,0,0,1,525,1131.37q-13.56-7.15-26.87-15.21-35.89-19.54-64.44-38.6-120.49-80.41-110-152.09c.18-1.27.39-2.54.63-3.8h0q6.82-35.49,46-68.81,58.86-50.46,128.36-65.07c2.83-.59,5.67-1.15,8.52-1.65l.56-.11.28,0c3.35-.58,6.71-1.11,10.09-1.57q86-11.68,187.65,29.27a824,824,0,0,1,102.43,61.59q147.71,104.78,209.51,258.43h0a846.54,846.54,0,0,1-105.46,34.66c1.76.86,3.53,1.72,5.28,2.6,2.26,1.14,4.52,2.29,6.76,3.47q6.74,3.52,13.35,7.26c2.2,1.25,4.4,2.51,6.58,3.79a494.26,494.26,0,0,1,108.16,86.2,896.71,896.71,0,0,1-69.55,93,452.6,452.6,0,0,1,52.15,2.6h0Q1124.32,1545.9,1056.71,1659.88Zm308.57-1016c-.14-1.43-.28-2.87-.44-4.31s-.34-3.05-.53-4.58q-.66-5.43-1.53-10.87c-.17-1-.33-2.06-.51-3.08q-8.51-50.24-33.75-101.51-38.12-55.05-83.3-71a112.4,112.4,0,0,0-39.1-6.44h-.27q-40.77.58-86.57,29.42-41.6-164.29-216.11-260.43a242.71,242.71,0,0,0-53.48-11.38l-1.39-.12c-2.3-.18-4.57-.32-6.83-.42-4-.17-7.88-.22-11.73-.12h-.37a142,142,0,0,0-48.73,9.63q-91.1,58.36-133,300.39Q606,751.53,938.26,882.28h0q23.1-15.09,43.46-31,21,61.14,62.32,128.33h0q51.78-1,95.65-11.87,123.91-30.79,184.76-140.94Q1374,737.18,1365.28,643.92Z" fill="url(#bf2ccc28-640e-49a7-a7bb-d0833f794551)"/></g><g id="b3058d09-95ce-4c61-ae98-42a7a9f1596f" data-name="Icon users"><g id="ac736654-3c57-4299-a231-6534b1b6871b" data-name="Circle Tick upgrade Calendar"><g style="isolation:isolate"><path d="M1032.6,810.87c64.28-37.36,153.29-32.09,251.54,24.63,195.23,112.72,353,386,352.36,610.31-.32,111.45-39.67,189.86-103.12,226.74l-26,15c63.46-36.88,102.81-115.29,103.13-226.74.63-224.34-157.13-497.59-352.36-610.31-98.25-56.72-187.27-62-251.54-24.64Z" fill="url(#ec1c36e2-c924-47a5-af63-33b8ffbcef8c)"/><ellipse cx="1257.03" cy="1256.67" rx="288.64" ry="498.32" transform="translate(-461.22 801.74) rotate(-30.16)" fill="url(#beab2473-8109-4a52-a19c-e216876d7f88)"/></g></g><g opacity="0.23" filter="url(#f9a1cc74-62cc-4beb-8d48-7a99d719f8e0)"><g id="a77b4858-fd5b-48fe-bce9-7608fffbf6ad" data-name="User icon"><g opacity="0.95"><path d="M1347,1408.39a24.56,24.56,0,0,1,3.28,11.93v50.18l-313-180.69v-50.17c0-3.76,1.09-6.9,3.28-8.14,8.75-7.49,18.6-14.35,30.64-17.43C1156.61,1185.57,1279.16,1272.64,1347,1408.39Zm-261.53-167.3a70.71,70.71,0,0,0-26.26,15v21.32l269.18,155.41-1.09-22C1267.13,1292,1159.89,1217.57,1085.48,1241.09Zm191.5-73.83c0,52.68-37.21,73.85-83.17,47.32s-83.16-90.66-83.16-143.35l0-3.06c1.42-50.43,38.07-70.27,83.12-44.26C1239.77,1050.45,1277,1114.58,1277,1167.26Zm-144.44-84.65,0,2.79c1.26,38.33,28.12,83.72,61.23,102.84,33.92,19.58,61.28,4,61.28-34.87s-27.36-86-61.28-105.62S1132.54,1043.73,1132.54,1082.61Z"/></g></g><g id="ecea86e5-0492-4ce4-9357-8b613398ede2" data-name="User icon"><g opacity="0.95"><path d="M1377.24,1093.47c-34.7-20-62.92-4.75-64,34.09l0,2.35c0,40.57,28.66,90,64,110.39s64,4.13,64-36.44S1412.63,1113.91,1377.24,1093.47Zm0,126.54c-25.5-14.72-46.18-49.67-47.15-79.18l0-2.16c0-29.94,21.07-41.92,47.19-26.84s47.19,51.39,47.19,81.34S1403.36,1235.09,1377.24,1220Z"/></g></g><path d="M1497.74,1398.74v38.64L1335.9,1344c-8-11.83-16.47-23.14-25.19-33.86l170.18,98.24-.84-16.91c-46.35-91.47-128.93-148.82-186.24-130.7A54.16,54.16,0,0,0,1275,1271q-8.58-8.36-17.35-15.94a4.15,4.15,0,0,1,1.57-1.71c6.75-5.77,14.33-11,23.6-13.42,65.73-21.94,160.11,45.1,212.35,149.65A18.94,18.94,0,0,1,1497.74,1398.74Z" opacity="0.95"/></g><path id="bcb4fe0e-5032-4549-a4cc-905ed087eba3" data-name="User icon" d="M1340.57,1407.53a24.56,24.56,0,0,1,3.28,11.93v50.18L1030.9,1289v-50.17c0-3.76,1.1-6.89,3.28-8.14,8.76-7.49,18.61-14.35,30.64-17.43C1150.17,1184.71,1272.73,1271.78,1340.57,1407.53Zm-261.52-167.29a70.47,70.47,0,0,0-26.26,14.94v21.32L1322,1431.91l-1.1-22C1260.69,1291.17,1153.46,1216.71,1079.05,1240.24Zm191.49-73.84c0,52.68-37.21,73.85-83.16,47.32s-83.17-90.66-83.17-143.35l0-3.06c1.42-50.43,38.06-70.27,83.12-44.26C1233.33,1049.59,1270.54,1113.72,1270.54,1166.4Zm-144.44-84.65.05,2.8c1.26,38.32,28.11,83.71,61.23,102.83,33.92,19.58,61.27,4,61.27-34.87s-27.35-86-61.27-105.62S1126.1,1042.87,1126.1,1081.75Z" fill="#fff" fill-opacity="0.95"/><path id="e641b64d-d2c4-47e1-bfcf-a0e8365a9390" data-name="User icon" d="M1370.8,1092.61c-34.7-20-62.91-4.75-64,34.09l0,2.36c0,40.56,28.65,90,64,110.38s64,4.13,64-36.44S1406.19,1113.05,1370.8,1092.61Zm0,126.54c-25.5-14.72-46.18-49.67-47.15-79.18l0-2.16c0-29.94,21.07-41.92,47.19-26.84s47.19,51.39,47.19,81.34S1396.93,1234.23,1370.8,1219.15Z" fill="#fff" fill-opacity="0.95"/><path d="M1491.3,1397.88v38.64l-161.84-93.43q-12.06-17.74-25.18-33.86l170.17,98.24-.84-16.91c-46.35-91.47-128.93-148.82-186.23-130.7a54.2,54.2,0,0,0-18.78,10.26q-8.58-8.36-17.35-15.93a4.07,4.07,0,0,1,1.58-1.72c6.74-5.77,14.32-11,23.59-13.42,65.74-21.94,160.11,45.1,212.36,149.65A18.93,18.93,0,0,1,1491.3,1397.88Z" fill="#fff" fill-opacity="0.95"/></g><use width="331.34" height="438.12" transform="translate(1411.1 1390.22)" xlink:href="#b9de48a0-e8eb-4da2-bdbf-9582c44e876f"/></svg>