<svg id="ARTWORK" xmlns="http://www.w3.org/2000/svg" xmlns:xlink="http://www.w3.org/1999/xlink" viewBox="0 0 2500 2500"><defs><style>.cls-1{fill:url(#linear-gradient);}.cls-2{fill:url(#linear-gradient-2);}.cls-3{fill:url(#linear-gradient-3);}.cls-4{fill:url(#linear-gradient-4);}.cls-5{fill:url(#linear-gradient-5);}.cls-6{fill:url(#linear-gradient-6);}.cls-7{fill:url(#linear-gradient-7);}.cls-8{fill:url(#linear-gradient-8);}.cls-9{fill:url(#Degradado_sin_nombre_20);}.cls-10{isolation:isolate;}.cls-11{fill:url(#Degradado_sin_nombre_966);}.cls-12{fill:url(#Degradado_sin_nombre_13);}.cls-13{fill:url(#linear-gradient-9);}.cls-14{filter:url(#AI_DesenfoqueGaussiano_4);}.cls-15{fill:#fff;fill-opacity:0.95;}.cls-16{fill:url(#Degradado_sin_nombre_203);}.cls-17{fill:url(#Degradado_sin_nombre_202);}.cls-18{fill:url(#Degradado_sin_nombre_201);}.cls-19{fill:#39c2ec;}.cls-20{fill:url(#Degradado_sin_nombre_201-2);}</style><linearGradient id="linear-gradient" x1="1199.58" y1="1989.3" x2="1314.43" y2="1837.35" gradientUnits="userSpaceOnUse"><stop offset="0" stop-color="#91e2db"/><stop offset="0.2" stop-color="#88dbd4"/><stop offset="0.59" stop-color="#7dd2cb"/><stop offset="1" stop-color="#79cfc8"/></linearGradient><linearGradient id="linear-gradient-2" x1="1248.72" y1="1952.37" x2="1377.7" y2="1761.54" xlink:href="#linear-gradient"/><linearGradient id="linear-gradient-3" x1="843.45" y1="1559.87" x2="1182.69" y2="1413.22" gradientUnits="userSpaceOnUse"><stop offset="0" stop-color="#c2ebe8"/><stop offset="1" stop-color="#91e2db"/></linearGradient><linearGradient id="linear-gradient-4" x1="985.38" y1="1482.69" x2="1160.3" y2="1373.15" gradientUnits="userSpaceOnUse"><stop offset="0" stop-color="#c2ebe8"/><stop offset="0.16" stop-color="#b3e8e4"/><stop offset="0.43" stop-color="#a0e5df"/><stop offset="0.7" stop-color="#95e3dc"/><stop offset="1" stop-color="#91e2db"/></linearGradient><linearGradient id="linear-gradient-5" x1="815.16" y1="927.44" x2="1232.14" y2="1088.22" xlink:href="#linear-gradient"/><linearGradient id="linear-gradient-6" x1="1023.57" y1="858.31" x2="1334" y2="1072.78" gradientUnits="userSpaceOnUse"><stop offset="0" stop-color="#91e2db"/><stop offset="1" stop-color="#79cfc8"/></linearGradient><linearGradient id="linear-gradient-7" x1="1443.47" y1="939.89" x2="1381.63" y2="1065.34" xlink:href="#linear-gradient-4"/><linearGradient id="linear-gradient-8" x1="1662.79" y1="797.75" x2="1323.55" y2="1015.07" xlink:href="#linear-gradient-4"/><radialGradient id="Degradado_sin_nombre_20" cx="1508.84" cy="1460.19" r="718.34" gradientTransform="translate(-981.74 193.57) rotate(-30.36) scale(1 1.61)" gradientUnits="userSpaceOnUse"><stop offset="0.36" stop-color="#43a39b" stop-opacity="0.6"/><stop offset="0.45" stop-color="#4db0a8" stop-opacity="0.47"/><stop offset="0.65" stop-color="#66d3ca" stop-opacity="0.15"/><stop offset="0.67" stop-color="#6ad8cf" stop-opacity="0.1"/></radialGradient><linearGradient id="Degradado_sin_nombre_966" x1="-6720.13" y1="-6126.85" x2="-6979.42" y2="-5576.09" gradientTransform="matrix(-1, 0, 0, 1, -5239.74, 7415.42)" gradientUnits="userSpaceOnUse"><stop offset="0" stop-color="#a9a7b7"/><stop offset="0.59" stop-color="#8c8b9f"/><stop offset="1" stop-color="#7d7c93"/></linearGradient><linearGradient id="Degradado_sin_nombre_13" x1="-6263.85" y1="-5025.08" x2="-7054.52" y2="-6828.24" gradientTransform="matrix(-0.86, -0.5, -0.5, 0.86, -7316.85, 3266.36)" gradientUnits="userSpaceOnUse"><stop offset="0.21" stop-color="#141226"/><stop offset="0.53" stop-color="#27244b"/><stop offset="0.98" stop-color="#27244b"/><stop offset="1" stop-color="#27244b"/></linearGradient><linearGradient id="linear-gradient-9" x1="1674.61" y1="1384.63" x2="1709.07" y2="1383.74" gradientUnits="userSpaceOnUse"><stop offset="0" stop-color="#141226" stop-opacity="0"/><stop offset="0.01" stop-color="#141226" stop-opacity="0"/><stop offset="0.52" stop-color="#141226" stop-opacity="0.1"/><stop offset="0.87" stop-color="#141226" stop-opacity="0.3"/></linearGradient><filter id="AI_DesenfoqueGaussiano_4" name="AI_DesenfoqueGaussiano_4"><feGaussianBlur stdDeviation="4"/></filter><linearGradient id="Degradado_sin_nombre_203" x1="1347.67" y1="1502.55" x2="1329.42" y2="1714.58" gradientTransform="matrix(-1, 0, 0, 1, 3127.36, 0)" gradientUnits="userSpaceOnUse"><stop offset="0.01" stop-color="#0071b0"/><stop offset="0.37" stop-color="#0f89c6"/><stop offset="0.73" stop-color="#199bd6"/><stop offset="1" stop-color="#1da1dc"/></linearGradient><linearGradient id="Degradado_sin_nombre_202" x1="1383.46" y1="1401.48" x2="1496.24" y2="1331.98" gradientTransform="matrix(-1, 0, 0, 1, 3127.36, 0)" gradientUnits="userSpaceOnUse"><stop offset="0.01" stop-color="#0071b0"/><stop offset="0.1" stop-color="#0579b7"/><stop offset="0.42" stop-color="#128fcc"/><stop offset="0.72" stop-color="#1a9cd8"/><stop offset="1" stop-color="#1da1dc"/></linearGradient><linearGradient id="Degradado_sin_nombre_201" x1="1207.31" y1="1610.82" x2="1305.67" y2="1410.87" gradientTransform="matrix(-1, 0, 0, 1, 3127.36, 0)" gradientUnits="userSpaceOnUse"><stop offset="0.01" stop-color="#0071b0"/><stop offset="0.29" stop-color="#0173b2"/><stop offset="0.39" stop-color="#057ab8"/><stop offset="0.46" stop-color="#0c85c3"/><stop offset="0.52" stop-color="#1696d2"/><stop offset="0.55" stop-color="#1da1dc"/><stop offset="0.98" stop-color="#1da1dc"/><stop offset="1" stop-color="#1da1dc"/></linearGradient><linearGradient id="Degradado_sin_nombre_201-2" x1="1335.23" y1="1367.1" x2="1404.46" y2="1237.83" xlink:href="#Degradado_sin_nombre_201"/></defs><g id="Plant2"><path class="cls-1" d="M1056,1977.15c108.84-11.79,256.46-87.39,405.92-114.21,4.43-.8-14.33-20.39-9.89-21.15-325.12-31.25-385.24,91.11-396.07,130.07A10.66,10.66,0,0,0,1056,1977.15Z"/><path class="cls-2" d="M1477.81,1873.73,1455,1842.07l-3-.28c-154.31,26.56-302,71.41-396,135.36a22.76,22.76,0,0,0,12.9,14.84C1172.76,2032.38,1477.81,1873.73,1477.81,1873.73Z"/><path class="cls-3" d="M1476.46,1864.2c-237.31,127.69-866.95-213.8-891-771.51,74.35,140.53,174.15,306.86,315.65,421.25,209.38,169.24,433.05,297.93,570.21,313.48C1485.63,1843.55,1490,1856.94,1476.46,1864.2Z"/><path class="cls-4" d="M1471.3,1827.42c-137.16-15.55-360.83-144.24-570.21-313.48-141.5-114.39-241.3-280.72-315.65-421.25-.07-1.29-.12-2.58-.17-3.87-2.25-59.17,388,245.94,698.67,611C1283.94,1699.79,1426.5,1777,1471.3,1827.42Z"/><path class="cls-5" d="M1433.1,1413.19c-70,61.9-177.11,149.61-177.11,149.61C700.17,1155.67,866.1,622.6,906.52,516.35a23.1,23.1,0,0,1,14.05-13.64C1008.57,671.54,1142.48,1096.29,1433.1,1413.19Z"/><path class="cls-6" d="M1517.69,1338.26c-16.92,6-66.54,47.33-118.09,92.88-290.62-316.9-422.69-733.73-479-928.43a23,23,0,0,1,14.12-.33C1201.9,581.48,1676.05,1281.7,1517.69,1338.26Z"/><path class="cls-7" d="M1617.78,560.66c-37.76,167-168.32,422-234.33,656.44-2,7-24.23-11.52-26.15-4.56,24.34-467.19,199.39-614.75,253.45-649.42A15.93,15.93,0,0,1,1617.78,560.66Z"/><path class="cls-8" d="M1394.6,1235.48l-37.52-18.66c.07-1.43.14-2.86.22-4.28C1424,971,1513.59,730.68,1617.78,560.66a15.91,15.91,0,0,1,17.13,12.05C1667.62,707.4,1394.6,1235.48,1394.6,1235.48Z"/><path class="cls-9" d="M1471.3,1827.42c14.33,16.13,18.66,29.52,5.16,36.78-1.32.71-2.67,1.39-4,2.07l5.37,7.46s-305,158.65-408.89,118.26a22.76,22.76,0,0,1-12.9-14.84,10.66,10.66,0,0,1,0-5.29c6.72-24.19,32.46-80.53,128.83-112.29-268.23-91.41-582.5-376-599.37-766.88-.07-1.29-.12-2.58-.17-3.87-2.25-59.17,388,245.94,698.67,611C1283.94,1699.79,1426.5,1777,1471.3,1827.42ZM1634.91,572.71a16,16,0,0,0-24.16-9.59C1569,589.9,1455,684.07,1394.1,941c-132.6-195.88-323-398.19-459.41-438.58a23.13,23.13,0,0,0-28.17,14C866.1,622.6,700.17,1155.67,1256,1562.8c0,0,107.08-87.71,177.11-149.61q-2.88-3.14-5.74-6.3c40.76-35.15,76.49-63.68,90.33-68.63,59.09-21.1,30.11-131.82-43.31-266.45C1552.11,904.92,1655.79,658.68,1634.91,572.71Z"/></g><g id="Icon"><g id="Circle_Tick_upgrade_Calendar" data-name="Circle Tick upgrade Calendar"><g class="cls-10"><path class="cls-11" d="M1195.87,1041c64.28-37.35,153.29-32.08,251.54,24.64,195.24,112.72,353,386,352.36,610.31-.31,111.45-39.66,189.86-103.12,226.74l-26,15c63.46-36.87-436.5-899-500.78-861.68Z"/><ellipse class="cls-12" cx="1420.3" cy="1486.82" rx="288.64" ry="498.32" transform="translate(-554.75 914.94) rotate(-30.16)"/></g></g><path class="cls-13" d="M1622.86,1465.89V1269.43l26.4-14.27s72.29,103.26,98,176v81.74Z"/><g id="OrgIcon-"><g id="OrgIcon" class="cls-14"><path d="M1623.24,1618.43c-5.29-9.09-12.46-16.61-19.92-20.92l-17.83-10.3v-52.84a31.79,31.79,0,0,0-4.56-15,32.14,32.14,0,0,0-10.8-11.47L1442.07,1434v-35.23l15.37,8.87c7.46,4.31,14.63,5.07,19.92,2.1s8.3-9.43,8.35-17.94v-70.46c0-8.61-3-18.57-8.27-27.7s-12.5-16.72-20-21L1396,1237.06c-7.51-4.34-14.7-5.07-20-2s-8.29,9.54-8.29,18.14v70.46c.06,8.58,3.07,18.5,8.37,27.59s12.45,16.59,19.92,20.91l15.36,8.87v35.23l-128.06-73.94c-4.06-2.28-7.93-2.63-10.8-1s-4.51,5.14-4.56,9.76v52.84l-17.82-10.29c-7.47-4.31-14.63-5-19.93-2.08s-8.3,9.41-8.36,17.94v70.46c0,8.6,3,18.57,8.29,27.7s12.49,16.7,20,21l61.46,35.49c7.46,4.26,14.6,4.93,19.86,1.89s8.21-9.53,8.21-18.09v-70.46c-.05-8.54-3-18.41-8.28-27.47s-12.37-16.57-19.79-20.92l-12.91-7.45v-35.23l112.69,65.06v35.23L1396,1477.8c-7.47-4.31-14.63-5.06-19.92-2.09s-8.31,9.41-8.37,17.94v70.46c0,8.6,3,18.57,8.29,27.71s12.49,16.7,20,21l61.46,35.49c7.5,4.32,14.69,5.07,20,2.05s8.27-9.54,8.27-18.14v-70.46c0-8.59-3-18.5-8.35-27.59s-12.46-16.61-19.92-20.91l-15.37-8.88v-35.23l112.7,65.07v35.23l-12.91-7.46c-7.43-4.22-14.55-4.92-19.8-1.92s-8.22,9.42-8.27,17.89v70.47c0,8.56,2.94,18.46,8.2,27.57s12.4,16.68,19.87,21l61.46,35.49c7.5,4.33,14.69,5.07,20,2s8.27-9.53,8.27-18.14V1646C1631.54,1637.42,1628.54,1627.52,1623.24,1618.43Zm-319.46-152.76v52.85l-46.11-26.62v-52.85Zm145.88,84.23v52.85l-45.9-26.5V1523.4Zm-45.9-214.39v-52.85l45.9,26.49V1362Zm192,351.58-46.1-26.62v-52.85l46.1,26.62Z"/></g><path id="OrgIcon-2" data-name="OrgIcon" class="cls-15" d="M1611.16,1623.47c-5.3-9.09-12.47-16.61-19.93-20.92l-17.83-10.3v-52.84a31.57,31.57,0,0,0-4.56-15,32.14,32.14,0,0,0-10.8-11.47L1430,1439v-35.23l15.37,8.87c7.46,4.31,14.63,5.07,19.92,2.1s8.3-9.42,8.36-17.94v-70.46c0-8.61-3-18.57-8.28-27.7s-12.5-16.72-20-21.05l-61.46-35.48c-7.51-4.34-14.7-5.07-20-2s-8.28,9.54-8.28,18.14v70.46c.05,8.58,3.06,18.5,8.36,27.59s12.45,16.6,19.92,20.91l15.36,8.87v35.23l-128.06-73.94c-4-2.28-7.93-2.63-10.8-1s-4.5,5.14-4.56,9.76v52.84L1238,1398.61c-7.47-4.31-14.63-5-19.92-2.08s-8.31,9.41-8.36,17.94v70.46c0,8.6,3,18.57,8.28,27.7s12.49,16.7,20,21l61.46,35.49c7.46,4.26,14.6,4.93,19.86,1.89s8.21-9.53,8.21-18.09v-70.46c0-8.54-3-18.41-8.28-27.47s-12.37-16.57-19.79-20.92l-12.91-7.45v-35.23l112.69,65.06v35.23l-15.36-8.87c-7.47-4.31-14.63-5.06-19.92-2.09s-8.31,9.41-8.36,17.94v70.46c0,8.6,3,18.57,8.28,27.71s12.49,16.7,20,21l61.46,35.49c7.5,4.32,14.69,5.07,20,2s8.28-9.54,8.28-18.14v-70.46c-.06-8.59-3.06-18.5-8.36-27.59s-12.46-16.61-19.92-20.91l-15.37-8.88v-35.23l112.7,65.07v35.23l-12.91-7.46c-7.43-4.22-14.54-4.92-19.79-1.92s-8.23,9.42-8.28,17.9v70.46c0,8.56,2.94,18.46,8.2,27.57s12.4,16.68,19.87,21l61.46,35.49c7.5,4.33,14.69,5.07,20,2.05s8.28-9.53,8.28-18.14v-70.46C1619.45,1642.46,1616.45,1632.56,1611.16,1623.47Zm-319.47-152.76v52.85l-46.11-26.62v-52.85Zm145.88,84.23v52.85l-45.9-26.5v-52.85Zm-45.9-214.39V1287.7l45.9,26.49V1367Zm192,351.58-46.1-26.62v-52.85l46.1,26.62Z"/></g></g><g id="PlusBlue"><g id="_Blue" data-name="+ Blue"><g class="cls-10"><path class="cls-16" d="M1774.58,1638.75l.34-121.86,24.67-14.33-.34,121.86c0,2.79-1,4.76-2.59,5.69L1772,1644.44C1773.58,1643.52,1774.57,1641.55,1774.58,1638.75Z"/><path class="cls-17" d="M1610.85,1308.43c1.62-.94,3.85-.81,6.32.62l106,61.23-24.67,14.33-106-61.23c-2.47-1.42-4.7-1.55-6.32-.61Z"/><path class="cls-18" d="M1799.84,1414.51l106.05,61.23c4.9,2.83,8.86,9.7,8.85,15.33l-.2,67.64c0,2.8-1,4.77-2.58,5.69l-24.67,14.34c1.59-.93,2.58-2.9,2.59-5.69l.19-67.64c0-5.64-3.94-12.5-8.85-15.33l-106-61.23Z"/><path class="cls-19" d="M1707.8,1257.68c-4.9-2.83-8.89-.56-8.9,5.07l-.35,121.86-106-61.23c-4.9-2.83-8.89-.55-8.91,5.08l-.19,67.64c0,5.63,3.95,12.5,8.85,15.33l106,61.23-.34,121.85c0,5.64,3.94,12.5,8.84,15.33l58.87,34c4.9,2.83,8.89.57,8.91-5.07l.34-121.86,106,61.23c4.91,2.83,8.89.55,8.91-5.07l.19-67.64c0-5.64-3.94-12.5-8.85-15.33l-106-61.23.35-121.86c0-5.63-4-12.49-8.85-15.32Z"/><path class="cls-20" d="M1726.15,1242.73c1.62-.94,3.85-.81,6.32.61l58.86,34c4.91,2.83,8.87,9.69,8.86,15.32l-.35,121.86-24.67,14.34.35-121.86c0-5.63-4-12.49-8.85-15.32l-58.87-34c-2.46-1.42-4.7-1.56-6.31-.62Z"/></g></g></g></svg>