<?xml version="1.0" encoding="UTF-8"?><svg xmlns="http://www.w3.org/2000/svg" xmlns:xlink="http://www.w3.org/1999/xlink" viewBox="0 0 2500 2500"><defs><style>.cls-1,.cls-2,.cls-3,.cls-4,.cls-5,.cls-6,.cls-7,.cls-8,.cls-9,.cls-10,.cls-11,.cls-12,.cls-13,.cls-14,.cls-15,.cls-16,.cls-17,.cls-18,.cls-19,.cls-20,.cls-21,.cls-22,.cls-23,.cls-24,.cls-25{stroke-width:0px;}.cls-1,.cls-3{fill:#141226;}.cls-26{opacity:.18;}.cls-2{fill:url(#linear-gradient);}.cls-3{opacity:.15;}.cls-4{fill:url(#linear-gradient-6);}.cls-5{fill:url(#Nueva_muestra_de_degradado_11);}.cls-6{fill:#333a45;}.cls-7{fill:url(#Degradado_sin_nombre_17-2);}.cls-7,.cls-8{opacity:.3;}.cls-27{stroke:#90aac1;stroke-width:2.22px;}.cls-27,.cls-28,.cls-10,.cls-29,.cls-30,.cls-31,.cls-32{fill:none;}.cls-27,.cls-28,.cls-29,.cls-31,.cls-32{stroke-linecap:round;stroke-linejoin:round;}.cls-8{fill:url(#Degradado_sin_nombre_17);}.cls-28,.cls-29,.cls-31,.cls-32{stroke:#1da1dc;}.cls-28,.cls-31{stroke-width:18.2px;}.cls-28,.cls-32{stroke-dasharray:0 0 19.21 33.61;}.cls-33,.cls-16{opacity:.2;}.cls-34{filter:url(#AI_DesenfoqueGaussiano_7);}.cls-9{fill:url(#linear-gradient-5);}.cls-11{fill:#85d8d1;}.cls-12{fill:#fcfdfe;}.cls-29,.cls-32{stroke-width:7.3px;}.cls-13{fill:url(#Degradado_sin_nombre_4);}.cls-14{fill:url(#linear-gradient-2);}.cls-30{opacity:.47;stroke:#333a45;stroke-width:2.5px;}.cls-15{fill:url(#linear-gradient-7);}.cls-16{fill:#90e5ff;}.cls-35{opacity:.16;}.cls-17{fill:url(#linear-gradient-3);}.cls-18{fill:url(#linear-gradient-9);}.cls-19{fill:#39c2ec;}.cls-20{fill:url(#linear-gradient-8);}.cls-21{fill:#fff;}.cls-22{fill:url(#linear-gradient-10);}.cls-23{fill:#fafbfc;}.cls-24{fill:url(#linear-gradient-4);}.cls-25{fill:#e2e7eb;}</style><linearGradient id="linear-gradient" x1="286.61" y1="278.35" x2="618.98" y2="154.55" gradientUnits="userSpaceOnUse"><stop offset=".13" stop-color="#5d7586" stop-opacity=".3"/><stop offset=".45" stop-color="#90aac1" stop-opacity=".1"/><stop offset=".58" stop-color="rgba(156,182,203,.08)" stop-opacity=".08"/><stop offset=".7" stop-color="rgba(196,220,233,.02)" stop-opacity=".02"/><stop offset=".73" stop-color="#d4ecf6" stop-opacity="0"/></linearGradient><linearGradient id="linear-gradient-2" x1="12" y1="252.24" x2="557.86" y2="252.24" gradientUnits="userSpaceOnUse"><stop offset="0" stop-color="#e5f4fa"/><stop offset=".36" stop-color="#e5f4fa"/><stop offset=".45" stop-color="#d5eaf7"/><stop offset=".54" stop-color="#c8e3f5"/><stop offset=".74" stop-color="#cbe4f4"/><stop offset="1" stop-color="#cee7f5"/></linearGradient><linearGradient id="Nueva_muestra_de_degradado_11" x1="47.61" y1="145.23" x2="571.83" y2="219.41" gradientUnits="userSpaceOnUse"><stop offset="0" stop-color="#fafbfc"/><stop offset=".55" stop-color="#f5f8fa"/><stop offset=".99" stop-color="#e6f4fa"/><stop offset=".99" stop-color="#d4ecf6" stop-opacity=".9"/></linearGradient><linearGradient id="linear-gradient-3" x1="309.83" y1="222.2" x2="564.6" y2="222.2" gradientUnits="userSpaceOnUse"><stop offset="0" stop-color="#5d7586" stop-opacity=".15"/><stop offset=".45" stop-color="#90aac1" stop-opacity=".05"/><stop offset=".8" stop-color="rgba(169,195,213,.03)" stop-opacity=".03"/><stop offset="1" stop-color="#d4ecf6" stop-opacity="0"/></linearGradient><filter id="AI_DesenfoqueGaussiano_7"><feGaussianBlur stdDeviation="7"/></filter><linearGradient id="linear-gradient-4" x1="332.27" y1="191.29" x2="348.47" y2="216.65" gradientUnits="userSpaceOnUse"><stop offset="0" stop-color="#d0d8dc"/><stop offset=".8" stop-color="#9aa8b1"/></linearGradient><linearGradient id="linear-gradient-5" x1="175.67" y1="125.34" x2="238.19" y2="318.59" gradientUnits="userSpaceOnUse"><stop offset="0" stop-color="#fafbfc"/><stop offset=".55" stop-color="#f5f8fa"/><stop offset="1" stop-color="#e5f4fa"/></linearGradient><linearGradient id="linear-gradient-6" x1="240.52" y1="23.25" x2="370.67" y2="234.97" gradientUnits="userSpaceOnUse"><stop offset=".78" stop-color="#f1f9fc"/><stop offset=".88" stop-color="#dcedf8"/><stop offset="1" stop-color="#c9e2f5"/></linearGradient><linearGradient id="Degradado_sin_nombre_17" x1="245.16" y1="230.1" x2="254.49" y2="234.06" gradientUnits="userSpaceOnUse"><stop offset="0" stop-color="#00b080"/><stop offset=".19" stop-color="#07ad95"/><stop offset=".54" stop-color="#13a9bd"/><stop offset=".83" stop-color="#1ba7d5"/><stop offset="1" stop-color="#1da6de"/></linearGradient><linearGradient id="Degradado_sin_nombre_17-2" x1="241.86" y1="233.33" x2="320.47" y2="266.7" xlink:href="#Degradado_sin_nombre_17"/><symbol id="ClusterPlusBase" viewBox="0 0 620.73 387.03"><g id="RubrikClusters"><g id="Circular_base"><g class="cls-35"><path class="cls-11" d="M282.95,59.87c70.19,0,140.53,15.53,194.28,46.56,106.98,61.76,107.6,161.54,1.4,222.85-52.84,30.51-122.2,45.75-191.71,45.75s-140.53-15.53-194.28-46.56c-106.98-61.76-107.6-161.54-1.4-222.85,52.84-30.51,122.2-45.75,191.71-45.75M282.97,47.87v12-12c-74.63,0-144.84,16.82-197.73,47.36-27.36,15.8-48.65,34.38-63.27,55.24C7.39,171.27,0,193.42,0,216.3,0,239.39,7.52,261.78,22.36,282.85c14.87,21.12,36.5,39.96,64.29,56.01,53.8,31.06,124.93,48.17,200.28,48.17s144.81-16.82,197.71-47.36c27.36-15.8,48.65-34.38,63.27-55.24,14.58-20.81,21.98-42.96,21.98-65.84s-7.52-45.48-22.36-66.55c-14.87-21.12-36.5-39.96-64.29-56.01-53.8-31.06-124.92-48.17-200.26-48.17h0Z"/></g><g class="cls-26"><path class="cls-6" d="M282.95,59.87c70.19,0,140.53,15.53,194.28,46.56,106.98,61.76,107.6,161.54,1.4,222.85-52.84,30.51-122.2,45.75-191.71,45.75s-140.53-15.53-194.28-46.56c-106.98-61.76-107.6-161.54-1.4-222.85,52.84-30.51,122.2-45.75,191.71-45.75M282.97,53.87h-.03c-73.57,0-142.72,16.54-194.71,46.55-26.6,15.36-47.24,33.35-61.35,53.48-13.86,19.78-20.89,40.77-20.89,62.39s7.15,43.05,21.26,63.1c14.36,20.4,35.35,38.66,62.38,54.27,52.9,30.54,122.97,47.36,197.28,47.36s142.71-16.53,194.71-46.55c26.6-15.36,47.24-33.35,61.35-53.48,13.86-19.78,20.89-40.77,20.89-62.39s-7.15-43.05-21.26-63.1c-14.36-20.4-35.35-38.66-62.38-54.27-52.9-30.54-122.96-47.36-197.26-47.36h0Z"/></g><path class="cls-30" d="M478.63,329.28c-106.2,61.32-279.02,60.95-385.99-.81-106.98-61.76-107.6-161.54-1.4-222.85,106.2-61.32,279.02-60.95,385.99.81,106.98,61.76,107.6,161.54,1.4,222.85Z"/><polygon class="cls-2" points="522.06 59.39 284.94 59.39 284.94 375.02 616.59 375.02 522.06 59.39"/><path class="cls-14" d="M478.64,329.28c-106.2,61.31-279.01,60.96-385.99-.81C12.25,282.05-8.08,214.17,31.87,157.28h-.01l17.76-27.83h469.57l17.32,27.83h-.02c41.66,57.28,22.46,125.64-57.85,172Z"/><path class="cls-5" d="M286.84,321.06c-66.73,0-129.53-15.04-176.83-42.35-46.96-27.11-72.81-62.96-72.81-100.94s25.4-72.95,71.53-99.58c46.47-26.83,108.43-41.61,174.47-41.61s129.53,15.04,176.83,42.35c46.96,27.11,72.81,62.96,72.81,100.94s-25.4,72.95-71.53,99.58c-46.47,26.83-108.43,41.61-174.47,41.61Z"/><path class="cls-23" d="M283.22,34.59v4c32.29,0,63.79,3.55,93.63,10.55,30.82,7.23,58.46,17.84,82.17,31.53,23.54,13.59,41.74,29.38,54.08,46.92,11.77,16.72,17.73,34.31,17.73,52.29s-5.85,35.19-17.4,51.66c-12.11,17.29-29.99,32.82-53.13,46.18-46.17,26.66-107.78,41.34-173.47,41.34-32.29,0-63.8-3.55-93.64-10.55-30.83-7.23-58.48-17.84-82.19-31.53-23.54-13.59-41.74-29.38-54.08-46.92-11.77-16.72-17.73-34.31-17.73-52.29s5.85-35.19,17.4-51.66c12.11-17.29,29.99-32.82,53.13-46.18,46.17-26.65,107.77-41.34,173.47-41.34l.02-4M283.2,34.59c-63.62,0-127.11,13.95-175.47,41.88-97.21,56.12-96.63,147.45,1.28,203.98,49.19,28.4,113.59,42.62,177.83,42.62s127.1-13.95,175.47-41.88c97.21-56.12,96.63-147.45-1.28-203.98-49.2-28.4-113.58-42.62-177.83-42.62h0Z"/><path class="cls-21" d="M283.22,34.59v2c66.71,0,129.51,15.04,176.81,42.35,23.79,13.74,42.21,29.72,54.72,47.5,12.01,17.06,18.1,35.04,18.1,53.44s-5.98,35.99-17.76,52.81c-12.28,17.53-30.37,33.26-53.77,46.77-46.47,26.83-108.44,41.61-174.47,41.61s-129.53-15.04-176.83-42.35c-23.79-13.74-42.2-29.72-54.72-47.5-12.01-17.06-18.1-35.04-18.1-53.44s5.98-35.99,17.76-52.81c12.28-17.53,30.37-33.26,53.77-46.77,46.47-26.83,108.43-41.6,174.47-41.61l.02-2M283.2,34.59c-63.62,0-127.11,13.95-175.47,41.88-97.21,56.12-96.63,147.45,1.28,203.98,49.19,28.4,113.59,42.62,177.83,42.62s127.1-13.95,175.47-41.88c97.21-56.12,96.63-147.45-1.28-203.98-49.2-28.4-113.58-42.62-177.83-42.62h0Z"/></g></g><g id="RubrikClusterLogo"><path class="cls-27" d="M301.43,281.81l1.54.89c2.95,1.7,5.62,1.85,7.55.72,0,0,0,0,0,0l175.34-101.89c1.91-1.11,3.09-3.46,3.1-6.8l.12-43.5c.02-6.72-4.73-14.95-10.58-18.33L287.37,2.56c-2.94-1.7-5.62-1.85-7.55-.73L104.48,103.72s0,0,0,0c-1.91,1.11-3.1,3.46-3.11,6.8v1.85s-2.12,1.19-2.12,1.19c0,0,.07.03.11.05-1.21.64-1.97,2.06-1.97,4.13l-.12,43.5c-.01,4.04,2.83,8.97,6.35,11l191.14,110.36c2,1.16,3.77,1.09,4.94.11l1.72-.9Z"/><polygon class="cls-17" points="309.83 284.71 423.13 284.71 476.18 308.5 620.73 308.5 538.57 163.58 498.91 135.9 309.83 135.9 309.83 284.71"/><g id="shadowSVG" class="cls-34"><path class="cls-3" d="M100.42,169.84c-3.14-1.82-3.14-4.81-.02-6.64l164.7-96.65c3.13-1.83,8.26-1.87,11.41-.07l202.61,115.63c3.15,1.8,3.15,4.73,0,6.52l-169.29,96.08c-3.15,1.79-8.3,1.77-11.43-.05l-197.98-114.81Z"/></g><path class="cls-1" d="M478.33,175.93l-191.14-110.35c-3.52-2.03-6.36-6.96-6.35-11l.12-43.5c0-2.01.72-3.42,1.86-4.09L107.48,108.88c-1.14.66-1.85,2.08-1.86,4.09l-.12,43.5c-.01,4.04,2.83,8.97,6.35,11l191.14,110.35c1.77,1.02,3.38,1.12,4.54.44l175.33-101.89c-1.16.67-2.76.58-4.54-.44Z"/><g id="clusterIn"><path class="cls-24" d="M470.28,122.56L279.14,12.21c-1.77-1.02-3.38-1.12-4.53-.44L99.27,113.66c1.16-.67,2.76-.58,4.53.44l191.14,110.35c3.52,2.03,6.36,6.95,6.35,11l-.12,43.5c0,2.01-.71,3.42-1.86,4.09l175.33-101.89c1.14-.66,1.85-2.08,1.86-4.09l.12-43.5c.01-4.05-2.83-8.97-6.35-11Z"/><path class="cls-9" d="M297.64,281.47c-.37,0-.99-.1-1.86-.61l-191.14-110.35c-2.91-1.68-5.36-5.92-5.35-9.26l.12-43.5c0-.94.21-2.52,1.53-2.52.37,0,.99.1,1.86.61l191.14,110.35c2.91,1.68,5.36,5.92,5.35,9.26l-.12,43.5c0,.94-.21,2.52-1.53,2.52Z"/><path class="cls-23" d="M101.43,117.38c.11.05.23.11.37.19l191.14,110.35c2.28,1.32,4.36,4.9,4.35,7.52l-.12,43.5c0,.14,0,.27-.02.38-.11-.05-.23-.11-.37-.19l-191.14-110.35c-2.28-1.32-4.36-4.9-4.35-7.52l.12-43.5c0-.15,0-.27.02-.38M100.94,113.23c-2.09,0-3.52,1.65-3.53,4.52l-.12,43.5c-.01,4.04,2.83,8.97,6.35,11l191.14,110.35c1.03.59,2,.87,2.86.87,2.09,0,3.52-1.65,3.53-4.52l.12-43.5c.01-4.05-2.83-8.97-6.35-11L103.8,114.1c-1.03-.59-2-.87-2.86-.87h0Z"/><path class="cls-21" d="M100.94,115.23h0c.37,0,.99.11,1.86.61l191.14,110.35c2.91,1.68,5.36,5.92,5.35,9.26l-.12,43.5c0,.94-.21,2.52-1.53,2.52-.37,0-.99-.11-1.86-.61l-191.14-110.35c-2.91-1.68-5.36-5.92-5.35-9.26l.12-43.5c0-.94.21-2.52,1.53-2.52M100.94,113.23c-2.09,0-3.52,1.65-3.53,4.52l-.12,43.5c-.01,4.04,2.83,8.97,6.35,11l191.14,110.35c1.03.59,2,.87,2.86.87,2.09,0,3.52-1.65,3.53-4.52l.12-43.5c.01-4.05-2.83-8.97-6.35-11L103.8,114.1c-1.03-.59-2-.87-2.86-.87h0Z"/></g><path class="cls-4" d="M478.51,112.91L287.37,2.56c-2.94-1.7-5.62-1.85-7.55-.73L104.49,103.72c1.93-1.12,4.6-.97,7.55.73l191.14,110.35c5.85,3.38,10.6,11.6,10.58,18.33l-.12,43.5c0,3.34-1.19,5.69-3.1,6.8l175.33-101.89c1.91-1.11,3.09-3.46,3.1-6.8l.12-43.5c.02-6.72-4.73-14.95-10.58-18.33Z"/><path class="cls-10" d="M307.51,278.27h-.01s0,0,.01,0Z"/><path class="cls-12" d="M303.17,214.81L113.58,105.34l-1.54-.89c-5.85-3.38-10.63-.65-10.65,6.07v1.91s6.09-3.54,6.09-3.54l.37-.22c.61-.27,1.99-.58,4.17.66l191.14,110.35c3.52,2.03,6.36,6.96,6.35,11l-.12,43.5c0,2.02-.72,3.43-1.87,4.09,0,0,0,0-.01,0l-6.06,3.52,1.54.89c5.85,3.38,10.63.66,10.65-6.07v-1.91s.12-41.58.12-41.58c.02-6.72-4.73-14.95-10.58-18.33Z"/><g id="Isolation_Mode"><g id="ARTWORK"><path class="cls-8" d="M250.01,229.43l-.68-.39c-1.16-.67-2.09.04-2.09,1.58s.94,3.33,2.09,4l.68.39c1.16.67,2.09-.04,2.09-1.58s-.94-3.33-2.09-4Z"/><path class="cls-7" d="M301.19,258.74c-.22-.01-.44-.08-.64-.19l-40.6-23.44c-1.16-.67-2.09.04-2.09,1.58s.94,3.33,2.09,4l40.75,23.53c.15.09.32.15.49.17v-5.65Z"/></g></g><g id="RubrikCluster"><polygon class="cls-25" points="112 104.09 135.94 117.8 159.84 131.56 207.66 159.1 255.41 186.74 279.29 200.56 303.14 214.44 279.2 200.73 255.29 186.96 207.47 159.43 159.72 131.79 135.84 117.96 112 104.09"/></g></g></symbol><linearGradient id="linear-gradient-7" x1="1427.23" y1="1205.05" x2="1482.59" y2="1316.95" gradientUnits="userSpaceOnUse"><stop offset="0" stop-color="#0071b0"/><stop offset=".09" stop-color="#077ebb"/><stop offset=".25" stop-color="#1391cd"/><stop offset=".42" stop-color="#1a9dd8"/><stop offset=".58" stop-color="#1da1dc"/></linearGradient><linearGradient id="linear-gradient-8" x1="1405.4" y1="1095.64" x2="1584.29" y2="1290.43" gradientUnits="userSpaceOnUse"><stop offset="0" stop-color="#0071b0"/><stop offset=".1" stop-color="#0275b4"/><stop offset=".21" stop-color="#0a83c0"/><stop offset=".32" stop-color="#1899d5"/><stop offset=".35" stop-color="#1da1dc"/><stop offset=".88" stop-color="#1da1dc"/><stop offset=".9" stop-color="#1da1dc"/><stop offset=".97" stop-color="#0b83c1"/><stop offset="1" stop-color="#0071b0"/></linearGradient><linearGradient id="linear-gradient-9" x1="1450.92" y1="1136.2" x2="1368.48" y2="997.13" gradientUnits="userSpaceOnUse"><stop offset="0" stop-color="#0071b0"/><stop offset=".29" stop-color="#0172b1"/><stop offset=".39" stop-color="#0579b7"/><stop offset=".46" stop-color="#0c85c2"/><stop offset=".51" stop-color="#1696d2"/><stop offset=".54" stop-color="#1da1dc"/><stop offset=".59" stop-color="#1da1dc"/><stop offset=".59" stop-color="#1da1dc"/></linearGradient><linearGradient id="Degradado_sin_nombre_4" x1="1505.41" y1="945.86" x2="1371.57" y2="858.4" gradientUnits="userSpaceOnUse"><stop offset="0" stop-color="#0071b0"/><stop offset=".1" stop-color="#0479b7"/><stop offset=".42" stop-color="#128fcb"/><stop offset=".72" stop-color="#1a9cd7"/><stop offset="1" stop-color="#1da1dc"/></linearGradient><linearGradient id="linear-gradient-10" x1="1614.64" y1="1066.91" x2="1398.64" y2="702.49" xlink:href="#linear-gradient-9"/></defs><g id="Line-Dahsed"><g class="cls-33"><line class="cls-31" x1="1597.02" y1="1645.44" x2="1588.36" y2="1640.44"/><line class="cls-28" x1="1559.25" y1="1623.63" x2="1024.88" y2="1315.12"/><line class="cls-31" x1="1010.32" y1="1306.71" x2="1001.66" y2="1301.71"/></g><line class="cls-29" x1="1597.02" y1="1645.44" x2="1588.36" y2="1640.44"/><line class="cls-32" x1="1559.25" y1="1623.63" x2="1024.88" y2="1315.12"/><line class="cls-29" x1="1010.32" y1="1306.71" x2="1001.66" y2="1301.71"/></g><g id="RubrikClusters-2"><path class="cls-16" d="M1093.86,1348.42c-210.23,121.38-552.33,120.66-764.1-1.6-211.77-122.26-213.01-319.77-2.78-441.15,210.23-121.38,552.33-120.66,764.1,1.6,211.77,122.26,213.01,319.77,2.78,441.15Z"/><g id="Step1"><use width="620.73" height="387.03" transform="translate(232.37 747.3) scale(1.68)" xlink:href="#ClusterPlusBase"/></g><g id="Step1-2"><use width="620.73" height="387.03" transform="translate(1346.79 1387.19) scale(1.68)" xlink:href="#ClusterPlusBase"/></g></g><g id="Arrow"><g id="ArrowsBright"><path class="cls-15" d="M1445.38,1281.04l22.29-12.68c5.27-3,5.27-12.82,0-21.9l-28.42-48.99-44.09-19.4s48.94,103.7,50.22,102.97Z"/><path class="cls-20" d="M1615.16,1231.92l-175.62-101.39-41.62-10.77c-1.47,29.5-2.76,58.3-2.76,58.3l44.09,19.4,161.13,116.7,24.18-14.1c.11-.06.22-.12.32-.19l.25-.15h-.02c2.2-1.5,3.55-4.37,3.55-8.39v-36.13c0-8.54-6.06-18.98-13.51-23.29Z"/><path class="cls-18" d="M1467.66,1114.19c5.27-3,5.27-12.82,0-21.9l-22.29-38.42c-2.55-4.4-5.94-7.97-9.55-10.05-3.61-2.08-7-2.43-9.55-.98l-24.46,14.25c-.65.37-2.37,31.9-3.9,62.67l41.62,10.77,28.13-16.34Z"/><path class="cls-13" d="M1477.54,899.8h0l-131.25-75.77c-3.72-2.15-7.1-2.36-9.55-.97l-23.79,13.93s118.57,83.01,203.38,143.87v-21.67l-38.79-59.37Z"/><path class="cls-22" d="M1624.71,1007.37l-89.53-154.32c-2.55-4.4-5.94-7.97-9.55-10.05-3.61-2.08-7-2.43-9.55-.98l-24.46,14.25c-5.27,3-14.08,43.53-14.08,43.53l38.79,59.37v21.67c45.99,33,82.06,59.48,83.92,62.68l24.46-14.25c2.55-1.45,3.96-4.53,3.96-8.67s-1.4-8.84-3.96-13.24Z"/><path class="cls-19" d="M1501.17,1093.49c-3.61-2.08-7-5.65-9.55-10.05l-22.29-38.42c-5.27-9.08-5.27-18.9,0-21.9l28.42-16.17-175.91-101.56c-7.45-4.3-13.51-14.75-13.51-23.29v-36.13c0-8.54,6.06-11.99,13.51-7.69l175.91,101.56-28.42-48.99c-5.27-9.08-5.27-18.9,0-21.9l22.29-12.68c2.55-1.45,5.94-1.1,9.55.98,3.61,2.08,7,5.65,9.55,10.05l89.53,154.32c2.55,4.4,3.96,9.1,3.96,13.24,0,4.14-1.4,7.21-3.96,8.67l-89.53,50.94c-2.55,1.45-5.94,1.1-9.55-.98Z"/><path class="cls-19" d="M1411.37,1294.31c-3.61-2.08-7-5.65-9.55-10.05l-89.53-154.32c-2.55-4.4-3.96-9.1-3.96-13.24,0-4.14,1.4-7.21,3.96-8.67l89.53-50.94c2.55-1.45,5.94-1.1,9.55.98,3.61,2.08,7,5.65,9.55,10.05l22.29,38.42c5.27,9.08,5.27,18.9,0,21.9l-28.42,16.17,175.91,101.56c7.45,4.3,13.51,14.75,13.51,23.29v36.13c0,8.54-6.06,11.99-13.51,7.69l-175.91-101.56,28.42,48.99c5.27,9.08,5.27,18.9,0,21.9l-22.29,12.68c-2.55,1.45-5.94,1.1-9.55-.98Z"/></g></g></svg>