<?xml version="1.0" encoding="UTF-8"?><svg id="ARTWORK" xmlns="http://www.w3.org/2000/svg" xmlns:xlink="http://www.w3.org/1999/xlink" viewBox="0 0 2500 2500"><defs><style>.cls-1{fill:url(#linear-gradient-12);}.cls-1,.cls-2,.cls-3,.cls-4,.cls-5,.cls-6,.cls-7,.cls-8,.cls-9,.cls-10,.cls-11,.cls-12,.cls-13,.cls-14,.cls-15,.cls-16,.cls-17,.cls-18,.cls-19,.cls-20,.cls-21{stroke-width:0px;}.cls-2{fill:url(#linear-gradient);}.cls-3{fill:url(#Degradado_sin_nombre_13);}.cls-4{fill:url(#linear-gradient-6);}.cls-22{filter:url(#AI_DesenfoqueGaussiano_4);}.cls-5{fill:url(#Degradado_sin_nombre_966);}.cls-23{isolation:isolate;}.cls-7{fill:url(#linear-gradient-11);}.cls-8{fill:url(#linear-gradient-5);}.cls-9{fill:#39c2ec;}.cls-10{fill:url(#linear-gradient-13);}.cls-11{fill:url(#linear-gradient-14);}.cls-12{fill:url(#linear-gradient-2);}.cls-13{fill:url(#linear-gradient-7);}.cls-14{fill:url(#linear-gradient-3);}.cls-15{fill:url(#linear-gradient-9);}.cls-16{fill:url(#Degradado_sin_nombre_20);}.cls-17{fill:url(#linear-gradient-8);}.cls-18{fill:url(#Degradado_sin_nombre_2);}.cls-19{fill:url(#linear-gradient-10);}.cls-20{fill:url(#linear-gradient-4);}.cls-21{fill:rgba(255,255,255,.95);}</style><linearGradient id="linear-gradient" x1="1199.58" y1="1989.3" x2="1314.43" y2="1837.35" gradientUnits="userSpaceOnUse"><stop offset="0" stop-color="#91e2db"/><stop offset=".2" stop-color="#87dad3"/><stop offset=".59" stop-color="#7cd1ca"/><stop offset="1" stop-color="#79cfc8"/></linearGradient><linearGradient id="linear-gradient-2" x1="1248.72" y1="1952.37" x2="1377.7" y2="1761.54" gradientUnits="userSpaceOnUse"><stop offset="0" stop-color="#91e2db"/><stop offset=".2" stop-color="#87dad3"/><stop offset=".59" stop-color="#7cd1ca"/><stop offset="1" stop-color="#79cfc8"/></linearGradient><linearGradient id="linear-gradient-3" x1="843.45" y1="1559.87" x2="1182.69" y2="1413.22" gradientUnits="userSpaceOnUse"><stop offset="0" stop-color="#c2ebe8"/><stop offset="1" stop-color="#91e2db"/></linearGradient><linearGradient id="linear-gradient-4" x1="985.38" y1="1482.69" x2="1160.3" y2="1373.15" gradientUnits="userSpaceOnUse"><stop offset="0" stop-color="#c2ebe8"/><stop offset=".16" stop-color="#b2e8e3"/><stop offset=".43" stop-color="#9fe4de"/><stop offset=".7" stop-color="#94e2db"/><stop offset="1" stop-color="#91e2db"/></linearGradient><linearGradient id="linear-gradient-5" x1="815.16" y1="927.44" x2="1232.14" y2="1088.22" gradientUnits="userSpaceOnUse"><stop offset="0" stop-color="#91e2db"/><stop offset=".2" stop-color="#87dad3"/><stop offset=".59" stop-color="#7cd1ca"/><stop offset="1" stop-color="#79cfc8"/></linearGradient><linearGradient id="linear-gradient-6" x1="1023.57" y1="858.31" x2="1334" y2="1072.78" gradientUnits="userSpaceOnUse"><stop offset="0" stop-color="#91e2db"/><stop offset="1" stop-color="#79cfc8"/></linearGradient><linearGradient id="linear-gradient-7" x1="1443.47" y1="939.89" x2="1381.63" y2="1065.34" gradientUnits="userSpaceOnUse"><stop offset="0" stop-color="#c2ebe8"/><stop offset=".16" stop-color="#b2e8e3"/><stop offset=".43" stop-color="#9fe4de"/><stop offset=".7" stop-color="#94e2db"/><stop offset="1" stop-color="#91e2db"/></linearGradient><linearGradient id="linear-gradient-8" x1="1662.79" y1="797.75" x2="1323.55" y2="1015.07" gradientUnits="userSpaceOnUse"><stop offset="0" stop-color="#c2ebe8"/><stop offset=".16" stop-color="#b2e8e3"/><stop offset=".43" stop-color="#9fe4de"/><stop offset=".7" stop-color="#94e2db"/><stop offset="1" stop-color="#91e2db"/></linearGradient><radialGradient id="Degradado_sin_nombre_20" cx="1508.84" cy="1460.19" fx="1508.84" fy="1460.19" r="718.34" gradientTransform="translate(-981.74 193.57) rotate(-30.36) scale(1 1.61)" gradientUnits="userSpaceOnUse"><stop offset=".36" stop-color="#43a39b" stop-opacity=".6"/><stop offset=".45" stop-color="#4cb0a8" stop-opacity=".47"/><stop offset=".65" stop-color="#66d3ca" stop-opacity=".15"/><stop offset=".67" stop-color="#6ad8cf" stop-opacity=".1"/></radialGradient><linearGradient id="Degradado_sin_nombre_966" x1="-6720.13" y1="-6126.85" x2="-6979.42" y2="-5576.09" gradientTransform="translate(-5239.74 7415.42) rotate(-180) scale(1 -1)" gradientUnits="userSpaceOnUse"><stop offset="0" stop-color="#a9a7b7"/><stop offset=".59" stop-color="#8c8a9f"/><stop offset="1" stop-color="#7d7c93"/></linearGradient><linearGradient id="Degradado_sin_nombre_13" x1="-6263.85" y1="-5025.08" x2="-7054.52" y2="-6828.24" gradientTransform="translate(-7316.85 3266.36) rotate(-149.84) scale(1 -1)" gradientUnits="userSpaceOnUse"><stop offset=".21" stop-color="#141226"/><stop offset=".53" stop-color="#27244b"/><stop offset=".98" stop-color="#27244b"/><stop offset="1" stop-color="#27244b"/></linearGradient><linearGradient id="linear-gradient-9" x1="1626.88" y1="1306.73" x2="1654.27" y2="1342.95" gradientUnits="userSpaceOnUse"><stop offset="0" stop-color="#141226" stop-opacity="0"/><stop offset="0" stop-color="#141226" stop-opacity="0"/><stop offset=".52" stop-color="#141226" stop-opacity=".1"/><stop offset=".87" stop-color="#141226" stop-opacity=".3"/></linearGradient><linearGradient id="linear-gradient-10" x1="1845.8" y1="1622.54" x2="1729.18" y2="1490.03" gradientUnits="userSpaceOnUse"><stop offset="0" stop-color="#141226" stop-opacity="0"/><stop offset="0" stop-color="#141226" stop-opacity="0"/><stop offset=".52" stop-color="#141226" stop-opacity=".1"/><stop offset=".85" stop-color="#141226" stop-opacity=".3"/></linearGradient><filter id="AI_DesenfoqueGaussiano_4"><feGaussianBlur stdDeviation="4"/></filter><linearGradient id="linear-gradient-11" x1="1719.15" y1="1451.83" x2="1774.51" y2="1563.73" gradientUnits="userSpaceOnUse"><stop offset="0" stop-color="#0071b0"/><stop offset=".09" stop-color="#077ebb"/><stop offset=".25" stop-color="#1391cd"/><stop offset=".42" stop-color="#1a9dd8"/><stop offset=".58" stop-color="#1da1dc"/></linearGradient><linearGradient id="linear-gradient-12" x1="1697.32" y1="1342.42" x2="1876.21" y2="1537.21" gradientUnits="userSpaceOnUse"><stop offset="0" stop-color="#0071b0"/><stop offset=".1" stop-color="#0275b4"/><stop offset=".21" stop-color="#0a83c0"/><stop offset=".32" stop-color="#1899d5"/><stop offset=".35" stop-color="#1da1dc"/><stop offset=".88" stop-color="#1da1dc"/><stop offset=".9" stop-color="#1da1dc"/><stop offset=".97" stop-color="#0b83c1"/><stop offset="1" stop-color="#0071b0"/></linearGradient><linearGradient id="linear-gradient-13" x1="1742.83" y1="1382.98" x2="1660.4" y2="1243.91" gradientUnits="userSpaceOnUse"><stop offset="0" stop-color="#0071b0"/><stop offset=".29" stop-color="#0172b1"/><stop offset=".39" stop-color="#0579b7"/><stop offset=".46" stop-color="#0c85c2"/><stop offset=".51" stop-color="#1696d2"/><stop offset=".54" stop-color="#1da1dc"/><stop offset=".59" stop-color="#1da1dc"/><stop offset=".59" stop-color="#1da1dc"/></linearGradient><linearGradient id="Degradado_sin_nombre_2" x1="1797.33" y1="1192.64" x2="1663.48" y2="1105.18" gradientUnits="userSpaceOnUse"><stop offset="0" stop-color="#0071b0"/><stop offset=".1" stop-color="#0479b7"/><stop offset=".42" stop-color="#128fcb"/><stop offset=".72" stop-color="#1a9cd7"/><stop offset="1" stop-color="#1da1dc"/></linearGradient><linearGradient id="linear-gradient-14" x1="1906.56" y1="1313.69" x2="1690.56" y2="949.27" xlink:href="#linear-gradient-13"/></defs><g id="Plant2"><path class="cls-2" d="m1056.02,1977.15c108.84-11.79,256.46-87.39,405.92-114.22,4.43-.8-14.33-20.39-9.89-21.15-325.12-31.25-385.24,91.11-396.08,130.08-.44,1.6-.4,3.41.04,5.29Z"/><path class="cls-12" d="m1477.81,1873.73l-22.78-31.66c-1-.1-1.99-.2-2.98-.29-154.31,26.57-301.96,71.42-396.03,135.37,1.37,5.9,6.67,12.41,12.9,14.84,103.84,40.4,408.89-118.25,408.89-118.25Z"/><path class="cls-14" d="m1476.46,1864.2c-237.31,127.69-866.95-213.8-891.02-771.51,74.35,140.53,174.15,306.86,315.65,421.25,209.38,169.24,433.05,297.93,570.21,313.48,14.33,16.13,18.66,29.52,5.16,36.78Z"/><path class="cls-20" d="m1471.3,1827.42c-137.16-15.55-360.83-144.24-570.21-313.48-141.5-114.39-241.3-280.72-315.65-421.25-.07-1.29-.12-2.58-.17-3.87-2.25-59.17,388,245.94,698.67,610.97,0,0,142.56,77.19,187.36,127.63Z"/><path class="cls-8" d="m1433.1,1413.19c-70.03,61.89-177.11,149.61-177.11,149.61-555.81-407.13-389.88-940.2-349.47-1046.45,2.52-6.63,7.79-11.47,14.05-13.65,88,168.83,221.91,593.59,512.53,910.49Z"/><path class="cls-4" d="m1517.69,1338.26c-16.92,6.04-66.54,47.32-118.09,92.87-290.62-316.9-422.69-733.73-479.03-928.43,4.41-1.53,9.32-1.74,14.12-.33,267.21,79.1,741.36,779.32,583,835.88Z"/><path class="cls-13" d="m1617.78,560.66c-37.77,167.02-168.32,422.02-234.33,656.44-1.96,6.95-24.23-11.52-26.15-4.56,24.34-467.19,199.39-614.75,253.45-649.42,2.22-1.42,4.62-2.22,7.03-2.46Z"/><path class="cls-17" d="m1394.6,1235.48l-37.52-18.66c.07-1.43.14-2.86.22-4.28,66.65-241.5,156.29-481.86,260.48-651.88,7.57-.78,15.17,3.96,17.13,12.05,32.71,134.69-240.31,662.77-240.31,662.77Z"/><path class="cls-16" d="m1471.3,1827.42c14.33,16.13,18.66,29.52,5.16,36.78-1.32.71-2.67,1.39-4.02,2.08l5.37,7.46s-305.05,158.65-408.89,118.25c-6.24-2.42-11.53-8.94-12.9-14.84-.44-1.88-.49-3.69-.04-5.29,6.73-24.19,32.46-80.54,128.83-112.3-268.23-91.4-582.5-376.04-599.36-766.88-.07-1.29-.12-2.58-.17-3.87-2.25-59.17,388,245.94,698.67,610.97,0,0,142.56,77.19,187.36,127.63Zm163.61-1254.71c-1.96-8.09-9.56-12.83-17.13-12.05-2.41.24-4.81,1.04-7.03,2.46-41.77,26.79-155.75,120.96-216.66,377.85-132.59-195.88-322.98-398.2-459.41-438.58-4.8-1.42-9.71-1.21-14.12.33-6.26,2.18-11.53,7.01-14.05,13.65-40.42,106.25-206.35,639.32,349.47,1046.45,0,0,107.08-87.71,177.11-149.61-1.92-2.1-3.83-4.2-5.74-6.3,40.76-35.15,76.49-63.68,90.33-68.63,59.09-21.11,30.11-131.83-43.31-266.46,77.74-166.89,181.42-413.13,160.54-499.1Z"/></g><g id="Icon"><g id="Circle_Tick_upgrade_Calendar"><g class="cls-23"><path class="cls-5" d="m1195.87,1041.01c64.28-37.35,153.29-32.09,251.54,24.64,195.23,112.72,352.99,385.97,352.36,610.31-.32,111.45-39.66,189.86-103.12,226.74l-25.96,14.96c63.46-36.88-436.5-899.04-500.78-861.68l25.96-14.96Z"/><ellipse class="cls-3" cx="1420.3" cy="1486.82" rx="288.64" ry="498.32" transform="translate(-554.75 914.94) rotate(-30.16)"/></g></g><path class="cls-15" d="m1653.94,1424.85l-30.2-155.41,26.4-14.27s72.29,103.26,98.04,175.98v81.74l-94.24-88.03Z"/><path class="cls-19" d="m1800.66,1675.96c.29-102.31-32.36-214.78-86.49-317.57l-24.34,154.48c7.2,13.1,110.7,172.8,110.7,172.8.08-3.21.12-6.45.13-9.72Z"/></g><g id="OrgIcon-"><g id="OrgIcon" class="cls-22"><path class="cls-6" d="m1623.24,1618.43c-5.3-9.09-12.46-16.61-19.92-20.92l-17.83-10.3v-52.84c-.05-4.68-1.69-10.08-4.56-15.03s-6.75-9.06-10.8-11.46l-128.06-73.93v-35.23s15.37,8.87,15.37,8.87c7.46,4.31,14.62,5.07,19.92,2.1,5.3-2.97,8.3-9.42,8.35-17.94v-70.46c0-8.6-2.98-18.57-8.28-27.7-5.31-9.15-12.5-16.72-19.99-21.04l-61.47-35.49c-7.5-4.33-14.7-5.07-19.99-2.04-5.31,3.01-8.29,9.53-8.29,18.13v70.46c.05,8.58,3.06,18.5,8.36,27.59,5.3,9.09,12.45,16.6,19.92,20.91l15.36,8.87v35.23s-128.06-73.93-128.06-73.93c-4.06-2.28-7.93-2.64-10.8-1.01-2.87,1.63-4.5,5.14-4.56,9.76v52.84s-17.82-10.29-17.82-10.29c-7.47-4.31-14.62-5.06-19.92-2.08-5.3,2.97-8.31,9.41-8.36,17.94v70.46c0,8.6,2.98,18.57,8.29,27.7,5.3,9.14,12.49,16.7,19.99,21.03l61.47,35.49c7.46,4.25,14.6,4.93,19.86,1.89,5.26-3.04,8.21-9.53,8.21-18.09v-70.46c-.05-8.54-3.04-18.41-8.29-27.46-5.25-9.06-12.36-16.57-19.78-20.92l-12.91-7.45v-35.23s112.69,65.06,112.69,65.06v35.23s-15.36-8.87-15.36-8.87c-7.47-4.31-14.62-5.06-19.92-2.08-5.3,2.97-8.31,9.41-8.36,17.94v70.46c0,8.6,2.98,18.57,8.29,27.7,5.3,9.14,12.49,16.7,19.99,21.03l61.47,35.49c7.49,4.33,14.69,5.07,19.99,2.05,5.3-3.01,8.28-9.54,8.28-18.14v-70.46c-.05-8.59-3.05-18.5-8.35-27.58s-12.46-16.61-19.92-20.92l-15.37-8.87v-35.23s112.69,65.06,112.69,65.06v35.23s-12.91-7.45-12.91-7.45c-7.43-4.23-14.54-4.93-19.79-1.93-5.25,2.99-8.22,9.42-8.28,17.9v70.46c0,8.56,2.94,18.46,8.21,27.57,5.26,9.11,12.4,16.68,19.87,21.04l61.47,35.49c7.49,4.33,14.69,5.07,19.99,2.05,5.3-3.01,8.28-9.54,8.28-18.14v-70.46c-.05-8.59-3.05-18.5-8.35-27.58Zm-319.47-152.76v52.85s-46.1-26.62-46.1-26.62v-52.85s46.1,26.62,46.1,26.62Zm145.88,84.22v52.85s-45.89-26.5-45.89-26.5v-52.85s45.89,26.5,45.89,26.5Zm-45.89-214.39v-52.85s45.89,26.5,45.89,26.5v52.85s-45.89-26.5-45.89-26.5Zm191.98,351.58l-46.1-26.61v-52.85s46.1,26.61,46.1,26.61v52.85Z"/></g><path id="OrgIcon-2" class="cls-21" d="m1611.16,1623.47c-5.3-9.09-12.46-16.61-19.92-20.92l-17.83-10.3v-52.84c-.05-4.68-1.69-10.08-4.56-15.03-2.86-4.93-6.75-9.06-10.8-11.46l-128.06-73.93v-35.23s15.37,8.87,15.37,8.87c7.46,4.31,14.62,5.07,19.92,2.1s8.3-9.42,8.35-17.94v-70.46c0-8.6-2.98-18.57-8.28-27.7-5.31-9.15-12.5-16.72-19.99-21.04l-61.47-35.49c-7.5-4.33-14.7-5.07-19.99-2.04-5.31,3.01-8.29,9.53-8.29,18.13v70.46c.05,8.58,3.06,18.5,8.36,27.59s12.45,16.6,19.92,20.91l15.36,8.87v35.23s-128.06-73.93-128.06-73.93c-4.06-2.28-7.93-2.64-10.8-1.01-2.87,1.63-4.5,5.14-4.56,9.76v52.84s-17.82-10.29-17.82-10.29c-7.47-4.31-14.62-5.06-19.92-2.08-5.3,2.97-8.31,9.41-8.36,17.94v70.46c0,8.6,2.98,18.57,8.29,27.7,5.3,9.14,12.49,16.7,19.99,21.03l61.47,35.49c7.46,4.25,14.6,4.93,19.86,1.89,5.26-3.04,8.21-9.53,8.21-18.09v-70.46c-.05-8.54-3.04-18.41-8.29-27.46-5.25-9.06-12.36-16.57-19.78-20.92l-12.91-7.45v-35.23s112.69,65.06,112.69,65.06v35.23s-15.36-8.87-15.36-8.87c-7.47-4.31-14.62-5.06-19.92-2.08-5.3,2.97-8.31,9.41-8.36,17.94v70.46c0,8.6,2.98,18.57,8.29,27.7,5.3,9.14,12.49,16.7,19.99,21.03l61.47,35.49c7.49,4.33,14.69,5.07,19.99,2.05,5.3-3.01,8.28-9.54,8.28-18.14v-70.46c-.05-8.59-3.05-18.5-8.35-27.58-5.3-9.09-12.46-16.61-19.92-20.92l-15.37-8.87v-35.23s112.69,65.06,112.69,65.06v35.23s-12.91-7.45-12.91-7.45c-7.43-4.23-14.54-4.93-19.79-1.93-5.25,2.99-8.22,9.42-8.28,17.9v70.46c0,8.56,2.94,18.46,8.21,27.57,5.26,9.11,12.4,16.68,19.87,21.04l61.47,35.49c7.49,4.33,14.69,5.07,19.99,2.05,5.3-3.01,8.28-9.54,8.28-18.14v-70.46c-.05-8.59-3.05-18.5-8.35-27.58Zm-319.47-152.76v52.85s-46.1-26.62-46.1-26.62v-52.85s46.1,26.62,46.1,26.62Zm145.88,84.22v52.85s-45.89-26.5-45.89-26.5v-52.85s45.89,26.5,45.89,26.5Zm-45.89-214.39v-52.85s45.89,26.5,45.89,26.5v52.85s-45.89-26.5-45.89-26.5Zm191.98,351.58l-46.1-26.61v-52.85s46.1,26.61,46.1,26.61v52.85Z"/></g><g id="ArrowsBright"><path class="cls-7" d="m1737.29,1527.82l22.29-12.68c5.27-3,5.27-12.82,0-21.9l-28.42-48.99-44.09-19.4s48.94,103.7,50.22,102.97Z"/><path class="cls-1" d="m1907.07,1478.71l-175.62-101.39-41.62-10.77c-1.47,29.5-2.76,58.3-2.76,58.3l44.09,19.4,161.13,116.7,24.18-14.1c.11-.06.22-.12.32-.19l.25-.15h-.02c2.2-1.5,3.55-4.37,3.55-8.39v-36.13c0-8.54-6.06-18.98-13.51-23.29Z"/><path class="cls-10" d="m1759.58,1360.97c5.27-3,5.27-12.82,0-21.9l-22.29-38.42c-2.55-4.4-5.94-7.97-9.55-10.05-3.61-2.08-7-2.43-9.55-.98l-24.46,14.25c-.65.37-2.37,31.9-3.9,62.67l41.62,10.77,28.13-16.34Z"/><path class="cls-18" d="m1769.46,1146.58h0l-131.25-75.77c-3.72-2.15-7.1-2.36-9.55-.97l-23.79,13.93s118.57,83.01,203.38,143.87v-21.67l-38.79-59.37Z"/><path class="cls-11" d="m1916.63,1254.15l-89.53-154.32c-2.55-4.4-5.94-7.97-9.55-10.05-3.61-2.08-7-2.43-9.55-.98l-24.46,14.25c-5.27,3-14.08,43.53-14.08,43.53l38.79,59.37v21.67c45.99,33,82.06,59.48,83.92,62.68l24.46-14.25c2.55-1.45,3.96-4.53,3.96-8.67s-1.4-8.84-3.96-13.24Z"/><path class="cls-9" d="m1793.08,1340.27c-3.61-2.08-7-5.65-9.55-10.05l-22.29-38.42c-5.27-9.08-5.27-18.9,0-21.9l28.42-16.17-175.91-101.56c-7.45-4.3-13.51-14.75-13.51-23.29v-36.13c0-8.54,6.06-11.99,13.51-7.69l175.91,101.56-28.42-48.99c-5.27-9.08-5.27-18.9,0-21.9l22.29-12.68c2.55-1.45,5.94-1.1,9.55.98,3.61,2.08,7,5.65,9.55,10.05l89.53,154.32c2.55,4.4,3.96,9.1,3.96,13.24,0,4.14-1.4,7.21-3.96,8.67l-89.53,50.94c-2.55,1.45-5.94,1.1-9.55-.98Z"/><path class="cls-9" d="m1703.28,1541.09c-3.61-2.08-7-5.65-9.55-10.05l-89.53-154.32c-2.55-4.4-3.96-9.1-3.96-13.24,0-4.14,1.4-7.21,3.96-8.67l89.53-50.94c2.55-1.45,5.94-1.1,9.55.98,3.61,2.08,7,5.65,9.55,10.05l22.29,38.42c5.27,9.08,5.27,18.9,0,21.9l-28.42,16.17,175.91,101.56c7.45,4.3,13.51,14.75,13.51,23.29v36.13c0,8.54-6.06,11.99-13.51,7.69l-175.91-101.56,28.42,48.99c5.27,9.08,5.27,18.9,0,21.9l-22.29,12.68c-2.55,1.45-5.94,1.1-9.55-.98Z"/></g></svg>