<?xml version="1.0" encoding="UTF-8"?><svg id="ARTWORK" xmlns="http://www.w3.org/2000/svg" xmlns:xlink="http://www.w3.org/1999/xlink" viewBox="0 0 2500 2500"><defs><style>.cls-1{fill:url(#Degradado_sin_nombre_17);}.cls-1,.cls-2,.cls-3,.cls-4,.cls-5,.cls-6,.cls-7,.cls-8,.cls-9,.cls-10,.cls-11,.cls-12,.cls-13,.cls-14,.cls-15,.cls-16,.cls-17,.cls-18,.cls-19,.cls-20,.cls-21,.cls-22,.cls-23,.cls-24,.cls-25,.cls-26,.cls-27,.cls-28,.cls-29,.cls-30,.cls-31,.cls-32,.cls-33,.cls-34,.cls-35,.cls-36,.cls-37,.cls-38,.cls-39,.cls-40,.cls-41,.cls-42,.cls-43,.cls-44,.cls-45,.cls-46,.cls-47,.cls-48,.cls-49,.cls-50,.cls-51,.cls-52,.cls-53,.cls-54,.cls-55,.cls-56,.cls-57,.cls-58,.cls-59,.cls-60,.cls-61,.cls-62,.cls-63,.cls-64,.cls-65,.cls-66,.cls-67,.cls-68,.cls-69,.cls-70,.cls-71,.cls-72{stroke-width:0px;}.cls-2{fill:url(#linear-gradient-38);}.cls-3{fill:url(#linear-gradient-12);}.cls-4{fill:url(#Degradado_sin_nombre_5-4);}.cls-5{fill:url(#Degradado_sin_nombre_14);}.cls-6{fill:url(#linear-gradient-17);}.cls-7{fill:url(#linear-gradient-19);}.cls-8{fill:url(#linear-gradient-33);}.cls-9{fill:url(#linear-gradient);}.cls-73{opacity:.15;stroke:#4dd2d2;stroke-width:26px;}.cls-73,.cls-74,.cls-23,.cls-75,.cls-76,.cls-77{fill:none;}.cls-10{fill:url(#linear-gradient-21);}.cls-11{fill:url(#linear-gradient-6);}.cls-78{filter:url(#AI_DesenfoqueGaussiano_4);}.cls-12{fill:url(#Degradado_sin_nombre_35);}.cls-13{fill:#d5f8f5;}.cls-14{fill:#fcfdfd;}.cls-79{isolation:isolate;}.cls-74{opacity:.47;stroke-width:5px;}.cls-74,.cls-77{stroke:#004a5f;}.cls-15{fill:url(#linear-gradient-42);}.cls-16{fill:#00637f;}.cls-17{fill:url(#Degradado_sin_nombre_5-2);}.cls-18{fill:url(#linear-gradient-15);}.cls-19{fill:url(#linear-gradient-11);}.cls-80{opacity:.64;}.cls-20{fill:url(#linear-gradient-5);}.cls-21,.cls-81{fill:rgba(255,255,255,.72);}.cls-22{fill:#0088a1;}.cls-24{fill:url(#linear-gradient-31);}.cls-25{fill:url(#Degradado_sin_nombre_5-3);}.cls-26{fill:url(#linear-gradient-34);}.cls-26,.cls-47{opacity:.49;}.cls-27{fill:#f5e0cd;}.cls-28{fill:url(#linear-gradient-41);}.cls-29{fill:url(#linear-gradient-40);}.cls-30{fill:url(#linear-gradient-13);}.cls-31{fill:url(#linear-gradient-23);}.cls-32{fill:url(#linear-gradient-25);}.cls-33{fill:url(#linear-gradient-43);}.cls-34{fill:url(#linear-gradient-16);}.cls-35{fill:url(#linear-gradient-22);}.cls-36{fill:#fff;}.cls-37{fill:#ecc19c;}.cls-38{fill:url(#linear-gradient-35);}.cls-39{fill:url(#Degradado_sin_nombre_4);}.cls-40{fill:url(#linear-gradient-32);}.cls-82{filter:url(#AI_DesenfoqueGaussiano_4-3);}.cls-41{fill:url(#linear-gradient-20);}.cls-42{fill:url(#Degradado_sin_nombre_7);}.cls-75{stroke-width:2px;}.cls-75,.cls-81,.cls-76{stroke:#12abbb;}.cls-75,.cls-76{stroke-linecap:square;stroke-linejoin:round;}.cls-43{fill:url(#linear-gradient-14);}.cls-44{fill:url(#linear-gradient-2);}.cls-45{fill:#eafcfa;}.cls-46{fill:url(#Degradado_sin_nombre_18);}.cls-47{fill:url(#linear-gradient-37);}.cls-48{fill:url(#linear-gradient-7);}.cls-49{fill:url(#linear-gradient-39);}.cls-50{fill:url(#linear-gradient-3);}.cls-83{filter:url(#AI_DesenfoqueGaussiano_4-2);}.cls-84{clip-path:url(#clippath);}.cls-51{fill:url(#linear-gradient-9);}.cls-52{fill:url(#linear-gradient-27);}.cls-81{stroke-miterlimit:10;}.cls-53{fill:#4dd2d2;}.cls-54{fill:url(#linear-gradient-36);}.cls-76{stroke-width:2px;}.cls-55{fill:url(#linear-gradient-8);}.cls-56{fill:url(#linear-gradient-24);}.cls-57{fill:url(#linear-gradient-26);}.cls-58{fill:url(#linear-gradient-18);}.cls-59{fill:#95eee5;}.cls-60{fill:url(#linear-gradient-30);}.cls-85{mask:url(#mask);}.cls-61{fill:#12abbb;}.cls-62{fill:url(#linear-gradient-44);}.cls-63{fill:url(#linear-gradient-29);}.cls-64{fill:url(#Degradado_sin_nombre_2);}.cls-65{fill:url(#Degradado_sin_nombre_10);}.cls-66{fill:url(#linear-gradient-28);}.cls-86{filter:url(#AI_DesenfoqueGaussiano_4-4);}.cls-67{fill:url(#linear-gradient-10);}.cls-68{fill:url(#Degradado_sin_nombre_57);}.cls-69{fill:url(#Degradado_sin_nombre_5);}.cls-70{fill:url(#linear-gradient-4);}.cls-71{fill:url(#Degradado_sin_nombre_22);}.cls-77{opacity:.18;stroke-width:13px;}.cls-72{fill:url(#Degradado_sin_nombre_6);}</style><linearGradient id="Degradado_sin_nombre_35" x1="2066.12" y1="1369.14" x2="512.92" y2="1369.14" gradientUnits="userSpaceOnUse"><stop offset=".13" stop-color="#0088a1" stop-opacity=".3"/><stop offset=".85" stop-color="#12abbb" stop-opacity=".1"/><stop offset=".93" stop-color="#36bdc6" stop-opacity=".1"/><stop offset="1" stop-color="#98efe6" stop-opacity=".1"/></linearGradient><linearGradient id="linear-gradient" x1="661.24" y1="780.45" x2="616.59" y2="899.28" gradientTransform="translate(-64.46 51.64) rotate(-3.89)" gradientUnits="userSpaceOnUse"><stop offset="0" stop-color="#95eee5" stop-opacity=".1"/><stop offset=".07" stop-color="#36bdc6" stop-opacity=".1"/><stop offset=".15" stop-color="#12abbb" stop-opacity=".1"/><stop offset=".87" stop-color="#12abbb" stop-opacity=".3"/></linearGradient><linearGradient id="linear-gradient-2" x1="513.83" y1="829.56" x2="595.84" y2="829.56" xlink:href="#linear-gradient"/><linearGradient id="linear-gradient-3" x1="506.66" y1="938.64" x2="625.86" y2="938.64" xlink:href="#linear-gradient"/><linearGradient id="linear-gradient-4" x1="599.37" y1="1058.51" x2="692.86" y2="1058.51" xlink:href="#linear-gradient"/><linearGradient id="linear-gradient-5" x1="657.99" y1="1182.8" x2="735.42" y2="1182.8" xlink:href="#linear-gradient"/><linearGradient id="linear-gradient-6" x1="901.47" y1="1273.55" x2="776.08" y2="1314.25" xlink:href="#linear-gradient"/><linearGradient id="linear-gradient-7" x1="732.72" y1="924.53" x2="690.05" y2="1042.7" xlink:href="#linear-gradient"/><linearGradient id="linear-gradient-8" x1="652.66" y1="1277.67" x2="735.12" y2="1277.67" xlink:href="#linear-gradient"/><linearGradient id="linear-gradient-9" x1="629.88" y1="440.82" x2="693.33" y2="440.82" xlink:href="#linear-gradient"/><linearGradient id="linear-gradient-10" x1="591.08" y1="513.1" x2="687.44" y2="513.1" xlink:href="#linear-gradient"/><linearGradient id="linear-gradient-11" x1="625.4" y1="615.01" x2="713.71" y2="615.01" xlink:href="#linear-gradient"/><linearGradient id="linear-gradient-12" x1="650.7" y1="726.07" x2="728.67" y2="726.07" xlink:href="#linear-gradient"/><linearGradient id="linear-gradient-13" x1="672.97" y1="846.19" x2="730.12" y2="846.19" xlink:href="#linear-gradient"/><linearGradient id="linear-gradient-14" x1="567.64" y1="1101" x2="634.49" y2="1101" xlink:href="#linear-gradient"/><linearGradient id="linear-gradient-15" x1="534.99" y1="1204.9" x2="612.82" y2="1204.9" xlink:href="#linear-gradient"/><linearGradient id="linear-gradient-16" x1="734.25" y1="535.99" x2="795.67" y2="535.99" xlink:href="#linear-gradient"/><linearGradient id="linear-gradient-17" x1="766.91" y1="673.35" x2="849.71" y2="673.35" xlink:href="#linear-gradient"/><linearGradient id="linear-gradient-18" x1="767.88" y1="800.14" x2="854.5" y2="800.14" xlink:href="#linear-gradient"/><linearGradient id="linear-gradient-19" x1="735.54" y1="930.13" x2="823.85" y2="930.13" xlink:href="#linear-gradient"/><linearGradient id="linear-gradient-20" x1="753.86" y1="1032.54" x2="738.76" y2="1167.12" xlink:href="#linear-gradient"/><linearGradient id="linear-gradient-21" x1="813.03" y1="1121.11" x2="922.3" y2="1121.11" xlink:href="#linear-gradient"/><linearGradient id="linear-gradient-22" x1="836.46" y1="1025.7" x2="929.37" y2="1025.7" xlink:href="#linear-gradient"/><linearGradient id="linear-gradient-23" x1="882.03" y1="1182.71" x2="759.27" y2="1220.79" xlink:href="#linear-gradient"/><linearGradient id="linear-gradient-24" x1="813.54" y1="982.97" x2="783.99" y2="1082.1" xlink:href="#linear-gradient"/><linearGradient id="linear-gradient-25" x1="697.05" y1="921.98" x2="820.81" y2="1383.42" gradientTransform="translate(-8.19 6.33) rotate(-.5)" gradientUnits="userSpaceOnUse"><stop offset="0" stop-color="#95eee5" stop-opacity=".1"/><stop offset=".28" stop-color="#36bdc6" stop-opacity=".1"/><stop offset=".61" stop-color="#12abbb" stop-opacity=".1"/><stop offset="1" stop-color="#12abbb"/></linearGradient><linearGradient id="linear-gradient-26" x1="957.09" y1="1534.64" x2="1305.69" y2="1534.64" gradientUnits="userSpaceOnUse"><stop offset="0" stop-color="#a2f0e8"/><stop offset=".26" stop-color="#99efe6"/><stop offset=".46" stop-color="#95eee5"/><stop offset=".55" stop-color="#95eee5"/><stop offset=".64" stop-color="#d5f8f5"/><stop offset="1" stop-color="#d5f8f5"/></linearGradient><linearGradient id="linear-gradient-27" x1="566.38" y1="1223.94" x2="2250.45" y2="1462.25" gradientUnits="userSpaceOnUse"><stop offset="0" stop-color="#98efe6"/><stop offset=".11" stop-color="#c4f5f0"/><stop offset=".45" stop-color="#fafbfc"/><stop offset="1" stop-color="#fcfdfd"/></linearGradient><clipPath id="clippath"><path id="SVGID" class="cls-23" d="m2145,1232.42v.86c-.19,4.46-3.21,8.89-9.06,12.26l-6.59,3.81-949.77,548.39c-12.09,6.98-31.88,6.98-43.97,0l-606.8-350.36-6.59-3.81c-6.04-3.5-9.06-8.09-9.06-12.69s3.02-9.2,9.06-12.69l956.36-552.2c12.09-6.98,31.88-6.98,43.97,0l613.39,354.17c5.86,3.38,8.88,7.8,9.06,12.26Z"/></clipPath><radialGradient id="Degradado_sin_nombre_10" cx="-14790.11" cy="-2661.86" fx="-14790.11" fy="-2661.86" r="53.3" gradientTransform="translate(-53597.99 49387.14) rotate(148.55) scale(5.26 -4.68) skewX(-23.71)" gradientUnits="userSpaceOnUse"><stop offset="0" stop-color="#002530" stop-opacity=".3"/><stop offset="1" stop-color="#002530" stop-opacity="0"/></radialGradient><linearGradient id="Degradado_sin_nombre_6" x1="-7059.55" y1="-6941.58" x2="-6870.97" y2="-6941.58" gradientTransform="translate(-43151.92 48369.96) rotate(-180) scale(6.29 -6.78)" gradientUnits="userSpaceOnUse"><stop offset="0" stop-color="#002530" stop-opacity=".5"/><stop offset=".43" stop-color="#002530" stop-opacity=".1"/><stop offset=".52" stop-color="#002530" stop-opacity="0"/></linearGradient><linearGradient id="Degradado_sin_nombre_22" x1="1383.6" y1="791.85" x2="1205.06" y2="1151.17" gradientUnits="userSpaceOnUse"><stop offset="0" stop-color="#d5f8f5"/><stop offset=".02" stop-color="#dbf9f6"/><stop offset=".08" stop-color="#e6fbf9"/><stop offset=".14" stop-color="#eafcfa"/><stop offset=".2" stop-color="#d5f8f5"/><stop offset=".37" stop-color="#d5f8f5"/><stop offset=".57" stop-color="#d5f8f5"/><stop offset=".99" stop-color="#d5f8f5"/></linearGradient><linearGradient id="Degradado_sin_nombre_18" x1="1368.2" y1="876.76" x2="1270.78" y2="1090.64" gradientUnits="userSpaceOnUse"><stop offset="0" stop-color="#00637f" stop-opacity=".3"/><stop offset=".21" stop-color="#00637f" stop-opacity=".1"/><stop offset=".53" stop-color="#00637f" stop-opacity=".14"/><stop offset=".77" stop-color="#00637f" stop-opacity=".2"/></linearGradient><linearGradient id="linear-gradient-28" x1="1416.58" y1="843.94" x2="1266.7" y2="1090.72" gradientUnits="userSpaceOnUse"><stop offset=".12" stop-color="#d5f8f5" stop-opacity=".3"/><stop offset=".29" stop-color="#d5f8f5" stop-opacity=".7"/><stop offset=".64" stop-color="#d5f8f5" stop-opacity=".8"/><stop offset=".99" stop-color="#d5f8f5" stop-opacity=".5"/></linearGradient><radialGradient id="Degradado_sin_nombre_17" cx="1058.61" cy="960.62" fx="1058.61" fy="960.62" r="265.38" gradientTransform="translate(8.09 442.25) scale(1 .54)" gradientUnits="userSpaceOnUse"><stop offset=".9" stop-color="#d5f8f5"/><stop offset=".93" stop-color="#d5f8f5"/><stop offset=".97" stop-color="#eafcfa"/></radialGradient><linearGradient id="linear-gradient-29" x1="1301.94" y1="1223.42" x2="444.18" y2="1225.66" gradientUnits="userSpaceOnUse"><stop offset="0" stop-color="#eafcfa" stop-opacity=".4"/><stop offset=".24" stop-color="#eafcfa" stop-opacity=".4"/><stop offset=".41" stop-color="#95eee5" stop-opacity=".4"/><stop offset="1" stop-color="#95eee5" stop-opacity="0"/></linearGradient><linearGradient id="Degradado_sin_nombre_4" x1="979.69" y1="1502.04" x2="1043.89" y2="1127.28" gradientUnits="userSpaceOnUse"><stop offset=".14" stop-color="#95eee5" stop-opacity=".5"/><stop offset=".17" stop-color="#95eee5" stop-opacity=".48"/><stop offset=".56" stop-color="#95eee5" stop-opacity=".22"/><stop offset=".85" stop-color="#95eee5" stop-opacity=".06"/><stop offset="1" stop-color="#95eee5" stop-opacity="0"/></linearGradient><linearGradient id="Degradado_sin_nombre_2" x1="785.03" y1="915.18" x2="1471.92" y2="915.18" gradientUnits="userSpaceOnUse"><stop offset=".12" stop-color="#d5f8f5" stop-opacity=".3"/><stop offset=".29" stop-color="#d5f8f5" stop-opacity=".7"/><stop offset=".64" stop-color="#d5f8f5" stop-opacity=".5"/><stop offset=".99" stop-color="#d5f8f5" stop-opacity=".3"/></linearGradient><linearGradient id="linear-gradient-30" x1="1002.14" y1="925.14" x2="1256.34" y2="1188.29" gradientUnits="userSpaceOnUse"><stop offset="0" stop-color="#004a5f" stop-opacity="0"/><stop offset="1" stop-color="#004a5f" stop-opacity=".1"/></linearGradient><linearGradient id="linear-gradient-31" x1="1028.08" y1="938.89" x2="1952.39" y2="1059.45" gradientUnits="userSpaceOnUse"><stop offset=".16" stop-color="#004a5f" stop-opacity=".4"/><stop offset="1" stop-color="#004a5f"/></linearGradient><linearGradient id="linear-gradient-32" x1="1142.14" y1="643.78" x2="1142.14" y2="972.12" gradientUnits="userSpaceOnUse"><stop offset=".62" stop-color="#4dd2d2"/><stop offset=".68" stop-color="#4bd1d1" stop-opacity=".98"/><stop offset=".73" stop-color="#48cfd0" stop-opacity=".93"/><stop offset=".78" stop-color="#43cbce" stop-opacity=".84"/><stop offset=".83" stop-color="#3cc7cb" stop-opacity=".72"/><stop offset=".88" stop-color="#32c0c7" stop-opacity=".56"/><stop offset=".93" stop-color="#27b9c3" stop-opacity=".36"/><stop offset=".98" stop-color="#19b0be" stop-opacity=".14"/><stop offset="1" stop-color="#12abbb" stop-opacity="0"/></linearGradient><linearGradient id="linear-gradient-33" x1="1142.1" y1="1028.96" x2="1142.1" y2="651.23" gradientUnits="userSpaceOnUse"><stop offset=".07" stop-color="#eafcfa" stop-opacity="0"/><stop offset=".62" stop-color="#eafcfa" stop-opacity=".3"/><stop offset=".73" stop-color="#eafcfa" stop-opacity=".29"/><stop offset=".84" stop-color="#eafcfa" stop-opacity=".24"/><stop offset=".93" stop-color="#eafcfa" stop-opacity=".17"/><stop offset="1" stop-color="#eafcfa" stop-opacity=".1"/></linearGradient><linearGradient id="linear-gradient-34" x1="1131.97" y1="1028.96" x2="1131.97" y2="651.23" gradientUnits="userSpaceOnUse"><stop offset=".1" stop-color="#eafcfa" stop-opacity="0"/><stop offset=".61" stop-color="#eafcfa" stop-opacity=".8"/><stop offset=".67" stop-color="#eafcfa" stop-opacity=".79"/><stop offset=".73" stop-color="#eafcfa" stop-opacity=".74"/><stop offset=".79" stop-color="#eafcfa" stop-opacity=".67"/><stop offset=".84" stop-color="#eafcfa" stop-opacity=".56"/><stop offset=".9" stop-color="#eafcfa" stop-opacity=".43"/><stop offset=".95" stop-color="#eafcfa" stop-opacity=".26"/><stop offset="1" stop-color="#eafcfa" stop-opacity=".1"/></linearGradient><linearGradient id="linear-gradient-35" x1="999.23" y1="936.49" x2="999.23" y2="547.97" gradientUnits="userSpaceOnUse"><stop offset=".11" stop-color="#12abbb" stop-opacity="0"/><stop offset=".14" stop-color="#19afbd" stop-opacity=".12"/><stop offset=".37" stop-color="#4dd2d2"/></linearGradient><linearGradient id="linear-gradient-36" x1="999.12" y1="936.49" x2="999.12" y2="558.75" gradientUnits="userSpaceOnUse"><stop offset="0" stop-color="#eafcfa" stop-opacity="0"/><stop offset=".61" stop-color="#eafcfa" stop-opacity=".3"/><stop offset=".72" stop-color="#eafcfa" stop-opacity=".29"/><stop offset=".83" stop-color="#eafcfa" stop-opacity=".24"/><stop offset=".93" stop-color="#eafcfa" stop-opacity=".17"/><stop offset="1" stop-color="#eafcfa" stop-opacity=".1"/></linearGradient><linearGradient id="linear-gradient-37" x1="993.95" y1="936.49" x2="993.95" y2="558.75" gradientUnits="userSpaceOnUse"><stop offset="0" stop-color="#eafcfa" stop-opacity="0"/><stop offset=".61" stop-color="#eafcfa" stop-opacity=".8"/><stop offset=".67" stop-color="#eafcfa" stop-opacity=".79"/><stop offset=".73" stop-color="#eafcfa" stop-opacity=".74"/><stop offset=".79" stop-color="#eafcfa" stop-opacity=".67"/><stop offset=".84" stop-color="#eafcfa" stop-opacity=".56"/><stop offset=".9" stop-color="#eafcfa" stop-opacity=".43"/><stop offset=".95" stop-color="#eafcfa" stop-opacity=".26"/><stop offset="1" stop-color="#eafcfa" stop-opacity=".1"/></linearGradient><filter id="AI_DesenfoqueGaussiano_4"><feGaussianBlur stdDeviation="4"/></filter><linearGradient id="linear-gradient-38" x1="1083.56" y1="1279.9" x2="1132.53" y2="1307.65" gradientUnits="userSpaceOnUse"><stop offset="0" stop-color="#eafcfa" stop-opacity=".1"/><stop offset=".05" stop-color="#b9f4ee" stop-opacity=".1"/><stop offset=".15" stop-color="#95eee5" stop-opacity=".1"/><stop offset=".87" stop-color="#12abbb" stop-opacity=".3"/></linearGradient><filter id="AI_DesenfoqueGaussiano_4-2"><feGaussianBlur stdDeviation="4"/></filter><linearGradient id="linear-gradient-39" x1="1202.74" y1="1544.18" x2="1394.58" y2="1544.18" xlink:href="#linear-gradient-38"/><linearGradient id="Degradado_sin_nombre_57" x1="1529.58" y1="1444.95" x2="1030.13" y2="1441.96" gradientUnits="userSpaceOnUse"><stop offset="0" stop-color="#fff"/><stop offset=".14" stop-color="#e1e1e1"/><stop offset=".45" stop-color="#959595"/><stop offset=".89" stop-color="#1d1d1d"/><stop offset="1" stop-color="#000"/></linearGradient><mask id="mask" x="997.85" y="1298.95" width="621.29" height="289.35" maskUnits="userSpaceOnUse"><rect class="cls-68" x="997.85" y="1298.95" width="621.29" height="289.35"/></mask><filter id="AI_DesenfoqueGaussiano_4-3"><feGaussianBlur stdDeviation="4"/></filter><linearGradient id="Degradado_sin_nombre_14" x1="1538.84" y1="1593.42" x2="1035.57" y2="1427.21" gradientUnits="userSpaceOnUse"><stop offset="0" stop-color="#eafcfa" stop-opacity=".1"/><stop offset=".04" stop-color="#b9f4ee" stop-opacity=".1"/><stop offset=".13" stop-color="#95eee5" stop-opacity=".1"/><stop offset=".65" stop-color="#12abbb" stop-opacity=".3"/></linearGradient><filter id="AI_DesenfoqueGaussiano_4-4"><feGaussianBlur stdDeviation="4"/></filter><linearGradient id="linear-gradient-40" x1="1324.52" y1="1488.16" x2="1518.72" y2="1488.16" xlink:href="#linear-gradient-38"/><linearGradient id="Degradado_sin_nombre_5" x1="1552.32" y1="1314.57" x2="948.14" y2="1674.11" gradientUnits="userSpaceOnUse"><stop offset=".09" stop-color="#002530" stop-opacity="0"/><stop offset="1" stop-color="#002530"/></linearGradient><linearGradient id="Degradado_sin_nombre_5-2" x1="1184.27" y1="1495.89" x2="1134.57" y2="1190.67" xlink:href="#Degradado_sin_nombre_5"/><linearGradient id="linear-gradient-41" x1="1240.58" y1="1174.05" x2="1261.55" y2="1132.11" gradientUnits="userSpaceOnUse"><stop offset="0" stop-color="#4dd2d2" stop-opacity="0"/><stop offset="1" stop-color="#4dd2d2"/></linearGradient><linearGradient id="linear-gradient-42" x1="1333.22" y1="1348.73" x2="1305.6" y2="1291.43" gradientUnits="userSpaceOnUse"><stop offset="0" stop-color="#004a5f"/><stop offset=".58" stop-color="#004a5f"/><stop offset=".98" stop-color="#004a5f"/><stop offset="1" stop-color="#004a5f"/></linearGradient><linearGradient id="linear-gradient-43" x1="1233.55" y1="1335.42" x2="1350.59" y2="1335.42" gradientUnits="userSpaceOnUse"><stop offset="0" stop-color="#4dd2d2"/><stop offset=".21" stop-color="#5ed8d6"/><stop offset=".73" stop-color="#85e8e1"/><stop offset="1" stop-color="#95eee5"/></linearGradient><linearGradient id="linear-gradient-44" x1="1332.13" y1="1324.8" x2="1347.32" y2="1317.55" xlink:href="#linear-gradient-42"/><linearGradient id="Degradado_sin_nombre_7" x1="1234.36" y1="1349.56" x2="1391.37" y2="1253.94" gradientUnits="userSpaceOnUse"><stop offset="0" stop-color="#eafcfa"/><stop offset=".99" stop-color="#eafcfa"/><stop offset=".99" stop-color="#eafcfa" stop-opacity=".9"/></linearGradient><linearGradient id="Degradado_sin_nombre_5-3" x1="1283.41" y1="1417.44" x2="1121.87" y2="1704.8" xlink:href="#Degradado_sin_nombre_5"/><linearGradient id="Degradado_sin_nombre_5-4" x1="1229.86" y1="1483.69" x2="1452.76" y2="1259.23" xlink:href="#Degradado_sin_nombre_5"/></defs><g id="paper"><path class="cls-73" d="m2145,1265.43v.86c-.19,4.46-3.21,8.89-9.06,12.26l-6.59,3.81-949.77,548.39c-12.09,6.98-31.88,6.98-43.97,0l-606.8-350.36-6.59-3.81c-6.04-3.5-9.06-8.09-9.06-12.69s3.02-9.2,9.06-12.69l956.36-552.2c12.09-6.98,31.88-6.98,43.97,0l613.39,354.17c5.86,3.38,8.88,7.8,9.06,12.26Z"/><path class="cls-77" d="m2145,1265.43v.86c-.19,4.46-3.21,8.89-9.06,12.26l-6.59,3.81-949.77,548.39c-12.09,6.98-31.88,6.98-43.97,0l-606.8-350.36-6.59-3.81c-6.04-3.5-9.06-8.09-9.06-12.69s3.02-9.2,9.06-12.69l956.36-552.2c12.09-6.98,31.88-6.98,43.97,0l613.39,354.17c5.86,3.38,8.88,7.8,9.06,12.26Z"/><path class="cls-74" d="m2145,1265.43v.86c-.19,4.46-3.21,8.89-9.06,12.26l-6.59,3.81-949.77,548.39c-12.09,6.98-31.88,6.98-43.97,0l-606.8-350.36-6.59-3.81c-6.04-3.5-9.06-8.09-9.06-12.69s3.02-9.2,9.06-12.69l956.36-552.2c12.09-6.98,31.88-6.98,43.97,0l613.39,354.17c5.86,3.38,8.88,7.8,9.06,12.26Z"/><path class="cls-12" d="m2145,1266.52v.86c-.19,4.46-3.21,8.89-9.06,12.26l-6.59,3.81-949.77,548.39c-12.09,6.98-112.75,25.21-158.29-1.09l-606.8-350.36-6.59-3.81c-6.04-3.5-9.06-8.09-9.06-12.69s3.02-9.2,9.06-12.69l956.36-552.2c12.09-6.98,67.05-6.98,79.14,0l692.54,355.26c5.86,3.38,8.88,7.8,9.06,12.26Z"/><g id="plant4"><g id="C"><path class="cls-61" d="m800.45,1344.72l-.53,3.5c-14.74-72.31-36.4-145.76-64.87-219.49-5.93-19.92-13.24-39.77-21.88-59.52,1.47-12.12,1.47-23.26.02-33.44l-.15-1.25c-.83,8.84-1.94,17.84-3.3,26.98-19.75-43.33-46.01-86.18-78.58-128.22,1.84-13.27,2-25.42.42-36.42l-.15-1.25c-1.01,10.66-2.41,21.54-4.18,32.64-14.27-18.11-29.7-36.07-46.3-53.86l-2.28-2.45-4.89,4.56,2.28,2.44c27.17,29.12,51.19,58.7,72.02,88.62-11-1.01-21.72-2.31-32.12-3.93l1.17.46c10.01,4.13,21.49,6.93,34.39,8.44,31.96,46.78,56.11,94.4,72.18,142.44-10.31-5.21-20.21-10.62-29.67-16.21l.92.86c8.22,7.98,18.49,15.19,30.8,21.64,1.01,3.16,2,6.32,2.94,9.49.03.08.06.17.09.25,14.35,37.15,26.93,74.22,37.81,111.11-6.97-5.33-13.68-10.72-20.12-16.18l.76,1c5.64,7.73,12.81,15.16,21.44,22.32,20.77,71.92,34.9,143.1,42.11,212.72l.34,3.33,6.65-.69-.34-3.33c-3.78-36.53-9.5-73.5-17.02-110.77,11.07-8.27,20.04-16.96,26.87-26.08l.78-.99c-8.72,7.22-17.91,14.3-27.59,21.26Z"/><path class="cls-59" d="m624.42,777.18l7.1,127.75c-42.67-40.05-45.04-82.64-7.1-127.75m7.1,127.75l-7.1-127.75c35.21,41.67,37.58,84.26,7.1,127.75Z"/><path class="cls-59" d="m631.52,904.94l-7.1-127.75c-37.94,45.12-35.57,87.7,7.1,127.75Z"/><path class="cls-9" d="m624.42,777.18l7.1,127.75c30.47-43.5,28.1-86.08-7.1-127.75Z"/><path class="cls-59" d="m500.8,791.3l89.04,100.78c-.18-61.93-29.86-95.52-89.04-100.78m89.04,100.78l-89.04-100.78c6.49,57.54,36.17,91.14,89.04,100.78Z"/><path class="cls-44" d="m589.83,892.08l-89.04-100.78c6.49,57.54,36.17,91.14,89.04,100.78Z"/><path class="cls-59" d="m500.8,791.3l89.04,100.78c-.18-61.93-29.86-95.52-89.04-100.78Z"/><path class="cls-59" d="m502.87,927.7l122.08,38.35c-28.31-51.22-69-64.01-122.08-38.35m122.08,38.35l-122.08-38.35c31.72,44.39,72.41,57.17,122.08,38.35Z"/><path class="cls-50" d="m502.87,927.7c31.72,44.39,72.41,57.17,122.08,38.35l-122.08-38.35Z"/><path class="cls-59" d="m502.87,927.7l122.08,38.35c-28.31-51.22-69-64.01-122.08-38.35Z"/><path class="cls-59" d="m602.31,1023.51l99.19,80.83c-7.33-58.07-40.39-85.01-99.19-80.83m99.19,80.83l-99.19-80.83c13.02,52.98,46.09,79.93,99.19,80.83Z"/><path class="cls-59" d="m602.31,1023.51l99.19,80.83c-7.33-58.07-40.39-85.01-99.19-80.83Z"/><path class="cls-70" d="m602.31,1023.51c13.02,52.98,46.09,79.92,99.19,80.83l-99.19-80.83Z"/><path class="cls-59" d="m668.72,1136.31l84.15,96.39c2.56-58.47-25.49-90.6-84.15-96.39m84.15,96.39l-84.15-96.39c3.91,54.42,31.96,86.55,84.15,96.39Z"/><path class="cls-20" d="m752.88,1232.7l-84.15-96.39c3.91,54.42,31.96,86.55,84.15,96.39Z"/><path class="cls-59" d="m668.72,1136.31l84.15,96.39c2.56-58.47-25.49-90.6-84.15-96.39Z"/><path class="cls-59" d="m906.83,1234.77l-85.31,95.36c-1.85-58.49,26.58-90.28,85.31-95.36m-85.31,95.36l85.31-95.36c-4.57,54.36-33.01,86.15-85.31,95.36Z"/><path class="cls-59" d="m821.52,1330.13l85.31-95.36c-58.73,5.08-87.17,36.87-85.31,95.36Z"/><path class="cls-11" d="m821.52,1330.13c52.3-9.21,80.74-41,85.31-95.36l-85.31,95.36Z"/><path id="_-" class="cls-59" d="m706.03,916.1l7.1,127.75c-42.67-40.05-45.04-82.64-7.1-127.75m7.1,127.75l-7.1-127.75c35.21,41.67,37.58,84.26,7.1,127.75Z"/><path class="cls-59" d="m713.14,1043.86l-7.1-127.75c-37.94,45.12-35.57,87.7,7.1,127.75Z"/><path class="cls-48" d="m706.03,916.1l7.1,127.75c30.47-43.5,28.1-86.08-7.1-127.75Z"/></g><g id="B"><path class="cls-61" d="m739.04,856.21l-.63,4.33c1.19-29.14.25-58.9-2.92-89.22-1.02-9.73-2.31-19.57-3.79-29.48,9.83-9.06,17.65-18.33,23.4-27.81l.68-1.06c-7.83,7.87-16.13,15.67-24.89,23.38-5.93-37.77-15.18-76.72-27.63-116.67,7.2-11.35,12.38-22.38,15.51-33.07l.38-1.2c-5.43,9.46-11.32,18.97-17.66,28.51-13.51-42.39-30.63-85.89-51.31-130.26l-1.41-3.03-6.06,2.83,1.41,3.03c12.74,27.35,24.06,54.29,34.03,80.84-9.25-4.38-18.2-8.9-26.79-13.61l.95.83c7.71,7,17.09,13.31,28.13,18.94,12.51,33.95,22.76,67.24,30.72,99.83-8.98-5.28-17.62-10.69-25.88-16.24l.87.91c7.08,7.72,15.92,14.89,26.49,21.54,8.84,37.44,14.69,73.98,17.48,109.53-7.79-5.94-15.26-11.97-22.39-18.08l.76,1.01c5.76,7.97,13.11,15.64,22.03,23.03,2.94,42.52,1.55,83.67-4.24,123.34-5.15-6.78-10.05-13.55-14.69-20.32l.47,1.17c3.14,8.24,7.57,16.59,13.28,25.04-5.26,33.41-13.57,65.78-25.07,97.06-9.37,25.49-17.53,51.25-24.24,76.57-7.17,27.04-12.79,54.06-16.92,81.03-7.78-7.72-15.16-15.49-22.1-23.31l.61,1.1c5,9.38,11.89,18.67,20.63,27.88-4.52,31.12-7.03,62.16-7.51,93.07-9.17-6.9-17.9-13.9-26.18-21.02l.76,1.01c6.45,8.97,14.93,17.56,25.38,25.8-.48,66.03,8.26,131.46,26.26,195.79l.9,3.22,6.44-1.8-.9-3.22c-11.63-41.58-19.36-83.63-23.2-126,9.13-8.68,16.43-17.53,21.87-26.57l.67-1.07c-7.26,7.37-14.96,14.66-23.04,21.89-6.68-81.17.9-163.52,22.78-246.08,6.66-25.12,14.75-50.68,24.05-75.98,3.25-8.83,6.22-17.76,8.97-26.77,10.59-8.57,19.13-17.48,25.56-26.74l.74-1.02c-7.61,6.77-15.63,13.45-24.02,20.04,5.4-18.68,9.8-37.73,13.13-57.12.16.21.31.42.47.63l.84-6.54c-.1-.13-.2-.26-.31-.4,3.3-20.68,5.42-41.74,6.37-63.14,10.72-8.23,19.38-16.95,25.97-26.15l.73-.98c-8.21,7.07-16.87,14-25.98,20.8Z"/><g id="leaf1_0_Layer0_0_FILL"><path class="cls-59" d="m752.23,1227.59l-75.28,103.48c-7.74-58.02,17.36-92.51,75.28-103.48m-75.28,103.48l75.28-103.48c.93,54.55-24.17,89.05-75.28,103.48Z"/></g><path class="cls-55" d="m676.95,1331.08l75.28-103.48c-57.92,10.97-83.02,45.46-75.28,103.48Z"/><path class="cls-59" d="m676.95,1331.08c51.12-14.43,76.21-48.93,75.28-103.48l-75.28,103.48Z"/><path class="cls-59" d="m655.24,505.53c13.02-60.55-8.82-99.69-65.52-117.44l65.52,117.44m-65.52-117.44c-5.92,57.61,15.92,96.75,65.52,117.44l-65.52-117.44Z"/><path class="cls-51" d="m589.72,388.09l65.52,117.44c13.02-60.55-8.82-99.69-65.52-117.44Z"/><path class="cls-59" d="m655.24,505.53l-65.52-117.44c-5.92,57.61,15.92,96.75,65.52,117.44Z"/><path class="cls-59" d="m557.18,481.55l101.84,77.49c-9.26-57.8-43.21-83.63-101.84-77.49m101.84,77.49l-101.84-77.49c14.79,52.52,48.73,78.35,101.84,77.49Z"/><path class="cls-67" d="m557.18,481.55l101.84,77.49c-9.26-57.8-43.21-83.63-101.84-77.49Z"/><path class="cls-59" d="m557.18,481.55c14.79,52.52,48.73,78.35,101.84,77.49l-101.84-77.49Z"/><path class="cls-59" d="m598.05,576.65l94.38,86.42c-3.97-58.4-35.43-87.2-94.38-86.42m94.38,86.42l-94.38-86.42c9.95,53.65,41.41,82.46,94.38,86.42Z"/><path class="cls-59" d="m598.05,576.65c9.95,53.65,41.41,82.46,94.38,86.42l-94.38-86.42Z"/><path class="cls-19" d="m598.05,576.65l94.38,86.42c-3.97-58.4-35.43-87.2-94.38-86.42Z"/><path class="cls-59" d="m630.48,680.92l83.65,96.85c2.87-58.46-25.01-90.74-83.65-96.85m83.65,96.85l-83.65-96.85c3.62,54.44,31.51,86.73,83.65,96.85Z"/><path class="cls-3" d="m630.48,680.92l83.65,96.85c2.87-58.46-25.01-90.74-83.65-96.85Z"/><path class="cls-59" d="m714.13,777.76l-83.65-96.85c3.62,54.44,31.51,86.73,83.65,96.85Z"/><path class="cls-59" d="m660.29,791.06l55.74,115.19c17.9-55.73-.68-94.12-55.74-115.19m55.74,115.19l-55.74-115.19c-10.59,53.53,7.99,91.92,55.74,115.19Z"/><path class="cls-59" d="m716.02,906.25l-55.74-115.19c-10.59,53.53,7.99,91.92,55.74,115.19Z"/><path class="cls-30" d="m660.29,791.06l55.74,115.19c17.9-55.73-.68-94.12-55.74-115.19Z"/><path class="cls-59" d="m572.7,1055.88l69.74,107.3c10.78-57.53-12.47-93.3-69.74-107.3m69.74,107.3l-69.74-107.3c-3.79,54.43,19.45,90.2,69.74,107.3Z"/><path class="cls-59" d="m642.44,1163.18l-69.74-107.3c-3.79,54.43,19.45,90.2,69.74,107.3Z"/><path class="cls-43" d="m572.7,1055.88l69.74,107.3c10.78-57.53-12.47-93.3-69.74-107.3Z"/><path class="cls-59" d="m547.48,1166.42l83.48,96.98c2.97-58.45-24.86-90.78-83.48-96.98m83.48,96.98l-83.48-96.98c3.53,54.45,31.36,86.78,83.48,96.98Z"/><path class="cls-59" d="m630.97,1263.4l-83.48-96.98c3.53,54.45,31.36,86.78,83.48,96.98Z"/><path class="cls-18" d="m547.48,1166.42l83.48,96.98c2.97-58.45-24.86-90.78-83.48-96.98Z"/><path class="cls-59" d="m761.78,474.68l-46.4,119.26c-22.28-54.13-6.81-93.88,46.4-119.26m-46.4,119.26l46.4-119.26c14.81,52.51-.65,92.27-46.4,119.26Z"/><path class="cls-34" d="m715.38,593.95l46.4-119.26c-53.21,25.38-68.68,65.14-46.4,119.26Z"/><path class="cls-59" d="m761.78,474.68l-46.4,119.26c45.75-26.99,61.21-66.75,46.4-119.26Z"/><path class="cls-59" d="m825.62,617.05l-75.68,103.19c-7.51-58.05,17.71-92.44,75.68-103.19m-75.68,103.19l75.68-103.19c.72,54.56-24.51,88.96-75.68,103.19Z"/><path class="cls-6" d="m749.93,720.24l75.68-103.19c-57.97,10.75-83.19,45.14-75.68,103.19Z"/><path class="cls-59" d="m749.93,720.24c51.17-14.24,76.4-48.63,75.68-103.19l-75.68,103.19Z"/><path class="cls-59" d="m839.3,747.96l-80.43,94.01c-1.54-58.67,25.27-90.01,80.43-94.01m-80.43,94.01l80.43-94.01c-4.48,54.41-31.29,85.75-80.43,94.01Z"/><path class="cls-58" d="m758.87,841.97l80.43-94.01c-55.16,4-81.97,35.34-80.43,94.01Z"/><path class="cls-59" d="m758.87,841.97c49.14-8.26,75.96-39.6,80.43-94.01l-80.43,94.01Z"/><path id="_--2" class="cls-59" d="m817.39,877.6l-81.83,98.38c-3.96-58.4,23.32-91.19,81.83-98.38m-81.83,98.38l81.83-98.38c-2.61,54.5-29.89,87.29-81.83,98.38Z"/><path class="cls-7" d="m735.55,975.98l81.83-98.38c-58.51,7.19-85.79,39.99-81.83,98.38Z"/><path class="cls-59" d="m735.55,975.98c51.94-11.09,79.22-43.88,81.83-98.38l-81.83,98.38Z"/></g><g id="A"><path class="cls-61" d="m856.28,1058.32l-5.64-3.6-1.8,2.82c-10.67,16.73-20.48,33.61-29.46,50.6-3.04-10.45-5.71-20.76-7.98-30.89v1.26c-.17,10.97,1.47,22.85,4.88,35.6-12.1,23.46-22.58,47.16-31.45,71.07-4.89-10.12-9.36-20.14-13.38-30.06l.21,1.24c1.66,11.03,5.32,22.68,10.94,34.91-31.79,88.63-41.39,180.14-28.53,273.45l.46,3.31,6.62-.91-.46-3.31c-10.09-73.18-6.17-145.27,11.57-215.7,10.69-6.46,19.66-13.48,26.89-21.07l.89-.9c-8.36,5.41-17.1,10.66-26.17,15.78,7.07-26.79,16.15-53.34,27.23-79.62,12.04-5.44,22.28-11.7,30.67-18.79l.98-.8c-9.3,4.67-18.98,9.14-29.02,13.41,13.94-32.09,30.85-63.78,50.76-95l1.8-2.82Z"/><path class="cls-59" d="m744.13,1039.66l29.9,124.42c29.37-50.63,19.4-92.1-29.9-124.42m29.9,124.42l-29.9-124.42c-21.75,50.04-11.78,91.51,29.9,124.42Z"/><path class="cls-41" d="m774.04,1164.08l-29.9-124.42c-21.75,50.04-11.78,91.51,29.9,124.42Z"/><path class="cls-59" d="m744.13,1039.66l29.9,124.42c29.37-50.63,19.4-92.1-29.9-124.42Z"/><path class="cls-59" d="m929.4,1073.92l-104.51,73.85c11.29-57.43,46.12-82.05,104.51-73.85m-104.51,73.85l104.51-73.85c-16.63,51.97-51.46,76.58-104.51,73.85Z"/><path class="cls-59" d="m824.9,1147.77l104.51-73.85c-58.38-8.2-93.22,16.42-104.51,73.85Z"/><path class="cls-10" d="m824.9,1147.77c53.04,2.73,87.88-21.88,104.51-73.85l-104.51,73.85Z"/><path class="cls-59" d="m842.88,1066.8c61.19-9.58,89.89-44.01,86.11-103.3l-86.11,103.3m86.11-103.3c-55.89,15.15-84.6,49.58-86.11,103.3l86.11-103.3Z"/><path class="cls-59" d="m842.88,1066.8l86.11-103.3c-55.89,15.15-84.6,49.58-86.11,103.3Z"/><path class="cls-35" d="m842.88,1066.8c61.18-9.58,89.89-44.01,86.11-103.3l-86.11,103.3Z"/><path class="cls-59" d="m888.7,1147.29l-95.91,84.72c5.01-58.31,36.98-86.55,95.91-84.72m-95.91,84.72l95.91-84.72c-10.91,53.46-42.88,81.7-95.91,84.72Z"/><path class="cls-59" d="m792.79,1232.01l95.91-84.72c-58.93-1.84-90.9,26.4-95.91,84.72Z"/><path class="cls-31" d="m792.79,1232.01c53.03-3.02,85-31.26,95.91-84.72l-95.91,84.72Z"/><path id="_--3" class="cls-59" d="m803.44,958.87l9.04,127.64c37.29-45.11,34.28-87.66-9.04-127.64m9.04,127.64l-9.04-127.64c-29.68,45.78-26.67,88.33,9.04,127.64Z"/><path class="cls-56" d="m812.48,1086.51l-9.04-127.64c-29.68,45.78-26.67,88.33,9.04,127.64Z"/><path class="cls-59" d="m803.44,958.87l9.04,127.64c37.29-45.11,34.28-87.66-9.04-127.64Z"/></g><path class="cls-32" d="m826.29,1147.82c24.25,1.03,44.65-3.7,61.2-14.24,1.12-.72,2.23-1.46,3.32-2.23,2.12-1.5,4.17-3.1,6.16-4.8,6.05-5.19,11.47-11.32,16.27-18.38.09-.14.19-.26.28-.4,2.66-3.96,5.12-8.23,7.39-12.78,1.71-3.43,3.32-7.02,4.81-10.78.29-.74.58-1.48.86-2.23.99-2.61,1.94-5.29,2.82-8.05h0s0,0,0,0c-18.24-2.56-34.19-1.92-47.83,1.93-10.92,3.08-20.36,8.21-28.33,15.39-13.7,12.34-23.04,30.75-28.05,55.2-6.96,3.34-14.11,6.57-21.46,9.71,13.34-30.73,29.42-61.09,48.25-91.02,44.06-9.23,69.32-32.85,75.71-70.89,1.05-6.25,1.59-12.88,1.63-19.9.02-3.51-.09-7.12-.33-10.83h0c-14.75,4-27.59,9.35-38.55,16.04-3.32,2.02-6.48,4.15-9.45,6.42-.03.02-.06.05-.09.07-2.17,1.66-4.24,3.39-6.22,5.18-.31.28-.61.56-.92.85-1.63,1.51-3.2,3.07-4.7,4.68-.44.46-.87.93-1.29,1.4-2.64,2.93-5.08,6.01-7.29,9.24-11.07,16.12-16.94,35.93-17.6,59.43.07-.01.13-.02.19-.03-8.46,13.71-16.35,27.5-23.68,41.37-2.22-7.64-4.24-15.2-6.06-22.68,3.82-4.69,7.2-9.35,10.14-13.99.51-.81,1.01-1.62,1.5-2.43,1.05-1.74,2.04-3.48,2.97-5.21.1-.19.2-.38.3-.57,4.68-8.88,7.74-17.65,9.17-26.32,0-.05.02-.1.03-.15,1.12-6.88,1.21-13.69.29-20.44-1.62-11.83-6.38-23.46-14.29-34.9-.82-1.19-1.68-2.38-2.57-3.57-.03-.04-.06-.08-.08-.11-4.8-6.37-10.58-12.67-17.34-18.91-16.19,24.97-22.63,48.97-19.37,72.01.22,1.59.49,3.17.81,4.75.5,2.51,1.13,5.01,1.86,7.5,4.3,14.51,12.57,28.62,24.81,42.34.46,8.99,2.03,18.54,4.73,28.64-12.1,23.46-22.58,47.16-31.45,71.07-3.61-7.48-7-14.91-10.14-22.29,21.34-37.47,21.03-69.89-.96-97.28-6.48-8.07-14.85-15.7-25.09-22.9-1.46-1.03-2.97-2.05-4.51-3.06-2.04,4.69-3.8,9.31-5.28,13.85-3.46,10.59-5.4,20.78-5.82,30.55-.12,2.79-.12,5.55.01,8.28.57,12.27,3.66,23.85,9.25,34.77.62,1.21,1.27,2.42,1.96,3.61,4.97,8.7,11.6,16.96,19.86,24.77,1.58,1.5,3.22,2.98,4.93,4.44,1.28,1.1,2.58,2.19,3.93,3.27,1.97,8.98,5.18,18.33,9.65,28.07-4.66,13.01-8.84,26.07-12.55,39.2-10.22-33.8-21.89-67.74-35.02-101.74-5.93-19.92-13.24-39.77-21.88-59.52,1.14-9.43,1.39-18.27.76-26.53,10.94-15.92,17.5-31.71,19.64-47.38,0-.02,0-.03,0-.05.36-2.66.6-5.31.7-7.97.11-2.67.09-5.33-.06-8,0-.11-.02-.23-.03-.34.94-1.09,1.85-2.18,2.73-3.28,10.81-2.41,20.55-5.76,29.19-10.08,1.29-.64,2.55-1.31,3.79-1.99,8.66-4.8,16.15-10.64,22.45-17.52.9-.98,1.78-1.99,2.63-3.01,6.62-7.96,11.78-17.22,15.49-27.74.66-1.86,1.27-3.76,1.84-5.71,1.15-3.93,2.11-8.03,2.88-12.29.03-.16.06-.32.09-.48.54-3.01.98-6.11,1.33-9.28,0,0,0,0,0,0,.36-3.24.62-6.56.78-9.96-6.81.84-13.17,2.03-19.13,3.56-.93.24-1.84.48-2.75.74-2.15.6-4.25,1.26-6.28,1.96-1.27.44-2.52.9-3.75,1.37-5.21,2.01-10.02,4.34-14.42,7.02-26.05,15.83-37.9,43.29-35.56,82.38-.51.44-1.03.87-1.54,1.3-.15-1.54-.33-3.07-.56-4.6-.61-3.98-1.5-7.96-2.69-11.92-.79-2.64-1.71-5.28-2.75-7.92-.15-.39-.33-.78-.49-1.17,1.27-6.07,2.44-12.17,3.49-18.31.16.21.31.42.47.63l.84-6.54c-.1-.13-.2-.26-.31-.4,3.3-20.68,5.42-41.74,6.37-63.14,8.62-6.62,15.89-13.56,21.84-20.81,17.85-3.18,32.72-9.43,44.58-18.79,1.01-.8,2-1.62,2.97-2.46,18.41-16.04,28.94-40.21,31.6-72.52h0s0,0,0,0c-54.73,3.97-81.54,34.87-80.45,92.65-6.35,5.28-12.96,10.47-19.82,15.59l-.63,4.33c1.19-29.14.25-58.9-2.92-89.22-1.02-9.74-2.31-19.57-3.79-29.48,7.81-7.2,14.33-14.53,19.57-22,46.81-13.47,71.52-44.11,74.12-91.94.19-3.53.27-7.14.23-10.86-19.93,3.69-35.98,10.18-48.17,19.47-1.11.84-2.18,1.71-3.23,2.6-4.18,3.56-7.84,7.49-10.99,11.79-.79,1.07-1.54,2.17-2.27,3.29-5.8,8.97-9.54,19.42-11.25,31.34-.69,4.82-1.02,9.89-1.04,15.2,0,2.62.06,5.29.21,8.03.04.74.09,1.49.15,2.24.18,2.58.44,5.21.76,7.89-6.04,5.86-12.34,11.68-18.9,17.46-5.93-37.77-15.18-76.72-27.63-116.67,5.73-9.03,10.16-17.85,13.31-26.47,10.41-6.27,19.22-13.22,26.42-20.84,1.55-1.64,3.03-3.31,4.43-5.01,1.56-1.89,3.04-3.82,4.41-5.79,2.73-3.92,5.08-8.01,7.08-12.23.5-1.05.98-2.12,1.43-3.19,1.2-2.84,2.25-5.75,3.14-8.73.2-.68.4-1.35.58-2.04.6-2.2,1.12-4.43,1.54-6.7.03-.15.06-.31.09-.46,2.19-12.04,2.01-25.08-.55-39.12-.57-3.13-1.26-6.32-2.07-9.55-.4-1.62-.84-3.24-1.3-4.89h0c-19.96,9.52-34.6,21.06-43.94,34.62-.6.87-1.16,1.74-1.72,2.62-.67,1.07-1.31,2.16-1.92,3.26-5.08,9.16-7.93,19.16-8.55,30.01,0,.09,0,.18-.01.28-.36,6.72.13,13.76,1.48,21.13.09.49.18.99.28,1.49.72,3.68,1.65,7.43,2.79,11.27.44,1.48.91,2.97,1.41,4.47.29.87.59,1.73.9,2.61.73,2.07,1.53,4.16,2.38,6.27-4.21,7.05-8.68,14.13-13.39,21.23-12.06-37.85-27.01-76.58-44.79-116.03,3.79-22.19,2.61-41.33-3.56-57.4-1.8-4.7-4.01-9.16-6.66-13.34-1.5-2.36-3.14-4.64-4.91-6.84-11.53-14.27-28.81-25.02-51.84-32.23h0s0,0,0,0c-1.75,17.04-1.05,32.46,2.06,46.27.44,1.97.93,3.91,1.47,5.82.47,1.66.97,3.31,1.52,4.93,1.7,4.99,3.77,9.72,6.19,14.23.63,1.17,1.28,2.32,1.96,3.46.75,1.26,1.53,2.5,2.34,3.72.39.59.78,1.18,1.18,1.76,1.74,2.5,3.62,4.9,5.61,7.23,1.12,1.3,2.27,2.57,3.47,3.81,1.14,1.18,2.31,2.35,3.52,3.48.33.31.65.63.99.94,8.84,8.07,19.57,14.88,32.15,20.46,9.5,21.29,18.15,42.33,25.97,63.13-6.62-3.13-13.07-6.34-19.36-9.64-6.39-37.91-23.59-61.82-51.6-71.74-1.65-.58-3.34-1.12-5.07-1.61-.75-.21-1.5-.42-2.26-.61-2.34-.59-4.74-1.1-7.21-1.52-.23-.04-.45-.08-.68-.12-10.43-1.7-22.03-1.88-34.8-.54,6.78,24.1,17.61,42.56,32.46,55.42.71.62,1.44,1.22,2.17,1.82,2.01,1.63,4.1,3.16,6.25,4.59,2.97,1.97,6.06,3.78,9.29,5.38,1.47.73,2.97,1.4,4.5,2.05,13.19,5.62,28.44,8.37,45.76,8.24,6.59,5.23,14.19,10.05,22.82,14.45,12.51,33.95,22.76,67.24,30.72,99.83-6.46-3.8-12.75-7.67-18.85-11.61-.52-6.78-1.39-13.18-2.66-19.15-1.36-6.38-3.14-12.29-5.35-17.74-1.11-2.73-2.32-5.33-3.64-7.83-.66-1.25-1.35-2.47-2.06-3.65-2.86-4.76-6.15-9.05-9.86-12.88-5.58-5.75-12.12-10.46-19.63-14.12-2.5-1.22-5.11-2.33-7.83-3.32-4.08-1.49-8.4-2.71-12.96-3.68-3.04-.64-6.19-1.17-9.44-1.59-6.51-.83-13.45-1.19-20.82-1.09.31,1.68.64,3.33,1,4.96,1.06,4.88,2.31,9.55,3.74,14,.48,1.48.98,2.94,1.5,4.37,1.56,4.3,3.32,8.39,5.26,12.25,1.29,2.58,2.67,5.06,4.13,7.44,14.62,23.83,37.65,37.95,69.07,42.37,0,0,.01,0,.02,0,2.69.38,5.45.67,8.26.91,6.14,5.86,13.34,11.39,21.61,16.59,8.84,37.44,14.69,73.98,17.48,109.53-5.48-4.18-10.79-8.4-15.95-12.66,1.61-39.25-10.83-66.54-37.34-81.85-.41-.24-.84-.47-1.26-.7-10.92-6.05-24.14-10.15-39.68-12.27-1.77-.24-3.57-.46-5.41-.65.32,4.74.83,9.29,1.51,13.69,1.15,7.43,2.84,14.39,5.04,20.86.46,1.34.93,2.66,1.44,3.97.79,2.05,1.62,4.07,2.52,6.02.75,1.62,1.55,3.19,2.38,4.75,5,9.37,11.4,17.46,19.23,24.25,5.07,4.39,10.73,8.25,16.98,11.56,2.21,1.17,4.5,2.26,6.85,3.29,4.55,2,9.38,3.75,14.48,5.25,3.79,1.11,7.74,2.08,11.84,2.92,4.99,6.02,10.91,11.87,17.77,17.55,2.94,42.52,1.55,83.67-4.24,123.34-3.4-4.47-6.68-8.95-9.86-13.42,2.57-8.23,4.36-16.08,5.32-23.54.2-1.57.37-3.13.5-4.67s.23-3.06.29-4.56c1.52-37.61-19.23-64.65-62.25-81.11h0s0,0,0,0c-6.62,33.45-1.84,61,14.33,82.63,0,0,.02.02.02.03,1.53,2.05,3.17,4.04,4.91,5.98.25.28.51.55.76.83,1.47,1.61,3.02,3.17,4.63,4.71,8.13,7.73,18.08,14.51,29.82,20.37,2.82,6.16,6.35,12.37,10.6,18.64-.83,5.31-1.76,10.58-2.75,15.84-.49-.9-1-1.8-1.52-2.7-.66-1.15-1.34-2.29-2.05-3.44-3.68-5.97-8-11.92-13.01-17.84h0s0,0,0,0c-32.81,39.02-35.46,76.15-7.98,111.38-.71,1.97-1.41,3.95-2.11,5.92-17.67-33.76-39.29-67.18-64.8-100.12,1.47-10.55,1.85-20.38,1.15-29.5,28.69-41.74,27.15-82.63-4.68-122.69-1.04-1.3-2.1-2.61-3.2-3.91-.38.45-.74.9-1.11,1.34-.44.53-.86,1.06-1.29,1.58-1.79,2.22-3.48,4.44-5.07,6.65-.39.54-.77,1.07-1.14,1.61-.66.95-1.3,1.89-1.93,2.83-1.69,2.55-3.24,5.08-4.67,7.62-.5.89-.99,1.79-1.46,2.68-.3.58-.6,1.16-.89,1.73-.75,1.49-1.46,2.98-2.12,4.46-.63,1.41-1.21,2.81-1.75,4.22-.15.39-.3.78-.44,1.16-1.15,3.1-2.1,6.18-2.84,9.25-.07.29-.14.58-.21.87-2.37,10.28-2.47,20.41-.31,30.4.18.83.37,1.65.58,2.48.14.53.28,1.06.43,1.6.56,2,1.21,4,1.95,6,.26.71.54,1.41.82,2.11.22.55.46,1.1.69,1.66.34.79.7,1.59,1.07,2.38,3.75,7.97,8.98,15.84,15.7,23.63.08.09.16.19.24.28,2.99,3.45,6.28,6.87,9.86,10.28-.9,7.96-2,16.05-3.31,24.25-11.75-14.91-24.3-29.72-37.63-44.42-1.21-25.12-7.69-45.19-19.47-60.16-.06-.07-.12-.14-.18-.22-1.54-1.94-3.18-3.8-4.9-5.57-.42-.43-.85-.85-1.27-1.27-10.74-10.53-24.79-17.88-42.17-22.02-1.62-.39-3.27-.74-4.94-1.07-3.35-.66-6.82-1.21-10.4-1.65-1.79-.22-3.61-.41-5.46-.58,3.04,26.95,11.17,48.65,24.38,65.09.01.01.02.03.03.04,14.6,18.15,35.43,29.88,62.44,35.22,22.45,25.01,42.6,50.34,60.41,75.93-8.08-.74-16.01-1.64-23.78-2.71-20.18-35.84-46.55-52.41-79.13-49.73-.28.02-.56.05-.84.07-2.58.24-5.21.6-7.87,1.08-10.58,1.9-21.77,5.7-33.57,11.41.99,1.39,1.99,2.74,3,4.07,5.04,6.63,10.31,12.48,15.79,17.57,2.19,2.03,4.42,3.94,6.68,5.73,4.93,3.89,10.04,7.18,15.31,9.9,23.38,12.08,50.04,12.6,79.98,1.55,8.39,2.82,17.67,4.83,27.86,6.03,15.71,23,29.53,46.2,41.43,69.56-1.95,5.74-3.85,11.49-5.67,17.23-2.86-4.77-6.12-9.07-9.76-12.89-16.79-17.65-41.85-25.3-75.2-22.93,1.49,6.06,3.25,11.76,5.27,17.14,1.84,4.91,3.88,9.55,6.16,13.9,1.36,2.6,2.8,5.1,4.32,7.49,5.06,7.98,10.99,14.81,17.79,20.53.76.64,1.54,1.27,2.32,1.88,2.34,1.83,4.78,3.54,7.32,5.12.88.55,1.78,1.08,2.69,1.6,1.3.74,2.62,1.45,3.97,2.14,7.01,3.54,14.68,6.24,23.01,8.08-6.73,25.87-12.07,51.72-16.02,77.52-5.7-5.66-11.19-11.35-16.45-17.07.23-1.26.45-2.51.64-3.75.29-1.84.54-3.65.75-5.44.85-7.18,1.11-13.97.8-20.4-.19-3.97-.61-7.79-1.25-11.48-.14-.81-.3-1.62-.46-2.42-.88-4.36-2.09-8.51-3.62-12.46-.76-1.96-1.57-3.88-2.48-5.73-1.25-2.53-2.65-4.96-4.2-7.3-1.39-2.11-2.89-4.15-4.52-6.11-1.72-2.07-3.57-4.05-5.55-5.94-3.63-3.46-7.72-6.63-12.23-9.52-2.48-1.59-5.09-3.1-7.84-4.52-.46-.24-.9-.49-1.37-.72-8.35-4.16-17.89-7.55-28.62-10.17-1.9,27.21,2.97,49.76,14.59,67.65,2.91,4.47,6.23,8.65,9.98,12.54,1.88,1.94,3.86,3.81,5.94,5.61,1.04.9,2.11,1.78,3.21,2.64,9.55,7.52,21.13,13.64,34.69,18.39,4.56,7.34,10.27,14.63,17.14,21.86-4.52,31.12-7.03,62.16-7.51,93.07-6.83-5.13-13.41-10.33-19.74-15.59.13-2.97.18-5.88.15-8.72-.02-1.92-.07-3.82-.17-5.68-.09-1.67-.21-3.32-.35-4.94-.34-3.79-.87-7.42-1.55-10.92-.37-1.93-.79-3.81-1.26-5.65-1.08-4.25-2.42-8.29-4.03-12.09-.42-1-.86-1.99-1.32-2.96-.81-1.72-1.68-3.39-2.61-5.02-.25-.43-.49-.87-.74-1.29-1.3-2.16-2.69-4.23-4.2-6.22-.03-.04-.06-.08-.09-.13-4.81-6.31-10.69-11.71-17.62-16.21-.07-.04-.13-.09-.2-.14-3.92-2.53-8.2-4.75-12.79-6.71-1.66-.71-3.37-1.38-5.11-2.01-1.41-.51-2.85-1-4.32-1.46-6.71-2.11-14-3.73-21.91-4.82-.01,0-.03,0-.04,0-1.76-.24-3.55-.46-5.37-.65h0c.63,9.73,2.05,18.74,4.24,27.06.27,1.04.56,2.07.86,3.1,2.31,7.92,5.34,15.19,9.13,21.77,1.36,2.37,2.81,4.65,4.36,6.84s3.19,4.3,4.93,6.32c1.74,2.02,3.57,3.95,5.5,5.8.96.92,1.95,1.83,2.96,2.71,2.02,1.76,4.14,3.44,6.36,5.02,3.32,2.38,6.85,4.57,10.6,6.56,9.64,5.13,20.71,8.96,33.17,11.51,5.78,7,12.81,13.77,21.11,20.31-.48,66.03,8.26,131.46,26.26,195.79l.9,3.22,6.44-1.8-.9-3.22c-11.63-41.58-19.36-83.63-23.2-126,7.16-6.8,13.18-13.72,18.07-20.75,48.42-14.14,73.07-46.6,73.93-97.4,3.94,4.61,8.44,9.11,13.48,13.5-17.89,71.16-21.83,143.99-11.63,217.95l.46,3.31,6.62-.91-.46-3.31c-9.73-70.59-6.43-140.15,9.74-208.2,19.78,69.76,33.32,138.81,40.31,206.38l.34,3.33,6.65-.69-.34-3.33c-3.78-36.53-9.5-73.5-17.02-110.77,8.86-6.62,16.35-13.51,22.5-20.67,23.54-4.36,42.18-13.37,55.89-27.03,1.45-1.45,2.85-2.95,4.19-4.5,1.09-1.26,2.14-2.55,3.15-3.88,11.74-15.32,18.65-35.21,20.71-59.69-12.85,1.11-24.24,3.5-34.19,7.17-5.24,1.93-10.06,4.24-14.5,6.88-.55.33-1.1.65-1.64.99-19.81,12.47-31.24,32.35-34.25,59.64-.67,6.07-.91,12.52-.75,19.33-6.75,5.39-13.76,10.7-21.05,15.94l-.53,3.5c-6.86-33.68-15.25-67.61-25.11-101.69,7.31-4.6,13.78-9.47,19.38-14.63,31.82-2.09,55.94-13.4,72.38-33.92.56-.7,1.12-1.41,1.66-2.13,1.92-2.56,3.73-5.25,5.43-8.07.59-.98,1.16-1.98,1.73-2.99,1.4-2.51,2.71-5.13,3.94-7.84,4-8.83,7.14-18.71,9.37-29.66-29.34-.92-51.99,5.63-67.96,19.62-.27.24-.54.49-.81.74-2.23,2.02-4.31,4.19-6.28,6.5-11.56,13.65-18.47,32.47-20.73,56.49-6.17,3.83-12.52,7.59-19.06,11.28,7.07-26.79,16.15-53.34,27.23-79.62,9.55-4.31,17.94-9.15,25.2-14.49Zm-123.28-114.37c2.8,3.17,5.85,6.33,9.14,9.47-.69,6.13-1.49,12.32-2.43,18.59-3.03-6.64-6.23-13.27-9.56-19.89.94-2.72,1.88-5.45,2.85-8.17Zm20.67,81.54c-7.69-3.89-15.15-7.89-22.38-11.99-1.27-9.47-3.24-18.09-5.9-25.87-.75-2.2-1.54-4.36-2.41-6.42-.43-1.02-.88-2-1.33-2.98,1.76-5.72,3.59-11.44,5.49-17.17,10.45,21.37,19.31,42.86,26.53,64.43Zm-23.58-10.69c7.24,6.15,15.77,11.81,25.63,16.98,1.01,3.16,2,6.32,2.94,9.49.03.08.06.17.09.25,14.35,37.15,26.93,74.22,37.81,111.11-4.67-3.57-9.22-7.17-13.65-10.8.37-10.43-.22-20.02-1.83-28.75-5.02-27.33-19.72-46.33-44.11-57-9.62-4.21-20.75-7.11-33.38-8.72,2.43-11.4,5.14-22.81,8.11-34.23,5.83.94,11.97,1.49,18.39,1.66Zm-40.38,241.37c-5.27-64.07-1.65-128.88,10.86-193.95.5,2.89,1.07,5.72,1.74,8.46.36,1.48.74,2.94,1.14,4.38,6.89,24.47,20.59,42.65,41.1,54.54,2.41,1.4,4.92,2.71,7.52,3.94,2.6,1.22,5.3,2.36,8.09,3.41,3.57,1.34,7.3,2.53,11.18,3.58-.14.04-.28.08-.42.12-21.45,5.68-37.63,15.13-48.52,28.37-.85,1.03-1.66,2.09-2.45,3.16-2.35,3.23-4.42,6.67-6.19,10.32-.59,1.22-1.15,2.45-1.68,3.72-3.16,7.56-5.17,15.94-6.03,25.15,0,.1-.01.2-.02.3-.79,8.77-.54,18.29.75,28.55-5.47,5.35-11.16,10.67-17.06,15.95Z"/></g><path class="cls-57" d="m1179.58,1830.76c-12.09,6.98-31.88,6.98-43.97,0l-613.39-354.17c-5.86-3.38-8.88-7.8-9.06-12.26v-33.44c0,4.6,3.02,9.2,9.06,12.69l6.59,3.81,1600.54-198.03,6.59-3.81c5.86-3.38,8.88-7.8,9.06-12.26v32.57c0,4.6-3.02,9.21-9.06,12.69"/><path class="cls-52" d="m1157.59,1800.27c-7.86,0-15.18-1.73-20.63-4.87l-613.39-354.17c-4.97-2.87-7.71-6.55-7.71-10.34s2.74-7.47,7.71-10.34l956.36-552.2c5.44-3.14,12.77-4.87,20.63-4.87s15.18,1.73,20.63,4.87l613.39,354.17c4.79,2.76,7.53,6.3,7.71,9.97v.74c-.18,3.67-2.91,7.21-7.7,9.97l-956.36,552.2c-5.44,3.14-12.77,4.87-20.63,4.87Z"/><path class="cls-14" d="m1500.56,866.19c7.28,0,14.31,1.64,19.27,4.51l613.4,354.17c3.88,2.23,6.18,5.03,6.34,7.69v.6c-.16,2.65-2.47,5.45-6.35,7.69l-6.59,3.81-949.77,548.39c-4.96,2.86-11.98,4.51-19.27,4.51s-14.3-1.64-19.27-4.51l-606.8-350.36-6.59-3.81c-4.04-2.33-6.35-5.25-6.35-7.99s2.31-5.65,6.35-7.99l956.36-552.2c4.96-2.86,11.98-4.51,19.27-4.51m0-5.44c-7.97,0-15.94,1.75-21.99,5.24l-956.36,552.2c-6.04,3.49-9.06,8.09-9.06,12.69s3.02,9.2,9.06,12.69l6.59,3.81,606.8,350.36c6.05,3.49,14.02,5.24,21.99,5.24s15.94-1.75,21.99-5.24l949.77-548.39,6.59-3.81c5.86-3.38,8.88-7.8,9.06-12.26v-.86c-.19-4.46-3.21-8.89-9.06-12.26l-613.39-354.17c-6.05-3.49-14.02-5.24-21.99-5.24h0Z"/><path class="cls-36" d="m1500.56,863.47c7.86,0,15.18,1.73,20.63,4.87l613.4,354.17c4.79,2.76,7.52,6.3,7.7,9.97v.74c-.18,3.67-2.91,7.2-7.7,9.97l-6.59,3.81-949.77,548.39c-5.44,3.14-12.77,4.87-20.63,4.87s-15.18-1.73-20.63-4.87l-606.8-350.36-6.59-3.81c-4.97-2.87-7.71-6.55-7.71-10.34s2.74-7.47,7.7-10.34l956.36-552.2c5.44-3.14,12.77-4.87,20.63-4.87m0-2.72c-7.97,0-15.94,1.75-21.99,5.24l-956.36,552.2c-6.04,3.49-9.06,8.09-9.06,12.69s3.02,9.2,9.06,12.69l6.59,3.81,606.8,350.36c6.05,3.49,14.02,5.24,21.99,5.24s15.94-1.75,21.99-5.24l949.77-548.39,6.59-3.81c5.86-3.38,8.88-7.8,9.06-12.26v-.86c-.19-4.46-3.21-8.89-9.06-12.26l-613.39-354.17c-6.05-3.49-14.02-5.24-21.99-5.24h0Z"/></g><g id="Coffe_cup-Teal"><g class="cls-84"><ellipse class="cls-65" cx="1040.51" cy="1354.36" rx="335.61" ry="208.65" transform="translate(-9.94 7.7) rotate(-.42)"/><path class="cls-72" d="m84.81,1330.99c-.49,88.6,114.26,160.42,256.28,160.36l672.93.06c15.53,0,30.74-.88,45.51-2.51,30.01-3.44,59.74-10.05,87.92-20.76,228.89-90.07,115.25-299.37-131.81-297.56-8.66.62-670.98-.52-679.48.06-8.87.17-17.56.58-26.14,1.23-32.49,2.61-64.81,9.05-95.36,19.94-62.07,22.3-128.27,68.21-129.85,139.19Z"/></g><g id="asa"><g class="cls-79"><path class="cls-53" d="m1278.83,947.34c-33.72,58.41-67.45,116.82-101.17,175.23,0,0-.18-.1-.55-.3l101.17-175.23c.37.21.54.31.55.3Z"/><path class="cls-53" d="m1386.83,884.36c-8-4.56-17.46-6.01-27.76-4.42-.17-.09-.35-.19-.55-.31-.19-.11-.39-.22-.58-.33l-5.95-3.46c2.14,1.22,4.11,2.66,5.92,4.29h0c-1.8-1.64-3.78-3.07-5.92-4.29-3.54-2.12-5.04-3.56-5.61-4.1.41.45.46.53.93,1.23.28.41.63.99.88,1.42.77,1.38,1.75,3.25,2.29,4.73.28.75.62,1.64.93,2.52-6.12,1.76-12.46,4.5-18.93,8.24-20.49,11.83-39.76,32.15-54.2,57.17.37.21.54.31.55.3,2.87-4.98,5.74-9.47,9.03-14.13,4.21-5.97,7.72-10.18,9.99-12.83,6.85-7.99,14.48-15.25,22.06-20.98,2.71-2.05,6.48-4.78,11.58-7.73,1.94-1.12,3.88-2.15,5.76-3.07,3.24-1.58,5.64-2.49,5.74-2.53,1.27-.48,3.64-1.38,5.42-1.87,1.04-.29,2.34-.62,3.53-.91.7,2.69,1.54,6.27,1.98,9,.14.88.86,5.61.87,12.43,0,5.67-.53,10.74-.84,13.26-.25,1.99-.91,7.26-2.57,14.26-1.61,6.78-3.41,12.25-4.34,14.9-1.63,4.65-4.06,10.75-6.11,15.23-1.07,2.32-2.55,5.39-3.73,7.66-1.2,2.32-2.92,5.34-4.17,7.62,0,0,.27.17.79.47-.52-.31-.79-.47-.79-.47-33.72,58.41-67.45,116.82-101.17,175.23-2.87,4.98-5.74,9.47-9.03,14.13-4.42,6.27-7.9,10.38-9.98,12.83-1.46,1.73-5.44,6.29-10.74,11.33-3.73,3.55-7.54,6.8-11.32,9.66-2.5,1.89-6.41,4.74-11.58,7.73-1.94,1.12-3.88,2.15-5.76,3.07-3.24,1.58-5.64,2.49-5.74,2.53-1.18.45-3.63,1.38-5.42,1.87-1.05.29-2.36.63-3.55.91-.31-1.07-.63-2.21-.88-3.14-.41-1.57-.8-3.85-1.07-5.49-.04-.27-.44-2.76-.68-6.09-.15-2.11-.23-4.28-.24-6.46,0-1.7-.01-6.87.87-13.83.43-3.39,1.12-8.11,2.67-14.53.45-1.86,1.81-7.5,4.42-14.92,1.16-3.29,3.05-8.43,6.1-15.03,1.17-2.52,2.4-5.04,3.66-7.48q1.29-2.49,4.05-7.4s-.18-.1-.55-.3c-14.44,25.01-22.37,51.8-22.3,75.34.02,7.15.78,13.75,2.23,19.7-.65.12-1.38.24-1.97.33-2.62.44-6.84.63-9.08.17,1.07.28,2.55.93,2.57.94,1.63.73,2.18,1.02,3.66,1.84.18.1.36.2.53.31l5.96,3.46c.16.1.38.23.63.38,3.81,9.97,9.94,17.58,18.13,22.24,14.53,8.29,33.86,6.33,54.35-5.5,20.49-11.83,39.76-32.16,54.2-57.17,0,0,101.17-175.23,101.17-175.23,29.84-51.69,29.68-107.6-.35-124.73Z"/><path class="cls-13" d="m1399.93,861.68c37.29,21.23,37.48,90.78.44,154.93-33.72,58.41-67.45,116.82-101.17,175.23-17.96,31.1-41.85,56.3-67.32,71.01-25.48,14.71-49.43,17.13-67.5,6.84-18.07-10.31-28.06-32.07-28.14-61.34-.08-29.28,9.75-62.48,27.7-93.59,33.72-58.41,67.45-116.82,101.17-175.23,17.96-31.1,41.85-56.3,67.32-71.01,25.48-14.71,49.43-17.13,67.51-6.83Zm-12.74,147.41c29.84-51.69,29.68-107.6-.35-124.73-14.54-8.28-33.86-6.33-54.35,5.51-20.49,11.83-39.76,32.15-54.2,57.17-33.72,58.41-67.45,116.82-101.17,175.23-14.44,25.01-22.37,51.8-22.3,75.34.07,23.54,8.12,41.1,22.66,49.38,14.53,8.29,33.86,6.33,54.35-5.5,20.49-11.83,39.76-32.16,54.2-57.17,33.72-58.41,67.44-116.82,101.17-175.23"/><path class="cls-71" d="m1428.74,912.13c-1.27-31.08-20.48-58.53-47.56-73.08.82.48,1.63.97,2.41,1.46-67.17-45.88-128.73-.15-166.98,58.26h0c-36.15,61.16-71.09,123.1-106.82,184.53-13.93,24.96-22.72,46.42-27.07,77.12-7.24,54.31,16.05,88.7,64.73,110.26,62.99,28.99,122.77-27.14,152.3-78.53-.1-.05-.28-.16-.44-.25,34.04-56.01,67.93-117.66,101.61-174.99h0c20.07-37.01,29.25-64.67,27.83-104.78Zm-28.37,104.48h0l-101.17,175.23h0c-17.96,31.1-41.85,56.3-67.32,71.01-25.48,14.71-49.43,17.13-67.5,6.84-18.07-10.31-28.06-32.07-28.14-61.34-.08-29.28,9.75-62.48,27.7-93.59l101.17-175.23c17.96-31.1,41.85-56.3,67.32-71.01,25.48-14.71,49.43-17.13,67.51-6.83h0c37.29,21.23,37.48,90.78.44,154.93Z"/></g></g><path class="cls-46" d="m1409.46,933.76c0-.73-.01-1.46-.03-2.18-.03-1.33-.09-2.64-.18-3.94-.05-.72-.1-1.43-.17-2.14-.24-2.68-.6-5.28-1.08-7.79-.12-.63-.25-1.25-.38-1.87-.93-4.31-2.23-8.35-3.88-12.05-.6-1.35-1.26-2.65-1.95-3.9-.23-.42-.47-.83-.71-1.24-.36-.6-.72-1.19-1.1-1.76-.77-1.16-1.58-2.28-2.43-3.34-.44-.55-.9-1.08-1.37-1.6-.55-.61-1.11-1.21-1.69-1.78-2.29-2.25-4.84-4.2-7.66-5.8,0,0,0,0,0,0-.48-.27-.96-.53-1.44-.78-.16-.08-.31-.15-.47-.23-.34-.17-.68-.33-1.02-.49-.18-.08-.37-.16-.55-.24-.32-.14-.65-.28-.97-.41-.19-.08-.38-.15-.57-.22-.33-.13-.66-.25-.99-.37-.19-.07-.38-.13-.57-.2-.34-.12-.69-.23-1.04-.33-.18-.05-.36-.11-.54-.16-.37-.11-.74-.21-1.12-.3-.16-.04-.32-.08-.49-.12-.41-.1-.83-.19-1.24-.28-.13-.03-.25-.06-.38-.08-.49-.1-.98-.19-1.48-.27-.06,0-.11-.02-.17-.03-2.9-.45-5.9-.61-9-.47,0,0,0,0,0,0-.61.03-1.23.07-1.85.12-.02,0-.03,0-.05,0-.61.05-1.23.11-1.84.18-.02,0-.03,0-.05,0-.63.07-1.26.16-1.9.26-2.51.39-5.06.95-7.66,1.69-.75.21-1.49.44-2.25.69-.08.03-.16.05-.24.08-.64.21-1.27.43-1.91.66-.17.06-.35.13-.52.19-.57.21-1.15.43-1.72.65-.17.07-.34.13-.51.2-.72.29-1.44.58-2.16.9,0,0-.02,0-.03.01-.74.32-1.48.66-2.23,1.01-.18.08-.36.17-.55.26-.55.26-1.1.53-1.65.81-.24.12-.48.24-.72.36-.52.27-1.05.54-1.57.82-.22.12-.45.24-.67.36-.73.4-1.47.81-2.2,1.23,0,0,0,0,0,0-5.12,2.96-10.17,6.44-15.08,10.4-.61.49-1.23,1-1.84,1.51-4.88,4.08-9.62,8.62-14.16,13.56-.57.62-1.13,1.24-1.69,1.87-4.72,5.3-9.22,11.05-13.43,17.16-.97,1.42-1.93,2.85-2.88,4.3-.62.95-1.22,1.91-1.82,2.87-1.12,1.8-2.22,3.63-3.3,5.49.37.21.54.31.55.3,2.87-4.98,5.74-9.47,9.03-14.13,4.21-5.97,7.72-10.18,9.99-12.83,6.85-7.99,14.48-15.25,22.06-20.98,2.71-2.05,6.48-4.78,11.58-7.73,1.94-1.12,3.88-2.15,5.76-3.07,3.24-1.58,5.64-2.49,5.74-2.53,1.27-.48,3.64-1.38,5.42-1.87,1.04-.29,2.34-.62,3.53-.91.7,2.69,1.54,6.27,1.98,9,.14.88.86,5.61.87,12.43,0,5.67-.53,10.74-.84,13.26-.25,1.99-.91,7.26-2.57,14.26-1.61,6.78-3.41,12.25-4.34,14.9-1.63,4.65-4.06,10.75-6.11,15.23-1.07,2.32-2.55,5.39-3.73,7.66-1.2,2.32-2.92,5.34-4.17,7.62,0,0,.27.17.79.47-.52-.31-.79-.47-.79-.47-33.72,58.41-67.45,116.82-101.17,175.23-2.87,4.98-5.74,9.47-9.03,14.13-4.42,6.27-7.9,10.38-9.98,12.83-1.46,1.73-5.44,6.29-10.74,11.33-3.73,3.55-7.54,6.8-11.32,9.66-2.5,1.89-6.42,4.74-11.58,7.73-1.94,1.12-3.88,2.15-5.76,3.07-3.24,1.58-5.64,2.49-5.74,2.53-1.18.45-3.63,1.38-5.42,1.87-1.05.29-2.36.63-3.55.91-.31-1.07-.63-2.21-.88-3.14-.41-1.57-.8-3.85-1.07-5.49-.04-.27-.44-2.76-.68-6.09-.15-2.11-.23-4.28-.24-6.46,0-1.7-.01-6.87.87-13.83.43-3.39,1.12-8.11,2.67-14.53.45-1.86,1.81-7.5,4.42-14.92,1.16-3.29,3.05-8.43,6.1-15.03,1.17-2.52,2.4-5.04,3.66-7.48q1.29-2.49,4.05-7.4s-.18-.1-.55-.3c-14.44,25.01-22.37,51.8-22.3,75.34,0,.83.02,1.65.04,2.46,0,.24.02.47.03.71.02.59.04,1.17.07,1.75.01.25.03.5.04.75.04.59.08,1.17.12,1.75.02.2.03.41.05.61.06.73.14,1.46.22,2.18,0,.04,0,.07.01.11.18,1.62.41,3.2.69,4.75,0,.05.02.09.03.14.13.72.27,1.43.41,2.14.01.06.02.12.04.18.15.73.32,1.46.49,2.18h0c.63,2.6,1.4,5.08,2.29,7.43h0c.23.61.47,1.2.72,1.79.05.12.1.23.15.34.2.46.4.91.6,1.36.08.18.17.35.25.52.18.38.36.75.55,1.12.1.19.2.38.3.57.18.35.37.69.56,1.03.11.19.22.39.33.58.19.33.38.66.58.98.11.19.23.38.34.56.21.33.42.65.63.97.11.17.22.34.34.51.23.34.47.68.72,1.01.1.14.19.27.3.41.69.93,1.42,1.82,2.17,2.67.11.12.21.23.32.35.27.3.55.6.83.89.14.15.29.29.43.44.25.25.5.5.76.75.16.15.32.3.49.45.25.23.5.46.76.68.17.15.34.3.52.44.26.22.52.43.78.64.18.14.35.28.53.42.27.21.55.41.83.61.17.13.35.25.52.38.31.21.62.42.94.63.15.1.3.2.45.3.47.3.95.59,1.43.86,1.36.78,2.77,1.46,4.21,2.06.96.4,1.94.76,2.94,1.08,1,.32,2.01.6,3.04.84,2.57.6,5.24.95,7.99,1.05.55.02,1.1.03,1.66.03,2.79,0,5.65-.24,8.59-.73,4.11-.68,8.35-1.85,12.68-3.48,4.33-1.64,8.76-3.76,13.24-6.34,1.92-1.11,3.83-2.29,5.73-3.55,1.26-.84,2.52-1.71,3.77-2.6,2.5-1.8,4.98-3.72,7.42-5.76.61-.51,1.22-1.03,1.82-1.55,8.92-7.72,17.34-16.99,24.91-27.43.29-.4.58-.8.86-1.2.71-1,1.41-2.01,2.11-3.02,2.65-3.88,5.18-7.9,7.58-12.05,33.72-58.41,67.44-116.82,101.17-175.23,6.85-11.86,12.11-23.94,15.8-35.73.15-.49.31-.99.46-1.48.34-1.14.67-2.27.99-3.4.12-.44.24-.87.36-1.3.32-1.18.62-2.36.9-3.53,1.2-4.93,2.11-9.77,2.74-14.5.1-.76.19-1.51.28-2.26.51-4.5.77-8.89.75-13.12Z"/><path class="cls-66" d="m1409.46,933.76c1.14-37.57-25-65.36-62.97-50.52-29.71,11.45-52.27,36.65-68.21,63.79,18.11-26.81,40.43-55.32,73.65-63.75,5.82,18.44,1.83,45.38-4.9,63.84-2.67,7.6-6.13,15.75-9.84,22.88-.37,1.72-5.33,7.54-3.37,8.1-.52-.31-.79-.47-.79-.47-40.58,66.29-75.32,139.07-120.18,202.2-12.19,14.58-33.72,32.69-54.12,37.1-8.18-30.88,2.17-64.46,18.92-94.36,0,0-.18-.1-.55-.3-17.76,32.17-26.68,62.76-20.07,95.05h0c5.95,29.45,34.52,42.09,61.53,30.52,23.88-9.45,42.5-27.36,57.76-48.44,38.6-62.38,73.57-127.1,110.86-190.31,6.84-11.86,12.11-23.94,15.8-35.73,4.01-12.79,6.51-26.38,6.48-39.6Z"/><path class="cls-13" d="m1317.2,931.45c-38.36-81.64-183.87-130.34-324.99-108.78-118.66,18.13-196.44,80.14-195.4,147.96,0,.03,0,.07,0,.11,0,.05,0,.12,0,.19.02.16.03.37.04.63.03.31.05.68.08,1.12.02.16.02.32.03.5.03.35.05.74.08,1.16.1,1.46.23,3.33.39,5.56v.02c1.19,9.82,4.06,19.72,8.7,29.6,12.73,27.1,37.27,50.57,69.53,69.03,0,0,.02.02.03.02,64.94,37.18,161.16,54.13,255.44,39.73,45.77-7,85.45-20.52,116.88-38.38,45.87-26.07,74.14-61.4,78.05-99.18,0-.03,0-.06,0-.09.16-2.17.29-4.02.4-5.53,0-.07,0-.13,0-.19.53-14.31-2.44-28.93-9.28-43.48Zm-21.24,65.04c-18.29,47.09-82.02,86.81-171.38,99.97-127.68,18.79-259.34-23.76-294.06-95.05-1.15-2.36-2.17-4.71-3.08-7.06-26.62-68.99,47.92-137.86,171.38-156.03,127.68-18.79,259.33,23.76,294.06,95.04,10.42,21.4,10.93,42.94,3.08,63.14Z"/><path class="cls-1" d="m1317.2,931.45c-38.36-81.64-183.87-130.34-324.99-108.78-118.66,18.13-196.44,80.14-195.4,147.96,0,.03,0,.07,0,.11,0,.05,0,.12,0,.19.02.16.03.37.04.63.03.31.05.68.08,1.12.02.16.02.32.03.5.03.35.05.74.08,1.16.1,1.46.23,3.33.39,5.56v.02c1.19,9.82,4.06,19.72,8.7,29.6,12.73,27.1,37.27,50.57,69.53,69.03,0,0,.02.02.03.02,64.94,37.18,161.16,54.13,255.44,39.73,45.77-7,85.45-20.52,116.88-38.38,45.87-26.07,74.14-61.4,78.05-99.18,0-.03,0-.06,0-.09.16-2.17.29-4.02.4-5.53,0-.07,0-.13,0-.19.53-14.31-2.44-28.93-9.28-43.48Zm-21.24,65.04c-18.29,47.09-82.02,86.81-171.38,99.97-127.68,18.79-259.34-23.76-294.06-95.05-1.15-2.36-2.17-4.71-3.08-7.06-26.62-68.99,47.92-137.86,171.38-156.03,127.68-18.79,259.33,23.76,294.06,95.04,10.42,21.4,10.93,42.94,3.08,63.14Z"/><path class="cls-13" d="m1325.98,980.73c-3.97,55.63-25,321.72-68.76,403.29-.02.04-.04.08-.06.12-18.83,38.25-70.98,69.88-142.43,80.8-101.01,15.42-204.95-16-242.51-71.09,0,0,0-.02-.02-.03-48.09-67.46-70.84-357.73-74.84-413.91,1.19,9.82,4.06,19.72,8.7,29.6,12.73,27.1,37.27,50.57,69.53,69.03,0,0,.02.02.03.02,64.94,37.18,161.16,54.13,255.44,39.73,45.77-7,85.45-20.52,116.88-38.38,45.87-26.07,74.14-61.4,78.05-99.18Z"/><path class="cls-63" d="m1325.98,980.73c-3.97,55.63-25,321.72-68.76,403.29-.02.04-.04.08-.06.12-18.83,38.25-70.98,69.88-142.43,80.8-101.01,15.42-204.95-16-242.51-71.09,0,0,0-.02-.02-.03-48.09-67.46-70.84-357.73-74.84-413.91,1.19,9.82,4.06,19.72,8.7,29.6,12.73,27.1,37.27,50.57,69.53,69.03,0,0,.02.02.03.02,64.94,37.18,161.16,54.13,255.44,39.73,45.77-7,85.45-20.52,116.88-38.38,45.87-26.07,74.14-61.4,78.05-99.18Z"/><path class="cls-39" d="m1325.98,980.73c-3.97,55.63-25,321.72-68.76,403.29-.02.04-.04.08-.06.12-18.83,38.25-70.98,69.88-142.43,80.8-101.01,15.42-204.95-16-242.51-71.09,0,0,0-.02-.02-.03-48.09-67.46-70.84-357.73-74.84-413.91,1.19,9.82,4.06,19.72,8.7,29.6,12.73,27.1,37.27,50.57,69.53,69.03,0,0,.02.02.03.02,64.94,37.18,161.16,54.13,255.44,39.73,45.77-7,85.45-20.52,116.88-38.38,45.87-26.07,74.14-61.4,78.05-99.18Z"/><path class="cls-23" d="m796.74,970.74c.06.89.26,4.06.63,9.16-.37-3.06-.58-6.12-.63-9.16Z"/><path class="cls-53" d="m1295.88,996.49c-.61-9.89-3.26-19.9-8.13-29.88-33.97-69.73-162.74-111.35-287.63-92.97-101.6,14.96-169.33,65.01-172.76,120.7-26.62-68.99,47.92-137.86,171.38-156.03,127.68-18.79,259.33,23.76,294.06,95.04,10.42,21.4,10.93,42.94,3.08,63.14Z"/><path class="cls-64" d="m1295.88,996.49c-.61-9.89-3.26-19.9-8.13-29.88-33.97-69.73-162.74-111.35-287.63-92.97-101.6,14.96-169.33,65.01-172.76,120.7-26.62-68.99,47.92-137.86,171.38-156.03,127.68-18.79,259.33,23.76,294.06,95.04,10.42,21.4,10.93,42.94,3.08,63.14Z"/><g id="CoffeeGrayscale"><path class="cls-22" d="m1295.88,996.49c-18.29,47.09-82.02,86.81-171.38,99.97-127.68,18.79-259.34-23.76-294.06-95.05-1.15-2.36-2.17-4.71-3.08-7.06,3.43-55.7,71.16-105.75,172.76-120.7,124.89-18.38,253.66,23.24,287.63,92.97,4.87,9.98,7.52,19.99,8.13,29.88Z"/><path class="cls-60" d="m1295.88,996.49c-18.29,47.09-82.02,86.81-171.38,99.97-127.68,18.79-259.34-23.76-294.06-95.05-1.15-2.36-2.17-4.71-3.08-7.06,3.43-55.7,71.16-105.75,172.76-120.7,124.89-18.38,253.66,23.24,287.63,92.97,4.87,9.98,7.52,19.99,8.13,29.88Z"/><path class="cls-24" d="m1287.75,966.61c-33.97-69.73-162.74-111.35-287.63-92.97-8.11,1.19-16,2.61-23.67,4.24,75.22-7.72,155.81,5.3,214.21,39.02,60.81,35.11,82.76,84.1,65.76,129.03,18.99-14.71,32.51-31.54,39.46-49.44-.61-9.89-3.26-19.9-8.13-29.88Z"/></g><g id="Coffe_smoke"><path id="Color" class="cls-40" d="m1186.79,892.88c-3.29-67.1-66.39-70.91-64.03-123.67,1.08-34.82,38.87-54.11,43.89-88.28,1.97-9.77,1.36-20.23-1.31-29.71,0,0-3.22-11.46-3.22-11.46-.41-1.46-2.54-1.24-2.65.27-2.01,21.29-5.9,41.68-19.94,58.13-19.08,21.67-42.41,45.45-42.04,76.62-.61,16.72,4.37,33.47,12.23,48.11,8.73,15.67,22.25,27.47,30.88,42.24,12.01,20.63,13.15,47.25,5.02,69.45-13.46,32.53-49.54,55.59-46.98,94.37h2.8c1.27-3.91,2.53-8.08,4.21-11.8-.13,3.96,0,7.91.38,11.8,1.61-57.17,83.4-46.51,80.77-136.08Z"/><path class="cls-8" d="m1165.33,651.23c14.52,55.05-36.52,71.86-42.36,114.4-4.33,39.29,27.39,51.39,47.47,80.12,15.99,21.98,20.22,51.41,13.31,77.53-13.33,54.31-69.52,54.62-82.34,105.69h-2.8c-1.16-44.59,31.52-57.63,52.85-89.21,9.67-15.52,11.75-34.86,8.2-52.57-12.12-49.12-69.45-56.15-61.72-119.42,4.02-50.55,66.35-63.19,64.58-116.52h2.8Z"/><path class="cls-26" d="m1157.94,651.23c6.94,63.18-57.21,73.18-42.96,141.91,10.17,45.1,53.11,52.99,50.11,112.24-.2,57.45-56,68.04-59.07,123.58-7.02-60.83,53.61-72.68,43.94-136.01-5.65-45.83-51.56-57.81-51.14-111.15-3.15-65.02,55.12-71.44,59.13-130.57Z"/></g><g id="Coffe_smoke-2"><path class="cls-38" d="m1032.42,875.28c-5.05-21.7-17.02-40.99-26.91-60.56-15.92-30.47-17.73-65.86-12.22-99.19,9.82-47.44,46.63-76.52,42.18-130.3-.75-12.49-3.54-25-8.8-36.24-4.56-4.64-2.46,7.95-3.37,9.78,0,0,0,0,0-.01-5.54,84.04-61.12,102.59-60.71,188.87-.39,86.37,55.11,104.79,60.71,188.87,1.24-12.64,1.42-25.56-.24-38.24,3.3,12.46,4.54,25.34,4.83,38.24h2.8c5.91-19.67,6.67-41,1.72-61.2Z"/><path class="cls-54" d="m1030.7,558.75c9.43,29.94,4.99,63.17-9.16,90.95-9.69,19.98-22.33,39.11-27.12,60.79-5.02,22.57-5.01,46.47-1.16,69.22,4.19,23.73,17.64,44.36,28.23,65.86,14.16,27.79,18.6,61.05,9.21,90.91h-2.8c1.03-85.45-67.45-101.82-65.3-188.87-2.16-87.03,66.33-103.43,65.3-188.87h2.8Z"/><path class="cls-47" d="m1023.31,558.75c10.15,81.68-47.03,108.59-43.94,188.87-3.06,80.27,54.14,107.24,43.94,188.87-5.59-84.68-61.62-102.03-59.91-188.87-1.68-86.84,54.37-104.21,59.91-188.87Z"/></g></g><g id="man_reading"><g class="cls-78"><path class="cls-2" d="m1207.24,1415.82l36.43-109.73c-2.73-12.5-5.19-23.71-7.38-33.59-2.89-12.72-6.39-22.74-10.49-30.07-4.11-7.33-7.43-11.86-9.96-13.61-.02-.02-.05-.03-.07-.04-1.54-1.76-3.38-2.69-5.51-2.79,4.21-3.88,7.54-8.34,9.98-13.4l.43-1.52c.4-.27.82-.6,1.25-1.03,1.33-1.3,2.41-2.96,3.27-4.97.26-.62.46-1.21.63-1.78,8.27-5.14,10.08-12.15,5.42-21.01.04-.15.1-.29.14-.44,1.64-7.02-1-13.76-7.91-20.22.63,2.32.35,4.33-.82,6.04-.9,1.37-2.29,2.41-4.16,3.13-10.78-6.76-19.74-8.24-26.9-4.44-13.02,8.39-18.63,21.05-16.82,37.99l-8.03,5.18c.64,5.55,4.16,7.47,10.55,5.75l2.17-3.04v.08l-12.79,17.53c-1.69.34-3.37.7-5.04,1.09-.27.06-.54.13-.82.19-1.66.39-3.31.8-4.95,1.23-.23.06-.45.12-.68.18-.58.16-1.17.3-1.75.46,0,0,.02.02.02.03-12.77,3.54-25.09,8.4-36.95,14.61-.97.65-1.91,1.39-2.84,2.19-3.45,1.19-6.92,3.32-10.4,6.41-6.45,5.73-13.03,15.55-19.75,29.44-7.15,14.81-14.12,33.58-20.92,56.33,1.1.68,2.21,1.34,3.32,1.98-11.17,33.25-11.66,57.7-1.44,73.31.88,2.63,5.65,4.02,14.3,4.17-.05,2.27-.08,4.56-.12,6.88l-.11,4.22s.03,0,.05,0c-.06,5.14-.1,10.37-.11,15.72l8.58-1.26-1.43.29c9.4,45.72,23.45,37.3,28.22,43.16,24.85,30.52,75.69,22.23,78.19,21.38l5.85.2c26.84-4.75,26.12-20.86,47.48-38.77l-38.11-57.43Z"/></g><g class="cls-83"><path class="cls-49" d="m1362.89,1568.58h-190.62s-81.55-48.79-13.11-48.79,201.1,7.55,201.1,7.55l2.64,41.24Z"/></g><g class="cls-85"><g class="cls-82"><path class="cls-5" d="m1506.13,1491.88c0,33.69-151.82,69.07-261.9,69.07s-199.32-27.31-199.32-61,89.24-61,199.32-61,219.88,32,261.9,52.93Z"/></g></g><g class="cls-86"><path class="cls-29" d="m1483.79,1504.85h-190.62s-81.55-33.39-13.11-33.39,206.59,11.76,206.59,11.76l-2.86,21.63Z"/></g><g id="man_reading_0_Layer0_0_FILL"><path class="cls-22" d="m1443.48,1487.6l-6.1,1.52c-.36,2.44-.57,4.51-.64,6.21,2.73,1.8,17.83,2.64,45.3,2.52,10.97-.89,19-2.88,24.09-5.98-15-8.56-28.93-13.79-41.79-15.71l-20.86,11.43Z"/><path class="cls-22" d="m1436.74,1495.34c-.06,1.14-.06,2.12,0,2.93.23,2.81,1.09,4.36,2.58,4.63,5.51,1.21,13.13,1.86,22.86,1.93,11.53.16,21.76-.61,30.71-2.29,13.68-2.77,18.09-6.33,13.25-10.67-5.09,3.1-13.12,5.09-24.09,5.98-27.48.12-42.58-.72-45.3-2.52Z"/></g><g id="man_reading_0_Layer0_1_FILL"><path class="cls-27" d="m1279.2,1318.87v-.06l-7.85-42.2-30.65,37.45c.84,18.25,2.93,33.1,6.27,44.54,1.3,4.36,2.77,8.23,4.4,11.6.63,1.24,1.28,2.41,1.93,3.52,2.67,4.51,5.76,7.91,9.26,10.2l26.26-13.6-9.61-51.46Z"/></g><g id="man_reading_0_Layer0_2_FILL"><path class="cls-53" d="m1251.89,1221.87c-2.49-1.76-4.99-2.62-7.5-2.58-2.51.05-7.77.46-15.77,1.23-8.01.78-12.91,4.76-14.71,11.96-2.19,8.44-2.15,20.49.12,36.16,2.38,16.68,7.13,36.67,14.24,59.96,19.69-.27,37.65-5.55,53.86-15.82-3.71-17.54-6.97-32.86-9.79-45.95-2.89-13.09-6.39-23.4-10.49-30.95-4.11-7.54-7.43-12.21-9.96-14.01Z"/></g><g id="man_reading_0_Layer0_3_FILL"><path class="cls-22" d="m1257.57,1260.79c1.01-27.79-2.84-41.74-11.55-41.85-33.79-.53-64.95,6.89-93.48,22.27-25.13,17.45-37.81,86.27-38.04,206.48l49.58-7.5,65.88-27.31c16.8-57.07,26-107.77,27.6-152.09Z"/></g><g id="man_reading_0_Layer0_4_FILL"><path class="cls-16" d="m1432.7,1484.38c-.88,5.95.82,9.59,5.1,10.9,23.57-6.39,35.32-12.5,35.22-18.34.68-2.03-2.29-4.03-8.91-5.98-19.66-79.91-39.86-135.34-60.6-166.27-18.29-15.64-74.41,13.82-168.38,88.38l-29.83,114.58c28.14-5.13,54.59-17.44,79.36-36.92,34.85-28.68,63.86-61.78,87.03-99.28,13.62,33.35,33.95,70.99,61.01,112.94Z"/></g><g id="man_reading_0_Layer0_4_FILL-2"><path class="cls-69" d="m1432.7,1484.38c-.88,5.95.82,9.59,5.1,10.9,23.57-6.39,35.32-12.5,35.22-18.34.68-2.03-2.29-4.03-8.91-5.98-19.66-79.91-47.42-121.74-68.16-152.67-18.29-15.64-66.85.23-160.82,74.78l-29.83,114.58c28.14-5.13,54.59-17.44,79.36-36.92,34.85-28.68,63.86-61.78,87.03-99.28,13.62,33.35,33.95,70.99,61.01,112.94Z"/></g><g id="man_reading_0_Layer0_5_FILL"><path class="cls-17" d="m1137.49,1289.8v64.41l-22.21,49.52-.7,27.78c25.2.39,63.66-5.83,115.4-18.64l-25.85-14.65-63.18-4.92c16.69-15.49,28.95-52.8,36.81-111.94l-40.26,8.44Z"/></g><g id="man_reading_0_Layer0_6_FILL"><path class="cls-27" d="m1165.33,1258.32l-30.42,8.21c-39.48,73.51-50.94,123.27-34.4,149.28,3.14,9.68,55.97,3.02,158.48-19.99v-17.29c-62.63-3.42-101.89-3.63-117.8-.64l17.17-47.24,6.97-72.32Z"/></g><g id="man_reading_0_Layer0_7_FILL"><path class="cls-22" d="m1319.41,1544.1c-.42,1.6-.12,3.46.88,5.57,13.07,10.28,28.98,16.47,47.71,18.58,15.96.63,22.33-1.91,19.11-7.62-14.02,1.99-36.59-3.52-67.69-16.53Z"/><path class="cls-22" d="m1352.58,1532.38l-23.38,4.1-8.91,5.74c-.42.58-.71,1.2-.88,1.88,31.11,13.01,53.67,18.52,67.69,16.53-11.51-12.9-23.01-22.32-34.52-28.25Z"/></g><g id="man_reading_0_Layer0_8_FILL"><path class="cls-53" d="m1177.87,1280.36c.93-7.74.24-14.19-2.05-19.34-2.26-5.16-4.86-9.59-7.79-13.3-2.89-3.71-7.04-5.51-12.42-5.39-5.39.15-10.82,2.73-16.29,7.74-6.45,5.9-13.03,16-19.75,30.3-7.15,15.24-14.12,34.56-20.92,57.96,16.59,10.6,34.48,16.03,53.69,16.29,6.51-16.67,12.16-31.28,16.94-43.84,4.82-12.51,7.69-22.65,8.62-30.42Z"/></g><g id="man_reading_0_Layer0_9_FILL"><path class="cls-27" d="m1195.68,1236.76c13.75,29.68,24.17,40.29,31.24,31.82,7.51-8.97,8.66-25.42,3.46-49.35-14.12.86-27.76,3.17-40.91,6.92,2.16,2.75,4.23,6.29,6.21,10.61Z"/></g><g id="man_reading_0_Layer0_10_FILL"><path class="cls-61" d="m1248.02,1182.54l10.37,15c13.14-6.35,14.96-16.06,5.45-29.13l-15.82,14.12Z"/></g><g id="man_reading_0_Layer0_11_FILL"><path class="cls-27" d="m1263.85,1168.42l-19.69-3.11c-13.03-3.19-22.58,2.42-28.66,16.82v22.74l-18.11,25.55,21.16,15.06,16.47-26.49c4,2.71,6.66,3.66,7.97,2.87,5.82-4.62,10.25-10.19,13.3-16.7l2.11-7.62c2.6-2.14,4.54-4.96,5.8-8.44,1.49-6.58,1.38-13.48-.35-20.69Z"/></g><g id="man_reading_0_Layer0_12_FILL"><path class="cls-22" d="m1259.51,1152.71c.63,2.38.35,4.45-.82,6.21-.9,1.41-2.29,2.48-4.16,3.22-10.78-6.96-19.74-8.48-26.9-4.57-13.02,8.63-18.63,21.66-16.82,39.09l-8.03,5.33c.64,5.72,4.16,7.69,10.55,5.92l9.55-13.77c-4.1-7.87-4.1-13.36,0-16.47,1.36-.48,2.57,3.76,3.63,12.72,3.58,0,5.94-3.01,7.09-9.03,4.11-1.35,4.91-3.81,2.4-7.38,6.84,7.35,14.14,10.63,21.92,9.85,2.03-.16,3.93-1.17,5.68-3.05,1.88-1.99,3.15-4.42,3.81-7.27,1.64-7.23-1-14.16-7.91-20.81Z"/></g><g id="man_reading_0_Layer0_12_FILL-2"><path class="cls-28" d="m1259.51,1152.71c.63,2.38.35,4.45-.82,6.21-.9,1.41-2.29,2.48-4.16,3.22-10.78-6.96-19.74-8.48-26.9-4.57-13.02,8.63-18.63,21.66-16.82,39.09l-8.03,5.33c.64,5.72,4.16,7.69,10.55,5.92l9.55-13.77c-4.1-7.87-4.1-13.36,0-16.47,1.36-.48,2.57,3.76,3.63,12.72,3.58,0,5.94-3.01,7.09-9.03,4.11-1.35,4.91-3.81,2.4-7.38,6.84,7.35,14.14,10.63,21.92,9.85,2.03-.16,3.93-1.17,5.68-3.05,1.88-1.99,3.15-4.42,3.81-7.27,1.64-7.23-1-14.16-7.91-20.81Z"/></g><g class="cls-80"><g id="man_reading_0_Layer0_13_FILL"><path class="cls-81" d="m1250.46,1190.06c-.13-1.69-.74-2.63-1.82-2.83-1.09-.19-2.34.42-3.74,1.84-1.41,1.42-2.57,3.23-3.47,5.43-.9,2.2-1.29,4.15-1.16,5.84s.74,2.63,1.82,2.83c1.09.19,2.34-.42,3.74-1.84,1.41-1.42,2.57-3.23,3.47-5.43.9-2.2,1.29-4.15,1.16-5.84Z"/></g></g><path id="man_reading_0_Layer0_13_1_STROKES" class="cls-75" d="m1250.42,1190.05c.13,1.69-.26,3.64-1.16,5.84-.9,2.2-2.06,4.01-3.47,5.43s-2.66,2.03-3.74,1.84c-1.09-.19-1.7-1.13-1.82-2.83-.13-1.69.26-3.64,1.16-5.84.9-2.2,2.06-4.01,3.47-5.43,1.41-1.42,2.66-2.03,3.74-1.84,1.09.19,1.7,1.13,1.82,2.83Z"/><g class="cls-80"><g id="man_reading_0_Layer0_14_FILL"><path class="cls-21" d="m1262.33,1191.93c-.12-1.59-.69-2.48-1.72-2.66-1.02-.18-2.2.4-3.52,1.73s-2.41,3.04-3.27,5.11c-.85,2.07-1.22,3.9-1.1,5.5s.69,2.48,1.72,2.66c1.02.18,2.2-.4,3.52-1.73,1.33-1.34,2.41-3.04,3.27-5.11.85-2.07,1.22-3.9,1.1-5.5Z"/></g></g><path id="man_reading_0_Layer0_14_1_STROKES" class="cls-76" d="m1262.32,1191.92c.12,1.59-.24,3.42-1.1,5.5s-1.94,3.78-3.27,5.11c-1.33,1.34-2.5,1.92-3.52,1.73s-1.6-1.07-1.72-2.66c-.12-1.59.24-3.42,1.1-5.5.85-2.07,1.94-3.78,3.27-5.11,1.33-1.34,2.5-1.92,3.52-1.73,1.02.18,1.6,1.07,1.72,2.66Z"/><g id="man_reading_0_Layer0_15_FILL"><path class="cls-37" d="m1241.81,1221.93c-5.92-3.99-10.26-8.47-13.01-13.42l3.87,14.77,2.4-3.99c3.6,2.52,5.85,3.4,6.74,2.64Z"/></g><g id="man_reading_0_Layer0_16_FILL"><path class="cls-37" d="m1221.65,1245.72c1.32-.06,2-1.36,2.05-3.93l9.87-20.36-14.33,22.65c.29,1.16,1.09,1.71,2.4,1.64Z"/></g><g id="book_0_Layer0_0_FILL"><path class="cls-15" d="m1307.51,1359.54l33.58-62.01-64.18,23.27-32.59,68.86,8.91,1.88,54.27-32m49.23-62.83l-26.9,49.7,11.37-15.71c10.71-14.77,19.74-23.51,27.08-26.2l27.66-50.99-38.21,41.32-1,1.88Z"/><path class="cls-59" d="m1276.92,1320.8l-2.4-2.52-33.41,70.68,3.22.7,32.59-68.86Z"/><path class="cls-33" d="m1274.51,1318.28l1.29-.47c-2.66-2.5-6.23-3.99-10.73-4.45l-.06.06-31.47,73.96,7.56,1.58,33.41-70.68m70.39-28.13c1.95,1.29,3.85,2.83,5.68,4.63-2.46-4.61-3.11-8.91-1.93-12.89l-3.75,8.26Z"/><path class="cls-62" d="m1356.74,1296.71c-2.42,3.09-7.64,3.36-15.65.82l-33.58,62.01,22.33-13.13,26.9-49.7Z"/><path class="cls-53" d="m1393.02,1251.76l-3.46,3.75-35.4,38.39c-.86.7-1.95,1.09-3.28,1.17-1.95.12-4.43-.47-7.44-1.76l-67.63,24.5-1.29.47,2.4,2.52,64.18-23.27c8.01,2.54,13.23,2.27,15.65-.82l1-1.88,38.21-41.32-2.93-1.76Z"/><path class="cls-42" d="m1275.92,1317.24c-2.37-2.14-5.46-3.54-9.19-4.16l44.64-22.78c6.15-3.08,12.03-4.65,17.48-4.65s10.9,1.65,15.77,4.91c1.71,1.13,3.39,2.47,5.01,3.99-1.66-.14-3.67-.71-6-1.7l-.18-.08-67.54,24.46Zm75.11-22.69c-2.39-4.47-3.02-8.68-1.9-12.52,1.1-3.9,4.03-7.55,8.72-10.87l25.64-20.35c1.03,2.25,2.77,3.89,5.2,4.91l-34.9,37.85c-.69.56-1.64.91-2.79,1l.03-.02Z"/><path class="cls-45" d="m1383.32,1251.58c1,1.88,2.52,3.32,4.54,4.3l-34.38,37.28c-.58.46-1.29.74-2.16.86-2.2-4.24-2.78-8.23-1.71-11.87,1.06-3.78,3.93-7.34,8.52-10.59l.02-.02.02-.02,25.14-19.95m-54.47,34.57c5.49,0,10.71,1.62,15.5,4.83,1.25.83,2.5,1.77,3.71,2.83-1.25-.27-2.67-.75-4.23-1.41l-.36-.16-.37.13-67.07,24.29c-2.1-1.82-4.7-3.09-7.79-3.8l43.35-22.12c6.08-3.05,11.89-4.6,17.26-4.6m54.85-36.15l-26.14,20.75c-4.81,3.4-7.78,7.11-8.91,11.14-1.17,3.99-.53,8.28,1.93,12.89-1.84-1.8-3.73-3.34-5.68-4.63-4.98-3.33-10.33-5-16.05-5-5.55,0-11.45,1.57-17.71,4.7l-46.07,23.5c4.49.47,8.07,1.95,10.73,4.45l67.63-24.5c2.76,1.18,5.07,1.77,6.94,1.77.17,0,.34,0,.5-.01,1.33-.08,2.42-.47,3.28-1.17l35.4-38.39c-2.89-1.02-4.85-2.85-5.86-5.51h0Z"/></g><g id="man_reading_0_Layer0_18_FILL"><path class="cls-36" d="m1386.75,1287.34c-.11-4.08-1.48-7.34-4.1-9.79l-3.34,5.98-11.14,9.79c-4.06,3.88-6.15,8.85-6.27,14.89,6.83-2.95,12.93-5.04,18.29-6.27l1.17-2.05,5.39-12.54Z"/></g><g id="man_reading_0_Layer0_19_FILL"><path class="cls-16" d="m1369.81,1350.63c-6.84-27.93-23.17-35.42-49-22.45-53.3,24.82-110.62,62.41-171.96,112.76l-27.19,5.74c9.4,47.05,35.03,67.89,76.89,62.54,18.06-1.92,57.66-31.23,118.8-87.91-1.13,41.3-.76,78.06,1.11,110.3-3.5,1.38-3.09,5.68,1.23,12.89,36.78-2.07,50.3-7.8,40.56-17.17,12.7-62.86,15.89-121.76,9.55-176.7Z"/></g><g id="man_reading_0_Layer0_19_FILL-2"><path class="cls-25" d="m1369.81,1350.63c-6.84-27.93-23.17-35.42-49-22.45-53.3,24.82-110.62,62.41-171.96,112.76l-27.19,5.74c9.4,47.05,35.03,67.89,76.89,62.54,18.06-1.92,57.66-31.23,118.8-87.91-1.13,41.3-.76,78.06,1.11,110.3-3.5,1.38-3.09,5.68,1.23,12.89,36.78-2.07,50.3-7.8,40.56-17.17,12.7-62.86,15.89-121.76,9.55-176.7Z"/></g><g id="man_reading_0_Layer0_20_FILL"><path class="cls-4" d="m1308.92,1429.17l8.44-7.79v-51.58c-8.36,31.48-11.18,51.27-8.44,59.37Z"/></g></g></svg>