<svg xmlns="http://www.w3.org/2000/svg" xmlns:xlink="http://www.w3.org/1999/xlink" viewBox="0 0 2500 2500"><defs><filter id="e32f48e3-1237-4ccb-8ca6-5f597b1642b6" name="AI_DesenfoqueGaussiano_4"><feGaussianBlur stdDeviation="4"/></filter><linearGradient id="e8c6f3d2-9def-43de-8949-e26bdeb9a430" x1="29.03" y1="32.92" x2="247.63" y2="32.92" gradientUnits="userSpaceOnUse"><stop offset="0" stop-color="#7e9cbd" stop-opacity="0.5"/><stop offset="0.48" stop-color="#7e9cbd" stop-opacity="0.1"/><stop offset="1" stop-color="#7e9cbd" stop-opacity="0"/></linearGradient><radialGradient id="ac3ca3cf-9a17-483a-9fa0-aa4a88f60636" cx="-7703.38" cy="4309.81" r="62.98" gradientTransform="matrix(-0.41, 0.71, -0.41, -0.7, -1287.57, 8555.33)" gradientUnits="userSpaceOnUse"><stop offset="0" stop-color="#7e9cbd" stop-opacity="0.3"/><stop offset="1" stop-color="#7e9cbd" stop-opacity="0"/></radialGradient><radialGradient id="ab3f53a5-6fac-4f24-a284-c7514486a5ca" cx="-596.75" cy="1649.55" r="718.84" gradientTransform="matrix(-0.78, 0.43, 0.62, 0.35, -48.88, 1427.8)" gradientUnits="userSpaceOnUse"><stop offset="0" stop-color="#90aac1" stop-opacity="0.2"/><stop offset="0.33" stop-color="#90aac1" stop-opacity="0.16"/><stop offset="0.84" stop-color="#90aac1" stop-opacity="0.04"/><stop offset="1" stop-color="#90aac1" stop-opacity="0"/></radialGradient><linearGradient id="a6c665ac-77c2-4ef1-8dde-fa47a57db335" x1="-796.5" y1="988.05" x2="-902.13" y2="1017.12" gradientTransform="matrix(-0.93, 0.36, 0.36, 0.93, -318.72, 264.2)" gradientUnits="userSpaceOnUse"><stop offset="0" stop-color="#c2ebe8" stop-opacity="0.1"/><stop offset="0.05" stop-color="#8fe0d9" stop-opacity="0.1"/><stop offset="0.15" stop-color="#6ad8cf" stop-opacity="0.1"/><stop offset="0.87" stop-color="#43a39b" stop-opacity="0.3"/></linearGradient><linearGradient id="a7f94161-fa76-42c7-ad03-3e7d77eda96d" x1="548.66" y1="820.02" x2="1105.23" y2="1111.55" gradientUnits="userSpaceOnUse"><stop offset="0" stop-color="#c2ebe8" stop-opacity="0"/><stop offset="0.06" stop-color="#a7e5e0" stop-opacity="0.03"/><stop offset="0.21" stop-color="#79dbd3" stop-opacity="0.08"/><stop offset="0.37" stop-color="#6ad8cf" stop-opacity="0.1"/><stop offset="0.86" stop-color="#43a39b" stop-opacity="0.6"/></linearGradient><linearGradient id="b7810353-96d5-4cc6-b70d-2dcfee87dfb2" x1="408.95" y1="1278.88" x2="940.99" y2="1457.38" gradientTransform="matrix(1, -0.05, 0.05, 1, -58.22, 30.48)" xlink:href="#a7f94161-fa76-42c7-ad03-3e7d77eda96d"/><linearGradient id="e046387d-686f-4cca-b70a-01ebee7bc1ca" x1="407.52" y1="1283.11" x2="939.57" y2="1461.62" gradientTransform="matrix(1, -0.05, 0.05, 1, -58.22, 30.48)" xlink:href="#a7f94161-fa76-42c7-ad03-3e7d77eda96d"/><linearGradient id="aa2e77a3-773d-4352-995c-519acb001163" x1="1998.74" y1="1368.29" x2="976.58" y2="2035.76" gradientUnits="userSpaceOnUse"><stop offset="0.03" stop-color="#90aac1" stop-opacity="0"/><stop offset="0.15" stop-color="#d4ecf6" stop-opacity="0.1"/><stop offset="0.67" stop-color="#5d7586" stop-opacity="0.3"/></linearGradient><clipPath id="e890c26f-9d95-4cf5-9ca2-ea823b04fdae"><path d="M973,1423l748.81,373.73-74.44,223-411.71,97.19L646,1963.65s-21.69-336.1-24.37-347.58S973,1423,973,1423Z" fill="none"/></clipPath><linearGradient id="e71e2502-1549-491e-a1b4-2e01ddd6f2ac" x1="895.21" y1="1532.74" x2="1928.23" y2="1678.91" gradientUnits="userSpaceOnUse"><stop offset="0" stop-color="#fafbfc"/><stop offset="0.55" stop-color="#f5f8fa"/><stop offset="0.99" stop-color="#e6f4fa"/><stop offset="0.99" stop-color="#d4ecf6" stop-opacity="0.9"/></linearGradient><linearGradient id="f4e640e3-0c40-4bd0-895d-78ca34214fac" x1="1535.63" y1="1365.84" x2="1603.87" y2="1485.76" gradientUnits="userSpaceOnUse"><stop offset="0" stop-color="#e5f4fa"/><stop offset="0.36" stop-color="#e5f4fa"/><stop offset="0.45" stop-color="#d5eaf7"/><stop offset="0.54" stop-color="#c8e3f5"/><stop offset="0.74" stop-color="#cbe4f4"/><stop offset="1" stop-color="#cee7f5"/></linearGradient><radialGradient id="e3a5eeda-a622-410f-8a0b-5e6abd365b34" cx="1795.42" cy="1771.76" r="1375.5" gradientTransform="matrix(0.71, 0.41, 0, 0.61, 470.04, 51.42)" gradientUnits="userSpaceOnUse"><stop offset="0" stop-color="#cfecf3"/><stop offset="0.3" stop-color="#e0f3f5"/><stop offset="0.62" stop-color="#ebf7f6"/><stop offset="1" stop-color="#eef8f6"/></radialGradient><radialGradient id="e51c1fbb-018b-4135-8dd9-2f4ad252cf63" cx="1212.08" cy="1125.47" r="843.27" gradientTransform="matrix(0.71, 0.41, 0, 0.06, 470.04, 542.64)" gradientUnits="userSpaceOnUse"><stop offset="0" stop-color="#f9fbf5"/><stop offset="0.06" stop-color="#f9fbf5" stop-opacity="0.91"/><stop offset="0.26" stop-color="#f9fbf5" stop-opacity="0.63"/><stop offset="0.45" stop-color="#f9fbf5" stop-opacity="0.41"/><stop offset="0.63" stop-color="#f9fbf5" stop-opacity="0.23"/><stop offset="0.78" stop-color="#f9fbf5" stop-opacity="0.1"/><stop offset="0.91" stop-color="#f9fbf5" stop-opacity="0.03"/><stop offset="1" stop-color="#f9fbf5" stop-opacity="0"/></radialGradient><linearGradient id="b41e4377-b8cd-4a2f-8023-006a62340591" x1="807.02" y1="1308.45" x2="835.89" y2="1337.11" gradientTransform="matrix(0.87, 0.5, 0, 1.15, 216.95, -1107.82)" gradientUnits="userSpaceOnUse"><stop offset="0" stop-color="#00b280"/><stop offset="1" stop-color="#1da8e0"/></linearGradient><clipPath id="b51e1ca9-9acc-4f2d-9896-7dc2e675d3b8"><polygon points="898.51 1413.84 1731.1 1894.63 1731.1 1731.56 885.4 1251.49 898.51 1413.84" fill="none"/></clipPath><linearGradient id="bc605be2-88b0-4632-945a-4887be5e98c0" x1="1191.15" y1="1529.2" x2="1228.37" y2="1467.76" gradientUnits="userSpaceOnUse"><stop offset="0" stop-color="#bec7ce" stop-opacity="0"/><stop offset="1" stop-color="#9aa8b1" stop-opacity="0.4"/></linearGradient><linearGradient id="aaf94c34-bc7d-4265-be80-21ab69c5da73" x1="1254.52" y1="1274.64" x2="1100.96" y2="1510.98" gradientUnits="userSpaceOnUse"><stop offset="0.13" stop-color="#c2ebe8" stop-opacity="0"/><stop offset="0.16" stop-color="#b1e6e2" stop-opacity="0.09"/><stop offset="0.21" stop-color="#95ddd7" stop-opacity="0.26"/><stop offset="0.27" stop-color="#7dd5ce" stop-opacity="0.4"/><stop offset="0.33" stop-color="#69cfc7" stop-opacity="0.51"/><stop offset="0.41" stop-color="#5acac1" stop-opacity="0.59"/><stop offset="0.5" stop-color="#50c6bd" stop-opacity="0.66"/><stop offset="0.63" stop-color="#4ac5bb" stop-opacity="0.69"/><stop offset="0.99" stop-color="#48c4ba" stop-opacity="0.7"/></linearGradient><linearGradient id="e17a8bbe-0e32-433c-8c0b-3c88e0075fb9" x1="1310.55" y1="1374.42" x2="1267.45" y2="1374.42" gradientUnits="userSpaceOnUse"><stop offset="0.01" stop-color="#9aa8b1"/><stop offset="0.98" stop-color="#9aa8b1" stop-opacity="0.02"/><stop offset="1" stop-color="#9aa8b1" stop-opacity="0"/></linearGradient><linearGradient id="fb3d7d6f-9cbe-4316-bff4-67387f050ce6" x1="1473.18" y1="1231.8" x2="1316.98" y2="1414.8" gradientUnits="userSpaceOnUse"><stop offset="0.1" stop-color="#1da1dc" stop-opacity="0"/><stop offset="0.16" stop-color="#18a4cc" stop-opacity="0.06"/><stop offset="0.29" stop-color="#0daaad" stop-opacity="0.16"/><stop offset="0.45" stop-color="#06af98" stop-opacity="0.24"/><stop offset="0.64" stop-color="#01b18b" stop-opacity="0.29"/><stop offset="0.99" stop-color="#00b287" stop-opacity="0.3"/></linearGradient><linearGradient id="af0d47f8-295f-4dfd-99b4-8b5cb15cb0c6" x1="1138.48" y1="1351.32" x2="1138.48" y2="1322.86" gradientUnits="userSpaceOnUse"><stop offset="0" stop-color="#010d1a" stop-opacity="0"/><stop offset="1" stop-color="#010d1a" stop-opacity="0.4"/></linearGradient><linearGradient id="a37ea097-1c16-4fc6-8399-85e78a3a95eb" x1="1130.34" y1="1344.8" x2="1130.34" y2="1303.14" xlink:href="#af0d47f8-295f-4dfd-99b4-8b5cb15cb0c6"/><linearGradient id="b2237555-03f9-4672-86b0-566e0ef86646" x1="1226.48" y1="1427.24" x2="1226.48" y2="1398.57" xlink:href="#af0d47f8-295f-4dfd-99b4-8b5cb15cb0c6"/><radialGradient id="b276c692-fc4a-4162-a92c-cc5f13bc3834" cx="424.47" cy="2107.82" r="189.44" gradientTransform="matrix(-0.41, 0.71, -0.41, -0.7, 2106.9, 3112.02)" gradientUnits="userSpaceOnUse"><stop offset="0" stop-color="#90aac1" stop-opacity="0.3"/><stop offset="1" stop-color="#90aac1" stop-opacity="0"/></radialGradient><radialGradient id="ac7126de-eb3f-4b1a-973d-9752e57348cd" cx="349.64" cy="2173.85" r="43.1" gradientTransform="matrix(-0.41, 0.71, -0.41, -0.7, 2004.02, 3207.93)" xlink:href="#b276c692-fc4a-4162-a92c-cc5f13bc3834"/><linearGradient id="edd1e9d9-ae40-47de-a229-fb211662bd05" x1="1090.32" y1="1399.88" x2="1012.28" y2="1473.43" gradientUnits="userSpaceOnUse"><stop offset="0" stop-color="#0f0b26" stop-opacity="0"/><stop offset="1" stop-color="#0f0b26"/></linearGradient><linearGradient id="addd5c66-2b03-485e-9549-83143b3e8da4" x1="1051.77" y1="1502.31" x2="1206.05" y2="1538.19" xlink:href="#edd1e9d9-ae40-47de-a229-fb211662bd05"/><linearGradient id="b06520ff-82e3-4e42-b423-5de3dd9607ef" x1="1024.37" y1="1752.61" x2="1091.64" y2="1778.62" gradientUnits="userSpaceOnUse"><stop offset="0" stop-color="#0f0b26" stop-opacity="0"/><stop offset="0.45" stop-color="#0f0b26" stop-opacity="0.38"/><stop offset="1" stop-color="#0f0b26"/></linearGradient><linearGradient id="b18b3a2e-1a54-4533-a970-472b6ab8ea4d" x1="1024.37" y1="1752.61" x2="1091.64" y2="1778.62" gradientUnits="userSpaceOnUse"><stop offset="0" stop-color="#0f0b26" stop-opacity="0"/><stop offset="0.44" stop-color="#0f0b26" stop-opacity="0.06"/><stop offset="0.68" stop-color="#0f0b26" stop-opacity="0.27"/><stop offset="0.87" stop-color="#0f0b26" stop-opacity="0.63"/><stop offset="1" stop-color="#0f0b26"/></linearGradient><linearGradient id="bad541bf-0bda-4464-b77d-271a107c7aca" x1="992.3" y1="1756.95" x2="1157.12" y2="1700.45" xlink:href="#edd1e9d9-ae40-47de-a229-fb211662bd05"/><linearGradient id="bf650663-171f-42f2-ad55-0750b7ca18ce" x1="1100.26" y1="1742.01" x2="1180.09" y2="1750.98" xlink:href="#edd1e9d9-ae40-47de-a229-fb211662bd05"/><linearGradient id="aa6a8db7-dce0-46e3-884e-1079e5337b93" x1="998.49" y1="1531.35" x2="1222.5" y2="1205.08" xlink:href="#edd1e9d9-ae40-47de-a229-fb211662bd05"/><linearGradient id="b410f436-aeab-448c-add1-8703a55a8cf4" x1="1036.45" y1="1374.08" x2="844.51" y2="1549.88" gradientUnits="userSpaceOnUse"><stop offset="0" stop-color="#3cb3a3" stop-opacity="0"/><stop offset="1" stop-color="#3cb3a3"/></linearGradient><linearGradient id="a055e39c-2ded-4b59-b4be-bea47d94abf1" x1="1002.89" y1="1387.54" x2="948.11" y2="1249.73" gradientUnits="userSpaceOnUse"><stop offset="0.18" stop-color="#f9f9f9" stop-opacity="0"/><stop offset="1" stop-color="#f9f9f9"/></linearGradient><linearGradient id="aec8909f-1478-42fa-bb7c-629b0ccca614" x1="1711.56" y1="2460.1" x2="1961.34" y2="651.03" gradientTransform="translate(1073.7 -699.74) rotate(30.36)" gradientUnits="userSpaceOnUse"><stop offset="0.01" stop-color="#0071b0"/><stop offset="0.29" stop-color="#0173b2"/><stop offset="0.39" stop-color="#057ab8"/><stop offset="0.46" stop-color="#0c85c3"/><stop offset="0.52" stop-color="#1696d2"/><stop offset="0.55" stop-color="#1da1dc"/><stop offset="0.98" stop-color="#1da1dc"/><stop offset="1" stop-color="#1da1dc"/></linearGradient><symbol id="e105f750-0766-4c71-ba1a-fef0295f7a16" data-name="shadowsvglight" viewBox="0 0 269.17 74.14"><g filter="url(#e32f48e3-1237-4ccb-8ca6-5f597b1642b6)"><path d="M247.63,32.92c.09,15.15-21,27.43-47.19,27.42H76.53a81.87,81.87,0,0,1-8.38-.43c-.78-.08-1.55-.18-2.31-.28s-1.52-.21-2.27-.34-1.49-.25-2.23-.4-1.46-.29-2.17-.46c-1.35-.3-2.66-.65-4-1L54,57l-2-.67c-.65-.22-1.29-.46-1.92-.71-1.26-.49-2.48-1-3.65-1.58-.59-.28-1.16-.56-1.73-.86s-1.11-.6-1.65-.91-1.06-.63-1.57-1-1-.66-1.49-1a33,33,0,0,1-2.74-2.11c-.43-.36-.84-.73-1.24-1.11s-.78-.76-1.15-1.15l-.53-.58a23.09,23.09,0,0,1-1.78-2.25L32,42.35l-.39-.63c-.25-.43-.48-.86-.7-1.29s-.41-.87-.59-1.32-.34-.89-.48-1.34c-.07-.22-.14-.45-.2-.67-.12-.46-.22-.92-.31-1.38a17.35,17.35,0,0,1-.26-2.8C29,17.77,50.08,5.49,76.23,5.49H201.35c1.63,0,3.23.1,4.81.21,1.19.09,2.36.2,3.52.34s2.29.3,3.42.48q2.64.43,5.16,1l1.37.34c1.4.37,2.76.77,4.09,1.21q1,.33,1.95.69a53,53,0,0,1,8,3.71,35.91,35.91,0,0,1,8.18,6.32c.37.39.72.79,1.06,1.19s.65.8.95,1.21a20.28,20.28,0,0,1,1.94,3.17,17.58,17.58,0,0,1,1.44,4,15.25,15.25,0,0,1,.38,2.78C247.62,32.45,247.63,32.68,247.63,32.92Z" fill="url(#e8c6f3d2-9def-43de-8949-e26bdeb9a430)"/></g><ellipse cx="63.02" cy="37.76" rx="36.38" ry="63.02" transform="translate(24.87 100.54) rotate(-89.64)" fill="url(#ac3ca3cf-9a17-483a-9fa0-aa4a88f60636)"/></symbol></defs><g id="ad14e66d-4907-4d2a-9283-76f23392e27e" data-name="ShadowBG"><ellipse id="a53ab126-4874-48bc-87ab-eea272c8bd96" data-name="shadow BG" cx="1444.74" cy="1753.64" rx="842.6" ry="468.35" transform="translate(-11 9.12) rotate(-0.36)" fill="url(#ab3f53a5-6fac-4f24-a284-c7514486a5ca)"/></g><g id="fd6f36f2-2c53-40e3-b2c8-398e47cbae72" data-name="Plant"><g id="b638d3b9-55ad-4e6d-a341-61f8ee61d981" data-name="Plant"><g id="b6f4fce3-9d47-45ac-b9c7-c2df5d8101c4" data-name="Layer1 8 MEMBER 0 FILL"><path d="M1028,1427.17l-5.91,3.57q-46.85-72.33-56.1-217.61l14.55-16.54q-9.23,111,47.46,230.58M899.79,1303.31l3.27-3.73q56.49,67.32,84.8,138l-10.45,4Q954.43,1373.07,899.79,1303.31Z" fill="#6ad8cf"/></g><g id="bfd4ae14-c46a-4dec-a8a0-e9298e58d932" data-name="Layer1 8 MEMBER 1 FILL"><path d="M843.85,811.49Q927.94,1074.27,957.42,1383,738.36,1240.65,634.93,935,531.58,629.2,641.56,412.74,795.84,661.53,843.85,811.49Z" fill="#c2ebe8"/></g><g id="a8f1bc62-c276-4a75-be7e-1e8eb4a4069e" data-name="Layer1 8 MEMBER 1 FILL"><path d="M843.85,811.49Q927.94,1074.27,957.42,1383,738.36,1240.65,634.93,935,531.58,629.2,641.56,412.74,795.84,661.53,843.85,811.49Z" fill="url(#a6c665ac-77c2-4ef1-8dde-fa47a57db335)"/></g><g id="ad7edc86-9de7-494d-8283-b3fc15be2b13" data-name="Layer1 8 MEMBER 2 FILL"><path d="M974.05,565.72q90,109,110.7,265.35t-77.51,345.61q-40.53,97.66-14.29,183.84-41.28-54.94-81.73-174t-17.84-288.9Q903.49,733.85,974.05,565.72Z" fill="#91e2db"/></g><path d="M978.87,558.69h0l.1,0-.1,0M972.6,894.84l0,.35q23.31-174.87,13.14-266.74,15.65,112.54-.06,268a.37.37,0,0,0,0,.24q-32.5,224.74.42,352.28a258.91,258.91,0,0,0-3.31,51.23Q919.17,1182.95,972.6,894.84Z" fill="#6ad8cf"/><path d="M958.4,1383.94q-5.29-3.46-10.55-7C819.48,1152.15,693.73,686.07,642.24,429.33,708.77,697.83,832.45,1111,954.82,1359Q956.67,1371.45,958.4,1383.94Z" fill="#6ad8cf"/><g id="b7094120-bff1-4852-9d17-0e01df85e359" data-name="Layer1 8 MEMBER 2 FILL"><path d="M620,1257.8c127.83-5.21,299.64,82.26,364.69,188.83,20.66,33.86,7.6-6.83,26.23,12C860.84,1474,678.6,1403.34,620,1257.8Z" fill="#91e2db"/></g><path d="M962.29,1447.48a92.88,92.88,0,0,0-2.54-11.31C848.88,1384,740.12,1327.69,632.94,1268.33c108.24,62.6,217.68,123,329.37,179.27C962.3,1447.56,962.3,1447.52,962.29,1447.48Z" fill="#6ad8cf"/><path d="M1007.24,1176.68q98.07-189.23,77.51-345.61T974.05,565.72q-70.56,168.12-80.67,331.9-4.51,33.75-6.51,65.46-19.35-77.61-43-151.59-48-150-202.29-398.75Q531.58,629.2,634.93,935,736,1233.75,947.59,1376.49c.08.16.17.31.26.47l1.54,1A408.6,408.6,0,0,1,973,1429.15C900.81,1330.68,740.81,1252.88,620,1257.8c56.46,140.33,227.89,211,374.66,202.19-2-1.38-5-5.2-10-13.36-1.29-2.1-2.63-4.2-4-6.29l7.12-2.74a457,457,0,0,0-30.64-62q-.83-5.76-1.66-11.53Q951,1319,945.23,1274.94q21.62,48.86,43.45,79.7,13.23,44.85,33.45,76.1l5.91-3.57q-35.53-74.94-45.17-146.55Q985,1230.39,1007.24,1176.68Z" fill="url(#a7f94161-fa76-42c7-ad03-3e7d77eda96d)"/><path d="M997.74,1459.8q6.64-.45,13.22-1.12C1000.13,1447.7,1000,1456.87,997.74,1459.8Z" fill="url(#b7810353-96d5-4cc6-b70d-2dcfee87dfb2)"/><path d="M997.74,1459.8l-3,.19C996.16,1461,997.05,1460.69,997.74,1459.8Z" fill="url(#e046387d-686f-4cca-b70a-01ebee7bc1ca)"/></g></g><g id="a6566dd1-2504-4784-99f0-766ddbcd759e" data-name="Base"><g id="e9fd21bb-734f-4704-b703-beea86d404cc" data-name="BaseL"><g opacity="0.16"><path d="M1269.6,1435.06c8.1,0,16.21,1.79,22.41,5.37L1753.65,1707c12.4,7.16,12.46,18.76.15,25.92L1387,1944.28c-6.16,3.58-14.24,5.37-22.34,5.37s-16.21-1.79-22.41-5.37L880.61,1677.75c-12.39-7.15-12.46-18.76-.15-25.92l366.8-211.4c6.15-3.58,14.24-5.37,22.34-5.37m0-9.64h0c-10.13,0-19.78,2.37-27.19,6.68L875.65,1643.48c-8.93,5.19-14,12.94-14,21.28s5.18,16.15,14.17,21.34l461.64,266.53c7.43,4.29,17.1,6.66,27.22,6.66s19.78-2.37,27.18-6.68l366.77-211.38c8.93-5.19,14-12.94,14-21.28s-5.18-16.15-14.16-21.34l-461.64-266.52c-7.44-4.3-17.11-6.67-27.23-6.67Z" fill="#85d8d1"/></g><g opacity="0.18"><path d="M1269.6,1435.06c8.1,0,16.21,1.79,22.41,5.37L1753.65,1707c12.4,7.16,12.46,18.76.15,25.92L1387,1944.28c-6.16,3.58-14.24,5.37-22.34,5.37s-16.21-1.79-22.41-5.37L880.61,1677.75c-12.39-7.15-12.46-18.76-.15-25.92l366.8-211.4c6.15-3.58,14.24-5.37,22.34-5.37m0-4.82h0c-9.29,0-18.09,2.14-24.77,6l-366.77,211.4c-7.5,4.36-11.62,10.42-11.61,17.09s4.19,12.81,11.75,17.18l461.65,266.53c6.71,3.87,15.52,6,24.81,6s18.08-2.14,24.76-6l366.78-211.4c7.5-4.36,11.62-10.42,11.61-17.09s-4.18-12.8-11.75-17.17l-461.64-266.53c-6.72-3.88-15.54-6-24.82-6Z" fill="#333a45"/></g><g opacity="0.47"><path d="M1753.65,1707c12.4,7.16,12.46,18.76.15,25.92L1387,1944.28c-12.32,7.16-32.35,7.16-44.75,0L880.61,1677.75c-12.39-7.15-12.46-18.76-.15-25.92l366.8-211.4c12.31-7.16,32.35-7.16,44.75,0Z" fill="none" stroke="#333a45" stroke-width="2.01"/></g><path d="M1365.27,1950.74l105.35-1.48a97.1,97.1,0,0,0,38.31-10.41l367.22-206.67s27-19.21-12.79-38.7l-423.58-244-189.44,195.3Z" fill="url(#aa2e77a3-773d-4352-995c-519acb001163)"/><g clip-path="url(#e890c26f-9d95-4cf5-9ca2-ea823b04fdae)"><g id="e6803cb9-837e-4463-9d89-cf2fbb09708e" data-name="base"><g style="isolation:isolate"><path d="M1845.65,1611.9,1386.92,1874c-12.32,7.15-30.17,8.93-42.57,1.77l-462-266.22c-6.24-3.6-11.07-6-11.06-10.7l-.19,65.46c0,4.72,3.11,9.45,9.35,13l461.64,266.53c12.4,7.16,32.43,7.16,44.75,0l458.64-266.53c6.12-3.56,9.18-8.21,9.2-12.87l.18-65.46C1854.83,1603.69,1851.77,1608.34,1845.65,1611.9Z" fill="#d4ecf6"/><path d="M1364.66,1882.19c-8.18,0-15.85-1.83-21.6-5.15L881.42,1610.51c-5.5-3.17-8.54-7.3-8.54-11.62s3-8.37,8.39-11.52l458.65-266.54c5.71-3.32,13.36-5.15,21.53-5.15s15.85,1.83,21.61,5.16l461.64,266.53c5.5,3.17,8.53,7.3,8.54,11.61s-3,8.38-8.4,11.53L1386.2,1877C1380.48,1880.36,1372.83,1882.19,1364.66,1882.19Z" fill="url(#e71e2502-1549-491e-a1b4-2e01ddd6f2ac)"/><path d="M1361.45,1314.08v3.21c7.9,0,15.29,1.75,20.8,4.94l461.65,266.53c5,2.87,7.72,6.51,7.73,10.22s-2.69,7.29-7.6,10.14l-458.64,266.53c-5.48,3.18-12.84,4.94-20.73,4.94s-15.28-1.76-20.8-4.94L882.22,1609.12c-5-2.88-7.73-6.51-7.74-10.23s2.69-7.28,7.6-10.13l458.64-266.54c5.47-3.18,12.84-4.93,20.73-4.93v-3.21m0,0c-8.1,0-16.19,1.79-22.34,5.36L880.46,1586c-12.31,7.16-12.24,18.76.15,25.92l461.64,266.53c6.2,3.58,14.31,5.37,22.41,5.37s16.18-1.79,22.34-5.37l458.65-266.53c12.31-7.16,12.25-18.77-.15-25.92l-461.64-266.53c-6.2-3.58-14.31-5.37-22.41-5.37Z" fill="#fafbfc"/><path d="M1361.45,1314.08v1.6c8.18,0,15.85,1.83,21.61,5.16l461.64,266.53c5.5,3.17,8.53,7.3,8.54,11.61s-3,8.38-8.4,11.53L1386.19,1877c-5.71,3.32-13.36,5.15-21.53,5.15s-15.85-1.83-21.6-5.15L881.42,1610.51c-5.5-3.17-8.54-7.3-8.54-11.62s3-8.37,8.39-11.52l458.65-266.54c5.71-3.32,13.36-5.15,21.53-5.15v-1.6m0,0c-8.1,0-16.19,1.79-22.34,5.36L880.46,1586c-12.31,7.16-12.24,18.76.15,25.92l461.64,266.53c6.2,3.58,14.31,5.37,22.41,5.37s16.18-1.79,22.34-5.37l458.65-266.53c12.31-7.16,12.25-18.77-.15-25.92l-461.64-266.53c-6.2-3.58-14.31-5.37-22.41-5.37Z" fill="#fff"/></g></g></g></g><g id="aaf35475-cadb-4953-a4e7-ec7f648b64b4" data-name="Shadowtablet" filter="url(#e32f48e3-1237-4ccb-8ca6-5f597b1642b6)"><path d="M1541.92,1790.68c-5.74,3.31-15.13,3.31-20.87,0l-521-300.78c-5.73-3.32-5.73-8.74,0-12.05l2.52-1.45c5.73-3.31,15.12-3.31,20.86,0l521,300.78c5.74,3.31,5.74,8.74,0,12Z" fill="#90aac1" opacity="0.2"/></g></g><g id="f0a397e1-7fef-4964-a34f-dca53d21197b" data-name="Dashboard"><g id="a519d180-ef17-4ad2-8176-97e8acca4657" data-name="Dashboard"><g id="b0a28135-8892-466a-b5e0-264ab2c8d1d3" data-name="Frame"><path d="M1800.46,1259.68l-900.71-519c-5.34-3.07-10.17-3.36-13.66-1.33L857.8,755.75c3.48-2,8.31-1.74,13.65,1.34l900.71,519c10.6,6.12,19.16,20.95,19.13,33.12l-1.71,605.15c0,6-2.15,10.31-5.59,12.31l28.3-16.44c3.44-2,5.58-6.26,5.59-12.31l1.7-605.15C1819.62,1280.63,1811.06,1265.8,1800.46,1259.68Z" fill="url(#f4e640e3-0c40-4bd0-895d-78ca34214fac)"/></g></g><path d="M1772.84,1922.74l-903.9-521.86c-10.18-5.88-18.44-20.12-18.44-31.8V766.2c0-11.68,8.26-16.38,18.44-10.5l903.9,521.86c10.19,5.89,18.45,20.12,18.45,31.8v602.89C1791.29,1923.93,1783,1928.63,1772.84,1922.74Z" fill="url(#e3a5eeda-a622-410f-8a0b-5e6abd365b34)"/><path d="M1781.12,1923.78a15.47,15.47,0,0,1-7.53-2.34L869.7,1399.58c-9.76-5.63-17.7-19.32-17.7-30.5V766.2c0-7.12,3.31-11.53,8.66-11.53A15.52,15.52,0,0,1,868.2,757l903.89,521.86c9.76,5.64,17.7,19.32,17.7,30.5v602.89C1789.79,1919.36,1786.47,1923.78,1781.12,1923.78Z" fill="url(#e51c1fbb-018b-4135-8dd9-2f4ad252cf63)"/><path d="M860.66,756.17h0a14,14,0,0,1,6.78,2.13l903.9,521.86c9.18,5.31,17,18.68,17,29.2v602.89c0,6.28-2.68,10-7.17,10a14.06,14.06,0,0,1-6.78-2.13l-903.9-521.87c-9.18-5.3-16.94-18.67-16.94-29.2V766.2c0-6.28,2.67-10,7.16-10m0-3c-6,0-10.16,4.77-10.16,13v602.88c0,11.68,8.26,25.92,18.44,31.8l903.9,521.86a16.83,16.83,0,0,0,8.28,2.54c6,0,10.17-4.77,10.17-13V1309.36c0-11.68-8.26-25.91-18.45-31.8L868.94,755.7a16.81,16.81,0,0,0-8.28-2.53Z" fill="#fff"/><g opacity="0.6"><polygon points="1715.34 1389.02 913.57 926.12 913.57 925.46 1715.34 1388.36 1715.34 1389.02" fill="none" stroke="#bec7ce" stroke-miterlimit="10" stroke-width="0.82"/></g><g opacity="0.4"><path d="M1033.9,947.87,913.57,878.4a9.53,9.53,0,0,1-4.33-7.46c0-2.74,1.94-3.84,4.33-2.46L1033.9,938a9.52,9.52,0,0,1,4.32,7.46C1038.22,948.15,1036.29,949.25,1033.9,947.87Z" fill="#fff"/><path d="M1033.9,947.87,913.57,878.4a9.53,9.53,0,0,1-4.33-7.46c0-2.74,1.94-3.84,4.33-2.46L1033.9,938a9.52,9.52,0,0,1,4.32,7.46C1038.22,948.15,1036.29,949.25,1033.9,947.87Z" fill="#66717b"/></g><path d="M1288.59,1030.7l-79.93-46.14a2.54,2.54,0,0,1-1.15-2c0-.73.51-1,1.15-.66l79.93,46.15a2.54,2.54,0,0,1,1.15,2C1289.74,1030.78,1289.23,1031.07,1288.59,1030.7Z" fill="#d0d8dc"/><path d="M1500.18,1152.86l-79.93-46.14a2.55,2.55,0,0,1-1.16-2c0-.73.52-1,1.16-.66l79.93,46.15a2.54,2.54,0,0,1,1.15,2C1501.33,1152.94,1500.82,1153.23,1500.18,1152.86Z" fill="#d0d8dc"/><path d="M930.39,843c-.48.27-1.25-.17-1.73-1l-7.87-13.5c-.48-.82-.48-1.71,0-2L928.6,822c.48-.27,1.25.18,1.73,1l7.82,13.47c.47.82.47,1.71,0,2Z" opacity="0.75" fill="url(#b41e4377-b8cd-4a2f-8023-006a62340591)"/><ellipse cx="1635.6" cy="1229.73" rx="4.69" ry="8.13" transform="translate(-397.25 995.34) rotate(-30.36)" fill="#9aa8b1" opacity="0.51"/><ellipse cx="1675.26" cy="1252.62" rx="4.69" ry="8.13" transform="matrix(0.86, -0.51, 0.51, 0.86, -403.38, 1018.52)" fill="#9aa8b1" opacity="0.51"/><ellipse cx="1714.92" cy="1275.52" rx="4.69" ry="8.13" transform="translate(-409.52 1041.71) rotate(-30.36)" fill="#9aa8b1" opacity="0.51"/><path d="M1033.9,893.72l-63.07-36.41a1.92,1.92,0,0,1-.86-1.49c0-.55.39-.77.86-.49l63.07,36.41a1.91,1.91,0,0,1,.86,1.49C1034.76,893.77,1034.37,894,1033.9,893.72Z" fill="#66717b" opacity="0.51"/><path d="M1394.38,1092.78l-79.93-46.15a4.47,4.47,0,0,1-2-3.48c0-1.28.91-1.79,2-1.15l79.93,46.15a4.43,4.43,0,0,1,2,3.48C1396.4,1092.9,1395.5,1093.42,1394.38,1092.78Z" fill="#66717b" opacity="0.51"/><path d="M1098.15,1199.1a5.68,5.68,0,0,1-2.82-.85L918.23,1096a12.28,12.28,0,0,1-5.66-9.76V944.15c0-2.78,1.54-4.64,3.84-4.64a5.66,5.66,0,0,1,2.82.84l177.1,102.25a12.3,12.3,0,0,1,5.67,9.77v142.08C1102,1197.23,1100.45,1199.1,1098.15,1199.1Z" fill="#fff"/><path d="M916.41,940.51a4.61,4.61,0,0,1,2.32.71l177.1,102.25a11.34,11.34,0,0,1,5.17,8.9v142.08c0,2.31-1.16,3.65-2.85,3.65a4.77,4.77,0,0,1-2.32-.71l-177.1-102.25a11.38,11.38,0,0,1-5.16-8.9V944.15c0-2.31,1.15-3.64,2.84-3.64m0-2h0c-2.85,0-4.84,2.32-4.84,5.64v142.09a13.4,13.4,0,0,0,6.16,10.63l177.1,102.25a6.68,6.68,0,0,0,3.32,1c2.86,0,4.85-2.32,4.85-5.65V1052.37a13.41,13.41,0,0,0-6.17-10.64L919.73,939.48a6.61,6.61,0,0,0-3.32-1Z" fill="#fff"/><g opacity="0.05"><path d="M1101,1132.56,913.57,1024.35v-80.2c0-3.27,2.31-4.58,5.16-2.93l177.1,102.25a11.34,11.34,0,0,1,5.17,8.9Z" fill="#09c997"/></g><g opacity="0.51"><path d="M946.39,973.75l-9.32-5.39c-.92-.52-1.65-.1-1.65.94v5.35l-4.67-2.7c-.91-.52-1.64-.1-1.64.94v10.69a3.64,3.64,0,0,0,1.64,2.85l9.33,5.38c.91.53,1.65.11,1.65-.94v-5.34l4.66,2.69c.91.52,1.65.1,1.65-.94V976.59A3.63,3.63,0,0,0,946.39,973.75Z" fill="#66717b"/><path d="M946.39,973.75l-9.32-5.39c-.92-.52-1.65-.1-1.65.94v5.35l-4.67-2.7c-.91-.52-1.64-.1-1.64.94v10.69a3.64,3.64,0,0,0,1.64,2.85l9.33,5.38c.91.53,1.65.11,1.65-.94v-5.34l4.66,2.69c.91.52,1.65.1,1.65-.94V976.59A3.63,3.63,0,0,0,946.39,973.75Z" fill="#9aa8b1"/></g><g opacity="0.3"><path d="M987,1000.09,962.58,986a1.89,1.89,0,0,1-.87-1.49c0-.55.39-.77.87-.49L987,998.11a1.91,1.91,0,0,1,.87,1.49C987.9,1000.15,987.51,1000.37,987,1000.09Z" fill="#1da1dc"/></g><g opacity="0.3"><path d="M941.25,1022l-10.49-6.06a5.09,5.09,0,0,1-2.31-4c0-1.46,1-2,2.31-1.31l10.49,6.06a5.06,5.06,0,0,1,2.3,4C943.55,1022.09,942.52,1022.68,941.25,1022Z" fill="#1da1dc"/></g><g opacity="0.6"><polygon points="1058.43 1108.64 913.57 1025.01 913.57 1023.68 1058.43 1107.32 1058.43 1108.64" fill="#1da1dc"/></g><g opacity="0.3"><path d="M1085.94,1179.4l-156.83-90.55a3.17,3.17,0,0,1-1.45-2.49c0-.91.65-1.28,1.45-.82l156.83,90.55a3.19,3.19,0,0,1,1.45,2.49C1087.39,1179.49,1086.74,1179.86,1085.94,1179.4Z" fill="#1da1dc"/></g><g opacity="0.5"><path d="M1002.94,1028.26l-39.21-22.64a5.72,5.72,0,0,1-2.59-4.47c0-1.65,1.16-2.31,2.59-1.48l39.21,22.64a5.69,5.69,0,0,1,2.6,4.47C1005.54,1028.42,1004.38,1029.08,1002.94,1028.26Z" fill="#66717b" opacity="0.51"/></g><g opacity="0.3"><path d="M948,1074.48l-17.28-10a2.54,2.54,0,0,1-1.15-2c0-.73.51-1,1.15-.66l17.28,10a2.54,2.54,0,0,1,1.15,2C949.19,1074.56,948.68,1074.85,948,1074.48Z" fill="#66717b" opacity="0.51"/></g><g opacity="0.3"><path d="M970,1102.81l-39.21-22.63a5.75,5.75,0,0,1-2.6-4.48c0-1.64,1.17-2.3,2.6-1.47L970,1096.86a5.72,5.72,0,0,1,2.59,4.48C972.56,1103,971.4,1103.64,970,1102.81Z" fill="#66717b" opacity="0.51"/></g><g opacity="0.4"><path d="M1033.47,1149.1l-104.36-60.25a3.17,3.17,0,0,1-1.45-2.49c0-.91.65-1.28,1.45-.82l104.36,60.26a3.19,3.19,0,0,1,1.44,2.48C1034.91,1149.19,1034.26,1149.56,1033.47,1149.1Z" fill="#09c997"/></g><g opacity="0.5"><path d="M1085.94,1062.66l-.56.19a2.62,2.62,0,0,1-2.7-.27,7,7,0,0,1-2.13-2l-3.83,4a8.39,8.39,0,0,1,.56,2.78,3.17,3.17,0,0,1-1.35,3l-.44.25-3.94-6.65-5.29,1.33-.67-1.29,3.93-3.4-3.82-6.59.45-.26a3.21,3.21,0,0,1,3.26.34,8.64,8.64,0,0,1,2.14,1.87l5.4-1.26a6.61,6.61,0,0,1-.68-2.84,2.73,2.73,0,0,1,1.13-2.45l.56-.19Z" fill="#0088a1"/><path d="M1085.94,1062.66l-.56.19a2.62,2.62,0,0,1-2.7-.27,7,7,0,0,1-2.13-2l-3.83,4a8.39,8.39,0,0,1,.56,2.78,3.17,3.17,0,0,1-1.35,3l-.44.25-3.94-6.65-5.29,1.33-.67-1.29,3.93-3.4-3.82-6.59.45-.26a3.21,3.21,0,0,1,3.26.34,8.64,8.64,0,0,1,2.14,1.87l5.4-1.26a6.61,6.61,0,0,1-.68-2.84,2.73,2.73,0,0,1,1.13-2.45l.56-.19Z" fill="#09c997" fill-rule="evenodd"/></g><g opacity="0.08"><polygon points="1101 1143.95 913.57 1035.73 913.57 1024.35 1101 1132.56 1101 1143.95" fill="#39c2ec"/></g><path d="M1303,1317.37a5.68,5.68,0,0,1-2.82-.85l-177.1-102.25a12.29,12.29,0,0,1-5.67-9.76V1062.42c0-2.78,1.55-4.64,3.85-4.64a5.66,5.66,0,0,1,2.82.84l177.1,102.25a12.3,12.3,0,0,1,5.67,9.77v142.08C1306.85,1315.5,1305.3,1317.37,1303,1317.37Z" fill="#fff"/><path d="M1121.26,1058.78a4.72,4.72,0,0,1,2.32.7l177.1,102.26a11.37,11.37,0,0,1,5.17,8.9v142.08c0,2.31-1.16,3.65-2.85,3.65a4.77,4.77,0,0,1-2.32-.71l-177.1-102.25a11.4,11.4,0,0,1-5.17-8.9V1062.42c0-2.31,1.16-3.64,2.85-3.64m0-2h0c-2.85,0-4.85,2.32-4.85,5.64v142.09a13.41,13.41,0,0,0,6.17,10.63l177.1,102.25a6.65,6.65,0,0,0,3.32,1c2.85,0,4.85-2.33,4.85-5.65V1170.64a13.41,13.41,0,0,0-6.17-10.64l-177.1-102.25a6.64,6.64,0,0,0-3.32-1Z" fill="#fff"/><path d="M1305.85,1250.83l-187.44-108.21v-80.2c0-3.27,2.32-4.58,5.17-2.94l177.1,102.26a11.37,11.37,0,0,1,5.17,8.9Z" fill="#fafbfc"/><g opacity="0.3"><path d="M1191.88,1118.36l-24.45-14.12a1.89,1.89,0,0,1-.87-1.49c0-.55.39-.77.87-.49l24.45,14.12a1.91,1.91,0,0,1,.87,1.49C1192.75,1118.42,1192.36,1118.64,1191.88,1118.36Z" fill="#1da1dc"/></g><g opacity="0.3"><path d="M1146.1,1140.22l-10.49-6.06a5.08,5.08,0,0,1-2.31-4c0-1.46,1-2,2.31-1.31l10.49,6.06a5.06,5.06,0,0,1,2.3,4C1148.4,1140.36,1147.37,1141,1146.1,1140.22Z" fill="#1da1dc"/></g><g opacity="0.6"><polygon points="1305.85 1251.49 1118.41 1143.28 1118.41 1141.95 1305.85 1250.17 1305.85 1251.49" fill="#ed4c59"/></g><g opacity="0.3"><path d="M1290.79,1297.67,1134,1207.12a3.19,3.19,0,0,1-1.44-2.49c0-.91.65-1.28,1.44-.82l156.84,90.55a3.18,3.18,0,0,1,1.44,2.49C1292.23,1297.76,1291.59,1298.13,1290.79,1297.67Z" fill="#1da1dc"/></g><g opacity="0.5"><path d="M1207.79,1146.53l-39.21-22.64a5.72,5.72,0,0,1-2.59-4.48c0-1.64,1.16-2.3,2.59-1.47l39.21,22.64a5.72,5.72,0,0,1,2.6,4.47C1210.39,1146.69,1209.22,1147.35,1207.79,1146.53Z" fill="#66717b" opacity="0.51"/></g><g opacity="0.3"><path d="M1152.89,1192.75l-17.28-10a2.51,2.51,0,0,1-1.16-2c0-.73.52-1,1.16-.66l17.28,10a2.54,2.54,0,0,1,1.15,2C1154,1192.83,1153.53,1193.12,1152.89,1192.75Z" fill="#66717b" opacity="0.51"/></g><g opacity="0.3"><path d="M1174.82,1221.08l-39.21-22.64a5.69,5.69,0,0,1-2.6-4.47c0-1.64,1.16-2.3,2.6-1.48l39.21,22.64a5.72,5.72,0,0,1,2.59,4.48C1177.41,1221.25,1176.25,1221.91,1174.82,1221.08Z" fill="#66717b" opacity="0.51"/></g><g opacity="0.4"><path d="M1251.91,1275.22l-118-68.1a3.19,3.19,0,0,1-1.44-2.49c0-.91.65-1.28,1.44-.82l118,68.1a3.18,3.18,0,0,1,1.44,2.49C1253.35,1275.31,1252.71,1275.68,1251.91,1275.22Z" fill="#09c997"/></g><g opacity="0.5"><path d="M1290.79,1180.93l-.56.19a2.62,2.62,0,0,1-2.7-.27,7.18,7.18,0,0,1-2.14-2l-3.82,4a8.39,8.39,0,0,1,.56,2.78,3.14,3.14,0,0,1-1.35,3l-.45.26-3.93-6.65-5.29,1.33-.67-1.29,3.93-3.4-3.82-6.6.45-.25a3.23,3.23,0,0,1,3.26.33,8.9,8.9,0,0,1,2.14,1.88l5.4-1.26a6.61,6.61,0,0,1-.68-2.84,2.75,2.75,0,0,1,1.12-2.45l.57-.19Z" fill="#0088a1"/><path d="M1290.79,1180.93l-.56.19a2.62,2.62,0,0,1-2.7-.27,7.18,7.18,0,0,1-2.14-2l-3.82,4a8.39,8.39,0,0,1,.56,2.78,3.14,3.14,0,0,1-1.35,3l-.45.26-3.93-6.65-5.29,1.33-.67-1.29,3.93-3.4-3.82-6.6.45-.25a3.23,3.23,0,0,1,3.26.33,8.9,8.9,0,0,1,2.14,1.88l5.4-1.26a6.61,6.61,0,0,1-.68-2.84,2.75,2.75,0,0,1,1.12-2.45l.57-.19Z" fill="#09c997" fill-rule="evenodd"/></g><g opacity="0.08"><polygon points="1305.85 1262.22 1118.41 1154 1118.41 1142.62 1305.85 1250.83 1305.85 1262.22" fill="#ed4c59"/></g><g opacity="0.5"><path d="M1150,1113l-13.15-7.6a6.36,6.36,0,0,1-2.9-5v-15.08c0-1.83,1.3-2.57,2.9-1.64l13.15,7.59a6.38,6.38,0,0,1,2.89,5v15.08C1152.89,1113.19,1151.59,1113.93,1150,1113Z" fill="#66717b" opacity="0.51"/></g><g opacity="0.6"><path d="M1712.7,1553.91a5.68,5.68,0,0,1-2.82-.85l-177.11-102.25a12.31,12.31,0,0,1-5.66-9.77V1299c0-2.78,1.55-4.65,3.85-4.65a5.65,5.65,0,0,1,2.81.85l177.11,102.25a12.31,12.31,0,0,1,5.66,9.77v142.08C1716.54,1552,1715,1553.91,1712.7,1553.91Z" fill="#fff"/><path d="M1710.38,1552.2l-177.1-102.26a11.34,11.34,0,0,1-5.17-8.9V1299c0-3.27,2.31-4.58,5.17-2.94l177.1,102.25a11.39,11.39,0,0,1,5.16,8.91v142.08C1715.54,1552.53,1713.23,1553.84,1710.38,1552.2Z" fill="#fff"/><path d="M1531,1295.31a4.77,4.77,0,0,1,2.32.71l177.1,102.25a11.39,11.39,0,0,1,5.16,8.91v142.08c0,2.31-1.15,3.65-2.84,3.65a4.71,4.71,0,0,1-2.32-.71l-177.1-102.26a11.34,11.34,0,0,1-5.17-8.9V1299c0-2.31,1.16-3.65,2.85-3.65m0-2h0c-2.86,0-4.85,2.33-4.85,5.65V1441a13.41,13.41,0,0,0,6.17,10.64l177.1,102.25a6.63,6.63,0,0,0,3.32,1c2.85,0,4.84-2.33,4.84-5.65V1407.18a13.4,13.4,0,0,0-6.16-10.64l-177.1-102.25a6.68,6.68,0,0,0-3.32-1Z" fill="#fff"/><g opacity="0.05"><path d="M1715.54,1498.76l-187.43-108.22V1299c0-3.27,2.31-4.58,5.17-2.94l177.1,102.25a11.39,11.39,0,0,1,5.16,8.91Z" fill="#09c997"/></g><g opacity="0.3"><path d="M1601.58,1354.9l-24.46-14.12a1.91,1.91,0,0,1-.86-1.49c0-.55.39-.77.86-.49l24.46,14.12a1.88,1.88,0,0,1,.86,1.49C1602.44,1355,1602.06,1355.18,1601.58,1354.9Z" fill="#1da1dc"/></g><g opacity="0.3"><path d="M1555.79,1376.75l-10.49-6a5.1,5.1,0,0,1-2.3-4c0-1.46,1-2,2.3-1.31l10.49,6.06a5,5,0,0,1,2.31,4C1558.1,1376.9,1557.07,1377.49,1555.79,1376.75Z" fill="#1da1dc"/></g><g opacity="0.08"><polygon points="1715.54 1498.76 1528.11 1390.54 1528.11 1379.15 1715.54 1487.37 1715.54 1498.76" fill="#fcc827"/></g><g opacity="0.6"><polygon points="1715.34 1487.91 1528.11 1379.81 1528.11 1378.49 1715.34 1486.59 1715.34 1487.91" fill="#fcc827"/></g><g opacity="0.3"><path d="M1700.49,1534.21l-156.84-90.55a3.18,3.18,0,0,1-1.44-2.49c0-.91.64-1.28,1.44-.82l156.84,90.55a3.19,3.19,0,0,1,1.44,2.49C1701.93,1534.3,1701.28,1534.67,1700.49,1534.21Z" fill="#1da1dc"/></g><g opacity="0.5"><path d="M1617.49,1383.06l-39.21-22.63a5.71,5.71,0,0,1-2.6-4.48c0-1.64,1.16-2.3,2.6-1.47l39.21,22.63a5.72,5.72,0,0,1,2.59,4.48C1620.08,1383.23,1618.92,1383.89,1617.49,1383.06Z" fill="#66717b" opacity="0.51"/></g><g opacity="0.3"><path d="M1562.59,1429.29l-17.29-10a2.53,2.53,0,0,1-1.15-2c0-.74.52-1,1.15-.66l17.29,10a2.53,2.53,0,0,1,1.15,2C1563.74,1429.36,1563.22,1429.66,1562.59,1429.29Z" fill="#66717b" opacity="0.51"/></g><g opacity="0.3"><path d="M1584.51,1457.62,1545.3,1435a5.71,5.71,0,0,1-2.59-4.47c0-1.64,1.16-2.3,2.59-1.48l39.21,22.64a5.71,5.71,0,0,1,2.6,4.47C1587.11,1457.79,1586,1458.45,1584.51,1457.62Z" fill="#66717b" opacity="0.51"/></g><g opacity="0.4"><path d="M1648,1503.91l-104.36-60.25a3.18,3.18,0,0,1-1.44-2.49c0-.91.64-1.28,1.44-.82L1648,1500.6a3.18,3.18,0,0,1,1.44,2.49C1649.45,1504,1648.81,1504.37,1648,1503.91Z" fill="#09c997"/></g><path d="M1700.49,1417.46l-.56.2a2.64,2.64,0,0,1-2.7-.27,7.19,7.19,0,0,1-2.14-2l-3.82,4a8.65,8.65,0,0,1,.56,2.77,3.15,3.15,0,0,1-1.35,3l-.45.26-3.94-6.66-5.28,1.34-.68-1.3,3.94-3.4-3.82-6.59.45-.25a3.23,3.23,0,0,1,3.26.33,8.86,8.86,0,0,1,2.13,1.88l5.4-1.27a6.52,6.52,0,0,1-.67-2.83,2.75,2.75,0,0,1,1.12-2.45l.56-.19Z" fill="#0088a1"/><path d="M1700.49,1417.46l-.56.2a2.64,2.64,0,0,1-2.7-.27,7.19,7.19,0,0,1-2.14-2l-3.82,4a8.65,8.65,0,0,1,.56,2.77,3.15,3.15,0,0,1-1.35,3l-.45.26-3.94-6.66-5.28,1.34-.68-1.3,3.94-3.4-3.82-6.59.45-.25a3.23,3.23,0,0,1,3.26.33,8.86,8.86,0,0,1,2.13,1.88l5.4-1.27a6.52,6.52,0,0,1-.67-2.83,2.75,2.75,0,0,1,1.12-2.45l.56-.19Z" fill="#09c997" fill-rule="evenodd"/><g opacity="0.5"><path d="M1543.69,1326.14v6.62a9.55,9.55,0,0,0,2.21,5.67l5,6.2c1.37,1.7,3,2.67,4.42,2.56l5-.43c1.37-.11,2.21-1.3,2.21-3.11V1337a9.55,9.55,0,0,0-2.21-5.66l-5-6.2c-1.37-1.7-3-2.67-4.42-2.56l-5,.43C1544.53,1323.14,1543.69,1324.33,1543.69,1326.14Z" fill="#66717b" opacity="0.51"/></g></g><g clip-path="url(#b51e1ca9-9acc-4f2d-9896-7dc2e675d3b8)"><g opacity="0.15"><path d="M1098.15,1547.24a5.66,5.66,0,0,1-2.82-.84l-177.1-102.25a12.32,12.32,0,0,1-5.66-9.77V1292.3c0-2.78,1.54-4.65,3.84-4.65a5.66,5.66,0,0,1,2.82.84l177.1,102.25a12.33,12.33,0,0,1,5.67,9.77v142.08C1102,1545.37,1100.45,1547.24,1098.15,1547.24Z" fill="#fff"/><path d="M1095.83,1545.53l-177.1-102.25a11.38,11.38,0,0,1-5.16-8.9V1292.3c0-3.27,2.31-4.59,5.16-2.94l177.1,102.25a11.36,11.36,0,0,1,5.17,8.9v142.08C1101,1545.86,1098.69,1547.18,1095.83,1545.53Z" fill="#fff"/><path d="M916.41,1288.65a4.71,4.71,0,0,1,2.32.71l177.1,102.25a11.36,11.36,0,0,1,5.17,8.9v142.08c0,2.32-1.16,3.65-2.85,3.65a4.77,4.77,0,0,1-2.32-.71l-177.1-102.25a11.38,11.38,0,0,1-5.16-8.9V1292.3c0-2.32,1.15-3.65,2.84-3.65m0-2h0c-2.85,0-4.84,2.32-4.84,5.65v142.08a13.38,13.38,0,0,0,6.16,10.63l177.1,102.25a6.68,6.68,0,0,0,3.32,1c2.86,0,4.85-2.32,4.85-5.65V1400.51a13.38,13.38,0,0,0-6.17-10.63l-177.1-102.25a6.63,6.63,0,0,0-3.32-1Z" fill="#fff"/><g opacity="0.05"><path d="M1101,1480.7,913.57,1372.49V1292.3c0-3.27,2.31-4.59,5.16-2.94l177.1,102.25a11.36,11.36,0,0,1,5.17,8.9Z" fill="#09c997"/></g><g opacity="0.3"><path d="M987,1348.24l-24.45-14.12a1.92,1.92,0,0,1-.87-1.5c0-.54.39-.76.87-.49L987,1346.25a1.92,1.92,0,0,1,.87,1.49C987.9,1348.29,987.51,1348.51,987,1348.24Z" fill="#1da1dc"/></g><g opacity="0.3"><path d="M941.25,1370.09,930.76,1364a5.08,5.08,0,0,1-2.31-4c0-1.46,1-2,2.31-1.32l10.49,6.06a5.1,5.1,0,0,1,2.3,4C943.55,1370.24,942.52,1370.82,941.25,1370.09Z" fill="#1da1dc"/></g><g opacity="0.6"><polygon points="1058.43 1456.79 913.57 1373.15 913.57 1371.83 1058.43 1455.46 1058.43 1456.79" fill="#1da1dc"/></g><g opacity="0.3"><path d="M1085.94,1527.54,929.11,1437a3.17,3.17,0,0,1-1.45-2.48c0-.92.65-1.28,1.45-.82l156.83,90.55a3.17,3.17,0,0,1,1.45,2.48C1087.39,1527.63,1086.74,1528,1085.94,1527.54Z" fill="#1da1dc"/></g><g opacity="0.5"><path d="M1002.94,1376.4l-39.21-22.64a5.72,5.72,0,0,1-2.59-4.47c0-1.65,1.16-2.31,2.59-1.48l39.21,22.64a5.71,5.71,0,0,1,2.6,4.47C1005.54,1376.56,1004.38,1377.23,1002.94,1376.4Z" fill="#66717b" opacity="0.51"/></g><g opacity="0.3"><path d="M948,1422.62l-17.28-10a2.54,2.54,0,0,1-1.15-2c0-.73.51-1,1.15-.66L948,1420a2.54,2.54,0,0,1,1.15,2C949.19,1422.7,948.68,1423,948,1422.62Z" fill="#66717b" opacity="0.51"/></g><g opacity="0.3"><path d="M970,1451l-39.21-22.63a5.73,5.73,0,0,1-2.6-4.48c0-1.64,1.17-2.3,2.6-1.47L970,1445a5.72,5.72,0,0,1,2.59,4.48C972.56,1451.12,971.4,1451.78,970,1451Z" fill="#66717b" opacity="0.51"/></g><g opacity="0.4"><path d="M1033.47,1497.24,929.11,1437a3.17,3.17,0,0,1-1.45-2.48c0-.92.65-1.28,1.45-.82l104.36,60.25a3.19,3.19,0,0,1,1.44,2.48C1034.91,1497.34,1034.26,1497.7,1033.47,1497.24Z" fill="#09c997"/></g><g opacity="0.08"><polygon points="1101 1492.09 913.57 1383.88 913.57 1372.49 1101 1480.7 1101 1492.09" fill="#39c2ec"/></g><g opacity="0.5"><path d="M933.31,1331.22v-8a3.26,3.26,0,0,0-1.47-2.54l-1.09-.62c-.91-.53-1.64-.11-1.64.93v10.7a3.63,3.63,0,0,0,1.64,2.84l9.33,5.38c.91.53,1.65.11,1.65-.94v-1.24a3.22,3.22,0,0,0-1.47-2.53Z" fill="#66717b" opacity="0.51"/></g><g opacity="0.5"><path d="M946.39,1321.89l-9.32-5.39c-.91-.52-1.65-.1-1.65.94v1.24a3.24,3.24,0,0,0,1.47,2.54l7,4v8a3.26,3.26,0,0,0,1.47,2.54l1.08.62c.91.53,1.65.11,1.65-.94v-10.69A3.64,3.64,0,0,0,946.39,1321.89Z" fill="#66717b" opacity="0.51"/></g></g><g opacity="0.3"><path d="M1303,1665.51a5.66,5.66,0,0,1-2.82-.84l-177.1-102.26a12.29,12.29,0,0,1-5.67-9.76V1410.57c0-2.79,1.55-4.65,3.85-4.65a5.66,5.66,0,0,1,2.82.84L1301.18,1509a12.33,12.33,0,0,1,5.67,9.77v142.08C1306.85,1663.64,1305.3,1665.51,1303,1665.51Z" fill="#fff"/><path d="M1300.68,1663.8l-177.1-102.25a11.39,11.39,0,0,1-5.17-8.9V1410.57c0-3.27,2.32-4.59,5.17-2.94l177.1,102.25a11.37,11.37,0,0,1,5.17,8.9v142.08C1305.85,1664.13,1303.53,1665.45,1300.68,1663.8Z" fill="#fff"/><path d="M1121.26,1406.92a4.74,4.74,0,0,1,2.32.71l177.1,102.25a11.37,11.37,0,0,1,5.17,8.9v142.08c0,2.31-1.16,3.65-2.85,3.65a4.77,4.77,0,0,1-2.32-.71l-177.1-102.25a11.39,11.39,0,0,1-5.17-8.9V1410.57c0-2.32,1.16-3.65,2.85-3.65m0-2h0c-2.85,0-4.85,2.32-4.85,5.65v142.08a13.41,13.41,0,0,0,6.17,10.63l177.1,102.25a6.65,6.65,0,0,0,3.32,1c2.85,0,4.85-2.32,4.85-5.65V1518.78a13.38,13.38,0,0,0-6.17-10.63l-177.1-102.26a6.74,6.74,0,0,0-3.32-1Z" fill="#fff"/><g opacity="0.05"><path d="M1305.85,1610.36l-187.44-108.21v-91.58c0-3.27,2.32-4.59,5.17-2.94l177.1,102.25a11.37,11.37,0,0,1,5.17,8.9Z" fill="#09c997"/></g><g opacity="0.3"><path d="M1191.88,1466.5l-24.45-14.11a1.92,1.92,0,0,1-.87-1.5c0-.54.39-.76.87-.49l24.45,14.12a1.91,1.91,0,0,1,.87,1.49C1192.75,1466.56,1192.36,1466.78,1191.88,1466.5Z" fill="#1da1dc"/></g><g opacity="0.3"><path d="M1146.1,1488.36l-10.49-6.06a5,5,0,0,1-2.31-4c0-1.46,1-2,2.31-1.32l10.49,6.06a5.07,5.07,0,0,1,2.3,4C1148.4,1488.51,1147.37,1489.09,1146.1,1488.36Z" fill="#1da1dc"/></g><g opacity="0.3"><path d="M1290.79,1645.81,1134,1555.26a3.19,3.19,0,0,1-1.44-2.49c0-.91.65-1.28,1.44-.82l156.84,90.56a3.14,3.14,0,0,1,1.44,2.48C1292.23,1645.9,1291.59,1646.27,1290.79,1645.81Z" fill="#1da1dc"/></g><g opacity="0.5"><path d="M1207.79,1494.67,1168.58,1472a5.72,5.72,0,0,1-2.59-4.47c0-1.65,1.16-2.31,2.59-1.48l39.21,22.64a5.73,5.73,0,0,1,2.6,4.47C1210.39,1494.83,1209.22,1495.5,1207.79,1494.67Z" fill="#66717b" opacity="0.51"/></g><g opacity="0.3"><path d="M1152.89,1540.89l-17.28-10a2.55,2.55,0,0,1-1.16-2c0-.73.52-1,1.16-.66l17.28,10a2.54,2.54,0,0,1,1.15,2C1154,1541,1153.53,1541.26,1152.89,1540.89Z" fill="#66717b" opacity="0.51"/></g><g opacity="0.3"><path d="M1174.82,1569.22l-39.21-22.63a5.71,5.71,0,0,1-2.6-4.48c0-1.64,1.16-2.3,2.6-1.47l39.21,22.63a5.72,5.72,0,0,1,2.59,4.48C1177.41,1569.39,1176.25,1570.05,1174.82,1569.22Z" fill="#66717b" opacity="0.51"/></g><g opacity="0.4"><path d="M1251.91,1623.36l-118-68.1a3.19,3.19,0,0,1-1.44-2.49c0-.91.65-1.28,1.44-.82l118,68.11a3.16,3.16,0,0,1,1.44,2.48C1253.35,1623.45,1252.71,1623.82,1251.91,1623.36Z" fill="#09c997"/></g><g opacity="0.5"><path d="M1150.76,1446.36l-14.68-8.48a5.12,5.12,0,0,1-2.13-4.07V1433c0-1.57,1-2.29,2.13-1.61l14.68,8.47a5.09,5.09,0,0,1,2.13,4.07v.8C1152.89,1446.31,1151.94,1447,1150.76,1446.36Zm2.13,6v-.79a5.09,5.09,0,0,0-2.13-4.07l-14.68-8.48c-1.17-.68-2.13,0-2.13,1.61v.8a5.12,5.12,0,0,0,2.13,4.07l14.68,8.47C1151.94,1454.65,1152.89,1453.93,1152.89,1452.36Zm0,7.62v-.8a5.09,5.09,0,0,0-2.13-4.07l-14.68-8.47c-1.17-.68-2.13,0-2.13,1.61v.8a5.1,5.1,0,0,0,2.13,4.06l14.68,8.48C1151.94,1462.27,1152.89,1461.55,1152.89,1460Z" fill="#66717b" opacity="0.51"/></g></g><path d="M1505.53,1782.07l-177.1-102.25a11.36,11.36,0,0,1-5.17-8.9V1528.83c0-3.26,2.31-4.58,5.17-2.93l177.1,102.25a11.37,11.37,0,0,1,5.17,8.9v142.08C1510.7,1782.4,1508.38,1783.72,1505.53,1782.07Z" fill="#fff"/><g opacity="0.05"><path d="M1510.7,1785.05l-187.44-108.21v-148c0-3.26,2.31-4.58,5.17-2.93l177.1,102.25a11.37,11.37,0,0,1,5.17,8.9Z" fill="#09c997"/></g><g opacity="0.3"><path d="M1396.73,1584.77l-24.45-14.12a1.89,1.89,0,0,1-.87-1.49c0-.54.39-.76.87-.49l24.45,14.12a1.91,1.91,0,0,1,.87,1.49C1397.6,1584.83,1397.21,1585.05,1396.73,1584.77Z" fill="#1da1dc"/></g><g opacity="0.3"><path d="M1465.39,1671.38l-124.93-72.13a2.55,2.55,0,0,1-1.16-2c0-.73.52-1,1.16-.66l124.93,72.13a2.56,2.56,0,0,1,1.15,2C1466.54,1671.45,1466,1671.75,1465.39,1671.38Z" fill="#1da1dc"/></g><g opacity="0.5"><path d="M1412.64,1612.94l-39.21-22.64a5.73,5.73,0,0,1-2.6-4.47c0-1.65,1.17-2.31,2.6-1.48l39.21,22.64a5.71,5.71,0,0,1,2.59,4.47C1415.23,1613.1,1414.07,1613.76,1412.64,1612.94Z" fill="#66717b" opacity="0.51"/></g><g opacity="0.3"><path d="M1379.67,1635.41l-39.21-22.63a5.71,5.71,0,0,1-2.6-4.48c0-1.64,1.16-2.3,2.6-1.47l39.21,22.63a5.72,5.72,0,0,1,2.59,4.48C1382.26,1635.58,1381.1,1636.24,1379.67,1635.41Z" fill="#66717b" opacity="0.51"/></g><g opacity="0.5"><path d="M1360.36,1571.12c.65,1.52.65,3,0,3.79-2.58,3-7,3.42-12.09.5s-9.5-8.46-12.09-14.46c-.65-1.52-.65-3,0-3.79,2.59-3,7-3.42,12.09-.5S1357.78,1565.12,1360.36,1571.12Z" fill="#66717b" opacity="0.51"/></g><g opacity="0.4"><path d="M1492.33,1659.5l-16-9.27a9.38,9.38,0,0,1-4.27-7.35h0c0-2.7,1.91-3.79,4.27-2.43l16,9.27a9.4,9.4,0,0,1,4.26,7.35h0C1496.59,1659.77,1494.68,1660.86,1492.33,1659.5Z" fill="#7a67e5" fill-rule="evenodd"/></g><g opacity="0.5"><path d="M1712.7,1902.05a5.68,5.68,0,0,1-2.82-.85L1532.77,1799a12.31,12.31,0,0,1-5.66-9.76V1647.1c0-2.78,1.55-4.64,3.85-4.64a5.63,5.63,0,0,1,2.81.84l177.11,102.25a12.31,12.31,0,0,1,5.66,9.77V1897.4C1716.54,1900.18,1715,1902.05,1712.7,1902.05Z" fill="#fff"/><path d="M1710.38,1900.34l-177.1-102.25a11.36,11.36,0,0,1-5.17-8.9V1647.1c0-3.27,2.31-4.58,5.17-2.93l177.1,102.25a11.36,11.36,0,0,1,5.16,8.9V1897.4C1715.54,1900.67,1713.23,1902,1710.38,1900.34Z" fill="#fff"/><path d="M1531,1643.46a4.67,4.67,0,0,1,2.32.71l177.1,102.25a11.36,11.36,0,0,1,5.16,8.9V1897.4c0,2.31-1.15,3.65-2.84,3.65a4.71,4.71,0,0,1-2.32-.71l-177.1-102.25a11.36,11.36,0,0,1-5.17-8.9V1647.1c0-2.31,1.16-3.64,2.85-3.64m0-2h0c-2.86,0-4.85,2.32-4.85,5.64v142.09a13.41,13.41,0,0,0,6.17,10.63l177.1,102.25a6.63,6.63,0,0,0,3.32,1c2.85,0,4.84-2.32,4.84-5.65V1755.32a13.4,13.4,0,0,0-6.16-10.64l-177.1-102.25a6.67,6.67,0,0,0-3.32-1Z" fill="#fff"/><g opacity="0.05"><path d="M1715.54,1846.9l-187.43-108.22V1647.1c0-3.27,2.31-4.58,5.17-2.93l177.1,102.25a11.36,11.36,0,0,1,5.16,8.9Z" fill="#09c997"/></g><g opacity="0.3"><path d="M1601.58,1703l-24.46-14.12a1.91,1.91,0,0,1-.86-1.49c0-.55.39-.77.86-.49l24.46,14.12a1.89,1.89,0,0,1,.86,1.49C1602.44,1703.1,1602.06,1703.32,1601.58,1703Z" fill="#1da1dc"/></g><g opacity="0.3"><path d="M1555.79,1724.9l-10.49-6.06a5.08,5.08,0,0,1-2.3-4c0-1.46,1-2,2.3-1.31l10.49,6.06a5,5,0,0,1,2.31,4C1558.1,1725,1557.07,1725.63,1555.79,1724.9Z" fill="#1da1dc"/></g><g opacity="0.3"><path d="M1700.49,1882.35l-156.84-90.55a3.16,3.16,0,0,1-1.44-2.49c0-.91.64-1.28,1.44-.82L1700.49,1879a3.2,3.2,0,0,1,1.44,2.49C1701.93,1882.44,1701.28,1882.81,1700.49,1882.35Z" fill="#1da1dc"/></g><g opacity="0.5"><path d="M1617.49,1731.21l-39.21-22.64a5.71,5.71,0,0,1-2.6-4.47c0-1.65,1.16-2.31,2.6-1.48l39.21,22.64a5.71,5.71,0,0,1,2.59,4.47C1620.08,1731.37,1618.92,1732,1617.49,1731.21Z" fill="#66717b" opacity="0.51"/></g><g opacity="0.3"><path d="M1562.59,1777.43l-17.29-10a2.56,2.56,0,0,1-1.15-2c0-.73.52-1,1.15-.66l17.29,10a2.56,2.56,0,0,1,1.15,2C1563.74,1777.51,1563.22,1777.8,1562.59,1777.43Z" fill="#66717b" opacity="0.51"/></g><g opacity="0.3"><path d="M1584.51,1805.76l-39.21-22.63a5.74,5.74,0,0,1-2.59-4.48c0-1.64,1.16-2.3,2.59-1.47l39.21,22.63a5.71,5.71,0,0,1,2.6,4.48C1587.11,1805.93,1586,1806.59,1584.51,1805.76Z" fill="#66717b" opacity="0.51"/></g><g opacity="0.4"><path d="M1648,1852.05l-104.36-60.25a3.16,3.16,0,0,1-1.44-2.49c0-.91.64-1.28,1.44-.82L1648,1848.75a3.16,3.16,0,0,1,1.44,2.48C1649.45,1852.14,1648.81,1852.51,1648,1852.05Z" fill="#09c997"/></g><g opacity="0.5"><path d="M1538.37,1676.76c0-4.73,3.35-6.63,7.47-4.25a11.48,11.48,0,0,1,1.2.81c1.7-1.8,4.52-2,7.71-.15,4.07,2.36,7.54,7.33,8.85,12.25a14,14,0,0,1,5.89,10.62c0,4-2.83,5.62-6.32,3.6l-17.58-10.14v0C1541.58,1687,1538.37,1681.39,1538.37,1676.76Z" fill="#66717b" opacity="0.51"/></g></g><polygon points="1305.85 1531.86 1305.85 1490.39 1117.47 1380.34 1118.41 1502.15 1305.85 1610.36 1305.85 1531.86" fill="url(#bc605be2-88b0-4632-945a-4887be5e98c0)"/><g opacity="0.5"><g opacity="0.3"><path d="M1700.49,1882.35l-156.84-90.55a3.16,3.16,0,0,1-1.44-2.49c0-.91.64-1.28,1.44-.82L1700.49,1879a3.2,3.2,0,0,1,1.44,2.49C1701.93,1882.44,1701.28,1882.81,1700.49,1882.35Z" fill="#1da1dc"/></g></g><path d="M1710.38,1900.34l-177.1-102.25a11.36,11.36,0,0,1-5.17-8.9V1647.1c0-3.27,2.31-4.58,5.17-2.93l177.1,102.25a11.36,11.36,0,0,1,5.16,8.9V1897.4C1715.54,1900.67,1713.23,1902,1710.38,1900.34Z" fill="none" stroke="#61eebb" stroke-miterlimit="10" stroke-opacity="0.15" stroke-width="1.02"/></g><path d="M1098.15,1373.17a5.66,5.66,0,0,1-2.82-.84l-177.1-102.26a12.28,12.28,0,0,1-5.66-9.76V1118.22c0-2.77,1.54-4.64,3.84-4.64a5.66,5.66,0,0,1,2.82.84l177.1,102.25a12.33,12.33,0,0,1,5.67,9.77v142.08C1102,1371.3,1100.45,1373.17,1098.15,1373.17Z" fill="#fff"/><path d="M1095.83,1371.46l-177.1-102.25a11.38,11.38,0,0,1-5.16-8.9V1118.22c0-3.26,2.31-4.58,5.16-2.93l177.1,102.25a11.34,11.34,0,0,1,5.17,8.9v142.08C1101,1371.79,1098.69,1373.11,1095.83,1371.46Z" fill="#fff"/><path d="M916.41,1114.58a4.71,4.71,0,0,1,2.32.71l177.1,102.25a11.34,11.34,0,0,1,5.17,8.9v142.08c0,2.31-1.16,3.65-2.85,3.65a4.77,4.77,0,0,1-2.32-.71l-177.1-102.25a11.38,11.38,0,0,1-5.16-8.9V1118.22c0-2.31,1.15-3.64,2.84-3.64m0-2h0c-2.85,0-4.84,2.32-4.84,5.64v142.09a13.4,13.4,0,0,0,6.16,10.63l177.1,102.25a6.68,6.68,0,0,0,3.32,1c2.86,0,4.85-2.32,4.85-5.65V1226.44a13.38,13.38,0,0,0-6.17-10.63l-177.1-102.26a6.71,6.71,0,0,0-3.32-1Z" fill="#fff"/><g opacity="0.05"><path d="M1101,1274.63,913.57,1166.42v-48.2c0-3.26,2.31-4.58,5.16-2.93l177.1,102.25a11.34,11.34,0,0,1,5.17,8.9Z" fill="#09c997"/></g><g opacity="0.3"><path d="M987,1174.16,962.58,1160a1.89,1.89,0,0,1-.87-1.49c0-.54.39-.76.87-.49L987,1172.18a1.91,1.91,0,0,1,.87,1.49C987.9,1174.22,987.51,1174.44,987,1174.16Z" fill="#1da1dc"/></g><g opacity="0.5"><path d="M1002.94,1202.33l-39.21-22.64a5.72,5.72,0,0,1-2.59-4.47c0-1.65,1.16-2.31,2.59-1.48l39.21,22.64a5.69,5.69,0,0,1,2.6,4.47C1005.54,1202.49,1004.38,1203.15,1002.94,1202.33Z" fill="#66717b" opacity="0.51"/></g><g opacity="0.3"><path d="M1021,1285l-27.4-15.82a2.54,2.54,0,0,1-1.15-2c0-.73.51-1,1.15-.66l27.4,15.82a2.55,2.55,0,0,1,1.16,2C1022.14,1285,1021.62,1285.32,1021,1285Z" fill="#66717b" opacity="0.51"/></g><g opacity="0.3"><path d="M1014.11,1272.12l-13.65-7.88a5.73,5.73,0,0,1-2.6-4.47c0-1.65,1.17-2.31,2.6-1.48l13.65,7.88a5.71,5.71,0,0,1,2.59,4.47C1016.7,1272.28,1015.54,1272.94,1014.11,1272.12Z" fill="#66717b" opacity="0.51"/></g><g opacity="0.5"><path d="M941.46,1145l-5.78-3.34c-1.58-.91-3-.79-3.83.33l-2.88,4.07c-.79,1.11-.79,3,0,5.07l2.88,7.4a9.73,9.73,0,0,0,3.83,4.75l5.78,3.33c1.58.91,3,.79,3.83-.32l2.89-4.07c.79-1.11.79-3,0-5.07l-2.89-7.4A9.64,9.64,0,0,0,941.46,1145Z" fill="#66717b" opacity="0.51"/></g><path d="M1507.85,1609.71a5.68,5.68,0,0,1-2.82-.85l-177.1-102.25a12.29,12.29,0,0,1-5.67-9.76V1354.76c0-2.78,1.55-4.64,3.85-4.64a5.66,5.66,0,0,1,2.82.84L1506,1453.21a12.31,12.31,0,0,1,5.67,9.77v142.08C1511.7,1607.84,1510.15,1609.71,1507.85,1609.71Z" fill="#fff"/><path d="M1505.53,1608l-177.1-102.25a11.38,11.38,0,0,1-5.17-8.9V1354.76c0-3.27,2.31-4.58,5.17-2.93l177.1,102.25a11.37,11.37,0,0,1,5.17,8.9v142.08C1510.7,1608.33,1508.38,1609.64,1505.53,1608Z" fill="#fff"/><path d="M1326.11,1351.12a4.67,4.67,0,0,1,2.32.71l177.1,102.25a11.37,11.37,0,0,1,5.17,8.9v142.08c0,2.31-1.16,3.65-2.85,3.65a4.74,4.74,0,0,1-2.32-.71l-177.1-102.25a11.38,11.38,0,0,1-5.17-8.9V1354.76c0-2.31,1.16-3.64,2.85-3.64m0-2h0c-2.86,0-4.85,2.32-4.85,5.64v142.09a13.41,13.41,0,0,0,6.17,10.63l177.1,102.25a6.65,6.65,0,0,0,3.32,1c2.85,0,4.85-2.32,4.85-5.65V1463a13.41,13.41,0,0,0-6.17-10.64l-177.1-102.25a6.64,6.64,0,0,0-3.32-1Z" fill="#fff"/><g opacity="0.05"><path d="M1510.7,1543.17,1323.26,1435v-80.2c0-3.27,2.31-4.58,5.17-2.93l177.1,102.25a11.37,11.37,0,0,1,5.17,8.9Z" fill="#09c997"/></g><g opacity="0.3"><path d="M1396.73,1410.7l-24.45-14.12a1.89,1.89,0,0,1-.87-1.49c0-.55.39-.77.87-.49l24.45,14.12a1.91,1.91,0,0,1,.87,1.49C1397.6,1410.76,1397.21,1411,1396.73,1410.7Z" fill="#1da1dc"/></g><g opacity="0.3"><path d="M1350.94,1432.56l-10.48-6.06a5.08,5.08,0,0,1-2.31-4c0-1.46,1-2,2.31-1.31l10.48,6.06a5,5,0,0,1,2.31,4C1353.25,1432.7,1352.22,1433.29,1350.94,1432.56Z" fill="#1da1dc"/></g><g opacity="0.5"><path d="M1412.64,1438.87l-39.21-22.64a5.73,5.73,0,0,1-2.6-4.48c0-1.64,1.17-2.3,2.6-1.47l39.21,22.64a5.71,5.71,0,0,1,2.59,4.47C1415.23,1439,1414.07,1439.69,1412.64,1438.87Z" fill="#66717b" opacity="0.51"/></g><g opacity="0.5"><path d="M1352.82,1388.74a4.8,4.8,0,0,0,.23-1.54,10.55,10.55,0,0,0-4.78-8.25c-2.64-1.52-4.78-.3-4.78,2.72a7.61,7.61,0,0,0,.23,1.81c-2,.48-3.3,2.4-3.3,5.42,0,5,3.51,11,7.85,13.54s7.85.5,7.85-4.47A16.66,16.66,0,0,0,1352.82,1388.74Z" fill="#66717b" opacity="0.51"/></g><g opacity="0.3"><path d="M1495.64,1590l-156.84-90.55a3.19,3.19,0,0,1-1.44-2.49c0-.91.65-1.28,1.44-.82l156.84,90.55a3.18,3.18,0,0,1,1.44,2.49C1497.08,1590.1,1496.44,1590.47,1495.64,1590Z" fill="#1da1dc"/></g><g opacity="0.3"><path d="M1357.74,1485.09l-17.28-10a2.51,2.51,0,0,1-1.16-2c0-.73.52-1,1.16-.66l17.28,10a2.54,2.54,0,0,1,1.15,2C1358.89,1485.17,1358.38,1485.46,1357.74,1485.09Z" fill="#66717b" opacity="0.51"/></g><g opacity="0.3"><path d="M1379.67,1513.42l-39.21-22.64a5.69,5.69,0,0,1-2.6-4.47c0-1.64,1.16-2.3,2.6-1.48l39.21,22.64a5.72,5.72,0,0,1,2.59,4.48C1382.26,1513.59,1381.1,1514.25,1379.67,1513.42Z" fill="#66717b" opacity="0.51"/></g><g opacity="0.4"><path d="M1456.76,1567.56l-118-68.1a3.19,3.19,0,0,1-1.44-2.49c0-.91.65-1.28,1.44-.82l118,68.11a3.16,3.16,0,0,1,1.44,2.48C1458.2,1567.65,1457.56,1568,1456.76,1567.56Z" fill="#09c997"/></g><path d="M1495.64,1473.27l-.56.19a2.62,2.62,0,0,1-2.7-.27,7.18,7.18,0,0,1-2.14-2l-3.82,4a8.39,8.39,0,0,1,.56,2.78,3.17,3.17,0,0,1-1.35,3l-.45.25-3.93-6.65-5.29,1.33-.67-1.29,3.93-3.4-3.82-6.6.45-.25a3.23,3.23,0,0,1,3.26.33,8.9,8.9,0,0,1,2.14,1.88l5.39-1.26a6.59,6.59,0,0,1-.67-2.84,2.75,2.75,0,0,1,1.12-2.45l.57-.19Z" fill="#09c997" fill-rule="evenodd" opacity="0.5"/><path d="M1712.6,1727.92a5.68,5.68,0,0,1-2.82-.85l-177.11-102.25a12.31,12.31,0,0,1-5.66-9.76V1473c0-2.78,1.54-4.64,3.84-4.64a5.64,5.64,0,0,1,2.82.84l177.11,102.25a12.34,12.34,0,0,1,5.66,9.77v142.08C1716.44,1726.05,1714.9,1727.92,1712.6,1727.92Z" fill="#fff"/><path d="M1710.28,1726.21,1533.17,1624a11.38,11.38,0,0,1-5.16-8.9V1473c0-3.27,2.31-4.58,5.16-2.93l177.11,102.25a11.36,11.36,0,0,1,5.16,8.9v142.08C1715.44,1726.54,1713.13,1727.86,1710.28,1726.21Z" fill="#fff"/><path d="M1530.85,1469.33a4.61,4.61,0,0,1,2.32.71l177.11,102.25a11.36,11.36,0,0,1,5.16,8.9v142.08c0,2.31-1.16,3.65-2.84,3.65a4.71,4.71,0,0,1-2.32-.71L1533.17,1624a11.38,11.38,0,0,1-5.16-8.9V1473c0-2.31,1.16-3.64,2.84-3.64m0-2h0c-2.85,0-4.84,2.32-4.84,5.64v142.09a13.42,13.42,0,0,0,6.16,10.63l177.11,102.25a6.63,6.63,0,0,0,3.32,1c2.85,0,4.84-2.32,4.84-5.65V1581.19a13.39,13.39,0,0,0-6.16-10.63L1534.17,1468.3a6.71,6.71,0,0,0-3.32-1Z" fill="#fff"/><g opacity="0.05"><path d="M1715.44,1661.38,1528,1553.17V1473c0-3.27,2.31-4.58,5.16-2.93l177.11,102.25a11.36,11.36,0,0,1,5.16,8.9Z" fill="#09c997"/></g><g opacity="0.3"><path d="M1601.48,1528.91,1577,1514.79a1.91,1.91,0,0,1-.86-1.49c0-.54.39-.76.86-.49l24.46,14.12a1.89,1.89,0,0,1,.86,1.49C1602.34,1529,1602,1529.19,1601.48,1528.91Z" fill="#1da1dc"/></g><g opacity="0.3"><path d="M1555.69,1550.77l-10.49-6.06a5.06,5.06,0,0,1-2.3-4c0-1.47,1-2,2.3-1.32l10.49,6.06a5,5,0,0,1,2.31,4C1558,1550.91,1557,1551.5,1555.69,1550.77Z" fill="#1da1dc"/></g><g opacity="0.5"><path d="M1617.39,1557.08l-39.21-22.64a5.71,5.71,0,0,1-2.6-4.47c0-1.65,1.16-2.31,2.6-1.48l39.21,22.64a5.71,5.71,0,0,1,2.59,4.47C1620,1557.24,1618.82,1557.9,1617.39,1557.08Z" fill="#66717b" opacity="0.51"/></g><g opacity="0.4"><path d="M1700.39,1591.48l-.56.19a2.62,2.62,0,0,1-2.7-.27,6.94,6.94,0,0,1-2.14-2l-3.82,4a8.65,8.65,0,0,1,.56,2.78,3.16,3.16,0,0,1-1.35,3l-.45.25-3.94-6.65-5.28,1.33-.68-1.29,3.94-3.4-3.83-6.59.45-.26a3.23,3.23,0,0,1,3.27.34,8.6,8.6,0,0,1,2.13,1.87l5.4-1.26a6.59,6.59,0,0,1-.67-2.84,2.75,2.75,0,0,1,1.12-2.45l.56-.19Z" fill="#09c997" fill-rule="evenodd"/></g><g opacity="0.3"><path d="M1700.39,1708.22l-156.84-90.55a3.16,3.16,0,0,1-1.44-2.49c0-.91.64-1.28,1.44-.82l156.84,90.55a3.2,3.2,0,0,1,1.44,2.49C1701.83,1708.31,1701.18,1708.68,1700.39,1708.22Z" fill="#1da1dc"/></g><g opacity="0.3"><path d="M1562.49,1603.3l-17.29-10a2.56,2.56,0,0,1-1.15-2c0-.73.52-1,1.15-.66l17.29,10a2.56,2.56,0,0,1,1.15,2C1563.64,1603.38,1563.12,1603.67,1562.49,1603.3Z" fill="#66717b" opacity="0.51"/></g><g opacity="0.3"><path d="M1584.41,1631.63,1545.2,1609a5.72,5.72,0,0,1-2.59-4.48c0-1.64,1.16-2.3,2.59-1.47l39.21,22.63a5.71,5.71,0,0,1,2.6,4.48C1587,1631.8,1585.85,1632.46,1584.41,1631.63Z" fill="#66717b" opacity="0.51"/></g><g opacity="0.4"><path d="M1661.51,1685.77l-118-68.1a3.16,3.16,0,0,1-1.44-2.49c0-.91.64-1.28,1.44-.82l118,68.11A3.19,3.19,0,0,1,1663,1685C1663,1685.86,1662.3,1686.23,1661.51,1685.77Z" fill="#09c997"/></g><g opacity="0.5"><path d="M1554.5,1520.57l-11.72-6.77a4.09,4.09,0,0,1-1.86-3.21v-18.27c0-1.18.83-1.66,1.86-1.06l19.11,11c1.36.78,2.26,2.92,1.69,4l-7.39,14C1555.89,1520.89,1555.23,1521,1554.5,1520.57Z" fill="#66717b" opacity="0.51"/></g><g opacity="0.25"><path d="M936.36,923.5l-20.53-11.86a5.69,5.69,0,0,1-2.6-4.47c0-1.64,1.16-2.3,2.6-1.48l20.53,11.86A5.71,5.71,0,0,1,939,922C939,923.66,937.8,924.33,936.36,923.5Z" fill="#bec7ce"/></g><g opacity="0.5"><path d="M974.81,945.69l-20.54-11.85a5.72,5.72,0,0,1-2.59-4.47c0-1.65,1.16-2.31,2.59-1.48l20.54,11.85a5.74,5.74,0,0,1,2.59,4.48C977.4,945.86,976.24,946.52,974.81,945.69Z" fill="#66717b" opacity="0.5"/></g><g opacity="0.5"><path d="M976.54,954.74l-24-13.85a1.89,1.89,0,0,1-.86-1.49c0-.55.38-.77.86-.49l24,13.85a1.89,1.89,0,0,1,.86,1.49C977.4,954.8,977,955,976.54,954.74Z" fill="#0088a1"/></g><g opacity="0.25"><path d="M1013.25,967.89,992.72,956a5.71,5.71,0,0,1-2.6-4.48c0-1.64,1.16-2.3,2.6-1.47l20.53,11.85a5.73,5.73,0,0,1,2.6,4.47C1015.85,968.06,1014.68,968.72,1013.25,967.89Z" fill="#bec7ce"/></g><g opacity="0.25"><path d="M1051.7,990.09l-20.54-11.86a5.72,5.72,0,0,1-2.59-4.47c0-1.64,1.16-2.31,2.59-1.48l20.54,11.86a5.71,5.71,0,0,1,2.59,4.47C1054.29,990.25,1053.13,990.91,1051.7,990.09Z" fill="#bec7ce"/></g><path d="M1300.68,1489.73l-177.1-102.25a11.39,11.39,0,0,1-5.17-8.9V1236.49c0-3.27,2.32-4.58,5.17-2.93l177.1,102.25a11.37,11.37,0,0,1,5.17,8.9v142.08C1305.85,1490.06,1303.53,1491.38,1300.68,1489.73Z" fill="#9aa8b1" fill-opacity="0.31"/><path d="M1305.85,1344.71v142.08c0,2.06-.93,3.35-2.33,3.6l-45,25.61-61.61-86.2L1118.42,1320l-43.75-61.21,45.19-25.58a.24.24,0,0,1,.11-.06,3.64,3.64,0,0,1,3.61.38l177.1,102.25A11.41,11.41,0,0,1,1305.85,1344.71Z" fill="url(#aaf94c34-bc7d-4265-be80-21ab69c5da73)"/><path d="M1305.85,1344.71v142.08c0,2.06-.93,3.35-2.33,3.6l-45,25.61-61.61-86.2L1118.42,1320l-43.75-61.21,45.19-25.58a.24.24,0,0,1,.11-.06,3.64,3.64,0,0,1,3.61.38l177.1,102.25A11.41,11.41,0,0,1,1305.85,1344.71Z" fill="url(#e17a8bbe-0e32-433c-8c0b-3c88e0075fb9)"/><path d="M1255.11,1515.49,1078,1413.24a11.36,11.36,0,0,1-5.16-8.9V1262.26c0-3.27,2.31-4.58,5.16-2.94l177.1,102.25a11.38,11.38,0,0,1,5.17,8.9v142.09C1260.28,1515.83,1258,1517.14,1255.11,1515.49Z" fill="#fff"/><g opacity="0.3"><path d="M1180.26,1429l-27.4-15.82a2.5,2.5,0,0,1-1.15-2c0-.73.51-1,1.15-.66l27.4,15.82a2.55,2.55,0,0,1,1.16,2C1181.42,1429.06,1180.9,1429.35,1180.26,1429Z" fill="#66717b" opacity="0.51"/></g><g opacity="0.3"><path d="M1173.39,1416.15l-13.65-7.88a5.72,5.72,0,0,1-2.6-4.47c0-1.64,1.17-2.3,2.6-1.48l13.65,7.88a5.72,5.72,0,0,1,2.59,4.48C1176,1416.32,1174.82,1417,1173.39,1416.15Z" fill="#66717b" opacity="0.51"/></g><path d="M1260.28,1418.67l-187.43-108.22v-48.19c0-3.27,2.31-4.58,5.16-2.94l177.1,102.25a11.38,11.38,0,0,1,5.17,8.9Z" fill="#f5f8fa"/><g opacity="0.3"><path d="M1146.31,1318.2l-24.45-14.12a1.91,1.91,0,0,1-.87-1.49c0-.55.39-.77.87-.49l24.45,14.12a1.89,1.89,0,0,1,.87,1.49C1147.18,1318.26,1146.79,1318.48,1146.31,1318.2Z" fill="#1da1dc"/></g><g opacity="0.5"><path d="M1162.22,1346.36,1123,1323.73a5.74,5.74,0,0,1-2.59-4.48c0-1.64,1.16-2.3,2.59-1.47l39.21,22.63a5.71,5.71,0,0,1,2.6,4.48C1164.82,1346.53,1163.66,1347.19,1162.22,1346.36Z" fill="#66717b" opacity="0.51"/></g><g opacity="0.5"><path d="M1093.06,1306.23l-3.74-2.16a3.75,3.75,0,0,1-1.57-3v-17.62c0-1.15.7-1.68,1.57-1.18l3.74,2.16a3.75,3.75,0,0,1,1.58,3v17.62C1094.64,1306.2,1093.93,1306.74,1093.06,1306.23Zm8.25,2.67v-17.62a3.77,3.77,0,0,0-1.57-3l-1.44-.83c-.86-.5-1.57,0-1.57,1.19v17.62a3.79,3.79,0,0,0,1.57,3l1.44.83C1100.6,1310.59,1101.31,1310.06,1101.31,1308.9Zm6.74,3.89v-17.61a3.76,3.76,0,0,0-1.57-3l-1.43-.82c-.87-.51-1.57,0-1.57,1.18v17.62a3.75,3.75,0,0,0,1.57,3l1.43.83C1107.35,1314.48,1108.05,1314,1108.05,1312.79Z" fill="#66717b" opacity="0.51"/></g><path d="M1075.69,1260.61a2.88,2.88,0,0,1,1.32.44l177.1,102.26a9.46,9.46,0,0,1,4.17,7.16v142.09c0,1.43-.53,1.64-.85,1.64a2.83,2.83,0,0,1-1.32-.44L1079,1411.51a9.45,9.45,0,0,1-4.16-7.17V1262.26c0-1.43.53-1.65.84-1.65m0-2c-1.69,0-2.84,1.34-2.84,3.65v142.08a11.36,11.36,0,0,0,5.16,8.9l177.1,102.25a4.67,4.67,0,0,0,2.32.71c1.69,0,2.85-1.33,2.85-3.64V1370.47a11.38,11.38,0,0,0-5.17-8.9L1078,1259.32a4.71,4.71,0,0,0-2.32-.71Z" fill="#c2ebe8"/><line x1="1076.51" y1="1260.97" x2="1253.69" y2="1363.53" fill="none" stroke="#fff" stroke-linecap="round" stroke-miterlimit="10" stroke-width="2.41"/><polygon points="1393.31 1110.58 1314.28 1064.94 1314.28 1051.73 1393.31 1097.36 1393.31 1110.58" fill="#10141b" fill-opacity="0.05"/><polygon points="1387.29 1114.89 1308.25 1069.25 1308.25 1056.04 1387.29 1101.67 1387.29 1114.89" fill="#0088a1" opacity="0.2"/><path d="M1505.53,1433.93l-177.1-102.25a11.38,11.38,0,0,1-5.17-8.91V1180.69c0-3.27,2.31-4.58,5.17-2.94L1505.53,1280a11.37,11.37,0,0,1,5.17,8.9V1431C1510.7,1434.26,1508.38,1435.57,1505.53,1433.93Z" fill="#e2e7eb"/><path d="M1510.7,1288.6v142.08c0,2.07-.93,3.36-2.33,3.61l-22.91,12.82-83.73-73.41-78.47-109.79-23.1-74,24.54-12.78a.24.24,0,0,1,.12-.07,3.67,3.67,0,0,1,3.61.39l177.1,102.25A11.4,11.4,0,0,1,1510.7,1288.6Z" fill="url(#fb3d7d6f-9cbe-4316-bff4-67387f050ce6)"/><path d="M1481,1446.41l-177.1-102.26a11.36,11.36,0,0,1-5.16-8.9V1193.17c0-3.27,2.31-4.58,5.16-2.94L1481,1292.48a11.38,11.38,0,0,1,5.17,8.9v142.09C1486.15,1446.74,1483.84,1448.05,1481,1446.41Z" fill="#fff"/><g opacity="0.25"><path d="M1301.56,1191.52a2.88,2.88,0,0,1,1.32.44L1480,1294.22a9.46,9.46,0,0,1,4.17,7.16v142.09c0,1.43-.53,1.64-.85,1.64a2.83,2.83,0,0,1-1.32-.44l-177.1-102.25a9.45,9.45,0,0,1-4.16-7.17V1193.17c0-1.43.53-1.65.84-1.65m0-2c-1.69,0-2.84,1.34-2.84,3.65v142.08a11.36,11.36,0,0,0,5.16,8.9L1481,1446.41a4.75,4.75,0,0,0,2.32.7c1.69,0,2.85-1.33,2.85-3.64V1301.38a11.38,11.38,0,0,0-5.17-8.9l-177.1-102.25a4.71,4.71,0,0,0-2.32-.71Z" fill="#61eebb"/></g><path d="M1486.15,1381.58l-187.43-108.22v-80.19c0-3.27,2.31-4.58,5.16-2.94L1481,1292.48a11.38,11.38,0,0,1,5.17,8.9Z" fill="#f5f8fa"/><line x1="1304.63" y1="1192.98" x2="1481.81" y2="1295.54" fill="none" stroke="#fff" stroke-linecap="round" stroke-miterlimit="10" stroke-opacity="0.3" stroke-width="2.41"/><g opacity="0.3"><path d="M1372.18,1249.11,1347.73,1235a1.91,1.91,0,0,1-.87-1.49c0-.55.39-.77.87-.49l24.45,14.12a1.89,1.89,0,0,1,.87,1.49C1373.05,1249.17,1372.66,1249.39,1372.18,1249.11Z" fill="#1da1dc"/></g><g opacity="0.3"><path d="M1326.4,1271l-10.49-6a5.11,5.11,0,0,1-2.31-4c0-1.46,1-2,2.31-1.31l10.49,6.05a5.11,5.11,0,0,1,2.31,4C1328.71,1271.11,1327.67,1271.7,1326.4,1271Z" fill="#1da1dc"/></g><g opacity="0.3"><path d="M1376.77,1374l-62.51-36.09a3.19,3.19,0,0,1-1.45-2.49c0-.91.65-1.28,1.45-.82l62.51,36.09a3.18,3.18,0,0,1,1.44,2.49C1378.21,1374.05,1377.57,1374.42,1376.77,1374Z" fill="#1da1dc"/></g><g opacity="0.5"><path d="M1388.09,1277.27l-39.21-22.63a5.72,5.72,0,0,1-2.59-4.48c0-1.64,1.16-2.3,2.59-1.47l39.21,22.63a5.71,5.71,0,0,1,2.6,4.48C1390.69,1277.44,1389.53,1278.1,1388.09,1277.27Z" fill="#66717b" opacity="0.51"/></g><g opacity="0.3"><path d="M1333.19,1323.5l-17.28-10a2.54,2.54,0,0,1-1.15-2c0-.73.51-1,1.15-.65l17.28,10a2.51,2.51,0,0,1,1.16,2C1334.35,1323.57,1333.83,1323.87,1333.19,1323.5Z" fill="#66717b" opacity="0.51"/></g><g opacity="0.3"><path d="M1355.12,1351.83l-39.21-22.64a5.73,5.73,0,0,1-2.6-4.47c0-1.64,1.17-2.31,2.6-1.48l39.21,22.64a5.72,5.72,0,0,1,2.59,4.47C1357.71,1352,1356.55,1352.66,1355.12,1351.83Z" fill="#66717b" opacity="0.51"/></g><g opacity="0.4"><path d="M1354.52,1361.11l-40.26-23.24a3.19,3.19,0,0,1-1.45-2.49c0-.91.65-1.28,1.45-.82l40.26,23.25a3.17,3.17,0,0,1,1.45,2.48C1356,1361.21,1355.32,1361.57,1354.52,1361.11Z" fill="#09c997"/></g><g opacity="0.3"><path d="M1466.92,1426l-62.51-36.09a3.18,3.18,0,0,1-1.44-2.49c0-.91.64-1.28,1.44-.82l62.51,36.09a3.19,3.19,0,0,1,1.45,2.49C1468.37,1426.1,1467.72,1426.47,1466.92,1426Z" fill="#1da1dc"/></g><g opacity="0.3"><path d="M1423.34,1375.55l-17.28-10a2.56,2.56,0,0,1-1.15-2c0-.73.52-1,1.15-.65l17.28,10a2.55,2.55,0,0,1,1.16,2C1424.5,1375.62,1424,1375.92,1423.34,1375.55Z" fill="#66717b" opacity="0.51"/></g><g opacity="0.3"><path d="M1445.27,1403.88l-39.21-22.64a5.72,5.72,0,0,1-2.59-4.47c0-1.64,1.16-2.31,2.59-1.48l39.21,22.64a5.71,5.71,0,0,1,2.6,4.47C1447.87,1404.05,1446.71,1404.71,1445.27,1403.88Z" fill="#66717b" opacity="0.51"/></g><g opacity="0.4"><path d="M1444.68,1413.16l-40.27-23.24a3.18,3.18,0,0,1-1.44-2.49c0-.91.64-1.28,1.44-.82l40.27,23.25a3.19,3.19,0,0,1,1.44,2.48C1446.12,1413.26,1445.47,1413.62,1444.68,1413.16Z" fill="#09c997"/></g><path d="M1471.09,1311.67l-.56.19a2.61,2.61,0,0,1-2.7-.26,7.28,7.28,0,0,1-2.13-2l-3.83,4a8.38,8.38,0,0,1,.56,2.77,3.16,3.16,0,0,1-1.34,3l-.45.26-3.94-6.66-5.29,1.33-.67-1.29,3.93-3.4-3.82-6.59.45-.25a3.2,3.2,0,0,1,3.26.33,8.69,8.69,0,0,1,2.14,1.88l5.4-1.27a6.54,6.54,0,0,1-.68-2.84,2.7,2.7,0,0,1,1.13-2.44l.56-.19Z" fill="#10141b" fill-opacity="0.2" opacity="0.5"/><g opacity="0.75"><path d="M1466.47,1315.23l-.56.19a2.64,2.64,0,0,1-2.7-.27,7.18,7.18,0,0,1-2.14-2l-3.82,4a8.39,8.39,0,0,1,.56,2.78,3.14,3.14,0,0,1-1.35,2.95l-.45.26-3.93-6.65-5.29,1.33-.67-1.29,3.93-3.41-3.82-6.59.45-.25a3.23,3.23,0,0,1,3.26.33,8.9,8.9,0,0,1,2.14,1.88l5.4-1.26a6.61,6.61,0,0,1-.68-2.84,2.73,2.73,0,0,1,1.13-2.45l.56-.19Z" fill="#0088a1"/><path d="M1466.47,1315.23l-.56.19a2.64,2.64,0,0,1-2.7-.27,7.18,7.18,0,0,1-2.14-2l-3.82,4a8.39,8.39,0,0,1,.56,2.78,3.14,3.14,0,0,1-1.35,2.95l-.45.26-3.93-6.65-5.29,1.33-.67-1.29,3.93-3.41-3.82-6.59.45-.25a3.23,3.23,0,0,1,3.26.33,8.9,8.9,0,0,1,2.14,1.88l5.4-1.26a6.61,6.61,0,0,1-.68-2.84,2.73,2.73,0,0,1,1.13-2.45l.56-.19Z" fill="#09c997" fill-rule="evenodd"/></g><path d="M1320.49,1218.37l-6.77,9.54c-1.44,2,.36,6.63,3.23,8.29l13.55,7.81c2.87,1.66,4.66-.86,3.23-4.55l-6.77-17.35C1325.52,1218.43,1321.93,1216.35,1320.49,1218.37Z" fill="#10141b" fill-opacity="0.1" opacity="0.5"/><g opacity="0.5"><path d="M1315,1220.2l-6.77,9.54c-1.44,2,.36,6.63,3.23,8.28l13.55,7.82c2.87,1.66,4.67-.87,3.23-4.55l-6.77-17.35C1320,1220.25,1316.4,1218.18,1315,1220.2Z" fill="#66717b" opacity="0.51"/></g></g><g id="a96cb86b-f7d6-4e48-810e-a429c373fa34" data-name="Woman"><g id="ab10f567-300a-4d7b-902b-344fe249f07b" data-name="Woman"><polygon points="1146.63 1360.45 1130.34 1340.03 1144.81 1324.11 1146.14 1322.38 1146.63 1360.45" fill="url(#af0d47f8-295f-4dfd-99b4-8b5cb15cb0c6)"/><polygon points="1137.36 1356.4 1123.32 1358.16 1137.36 1302.43 1137.36 1302.43 1137.36 1356.4" fill="url(#a37ea097-1c16-4fc6-8399-85e78a3a95eb)"/><path d="M1216.84,1404.46c.88-.74,25.91-6.38,25.91-6.38v33l-9.08,5.35-23.46-12.36Z" fill="url(#b2237555-03f9-4672-86b0-566e0ef86646)"/><g id="ff26003d-f94f-4522-bc79-ef4e9692b028" data-name="Shadow"><ellipse cx="1067.48" cy="1933.96" rx="109.44" ry="189.56" transform="translate(-873.16 2989.25) rotate(-89.64)" fill="url(#b276c692-fc4a-4162-a92c-cc5f13bc3834)"/><use width="269.17" height="74.14" transform="translate(1020.69 1927.74) scale(1.02)" xlink:href="#e105f750-0766-4c71-ba1a-fef0295f7a16"/><ellipse cx="967.78" cy="1930.15" rx="24.9" ry="43.13" transform="translate(-968.42 2885.77) rotate(-89.64)" fill="url(#ac7126de-eb3f-4b1a-973d-9752e57348cd)"/></g><path d="M960,1863.43q-3.71,4-2.84,11.93l2.54,45.08q-.06,19.63,7.06,10.76L996,1876.83l21.93-22.69-8.43-35.33Z" fill="#3cb3a3"/><path id="a8f1fad9-bcaf-4937-90d5-e7ab6ed5089a" data-name="WOMAN 0 Layer0 4 MEMBER 1 1 STROKES" d="M962.57,1861.14q16.42,6.15,7,65" fill="none" stroke="#fff" stroke-linecap="round" stroke-linejoin="round" stroke-width="1.02"/><path id="bc95b927-8518-42eb-ac04-3803b3c5d3fb" data-name="WOMAN 0 Layer0 4 MEMBER 2 1 STROKES" d="M972.73,1883q8.31-26.61-.66-30.41" fill="none" stroke="#fff" stroke-linecap="round" stroke-linejoin="round" stroke-width="1.02"/><path id="b09cf06a-a920-44ba-95b5-479b5fdc67a5" data-name="WOMAN 0 Layer0 4 MEMBER 3 1 STROKES" d="M972.42,1903.38a23.31,23.31,0,0,1,3.66,10.51" fill="none" stroke="#fff" stroke-linecap="round" stroke-linejoin="round" stroke-width="1.02"/><path id="a4e6cc17-97b9-4630-8760-3cf20a0d4af5" data-name="WOMAN 0 Layer0 4 MEMBER 4 1 STROKES" d="M998.77,1857.54a33.44,33.44,0,0,1,2.84,13.5" fill="none" stroke="#fff" stroke-linecap="round" stroke-linejoin="round" stroke-width="1.02"/><path id="b20cc92c-f4c7-4804-bef0-88689b6a322a" data-name="WOMAN 0 Layer0 4 MEMBER 5 1 STROKES" d="M993.69,1875.51a2.94,2.94,0,0,1-2.84,2.84,2.78,2.78,0,0,1-2-.86,2.69,2.69,0,0,1-.81-2,2.77,2.77,0,0,1,2.84-2.84,2.69,2.69,0,0,1,2,.81A2.78,2.78,0,0,1,993.69,1875.51Z" fill="none" stroke="#fff" stroke-linecap="round" stroke-linejoin="round" stroke-width="1.02"/><path id="ba40c430-4ae1-482a-808d-2ff2ef9d2f0d" data-name="WOMAN 0 Layer0 4 MEMBER 6 1 STROKES" d="M989.27,1882.92a2.94,2.94,0,0,1-2.84,2.84,2.76,2.76,0,0,1-2-.86,2.69,2.69,0,0,1-.81-2,2.77,2.77,0,0,1,2.84-2.84,2.69,2.69,0,0,1,2,.81A2.76,2.76,0,0,1,989.27,1882.92Z" fill="none" stroke="#fff" stroke-linecap="round" stroke-linejoin="round" stroke-width="1.02"/><path id="e01d842c-e74c-4978-acf0-ba13bf8a7111" data-name="WOMAN 0 Layer0 15 1 STROKES" d="M993.84,1881.5a30.34,30.34,0,0,1,7,8.73q2.68,5.13-.46,6.09-3,.92-5.18-6.24Q993.19,1883.53,993.84,1881.5Z" fill="none" stroke="#0b477d" stroke-linecap="round" stroke-linejoin="round" stroke-width="1.02"/><path id="a41160b6-bb07-4f5c-855d-9327e2f57081" data-name="WOMAN 0 Layer0 16 1 STROKES" d="M992.48,1882.72q1.82,7.92,1.67,11.31a20.63,20.63,0,0,1-1.48,6.79q-1.35,3.39-1.92-2.77T992.48,1882.72Z" fill="none" stroke="#0b477d" stroke-linecap="round" stroke-linejoin="round" stroke-width="1.02"/><path d="M1084.1,1939.52v-31.78h-29.8l.31,54.07q-1.5,14.07,10.35,11a432.88,432.88,0,0,0,50.57-17.77q11-5.93-1-8.78Z" fill="#3cb3a3"/><path id="e35ded35-aeb8-49d8-9bcc-d9969e4c3003" data-name="WOMAN 0 Layer0 7 MEMBER 1 1 STROKES" d="M1055.42,1970.24q44.14-8.58,65.23-20.82" fill="none" stroke="#fff" stroke-linecap="round" stroke-linejoin="round" stroke-width="1.02"/><path id="b4beb8ad-308b-4598-9ba0-3d64a61b4033" data-name="WOMAN 0 Layer0 7 MEMBER 2 1 STROKES" d="M1054.56,1952q14,3.79,25.84,16.09" fill="none" stroke="#fff" stroke-linecap="round" stroke-linejoin="round" stroke-width="1.02"/><path id="a3d99eb4-e56e-434c-8bdf-8a721c85dc0a" data-name="WOMAN 0 Layer0 7 MEMBER 3 1 STROKES" d="M1092.63,1941.35q11.41,5.4,11.63,18.28" fill="none" stroke="#fff" stroke-linecap="round" stroke-linejoin="round" stroke-width="1.02"/><path id="bf4c78bb-1bf3-4c0d-a479-92ac3b225f00" data-name="WOMAN 0 Layer0 7 MEMBER 4 1 STROKES" d="M1091.82,1946.58a2.94,2.94,0,0,1-2.84,2.84,2.75,2.75,0,0,1-2-.86,2.66,2.66,0,0,1-.82-2,2.82,2.82,0,0,1,.82-2,2.86,2.86,0,0,1,2-.81,2.71,2.71,0,0,1,2,.81A2.78,2.78,0,0,1,1091.82,1946.58Z" fill="none" stroke="#fff" stroke-linecap="round" stroke-linejoin="round" stroke-width="1.02"/><path id="e1925e2e-892f-4dad-844a-bcd3c0d5aef7" data-name="WOMAN 0 Layer0 7 MEMBER 5 1 STROKES" d="M1084.31,1944.19a3,3,0,0,1-2.85,2.85,2.79,2.79,0,0,1-2-.87,2.69,2.69,0,0,1-.81-2,2.77,2.77,0,0,1,2.84-2.84,2.69,2.69,0,0,1,2,.81A2.79,2.79,0,0,1,1084.31,1944.19Z" fill="none" stroke="#fff" stroke-linecap="round" stroke-linejoin="round" stroke-width="1.02"/><path id="be7dac1e-b7f5-4419-a604-414c0aaf735c" data-name="WOMAN 0 Layer0 7 MEMBER 6 1 STROKES" d="M1054.46,1934.75a81.56,81.56,0,0,0,29.64-4.47" fill="none" stroke="#fff" stroke-linecap="round" stroke-linejoin="round" stroke-width="1.02"/><path id="ac9fe156-5319-445a-b05d-08e1c9fbb5dd" data-name="WOMAN 0 Layer0 7 MEMBER 7 1 STROKES" d="M1085.32,1939.68a20.79,20.79,0,0,1,3.86-6.5c1.76-1.93,3.45-2.57,5-1.91s1,2.23-1.65,4.7S1087.46,1939.68,1085.32,1939.68Z" fill="none" stroke="#0b477d" stroke-linecap="round" stroke-linejoin="round" stroke-width="1.02"/><path id="fa0ecb42-8008-4a7f-9c1f-3fcf605efd2c" data-name="WOMAN 0 Layer0 7 MEMBER 8 1 STROKES" d="M1087.05,1939.42q10.88-3,13.7-2.33" fill="none" stroke="#0b477d" stroke-linecap="round" stroke-linejoin="round" stroke-width="1.02"/><path d="M1132.13,1333.65H1118l-36.9,105q-49.66-29.39-90.47-34.93-9.93,7.35,0,23.2l112.75,50.92Q1123.26,1423.78,1132.13,1333.65Z" fill="#b0a5c7"/><path d="M1132.13,1333.65H1118l-36.9,105q-49.66-29.39-90.47-34.93-9.93,7.35,0,23.2l112.75,50.92Q1123.26,1423.78,1132.13,1333.65Z" fill="url(#edd1e9d9-ae40-47de-a229-fb211662bd05)"/><path d="M997.48,1334.63q22.93-19.53,42.3-6.63,5.67,4.47,7.11,18.5l5.14,4.87q3.39,6.26,1.64,23.85-2.75,3.27-13.21,6a144.45,144.45,0,0,1,2.09,35.34l-27.43,3.44,1.18-38Q985.71,1362,997.48,1334.63Z" fill="#e8ceb7"/><path d="M1036.74,1378.56a37.68,37.68,0,0,0,15.69-2.14q-3.48,2.61-12,4.84a.81.81,0,0,0,.1.29A13.56,13.56,0,0,1,1036.74,1378.56Z" fill="#d2a57d"/><path d="M1083.6,1598.64l-6.91-43.15,14.17-83.36q4.37-21.48-10.82-34.26-44.22-37.26-89.45-34.12-11,4.32-4.72,35.18l20.61,101.58-15.89,27Z" fill="#d9b8de"/><path d="M1083.6,1598.64l-6.91-43.15,14.17-83.36q4.37-21.48-10.82-34.26-44.22-37.26-89.45-34.12-11,4.32-4.72,35.18l20.61,101.58-15.89,27Z" fill="url(#addd5c66-2b03-485e-9549-83143b3e8da4)"/><path d="M1045.88,1564.73q-44-2.45-39.4-24.22-21.36,30.62-28.24,63.62a35.46,35.46,0,0,0,.51,16.45q12.78,47.25,52.51,108.22-31.2,27.32-65.08,95.18-16.8,26.31,58.53,39,11.58-1.65,47.41-135.54Q1060.59,1655.5,1045.88,1564.73Z" fill="#225b8b"/><path d="M1045.88,1564.73q-44-2.45-39.4-24.22-21.16,30.33-28.11,63a37.46,37.46,0,0,0,.54,17.64q12.87,47,52.35,107.63-31.2,27.32-65.08,95.18-9.34,14.63,9.81,25l-16,14.4q-3.71,4-2.84,11.93l2.54,45.08q-.06,19.63,7.06,10.76L996,1876.83l15.71-16.26q6.12,1.29,13,2.45,11.58-1.65,47.41-135.54Q1060.59,1655.5,1045.88,1564.73Z" fill="url(#b06520ff-82e3-4e42-b423-5de3dd9607ef)"/><path d="M1045.88,1564.73q-44-2.45-39.4-24.22-21.16,30.33-28.11,63a37.46,37.46,0,0,0,.54,17.64q12.87,47,52.35,107.63-31.2,27.32-65.08,95.18-9.34,14.63,9.81,25l-16,14.4q-3.71,4-2.84,11.93l2.54,45.08q-.06,19.63,7.06,10.76L996,1876.83l15.71-16.26q6.12,1.29,13,2.45,11.58-1.65,47.41-135.54Q1060.59,1655.5,1045.88,1564.73Z" fill="url(#b18b3a2e-1a54-4533-a970-472b6ab8ea4d)"/><path d="M1072.12,1727.48c-.5-3.12-1-6.26-1.52-9.44l-56.15-83.66q12.45,62.26,35,100.71-24.51,76.22-20.66,124.33Q1041.77,1840.92,1072.12,1727.48Z" fill="url(#bad541bf-0bda-4464-b77d-271a107c7aca)"/><path d="M1076.69,1555.49q-57.35,9.73-70.21-15-10.76,111.39,65.64,187-.3,1-10,26.7-8.47,22.59-13.86,42-17,61.74-11.57,119.81.25,20.1,51.83,5.08,12.8-4.14,12.34-8.28l2.08-167.52q-6-64.73-10-99.6Q1086,1583,1076.69,1555.49Z" fill="#225b8b"/><path d="M1076.69,1555.49q-57.35,9.73-70.21-15-10.76,111.39,65.64,187-.3,1-10,26.7-8.47,22.59-13.86,42-17,61.74-11.57,119.81.25,20.1,51.83,5.08,12.8-4.14,12.34-8.28l2.08-167.52q-6-64.73-10-99.6Q1086,1583,1076.69,1555.49Z" fill="url(#bf650663-171f-42f2-ad55-0750b7ca18ce)"/><path d="M1090.86,1472.13a39.55,39.55,0,0,0,0-17.41h-26.55a202.2,202.2,0,0,0,18.52,64.57l8-47.16m-105-33.2,10.31,50.77q32.9-24.57,37.77-75.64Z" fill="url(#aa6a8db7-dce0-46e3-884e-1079e5337b93)"/><path d="M1065.83,1427q-15.48,9.87,7,41.53,46,64.82,82.34,77.36,19.67-11.19,75-143.91h-17.71l-63.71,95.28Q1105.2,1450.62,1065.83,1427Z" fill="#b0a5c7"/><path d="M1046.39,1392q10,2,22.18-6.65-9.79,2.94-17.57-4.37t-8.73-20.25q9.39-30.6-11.27-39.8-19-8.51-34.47,3.45-20.6,15.84,2.75,51.37,1,20.92-12.14,44.68-25,45.26-2.28,87.26-2.5-17.45,12.69-30.81a145.66,145.66,0,0,0,26.45-30.82q11.2-17.43,9.9-32.08c.17,1.12.28,2.25.35,3.4q1,12.77-2.89,28.63,17.07-22.8,15.08-38.12t-3-16.71a18,18,0,0,0,3,.82" fill="#142540"/><path d="M1046.39,1392q10,2,22.18-6.65-9.79,2.94-17.57-4.37t-8.73-20.25q9.39-30.6-11.27-39.8-19-8.51-34.47,3.45-20.6,15.84,2.75,51.37,1,20.92-12.14,44.68-25,45.26-2.28,87.26-2.5-17.45,12.69-30.81a145.66,145.66,0,0,0,26.45-30.82q11.2-17.43,9.9-32.08c.17,1.12.28,2.25.35,3.4q1,12.77-2.89,28.63,17.07-22.8,15.08-38.12t-3-16.71a18,18,0,0,0,3,.82" fill="url(#b410f436-aeab-448c-add1-8703a55a8cf4)"/><path d="M1046.39,1392q10,2,22.18-6.65-9.79,2.94-17.57-4.37t-8.73-20.25q9.39-30.6-11.27-39.8-19-8.51-34.47,3.45-20.6,15.84,2.75,51.37,1,20.92-12.14,44.68-25,45.26-2.28,87.26-2.5-17.45,12.69-30.81a145.66,145.66,0,0,0,26.45-30.82q11.2-17.43,9.9-32.08c.17,1.12.28,2.25.35,3.4q1,12.77-2.89,28.63,17.07-22.8,15.08-38.12t-3-16.71a18,18,0,0,0,3,.82" fill="url(#a055e39c-2ded-4b59-b4be-bea47d94abf1)"/><path d="M1242,1401.93c1.48-.3,2.36-.77,2.64-1.43l8.48-13.3q2.74-3.92.71-3.8l-30.36,6.6,1.07-7.92c.11-2.15-.25-2.84-1.07-2.08l-16.6,30Z" fill="#e8ceb7"/><path d="M1146.14,1322.38c-.71-.49-1.72-.43-3.05.2l-8.93,6.9c-1.37.74-2,.09-1.93-1.92l6.29-23.15q1.17-4.07-1.16-2l-4,3.8a9.94,9.94,0,0,0-2.18,2.75l-13.2,24.67-.81,2.84q-.35,3.65,1.47,5.13,8.49,3.92,12.69,0Z" fill="#e8ceb7"/><path id="bb76470a-9bc8-43c5-a0dd-7fed2cf18f1f" data-name="WOMAN 0 Layer0 14 1 STROKES" d="M1070.35,1925.61a833.12,833.12,0,0,0,21.47-161.83q6.54-98.19-26.14-206.72" fill="none" stroke="#fff" stroke-linecap="round" stroke-linejoin="round" stroke-width="1.02"/></g></g><g id="e4913b57-02d7-466b-81e5-433b8b6dce4a" data-name="Pin"><g id="a09e2cff-4984-494a-ad45-13d79c49726a" data-name="PinCircle"><ellipse cx="1826.34" cy="1628.76" rx="111.65" ry="193.4" transform="translate(-572.78 1146.47) rotate(-30.36)" fill="url(#aec8909f-1478-42fa-bb7c-629b0ccca614)"/><ellipse cx="1810.37" cy="1635.22" rx="111.65" ry="193.4" transform="translate(-578.24 1139.28) rotate(-30.36)" fill="#39c2ec"/><path id="b6f01226-8504-4ca9-b8d8-9fb690fb0bf0" data-name="PinNonFilledStaight" d="M1764.46,1513.78l-.63,6.15c0,8.68,3.15,19.91,8.83,29.7,4.42,7.62,10.1,14.52,15.79,18.52l-8.84,54.24c-5.68-1.11-10.73-1.13-15.15,1.39-7,4-10.73,11.89-10.73,23.47V1653l42.92,24.78,5.68,60.45,8.21,5.46,8.21-53.87,43.56,24.42v-5.79c0-11.58-3.79-23.9-10.74-35.86a83.82,83.82,0,0,0-15.15-18.88l-8.84-64.45c6.32,2.2,11.37,2.22,15.79-.29,5.68-3.24,8.83-9.37,8.83-19.5l.64-6.15Zm30.93,44.63c-10.1-5.83-15.78-17.07-16.41-22.5l57.44,33.89c-1.89,8.32-10.73,6.11-19.57,1ZM1796,1629l5.68-51,11.37,6.56,6.31,58.64C1804.23,1634.43,1796,1629,1796,1629Zm-24.62,18.35c1.26-10.85,11.36-10.8,22.1-3.88l34.08,19.68c8.84,5.1,17.68,16,18.31,27.21Z" fill="#f6f8f7" fill-rule="evenodd"/></g></g></svg>