<svg xmlns="http://www.w3.org/2000/svg" xmlns:xlink="http://www.w3.org/1999/xlink" viewBox="0 0 2500 2500"><defs><style>.cls-1,.cls-27{fill:none;}.cls-2{isolation:isolate;}.cls-3{fill:url(#Degradado_sin_nombre_39);}.cls-4{fill:url(#Degradado_sin_nombre_38);}.cls-5{fill:url(#Degradado_sin_nombre_37);}.cls-6{filter:url(#AI_DesenfoqueGaussiano_4);}.cls-7{fill:url(#Degradado_sin_nombre_33);}.cls-8{fill:url(#Degradado_sin_nombre_27);}.cls-9{fill:url(#Degradado_sin_nombre_22);}.cls-10{fill:url(#linear-gradient);}.cls-11,.cls-16{fill:#e9faff;}.cls-11,.cls-15{opacity:0.2;}.cls-12{opacity:0.31;}.cls-13{fill:#fff;}.cls-14{fill:url(#linear-gradient-2);}.cls-17{fill:url(#Degradado_sin_nombre_26);}.cls-18{fill:url(#Degradado_sin_nombre_25);}.cls-19{fill:#0071b0;}.cls-20{mix-blend-mode:hard-light;}.cls-21{fill:url(#Degradado_sin_nombre_2);}.cls-22{fill:url(#Degradado_sin_nombre_5);}.cls-23{fill:url(#linear-gradient-3);}.cls-24{fill:#90e5ff;}.cls-25{fill:url(#linear-gradient-4);}.cls-26{fill:url(#linear-gradient-5);}.cls-27{stroke:#fff;stroke-width:0.08px;}.cls-28{fill:url(#linear-gradient-6);}.cls-29{fill:#1da1dc;}.cls-30{fill:url(#Degradado_sin_nombre_22-2);}.cls-31{fill:#d4ecf6;fill-opacity:0.48;}.cls-32{fill:url(#linear-gradient-7);}.cls-33{fill:url(#linear-gradient-8);}.cls-34{fill:url(#Degradado_sin_nombre_22-3);}.cls-35{fill:url(#Degradado_sin_nombre_59);}.cls-36{fill:url(#Degradado_sin_nombre_28);}.cls-37{fill:url(#Degradado_sin_nombre_28-2);}.cls-38{fill:url(#Degradado_sin_nombre_18);}.cls-39{fill:url(#Degradado_sin_nombre_18-2);}.cls-40{fill:url(#Degradado_sin_nombre_18-3);}.cls-41{fill:url(#Degradado_sin_nombre_18-4);}.cls-42{fill:url(#Degradado_sin_nombre_18-5);}.cls-43{fill:url(#Degradado_sin_nombre_18-6);}.cls-44{fill:url(#linear-gradient-9);}.cls-45{fill:url(#Degradado_sin_nombre_19);}.cls-46{fill:url(#Degradado_sin_nombre_14);}.cls-47{fill:url(#Degradado_sin_nombre_17);}.cls-48,.cls-50{fill:#00273d;}.cls-48,.cls-53{fill-opacity:0.2;}.cls-49{fill:#d4f5ff;}.cls-51{fill:#005584;}.cls-52{fill:url(#linear-gradient-10);}.cls-53{fill:url(#Degradado_sin_nombre_41);}.cls-54{fill:url(#linear-gradient-11);}.cls-55{opacity:0.73;}.cls-56,.cls-58,.cls-59,.cls-61,.cls-70{mix-blend-mode:overlay;}.cls-56{fill:url(#linear-gradient-12);}.cls-57{fill:url(#linear-gradient-13);}.cls-58{fill:url(#Degradado_sin_nombre_44);}.cls-59{fill:url(#Degradado_sin_nombre_43);}.cls-60{clip-path:url(#clip-path);}.cls-61{fill:url(#Degradado_sin_nombre_42);}.cls-62{fill:url(#Degradado_sin_nombre_7);}.cls-63{fill:url(#Degradado_sin_nombre_13);}.cls-64{fill:url(#Degradado_sin_nombre_12);}.cls-65{fill:url(#Degradado_sin_nombre_11);}.cls-66{fill:url(#Degradado_sin_nombre_10);}.cls-67{fill:url(#Degradado_sin_nombre_10-2);}.cls-68{fill:url(#Degradado_sin_nombre_7-2);}.cls-69{mix-blend-mode:screen;}.cls-70{fill:url(#Degradado_sin_nombre_6);}.cls-71{fill:url(#Degradado_sin_nombre_6-2);}</style><linearGradient id="Degradado_sin_nombre_39" x1="182.35" y1="262.18" x2="424.3" y2="-164.93" gradientUnits="userSpaceOnUse"><stop offset="0" stop-color="#90e5ff"/><stop offset="0.01" stop-color="#6bcff4"/><stop offset="0.01" stop-color="#49bbe9"/><stop offset="0.02" stop-color="#31ade2"/><stop offset="0.03" stop-color="#22a4de"/><stop offset="0.03" stop-color="#1da1dc"/><stop offset="0.28" stop-color="#0d87c4"/><stop offset="0.54" stop-color="#0071b0"/></linearGradient><linearGradient id="Degradado_sin_nombre_38" x1="382.33" y1="330.28" x2="366.65" y2="21.08" gradientUnits="userSpaceOnUse"><stop offset="0" stop-color="#1da1dc"/><stop offset="0.01" stop-color="#32aee2"/><stop offset="0.04" stop-color="#54c1ed"/><stop offset="0.07" stop-color="#6ed1f5"/><stop offset="0.09" stop-color="#81dcfa"/><stop offset="0.12" stop-color="#8ce3fe"/><stop offset="0.15" stop-color="#90e5ff"/><stop offset="0.54" stop-color="#0071b0"/></linearGradient><linearGradient id="Degradado_sin_nombre_37" x1="382.33" y1="330.28" x2="366.65" y2="21.08" gradientUnits="userSpaceOnUse"><stop offset="0" stop-color="#90e5ff"/><stop offset="0.01" stop-color="#6bcff4"/><stop offset="0.01" stop-color="#49bbe9"/><stop offset="0.02" stop-color="#31ade2"/><stop offset="0.03" stop-color="#22a4de"/><stop offset="0.03" stop-color="#1da1dc"/><stop offset="0.13" stop-color="#1790c9" stop-opacity="0.98"/><stop offset="0.41" stop-color="#066697" stop-opacity="0.92"/><stop offset="0.54" stop-color="#005584" stop-opacity="0.9"/></linearGradient><filter id="AI_DesenfoqueGaussiano_4" name="AI_DesenfoqueGaussiano_4"><feGaussianBlur stdDeviation="4"/></filter><linearGradient id="Degradado_sin_nombre_33" x1="29.03" y1="32.92" x2="247.63" y2="32.92" gradientUnits="userSpaceOnUse"><stop offset="0" stop-color="#00273d" stop-opacity="0.5"/><stop offset="0.48" stop-color="#00273d" stop-opacity="0.1"/><stop offset="1" stop-color="#00273d" stop-opacity="0"/></linearGradient><radialGradient id="Degradado_sin_nombre_27" cx="-7703.38" cy="4309.81" r="62.98" gradientTransform="matrix(-0.41, 0.71, -0.41, -0.7, -1287.57, 8555.33)" gradientUnits="userSpaceOnUse"><stop offset="0" stop-color="#00273d" stop-opacity="0.3"/><stop offset="1" stop-color="#00273d" stop-opacity="0"/></radialGradient><linearGradient id="Degradado_sin_nombre_22" x1="166.22" y1="38.7" x2="179.98" y2="108.78" gradientUnits="userSpaceOnUse"><stop offset="0" stop-color="#58d1ed" stop-opacity="0"/><stop offset="0.03" stop-color="#45c1e7" stop-opacity="0.03"/><stop offset="0.09" stop-color="#27a9df" stop-opacity="0.08"/><stop offset="0.16" stop-color="#1da1dc" stop-opacity="0.1"/><stop offset="0.87" stop-color="#005584" stop-opacity="0.3"/></linearGradient><linearGradient id="linear-gradient" x1="337.94" y1="14.52" x2="346.02" y2="14.52" gradientUnits="userSpaceOnUse"><stop offset="0" stop-color="#e9faff"/><stop offset="0.06" stop-color="#d4f5ff"/><stop offset="0.17" stop-color="#90e5ff"/><stop offset="0.99" stop-color="#58d1ed"/><stop offset="0.99" stop-color="#39c2ec"/></linearGradient><linearGradient id="linear-gradient-2" x1="-4.5" y1="80.4" x2="347.4" y2="80.4" gradientUnits="userSpaceOnUse"><stop offset="0" stop-color="#90e5ff"/><stop offset="0.06" stop-color="#90e5ff"/><stop offset="0.17" stop-color="#58d1ed"/><stop offset="0.99" stop-color="#39c2ec"/></linearGradient><radialGradient id="Degradado_sin_nombre_26" cx="1433.76" cy="1377.77" r="873.11" gradientTransform="matrix(-0.43, 0.78, -0.35, -0.62, 2543.01, 1631.83)" gradientUnits="userSpaceOnUse"><stop offset="0" stop-color="#00273d" stop-opacity="0.2"/><stop offset="0.75" stop-color="#00273d" stop-opacity="0.07"/><stop offset="1" stop-color="#00273d" stop-opacity="0"/></radialGradient><linearGradient id="Degradado_sin_nombre_25" x1="2327.08" y1="1817.35" x2="956.16" y2="1817.35" gradientUnits="userSpaceOnUse"><stop offset="0" stop-color="#00273d" stop-opacity="0.1"/><stop offset="0.01" stop-color="#00273d" stop-opacity="0.1"/><stop offset="0.15" stop-color="#00273d" stop-opacity="0.1"/><stop offset="0.87" stop-color="#00273d" stop-opacity="0.3"/><stop offset="1" stop-color="#00273d" stop-opacity="0"/></linearGradient><linearGradient id="Degradado_sin_nombre_2" x1="1531.62" y1="1150.66" x2="1234.57" y2="1249.68" gradientUnits="userSpaceOnUse"><stop offset="0.35" stop-color="#90e5ff" stop-opacity="0.65"/><stop offset="1" stop-color="#90e5ff" stop-opacity="0"/></linearGradient><linearGradient id="Degradado_sin_nombre_5" x1="1372.31" y1="1214.57" x2="1104.7" y2="926.07" gradientUnits="userSpaceOnUse"><stop offset="0" stop-color="#58d1ed" stop-opacity="0"/><stop offset="0.03" stop-color="#45c1e7" stop-opacity="0.03"/><stop offset="0.09" stop-color="#27a9df" stop-opacity="0.08"/><stop offset="0.16" stop-color="#1da1dc" stop-opacity="0.1"/><stop offset="0.53" stop-color="#0071b0" stop-opacity="0.3"/></linearGradient><linearGradient id="linear-gradient-3" x1="1202.57" y1="252.77" x2="1925.25" y2="1421.6" gradientUnits="userSpaceOnUse"><stop offset="0" stop-color="#39c2ec"/><stop offset="0.36" stop-color="#39c2ec"/><stop offset="0.45" stop-color="#1da1dc"/><stop offset="0.54" stop-color="#0071b0"/><stop offset="0.74" stop-color="#0071b0"/><stop offset="1" stop-color="#0071b0"/></linearGradient><linearGradient id="linear-gradient-4" x1="1424.75" y1="1584.84" x2="817.18" y2="1369.69" gradientUnits="userSpaceOnUse"><stop offset="0" stop-color="#58d1ed"/><stop offset="1" stop-color="#39c2ec"/></linearGradient><linearGradient id="linear-gradient-5" x1="1335.99" y1="1604.96" x2="1171.67" y2="1933.59" gradientUnits="userSpaceOnUse"><stop offset="0.03" stop-color="#1da1dc"/><stop offset="0.38" stop-color="#1b9ed9"/><stop offset="0.62" stop-color="#1695d1"/><stop offset="0.82" stop-color="#0d86c3"/><stop offset="1" stop-color="#0071b0"/></linearGradient><linearGradient id="linear-gradient-6" x1="609.4" y1="654.06" x2="172.31" y2="1055.31" xlink:href="#linear-gradient-3"/><linearGradient id="Degradado_sin_nombre_22-2" x1="714.96" y1="640.29" x2="742.42" y2="780.21" xlink:href="#Degradado_sin_nombre_22"/><linearGradient id="linear-gradient-7" x1="906.97" y1="619.96" x2="922.88" y2="619.96" xlink:href="#linear-gradient"/><linearGradient id="linear-gradient-8" x1="528.83" y1="722.74" x2="924.4" y2="722.74" xlink:href="#linear-gradient-2"/><linearGradient id="Degradado_sin_nombre_22-3" x1="361.53" y1="744.24" x2="382.83" y2="852.79" xlink:href="#Degradado_sin_nombre_22"/><linearGradient id="Degradado_sin_nombre_59" x1="493.55" y1="732.89" x2="460.81" y2="749.4" gradientUnits="userSpaceOnUse"><stop offset="0.19" stop-color="#6adcff" stop-opacity="0.5"/><stop offset="0.47" stop-color="#90e5ff" stop-opacity="0.3"/><stop offset="0.54" stop-color="#a0e9ff" stop-opacity="0.21"/><stop offset="0.67" stop-color="#c9f2ff" stop-opacity="0"/></linearGradient><linearGradient id="Degradado_sin_nombre_28" x1="252.32" y1="787.46" x2="411.39" y2="787.46" gradientUnits="userSpaceOnUse"><stop offset="0" stop-color="#d4f5ff" stop-opacity="0.3"/><stop offset="0.06" stop-color="#e9faff" stop-opacity="0.8"/><stop offset="0.17" stop-color="#90e5ff" stop-opacity="0.7"/><stop offset="0.99" stop-color="#58d1ed"/><stop offset="0.99" stop-color="#1da1dc" stop-opacity="0.7"/></linearGradient><linearGradient id="Degradado_sin_nombre_28-2" x1="252.32" y1="779.21" x2="411.39" y2="779.21" xlink:href="#Degradado_sin_nombre_28"/><radialGradient id="Degradado_sin_nombre_18" cx="335.82" cy="782.14" r="27.74" gradientUnits="userSpaceOnUse"><stop offset="0" stop-color="#d4f5ff"/><stop offset="0.41" stop-color="#90e5ff"/><stop offset="0.76" stop-color="#1da1dc" stop-opacity="0.9"/><stop offset="0.99" stop-color="#39c2ec"/></radialGradient><radialGradient id="Degradado_sin_nombre_18-2" cx="325.06" cy="759.59" r="27.74" xlink:href="#Degradado_sin_nombre_18"/><radialGradient id="Degradado_sin_nombre_18-3" cx="287.65" cy="766.86" r="27.74" xlink:href="#Degradado_sin_nombre_18"/><radialGradient id="Degradado_sin_nombre_18-4" cx="298.41" cy="789.41" r="27.74" xlink:href="#Degradado_sin_nombre_18"/><radialGradient id="Degradado_sin_nombre_18-5" cx="373.24" cy="774.87" r="27.74" xlink:href="#Degradado_sin_nombre_18"/><radialGradient id="Degradado_sin_nombre_18-6" cx="362.48" cy="752.32" r="27.74" xlink:href="#Degradado_sin_nombre_18"/><linearGradient id="linear-gradient-9" x1="249.21" y1="811.69" x2="492.62" y2="811.69" xlink:href="#linear-gradient-2"/><linearGradient id="Degradado_sin_nombre_19" x1="1194.84" y1="1934.7" x2="1459.33" y2="1443.19" gradientUnits="userSpaceOnUse"><stop offset="0.04" stop-color="#00273d" stop-opacity="0"/><stop offset="0.12" stop-color="#00273d" stop-opacity="0.04"/><stop offset="0.41" stop-color="#00273d" stop-opacity="0.1"/><stop offset="0.87" stop-color="#00273d" stop-opacity="0.3"/></linearGradient><radialGradient id="Degradado_sin_nombre_14" cx="1253.57" cy="1688.42" r="159.67" gradientTransform="translate(0 -1642.58) scale(1 1.97)" gradientUnits="userSpaceOnUse"><stop offset="0.13" stop-color="#00273d" stop-opacity="0.3"/><stop offset="0.59" stop-color="#00273d" stop-opacity="0.1"/><stop offset="0.88" stop-color="#00273d" stop-opacity="0.04"/><stop offset="0.96" stop-color="#00273d" stop-opacity="0"/></radialGradient><linearGradient id="Degradado_sin_nombre_17" x1="1233.02" y1="1491" x2="1391.76" y2="1491" gradientUnits="userSpaceOnUse"><stop offset="0" stop-color="#d4f5ff" stop-opacity="0.8"/><stop offset="0.55" stop-color="#d4f5ff" stop-opacity="0.8"/><stop offset="0.99" stop-color="#d4f5ff" stop-opacity="0.8"/></linearGradient><linearGradient id="linear-gradient-10" x1="1008.69" y1="1434.05" x2="1346.95" y2="1948.42" gradientUnits="userSpaceOnUse"><stop offset="0" stop-color="#004568" stop-opacity="0.1"/><stop offset="0.01" stop-color="#004568" stop-opacity="0.1"/><stop offset="0.15" stop-color="#004568" stop-opacity="0.1"/><stop offset="0.87" stop-color="#004568" stop-opacity="0.3"/></linearGradient><linearGradient id="Degradado_sin_nombre_41" x1="1363.41" y1="1798.68" x2="1029.96" y2="1563.51" gradientUnits="userSpaceOnUse"><stop offset="0" stop-color="#004568" stop-opacity="0.8"/><stop offset="0.99" stop-color="#004568" stop-opacity="0"/></linearGradient><linearGradient id="linear-gradient-11" x1="1156.08" y1="1370.32" x2="1202.14" y2="1370.32" xlink:href="#linear-gradient-10"/><linearGradient id="linear-gradient-12" x1="1666.07" y1="1014.33" x2="433.94" y2="1420.06" gradientUnits="userSpaceOnUse"><stop offset="0.04" stop-color="#90e5ff" stop-opacity="0.5"/><stop offset="0.12" stop-color="#90e5ff" stop-opacity="0.3"/><stop offset="0.22" stop-color="#90e5ff" stop-opacity="0.21"/><stop offset="0.42" stop-color="#90e5ff" stop-opacity="0"/></linearGradient><linearGradient id="linear-gradient-13" x1="1962.48" y1="623.58" x2="-120.09" y2="1674.28" gradientUnits="userSpaceOnUse"><stop offset="0.19" stop-color="#90e5ff" stop-opacity="0.5"/><stop offset="0.53" stop-color="#90e5ff" stop-opacity="0.3"/><stop offset="0.58" stop-color="#90e5ff" stop-opacity="0.21"/><stop offset="0.67" stop-color="#90e5ff" stop-opacity="0"/></linearGradient><linearGradient id="Degradado_sin_nombre_44" x1="1596.81" y1="825.47" x2="1399.28" y2="1156.47" gradientUnits="userSpaceOnUse"><stop offset="0.43" stop-color="#90e5ff" stop-opacity="0.65"/><stop offset="0.91" stop-color="#90e5ff" stop-opacity="0"/></linearGradient><linearGradient id="Degradado_sin_nombre_43" x1="1532.25" y1="1093.83" x2="1333.25" y2="1427.29" gradientUnits="userSpaceOnUse"><stop offset="0.38" stop-color="#90e5ff" stop-opacity="0.5"/><stop offset="0.91" stop-color="#90e5ff" stop-opacity="0"/></linearGradient><clipPath id="clip-path"><path id="SVGID" class="cls-1" d="M1607.2,925.12v260.13l-6.06-25L1171.8,952.89l103.47-324.83,5.64-35.68-12.75-9.56,202.42,116.87,8.75,5.07c4.69,2.7,9.21,5.74,13.81,8.82C1561.3,759.3,1611.2,830.09,1607.2,925.12Z"/></clipPath><linearGradient id="Degradado_sin_nombre_42" x1="1589.33" y1="764.97" x2="1461.4" y2="898.12" gradientUnits="userSpaceOnUse"><stop offset="0" stop-color="#90e5ff" stop-opacity="0.65"/><stop offset="1" stop-color="#90e5ff" stop-opacity="0"/></linearGradient><linearGradient id="Degradado_sin_nombre_7" x1="1233.82" y1="1381.95" x2="1347.3" y2="1381.95" gradientUnits="userSpaceOnUse"><stop offset="0" stop-color="#f9feff"/><stop offset="0.1" stop-color="#f8feff" stop-opacity="0.98"/><stop offset="0.54" stop-color="#f6fdff" stop-opacity="0.9"/><stop offset="1" stop-color="#f6fdff" stop-opacity="0.9"/></linearGradient><linearGradient id="Degradado_sin_nombre_13" x1="1169.9" y1="1333.18" x2="1158.8" y2="1344.28" gradientUnits="userSpaceOnUse"><stop offset="0.03" stop-color="#f9feff"/><stop offset="0.12" stop-color="#f8feff" stop-opacity="0.98"/><stop offset="0.54" stop-color="#f6fdff" stop-opacity="0.9"/><stop offset="1" stop-color="#f6fdff" stop-opacity="0.9"/></linearGradient><linearGradient id="Degradado_sin_nombre_12" x1="1328.65" y1="1374.85" x2="1321.66" y2="1385.51" gradientUnits="userSpaceOnUse"><stop offset="0.03" stop-color="#eefbff"/><stop offset="0.26" stop-color="#f0fbff" stop-opacity="0.67"/><stop offset="0.51" stop-color="#f2fcff" stop-opacity="0.31"/><stop offset="0.69" stop-color="#f3fcff" stop-opacity="0.09"/><stop offset="0.78" stop-color="#f4fcff" stop-opacity="0"/></linearGradient><linearGradient id="Degradado_sin_nombre_11" x1="1491.61" y1="1469.43" x2="1319.71" y2="1530.48" xlink:href="#Degradado_sin_nombre_13"/><linearGradient id="Degradado_sin_nombre_10" x1="1265.21" y1="1378.08" x2="1303.99" y2="1378.08" gradientUnits="userSpaceOnUse"><stop offset="0" stop-color="#d4f5ff"/><stop offset="0.01" stop-color="#e5f9ff"/><stop offset="0.02" stop-color="#f4fdff"/><stop offset="0.03" stop-color="#f9feff"/><stop offset="0.12" stop-color="#f8feff" stop-opacity="0.98"/><stop offset="0.54" stop-color="#f6fdff" stop-opacity="0.9"/><stop offset="1" stop-color="#f6fdff" stop-opacity="0.9"/></linearGradient><linearGradient id="Degradado_sin_nombre_10-2" x1="1360.27" y1="1399.62" x2="1389.1" y2="1399.62" xlink:href="#Degradado_sin_nombre_10"/><linearGradient id="Degradado_sin_nombre_7-2" x1="1344.39" y1="1423.33" x2="1378.7" y2="1423.33" xlink:href="#Degradado_sin_nombre_7"/><linearGradient id="Degradado_sin_nombre_6" x1="1217.4" y1="1349.34" x2="1147.31" y2="1398.98" gradientUnits="userSpaceOnUse"><stop offset="0" stop-color="#ebfaff" stop-opacity="0.65"/><stop offset="0.43" stop-color="#90e5ff" stop-opacity="0.65"/><stop offset="0.91" stop-color="#90e5ff" stop-opacity="0"/></linearGradient><linearGradient id="Degradado_sin_nombre_6-2" x1="1394.55" y1="1352.77" x2="1241.38" y2="1545.11" xlink:href="#Degradado_sin_nombre_6"/><symbol id="SHADOW_PEOPLE_4" data-name="SHADOW PEOPLE 4" viewBox="0 0 269.17 74.14"><g class="cls-6"><path class="cls-7" d="M247.63,32.92c.09,15.15-21,27.43-47.19,27.42H76.53a81.87,81.87,0,0,1-8.38-.43c-.78-.08-1.55-.18-2.31-.28s-1.52-.21-2.27-.34-1.49-.25-2.23-.4-1.46-.29-2.17-.46c-1.35-.3-2.66-.65-4-1L54,57l-2-.67c-.65-.22-1.29-.46-1.92-.71-1.26-.49-2.48-1-3.65-1.58-.59-.28-1.16-.56-1.73-.86s-1.11-.6-1.65-.91-1.06-.63-1.57-1-1-.66-1.49-1a33,33,0,0,1-2.74-2.11c-.43-.36-.84-.73-1.24-1.11s-.78-.76-1.15-1.15l-.53-.58a23.09,23.09,0,0,1-1.78-2.25L32,42.35l-.39-.63c-.25-.43-.48-.86-.7-1.29s-.41-.87-.59-1.32-.34-.89-.48-1.34c-.07-.22-.14-.45-.2-.67-.12-.46-.22-.92-.31-1.38a17.35,17.35,0,0,1-.26-2.8C29,17.77,50.08,5.49,76.23,5.49H201.35c1.63,0,3.23.1,4.81.21,1.19.09,2.36.2,3.52.34s2.29.3,3.42.48q2.64.43,5.16,1l1.37.34c1.4.37,2.76.77,4.09,1.21q1,.33,1.95.69a53,53,0,0,1,8,3.71,35.91,35.91,0,0,1,8.18,6.32c.37.39.72.79,1.06,1.19s.65.8.95,1.21a20.28,20.28,0,0,1,1.94,3.17,17.58,17.58,0,0,1,1.44,4,15.25,15.25,0,0,1,.38,2.78C247.62,32.45,247.63,32.68,247.63,32.92Z"/></g><ellipse class="cls-8" cx="63.02" cy="37.76" rx="36.38" ry="63.02" transform="translate(24.87 100.54) rotate(-89.64)"/></symbol><symbol id="Fridge_shelf" data-name="Fridge shelf" viewBox="0 0 496.69 302.46"><g class="cls-2"><path class="cls-3" d="M239.39,0,5.49,135A12.1,12.1,0,0,0,0,144.54v4.52a3.85,3.85,0,0,0,1.61,3.53l257.25,149.5a3.85,3.85,0,0,1-1.61-3.53V294a12.1,12.1,0,0,1,5.49-9.5l233.9-135Z"/><path class="cls-4" d="M496.64,149.5l.05,17.16-233.91,135c-3,1.75-5.51.34-5.52-3.15V294a12.1,12.1,0,0,1,5.49-9.5Z"/></g><g class="cls-2"><path class="cls-5" d="M496.64,149.5l.05,17.16-233.91,135c-3,1.75-5.51.34-5.52-3.15V294a12.1,12.1,0,0,1,5.49-9.5Z"/></g></symbol><symbol id="Shift_door" data-name="Shift door" viewBox="0 0 345.98 142.19"><polygon class="cls-9" points="0.06 65.7 338.05 0 340.98 79.52 34.07 139.88 12.43 137.16 1.98 116.03 0.06 65.7"/><path class="cls-10" d="M338.16,29l-.11-.2V0l7,14.7C347.64,20.09,344.64,25.72,338.16,29Z"/><path class="cls-11" d="M338.05,0V28.83l.11.2c6.48-3.31,9.48-8.94,6.91-14.33l-7-14.7Z"/><g class="cls-12"><path class="cls-13" d="M340.05,8.83l3.21,6.73c1.64,3.43.37,7.11-3.21,9.92V8.83m-2-8.83V28.83l.11.2c6.48-3.31,9.48-8.94,6.91-14.33l-7-14.7Z"/></g><path class="cls-14" d="M331.16,31.39,33.2,89.31C22.15,91.46,10.45,87.47,7.07,80.4l-7-14.7L0,118l7,14.69c3.38,7.08,15.08,11.06,26.13,8.91l298-57.91c9-1.75,14.82-7,14.82-12.77l.06-52.3C346,24.35,340.17,29.64,331.16,31.39Z"/><g class="cls-15"><path class="cls-16" d="M342,31.46l-.05,39.45c0,3.28-4,7.37-11.58,8.85l-298,57.92a28.57,28.57,0,0,1-5.33.51c-7.52,0-14.43-3-16.43-7.22L4,117.09,4,83.21c3.78,6.44,12.85,10.68,23.07,10.68A36.49,36.49,0,0,0,34,93.24l298-57.92A29.12,29.12,0,0,0,342,31.46m4-12.84c0,5.73-5.81,11-14.82,12.77L33.2,89.31a31.4,31.4,0,0,1-6.09.58c-9,0-17.28-3.71-20-9.49l-7-14.7L0,118l7,14.69c2.76,5.78,11.07,9.5,20,9.5a31.42,31.42,0,0,0,6.09-.59l298-57.91c9-1.75,14.82-7,14.82-12.77l.06-52.3Z"/></g><g class="cls-12"><path class="cls-13" d="M344,27.37l-.05,43.54c0,4.86-5.43,9.3-13.2,10.81l-298,57.92a30.12,30.12,0,0,1-5.71.55c-8.39,0-15.88-3.44-18.23-8.36L2,117.54l0-43,3.22,6.74c3,6.36,11.81,10.63,21.84,10.63a33.33,33.33,0,0,0,6.48-.62l298-57.91a24.4,24.4,0,0,0,12.43-6m2-8.75c0,5.73-5.81,11-14.82,12.77L33.2,89.31a31.4,31.4,0,0,1-6.09.58c-9,0-17.28-3.71-20-9.49l-7-14.7L0,118l7,14.69c2.76,5.78,11.07,9.5,20,9.5a31.42,31.42,0,0,0,6.09-.59l298-57.91c9-1.75,14.82-7,14.82-12.77l.06-52.3Z"/></g></symbol></defs><g class="cls-2"><g id="ARTWORK"><use width="269.17" height="74.14" transform="translate(883.7 1885.8) scale(2.85)" xlink:href="#SHADOW_PEOPLE_4"/><g id="_----_Fridge_---" data-name="----&gt;&gt;Fridge&lt;&lt;---"><g id="Fridge_body" data-name="Fridge body"><ellipse id="Shadow" class="cls-17" cx="1446.82" cy="1888.54" rx="568.86" ry="1023.44" transform="translate(-450.79 3323.45) rotate(-89.64)"/><g id="shadow-2" data-name="shadow" class="cls-6"><path class="cls-18" d="M1788,2160.25,2351.16,1833c19.72-11.46,19.63-30.1-.22-41.56l-566.88-327.29c-19.84-11.45-226.26-11.45-246,0L974.89,1791.4c-19.72,11.46-19.61,30.11.22,41.57L1542,2160.25C1561.84,2171.72,1691,2196.39,1788,2160.25Z"/></g><path id="inside" class="cls-19" d="M1587.13,2095.59c-.31.45-.63.9-1,1.34-.65.88-1.34,1.73-2,2.56a52.89,52.89,0,0,1-4.44,4.65c-.37.35-.76.71-1.16,1a49.56,49.56,0,0,1-13.59,8.49c-.71.32-1.42.59-2.15.87-1,.33-1.93.67-2.94,1l-1.18.36c-.57.16-1.16.29-1.77.45l-1.3.3-1.58.31-1.32.24a70.87,70.87,0,0,1-29.2-2c-2-.51-3.94-1.12-6-1.79-3-1-6-2.19-9.14-3.57a128.63,128.63,0,0,1-12.57-6.4l-415.32-239.78c-58.12-33.59-105.29-114.82-105.29-181.49V536.58c0-26.5,7.47-46.72,20.12-59.33.33-.35.69-.69,1.06-1a50.26,50.26,0,0,1,24.41-12.73l1.48-.29a13.08,13.08,0,0,1,1.5-.26c.75-.12,1.52-.24,2.28-.32.58-.07,1.15-.13,1.72-.17.87-.08,1.73-.14,2.6-.18a56.5,56.5,0,0,1,7.11.1C1028.6,475,1550,150.54,1550,172.43l283.71,1456.84c0,66.67,25.41,239,83.55,272.57l-247.16,166C1685.46,2076.74,1574,2094.76,1587.13,2095.59Z"/><g id="Light"><g class="cls-20"><path class="cls-21" d="M1587.13,2095.59c-.31.45-.63.9-1,1.34-.65.88-1.34,1.73-2,2.56a52.89,52.89,0,0,1-4.44,4.65c-.37.35-.76.71-1.16,1a49.56,49.56,0,0,1-13.59,8.49c-.71.32-1.42.59-2.15.87-1,.33-1.93.67-2.94,1l-1.18.36c-.57.16-1.16.29-1.77.45l-1.3.3-1.58.31-1.32.24a70.87,70.87,0,0,1-29.2-2c-2-.51-3.94-1.12-6-1.79-3-1-6-2.19-9.14-3.57a128.63,128.63,0,0,1-12.57-6.4l-415.32-239.78c-58.12-33.59-105.29-114.82-105.29-181.49V536.58c0-26.5,7.47-46.72,20.12-59.33.33-.35.69-.69,1.06-1a50.26,50.26,0,0,1,24.41-12.73l1.48-.29a13.08,13.08,0,0,1,1.5-.26c.75-.12,1.52-.24,2.28-.32.58-.07,1.15-.13,1.72-.17.87-.08,1.73-.14,2.6-.18a56.5,56.5,0,0,1,7.11.1C1028.6,475,1550,150.54,1550,172.43l283.71,1456.84c0,66.67,25.41,239,83.55,272.57l-247.16,166C1685.46,2076.74,1574,2094.76,1587.13,2095.59Z"/></g></g><g id="Fridge_shelfs" data-name="Fridge shelfs"><path class="cls-22" d="M1446.87,1052.28,986,1318.34c-6,3.46-10.83,11.84-10.81,18.72l0,8.91c0,3.41,1.22,5.82,3.16,7l643.48,373c-2-1.13-3.15-3.54-3.16-7l0-8.91c0-6.88,4.82-15.26,10.81-18.72l460.84-266.06Z"/><use width="496.69" height="302.46" transform="translate(1111.86 825.12) scale(1.97)" xlink:href="#Fridge_shelf"/><use width="496.69" height="302.46" transform="translate(1111.86 519.47) scale(1.97)" xlink:href="#Fridge_shelf"/></g><path class="cls-23" d="M2158.1,601.87V1747.43c0,39.66-13.81,67.74-36.23,81.19l-1.28.73-532.55,308c15.66-9.65,27-26.52,32.33-49.55a138.37,138.37,0,0,0,3.33-31.3V911c0-75.48-50-166.66-114.06-211.55-4.51-3.21-9.12-6.12-13.81-8.82l-8.75-5.07L1080.51,450.81a151.83,151.83,0,0,0-16.27-8.17c-28.49-12.32-54.06-12.14-73.51-1.32L1524.07,132.8c23.18-13.49,55.34-11.6,90.86,8.91l415.32,239.77C2100.75,422.19,2158.1,521,2158.1,601.87Z"/><path id="Corner" class="cls-24" d="M1509.64,699.43c-4.51-3.21-9.12-6.12-13.81-8.82l-8.75-5.07L1080.51,450.81a151.83,151.83,0,0,0-16.27-8.17c-28.49-12.32-54.06-12.14-73.51-1.32l-2.05,1.18c-22.28,13.53-36,41.53-36,81V1669.11c0,80.8,57.38,179.69,127.85,220.37l415.32,239.8c34.84,20.11,66.48,22.32,89.55,9.63l.08,0,2.16-1.28.42-.22c15.66-9.65,27-26.52,32.33-49.55a138.37,138.37,0,0,0,3.33-31.3V911C1623.7,835.5,1573.68,744.32,1509.64,699.43Zm91.5,1344.06c0,1.38,0,2.72-.06,4.06,0,1.14-.08,2.29-.16,3.41-.08,1.54-.17,3.05-.33,4.55-.1,1.22-.24,2.42-.4,3.61s-.31,2.44-.51,3.64-.37,2.19-.57,3.25l-.06.28c-.2,1-.41,2.09-.65,3.09-.06.22-.1.44-.16.65-.23,1-.49,2-.76,3l-.06.23c-.28,1-.58,2-.89,3s-.61,1.87-1,2.8c-.09.33-.23.65-.35,1-.28.77-.59,1.54-.91,2.31-.39,1-.8,1.93-1.24,2.87s-.81,1.72-1.22,2.54l-.12.22c-.47.91-.94,1.77-1.44,2.64l0,0a57.8,57.8,0,0,1-3.15,5c-.31.45-.63.9-1,1.34-.65.88-1.34,1.73-2,2.56a52.89,52.89,0,0,1-4.44,4.65c-.37.35-.76.71-1.16,1a49.56,49.56,0,0,1-13.59,8.49c-.71.32-1.42.59-2.15.87-1,.33-1.93.67-2.94,1l-1.18.36c-.57.16-1.16.29-1.77.45l-1.3.3-1.58.31-1.32.24a70.87,70.87,0,0,1-29.2-2c-2-.51-3.94-1.12-6-1.79-3-1-6-2.19-9.14-3.57a128.63,128.63,0,0,1-12.57-6.4l-415.32-239.78c-58.12-33.59-105.29-114.82-105.29-181.49V536.58c0-26.5,7.47-46.72,20.12-59.33.33-.35.69-.69,1.06-1a50.26,50.26,0,0,1,24.41-12.73l1.48-.29a13.08,13.08,0,0,1,1.5-.26c.75-.12,1.52-.24,2.28-.32.58-.07,1.15-.13,1.72-.17.87-.08,1.73-.14,2.6-.18a56.5,56.5,0,0,1,7.11.1c.83,0,1.64.1,2.48.2a24.44,24.44,0,0,1,2.51.29c.8.08,1.65.22,2.48.38a.19.19,0,0,1,.18,0c.8.11,1.63.27,2.46.45a81.44,81.44,0,0,1,8.41,2.11c.93.27,1.85.59,2.8.9s2,.67,3,1c1.76.65,3.51,1.36,5.28,2.12l1.78.79c.81.36,1.61.73,2.42,1.11s1.54.74,2.33,1.14c1.24.63,2.48,1.28,3.74,2,1,.57,2.11,1.16,3.17,1.77l406.57,234.73,8.75,5.07a157.14,157.14,0,0,1,13.81,9c51.64,37.55,91.5,111.2,91.5,172.49Z"/></g><g id="Door_freezer" data-name="Door freezer"><path id="top" class="cls-25" d="M1623.68,1705.82l-3.41,2c-39.48,23-94.55,22.48-134.29-.47l-526.5-304c-19.88-11.48-29.87-26.58-29.93-41.65s9.76-30.1,29.48-41.57l3.39-2Z"/><g id="front"><path class="cls-26" d="M1623.7,2056.52c0,.39,0,.78,0,1.16-1,38.73-22.52,126.82-127.85,71.6-116.4-61-443.49-255.82-515-298.49a97.74,97.74,0,0,1-41.61-49.16c-5.54-14.7-9.7-33.85-9.7-58.26V1361.7c.06,15.07,10.05,30.17,29.93,41.65l526.5,304c39.74,23,94.81,23.42,134.29.47l3.41-2S1625.89,1967.42,1623.7,2056.52Z"/><path class="cls-27" d="M1623.7,2056.52c0,.39,0,.78,0,1.16-1,38.73-22.52,126.82-127.85,71.6-116.4-61-443.49-255.82-515-298.49a97.74,97.74,0,0,1-41.61-49.16c-5.54-14.7-9.7-33.85-9.7-58.26V1361.7c.06,15.07,10.05,30.17,29.93,41.65l526.5,304c39.74,23,94.81,23.42,134.29.47l3.41-2S1625.89,1967.42,1623.7,2056.52Z"/></g></g><g id="fridge_door" data-name="fridge door"><path class="cls-28" d="M966.12,492.25c-13.2-23.9-44-36.55-79.62-29.62L276.19,581.26c-47.26,9.2-85.19,49.3-84.72,89.59l9.28,796.38a56.13,56.13,0,0,0,6.82,26.63l-30-54.55a56.21,56.21,0,0,1-6.79-26.64l-9-773.54c14.29-93,90.51-113.27,97.67-115l.53-.11L822.22,414.74c.27-.06.57-.12.84-.16,71.7-13.55,112.25,27.76,130.73,55.25l12.29,22.32A.34.34,0,0,1,966.12,492.25Z"/><path class="cls-13" d="M886.51,462.64c47.26-9.19,86,16,86.43,56.29l9.29,796.4c.47,40.27-37.47,80.38-84.72,89.56L287.18,1523.53c-47.27,9.19-86-16-86.42-56.3l-9.29-796.39c-.47-40.28,37.45-80.38,84.72-89.57Z"/><path class="cls-29" d="M268.05,1523.42c-18.16,0-34.67-5.55-46.51-15.62-12.1-10.29-18.59-24.33-18.78-40.59l-9.29-796.4c-.46-39.29,36.82-78.58,83.1-87.58L886.89,464.6a98.53,98.53,0,0,1,18.75-1.85c18.15,0,34.67,5.54,46.51,15.61,12.1,10.3,18.6,24.33,18.79,40.6l9.29,796.39c.46,39.29-36.82,78.58-83.11,87.58L286.8,1521.57A99.27,99.27,0,0,1,268.05,1523.42Z"/><path class="cls-24" d="M905.64,464.75c17.68,0,33.74,5.37,45.21,15.13,11.65,9.91,17.91,23.43,18.09,39.1l9.29,796.39c.45,38.38-36.11,76.78-81.49,85.6L286.42,1519.6a96.19,96.19,0,0,1-18.37,1.82c-17.68,0-33.74-5.38-45.21-15.14-11.65-9.91-17.9-23.43-18.08-39.1l-9.29-796.39C195,632.42,231.57,594,277,585.2L887.28,466.56a96.8,96.8,0,0,1,18.36-1.81h0m0-4a100,100,0,0,0-19.13,1.89L276.19,581.27c-47.27,9.19-85.19,49.29-84.72,89.57l9.29,796.39c.4,34.68,29.14,58.19,67.29,58.19a100,100,0,0,0,19.13-1.89l610.33-118.64c47.25-9.18,85.19-49.29,84.72-89.56l-9.29-796.4c-.4-34.67-29.15-58.18-67.3-58.18Z"/><g id="shelves"><use width="345.98" height="142.19" transform="translate(252.32 839.87) scale(1.97)" xlink:href="#Shift_door"/><polygon class="cls-30" points="534.01 666.74 907.17 591.36 912.96 748.04 601.02 812.88 558.39 807.52 537.79 765.89 534.01 666.74"/><path class="cls-31" d="M907.12,689.86l13.83,29c6.64,13.93-5.63,28.65-27.42,32.89l-294.28,60c-21.79,4.23-44.83-3.63-51.48-17.55l-13.82-29Z"/><g class="cls-2"><path class="cls-32" d="M907.39,648.56l-.22-.4v-56.8l13.83,29C926.07,631,920.16,642,907.39,648.56Z"/><g class="cls-15"><path class="cls-16" d="M911.17,609l6.22,13c3.2,6.69.75,13.88-6.22,19.39V609m-4-17.66v56.8l.22.4C920.16,642,926.07,631,921,620.33l-13.83-29Z"/></g><g class="cls-12"><path class="cls-13" d="M909.17,600.19l10,21c4.1,8.6.17,17.82-10,24.08V600.19m-2-8.83v56.8l.22.4C920.16,642,926.07,631,921,620.33l-13.83-29Z"/></g><path class="cls-33" d="M893.6,653.22l-294.29,60c-21.78,4.23-44.84-3.62-51.48-17.56l-13.82-29-.12,103,13.82,29c6.65,13.94,29.71,21.79,51.48,17.56l294.3-60c17.75-3.45,29.19-13.87,29.2-25.16l.12-103C922.79,639.34,911.36,649.77,893.6,653.22Z"/><g class="cls-15"><path class="cls-16" d="M918.79,645.43l-.1,85.65c0,9.53-10.69,18.27-26,21.25l-294.26,60a59.15,59.15,0,0,1-11.24,1.07c-16.51,0-31.26-6.75-35.87-16.42l-13.43-28.14.1-84.49,6.23,13c6,12.55,23.3,21,43.09,21a66.9,66.9,0,0,0,12.8-1.23l294.26-60c10.24-2,18.7-6.18,24.42-11.71m4-17.37c0,11.28-11.45,21.71-29.21,25.16l-294.29,60a62.68,62.68,0,0,1-12,1.15c-17.69,0-34-7.33-39.48-18.71l-13.82-29-.12,103,13.82,29c5.43,11.38,21.8,18.7,39.48,18.7a63.48,63.48,0,0,0,12-1.14l294.3-60c17.75-3.45,29.19-13.87,29.2-25.16l.12-103Z"/></g><g class="cls-12"><path class="cls-13" d="M920.79,640.07l-.1,91c0,10.51-11.35,20-27.6,23.21l-294.28,60a60.7,60.7,0,0,1-11.62,1.11c-17.25,0-32.74-7.22-37.68-17.56l-13.62-28.55.11-93.76,10,21c5.66,11.86,22.25,19.84,41.29,19.84a65,65,0,0,0,12.4-1.19l294.28-60c12.19-2.37,21.74-7.94,26.8-15.11m2-12c0,11.28-11.45,21.71-29.21,25.16l-294.29,60a62.68,62.68,0,0,1-12,1.15c-17.69,0-34-7.33-39.48-18.71l-13.82-29-.12,103,13.82,29c5.43,11.38,21.8,18.7,39.48,18.7a63.48,63.48,0,0,0,12-1.14l294.3-60c17.75-3.45,29.19-13.87,29.2-25.16l.12-103Z"/></g></g><polygon class="cls-34" points="252.44 757.2 476 713.09 481.78 835.48 319.44 869.06 276.81 863.69 256.22 822.06 252.44 757.2"/><path class="cls-31" d="M476,777.3l13.82,29c6.65,13.93-5.62,28.65-27.42,32.89L317.68,867.91c-21.8,4.24-44.84-3.62-51.48-17.55l-13.82-29Z"/><g class="cls-2"><path class="cls-35" d="M476.22,770.28l-.22-.39v-56.8l13.83,29C494.89,752.67,489,763.76,476.22,770.28Z"/><path class="cls-36" d="M391.37,749.69l19,39.8c3.79,7.94-3.21,16.34-15.62,18.76l-94.08,16.33c-12.43,2.42-25.56-2.07-29.35-10l-19-39.8Z"/><path class="cls-37" d="M391.37,741.44l19,39.8c3.79,7.94-3.21,16.34-15.62,18.75l-94.08,16.34c-12.43,2.42-25.56-2.07-29.35-10l-19-39.8Z"/><g id="Eggs"><path class="cls-38" d="M332.53,780.64c-8.5,1.65-13.3,7.4-10.7,12.84s11.59,8.51,20.1,6.86,13.3-7.41,10.7-12.85-11.59-8.5-20.1-6.85"/><path class="cls-39" d="M321.77,758.09c-8.5,1.65-13.3,7.4-10.7,12.84s11.6,8.51,20.1,6.86,13.3-7.41,10.7-12.84-11.59-8.51-20.1-6.86"/><path class="cls-40" d="M284.36,765.36c-8.5,1.66-13.3,7.41-10.7,12.85s11.6,8.5,20.1,6.85,13.3-7.4,10.7-12.84-11.59-8.51-20.1-6.86"/><path class="cls-41" d="M295.12,787.91c-8.5,1.66-13.3,7.4-10.7,12.84s11.59,8.51,20.1,6.86,13.3-7.4,10.7-12.84-11.59-8.51-20.1-6.86"/><path class="cls-42" d="M370,773.37c-8.51,1.65-13.3,7.4-10.7,12.84s11.59,8.51,20.1,6.85,13.3-7.4,10.7-12.84-11.59-8.51-20.1-6.85"/><path class="cls-43" d="M359.19,750.82c-8.5,1.65-13.3,7.4-10.7,12.84s11.59,8.51,20.1,6.85,13.3-7.4,10.7-12.84-11.59-8.51-20.1-6.85"/></g><path class="cls-44" d="M462.43,774.94,317.74,803.71c-21.78,4.23-44.84-3.62-51.49-17.56L252.44,757.2l-.12,68.74,13.82,28.95c6.65,13.94,29.71,21.8,51.48,17.56l144.69-28.76c17.76-3.46,29.19-13.88,29.21-25.17l.11-68.74C491.62,761.07,480.19,771.49,462.43,774.94Z"/><g class="cls-15"><path class="cls-16" d="M487.6,767.16l-.08,51.36c0,9.54-10.69,18.27-26,21.24L316.86,868.53a59.23,59.23,0,0,1-11.24,1.07c-16.51,0-31.26-6.76-35.87-16.43L256.32,825l.09-50.23,6.23,13.07c6,12.55,23.31,21,43.09,21a66.56,66.56,0,0,0,12.79-1.23l144.67-28.76c10.24-2,18.7-6.18,24.41-11.71m4-17.38v0Zm0,0c0,11.28-11.45,21.69-29.2,25.14L317.74,803.71a62.86,62.86,0,0,1-12,1.15c-17.68,0-34.05-7.33-39.48-18.71L252.44,757.2l-.12,68.74,13.82,29c5.43,11.37,21.8,18.7,39.48,18.7a62.68,62.68,0,0,0,12-1.15l144.69-28.76c17.76-3.46,29.19-13.88,29.21-25.17l.11-68.72Z"/></g><g class="cls-12"><path class="cls-13" d="M489.61,761.8l-.09,56.72c0,10.51-11.36,20.05-27.6,23.2L317.24,870.49a60.78,60.78,0,0,1-11.62,1.11c-17.25,0-32.74-7.22-37.68-17.57l-13.62-28.54.1-59.49,10,21c5.66,11.87,22.25,19.85,41.28,19.85a64.9,64.9,0,0,0,12.4-1.19l144.68-28.76c12.19-2.37,21.73-7.94,26.8-15.11m2-12v0Zm0,0c0,11.28-11.45,21.69-29.2,25.14L317.74,803.71a62.86,62.86,0,0,1-12,1.15c-17.68,0-34.05-7.33-39.48-18.71L252.44,757.2l-.12,68.74,13.82,29c5.43,11.37,21.8,18.7,39.48,18.7a62.68,62.68,0,0,0,12-1.15l144.69-28.76c17.76-3.46,29.19-13.88,29.21-25.17l.11-68.72Z"/></g></g><use width="345.98" height="142.19" transform="translate(252.32 1140.17) scale(1.97)" xlink:href="#Shift_door"/></g></g></g><g id="Dog"><path id="shadow_dog" data-name="shadow dog" class="cls-45" d="M1468.39,1484.6a11.64,11.64,0,0,1,.82,1.53c2.09,4.54,6.28,18.66-11.43,36.37-21.62,21.62-38.32,50.88-43.8,56.36s-57.76,43.68-75.3,52.05v365.62a145.23,145.23,0,0,0,5.91,33.45,83.62,83.62,0,0,0,10.75,22.76L1123,1915.16l28.15-315.48s265.09-62,317.65-114.55m-233.33,28s-15.23,53.09,78.76-11.75,75.51-83,75.51-83C1363.81,1409.68,1235.42,1513.09,1235.42,1513.09Z"/><path id="shadow_dog_2" data-name="shadow dog 2" class="cls-46" d="M1336.11,1632.82l-162.9-99.27-23.07,318.89s57.51,145.52,131.17,71.86C1281.31,1924.3,1325.84,1849.15,1336.11,1632.82Z"/><g id="Dog-DARK"><g id="Layer1_0_MEMBER_0_FILL" data-name="Layer1 0 MEMBER 0 FILL"><path class="cls-47" d="M1238.07,1585c17.09-19.64,26.8-27.88,46.29-49.63s48.37-56.66,68.85-82.14c9.84-10.39,26.85-25.71,34.62-34.33s1.7-9.23,1.27-16.71c-8.19-6.65-15.59-6.09-25-2.43q-26.57,15.33-53.21,30.62c-26.83,5.62-53.35,11.83-77.83,24.36.16,22,2.92,44.71,3.45,66.44S1237,1563.07,1238.07,1585Z"/></g><g id="Layer1_0_MEMBER_1_FILL" data-name="Layer1 0 MEMBER 1 FILL"><path class="cls-48" d="M1349.85,1457.31c2.66-2.82.16-.89,4-4.84s14.05-13.79,19.1-18.86c.46-13.79-2.89-23.24-14.73-30.56l-19.39,11.12C1342.46,1428.59,1346.43,1442.73,1349.85,1457.31Z"/></g><g id="Layer1_1_MEMBER_0_FILL" data-name="Layer1 1 MEMBER 0 FILL"><path class="cls-49" d="M1238.57,1332.78c-4-7.49-7.31-9.16-10-2.53-4.15,10-5.27,20.72-7.73,31.12a91,91,0,0,0-18.65,8.73,643.14,643.14,0,0,0-51.8-55.42c-5-5.29-10.2-9.6-15.36-2.37a228.46,228.46,0,0,0,1.67,71.9,56.28,56.28,0,0,0,27,38.66l.21.12c-.24,23.85-1.53,50,6.12,73-18.43,50.54-28.43,103-44.56,154.22-39.1,32.93-108.94,86.1-113.93,140.77-.57,6.3.25,6.54.13,12-3.54,19.65-9.37,41.71-7,62,3.11,30.65,4.08,60.78,8,91.58,1.34,10.43,13.65,14,24.2,15.46a30.87,30.87,0,0,0,16.74-3.07c9.6-4.89,23-12.37,33.17-17.44,1.11,19.21-1.24,48.65.58,65.53s14.88,12.14,24.44,17.37c6.31-.16,11.68-.59,17.69-3.32,12.87-5.86,34.57-17.9,45.25-22.76,12.93-5.89,18.77-13.42,14.73-22.56-4.9-11.1-12-13-21.69-14.94-3.18-.65-7.39.87-10.68.51,19.09-19.6,36.42-39.88,51.16-63.06,9.73-26.88,16.85-53.55,19.25-82.09,40.84-35.16,73.62-77.22,100.87-123.57a248.64,248.64,0,0,0,7.14-60.74c0-.29.2-1.08-.2-.85,13.56-15,16.3-15.33,32.58-33.61S1413,1552.73,1431,1530c9.58-10,25.4-24.41,32.81-32.76s1.67-9.3,1.26-16.63c-7.68-6.81-14.75-6.59-24-3.11-16.8,9.55-33.68,19-50.79,28-16.89,2.51-33.53,5.52-49.88,10.49,6.65-16.05,8.8-32.52,9.59-49.79,8.28-12.23,14.31-23.88,11.88-39-7.1-17.45-16.74-34.88-30-47.58-7.05-6.76-11.66-7-20.17-5.86-7.33-7.64-14.27-9.6-24-4.69a64.58,64.58,0,0,0-5.86,3.82,231.13,231.13,0,0,0-28.32-14.2C1249.46,1351.22,1241.93,1339.1,1238.57,1332.78Z"/></g><g id="Layer1_1_MEMBER_1_FILL" data-name="Layer1 1 MEMBER 1 FILL"><path class="cls-50" d="M1331.75,1379.21c-7.1-5.83-12.76-10.27-21.73-14-7.06-2.92-15.58-.28-22.3,3.73C1301.63,1379.65,1314.46,1385.41,1331.75,1379.21Z"/></g><g id="Layer1_20_FILL" data-name="Layer1 20 FILL"><path class="cls-51" d="M1169.61,1496.74a7.83,7.83,0,0,0-1.17,0c-2.91,8.55-5.79,17-8.59,25.67,21.1,10.5,42.79,22.11,66.08,25.93s44.75,1.14,68-1.12c10.55-9.92,28.79-24.28,41.44-28.17s8.62-14.59,11-23.38c-16.7,7.72-33.3,16-51.41,19,0,0,0,0-.06,0-22.43,1.55-41.6,5-64.86,1.66C1210.64,1513.6,1188.45,1504.4,1169.61,1496.74Z"/></g><path class="cls-52" d="M1082.63,1953.54c2.55-10.65,5.08-21.18,7.69-31.77,9.79,6,19.59,12.07,29.34,18.18a537,537,0,0,1-67.72-92q-9.23,22.83-18.5,45.65c-1.08,26.31-1.49,52.62,3.25,78.64,6.41-.13,10.46-.13,16.73-3.2,9.18-4.51,19.78-10.62,29.21-15.54m116.47-581.82c-7.84-9.25-15.67-18.37-24-27.18,5.71,18.67,6.05,32.67,1.77,51.46q15.89-14.84,31.74-29.68a67.26,67.26,0,0,0-6.46,3.78m149.07,142.61q-5.43,1.53-10.8,3.21c4.68-10.93,7-22.13,8.55-33.9a61,61,0,0,1-13.2,20.87c-20.2,9.19-33.31,22.71-42,43.17a192.15,192.15,0,0,1,57.41-33.35M1058,1780.25c11.5.39,22.86.57,34.22-1.44-6.17-13.75-24.84-2.93-34.22,1.44m-1.47.33q-8,7.85-16,15.74c-7.43,18.18-4.22,31.32,8.9,45.69,11.39,3.11,26.92,7.76,31.16-6.91-19.19,1.64-29.22-7-38.29-23.21a72.83,72.83,0,0,1,14.23-31.31M1349.92,1468s0-.06,0-.08-.08-.32-.19-.27.15.33.19.35m-189.65,502.56c-1-.77-1.4-1.27-2.25-2-4.54,10.66-8.72,21.47-13.12,32.19,6.63-5.26,28.86-20.32,16.85-29.52a6.65,6.65,0,0,0-1.48-.68m175.27-329.78c3.18-3.25,6.25-6.59,9.44-9.83a310,310,0,0,1-28.08,21.11c10.63,16.74,13.48,32.51,10.62,52.06.3-.48.59-1,.87-1.45a249.61,249.61,0,0,0,7.15-60.76v-1.13M1159.3,1420.28c1.46.88,2.93,1.75,4.39,2.61-.17-5.42-1-10.78,0-16.14-2.19,5-5.22,10.17-4.35,13.53m125.77-49.75c-.94.91-2.54,1.1-3,2.6-5.47-3.56-9.56-5.48-14.85-8.39,6,4,8.15,3.76,14.85,8.39s17.89,14.29,25.24,19.58c-5.4-9.35-13.43-15.84-22.29-22.18m-43.53-15.68c-2,23.44,5.54,47.51,9.28,70.53.62,8.31,3,55.19,14.6,55.77,13-12.54,24.53-25.34,25.28-44.12C1267.71,1410.71,1260.44,1377.56,1241.54,1354.85Z"/><path class="cls-53" d="M1225.78,1349.32c-1.43,1.85-2.48,3.88-3.79,5.84,0,0,0,0-.08,0a25.7,25.7,0,0,0-2.75,7.13c-9.28,34-8.32,71.76-6.75,107.22,5.95,5.66,11.88,11.21,17.81,16.9a120.43,120.43,0,0,0,4.73,11.88c8.11,16.46,17.49,29.82,32.19,40.68-9.41.72-21.27,1.49-30.24,1.06-27.76-1.34-51.07-6.79-75.85-18.45-1,3.3-2.18,6.57-3.15,9.89,25,11.37,52.15,21.85,78.87,24.59,11.57,1.19,18.88.23,29-1.21,8.12-1.14,14-3.72,21.48-6.34.08.14.94.16.68.41,13.72-6.52,15.27-9.78,32-16.72s47.89-15.79,69.26-11.54c-17,7.86-115.78,51.52-121,71.2-16.26,28.11-25.06,56.79-30,88.77-14.73,19.43-28.82,38.36-44.59,57.55-18,17.9-50.46,40.58-69.22,52.09s-33.56,14.75-48.13,10.3-18.83-4.91-28,2.18-8.48,13.32-9.78,22.88c6.32,12.4,12.18,24.83,18.19,37.3-2.39,10.79-2.13,19.51,5.62,27.88,5.22,8.41,10.75,16.61,16.27,24.82-1.61,14.1-2.95,28.22-4.4,42.34,4.12-2.17,8.24-4.34,12.38-6.47,1-6.72,1.93-13.43,3-20.14,5.11,5.61,10.48,11.23,15.43,16.84,1,25.14-2.17,49.83,1.34,75.1,2.43,17.45,23.13,8,36.23,1.26,4.87-2.52,26.17-13.57,32.68-16.45,10.7-4.73,19-13.53,14.33-22.36-5.65-10.73-11.72-13.09-21.83-14.88-3.3-.58-7.29.83-10.69.52,19.11-19.61,36.42-39.88,51.17-63.06,9.73-26.88,16.85-53.55,19.25-82.09,40.84-35.16,73.62-77.22,100.87-123.57a248.64,248.64,0,0,0,7.14-60.74c0-.29.2-1.08-.2-.85,13.56-15,16.3-15.31,32.58-33.61s45.06-54.7,63.15-77.61c9-9.05,26.14-25.62,32.52-32.29s.84-2.72,3.91-7.82c-16.42-7.1-29.85-7-46.45-1-10.13,5.72-20.45,11.17-30.75,16.61-16.89,2.51-33.53,5.52-49.88,10.49,6.65-16.05,8.81-32.53,9.58-49.79a84.37,84.37,0,0,0,11.19-20.89c7.33-7.49,21-20.19,26.83-26.46s2-5.86,3.16-11.57c-11.34-4.65-23.09-4.06-35-3a4.49,4.49,0,0,1-.57.1q-24.48,9.66-49,19.24l-15.2,12.82a1.23,1.23,0,0,1-.44.66c-.17.06,0-.17-.12-.16-1.15,0-2,1.34-2.68,2.17.76-.88,1.53-1.75,2.28-2.65-.28-.36-.76-1.15-1-1.46-20.34-29-39.63-59.56-63.73-85.58M1202.24,1370c-.09.06,0,.07-.11.1a639.9,639.9,0,0,0-51.79-55.42c-2.68-3-5.52-6.13-9.72-6.62,7.27,32.56,20.82,63.86,33.23,94.71a171.64,171.64,0,0,1,29.1-33.24,1.46,1.46,0,0,1-.27.2C1202.57,1369.8,1202.34,1370,1202.24,1370Z"/><path class="cls-54" d="M1202.14,1370.1q-14.12,16.37-28.29,32.67a234.23,234.23,0,0,1-17.77-64.9C1174.38,1342.76,1189,1357.35,1202.14,1370.1Z"/></g></g><g id="Light-Fridge-Host" class="cls-55"><path class="cls-56" d="M1607.2,902.65v789l-904,744.17L551.69,1276.11c0-100.94-65.63-222.19-150.66-284a262.68,262.68,0,0,0-22.74-14.8L363.89,969,125,462.21c-1.75-1-3.51-2-5.22-2.91-2.09-1.15-4.12-2.21-6.17-3.25-1.3-.65-2.56-1.27-3.82-1.88s-2.66-1.24-4-1.81c-1-.45-2-.89-2.92-1.3-2.91-1.26-5.81-2.44-8.68-3.51-1.66-.61-3.29-1.2-4.91-1.71s-3.07-1-4.61-1.5a129.72,129.72,0,0,0-13.85-3.46c-1.36-.3-2.72-.56-4.06-.75a.4.4,0,0,0-.3,0c-1.35-.26-2.75-.48-4.07-.61-1.09-.18-2.13-.32-3.18-.4l967.66,29.12,1.48-.29a12.71,12.71,0,0,1,1.5-.26c.74-.12,1.51-.24,2.28-.32.57-.07,1.14-.13,1.72-.17.86-.08,1.73-.14,2.6-.18a56.52,56.52,0,0,1,7.11.1c.83,0,1.63.1,2.48.2a23.94,23.94,0,0,1,2.5.29c.81.08,1.66.22,2.49.38a.18.18,0,0,1,.17,0c.81.11,1.64.27,2.47.45a82.74,82.74,0,0,1,8.41,2.11c.92.27,1.85.59,2.8.9s2,.67,3,1.05q2.63,1,5.28,2.12l1.77.79,2.43,1.11c.77.37,1.53.74,2.32,1.14,1.24.63,2.48,1.28,3.75,2,1,.57,2.1,1.16,3.17,1.77l406.57,234.73,8.75,5.07a157.14,157.14,0,0,1,13.81,9C1567.34,767.71,1607.2,841.36,1607.2,902.65Z"/><path class="cls-57" d="M1594.7,891.49v789L593.15,2476.64,441.68,1317c0-100.94-65.62-222.18-150.66-284a261.59,261.59,0,0,0-22.73-14.79l-14.41-8.34L112.5,451.05c-1.75-1-3.51-2-5.22-2.91-2.09-1.15-4.12-2.21-6.17-3.25-1.3-.65-2.56-1.27-3.82-1.88s-2.66-1.24-4-1.81c-1-.45-2-.88-2.91-1.3-2.92-1.26-5.82-2.44-8.69-3.51-1.66-.61-3.29-1.2-4.91-1.71s-3.07-1-4.61-1.5a129.72,129.72,0,0,0-13.85-3.46c-1.36-.3-2.72-.56-4.06-.75a.38.38,0,0,0-.29,0c-1.36-.26-2.76-.48-4.08-.61-1.09-.18-2.13-.32-3.17-.4L1014.37,457l1.48-.29a12.71,12.71,0,0,1,1.5-.26c.75-.12,1.51-.24,2.28-.32.57-.07,1.14-.13,1.72-.17.86-.08,1.73-.14,2.6-.18a56.5,56.5,0,0,1,7.11.1c.83,0,1.63.1,2.48.2a23.94,23.94,0,0,1,2.5.29c.81.08,1.66.22,2.49.38a.17.17,0,0,1,.17,0c.81.11,1.64.27,2.47.45a82.74,82.74,0,0,1,8.41,2.11c.93.27,1.85.59,2.8.9s2,.67,3,1.05c1.76.65,3.51,1.36,5.28,2.12l1.78.79,2.42,1.11,2.32,1.14c1.24.63,2.49,1.28,3.75,2,1,.57,2.1,1.16,3.17,1.77L1480.64,705l8.75,5.07a157.14,157.14,0,0,1,13.81,9C1554.84,756.55,1594.7,830.2,1594.7,891.49Z"/><g id="light_inside_fridge" data-name="light inside fridge"><polygon class="cls-58" points="1108.85 1097.46 1349.7 954.77 1594.7 1096.97 1595.77 1372.87 1108.85 1097.46"/><polygon class="cls-59" points="978.37 1330.67 1219.21 1187.99 1596.15 1406.76 1594.7 1680.46 978.37 1330.67"/><g class="cls-60"><polygon class="cls-61" points="1119.66 789.72 1693.25 449.9 1697.45 1116.53 1119.66 789.72"/></g></g></g><g id="Lighs_Dog" data-name="Lighs Dog"><path class="cls-62" d="M1234.51,1327.07l56.42,89.42a13.76,13.76,0,0,1,1.9,9.83l-1.94,10.52Z"/><path class="cls-63" d="M1140.62,1308.06s35.41,27,54.64,51.94a1.8,1.8,0,0,1-2.55,2.5c-13.71-11.09-38-30.89-42.57-35.43C1143.76,1320.69,1140.62,1312,1140.62,1308.06Z"/><path class="cls-64" d="M1289.81,1367.73s28-2.41,57.18,35.32c11.56,15,3-21.3-37-39.79C1310,1363.26,1295.83,1361.7,1289.81,1367.73Z"/><path class="cls-65" d="M1306,1538.49s140.24-72.74,152.44-62.08C1465.33,1482.41,1325.17,1547.19,1306,1538.49Z"/><path class="cls-66" d="M1304,1390.83s-19.91-18.3-36.72-24.16C1256,1362.75,1294.23,1366.43,1304,1390.83Z"/><path class="cls-67" d="M1360.27,1402.15s17.44-11.39,28.83,0A87.91,87.91,0,0,0,1360.27,1402.15Z"/><path class="cls-68" d="M1345,1395.07s17.28,28,17.28,35.11.72,16.83-3.87,21.41a27.78,27.78,0,0,0,0-21.41C1353.6,1418.54,1342.39,1397.65,1345,1395.07Z"/></g><g id="Ligh_dog" data-name="Ligh dog" class="cls-69"><path class="cls-70" d="M1220.79,1361.37s-9.3,39-9.3,61.52c0,51.2-25.21,33.12-29.63,28.7s-28.21-19.82-10.06-45c14.27-19.81,18.48-24.63,18.48-24.63s-31.19-59.76-44.25-63.79c0,0-11.84-10.1-5.41-10.1,0,0,53.94,45.08,61.52,62Z"/><path class="cls-71" d="M1465.09,1480.57c-7.68-6.81-20.72-12.56-30-9.09-16.8,9.56-26.83,15.17-43.94,24.17-4.23.63-20.48,9.61-24.19,11.67-3.91,2.16-8.19,3.64-17.51,6.07.59-.22,1.15-.47,1.74-.68q-4.89,1.38-9.73,2.89c4-4,3.61-9.86,4.19-15.55a156.2,156.2,0,0,0,3.29-18l-.3.75c.15-1.23.3-2.46.43-3.71.36-3.65.61-7.33.8-11l0,0s0-.06,0-.08l0-.07c0-.59.07-1.16.1-1.75l.09-.14a84.34,84.34,0,0,0,11.09-20.75l1.44-1.45,4.51-4.42c6.24-6,12.64-12.1,17.38-17,1.33-1.34,2.53-2.57,3.5-3.61,2.18-2.35,3-3.76,3.26-4.91a6.16,6.16,0,0,0-.28-5.29,11,11,0,0,1,.18-1.37l-.93-.35a14.08,14.08,0,0,1-1.14-4.71c-8.19-6.65-15.59-6.09-25-2.43q-2.89,1.68-5.81,3.34h0l-2,1.12h-.08a4.49,4.49,0,0,1-.57.1l-4,1.56a113.26,113.26,0,0,0-19.77-26.3l-.3-.27.16-.06c-7.1-5.83-12.76-10.27-21.73-14-7.06-2.92-15.58-.28-22.3,3.73h0l0,0a24.94,24.94,0,0,0-2.58,1.56l0,0-.3.24-.34.23a7.72,7.72,0,0,0-1.87,1.3l-.74.51c-.42-.25-.83-.47-1.25-.71a47.08,47.08,0,0,0-4.19-2.44c1,.59,2.11,1.22,3.22,1.89-1.46-.83-2.93-1.68-4.39-2.48l1.17.59c-3-1.68-5.82-3.11-9.11-4.92.44.29.86.56,1.27.81-4.87-2.47-9.83-4.79-15-6.94-4-7.39-11.57-19.51-14.93-25.83-3.7-7-6.84-8.89-9.47-3.78,9.75,18.44,49.94,95.47,55.5,122.59,6.34,30.91-28.81,43.1-28.81,58.33s-3.92,60.92,11.48,57.44,52.69-34.52,88.65-39.89,57-20.47,64.69-24.52c41.48-21.8,36.34,1.58,40.65-3,.87-.88,1.67-1.69,2.32-2.38,3.23-3.36,3.41-4,3.19-4.51C1469.2,1488.25,1468.75,1485.13,1465.09,1480.57Z"/></g></g></g></svg>