<svg xmlns="http://www.w3.org/2000/svg" xmlns:xlink="http://www.w3.org/1999/xlink" viewBox="0 0 2500 2500"><defs><style>.cls-1{fill:none;}.cls-2{isolation:isolate;}.cls-3{fill:url(#Degradado_sin_nombre_6);}.cls-4{fill:url(#Degradado_sin_nombre_275);}.cls-5{fill:url(#Degradado_sin_nombre_61);}.cls-6{fill:url(#Degradado_sin_nombre_17);}.cls-7{filter:url(#AI_DesenfoqueGaussiano_4);}.cls-8{fill:url(#Degradado_sin_nombre_24);}.cls-9{fill:url(#Degradado_sin_nombre_23);}.cls-10{fill:url(#Degradado_sin_nombre_72);}.cls-11{fill:#d4ecf6;fill-opacity:0.48;}.cls-12{fill:url(#Degradado_sin_nombre_83);}.cls-13,.cls-16{fill:#fafbfc;}.cls-13,.cls-17{opacity:0.31;}.cls-14{fill:url(#Degradado_sin_nombre_83-2);}.cls-15{opacity:0.2;}.cls-18{fill:#fff;}.cls-19{fill:url(#Degradado_sin_nombre_794);}.cls-20{fill:url(#Degradado_sin_nombre_149);}.cls-21{fill:#ddf0f8;}.cls-22{fill:url(#Degradado_sin_nombre_56);}.cls-23{fill:url(#Degradado_sin_nombre_2);}.cls-24{mix-blend-mode:hard-light;}.cls-25{fill:url(#Degradado_sin_nombre_265);}.cls-26{fill:url(#Degradado_sin_nombre_6-2);}.cls-27{fill:url(#Degradado_sin_nombre_95);}.cls-28{fill:url(#Degradado_sin_nombre_275-2);}.cls-29{fill:url(#Degradado_sin_nombre_19);}.cls-30,.cls-67,.cls-69,.cls-70,.cls-72,.cls-81{mix-blend-mode:overlay;}.cls-30{fill:url(#Degradado_sin_nombre_259);}.cls-31{fill:url(#Degradado_sin_nombre_68);}.cls-32{fill:url(#Degradado_sin_nombre_146);}.cls-33{fill:#fcfdfe;}.cls-34{fill:url(#Nueva_muestra_de_degradado_2);}.cls-35{fill:url(#Nueva_muestra_de_degradado_43);}.cls-36{fill:url(#Nueva_muestra_de_degradado_2-2);}.cls-37{fill:url(#Degradado_sin_nombre_35);}.cls-38{fill:url(#Degradado_sin_nombre_52);}.cls-39{fill:url(#Degradado_sin_nombre_87);}.cls-40{fill:url(#Degradado_sin_nombre_56-2);}.cls-41{fill:url(#Degradado_sin_nombre_72-2);}.cls-42{fill:url(#Degradado_sin_nombre_83-3);}.cls-43{fill:url(#Degradado_sin_nombre_83-4);}.cls-44{fill:url(#Degradado_sin_nombre_72-3);}.cls-45{fill:url(#Degradado_sin_nombre_83-5);}.cls-46{fill:url(#Degradado_sin_nombre_83-6);}.cls-47{fill:url(#Degradado_sin_nombre_83-7);}.cls-48{fill:url(#Degradado_sin_nombre_62);}.cls-49{fill:url(#Degradado_sin_nombre_62-2);}.cls-50{fill:url(#Degradado_sin_nombre_62-3);}.cls-51{fill:url(#Degradado_sin_nombre_62-4);}.cls-52{fill:url(#Degradado_sin_nombre_62-5);}.cls-53{fill:url(#Degradado_sin_nombre_62-6);}.cls-54{fill:url(#Degradado_sin_nombre_83-8);}.cls-55{fill:url(#Degradado_sin_nombre_111);}.cls-56{fill:url(#Degradado_sin_nombre_214);}.cls-57{fill:url(#Degradado_sin_nombre_12);}.cls-58{fill:#000035;}.cls-58,.cls-64{fill-opacity:0.2;}.cls-59{fill:#aabdc5;}.cls-60{fill:url(#Degradado_sin_nombre_12-2);}.cls-61{fill:#020002;}.cls-62{fill:#0d7e8a;}.cls-63{fill:url(#Nueva_muestra_de_degradado_60);}.cls-64{fill:url(#Degradado_sin_nombre_11);}.cls-65{fill:url(#Nueva_muestra_de_degradado_60-2);}.cls-66{opacity:0.73;}.cls-68{fill:url(#Degradado_sin_nombre_75);}.cls-69{fill:url(#Degradado_sin_nombre_264);}.cls-70{fill:url(#Degradado_sin_nombre_263);}.cls-71{clip-path:url(#clip-path);}.cls-72{fill:url(#Degradado_sin_nombre_259-2);}.cls-73{fill:url(#Degradado_sin_nombre_202);}.cls-74{fill:url(#Degradado_sin_nombre_203);}.cls-75{fill:url(#Degradado_sin_nombre_208);}.cls-76{fill:url(#Degradado_sin_nombre_205);}.cls-77{fill:url(#Degradado_sin_nombre_165);}.cls-78{fill:url(#Degradado_sin_nombre_165-2);}.cls-79{fill:url(#Degradado_sin_nombre_202-2);}.cls-80{mix-blend-mode:screen;}.cls-81{fill:url(#Degradado_sin_nombre_18);}.cls-82{fill:url(#Degradado_sin_nombre_18-2);}</style><linearGradient id="Degradado_sin_nombre_6" x1="182.35" y1="262.18" x2="424.3" y2="-164.93" gradientUnits="userSpaceOnUse"><stop offset="0" stop-color="#90aac1"/><stop offset="0.01" stop-color="#a8c1d4"/><stop offset="0.02" stop-color="#c0d9e7"/><stop offset="0.03" stop-color="#cfe7f2"/><stop offset="0.03" stop-color="#d4ecf6"/><stop offset="0.19" stop-color="#acc4d0"/><stop offset="0.42" stop-color="#738b9b"/><stop offset="0.54" stop-color="#5d7586"/></linearGradient><linearGradient id="Degradado_sin_nombre_275" x1="382.33" y1="330.28" x2="366.65" y2="21.08" gradientUnits="userSpaceOnUse"><stop offset="0" stop-color="#d4ecf6"/><stop offset="0.01" stop-color="#cce4f0"/><stop offset="0.04" stop-color="#b2cbdb"/><stop offset="0.08" stop-color="#9fb8cd"/><stop offset="0.11" stop-color="#94aec4"/><stop offset="0.15" stop-color="#90aac1"/><stop offset="0.54" stop-color="#5d7586"/></linearGradient><linearGradient id="Degradado_sin_nombre_61" x1="182.35" y1="262.18" x2="424.3" y2="-164.93" gradientUnits="userSpaceOnUse"><stop offset="0" stop-color="#90aac1"/><stop offset="0.01" stop-color="#a8c1d4"/><stop offset="0.02" stop-color="#c0d9e7"/><stop offset="0.03" stop-color="#cfe7f2"/><stop offset="0.03" stop-color="#d4ecf6"/><stop offset="0.05" stop-color="#d1ecf6"/><stop offset="0.38" stop-color="#a2e7fd" stop-opacity="0.93"/><stop offset="0.54" stop-color="#90e5ff" stop-opacity="0.9"/><stop offset="0.85" stop-color="#90e5ff" stop-opacity="0.9"/><stop offset="1" stop-color="#e2f8ff" stop-opacity="0.9"/></linearGradient><linearGradient id="Degradado_sin_nombre_17" x1="382.33" y1="330.28" x2="366.65" y2="21.08" gradientUnits="userSpaceOnUse"><stop offset="0" stop-color="#90aac1"/><stop offset="0.01" stop-color="#a8c1d4"/><stop offset="0.02" stop-color="#c0d9e7"/><stop offset="0.03" stop-color="#cfe7f2"/><stop offset="0.03" stop-color="#d4ecf6"/><stop offset="0.05" stop-color="#d1ecf6"/><stop offset="0.38" stop-color="#a2e7fd" stop-opacity="0.93"/><stop offset="0.54" stop-color="#90e5ff" stop-opacity="0.9"/></linearGradient><filter id="AI_DesenfoqueGaussiano_4" name="AI_DesenfoqueGaussiano_4"><feGaussianBlur stdDeviation="4"/></filter><linearGradient id="Degradado_sin_nombre_24" x1="29.03" y1="32.92" x2="247.63" y2="32.92" gradientUnits="userSpaceOnUse"><stop offset="0" stop-color="#7e9cbd" stop-opacity="0.5"/><stop offset="0.48" stop-color="#7e9cbd" stop-opacity="0.1"/><stop offset="1" stop-color="#7e9cbd" stop-opacity="0"/></linearGradient><radialGradient id="Degradado_sin_nombre_23" cx="-7703.38" cy="4309.81" r="62.98" gradientTransform="matrix(-0.41, 0.71, -0.41, -0.7, -1287.57, 8555.33)" gradientUnits="userSpaceOnUse"><stop offset="0" stop-color="#7e9cbd" stop-opacity="0.3"/><stop offset="1" stop-color="#7e9cbd" stop-opacity="0"/></radialGradient><linearGradient id="Degradado_sin_nombre_72" x1="166.22" y1="38.7" x2="179.98" y2="108.78" gradientUnits="userSpaceOnUse"><stop offset="0" stop-color="#d4ecf6" stop-opacity="0"/><stop offset="0.02" stop-color="#c4ddea" stop-opacity="0.02"/><stop offset="0.09" stop-color="#9db7cb" stop-opacity="0.08"/><stop offset="0.16" stop-color="#90aac1" stop-opacity="0.1"/><stop offset="0.87" stop-color="#5d7586" stop-opacity="0.3"/></linearGradient><linearGradient id="Degradado_sin_nombre_83" x1="333.79" y1="26.11" x2="356.38" y2="-17.06" gradientUnits="userSpaceOnUse"><stop offset="0" stop-color="#fafbfc" stop-opacity="0.3"/><stop offset="0.06" stop-color="#f9fbfc" stop-opacity="0.8"/><stop offset="0.17" stop-color="#f5f8fa" stop-opacity="0.7"/><stop offset="0.99" stop-color="#e6f4fa"/><stop offset="0.99" stop-color="#d4ecf6" stop-opacity="0.7"/></linearGradient><linearGradient id="Degradado_sin_nombre_83-2" x1="-4.5" y1="80.4" x2="347.4" y2="80.4" xlink:href="#Degradado_sin_nombre_83"/><radialGradient id="Degradado_sin_nombre_794" cx="998.09" cy="1170.01" r="443.16" gradientTransform="matrix(-0.43, 0.78, -0.35, -0.62, 2132.18, 1550.08)" gradientUnits="userSpaceOnUse"><stop offset="0" stop-color="#90aac1" stop-opacity="0.2"/><stop offset="0.33" stop-color="#90aac1" stop-opacity="0.16"/><stop offset="0.84" stop-color="#90aac1" stop-opacity="0.04"/><stop offset="1" stop-color="#90aac1" stop-opacity="0"/></radialGradient><linearGradient id="Degradado_sin_nombre_149" x1="1741.67" y1="1561.08" x2="1045.84" y2="1561.08" gradientUnits="userSpaceOnUse"><stop offset="0" stop-color="#d4ecf6" stop-opacity="0.1"/><stop offset="0.04" stop-color="#b5cede" stop-opacity="0.1"/><stop offset="0.15" stop-color="#90aac1" stop-opacity="0.1"/><stop offset="0.87" stop-color="#5d7586" stop-opacity="0.3"/><stop offset="1" stop-color="#5d7586" stop-opacity="0"/></linearGradient><linearGradient id="Degradado_sin_nombre_56" x1="902.85" y1="1124.81" x2="1358.91" y2="1222.99" gradientUnits="userSpaceOnUse"><stop offset="0.23" stop-color="#d4ecf6" stop-opacity="0.1"/><stop offset="1" stop-color="#5d7586" stop-opacity="0.3"/></linearGradient><linearGradient id="Degradado_sin_nombre_2" x1="1055.52" y1="1219.63" x2="1533.67" y2="1219.63" gradientUnits="userSpaceOnUse"><stop offset="0" stop-color="#d4ecf6" stop-opacity="0.1"/><stop offset="0.37" stop-color="#7d95a4" stop-opacity="0.25"/><stop offset="0.74" stop-color="#5d7586" stop-opacity="0.3"/></linearGradient><linearGradient id="Degradado_sin_nombre_265" x1="1337.92" y1="1222.69" x2="1187.15" y2="1272.95" gradientUnits="userSpaceOnUse"><stop offset="0.35" stop-color="#2bebdd" stop-opacity="0.65"/><stop offset="1" stop-color="#2bebdd" stop-opacity="0"/></linearGradient><linearGradient id="Degradado_sin_nombre_6-2" x1="1272.43" y1="1455.07" x2="1514.84" y2="1027.15" xlink:href="#Degradado_sin_nombre_6"/><linearGradient id="Degradado_sin_nombre_95" x1="1257.06" y1="1255.13" x2="1121.24" y2="1108.7" gradientUnits="userSpaceOnUse"><stop offset="0" stop-color="#d4ecf6" stop-opacity="0"/><stop offset="0.02" stop-color="#c4ddea" stop-opacity="0.02"/><stop offset="0.09" stop-color="#9db7cb" stop-opacity="0.08"/><stop offset="0.16" stop-color="#90aac1" stop-opacity="0.1"/><stop offset="0.53" stop-color="#5d7586" stop-opacity="0.3"/></linearGradient><linearGradient id="Degradado_sin_nombre_275-2" x1="1507.21" y1="1542.88" x2="1491.53" y2="1233.68" xlink:href="#Degradado_sin_nombre_275"/><linearGradient id="Degradado_sin_nombre_19" x1="1272.55" y1="1454.58" x2="1514.5" y2="1027.47" gradientUnits="userSpaceOnUse"><stop offset="0" stop-color="#90aac1"/><stop offset="0.01" stop-color="#a8c1d4"/><stop offset="0.02" stop-color="#c0d9e7"/><stop offset="0.03" stop-color="#cfe7f2"/><stop offset="0.03" stop-color="#d4ecf6"/><stop offset="0.05" stop-color="#d1ecf6"/><stop offset="0.38" stop-color="#a2e7fd" stop-opacity="0.93"/><stop offset="0.54" stop-color="#90e5ff" stop-opacity="0.9"/><stop offset="1" stop-color="#90e5ff" stop-opacity="0.9"/></linearGradient><linearGradient id="Degradado_sin_nombre_259" x1="1222.24" y1="1229.86" x2="1130.81" y2="1354.42" gradientUnits="userSpaceOnUse"><stop offset="0" stop-color="#2bebdd" stop-opacity="0.65"/><stop offset="1" stop-color="#2bebdd" stop-opacity="0"/></linearGradient><linearGradient id="Degradado_sin_nombre_68" x1="1283.96" y1="898.66" x2="1381.56" y2="1073.43" gradientUnits="userSpaceOnUse"><stop offset="0" stop-color="#fafbfc"/><stop offset="0.55" stop-color="#f5f8fa"/><stop offset="0.99" stop-color="#d4ecf6" stop-opacity="0.9"/></linearGradient><linearGradient id="Degradado_sin_nombre_146" x1="1497.96" y1="1288.68" x2="1325.69" y2="824.87" gradientUnits="userSpaceOnUse"><stop offset="0" stop-color="#b7d4f4" stop-opacity="0"/><stop offset="0.36" stop-color="#b7d4f4" stop-opacity="0.2"/><stop offset="1" stop-color="#b7d4f4" stop-opacity="0"/></linearGradient><linearGradient id="Nueva_muestra_de_degradado_2" x1="1286.63" y1="1444.04" x2="974.78" y2="1333.61" gradientUnits="userSpaceOnUse"><stop offset="0" stop-color="#fafbfc"/><stop offset="0.55" stop-color="#f5f8fa"/><stop offset="0.99" stop-color="#e5f4fa"/><stop offset="0.99" stop-color="#d4ecf6" stop-opacity="0.9"/></linearGradient><linearGradient id="Nueva_muestra_de_degradado_43" x1="1181.75" y1="1335.36" x2="1033.38" y2="911.78" gradientUnits="userSpaceOnUse"><stop offset="0" stop-color="#d4ecf6" stop-opacity="0.1"/><stop offset="0.04" stop-color="#b5cede" stop-opacity="0.1"/><stop offset="0.15" stop-color="#90aac1" stop-opacity="0.1"/><stop offset="0.87" stop-color="#5d7586" stop-opacity="0.3"/></linearGradient><linearGradient id="Nueva_muestra_de_degradado_2-2" x1="1016" y1="1509.41" x2="1439.03" y2="1569.27" xlink:href="#Nueva_muestra_de_degradado_2"/><linearGradient id="Degradado_sin_nombre_35" x1="1034.34" y1="1534.16" x2="1387.91" y2="1534.16" gradientUnits="userSpaceOnUse"><stop offset="0" stop-color="#fff" stop-opacity="0"/><stop offset="0.44" stop-color="#fff" stop-opacity="0"/><stop offset="0.48" stop-color="#fff" stop-opacity="0"/><stop offset="1" stop-color="#d4ecf6" stop-opacity="0.9"/></linearGradient><linearGradient id="Degradado_sin_nombre_52" x1="1259.36" y1="1378.11" x2="981.11" y2="2137.29" gradientUnits="userSpaceOnUse"><stop offset="0" stop-color="#fff" stop-opacity="0"/><stop offset="0.1" stop-color="#fafcfe" stop-opacity="0.01"/><stop offset="0.19" stop-color="#ebf3fc" stop-opacity="0.06"/><stop offset="0.27" stop-color="#d1e4f8" stop-opacity="0.13"/><stop offset="0.33" stop-color="#b7d4f4" stop-opacity="0.2"/><stop offset="0.59" stop-color="#b7d4f4" stop-opacity="0"/></linearGradient><linearGradient id="Degradado_sin_nombre_87" x1="1078.44" y1="1083.7" x2="380.53" y2="1190.59" gradientUnits="userSpaceOnUse"><stop offset="0" stop-color="#eef7fb"/><stop offset="0.02" stop-color="#f0f8fc"/><stop offset="0.2" stop-color="#fbfdfe"/><stop offset="0.38" stop-color="#fff"/><stop offset="0.46" stop-color="#fbfdfe"/><stop offset="0.54" stop-color="#f0f8fc"/><stop offset="0.61" stop-color="#dcf0f8"/><stop offset="0.64" stop-color="#d4ecf6"/><stop offset="0.72" stop-color="#d4ecf6"/><stop offset="0.9" stop-color="#d4ecf6"/><stop offset="0.99" stop-color="#d4ecf6"/></linearGradient><linearGradient id="Degradado_sin_nombre_56-2" x1="1052.65" y1="954.04" x2="561.46" y2="1431.1" xlink:href="#Degradado_sin_nombre_56"/><linearGradient id="Degradado_sin_nombre_72-2" x1="923.42" y1="963.65" x2="937.36" y2="1034.66" xlink:href="#Degradado_sin_nombre_72"/><linearGradient id="Degradado_sin_nombre_83-3" x1="1020.18" y1="962.47" x2="1033.17" y2="937.66" xlink:href="#Degradado_sin_nombre_83"/><linearGradient id="Degradado_sin_nombre_83-4" x1="828.95" y1="1005.5" x2="1029.72" y2="1005.5" xlink:href="#Degradado_sin_nombre_83"/><linearGradient id="Degradado_sin_nombre_72-3" x1="744.03" y1="1016.41" x2="754.84" y2="1071.51" xlink:href="#Degradado_sin_nombre_72"/><linearGradient id="Degradado_sin_nombre_83-5" x1="801.33" y1="1024.25" x2="814.32" y2="999.44" xlink:href="#Degradado_sin_nombre_83"/><linearGradient id="Degradado_sin_nombre_83-6" x1="688.6" y1="1038.35" x2="769.34" y2="1038.35" xlink:href="#Degradado_sin_nombre_83"/><linearGradient id="Degradado_sin_nombre_83-7" x1="688.6" y1="1034.16" x2="769.34" y2="1034.16" xlink:href="#Degradado_sin_nombre_83"/><radialGradient id="Degradado_sin_nombre_62" cx="730.98" cy="1035.65" r="14.08" gradientUnits="userSpaceOnUse"><stop offset="0" stop-color="#fafbfc"/><stop offset="0.41" stop-color="#f5f8fa"/><stop offset="0.76" stop-color="#d4ecf6" stop-opacity="0.9"/><stop offset="0.99" stop-color="#e5f4fa"/></radialGradient><radialGradient id="Degradado_sin_nombre_62-2" cx="725.52" cy="1024.2" r="14.08" xlink:href="#Degradado_sin_nombre_62"/><radialGradient id="Degradado_sin_nombre_62-3" cx="706.54" cy="1027.89" r="14.08" xlink:href="#Degradado_sin_nombre_62"/><radialGradient id="Degradado_sin_nombre_62-4" cx="712" cy="1039.34" r="14.08" xlink:href="#Degradado_sin_nombre_62"/><radialGradient id="Degradado_sin_nombre_62-5" cx="749.98" cy="1031.95" r="14.08" xlink:href="#Degradado_sin_nombre_62"/><radialGradient id="Degradado_sin_nombre_62-6" cx="744.52" cy="1020.51" r="14.08" xlink:href="#Degradado_sin_nombre_62"/><linearGradient id="Degradado_sin_nombre_83-8" x1="687.02" y1="1050.65" x2="810.57" y2="1050.65" xlink:href="#Degradado_sin_nombre_83"/><linearGradient id="Degradado_sin_nombre_111" x1="1166.99" y1="1620.64" x2="1301.23" y2="1371.17" gradientUnits="userSpaceOnUse"><stop offset="0.04" stop-color="#d4ecf6" stop-opacity="0"/><stop offset="0.08" stop-color="#c4ddea" stop-opacity="0.02"/><stop offset="0.24" stop-color="#9db7cb" stop-opacity="0.08"/><stop offset="0.41" stop-color="#90aac1" stop-opacity="0.1"/><stop offset="0.87" stop-color="#5d7586" stop-opacity="0.3"/></linearGradient><radialGradient id="Degradado_sin_nombre_214" cx="1196.8" cy="1495.64" r="81.04" gradientTransform="translate(0 -1455.03) scale(1 1.97)" gradientUnits="userSpaceOnUse"><stop offset="0.13" stop-color="#141226" stop-opacity="0.3"/><stop offset="0.59" stop-color="#90aac1" stop-opacity="0.1"/><stop offset="0.76" stop-color="#9db7cb" stop-opacity="0.08"/><stop offset="0.92" stop-color="#c4ddea" stop-opacity="0.02"/><stop offset="0.96" stop-color="#d4ecf6" stop-opacity="0"/></radialGradient><linearGradient id="Degradado_sin_nombre_12" x1="1186.36" y1="1395.44" x2="1266.94" y2="1395.44" gradientUnits="userSpaceOnUse"><stop offset="0" stop-color="#cbcccd" stop-opacity="0.8"/><stop offset="0.55" stop-color="#c5c7c9" stop-opacity="0.8"/><stop offset="0.99" stop-color="#cdd8dd" stop-opacity="0.8"/></linearGradient><linearGradient id="Degradado_sin_nombre_12-2" x1="1195.45" y1="1500.7" x2="1111.05" y2="1481.29" xlink:href="#Degradado_sin_nombre_12"/><linearGradient id="Nueva_muestra_de_degradado_60" x1="1072.5" y1="1366.53" x2="1244.19" y2="1627.6" gradientUnits="userSpaceOnUse"><stop offset="0" stop-color="#aabdc5" stop-opacity="0.1"/><stop offset="0.03" stop-color="#90a3af" stop-opacity="0.1"/><stop offset="0.15" stop-color="#6b7f90" stop-opacity="0.1"/><stop offset="0.87" stop-color="#3b4a55" stop-opacity="0.3"/></linearGradient><linearGradient id="Degradado_sin_nombre_11" x1="1252.55" y1="1551.6" x2="1083.3" y2="1432.24" gradientUnits="userSpaceOnUse"><stop offset="0" stop-color="#004568" stop-opacity="0.8"/><stop offset="0.99" stop-color="#004568" stop-opacity="0"/></linearGradient><linearGradient id="Nueva_muestra_de_degradado_60-2" x1="1147.31" y1="1334.18" x2="1170.69" y2="1334.18" xlink:href="#Nueva_muestra_de_degradado_60"/><linearGradient id="Degradado_sin_nombre_75" x1="1577.36" y1="937.39" x2="391.72" y2="1535.57" gradientUnits="userSpaceOnUse"><stop offset="0.19" stop-color="#90e5ff" stop-opacity="0.5"/><stop offset="0.47" stop-color="#95eee5" stop-opacity="0.3"/><stop offset="0.54" stop-color="#a9f0ed" stop-opacity="0.21"/><stop offset="0.67" stop-color="#d7f6ff" stop-opacity="0"/></linearGradient><linearGradient id="Degradado_sin_nombre_264" x1="1371.01" y1="1057.64" x2="1270.75" y2="1225.64" gradientUnits="userSpaceOnUse"><stop offset="0.43" stop-color="#2bebdd" stop-opacity="0.65"/><stop offset="0.91" stop-color="#2bebdd" stop-opacity="0"/></linearGradient><linearGradient id="Degradado_sin_nombre_263" x1="1338.24" y1="1193.85" x2="1237.24" y2="1363.1" gradientUnits="userSpaceOnUse"><stop offset="0.38" stop-color="#2bebdd" stop-opacity="0.5"/><stop offset="0.91" stop-color="#2bebdd" stop-opacity="0"/></linearGradient><clipPath id="clip-path"><path id="SVGID" class="cls-1" d="M1372,1106.43v132l1.2-10.92-217.92-105.23,52.52-164.87,2.86-18.11-10.74-6.64L1302.67,992l4.44,2.57c2.38,1.37,4.55,3.11,7,4.48C1359.64,1024.35,1376.28,1075.88,1372,1106.43Z"/></clipPath><linearGradient id="Degradado_sin_nombre_259-2" x1="1367.22" y1="1026.93" x2="1302.28" y2="1094.51" xlink:href="#Degradado_sin_nombre_259"/><linearGradient id="Degradado_sin_nombre_202" x1="1186.77" y1="1340.09" x2="1244.37" y2="1340.09" gradientUnits="userSpaceOnUse"><stop offset="0" stop-color="#f6f6f6"/><stop offset="0.25" stop-color="#ebf7fb" stop-opacity="0.95"/><stop offset="0.54" stop-color="#e0f8ff" stop-opacity="0.9"/><stop offset="1" stop-color="#e0f8ff" stop-opacity="0.9"/></linearGradient><linearGradient id="Degradado_sin_nombre_203" x1="1154.33" y1="1315.33" x2="1148.7" y2="1320.97" gradientUnits="userSpaceOnUse"><stop offset="0.03" stop-color="#f6f6f6"/><stop offset="0.27" stop-color="#ebf7fb" stop-opacity="0.95"/><stop offset="0.54" stop-color="#e0f8ff" stop-opacity="0.9"/><stop offset="1" stop-color="#e0f8ff" stop-opacity="0.9"/></linearGradient><linearGradient id="Degradado_sin_nombre_208" x1="1234.91" y1="1336.48" x2="1231.36" y2="1341.89" gradientUnits="userSpaceOnUse"><stop offset="0.03" stop-color="#c6f2ff"/><stop offset="0.26" stop-color="#ccf3ff" stop-opacity="0.67"/><stop offset="0.51" stop-color="#d3f5ff" stop-opacity="0.31"/><stop offset="0.69" stop-color="#d7f6ff" stop-opacity="0.09"/><stop offset="0.78" stop-color="#d9f6ff" stop-opacity="0"/></linearGradient><linearGradient id="Degradado_sin_nombre_205" x1="1317.61" y1="1384.49" x2="1230.37" y2="1415.47" xlink:href="#Degradado_sin_nombre_203"/><linearGradient id="Degradado_sin_nombre_165" x1="1202.71" y1="1338.12" x2="1222.39" y2="1338.12" gradientUnits="userSpaceOnUse"><stop offset="0" stop-color="#b8bdc1"/><stop offset="0.01" stop-color="#cacdd0"/><stop offset="0.02" stop-color="#e2e4e5"/><stop offset="0.03" stop-color="#f1f1f2"/><stop offset="0.03" stop-color="#f6f6f6"/><stop offset="0.27" stop-color="#ebf7fb" stop-opacity="0.95"/><stop offset="0.54" stop-color="#e0f8ff" stop-opacity="0.9"/><stop offset="1" stop-color="#e0f8ff" stop-opacity="0.9"/></linearGradient><linearGradient id="Degradado_sin_nombre_165-2" x1="1250.95" y1="1349.05" x2="1265.59" y2="1349.05" xlink:href="#Degradado_sin_nombre_165"/><linearGradient id="Degradado_sin_nombre_202-2" x1="1242.89" y1="1361.09" x2="1260.31" y2="1361.09" xlink:href="#Degradado_sin_nombre_202"/><linearGradient id="Degradado_sin_nombre_18" x1="1178.44" y1="1323.53" x2="1142.86" y2="1348.73" gradientUnits="userSpaceOnUse"><stop offset="0" stop-color="#d9fbf9" stop-opacity="0.65"/><stop offset="0.43" stop-color="#2bebdd" stop-opacity="0.65"/><stop offset="0.91" stop-color="#2bebdd" stop-opacity="0"/></linearGradient><linearGradient id="Degradado_sin_nombre_18-2" x1="1268.35" y1="1325.28" x2="1190.61" y2="1422.9" xlink:href="#Degradado_sin_nombre_18"/><symbol id="SHADOW_PEOPLE_4" data-name="SHADOW PEOPLE 4" viewBox="0 0 269.17 74.14"><g class="cls-7"><path class="cls-8" d="M247.63,32.92c.09,15.15-21,27.43-47.19,27.42H76.53a81.87,81.87,0,0,1-8.38-.43c-.78-.08-1.55-.18-2.31-.28s-1.52-.21-2.27-.34-1.49-.25-2.23-.4-1.46-.29-2.17-.46c-1.35-.3-2.66-.65-4-1L54,57l-2-.67c-.65-.22-1.29-.46-1.92-.71-1.26-.49-2.48-1-3.65-1.58-.59-.28-1.16-.56-1.73-.86s-1.11-.6-1.65-.91-1.06-.63-1.57-1-1-.66-1.49-1a33,33,0,0,1-2.74-2.11c-.43-.36-.84-.73-1.24-1.11s-.78-.76-1.15-1.15l-.53-.58a23.09,23.09,0,0,1-1.78-2.25L32,42.35l-.39-.63c-.25-.43-.48-.86-.7-1.29s-.41-.87-.59-1.32-.34-.89-.48-1.34c-.07-.22-.14-.45-.2-.67-.12-.46-.22-.92-.31-1.38a17.35,17.35,0,0,1-.26-2.8C29,17.77,50.08,5.49,76.23,5.49H201.35c1.63,0,3.23.1,4.81.21,1.19.09,2.36.2,3.52.34s2.29.3,3.42.48q2.64.43,5.16,1l1.37.34c1.4.37,2.76.77,4.09,1.21q1,.33,1.95.69a53,53,0,0,1,8,3.71,35.91,35.91,0,0,1,8.18,6.32c.37.39.72.79,1.06,1.19s.65.8.95,1.21a20.28,20.28,0,0,1,1.94,3.17,17.58,17.58,0,0,1,1.44,4,15.25,15.25,0,0,1,.38,2.78C247.62,32.45,247.63,32.68,247.63,32.92Z"/></g><ellipse class="cls-9" cx="63.02" cy="37.76" rx="36.38" ry="63.02" transform="translate(24.87 100.54) rotate(-89.64)"/></symbol><symbol id="Fridge_shelf" data-name="Fridge shelf" viewBox="0 0 496.69 302.46"><g class="cls-2"><path class="cls-3" d="M239.39,0,5.49,135A12.1,12.1,0,0,0,0,144.54v4.52a3.85,3.85,0,0,0,1.61,3.53l257.25,149.5a3.85,3.85,0,0,1-1.61-3.53V294a12.1,12.1,0,0,1,5.49-9.5l233.9-135Z"/><path class="cls-4" d="M496.64,149.5l.05,17.16-233.91,135c-3,1.75-5.51.34-5.52-3.15V294a12.1,12.1,0,0,1,5.49-9.5Z"/></g><g class="cls-2"><path class="cls-5" d="M239.39,0,5.49,135A12.1,12.1,0,0,0,0,144.54v4.52a3.85,3.85,0,0,0,1.61,3.53l257.25,149.5a3.85,3.85,0,0,1-1.61-3.53V294a12.1,12.1,0,0,1,5.49-9.5l233.9-135Z"/><path class="cls-6" d="M496.64,149.5l.05,17.16-233.91,135c-3,1.75-5.51.34-5.52-3.15V294a12.1,12.1,0,0,1,5.49-9.5Z"/></g></symbol><symbol id="Shift_door" data-name="Shift door" viewBox="0 0 345.98 161.63"><polygon class="cls-10" points="0.06 65.7 338.05 0 340.98 79.52 34.07 139.88 12.43 137.16 1.98 116.03 0.06 65.7"/><path class="cls-11" d="M338,50l7,14.7c3.37,7.07-2.86,14.54-13.92,16.69L33.17,139.3c-11.06,2.15-22.75-1.84-26.13-8.91l-7-14.7Z"/><g class="cls-2"><path class="cls-12" d="M338.16,29l-.11-.2V0l7,14.7C347.64,20.09,344.64,25.72,338.16,29Z"/><path class="cls-13" d="M338.05,0V28.83l.11.2c6.48-3.31,9.48-8.94,6.91-14.33l-7-14.7Z"/><path class="cls-14" d="M331.16,31.39,33.2,89.31C22.15,91.46,10.45,87.47,7.07,80.4l-7-14.7L0,118l7,14.69c3.38,7.08,15.08,11.06,26.13,8.91l298-57.91c9-1.75,14.82-7,14.82-12.77l.06-52.3C346,24.35,340.17,29.64,331.16,31.39Z"/><g class="cls-15"><path class="cls-16" d="M342,31.46l-.05,39.45c0,3.28-4,7.37-11.58,8.85l-298,57.92a28.57,28.57,0,0,1-5.33.51c-7.52,0-14.43-3-16.43-7.22L4,117.09,4,83.21c3.78,6.44,12.85,10.68,23.07,10.68A36.49,36.49,0,0,0,34,93.24l298-57.92A29.12,29.12,0,0,0,342,31.46m4-12.84c0,5.73-5.81,11-14.82,12.77L33.2,89.31a31.4,31.4,0,0,1-6.09.58c-9,0-17.28-3.71-20-9.49l-7-14.7L0,118l7,14.69c2.76,5.78,11.07,9.5,20,9.5a31.42,31.42,0,0,0,6.09-.59l298-57.91c9-1.75,14.82-7,14.82-12.77l.06-52.3Z"/></g><g class="cls-17"><path class="cls-18" d="M344,27.37l-.05,43.54c0,4.86-5.43,9.3-13.2,10.81l-298,57.92a30.12,30.12,0,0,1-5.71.55c-8.39,0-15.88-3.44-18.23-8.36L2,117.54l0-43,3.22,6.74c3,6.36,11.81,10.63,21.84,10.63a33.41,33.41,0,0,0,6.48-.62l298-57.91a24.4,24.4,0,0,0,12.43-6m2-8.75c0,5.73-5.81,11-14.82,12.77L33.2,89.31a31.4,31.4,0,0,1-6.09.58c-9,0-17.28-3.71-20-9.49l-7-14.7L0,118l7,14.69c2.76,5.78,11.07,9.5,20,9.5a31.42,31.42,0,0,0,6.09-.59l298-57.91c9-1.75,14.82-7,14.82-12.77l.06-52.3Z"/></g></g></symbol></defs><g class="cls-2"><g id="ARTWORK"><use width="269.17" height="74.14" transform="translate(1009.07 1595.82) scale(1.45)" xlink:href="#SHADOW_PEOPLE_4"/><g id="_----_Fridge_---" data-name="----&gt;&gt;Fridge&lt;&lt;---"><g id="Fridge_body" data-name="Fridge body"><ellipse id="Shadow" class="cls-19" cx="1294.88" cy="1597.21" rx="288.73" ry="519.46" transform="translate(-310.45 2882.02) rotate(-89.64)"/><g id="shadow-2" data-name="shadow" class="cls-7"><path class="cls-20" d="M1468,1735.12,1753.89,1569c10-5.82,10-15.28-.11-21.1l-287.73-166.11c-10.07-5.82-114.84-5.82-124.85,0l-285.85,166.12c-10,5.81-10,15.28.11,21.09l287.73,166.12C1353.26,1740.94,1418.82,1753.46,1468,1735.12Z"/></g><path id="inside" class="cls-21" d="M1366.1,1702.3c-.16.23-.32.46-.5.68-.33.45-.68.88-1,1.3a26.51,26.51,0,0,1-2.25,2.36l-.59.53a25.15,25.15,0,0,1-6.9,4.31c-.36.16-.72.3-1.09.44s-1,.34-1.49.49l-.6.18-.9.23-.66.15-.8.16-.67.12a36,36,0,0,1-14.82-1c-1-.26-2-.57-3-.91q-2.28-.76-4.64-1.81a65.17,65.17,0,0,1-6.38-3.25L1109,1584.57c-29.5-17-53.44-58.28-53.44-92.12V911c0-13.45,3.79-23.71,10.21-30.11.17-.18.35-.35.54-.52a25.47,25.47,0,0,1,12.39-6.46l.75-.15a6.71,6.71,0,0,1,.76-.13c.38-.06.77-.12,1.16-.16l.87-.09,1.32-.09a29.13,29.13,0,0,1,3.61.05c-4.52,6.38,260.14-158.28,260.14-147.17l144,739.44c0,33.84,12.89,121.29,42.4,138.34l-125.45,84.28C1416,1692.73,1359.44,1701.88,1366.1,1702.3Z"/><path id="inside-2" data-name="inside" class="cls-22" d="M1366.1,1702.3c-.16.23-.32.46-.5.68-.33.45-.68.88-1,1.3a26.51,26.51,0,0,1-2.25,2.36l-.59.53a25.15,25.15,0,0,1-6.9,4.31c-.36.16-.72.3-1.09.44s-1,.34-1.49.49l-.6.18-.9.23-.66.15-.8.16-.67.12a36,36,0,0,1-14.82-1c-1-.26-2-.57-3-.91q-2.28-.76-4.64-1.81a65.17,65.17,0,0,1-6.38-3.25L1109,1584.57c-29.5-17-53.44-58.28-53.44-92.12V911c0-13.45,3.79-23.71,10.21-30.11.17-.18.35-.35.54-.52a25.47,25.47,0,0,1,12.39-6.46l.75-.15a6.71,6.71,0,0,1,.76-.13c.38-.06.77-.12,1.16-.16l.87-.09,1.32-.09a29.13,29.13,0,0,1,3.61.05c-4.52,6.38,260.14-158.28,260.14-147.17l144,739.44c0,33.84,12.89,121.29,42.4,138.34l-125.45,84.28C1416,1692.73,1359.44,1701.88,1366.1,1702.3Z"/><path id="inside-3" data-name="inside" class="cls-23" d="M1366.1,1702.3c-.16.23-.32.46-.5.68-.33.45-.68.88-1,1.3a26.51,26.51,0,0,1-2.25,2.36l-.59.53a25.15,25.15,0,0,1-6.9,4.31c-.36.16-.72.3-1.09.44s-1,.34-1.49.49l-.6.18-.9.23-.66.15-.8.16-.67.12a36,36,0,0,1-14.82-1c-1-.26-2-.57-3-.91q-2.28-.76-4.64-1.81a65.17,65.17,0,0,1-6.38-3.25L1109,1584.57c-29.5-17-53.44-58.28-53.44-92.12V911c0-13.45,3.79-23.71,10.21-30.11.17-.18.35-.35.54-.52a25.47,25.47,0,0,1,12.39-6.46l.75-.15a6.71,6.71,0,0,1,.76-.13c.38-.06.77-.12,1.16-.16l.87-.09,1.32-.09a29.13,29.13,0,0,1,3.61.05c-4.52,6.38,260.14-158.28,260.14-147.17l144,739.44c0,33.84,12.89,121.29,42.4,138.34l-125.45,84.28C1416,1692.73,1359.44,1701.88,1366.1,1702.3Z"/><g class="cls-24"><path class="cls-25" d="M1366.1,1702.3c-.16.23-.32.46-.5.68-.33.45-.68.88-1,1.3a26.51,26.51,0,0,1-2.25,2.36l-.59.53a25.15,25.15,0,0,1-6.9,4.31c-.36.16-.72.3-1.09.44s-1,.34-1.49.49l-.6.18-.9.23-.66.15-.8.16-.67.12a36,36,0,0,1-14.82-1c-1-.26-2-.57-3-.91q-2.28-.76-4.64-1.81a65.17,65.17,0,0,1-6.38-3.25L1109,1584.57c-29.5-17-53.44-58.28-53.44-92.12V911c0-13.45,3.79-23.71,10.21-30.11.17-.18.35-.35.54-.52a25.47,25.47,0,0,1,12.39-6.46l.75-.15a6.71,6.71,0,0,1,.76-.13c.38-.06.77-.12,1.16-.16l.87-.09,1.32-.09a29.13,29.13,0,0,1,3.61.05c-4.52,6.38,260.14-158.28,260.14-147.17l144,739.44c0,33.84,12.89,121.29,42.4,138.34l-125.45,84.28C1416,1692.73,1359.44,1701.88,1366.1,1702.3Z"/></g><g id="Fridge_shelfs" data-name="Fridge shelfs"><g class="cls-2"><path class="cls-26" d="M1294.91,1172.76,1061,1307.8a12.09,12.09,0,0,0-5.48,9.5v4.52a3.85,3.85,0,0,0,1.61,3.53l326.6,189.34a3.85,3.85,0,0,1-1.61-3.53v-4.52a12.1,12.1,0,0,1,5.49-9.5l233.9-135Z"/><path class="cls-27" d="M1294.91,1172.76,1061,1307.8a12.09,12.09,0,0,0-5.48,9.5v4.52a3.85,3.85,0,0,0,1.61,3.53l326.6,189.34a3.85,3.85,0,0,1-1.61-3.53v-4.52a12.1,12.1,0,0,1,5.49-9.5l233.9-135Z"/><path class="cls-28" d="M1621.51,1362.1l0,17.17-233.9,135c-3,1.75-5.52.34-5.53-3.15v-4.52a12.1,12.1,0,0,1,5.49-9.5Z"/></g><path class="cls-29" d="M1294.91,1172.76,1061,1307.8a12.09,12.09,0,0,0-5.48,9.5v4.52a3.85,3.85,0,0,0,1.61,3.53l326.6,188.79a3.85,3.85,0,0,1-1.61-3.53v-4.52a12.1,12.1,0,0,1,5.49-9.5l233.9-135Z"/><line class="cls-30" x1="1057.12" y1="1314.86" x2="1421.63" y2="1098.18"/><use width="496.69" height="302.46" transform="translate(1124.87 1057.46)" xlink:href="#Fridge_shelf"/><use width="496.69" height="302.46" transform="translate(1124.87 902.32)" xlink:href="#Fridge_shelf"/></g><g id="top"><path class="cls-18" d="M1655.9,944.15v581.44c0,20.13-7,34.38-18.39,41.21l-.65.37-270.3,156.34c8-4.9,13.73-13.46,16.41-25.15a70.35,70.35,0,0,0,1.69-15.89V1101c0-38.31-25.39-84.59-57.89-107.37-2.29-1.63-4.63-3.11-7-4.48l-4.44-2.57L1109,867.48a77.82,77.82,0,0,0-8.26-4.15c-14.46-6.25-27.44-6.16-37.31-.67l270.7-156.59c11.77-6.85,28.09-5.89,46.12,4.52L1591,832.29C1626.79,853,1655.9,903.12,1655.9,944.15Z"/></g><g id="top-2" data-name="top"><path class="cls-31" d="M1378.66,1714.2a48.47,48.47,0,0,0,6.26-15.39,72.93,72.93,0,0,0,1.74-16.34V1101c0-38.67-25.26-85.54-58.74-109-2.24-1.59-4.59-3.09-7.16-4.57l-4.44-2.57L1110,865.75a81,81,0,0,0-8.48-4.26,54.78,54.78,0,0,0-21.62-4.9c-.7,0-1.39,0-2.07,0l257.3-148.84a31.38,31.38,0,0,1,16-4.11c8.72,0,18.17,2.91,28.09,8.63L1590,834c35.23,20.34,63.89,69.75,63.89,110.13v581.44c0,18.73-6.19,32.75-17.42,39.49l-.61.35Z"/><path class="cls-16" d="M1351.12,701.69v4c8.25,0,17.61,2.89,27.09,8.36L1589,835.75c16.71,9.65,32.48,26.28,44.4,46.84s18.49,42.41,18.49,61.56v581.44c0,18-5.83,31.38-16.41,37.76l-.63.36L1383.7,1709a54.15,54.15,0,0,0,3.16-9.71,74.46,74.46,0,0,0,1.8-16.79V1101c0-39.27-25.62-86.83-59.57-110.63-2.31-1.64-4.7-3.17-7.33-4.68l-4.44-2.58L1111,864a80.72,80.72,0,0,0-8.67-4.35,60.43,60.43,0,0,0-17.43-4.8L1336.1,709.53a29.37,29.37,0,0,1,15-3.84v-4m0,0a33.41,33.41,0,0,0-17,4.38l-270.7,156.59a33.45,33.45,0,0,1,16.47-4.07,52.89,52.89,0,0,1,20.84,4.74,77.82,77.82,0,0,1,8.26,4.15l206.36,119.14,4.44,2.57c2.38,1.37,4.72,2.85,7,4.48,32.5,22.78,57.89,69.06,57.89,107.37v581.43a70.35,70.35,0,0,1-1.69,15.89c-2.68,11.69-8.46,20.25-16.41,25.15l270.3-156.34.65-.37c11.38-6.83,18.39-21.08,18.39-41.21V944.15c0-41-29.11-91.2-64.89-111.86l-210.8-121.7c-10.46-6-20.34-8.9-29.09-8.9Z"/><path class="cls-18" d="M1351.12,701.69v2c8.72,0,18.17,2.91,28.09,8.63L1590,834c35.23,20.34,63.89,69.75,63.89,110.13v581.44c0,18.73-6.19,32.75-17.38,39.47l-.66.38-257.2,148.76a48.47,48.47,0,0,0,6.26-15.39,72.86,72.86,0,0,0,1.74-16.34V1101c0-38.67-25.26-85.54-58.73-109-2.25-1.6-4.6-3.1-7.17-4.58l-4.44-2.57L1110,865.74a82.64,82.64,0,0,0-8.46-4.25,54.86,54.86,0,0,0-21.63-4.9c-.7,0-1.39,0-2.07,0l257.3-148.84a31.35,31.35,0,0,1,16-4.11v-2m0,0a33.41,33.41,0,0,0-17,4.38l-270.7,156.59a33.45,33.45,0,0,1,16.47-4.07,52.89,52.89,0,0,1,20.84,4.74,77.82,77.82,0,0,1,8.26,4.15l206.36,119.14,4.44,2.57c2.38,1.37,4.72,2.85,7,4.48,32.5,22.78,57.89,69.06,57.89,107.37v581.43a70.35,70.35,0,0,1-1.69,15.89c-2.68,11.69-8.46,20.25-16.41,25.15l270.3-156.34.65-.37c11.38-6.83,18.39-21.08,18.39-41.21V944.15c0-41-29.11-91.2-64.89-111.86l-210.8-121.7c-10.46-6-20.34-8.9-29.09-8.9Z"/></g><path id="top-3" data-name="top" class="cls-32" d="M1655.9,944.15v581.44c0,20.13-7,34.38-18.39,41.21l-.65.37-270.3,156.34c8-4.9,13.73-13.46,16.41-25.15a70.35,70.35,0,0,0,1.69-15.89V1101c0-38.31-25.39-84.59-57.89-107.37-2.29-1.63-4.63-3.11-7-4.48l-4.44-2.57L1109,867.48a77.82,77.82,0,0,0-8.26-4.15c-14.46-6.25-27.44-6.16-37.31-.67l270.7-156.59c11.77-6.85,28.09-5.89,46.12,4.52L1591,832.29C1626.79,853,1655.9,903.12,1655.9,944.15Z"/><path id="Corner" class="cls-33" d="M1326.77,993.67c-2.29-1.63-4.63-3.11-7-4.48l-4.44-2.57L1109,867.48a77.82,77.82,0,0,0-8.26-4.15c-14.46-6.25-27.44-6.16-37.31-.67l-1,.6c-11.31,6.87-18.28,21.08-18.28,41.14v581.44c0,41,29.12,91.2,64.89,111.85l210.8,121.71c17.68,10.21,33.74,11.33,45.45,4.89l0,0,1.1-.65.21-.11c8-4.9,13.73-13.46,16.41-25.15a70.35,70.35,0,0,0,1.69-15.89V1101C1384.66,1062.73,1359.27,1016.45,1326.77,993.67Zm46.44,682.19c0,.7,0,1.38,0,2.06s0,1.16-.08,1.73c0,.78-.09,1.55-.17,2.31s-.12,1.23-.2,1.83-.16,1.24-.26,1.85-.19,1.11-.29,1.65l0,.14c-.1.53-.21,1.06-.33,1.57,0,.11,0,.22-.08.33q-.18.78-.39,1.53l0,.12c-.14.51-.29,1-.45,1.51s-.31,1-.48,1.42c-.05.17-.12.33-.18.5-.14.39-.3.78-.46,1.17s-.41,1-.63,1.46-.41.87-.62,1.29l-.06.11c-.24.46-.48.9-.73,1.34h0a29,29,0,0,1-1.6,2.51c-.16.23-.32.46-.5.68-.33.45-.68.88-1,1.3a26.51,26.51,0,0,1-2.25,2.36l-.59.53a25.15,25.15,0,0,1-6.9,4.31c-.36.16-.72.3-1.09.44s-1,.34-1.49.49l-.6.18-.9.23-.66.15-.8.16-.67.12a36,36,0,0,1-14.82-1c-1-.26-2-.57-3-.91q-2.28-.76-4.64-1.81a65.17,65.17,0,0,1-6.38-3.25L1109,1584.57c-29.5-17-53.44-58.28-53.44-92.12V911c0-13.45,3.79-23.71,10.21-30.11.17-.18.35-.35.54-.52a25.47,25.47,0,0,1,12.39-6.46l.75-.15a6.71,6.71,0,0,1,.76-.13c.38-.06.77-.12,1.16-.16l.87-.09,1.32-.09a29.13,29.13,0,0,1,3.61.05c.42,0,.83,0,1.26.1s.84.08,1.27.15.84.11,1.26.19a.1.1,0,0,1,.09,0c.41.06.83.14,1.25.23a42.31,42.31,0,0,1,4.27,1.07c.47.14.94.3,1.42.46s1,.34,1.51.53c.89.33,1.78.69,2.68,1.08l.9.4,1.23.56,1.18.58c.63.32,1.26.65,1.9,1l1.61.9,206.36,119.14,4.44,2.57a79.84,79.84,0,0,1,7,4.56c26.21,19.06,46.44,56.44,46.44,87.55Z"/></g><g id="Door_freezer" data-name="Door freezer"><path id="top-4" data-name="top" class="cls-34" d="M1389.41,1504.23l-1.73,1c-20,11.65-52.75,11.65-72.92,0L1047.53,1351c-10.09-5.83-15.16-13.49-15.19-21.14s5-15.28,15-21.1l1.72-1Z"/><path id="top-5" data-name="top" class="cls-35" d="M1389.41,1504.23l-1.73,1c-20,11.65-52.75,11.65-72.92,0L1047.53,1351c-10.09-5.83-15.16-13.49-15.19-21.14s5-15.28,15-21.1l1.72-1Z"/><g id="front"><path class="cls-36" d="M1350.55,1726.35c-8.77,0-18.82-2.93-29.86-8.72-59.56-31.23-228.1-131.64-261.29-151.45a47.76,47.76,0,0,1-20.27-23.94,81.81,81.81,0,0,1-4.79-28.86V1342a36.88,36.88,0,0,0,12.19,10.71L1313.76,1507c10,5.81,23.37,9,37.51,9,13.55,0,26.33-3,36.17-8.31.16,21.1,1,133.9,0,174.52v.64C1387.12,1694.08,1379.73,1726.35,1350.55,1726.35Z"/><path class="cls-16" d="M1036.34,1347.48a44,44,0,0,0,9.19,6.93l267.23,154.28c10.35,6,24,9.28,38.51,9.28,12.58,0,24.53-2.49,34.19-7.06.21,27.46.91,132.38,0,171.22v.1a1.34,1.34,0,0,1,0,.2v.33a54.77,54.77,0,0,1-8.08,26.38c-6.43,10.1-15.44,15.21-26.78,15.21-8.45,0-18.18-2.85-28.93-8.49-59.52-31.21-228-131.59-261.19-151.4a45.81,45.81,0,0,1-19.43-22.92,80,80,0,0,1-4.66-28.16v-165.9m-4-17.67v183.57c0,12.39,2.11,22.11,4.92,29.57a49.63,49.63,0,0,0,21.12,25c36.28,21.66,202.3,120.52,261.38,151.5,12.11,6.35,22.29,8.95,30.79,8.95,29,0,38.47-30.33,38.86-45.53,0-.19,0-.39,0-.59,1.11-45.22,0-178,0-178l-1.73,1c-10,5.82-23.21,8.74-36.41,8.74s-26.43-2.92-36.51-8.74L1047.53,1351c-10.09-5.83-15.16-13.49-15.19-21.14Z"/><path class="cls-18" d="M1034.34,1342a36.88,36.88,0,0,0,12.19,10.71L1313.76,1507c10,5.81,23.37,9,37.51,9,13.55,0,26.33-3,36.17-8.31.16,21.1,1,133.9,0,174.57a2.09,2.09,0,0,1,0,.25v.31a56.87,56.87,0,0,1-8.39,27.42c-6.82,10.71-16.4,16.14-28.47,16.14-8.77,0-18.82-2.93-29.86-8.72-59.57-31.24-228.11-131.64-261.29-151.45a47.76,47.76,0,0,1-20.27-23.94,81.81,81.81,0,0,1-4.79-28.86V1342m-2-12.16v183.57c0,12.39,2.11,22.11,4.92,29.57a49.63,49.63,0,0,0,21.12,25c36.28,21.66,202.3,120.52,261.38,151.5,12.11,6.35,22.29,8.95,30.79,8.95,29,0,38.47-30.33,38.86-45.53,0-.19,0-.39,0-.59,1.11-45.22,0-178,0-178l-1.73,1c-10,5.82-23.21,8.74-36.41,8.74s-26.43-2.92-36.51-8.74L1047.53,1351c-10.09-5.83-15.16-13.49-15.19-21.14Z"/></g><g id="front-2" data-name="front"><path class="cls-37" d="M1350.55,1726.35c-8.77,0-18.82-2.93-29.86-8.72-59.56-31.23-228.1-131.64-261.29-151.45a47.76,47.76,0,0,1-20.27-23.94,81.81,81.81,0,0,1-4.79-28.86V1342a36.88,36.88,0,0,0,12.19,10.71L1313.76,1507c10,5.81,23.37,9,37.51,9,13.55,0,26.33-3,36.17-8.31.16,21.1,1,133.9,0,174.52v.64C1387.12,1694.08,1379.73,1726.35,1350.55,1726.35Z"/><path class="cls-16" d="M1036.34,1347.48a44,44,0,0,0,9.19,6.93l267.23,154.28c10.35,6,24,9.28,38.51,9.28,12.58,0,24.53-2.49,34.19-7.06.21,27.46.91,132.38,0,171.22v.1a1.34,1.34,0,0,1,0,.2v.33a54.77,54.77,0,0,1-8.08,26.38c-6.43,10.1-15.44,15.21-26.78,15.21-8.45,0-18.18-2.85-28.93-8.49-59.52-31.21-228-131.59-261.19-151.4a45.81,45.81,0,0,1-19.43-22.92,80,80,0,0,1-4.66-28.16v-165.9m-4-17.67v183.57c0,12.39,2.11,22.11,4.92,29.57a49.63,49.63,0,0,0,21.12,25c36.28,21.66,202.3,120.52,261.38,151.5,12.11,6.35,22.29,8.95,30.79,8.95,29,0,38.47-30.33,38.86-45.53,0-.19,0-.39,0-.59,1.11-45.22,0-178,0-178l-1.73,1c-10,5.82-23.21,8.74-36.41,8.74s-26.43-2.92-36.51-8.74L1047.53,1351c-10.09-5.83-15.16-13.49-15.19-21.14Z"/></g><path id="front-3" data-name="front" class="cls-38" d="M1389.42,1682.23c0,.2,0,.4,0,.59-.5,19.66-16.19,64.61-69.65,36.58-59.08-31-225.1-129.84-261.38-151.5a49.63,49.63,0,0,1-21.12-25c-2.81-7.46-4.92-17.18-4.92-29.57V1329.81c0,7.65,5.1,15.31,15.19,21.14l267.23,154.28c20.17,11.65,52.88,11.65,72.92,0l1.73-1S1390.53,1637,1389.42,1682.23Z"/></g><g id="fridge_door" data-name="fridge door"><g class="cls-2"><path class="cls-39" d="M1050.9,888.51c-6.7-12.13-22.32-18.55-40.41-15L700.72,933.69c-24,4.67-43.24,25-43,45.47l4.71,404.21a28.52,28.52,0,0,0,3.46,13.52l-15.23-27.69a28.55,28.55,0,0,1-3.45-13.52l-4.58-392.62c7.25-47.19,45.94-57.49,49.57-58.36l.27-.06,285.39-55.47.43-.08c36.39-6.88,57,14.09,66.35,28l6.24,11.33Z"/><path class="cls-18" d="M1010.49,873.48c24-4.66,43.63,8.13,43.87,28.57l4.71,404.22c.24,20.44-19,40.8-43,45.46L706.3,1412c-24,4.66-43.63-8.14-43.87-28.58l-4.72-404.22c-.23-20.44,19-40.79,43-45.46Z"/><path class="cls-21" d="M696.59,1410.9c-18.75,0-32-11.33-32.16-27.55l-4.72-404.22c-.22-19.49,18.34-39,41.39-43.47l309.77-60.22a49.24,49.24,0,0,1,9.33-.92c18.75,0,32,11.33,32.16,27.56l4.72,404.21c.22,19.5-18.34,39-41.39,43.48L705.92,1410A49.24,49.24,0,0,1,696.59,1410.9Z"/><path class="cls-16" d="M1020.2,872.52v4h0c17.58,0,30,10.52,30.16,25.58l4.72,404.22c.21,18.57-17.63,37.18-39.77,41.48L705.53,1408a46.77,46.77,0,0,1-8.94.88c-17.58,0-30-10.51-30.16-25.58l-4.72-404.21c-.21-18.57,17.63-37.19,39.77-41.49l309.78-60.21a46.79,46.79,0,0,1,8.94-.89v-4m0,0a50.7,50.7,0,0,0-9.71,1L700.72,933.69c-24,4.67-43.24,25-43,45.46l4.72,404.22c.21,17.6,14.79,29.53,34.16,29.53a51.64,51.64,0,0,0,9.71-1l309.77-60.22c24-4.66,43.24-25,43-45.46l-4.71-404.22c-.21-17.6-14.8-29.53-34.16-29.53Z"/></g><path class="cls-40" d="M1007.83,878.19c23.57-4.58,42.87,8,43.1,28.08l4.63,397.14c.24,20.08-18.68,40.08-42.25,44.66L709,1407.23c-23.58,4.59-42.87-8-43.1-28.07L661.23,982c-.24-20.09,18.67-40.09,42.25-44.67Z"/><g id="shelves"><use width="345.98" height="161.63" transform="translate(688.6 1064.95)" xlink:href="#Shift_door"/><polygon class="cls-41" points="831.58 977.07 1020.98 938.82 1023.91 1018.34 865.59 1051.25 843.95 1048.53 833.5 1027.4 831.58 977.07"/><path class="cls-11" d="M1021,988.81l7,14.7c3.37,7.07-2.86,14.54-13.92,16.69l-149.36,30.47c-11.06,2.15-22.76-1.84-26.13-8.91l-7-14.7Z"/><g class="cls-2"><path class="cls-42" d="M1023,947.65l3.21,6.73c1.64,3.43.37,7.11-3.21,9.92Z"/><path class="cls-16" d="M1021,938.82v28.83l.11.2c6.48-3.31,9.48-8.94,6.91-14.33l-7-14.7Z"/><path class="cls-43" d="M1014.09,970.21l-149.37,30.47c-11.05,2.15-22.76-1.84-26.13-8.91l-7-14.7-.06,52.3,7,14.69c3.37,7.08,15.08,11.06,26.13,8.91L1014,1022.5c9-1.75,14.82-7,14.83-12.77l.05-52.29C1028.91,963.17,1023.1,968.46,1014.09,970.21Z"/><g class="cls-15"><path class="cls-16" d="M1024.9,970.28l0,39.45c0,3.28-4,7.37-11.63,8.85L863.9,1049.05a28.66,28.66,0,0,1-5.33.51c-7.53,0-14.44-3-16.43-7.22l-6.62-13.88,0-33.88c3.78,6.44,12.85,10.68,23.07,10.68a36.23,36.23,0,0,0,6.89-.66l149.33-30.46a29,29,0,0,0,10.05-3.86m4-12.84c0,5.73-5.81,11-14.82,12.77l-149.37,30.47a31.55,31.55,0,0,1-6.09.58c-9,0-17.29-3.71-20-9.49l-7-14.7-.06,52.3,7,14.69c2.75,5.78,11.06,9.5,20,9.5a31.57,31.57,0,0,0,6.09-.59L1014,1022.5c9-1.75,14.82-7,14.83-12.77l.05-52.29Z"/></g><g class="cls-17"><path class="cls-18" d="M1026.9,966.19l0,43.54c0,4.85-5.44,9.3-13.23,10.81L864.28,1051a30.12,30.12,0,0,1-5.71.55c-8.39,0-15.89-3.44-18.24-8.36l-6.81-14.29.05-43,3.21,6.74c3,6.36,11.82,10.63,21.85,10.63a33.59,33.59,0,0,0,6.49-.62l149.35-30.47a24.39,24.39,0,0,0,12.43-6m2-8.75c0,5.73-5.81,11-14.82,12.77l-149.37,30.47a31.55,31.55,0,0,1-6.09.58c-9,0-17.29-3.71-20-9.49l-7-14.7-.06,52.3,7,14.69c2.76,5.78,11.06,9.5,20,9.5a31.57,31.57,0,0,0,6.09-.59L1014,1022.5c9-1.75,14.82-7,14.83-12.77l.05-52.29Z"/></g></g><polygon class="cls-44" points="688.66 1022.99 802.13 1000.6 805.07 1062.72 722.67 1079.76 701.03 1077.04 690.58 1055.91 688.66 1022.99"/><path class="cls-11" d="M802.11,1033.19l7,14.7c3.37,7.07-2.85,14.54-13.91,16.69l-73.44,14.6c-11.06,2.15-22.75-1.84-26.12-8.91l-7-14.7Z"/><g class="cls-2"><path class="cls-45" d="M804.13,1009.43l3.22,6.73c1.63,3.43.37,7.11-3.22,9.92Z"/><path class="cls-16" d="M802.13,1000.6v28.83l.11.2c6.48-3.31,9.48-8.94,6.91-14.33l-7-14.7Z"/><path class="cls-46" d="M759.18,1019.18l9.64,20.2c1.92,4-1.63,8.29-7.93,9.52l-47.75,8.29c-6.31,1.22-13-1-14.9-5.08l-9.64-20.2Z"/><path class="cls-47" d="M759.18,1015l9.64,20.2c1.92,4-1.63,8.29-7.93,9.52L713.14,1053c-6.31,1.23-13-1-14.9-5.08l-9.64-20.2Z"/><g id="Eggs"><path class="cls-48" d="M729.31,1034.89c-4.31.83-6.75,3.75-5.43,6.51s5.89,4.32,10.2,3.48,6.75-3.75,5.44-6.52-5.89-4.31-10.21-3.47"/><path class="cls-49" d="M723.85,1023.44c-4.31.84-6.75,3.76-5.43,6.52s5.89,4.32,10.2,3.48,6.75-3.76,5.44-6.52-5.89-4.32-10.21-3.48"/><path class="cls-50" d="M704.86,1027.13c-4.31.84-6.74,3.76-5.43,6.52s5.89,4.32,10.21,3.48,6.74-3.76,5.43-6.52-5.89-4.32-10.21-3.48"/><path class="cls-51" d="M710.33,1038.58c-4.32.84-6.75,3.75-5.44,6.51s5.89,4.32,10.21,3.48,6.75-3.75,5.43-6.51-5.89-4.32-10.2-3.48"/><path class="cls-52" d="M748.31,1031.19c-4.32.84-6.75,3.76-5.44,6.52s5.89,4.32,10.21,3.48,6.75-3.76,5.43-6.52-5.89-4.32-10.2-3.48"/><path class="cls-53" d="M742.84,1019.75c-4.31.84-6.74,3.76-5.43,6.52s5.89,4.32,10.21,3.48,6.74-3.76,5.43-6.52-5.89-4.32-10.21-3.48"/></g><path class="cls-54" d="M795.24,1032l-73.44,14.6c-11,2.15-22.75-1.83-26.13-8.91l-7-14.69-.06,34.89,7,14.69c3.38,7.08,15.08,11.06,26.14,8.92l73.44-14.61c9-1.75,14.81-7,14.82-12.77l.06-34.89C810.06,1025,804.26,1030.24,795.24,1032Z"/><g class="cls-15"><path class="cls-16" d="M806.05,1032.07l0,22c0,3.28-4,7.37-11.6,8.85L721,1077.56a27.75,27.75,0,0,1-5.33.51c-7.52,0-14.43-3-16.43-7.22L692.6,1057l0-16.49c3.78,6.44,12.85,10.7,23.08,10.7a35.87,35.87,0,0,0,6.87-.66l73.43-14.6a29.13,29.13,0,0,0,10-3.85m4-12.85h0Zm0,0c0,5.73-5.82,11-14.83,12.76l-73.44,14.6a31.42,31.42,0,0,1-6.09.59c-9,0-17.28-3.72-20-9.5l-7-14.69-.06,34.89,7,14.69c2.76,5.78,11.07,9.5,20,9.5a32.39,32.39,0,0,0,6.1-.58l73.44-14.61c9-1.75,14.81-7,14.82-12.77l.06-34.88Z"/></g><g class="cls-17"><path class="cls-18" d="M808.05,1028l0,26.14c0,4.86-5.44,9.3-13.21,10.81l-73.44,14.6a30.12,30.12,0,0,1-5.71.55c-8.39,0-15.88-3.44-18.23-8.36l-6.82-14.28,0-25.64,3.22,6.75c3,6.36,11.81,10.64,21.84,10.64a34.13,34.13,0,0,0,6.48-.62l73.44-14.6a24.4,24.4,0,0,0,12.42-6m2-8.75h0Zm0,0c0,5.73-5.82,11-14.83,12.76l-73.44,14.6a31.42,31.42,0,0,1-6.09.59c-9,0-17.28-3.72-20-9.5l-7-14.69-.06,34.89,7,14.69c2.76,5.78,11.07,9.5,20,9.5a32.39,32.39,0,0,0,6.1-.58l73.44-14.61c9-1.75,14.81-7,14.82-12.77l.06-34.88Z"/></g></g><use width="345.98" height="161.63" transform="translate(688.6 1217.37)" xlink:href="#Shift_door"/></g></g></g><g id="Dog"><path id="shadow_dog" data-name="shadow dog" class="cls-55" d="M1305.83,1392.19a6.64,6.64,0,0,1,.42.78c1.06,2.3,3.18,9.47-5.81,18.45-11,11-19.45,25.83-22.23,28.61s-29.31,22.17-38.21,26.42V1652a73.5,73.5,0,0,0,3,17,42.35,42.35,0,0,0,5.45,11.55l-118-69.83,14.28-160.12s134.56-31.47,161.23-58.14m-118.42,14.19s-7.73,26.94,40-6,38.33-42.14,38.33-42.14C1252.75,1354.16,1187.59,1406.65,1187.59,1406.65Z"/><path id="shadow_dog_2" data-name="shadow dog 2" class="cls-56" d="M1238.69,1467.42,1156,1417l-11.71,161.86s29.19,73.86,66.57,36.47C1210.87,1615.36,1233.48,1577.22,1238.69,1467.42Z"/><g id="Dog-DARK"><g id="Layer1_0_MEMBER_0_FILL" data-name="Layer1 0 MEMBER 0 FILL"><path class="cls-57" d="M1188.93,1443.13c8.67-10,13.6-14.16,23.49-25.2s24.55-28.75,34.95-41.69c5-5.27,13.63-13,17.57-17.42s.87-4.69.65-8.48c-4.16-3.37-7.92-3.09-12.71-1.23l-27,15.54c-13.62,2.85-27.08,6-39.51,12.36.09,11.16,1.49,22.69,1.75,33.72S1188.38,1432,1188.93,1443.13Z"/></g><g id="Layer1_0_MEMBER_1_FILL" data-name="Layer1 0 MEMBER 1 FILL"><path class="cls-58" d="M1245.66,1378.33c1.35-1.43.09-.45,2-2.45s7.13-7,9.69-9.57c.24-7-1.46-11.8-7.47-15.52l-9.84,5.65C1241.91,1363.76,1243.93,1370.93,1245.66,1378.33Z"/></g><g id="Layer1_1_MEMBER_0_FILL" data-name="Layer1 1 MEMBER 0 FILL"><path class="cls-59" d="M1189.18,1315.13c-2-3.8-3.71-4.65-5.1-1.29-2.11,5.1-2.67,10.52-3.92,15.8a46.4,46.4,0,0,0-9.47,4.43,328.2,328.2,0,0,0-26.29-28.13c-2.52-2.68-5.17-4.87-7.8-1.2-2.3,17.24-.76,33.25,4,50,3.58,2,7.11,4.15,10.68,6.23-.13,12.1-.78,25.39,3.1,37.07-9.35,25.65-14.43,52.28-22.61,78.28-19.85,16.71-55.3,43.7-57.83,71.45-.29,3.19.13,3.31.07,6.11-1.8,10-4.76,21.17-3.57,31.46,1.58,15.56,2.07,30.85,4.09,46.49.68,5.29,6.93,7.13,12.28,7.84a15.72,15.72,0,0,0,8.5-1.55c4.87-2.49,11.67-6.29,16.83-8.86.57,9.75-.62,24.7.3,33.26s7.55,6.17,12.4,8.82a21.38,21.38,0,0,0,9-1.69c6.53-3,17.55-9.08,23-11.55,6.56-3,9.53-6.81,7.48-11.45-2.49-5.63-6.08-6.58-11-7.58-1.62-.33-3.75.44-5.42.26,9.68-10,18.48-20.25,26-32,4.93-13.64,8.55-27.18,9.76-41.67,20.73-17.84,37.37-39.19,51.2-62.72a126,126,0,0,0,3.62-30.82c0-.15.1-.55-.1-.43,6.88-7.61,8.28-7.79,16.54-17.06s22.89-27.8,32-39.36c4.87-5.08,12.9-12.39,16.65-16.63s.85-4.72.64-8.44c-3.89-3.46-7.48-3.34-12.18-1.58-8.53,4.85-17.09,9.63-25.78,14.2a174.73,174.73,0,0,0-25.32,5.32c3.38-8.14,4.47-16.5,4.87-25.27,4.2-6.21,7.26-12.12,6-19.8-3.61-8.86-8.5-17.7-15.22-24.15-3.58-3.43-5.92-3.54-10.24-3-3.72-3.88-7.25-4.88-12.2-2.38a32.87,32.87,0,0,0-3,1.93,116.82,116.82,0,0,0-14.37-7.2C1194.71,1324.49,1190.89,1318.34,1189.18,1315.13Z"/></g><g id="Layer1_1_MEMBER_0_FILL-2" data-name="Layer1 1 MEMBER 0 FILL"><path class="cls-60" d="M1189.18,1315.13c-2-3.8-3.71-4.65-5.1-1.29-2.11,5.1-2.67,10.52-3.92,15.8a46.4,46.4,0,0,0-9.47,4.43,328.2,328.2,0,0,0-26.29-28.13c-2.52-2.68-5.17-4.87-7.8-1.2-2.3,17.24-.76,33.25,4,50,3.58,2,7.11,4.15,10.68,6.23-.13,12.1-.78,25.39,3.1,37.07-9.35,25.65-14.43,52.28-22.61,78.28-19.85,16.71-55.3,43.7-57.83,71.45-.29,3.19.13,3.31.07,6.11-1.8,10-4.76,21.17-3.57,31.46,1.58,15.56,2.07,30.85,4.09,46.49.68,5.29,6.93,7.13,12.28,7.84a15.72,15.72,0,0,0,8.5-1.55c4.87-2.49,11.67-6.29,16.83-8.86.57,9.75-.62,24.7.3,33.26s7.55,6.17,12.4,8.82a21.38,21.38,0,0,0,9-1.69c6.53-3,17.55-9.08,23-11.55,6.56-3,9.53-6.81,7.48-11.45-2.49-5.63-6.08-6.58-11-7.58-1.62-.33-3.75.44-5.42.26,9.68-10,18.48-20.25,26-32,4.93-13.64,8.55-27.18,9.76-41.67,20.73-17.84,37.37-39.19,51.2-62.72a126,126,0,0,0,3.62-30.82c0-.15.1-.55-.1-.43,6.88-7.61,8.28-7.79,16.54-17.06s22.89-27.8,32-39.36c4.87-5.08,12.9-12.39,16.65-16.63s.85-4.72.64-8.44c-3.89-3.46-7.48-3.34-12.18-1.58-8.53,4.85-17.09,9.63-25.78,14.2a174.73,174.73,0,0,0-25.32,5.32c3.38-8.14,4.47-16.5,4.87-25.27,4.2-6.21,7.26-12.12,6-19.8-3.61-8.86-8.5-17.7-15.22-24.15-3.58-3.43-5.92-3.54-10.24-3-3.72-3.88-7.25-4.88-12.2-2.38a32.87,32.87,0,0,0-3,1.93,116.82,116.82,0,0,0-14.37-7.2C1194.71,1324.49,1190.89,1318.34,1189.18,1315.13Z"/></g><g id="Layer1_1_MEMBER_1_FILL" data-name="Layer1 1 MEMBER 1 FILL"><path class="cls-61" d="M1236.48,1338.7c-3.61-3-6.48-5.22-11-7.1-3.59-1.48-7.91-.14-11.32,1.89C1221.19,1338.92,1227.7,1341.84,1236.48,1338.7Z"/></g><g id="Layer1_20_FILL" data-name="Layer1 20 FILL"><path class="cls-62" d="M1154.18,1398.35a4,4,0,0,0-.59,0c-1.48,4.34-2.94,8.64-4.36,13,10.71,5.33,21.72,11.22,33.53,13.16s22.72.58,34.53-.57c5.36-5,14.61-12.32,21-14.3s4.38-7.4,5.61-11.86c-8.48,3.92-16.9,8.14-26.09,9.66h0c-11.39.78-21.12,2.52-32.92.84C1175,1406.91,1163.74,1402.24,1154.18,1398.35Z"/></g><path class="cls-63" d="M1110,1630.2c1.3-5.4,2.58-10.75,3.91-16.12,5,3.06,9.94,6.12,14.89,9.23a273,273,0,0,1-34.37-46.68l-9.39,23.17c-.55,13.36-.76,26.71,1.65,39.91,3.25-.06,5.31-.06,8.49-1.62,4.66-2.29,10-5.39,14.82-7.89m59.12-295.31c-4-4.69-8-9.32-12.19-13.79,2.9,9.47,3.07,16.58.9,26.12q8.07-7.53,16.11-15.07a37,37,0,0,0-3.28,1.92m75.66,72.38c-1.83.52-3.66,1.07-5.48,1.63a63,63,0,0,0,4.34-17.2,31,31,0,0,1-6.7,10.59c-10.25,4.66-16.9,11.53-21.29,21.91a97.49,97.49,0,0,1,29.13-16.93m-148.81,135.79a82,82,0,0,0,17.37-.72c-3.14-7-12.61-1.49-17.37.72m-.75.18q-4.08,4-8.12,8c-3.77,9.23-2.14,15.9,4.52,23.2,5.78,1.57,13.66,3.93,15.81-3.51-9.74.83-14.83-3.54-19.43-11.78a36.89,36.89,0,0,1,7.22-15.89m148.91-158.64s0,0,0,0,0-.16-.1-.14.08.17.1.18m-96.26,255.08c-.52-.39-.71-.65-1.14-1-2.31,5.4-4.43,10.89-6.66,16.33,3.36-2.66,14.65-10.31,8.55-15a3.07,3.07,0,0,0-.75-.34m89-167.39c1.62-1.65,3.17-3.34,4.79-5a158.32,158.32,0,0,1-14.25,10.72c5.39,8.49,6.84,16.5,5.39,26.42.15-.24.3-.49.44-.74a126.5,126.5,0,0,0,3.63-30.83v-.58M1149,1359.54l2.23,1.33c-.09-2.75-.52-5.47,0-8.19-1.12,2.51-2.65,5.16-2.21,6.86m63.83-25.25c-.47.46-1.29.56-1.49,1.32-2.78-1.81-4.85-2.78-7.54-4.26,3.07,2,4.13,1.91,7.54,4.26s9.08,7.25,12.81,9.94c-2.74-4.75-6.82-8-11.32-11.26m-22.09-8c-1,11.9,2.81,24.11,4.71,35.8.31,4.22,1.53,28,7.41,28.31,6.58-6.37,12.45-12.86,12.83-22.4C1204,1354.68,1200.28,1337.86,1190.69,1326.33Z"/><path class="cls-64" d="M1182.69,1323.53c-.73.93-1.26,2-1.92,3,0,0,0,0,0,0a12.89,12.89,0,0,0-1.4,3.61c-4.71,17.24-4.22,36.43-3.43,54.42,3,2.87,6,5.69,9,8.58a62.09,62.09,0,0,0,2.41,6c4.11,8.36,8.87,15.14,16.33,20.65a137.41,137.41,0,0,1-15.34.54,97.2,97.2,0,0,1-38.5-9.37c-.49,1.68-1.11,3.34-1.61,5,12.7,5.77,26.48,11.09,40,12.48,5.87.61,9.58.12,14.73-.61,4.12-.58,7.12-1.89,10.91-3.22,0,.07.47.08.34.21,7-3.31,7.75-5,16.26-8.49s24.3-8,35.15-5.85c-8.65,4-58.77,26.14-61.39,36.13-8.26,14.27-12.72,28.83-15.25,45.06-7.48,9.86-14.63,19.47-22.63,29.21-9.16,9.08-25.61,20.6-35.13,26.44s-17,7.48-24.44,5.22-9.55-2.49-14.2,1.11-4.3,6.76-5,11.61c3.21,6.3,6.19,12.61,9.24,18.94-1.22,5.47-1.08,9.9,2.85,14.15,2.65,4.26,5.46,8.43,8.26,12.59-.82,7.16-1.5,14.33-2.24,21.5q3.13-1.67,6.29-3.29c.49-3.41,1-6.82,1.52-10.22,2.6,2.85,5.32,5.7,7.84,8.55.52,12.76-1.11,25.29.68,38.11,1.23,8.86,11.74,4.09,18.39.64,2.47-1.28,13.28-6.88,16.58-8.34,5.44-2.41,9.64-6.87,7.28-11.36-2.87-5.44-5.95-6.64-11.08-7.54-1.68-.3-3.7.41-5.43.26,9.7-10,18.49-20.24,26-32,4.93-13.64,8.55-27.18,9.76-41.67,20.73-17.84,37.37-39.19,51.2-62.72a126,126,0,0,0,3.62-30.82c0-.15.1-.55-.1-.43,6.89-7.61,8.27-7.78,16.54-17.06s22.87-27.77,32.05-39.39c4.58-4.6,13.27-13,16.51-16.39s.43-1.39,2-4c-8.33-3.6-15.15-3.55-23.57-.48-5.14,2.9-10.38,5.67-15.61,8.43a174.73,174.73,0,0,0-25.32,5.32c3.38-8.14,4.47-16.51,4.86-25.27a43,43,0,0,0,5.69-10.6c3.71-3.8,10.65-10.25,13.61-13.43s1-3,1.61-5.87c-5.76-2.36-11.72-2.06-17.76-1.54a2.18,2.18,0,0,1-.29.05q-12.42,4.9-24.85,9.77l-7.72,6.5a.6.6,0,0,1-.22.34c-.09,0,0-.09-.06-.09-.58,0-1,.69-1.36,1.11.38-.45.77-.89,1.15-1.35-.14-.18-.38-.58-.49-.74-10.33-14.71-20.12-30.23-32.35-43.43m-12,10.49s0,0,0,0a326.62,326.62,0,0,0-26.29-28.13c-1.36-1.52-2.8-3.11-4.93-3.36,3.69,16.53,10.56,32.41,16.86,48.07a87.31,87.31,0,0,1,14.78-16.87,1.21,1.21,0,0,1-.14.1Z"/><path class="cls-65" d="M1170.69,1334.07q-7.15,8.31-14.36,16.58a119,119,0,0,1-9-32.93C1156.6,1320.19,1164,1327.6,1170.69,1334.07Z"/></g></g><g id="Light-Fridge-Host" class="cls-66"><path class="cls-68" d="M1369.94,1091.15V1491.6L784.71,1966.46V1307.1c0-51.23-33.31-112.77-76.47-144.16a132.91,132.91,0,0,0-11.54-7.51l-7.31-4.23L495.62,882.57c-.89-.51-1.78-1-2.65-1.48-1.06-.58-2.09-1.12-3.13-1.65l-1.94-1c-.68-.31-1.35-.63-2-.92-.49-.23-1-.45-1.48-.66-1.48-.64-2.95-1.24-4.41-1.78-.84-.31-1.67-.61-2.49-.87s-1.56-.53-2.34-.76a66.88,66.88,0,0,0-7-1.76c-.69-.15-1.38-.28-2.06-.38a.2.2,0,0,0-.15,0c-.69-.13-1.4-.24-2.07-.31s-1.08-.16-1.61-.2l613.16-.19.75-.15a6.71,6.71,0,0,1,.76-.13c.38-.06.77-.12,1.16-.16s.58-.07.87-.09l1.32-.09a29.13,29.13,0,0,1,3.61.05c.42,0,.83,0,1.26.1s.84.08,1.27.15.84.11,1.26.19a.1.1,0,0,1,.09,0c.41.06.83.14,1.25.23a42.31,42.31,0,0,1,4.27,1.07c.47.14.94.3,1.42.46s1,.34,1.51.53c.89.33,1.78.69,2.68,1.08l.9.4,1.23.56,1.18.58c.63.32,1.26.65,1.9,1l1.61.9,206.36,119.14,4.44,2.57a79.84,79.84,0,0,1,7,4.56C1349.71,1022.66,1369.94,1060,1369.94,1091.15Z"/><g id="light_inside_fridge" data-name="light inside fridge"><polygon class="cls-69" points="1123.34 1195.69 1245.59 1123.27 1369.94 1195.44 1370.48 1335.48 1123.34 1195.69"/><polygon class="cls-70" points="1057.12 1314.06 1179.36 1241.64 1370.67 1352.68 1369.94 1491.6 1057.12 1314.06"/><g class="cls-71"><polygon class="cls-72" points="1128.83 1039.49 1419.96 867.01 1422.09 1205.37 1128.83 1039.49"/></g></g></g><g id="Lighs_Dog" data-name="Lighs Dog"><path class="cls-73" d="M1187.12,1312.23l28.64,45.39a6.94,6.94,0,0,1,1,5l-1,5.33Z"/><path class="cls-74" d="M1139.47,1302.58s18,13.7,27.73,26.36a.91.91,0,0,1-1.29,1.27c-7-5.63-19.31-15.68-21.61-18C1141.06,1309,1139.47,1304.6,1139.47,1302.58Z"/><path class="cls-75" d="M1215.19,1332.87s14.23-1.22,29,17.92c5.87,7.6,1.53-10.81-18.76-20.19C1225.45,1330.6,1218.25,1329.81,1215.19,1332.87Z"/><path class="cls-76" d="M1223.42,1419.54s71.17-36.92,77.37-31.51C1304.28,1391.07,1233.13,1424,1223.42,1419.54Z"/><path class="cls-77" d="M1222.39,1344.6s-10.11-9.29-18.64-12.27C1198,1330.34,1217.43,1332.21,1222.39,1344.6Z"/><path class="cls-78" d="M1251,1350.34s8.85-5.78,14.64,0A44.48,44.48,0,0,0,1251,1350.34Z"/><path class="cls-79" d="M1243.19,1346.74s8.77,14.2,8.77,17.82.37,8.55-2,10.87a14.09,14.09,0,0,0,0-10.87C1247.56,1358.66,1241.88,1348.05,1243.19,1346.74Z"/></g><g id="Ligh_dog" data-name="Ligh dog" class="cls-80"><path class="cls-81" d="M1180.16,1329.64s-4.72,19.79-4.72,31.23c0,26-12.8,16.81-15,14.56s-14.32-10.06-5.11-22.84c7.24-10.06,9.38-12.5,9.38-12.5s-15.83-30.33-22.46-32.38c0,0-6-5.13-2.74-5.13,0,0,27.38,22.88,31.22,31.49Z"/><path class="cls-82" d="M1304.15,1390.14c-3.89-3.46-10.51-6.38-15.21-4.61-8.53,4.85-13.62,7.7-22.31,12.27-2.14.31-10.39,4.87-12.27,5.92s-4.16,1.84-8.89,3.08l.88-.35c-1.65.47-3.29,1-4.93,1.47,2-2,1.83-5,2.12-7.89a78.5,78.5,0,0,0,1.67-9.15l-.15.38c.07-.63.15-1.25.22-1.88q.27-2.79.4-5.62l0,0s0,0,0,0,0,0,0,0c0-.3,0-.59,0-.89l0-.07a42.78,42.78,0,0,0,5.64-10.53l.73-.74,2.28-2.24c3.17-3,6.42-6.14,8.82-8.62.68-.68,1.29-1.3,1.78-1.83a5.93,5.93,0,0,0,1.66-2.49,3.16,3.16,0,0,0-.15-2.69c0-.21,0-.43.1-.69l-.47-.18a6.86,6.86,0,0,1-.58-2.39c-4.16-3.37-7.92-3.09-12.71-1.23l-3,1.69h0l-1,.58h0a2.18,2.18,0,0,1-.29.05l-2,.79a57.59,57.59,0,0,0-10-13.35l-.15-.14.08,0c-3.61-3-6.48-5.22-11-7.1-3.59-1.48-7.91-.14-11.32,1.89h0a11.11,11.11,0,0,0-1.31.79h0l-.15.12-.17.12a3.75,3.75,0,0,0-1,.66l-.38.25-.63-.35a23.8,23.8,0,0,0-2.13-1.24c.53.3,1.07.61,1.64,1l-2.23-1.26.59.3c-1.51-.86-2.95-1.58-4.62-2.5l.64.41c-2.47-1.25-5-2.43-7.63-3.52-2-3.75-5.87-9.9-7.58-13.11-1.88-3.54-3.47-4.51-4.8-1.92,4.95,9.36,25.34,48.46,28.17,62.22,3.21,15.69-14.63,21.88-14.63,29.61s-2,30.92,5.83,29.15,26.74-17.52,45-20.24,28.92-10.39,32.83-12.45c21.05-11.06,18.44.8,20.63-1.5.44-.45.85-.86,1.18-1.21,1.64-1.71,1.73-2,1.62-2.29C1306.24,1394,1306,1392.46,1304.15,1390.14Z"/></g></g></g></svg>