<svg width="24" height="24" viewBox="0 0 24 24" fill="none" xmlns="http://www.w3.org/2000/svg">
<path fill-rule="evenodd" clip-rule="evenodd" d="M5.06421 3.63579L5.05 3.65L19.8938 18.4937L19.908 18.4795L20.6821 19.2537C21.0726 19.6442 21.0726 20.2774 20.6821 20.6679C20.2916 21.0584 19.6584 21.0584 19.2679 20.6679L16.1483 17.5483C14.6524 18.1679 13.1687 18.45 11.9995 18.45C9.10002 18.45 4.26347 16.714 2.10547 12.397C2.03611 12.2582 2 12.1052 2 11.95C2 11.7948 2.03611 11.6418 2.10547 11.503C3.02966 9.65419 4.44492 8.31544 5.98896 7.38896L3.30711 4.70711C2.91658 4.31658 2.91658 3.68342 3.30711 3.29289C3.69763 2.90237 4.33079 2.90237 4.72132 3.29289L5.06421 3.63579ZM7.37418 8.77418C6.12264 9.43988 4.95626 10.454 4.12947 11.95C5.99747 15.33 9.60002 16.45 11.9995 16.45C12.7874 16.45 13.7047 16.3293 14.6477 16.0477L13.059 14.459C12.7466 14.5823 12.4062 14.65 12.05 14.65C10.5313 14.65 9.30005 13.4188 9.30005 11.9C9.30005 11.5438 9.36777 11.2034 9.49104 10.891L7.37418 8.77418Z" fill="#273637"/>
<path d="M10.3718 5.78982L12.2349 7.65291C14.6301 7.71177 18.0616 8.67879 19.8695 11.95C19.4624 12.6866 18.973 13.3159 18.4316 13.8496L19.7943 15.2123C20.6173 14.4327 21.3426 13.4989 21.8935 12.397C21.9628 12.2582 21.9989 12.1052 21.9989 11.95C21.9989 11.7948 21.9628 11.6418 21.8935 11.503C19.7355 7.186 14.9 5.65 11.9995 5.65C11.5054 5.65 10.9553 5.69456 10.3718 5.78982Z" fill="#273637"/>
</svg>
