<svg width="24" height="24" viewBox="0 0 24 24" fill="none" xmlns="http://www.w3.org/2000/svg">
<path d="M14.8 12.25C14.8 13.7688 13.5688 15 12.05 15C10.5313 15 9.30005 13.7688 9.30005 12.25C9.30005 10.7312 10.5313 9.5 12.05 9.5C13.5688 9.5 14.8 10.7312 14.8 12.25Z" fill="#273637"/>
<path d="M21.8935 11.853C19.7355 7.536 14.9 6 11.9995 6C9.09891 6 4.26347 7.536 2.10547 11.853C2.03611 11.9918 2 12.1448 2 12.3C2 12.4552 2.03611 12.6082 2.10547 12.747C4.26347 17.064 9.10002 18.8 11.9995 18.8C14.9 18.8 19.7355 17.064 21.8935 12.747C21.9628 12.6082 21.9989 12.4552 21.9989 12.3C21.9989 12.1448 21.9628 11.9918 21.8935 11.853ZM11.9995 16.8C9.60002 16.8 5.99747 15.68 4.12947 12.3C5.99747 8.92 9.59891 8 11.9995 8C14.4 8 18.0015 8.92 19.8695 12.3C18.0015 15.68 14.4 16.8 11.9995 16.8Z" fill="#273637"/>
</svg>
