<svg width="24" height="24" fill="none" xmlns="http://www.w3.org/2000/svg">
  <path d="M20.2 17c0-.2 0-.4-.1-.6l.9-.7-.8-1.4-1.1.5c-.3-.3-.7-.5-1.1-.6V13h-1.6l-.1 1.1c-.4.1-.8.4-1.1.6l-1.1-.5-.8 1.4.9.7c0 .2-.1.4-.1.6 0 .2 0 .4.1.6l-.9.7.8 1.4 1.1-.5c.3.3.7.5 1.1.6l.1 1.1H18l.1-1.1c.4-.1.8-.4 1.1-.6l1.1.5.8-1.4-.9-.7V17zm-3 1.6c-.9 0-1.6-.7-1.6-1.6s.7-1.6 1.6-1.6 1.6.7 1.6 1.6-.7 1.6-1.6 1.6zM4.1 12.1h13.7c.8 0 1.4-.6 1.4-1.4V8.9c0-.4-.2-.8-.5-1L15 3.8c-.3-.6-1-.8-1.6-.8H8.7c-.7 0-1.3.2-1.8.7L3.3 7.9c-.3.2-.5.6-.5 1v1.8c0 .8.6 1.4 1.3 1.4zm9.7-1.4c-.5 0-.9-.4-.9-.9s.4-.9.9-.9.9.4.9.9-.4.9-.9.9zm3.6-.9c0 .5-.4.9-.9.9s-.9-.4-.9-.9.4-.9.9-.9.9.4.9.9zM8.3 4.9c.1-.1.2-.2.4-.2h4.7c.1 0 .3.1.4.2l2.3 2.6H6l2.3-2.6zM4.6 9.4c0-.3.2-.5.5-.5s.5.2.5.5v.9c0 .3-.2.5-.5.5s-.5-.2-.5-.5v-.9zM13.7 13.8c.1-.1.2-.3.1-.5s-.2-.3-.4-.3H4.1c-.8 0-1.4.6-1.4 1.4v1.8c0 .8.6 1.4 1.4 1.4h7.4c.2 0 .4-.2.5-.4.2-1.3.8-2.5 1.7-3.4zm-8.2 2c0 .3-.2.5-.5.5s-.4-.3-.4-.5v-.9c0-.3.2-.5.5-.5s.5.2.5.5v.9z" fill="#273637"/>
</svg>
