<?xml version="1.0" encoding="UTF-8"?>
<svg width="24px" height="24px" viewBox="0 0 24 24" version="1.1" xmlns="http://www.w3.org/2000/svg" xmlns:xlink="http://www.w3.org/1999/xlink">
    <title>Icons/Large Set/Object Capacity Thin Version</title>
    <g id="Icons/Large-Set/Object-Capacity-Thin-Version" stroke="none" stroke-width="1" fill="none" fill-rule="evenodd">
        <path d="M12,2 C17.523,2 22,6.477 22,12 C22,17.523 17.523,22 12,22 C6.477,22 2,17.523 2,12 C2,6.477 6.477,2 12,2 Z M12,3 C7.0375,3 3,7.0375 3,12 C3,16.9625 7.0375,21 12,21 C16.9625,21 21,16.9625 21,12 C21,7.0375 16.9625,3 12,3 Z M12,6.5 C15.0325,6.5 17.5,8.9675 17.5,12 C17.5,15.0325 15.0325,17.5 12,17.5 C8.9675,17.5 6.5,15.0325 6.5,12 C6.5,11.7235 6.7235,11.5 7,11.5 C7.2765,11.5 7.5,11.7235 7.5,12 C7.5,14.4815 9.5185,16.5 12,16.5 C14.4815,16.5 16.5,14.4815 16.5,12 C16.5,9.5185 14.4815,7.5 12,7.5 C11.7235,7.5 11.5,7.2765 11.5,7 C11.5,6.7235 11.7235,6.5 12,6.5 Z M12,11 C12.552,11 13,11.448 13,12 C13,12.552 12.552,13 12,13 C11.448,13 11,12.552 11,12 C11,11.448 11.448,11 12,11 Z" id="Combined-Shape" fill="#273637"></path>
    </g>
</svg>