<svg width="24" height="24" fill="none" xmlns="http://www.w3.org/2000/svg">
  <path d="M12 2C6.4 2 2 6.5 2 12s4.5 10 10 10 10-4.5 10-10S17.5 2 12 2zm0 18c-4.4 0-8-3.6-8-8s3.6-8 8-8 8 3.6 8 8-3.6 8-8 8z" fill="#273637"/>
  <circle fill="#273637" cx="12" cy="12" r="1.5"></circle>
  <path d="M12.9 6c-.5-.1-1.1.3-1.2.8s.3 1.1.9 1.2c1.9.3 3.3 2 3.3 3.9 0 2.2-1.8 4-4 4-1.9 0-3.6-1.4-3.9-3.2-.1-.5-.6-.9-1.2-.8-.6.1-.9.6-.8 1.2.5 2.8 3 4.8 5.9 4.8 3.3 0 6-2.7 6-6 0-2.9-2.1-5.4-5-5.9z" fill="#273637"/>
</svg>
