<?xml version="1.0" encoding="UTF-8"?>
<svg width="24px" height="24px" viewBox="0 0 24 24" version="1.1" xmlns="http://www.w3.org/2000/svg" xmlns:xlink="http://www.w3.org/1999/xlink">
    <title>Icons/Full Set/Capacity/Filled Copy</title>
    <g id="Icons/Full-Set/Capacity/Filled-Copy" stroke="none" stroke-width="1" fill="none" fill-rule="evenodd">
        <path d="M12.7573,5.6163 C15.3113,5.8823 17.3713,7.9413 18.0223,10.3713 C18.1833,10.9743 17.7093,11.5663 17.0863,11.5923 L12.4003,11.7853 C11.9623,11.8033 11.5883,12.1043 11.4753,12.5273 L10.3163,16.8853 C10.1583,17.4783 9.4973,17.8153 8.9463,17.5433 C6.5003,16.3383 5.0633,13.6563 5.6153,10.8513 C6.1803,7.4053 9.4283,5.2433 12.7573,5.6163 M12.0003,20.9993 C16.9503,20.9993 21.0003,16.9493 21.0003,12.0003 C21.0003,7.0503 16.9503,3.0003 12.0003,3.0003 C7.0493,3.0003 3.0003,7.0503 3.0003,12.0003 C3.0003,16.9493 7.0493,20.9993 12.0003,20.9993" id="Fill-1" fill="#273637"></path>
    </g>
</svg>
