<?xml version="1.0" encoding="UTF-8"?>
<svg width="24px" height="24px" viewBox="0 0 24 24" version="1.1" xmlns="http://www.w3.org/2000/svg" xmlns:xlink="http://www.w3.org/1999/xlink">
    <title>Icons/Full Set/Action/Clone</title>
    <g id="Icons/Full-Set/Action/Clone" stroke="none" stroke-width="1" fill="none" fill-rule="evenodd">
        <path d="M19,19 L10,19 L10,16 L10,14 L10,10 L14,10 L16,10 L19,10 L19,19 Z M5,14 L5,5 L14,5 L14,8 L10,8 C8.9,8 8,8.9 8,10 L8,14 L5,14 Z M19,8 L16,8 L16,5 C16,3.9 15.1,3 14,3 L5,3 C3.9,3 3,3.9 3,5 L3,14 C3,15.1 3.9,16 5,16 L8,16 L8,19 C8,20.1 8.9,21 10,21 L19,21 C20.1,21 21,20.1 21,19 L21,10 C21,8.9 20.1,8 19,8 L19,8 Z" id="Fill-1" fill="#273637"></path>
    </g>
</svg>