<?xml version="1.0" encoding="UTF-8"?>
<svg width="24px" height="24px" viewBox="0 0 24 24" version="1.1" xmlns="http://www.w3.org/2000/svg" xmlns:xlink="http://www.w3.org/1999/xlink">
    <title>Icons/Full Set/Action/Copy</title>
    <g id="Icons/Full-Set/Action/Copy" stroke="none" stroke-width="1" fill="none" fill-rule="evenodd">
        <path d="M20.5,7.8 C21.3,7.8 22,8.5 22,9.3 L22,9.3 L22,18.7 C22,19.5 21.3,20.2 20.5,20.2 L20.5,20.2 L7.3,20.2 C6.5,20.2 5.8,19.5 5.8,18.7 L5.8,18.7 L5.8,9.3 C5.8,8.5 6.5,7.8 7.3,7.8 L7.3,7.8 Z M20,9.8 L7.8,9.8 L7.8,18.2 L20,18.2 L20,9.8 Z M16.7,4 C17.3,4 17.7,4.4 17.7,5 C17.7,5.6 17.2,6 16.7,6 L16.7,6 L4,6 L4,14.9 C4,15.5 3.6,15.9 3,15.9 C2.4,15.9 2,15.5 2,14.9 L2,14.9 L2,5.5 C2,4.7 2.7,4 3.5,4 L3.5,4 Z" id="Combined-Shape" fill="#273637" transform="translate(12.000000, 12.100000) scale(-1, 1) rotate(90.000000) translate(-12.000000, -12.100000) "></path>
    </g>
</svg>
