<?xml version="1.0" encoding="UTF-8"?>
<svg width="24px" height="24px" viewBox="0 0 24 24" version="1.1" xmlns="http://www.w3.org/2000/svg" xmlns:xlink="http://www.w3.org/1999/xlink">
    <title>Icons/Full Set/Action/Edit</title>
    <g id="Icons/Full-Set/Action/Edit" stroke="none" stroke-width="1" fill="none" fill-rule="evenodd">
        <path d="M19.8,4.825 C18.7,3.725 16.7,3.725 15.6,4.825 L15,5.425 L15,5.425 L4,16.425 L4,20.625 L8.2,20.625 L18.4,10.425 L18.4,10.425 L19.8,9.025 C20.4,8.425 20.7,7.725 20.7,6.925 C20.7,6.125 20.4,5.425 19.8,4.825 Z M17,6.225 C17.4,5.825 18,5.825 18.4,6.225 C18.6,6.425 18.7,6.625 18.7,6.925 C18.7,7.225 18.6,7.425 18.4,7.625 L17.8,8.325 L16.4,6.925 L17,6.225 Z M7.4,18.725 L7.4,18.725 L6,17.325 L6,17.225 L15,8.225 L16.4,9.625 L7.4,18.725 Z" id="Shape" fill="#273637"></path>
    </g>
</svg>
