<?xml version="1.0" encoding="UTF-8"?>
<svg width="24px" height="24px" viewBox="0 0 24 24" version="1.1" xmlns="http://www.w3.org/2000/svg" xmlns:xlink="http://www.w3.org/1999/xlink">
    <g stroke="none" stroke-width="1" fill="none" fill-rule="evenodd">
      <path d="M19,12 C19.5128358,12 19.9355072,12.3860402 19.9932723,12.8833789 L20,13 L20,19 C20,19.5522847 19.5522847,20 19,20 L5,20 C4.44771525,20 4,19.5522847 4,19 L4,13 L4.00672773,12.8833789 C4.06449284,12.3860402 4.48716416,12 5,12 C5.51283584,12 5.93550716,12.3860402 5.99327227,12.8833789 L6,13 L6.0129076,13 L6.0129076,18 L17.9997924,18 L17.9997924,13 C18,12.4477153 18.4477153,12 19,12 Z M12,3 C12.3,3 12.6,3.1 12.9,3.3 L12.9,3.3 L16.8,7.2 C17.1,7.6 17.1,8.3 16.7,8.7 C16.5,8.9 16.2,9 16,9 C15.8,9 15.5,8.9 15.3,8.6 L15.3,8.6 L13,6.3 L13,15 C13,15.6 12.6,16 12,16 C11.4,16 11,15.6 11,15 L11,15 L11,6.3 L8.7,8.6 C8.3,9 7.7,9 7.3,8.6 C6.9,8.2 6.9,7.6 7.3,7.2 L7.3,7.2 L11.1,3.4 C11.4,3.1 11.7,3 12,3 Z" fill="#273637" />
    </g>
</svg>
