<svg width="24" height="24" viewBox="0 0 24 24" fill="none" xmlns="http://www.w3.org/2000/svg">
<path d="M3.89243 9.75697C3.38247 9.75697 3 9.3745 3 8.86454V4.14741C3 3.76494 3.06375 3.57371 3.31873 3.31873C3.57371 3.06375 3.89243 3 4.14741 3H8.86454C9.11952 3 9.3745 3.12749 9.50199 3.25498C9.62948 3.38247 9.75697 3.63745 9.75697 3.89243C9.75697 4.40239 9.3745 4.78486 8.86454 4.78486H6.05976L10.7131 9.43825C11.0956 9.82072 11.0956 10.3307 10.7131 10.7131C10.3307 11.0956 9.82072 11.0956 9.43825 10.7131L4.78486 6.05976V8.86454C4.78486 9.3745 4.40239 9.75697 3.89243 9.75697Z" fill="#273637"/>
<path d="M17.9814 19.2008L13.3013 14.51C12.9808 14.1888 12.8526 13.6747 13.2372 13.2892C13.6219 12.9036 14.1348 12.9036 14.5194 13.2892L19.1995 17.9799V15.1526C19.1995 14.6386 19.5841 14.253 20.097 14.253C20.3535 14.253 20.6099 14.3815 20.7381 14.51C20.8664 14.6386 20.9946 14.8956 20.9946 15.1526V19.9076C21.0587 20.4859 20.5458 21 19.9047 21H15.1605C14.6476 21 14.263 20.6145 14.263 20.1004C14.263 19.5863 14.6476 19.2008 15.1605 19.2008H17.9814Z" fill="#273637"/>
</svg>
