<?xml version="1.0" encoding="UTF-8"?>
<svg width="24px" height="24px" viewBox="0 0 24 24" version="1.1" xmlns="http://www.w3.org/2000/svg" xmlns:xlink="http://www.w3.org/1999/xlink">
    <title>Icons/Full Set/Action/Re-order</title>
    <g id="Icons/Full-Set/Action/Re-order" stroke="none" stroke-width="1" fill="none" fill-rule="evenodd">
        <path d="M9,17 C9.82842712,17 10.5,17.6715729 10.5,18.5 C10.5,19.3284271 9.82842712,20 9,20 C8.17157288,20 7.5,19.3284271 7.5,18.5 C7.5,17.6715729 8.17157288,17 9,17 Z M15,17 C15.8284271,17 16.5,17.6715729 16.5,18.5 C16.5,19.3284271 15.8284271,20 15,20 C14.1715729,20 13.5,19.3284271 13.5,18.5 C13.5,17.6715729 14.1715729,17 15,17 Z M9,10.5 C9.82842712,10.5 10.5,11.1715729 10.5,12 C10.5,12.8284271 9.82842712,13.5 9,13.5 C8.17157288,13.5 7.5,12.8284271 7.5,12 C7.5,11.1715729 8.17157288,10.5 9,10.5 Z M15,10.5 C15.8284271,10.5 16.5,11.1715729 16.5,12 C16.5,12.8284271 15.8284271,13.5 15,13.5 C14.1715729,13.5 13.5,12.8284271 13.5,12 C13.5,11.1715729 14.1715729,10.5 15,10.5 Z M9,4 C9.82842712,4 10.5,4.67157288 10.5,5.5 C10.5,6.32842712 9.82842712,7 9,7 C8.17157288,7 7.5,6.32842712 7.5,5.5 C7.5,4.67157288 8.17157288,4 9,4 Z M15,4 C15.8284271,4 16.5,4.67157288 16.5,5.5 C16.5,6.32842712 15.8284271,7 15,7 C14.1715729,7 13.5,6.32842712 13.5,5.5 C13.5,4.67157288 14.1715729,4 15,4 Z" id="Combined-Shape" fill="#C6CBCB"></path>
    </g>
</svg>