<?xml version="1.0" encoding="UTF-8"?>
<svg width="24px" height="24px" viewBox="0 0 24 24" version="1.1" xmlns="http://www.w3.org/2000/svg" xmlns:xlink="http://www.w3.org/1999/xlink">
    <g stroke="none" stroke-width="1" fill="none" fill-rule="evenodd">
      <path d="M17.7,16.3L13.5,12l4.2-4.3c0.4-0.4,0.4-1,0-1.4c-0.4-0.4-1-0.4-1.4,0L12,10.5L7.7,6.3c-0.4-0.4-1-0.4-1.4,0 c-0.4,0.4-0.4,1,0,1.4l4.3,4.3l-4.3,4.3c-0.4,0.4-0.4,1,0,1.4c0.4,0.4,1,0.4,1.4,0l4.3-4.3l4.3,4.3c0.4,0.4,1,0.4,1.4,0 S18.1,16.7,17.7,16.3z" fill="#273637" />
    </g>
</svg>
