<?xml version="1.0" encoding="UTF-8"?>
<svg width="24px" height="24px" viewBox="0 0 24 24" version="1.1" xmlns="http://www.w3.org/2000/svg" xmlns:xlink="http://www.w3.org/1999/xlink">
    <title>Icons/Full Set/Action/Resume</title>
    <g id="Icons/Full-Set/Action/Resume" stroke="none" stroke-width="1" fill="none" fill-rule="evenodd">
        <path d="M12,3 C16.990099,3 21,7.00990099 21,12 C21,16.990099 16.990099,21 12,21 C7.00990099,21 3,16.990099 3,12 C3,7.00990099 7.00990099,3 12,3 Z M12,4.78217822 C8.07920792,4.78217822 4.78217822,7.99009901 4.78217822,12 C4.78217822,16.009901 8.07920792,19.2178218 12,19.2178218 C15.9207921,19.2178218 19.2178218,16.009901 19.2178218,12 C19.2178218,7.99009901 15.9207921,4.78217822 12,4.78217822 Z M10.9306931,8.34653465 L14.5841584,12.0891089 L10.9306931,15.7425743 L10.9306931,8.34653465 Z" id="Combined-Shape" fill="#273637"></path>
    </g>
</svg>
