<svg width="25" height="25" viewBox="0 0 25 25" fill="none" xmlns="http://www.w3.org/2000/svg">
<path d="M18.5708 5.77637C16.8744 4.144 14.6029 3.23719 12.2427 3.25014L12.1647 3.27131C9.84198 3.32268 7.62658 4.25384 5.97066 5.87471C4.31474 7.49559 3.34317 9.68396 3.25425 11.9931C3.18294 14.3055 4.01143 16.5561 5.5671 18.2759C7.12276 19.9957 9.28559 21.052 11.6049 21.2249C13.9243 21.3977 16.2212 20.6737 18.0171 19.2037C19.8131 17.7336 20.9694 15.631 21.2453 13.3339C21.2586 13.1976 21.2435 13.0601 21.2011 12.9298C21.1586 12.7996 21.0896 12.6794 20.9984 12.5768C20.9073 12.4742 20.7959 12.3914 20.6711 12.3335C20.5464 12.2755 20.411 12.2438 20.2734 12.2401C20.0336 12.2417 19.8022 12.3287 19.6213 12.4853C19.4404 12.642 19.3219 12.8579 19.2873 13.094C19.0969 14.6539 18.3833 16.1045 17.2618 17.2112C16.1403 18.3179 14.6764 19.0162 13.1066 19.1932C11.5368 19.3702 9.95291 19.0156 8.61079 18.1867C7.26866 17.3577 6.24673 16.1029 5.71011 14.6249C5.17349 13.1469 5.15353 11.5322 5.65346 10.0415C6.1534 8.55085 7.14402 7.2714 8.46525 6.4099C9.78649 5.54839 11.3612 5.15515 12.9348 5.29372C14.5085 5.43229 15.9892 6.09457 17.1377 7.17356L16.2226 8.08385C16.1285 8.16044 16.0604 8.264 16.0276 8.38043C15.9948 8.49687 15.9988 8.62054 16.0391 8.73463C16.0794 8.84872 16.154 8.9477 16.2528 9.01812C16.3517 9.08854 16.4699 9.12697 16.5915 9.12821L20.4153 9.72801C20.5131 9.75035 20.6149 9.74761 20.7113 9.72006C20.8077 9.69251 20.8955 9.64105 20.9664 9.57051C21.0373 9.49996 21.089 9.41266 21.1167 9.31678C21.1444 9.2209 21.1472 9.11959 21.1247 9.02236L20.5572 5.21184C20.5465 5.09574 20.5025 4.98514 20.4304 4.89319C20.3583 4.80125 20.2612 4.73182 20.1506 4.69317C20.04 4.65452 19.9206 4.64827 19.8065 4.67517C19.6925 4.70207 19.5886 4.76099 19.5072 4.84491L18.5708 5.77637Z" fill="#273637"/>
</svg>
