<?xml version="1.0" encoding="UTF-8"?>
<svg width="24px" height="24px" viewBox="0 0 24 24" version="1.1" xmlns="http://www.w3.org/2000/svg" xmlns:xlink="http://www.w3.org/1999/xlink">
    <title>Icons/Full Set/Action/Upgrade</title>
    <g id="Icons/Full-Set/Action/Upgrade" stroke="none" stroke-width="1" fill="none" fill-rule="evenodd">
        <path d="M4.37270003,8.3733334 C4.38443846,8.3840047 4.39566237,8.39522861 4.40633367,8.40696704 L6.91242146,11.1636636 C7.09817492,11.3679924 7.08311663,11.6842166 6.87878782,11.86997 C6.78675183,11.9536391 6.66683444,12 6.54245142,12 L5,12 C5,15.9 8.1,19 12,19 C14.6635152,19 16.953891,17.5540847 18.1384723,15.3949092 L19.5354721,16.9473779 C17.933277,19.3949436 15.1672705,21 12,21 C7,21 3,17 3,12 L1.53027585,12 C1.25413348,12 1.03027585,11.7761424 1.03027585,11.5 C1.03027585,11.375617 1.07663674,11.2556996 1.16030582,11.1636636 L3.6663936,8.40696704 C3.85214706,8.20263823 4.16837122,8.18757994 4.37270003,8.3733334 Z M12.645438,8 C12.7489106,8 12.8352991,8.07892426 12.8446242,8.1819758 L12.8446242,8.1819758 L12.931677,9.144 C13.3543678,9.27598256 13.7427237,9.4942527 14.0703934,9.784 L14.0703934,9.784 L15.0109053,9.37755036 C15.1030077,9.33774757 15.2103468,9.37234745 15.2618662,9.45844553 L15.2618662,9.45844553 L15.9041726,10.5318552 C15.9581353,10.6220365 15.9330966,10.7385992 15.8468598,10.7986645 L15.8468598,10.7986645 L15.0351967,11.364 C15.0819941,11.5729807 15.1055919,11.7861857 15.1055901,12 C15.1015143,12.2142443 15.0737514,12.4274546 15.0227743,12.636 L15.0227743,12.636 L15.8344374,13.2013355 C15.9206743,13.2614008 15.9457129,13.3779635 15.8917503,13.4681448 L15.8917503,13.4681448 L15.24954,14.5413938 C15.1979793,14.627561 15.090519,14.6621372 14.9983848,14.6222049 L14.9983848,14.6222049 L14.0703934,14.22 C13.7471736,14.5063547 13.3646854,14.7231366 12.9482402,14.856 L12.9482402,14.856 L12.8469593,15.8208788 C12.836272,15.9226935 12.7504261,16 12.6480521,16 L12.6480521,16 L11.3539046,16 C11.2507072,16 11.1644535,15.9214824 11.1547844,15.818739 L11.1547844,15.818739 L11.0641822,14.856 C10.6433218,14.7246814 10.2564549,14.5078185 9.92960663,14.22 L9.92960663,14.22 L8.98880969,14.6231562 C8.8968,14.6625848 8.78981131,14.6279169 8.73841168,14.5420188 L8.73841168,14.5420188 L8.09556007,13.4676981 C8.04170761,13.3777009 8.06652268,13.2613902 8.15241611,13.201208 L8.15241611,13.201208 L8.96480331,12.632 C8.86951158,12.2129962 8.86951158,11.7790038 8.96480331,11.36 L8.96480331,11.36 L8.15386872,10.7985339 C8.06728706,10.7385875 8.04202312,10.6217718 8.09609639,10.5314056 L8.09609639,10.5314056 L8.73841168,9.45798117 C8.78981131,9.37208313 8.8968,9.33741518 8.98880969,9.37684375 L8.98880969,9.37684375 L9.92960663,9.78 C10.2540363,9.49315911 10.6379835,9.27635034 11.0559006,9.144 L11.0559006,9.144 L11.1536169,8.17983372 C11.163967,8.07770873 11.2499494,8 11.3525976,8 L11.3525976,8 Z M12,3 C17,3 21,7 21,12 L22.5424514,12 C22.6668344,12 22.7867518,12.0463609 22.8787878,12.13003 C23.0604134,12.2951442 23.092492,12.5633463 22.9669176,12.764415 L22.9124215,12.8363364 L20.4063337,15.593033 C20.3956624,15.6047714 20.3844385,15.6159953 20.3727,15.6266666 C20.1910744,15.7917808 19.9210377,15.7982289 19.7328112,15.6541167 L19.6663936,15.593033 L17.1603058,12.8363364 C17.0766367,12.7443004 17.0302759,12.624383 17.0302759,12.5 C17.0302759,12.2545401 17.207151,12.0503916 17.4404002,12.0080557 L17.5302759,12 L18.9992759,11.999 L18.9959843,11.7573125 C18.8704861,7.97217882 15.81875,5 12,5 C9.37277919,5 7.10859791,6.40677821 5.91056693,8.51722386 L4.51863785,6.97094171 C6.12854961,4.56940893 8.86809869,3 12,3 Z M12,10.5 C11.1715729,10.5 10.5,11.1715729 10.5,12 C10.5,12.8284271 11.1715729,13.5 12,13.5 C12.3978247,13.5 12.7793556,13.3419647 13.0606602,13.0606602 C13.3419647,12.7793556 13.5,12.3978247 13.5,12 C13.5,11.1715729 12.8284271,10.5 12,10.5 Z" id="Combined-Shape" fill="#273637"></path>
    </g>
</svg>
