<svg id="f01c2be1-6ce1-48fc-8caa-5bc37c621a9a" data-name="ARTWORK" xmlns="http://www.w3.org/2000/svg" xmlns:xlink="http://www.w3.org/1999/xlink" viewBox="0 0 2500 2500"><defs><linearGradient id="a2ecc402-32bc-4196-afa5-8a94bdeceae7" x1="118.3" y1="100.53" x2="22.26" y2="304.53" gradientUnits="userSpaceOnUse"><stop offset="0" stop-color="#a9a7b7"/><stop offset="0.59" stop-color="#8c8b9f"/><stop offset="1" stop-color="#7d7c93"/></linearGradient><linearGradient id="af905510-d6e4-4028-ac1c-550242eddfab" x1="287.3" y1="508.62" x2="-5.56" y2="-159.26" gradientTransform="translate(220.34 -34.97) rotate(59.84)" gradientUnits="userSpaceOnUse"><stop offset="0.01" stop-color="#141226"/><stop offset="0.58" stop-color="#27244b"/><stop offset="0.98" stop-color="#27244b"/><stop offset="1" stop-color="#27244b"/></linearGradient><filter id="b00bcdc0-2c48-4f24-828b-125168c46dd4" name="AI_DesenfoqueGaussiano_7"><feGaussianBlur stdDeviation="7"/></filter><linearGradient id="e6d36c25-1a86-4ea7-9028-64e2bc1aa70d" x1="292.01" y1="910.38" x2="175.17" y2="942.53" gradientTransform="matrix(-0.95, 0.32, 0.32, 0.95, 487.25, 98.53)" gradientUnits="userSpaceOnUse"><stop offset="0" stop-color="#c2ebe8" stop-opacity="0.1"/><stop offset="0.05" stop-color="#8fe0d9" stop-opacity="0.1"/><stop offset="0.15" stop-color="#6ad8cf" stop-opacity="0.1"/><stop offset="0.87" stop-color="#43a39b" stop-opacity="0.3"/></linearGradient><linearGradient id="a54d149e-3b3c-445e-96b2-3f18395959f1" x1="397.37" y1="1062.9" x2="877.56" y2="1232.55" gradientUnits="userSpaceOnUse"><stop offset="0" stop-color="#c2ebe8" stop-opacity="0"/><stop offset="0.06" stop-color="#a7e5e0" stop-opacity="0.03"/><stop offset="0.21" stop-color="#79dbd3" stop-opacity="0.08"/><stop offset="0.37" stop-color="#6ad8cf" stop-opacity="0.1"/><stop offset="0.86" stop-color="#43a39b" stop-opacity="0.6"/></linearGradient><linearGradient id="f5deb409-a04f-4bc9-a946-2870e26a23d8" x1="68.81" y1="1465.18" x2="657.31" y2="1662.62" xlink:href="#a54d149e-3b3c-445e-96b2-3f18395959f1"/><linearGradient id="a4e68a8b-52c9-457d-bd47-f35e5ddef6c5" x1="67.24" y1="1469.86" x2="655.74" y2="1667.31" xlink:href="#a54d149e-3b3c-445e-96b2-3f18395959f1"/><linearGradient id="fd8d84bd-72f5-424e-9992-30e757311005" x1="1250.89" y1="1342.11" x2="1990.22" y2="1342.11" gradientUnits="userSpaceOnUse"><stop offset="0.01" stop-color="#00b287"/><stop offset="0.33" stop-color="#08ad9f"/><stop offset="1" stop-color="#1da1dc"/></linearGradient><linearGradient id="ba041d44-ce10-47bf-8e8d-a658489a4ea3" x1="1346.48" y1="2076.88" x2="1906.22" y2="636.57" xlink:href="#fd8d84bd-72f5-424e-9992-30e757311005"/><linearGradient id="b5926be7-802e-47e5-8c04-acc6f72108c5" x1="1125.38" y1="2188.27" x2="843.72" y2="1960.26" gradientTransform="matrix(-1, 0, 0, 1, 2288.09, 0)" gradientUnits="userSpaceOnUse"><stop offset="0.27" stop-color="#90aac1" stop-opacity="0.5"/><stop offset="0.64" stop-color="#90aac1" stop-opacity="0.1"/><stop offset="0.82" stop-color="#90aac1" stop-opacity="0"/></linearGradient><linearGradient id="b037290d-2230-496e-b603-53cb77959149" x1="1381.07" y1="1384.84" x2="480.65" y2="2006.89" gradientUnits="userSpaceOnUse"><stop offset="0" stop-color="#fff" stop-opacity="0.4"/><stop offset="0.24" stop-color="#fff" stop-opacity="0.4"/><stop offset="0.41" stop-color="#b7d4f4" stop-opacity="0.4"/><stop offset="1" stop-color="#b7d4f4" stop-opacity="0"/></linearGradient><linearGradient id="ee243273-55ff-4896-97c8-aaff59526a68" x1="1381.07" y1="1384.84" x2="480.65" y2="2006.89" gradientUnits="userSpaceOnUse"><stop offset="0.34" stop-color="#01171a" stop-opacity="0"/><stop offset="0.6" stop-color="#01171a" stop-opacity="0.25"/><stop offset="0.98" stop-color="#01171a" stop-opacity="0.95"/><stop offset="1" stop-color="#01171a"/></linearGradient><linearGradient id="a8a18eec-92c5-4999-878d-c53167a49539" x1="1098.02" y1="1479.95" x2="791.91" y2="2012.36" gradientUnits="userSpaceOnUse"><stop offset="0.24" stop-color="#f5f8fa"/><stop offset="0.47" stop-color="#f2f7fa"/><stop offset="0.67" stop-color="#e7f3f8"/><stop offset="0.85" stop-color="#d6edf6"/><stop offset="0.87" stop-color="#d4ecf6"/><stop offset="0.93" stop-color="#89d6ef"/></linearGradient><linearGradient id="b3b7dff5-124b-4f9e-a5f4-f96ced02285d" x1="607.9" y1="1316.57" x2="995.22" y2="1576.28" gradientUnits="userSpaceOnUse"><stop offset="0.7" stop-color="#f5f8fa" stop-opacity="0.3"/><stop offset="0.71" stop-color="#f4f7fa" stop-opacity="0.29"/><stop offset="0.73" stop-color="#eff6f9" stop-opacity="0.25"/><stop offset="0.74" stop-color="#e7f3f8" stop-opacity="0.18"/><stop offset="0.75" stop-color="#ddeff7" stop-opacity="0.08"/><stop offset="0.75" stop-color="#d4ecf6" stop-opacity="0"/></linearGradient><linearGradient id="aa519944-b0ab-4311-b7a5-04e1dbbec599" x1="1419.77" y1="1582.84" x2="1404.52" y2="1759.97" gradientUnits="userSpaceOnUse"><stop offset="0.01" stop-color="#0071b0"/><stop offset="0.37" stop-color="#0f89c6"/><stop offset="0.73" stop-color="#199bd6"/><stop offset="1" stop-color="#1da1dc"/></linearGradient><linearGradient id="a79c3034-440f-4208-b475-d20763dea984" x1="1449.67" y1="1498.4" x2="1543.89" y2="1440.34" gradientUnits="userSpaceOnUse"><stop offset="0.01" stop-color="#0071b0"/><stop offset="0.1" stop-color="#0579b7"/><stop offset="0.42" stop-color="#128fcc"/><stop offset="0.72" stop-color="#1a9cd8"/><stop offset="1" stop-color="#1da1dc"/></linearGradient><linearGradient id="ffae7682-f1e0-4496-af75-f9bb6e072421" x1="1302.51" y1="1673.29" x2="1384.68" y2="1506.25" gradientUnits="userSpaceOnUse"><stop offset="0.01" stop-color="#0071b0"/><stop offset="0.29" stop-color="#0173b2"/><stop offset="0.39" stop-color="#057ab8"/><stop offset="0.46" stop-color="#0c85c3"/><stop offset="0.52" stop-color="#1696d2"/><stop offset="0.55" stop-color="#1da1dc"/><stop offset="0.98" stop-color="#1da1dc"/><stop offset="1" stop-color="#1da1dc"/></linearGradient><linearGradient id="f99bee9e-342c-4fc8-922d-36be25f6441a" x1="1409.37" y1="1469.68" x2="1467.21" y2="1361.69" xlink:href="#ffae7682-f1e0-4496-af75-f9bb6e072421"/><symbol id="b8b3fdad-6891-45b7-8f2e-2dab3e756ecf" data-name="Circle Tick-Upgrade-Calendar" viewBox="0 0 271.49 342.37"><g id="ffc887b8-119a-4160-9cbc-868244e95a7e" data-name="Circle Tick upgrade Calendar"><g style="isolation:isolate"><path d="M223.68,8.84C199.87-5,166.9-3,130.51,18,58.2,59.71-.23,160.92,0,244c.12,41.28,14.69,70.33,38.2,84l9.61,5.54c-23.5-13.66-38.08-42.71-38.19-84-.24-83.09,58.19-184.3,130.51-226,36.39-21,69.36-23,93.17-9.12Z" fill="url(#a2ecc402-32bc-4196-afa5-8a94bdeceae7)"/><ellipse cx="140.55" cy="173.96" rx="184.57" ry="106.91" transform="translate(-80.47 208.07) rotate(-59.84)" fill="url(#af905510-d6e4-4028-ac1c-550242eddfab)"/></g></g><g id="a8883aad-aadd-4691-baa1-a5896d1fdd2f" data-name="Drop shadow" filter="url(#b00bcdc0-2c48-4f24-828b-125168c46dd4)"><path d="M190.69,164.94c5.16,1.32,9.38,4.26,13.13,7.47.94.53,1.41,1.87,1.41,3.49v21.5L71.12,274.83V253.32a10.52,10.52,0,0,1,1.41-5.11C101.6,190,154.12,152.73,190.69,164.94ZM81,249.25l-.47,9.41,115.35-66.6v-9.14a30.3,30.3,0,0,0-11.25-6.4C152.71,166.44,106.76,198.35,81,249.25Zm57.21-165.8c19.3-11.15,35-2.65,35.62,19v1.32c0,22.57-15.94,50.06-35.63,61.43s-35.64,2.29-35.64-20.28S118.48,94.82,138.18,83.45Zm0,10.21c-14.54,8.4-26.26,28.6-26.26,45.27s11.72,23.33,26.26,14.94c14.19-8.2,25.7-27.65,26.24-44.07l0-1.2C164.44,91.94,152.71,85.27,138.18,93.66Z"/></g><path id="b8f409e2-4205-4d18-b41b-9bbbcaad8426" data-name="User icon" d="M194.82,167c5.16,1.32,9.38,4.26,13.13,7.47.94.53,1.4,1.88,1.4,3.49v21.5L75.24,276.85v-21.5a10.49,10.49,0,0,1,1.41-5.11C105.72,192.06,158.24,154.75,194.82,167ZM85.09,251.27l-.47,9.41L200,194.08V185a30.31,30.31,0,0,0-11.26-6.41C156.83,168.46,110.88,200.37,85.09,251.27ZM142.3,85.47c19.31-11.15,35-2.64,35.62,19l0,1.31c0,22.58-15.95,50.06-35.64,61.43s-35.64,2.3-35.64-20.28S122.6,96.84,142.3,85.47Zm0,10.22C127.76,104.08,116,124.29,116,141s11.72,23.33,26.26,14.94c14.19-8.19,25.7-27.64,26.24-44.07l0-1.19C168.56,94,156.83,87.29,142.3,95.69Z" fill="#fff" fill-opacity="0.95"/></symbol></defs><g id="efb3c24b-ada0-4df4-8d99-d4e4248169ff" data-name="Plant11"><g id="b624915d-20cc-4321-a418-2ccf15f92090" data-name="Layer1 8 MEMBER 0 FILL"><path d="M744.37,1650l-6.71,3.64q-48-82.35-50.72-243.35l16.94-17.52q-16,122.2,40.49,257.23m-135.29-143.5,3.81-4q58.92,77.29,86.54,156.89l-11.74,3.9Q665.84,1586.44,609.08,1506.54Z" fill="#6ad8cf"/></g><g id="ab48d6e3-55b4-4f79-9101-6aceda586f7a" data-name="Layer1 8 MEMBER 1 FILL"><path d="M572.74,960.23q79.29,294.7,95.9,637.37Q433.95,1429,335.51,1085.89q-98.37-343.23,34.36-576.72Q527.45,792.06,572.74,960.23Z" fill="#c2ebe8"/></g><g id="a740cbbf-15b3-41db-9ada-f8302ad73e01" data-name="Layer1 8 MEMBER 1 FILL"><path d="M572.74,960.23q79.29,294.7,95.9,637.37Q433.95,1429,335.51,1085.89q-98.37-343.23,34.36-576.72Q527.45,792.06,572.74,960.23Z" fill="url(#e6d36c25-1a86-4ea7-9028-64e2bc1aa70d)"/></g><g id="fa4d1e37-661c-46e5-be70-fbf087372afd" data-name="Layer1 8 MEMBER 2 FILL"><path d="M729.32,695.41q93.82,125.12,108.57,298.92T734.36,1372.19q-49.83,105.81-25.3,202.38-42.78-62.83-81.3-196.48T623,1058Q642.65,877.52,729.32,695.41Z" fill="#91e2db"/></g><path d="M735,687.9h0l.12,0-.12,0M710.68,1059v.39q34.8-192,28.33-294.05,11.46,125.17-14,296.17a.41.41,0,0,0,0,.27Q677.47,1308.4,707.24,1451a286.77,286.77,0,0,0-6.3,56.44Q636.71,1374.54,710.68,1059Z" fill="#6ad8cf"/><path d="M669.66,1598.66q-5.67-4.1-11.29-8.26c-130.2-255-245-776.52-288.61-1062.86,59.61,300.11,174.88,763,297.24,1043.36C667.94,1580.15,668.8,1589.4,669.66,1598.66Z" fill="#6ad8cf"/><g id="f83c1781-4464-47e8-89d5-8083525932e5" data-name="Layer1 8 MEMBER 2 FILL"><path d="M302.34,1441.78c141.51.86,326.82,106.4,393.17,227.51,21.08,38.48,8.76-7.15,28.36,14.68C557.21,1693.15,359.51,1605.62,302.34,1441.78Z" fill="#91e2db"/></g><path d="M670.68,1669.07a104,104,0,0,0-2.23-12.63C548.65,1593.05,431.4,1525.22,316,1454.07c116.37,74.77,234.16,147.2,354.65,215.14C670.69,1669.16,670.68,1669.12,670.68,1669.07Z" fill="#6ad8cf"/><path d="M734.36,1372.19q118.15-204,103.53-377.86T729.32,695.41Q642.65,877.53,623,1058q-6.74,37.05-10.58,72-17.35-86.76-39.68-169.72Q527.45,792.05,369.87,509.17q-132.74,233.49-34.36,576.72,96.21,335.31,322.59,504l.27.52,1.65,1.21a452.56,452.56,0,0,1,23.41,57.77c-74.64-112.54-247.4-206.79-381.09-207.6,55.12,158,240.88,245,403.5,242.79-2.11-1.62-5.25-6-10.33-15.28-1.31-2.39-2.68-4.77-4.09-7.15l8-2.66a503.85,503.85,0,0,0-30.64-70.1q-.6-6.42-1.24-12.83-2.71-50-6.79-99,21.35,55.08,43.88,90.31,12.29,50.23,33,85.82l6.71-3.64q-35.39-84.66-42.31-164.27Q707,1430.38,734.36,1372.19Z" fill="url(#a54d149e-3b3c-445e-96b2-3f18395959f1)"/><path d="M709.21,1684.52q7.37-.15,14.66-.55C712.47,1671.27,711.87,1681.4,709.21,1684.52Z" fill="url(#f5deb409-a04f-4bc9-a946-2870e26a23d8)"/><path d="M709.21,1684.52l-3.37,0C707.4,1685.76,708.4,1685.47,709.21,1684.52Z" fill="url(#a4e68a8b-52c9-457d-bd47-f35e5ddef6c5)"/></g><g id="edd49ee8-70c1-4832-ad4e-08b2d10b20c7" data-name="Connector lines"><path d="M1980.22,1115.63v224.08c0,6.55-2.06,11.5-5.65,13.57s-8.89,1.38-14.57-1.9l-223.09-128.69V575.11h-10v641.81l-218.08-125.81c-13.67-7.89-25.22-27.88-25.22-43.66v-223h-10v223c0,19.23,13.56,42.7,30.22,52.32l223.08,128.69v567.86c0,15.78-11.54,35.78-25.2,43.68l-450.82,260.45,5,8.66,450.82-260.46c16.65-9.62,30.2-33.1,30.2-52.33V1234.23L1955,1360.05a30,30,0,0,0,14.82,4.44,19.32,19.32,0,0,0,9.76-2.55c6.86-4,10.64-11.86,10.64-22.23V1115.63Z" fill-opacity="0.2" fill="url(#fd8d84bd-72f5-424e-9992-30e757311005)"/><path d="M1987.22,1115.63v224.08c0,9.25-3.25,16.23-9.15,19.63a16.28,16.28,0,0,1-8.26,2.14,27,27,0,0,1-13.31-4L1733.91,1229v567.28c0,18.28-12.87,40.59-28.7,49.74l-450.82,260.45-2-3.46,450.82-260.46c14.72-8.5,26.7-29.26,26.7-46.27V1226.73l-224.58-129.56c-15.83-9.14-28.72-31.44-28.72-49.72v-223h4v223c0,17,12,37.76,26.72,46.25l222.58,128.41v-647h4v649.31L1958.5,1354c6.73,3.88,13,4.56,17.57,1.9s7.15-8.41,7.15-16.17V1115.63Z" opacity="0.65" fill="url(#ba041d44-ce10-47bf-8e8d-a658489a4ea3)"/></g><g id="a94eee9d-4ccf-4f95-b182-2707d3590c1c" data-name="Folder"><polygon id="b19c6fc5-61f4-49ba-87ef-a91500ef2c2f" data-name="Shadow folder" points="1295.05 2215.31 1795.77 2215.31 1149.43 1844.55 826.27 1921.1 1295.05 2215.31" fill="url(#b5926be7-802e-47e5-8c04-acc6f72108c5)"/><g id="f4bc103a-0546-400f-84d3-d0dfcf123b33" data-name="inside folder"><path d="M780.94,1039.3q6.48-2.28,14.48.54c2.22,1,4.45,2,6.67,3,.18.13.36.24.54.35l270.68,148.29,66.92,130.74L1384.51,1474q14.41,8.34,24.58,26a78.52,78.52,0,0,1,8.19,19.43,58.19,58.19,0,0,1,1.92,14.72l-1.33,493q-.58,18.4-6.43,41a213,213,0,0,1-15.65,41.57c-.12.22-.24.43-.34.63a187.34,187.34,0,0,1-23.6,36.17q-13.8,16.38-28.81,25.37l-11.68,7q-15.06,9-28.85,9.13c-8.87.13-32.56-1-97.45-48.33q-84.15-48.53-68.21-51.92T767.25,1305h.1l-.05,0,.4-241.82q0-16.59,10.25-22.43l.54-.29a.21.21,0,0,0,.1-.05c.78-.33,1.56-.67,2.35-1" fill="#90aac1"/><path d="M780.94,1039.3q6.48-2.28,14.48.54c2.22,1,4.45,2,6.67,3,.18.13.36.24.54.35l272.44,149.61,73.77,133.62L1384.51,1474q14.41,8.34,24.58,26a78.52,78.52,0,0,1,8.19,19.43,58.19,58.19,0,0,1,1.92,14.72l-1.33,493q-.58,18.4-6.43,41a213,213,0,0,1-15.65,41.57c-.12.22-.24.43-.34.63a187.34,187.34,0,0,1-23.6,36.17q-13.8,16.38-28.81,25.37l-11.68,7q-15.06,9-28.85,9.13-13.3.2-97.45-48.33t-68.21-51.92q15.87-3.4-369.6-782.67h.1l-.05,0,.4-241.82q0-16.59,10.25-22.43l.54-.29a.21.21,0,0,0,.1-.05c.78-.33,1.56-.67,2.35-1" fill="url(#b037290d-2230-496e-b603-53cb77959149)"/><path d="M780.94,1039.3q6.48-2.28,14.48.54c2.22,1,4.45,2,6.67,3,.18.13.36.24.54.35l270.24,145.42,68.68,138.47,243,146.89q14.41,8.34,24.58,26a78.52,78.52,0,0,1,8.19,19.43,58.19,58.19,0,0,1,1.92,14.72l-1.33,493q-.58,18.4-6.43,41a213,213,0,0,1-15.65,41.57c-.12.22-.24.43-.34.63a187.34,187.34,0,0,1-23.6,36.17q-13.8,16.38-28.81,25.37l-11.68,7q-15.06,9-28.85,9.13-13.3.2-97.45-48.33t-68.21-51.92q15.87-3.4-369.6-782.67h.1l-.05,0,.4-241.82q0-16.59,10.25-22.43l.54-.29a.21.21,0,0,0,.1-.05c.78-.33,1.56-.67,2.35-1" fill="url(#ee243273-55ff-4896-97c8-aaff59526a68)"/></g><g id="bb6780d8-7554-4e4d-815d-6b08b6d2e6d4" data-name="Folder"><path d="M1270.65,2208.3a44.48,44.48,0,0,1-4.41-3q-12.6-9.9-19.53-28.31a100.91,100.91,0,0,1-3.68-12,139.54,139.54,0,0,1-3.53-32.59v8.12c-.12-2.54-.18-5.14-.18-7.78l-.15-110.7.33-201.86V1629.84c0-20.67-14.62-45.86-32.66-56.28L661.1,1258.24c-18-10.41-32.65-2.1-32.65,18.57v313.53l-.6,209.55q.92,14.82,10,30.52a74,74,0,0,0,17.27,20.85,56.45,56.45,0,0,0,7.31,5.06l541.29,314.83,6.24,3.58,60.5,33.91a41.84,41.84,0,0,1-3.68-2.5Z" fill="url(#a8a18eec-92c5-4999-878d-c53167a49539)"/><path d="M646.43,1255.75c4.16,0,8.89,1.46,13.67,4.23l545.73,315.32c17.46,10.07,31.66,34.54,31.66,54.54v190.28l-.33,201.86.15,110.7c0,2.66.06,5.31.18,7.87h.2a134.55,134.55,0,0,0,3.39,24.84,103.1,103.1,0,0,0,3.76,12.26,72.87,72.87,0,0,0,11.75,20.92L1211,2173c-1.69-1-3.76-2.14-6.22-3.57l-541.3-314.83a56.07,56.07,0,0,1-7.05-4.88,72.36,72.36,0,0,1-16.8-20.31c-5.87-10.12-9.15-20.07-9.74-29.57l.6-209.49V1276.81c0-6.6,1.57-12,4.55-15.76a14.11,14.11,0,0,1,11.43-5.3m0-2c-10.67,0-18,8.44-18,23.06v313.53l-.6,209.55q.92,14.82,10,30.52a74,74,0,0,0,17.27,20.85,56.45,56.45,0,0,0,7.31,5.06l541.29,314.83,6.24,3.58,60.5,33.91a41.84,41.84,0,0,1-3.68-2.5l3.86,2.16a44.48,44.48,0,0,1-4.41-3q-12.6-9.9-19.53-28.31a100.91,100.91,0,0,1-3.68-12,139.54,139.54,0,0,1-3.53-32.59v8.12c-.12-2.54-.18-5.14-.18-7.78l-.15-110.7.33-201.86V1629.84c0-20.67-14.62-45.86-32.66-56.28L661.1,1258.24c-5.28-3-10.26-4.49-14.67-4.49Z" fill="#fff"/></g><path d="M1435.83,1515.23a73.67,73.67,0,0,0-9.47-25.37,84,84,0,0,0-9.07-12.9,61.1,61.1,0,0,0-15.46-13l-39.94-23.06-210.81-121.42-34.87-76,0-.1-2-4.35-9.49-20.65c-7.63-16.63-20-31-33.06-38.56L817.73,1033.23c-8.46-4.88-16.17-5.65-22-2.94l0,0-2.26,1.3,0,0-15.68,9.06a18.07,18.07,0,0,1,9.67-1.41,31.8,31.8,0,0,1,12.3,4.36l253.89,146.57c13.11,7.57,25.43,21.93,33.07,38.57l11.47,25,0,.1,34.14,74.41L1384.51,1474q14.41,8.36,24.58,26a79,79,0,0,1,8.2,19.43,58.57,58.57,0,0,1,1.91,14.72l-1.33,493q-.58,18.4-6.42,41a213.64,213.64,0,0,1-15.66,41.57c-.12.21-.24.43-.34.63a187,187,0,0,1-23.6,36.17q-13.8,16.38-28.81,25.37l-11.68,7q-15.08,9-28.85,9.13a36.22,36.22,0,0,1-23.6-7.9q-10.26-8.1-15.9-23.06a92.5,92.5,0,0,1-5.36-24.39c-.35-3.84-.53-7.82-.53-12l-.29-121,.51-384.16c-1.14-13.38-7.84-28.08-17.29-39.22a58.94,58.94,0,0,0-15.19-13.07L679.13,1247c-8.46-4.89-16.18-5.65-22-2.94h0l-2.25,1.31,0,0-15.69,9.06a18,18,0,0,1,9.67-1.42,32.23,32.23,0,0,1,12.31,4.36l545.73,316.11c18,10.42,32.66,35.61,32.66,56.28v190.28l-.33,201.86.15,110.7c0,.91,0,1.82,0,2.73,0,.57,0,1.12,0,1.68,0,.73,0,1.46.07,2.17,0,.41,0,.8,0,1.2h0q.06,1.67.18,3.3c0,.74.1,1.48.17,2.22,0,.55.09,1.09.14,1.64.14,1.59.32,3.15.52,4.7.06.49.12,1,.19,1.45.09.7.2,1.39.31,2.08.06.39.11.77.18,1.16s.17,1,.26,1.49c.17,1,.35,1.92.55,2.86a1.7,1.7,0,0,0,0,.22c.08.41.16.81.25,1.22.18.82.37,1.64.56,2.45q1.1,4.54,2.53,8.79c.37,1.09.75,2.17,1.15,3.23q6.93,18.41,19.53,28.32a44,44,0,0,0,4.42,3,4.21,4.21,0,0,0,.64.39,6.73,6.73,0,0,0,.78.44,44.57,44.57,0,0,0,23.16,5.84q16.88-.2,35.33-11.24l14.33-8.53q18.49-11,35.38-31.11a227.71,227.71,0,0,0,29-44.41q4.62-9.17,8.49-18.55a255.06,255.06,0,0,0,11.14-33.22,226.87,226.87,0,0,0,6.43-36.36l.44-48.09.59-429.61.39-30.13A55.27,55.27,0,0,0,1435.83,1515.23Z" fill="#d4ecf6"/><path d="M1435.83,1515.23a73.67,73.67,0,0,0-9.47-25.37,84,84,0,0,0-9.07-12.9,61.1,61.1,0,0,0-15.46-13l-39.94-23.06-210.81-121.42-34.87-76,0-.1-2-4.35-9.49-20.65c-7.63-16.63-20-31-33.06-38.56L817.73,1033.23c-8.46-4.88-16.17-5.65-22-2.94l0,0-2.26,1.3,0,0-15.68,9.06a18.07,18.07,0,0,1,9.67-1.41,31.8,31.8,0,0,1,12.3,4.36l253.89,146.57c13.11,7.57,25.43,21.93,33.07,38.57l11.47,25,0,.1,34.14,74.41L1384.51,1474q14.41,8.36,24.58,26a79,79,0,0,1,8.2,19.43,58.57,58.57,0,0,1,1.91,14.72l-1.33,493q-.58,18.4-6.42,41a213.64,213.64,0,0,1-15.66,41.57c-.12.21-.24.43-.34.63a187,187,0,0,1-23.6,36.17q-13.8,16.38-28.81,25.37l-11.68,7q-15.08,9-28.85,9.13a36.22,36.22,0,0,1-23.6-7.9q-10.26-8.1-15.9-23.06a92.5,92.5,0,0,1-5.36-24.39c-.35-3.84-.53-7.82-.53-12l-.29-121,.51-384.16c-1.14-13.38-7.84-28.08-17.29-39.22a58.94,58.94,0,0,0-15.19-13.07L679.13,1247c-8.46-4.89-16.18-5.65-22-2.94h0l-2.25,1.31,0,0-15.69,9.06a18,18,0,0,1,9.67-1.42,32.23,32.23,0,0,1,12.31,4.36l545.73,316.11c18,10.42,32.66,35.61,32.66,56.28v190.28l-.33,201.86.15,110.7c0,.91,0,1.82,0,2.73,0,.57,0,1.12,0,1.68,0,.73,0,1.46.07,2.17,0,.41,0,.8,0,1.2h0q.06,1.67.18,3.3c0,.74.1,1.48.17,2.22,0,.55.09,1.09.14,1.64.14,1.59.32,3.15.52,4.7.06.49.12,1,.19,1.45.09.7.2,1.39.31,2.08.06.39.11.77.18,1.16s.17,1,.26,1.49c.17,1,.35,1.92.55,2.86a1.7,1.7,0,0,0,0,.22c.08.41.16.81.25,1.22.18.82.37,1.64.56,2.45q1.1,4.54,2.53,8.79c.37,1.09.75,2.17,1.15,3.23q6.93,18.41,19.53,28.32a44,44,0,0,0,4.42,3,4.21,4.21,0,0,0,.64.39,6.73,6.73,0,0,0,.78.44,44.57,44.57,0,0,0,23.16,5.84q16.88-.2,35.33-11.24l14.33-8.53q18.49-11,35.38-31.11a227.71,227.71,0,0,0,29-44.41q4.62-9.17,8.49-18.55a255.06,255.06,0,0,0,11.14-33.22,226.87,226.87,0,0,0,6.43-36.36l.44-48.09.59-429.61.39-30.13A55.27,55.27,0,0,0,1435.83,1515.23Z" fill="url(#b3b7dff5-124b-4f9e-a5f4-f96ced02285d)"/></g><use id="acdcabdf-8a33-4dee-afd5-c3fa06fa1ee0" data-name="User Icon" width="271.49" height="342.37" transform="matrix(-1, 0, 0, 1, 2120.96, 830.71)" xlink:href="#b8b3fdad-6891-45b7-8f2e-2dab3e756ecf"/><use id="b988a1ae-62bc-4cba-946c-288bd182a4ce" data-name="User Icon" width="271.49" height="342.37" transform="matrix(-1, 0, 0, 1, 1867.66, 284.68)" xlink:href="#b8b3fdad-6891-45b7-8f2e-2dab3e756ecf"/><use id="a6a174cb-ecbf-48f7-910b-3263c9c7721d" data-name="User Icon" width="271.49" height="342.37" transform="matrix(-1, 0, 0, 1, 1614.36, 537.95)" xlink:href="#b8b3fdad-6891-45b7-8f2e-2dab3e756ecf"/><g id="f0f6848f-098b-44c4-b4fd-4e4c5beb009e" data-name="+ Blue"><g style="isolation:isolate"><path d="M1424,1696.63l-.29-101.81-20.61-12,.29,101.8c0,2.34.83,4,2.16,4.75l20.61,12C1424.87,1700.61,1424,1699,1424,1696.63Z" fill="url(#aa519944-b0ab-4311-b7a5-04e1dbbec599)"/><path d="M1560.82,1420.67c-1.35-.79-3.22-.68-5.28.51l-88.6,51.15,20.61,12,88.6-51.15c2.06-1.19,3.93-1.3,5.28-.52Z" fill="url(#a79c3034-440f-4208-b475-d20763dea984)"/><path d="M1402.93,1509.29l-88.59,51.15a16.28,16.28,0,0,0-7.39,12.81l.16,56.51c0,2.33.83,4,2.16,4.75l20.61,12c-1.33-.77-2.16-2.42-2.17-4.76l-.16-56.51a16.31,16.31,0,0,1,7.39-12.8l88.6-51.15Z" fill="url(#ffae7682-f1e0-4496-af75-f9bb6e072421)"/><path d="M1479.83,1378.27c4.09-2.37,7.42-.47,7.43,4.23l.29,101.81,88.6-51.15c4.1-2.37,7.43-.47,7.44,4.24l.16,56.51a16.28,16.28,0,0,1-7.39,12.8l-88.6,51.15.29,101.81a16.29,16.29,0,0,1-7.39,12.8l-49.18,28.39c-4.1,2.37-7.43.47-7.44-4.23l-.29-101.81-88.6,51.15c-4.09,2.37-7.42.47-7.44-4.24l-.16-56.51a16.31,16.31,0,0,1,7.39-12.8l88.6-51.15-.29-101.81a16.29,16.29,0,0,1,7.4-12.8Z" fill="#39c2ec"/><path d="M1464.49,1365.77c-1.35-.78-3.21-.67-5.27.52L1410,1394.68a16.31,16.31,0,0,0-7.4,12.81l.29,101.8,20.61,12-.29-101.81a16.29,16.29,0,0,1,7.4-12.8l49.18-28.39c2.05-1.19,3.92-1.3,5.27-.52Z" fill="url(#f99bee9e-342c-4fc8-922d-36be25f6441a)"/></g></g></svg>