<?xml version="1.0" encoding="UTF-8"?><svg xmlns="http://www.w3.org/2000/svg" xmlns:xlink="http://www.w3.org/1999/xlink" viewBox="0 0 2500 2500"><defs><style>.cls-1{fill:url(#linear-gradient-2);}.cls-2{fill:#fff;}.cls-3{fill:#00a7d4;}.cls-4{filter:url(#AI_DesenfoqueGaussiano_4);}.cls-5{fill:url(#linear-gradient-6);}.cls-6{isolation:isolate;}.cls-7{fill:#d4ecf6;}.cls-8{filter:url(#AI_DesenfoqueGaussiano_7);}.cls-9{fill:#52d6ff;}.cls-10{fill:#0071b0;}.cls-10,.cls-11,.cls-12,.cls-13,.cls-14,.cls-15{opacity:.3;}.cls-16{fill:url(#linear-gradient-10);}.cls-17,.cls-14{fill:#141226;}.cls-18{fill:#20bcec;}.cls-19{fill:url(#Degradado_sin_nombre_4-2);}.cls-20{fill:url(#linear-gradient-5);}.cls-21{fill:url(#Nueva_muestra_de_degradado_66-2);}.cls-22{fill:url(#Degradado_sin_nombre_5);}.cls-23{fill:none;}.cls-11{fill:url(#Degradado_sin_nombre_16-3);}.cls-12{fill:url(#Degradado_sin_nombre_16-4);}.cls-24{fill:url(#linear-gradient-7);}.cls-25{fill:#e2e7eb;}.cls-26{fill:url(#Degradado_sin_nombre_4);}.cls-13{fill:url(#Degradado_sin_nombre_16-2);}.cls-27{fill:url(#Degradado_sin_nombre_8);}.cls-28{fill:url(#linear-gradient-9);}.cls-29{fill:url(#linear-gradient-3);}.cls-30{fill:url(#linear-gradient);}.cls-31{fill:#4dd2d2;}.cls-32{fill:url(#Nueva_muestra_de_degradado_66);}.cls-33{fill:#fafbfc;}.cls-34{fill:url(#linear-gradient-4);}.cls-35{fill:url(#linear-gradient-8);}.cls-36{fill:#fcfdfe;}.cls-15{fill:url(#Degradado_sin_nombre_16);}</style><linearGradient id="Degradado_sin_nombre_16" x1="-5.36" y1="3.41" x2="18.71" y2="13.62" gradientUnits="userSpaceOnUse"><stop offset="0" stop-color="#00b080"/><stop offset=".19" stop-color="#07ad95"/><stop offset=".54" stop-color="#13a9bd"/><stop offset=".83" stop-color="#1ba7d5"/><stop offset="1" stop-color="#1da6de"/></linearGradient><linearGradient id="Degradado_sin_nombre_16-2" x1="-13.89" y1="11.74" x2="188.88" y2="97.79" xlink:href="#Degradado_sin_nombre_16"/><symbol id="Rubrik_cluster_front_2" viewBox="0 0 139.16 107.03"><g id="ARTWORK"><g><path class="cls-15" d="M7.15,1.66l-1.76-1.02C2.41-1.07,0,.75,0,4.72S2.41,13.31,5.39,15.03l1.76,1.02c2.98,1.72,5.39-.11,5.39-4.08S10.13,3.38,7.15,1.66Z"/><path class="cls-13" d="M139.16,77.28c-.57-.04-1.14-.2-1.66-.49L32.79,16.33c-2.98-1.72-5.39,.11-5.39,4.08s2.41,8.59,5.39,10.31l105.1,60.68c.4,.23,.83,.38,1.27,.45v-14.56Z"/></g></g></symbol><filter id="AI_DesenfoqueGaussiano_4"><feGaussianBlur stdDeviation="4"/></filter><linearGradient id="linear-gradient" x1="691.06" y1="490.28" x2="732.85" y2="555.68" gradientUnits="userSpaceOnUse"><stop offset="0" stop-color="#d4ecf6"/><stop offset=".8" stop-color="#89d6ef" stop-opacity=".9"/></linearGradient><linearGradient id="linear-gradient-2" x1="-357.37" y1="48.82" x2="636.76" y2="696.94" gradientUnits="userSpaceOnUse"><stop offset="0" stop-color="#fafbfc"/><stop offset=".55" stop-color="#f5f8fa"/><stop offset="1" stop-color="#e5f4fa"/></linearGradient><linearGradient id="linear-gradient-3" x1="812.93" y1="629.09" x2="459.71" y2="72.69" gradientUnits="userSpaceOnUse"><stop offset="0" stop-color="#b7d4f4" stop-opacity="0"/><stop offset="0" stop-color="#b7d4f4" stop-opacity=".02"/><stop offset=".01" stop-color="#b7d4f4" stop-opacity=".14"/><stop offset=".03" stop-color="#b7d4f4" stop-opacity=".24"/><stop offset=".04" stop-color="#b7d4f4" stop-opacity=".31"/><stop offset=".06" stop-color="#b7d4f4" stop-opacity=".36"/><stop offset=".09" stop-color="#b7d4f4" stop-opacity=".39"/><stop offset=".14" stop-color="#b7d4f4" stop-opacity=".4"/><stop offset=".15" stop-color="#bbd6f4" stop-opacity=".42"/><stop offset=".19" stop-color="#cde1f7" stop-opacity=".52"/><stop offset=".23" stop-color="#dceaf9" stop-opacity=".61"/><stop offset=".27" stop-color="#e9f2fb" stop-opacity=".68"/><stop offset=".32" stop-color="#f3f7fd" stop-opacity=".73"/><stop offset=".38" stop-color="#f9fbfe" stop-opacity=".77"/><stop offset=".47" stop-color="#fdfefe" stop-opacity=".79"/><stop offset=".66" stop-color="#fff" stop-opacity=".8"/><stop offset=".95" stop-color="#fff" stop-opacity=".8"/><stop offset="1" stop-color="#fff" stop-opacity=".8"/></linearGradient><linearGradient id="linear-gradient-4" x1="686.87" y1="441.33" x2="865.32" y2="743.46" gradientUnits="userSpaceOnUse"><stop offset=".16" stop-color="#1499c2" stop-opacity="0"/><stop offset=".32" stop-color="#189cce" stop-opacity=".15"/><stop offset=".49" stop-color="#1b9fd8" stop-opacity=".26"/><stop offset=".59" stop-color="#1da1dc" stop-opacity=".3"/><stop offset=".6" stop-color="#1b9fd8" stop-opacity=".26"/><stop offset=".64" stop-color="#189cce" stop-opacity=".14"/><stop offset=".68" stop-color="#159ac7" stop-opacity=".06"/><stop offset=".72" stop-color="#1499c3" stop-opacity=".02"/><stop offset=".77" stop-color="#1499c2" stop-opacity="0"/></linearGradient><symbol id="RubrikCluster" viewBox="0 0 1160 803.4"><g><g id="shadowSVG" class="cls-4"><path class="cls-10" d="M102.74,446.9c-8.09-4.69-8.11-12.4-.04-17.13L505.19,185.47c8.06-4.73,21.31-4.81,29.43-.18l522.58,298.23c8.12,4.63,8.11,12.2-.02,16.82l-414.31,242.83c-8.13,4.62-21.4,4.55-29.49-.14L102.74,446.9Z"/></g><g id="clusterIn"><path class="cls-30" d="M1047,313L554.01,28.38c-4.57-2.64-8.71-2.88-11.69-1.15L90.09,290.04c2.99-1.74,7.13-1.49,11.69,1.15l492.99,284.63c9.08,5.24,16.41,17.94,16.38,28.37l-.32,112.18c-.01,5.18-1.84,8.83-4.79,10.54l452.23-262.8c2.95-1.71,4.78-5.36,4.79-10.54l.32-112.18c.03-10.43-7.3-23.13-16.38-28.37Z"/><g><path class="cls-1" d="M601.72,726.27c-1.92,0-4.12-.69-6.38-1.99L102.36,439.65c-8.51-4.91-15.41-16.86-15.38-26.63l.32-112.18c.02-6.05,2.68-9.66,7.11-9.66,1.92,0,4.12,.69,6.37,1.99l492.99,284.63c8.51,4.91,15.41,16.86,15.38,26.63l-.32,112.18c-.02,6.05-2.68,9.66-7.11,9.66Z"/><path class="cls-33" d="M94.41,293.18h0c1.57,0,3.43,.59,5.37,1.72l492.99,284.63c7.82,4.51,14.4,15.91,14.38,24.89l-.32,112.18c0,2.3-.52,7.66-5.11,7.66-1.57,0-3.43-.59-5.37-1.72L103.36,437.92c-7.82-4.51-14.4-15.91-14.38-24.89l.32-112.18c0-2.3,.52-7.66,5.11-7.66m0-4c-5.38,0-9.09,4.26-9.11,11.65l-.32,112.18c-.03,10.43,7.31,23.13,16.38,28.37l492.99,284.63c2.65,1.53,5.15,2.25,7.37,2.25,5.39,0,9.09-4.27,9.11-11.65l.32-112.19c.03-10.43-7.3-23.13-16.38-28.37L101.78,291.44c-2.65-1.53-5.15-2.25-7.37-2.25h0Z"/><path class="cls-2" d="M94.41,291.18h0c1.92,0,4.12,.69,6.37,1.99l492.99,284.63c8.51,4.91,15.41,16.86,15.38,26.63l-.32,112.19c-.02,6.05-2.68,9.66-7.11,9.66-1.92,0-4.12-.69-6.37-1.99L102.36,439.65c-8.51-4.91-15.41-16.86-15.38-26.63l.32-112.18c.02-6.05,2.68-9.65,7.11-9.65m0-2c-5.38,0-9.09,4.26-9.11,11.65l-.32,112.18c-.03,10.43,7.31,23.13,16.38,28.37l492.99,284.63c2.65,1.53,5.15,2.25,7.37,2.25,5.39,0,9.09-4.27,9.11-11.65l.32-112.19c.03-10.43-7.3-23.13-16.38-28.37L101.78,291.44c-2.65-1.53-5.15-2.25-7.37-2.25h0Z"/></g></g><path class="cls-7" d="M1068.22,288.37L575.23,3.74c-7.59-4.38-14.48-4.78-19.46-1.89L103.54,264.66c4.98-2.89,11.87-2.49,19.46,1.89l492.99,284.63c15.1,8.72,27.34,29.92,27.29,47.26l-.32,112.18c-.02,8.62-3.08,14.69-7.99,17.54l452.23-262.8c4.92-2.86,7.97-8.93,7.99-17.54l.32-112.18c.05-17.34-12.19-38.55-27.29-47.26Z"/><path class="cls-29" d="M1068.22,288.37L575.23,3.74c-7.59-4.38-14.48-4.78-19.46-1.89L103.54,264.66c4.98-2.89,11.87-2.49,19.46,1.89l492.99,284.63c15.1,8.72,27.34,29.92,27.29,47.26l-.32,112.18c-.02,8.62-3.08,14.69-7.99,17.54l452.23-262.8c4.92-2.86,7.97-8.93,7.99-17.54l.32-112.18c.05-17.34-12.19-38.55-27.29-47.26Z"/><path class="cls-34" d="M1068.22,288.37L575.23,3.74c-7.59-4.38-14.48-4.78-19.46-1.89L103.54,264.66c4.98-2.89,11.87-2.49,19.46,1.89l492.99,284.63c15.1,8.72,27.34,29.92,27.29,47.26l-.32,112.18c-.02,8.62-3.08,14.69-7.99,17.54l452.23-262.8c4.92-2.86,7.97-8.93,7.99-17.54l.32-112.18c.05-17.34-12.19-38.55-27.29-47.26Z"/><g><path class="cls-23" d="M627.2,714.87l-.04,.02s.03-.01,.04-.02Z"/><path class="cls-36" d="M616,551.18L126.99,268.85l-3.98-2.3c-15.09-8.71-27.41-1.69-27.46,15.66v4.93s15.71-9.14,15.71-9.14l.96-.56c1.58-.71,5.12-1.49,10.75,1.69l492.99,284.63c9.08,5.24,16.42,17.95,16.39,28.37l-.32,112.19c-.01,5.2-1.86,8.85-4.83,10.56-.01,0-.03,.02-.04,.02l-15.64,9.09,3.98,2.3c15.1,8.72,27.42,1.69,27.47-15.65v-4.93s.32-107.25,.32-107.25c.05-17.34-12.19-38.55-27.29-47.26Z"/></g><g id="Isolation_Mode"><use width="139.16" height="107.03" transform="translate(471.74 587.22)" xlink:href="#Rubrik_cluster_front_2"/></g><polygon class="cls-25" points="123.01 266.55 184.75 301.92 246.42 337.42 369.75 408.43 492.92 479.73 554.5 515.39 616 551.18 554.25 515.81 492.58 480.31 369.25 409.29 246.09 337.99 184.51 302.34 123.01 266.55"/></g></symbol><linearGradient id="Nueva_muestra_de_degradado_66" x1="932.21" y1="963.86" x2="770.54" y2="962.54" gradientUnits="userSpaceOnUse"><stop offset="0" stop-color="#52d6ff" stop-opacity=".1"/><stop offset=".02" stop-color="#44cff9" stop-opacity=".1"/><stop offset=".15" stop-color="#20bcec" stop-opacity=".1"/><stop offset=".87" stop-color="#0071b0" stop-opacity=".3"/></linearGradient><linearGradient id="Nueva_muestra_de_degradado_66-2" x1="639.18" y1="853.84" x2="579.55" y2="1067.19" xlink:href="#Nueva_muestra_de_degradado_66"/><linearGradient id="linear-gradient-5" x1="594.89" y1="880.25" x2="1079.01" y2="1187.69" gradientUnits="userSpaceOnUse"><stop offset="0" stop-color="#52d6ff" stop-opacity="0"/><stop offset=".06" stop-color="#3fccf7" stop-opacity=".04"/><stop offset=".17" stop-color="#27c0ee" stop-opacity=".08"/><stop offset=".29" stop-color="#20bcec" stop-opacity=".1"/><stop offset=".33" stop-color="#1cb4e5" stop-opacity=".15"/><stop offset=".53" stop-color="#0d8fc8" stop-opacity=".39"/><stop offset=".69" stop-color="#0379b6" stop-opacity=".54"/><stop offset=".78" stop-color="#0071b0" stop-opacity=".6"/></linearGradient><linearGradient id="linear-gradient-6" x1="1779.86" y1="1679.29" x2="575.73" y2="1902.94" gradientUnits="userSpaceOnUse"><stop offset="0" stop-color="#0f0b26" stop-opacity="0"/><stop offset="0" stop-color="#0f0b26" stop-opacity="0"/><stop offset=".34" stop-color="#0f0b26" stop-opacity=".1"/><stop offset=".87" stop-color="#0f0b26" stop-opacity=".3"/><stop offset="1" stop-color="#0f0b26" stop-opacity="0"/></linearGradient><filter id="AI_DesenfoqueGaussiano_7"><feGaussianBlur stdDeviation="7"/></filter><linearGradient id="linear-gradient-7" x1="1360.07" y1="1741.94" x2="1401.86" y2="1807.34" xlink:href="#linear-gradient"/><linearGradient id="linear-gradient-8" x1="577.58" y1="1380.69" x2="1276.75" y2="1984.31" xlink:href="#linear-gradient-2"/><linearGradient id="linear-gradient-9" x1="1481.95" y1="1880.49" x2="1128.73" y2="1324.09" gradientUnits="userSpaceOnUse"><stop offset="0" stop-color="#b7d4f4" stop-opacity="0"/><stop offset="0" stop-color="#b7d4f4" stop-opacity=".02"/><stop offset=".01" stop-color="#b7d4f4" stop-opacity=".14"/><stop offset=".03" stop-color="#b7d4f4" stop-opacity=".24"/><stop offset=".04" stop-color="#b7d4f4" stop-opacity=".31"/><stop offset=".06" stop-color="#b7d4f4" stop-opacity=".36"/><stop offset=".09" stop-color="#b7d4f4" stop-opacity=".39"/><stop offset=".14" stop-color="#b7d4f4" stop-opacity=".4"/><stop offset=".17" stop-color="#c7ddf6" stop-opacity=".44"/><stop offset=".22" stop-color="#dbe9f9" stop-opacity=".5"/><stop offset=".28" stop-color="#ebf3fc" stop-opacity=".55"/><stop offset=".35" stop-color="#f6fafd" stop-opacity=".58"/><stop offset=".44" stop-color="#fdfdfe" stop-opacity=".59"/><stop offset=".66" stop-color="#fff" stop-opacity=".6"/><stop offset=".95" stop-color="#fff" stop-opacity=".7"/><stop offset="1" stop-color="#fff" stop-opacity=".5"/></linearGradient><linearGradient id="linear-gradient-10" x1="1347.36" y1="1683.63" x2="1529.35" y2="2003.43" gradientUnits="userSpaceOnUse"><stop offset=".16" stop-color="#1499c2" stop-opacity="0"/><stop offset=".32" stop-color="#189cce" stop-opacity=".15"/><stop offset=".49" stop-color="#1b9fd8" stop-opacity=".26"/><stop offset=".59" stop-color="#1da1dc" stop-opacity=".3"/><stop offset=".6" stop-color="#1b9fd8" stop-opacity=".26"/><stop offset=".64" stop-color="#189cce" stop-opacity=".14"/><stop offset=".68" stop-color="#159ac7" stop-opacity=".06"/><stop offset=".72" stop-color="#1499c3" stop-opacity=".02"/><stop offset=".77" stop-color="#1499c2" stop-opacity="0"/></linearGradient><linearGradient id="Degradado_sin_nombre_16-3" x1="1135.39" y1="1842.03" x2="1159.46" y2="1852.25" xlink:href="#Degradado_sin_nombre_16"/><linearGradient id="Degradado_sin_nombre_16-4" x1="1126.86" y1="1850.36" x2="1329.63" y2="1936.42" xlink:href="#Degradado_sin_nombre_16"/><linearGradient id="Degradado_sin_nombre_8" x1="1746.32" y1="1325.54" x2="1728.06" y2="1537.57" gradientUnits="userSpaceOnUse"><stop offset="0" stop-color="#12abbb"/><stop offset=".22" stop-color="#0c9fb2"/><stop offset=".67" stop-color="#038ea5"/><stop offset="1" stop-color="#0088a1"/></linearGradient><linearGradient id="Degradado_sin_nombre_5" x1="1782.1" y1="1224.47" x2="1894.89" y2="1154.98" gradientUnits="userSpaceOnUse"><stop offset="0" stop-color="#12abbb"/><stop offset=".31" stop-color="#0999ae"/><stop offset=".67" stop-color="#028ca4"/><stop offset="1" stop-color="#0088a1"/></linearGradient><linearGradient id="Degradado_sin_nombre_4" x1="1605.95" y1="1433.81" x2="1704.31" y2="1233.86" gradientUnits="userSpaceOnUse"><stop offset="0" stop-color="#12abbb"/><stop offset=".31" stop-color="#11a9b9"/><stop offset=".41" stop-color="#0da2b4"/><stop offset=".49" stop-color="#0796ab"/><stop offset=".55" stop-color="#0088a1"/><stop offset=".98" stop-color="#0088a1"/><stop offset="1" stop-color="#0088a1"/></linearGradient><linearGradient id="Degradado_sin_nombre_4-2" x1="1733.87" y1="1190.09" x2="1803.1" y2="1060.82" xlink:href="#Degradado_sin_nombre_4"/></defs><g id="Clusters"><g id="Plant"><g><path class="cls-18" d="M819.78,1355.9c-67.81,9.33-174.51-137.82-159.9-272.1,1.9-17.43,4.06-32.65,17.67-66.26,39.05-96.41,82.97-244.47,222.63-375.46,32.48-30.47,118.99-91.6,169.62-63.61,51.48,28.46,40.41,136.78,35.34,186.4-15.3,149.7-78.55,187.24-195.24,441.72-49.43,107.81-58.18,144.91-90.11,149.3Z"/><path class="cls-3" d="M1001.09,692.77l-10.48,16.36-10.42,16.39c-6.96,10.91-13.82,21.88-20.63,32.88-6.86,10.97-13.64,21.98-20.33,33.04l-9.98,16.62c-3.34,5.53-6.65,11.08-9.94,16.64-13.19,22.22-25.9,44.7-38.39,67.27-3.11,5.65-6.18,11.32-9.24,17-3.05,5.68-6.1,11.35-9.09,17.06-6,11.4-11.85,22.88-17.6,34.39-5.73,11.52-11.3,23.12-16.67,34.79-5.4,11.66-10.64,23.38-15.58,35.21-9.87,23.65-18.95,47.6-26.16,71.98-3.64,12.17-6.81,24.45-9.29,36.79-2.53,12.34-4.14,24.76-5.2,37.08-.6,6.18-.81,12.31-1.02,18.47,0,6.13,.05,12.28,.61,18.38,.08,1.55,.32,3.04,.47,4.58l.26,2.3c.09,.77,.23,1.52,.35,2.28,.25,1.52,.46,3.06,.76,4.58l.96,4.56c1.43,6.08,3.35,12.11,5.76,18.3l-.81,.58c-5.06-4.4-9.28-9.82-12.8-15.7l-2.47-4.52c-.77-1.54-1.41-3.11-2.13-4.69-.33-.79-.73-1.57-1.02-2.38l-.86-2.42-.86-2.43c-.29-.81-.58-1.63-.79-2.46l-1.35-4.97c-.46-1.66-.75-3.34-1.09-5.02-.74-3.36-1.14-6.74-1.59-10.14-.69-6.77-1.04-13.59-.78-20.34,.14-6.77,.83-13.45,1.69-20.1,.51-3.3,1-6.61,1.57-9.9,.63-3.27,1.16-6.57,1.88-9.81,2.69-13.02,6.07-25.82,9.9-38.42,3.86-12.6,8.21-25,12.86-37.26,4.65-12.26,9.64-24.36,14.91-36.31,5.26-11.96,10.79-23.79,16.49-35.51,5.74-11.71,11.67-23.31,17.74-34.82,24.41-46,51.36-90.47,79.89-133.81,28.54-43.34,58.6-85.63,90.44-126.52Z"/><path class="cls-32" d="M819.78,1355.9c-67.81,9.33-174.51-137.82-159.9-272.1,1.9-17.43,4.06-32.65,17.67-66.26,39.05-96.41,82.97-244.47,222.63-375.46,32.48-30.47,118.99-91.6,169.62-63.61,51.48,28.46,40.41,136.78,35.34,186.4-15.3,149.7-78.55,187.24-195.24,441.72-49.43,107.81-58.18,144.91-90.11,149.3Z"/></g><path class="cls-9" d="M804.96,1434.85c-25.3,15.17-178.85-179.03-299.48-394.9-88.01-157.49-107.1-234.52-114.85-295.95-6.53-51.8-26.42-186.25,48.59-295.07,19.18-27.83,47.07-55.23,86.58-66.26,96.22-26.86,197.04,96.33,207.61,109.55,68.79,86.09,76.65,181.77,83.93,270.33,10.43,126.95-9.41,250.44-22.97,334.82-10.44,64.96-20.14,103.51-16.79,168.74,5.55,107.83,40.25,161.03,27.39,168.74Z"/><path class="cls-3" d="M534.63,513.43c5.14,45.16,11.51,90.12,19.49,134.76,7.89,44.65,17.25,89,28.13,132.94,5.4,21.98,11.12,43.86,17.3,65.62,6.16,21.76,12.76,43.38,19.6,64.91,13.68,43.06,29.04,85.55,45.96,127.34,16.93,41.78,35.35,82.92,55.79,122.96,20.42,40.04,42.8,79,67.39,116.3,12.34,18.62,25.32,36.76,38.97,54.28,6.79,8.79,13.85,17.33,21,25.77l5.46,6.24,2.73,3.12,2.79,3.05,5.57,6.11,5.69,5.97,2.85,2.98,2.91,2.91,5.82,5.82,5.94,5.65c.99,.94,1.97,1.9,2.98,2.82l3.04,2.74c8.06,7.36,16.39,14.29,24.6,21.3,8.23,7.02,16.55,13.83,24.98,20.59,2.1,1.7,4.21,3.42,6.35,5.06,2.16,1.62,4.22,3.47,6.41,5.06l3.24,2.52c1.08,.85,2.14,1.76,3.24,2.57,2.19,1.66,4.38,3.37,6.53,5.22l-7.26,16.74c-3-.52-5.97-1.19-8.94-1.91-2.95-.75-5.81-1.7-8.71-2.63-1.46-.44-2.88-.97-4.28-1.52-1.41-.54-2.82-1.09-4.22-1.66-1.4-.58-2.82-1.12-4.2-1.73l-4.08-1.93c-2.73-1.27-5.44-2.62-8.06-4.07-2.63-1.44-5.28-2.88-7.84-4.43-2.54-1.57-5.07-3.17-7.59-4.8-1.28-.79-2.47-1.67-3.7-2.53-1.22-.85-2.44-1.72-3.65-2.59-1.21-.87-2.44-1.73-3.62-2.63l-3.51-2.75c-2.31-1.86-4.69-3.67-6.91-5.62-2.24-1.94-4.47-3.89-6.68-5.86-2.21-1.97-4.33-4.02-6.49-6.03l-3.23-3.03c-1.07-1.02-2.1-2.06-3.15-3.09l-6.28-6.21-6.11-6.34-3.05-3.17-2.98-3.23-5.94-6.47-5.79-6.58-2.89-3.29-2.82-3.34-5.63-6.69c-7.37-9.02-14.61-18.13-21.53-27.44-13.89-18.6-26.91-37.75-39.24-57.27-24.64-39.06-46.37-79.69-66.1-121.13-9.86-20.73-19.19-41.68-28.06-62.81-8.87-21.13-17.28-42.43-25.1-63.94-15.69-43-29.72-86.54-42.03-130.53-12.25-44.01-22.79-88.45-31.77-133.16-17.76-89.46-29.26-180.06-33.28-270.89Z"/><path class="cls-21" d="M804.96,1434.85c-25.3,15.17-178.85-179.03-299.48-394.9-88.01-157.49-107.1-234.52-114.85-295.95-6.53-51.8-26.42-186.25,48.59-295.07,19.18-27.83,47.07-55.23,86.58-66.26,96.22-26.86,197.04,96.33,207.61,109.55,68.79,86.09,76.65,181.77,83.93,270.33,10.43,126.95-9.41,250.44-22.97,334.82-10.44,64.96-20.14,103.51-16.79,168.74,5.55,107.83,40.25,161.03,27.39,168.74Z"/><g><path class="cls-18" d="M888.13,1623.69c-26.8,41.57-199.52-62.39-323.27-204.21-74.65-85.56-107.95-157.91-124.8-226.51-11.6-47.19-27.37-111.4-1.53-169.22,27.22-60.91,88.77-88.2,139.71-79.78,85.68,14.15,132.36,127.81,143.38,154.63,44.44,108.2,25.23,159.68,61.74,248.91,20.84,50.94,34.44,67.31,66.18,138.72,27.73,62.37,51.92,116.8,38.59,137.47Z"/><path class="cls-3" d="M554.68,1096.43c21.17,51.61,45.12,101.94,72.94,149.98,13.79,24.08,28.53,47.57,44.3,70.32,1.98,2.84,3.89,5.72,5.93,8.52l6.05,8.42c2.03,2.79,4,5.64,6.09,8.39l6.25,8.27c2.1,2.74,4.14,5.53,6.28,8.24l6.46,8.1c2.16,2.7,4.27,5.43,6.46,8.09l6.65,7.93c35.52,42.19,75.27,80.8,119.74,112.87,22.17,16.09,45.53,30.47,69.86,42.88l9.18,4.54c3.07,1.49,6.09,3.09,9.24,4.4l9.37,4.12,4.68,2.06,2.34,1.03,2.38,.93,9.54,3.68,4.77,1.84c1.6,.59,3.16,1.29,4.79,1.79,1.61,.56,3.25,1.02,4.82,1.69,1.57,.68,3.06,1.6,4.46,2.78,1.41,1.17,2.73,2.64,3.96,4.44,1.22,1.84,2.38,3.89,3.28,6.84l-.3,.96c-2.4,1.85-4.54,2.79-6.63,3.51-2.07,.69-4.06,1.05-5.95,1.11-1.89,.07-3.71-.12-5.44-.55-1.73-.44-3.39-1.08-5.08-1.63-1.7-.53-3.33-1.26-4.99-1.88l-4.97-1.94-9.94-3.89-2.48-.98-2.44-1.08-4.88-2.17-9.75-4.34c-3.28-1.38-6.42-3.05-9.61-4.62l-9.54-4.77c-25.26-13.06-49.32-28.32-72.1-45.17-45.5-33.87-85.68-74.27-120.68-118.36l-6.56-8.27c-2.16-2.78-4.24-5.62-6.36-8.42l-6.31-8.45c-2.09-2.82-4.08-5.73-6.12-8.59l-6.09-8.61c-2.04-2.86-3.94-5.82-5.91-8.72l-5.87-8.75c-1.98-2.9-3.78-5.92-5.68-8.87-15.06-23.7-29.02-48.06-41.95-72.9-25.59-49.84-47.27-101.58-64.2-154.75Z"/></g><path class="cls-20" d="M1069.79,578.47c-50.63-28-137.14,33.14-169.62,63.61-33.36,31.29-61.24,63.55-84.91,95.85-7.17-81.47-19.4-167.53-81.85-245.7-10.56-13.22-111.39-136.4-207.61-109.55-39.51,11.03-67.39,38.43-86.58,66.26-75.01,108.82-55.12,243.26-48.59,295.07,6.64,52.68,21.63,116.83,81.26,233.34-13.47,12.28-25.03,27.76-33.36,46.39-25.84,57.82-10.07,122.03,1.53,169.22,16.85,68.6,50.15,140.95,124.8,226.51,123.75,141.82,296.46,245.78,323.27,204.21,13.33-20.67-10.87-75.1-38.59-137.47-26.21-58.96-40.05-80.41-55.81-114.77-1.63-6.38-3.28-13.25-4.88-20.63,10.79,4.55,21.26,6.41,30.94,5.08,31.93-4.4,40.68-41.49,90.11-149.3,116.69-254.48,179.94-292.02,195.24-441.72,5.07-49.62,16.14-157.94-35.34-186.4Z"/></g><path id="_shadowClusters_" class="cls-5" d="M1292.37,1986.3h826.26v-569.71h-916.12l64.35,547.02c1.52,12.94,12.49,22.69,25.51,22.69Z"/><g id="RubrikClusterLogo"><g><g id="shadowSVG-2" class="cls-8"><path class="cls-14" d="M762.07,1686.61c-8.09-4.69-8.11-12.4-.04-17.13l424.81-249.29c8.06-4.73,21.31-4.81,29.43-.18l520.91,295.33c8.12,4.63,8.11,12.2-.02,16.82l-434.96,250.72c-8.13,4.62-21.4,4.55-29.49-.14l-510.64-296.13Z"/></g><path class="cls-17" d="M1736.78,1702.3l-492.99-284.63c-9.07-5.24-16.41-17.94-16.38-28.37l.32-112.19c.01-5.18,1.84-8.82,4.79-10.54l-452.23,262.81c-2.95,1.71-4.78,5.36-4.79,10.54l-.32,112.19c-.03,10.42,7.31,23.13,16.38,28.37l492.99,284.63c4.57,2.64,8.71,2.88,11.7,1.15l452.23-262.81c-2.99,1.74-7.13,1.49-11.7-1.15Z"/><g id="clusterIn-2"><path class="cls-24" d="M1716.01,1564.66l-492.99-284.63c-4.57-2.64-8.71-2.88-11.69-1.15l-452.23,262.8c2.99-1.74,7.13-1.49,11.69,1.15l492.99,284.63c9.08,5.24,16.41,17.94,16.38,28.37l-.32,112.18c-.01,5.18-1.84,8.83-4.79,10.54l452.23-262.8c2.95-1.71,4.78-5.36,4.79-10.54l.32-112.18c.03-10.43-7.3-23.13-16.38-28.37Z"/><g><path class="cls-35" d="M1270.74,1977.67c-1.92,0-4.12-.69-6.37-1.99l-492.99-284.63c-8.51-4.91-15.41-16.86-15.38-26.63l.32-112.19c.02-6.05,2.68-9.65,7.11-9.65,1.92,0,4.12,.69,6.37,1.99l492.99,284.63c8.51,4.91,15.41,16.86,15.38,26.63l-.32,112.18c-.02,6.05-2.68,9.66-7.11,9.66Z"/><path class="cls-33" d="M763.42,1544.58h0c1.57,0,3.43,.59,5.37,1.72l492.99,284.63c7.82,4.51,14.4,15.91,14.38,24.89l-.32,112.18c0,2.3-.52,7.66-5.11,7.66-1.57,0-3.43-.59-5.37-1.72l-492.99-284.63c-7.82-4.51-14.4-15.91-14.38-24.89l.32-112.19c0-2.3,.52-7.66,5.11-7.66m0-4c-5.38,0-9.09,4.26-9.11,11.65l-.32,112.19c-.03,10.43,7.31,23.13,16.38,28.37l492.99,284.63c2.65,1.53,5.15,2.25,7.37,2.25,5.39,0,9.09-4.27,9.11-11.65l.32-112.18c.03-10.43-7.3-23.13-16.38-28.37l-492.99-284.63c-2.65-1.53-5.15-2.25-7.37-2.25h0Z"/><path class="cls-2" d="M763.42,1542.58h0c1.92,0,4.12,.69,6.37,1.99l492.99,284.63c8.51,4.91,15.41,16.86,15.38,26.63l-.32,112.18c-.02,6.05-2.68,9.66-7.11,9.66-1.92,0-4.12-.69-6.37-1.99l-492.99-284.63c-8.51-4.91-15.41-16.86-15.38-26.63l.32-112.19c.02-6.05,2.68-9.65,7.11-9.65m0-2c-5.38,0-9.09,4.26-9.11,11.65l-.32,112.19c-.03,10.43,7.31,23.13,16.38,28.37l492.99,284.63c2.65,1.53,5.15,2.25,7.37,2.25,5.39,0,9.09-4.27,9.11-11.65l.32-112.18c.03-10.43-7.3-23.13-16.38-28.37l-492.99-284.63c-2.65-1.53-5.15-2.25-7.37-2.25h0Z"/></g></g><path class="cls-7" d="M1737.24,1539.77l-492.99-284.63c-7.59-4.38-14.48-4.78-19.46-1.89l-452.23,262.8c4.98-2.89,11.87-2.49,19.46,1.89l492.99,284.63c15.1,8.72,27.34,29.92,27.29,47.26l-.32,112.18c-.02,8.62-3.08,14.69-7.99,17.54l452.23-262.8c4.92-2.86,7.97-8.93,7.99-17.54l.32-112.18c.05-17.34-12.19-38.55-27.29-47.26Z"/><path class="cls-28" d="M1737.24,1539.77l-492.99-284.63c-7.59-4.38-14.48-4.78-19.46-1.89l-452.23,262.8c4.98-2.89,11.87-2.49,19.46,1.89l492.99,284.63c15.1,8.72,27.34,29.92,27.29,47.26l-.32,112.18c-.02,8.62-3.08,14.69-7.99,17.54l452.23-262.8c4.92-2.86,7.97-8.93,7.99-17.54l.32-112.18c.05-17.34-12.19-38.55-27.29-47.26Z"/><path class="cls-16" d="M1737.24,1539.77l-492.99-284.63c-7.59-4.38-14.48-4.78-19.46-1.89l-452.23,262.8c4.98-2.89,11.87-2.49,19.46,1.89l492.99,284.63c15.1,8.72,27.34,29.92,27.29,47.26l-.32,112.18c-.02,8.62-3.08,14.69-7.99,17.54l452.23-262.8c4.92-2.86,7.97-8.93,7.99-17.54l.32-112.18c.05-17.34-12.19-38.55-27.29-47.26Z"/><g><path class="cls-23" d="M1296.21,1966.27l-.04,.02s.03-.01,.04-.02Z"/><path class="cls-36" d="M1285.01,1802.58l-489.01-282.33-3.98-2.3c-15.09-8.71-27.41-1.69-27.46,15.66v4.93s15.71-9.14,15.71-9.14l.96-.56c1.58-.71,5.12-1.49,10.75,1.69l492.99,284.63c9.08,5.24,16.42,17.95,16.39,28.37l-.32,112.19c-.01,5.2-1.86,8.85-4.83,10.56-.01,0-.03,.02-.04,.02l-15.64,9.09,3.98,2.3c15.1,8.72,27.42,1.69,27.47-15.65v-4.93s.32-107.25,.32-107.25c.05-17.34-12.19-38.55-27.29-47.26Z"/></g><g id="Isolation_Mode-2"><g id="ARTWORK-2"><g><path class="cls-11" d="M1147.9,1840.29l-1.76-1.02c-2.98-1.72-5.39,.11-5.39,4.08s2.41,8.59,5.39,10.31l1.76,1.02c2.98,1.72,5.39-.11,5.39-4.08s-2.41-8.59-5.39-10.31Z"/><path class="cls-12" d="M1279.91,1915.9c-.57-.04-1.14-.2-1.66-.49l-104.71-60.46c-2.98-1.72-5.39,.11-5.39,4.08s2.41,8.59,5.39,10.31l105.1,60.68c.4,.23,.83,.38,1.27,.45v-14.56Z"/></g></g></g><g id="RubrikCluster-2"><polygon class="cls-25" points="791.93 1517.01 853.67 1552.38 915.34 1587.88 1038.67 1658.89 1161.84 1730.19 1223.42 1765.85 1284.92 1801.64 1223.17 1766.27 1161.5 1730.77 1038.17 1659.75 915.01 1588.45 853.43 1552.8 791.93 1517.01"/></g></g></g><use width="1160" height="803.4" transform="translate(669.01 1049.98)" xlink:href="#RubrikCluster"/><use width="1160" height="803.4" transform="translate(669.01 848.56)" xlink:href="#RubrikCluster"/></g><g id="PlusTeal"><g id="_Teal"><g class="cls-6"><path class="cls-27" d="M1751.42,1461.74l-.35-121.86-24.67-14.34,.35,121.86c0,2.8,1,4.76,2.59,5.69l24.67,14.34c-1.59-.93-2.58-2.89-2.59-5.69Z"/><path class="cls-22" d="M1915.15,1131.42c-1.61-.94-3.85-.81-6.32,.62l-106.05,61.23,24.67,14.34,106.05-61.23c2.47-1.42,4.7-1.56,6.32-.62l-24.67-14.34Z"/><path class="cls-26" d="M1726.16,1237.51l-106.05,61.23c-4.9,2.83-8.86,9.69-8.85,15.33l.19,67.64c0,2.8,1,4.77,2.59,5.69l24.67,14.34c-1.59-.93-2.58-2.9-2.59-5.69l-.19-67.64c-.02-5.63,3.94-12.5,8.85-15.33l106.05-61.23-24.67-14.34Z"/><path class="cls-31" d="M1818.2,1080.67c4.9-2.83,8.89-.56,8.9,5.07l.35,121.86,106.05-61.23c4.9-2.83,8.89-.56,8.91,5.08l.19,67.64c.02,5.63-3.95,12.49-8.85,15.33l-106.05,61.23,.35,121.86c.02,5.63-3.95,12.49-8.85,15.32l-58.87,33.99c-4.9,2.83-8.89,.56-8.91-5.07l-.35-121.86-106.05,61.23c-4.9,2.83-8.89,.55-8.9-5.07l-.19-67.64c-.02-5.63,3.94-12.5,8.85-15.33l106.05-61.23-.35-121.86c-.02-5.63,3.95-12.49,8.85-15.33l58.87-33.99Z"/><path class="cls-19" d="M1799.84,1065.72c-1.61-.94-3.85-.81-6.31,.62l-58.87,33.99c-4.9,2.83-8.87,9.69-8.85,15.33l.35,121.86,24.67,14.34-.35-121.86c-.02-5.63,3.95-12.49,8.85-15.33l58.87-33.99c2.46-1.42,4.7-1.56,6.31-.62l-24.67-14.34Z"/></g></g></g></svg>