<?xml version="1.0" encoding="UTF-8"?><svg xmlns="http://www.w3.org/2000/svg" xmlns:xlink="http://www.w3.org/1999/xlink" viewBox="0 0 2500 2500"><defs><style>.cls-1{fill:#90aac1;}.cls-1,.cls-2,.cls-3,.cls-4,.cls-5,.cls-6,.cls-7,.cls-8,.cls-9,.cls-10,.cls-11,.cls-12,.cls-13,.cls-14,.cls-15,.cls-16,.cls-17,.cls-18,.cls-19,.cls-20,.cls-21,.cls-22,.cls-23,.cls-24,.cls-25,.cls-26,.cls-27{stroke-width:0px;}.cls-1,.cls-28,.cls-29,.cls-30{opacity:.3;}.cls-2{fill:url(#linear-gradient-12);}.cls-3{fill:#141226;}.cls-4{fill:#60cff1;}.cls-5{fill:#90e5ff;}.cls-6{fill:url(#linear-gradient);}.cls-7{fill:url(#linear-gradient-6);}.cls-31,.cls-28,.cls-32,.cls-33,.cls-34,.cls-35,.cls-36,.cls-37,.cls-38,.cls-30{fill:none;}.cls-31,.cls-33,.cls-37{stroke-width:2.67px;}.cls-31,.cls-37{stroke:#e7f6fb;stroke-miterlimit:10;}.cls-39{isolation:isolate;}.cls-8{fill:url(#Degradado_sin_nombre_4-2);}.cls-9{fill:#20bcec;}.cls-10{fill:url(#linear-gradient-11);}.cls-28,.cls-33,.cls-35,.cls-36,.cls-38{stroke:#3c81a3;}.cls-28,.cls-38{stroke-width:5.33px;}.cls-11{fill:url(#linear-gradient-5);}.cls-12{fill:#fafbfc;}.cls-13{fill:#e7f6fb;}.cls-14{fill:#00a7d4;}.cls-32{stroke-width:106.64px;}.cls-32,.cls-40,.cls-36,.cls-37{opacity:.15;}.cls-32,.cls-34,.cls-30{stroke:#aec1d2;}.cls-41{filter:url(#AI_DesenfoqueGaussiano_7-4);}.cls-15{fill:#fff;}.cls-16{fill:url(#Degradado_sin_nombre_4);}.cls-42{filter:url(#AI_DesenfoqueGaussiano_7-2);}.cls-34{stroke-width:18.66px;}.cls-17{fill:url(#linear-gradient-2);}.cls-18{fill:url(#linear-gradient-7);}.cls-35,.cls-36{stroke-width:9.33px;}.cls-19{fill:url(#linear-gradient-3);}.cls-20{fill:url(#linear-gradient-9);}.cls-43{filter:url(#AI_DesenfoqueGaussiano_7);opacity:.2;}.cls-21{fill:#4dd2d2;}.cls-22{fill:url(#linear-gradient-8);}.cls-44{mask:url(#mask);}.cls-23{fill:url(#linear-gradient-10);}.cls-45{filter:url(#AI_DesenfoqueGaussiano_7-3);}.cls-24{fill:url(#Degradado_sin_nombre_5);}.cls-30{stroke-width:66.65px;}.cls-25{fill:url(#linear-gradient-4);}.cls-26{fill:url(#Degradado_sin_nombre_6);}.cls-27{fill:#52d6ff;}</style><linearGradient id="linear-gradient" x1="433.59" y1="773.33" x2="967.03" y2="961.79" gradientUnits="userSpaceOnUse"><stop offset="0" stop-color="#52d6ff" stop-opacity="0"/><stop offset=".82" stop-color="#0375b3" stop-opacity=".57"/><stop offset=".86" stop-color="#0071b0" stop-opacity=".6"/></linearGradient><filter id="AI_DesenfoqueGaussiano_7"><feGaussianBlur stdDeviation="7"/></filter><filter id="AI_DesenfoqueGaussiano_7-2"><feGaussianBlur stdDeviation="7"/></filter><linearGradient id="linear-gradient-2" x1="1432.8" y1="2221.96" x2="1640.05" y2="1929.93" gradientUnits="userSpaceOnUse"><stop offset="0" stop-color="#141226" stop-opacity=".3"/><stop offset="1" stop-color="#141226" stop-opacity="0"/></linearGradient><linearGradient id="linear-gradient-3" x1="1526.87" y1="1311.16" x2="1738.22" y2="1695.91" gradientUnits="userSpaceOnUse"><stop offset="0" stop-color="#bae4f4"/><stop offset=".25" stop-color="#bae4f4"/><stop offset=".27" stop-color="#bbe4f4"/><stop offset=".44" stop-color="#bee4f6"/><stop offset=".58" stop-color="#afd8f4"/><stop offset=".99" stop-color="#b5dff3"/></linearGradient><linearGradient id="linear-gradient-4" x1="1468.25" y1="1168.89" x2="1051.75" y2="1862.06" gradientUnits="userSpaceOnUse"><stop offset="0" stop-color="#fafbfc"/><stop offset=".85" stop-color="#f5f8fa"/><stop offset=".9" stop-color="#e9f5fa"/><stop offset=".96" stop-color="#e5f4fa"/><stop offset="1" stop-color="#d4ecf6" stop-opacity=".9"/></linearGradient><linearGradient id="linear-gradient-5" x1="597.51" y1="1111.12" x2="1965.25" y2="1111.12" gradientUnits="userSpaceOnUse"><stop offset="0" stop-color="#000"/><stop offset=".15" stop-color="#fff"/><stop offset=".9" stop-color="#fff"/><stop offset="1" stop-color="#000"/></linearGradient><mask id="mask" x="432.85" y="498.79" width="1676" height="1170" maskUnits="userSpaceOnUse"><rect class="cls-11" x="600.99" y="575.56" width="1382.01" height="1071.13"/></mask><filter id="AI_DesenfoqueGaussiano_7-3"><feGaussianBlur stdDeviation="7"/></filter><linearGradient id="linear-gradient-6" x1="1309.12" y1="959.26" x2="1116.2" y2="1472.46" gradientUnits="userSpaceOnUse"><stop offset="0" stop-color="#fafbfc"/><stop offset=".55" stop-color="#f5f8fa"/><stop offset=".99" stop-color="#e5f4fa"/></linearGradient><filter id="AI_DesenfoqueGaussiano_7-4"><feGaussianBlur stdDeviation="7"/></filter><linearGradient id="linear-gradient-7" x1="1571.52" y1="1972.9" x2="1083.21" y2="1247.46" xlink:href="#linear-gradient-2"/><linearGradient id="linear-gradient-8" x1="1213.49" y1="1427.73" x2="1258.24" y2="1558.83" gradientUnits="userSpaceOnUse"><stop offset="0" stop-color="#60cff1"/><stop offset="1" stop-color="#4cc1e6" stop-opacity=".9"/></linearGradient><linearGradient id="linear-gradient-9" x1="1201.21" y1="1238.03" x2="1217.11" y2="1840.36" gradientTransform="translate(909.97 -408.3) rotate(30.36)" gradientUnits="userSpaceOnUse"><stop offset="0" stop-color="#a3e3f7"/><stop offset="1" stop-color="#60cff1"/></linearGradient><linearGradient id="linear-gradient-10" x1="1230.52" y1="1464" x2="1269.38" y2="1455.17" gradientTransform="matrix(1,0,0,1,0,0)" xlink:href="#linear-gradient-9"/><linearGradient id="linear-gradient-11" x1="1230.52" y1="1464" x2="1269.38" y2="1455.17" gradientTransform="matrix(1,0,0,1,0,0)" xlink:href="#linear-gradient-9"/><linearGradient id="linear-gradient-12" x1="1175.84" y1="1330.25" x2="1208.81" y2="1575.18" gradientUnits="userSpaceOnUse"><stop offset="0" stop-color="#d6f6ff"/><stop offset="1" stop-color="#90e5ff"/></linearGradient><linearGradient id="Degradado_sin_nombre_6" x1="1819.71" y1="1842.31" x2="1795.38" y2="2124.92" gradientTransform="translate(3846.57) rotate(-180) scale(1 -1)" gradientUnits="userSpaceOnUse"><stop offset="0" stop-color="#12abbb"/><stop offset=".22" stop-color="#0c9fb2"/><stop offset=".67" stop-color="#038ea5"/><stop offset="1" stop-color="#0088a1"/></linearGradient><linearGradient id="Degradado_sin_nombre_5" x1="1867.41" y1="1707.59" x2="2017.75" y2="1614.95" gradientTransform="translate(3846.57) rotate(-180) scale(1 -1)" gradientUnits="userSpaceOnUse"><stop offset="0" stop-color="#12abbb"/><stop offset=".31" stop-color="#0999ae"/><stop offset=".67" stop-color="#028ca4"/><stop offset="1" stop-color="#0088a1"/></linearGradient><linearGradient id="Degradado_sin_nombre_4" x1="1632.62" y1="1986.63" x2="1763.72" y2="1720.1" gradientTransform="translate(3846.57) rotate(-180) scale(1 -1)" gradientUnits="userSpaceOnUse"><stop offset="0" stop-color="#12abbb"/><stop offset=".31" stop-color="#11a9b9"/><stop offset=".41" stop-color="#0da2b4"/><stop offset=".49" stop-color="#0796ab"/><stop offset=".55" stop-color="#0088a1"/><stop offset=".98" stop-color="#0088a1"/><stop offset="1" stop-color="#0088a1"/></linearGradient><linearGradient id="Degradado_sin_nombre_4-2" x1="1803.12" y1="1661.76" x2="1895.4" y2="1489.45" xlink:href="#Degradado_sin_nombre_4"/></defs><g id="Plant"><path class="cls-9" d="m375.17,1099.78c-58.69,25.28-108.12,77.48-118.31,140.56-14.11,87.31,51.22,173.25,133.24,206.34,82.02,33.09,175.29,23.23,260.56-.21,110.33-30.33,310.79-142.43,170.07-260.42-108-90.56-313.56-143.11-445.55-86.27Z"/><path class="cls-14" d="m362.79,1310.81c109.71-53.73,235.45-77.11,359.57-65.54l-3.42,26.44c-118.03-19.76-242.82-6.51-356.15,39.1,0,0,113.33-45.62,0,0Z"/><path class="cls-27" d="m781.83,1288.15c-170.39-31.9-303.3-153.58-461.04-226.45-48.74-22.51-101.94-44.64-138.38-87.08-36.44-42.44-53.3-109.43-18.07-157.73,23.74-32.54,60.19-47.86,101.33-48.76,41.14-.9,72.77,7.17,115.07,24.87,221.7,92.76,301.83,292.02,401.08,495.14Z"/><path class="cls-14" d="m228.83,842.47c207.88,58.82,412.63,212.07,504.13,410.91,0,0-24.62,10.22-24.62,10.22-9.86-24.97-21.94-49.21-35.64-72.6-99.12-164.18-262.07-288.6-443.87-348.54h0Z"/><path class="cls-5" d="m333.2,502.95c-6.75-80.97-4.33-165.07,23.94-238.21,28.27-73.14,86.52-133.41,155.47-139.24,96.91-8.19,179.7,87.36,231.64,185.53,87.64,165.66,239.7,754.24,19.83,857.16-244.56,114.47-415.69-483.04-430.88-665.23Z"/><path class="cls-14" d="m506.46,246.25c6.41,303.62,99.14,598.8,232.84,869.41,0,0-24.12,11.37-24.12,11.37-126.38-275.89-211.22-575.59-208.73-880.78h0Z"/><path class="cls-6" d="m820.72,1186.04c-11.73-9.83-24.61-19.22-38.42-28.06,192.86-126.59,47.05-686.12-38.05-846.96-51.93-98.16-134.73-193.72-231.64-185.53-68.95,5.83-127.2,66.1-155.47,139.24-28.27,73.14-30.69,157.24-23.94,238.21,5.39,64.71,30.46,181.8,71.5,300.77-7.8-3.71-15.77-7.29-23.95-10.72-42.3-17.7-73.93-25.76-115.07-24.87-41.14.9-77.59,16.21-101.33,48.76-35.23,48.3-18.37,115.29,18.07,157.73,36.44,42.44,89.64,64.57,138.38,87.08,22.36,10.33,44.21,21.64,65.75,33.53-3.85,1.43-7.64,2.94-11.38,4.55-58.69,25.28-108.12,77.48-118.31,140.56-14.11,87.31,51.22,173.25,133.24,206.34,82.02,33.09,175.29,23.23,260.56-.21,110.33-30.33,310.79-142.43,170.07-260.42Z"/></g><g id="Email"><g class="cls-43"><path class="cls-3" d="m666.5,1630.03c-16.36,6.47-17.28,18.96-2.05,27.75l1224.96,708.51c15.24,8.8,40.06,9.39,55.16,1.31,15.1-8.08,14.99-21.88-.25-30.68l-1217.08-703.96c-15.24-8.8-41.09-10.7-57.46-4.24l-3.29,1.3Z"/></g><g class="cls-42"><path class="cls-17" d="m1985.62,2382.07l371.14-35.15-1256.52-705.58-318.41,71.01,1135.74,652.18c20.84,11.5,44.25,17.54,68.05,17.54Z"/></g><path class="cls-19" d="m1915.24,1223.17L772.22,563.25c-28.63-16.53-54.59-16.32-73.61-2.65l-37.5,21.15,111.98,155.62,1158.14,1609.55,52.49-27.93c.47-.26.93-.53,1.39-.8l.48-.28h0c21.64-13.3,35.27-42.93,35.27-84.67v-808.28c0-77.77-47.28-168.11-105.61-201.79Z"/><path class="cls-25" d="m1902.25,2352.45c-12.78,0-26.44-4.14-40.59-12.32l-1143.02-659.92c-57.5-33.2-104.28-122.68-104.28-199.48v-808.27c0-54.58,23.95-89.85,61.02-89.85,12.78,0,26.44,4.14,40.59,12.32l1143.02,659.92c57.5,33.2,104.28,122.68,104.28,199.48v808.28c0,54.58-23.95,89.85-61.02,89.85Z"/><path class="cls-12" d="m675.38,579.94v5.33h0c12.31,0,25.51,4.02,39.26,11.96l1143.02,659.92c56.76,32.77,102.94,121.22,102.94,197.17v808.28c0,26.9-5.81,49.34-16.81,64.89-10.31,14.58-24.68,22.29-41.54,22.29-12.31,0-25.52-4.02-39.26-11.96l-1143.02-659.92c-56.76-32.77-102.94-121.22-102.94-197.17v-808.28c0-26.9,5.81-49.34,16.81-64.89,10.31-14.58,24.68-22.29,41.54-22.29v-5.33m0,0c-37.47,0-63.68,34.61-63.68,92.51v808.28c0,77.77,47.28,168.11,105.61,201.79l1143.02,659.92c14.9,8.6,29.07,12.67,41.93,12.67,37.47,0,63.68-34.61,63.68-92.51v-808.28c0-77.77-47.28-168.11-105.61-201.79L717.3,592.61c-14.9-8.6-29.07-12.67-41.93-12.67h0Z"/><path class="cls-15" d="m675.38,579.94v2.67h0c12.78,0,26.44,4.14,40.59,12.32l1143.02,659.92c57.5,33.2,104.28,122.68,104.28,199.48v808.28c0,54.58-23.95,89.85-61.02,89.85-12.78,0-26.44-4.14-40.59-12.32l-1143.02-659.92c-57.5-33.2-104.28-122.68-104.28-199.48v-808.28c0-54.58,23.95-89.84,61.02-89.85v-2.67m0,0c-37.47,0-63.68,34.61-63.68,92.51v808.28c0,77.77,47.28,168.11,105.61,201.79l1143.02,659.92c14.9,8.6,29.07,12.67,41.93,12.67,37.47,0,63.68-34.61,63.68-92.51v-808.28c0-77.77-47.28-168.11-105.61-201.79L717.3,592.61c-14.9-8.6-29.07-12.67-41.93-12.67h0Z"/><g class="cls-44"><g class="cls-45"><path class="cls-32" d="m617.09,625.56l531.19,807.93c41.1,61.33,99.43,95.01,140.54,81.14l671.72-113.43"/><path class="cls-34" d="m617.09,625.56l531.19,807.93c41.1,61.33,99.43,95.01,140.54,81.14l671.72-113.43"/><path class="cls-30" d="m617.09,625.56l531.19,807.93c41.1,61.33,99.43,95.01,140.54,81.14l671.72-113.43"/></g><path class="cls-7" d="m617.09,625.56l531.19,807.93c41.1,61.33,99.43,95.01,140.54,81.14l671.72-113.43c-14.67-61.13-57.69-124.12-108.5-153.45L725.59,597.4c-50.81-29.33-93.83-16.03-108.5,28.16Z"/></g></g><g id="Wax"><g id="A"><g class="cls-41"><path class="cls-18" d="m1301.22,1705.67c-29.48,0-60.79-9.45-93.06-28.08-52.21-30.14-101.07-81.41-137.59-144.35-36.53-62.97-56.65-130.64-56.65-190.55,0-44.6,11.32-82.28,32.73-108.94,21.71-27.03,53.5-41.92,89.53-41.92,29.48,0,60.79,9.45,93.06,28.08,52.21,30.14,101.07,81.41,137.59,144.35,36.53,62.97,56.65,130.64,56.65,190.55,0,44.6-11.32,82.28-32.73,108.94-21.71,27.03-53.5,41.92-89.53,41.92Z"/></g><path class="cls-22" d="m1304.72,1697.48c-26.1,0-60.2-16.14-88.76-32.63-46.21-26.68-89.46-72.06-121.78-127.77-32.34-55.74-50.14-115.63-50.14-168.66,0-39.48-2.06-76.69,20.85-96.48,21.87-18.9,55.48-37.05,87.37-37.05,26.1,0,53.81,8.36,82.37,24.85,46.21,26.68,89.46,72.06,121.78,127.77,32.34,55.74,50.14,115.63,50.14,168.66,0,39.48-10.02,72.82-28.97,96.43-19.21,23.93-40.86,36.99-72.86,44.88Z"/><path class="cls-36" d="m1304.72,1697.48c-26.1,0-60.2-16.14-88.76-32.63-46.21-26.68-89.46-72.06-121.78-127.77-32.34-55.74-50.14-115.63-50.14-168.66,0-39.48,2.32-69.4,22.86-91.63,18.33-19.85,53.47-41.9,85.36-41.9,26.1,0,53.81,8.36,82.37,24.85,46.21,26.68,89.46,72.06,121.78,127.77,32.34,55.74,50.14,115.63,50.14,168.66,0,39.48-10.02,72.82-28.97,96.43-19.21,23.93-40.86,36.99-72.86,44.88Z"/><path class="cls-28" d="m1304.72,1697.48c-26.1,0-60.2-16.14-88.76-32.63-46.21-26.68-89.46-72.06-121.78-127.77-32.34-55.74-50.14-115.63-50.14-168.66,0-39.48,2.32-69.4,22.86-91.63,18.33-19.85,53.47-41.9,85.36-41.9,26.1,0,53.81,8.36,82.37,24.85,46.21,26.68,89.46,72.06,121.78,127.77,32.34,55.74,50.14,115.63,50.14,168.66,0,39.48-10.02,72.82-28.97,96.43-19.21,23.93-40.86,36.99-72.86,44.88Z"/><path class="cls-33" d="m1304.72,1697.48c-26.1,0-60.2-16.14-88.76-32.63-46.21-26.68-89.46-72.06-121.78-127.77-32.34-55.74-50.14-115.63-50.14-168.66,0-39.48,2.32-69.4,22.86-91.63,18.33-19.85,53.47-41.9,85.36-41.9,26.1,0,53.81,8.36,82.37,24.85,46.21,26.68,89.46,72.06,121.78,127.77,32.34,55.74,50.14,115.63,50.14,168.66,0,39.48-10.02,72.82-28.97,96.43-19.21,23.93-40.86,36.99-72.86,44.88Z"/><path class="cls-5" d="m1280.45,1700.17c-26.1,0-53.81-8.36-82.37-24.85-46.21-26.68-89.46-72.06-121.78-127.77-32.34-55.74-50.14-115.63-50.14-168.66,0-39.48,10.02-72.82,28.97-96.43,19.21-23.93,47.36-37.1,79.25-37.1,26.1,0,53.81,8.36,82.37,24.85,46.21,26.68,89.46,72.06,121.78,127.77,32.34,55.74,50.14,115.63,50.14,168.66,0,39.48-10.02,72.82-28.97,96.43-19.21,23.93-47.36,37.1-79.25,37.1Z"/><ellipse class="cls-20" cx="1207.41" cy="1472.76" rx="132.28" ry="229.12" transform="translate(-578.81 812.24) rotate(-30.36)"/><path class="cls-4" d="m1218.77,1652.48c-89.79-51.84-162.58-177.3-162.58-280.23,0-47.71,15.65-82.19,41.37-100.31-32.41,15.36-52.74,52.56-52.74,106.95,0,102.93,72.79,228.39,162.58,280.23,48.17,27.81,91.44,28.77,121.21,7.8-28.93,13.71-67.49,10.01-109.84-14.44Z"/><path class="cls-23" d="m1301.16,1569.75l-17-29.31v-89.65c0-32.48-22.67-70.26-47.61-93.75-1.13-11.05-9.07-24.73-19.27-30.62-4.4-2.54-8.37-3.13-11.56-2.12,0,0,0,0,0,0-1.81.39-14.17,5.8-15.84,8.43-.55.86,3.57.13,3.23,2.22-9.14-1.68-17.69-.79-24.76,2.57h0c-5.54,2.05-17.32,9.44-17.32,9.44,0,0,136.49,249.39,136.82,249.36,2.53-.24,11.98-4.93,14.46-7.72,3.4-3.23,3.4-11.03-1.13-18.85Z"/><path class="cls-4" d="m1189.94,1534.7c-1.97.51-15.04,7.98-16.81,10.07,0,0,45.45,53.22,46.41,53.32,2.74.29,14.06-5.7,18.08-8.47,3.77-2.59,7.4-5.09,7.41-5.11,2.08-1.79,3.78-4.23,4.99-7.33,1.13-1.94,1.13-4.54,1.13-7.14l-61.21-35.34Z"/><g class="cls-40"><path class="cls-35" d="m1301.16,1569.75l-17-29.31v-89.65c0-32.48-22.67-70.26-47.61-93.75-1.13-11.05-9.07-24.73-19.27-30.62-4.4-2.54-8.37-3.13-11.56-2.12,0,0,0,0,0,0-1.81.39-14.17,5.8-15.84,8.43-.55.86,3.57.13,3.23,2.22-9.14-1.68-17.69-.79-24.76,2.57h0c-5.54,2.05-17.32,9.44-17.32,9.44,0,0,136.49,249.39,136.82,249.36,2.53-.24,11.98-4.93,14.46-7.72,3.4-3.23,3.4-11.03-1.13-18.85Z"/><path class="cls-35" d="m1189.94,1534.7c-1.97.51-15.04,7.98-16.81,10.07,0,0,45.45,53.22,46.41,53.32,2.74.29,14.06-5.7,18.08-8.47,3.77-2.59,7.4-5.09,7.41-5.11,2.08-1.79,3.78-4.23,4.99-7.33,1.13-1.94,1.13-4.54,1.13-7.14l-61.21-35.34Z"/></g><g class="cls-29"><path class="cls-38" d="m1301.16,1569.75l-17-29.31v-89.65c0-32.48-22.67-70.26-47.61-93.75-1.13-11.05-9.07-24.73-19.27-30.62-4.4-2.54-8.37-3.13-11.56-2.12,0,0,0,0,0,0-1.81.39-14.17,5.8-15.84,8.43-.55.86,3.57.13,3.23,2.22-9.14-1.68-17.69-.79-24.76,2.57h0c-5.54,2.05-17.32,9.44-17.32,9.44,0,0,136.49,249.39,136.82,249.36,2.53-.24,11.98-4.93,14.46-7.72,3.4-3.23,3.4-11.03-1.13-18.85Z"/><path class="cls-38" d="m1189.94,1534.7c-1.97.51-15.04,7.98-16.81,10.07,0,0,45.45,53.22,46.41,53.32,2.74.29,14.06-5.7,18.08-8.47,3.77-2.59,7.4-5.09,7.41-5.11,2.08-1.79,3.78-4.23,4.99-7.33,1.13-1.94,1.13-4.54,1.13-7.14l-61.21-35.34Z"/></g><path class="cls-33" d="m1301.16,1569.75l-17-29.31v-89.65c0-32.48-22.67-70.26-47.61-93.75-1.13-11.05-9.07-24.73-19.27-30.62-4.4-2.54-8.37-3.13-11.56-2.12,0,0,0,0,0,0-1.81.39-14.17,5.8-15.84,8.43-.55.86,3.57.13,3.23,2.22-9.14-1.68-17.69-.79-24.76,2.57h0c-5.54,2.05-17.32,9.44-17.32,9.44,0,0,136.49,249.39,136.82,249.36,2.53-.24,11.98-4.93,14.46-7.72,3.4-3.23,3.4-11.03-1.13-18.85Z"/><path class="cls-33" d="m1189.94,1534.7c-1.97.51-15.04,7.98-16.81,10.07,0,0,45.45,53.22,46.41,53.32,2.74.29,14.06-5.7,18.08-8.47,3.77-2.59,7.4-5.09,7.41-5.11,2.08-1.79,3.78-4.23,4.99-7.33,1.13-1.94,1.13-4.54,1.13-7.14l-61.21-35.34Z"/><path class="cls-10" d="m1301.16,1569.75l-17-29.31v-89.65c0-32.48-22.67-70.26-47.61-93.75-1.13-11.05-9.07-24.73-19.27-30.62-4.4-2.54-8.37-3.13-11.56-2.12,0,0,0,0,0,0-1.81.39-14.17,5.8-15.84,8.43-.55.86,3.57.13,3.23,2.22-9.14-1.68-17.69-.79-24.76,2.57h0c-5.54,2.05-17.32,9.44-17.32,9.44,0,0,136.49,249.39,136.82,249.36,2.53-.24,11.98-4.93,14.46-7.72,3.4-3.23,3.4-11.03-1.13-18.85Z"/><path class="cls-4" d="m1189.94,1534.7c-1.97.51-15.04,7.98-16.81,10.07,0,0,45.45,53.22,46.41,53.32,2.74.29,14.06-5.7,18.08-8.47,3.77-2.59,7.4-5.09,7.41-5.11,2.08-1.79,3.78-4.23,4.99-7.33,1.13-1.94,1.13-4.54,1.13-7.14l-61.21-35.34Z"/><path class="cls-2" d="m1287.61,1577.08l-17-29.31v-89.65c0-32.48-22.67-70.26-47.61-93.75-1.13-11.05-9.07-24.73-19.27-30.62-10.2-5.89-18.14-1.38-19.27,9.66-26.07-7.26-48.74,5.64-48.74,36.83v89.65s-15.87,10.33-15.87,10.33c-3.4,1.93-4.53,6.48-2.27,12.98,2.27,6.51,5.67,11.07,10.2,13.69l151.88,87.69c3.4,1.96,6.8,2.63,9.07,1.34,3.4-3.23,3.4-11.03-1.13-18.85Z"/><path class="cls-5" d="m1173.13,1544.77c0,2.6,1.13,5.85,1.13,8.45,4.53,16.91,15.87,32.55,29.47,40.4,13.6,7.85,24.94,5.3,29.47-6.37,1.13-1.94,1.13-4.54,1.13-7.14l-61.21-35.34Z"/><path class="cls-37" d="m1173.13,1544.77c0,2.6,1.13,5.85,1.13,8.45,4.53,16.91,15.87,32.55,29.47,40.4,13.6,7.85,24.94,5.3,29.47-6.37,1.13-1.94,1.13-4.54,1.13-7.14l-61.21-35.34Z"/><path class="cls-13" d="m1174.72,1547.22l58.28,33.65c0,2.2-.1,4.24-.95,5.7l-.05.09-.04.1c-2.55,6.57-7.3,10.04-13.73,10.04-4.19,0-8.84-1.46-13.83-4.34-13.26-7.66-24.29-22.76-28.81-39.43-.02-1.38-.31-2.86-.59-4.3-.1-.5-.2-1.01-.28-1.51m-1.59-2.46c0,2.6,1.13,5.85,1.13,8.45,4.53,16.91,15.87,32.55,29.47,40.4,5.26,3.04,10.18,4.52,14.5,4.52,6.85,0,12.19-3.73,14.97-10.89,1.13-1.94,1.13-4.54,1.13-7.14l-61.21-35.34h0Z"/><path class="cls-37" d="m1287.61,1577.08l-17-29.31v-89.65c0-32.48-22.67-70.26-47.61-93.75-1.13-11.05-9.07-24.73-19.27-30.62-10.2-5.89-18.14-1.38-19.27,9.66-26.07-7.26-48.74,5.64-48.74,36.83v89.65s-15.87,10.33-15.87,10.33c-3.4,1.93-4.53,6.48-2.27,12.98,2.27,6.51,5.67,11.07,10.2,13.69l151.88,87.69c3.4,1.96,6.8,2.63,9.07,1.34,3.4-3.23,3.4-11.03-1.13-18.85Z"/><path class="cls-13" d="m1195.29,1332.49c2.38,0,5,.81,7.77,2.42,9.28,5.36,17.46,18.36,18.61,29.6l.05.49.36.34c12.76,12.03,24.45,27.35,32.89,43.16,9.35,17.5,14.29,34.66,14.29,49.62v90.01l.18.31,17,29.31c4.43,7.63,4.07,14.44,1.49,17.09-.55.28-1.2.41-1.95.41-1.61,0-3.61-.65-5.65-1.82l-151.88-87.69c-4.23-2.44-7.46-6.8-9.61-12.97-1.93-5.54-1.32-9.69,1.67-11.39l.03-.02.03-.02,15.87-10.33.61-.39v-90.38c0-11.77,3.35-21.46,9.7-28.05,5.94-6.16,14.23-9.42,23.96-9.42,4.3,0,8.81.65,13.39,1.92l1.52.42.16-1.57c.71-6.93,4.26-11.06,9.5-11.06m0-1.33c-5.91,0-10.03,4.53-10.83,12.26-4.73-1.32-9.35-1.97-13.75-1.97-19.81,0-34.99,13.27-34.99,38.8v89.65l-15.87,10.33c-3.4,1.93-4.53,6.48-2.27,12.98,2.27,6.51,5.67,11.07,10.2,13.69l151.88,87.69c2.21,1.27,4.42,2,6.31,2,1.02,0,1.96-.21,2.75-.66,3.4-3.23,3.4-11.03-1.13-18.85l-17-29.31v-89.65c0-32.48-22.67-70.26-47.61-93.75-1.13-11.05-9.07-24.73-19.27-30.61-3.06-1.77-5.91-2.6-8.44-2.6h0Z"/><g class="cls-40"><ellipse class="cls-31" cx="1207.41" cy="1472.76" rx="132.28" ry="229.12" transform="translate(-578.81 812.24) rotate(-30.36)"/></g><path class="cls-13" d="m1134.37,1265.35c22.54,0,46.89,7.46,72.37,22.17,89.29,51.55,161.93,176.76,161.93,279.11,0,34.88-8.49,63.9-24.56,83.91-15.56,19.38-37.57,29.62-63.66,29.62-22.54,0-46.89-7.46-72.37-22.17-89.29-51.55-161.93-176.76-161.93-279.11,0-34.88,8.49-63.9,24.56-83.91,15.56-19.38,37.57-29.62,63.66-29.62m0-1.33c-53.12,0-89.56,42.03-89.56,114.87,0,102.94,72.8,228.42,162.6,280.27,26.26,15.16,51.08,22.35,73.04,22.35,53.12,0,89.56-42.03,89.56-114.87,0-102.94-72.8-228.42-162.6-280.27-26.26-15.16-51.08-22.35-73.04-22.35h0Z"/><path class="cls-37" d="m1280.45,1700.17c-26.1,0-53.81-8.36-82.37-24.85-46.21-26.68-89.46-72.06-121.78-127.77-32.34-55.74-50.14-115.63-50.14-168.66,0-39.48,10.02-72.82,28.97-96.43,19.21-23.93,47.36-37.1,79.25-37.1,26.1,0,53.81,8.36,82.37,24.85,46.21,26.68,89.46,72.06,121.78,127.77,32.34,55.74,50.14,115.63,50.14,168.66,0,39.48-10.02,72.82-28.97,96.43-19.21,23.93-47.36,37.1-79.25,37.1Z"/><path class="cls-13" d="m1134.37,1246.69c25.86,0,53.35,8.3,81.71,24.67,46.01,26.56,89.09,71.77,121.3,127.28,32.22,55.54,49.96,115.2,49.96,167.99,0,39.17-9.92,72.23-28.68,95.59-18.95,23.6-46.73,36.6-78.21,36.6-25.86,0-53.35-8.3-81.7-24.67-46.01-26.57-89.09-71.77-121.3-127.28-32.22-55.54-49.96-115.2-49.96-167.99,0-39.17,9.92-72.23,28.68-95.59,18.95-23.6,46.73-36.6,78.21-36.6m0-1.33c-31.89,0-60.03,13.18-79.25,37.1-18.95,23.6-28.97,56.95-28.97,96.43,0,53.02,17.81,112.92,50.14,168.66,32.32,55.71,75.57,101.09,121.78,127.77,28.56,16.49,56.27,24.85,82.37,24.85,31.89,0,60.03-13.18,79.25-37.1,18.95-23.6,28.97-56.95,28.97-96.43,0-53.02-17.81-112.92-50.14-168.66-32.32-55.71-75.57-101.09-121.78-127.77-28.56-16.49-56.28-24.85-82.37-24.85h0Z"/></g></g><g id="PlusTeal"><path class="cls-1" d="m2019.23,1468.62c-3.27-1.19-43.78,21.31-48.82,24.85l-.46,162.43-141.36-81.61c-6.54-3.77-11.86-.74-11.88,6.77l-.26,90.16c-.02,7.5,5.26,16.65,11.8,20.43l141.36,81.61-.46,162.43c-.02,7.51,5.26,16.65,11.79,20.42,0,0,35.63-26.57,35.66-34.08l2.62-453.41Z"/><g id="_Teal"><g class="cls-39"><path class="cls-26" d="m2020.05,2023.86l.46-162.43,32.88-19.11-.46,162.43c-.01,3.73-1.33,6.35-3.45,7.58l-32.88,19.11c2.12-1.23,3.44-3.86,3.45-7.58Z"/><path class="cls-24" d="m1801.81,1583.56c2.15-1.25,5.13-1.08,8.42.82l141.36,81.61-32.88,19.11-141.36-81.61c-3.29-1.9-6.27-2.07-8.42-.82l32.88-19.11Z"/><path class="cls-16" d="m2053.73,1724.96l141.36,81.61c6.54,3.77,11.81,12.92,11.79,20.43l-.26,90.16c-.01,3.73-1.33,6.35-3.45,7.59l-32.88,19.11c2.12-1.23,3.44-3.86,3.45-7.59l.26-90.16c.02-7.51-5.25-16.66-11.79-20.43l-141.36-81.61,32.88-19.11Z"/><path class="cls-8" d="m1955.5,1495.97c2.15-1.25,5.13-1.07,8.42.82l78.47,45.3c6.54,3.77,11.82,12.92,11.8,20.43l-.46,162.43-32.88,19.11.46-162.43c.02-7.51-5.26-16.65-11.8-20.43l-78.47-45.3c-3.29-1.9-6.27-2.07-8.42-.82l32.88-19.11Z"/></g></g><path class="cls-21" d="m1931.04,1515.91c-6.53-3.77-11.85-.75-11.87,6.76l-.46,162.43-141.36-81.61c-6.54-3.77-11.86-.74-11.88,6.77l-.26,90.16c-.02,7.5,5.26,16.65,11.8,20.43l141.36,81.61-.46,162.43c-.02,7.51,5.26,16.65,11.79,20.42l78.47,45.3c6.54,3.77,11.86.75,11.88-6.76l.46-162.43,141.36,81.61c6.54,3.77,11.85.74,11.87-6.76l.26-90.16c.02-7.51-5.25-16.66-11.79-20.43l-141.36-81.61.46-162.43c.02-7.51-5.26-16.65-11.8-20.43l-78.47-45.3Z"/></g></svg>