<svg id="ebce0092-39f3-4ca3-8a25-834cd1adae1b" data-name="ARTWORK" xmlns="http://www.w3.org/2000/svg" xmlns:xlink="http://www.w3.org/1999/xlink" viewBox="0 0 2500 2500"><defs><filter id="a1dd25c2-8a5b-4d76-94fc-aa3952ea7570" name="AI_DesenfoqueGaussiano_4"><feGaussianBlur stdDeviation="4"/></filter><linearGradient id="a7836e69-7421-4cb6-94b6-07085268f31a" x1="29.59" y1="-40.68" x2="154.65" y2="201.61" gradientUnits="userSpaceOnUse"><stop offset="0" stop-color="#d4ecf6" stop-opacity="0.1"/><stop offset="0.04" stop-color="#b5cede" stop-opacity="0.1"/><stop offset="0.15" stop-color="#90aac1" stop-opacity="0.1"/><stop offset="0.87" stop-color="#5d7586" stop-opacity="0.3"/></linearGradient><linearGradient id="ae5f32df-7f63-4064-900b-cd70f3588de2" x1="17035.22" y1="260.43" x2="17016.97" y2="472.45" gradientTransform="matrix(-1, 0, 0, 1, 17231.5, 0)" gradientUnits="userSpaceOnUse"><stop offset="0.01" stop-color="#0071b0"/><stop offset="0.37" stop-color="#0f89c6"/><stop offset="0.73" stop-color="#199bd6"/><stop offset="1" stop-color="#1da1dc"/></linearGradient><linearGradient id="a45d2e3b-c759-4046-bed9-ceec40ea1797" x1="17071.01" y1="159.36" x2="17183.79" y2="89.86" gradientTransform="matrix(-1, 0, 0, 1, 17231.5, 0)" gradientUnits="userSpaceOnUse"><stop offset="0.01" stop-color="#0071b0"/><stop offset="0.1" stop-color="#0579b7"/><stop offset="0.42" stop-color="#128fcc"/><stop offset="0.72" stop-color="#1a9cd8"/><stop offset="1" stop-color="#1da1dc"/></linearGradient><linearGradient id="eba71ecb-4582-45b4-b718-3b474e7fe78a" x1="16894.86" y1="368.7" x2="16993.22" y2="168.74" gradientTransform="matrix(-1, 0, 0, 1, 17231.5, 0)" gradientUnits="userSpaceOnUse"><stop offset="0.01" stop-color="#0071b0"/><stop offset="0.29" stop-color="#0173b2"/><stop offset="0.39" stop-color="#057ab8"/><stop offset="0.46" stop-color="#0c85c3"/><stop offset="0.52" stop-color="#1696d2"/><stop offset="0.55" stop-color="#1da1dc"/><stop offset="0.98" stop-color="#1da1dc"/><stop offset="1" stop-color="#1da1dc"/></linearGradient><linearGradient id="f8bb8b03-d4b0-448d-bcdf-86c295f5d5ee" x1="17022.77" y1="124.98" x2="17092" y2="-4.29" xlink:href="#eba71ecb-4582-45b4-b718-3b474e7fe78a"/><linearGradient id="ece29db9-3876-445c-8292-67c67fe6042c" x1="2642.24" y1="1053.72" x2="2243.96" y2="1004.88" gradientTransform="matrix(-1, 0, 0, 1, 3238.6, 0)" gradientUnits="userSpaceOnUse"><stop offset="0.14" stop-color="#c2ebe8" stop-opacity="0"/><stop offset="0.17" stop-color="#a7e5e0" stop-opacity="0.03"/><stop offset="0.27" stop-color="#79dbd3" stop-opacity="0.08"/><stop offset="0.37" stop-color="#6ad8cf" stop-opacity="0.1"/><stop offset="0.86" stop-color="#43a39b" stop-opacity="0.6"/></linearGradient><linearGradient id="a24330fb-8182-42a0-a4a7-84966e0503d0" x1="2558.17" y1="804.32" x2="2017.11" y2="962.13" gradientTransform="matrix(-1, 0, 0, 1, 3238.6, 0)" gradientUnits="userSpaceOnUse"><stop offset="0" stop-color="#c2ebe8" stop-opacity="0"/><stop offset="0.06" stop-color="#a7e5e0" stop-opacity="0.03"/><stop offset="0.21" stop-color="#79dbd3" stop-opacity="0.08"/><stop offset="0.37" stop-color="#6ad8cf" stop-opacity="0.1"/><stop offset="0.86" stop-color="#43a39b" stop-opacity="0.6"/></linearGradient><filter id="be7b2fd2-840c-4983-980c-8f6082822407" name="AI_DesenfoqueGaussiano_7"><feGaussianBlur stdDeviation="7"/></filter><linearGradient id="ebfc99b4-2b50-4f44-b27f-1dbfef232a32" x1="1888.29" y1="1768.39" x2="900.92" y2="1015.31" gradientUnits="userSpaceOnUse"><stop offset="0.01" stop-color="#e5f4fa"/><stop offset="0.21" stop-color="#d4ecf6" stop-opacity="0.9"/><stop offset="0.66" stop-color="#f5f8fa"/><stop offset="1" stop-color="#fff"/></linearGradient><linearGradient id="b6a3112c-e62b-4931-a472-6666e355e992" x1="1360.19" y1="1141.76" x2="1709.55" y2="868.85" gradientTransform="matrix(-1, 0, 0, 1, 2429.39, 0)" gradientUnits="userSpaceOnUse"><stop offset="0.32" stop-color="#d4ecf6" stop-opacity="0"/><stop offset="0.78" stop-color="#5d7586" stop-opacity="0.3"/></linearGradient><linearGradient id="aa8dda11-dd17-4d1e-9c79-b1c2fa6db6a1" x1="1413.55" y1="789.97" x2="1776.64" y2="446.31" gradientTransform="matrix(-1, 0, 0, 1, 2429.39, 0)" gradientUnits="userSpaceOnUse"><stop offset="0" stop-color="#fff"/><stop offset="0.15" stop-color="#eef7fb"/><stop offset="0.16" stop-color="#e3f2f9"/><stop offset="0.18" stop-color="#d8eef7"/><stop offset="0.2" stop-color="#d4ecf6"/><stop offset="0.37" stop-color="#d4ecf6"/><stop offset="0.57" stop-color="#d4ecf6"/><stop offset="0.99" stop-color="#d4ecf6"/></linearGradient><linearGradient id="ad133f8d-7212-400b-ba82-c54ddac3ce4f" x1="872.46" y1="1486.71" x2="1500.02" y2="771.65" gradientTransform="matrix(-1, 0, 0, 1, 2429.39, 0)" gradientUnits="userSpaceOnUse"><stop offset="0.46" stop-color="#89d6ef"/><stop offset="0.5" stop-color="#89d6ef" stop-opacity="0.1"/></linearGradient><linearGradient id="b4ead2c7-6b74-48df-b55d-16941276275d" x1="1080.49" y1="1203.98" x2="1452" y2="1203.98" gradientTransform="matrix(-1, 0, 0, 1, 2429.39, 0)" gradientUnits="userSpaceOnUse"><stop offset="0.01" stop-color="#89d6ef" stop-opacity="0.9"/><stop offset="0.39" stop-color="#89d6ef" stop-opacity="0.84"/><stop offset="1" stop-color="#89d6ef" stop-opacity="0.7"/></linearGradient><linearGradient id="a7764cf9-094d-4876-bf6c-1b75f378ef6b" x1="1080.49" y1="1341.29" x2="1452" y2="1341.29" xlink:href="#b4ead2c7-6b74-48df-b55d-16941276275d"/><linearGradient id="ad1d681f-9b1c-4201-8371-5f4244dbb752" x1="1080.49" y1="1478.59" x2="1452" y2="1478.59" xlink:href="#b4ead2c7-6b74-48df-b55d-16941276275d"/><symbol id="a79ebb4d-b9a2-423e-aee7-881ee9c91b94" data-name="+ Symbol" viewBox="0 0 331.34 402.92"><g filter="url(#a1dd25c2-8a5b-4d76-94fc-aa3952ea7570)"><path d="M168.47,108.83l-7.95-4.59c-4.9-2.83-8.89-.56-8.9,5.07l-.35,11L45.22,59.1c-4.9-2.83-8.89-.56-8.91,5.08l-.19,67.64c0,5.63,4,12.49,8.85,15.32L151,208.37l-.34,121.86c0,5.63,3.95,12.49,8.84,15.32l8,4.64,18.52-9.42V98.88Z" fill="url(#a7836e69-7421-4cb6-94b6-07085268f31a)" style="mix-blend-mode:multiply"/></g><g id="b3439886-225e-4c72-a7c5-ecfcdbda0587" data-name="+ Blue"><g style="isolation:isolate"><path d="M191.18,396.63l.34-121.86,24.67-14.34-.34,121.86c0,2.8-1,4.76-2.59,5.69l-24.67,14.34C190.18,401.39,191.17,399.42,191.18,396.63Z" fill="url(#ae5f32df-7f63-4064-900b-cd70f3588de2)"/><path d="M27.45,66.3c1.62-.93,3.85-.8,6.32.62l106,61.23-24.67,14.33L9.1,81.26c-2.47-1.43-4.7-1.56-6.32-.62Z" fill="url(#a45d2e3b-c759-4046-bed9-ceec40ea1797)"/><path d="M216.44,172.39l106.05,61.22c4.9,2.84,8.86,9.7,8.85,15.33l-.2,67.65c0,2.79-1,4.76-2.59,5.69l-24.66,14.33c1.59-.92,2.58-2.89,2.59-5.69l.19-67.64c0-5.64-3.94-12.5-8.85-15.33l-106-61.23Z" fill="url(#eba71ecb-4582-45b4-b718-3b474e7fe78a)"/><path d="M124.4,15.55c-4.9-2.83-8.89-.56-8.9,5.08l-.35,121.85L9.1,81.26C4.2,78.43.21,80.7.19,86.33L0,154c0,5.62,4,12.49,8.85,15.32L114.9,230.53l-.34,121.86c0,5.63,3.94,12.49,8.84,15.32l58.87,34c4.9,2.83,8.89.56,8.91-5.07l.34-121.86,106,61.22c4.91,2.84,8.89.56,8.91-5.07l.19-67.64c0-5.64-3.94-12.5-8.85-15.33l-106-61.23.35-121.86c0-5.63-4-12.49-8.85-15.32Z" fill="#39c2ec"/><path d="M142.75.6c1.62-.94,3.85-.81,6.32.62l58.86,34c4.91,2.83,8.87,9.69,8.86,15.33l-.35,121.86-24.67,14.33.35-121.86c0-5.63-4-12.49-8.85-15.32l-58.87-34c-2.47-1.42-4.7-1.55-6.31-.62Z" fill="url(#f8bb8b03-d4b0-448d-bcdf-86c295f5d5ee)"/></g></g></symbol></defs><g id="b11064ab-ea56-4746-aa35-1dc0e8ead799" data-name="Plant"><path d="M1087.21,1476.31q-543.45-415-484-906.21Q1075.62,812.92,1087.21,1476.31Z" fill="#c2ebe8"/><path d="M1085.1,1414.13q1.56,30.61,2.11,62.18-26.85-20.5-52.2-41.21-150.19-420.58-431.83-865Q915.33,962.8,1085.1,1414.13Z" fill="#6ad8cf"/><path d="M1087.21,1476.31q-543.45-415-484-906.21Q1075.62,812.92,1087.21,1476.31Z" fill="url(#ece29db9-3876-445c-8292-67c67fe6042c)"/><path d="M859,166.23Q1337.65,632.94,1085.69,1427,654.71,707,859,166.23Z" fill="#91e2db"/><path d="M1085.69,1427q-10.26-17.15-20.14-34.17Q1118.07,957.46,859,166.23,1119.17,842.51,1119.4,1309.6,1104.61,1367.4,1085.69,1427Z" fill="#6ad8cf"/><path d="M1053.36,1555.19l-.2-.32q-359.67,45.56-506-314.82Q843.91,1175.63,1053.36,1555.19Z" fill="#91e2db"/><path d="M1053.16,1554.87q-16.62,2.1-32.76,3.33-137.46-155-473.25-318.15,221.49,84.06,483.13,275.07,11.67,19.39,23.08,40.07Z" fill="#6ad8cf"/><path d="M1086,1434.81c-.11-2.61-.21-5.22-.32-7.81q2.19-6.91,4.32-13.8l1.29-4.16q1.5-4.89,3-9.78c.46-1.52.92-3,1.37-4.55q1.47-4.89,2.91-9.75c.4-1.34.8-2.68,1.19-4q1.7-5.76,3.35-11.51l.6-2.06Q1319.54,615.29,859,166.23,762.9,420.63,807.39,714.7q-88.21-85-204.21-144.6-58.65,484.85,470,895.37l1.75,1.36q6.12,4.76,12.31,9.48c-.08-4.54-.18-9-.29-13.56,0-1.48-.08-3-.11-4.43q-.13-4.69-.28-9.36-.19-6-.42-11.86Zm-55.78,80.28,0,0c1.07,1.78,2.13,3.58,3.2,5.37l.11.19q2.21,3.71,4.4,7.46,1.42,2.44,2.84,4.89l1.91,3.31q2.27,3.93,4.51,7.91l1,1.82q2.55,4.53,5.09,9.12l-.2-.32c-3.35.42-6.67.81-10,1.18l-3.1.33-7,.72-3.37.32c-2.77.25-5.52.48-8.27.7q-334.47,26.18-474.26-318.07Q827.71,1179.14,1030.24,1515.09Z" fill="url(#a24330fb-8182-42a0-a4a7-84966e0503d0)"/></g><g id="bfb01a5a-921e-4f9f-9ed8-6f9b66fd7e45" data-name="Paper"><g id="fa7ad1a2-c895-4a4d-8fb3-0907c0b5dfb7" data-name="Paper"><g id="aecc1309-2c20-4223-a967-8cb6a57541ed" data-name="Shadow paper" filter="url(#be7b2fd2-840c-4983-980c-8f6082822407)"><path d="M1423.9,1849.69l-491.23-284a12.85,12.85,0,0,1-4-18.62h0a12.84,12.84,0,0,1,16.83-3.6l491.22,284.06a12.83,12.83,0,0,1,4,18.62h0A12.83,12.83,0,0,1,1423.9,1849.69Z" fill="#5d7586" opacity="0.1"/></g><g id="f7098bda-500a-44bd-aef7-c77c9f201e17" data-name="PAPER 0 Layer0 0 MEMBER 0 FILL"><path d="M1029.37,678a6.14,6.14,0,0,1,5.85.4l388.35,224.2q16.15,9.36,27.5,29t11.35,38.25l-2.15,838.4c0,.93,0,1.83,0,2.7l-1,6.9a31.36,31.36,0,0,1-2,6,20.62,20.62,0,0,1-7.65,9l.5-.3c-.42.28-.86.55-1.3.8q-11.44,6.51-27.6-2.8l-500.9-289.2q-16.15-9.35-27.55-29.05t-11.3-38.25L883.07,790l0,0q130.25-106.5,144.25-110.35a5,5,0,0,1,2-1.6m-31,167.35a5.09,5.09,0,0,0,.5-.3l-2.45-1C996.59,845.56,997.24,846,998.37,845.35Z" fill="#f1f3f6"/></g><g id="ba4ea782-6047-409b-80ac-3aa48b762837" data-name="PAPER 0 Layer0 0 MEMBER 0 FILL"><path d="M1029.37,678a6.14,6.14,0,0,1,5.85.4l388.35,224.2q16.15,9.36,27.5,29t11.35,38.25l-2.15,838.4c0,.93,0,1.83,0,2.7l-1,6.9a31.36,31.36,0,0,1-2,6,20.62,20.62,0,0,1-7.65,9l.5-.3c-.42.28-.86.55-1.3.8q-11.44,6.51-27.6-2.8l-500.9-289.2q-16.15-9.35-27.55-29.05t-11.3-38.25L883.07,790l0,0q130.25-106.5,144.25-110.35a5,5,0,0,1,2-1.6m-31,167.35a5.09,5.09,0,0,0,.5-.3l-2.45-1C996.59,845.56,997.24,846,998.37,845.35Z" fill="url(#ebfc99b4-2b50-4f44-b27f-1dbfef232a32)"/></g><path d="M1029.37,678a6.14,6.14,0,0,1,5.85.4l388.35,224.2q16.15,9.36,27.5,29t11.35,38.25l-2.15,838.4c0,.93,0,1.83,0,2.7l-1,6.9a31.36,31.36,0,0,1-2,6,20.62,20.62,0,0,1-7.65,9l.5-.3c-.42.28-.86.55-1.3.8q-11.44,6.51-27.6-2.8l-500.9-289.2q-16.15-9.35-27.55-29.05t-11.3-38.25L883.07,790l0,0q130.25-106.5,144.25-110.35a5,5,0,0,1,2-1.6m-31,167.35a5.09,5.09,0,0,0,.5-.3l-2.45-1C996.59,845.56,997.24,846,998.37,845.35Z" fill="url(#b6a3112c-e62b-4931-a472-6666e355e992)"/><path d="M1029.37,678a6.14,6.14,0,0,1,5.85.4l388.35,224.2q16.15,9.36,27.5,29t11.35,38.25l-2.15,838.4c0,.93,0,1.83,0,2.7l-1,6.9a31.36,31.36,0,0,1-2,6,20.62,20.62,0,0,1-7.65,9l.5-.3c-.42.28-.86.55-1.3.8q-11.44,6.51-27.6-2.8l-500.9-289.2q-16.15-9.35-27.55-29.05t-11.3-38.25L883.07,790l0,0q130.25-106.5,144.25-110.35a5,5,0,0,1,2-1.6m-31,167.35a5.09,5.09,0,0,0,.5-.3l-2.45-1C996.59,845.56,997.24,846,998.37,845.35Z" fill="none" stroke="#fff" stroke-width="3"/><g id="af3ef9e8-386c-4621-97c3-0f17299e0906" data-name="PAPER 0 Layer0 0 MEMBER 1 FILL"><path d="M1016.57,665.05a16.3,16.3,0,0,1,1.6-1.5q10.46-8.53,32.6,3.4l390.4,225.4q16.15,9.36,27.55,29t11.3,38.25l-2.1,838.4a37.14,37.14,0,0,1-3.1,15.6,20.51,20.51,0,0,1-8.3,9.4l-16.45,9.55q7.07-4.75,9.2-14.7l1-6.9c0-.87,0-1.77,0-2.7l2.15-838.4q0-18.54-11.35-38.25t-27.5-29L1035.22,678.4a6.14,6.14,0,0,0-5.85-.4c-2.37,1.07-3.43,3.55-3.2,7.45l-.35,128.3a31.82,31.82,0,0,1-2.65,13.3,17.49,17.49,0,0,1-7,8l-17.25,10,3.85-3.25a20.69,20.69,0,0,0,4.6-9.5l.8-5.75c0-.83,0-1.68,0-2.55l.35-128.3q.26-20.15,6.6-28.9A20.08,20.08,0,0,1,1016.57,665.05Z" fill="#d4ecf6"/></g><g id="a985a84c-399f-4b02-b36c-f383ed4d103b" data-name="PAPER 0 Layer0 0 MEMBER 2 FILL"><path d="M1016.57,665.05a20.08,20.08,0,0,0-1.45,1.75q-6.35,8.75-6.6,28.9l-.35,128.3c0,.87,0,1.72,0,2.55l-.8,5.75a28,28,0,0,1-1.75,5,20.31,20.31,0,0,1-2.85,4.5l-3.85,3.25a5.09,5.09,0,0,1-.5.3q-9.75,5.55-23.5-2.35l-91.75-53Z" fill="url(#aa8dda11-dd17-4d1e-9c79-b1c2fa6db6a1)"/></g><g id="be863288-bfe7-41d9-ae37-9242906ff27f" data-name="PAPER 0 Layer0 0 MEMBER 1 FILL"><path d="M1016.57,665.05a16.3,16.3,0,0,1,1.6-1.5q10.46-8.53,32.6,3.4l390.4,225.4q16.15,9.36,27.55,29t11.3,38.25l-2.1,838.4a37.14,37.14,0,0,1-3.1,15.6,20.51,20.51,0,0,1-8.3,9.4l-16.45,9.55q7.07-4.75,9.2-14.7l1-6.9c0-.87,0-1.77,0-2.7l2.15-838.4q0-18.54-11.35-38.25t-27.5-29L1035.22,678.4a6.14,6.14,0,0,0-5.85-.4c-2.37,1.07-3.43,3.55-3.2,7.45l-.35,128.3a31.82,31.82,0,0,1-2.65,13.3,17.49,17.49,0,0,1-7,8l-17.25,10,3.85-3.25a20.69,20.69,0,0,0,4.6-9.5l.8-5.75c0-.83,0-1.68,0-2.55l.35-128.3q.26-20.15,6.6-28.9A20.08,20.08,0,0,1,1016.57,665.05Z" fill="url(#ad133f8d-7212-400b-ba82-c54ddac3ce4f)"/></g></g><g id="b1eeaff3-87dc-4697-b6b4-e4deeb9d8fda" data-name="Text Lines" opacity="0.52"><polygon points="1348.89 1291.74 1348.89 1330.74 977.38 1116.23 977.38 1077.23 1348.89 1291.74" fill="url(#b4ead2c7-6b74-48df-b55d-16941276275d)"/><polygon points="1348.89 1429.04 1348.89 1468.05 977.38 1253.54 977.38 1214.53 1348.89 1429.04" fill="url(#a7764cf9-094d-4876-bf6c-1b75f378ef6b)"/><polygon points="1348.89 1566.35 1348.89 1605.35 977.38 1390.84 977.38 1351.84 1348.89 1566.35" fill="url(#ad1d681f-9b1c-4201-8371-5f4244dbb752)"/></g></g><use width="331.34" height="402.92" transform="translate(1281.43 833.24)" xlink:href="#a79ebb4d-b9a2-423e-aee7-881ee9c91b94"/></svg>