<svg xmlns="http://www.w3.org/2000/svg" xmlns:xlink="http://www.w3.org/1999/xlink" viewBox="0 0 2500 2500"><defs><linearGradient id="a8077348-7e80-4623-9d5c-4b8dc165871c" x1="85" y1="85.23" x2="323.32" y2="496.25" gradientUnits="userSpaceOnUse"><stop offset="0" stop-color="#fafbfc"/><stop offset="0.05" stop-color="#fafbfc"/><stop offset="0.2" stop-color="#f8fafb"/><stop offset="0.34" stop-color="#a0d7ef"/><stop offset="0.67" stop-color="#a2d8ef"/><stop offset="0.79" stop-color="#a9dbf0"/><stop offset="0.87" stop-color="#b4dff1"/><stop offset="0.94" stop-color="#c5e6f3"/></linearGradient><linearGradient id="a0b98871-f94b-429e-a3ec-abde41ba7253" x1="15.87" y1="129.34" x2="111.28" y2="581.22" gradientUnits="userSpaceOnUse"><stop offset="0" stop-color="#c8e8f5"/><stop offset="0.82" stop-color="#bce3f5"/><stop offset="1" stop-color="#b4d0dd"/></linearGradient><linearGradient id="fbaee9f7-eba0-4ec6-b518-00a708fc6562" x1="-15.84" y1="466.51" x2="221.1" y2="146.51" gradientUnits="userSpaceOnUse"><stop offset="0" stop-color="#fafbfc"/><stop offset="0.55" stop-color="#f5f8fa"/><stop offset="1" stop-color="#d4ecf6"/></linearGradient><linearGradient id="a9d71b20-829e-43d4-a1f4-30bd01e43f5a" x1="25.33" y1="343.24" x2="137.53" y2="345.89" gradientUnits="userSpaceOnUse"><stop offset="0" stop-color="#fafbfc" stop-opacity="0"/><stop offset="0.09" stop-color="#f9fbfc" stop-opacity="0.02"/><stop offset="0.21" stop-color="#f7fafc" stop-opacity="0.08"/><stop offset="0.34" stop-color="#f3f8fb" stop-opacity="0.18"/><stop offset="0.48" stop-color="#eef6fa" stop-opacity="0.33"/><stop offset="0.62" stop-color="#e7f3f9" stop-opacity="0.51"/><stop offset="0.77" stop-color="#def0f8" stop-opacity="0.73"/><stop offset="0.92" stop-color="#d4ecf6" stop-opacity="0.99"/><stop offset="0.92" stop-color="#d4ecf6"/></linearGradient><linearGradient id="aed1b834-5587-4f50-b18e-28e37e38839d" x1="90.41" y1="414.09" x2="77.32" y2="445.32" gradientUnits="userSpaceOnUse"><stop offset="0.01" stop-color="#141226" stop-opacity="0.2"/><stop offset="1" stop-color="#141226" stop-opacity="0"/></linearGradient><linearGradient id="ae3e744a-6529-4b53-9843-00e227e72851" x1="54.64" y1="378.97" x2="103.79" y2="431.54" gradientUnits="userSpaceOnUse"><stop offset="0.5" stop-color="#b581a7"/><stop offset="0.59" stop-color="#a77399"/><stop offset="0.75" stop-color="#824f74"/></linearGradient><linearGradient id="fca97d94-c718-4e8f-aa35-339f4dd1fd6a" x1="90.36" y1="469.74" x2="76.45" y2="502.92" xlink:href="#aed1b834-5587-4f50-b18e-28e37e38839d"/><linearGradient id="b94e3302-89ee-4f43-972c-3a870554317f" x1="54.64" y1="436.16" x2="103.79" y2="488.73" gradientUnits="userSpaceOnUse"><stop offset="0.5" stop-color="#9199ba"/><stop offset="0.59" stop-color="#838cb1"/><stop offset="0.75" stop-color="#5f6c9c"/></linearGradient><linearGradient id="ecd149a4-2f87-4aba-ab38-5eb5aecf3067" x1="-17.38" y1="929.85" x2="-136.59" y2="962.66" gradientTransform="matrix(-0.95, 0.32, 0.32, 0.95, 487.25, 98.53)" gradientUnits="userSpaceOnUse"><stop offset="0" stop-color="#52d6ff" stop-opacity="0.1"/><stop offset="0.02" stop-color="#45cffa" stop-opacity="0.1"/><stop offset="0.15" stop-color="#20bcec" stop-opacity="0.1"/><stop offset="0.87" stop-color="#0071b0" stop-opacity="0.3"/></linearGradient><linearGradient id="a8e97a27-55c1-4749-8ef3-5705951c04ce" x1="695.09" y1="983.95" x2="1185" y2="1157.03" gradientUnits="userSpaceOnUse"><stop offset="0" stop-color="#52d6ff" stop-opacity="0"/><stop offset="0.07" stop-color="#3fccf8" stop-opacity="0.04"/><stop offset="0.22" stop-color="#28c0ef" stop-opacity="0.08"/><stop offset="0.37" stop-color="#20bcec" stop-opacity="0.1"/><stop offset="0.86" stop-color="#0071b0" stop-opacity="0.6"/></linearGradient><linearGradient id="a6846f02-ac9b-46d4-b9e9-21f65f560bea" x1="359.88" y1="1394.37" x2="960.29" y2="1595.81" xlink:href="#a8e97a27-55c1-4749-8ef3-5705951c04ce"/><linearGradient id="f8f9e3ce-94d5-4787-b8e1-a7613ce63286" x1="358.27" y1="1399.15" x2="958.68" y2="1600.59" xlink:href="#a8e97a27-55c1-4749-8ef3-5705951c04ce"/><filter id="a47d027c-e062-4591-91d7-d9694df91b92" name="AI_DesenfoqueGaussiano_4"><feGaussianBlur stdDeviation="4"/></filter><linearGradient id="b27e4ef7-bab8-40e9-9d9f-685dfe7eb404" x1="1934.69" y1="1806.31" x2="931.77" y2="1806.31" gradientUnits="userSpaceOnUse"><stop offset="0.12" stop-color="#141226" stop-opacity="0"/><stop offset="0.39" stop-color="#141226" stop-opacity="0.2"/><stop offset="0.78" stop-color="#141226" stop-opacity="0.3"/><stop offset="1" stop-color="#141226" stop-opacity="0"/></linearGradient><linearGradient id="a865a3c8-a3bd-4ee2-9ced-f76f7ec99dcf" x1="1041.37" y1="1125.12" x2="1151.36" y2="1310.65" gradientUnits="userSpaceOnUse"><stop offset="0" stop-color="#065486" stop-opacity="0"/><stop offset="0.23" stop-color="#065486" stop-opacity="0.05"/><stop offset="0.55" stop-color="#065486" stop-opacity="0.18"/><stop offset="0.78" stop-color="#065486" stop-opacity="0.3"/><stop offset="1" stop-color="#065486" stop-opacity="0"/></linearGradient><linearGradient id="ac57e8f1-8336-440e-8bde-4cdf2cfe8e0e" x1="1196.32" y1="1080.29" x2="1594.87" y2="1767.66" xlink:href="#a8077348-7e80-4623-9d5c-4b8dc165871c"/><linearGradient id="ee3f8bfb-9558-4fbd-a81d-e5aeceb7329b" x1="1095.07" y1="1140.03" x2="1256.8" y2="1906" xlink:href="#a0b98871-f94b-429e-a3ec-abde41ba7253"/><linearGradient id="bed60794-744a-4e89-9d24-8076039d7b67" x1="1041.93" y1="1711.95" x2="1425.16" y2="1194.4" xlink:href="#fbaee9f7-eba0-4ec6-b518-00a708fc6562"/><linearGradient id="a269ebff-04aa-4407-9cce-3909508f34ba" x1="1116.54" y1="1511.49" x2="1291.46" y2="1517.68" gradientUnits="userSpaceOnUse"><stop offset="0" stop-color="#fafbfc" stop-opacity="0"/><stop offset="0.09" stop-color="#f9fbfc" stop-opacity="0.03"/><stop offset="0.22" stop-color="#f6fafb" stop-opacity="0.1"/><stop offset="0.37" stop-color="#f2f8fb" stop-opacity="0.22"/><stop offset="0.54" stop-color="#ebf5fa" stop-opacity="0.38"/><stop offset="0.72" stop-color="#e3f2f8" stop-opacity="0.6"/><stop offset="0.9" stop-color="#daeef7" stop-opacity="0.85"/><stop offset="1" stop-color="#d4ecf6"/></linearGradient><linearGradient id="bf0dac72-c8a2-454d-a1fc-ad32abed58d5" x1="1197.05" y1="1299.11" x2="1207.65" y2="1366.69" xlink:href="#aed1b834-5587-4f50-b18e-28e37e38839d"/><linearGradient id="bcc35b35-8b98-4984-8584-f497190675cd" x1="1173.09" y1="1283.02" x2="1205.78" y2="1337.8" gradientUnits="userSpaceOnUse"><stop offset="0.22" stop-color="#529dac"/><stop offset="0.45" stop-color="#4c8ea6"/><stop offset="0.89" stop-color="#3b6597"/><stop offset="1" stop-color="#365a93"/></linearGradient><linearGradient id="bd9f8787-bd5a-475d-9f47-d8b4517ee2a9" x1="1108.04" y1="1281.24" x2="1252.49" y2="1362.08" gradientTransform="translate(823.48 -408.78) rotate(30.36)" gradientUnits="userSpaceOnUse"><stop offset="0" stop-color="#63bdcf"/><stop offset="0.2" stop-color="#60b5cc"/><stop offset="0.52" stop-color="#569ec5"/><stop offset="0.91" stop-color="#4779b9"/><stop offset="1" stop-color="#436fb6"/></linearGradient><linearGradient id="a1308a09-9cc2-4469-b33c-52a5a6da82d8" x1="1716.39" y1="1288" x2="1698.13" y2="1500.03" gradientUnits="userSpaceOnUse"><stop offset="0.01" stop-color="#12abbb"/><stop offset="0.22" stop-color="#0ca0b3"/><stop offset="0.67" stop-color="#038ea6"/><stop offset="1" stop-color="#0088a1"/></linearGradient><linearGradient id="ada24bed-ff25-44b1-a671-c1d43285861b" x1="1752.17" y1="1186.93" x2="1864.96" y2="1117.44" gradientUnits="userSpaceOnUse"><stop offset="0.01" stop-color="#12abbb"/><stop offset="0.31" stop-color="#099aae"/><stop offset="0.67" stop-color="#028da4"/><stop offset="1" stop-color="#0088a1"/></linearGradient><linearGradient id="b52da52a-157a-45c8-b594-cdbc5d5925e8" x1="1576.03" y1="1396.27" x2="1674.38" y2="1196.32" gradientUnits="userSpaceOnUse"><stop offset="0.01" stop-color="#12abbb"/><stop offset="0.31" stop-color="#11a9ba"/><stop offset="0.41" stop-color="#0ea2b5"/><stop offset="0.49" stop-color="#0797ac"/><stop offset="0.55" stop-color="#0088a1"/><stop offset="0.98" stop-color="#0088a1"/><stop offset="1" stop-color="#0088a1"/></linearGradient><linearGradient id="e3bc6d6c-80ae-43d9-9139-e2dfbb3265f0" x1="1703.94" y1="1152.55" x2="1773.17" y2="1023.28" xlink:href="#b52da52a-157a-45c8-b594-cdbc5d5925e8"/><symbol id="bff7c627-6216-4abf-ba7e-4498fef0e86d" data-name="sidetower" viewBox="0 0 337 580.17"><path d="M305.18,39.45,244.43,4.38c-8.87-5.12-16.91-5.6-22.71-2.23L10.28,125c5.8-3.37,110.73,449.65,105,453L326.72,455.14c5.73-3.33,9.29-10.41,9.32-20.48l1-340.1C337.06,74.39,322.74,49.59,305.18,39.45Z" fill="url(#a8077348-7e80-4623-9d5c-4b8dc165871c)"/><path d="M106.89,574.67c-3.44,0-7.44-1.26-11.57-3.65L34.57,536C18.76,526.82,5.45,503.77,5.5,485.62l1-340.1c0-10.74,4.6-17.15,12.21-17.15,3.44,0,7.45,1.26,11.57,3.65L91,167.09c15.81,9.13,29.12,32.18,29.07,50.33l-1,340.1C119.07,568.26,114.5,574.67,106.89,574.67Z" fill="url(#a0b98871-f94b-429e-a3ec-abde41ba7253)"/><path d="M24.66,137.36V475.69A51.23,51.23,0,0,0,50.26,520l69.8,40.3V189.13L96.52,163,37.75,129.73A8.77,8.77,0,0,0,24.66,137.36Z" fill="url(#fbaee9f7-eba0-4ec6-b518-00a708fc6562)"/><path d="M24.66,137.36V475.69A51.23,51.23,0,0,0,50.26,520l69.8,40.3V189.13L96.52,163,37.75,129.73A8.77,8.77,0,0,0,24.66,137.36Z" fill="url(#a9d71b20-829e-43d4-a1f4-30bd01e43f5a)"/><polygon points="104.32 419.39 118.12 469.79 61.46 438.14 48.33 392.67 104.32 419.39" fill="url(#aed1b834-5587-4f50-b18e-28e37e38839d)"/><path d="M104.3,424.19c0,5.18-1.68,8.88-4.36,10.56l-.39.23-7.29,4.4-7.78-9L48.4,388.59l-2.73-3.17,6.82-4.17a6.78,6.78,0,0,1,3.65-1,10.54,10.54,0,0,1,5.25,1.58L91.08,399C98.38,403.16,104.3,414.46,104.3,424.19Z" fill="url(#ae3e744a-6529-4b53-9843-00e227e72851)"/><path d="M83.42,438.79,53.73,421.65c-7.3-4.22-13.22-15.52-13.22-25.25h0c0-9.73,5.92-14.2,13.22-10l29.69,17.15c7.3,4.21,13.22,15.51,13.22,25.24h0C96.64,438.53,90.72,443,83.42,438.79Z" fill="#d195c1"/><polygon points="103.31 474.41 118.12 528.23 61.46 496.57 47.32 447.69 103.31 474.41" fill="url(#fca97d94-c718-4e8f-aa35-339f4dd1fd6a)"/><path d="M104.3,481.38c0,5.18-1.68,8.88-4.36,10.56l-.39.23-7.29,4.4-7.78-9L48.4,445.78l-2.73-3.17,6.82-4.17a6.78,6.78,0,0,1,3.65-1A10.54,10.54,0,0,1,61.39,439l29.69,17.15C98.38,460.35,104.3,471.65,104.3,481.38Z" fill="url(#b94e3302-89ee-4f43-972c-3a870554317f)"/><path d="M83.42,496,53.73,478.84c-7.3-4.22-13.22-15.52-13.22-25.25h0c0-9.73,5.92-14.2,13.22-10l29.69,17.14C90.72,465,96.64,476.26,96.64,486h0C96.64,495.72,90.72,500.2,83.42,496Z" fill="#aab2dc"/><path d="M18.67,133.87h0c1.73,0,4.66.51,8.82,2.91l60.75,35.07c14.07,8.12,26.37,29.41,26.32,45.56l-1,340.09c0,5.86-1.58,8.68-2.51,9.83a4.85,4.85,0,0,1-4.2,1.84c-1.73,0-4.66-.51-8.82-2.91L37.32,531.19C23,522.92,11,502.06,11,485.63l1-340.09c0-5.86,1.58-8.67,2.52-9.83a4.84,4.84,0,0,1,4.19-1.84m0-11C8.21,122.88,1,131.16,1,145.5L0,485.6c-.06,20.26,14.19,44.94,31.82,55.11l60.75,35.08c5.15,3,10,4.38,14.32,4.38,10.46,0,17.67-8.29,17.71-22.63l1-340.1c.06-20.18-14.26-45-31.82-55.11L33,127.25c-5.14-3-10-4.38-14.32-4.38Z" fill="#fafbfc"/></symbol></defs><g style="isolation:isolate"><g id="e106ad0c-530c-42ad-9a03-15b528b51f1a" data-name="Plant"><g id="af81ec52-9bc7-4cd4-bba2-34f5744492ed" data-name="Plant"><g id="b860833f-c8fc-4880-8f77-4d3e926912e9" data-name="Layer1 8 MEMBER 0 FILL"><path d="M1049.11,1583l-6.85,3.71q-49-84-51.74-248.27l17.28-17.88q-16.27,124.68,41.31,262.44m-138-146.41,3.88-4q60.12,78.87,88.29,160.07l-12,4Q969,1518.1,911.09,1436.56Z" fill="#0b97c2"/></g><g id="fdaca1a0-4e2f-459e-82d6-d2761888122f" data-name="Layer1 8 MEMBER 1 FILL"><path d="M874,879.2q80.9,300.67,97.83,650.27Q732.41,1357.42,632,1007.4,531.62,657.23,667,419,827.8,707.62,874,879.2Z" fill="#52d6ff"/></g><g id="b240c5c7-9acc-4b68-be63-74f6d878a92c" data-name="Layer1 8 MEMBER 1 FILL"><path d="M874,879.2q80.9,300.67,97.83,650.27Q732.41,1357.42,632,1007.4,531.62,657.23,667,419,827.8,707.62,874,879.2Z" fill="url(#ecd149a4-2f87-4aba-ab38-5eb5aecf3067)"/></g><g id="a225ab4f-a944-47a1-8242-97b3525027e5" data-name="Layer1 8 MEMBER 2 FILL"><path d="M1033.75,609q95.73,127.65,110.77,305T1038.9,1299.5q-50.85,108-25.82,206.48-43.64-64.12-82.94-200.46t-4.86-326.61Q945.34,794.83,1033.75,609Z" fill="#20bcec"/></g><path d="M1039.55,601.36h0l.12,0-.12,0M1014.73,980v.4q35.52-195.92,28.91-300,11.68,127.7-14.23,302.16a.41.41,0,0,0,0,.27q-48.51,251.63-18.14,397.13a292.46,292.46,0,0,0-6.43,57.58Q939.28,1301.9,1014.73,980Z" fill="#00a7d4"/><path d="M972.89,1530.55q-5.79-4.17-11.52-8.42c-132.83-260.2-250-792.24-294.45-1084.37,60.81,306.18,178.42,778.44,303.25,1064.47C971.13,1511.67,972,1521.11,972.89,1530.55Z" fill="#00a7d4"/><g id="a02710ee-573a-431c-9603-0ae12faa9451" data-name="Layer1 8 MEMBER 2 FILL"><path d="M598.14,1370.49c144.37.88,333.43,108.56,401.12,232.12,21.51,39.26,8.94-7.3,28.94,15C858.16,1627,656.46,1537.65,598.14,1370.49Z" fill="#20bcec"/></g><path d="M973.93,1602.38a104.28,104.28,0,0,0-2.28-12.88C849.43,1524.83,729.8,1455.62,612.12,1383c118.71,76.28,238.89,150.17,361.82,219.48A.61.61,0,0,1,973.93,1602.38Z" fill="#00a7d4"/><g style="mix-blend-mode:multiply"><path d="M1038.9,1299.5Q1159.44,1091.36,1144.52,914T1033.75,609Q945.34,794.82,925.28,978.91q-6.85,37.8-10.79,73.45Q896.77,963.85,874,879.2,827.8,707.63,667,419,531.63,657.24,632,1007.4q98.17,342.11,329.13,514.19l.27.54,1.68,1.22a460.33,460.33,0,0,1,23.88,58.94c-76.14-114.81-252.4-211-388.79-211.8,56.23,161.17,245.75,249.94,411.66,247.71-2.16-1.66-5.36-6.12-10.54-15.59-1.34-2.44-2.74-4.87-4.17-7.29l8.17-2.72A513.54,513.54,0,0,0,972,1521.08q-.62-6.54-1.26-13.08-2.78-51-6.93-101,21.78,56.21,44.77,92.14,12.52,51.25,33.68,87.55l6.85-3.71q-36.1-86.37-43.17-167.59Q1011,1358.86,1038.9,1299.5Z" fill="url(#a8e97a27-55c1-4749-8ef3-5705951c04ce)"/><path d="M1013.24,1618.15q7.51-.17,15-.56C1016.56,1604.63,1016,1615,1013.24,1618.15Z" fill="url(#a6846f02-ac9b-46d4-b9e9-21f65f560bea)"/><path d="M1013.24,1618.15l-3.44,0C1011.39,1619.42,1012.41,1619.12,1013.24,1618.15Z" fill="url(#f8f9e3ce-94d5-4787-b8e1-a7613ce63286)"/></g></g></g><g id="ec4cd5b3-42ed-441e-a672-cfcb53753a02" data-name="Layer 1"><g filter="url(#a47d027c-e062-4591-91d7-d9694df91b92)"><path d="M1488,1965.23l181.17-6.77a301.07,301.07,0,0,0,183-70.81l86.8-73.27c46.93-39.62,21.09-116.24-40.25-119.35l-941.52-47.71-17,7.25a9,9,0,0,0-1,16l167.47,98.53-22.84,10.35a10.34,10.34,0,0,0-1,18.34l149.66,87.63a82.37,82.37,0,0,0,39.14,11.25l66.1,2L1431,1951.4A107.57,107.57,0,0,0,1488,1965.23Z" fill="url(#b27e4ef7-bab8-40e9-9d9f-685dfe7eb404)"/></g><use width="337" height="580.17" transform="translate(918.61 986.37) scale(1.28)" xlink:href="#bff7c627-6216-4abf-ba7e-4498fef0e86d"/><path d="M1350,1107.43l-1.23,435.39c0,12.89-4.59,22-11.93,26.21l-270.24,157c7.08-4.37,11.45-13.33,11.48-26l1.24-435.38c.07-25.83-18.26-57.58-40.74-70.56l-77.77-44.9c-6.59-3.8-12.81-5.61-18.33-5.61a21.37,21.37,0,0,0-10.21,2.45l270.14-157c7.44-4.32,17.73-3.71,29.08,2.84l77.77,44.91C1331.77,1049.85,1350.1,1081.6,1350,1107.43Z" fill="url(#a865a3c8-a3bd-4ee2-9ced-f76f7ec99dcf)"/><g id="a3cb9606-2f27-4fd8-814f-9fd252cd1e90" data-name="CenterTorwer"><path d="M1556.68,1045.1l-137.94-79.64c-11.81-6.82-22.56-7.43-30.34-2.91L1076.22,1144c7.77-4.52,204.43,740.88,196.77,745.34l312.19-181.43c7.66-4.45,12.41-13.92,12.45-27.37l1.59-561.73C1599.3,1091.81,1580.15,1058.65,1556.68,1045.1Z" fill="url(#ac57e8f1-8336-440e-8bde-4cdf2cfe8e0e)"/><path d="M1244.49,1226.52c23.48,13.55,42.62,46.71,42.54,73.69l-1.59,561.72c-.08,27.09-19.25,38-42.82,24.4l-137.94-79.64c-23.57-13.6-42.62-46.6-42.54-73.68l1.59-561.73c.08-27,19.35-38,42.82-24.4Z" fill="url(#ee3f8bfb-9558-4fbd-a81d-e5aeceb7329b)"/><path d="M1094.05,1178.29v555a50.3,50.3,0,0,0,24.85,43.39l155.08,91,4.7-586.59-19.79-33.93-138.16-83.89A17.56,17.56,0,0,0,1094.05,1178.29Z" fill="url(#bed60794-744a-4e89-9d24-8076039d7b67)"/><path d="M1094.05,1178.29v555a50.3,50.3,0,0,0,24.85,43.39l155.08,91,4.7-586.59-19.79-33.93-138.16-83.89A17.56,17.56,0,0,0,1094.05,1178.29Z" fill="url(#a269ebff-04aa-4407-9cce-3909508f34ba)"/><path d="M1243.52,1241.45c16.47,9.51,29.88,32.62,29.88,51.5l-2.57,561.72c0,18.89-13.4,26.51-29.88,17l-136.5-78.81c-16.48-9.51-29.88-32.61-29.88-51.5l2.57-561.72c0-18.89,13.4-26.51,29.88-17l136.5,78.81m0-15.63L1107,1147c-23.94-13.82-43.52-2.68-43.52,24.76l-2.57,561.72c0,27.43,19.59,61.19,43.52,75l136.5,78.81c23.94,13.81,43.52,2.67,43.52-24.76l2.56-561.72c0-27.44-19.58-61.19-43.51-75Z" fill="#fafbfc"/><polygon points="1206.25 1292.33 1263.91 1408.35 1181.54 1371.93 1148.62 1307.4 1206.25 1292.33" fill="url(#bf0dac72-c8a2-454d-a1fc-ad32abed58d5)"/><ellipse cx="1181.54" cy="1303.46" rx="26.99" ry="46.76" transform="translate(-496.78 775.95) rotate(-30.36)" fill="none" stroke="#022e49" stroke-width="7" opacity="0.15"/><ellipse cx="1181.54" cy="1303.46" rx="26.99" ry="46.76" transform="translate(-496.78 775.95) rotate(-30.36)" fill="none" stroke="#022e49" stroke-width="4" opacity="0.41"/><ellipse cx="1181.54" cy="1303.46" rx="26.99" ry="46.76" transform="translate(-496.78 775.95) rotate(-30.36)" fill="none" stroke="#022e49" stroke-width="2" opacity="0.72"/><path d="M1214.72,1322.61c0,10.56-3.75,17.94-9.81,21.34l-.21.12-17,9.92-7.27-13.13-32.08-58-5.81-10.49,15.78-9.28h0c5.43-3.32,13.12-3.51,23.17,2.29C1199.87,1276,1214.72,1301.6,1214.72,1322.61Z" fill="url(#bcc35b35-8b98-4984-8584-f497190675cd)"/><ellipse cx="1165.05" cy="1313.14" rx="26.99" ry="46.76" transform="translate(-503.94 768.94) rotate(-30.36)" fill="url(#bd9f8787-bd5a-475d-9f47-d8b4517ee2a9)"/><g opacity="0.25"><path d="M1150.4,1270.49v2h0c4.06,0,8.66,1.46,13.65,4.35,17.74,10.24,32.18,35.12,32.18,55.46,0,13.23-6.24,21.44-16.28,21.44-4.23,0-9-1.48-13.9-4.29-17.75-10.25-32.19-35.13-32.19-55.47,0-10.67,5.68-21.49,16.54-21.49v-2m0,0c-12.5,0-18.53,12.38-18.53,23.49,0,21,14.86,46.62,33.19,57.2,5.36,3.1,10.42,4.56,14.9,4.56,10.84,0,18.28-8.58,18.28-23.44,0-21-14.86-46.62-33.18-57.2-5.62-3.24-10.49-4.61-14.66-4.61Z" fill="#95eee5"/></g></g><use width="337" height="580.17" transform="translate(1316.33 1214.62) scale(1.28)" xlink:href="#bff7c627-6216-4abf-ba7e-4498fef0e86d"/></g><g id="a91ca25f-da66-4cea-b619-93c2a865df69" data-name="PlusTeal"><g id="f77bf199-763d-4eb6-9756-ebcd48c2481f" data-name="+ Teal"><g style="isolation:isolate"><path d="M1721.49,1424.2l-.34-121.85L1696.48,1288l.34,121.86c0,2.8,1,4.76,2.59,5.69l24.67,14.33C1722.49,1429,1721.5,1427,1721.49,1424.2Z" fill="url(#a1308a09-9cc2-4469-b33c-52a5a6da82d8)"/><path d="M1885.22,1093.88c-1.62-.94-3.85-.8-6.32.62l-106.05,61.23,24.67,14.33,106-61.22c2.47-1.43,4.7-1.56,6.32-.62Z" fill="url(#ada24bed-ff25-44b1-a671-c1d43285861b)"/><path d="M1696.23,1200l-106,61.22c-4.9,2.83-8.86,9.7-8.85,15.33l.2,67.64c0,2.8,1,4.77,2.59,5.7l24.66,14.33c-1.59-.93-2.58-2.89-2.59-5.69l-.19-67.64c0-5.64,3.94-12.5,8.85-15.33l106.05-61.23Z" fill="url(#b52da52a-157a-45c8-b594-cdbc5d5925e8)"/><path d="M1788.27,1043.13c4.9-2.83,8.89-.56,8.9,5.07l.35,121.86,106-61.22c4.9-2.84,8.89-.56,8.91,5.07l.19,67.64c0,5.63-4,12.5-8.85,15.33l-106,61.23.34,121.86c0,5.63-3.94,12.49-8.84,15.32l-58.87,34c-4.9,2.84-8.89.57-8.91-5.07l-.34-121.85-106.05,61.22c-4.91,2.83-8.89.56-8.91-5.07l-.19-67.64c0-5.64,3.94-12.5,8.85-15.33l106.05-61.23-.35-121.86c0-5.63,4-12.49,8.85-15.32Z" fill="#4dd2d2"/><path d="M1769.92,1028.18c-1.62-.94-3.85-.81-6.32.61l-58.86,34c-4.91,2.83-8.87,9.69-8.86,15.33l.35,121.86,24.67,14.33-.35-121.86c0-5.63,4-12.49,8.85-15.32l58.87-34c2.47-1.42,4.7-1.56,6.32-.62Z" fill="url(#e3bc6d6c-80ae-43d9-9139-e2dfbb3265f0)"/></g></g></g></g></svg>