<?xml version="1.0" encoding="UTF-8"?><svg id="Artwork" xmlns="http://www.w3.org/2000/svg" xmlns:xlink="http://www.w3.org/1999/xlink" viewBox="0 0 2500 2500"><defs><style>.cls-1{fill:#9aa8b1;}.cls-1,.cls-2,.cls-3,.cls-4,.cls-5,.cls-6,.cls-7,.cls-8,.cls-9,.cls-10,.cls-11,.cls-12,.cls-13,.cls-14,.cls-15,.cls-16,.cls-17,.cls-18,.cls-19,.cls-20,.cls-21,.cls-22,.cls-23,.cls-24,.cls-25,.cls-26,.cls-27,.cls-28,.cls-29,.cls-30,.cls-31,.cls-32,.cls-33,.cls-34,.cls-35,.cls-36,.cls-37,.cls-38{stroke-width:0px;}.cls-1,.cls-16{fill-rule:evenodd;}.cls-39{opacity:.18;}.cls-2{fill:url(#Nueva_muestra_de_degradado_58-6);}.cls-2,.cls-10,.cls-17,.cls-18,.cls-20,.cls-21,.cls-24,.cls-31,.cls-36,.cls-38{fill-opacity:.17;}.cls-3{fill:url(#Degradado_sin_nombre_201);}.cls-4{fill:url(#linear-gradient);}.cls-5{fill:url(#Nueva_muestra_de_degradado_11-2);}.cls-6{fill:url(#linear-gradient-6);}.cls-7{fill:url(#Nueva_muestra_de_degradado_11);}.cls-8{fill:#333a45;}.cls-40{isolation:isolate;}.cls-9{fill:url(#Degradado_sin_nombre_97);}.cls-41{opacity:.2;}.cls-10{fill:url(#Nueva_muestra_de_degradado_58-8);}.cls-11{fill:url(#Degradado_sin_nombre_201-2);}.cls-42{opacity:.47;stroke:#333a45;stroke-width:10.23px;}.cls-42,.cls-43{fill:none;}.cls-12{fill:url(#linear-gradient-11);}.cls-13{fill:url(#linear-gradient-5);}.cls-14{fill:#85d8d1;}.cls-15{fill:url(#Degradado_sin_nombre_28);}.cls-16{fill:#ccd3d8;}.cls-17{fill:url(#Nueva_muestra_de_degradado_58-4);}.cls-18{fill:url(#Nueva_muestra_de_degradado_58-2);}.cls-19{fill:url(#linear-gradient-2);}.cls-20{fill:url(#Nueva_muestra_de_degradado_58-5);}.cls-21{fill:url(#Nueva_muestra_de_degradado_58-9);}.cls-22{fill:url(#linear-gradient-7);}.cls-44{opacity:.16;}.cls-23{fill:url(#linear-gradient-3);}.cls-24{fill:url(#Nueva_muestra_de_degradado_58);}.cls-25{fill:url(#Degradado_sin_nombre_203);}.cls-26{fill:url(#linear-gradient-9);}.cls-27{fill:url(#Degradado_sin_nombre_20);}.cls-28{fill:#39c2ec;}.cls-43{opacity:.75;stroke:#fff;stroke-width:1.48px;}.cls-29{fill:url(#linear-gradient-8);}.cls-30{fill:url(#Degradado_sin_nombre_202);}.cls-31{fill:url(#Nueva_muestra_de_degradado_58-3);}.cls-32{fill:#fff;}.cls-33{fill:url(#linear-gradient-10);}.cls-34{fill:#fafbfc;}.cls-35{fill:url(#linear-gradient-4);}.cls-36{fill:url(#Nueva_muestra_de_degradado_58-10);}.cls-37{fill:#f1f3f6;}.cls-38{fill:url(#Nueva_muestra_de_degradado_58-7);}</style><linearGradient id="linear-gradient" x1="932.41" y1="1855.87" x2="1068.15" y2="1676.27" gradientTransform="translate(142.99 -70.27) rotate(9.38)" gradientUnits="userSpaceOnUse"><stop offset="0" stop-color="#91e2db"/><stop offset=".2" stop-color="#87dad3"/><stop offset=".59" stop-color="#7cd1ca"/><stop offset="1" stop-color="#79cfc8"/></linearGradient><linearGradient id="linear-gradient-2" x1="990.48" y1="1812.21" x2="1142.93" y2="1586.67" xlink:href="#linear-gradient"/><linearGradient id="linear-gradient-3" x1="511.48" y1="1348.31" x2="912.44" y2="1174.97" gradientTransform="translate(142.99 -70.27) rotate(9.38)" gradientUnits="userSpaceOnUse"><stop offset="0" stop-color="#c2ebe8"/><stop offset="1" stop-color="#91e2db"/></linearGradient><linearGradient id="linear-gradient-4" x1="679.24" y1="1257.09" x2="885.98" y2="1127.61" gradientTransform="translate(142.99 -70.27) rotate(9.38)" gradientUnits="userSpaceOnUse"><stop offset="0" stop-color="#c2ebe8"/><stop offset=".16" stop-color="#b2e8e3"/><stop offset=".43" stop-color="#9fe4de"/><stop offset=".7" stop-color="#94e2db"/><stop offset="1" stop-color="#91e2db"/></linearGradient><linearGradient id="linear-gradient-5" x1="478.04" y1="600.81" x2="970.89" y2="790.85" xlink:href="#linear-gradient"/><linearGradient id="linear-gradient-6" x1="724.37" y1="519.1" x2="1091.29" y2="772.59" gradientTransform="translate(142.99 -70.27) rotate(9.38)" gradientUnits="userSpaceOnUse"><stop offset="0" stop-color="#91e2db"/><stop offset="1" stop-color="#79cfc8"/></linearGradient><linearGradient id="linear-gradient-7" x1="1220.67" y1="615.53" x2="1147.58" y2="763.8" xlink:href="#linear-gradient-4"/><linearGradient id="linear-gradient-8" x1="1479.89" y1="447.52" x2="1078.93" y2="704.39" xlink:href="#linear-gradient-4"/><radialGradient id="Degradado_sin_nombre_20" cx="1294.93" cy="1392.65" fx="1294.93" fy="1392.65" r="849.04" gradientTransform="translate(-818.53 -115.77) rotate(-20.98) scale(1 1.61)" gradientUnits="userSpaceOnUse"><stop offset=".36" stop-color="#43a39b" stop-opacity=".6"/><stop offset=".45" stop-color="rgba(76,176,168,.47)" stop-opacity=".47"/><stop offset=".65" stop-color="rgba(102,211,202,.15)" stop-opacity=".15"/><stop offset=".67" stop-color="#6ad8cf" stop-opacity=".1"/></radialGradient><linearGradient id="Degradado_sin_nombre_28" x1="1411.73" y1="2144.08" x2="2040.35" y2="2144.08" gradientUnits="userSpaceOnUse"><stop offset="0" stop-color="#5d7586" stop-opacity=".07"/><stop offset=".64" stop-color="rgba(93,117,134,.05)" stop-opacity=".05"/><stop offset="1" stop-color="#5d7586" stop-opacity="0"/></linearGradient><linearGradient id="Nueva_muestra_de_degradado_11" x1="940.3" y1="1180.48" x2="2013.92" y2="1332.41" gradientUnits="userSpaceOnUse"><stop offset="0" stop-color="#fafbfc"/><stop offset=".55" stop-color="#f5f8fa"/><stop offset=".99" stop-color="#e6f4fa"/><stop offset=".99" stop-color="#d4ecf6" stop-opacity=".9"/></linearGradient><linearGradient id="linear-gradient-9" x1="906.82" y1="1813.14" x2="1946.29" y2="1813.14" gradientUnits="userSpaceOnUse"><stop offset="0" stop-color="#e5f4fa"/><stop offset=".41" stop-color="#e5f4fa"/><stop offset=".51" stop-color="#d5eaf7"/><stop offset=".58" stop-color="#c8e3f5"/><stop offset=".74" stop-color="#cbe4f4"/><stop offset="1" stop-color="#cee7f5"/></linearGradient><linearGradient id="linear-gradient-10" x1="1300.25" y1="2031.95" x2="1022.6" y2="1500.17" gradientUnits="userSpaceOnUse"><stop offset="0" stop-color="#d8dee6" stop-opacity="0"/><stop offset=".41" stop-color="#d8dee6" stop-opacity=".5"/></linearGradient><linearGradient id="Degradado_sin_nombre_97" x1="1164.55" y1="1642.2" x2="1142.74" y2="2115.77" gradientUnits="userSpaceOnUse"><stop offset="0" stop-color="#fafbfc"/><stop offset=".48" stop-color="#f6f8fa"/><stop offset=".55" stop-color="#f5f8fa"/><stop offset=".99" stop-color="#e5f4fa"/></linearGradient><linearGradient id="linear-gradient-11" x1="902.45" y1="1255.25" x2="1956.38" y2="1255.25" gradientUnits="userSpaceOnUse"><stop offset="0" stop-color="#e5f4fa"/><stop offset=".36" stop-color="#e5f4fa"/><stop offset=".45" stop-color="#d5eaf7"/><stop offset=".54" stop-color="#c8e3f5"/><stop offset=".74" stop-color="#cbe4f4"/><stop offset="1" stop-color="#cee7f5"/></linearGradient><linearGradient id="Nueva_muestra_de_degradado_11-2" x1="933.44" y1="923.7" x2="2028.59" y2="1078.68" xlink:href="#Nueva_muestra_de_degradado_11"/><linearGradient id="Nueva_muestra_de_degradado_58" x1="969.38" y1="1288.63" x2="1323.69" y2="1288.63" gradientUnits="userSpaceOnUse"><stop offset="0" stop-color="#00b287"/><stop offset=".33" stop-color="#08ad9f"/><stop offset="1" stop-color="#1da1dc"/></linearGradient><linearGradient id="Nueva_muestra_de_degradado_58-2" x1="978" y1="1284.32" y2="1284.32" xlink:href="#Nueva_muestra_de_degradado_58"/><linearGradient id="Nueva_muestra_de_degradado_58-3" y1="2128.62" x2="1244.36" y2="2128.62" xlink:href="#Nueva_muestra_de_degradado_58"/><linearGradient id="Nueva_muestra_de_degradado_58-4" x1="1262.4" y1="2236.1" y2="2236.1" xlink:href="#Nueva_muestra_de_degradado_58"/><linearGradient id="Nueva_muestra_de_degradado_58-5" x1="978" y1="2124.3" x2="1244.36" y2="2124.3" xlink:href="#Nueva_muestra_de_degradado_58"/><linearGradient id="Nueva_muestra_de_degradado_58-6" x1="1271.01" y1="2231.79" y2="2231.79" xlink:href="#Nueva_muestra_de_degradado_58"/><linearGradient id="Nueva_muestra_de_degradado_58-7" y1="2037.97" x2="1244.36" y2="2037.97" xlink:href="#Nueva_muestra_de_degradado_58"/><linearGradient id="Nueva_muestra_de_degradado_58-8" x1="1262.4" y1="2145.46" y2="2145.46" xlink:href="#Nueva_muestra_de_degradado_58"/><linearGradient id="Nueva_muestra_de_degradado_58-9" x1="978" y1="2033.65" x2="1244.36" y2="2033.65" xlink:href="#Nueva_muestra_de_degradado_58"/><linearGradient id="Nueva_muestra_de_degradado_58-10" x1="1271.01" y1="2141.14" y2="2141.14" xlink:href="#Nueva_muestra_de_degradado_58"/><linearGradient id="Degradado_sin_nombre_203" x1="1901.13" y1="1089.91" x2="1875.67" y2="1385.6" gradientUnits="userSpaceOnUse"><stop offset="0" stop-color="#0071b0"/><stop offset=".37" stop-color="#0e89c6"/><stop offset=".73" stop-color="#199ad6"/><stop offset="1" stop-color="#1da1dc"/></linearGradient><linearGradient id="Degradado_sin_nombre_202" x1="1951.04" y1="948.96" x2="2108.33" y2="852.04" gradientUnits="userSpaceOnUse"><stop offset="0" stop-color="#0071b0"/><stop offset=".1" stop-color="#0479b7"/><stop offset=".42" stop-color="#128fcb"/><stop offset=".72" stop-color="#1a9cd7"/><stop offset="1" stop-color="#1da1dc"/></linearGradient><linearGradient id="Degradado_sin_nombre_201" x1="1705.39" y1="1240.9" x2="1842.55" y2="962.06" gradientUnits="userSpaceOnUse"><stop offset="0" stop-color="#0071b0"/><stop offset=".29" stop-color="#0172b1"/><stop offset=".39" stop-color="#0579b7"/><stop offset=".46" stop-color="#0c85c2"/><stop offset=".52" stop-color="#1696d2"/><stop offset=".55" stop-color="#1da1dc"/><stop offset=".98" stop-color="#1da1dc"/><stop offset="1" stop-color="#1da1dc"/></linearGradient><linearGradient id="Degradado_sin_nombre_201-2" x1="1883.77" y1="901.02" x2="1980.32" y2="720.74" xlink:href="#Degradado_sin_nombre_201"/></defs><g id="Plant2"><path class="cls-4" d="M595.48,1870.91c129.19,7.21,315.91-52.52,495.36-55.02,5.32-.07-12.79-26.53-7.46-26.57-373.13-99.05-466.8,32.06-486.93,75.42-.82,1.78-1.12,3.9-.97,6.18Z"/><path class="cls-19" d="M1107.27,1831.53l-20.46-41.31c-1.14-.31-2.29-.62-3.42-.91-185.06,1.26-365.89,25.13-487.9,81.59.46,7.14,5.38,15.76,12.19,19.79,113.31,67.1,499.6-59.16,499.6-59.16Z"/><path class="cls-23" d="M1107.54,1820.15c-301.33,103.21-969.82-416.28-890.49-1071.29,59.64,178.2,143.99,391.38,286.97,552.03,211.58,237.68,447.63,430.83,604.58,475.37,13.6,21.57,16.08,38.02-1.07,43.88Z"/><path class="cls-35" d="M1108.6,1776.27c-156.95-44.55-393-237.69-604.58-475.37-142.98-160.65-227.33-373.83-286.97-552.03.17-1.52.36-3.03.55-4.55,8.77-69.43,405.1,361.52,697.1,847.03,0,0,151.38,117.47,193.91,184.92Z"/><path class="cls-13" d="M1143.82,1285.87c-93.59,58.69-235.35,140.35-235.35,140.35C338.71,844.41,634.87,254.72,702.46,138.6c4.22-7.25,11.29-11.88,19.01-13.21,70.11,213.83,144.47,734.95,422.35,1160.47Z"/><path class="cls-6" d="M1256.9,1214.78c-20.9,3.79-86.71,42.37-155.59,85.57C823.42,874.82,749.68,363.3,721.47,125.4c5.44-.94,11.2-.24,16.53,2.34,296.37,143.7,714.46,1051.57,518.89,1087.04Z"/><path class="cls-22" d="M1523.37,327.24c-76.21,187.49-277.56,459.72-399.68,720.38-3.62,7.73-26.03-18.1-29.61-10.35,118.35-540.13,350.91-678.49,420.62-708.51,2.86-1.23,5.82-1.7,8.67-1.51Z"/><path class="cls-29" d="M1133.15,1071.21l-40.16-28.99c.36-1.65.71-3.31,1.08-4.95,124.23-268.79,275.05-531.82,429.3-710.03,8.98.55,16.93,7.54,17.66,17.35,12.21,163.37-407.87,726.61-407.87,726.61Z"/><path class="cls-27" d="M1108.6,1776.27c13.6,21.57,16.08,38.02-1.07,43.88-1.68.58-3.39,1.11-5.09,1.65l4.82,9.74s-386.28,126.26-499.6,59.16c-6.81-4.03-11.72-12.64-12.19-19.79-.15-2.28.14-4.39.97-6.18,12.5-26.92,53.37-87.67,171.86-106.15-295.19-158.24-606.86-550.69-551.27-1009.72.17-1.52.36-3.03.55-4.55,8.77-69.43,405.1,361.52,697.1,847.03,0,0,151.38,117.47,193.91,184.92ZM1541.03,344.6c-.73-9.81-8.68-16.8-17.66-17.35-2.86-.18-5.81.29-8.67,1.51-53.86,23.19-204.92,111.06-325.42,398.9-116.9-253.97-299.95-526.56-451.28-599.93-5.33-2.58-11.09-3.28-16.53-2.34-7.72,1.33-14.8,5.96-19.01,13.21-67.59,116.12-363.75,705.8,206.01,1287.62,0,0,141.76-81.66,235.35-140.35-1.84-2.81-3.66-5.64-5.48-8.46,54.3-33.15,101.46-59.53,118.56-62.63,72.97-13.23,60.5-147.93.8-319.07,122.79-179.65,291.12-446.83,283.33-551.11Z"/></g><g id="vCenter"><polygon class="cls-15" points="1414.6 2375 2040.35 2375 2040.35 1913.17 1411.73 1913.17 1414.6 2375"/><g class="cls-44"><path class="cls-14" d="M1429.04,1771.35c24.82,0,48.5,5.04,66.2,15.33l424.66,246.62c18.31,10.62,26.96,24.97,26.32,39.88-.64,16.95-13.25,34.68-37.25,48.62l-100.15,58.14-298.53,173.38c-24.68,14.34-56.28,21.69-86.24,21.69-24.81,0-48.48-5.04-66.17-15.32l-313.62-182.11-111.04-64.51c-17.71-10.28-26.39-24.03-26.39-38.45,0-17.4,12.65-35.74,37.33-50.05l398.68-231.56c24.67-14.31,56.26-21.65,86.21-21.65M1429.04,1735.56v35.79-35.79c-37.74,0-74.74,9.41-104.18,26.49l-398.69,231.56c-16.36,9.49-29.43,20.83-38.83,33.7-10.67,14.6-16.3,30.95-16.3,47.3,0,14.35,4.37,28.44,12.64,40.74,7.55,11.24,18.18,20.88,31.57,28.66l111.03,64.5,313.62,182.11c22.68,13.19,51.78,20.16,84.14,20.16,37.76,0,74.77-9.42,104.22-26.53l298.53-173.37,100.14-58.14c15.9-9.23,28.69-20.21,38.03-32.63,10.52-14,16.4-29.73,17.02-45.51,1.2-28.97-14.88-55.3-44.12-72.26l-424.65-246.61c-22.68-13.19-51.79-20.17-84.16-20.17h0Z"/></g><g class="cls-39"><path class="cls-8" d="M1429.04,1771.35c24.82,0,48.5,5.04,66.2,15.33l424.66,246.62c18.31,10.62,26.96,24.97,26.32,39.88-.64,16.95-13.25,34.68-37.25,48.62l-100.15,58.14-298.53,173.38c-24.68,14.34-56.28,21.69-86.24,21.69-24.81,0-48.48-5.04-66.17-15.32l-313.62-182.11-111.04-64.51c-17.71-10.28-26.39-24.03-26.39-38.45,0-17.4,12.65-35.74,37.33-50.05l398.68-231.56c24.67-14.31,56.26-21.65,86.21-21.65M1429.04,1750.9v20.45-20.45c-34.57,0-69.73,8.9-96.48,24.42l-398.69,231.56c-14.52,8.42-26.01,18.34-34.15,29.48-8.73,11.95-13.35,25.18-13.35,38.25,0,11.29,3.47,22.42,10.03,32.19,6.25,9.29,15.18,17.35,26.54,23.95l111.04,64.5,313.62,182.11c20.35,11.83,46.78,18.09,76.44,18.09,34.58,0,69.76-8.91,96.51-24.46l298.53-173.37,100.14-58.14c14.11-8.19,25.37-17.81,33.47-28.58,8.64-11.49,13.46-24.25,13.95-36.9.49-11.69-2.73-23.26-9.3-33.46-6.27-9.72-15.41-18.11-27.19-24.94l-424.65-246.61c-20.35-11.84-46.8-18.09-76.46-18.09h0Z"/></g><path class="cls-42" d="M1946.22,2073.18c-.64,16.95-13.25,34.68-37.25,48.62l-100.15,58.14-298.53,173.37c-45.11,26.21-113.36,29.07-152.41,6.36l-313.62-182.11-111.04-64.51c-17.71-10.28-26.39-24.03-26.39-38.45,0-17.4,12.65-35.74,37.33-50.05l398.68-231.56c45.11-26.17,113.36-29.03,152.41-6.33l424.66,246.62c18.31,10.62,26.96,24.97,26.32,39.88Z"/><path class="cls-7" d="M1424.05,1540.89c-23.9,0-45.57-4.95-61.03-13.94l-313.62-182.12-111.04-64.51c-9.72-5.64-21.31-15.36-21.31-29.61s11.75-29.32,32.23-41.2l398.68-231.56c22.2-12.88,51.76-20.27,81.08-20.27,23.91,0,45.6,4.95,61.06,13.94l424.67,246.62c14.19,8.23,21.73,19.1,21.24,30.6-.53,14.01-12.25,28.64-32.17,40.21l-100.15,58.14-298.53,173.38c-22.21,12.9-51.77,20.31-81.11,20.31Z"/><path class="cls-34" d="M1429.04,967.92c22.13,0,41.99,4.46,55.92,12.56l424.67,246.62c6.22,3.61,16.58,11.17,16.15,21.32v.05s0,.05,0,.05c-.38,10.22-10.51,22.07-27.08,31.7l-100.15,58.14-298.53,173.38c-20.7,12.02-48.39,18.92-75.97,18.92-22.12,0-41.97-4.46-55.9-12.56l-313.62-182.11-111.05-64.51c-6.05-3.51-16.21-10.89-16.21-20.76s10.4-22.65,27.15-32.36l398.67-231.55c20.7-12.01,48.38-18.89,75.95-18.89h0M1429.04,947.47c-29.95,0-61.54,7.34-86.21,21.65l-398.68,231.56c-24.67,14.31-37.33,32.65-37.33,50.05,0,14.42,8.69,28.17,26.39,38.45l111.04,64.51,313.62,182.11c17.69,10.29,41.36,15.32,66.17,15.32,29.96,0,61.56-7.35,86.24-21.69l298.53-173.38,100.15-58.14c24-13.93,36.61-31.67,37.25-48.62.64-14.91-8.01-29.26-26.32-39.88l-424.66-246.62c-17.69-10.29-41.38-15.33-66.2-15.33h0Z"/><path class="cls-32" d="M1429.04,957.69c23.91,0,45.59,4.95,61.06,13.95l424.67,246.62c14.18,8.23,21.72,19.09,21.23,30.6v.03s0,.03,0,.03c-.52,13.96-12.25,28.59-32.17,40.16l-100.15,58.14-298.53,173.38c-22.21,12.9-51.77,20.31-81.1,20.31-23.9,0-45.57-4.95-61.04-13.94l-313.62-182.11-111.04-64.51c-9.72-5.64-21.3-15.36-21.3-29.61s11.75-29.32,32.24-41.2l398.67-231.55c22.21-12.88,51.76-20.27,81.09-20.27h0M1429.04,947.47c-29.95,0-61.54,7.34-86.21,21.65l-398.68,231.56c-24.67,14.31-37.33,32.65-37.33,50.05,0,14.42,8.69,28.17,26.39,38.45l111.04,64.51,313.62,182.11c17.69,10.29,41.36,15.32,66.17,15.32,29.96,0,61.56-7.35,86.24-21.69l298.53-173.38,100.15-58.14c24-13.93,36.61-31.67,37.25-48.62.64-14.91-8.01-29.26-26.32-39.88l-424.66-246.62c-17.69-10.29-41.38-15.33-66.2-15.33h0Z"/><path class="cls-26" d="M1946.29,1251.27v820.45c0,17.4-12.65,35.74-37.33,50.08l-398.68,231.52c-45.11,26.21-113.36,29.03-152.41,6.36l-424.66-246.62c-18.31-10.62-26.96-24.93-26.32-39.88h-.07v-820.49c0,14.42,1038.76,15.51,1039.39-1.43h.07Z"/><path class="cls-7" d="M1424.05,1540.89c-23.9,0-45.57-4.95-61.03-13.94l-313.62-182.12-111.04-64.51c-9.72-5.64-21.31-15.36-21.31-29.61s11.75-29.32,32.23-41.2l398.68-231.56c22.2-12.88,51.76-20.27,81.08-20.27,23.91,0,45.6,4.95,61.06,13.94l424.67,246.62c14.19,8.23,21.73,19.1,21.24,30.6-.53,14.01-12.25,28.64-32.17,40.21l-100.15,58.14-298.53,173.38c-22.21,12.9-51.77,20.31-81.11,20.31Z"/><path class="cls-34" d="M1429.04,967.92c22.13,0,41.99,4.46,55.92,12.56l424.67,246.62c6.22,3.61,16.58,11.17,16.15,21.32v.05s0,.05,0,.05c-.38,10.22-10.51,22.07-27.08,31.7l-100.15,58.14-298.53,173.38c-20.7,12.02-48.39,18.92-75.97,18.92-22.12,0-41.97-4.46-55.9-12.56l-313.62-182.11-111.05-64.51c-6.05-3.51-16.21-10.89-16.21-20.76s10.4-22.65,27.15-32.36l398.67-231.55c20.7-12.01,48.38-18.89,75.95-18.89h0M1429.04,947.47c-29.95,0-61.54,7.34-86.21,21.65l-398.68,231.56c-24.67,14.31-37.33,32.65-37.33,50.05,0,14.42,8.69,28.17,26.39,38.45l111.04,64.51,313.62,182.11c17.69,10.29,41.36,15.32,66.17,15.32,29.96,0,61.56-7.35,86.24-21.69l298.53-173.38,100.15-58.14c24-13.93,36.61-31.67,37.25-48.62.64-14.91-8.01-29.26-26.32-39.88l-424.66-246.62c-17.69-10.29-41.38-15.33-66.2-15.33h0Z"/><path class="cls-32" d="M1429.04,957.69c23.91,0,45.59,4.95,61.06,13.95l424.67,246.62c14.18,8.23,21.72,19.09,21.23,30.6v.03s0,.03,0,.03c-.52,13.96-12.25,28.59-32.17,40.16l-100.15,58.14-298.53,173.38c-22.21,12.9-51.77,20.31-81.1,20.31-23.9,0-45.57-4.95-61.04-13.94l-313.62-182.11-111.04-64.51c-9.72-5.64-21.3-15.36-21.3-29.61s11.75-29.32,32.24-41.2l398.67-231.55c22.21-12.88,51.76-20.27,81.09-20.27h0M1429.04,947.47c-29.95,0-61.54,7.34-86.21,21.65l-398.68,231.56c-24.67,14.31-37.33,32.65-37.33,50.05,0,14.42,8.69,28.17,26.39,38.45l111.04,64.51,313.62,182.11c17.69,10.29,41.36,15.32,66.17,15.32,29.96,0,61.56-7.35,86.24-21.69l298.53-173.38,100.15-58.14c24-13.93,36.61-31.67,37.25-48.62.64-14.91-8.01-29.26-26.32-39.88l-424.66-246.62c-17.69-10.29-41.38-15.33-66.2-15.33h0Z"/><path class="cls-37" d="M1304.19,1728.38v222.55c0,15.35-4.32,26.84-11.45,33.34-8.24,7.51-20.2,8.33-33.51.64l-208.8-120.55c-24.83-14.33-44.95-52.78-44.95-85.88v-222.55c0-21.3,8.33-35.2,20.88-38.57,6.95-1.88,15.2-.52,24.06,4.58l208.8,120.57c24.83,14.33,44.96,52.78,44.96,85.88Z"/><path class="cls-33" d="M1304.19,1728.38v222.55c0,15.35-4.32,26.84-11.45,33.34-8.24,7.51-20.2,8.33-33.51.64l-208.8-120.55c-24.83-14.33-44.95-52.78-44.95-85.88v-222.55c0-21.3,8.33-35.2,20.88-38.57,6.95-1.88,15.2-.52,24.06,4.58l208.8,120.57c24.83,14.33,44.96,52.78,44.96,85.88Z"/><path class="cls-9" d="M1304.19,1728.38v222.55c0,15.35-4.32,26.84-11.45,33.34-6.95,1.88-15.2.52-24.06-4.58l-208.81-120.57c-24.82-14.33-44.95-52.77-44.95-85.87v-222.57c0-15.35,4.32-26.84,11.45-33.34,6.95-1.88,15.2-.52,24.06,4.58l208.8,120.57c24.83,14.33,44.96,52.78,44.96,85.88Z"/><path class="cls-43" d="M1304.19,1728.38v222.55c0,15.35-4.32,26.84-11.45,33.34-8.24,7.51-20.2,8.33-33.51.64l-208.8-120.55c-24.83-14.33-44.95-52.78-44.95-85.88v-222.55c0-21.3,8.33-35.2,20.88-38.57,6.95-1.88,15.2-.52,24.06,4.58l208.8,120.57c24.83,14.33,44.96,52.78,44.96,85.88Z"/><g class="cls-41"><path class="cls-32" d="M1032.58,1516.54c5.47,0,11.5,1.73,17.85,5.39l208.8,120.57c24.83,14.33,44.96,52.78,44.96,85.88v222.55c0,15.35-4.32,26.84-11.45,33.34-4.31,3.93-9.65,6.03-15.67,6.03-5.47,0-11.5-1.73-17.84-5.4l-208.8-120.55c-24.83-14.33-44.95-52.78-44.95-85.88v-222.55c0-21.3,8.33-35.2,20.88-38.57,1.97-.53,4.05-.81,6.21-.81M1032.58,1512.11h0c-2.54,0-5.02.32-7.37.96-15.13,4.06-24.16,20.08-24.16,42.85v222.55c0,16.71,4.85,35.19,13.67,52.04,8.87,16.96,20.77,30.34,33.5,37.69l208.8,120.55c6.88,3.97,13.63,5.99,20.06,5.99,7.05,0,13.5-2.49,18.66-7.19,8.31-7.57,12.89-20.58,12.89-36.61v-222.55c0-16.71-4.86-35.19-13.67-52.04-8.88-16.96-20.78-30.34-33.51-37.69l-208.8-120.56c-6.9-3.97-13.65-5.98-20.07-5.98h0Z"/></g><path class="cls-12" d="M1927.75,1249.73l-433.56,250.34c-34.63,19.98-87.06,22.17-117.04,4.85l-454.47-262.39c-16.71-9.63-22.94-23.3-19.18-36.98v-211.66h1051.83v210.2c4.37,15.29-5.1,32.65-27.59,45.63Z"/><path class="cls-5" d="M1427.97,1290.84c-18.46,0-35.22-3.81-47.19-10.72l-454.43-262.37c-7.58-4.37-16.61-11.92-16.61-23.03s9.12-22.73,25.01-31.91l433.55-250.31c17.14-9.89,39.94-15.57,62.57-15.57,18.46,0,35.22,3.81,47.19,10.72l454.43,262.37c7.58,4.37,16.61,11.92,16.61,23.03s-9.12,22.73-25.01,31.91l-433.55,250.31c-17.14,9.89-39.94,15.57-62.57,15.57Z"/><path class="cls-34" d="M1430.87,689.64v14.59s0,0,0,0c17.2,0,32.66,3.46,43.54,9.74l454.43,262.37c4.84,2.79,12.96,8.68,12.96,16.72s-7.99,17.87-21.36,25.59l-433.55,250.31c-16.06,9.27-37.54,14.59-58.92,14.59-17.2,0-32.67-3.46-43.54-9.74l-454.43-262.37c-4.84-2.79-12.96-8.68-12.96-16.72s7.99-17.87,21.36-25.59l433.55-250.31c16.06-9.27,37.54-14.59,58.92-14.59v-14.59M1430.87,689.64c-23,0-47.27,5.61-66.22,16.55l-433.55,250.31c-34.64,20-38.41,50.26-8.4,67.58l454.43,262.37c13.59,7.85,31.78,11.69,50.84,11.69,23,0,47.27-5.61,66.22-16.55l433.55-250.31c34.65-20,38.41-50.26,8.4-67.58l-454.43-262.37c-13.59-7.85-31.78-11.69-50.84-11.69h0Z"/><path class="cls-32" d="M1430.87,689.64v7.3s0,0,0,0c18.46,0,35.22,3.81,47.19,10.72l454.43,262.37c7.58,4.37,16.61,11.92,16.61,23.03s-9.12,22.73-25.01,31.91l-433.55,250.31c-17.14,9.89-39.94,15.57-62.57,15.57-18.46,0-35.22-3.81-47.19-10.72l-454.43-262.37c-7.58-4.37-16.61-11.92-16.61-23.03,0-11.1,9.12-22.74,25.01-31.91l433.55-250.31c17.14-9.89,39.94-15.57,62.57-15.57v-7.3M1430.87,689.64c-23,0-47.27,5.61-66.22,16.55l-433.55,250.31c-34.65,20-38.41,50.26-8.4,67.58l454.43,262.37c13.59,7.85,31.78,11.69,50.84,11.69,23,0,47.27-5.61,66.22-16.55l433.55-250.31c34.65-20,38.41-50.26,8.4-67.58l-454.43-262.37c-13.59-7.85-31.78-11.69-50.84-11.69h0Z"/><path class="cls-24" d="M1323.69,1390.9c0,1.44-.13,2.78-.35,3.99-1,5.48-4.17,8.63-8.34,8.63-1.76,0-3.68-.56-5.72-1.73l-325.49-187.92c-7.96-4.59-14.41-16.92-14.41-27.53,0-7.91,3.57-12.62,8.69-12.62.1,0,.18,0,.28.01,1.66.04,3.51.6,5.44,1.72l325.49,187.92c7.95,4.6,14.41,16.93,14.41,27.53Z"/><path class="cls-18" d="M1323.69,1390.9c0,1.44-.13,2.78-.35,3.99-1.66-.04-3.51-.6-5.44-1.72l-325.49-187.92c-7.95-4.6-14.41-16.93-14.41-27.53,0-1.44.13-2.78.35-3.99,1.66.04,3.51.6,5.44,1.72l325.49,187.92c7.95,4.6,14.41,16.93,14.41,27.53Z"/><path class="cls-31" d="M1244.36,2208c0,1.44-.11,2.76-.35,3.97-1,5.48-4.16,8.65-8.34,8.65-1.76,0-3.7-.56-5.72-1.73l-246.17-142.14c-7.96-4.59-14.41-16.92-14.41-27.53,0-7.89,3.57-12.62,8.69-12.62.1,0,.18,0,.28.01,1.67.04,3.51.6,5.44,1.72l246.17,142.14c7.95,4.59,14.41,16.92,14.41,27.53Z"/><path class="cls-17" d="M1323.69,2253.8c0,1.44-.11,2.76-.35,3.97-1,5.48-4.16,8.65-8.34,8.65-1.76,0-3.7-.56-5.72-1.73l-32.48-18.76c-7.96-4.59-14.41-16.92-14.41-27.53,0-7.91,3.57-12.62,8.69-12.62.1,0,.18,0,.28.01,1.66.04,3.51.6,5.44,1.72l32.48,18.76c7.95,4.59,14.41,16.92,14.41,27.53Z"/><path class="cls-20" d="M1244.36,2208c0,1.44-.11,2.76-.35,3.97-1.67-.06-3.51-.61-5.44-1.72l-246.17-142.12c-7.95-4.59-14.41-16.92-14.41-27.53,0-1.44.13-2.78.35-3.99,1.67.04,3.51.6,5.44,1.72l246.17,142.14c7.95,4.59,14.41,16.92,14.41,27.53Z"/><path class="cls-2" d="M1323.69,2253.8c0,1.44-.11,2.76-.35,3.97-1.67-.06-3.51-.61-5.44-1.72l-32.48-18.74c-7.95-4.6-14.41-16.93-14.41-27.53,0-1.44.13-2.78.35-3.99,1.66.04,3.51.6,5.44,1.72l32.48,18.76c7.95,4.59,14.41,16.92,14.41,27.53Z"/><path class="cls-38" d="M1244.36,2117.36c0,1.44-.11,2.76-.35,3.97-1,5.48-4.16,8.65-8.34,8.65-1.76,0-3.7-.56-5.72-1.73l-246.17-142.14c-7.96-4.59-14.41-16.92-14.41-27.53,0-7.89,3.57-12.62,8.69-12.62.1,0,.18,0,.28.01,1.67.04,3.51.6,5.44,1.72l246.17,142.14c7.95,4.59,14.41,16.92,14.41,27.53Z"/><path class="cls-10" d="M1323.69,2163.15c0,1.44-.11,2.76-.35,3.97-1,5.48-4.16,8.65-8.34,8.65-1.76,0-3.7-.56-5.72-1.73l-32.48-18.76c-7.96-4.59-14.41-16.92-14.41-27.53,0-7.91,3.57-12.62,8.69-12.62.1,0,.18,0,.28.01,1.66.04,3.51.6,5.44,1.72l32.48,18.76c7.95,4.59,14.41,16.92,14.41,27.53Z"/><path class="cls-21" d="M1244.36,2117.36c0,1.44-.11,2.76-.35,3.97-1.67-.06-3.51-.61-5.44-1.72l-246.17-142.12c-7.95-4.59-14.41-16.92-14.41-27.53,0-1.44.13-2.78.35-3.99,1.67.04,3.51.6,5.44,1.72l246.17,142.14c7.95,4.59,14.41,16.92,14.41,27.53Z"/><path class="cls-36" d="M1323.69,2163.15c0,1.44-.11,2.76-.35,3.97-1.67-.06-3.51-.61-5.44-1.72l-32.48-18.74c-7.95-4.6-14.41-16.93-14.41-27.53,0-1.44.13-2.78.35-3.99,1.66.04,3.51.6,5.44,1.72l32.48,18.76c7.95,4.59,14.41,16.92,14.41,27.53Z"/><path class="cls-1" d="M1245.91,1856.13l-82.15-213.17c-1.56-4.04-4.47-7.66-7.62-9.48-3.15-1.82-6.06-1.56-7.62.68l-82.15,118.31c-1.18,1.7-1.46,4.38-.77,7.41.69,3.03,2.29,6.14,4.43,8.62l82.15,95.14c2.49,2.88,5.43,4.58,7.92,4.57l82.15-.28c2.14,0,3.74-1.27,4.43-3.51.69-2.23.41-5.23-.77-8.3ZM1164.91,1686.59l52.08,135.15-52.08-58.28v-76.87ZM1147.38,1676.47v76.87l-52.08-1.86,52.08-75.01ZM1156.14,1845.71l-62.22-72.06,62.22,2.22,62.22,69.62-62.22.22Z"/><path class="cls-16" d="M1243.29,1857.25l-82.15-213.17c-1.56-4.04-4.47-7.66-7.62-9.48-3.15-1.82-6.06-1.56-7.62.68l-82.15,118.31c-1.18,1.7-1.46,4.38-.77,7.41.69,3.03,2.29,6.14,4.43,8.62l82.15,95.14c2.49,2.88,5.43,4.58,7.92,4.57l82.15-.28c2.14,0,3.74-1.27,4.43-3.51.69-2.23.41-5.23-.77-8.3ZM1162.28,1687.72l52.08,135.15-52.08-58.28v-76.87ZM1144.76,1677.6v76.87l-52.08-1.86,52.08-75.01ZM1153.52,1846.84l-62.22-72.06,62.22,2.22,62.22,69.62-62.22.22Z"/></g><g id="_Blue"><g class="cls-40"><path class="cls-25" d="M1908.25,1279.86l-.48-169.94-34.4-19.99.48,169.94c.01,3.9,1.39,6.64,3.61,7.94l34.4,19.99c-2.22-1.29-3.6-4.03-3.61-7.93Z"/><path class="cls-30" d="M2136.58,819.2c-2.25-1.31-5.37-1.13-8.81.86l-147.89,85.39,34.4,19.99,147.89-85.39c3.44-1.99,6.56-2.17,8.81-.86l-34.4-19.99Z"/><path class="cls-3" d="M1873.02,967.14l-147.89,85.39c-6.84,3.95-12.36,13.52-12.34,21.38l.27,94.33c.01,3.9,1.39,6.65,3.61,7.94l34.4,19.99c-2.22-1.29-3.6-4.04-3.61-7.94l-.27-94.33c-.02-7.86,5.5-17.43,12.34-21.38l147.89-85.39-34.4-19.99Z"/><path class="cls-28" d="M2001.38,748.42c6.83-3.94,12.39-.78,12.42,7.08l.48,169.94,147.89-85.39c6.84-3.95,12.4-.78,12.43,7.08l.27,94.33c.02,7.85-5.51,17.42-12.34,21.37l-147.89,85.39.48,169.94c.02,7.86-5.51,17.42-12.34,21.37l-82.09,47.4c-6.84,3.95-12.4.79-12.43-7.07l-.48-169.94-147.89,85.39c-6.84,3.95-12.39.77-12.42-7.08l-.27-94.33c-.02-7.86,5.5-17.43,12.34-21.38l147.89-85.39-.48-169.94c-.02-7.86,5.51-17.42,12.35-21.37l82.09-47.4Z"/><path class="cls-11" d="M1975.78,727.57c-2.25-1.31-5.37-1.12-8.81.86l-82.09,47.4c-6.84,3.95-12.37,13.51-12.35,21.37l.48,169.94,34.4,19.99-.48-169.94c-.02-7.86,5.51-17.42,12.34-21.37l82.09-47.4c3.44-1.98,6.55-2.17,8.81-.86l-34.4-19.99Z"/></g></g></svg>