<?xml version="1.0" encoding="UTF-8"?><svg xmlns="http://www.w3.org/2000/svg" xmlns:xlink="http://www.w3.org/1999/xlink" viewBox="0 0 2500 2500"><defs><style>.cls-1{fill:url(#linear-gradient-12);}.cls-1,.cls-2,.cls-3,.cls-4,.cls-5,.cls-6,.cls-7,.cls-8,.cls-9,.cls-10,.cls-11,.cls-12,.cls-13,.cls-14,.cls-15,.cls-16,.cls-17,.cls-18,.cls-19,.cls-20,.cls-21,.cls-22,.cls-23,.cls-24,.cls-25,.cls-26,.cls-27,.cls-28,.cls-29,.cls-30,.cls-31,.cls-32,.cls-33,.cls-34,.cls-35,.cls-36{stroke-width:0px;}.cls-2{fill:url(#linear-gradient);}.cls-3{fill:url(#Nueva_muestra_de_degradado_58-8);}.cls-3,.cls-7,.cls-9,.cls-14,.cls-21,.cls-22,.cls-24,.cls-25,.cls-26,.cls-32{fill-opacity:.25;}.cls-4{fill:url(#Degradado_sin_nombre_8);}.cls-37{opacity:.75;stroke:#fff;stroke-width:1.48px;}.cls-37,.cls-38,.cls-39,.cls-40{fill:none;}.cls-5{fill:url(#linear-gradient-6);}.cls-6{fill:url(#Nueva_muestra_de_degradado_11);}.cls-7{fill:url(#Nueva_muestra_de_degradado_58-10);}.cls-41{isolation:isolate;}.cls-8{fill:url(#Degradado_sin_nombre_4-2);}.cls-9{fill:url(#Nueva_muestra_de_degradado_58);}.cls-42{opacity:.2;}.cls-10{fill:url(#linear-gradient-15);}.cls-11{fill:url(#linear-gradient-11);}.cls-38{opacity:.72;stroke-width:18.13px;}.cls-38,.cls-39,.cls-40{stroke:#022e49;}.cls-12{fill:url(#linear-gradient-5);}.cls-13{fill:url(#linear-gradient-9);mix-blend-mode:multiply;}.cls-14{fill:url(#Nueva_muestra_de_degradado_58-6);}.cls-15{fill:url(#linear-gradient-13);}.cls-39{opacity:.15;stroke-width:48.81px;}.cls-16{fill:url(#Degradado_sin_nombre_4);}.cls-17{fill:url(#linear-gradient-14);}.cls-18{fill:url(#linear-gradient-2);}.cls-40{opacity:.41;stroke-width:30.68px;}.cls-19{fill:#4dd2d2;}.cls-20{fill:url(#linear-gradient-7);}.cls-21{fill:url(#Nueva_muestra_de_degradado_58-4);}.cls-22{fill:url(#Nueva_muestra_de_degradado_58-5);}.cls-23{fill:url(#linear-gradient-3);}.cls-24{fill:url(#Nueva_muestra_de_degradado_58-3);}.cls-25{fill:url(#Nueva_muestra_de_degradado_58-2);}.cls-26{fill:url(#Nueva_muestra_de_degradado_58-9);}.cls-27{fill:url(#linear-gradient-8);}.cls-28{fill:#045989;fill-rule:evenodd;}.cls-29{fill:#fff;}.cls-30{fill:#a6c8e2;}.cls-31{fill:url(#linear-gradient-10);}.cls-32{fill:url(#Nueva_muestra_de_degradado_58-7);}.cls-33{fill:#fafbfc;}.cls-34{fill:url(#Degradado_sin_nombre_5);}.cls-35{fill:url(#linear-gradient-4);}.cls-36{fill:#f1f3f6;}</style><linearGradient id="linear-gradient" x1="932.41" y1="1855.87" x2="1068.15" y2="1676.27" gradientTransform="translate(142.99 -70.27) rotate(9.38)" gradientUnits="userSpaceOnUse"><stop offset="0" stop-color="#45bfe0"/><stop offset=".06" stop-color="#3bbbde"/><stop offset=".29" stop-color="#21b2d9"/><stop offset=".51" stop-color="#0eacd6"/><stop offset=".75" stop-color="#03a8d4"/><stop offset="1" stop-color="#00a7d4"/></linearGradient><linearGradient id="linear-gradient-2" x1="990.48" y1="1812.21" x2="1142.93" y2="1586.67" xlink:href="#linear-gradient"/><linearGradient id="linear-gradient-3" x1="511.48" y1="1348.31" x2="912.44" y2="1174.97" gradientTransform="translate(142.99 -70.27) rotate(9.38)" gradientUnits="userSpaceOnUse"><stop offset="0" stop-color="#52d6ff"/><stop offset="1" stop-color="#45bfe0"/></linearGradient><linearGradient id="linear-gradient-4" x1="679.24" y1="1257.09" x2="885.98" y2="1127.61" gradientTransform="translate(142.99 -70.27) rotate(9.38)" gradientUnits="userSpaceOnUse"><stop offset="0" stop-color="#52d6ff"/><stop offset=".29" stop-color="#4bcaee"/><stop offset=".63" stop-color="#46c1e3"/><stop offset="1" stop-color="#45bfe0"/></linearGradient><linearGradient id="linear-gradient-5" x1="478.04" y1="600.81" x2="970.89" y2="790.85" xlink:href="#linear-gradient"/><linearGradient id="linear-gradient-6" x1="724.37" y1="519.1" x2="1091.29" y2="772.59" gradientTransform="translate(142.99 -70.27) rotate(9.38)" gradientUnits="userSpaceOnUse"><stop offset="0" stop-color="#45bfe0"/><stop offset=".59" stop-color="#1db1d9"/><stop offset="1" stop-color="#00a7d4"/></linearGradient><linearGradient id="linear-gradient-7" x1="1220.67" y1="615.53" x2="1147.58" y2="763.8" xlink:href="#linear-gradient-4"/><linearGradient id="linear-gradient-8" x1="1479.89" y1="447.52" x2="1078.93" y2="704.39" xlink:href="#linear-gradient-4"/><linearGradient id="linear-gradient-9" x1="1417.36" y1="2144.08" x2="1985.62" y2="2144.08" gradientUnits="userSpaceOnUse"><stop offset=".13" stop-color="#141226" stop-opacity=".3"/><stop offset="1" stop-color="#141226" stop-opacity="0"/></linearGradient><linearGradient id="Nueva_muestra_de_degradado_11" x1="940.3" y1="1180.48" x2="2013.92" y2="1332.41" gradientUnits="userSpaceOnUse"><stop offset="0" stop-color="#fafbfc"/><stop offset=".55" stop-color="#f5f8fa"/><stop offset=".99" stop-color="#e6f4fa"/><stop offset=".99" stop-color="#d4ecf6" stop-opacity=".9"/></linearGradient><linearGradient id="linear-gradient-10" x1="901.59" y1="1813.14" x2="2085.44" y2="1813.14" gradientUnits="userSpaceOnUse"><stop offset="0" stop-color="#f3fafc"/><stop offset=".14" stop-color="#eff8fb"/><stop offset=".22" stop-color="#e9f5fa"/><stop offset=".36" stop-color="#deeef8"/><stop offset=".39" stop-color="#d8ebf7"/><stop offset=".42" stop-color="#cae5f5"/><stop offset=".46" stop-color="#b1dcf1"/><stop offset=".49" stop-color="#99d2ee"/><stop offset=".81" stop-color="#a6d5ee"/><stop offset=".84" stop-color="#acd8ef"/><stop offset=".9" stop-color="#bfe1f2"/><stop offset=".96" stop-color="#dfeff8"/><stop offset=".98" stop-color="#eaf5fb"/></linearGradient><linearGradient id="linear-gradient-11" x1="954.75" y1="1218.93" x2="1925.9" y2="1281.43" gradientUnits="userSpaceOnUse"><stop offset="0" stop-color="#f4f8fa"/><stop offset=".77" stop-color="#e8f5fa"/><stop offset="1" stop-color="#d4ecf6"/></linearGradient><linearGradient id="linear-gradient-12" x1="1284.04" y1="1986.66" x2="974.13" y2="1427.26" gradientUnits="userSpaceOnUse"><stop offset="0" stop-color="#7dc2db"/><stop offset="0" stop-color="#7ec2db"/><stop offset=".03" stop-color="#98cfe3"/><stop offset=".07" stop-color="#aed9ea"/><stop offset=".11" stop-color="#bfe2ef"/><stop offset=".16" stop-color="#cbe7f3"/><stop offset=".24" stop-color="#d2ebf5"/><stop offset=".44" stop-color="#d4ecf6"/><stop offset=".54" stop-color="#cce6f3"/><stop offset=".69" stop-color="#b7d9ec"/><stop offset=".84" stop-color="#9cc7e3"/></linearGradient><linearGradient id="linear-gradient-13" x1="993.8" y1="1727.36" x2="1359.78" y2="1779.14" gradientUnits="userSpaceOnUse"><stop offset="0" stop-color="#f4f8fa"/><stop offset=".77" stop-color="#e8f5fa"/><stop offset="1" stop-color="#d4ecf6" stop-opacity=".9"/></linearGradient><linearGradient id="linear-gradient-14" x1="897.14" y1="1255.14" x2="2097.46" y2="1255.14" xlink:href="#linear-gradient-10"/><linearGradient id="linear-gradient-15" x1="950.95" y1="962.99" x2="1935.87" y2="1026.37" xlink:href="#linear-gradient-11"/><linearGradient id="Nueva_muestra_de_degradado_58" x1="969.38" y1="1288.64" x2="1323.69" y2="1288.64" gradientUnits="userSpaceOnUse"><stop offset="0" stop-color="#00b287"/><stop offset=".33" stop-color="#08ad9f"/><stop offset="1" stop-color="#1da1dc"/></linearGradient><linearGradient id="Nueva_muestra_de_degradado_58-2" x1="978" y1="1284.33" y2="1284.33" xlink:href="#Nueva_muestra_de_degradado_58"/><linearGradient id="Nueva_muestra_de_degradado_58-3" y1="2128.62" x2="1244.36" y2="2128.62" xlink:href="#Nueva_muestra_de_degradado_58"/><linearGradient id="Nueva_muestra_de_degradado_58-4" x1="1262.4" y1="2236.1" y2="2236.1" xlink:href="#Nueva_muestra_de_degradado_58"/><linearGradient id="Nueva_muestra_de_degradado_58-5" x1="978" y1="2124.3" x2="1244.36" y2="2124.3" xlink:href="#Nueva_muestra_de_degradado_58"/><linearGradient id="Nueva_muestra_de_degradado_58-6" x1="1271.01" y1="2231.79" y2="2231.79" xlink:href="#Nueva_muestra_de_degradado_58"/><linearGradient id="Nueva_muestra_de_degradado_58-7" y1="2037.98" x2="1244.36" y2="2037.98" xlink:href="#Nueva_muestra_de_degradado_58"/><linearGradient id="Nueva_muestra_de_degradado_58-8" x1="1262.4" y1="2145.47" y2="2145.47" xlink:href="#Nueva_muestra_de_degradado_58"/><linearGradient id="Nueva_muestra_de_degradado_58-9" x1="978" y1="2033.67" x2="1244.36" y2="2033.67" xlink:href="#Nueva_muestra_de_degradado_58"/><linearGradient id="Nueva_muestra_de_degradado_58-10" x1="1271.01" y1="2141.15" y2="2141.15" xlink:href="#Nueva_muestra_de_degradado_58"/><linearGradient id="Degradado_sin_nombre_8" x1="1901.13" y1="1089.91" x2="1875.67" y2="1385.6" gradientUnits="userSpaceOnUse"><stop offset="0" stop-color="#12abbb"/><stop offset=".22" stop-color="#0c9fb2"/><stop offset=".67" stop-color="#038ea5"/><stop offset="1" stop-color="#0088a1"/></linearGradient><linearGradient id="Degradado_sin_nombre_5" x1="1951.04" y1="948.96" x2="2108.33" y2="852.04" gradientUnits="userSpaceOnUse"><stop offset="0" stop-color="#12abbb"/><stop offset=".31" stop-color="#0999ae"/><stop offset=".67" stop-color="#028ca4"/><stop offset="1" stop-color="#0088a1"/></linearGradient><linearGradient id="Degradado_sin_nombre_4" x1="1705.39" y1="1240.9" x2="1842.55" y2="962.06" gradientUnits="userSpaceOnUse"><stop offset="0" stop-color="#12abbb"/><stop offset=".31" stop-color="#11a9b9"/><stop offset=".41" stop-color="#0da2b4"/><stop offset=".49" stop-color="#0796ab"/><stop offset=".55" stop-color="#0088a1"/><stop offset=".98" stop-color="#0088a1"/><stop offset="1" stop-color="#0088a1"/></linearGradient><linearGradient id="Degradado_sin_nombre_4-2" x1="1883.77" y1="901.02" x2="1980.32" y2="720.74" xlink:href="#Degradado_sin_nombre_4"/></defs><g class="cls-41"><g id="Artwork"><g id="Plant2"><path class="cls-2" d="M595.48,1870.91c129.19,7.21,315.91-52.52,495.36-55.02,5.32-.07-12.79-26.53-7.46-26.57-373.13-99.05-466.8,32.06-486.93,75.42-.82,1.78-1.12,3.9-.97,6.18Z"/><path class="cls-18" d="M1107.27,1831.53l-20.46-41.31c-1.14-.31-2.29-.62-3.42-.91-185.06,1.26-365.89,25.13-487.9,81.59.46,7.14,5.38,15.76,12.19,19.79,113.31,67.1,499.6-59.16,499.6-59.16Z"/><path class="cls-23" d="M1107.54,1820.15c-301.33,103.21-969.82-416.28-890.49-1071.29,59.64,178.2,143.99,391.38,286.97,552.03,211.58,237.68,447.63,430.83,604.58,475.37,13.6,21.57,16.08,38.02-1.07,43.88Z"/><path class="cls-35" d="M1108.6,1776.27c-156.95-44.55-393-237.69-604.58-475.37-142.98-160.65-227.33-373.83-286.97-552.03.17-1.52.36-3.03.55-4.55,8.77-69.43,405.1,361.52,697.1,847.03,0,0,151.38,117.47,193.91,184.92Z"/><path class="cls-12" d="M1143.82,1285.87c-93.59,58.69-235.35,140.35-235.35,140.35C338.71,844.41,634.87,254.72,702.46,138.6c4.22-7.25,11.29-11.88,19.01-13.21,70.11,213.83,144.47,734.95,422.35,1160.47Z"/><path class="cls-5" d="M1256.9,1214.78c-20.9,3.79-86.71,42.37-155.59,85.57C823.42,874.82,749.68,363.3,721.47,125.4c5.44-.94,11.2-.24,16.53,2.34,296.37,143.7,714.46,1051.57,518.89,1087.04Z"/><path class="cls-20" d="M1523.37,327.24c-76.21,187.49-277.56,459.72-399.68,720.38-3.62,7.73-26.03-18.1-29.61-10.35,118.35-540.13,350.91-678.49,420.62-708.51,2.86-1.23,5.82-1.7,8.67-1.51Z"/><path class="cls-27" d="M1133.15,1071.21l-40.16-28.99c.36-1.65.71-3.31,1.08-4.95,124.23-268.79,275.05-531.82,429.3-710.03,8.98.55,16.93,7.54,17.66,17.35,12.21,163.37-407.87,726.61-407.87,726.61Z"/></g><g id="vCenter"><polygon class="cls-13" points="1414.6 2375 2040.35 2375 2040.35 1913.17 1411.73 1913.17 1414.6 2375"/><path class="cls-39" d="M1946.22,2073.18c-.64,16.95-13.25,34.68-37.25,48.62l-100.15,58.14-298.53,173.37c-45.11,26.21-113.36,29.07-152.41,6.36l-313.62-182.11-111.04-64.51c-17.71-10.28-26.39-24.03-26.39-38.45,0-17.4,12.65-35.74,37.33-50.05l398.68-231.56c45.11-26.17,113.36-29.03,152.41-6.33l424.66,246.62c18.31,10.62,26.96,24.97,26.32,39.88Z"/><path class="cls-40" d="M1946.22,2073.18c-.64,16.95-13.25,34.68-37.25,48.62l-100.15,58.14-298.53,173.37c-45.11,26.21-113.36,29.07-152.41,6.36l-313.62-182.11-111.04-64.51c-17.71-10.28-26.39-24.03-26.39-38.45,0-17.4,12.65-35.74,37.33-50.05l398.68-231.56c45.11-26.17,113.36-29.03,152.41-6.33l424.66,246.62c18.31,10.62,26.96,24.97,26.32,39.88Z"/><path class="cls-38" d="M1946.22,2073.18c-.64,16.95-13.25,34.68-37.25,48.62l-100.15,58.14-298.53,173.37c-45.11,26.21-113.36,29.07-152.41,6.36l-313.62-182.11-111.04-64.51c-17.71-10.28-26.39-24.03-26.39-38.45,0-17.4,12.65-35.74,37.33-50.05l398.68-231.56c45.11-26.17,113.36-29.03,152.41-6.33l424.66,246.62c18.31,10.62,26.96,24.97,26.32,39.88Z"/><path class="cls-6" d="M1424.05,1540.89c-23.9,0-45.57-4.95-61.03-13.94l-313.62-182.12-111.04-64.51c-9.72-5.64-21.31-15.36-21.31-29.61s11.75-29.32,32.23-41.2l398.68-231.56c22.2-12.88,51.76-20.27,81.08-20.27,23.91,0,45.6,4.95,61.06,13.94l424.67,246.62c14.19,8.23,21.73,19.1,21.24,30.6-.53,14.01-12.25,28.64-32.17,40.21l-100.15,58.14-298.53,173.38c-22.21,12.9-51.77,20.31-81.11,20.31Z"/><path class="cls-33" d="M1429.04,967.92c22.13,0,41.99,4.46,55.92,12.56l424.67,246.62c6.22,3.61,16.58,11.17,16.15,21.32v.05s0,.05,0,.05c-.38,10.22-10.51,22.07-27.08,31.7l-100.15,58.14-298.53,173.38c-20.7,12.02-48.39,18.92-75.97,18.92-22.12,0-41.97-4.46-55.9-12.56l-313.62-182.11-111.05-64.51c-6.05-3.51-16.21-10.89-16.21-20.76s10.4-22.65,27.15-32.36l398.67-231.55c20.7-12.01,48.38-18.89,75.95-18.89h0M1429.04,947.47c-29.95,0-61.54,7.34-86.21,21.65l-398.68,231.56c-24.67,14.31-37.33,32.65-37.33,50.05,0,14.42,8.69,28.17,26.39,38.45l111.04,64.51,313.62,182.11c17.69,10.29,41.36,15.32,66.17,15.32,29.96,0,61.56-7.35,86.24-21.69l298.53-173.38,100.15-58.14c24-13.93,36.61-31.67,37.25-48.62.64-14.91-8.01-29.26-26.32-39.88l-424.66-246.62c-17.69-10.29-41.38-15.33-66.2-15.33h0Z"/><path class="cls-29" d="M1429.04,957.69c23.91,0,45.59,4.95,61.06,13.95l424.67,246.62c14.18,8.23,21.72,19.09,21.23,30.6v.03s0,.03,0,.03c-.52,13.96-12.25,28.59-32.17,40.16l-100.15,58.14-298.53,173.38c-22.21,12.9-51.77,20.31-81.1,20.31-23.9,0-45.57-4.95-61.04-13.94l-313.62-182.11-111.04-64.51c-9.72-5.64-21.3-15.36-21.3-29.61s11.75-29.32,32.24-41.2l398.67-231.55c22.21-12.88,51.76-20.27,81.09-20.27h0M1429.04,947.47c-29.95,0-61.54,7.34-86.21,21.65l-398.68,231.56c-24.67,14.31-37.33,32.65-37.33,50.05,0,14.42,8.69,28.17,26.39,38.45l111.04,64.51,313.62,182.11c17.69,10.29,41.36,15.32,66.17,15.32,29.96,0,61.56-7.35,86.24-21.69l298.53-173.38,100.15-58.14c24-13.93,36.61-31.67,37.25-48.62.64-14.91-8.01-29.26-26.32-39.88l-424.66-246.62c-17.69-10.29-41.38-15.33-66.2-15.33h0Z"/><path class="cls-31" d="M1946.29,1251.27v820.45c0,17.4-12.65,35.74-37.33,50.08l-398.68,231.52c-45.11,26.21-113.36,29.03-152.41,6.36l-424.66-246.62c-18.31-10.62-26.96-24.93-26.32-39.88h-.07v-820.49c0,14.42,1038.76,15.51,1039.39-1.43h.07Z"/><path class="cls-11" d="M1424.05,1545.54c-24.71,0-47.21-5.17-63.36-14.57l-313.62-182.11-111.04-64.51c-15.23-8.84-23.62-20.78-23.62-33.62,0-16,12.59-32.49,34.55-45.22l398.68-231.56c22.89-13.28,53.3-20.9,83.41-20.9,24.72,0,47.23,5.18,63.39,14.57l424.66,246.62c15.75,9.14,24.12,21.5,23.55,34.82-.59,15.61-13.15,31.65-34.48,44.03l-100.15,58.14-298.53,173.38c-22.9,13.3-53.31,20.93-83.44,20.93Z"/><path class="cls-33" d="M1429.04,958.62c23.75,0,45.26,4.91,60.59,13.82l424.67,246.62c13.87,8.05,21.25,18.61,20.77,29.75v.03s0,.03,0,.03c-.51,13.63-12.07,27.99-31.7,39.39l-100.15,58.14-298.53,173.38c-22.07,12.82-51.46,20.18-80.64,20.18-23.74,0-45.24-4.91-60.57-13.82l-313.62-182.11-111.04-64.51c-9.51-5.52-20.84-15-20.84-28.8s11.58-28.69,31.77-40.4l398.67-231.55c22.07-12.8,51.45-20.15,80.62-20.15h0M1429.04,947.47c-29.95,0-61.54,7.34-86.21,21.65l-398.68,231.56c-24.67,14.31-37.33,32.65-37.33,50.05,0,14.42,8.69,28.17,26.39,38.45l111.04,64.51,313.62,182.11c17.69,10.29,41.36,15.32,66.17,15.32,29.96,0,61.56-7.35,86.24-21.69l298.53-173.38,100.15-58.14c24-13.93,36.61-31.67,37.25-48.62.64-14.91-8.01-29.26-26.32-39.88l-424.66-246.62c-17.69-10.29-41.38-15.33-66.2-15.33h0Z"/><path class="cls-29" d="M1429.04,954.44c24.47,0,46.74,5.11,62.69,14.39l424.66,246.62c15.28,8.86,23.4,20.78,22.85,33.59-.57,15.09-12.88,30.71-33.78,42.85l-100.15,58.14-298.53,173.38c-22.69,13.18-52.85,20.75-82.74,20.75-24.46,0-46.72-5.11-62.67-14.38l-313.62-182.11-111.04-64.51c-15-8.71-22.92-19.92-22.92-32.42,0-15.49,12.34-31.54,33.86-44.02l398.68-231.55c22.69-13.16,52.84-20.71,82.72-20.71h0M1429.04,947.47c-29.95,0-61.54,7.34-86.21,21.65l-398.68,231.56c-24.67,14.31-37.33,32.65-37.33,50.05,0,14.42,8.69,28.17,26.39,38.45l111.04,64.51,313.62,182.11c17.69,10.29,41.36,15.32,66.17,15.32,29.96,0,61.56-7.35,86.24-21.69l298.53-173.38,100.15-58.14c24-13.93,36.61-31.67,37.25-48.62.64-14.91-8.01-29.26-26.32-39.88l-424.66-246.62c-17.69-10.29-41.38-15.33-66.2-15.33h0Z"/><path class="cls-36" d="M1304.19,1728.38v222.55c0,15.35-4.32,26.84-11.45,33.34-8.24,7.51-20.2,8.33-33.51.64l-208.8-120.55c-24.83-14.33-44.95-52.78-44.95-85.88v-222.55c0-21.3,8.33-35.2,20.88-38.57,6.95-1.88,15.2-.52,24.06,4.58l208.8,120.57c24.83,14.33,44.96,52.78,44.96,85.88Z"/><path class="cls-1" d="M1304.19,1728.38v222.55c0,15.35-4.32,26.84-11.45,33.34-8.24,7.51-20.2,8.33-33.51.64l-208.8-120.55c-24.83-14.33-44.95-52.78-44.95-85.88v-222.55c0-21.3,8.33-35.2,20.88-38.57,6.95-1.88,15.2-.52,24.06,4.58l208.8,120.57c24.83,14.33,44.96,52.78,44.96,85.88Z"/><path class="cls-15" d="M1304.19,1728.38v222.55c0,15.35-4.32,26.84-11.45,33.34-6.95,1.88-15.2.52-24.06-4.58l-208.81-120.57c-24.82-14.33-44.95-52.77-44.95-85.87v-222.57c0-15.35,4.32-26.84,11.45-33.34,6.95-1.88,15.2-.52,24.06,4.58l208.8,120.57c24.83,14.33,44.96,52.78,44.96,85.88Z"/><path class="cls-37" d="M1304.19,1728.38v222.55c0,15.35-4.32,26.84-11.45,33.34-8.24,7.51-20.2,8.33-33.51.64l-208.8-120.55c-24.83-14.33-44.95-52.78-44.95-85.88v-222.55c0-21.3,8.33-35.2,20.88-38.57,6.95-1.88,15.2-.52,24.06,4.58l208.8,120.57c24.83,14.33,44.96,52.78,44.96,85.88Z"/><g class="cls-42"><path class="cls-29" d="M1032.58,1516.54c5.47,0,11.5,1.73,17.85,5.39l208.8,120.57c24.83,14.33,44.96,52.78,44.96,85.88v222.55c0,15.35-4.32,26.84-11.45,33.34-4.31,3.93-9.65,6.03-15.67,6.03-5.47,0-11.5-1.73-17.84-5.4l-208.8-120.55c-24.83-14.33-44.95-52.78-44.95-85.88v-222.55c0-21.3,8.33-35.2,20.88-38.57,1.97-.53,4.05-.81,6.21-.81M1032.58,1512.11h0c-2.54,0-5.02.32-7.37.96-15.13,4.06-24.16,20.08-24.16,42.85v222.55c0,16.71,4.85,35.19,13.67,52.04,8.87,16.96,20.77,30.34,33.5,37.69l208.8,120.55c6.88,3.97,13.63,5.99,20.06,5.99,7.05,0,13.5-2.49,18.66-7.19,8.31-7.57,12.89-20.58,12.89-36.61v-222.55c0-16.71-4.86-35.19-13.67-52.04-8.88-16.96-20.78-30.34-33.51-37.69l-208.8-120.56c-6.9-3.97-13.65-5.98-20.07-5.98h0Z"/></g><path class="cls-28" d="M1245.91,1856.13l-82.15-213.17c-1.56-4.04-4.47-7.66-7.62-9.48-3.15-1.82-6.06-1.56-7.62.68l-82.15,118.31c-1.18,1.7-1.46,4.38-.77,7.41.69,3.03,2.29,6.14,4.43,8.62l82.15,95.14c2.49,2.88,5.43,4.58,7.92,4.57l82.15-.28c2.14,0,3.74-1.27,4.43-3.51.69-2.23.41-5.23-.77-8.3ZM1164.91,1686.59l52.08,135.15-52.08-58.28v-76.87ZM1147.38,1676.47v76.87l-52.08-1.86,52.08-75.01ZM1156.14,1845.71l-62.22-72.06,62.22,2.22,62.22,69.62-62.22.22Z"/><path class="cls-30" d="M1243.29,1857.25l-82.15-213.17c-1.56-4.04-4.47-7.66-7.62-9.48-3.15-1.82-6.06-1.56-7.62.68l-82.15,118.31c-1.18,1.7-1.46,4.38-.77,7.41.69,3.03,2.29,6.14,4.43,8.62l82.15,95.14c2.49,2.88,5.43,4.58,7.92,4.57l82.15-.28c2.14,0,3.74-1.27,4.43-3.51.69-2.23.41-5.23-.77-8.3ZM1162.28,1687.72l52.08,135.15-52.08-58.28v-76.87ZM1144.76,1677.6v76.87l-52.08-1.86,52.08-75.01ZM1153.52,1846.84l-62.22-72.06,62.22,2.22,62.22,69.62-62.22.22Z"/><path class="cls-17" d="M1927.75,1249.62l-433.56,250.34c-34.63,19.98-87.06,22.17-117.04,4.85l-454.47-262.39c-16.71-9.63-22.94-23.3-19.18-36.98v-211.66h1051.83v210.2c4.37,15.29-5.1,32.65-27.59,45.63Z"/><path class="cls-10" d="M1427.97,1292.45c-18.76,0-35.82-3.89-48.05-10.95l-454.43-262.37c-11.26-6.5-17.47-15.21-17.47-24.52,0-11.73,9.43-23.91,25.87-33.4l433.55-250.31c17.39-10.04,40.51-15.8,63.43-15.8,18.76,0,35.82,3.89,48.05,10.95l454.43,262.37c11.26,6.5,17.47,15.21,17.47,24.52,0,11.73-9.43,23.91-25.87,33.4l-433.55,250.31c-17.39,10.04-40.51,15.8-63.43,15.8Z"/><path class="cls-33" d="M1430.87,689.53v11.16s0,0,0,0c17.79,0,33.87,3.62,45.26,10.2l454.43,262.37c6.7,3.87,14.68,10.42,14.68,19.69s-8.63,20.22-23.08,28.57l-433.55,250.31c-16.57,9.57-38.67,15.05-60.64,15.05-17.79,0-33.87-3.62-45.26-10.2l-454.43-262.37c-6.7-3.87-14.68-10.42-14.68-19.69s8.63-20.22,23.08-28.57l433.55-250.31c16.57-9.57,38.67-15.05,60.64-15.05v-11.16M1430.87,689.53c-23,0-47.27,5.61-66.22,16.55l-433.55,250.31c-34.65,20-38.41,50.26-8.4,67.58l454.43,262.37c13.59,7.85,31.78,11.69,50.84,11.69,23,0,47.27-5.61,66.22-16.55l433.55-250.31c34.65-20,38.41-50.26,8.4-67.58l-454.43-262.37c-13.59-7.85-31.78-11.69-50.84-11.69h0Z"/><path class="cls-29" d="M1430.87,689.53v6.97s0,0,0,0c18.52,0,35.33,3.82,47.35,10.76l454.43,262.37c10.97,6.33,16.77,14.4,16.77,23.31,0,11.22-9.18,22.96-25.17,32.19l-433.55,250.31c-17.19,9.92-40.05,15.61-62.73,15.61-18.52,0-35.33-3.82-47.35-10.76l-454.43-262.37c-10.97-6.33-16.77-14.4-16.77-23.31,0-11.22,9.18-22.96,25.17-32.19l433.55-250.31c17.18-9.92,40.05-15.61,62.73-15.61v-6.97M1430.87,689.53c-23,0-47.27,5.61-66.22,16.55l-433.55,250.31c-34.65,20-38.41,50.26-8.4,67.58l454.43,262.37c13.59,7.85,31.78,11.69,50.84,11.69,23,0,47.27-5.61,66.22-16.55l433.55-250.31c34.65-20,38.41-50.26,8.4-67.58l-454.43-262.37c-13.59-7.85-31.78-11.69-50.84-11.69h0Z"/><path class="cls-9" d="M1323.69,1390.91c0,1.44-.13,2.78-.35,3.99-1,5.48-4.17,8.63-8.34,8.63-1.76,0-3.68-.56-5.72-1.73l-325.49-187.92c-7.96-4.59-14.41-16.92-14.41-27.53,0-7.91,3.57-12.62,8.69-12.62.1,0,.18,0,.28.01,1.66.04,3.51.6,5.44,1.72l325.49,187.92c7.95,4.6,14.41,16.93,14.41,27.53Z"/><path class="cls-25" d="M1323.69,1390.91c0,1.44-.13,2.78-.35,3.99-1.66-.04-3.51-.6-5.44-1.72l-325.49-187.92c-7.95-4.6-14.41-16.93-14.41-27.53,0-1.44.13-2.78.35-3.99,1.66.04,3.51.6,5.44,1.72l325.49,187.92c7.95,4.6,14.41,16.93,14.41,27.53Z"/><path class="cls-24" d="M1244.36,2208c0,1.44-.11,2.76-.35,3.97-1,5.48-4.16,8.65-8.34,8.65-1.76,0-3.7-.56-5.72-1.73l-246.17-142.14c-7.96-4.59-14.41-16.92-14.41-27.53,0-7.89,3.57-12.62,8.69-12.62.1,0,.18,0,.28.01,1.67.04,3.51.6,5.44,1.72l246.17,142.14c7.95,4.59,14.41,16.92,14.41,27.53Z"/><path class="cls-21" d="M1323.69,2253.8c0,1.44-.11,2.76-.35,3.97-1,5.48-4.16,8.65-8.34,8.65-1.76,0-3.7-.56-5.72-1.73l-32.48-18.76c-7.96-4.59-14.41-16.92-14.41-27.53,0-7.91,3.57-12.62,8.69-12.62.1,0,.18,0,.28.01,1.66.04,3.51.6,5.44,1.72l32.48,18.76c7.95,4.59,14.41,16.92,14.41,27.53Z"/><path class="cls-22" d="M1244.36,2208c0,1.44-.11,2.76-.35,3.97-1.67-.06-3.51-.61-5.44-1.72l-246.17-142.12c-7.95-4.59-14.41-16.92-14.41-27.53,0-1.44.13-2.78.35-3.99,1.67.04,3.51.6,5.44,1.72l246.17,142.14c7.95,4.59,14.41,16.92,14.41,27.53Z"/><path class="cls-14" d="M1323.69,2253.8c0,1.44-.11,2.76-.35,3.97-1.67-.06-3.51-.61-5.44-1.72l-32.48-18.74c-7.95-4.6-14.41-16.93-14.41-27.53,0-1.44.13-2.78.35-3.99,1.66.04,3.51.6,5.44,1.72l32.48,18.76c7.95,4.59,14.41,16.92,14.41,27.53Z"/><path class="cls-32" d="M1244.36,2117.37c0,1.44-.11,2.76-.35,3.97-1,5.48-4.16,8.65-8.34,8.65-1.76,0-3.7-.56-5.72-1.73l-246.17-142.14c-7.96-4.59-14.41-16.92-14.41-27.53,0-7.89,3.57-12.62,8.69-12.62.1,0,.18,0,.28.01,1.67.04,3.51.6,5.44,1.72l246.17,142.14c7.95,4.59,14.41,16.92,14.41,27.53Z"/><path class="cls-3" d="M1323.69,2163.17c0,1.44-.11,2.76-.35,3.97-1,5.48-4.16,8.65-8.34,8.65-1.76,0-3.7-.56-5.72-1.73l-32.48-18.76c-7.96-4.59-14.41-16.92-14.41-27.53,0-7.91,3.57-12.62,8.69-12.62.1,0,.18,0,.28.01,1.66.04,3.51.6,5.44,1.72l32.48,18.76c7.95,4.59,14.41,16.92,14.41,27.53Z"/><path class="cls-26" d="M1244.36,2117.37c0,1.44-.11,2.76-.35,3.97-1.67-.06-3.51-.61-5.44-1.72l-246.17-142.12c-7.95-4.59-14.41-16.92-14.41-27.53,0-1.44.13-2.78.35-3.99,1.67.04,3.51.6,5.44,1.72l246.17,142.14c7.95,4.59,14.41,16.92,14.41,27.53Z"/><path class="cls-7" d="M1323.69,2163.17c0,1.44-.11,2.76-.35,3.97-1.67-.06-3.51-.61-5.44-1.72l-32.48-18.74c-7.95-4.6-14.41-16.93-14.41-27.53,0-1.44.13-2.78.35-3.99,1.66.04,3.51.6,5.44,1.72l32.48,18.76c7.95,4.59,14.41,16.92,14.41,27.53Z"/></g><g id="_Teal"><g class="cls-41"><path class="cls-4" d="M1908.25,1279.86l-.48-169.94-34.4-19.99.48,169.94c.01,3.9,1.39,6.64,3.61,7.94l34.4,19.99c-2.22-1.29-3.6-4.03-3.61-7.93Z"/><path class="cls-34" d="M2136.58,819.2c-2.25-1.31-5.37-1.13-8.81.86l-147.89,85.39,34.4,19.99,147.89-85.39c3.44-1.99,6.56-2.17,8.81-.86l-34.4-19.99Z"/><path class="cls-16" d="M1873.02,967.14l-147.89,85.39c-6.84,3.95-12.36,13.52-12.34,21.38l.27,94.33c.01,3.9,1.39,6.65,3.61,7.94l34.4,19.99c-2.22-1.29-3.6-4.04-3.61-7.94l-.27-94.33c-.02-7.86,5.5-17.43,12.34-21.38l147.89-85.39-34.4-19.99Z"/><path class="cls-19" d="M2001.38,748.42c6.83-3.94,12.39-.78,12.42,7.08l.48,169.94,147.89-85.39c6.84-3.95,12.4-.78,12.43,7.08l.27,94.33c.02,7.85-5.51,17.42-12.34,21.37l-147.89,85.39.48,169.94c.02,7.86-5.51,17.42-12.34,21.37l-82.09,47.4c-6.84,3.95-12.4.79-12.43-7.07l-.48-169.94-147.89,85.39c-6.84,3.95-12.39.77-12.42-7.08l-.27-94.33c-.02-7.86,5.5-17.43,12.34-21.38l147.89-85.39-.48-169.94c-.02-7.86,5.51-17.42,12.35-21.37l82.09-47.4Z"/><path class="cls-8" d="M1975.78,727.57c-2.25-1.31-5.37-1.12-8.81.86l-82.09,47.4c-6.84,3.95-12.37,13.51-12.35,21.37l.48,169.94,34.4,19.99-.48-169.94c-.02-7.86,5.51-17.42,12.34-21.37l82.09-47.4c3.44-1.98,6.55-2.17,8.81-.86l-34.4-19.99Z"/></g></g></g></g></svg>