<svg xmlns="http://www.w3.org/2000/svg" xmlns:xlink="http://www.w3.org/1999/xlink" viewBox="0 0 2500 2500"><defs><style>.cls-1{fill:none;}.cls-2{fill:#20bcec;}.cls-3{fill:#00a7d4;}.cls-4{fill:url(#Nueva_muestra_de_degradado_66);}.cls-5{fill:#52d6ff;}.cls-6{fill:url(#Nueva_muestra_de_degradado_66-2);}.cls-7{fill:url(#linear-gradient);}.cls-8{fill:url(#linear-gradient-2);}.cls-9{fill:url(#linear-gradient-3);}.cls-10{filter:url(#AI_DesenfoqueGaussiano_7);}.cls-11{fill:#141226;opacity:0.15;}.cls-12{fill:url(#linear-gradient-4);}.cls-13{fill:url(#linear-gradient-5);}.cls-14{fill:#fff;}.cls-15{clip-path:url(#clip-path);}.cls-16{fill:url(#linear-gradient-6);}.cls-17{fill:url(#linear-gradient-7);}.cls-18{fill:#fafbfc;}.cls-19,.cls-20{fill-opacity:0.24;}.cls-19{fill:url(#Nueva_muestra_de_degradado_59);}.cls-20{fill:url(#Nueva_muestra_de_degradado_59-2);}.cls-21{fill:url(#linear-gradient-8);}.cls-22{fill:url(#linear-gradient-9);}.cls-23{fill:url(#linear-gradient-10);}.cls-24{fill:url(#linear-gradient-11);}.cls-25{fill:#bedfec;}.cls-26{fill:url(#linear-gradient-12);}.cls-27{fill:#ccd3d8;fill-rule:evenodd;}.cls-28{fill:#a6c8e2;}.cls-29{fill:url(#radial-gradient);}.cls-30{isolation:isolate;}.cls-31{fill:url(#Degradado_sin_nombre_8);}.cls-32{fill:url(#Degradado_sin_nombre_5);}.cls-33{fill:url(#Degradado_sin_nombre_4);}.cls-34{fill:#4dd2d2;}.cls-35{fill:url(#Degradado_sin_nombre_4-2);}</style><linearGradient id="Nueva_muestra_de_degradado_66" x1="720.67" y1="1165.02" x2="887.64" y2="1178.28" gradientUnits="userSpaceOnUse"><stop offset="0" stop-color="#52d6ff" stop-opacity="0.1"/><stop offset="0.02" stop-color="#45cffa" stop-opacity="0.1"/><stop offset="0.15" stop-color="#20bcec" stop-opacity="0.1"/><stop offset="0.87" stop-color="#0071b0" stop-opacity="0.3"/></linearGradient><linearGradient id="Nueva_muestra_de_degradado_66-2" x1="981.29" y1="1024.71" x2="1060.8" y2="1061.81" xlink:href="#Nueva_muestra_de_degradado_66"/><linearGradient id="linear-gradient" x1="1271.69" y1="1006.09" x2="1494.31" y2="1151.86" gradientUnits="userSpaceOnUse"><stop offset="0" stop-color="#52d6ff" stop-opacity="0.1"/><stop offset="0.06" stop-color="#45cffa" stop-opacity="0.1"/><stop offset="0.46" stop-color="#20bcec" stop-opacity="0.1"/><stop offset="0.87" stop-color="#0071b0" stop-opacity="0.3"/></linearGradient><linearGradient id="linear-gradient-2" x1="993.65" y1="748.76" x2="1192.43" y2="1307.98" gradientUnits="userSpaceOnUse"><stop offset="0" stop-color="#52d6ff" stop-opacity="0"/><stop offset="0.06" stop-color="#3fccf8" stop-opacity="0.04"/><stop offset="0.17" stop-color="#28c0ef" stop-opacity="0.08"/><stop offset="0.29" stop-color="#20bcec" stop-opacity="0.1"/><stop offset="0.33" stop-color="#1db4e6" stop-opacity="0.15"/><stop offset="0.53" stop-color="#0d90c9" stop-opacity="0.39"/><stop offset="0.69" stop-color="#0479b7" stop-opacity="0.54"/><stop offset="0.78" stop-color="#0071b0" stop-opacity="0.6"/></linearGradient><linearGradient id="linear-gradient-3" x1="1905.98" y1="1610.84" x2="1007.53" y2="1560.49" gradientUnits="userSpaceOnUse"><stop offset="0" stop-color="#0f0b26" stop-opacity="0"/><stop offset="0.29" stop-color="#0f0b26" stop-opacity="0.1"/><stop offset="1" stop-color="#0f0b26" stop-opacity="0.2"/></linearGradient><filter id="AI_DesenfoqueGaussiano_7" name="AI_DesenfoqueGaussiano_7"><feGaussianBlur stdDeviation="7"/></filter><linearGradient id="linear-gradient-4" x1="1062.17" y1="1059.99" x2="1518.68" y2="1850.32" gradientUnits="userSpaceOnUse"><stop offset="0.02" stop-color="#f3fafc"/><stop offset="0.28" stop-color="#f0f8fb"/><stop offset="0.44" stop-color="#e9f5fa"/><stop offset="0.61" stop-color="#deeef8"/><stop offset="0.63" stop-color="#daecf7"/><stop offset="0.64" stop-color="#cee8f6"/><stop offset="0.66" stop-color="#badff3"/><stop offset="0.67" stop-color="#9ed4ef"/><stop offset="0.68" stop-color="#99d2ee"/><stop offset="0.79" stop-color="#a6d5ee"/><stop offset="0.99" stop-color="#eaf5fb"/></linearGradient><linearGradient id="linear-gradient-5" x1="1148.89" y1="1934.65" x2="731.91" y2="1181.96" gradientUnits="userSpaceOnUse"><stop offset="0" stop-color="#7dc2db"/><stop offset="0" stop-color="#7ec3db"/><stop offset="0.05" stop-color="#99cfe4"/><stop offset="0.1" stop-color="#afdaea"/><stop offset="0.16" stop-color="#c0e2f0"/><stop offset="0.24" stop-color="#cbe8f3"/><stop offset="0.34" stop-color="#d2ebf5"/><stop offset="0.64" stop-color="#d4ecf6"/><stop offset="0.65" stop-color="#cceaf5"/><stop offset="0.67" stop-color="#b8e3f3"/><stop offset="0.68" stop-color="#a2dcf0"/><stop offset="0.71" stop-color="#a1d9ee"/><stop offset="0.86" stop-color="#9dcce6"/><stop offset="1" stop-color="#9cc7e3"/></linearGradient><clipPath id="clip-path"><path class="cls-1" d="M1243.81,1643,671.9,1312.78a9.4,9.4,0,0,0-.11,1.47v216.4c0,5.41,3.62,11.7,6.74,13.5l571.91,330.19a9.36,9.36,0,0,0,.11-1.46V1656.47C1250.55,1651.06,1246.92,1644.77,1243.81,1643Z"/></clipPath><linearGradient id="linear-gradient-6" x1="1290.14" y1="1814.44" x2="910.32" y2="1128.83" gradientUnits="userSpaceOnUse"><stop offset="0.2" stop-color="#7dc2db"/><stop offset="0.2" stop-color="#7dc2db"/><stop offset="0.21" stop-color="#a3d4e7"/><stop offset="0.22" stop-color="#bee1ef"/><stop offset="0.23" stop-color="#cee9f4"/><stop offset="0.23" stop-color="#d4ecf6"/><stop offset="0.43" stop-color="#cceaf5"/><stop offset="0.73" stop-color="#b8e3f3"/><stop offset="0.96" stop-color="#a2dcf0"/><stop offset="0.97" stop-color="#9fcada"/><stop offset="0.98" stop-color="#9cb7c3"/><stop offset="0.99" stop-color="#9bacb6"/><stop offset="1" stop-color="#9aa8b1"/></linearGradient><linearGradient id="linear-gradient-7" x1="669.97" y1="1548.71" x2="1323.66" y2="1641.21" gradientUnits="userSpaceOnUse"><stop offset="0" stop-color="#f4f8fa"/><stop offset="0.77" stop-color="#e8f5fa"/><stop offset="1" stop-color="#d4ecf6" stop-opacity="0.9"/></linearGradient><linearGradient id="Nueva_muestra_de_degradado_59" x1="1181.95" y1="1727.82" x2="1223.15" y2="1727.82" gradientUnits="userSpaceOnUse"><stop offset="0.01" stop-color="#00b287"/><stop offset="0.33" stop-color="#08ad9f"/><stop offset="1" stop-color="#1da1dc"/></linearGradient><linearGradient id="Nueva_muestra_de_degradado_59-2" x1="977.19" y1="1609.19" x2="1016.97" y2="1609.19" xlink:href="#Nueva_muestra_de_degradado_59"/><linearGradient id="linear-gradient-8" x1="902.21" y1="1533.02" x2="903.68" y2="1539.21" gradientUnits="userSpaceOnUse"><stop offset="0" stop-color="#c6e9f7"/><stop offset="0.8" stop-color="#8bd5ee"/></linearGradient><linearGradient id="linear-gradient-9" x1="902.21" y1="1608.04" x2="903.68" y2="1614.23" xlink:href="#linear-gradient-8"/><linearGradient id="linear-gradient-10" x1="1101.36" y1="1723.03" x2="1102.83" y2="1729.21" xlink:href="#linear-gradient-8"/><linearGradient id="linear-gradient-11" x1="1101.36" y1="1648.01" x2="1102.83" y2="1654.19" xlink:href="#linear-gradient-8"/><linearGradient id="linear-gradient-12" x1="1199.11" y1="1363.59" x2="923.48" y2="1694.88" gradientUnits="userSpaceOnUse"><stop offset="0" stop-color="#e2eaf2"/><stop offset="0.99" stop-color="#d5ecf5"/></linearGradient><radialGradient id="radial-gradient" cx="1788.66" cy="1369.73" r="228.62" gradientUnits="userSpaceOnUse"><stop offset="0" stop-color="#90aac1" stop-opacity="0.3"/><stop offset="1" stop-color="#90aac1" stop-opacity="0"/></radialGradient><linearGradient id="Degradado_sin_nombre_8" x1="1737.75" y1="1374.81" x2="1719.49" y2="1586.83" gradientUnits="userSpaceOnUse"><stop offset="0.01" stop-color="#12abbb"/><stop offset="0.22" stop-color="#0ca0b3"/><stop offset="0.67" stop-color="#038ea6"/><stop offset="1" stop-color="#0088a1"/></linearGradient><linearGradient id="Degradado_sin_nombre_5" x1="1773.53" y1="1273.74" x2="1886.32" y2="1204.24" gradientUnits="userSpaceOnUse"><stop offset="0.01" stop-color="#12abbb"/><stop offset="0.31" stop-color="#099aae"/><stop offset="0.67" stop-color="#028da4"/><stop offset="1" stop-color="#0088a1"/></linearGradient><linearGradient id="Degradado_sin_nombre_4" x1="1597.39" y1="1483.08" x2="1695.74" y2="1283.13" gradientUnits="userSpaceOnUse"><stop offset="0.01" stop-color="#12abbb"/><stop offset="0.31" stop-color="#11a9ba"/><stop offset="0.41" stop-color="#0ea2b5"/><stop offset="0.49" stop-color="#0797ac"/><stop offset="0.55" stop-color="#0088a1"/><stop offset="0.98" stop-color="#0088a1"/><stop offset="1" stop-color="#0088a1"/></linearGradient><linearGradient id="Degradado_sin_nombre_4-2" x1="1725.3" y1="1239.36" x2="1794.53" y2="1110.09" xlink:href="#Degradado_sin_nombre_4"/></defs><g id="Plant"><path class="cls-2" d="M857,1380.16c-15.22-15.32-294.48-165.51-214.69-315.7S1092,980,1113.56,1052.73s78.65,292.8,63,293.07S857,1380.16,857,1380.16Z"/><path class="cls-3" d="M717.63,1078.71c152.49,28.51,309.26,166.9,428.12,267.51,0,0,30.13-38.81,20.8-48C930.88,1067.13,717.63,1078.71,717.63,1078.71Z"/><path class="cls-4" d="M857,1380.16c-15.22-15.32-294.48-165.51-214.69-315.7S1092,980,1113.56,1052.73s78.65,292.8,63,293.07S857,1380.16,857,1380.16Z"/><path class="cls-5" d="M931.05,1370.1S742,638.27,890.68,632.67s535.14,336,494.7,450.77S931.05,1370.1,931.05,1370.1"/><path class="cls-3" d="M926.53,722.59c-37.82-31.61,241.88,193.8,304.15,557.07s0,10.45,0,10.45l67.22-37.38S1167.37,923.86,926.53,722.59Z"/><path class="cls-6" d="M931.05,1370.1S742,638.27,890.68,632.67s535.14,336,494.7,450.77S931.05,1370.1,931.05,1370.1"/><path class="cls-2" d="M1009.27,1240.43s195.59-683.1,388.83-583.12,151.78,407.34,84.05,491.4-198.76,227.22-262.09,235.84S1009.27,1240.43,1009.27,1240.43Z"/><path class="cls-3" d="M1388.33,793.12c8.63-43.56-89.08,443.28-307.4,591.78l50.31,17.44S1301.36,1231.79,1388.33,793.12Z"/><path class="cls-7" d="M1009.27,1240.43s195.59-683.1,388.83-583.12,151.78,407.34,84.05,491.4-198.76,227.22-262.09,235.84S1009.27,1240.43,1009.27,1240.43Z"/><path class="cls-8" d="M1398.1,657.31c-72.23-37.37-144.79,34.67-207.35,139.56C1084.41,705,961,630,890.68,632.67s-65.1,167.91-40,341.29c-89.14,2.13-174.64,27-208.35,90.5-79.79,150.19,199.47,300.38,214.69,315.7,0,0,191.54-21.48,278.33-30.48,31.9,22,63.19,37.8,84.73,34.87,63.33-8.62,194.35-151.78,262.09-235.84S1591.34,757.3,1398.1,657.31Z"/></g><g id="Box"><g id="Box-2" data-name="Box"><path id="_shadowClusters_" data-name="&lt;shadowClusters&gt;" class="cls-9" d="M1254,1882.29h826.27V1312.58H1164.18l64.35,547A25.69,25.69,0,0,0,1254,1882.29Z"/><g id="shadowSVG" class="cls-10"><path class="cls-11" d="M670.89,1554.27c-7.93-4.6-7.95-12.16,0-16.8l494.43-297.94c7.91-4.64,20.9-4.72,28.86-.17l577,332.38c8,4.55,7.95,12,0,16.49l-506,296.5c-8,4.52-21,4.46-28.92-.14Z"/></g><path class="cls-12" d="M1759.89,1340.72l-572.28-330.4c-3-1.71-5.62-1.56-7.49,0h0L666.67,1306.87l586.89,574.36,513.68-296.57-.08-.07c1.84-1.41,3-4.15,3-7.9v-216.4C1770.13,1352.75,1765.55,1344,1759.89,1340.72Z"/><path class="cls-13" d="M1246.31,1881.06,674,1550.66c-5.66-3.27-10.24-12-10.24-19.57v-216.4c0-7.54,4.58-11,10.24-7.74l572.27,330.4c5.66,3.26,10.24,12,10.24,19.57v216.4C1256.55,1880.86,1252,1884.33,1246.31,1881.06Z"/><path class="cls-14" d="M670.29,1311.79a4.5,4.5,0,0,1,.75.35l572.27,330.4c3.42,2,7.24,8.54,7.24,14.38v216.4a7,7,0,0,1-.49,2.9,4.73,4.73,0,0,1-.75-.36L677,1545.46c-3.42-2-7.24-8.54-7.24-14.37v-216.4a6.81,6.81,0,0,1,.49-2.9m-.32-6.07c-3.63,0-6.17,3.35-6.17,9v216.4c0,7.54,4.58,16.3,10.24,19.57l572.27,330.4a8.17,8.17,0,0,0,4.07,1.23c3.63,0,6.17-3.36,6.17-9v-216.4c0-7.54-4.58-16.31-10.24-19.57L674,1307a8.17,8.17,0,0,0-4.07-1.23Z"/><g class="cls-15"><polygon class="cls-16" points="1543.23 1671.38 1240.14 1846.37 692.09 1334.83 877.65 1227.7 1543.23 1671.38"/><path class="cls-17" d="M1238.9,1844.37a5.46,5.46,0,0,1-2.67-.87L697.81,1532.64c-3.47-2-6.41-6.61-6.41-10.05V1339.2c0-2.37,1.32-2.37,1.75-2.37a5.4,5.4,0,0,1,2.66.87l538.42,310.86c3.48,2,6.41,6.61,6.41,10V1842C1240.64,1844.37,1239.33,1844.37,1238.9,1844.37Z"/><path class="cls-18" d="M693.42,1338.86a4.61,4.61,0,0,1,1.39.57l538.42,310.86c3.1,1.79,5.41,5.87,5.41,8.32V1842a3.33,3.33,0,0,1,0,.34,4.46,4.46,0,0,1-1.4-.57L698.81,1530.91c-3.09-1.79-5.41-5.87-5.41-8.32V1339.2a3,3,0,0,1,0-.34m-.27-4c-2.24,0-3.75,1.57-3.75,4.37v183.39c0,4.15,3.32,9.42,7.41,11.79l538.42,310.85a7.54,7.54,0,0,0,3.67,1.14c2.23,0,3.74-1.57,3.74-4.37V1658.61c0-4.14-3.31-9.42-7.41-11.78L696.81,1336a7.48,7.48,0,0,0-3.66-1.14Z"/><path class="cls-14" d="M693.15,1336.83a5.4,5.4,0,0,1,2.66.87l538.42,310.86c3.48,2,6.41,6.61,6.41,10V1842c0,2.37-1.31,2.37-1.74,2.37a5.46,5.46,0,0,1-2.67-.87L697.81,1532.64c-3.47-2-6.41-6.61-6.41-10.05V1339.2c0-2.37,1.32-2.37,1.75-2.37m0-2c-2.24,0-3.75,1.57-3.75,4.37v183.39c0,4.15,3.32,9.42,7.41,11.79l538.42,310.85a7.54,7.54,0,0,0,3.67,1.14c2.23,0,3.74-1.57,3.74-4.37V1658.61c0-4.14-3.31-9.42-7.41-11.78L696.81,1336a7.48,7.48,0,0,0-3.66-1.14Z"/><path class="cls-19" d="M1216.29,1744.89,1188.81,1729c-3.79-2.19-6.86-8-6.86-13.11h0c0-5.05,3.07-7.37,6.86-5.18l27.48,15.86c3.78,2.19,6.86,8.06,6.86,13.11h0C1223.15,1744.76,1220.07,1747.08,1216.29,1744.89Z"/><path class="cls-20" d="M1003.48,1630.88l-12.79-7.38c-7.45-4.31-13.5-15.85-13.5-25.79h0c0-9.94,6-14.51,13.5-10.21l12.79,7.39c7.45,4.3,13.49,15.85,13.49,25.79h0C1017,1630.61,1010.93,1635.18,1003.48,1630.88Z"/><path class="cls-21" d="M963.46,1518.82l-131.91-76.16c-1.41-.81-2.56,0-2.56,1.94v58.26a6.12,6.12,0,0,0,2.56,4.89l131.91,76.16c1.42.82,2.56-.05,2.56-1.93v-58.27A6.12,6.12,0,0,0,963.46,1518.82Z"/><path class="cls-22" d="M963.46,1593.84l-131.91-76.16c-1.41-.81-2.56,0-2.56,1.94v58.26a6.12,6.12,0,0,0,2.56,4.89l131.91,76.16c1.42.82,2.56,0,2.56-1.93v-58.27A6.12,6.12,0,0,0,963.46,1593.84Z"/><path class="cls-23" d="M1162.62,1708.82l-131.91-76.16c-1.42-.81-2.56,0-2.56,1.94v58.27a6.12,6.12,0,0,0,2.56,4.89l131.91,76.16c1.41.81,2.56-.05,2.56-1.94v-58.26A6.16,6.16,0,0,0,1162.62,1708.82Z"/><path class="cls-24" d="M1162.62,1633.8l-131.91-76.15c-1.42-.82-2.56,0-2.56,1.93v58.27a6.12,6.12,0,0,0,2.56,4.89l131.91,76.16c1.41.81,2.56-.05,2.56-1.94V1638.7A6.16,6.16,0,0,0,1162.62,1633.8Z"/><path class="cls-25" d="M961.15,1519.72l-131.91-76.15c-1.42-.82-2.56,0-2.56,1.93v58.27a6.12,6.12,0,0,0,2.56,4.89l131.91,76.16c1.41.81,2.56,0,2.56-1.94v-58.26A6.16,6.16,0,0,0,961.15,1519.72Z"/><path class="cls-25" d="M961.15,1594.74l-131.91-76.16c-1.42-.81-2.56.05-2.56,1.94v58.26a6.13,6.13,0,0,0,2.56,4.9l131.91,76.16c1.41.81,2.56,0,2.56-1.94v-58.26A6.16,6.16,0,0,0,961.15,1594.74Z"/><path class="cls-25" d="M1160.31,1709.73l-131.92-76.16c-1.41-.82-2.56,0-2.56,1.93v58.27a6.15,6.15,0,0,0,2.56,4.89l131.92,76.16c1.41.82,2.56,0,2.56-1.94v-58.26A6.12,6.12,0,0,0,1160.31,1709.73Z"/><path class="cls-25" d="M1160.31,1634.71l-131.92-76.16c-1.41-.82-2.56,0-2.56,1.93v58.27a6.15,6.15,0,0,0,2.56,4.89l131.92,76.16c1.41.82,2.56,0,2.56-1.94V1639.6A6.12,6.12,0,0,0,1160.31,1634.71Z"/><path class="cls-26" d="M961.15,1519.72l-131.91-76.15c-1.42-.82-2.56,0-2.56,1.93v58.27a6.12,6.12,0,0,0,2.56,4.89l131.91,76.16c1.41.81,2.56,0,2.56-1.94v-58.26A6.16,6.16,0,0,0,961.15,1519.72Z"/><path class="cls-26" d="M961.15,1594.74l-131.91-76.16c-1.42-.81-2.56.05-2.56,1.94v58.26a6.13,6.13,0,0,0,2.56,4.9l131.91,76.16c1.41.81,2.56,0,2.56-1.94v-58.26A6.16,6.16,0,0,0,961.15,1594.74Z"/><path class="cls-26" d="M1160.31,1709.73l-131.92-76.16c-1.41-.82-2.56,0-2.56,1.93v58.27a6.15,6.15,0,0,0,2.56,4.89l131.92,76.16c1.41.82,2.56,0,2.56-1.94v-58.26A6.12,6.12,0,0,0,1160.31,1709.73Z"/><path class="cls-26" d="M1160.31,1634.71l-131.92-76.16c-1.41-.82-2.56,0-2.56,1.93v58.27a6.15,6.15,0,0,0,2.56,4.89l131.92,76.16c1.41.82,2.56,0,2.56-1.94V1639.6A6.12,6.12,0,0,0,1160.31,1634.71Z"/><path class="cls-27" d="M754.3,1423.07a10.37,10.37,0,0,0-4.72-8.13l-14.16-8.18c-2.61-1.5-4.72-.3-4.72,2.69v16.23a10.4,10.4,0,0,0,4.72,8.14l4.72,2.72v30.3l-5.66-3.27c-2.61-1.5-4.72-.3-4.72,2.69v16.23a10.4,10.4,0,0,0,4.72,8.14l14.16,8.17c2.6,1.51,4.72.31,4.72-2.68v-6l26,15v6a10.38,10.38,0,0,0,4.72,8.13l14.16,8.18c2.61,1.5,4.72.3,4.72-2.69V1508.5a10.4,10.4,0,0,0-4.72-8.14L784,1492.19c-2.61-1.51-4.72-.31-4.72,2.68v4.87l-26-15v-4.87a6.83,6.83,0,0,0-.08-1l30.34-17.27.42.27,14.16,8.17c2.61,1.51,4.72.3,4.72-2.68v-16.24a10.37,10.37,0,0,0-4.72-8.13L784,1434.83c-2.61-1.5-4.72-.3-4.72,2.69v16.23a8.13,8.13,0,0,0,.4,2.43L750.21,1473a8,8,0,0,0-1.57-1.21l-3.78-2.19v-30.3l4.72,2.73c2.61,1.51,4.72.3,4.72-2.68Z"/><path class="cls-27" d="M735.41,1453.29v-10.83l-20-11.56c-2.66-1.53-5-.25-5,2.74v59.12a11.2,11.2,0,0,0,5,8.48l51.41,29.69.53.27c2.42,1.08,4.45-.22,4.45-3v-22l-9-5.18v16.78l-42.49-24.53v-48.7Z"/><path class="cls-27" d="M762.79,1484.79l9,5.18v-13.83l-9,5.1Z"/><path class="cls-27" d="M753.35,1463.65l9.46-5.37-13.23-7.64v10.83Z"/><path class="cls-28" d="M754.3,1423.07a10.37,10.37,0,0,0-4.72-8.13l-14.16-8.18c-2.61-1.5-4.72-.3-4.72,2.69v16.23a10.4,10.4,0,0,0,4.72,8.14l4.72,2.72v30.3l-5.66-3.27c-2.61-1.5-4.72-.3-4.72,2.69v16.23a10.4,10.4,0,0,0,4.72,8.14l14.16,8.17c2.6,1.51,4.72.31,4.72-2.68v-6l26,15v6a10.38,10.38,0,0,0,4.72,8.13l14.16,8.18c2.61,1.5,4.72.3,4.72-2.69V1508.5a10.4,10.4,0,0,0-4.72-8.14L784,1492.19c-2.61-1.51-4.72-.31-4.72,2.68v4.87l-26-15v-4.87a6.83,6.83,0,0,0-.08-1l30.34-17.27.42.27,14.16,8.17c2.61,1.51,4.72.3,4.72-2.68v-16.24a10.37,10.37,0,0,0-4.72-8.13L784,1434.83c-2.61-1.5-4.72-.3-4.72,2.69v16.23a8.13,8.13,0,0,0,.4,2.43L750.21,1473a8,8,0,0,0-1.57-1.21l-3.78-2.19v-30.3l4.72,2.73c2.61,1.51,4.72.3,4.72-2.68Z"/><path class="cls-28" d="M735.41,1453.29v-10.83l-20-11.56c-2.66-1.53-5-.25-5,2.74v59.12a11.2,11.2,0,0,0,5,8.48l51.41,29.69.53.27c2.42,1.08,4.45-.22,4.45-3v-22l-9-5.18v16.78l-42.49-24.53v-48.7Z"/><path class="cls-28" d="M762.79,1484.79l9,5.18v-13.83l-9,5.1Z"/><path class="cls-28" d="M753.35,1463.65l9.46-5.37-13.23-7.64v10.83Z"/></g><path class="cls-29" d="M1767.16,1584.59c1.84-1.41,3-4.15,3-7.9v-216.4c0-7.54-4.58-16.3-10.24-19.57l-239.16-138.08c-59.07,112-179.06,386.73-31.72,542.66l278.23-160.64Z"/></g></g><g id="PlusTeal"><g id="_Teal" data-name="+ Teal"><g class="cls-30"><path class="cls-31" d="M1742.85,1511l-.34-121.86-24.67-14.34.35,121.86c0,2.8,1,4.77,2.58,5.69l24.67,14.34C1743.85,1515.77,1742.86,1513.8,1742.85,1511Z"/><path class="cls-32" d="M1906.58,1180.68c-1.61-.93-3.85-.8-6.32.62l-106,61.23,24.67,14.34,106-61.23c2.47-1.43,4.7-1.56,6.32-.62Z"/><path class="cls-33" d="M1717.59,1286.77l-106,61.23c-4.9,2.83-8.86,9.69-8.84,15.32l.19,67.65c0,2.79,1,4.76,2.59,5.69l24.66,14.33c-1.59-.92-2.58-2.89-2.59-5.69l-.19-67.64c0-5.63,4-12.5,8.85-15.33l106-61.23Z"/><path class="cls-34" d="M1809.63,1129.93c4.9-2.82,8.89-.56,8.9,5.08l.35,121.86,106-61.23c4.9-2.83,8.89-.56,8.91,5.08l.19,67.64c0,5.62-4,12.49-8.85,15.32l-106,61.23.35,121.86c0,5.63-4,12.49-8.85,15.32l-58.87,34c-4.9,2.83-8.89.56-8.91-5.07l-.34-121.86-106,61.23c-4.91,2.83-8.89.55-8.91-5.08l-.19-67.64c0-5.63,4-12.5,8.85-15.33l106-61.23-.35-121.86c0-5.63,3.95-12.49,8.85-15.32Z"/><path class="cls-35" d="M1791.28,1115c-1.62-.94-3.85-.81-6.32.62l-58.86,34c-4.91,2.84-8.87,9.69-8.86,15.33l.35,121.86,24.67,14.33-.35-121.86c0-5.63,3.95-12.49,8.85-15.32l58.87-34c2.47-1.42,4.7-1.55,6.32-.61Z"/></g></g></g></svg>