<svg width="24" height="24" viewBox="0 0 24 24" fill="none" xmlns="http://www.w3.org/2000/svg">
<path d="M11.8 8.3C11.6 8.1 11.5 7.9 11.5 7.6C11.5 7.36261 11.5626 7.18784 11.6383 6.97659C11.6583 6.92087 11.6791 6.86261 11.7 6.8C12.1 6.4 12.7 6.4 13.1 6.8L17.1 10.8C17.4 11 17.5 11.4 17.5 11.7C17.5 12.1 17.4 12.4 17.2 12.5L13.2 16.5C12.8 16.9 12.2 16.9 11.8 16.5C11.4 16.1 11.4 15.5 11.8 15.1L15.2 11.7L11.8 8.3Z" fill="white"/>
<path d="M6.8 8.3C6.6 8.1 6.5 7.9 6.5 7.6C6.5 7.36261 6.56261 7.18784 6.63829 6.97659C6.65826 6.92087 6.67913 6.86261 6.7 6.8C7.1 6.4 7.7 6.4 8.1 6.8L12.1 10.8C12.4 11 12.5 11.4 12.5 11.7C12.5 12.1 12.4 12.4 12.2 12.5L8.2 16.5C7.8 16.9 7.2 16.9 6.8 16.5C6.4 16.1 6.4 15.5 6.8 15.1L10.2 11.7L6.8 8.3Z" fill="white"/>
</svg>
