<?xml version="1.0" encoding="UTF-8"?>
<svg width="24px" height="24px" viewBox="0 0 24 24" version="1.1" xmlns="http://www.w3.org/2000/svg" xmlns:xlink="http://www.w3.org/1999/xlink">
    <title>Icons/Full Set/Caret/Double Caret/Left</title>
    <g id="Icons/Full-Set/Caret/Double-Caret/Left" stroke="none" stroke-width="1" fill="none" fill-rule="evenodd">
        <g id="Double-Caret" transform="translate(6.500000, 6.500000)" fill="#273637">
            <path d="M11,1.1 C11,1.4 10.9,1.6 10.7,1.8 L7.3,5.2 L10.7,8.6 C11.1,9 11.1,9.6 10.7,10 C10.3,10.4 9.7,10.4 9.3,10 L5.3,6 C5.1,5.9 5,5.6 5,5.2 C5,5.2 5,5.2 5,5.2 C5,4.9 5.1,4.5 5.4,4.3 L9.4,0.3 C9.8,-0.1 10.4,-0.1 10.8,0.3 C10.9,0.6 11,0.8 11,1.1 Z" id="Shape"></path>
            <path d="M6,1.1 C6,1.4 5.9,1.6 5.7,1.8 L2.3,5.2 L5.7,8.6 C6.1,9 6.1,9.6 5.7,10 C5.3,10.4 4.7,10.4 4.3,10 L0.3,6 C0.1,5.9 0,5.6 0,5.2 C0,5.2 0,5.2 0,5.2 C0,4.9 0.1,4.5 0.4,4.3 L4.4,0.3 C4.8,-0.1 5.4,-0.1 5.8,0.3 C5.9,0.6 6,0.8 6,1.1 Z" id="Shape"></path>
        </g>
    </g>
</svg>
