<svg xmlns="http://www.w3.org/2000/svg" xmlns:xlink="http://www.w3.org/1999/xlink" viewBox="0 0 2500 2500"><defs><style>.cls-1{filter:url(#AI_DesenfoqueGaussiano_4);}.cls-2{fill:url(#Degradado_sin_nombre_24);}.cls-3{fill:url(#Degradado_sin_nombre_114);}.cls-4{fill:#c2ebe8;}.cls-5{fill:#6ad8cf;}.cls-6{fill:url(#Nueva_muestra_de_degradado_47);}.cls-7{fill:#91e2db;}.cls-8{opacity:0.16;}.cls-25,.cls-27,.cls-9{fill:#85d8d1;}.cls-10{opacity:0.18;}.cls-11{fill:#333a45;}.cls-12,.cls-23,.cls-24,.cls-28,.cls-50{fill:none;}.cls-12{stroke:#333a45;stroke-width:6px;opacity:0.47;}.cls-13{fill:url(#linear-gradient);}.cls-14{fill:url(#Nueva_muestra_de_degradado_11);}.cls-15{fill:#fafbfc;}.cls-16{fill:#fff;}.cls-17{fill:#0071b0;}.cls-18{fill:url(#radial-gradient);}.cls-19{fill:url(#linear-gradient-2);}.cls-20{fill:url(#linear-gradient-3);}.cls-21{fill:url(#radial-gradient-2);}.cls-22{fill:#10141b;fill-opacity:0.05;}.cls-23{stroke:#85d8d1;}.cls-23,.cls-24,.cls-28{stroke-linecap:round;stroke-miterlimit:10;}.cls-23,.cls-24{stroke-opacity:0.4;stroke-width:20px;}.cls-24{stroke:#48c4ba;}.cls-25{fill-opacity:0.8;}.cls-26{fill:#d0d8dc;}.cls-27{fill-opacity:0.4;}.cls-28{stroke:#0071b0;stroke-opacity:0.3;stroke-width:3px;}.cls-29{fill:url(#linear-gradient-4);}.cls-30{fill:#0088a1;opacity:0.2;}.cls-31{fill:#f3f5f7;}.cls-32{fill:url(#linear-gradient-5);}.cls-33{fill:url(#linear-gradient-6);}.cls-34{fill:url(#Degradado_sin_nombre_5);}.cls-35{fill:url(#linear-gradient-7);}.cls-36{fill:#d3f5ff;}.cls-37{fill:url(#linear-gradient-8);}.cls-38{fill:url(#Degradado_sin_nombre_13);}.cls-39{fill:#0a264b;}.cls-40{fill:#06467b;}.cls-41{fill:url(#Nueva_muestra_de_degradado_19);}.cls-42{fill:#e8ceb7;}.cls-43{fill:#628baf;}.cls-44{fill:#225b8b;}.cls-45{fill:url(#Nueva_muestra_de_degradado_19-2);}.cls-46{fill:#3d6f9a;}.cls-47{fill:#b1bec7;}.cls-48{fill:#022e49;}.cls-49{fill:url(#Nueva_muestra_de_degradado_16);}.cls-50{stroke:#a2adbb;stroke-linejoin:round;stroke-opacity:0.98;stroke-width:1.03px;}.cls-51{fill-opacity:0.43;fill:url(#Degradado_sin_nombre_23);}</style><filter id="AI_DesenfoqueGaussiano_4" name="AI_DesenfoqueGaussiano_4"><feGaussianBlur stdDeviation="4"/></filter><linearGradient id="Degradado_sin_nombre_24" x1="21.86" y1="32.92" x2="240.46" y2="32.92" gradientUnits="userSpaceOnUse"><stop offset="0" stop-color="#7e9cbd" stop-opacity="0.5"/><stop offset="0.48" stop-color="#7e9cbd" stop-opacity="0.1"/><stop offset="1" stop-color="#7e9cbd" stop-opacity="0"/></linearGradient><linearGradient id="Degradado_sin_nombre_114" x1="428.67" y1="1848.46" x2="2046.85" y2="1848.46" gradientUnits="userSpaceOnUse"><stop offset="0.13" stop-color="#5d7586" stop-opacity="0.3"/><stop offset="0.85" stop-color="#90aac1" stop-opacity="0.1"/><stop offset="0.96" stop-color="#b5cede" stop-opacity="0.1"/><stop offset="1" stop-color="#d4ecf6" stop-opacity="0.1"/></linearGradient><linearGradient id="Nueva_muestra_de_degradado_47" x1="1620.4" y1="1205.17" x2="1477.73" y2="1177.17" gradientUnits="userSpaceOnUse"><stop offset="0" stop-color="#c2ebe8" stop-opacity="0.1"/><stop offset="0.05" stop-color="#8fe0d9" stop-opacity="0.1"/><stop offset="0.15" stop-color="#6ad8cf" stop-opacity="0.1"/><stop offset="0.87" stop-color="#43a39b" stop-opacity="0.3"/></linearGradient><linearGradient id="linear-gradient" x1="425.42" y1="2013.14" x2="1946.46" y2="2013.14" gradientUnits="userSpaceOnUse"><stop offset="0" stop-color="#e5f4fa"/><stop offset="0.54" stop-color="#e5f4fa"/><stop offset="0.58" stop-color="#d5eaf7"/><stop offset="0.63" stop-color="#c8e3f5"/><stop offset="0.85" stop-color="#cbe4f4"/><stop offset="1" stop-color="#cee7f5"/></linearGradient><linearGradient id="Nueva_muestra_de_degradado_11" x1="455.57" y1="1686.02" x2="2068.45" y2="1914.26" gradientUnits="userSpaceOnUse"><stop offset="0" stop-color="#fafbfc"/><stop offset="0.55" stop-color="#f5f8fa"/><stop offset="0.99" stop-color="#e6f4fa"/><stop offset="0.99" stop-color="#d4ecf6" stop-opacity="0.9"/></linearGradient><radialGradient id="radial-gradient" cx="777.28" cy="5269.24" r="293" gradientTransform="matrix(0, 1.68, -0.16, 0, 2057.77, 492.08)" gradientUnits="userSpaceOnUse"><stop offset="0" stop-color="#90aac1" stop-opacity="0.5"/><stop offset="1" stop-color="#90aac1" stop-opacity="0"/></radialGradient><linearGradient id="linear-gradient-2" x1="1153.54" y1="573.08" x2="1259.55" y2="789.08" gradientUnits="userSpaceOnUse"><stop offset="0" stop-color="#e5f4fa"/><stop offset="0.37" stop-color="#e5f4fa"/><stop offset="0.55" stop-color="#d5eaf7"/><stop offset="0.63" stop-color="#c8e3f5"/></linearGradient><linearGradient id="linear-gradient-3" x1="1201.36" y1="415.2" x2="1201.36" y2="1804.17" gradientUnits="userSpaceOnUse"><stop offset="0" stop-color="#cfecf3"/><stop offset="0.52" stop-color="#ddf1f4"/><stop offset="1" stop-color="#eef8f6"/></linearGradient><radialGradient id="radial-gradient-2" cx="1206.29" cy="497.96" r="1298.02" gradientTransform="translate(0 123.13) scale(1 0.75)" gradientUnits="userSpaceOnUse"><stop offset="0" stop-color="#f9fbf5"/><stop offset="0.06" stop-color="#f9fbf5" stop-opacity="0.91"/><stop offset="0.26" stop-color="#f9fbf5" stop-opacity="0.63"/><stop offset="0.45" stop-color="#f9fbf5" stop-opacity="0.41"/><stop offset="0.63" stop-color="#f9fbf5" stop-opacity="0.23"/><stop offset="0.78" stop-color="#f9fbf5" stop-opacity="0.1"/><stop offset="0.91" stop-color="#f9fbf5" stop-opacity="0.03"/><stop offset="1" stop-color="#f9fbf5" stop-opacity="0"/></radialGradient><linearGradient id="linear-gradient-4" x1="1501.17" y1="715.68" x2="1501.62" y2="962.16" gradientUnits="userSpaceOnUse"><stop offset="0" stop-color="#a2cfe5"/><stop offset="0.1" stop-color="#a3d0e6"/><stop offset="0.99" stop-color="#aadaee"/></linearGradient><linearGradient id="linear-gradient-5" x1="1328.83" y1="983.4" x2="1142.96" y2="1362.29" gradientUnits="userSpaceOnUse"><stop offset="0.01" stop-color="#90aac1"/><stop offset="0.11" stop-color="#90aac1" stop-opacity="0.96"/><stop offset="0.27" stop-color="#90aac1" stop-opacity="0.85"/><stop offset="0.46" stop-color="#90aac1" stop-opacity="0.68"/><stop offset="0.68" stop-color="#90aac1" stop-opacity="0.44"/><stop offset="0.91" stop-color="#90aac1" stop-opacity="0.13"/><stop offset="1" stop-color="#90aac1" stop-opacity="0"/></linearGradient><linearGradient id="linear-gradient-6" x1="1351.91" y1="475.36" x2="1011.44" y2="1081.82" gradientUnits="userSpaceOnUse"><stop offset="0" stop-color="#d3f5ff"/><stop offset="0.02" stop-color="#ccf3ff"/><stop offset="0.04" stop-color="#b7eeff"/><stop offset="0.07" stop-color="#95e6ff"/><stop offset="0.07" stop-color="#90e5ff"/><stop offset="0.4" stop-color="#8ee4fe"/><stop offset="0.56" stop-color="#86dffc"/><stop offset="0.68" stop-color="#79d8f8"/><stop offset="0.78" stop-color="#67cdf2"/><stop offset="0.87" stop-color="#4fbfeb"/><stop offset="0.95" stop-color="#33ade2"/><stop offset="0.95" stop-color="#32ade2"/><stop offset="1" stop-color="#1da1dc"/></linearGradient><linearGradient id="Degradado_sin_nombre_5" x1="1091.48" y1="1166.83" x2="1152.26" y2="1043.27" gradientUnits="userSpaceOnUse"><stop offset="0" stop-color="#1da1dc"/><stop offset="1" stop-color="#1da1dc"/></linearGradient><linearGradient id="linear-gradient-7" x1="1129.8" y1="1032.57" x2="1056.43" y2="1163.26" gradientUnits="userSpaceOnUse"><stop offset="0.01" stop-color="#90e5ff"/><stop offset="0.47" stop-color="#8ee4ff"/><stop offset="0.63" stop-color="#87e2fd"/><stop offset="0.75" stop-color="#7cddfb"/><stop offset="0.84" stop-color="#6bd6f7"/><stop offset="0.93" stop-color="#55cdf2"/><stop offset="1" stop-color="#3ac3ec"/><stop offset="1" stop-color="#39c2ec"/></linearGradient><linearGradient id="linear-gradient-8" x1="1182.62" y1="938.14" x2="1182.62" y2="415.71" gradientUnits="userSpaceOnUse"><stop offset="0" stop-color="#fff" stop-opacity="0.22"/><stop offset="0.25" stop-color="#fff" stop-opacity="0.19"/><stop offset="0.62" stop-color="#fff" stop-opacity="0.11"/><stop offset="1" stop-color="#fff" stop-opacity="0"/></linearGradient><linearGradient id="Degradado_sin_nombre_13" x1="1466.58" y1="978.94" x2="1466.53" y2="1000.39" gradientTransform="matrix(-1, 0, 0, 1, 2379.61, 0)" gradientUnits="userSpaceOnUse"><stop offset="0" stop-color="#90aac1" stop-opacity="0.4"/><stop offset="1" stop-color="#90aac1" stop-opacity="0"/></linearGradient><linearGradient id="Nueva_muestra_de_degradado_19" x1="1687.28" y1="1520.82" x2="1604.22" y2="1301.6" gradientTransform="matrix(-1, 0, 0, 1, 2379.61, 0)" gradientUnits="userSpaceOnUse"><stop offset="0" stop-color="#010d1a" stop-opacity="0"/><stop offset="1" stop-color="#010d1a"/></linearGradient><linearGradient id="Nueva_muestra_de_degradado_19-2" x1="1670.49" y1="1496.34" x2="1695" y2="1207.67" xlink:href="#Nueva_muestra_de_degradado_19"/><linearGradient id="Nueva_muestra_de_degradado_16" x1="1709.55" y1="1201.65" x2="1762.65" y2="790.43" gradientTransform="matrix(-1, 0, 0, 1, 2379.61, 0)" gradientUnits="userSpaceOnUse"><stop offset="0" stop-color="#61eebb" stop-opacity="0"/><stop offset="1" stop-color="#61eebb"/></linearGradient><radialGradient id="Degradado_sin_nombre_23" cx="1959.5" cy="1728.18" r="35.9" gradientTransform="matrix(-0.71, 0.41, 0.7, 0.41, 785.48, 210.4)" gradientUnits="userSpaceOnUse"><stop offset="0" stop-color="#7e9cbd" stop-opacity="0.3"/><stop offset="1" stop-color="#7e9cbd" stop-opacity="0"/></radialGradient><symbol id="shadowsvglight" data-name="shadowsvglight" viewBox="0 0 262 66"><g class="cls-1"><path class="cls-2" d="M240.46,32.92c.09,15.15-21,27.43-47.19,27.42H69.36A81.87,81.87,0,0,1,61,59.92c-.78-.08-1.55-.18-2.31-.28s-1.52-.21-2.27-.34-1.49-.25-2.23-.4-1.46-.29-2.17-.46c-1.35-.3-2.66-.65-4-1L46.78,57l-2-.67c-.65-.22-1.29-.46-1.92-.71-1.26-.49-2.48-1-3.65-1.58-.59-.28-1.16-.56-1.73-.86s-1.11-.6-1.65-.91-1.06-.63-1.57-1-1-.66-1.49-1A33,33,0,0,1,30,48.25c-.43-.36-.84-.73-1.24-1.11S28,46.38,27.65,46l-.53-.58a23.09,23.09,0,0,1-1.78-2.25l-.55-.81-.39-.63c-.25-.43-.48-.86-.7-1.29s-.41-.87-.59-1.32-.34-.89-.48-1.34c-.07-.22-.14-.45-.2-.67-.12-.46-.22-.92-.31-1.38a17.35,17.35,0,0,1-.26-2.8c-.08-15.15,21-27.43,47.2-27.43H194.18c1.63,0,3.23.1,4.81.21,1.19.09,2.36.2,3.52.34s2.29.3,3.42.48q2.64.43,5.16,1l1.37.34c1.4.37,2.76.77,4.09,1.21q1,.33,1.95.69a53,53,0,0,1,8,3.71,35.91,35.91,0,0,1,8.18,6.32c.37.39.72.79,1.06,1.19s.65.8,1,1.21a20.28,20.28,0,0,1,1.94,3.17,17.58,17.58,0,0,1,1.44,4,15.25,15.25,0,0,1,.38,2.78C240.45,32.45,240.46,32.68,240.46,32.92Z"/></g></symbol></defs><g id="ShadowBase"><path class="cls-3" d="M2082,1882.3c12.08,7,12.15,18.29.14,25.27l-644.63,389.8c-16.4,14.44-132.6,23.54-157.54,0L434.71,1805.42c-12.09-7-12.16-18.3-.15-25.27l758.54-389.81c12-7,31.54-7,43.63,0Z"/></g><g id="Plant"><path class="cls-4" d="M1765.24,716.64q-374,362.33-310.26,973Q1958.73,1189.69,1765.24,716.64Z"/><path class="cls-5" d="M1445.51,1697.37l16.94,3.33q170-443.85,277.4-848.21Q1596.84,1288,1445.51,1697.37Z"/><path class="cls-6" d="M1765.24,716.64q-374,362.33-310.26,973Q1958.73,1189.69,1765.24,716.64Z"/><path class="cls-7" d="M1429,1681.43h0q381.82,37.21,482.8-451.38Q1604.55,1325.14,1429,1681.43Z"/><path class="cls-5" d="M1844,1311.57q-170.1,230.54-427.27,333.46l-2.62,17.24q264.32-105.76,429.94-350.69Z"/></g><g id="Base"><g id="Base-2" data-name="Base"><g class="cls-8"><path class="cls-9" d="M1070.27,1409c7.9,0,15.81,1.75,21.85,5.24l845.24,492c12.08,7,12.15,18.29.14,25.27l-613.93,365.91c-6,3.49-13.89,5.24-21.79,5.24s-15.8-1.75-21.84-5.24L434.71,1805.42c-12.09-7-12.16-18.3-.15-25.27l613.93-365.91c6-3.49,13.89-5.24,21.78-5.24m0-17h0c-11.19,0-22,2.68-30.32,7.54l-.08,0-.08.05L425.92,1765.5c-11,6.45-17.34,16.38-17.32,27.26s6.43,20.93,17.61,27.38l845.18,491.93h0c8.39,4.85,19.17,7.52,30.34,7.52s22-2.68,30.33-7.54l.08-.05.08,0,613.87-365.88c11-6.44,17.34-16.37,17.32-27.25s-6.41-20.9-17.56-27.35l-845.23-491.95,0,0h0c-8.39-4.85-19.17-7.52-30.35-7.52Z"/></g><g class="cls-10"><path class="cls-11" d="M1070.27,1409c7.9,0,15.81,1.75,21.85,5.24l845.24,492c12.08,7,12.15,18.29.14,25.27l-613.93,365.91c-6,3.49-13.89,5.24-21.79,5.24s-15.8-1.75-21.84-5.24L434.71,1805.42c-12.09-7-12.16-18.3-.15-25.27l613.93-365.91c6-3.49,13.89-5.24,21.78-5.24m0-11h0c-10.15,0-19.85,2.39-27.31,6.73l0,0-.05,0L429,1770.67c-9.15,5.34-14.39,13.38-14.37,22.08s5.33,16.84,14.61,22.19l845.2,491.94c7.52,4.34,17.23,6.73,27.37,6.73s19.85-2.39,27.31-6.73l.06,0,0,0,613.89-365.88c9.15-5.34,14.39-13.39,14.37-22.08s-5.33-16.84-14.6-22.19l-845.2-491.94c-7.53-4.34-17.24-6.73-27.39-6.73Z"/></g><path class="cls-12" d="M1937.36,1906.19c12.08,7,12.15,18.29.14,25.27l-613.93,365.91c-12,7-31.54,7-43.63,0L434.71,1805.42c-12.09-7-12.16-18.3-.15-25.27l613.93-365.91c12-7,31.55-7,43.63,0Z"/><path class="cls-13" d="M425.6,1726.28l-.18,63.82c0,4.6,3,9.21,9.1,12.72l845.24,492c12.09,7,31.62,7,43.63,0l613.93-365.91c6-3.47,9-8,9-12.55l.18-63.82C1946.45,1857,425.58,1730.88,425.6,1726.28Z"/><path class="cls-14" d="M1301.78,2232.26c-7.56,0-14.62-1.67-19.87-4.71l-845.23-492c-4.54-2.62-7.15-6-7.15-9.28s2.48-6.56,7-9.19l614-365.93c5.17-3,12.21-4.68,19.76-4.68s14.63,1.67,19.89,4.71l845.22,492c4.54,2.62,7.15,6,7.15,9.28s-2.48,6.56-7,9.19l-614,365.93C1316.37,2230.59,1309.34,2232.26,1301.78,2232.26Z"/><path class="cls-15" d="M1070.27,1342.59v7.86c6.79,0,13.32,1.53,17.89,4.17l845.26,492c3.19,1.84,5.18,4.09,5.18,5.88s-1.93,4-5,5.78l0,0,0,0-613.89,365.89c-4.56,2.63-11,4.15-17.8,4.15s-13.3-1.53-17.88-4.17l-845.26-492c-3.19-1.84-5.18-4.09-5.18-5.88s1.93-4,5.05-5.78l0,0,0,0,613.89-365.89c4.55-2.63,11-4.15,17.79-4.15v-7.86m0,0c-7.89,0-15.78,1.74-21.78,5.23L434.56,1713.73c-12,7-11.94,18.29.15,25.27l845.23,492c6,3.49,14,5.23,21.84,5.23s15.78-1.74,21.79-5.23l613.93-365.91c12-7,11.94-18.29-.14-25.27l-845.24-492c-6-3.49-13.95-5.23-21.85-5.23Z"/><path class="cls-16" d="M1070.27,1342.59v3.93c7.57,0,14.63,1.67,19.87,4.7l845.25,492c4.53,2.62,7.14,6,7.14,9.28s-2.48,6.56-7,9.21l-613.9,365.89c-5.22,3-12.25,4.7-19.81,4.7s-14.62-1.67-19.86-4.7l-845.25-492c-4.53-2.62-7.14-6-7.14-9.29s2.48-6.55,7-9.2l613.9-365.89c5.21-3,12.25-4.7,19.8-4.7v-3.93m0,0c-7.89,0-15.78,1.74-21.78,5.23L434.56,1713.73c-12,7-11.94,18.29.15,25.27l845.23,492c6,3.49,14,5.23,21.84,5.23s15.78-1.74,21.79-5.23l613.93-365.91c12-7,11.94-18.29-.14-25.27l-845.24-492c-6-3.49-13.95-5.23-21.85-5.23Z"/></g></g><g id="RollBack"><path class="cls-17" d="M1526.82,574.73a2.75,2.75,0,0,0-1.14-2.5L961.84,244.56a2.74,2.74,0,0,1,1.14,2.5l.13,47.07L1527,621.8Z"/></g><g id="Smartphone"><g id="Dashbboard"><g id="Dashbboard-2" data-name="Dashbboard"><ellipse id="Shadow" class="cls-18" cx="1209.24" cy="1797.83" rx="47.18" ry="492.21" transform="translate(-952.35 1946.15) rotate(-60)"/><path class="cls-19" d="M1464.24,520.65,1004.64,255.3c-13.8-8-26.34-9-35.61-4.25h0l-.36.2c-.46.25-.9.51-1.35.78l-32,18.47,533,1666.14,30.78-17.88v0c10.38-4.85,16.9-16.72,16.9-34.09V609.82C1516,577.07,1492.81,537.14,1464.24,520.65Z"/><path class="cls-20" d="M1454.4,1938.28c-6.9,0-14.38-2.31-22.24-6.85l-459.6-265.35c-28-16.15-50.73-55.37-50.73-87.43V303.83c0-21.3,10.15-34.54,26.49-34.54,6.89,0,14.37,2.3,22.24,6.84l459.6,265.35c28,16.15,50.73,55.37,50.73,87.44V1903.73C1480.89,1925,1470.74,1938.28,1454.4,1938.28Z"/><path class="cls-15" d="M948.32,267.29v4h0c6.45,0,13.79,2.27,21.24,6.57l459.6,265.35c27.42,15.84,49.73,54.28,49.73,85.71V1903.73c0,20.08-9.39,32.55-24.49,32.55-6.45,0-13.79-2.28-21.24-6.58l-459.6-265.35c-27.42-15.83-49.73-54.28-49.73-85.7V303.83c0-10.27,2.43-18.73,7-24.45a21.6,21.6,0,0,1,17.46-8.09v-4m0,0c-16.9,0-28.49,13.37-28.49,36.54V1578.65c0,32.75,23.16,72.67,51.73,89.16l459.6,265.35c8.36,4.83,16.25,7.12,23.24,7.12,16.89,0,28.49-13.38,28.49-36.55V628.92c0-32.75-23.16-72.68-51.73-89.17L971.56,274.4c-8.36-4.82-16.25-7.11-23.24-7.11Z"/><path class="cls-16" d="M948.32,267.29v2h0c6.89,0,14.38,2.3,22.24,6.84l459.6,265.35c28,16.15,50.73,55.37,50.73,87.44V1903.73c0,21.31-10.15,34.55-26.49,34.55-6.89,0-14.38-2.31-22.24-6.85l-459.6-265.35c-28-16.15-50.73-55.37-50.73-87.43V303.83c0-21.3,10.15-34.54,26.49-34.54v-2m0,0c-16.9,0-28.49,13.37-28.49,36.54V1578.65c0,32.75,23.16,72.67,51.73,89.16l459.6,265.35c8.36,4.83,16.25,7.12,23.24,7.12,16.89,0,28.49-13.38,28.49-36.55V628.92c0-32.75-23.16-72.68-51.73-89.17L971.56,274.4c-8.36-4.82-16.25-7.11-23.24-7.11Z"/><path class="cls-21" d="M1421.58,1916.29,979.51,1664.22c-28.16-16.26-51-55.61-51-87.89V319.76c0-32.28,22.83-45.27,51-29l442.07,252.08c28.16,16.25,51,55.6,51,87.88V1887.28C1472.57,1919.56,1449.74,1932.55,1421.58,1916.29Z"/><path class="cls-16" d="M1413.5,1705.36,989.22,1460.41c-19.44-11.23-35.2-38.4-35.2-60.69V1100.51c0-22.29,15.76-31.26,35.2-20l424.28,245c19.44,11.23,35.2,38.4,35.2,60.69v299.21C1448.7,1707.62,1432.94,1716.59,1413.5,1705.36Z"/><path class="cls-22" d="M1012.3,1265.81v92.11c0,3.81-2.7,5.35-6,3.43a13.28,13.28,0,0,1-6-10.38v-92.11c0-3.81,2.7-5.35,6-3.43A13.26,13.26,0,0,1,1012.3,1265.81Zm59.62,73.58c-3.32-1.92-6-.39-6,3.42v46.06a13.28,13.28,0,0,0,6,10.38c3.33,1.92,6,.38,6-3.43v-46A13.25,13.25,0,0,0,1071.92,1339.39Zm65.65,21.27c-3.32-1.92-6-.39-6,3.42v62.69a13.28,13.28,0,0,0,6,10.38c3.33,1.92,6,.39,6-3.43V1371A13.24,13.24,0,0,0,1137.57,1360.66Zm65.65,64.73c-3.33-1.92-6-.39-6,3.42v35.86a13.25,13.25,0,0,0,6,10.38c3.32,1.92,6,.39,6-3.42v-35.86A13.26,13.26,0,0,0,1203.22,1425.39Zm65.65,50.62c-3.33-1.92-6-.39-6,3.43v23.13a13.24,13.24,0,0,0,6,10.38c3.32,1.92,6,.39,6-3.42v-23.14A13.28,13.28,0,0,0,1268.87,1476Zm131.29,40.48c-3.32-1.92-6-.39-6,3.43v58.46a13.28,13.28,0,0,0,6,10.38c3.33,1.92,6,.38,6-3.43v-58.46A13.25,13.25,0,0,0,1400.16,1516.49Zm-59.62,30.94v-14.26a13.28,13.28,0,0,0-6-10.38c-3.33-1.92-6-.39-6,3.42v14.27a11.3,11.3,0,0,0,1,4.38l0,0h0c.09.2.18.4.28.59l.08.16a13,13,0,0,0,4.05,4.83c.2.14.4.26.6.38l.59.31a4.33,4.33,0,0,0,3,.37,2.85,2.85,0,0,0,.63-.25,2.63,2.63,0,0,0,.54-.42,4.22,4.22,0,0,0,1.19-2.76C1340.53,1547.89,1340.54,1547.66,1340.54,1547.43Z"/><line class="cls-23" x1="995.65" y1="1357.18" x2="995.65" y2="1265.07"/><line class="cls-23" x1="1061.3" y1="1395.08" x2="1061.3" y2="1349.03"/><line class="cls-23" x1="1126.95" y1="1432.98" x2="1126.95" y2="1370.3"/><line class="cls-23" x1="1192.6" y1="1470.89" x2="1192.6" y2="1435.03"/><line class="cls-23" x1="1258.24" y1="1508.79" x2="1258.24" y2="1485.65"/><line class="cls-23" x1="1323.89" y1="1546.69" x2="1323.89" y2="1532.43"/><line class="cls-23" x1="1389.54" y1="1584.59" x2="1389.54" y2="1526.13"/><line class="cls-24" x1="995.65" y1="1357.18" x2="995.65" y2="1321.32"/><line class="cls-24" x1="1061.3" y1="1395.08" x2="1061.3" y2="1361.36"/><line class="cls-24" x1="1126.95" y1="1432.98" x2="1126.95" y2="1406.27"/><line class="cls-24" x1="1192.6" y1="1470.89" x2="1192.6" y2="1457.53"/><line class="cls-24" x1="1258.24" y1="1508.79" x2="1258.24" y2="1502.11"/><line class="cls-24" x1="1323.89" y1="1546.69" x2="1323.89" y2="1546.69"/><line class="cls-24" x1="1389.54" y1="1584.59" x2="1389.54" y2="1543.25"/><path class="cls-25" d="M1018.58,1437.85l-12.37-7.14c-4.55-2.62-8.24-9-8.24-14.21h0c0-5.22,3.69-7.32,8.24-4.69l12.37,7.14c4.55,2.63,8.24,9,8.24,14.21h0C1026.82,1438.38,1023.13,1440.48,1018.58,1437.85Z"/><path class="cls-25" d="M1087.33,1477.55l-45.08-26c-4.56-2.63-8.25-9-8.25-14.21h0c0-5.22,3.69-7.32,8.25-4.69l45.08,26c4.56,2.62,8.25,9,8.25,14.21h0C1095.58,1478.08,1091.89,1480.18,1087.33,1477.55Z"/><path class="cls-26" d="M1251.17,1330.73l-245-141.42c-4.55-2.63-8.24-9-8.24-14.22h0c0-5.22,3.69-7.32,8.24-4.69l245,141.42c4.55,2.63,8.24,9,8.24,14.22h0C1259.41,1331.26,1255.72,1333.36,1251.17,1330.73Z"/><path class="cls-27" d="M1133.88,1504.42h0c-4.56-2.63-8.25-9-8.25-14.21h0c0-5.22,3.69-7.32,8.25-4.69h0c4.55,2.63,8.24,9,8.24,14.21h0C1142.12,1505,1138.43,1507.05,1133.88,1504.42Z"/><path class="cls-27" d="M1188.13,1535.74l-30-17.31c-4.55-2.63-8.24-9-8.24-14.21h0c0-5.22,3.69-7.32,8.24-4.69l30,17.31c4.56,2.63,8.25,9,8.25,14.21h0C1196.38,1536.27,1192.69,1538.37,1188.13,1535.74Z"/><line class="cls-28" x1="993.46" y1="1498.39" x2="1409.96" y2="1739.5"/><path class="cls-29" d="M1501.4,798.33h0c-2.69,1.55-4.87-.09-4.87-3.67V728.4c0-3.58,2.18-7.74,4.87-9.3h0c2.68-1.55,4.86.1,4.86,3.68V789C1506.26,792.62,1504.08,796.78,1501.4,798.33Zm4.86,88.33V820.4c0-3.58-2.18-5.23-4.86-3.68h0c-2.69,1.55-4.87,5.72-4.87,9.3v66.26c0,3.58,2.18,5.22,4.87,3.67h0C1504.08,894.4,1506.26,890.24,1506.26,886.66Zm0,64.11V918c0-3.58-2.18-5.23-4.86-3.68h0c-2.69,1.55-4.87,5.72-4.87,9.3v32.75c0,3.59,2.18,5.23,4.87,3.68h0C1504.08,958.52,1506.26,954.36,1506.26,950.77Z"/><path class="cls-16" d="M1403.31,1880.21,996.05,1645.09c-23.62-13.64-42.77-50.23-42.77-81.73v-31.77c0-31.49,19.15-46,42.77-32.33l407.26,235.13c23.62,13.63,42.77,50.22,42.77,81.72v31.77C1446.08,1879.38,1426.93,1893.85,1403.31,1880.21Z"/><ellipse class="cls-30" cx="1197.34" cy="1691.14" rx="28.45" ry="49.28" transform="translate(-690.57 837.1) rotate(-30.36)"/><path class="cls-31" d="M1116.89,1665.2l-9.7-5.61c-7.17-4.13-13-15.34-13-24.9v-6.25c0-9.55,5.86-14,13-9.85l9.7,5.61c7.17,4.13,13,15.34,13,24.9v6.25C1129.93,1664.9,1124.06,1669.34,1116.89,1665.2Z"/><path class="cls-31" d="M1055.78,1629.91l-48.11-27.77c-7.16-4.14-13-15.34-13-24.9V1571c0-9.56,5.87-14,13-9.85l48.11,27.77c7.16,4.14,13,15.34,13,24.9v6.25C1068.81,1629.62,1062.94,1634.05,1055.78,1629.91Z"/><path class="cls-31" d="M1278.25,1758.36l9.71,5.6c7.17,4.14,13-.29,13-9.85v-6.25c0-9.56-5.86-20.76-13-24.9l-9.71-5.6c-7.16-4.14-13,.29-13,9.85v6.25C1265.22,1743,1271.09,1754.22,1278.25,1758.36Z"/><path class="cls-31" d="M1339.37,1793.65l48.11,27.77c7.16,4.14,13-.3,13-9.85v-6.25c0-9.56-5.87-20.77-13-24.9l-48.11-27.78c-7.17-4.14-13,.3-13,9.86v6.25C1326.34,1778.3,1332.2,1789.51,1339.37,1793.65Z"/></g></g></g><g id="Roll"><rect class="cls-32" x="919.83" y="990.86" width="561.7" height="507.53"/><path class="cls-33" d="M971.38,228.14c-3.16-1.83-7.54-1.58-12.36,1.2l-32.43,18.73c-9.59,5.53-17.36,19-17.33,30L911,877.22c.12,43.91-30.86,97.58-69.08,119.64-15,8.67-28.63,9.46-38.47,3.74l559.34,335.46c9.84,5.72,27.6,4.46,42.61-4.2,38.21-22.06,77.65-79.22,77.53-123.13l-3.87-599c0-11-.45-21.68,9.13-27.21l35.93-19.17c4.82-2.78,8-9.37,11.14-7.53Z"/><path class="cls-34" d="M1388.28,1283,824.45,955.35c3.3,1.93,7.88,1.66,12.93-1.25,13.45-7.77,24.36-26.67,24.32-42.14,0-10.13-3.62-17.27-9.4-20.63L1416.13,1219c5.79,3.36,9.38,10.5,9.41,20.64,0,15.46-10.87,34.36-24.33,42.13C1396.17,1284.68,1391.59,1284.94,1388.28,1283Z"/><path class="cls-17" d="M838.84,920.29,1402.67,1248c1.66,1,2.68,3,2.69,5.9L841.52,926.19C841.52,923.29,840.49,921.25,838.84,920.29Z"/><path class="cls-17" d="M1378.74,1299.44,814.9,971.77c-5.69-3.3-9.22-10.32-9.24-20.28,0-16.9,11.88-37.56,26.58-46,6.3-3.64,12-4,16.14-1.57l563.83,327.67c-4.12-2.4-9.84-2.07-16.13,1.56-14.7,8.49-26.64,29.15-26.59,46.06C1369.52,1289.12,1373.05,1296.14,1378.74,1299.44Z"/><path class="cls-35" d="M1357.7,1344.69,793.87,1017c-12.14-7-19.68-22-19.74-43.3-.1-35.11,24.68-78,55.23-95.66,12.67-7.32,24.18-8,32.49-3.15l563.83,327.66c-8.31-4.83-19.81-4.16-32.48,3.16-30.56,17.64-55.33,60.55-55.23,95.65C1338,1322.65,1345.57,1337.63,1357.7,1344.69Z"/><path class="cls-36" d="M1522.86,557c9.58-5.53,17.4-1.08,17.43,9.94l.14,47.07L1527,621.8l-.13-47.07c0-2.47-1.77-3.47-3.92-2.23l-32.43,18.72a8.64,8.64,0,0,0-3.9,6.74l1.7,599.14c.15,52.46-36.86,116.57-82.51,142.92-37.26,21.51-67.67,4.18-67.79-38.64-.1-35.1,24.67-78,55.23-95.65,25.18-14.54,45.74-2.83,45.82,26.11.07,24-16.87,53.35-37.76,65.41-17.46,10.08-31.71,2-31.77-18.09,0-16.91,11.89-37.57,26.59-46.06,12.51-7.22,22.72-1.4,22.76,13l-13.48,7.79c0-5.84-4.16-8.2-9.24-5.27-7.27,4.2-13.17,14.42-13.14,22.78,0,11.52,8.21,16.18,18.23,10.39,13.46-7.77,24.37-26.67,24.33-42.13-.06-20.4-14.55-28.66-32.3-18.41-23.12,13.34-41.87,45.82-41.79,72.38.09,34.28,24.44,48.15,54.27,30.93,38.21-22.06,69.2-75.73,69.07-119.65l-1.69-599.14c0-11,7.74-24.47,17.32-30Z"/><path id="_---ARROW---" data-name="---ARROW---" class="cls-37" d="M1221,863.43l-27.7-16V435.54c0-6.75-4.77-15-10.65-18.36s-10.65-.69-10.65,6.06v411.9l-27.7-16c-6.56-3.79-10.66,2-7.38,10.39l38.35,98.27c3.28,8.41,11.48,13.14,14.76,8.53l38.35-54C1231.63,877.73,1227.53,867.22,1221,863.43Z"/></g><g id="Woman"><g id="Woman-2" data-name="Woman"><polygon class="cls-38" points="920.08 979.96 920.08 997.15 905.99 983.84 905.99 964.35 920.08 979.96"/><use width="262" height="66" transform="translate(688.34 1784.56) scale(0.6 0.41)" xlink:href="#shadowsvglight"/><g id="WOMAN-3" data-name="WOMAN"><g id="Layer1_17_FILL" data-name="Layer1 17 FILL"><path class="cls-39" d="M597.9,1554.06l21.58-5.25,5.93,18.62q-18.54,29.79-35.8,47.82a3.34,3.34,0,0,1-4.4.26c-1.41-1-2.12-2-2.12-3q.76-14.64,6.69-36.82Q595.45,1554.66,597.9,1554.06Z"/></g><g id="Layer1_18_FILL" data-name="Layer1 18 FILL"><path class="cls-40" d="M612,1550.42q123.6-32.55,144.81-19.46-102.48-78.7-132.62-174.69l120.43,41q46.95,57,71.18,142.35-33.48,45.73-195.17,38.59-6.69-3.21-9.05-13.62Q609.49,1555.41,612,1550.42Z"/></g><g id="Layer1_18_FILL-2" data-name="Layer1 18 FILL"><path class="cls-41" d="M612,1550.42q123.6-32.55,144.81-19.46-102.48-78.7-132.62-174.69l120.43,41q46.95,57,71.18,142.35-33.48,45.73-195.17,38.59-6.69-3.21-9.05-13.62Q609.49,1555.41,612,1550.42Z"/></g><g id="Layer1_19_FILL" data-name="Layer1 19 FILL"><path class="cls-42" d="M615.59,1374.89c.18.94.38,1.88.59,2.8a9.07,9.07,0,0,0,.26.93q.69,3.29,1.43,6.6a38.69,38.69,0,0,1-5.24,19.3l-5.76,11.76a3.43,3.43,0,0,1-4.65,0l-5.76-6.43a8.31,8.31,0,0,1,0-5.17l7.11-16.41c-.56-.94-1.09-1.87-1.61-2.8a.74.74,0,0,1-.17-.25,1.35,1.35,0,0,1-.17-.34l-1.94-3.22a4.89,4.89,0,0,0,.76.26q5.32,1.26,10.58-2.54A23.52,23.52,0,0,0,615.59,1374.89Z"/><path class="cls-43" d="M656.21,1172v46.38q-35.49,27.93-67.28,67,14.37,36.87,26.66,89.45a23.52,23.52,0,0,1-4.57,4.49q-5.25,3.81-10.58,2.54a4.89,4.89,0,0,1-.76-.26q-40.47-68.75-50.19-112.47Q611.86,1180.3,656.21,1172Z"/></g><g id="Layer1_20_FILL" data-name="Layer1 20 FILL"><path class="cls-39" d="M666.2,1760l5-21.15,27.59,15.82a274.57,274.57,0,0,1,16.34,43.08,3.44,3.44,0,0,1-2,4c-1.53.79-2.74.9-3.64.34q-12.36-8-28.52-24.21Q665.53,1762.43,666.2,1760Z"/></g><g id="Layer1_21_FILL" data-name="Layer1 21 FILL"><path class="cls-44" d="M663.91,1368.72l101,20.9a1652.22,1652.22,0,0,1,0,165.71q-30,112.1-66.1,199.31a45.8,45.8,0,0,1-24.54,3.47q-12.63-1.59-5.5-8.71L700,1564.73Q668.29,1450.56,663.91,1368.72Z"/></g><g id="Layer1_21_FILL-2" data-name="Layer1 21 FILL"><path class="cls-45" d="M663.91,1368.72l101,20.9a1652.22,1652.22,0,0,1,0,165.71q-30,112.1-66.1,199.31a45.8,45.8,0,0,1-24.54,3.47q-12.63-1.59-5.5-8.71L700,1564.73Q668.29,1450.56,663.91,1368.72Z"/></g><g id="Layer1_22_FILL" data-name="Layer1 22 FILL"><path class="cls-46" d="M633.28,1197.08h22.93l-21.49,39.52-13.21,12.7Q623.13,1212.36,633.28,1197.08Z"/></g><g id="Layer1_23_FILL" data-name="Layer1 23 FILL"><path class="cls-43" d="M633.28,1197.08q.59-29.88,34-24.12l68.89,23.53q41.13,52.73,36.9,74.73-4.32,21.75-8.21,84v34.36q2.77,15.92.76,16.93t-18.95,3.3q-17,2.33-69.49-10.33t-58.4-33.43l28.7-52.56Q626.25,1242.45,633.28,1197.08Z"/></g><g id="Layer1_24_FILL" data-name="Layer1 24 FILL"><path class="cls-42" d="M916.42,994.45c.19-.3.37-.59.54-.88l-6.13,26.08q-.35,2-.66,3.93l-.37,1.86c-.1.5-.19,1-.25,1.54l-.08,0a5.54,5.54,0,0,1-.8.41,10.58,10.58,0,0,1-8.41-.62,25.54,25.54,0,0,1-6.94-5.23,48.25,48.25,0,0,1-4-4.6l2.35-5.9a.67.67,0,0,0,.13.15,1.67,1.67,0,0,1-.07-.3l2.55-6.37L900.23,978l5.49-13.75q2.6,2.92.21,9.29l-1.29,5.5q6-10.57,10.64-12.25,3.4,4.89,4.8,13.76C918.55,986.9,917.34,991.54,916.42,994.45Z"/><path class="cls-43" d="M891.74,1010.85a1.67,1.67,0,0,0,.07.3.67.67,0,0,1-.13-.15l.06-.15m1.58,10.65a25.54,25.54,0,0,0,6.94,5.23,10.58,10.58,0,0,0,8.41.62,5.54,5.54,0,0,0,.8-.41q-10.05,51.8-32.78,105.84c-52.55,53.76-90.1,76.18-102.7,101.57l-1.23,26.8q-34.92,1.15-49.49-56.92L851,1113l38.38-96.13A48.25,48.25,0,0,0,893.32,1021.5Z"/></g><g id="HEAD_0_Layer0_0_MEMBER_0_MEMBER_0_FILL" data-name="HEAD 0 Layer0 0 MEMBER 0 MEMBER 0 FILL"><path class="cls-42" d="M668.39,1112.1q26-22.1,47.86-7.5,6.4,5.06,8,20.93l5.81,5.51q3.85,7.07,1.86,27-3.09,3.72-14.94,6.84a163.14,163.14,0,0,1,2.37,40l-31,3.9,1.34-43Q655.09,1143.1,668.39,1112.1Z"/></g><g id="HEAD_0_Layer0_0_MEMBER_0_MEMBER_1_FILL" data-name="HEAD 0 Layer0 0 MEMBER 0 MEMBER 1 FILL"><path class="cls-47" d="M712.81,1161.79q10.4.49,17.75-2.41-3.94,2.94-13.54,5.47a1,1,0,0,0,.11.33A15.29,15.29,0,0,1,712.81,1161.79Z"/></g><g id="HEAD_0_Layer0_1_FILL" data-name="HEAD 0 Layer0 1 FILL"><path class="cls-48" d="M726.63,1114.9q-1.5,2.34-4.91-1.44,2.38,7-.68,11-1.51.45-7.19,9.82l1.52,2.29q30,43,21.41,68.46T701,1263.69q19.92,24.91,10,50.44-11.15,28.44-60.17,12.1t-35.21-35.72q10.83-10.76,21.67-10-23.64-78.73,30-94.88,16.74-5,2.2-31.73t.34-43.51q28.47-25.62,55.18-.93C727,1111.71,727.51,1113.52,726.63,1114.9Z"/></g><g id="HEAD_0_Layer0_1_FILL-2" data-name="HEAD 0 Layer0 1 FILL"><path class="cls-49" d="M726.63,1114.9q-1.5,2.34-4.91-1.44,2.38,7-.68,11-1.51.45-7.19,9.82l1.52,2.29q30,43,21.41,68.46T701,1263.69q19.92,24.91,10,50.44-11.15,28.44-60.17,12.1t-35.21-35.72q10.83-10.76,21.67-10-23.64-78.73,30-94.88,16.74-5,2.2-31.73t.34-43.51q28.47-25.62,55.18-.93C727,1111.71,727.51,1113.52,726.63,1114.9Z"/></g><path id="Layer1_26_1_STROKES" data-name="Layer1 26 1 STROKES" class="cls-50" d="M597.9,1554.06q-9.69,41-9.39,62"/><path id="Layer1_27_1_STROKES" data-name="Layer1 27 1 STROKES" class="cls-50" d="M715.12,1797.72q.54,5-48.92-37.75"/><path id="Layer1_28_1_STROKES" data-name="Layer1 28 1 STROKES" class="cls-50" d="M608.23,1593l-8.47-6"/><path id="Layer1_29_1_STROKES" data-name="Layer1 29 1 STROKES" class="cls-50" d="M612.29,1588.17l-8.47-6"/><path id="Layer1_30_1_STROKES" data-name="Layer1 30 1 STROKES" class="cls-50" d="M707,1773.69l-6.77,3.63"/><path id="Layer1_31_1_STROKES" data-name="Layer1 31 1 STROKES" class="cls-50" d="M705.72,1768.27l-6.77,3.64"/></g><ellipse class="cls-51" cx="602.85" cy="1716.1" rx="35.92" ry="20.74" transform="translate(-10.79 3.83) rotate(-0.36)"/></g></g></svg>