<svg xmlns="http://www.w3.org/2000/svg" xmlns:xlink="http://www.w3.org/1999/xlink" viewBox="0 0 2500 2500"><defs><style>.cls-1,.cls-13,.cls-23,.cls-24,.cls-28,.cls-39,.cls-45,.cls-61,.cls-74{fill:none;}.cls-2{filter:url(#AI_DesenfoqueGaussiano_4);}.cls-3{fill:url(#Degradado_sin_nombre_24);}.cls-4{fill:url(#Degradado_sin_nombre_39);}.cls-5{fill:#c2ebe8;}.cls-6{fill:#6ad8cf;}.cls-7{fill:url(#Nueva_muestra_de_degradado_47);}.cls-8{fill:#91e2db;}.cls-9{opacity:0.16;}.cls-10,.cls-25,.cls-27{fill:#85d8d1;}.cls-11{opacity:0.18;}.cls-12{fill:#333a45;}.cls-13{stroke:#333a45;stroke-width:6.99px;opacity:0.47;}.cls-14{fill:url(#linear-gradient);}.cls-15{fill:url(#Nueva_muestra_de_degradado_11);}.cls-16{fill:#fafbfc;}.cls-17,.cls-33{fill:#fff;}.cls-18{fill:url(#radial-gradient);}.cls-19{fill:url(#linear-gradient-2);}.cls-20{fill:url(#linear-gradient-3);}.cls-21{fill:url(#radial-gradient-2);}.cls-22,.cls-37,.cls-41{fill:#10141b;}.cls-22{fill-opacity:0.05;}.cls-23{stroke:#85d8d1;}.cls-23,.cls-24,.cls-28,.cls-39,.cls-45{stroke-linecap:round;stroke-miterlimit:10;}.cls-23,.cls-24{stroke-opacity:0.4;stroke-width:20px;}.cls-24{stroke:#48c4ba;}.cls-25,.cls-42{fill-opacity:0.8;}.cls-26{fill:#d0d8dc;}.cls-27,.cls-29{fill-opacity:0.4;}.cls-28{stroke:#0071b0;}.cls-28,.cls-39{stroke-opacity:0.3;}.cls-28,.cls-39,.cls-45{stroke-width:3px;}.cls-29,.cls-32,.cls-40,.cls-42,.cls-44{fill:#0088a1;}.cls-30,.cls-33,.cls-34{opacity:0.4;}.cls-31{fill:#4dd2d2;}.cls-32,.cls-49{opacity:0.2;}.cls-34{fill:#12abbb;}.cls-35{opacity:0.65;fill:url(#linear-gradient-4);}.cls-36{fill:#f6fbfd;}.cls-37{fill-opacity:0.2;}.cls-38{fill:url(#linear-gradient-5);}.cls-39{stroke:#feffff;}.cls-40{fill-opacity:0.5;}.cls-41{fill-opacity:0.15;}.cls-43{opacity:0.6;}.cls-45{stroke:#fcfdfe;}.cls-46{fill:url(#linear-gradient-6);}.cls-47{fill:#f3f5f7;}.cls-48{clip-path:url(#clip-path);}.cls-49{fill:#90aac1;}.cls-50{fill:url(#linear-gradient-7);}.cls-51{fill:#58d1ed;}.cls-52{fill:url(#linear-gradient-8);}.cls-53{opacity:0.84;}.cls-54{fill:#0071b0;}.cls-55{fill:url(#linear-gradient-9);}.cls-56{fill:url(#Degradado_sin_nombre_7);}.cls-57{fill:#005584;}.cls-58{fill:url(#Degradado_sin_nombre_4);}.cls-59{fill:url(#linear-gradient-10);}.cls-60{fill:url(#Degradado_sin_nombre_4-2);}.cls-61{stroke:#d3f5ff;}.cls-62{fill:url(#Degradado_sin_nombre_13);}.cls-63{fill:#0a264b;}.cls-64{fill:#06467b;}.cls-65{fill:url(#Nueva_muestra_de_degradado_19);}.cls-66{fill:#e8ceb7;}.cls-67{fill:#628baf;}.cls-68{fill:#225b8b;}.cls-69{fill:url(#Nueva_muestra_de_degradado_19-2);}.cls-70{fill:#3d6f9a;}.cls-71{fill:#b1bec7;}.cls-72{fill:#022e49;}.cls-73{fill:url(#Nueva_muestra_de_degradado_16);}.cls-74{stroke:#a2adbb;stroke-linejoin:round;stroke-opacity:0.98;stroke-width:1.13px;}.cls-75{fill-opacity:0.43;fill:url(#Degradado_sin_nombre_23);}</style><filter id="AI_DesenfoqueGaussiano_4" name="AI_DesenfoqueGaussiano_4"><feGaussianBlur stdDeviation="4"/></filter><linearGradient id="Degradado_sin_nombre_24" x1="21.86" y1="32.92" x2="240.46" y2="32.92" gradientUnits="userSpaceOnUse"><stop offset="0" stop-color="#7e9cbd" stop-opacity="0.5"/><stop offset="0.48" stop-color="#7e9cbd" stop-opacity="0.1"/><stop offset="1" stop-color="#7e9cbd" stop-opacity="0"/></linearGradient><linearGradient id="Degradado_sin_nombre_39" x1="623.54" y1="2154.66" x2="1889.13" y2="1580.71" gradientUnits="userSpaceOnUse"><stop offset="0" stop-color="#141226" stop-opacity="0.3"/><stop offset="0.76" stop-color="#141226" stop-opacity="0.1"/><stop offset="1" stop-color="#141226" stop-opacity="0.04"/></linearGradient><linearGradient id="Nueva_muestra_de_degradado_47" x1="1700.12" y1="1121.11" x2="1557.45" y2="1093.11" gradientUnits="userSpaceOnUse"><stop offset="0" stop-color="#c2ebe8" stop-opacity="0.1"/><stop offset="0.05" stop-color="#8fe0d9" stop-opacity="0.1"/><stop offset="0.15" stop-color="#6ad8cf" stop-opacity="0.1"/><stop offset="0.87" stop-color="#43a39b" stop-opacity="0.3"/></linearGradient><linearGradient id="linear-gradient" x1="319.7" y1="2019.07" x2="2092.48" y2="2019.07" gradientUnits="userSpaceOnUse"><stop offset="0" stop-color="#e5f4fa"/><stop offset="0.54" stop-color="#e5f4fa"/><stop offset="0.58" stop-color="#d5eaf7"/><stop offset="0.63" stop-color="#c8e3f5"/><stop offset="0.85" stop-color="#cbe4f4"/><stop offset="1" stop-color="#cee7f5"/></linearGradient><linearGradient id="Nueva_muestra_de_degradado_11" x1="354.84" y1="1637.81" x2="2234.65" y2="1903.82" gradientUnits="userSpaceOnUse"><stop offset="0" stop-color="#fafbfc"/><stop offset="0.55" stop-color="#f5f8fa"/><stop offset="0.99" stop-color="#e6f4fa"/><stop offset="0.99" stop-color="#d4ecf6" stop-opacity="0.9"/></linearGradient><radialGradient id="radial-gradient" cx="823.93" cy="4460.45" r="293" gradientTransform="matrix(0, 1.68, -0.16, 0, 2060.52, 340.1)" gradientUnits="userSpaceOnUse"><stop offset="0" stop-color="#90aac1" stop-opacity="0.5"/><stop offset="1" stop-color="#90aac1" stop-opacity="0"/></radialGradient><linearGradient id="linear-gradient-2" x1="1286.53" y1="499.47" x2="1392.54" y2="715.47" gradientUnits="userSpaceOnUse"><stop offset="0" stop-color="#e5f4fa"/><stop offset="0.37" stop-color="#e5f4fa"/><stop offset="0.55" stop-color="#d5eaf7"/><stop offset="0.63" stop-color="#c8e3f5"/></linearGradient><linearGradient id="linear-gradient-3" x1="1334.35" y1="341.58" x2="1334.35" y2="1730.56" gradientUnits="userSpaceOnUse"><stop offset="0" stop-color="#cfecf3"/><stop offset="0.52" stop-color="#ddf1f4"/><stop offset="1" stop-color="#eef8f6"/></linearGradient><radialGradient id="radial-gradient-2" cx="1339.28" cy="424.35" r="1298.02" gradientTransform="translate(0 104.93) scale(1 0.75)" gradientUnits="userSpaceOnUse"><stop offset="0" stop-color="#f9fbf5"/><stop offset="0.06" stop-color="#f9fbf5" stop-opacity="0.91"/><stop offset="0.26" stop-color="#f9fbf5" stop-opacity="0.63"/><stop offset="0.45" stop-color="#f9fbf5" stop-opacity="0.41"/><stop offset="0.63" stop-color="#f9fbf5" stop-opacity="0.23"/><stop offset="0.78" stop-color="#f9fbf5" stop-opacity="0.1"/><stop offset="0.91" stop-color="#f9fbf5" stop-opacity="0.03"/><stop offset="1" stop-color="#f9fbf5" stop-opacity="0"/></radialGradient><linearGradient id="linear-gradient-4" x1="-11364.45" y1="-20069.84" x2="-11303.83" y2="-20009.22" gradientTransform="matrix(0.5, 0.62, 0, 0.66, 6828.05, 20651.15)" gradientUnits="userSpaceOnUse"><stop offset="0" stop-color="#1da1dc"/><stop offset="1" stop-color="#00b287"/></linearGradient><linearGradient id="linear-gradient-5" x1="1200.12" y1="953.03" x2="1171.29" y2="1003.98" gradientUnits="userSpaceOnUse"><stop offset="0" stop-color="#d5f8f5"/><stop offset="0.06" stop-color="#eafcfa"/><stop offset="1" stop-color="#d5f8f5"/></linearGradient><linearGradient id="linear-gradient-6" x1="1634.16" y1="642.07" x2="1634.6" y2="888.55" gradientUnits="userSpaceOnUse"><stop offset="0" stop-color="#a2cfe5"/><stop offset="0.1" stop-color="#a3d0e6"/><stop offset="0.99" stop-color="#aadaee"/></linearGradient><clipPath id="clip-path"><rect class="cls-1" x="1052.82" y="393.62" width="305.79" height="812.43"/></clipPath><linearGradient id="linear-gradient-7" x1="901.63" y1="379.3" x2="1216.18" y2="929.77" gradientTransform="translate(4.65 -2.86) rotate(0.36)" gradientUnits="userSpaceOnUse"><stop offset="0.01" stop-color="#1da1dc"/><stop offset="0.23" stop-color="#1b9ed9"/><stop offset="0.4" stop-color="#1695d1"/><stop offset="0.54" stop-color="#0c85c3"/><stop offset="0.66" stop-color="#0071b0"/><stop offset="0.99" stop-color="#0071b0"/><stop offset="1" stop-color="#0071b0"/></linearGradient><linearGradient id="linear-gradient-8" x1="-57.25" y1="1154.91" x2="970.32" y2="716.97" gradientUnits="userSpaceOnUse"><stop offset="0" stop-color="#90e5ff"/><stop offset="1" stop-color="#d3f5ff"/></linearGradient><linearGradient id="linear-gradient-9" x1="788.56" y1="374.87" x2="1111.9" y2="1030.38" gradientUnits="userSpaceOnUse"><stop offset="0" stop-color="#90e5ff"/><stop offset="0.21" stop-color="#7addf8"/><stop offset="0.46" stop-color="#67d6f2"/><stop offset="0.72" stop-color="#5cd2ee"/><stop offset="1" stop-color="#58d1ed"/></linearGradient><linearGradient id="Degradado_sin_nombre_7" x1="753.69" y1="509.15" x2="1029.84" y2="992.41" gradientTransform="translate(4.65 -2.86) rotate(0.36)" gradientUnits="userSpaceOnUse"><stop offset="0" stop-color="#0071b0"/><stop offset="0.02" stop-color="#0071b0"/><stop offset="0.38" stop-color="#0071b0"/><stop offset="0.47" stop-color="#0579b8"/><stop offset="0.8" stop-color="#1696d2"/><stop offset="0.99" stop-color="#1da1dc"/></linearGradient><linearGradient id="Degradado_sin_nombre_4" x1="932.08" y1="428.64" x2="987.85" y2="428.64" gradientTransform="translate(4.65 -2.86) rotate(0.36)" gradientUnits="userSpaceOnUse"><stop offset="0.01" stop-color="#1da1dc"/><stop offset="0.2" stop-color="#1696d2"/><stop offset="0.53" stop-color="#0579b8"/><stop offset="0.62" stop-color="#0071b0"/><stop offset="0.98" stop-color="#0071b0"/><stop offset="1" stop-color="#0071b0"/></linearGradient><linearGradient id="linear-gradient-10" x1="920.69" y1="405.9" x2="997.64" y2="405.9" xlink:href="#linear-gradient-9"/><linearGradient id="Degradado_sin_nombre_4-2" x1="1034.29" y1="347.78" x2="835.02" y2="427.57" gradientTransform="matrix(0.01, 1, -1, 0.01, 1333.41, -580.89)" xlink:href="#Degradado_sin_nombre_4"/><linearGradient id="Degradado_sin_nombre_13" x1="1338.04" y1="894.57" x2="1337.99" y2="918.2" gradientTransform="matrix(-1, 0, 0, 1, 2379.61, 0)" gradientUnits="userSpaceOnUse"><stop offset="0" stop-color="#90aac1" stop-opacity="0.4"/><stop offset="1" stop-color="#90aac1" stop-opacity="0"/></linearGradient><linearGradient id="Nueva_muestra_de_degradado_19" x1="1581.1" y1="1491.35" x2="1489.63" y2="1249.92" gradientTransform="matrix(-1, 0, 0, 1, 2379.61, 0)" gradientUnits="userSpaceOnUse"><stop offset="0" stop-color="#010d1a" stop-opacity="0"/><stop offset="1" stop-color="#010d1a"/></linearGradient><linearGradient id="Nueva_muestra_de_degradado_19-2" x1="1562.6" y1="1464.38" x2="1589.59" y2="1146.47" xlink:href="#Nueva_muestra_de_degradado_19"/><linearGradient id="Nueva_muestra_de_degradado_16" x1="1605.62" y1="1139.84" x2="1664.11" y2="686.97" gradientTransform="matrix(-1, 0, 0, 1, 2379.61, 0)" gradientUnits="userSpaceOnUse"><stop offset="0" stop-color="#61eebb" stop-opacity="0"/><stop offset="1" stop-color="#61eebb"/></linearGradient><radialGradient id="Degradado_sin_nombre_23" cx="1879.29" cy="1785.14" r="39.53" gradientTransform="matrix(-0.71, 0.41, 0.7, 0.41, 785.42, 209.79)" gradientUnits="userSpaceOnUse"><stop offset="0" stop-color="#7e9cbd" stop-opacity="0.3"/><stop offset="1" stop-color="#7e9cbd" stop-opacity="0"/></radialGradient><symbol id="shadowsvglight" data-name="shadowsvglight" viewBox="0 0 262 66"><g class="cls-2"><path class="cls-3" d="M240.46,32.92c.09,15.15-21,27.43-47.19,27.42H69.36A81.87,81.87,0,0,1,61,59.92c-.78-.08-1.55-.18-2.31-.28s-1.52-.21-2.27-.34-1.49-.25-2.23-.4-1.46-.29-2.17-.46c-1.35-.3-2.66-.65-4-1L46.78,57l-2-.67c-.65-.22-1.29-.46-1.92-.71-1.26-.49-2.48-1-3.65-1.58-.59-.28-1.16-.56-1.73-.86s-1.11-.6-1.65-.91-1.06-.63-1.57-1-1-.66-1.49-1A33,33,0,0,1,30,48.25c-.43-.36-.84-.73-1.24-1.11S28,46.38,27.65,46l-.53-.58a23.09,23.09,0,0,1-1.78-2.25l-.55-.81-.39-.63c-.25-.43-.48-.86-.7-1.29s-.41-.87-.59-1.32-.34-.89-.48-1.34c-.07-.22-.14-.45-.2-.67-.12-.46-.22-.92-.31-1.38a17.35,17.35,0,0,1-.26-2.8c-.08-15.15,21-27.43,47.2-27.43H194.18c1.63,0,3.23.1,4.81.21,1.19.09,2.36.2,3.52.34s2.29.3,3.42.48q2.64.43,5.16,1l1.37.34c1.4.37,2.76.77,4.09,1.21q1,.33,1.95.69a53,53,0,0,1,8,3.71,35.91,35.91,0,0,1,8.18,6.32c.37.39.72.79,1.06,1.19s.65.8,1,1.21a20.28,20.28,0,0,1,1.94,3.17,17.58,17.58,0,0,1,1.44,4,15.25,15.25,0,0,1,.38,2.78C240.45,32.45,240.46,32.68,240.46,32.92Z"/></g></symbol></defs><g id="ShadowBase"><path class="cls-4" d="M2250.4,1866.57c14.09,8.13,14.16,21.32.17,29.45l-751.31,454.32c-19.12,16.83-154.54,27.44-183.61,0L330.53,1777c-14.09-8.14-14.17-21.33-.18-29.46l884.08-454.32c14-8.13,36.77-8.13,50.85,0Z"/></g><g id="Plant"><path class="cls-5" d="M1898.23,643q-374,362.31-310.26,973Q2091.72,1116.08,1898.23,643Z"/><path class="cls-6" d="M1578.49,1623.76l17,3.33q170-443.83,277.4-848.21Q1729.82,1214.39,1578.49,1623.76Z"/><path class="cls-7" d="M1898.23,643q-374,362.31-310.26,973Q2091.72,1116.08,1898.23,643Z"/><path class="cls-8" d="M1562,1607.82h0q381.84,37.2,482.81-451.39Q1737.54,1251.52,1562,1607.82Z"/><path class="cls-6" d="M1977,1238q-170.1,230.54-427.27,333.47l-2.62,17.23Q1811.4,1482.91,1977,1238Z"/></g><g id="Base"><g id="Base-2" data-name="Base"><g class="cls-9"><path class="cls-10" d="M1071.28,1315c9.2,0,18.42,2,25.46,6.1l985.12,573.37c14.09,8.13,14.16,21.32.17,29.45l-715.54,426.47c-7,4.06-16.19,6.1-25.39,6.1s-18.41-2-25.45-6.1L330.53,1777c-14.09-8.14-14.17-21.33-.18-29.46L1045.89,1321c7-4.06,16.19-6.09,25.39-6.09m0-19.82v0h0c-13,0-25.6,3.12-35.34,8.78l-.1.06-.09,0L320.29,1730.44c-12.85,7.52-20.21,19.09-20.19,31.77s7.49,24.39,20.5,31.91l985.08,573.34,0,0,0,0c9.78,5.64,22.34,8.75,35.36,8.75s25.6-3.12,35.35-8.78l.09-.06.09,0,715.46-426.42c12.86-7.51,20.22-19.08,20.2-31.77s-7.49-24.38-20.5-31.9l-985.08-573.35h0l0,0c-9.78-5.65-22.34-8.76-35.37-8.76Z"/></g><g class="cls-11"><path class="cls-12" d="M1071.28,1315c9.2,0,18.42,2,25.46,6.1l985.12,573.37c14.09,8.13,14.16,21.32.17,29.45l-715.54,426.47c-7,4.06-16.19,6.1-25.39,6.1s-18.41-2-25.45-6.1L330.53,1777c-14.09-8.14-14.17-21.33-.18-29.46L1045.89,1321c7-4.06,16.19-6.09,25.39-6.09m0-12.83h0c-11.83,0-23.14,2.79-31.83,7.84l-.06,0-.06,0L323.85,1736.46c-10.67,6.22-16.78,15.6-16.76,25.74s6.22,19.63,17,25.87l985.08,573.35c8.77,5.06,20.08,7.84,31.9,7.84s23.14-2.78,31.83-7.84l.06,0,.06,0,715.47-426.42c10.68-6.23,16.79-15.61,16.78-25.75s-6.22-19.63-17-25.86L1103.19,1310c-8.77-5.07-20.09-7.85-31.91-7.85Z"/></g><path class="cls-13" d="M2081.86,1894.42c14.09,8.13,14.16,21.32.17,29.45l-715.54,426.47c-14,8.13-36.76,8.13-50.84,0L330.53,1777c-14.09-8.14-14.17-21.33-.18-29.46L1045.89,1321c14-8.13,36.77-8.13,50.85,0Z"/><path class="cls-14" d="M319.91,1684.73l-.21,74.38c0,5.36,3.52,10.74,10.61,14.83l985.12,573.37c14.09,8.14,36.85,8.14,50.85,0l715.54-426.46c6.95-4,10.43-9.33,10.45-14.63l.21-74.38C2092.46,1837.14,319.89,1690.09,319.91,1684.73Z"/><path class="cls-15" d="M1341.1,2274.45c-8.81,0-17-1.95-23.16-5.49L332.83,1695.6c-5.3-3.06-8.33-7-8.34-10.83s2.9-7.64,8.17-10.7l715.58-426.5c6-3.5,14.23-5.45,23-5.45s17,2,23.17,5.49L2079.56,1821c5.29,3.06,8.33,7,8.33,10.83s-2.89,7.64-8.16,10.7L1364.14,2269C1358.11,2272.5,1349.91,2274.45,1341.1,2274.45Z"/><path class="cls-16" d="M1071.28,1246.71h0c7.9,0,15.51,1.77,20.85,4.85L2077.28,1825c3.72,2.15,6,4.77,6,6.85s-2.25,4.63-5.89,6.74l0,0,0,0L1361.85,2265c-5.31,3.08-12.87,4.84-20.75,4.84s-15.51-1.77-20.84-4.85L335.11,1691.62c-3.72-2.15-6-4.77-6-6.86s2.25-4.62,5.88-6.73l0,0,.05,0,715.48-426.43c5.31-3.08,12.87-4.84,20.75-4.84m0-9.17c-9.2,0-18.39,2-25.39,6.1L330.35,1670.1c-14,8.14-13.91,21.33.18,29.46l985.12,573.37c7,4.07,16.25,6.1,25.45,6.1s18.39-2,25.39-6.1L2082,1846.46c14-8.13,13.92-21.31-.17-29.45l-985.12-573.37c-7-4.07-16.26-6.1-25.46-6.1Z"/><path class="cls-17" d="M1071.28,1237.54v4.58c8.81,0,17,2,23.16,5.48L2079.57,1821c5.28,3,8.32,7,8.32,10.82s-2.89,7.64-8.16,10.7h0l0,0L1364.17,2269c-6.08,3.53-14.27,5.47-23.07,5.47s-17-1.95-23.15-5.48L332.82,1695.59c-5.29-3-8.32-7-8.33-10.82s2.9-7.64,8.17-10.7h0l0,0,715.51-426.45c6.08-3.53,14.27-5.47,23.07-5.47v-4.58m0,0c-9.2,0-18.39,2-25.39,6.1L330.35,1670.1c-14,8.14-13.91,21.33.18,29.46l985.12,573.37c7,4.07,16.25,6.1,25.45,6.1s18.39-2,25.39-6.1L2082,1846.46c14-8.13,13.92-21.31-.17-29.45l-985.12-573.37c-7-4.07-16.26-6.1-25.46-6.1Z"/></g></g><g id="Smartphone"><g id="Dashbboard"><ellipse id="Shadow" class="cls-18" cx="1342.23" cy="1724.22" rx="47.18" ry="492.21" transform="translate(-822.1 2024.51) rotate(-60)"/><path class="cls-19" d="M1597.23,447l-459.6-265.35c-13.81-8-26.34-9-35.62-4.25v0l-.36.21q-.69.36-1.35.78l-32,18.46,533,1666.14,30.79-17.87v0c10.38-4.85,16.9-16.71,16.9-34.08V536.2C1649,503.45,1625.8,463.53,1597.23,447Z"/><path class="cls-20" d="M1587.38,1864.66c-6.89,0-14.37-2.3-22.23-6.84l-459.6-265.35c-28-16.15-50.73-55.37-50.73-87.43V230.22c0-21.3,10.15-34.54,26.49-34.54,6.89,0,14.37,2.3,22.24,6.84l459.6,265.35c28,16.15,50.73,55.37,50.73,87.43V1830.12C1613.88,1851.43,1603.73,1864.66,1587.38,1864.66Z"/><path class="cls-16" d="M1081.31,193.68v4h0c6.44,0,13.79,2.27,21.24,6.57l459.6,265.35c27.42,15.83,49.73,54.28,49.73,85.7V1830.12c0,20.07-9.39,32.54-24.5,32.54-6.44,0-13.78-2.27-21.23-6.57l-459.6-265.35c-27.42-15.83-49.73-54.28-49.73-85.7V230.22c0-10.27,2.43-18.73,7-24.45a21.58,21.58,0,0,1,17.46-8.09v-4m0,0c-16.9,0-28.49,13.37-28.49,36.54V1505c0,32.75,23.16,72.67,51.73,89.16l459.6,265.35c8.35,4.83,16.25,7.11,23.23,7.11,16.9,0,28.5-13.37,28.5-36.54V555.3c0-32.75-23.16-72.67-51.73-89.16l-459.6-265.35c-8.36-4.83-16.25-7.11-23.24-7.11Z"/><path class="cls-17" d="M1081.31,193.68v2h0c6.89,0,14.37,2.3,22.24,6.84l459.6,265.35c28,16.15,50.73,55.37,50.73,87.43V1830.12c0,21.31-10.15,34.54-26.5,34.54-6.89,0-14.37-2.3-22.23-6.84l-459.6-265.35c-28-16.15-50.73-55.37-50.73-87.43V230.22c0-21.3,10.15-34.54,26.49-34.54v-2m0,0c-16.9,0-28.49,13.37-28.49,36.54V1505c0,32.75,23.16,72.67,51.73,89.16l459.6,265.35c8.35,4.83,16.25,7.11,23.23,7.11,16.9,0,28.5-13.37,28.5-36.54V555.3c0-32.75-23.16-72.67-51.73-89.16l-459.6-265.35c-8.36-4.83-16.25-7.11-23.24-7.11Z"/><path class="cls-21" d="M1554.56,1842.68,1112.5,1590.61c-28.16-16.26-51-55.61-51-87.89V246.15c0-32.28,22.83-45.27,51-29l442.06,252.07c28.17,16.26,51,55.61,51,87.89V1813.67C1605.55,1846,1582.73,1858.94,1554.56,1842.68Z"/><path class="cls-17" d="M1546.48,1631.75l-424.27-245c-19.44-11.22-35.21-38.39-35.21-60.68V1026.9c0-22.29,15.77-31.26,35.21-20l424.27,244.95c19.45,11.23,35.21,38.4,35.21,60.69v299.2C1581.69,1634,1565.93,1643,1546.48,1631.75Z"/><path class="cls-22" d="M1145.28,1192.2v92.11c0,3.81-2.69,5.34-6,3.42a13.26,13.26,0,0,1-6-10.37v-92.11c0-3.82,2.7-5.35,6-3.43A13.25,13.25,0,0,1,1145.28,1192.2Zm59.63,73.58c-3.32-1.92-6-.39-6,3.42v46.06a13.28,13.28,0,0,0,6,10.38c3.33,1.92,6,.38,6-3.43v-46A13.24,13.24,0,0,0,1204.91,1265.78Zm65.65,21.26c-3.33-1.92-6-.38-6,3.43v62.69a13.25,13.25,0,0,0,6,10.38c3.32,1.92,6,.38,6-3.43v-62.69A13.28,13.28,0,0,0,1270.56,1287Zm65.65,64.74c-3.33-1.92-6-.39-6,3.42v35.86a13.25,13.25,0,0,0,6,10.38c3.32,1.92,6,.39,6-3.43v-35.86A13.26,13.26,0,0,0,1336.21,1351.78Zm65.65,50.62c-3.33-1.92-6-.39-6,3.42V1429a13.25,13.25,0,0,0,6,10.38c3.32,1.92,6,.39,6-3.42v-23.14A13.28,13.28,0,0,0,1401.86,1402.4Zm131.29,40.48c-3.32-1.92-6-.39-6,3.42v58.47a13.28,13.28,0,0,0,6,10.38c3.33,1.92,6,.38,6-3.43v-58.46A13.24,13.24,0,0,0,1533.15,1442.88Zm-59.62,30.94s0,0,0-.06v-14.2a13.24,13.24,0,0,0-6-10.38c-3.32-1.92-6-.39-6,3.42v14.27a11.3,11.3,0,0,0,1,4.38l0,0h0c.09.2.18.4.28.59s0,.11.07.16a13.22,13.22,0,0,0,4.06,4.83c.2.14.4.26.6.38a6.54,6.54,0,0,0,.59.3,4.28,4.28,0,0,0,3,.38,2.6,2.6,0,0,0,.62-.25,2.77,2.77,0,0,0,.55-.42,4.24,4.24,0,0,0,1.18-2.76A5.07,5.07,0,0,0,1473.53,1473.82Z"/><line class="cls-23" x1="1128.64" y1="1283.57" x2="1128.64" y2="1191.46"/><line class="cls-23" x1="1194.29" y1="1321.47" x2="1194.29" y2="1275.42"/><line class="cls-23" x1="1259.94" y1="1359.37" x2="1259.94" y2="1296.68"/><line class="cls-23" x1="1325.58" y1="1397.28" x2="1325.58" y2="1361.42"/><line class="cls-23" x1="1391.23" y1="1435.18" x2="1391.23" y2="1412.04"/><line class="cls-23" x1="1456.88" y1="1473.08" x2="1456.88" y2="1458.82"/><line class="cls-23" x1="1522.53" y1="1510.98" x2="1522.53" y2="1452.52"/><line class="cls-24" x1="1128.64" y1="1283.57" x2="1128.64" y2="1247.71"/><line class="cls-24" x1="1194.29" y1="1321.47" x2="1194.29" y2="1287.75"/><line class="cls-24" x1="1259.94" y1="1359.37" x2="1259.94" y2="1332.66"/><line class="cls-24" x1="1325.58" y1="1397.28" x2="1325.58" y2="1383.92"/><line class="cls-24" x1="1391.23" y1="1435.18" x2="1391.23" y2="1428.5"/><line class="cls-24" x1="1456.88" y1="1473.08" x2="1456.88" y2="1473.08"/><line class="cls-24" x1="1522.53" y1="1510.98" x2="1522.53" y2="1469.63"/><path class="cls-25" d="M1151.57,1364.24l-12.37-7.14c-4.55-2.63-8.24-9-8.24-14.21h0c0-5.22,3.69-7.32,8.24-4.69l12.37,7.14c4.55,2.63,8.24,9,8.24,14.21h0C1159.81,1364.77,1156.12,1366.87,1151.57,1364.24Z"/><path class="cls-25" d="M1220.32,1403.94l-45.08-26c-4.56-2.63-8.25-9-8.25-14.21h0c0-5.22,3.69-7.33,8.25-4.7l45.08,26c4.55,2.63,8.25,9,8.25,14.22h0C1228.57,1404.47,1224.87,1406.57,1220.32,1403.94Z"/><path class="cls-26" d="M1384.15,1257.12l-245-141.43c-4.55-2.63-8.24-9-8.24-14.21h0c0-5.22,3.69-7.32,8.24-4.69l245,141.42c4.56,2.63,8.25,9,8.25,14.21h0C1392.4,1257.64,1388.71,1259.74,1384.15,1257.12Z"/><path class="cls-27" d="M1266.86,1430.81h0c-4.55-2.63-8.24-9-8.24-14.21h0c0-5.22,3.69-7.32,8.24-4.69h0c4.56,2.62,8.25,9,8.25,14.21h0C1275.11,1431.34,1271.42,1433.44,1266.86,1430.81Z"/><path class="cls-27" d="M1321.12,1462.13l-30-17.31c-4.55-2.63-8.24-9-8.24-14.21h0c0-5.22,3.69-7.32,8.24-4.69l30,17.31c4.55,2.63,8.25,9,8.25,14.21h0C1329.37,1462.66,1325.67,1464.76,1321.12,1462.13Z"/><line class="cls-28" x1="1126.44" y1="1424.78" x2="1542.95" y2="1665.89"/><ellipse class="cls-22" cx="1538.74" cy="609.83" rx="34.94" ry="60.53" transform="matrix(0.86, -0.51, 0.51, 0.86, -97.21, 861.37)"/><ellipse class="cls-29" cx="1510.4" cy="626.42" rx="34.94" ry="60.53" transform="translate(-109.49 849.32) rotate(-30.36)"/><g class="cls-30"><path class="cls-31" d="M1419.11,525.54v5a16.43,16.43,0,0,1,7.89,2.51c11.19,6.46,20.64,22.74,20.64,35.55,0,3.41-.76,11.35-7.75,11.35a16.4,16.4,0,0,1-7.89-2.51c-11.19-6.46-20.64-22.74-20.64-35.56,0-3.41.76-11.34,7.75-11.34v-5m0,0c-7.56,0-12.75,6-12.75,16.34,0,14.65,10.36,32.51,23.14,39.89a21.1,21.1,0,0,0,10.39,3.18c7.56,0,12.75-6,12.75-16.35,0-14.65-10.36-32.5-23.14-39.88a21.1,21.1,0,0,0-10.39-3.18Z"/></g><ellipse class="cls-32" cx="1449.45" cy="543.52" rx="12.33" ry="21.36" transform="translate(-75.94 807.14) rotate(-30.36)"/><path class="cls-26" d="M1295.55,480.68l-160.7-92.78a8.29,8.29,0,0,1-3.76-6.49h0c0-2.39,1.68-3.35,3.76-2.14L1295.55,472a8.29,8.29,0,0,1,3.76,6.49h0C1299.31,480.92,1297.63,481.88,1295.55,480.68Z"/><path class="cls-32" d="M1330.93,637.36l-81.14-46.84c-10.35-6-18.74-1.21-18.74,10.66h0c0,11.86,8.39,26.32,18.74,32.3l81.14,46.84c10.35,6,18.74,1.21,18.74-10.66h0C1349.67,657.8,1341.28,643.34,1330.93,637.36Z"/><path class="cls-33" d="M1195,581.31l-61.53-35.52a5.34,5.34,0,0,1-2.41-4.17h0c0-1.53,1.08-2.15,2.41-1.38L1195,575.77a5.3,5.3,0,0,1,2.42,4.16h0C1197.45,581.47,1196.37,582.08,1195,581.31Z"/><path class="cls-26" d="M1264.7,378l-55.78-32.21a5.32,5.32,0,0,1-2.42-4.17h0c0-1.53,1.08-2.14,2.42-1.37l55.78,32.21a5.3,5.3,0,0,1,2.42,4.16h0C1267.12,378.12,1266,378.74,1264.7,378Z"/><path class="cls-33" d="M1362.24,434.28l-55.79-32.21a5.32,5.32,0,0,1-2.41-4.16h0c0-1.53,1.08-2.15,2.41-1.38l55.79,32.21a5.3,5.3,0,0,1,2.42,4.17h0C1364.66,434.44,1363.58,435.05,1362.24,434.28Z"/><path class="cls-34" d="M1362.24,448.87l-55.79-32.21a5.34,5.34,0,0,1-2.41-4.17v-3.71c0-1.53,1.08-2.15,2.41-1.38l55.79,32.21a5.32,5.32,0,0,1,2.42,4.17v3.71C1364.66,449,1363.58,449.64,1362.24,448.87Z"/><path class="cls-33" d="M1534.62,533.81l-55.78-32.21a5.32,5.32,0,0,1-2.42-4.17h0c0-1.53,1.08-2.14,2.42-1.37l55.78,32.2a5.32,5.32,0,0,1,2.42,4.17h0C1537,534,1536,534.58,1534.62,533.81Z"/><path class="cls-35" d="M1090.23,271.61l18.1-10.29c2.71-1.54,7.1,1,9.81,5.66l18.1,31.19c2.7,4.67,2.7,9.71,0,11.25l-18.1,10.3c-2.71,1.54-7.1-1-9.81-5.67l-18.1-31.19C1087.52,278.19,1087.52,273.16,1090.23,271.61Z"/><path class="cls-22" d="M1546.48,1218.26l-424.27-245c-19.44-11.23-35.21-38.4-35.21-60.69V613.41c0-22.29,15.77-31.26,35.21-20l424.27,245c19.45,11.23,35.21,38.4,35.21,60.69v299.21C1581.69,1220.52,1565.93,1229.49,1546.48,1218.26Z"/><path class="cls-36" d="M1527.74,1222,1103.47,977.09c-19.44-11.23-35.21-38.4-35.21-60.69V617.19c0-22.29,15.77-31.26,35.21-20l424.27,245c19.45,11.23,35.21,38.4,35.21,60.69V1202C1563,1224.3,1547.19,1233.27,1527.74,1222Z"/><path class="cls-37" d="M1255.9,1041.46l-112.28-64.82c-17.39-10-31.48-34.34-31.48-54.27h0c0-19.94,14.09-28,31.48-17.92l112.28,64.82c17.39,10,31.49,34.34,31.49,54.28h0C1287.39,1043.48,1273.29,1051.5,1255.9,1041.46Z"/><path class="cls-38" d="M1242,1046.71l-112.28-64.82c-17.39-10-31.48-34.34-31.48-54.28h0c0-19.93,14.09-28,31.48-17.92L1242,974.52c17.39,10,31.49,34.34,31.49,54.27h0C1273.51,1048.73,1259.41,1056.75,1242,1046.71Z"/><line class="cls-39" x1="1118.4" y1="909.6" x2="1247" y2="984.04"/><path class="cls-40" d="M1156.93,774.19l-22.69-13.1C1122,754,1112.14,737,1112.14,723h0c0-14,9.89-19.63,22.1-12.58l22.69,13.09c12.21,7,22.11,24.11,22.11,38.11h0C1179,775.61,1169.14,781.24,1156.93,774.19Z"/><path class="cls-33" d="M1170.55,881.59l-55.79-32.21a5.34,5.34,0,0,1-2.41-4.17h0c0-1.53,1.08-2.14,2.41-1.37l55.79,32.21a5.33,5.33,0,0,1,2.42,4.16h0C1173,881.74,1171.88,882.36,1170.55,881.59Z"/><path class="cls-33" d="M1212.2,879.26,1114.76,823a5.34,5.34,0,0,1-2.41-4.17h0c0-1.53,1.08-2.15,2.41-1.37l97.44,56.25a5.32,5.32,0,0,1,2.41,4.17h0C1214.61,879.42,1213.53,880,1212.2,879.26Z"/><path class="cls-33" d="M1212.2,727.18l-97.44-56.25a5.34,5.34,0,0,1-2.41-4.17h0c0-1.53,1.08-2.15,2.41-1.38l97.44,56.26a5.32,5.32,0,0,1,2.41,4.16h0C1214.61,727.33,1213.53,728,1212.2,727.18Z"/><ellipse class="cls-41" cx="1446.84" cy="953.43" rx="20.88" ry="36.17" transform="translate(-283.49 862.04) rotate(-30.36)"/><ellipse class="cls-42" cx="1436.65" cy="959.4" rx="20.88" ry="36.17" transform="translate(-287.9 857.71) rotate(-30.36)"/><g class="cls-30"><path class="cls-17" d="M1447,1032.92c-38.1-22-69.09-75.42-69.09-119.09s31-61.3,69.09-39.31,69.09,75.42,69.09,119.09S1485.11,1054.92,1447,1032.92Zm0-144.59c-31.46-18.17-57-3.6-57,32.46s25.59,80.17,57,98.33,57,3.6,57-32.46S1478.47,906.49,1447,888.33Z"/><path class="cls-17" d="M1447,1032.92c-38.1-22-69.09-75.42-69.09-119.09s31-61.3,69.09-39.31,69.09,75.42,69.09,119.09S1485.11,1054.92,1447,1032.92Zm0-144.59c-31.46-18.17-57-3.6-57,32.46s25.59,80.17,57,98.33,57,3.6,57-32.46S1478.47,906.49,1447,888.33Z"/></g><g class="cls-43"><path class="cls-44" d="M1447,1032.92c-38.1-22-69.09-75.42-69.09-119.09s31-61.3,69.09-39.31a13.25,13.25,0,0,1,6,10.38c0,3.81-2.69,5.35-6,3.43-31.46-18.17-57-3.6-57,32.46s25.59,80.17,57,98.33c18.2,10.5,34.88,10.53,45.77.07,2-1.9,5.76-.36,8.42,3.46s3.22,8.46,1.23,10.37C1489.44,1045.49,1468.72,1045.46,1447,1032.92Z"/></g><line class="cls-45" x1="1091.6" y1="597.89" x2="1523.64" y2="846.44"/><path class="cls-26" d="M1412.8,656.71,1152.36,506.34c-11.87-6.85-21.48-23.43-21.48-37h0c0-13.6,9.61-19.07,21.48-12.22L1412.8,607.46c11.87,6.85,21.49,23.43,21.49,37h0C1434.29,658.09,1424.67,663.56,1412.8,656.71Z"/><path class="cls-46" d="M1634.38,724.72h0c-2.68,1.55-4.86-.09-4.86-3.68V654.79c0-3.58,2.18-7.75,4.86-9.3h0c2.69-1.55,4.87.1,4.87,3.68v66.26C1639.25,719,1637.07,723.17,1634.38,724.72Zm4.87,88.33V746.79c0-3.58-2.18-5.23-4.87-3.68h0c-2.68,1.55-4.86,5.72-4.86,9.3v66.25c0,3.59,2.18,5.23,4.86,3.68h0C1637.07,820.79,1639.25,816.63,1639.25,813.05Zm0,64.11V844.41c0-3.58-2.18-5.23-4.87-3.68h0c-2.68,1.55-4.86,5.71-4.86,9.3v32.75c0,3.58,2.18,5.23,4.86,3.68h0C1637.07,884.91,1639.25,880.75,1639.25,877.16Z"/><path class="cls-17" d="M1536.29,1806.6,1129,1571.47c-23.62-13.63-42.77-50.22-42.77-81.72V1458c0-31.5,19.15-46,42.77-32.33l407.25,235.12c23.63,13.64,42.78,50.23,42.78,81.73v31.77C1579.07,1805.76,1559.92,1820.24,1536.29,1806.6Z"/><ellipse class="cls-32" cx="1330.32" cy="1617.53" rx="28.45" ry="49.28" transform="translate(-635.12 894.22) rotate(-30.36)"/><path class="cls-47" d="M1249.88,1591.59l-9.7-5.61c-7.17-4.13-13-15.34-13-24.9v-6.25c0-9.55,5.86-14,13-9.85l9.7,5.6c7.17,4.14,13,15.35,13,24.9v6.25C1262.91,1591.29,1257.05,1595.72,1249.88,1591.59Z"/><path class="cls-47" d="M1188.76,1556.3l-48.1-27.77c-7.17-4.14-13-15.35-13-24.9v-6.25c0-9.56,5.86-14,13-9.86l48.1,27.78c7.17,4.14,13,15.34,13,24.9v6.25C1201.8,1556,1195.93,1560.44,1188.76,1556.3Z"/><path class="cls-47" d="M1411.24,1684.75l9.71,5.6c7.16,4.14,13-.3,13-9.85v-6.25c0-9.56-5.87-20.76-13-24.9l-9.71-5.61c-7.17-4.13-13,.3-13,9.86v6.25C1398.21,1669.4,1404.07,1680.61,1411.24,1684.75Z"/><path class="cls-47" d="M1472.36,1720l48.1,27.78c7.17,4.13,13-.3,13-9.86v-6.25c0-9.55-5.87-20.76-13-24.9l-48.1-27.77c-7.17-4.14-13,.3-13,9.85v6.25C1459.33,1704.69,1465.19,1715.9,1472.36,1720Z"/></g></g><g id="Clock"><g class="cls-48"><ellipse class="cls-49" cx="1028.46" cy="702.19" rx="206.92" ry="358.41" transform="translate(-213.87 616.12) rotate(-30.36)"/></g><path class="cls-50" d="M1230.19,827.65c.9-142.66-98.89-317.18-222.88-389.81-61-35.76-116.56-40.16-157.31-18.39l-43.63,23.72,309.05,555,43-23.83q4.54-2.25,8.86-4.91l0,0h0C1205.88,945.47,1229.76,896.59,1230.19,827.65Z"/><path class="cls-51" d="M961.19,463.25c-124-72.63-225.24-15.86-226.14,126.8s98.89,317.18,222.89,389.81,225.24,15.87,226.13-126.79S1085.18,535.88,961.19,463.25Zm-3.06,485.34c-109-63.84-196.69-217.24-195.9-342.62S852,430.69,961,494.53s196.69,217.23,195.9,342.62S1067.12,1012.43,958.13,948.59Z"/><path class="cls-52" d="M1168.52,844c-.84,132.78-95.07,185.61-210.47,118s-208.28-230-207.45-362.82,95.07-185.61,210.47-118S1169.36,711.18,1168.52,844Z"/><g class="cls-53"><path class="cls-54" d="M977.56,569.3a15.88,15.88,0,0,1-7.22-12.44V515.65c0-4.57,3.23-6.41,7.22-4.1A15.9,15.9,0,0,1,984.77,524v41.2C984.77,569.76,981.54,571.6,977.56,569.3Z"/><path class="cls-54" d="M845.49,644.44l-35.94-20.75a15.88,15.88,0,0,1-7.22-12.44c0-4.57,3.23-6.41,7.22-4.11l35.94,20.76a15.88,15.88,0,0,1,7.22,12.44C852.71,644.91,849.48,646.75,845.49,644.44Z"/><path class="cls-54" d="M977.56,913.29a15.88,15.88,0,0,1-7.22-12.44V859.64c0-4.57,3.23-6.41,7.22-4.11A15.93,15.93,0,0,1,984.77,868v41.2C984.77,913.75,981.54,915.59,977.56,913.29Z"/><path class="cls-54" d="M1145.57,817.69l-36-20.75a15.88,15.88,0,0,1-7.22-12.44c0-4.57,3.23-6.41,7.22-4.11l36,20.75a15.92,15.92,0,0,1,7.21,12.45C1152.78,818.15,1149.55,820,1145.57,817.69Z"/><path class="cls-54" d="M893.55,505.4a10.89,10.89,0,0,1-1.41-1,14.18,14.18,0,0,1-1.35-1.25,16.28,16.28,0,0,1-1.25-1.48,18.24,18.24,0,0,1-1.09-1.66,18.56,18.56,0,0,1-.9-1.78,16.47,16.47,0,0,1-.66-1.81,11.2,11.2,0,0,1-.41-1.79,10.12,10.12,0,0,1-.15-1.7,7.56,7.56,0,0,1,.15-1.53,4.82,4.82,0,0,1,.41-1.3,4.14,4.14,0,0,1,.66-1.06,3.48,3.48,0,0,1,.9-.73,3.18,3.18,0,0,1,1.09-.4,4,4,0,0,1,1.25,0,5.7,5.7,0,0,1,1.35.31,9.33,9.33,0,0,1,2.82,1.63,12,12,0,0,1,1.35,1.25,16.53,16.53,0,0,1,1.25,1.48,17,17,0,0,1,1.1,1.66,17.23,17.23,0,0,1,.89,1.77,16,16,0,0,1,.67,1.82,15.15,15.15,0,0,1,.41,1.78,11.34,11.34,0,0,1,.14,1.7,8.37,8.37,0,0,1-.14,1.53,6.37,6.37,0,0,1-.41,1.32,4.42,4.42,0,0,1-.67,1,3.74,3.74,0,0,1-.89.75,3.42,3.42,0,0,1-1.1.38,4.31,4.31,0,0,1-1.25.05,6.24,6.24,0,0,1-1.35-.31A8.41,8.41,0,0,1,893.55,505.4Z"/><path class="cls-54" d="M832.06,540.39a10.33,10.33,0,0,1-1.42-1,13,13,0,0,1-1.34-1.25,15,15,0,0,1-1.25-1.48A16.45,16.45,0,0,1,827,535a17.23,17.23,0,0,1-.89-1.77,16.71,16.71,0,0,1-.67-1.82,13.16,13.16,0,0,1-.41-1.79,10,10,0,0,1-.14-1.69,7.6,7.6,0,0,1,.14-1.54,5.9,5.9,0,0,1,.41-1.31,4.42,4.42,0,0,1,.67-1,3.74,3.74,0,0,1,.89-.75,3.6,3.6,0,0,1,1.1-.39,4.69,4.69,0,0,1,1.25,0,6.25,6.25,0,0,1,1.34.3,9.81,9.81,0,0,1,2.83,1.63,17.38,17.38,0,0,1,1.35,1.25,18.13,18.13,0,0,1,1.24,1.49,17,17,0,0,1,1.1,1.66,17.23,17.23,0,0,1,.89,1.77,16.56,16.56,0,0,1,.67,1.81,13.65,13.65,0,0,1,.41,1.8,10.18,10.18,0,0,1,.15,1.69,7.59,7.59,0,0,1-.15,1.54,5.9,5.9,0,0,1-.41,1.31,4.42,4.42,0,0,1-.67,1,3.39,3.39,0,0,1-2,1.14,4.26,4.26,0,0,1-1.24,0,5.22,5.22,0,0,1-1.35-.3A8.06,8.06,0,0,1,832.06,540.39Z"/><path class="cls-54" d="M832.05,733a11.86,11.86,0,0,1-1.41-1,15.63,15.63,0,0,1-1.34-1.25,16.28,16.28,0,0,1-1.25-1.48,17.66,17.66,0,0,1-1.1-1.66,18.71,18.71,0,0,1-.9-1.79,17.73,17.73,0,0,1-.66-1.8,13.51,13.51,0,0,1-.41-1.79,10.21,10.21,0,0,1-.15-1.7A7.49,7.49,0,0,1,825,719a5.58,5.58,0,0,1,.41-1.31,4.58,4.58,0,0,1,.66-1.05,3.7,3.7,0,0,1,.9-.74,3.6,3.6,0,0,1,1.1-.39,4.31,4.31,0,0,1,1.25,0,6.25,6.25,0,0,1,1.34.3,9.81,9.81,0,0,1,2.83,1.63,17.38,17.38,0,0,1,1.35,1.25,18,18,0,0,1,1.24,1.48,18.5,18.5,0,0,1,1.1,1.67,17.23,17.23,0,0,1,.89,1.77,16,16,0,0,1,.67,1.82,12.7,12.7,0,0,1,.41,1.78,10.21,10.21,0,0,1,.15,1.7,7.59,7.59,0,0,1-.15,1.54,5.65,5.65,0,0,1-.41,1.3,4,4,0,0,1-.67,1,3.52,3.52,0,0,1-.89.75,3.69,3.69,0,0,1-1.1.39,4.25,4.25,0,0,1-1.24,0,5.67,5.67,0,0,1-1.35-.3A9.46,9.46,0,0,1,832.05,733Z"/><path class="cls-54" d="M893.55,839a11.86,11.86,0,0,1-1.41-1,17.38,17.38,0,0,1-1.35-1.25,15.15,15.15,0,0,1-1.25-1.49,16.81,16.81,0,0,1-1.09-1.65,17.46,17.46,0,0,1-.9-1.78,16.47,16.47,0,0,1-.66-1.81,11,11,0,0,1-.41-1.79,10.12,10.12,0,0,1-.15-1.7,7.49,7.49,0,0,1,.15-1.53,4.78,4.78,0,0,1,.41-1.31,4.26,4.26,0,0,1,.66-1.05,3.29,3.29,0,0,1,.9-.73,3.67,3.67,0,0,1,1.09-.41,4.7,4.7,0,0,1,1.25,0,5.67,5.67,0,0,1,1.35.3,9.77,9.77,0,0,1,2.82,1.63,13.19,13.19,0,0,1,1.35,1.26,16.38,16.38,0,0,1,1.25,1.47c.4.54.76,1.1,1.1,1.67a17.23,17.23,0,0,1,.89,1.77,16,16,0,0,1,.67,1.82,15.15,15.15,0,0,1,.41,1.78,11.32,11.32,0,0,1,.14,1.69,8.32,8.32,0,0,1-.14,1.54,6.28,6.28,0,0,1-.41,1.31,4.29,4.29,0,0,1-.67,1,3.48,3.48,0,0,1-.89.74,3.69,3.69,0,0,1-1.1.39,4.7,4.7,0,0,1-1.25.05,7.06,7.06,0,0,1-1.35-.31A8.48,8.48,0,0,1,893.55,839Z"/><path class="cls-54" d="M1061.56,936a11.1,11.1,0,0,1-1.41-1,14.18,14.18,0,0,1-1.35-1.25c-.43-.46-.85-1-1.25-1.48s-.76-1.09-1.1-1.66a17.38,17.38,0,0,1-.89-1.78,18.92,18.92,0,0,1-.67-1.81,17.64,17.64,0,0,1-.41-1.79,11.13,11.13,0,0,1-.14-1.7,8.37,8.37,0,0,1,.14-1.53,6.71,6.71,0,0,1,.41-1.31,4.6,4.6,0,0,1,.67-1.05,3.48,3.48,0,0,1,.89-.74,3.79,3.79,0,0,1,1.1-.39,4.33,4.33,0,0,1,1.25,0,5.7,5.7,0,0,1,1.35.31,9.73,9.73,0,0,1,2.82,1.62,13.19,13.19,0,0,1,1.35,1.26,16.14,16.14,0,0,1,1.25,1.47,19.9,19.9,0,0,1,1.09,1.67,15.49,15.49,0,0,1,.9,1.77,15.91,15.91,0,0,1,.66,1.82,12,12,0,0,1,.42,1.78,11.34,11.34,0,0,1,.14,1.7,8.21,8.21,0,0,1-.14,1.53,5.16,5.16,0,0,1-.42,1.31,4.26,4.26,0,0,1-.66,1,3.39,3.39,0,0,1-2,1.13,4,4,0,0,1-1.25,0,5.78,5.78,0,0,1-1.35-.3A8.93,8.93,0,0,1,1061.56,936Z"/><path class="cls-54" d="M1123.06,901a11.19,11.19,0,0,1-1.42-1,15.63,15.63,0,0,1-1.34-1.25,15.15,15.15,0,0,1-1.25-1.49,17,17,0,0,1-1.1-1.66,16.27,16.27,0,0,1-.89-1.77,16.56,16.56,0,0,1-.67-1.81,14.85,14.85,0,0,1-.41-1.79,11.23,11.23,0,0,1-.14-1.7A8.56,8.56,0,0,1,1116,887a6.19,6.19,0,0,1,.41-1.3,4,4,0,0,1,.67-1,3.32,3.32,0,0,1,.89-.75,3.69,3.69,0,0,1,1.1-.39,4.31,4.31,0,0,1,1.25,0,6.25,6.25,0,0,1,1.34.3,9.81,9.81,0,0,1,2.83,1.63,17.38,17.38,0,0,1,1.35,1.25,16.18,16.18,0,0,1,1.24,1.48,17.8,17.8,0,0,1,1.1,1.67,16.46,16.46,0,0,1,.9,1.78,16.89,16.89,0,0,1,.66,1.8,13.51,13.51,0,0,1,.41,1.79,10.21,10.21,0,0,1,.15,1.7,7.59,7.59,0,0,1-.15,1.54,5.65,5.65,0,0,1-.41,1.3,4.8,4.8,0,0,1-.66,1,3.94,3.94,0,0,1-.9.74,3.35,3.35,0,0,1-1.1.39,4.23,4.23,0,0,1-1.24,0,6.2,6.2,0,0,1-1.35-.3A8.93,8.93,0,0,1,1123.06,901Z"/><path class="cls-54" d="M1123.06,708.4A14.84,14.84,0,0,1,1118,703a15.41,15.41,0,0,1-.89-1.77,15.83,15.83,0,0,1-.67-1.81,14.85,14.85,0,0,1-.41-1.79,11.21,11.21,0,0,1-.14-1.69,8.4,8.4,0,0,1,.14-1.54,6.47,6.47,0,0,1,.41-1.31,4.22,4.22,0,0,1,.67-1,3.39,3.39,0,0,1,2-1.14,4.69,4.69,0,0,1,1.25,0,6.12,6.12,0,0,1,1.34.3,9.81,9.81,0,0,1,2.83,1.63,17.38,17.38,0,0,1,1.35,1.25,14.84,14.84,0,0,1,1.24,1.49,16.45,16.45,0,0,1,1.1,1.66,18.54,18.54,0,0,1,.9,1.78,17.73,17.73,0,0,1,.66,1.8,13.88,13.88,0,0,1,.41,1.79,10.3,10.3,0,0,1,.15,1.7,7.66,7.66,0,0,1-.15,1.54,5.9,5.9,0,0,1-.41,1.31,4.73,4.73,0,0,1-.66,1,3.7,3.7,0,0,1-.9.74,3.14,3.14,0,0,1-1.1.39,3.91,3.91,0,0,1-1.24,0,5.22,5.22,0,0,1-1.35-.3A8.06,8.06,0,0,1,1123.06,708.4Z"/><path class="cls-54" d="M1061.56,602.4a11.2,11.2,0,0,1-1.41-1,14.18,14.18,0,0,1-1.35-1.25,18.38,18.38,0,0,1-1.25-1.48,19.26,19.26,0,0,1-1.1-1.67,17.23,17.23,0,0,1-.89-1.77,18,18,0,0,1-.67-1.81,17.64,17.64,0,0,1-.41-1.79,11.11,11.11,0,0,1-.14-1.69,8.48,8.48,0,0,1,.14-1.54,7.17,7.17,0,0,1,.41-1.31,4.83,4.83,0,0,1,.67-1.05,3.65,3.65,0,0,1,.89-.73,3.54,3.54,0,0,1,1.1-.4,4.72,4.72,0,0,1,1.25,0,5.7,5.7,0,0,1,1.35.31,9.33,9.33,0,0,1,2.82,1.63,13.07,13.07,0,0,1,1.35,1.25,15,15,0,0,1,1.25,1.48,17,17,0,0,1,1.09,1.66,15.49,15.49,0,0,1,.9,1.77,16.47,16.47,0,0,1,.66,1.81,12.46,12.46,0,0,1,.42,1.79,11.45,11.45,0,0,1,.14,1.7,8.21,8.21,0,0,1-.14,1.53,5.37,5.37,0,0,1-.42,1.32,4.39,4.39,0,0,1-.66,1,3.36,3.36,0,0,1-.9.74,3.65,3.65,0,0,1-1.09.4,4.69,4.69,0,0,1-1.25,0,6.38,6.38,0,0,1-1.35-.31A8.06,8.06,0,0,1,1061.56,602.4Z"/><path class="cls-54" d="M977.55,722.27a17.49,17.49,0,0,1-5.91-6.12l-88.36-147c-3.44-5.73-3.59-12.05-.32-14.11s8.7.91,12.15,6.64l88.36,147c3.44,5.73,3.59,12.05.32,14.11C982.1,723.86,979.83,723.58,977.55,722.27Z"/><path class="cls-54" d="M1054,776.15c-.31-.18-.62-.37-.94-.59l-76.45-52.3c-5.48-3.75-9.51-11.64-9-17.63s5.37-7.8,10.85-4.06l76.45,52.3c5.48,3.75,9.51,11.65,9,17.64C1063.45,777.15,1059.11,779.09,1054,776.15Z"/><ellipse class="cls-54" cx="977.56" cy="712.42" rx="13.42" ry="23.25" transform="translate(-226.02 591.79) rotate(-30.36)"/></g><path class="cls-55" d="M961.19,463.26c-124-72.64-225.24-15.87-226.14,126.79s98.89,317.17,222.89,389.81,225.24,15.86,226.14-126.79S1085.18,535.89,961.19,463.26Zm-3.06,485.33c-109-63.84-196.68-217.23-195.9-342.62S852,430.69,961,494.53s196.69,217.23,195.9,342.62S1067.11,1012.42,958.13,948.59Z"/><path class="cls-56" d="M976.05,939.34c-109-63.83-196.68-217.23-195.9-342.62.38-59.22,20.43-101.58,53-123.09-43,16.63-70.44,62.9-70.88,132.34-.78,125.39,86.92,278.78,195.9,342.62,57.51,33.68,109.45,35.69,145.8,11.65C1069.32,973.65,1024.68,967.83,976.05,939.34Z"/><ellipse class="cls-57" cx="961.33" cy="434.84" rx="16.76" ry="29.03" transform="translate(514.42 1390.62) rotate(-89.28)"/><path class="cls-58" d="M988.58,434.44v-.58l.12-19.68-54.4-.34-.12,19.3a8.81,8.81,0,0,0,0,.89v.07h0c.19,3.87,2.84,7.73,8,10.73,10.63,6.23,27.86,6.37,38.49.32,5.16-2.94,7.81-6.8,8-10.71Z"/><path class="cls-59" d="M999.91,409.74c0-.27,0-.54,0-.82l.18-27.77-76.76-.48-.17,27.24c0,.41,0,.83,0,1.24v.11h0c.27,5.46,4,10.91,11.22,15.14,15,8.78,39.3,9,54.3.45,7.29-4.15,11-9.59,11.23-15.11Z"/><ellipse class="cls-60" cx="961.7" cy="380.91" rx="22.17" ry="38.4" transform="translate(568.72 1337.75) rotate(-89.28)"/><path class="cls-61" d="M988.61,428.5l0-3.63,0,0c7.29-4.15,11-9.59,11.23-15.11h0c0-.27,0-.54,0-.82l.17-27.21c.22-5.83-3.52-11.73-11.22-16.25-15-8.78-39.31-9-54.31-.45-7.73,4.4-11.46,10.26-11.22,16.11l-.17,26.79"/></g><g id="Man"><g id="Woman"><polygon class="cls-62" points="1049.33 895.7 1049.33 914.63 1033.82 899.97 1033.82 878.5 1049.33 895.7"/><use width="262" height="66" transform="translate(794.12 1781.8) scale(0.66 0.45)" xlink:href="#shadowsvglight"/><g id="WOMAN-2" data-name="WOMAN"><g id="Layer1_17_FILL" data-name="Layer1 17 FILL"><path class="cls-63" d="M694.52,1528l23.77-5.78,6.52,20.51q-20.41,32.8-39.43,52.66a3.67,3.67,0,0,1-4.84.28c-1.56-1.06-2.33-2.18-2.33-3.36q.84-16.12,7.36-40.54Q691.81,1528.61,694.52,1528Z"/></g><g id="Layer1_18_FILL" data-name="Layer1 18 FILL"><path class="cls-64" d="M710,1523.94q136.11-35.85,159.48-21.43-112.86-86.67-146.06-192.38L856,1355.24Q907.76,1418,934.43,1512q-36.87,50.37-214.93,42.5-7.37-3.54-10-15Q707.29,1529.45,710,1523.94Z"/></g><g id="Layer1_18_FILL-2" data-name="Layer1 18 FILL"><path class="cls-65" d="M710,1523.94q136.11-35.85,159.48-21.43-112.86-86.67-146.06-192.38L856,1355.24Q907.76,1418,934.43,1512q-36.87,50.37-214.93,42.5-7.37-3.54-10-15Q707.29,1529.45,710,1523.94Z"/></g><g id="Layer1_19_FILL" data-name="Layer1 19 FILL"><path class="cls-66" d="M714,1330.63c.2,1,.42,2.07.65,3.08a9.44,9.44,0,0,0,.28,1c.52,2.42,1.05,4.85,1.59,7.27a42.69,42.69,0,0,1-5.78,21.26l-6.34,13a3.8,3.8,0,0,1-5.13,0l-6.34-7.08a9.22,9.22,0,0,1,0-5.69l7.83-18.08c-.61-1-1.2-2-1.77-3.08a.67.67,0,0,1-.18-.28,1.18,1.18,0,0,1-.19-.37l-2.14-3.54a5.52,5.52,0,0,0,.84.28q5.86,1.39,11.65-2.8A25.66,25.66,0,0,0,714,1330.63Z"/><path class="cls-67" d="M758.74,1107.22v51.08q-39.11,30.77-74.1,73.82,15.83,40.59,29.36,98.51a25.66,25.66,0,0,1-5,4.94q-5.79,4.2-11.65,2.8a5.52,5.52,0,0,1-.84-.28q-44.57-75.72-55.27-123.87Q709.9,1116.33,758.74,1107.22Z"/></g><g id="Layer1_20_FILL" data-name="Layer1 20 FILL"><path class="cls-63" d="M769.74,1754.72l5.49-23.3,30.39,17.43a302.12,302.12,0,0,1,18,47.44,3.78,3.78,0,0,1-2.24,4.38c-1.68.87-3,1-4,.37q-13.61-8.76-31.41-26.65Q769,1757.42,769.74,1754.72Z"/></g><g id="Layer1_21_FILL" data-name="Layer1 21 FILL"><path class="cls-68" d="M767.22,1323.83l111.19,23a1820,1820,0,0,1,0,182.5q-33,123.44-72.79,219.5a50.55,50.55,0,0,1-27,3.82q-13.9-1.76-6.06-9.6l34.39-203.38Q772,1414,767.22,1323.83Z"/></g><g id="Layer1_21_FILL-2" data-name="Layer1 21 FILL"><path class="cls-69" d="M767.22,1323.83l111.19,23a1820,1820,0,0,1,0,182.5q-33,123.44-72.79,219.5a50.55,50.55,0,0,1-27,3.82q-13.9-1.76-6.06-9.6l34.39-203.38Q772,1414,767.22,1323.83Z"/></g><g id="Layer1_22_FILL" data-name="Layer1 22 FILL"><path class="cls-70" d="M733.48,1134.81h25.26l-23.68,43.53-14.54,14Q722.31,1151.63,733.48,1134.81Z"/></g><g id="Layer1_23_FILL" data-name="Layer1 23 FILL"><path class="cls-67" d="M733.48,1134.81q.64-32.91,37.47-26.56l75.87,25.91q45.3,58.06,40.63,82.3-4.74,24-9,92.55v37.84q3.06,17.54.84,18.64t-20.88,3.64q-18.66,2.56-76.52-11.37t-64.31-36.82l31.6-57.88Q725.74,1184.76,733.48,1134.81Z"/></g><g id="Layer1_24_FILL" data-name="Layer1 24 FILL"><path class="cls-66" d="M1045.31,911.66c.2-.33.4-.65.58-1l-6.75,28.72c-.25,1.44-.49,2.88-.72,4.33l-.41,2c-.11.56-.21,1.12-.28,1.7l-.09,0a4.89,4.89,0,0,1-.88.45q-4.26,1.62-9.26-.68a28.53,28.53,0,0,1-7.64-5.76,55.38,55.38,0,0,1-4.4-5.07l2.6-6.49a.51.51,0,0,0,.14.15,1.17,1.17,0,0,1-.07-.33l2.8-7,6.54-29.2,6-15.15q2.87,3.23.23,10.23l-1.42,6.06q6.56-11.64,11.71-13.49,3.76,5.39,5.29,15.16Q1046.81,906.86,1045.31,911.66Z"/><path class="cls-67" d="M1018.13,929.71a1.17,1.17,0,0,0,.07.33.51.51,0,0,1-.14-.15l.07-.18m1.73,11.74a28.53,28.53,0,0,0,7.64,5.76q5,2.29,9.26.68a4.89,4.89,0,0,0,.88-.45q-11.06,57-36.1,116.56c-57.87,59.2-99.22,83.89-113.1,111.86l-1.35,29.51q-38.45,1.28-54.51-62.68L973.2,1042.24l42.26-105.86A55.38,55.38,0,0,0,1019.86,941.45Z"/></g><g id="HEAD_0_Layer0_0_MEMBER_0_MEMBER_0_FILL" data-name="HEAD 0 Layer0 0 MEMBER 0 MEMBER 0 FILL"><path class="cls-66" d="M772.15,1041.22q28.59-24.33,52.71-8.26,7,5.57,8.85,23l6.4,6.07q4.25,7.79,2,29.71-3.42,4.08-16.46,7.52a179.59,179.59,0,0,1,2.61,44l-34.18,4.3,1.48-47.39Q757.5,1075.37,772.15,1041.22Z"/></g><g id="HEAD_0_Layer0_0_MEMBER_0_MEMBER_1_FILL" data-name="HEAD 0 Layer0 0 MEMBER 0 MEMBER 1 FILL"><path class="cls-71" d="M821.07,1096q11.43.54,19.54-2.66-4.33,3.24-14.91,6a.93.93,0,0,0,.13.37A16.73,16.73,0,0,1,821.07,1096Z"/></g><g id="HEAD_0_Layer0_1_FILL" data-name="HEAD 0 Layer0 1 FILL"><path class="cls-72" d="M836.28,1044.31q-1.65,2.58-5.4-1.59,2.63,7.69-.75,12.12-1.67.48-7.92,10.81l1.68,2.52q33,47.34,23.58,75.4T808,1208.16q21.93,27.45,11,55.55Q806.76,1295,752.77,1277T714,1237.71q11.93-11.87,23.86-11-26-86.71,33.09-104.48,18.43-5.55,2.42-35t.37-47.9q31.37-28.23,60.77-1Q837.75,1042,836.28,1044.31Z"/></g><g id="HEAD_0_Layer0_1_FILL-2" data-name="HEAD 0 Layer0 1 FILL"><path class="cls-73" d="M836.28,1044.31q-1.65,2.58-5.4-1.59,2.63,7.69-.75,12.12-1.67.48-7.92,10.81l1.68,2.52q33,47.34,23.58,75.4T808,1208.16q21.93,27.45,11,55.55Q806.76,1295,752.77,1277T714,1237.71q11.93-11.87,23.86-11-26-86.71,33.09-104.48,18.43-5.55,2.42-35t.37-47.9q31.37-28.23,60.77-1Q837.75,1042,836.28,1044.31Z"/></g><path id="Layer1_26_1_STROKES" data-name="Layer1 26 1 STROKES" class="cls-74" d="M694.52,1528q-10.68,45.12-10.35,68.23"/><path id="Layer1_27_1_STROKES" data-name="Layer1 27 1 STROKES" class="cls-74" d="M823.61,1796.29q.58,5.52-53.87-41.57"/><path id="Layer1_28_1_STROKES" data-name="Layer1 28 1 STROKES" class="cls-74" d="M705.89,1570.82l-9.32-6.61"/><path id="Layer1_29_1_STROKES" data-name="Layer1 29 1 STROKES" class="cls-74" d="M710.36,1565.51l-9.32-6.62"/><path id="Layer1_30_1_STROKES" data-name="Layer1 30 1 STROKES" class="cls-74" d="M814.66,1769.82l-7.46,4"/><path id="Layer1_31_1_STROKES" data-name="Layer1 31 1 STROKES" class="cls-74" d="M813.26,1763.85l-7.45,4"/></g><ellipse class="cls-75" cx="699.97" cy="1706.4" rx="39.56" ry="22.84" transform="translate(-10.72 4.44) rotate(-0.36)"/></g></g></svg>