<?xml version="1.0" encoding="UTF-8"?><svg xmlns="http://www.w3.org/2000/svg" xmlns:xlink="http://www.w3.org/1999/xlink" viewBox="0 0 2500 2500"><defs><style>.cls-1{fill:url(#Degradado_sin_nombre_13);}.cls-2{fill:url(#Degradado_sin_nombre_9);fill-opacity:.43;}.cls-3{fill:url(#linear-gradient-2);}.cls-4,.cls-5,.cls-6{fill:#fff;}.cls-7,.cls-8{fill:#0071b0;}.cls-9{stroke:rgba(29,161,220,.3);}.cls-9,.cls-10,.cls-11,.cls-12,.cls-13,.cls-14,.cls-15,.cls-16{fill:none;}.cls-9,.cls-13,.cls-14{stroke-width:3px;}.cls-9,.cls-13,.cls-14,.cls-16{stroke-linecap:round;stroke-miterlimit:10;}.cls-17{fill:url(#Degradado_sin_nombre_39);}.cls-18{fill:url(#linear-gradient-5);opacity:.75;}.cls-19{fill:#00a7d4;}.cls-10{opacity:.41;stroke-width:12.82px;}.cls-10,.cls-11,.cls-15{stroke:#022e49;}.cls-20{filter:url(#AI_DesenfoqueGaussiano_4);}.cls-5,.cls-21,.cls-8{opacity:.4;}.cls-22{opacity:.6;}.cls-23{fill:#1947db;}.cls-24{opacity:.28;}.cls-25{fill:#ffa3ab;}.cls-26{fill:url(#linear-gradient-6);}.cls-27{fill:rgba(0,113,176,.8);}.cls-28{isolation:isolate;}.cls-29{fill:#869dfd;}.cls-30{fill:url(#Nueva_muestra_de_degradado_5);}.cls-31{fill:#52d6ff;}.cls-11{opacity:.72;stroke-width:6.99px;}.cls-32{fill:#183a5d;}.cls-33{fill:rgba(16,20,27,.31);}.cls-34{fill:url(#Degradado_sin_nombre_3);}.cls-35{fill:#4f18d3;}.cls-36{fill:url(#radial-gradient);}.cls-12{stroke:rgba(162,173,187,.98);stroke-linejoin:round;stroke-width:1.13px;}.cls-37{fill:#114b6d;}.cls-38{fill:url(#Degradado_sin_nombre_68);}.cls-13{stroke:rgba(0,113,176,.3);}.cls-39{fill:#20bcec;}.cls-40{fill:url(#Nueva_muestra_de_degradado_19-3);}.cls-41{fill:rgba(0,113,176,.4);}.cls-14{stroke:rgba(144,229,255,.3);}.cls-42{fill:#b1bec7;}.cls-43{fill:#14253f;}.cls-44{opacity:.1;}.cls-15{opacity:.15;stroke-width:19.81px;}.cls-45{fill:#09c997;}.cls-16{stroke:rgba(0,113,176,.4);stroke-width:20px;}.cls-46{fill:url(#linear-gradient-7);}.cls-47{fill:#232484;}.cls-48{fill:url(#Nueva_muestra_de_degradado_38);}.cls-49{fill:#355bfc;}.cls-50{fill:url(#linear-gradient-3);}.cls-51{fill:url(#Nueva_muestra_de_degradado_19-2);}.cls-52{fill:url(#linear-gradient);}.cls-53{fill:#00b287;opacity:.35;}.cls-54{fill:url(#linear-gradient-4);}.cls-55{fill:#6da0e8;}.cls-56{fill:url(#Nueva_muestra_de_degradado_19);}.cls-6{opacity:.05;}</style><filter id="AI_DesenfoqueGaussiano_4"><feGaussianBlur stdDeviation="4"/></filter><linearGradient id="Degradado_sin_nombre_3" x1="29.03" y1="32.92" x2="247.63" y2="32.92" gradientUnits="userSpaceOnUse"><stop offset="0" stop-color="#0f0b26" stop-opacity=".5"/><stop offset=".48" stop-color="#0f0b26" stop-opacity=".1"/><stop offset="1" stop-color="#0f0b26" stop-opacity="0"/></linearGradient><symbol id="shadowsvgdark" viewBox="0 0 269.17 74.14"><g class="cls-20"><path class="cls-34" d="m247.63,32.92c.09,15.15-21.04,27.43-47.19,27.42h-123.91c-2.86.01-5.66-.14-8.38-.42-.78-.08-1.55-.18-2.31-.28-.76-.1-1.52-.21-2.27-.34-.75-.12-1.49-.25-2.23-.4-.73-.14-1.46-.29-2.17-.46-1.35-.3-2.66-.65-3.95-1.02-.42-.13-.85-.25-1.27-.38-.67-.22-1.33-.44-1.99-.67-.65-.22-1.29-.46-1.92-.71-1.26-.49-2.48-1.02-3.65-1.58-.59-.28-1.16-.56-1.73-.86-.56-.29-1.11-.6-1.65-.91-.53-.31-1.06-.63-1.57-.95-.51-.32-1.01-.66-1.49-1-.97-.67-1.89-1.38-2.74-2.11-.43-.36-.84-.73-1.24-1.11-.4-.38-.78-.76-1.15-1.15-.18-.19-.36-.39-.53-.58-.65-.73-1.25-1.48-1.78-2.25-.19-.27-.37-.54-.55-.81-.13-.21-.26-.42-.39-.63-.25-.43-.48-.86-.7-1.29-.21-.44-.41-.87-.59-1.32-.18-.44-.34-.89-.48-1.34-.07-.22-.14-.45-.2-.67-.12-.46-.22-.92-.31-1.38-.16-.92-.25-1.85-.26-2.8-.08-15.15,21.05-27.43,47.2-27.43h123.9c.41,0,.82.01,1.22.01,1.63.03,3.23.1,4.81.21,1.19.09,2.36.2,3.52.34,1.15.14,2.29.3,3.42.48,1.76.29,3.48.64,5.16,1.04.46.11.92.23,1.37.34,1.4.37,2.76.77,4.09,1.21.66.22,1.31.45,1.95.69,2.89,1.07,5.57,2.32,7.99,3.71,3.22,1.86,5.98,3.99,8.18,6.32.37.39.72.79,1.06,1.19.33.4.65.8.95,1.21.76,1.03,1.41,2.08,1.94,3.17.65,1.3,1.13,2.64,1.44,4.02.21.91.34,1.84.38,2.78.01.24.02.47.02.71Z"/></g></symbol><linearGradient id="Degradado_sin_nombre_39" x1="623.54" y1="2154.66" x2="1889.13" y2="1580.71" gradientUnits="userSpaceOnUse"><stop offset="0" stop-color="#141226" stop-opacity=".3"/><stop offset=".76" stop-color="#141226" stop-opacity=".1"/><stop offset="1" stop-color="#141226" stop-opacity=".04"/></linearGradient><linearGradient id="linear-gradient" x1="1697.39" y1="1106.04" x2="1554.41" y2="1032.51" gradientUnits="userSpaceOnUse"><stop offset="0" stop-color="#52d6ff" stop-opacity=".1"/><stop offset="1" stop-color="#0071b0" stop-opacity=".3"/></linearGradient><linearGradient id="linear-gradient-2" x1="335.68" y1="2019.07" x2="2089.81" y2="2019.07" gradientUnits="userSpaceOnUse"><stop offset=".32" stop-color="#1189a4"/><stop offset=".46" stop-color="#1087a2"/><stop offset=".51" stop-color="#0f809e"/><stop offset=".55" stop-color="#0d7498"/><stop offset=".58" stop-color="#0a638e"/><stop offset=".59" stop-color="#085988"/><stop offset="1" stop-color="#045989"/></linearGradient><linearGradient id="linear-gradient-3" x1="2833.39" y1="1758.29" x2="332.9" y2="1758.29" gradientUnits="userSpaceOnUse"><stop offset="0" stop-color="#202f64"/><stop offset="1" stop-color="#0071b0"/></linearGradient><radialGradient id="radial-gradient" cx="823.93" cy="4460.45" fx="823.93" fy="4460.45" r="293" gradientTransform="translate(2060.52 340.1) rotate(90) scale(1.68 .16)" gradientUnits="userSpaceOnUse"><stop offset="0" stop-color="#0f0b26" stop-opacity=".5"/><stop offset="1" stop-color="#0f0b26" stop-opacity="0"/></radialGradient><linearGradient id="linear-gradient-4" x1="1203.91" y1="430.7" x2="1487.05" y2="939.67" gradientUnits="userSpaceOnUse"><stop offset="0" stop-color="#58d1ed"/><stop offset=".09" stop-color="#6cd8f3"/><stop offset=".2" stop-color="#80dff9"/><stop offset=".31" stop-color="#8ce3fd"/><stop offset=".43" stop-color="#90e5ff"/><stop offset=".49" stop-color="#6dd0f4"/><stop offset=".55" stop-color="#50bfeb"/><stop offset=".62" stop-color="#39b2e4"/><stop offset=".69" stop-color="#29a8df"/><stop offset=".77" stop-color="#20a2dc"/><stop offset=".88" stop-color="#1da1dc"/></linearGradient><linearGradient id="Nueva_muestra_de_degradado_38" x1="-11687.85" y1="-17098.61" x2="-9836.36" y2="-22312.39" gradientTransform="translate(6828.05 20651.15) rotate(51.1) scale(.8 .42) skewX(32.71)" gradientUnits="userSpaceOnUse"><stop offset="0" stop-color="#141226"/><stop offset=".58" stop-color="#27244b"/><stop offset=".98" stop-color="#27244b"/><stop offset="1" stop-color="#27244b"/></linearGradient><linearGradient id="linear-gradient-5" x1="-11364.45" y1="-20069.84" x2="-11303.83" y2="-20009.22" gradientTransform="translate(6828.05 20651.15) rotate(51.1) scale(.8 .42) skewX(32.71)" gradientUnits="userSpaceOnUse"><stop offset="0" stop-color="#1da1dc"/><stop offset="1" stop-color="#00b287"/></linearGradient><linearGradient id="linear-gradient-6" x1="1167.1" y1="979.81" x2="1138.27" y2="1030.76" gradientUnits="userSpaceOnUse"><stop offset="0" stop-color="#0071b0"/><stop offset=".06" stop-color="#1da1dc"/><stop offset="1" stop-color="#0071b0"/></linearGradient><linearGradient id="linear-gradient-7" x1="1634.38" y1="-541.35" x2="1634.38" y2="2236.4" gradientUnits="userSpaceOnUse"><stop offset="0" stop-color="#58d1ed"/><stop offset="0" stop-color="#57d0ec"/><stop offset=".59" stop-color="#2daee0"/><stop offset=".88" stop-color="#1da1dc"/></linearGradient><linearGradient id="Degradado_sin_nombre_13" x1="1338.09" y1="894.57" x2="1338.04" y2="918.19" gradientTransform="translate(2379.61) rotate(-180) scale(1 -1)" gradientUnits="userSpaceOnUse"><stop offset="0" stop-color="#90aac1" stop-opacity=".4"/><stop offset="1" stop-color="#90aac1" stop-opacity="0"/></linearGradient><linearGradient id="Nueva_muestra_de_degradado_19" x1="1581.09" y1="1491.2" x2="1489.64" y2="1249.82" gradientTransform="translate(2379.61) rotate(-180) scale(1 -1)" gradientUnits="userSpaceOnUse"><stop offset="0" stop-color="#010d1a" stop-opacity="0"/><stop offset="1" stop-color="#010d1a"/></linearGradient><linearGradient id="Nueva_muestra_de_degradado_19-2" x1="1562.6" y1="1464.24" x2="1589.58" y2="1146.41" xlink:href="#Nueva_muestra_de_degradado_19"/><linearGradient id="Nueva_muestra_de_degradado_19-3" x1="725.66" y1="1159.68" x2="747.65" y2="1165.67" gradientTransform="matrix(1,0,0,1,0,0)" xlink:href="#Nueva_muestra_de_degradado_19"/><linearGradient id="Nueva_muestra_de_degradado_5" x1="1591.76" y1="1158.32" x2="1737.18" y2="1041.38" gradientTransform="translate(2379.61) rotate(-180) scale(1 -1)" gradientUnits="userSpaceOnUse"><stop offset=".09" stop-color="#fff" stop-opacity="0"/><stop offset="1" stop-color="#fff"/></linearGradient><radialGradient id="Degradado_sin_nombre_9" cx="1879.02" cy="1784.92" fx="1879.02" fy="1784.92" r="39.52" gradientTransform="translate(785.42 209.79) rotate(150.36) scale(.82 -.7) skewX(-26.4)" gradientUnits="userSpaceOnUse"><stop offset="0" stop-color="#141226" stop-opacity=".3"/><stop offset="1" stop-color="#141226" stop-opacity="0"/></radialGradient><linearGradient id="Degradado_sin_nombre_68" x1="1683.42" y1="515.21" x2="1497.13" y2="714.3" gradientTransform="translate(2379.61) rotate(-180) scale(1 -1)" gradientUnits="userSpaceOnUse"><stop offset=".72" stop-color="#815ae0"/><stop offset=".82" stop-color="#997ae5"/><stop offset=".99" stop-color="#cdbdf2"/></linearGradient></defs><g id="ShadowBase"><path class="cls-17" d="m2250.4,1866.57c14.09,8.13,14.16,21.32.17,29.45l-751.31,454.32c-19.13,16.83-154.54,27.44-183.62,0l-985.12-573.37c-14.09-8.13-14.17-21.32-.17-29.45l884.08-454.32c14-8.13,36.76-8.13,50.85,0l985.12,573.37Z"/></g><g id="Plant"><path class="cls-31" d="m1898.23,643.04c-249.31,241.55-352.73,565.89-310.26,973.02,335.83-333.31,439.25-657.65,310.26-973.02Z"/><path class="cls-19" d="m1578.49,1623.76l16.95,3.33c113.32-295.89,205.8-578.63,277.4-848.2-95.34,290.34-193.46,571.97-294.34,844.88Z"/><path class="cls-52" d="m1898.23,643.04c-249.31,241.55-352.73,565.89-310.26,973.02,335.83-333.31,439.25-657.65,310.26-973.02Z"/><path class="cls-39" d="m1561.98,1607.82h.04c254.55,24.81,415.49-125.65,482.81-451.38-204.86,63.39-365.82,213.85-482.85,451.38Z"/><path class="cls-19" d="m1976.97,1237.96c-113.4,153.69-255.83,264.84-427.27,333.47l-2.62,17.23c176.21-70.5,319.53-187.39,429.94-350.69h-.04Z"/></g><g id="Base"><g id="Base-2"><path class="cls-15" d="m2081.86,1894.42c14.09,8.13,14.16,21.32.17,29.45l-715.54,426.47c-14,8.13-36.76,8.13-50.85,0l-985.12-573.37c-14.09-8.13-14.17-21.32-.17-29.45l715.54-426.47c14-8.13,36.76-8.13,50.85,0l985.12,573.37Z"/><path class="cls-10" d="m2081.86,1894.42c14.09,8.13,14.16,21.32.17,29.45l-715.54,426.47c-14,8.13-36.76,8.13-50.85,0l-985.12-573.37c-14.09-8.13-14.17-21.32-.17-29.45l715.54-426.47c14-8.13,36.76-8.13,50.85,0l985.12,573.37Z"/><path class="cls-11" d="m2081.86,1894.42c14.09,8.13,14.16,21.32.17,29.45l-715.54,426.47c-14,8.13-36.76,8.13-50.85,0l-985.12-573.37c-14.09-8.13-14.17-21.32-.17-29.45l715.54-426.47c14-8.13,36.76-8.13,50.85,0l985.12,573.37Z"/><path class="cls-3" d="m319.91,1684.73l-.21,74.38c-.02,5.37,3.53,10.74,10.62,14.83l985.12,573.37c14.09,8.13,36.85,8.13,50.85,0l715.54-426.47c6.95-4.04,10.43-9.33,10.45-14.62l.21-74.38c-.02,5.3-1772.58-141.75-1772.57-147.11Z"/><path class="cls-50" d="m2081.86,1817.01c14.09,8.13,14.16,21.32.17,29.45l-715.54,426.47c-14,8.13-36.76,8.13-50.85,0l-985.12-573.37c-14.09-8.13-14.17-21.32-.17-29.45l715.54-426.47c14-8.13,36.76-8.13,50.85,0l985.12,573.37Z"/><g class="cls-24"><path class="cls-55" d="m1071.28,1244.53h0c8.28,0,16.28,1.88,21.95,5.15l985.14,573.38c4.52,2.61,7.11,5.79,7.12,8.73,0,2.9-2.54,6.04-6.97,8.62l-.03.02-.03.02-715.51,426.45c-5.63,3.26-13.59,5.13-21.84,5.13s-16.28-1.88-21.94-5.15l-985.14-573.38c-4.52-2.61-7.12-5.79-7.12-8.74,0-2.9,2.54-6.04,6.97-8.62l.03-.02.03-.02,715.51-426.45c5.63-3.26,13.59-5.13,21.84-5.13m0-6.99c-9.2,0-18.39,2.03-25.39,6.1l-715.54,426.47c-14,8.13-13.92,21.32.17,29.45l985.12,573.37c7.04,4.07,16.26,6.1,25.46,6.1s18.39-2.03,25.39-6.1l715.54-426.47c14-8.13,13.92-21.32-.17-29.45l-985.12-573.37c-7.05-4.07-16.26-6.1-25.47-6.1h0Z"/></g><path class="cls-55" d="m1071.28,1237.54v3.5c9,0,17.42,2,23.71,5.63l985.13,573.38c5.71,3.3,8.86,7.47,8.87,11.75,0,4.24-3.09,8.38-8.74,11.67l-715.5,426.45c-6.24,3.63-14.64,5.63-23.63,5.63s-17.42-2-23.7-5.62l-985.13-573.38c-5.71-3.3-8.86-7.47-8.87-11.76,0-4.24,3.09-8.38,8.74-11.66l715.5-426.45c6.24-3.63,14.63-5.62,23.63-5.62v-3.5m0,0c-9.2,0-18.39,2.03-25.39,6.1l-715.54,426.47c-14,8.13-13.92,21.32.17,29.45l985.12,573.37c7.04,4.07,16.26,6.1,25.46,6.1s18.39-2.03,25.39-6.1l715.54-426.47c14-8.13,13.92-21.32-.17-29.45l-985.12-573.37c-7.05-4.07-16.26-6.1-25.47-6.1h0Z"/></g></g><g id="Mobile"><g id="Dashbboard"><ellipse id="Shadow" class="cls-36" cx="1342.23" cy="1724.22" rx="47.18" ry="492.21" transform="translate(-822.1 2024.51) rotate(-60)"/><path class="cls-54" d="m1597.23,447.04l-459.6-265.35c-13.81-7.97-26.34-8.99-35.62-4.25v-.02s-.36.21-.36.21c-.46.24-.91.5-1.35.78l-32.04,18.47,533.02,1666.14,30.78-17.88v-.03c10.38-4.85,16.89-16.71,16.89-34.09V536.2c0-32.75-23.16-72.67-51.73-89.17Z"/><path class="cls-48" d="m1564.15,1859.55l-459.6-265.35c-28.57-16.49-51.73-56.42-51.73-89.17V230.22c0-32.75,23.16-45.93,51.73-29.43l459.6,265.35c28.57,16.49,51.73,56.42,51.73,89.17v1274.81c0,32.75-23.16,45.93-51.73,29.43Z"/><path class="cls-32" d="m1546.48,1631.75l-424.27-244.95c-19.44-11.23-35.21-38.4-35.21-60.69v-299.21c0-22.29,15.76-31.26,35.21-20.03l424.27,244.95c19.44,11.23,35.21,38.4,35.21,60.69v299.21c0,22.29-15.76,31.26-35.21,20.03Z"/><path class="cls-33" d="m1145.28,1192.2v56.25s0,35.86,0,35.86c0,3.81-2.7,5.35-6.02,3.43-3.33-1.92-6.02-6.57-6.02-10.38v-35.86s0-56.25,0-56.25c0-3.81,2.7-5.35,6.02-3.43,3.33,1.92,6.02,6.57,6.02,10.38Zm59.63,73.58c-3.33-1.92-6.02-.39-6.02,3.43v12.33s0,33.72,0,33.72c0,3.81,2.7,8.46,6.02,10.38s6.02.39,6.02-3.43v-33.72s0-12.33,0-12.33c0-3.81-2.7-8.46-6.02-10.38Zm65.65,21.27c-3.33-1.92-6.02-.39-6.02,3.43v35.98s0,26.71,0,26.71c0,3.81,2.7,8.46,6.02,10.38,3.33,1.92,6.02.39,6.02-3.43v-26.71s0-35.98,0-35.98c0-3.81-2.7-8.46-6.02-10.38Zm65.65,64.73c-3.33-1.92-6.02-.39-6.02,3.43v22.5s0,13.36,0,13.36c0,3.81,2.7,8.46,6.02,10.38,3.33,1.92,6.02.39,6.02-3.43v-13.36s0-22.5,0-22.5c0-3.81-2.7-8.46-6.02-10.38Zm65.65,50.62c-3.33-1.92-6.02-.39-6.02,3.43v16.46s0,6.68,0,6.68c0,3.81,2.7,8.46,6.02,10.38s6.02.39,6.02-3.43v-6.68s0-16.46,0-16.46c0-3.81-2.7-8.46-6.02-10.38Zm131.3,40.48c-3.33-1.92-6.02-.39-6.02,3.43v17.12s0,41.35,0,41.35c0,3.81,2.7,8.46,6.02,10.38,3.33,1.92,6.02.39,6.02-3.43v-41.35s0-17.12,0-17.12c0-3.81-2.7-8.46-6.02-10.38Zm-59.62,30.94s0-.04,0-.06v-14.21c0-3.81-2.7-8.46-6.02-10.38-3.33-1.92-6.02-.39-6.02,3.43v14.26c0,1.41.37,2.93,1,4.38,0,.01,0,.03.02.04,0,0,0,0,0,0,.09.2.18.4.28.6.03.05.05.11.08.16.99,1.94,2.43,3.7,4.06,4.82.2.14.4.27.59.38s.4.22.6.31c1.14.53,2.18.63,3.04.38.22-.06.43-.14.62-.25.2-.11.38-.26.55-.42.65-.61,1.07-1.54,1.19-2.77.02-.22.03-.44.03-.67Z"/><line class="cls-16" x1="1128.64" y1="1283.57" x2="1128.64" y2="1191.46"/><line class="cls-16" x1="1194.29" y1="1321.47" x2="1194.29" y2="1275.42"/><line class="cls-16" x1="1259.94" y1="1359.37" x2="1259.94" y2="1296.68"/><line class="cls-16" x1="1325.58" y1="1397.28" x2="1325.58" y2="1361.42"/><line class="cls-16" x1="1391.23" y1="1435.18" x2="1391.23" y2="1412.04"/><line class="cls-16" x1="1456.88" y1="1473.08" x2="1456.88" y2="1458.82"/><line class="cls-16" x1="1522.53" y1="1510.98" x2="1522.53" y2="1452.52"/><line class="cls-16" x1="1128.64" y1="1283.57" x2="1128.64" y2="1247.71"/><line class="cls-16" x1="1194.29" y1="1321.47" x2="1194.29" y2="1287.75"/><line class="cls-16" x1="1259.94" y1="1359.37" x2="1259.94" y2="1332.66"/><line class="cls-16" x1="1325.58" y1="1397.28" x2="1325.58" y2="1383.92"/><line class="cls-16" x1="1391.23" y1="1435.18" x2="1391.23" y2="1428.5"/><line class="cls-16" x1="1456.88" y1="1473.08" x2="1456.88" y2="1473.08"/><line class="cls-16" x1="1522.53" y1="1510.98" x2="1522.53" y2="1469.63"/><path class="cls-27" d="m1151.57,1364.24l-12.36-7.14c-4.55-2.63-8.24-8.99-8.24-14.21h0c0-5.22,3.69-7.32,8.24-4.69l12.36,7.14c4.55,2.63,8.24,8.99,8.24,14.21h0c0,5.22-3.69,7.32-8.24,4.69Z"/><path class="cls-27" d="m1220.32,1403.94l-45.09-26.03c-4.55-2.63-8.24-8.99-8.24-14.21h0c0-5.22,3.69-7.32,8.24-4.69l45.09,26.03c4.55,2.63,8.24,8.99,8.24,14.21h0c0,5.22-3.69,7.32-8.24,4.69Z"/><path class="cls-53" d="m1384.15,1257.12l-244.95-141.42c-4.55-2.63-8.24-8.99-8.24-14.21h0c0-5.22,3.69-7.32,8.24-4.69l244.95,141.42c4.55,2.63,8.24,8.99,8.24,14.21h0c0,5.22-3.69,7.32-8.24,4.69Z"/><path class="cls-41" d="m1266.86,1430.81h0c-4.55-2.63-8.24-8.99-8.24-14.21h0c0-5.22,3.69-7.32,8.24-4.69h0c4.55,2.63,8.24,8.99,8.24,14.21h0c0,5.22-3.69,7.32-8.24,4.69Z"/><path class="cls-41" d="m1321.12,1462.13l-29.99-17.31c-4.55-2.63-8.24-8.99-8.24-14.21h0c0-5.22,3.69-7.32,8.24-4.69l29.99,17.31c4.55,2.63,8.24,8.99,8.24,14.21h0c0,5.22-3.69,7.32-8.24,4.69Z"/><line class="cls-13" x1="1126.44" y1="1424.78" x2="1542.95" y2="1665.89"/><ellipse class="cls-33" cx="1538.74" cy="609.83" rx="34.94" ry="60.53" transform="translate(-97.21 861.37) rotate(-30.36)"/><ellipse class="cls-41" cx="1510.4" cy="626.42" rx="34.94" ry="60.53" transform="translate(-109.49 849.32) rotate(-30.36)"/><g class="cls-21"><path class="cls-7" d="m1419.11,525.54v5c2.32,0,5.05.87,7.89,2.51,11.19,6.46,20.64,22.74,20.64,35.55,0,3.41-.75,11.35-7.74,11.35-2.32,0-5.05-.87-7.89-2.51-11.19-6.46-20.64-22.74-20.64-35.55,0-3.41.75-11.35,7.74-11.35v-5m0,0c-7.56,0-12.74,5.98-12.74,16.35,0,14.65,10.36,32.51,23.14,39.88,3.74,2.16,7.27,3.18,10.39,3.18,7.56,0,12.74-5.98,12.74-16.35,0-14.65-10.36-32.51-23.14-39.88-3.74-2.16-7.27-3.18-10.39-3.18h0Z"/></g><ellipse class="cls-53" cx="1449.45" cy="543.52" rx="12.33" ry="21.36" transform="translate(-75.94 807.14) rotate(-30.36)"/><path class="cls-5" d="m1295.55,480.68l-160.69-92.78c-2.08-1.2-3.77-4.11-3.77-6.49h0c0-2.38,1.69-3.34,3.77-2.14l160.69,92.78c2.08,1.2,3.77,4.11,3.77,6.49h0c0,2.38-1.69,3.34-3.77,2.14Z"/><path class="cls-53" d="m1330.93,637.36l-81.14-46.85c-10.35-5.97-18.74-1.2-18.74,10.66h0c0,11.86,8.39,26.32,18.74,32.3l81.14,46.85c10.35,5.97,18.74,1.2,18.74-10.66h0c0-11.86-8.39-26.32-18.74-32.3Z"/><path class="cls-5" d="m1195.03,581.31l-61.53-35.52c-1.34-.77-2.42-2.64-2.42-4.17h0c0-1.53,1.08-2.15,2.42-1.38l61.53,35.52c1.34.77,2.42,2.64,2.42,4.17h0c0,1.53-1.08,2.15-2.42,1.38Z"/><path class="cls-5" d="m1264.7,377.97l-55.79-32.21c-1.34-.77-2.42-2.64-2.42-4.17h0c0-1.53,1.08-2.15,2.42-1.38l55.79,32.21c1.34.77,2.42,2.64,2.42,4.17h0c0,1.53-1.08,2.15-2.42,1.38Z"/><path class="cls-5" d="m1362.24,434.28l-55.79-32.21c-1.34-.77-2.42-2.64-2.42-4.17h0c0-1.53,1.08-2.15,2.42-1.38l55.79,32.21c1.34.77,2.42,2.64,2.42,4.17h0c0,1.53-1.08,2.15-2.42,1.38Z"/><path class="cls-8" d="m1362.24,448.87l-55.79-32.21c-1.34-.77-2.42-2.64-2.42-4.17v-3.71c0-1.53,1.08-2.15,2.42-1.38l55.79,32.21c1.34.77,2.42,2.64,2.42,4.17v3.71c0,1.53-1.08,2.15-2.42,1.38Z"/><path class="cls-5" d="m1534.62,533.81l-55.79-32.21c-1.34-.77-2.42-2.64-2.42-4.17h0c0-1.53,1.08-2.15,2.42-1.38l55.79,32.21c1.34.77,2.42,2.64,2.42,4.17h0c0,1.53-1.08,2.15-2.42,1.38Z"/><path class="cls-18" d="m1090.23,271.61l18.1-10.3c2.71-1.54,7.1.99,9.81,5.66l18.1,31.19c2.71,4.67,2.71,9.71,0,11.25l-18.1,10.3c-2.71,1.54-7.1-.99-9.81-5.66l-18.1-31.19c-2.71-4.67-2.71-9.71,0-11.25Z"/><path class="cls-33" d="m1546.48,1218.26l-424.27-244.95c-19.44-11.23-35.21-38.4-35.21-60.69v-299.21c0-22.29,15.76-31.26,35.21-20.03l424.27,244.95c19.44,11.23,35.21,38.4,35.21,60.69v299.21c0,22.29-15.76,31.26-35.21,20.03Z"/><path class="cls-37" d="m1494.72,1248.82l-424.27-244.95c-19.44-11.23-35.21-38.4-35.21-60.69v-299.21c0-22.29,15.76-31.26,35.21-20.03l424.27,244.95c19.44,11.23,35.21,38.4,35.21,60.69v299.21c0,22.29-15.76,31.26-35.21,20.03Z"/><path class="cls-33" d="m1222.87,1068.24l-112.27-64.82c-17.39-10.04-31.49-34.34-31.49-54.28h0c0-19.94,14.1-27.96,31.49-17.92l112.27,64.82c17.39,10.04,31.49,34.34,31.49,54.28h0c0,19.94-14.1,27.96-31.49,17.92Z"/><path class="cls-26" d="m1208.99,1073.48l-112.27-64.82c-17.39-10.04-31.49-34.34-31.49-54.28h0c0-19.94,14.1-27.96,31.49-17.92l112.27,64.82c17.39,10.04,31.49,34.34,31.49,54.28h0c0,19.94-14.1,27.96-31.49,17.92Z"/><line class="cls-14" x1="1085.37" y1="936.38" x2="1213.97" y2="1010.82"/><path class="cls-53" d="m1123.9,800.97l-22.68-13.1c-12.21-7.05-22.11-24.11-22.11-38.11h0c0-14,9.9-19.63,22.11-12.58l22.68,13.1c12.21,7.05,22.11,24.11,22.11,38.11h0c0,14-9.9,19.63-22.11,12.58Z"/><path class="cls-5" d="m1137.52,908.37l-55.79-32.21c-1.34-.77-2.42-2.64-2.42-4.17h0c0-1.53,1.08-2.15,2.42-1.38l55.79,32.21c1.34.77,2.42,2.64,2.42,4.17h0c0,1.53-1.08,2.15-2.42,1.38Z"/><path class="cls-5" d="m1179.17,906.04l-97.43-56.25c-1.34-.77-2.42-2.64-2.42-4.17h0c0-1.53,1.08-2.15,2.42-1.38l97.43,56.25c1.34.77,2.42,2.64,2.42,4.17h0c0,1.53-1.08,2.15-2.42,1.38Z"/><path class="cls-5" d="m1179.17,753.96l-97.43-56.25c-1.34-.77-2.42-2.64-2.42-4.17h0c0-1.53,1.08-2.15,2.42-1.38l97.43,56.25c1.34.77,2.42,2.64,2.42,4.17h0c0,1.53-1.08,2.15-2.42,1.38Z"/><ellipse class="cls-33" cx="1413.82" cy="980.21" rx="20.88" ry="36.17" transform="translate(-301.55 849.02) rotate(-30.36)"/><ellipse class="cls-27" cx="1403.63" cy="986.18" rx="20.88" ry="36.17" transform="translate(-305.96 844.69) rotate(-30.36)"/><g class="cls-44"><path class="cls-4" d="m1413.99,1059.7c-38.1-22-69.09-75.42-69.09-119.09,0-43.67,30.99-61.31,69.09-39.31s69.09,75.42,69.09,119.09c0,43.67-30.99,61.31-69.09,39.31Zm0-144.6c-31.46-18.16-57.05-3.6-57.05,32.46,0,36.06,25.59,80.17,57.05,98.33,31.46,18.16,57.05,3.6,57.05-32.46,0-36.06-25.59-80.17-57.05-98.33Z"/></g><g class="cls-22"><path class="cls-45" d="m1413.99,1059.7c-38.1-22-69.09-75.42-69.09-119.09,0-43.67,30.99-61.31,69.09-39.31,3.33,1.92,6.02,6.57,6.02,10.38s-2.7,5.35-6.02,3.43c-31.46-18.16-57.05-3.6-57.05,32.46,0,36.06,25.59,80.17,57.05,98.33,18.19,10.5,34.88,10.53,45.77.08,1.99-1.91,5.76-.36,8.43,3.46,2.67,3.82,3.22,8.46,1.23,10.37-12.99,12.47-33.71,12.44-55.42-.1Z"/></g><line class="cls-9" x1="1064.93" y1="621.74" x2="1496.97" y2="870.28"/><path class="cls-32" d="m1412.8,656.71l-260.44-150.37c-11.87-6.85-21.48-23.43-21.48-37.03h0c0-13.6,9.62-19.07,21.48-12.22l260.44,150.37c11.87,6.85,21.48,23.43,21.48,37.03h0c0,13.6-9.62,19.07-21.48,12.22Z"/><path class="cls-46" d="m1634.38,724.72h0c-2.69,1.55-4.87-.1-4.87-3.68v-66.26c0-3.58,2.18-7.74,4.87-9.3h0c2.69-1.55,4.87.1,4.87,3.68v66.26c0,3.58-2.18,7.74-4.87,9.3Zm4.87,88.32v-66.26c0-3.58-2.18-5.23-4.87-3.68h0c-2.69,1.55-4.87,5.71-4.87,9.3v66.26c0,3.58,2.18,5.23,4.87,3.68h0c2.69-1.55,4.87-5.71,4.87-9.3Zm0,64.12v-32.75c0-3.58-2.18-5.23-4.87-3.68h0c-2.69,1.55-4.87,5.71-4.87,9.3v32.75c0,3.58,2.18,5.23,4.87,3.68h0c2.69-1.55,4.87-5.71,4.87-9.3Z"/><path class="cls-32" d="m1536.29,1806.6l-407.25-235.13c-23.62-13.64-42.77-50.23-42.77-81.73v-31.77c0-31.5,19.15-45.97,42.77-32.34l407.25,235.13c23.62,13.64,42.77,50.23,42.77,81.73v31.77c0,31.5-19.15,45.97-42.77,32.34Z"/><ellipse class="cls-53" cx="1330.32" cy="1617.53" rx="28.45" ry="49.28" transform="translate(-635.12 894.22) rotate(-30.36)"/><path class="cls-6" d="m1249.88,1591.59l-9.7-5.6c-7.17-4.14-13.03-15.34-13.03-24.9v-6.25c0-9.56,5.86-13.99,13.03-9.85l9.7,5.6c7.17,4.14,13.03,15.34,13.03,24.9v6.25c0,9.56-5.86,13.99-13.03,9.85Z"/><path class="cls-6" d="m1188.76,1556.3l-48.1-27.77c-7.17-4.14-13.03-15.34-13.03-24.9v-6.25c0-9.56,5.86-13.99,13.03-9.85l48.1,27.77c7.17,4.14,13.03,15.34,13.03,24.9v6.25c0,9.56-5.86,13.99-13.03,9.85Z"/><path class="cls-6" d="m1411.24,1684.75l9.7,5.6c7.17,4.14,13.03-.3,13.03-9.85v-6.25c0-9.56-5.86-20.76-13.03-24.9l-9.7-5.6c-7.17-4.14-13.03.3-13.03,9.85v6.25c0,9.56,5.86,20.76,13.03,24.9Z"/><path class="cls-6" d="m1472.36,1720.03l48.1,27.77c7.17,4.14,13.03-.3,13.03-9.85v-6.25c0-9.56-5.86-20.76-13.03-24.9l-48.1-27.77c-7.17-4.14-13.03.3-13.03,9.85v6.25c0,9.56,5.86,20.76,13.03,24.9Z"/><line class="cls-13" x1="1126.44" y1="1424.78" x2="1542.95" y2="1665.89"/></g></g><g id="Woman"><g id="Woman-2"><polygon class="cls-1" points="1049.28 895.69 1049.28 914.62 1033.77 899.97 1033.77 878.5 1049.28 895.69"/><use width="269.17" height="74.14" transform="translate(789.4 1781.58) scale(.66 .45)" xlink:href="#shadowsvgdark"/><g id="WOMAN"><g id="Layer1_17_FILL"><path class="cls-43" d="m694.56,1527.79l23.76-5.78,6.52,20.5c-13.6,21.87-26.74,39.42-39.42,52.65-1.43,1.3-3.04,1.4-4.85.28-1.55-1.06-2.33-2.17-2.33-3.35.56-10.75,3.01-24.26,7.36-40.53,4.16-15.41,7.14-23.33,8.95-23.76Z"/></g><g id="Layer1_18_FILL"><path class="cls-23" d="m710.02,1523.78c90.72-23.9,143.86-31.04,159.44-21.43-75.21-57.76-123.89-121.87-146.02-192.33l132.6,45.1c34.46,41.82,60.59,94.06,78.37,156.73-24.57,33.57-96.2,47.73-214.88,42.49-4.91-2.36-8.23-7.36-9.97-15-1.49-6.71-1.34-11.9.47-15.56Z"/></g><g id="Layer1_18_FILL-2"><path class="cls-56" d="m710.02,1523.78c90.72-23.9,143.86-31.04,159.44-21.43-75.21-57.76-123.89-121.87-146.02-192.33l132.6,45.1c34.46,41.82,60.59,94.06,78.37,156.73-24.57,33.57-96.2,47.73-214.88,42.49-4.91-2.36-8.23-7.36-9.97-15-1.49-6.71-1.34-11.9.47-15.56Z"/></g><g id="Layer1_19_FILL"><path class="cls-25" d="m714.03,1330.52c.2,1.04.42,2.06.65,3.07.08.36.17.7.28,1.03.52,2.42,1.04,4.84,1.58,7.27.07,7.08-1.85,14.16-5.78,21.25l-6.34,12.95c-1.71,1.33-3.42,1.33-5.13,0l-6.34-7.08c-.61-1.89-.61-3.79,0-5.68l7.83-18.08c-.62-1.03-1.21-2.05-1.77-3.07-.09-.09-.16-.19-.19-.28-.09-.13-.15-.25-.19-.37l-2.14-3.54c.29.12.57.21.84.28,3.91.93,7.8,0,11.65-2.8,1.75-1.27,3.43-2.91,5.03-4.94Z"/><path class="cls-29" d="m758.76,1107.16v51.06c-26.06,20.51-50.75,45.11-74.08,73.8,10.55,27.06,20.33,59.89,29.35,98.49-1.6,2.03-3.28,3.67-5.03,4.94-3.85,2.8-7.73,3.73-11.65,2.8-.27-.07-.55-.16-.84-.28-29.7-50.47-48.12-91.75-55.26-123.84,45.78-65.24,84.95-100.9,117.5-106.97Z"/></g><g id="Layer1_20_FILL"><path class="cls-43" d="m769.75,1754.51l5.5-23.3,30.38,17.43c6.86,14.08,12.85,29.89,17.98,47.43.37,1.93-.37,3.39-2.24,4.38-1.68.87-3.01.99-4.01.37-9.07-5.84-19.54-14.72-31.4-26.65-11.31-11.31-16.71-17.86-16.21-19.66Z"/></g><g id="Layer1_21_FILL"><path class="cls-49" d="m767.24,1323.72l111.17,23.02c3.05,57.77,3.05,118.59,0,182.45-22.01,82.27-46.27,155.42-72.78,219.45-8.81,3.78-17.82,5.05-27.02,3.82-9.27-1.17-11.29-4.37-6.06-9.6l34.38-203.33c-23.25-83.79-36.48-155.73-39.7-215.81Z"/></g><g id="Layer1_21_FILL-2"><path class="cls-51" d="m767.24,1323.72l111.17,23.02c3.05,57.77,3.05,118.59,0,182.45-22.01,82.27-46.27,155.42-72.78,219.45-8.81,3.78-17.82,5.05-27.02,3.82-9.27-1.17-11.29-4.37-6.06-9.6l34.38-203.33c-23.25-83.79-36.48-155.73-39.7-215.81Z"/></g><g id="Layer1_22_FILL"><path class="cls-40" d="m733.51,1134.75h25.25l-23.67,43.52-14.54,13.98c1.18-27.12,5.5-46.28,12.95-57.49Z"/></g><g id="Layer1_23_FILL"><path class="cls-29" d="m733.51,1134.75c.43-21.93,12.92-30.78,37.46-26.56l75.85,25.9c30.19,38.7,43.73,66.13,40.63,82.28-3.17,15.97-6.18,46.81-9.04,92.53v37.83c2.04,11.69,2.32,17.9.84,18.64-1.53.72-8.49,1.94-20.87,3.63-12.45,1.71-37.95-2.08-76.5-11.37-38.62-9.29-60.05-21.56-64.3-36.81l31.59-57.87c-15.59-52.18-20.81-94.92-15.65-128.22Z"/></g><g id="Layer1_24_FILL"><path class="cls-25" d="m1045.26,911.65c.21-.33.4-.66.59-.97l-6.75,28.71c-.26,1.44-.5,2.88-.72,4.33l-.41,2.04c-.11.56-.2,1.12-.28,1.7l-.09-.03c-.3.18-.6.33-.88.45-2.84,1.07-5.92.85-9.26-.69-2.26-1.04-4.81-2.96-7.63-5.76-1.61-1.65-3.08-3.33-4.4-5.07l2.59-6.49c.05.07.09.12.14.16-.03-.08-.05-.19-.07-.33l2.8-7.01,6.54-29.2,6.05-15.14c1.91,2.15,1.99,5.55.23,10.23l-1.42,6.06c4.37-7.76,8.27-12.26,11.71-13.49,2.51,3.59,4.27,8.64,5.29,15.15-1.68,7.03-3.02,12.14-4.02,15.35Z"/><path class="cls-29" d="m1018.08,929.7c.02.14.04.25.07.33-.05-.04-.09-.09-.14-.16l.07-.17m1.74,11.73c2.83,2.8,5.37,4.72,7.63,5.76,3.33,1.53,6.42,1.76,9.26.69.29-.12.58-.27.88-.45-7.37,38.01-19.4,76.85-36.09,116.53-57.85,59.19-99.2,83.88-113.07,111.83l-1.35,29.51c-25.62.85-43.79-20.04-54.49-62.67l140.58-100.42,42.26-105.84c1.32,1.73,2.78,3.42,4.4,5.07Z"/></g><g id="HEAD_0_Layer0_0_MEMBER_0_MEMBER_0_FILL"><path class="cls-25" d="m772.17,1041.18c19.05-16.22,36.62-18.97,52.69-8.26,4.7,3.71,7.65,11.39,8.85,23.04l6.4,6.07c2.82,5.19,3.5,15.09,2.05,29.7-2.28,2.73-7.76,5.24-16.46,7.53,2.6,13.29,3.47,27.96,2.61,44.02l-34.17,4.29,1.48-47.37c-25.4-16.59-33.22-36.26-23.45-59.02Z"/></g><g id="HEAD_0_Layer0_0_MEMBER_0_MEMBER_1_FILL"><path class="cls-42" d="m821.08,1095.9c7.62.36,14.13-.52,19.53-2.65-2.89,2.16-7.86,4.16-14.91,6.02.03.16.07.28.13.37-1.79-.94-3.37-2.18-4.76-3.73Z"/></g><g id="HEAD_0_Layer0_1_FILL"><path class="cls-47" d="m836.29,1044.27c-1.1,1.72-2.9,1.19-5.4-1.58,1.75,5.13,1.5,9.17-.75,12.11-1.12.32-3.76,3.93-7.92,10.81l1.68,2.52c22,31.56,29.86,56.69,23.58,75.38-6.36,18.76-19.5,40.29-39.42,64.58,14.61,18.29,18.28,36.8,11,55.54-8.19,20.88-30.27,25.33-66.25,13.33-35.99-12.01-48.91-25.12-38.76-39.32,7.95-7.9,15.9-11.57,23.85-11-17.35-57.79-6.32-92.61,33.08-104.46,12.29-3.7,13.1-15.35,2.42-34.94-10.75-19.59-10.62-35.56.37-47.9,20.9-18.82,41.15-19.16,60.76-1.02,2.16,2.45,2.75,4.44,1.77,5.96Z"/></g><g id="HEAD_0_Layer0_1_FILL-2"><path class="cls-30" d="m836.29,1044.27c-1.1,1.72-2.9,1.19-5.4-1.58,1.75,5.13,1.5,9.17-.75,12.11-1.12.32-3.76,3.93-7.92,10.81l1.68,2.52c22,31.56,29.86,56.69,23.58,75.38-6.36,18.76-19.5,40.29-39.42,64.58,14.61,18.29,18.28,36.8,11,55.54-8.19,20.88-30.27,25.33-66.25,13.33-35.99-12.01-48.91-25.12-38.76-39.32,7.95-7.9,15.9-11.57,23.85-11-17.35-57.79-6.32-92.61,33.08-104.46,12.29-3.7,13.1-15.35,2.42-34.94-10.75-19.59-10.62-35.56.37-47.9,20.9-18.82,41.15-19.16,60.76-1.02,2.16,2.45,2.75,4.44,1.77,5.96Z"/></g><path id="Layer1_26_1_STROKES" class="cls-12" d="m694.56,1527.79c-7.12,30.07-10.56,52.81-10.34,68.21"/><path id="Layer1_27_1_STROKES" class="cls-12" d="m823.61,1796.07c.39,3.68-17.56-10.18-53.86-41.56"/><path id="Layer1_28_1_STROKES" class="cls-12" d="m705.92,1570.66l-9.32-6.62"/><path id="Layer1_29_1_STROKES" class="cls-12" d="m710.4,1565.34l-9.32-6.62"/><path id="Layer1_30_1_STROKES" class="cls-12" d="m814.67,1769.6l-7.45,4.01"/><path id="Layer1_31_1_STROKES" class="cls-12" d="m813.27,1763.64l-7.45,4.01"/></g><ellipse class="cls-2" cx="700.01" cy="1706.2" rx="39.55" ry="22.83" transform="translate(-10.72 4.44) rotate(-.36)"/></g></g><g id="BetaBadge"><g id="BETA"><g class="cls-28"><path class="cls-38" d="m599.37,472.46c13.73-7.98,32.75-6.86,53.74,5.26l193.97,111.99c41.71,24.08,75.41,82.46,75.28,130.38-.07,23.81-8.47,40.56-22.03,48.44l-20.39,11.85c13.56-7.88,21.96-24.63,22.03-48.44.14-47.93-33.57-106.3-75.28-130.38l-193.97-111.99c-20.99-12.12-40.01-13.24-53.74-5.26l20.39-11.85Z"/><path class="cls-35" d="m632.72,489.57c-41.71-24.08-75.63-4.75-75.77,43.18-.14,47.93,33.57,106.3,75.28,130.38l193.97,111.99c41.71,24.08,75.63,4.75,75.77-43.18.14-47.93-33.57-106.3-75.28-130.38l-193.97-111.99Z"/></g><path class="cls-4" d="m628.94,541.33l17.91,10.34c8.16,4.71,14.08,9.46,17.77,14.25,3.69,4.79,5.53,10.09,5.53,15.89,0,3.94-.81,6.71-2.42,8.3s-3.76,1.88-6.44.84v.45c3.65,3.04,6.28,6.3,7.89,9.79,1.61,3.49,2.42,7.35,2.42,11.59,0,6.02-1.9,9.61-5.69,10.79-3.79,1.18-8.94-.11-15.45-3.87l-21.53-12.43v-65.96Zm12.2,33.17l7.08,4.09c3.31,1.91,5.7,2.7,7.18,2.39,1.48-.32,2.22-1.83,2.22-4.54,0-2.53-.81-4.8-2.42-6.83-1.61-2.03-4.17-4.05-7.66-6.07l-6.42-3.7v14.66Zm0,11.1v17.19s7.95,4.59,7.95,4.59c3.36,1.94,5.84,2.63,7.44,2.08,1.6-.55,2.4-2.34,2.4-5.38,0-5.47-3.41-10.18-10.23-14.12l-7.56-4.36Z"/><path class="cls-4" d="m717.85,658.63l-33.14-19.13v-65.96s33.14,19.13,33.14,19.13v11.46s-20.94-12.09-20.94-12.09v14.48s19.48,11.25,19.48,11.25v11.46s-19.48-11.25-19.48-11.25v17.01s20.94,12.09,20.94,12.09v11.55Z"/><path class="cls-4" d="m757.13,681.3l-12.2-7.04v-54.32s-15.63-9.02-15.63-9.02v-11.64s43.45,25.09,43.45,25.09v11.64s-15.63-9.02-15.63-9.02v54.32Z"/><path class="cls-4" d="m816.84,715.78l-4.17-18.11-20.98-12.11-4.17,13.29-13.15-7.59,20.31-54.51,14.92,8.61,20.39,78.01-13.15-7.59Zm-7.08-31.52c-3.86-16.45-6.03-25.75-6.51-27.9-.49-2.15-.83-3.82-1.04-5.02-.87,3.35-3.35,11.44-7.44,24.27l15,8.66Z"/></g></g></svg>