<svg id="ARTWORK" xmlns="http://www.w3.org/2000/svg" xmlns:xlink="http://www.w3.org/1999/xlink" viewBox="0 0 2500 2500"><defs><style>.cls-1{fill:url(#Degradado_sin_nombre_20);}.cls-2{filter:url(#AI_DesenfoqueGaussiano_4);}.cls-3{fill:url(#Degradado_sin_nombre_27);}.cls-4,.cls-5{fill:#16292b;}.cls-4{opacity:0.16;}.cls-5{opacity:0.32;}.cls-6{fill:#e6eae9;}.cls-7{fill:#6ad8cf;}.cls-8{fill:#c2ebe8;}.cls-9{fill:url(#Nueva_muestra_de_degradado_45);}.cls-10{fill:#91e2db;}.cls-11{fill:url(#Degradado_sin_nombre_49);}.cls-12{fill:#273637;}.cls-13,.cls-24{fill:none;}.cls-13{stroke:#273637;stroke-miterlimit:10;stroke-opacity:0.31;}.cls-14{fill:#d9dddc;}.cls-15{fill:#c6cbcb;}.cls-16{fill:url(#Degradado_sin_nombre_39);}.cls-17{fill:#fafcfb;}.cls-18{fill:#f6f8f7;}.cls-19{fill:#a4a9a8;}.cls-20{fill:url(#Degradado_sin_nombre_9);}.cls-21{fill:url(#Degradado_sin_nombre_9-2);}.cls-22{fill:url(#Degradado_sin_nombre_9-3);}.cls-23{fill:url(#Degradado_sin_nombre_9-4);}.cls-24{stroke:#a4a9a8;stroke-linecap:round;stroke-linejoin:round;stroke-width:7px;}</style><radialGradient id="Degradado_sin_nombre_20" cx="493.75" cy="310.1" r="305.43" gradientTransform="matrix(0.99, -0.15, 0.05, 0.32, -9.59, 284.74)" gradientUnits="userSpaceOnUse"><stop offset="0" stop-color="#16292b" stop-opacity="0.4"/><stop offset="0.24" stop-color="#16292b" stop-opacity="0.26"/><stop offset="0.82" stop-color="#16292b" stop-opacity="0"/></radialGradient><filter id="AI_DesenfoqueGaussiano_4" name="AI_DesenfoqueGaussiano_4"><feGaussianBlur stdDeviation="4"/></filter><linearGradient id="Degradado_sin_nombre_27" x1="649.44" y1="441.15" x2="335.82" y2="268.88" gradientUnits="userSpaceOnUse"><stop offset="0" stop-color="#16292b" stop-opacity="0.3"/><stop offset="0.1" stop-color="#16292b" stop-opacity="0.26"/><stop offset="0.91" stop-color="#16292b" stop-opacity="0"/></linearGradient><linearGradient id="Nueva_muestra_de_degradado_45" x1="1179.2" y1="1183.73" x2="1130.84" y2="1282.72" gradientTransform="translate(200.44 -218.64) rotate(17.32)" gradientUnits="userSpaceOnUse"><stop offset="0" stop-color="#c2ebe8" stop-opacity="0.1"/><stop offset="0.05" stop-color="#8fe0d9" stop-opacity="0.1"/><stop offset="0.15" stop-color="#6ad8cf" stop-opacity="0.1"/><stop offset="0.87" stop-color="#43a39b" stop-opacity="0.3"/></linearGradient><radialGradient id="Degradado_sin_nombre_49" cx="963.65" cy="1472.97" r="559.8" gradientTransform="translate(0 -1170.06) scale(1 1.79)" gradientUnits="userSpaceOnUse"><stop offset="0.16" stop-color="#43a39b" stop-opacity="0.6"/><stop offset="0.6" stop-color="#6ad8cf" stop-opacity="0.1"/><stop offset="0.77" stop-color="#79dbd3" stop-opacity="0.08"/><stop offset="0.94" stop-color="#a7e5e0" stop-opacity="0.03"/><stop offset="1" stop-color="#c2ebe8" stop-opacity="0"/></radialGradient><linearGradient id="Degradado_sin_nombre_39" x1="1211.77" y1="1347.69" x2="1303.96" y2="1508.33" gradientUnits="userSpaceOnUse"><stop offset="0" stop-color="#fff" stop-opacity="0"/><stop offset="0.36" stop-color="#e6e9e9" stop-opacity="0.1"/><stop offset="0.67" stop-color="#98a4a6" stop-opacity="0.4"/><stop offset="0.96" stop-color="#173236" stop-opacity="0.92"/><stop offset="1" stop-color="#011f23"/></linearGradient><linearGradient id="Degradado_sin_nombre_9" x1="1558.46" y1="1564.79" x2="1564.98" y2="1553.15" gradientUnits="userSpaceOnUse"><stop offset="0" stop-color="#d9dddc" stop-opacity="0"/><stop offset="1" stop-color="#d9dddc"/></linearGradient><linearGradient id="Degradado_sin_nombre_9-2" x1="1452.1" y1="1612.47" x2="1443.25" y2="1597.57" xlink:href="#Degradado_sin_nombre_9"/><linearGradient id="Degradado_sin_nombre_9-3" x1="1427.47" y1="1796.92" x2="1413.97" y2="1820.66" xlink:href="#Degradado_sin_nombre_9"/><linearGradient id="Degradado_sin_nombre_9-4" x1="1533.32" y1="1751.91" x2="1540.77" y2="1764.95" xlink:href="#Degradado_sin_nombre_9"/><symbol id="shadow-elements" data-name="shadow-elements" viewBox="0 0 817.9 492.77"><rect class="cls-1" x="130.73" width="687.18" height="492.77"/><g class="cls-2"><path class="cls-3" d="M496.33,387.3,164.19,419s-159-27.14-96.3-115.41S392.38,50.12,515,108.43,580.22,359.61,496.33,387.3Z"/></g></symbol><symbol id="text-pop-box" data-name="text-pop-box" viewBox="0 0 294.47 181.76"><g class="cls-2"><path class="cls-4" d="M260.33,14.77H31A6.58,6.58,0,0,0,26.34,26L48.88,48.54V154.39A8.08,8.08,0,0,0,57,162.47H260.33a8.08,8.08,0,0,0,8.08-8.08V22.85A8.08,8.08,0,0,0,260.33,14.77Z"/></g><g class="cls-2"><path class="cls-5" d="M262.56,22.23H37.84a6.45,6.45,0,0,0-4.56,11L55.37,55.33V159A7.91,7.91,0,0,0,63.29,167H262.56a7.91,7.91,0,0,0,7.91-7.91V30.15A7.92,7.92,0,0,0,262.56,22.23Z"/></g><path class="cls-6" d="M260.33,14.77H31A6.58,6.58,0,0,0,26.34,26L48.88,48.54V154.39A8.08,8.08,0,0,0,57,162.47H260.33a8.08,8.08,0,0,0,8.08-8.08V22.85A8.08,8.08,0,0,0,260.33,14.77Z"/></symbol><symbol id="text-pop-box_2" data-name="text-pop-box 2" viewBox="0 0 293.53 181.76"><g class="cls-2"><path class="cls-4" d="M260.86,14.77H31.52A6.58,6.58,0,0,0,26.87,26L49.41,48.54V154.39a8.08,8.08,0,0,0,8.08,8.08H260.86a8.08,8.08,0,0,0,8.08-8.08V22.85A8.08,8.08,0,0,0,260.86,14.77Z"/></g><g class="cls-2"><path class="cls-5" d="M255.09,22.23H30.37a6.45,6.45,0,0,0-4.56,11L47.9,55.33V159A7.91,7.91,0,0,0,55.81,167H255.09A7.91,7.91,0,0,0,263,159V30.15A7.92,7.92,0,0,0,255.09,22.23Z"/></g><path class="cls-6" d="M260.86,14.77H31.52A6.58,6.58,0,0,0,26.87,26L49.41,48.54V154.39a8.08,8.08,0,0,0,8.08,8.08H260.86a8.08,8.08,0,0,0,8.08-8.08V22.85A8.08,8.08,0,0,0,260.86,14.77Z"/></symbol></defs><g id="Plant_4" data-name="Plant 4"><path class="cls-7" d="M769.73,821.54l-4.66-.95-15.76,77.14-7.84,61.81-3,64.52q0,1.71,0,15.09l1.39,33.83,4.44,42.56,9.74,51.81.16.45,7.87,29q4.71,15.73,10.28,30.63l10.55,25.85L805.62,1298l.28.39,4.93,8.52L843.49,1354,860,1373.7l25.91,26.9q1.68,1.74,7.41,7.07l26,22.28q4.7,3.79,5.28,4.18l22.47,16.52,5.63-7.35-26-22.07q-12.9-11.52-24.52-22.93l-14.37-14.6q-7.54-7.92-15.36-16.93l-3-3.36-.41-.64-.53-.57-24.4-30.78L833.37,1316l-23-37.83q-8.31-15.54-13.54-27l-12.17-28.48q-6-15.62-10.35-29.74l-7.87-27.65-.17-.45L762.05,1147l-6.15-33.18-6.57-62.66-1-33.49.1-1,1.76-55.61-.05-.82.14-.77,4.4-47.2Z"/><path class="cls-8" d="M963,1192.21q-50.91-3.39-83.75,60.9-32.78,64.44,19.38,186.05,116.85-67.65,117.62-152.33T963,1192.21Z"/><path class="cls-9" d="M963,1192.21q-50.91-3.39-83.75,60.9-32.78,64.44,19.38,186.05,116.85-67.65,117.62-152.33T963,1192.21Z"/><path class="cls-7" d="M962.73,1231.2l0,.21-7.33,59.84-10.21,43.46L934,1367.13l-4.36,10.08q-4.51,9.91-8.08,16.5l-10,17.42-.33.41-3,4.73-.3.31-.23.43-10.15,14-.3.31-6.86,8.69,9.34,7.36,6.64-9.26.23-.43.87-1.15,12.68-20.23,9.47-18.69q3.2-6.7,7.45-17.41l8.27-23.93L956.79,1306l5.57-54.21c0-.12.2-3.75.46-10.89l.25-9.53,0-.19Z"/><path class="cls-10" d="M734.91,1469.87q69.17,25.2,146.24,21.63,49.3-4.17,105.14-23.07-124.93-282.86-302.61-280.74T531.57,1316.61q10.73,38.52,43.12,69.71Q639.37,1449.08,734.91,1469.87Z"/><path class="cls-10" d="M990.22,904.56q-34.29-48.69-100.57-2.62-73.93,51.4-122.12,203.43,80-18.3,146.92-72.06Q1013,953.86,990.22,904.56Z"/><path class="cls-8" d="M645.45,720.76q-35.06,22.66-28.08,89.39,16.7,159,117.32,243.8-6.13-86.58-9.06-148.73T711.56,793.28Q685.06,695.14,645.45,720.76Z"/><path class="cls-8" d="M758.6,733l4,111.84q54.79-60,65.26-137.9t-31.55-63.66Q755.9,657,758.6,733Z"/><path class="cls-7" d="M666.23,1275.13l-.21.34L697.21,1288l.56.17,80.09,38.74,18.35,10.28,66.35,41.93q12.51,8.56,27.48,19.6l47.13,37.06q9.81,8.12,18.14,15.47l31.53,28.35,10.73-12-52.05-42.34-49.15-35.46q-15.86-10.82-28.59-18.63l-26.25-16.08-61.23-33-61.79-27.67c-.68-.21-1.67-.59-3-1.14l-49.14-18Z"/><path class="cls-7" d="M949.33,921.15l-35.54,28L851.05,1006l-40.91,42.59-20.24,22.73-34,42.52,3,16.53q7.27-19.74,37.33-53.83l54.2-62.52,19.37-20.27,41.66-39.82,38-32.36.15-.16-.22-.27Z"/><path class="cls-7" d="M661.06,813.45l10.85,73.91,3.22,16.58,9.92,41.54,18.92,57.1,18.21,39.27L739.89,1073l1.52-17.54-11.28-18a7.5,7.5,0,0,0-.89-1.39l-15-29-19.3-48.42L690.15,944l-16.91-65.17-11.91-65.64-.33.1Z"/><path class="cls-7" d="M794.14,684.87l1-2.62.15-.16-.34-.2-.06.18-6.86,16.48-4.77,16.93-16.53,94.2L758,855.41l6.91-4.63L783,733q1-8,2-13.85L789.34,699l4.54-13.56Z"/><path id="Dark_gradient" data-name="Dark gradient" class="cls-11" d="M997.57,1467.6l-18.42-15q-12.51-27.19-25.53-51.59,62-52.59,62.58-114.2.9-84.66-53.25-94.62-50.91-3.39-83.75,60.9a110.55,110.55,0,0,0-9.2,25.76q-42.91-46.92-90.3-69.71c-2-5.54-3.76-10.94-5.39-16.18l-7.87-27.65-.17-.45L762.05,1147,759,1130.28q4.06-11,15.25-26.54,76.14-19,140.24-70.43,98.53-79.45,75.77-128.75-34.29-48.69-100.57-2.62-71.4,49.63-118.78,193.13l-15,18.72-6.57-62.66-1-33.49.1-1,1.76-55.61-.05-.82.14-.77,4.4-47.2,11.94-72.06q51.09-58.38,61.2-133.29,10.45-77.89-31.55-63.66Q755.9,657,758.6,733l3.58,100.51L758,855.41h0l-8.65,42.33-7.84,61.81-3,64.52q0,1.71,0,15.09l.51,12.46-5-8q-5.58-79.95-8.33-138.35-2.88-62-14.07-111.94-26.5-98.14-66.11-72.52-35.06,22.66-28.08,89.39,15.72,149.77,106,233.71L739.89,1073l4.44,42.56,9.74,51.81.16.45,7.87,29c.55,1.84,1.12,3.66,1.69,5.48a211.74,211.74,0,0,0-80.11-14.55q-177.66,2.1-152.11,128.92,10.73,38.52,43.12,69.71,64.68,62.76,160.22,83.55,69.17,25.2,146.24,21.62,45.44-3.83,96.42-20.2l9.27,8.34Z"/></g><g id="Laptop"><use width="817.9" height="492.77" transform="translate(236.31 1045.43) scale(1.58)" xlink:href="#shadow-elements"/><g id="Shadow-laptop"><g id="shadow" class="cls-2"><path class="cls-12" d="M1877.93,1569.48c5.64,3.25,5.67,8.52.08,11.77L1300.78,1916.7c-5.58,3.24-14.68,3.24-20.31,0L881,1686.05c-5.62-3.25-5.65-8.52-.07-11.76l577.23-335.45c5.59-3.25,14.68-3.25,20.31,0Z"/></g><path class="cls-13" d="M1877.93,1569.48c5.64,3.25,5.67,8.52.08,11.77L1300.78,1916.7c-5.58,3.24-14.68,3.24-20.31,0L881,1686.05c-5.62-3.25-5.65-8.52-.07-11.76l577.23-335.45c5.59-3.25,14.68-3.25,20.31,0Z"/></g><g id="screen"><path class="cls-14" d="M1457.8,854.27c-1.85-1.08-4.42-.92-7.26.71l-581,335.44c-5.63,3.25-10.18,11.13-10.16,17.6l1.3,459c0,3.21,1.14,5.47,3,6.53l4.46,2.59c-1.83-1.06-3-3.32-3-6.53l-1.31-459c0-6.47,4.53-14.35,10.17-17.6l581-335.44c2.84-1.63,5.4-1.79,7.26-.71Z"/><path class="cls-15" d="M1455,857.57c5.64-3.25,10.21-.64,10.23,5.83l1.3,459c0,6.46-4.53,14.34-10.16,17.59l-581,335.44c-5.63,3.25-10.21.65-10.22-5.82l-1.31-459c0-6.47,4.53-14.35,10.17-17.6Z"/><path class="cls-16" d="M1455,857.57c5.64-3.25,10.21-.64,10.23,5.83l1.3,459c0,6.46-4.53,14.34-10.16,17.59l-581,335.44c-5.63,3.25-10.21.65-10.22-5.82l-1.31-459c0-6.47,4.53-14.35,10.17-17.6Z"/></g><path class="cls-14" d="M1877.77,1570.44l-577.23,335.45c-5.58,3.25-14.68,3.25-20.31,0L880.74,1675.24c-2.83-1.63-4.24-3.78-4.24-5.92l0,10.31c0,2.15,1.41,4.29,4.24,5.92L1280.2,1916.2c5.63,3.25,14.73,3.25,20.31,0l577.23-335.44c2.78-1.62,4.17-3.73,4.17-5.84l0-10.31C1881.94,1566.72,1880.55,1568.83,1877.77,1570.44Z"/><path class="cls-17" d="M1877.7,1558.68c5.63,3.25,5.66,8.52.07,11.76l-577.23,335.45c-5.58,3.25-14.68,3.25-20.31,0L880.74,1675.24c-5.62-3.24-5.65-8.51-.07-11.76L1457.9,1328c5.59-3.24,14.69-3.24,20.31,0Z"/><g class="cls-2"><path class="cls-14" d="M1618,1484.23q8.58,5,0,9.94l-448.2,260.46a16,16,0,0,1-17.16,0l-162.11-93.59q-8.56-4.95,0-9.94l448.19-260.47a16.07,16.07,0,0,1,17.16,0Z"/></g><path class="cls-17" d="M1877.7,1558.68,1478.21,1328c-5.62-3.24-14.72-3.24-20.31,0L880.67,1663.48c-5.58,3.25-5.55,8.52.07,11.76l399.49,230.65c5.63,3.25,14.73,3.25,20.31,0l577.23-335.45C1883.36,1567.2,1883.33,1561.93,1877.7,1558.68ZM1618,1494.17l-448.2,260.47a16.07,16.07,0,0,1-17.16,0l-162.11-93.59q-8.56-4.95,0-9.94l448.19-260.47a16.07,16.07,0,0,1,17.16,0L1618,1484.23Q1626.6,1489.2,1618,1494.17Z"/><path class="cls-17" d="M1719.32,1646.64q6,3.49,0,7l-273.7,159.06a11.23,11.23,0,0,1-12,0l-166.77-96.28q-6-3.5,0-7l273.7-159.06a11.24,11.24,0,0,1,12,0Z"/><path class="cls-14" d="M1462.22,1400.44v-2.58c0,.92-.79,1.83-2.36,2.75l-448.54,260.66a8.92,8.92,0,0,1-9.51,0l-8.1-4.68c-1.59-.92-2.39-1.84-2.39-2.76v2.57c0,.92.79,1.85,2.38,2.77l8.11,4.68a8.92,8.92,0,0,0,9.51,0l448.53-260.66C1461.43,1402.27,1462.22,1401.36,1462.22,1400.44Z"/><path class="cls-14" d="M1446.64,1439.44,1428.53,1429c-1.6-.92-2.39-1.84-2.39-2.76v2.57c0,.93.8,1.85,2.39,2.77l18.11,10.46a8.91,8.91,0,0,0,9.5,0l34.1-19.82c1.57-.92,2.36-1.83,2.36-2.74v-2.58c0,.92-.79,1.83-2.36,2.74l-34.1,19.82A8.91,8.91,0,0,1,1446.64,1439.44Z"/><path class="cls-14" d="M1473.32,1434.8v2.57c0,.92.79,1.85,2.39,2.77l18.11,10.45a8.88,8.88,0,0,0,9.51,0l18-10.46c1.57-.91,2.36-1.82,2.36-2.73v-2.58c0,.91-.79,1.82-2.36,2.74l-18,10.45a8.9,8.9,0,0,1-9.51,0l-18.11-10.46C1474.11,1436.64,1473.31,1435.72,1473.32,1434.8Z"/><path class="cls-14" d="M1442.41,1447.42l-18,10.45a8.86,8.86,0,0,1-9.5,0l-18.11-10.45c-1.6-.93-2.4-1.85-2.4-2.77v2.58c0,.92.79,1.84,2.39,2.76l18.11,10.46a8.86,8.86,0,0,0,9.5,0l18-10.46c1.57-.91,2.36-1.82,2.36-2.73v-2.58C1444.77,1445.59,1444,1446.5,1442.41,1447.42Z"/><path class="cls-14" d="M1491.94,1455.84v-2.57c0,.91-.79,1.82-2.35,2.73l-18,10.46a8.92,8.92,0,0,1-9.51,0L1444,1456c-1.6-.92-2.39-1.84-2.39-2.76v2.57c0,.93.79,1.85,2.39,2.77l18.11,10.46a8.92,8.92,0,0,0,9.51,0l18-10.46C1491.16,1457.67,1491.94,1456.76,1491.94,1455.84Z"/><path class="cls-14" d="M1501.69,1479.45,1483.58,1469c-1.6-.92-2.4-1.85-2.39-2.77v2.58c0,.92.8,1.85,2.4,2.77l18.11,10.46a8.91,8.91,0,0,0,9.5,0l41.2-24c1.57-.91,2.36-1.82,2.36-2.73v-2.58c0,.91-.79,1.82-2.37,2.74l-41.2,23.94A8.91,8.91,0,0,1,1501.69,1479.45Z"/><path class="cls-14" d="M1383.19,1476.31l-18.12-10.45c-1.59-.92-2.39-1.84-2.38-2.77v2.58c0,.92.79,1.84,2.39,2.77l18.11,10.45a8.9,8.9,0,0,0,9.51,0l18-10.46c1.57-.91,2.36-1.83,2.36-2.74v-2.58c0,.92-.79,1.83-2.36,2.74l-18,10.46A8.89,8.89,0,0,1,1383.19,1476.31Z"/><path class="cls-14" d="M1430.36,1487.47a8.9,8.9,0,0,0,9.51,0l18-10.46c1.57-.91,2.35-1.82,2.36-2.74v-2.57c0,.91-.78,1.82-2.35,2.73l-18,10.46a8.9,8.9,0,0,1-9.51,0l-18.11-10.45c-1.59-.93-2.39-1.85-2.39-2.77v2.58q0,1.38,2.4,2.76Z"/><path class="cls-14" d="M1479.46,1500.46l18-10.45c1.57-.92,2.36-1.83,2.36-2.74v-2.58c0,.91-.78,1.82-2.36,2.74l-18,10.45a8.86,8.86,0,0,1-9.5,0l-18.11-10.45c-1.6-.93-2.4-1.85-2.4-2.77v2.57c0,.93.79,1.85,2.39,2.78l18.11,10.45A8.86,8.86,0,0,0,1479.46,1500.46Z"/><path class="cls-14" d="M1516.29,1507l-18.11-10.45c-1.6-.92-2.4-1.84-2.39-2.77v2.58c0,.92.79,1.84,2.39,2.77l18.11,10.45a8.86,8.86,0,0,0,9.5,0l58.72-34.12c1.57-.92,2.36-1.83,2.36-2.74v-2.58c0,.91-.79,1.83-2.36,2.74L1525.79,1507A8.86,8.86,0,0,1,1516.29,1507Z"/><path class="cls-14" d="M1615.07,1491.09l-18,10.45a8.86,8.86,0,0,1-9.5,0l-18.11-10.45c-1.6-.93-2.4-1.85-2.4-2.77v2.57c0,.93.8,1.85,2.4,2.78l18.11,10.45a8.86,8.86,0,0,0,9.5,0l18-10.45c1.57-.92,2.36-1.83,2.36-2.74v-2.58C1617.43,1489.26,1616.64,1490.17,1615.07,1491.09Z"/><path class="cls-14" d="M1583.77,1509.28l-18,10.45a8.86,8.86,0,0,1-9.5,0l-9.06-5.22-9-5.23c-1.6-.93-2.4-1.85-2.4-2.77v2.57c0,.93.8,1.85,2.4,2.78l9,5.22,9.06,5.23a8.86,8.86,0,0,0,9.5,0l18-10.45c1.57-.92,2.36-1.83,2.36-2.74v-2.58C1586.13,1507.45,1585.34,1508.36,1583.77,1509.28Z"/><path class="cls-14" d="M1351.46,1494.75l-18.11-10.46c-1.6-.92-2.39-1.84-2.39-2.76v2.58c0,.92.8,1.84,2.39,2.76l18.12,10.46a8.89,8.89,0,0,0,9.49,0l18-10.46c1.57-.91,2.36-1.82,2.36-2.74v-2.57c0,.91-.79,1.82-2.37,2.73l-18,10.46A8.86,8.86,0,0,1,1351.46,1494.75Z"/><path class="cls-14" d="M1398.63,1503.33l-18.11-10.45c-1.6-.92-2.39-1.85-2.39-2.77v2.58c0,.92.79,1.84,2.38,2.77l18.11,10.45a8.9,8.9,0,0,0,9.51,0l18-10.46c1.56-.91,2.35-1.83,2.35-2.74v-2.58c0,.92-.79,1.83-2.36,2.74l-18,10.46A8.9,8.9,0,0,1,1398.63,1503.33Z"/><path class="cls-14" d="M1447.73,1518.9l18-10.46c1.57-.91,2.36-1.82,2.36-2.74v-2.57c0,.91-.79,1.82-2.36,2.73l-18,10.47a8.91,8.91,0,0,1-9.5,0l-18.11-10.46c-1.6-.92-2.4-1.85-2.4-2.77v2.58c0,.92.79,1.84,2.39,2.77l18.11,10.45A8.89,8.89,0,0,0,1447.73,1518.9Z"/><path class="cls-14" d="M1494.43,1527.76l18-10.46c1.57-.91,2.36-1.82,2.36-2.74V1512c0,.92-.79,1.83-2.36,2.74l-18,10.46a8.89,8.89,0,0,1-9.5,0l-18.11-10.45c-1.6-.92-2.39-1.85-2.39-2.77v2.58c0,.92.79,1.84,2.39,2.77l18.11,10.45A8.89,8.89,0,0,0,1494.43,1527.76Z"/><path class="cls-14" d="M1551.09,1528.27l-18,10.45a8.86,8.86,0,0,1-9.5,0l-18.11-10.45c-1.6-.93-2.4-1.85-2.4-2.77v2.57c0,.93.79,1.85,2.39,2.78l18.11,10.45a8.86,8.86,0,0,0,9.5,0l18-10.46c1.57-.91,2.35-1.82,2.36-2.73v-2.58C1553.45,1526.44,1552.66,1527.35,1551.09,1528.27Z"/><path class="cls-14" d="M1319.73,1513.19l-18.11-10.46c-1.6-.92-2.39-1.84-2.39-2.76v2.58c0,.92.8,1.84,2.39,2.76l18.11,10.46a8.9,8.9,0,0,0,9.51,0l18-10.45c1.58-.92,2.36-1.83,2.37-2.74V1500c0,.91-.79,1.82-2.36,2.74l-18,10.45A8.88,8.88,0,0,1,1319.73,1513.19Z"/><path class="cls-14" d="M1366.91,1521.77l-18.11-10.46c-1.6-.92-2.4-1.84-2.39-2.76v2.58c0,.92.79,1.84,2.39,2.76l18.11,10.46a8.9,8.9,0,0,0,9.51,0l18-10.45c1.57-.92,2.36-1.83,2.36-2.74v-2.58c0,.91-.79,1.83-2.36,2.74l-18,10.46A8.9,8.9,0,0,1,1366.91,1521.77Z"/><path class="cls-14" d="M1416,1537.34l18-10.46c1.57-.91,2.36-1.82,2.36-2.74v-2.57c0,.91-.79,1.82-2.36,2.73l-18,10.46a8.85,8.85,0,0,1-9.49,0l-18.11-10.46c-1.6-.92-2.4-1.84-2.4-2.77v2.58c0,.92.8,1.85,2.4,2.77l18.11,10.46A8.91,8.91,0,0,0,1416,1537.34Z"/><path class="cls-14" d="M1462.71,1546.2l18-10.46c1.57-.91,2.36-1.82,2.36-2.74v-2.57c0,.91-.79,1.82-2.36,2.73l-18,10.46a8.86,8.86,0,0,1-9.5,0l-18.11-10.46c-1.59-.92-2.39-1.84-2.39-2.76V1533q0,1.38,2.4,2.76l18.11,10.46A8.91,8.91,0,0,0,1462.71,1546.2Z"/><path class="cls-14" d="M1519.37,1546.7l-18,10.46a8.89,8.89,0,0,1-9.5,0l-18.11-10.45c-1.6-.92-2.4-1.85-2.4-2.77v2.57c0,.93.79,1.85,2.39,2.78l18.11,10.45a8.89,8.89,0,0,0,9.5,0l18-10.46c1.57-.91,2.36-1.82,2.36-2.74V1544C1521.73,1544.88,1520.94,1545.79,1519.37,1546.7Z"/><path class="cls-14" d="M1288,1531.63l-18.11-10.46q-2.4-1.38-2.4-2.76V1521c0,.92.79,1.84,2.39,2.77L1288,1534.2a8.86,8.86,0,0,0,9.5,0l18-10.45c1.58-.92,2.36-1.83,2.37-2.75v-2.58c0,.92-.79,1.83-2.36,2.75l-18,10.46A8.91,8.91,0,0,1,1288,1531.63Z"/><path class="cls-14" d="M1335.18,1540.21l-18.11-10.46c-1.6-.92-2.4-1.84-2.39-2.76v2.58c0,.92.79,1.84,2.39,2.76l18.11,10.46a8.92,8.92,0,0,0,9.51,0l18-10.46c1.57-.91,2.35-1.82,2.35-2.73V1527c0,.91-.79,1.82-2.35,2.73l-18,10.47A8.89,8.89,0,0,1,1335.18,1540.21Z"/><path class="cls-14" d="M1384.27,1555.78l18-10.46c1.57-.91,2.35-1.83,2.36-2.74V1540c0,.92-.79,1.83-2.36,2.74l-18,10.46a8.89,8.89,0,0,1-9.5,0l-18.11-10.45c-1.6-.93-2.39-1.85-2.39-2.78v2.58c0,.93.8,1.85,2.4,2.77l18.11,10.46A8.87,8.87,0,0,0,1384.27,1555.78Z"/><path class="cls-14" d="M1431,1564.63l18-10.45c1.57-.92,2.35-1.83,2.36-2.74v-2.58c0,.91-.79,1.83-2.36,2.74l-18,10.45a8.88,8.88,0,0,1-9.51,0l-18.11-10.46c-1.59-.92-2.39-1.84-2.39-2.76v2.58c0,.92.79,1.84,2.38,2.76l18.11,10.46A8.9,8.9,0,0,0,1431,1564.63Z"/><path class="cls-14" d="M1488.92,1564.4l-27.28,15.85a8.86,8.86,0,0,1-9.5,0L1434,1569.79c-1.6-.92-2.4-1.84-2.4-2.77v2.58c0,.92.79,1.85,2.39,2.77l18.12,10.46a8.89,8.89,0,0,0,9.49,0l27.28-15.85c1.57-.92,2.36-1.83,2.36-2.74v-2.58C1491.28,1562.57,1490.49,1563.49,1488.92,1564.4Z"/><path class="cls-14" d="M1256.28,1550.06l-18.11-10.46c-1.59-.92-2.39-1.84-2.39-2.76v2.58q0,1.38,2.4,2.76l18.11,10.46a8.91,8.91,0,0,0,9.5,0l18-10.46c1.57-.91,2.36-1.82,2.36-2.74v-2.57c0,.91-.79,1.82-2.36,2.73l-18,10.46A8.86,8.86,0,0,1,1256.28,1550.06Z"/><path class="cls-14" d="M1303.45,1558.65l-18.11-10.46c-1.59-.92-2.39-1.84-2.39-2.76V1548c0,.92.8,1.85,2.4,2.77l18.11,10.45a8.86,8.86,0,0,0,9.5,0l18-10.46c1.57-.91,2.35-1.82,2.35-2.73v-2.58c0,.91-.79,1.82-2.36,2.74l-18,10.45A8.9,8.9,0,0,1,1303.45,1558.65Z"/><path class="cls-14" d="M1352.55,1574.21l18-10.45c1.58-.91,2.36-1.83,2.37-2.74v-2.58c0,.92-.79,1.83-2.36,2.74l-18,10.46a8.91,8.91,0,0,1-9.5,0L1325,1561.18c-1.6-.92-2.4-1.85-2.4-2.77V1561c0,.92.79,1.84,2.39,2.77l18.11,10.45A8.86,8.86,0,0,0,1352.55,1574.21Z"/><path class="cls-14" d="M1399.25,1583.07l18-10.45c1.57-.92,2.36-1.83,2.36-2.74v-2.58c0,.91-.79,1.83-2.36,2.74l-18,10.46a8.91,8.91,0,0,1-9.5,0L1371.65,1570c-1.6-.92-2.4-1.84-2.39-2.76v2.57c0,.92.79,1.85,2.39,2.77l18.11,10.45A8.86,8.86,0,0,0,1399.25,1583.07Z"/><path class="cls-14" d="M1224.55,1568.5l-18.11-10.45c-1.6-.93-2.39-1.85-2.39-2.77v2.58c0,.92.8,1.84,2.39,2.76l18.11,10.46a8.86,8.86,0,0,0,9.5,0l18-10.46c1.57-.91,2.36-1.83,2.36-2.74v-2.58c0,.92-.79,1.83-2.37,2.75l-18,10.45A8.86,8.86,0,0,1,1224.55,1568.5Z"/><path class="cls-14" d="M1271.72,1577.09l-18.11-10.46c-1.6-.92-2.39-1.84-2.39-2.76v2.58c0,.92.79,1.84,2.38,2.76l18.11,10.45a8.9,8.9,0,0,0,9.52,0l18-10.45c1.57-.91,2.36-1.83,2.36-2.74v-2.58c0,.92-.79,1.83-2.36,2.74l-18,10.46A8.94,8.94,0,0,1,1271.72,1577.09Z"/><path class="cls-14" d="M1320.82,1592.66l18-10.47c1.57-.91,2.36-1.82,2.36-2.73v-2.58c0,.91-.79,1.82-2.36,2.74l-18,10.46a8.91,8.91,0,0,1-9.5,0l-18.11-10.46c-1.6-.92-2.4-1.85-2.4-2.77v2.58c0,.92.79,1.85,2.39,2.77l18.11,10.46A8.91,8.91,0,0,0,1320.82,1592.66Z"/><path class="cls-14" d="M1367.53,1601.51l18-10.46c1.57-.91,2.36-1.82,2.36-2.73v-2.58c0,.91-.79,1.82-2.36,2.73l-18,10.46a8.89,8.89,0,0,1-9.5,0l-18.11-10.46c-1.6-.92-2.39-1.84-2.39-2.76v2.58c0,.92.79,1.84,2.39,2.76l18.11,10.45A8.9,8.9,0,0,0,1367.53,1601.51Z"/><path class="cls-14" d="M1192.83,1586.94l-18.11-10.46c-1.6-.92-2.4-1.84-2.39-2.76v2.57c0,.93.79,1.85,2.39,2.77l18.11,10.45a8.86,8.86,0,0,0,9.5,0l18-10.45c1.57-.91,2.36-1.83,2.36-2.74v-2.58c0,.92-.79,1.83-2.36,2.74l-18,10.46A8.91,8.91,0,0,1,1192.83,1586.94Z"/><path class="cls-14" d="M1240,1595.52l-18.11-10.45c-1.6-.93-2.4-1.85-2.4-2.77v2.58c0,.92.79,1.84,2.39,2.76L1240,1598.1a8.9,8.9,0,0,0,9.51,0l18-10.46c1.57-.91,2.36-1.82,2.36-2.74v-2.57c0,.91-.79,1.82-2.36,2.73l-18,10.46A8.9,8.9,0,0,1,1240,1595.52Z"/><path class="cls-14" d="M1289.1,1611.09l18-10.46c1.57-.91,2.36-1.82,2.36-2.73v-2.58c0,.91-.79,1.82-2.36,2.74l-18,10.45a8.86,8.86,0,0,1-9.5,0l-18.11-10.45c-1.6-.93-2.4-1.85-2.39-2.77v2.57c0,.93.8,1.85,2.4,2.78l18.11,10.45A8.86,8.86,0,0,0,1289.1,1611.09Z"/><path class="cls-14" d="M1335.79,1620l18-10.46c1.57-.91,2.36-1.83,2.36-2.74v-2.58c0,.92-.79,1.83-2.37,2.75l-18,10.45a8.86,8.86,0,0,1-9.5,0l-18.11-10.45c-1.6-.93-2.39-1.85-2.39-2.77v2.58q0,1.38,2.4,2.76L1326.3,1620A8.85,8.85,0,0,0,1335.79,1620Z"/><path class="cls-14" d="M1161.1,1605.38,1143,1594.92c-1.6-.92-2.4-1.84-2.39-2.76v2.58c0,.92.79,1.84,2.39,2.76l18.11,10.46a8.91,8.91,0,0,0,9.5,0l18-10.47c1.57-.91,2.35-1.82,2.36-2.73v-2.58c0,.91-.79,1.82-2.35,2.74l-18,10.46A8.89,8.89,0,0,1,1161.1,1605.38Z"/><path class="cls-14" d="M1208.27,1614l-18.11-10.46c-1.59-.92-2.39-1.84-2.39-2.76v2.57c0,.93.8,1.85,2.4,2.77l18.11,10.46a8.9,8.9,0,0,0,9.51,0l18-10.46c1.57-.91,2.35-1.82,2.36-2.73v-2.58c0,.91-.78,1.83-2.35,2.74l-18,10.45A8.9,8.9,0,0,1,1208.27,1614Z"/><path class="cls-14" d="M1257.37,1629.53l18-10.46c1.57-.91,2.36-1.83,2.36-2.74v-2.58c0,.92-.79,1.83-2.37,2.74l-18,10.46a8.9,8.9,0,0,1-9.51,0l-18.11-10.45c-1.6-.92-2.39-1.85-2.39-2.77v2.58c0,.92.8,1.84,2.39,2.77l18.11,10.45A8.9,8.9,0,0,0,1257.37,1629.53Z"/><path class="cls-14" d="M1304.07,1638.39l18-10.46c1.58-.91,2.36-1.83,2.37-2.74v-2.58c0,.92-.79,1.83-2.36,2.74l-18,10.46a8.92,8.92,0,0,1-9.51,0l-18.11-10.45c-1.59-.93-2.39-1.85-2.38-2.77v2.58c0,.92.79,1.84,2.38,2.77l18.11,10.45A8.92,8.92,0,0,0,1304.07,1638.39Z"/><path class="cls-14" d="M1129.37,1623.81l-18.11-10.45c-1.6-.92-2.39-1.85-2.39-2.77v2.58c0,.92.8,1.84,2.39,2.77l18.12,10.45a8.85,8.85,0,0,0,9.49,0l18-10.45c1.57-.92,2.36-1.83,2.36-2.74v-2.58c0,.91-.79,1.82-2.37,2.74l-18,10.45A8.86,8.86,0,0,1,1129.37,1623.81Z"/><path class="cls-14" d="M1176.54,1632.4l-18.11-10.46c-1.6-.92-2.39-1.84-2.39-2.76v2.58c0,.92.8,1.84,2.39,2.76l18.11,10.46a8.9,8.9,0,0,0,9.51,0l18-10.45c1.57-.92,2.36-1.83,2.36-2.75v-2.58c0,.92-.79,1.83-2.37,2.75l-18,10.45A8.9,8.9,0,0,1,1176.54,1632.4Z"/><path class="cls-14" d="M1225.64,1648l18-10.46c1.58-.91,2.36-1.82,2.36-2.74v-2.57c0,.91-.79,1.82-2.36,2.73l-18,10.46a8.86,8.86,0,0,1-9.5,0L1198,1634.93c-1.6-.92-2.4-1.84-2.4-2.77v2.58c0,.92.8,1.85,2.4,2.77l18.11,10.46A8.91,8.91,0,0,0,1225.64,1648Z"/><path class="cls-14" d="M1272.34,1656.83l18-10.46c1.58-.91,2.37-1.83,2.37-2.74v-2.58c0,.91-.8,1.83-2.37,2.74l-18,10.46a8.91,8.91,0,0,1-9.5,0l-18.11-10.46q-2.4-1.38-2.4-2.76v2.58c0,.92.79,1.84,2.39,2.76l18.11,10.46A8.91,8.91,0,0,0,1272.34,1656.83Z"/><path class="cls-14" d="M1448.62,1587.82l-145.19,84.37a8.86,8.86,0,0,1-9.5,0l-18.11-10.45c-1.6-.93-2.4-1.85-2.4-2.77v2.57c0,.93.8,1.85,2.4,2.78l18.11,10.45a8.86,8.86,0,0,0,9.5,0l145.2-84.38c1.56-.91,2.35-1.82,2.35-2.73v-2.58C1451,1586,1450.19,1586.9,1448.62,1587.82Z"/><path class="cls-14" d="M1097.64,1642.25l-18.11-10.45c-1.6-.92-2.39-1.84-2.39-2.77v2.58c0,.92.8,1.84,2.39,2.77l18.11,10.45a8.89,8.89,0,0,0,9.5,0l18-10.46c1.57-.91,2.36-1.82,2.36-2.74v-2.57c0,.91-.79,1.82-2.36,2.73l-18,10.46A8.89,8.89,0,0,1,1097.64,1642.25Z"/><path class="cls-14" d="M1144.82,1650.83l-18.11-10.45c-1.6-.92-2.4-1.85-2.39-2.77v2.58c0,.92.79,1.84,2.39,2.77l18.11,10.45a8.9,8.9,0,0,0,9.51,0l18-10.46c1.57-.91,2.36-1.82,2.36-2.73v-2.58c0,.91-.79,1.82-2.36,2.73l-18,10.46A8.88,8.88,0,0,1,1144.82,1650.83Z"/><path class="cls-14" d="M1166.3,1656l18.11,10.46a8.9,8.9,0,0,0,9.51,0l18-10.45c1.57-.92,2.36-1.83,2.36-2.74v-2.58c0,.91-.79,1.83-2.36,2.74l-18,10.46a8.9,8.9,0,0,1-9.51,0l-18.11-10.46c-1.6-.92-2.4-1.84-2.4-2.77v2.58C1163.9,1654.11,1164.7,1655,1166.3,1656Z"/><path class="cls-14" d="M1240.62,1675.26l18-10.45c1.57-.92,2.36-1.83,2.36-2.74v-2.58c0,.91-.79,1.82-2.36,2.74l-18,10.45a8.86,8.86,0,0,1-9.5,0L1213,1662.23c-1.59-.92-2.39-1.85-2.39-2.77V1662c0,.92.8,1.84,2.4,2.77l18.11,10.45A8.86,8.86,0,0,0,1240.62,1675.26Z"/><path class="cls-14" d="M1065.92,1660.69l-18.11-10.46q-2.4-1.38-2.4-2.76v2.58c0,.92.79,1.84,2.39,2.76l18.11,10.46a8.91,8.91,0,0,0,9.5,0l18-10.46c1.57-.91,2.36-1.82,2.36-2.74v-2.57c0,.91-.79,1.82-2.36,2.73l-18,10.46A8.86,8.86,0,0,1,1065.92,1660.69Z"/><path class="cls-14" d="M1095,1661.4l18.11,10.45a8.9,8.9,0,0,0,9.51,0l18-10.46c1.57-.91,2.36-1.83,2.36-2.74v-2.58c0,.92-.79,1.83-2.36,2.74l-18,10.46a8.92,8.92,0,0,1-9.51,0L1095,1658.82c-1.6-.92-2.4-1.84-2.39-2.77v2.58C1092.58,1659.55,1093.37,1660.47,1095,1661.4Z"/><path class="cls-14" d="M1134.58,1674.39l18.11,10.45a8.85,8.85,0,0,0,9.49,0l18-10.45c1.57-.92,2.36-1.83,2.36-2.75v-2.57c0,.91-.79,1.83-2.37,2.74l-18,10.46a8.91,8.91,0,0,1-9.5,0l-18.11-10.46c-1.6-.92-2.4-1.85-2.39-2.77v2.58C1132.18,1672.54,1133,1673.46,1134.58,1674.39Z"/><path class="cls-14" d="M1181.27,1683.25l18.11,10.45a8.89,8.89,0,0,0,9.5,0l18-10.45c1.57-.92,2.36-1.83,2.36-2.75v-2.58c0,.92-.79,1.83-2.37,2.75l-18,10.46a8.91,8.91,0,0,1-9.5,0l-18.11-10.46c-1.6-.92-2.39-1.84-2.39-2.77v2.58C1178.88,1681.4,1179.68,1682.33,1181.27,1683.25Z"/><path class="cls-14" d="M1290.46,1679.73l-27.28,15.85a8.86,8.86,0,0,1-9.5,0l-18.11-10.45c-1.6-.93-2.4-1.85-2.4-2.77v2.57c0,.93.79,1.85,2.39,2.78l18.11,10.45a8.86,8.86,0,0,0,9.5,0l27.28-15.85c1.57-.91,2.36-1.83,2.36-2.74V1677C1292.82,1677.91,1292,1678.82,1290.46,1679.73Z"/><path class="cls-14" d="M1064,1668.51v-2.58c0,.92-.79,1.83-2.35,2.74l-18,10.46a8.9,8.9,0,0,1-9.51,0l-18.11-10.45c-1.59-.93-2.39-1.85-2.38-2.77v2.58c0,.92.79,1.84,2.39,2.76l18.11,10.46a8.9,8.9,0,0,0,9.51,0l18-10.45C1063.25,1670.34,1064,1669.42,1064,1668.51Z"/><path class="cls-14" d="M1111.21,1677.1v-2.58c0,.92-.79,1.83-2.36,2.74l-34.08,19.81a8.9,8.9,0,0,1-9.52,0l-18.11-10.46c-1.6-.92-2.39-1.84-2.39-2.76v2.58c0,.92.79,1.84,2.39,2.76l18.11,10.46a8.94,8.94,0,0,0,9.52,0l34.09-19.81C1110.43,1678.93,1111.21,1678,1111.21,1677.1Z"/><path class="cls-14" d="M1151.29,1689.81v-2.58c0,.92-.79,1.83-2.37,2.74l-43.08,25a8.9,8.9,0,0,1-9.51,0l-18.11-10.46c-1.6-.92-2.4-1.85-2.39-2.77v2.58c0,.92.79,1.85,2.39,2.77l18.11,10.45a8.9,8.9,0,0,0,9.51,0l43.09-25C1150.5,1691.64,1151.29,1690.72,1151.29,1689.81Z"/><path class="cls-14" d="M1198,1698.67v-2.58c0,.91-.79,1.83-2.36,2.74L1136.92,1733a8.9,8.9,0,0,1-9.51,0l-18.11-10.46c-1.59-.92-2.39-1.84-2.39-2.76v2.57c0,.93.79,1.85,2.38,2.77l18.11,10.45a8.9,8.9,0,0,0,9.51,0l58.71-34.12C1197.2,1700.49,1198,1699.58,1198,1698.67Z"/><path class="cls-14" d="M1249.45,1703.56l-18,10.46a8.89,8.89,0,0,1-9.5,0l-18.11-10.45c-1.6-.92-2.4-1.85-2.4-2.77v2.57c0,.93.79,1.85,2.39,2.78l18.11,10.45a8.89,8.89,0,0,0,9.5,0l18-10.46c1.57-.91,2.36-1.82,2.36-2.74v-2.57C1251.81,1701.74,1251,1702.65,1249.45,1703.56Z"/><path class="cls-14" d="M1217.72,1722l-18,10.46a8.85,8.85,0,0,1-9.49,0L1172.12,1722c-1.6-.92-2.4-1.84-2.4-2.77v2.58c0,.92.8,1.85,2.4,2.77l18.11,10.46a8.91,8.91,0,0,0,9.5,0l18-10.46c1.57-.91,2.36-1.82,2.36-2.74v-2.57C1220.08,1720.18,1219.29,1721.09,1217.72,1722Z"/><path class="cls-14" d="M1186,1740.44l-18,10.46a8.9,8.9,0,0,1-9.51,0l-18.11-10.45c-1.59-.93-2.39-1.85-2.39-2.78v2.58c0,.93.8,1.85,2.4,2.77l18.11,10.46a8.89,8.89,0,0,0,9.5,0l18-10.45c1.57-.91,2.35-1.83,2.36-2.74v-2.58C1188.35,1738.62,1187.56,1739.53,1186,1740.44Z"/><path class="cls-17" d="M1459.84,1395.1c3.18,1.84,3.18,3.67,0,5.51l-448.54,260.66a8.92,8.92,0,0,1-9.51,0l-8.1-4.68q-4.76-2.76,0-5.5l448.53-260.66a8.88,8.88,0,0,1,9.51,0Zm12.26,8.56a8.91,8.91,0,0,0-9.5,0l-34.1,19.82c-3.15,1.83-3.15,3.67,0,5.5l18.11,10.46a8.91,8.91,0,0,0,9.5,0l34.1-19.82q4.74-2.76,0-5.5Zm31.07,17.94a8.91,8.91,0,0,0-9.5,0l-18,10.46q-4.74,2.75,0,5.5l18.11,10.46a8.9,8.9,0,0,0,9.51,0l18-10.45q4.74-2.76,0-5.51Zm-78.9,9.86a8.86,8.86,0,0,0-9.5,0l-18,10.45q-4.74,2.76,0,5.51l18.11,10.45a8.86,8.86,0,0,0,9.5,0l18-10.45q4.74-2.76,0-5.51Zm47.18,8.58a8.89,8.89,0,0,0-9.5,0l-18,10.46c-3.15,1.83-3.15,3.67,0,5.5l18.11,10.46a8.92,8.92,0,0,0,9.51,0l18-10.46q4.73-2.74,0-5.51Zm62.8-.49a8.9,8.9,0,0,0-9.51,0l-41.2,24q-4.74,2.74,0,5.5l18.11,10.46a8.91,8.91,0,0,0,9.5,0l41.2-23.94q4.74-2.76,0-5.51Zm-141.7,10.34a8.91,8.91,0,0,0-9.5,0l-18,10.46q-4.74,2.76,0,5.51l18.12,10.45a8.89,8.89,0,0,0,9.5,0l18-10.46q4.74-2.74,0-5.5Zm47.16,8.59a8.85,8.85,0,0,0-9.49,0l-18,10.45q-4.74,2.76,0,5.51l18.11,10.45a8.9,8.9,0,0,0,9.51,0l18-10.46c3.16-1.83,3.13-3.67,0-5.51Zm39.61,13a8.9,8.9,0,0,0-9.51,0l-18,10.46q-4.74,2.76,0,5.51l18.11,10.45a8.86,8.86,0,0,0,9.5,0l18-10.45q4.74-2.76,0-5.5Zm87-14.59a8.91,8.91,0,0,0-9.5,0L1498.15,1491q-4.74,2.74,0,5.5l18.11,10.45a8.86,8.86,0,0,0,9.5,0l58.72-34.12q4.74-2.76,0-5.5Zm30.56,18.25a8.9,8.9,0,0,0-9.51,0l-18,10.46q-4.74,2.76,0,5.51l18.11,10.45a8.86,8.86,0,0,0,9.5,0l18-10.45q4.74-2.76,0-5.5Zm-22.25,23.42-9-5.23a8.9,8.9,0,0,0-9.51,0l-18,10.46q-4.74,2.76,0,5.51l9,5.23,9.06,5.22a8.86,8.86,0,0,0,9.5,0l18-10.45q4.74-2.76,0-5.5Zm-213.87-30.22a8.91,8.91,0,0,0-9.5,0l-18,10.46q-4.74,2.76,0,5.5l18.11,10.46a8.86,8.86,0,0,0,9.5,0l18-10.46q4.74-2.74,0-5.5Zm47.18,8.58a8.91,8.91,0,0,0-9.5,0l-18,10.47c-3.15,1.83-3.15,3.66,0,5.5l18.11,10.45a8.9,8.9,0,0,0,9.51,0l18-10.46q4.72-2.75,0-5.51Zm39.61,13a8.9,8.9,0,0,0-9.51,0l-18,10.46q-4.72,2.75,0,5.51l18.11,10.46a8.91,8.91,0,0,0,9.5,0l18-10.47c3.15-1.83,3.15-3.66,0-5.5Zm46.7,8.85a8.91,8.91,0,0,0-9.5,0l-18,10.47c-3.15,1.83-3.15,3.66,0,5.5l18.11,10.45a8.89,8.89,0,0,0,9.5,0l18-10.46c3.15-1.83,3.15-3.66,0-5.5Zm38.65,13.55a8.9,8.9,0,0,0-9.51,0l-18,10.46q-4.74,2.76,0,5.51l18.11,10.45a8.86,8.86,0,0,0,9.5,0l18-10.45q4.74-2.76,0-5.5Zm-203.86-25.54a8.86,8.86,0,0,0-9.5,0l-18,10.46q-4.74,2.74,0,5.5l18.11,10.46a8.88,8.88,0,0,0,9.51,0l18-10.45q4.74-2.76,0-5.5Zm47.17,8.59a8.86,8.86,0,0,0-9.5,0l-18,10.45q-4.74,2.76,0,5.5l18.11,10.46a8.9,8.9,0,0,0,9.51,0l18-10.46q4.74-2.76,0-5.51Zm39.61,13a8.88,8.88,0,0,0-9.51,0l-18,10.46q-4.72,2.75.05,5.5l18.11,10.46a8.85,8.85,0,0,0,9.49,0l18-10.46q4.74-2.74,0-5.5Zm46.69,8.86a8.85,8.85,0,0,0-9.49,0l-18,10.45q-4.74,2.76,0,5.5l18.11,10.46a8.86,8.86,0,0,0,9.5,0l18-10.46q4.72-2.75,0-5.5Zm38.67,13.53a8.92,8.92,0,0,0-9.51,0l-18,10.46q-4.73,2.74,0,5.51l18.11,10.45a8.89,8.89,0,0,0,9.5,0l18-10.46c3.15-1.83,3.15-3.66,0-5.5Zm-203.86-25.53a8.9,8.9,0,0,0-9.51,0l-18,10.46q-4.74,2.74,0,5.5l18.11,10.46a8.91,8.91,0,0,0,9.5,0l18-10.46q4.74-2.76,0-5.51Zm47.17,8.58a8.89,8.89,0,0,0-9.5,0l-18,10.46c-3.14,1.83-3.14,3.67,0,5.5l18.11,10.46a8.89,8.89,0,0,0,9.5,0l18-10.47q4.72-2.74,0-5.5Zm39.6,13a8.92,8.92,0,0,0-9.51,0l-18,10.46q-4.73,2.74,0,5.51l18.11,10.45a8.89,8.89,0,0,0,9.5,0l18-10.46c3.15-1.83,3.15-3.67,0-5.5Zm46.7,8.86a8.86,8.86,0,0,0-9.5,0l-18,10.46q-4.74,2.75,0,5.5l18.11,10.46a8.88,8.88,0,0,0,9.51,0l18-10.45q4.74-2.76,0-5.5Zm39.94,12.8a8.9,8.9,0,0,0-9.51,0L1434,1564.29q-4.74,2.74,0,5.5l18.11,10.46a8.86,8.86,0,0,0,9.5,0l27.28-15.85c3.15-1.83,3.15-3.67,0-5.5Zm-205.15-24.79a8.85,8.85,0,0,0-9.49,0l-18,10.45q-4.74,2.76,0,5.5l18.11,10.46a8.86,8.86,0,0,0,9.5,0l18-10.46q4.73-2.74,0-5.5Zm47.17,8.58a8.91,8.91,0,0,0-9.5,0l-18,10.46q-4.74,2.74,0,5.5l18.11,10.46a8.9,8.9,0,0,0,9.51,0l18-10.45q4.74-2.76,0-5.51Zm39.61,13a8.9,8.9,0,0,0-9.51,0l-18,10.45q-4.74,2.76,0,5.51l18.11,10.46a8.91,8.91,0,0,0,9.5,0l18-10.46q4.74-2.76,0-5.5Zm46.7,8.86a8.91,8.91,0,0,0-9.5,0l-18,10.46q-4.74,2.74,0,5.5l18.11,10.46a8.91,8.91,0,0,0,9.5,0l18-10.46q4.74-2.76,0-5.5Zm-165.2-12a8.9,8.9,0,0,0-9.51,0l-18,10.45q-4.74,2.76,0,5.51l18.11,10.45a8.86,8.86,0,0,0,9.5,0l18-10.45q4.74-2.76,0-5.51Zm47.17,8.59a8.86,8.86,0,0,0-9.5,0l-18,10.45q-4.74,2.76,0,5.51l18.11,10.46a8.94,8.94,0,0,0,9.52,0l18-10.46q4.74-2.76,0-5.51Zm39.61,13a8.9,8.9,0,0,0-9.51,0l-18,10.46c-3.15,1.83-3.14,3.68,0,5.51l18.11,10.46a8.91,8.91,0,0,0,9.5,0l18-10.46c3.15-1.83,3.15-3.67,0-5.51Zm46.7,8.86a8.86,8.86,0,0,0-9.5,0l-18,10.45c-3.15,1.84-3.15,3.68,0,5.51l18.11,10.46a8.89,8.89,0,0,0,9.5,0l18-10.45q4.74-2.76,0-5.51Zm-165.21-12a8.91,8.91,0,0,0-9.5,0l-18,10.46q-4.74,2.76,0,5.5l18.11,10.46a8.91,8.91,0,0,0,9.5,0l18-10.46q4.74-2.74,0-5.5Zm47.17,8.59a8.86,8.86,0,0,0-9.5,0l-18,10.45q-4.74,2.76,0,5.51l18.11,10.45a8.9,8.9,0,0,0,9.51,0l18-10.46q4.74-2.74,0-5.51Zm39.6,13a8.89,8.89,0,0,0-9.5,0l-18,10.46q-4.74,2.76,0,5.51l18.11,10.45a8.86,8.86,0,0,0,9.5,0l18-10.45q4.74-2.76,0-5.5Zm46.71,8.85a8.9,8.9,0,0,0-9.51,0l-18,10.45q-4.74,2.76,0,5.51l18.11,10.45a8.86,8.86,0,0,0,9.5,0l18-10.45q4.74-2.76,0-5.51Zm-165.2-12a8.89,8.89,0,0,0-9.5,0l-18,10.46q-4.73,2.74,0,5.5l18.11,10.46a8.89,8.89,0,0,0,9.49,0l18-10.46c3.15-1.83,3.15-3.67,0-5.51Zm47.16,8.58a8.89,8.89,0,0,0-9.49,0l-18,10.46q-4.74,2.76,0,5.5l18.11,10.46a8.9,8.9,0,0,0,9.51,0l18-10.45q4.74-2.76,0-5.51Zm39.61,13a8.9,8.9,0,0,0-9.51,0l-18,10.45q-4.74,2.76,0,5.52l18.11,10.45a8.9,8.9,0,0,0,9.51,0l18-10.46q4.74-2.74,0-5.5Zm46.7,8.86a8.91,8.91,0,0,0-9.5,0l-18,10.46q-4.74,2.76,0,5.51l18.11,10.45a8.92,8.92,0,0,0,9.51,0l18-10.46q4.74-2.74,0-5.5Zm-165.21-12a8.86,8.86,0,0,0-9.5,0l-18,10.46q-4.74,2.75,0,5.5l18.11,10.45a8.86,8.86,0,0,0,9.5,0l18-10.45q4.74-2.76,0-5.5Zm47.18,8.58a8.9,8.9,0,0,0-9.51,0l-18,10.46q-4.74,2.76,0,5.5l18.11,10.46a8.9,8.9,0,0,0,9.51,0l18-10.45q4.74-2.76,0-5.52Zm39.6,13a8.88,8.88,0,0,0-9.51,0l-18,10.46q-4.74,2.74,0,5.5l18.11,10.46a8.86,8.86,0,0,0,9.5,0l18-10.46q4.74-2.75,0-5.5Zm46.71,8.85a8.9,8.9,0,0,0-9.51,0l-18,10.46q-4.74,2.76,0,5.5l18.11,10.46a8.91,8.91,0,0,0,9.5,0l18-10.46q4.74-2.74,0-5.51Zm158.27-56a8.9,8.9,0,0,0-9.51,0l-145.19,84.38q-4.74,2.76,0,5.51l18.11,10.45a8.86,8.86,0,0,0,9.5,0l145.19-84.37c3.15-1.83,3.15-3.67,0-5.51Zm-323.48,44a8.91,8.91,0,0,0-9.5,0l-18,10.47c-3.15,1.83-3.15,3.66,0,5.5l18.11,10.45a8.89,8.89,0,0,0,9.5,0l18-10.46c3.15-1.83,3.15-3.66,0-5.5Zm47.17,8.59a8.86,8.86,0,0,0-9.5,0l-18,10.46q-4.74,2.74,0,5.5l18.11,10.45a8.88,8.88,0,0,0,9.51,0l18-10.46q4.74-2.75,0-5.5Zm39.61,13a8.88,8.88,0,0,0-9.51,0l-18,10.45q-4.74,2.76,0,5.51l18.11,10.46a8.9,8.9,0,0,0,9.51,0l18-10.46q4.74-2.76,0-5.5Zm46.69,8.86a8.85,8.85,0,0,0-9.49,0l-18,10.46q-4.74,2.74,0,5.5l18.11,10.45a8.86,8.86,0,0,0,9.5,0l18-10.45q4.74-2.76,0-5.5Zm-165.2-12a8.86,8.86,0,0,0-9.5,0l-18,10.45q-4.74,2.76,0,5.5l18.11,10.46a8.86,8.86,0,0,0,9.5,0l18-10.46q4.74-2.74,0-5.5Zm47.18,8.57a8.9,8.9,0,0,0-9.51,0l-18,10.46c-3.14,1.83-3.14,3.66,0,5.5l18.11,10.46a8.91,8.91,0,0,0,9.5,0l18-10.46q4.74-2.74,0-5.51Zm39.6,13a8.9,8.9,0,0,0-9.52,0l-18,10.45q-4.74,2.76,0,5.51l18.11,10.46a8.91,8.91,0,0,0,9.5,0l18-10.46q4.74-2.76,0-5.51Zm46.7,8.86a8.9,8.9,0,0,0-9.51,0l-18,10.46c-3.15,1.83-3.15,3.66,0,5.5l18.11,10.46a8.91,8.91,0,0,0,9.5,0l18-10.46q4.74-2.76,0-5.51Zm63.57-.94a8.92,8.92,0,0,0-9.51,0l-27.28,15.85q-4.74,2.76,0,5.51l18.11,10.45a8.86,8.86,0,0,0,9.5,0l27.28-15.85c3.15-1.83,3.15-3.67,0-5.5Zm-228.78-11.06a8.89,8.89,0,0,0-9.49,0l-18,10.46q-4.74,2.74,0,5.51l18.11,10.45a8.9,8.9,0,0,0,9.51,0l18-10.46c3.14-1.83,3.14-3.67,0-5.5Zm47.17,8.59a8.86,8.86,0,0,0-9.5,0l-34.09,19.81c-3.15,1.83-3.15,3.67,0,5.5l18.11,10.46a8.9,8.9,0,0,0,9.52,0l34.08-19.81q4.74-2.76,0-5.51Zm40.08,12.71a8.9,8.9,0,0,0-9.51,0l-43.08,25q-4.74,2.75,0,5.51l18.11,10.46a8.9,8.9,0,0,0,9.51,0l43.08-25q4.74-2.74,0-5.5Zm46.7,8.86a8.91,8.91,0,0,0-9.5,0L1109.28,1717q-4.74,2.76,0,5.51l18.11,10.46a8.9,8.9,0,0,0,9.51,0l58.71-34.12q4.74-2.76,0-5.5Zm53.82,4.73a8.92,8.92,0,0,0-9.51,0l-18,10.46q-4.72,2.75,0,5.51L1222,1714a8.89,8.89,0,0,0,9.5,0l18-10.46c3.15-1.83,3.15-3.66,0-5.5Zm-31.73,18.45a8.88,8.88,0,0,0-9.51,0l-18,10.46q-4.72,2.74,0,5.5l18.11,10.46a8.85,8.85,0,0,0,9.49,0l18-10.46q4.74-2.74,0-5.5Zm-31.73,18.43a8.92,8.92,0,0,0-9.51,0l-18,10.45q-4.74,2.76,0,5.52l18.11,10.45a8.9,8.9,0,0,0,9.51,0l18-10.46c3.15-1.83,3.15-3.67,0-5.5Z"/><polygon class="cls-18" points="1160.1 1761.9 1095.63 1799.12 913.73 1694.1 978.21 1656.88 1160.1 1761.9"/><polygon class="cls-18" points="1694.04 1450.88 1629.57 1488.11 1447.67 1383.09 1512.15 1345.86 1694.04 1450.88"/><path class="cls-19" d="M1218.68,1225.52c-11.65,16-23.37,32-35,48-4.86,6.66-13.08,19.28-19.12,22.77l-.08,0-.07.05c-6,3.48-14.27.35-19.12-.69-11.58-2.66-23.3-5.13-34.88-7.7-5.3-1-12.85-6.36-12.85-14.15,0-8.4,4-17.88,12-22.49l109.93-63.47c6.5-3.75,12-.74,12,6.8C1231.46,1204.27,1225.26,1216.5,1218.68,1225.52Zm12.78,62.32c0,7.53-5.38,16.81-12,20.6l-109.93,63.47c-6.58,3.8-12,.74-12-6.79v-68a20.32,20.32,0,0,0,7.55,3.1c12.39,2.52,24.94,4.94,37.12,8.11,6.27,1.68,14,3.71,22.18-1l.07,0,.08,0c8.15-4.71,15.91-15.7,22.18-24.62,12.17-17.14,24.73-34.15,37.2-51a107.59,107.59,0,0,0,7.47-11.76Z"/><g id="Buttons-screen"><path id="screen_blank_0_Layer0_2_1_STROKES" data-name="screen blank 0 Layer0 2 1 STROKES" class="cls-6" d="M907.16,1226.49a12.91,12.91,0,0,1,1.83-6.32,13.15,13.15,0,0,1,4.59-4.76c1.78-1,3.28-1.19,4.5-.49s1.93,2.11,1.93,4.15a14.58,14.58,0,0,1-6.43,11.07q-2.66,1.54-4.59.44C907.77,1229.89,907.16,1228.52,907.16,1226.49Z"/><path id="screen_blank_0_Layer0_3_1_STROKES" data-name="screen blank 0 Layer0 3 1 STROKES" class="cls-18" d="M937.36,1209.05a12.86,12.86,0,0,1,1.84-6.32,13,13,0,0,1,4.59-4.76c1.77-1,3.27-1.19,4.49-.49s1.93,2.11,1.93,4.15a12.17,12.17,0,0,1-1.93,6.27,12.35,12.35,0,0,1-4.49,4.81q-2.67,1.53-4.59.44C938,1212.45,937.36,1211.08,937.36,1209.05Z"/><path id="screen_blank_0_Layer0_4_1_STROKES" data-name="screen blank 0 Layer0 4 1 STROKES" class="cls-17" d="M967.41,1191.7a12.86,12.86,0,0,1,1.84-6.32,13,13,0,0,1,4.59-4.76c1.77-1,3.27-1.19,4.49-.49s1.93,2.12,1.93,4.15a12.17,12.17,0,0,1-1.93,6.27,12.35,12.35,0,0,1-4.49,4.81q-2.67,1.53-4.59.44C968,1195.1,967.41,1193.74,967.41,1191.7Z"/></g><g id="Touchpad"><path id="Shadow1" class="cls-20" d="M1719.32,1646.64q6,3.49,0,7l-273.7,159.06a11.23,11.23,0,0,1-12,0l-166.77-96.28q-6-3.5,0-7l273.7-159.06a11.24,11.24,0,0,1,12,0Z"/><path id="Shadow1-2" data-name="Shadow1" class="cls-21" d="M1719.32,1646.64q6,3.49,0,7l-273.7,159.06a11.23,11.23,0,0,1-12,0l-166.77-96.28q-6-3.5,0-7l273.7-159.06a11.24,11.24,0,0,1,12,0Z"/><path id="Shadow1-3" data-name="Shadow1" class="cls-22" d="M1719.32,1646.64q6,3.49,0,7l-273.7,159.06a11.23,11.23,0,0,1-12,0l-166.77-96.28q-6-3.5,0-7l273.7-159.06a11.24,11.24,0,0,1,12,0Z"/><path id="Shadow1-4" data-name="Shadow1" class="cls-23" d="M1719.32,1646.64q6,3.49,0,7l-273.7,159.06a11.23,11.23,0,0,1-12,0l-166.77-96.28q-6-3.5,0-7l273.7-159.06a11.24,11.24,0,0,1,12,0Z"/></g></g><g id="Text-box3"><use width="294.47" height="181.76" transform="translate(1337.64 1136.47) scale(1.58)" xlink:href="#text-pop-box"/><path class="cls-19" d="M1686.65,1334.59a37.68,37.68,0,1,1,37.68-37.67A37.68,37.68,0,0,1,1686.65,1334.59Zm0-69.07a31.4,31.4,0,1,0,31.4,31.4A31.43,31.43,0,0,0,1686.65,1265.52Zm-12.56,25.12a6.28,6.28,0,1,1,6.28-6.28A6.27,6.27,0,0,1,1674.09,1290.64Zm12.56,28.25a18.71,18.71,0,0,1-18-13.19,3.14,3.14,0,0,1,6-1.87,12.55,12.55,0,0,0,23.94,0,3.14,3.14,0,1,1,6,1.87A18.7,18.7,0,0,1,1686.65,1318.89Zm12.56-28.25a6.28,6.28,0,1,1,6.28-6.28A6.27,6.27,0,0,1,1699.21,1290.64Z"/><line class="cls-24" x1="1468.1" y1="1233.82" x2="1679.58" y2="1233.82"/><line class="cls-24" x1="1468.1" y1="1318.22" x2="1607.82" y2="1318.22"/><line class="cls-24" x1="1468.1" y1="1276.02" x2="1607.82" y2="1276.02"/></g><g id="Text-box2"><use width="293.53" height="181.76" transform="matrix(-1.58, 0, 0, 1.58, 1610.99, 804.54)" xlink:href="#text-pop-box_2"/><path class="cls-19" d="M1297.07,927.42a4.62,4.62,0,0,1-4.61,4.62h-46.19a4.62,4.62,0,0,1-4.61-4.62V899.71a4.62,4.62,0,0,1,4.61-4.62h1.55v-9.23a21.55,21.55,0,1,1,43.09,0v9.23h1.55a4.62,4.62,0,0,1,4.61,4.62Zm-15.39-32.33v-9.23a12.32,12.32,0,0,0-24.63,0v9.23Z"/><path class="cls-19" d="M1369.3,897.55l-17.51,37.23a6.12,6.12,0,0,1-5.53,3.41,6,6,0,0,1-5.49-3.41l-17.55-37.23a20.2,20.2,0,0,1-1.59-8.61,24.63,24.63,0,0,1,49.26,0A20.2,20.2,0,0,1,1369.3,897.55Zm-23-20.93a12.32,12.32,0,1,0,12.31,12.32A12.35,12.35,0,0,0,1346.26,876.62Z"/><line class="cls-24" x1="1248.53" y1="973.77" x2="1460.01" y2="973.77"/><line class="cls-24" x1="1248.53" y1="1015.97" x2="1388.25" y2="1015.97"/></g><g id="Text-box1"><use width="294.47" height="181.76" transform="translate(1335.58 479.13) scale(1.58)" xlink:href="#text-pop-box"/><path class="cls-19" d="M1540.69,578.53a1.85,1.85,0,0,1-1.35,1.73l-8.89,1.35a27.51,27.51,0,0,1-1.88,4.38c1.64,2.35,3.37,4.46,5.15,6.63a1.9,1.9,0,0,1,.48,1.2,1.58,1.58,0,0,1-.44,1.1c-1.14,1.54-7.63,8.61-9.27,8.61a2.44,2.44,0,0,1-1.25-.43l-6.64-5.19a28.78,28.78,0,0,1-4.37,1.82,61.77,61.77,0,0,1-1.4,8.94,1.75,1.75,0,0,1-1.73,1.35h-10.66a1.71,1.71,0,0,1-1.73-1.44l-1.35-8.85A29.58,29.58,0,0,1,1491,598l-6.78,5.14a1.82,1.82,0,0,1-1.19.43,1.72,1.72,0,0,1-1.21-.53c-2.54-2.3-5.91-5.29-7.93-8.08a1.86,1.86,0,0,1,0-2.21c1.63-2.21,3.41-4.32,5-6.58a26.86,26.86,0,0,1-2-4.76l-8.79-1.3a1.75,1.75,0,0,1-1.4-1.73V567.67a1.86,1.86,0,0,1,1.3-1.73l8.94-1.35a26.31,26.31,0,0,1,1.88-4.42c-1.64-2.31-3.37-4.47-5.14-6.63a1.74,1.74,0,0,1-.49-1.16,1.81,1.81,0,0,1,.44-1.1c1.15-1.59,7.64-8.61,9.28-8.61a2.19,2.19,0,0,1,1.24.48l6.64,5.15a28.83,28.83,0,0,1,4.37-1.83,63.18,63.18,0,0,1,1.4-8.94,1.76,1.76,0,0,1,1.73-1.35h10.66a1.71,1.71,0,0,1,1.73,1.45l1.35,8.84a28.15,28.15,0,0,1,4.33,1.78l6.83-5.15a1.65,1.65,0,0,1,1.15-.43,1.93,1.93,0,0,1,1.2.48c2.55,2.36,5.92,5.34,7.93,8.17a1.68,1.68,0,0,1,.34,1.06,1.88,1.88,0,0,1-.38,1.11c-1.64,2.21-3.42,4.32-5,6.58a27,27,0,0,1,2,4.72l8.79,1.34a1.76,1.76,0,0,1,1.4,1.73Zm-36.92-17.73a12.31,12.31,0,1,0,12.31,12.3A12.33,12.33,0,0,0,1503.77,560.8Z"/><path class="cls-19" d="M1578.92,576.76c-2.83,1.63-4.61,5-4.61,6.34a2.26,2.26,0,0,1-1.92,2.31h-11.54c-1.06,0-1.73-1.64-1.73-2.69v-2.17c0-5.82,5.77-10.81,10-12.74,3.7-1.68,5.23-3.27,5.23-6.34,0-2.69-3.5-5.1-7.4-5.1a9.86,9.86,0,0,0-5.19,1.4c-1.15.81-2.3,2-5.14,5.52a2,2,0,0,1-1.49.77,2.21,2.21,0,0,1-1.2-.38l-7.89-6a1.89,1.89,0,0,1-.47-2.55c5.18-8.6,12.49-12.78,22.3-12.78,10.28,0,21.83,8.22,21.83,19.22C1589.7,570.7,1583.49,574.21,1578.92,576.76Zm-4.42,25.18a1.93,1.93,0,0,1-1.92,1.93H1561a1.93,1.93,0,0,1-1.92-1.93V590.41a1.93,1.93,0,0,1,1.92-1.93h11.54a1.93,1.93,0,0,1,1.92,1.93Z"/><line class="cls-24" x1="1466.18" y1="650.97" x2="1677.66" y2="650.97"/><line class="cls-24" x1="1466.18" y1="693.17" x2="1605.9" y2="693.17"/></g></svg>