<svg id="ARTWORK" xmlns="http://www.w3.org/2000/svg" xmlns:xlink="http://www.w3.org/1999/xlink" viewBox="0 0 2500 2500"><defs><style>.cls-1{filter:url(#AI_DesenfoqueGaussiano_4);}.cls-2{fill:#85d8d1;opacity:0.16;}.cls-11,.cls-3{fill:#0f0b26;}.cls-3{opacity:0.32;}.cls-4{fill:#c8e6e4;}.cls-5{fill:#1f96dc;}.cls-6{fill:#7dd1ed;}.cls-7{fill:#4bbcec;}.cls-8{fill:url(#Nueva_muestra_de_degradado_70);}.cls-9{fill:url(#radial-gradient);}.cls-10{fill:url(#linear-gradient);}.cls-12,.cls-23{fill:none;}.cls-12{stroke:#c2ebe8;stroke-miterlimit:10;stroke-opacity:0.31;}.cls-13{fill:#a7d7d3;}.cls-14{fill:#78c2bd;}.cls-15{fill:url(#linear-gradient-2);}.cls-16{fill:#f6fbfb;}.cls-17{fill:#ebf6f5;}.cls-18{fill:#229b92;}.cls-19{fill:url(#Degradado_sin_nombre_2);}.cls-20{fill:url(#Degradado_sin_nombre_2-2);}.cls-21{fill:url(#Degradado_sin_nombre_2-3);}.cls-22{fill:url(#Degradado_sin_nombre_2-4);}.cls-23{stroke:#229b92;stroke-linecap:round;stroke-linejoin:round;stroke-width:7px;}</style><filter id="AI_DesenfoqueGaussiano_4" name="AI_DesenfoqueGaussiano_4"><feGaussianBlur stdDeviation="4"/></filter><linearGradient id="Nueva_muestra_de_degradado_70" x1="812.66" y1="1263.83" x2="999.95" y2="1359.24" gradientUnits="userSpaceOnUse"><stop offset="0" stop-color="#7dd1ed" stop-opacity="0.1"/><stop offset="0.15" stop-color="#5bc2ee" stop-opacity="0.1"/><stop offset="0.87" stop-color="#004986" stop-opacity="0.3"/></linearGradient><radialGradient id="radial-gradient" cx="1031.64" cy="1413.35" r="305.43" gradientTransform="matrix(0.99, -0.15, 0.05, 0.32, -57.67, 1113.86)" gradientUnits="userSpaceOnUse"><stop offset="0" stop-color="#0f0b26" stop-opacity="0.4"/><stop offset="0.18" stop-color="#0f0b26" stop-opacity="0.29"/><stop offset="0.82" stop-color="#0f0b26" stop-opacity="0"/></radialGradient><linearGradient id="linear-gradient" x1="1187.33" y1="1544.4" x2="873.71" y2="1372.13" gradientUnits="userSpaceOnUse"><stop offset="0" stop-color="#0f0b26" stop-opacity="0.3"/><stop offset="0.02" stop-color="#0f0b26" stop-opacity="0.29"/><stop offset="0.91" stop-color="#0f0b26" stop-opacity="0"/></linearGradient><linearGradient id="linear-gradient-2" x1="1154.83" y1="1294.42" x2="1213.14" y2="1396.01" gradientUnits="userSpaceOnUse"><stop offset="0" stop-color="#00637f" stop-opacity="0"/><stop offset="0.3" stop-color="#00637f" stop-opacity="0.03"/><stop offset="0.57" stop-color="#00637f" stop-opacity="0.11"/><stop offset="0.81" stop-color="#00637f" stop-opacity="0.25"/><stop offset="1" stop-color="#00637f" stop-opacity="0.4"/></linearGradient><linearGradient id="Degradado_sin_nombre_2" x1="1374.1" y1="1431.72" x2="1378.22" y2="1424.36" gradientUnits="userSpaceOnUse"><stop offset="0" stop-color="#a7d7d3" stop-opacity="0"/><stop offset="1" stop-color="#a7d7d3"/></linearGradient><linearGradient id="Degradado_sin_nombre_2-2" x1="1306.82" y1="1461.88" x2="1301.23" y2="1452.45" xlink:href="#Degradado_sin_nombre_2"/><linearGradient id="Degradado_sin_nombre_2-3" x1="1291.25" y1="1578.53" x2="1282.71" y2="1593.55" xlink:href="#Degradado_sin_nombre_2"/><linearGradient id="Degradado_sin_nombre_2-4" x1="1358.19" y1="1550.07" x2="1362.91" y2="1558.31" xlink:href="#Degradado_sin_nombre_2"/><symbol id="text-pop-box" data-name="text-pop-box" viewBox="0 0 294.47 181.76"><g class="cls-1"><path class="cls-2" d="M260.33,14.77H31A6.58,6.58,0,0,0,26.34,26L48.88,48.54V154.39A8.08,8.08,0,0,0,57,162.47H260.33a8.08,8.08,0,0,0,8.08-8.08V22.85A8.08,8.08,0,0,0,260.33,14.77Z"/></g><g class="cls-1"><path class="cls-3" d="M262.56,22.23H37.84a6.45,6.45,0,0,0-4.56,11L55.37,55.33V159A7.91,7.91,0,0,0,63.29,167H262.56a7.91,7.91,0,0,0,7.91-7.91V30.15A7.92,7.92,0,0,0,262.56,22.23Z"/></g><path class="cls-4" d="M260.33,14.77H31A6.58,6.58,0,0,0,26.34,26L48.88,48.54V154.39A8.08,8.08,0,0,0,57,162.47H260.33a8.08,8.08,0,0,0,8.08-8.08V22.85A8.08,8.08,0,0,0,260.33,14.77Z"/></symbol><symbol id="text-pop-box_2" data-name="text-pop-box 2" viewBox="0 0 293.53 181.76"><g class="cls-1"><path class="cls-2" d="M260.86,14.77H31.52A6.58,6.58,0,0,0,26.87,26L49.41,48.54V154.39a8.08,8.08,0,0,0,8.08,8.08H260.86a8.08,8.08,0,0,0,8.08-8.08V22.85A8.08,8.08,0,0,0,260.86,14.77Z"/></g><g class="cls-1"><path class="cls-3" d="M255.09,22.23H30.37a6.45,6.45,0,0,0-4.56,11L47.9,55.33V159A7.91,7.91,0,0,0,55.81,167H255.09A7.91,7.91,0,0,0,263,159V30.15A7.92,7.92,0,0,0,255.09,22.23Z"/></g><path class="cls-4" d="M260.86,14.77H31.52A6.58,6.58,0,0,0,26.87,26L49.41,48.54V154.39a8.08,8.08,0,0,0,8.08,8.08H260.86a8.08,8.08,0,0,0,8.08-8.08V22.85A8.08,8.08,0,0,0,260.86,14.77Z"/></symbol></defs><g id="Plant_4" data-name="Plant 4"><path class="cls-5" d="M876.14,960.32l-2.95-.6-10,48.79-5,39.09-1.91,40.81q0,1.08,0,9.54l.88,21.39,2.8,26.92,6.17,32.77.1.29,5,18.31q3,10,6.5,19.37l6.68,16.36,14.35,28.28.18.24,3.11,5.39,20.66,29.8,10.45,12.47,16.38,17c.71.73,2.28,2.22,4.69,4.46l16.47,14.1q3,2.4,3.33,2.64l14.21,10.45,3.57-4.65-16.45-14q-8.16-7.29-15.51-14.5l-9.08-9.23q-4.79-5-9.72-10.71l-1.9-2.13-.25-.4-.34-.36-15.43-19.47-6.82-9.74-14.55-23.93q-5.25-9.83-8.56-17.07l-7.7-18q-3.76-9.87-6.55-18.81l-5-17.48-.11-.29-2.67-11.33-3.89-21-4.15-39.62-.63-21.19.07-.62,1.11-35.17,0-.52.09-.48,2.78-29.85Z"/><path class="cls-6" d="M854.12,1370.36q43.74,15.95,92.49,13.68,31.18-2.64,66.49-14.59-79-178.89-191.38-177.56t-96.21,81.54q6.78,24.36,27.27,44.09Q793.69,1357.21,854.12,1370.36Z"/><path class="cls-6" d="M1015.59,1012.83Q993.9,982,952,1011.17q-46.77,32.5-77.24,128.66,50.61-11.57,92.92-45.57Q1030,1044,1015.59,1012.83Z"/><path class="cls-7" d="M797.53,896.58q-22.15,14.34-17.75,56.53,10.56,100.56,74.2,154.2-3.88-54.75-5.73-94.06t-8.9-70.8Q822.58,880.38,797.53,896.58Z"/><path class="cls-7" d="M869.1,904.31,871.62,975q34.65-37.95,41.27-87.21t-19.95-40.26Q867.38,856.25,869.1,904.31Z"/><path class="cls-5" d="M810.68,1247.2l-.13.21,19.72,7.95.35.11,50.66,24.5,11.61,6.49,42,26.53q7.9,5.41,17.38,12.39L982,1348.82q6.19,5.13,11.47,9.79l19.94,17.93,6.79-7.61-32.92-26.78-31.09-22.43q-10-6.84-18.08-11.78l-16.6-10.17-38.72-20.91-39.09-17.5c-.42-.13-1-.37-1.89-.71l-31.07-11.36Z"/><path class="cls-5" d="M989.73,1023.32,967.25,1041,927.57,1077l-25.87,26.94-12.8,14.37-21.51,26.89,1.93,10.46q4.59-12.48,23.6-34L927.2,1082l12.25-12.81L965.8,1044l24.05-20.47.09-.1-.14-.17Z"/><path class="cls-5" d="M807.41,955.2l6.86,46.75,2,10.49,6.27,26.27,12,36.11,11.51,24.84,11.21,19.68,1-11.09-7.14-11.37a4.09,4.09,0,0,0-.56-.88L841,1077.67l-12.21-30.62-3-9.25-10.7-41.22-7.53-41.51-.21.06Z"/><path class="cls-5" d="M891.58,873.88l.64-1.65.1-.1-.22-.13,0,.11-4.34,10.42-3,10.71-10.45,59.58-5.57,28.92,4.37-2.93,11.46-74.5c.41-3.37.83-6.28,1.26-8.75l2.76-12.77,2.87-8.58Z"/><path class="cls-8" d="M854.12,1370.36q43.74,15.95,92.49,13.68,31.18-2.64,66.49-14.59-79-178.89-191.38-177.56t-96.21,81.54q6.78,24.36,27.27,44.09Q793.69,1357.21,854.12,1370.36Z"/></g><g id="Laptop"><rect class="cls-9" x="668.62" y="1103.25" width="687.18" height="492.77"/><g class="cls-1"><path class="cls-10" d="M1034.22,1490.55l-332.14,31.7s-159-27.14-96.3-115.41,324.49-253.47,447.15-195.16S1118.11,1462.86,1034.22,1490.55Z"/></g><g id="Shadow-laptop"><g id="shadow" class="cls-1"><path class="cls-11" d="M1576.15,1434.69c3.56,2.06,3.58,5.39,0,7.44l-365.08,212.16a14.17,14.17,0,0,1-12.84,0L945.62,1508.41c-3.56-2.05-3.58-5.38,0-7.44l365.08-212.15a14.11,14.11,0,0,1,12.84,0Z"/></g><path class="cls-12" d="M1576.15,1434.69c3.56,2.06,3.58,5.39,0,7.44l-365.08,212.16a14.17,14.17,0,0,1-12.84,0L945.62,1508.41c-3.56-2.05-3.58-5.38,0-7.44l365.08-212.15a14.11,14.11,0,0,1,12.84,0Z"/></g><g id="screen"><path class="cls-13" d="M1310.43,982.35c-1.17-.69-2.79-.59-4.59.45L938.39,1195a14.14,14.14,0,0,0-6.43,11.13l.82,290.33c0,2,.73,3.45,1.88,4.12l2.82,1.64c-1.16-.67-1.87-2.1-1.88-4.13l-.82-290.32a14.12,14.12,0,0,1,6.43-11.13l367.45-212.16c1.8-1,3.42-1.13,4.59-.45Z"/><path class="cls-14" d="M1308.66,984.43c3.57-2,6.46-.4,6.47,3.69l.83,290.33a14.16,14.16,0,0,1-6.43,11.12L942.07,1501.72c-3.56,2.06-6.46.41-6.47-3.68l-.82-290.32a14.12,14.12,0,0,1,6.43-11.13Z"/><path class="cls-15" d="M1308.66,984.43c3.57-2,6.46-.4,6.47,3.69l.83,290.33a14.16,14.16,0,0,1-6.43,11.12L942.07,1501.72c-3.56,2.06-6.46.41-6.47-3.68l-.82-290.32a14.12,14.12,0,0,1,6.43-11.13Z"/></g><path class="cls-13" d="M1576.05,1435.3,1211,1647.46a14.16,14.16,0,0,1-12.85,0L945.46,1501.58c-1.79-1-2.68-2.39-2.67-3.75l0,6.52c0,1.36.89,2.72,2.68,3.75L1198.11,1654a14.14,14.14,0,0,0,12.84,0L1576,1441.82c1.75-1,2.63-2.36,2.64-3.69v-6.52C1578.68,1432.94,1577.8,1434.28,1576.05,1435.3Z"/><path class="cls-16" d="M1576,1427.86c3.56,2.05,3.58,5.38,0,7.44L1211,1647.46a14.16,14.16,0,0,1-12.85,0L945.46,1501.58c-3.55-2-3.57-5.39,0-7.44L1310.5,1282a14.17,14.17,0,0,1,12.84,0Z"/><g class="cls-1"><path class="cls-13" d="M1411.76,1380.77q5.43,3.13,0,6.29L1128.3,1551.79a10.15,10.15,0,0,1-10.86,0l-102.52-59.19q-5.43-3.13,0-6.29l283.46-164.73a10.17,10.17,0,0,1,10.86,0Z"/></g><path class="cls-16" d="M1576,1427.86,1323.34,1282a14.17,14.17,0,0,0-12.84,0L945.42,1494.14c-3.53,2-3.51,5.39,0,7.44l252.66,145.87a14.16,14.16,0,0,0,12.85,0l365.08-212.16C1579.58,1433.24,1579.56,1429.91,1576,1427.86Zm-164.24-40.8L1128.3,1551.79a10.15,10.15,0,0,1-10.86,0l-102.52-59.19q-5.43-3.13,0-6.29l283.46-164.73a10.17,10.17,0,0,1,10.86,0l102.52,59.19Q1417.19,1383.9,1411.76,1387.06Z"/><path class="cls-16" d="M1475.84,1483.49q3.81,2.21,0,4.41l-173.1,100.6a7.13,7.13,0,0,1-7.62,0l-105.47-60.9q-3.83-2.2,0-4.41l173.1-100.6a7.12,7.12,0,0,1,7.61,0Z"/><path class="cls-13" d="M1313.23,1327.78v-1.63c0,.58-.51,1.15-1.5,1.73l-283.68,164.86a5.62,5.62,0,0,1-6,0l-5.13-3c-1-.58-1.51-1.16-1.51-1.75v1.63c0,.59.5,1.17,1.5,1.75l5.13,3a5.62,5.62,0,0,0,6,0l283.68-164.86C1312.73,1328.93,1313.23,1328.36,1313.23,1327.78Z"/><path class="cls-13" d="M1303.37,1352.44l-11.45-6.61c-1-.59-1.51-1.17-1.51-1.75v1.63c0,.58.51,1.17,1.52,1.75l11.45,6.61a5.62,5.62,0,0,0,6,0l21.56-12.53c1-.58,1.5-1.16,1.5-1.73v-1.63c0,.57-.5,1.15-1.49,1.73l-21.57,12.53A5.62,5.62,0,0,1,1303.37,1352.44Z"/><path class="cls-13" d="M1320.25,1349.51v1.63c0,.58.5,1.16,1.51,1.74l11.46,6.62a5.62,5.62,0,0,0,6,0l11.38-6.61c1-.58,1.49-1.16,1.49-1.73v-1.63c0,.57-.5,1.15-1.49,1.73l-11.38,6.61a5.64,5.64,0,0,1-6,0l-11.45-6.62C1320.75,1350.67,1320.24,1350.09,1320.25,1349.51Z"/><path class="cls-13" d="M1300.7,1357.49l-11.38,6.61a5.62,5.62,0,0,1-6,0l-11.45-6.61c-1-.59-1.52-1.17-1.52-1.75v1.63c0,.58.5,1.16,1.51,1.75l11.46,6.61a5.61,5.61,0,0,0,6,0l11.38-6.61c1-.58,1.5-1.16,1.5-1.73v-1.63C1302.19,1356.33,1301.69,1356.91,1300.7,1357.49Z"/><path class="cls-13" d="M1332,1362.82v-1.63c0,.57-.5,1.15-1.49,1.73l-11.38,6.61a5.64,5.64,0,0,1-6,0l-11.45-6.61c-1-.59-1.51-1.17-1.51-1.75v1.63c0,.58.51,1.16,1.52,1.75l11.45,6.61a5.62,5.62,0,0,0,6,0l11.39-6.61C1331.53,1364,1332,1363.39,1332,1362.82Z"/><path class="cls-13" d="M1338.19,1377.75l-11.45-6.62c-1-.58-1.52-1.17-1.52-1.75V1371c0,.58.5,1.17,1.52,1.75l11.45,6.62a5.62,5.62,0,0,0,6,0l26-15.15c1-.57,1.5-1.15,1.5-1.73v-1.63c0,.58-.5,1.16-1.49,1.73l-26.06,15.15A5.62,5.62,0,0,1,1338.19,1377.75Z"/><path class="cls-13" d="M1263.24,1375.76l-11.45-6.61c-1-.58-1.51-1.16-1.51-1.75V1369c0,.59.5,1.17,1.51,1.75l11.46,6.61a5.6,5.6,0,0,0,6,0l11.38-6.61c1-.58,1.49-1.16,1.49-1.73v-1.63c0,.57-.5,1.15-1.5,1.73l-11.37,6.61A5.64,5.64,0,0,1,1263.24,1375.76Z"/><path class="cls-13" d="M1293.08,1382.82a5.62,5.62,0,0,0,6,0l11.38-6.61c1-.58,1.49-1.15,1.49-1.73v-1.63c0,.58-.49,1.15-1.49,1.73l-11.38,6.61a5.62,5.62,0,0,1-6,0l-11.45-6.61c-1-.59-1.52-1.17-1.52-1.75v1.63c0,.58.5,1.16,1.51,1.75Z"/><path class="cls-13" d="M1324.13,1391l11.38-6.62c1-.57,1.49-1.15,1.5-1.73v-1.63c0,.58-.5,1.16-1.49,1.73l-11.38,6.62a5.62,5.62,0,0,1-6,0l-11.45-6.62c-1-.58-1.52-1.17-1.52-1.75v1.63c0,.58.5,1.17,1.51,1.75l11.46,6.62A5.61,5.61,0,0,0,1324.13,1391Z"/><path class="cls-13" d="M1347.42,1395.15l-11.45-6.61c-1-.59-1.52-1.17-1.51-1.75v1.63c0,.58.5,1.16,1.52,1.75l11.45,6.61a5.62,5.62,0,0,0,6,0l37.14-21.58c1-.58,1.49-1.16,1.49-1.74v-1.63c0,.58-.5,1.16-1.49,1.74l-37.14,21.58A5.62,5.62,0,0,1,1347.42,1395.15Z"/><path class="cls-13" d="M1409.9,1385.11l-11.38,6.61a5.62,5.62,0,0,1-6,0l-11.45-6.61c-1-.59-1.52-1.17-1.52-1.76V1385c0,.59.5,1.17,1.51,1.76l11.46,6.61a5.62,5.62,0,0,0,6,0l11.37-6.61c1-.58,1.5-1.16,1.5-1.73v-1.63C1411.39,1384,1410.89,1384.53,1409.9,1385.11Z"/><path class="cls-13" d="M1390.1,1396.61l-11.38,6.62a5.61,5.61,0,0,1-6,0l-5.73-3.31-5.73-3.31c-1-.58-1.52-1.17-1.52-1.75v1.63c0,.58.5,1.17,1.52,1.75l5.72,3.31,5.73,3.31a5.62,5.62,0,0,0,6,0l11.38-6.62c1-.58,1.49-1.15,1.49-1.73v-1.63C1391.59,1395.46,1391.1,1396,1390.1,1396.61Z"/><path class="cls-13" d="M1243.18,1387.42l-11.46-6.61c-1-.58-1.51-1.17-1.51-1.75v1.63c0,.58.5,1.17,1.51,1.75l11.45,6.61a5.62,5.62,0,0,0,6,0l11.38-6.61c1-.58,1.49-1.15,1.49-1.73v-1.63c0,.58-.5,1.15-1.49,1.73l-11.38,6.61A5.62,5.62,0,0,1,1243.18,1387.42Z"/><path class="cls-13" d="M1273,1392.85l-11.45-6.61c-1-.58-1.52-1.17-1.51-1.75v1.63c0,.58.5,1.17,1.51,1.75l11.46,6.61a5.65,5.65,0,0,0,6,0l11.39-6.62c1-.58,1.48-1.15,1.48-1.73v-1.63c0,.58-.5,1.15-1.49,1.73l-11.39,6.62A5.65,5.65,0,0,1,1273,1392.85Z"/><path class="cls-13" d="M1304.06,1402.7l11.39-6.62c1-.57,1.49-1.15,1.49-1.73v-1.63c0,.58-.5,1.16-1.5,1.73l-11.38,6.62a5.62,5.62,0,0,1-6,0l-11.45-6.61c-1-.59-1.52-1.17-1.52-1.76v1.63c0,.59.5,1.17,1.51,1.76l11.46,6.61A5.61,5.61,0,0,0,1304.06,1402.7Z"/><path class="cls-13" d="M1333.6,1408.3l11.38-6.61c1-.58,1.49-1.16,1.5-1.74v-1.63c0,.58-.5,1.16-1.49,1.74l-11.39,6.61a5.61,5.61,0,0,1-6,0l-11.46-6.61c-1-.58-1.51-1.17-1.51-1.75v1.63c0,.58.5,1.17,1.51,1.75l11.45,6.61A5.62,5.62,0,0,0,1333.6,1408.3Z"/><path class="cls-13" d="M1369.44,1408.62l-11.38,6.62a5.62,5.62,0,0,1-6,0l-11.45-6.62c-1-.58-1.52-1.17-1.52-1.75v1.63c0,.58.51,1.17,1.52,1.75l11.45,6.62a5.62,5.62,0,0,0,6,0l11.38-6.62c1-.58,1.49-1.15,1.5-1.73v-1.63C1370.93,1407.47,1370.43,1408,1369.44,1408.62Z"/><path class="cls-13" d="M1223.11,1399.09l-11.46-6.62c-1-.58-1.51-1.16-1.51-1.74v1.63c0,.58.5,1.16,1.51,1.74l11.45,6.62a5.64,5.64,0,0,0,6,0l11.38-6.61c1-.58,1.49-1.15,1.49-1.73v-1.63c0,.58-.5,1.15-1.5,1.73l-11.38,6.61A5.62,5.62,0,0,1,1223.11,1399.09Z"/><path class="cls-13" d="M1253,1404.51l-11.46-6.61c-1-.58-1.51-1.17-1.51-1.75v1.63c0,.58.5,1.17,1.51,1.75l11.45,6.61a5.64,5.64,0,0,0,6,0l11.38-6.62c1-.57,1.48-1.15,1.49-1.73v-1.63c0,.58-.5,1.16-1.49,1.73l-11.38,6.62A5.62,5.62,0,0,1,1253,1404.51Z"/><path class="cls-13" d="M1284,1414.36l11.38-6.61c1-.58,1.49-1.16,1.49-1.74v-1.63q0,.87-1.5,1.74l-11.38,6.61a5.61,5.61,0,0,1-6,0l-11.46-6.61c-1-.59-1.51-1.17-1.51-1.76V1406c0,.59.51,1.17,1.52,1.76l11.45,6.61A5.62,5.62,0,0,0,1284,1414.36Z"/><path class="cls-13" d="M1313.53,1420l11.38-6.61c1-.58,1.5-1.16,1.5-1.73V1410c0,.57-.5,1.15-1.49,1.73l-11.38,6.61a5.62,5.62,0,0,1-6,0l-11.45-6.61c-1-.58-1.52-1.17-1.52-1.75v1.63c0,.58.5,1.17,1.51,1.75l11.46,6.61A5.61,5.61,0,0,0,1313.53,1420Z"/><path class="cls-13" d="M1349.37,1420.28,1338,1426.9a5.62,5.62,0,0,1-6,0l-11.45-6.61c-1-.59-1.52-1.17-1.52-1.76v1.63c0,.59.5,1.17,1.51,1.76l11.45,6.61a5.62,5.62,0,0,0,6,0l11.39-6.62c1-.57,1.49-1.15,1.49-1.73v-1.63C1350.86,1419.13,1350.36,1419.71,1349.37,1420.28Z"/><path class="cls-13" d="M1203,1410.75l-11.45-6.62c-1-.58-1.51-1.16-1.51-1.75V1404c0,.59.51,1.17,1.52,1.75l11.45,6.62a5.62,5.62,0,0,0,6,0l11.38-6.62c1-.58,1.49-1.15,1.49-1.73v-1.63c0,.58-.5,1.15-1.5,1.73l-11.38,6.62A5.62,5.62,0,0,1,1203,1410.75Z"/><path class="cls-13" d="M1232.88,1416.18l-11.46-6.62c-1-.58-1.51-1.16-1.51-1.75v1.63c0,.59.5,1.17,1.51,1.75l11.45,6.62a5.64,5.64,0,0,0,6,0l11.38-6.62c1-.57,1.49-1.15,1.49-1.73v-1.63c0,.58-.5,1.16-1.49,1.73l-11.39,6.62A5.62,5.62,0,0,1,1232.88,1416.18Z"/><path class="cls-13" d="M1263.93,1426l11.39-6.61c1-.58,1.49-1.16,1.49-1.74V1416c0,.58-.5,1.16-1.49,1.74l-11.39,6.61a5.61,5.61,0,0,1-6,0l-11.46-6.61c-1-.58-1.51-1.17-1.51-1.75v1.63c0,.58.51,1.17,1.52,1.75l11.45,6.61A5.62,5.62,0,0,0,1263.93,1426Z"/><path class="cls-13" d="M1293.47,1431.62l11.38-6.61c1-.58,1.49-1.16,1.49-1.73v-1.63c0,.57-.5,1.15-1.49,1.73l-11.38,6.61a5.62,5.62,0,0,1-6,0l-11.45-6.61c-1-.58-1.51-1.16-1.51-1.75v1.63c0,.59.5,1.17,1.51,1.75l11.46,6.62A5.62,5.62,0,0,0,1293.47,1431.62Z"/><path class="cls-13" d="M1330.11,1431.47l-17.25,10a5.62,5.62,0,0,1-6,0l-11.45-6.61c-1-.59-1.52-1.17-1.52-1.76v1.63c0,.59.5,1.17,1.52,1.76l11.45,6.61a5.62,5.62,0,0,0,6,0l17.25-10c1-.57,1.49-1.15,1.49-1.73v-1.63C1331.6,1430.32,1331.11,1430.9,1330.11,1431.47Z"/><path class="cls-13" d="M1183,1422.41l-11.45-6.62c-1-.58-1.52-1.16-1.52-1.75v1.63c0,.59.5,1.17,1.51,1.75L1183,1424a5.61,5.61,0,0,0,6,0l11.38-6.62c1-.57,1.5-1.15,1.5-1.73v-1.63c0,.58-.5,1.15-1.49,1.73l-11.38,6.62A5.62,5.62,0,0,1,1183,1422.41Z"/><path class="cls-13" d="M1212.81,1427.84l-11.45-6.62c-1-.58-1.52-1.16-1.51-1.75v1.63c0,.59.5,1.17,1.52,1.75l11.45,6.62a5.62,5.62,0,0,0,6,0l11.38-6.61c1-.58,1.49-1.16,1.49-1.73v-1.63c0,.57-.5,1.15-1.49,1.73l-11.38,6.61A5.64,5.64,0,0,1,1212.81,1427.84Z"/><path class="cls-13" d="M1243.87,1437.68l11.38-6.61c1-.58,1.49-1.16,1.49-1.73v-1.63c0,.57-.49,1.15-1.49,1.73l-11.38,6.61a5.62,5.62,0,0,1-6,0l-11.45-6.61c-1-.59-1.52-1.17-1.52-1.75v1.63c0,.58.5,1.16,1.52,1.75l11.45,6.61A5.62,5.62,0,0,0,1243.87,1437.68Z"/><path class="cls-13" d="M1273.4,1443.28l11.38-6.61c1-.58,1.49-1.15,1.49-1.73v-1.63c0,.58-.5,1.15-1.49,1.73l-11.38,6.61a5.58,5.58,0,0,1-6,0l-11.46-6.61c-1-.58-1.51-1.16-1.51-1.75v1.63c0,.59.5,1.17,1.51,1.75l11.45,6.61A5.58,5.58,0,0,0,1273.4,1443.28Z"/><path class="cls-13" d="M1162.91,1434.07l-11.45-6.61c-1-.59-1.52-1.17-1.52-1.75v1.63c0,.58.5,1.16,1.51,1.75l11.46,6.61a5.61,5.61,0,0,0,6,0l11.38-6.61q1.5-.87,1.5-1.74v-1.63q0,.87-1.5,1.74l-11.38,6.61A5.62,5.62,0,0,1,1162.91,1434.07Z"/><path class="cls-13" d="M1192.74,1439.5l-11.45-6.61c-1-.59-1.51-1.17-1.51-1.75v1.63c0,.58.5,1.16,1.51,1.75l11.45,6.61a5.64,5.64,0,0,0,6,0l11.38-6.61c1-.58,1.49-1.16,1.49-1.73v-1.64c0,.58-.49,1.16-1.49,1.74l-11.38,6.61A5.64,5.64,0,0,1,1192.74,1439.5Z"/><path class="cls-13" d="M1223.8,1449.35l11.38-6.62c1-.58,1.49-1.16,1.49-1.73v-1.63c0,.57-.5,1.15-1.49,1.73l-11.39,6.61a5.6,5.6,0,0,1-6,0l-11.45-6.61c-1-.58-1.52-1.17-1.51-1.75V1441c0,.58.5,1.17,1.52,1.75l11.45,6.62A5.65,5.65,0,0,0,1223.8,1449.35Z"/><path class="cls-13" d="M1253.34,1454.94l11.38-6.61c1-.58,1.49-1.15,1.49-1.73V1445c0,.58-.5,1.15-1.5,1.73l-11.38,6.61a5.6,5.6,0,0,1-6,0l-11.46-6.62c-1-.58-1.51-1.16-1.51-1.74v1.63c0,.58.5,1.16,1.51,1.75l11.45,6.61A5.62,5.62,0,0,0,1253.34,1454.94Z"/><path class="cls-13" d="M1142.85,1445.73l-11.46-6.61c-1-.59-1.51-1.17-1.51-1.75V1439c0,.58.5,1.16,1.51,1.75l11.45,6.61a5.62,5.62,0,0,0,6,0l11.38-6.61c1-.58,1.49-1.16,1.49-1.74v-1.63c0,.58-.5,1.16-1.49,1.74l-11.38,6.61A5.62,5.62,0,0,1,1142.85,1445.73Z"/><path class="cls-13" d="M1172.68,1451.16l-11.45-6.61c-1-.59-1.52-1.17-1.52-1.75v1.63c0,.58.5,1.16,1.51,1.75l11.46,6.61a5.62,5.62,0,0,0,6,0l11.38-6.61c1-.58,1.49-1.15,1.49-1.73v-1.63c0,.58-.49,1.15-1.49,1.73l-11.38,6.61A5.62,5.62,0,0,1,1172.68,1451.16Z"/><path class="cls-13" d="M1203.73,1461l11.38-6.61c1-.58,1.5-1.15,1.5-1.73V1451c0,.58-.5,1.15-1.49,1.73l-11.38,6.61a5.58,5.58,0,0,1-6,0l-11.45-6.61c-1-.58-1.52-1.17-1.52-1.75v1.63c0,.58.5,1.17,1.51,1.75l11.46,6.61A5.57,5.57,0,0,0,1203.73,1461Z"/><path class="cls-13" d="M1233.27,1466.61l11.38-6.62c1-.57,1.49-1.15,1.49-1.73v-1.63c0,.58-.5,1.16-1.5,1.73l-11.38,6.62a5.61,5.61,0,0,1-6,0l-11.46-6.62c-1-.58-1.51-1.16-1.51-1.74v1.63c0,.58.51,1.16,1.52,1.74l11.45,6.62A5.62,5.62,0,0,0,1233.27,1466.61Z"/><path class="cls-13" d="M1122.78,1457.39l-11.46-6.61c-1-.58-1.51-1.17-1.51-1.75v1.63c0,.58.5,1.17,1.51,1.75l11.45,6.61a5.62,5.62,0,0,0,6,0l11.39-6.61c1-.58,1.49-1.16,1.49-1.74V1449c0,.58-.5,1.16-1.49,1.73l-11.38,6.62A5.62,5.62,0,0,1,1122.78,1457.39Z"/><path class="cls-13" d="M1152.62,1462.82l-11.46-6.62c-1-.58-1.51-1.16-1.51-1.74v1.63c0,.58.5,1.16,1.51,1.75l11.45,6.61a5.64,5.64,0,0,0,6,0l11.38-6.61c1-.58,1.49-1.16,1.49-1.73v-1.63c0,.57-.5,1.15-1.49,1.73l-11.38,6.61A5.62,5.62,0,0,1,1152.62,1462.82Z"/><path class="cls-13" d="M1183.67,1472.66l11.38-6.61c1-.58,1.49-1.15,1.49-1.73v-1.63c0,.58-.5,1.15-1.5,1.73l-11.38,6.61a5.6,5.6,0,0,1-6,0l-11.45-6.62c-1-.58-1.52-1.16-1.52-1.75v1.63c0,.59.5,1.17,1.51,1.76l11.46,6.61A5.6,5.6,0,0,0,1183.67,1472.66Z"/><path class="cls-13" d="M1213.2,1478.27l11.38-6.62c1-.57,1.5-1.15,1.5-1.73v-1.63c0,.58-.5,1.16-1.49,1.73l-11.38,6.62a5.62,5.62,0,0,1-6,0l-11.46-6.61c-1-.59-1.51-1.17-1.51-1.75v1.63c0,.58.5,1.16,1.51,1.75l11.45,6.61A5.62,5.62,0,0,0,1213.2,1478.27Z"/><path class="cls-13" d="M1102.71,1469.05l-11.45-6.61c-1-.59-1.51-1.17-1.51-1.75v1.63c0,.58.51,1.17,1.52,1.75l11.45,6.61a5.62,5.62,0,0,0,6,0l11.38-6.61c1-.58,1.49-1.16,1.49-1.73v-1.63c0,.57-.5,1.15-1.5,1.73l-11.38,6.61A5.62,5.62,0,0,1,1102.71,1469.05Z"/><path class="cls-13" d="M1132.55,1474.48l-11.46-6.61c-1-.59-1.51-1.17-1.51-1.75v1.63c0,.58.5,1.16,1.51,1.75l11.45,6.61a5.62,5.62,0,0,0,6,0l11.38-6.61c1-.58,1.49-1.15,1.49-1.73v-1.63c0,.58-.49,1.15-1.49,1.73l-11.38,6.61A5.6,5.6,0,0,1,1132.55,1474.48Z"/><path class="cls-13" d="M1163.6,1484.33l11.38-6.62c1-.57,1.49-1.15,1.49-1.73v-1.63c0,.58-.5,1.16-1.5,1.73l-11.37,6.62a5.62,5.62,0,0,1-6,0l-11.46-6.62c-1-.58-1.51-1.16-1.51-1.75V1476c0,.59.51,1.17,1.52,1.75l11.45,6.62A5.62,5.62,0,0,0,1163.6,1484.33Z"/><path class="cls-13" d="M1193.14,1489.93l11.37-6.61q1.5-.87,1.5-1.74V1480c0,.58-.5,1.16-1.5,1.74l-11.38,6.61a5.62,5.62,0,0,1-6,0l-11.45-6.61c-1-.59-1.52-1.17-1.52-1.75v1.63c0,.58.5,1.16,1.51,1.75l11.46,6.61A5.62,5.62,0,0,0,1193.14,1489.93Z"/><path class="cls-13" d="M1304.63,1446.28l-91.83,53.37a5.62,5.62,0,0,1-6,0l-11.45-6.61c-1-.59-1.52-1.17-1.52-1.76v1.63c0,.59.5,1.17,1.51,1.76l11.46,6.61a5.61,5.61,0,0,0,6,0l91.83-53.37c1-.57,1.49-1.15,1.49-1.73v-1.63C1306.12,1445.13,1305.62,1445.71,1304.63,1446.28Z"/><path class="cls-13" d="M1082.65,1480.71l-11.46-6.61c-1-.58-1.51-1.16-1.51-1.75V1474c0,.59.5,1.17,1.51,1.75l11.45,6.61a5.6,5.6,0,0,0,6,0l11.38-6.61c1-.58,1.49-1.16,1.5-1.73v-1.63c0,.57-.5,1.15-1.49,1.73l-11.39,6.61A5.59,5.59,0,0,1,1082.65,1480.71Z"/><path class="cls-13" d="M1112.48,1486.14l-11.45-6.61c-1-.59-1.51-1.17-1.51-1.75v1.63c0,.58.51,1.16,1.52,1.75l11.45,6.61a5.6,5.6,0,0,0,6,0l11.38-6.61c1-.58,1.49-1.15,1.49-1.73v-1.63c0,.58-.5,1.15-1.49,1.73l-11.38,6.61A5.62,5.62,0,0,1,1112.48,1486.14Z"/><path class="cls-13" d="M1126.07,1489.38l11.45,6.61a5.64,5.64,0,0,0,6,0l11.38-6.62c1-.57,1.49-1.15,1.49-1.73V1486c0,.58-.5,1.16-1.5,1.73l-11.38,6.62a5.62,5.62,0,0,1-6,0l-11.46-6.61c-1-.59-1.51-1.17-1.51-1.75v1.63C1124.55,1488.21,1125.06,1488.79,1126.07,1489.38Z"/><path class="cls-13" d="M1173.07,1501.59l11.38-6.61c1-.58,1.49-1.16,1.5-1.73v-1.63c0,.57-.5,1.15-1.49,1.73l-11.38,6.61a5.62,5.62,0,0,1-6,0l-11.46-6.61c-1-.59-1.51-1.17-1.51-1.75v1.63c0,.58.5,1.16,1.51,1.75l11.45,6.61A5.62,5.62,0,0,0,1173.07,1501.59Z"/><path class="cls-13" d="M1062.58,1492.37l-11.45-6.61c-1-.58-1.52-1.16-1.52-1.75v1.63c0,.59.5,1.17,1.51,1.75l11.46,6.61a5.57,5.57,0,0,0,6,0l11.38-6.61c1-.58,1.5-1.15,1.5-1.73V1484c0,.58-.5,1.15-1.49,1.73l-11.38,6.61A5.58,5.58,0,0,1,1062.58,1492.37Z"/><path class="cls-13" d="M1081,1492.82l11.45,6.61a5.6,5.6,0,0,0,6,0l11.38-6.62c1-.57,1.5-1.15,1.5-1.73v-1.63c0,.58-.5,1.16-1.49,1.73l-11.38,6.62a5.66,5.66,0,0,1-6,0l-11.45-6.61c-1-.58-1.51-1.17-1.51-1.75v1.63C1079.44,1491.66,1080,1492.24,1081,1492.82Z"/><path class="cls-13" d="M1106,1501l11.45,6.61a5.62,5.62,0,0,0,6,0l11.38-6.61c1-.58,1.49-1.16,1.49-1.74v-1.63q0,.87-1.5,1.74l-11.38,6.61a5.62,5.62,0,0,1-6,0l-11.45-6.61c-1-.59-1.52-1.17-1.52-1.76v1.63C1104.49,1499.87,1105,1500.45,1106,1501Z"/><path class="cls-13" d="M1135.54,1506.64l11.45,6.61a5.62,5.62,0,0,0,6,0l11.38-6.61q1.5-.87,1.5-1.74v-1.63c0,.58-.5,1.16-1.49,1.74l-11.38,6.61a5.62,5.62,0,0,1-6,0l-11.45-6.61c-1-.58-1.52-1.17-1.52-1.75v1.63C1134,1505.47,1134.53,1506.06,1135.54,1506.64Z"/><path class="cls-13" d="M1204.6,1504.42l-17.26,10a5.61,5.61,0,0,1-6,0l-11.46-6.61c-1-.58-1.52-1.17-1.52-1.75v1.63c0,.58.5,1.17,1.52,1.75l11.45,6.61a5.62,5.62,0,0,0,6,0l17.25-10c1-.58,1.49-1.16,1.49-1.73v-1.64C1206.09,1503.26,1205.59,1503.84,1204.6,1504.42Z"/><path class="cls-13" d="M1061.39,1497.32v-1.63c0,.58-.5,1.15-1.49,1.73l-11.38,6.61a5.64,5.64,0,0,1-6,0l-11.45-6.62c-1-.58-1.51-1.16-1.51-1.74v1.63c0,.58.5,1.16,1.51,1.74l11.46,6.62a5.6,5.6,0,0,0,6,0l11.38-6.61C1060.89,1498.47,1061.39,1497.9,1061.39,1497.32Z"/><path class="cls-13" d="M1091.23,1502.75v-1.63c0,.58-.49,1.16-1.49,1.73l-21.56,12.53a5.64,5.64,0,0,1-6,0l-11.45-6.61c-1-.58-1.51-1.16-1.51-1.75v1.63c0,.59.5,1.17,1.51,1.75l11.45,6.61a5.64,5.64,0,0,0,6,0l21.56-12.53C1090.73,1503.91,1091.23,1503.33,1091.23,1502.75Z"/><path class="cls-13" d="M1116.58,1510.79v-1.63c0,.58-.5,1.16-1.49,1.73l-27.25,15.84a5.64,5.64,0,0,1-6,0l-11.45-6.61c-1-.58-1.52-1.17-1.52-1.75V1520c0,.58.5,1.17,1.51,1.75l11.46,6.61a5.62,5.62,0,0,0,6,0l27.25-15.84C1116.08,1512,1116.57,1511.37,1116.58,1510.79Z"/><path class="cls-13" d="M1146.11,1516.4v-1.63c0,.57-.49,1.15-1.49,1.73l-37.13,21.58a5.64,5.64,0,0,1-6,0l-11.45-6.61c-1-.59-1.51-1.17-1.51-1.75v1.63c0,.58.5,1.16,1.51,1.75l11.45,6.61a5.62,5.62,0,0,0,6,0l37.14-21.58C1145.61,1517.55,1146.11,1517,1146.11,1516.4Z"/><path class="cls-13" d="M1178.66,1519.49l-11.39,6.62a5.63,5.63,0,0,1-6,0l-11.46-6.62c-1-.58-1.51-1.17-1.51-1.75v1.63c0,.58.51,1.17,1.52,1.75l11.45,6.62a5.65,5.65,0,0,0,6,0l11.38-6.62c1-.58,1.49-1.15,1.5-1.73v-1.63C1180.15,1518.34,1179.65,1518.91,1178.66,1519.49Z"/><path class="cls-13" d="M1158.59,1531.15l-11.38,6.62a5.62,5.62,0,0,1-6,0l-11.45-6.62c-1-.58-1.52-1.17-1.52-1.75V1531c0,.58.5,1.17,1.51,1.75l11.46,6.62a5.62,5.62,0,0,0,6,0l11.37-6.62c1-.57,1.5-1.15,1.5-1.73v-1.63C1160.08,1530,1159.58,1530.57,1158.59,1531.15Z"/><path class="cls-13" d="M1138.53,1542.81l-11.38,6.62a5.64,5.64,0,0,1-6,0l-11.45-6.61c-1-.59-1.52-1.17-1.51-1.76v1.63c0,.59.5,1.17,1.51,1.76l11.46,6.61a5.62,5.62,0,0,0,6,0l11.38-6.62c1-.57,1.49-1.15,1.49-1.73v-1.63C1140,1541.66,1139.52,1542.24,1138.53,1542.81Z"/><path class="cls-16" d="M1311.73,1324.4q3,1.74,0,3.48l-283.68,164.86a5.62,5.62,0,0,1-6,0l-5.13-3q-3-1.74,0-3.48l283.67-164.86a5.64,5.64,0,0,1,6,0Zm7.75,5.41a5.62,5.62,0,0,0-6,0l-21.57,12.54c-2,1.16-2,2.32,0,3.48l11.45,6.61a5.62,5.62,0,0,0,6,0l21.57-12.53q3-1.74,0-3.48Zm19.65,11.35a5.62,5.62,0,0,0-6,0l-11.38,6.61c-2,1.17-2,2.32,0,3.48l11.45,6.62a5.64,5.64,0,0,0,6,0l11.38-6.61c2-1.16,2-2.33,0-3.49Zm-49.91,6.23a5.61,5.61,0,0,0-6,0l-11.38,6.62q-3,1.74,0,3.48l11.45,6.61a5.62,5.62,0,0,0,6,0l11.38-6.61q3-1.74,0-3.48Zm29.84,5.43a5.61,5.61,0,0,0-6,0l-11.39,6.62c-2,1.15-2,2.32,0,3.48l11.45,6.61a5.64,5.64,0,0,0,6,0l11.38-6.61c2-1.16,2-2.33,0-3.49Zm39.73-.31a5.64,5.64,0,0,0-6,0l-26.06,15.14q-3,1.74,0,3.48l11.45,6.62a5.62,5.62,0,0,0,6,0l26.06-15.15q3-1.74,0-3.48Zm-89.63,6.54a5.62,5.62,0,0,0-6,0l-11.38,6.62c-2,1.16-2,2.32,0,3.48l11.45,6.61a5.64,5.64,0,0,0,6,0l11.37-6.61q3-1.74,0-3.48Zm29.83,5.43a5.61,5.61,0,0,0-6,0l-11.38,6.62q-3,1.74,0,3.48l11.45,6.61a5.62,5.62,0,0,0,6,0l11.38-6.61q3-1.74,0-3.48Zm25,8.22a5.62,5.62,0,0,0-6,0l-11.38,6.61c-2,1.16-2,2.32,0,3.48l11.45,6.62a5.62,5.62,0,0,0,6,0l11.38-6.62q3-1.74,0-3.48Zm55.06-9.23a5.62,5.62,0,0,0-6,0L1336,1385.06c-2,1.16-2,2.31,0,3.48l11.45,6.61a5.62,5.62,0,0,0,6,0l37.14-21.58c2-1.17,2-2.32,0-3.48Zm19.33,11.54a5.64,5.64,0,0,0-6,0l-11.38,6.61c-2,1.17-2,2.33,0,3.49l11.45,6.61a5.62,5.62,0,0,0,6,0l11.38-6.61q3-1.74,0-3.48Zm-14.07,14.82-5.73-3.31a5.62,5.62,0,0,0-6,0l-11.37,6.61q-3,1.74,0,3.48l5.73,3.31,5.73,3.31a5.61,5.61,0,0,0,6,0l11.38-6.62q3-1.74,0-3.48Zm-135.27-19.11a5.62,5.62,0,0,0-6,0l-11.38,6.61c-2,1.16-2,2.32,0,3.48l11.46,6.61a5.62,5.62,0,0,0,6,0l11.37-6.61q3-1.74,0-3.48Zm29.84,5.42a5.65,5.65,0,0,0-6,0l-11.38,6.62c-2,1.16-2,2.32,0,3.48l11.45,6.61a5.65,5.65,0,0,0,6,0l11.39-6.62c2-1.16,2-2.32,0-3.48Zm25,8.22a5.62,5.62,0,0,0-6,0l-11.39,6.61c-2,1.16-2,2.33,0,3.49l11.45,6.61a5.62,5.62,0,0,0,6,0l11.38-6.62c2-1.16,2-2.32,0-3.48Zm29.54,5.6a5.65,5.65,0,0,0-6,0l-11.39,6.62c-2,1.16-2,2.32,0,3.48l11.46,6.61a5.61,5.61,0,0,0,6,0l11.39-6.61c2-1.16,2-2.32,0-3.48Zm24.44,8.57a5.6,5.6,0,0,0-6,0l-11.38,6.61q-3,1.74,0,3.48l11.45,6.62a5.62,5.62,0,0,0,6,0l11.38-6.62c2-1.16,2-2.32,0-3.48ZM1229,1382.38a5.62,5.62,0,0,0-6,0l-11.38,6.61q-3,1.74,0,3.48l11.46,6.62a5.62,5.62,0,0,0,6,0l11.38-6.61q3-1.74,0-3.48Zm29.83,5.43a5.62,5.62,0,0,0-6,0l-11.38,6.61c-2,1.16-2,2.32,0,3.48l11.46,6.61a5.62,5.62,0,0,0,6,0l11.38-6.62q3-1.74,0-3.48Zm25.05,8.21a5.62,5.62,0,0,0-6,0l-11.38,6.61q-3,1.74,0,3.49l11.46,6.61a5.61,5.61,0,0,0,6,0l11.38-6.61c2-1.17,2-2.32,0-3.48Zm29.54,5.61a5.58,5.58,0,0,0-6,0l-11.38,6.61q-3,1.74,0,3.48l11.45,6.61a5.62,5.62,0,0,0,6,0l11.38-6.61q3-1.74,0-3.48Zm24.45,8.56a5.62,5.62,0,0,0-6,0l-11.39,6.61c-2,1.16-2,2.32,0,3.49l11.45,6.61a5.62,5.62,0,0,0,6,0l11.38-6.62c2-1.16,2-2.32,0-3.48ZM1209,1394a5.62,5.62,0,0,0-6,0l-11.38,6.61q-3,1.74,0,3.48l11.45,6.62a5.62,5.62,0,0,0,6,0l11.38-6.62q3-1.74,0-3.48Zm29.84,5.43a5.6,5.6,0,0,0-6,0l-11.39,6.61c-2,1.16-2,2.32,0,3.48l11.46,6.62a5.62,5.62,0,0,0,6,0l11.39-6.62c2-1.15,2-2.32,0-3.48Zm25,8.21a5.64,5.64,0,0,0-6,0l-11.38,6.62c-2,1.15-2,2.32,0,3.48l11.46,6.61a5.61,5.61,0,0,0,6,0l11.39-6.61c2-1.16,2-2.32,0-3.48Zm29.53,5.61a5.58,5.58,0,0,0-6,0L1276,1419.9c-2,1.16-2,2.32,0,3.48l11.45,6.62a5.64,5.64,0,0,0,6,0l11.38-6.61c2-1.16,2-2.32,0-3.48Zm25.26,8.09a5.62,5.62,0,0,0-6,0l-17.26,10c-2,1.16-2,2.33,0,3.49l11.45,6.61a5.62,5.62,0,0,0,6,0l17.25-10c2-1.15,2-2.32,0-3.48Zm-129.75-15.68a5.61,5.61,0,0,0-6,0l-11.38,6.61q-3,1.74,0,3.48l11.45,6.62a5.62,5.62,0,0,0,6,0l11.38-6.62q3-1.74,0-3.48Zm29.84,5.43a5.62,5.62,0,0,0-6,0l-11.38,6.61q-3,1.74,0,3.48l11.45,6.62a5.64,5.64,0,0,0,6,0l11.38-6.61c2-1.17,2-2.33,0-3.49Zm25,8.22a5.62,5.62,0,0,0-6,0l-11.38,6.62q-3,1.74,0,3.48l11.45,6.61a5.62,5.62,0,0,0,6,0l11.38-6.61q3-1.74,0-3.48Zm29.53,5.6a5.62,5.62,0,0,0-6,0l-11.37,6.61q-3,1.74,0,3.48l11.46,6.61a5.58,5.58,0,0,0,6,0l11.38-6.61c2-1.16,2-2.32,0-3.48Zm-104.48-7.59a5.62,5.62,0,0,0-6,0l-11.38,6.62c-2,1.16-2,2.31,0,3.48l11.45,6.61a5.62,5.62,0,0,0,6,0l11.38-6.61q3-1.76,0-3.49Zm29.83,5.43a5.61,5.61,0,0,0-6,0l-11.38,6.61q-3,1.74,0,3.49l11.45,6.61a5.64,5.64,0,0,0,6,0l11.38-6.61q3-1.76,0-3.49Zm25,8.22a5.6,5.6,0,0,0-6,0l-11.39,6.62q-3,1.74,0,3.48l11.45,6.61a5.6,5.6,0,0,0,6,0l11.39-6.61c2-1.16,2-2.32,0-3.48Zm29.54,5.6a5.62,5.62,0,0,0-6,0l-11.38,6.61q-3,1.74,0,3.48l11.46,6.62a5.6,5.6,0,0,0,6,0l11.38-6.61q3-1.74,0-3.48ZM1148.76,1429a5.62,5.62,0,0,0-6,0l-11.38,6.62c-2,1.16-2,2.31,0,3.48l11.46,6.61a5.62,5.62,0,0,0,6,0l11.38-6.61c2-1.17,2-2.32,0-3.48Zm29.83,5.43a5.61,5.61,0,0,0-6,0l-11.38,6.62c-2,1.16-2,2.31,0,3.48l11.45,6.61a5.62,5.62,0,0,0,6,0l11.38-6.61q3-1.74,0-3.48Zm25.05,8.22a5.62,5.62,0,0,0-6,0l-11.38,6.62c-2,1.16-2,2.32,0,3.48l11.45,6.61a5.58,5.58,0,0,0,6,0l11.38-6.61q3-1.74,0-3.48Zm29.55,5.6a5.64,5.64,0,0,0-6,0l-11.38,6.61c-2,1.17-2,2.32,0,3.48l11.46,6.62a5.61,5.61,0,0,0,6,0l11.38-6.62q3-1.74,0-3.48Zm-104.49-7.59a5.62,5.62,0,0,0-6,0l-11.39,6.62c-2,1.16-2,2.32,0,3.48l11.46,6.61a5.62,5.62,0,0,0,6,0l11.38-6.62c2-1.15,2-2.31,0-3.47Zm29.83,5.43a5.62,5.62,0,0,0-6,0l-11.38,6.61c-2,1.17-2,2.32,0,3.48l11.46,6.62a5.62,5.62,0,0,0,6,0l11.38-6.61q3-1.74,0-3.49Zm25,8.22a5.62,5.62,0,0,0-6,0l-11.38,6.62q-3,1.74,0,3.48l11.45,6.62a5.6,5.6,0,0,0,6,0l11.38-6.61c2-1.16,2-2.32,0-3.48Zm29.54,5.6a5.62,5.62,0,0,0-6,0l-11.38,6.61c-2,1.17-2,2.32,0,3.49l11.46,6.61a5.62,5.62,0,0,0,6,0l11.38-6.62c2-1.16,2-2.31,0-3.48Zm-104.49-7.58a5.58,5.58,0,0,0-6,0l-11.38,6.61q-3,1.74,0,3.48l11.45,6.61a5.62,5.62,0,0,0,6,0l11.38-6.61q3-1.74,0-3.48Zm29.84,5.42a5.62,5.62,0,0,0-6,0l-11.38,6.61c-2,1.16-2,2.32,0,3.48l11.46,6.61a5.6,5.6,0,0,0,6,0l11.38-6.61q3-1.74,0-3.49Zm25,8.22a5.62,5.62,0,0,0-6,0l-11.38,6.61q-3,1.74,0,3.48l11.46,6.62a5.62,5.62,0,0,0,6,0l11.37-6.62c2-1.16,2-2.31,0-3.48Zm29.54,5.6a5.62,5.62,0,0,0-6,0l-11.38,6.62q-3,1.74,0,3.48l11.45,6.61a5.62,5.62,0,0,0,6,0l11.38-6.61c2-1.16,2-2.33,0-3.49Zm100.1-35.4a5.62,5.62,0,0,0-6,0l-91.83,53.36c-2,1.16-2,2.33,0,3.49l11.45,6.61a5.62,5.62,0,0,0,6,0l91.83-53.37c2-1.15,2-2.31,0-3.48ZM1088.56,1464a5.61,5.61,0,0,0-6,0l-11.39,6.61c-2,1.16-2,2.32,0,3.48l11.46,6.61a5.59,5.59,0,0,0,6,0l11.39-6.61c2-1.16,2-2.32,0-3.48Zm29.84,5.43a5.62,5.62,0,0,0-6,0l-11.38,6.62q-3,1.74,0,3.48l11.45,6.61a5.62,5.62,0,0,0,6,0l11.38-6.61c2-1.16,2-2.32,0-3.48Zm25,8.22a5.64,5.64,0,0,0-6,0l-11.38,6.61c-2,1.16-2,2.33,0,3.49l11.46,6.61a5.62,5.62,0,0,0,6,0l11.38-6.62c2-1.16,2-2.31,0-3.48Zm29.53,5.6a5.62,5.62,0,0,0-6,0l-11.37,6.62q-3,1.74,0,3.48l11.46,6.61a5.62,5.62,0,0,0,6,0l11.38-6.61c2-1.16,2-2.32,0-3.48Zm-104.48-7.58a5.62,5.62,0,0,0-6,0l-11.38,6.61q-3,1.74,0,3.48l11.45,6.61a5.58,5.58,0,0,0,6,0l11.38-6.61q3-1.74,0-3.48Zm29.83,5.42a5.62,5.62,0,0,0-6,0l-11.38,6.61c-2,1.16-2,2.32,0,3.48l11.45,6.61a5.66,5.66,0,0,0,6,0l11.38-6.62q3-1.74,0-3.48Zm25.05,8.22a5.64,5.64,0,0,0-6,0l-11.38,6.61c-2,1.16-2,2.33,0,3.49l11.45,6.61a5.62,5.62,0,0,0,6,0l11.38-6.61c2-1.16,2-2.33,0-3.49Zm29.54,5.6a5.62,5.62,0,0,0-6,0l-11.38,6.61q-3,1.74,0,3.48l11.46,6.61a5.62,5.62,0,0,0,6,0l11.38-6.61c2-1.16,2-2.32,0-3.48Zm40.2-.59a5.62,5.62,0,0,0-6,0l-17.25,10q-3,1.74,0,3.48l11.46,6.61a5.61,5.61,0,0,0,6,0l17.26-10c2-1.16,2-2.32,0-3.48Zm-144.69-7a5.62,5.62,0,0,0-6,0l-11.38,6.61c-2,1.16-2,2.32,0,3.48l11.45,6.62a5.64,5.64,0,0,0,6,0l11.38-6.61c2-1.16,2-2.32,0-3.48Zm29.83,5.43a5.61,5.61,0,0,0-6,0l-21.56,12.53q-3,1.74,0,3.48l11.45,6.61a5.64,5.64,0,0,0,6,0l21.56-12.53q3-1.74,0-3.48Zm25.35,8a5.62,5.62,0,0,0-6,0l-27.25,15.83c-2,1.16-2,2.33,0,3.49l11.45,6.61a5.64,5.64,0,0,0,6,0l27.25-15.84c2-1.16,2-2.32,0-3.48Zm29.54,5.6a5.62,5.62,0,0,0-6,0L1090,1528c-2,1.16-2,2.33,0,3.49l11.45,6.61a5.64,5.64,0,0,0,6,0l37.13-21.58q3-1.74,0-3.48Zm34,3a5.66,5.66,0,0,0-6,0l-11.38,6.62q-3,1.74,0,3.48l11.46,6.62a5.63,5.63,0,0,0,6,0l11.39-6.62c2-1.16,2-2.32,0-3.48Zm-20.07,11.66a5.64,5.64,0,0,0-6,0l-11.38,6.61c-2,1.16-2,2.32,0,3.48l11.45,6.62a5.62,5.62,0,0,0,6,0l11.38-6.62q3-1.74,0-3.48Zm-20.07,11.66a5.62,5.62,0,0,0-6,0l-11.38,6.61q-3,1.74,0,3.49l11.45,6.61a5.64,5.64,0,0,0,6,0l11.38-6.62c2-1.16,2-2.32,0-3.48Z"/><polygon class="cls-17" points="1122.15 1556.38 1081.37 1579.93 966.33 1513.51 1007.11 1489.96 1122.15 1556.38"/><polygon class="cls-17" points="1459.85 1359.68 1419.07 1383.22 1304.03 1316.8 1344.8 1293.26 1459.85 1359.68"/><path class="cls-18" d="M1159.2,1217.15c-7.37,10.1-14.78,20.23-22.11,30.36-3.07,4.21-8.27,12.19-12.09,14.4l0,0,0,0c-3.83,2.2-9,.22-12.1-.44-7.32-1.68-14.74-3.24-22.06-4.86-3.35-.67-8.12-4-8.12-9,0-5.31,2.5-11.3,7.56-14.22l69.53-40.14c4.11-2.38,7.56-.47,7.56,4.3C1167.28,1203.71,1163.36,1211.44,1159.2,1217.15Zm8.08,39.41c0,4.77-3.4,10.63-7.56,13l-69.53,40.14c-4.16,2.41-7.56.47-7.56-4.29v-43a12.81,12.81,0,0,0,4.77,2c7.84,1.59,15.78,3.12,23.48,5.12,4,1.07,8.87,2.35,14-.62l0,0,0,0c5.15-3,10.06-9.92,14-15.57,7.7-10.84,15.64-21.59,23.52-32.26a67.5,67.5,0,0,0,4.73-7.44Z"/><g id="Buttons-screen"><path id="screen_blank_0_Layer0_2_1_STROKES" data-name="screen blank 0 Layer0 2 1 STROKES" class="cls-4" d="M962.17,1217.76a8.67,8.67,0,0,1,4.07-7,2.47,2.47,0,0,1,4.06,2.32,9.25,9.25,0,0,1-4.06,7,2.83,2.83,0,0,1-2.91.28A2.72,2.72,0,0,1,962.17,1217.76Z"/><path id="screen_blank_0_Layer0_3_1_STROKES" data-name="screen blank 0 Layer0 3 1 STROKES" class="cls-17" d="M981.27,1206.73a8.12,8.12,0,0,1,1.17-4,8.25,8.25,0,0,1,2.9-3,2.79,2.79,0,0,1,2.84-.31,2.75,2.75,0,0,1,1.22,2.63,7.62,7.62,0,0,1-1.22,4,7.77,7.77,0,0,1-2.84,3,2.81,2.81,0,0,1-2.9.28A2.71,2.71,0,0,1,981.27,1206.73Z"/><path id="screen_blank_0_Layer0_4_1_STROKES" data-name="screen blank 0 Layer0 4 1 STROKES" class="cls-16" d="M1000.28,1195.76a8.7,8.7,0,0,1,4.06-7,2.47,2.47,0,0,1,4.07,2.31,9.22,9.22,0,0,1-4.07,7,2.81,2.81,0,0,1-2.9.28A2.73,2.73,0,0,1,1000.28,1195.76Z"/></g><g id="Touchpad"><path id="Shadow1" class="cls-19" d="M1475.84,1483.49q3.81,2.21,0,4.41l-173.1,100.6a7.13,7.13,0,0,1-7.62,0l-105.47-60.9q-3.83-2.2,0-4.41l173.1-100.6a7.12,7.12,0,0,1,7.61,0Z"/><path id="Shadow1-2" data-name="Shadow1" class="cls-20" d="M1475.84,1483.49q3.81,2.21,0,4.41l-173.1,100.6a7.13,7.13,0,0,1-7.62,0l-105.47-60.9q-3.83-2.2,0-4.41l173.1-100.6a7.12,7.12,0,0,1,7.61,0Z"/><path id="Shadow1-3" data-name="Shadow1" class="cls-21" d="M1475.84,1483.49q3.81,2.21,0,4.41l-173.1,100.6a7.13,7.13,0,0,1-7.62,0l-105.47-60.9q-3.83-2.2,0-4.41l173.1-100.6a7.12,7.12,0,0,1,7.61,0Z"/><path id="Shadow1-4" data-name="Shadow1" class="cls-22" d="M1475.84,1483.49q3.81,2.21,0,4.41l-173.1,100.6a7.13,7.13,0,0,1-7.62,0l-105.47-60.9q-3.83-2.2,0-4.41l173.1-100.6a7.12,7.12,0,0,1,7.61,0Z"/></g></g><g id="Text-box3"><use width="294.47" height="181.76" transform="translate(1235.32 1159.5)" xlink:href="#text-pop-box"/><path class="cls-18" d="M1456.05,1284.8a23.83,23.83,0,1,1,23.83-23.82A23.83,23.83,0,0,1,1456.05,1284.8Zm0-43.68a19.86,19.86,0,1,0,19.86,19.86A19.87,19.87,0,0,0,1456.05,1241.12Zm-7.94,15.88a4,4,0,1,1,4-4A4,4,0,0,1,1448.11,1257Zm7.94,17.88a11.83,11.83,0,0,1-11.35-8.35,2,2,0,0,1,3.78-1.18,7.94,7.94,0,0,0,15.15,0,2,2,0,0,1,2.51-1.3,2,2,0,0,1,1.27,2.48A11.83,11.83,0,0,1,1456.05,1274.88Zm8-17.88a4,4,0,1,1,4-4A3.95,3.95,0,0,1,1464,1257Z"/><line class="cls-23" x1="1317.83" y1="1221.07" x2="1451.58" y2="1221.07"/><line class="cls-23" x1="1317.83" y1="1274.45" x2="1406.2" y2="1274.45"/><line class="cls-23" x1="1317.83" y1="1247.76" x2="1406.2" y2="1247.76"/></g><g id="Text-box2"><use width="293.53" height="181.76" transform="matrix(-1, 0, 0, 1, 1408.2, 949.57)" xlink:href="#text-pop-box_2"/><path class="cls-18" d="M1209.66,1027.28a2.92,2.92,0,0,1-2.92,2.92h-29.21a2.91,2.91,0,0,1-2.91-2.92v-17.52a2.91,2.91,0,0,1,2.91-2.92h1V1001a13.63,13.63,0,1,1,27.26,0v5.84h1a2.92,2.92,0,0,1,2.92,2.92Zm-9.73-20.44V1001a7.79,7.79,0,1,0-15.58,0v5.84Z"/><path class="cls-18" d="M1255.34,1008.39l-11.07,23.55a3.88,3.88,0,0,1-3.5,2.16,3.81,3.81,0,0,1-3.47-2.16l-11.1-23.55a12.76,12.76,0,0,1-1-5.44,15.58,15.58,0,0,1,31.16,0A12.76,12.76,0,0,1,1255.34,1008.39Zm-14.57-13.23a7.79,7.79,0,1,0,7.79,7.79A7.81,7.81,0,0,0,1240.77,995.16Z"/><line class="cls-23" x1="1178.96" y1="1056.6" x2="1312.72" y2="1056.6"/><line class="cls-23" x1="1178.96" y1="1083.29" x2="1267.33" y2="1083.29"/></g><g id="Text-box1"><use width="294.47" height="181.76" transform="translate(1234.02 743.76)" xlink:href="#text-pop-box"/><path class="cls-18" d="M1363.74,806.63a1.16,1.16,0,0,1-.85,1.09l-5.63.85a17.09,17.09,0,0,1-1.18,2.77c1,1.49,2.13,2.83,3.25,4.2a1.15,1.15,0,0,1,.31.76,1,1,0,0,1-.28.69c-.73,1-4.83,5.45-5.87,5.45a1.52,1.52,0,0,1-.79-.28l-4.19-3.28a18.64,18.64,0,0,1-2.77,1.16,38.8,38.8,0,0,1-.88,5.65,1.11,1.11,0,0,1-1.1.85H1337a1.09,1.09,0,0,1-1.1-.91l-.85-5.59a18.16,18.16,0,0,1-2.74-1.13l-4.28,3.25a1.15,1.15,0,0,1-.76.28,1,1,0,0,1-.76-.34,37.87,37.87,0,0,1-5-5.11,1.17,1.17,0,0,1-.21-.69,1.14,1.14,0,0,1,.24-.7c1-1.4,2.16-2.74,3.19-4.17a16,16,0,0,1-1.24-3l-5.57-.82a1.1,1.1,0,0,1-.88-1.09v-6.75a1.17,1.17,0,0,1,.82-1.1l5.66-.85a16.21,16.21,0,0,1,1.18-2.79c-1-1.47-2.13-2.83-3.25-4.2a1.13,1.13,0,0,1-.3-.73,1.19,1.19,0,0,1,.27-.7c.73-1,4.83-5.44,5.87-5.44a1.39,1.39,0,0,1,.79.3l4.19,3.25a18.59,18.59,0,0,1,2.77-1.15,40.58,40.58,0,0,1,.88-5.66,1.12,1.12,0,0,1,1.1-.85h6.74a1.09,1.09,0,0,1,1.1.92l.85,5.59a18.11,18.11,0,0,1,2.74,1.12l4.32-3.25a1,1,0,0,1,.72-.27,1.19,1.19,0,0,1,.76.3,38.3,38.3,0,0,1,5,5.17,1.05,1.05,0,0,1,.21.67,1.16,1.16,0,0,1-.24.7c-1,1.4-2.16,2.73-3.19,4.16a17.26,17.26,0,0,1,1.24,3l5.57.85a1.11,1.11,0,0,1,.88,1.1Zm-23.35-11.22a7.79,7.79,0,1,0,7.78,7.78A7.8,7.8,0,0,0,1340.39,795.41Z"/><path class="cls-18" d="M1387.92,805.5a6.13,6.13,0,0,0-2.91,4,1.44,1.44,0,0,1-1.22,1.46h-7.3c-.67,0-1.09-1-1.09-1.71V807.9c0-3.67,3.64-6.83,6.32-8,2.34-1.07,3.31-2.07,3.31-4,0-1.71-2.21-3.23-4.68-3.23a6.26,6.26,0,0,0-3.28.88,17.46,17.46,0,0,0-3.26,3.5,1.23,1.23,0,0,1-.94.49,1.38,1.38,0,0,1-.76-.25l-5-3.8a1.2,1.2,0,0,1-.31-1.61c3.28-5.44,7.91-8.08,14.11-8.08,6.5,0,13.8,5.19,13.8,12.16C1394.73,801.67,1390.81,803.89,1387.92,805.5Zm-2.8,15.93a1.22,1.22,0,0,1-1.21,1.22h-7.3a1.22,1.22,0,0,1-1.21-1.22v-7.29a1.22,1.22,0,0,1,1.21-1.22h7.3a1.22,1.22,0,0,1,1.21,1.22Z"/><line class="cls-23" x1="1316.61" y1="852.44" x2="1450.37" y2="852.44"/><line class="cls-23" x1="1316.61" y1="879.13" x2="1404.98" y2="879.13"/></g></svg>