<svg xmlns="http://www.w3.org/2000/svg" xmlns:xlink="http://www.w3.org/1999/xlink" viewBox="0 0 2500 2500"><defs><linearGradient id="abba5a6f-0311-4366-b610-3d8707520fbb" x1="1135.25" y1="1116.18" x2="1370.36" y2="1116.18" gradientTransform="translate(-321.04 15.11) scale(1.24 1)" gradientUnits="userSpaceOnUse"><stop offset="0" stop-color="#fff"/><stop offset="1"/></linearGradient><linearGradient id="b00ce452-3f58-4405-9111-355d711b0325" x1="16774.47" y1="1473.24" x2="17121.97" y2="1473.24" gradientTransform="translate(-1407.87 17064.24) rotate(-90)" gradientUnits="userSpaceOnUse"><stop offset="0" stop-color="#00b287" stop-opacity="0.1"/><stop offset="0.17" stop-color="#00b287" stop-opacity="0.12"/><stop offset="0.33" stop-color="#00b287" stop-opacity="0.18"/><stop offset="0.48" stop-color="#00b287" stop-opacity="0.29"/><stop offset="0.63" stop-color="#00b287" stop-opacity="0.44"/><stop offset="0.78" stop-color="#00b287" stop-opacity="0.63"/><stop offset="0.92" stop-color="#00b287" stop-opacity="0.86"/><stop offset="1" stop-color="#00b287"/></linearGradient><linearGradient id="bc36895a-c99b-4f5f-9128-9241104e322f" x1="17256.96" y1="1473.24" x2="16909.1" y2="1473.24" xlink:href="#b00ce452-3f58-4405-9111-355d711b0325"/><filter id="f7c7caec-bbf1-4bc0-938c-1e15ac782792" name="AI_DesenfoqueGaussiano_4"><feGaussianBlur stdDeviation="4"/></filter><linearGradient id="bf13b41e-04b0-4551-bf38-7c5e692fb070" x1="21.86" y1="32.92" x2="240.46" y2="32.92" gradientUnits="userSpaceOnUse"><stop offset="0" stop-color="#0f0b26" stop-opacity="0.5"/><stop offset="0.48" stop-color="#0f0b26" stop-opacity="0.1"/><stop offset="1" stop-color="#0f0b26" stop-opacity="0"/></linearGradient><linearGradient id="b23e041d-1e19-4ad3-9539-27aa4dc73817" x1="13.5" y1="157.97" x2="540.93" y2="157.97" gradientUnits="userSpaceOnUse"><stop offset="0" stop-color="#a9a7b7"/><stop offset="0.59" stop-color="#8c8b9f"/><stop offset="1" stop-color="#7d7c93"/></linearGradient><linearGradient id="b8e26256-8ef8-4c12-85a7-7c07c8175a43" x1="13.5" y1="225.67" x2="741.46" y2="225.67" gradientUnits="userSpaceOnUse"><stop offset="0" stop-color="#6e6c86"/><stop offset="0.95" stop-color="#7c7b92"/><stop offset="1" stop-color="#7d7c93"/></linearGradient><linearGradient id="bc20317a-04ba-4151-9e56-3e8bfa142e04" x1="159.67" y1="387.05" x2="503.54" y2="-231.8" gradientUnits="userSpaceOnUse"><stop offset="0.01" stop-color="#141226"/><stop offset="0.58" stop-color="#27244b"/><stop offset="0.98" stop-color="#27244b"/><stop offset="1" stop-color="#27244b"/></linearGradient><linearGradient id="b6943f10-fcff-4673-8792-746451eca83b" x1="91.8" y1="239.06" x2="180.17" y2="239.06" gradientTransform="translate(374.96 100.79) rotate(89.64)" xlink:href="#b23e041d-1e19-4ad3-9539-27aa4dc73817"/><linearGradient id="b5ed79de-183b-430f-8e51-f713cbc388a4" x1="122" y1="239.06" x2="151.53" y2="239.06" gradientTransform="translate(374.96 100.79) rotate(89.64)" gradientUnits="userSpaceOnUse"><stop offset="0" stop-color="#7d7c93"/><stop offset="0.41" stop-color="#8c8b9f"/><stop offset="1" stop-color="#a9a7b7"/></linearGradient><linearGradient id="b8145177-ca32-4f49-a263-049920d0c902" x1="9.77" y1="14.5" x2="9.44" y2="6.11" xlink:href="#b23e041d-1e19-4ad3-9539-27aa4dc73817"/><clipPath id="a01d9423-1134-4952-b211-4430f70b407c"><polygon points="1638.4 1633.46 1806.61 1825.83 2237.9 1770.29 2372.18 1493.76 2221.99 1045.24 2077.45 998.19 1866.44 995.46 1608.33 1015.99 1638.4 1633.46" fill="none"/></clipPath><linearGradient id="e3914790-69e5-41a2-9a84-ebcfaee101db" x1="-1117.94" y1="977.06" x2="-815.27" y2="977.06" gradientTransform="matrix(-0.93, -0.37, -0.37, 0.93, 1572.97, 335.94)" gradientUnits="userSpaceOnUse"><stop offset="0" stop-color="#4bc7ee" stop-opacity="0.1"/><stop offset="0.02" stop-color="#42bfea" stop-opacity="0.1"/><stop offset="0.15" stop-color="#1da1dc" stop-opacity="0.1"/><stop offset="0.87" stop-color="#0071b0" stop-opacity="0.3"/></linearGradient><linearGradient id="e7f4c6af-cdbb-411f-8c89-3e802f3e5956" x1="-468.69" y1="837.23" x2="-542.96" y2="777.58" xlink:href="#e3914790-69e5-41a2-9a84-ebcfaee101db"/><linearGradient id="ecafcd3a-5cc7-4a04-b4a7-b99ab9d35633" x1="-822.75" y1="938.49" x2="-706.09" y2="938.49" gradientTransform="matrix(-0.87, -0.49, -0.49, 0.87, 1702.94, 287.19)" xlink:href="#e3914790-69e5-41a2-9a84-ebcfaee101db"/><linearGradient id="b42c524c-85c4-4011-ba69-cf6d1216414a" x1="-787.1" y1="951.15" x2="-691.07" y2="951.15" gradientTransform="translate(2258.56 456.02) rotate(-11.19)" xlink:href="#e3914790-69e5-41a2-9a84-ebcfaee101db"/><linearGradient id="fbe7d430-d86f-4e85-927e-f466c62f29f8" x1="-840.08" y1="798.73" x2="-569.92" y2="703.63" gradientTransform="matrix(-0.93, -0.37, -0.37, 0.93, 1572.97, 335.94)" gradientUnits="userSpaceOnUse"><stop offset="0" stop-color="#4bc7ee" stop-opacity="0.1"/><stop offset="0.06" stop-color="#42bfea" stop-opacity="0.1"/><stop offset="0.6" stop-color="#1da1dc" stop-opacity="0.1"/><stop offset="0.87" stop-color="#0071b0" stop-opacity="0.3"/></linearGradient><linearGradient id="a0e0132f-8332-4b4b-8078-c19ae888663f" x1="1679.64" y1="1810.36" x2="1935.4" y2="1391.61" gradientUnits="userSpaceOnUse"><stop offset="0.27" stop-color="#141226" stop-opacity="0.6"/><stop offset="0.67" stop-color="#0071b0" stop-opacity="0.1"/><stop offset="0.83" stop-color="#1e89c0" stop-opacity="0.08"/><stop offset="0.97" stop-color="#7ad3f3" stop-opacity="0.02"/><stop offset="1" stop-color="#90e5ff" stop-opacity="0"/></linearGradient><linearGradient id="e0ef5e6b-08d3-4bfb-9be2-0c0ab2df85c7" x1="1827.79" y1="1728.58" x2="1788.92" y2="1762.15" gradientUnits="userSpaceOnUse"><stop offset="0" stop-color="#4bc7ee" stop-opacity="0.1"/><stop offset="0.02" stop-color="#42bfea" stop-opacity="0.1"/><stop offset="0.15" stop-color="#1da1dc" stop-opacity="0.1"/><stop offset="0.86" stop-color="#0071b0" stop-opacity="0.6"/></linearGradient><radialGradient id="eb614634-be62-40d0-8d9e-b6efd98c036c" cx="1380.84" cy="1000.06" r="76.25" gradientTransform="matrix(-0.41, 0.71, -0.41, -0.7, 2767.16, 1543.11)" gradientUnits="userSpaceOnUse"><stop offset="0" stop-color="#0f0b26" stop-opacity="0.3"/><stop offset="1" stop-color="#0f0b26" stop-opacity="0"/></radialGradient><linearGradient id="bcb1a0c3-51b8-4a95-a8a3-3c4e49fd2a84" x1="737.77" y1="743.81" x2="1087.12" y2="1196.67" gradientUnits="userSpaceOnUse"><stop offset="0.01" stop-color="#141226"/><stop offset="0.58" stop-color="#202f64"/><stop offset="0.98" stop-color="#202f64"/><stop offset="1" stop-color="#202f64"/></linearGradient><linearGradient id="a61595c4-82e6-447f-941a-8e313a834f92" x1="1296.02" y1="1621.59" x2="809.69" y2="756.27" gradientUnits="userSpaceOnUse"><stop offset="0" stop-color="#90aac1" stop-opacity="0.5"/><stop offset="0.56" stop-color="#90aac1" stop-opacity="0.1"/><stop offset="0.82" stop-color="#90aac1" stop-opacity="0"/></linearGradient><linearGradient id="b0206ec7-f253-4927-9d12-3cb0ca9ee0a2" x1="1463.61" y1="1464.24" x2="1411.48" y2="1548.17" xlink:href="#a61595c4-82e6-447f-941a-8e313a834f92"/><linearGradient id="ea5c62fc-e7b8-4f86-af8e-74d2d1035f10" x1="1072.66" y1="625.04" x2="1975.09" y2="2262.93" gradientUnits="userSpaceOnUse"><stop offset="0" stop-color="#fff" stop-opacity="0.4"/><stop offset="0.24" stop-color="#fff" stop-opacity="0.4"/><stop offset="0.41" stop-color="#b7d4f4" stop-opacity="0.4"/><stop offset="1" stop-color="#b7d4f4" stop-opacity="0"/></linearGradient><linearGradient id="ac8ad722-be82-461b-abcc-515acc24615a" x1="909.39" y1="1110.84" x2="1460.72" y2="1110.84" gradientUnits="userSpaceOnUse"><stop offset="0.19" stop-color="#b7d4f4" stop-opacity="0.4"/><stop offset="1" stop-color="#b7d4f4" stop-opacity="0"/></linearGradient><linearGradient id="a15504ea-902b-4b82-bbd9-cc7739b80342" x1="938.05" y1="1280.98" x2="1383.3" y2="959.4" xlink:href="#ac8ad722-be82-461b-abcc-515acc24615a"/><radialGradient id="bc4634a2-830d-451f-b820-8be921e90a68" cx="1243.15" cy="1225.48" r="250.48" gradientUnits="userSpaceOnUse"><stop offset="0.19" stop-color="#fff" stop-opacity="0.4"/><stop offset="0.2" stop-color="#fff" stop-opacity="0.4"/><stop offset="0.75" stop-color="#fff" stop-opacity="0.11"/><stop offset="1" stop-color="#fff" stop-opacity="0"/></radialGradient><linearGradient id="a8327ddb-0aee-40e0-a318-f19f67e266ea" x1="819.33" y1="1132.19" x2="1467.96" y2="1132.19" gradientUnits="userSpaceOnUse"><stop offset="0" stop-color="#12abbb"/><stop offset="0.36" stop-color="#12abbb"/><stop offset="0.5" stop-color="#12abbb"/><stop offset="1" stop-color="#0088a1"/></linearGradient><linearGradient id="f546e8a6-0129-4730-b079-362615fc644e" x1="1439.8" y1="1610.42" x2="1647.84" y2="1434.17" gradientUnits="userSpaceOnUse"><stop offset="0.01" stop-color="#12abbb" stop-opacity="0"/><stop offset="0.2" stop-color="#12abbb" stop-opacity="0.2"/><stop offset="0.35" stop-color="#12abbb" stop-opacity="0.4"/><stop offset="0.56" stop-color="#95eee5" stop-opacity="0.7"/><stop offset="0.63" stop-color="#98e9e4" stop-opacity="0.7"/><stop offset="0.68" stop-color="#9edde3" stop-opacity="0.7"/></linearGradient><linearGradient id="f21e236c-4308-4a77-8496-0367a265a8d7" x1="1561.13" y1="1543.1" x2="1810.25" y2="1867.32" gradientUnits="userSpaceOnUse"><stop offset="0" stop-color="#141226" stop-opacity="0"/><stop offset="0.16" stop-color="#141226" stop-opacity="0.17"/><stop offset="0.38" stop-color="#141226" stop-opacity="0.64"/><stop offset="0.44" stop-color="#141226" stop-opacity="0.8"/></linearGradient><linearGradient id="ba319aad-a8ad-46f0-8360-066089f60c49" x1="1676.98" y1="1767.1" x2="1749.86" y2="1710.12" xlink:href="#bcb1a0c3-51b8-4a95-a8a3-3c4e49fd2a84"/><linearGradient id="faa20894-77d4-4af2-88db-d216946757af" x1="1677.47" y1="1678.55" x2="1845.89" y2="1894.34" gradientUnits="userSpaceOnUse"><stop offset="0" stop-color="#141226" stop-opacity="0"/><stop offset="1" stop-color="#141226" stop-opacity="0.8"/></linearGradient><mask id="aec3f822-fddc-4d34-a698-7199ffd500bb" x="986.59" y="865.43" width="485.48" height="531.71" maskUnits="userSpaceOnUse"><rect x="1083.85" y="908.76" width="290.95" height="445.06" transform="translate(-416.6 844.98) rotate(-32.75)" fill="url(#abba5a6f-0311-4366-b610-3d8707520fbb)"/></mask><radialGradient id="e10f74a8-4141-41c6-8653-df3ef94e132d" cx="931.05" cy="1799.46" r="129.63" gradientTransform="matrix(-0.41, 0.71, -0.41, -0.7, 2030.68, 2566.17)" xlink:href="#eb614634-be62-40d0-8d9e-b6efd98c036c"/><linearGradient id="e6c45d42-44c2-43a5-8f1f-c6e59855c9ee" x1="714.94" y1="1873.65" x2="1176.51" y2="1690.38" gradientUnits="userSpaceOnUse"><stop offset="0" stop-color="#fcfdfe" stop-opacity="0.8"/><stop offset="0.55" stop-color="#f5f8fa" stop-opacity="0.8"/><stop offset="0.98" stop-color="#e5f4fa" stop-opacity="0.1"/></linearGradient><symbol id="b60b8970-85a5-4e88-842b-ef42bdf8041c" data-name="shadowsvgdark 2" viewBox="0 0 262 66"><g filter="url(#f7c7caec-bbf1-4bc0-938c-1e15ac782792)"><path d="M240.46,32.92c.09,15.15-21,27.43-47.19,27.42H69.36A81.87,81.87,0,0,1,61,59.92c-.78-.08-1.55-.18-2.31-.28s-1.52-.21-2.27-.34-1.49-.25-2.23-.4-1.46-.29-2.17-.46c-1.35-.3-2.66-.65-4-1L46.78,57l-2-.67c-.65-.22-1.29-.46-1.92-.71-1.26-.49-2.48-1-3.65-1.58-.59-.28-1.16-.56-1.73-.86s-1.11-.6-1.65-.91-1.06-.63-1.57-1-1-.66-1.49-1A33,33,0,0,1,30,48.25c-.43-.36-.84-.73-1.24-1.11S28,46.38,27.65,46l-.53-.58a23.09,23.09,0,0,1-1.78-2.25l-.55-.81-.39-.63c-.25-.43-.48-.86-.7-1.29s-.41-.87-.59-1.32-.34-.89-.48-1.34c-.07-.22-.14-.45-.2-.67-.12-.46-.22-.92-.31-1.38a17.35,17.35,0,0,1-.26-2.8c-.08-15.15,21-27.43,47.2-27.43H194.18c1.63,0,3.23.1,4.81.21,1.19.09,2.36.2,3.52.34s2.29.3,3.42.48q2.64.43,5.16,1l1.37.34c1.4.37,2.76.77,4.09,1.21q1,.33,1.95.69a53,53,0,0,1,8,3.71,35.91,35.91,0,0,1,8.18,6.32c.37.39.72.79,1.06,1.19s.65.8,1,1.21a20.28,20.28,0,0,1,1.94,3.17,17.58,17.58,0,0,1,1.44,4,15.25,15.25,0,0,1,.38,2.78C240.45,32.45,240.46,32.68,240.46,32.92Z" fill="url(#bf13b41e-04b0-4551-bf38-7c5e692fb070)"/></g></symbol><symbol id="fa4c4569-89e5-4fd5-9d74-9656dba3433c" data-name="button tablet green" viewBox="0 0 130.75 130.75"><circle cx="65.38" cy="65.38" r="65.38" fill="url(#b00ce452-3f58-4405-9111-355d711b0325)"/><circle cx="65.38" cy="65.38" r="41.39" fill="url(#bc36895a-c99b-4f5f-9128-9241104e322f)"/></symbol><symbol id="bf7f44fd-a491-42a2-a392-43439ca97f7d" data-name="tablet button" viewBox="0 0 17.19 12.58"><path d="M17.19,2.34A3.71,3.71,0,0,1,16.74,4a3,3,0,0,1-1.08,1.21L3.26,12.4a.91.91,0,0,1-1.08,0h0a1.48,1.48,0,0,1-.43-1.15v0a3.75,3.75,0,0,1,.45-1.69A3,3,0,0,1,3.26,8.35l12.18-7,.22-.13a1,1,0,0,1,1-.09h0A1.32,1.32,0,0,1,17.19,2.34Z" fill="url(#b8145177-ca32-4f49-a263-049920d0c902)"/><line x1="16.64" y1="1.1" x2="16.64" y2="1.1" fill="none" stroke="#000" stroke-miterlimit="10"/><path d="M16.64,1.1a1,1,0,0,0-1,.09l-.22.13-12.18,7A3,3,0,0,0,2.19,9.56a3.75,3.75,0,0,0-.45,1.69v0a1.48,1.48,0,0,0,.43,1.15L.64,11.53h0A1.27,1.27,0,0,1,0,10.25,3.76,3.76,0,0,1,.44,8.56,3,3,0,0,1,1.52,7.34L13.92.18a1.24,1.24,0,0,1,.5-.17.79.79,0,0,1,.46.07l0,0Z" fill="#a9a7b7"/><line x1="0.63" y1="11.53" x2="0.58" y2="11.49" fill="none" stroke="#000" stroke-miterlimit="10"/></symbol><symbol id="e289adc3-3953-499f-975e-84127df97bd1" data-name="tablet" viewBox="0 0 554.43 331.51"><path d="M540.93,138.92a7.85,7.85,0,0,1-2.23,5.17,16.07,16.07,0,0,1-4.05,3.21L245.25,314.38c-7.59,4.38-19.08,4.86-25.65,1.06L17.94,199a11.13,11.13,0,0,1-2.21-1.64,6.56,6.56,0,0,1-2.23-4.8c0-2.91,2.13-6,6.28-8.38L309.17,17.12c7.6-4.38,19.08-4.86,25.66-1.06L536.49,132.49C539.47,134.21,540.93,136.51,540.93,138.92Z" fill="none" stroke="#022e49" stroke-width="27" opacity="0.15"/><path d="M540.93,138.92a7.85,7.85,0,0,1-2.23,5.17,16.07,16.07,0,0,1-4.05,3.21L245.25,314.38c-7.59,4.38-19.08,4.86-25.65,1.06L17.94,199a11.13,11.13,0,0,1-2.21-1.64,6.56,6.56,0,0,1-2.23-4.8c0-2.91,2.13-6,6.28-8.38L309.17,17.12c7.6-4.38,19.08-4.86,25.66-1.06L536.49,132.49C539.47,134.21,540.93,136.51,540.93,138.92Z" fill="none" stroke="#022e49" stroke-width="20" opacity="0.41"/><path d="M540.93,138.92a7.85,7.85,0,0,1-2.23,5.17,16.07,16.07,0,0,1-4.05,3.21L245.25,314.38c-7.59,4.38-19.08,4.86-25.65,1.06L17.94,199a11.13,11.13,0,0,1-2.21-1.64,6.56,6.56,0,0,1-2.23-4.8c0-2.91,2.13-6,6.28-8.38L309.17,17.12c7.6-4.38,19.08-4.86,25.66-1.06L536.49,132.49C539.47,134.21,540.93,136.51,540.93,138.92Z" fill="none" stroke="#022e49" stroke-width="11" opacity="0.72"/><path d="M540.93,131.14a7.85,7.85,0,0,1-2.23,5.17,16.07,16.07,0,0,1-4.05,3.21L245.25,306.6c-7.59,4.38-19.08,4.86-25.65,1.06L17.94,191.24a11.13,11.13,0,0,1-2.21-1.64,6.56,6.56,0,0,1-2.23-4.8c0-2.91,2.13-6,6.28-8.38L309.17,9.34c7.6-4.38,19.08-4.86,25.66-1.06L536.49,124.71C539.47,126.43,540.93,128.73,540.93,131.14Z" fill="url(#b23e041d-1e19-4ad3-9539-27aa4dc73817)"/><path d="M540.93,131.14v10c0,2.91-2.13,6-6.28,8.38L245.25,316.57c-7.59,4.38-19.08,4.86-25.65,1.06L17.94,201.2c-3-1.72-4.44-4-4.44-6.43v-10a6.56,6.56,0,0,0,2.23,4.8,11.13,11.13,0,0,0,2.21,1.64L219.6,307.66c6.57,3.8,18.06,3.32,25.65-1.06l289.4-167.08a16.07,16.07,0,0,0,4.05-3.21A7.85,7.85,0,0,0,540.93,131.14Z" fill="url(#b8e26256-8ef8-4c12-85a7-7c07c8175a43)"/><path d="M252.53,285.44,56.43,172.22c-4-2.32-3.52-6.39,1.13-9.07L314.88,14.58c4.65-2.68,11.69-3,15.72-.65L526.7,127.15c4,2.33,3.52,6.39-1.13,9.07L268.25,284.79C263.6,287.47,256.56,287.77,252.53,285.44Z" fill="url(#bc20317a-04ba-4151-9e56-3e8bfa142e04)"/><ellipse cx="136.77" cy="239.06" rx="8.24" ry="14.27" transform="translate(-103.15 374.32) rotate(-89.64)" stroke-miterlimit="10" fill="url(#b6943f10-fcff-4673-8792-746451eca83b)" stroke="url(#b5ed79de-183b-430f-8e51-f713cbc388a4)"/><use width="130.76" height="130.76" transform="matrix(0.53, 0.31, -0.53, 0.31, 233.06, 135.33)" xlink:href="#fa4c4569-89e5-4fd5-9d74-9656dba3433c"/><use width="17.19" height="12.58" transform="translate(483.49 163.36)" xlink:href="#bf7f44fd-a491-42a2-a392-43439ca97f7d"/><use width="17.19" height="12.58" transform="translate(464.2 174.25)" xlink:href="#bf7f44fd-a491-42a2-a392-43439ca97f7d"/></symbol></defs><g style="isolation:isolate"><g id="fe92b201-0bbb-4c07-bcf2-cf4f8e77edd2" data-name="ARTWORK"><g id="bc66de95-de48-458a-93ce-24d54f9a65cc" data-name="Plant12"><path d="M1940.2,1610.9q94.32-150,219.91-106.72,72.6,27,112.85,90.07-138.81-60.45-332.76,16.65m212.77,4.23q-113.62-11.46-212.77-4.23,194-77.09,332.76-16.65Q2246.82,1624.36,2153,1615.13Z" fill="#1da1dc"/><path d="M1821.83,1446.52q-29.24-244.33-172.44-342,104.16,7,176.33,78.92,83.34,116.71-3.89,263m-100.68-158.75q-32.89-37.45-50.47-77.69-27.83-63.63-21.29-105.52,143.2,97.62,172.44,342Q1795,1365.82,1721.15,1287.77Z" fill="#1da1dc"/><path d="M2060.41,1160.63q85,85.61,89.94,217.95-8.73,89.49-74.87,146.84-27.55,23.94-78.41,46.79Q2075.82,1393.95,2060.41,1160.63Z" fill="#4bc7ee"/><path d="M1898.58,1559.54q10.39,7.43,10.09,38.72-.48,31.71-87,72.62Q1850.74,1593.8,1898.58,1559.54Z" fill="#4bc7ee"/><path d="M1866.18,1754.64q-80.52,8.05-119.15-15.53Q1837.78,1690.92,1866.18,1754.64Z" fill="#1da1dc"/><path d="M1812.78,1610.6q-16.69,50.36-49.31,64.13Q1758.46,1624,1812.78,1610.6Z" fill="#1da1dc"/><g clip-path="url(#a01d9423-1134-4952-b211-4430f70b407c)"><g id="ecb9bee8-6b49-4287-97cc-2c0b42367078" data-name="Layer1 9 MEMBER 1 FILL"><path d="M1821.83,1446.52q-9.27,67.89-30.64,142.62a415.66,415.66,0,0,0-17.72,100.58q96.16-39.43,176.71-94.12,49.62-33.94,79.11-70.67l-15.17,37.83a2397.39,2397.39,0,0,1-240.87,142.34q-89.24,91.13-167,223.16l-17.27-6.92q32.47-48.85,66.37-94.81-1.55-1.37-3.31-3.16-11.09-11.1-20-65.91t11.78-89.88q-10.86,40.2-6.13,68.26t13.71,46.58q9.07,18.63,12.21,24.1,1.55,2.84,2.72,5.3,42.26-56.33,86.72-108.14a2219.35,2219.35,0,0,0,66.79-300.13Q1830.36,1433,1821.83,1446.52Z" fill="#0071b0"/></g><path d="M2273,1594.25q-26.14,30.11-120,20.88-113.62-11.46-212.77-4.23Q2134.15,1533.82,2273,1594.25Z" fill="url(#e3914790-69e5-41a2-9a84-ebcfaee101db)"/><path d="M1940.2,1610.9q94.32-150,219.91-106.72,72.6,27,112.85,90.07Q2134.15,1533.8,1940.2,1610.9Z" fill="#1da1dc"/><path d="M1649.39,1104.56q104.16,7,176.33,78.92,83.34,116.71-3.89,263Q1792.59,1202.19,1649.39,1104.56Z" fill="#1da1dc"/><path d="M1821.83,1446.52q-26.79-80.7-100.68-158.75-32.89-37.45-50.47-77.69-27.83-63.63-21.29-105.52Q1792.59,1202.18,1821.83,1446.52Z" fill="url(#e7f4c6af-cdbb-411f-8c89-3e802f3e5956)"/><path d="M1959.83,1487.75q-62.25,57-160.32,71,91.17-92.73,204.8-168,18.54,39.42-44.48,97m-76.77-82.57q75.48-36.56,121.25-14.48-113.62,75.29-204.8,168Q1830.38,1430.64,1883.06,1405.18Z" fill="#1da1dc"/><path d="M1883.06,1405.18q75.48-36.56,121.25-14.48-113.62,75.29-204.8,168Q1830.38,1430.64,1883.06,1405.18Z" fill="#1da1dc"/><path d="M1959.83,1487.75q-62.25,57-160.32,71,91.17-92.73,204.8-168Q2022.85,1430.12,1959.83,1487.75Z" fill="url(#ecafcd3a-5cc7-4a04-b4a7-b99ab9d35633)"/><path d="M1689.78,1527.6c19.86,21.4,61,57.26,90.28,70.68-34.42-68.09-49.79-95.42-120.14-132.26-5.15,27.27,9.77,39.93,29.86,61.58m61.49-51.68c-39.43-25.89-56.5-23-91.58-10,70.61,37,86.36,64.57,120,132.13C1790.15,1561.8,1778.78,1494,1751.27,1475.92Z" fill="#1da1dc"/><path d="M1751.27,1475.92c-39.45-25.9-56.49-23-91.59-10,70.62,37,86.37,64.57,120,132.13C1790.14,1561.79,1778.8,1494,1751.27,1475.92Z" fill="#1da1dc"/><path d="M1689.78,1527.6c19.86,21.4,61,57.26,90.28,70.68-34.42-68.09-49.79-95.42-120.14-132.26C1654.76,1493.29,1669.7,1506,1689.78,1527.6Z" fill="url(#b42c524c-85c4-4011-ba69-cf6d1216414a)"/><path d="M2060.41,1160.63q85,85.61,89.94,217.95-8.73,89.49-74.87,146.84-27.55,23.94-78.41,46.79Q2075.82,1393.95,2060.41,1160.63Z" fill="url(#fbe7d430-d86f-4e85-927e-f466c62f29f8)"/><path d="M1898.58,1559.54q10.39,7.43,10.09,38.72-.48,31.71-87,72.62Q1850.74,1593.8,1898.58,1559.54Z" fill="#4bc7ee"/><path d="M1694.82,1713.36Q1676,1768,1649.14,1786,1645,1712.74,1694.82,1713.36Z" fill="#1da1dc"/><path d="M1812.78,1610.6q-16.69,50.36-49.31,64.13Q1758.46,1624,1812.78,1610.6Z" fill="#1da1dc"/><path id="be25d0b3-6e9f-4fc1-bd97-8484c39a4b70" data-name="-" d="M1712.56,1669.49q28.1,2,24.34,53.54Q1693.27,1684.13,1712.56,1669.49Z" fill="#4bc7ee"/><g style="mix-blend-mode:hard-light"><path d="M2273,1594.25q-26.14,30.11-120,20.88-113.62-11.46-212.77-4.23l.38-.6q-81.36,50.51-167.33,94.79-89.24,91.14-167,223.17l-17.27-6.92q32.47-48.85,66.37-94.81-1.55-1.37-3.31-3.16-11.09-11.1-20-65.91t11.78-89.88q-10.86,40.2-6.13,68.26,3.94,23.92,11.15,40.93-.6-64,46-63.41-17.79,51.59-42.71,70.51,8.49,17.39,11.5,22.65,1.55,2.84,2.72,5.3,34.49-46,70.44-88.91-43.47-38.81-24.21-53.42,28,2,24.36,53.25,8-9.6,16.13-19.06,5.17-17.48,10-35-.58-20.18,9.15-33.88,26.76-102.21,43.5-205.09-28.39-72-94.58-142-32.89-37.45-50.47-77.69-27.83-63.63-21.29-105.52,104.16,7,176.33,78.92,83.34,116.71-3.89,263h0a974.49,974.49,0,0,1-20.27,103.9q13.77-54.36,31.69-89.23,2.57-5,5.22-9.59,10.6-18.39,22.59-30.37a81.18,81.18,0,0,1,22-16q2.36-1.14,4.69-2.23,4.65-2.16,9.2-4.11c1.51-.64,3-1.27,4.51-1.88q40.36-16.44,71.34-14.33,3.43.24,6.77.7a83.08,83.08,0,0,1,24.74,7.37q16.21,34.48-30,82.93-1.65,1.72-3.38,3.48-3.47,3.5-7.24,7.06-1.89,1.78-3.86,3.58a254.53,254.53,0,0,1-33.37,25.82q-4.44,2.9-9,5.62t-9.32,5.27q-47.3,25.55-108.59,34.25h0c.48-2,1-4,1.47-6q-4.53,18-9.79,36.4-5.4,17.49-9.19,35.47,11.74-9.28,30.78-14-13.56,40.89-37.62,57.66-1.11,10.65-1.69,21.46,25.17-10.32,49.28-21.7,28.89-74.85,75.83-108.48,10.39,7.43,10.09,38.72-.32,20.37-36.17,44.55,40.5-22,77.68-47.21l.15-.11q31.11-45.29,65.5-70.27,58-161.43,44.58-364.59,85,85.61,89.94,217.95-6.53,67-45.2,115.91,26.68,0,55,9.69Q2232.71,1531.23,2273,1594.25Zm-613-128.23c-.2,1-.36,2-.5,3-1.45,10.46.2,18.74,4,26.33,4.31,8.57,11.38,16.28,19.84,25.27,2.09,2.22,4.26,4.52,6.5,6.93,19,20.51,57.62,54.27,86.55,68.87,1.26.64,2.51,1.25,3.73,1.81-.1-.21-.21-.42-.32-.63.49-1.73.94-3.52,1.33-5.38,3.18-15,3.2-34.1.36-52.63-3.38-22.06-10.8-43.34-21.72-56.12a40.07,40.07,0,0,0-8.44-7.6c-.29-.2-.58-.37-.87-.56-21.71-14.14-36.62-19.47-51.63-19.15-10.83.22-21.72,3.38-35.25,8.28l-3.84,1.4h0c5.55,2.91,10.76,5.75,15.67,8.57-2.32-1.33-4.72-2.67-7.18-4Q1664.18,1468.25,1659.92,1466Zm61.18,41.32c.79.75,1.58,1.51,2.36,2.28,3.65,3.59,7.06,7.29,10.31,11.13,1.32,1.55,2.6,3.14,3.87,4.74.32.42.65.83,1,1.24a236.71,236.71,0,0,1,17.29,26c-8.76-15-17.53-27.46-28.25-38.83-.8-.85-1.61-1.7-2.43-2.54-1.17-1.18-2.35-2.35-3.56-3.51-4-3.8-8.2-7.49-12.79-11.13,1.07.85,2.13,1.7,3.16,2.55C1715.22,1502,1718.23,1504.62,1721.1,1507.34Z" fill="url(#a0e0132f-8332-4b4b-8078-c19ae888663f)"/></g></g><path d="M1866.18,1754.64q-80.52,8.05-119.15-15.53Q1837.78,1690.92,1866.18,1754.64Z" fill="url(#e0ef5e6b-08d3-4bfb-9be2-0c0ab2df85c7)"/></g><g id="a3840eae-a41c-4af2-94d3-091bc4580dec" data-name="m Glass"><use width="262" height="66" transform="matrix(-1.4, 0, 0, 1.07, 1854.38, 1787.69)" xlink:href="#b60b8970-85a5-4e88-842b-ef42bdf8041c"/><ellipse cx="1795.71" cy="1824.78" rx="44.56" ry="77.18" transform="translate(-40.33 3608.97) rotate(-89.64)" fill="url(#eb614634-be62-40d0-8d9e-b6efd98c036c)"/><path d="M1398.52,1495.59c-57.77,56-150.42,60.37-254.87.07-175.12-101.1-317.08-345.79-317.08-546.53,0-118.78,49.7-195.55,126.56-217.51C925.32,770.4,909.39,825,909.39,893c0,205.32,145.2,455.6,324.31,559C1293.87,1486.7,1350.22,1500.45,1398.52,1495.59Z" fill="url(#bcb1a0c3-51b8-4a95-a8a3-3c4e49fd2a84)"/><path d="M1398.52,1495.59c-57.77,56-150.42,60.37-254.87.07-175.12-101.1-317.08-345.79-317.08-546.53,0-118.78,49.7-195.55,126.56-217.51C925.32,770.4,909.39,825,909.39,893c0,205.32,145.2,455.6,324.31,559C1293.87,1486.7,1350.22,1500.45,1398.52,1495.59Z" fill="url(#a61595c4-82e6-447f-941a-8e313a834f92)"/><path id="f19fe28f-cc86-4eb7-9e6c-954137432db6" data-name="Border right" d="M1558,1267.43c0,99.75-34.27,170.54-90,205.11l-.2.12-7.75,4.48-.16.08-83.14,48a157.84,157.84,0,0,0,37.64-32c33.89-39.17,53.61-98.18,53.61-173.85,0-205.32-145.2-455.6-324.31-559-66.88-38.61-129-51.29-180.65-41.33a159.54,159.54,0,0,0-42.3,14.38l78.39-45.41.08,0,8.45-4.89c58.42-31.4,138.16-25.46,226.08,25.3C1412.81,811.83,1558,1062.11,1558,1267.43Z" fill="#12abbb"/><g id="b797678a-595d-43a4-a7d4-79b40459b137" data-name="SHADOW"><path d="M1498.46,1435.26l-20.32,32.64L1427.3,1496c23.5-23.5,25.34-41.27,25.34-41.27Z" fill="url(#b0206ec7-f253-4927-9d12-3cb0ca9ee0a2)"/></g><path id="a3732884-b9c3-4071-a0d8-e8ac780a941c" data-name="border right" d="M1558,1267.43c0,99.75-34.27,170.54-90,205.11l-.2.12-7.75,4.48-.16.08-83.14,48a157.84,157.84,0,0,0,37.64-32c33.89-39.17,53.61-98.18,53.61-173.85,0-205.32-145.2-455.6-324.31-559-66.88-38.61-129-51.29-180.65-41.33a159.54,159.54,0,0,0-42.3,14.38l78.39-45.41.08,0,8.45-4.89c58.42-31.4,138.16-25.46,226.08,25.3C1412.81,811.83,1558,1062.11,1558,1267.43Z" fill="url(#ea5c62fc-e7b8-4f86-af8e-74d2d1035f10)"/><path d="M1460.72,1315.25c0,81-23.12,142.47-62.2,180.34-48.3,4.86-104.65-8.89-164.82-43.63-179.11-103.41-324.31-353.69-324.31-559,0-68,15.93-122.55,43.74-161.33,53-15.15,119-4.19,190.52,37.09C1318.76,869.82,1460.72,1114.51,1460.72,1315.25Z" fill="url(#ac8ad722-be82-461b-abcc-515acc24615a)"/><g id="b697ee9b-ae89-439d-8286-4d4969b40c0a" data-name="Border out"><path d="M1088,663.84c43.8,0,93.29,14.34,145.68,44.58,179.11,103.41,324.31,353.69,324.31,559,0,99.75-34.27,170.54-90,205.11l-.2.12-7.75,4.48-.16.08-83.14,48,0,0-5.51,3.18-.05,0c-23.93,13.19-51.5,20-81.79,20-43.8,0-93.28-14.33-145.67-44.58-179.12-103.41-324.32-353.69-324.32-559,0-106.28,38.9-179.69,101.28-211.44l.09,0,78.39-45.41.08,0,8.45-4.89c23.61-12.69,50.7-19.28,80.4-19.28m0-2c-29.88,0-57.25,6.57-81.35,19.52l0,0h0l-8.45,4.89,0,0,0,0-.05,0-78.27,45.34,0,0,0,0A158.28,158.28,0,0,0,877,763.62a187.13,187.13,0,0,0-32.24,46.78c-18.21,37-27.45,82.29-27.45,134.55,0,50.39,8.6,104.22,25.57,160,16.38,53.85,39.83,107.25,69.69,158.72s64.64,98.42,103.36,139.56c40.12,42.61,82.75,77.08,126.7,102.46,25.84,14.91,51.57,26.29,76.48,33.81,24.25,7.32,47.87,11,70.19,11,30.48,0,58.33-6.82,82.76-20.28l0,0,0,0,0,0,5.48-3.16.1-.06,0,0,83-48,.1-.06.06,0,0,0,7.75-4.48.23-.14c58.7-36.38,91-109.83,91-206.83,0-50.38-8.6-104.21-25.57-160-16.38-53.85-39.83-107.25-69.69-158.72s-64.63-98.43-103.36-139.56c-40.11-42.61-82.74-77.08-126.69-102.46-25.84-14.92-51.57-26.29-76.48-33.81-24.25-7.32-47.87-11-70.2-11Z" fill="#95eee5"/><path d="M1088,663.84c43.8,0,93.29,14.34,145.68,44.58,179.11,103.41,324.31,353.69,324.31,559,0,99.75-34.27,170.54-90,205.11l-.2.12-7.75,4.48-.16.08-83.14,48,0,0-5.51,3.18-.05,0c-23.93,13.19-51.5,20-81.79,20-43.8,0-93.28-14.33-145.67-44.58-179.12-103.41-324.32-353.69-324.32-559,0-106.28,38.9-179.69,101.28-211.44l.09,0,78.39-45.41.08,0,8.45-4.89c23.61-12.69,50.7-19.28,80.4-19.28m0-.25c-29.59,0-56.68,6.5-80.52,19.31L999,687.8l-.08.05-78.39,45.41-.06,0a156.21,156.21,0,0,0-42.22,31.54,185.5,185.5,0,0,0-31.94,46.34C828.26,848,819.08,893,819.08,945c0,50.22,8.58,103.88,25.5,159.5,16.34,53.72,39.73,107,69.52,158.35S978.59,1361,1017.23,1402c40,42.49,82.49,76.85,126.29,102.14,25.73,14.85,51.33,26.17,76.11,33.65,24.09,7.27,47.54,11,69.69,11,30.19,0,57.74-6.75,81.91-20.07l.06,0,5.5-3.18h0l0,0,83.12-48,.14-.07,7.77-4.49.2-.12c58.15-36,90.17-109,90.17-205.33,0-50.21-8.58-103.87-25.5-159.49-16.34-53.72-39.73-107-69.52-158.35s-64.49-98.2-103.12-139.24c-40-42.49-82.49-76.85-126.3-102.14-25.72-14.85-51.33-26.18-76.11-33.66-24.09-7.27-47.53-11-69.69-11Z" fill="#fff"/></g><g id="aa3cd28e-1e67-43c9-b125-600ebc40d1e1" data-name="gLASS"><g id="a503d127-f050-4ca3-a5c7-bb32a5543698" data-name="Layer6 9 FILL"><path d="M1462.41,1313.26q0,74-24.9,127.1a186.74,186.74,0,0,1-26.7,42.05c-1.34,1.58-2.7,3.13-4.11,4.64q-3.14,3.43-6.49,6.66c-.67.65-1.34,1.28-2,1.91a151.2,151.2,0,0,1-24.33,18.49,182.23,182.23,0,0,1-32.35,2.8q-9.71,0-19.8-.9-60.26-5.6-126.15-43.65t-126.1-102q-58.15-61.8-103.05-139T897,1073.06q-25.46-83.7-25.45-159.3T897,783.86a193.84,193.84,0,0,1,24-39,152.82,152.82,0,0,1,32.19-13.27c53-15.15,119-4.19,190.52,37.09,30.08,17.37,59.18,39,86.76,63.87l0,0c81.88,73.93,150.27,176.85,190.71,283.85q8.71,21.58,15.8,43.69Q1462.42,1239.3,1462.41,1313.26Z" fill="url(#a15504ea-902b-4b82-bbd9-cc7739b80342)"/></g></g><path d="M1462.41,1313.26q0,74-24.9,127.1a186.74,186.74,0,0,1-26.7,42.05c-1.34,1.58-2.7,3.13-4.11,4.64q-3.14,3.43-6.49,6.66c-.67.65-1.34,1.28-2,1.91a151.2,151.2,0,0,1-24.33,18.49,182.23,182.23,0,0,1-32.35,2.8q-9.71,0-19.8-.9-60.26-5.6-126.15-43.65t-126.1-102q-58.15-61.8-103.05-139T897,1073.06q-25.46-83.7-25.45-159.3T897,783.86a193.84,193.84,0,0,1,24-39,152.82,152.82,0,0,1,32.19-13.27c53-15.15,119-4.19,190.52,37.09,30.08,17.37,59.18,39,86.76,63.87l0,0c81.88,73.93,150.27,176.85,190.71,283.85q8.71,21.58,15.8,43.69Q1462.42,1239.3,1462.41,1313.26Z" stroke="#141226" stroke-opacity="0.1" stroke-width="16" fill="url(#bc4634a2-830d-451f-b820-8be921e90a68)"/><path d="M1143.65,760.42c-66.88-38.61-129-51.29-180.65-41.33a159.54,159.54,0,0,0-42.3,14.38l-.09,0C858.23,765.26,819.33,838.67,819.33,945c0,205.32,145.2,455.6,324.32,559,88.61,51.16,168.93,56.79,227.46,24.54l.05,0,5.51-3.18,0,0a157.84,157.84,0,0,0,37.64-32c33.89-39.17,53.61-98.18,53.61-173.85C1468,1114.11,1322.76,863.83,1143.65,760.42Zm245.78,730.78c-56.32,55-146.65,59.36-248.48.06-170.73-99.42-309.13-340-309.13-537.46,0-116.81,48.45-192.3,123.39-213.9,51.71-14.9,116-4.12,185.74,36.47,170.72,99.44,309.12,340.07,309.12,537.48C1450.07,1393.5,1427.53,1454,1389.43,1491.2Z" fill="url(#a8327ddb-0aee-40e0-a318-f19f67e266ea)"/><path d="M1840.26,1814.81a33.28,33.28,0,0,1,6.18,4.15c1,.8,10.42,6.87,8.81,14.63-.51,2.47-2.15,4.68-4.74,6.67q-9.1,7-30.75,7.85a149.93,149.93,0,0,1-43.75-4.9c-18.52-4.8-37.81-14.55-39.86-21.16-2.56-8.25,25.62-13.88,43.91-16.89C1810,1800.24,1825.8,1806.51,1840.26,1814.81Z" fill="none" stroke="#022e49" stroke-width="27" opacity="0.15"/><path d="M1840.26,1814.81a33.28,33.28,0,0,1,6.18,4.15c1,.8,10.42,6.87,8.81,14.63-.51,2.47-2.15,4.68-4.74,6.67q-9.1,7-30.75,7.85a149.93,149.93,0,0,1-43.75-4.9c-18.52-4.8-37.81-14.55-39.86-21.16-2.56-8.25,25.62-13.88,43.91-16.89C1810,1800.24,1825.8,1806.51,1840.26,1814.81Z" fill="none" stroke="#022e49" stroke-width="20" opacity="0.41"/><path d="M1840.26,1814.81a33.28,33.28,0,0,1,6.18,4.15c1,.8,10.42,6.87,8.81,14.63-.51,2.47-2.15,4.68-4.74,6.67q-9.1,7-30.75,7.85a149.93,149.93,0,0,1-43.75-4.9c-18.52-4.8-37.81-14.55-39.86-21.16-2.56-8.25,25.62-13.88,43.91-16.89C1810,1800.24,1825.8,1806.51,1840.26,1814.81Z" fill="none" stroke="#022e49" stroke-width="11" opacity="0.72"/><path d="M1643.46,1588.81c-1.18.43-2.41.93-3.7,1.5q-13.24,6-26.7,18.65-13.23,12.54-19,24.5l-140.9-169.65a5.91,5.91,0,0,1-1-1.2q-2.1-3.49,1.45-11,4.35-9,14.3-18.45t19.8-13.85q9.85-4.39,13.7-1.15a6.36,6.36,0,0,1,.8.85Z" fill="#12abbb"/><path d="M1643.46,1588.81c-1.18.43-2.41.93-3.7,1.5q-13.24,6-26.7,18.65-13.23,12.54-19,24.5l-140.9-169.65a5.91,5.91,0,0,1-1-1.2q-2.1-3.49,1.45-11,4.35-9,14.3-18.45t19.8-13.85q9.85-4.39,13.7-1.15a6.36,6.36,0,0,1,.8.85Z" fill="url(#f546e8a6-0129-4730-b079-362615fc644e)"/><path d="M1643.46,1588.81c-1.18.43-2.41.93-3.7,1.5q-13.24,6-26.7,18.65-13.23,12.54-19,24.5l-140.9-169.65a5.91,5.91,0,0,1-1-1.2q-2.1-3.49,1.45-11,4.35-9,14.3-18.45t19.8-13.85q9.85-4.39,13.7-1.15a6.36,6.36,0,0,1,.8.85Z" fill="url(#f21e236c-4308-4a77-8496-0367a265a8d7)"/><g opacity="0.21"><path d="M998,718.84c21.84,0,45,3.64,68.76,10.82,24.54,7.41,49.92,18.63,75.43,33.36,43.53,25.13,85.77,59.3,125.55,101.56,38.46,40.85,73,87.5,102.68,138.64s53,104.18,69.22,157.66c16.83,55.32,25.36,108.66,25.36,158.55,0,72.47-18.29,131.91-52.88,171.89a155.31,155.31,0,0,1-36.93,31.38l-.09.06-5.44,3.14h0c-23.68,13-50.69,19.64-80.3,19.64-21.83,0-45-3.64-68.75-10.82-24.54-7.4-49.91-18.63-75.42-33.35-43.53-25.13-85.77-59.3-125.56-101.56-38.46-40.85-73-87.5-102.68-138.64S864,1157,847.69,1103.5c-16.83-55.31-25.36-108.65-25.36-158.55,0-51.49,9.06-96,26.94-132.34,17.16-34.87,41.6-60.57,72.63-76.39h0l.07,0,.07,0A156.87,156.87,0,0,1,963.57,722a182.21,182.21,0,0,1,34.39-3.2h0m0-3a185,185,0,0,0-35,3.25,159.54,159.54,0,0,0-42.3,14.38l-.09,0C858.23,765.26,819.33,838.67,819.33,945c0,205.32,145.2,455.6,324.32,559,52.39,30.25,101.87,44.58,145.67,44.58,30.29,0,57.87-6.85,81.79-20l.05,0,5.51-3.18,0,0a157.84,157.84,0,0,0,37.64-32c33.89-39.17,53.61-98.18,53.61-173.85,0-205.32-145.2-455.6-324.31-559-52.4-30.24-101.88-44.58-145.69-44.58Z" fill="#fff"/></g><path d="M1468,1319.43c0,75.67-19.72,134.68-53.61,173.85a157.84,157.84,0,0,1-37.64,32l0,0-5.51,3.18-.05,0c-58.53,32.25-138.85,26.62-227.46-24.54-179.12-103.41-324.32-353.69-324.32-559,0-106.28,38.9-179.69,101.28-211.44l.09,0A159.54,159.54,0,0,1,963,719.09c51.63-10,113.77,2.72,180.65,41.33C1322.76,863.83,1468,1114.11,1468,1319.43Z" fill="none" stroke="#a6bbcd" stroke-miterlimit="10" stroke-width="5" opacity="0.48" style="mix-blend-mode:darken"/><g opacity="0.39"><path d="M1002.09,733.51v3c20.8,0,42.83,3.5,65.49,10.4,23.38,7.12,47.56,17.9,71.86,32.06,41.48,24.15,81.73,57,119.64,97.62,36.65,39.27,69.57,84.11,97.85,133.28s50.47,100.15,66,151.56c16,53.18,24.17,104.46,24.17,152.42,0,38.64-5.34,73.49-15.87,103.59-10.13,29-24.89,53.06-43.87,71.61a144.34,144.34,0,0,1-48.3,31.34,161.38,161.38,0,0,1-59.22,10.73c-20.8,0-42.83-3.49-65.49-10.39-23.38-7.12-47.56-17.9-71.86-32.06-41.48-24.15-81.73-57-119.65-97.61-36.65-39.28-69.57-84.12-97.85-133.28s-50.47-100.15-66-151.57c-16-53.17-24.16-104.45-24.16-152.41,0-28.42,2.91-55,8.66-79C849,851.61,857.29,830.7,868,812.68a160.68,160.68,0,0,1,38.19-44.32A144.21,144.21,0,0,1,956,742.78a166.27,166.27,0,0,1,46.05-6.27v-3m0,0a168.63,168.63,0,0,0-46.88,6.39C880.27,761.5,831.82,837,831.82,953.8c0,197.41,138.4,438,309.13,537.46,49.94,29.09,97.11,42.86,138.86,42.86,43.38,0,80.92-14.88,109.62-42.92,38.1-37.25,60.64-97.7,60.64-177.35,0-197.41-138.4-438-309.12-537.48-49.94-29.08-97.11-42.86-138.86-42.86Z" fill="#a6bbcd"/></g><g id="ae202b66-d3c2-4d08-a8b6-0622f2d30b01" data-name="Mango"><path d="M1850.51,1840.26q-9.1,7-30.75,7.85a149.93,149.93,0,0,1-43.75-4.9q-22.89-6-36.73-16.8l-146.62-176.65-.48-.57q-3-4.14.53-12.83c.32-.81.69-1.64,1.1-2.5.06-.14.13-.27.2-.4q5.82-12,19-24.5,13.45-12.7,26.7-18.65c1.29-.57,2.52-1.07,3.7-1.5s2.52-.87,3.68-1.18q7.47-1.91,11.07,1.08l.18.15,1.29,1.58L1850.24,1820c.2.26.41.52.62.77Q1860.3,1832.75,1850.51,1840.26Z" fill="url(#ba319aad-a8ad-46f0-8360-066089f60c49)"/><path d="M1850.51,1840.26q-9.1,7-30.75,7.85a149.93,149.93,0,0,1-43.75-4.9q-22.89-6-36.73-16.8l-146.62-176.65-.48-.57q-3-4.14.53-12.83c.32-.81.69-1.64,1.1-2.5.06-.14.13-.27.2-.4q5.82-12,19-24.5,13.45-12.7,26.7-18.65c1.29-.57,2.52-1.07,3.7-1.5s2.52-.87,3.68-1.18q7.47-1.91,11.07,1.08l.18.15,1.29,1.58L1850.24,1820c.2.26.41.52.62.77Q1860.3,1832.75,1850.51,1840.26Z" fill="url(#faa20894-77d4-4af2-88db-d216946757af)"/></g><g mask="url(#aec3f822-fddc-4d34-a698-7199ffd500bb)"><g filter="url(#f7c7caec-bbf1-4bc0-938c-1e15ac782792)"><ellipse cx="1259.1" cy="1135.44" rx="112.21" ry="130.52" transform="translate(-353.76 1658.13) rotate(-60)" fill="#fff" opacity="0.39"/></g></g></g><use width="554.43" height="331.51" transform="translate(818.7 1760.75) scale(0.89)" xlink:href="#e289adc3-3953-499f-975e-84127df97bd1"/><g id="b3510c82-aaf0-4ab7-9cac-4eabe29f1119" data-name="Dog"><use width="262" height="66" transform="matrix(-2.63, 0, 0, 2.63, 1094.83, 1879.07)" xlink:href="#b60b8970-85a5-4e88-842b-ef42bdf8041c"/><ellipse cx="912.72" cy="1965.75" rx="75.76" ry="131.22" transform="translate(-1058.73 2866.08) rotate(-89.64)" fill="url(#e10f74a8-4141-41c6-8653-df3ef94e132d)"/><g id="afaf79f2-9ae7-4057-bf3a-9a613c962f9f" data-name="bulldog2 0 Layer0 0 FILL"><path d="M1049.85,1778.9h-34.73l-27.51,117.19,4.62,33.24q3.25,13.25,11.34,10.41,17.29-8.55,25.42-16.17,8.16-9,0-15.5a15.93,15.93,0,0,0-12-3.18q10.15-34.46,11.13-57.56Z" fill="#c7e2ea"/></g><g opacity="0.4"><g id="b0e37fa5-bb4e-4b39-a6ca-f08c2dfc267d" data-name="bulldog2 0 Layer0 1 FILL"><path d="M992.23,1929.33q3.46,13.53,11.34,10.41,10.2-36.12,8.94-67.46Z" fill="#069"/></g></g><g id="a8ffeb97-3c22-490a-8565-4d334f3e37c9" data-name="bulldog2 0 Layer0 2 FILL"><path d="M997,1550.6H982.66a71.77,71.77,0,0,0-44.12,25.79q-59.35-36.36-53-14.09t53.22,66q-14.46,40.68-49.52,116.1-70,102-81.32,191.24,1.08,55.5,38.44,84.63,52.13,19.35,72.34,18.81t45.76-15.72q25.54-15.17,40.34-36.79,4.76-7.48,1-12.45-7.15-9.42-16.27-4.74,7.63-15.72,5.84-51,8.14-12,17.17-46.15l38.63-63.68q8.37-23.07-5-111.51,11.8-24.24,13.87-41.82,16.3-28.18,18-55.49a184.81,184.81,0,0,0-15.49-40L1052,1547.45q-9.09-19.5-36.22-9.44Z" fill="#d4ecf6"/></g><path id="a5046d2f-25a9-47da-9345-f0f012a747bc" data-name="white" d="M1050.3,1688a60,60,0,0,0,6.88-19,90.48,90.48,0,0,0,2.82-13.73q16.3-28.18,18-55.49a184.81,184.81,0,0,0-15.49-40L1052,1547.45q-9.09-19.5-36.22-9.44l-.89.58h0l-8.5,5.7h0l-9.37,6.3H982.66a71.77,71.77,0,0,0-44.12,25.79q-56.1-34.37-53.47-16.34h0c0,.09,0,.18.05.27q.06.39.15.81c.08.38.18.77.29,1.18q6.39,22.29,53.22,66c-.77,2.17-1.59,4.43-2.46,6.75v0l-8.92,22.9q-14.32,35.22-38.14,86.47-2.19,3.19-4.32,6.36l-.11.18q-13.19,19.63-24.16,38.81-44,76.77-52.73,145.89.57,29.23,11.21,51.15a94.14,94.14,0,0,0,27.23,33.48l.3.11q51.87,19.24,72,18.7h0a71.39,71.39,0,0,0,20.51-3.87,129.7,129.7,0,0,0,25.24-11.83c1.78-1.06,3.51-2.15,5.21-3.25l.46-.31.5-.33.07,0c1-.63,1.9-1.27,2.83-1.92l.31-.22.91-.63.27-.19,0,0q2.16-1.53,4.22-3.12h0a118.36,118.36,0,0,0,25.64-26.84q4.76-7.48,1-12.45-6.9-9.09-15.66-5l1.93-6.32,0,.07a87.06,87.06,0,0,0,3.09-17.38c.53-2.41,1-4.78,1.42-7.09a6,6,0,0,0,7,1.32q17.29-8.55,25.42-16.17,8.16-9,0-15.5a15.93,15.93,0,0,0-12-3.18q10.15-34.46,11.13-57.56,10.77-11.25,23-38.73,8.37-23.07-5-111.51,2.26-4.66,4.17-9.07Z" fill="url(#e6c45d42-44c2-43a5-8f1f-c6e59855c9ee)"/><g id="a3dfffed-6230-4b34-807a-808e3f999e7b" data-name="bulldog2 0 Layer0 3 FILL"><path d="M970.1,1677.8q35.88,8.63,80.2,10.22a60.18,60.18,0,0,0,6.89-19q-114.3-15.52-120.88-33.91l-9.17,23.52q3.57,5.21,15,10.24A167.29,167.29,0,0,0,970.1,1677.8Z" fill="#12abbb"/></g><g opacity="0.1"><g id="a65bd766-9b96-4a04-b4cf-e70d0a4db8e7" data-name="bulldog2 0 Layer0 4 FILL"><path d="M958.53,1582.27v23.52q-17.46-4.95-73.47-45.75a16.46,16.46,0,0,0,.51,2.28q6.38,22.26,53.2,66-14.47,40.68-49.52,116.1-70,102-81.32,191.24,1.08,55.5,38.44,84.63,52.13,19.37,72.34,18.81t45.76-15.7a145.9,145.9,0,0,0,14.73-10q-35.69,6.64-63.26,4.76,94.24-145.29-57.62-105.27a108.06,108.06,0,0,1,17.56-27.6l47.62-54q-20.19-6.72-51.73,9.35l78.85-126.27q3-33.48,16.62-56.33a429.39,429.39,0,0,0,56.8-7.71q21-13.29,22.62-31.56l-25-18.87q-34.05-10.83-25.77,20.23Z" fill="#069"/></g></g><g id="bf2f7175-dc83-4275-8df3-337c66bd6d7c" data-name="bulldog2 0 Layer0 5 FILL"><path d="M927.92,1884.14q38.82.36,59.69,11.95,6,3.12,6.48,53.86,10.83-44.55-3.64-66Q952.4,1875.82,927.92,1884.14Z" fill="#0a264b" fill-opacity="0.7" opacity="0.15"/></g><g id="aece8d86-3381-46e0-b087-4b8715120937" data-name="bulldog2 0 Layer0 6 FILL"><path d="M960.88,2016.36l15.54-2.43L992,1962.82Q974.49,2004,960.88,2016.36Z" fill="#069" fill-opacity="0.23"/></g><g opacity="0.16"><g id="b25aaf0a-4328-482d-a79c-fa268997b14e" data-name="bulldog2 0 Layer0 7 FILL"><path d="M1031,1631q5.41-8.81.06-17.28-11.71-18.51-23.14-16.59-20.52-22.57-12,23,4.21,16.72,24.5,30.93Z" fill="#069"/></g></g><path d="M997,1550.6,976.09,1552q58.45,11.24,79.83,20.79-2-13.23-49.58-28.53Z" fill="#0a264b" fill-opacity="0.2"/><g id="e3a89680-b3d2-463a-a651-15224e76cc5d" data-name="bulldog2 0 Layer0 9 FILL"><path d="M1050,1598.2q-5.46-4.38-24.77-9.9t-30.57,3.15Q1037.12,1592.92,1050,1598.2Z" fill="#0a264b" fill-opacity="0.31" opacity="0.15"/></g><g id="a1b2bd03-bc8a-406c-808f-7c1ac5666649" data-name="bulldog2 0 Layer0 10 FILL"><path d="M1009.47,1844.84q11.13-.77,18.7,2.49,10.77-11.25,23-38.73A131,131,0,0,1,1009.47,1844.84Z" fill="#0a264b" fill-opacity="0.2" opacity="0.15"/></g><g opacity="0.12"><g id="b8d9f92a-09b3-4426-804a-302bca568f92" data-name="bulldog2 0 Layer0 11 FILL"><path d="M968.39,1627.62l-20-4.82L885.06,1560a19,19,0,0,0,.49,2.26q6.39,22.29,53.22,66-14.46,40.68-49.52,116.1-70,102-81.32,191.24,1.08,55.5,38.44,84.63,52.13,19.35,72.34,18.81t45.76-15.72q5.53-3.29,10.56-6.87-23.31,15.06-75.48,9.92,23.46-67.92-26.32-82.12t-47.83-32.69q7.36-34.92,24.84-89.63h0Q883,1766.72,918,1711q15.12,5.51,17.35,1.68-.71-4.45-4.61-17.35.39-10.59,37.68-67.7M820.31,1958.25c.46,2.42,1,4.93,1.52,7.53A33.18,33.18,0,0,1,820.31,1958.25Z" fill="#069"/></g></g><g id="ab2afe4e-8f8f-40a3-837d-90fd361de59b" data-name="bulldog2 0 Layer0 12 FILL"><path d="M1056.07,1552.27l-4.12-4.82q-9.09-19.5-36.22-9.44l-.89.58A156.66,156.66,0,0,1,1056.07,1552.27Z" fill="#27244b"/></g></g></g></g></svg>