<svg xmlns="http://www.w3.org/2000/svg" xmlns:xlink="http://www.w3.org/1999/xlink" viewBox="0 0 2500 2500"><defs><linearGradient id="f53dd576-f38c-4682-a60e-8e21c164e748" x1="1135.25" y1="1116.18" x2="1370.36" y2="1116.18" gradientTransform="translate(-321.04 15.11) scale(1.24 1)" gradientUnits="userSpaceOnUse"><stop offset="0" stop-color="#fff"/><stop offset="1"/></linearGradient><filter id="b90677b5-b486-462b-bec4-41dfcc1a2c85" name="AI_DesenfoqueGaussiano_4"><feGaussianBlur stdDeviation="4"/></filter><linearGradient id="ad55acd0-2228-4a43-9a93-a2b8ca59c7e8" x1="29.03" y1="32.92" x2="247.63" y2="32.92" gradientUnits="userSpaceOnUse"><stop offset="0" stop-color="#7e9cbd" stop-opacity="0.5"/><stop offset="0.48" stop-color="#7e9cbd" stop-opacity="0.1"/><stop offset="1" stop-color="#7e9cbd" stop-opacity="0"/></linearGradient><radialGradient id="efca113f-5498-4a2d-86b0-8fe3ab375352" cx="-7703.38" cy="4309.81" r="62.98" gradientTransform="matrix(-0.41, 0.71, -0.41, -0.7, -1287.57, 8555.33)" gradientUnits="userSpaceOnUse"><stop offset="0" stop-color="#7e9cbd" stop-opacity="0.3"/><stop offset="1" stop-color="#7e9cbd" stop-opacity="0"/></radialGradient><linearGradient id="aad4094a-3486-4d22-b435-0778b7ec828e" x1="16774.47" y1="1473.24" x2="17121.97" y2="1473.24" gradientTransform="translate(-1407.87 17064.24) rotate(-90)" gradientUnits="userSpaceOnUse"><stop offset="0" stop-color="#00b287" stop-opacity="0.1"/><stop offset="0.17" stop-color="#00b287" stop-opacity="0.12"/><stop offset="0.33" stop-color="#00b287" stop-opacity="0.18"/><stop offset="0.48" stop-color="#00b287" stop-opacity="0.29"/><stop offset="0.63" stop-color="#00b287" stop-opacity="0.44"/><stop offset="0.78" stop-color="#00b287" stop-opacity="0.63"/><stop offset="0.92" stop-color="#00b287" stop-opacity="0.86"/><stop offset="1" stop-color="#00b287"/></linearGradient><linearGradient id="b7ae3b22-4df9-4713-9335-7ebd1113406e" x1="17256.96" y1="1473.24" x2="16909.1" y2="1473.24" xlink:href="#aad4094a-3486-4d22-b435-0778b7ec828e"/><linearGradient id="e12d5709-363b-4146-b719-5dcd645081f8" x1="12" y1="156.47" x2="539.43" y2="156.47" gradientUnits="userSpaceOnUse"><stop offset="0" stop-color="#a9a7b7"/><stop offset="0.59" stop-color="#8c8b9f"/><stop offset="1" stop-color="#7d7c93"/></linearGradient><linearGradient id="adfa2779-27b3-4203-a1a7-f931cf263b64" x1="12" y1="224.17" x2="739.96" y2="224.17" gradientUnits="userSpaceOnUse"><stop offset="0" stop-color="#6e6c86"/><stop offset="0.95" stop-color="#7c7b92"/><stop offset="1" stop-color="#7d7c93"/></linearGradient><linearGradient id="b130b8f5-36e6-4017-8474-bc883556ccd7" x1="158.17" y1="385.55" x2="502.04" y2="-233.3" gradientUnits="userSpaceOnUse"><stop offset="0.01" stop-color="#141226"/><stop offset="0.58" stop-color="#27244b"/><stop offset="0.98" stop-color="#27244b"/><stop offset="1" stop-color="#27244b"/></linearGradient><linearGradient id="b91a9d5f-90bf-4dbe-83b2-1f12f5ba2f18" x1="90.3" y1="237.56" x2="178.67" y2="237.56" gradientTransform="translate(371.97 100.8) rotate(89.64)" xlink:href="#e12d5709-363b-4146-b719-5dcd645081f8"/><linearGradient id="b0d261f4-61cf-4b76-9701-458e0a328a48" x1="120.5" y1="237.56" x2="150.03" y2="237.56" gradientTransform="translate(371.97 100.8) rotate(89.64)" gradientUnits="userSpaceOnUse"><stop offset="0" stop-color="#7d7c93"/><stop offset="0.41" stop-color="#8c8b9f"/><stop offset="1" stop-color="#a9a7b7"/></linearGradient><linearGradient id="f577435a-acd6-4926-99a2-48a467ed7f29" x1="9.77" y1="14.5" x2="9.44" y2="6.11" xlink:href="#e12d5709-363b-4146-b719-5dcd645081f8"/><clipPath id="a1a23b05-13c2-4e3f-8e75-6119abe072d2"><polygon points="1638.4 1633.46 1806.61 1825.83 2237.9 1770.29 2372.18 1493.76 2221.99 1045.24 2077.45 998.19 1866.44 995.46 1608.33 1015.99 1638.4 1633.46" fill="none"/></clipPath><linearGradient id="a984ae7b-2226-427c-8789-8b5ab8ef4a48" x1="-1117.94" y1="977.06" x2="-815.27" y2="977.06" gradientTransform="matrix(-0.93, -0.37, -0.37, 0.93, 1572.97, 335.94)" gradientUnits="userSpaceOnUse"><stop offset="0" stop-color="#c2ebe8" stop-opacity="0.1"/><stop offset="0.05" stop-color="#8fe0d9" stop-opacity="0.1"/><stop offset="0.15" stop-color="#6ad8cf" stop-opacity="0.1"/><stop offset="0.87" stop-color="#43a39b" stop-opacity="0.3"/></linearGradient><linearGradient id="ee2ccd23-73f3-4c9c-84e6-c06332be3067" x1="-468.69" y1="837.23" x2="-542.96" y2="777.58" xlink:href="#a984ae7b-2226-427c-8789-8b5ab8ef4a48"/><linearGradient id="e703f14d-328f-43de-9170-e8863f0081c7" x1="-822.75" y1="938.49" x2="-706.09" y2="938.49" gradientTransform="matrix(-0.87, -0.49, -0.49, 0.87, 1702.94, 287.19)" xlink:href="#a984ae7b-2226-427c-8789-8b5ab8ef4a48"/><linearGradient id="fa3a17f7-8cd6-475b-97c0-2f5d966ee8d8" x1="-787.1" y1="951.15" x2="-691.07" y2="951.15" gradientTransform="translate(2258.56 456.02) rotate(-11.19)" xlink:href="#a984ae7b-2226-427c-8789-8b5ab8ef4a48"/><linearGradient id="a990a82d-ff5b-455b-a3f5-162fede92670" x1="-840.08" y1="798.73" x2="-569.92" y2="703.63" gradientTransform="matrix(-0.93, -0.37, -0.37, 0.93, 1572.97, 335.94)" gradientUnits="userSpaceOnUse"><stop offset="0" stop-color="#c2ebe8" stop-opacity="0.1"/><stop offset="0.2" stop-color="#8fe0d9" stop-opacity="0.1"/><stop offset="0.6" stop-color="#6ad8cf" stop-opacity="0.1"/><stop offset="0.87" stop-color="#43a39b" stop-opacity="0.3"/></linearGradient><linearGradient id="fc07ce8d-81c1-48c7-829a-7a795d03d4da" x1="1847.13" y1="1503.97" x2="1712.85" y2="1685.96" gradientUnits="userSpaceOnUse"><stop offset="0" stop-color="#c2ebe8" stop-opacity="0.1"/><stop offset="0.05" stop-color="#8fe0d9" stop-opacity="0.1"/><stop offset="0.15" stop-color="#6ad8cf" stop-opacity="0.1"/><stop offset="0.86" stop-color="#43a39b" stop-opacity="0.6"/></linearGradient><linearGradient id="ad425a0e-9351-4120-a7fc-04f2614aea80" x1="1778.17" y1="1453.08" x2="1643.88" y2="1635.07" xlink:href="#fc07ce8d-81c1-48c7-829a-7a795d03d4da"/><linearGradient id="b130ea13-7cb8-46ec-8b4a-f561fe9199ee" x1="1827.79" y1="1728.58" x2="1788.92" y2="1762.15" xlink:href="#fc07ce8d-81c1-48c7-829a-7a795d03d4da"/><linearGradient id="a637662a-9473-432e-a3c5-07d033469750" x1="737.77" y1="743.81" x2="1087.12" y2="1196.67" xlink:href="#b130b8f5-36e6-4017-8474-bc883556ccd7"/><linearGradient id="b775de24-bc22-44ff-81a5-8f3ed0a02709" x1="1296.02" y1="1621.59" x2="809.69" y2="756.27" gradientUnits="userSpaceOnUse"><stop offset="0" stop-color="#90aac1" stop-opacity="0.5"/><stop offset="0.56" stop-color="#90aac1" stop-opacity="0.1"/><stop offset="0.82" stop-color="#90aac1" stop-opacity="0"/></linearGradient><linearGradient id="bed15ce2-8c27-4639-8b8e-f0283c4e0486" x1="1463.61" y1="1464.24" x2="1411.48" y2="1548.17" xlink:href="#b775de24-bc22-44ff-81a5-8f3ed0a02709"/><linearGradient id="e59ff80d-a5b2-4f52-a128-e6637cbedcb8" x1="1072.66" y1="625.04" x2="1975.09" y2="2262.93" gradientUnits="userSpaceOnUse"><stop offset="0" stop-color="#fff" stop-opacity="0.4"/><stop offset="0.24" stop-color="#fff" stop-opacity="0.4"/><stop offset="0.41" stop-color="#b7d4f4" stop-opacity="0.4"/><stop offset="1" stop-color="#b7d4f4" stop-opacity="0"/></linearGradient><linearGradient id="f9bb6229-91e9-4360-a83f-d183b15c3936" x1="909.39" y1="1110.84" x2="1460.72" y2="1110.84" gradientUnits="userSpaceOnUse"><stop offset="0.19" stop-color="#b7d4f4" stop-opacity="0.4"/><stop offset="1" stop-color="#b7d4f4" stop-opacity="0"/></linearGradient><linearGradient id="b4a6e033-e463-4f1b-ac84-1649083a8ca3" x1="938.05" y1="1280.98" x2="1383.3" y2="959.4" xlink:href="#f9bb6229-91e9-4360-a83f-d183b15c3936"/><radialGradient id="a9e2a0f5-1f2b-4f50-ae97-f53597ed2923" cx="1243.15" cy="1225.48" r="250.48" gradientUnits="userSpaceOnUse"><stop offset="0.19" stop-color="#fff" stop-opacity="0.4"/><stop offset="0.2" stop-color="#fff" stop-opacity="0.4"/><stop offset="0.75" stop-color="#fff" stop-opacity="0.11"/><stop offset="1" stop-color="#fff" stop-opacity="0"/></radialGradient><linearGradient id="b2bfe928-e4df-4919-9d14-b216d547a4c9" x1="1569.37" y1="1500.11" x2="1487.7" y2="1570.49" gradientUnits="userSpaceOnUse"><stop offset="0.11" stop-color="#eef7fb"/><stop offset="0.15" stop-color="#e3f2f9"/><stop offset="0.23" stop-color="#d8eef7"/><stop offset="0.31" stop-color="#d4ecf6"/><stop offset="0.51" stop-color="#d4ecf6"/><stop offset="0.71" stop-color="#d4ecf6"/><stop offset="0.99" stop-color="#d4ecf6"/></linearGradient><linearGradient id="ede0c988-54c1-45f1-a327-a221ede50ec8" x1="1561.13" y1="1543.1" x2="1810.25" y2="1867.32" gradientUnits="userSpaceOnUse"><stop offset="0" stop-color="#5d7586" stop-opacity="0"/><stop offset="0.07" stop-color="#5d7586" stop-opacity="0.05"/><stop offset="0.17" stop-color="#5d7586" stop-opacity="0.18"/><stop offset="0.28" stop-color="#5d7586" stop-opacity="0.4"/><stop offset="0.4" stop-color="#5d7586" stop-opacity="0.71"/><stop offset="0.44" stop-color="#5d7586" stop-opacity="0.8"/></linearGradient><linearGradient id="b3e04f0c-1814-4300-80d5-ca1e8ac3bf14" x1="1687.27" y1="1762.3" x2="1734.09" y2="1722.55" xlink:href="#b130b8f5-36e6-4017-8474-bc883556ccd7"/><linearGradient id="b254ba2d-082a-4c1d-aca0-46bbc70e764e" x1="1677.47" y1="1678.55" x2="1845.89" y2="1894.34" gradientUnits="userSpaceOnUse"><stop offset="0" stop-color="#5d7586" stop-opacity="0"/><stop offset="1" stop-color="#5d7586" stop-opacity="0.8"/></linearGradient><mask id="e5cf8747-037e-42dc-a301-677c4cd3c0a5" x="986.59" y="865.43" width="485.48" height="531.71" maskUnits="userSpaceOnUse"><rect x="1083.85" y="908.76" width="290.95" height="445.06" transform="translate(-416.6 844.98) rotate(-32.75)" fill="url(#f53dd576-f38c-4682-a60e-8e21c164e748)"/></mask><linearGradient id="be8185e8-dc77-4ba4-b1d0-37408135517b" x1="714.94" y1="1873.65" x2="1176.51" y2="1690.38" gradientUnits="userSpaceOnUse"><stop offset="0" stop-color="#fcfdfe" stop-opacity="0.8"/><stop offset="0.55" stop-color="#f5f8fa" stop-opacity="0.8"/><stop offset="0.98" stop-color="#e5f4fa" stop-opacity="0.1"/></linearGradient><symbol id="f5c53fe6-d3ca-442b-82f6-bddac1074192" data-name="SHADOW PEOPLE 4" viewBox="0 0 269.17 74.14"><g filter="url(#b90677b5-b486-462b-bec4-41dfcc1a2c85)"><path d="M247.63,32.92c.09,15.15-21,27.43-47.19,27.42H76.53a81.87,81.87,0,0,1-8.38-.43c-.78-.08-1.55-.18-2.31-.28s-1.52-.21-2.27-.34-1.49-.25-2.23-.4-1.46-.29-2.17-.46c-1.35-.3-2.66-.65-4-1L54,57l-2-.67c-.65-.22-1.29-.46-1.92-.71-1.26-.49-2.48-1-3.65-1.58-.59-.28-1.16-.56-1.73-.86s-1.11-.6-1.65-.91-1.06-.63-1.57-1-1-.66-1.49-1a33,33,0,0,1-2.74-2.11c-.43-.36-.84-.73-1.24-1.11s-.78-.76-1.15-1.15l-.53-.58a23.09,23.09,0,0,1-1.78-2.25L32,42.35l-.39-.63c-.25-.43-.48-.86-.7-1.29s-.41-.87-.59-1.32-.34-.89-.48-1.34c-.07-.22-.14-.45-.2-.67-.12-.46-.22-.92-.31-1.38a17.35,17.35,0,0,1-.26-2.8C29,17.77,50.08,5.49,76.23,5.49H201.35c1.63,0,3.23.1,4.81.21,1.19.09,2.36.2,3.52.34s2.29.3,3.42.48q2.64.43,5.16,1l1.37.34c1.4.37,2.76.77,4.09,1.21q1,.33,1.95.69a53,53,0,0,1,8,3.71,35.91,35.91,0,0,1,8.18,6.32c.37.39.72.79,1.06,1.19s.65.8.95,1.21a20.28,20.28,0,0,1,1.94,3.17,17.58,17.58,0,0,1,1.44,4,15.25,15.25,0,0,1,.38,2.78C247.62,32.45,247.63,32.68,247.63,32.92Z" fill="url(#ad55acd0-2228-4a43-9a93-a2b8ca59c7e8)"/></g><ellipse cx="63.02" cy="37.76" rx="36.38" ry="63.02" transform="translate(24.87 100.54) rotate(-89.64)" fill="url(#efca113f-5498-4a2d-86b0-8fe3ab375352)"/></symbol><symbol id="ffbd6891-ac02-4eed-9b13-fdeb7b11156e" data-name="button tablet green" viewBox="0 0 130.75 130.75"><circle cx="65.38" cy="65.38" r="65.38" fill="url(#aad4094a-3486-4d22-b435-0778b7ec828e)"/><circle cx="65.38" cy="65.38" r="41.39" fill="url(#b7ae3b22-4df9-4713-9335-7ebd1113406e)"/></symbol><symbol id="bc3afb0e-c6d3-4ae3-a6d5-215712fafe6d" data-name="tablet button" viewBox="0 0 17.19 12.58"><path d="M17.19,2.34A3.71,3.71,0,0,1,16.74,4a3,3,0,0,1-1.08,1.21L3.26,12.4a.91.91,0,0,1-1.08,0h0a1.48,1.48,0,0,1-.43-1.15v0a3.75,3.75,0,0,1,.45-1.69A3,3,0,0,1,3.26,8.35l12.18-7,.22-.13a1,1,0,0,1,1-.09h0A1.32,1.32,0,0,1,17.19,2.34Z" fill="url(#f577435a-acd6-4926-99a2-48a467ed7f29)"/><line x1="16.64" y1="1.1" x2="16.64" y2="1.1" fill="none" stroke="#000" stroke-miterlimit="10"/><path d="M16.64,1.1a1,1,0,0,0-1,.09l-.22.13-12.18,7A3,3,0,0,0,2.19,9.56a3.75,3.75,0,0,0-.45,1.69v0a1.48,1.48,0,0,0,.43,1.15L.64,11.53h0A1.27,1.27,0,0,1,0,10.25,3.76,3.76,0,0,1,.44,8.56,3,3,0,0,1,1.52,7.34L13.92.18a1.24,1.24,0,0,1,.5-.17.79.79,0,0,1,.46.07l0,0Z" fill="#a9a7b7"/><line x1="0.63" y1="11.53" x2="0.58" y2="11.49" fill="none" stroke="#000" stroke-miterlimit="10"/></symbol><symbol id="e652fd94-a60a-4401-9393-7dc2cc15d75c" data-name="tablet" viewBox="0 0 551.43 328.51"><g opacity="0.16"><path d="M322.19,12a22.72,22.72,0,0,1,11.14,2.56L535,131c3,1.72,4.44,4,4.44,6.43a7.85,7.85,0,0,1-2.23,5.17,16.07,16.07,0,0,1-4.05,3.21L243.75,312.88a29.78,29.78,0,0,1-14.51,3.63,22.59,22.59,0,0,1-11.14-2.57L16.44,197.52a11.13,11.13,0,0,1-2.21-1.64,6.56,6.56,0,0,1-2.23-4.8c0-2.91,2.13-6,6.28-8.38L307.67,15.62A29.92,29.92,0,0,1,322.19,12m0-12h0a41.65,41.65,0,0,0-20.51,5.23L12.28,172.31C4.47,176.83,0,183.67,0,191.08a18.57,18.57,0,0,0,5.93,13.47,23.34,23.34,0,0,0,4.53,3.38L212.1,324.34a34.39,34.39,0,0,0,17.14,4.17,41.65,41.65,0,0,0,20.51-5.23L539.15,156.2a28,28,0,0,0,7-5.65,19.6,19.6,0,0,0,5.25-13.13c0-6.86-3.81-13-10.44-16.82L339.33,4.17A34.31,34.31,0,0,0,322.19,0Z" fill="#85d8d1"/></g><g opacity="0.18"><path d="M322.19,12a22.72,22.72,0,0,1,11.14,2.56L535,131c3,1.72,4.44,4,4.44,6.43a7.85,7.85,0,0,1-2.23,5.17,16.07,16.07,0,0,1-4.05,3.21L243.75,312.88a29.78,29.78,0,0,1-14.51,3.63,22.59,22.59,0,0,1-11.14-2.57L16.44,197.52a11.13,11.13,0,0,1-2.21-1.64,6.56,6.56,0,0,1-2.23-4.8c0-2.91,2.13-6,6.28-8.38L307.67,15.62A29.92,29.92,0,0,1,322.19,12m0-6h0a35.55,35.55,0,0,0-17.52,4.43L15.28,177.51C9.38,180.92,6,185.87,6,191.08a12.44,12.44,0,0,0,4.09,9.15,17.08,17.08,0,0,0,3.36,2.5L215.1,319.14a28.36,28.36,0,0,0,14.14,3.37,35.48,35.48,0,0,0,17.51-4.43L536.15,151a21.93,21.93,0,0,0,5.56-4.45,13.72,13.72,0,0,0,3.72-9.13c0-4.65-2.71-8.89-7.44-11.62L336.33,9.37A28.31,28.31,0,0,0,322.19,6Z" fill="#333a45"/></g><path d="M539.43,137.42a7.85,7.85,0,0,1-2.23,5.17,16.07,16.07,0,0,1-4.05,3.21L243.75,312.88c-7.59,4.38-19.08,4.86-25.65,1.06L16.44,197.52a11.13,11.13,0,0,1-2.21-1.64,6.56,6.56,0,0,1-2.23-4.8c0-2.91,2.13-6,6.28-8.38L307.67,15.62c7.6-4.38,19.08-4.86,25.66-1.06L535,131C538,132.71,539.43,135,539.43,137.42Z" fill="none" stroke="#333a45" stroke-width="2.5" opacity="0.47"/><path d="M539.43,129.64a7.85,7.85,0,0,1-2.23,5.17,16.07,16.07,0,0,1-4.05,3.21L243.75,305.1c-7.59,4.38-19.08,4.86-25.65,1.06L16.44,189.74a11.13,11.13,0,0,1-2.21-1.64A6.56,6.56,0,0,1,12,183.3c0-2.91,2.13-6,6.28-8.38L307.67,7.84c7.6-4.38,19.08-4.86,25.66-1.06L535,123.21C538,124.93,539.43,127.23,539.43,129.64Z" fill="url(#e12d5709-363b-4146-b719-5dcd645081f8)"/><path d="M539.43,129.64v10c0,2.91-2.13,6-6.28,8.38L243.75,315.07c-7.59,4.38-19.08,4.86-25.65,1.06L16.44,199.7c-3-1.72-4.44-4-4.44-6.43v-10a6.56,6.56,0,0,0,2.23,4.8,11.13,11.13,0,0,0,2.21,1.64L218.1,306.16c6.57,3.8,18.06,3.32,25.65-1.06L533.15,138a16.07,16.07,0,0,0,4.05-3.21A7.85,7.85,0,0,0,539.43,129.64Z" fill="url(#adfa2779-27b3-4203-a1a7-f931cf263b64)"/><path d="M251,283.94,54.93,170.72c-4-2.32-3.52-6.39,1.13-9.07L313.38,13.08c4.65-2.68,11.69-3,15.72-.65L525.2,125.65c4,2.33,3.52,6.39-1.13,9.07L266.75,283.29C262.1,286,255.06,286.27,251,283.94Z" fill="url(#b130b8f5-36e6-4017-8474-bc883556ccd7)"/><ellipse cx="135.27" cy="237.56" rx="8.24" ry="14.27" transform="translate(-103.14 371.33) rotate(-89.64)" stroke-miterlimit="10" fill="url(#b91a9d5f-90bf-4dbe-83b2-1f12f5ba2f18)" stroke="url(#b0d261f4-61cf-4b76-9701-458e0a328a48)"/><use width="130.76" height="130.76" transform="matrix(0.53, 0.31, -0.53, 0.31, 231.56, 133.83)" xlink:href="#ffbd6891-ac02-4eed-9b13-fdeb7b11156e"/><use width="17.19" height="12.58" transform="translate(481.99 161.86)" xlink:href="#bc3afb0e-c6d3-4ae3-a6d5-215712fafe6d"/><use width="17.19" height="12.58" transform="translate(462.7 172.75)" xlink:href="#bc3afb0e-c6d3-4ae3-a6d5-215712fafe6d"/></symbol></defs><g style="isolation:isolate"><g id="b1fdf419-d603-46fa-ada9-323e151de5e1" data-name="ARTWORK"><g id="bef6752a-9b56-4c19-b1b6-c186a2dbc85c" data-name="Plant12"><path d="M1940.2,1610.9q94.32-150,219.91-106.72,72.6,27,112.85,90.07-138.81-60.45-332.76,16.65m212.77,4.23q-113.62-11.46-212.77-4.23,194-77.09,332.76-16.65Q2246.82,1624.36,2153,1615.13Z" fill="#91e2db"/><path d="M1821.83,1446.52q-29.24-244.33-172.44-342,104.16,7,176.33,78.92,83.34,116.71-3.89,263m-100.68-158.75q-32.89-37.45-50.47-77.69-27.83-63.63-21.29-105.52,143.2,97.62,172.44,342Q1795,1365.82,1721.15,1287.77Z" fill="#91e2db"/><path d="M2060.41,1160.63q85,85.61,89.94,217.95-8.73,89.49-74.87,146.84-27.55,23.94-78.41,46.79Q2075.82,1393.95,2060.41,1160.63Z" fill="#c2ebe8"/><path d="M1898.58,1559.54q10.39,7.43,10.09,38.72-.48,31.71-87,72.62Q1850.74,1593.8,1898.58,1559.54Z" fill="#c2ebe8"/><path d="M1866.18,1754.64q-80.52,8.05-119.15-15.53Q1837.78,1690.92,1866.18,1754.64Z" fill="#91e2db"/><path d="M1812.78,1610.6q-16.69,50.36-49.31,64.13Q1758.46,1624,1812.78,1610.6Z" fill="#91e2db"/><g clip-path="url(#a1a23b05-13c2-4e3f-8e75-6119abe072d2)"><g id="f3112907-9c19-491a-8992-58d5a4a93fd3" data-name="Layer1 9 MEMBER 1 FILL"><path d="M1821.83,1446.52q-9.27,67.89-30.64,142.62a415.66,415.66,0,0,0-17.72,100.58q96.16-39.43,176.71-94.12,49.62-33.94,79.11-70.67l-15.17,37.83a2397.39,2397.39,0,0,1-240.87,142.34q-89.24,91.13-167,223.16l-17.27-6.92q32.47-48.85,66.37-94.81-1.55-1.37-3.31-3.16-11.09-11.1-20-65.91t11.78-89.88q-10.86,40.2-6.13,68.26t13.71,46.58q9.07,18.63,12.21,24.1,1.55,2.84,2.72,5.3,42.26-56.33,86.72-108.14a2219.35,2219.35,0,0,0,66.79-300.13Q1830.36,1433,1821.83,1446.52Z" fill="#6ad8cf"/></g><path d="M2273,1594.25q-26.14,30.11-120,20.88-113.62-11.46-212.77-4.23Q2134.15,1533.82,2273,1594.25Z" fill="url(#a984ae7b-2226-427c-8789-8b5ab8ef4a48)"/><path d="M1940.2,1610.9q94.32-150,219.91-106.72,72.6,27,112.85,90.07Q2134.15,1533.8,1940.2,1610.9Z" fill="#91e2db"/><path d="M1649.39,1104.56q104.16,7,176.33,78.92,83.34,116.71-3.89,263Q1792.59,1202.19,1649.39,1104.56Z" fill="#91e2db"/><path d="M1821.83,1446.52q-26.79-80.7-100.68-158.75-32.89-37.45-50.47-77.69-27.83-63.63-21.29-105.52Q1792.59,1202.18,1821.83,1446.52Z" fill="url(#ee2ccd23-73f3-4c9c-84e6-c06332be3067)"/><path d="M1959.83,1487.75q-62.25,57-160.32,71,91.17-92.73,204.8-168,18.54,39.42-44.48,97m-76.77-82.57q75.48-36.56,121.25-14.48-113.62,75.29-204.8,168Q1830.38,1430.64,1883.06,1405.18Z" fill="#91e2db"/><path d="M1883.06,1405.18q75.48-36.56,121.25-14.48-113.62,75.29-204.8,168Q1830.38,1430.64,1883.06,1405.18Z" fill="#91e2db"/><path d="M1959.83,1487.75q-62.25,57-160.32,71,91.17-92.73,204.8-168Q2022.85,1430.12,1959.83,1487.75Z" fill="url(#e703f14d-328f-43de-9170-e8863f0081c7)"/><path d="M1689.78,1527.6c19.86,21.4,61,57.26,90.28,70.68-34.42-68.09-49.79-95.42-120.14-132.26-5.15,27.27,9.77,39.93,29.86,61.58m61.49-51.68c-39.43-25.89-56.5-23-91.58-10,70.61,37,86.36,64.57,120,132.13C1790.15,1561.8,1778.78,1494,1751.27,1475.92Z" fill="#91e2db"/><path d="M1751.27,1475.92c-39.45-25.9-56.49-23-91.59-10,70.62,37,86.37,64.57,120,132.13C1790.14,1561.79,1778.8,1494,1751.27,1475.92Z" fill="#91e2db"/><path d="M1689.78,1527.6c19.86,21.4,61,57.26,90.28,70.68-34.42-68.09-49.79-95.42-120.14-132.26C1654.76,1493.29,1669.7,1506,1689.78,1527.6Z" fill="url(#fa3a17f7-8cd6-475b-97c0-2f5d966ee8d8)"/><path d="M2060.41,1160.63q85,85.61,89.94,217.95-8.73,89.49-74.87,146.84-27.55,23.94-78.41,46.79Q2075.82,1393.95,2060.41,1160.63Z" fill="url(#a990a82d-ff5b-455b-a3f5-162fede92670)"/><path d="M1898.58,1559.54q10.39,7.43,10.09,38.72-.48,31.71-87,72.62Q1850.74,1593.8,1898.58,1559.54Z" fill="#c2ebe8"/><path d="M1694.82,1713.36Q1676,1768,1649.14,1786,1645,1712.74,1694.82,1713.36Z" fill="#91e2db"/><path d="M1812.78,1610.6q-16.69,50.36-49.31,64.13Q1758.46,1624,1812.78,1610.6Z" fill="#91e2db"/><path id="bfb5d658-5b13-4f05-9bbe-49f047b3ce00" data-name="-" d="M1712.56,1669.49q28.1,2,24.34,53.54Q1693.27,1684.13,1712.56,1669.49Z" fill="#c2ebe8"/><path d="M2160.11,1504.18q-28.28-9.75-55-9.69,38.66-49,45.2-115.91-5-132.36-89.94-217.95,13.41,203.17-44.58,364.59-34.39,25-65.5,70.27l-.15.11q-37.17,25.23-77.68,47.21,35.84-24.16,36.17-44.55.32-31.29-10.09-38.72-46.95,33.62-75.83,108.48-24.12,11.37-49.28,21.7.57-10.82,1.69-21.46,24.06-16.77,37.62-57.66-19,4.71-30.78,14,3.81-18,9.19-35.47,5.26-18.42,9.79-36.4c-.49,2-1,4-1.47,6h0q61.29-8.71,108.59-34.25,4.74-2.55,9.32-5.27t9-5.62a254.53,254.53,0,0,0,33.37-25.82q2-1.8,3.86-3.58,3.76-3.57,7.24-7.06,1.72-1.75,3.38-3.48,46.21-48.44,30-82.93a83.08,83.08,0,0,0-24.74-7.37q-3.33-.46-6.77-.7-31-2.12-71.34,14.33c-1.49.61-3,1.24-4.51,1.88q-4.54,2-9.2,4.11-2.34,1.1-4.69,2.23a81.18,81.18,0,0,0-22,16q-12,12-22.59,30.37-2.65,4.59-5.22,9.59-17.93,34.86-31.69,89.23a974.49,974.49,0,0,0,20.27-103.9h0q87.23-146.32,3.89-263-72.17-71.94-176.33-78.92-6.53,41.88,21.29,105.52,17.58,40.25,50.47,77.69,66.19,69.93,94.58,142-16.74,102.89-43.5,205.09-9.72,13.71-9.15,33.88-4.87,17.49-10,35-8.1,9.45-16.13,19.06,3.64-51.3-24.36-53.25-19.27,14.63,24.21,53.42-36,43-70.44,88.91-1.17-2.46-2.72-5.3-3-5.25-11.5-22.65,24.93-18.93,42.71-70.51-46.58-.57-46,63.41-7.2-17-11.15-40.93-4.74-28.06,6.13-68.26-20.76,35.12-11.78,89.88t20,65.91q1.77,1.8,3.31,3.16-33.9,46-66.37,94.81l17.27,6.92q77.8-132,167-223.17,86-44.28,167.33-94.79l-.38.6q99.15-7.23,212.77,4.23,93.84,9.22,120-20.88Q2232.7,1531.24,2160.11,1504.18Z" fill="url(#fc07ce8d-81c1-48c7-829a-7a795d03d4da)"/><path d="M1659.92,1466c-.2,1-.36,2-.5,3-1.45,10.46.2,18.74,4,26.33,4.31,8.57,11.38,16.28,19.84,25.27,2.09,2.22,4.26,4.52,6.5,6.93,19,20.51,57.62,54.27,86.55,68.87,1.26.64,2.51,1.25,3.73,1.81-.1-.21-.21-.42-.32-.63.49-1.73.94-3.52,1.33-5.38,3.18-15,3.2-34.1.36-52.63-3.38-22.06-10.8-43.34-21.72-56.12a40.07,40.07,0,0,0-8.44-7.6c-.29-.2-.58-.37-.87-.56-21.71-14.14-36.62-19.47-51.63-19.15-10.83.22-21.72,3.38-35.25,8.28l-3.84,1.4h0c5.55,2.91,10.76,5.75,15.67,8.57-2.32-1.33-4.72-2.67-7.18-4Q1664.18,1468.25,1659.92,1466Zm61.18,41.32c.79.75,1.58,1.51,2.36,2.28,3.65,3.59,7.06,7.29,10.31,11.13,1.32,1.55,2.6,3.14,3.87,4.74.32.42.65.83,1,1.24a236.71,236.71,0,0,1,17.29,26c-8.76-15-17.53-27.46-28.25-38.83-.8-.85-1.61-1.7-2.43-2.54-1.17-1.18-2.35-2.35-3.56-3.51-4-3.8-8.2-7.49-12.79-11.13,1.07.85,2.13,1.7,3.16,2.55C1715.22,1502,1718.23,1504.62,1721.1,1507.34Z" fill="url(#ad425a0e-9351-4120-a7fc-04f2614aea80)"/></g><path d="M1866.18,1754.64q-80.52,8.05-119.15-15.53Q1837.78,1690.92,1866.18,1754.64Z" fill="url(#b130ea13-7cb8-46ec-8b4a-f561fe9199ee)"/></g><g id="a1514604-d6aa-4968-834d-377eca770ac7" data-name="m Glass"><use width="269.17" height="74.14" transform="matrix(-1.4, 0, 0, 1.07, 1864.4, 1787.69)" xlink:href="#f5c53fe6-d3ca-442b-82f6-bddac1074192"/><path d="M1398.52,1495.59c-57.77,56-150.42,60.37-254.87.07-175.12-101.1-317.08-345.79-317.08-546.53,0-118.78,49.7-195.55,126.56-217.51C925.32,770.4,909.39,825,909.39,893c0,205.32,145.2,455.6,324.31,559C1293.87,1486.7,1350.22,1500.45,1398.52,1495.59Z" fill="url(#a637662a-9473-432e-a3c5-07d033469750)"/><path d="M1398.52,1495.59c-57.77,56-150.42,60.37-254.87.07-175.12-101.1-317.08-345.79-317.08-546.53,0-118.78,49.7-195.55,126.56-217.51C925.32,770.4,909.39,825,909.39,893c0,205.32,145.2,455.6,324.31,559C1293.87,1486.7,1350.22,1500.45,1398.52,1495.59Z" fill="url(#b775de24-bc22-44ff-81a5-8f3ed0a02709)"/><path d="M1558,1267.43c0,99.75-34.27,170.54-90,205.11l-.2.12-7.75,4.48-.16.08-83.14,48a157.84,157.84,0,0,0,37.64-32c33.89-39.17,53.61-98.18,53.61-173.85,0-205.32-145.2-455.6-324.31-559-66.88-38.61-129-51.29-180.65-41.33a159.54,159.54,0,0,0-42.3,14.38l78.39-45.41.08,0,8.45-4.89c58.42-31.4,138.16-25.46,226.08,25.3C1412.81,811.83,1558,1062.11,1558,1267.43Z" fill="#d4ecf6"/><g id="e17552d6-6916-4c20-b6c9-3557b9071032" data-name="SHADOW"><path d="M1498.46,1435.26l-20.32,32.64L1427.3,1496c23.5-23.5,25.34-41.27,25.34-41.27Z" fill="url(#bed15ce2-8c27-4639-8b8e-f0283c4e0486)"/></g><path d="M1558,1267.43c0,99.75-34.27,170.54-90,205.11l-.2.12-7.75,4.48-.16.08-83.14,48a157.84,157.84,0,0,0,37.64-32c33.89-39.17,53.61-98.18,53.61-173.85,0-205.32-145.2-455.6-324.31-559-66.88-38.61-129-51.29-180.65-41.33a159.54,159.54,0,0,0-42.3,14.38l78.39-45.41.08,0,8.45-4.89c58.42-31.4,138.16-25.46,226.08,25.3C1412.81,811.83,1558,1062.11,1558,1267.43Z" fill="url(#e59ff80d-a5b2-4f52-a128-e6637cbedcb8)"/><path d="M1460.72,1315.25c0,81-23.12,142.47-62.2,180.34-48.3,4.86-104.65-8.89-164.82-43.63-179.11-103.41-324.31-353.69-324.31-559,0-68,15.93-122.55,43.74-161.33,53-15.15,119-4.19,190.52,37.09C1318.76,869.82,1460.72,1114.51,1460.72,1315.25Z" fill="url(#f9bb6229-91e9-4360-a83f-d183b15c3936)"/><path d="M1088,663.84c43.8,0,93.29,14.34,145.68,44.58,179.11,103.41,324.31,353.69,324.31,559,0,99.75-34.27,170.54-90,205.11l-.2.12-7.75,4.48-.16.08-83.14,48,0,0-5.51,3.18-.05,0c-23.93,13.19-51.5,20-81.79,20-43.8,0-93.28-14.33-145.67-44.58-179.12-103.41-324.32-353.69-324.32-559,0-106.28,38.9-179.69,101.28-211.44l.09,0,78.39-45.41.08,0,8.45-4.89c23.61-12.69,50.7-19.28,80.4-19.28m0-9c-31,0-59.53,6.85-84.66,20.36l-.13.06-.12.07-8.45,4.89-.13.08-.08.05-78,45.17A165,165,0,0,0,872,758.79a194.2,194.2,0,0,0-33.46,48.52c-18.69,38-28.17,84.3-28.17,137.64,0,51.08,8.71,105.6,25.88,162,16.53,54.36,40.19,108.26,70.33,160.19s65.22,99.32,104.32,140.85c40.58,43.1,83.75,78,128.29,103.72,26.3,15.19,52.53,26.78,78,34.45,24.9,7.52,49.2,11.33,72.21,11.33,31.68,0,60.66-7.12,86.13-21.15l.15-.08.12-.08,5.45-3.14.47-.27,0,0,82.44-47.64.16-.08.23-.13,7.75-4.48.07,0,.06,0,.2-.12.06,0,0,0c29.86-18.5,53.21-46.11,69.41-82.06,16.52-36.67,24.9-80.64,24.9-130.7,0-51.07-8.71-105.59-25.88-162-16.53-54.36-40.19-108.26-70.32-160.19s-65.23-99.32-104.32-140.85c-40.59-43.11-83.75-78-128.29-103.72-26.31-15.19-52.54-26.78-78-34.45-24.91-7.52-49.21-11.34-72.22-11.34Z" fill="#fafbfc"/><path d="M1088,663.84c43.8,0,93.29,14.34,145.68,44.58,179.11,103.41,324.31,353.69,324.31,559,0,99.75-34.27,170.54-90,205.11l-.2.12-7.75,4.48-.16.08-83.14,48,0,0-5.51,3.18-.05,0c-23.93,13.19-51.5,20-81.79,20-43.8,0-93.28-14.33-145.67-44.58-179.12-103.41-324.32-353.69-324.32-559,0-106.28,38.9-179.69,101.28-211.44l.09,0,78.39-45.41.08,0,8.45-4.89c23.61-12.69,50.7-19.28,80.4-19.28m0-5c-30.38,0-58.23,6.69-82.77,19.88l-.07,0-.06,0-8.45,4.89-.08,0-.07,0h0L918.39,729l0,0a160.91,160.91,0,0,0-43.49,32.49,190.18,190.18,0,0,0-32.76,47.53c-18.42,37.43-27.76,83.15-27.76,135.87,0,50.69,8.65,104.81,25.7,160.88,16.45,54.07,40,107.68,70,159.35s64.89,98.81,103.77,140.11c40.32,42.83,83.17,77.48,127.38,103,26,15,52,26.51,77.11,34.09,24.53,7.41,48.44,11.16,71.06,11.16,31,0,59.32-7,84.2-20.66l.09,0,.08,0h0l5.47-3.16.26-.15,0,0,82.75-47.81h0l.14-.07.13-.08,7.75-4.48,0,0,0,0,.2-.12,0,0,0,0c29.17-18.07,52-45.09,67.87-80.3,16.29-36.16,24.55-79.57,24.55-129.06,0-50.68-8.65-104.8-25.7-160.87-16.45-54.07-40-107.69-70-159.36s-64.89-98.81-103.77-140.1c-40.32-42.83-83.18-77.48-127.38-103-26-15-52-26.5-77.12-34.09-24.53-7.4-48.44-11.16-71.06-11.16Z" fill="#fff"/><g opacity="0.37"><path d="M1088,668.84c21.64,0,44.58,3.62,68.17,10.74,24.4,7.36,49.63,18.52,75,33.17C1408.65,815.2,1553,1064,1553,1267.43c0,94.47-31.13,165.8-87.65,200.85l-.14.08-7.58,4.38h0l-.14.07-.13.07-83.14,48-.29.18-5.26,3,0,0h0c-23.36,12.85-50,19.37-79.29,19.37-21.64,0-44.57-3.61-68.17-10.73-24.39-7.37-49.63-18.53-75-33.18-43.36-25-85.45-59.08-125.1-101.19-38.36-40.74-72.81-87.27-102.41-138.27s-52.82-103.91-69-157.25c-16.77-55.12-25.27-108.27-25.27-158,0-51.18,9-95.41,26.73-131.46,17-34.45,41.08-59.84,71.7-75.46l.21-.1.24-.13,78.39-45.41.07,0,.07-.05h0l8.31-4.81c23-12.37,49.28-18.65,78-18.65m0-5c-29.7,0-56.79,6.59-80.4,19.28L999.17,688l-.08,0L920.7,733.47l-.09,0C858.23,765.26,819.33,838.67,819.33,945c0,205.32,145.2,455.6,324.32,559,52.39,30.25,101.87,44.58,145.67,44.58,30.29,0,57.86-6.85,81.79-20l.05,0,5.51-3.18,0,0,83.14-48,.16-.08,7.75-4.48.2-.12c55.78-34.57,90-105.36,90-205.11,0-205.32-145.2-455.6-324.31-559-52.39-30.24-101.88-44.58-145.68-44.58Z" fill="#fff"/></g><g id="a2e3b48d-1e75-4849-8ff5-b055b9692c15" data-name="gLASS"><g id="ba869cb1-7ab0-4d8b-ab12-be0273459524" data-name="Layer6 9 FILL"><path d="M1462.41,1313.26q0,74-24.9,127.1a186.74,186.74,0,0,1-26.7,42.05c-1.34,1.58-2.7,3.13-4.11,4.64q-3.14,3.43-6.49,6.66c-.67.65-1.34,1.28-2,1.91a151.2,151.2,0,0,1-24.33,18.49,182.23,182.23,0,0,1-32.35,2.8q-9.71,0-19.8-.9-60.26-5.6-126.15-43.65t-126.1-102q-58.15-61.8-103.05-139T897,1073.06q-25.46-83.7-25.45-159.3T897,783.86a193.84,193.84,0,0,1,24-39,152.82,152.82,0,0,1,32.19-13.27c53-15.15,119-4.19,190.52,37.09,30.08,17.37,59.18,39,86.76,63.87l0,0c81.88,73.93,150.27,176.85,190.71,283.85q8.71,21.58,15.8,43.69Q1462.42,1239.3,1462.41,1313.26Z" fill="url(#b4a6e033-e463-4f1b-ac84-1649083a8ca3)"/></g></g><g id="e4875cb3-dc6f-4379-81b2-6c56fbb02bdf" data-name="gLASS"><g id="e7352346-13bd-4fe1-a353-9f9113d11dde" data-name="Layer6 9 FILL"><path d="M1462.41,1313.26q0,74-24.9,127.1a186.74,186.74,0,0,1-26.7,42.05c-1.34,1.58-2.7,3.13-4.11,4.64q-3.14,3.43-6.49,6.66c-.67.65-1.34,1.28-2,1.91a151.2,151.2,0,0,1-24.33,18.49,182.23,182.23,0,0,1-32.35,2.8q-9.71,0-19.8-.9-60.26-5.6-126.15-43.65t-126.1-102q-58.15-61.8-103.05-139T897,1073.06q-25.46-83.7-25.45-159.3T897,783.86a193.84,193.84,0,0,1,24-39,152.82,152.82,0,0,1,32.19-13.27c53-15.15,119-4.19,190.52,37.09,30.08,17.37,59.18,39,86.76,63.87l0,0c81.88,73.93,150.27,176.85,190.71,283.85q8.71,21.58,15.8,43.69Q1462.42,1239.3,1462.41,1313.26Z" fill="url(#a9e2a0f5-1f2b-4f50-ae97-f53597ed2923)"/></g><g opacity="0.32" style="mix-blend-mode:soft-light"><g id="a7805eb1-130d-4e55-9b36-5d32c1502b31" data-name="Layer6 9 FILL"><path d="M1462.41,1313.26q0,74-24.9,127.1a186.74,186.74,0,0,1-26.7,42.05c-1.34,1.58-2.7,3.13-4.11,4.64q-3.14,3.43-6.49,6.66c-.67.65-1.34,1.28-2,1.91a151.2,151.2,0,0,1-24.33,18.49,182.23,182.23,0,0,1-32.35,2.8q-9.71,0-19.8-.9-60.26-5.6-126.15-43.65t-126.1-102q-58.15-61.8-103.05-139T897,1073.06q-25.46-83.7-25.45-159.3T897,783.86a193.84,193.84,0,0,1,24-39,152.82,152.82,0,0,1,32.19-13.27c53-15.15,119-4.19,190.52,37.09,30.08,17.37,59.18,39,86.76,63.87l0,0c81.88,73.93,150.27,176.85,190.71,283.85q8.71,21.58,15.8,43.69Q1462.42,1239.3,1462.41,1313.26Z" fill="none" stroke="#353b3e" stroke-width="16"/></g></g></g><path d="M1143.65,760.42c-66.88-38.61-129-51.29-180.65-41.33a159.54,159.54,0,0,0-42.3,14.38l-.09,0C858.23,765.26,819.33,838.67,819.33,945c0,205.32,145.2,455.6,324.32,559,88.61,51.16,168.93,56.79,227.46,24.54l.05,0,5.51-3.18,0,0a157.84,157.84,0,0,0,37.64-32c33.89-39.17,53.61-98.18,53.61-173.85C1468,1114.11,1322.76,863.83,1143.65,760.42Zm245.78,730.78c-56.32,55-146.65,59.36-248.48.06-170.73-99.42-309.13-340-309.13-537.46,0-116.81,48.45-192.3,123.39-213.9,51.71-14.9,116-4.12,185.74,36.47,170.72,99.44,309.12,340.07,309.12,537.48C1450.07,1393.5,1427.53,1454,1389.43,1491.2Z" fill="#a6bbcd"/><g opacity="0.16"><path d="M1799.67,1803.43c18,0,29.66,5.11,40.59,11.38a33.28,33.28,0,0,1,6.18,4.15c1,.81,10.42,6.87,8.81,14.63-.51,2.47-2.15,4.68-4.74,6.67q-9.1,7-30.75,7.85c-1.86.08-3.72.11-5.58.11a151.36,151.36,0,0,1-38.17-5c-18.52-4.8-37.81-14.55-39.86-21.16-2.56-8.25,25.62-13.88,43.91-16.89a121.31,121.31,0,0,1,19.61-1.73m0-12v0h0a132.87,132.87,0,0,0-21.56,1.89c-36.71,6-47.22,12.1-51.71,19.36a15.51,15.51,0,0,0-1.71,12.92c1.28,4.14,4.71,10.53,19.65,18.34a141.12,141.12,0,0,0,28.66,10.89,164.27,164.27,0,0,0,41.18,5.39c2,0,4,0,6-.12,17.13-.62,29.44-4,37.63-10.35,5-3.81,8-8.43,9.14-13.72,1.38-6.67.25-16.67-13-26.41l-.12-.08a43.22,43.22,0,0,0-7.43-5l-.22-.13c-11.74-6.74-25.5-13-46.56-13Z" fill="#85d8d1"/></g><g opacity="0.18"><path d="M1799.67,1803.43c18,0,29.66,5.11,40.59,11.38a33.28,33.28,0,0,1,6.18,4.15c1,.81,10.42,6.87,8.81,14.63-.51,2.47-2.15,4.68-4.74,6.67q-9.1,7-30.75,7.85c-1.86.08-3.72.11-5.58.11a151.36,151.36,0,0,1-38.17-5c-18.52-4.8-37.81-14.55-39.86-21.16-2.56-8.25,25.62-13.88,43.91-16.89a121.31,121.31,0,0,1,19.61-1.73m0-6v0h0a128.53,128.53,0,0,0-20.58,1.81c-36.61,6-44.6,11.77-47.59,16.6a9.6,9.6,0,0,0-1.08,8c3.4,11,28.23,21.08,44.08,25.19a158.46,158.46,0,0,0,39.68,5.2c1.93,0,3.89,0,5.82-.11,15.84-.58,27-3.56,34.18-9.1,3.81-2.92,6.15-6.36,7-10.2,1-5,0-12.5-10.69-20.35l-.24-.18a37.14,37.14,0,0,0-6.63-4.49l-.33-.19c-11-6.32-23.92-12.17-43.57-12.17Z" fill="#333a45"/></g><path d="M1840.26,1814.81a33.28,33.28,0,0,1,6.18,4.15c1,.8,10.42,6.87,8.81,14.63-.51,2.47-2.15,4.68-4.74,6.67q-9.1,7-30.75,7.85a149.93,149.93,0,0,1-43.75-4.9c-18.52-4.8-37.81-14.55-39.86-21.16-2.56-8.25,25.62-13.88,43.91-16.89C1810,1800.24,1825.8,1806.51,1840.26,1814.81Z" fill="none" stroke="#333a45" stroke-width="2.5" opacity="0.47"/><path d="M1643.46,1588.81c-1.18.43-2.41.93-3.7,1.5q-13.24,6-26.7,18.65-13.23,12.54-19,24.5l-140.9-169.65a5.91,5.91,0,0,1-1-1.2q-2.1-3.49,1.45-11,4.35-9,14.3-18.45t19.8-13.85q9.85-4.39,13.7-1.15a6.36,6.36,0,0,1,.8.85Z" fill="#d4ecf6"/><path d="M1643.46,1588.81c-1.18.43-2.41.93-3.7,1.5q-13.24,6-26.7,18.65-13.23,12.54-19,24.5l-140.9-169.65a5.91,5.91,0,0,1-1-1.2q-2.1-3.49,1.45-11,4.35-9,14.3-18.45t19.8-13.85q9.85-4.39,13.7-1.15a6.36,6.36,0,0,1,.8.85Z" fill="url(#b2bfe928-e4df-4919-9d14-b216d547a4c9)"/><path d="M1643.46,1588.81c-1.18.43-2.41.93-3.7,1.5q-13.24,6-26.7,18.65-13.23,12.54-19,24.5l-140.9-169.65a5.91,5.91,0,0,1-1-1.2q-2.1-3.49,1.45-11,4.35-9,14.3-18.45t19.8-13.85q9.85-4.39,13.7-1.15a6.36,6.36,0,0,1,.8.85Z" fill="url(#ede0c988-54c1-45f1-a327-a221ede50ec8)"/><g opacity="0.21"><path d="M998,718.84c21.84,0,45,3.64,68.76,10.82,24.54,7.41,49.92,18.63,75.43,33.36,43.53,25.13,85.77,59.3,125.55,101.56,38.46,40.85,73,87.5,102.68,138.64s53,104.18,69.22,157.66c16.83,55.32,25.36,108.66,25.36,158.55,0,72.47-18.29,131.91-52.88,171.89a155.31,155.31,0,0,1-36.93,31.38l-.09.06-5.44,3.14h0c-23.68,13-50.69,19.64-80.3,19.64-21.83,0-45-3.64-68.75-10.82-24.54-7.4-49.91-18.63-75.42-33.35-43.53-25.13-85.77-59.3-125.56-101.56-38.46-40.85-73-87.5-102.68-138.64S864,1157,847.69,1103.5c-16.83-55.31-25.36-108.65-25.36-158.55,0-51.49,9.06-96,26.94-132.34,17.16-34.87,41.6-60.57,72.63-76.39h0l.07,0,.07,0A156.87,156.87,0,0,1,963.57,722a182.21,182.21,0,0,1,34.39-3.2h0m0-3a185,185,0,0,0-35,3.25,159.54,159.54,0,0,0-42.3,14.38l-.09,0C858.23,765.26,819.33,838.67,819.33,945c0,205.32,145.2,455.6,324.32,559,52.39,30.25,101.87,44.58,145.67,44.58,30.29,0,57.87-6.85,81.79-20l.05,0,5.51-3.18,0,0a157.84,157.84,0,0,0,37.64-32c33.89-39.17,53.61-98.18,53.61-173.85,0-205.32-145.2-455.6-324.31-559-52.4-30.24-101.88-44.58-145.69-44.58Z" fill="#fff"/></g><path d="M1468,1319.43c0,75.67-19.72,134.68-53.61,173.85a157.84,157.84,0,0,1-37.64,32l0,0-5.51,3.18-.05,0c-58.53,32.25-138.85,26.62-227.46-24.54-179.12-103.41-324.32-353.69-324.32-559,0-106.28,38.9-179.69,101.28-211.44l.09,0A159.54,159.54,0,0,1,963,719.09c51.63-10,113.77,2.72,180.65,41.33C1322.76,863.83,1468,1114.11,1468,1319.43Z" fill="none" stroke="#a6bbcd" stroke-miterlimit="10" stroke-width="5" opacity="0.48" style="mix-blend-mode:darken"/><g opacity="0.39"><path d="M1002.09,733.51v3c20.8,0,42.83,3.5,65.49,10.4,23.38,7.12,47.56,17.9,71.86,32.06,41.48,24.15,81.73,57,119.64,97.62,36.65,39.27,69.57,84.11,97.85,133.28s50.47,100.15,66,151.56c16,53.18,24.17,104.46,24.17,152.42,0,38.64-5.34,73.49-15.87,103.59-10.13,29-24.89,53.06-43.87,71.61a144.34,144.34,0,0,1-48.3,31.34,161.38,161.38,0,0,1-59.22,10.73c-20.8,0-42.83-3.49-65.49-10.39-23.38-7.12-47.56-17.9-71.86-32.06-41.48-24.15-81.73-57-119.65-97.61-36.65-39.28-69.57-84.12-97.85-133.28s-50.47-100.15-66-151.57c-16-53.17-24.16-104.45-24.16-152.41,0-28.42,2.91-55,8.66-79C849,851.61,857.29,830.7,868,812.68a160.68,160.68,0,0,1,38.19-44.32A144.21,144.21,0,0,1,956,742.78a166.27,166.27,0,0,1,46.05-6.27v-3m0,0a168.63,168.63,0,0,0-46.88,6.39C880.27,761.5,831.82,837,831.82,953.8c0,197.41,138.4,438,309.13,537.46,49.94,29.09,97.11,42.86,138.86,42.86,43.38,0,80.92-14.88,109.62-42.92,38.1-37.25,60.64-97.7,60.64-177.35,0-197.41-138.4-438-309.12-537.48-49.94-29.08-97.11-42.86-138.86-42.86Z" fill="#a6bbcd"/></g><g id="ac193b44-166e-4c67-84e2-333273856eeb" data-name="Mango"><path d="M1850.51,1840.26q-9.1,7-30.75,7.85a149.93,149.93,0,0,1-43.75-4.9q-22.89-6-36.73-16.8l-146.62-176.65-.48-.57q-3-4.14.53-12.83c.32-.81.69-1.64,1.1-2.5.06-.14.13-.27.2-.4q5.82-12,19-24.5,13.45-12.7,26.7-18.65c1.29-.57,2.52-1.07,3.7-1.5s2.52-.87,3.68-1.18q7.47-1.91,11.07,1.08l.18.15,1.29,1.58L1850.24,1820c.2.26.41.52.62.77Q1860.3,1832.75,1850.51,1840.26Z" fill="url(#b3e04f0c-1814-4300-80d5-ca1e8ac3bf14)"/><path d="M1850.51,1840.26q-9.1,7-30.75,7.85a149.93,149.93,0,0,1-43.75-4.9q-22.89-6-36.73-16.8l-146.62-176.65-.48-.57q-3-4.14.53-12.83c.32-.81.69-1.64,1.1-2.5.06-.14.13-.27.2-.4q5.82-12,19-24.5,13.45-12.7,26.7-18.65c1.29-.57,2.52-1.07,3.7-1.5s2.52-.87,3.68-1.18q7.47-1.91,11.07,1.08l.18.15,1.29,1.58L1850.24,1820c.2.26.41.52.62.77Q1860.3,1832.75,1850.51,1840.26Z" fill="url(#b254ba2d-082a-4c1d-aca0-46bbc70e764e)"/></g><g mask="url(#e5cf8747-037e-42dc-a301-677c4cd3c0a5)"><g filter="url(#b90677b5-b486-462b-bec4-41dfcc1a2c85)"><ellipse cx="1259.1" cy="1135.44" rx="112.21" ry="130.52" transform="translate(-353.76 1658.13) rotate(-60)" fill="#fff" opacity="0.39"/></g></g></g><use width="551.43" height="328.51" transform="translate(820.04 1762.08) scale(0.89)" xlink:href="#e652fd94-a60a-4401-9393-7dc2cc15d75c"/><g id="e323dc1c-d30f-4c8b-b5d7-5a9dcf55e7b3" data-name="Dog"><use width="269.17" height="74.14" transform="matrix(-2.63, 0, 0, 2.63, 1113.72, 1879.07)" xlink:href="#f5c53fe6-d3ca-442b-82f6-bddac1074192"/><g id="e927a51b-d153-4285-81c3-2aa978ce985a" data-name="bulldog2 0 Layer0 0 FILL"><path d="M1049.85,1778.9h-34.73l-27.51,117.19,4.62,33.24q3.25,13.25,11.34,10.41,17.29-8.55,25.42-16.17,8.16-9,0-15.5a15.93,15.93,0,0,0-12-3.18q10.15-34.46,11.13-57.56Z" fill="#c7e2ea"/></g><g opacity="0.4"><g id="a4a82039-0f86-4409-9090-e10d8d568eb1" data-name="bulldog2 0 Layer0 1 FILL"><path d="M992.23,1929.33q3.46,13.53,11.34,10.41,10.2-36.12,8.94-67.46Z" fill="#069"/></g></g><g id="ab0e551c-6196-4ba5-a391-52eff981a13d" data-name="bulldog2 0 Layer0 2 FILL"><path d="M997,1550.6H982.66a71.77,71.77,0,0,0-44.12,25.79q-59.35-36.36-53-14.09t53.22,66q-14.46,40.68-49.52,116.1-70,102-81.32,191.24,1.08,55.5,38.44,84.63,52.13,19.35,72.34,18.81t45.76-15.72q25.54-15.17,40.34-36.79,4.76-7.48,1-12.45-7.15-9.42-16.27-4.74,7.63-15.72,5.84-51,8.14-12,17.17-46.15l38.63-63.68q8.37-23.07-5-111.51,11.8-24.24,13.87-41.82,16.3-28.18,18-55.49a184.81,184.81,0,0,0-15.49-40L1052,1547.45q-9.09-19.5-36.22-9.44Z" fill="#d4ecf6"/></g><path id="bbd8ba3e-f749-40a6-8caa-479e508599ca" data-name="white" d="M1050.3,1688a60,60,0,0,0,6.88-19,90.48,90.48,0,0,0,2.82-13.73q16.3-28.18,18-55.49a184.81,184.81,0,0,0-15.49-40L1052,1547.45q-9.09-19.5-36.22-9.44l-.89.58h0l-8.5,5.7h0l-9.37,6.3H982.66a71.77,71.77,0,0,0-44.12,25.79q-56.1-34.37-53.47-16.34h0c0,.09,0,.18.05.27q.06.39.15.81c.08.38.18.77.29,1.18q6.39,22.29,53.22,66c-.77,2.17-1.59,4.43-2.46,6.75v0l-8.92,22.9q-14.32,35.22-38.14,86.47-2.19,3.19-4.32,6.36l-.11.18q-13.19,19.63-24.16,38.81-44,76.77-52.73,145.89.57,29.23,11.21,51.15a94.14,94.14,0,0,0,27.23,33.48l.3.11q51.87,19.24,72,18.7h0a71.39,71.39,0,0,0,20.51-3.87,129.7,129.7,0,0,0,25.24-11.83c1.78-1.06,3.51-2.15,5.21-3.25l.46-.31.5-.33.07,0c1-.63,1.9-1.27,2.83-1.92l.31-.22.91-.63.27-.19,0,0q2.16-1.53,4.22-3.12h0a118.36,118.36,0,0,0,25.64-26.84q4.76-7.48,1-12.45-6.9-9.09-15.66-5l1.93-6.32,0,.07a87.06,87.06,0,0,0,3.09-17.38c.53-2.41,1-4.78,1.42-7.09a6,6,0,0,0,7,1.32q17.29-8.55,25.42-16.17,8.16-9,0-15.5a15.93,15.93,0,0,0-12-3.18q10.15-34.46,11.13-57.56,10.77-11.25,23-38.73,8.37-23.07-5-111.51,2.26-4.66,4.17-9.07Z" fill="url(#be8185e8-dc77-4ba4-b1d0-37408135517b)"/><g id="bedf3817-0e9c-40b3-93cf-76d2e6cbc629" data-name="bulldog2 0 Layer0 3 FILL"><path d="M970.1,1677.8q35.88,8.63,80.2,10.22a60.18,60.18,0,0,0,6.89-19q-114.3-15.52-120.88-33.91l-9.17,23.52q3.57,5.21,15,10.24A167.29,167.29,0,0,0,970.1,1677.8Z" fill="#12abbb"/></g><g opacity="0.1"><g id="acc3d739-1522-4927-a932-078688df2645" data-name="bulldog2 0 Layer0 4 FILL"><path d="M958.53,1582.27v23.52q-17.46-4.95-73.47-45.75a16.46,16.46,0,0,0,.51,2.28q6.38,22.26,53.2,66-14.47,40.68-49.52,116.1-70,102-81.32,191.24,1.08,55.5,38.44,84.63,52.13,19.37,72.34,18.81t45.76-15.7a145.9,145.9,0,0,0,14.73-10q-35.69,6.64-63.26,4.76,94.24-145.29-57.62-105.27a108.06,108.06,0,0,1,17.56-27.6l47.62-54q-20.19-6.72-51.73,9.35l78.85-126.27q3-33.48,16.62-56.33a429.39,429.39,0,0,0,56.8-7.71q21-13.29,22.62-31.56l-25-18.87q-34.05-10.83-25.77,20.23Z" fill="#069"/></g></g><g id="bf3ffd6a-c078-4a28-a69c-067b527e2221" data-name="bulldog2 0 Layer0 5 FILL"><path d="M927.92,1884.14q38.82.36,59.69,11.95,6,3.12,6.48,53.86,10.83-44.55-3.64-66Q952.4,1875.82,927.92,1884.14Z" fill="#0a264b" fill-opacity="0.7" opacity="0.15"/></g><g id="b19dc866-8264-4e6e-9730-d920ef603c28" data-name="bulldog2 0 Layer0 6 FILL"><path d="M960.88,2016.36l15.54-2.43L992,1962.82Q974.49,2004,960.88,2016.36Z" fill="#069" fill-opacity="0.23"/></g><g opacity="0.16"><g id="e80af4e9-5732-419a-9b00-5f9c0861ed7e" data-name="bulldog2 0 Layer0 7 FILL"><path d="M1031,1631q5.41-8.81.06-17.28-11.71-18.51-23.14-16.59-20.52-22.57-12,23,4.21,16.72,24.5,30.93Z" fill="#069"/></g></g><path d="M997,1550.6,976.09,1552q58.45,11.24,79.83,20.79-2-13.23-49.58-28.53Z" fill="#0a264b" fill-opacity="0.2"/><g id="e08877e6-ec7d-489e-93d5-4ee4321dd72e" data-name="bulldog2 0 Layer0 9 FILL"><path d="M1050,1598.2q-5.46-4.38-24.77-9.9t-30.57,3.15Q1037.12,1592.92,1050,1598.2Z" fill="#0a264b" fill-opacity="0.31" opacity="0.15"/></g><g id="ea2b7bcb-9bbc-4636-a016-6f7fbdf6f053" data-name="bulldog2 0 Layer0 10 FILL"><path d="M1009.47,1844.84q11.13-.77,18.7,2.49,10.77-11.25,23-38.73A131,131,0,0,1,1009.47,1844.84Z" fill="#0a264b" fill-opacity="0.2" opacity="0.15"/></g><g opacity="0.12"><g id="a876fc10-62bf-4107-888a-add8fab6b7fc" data-name="bulldog2 0 Layer0 11 FILL"><path d="M968.39,1627.62l-20-4.82L885.06,1560a19,19,0,0,0,.49,2.26q6.39,22.29,53.22,66-14.46,40.68-49.52,116.1-70,102-81.32,191.24,1.08,55.5,38.44,84.63,52.13,19.35,72.34,18.81t45.76-15.72q5.53-3.29,10.56-6.87-23.31,15.06-75.48,9.92,23.46-67.92-26.32-82.12t-47.83-32.69q7.36-34.92,24.84-89.63h0Q883,1766.72,918,1711q15.12,5.51,17.35,1.68-.71-4.45-4.61-17.35.39-10.59,37.68-67.7M820.31,1958.25c.46,2.42,1,4.93,1.52,7.53A33.18,33.18,0,0,1,820.31,1958.25Z" fill="#069"/></g></g><g id="f3bedf99-2664-452c-aad4-d66d55e7e36a" data-name="bulldog2 0 Layer0 12 FILL"><path d="M1056.07,1552.27l-4.12-4.82q-9.09-19.5-36.22-9.44l-.89.58A156.66,156.66,0,0,1,1056.07,1552.27Z" fill="#27244b"/></g></g></g></g></svg>