<?xml version="1.0" encoding="UTF-8"?><svg xmlns="http://www.w3.org/2000/svg" xmlns:xlink="http://www.w3.org/1999/xlink" viewBox="0 0 3968 2232"><defs><style>.cls-1{fill:#3a6c95;}.cls-1,.cls-2,.cls-3,.cls-4,.cls-5,.cls-6,.cls-7,.cls-8,.cls-9,.cls-10,.cls-11,.cls-12,.cls-13,.cls-14,.cls-15,.cls-16,.cls-17,.cls-18,.cls-19,.cls-20,.cls-21,.cls-22,.cls-23,.cls-24,.cls-25,.cls-26,.cls-27,.cls-28,.cls-29,.cls-30,.cls-31,.cls-32,.cls-33,.cls-34,.cls-35,.cls-36,.cls-37,.cls-38,.cls-39,.cls-40,.cls-41,.cls-42,.cls-43,.cls-44,.cls-45,.cls-46,.cls-47,.cls-48,.cls-49,.cls-50,.cls-51,.cls-52,.cls-53,.cls-54,.cls-55,.cls-56,.cls-57,.cls-58,.cls-59,.cls-60,.cls-61,.cls-62,.cls-63,.cls-64,.cls-65,.cls-66,.cls-67,.cls-68,.cls-69,.cls-70,.cls-71,.cls-72,.cls-73,.cls-74,.cls-75,.cls-76,.cls-77,.cls-78,.cls-79,.cls-80,.cls-81,.cls-82,.cls-83,.cls-84,.cls-85,.cls-86,.cls-87,.cls-88,.cls-89,.cls-90,.cls-91,.cls-92,.cls-93,.cls-94,.cls-95,.cls-96,.cls-97,.cls-98,.cls-99,.cls-100,.cls-101,.cls-102{stroke-width:0px;}.cls-103,.cls-104,.cls-105,.cls-106,.cls-107,.cls-108,.cls-109,.cls-110,.cls-111,.cls-112,.cls-113,.cls-114{fill:none;}.cls-103,.cls-111{stroke:#6da0e8;}.cls-2{fill:url(#linear-gradient-12);}.cls-104{stroke-miterlimit:10;stroke-width:.5px;}.cls-104,.cls-112{stroke:#4f18cd;stroke-linecap:round;}.cls-3{fill:url(#Degradado_sin_nombre_82);}.cls-4{opacity:.07;}.cls-4,.cls-18,.cls-22,.cls-81{fill:#0f0b26;}.cls-5{fill:url(#linear-gradient-17);}.cls-6{fill:#141226;}.cls-105{stroke-width:20px;}.cls-105,.cls-106,.cls-107,.cls-109,.cls-110,.cls-113{stroke:#022e49;}.cls-105,.cls-113{opacity:.15;}.cls-7{fill:#90e5ff;}.cls-8{fill:url(#linear-gradient-19);}.cls-9{fill:url(#linear-gradient);}.cls-115{fill:url(#linear-gradient-6);}.cls-115,.cls-106,.cls-116,.cls-117{stroke-width:2px;}.cls-115,.cls-116,.cls-117{stroke:#8ce3fe;}.cls-10{fill:url(#Nueva_muestra_de_degradado_13-6);}.cls-106,.cls-110{opacity:.72;}.cls-11{fill:#ddf0f8;}.cls-12{fill:url(#Degradado_sin_nombre_19);}.cls-118{filter:url(#AI_DesenfoqueGaussiano_4-8);}.cls-118,.cls-119,.cls-120,.cls-121,.cls-122,.cls-123{opacity:.53;}.cls-119{filter:url(#AI_DesenfoqueGaussiano_4-7);}.cls-13{fill:#257ac2;}.cls-14{fill:url(#Nueva_muestra_de_degradado_38-5);}.cls-15{fill:#97eee5;}.cls-16{fill:url(#Degradado_sin_nombre_3);}.cls-17{fill:#355bfc;}.cls-124{filter:url(#AI_DesenfoqueGaussiano_4-6);}.cls-19{fill:url(#New_Gradient_Swatch_2-2);}.cls-20{fill:#0d477a;}.cls-125{filter:url(#AI_DesenfoqueGaussiano_4-5);}.cls-21{fill:url(#Nueva_muestra_de_degradado_38-6);}.cls-22{opacity:.3;}.cls-120{filter:url(#AI_DesenfoqueGaussiano_4);}.cls-23{fill:#8ce3fe;}.cls-24{fill:url(#linear-gradient-15);}.cls-25{fill:url(#Degradado_sin_nombre_463);}.cls-26{fill:url(#Degradado_sin_nombre_30);}.cls-27{fill:url(#Nueva_muestra_de_degradado_38-3);}.cls-28{fill:url(#linear-gradient-7);opacity:.85;}.cls-29{fill:url(#linear-gradient-5);}.cls-30{fill:#7fa0be;}.cls-31{fill:#efe8f5;}.cls-32{fill:url(#Degradado_sin_nombre_19-2);}.cls-33{fill:url(#Degradado_sin_nombre_28);}.cls-34{fill:url(#Degradado_sin_nombre_19-3);}.cls-35{fill:url(#Nueva_muestra_de_degradado_13);}.cls-36{fill:#7a67e5;}.cls-107{stroke-width:4px;}.cls-107,.cls-109{opacity:.41;}.cls-37{fill:#06467b;}.cls-38{fill:url(#Nueva_muestra_de_degradado_38-4);}.cls-39{fill:url(#linear-gradient-13);}.cls-40{fill:#d3f5ff;}.cls-41{fill:url(#Nueva_muestra_de_degradado_38-2);}.cls-42{fill:url(#Degradado_sin_nombre_263);}.cls-43{fill:url(#linear-gradient-16);}.cls-108{opacity:.4;stroke:#95eee5;}.cls-108,.cls-111{stroke-miterlimit:10;}.cls-44{fill:#869dfd;}.cls-45{fill:#0b477d;}.cls-46{fill:url(#Degradado_sin_nombre_4);}.cls-47{fill:url(#Degradado_sin_nombre_31-2);opacity:.5;}.cls-48{fill:url(#Degradado_sin_nombre_464);}.cls-49{fill:url(#linear-gradient-14);}.cls-50{fill:url(#linear-gradient-2);}.cls-51{fill:url(#Nueva_muestra_de_degradado_5-2);}.cls-52{fill:url(#Degradado_sin_nombre_256);}.cls-53{fill:url(#Degradado_sin_nombre_11);}.cls-109{stroke-width:15px;}.cls-110,.cls-113{stroke-width:7px;}.cls-54{fill:url(#radial-gradient-2);}.cls-55{fill:#e5f4fa;}.cls-56{fill:url(#linear-gradient-3);}.cls-57{fill:url(#Degradado_sin_nombre_484);}.cls-58{fill:url(#Degradado_sin_nombre_31);}.cls-59{fill:url(#Nueva_muestra_de_degradado_13-5);}.cls-60{fill:url(#linear-gradient-9);}.cls-61{fill:url(#New_Gradient_Swatch_2-3);}.cls-62{fill:url(#radial-gradient);}.cls-63{fill:url(#Nueva_muestra_de_degradado_38);}.cls-64{fill:#5d7cfd;}.cls-65{fill:#ffa3ab;}.cls-66{fill:#e4e1fa;}.cls-121{filter:url(#AI_DesenfoqueGaussiano_4-3);}.cls-67{fill:#1cabb9;}.cls-68{fill:url(#linear-gradient-8);}.cls-69{fill:#8586c1;}.cls-70{fill:#eef7fb;}.cls-111{stroke-width:3px;}.cls-126{opacity:.36;}.cls-71{fill:url(#linear-gradient-18);}.cls-72{fill:#58d1ed;}.cls-73{fill:#4dd2d2;opacity:.75;}.cls-122{filter:url(#AI_DesenfoqueGaussiano_4-4);}.cls-123{filter:url(#AI_DesenfoqueGaussiano_4-2);}.cls-74{fill:#6da0e8;}.cls-75{fill:#e86f8a;}.cls-76{fill:#232484;}.cls-116{fill:url(#linear-gradient-11);}.cls-117{fill:url(#New_Gradient_Swatch_2);}.cls-77{fill:url(#Degradado_sin_nombre_464-2);}.cls-78{fill:#7e9fbb;}.cls-79{fill:url(#Degradado_sin_nombre_937);}.cls-80{fill:#12abbb;}.cls-81{opacity:.04;}.cls-82{fill:url(#Degradado_sin_nombre_489);}.cls-83{fill:#99c;}.cls-112{stroke-miterlimit:10;stroke-width:.5px;}.cls-84{fill:url(#Nueva_muestra_de_degradado_5-3);}.cls-85{fill:url(#Nueva_muestra_de_degradado_5-4);}.cls-86{fill:url(#linear-gradient-10);}.cls-87{fill:url(#Degradado_sin_nombre_26);opacity:.53;}.cls-88{fill:#cac2f5;}.cls-89{fill:url(#Nueva_muestra_de_degradado_13-4);}.cls-90{fill:#d4ecf6;}.cls-91{fill:url(#Degradado_sin_nombre_464-3);}.cls-92{fill:#a2bcd2;}.cls-93{fill:url(#linear-gradient-4);}.cls-114{stroke:rgba(20,37,63,.98);stroke-linecap:square;stroke-linejoin:round;stroke-width:.25px;}.cls-94{fill:#e7708a;}.cls-95{fill:url(#Degradado_sin_nombre_22);}.cls-96{fill:#bec8cf;}.cls-97{fill:url(#Nueva_muestra_de_degradado_13-3);}.cls-98{fill:#f6fbfd;}.cls-99{fill:#90aac1;}.cls-100{fill:url(#Nueva_muestra_de_degradado_51);}.cls-101{fill:url(#Nueva_muestra_de_degradado_13-2);}.cls-102{fill:url(#Nueva_muestra_de_degradado_5);}</style><linearGradient id="linear-gradient" x1="49.86" y1="54.74" x2="139.68" y2="200.86" gradientUnits="userSpaceOnUse"><stop offset=".78" stop-color="#81d9f4"/><stop offset=".82" stop-color="#6fcfef"/><stop offset=".94" stop-color="#3cb2e3"/><stop offset="1" stop-color="#29a8df"/></linearGradient><linearGradient id="linear-gradient-2" x1="104.85" y1="16.21" x2="200.13" y2="171.2" xlink:href="#linear-gradient"/><linearGradient id="linear-gradient-3" x1="82.38" y1="121.71" x2="67.36" y2="165.88" gradientUnits="userSpaceOnUse"><stop offset="0" stop-color="#b5efff"/><stop offset="1" stop-color="#90dff9"/></linearGradient><symbol id="CLUSTERDARK" viewBox="0 0 286.81 211.9"><path id="Shad" class="cls-22" d="m5.04,126.84c-2.3-1.33-2.3-3.52-.01-4.86L119.26,52.64c2.29-1.34,6.05-1.37,8.35-.05l148.32,84.64c2.3,1.32,2.3,3.46,0,4.77l-117.59,68.92c-2.31,1.31-6.07,1.29-8.37-.04L5.04,126.84Z"/><path id="G-In" class="cls-9" d="m27,67.91L1.45,82.32c.85-.49,147.28,123.51,146.44,123.99l44.57-25.9L27,67.91Z"/><path id="GTop" class="cls-50" d="m279.07,81.85L139.14,1.06c-2.16-1.24-4.11-1.36-5.52-.54L5.27,75.12c.76-.44,148.61,85.49,148.61,85.49l2.78,8.43s-.37,37.53-.56,37.64l128.35-74.59c1.4-.81,2.26-2.53,2.27-4.98l.09-31.84c.01-4.92-3.46-10.94-7.74-13.41Z"/><path id="GLeftB" class="cls-56" d="m144.69,163.5c2.58,1.49,4.66,5.09,4.65,8.05l-.09,31.84c0,2.96-2.1,4.15-4.68,2.67L4.65,125.28C2.07,123.79,0,120.18,0,117.22l.09-31.84c0-2.96,2.1-4.15,4.68-2.67l139.92,80.78Z"/><path id="LeftA" class="cls-40" d="m150.71,156.44L11.92,76.3l-1.13-.65c-4.28-2.47-7.78-.48-7.79,4.44v1.4s4.73-2.75,4.73-2.75c.45-.2,142.97,81.26,142.97,81.26,2.58,1.49,4.66,5.09,4.65,8.05l-.09,31.84c0,1.48-.53,2.51-1.37,3,0,0,0,0-.01,0l-4.44,2.58,1.13.65c4.29,2.47,7.78.48,7.8-4.44v-1.4s.09-30.44.09-30.44c.01-4.92-3.46-10.94-7.74-13.41Z"/><g id="Deko"><path class="cls-72" d="m111.8,167.14l-.5-.29c-.85-.49-1.53.03-1.53,1.16s.69,2.44,1.53,2.93l.5.29c.85.49,1.53-.03,1.53-1.16s-.69-2.44-1.53-2.93Z"/><path class="cls-72" d="m149.27,188.6c-.16-.01-.32-.06-.47-.14l-29.72-17.16c-.85-.49-1.53.03-1.53,1.16s.69,2.44,1.53,2.93l29.83,17.22c.11.07.24.11.36.13v-4.13Z"/></g></symbol><linearGradient id="linear-gradient-4" x1="15783.48" y1="279.26" x2="16090.9" y2="279.26" gradientTransform="translate(16090.9) rotate(-180) scale(1 -1)" gradientUnits="userSpaceOnUse"><stop offset="0" stop-color="#0f0b26" stop-opacity=".5"/><stop offset=".29" stop-color="#0f0b26" stop-opacity=".1"/><stop offset=".82" stop-color="#0f0b26" stop-opacity="0"/></linearGradient><linearGradient id="linear-gradient-5" x1="88.07" y1="334.65" x2="499.05" y2="334.65" gradientUnits="userSpaceOnUse"><stop offset=".03" stop-color="#0772ac"/><stop offset=".26" stop-color="#1488c1"/><stop offset=".51" stop-color="#1f9ad2"/><stop offset=".69" stop-color="#23a1d8"/><stop offset=".9" stop-color="#23a1d8"/><stop offset=".92" stop-color="#23a1d8"/></linearGradient><linearGradient id="linear-gradient-6" x1="-5068.63" y1="5492.4" x2="-5403.79" y2="5492.4" gradientTransform="translate(911.94 10288.43) rotate(119.64) skewX(-30)" gradientUnits="userSpaceOnUse"><stop offset=".01" stop-color="#63bde4"/><stop offset=".28" stop-color="#63bde4"/><stop offset=".47" stop-color="#48acd9"/><stop offset=".75" stop-color="#2697cc"/></linearGradient><linearGradient id="New_Gradient_Swatch_2" x1="444.87" y1="242.3" x2="145.63" y2="242.3" gradientTransform="translate(534.03 -52.79) rotate(89.64)" gradientUnits="userSpaceOnUse"><stop offset="0" stop-color="#0070af"/><stop offset="1" stop-color="#16447d"/></linearGradient><symbol id="MasterTowers" viewBox="0 0 502.82 403.63"><g id="Shadow"><path class="cls-93" d="m307.39,399.39H0v-240.25h282.74s25.8,239.09,24.64,240.25Z"/></g><g id="Base_elements"><g id="gradBaseStrokes"><ellipse class="cls-113" cx="293.83" cy="281.49" rx="118.63" ry="205.49" transform="translate(10.5 573.54) rotate(-89.64)"/><ellipse class="cls-107" cx="293.83" cy="281.49" rx="118.63" ry="205.49" transform="translate(10.5 573.54) rotate(-89.64)"/><ellipse class="cls-106" cx="293.83" cy="281.49" rx="118.63" ry="205.49" transform="translate(10.5 573.54) rotate(-89.64)"/></g><path id="GradSize" class="cls-29" d="m499.05,269.17H88.07l.03,12.35h0c.39,30.21,20.63,60.43,60.7,83.56,80.54,46.5,210.64,46.77,290.6.61,39.34-22.71,59.19-52.43,59.64-82.3v-14.22Z"/><ellipse id="TopBaseElements" class="cls-115" cx="293.58" cy="269.14" rx="118.63" ry="205.49" transform="translate(22.6 561.01) rotate(-89.64)"/><ellipse id="GradBaseTopElements" class="cls-117" cx="293.58" cy="242.3" rx="88.37" ry="153.07" transform="translate(49.43 534.35) rotate(-89.64)"/></g><use width="120.58" height="238.96" transform="translate(223.81)" xlink:href="#tower2"/><use width="120.58" height="238.96" transform="translate(285.57 35.17)" xlink:href="#tower2"/><use width="120.58" height="238.96" transform="translate(159.45 38.84)" xlink:href="#tower2"/><use width="120.58" height="238.96" transform="translate(221.21 74.01)" xlink:href="#tower2"/></symbol><radialGradient id="Degradado_sin_nombre_28" cx="-7703.38" cy="4308.44" fx="-7703.38" fy="4308.44" r="62.98" gradientTransform="translate(-1288.14 8552.99) rotate(119.64) scale(.82 .7) skewX(-26.4)" gradientUnits="userSpaceOnUse"><stop offset="0" stop-color="#95adc7" stop-opacity=".3"/><stop offset="1" stop-color="#95adc7" stop-opacity="0"/></radialGradient><symbol id="SHADOW_PEOPLE" viewBox="0 0 126.04 72.77"><ellipse class="cls-33" cx="63.02" cy="36.39" rx="36.38" ry="63.02" transform="translate(26.24 99.18) rotate(-89.64)"/></symbol><linearGradient id="linear-gradient-7" x1="0" y1="16.3" x2="80.88" y2="16.3" gradientUnits="userSpaceOnUse"><stop offset="0" stop-color="#1e5d95" stop-opacity=".9"/><stop offset=".48" stop-color="#06467b" stop-opacity=".9"/><stop offset=".51" stop-color="#1f5889" stop-opacity=".9"/><stop offset=".54" stop-color="#3d6e99" stop-opacity=".9"/><stop offset=".58" stop-color="#5581a7" stop-opacity=".9"/><stop offset=".63" stop-color="#688fb1" stop-opacity=".9"/><stop offset=".69" stop-color="#7598b8" stop-opacity=".9"/><stop offset=".77" stop-color="#7c9ebc" stop-opacity=".9"/><stop offset="1" stop-color="#7fa0be" stop-opacity=".9"/></linearGradient><symbol id="lineBrick" viewBox="0 0 80.88 30.26"><path class="cls-28" d="m80.88,2.38v4.47c0,1.03-.68,2.06-2.03,2.85l-33.34,19.37c-2.72,1.58-7.15,1.58-9.89,0L2.06,9.7c-1.38-.8-2.06-1.84-2.06-2.89V2.35c0,1.04.68,2.09,2.06,2.89l33.56,19.37c2.74,1.58,7.17,1.58,9.89-.01L78.85,5.23c1.35-.79,2.03-1.82,2.03-2.85Z"/><path class="cls-7" d="m55.51,13.6l-5.26,3.04c-.68.39-1.23-.02-1.23-.93h0c0-.91.55-1.96,1.23-2.35l5.26-3.04c.68-.39,1.23.02,1.23.93h0c0,.91-.55,1.96-1.23,2.35Zm6.07-5.15h0c0-.91-.55-1.32-1.23-.93l-.4.23c-.68.39-1.23,1.44-1.23,2.35h0c0,.91.55,1.32,1.23.93l.4-.23c.68-.39,1.23-1.44,1.23-2.35Zm13.27-7.37h0c0-.91-.55-1.32-1.23-.93l-1.65.96c-.68.39-1.23,1.44-1.23,2.35h0c0,.91.55,1.32,1.23.93l1.65-.96c.68-.39,1.23-1.44,1.23-2.35Z"/></symbol><symbol id="shadow_dark" viewBox="0 0 36.26 20.93"><use width="126.04" height="72.77" transform="translate(36.26) rotate(-180) scale(.29 -.29)" xlink:href="#SHADOW_PEOPLE"/></symbol><linearGradient id="linear-gradient-8" x1="15545.52" y1="214.19" x2="15623.82" y2="214.19" gradientTransform="translate(15623.82) rotate(-180) scale(1 -1)" gradientUnits="userSpaceOnUse"><stop offset="0" stop-color="#0f0b26" stop-opacity=".5"/><stop offset=".56" stop-color="#0f0b26" stop-opacity=".1"/><stop offset=".82" stop-color="#0f0b26" stop-opacity="0"/></linearGradient><linearGradient id="linear-gradient-9" x1="35.3" y1="129.68" x2="122.61" y2="129.68" gradientUnits="userSpaceOnUse"><stop offset="0" stop-color="#0071b0"/><stop offset=".02" stop-color="#077bb8"/><stop offset=".07" stop-color="#148cc6"/><stop offset=".13" stop-color="#1c98d0"/><stop offset=".21" stop-color="#219fd6"/><stop offset=".44" stop-color="#23a1d8"/><stop offset=".46" stop-color="#2da5d9"/><stop offset=".55" stop-color="#54b6e1"/><stop offset=".6" stop-color="#63bde4"/><stop offset=".96" stop-color="#63bde4"/><stop offset=".99" stop-color="#63bde4"/></linearGradient><linearGradient id="New_Gradient_Swatch_2-2" x1="139.76" y1="23.93" x2="36.88" y2="23.93" gradientTransform="matrix(1,0,0,1,0,0)" xlink:href="#New_Gradient_Swatch_2"/><symbol id="tower2" viewBox="0 0 120.58 238.96"><g id="MainDBsTower"><g id="ShadowKubernetes"><path class="cls-68" d="m78.27,235.51H0v-42.65h53.62s25.8,41.49,24.64,42.65Z"/></g><path class="cls-113" d="m115.02,209.17c2.74,1.58,2.75,4.15.03,5.73l-33.33,19.37c-2.72,1.58-7.16,1.59-9.9,0l-33.55-19.37c-2.75-1.59-2.75-4.15-.03-5.74l33.33-19.37c2.73-1.59,7.16-1.59,9.9,0l33.55,19.37Z"/><path class="cls-107" d="m115.02,209.17c2.74,1.58,2.75,4.15.03,5.73l-33.33,19.37c-2.72,1.58-7.16,1.59-9.9,0l-33.55-19.37c-2.75-1.59-2.75-4.15-.03-5.74l33.33-19.37c2.73-1.59,7.16-1.59,9.9,0l33.55,19.37Z"/><path class="cls-106" d="m115.02,209.17c2.74,1.58,2.75,4.15.03,5.73l-33.33,19.37c-2.72,1.58-7.16,1.59-9.9,0l-33.55-19.37c-2.75-1.59-2.75-4.15-.03-5.74l33.33-19.37c2.73-1.59,7.16-1.59,9.9,0l33.55,19.37Z"/><path id="GTowerCentral" class="cls-60" d="m36.2,23.91v188.11c-.02,1.04.67,2.09,2.05,2.89l33.55,19.37c2.74,1.58,7.17,1.58,9.9,0l33.33-19.37c1.36-.79,2.03-1.82,2.04-2.85V23.94c.01,1.03-80.87,1.01-80.87-.03Z"/><path class="cls-19" d="m115.02,21.06c2.74,1.58,2.75,4.15.03,5.73l-33.33,19.37c-2.72,1.58-7.16,1.59-9.9,0l-33.55-19.37c-2.75-1.59-2.75-4.15-.03-5.74L71.56,1.69c2.73-1.59,7.16-1.59,9.9,0l33.55,19.37Z"/><path class="cls-103" d="m115.02,21.06c2.74,1.58,2.75,4.15.03,5.73l-33.33,19.37c-2.72,1.58-7.16,1.59-9.9,0l-33.55-19.37c-2.75-1.59-2.75-4.15-.03-5.74L71.56,1.69c2.73-1.59,7.16-1.59,9.9,0l33.55,19.37Z"/></g><use width="80.88" height="30.26" transform="translate(36.2 205.26)" xlink:href="#lineBrick"/><use width="80.88" height="30.26" transform="translate(36.2 186.44)" xlink:href="#lineBrick"/><use width="80.88" height="30.26" transform="translate(36.2 167.63)" xlink:href="#lineBrick"/><use width="80.88" height="30.26" transform="translate(36.2 148.82)" xlink:href="#lineBrick"/><use width="80.88" height="30.26" transform="translate(36.2 130)" xlink:href="#lineBrick"/><use width="80.88" height="30.26" transform="translate(36.2 111.19)" xlink:href="#lineBrick"/><use width="80.88" height="30.26" transform="translate(36.2 92.37)" xlink:href="#lineBrick"/><use width="80.88" height="30.26" transform="translate(36.2 73.56)" xlink:href="#lineBrick"/><use width="80.88" height="30.26" transform="translate(36.2 54.74)" xlink:href="#lineBrick"/><use width="80.88" height="30.26" transform="translate(36.2 35.93)" xlink:href="#lineBrick"/></symbol><radialGradient id="Degradado_sin_nombre_937" cx="1634.95" cy="2064.36" fx="1634.95" fy="2064.36" r="1311.39" gradientTransform="translate(1012.54 1066.6) scale(.59 .34)" gradientUnits="userSpaceOnUse"><stop offset="0" stop-color="#0071b0"/><stop offset=".64" stop-color="#0071b0" stop-opacity=".5"/><stop offset=".94" stop-color="#0071b0" stop-opacity="0"/></radialGradient><radialGradient id="radial-gradient" cx="1997.8" cy="1934.17" fx="1997.8" fy="1934.17" r="1023.6" gradientTransform="translate(3399.36 -239.09) rotate(89.64) scale(1 .83)" gradientUnits="userSpaceOnUse"><stop offset=".46" stop-color="#0c8775"/><stop offset=".5" stop-color="#137e84"/><stop offset=".55" stop-color="#1e739b"/><stop offset=".64" stop-color="#27244b"/></radialGradient><radialGradient id="radial-gradient-2" cx="1992.83" cy="1678.95" fx="1992.83" fy="1678.95" r="1360.01" gradientTransform="translate(0 555.51) scale(1 .67)" gradientUnits="userSpaceOnUse"><stop offset=".36" stop-color="#27244b"/><stop offset=".4" stop-color="#24385f" stop-opacity=".86"/><stop offset=".46" stop-color="#1e7098" stop-opacity=".48"/><stop offset=".46" stop-color="#1e739b" stop-opacity=".46"/><stop offset=".52" stop-color="#0c988f" stop-opacity=".31"/><stop offset=".56" stop-color="#00b287" stop-opacity=".21"/></radialGradient><linearGradient id="New_Gradient_Swatch_2-3" x1="1984" y1="1480.64" x2="1984" y2="2027.58" gradientTransform="translate(3722.34 -244.12) rotate(89.64)" xlink:href="#New_Gradient_Swatch_2"/><linearGradient id="linear-gradient-10" x1="1526.36" y1="1857.78" x2="2441.06" y2="1857.78" gradientUnits="userSpaceOnUse"><stop offset=".03" stop-color="#0772ac"/><stop offset=".21" stop-color="#1488c1"/><stop offset=".39" stop-color="#1f9ad2"/><stop offset=".53" stop-color="#23a1d8"/><stop offset=".83" stop-color="#23a1d8"/><stop offset=".86" stop-color="#23a1d8"/><stop offset=".9" stop-color="#188ec6"/><stop offset=".96" stop-color="#0b79b3"/><stop offset="1" stop-color="#0772ac"/></linearGradient><linearGradient id="linear-gradient-11" x1="2120.83" y1="2026.78" x2="1848.74" y2="1418.98" gradientTransform="translate(3691.78 -273.98) rotate(89.64)" gradientUnits="userSpaceOnUse"><stop offset=".22" stop-color="#81d3f1"/><stop offset=".45" stop-color="#63bde4"/><stop offset=".63" stop-color="#48acd9"/><stop offset=".9" stop-color="#2697cc"/></linearGradient><linearGradient id="linear-gradient-12" x1="1984" y1="1841.8" x2="1984" y2="86.58" gradientUnits="userSpaceOnUse"><stop offset="0" stop-color="#09c997" stop-opacity=".7"/><stop offset=".23" stop-color="#12a8ba" stop-opacity=".2"/><stop offset=".29" stop-color="#15a5c3" stop-opacity=".14"/><stop offset=".43" stop-color="#1aa2d5" stop-opacity=".04"/><stop offset=".52" stop-color="#1da1dc" stop-opacity="0"/></linearGradient><linearGradient id="linear-gradient-13" x1="1799.04" y1="1759.67" x2="1799.04" y2="1504.72" gradientUnits="userSpaceOnUse"><stop offset="0" stop-color="#fff" stop-opacity="0"/><stop offset=".22" stop-color="#fff" stop-opacity=".15"/><stop offset="1" stop-color="#fff" stop-opacity="0"/></linearGradient><linearGradient id="linear-gradient-14" x1="1793.78" y1="1713.13" x2="1793.78" y2="1458.18" xlink:href="#linear-gradient-13"/><linearGradient id="linear-gradient-15" x1="2082.72" y1="1773.27" x2="2082.72" y2="1518.33" gradientUnits="userSpaceOnUse"><stop offset="0" stop-color="#fff" stop-opacity="0"/><stop offset=".22" stop-color="#fff" stop-opacity=".15"/><stop offset="1" stop-color="#fff" stop-opacity="0"/></linearGradient><linearGradient id="linear-gradient-16" x1="2136.88" y1="1726.73" x2="2136.88" y2="1397.7" xlink:href="#linear-gradient-15"/><linearGradient id="linear-gradient-17" x1="1984" y1="1841.8" x2="1984" y2="522.84" gradientUnits="userSpaceOnUse"><stop offset="0" stop-color="#1da1dc" stop-opacity="0"/><stop offset=".03" stop-color="#1ba3d7" stop-opacity=".03"/><stop offset=".07" stop-color="#17abca" stop-opacity=".13"/><stop offset=".12" stop-color="#11b7b5" stop-opacity=".28"/><stop offset=".18" stop-color="#09c798" stop-opacity=".49"/><stop offset=".18" stop-color="#09c997" stop-opacity=".5"/><stop offset=".21" stop-color="#0dc0a5" stop-opacity=".4"/><stop offset=".26" stop-color="#12b5b8" stop-opacity=".25"/><stop offset=".31" stop-color="#17acc8" stop-opacity=".14"/><stop offset=".37" stop-color="#1aa5d3" stop-opacity=".06"/><stop offset=".43" stop-color="#1ca2d9" stop-opacity=".01"/><stop offset=".52" stop-color="#1da1dc" stop-opacity="0"/></linearGradient><linearGradient id="linear-gradient-18" x1="1660.42" y1="1812.63" x2="2419.73" y2="1374.66" gradientUnits="userSpaceOnUse"><stop offset="0" stop-color="#00a47c"/><stop offset=".34" stop-color="#089f94"/><stop offset="1" stop-color="#1b96ce"/></linearGradient><linearGradient id="linear-gradient-19" x1="1749" y1="1587.7" x2="2219" y2="1587.7" gradientTransform="translate(3566.07 -400.79) rotate(89.84)" gradientUnits="userSpaceOnUse"><stop offset="0" stop-color="#12b28b"/><stop offset=".34" stop-color="#1caea3"/><stop offset="1" stop-color="#35a8dc"/></linearGradient><filter id="AI_DesenfoqueGaussiano_4"><feGaussianBlur stdDeviation="4"/></filter><linearGradient id="Degradado_sin_nombre_4" x1="2843.12" y1="1732.94" x2="2571.65" y2="1577.4" gradientTransform="translate(-152.22 307.91) rotate(-5.71)" gradientUnits="userSpaceOnUse"><stop offset=".09" stop-color="#0f0b26" stop-opacity="0"/><stop offset=".14" stop-color="#0f0b26" stop-opacity=".12"/><stop offset=".41" stop-color="#0f0b26" stop-opacity=".61"/><stop offset=".7" stop-color="#0f0b26" stop-opacity=".9"/><stop offset="1" stop-color="#0f0b26"/></linearGradient><linearGradient id="Nueva_muestra_de_degradado_13" x1="2703.92" y1="1715.2" x2="2715.71" y2="1620.11" gradientUnits="userSpaceOnUse"><stop offset="0" stop-color="#01171a" stop-opacity="0"/><stop offset="1" stop-color="#01171a"/></linearGradient><linearGradient id="Nueva_muestra_de_degradado_13-2" x1="2700.2" y1="1682.55" x2="2697.67" y2="1648.37" xlink:href="#Nueva_muestra_de_degradado_13"/><linearGradient id="Nueva_muestra_de_degradado_38" x1="2703.76" y1="1645.01" x2="2720.13" y2="1643.69" gradientUnits="userSpaceOnUse"><stop offset="0" stop-color="#141226" stop-opacity=".5"/><stop offset="1" stop-color="#141226" stop-opacity=".1"/></linearGradient><linearGradient id="Degradado_sin_nombre_463" x1="3022.47" y1="584.73" x2="3022.85" y2="584.73" gradientTransform="translate(-16761.96 5409.09) scale(6.44 -6.44)" gradientUnits="userSpaceOnUse"><stop offset="0" stop-color="#05034c" stop-opacity=".3"/><stop offset="1" stop-color="#05034c" stop-opacity="0"/></linearGradient><linearGradient id="Nueva_muestra_de_degradado_13-3" x1="2705.15" y1="1645.7" x2="2687.33" y2="1729.24" xlink:href="#Nueva_muestra_de_degradado_13"/><linearGradient id="Nueva_muestra_de_degradado_5" x1="2704.25" y1="1622.58" x2="2708.83" y2="1614.4" gradientUnits="userSpaceOnUse"><stop offset=".09" stop-color="#fff" stop-opacity="0"/><stop offset="1" stop-color="#fff"/></linearGradient><filter id="AI_DesenfoqueGaussiano_4-2"><feGaussianBlur stdDeviation="4"/></filter><linearGradient id="Degradado_sin_nombre_3" x1="2689.97" y1="1608.84" x2="2934.24" y2="1779.79" gradientTransform="translate(-170.87 354.34) rotate(-6.38)" gradientUnits="userSpaceOnUse"><stop offset="0" stop-color="#0f0b26"/><stop offset=".63" stop-color="#0f0b26" stop-opacity=".3"/><stop offset=".87" stop-color="#0f0b26" stop-opacity="0"/></linearGradient><linearGradient id="Nueva_muestra_de_degradado_13-4" x1="2799.55" y1="1671.93" x2="2766.33" y2="1665.43" xlink:href="#Nueva_muestra_de_degradado_13"/><linearGradient id="Nueva_muestra_de_degradado_38-2" x1="2784.43" y1="1687.07" x2="2797.59" y2="1737.46" xlink:href="#Nueva_muestra_de_degradado_38"/><linearGradient id="Nueva_muestra_de_degradado_38-3" x1="2790.02" y1="1685.82" x2="2780.72" y2="1711.18" xlink:href="#Nueva_muestra_de_degradado_38"/><linearGradient id="Nueva_muestra_de_degradado_5-2" x1="2786.38" y1="1692.57" x2="2764.95" y2="1592.66" xlink:href="#Nueva_muestra_de_degradado_5"/><filter id="AI_DesenfoqueGaussiano_4-3"><feGaussianBlur stdDeviation="4"/></filter><linearGradient id="Degradado_sin_nombre_31" x1="1181.34" y1="2005.7" x2="1557.02" y2="1844.03" gradientTransform="translate(159.7 -141.75) rotate(5.23)" gradientUnits="userSpaceOnUse"><stop offset=".02" stop-color="#0f0b26" stop-opacity="0"/><stop offset=".07" stop-color="#0f0b26" stop-opacity=".12"/><stop offset=".37" stop-color="#0f0b26" stop-opacity=".61"/><stop offset=".67" stop-color="#0f0b26" stop-opacity=".9"/><stop offset="1" stop-color="#0f0b26"/></linearGradient><linearGradient id="Degradado_sin_nombre_82" x1="2964.09" y1="1838.1" x2="2964.09" y2="1827.97" gradientTransform="translate(-1643.37)" gradientUnits="userSpaceOnUse"><stop offset=".06" stop-color="#406eb3" stop-opacity="0"/><stop offset=".18" stop-color="#406eb3" stop-opacity=".06"/><stop offset=".38" stop-color="#406eb3" stop-opacity=".22"/><stop offset=".65" stop-color="#406eb3" stop-opacity=".47"/><stop offset=".86" stop-color="#406eb3" stop-opacity=".7"/></linearGradient><linearGradient id="Degradado_sin_nombre_19" x1="2949.21" y1="1911.26" x2="2977.79" y2="1850.43" gradientTransform="translate(-1643.37)" gradientUnits="userSpaceOnUse"><stop offset=".09" stop-color="#010d1a" stop-opacity="0"/><stop offset="1" stop-color="#010d1a"/></linearGradient><linearGradient id="Degradado_sin_nombre_19-2" x1="2970.26" y1="1899.11" x2="2965.42" y2="1850.03" xlink:href="#Degradado_sin_nombre_19"/><linearGradient id="Degradado_sin_nombre_19-3" x1="2967.84" y1="1863.87" x2="2984.08" y2="1835.52" xlink:href="#Degradado_sin_nombre_19"/><filter id="AI_DesenfoqueGaussiano_4-4"><feGaussianBlur stdDeviation="4"/></filter><linearGradient id="Degradado_sin_nombre_30" x1="1213.55" y1="2006.89" x2="1421.09" y2="1900.13" gradientUnits="userSpaceOnUse"><stop offset=".16" stop-color="#0f0b26" stop-opacity="0"/><stop offset=".21" stop-color="#0f0b26" stop-opacity=".12"/><stop offset=".46" stop-color="#0f0b26" stop-opacity=".61"/><stop offset=".72" stop-color="#0f0b26" stop-opacity=".9"/><stop offset="1" stop-color="#0f0b26"/></linearGradient><linearGradient id="Nueva_muestra_de_degradado_5-3" x1="1346.45" y1="1929.81" x2="1431.41" y2="1958.13" gradientTransform="translate(2725.82) rotate(-180) scale(1 -1)" xlink:href="#Nueva_muestra_de_degradado_5"/><linearGradient id="Degradado_sin_nombre_263" x1="1346.29" y1="1930.29" x2="1431.25" y2="1958.61" gradientTransform="translate(2725.82) rotate(-180) scale(1 -1)" gradientUnits="userSpaceOnUse"><stop offset="0" stop-color="#5d7586" stop-opacity=".5"/><stop offset="1" stop-color="#5d7586" stop-opacity="0"/></linearGradient><linearGradient id="Degradado_sin_nombre_256" x1="1364.52" y1="1950.02" x2="1401.12" y2="1933.63" gradientTransform="translate(2725.82) rotate(-180) scale(1 -1)" gradientUnits="userSpaceOnUse"><stop offset="0" stop-color="#069" stop-opacity=".4"/><stop offset=".82" stop-color="#069" stop-opacity="0"/></linearGradient><radialGradient id="Degradado_sin_nombre_484" cx="750.68" cy="1843.49" fx="750.68" fy="1843.49" r="400.62" gradientTransform="translate(196.66 1197.05) scale(.91 .33)" gradientUnits="userSpaceOnUse"><stop offset="0" stop-color="#0071b0" stop-opacity=".3"/><stop offset=".64" stop-color="#0071b0" stop-opacity=".1"/><stop offset=".94" stop-color="#0071b0" stop-opacity="0"/></radialGradient><filter id="AI_DesenfoqueGaussiano_4-5"><feGaussianBlur stdDeviation="4"/></filter><linearGradient id="Degradado_sin_nombre_31-2" x1="826.14" y1="1840.82" x2="1096.47" y2="1679.59" gradientTransform="translate(98.36 -58.78) rotate(3.26)" xlink:href="#Degradado_sin_nombre_31"/><linearGradient id="Degradado_sin_nombre_464" x1="712.89" y1="1444.63" x2="714.1" y2="1455.8" gradientTransform="translate(-834.62 4266.59) rotate(9.06) scale(1.92 -1.92)" gradientUnits="userSpaceOnUse"><stop offset="0" stop-color="#010d19" stop-opacity="0"/><stop offset="1" stop-color="#010d19"/></linearGradient><linearGradient id="Degradado_sin_nombre_464-2" x1="911.77" y1="1564.39" x2="916.46" y2="1601.79" gradientTransform="translate(-801.58 4803.67) scale(1.92 -1.92)" xlink:href="#Degradado_sin_nombre_464"/><linearGradient id="Degradado_sin_nombre_464-3" x1="907.4" y1="1571" x2="915.41" y2="1605.3" gradientTransform="translate(-801.58 4803.67) scale(1.92 -1.92)" xlink:href="#Degradado_sin_nombre_464"/><linearGradient id="Nueva_muestra_de_degradado_51" x1="928.63" y1="1740.87" x2="990.58" y2="1743.12" gradientUnits="userSpaceOnUse"><stop offset="0" stop-color="#2bebdd" stop-opacity=".1"/><stop offset=".01" stop-color="#24e8d9" stop-opacity=".1"/><stop offset=".15" stop-color="#00d8c6" stop-opacity=".1"/><stop offset=".86" stop-color="#00a395" stop-opacity=".6"/></linearGradient><filter id="AI_DesenfoqueGaussiano_4-6"><feGaussianBlur stdDeviation="4"/></filter><linearGradient id="Degradado_sin_nombre_26" x1="718.68" y1="1901.88" x2="1033.18" y2="1694.28" gradientTransform="translate(104.3 -57.46) rotate(3.4)" gradientUnits="userSpaceOnUse"><stop offset=".11" stop-color="#0f0b26" stop-opacity="0"/><stop offset=".12" stop-color="#0f0b26" stop-opacity=".02"/><stop offset=".67" stop-color="#0f0b26" stop-opacity=".73"/><stop offset="1" stop-color="#0f0b26"/></linearGradient><linearGradient id="Degradado_sin_nombre_489" x1="850.19" y1="1808.72" x2="992.38" y2="1655.93" gradientUnits="userSpaceOnUse"><stop offset=".17" stop-color="#fff" stop-opacity="0"/><stop offset="1" stop-color="#fff"/></linearGradient><filter id="AI_DesenfoqueGaussiano_4-7"><feGaussianBlur stdDeviation="4"/></filter><linearGradient id="Degradado_sin_nombre_22" x1="698.31" y1="1786.81" x2="1017.23" y2="1642.81" gradientTransform="translate(154.88 -83.85) rotate(5.28)" gradientUnits="userSpaceOnUse"><stop offset=".02" stop-color="#0f0b26" stop-opacity="0"/><stop offset=".63" stop-color="#0f0b26" stop-opacity=".72"/><stop offset="1" stop-color="#0f0b26"/></linearGradient><linearGradient id="Nueva_muestra_de_degradado_38-4" x1="848.82" y1="1679.13" x2="847.85" y2="1699.99" xlink:href="#Nueva_muestra_de_degradado_38"/><linearGradient id="Nueva_muestra_de_degradado_38-5" x1="858.32" y1="1679.57" x2="857.35" y2="1700.43" xlink:href="#Nueva_muestra_de_degradado_38"/><linearGradient id="Nueva_muestra_de_degradado_5-4" x1="853.19" y1="1681.62" x2="850.3" y2="1627.7" xlink:href="#Nueva_muestra_de_degradado_5"/><filter id="AI_DesenfoqueGaussiano_4-8"><feGaussianBlur stdDeviation="4"/></filter><linearGradient id="Degradado_sin_nombre_11" x1="673.77" y1="1849.5" x2="1023.61" y2="1671.04" gradientTransform="translate(87.4 -46.1) rotate(2.9)" gradientUnits="userSpaceOnUse"><stop offset=".02" stop-color="#0f0b26" stop-opacity="0"/><stop offset=".23" stop-color="#0f0b26" stop-opacity=".3"/><stop offset=".69" stop-color="#0f0b26" stop-opacity=".81"/><stop offset="1" stop-color="#0f0b26"/></linearGradient><linearGradient id="Nueva_muestra_de_degradado_13-5" x1="812.39" y1="1784.26" x2="815.6" y2="1754.73" xlink:href="#Nueva_muestra_de_degradado_13"/><linearGradient id="Nueva_muestra_de_degradado_13-6" x1="820.5" y1="1786.77" x2="823.06" y2="1744.72" xlink:href="#Nueva_muestra_de_degradado_13"/><linearGradient id="Nueva_muestra_de_degradado_38-6" x1="814.23" y1="1778.3" x2="819.69" y2="1741.39" xlink:href="#Nueva_muestra_de_degradado_38"/></defs><g id="Isolation_Mode"><ellipse class="cls-79" cx="1984" cy="1782.8" rx="790.23" ry="453.18"/></g><g id="HoleCenter"><ellipse id="HoleGrande" class="cls-62" cx="1984" cy="1753.86" rx="334.07" ry="578.66" transform="translate(217.69 3726.78) rotate(-89.64)"/><path id="HoleLado" class="cls-54" d="m2473.76,1754.38v179.6c-226.85,206.62-752.23,204.72-979.53-4.15v-175.45h979.53Z"/><g id="HoleTapa"><ellipse class="cls-61" cx="1984" cy="1750.86" rx="282.79" ry="489.82" transform="translate(220.69 3723.8) rotate(-89.64)"/><path class="cls-74" d="m1980.48,1468.06v3c63.68,0,125.82,7,184.69,20.82,60.88,14.29,115.53,35.26,162.43,62.34,46.77,27,82.96,58.42,107.58,93.39,23.65,33.61,35.65,69.04,35.65,105.31s-11.77,70.94-35,104.07c-24.16,34.47-59.73,65.41-105.71,91.96-46.1,26.62-99.93,47.23-159.99,61.26-58.06,13.56-119.48,20.44-182.55,20.44s-125.84-7-184.71-20.82c-60.89-14.29-115.55-35.26-162.45-62.34-46.77-27-82.96-58.42-107.58-93.39-23.65-33.61-35.65-69.04-35.65-105.31s11.77-70.94,35-104.07c24.16-34.47,59.73-65.41,105.71-91.96,46.1-26.62,99.93-47.23,159.99-61.26,58.06-13.56,119.48-20.44,182.55-20.44l.05-3m-.05,0c-124.74,0-249.21,27.35-344.04,82.1-190.59,110.04-189.46,289.09,2.52,399.93,96.46,55.69,222.7,83.56,348.66,83.56s249.21-27.35,344.04-82.1c190.59-110.04,189.46-289.09-2.52-399.93-96.46-55.69-222.7-83.56-348.66-83.56h0Z"/></g><ellipse id="StokeHole" class="cls-111" cx="1984" cy="1753.86" rx="334.07" ry="578.66" transform="translate(217.69 3726.78) rotate(-89.64)"/></g><g id="CenterHole"><g id="CenterBaseHole"><g id="gradBaseStrokes-2"><ellipse class="cls-105" cx="1984.31" cy="1739.47" rx="264.03" ry="457.34" transform="translate(232.39 3712.8) rotate(-89.64)"/><ellipse class="cls-109" cx="1984.31" cy="1739.47" rx="264.03" ry="457.34" transform="translate(232.39 3712.8) rotate(-89.64)"/><ellipse class="cls-110" cx="1984.31" cy="1739.47" rx="264.03" ry="457.34" transform="translate(232.39 3712.8) rotate(-89.64)"/></g><path id="GradSizeHole" class="cls-86" d="m2441.06,1712.05h-914.7l.07,27.48h.02c.87,67.24,45.92,134.48,135.1,185.97,179.25,103.49,468.81,104.09,646.76,1.36,87.55-50.54,131.73-116.69,132.73-183.17l.03-31.64Z"/><ellipse id="GArribaHole" class="cls-116" cx="1983.74" cy="1720.55" rx="264.03" ry="457.34" transform="translate(250.74 3693.43) rotate(-89.64)"/><ellipse id="BordeClaro" class="cls-23" cx="1983.74" cy="1660.83" rx="191.59" ry="331.87" transform="translate(310.46 3634.09) rotate(-89.64)"/><ellipse id="Interior" class="cls-37" cx="1983.74" cy="1659.79" rx="182" ry="319.5" transform="translate(311.51 3633.06) rotate(-89.64)"/><path id="Oscuro" class="cls-18" d="m2208.82,1609.73c-125.23-71.35-327.52-71.78-451.83-.97-44.37,25.27-72.79,56.21-85.33,88.78,12.7,33.11,41.69,64.66,86.99,90.47,125.23,71.35,327.52,71.78,451.83.97,44.37-25.27,72.79-56.21,85.33-88.78-12.7-33.11-41.69-64.66-86.99-90.47Z"/></g></g><g id="LightHole1"><path class="cls-2" d="m2303.5,86.58h-639v1573.22h.03c.6,46.35,32.08,92.71,94.39,128.21,125.23,71.35,327.52,71.78,451.83.97,62.46-35.58,93.34-82.37,92.73-129.18h.03V86.58Z"/><g id="Rays"><g id="L"><rect class="cls-39" x="1779.19" y="1504.72" width="39.69" height="254.95"/><rect class="cls-49" x="1788.58" y="1458.18" width="10.41" height="254.95"/></g><g id="R"><rect class="cls-24" x="2062.87" y="1518.33" width="39.69" height="254.95"/><polygon class="cls-43" points="2082.67 1726.73 2191.1 1652.65 2191.1 1397.7 2082.67 1471.79 2082.67 1726.73"/></g></g></g><g id="LightClusterPlatform"><path class="cls-5" d="m2220.87,522.84h-473.74v1258.08c3.8,2.4,7.72,4.77,11.78,7.08,125.23,71.35,327.52,71.78,451.83.97,3.48-1.98,6.84-4,10.12-6.05V522.84Z"/></g><g id="ClusterPlatform"><path class="cls-71" d="m2219.03,1588.37l-.06,20.37c-.1,34.61-22.85,69.17-68.29,95.58-91.48,53.16-240.27,53.16-332.34,0-46.33-26.75-69.47-61.86-69.37-96.92l.06-20.37,470.01,1.34Z"/><ellipse class="cls-8" cx="1984" cy="1587.7" rx="136.12" ry="235" transform="translate(390.68 3567.2) rotate(-89.84)"/></g><g id="ShadClusterPlatform"><path class="cls-81" d="m1997.71,1657.52c-3.34,0-6.62-.84-9.25-2.36l-144.93-84.05c-4.19-2.43-6.7-6.56-6.71-11.05-.01-4.49,2.48-8.63,6.65-11.08l114.11-69.26c2.78-1.63,6.01-2.47,9.42-2.47s6.49.81,9.08,2.29l148.32,84.64c4.24,2.42,6.78,6.57,6.77,11.08,0,4.52-2.55,8.66-6.8,11.07l-117.47,68.85c-2.72,1.54-5.88,2.34-9.2,2.34Z"/><path class="cls-4" d="m1997.71,1652.52c-2.47,0-4.86-.6-6.74-1.68l-144.93-84.05c-2.67-1.55-4.21-4.01-4.22-6.74,0-2.73,1.52-5.2,4.18-6.76l114.17-69.3c1.94-1.14,4.34-1.75,6.83-1.75s4.76.58,6.6,1.63l148.32,84.64c2.7,1.54,4.25,4,4.25,6.74,0,2.74-1.56,5.19-4.26,6.73l-117.53,68.88c-1.9,1.08-4.25,1.66-6.67,1.66Z"/></g><g id="Cluster"><use width="286.81" height="211.9" transform="translate(1843.51 1435.62)" xlink:href="#CLUSTERDARK"/><use width="286.81" height="211.9" transform="translate(1843.51 1378.79)" xlink:href="#CLUSTERDARK"/><use width="286.81" height="211.9" transform="translate(1843.51 1321.95)" xlink:href="#CLUSTERDARK"/></g><g id="BaseManWoman"><ellipse class="cls-73" cx="2739.18" cy="1726.12" rx="19.37" ry="11.49"/><ellipse class="cls-108" cx="2739.52" cy="1729.2" rx="81.51" ry="47.98"/></g><g id="ManWoman"><g id="Man-Woman-Right"><g id="man"><use width="126.04" height="72.77" transform="translate(2680.55 1700.65) rotate(7.81) scale(.43)" xlink:href="#SHADOW_PEOPLE"/><g class="cls-120"><path class="cls-46" d="m2863.69,1713.46c-40.63-1.98-81.27-3.95-121.91-5.92-10.57-.25-20.81-1.66-31.45-.95-26.06,2.23-31.63,20.34-4.22,21.07,50.82,1.96,101.56,5.95,152.39,6.82,24.93-2.06,32.34-19.65,5.19-21.03Z"/></g><g id="Layer0_1_MEMBER_0_MEMBER_0_MEMBER_0_FILL"><path class="cls-31" d="m2710.3,1705.54h-3.62l-.11,5.38c-.22.53.58,1.3,2.38,2.32,3.1,1.21,3.95.85,2.54-1.08l-1.57-2.49.38-4.13Z"/></g><g id="Layer0_1_MEMBER_1_MEMBER_0_MEMBER_0_FILL"><path class="cls-17" d="m2704.18,1659.82c-.54,8.22.4,17.82,2.81,28.8-1.08,5.85-1.19,12.52-.32,20.03.79.91,1.91,1.15,3.35.74l.27-1.08c4.26-16.6,5.19-33.52,2.81-50.76l-8.93,2.26Z"/></g><g id="Layer0_1_MEMBER_1_MEMBER_0_MEMBER_0_FILL-2"><path class="cls-35" d="m2704.18,1659.82c-.54,8.22.4,17.82,2.81,28.8-1.08,5.85-1.19,12.52-.32,20.03.79.91,1.91,1.15,3.35.74l.27-1.08c4.26-16.6,5.19-33.52,2.81-50.76l-8.93,2.26Z"/></g><g id="Layer0_1_MEMBER_2_MEMBER_0_MEMBER_0_FILL"><path class="cls-31" d="m2698.72,1719.35l-1.57-2.55.38-4.13h-3.62l-.11,5.43c-.22.57.56,1.32,2.33,2.26,3.14,1.24,4,.91,2.6-1.02Z"/></g><g id="Layer0_1_MEMBER_3_MEMBER_0_MEMBER_0_FILL"><path class="cls-17" d="m2698.12,1658.07c-2.96,4.79-3.88,15.28-2.76,31.46-1.95,4.64-2.69,13.2-1.6,26.29.87.91,2.31,1.48,3.71,1.1-.04-.04.05-.4.27-1.08,4.26-16.79,7.48-35.42,9.68-55.91l-9.31-1.87Z"/></g><g id="Layer0_1_MEMBER_3_MEMBER_0_MEMBER_0_FILL-2"><path class="cls-101" d="m2698.12,1658.07c-2.96,4.79-3.88,15.28-2.76,31.46-1.95,4.64-2.69,13.2-1.6,26.29.87.91,2.31,1.48,3.71,1.1-.04-.04.05-.4.27-1.08,4.26-16.79,7.48-35.42,9.68-55.91l-9.31-1.87Z"/></g><g id="Layer0_1_MEMBER_4_MEMBER_0_MEMBER_0_FILL"><path class="cls-75" d="m2731.56,1657.41c1.03.43,2.12.75,3.28.96-.39-.11.95,0,4.04.3.42-.3.03-1.04-1.17-2.23-.96-.68-2.45-1.09-4.48-1.21l-2.33,1.67.66.52Z"/></g><g id="Layer0_1_MEMBER_5_MEMBER_0_MEMBER_0_FILL"><path class="cls-65" d="m2734.21,1657.12c1.95.13,2.74-.09,2.39-.66l-1.72-.86c-.36-.35-1.28-.58-2.75-.69l-1.46,1.99c.72.48,1.91.55,3.55.21Z"/></g><g id="Layer0_1_MEMBER_6_MEMBER_0_MEMBER_0_FILL"><path class="cls-44" d="m2707.93,1639.44c2.97,9.07,4.95,13.92,5.96,14.56,3.26,2.31,9.8,3.78,19.63,4.42v-3.1l-15.9-6.72c-.83-8.25-1.88-13.66-3.14-16.23-1.15-2.27-2.13-3.53-2.92-3.8l-3.62,10.87Z"/></g><g id="Layer0_1_MEMBER_6_MEMBER_0_MEMBER_0_FILL-2"><path class="cls-63" d="m2707.93,1639.44c2.97,9.07,4.95,13.92,5.96,14.56,3.26,2.31,9.8,3.78,19.63,4.42v-3.1l-15.9-6.72c-.83-8.25-1.88-13.66-3.14-16.23-1.15-2.27-2.13-3.53-2.92-3.8l-3.62,10.87Z"/></g><g id="Layer0_1_MEMBER_7_MEMBER_0_MEMBER_0_FILL"><path class="cls-25" d="m2694.5,1645.11l1.19,5.6c1.05-3.51,1.44-7.3,1.19-11.37l-2.38,5.77Z"/></g><path id="Layer0_1_MEMBER_8_MEMBER_0_1_STROKES" class="cls-104" d="m2701.4,1657.43l-3.73-.51"/><path id="Layer0_1_MEMBER_9_MEMBER_0_1_STROKES" class="cls-104" d="m2712,1656.01l-.92.57"/><g id="Layer0_1_MEMBER_10_FILL"><path class="cls-31" d="m2707.44,1628.51c-1.73.38-3.66,1.05-5.79,2.04-2.31,1.17-4.51,2.45-6.6,3.85-1.27.75-1.75,1.9-1.46,3.45l3.13,17.04-1.95,7.47c1.92,2.72,4.77,4.08,8.56,4.08,6.11-.52,10.04-1.8,11.79-3.85l-1.94-6.22c1.48-13.77,1.66-22.11.54-25.02-.62-2.68-2.71-3.62-6.28-2.83m-2.44,19.44c-.04.19-.09.42-.13.67-.05-.49,0-.72.13-.67Z"/></g><g id="Layer0_1_MEMBER_10_FILL-2"><path class="cls-97" d="m2707.44,1628.51c-1.73.38-3.66,1.05-5.79,2.04-2.31,1.17-4.51,2.45-6.6,3.85-1.27.75-1.75,1.9-1.46,3.45l3.13,17.04-1.95,7.47c1.92,2.72,4.77,4.08,8.56,4.08,6.11-.52,10.04-1.8,11.79-3.85l-1.94-6.22c1.48-13.77,1.66-22.11.54-25.02-.62-2.68-2.71-3.62-6.28-2.83m-2.44,19.44c-.04.19-.09.42-.13.67-.05-.49,0-.72.13-.67Z"/></g><g id="Layer0_1_MEMBER_11_MEMBER_0_MEMBER_0_FILL"><path class="cls-65" d="m2707.48,1629.68l-.38-3.4c.94-.26,1.42-1.23,1.46-2.89-.25-.87-.32-1.66-.22-2.38.14-1.02-.05-1.75-.6-2.21-2.13-1.51-3.95-1.36-5.46.45-.4.64-.43,1.75-.11,3.34l.65,2.04c-.4,2.49-.9,4.55-1.51,6.17l.32.28c2.13,1.36,4.08,1.87,5.84,1.53.18-.08.16-1.06-.05-2.94h.05Z"/></g><g id="Layer0_1_MEMBER_12_MEMBER_0_MEMBER_0_FILL"><path class="cls-94" d="m2704.45,1626c.94.83,1.84,1.21,2.71,1.13l-.05-.74h-.11c-.61.15-1.46.02-2.54-.4Z"/></g><g id="Layer0_1_MEMBER_13_MEMBER_0_MEMBER_0_MEMBER_0_MEMBER_0_FILL"><path class="cls-75" d="m2713.1,1664.41l.42,1.11c2.72-.9,4.13-1.62,4.22-2.18-1.02.16-2.56.52-4.64,1.07Z"/></g><g id="Layer0_1_MEMBER_13_MEMBER_1_MEMBER_0_MEMBER_0_MEMBER_0_FILL"><path class="cls-44" d="m2700.39,1659.58c-.01-8.87-.43-15.15-1.26-18.83-1.47-3.62-3.07-5.53-4.8-5.76-1.14.82-1.79,3.05-1.97,6.7-.33,6.48.8,13.1,3.4,19.85,2.2,3.52,7.83,5.31,16.88,5.37l5.02-2.03-17.27-5.3Z"/></g><g id="Layer0_1_MEMBER_13_MEMBER_2_MEMBER_0_MEMBER_0_MEMBER_0_MEMBER_0_FILL"><path class="cls-67" d="m2715.08,1671.23c-.09.48.14.88.68,1.18l11.01-2.44c.49-.11.77-.36.84-.76l4.7-15.85c-.23-.57-.56-.84-1-.82l-11.13,1.83c-.43.06-.73.32-.89.78l-4.21,16.09Z"/></g><g id="Layer0_1_MEMBER_13_MEMBER_2_MEMBER_1_MEMBER_0_MEMBER_0_MEMBER_0_FILL"><path class="cls-15" d="m2715.6,1671.87c-.13.45.04.63.49.53l11.13-1.83c.47-.06.77-.31.9-.72l4.2-16.14c.13-.45-.05-.62-.55-.51l-11.14,1.78c-.42.09-.7.35-.84.76l-4.2,16.14Z"/></g><g id="Layer0_1_MEMBER_13_MEMBER_3_MEMBER_0_MEMBER_0_MEMBER_0_FILL"><path class="cls-65" d="m2715.9,1667.42c.56-.09,1.2-.62,1.9-1.58.61.01.97-.26,1.06-.82l-4.02-.91-2.6,2.78c1.84.54,3.06.72,3.66.53Z"/></g><g id="Layer0_1_MEMBER_14_FILL"><path class="cls-13" d="m2704.64,1619.98l3.38.75c1.26.27,2.1-.4,2.52-2-4.15-2.03-6.89-1.95-8.21.23-1.34.56-1.37,2.82-.08,6.78.91-.22,1.24-1.43,1-3.62,1.44.69,1.91-.02,1.4-2.13Z"/></g><g id="Layer0_1_MEMBER_14_FILL-2"><path class="cls-102" d="m2704.64,1619.98l3.38.75c1.26.27,2.1-.4,2.52-2-4.15-2.03-6.89-1.95-8.21.23-1.34.56-1.37,2.82-.08,6.78.91-.22,1.24-1.43,1-3.62,1.44.69,1.91-.02,1.4-2.13Z"/></g></g><g id="Woman"><use width="126.04" height="72.77" transform="translate(2762.75 1729.17) rotate(8.68) scale(.44)" xlink:href="#SHADOW_PEOPLE"/><g class="cls-123"><path class="cls-16" d="m2928.24,1743.07c-33.41-1.79-66.82-3.57-100.24-5.35-12.46-.32-24.56-2.14-37.09-1.27-24.33,2.27-32.32,19.59-5.64,21.06,42.83,2.29,85.67,4.58,128.51,6.86,21.97,2.88,49.84-17.71,14.46-21.3Z"/></g><g class="cls-126"><g id="Layer1_5_MEMBER_9_FILL"><path class="cls-6" d="m2792.07,1653.95l-1.7,6.4,4.08,11.71-2.81,5.14,1.51,6.08c2.38-2.53,4.64-5.7,6.78-9.51-1.57-5.05-4.19-11.66-7.87-19.83Z"/></g></g><path id="Layer1_5_MEMBER_9_1_STROKES" class="cls-66" d="m2799.94,1673.77c.1-.19.21-.38.31-.57.17-4.96-1.87-10.81-6.13-17.53-.63-1-1.25-1.76-1.88-2.27-3.28-2.71-3.91-.4-1.88,6.94l4.08,11.71-2.8,5.14m8.3-3.43c-2.14,3.81-4.4,6.98-6.79,9.51-1.6,1.7-3.26,3.11-4.97,4.23l-1.17-1.82,4.63-8.5"/><g id="Layer1_5_MEMBER_0_FILL"><path class="cls-70" d="m2780.85,1750.71c1.19.29,1.79.16,1.8-.38v-3.66l-3.04.97c-3.59-.34-5.29-.17-5.09.48,1.21,1.01,3.32,1.87,6.33,2.58Z"/></g><g id="Layer1_5_MEMBER_1_FILL"><path class="cls-70" d="m2792.62,1744.85c1.19.29,1.79.16,1.8-.38v-3.66l-3.04.97c-3.59-.34-5.29-.17-5.09.48,1.21,1.01,3.32,1.87,6.33,2.58Z"/></g><g id="Layer1_5_MEMBER_2_MEMBER_0_MEMBER_0_MEMBER_0_FILL"><path class="cls-69" d="m2782.91,1650.17h-.11s.02.71.02.71c.86,0,1.75-.44,2.69-1.32-1.03.5-1.9.7-2.59.61Z"/></g><g id="Layer1_5_MEMBER_3_MEMBER_0_MEMBER_0_MEMBER_0_FILL"><path class="cls-65" d="m2785.75,1646.36c.2-1.54.05-2.62-.47-3.25-1.68-1.67-3.53-1.65-5.54.06-.51.49-.66,1.22-.45,2.18.07.31.08.64.04,1.01l-.22,1.26c.06.71.27,1.34.65,1.87.38.5.83.78,1.34.85l-.16,3.33h.05c-.08,1.78-.02,2.74.18,2.88,1.85.13,3.8-.55,5.85-2.03l.26-.3c-.85-1.79-1.54-3.74-2.08-5.86l.54-2Z"/></g><g id="Layer1_5_MEMBER_4_MEMBER_0_MEMBER_0_MEMBER_0_FILL"><path class="cls-94" d="m2779.86,1649.55c.32.41.73.67,1.24.78l-.06.44c.52-.27.97-.58,1.35-.94-.71.32-1.56.22-2.53-.28Z"/></g><g id="Layer1_5_MEMBER_5_FILL"><path class="cls-89" d="m2794.13,1655.68c-.63-1-1.25-1.76-1.88-2.27-3.28-2.71-3.91-.4-1.88,6.94l4.08,11.71-7.44,13.64,1.17,1.82c4.39-2.87,8.41-7.64,12.07-14.31.17-4.96-1.87-10.81-6.13-17.53Z"/></g><g id="Layer1_5_MEMBER_6_FILL"><path class="cls-17" d="m2792.82,1691.71c1.47-12.13-1.92-16.06-10.17-11.81-1.82,5.33-2.49,13.02-2.02,23.06.48,10.04,3.93,22.9,10.37,38.57,1.08,1.03,2.28,1.06,3.6.08-.99-14.66-2.63-24.37-4.92-29.14l3.15-20.76Z"/></g><g id="Layer1_5_MEMBER_6_FILL-2"><path class="cls-41" d="m2792.82,1691.71c1.47-12.13-1.92-16.06-10.17-11.81-1.82,5.33-2.49,13.02-2.02,23.06.48,10.04,3.93,22.9,10.37,38.57,1.08,1.03,2.28,1.06,3.6.08-.99-14.66-2.63-24.37-4.92-29.14l3.15-20.76Z"/></g><g class="cls-126"><g id="Layer1_5_MEMBER_7_FILL"><path class="cls-6" d="m2780.53,1700.43v.03c.02.82.05,1.65.09,2.5.24,5.06,1.24,10.82,2.99,17.31l2.82-22.43-5.9,2.59Z"/></g></g><g id="Layer1_5_MEMBER_8_FILL"><path class="cls-17" d="m2775.56,1684.22c-2.23,5.17-3.5,12.78-3.81,22.83-.31,10.05,2.14,23.14,7.33,39.27.09.49.34.89.75,1.18.36.26.78.41,1.25.44.46.02.85-.07,1.15-.29.33-.24.47-.56.42-.97.16-14.68-.71-24.49-2.62-29.42l9.4-28.47c1.96-5.95-2.66-7.47-13.86-4.56Z"/></g><g id="Layer1_5_MEMBER_8_FILL-2"><path class="cls-27" d="m2775.56,1684.22c-2.23,5.17-3.5,12.78-3.81,22.83-.31,10.05,2.14,23.14,7.33,39.27.09.49.34.89.75,1.18.36.26.78.41,1.25.44.46.02.85-.07,1.15-.29.33-.24.47-.56.42-.97.16-14.68-.71-24.49-2.62-29.42l9.4-28.47c1.96-5.95-2.66-7.47-13.86-4.56Z"/></g><g id="Layer1_5_MEMBER_10_FILL"><path class="cls-36" d="m2792.07,1653.95c-.35-1.77-1.82-2.29-4.41-1.56-4.66,1.77-7.71,3.26-9.13,4.46-3.27,4.79-4.6,8.15-4,10.09.31,1.16.64,2.72,1,4.66-.39,2.36-.74,4.75-1.05,7.18-.74,1.79-1.53,6.6-2.38,14.42,5.16,2.01,10.56,3.01,16.2,2.98l1.1-10.97,2.09,10.56c3.45-.86,5.16-1.4,5.13-1.62-.96-7.6-2.42-13.11-4.39-16.52,1.73-13.56,1.68-21.45-.15-23.67Z"/></g><g id="Layer1_5_MEMBER_10_FILL-2"><path class="cls-51" d="m2792.07,1653.95c-.35-1.77-1.82-2.29-4.41-1.56-4.66,1.77-7.71,3.26-9.13,4.46-3.27,4.79-4.6,8.15-4,10.09.31,1.16.64,2.72,1,4.66-.39,2.36-.74,4.75-1.05,7.18-.74,1.79-1.53,6.6-2.38,14.42,5.16,2.01,10.56,3.01,16.2,2.98l1.1-10.97,2.09,10.56c3.45-.86,5.16-1.4,5.13-1.62-.96-7.6-2.42-13.11-4.39-16.52,1.73-13.56,1.68-21.45-.15-23.67Z"/></g><g class="cls-126"><g id="Layer1_5_MEMBER_11_FILL"><path class="cls-6" d="m2776.3,1669.62l-2.97,14.09c1.31.28,2.65-.83,4.02-3.32,2.16-3.94,3.38-10,3.67-18.17l-4.72,7.41Z"/></g></g><g id="Layer1_5_MEMBER_12_FILL"><path class="cls-65" d="m2762.95,1677.7l-6.9,2.38c-.81.26-1.72.62-2.73,1.08-.52.72-.64,1.31-.37,1.77.42.3,1.53.27,3.32-.1l5.63-1.12,1.05-4.01Z"/></g><g id="Layer1_5_MEMBER_13_FILL"><path class="cls-66" d="m2781.12,1661.44c.16-1.16.17-2.15.02-2.96-.75-4.18-2.72-2.82-5.92,4.09l-4.46,11.58-14.48,5.6c-.08.72.46,1.58,1.62,2.57,3.93.36,9.45-.83,16.56-3.56,3.34-3.67,5.56-9.45,6.65-17.33Z"/></g><g id="Layer1_5_MEMBER_14_FILL"><path class="cls-98" d="m2778.68,1650.83c.05.47.48.82,1.29,1.04.72.2,1.62.27,2.72.22,1.04-.05,2.01-.19,2.88-.44.93-.26,1.53-.57,1.79-.92.03-4.66-.71-7.4-2.24-8.23-1.83-.99-3.64-.84-5.44.44-1.67,1.19-1.3,1.76,1.12,1.7.33,2.64-.38,4.71-2.13,6.2Z"/></g></g></g></g><g id="ManDog"><g id="Dog-Man_left"><g id="man-2"><use width="36.26" height="20.93" transform="translate(1297.72 1921.1) scale(1.09)" xlink:href="#shadow_dark"/><g class="cls-121"><path class="cls-58" d="m1148.12,1957.62c58.12-5.24,116.23-10.48,174.34-15.73,25.88-2.16,17.17-19.38-6.69-20.9-13.33-.64-26.02,1.89-39.22,2.68-49.09,4.42-98.17,8.85-147.24,13.28-37.1,5.85-2.18,25.38,18.82,20.66Z"/></g><g id="man_0_Layer0_0_FILL"><path class="cls-65" d="m1320.97,1837.47v2.41c.02.95.43,1.51,1.23,1.68l3.83.5-1.41-4.94c.56-.48.9-.8,1-.95.09-.9-.11-1.93-.63-3.08l-.76-.65c-.62-2.25-1.82-3.07-3.6-2.46-1.74.58-2.48,1.87-2.2,3.86.53,1.75,1.37,2.97,2.53,3.64Z"/></g><g id="man_0_Layer0_1_FILL"><path class="cls-6" d="m1321.58,1828.04c-.77.21-.69.58.23,1.11-2.1.07-3.77.59-4.99,1.56.11.15.51.22,1.17.21-.49.19-.81.65-.98,1.4.19-.1.3-.15.35-.14-.07.84.07,1.6.43,2.27.42.76.92,1.33,1.51,1.71.6.38.85.78.74,1.19-.1.42.09.67.57.74.48.07,1.21-.12,2.18-.59.97-.46.98-1.55.01-3.27-1.2-.35-1.54-.88-1.02-1.59.09.12.46.41,1.11.85.37-.27.52-.8.43-1.59-.09-.76.12-.86.63-.29.86-1.31.87-2.28.03-2.92-.84-.63-1.64-.84-2.41-.64Z"/></g><g id="man_0_Layer0_1_FILL-2"><path class="cls-3" d="m1321.58,1828.04c-.77.21-.69.58.23,1.11-2.1.07-3.77.59-4.99,1.56.11.15.51.22,1.17.21-.49.19-.81.65-.98,1.4.19-.1.3-.15.35-.14-.07.84.07,1.6.43,2.27.42.76.92,1.33,1.51,1.71.6.38.85.78.74,1.19-.1.42.09.67.57.74.48.07,1.21-.12,2.18-.59.97-.46.98-1.55.01-3.27-1.2-.35-1.54-.88-1.02-1.59.09.12.46.41,1.11.85.37-.27.52-.8.43-1.59-.09-.76.12-.86.63-.29.86-1.31.87-2.28.03-2.92-.84-.63-1.64-.84-2.41-.64Z"/></g><g id="man_0_Layer0_2_FILL"><path class="cls-55" d="m1319.09,1837.52l-1.13,2.27,3.01,4.16,5.57,1.42-.59-2.39,1.28-2.97c.26-.58.17-.97-.26-1.16-4.75-2.06-7.38-2.51-7.88-1.33Z"/></g><g id="man_0_Layer0_3_FILL"><path class="cls-55" d="m1311.42,1860.88c4.42-6.44,6.7-12.31,6.85-17.61.14-5.29-1.37-5.97-4.53-2.03-4.67,5.64-7.26,12.26-7.76,19.84.47,2.77,4.06,8.47,10.79,17.1l2.05-1.97c-2.46-6.86-4.93-11.97-7.39-15.32Z"/></g><g id="man_0_Layer0_4_FILL"><path class="cls-6" d="m1306.25,1931.69c-1.69.17-2.45-.08-2.28-.76l-.25.93c-.22.72.54,1,2.27.82,1.82-.2,3.98-.88,6.49-2.05,1.26-.58,1.71-1.13,1.34-1.63-.25.21-.61.43-1.08.65-2.5,1.16-4.67,1.84-6.49,2.03Z"/><path class="cls-55" d="m1303.98,1930.88s-.01.03-.01.05c-.17.68.6.93,2.28.76,1.83-.19,3.99-.87,6.49-2.03.47-.23.83-.44,1.08-.65-.04-.07-.1-.13-.17-.18-.68-.59-2.44-.74-5.28-.44l1.71-2.76-3.81-.53-2.3,5.8Z"/></g><g id="man_0_Layer0_4_MEMBER_0_FILL"><path class="cls-45" d="m1308.39,1928.38c-.26.42-.46.69-.61.81.77-.1,1.26-.39,1.49-.86l-.88.05Z"/></g><g id="man_0_Layer0_5_FILL"><path class="cls-17" d="m1322.78,1870.48l-10.64-1.85c-1.28,8.67-.39,19.52,2.67,32.55-2.16,1.98-5.1,10.21-8.82,24.7.45.98,1.69,1.11,3.7.39.98-1.37,1.93-2.77,2.87-4.19.53-.8,1.06-1.61,1.58-2.43,3.35-5.26,6.44-10.8,9.29-16.61,2.75-10.21,2.53-21.07-.65-32.56Z"/></g><g id="man_0_Layer0_5_MEMBER_0_MEMBER_0_STROKES_1_FILL"><path class="cls-30" d="m1308.98,1924.08s.03-.06.01-.1c0-.03-.02-.06-.05-.08-.03-.01-.06-.02-.1-.01-.03.01-.06.03-.08.05-.27.44-.54.88-.82,1.32-.01.03-.02.07-.01.1.01.04.03.06.05.08.03.02.07.03.1.01.04,0,.06-.02.08-.05.28-.44.56-.88.82-1.32"/><path class="cls-30" d="m1310.46,1921.21s-.06.03-.08.07c-.26.43-.52.88-.8,1.33-.01.03-.02.06-.01.09.01.04.03.06.07.08.03.02.06.03.09.01.04,0,.06-.02.08-.05.27-.45.54-.9.8-1.33.02-.03.03-.07.01-.1,0-.03-.02-.06-.05-.08-.03-.01-.07-.02-.1-.01"/><path class="cls-30" d="m1312.22,1918.73s.03-.07.01-.1c0-.03-.02-.06-.05-.08-.03-.01-.07-.02-.1-.01-.03.01-.06.03-.08.07-.26.43-.52.88-.8,1.33-.01.03-.02.06-.01.09.01.04.03.06.07.08.03.02.06.03.09.01.04,0,.06-.02.08-.05.27-.45.54-.9.8-1.33"/><path class="cls-30" d="m1313.81,1916.02s.03-.07.01-.1c0-.03-.02-.06-.05-.08-.03-.01-.07-.02-.1-.01-.03.01-.06.03-.08.07-.26.44-.52.9-.8,1.36-.01.03-.02.06-.01.09.01.04.03.06.07.08.03.02.06.03.09.01.04,0,.06-.02.08-.05.27-.46.54-.91.8-1.36"/><path class="cls-30" d="m1315.4,1913.26s.03-.07.01-.1c0-.03-.02-.06-.05-.08-.03-.01-.07-.02-.1-.01-.03.01-.06.03-.08.07-.26.45-.52.91-.8,1.38-.01.03-.02.06-.01.09.01.04.03.06.07.08.03.02.06.03.09.01.04,0,.06-.02.08-.05.27-.47.54-.93.8-1.38"/><path class="cls-30" d="m1316.81,1910.3s-.06.04-.08.07c-.24.45-.5.92-.77,1.38-.01.03-.02.06-.01.09.01.04.03.06.07.08.03.02.06.03.09.01.04,0,.06-.02.08-.05.28-.47.54-.94.78-1.4.02-.03.02-.06,0-.09,0-.03-.03-.06-.07-.08-.03-.02-.06-.02-.09-.01"/><path class="cls-30" d="m1318.41,1907.51s-.06-.02-.09-.01c-.03.02-.06.04-.08.07-.23.46-.48.93-.74,1.41-.02.04-.02.07-.01.1.02.03.04.06.07.08.04.02.07.02.1,0,.03,0,.06-.03.08-.07.26-.48.51-.95.74-1.41.02-.03.02-.06,0-.09,0-.03-.03-.06-.07-.08"/><path class="cls-30" d="m1319.74,1904.6s-.05.04-.07.07c-.22.47-.45.95-.7,1.46-.02.04-.02.07-.01.1.02.04.04.06.07.08.04.02.07.02.1,0,.04,0,.06-.03.08-.07.25-.51.49-1,.7-1.46.02-.03.02-.06,0-.1,0-.03-.03-.05-.07-.07-.03-.02-.06-.02-.1-.01"/><path class="cls-30" d="m1321.02,1901.62s-.06.04-.08.07c-.17.47-.37.98-.6,1.53-.02.03-.02.06-.01.09.02.04.04.06.08.08.03.02.06.02.09,0,.04,0,.06-.03.08-.07.24-.55.44-1.06.61-1.54.02-.03.02-.06,0-.09-.01-.03-.04-.06-.08-.08-.03,0-.06,0-.09.01"/><path class="cls-30" d="m1321.74,1899.09s-.01-.06-.04-.09c-.02-.02-.05-.04-.09-.04-.03,0-.06,0-.09.03-.02.03-.04.06-.04.09-.03.47-.06.93-.1,1.38,0,.04,0,.07.03.09.03.03.06.05.09.05.04,0,.07-.01.09-.04.03-.02.05-.04.05-.08.04-.45.08-.92.1-1.4"/><path class="cls-30" d="m1321.61,1895.88s-.04.06-.04.09c0,.53,0,1.05-.01,1.55,0,.04,0,.08.03.1.03.03.06.04.09.04.04,0,.08-.01.1-.04.03-.02.04-.05.04-.09.02-.51.02-1.03.01-1.56,0-.04-.01-.07-.04-.09-.03-.03-.06-.04-.09-.04-.04,0-.07.01-.09.04"/><path class="cls-30" d="m1321.49,1892.75s-.03.06-.03.09c.03.53.06,1.06.08,1.56,0,.04.01.07.04.09.03.03.06.04.09.04.04,0,.07-.01.09-.04.03-.03.04-.06.04-.1-.02-.51-.04-1.03-.08-1.56,0-.03-.02-.06-.05-.09-.02-.02-.05-.03-.09-.03-.03,0-.06.02-.09.04"/><path class="cls-30" d="m1321.23,1889.62s-.03.07-.03.1c.05.53.1,1.05.14,1.56,0,.03.02.06.04.08.03.03.07.04.1.04.03,0,.06-.02.08-.05.03-.02.04-.05.04-.09-.04-.51-.09-1.03-.14-1.56,0-.03-.02-.07-.05-.09-.02-.02-.05-.03-.09-.03-.03,0-.07.02-.09.04"/><path class="cls-30" d="m1320.93,1886.48s-.06.02-.08.05c-.02.03-.03.06-.03.09.07.52.13,1.04.2,1.54,0,.04.02.07.05.09.03.02.06.03.09.03.04,0,.07-.02.09-.05.02-.03.03-.06.03-.09-.06-.51-.13-1.02-.2-1.55,0-.03-.02-.06-.05-.08-.03-.02-.06-.03-.1-.03"/><path class="cls-30" d="m1320.57,1883.43s-.06-.03-.1-.03c-.03,0-.06.02-.08.05-.02.03-.03.06-.03.09.09.53.17,1.04.25,1.54,0,.04.02.07.05.09.03.02.06.03.09.03.04,0,.07-.02.09-.05.02-.03.03-.06.03-.1-.08-.5-.16-1.01-.25-1.54,0-.03-.02-.06-.05-.08"/><path class="cls-30" d="m1320.04,1880.45s-.03-.07-.07-.09c-.03-.02-.06-.02-.09-.01-.04,0-.07.03-.09.05-.02.03-.02.07-.01.1.1.51.2,1.02.3,1.53,0,.03.03.06.05.08.03.02.07.03.1.03.03,0,.06-.03.08-.07.02-.03.03-.06.03-.09-.1-.5-.2-1.01-.3-1.53"/><path class="cls-30" d="m1319.17,1877.36s-.02.07-.01.1c.11.51.22,1.02.33,1.53,0,.04.03.06.05.08.03.02.07.03.1.03.04,0,.06-.03.08-.07.02-.03.03-.06.03-.09-.1-.5-.21-1.01-.33-1.53,0-.04-.03-.07-.07-.09-.03-.02-.06-.02-.09-.01-.04,0-.07.03-.09.05"/><path class="cls-30" d="m1318.71,1874.36s-.02-.06-.05-.08c-.03-.01-.07-.02-.1-.01-.03.01-.06.03-.08.07-.01.03-.02.06-.01.09.12.52.24,1.02.35,1.53,0,.04.03.06.05.08.03.02.07.03.1.03.04,0,.06-.03.08-.07.02-.03.03-.06.03-.09-.12-.51-.24-1.02-.37-1.54"/><path class="cls-30" d="m1317.92,1871.28s-.07-.02-.1-.01c-.03.01-.06.03-.08.07-.01.03-.02.06-.01.09.13.51.26,1.01.38,1.5.01.04.03.06.07.08.03.02.06.03.09.01.04,0,.06-.02.08-.05.02-.03.03-.07.01-.1-.12-.49-.24-.99-.38-1.5,0-.03-.02-.06-.05-.08"/><path class="cls-30" d="m1317.17,1868.36s-.02-.06-.05-.08c-.03-.01-.07-.02-.1-.01-.03.01-.06.03-.08.07-.01.03-.02.06-.01.09.14.51.28,1.01.4,1.5.01.04.03.06.07.08.03.02.06.03.09.01.04,0,.06-.02.08-.05.02-.03.03-.07.01-.1-.13-.49-.26-.99-.4-1.5Z"/></g><g id="man_0_Layer0_5_FILL-2"><path class="cls-12" d="m1322.78,1870.48l-10.64-1.85c-1.28,8.67-.39,19.52,2.67,32.55-2.16,1.98-5.1,10.21-8.82,24.7.45.98,1.69,1.11,3.7.39.98-1.37,1.93-2.77,2.87-4.19.53-.8,1.06-1.61,1.58-2.43,3.35-5.26,6.44-10.8,9.29-16.61,2.75-10.21,2.53-21.07-.65-32.56Z"/></g><g id="man_0_Layer0_6_MEMBER_0_FILL"><path class="cls-6" d="m1326.92,1937.43c-1.58.61-2.38.56-2.4-.16v.98c-.02.76.78.82,2.4.2,1.71-.66,3.63-1.88,5.75-3.65,1.06-.89,1.35-1.53.87-1.93-.18.27-.47.57-.87.91-2.12,1.77-4.04,2.99-5.75,3.65Z"/><path class="cls-55" d="m1328.85,1931.3h-4.33v5.93s0,.03,0,.04c.02.72.82.77,2.4.16,1.71-.66,3.63-1.88,5.75-3.65.4-.34.69-.64.87-.91-.06-.05-.13-.09-.21-.13-.81-.39-2.48-.14-5.01.76l.26-1.11.26-1.08Z"/></g><g id="man_0_Layer0_6_MEMBER_0_MEMBER_0_FILL"><path class="cls-45" d="m1328.32,1933.49c-.1.69-.16,1.13-.18,1.32.77-.41,1.15-.96,1.15-1.64l-.97.33Z"/></g><g id="man_0_Layer0_6_MEMBER_1_FILL"><path class="cls-17" d="m1329.79,1870.48h-13.99c1.52,11.22,4.71,22.43,9.57,33.65-.66,6.09-.95,15.64-.85,28.65,1.49.66,2.85.5,4.07-.48,3.83-14.19,5.94-24.46,6.35-30.8,0-10.61-1.72-20.94-5.15-31.01Z"/></g><g id="man_0_Layer0_6_MEMBER_2_MEMBER_0_STROKES_1_FILL"><path class="cls-30" d="m1327.84,1930.95s0-.07-.03-.1c-.02-.03-.04-.04-.08-.05-.04,0-.07,0-.1.01-.03.02-.04.06-.05.09-.1.52-.21,1.04-.33,1.56,0,.03,0,.07.01.09.02.04.06.06.09.07.03,0,.07,0,.09-.03.04-.02.06-.04.07-.08.11-.52.22-1.04.33-1.56"/><path class="cls-30" d="m1328.26,1927.71s-.04.06-.05.09c-.1.5-.21,1.01-.31,1.51,0,.04,0,.07.01.09.02.04.06.06.09.07.04,0,.07,0,.09-.03.04-.02.06-.04.07-.08.1-.5.21-1.01.31-1.51,0-.04,0-.07-.03-.1-.02-.03-.04-.04-.08-.05-.04,0-.07,0-.1.01"/><path class="cls-30" d="m1329.06,1924.79s0-.07-.03-.1c-.02-.03-.04-.04-.08-.05-.04,0-.07,0-.1.03-.03.02-.04.04-.05.08-.1.51-.19,1.03-.29,1.54,0,.04,0,.07.03.09.02.04.04.06.08.07.04,0,.07,0,.09-.03.04-.02.06-.04.07-.08.1-.51.19-1.03.29-1.54"/><path class="cls-30" d="m1329.63,1921.71s0-.07-.03-.1c-.02-.03-.04-.04-.08-.05-.04,0-.07,0-.1.03-.03.02-.04.04-.05.08-.1.51-.19,1.03-.29,1.54,0,.04,0,.07.03.09.02.04.04.06.08.07.04,0,.07,0,.09-.03.04-.02.06-.04.07-.08.1-.51.19-1.03.29-1.54"/><path class="cls-30" d="m1329.96,1918.48s-.05.05-.05.08c-.09.52-.17,1.03-.26,1.55,0,.04,0,.07.03.1.02.03.05.05.08.05.04,0,.07,0,.1-.03.03-.02.05-.05.05-.09.09-.52.17-1.03.26-1.55,0-.03,0-.06-.03-.09-.02-.03-.05-.05-.09-.05-.03,0-.06,0-.09.03"/><path class="cls-30" d="m1330.46,1915.38s-.05.05-.05.08c-.08.52-.16,1.03-.25,1.55,0,.04,0,.07.03.1.02.03.05.05.08.05.04,0,.07,0,.1-.03.03-.02.05-.05.05-.09.09-.52.17-1.03.25-1.55,0-.03,0-.06-.03-.09-.02-.03-.05-.05-.09-.05-.03,0-.06,0-.09.03"/><path class="cls-30" d="m1330.93,1912.25s-.05.05-.05.08c-.08.53-.16,1.05-.23,1.56,0,.04,0,.07.03.1.02.03.05.05.08.05.04,0,.07,0,.1-.03.03-.02.05-.05.05-.09.08-.52.16-1.04.23-1.56,0-.03,0-.06-.03-.09-.02-.03-.05-.05-.09-.05-.03,0-.06,0-.09.03"/><path class="cls-30" d="m1331.36,1909.13s-.05.05-.05.08c-.07.52-.14,1.03-.21,1.55,0,.04,0,.08.03.1.02.03.05.05.08.05.04,0,.08,0,.1-.03.03-.02.05-.05.05-.09.07-.52.14-1.03.21-1.55,0-.03,0-.06-.03-.09-.02-.03-.05-.05-.09-.05-.03,0-.06,0-.09.03"/><path class="cls-30" d="m1331.77,1906s-.05.05-.05.09c-.06.52-.13,1.04-.2,1.55,0,.04,0,.08.03.1.02.03.05.05.08.05.04,0,.08,0,.1-.03.03-.02.05-.05.05-.09.07-.52.13-1.04.2-1.56,0-.03,0-.06-.03-.09-.02-.03-.05-.05-.09-.05-.03,0-.06,0-.09.03"/><path class="cls-30" d="m1332.11,1902.87s-.04.06-.04.09c-.05.52-.11,1.04-.17,1.56,0,.03,0,.06.03.09.02.03.05.05.09.05.03,0,.06,0,.09-.03.03-.02.05-.05.05-.09.06-.52.12-1.04.17-1.56,0-.04-.01-.07-.04-.1-.02-.02-.04-.04-.08-.04-.04,0-.07,0-.1.03"/><path class="cls-30" d="m1332.45,1900.39s-.01-.06-.04-.09c-.03-.02-.06-.03-.1-.03-.03,0-.06.01-.09.04-.02.03-.03.06-.03.09.02.42.03.82.03,1.21,0,.04.01.07.04.09.03.03.06.04.09.04.04,0,.07-.01.09-.04.03-.03.04-.06.04-.09,0-.39,0-.8-.03-1.23"/><path class="cls-30" d="m1331.98,1897.17s-.03.07-.03.1c.05.54.1,1.05.13,1.55,0,.04.02.07.04.09.03.03.06.04.09.04.04,0,.07-.02.09-.05.03-.02.04-.05.04-.09-.03-.5-.08-1.02-.13-1.56,0-.03-.02-.07-.05-.09-.02-.02-.05-.03-.09-.03-.03,0-.07.02-.09.04"/><path class="cls-30" d="m1331.59,1894.08s-.03.06-.03.09c.08.53.15,1.05.21,1.55,0,.04.02.07.05.09.03.02.06.03.09.03.04,0,.07-.02.09-.05.02-.03.03-.06.03-.09-.06-.51-.13-1.03-.21-1.56,0-.03-.02-.06-.05-.08-.03-.02-.06-.03-.1-.03-.03,0-.06.02-.08.05"/><path class="cls-30" d="m1331.12,1891s-.03.06-.03.09c.09.53.17,1.03.25,1.53,0,.04.02.07.05.09.03.02.06.03.09.03.04,0,.07-.02.09-.05.02-.03.03-.06.03-.1-.08-.49-.16-1-.25-1.53,0-.03-.02-.06-.05-.08-.03-.02-.06-.03-.1-.03-.03,0-.06.02-.08.05"/><path class="cls-30" d="m1330.71,1887.89s-.06-.02-.09-.01c-.04,0-.07.03-.09.05-.02.03-.02.07-.01.1.1.52.2,1.03.3,1.54,0,.03.03.06.05.08.03.02.07.03.1.03.03,0,.06-.03.08-.07.02-.03.03-.06.03-.09-.1-.5-.2-1.02-.3-1.54,0-.04-.03-.07-.07-.09"/><path class="cls-30" d="m1330.15,1884.94s-.03-.07-.07-.09c-.03-.02-.06-.02-.09-.01-.04,0-.07.03-.09.05-.02.03-.02.07-.01.1.11.51.22,1.02.33,1.53,0,.04.03.06.05.08.03.02.07.03.1.03.04,0,.06-.03.08-.07.02-.03.03-.06.03-.09-.1-.5-.21-1.01-.33-1.53"/><path class="cls-30" d="m1329.42,1881.82s-.06-.02-.09-.01c-.04,0-.07.03-.09.05-.02.03-.02.07-.01.1.12.51.23,1.02.34,1.51.01.04.03.06.05.08.03.02.07.03.1.01.04,0,.06-.02.08-.05.02-.03.03-.06.03-.09-.11-.5-.23-1-.34-1.51,0-.04-.03-.07-.07-.09"/><path class="cls-30" d="m1328.77,1878.87s-.02-.06-.05-.08c-.03-.01-.07-.02-.1-.01-.03.01-.06.03-.08.07-.01.03-.02.06-.01.09.13.52.24,1.02.35,1.51.01.04.03.06.05.08.03.02.07.03.1.01.04,0,.06-.02.08-.05.02-.03.03-.06.03-.09-.12-.5-.24-1.01-.37-1.53"/><path class="cls-30" d="m1328.39,1877.48s.03-.07.01-.1c-.12-.49-.24-.99-.38-1.5,0-.03-.02-.06-.05-.08-.03-.01-.07-.02-.1-.01-.03.01-.06.03-.08.07-.01.03-.02.06-.01.09.13.51.26,1.01.38,1.5.01.04.03.06.07.08.03.02.06.03.09.01.04,0,.06-.02.08-.05"/><path class="cls-30" d="m1327.26,1872.88s-.02-.06-.05-.08c-.03-.01-.07-.02-.1-.01-.03.01-.06.03-.08.07-.01.03-.02.06-.01.09.13.51.27,1.01.39,1.5.01.04.03.06.07.08.03.02.06.03.09.01.04,0,.06-.02.08-.05.02-.03.03-.07.01-.1-.13-.49-.26-.99-.39-1.5"/><path class="cls-30" d="m1326.45,1869.88s-.02-.06-.05-.08c-.03-.01-.07-.02-.1-.01-.03.01-.06.03-.08.07-.01.03-.02.06-.01.09.14.51.28,1.01.4,1.5.01.04.03.06.07.08.03.02.06.03.09.01.04,0,.06-.02.08-.05.02-.03.03-.07.01-.1-.13-.49-.26-.99-.4-1.5Z"/></g><g id="man_0_Layer0_6_MEMBER_1_FILL-2"><path class="cls-32" d="m1329.79,1870.48h-13.99c1.52,11.22,4.71,22.43,9.57,33.65-.66,6.09-.95,15.64-.85,28.65,1.49.66,2.85.5,4.07-.48,3.83-14.19,5.94-24.46,6.35-30.8,0-10.61-1.72-20.94-5.15-31.01Z"/></g><g id="man_0_Layer0_7_FILL"><path class="cls-99" d="m1319.37,1838.6c-2.64-.53-4.36.35-5.15,2.63-1.69,8.56-2.53,18.18-2.52,28.86-.73,3.73.52,7.8,3.73,12.21,1.03.97,3.76-.61,8.2-4.75,1.93-1.74,3.65-2.72,5.14-2.92,1.91-.43,2.81-1.14,2.71-2.15l-.57-5.69,1.81-12.52c.56-5.24-.33-8.68-2.66-10.33-5.01-2.86-8.57-4.64-10.69-5.35Z"/></g><g id="man_0_Layer0_8_FILL"><path class="cls-75" d="m1325.63,1836.16c-.12.14-.7.1-1.75-.13.4.19.65.55.74,1.08.52-.33.86-.65,1-.95Z"/></g><g id="Layer5_20_MEMBER_9_FILL"><path class="cls-65" d="m1366.29,1860.18c2.76-.42,3.73-.88,2.92-1.39l-.72-.24c.13-.36-.1-.6-.69-.7l-4.45-.92c.81-1.46.49-1.77-.94-.93-.96.52-1.69,1.04-2.19,1.55l-9.06.21c1.48,1.2,2.35,2.67,2.61,4.44,2.4-.6,5.18-1.43,8.31-2.48l4.19.47Z"/></g><path class="cls-34" d="m1326.01,1850.36s.59,7.74,5.54,11.95c0,0,.86-5.68.86-5.97s-6.41-5.97-6.41-5.97Z"/><g id="man_0_Layer0_10_FILL"><path class="cls-55" d="m1352.33,1862.16c3.16-3.05,3.69-4.59,1.59-4.64-.38,0-.74-.14-1.08-.39-1.96.29-4.23.6-6.81.93l-12.31-11.76c-3.11-2.67-5.38-3.16-6.81-1.46-1.43,1.7-2.02,5.53,1.02,8.96,5.33,4.53,11.04,7.83,17.14,9.89,2.9-.16,5.32-.66,7.26-1.51Z"/></g><g id="man_0_Layer0_11_FILL"><path class="cls-30" d="m1354.06,1862.99c.58-.14.93-.42,1.04-.82.87-1.59,1.18-3.5.95-5.74-.09-.15-.57-.16-1.46-.01-.89.14-1.65.26-2.28.35-.63.1-.96.37-.98.8.43,1.58.25,3.3-.55,5.15.06.48.2.76.43.82,1.32-.22,2.27-.41,2.84-.55Z"/></g></g><g id="Dog"><g class="cls-122"><path class="cls-26" d="m1215.68,2005.6c39.85-13.03,79.7-26.06,119.54-39.09,5.98-2.7,19.78-3.95,20.68-10.83,0-4.49-8.29-8.13-18.52-8.13-11.13.12-19.71,4.95-29.96,7.8-38.37,12.54-76.73,25.09-115.08,37.64-24.69,10.1,11.98,19.27,23.35,12.62Z"/></g><g id="Dog_0_Layer0_0_FILL"><path class="cls-90" d="m1347.45,1922.94c.46-.35,1.15-.26,2.09.24,0,0,.01.01.02.01,1.1.27,1.78.91,2.06,1.94.18.27-.42,1.82-1.81,4.66.88,2.74,1.55,5.63,2,8.66,1.12,1.07,1.22,3.16.3,6.29.13,2.67-.09,5.26-.64,7.76l.26,2.67,1.85.82c.82.83.79,1.54-.09,2.13-.84.18-2.11-.09-3.82-.79-.79-.73-1.27-1.45-1.44-2.18l-.51-4.74-2.51,1.87c1.08.45,1.81.96,2.18,1.52.4.88.43,1.75.08,2.6-1.93,1.17-3.59,1.8-4.97,1.91-2.08.13-4.19.18-6.31.15l-2.3-.56c-.11.46-.27.7-.48.75-.47.32-1.25.06-2.35-.77-.61-.82-1.09-1.71-1.45-2.69-.45-1.65-.46-3.39-.04-5.24,1.52-3.7,3.21-6.63,5.07-8.79,1.89-2.46,3.9-4.5,6.03-6.13.21-.24.26-.66.17-1.27l-.64-2.65c-.85-.3-1.54-.78-2.06-1.44-.99-1.01-1.47-1.62-1.46-1.82-.12-.28,0-.42.36-.44.68-.02,1.31,0,1.89.03-.88-1.37-1.29-2.52-1.21-3.44l2.79,1.83.67-.99c1.3-1.18,2.59-1.78,3.89-1.82.47.09.95.37,1.42.84l.94-.92Z"/></g><g id="Dog_0_Layer0_0_FILL-2"><path class="cls-84" d="m1347.45,1922.94c.46-.35,1.15-.26,2.09.24,0,0,.01.01.02.01,1.1.27,1.78.91,2.06,1.94.18.27-.42,1.82-1.81,4.66.88,2.74,1.55,5.63,2,8.66,1.12,1.07,1.22,3.16.3,6.29.13,2.67-.09,5.26-.64,7.76l.26,2.67,1.85.82c.82.83.79,1.54-.09,2.13-.84.18-2.11-.09-3.82-.79-.79-.73-1.27-1.45-1.44-2.18l-.51-4.74-2.51,1.87c1.08.45,1.81.96,2.18,1.52.4.88.43,1.75.08,2.6-1.93,1.17-3.59,1.8-4.97,1.91-2.08.13-4.19.18-6.31.15l-2.3-.56c-.11.46-.27.7-.48.75-.47.32-1.25.06-2.35-.77-.61-.82-1.09-1.71-1.45-2.69-.45-1.65-.46-3.39-.04-5.24,1.52-3.7,3.21-6.63,5.07-8.79,1.89-2.46,3.9-4.5,6.03-6.13.21-.24.26-.66.17-1.27l-.64-2.65c-.85-.3-1.54-.78-2.06-1.44-.99-1.01-1.47-1.62-1.46-1.82-.12-.28,0-.42.36-.44.68-.02,1.31,0,1.89.03-.88-1.37-1.29-2.52-1.21-3.44l2.79,1.83.67-.99c1.3-1.18,2.59-1.78,3.89-1.82.47.09.95.37,1.42.84l.94-.92Z"/></g><path class="cls-80" d="m1350.03,1930.48s-6.33.16-9.48,2.05l.3,1.23s3.32-1.64,9.47-2.27l-.29-1.01Z"/><path class="cls-42" d="m1350.52,1946.44l-.93.13c1.1-3.5,2.14-5.5,3.12-6,.1,1.09-.1,2.48-.6,4.18.13,2.67-.09,5.26-.64,7.76l.26,2.67,1.85.82c.53.54.71,1.02.52,1.46-1.02.13-2.08-.29-3.16-1.27-1.14-.48-1.28-3.73-.43-9.74m-3.76,1.69c-.61-.36-.92-.88-.94-1.54.12-1.47.52-2.73,1.18-3.77-.02,2.11.09,3.64.34,4.58l.69,3.9c-.07,0-.14.01-.2.02l-.1-.91-2.48,1.84c-.84-.39-2.48-.8-4.92-1.22.66-1.06,1.66-1.71,3.01-1.96l3.41-.94m-17.27,2.25c1.01.3,1.96.77,2.85,1.4,1.53,1.67,2.75,3.36,3.67,5.07,1.23,0,2.06-.12,2.47-.4,1.53-.94,2.78-1.32,3.74-1.15l-.48,1.36c2.53-1.74,4.29-2.5,5.3-2.29.36.27.58.69.65,1.27-.04.25-.11.51-.21.76-1.93,1.17-3.59,1.8-4.97,1.91-2.08.13-4.19.18-6.31.15l-2.3-.56c-.11.46-.27.7-.48.75-.47.32-1.25.06-2.35-.77-.61-.82-1.09-1.71-1.45-2.69-.41-1.52-.46-3.12-.13-4.8m12.19-15.15c-.56.08-1.03.11-1.41.12.14-.11.27-.21.41-.32.09-.11.16-.26.19-.45l2.66-1.4c-.08,1.22-.7,1.9-1.86,2.04m5.94-9.86c.98.78,1.24,1.67.8,2.65l-.8-2.65m-9.46,4.29c-.64-.66-1.08-1.15-1.29-1.47.44.05,1.22.26,2.36.64-.23-.53-.42-1-.58-1.42.1,0,.2.01.3.02-.26-.4-.48-.79-.65-1.15-.09-.41-.11-.71-.05-.91.23-.03,1.4.64,3.51,2.01l2.28.22c.72,1.22,1.18,2.26,1.37,3.13-.28.34-1.43-.03-3.44-1.1l-1.86-1.22.2,3.1-.1-.39c-.85-.3-1.54-.78-2.06-1.44m14.31,9.81c-.18-.31-.35-.61-.52-.88.22.25.4.54.52.88m-1.26-12.83l.02.03c-.31.76-.78,1.8-1.42,3.12.87,2.72,1.53,5.57,1.98,8.57-.93-1.41-1.88-2.52-2.83-3.31.05-.02.1-.05.15-.08-.06-.98-.34-1.78-.83-2.42l-3.32.15c1.18-1.07,2.13-1.5,2.85-1.27l1.99.88-.95-5.02c.24.15.46.46.68.94.61-.33,1.16-.85,1.66-1.57m-5.09-3.13c.13.1.26.22.38.34l.29-.28c.3.32.48.71.53,1.15l-1.2-1.21Z"/><path class="cls-52" d="m1347.04,1923.35l1.47,1.63c.65-.63,1.35-1.07,2.09-1.34.51.35.85.84,1.02,1.5.18.27-.42,1.82-1.81,4.66.88,2.74,1.55,5.63,2,8.66,1.12,1.07,1.22,3.16.3,6.29.13,2.67-.09,5.26-.64,7.76l.26,2.67,1.85.82c.82.83.79,1.54-.09,2.13-.84.18-2.11-.09-3.82-.79-.79-.73-1.27-1.45-1.44-2.18l-.51-4.74-2.51,1.87c1.08.45,1.81.96,2.18,1.52.4.88.43,1.75.08,2.6-1.93,1.17-3.59,1.8-4.97,1.91-2.08.13-4.19.18-6.31.15l-2.3-.56c-.11.46-.27.7-.48.75-.47.32-1.25.06-2.35-.77-.61-.82-1.09-1.71-1.45-2.69-.25-.93-.37-1.9-.34-2.9,1.23.2,2.71.92,4.44,2.17-.72-.76-.48-2.38.72-4.87,3.07-2.71,5.86-5.12,8.35-7.24-.68-1.08.41-2.28,3.25-3.6l2.62-1.17-1.74-2.69c-3.01-1.76-4.98-3.39-5.92-4.89l-1.48.82c-.24-.13-.47-.28-.67-.45l.33-2.63-.33-.45c-.34-.54-.6-1.04-.78-1.51l4.68,2.17c0-2.03,1.14-3.46,3.4-4.29l.03-.07c.11.09.22.19.34.3l.53-.52Z"/><g id="Dog_0_Layer0_3_FILL"><path class="cls-6" d="m1347.45,1922.94c.46-.35,1.15-.26,2.09.24-.75.55-1.64.66-2.67.32l.58-.57Z"/></g></g></g></g><g id="DBs"><g id="Group-Left"><ellipse id="ELIPSE_GROUP_LEFT" class="cls-57" cx="876.37" cy="1800.9" rx="367.88" ry="131.4"/><g id="Man"><g id="Layer0_0_MEMBER_0_MEMBER_0_MEMBER_0_MEMBER_0_FILL"><path class="cls-65" d="m952.94,1726.44l-1.23-5.84c2.78-2.62,3.31-5.23,1.6-7.83-2.71-1.59-4.95-1.54-6.71.14-.34.74-.69,2.04-1.04,3.89l-.38.64c-.08.69.06,1.72.4,3.11.48.32,1.28.52,2.38.6-.02,1.68.19,3.52.65,5.51l4.33-.23Z"/></g><use width="126.04" height="72.77" transform="translate(969.38 1786.94) rotate(-180) scale(.36 -.36)" xlink:href="#SHADOW_PEOPLE"/><g class="cls-125"><path class="cls-47" d="m788.83,1820.56c52.16-3.88,104.32-7.76,156.48-11.65,27.63-2.02,20.65-19.77-5.17-20.85-11.41-.18-22.51,1.46-33.85,2.06-44.06,3.28-88.11,6.56-132.16,9.84-37.43,4.85-8.67,24.87,14.7,20.59Z"/></g><g id="Layer0_0_MEMBER_1_MEMBER_0_MEMBER_0_MEMBER_0_FILL"><path class="cls-92" d="m947.63,1722.01s.02.02.02.03c.15-.21.17-.54.06-1l-.48.51-1.98.49c.72.15,1.51.13,2.38-.03Z"/></g><g id="Layer0_0_MEMBER_2_MEMBER_0_MEMBER_0_MEMBER_0_FILL"><path class="cls-70" d="m952.53,1711.53c-.02-.47-.31-.68-.85-.63.21-.13.46-.44.75-.93.53-.8-.17-1.1-2.09-.88-1.91.23-2.89,1.26-2.92,3.11.52-.12.97-.08,1.36.12l.68.36c-.69-.28-1.42-.1-2.18.53l.13,1.05-.14,2.06c-.14-.58-.44-.39-.9.55-.09.23-.17.39-.23.5l-1.03,1.02c-.28.42-.47,1.02-.59,1.8l-.6,3.02c-.01.71,1.35.5,4.09-.61v-1.32c.44-.07.7-.38.79-.92,0-1.01-.17-1.83-.49-2.46.44.49.73.69.85.6l.35,2.09c.18.33.45.48.81.45l.78.24c.2.41.57.56,1.09.44l.09-1.73c1.31-1.31,2.13-2.8,2.48-4.48.37-1.67.07-2.8-.87-3.38-.31-.3-.76-.5-1.35-.58m-4.15,3.48c.14.09.22.25.24.47.04.6-.3,1.17-1.02,1.7l.24-2.12c.21-.12.39-.14.54-.05Z"/></g><g id="Layer0_0_MEMBER_3_MEMBER_0_MEMBER_0_MEMBER_0_FILL"><path class="cls-11" d="m948.64,1718.9c-.03-.26-.07-.07-.14.56-.06.66-.23,1.08-.5,1.28-.14.13-.4.27-.78.42l-1.58.53c-.63.23-1.1.52-1.42.86l-.23.26-.08.39c-.01.71,1.35.5,4.09-.61v-1.32c.18-.03.31-.09.41-.18l.07-.14c.11-.12.18-.22.23-.31.03-.05.06-.15.08-.29,0-.32-.02-.66-.07-1.03l-.08-.43m-.26-3.88c.14.09.22.25.24.47.04.57-.32,1.16-1.08,1.77.47.23.92.15,1.35-.25.58-1.08.39-1.76-.59-2.04l.08.05m3.9,4.96c1.31-1.31,2.13-2.8,2.48-4.48.15-.64.18-1.22.11-1.75-.05-.08-.23-.16-.52-.27-.43-.14-.91-.15-1.44-.05-1.41.31-2.54,1.72-3.37,4.25-.05.72-.05,1.37-.01,1.94.06.61.17,1.04.34,1.3.15.08.3.11.45.09l.78.24c.2.41.57.56,1.09.44l.09-1.73m-2.08-9.73c-.03.22.07.38.32.5.15.08.36.11.62.1h.62c.2-.16.43-.45.67-.88.23-.35.22-.61-.04-.79-.48.03-.97.16-1.47.38-.23.11-.4.22-.52.35-.11.11-.17.22-.19.34m1.59.9c-.11.07-.17.15-.19.24.01.15.09.23.24.25.07.03.19.03.37,0,.17-.02.43-.02.78,0l-.47-.09c0-.18-.05-.32-.15-.44h-.28s-.31.06-.31.06Z"/></g><g id="Layer0_0_MEMBER_4_MEMBER_0_MEMBER_0_MEMBER_0_FILL"><path class="cls-1" d="m951.11,1756.78l2.89-1.48-2.73-2.04-2.66,2.33c.76,1.05,1.59,1.45,2.5,1.18Z"/></g><g id="Layer0_0_MEMBER_5_MEMBER_0_MEMBER_0_MEMBER_0_FILL"><path class="cls-20" d="m950.27,1756.6c.13.03.25.02.35-.05.11-.04.18-.14.21-.28.03-.13.02-.25-.05-.35-.07-.11-.16-.18-.28-.21-.12-.03-.24-.02-.35.03-.11.07-.18.16-.21.3-.03.12-.02.24.03.35.07.11.16.18.3.21Z"/></g><g id="Layer0_0_MEMBER_6_MEMBER_0_MEMBER_0_MEMBER_0_FILL"><path class="cls-17" d="m954.69,1723.11c-2.19.6-3.07,2.27-2.63,4.99l3.76,16.04-12.66,7.93c-.17.85.81,1.59,2.92,2.23,8.71-3.35,13.46-6.59,14.25-9.74.57-6.3-.14-12.14-2.13-17.53-1.09-2.98-2.26-4.29-3.52-3.92Z"/></g><g id="Layer0_0_MEMBER_7_MEMBER_0_MEMBER_0_MEMBER_0_FILL"><path class="cls-48" d="m954.11,1736.79l1.52,6.52c2.07-3.56,2.77-9,2.1-16.32l-.45,2.41-3.18,7.4Z"/></g><g id="Layer0_0_MEMBER_8_MEMBER_0_MEMBER_0_MEMBER_0_FILL"><path class="cls-78" d="m954.04,1723.49c-.17-.68-.6-1.29-1.28-1.83-1.77.02-3.61,1.1-5.53,3.23-.11.1-.12.25-.02.45l1.08,2.08,5.33-1.61.42-2.32Z"/></g><g id="Layer0_0_MEMBER_9_MEMBER_0_MEMBER_0_MEMBER_0_FILL"><path class="cls-96" d="m950.39,1797.06c1.79.8,3.76,1.43,5.91,1.91.64.05,1.29-.07,1.97-.36.01-.77-.11-1.54-.36-2.33.12-2,0-4.11-.35-6.31l-3.57-.08.64,4.99-1.63-.3c-1.26.41-2.14,1.23-2.63,2.48Z"/></g><g id="Layer0_0_MEMBER_9_MEMBER_0_MEMBER_0_MEMBER_1_FILL"><path class="cls-99" d="m951.51,1794.43c-1.92.1-3.02.6-3.3,1.5-.05.15-.08.35-.08.58.05.27.73.71,2.04,1.31,1.25.57,3.11,1.31,5.59,2.23,1.92-.11,2.77-.47,2.55-1.08l-.02-.36c-.68.3-1.34.42-1.97.36-2.16-.47-4.13-1.11-5.91-1.91.49-1.25,1.37-2.08,2.63-2.48l-1.51-.15Z"/></g><path id="Layer0_0_MEMBER_10_MEMBER_0_MEMBER_0_1_STROKES" class="cls-114" d="m948.11,1796.81c1.34,1,4.13,2.07,8.4,3.22.54.05,1.17-.09,1.89-.44"/><path id="Layer0_0_MEMBER_11_MEMBER_0_MEMBER_0_1_STROKES" class="cls-114" d="m948.11,1795.73c.3.83,3.09,1.91,8.4,3.22.49.04,1.04-.03,1.63-.23"/><g id="Layer0_0_MEMBER_12_MEMBER_0_MEMBER_0_MEMBER_0_FILL"><path class="cls-36" d="m956.78,1774.49l-.39-1.58c1.49-12.61,2.23-20.34,2.23-23.2l-10.12,1.43.95,11.85,4.9,28.88,1.61.92c1.1.54,1.66.58,1.69.13.23-1.72.17-5.6-.18-11.65-.16-2.88-.39-5.14-.69-6.79Z"/></g><g id="Layer0_0_MEMBER_12_MEMBER_1_MEMBER_0_MEMBER_0_MEMBER_0_FILL"><path class="cls-77" d="m956.88,1774.88l-.39-1.58c1.49-12.61,2.23-20.34,2.23-23.2l-10.12,1.43.95,11.85,4.9,28.88,1.61.92c1.1.54,1.66.58,1.69.13.23-1.72.17-5.6-.18-11.65-.16-2.88-.39-5.14-.69-6.79Z"/></g><g id="Layer0_0_MEMBER_13_MEMBER_0_MEMBER_0_MEMBER_0_FILL"><path class="cls-99" d="m941.24,1801.22l-1.5-.13c-1.92.1-3.02.59-3.32,1.48-.04.16-.07.36-.07.59.04.27.72.71,2.04,1.3,1.19.57,3.06,1.32,5.59,2.25,1.92-.11,2.77-.47,2.55-1.08l-.03-.38c-.7.3-1.35.42-1.96.38-2.16-.47-4.13-1.11-5.91-1.91.49-1.26,1.36-2.09,2.61-2.5Z"/></g><g id="Layer0_0_MEMBER_13_MEMBER_0_MEMBER_0_MEMBER_1_FILL"><path class="cls-96" d="m941.24,1801.22c-1.25.41-2.12,1.24-2.61,2.5,1.79.8,3.76,1.43,5.91,1.91.6.04,1.25-.08,1.96-.38l-.44-7.67-3.81-1.04.03,4.78-1.04-.1Z"/></g><path id="Layer0_0_MEMBER_14_MEMBER_0_MEMBER_0_1_STROKES" class="cls-114" d="m936.35,1803.46c1.34,1,4.13,2.07,8.4,3.22.54.05,1.17-.09,1.89-.44"/><path id="Layer0_0_MEMBER_15_MEMBER_0_MEMBER_0_1_STROKES" class="cls-114" d="m936.35,1802.38c.3.83,3.09,1.91,8.4,3.22.49.04,1.04-.03,1.63-.23"/><g id="Layer0_0_MEMBER_16_MEMBER_0_MEMBER_0_MEMBER_0_FILL"><path class="cls-36" d="m947.51,1777.43l.07-2.83c2.67-9.52,4.35-15.77,5.03-18.75l-11.58-1.91v13.41l1.15,31.87,1.35.74c.96.43,1.62.53,1.97.31.36-.23.66-1.91.89-5.03.3-4.7.52-7.97.67-9.81.21-2.74.36-5.41.46-8.02Z"/></g><g id="Layer0_0_MEMBER_16_MEMBER_1_MEMBER_0_MEMBER_0_MEMBER_0_FILL"><path class="cls-91" d="m947.62,1777.82l.07-2.83c2.67-9.52,4.35-15.77,5.03-18.75l-11.58-1.91v13.41l1.15,31.87,1.35.74c.96.43,1.62.53,1.97.31.36-.23.66-1.91.89-5.03.3-4.7.52-7.97.67-9.81.21-2.74.36-5.41.46-8.02Z"/></g><g id="Layer0_0_MEMBER_17_MEMBER_0_MEMBER_0_MEMBER_0_FILL"><path class="cls-17" d="m957.63,1725.84c-.82-1.56-1.7-2.47-2.63-2.73-.68-.19-1.4-.2-2.15-.02-2.41.48-4.96,1.78-7.65,3.9-1,.79-2.01,1.79-3.04,3.01l-1.24,1.6c-.89,8.55-1.25,17.67-1.07,27.35,2.19.26,3.41-.76,3.66-3.04,1.21,2.01,1.98,3.11,2.31,3.31,1.65,1.4,3.82,1.61,6.49.63l1.69-.61.58-.29c2.33-.97,4.33-2.08,5.98-3.33l-2.61-9.16c.6-7.44.93-12.49.97-15.13.06-1.92-.37-3.75-1.3-5.48Z"/></g><g id="Layer0_0_MEMBER_17_MEMBER_0_MEMBER_0_MEMBER_0_FILL-2"><path class="cls-100" d="m957.63,1725.84c-.82-1.56-1.7-2.47-2.63-2.73-.68-.19-1.4-.2-2.15-.02-2.41.48-4.96,1.78-7.65,3.9-1,.79-2.01,1.79-3.04,3.01l-1.24,1.6c-.89,8.55-1.25,17.67-1.07,27.35,2.19.26,3.41-.76,3.66-3.04,1.21,2.01,1.98,3.11,2.31,3.31,1.65,1.4,3.82,1.61,6.49.63l1.69-.61.58-.29c2.33-.97,4.33-2.08,5.98-3.33l-2.61-9.16c.6-7.44.93-12.49.97-15.13.06-1.92-.37-3.75-1.3-5.48Z"/></g><g class="cls-126"><g id="Layer0_0_MEMBER_18_MEMBER_0_MEMBER_0_MEMBER_0_FILL"><path class="cls-6" d="m944.1,1732.32l-.49-1.04-3,3.52c-.66,7.61-.91,15.66-.76,24.15l.68.03c4.4-9.76,5.59-18.65,3.57-26.65Z"/></g></g><g id="Layer0_0_MEMBER_19_MEMBER_0_MEMBER_0_MEMBER_0_FILL"><path class="cls-17" d="m941.83,1799.28c.04.15.14.29.3.41,1.85,1.25,3.16,1.51,3.93.79.23-.56.33-1.11.31-1.64,0-.5-.09-.77-.26-.81-.24.54-1.57.49-3.98-.13-.36-.16-.46.3-.3,1.38Z"/></g><g id="Layer0_0_MEMBER_20_MEMBER_0_MEMBER_0_MEMBER_0_FILL"><path class="cls-17" d="m957.88,1791.49c-.1-.02-.16.04-.18.2-.19.45-1.22.43-3.09-.07-.37-.3-.59-.04-.66.76-.03.81.6,1.37,1.89,1.68,1.31.33,2-.01,2.07-1.02.1-1,.09-1.51-.03-1.54Z"/></g><g id="Layer0_0_MEMBER_21_MEMBER_0_MEMBER_0_MEMBER_0_MEMBER_0_FILL"><path class="cls-65" d="m923.24,1736.78l-2.72-.9c-.7-.73-1.2-1.78-1.49-3.15,0-.01.02-.01.05,0,.16-.1.54.01,1.14.33l1.42.97,1.47.13c.7.14,1.27.34,1.71.62.22.2.37.45.45.76l2.44,3.01-2.76.26-1.72-2.03Z"/></g><g id="Layer0_0_MEMBER_21_MEMBER_1_MEMBER_0_MEMBER_0_MEMBER_0_FILL"><path class="cls-1" d="m925.41,1740.55l1.5-3.46-2.23-2.72c-1.33,1.13-1.74,2.2-1.25,3.2l1.98,2.98Z"/></g><g id="Layer0_0_MEMBER_21_MEMBER_2_MEMBER_0_MEMBER_0_MEMBER_0_FILL"><path class="cls-20" d="m923.72,1736.76c.07.09.18.15.32.16.13,0,.24-.03.34-.11s.15-.19.16-.32c0-.11-.03-.22-.11-.34-.1-.1-.21-.15-.32-.16-.13,0-.24.03-.34.11s-.15.19-.16.32c-.01.14.02.25.11.34Z"/></g><g id="Layer0_0_MEMBER_21_MEMBER_3_MEMBER_0_MEMBER_0_MEMBER_0_FILL"><path class="cls-17" d="m931.72,1749.2c.54.65,1.4.67,2.6.07.41-.21.86-.47,1.36-.77.67-.41,1.3-.85,1.89-1.34.59-.48,1.36-1.28,2.33-2.37,2.54-2.88,4.43-6.11,5.65-9.68,1.93-4.88,1.33-6.97-1.82-6.27-1.93.96-5.32,5.78-10.18,14.45-2.16-1.8-4.6-4.25-7.32-7.35-.93.18-1.6,1.16-2.01,2.93,2.26,3.59,4.76,7.04,7.5,10.34Z"/></g></g><g id="Woman-2"><use width="126.04" height="72.77" transform="translate(909.54 1811.66) rotate(-180) scale(.36 -.36)" xlink:href="#SHADOW_PEOPLE"/><g class="cls-124"><path class="cls-87" d="m728.08,1847.67c53.31-4.01,106.61-8.02,159.91-12.03,26.63-2,18.46-19.19-6.03-20.93-11.84-.62-23.17,1.36-34.91,1.91-45.38,3.41-90.76,6.83-136.14,10.25-37.24,5.16-4.52,25.13,17.17,20.81Z"/></g><g id="Layer1_2_MEMBER_0_FILL"><path class="cls-83" d="m890.78,1828.72c-1.18.29-1.78.16-1.79-.38v-3.63l3.02.97c3.57-.33,5.25-.17,5.06.48-1.21,1-3.3,1.86-6.29,2.57Z"/></g><g id="Layer1_2_MEMBER_1_FILL"><path class="cls-83" d="m879.08,1822.9c-1.18.29-1.78.16-1.79-.38v-3.63l3.02.97c3.57-.33,5.25-.17,5.06.48-1.21,1-3.3,1.86-6.29,2.57Z"/></g><g id="Layer1_2_MEMBER_2_MEMBER_0_MEMBER_0_MEMBER_0_FILL"><path class="cls-69" d="m888.81,1728.54h.11s-.02.71-.02.71c-.85,0-1.74-.44-2.67-1.32,1.03.49,1.89.7,2.58.61Z"/></g><g id="Layer1_2_MEMBER_3_FILL"><path class="cls-44" d="m878.03,1737.08c.15-1.16.41-2.1.76-2.84,1.83-3.81,3.35-1.98,4.58,5.48l1.2,12.28,12.38,9.21-.3,2.13c-5.15-.76-10.77-3.39-16.85-7.9-2.23-4.4-2.82-10.52-1.77-18.36Z"/></g><g id="Layer1_2_MEMBER_4_MEMBER_0_MEMBER_0_MEMBER_0_FILL"><path class="cls-65" d="m885.98,1724.75c-.2-1.53-.05-2.6.47-3.22,1.67-1.66,3.5-1.64,5.5.06.51.49.66,1.21.45,2.16-.07.31-.08.64-.03,1l.22,1.25c-.05.71-.27,1.33-.64,1.86-.38.49-.82.77-1.33.84l.16,3.31h-.05c.08,1.77.02,2.72-.18,2.86-1.83.13-3.77-.54-5.81-2.01l-.26-.3c.84-1.78,1.53-3.72,2.07-5.82l-.54-1.98Z"/></g><g id="Layer1_2_MEMBER_5_MEMBER_0_MEMBER_0_MEMBER_0_FILL"><path class="cls-94" d="m891.84,1727.92c-.32.41-.73.67-1.23.77l.06.44c-.52-.27-.96-.58-1.34-.93.71.31,1.55.22,2.52-.27Z"/></g><g id="Layer1_2_MEMBER_6_FILL"><path class="cls-36" d="m878.88,1770.08l3.13,20.64c-2.28,4.74-3.91,14.39-4.89,28.96,1.31.98,2.5.95,3.58-.08,6.4-15.58,9.83-28.36,10.31-38.33.47-9.98-.2-17.62-2.01-22.92-6.73-2.75-10.1,1.16-10.11,11.73Z"/></g><g id="Layer1_2_MEMBER_7_FILL"><path class="cls-36" d="m899.83,1785.34c-.31-9.99-1.57-17.56-3.79-22.7-11.14-2.89-15.73-1.38-13.78,4.53l9.34,28.29c-1.9,4.9-2.77,14.65-2.61,29.24-.05.41.09.73.42.97.3.22.68.31,1.15.29.47-.03.88-.17,1.24-.44.4-.29.65-.68.74-1.17,5.17-16.03,7.59-29.03,7.29-39.02Z"/></g><g class="cls-126"><g id="Layer1_2_MEMBER_8_FILL"><path class="cls-6" d="m880.16,1796.21c-.34,1.4-.67,2.96-.98,4.68,2.64,1.12,5.09,2.01,7.36,2.67.8-2.55,1.49-5,2.07-7.35h-8.46m17.66,8.51c.61-2.99,1.08-5.83,1.42-8.51h-7.91c-.68,2.02-1.21,4.73-1.6,8.13,3.09.63,5.78.76,8.09.38Z"/></g></g><g id="Layer1_2_MEMBER_9_FILL"><path class="cls-64" d="m876.85,1782.8c.04,1.72.12,3.51.24,5.37,7.97,1.17,15.96,2.04,23.98,2.61.19-1.96.33-3.87.41-5.72-3.9-.26-6.93-.47-9.08-.64-3.68-.3-6.99-.62-9.95-.98-2.24-.27-4.1-.48-5.6-.64m.55,9.58c.06.64.12,1.29.18,1.95,4.62.8,9.82,1.35,15.58,1.66,2.6.14,5.03.21,7.28.21h0c.08-.58.16-1.15.23-1.72h0c-.6,0-1.21,0-1.83-.02-7.18-.14-14.33-.84-21.43-2.09m3.45-38.91l.53,3.75c-.09.13-.18.26-.27.38,2.56.12,5.29.19,8.2.2,2.32.01,4.95,0,7.89-.07-.22-.45-.44-.9-.68-1.33.24-.98.45-1.96.62-2.94-2.68.08-5.46.12-8.34.12-1.98,0-4.63-.04-7.95-.11Z"/><path class="cls-17" d="m897.2,1757.74c-2.94.06-5.56.08-7.89.07-2.91,0-5.64-.08-8.2-.2-3.15,4.8-4.57,13.2-4.26,25.19,1.5.16,3.37.37,5.6.64,2.95.35,6.27.68,9.95.98,2.16.17,5.18.38,9.08.64-.08,1.85-.22,3.76-.41,5.72-8.02-.57-16.02-1.44-23.98-2.61.19,3.13.49,6.46.88,10,6.01,2.66,13.31,3.29,21.89,1.92.21-1.31.41-2.61.58-3.88-2.25,0-4.68-.07-7.28-.21-5.77-.31-10.96-.86-15.58-1.66-.06-.66-.12-1.31-.18-1.95,7.1,1.25,14.25,1.95,21.43,2.09.62.01,1.23.02,1.83.02,1.96-15.63.81-27.87-3.46-36.74m.45-14.78c-.29-4.07-2.18-6.62-5.67-7.64l-9.33-3.11c-2.3-.85-3.77.07-4.43,2.75l2.63,18.52c3.32.07,5.97.11,7.95.11,2.88,0,5.66-.04,8.34-.12.59-3.44.76-6.94.51-10.5Z"/></g><path class="cls-82" d="m901.37,1787.13c.04-.59.07-1.18.1-1.76,0-.1.01-.21.02-.31,0,0,0,0,0,0,.51-11.21-.91-20.32-4.28-27.32-.22-.45-.44-.9-.68-1.33.24-.98.45-1.96.62-2.94.59-3.44.76-6.94.51-10.5-.29-4.07-2.18-6.62-5.67-7.64l-9.33-3.11c-2.3-.85-3.77.07-4.43,2.75l2.63,18.52.53,3.75c-.09.13-.18.26-.27.38-3.15,4.8-4.57,13.2-4.26,25.19.04,1.72.12,3.51.24,5.37.08,1.36.19,2.77.31,4.21,0,0,0,0,0,0,.02.19.03.38.05.56.01.15.03.3.04.45.03.31.06.62.09.94,0,0,0,0,0,0,.12,1.25.25,2.53.39,3.84,6.01,2.66,13.31,3.29,21.89,1.92.21-1.31.41-2.61.58-3.88.08-.58.16-1.15.23-1.72h0c.16-1.26.29-2.49.41-3.7,0,0,0,0,0,0,.02-.24.04-.48.06-.72.05-.59.11-1.18.15-1.76.03-.39.05-.78.08-1.17Z"/><g id="Layer1_2_MEMBER_10_MEMBER_0_FILL"><path class="cls-67" d="m913.84,1759.27c.42-.81.35-1.39-.21-1.74l-5.47-3.44c-.56-.35-1.06-.13-1.48.68l-6.18,11.81c-.42.81-.35,1.39.21,1.74l5.47,3.44c.56.35,1.06.13,1.48-.68l6.18-11.81Z"/></g><g id="Layer1_2_MEMBER_10_MEMBER_1_FILL"><path class="cls-15" d="m912.85,1757.04c.57.36.64.94.22,1.75l-6.17,11.81c-.42.81-.92,1.04-1.49.68l-5.47-3.43c-.57-.36-.64-.94-.22-1.75l6.17-11.81c.42-.81.92-1.04,1.49-.68l5.47,3.43Z"/></g><g class="cls-126"><g id="Layer1_2_MEMBER_11_FILL"><path class="cls-6" d="m892.68,1756.5l3.36-11.4-4.94-6.04c-2.8,10.1-3.47,17.52-1.99,22.25,2.47,3.56,6.39,6.51,11.75,8.83-.44-3.25-1.01-5.54-1.69-6.87l-6.48-6.77Z"/></g></g><g id="Layer1_2_MEMBER_12_FILL"><path class="cls-65" d="m906.17,1767.15l-1.79,1.68,3.38,1.22c1.65.29,2.15.03,1.51-.78-.65-.8-1.68-1.51-3.1-2.12Z"/></g><g id="Layer1_2_MEMBER_13_FILL"><path class="cls-44" d="m890.56,1740.76c.3-1.13.84-2.6,1.62-4.41.2-.46.68-.56,1.43-.3.77.26,1.5.78,2.19,1.58.8.91,1.31,1.96,1.54,3.13.27,1.4.21,3.08-.17,5.04l-2.07,10.63,11.08,10.74-.57,2.07c-5.01-1.43-10.24-4.77-15.68-10.02-1.63-4.66-1.42-10.8.64-18.44Z"/></g><g id="Layer1_2_MEMBER_14_FILL"><path class="cls-55" d="m886.48,1720.95c-1.31.81-1.52,2.78-.62,5.93-8.28,2.02-12.94,9.07-14.01,21.15,7.18-.2,12.09-7.04,14.74-20.51,2.55.34,4.45-1.6,5.69-5.8-2.26-1.83-4.19-2.09-5.8-.77Z"/></g></g><g id="Woman-3"><use width="126.04" height="72.77" transform="translate(871.97 1727.2) rotate(-180) scale(.36 -.36)" xlink:href="#SHADOW_PEOPLE"/><g class="cls-119"><path class="cls-95" d="m683.93,1743.58c53.31.78,106.61,1.56,159.91,2.34,29.29.6,26.41-18.66-1.67-21.02-10.21-.55-20.39-.35-30.6-.61-45.38-.67-90.76-1.33-136.14-1.99-37.42.95-18.46,22.99,8.5,21.28Z"/></g><g id="Layer1_3_MEMBER_0_FILL"><path class="cls-65" d="m868.47,1698.64l-2.79.09c.54,1.75,1.3,2.76,2.29,3.04.98.28,1.62.08,1.91-.61l-1.41-2.51Z"/></g><g id="Layer1_3_MEMBER_1_FILL"><path class="cls-65" d="m866.82,1688.28l-1.14,2.31c-.16.3.96.71,3.38,1.22,1.65.29,2.15.03,1.51-.78-.65-.8-1.89-1.72-3.75-2.75Z"/></g><g id="Layer1_3_MEMBER_2_FILL"><path class="cls-15" d="m874.34,1709.39c.78.06,1.16-.11,1.14-.49l-.4-6.51c-.02-.38-.43-.6-1.21-.66l-10.36-.74c-.78-.06-1.16.11-1.14.49l.4,6.51c.02.38.43.6,1.21.66l10.36.74Z"/></g><g id="Layer1_3_MEMBER_3_FILL"><path class="cls-67" d="m874.34,1708.67c.78.06,1.16-.11,1.14-.49l-.4-6.51c-.02-.38-.43-.6-1.21-.66l-10.36-.74c-.78-.06-1.16.11-1.14.49l.4,6.51c.02.38.43.6,1.21.66l10.36.74Z"/></g><g id="Layer1_3_MEMBER_4_FILL"><path class="cls-75" d="m868.75,1699.46c-1.03.24-1.43.77-1.21,1.58.59,1.29,1.12,1.7,1.59,1.24l-.39-2.83Z"/></g><g id="Layer1_3_MEMBER_5_MEMBER_0_MEMBER_0_FILL"><path class="cls-36" d="m856.42,1668.23c-.15,9.52.36,16.22,1.52,20.07,1.12,1.91,2.43,4.03,3.91,6.37,1.49,2.34,2.9,4.16,4.23,5.45.6-.11,1.55-.51,2.83-1.21l-6.3-16.05c1.6-11.85,1.75-19.02.47-21.52-1.17-2.21-2.17-3.44-2.98-3.69l-3.69,10.58Z"/></g><path id="Layer1_3_MEMBER_5_MEMBER_1_MEMBER_0_1_STROKES" class="cls-112" d="m849.73,1685.58l-3.8-.5"/><g id="Layer1_3_MEMBER_5_MEMBER_2_FILL"><path class="cls-17" d="m855.12,1686.76l-12.09,3.77c-2.84,7.84-2.47,17.03,1.11,27.55-3.39,3.82-3.77,11.95-1.11,24.39h1.45c4.25-11.66,7.8-30.23,10.64-55.71Z"/></g><g id="Layer1_3_MEMBER_5_MEMBER_2_FILL-2"><path class="cls-38" d="m855.12,1686.76l-12.09,3.77c-2.84,7.84-2.47,17.03,1.11,27.55-3.39,3.82-3.77,11.95-1.11,24.39h1.45c4.25-11.66,7.8-30.23,10.64-55.71Z"/></g><g class="cls-126"><g id="Layer1_3_MEMBER_5_MEMBER_3_FILL"><path class="cls-6" d="m862.82,1663.48l-2.87,6.83-5.1,11.53,6.7,12.36c.71,1.42,1.82,2.97,3.32,4.64,1.2-2.18.35-7.38-2.57-15.59.38-7.24.56-13.82.52-19.77Z"/></g></g><g id="Layer1_3_MEMBER_5_MEMBER_4_FILL"><path class="cls-17" d="m859.73,1679.51l-3.95,4.97c-5.49,5.19-5.53,14.98-.13,29.37-2.57,2.6-2.52,10.12.13,22.57h1.45c7.12-25.48,7.96-44.45,2.51-56.91Z"/></g><g id="Layer1_3_MEMBER_5_MEMBER_4_FILL-2"><path class="cls-14" d="m859.73,1679.51l-3.95,4.97c-5.49,5.19-5.53,14.98-.13,29.37-2.57,2.6-2.52,10.12.13,22.57h1.45c7.12-25.48,7.96-44.45,2.51-56.91Z"/></g><g id="Layer1_3_MEMBER_5_MEMBER_5_MEMBER_0_MEMBER_0_FILL"><path class="cls-76" d="m858.51,1732.89c-1.77.07-2.93-.06-3.47-.4v5.29c-.22.51.58,1.27,2.42,2.26,2.54.87,3.23.55,2.04-.95l-1.74-2.23.75-3.97Z"/></g><path id="Layer1_3_MEMBER_5_MEMBER_6_MEMBER_0_1_STROKES" class="cls-112" d="m860.52,1684.2l-.94.55"/><g id="Layer1_3_MEMBER_5_MEMBER_7_FILL"><path class="cls-36" d="m862.32,1660.36c-.63-2.61-2.76-3.52-6.39-2.75-1.76.36-3.73,1.03-5.89,1.98-2.35,1.13-4.44,2.27-6.26,3.4-1.16,1.08-1.59,2.46-1.27,4.14l4.65,13.79-4.12,9.61c6.22,2.92,12.87,3.75,19.96,2.51.15-.95.13-2.12-.05-3.51-.51-3.91-1.47-7.3-2.86-10.18,2.62-9.84,3.36-16.17,2.22-19Z"/></g><g id="Layer1_3_MEMBER_5_MEMBER_7_FILL-2"><path class="cls-85" d="m862.32,1660.36c-.63-2.61-2.76-3.52-6.39-2.75-1.76.36-3.73,1.03-5.89,1.98-2.35,1.13-4.44,2.27-6.26,3.4-1.16,1.08-1.59,2.46-1.27,4.14l4.65,13.79-4.12,9.61c6.22,2.92,12.87,3.75,19.96,2.51.15-.95.13-2.12-.05-3.51-.51-3.91-1.47-7.3-2.86-10.18,2.62-9.84,3.36-16.17,2.22-19Z"/></g><g id="Layer1_3_MEMBER_5_MEMBER_8_FILL"><path class="cls-90" d="m854.4,1655.17l-.41,1.64h5.06c.16-5.18-.73-8.4-2.67-9.66-1.81-.78-3.39-.57-4.73.63l2.75,7.39Z"/></g><g id="Layer1_3_MEMBER_5_MEMBER_9_MEMBER_0_MEMBER_0_FILL"><path class="cls-65" d="m857.01,1650.26c.15-.99-.05-1.71-.6-2.15-2.17-1.47-4.02-1.33-5.57.44-.4.63-.44,1.71-.11,3.25l.67,1.98c-.4,2.42-.92,4.42-1.55,6l.33.28c1.65,3.52,3.73,5.54,6.24,6.05-.01-3.11-.13-5.59-.35-7.42h.05l-.38-3.31c.96-.26,1.45-1.19,1.49-2.81-.26-.84-.33-1.61-.22-2.31Z"/></g><g id="Layer1_2_MEMBER_5_MEMBER_0_MEMBER_0_MEMBER_0_FILL-2"><path class="cls-75" d="m856.75,1654.61c-.26.41-.6.67-1.02.77l.05.44c-.43-.27-.8-.58-1.12-.93.59.31,1.29.22,2.1-.27Z"/></g><g class="cls-126"><g id="Layer1_3_MEMBER_5_MEMBER_11_FILL"><path class="cls-6" d="m850.74,1688.75c2.82,1.76,6.9,2.42,12.22,1.99v-2.38l-14.53-3.66c-1.28.94-.51,2.28,2.31,4.05Z"/></g></g><g class="cls-126"><g id="Layer1_3_MEMBER_5_MEMBER_12_FILL"><path class="cls-6" d="m846.29,1665.32l1.15,15.9,3.48,3.48c.04-6.41-1.5-12.87-4.63-19.38Z"/></g></g><g id="Layer1_3_MEMBER_5_MEMBER_13_FILL"><path class="cls-36" d="m843.48,1675.43c1.83,7.24,3.02,10.66,3.59,10.28,1.59,1.67,7.84,3.37,18.75,5.12.36-1.3.87-2.06,1.55-2.28l-17.76-7.28c-1.77-12.86-3.65-19.02-5.65-18.47-2.14,1.18-2.3,5.4-.47,12.63m1.28-12.92c.75.2.79.19.11-.03-.04,0-.07.02-.11.03Z"/></g><g id="Layer1_3_MEMBER_5_MEMBER_14_FILL"><path class="cls-98" d="m853.51,1658.76c.65-8.44,1.6-12.31,2.84-11.63-3.93-2.26-7.03.39-9.31,7.95,1.24,2.38,3.4,3.61,6.47,3.68Z"/></g><g id="Layer1_3_MEMBER_5_MEMBER_15_MEMBER_0_MEMBER_0_FILL"><path class="cls-76" d="m845.86,1738.53c-1.92.09-3.16-.04-3.7-.38v5.29c-.22.51.58,1.27,2.42,2.26,2.54.87,3.23.55,2.04-.95l-1.74-2.23.98-3.99Z"/></g><g class="cls-126"><g id="Layer1_3_MEMBER_5_MEMBER_16_FILL"><path class="cls-6" d="m854.03,1709.13c1.12-2.68.95-5.81-.5-9.42l-.76,4.88,1.26,4.54Z"/></g></g></g><g id="Woman-4"><use width="126.04" height="72.77" transform="translate(843.11 1793.56) rotate(-180) scale(.36 -.36)" xlink:href="#SHADOW_PEOPLE"/><g class="cls-118"><path class="cls-53" d="m638.28,1824.62c61.14-3.17,122.28-6.35,183.41-9.54,28.59-1.31,23.4-19.84-3.75-20.9-11.58-.07-23,1.09-34.54,1.52-52.46,2.72-104.93,5.45-157.38,8.19-37.99,3.78-12.94,24.55,12.26,20.74Z"/></g><g id="Layer1_4_MEMBER_0_FILL"><path class="cls-36" d="m826.96,1811.59c-1.15.41-1.75.35-1.82-.19l-.38-3.62,3.1.65c3.51-.7,5.21-.72,5.09-.05-1.09,1.12-3.09,2.19-5.99,3.21Z"/></g><g id="Layer1_4_MEMBER_1_FILL"><path class="cls-36" d="m809.1,1806.06c-1.18.29-1.78.16-1.79-.38v-3.63l3.02.97c3.57-.33,5.25-.17,5.06.48-1.21,1-3.3,1.86-6.29,2.57Z"/></g><g id="Layer1_4_MEMBER_2_FILL"><path class="cls-88" d="m806.98,1720.03c.56-1.03,1.13-1.82,1.73-2.38,3.07-2.9,3.84-.65,2.31,6.76l-3.28,11.89,8.26,13.03-1.04,1.88c-4.54-2.56-8.84-7.03-12.9-13.41-.5-4.91,1.14-10.83,4.92-17.78Z"/></g><g id="Layer1_4_MEMBER_3_MEMBER_0_MEMBER_0_MEMBER_0_FILL"><path class="cls-65" d="m816.14,1707.75c-.2-1.53-.05-2.6.46-3.22,1.67-1.66,3.5-1.64,5.5.05.51.49.66,1.21.45,2.16-.07.31-.08.64-.03,1l.22,1.25c-.05.71-.27,1.33-.64,1.86-.38.49-.82.77-1.33.84l.16,3.31h-.05c.08,1.77.02,2.72-.18,2.86-1.83.13-3.77-.54-5.81-2.01l-.26-.3c.84-1.78,1.53-3.72,2.07-5.82l-.54-1.98Z"/></g><g id="Layer1_2_MEMBER_5_MEMBER_0_MEMBER_0_MEMBER_0_FILL-3"><path class="cls-94" d="m822,1710.97c-.33.4-.75.64-1.26.73l.04.44c-.51-.28-.94-.61-1.31-.98.7.34,1.54.27,2.53-.19Z"/></g><g id="Layer1_4_MEMBER_4_FILL"><path class="cls-17" d="m819.01,1741.52c-4.79-3.84-8.08.16-9.86,11.98l2.88,20.39c-2.28,4.74-3.91,14.39-4.89,28.96,1.31.98,2.5.95,3.58-.08,6.4-15.58,9.83-28.36,10.31-38.33.47-9.98-.2-17.62-2.01-22.92Z"/></g><g id="Layer1_4_MEMBER_4_FILL-2"><path class="cls-59" d="m819.01,1741.52c-4.79-3.84-8.08.16-9.86,11.98l2.88,20.39c-2.28,4.74-3.91,14.39-4.89,28.96,1.31.98,2.5.95,3.58-.08,6.4-15.58,9.83-28.36,10.31-38.33.47-9.98-.2-17.62-2.01-22.92Z"/></g><g class="cls-126"><g id="Layer1_4_MEMBER_5_FILL"><path class="cls-6" d="m820.17,1772.17l.35-2.37c-.95-2.1-2.07-4.95-3.36-8.54.94,6.98,1.95,10.62,3.01,10.91Z"/></g></g><g id="Layer1_4_MEMBER_6_FILL"><path class="cls-17" d="m826.03,1742.42c-11.87.22-16.52,3.17-13.97,8.84l12.24,27.16c-1.38,5.07-1.23,14.86.46,29.36,0,.41.17.72.52.92.33.18.72.24,1.17.17.46-.08.86-.27,1.18-.56.38-.34.58-.75.62-1.25,3.9-18.46,5.18-32.64,3.84-42.53-1.35-9.91-3.38-17.28-6.07-22.11Z"/></g><g id="Layer1_4_MEMBER_6_FILL-2"><path class="cls-10" d="m826.03,1742.42c-11.87.22-16.52,3.17-13.97,8.84l12.24,27.16c-1.38,5.07-1.23,14.86.46,29.36,0,.41.17.72.52.92.33.18.72.24,1.17.17.46-.08.86-.27,1.18-.56.38-.34.58-.75.62-1.25,3.9-18.46,5.18-32.64,3.84-42.53-1.35-9.91-3.38-17.28-6.07-22.11Z"/></g><g id="Layer1_4_MEMBER_7_FILL"><path class="cls-36" d="m826.86,1725.27c.54-4.18-.38-7.18-2.74-9-2.35-1.82-6.17-2.12-11.45-.9-1.84.25-3.31,1.17-4.43,2.75-.83,4.63.22,12.05,3.16,22.27l-2.5,12.85c-4.31,6.44,3.27,9.14,22.73,8.09l-4.9-24.47c-.45-3.55-.41-7.41.13-11.6Z"/></g><g id="Layer1_4_MEMBER_7_FILL-2"><path class="cls-21" d="m826.86,1725.27c.54-4.18-.38-7.18-2.74-9-2.35-1.82-6.17-2.12-11.45-.9-1.84.25-3.31,1.17-4.43,2.75-.83,4.63.22,12.05,3.16,22.27l-2.5,12.85c-4.31,6.44,3.27,9.14,22.73,8.09l-4.9-24.47c-.45-3.55-.41-7.41.13-11.6Z"/></g><g id="Layer1_4_MEMBER_8_FILL"><path class="cls-65" d="m855.37,1723.77c-.35.06-.93.25-1.75.58.46-1.77-.09-1.43-1.64,1.04l.09,2.79c2.23-1.08,3.59-2.12,4.09-3.13.5-1.01.23-1.44-.79-1.29Z"/></g><g id="Layer1_4_MEMBER_9_FILL"><path class="cls-88" d="m823.32,1715.77c.68.13,1.6.49,2.76,1.08,1.17.6,2.24,1.52,3.23,2.77l8.07,10.29,14.64-4.52c.9.48,1.39,1.18,1.46,2.07-4.31,3.99-9.31,7.12-14.98,9.38-.97,1.14-3.76-.58-8.36-5.17-4.61-4.59-7.4-8.19-8.39-10.82-.98-2.62-1.14-4.15-.47-4.6.67-.45,1.35-.61,2.03-.48Z"/></g><g id="Layer1_4_MEMBER_10_FILL"><path class="cls-88" d="m809.22,1712.15c-.04,6.94.88,11.72,2.76,14.33,2.47-7.17,5.4-11.05,8.78-11.67-3.72-3.17-7.56-4.06-11.54-2.66Z"/></g><g id="Layer1_4_MEMBER_11_FILL"><path class="cls-98" d="m820.7,1709.68c.89-.73,1.21-1.95.97-3.66.58-.39.87-.82.89-1.29.02-.43-.2-.82-.64-1.15-.44-.34-1.01-.56-1.7-.64-.76-.09-1.52,0-2.29.27-.83.44-1.41.79-1.73,1.04-.47.36-.77.78-.91,1.23-.29.94.09,2.61,1.14,5.04,1.99.16,3.42-.12,4.28-.83Z"/></g><g id="Layer1_4_MEMBER_12_FILL"><path class="cls-55" d="m817.23,1702.01c-.5-.5-1.09-.74-1.8-.74s-1.3.25-1.8.74c-.5.5-.74,1.1-.74,1.8s.25,1.3.74,1.8c.5.5,1.1.75,1.8.75s1.3-.25,1.8-.75c.5-.5.75-1.09.75-1.8s-.25-1.3-.75-1.8Z"/></g></g></g></g><g id="DBsBase"><use width="502.82" height="403.63" transform="translate(845.09 1322.77)" xlink:href="#MasterTowers"/><use width="502.82" height="403.63" transform="translate(2980.85 1148.86) rotate(-180) scale(1 -1)" xlink:href="#MasterTowers"/><use width="502.82" height="403.63" transform="translate(3318.32 1632.73) rotate(-180) scale(1 -1)" xlink:href="#MasterTowers"/></g></svg>