<?xml version="1.0" encoding="UTF-8"?><svg xmlns="http://www.w3.org/2000/svg" xmlns:xlink="http://www.w3.org/1999/xlink" viewBox="0 0 1421.25 1421.25"><defs><style>.cls-1{fill:url(#linear-gradient-12);}.cls-1,.cls-2,.cls-3,.cls-4,.cls-5,.cls-6,.cls-7,.cls-8,.cls-9,.cls-10,.cls-11,.cls-12,.cls-13,.cls-14,.cls-15,.cls-16,.cls-17,.cls-18,.cls-19,.cls-20,.cls-21{stroke-width:0px;}.cls-2{fill:url(#linear-gradient-6);}.cls-22{filter:url(#AI_DesenfoqueGaussiano_4);}.cls-3{fill:#0088a1;}.cls-4{fill:url(#New_Gradient_Swatch_2-2);}.cls-23{fill:none;stroke:#d5f2fb;stroke-miterlimit:10;stroke-width:1.53px;}.cls-5{fill:#52d6ff;}.cls-6{fill:url(#linear-gradient-11);}.cls-7{fill:url(#linear-gradient-5);}.cls-8{fill:url(#New_Gradient_Swatch_2);}.cls-24{filter:url(#AI_DesenfoqueGaussiano_4-3);}.cls-9{fill:url(#linear-gradient-2);}.cls-10{fill:url(#linear-gradient-7);}.cls-11{fill:url(#linear-gradient-3);}.cls-25{filter:url(#AI_DesenfoqueGaussiano_4-2);}.cls-12{fill:url(#linear-gradient);}.cls-12,.cls-21{opacity:.32;}.cls-13{fill:#b5eaf7;}.cls-14{fill:url(#linear-gradient-9);}.cls-15{fill:url(#radial-gradient);}.cls-16{fill:#20bcec;}.cls-17{fill:url(#linear-gradient-8);}.cls-26{filter:url(#AI_DesenfoqueGaussiano_4-4);}.cls-18{fill:url(#linear-gradient-10);}.cls-19{fill:#00a7d4;}.cls-20{fill:url(#linear-gradient-4);}.cls-21{fill:#0f0b26;}</style><radialGradient id="radial-gradient" cx="366.95" cy="749.17" fx="366.95" fy="749.17" r="300.87" gradientTransform="translate(1206.77 -709.03) rotate(42.53) scale(1 2.19)" gradientUnits="userSpaceOnUse"><stop offset=".13" stop-color="#0071b0" stop-opacity=".6"/><stop offset=".62" stop-color="#0b97c2" stop-opacity=".1"/><stop offset=".8" stop-color="rgba(24,162,205,.08)" stop-opacity=".08"/><stop offset=".96" stop-color="rgba(65,199,240,.02)" stop-opacity=".02"/><stop offset="1" stop-color="#52d6ff" stop-opacity="0"/></radialGradient><filter id="AI_DesenfoqueGaussiano_4"><feGaussianBlur stdDeviation="4"/></filter><filter id="AI_DesenfoqueGaussiano_4-2"><feGaussianBlur stdDeviation="4"/></filter><linearGradient id="linear-gradient" x1="1054.41" y1="882.65" x2="545.92" y2="1161.98" gradientUnits="userSpaceOnUse"><stop offset="0" stop-color="#0f0b26" stop-opacity=".9"/><stop offset="1" stop-color="#0f0b26" stop-opacity=".05"/></linearGradient><linearGradient id="linear-gradient-2" x1="888.62" y1="826.31" x2="992.35" y2="934.79" gradientUnits="userSpaceOnUse"><stop offset="0" stop-color="#20bcec"/><stop offset=".85" stop-color="#5ccef1"/></linearGradient><linearGradient id="linear-gradient-3" x1="570.28" y1="827.41" x2="1351.32" y2="562.99" gradientUnits="userSpaceOnUse"><stop offset=".1" stop-color="#20bcec"/><stop offset=".18" stop-color="#5ccef1"/><stop offset=".51" stop-color="#97dff5"/><stop offset=".79" stop-color="#c6edf9"/></linearGradient><linearGradient id="linear-gradient-4" x1="625.68" y1="789.78" x2="708.95" y2="797.91" gradientUnits="userSpaceOnUse"><stop offset="0" stop-color="#5ccef1"/><stop offset="1" stop-color="#c6edf9"/></linearGradient><linearGradient id="linear-gradient-5" x1="876.37" y1="742.47" x2="899.81" y2="810.17" gradientUnits="userSpaceOnUse"><stop offset="0" stop-color="#20bcec"/><stop offset=".26" stop-color="#5ccef1"/><stop offset=".45" stop-color="#97dff5"/><stop offset=".61" stop-color="#c6edf9"/></linearGradient><linearGradient id="linear-gradient-6" x1="1051.24" y1="855.57" x2="1065.25" y2="870.94" gradientUnits="userSpaceOnUse"><stop offset="0" stop-color="#0f0b26" stop-opacity="0"/><stop offset=".47" stop-color="rgba(15,11,38,.06)" stop-opacity=".06"/><stop offset=".7" stop-color="rgba(15,11,38,.26)" stop-opacity=".26"/><stop offset=".87" stop-color="rgba(15,11,38,.6)" stop-opacity=".6"/><stop offset="1" stop-color="#0f0b26"/></linearGradient><linearGradient id="linear-gradient-7" x1="295.44" y1="1151.92" x2="410.78" y2="938.16" gradientUnits="userSpaceOnUse"><stop offset="0" stop-color="#20bcec"/><stop offset="1" stop-color="#5ccef1"/></linearGradient><linearGradient id="linear-gradient-8" x1="191.01" y1="1198.61" x2="486.62" y2="650.79" gradientUnits="userSpaceOnUse"><stop offset=".22" stop-color="#20bcec"/><stop offset=".47" stop-color="#5ccef1"/><stop offset=".73" stop-color="#97dff5"/><stop offset=".95" stop-color="#c6edf9"/></linearGradient><linearGradient id="linear-gradient-9" x1="226.55" y1="959.98" x2="681.4" y2="959.98" gradientUnits="userSpaceOnUse"><stop offset="0" stop-color="#e5f7fd"/><stop offset="1" stop-color="#d5f2fb"/></linearGradient><linearGradient id="linear-gradient-10" x1="241.97" y1="959.98" x2="666.07" y2="959.98" gradientUnits="userSpaceOnUse"><stop offset="0" stop-color="#d5f2fb"/><stop offset="1" stop-color="#c6edf9"/></linearGradient><filter id="AI_DesenfoqueGaussiano_4-3"><feGaussianBlur stdDeviation="4"/></filter><linearGradient id="linear-gradient-11" x1="1171.61" y1="1036.24" x2="1223.88" y2="1036.24" gradientUnits="userSpaceOnUse"><stop offset="0" stop-color="#20bcec"/><stop offset="1" stop-color="#5ccef1"/></linearGradient><linearGradient id="New_Gradient_Swatch_2" x1="1249.78" y1="879.21" x2="721.44" y2="1326.28" gradientUnits="userSpaceOnUse"><stop offset="0" stop-color="#09c997" stop-opacity=".9"/><stop offset="1" stop-color="#61eebb" stop-opacity=".9"/></linearGradient><filter id="AI_DesenfoqueGaussiano_4-4"><feGaussianBlur stdDeviation="4"/></filter><linearGradient id="linear-gradient-12" x1="860.98" y1="1267.54" x2="905.91" y2="1267.54" xlink:href="#linear-gradient-11"/><linearGradient id="New_Gradient_Swatch_2-2" x1="711.39" y1="1195.01" x2="2133.39" y2="1195.01" xlink:href="#New_Gradient_Swatch_2"/></defs><g id="Plant"><path class="cls-16" d="M105.3,517.83c-6.53-24.29-8.93-51.58,1.35-75.28,9-21.96,31.97-38.38,55.67-33.7,41.59,8.57,61.23,60.19,77.45,95.15,44.26,103.35,91.13,205.89,133.93,309.83,3.98,13.22,5.73,25.62-8.81,26-43.22-5.85-100.02-54.55-129.44-87.91-49.26-55.12-87.46-126.04-115.64-192.83-5.57-13.39-10.66-26.95-14.43-40.96l-.08-.3Z"/><path class="cls-5" d="M248.87,210.85c-.18-25.93,1.53-52.82,12.69-76.49,17.38-37.45,59.74-43.64,86.44-12.15,38.9,48.18,23.3,122.56,15.8,179.37-11.42,76.88-14.98,154.85-12.43,232.51.82,29.76-3.27,51.27-20,11.47-23.39-61.78-42.39-125.47-58.88-189.5-11.88-47.38-22.73-96.2-23.61-144.9v-.32Z"/><path class="cls-5" d="M671.43,90.34c22.94-6.47,49.31-7.34,66.07,9.08,21.82,22.74,4.35,55.01-18.41,70.19-23.95,16.99-53.19,25.02-80.56,34.99-35.48,12.36-69.06,28.08-100.73,47.87-21.8,13-49.19,34.55-67.16,45.75-16.15,10.18-27.44,11.51-17.42-11.85,38.31-81.22,132.27-168,217.82-195.92l.38-.11Z"/><path class="cls-19" d="M692.54,107.7c-193.69,62.45-299.28,251.74-312.46,446.61-8.28,114.58,13.38,231.85,66.32,333.99,0,0-19.2,9.64-19.2,9.64-34.66-70.96-55.14-148.53-61.4-227.07-19.79-233.11,88.08-491.96,326.75-563.17h0Z"/><path class="cls-19" d="M307.84,207.78c-7.77,144.99,16.74,290.98,70.72,424.42l-15.77,6.03c-49.62-137.79-68.34-285.87-54.95-430.44,0,0-13.39,144.58,0,0Z"/><path class="cls-19" d="M157.3,473.27c36.79,118.9,104.25,227.38,193.33,312.2l-11.92,11.96c-87.17-90.88-150.03-203.72-181.41-324.16,0,0,31.38,120.44,0,0Z"/><path class="cls-16" d="M391.79,582.06c33.39-90.11,94.07-174.73,176.1-226.45,32.66-19.47,72.06-39.54,109.54-25.84,21.26,7.67,37.87,27.72,39.07,50.15,1.64,22.65-10.5,45.5-22.1,65.1-83.94,135.96-176.06,265.98-267.58,396.87-10.07,14.25-26.77,36.91-43.52,36.5-27.39-2.64-23.51-61.52-23.68-81.98.51-72.35,7-146.06,32.06-214.07l.11-.29Z"/><path class="cls-19" d="M588.28,440.56c-84.34,80.42-139.75,186.67-173.31,297.22-2.98,10.01-5.55,20.16-7.67,30.39-14.58,68.92-9.68,139.53-8.79,209.6.36,28.3.03,56.77-2.24,85.26l-16.81-1.55c2.92-27.67,3.96-55.63,4.32-83.71.85-70.48-2.15-142.4,14.39-211.63,2.44-10.41,5.32-20.72,8.64-30.89,36.46-110.34,94.84-216.06,181.47-294.69h0Z"/><path class="cls-15" d="M737.5,99.42c-16.76-16.42-43.13-15.55-66.07-9.08l-.38.11c-85.55,27.92-179.52,114.71-217.82,195.92-2.21,5.15-3.38,9.09-3.7,12.01-53.55,86.71-82.02,191.18-85.64,295.2-4.6-12.93-8.93-25.96-12.99-39.08.57-5.66.68-12.76.47-20.41-2.55-77.66,1.02-155.63,12.43-232.51,7.5-56.81,23.1-131.19-15.8-179.37-26.7-31.49-69.07-25.31-86.44,12.15-11.16,23.68-12.87,50.56-12.69,76.49v.32c.89,48.7,11.74,97.52,23.62,144.9,16.49,64.03,35.49,127.71,58.88,189.5,2.52,6,4.76,10.6,6.74,14,7.13,26.52,15.36,52.77,24.68,78.65l1.06-.4c.37,11.06,1.01,22.08,1.94,33.05.35,4.36.76,8.72,1.19,13.08-4.48,31.96-6.5,64.37-7.14,96.62-38.94-92.59-80.55-184.26-120.08-276.58-16.22-34.96-35.86-86.57-77.45-95.15-23.7-4.67-46.66,11.74-55.67,33.7-10.28,23.7-7.88,50.99-1.35,75.28l.08.3c3.76,14.02,8.86,27.57,14.43,40.96,28.18,66.79,66.37,137.71,115.64,192.83,28.47,32.28,82.58,78.92,125.21,87.21,2.05,19.59,7.68,37.84,22.64,39.28.51.01,1.03,0,1.54-.03-1.1,33.16-.66,66.43-1.06,99.39-.36,28.08-1.4,56.04-4.32,83.71l16.81,1.55c2.27-28.49,2.6-56.96,2.24-85.26-.42-34.59-1.85-69.18-1.44-103.68,4.91-3.02,9.64-7.34,14.03-12.11,4.98,12.15,10.32,24.16,16.09,35.97,0,0,19.2-9.64,19.2-9.64-7.57-14.61-14.48-29.54-20.78-44.71.41-.57.81-1.14,1.2-1.69,91.52-130.9,183.64-260.91,267.58-396.87,11.6-19.6,23.74-42.45,22.1-65.1-1.19-22.43-17.8-42.48-39.07-50.15-37.48-13.71-76.88,6.36-109.54,25.84-82.03,51.72-142.71,136.34-176.1,226.45l-.11.29c-5.03,13.64-9.29,27.51-12.93,41.56-.78-23.21-.35-46.46,1.32-69.6,5.94-87.89,30.69-174.65,73.84-249.14,3.84.11,9.84-2.62,16.73-6.96,17.98-11.2,45.37-32.76,67.16-45.75,31.66-19.8,65.24-35.52,100.73-47.87,27.37-9.97,56.61-18,80.56-34.99,22.75-15.18,40.23-47.45,18.41-70.19Z"/></g><g id="Key"><g class="cls-22"><path class="cls-21" d="M306.17,1285.88h0c-9.48-5.47-9.14-19.27.6-24.26l155.03-73.57c13.74-7.06,30.11-6.79,43.61.72l1.97,1.09c12.07,6.71,11.79,24.16-.48,30.49l-141.45,66.94c-18.71,9.65-41.04,9.11-59.27-1.41Z"/></g><g class="cls-25"><path class="cls-12" d="M512.77,1174.14h0c-9.48-5.47-9.14-19.27.6-24.26l504.14-274.04c13.74-7.06,30.11-6.79,43.61.72l1.97,1.09c12.07,6.71,11.79,24.16-.48,30.49l-490.55,267.41c-18.71,9.65-41.04,9.11-59.27-1.41Z"/></g><path class="cls-9" d="M894.25,810.48s-42.77-1.28-42.06-.54l80.1,82.67c1.55,1.6,3.26,2.88,5.1,3.85l44.57,23.59c-1.84-.97-86.86-109.12-87.71-109.57Z"/><path class="cls-16" d="M688.44,921.74l-75.8,17.91,44.07,45.49c1.55,1.6,3.26,2.89,5.11,3.86l44.57,23.59c-1.85-.98-17.95-90.85-17.95-90.85Z"/><path class="cls-11" d="M1110.71,603.31c-6.67-3.53-15.05-4.03-24.6-.83l-452.88,153.14,68.06,77.92s447.31-210.17,453.99-206.64l-44.57-23.59Z"/><path class="cls-20" d="M1171.6,656.3c-2.41-24.72-18.42-37.79-40.93-30.23l-452.88,153.14c5.09,30.89,4.93,66.6-1.32,106.07-4.13,26.1-10.68,52.25-19.26,77.95l44.07,45.49c12.52,12.94,35.64,5.18,53.9-18.1l116.74-148.75c8.41-10.73,19.07-14.31,24.84-8.34l80.1,82.67c12.53,12.92,35.65,5.16,53.9-18.1l95.45-121.61c21.41-27.29,37-60.84,43.38-93.11-10.21-7.41-6.28-24.27,2.01-27.08Z"/><path class="cls-7" d="M1171.61,656.29l-573.83,192.78v27.66l571.82-193.36c-10.23-7.41-6.29-24.3,2.01-27.09Z"/><path class="cls-23" d="M1158.65,630.24c-7.12-5.41-16.74-6.79-28-3.01l-411.89,139.28"/><line class="cls-23" x1="1169.6" y1="683.38" x2="725.53" y2="833.54"/><path class="cls-2" d="M961.66,900.51l15.21,15.7c12.53,12.92,35.65,5.16,53.9-18.1l87.81-111.88c-69.06-9.99-120.3,60.9-156.92,114.28Z"/><path class="cls-10" d="M400.92,913.76l-44.57-23.59c15.08,7.98,22.65,29.24,18.1,57.96-6.89,43.53-39.01,87.73-71.74,98.71-11.13,3.74-20.9,3.15-28.67-.96l4.08,69.81c-33.43,109.41,299.97-108.15,122.8-201.93Z"/><path class="cls-17" d="M563.94,644.05c-29.19-15.45-65.86-17.65-107.66-3.61-122.88,41.26-243.48,207.21-269.37,370.66-17.08,107.85,11.34,187.67,67.96,217.64l44.57,23.59c-56.62-29.97-28.91-170.29-11.83-278.14,25.89-163.45,291.72-321.99,320.9-306.54l-44.57-23.59Z"/><path class="cls-14" d="M231.48,1034.69c25.89-163.45,146.49-329.41,269.37-370.66,93.21-31.3,160.96,18.15,176.94,115.19,5.09,30.89,4.93,66.6-1.32,106.07-4.13,26.1-10.68,52.25-19.26,77.96-45.19,135.3-146.84,258.03-250.1,292.71-122.88,41.26-201.51-57.81-175.62-221.26ZM419.02,971.72c6.89-43.53-14.05-69.91-46.77-58.92-32.73,10.99-64.84,55.19-71.74,98.71-6.89,43.53,14.04,69.91,46.77,58.92,32.72-10.99,64.84-55.19,71.74-98.71"/><path class="cls-18" d="M353.91,1249.95c-30.44,0-56.66-11.87-75.84-34.32-32.01-37.48-43.46-102.55-31.42-178.54,12.15-76.7,46.09-156.44,95.57-224.53,49.02-67.45,107.09-115.03,163.52-133.98,16.91-5.68,33.17-8.56,48.32-8.56,28.1,0,51.87,9.65,70.65,28.67,19.06,19.31,32.18,48.02,37.94,83.02,4.97,30.17,4.52,64.21-1.34,101.17-3.92,24.76-10.2,50.16-18.66,75.49-21.49,64.34-57.16,127.92-100.43,179.03-43.47,51.34-93.19,88.27-140,103.99-16.91,5.68-33.16,8.56-48.31,8.56ZM386.42,894.95c-6.14,0-12.55,1.11-19.05,3.29-38.17,12.82-74.2,61.51-82.01,110.86-4.16,26.24.39,48.69,12.79,63.21,8.79,10.29,21.21,15.95,34.97,15.96h0c6.14,0,12.55-1.11,19.05-3.29,38.17-12.81,74.19-61.51,82.01-110.86,4.16-26.24-.39-48.69-12.79-63.21-8.79-10.29-21.21-15.95-34.97-15.95Z"/><path class="cls-13" d="M367.37,898.24c2.32-.78,4.6-1.41,6.89-1.9-5.53.2-11.59.5-17.07,3.24-94.99,47.48-101.31,190.03-34.26,190.03h.02c3.94,0,8.01-.46,12.13-1.38-.66.03-1.3.05-1.95.05h-.02c-13.77,0-26.19-5.66-34.96-15.96-12.4-14.52-16.95-36.96-12.79-63.21,7.81-49.35,43.84-98.05,82.01-110.86ZM662.65,781.71c-5.77-35.01-18.89-63.71-37.94-83.02-18.79-19.02-42.55-28.67-70.65-28.67-7.11,0-14.46.63-22.01,1.9,4.01-.38,7.95-.57,11.83-.57,28.1,0,51.86,9.65,70.65,28.67,19.05,19.31,32.17,48.01,37.94,83.02,4.96,30.16,4.51,64.2-1.34,101.16-3.93,24.76-10.21,50.16-18.66,75.5-21.49,64.34-57.16,127.92-100.43,179.03-43.47,51.34-93.2,88.27-140.01,103.99-8.96,3.01-17.74,5.23-26.26,6.65,11.67-1.09,23.87-3.76,36.44-7.98,46.81-15.72,96.54-52.65,140.01-103.99,43.27-51.11,78.94-114.69,100.43-179.03,8.46-25.34,14.74-50.74,18.66-75.5,5.85-36.96,6.29-71,1.34-101.16Z"/></g><g id="FaceID"><g class="cls-24"><path class="cls-21" d="M1324.89,952.43c15.46,8.93,19.29,23.07,7.83,34.47l-115.09,114.59c-13.61,13.56-43.68,18.13-67.14,10.19l-198.21-67.03c-3.72-1.26-7.06-2.76-9.98-4.45-15.47-8.93-19.29-23.07-7.83-34.47l115.08-114.6c13.63-13.56,43.68-18.13,67.14-10.19l198.22,67.03c3.73,1.26,7.06,2.76,9.98,4.45Z"/></g><path class="cls-6" d="M927.82,1004.13l-.07,15.81c-.02,7.49,5.08,14.85,14.48,20.28,2.92,1.69,6.26,3.19,9.98,4.45l198.21,67.03c23.46,7.94,53.53,3.37,67.14-10.19l115.09-114.59c4.49-4.47,6.64-9.36,6.65-14.2l.07-15.81c-.01,4.83-411.68,92.99-411.55,47.23Z"/><path class="cls-3" d="M1324.89,936.62c15.46,8.93,19.29,23.07,7.83,34.47l-115.09,114.59c-13.61,13.56-43.68,18.13-67.14,10.19l-198.21-67.03c-3.72-1.26-7.06-2.76-9.98-4.45-15.47-8.93-19.29-23.07-7.83-34.47l115.08-114.6c13.63-13.56,43.68-18.13,67.14-10.19l198.22,67.03c3.73,1.26,7.06,2.76,9.98,4.45Z"/><path class="cls-8" d="M1145.45,911.62c2.19,1.26,2.73,3.27,1.11,4.88-1.92,1.92-6.18,2.56-9.5,1.44l-24.07-8.13c-6.64-2.24-15.15-.95-19,2.89l-13.97,13.91c-1.93,1.92-6.18,2.57-9.51,1.44-.53-.18-1-.39-1.42-.63-2.19-1.26-2.73-3.27-1.11-4.88l13.97-13.91c7.71-7.68,24.74-10.26,38.02-5.77l24.06,8.14c.53.18,1,.39,1.42.63M1257.96,950.12c-1.65-.95-3.54-1.8-5.65-2.52l-24.06-8.14c-3.32-1.12-7.57-.47-9.5,1.45-1.62,1.62-1.08,3.62,1.11,4.88.41.24.89.45,1.42.63l24.05,8.13c1.06.36,2,.78,2.83,1.26,4.38,2.53,5.46,6.53,2.22,9.77l-13.97,13.91c-1.62,1.62-1.08,3.62,1.11,4.88.41.24.89.45,1.42.63,3.32,1.13,7.58.48,9.51-1.44l13.97-13.91c6.49-6.46,4.33-14.47-4.43-19.53M1030.01,970.41c-.41-.24-.89-.45-1.42-.63-3.32-1.12-7.58-.48-9.49,1.44l-13.97,13.91c-6.49,6.46-4.34,14.46,4.42,19.52,1.66.96,3.55,1.81,5.67,2.52l24.06,8.14c3.32,1.13,7.58.48,9.51-1.44,1.62-1.61,1.08-3.61-1.12-4.88-.41-.24-.89-.45-1.42-.63l-24.06-8.14c-1.05-.36-2-.78-2.82-1.26-4.38-2.53-5.46-6.54-2.22-9.77l13.97-13.91c1.62-1.61,1.08-3.61-1.12-4.88M1198.42,1027.36c-.41-.24-.89-.45-1.42-.63-3.32-1.12-7.58-.48-9.51,1.44l-13.96,13.91c-3.86,3.84-12.38,5.13-19.02,2.89l-24.06-8.14c-3.32-1.12-7.58-.48-9.51,1.44-1.62,1.62-1.08,3.62,1.11,4.88.41.24.89.45,1.41.63l24.06,8.14c13.29,4.5,30.31,1.91,38.03-5.78l13.97-13.91c1.62-1.62,1.08-3.62-1.11-4.88M1122.27,938.72c-.41-.24-.89-.45-1.42-.63-3.32-1.13-7.58-.48-9.51,1.44l-6.99,6.96c-1.62,1.61-1.07,3.62,1.12,4.88.41.24.89.45,1.41.63,3.32,1.13,7.58.48,9.51-1.44l6.98-6.95c1.62-1.62,1.08-3.62-1.11-4.88M1200.46,965.16c-.41-.24-.88-.45-1.41-.63-3.32-1.13-7.59-.47-9.51,1.44l-6.99,6.96c-1.62,1.62-1.08,3.62,1.11,4.88.41.24.89.45,1.42.63,3.32,1.13,7.58.48,9.51-1.44l6.99-6.96c1.62-1.61,1.07-3.62-1.11-4.89M1161.36,951.94c-.41-.24-.89-.45-1.42-.63-3.32-1.12-7.57-.47-9.5,1.45l-16.23,16.15c-2.64,2.64-7.63,4.17-12.9,3.97l-2.65-.1c-3.83-.15-7.14,1.53-7.38,3.76-.12,1.2.68,2.32,2.05,3.11,1.15.67,2.71,1.1,4.46,1.17l2.66.1c10.51.4,20.5-2.68,25.78-7.94l16.23-16.16c1.62-1.61,1.08-3.61-1.12-4.88M1154.28,1003.12c-1.58-.91-3.89-1.37-6.25-1.11-16.66,1.87-34.31-1.77-46.23-8.66-5.36-3.1-9.56-6.84-12-11.04-.36-.61-.94-1.15-1.68-1.57-1.81-1.04-4.54-1.47-7.12-.98-3.65.71-5.61,2.99-4.39,5.1,3.14,5.42,8.52,10.23,15.37,14.19,15.11,8.72,37.4,13.27,58.74,10.87,3.76-.43,6.22-2.54,5.47-4.72-.28-.82-.96-1.53-1.91-2.08"/></g><g id="TouchID"><g class="cls-26"><path class="cls-21" d="M944.75,1103.64c.75.43,1.47.88,2.18,1.34l151.9,99.7c17.97,11.8,16.09,29.77-4.23,40.15l-171.64,87.66c-19.49,9.97-48.91,9.3-67.13-1.23-.75-.43-1.48-.88-2.2-1.35l-151.9-99.69c-17.98-11.8-16.09-29.78,4.23-40.16l171.63-87.66c19.52-9.97,48.92-9.29,67.15,1.23Z"/></g><path class="cls-1" d="M689.4,1195.5l-.07,15.81c-.02,6.72,4.05,13.48,12.34,18.92l151.9,99.69c.71.47,1.44.92,2.2,1.35,18.23,10.52,47.64,11.19,67.13,1.23l171.64-87.66c10.95-5.59,16.54-13.39,16.56-21.23l.07-15.81c-.02,7.85-421.79-5.57-421.77-12.29Z"/><path class="cls-3" d="M944.75,1087.83c.75.43,1.47.88,2.18,1.34l151.9,99.7c17.97,11.8,16.09,29.77-4.23,40.15l-171.64,87.66c-19.49,9.97-48.91,9.3-67.13-1.23-.75-.43-1.48-.88-2.2-1.35l-151.9-99.69c-17.98-11.8-16.09-29.78,4.23-40.16l171.63-87.66c19.52-9.97,48.92-9.29,67.15,1.23Z"/><path class="cls-4" d="M898.51,1128.92c-1.2-.69-2.93-1.06-4.73-.9h0c-37.84,3.47-71.84,15.31-94.83,33.03-1.67,1.28-1.4,3.06.52,4.17.18.1.37.2.58.29,2.42,1.06,5.87.78,7.69-.62h0c10.52-8.13,23.67-15,38.69-20.23,15.03-5.26,31.69-8.78,49.05-10.34,3-.27,5.04-1.9,4.57-3.63-.19-.69-.75-1.3-1.55-1.76M974.06,1175.49c-9-5.2-19.91-9.28-32.08-11.88-21.42-4.7-45.25-3.98-65.67,1.96-2.05.6-4.08,1.24-6.04,1.93-42.94,15.02-56.69,47.39-30.71,72.34l1.73,1.66c2.15,2.05,4.5,4.1,7.21,6.25.18.14.37.27.57.39,1.88,1.09,4.89,1.25,7.11.32,2.45-1.04,2.98-3.03,1.2-4.45-2.52-2.01-4.72-3.9-6.68-5.79l-1.73-1.66c-22.85-21.95-10.76-50.41,26.99-63.61,1.75-.61,3.53-1.18,5.31-1.7,17.72-5.14,38.38-5.76,56.95-1.68,10.66,2.28,20.21,5.86,28.1,10.41,7.03,4.06,12.73,8.89,16.7,14.28l1.09,1.5c3.33,4.55.39,9.81-6.89,12.36l-.62.23c-8.31,2.84-18.68,1.94-25.25-1.85-1.17-.68-2.22-1.44-3.11-2.3l-1.74-1.66c-1.47-1.41-3.21-2.68-5.14-3.8-10.81-6.24-27.92-7.7-41.54-2.95-.96.33-1.87.69-2.76,1.07-14.01,6.35-17.5,17.8-8.09,26.58l1.1,1.05c3.78,3.59,8.24,6.84,13.24,9.73,18.51,10.69,44.47,16.32,71.18,14.95,3-.24,5.08-1.85,4.65-3.6-.18-.71-.75-1.33-1.57-1.81-1.06-.61-2.54-.97-4.14-.93-23.39,1.21-46.16-3.73-62.38-13.1-4.38-2.53-8.28-5.37-11.58-8.51l-1.1-1.06c-6.51-5.96-4.24-13.78,5.24-18.17,9.26-4,22.02-3.34,29.99,1.26.79.45,1.53.95,2.21,1.48.46.36.89.72,1.29,1.1l1.74,1.66c1.37,1.31,2.98,2.48,4.77,3.52,10.05,5.8,25.92,7.18,38.64,2.82l.68-.24c11.94-4.19,16.75-12.82,11.3-20.3l-1.09-1.5c-4.54-6.16-11.05-11.67-19.07-16.31M959.14,1187.5c-19.93-11.51-49.88-14.3-74.1-5.86-29.5,10.32-38.93,32.54-21.09,49.69l1.74,1.66c4.97,4.75,10.88,9.11,17.59,12.98,12.17,7.02,26.93,12.47,43.3,15.87,1.55.32,3.27.22,4.69-.27,2.59-.91,3.42-2.86,1.85-4.37-.23-.22-.51-.43-.83-.61-.57-.33-1.26-.59-2.03-.75-14.84-3.08-28.22-8.02-39.24-14.38-6.07-3.51-11.43-7.44-15.92-11.75l-1.74-1.66c-14.71-14.13-6.93-32.45,17.38-40.96,19.76-6.89,44.29-4.54,60.71,4.95,3.23,1.87,6.15,4.01,8.66,6.41.24.23.52.43.83.61,1.75,1.01,4.52,1.24,6.72.48,2.59-.91,3.42-2.86,1.85-4.37-3-2.88-6.5-5.44-10.37-7.68M998.28,1222.94c-1.75-1.01-4.52-1.24-6.72-.48-19.77,6.87-44.58,4.77-60.27-4.29-2.79-1.61-5.29-3.44-7.42-5.48l-1.74-1.66c-.24-.23-.52-.43-.83-.61-1.75-1.01-4.51-1.25-6.72-.47-2.59.91-3.42,2.86-1.85,4.37l1.73,1.65c2.61,2.49,5.67,4.73,9.08,6.71,19.19,11.08,49.52,13.65,73.71,5.24,2.59-.91,3.42-2.86,1.85-4.37-.24-.23-.52-.43-.83-.61M963.5,1149.19c-.51-.3-1.14-.54-1.85-.7-34.81-8.04-74.05-6.24-106.13,4.87-32.09,11.13-53.21,30.4-56.97,51.99-.2,1.01.43,1.96,1.58,2.62.85.49,1.97.82,3.24.91,3.01.21,5.75-1.04,6.09-2.78v-.06c3.43-19.6,22.59-37.1,51.74-47.22,29.14-10.09,64.77-11.71,96.38-4.41,2.83.66,6.03-.14,7.15-1.77.83-1.22.27-2.57-1.24-3.44"/></g></svg>