<svg id="ARTWORK" xmlns="http://www.w3.org/2000/svg" xmlns:xlink="http://www.w3.org/1999/xlink" viewBox="0 0 2500 2500"><defs><style>.cls-1{filter:url(#AI_DesenfoqueGaussiano_4);}.cls-10,.cls-11,.cls-2{fill:#0f0b26;}.cls-3{fill:#f6fbfb;}.cls-4{fill:#78c2bd;}.cls-5{fill:url(#Degradado_sin_nombre_4);}.cls-6{fill:#c8e6e4;}.cls-7{fill:#ebf6f5;}.cls-8{fill:url(#linear-gradient);}.cls-9{fill:#a7d7d3;}.cls-10{opacity:0.36;}.cls-11{opacity:0.16;}.cls-12{fill:#85d8d1;fill-opacity:0.7;}.cls-13{fill:#229b92;}.cls-14{fill:url(#radial-gradient);}.cls-15{fill:url(#linear-gradient-2);}.cls-16{fill:#7dd1ed;}.cls-17{fill:url(#linear-gradient-3);}.cls-18{fill:#1f96dc;}.cls-19{fill:#4bbcec;}.cls-20{fill:url(#linear-gradient-4);}.cls-21{fill:none;stroke:#229b92;stroke-miterlimit:10;stroke-width:7px;}</style><filter id="AI_DesenfoqueGaussiano_4" name="AI_DesenfoqueGaussiano_4"><feGaussianBlur stdDeviation="4"/></filter><linearGradient id="Degradado_sin_nombre_4" x1="16777.81" y1="497.89" x2="16922.39" y2="285.18" gradientTransform="matrix(-1, 0, 0, 1, 17336.92, 0)" gradientUnits="userSpaceOnUse"><stop offset="0" stop-color="#fff" stop-opacity="0"/><stop offset="0.12" stop-color="#fafefd" stop-opacity="0.02"/><stop offset="0.27" stop-color="#edf9f8" stop-opacity="0.1"/><stop offset="0.42" stop-color="#d7f2f0" stop-opacity="0.22"/><stop offset="0.58" stop-color="#b9e8e4" stop-opacity="0.38"/><stop offset="0.75" stop-color="#91dcd6" stop-opacity="0.6"/><stop offset="0.92" stop-color="#62ccc4" stop-opacity="0.86"/><stop offset="1" stop-color="#48c4ba"/></linearGradient><linearGradient id="linear-gradient" x1="16831.29" y1="58.08" x2="17063.82" y2="460.84" gradientTransform="matrix(-1, 0, 0, 1, 17336.92, 0)" gradientUnits="userSpaceOnUse"><stop offset="0" stop-color="#e4f3f2" stop-opacity="0"/><stop offset="0.11" stop-color="#e4f3f2" stop-opacity="0.01"/><stop offset="0.19" stop-color="#e4f3f2" stop-opacity="0.06"/><stop offset="0.28" stop-color="#e4f3f2" stop-opacity="0.13"/><stop offset="0.36" stop-color="#e4f3f2" stop-opacity="0.24"/><stop offset="0.44" stop-color="#e3f3f2" stop-opacity="0.37"/><stop offset="0.52" stop-color="#e3f2f1" stop-opacity="0.54"/><stop offset="0.59" stop-color="#e3f2f1" stop-opacity="0.73"/><stop offset="0.67" stop-color="#e2f2f1" stop-opacity="0.96"/><stop offset="0.68" stop-color="#e2f2f1"/><stop offset="0.73" stop-color="#def0ef"/><stop offset="0.77" stop-color="#d3ebe9"/><stop offset="0.81" stop-color="#bfe2df"/><stop offset="0.85" stop-color="#a7d7d3"/><stop offset="0.93" stop-color="#8eccc8"/><stop offset="1" stop-color="#78c2bd"/></linearGradient><radialGradient id="radial-gradient" cx="493.75" cy="310.1" r="305.43" gradientTransform="matrix(0.99, -0.15, 0.05, 0.32, -9.59, 284.74)" gradientUnits="userSpaceOnUse"><stop offset="0" stop-color="#0f0b26" stop-opacity="0.4"/><stop offset="0.18" stop-color="#0f0b26" stop-opacity="0.29"/><stop offset="0.82" stop-color="#0f0b26" stop-opacity="0"/></radialGradient><linearGradient id="linear-gradient-2" x1="649.44" y1="441.15" x2="335.82" y2="268.88" gradientUnits="userSpaceOnUse"><stop offset="0" stop-color="#0f0b26" stop-opacity="0.3"/><stop offset="0.02" stop-color="#0f0b26" stop-opacity="0.29"/><stop offset="0.91" stop-color="#0f0b26" stop-opacity="0"/></linearGradient><linearGradient id="linear-gradient-3" x1="886.99" y1="1091.03" x2="796.88" y2="1154.64" gradientUnits="userSpaceOnUse"><stop offset="0.15" stop-color="#5bc2ee" stop-opacity="0"/><stop offset="0.87" stop-color="#004986" stop-opacity="0.3"/></linearGradient><linearGradient id="linear-gradient-4" x1="788.4" y1="1131.07" x2="966.64" y2="1436.52" xlink:href="#linear-gradient-3"/><symbol id="shadow-elements" data-name="shadow-elements" viewBox="0 0 817.9 492.77"><rect class="cls-14" x="130.73" width="687.18" height="492.77"/><g class="cls-1"><path class="cls-15" d="M496.33,387.3,164.19,419s-159-27.14-96.3-115.41S392.38,50.12,515,108.43,580.22,359.61,496.33,387.3Z"/></g></symbol><symbol id="box-icons" data-name="box-icons" viewBox="0 0 286 286"><g class="cls-1"><rect class="cls-10" x="27.47" y="27.47" width="234.73" height="234.73" rx="20.75"/></g><g class="cls-1"><rect class="cls-11" x="23.47" y="23.47" width="234.73" height="234.73" rx="20.75"/></g><rect class="cls-6" x="24.47" y="23.47" width="234.73" height="234.73" rx="20.75"/></symbol><symbol id="button_server" data-name="button server" viewBox="0 0 29.85 34.91"><path class="cls-12" d="M17.43,1.71C14-.29,10.83-.48,8.57.84L3.63,3.71C5.9,2.39,9,2.58,12.5,4.58c6.88,4,12.44,13.59,12.41,21.5,0,3.93-1.39,6.69-3.63,8l4.93-2.87c2.24-1.3,3.63-4.06,3.64-8C29.87,15.31,24.31,5.68,17.43,1.71Z"/><ellipse class="cls-13" cx="12.46" cy="18.89" rx="10.17" ry="17.56" transform="translate(-7.8 8.82) rotate(-30.16)"/></symbol><symbol id="Server" data-name="Server" viewBox="0 0 820 582"><g class="cls-1"><path class="cls-2" d="M77.81,344.59,416.23,149.2c7.36-4.25,13.32-14.57,13.29-23l-.19-69.13c0-4.19-1.5-7.15-3.9-8.54l322.1,187.18c2.39,1.39,3.88,4.35,3.89,8.54l.19,69.13c0,8.45-5.93,18.77-13.28,23L399.9,531.77c-3.7,2.13-7,2.33-9.48.92L68.33,345.51C70.75,346.92,74.11,346.72,77.81,344.59Z"/></g><path class="cls-3" d="M81.81,328.59,420.23,133.2c7.36-4.25,13.32-14.57,13.29-23l-.19-69.13c0-4.19-1.5-7.15-3.9-8.54l322.1,187.18c2.39,1.39,3.88,4.35,3.89,8.54l.19,69.13c0,8.45-5.93,18.77-13.28,23L403.9,515.77c-3.7,2.13-7,2.33-9.48.92L72.33,329.51C74.75,330.92,78.11,330.72,81.81,328.59Z"/><path class="cls-4" d="M73.86,324.21,412.28,128.82c7.36-4.24,13.32-14.57,13.29-23l-.19-69.13c0-4.2-1.5-7.15-3.9-8.55L743.57,215.31c2.4,1.4,3.89,4.35,3.9,8.55l.19,69.13c0,8.44-5.93,18.77-13.28,23L396,511.39c-3.7,2.14-7.05,2.33-9.48.92L64.38,325.13C66.8,326.54,70.16,326.35,73.86,324.21Z"/><path class="cls-5" d="M73.86,324.21,412.28,128.82c7.36-4.24,13.32-14.57,13.29-23l-.19-69.13c0-4.2-1.5-7.15-3.9-8.55L743.57,215.31c2.4,1.4,3.89,4.35,3.9,8.55l.19,69.13c0,8.44-5.93,18.77-13.28,23L396,511.39c-3.7,2.14-7.05,2.33-9.48.92L64.38,325.13C66.8,326.54,70.16,326.35,73.86,324.21Z"/><path class="cls-6" d="M403.58,403.77c-13.23,7.64-23.93,26.17-23.89,41.39l.2,69.13c0,15.21,10.81,21.35,24.05,13.71L742.36,332.61c13.24-7.65,23.94-26.18,23.9-41.39l-.2-69.13c0-15.22-10.81-21.36-24-13.71ZM390.53,508.15l-.2-69.14c0-8.44,5.94-18.77,13.29-23L742,220.61c7.36-4.25,13.35-.82,13.38,7.62l.19,69.13c0,8.45-5.93,18.77-13.28,23L403.9,515.77c-7.35,4.24-13.35.82-13.37-7.62"/><path class="cls-7" d="M81.49,216.59,419.92,21.2c6.66-3.85,12.7-4.2,17.06-1.67L759.07,206.71c-4.36-2.53-10.4-2.18-17.06,1.67L403.58,403.77c-13.23,7.64-23.93,26.17-23.89,41.39l.2,69.13c0,7.56,2.69,12.88,7,15.38L64.79,342.49c-4.3-2.5-7-7.82-7-15.38L57.6,258C57.56,242.76,68.26,224.23,81.49,216.59Z"/><path class="cls-8" d="M81.49,216.59,419.92,21.2c6.66-3.85,12.7-4.2,17.06-1.67L759.07,206.71c-4.36-2.53-10.4-2.18-17.06,1.67L403.58,403.77c-13.23,7.64-23.93,26.17-23.89,41.39l.2,69.13c0,7.56,2.69,12.88,7,15.38L64.79,342.49c-4.3-2.5-7-7.82-7-15.38L57.6,258C57.56,242.76,68.26,224.23,81.49,216.59Z"/><g id="buttons"><use width="29.85" height="34.91" transform="matrix(-1, 0, 0, 1, 443.82, 427.82)" xlink:href="#button_server"/><use width="29.85" height="34.91" transform="matrix(-1, 0, 0, 1, 488.21, 403.96)" xlink:href="#button_server"/><use width="29.85" height="34.91" transform="matrix(-1, 0, 0, 1, 532.6, 379.45)" xlink:href="#button_server"/></g><path class="cls-9" d="M711.32,286.61l-89.58,51.71c-1.8,1-3.26-.06-3.26-2.47h0a7.81,7.81,0,0,1,3.26-6.23l89.58-51.72c1.81-1,3.27.06,3.27,2.47h0A7.83,7.83,0,0,1,711.32,286.61Z"/></symbol></defs><use width="817.9" height="492.77" transform="translate(381.23 1161.26)" xlink:href="#shadow-elements"/><g id="Plant_3" data-name="Plant 3"><path class="cls-16" d="M826.36,878.8q45.63,45.84,82.55,138.56Q983.81,1183,979,1390.75l-10.56-35.06L828.17,1127.86Q769.69,1033,719.69,940.14q-45.84-85,7.66-96.18Q780.77,833,826.36,878.8Z"/><path class="cls-17" d="M826.36,878.8q45.63,45.84,82.55,138.56Q983.81,1183,979,1390.75l-10.56-35.06L828.17,1127.86Q769.69,1033,719.69,940.14q-45.84-85,7.66-96.18Q780.77,833,826.36,878.8Z"/><path class="cls-18" d="M786.52,924.05l-4.86-5.26.16-.14,14.84,15.92q8.61,9.82,15.9,19.35l9.26,12.34q5.31,7.22,9.74,14l15.16,24,11,19.54,8.93,17.34q.87,1.59,2.45,4.89l13.57,29.62,19.65,50.72,3.83,11.24q7,20.84,13.9,45.36l11.5,44.4q5.28,22.38,9.23,41.93,3.53,17.45,7.08,37.85l7.75,51.46,3.28,27.08-6.56.81-6.46-46.28q-2.61-17.28-5-32-3-18.26-6.64-37.65-4.58-23.7-8.64-41.86l-7.92-33.08q-.2-.71-2.93-11.29-6.22-23.58-13.17-45.27l-10.37-30.75-11.74-30.59-32.43-68q-2.32-4.15-2.46-4.32L830,981.27q-3.13-5-9.43-14.11l-24.46-32.08-6-7-2.47-2.83A5.83,5.83,0,0,1,786.52,924.05Z"/><path class="cls-19" d="M645.32,1022q35.88-11.52,74.06,2.94,49.39,13.59,92.3,59.21c91,73.65,205.13,351.32,168.32,464.57L952.16,1588q-156.54-54.29-226.44-249.9a741.94,741.94,0,0,1-41.62-145.71q-5-28.39-23.58-44.73a245.43,245.43,0,0,1-46.59-55.05Q586.48,1039.86,645.32,1022Z"/><path class="cls-18" d="M738.52,1100.5q-3.79-3-7.28-5.29c-2.46-1.68-4.89-3.26-7.27-4.73l-21.05-10.92q-7.12-3.15-12.55-5t-10.92-3.65q-5-1.59-8.94-2.55l-12.27-2.94.11-.25,21.48,4.46q4.93,1.29,11.11,3.23,5.63,1.8,12.89,4.61c2.49,1,4.81,1.94,7,2.93,1.53.7,4,1.83,7.27,3.38a169.47,169.47,0,0,1,15.07,8.55q3.66,2.24,7.65,5.15,3.08,2.18,7.63,5.86A160.11,160.11,0,0,1,763.29,1117q3.9,4.21,7,7.94l6.24,8,.36.58q3.21,4.47,6.17,9.17l2.56,4.21.13.16.07.19,21.33,41.17q.89,1.8,2.43,5.4a452.65,452.65,0,0,1,17,44.85q1.25,3.71,3.59,11.54l5.16,18.81,14.4,60.39q3.66,11.73,6.94,20.56,3.71,9.95,7.8,19.24l4.21,9c1.42,3.06,2.85,5.94,4.29,8.67l8.26,15.18,10.29,16.62,7.82,11.31.27.33.22.41,2.37,3.15.07.19.11.1,0-.06,25.69,32.9-5.15,4.25-26-30.46-13.64-18.42q-5-7.21-9.43-14.68a319.22,319.22,0,0,1-18.06-34.67,314.66,314.66,0,0,1-15-41.06l-1.53-5.44-.25-.69-8.55-39.13q-1.71-9-5.13-22.93L815,1228.37l-15.22-39.77-21.44-43q-3.13-5.2-5.77-9a165.68,165.68,0,0,0-12.73-16.35L753,1113q-3.69-3.65-7.13-6.62Q742.05,1103.14,738.52,1100.5Z"/><path id="Dark_gradient" data-name="Dark gradient" class="cls-20" d="M613.93,1092.58q-27.45-52.72,31.39-70.63,35.88-11.52,74.06,2.94,36.43,10,69.33,37.49-36.32-61.56-69-122.24-45.84-85,7.66-96.18,53.42-11,99,34.84t82.55,138.56Q983.81,1183,979,1390.75l-10.56-35.06-12.63-20.51c27.39,82.07,40.4,163.69,24.21,213.49L952.16,1588q-156.54-54.29-226.44-249.9a741.94,741.94,0,0,1-41.62-145.71q-5-28.39-23.58-44.73A245.43,245.43,0,0,1,613.93,1092.58Z"/></g><g id="icon-datawarehouse"><path class="cls-21" d="M1181.71,977.65H1238a44.25,44.25,0,0,1,44.25,44.25v380.24"/><use width="286" height="286" transform="translate(978.65 845.01) scale(0.93)" xlink:href="#box-icons"/><path class="cls-13" d="M1147.08,948.45v6.31c0,7-17,12.63-37.88,12.63s-37.89-5.67-37.89-12.63v-6.31c0-7,17-12.63,37.89-12.63S1147.08,941.49,1147.08,948.45Zm0,16.87v8.38c0,7-17,12.63-37.88,12.63s-37.89-5.67-37.89-12.63v-8.38c8.14,5.72,23,8.38,37.89,8.38S1138.94,971,1147.08,965.32Zm0,18.94v8.39c0,7-17,12.63-37.88,12.63s-37.89-5.68-37.89-12.63v-8.39c8.14,5.73,23,8.39,37.89,8.39S1138.94,990,1147.08,984.26Zm0,18.94v8.39c0,6.95-17,12.63-37.88,12.63s-37.89-5.68-37.89-12.63v-8.39c8.14,5.73,23,8.39,37.89,8.39S1138.94,1008.93,1147.08,1003.2Z"/></g><g id="icon-devices"><path class="cls-21" d="M1463,1095H1406.7a44.26,44.26,0,0,0-44.25,44.26v380.24"/><use width="286" height="286" transform="translate(1417.79 962.31) scale(0.93)" xlink:href="#box-icons"/><path class="cls-13" d="M1621.61,1089.79v6.32a3.17,3.17,0,0,1-3.16,3.15H1593.7l9.32,9.33a3.24,3.24,0,0,1,0,4.44l-4.49,4.49a3.24,3.24,0,0,1-4.44,0l-17.86-17.86-4.49-4.49a3.24,3.24,0,0,1,0-4.44l22.35-22.35a3.24,3.24,0,0,1,4.44,0l4.49,4.49a3.13,3.13,0,0,1,0,4.45l-9.32,9.32h24.75A3.18,3.18,0,0,1,1621.61,1089.79Zm-94.63.94-4.48-4.49-17.85-17.86a3.2,3.2,0,0,0-2.23-.88,3.13,3.13,0,0,0-2.22.88l-4.49,4.49a3.23,3.23,0,0,0,0,4.45l9.32,9.32h-24.76a3.18,3.18,0,0,0-3.16,3.15v6.32a3.17,3.17,0,0,0,3.16,3.15H1505l-9.32,9.33a3.11,3.11,0,0,0,0,4.44l4.49,4.49a3.13,3.13,0,0,0,2.22.88,3.2,3.2,0,0,0,2.23-.88l17.85-17.86,4.48-4.49a3.21,3.21,0,0,0,0-4.44Zm47-47-17.86-17.85-4.49-4.48a3.19,3.19,0,0,0-4.44,0l-4.49,4.48-17.86,17.85a3.19,3.19,0,0,0-.88,2.23,3.13,3.13,0,0,0,.88,2.22l4.49,4.48a3.1,3.1,0,0,0,4.45,0l9.32-9.31v24.76a3.17,3.17,0,0,0,3.15,3.15h6.32a3.16,3.16,0,0,0,3.15-3.15V1043.3l9.33,9.31a3.19,3.19,0,0,0,4.44,0l4.49-4.48a3.09,3.09,0,0,0,.88-2.22A3.14,3.14,0,0,0,1573.93,1043.68Zm0,94.09-4.49-4.48a3.09,3.09,0,0,0-4.44,0l-9.33,9.31v-24.76a3.17,3.17,0,0,0-3.15-3.15h-6.32a3.18,3.18,0,0,0-3.15,3.15v24.76l-9.32-9.31a3.23,3.23,0,0,0-4.45,0l-4.49,4.48a3.24,3.24,0,0,0,0,4.44l17.86,17.86,4.49,4.49a3.21,3.21,0,0,0,4.44,0l22.35-22.35a3.24,3.24,0,0,0,0-4.44Z"/></g><g id="icon-computer"><line class="cls-21" x1="1324.64" y1="1366.39" x2="1324.64" y2="767.38"/><use width="286" height="286" transform="translate(1191.99 558.77) scale(0.93)" xlink:href="#box-icons"/><path class="cls-13" d="M1373.7,713.64a7.91,7.91,0,0,1-7.89,7.89H1339c0,4.2,3.16,7.75,3.16,9.47a3.18,3.18,0,0,1-3.16,3.16h-25.26a3.18,3.18,0,0,1-3.15-3.16c0-1.82,3.15-5.17,3.15-9.47h-26.83a7.91,7.91,0,0,1-7.89-7.89V660a7.91,7.91,0,0,1,7.89-7.9h78.93a7.91,7.91,0,0,1,7.89,7.9ZM1367.38,660a1.62,1.62,0,0,0-1.57-1.59h-78.93a1.63,1.63,0,0,0-1.58,1.59v41a1.62,1.62,0,0,0,1.58,1.58h78.93a1.62,1.62,0,0,0,1.57-1.58Z"/></g><use width="820" height="582" transform="translate(724.51 1209.83)" xlink:href="#Server"/></svg>