<svg xmlns="http://www.w3.org/2000/svg" xmlns:xlink="http://www.w3.org/1999/xlink" viewBox="0 0 2500 2500"><defs><linearGradient id="a7d0b42d-0549-49be-8d17-f8d44f413e9f" y1="217.18" x2="581.25" y2="217.18" gradientUnits="userSpaceOnUse"><stop offset="0.74" stop-color="#d4ecf6"/><stop offset="0.82" stop-color="#b7d4f4"/><stop offset="0.99" stop-color="#b7d4f4" stop-opacity="0.9"/></linearGradient><linearGradient id="fc2dbaf2-4983-4784-8ef7-e9eed5126f35" x1="2.01" y1="126.95" x2="639.28" y2="217.13" gradientUnits="userSpaceOnUse"><stop offset="0" stop-color="#fafbfc"/><stop offset="0.55" stop-color="#f5f8fa"/><stop offset="0.99" stop-color="#e5f4fa"/><stop offset="0.99" stop-color="#d4ecf6" stop-opacity="0.9"/></linearGradient><linearGradient id="bbe7257e-bdde-4ba1-a527-241abf8c9d81" x1="-48.62" y1="22.79" x2="107.87" y2="248.82" gradientUnits="userSpaceOnUse"><stop offset="0" stop-color="#5d7586" stop-opacity="0.3"/><stop offset="1" stop-color="#90aac1" stop-opacity="0"/></linearGradient><linearGradient id="ab422c3d-2bc8-475f-b4ad-8051e9818ac8" x1="2.01" y1="126.95" x2="639.28" y2="217.13" xlink:href="#fc2dbaf2-4983-4784-8ef7-e9eed5126f35"/><linearGradient id="ba4bb62d-f8f0-49c2-9ccb-4111d9d8ff45" x1="692.38" y1="1155.25" x2="544.97" y2="1195.82" gradientTransform="matrix(0.98, -0.4, -0.01, 1.02, -8.45, 190.32)" gradientUnits="userSpaceOnUse"><stop offset="0" stop-color="#c2ebe8" stop-opacity="0.1"/><stop offset="0.05" stop-color="#8fe0d9" stop-opacity="0.1"/><stop offset="0.15" stop-color="#6ad8cf" stop-opacity="0.1"/><stop offset="0.87" stop-color="#43a39b" stop-opacity="0.3"/></linearGradient><linearGradient id="ac6755f0-2fdb-4df0-b580-bf0d213145f3" x1="514.2" y1="1322.47" x2="500" y2="1020.31" gradientTransform="matrix(0.97, -0.42, 0.02, 1.02, -33.62, 209.04)" xlink:href="#ba4bb62d-f8f0-49c2-9ccb-4111d9d8ff45"/><linearGradient id="af917913-d395-4f6a-85ab-84ea5b85401a" x1="711.51" y1="2256.55" x2="945.4" y2="1859.67" gradientUnits="userSpaceOnUse"><stop offset="0.13" stop-color="#5d7586" stop-opacity="0.3"/><stop offset="0.85" stop-color="#90aac1" stop-opacity="0.1"/><stop offset="0.96" stop-color="#b5cede" stop-opacity="0.1"/><stop offset="1" stop-color="#d4ecf6" stop-opacity="0.1"/></linearGradient><linearGradient id="f9e5f8a5-e076-4369-a50f-80214784a0cd" x1="809.41" y1="1925.95" x2="969.09" y2="1884.2" gradientUnits="userSpaceOnUse"><stop offset="0.13" stop-color="#5d7586" stop-opacity="0.3"/><stop offset="0.69" stop-color="#90aac1" stop-opacity="0"/></linearGradient><linearGradient id="e940150a-bb5d-40d3-bc16-5647e8ecb06c" x1="993.46" y1="1734.42" x2="1167.05" y2="1694" xlink:href="#f9e5f8a5-e076-4369-a50f-80214784a0cd"/><linearGradient id="bb93535b-64f4-4f73-840e-7e6319b3b95a" x1="773.18" y1="1211.48" x2="880.08" y2="1209.71" gradientUnits="userSpaceOnUse"><stop offset="0" stop-color="#010d1a" stop-opacity="0"/><stop offset="1" stop-color="#010d1a"/></linearGradient><linearGradient id="b4ab8595-b891-4f28-8238-0f4ea8824e2d" x1="893.88" y1="1589.5" x2="1029.93" y2="946.36" xlink:href="#bb93535b-64f4-4f73-840e-7e6319b3b95a"/><linearGradient id="a5111bbe-6b72-4267-8a81-3db923d66238" x1="881.99" y1="1427.88" x2="980.93" y2="661.94" gradientUnits="userSpaceOnUse"><stop offset="0" stop-color="#48c4ba" stop-opacity="0"/><stop offset="1" stop-color="#48c4ba"/></linearGradient><linearGradient id="b7ea366f-121b-4ef2-ae19-8fc07042a4d5" x1="927.78" y1="1345.11" x2="1039.98" y2="1228.49" xlink:href="#bb93535b-64f4-4f73-840e-7e6319b3b95a"/><linearGradient id="a8bfee98-ab97-4970-b933-8201fcc0aafe" x1="961.04" y1="1498.04" x2="993.51" y2="1608.03" xlink:href="#bb93535b-64f4-4f73-840e-7e6319b3b95a"/><linearGradient id="e41fcbda-e0fd-4b7f-a875-290e76d26eef" x1="991.43" y1="1046.99" x2="829.77" y2="873.83" gradientUnits="userSpaceOnUse"><stop offset="0.09" stop-color="#fff" stop-opacity="0"/><stop offset="1" stop-color="#fff"/></linearGradient><symbol id="a23c894d-35c4-44e4-ac58-83c95377ed2a" data-name="stair 2" viewBox="0 0 581.25 367.74"><polygon points="0 98.76 0 367.74 135.14 273.22 135.14 13.49 0 98.76" fill="url(#bbe7257e-bdde-4ba1-a527-241abf8c9d81)"/><path d="M581.25,264.8v28c0,5.94-4.35,12.2-12.82,17.1l-80.18,46.29c-15.5,8.95-38.93,9.92-52.35,2.17L9.05,111.89C3,108.38,0,103.68,0,98.76v-28C0,75.71,581.25,269.83,581.25,264.8Z" fill="url(#a7d0b42d-0549-49be-8d17-f8d44f413e9f)"/><path d="M458.63,333.58c-8.47,0-16.19-1.76-21.73-4.95L10,82.18c-5.17-3-8-7-8-11.39,0-5.43,4.3-11,11.81-15.36L94,9.13C101.85,4.6,112.28,2,122.61,2c8.47,0,16.19,1.76,21.73,5L571.19,253.4c5.2,3,8.06,7,8.06,11.4,0,4.52-3,9.18-8.41,13.13a33.92,33.92,0,0,1-3.42,2.23l-80.17,46.3C479.4,331,469,333.58,458.63,333.58Z" fill="url(#ab422c3d-2bc8-475f-b4ad-8051e9818ac8)"/><path d="M122.61,0V4c8.13,0,15.49,1.67,20.73,4.69L570.19,255.13c3.22,1.86,7.06,5.05,7.06,9.67,0,3.86-2.69,7.95-7.62,11.54a33,33,0,0,1-3.2,2.09l-80.18,46.29c-7.56,4.36-17.62,6.86-27.62,6.86-8.12,0-15.49-1.66-20.73-4.68L11.17,80.52l-.12-.06c-3.22-1.86-7-5-7-9.67s3.94-9.66,10.81-13.63L95,10.86C102.56,6.5,112.62,4,122.61,4V0m0,0C112.33,0,101.47,2.51,93,7.4L12.81,53.7C4.34,58.59,0,64.85,0,70.79c0,4.92,3,9.62,9.05,13.13l.16.09L435.9,330.36c6.08,3.51,14.21,5.22,22.73,5.22,10.29,0,21.14-2.5,29.62-7.39l80.18-46.3a37.71,37.71,0,0,0,3.59-2.34c6.11-4.45,9.23-9.72,9.23-14.75s-3-9.62-9.06-13.13L145.34,5.23C139.26,1.72,131.13,0,122.61,0Z" fill="#fafbfc"/><path d="M122.61,0V2c8.47,0,16.19,1.76,21.73,5L571.19,253.4c5.2,3,8.06,7,8.06,11.4,0,4.52-3,9.18-8.43,13.15a35.79,35.79,0,0,1-3.39,2.21l-80.18,46.3c-7.85,4.53-18.28,7.12-28.62,7.12-8.47,0-16.19-1.76-21.73-4.95L10.19,82.27l-.14-.08c-5.19-3-8-7-8-11.4,0-5.43,4.3-11,11.81-15.36L94,9.13C101.85,4.6,112.28,2,122.61,2V0m0,0C112.33,0,101.47,2.51,93,7.4L12.81,53.7C4.34,58.59,0,64.85,0,70.79c0,4.92,3,9.62,9.05,13.13l.16.09L435.9,330.36c6.08,3.51,14.21,5.22,22.73,5.22,10.29,0,21.14-2.5,29.62-7.39l80.18-46.3a37.71,37.71,0,0,0,3.59-2.34c6.11-4.45,9.23-9.72,9.23-14.75s-3-9.62-9.06-13.13L145.34,5.23C139.26,1.72,131.13,0,122.61,0Z" fill="#fff"/></symbol><symbol id="b222fe6c-94a4-4ae3-a8c4-f3480443263b" data-name="stair" viewBox="0 0 581.25 363.56"><path d="M581.25,264.8v28c0,5.94-4.35,12.2-12.82,17.1l-80.18,46.29c-15.5,8.95-38.93,9.92-52.35,2.17L9.05,111.89C3,108.38,0,103.68,0,98.76v-28C0,75.71,581.25,269.83,581.25,264.8Z" fill="url(#a7d0b42d-0549-49be-8d17-f8d44f413e9f)"/><path d="M458.63,333.59c-8.47,0-16.19-1.77-21.73-5L10,82.18c-5.17-3-8-7-8-11.39,0-5.43,4.3-11,11.81-15.36L94,9.13C101.85,4.6,112.28,2,122.61,2c8.47,0,16.19,1.76,21.73,5L571.19,253.4c5.2,3,8.06,7,8.06,11.4,0,4.52-3,9.18-8.41,13.13a35.75,35.75,0,0,1-3.42,2.23l-80.17,46.3C479.4,331,469,333.59,458.63,333.59Z" fill="url(#fc2dbaf2-4983-4784-8ef7-e9eed5126f35)"/><path d="M122.61,0V4c8.13,0,15.49,1.67,20.73,4.69L570.19,255.13c3.22,1.86,7.06,5.05,7.06,9.67,0,3.86-2.69,7.95-7.62,11.54a33,33,0,0,1-3.2,2.09l-80.18,46.29c-7.56,4.36-17.62,6.86-27.62,6.86-8.12,0-15.49-1.66-20.73-4.68L11.17,80.52l-.12-.06c-3.22-1.86-7-5-7-9.67s3.94-9.66,10.81-13.63L95,10.86C102.56,6.5,112.62,4,122.61,4V0m0,0C112.33,0,101.47,2.51,93,7.4L12.81,53.7C4.34,58.59,0,64.85,0,70.79c0,4.92,3,9.62,9.05,13.13l.16.09L435.9,330.36c6.08,3.51,14.21,5.22,22.73,5.22,10.29,0,21.14-2.5,29.62-7.39l80.18-46.3a37.71,37.71,0,0,0,3.59-2.34c6.11-4.45,9.23-9.72,9.23-14.75s-3-9.62-9.06-13.13L145.34,5.23C139.26,1.72,131.13,0,122.61,0Z" fill="#fafbfc"/><path d="M122.61,0V2c8.47,0,16.19,1.76,21.73,5L571.19,253.4c5.2,3,8.06,7,8.06,11.4,0,4.52-3,9.18-8.43,13.15a35.79,35.79,0,0,1-3.39,2.21l-80.18,46.3c-7.85,4.53-18.28,7.12-28.62,7.12-8.47,0-16.19-1.76-21.73-4.95L10.19,82.27l-.14-.08c-5.19-3-8-7-8-11.4,0-5.43,4.3-11,11.81-15.36L94,9.13C101.85,4.6,112.28,2,122.61,2V0m0,0C112.33,0,101.47,2.51,93,7.4L12.81,53.7C4.34,58.59,0,64.85,0,70.79c0,4.92,3,9.62,9.05,13.13l.16.09L435.9,330.36c6.08,3.51,14.21,5.22,22.73,5.22,10.29,0,21.14-2.5,29.62-7.39l80.18-46.3a37.71,37.71,0,0,0,3.59-2.34c6.11-4.45,9.23-9.72,9.23-14.75s-3-9.62-9.06-13.13L145.34,5.23C139.26,1.72,131.13,0,122.61,0Z" fill="#fff"/></symbol></defs><g id="efa29306-27c8-4682-b127-b5b69d9fe05f" data-name="plant"><g id="a8374090-08c6-4612-955b-2d745e9c78a6" data-name="Plant11"><g id="f8bdceb6-668d-42b0-87a6-173c2a9938e1" data-name="Layer1 8 MEMBER 1 FILL"><path d="M565.88,1043.52c9.59,245.7.22,631.85,110,734q189.23-368.71,178.88-802.85T628.88,411.51Q557.72,833.18,565.88,1043.52Z" fill="#c2ebe8"/></g><g id="fd93236c-d20f-4af4-9a9c-a2d93da56ead" data-name="Layer1 8 MEMBER 1 FILL"><path d="M565.88,1043.52c9.59,245.7-11,608.06,110,734q189.23-368.71,178.88-802.85T628.88,411.51Q557.72,833.18,565.88,1043.52Z" fill="url(#ba4bb62d-f8f0-49c2-9ccb-4111d9d8ff45)"/></g><path d="M675.86,1777.54q4.38-8.57,8.67-17.14,51-436.94-63.82-1299.59,80.22,704.45,47.86,1288.65Q672.2,1763.54,675.86,1777.54Z" fill="#6ad8cf"/><g id="afc2549d-454e-45c2-b6cd-428437103a82" data-name="Layer1 8 MEMBER 2 FILL"><path d="M330,1061.85q-50.52,208.2-3,397.52t241.29,294.45q88.79,64.46,98.54,183.76c14-67.2,29.4-151.07,23.5-263.79s-54-228.63-121.69-335.46Q483.78,1172,330,1061.85Z" fill="#91e2db"/></g><g id="e9e7e56d-ac51-48b4-a07a-f481fa9f5f62" data-name="Layer1 8 MEMBER 2 FILL"><path d="M330,1061.85q-50.52,208.2-3,397.52t241.29,294.45q88.79,64.46,98.54,183.76c14-67.2,29.4-151.07,23.5-263.79s-54-228.63-121.69-335.46Q483.78,1172,330,1061.85Z" fill="url(#ac6755f0-2fdb-4df0-b580-bf0d213145f3)"/></g><path d="M321.55,1059.12h0l-.13.06.13-.06m158.23,356,.14.39q-104.49-165-134.59-274.27,33.35,137.09,120.7,288.86a.31.31,0,0,1,.14.24q137.1,209.49,158.09,380.12a231.43,231.43,0,0,1,26.71,51.9Q668.57,1671.83,479.78,1415.14Z" fill="#6ad8cf"/></g></g><g id="aebbc6b0-afdf-42cd-bfa2-732b349c573a" data-name="Stairs"><use width="581.25" height="367.74" transform="translate(774.56 1509.98)" xlink:href="#a23c894d-35c4-44e4-ac58-83c95377ed2a"/><g id="b6a26467-b3d6-4647-8593-3cf04b1a10ec" data-name="stairFloor"><g opacity="0.16"><path d="M678.7,1787c8.52,0,16.65,1.72,22.73,5.23l426.85,246.44c6.08,3.51,9.06,8.21,9.06,13.13s-3.12,10.3-9.23,14.75a37.71,37.71,0,0,1-3.59,2.34l-80.18,46.3c-8.48,4.89-19.33,7.4-29.61,7.4-8.52,0-16.66-1.72-22.74-5.23L565.3,1871l-.16-.09c-6.08-3.51-9-8.21-9-13.13,0-5.94,4.34-12.2,12.81-17.09l80.19-46.3c8.48-4.89,19.33-7.4,29.61-7.4m0-12h0c-12.9,0-25.54,3.2-35.61,9l-80.19,46.3c-11.95,6.9-18.81,16.92-18.81,27.48,0,9.43,5.49,18,15,23.52l.06,0,.06,0,.1.06L986,2127.72c7.75,4.48,17.69,6.84,28.74,6.84,12.9,0,25.54-3.2,35.61-9l80.18-46.31a46.41,46.41,0,0,0,4.71-3.07c9.1-6.64,14.11-15.31,14.11-24.41,0-9.42-5.49-18-15.06-23.52L707.43,1781.81c-7.74-4.47-17.68-6.84-28.72-6.84Z" fill="#85d8d1"/></g><g opacity="0.18"><path d="M678.7,1787c8.52,0,16.65,1.72,22.73,5.23l426.85,246.44c6.08,3.51,9.06,8.21,9.06,13.13s-3.12,10.3-9.23,14.75a37.71,37.71,0,0,1-3.59,2.34l-80.18,46.3c-8.48,4.89-19.33,7.4-29.61,7.4-8.52,0-16.66-1.72-22.74-5.23L565.3,1871l-.16-.09c-6.08-3.51-9-8.21-9-13.13,0-5.94,4.34-12.2,12.81-17.09l80.19-46.3c8.48-4.89,19.33-7.4,29.61-7.4m0-6h0c-11.69,0-23.58,3-32.61,8.21l-80.19,46.3c-10,5.8-15.81,13.92-15.81,22.28,0,7.33,4.28,13.84,12,18.33l0,0h0l.13.08L989,2122.53c6.84,3.94,15.74,6,25.74,6,11.69,0,23.58-3,32.61-8.2l80.18-46.3a44.3,44.3,0,0,0,4.16-2.71c7.52-5.49,11.66-12.44,11.66-19.58,0-7.33-4.28-13.83-12.06-18.32L704.43,1787c-6.83-4-15.73-6-25.72-6Z" fill="#333a45"/></g><path d="M1137.34,2051.77c0,5-3.12,10.3-9.23,14.75a37.71,37.71,0,0,1-3.59,2.34l-80.18,46.3c-15.5,8.94-38.93,9.91-52.35,2.17L565.3,1871l-.16-.09c-6.08-3.51-9-8.21-9-13.13,0-5.94,4.34-12.2,12.81-17.09l80.19-46.3c15.49-8.94,38.92-9.92,52.34-2.17l426.85,246.44C1134.36,2042.15,1137.34,2046.85,1137.34,2051.77Z" fill="none" stroke="#333a45" stroke-width="2.5" opacity="0.47"/><path d="M1217.72,2052.28c0,5-3.12,10.3-9.23,14.75a37.71,37.71,0,0,1-3.59,2.34l-80.18,46.3c-16,7.94-106.44,6.23-106.44,6.23s-18.78-2.22-22-4.06L569.61,1871.49l-.16-.09c-6.08-3.51-9.05-8.21-9.05-13.13,0-5.94,4.34-12.2,12.81-17.09l156.26-46.3c15.49-8.94,38.92-9.92,52.34-2.17l426.85,246.44C1214.74,2042.66,1217.72,2047.36,1217.72,2052.28Z" fill="url(#af917913-d395-4f6a-85ab-84ea5b85401a)"/><use width="581.25" height="363.56" transform="translate(556.09 1757.6)" xlink:href="#b222fe6c-94a4-4ae3-a8c4-f3480443263b"/></g><use width="581.25" height="367.74" transform="translate(1648.41 519.5)" xlink:href="#a23c894d-35c4-44e4-ac58-83c95377ed2a"/><use width="581.25" height="367.74" transform="translate(1429.95 767.12)" xlink:href="#a23c894d-35c4-44e4-ac58-83c95377ed2a"/><use width="581.25" height="367.74" transform="translate(993.02 1262.36)" xlink:href="#a23c894d-35c4-44e4-ac58-83c95377ed2a"/><use width="581.25" height="367.74" transform="translate(1211.48 1014.74)" xlink:href="#a23c894d-35c4-44e4-ac58-83c95377ed2a"/></g><g id="f8a1fc27-8437-4749-9a41-3c5e71257f2b" data-name="man"><g id="ac450045-8b33-4f80-9e5d-4b0b6ad40bc7" data-name="man"><polygon points="813.66 1920.55 970.61 1920.55 910.45 1884.09 828.95 1884.09 813.66 1920.55" fill="url(#f9e5f8a5-e076-4369-a50f-80214784a0cd)"/><polygon points="993.02 1722.3 1274.55 1722.3 1180.73 1670.25 1040.82 1670.07 993.02 1722.3" fill="url(#e940150a-bb5d-40d3-bc16-5647e8ecb06c)"/><path d="M940.16,1013.42q-8,26.33,2.33,41.95l-32.44,43.35,65.28,41.22,7.85-54.45q13.62-.93,19.61-3.66,6.59-15.49,8-28.92l-4.86-8.84q1.14-13.5-4.39-42.62Q973.8,986,940.16,1013.42Z" fill="#e8ceb7"/><path d="M973.34,1030.9q-.54-7.77,10-6.91,4.65,6.18,9,20.54,6.06-3.46,3.85-7.58-4.21-7.89,8.51-15.88,7.29-1.52,4.39-15.69-7.9-39.15-35.43-30.32a104.47,104.47,0,0,0,4.85,15.09q-30.54,2.15-41.69,15.09-5.37,8,.54,37.76,2.65,4.85-.54,19.82,15.09,4.11,25.33,0l24.93-13.43Q973.93,1039.09,973.34,1030.9Z" fill="#5f89ad"/><path d="M682.21,1389.78l28.85-23.4-39.49-10a622,622,0,0,0-35.37,58.77,150.06,150.06,0,0,0,1.07,35.37q4,4.68,19.48,1.46c-.65-4.74-2.79-7.18-6.45-7.31l17.15-21.74Z" fill="#d2a57d"/><path d="M653.09,1428.67l3-13,9.79-11.49c7.46-12.66,6-29.12-2.21-36.37L646,1397.22a119.74,119.74,0,0,0,0,38.56C647.55,1435.71,649.93,1433.33,653.09,1428.67Z" fill="#e8ceb7"/><path d="M850.81,1206.62,830,1102q-34.92,33.9-93.41,149.12L659.94,1373q6.21.74,12.36,9.77a27.07,27.07,0,0,1,4.72,19.48Q779.91,1305.78,850.81,1206.62Z" fill="#06467b"/><path d="M986.3,1717.34q.13,9.21,25.46,1.33t42.49-29.79q17.07-21.89-13.43-18.81l-14.43,1.73q-6,18.35-44.28,23.33Q984.14,1705.93,986.3,1717.34Z" fill="#29669b"/><path d="M1028.12,1460.38q-55.5-49.22-107.64-65.28L853.8,1393q-27,114.53-17.35,118.81,109.26,15.23,126.38,13-8,19.59,17.55,160.89c.59,3.12,1.17,6.26,1.73,9.44q38.24-5,44.28-23.33c.08-.85.14-1.69.2-2.53Q1044.94,1472.67,1028.12,1460.38Z" fill="#5f89ad"/><path d="M816.7,1890.39a27.48,27.48,0,0,1-12.76-3.19q-.45,13.2-.73,27.06,1.17,7.17,18.61,5.91,39.4-1.5,56.58-9.3t14.76-12.77q-2.48-4.95-12.3-8.18l-29.05-11.36Q838.3,1888,816.7,1890.39Z" fill="#29669b"/><path d="M948.47,1398.35,811.19,1382.4q.21,42.87-29.06,26.66,14.43,66,33.78,95.8,11,110.46,23.26,167.93-28.39,62.36-34.63,199.52-.31,7.34-.6,14.89a27.48,27.48,0,0,0,12.76,3.19q21.6-2.43,35.11-11.83l-.67-.27q1.17-2.74,2.26-5.45,61.17-144.9,68.21-192.8Q949.66,1562,948.47,1398.35Z" fill="#7499b8"/><path d="M830.6,1164.14l-17.09-26.46Q787.8,1202.75,790,1284.34l47.53-59.51Z" fill="url(#bb93535b-64f4-4f73-840e-7e6319b3b95a)"/><path d="M1028.12,1460.38q-40.71-36.11-79.61-54.36c0-2.55,0-5.1,0-7.67l-28-3.25h-.08L811.19,1382.4q.21,42.87-29.06,26.66,14.43,66,33.78,95.8,11,110.46,23.26,167.93-28.39,62.36-34.63,199.52-.31,7.34-.6,14.89a27.48,27.48,0,0,0,12.76,3.19q21.6-2.43,35.11-11.83l-.67-.27q1.17-2.74,2.26-5.45,61.17-144.9,68.21-192.8,16.57-69.76,22.94-155.44c8.79.58,14.9.65,18.28.2q-8,19.59,17.55,160.89c.59,3.12,1.17,6.26,1.73,9.44q38.24-5,44.28-23.33c.08-.85.14-1.69.2-2.53Q1044.94,1472.67,1028.12,1460.38Z" fill="url(#b4ab8595-b891-4f28-8238-0f4ea8824e2d)"/><path d="M980.05,1131.83q4.11-21.74,1.13-24.67-38.7-31.9-61.76-29.78l-13.16,17.55Z" fill="#06467b"/><path d="M1017.75,1156.36q-58.85-52.92-96.6-66.22t-50.33-7.78q-30.78,8.45-42.15,20.88t-15.16,34.44V1285.2l-38.22,121.46q6.08,22.56,39,38a245.22,245.22,0,0,1,20.88-30.25,298.91,298.91,0,0,0,2.06,39.16q24.8,8,59.3,13.5,56.81-.55,98.46-41.22l-17-124.52Q1014.38,1238.84,1017.75,1156.36Z" fill="#225b8b"/><path d="M1130.5,1302.09c-.51-1.87-2.2-2.67-5-2.4q-3.42,5.19-8.58,12.24l-10.5,8.17-1.46,5.59q0,5,16.08-.93l7.58-7.38Q1131.25,1304.94,1130.5,1302.09Z" fill="#d2a57d"/><path d="M1130.57,1305.68l-1.07,7.31-14.22,5.58h-17.69l7.91,37.1a230.11,230.11,0,0,0,33.11-17.82q15.73-10.17,13.43-18.94t-7.58-13.23Z" fill="#e8ceb7"/><path d="M1014,1153q-37.47-8.12-44.81,55.32,2.6,57,8.45,86.89,9.11,46.53,31.31,76.45,1.8,2.4,16.22,1.27a312.56,312.56,0,0,0,33.18-4.86q46.94-9.16,63.09-20.14-2.57-30.66-17.42-29.59l-61.3-5.25q-3.49-85.81-10-127.58A51.44,51.44,0,0,0,1014,1153Z" fill="#06467b"/><path d="M1104,1318.37l-61.3-5.25q-3.49-85.83-10-127.58a50.91,50.91,0,0,0-15-29.16v0l-.51-.46c-1-1-2-1.87-3.11-2.77q-17.45-15.51-33-27.44c1.71-10.68,1.73-16.87,0-18.53q-38.7-31.9-61.76-29.78l-7.31,9.74q-30.3-9.54-41.29-4.76-30.78,8.45-42.15,20.88c-.13.14-.25.29-.38.44q-34.63,35-91.7,147.41L659.94,1373q6.21.74,12.36,9.77a27.07,27.07,0,0,1,4.72,19.48q77.26-72.42,136.49-146.38v29.37l-38.22,121.46q6.08,22.56,39,38a245.22,245.22,0,0,1,20.88-30.25,298.91,298.91,0,0,0,2.06,39.16q24.8,8,59.3,13.5,56.81-.55,98.46-41.22l-17-124.52c.23-.4.46-.8.68-1.2q9.29,43.2,30.3,71.53,1.8,2.4,16.22,1.27a312.56,312.56,0,0,0,33.18-4.86q46.94-9.16,63.09-20.14Q1118.9,1317.3,1104,1318.37Z" fill="url(#a5111bbe-6b72-4267-8a81-3db923d66238)"/><path d="M970.74,1374q9.24,10.65,18.49,9.84l-15.36-114.35-3.13-71.67Q961.86,1275.11,970.74,1374Z" fill="url(#b7ea366f-121b-4ef2-ae19-8fc07042a4d5)"/><path d="M979.52,1076.84q4.28,4.8,3.66,8.65,5.88.72,19.61-3.66Q987.85,1082.23,979.52,1076.84Z" fill="#d2a57d"/><path d="M973.74,975.06a104.47,104.47,0,0,0,4.85,15.09q-30.54,2.15-41.69,15.09-5.37,8,.54,37.76,2.65,4.85-.54,19.82a48.16,48.16,0,0,0,17.62,1.86,58.24,58.24,0,0,1-9.84-1.86q4.19-10.85.53-19.82-8.18-22.12-.53-37.76,11.18-13,43.75-9.37-5.25-13.64-5.59-15.49,10.08-1.33,17,1.59Q990.43,969.7,973.74,975.06Z" fill="#7499b8"/><path d="M962.83,1524.8q-1.47,3.6-1.86,11.3,13.41-3.57,19.28-11.3Z" fill="url(#a8bfee98-ab97-4970-b933-8201fcc0aafe)"/><path d="M1009.17,1005.38q-4-19.86-13.08-27.37L996,978c-.38-.32-.78-.62-1.18-.9a3.62,3.62,0,0,0-.32-.22c-.33-.23-.66-.44-1-.64-.13-.08-.27-.17-.41-.24-.34-.2-.68-.37-1-.54l-.38-.19c-.46-.21-.92-.4-1.39-.58l-.51-.16c-.32-.11-.63-.21-1-.3l-.66-.17c-.29-.06-.57-.13-.86-.18l-.71-.13-.88-.12-.71-.07c-.35,0-.71,0-1.08,0l-.54,0c-.54,0-1.08,0-1.63,0l-.62,0-1.13.11-.7.1-1.12.19-.7.14c-.42.08-.83.18-1.25.29l-.61.15c-.62.16-1.25.34-1.89.55a104.47,104.47,0,0,0,4.85,15.09q-30.54,2.15-41.69,15.09-5.37,8,.54,37.76,2.65,4.85-.54,19.82c.75.2,1.47.38,2.2.55q.33.09.66.15l1.54.34.67.13,1.76.3.33.06c.68.1,1.36.19,2,.26l.49.05,1.53.12.54,0,1.67.06h.24a35.38,35.38,0,0,0,3.9-.19h0a28.71,28.71,0,0,0,7.72-1.86l24.93-13.43q-13.23-10.31-13.82-18.49-.54-7.77,10-6.91,4.65,6.18,9,20.54,6-3.46,3.85-7.58-4.21-7.89,8.51-15.88Q1012.07,1019.55,1009.17,1005.38Z" fill="url(#e41fcbda-e0fd-4b7f-a875-290e76d26eef)"/></g></g></svg>