<svg xmlns="http://www.w3.org/2000/svg" xmlns:xlink="http://www.w3.org/1999/xlink" viewBox="0 0 2500 2500"><defs><linearGradient id="e0d37fe0-7236-47cc-a453-050dece788e8" x1="-48.62" y1="22.79" x2="107.87" y2="248.82" gradientUnits="userSpaceOnUse"><stop offset="0" stop-color="#0f0b26" stop-opacity="0.3"/><stop offset="1" stop-color="#0f0b26" stop-opacity="0"/></linearGradient><linearGradient id="a1f4dc6f-a97d-4610-92b8-7081a6ffb9d5" x1="973.5" y1="217.18" x2="-196.94" y2="217.18" gradientUnits="userSpaceOnUse"><stop offset="0" stop-color="#045989"/><stop offset="0.29" stop-color="#085988"/><stop offset="0.31" stop-color="#095d8a"/><stop offset="0.43" stop-color="#0c7096"/><stop offset="0.56" stop-color="#0f7e9e"/><stop offset="0.72" stop-color="#1187a3"/><stop offset="1" stop-color="#1189a4"/></linearGradient><linearGradient id="aaa960f1-4d8c-494c-88de-6dbccac6c38c" x1="-264.6" y1="216.53" x2="661.24" y2="135.26" gradientUnits="userSpaceOnUse"><stop offset="0" stop-color="#0071b0" stop-opacity="0"/><stop offset="0.02" stop-color="#0071b0" stop-opacity="0.03"/><stop offset="0.28" stop-color="#0071b0" stop-opacity="0.37"/><stop offset="0.51" stop-color="#0071b0" stop-opacity="0.64"/><stop offset="0.72" stop-color="#0071b0" stop-opacity="0.84"/><stop offset="0.89" stop-color="#0071b0" stop-opacity="0.96"/><stop offset="1" stop-color="#0071b0"/></linearGradient><linearGradient id="bf985bf8-0642-47cc-8167-1e08ddf4d2e0" x1="692.38" y1="1155.25" x2="544.97" y2="1195.82" gradientTransform="matrix(0.98, -0.4, -0.01, 1.02, -8.45, 190.32)" gradientUnits="userSpaceOnUse"><stop offset="0" stop-color="#7dd1ed" stop-opacity="0.1"/><stop offset="0.15" stop-color="#5bc2ee" stop-opacity="0.1"/><stop offset="0.87" stop-color="#004986" stop-opacity="0.3"/></linearGradient><linearGradient id="e6c24670-280d-4c84-a882-57fb75a0479b" x1="514.2" y1="1322.47" x2="500" y2="1020.31" gradientTransform="matrix(0.97, -0.42, 0.02, 1.02, -33.62, 209.04)" xlink:href="#bf985bf8-0642-47cc-8167-1e08ddf4d2e0"/><linearGradient id="a86e107c-c48f-446a-abe6-d943bf995667" x1="711.51" y1="2256.55" x2="945.4" y2="1859.67" gradientUnits="userSpaceOnUse"><stop offset="0.13" stop-color="#0f0b26" stop-opacity="0.3"/><stop offset="0.85" stop-color="#0f0b26" stop-opacity="0.1"/><stop offset="0.99" stop-color="#0f0b26" stop-opacity="0.1"/><stop offset="1" stop-color="#0f0b26" stop-opacity="0.1"/></linearGradient><linearGradient id="f9ac7822-9954-41c0-9e87-b455a41cb22b" x1="1529.59" y1="1974.78" x2="359.15" y2="1974.78" xlink:href="#a1f4dc6f-a97d-4610-92b8-7081a6ffb9d5"/><linearGradient id="a2388706-0987-4590-925f-9927f46e11e2" x1="291.49" y1="1974.14" x2="1217.33" y2="1892.86" xlink:href="#aaa960f1-4d8c-494c-88de-6dbccac6c38c"/><linearGradient id="bde6b693-fce8-4f0c-8d01-a6c528a13e33" x1="809.41" y1="1925.95" x2="969.09" y2="1884.2" gradientUnits="userSpaceOnUse"><stop offset="0.13" stop-color="#0f0b26" stop-opacity="0.3"/><stop offset="0.69" stop-color="#0f0b26" stop-opacity="0"/></linearGradient><linearGradient id="aa60a66c-f393-4fc0-aa2a-e0aaf70bc987" x1="993.46" y1="1734.42" x2="1167.05" y2="1694" xlink:href="#bde6b693-fce8-4f0c-8d01-a6c528a13e33"/><linearGradient id="ab7cf66d-42f0-4c3c-9cae-cb6504c233f6" x1="773.18" y1="1211.48" x2="880.08" y2="1209.71" gradientUnits="userSpaceOnUse"><stop offset="0" stop-color="#010d1a" stop-opacity="0"/><stop offset="1" stop-color="#010d1a"/></linearGradient><linearGradient id="e2101d7f-fa17-408a-a633-2dac2bf87d73" x1="893.88" y1="1589.5" x2="1029.93" y2="946.36" xlink:href="#ab7cf66d-42f0-4c3c-9cae-cb6504c233f6"/><linearGradient id="b9cd94e7-43ec-4180-bf38-23b4b9db887c" x1="881.99" y1="1427.88" x2="980.93" y2="661.94" gradientUnits="userSpaceOnUse"><stop offset="0" stop-color="#48c4ba" stop-opacity="0"/><stop offset="1" stop-color="#48c4ba"/></linearGradient><linearGradient id="ab4b7ab7-30ae-455b-a5ac-b7560e3a5869" x1="927.78" y1="1345.11" x2="1039.98" y2="1228.49" xlink:href="#ab7cf66d-42f0-4c3c-9cae-cb6504c233f6"/><linearGradient id="fbed88fd-eac0-49f7-a6e0-e8c44eb6fa3c" x1="961.04" y1="1498.04" x2="993.51" y2="1608.03" xlink:href="#ab7cf66d-42f0-4c3c-9cae-cb6504c233f6"/><linearGradient id="aea00b3b-a5f2-482e-b8f2-5bab1c8df561" x1="991.43" y1="1046.99" x2="829.77" y2="873.83" gradientUnits="userSpaceOnUse"><stop offset="0.09" stop-color="#fff" stop-opacity="0"/><stop offset="1" stop-color="#fff"/></linearGradient><symbol id="ba38ce88-4c7d-4ce3-b571-9b4aab3a858c" data-name="stair 2" viewBox="0 0 581.25 367.74"><polygon points="0 98.76 0 367.74 135.14 273.22 135.14 13.49 0 98.76" fill="url(#e0d37fe0-7236-47cc-a453-050dece788e8)"/><path d="M581.25,264.8v28c0,5.94-4.35,12.2-12.82,17.1l-80.18,46.29c-15.5,8.95-38.93,9.92-52.35,2.17L9.05,111.89C3,108.38,0,103.68,0,98.76v-28C0,75.71,581.25,269.83,581.25,264.8Z" fill="url(#a1f4dc6f-a97d-4610-92b8-7081a6ffb9d5)"/><path d="M581.25,264.8c0,5-3.12,10.3-9.23,14.75a37.71,37.71,0,0,1-3.59,2.34l-80.18,46.3c-15.5,8.94-38.93,9.91-52.35,2.17L9.21,84l-.16-.09C3,80.41,0,75.71,0,70.79c0-5.94,4.34-12.2,12.81-17.09L93,7.4c15.49-8.94,38.92-9.92,52.34-2.17L572.19,251.67C578.27,255.18,581.25,259.88,581.25,264.8Z" fill="#202f64"/><path d="M581.25,264.8c0,5-3.12,10.3-9.23,14.75a37.71,37.71,0,0,1-3.59,2.34l-80.18,46.3c-15.5,8.94-38.93,9.91-52.35,2.17L9.21,84l-.16-.09C3,80.41,0,75.71,0,70.79c0-5.94,4.34-12.2,12.81-17.09L93,7.4c15.49-8.94,38.92-9.92,52.34-2.17L572.19,251.67C578.27,255.18,581.25,259.88,581.25,264.8Z" fill="url(#aaa960f1-4d8c-494c-88de-6dbccac6c38c)"/><g opacity="0.28"><path d="M122.61,0V6c7.78,0,14.79,1.57,19.73,4.43L569.19,256.87c2.76,1.59,6.06,4.26,6.06,7.93,0,3.16-2.46,6.77-6.76,9.9l0,0,0,0a31.43,31.43,0,0,1-3,1.95L485.25,323c-7.26,4.19-17,6.59-26.62,6.59-7.78,0-14.79-1.57-19.73-4.42L12.21,78.81h0l0,0L12,78.71c-2.75-1.6-6-4.26-6-7.92,0-3.9,3.67-8.35,9.81-11.89L96,12.6C103.26,8.4,113,6,122.61,6V0m0,0C112.33,0,101.47,2.51,93,7.4L12.81,53.7C4.34,58.59,0,64.85,0,70.79c0,4.92,3,9.62,9.05,13.13l.16.09L435.9,330.36c6.08,3.51,14.21,5.22,22.73,5.22,10.29,0,21.14-2.5,29.62-7.39l80.18-46.3a37.71,37.71,0,0,0,3.59-2.34c6.11-4.45,9.23-9.72,9.23-14.75s-3-9.62-9.06-13.13L145.34,5.23C139.26,1.72,131.13,0,122.61,0Z" fill="#6da0e8"/></g><path d="M122.61,0V3c8.3,0,15.84,1.71,21.23,4.83L570.69,254.27c4.95,2.85,7.56,6.49,7.56,10.53s-2.84,8.57-8,12.34a34.5,34.5,0,0,1-3.3,2.15l-80.18,46.3c-7.71,4.45-17.95,7-28.12,7-8.3,0-15.84-1.71-21.23-4.82L10.68,81.4l-.13-.08C5.61,78.47,3,74.83,3,70.79,3,65.73,7.12,60.45,14.31,56.3L94.5,10c7.7-4.45,18-7,28.11-7V0m0,0C112.33,0,101.47,2.51,93,7.4L12.81,53.7C4.34,58.59,0,64.85,0,70.79c0,4.92,3,9.62,9.05,13.13l.16.09L435.9,330.36c6.08,3.51,14.21,5.22,22.73,5.22,10.29,0,21.14-2.5,29.62-7.39l80.18-46.3a37.71,37.71,0,0,0,3.59-2.34c6.11-4.45,9.23-9.72,9.23-14.75s-3-9.62-9.06-13.13L145.34,5.23C139.26,1.72,131.13,0,122.61,0Z" fill="#6da0e8"/></symbol></defs><g id="ba68a2e2-e53f-423c-8cb1-02021a731336" data-name="plant"><g id="ade39a6a-2335-48c8-8f2a-cf7b34f3a851" data-name="Plant11"><g id="a62a8048-d6b4-4fa1-a014-de120a8900f8" data-name="Layer1 8 MEMBER 1 FILL"><path d="M565.88,1043.52c9.59,245.7.22,631.85,110,734q189.23-368.71,178.88-802.85T628.88,411.51Q557.72,833.18,565.88,1043.52Z" fill="#7dd1ed"/></g><g id="ae407bf5-6f78-44f0-885e-97d9e0f4784a" data-name="Layer1 8 MEMBER 1 FILL"><path d="M565.88,1043.52c9.59,245.7-11,608.06,110,734q189.23-368.71,178.88-802.85T628.88,411.51Q557.72,833.18,565.88,1043.52Z" fill="url(#bf985bf8-0642-47cc-8167-1e08ddf4d2e0)"/></g><path d="M675.86,1777.54q4.38-8.57,8.67-17.14,51-436.94-63.82-1299.59,80.22,704.45,47.86,1288.65Q672.2,1763.54,675.86,1777.54Z" fill="#1f96dc"/><g id="aea6069b-3a75-4659-80c6-5616ba7995ea" data-name="Layer1 8 MEMBER 2 FILL"><path d="M330,1061.85q-50.52,208.2-3,397.52t241.29,294.45q88.79,64.46,98.54,183.76c14-67.2,29.4-151.07,23.5-263.79s-54-228.63-121.69-335.46Q483.78,1172,330,1061.85Z" fill="#4bbcec"/></g><g id="b1e08e76-e505-499c-a216-eb454aa2855d" data-name="Layer1 8 MEMBER 2 FILL"><path d="M330,1061.85q-50.52,208.2-3,397.52t241.29,294.45q88.79,64.46,98.54,183.76c14-67.2,29.4-151.07,23.5-263.79s-54-228.63-121.69-335.46Q483.78,1172,330,1061.85Z" fill="url(#e6c24670-280d-4c84-a882-57fb75a0479b)"/></g><path d="M321.55,1059.12h0l-.13.06.13-.06m158.23,356,.14.39q-104.49-165-134.59-274.27,33.35,137.09,120.7,288.86a.31.31,0,0,1,.14.24q137.1,209.49,158.09,380.12a231.43,231.43,0,0,1,26.71,51.9Q668.57,1671.83,479.78,1415.14Z" fill="#1f96dc"/></g></g><g id="a33afa92-bb0e-45b2-9838-9c571d087eb4" data-name="Stairs"><use width="581.25" height="367.74" transform="translate(774.56 1509.98)" xlink:href="#ba38ce88-4c7d-4ce3-b571-9b4aab3a858c"/><g id="a5ecf3a4-fc64-4f8c-bfb5-eb5f5c3e5a52" data-name="stairFloor"><path d="M1137.34,2051.77c0,5-3.12,10.3-9.23,14.75a37.71,37.71,0,0,1-3.59,2.34l-80.18,46.3c-15.5,8.94-38.93,9.91-52.35,2.17L565.3,1871l-.16-.09c-6.08-3.51-9-8.21-9-13.13,0-5.94,4.34-12.2,12.81-17.09l80.19-46.3c15.49-8.94,38.92-9.92,52.34-2.17l426.85,246.44C1134.36,2042.15,1137.34,2046.85,1137.34,2051.77Z" fill="none" stroke="#022e49" stroke-width="17" opacity="0.15"/><path d="M1137.34,2051.77c0,5-3.12,10.3-9.23,14.75a37.71,37.71,0,0,1-3.59,2.34l-80.18,46.3c-15.5,8.94-38.93,9.91-52.35,2.17L565.3,1871l-.16-.09c-6.08-3.51-9-8.21-9-13.13,0-5.94,4.34-12.2,12.81-17.09l80.19-46.3c15.49-8.94,38.92-9.92,52.34-2.17l426.85,246.44C1134.36,2042.15,1137.34,2046.85,1137.34,2051.77Z" fill="none" stroke="#022e49" stroke-width="11" opacity="0.41"/><path d="M1137.34,2051.77c0,5-3.12,10.3-9.23,14.75a37.71,37.71,0,0,1-3.59,2.34l-80.18,46.3c-15.5,8.94-38.93,9.91-52.35,2.17L565.3,1871l-.16-.09c-6.08-3.51-9-8.21-9-13.13,0-5.94,4.34-12.2,12.81-17.09l80.19-46.3c15.49-8.94,38.92-9.92,52.34-2.17l426.85,246.44C1134.36,2042.15,1137.34,2046.85,1137.34,2051.77Z" fill="none" stroke="#022e49" stroke-width="6" opacity="0.72"/><path d="M1217.72,2052.28c0,5-3.12,10.3-9.23,14.75a37.71,37.71,0,0,1-3.59,2.34l-80.18,46.3c-16,7.94-106.44,6.23-106.44,6.23s-18.78-2.22-22-4.06L569.61,1871.49l-.16-.09c-6.08-3.51-9.05-8.21-9.05-13.13,0-5.94,4.34-12.2,12.81-17.09l156.26-46.3c15.49-8.94,38.92-9.92,52.34-2.17l426.85,246.44C1214.74,2042.66,1217.72,2047.36,1217.72,2052.28Z" fill="url(#a86e107c-c48f-446a-abe6-d943bf995667)"/><path d="M1137.34,2022.4v28c0,5.94-4.35,12.2-12.82,17.1l-80.18,46.29c-15.5,8.95-38.93,9.92-52.35,2.17L565.14,1869.49c-6.08-3.51-9-8.21-9-13.13v-28C556.09,1833.31,1137.34,2027.43,1137.34,2022.4Z" fill="url(#f9ac7822-9954-41c0-9e87-b455a41cb22b)"/><path d="M1137.34,2022.4c0,5-3.12,10.3-9.23,14.75a37.71,37.71,0,0,1-3.59,2.34l-80.18,46.3c-15.5,8.94-38.93,9.91-52.35,2.17L565.3,1841.61l-.16-.09c-6.08-3.51-9-8.21-9-13.13,0-5.94,4.34-12.2,12.81-17.09l80.19-46.3c15.49-8.94,38.92-9.92,52.34-2.17l426.85,246.44C1134.36,2012.78,1137.34,2017.48,1137.34,2022.4Z" fill="#202f64"/><path d="M1137.34,2022.4c0,5-3.12,10.3-9.23,14.75a37.71,37.71,0,0,1-3.59,2.34l-80.18,46.3c-15.5,8.94-38.93,9.91-52.35,2.17L565.3,1841.61l-.16-.09c-6.08-3.51-9-8.21-9-13.13,0-5.94,4.34-12.2,12.81-17.09l80.19-46.3c15.49-8.94,38.92-9.92,52.34-2.17l426.85,246.44C1134.36,2012.78,1137.34,2017.48,1137.34,2022.4Z" fill="url(#a2388706-0987-4590-925f-9927f46e11e2)"/><g opacity="0.28"><path d="M678.71,1757.6v6c7.77,0,14.78,1.57,19.72,4.43l426.85,246.44c2.77,1.59,6.06,4.27,6.06,7.93,0,3.16-2.46,6.77-6.76,9.9l0,0,0,0a31.62,31.62,0,0,1-3,2l-80.18,46.29c-7.26,4.19-17,6.6-26.61,6.6-7.79,0-14.8-1.57-19.74-4.42L568.3,1836.42l0,0,0,0-.13-.07c-2.75-1.6-6-4.26-6-7.92,0-3.9,3.67-8.35,9.81-11.89l80.19-46.3c7.26-4.19,17-6.6,26.61-6.6v-6m0,0c-10.28,0-21.13,2.51-29.61,7.4l-80.19,46.3c-8.47,4.89-12.81,11.15-12.81,17.09,0,4.92,3,9.62,9,13.13l.16.09L992,2088c6.08,3.51,14.22,5.23,22.74,5.23,10.28,0,21.13-2.51,29.61-7.4l80.18-46.3a37.71,37.71,0,0,0,3.59-2.34c6.11-4.45,9.23-9.72,9.23-14.75s-3-9.62-9.06-13.13L701.43,1762.83c-6.08-3.51-14.21-5.23-22.73-5.23Z" fill="#6da0e8"/></g><path d="M678.71,1757.6v3c8.29,0,15.83,1.72,21.22,4.83l426.85,246.44c5,2.86,7.56,6.5,7.56,10.53,0,4.19-2.84,8.57-8,12.35a36.6,36.6,0,0,1-3.3,2.14l-80.18,46.3c-7.7,4.45-17.95,7-28.11,7-8.3,0-15.85-1.72-21.24-4.83L566.77,1839l-.13-.08c-4.94-2.85-7.55-6.49-7.55-10.53,0-5.06,4.12-10.34,11.31-14.49l80.19-46.3c7.71-4.45,17.95-7,28.11-7v-3m0,0c-10.28,0-21.13,2.51-29.61,7.4l-80.19,46.3c-8.47,4.89-12.81,11.15-12.81,17.09,0,4.92,3,9.62,9,13.13l.16.09L992,2088c6.08,3.51,14.22,5.23,22.74,5.23,10.28,0,21.13-2.51,29.61-7.4l80.18-46.3a37.71,37.71,0,0,0,3.59-2.34c6.11-4.45,9.23-9.72,9.23-14.75s-3-9.62-9.06-13.13L701.43,1762.83c-6.08-3.51-14.21-5.23-22.73-5.23Z" fill="#6da0e8"/></g><use width="581.25" height="367.74" transform="translate(1648.41 519.5)" xlink:href="#ba38ce88-4c7d-4ce3-b571-9b4aab3a858c"/><use width="581.25" height="367.74" transform="translate(1429.95 767.12)" xlink:href="#ba38ce88-4c7d-4ce3-b571-9b4aab3a858c"/><use width="581.25" height="367.74" transform="translate(993.02 1262.36)" xlink:href="#ba38ce88-4c7d-4ce3-b571-9b4aab3a858c"/><use width="581.25" height="367.74" transform="translate(1211.48 1014.74)" xlink:href="#ba38ce88-4c7d-4ce3-b571-9b4aab3a858c"/></g><g id="f5689ce6-2578-4565-9195-5521471fecde" data-name="man"><g id="a6cb8524-ffa4-4e76-ac77-78a467379f46" data-name="man"><polygon points="813.66 1920.55 970.61 1920.55 910.45 1884.09 828.95 1884.09 813.66 1920.55" fill="url(#bde6b693-fce8-4f0c-8d01-a6c528a13e33)"/><polygon points="993.02 1722.3 1274.55 1722.3 1180.73 1670.25 1040.82 1670.07 993.02 1722.3" fill="url(#aa60a66c-f393-4fc0-aa2a-e0aaf70bc987)"/><path d="M940.16,1013.42q-8,26.33,2.33,41.95l-32.44,43.35,65.28,41.22,7.85-54.45q13.62-.93,19.61-3.66,6.59-15.49,8-28.92l-4.86-8.84q1.14-13.5-4.39-42.62Q973.8,986,940.16,1013.42Z" fill="#ffa3ab"/><path d="M973.34,1030.9q-.54-7.77,10-6.91,4.65,6.18,9,20.54,6.06-3.46,3.85-7.58-4.21-7.89,8.51-15.88,7.29-1.52,4.39-15.69-7.9-39.15-35.43-30.32a104.47,104.47,0,0,0,4.85,15.09q-30.54,2.15-41.69,15.09-5.37,8,.54,37.76,2.65,4.85-.54,19.82,15.09,4.11,25.33,0l24.93-13.43Q973.93,1039.09,973.34,1030.9Z" fill="#d4ecf6"/><path d="M682.21,1389.78l28.85-23.4-39.49-10a622,622,0,0,0-35.37,58.77,150.06,150.06,0,0,0,1.07,35.37q4,4.68,19.48,1.46c-.65-4.74-2.79-7.18-6.45-7.31l17.15-21.74Z" fill="#e86f8a"/><path d="M653.09,1428.67l3-13,9.79-11.49c7.46-12.66,6-29.12-2.21-36.37L646,1397.22a119.74,119.74,0,0,0,0,38.56C647.55,1435.71,649.93,1433.33,653.09,1428.67Z" fill="#ffa3ab"/><path d="M850.81,1206.62,830,1102q-34.92,33.9-93.41,149.12L659.94,1373q6.21.74,12.36,9.77a27.07,27.07,0,0,1,4.72,19.48Q779.91,1305.78,850.81,1206.62Z" fill="#355bfc"/><path d="M986.3,1717.34q.13,9.21,25.46,1.33t42.49-29.79q17.07-21.89-13.43-18.81l-14.43,1.73q-6,18.35-44.28,23.33Q984.14,1705.93,986.3,1717.34Z" fill="#d4ecf6"/><path d="M1028.12,1460.38q-55.5-49.22-107.64-65.28L853.8,1393q-27,114.53-17.35,118.81,109.26,15.23,126.38,13-8,19.59,17.55,160.89c.59,3.12,1.17,6.26,1.73,9.44q38.24-5,44.28-23.33c.08-.85.14-1.69.2-2.53Q1044.94,1472.67,1028.12,1460.38Z" fill="#1c2068"/><path d="M816.7,1890.39a27.48,27.48,0,0,1-12.76-3.19q-.45,13.2-.73,27.06,1.17,7.17,18.61,5.91,39.4-1.5,56.58-9.3t14.76-12.77q-2.48-4.95-12.3-8.18l-29.05-11.36Q838.3,1888,816.7,1890.39Z" fill="#d4ecf6"/><path d="M948.47,1398.35,811.19,1382.4q.21,42.87-29.06,26.66,14.43,66,33.78,95.8,11,110.46,23.26,167.93-28.39,62.36-34.63,199.52-.31,7.34-.6,14.89a27.48,27.48,0,0,0,12.76,3.19q21.6-2.43,35.11-11.83l-.67-.27q1.17-2.74,2.26-5.45,61.17-144.9,68.21-192.8Q949.66,1562,948.47,1398.35Z" fill="#232484"/><path d="M830.6,1164.14l-17.09-26.46Q787.8,1202.75,790,1284.34l47.53-59.51Z" fill="url(#ab7cf66d-42f0-4c3c-9cae-cb6504c233f6)"/><path d="M1028.12,1460.38q-40.71-36.11-79.61-54.36c0-2.55,0-5.1,0-7.67l-28-3.25h-.08L811.19,1382.4q.21,42.87-29.06,26.66,14.43,66,33.78,95.8,11,110.46,23.26,167.93-28.39,62.36-34.63,199.52-.31,7.34-.6,14.89a27.48,27.48,0,0,0,12.76,3.19q21.6-2.43,35.11-11.83l-.67-.27q1.17-2.74,2.26-5.45,61.17-144.9,68.21-192.8,16.57-69.76,22.94-155.44c8.79.58,14.9.65,18.28.2q-8,19.59,17.55,160.89c.59,3.12,1.17,6.26,1.73,9.44q38.24-5,44.28-23.33c.08-.85.14-1.69.2-2.53Q1044.94,1472.67,1028.12,1460.38Z" fill="url(#e2101d7f-fa17-408a-a633-2dac2bf87d73)"/><path d="M980.05,1131.83q4.11-21.74,1.13-24.67-38.7-31.9-61.76-29.78l-13.16,17.55Z" fill="#06467b"/><path d="M1017.75,1156.36q-58.85-52.92-96.6-66.22t-50.33-7.78q-30.78,8.45-42.15,20.88t-15.16,34.44V1285.2l-38.22,121.46q6.08,22.56,39,38a245.22,245.22,0,0,1,20.88-30.25,298.91,298.91,0,0,0,2.06,39.16q24.8,8,59.3,13.5,56.81-.55,98.46-41.22l-17-124.52Q1014.38,1238.84,1017.75,1156.36Z" fill="#355bfc"/><path d="M1130.5,1302.09c-.51-1.87-2.2-2.67-5-2.4q-3.42,5.19-8.58,12.24l-10.5,8.17-1.46,5.59q0,5,16.08-.93l7.58-7.38Q1131.25,1304.94,1130.5,1302.09Z" fill="#e86f8a"/><path d="M1130.57,1305.68l-1.07,7.31-14.22,5.58h-17.69l7.91,37.1a230.11,230.11,0,0,0,33.11-17.82q15.73-10.17,13.43-18.94t-7.58-13.23Z" fill="#ffa3ab"/><path d="M1014,1153q-37.47-8.12-44.81,55.32,2.6,57,8.45,86.89,9.11,46.53,31.31,76.45,1.8,2.4,16.22,1.27a312.56,312.56,0,0,0,33.18-4.86q46.94-9.16,63.09-20.14-2.57-30.66-17.42-29.59l-61.3-5.25q-3.49-85.81-10-127.58A51.44,51.44,0,0,0,1014,1153Z" fill="#355bfc"/><path d="M1104,1318.37l-61.3-5.25q-3.49-85.83-10-127.58a50.91,50.91,0,0,0-15-29.16v0l-.51-.46c-1-1-2-1.87-3.11-2.77q-17.45-15.51-33-27.44c1.71-10.68,1.73-16.87,0-18.53q-38.7-31.9-61.76-29.78l-7.31,9.74q-30.3-9.54-41.29-4.76-30.78,8.45-42.15,20.88c-.13.14-.25.29-.38.44q-34.63,35-91.7,147.41L659.94,1373q6.21.74,12.36,9.77a27.07,27.07,0,0,1,4.72,19.48q77.26-72.42,136.49-146.38v29.37l-38.22,121.46q6.08,22.56,39,38a245.22,245.22,0,0,1,20.88-30.25,298.91,298.91,0,0,0,2.06,39.16q24.8,8,59.3,13.5,56.81-.55,98.46-41.22l-17-124.52c.23-.4.46-.8.68-1.2q9.29,43.2,30.3,71.53,1.8,2.4,16.22,1.27a312.56,312.56,0,0,0,33.18-4.86q46.94-9.16,63.09-20.14Q1118.9,1317.3,1104,1318.37Z" fill="url(#b9cd94e7-43ec-4180-bf38-23b4b9db887c)"/><path d="M970.74,1374q9.24,10.65,18.49,9.84l-15.36-114.35-3.13-71.67Q961.86,1275.11,970.74,1374Z" fill="url(#ab4b7ab7-30ae-455b-a5ac-b7560e3a5869)"/><path d="M979.52,1076.84q4.28,4.8,3.66,8.65,5.88.72,19.61-3.66Q987.85,1082.23,979.52,1076.84Z" fill="#e86f8a"/><path d="M973.74,975.06a104.47,104.47,0,0,0,4.85,15.09q-30.54,2.15-41.69,15.09-5.37,8,.54,37.76,2.65,4.85-.54,19.82a48.16,48.16,0,0,0,17.62,1.86,58.24,58.24,0,0,1-9.84-1.86q4.19-10.85.53-19.82-8.18-22.12-.53-37.76,11.18-13,43.75-9.37-5.25-13.64-5.59-15.49,10.08-1.33,17,1.59Q990.43,969.7,973.74,975.06Z" fill="#eef7fb"/><path d="M962.83,1524.8q-1.47,3.6-1.86,11.3,13.41-3.57,19.28-11.3Z" fill="url(#fbed88fd-eac0-49f7-a6e0-e8c44eb6fa3c)"/><path d="M1009.17,1005.38q-4-19.86-13.08-27.37L996,978c-.38-.32-.78-.62-1.18-.9a3.62,3.62,0,0,0-.32-.22c-.33-.23-.66-.44-1-.64-.13-.08-.27-.17-.41-.24-.34-.2-.68-.37-1-.54l-.38-.19c-.46-.21-.92-.4-1.39-.58l-.51-.16c-.32-.11-.63-.21-1-.3l-.66-.17c-.29-.06-.57-.13-.86-.18l-.71-.13-.88-.12-.71-.07c-.35,0-.71,0-1.08,0l-.54,0c-.54,0-1.08,0-1.63,0l-.62,0-1.13.11-.7.1-1.12.19-.7.14c-.42.08-.83.18-1.25.29l-.61.15c-.62.16-1.25.34-1.89.55a104.47,104.47,0,0,0,4.85,15.09q-30.54,2.15-41.69,15.09-5.37,8,.54,37.76,2.65,4.85-.54,19.82c.75.2,1.47.38,2.2.55q.33.09.66.15l1.54.34.67.13,1.76.3.33.06c.68.1,1.36.19,2,.26l.49.05,1.53.12.54,0,1.67.06h.24a35.38,35.38,0,0,0,3.9-.19h0a28.71,28.71,0,0,0,7.72-1.86l24.93-13.43q-13.23-10.31-13.82-18.49-.54-7.77,10-6.91,4.65,6.18,9,20.54,6-3.46,3.85-7.58-4.21-7.89,8.51-15.88Q1012.07,1019.55,1009.17,1005.38Z" fill="url(#aea00b3b-a5f2-482e-b8f2-5bab1c8df561)"/></g></g></svg>