<svg xmlns="http://www.w3.org/2000/svg" xmlns:xlink="http://www.w3.org/1999/xlink" viewBox="0 0 2500 2500"><defs><style>.cls-1{fill:url(#radial-gradient);}.cls-2{fill:url(#Degradado_sin_nombre_296);}.cls-3{fill:url(#linear-gradient);}.cls-4{fill:#0f0b26;fill-opacity:0.2;}.cls-5{fill:url(#Degradado_sin_nombre_13);}.cls-6,.cls-7,.cls-8{fill:none;stroke:#022e49;stroke-linejoin:round;}.cls-6{stroke-width:10.86px;}.cls-31,.cls-6{opacity:0.15;}.cls-7{stroke-width:6.52px;opacity:0.41;}.cls-8{stroke-width:3.26px;opacity:0.72;}.cls-9{fill:#202f64;}.cls-10{fill:url(#linear-gradient-2);}.cls-11{fill:url(#linear-gradient-3);}.cls-12{fill:url(#linear-gradient-4);}.cls-13{fill:url(#linear-gradient-5);}.cls-14{fill:#39c2ec;}.cls-15{fill:url(#Nueva_muestra_de_degradado_74);}.cls-16{fill:url(#linear-gradient-6);}.cls-17{fill:url(#Nueva_muestra_de_degradado_74-2);}.cls-18{fill:url(#Nueva_muestra_de_degradado_74-3);}.cls-19{fill:#90e5ff;}.cls-20{fill:url(#Nueva_muestra_de_degradado_74-4);}.cls-21{fill:url(#Nueva_muestra_de_degradado_74-5);}.cls-22{fill:url(#Nueva_muestra_de_degradado_74-6);}.cls-23{fill:url(#Nueva_muestra_de_degradado_74-7);}.cls-24{fill:url(#radial-gradient-2);}.cls-25{isolation:isolate;}.cls-26{fill:url(#linear-gradient-7);}.cls-27{fill:url(#linear-gradient-8);}.cls-28{fill:url(#linear-gradient-9);}.cls-29{fill:url(#linear-gradient-10);}.cls-30{fill:#0b477d;}.cls-31,.cls-32{fill:#fff;}.cls-32{opacity:0.6;}.cls-33{fill:#022e49;opacity:0.3;}.cls-34{fill:#ea7d8a;}.cls-35{fill:url(#Degradado_sin_nombre_4);}.cls-36{fill:url(#linear-gradient-11);}.cls-37{fill:url(#Degradado_sin_nombre_4-2);}.cls-38{fill:url(#Degradado_sin_nombre_2);}.cls-39{fill:#4dd2d2;}.cls-40{fill:url(#Degradado_sin_nombre_4-3);}.cls-41{fill:url(#Degradado_sin_nombre_4-4);}.cls-42{fill:url(#linear-gradient-12);}</style><radialGradient id="radial-gradient" cx="2489.91" cy="3597.75" r="794.83" gradientTransform="matrix(-0.41, 0.71, -0.41, -0.7, 3736.37, 2400.69)" gradientUnits="userSpaceOnUse"><stop offset="0" stop-color="#0f0b26" stop-opacity="0.12"/><stop offset="1" stop-color="#0f0b26" stop-opacity="0"/></radialGradient><linearGradient id="Degradado_sin_nombre_296" x1="1221.94" y1="1856.02" x2="2072.77" y2="1435.93" gradientUnits="userSpaceOnUse"><stop offset="0" stop-color="#141226" stop-opacity="0.5"/><stop offset="0.8" stop-color="#141226" stop-opacity="0"/></linearGradient><linearGradient id="linear-gradient" x1="1519.24" y1="1487.66" x2="1665.07" y2="1672.37" gradientUnits="userSpaceOnUse"><stop offset="0" stop-color="#141226" stop-opacity="0.5"/><stop offset="1" stop-color="#141226" stop-opacity="0"/></linearGradient><radialGradient id="Degradado_sin_nombre_13" cx="1505.44" cy="3731.83" r="289.68" gradientTransform="matrix(-0.41, 0.71, -0.41, -0.7, 2953.63, 2810.52)" gradientUnits="userSpaceOnUse"><stop offset="0" stop-color="#141226" stop-opacity="0.3"/><stop offset="1" stop-color="#141226" stop-opacity="0"/></radialGradient><linearGradient id="linear-gradient-2" x1="853.89" y1="833.26" x2="655.34" y2="1037.04" gradientUnits="userSpaceOnUse"><stop offset="0" stop-color="#91ccee"/><stop offset="0.89" stop-color="#58b4e5"/></linearGradient><linearGradient id="linear-gradient-3" x1="557.87" y1="1115.99" x2="928.74" y2="1115.99" gradientUnits="userSpaceOnUse"><stop offset="0" stop-color="#91ccee"/><stop offset="0.17" stop-color="#91ccee"/><stop offset="0.3" stop-color="#8ccbed"/><stop offset="0.42" stop-color="#84caeb"/><stop offset="0.68" stop-color="#58b4e5"/><stop offset="0.77" stop-color="#39aae1"/></linearGradient><linearGradient id="linear-gradient-4" x1="743.67" y1="1067.73" x2="746.64" y2="1328.67" gradientUnits="userSpaceOnUse"><stop offset="0" stop-color="#0f0b26" stop-opacity="0"/><stop offset="0.47" stop-color="#0f0b26" stop-opacity="0.06"/><stop offset="0.7" stop-color="#0f0b26" stop-opacity="0.26"/><stop offset="0.87" stop-color="#0f0b26" stop-opacity="0.6"/><stop offset="1" stop-color="#0f0b26"/></linearGradient><linearGradient id="linear-gradient-5" x1="759.54" y1="1127.08" x2="686.89" y2="716.38" gradientUnits="userSpaceOnUse"><stop offset="0" stop-color="#0f0b26" stop-opacity="0"/><stop offset="0.97" stop-color="#0f0b26" stop-opacity="0.97"/><stop offset="1" stop-color="#0f0b26"/></linearGradient><linearGradient id="Nueva_muestra_de_degradado_74" x1="6713.15" y1="908.98" x2="6981.63" y2="908.98" gradientTransform="matrix(-1, 0.01, 0.01, 1, 7770.13, -44.65)" gradientUnits="userSpaceOnUse"><stop offset="0" stop-color="#90e5ff" stop-opacity="0.1"/><stop offset="0.06" stop-color="#44a2d0" stop-opacity="0.1"/><stop offset="0.15" stop-color="#1f82b9" stop-opacity="0.1"/><stop offset="0.87" stop-color="#0071b0" stop-opacity="0.3"/></linearGradient><linearGradient id="linear-gradient-6" x1="961.05" y1="807.46" x2="925.95" y2="959.02" gradientUnits="userSpaceOnUse"><stop offset="0" stop-color="#0f0b26" stop-opacity="0"/><stop offset="1" stop-color="#0f0b26" stop-opacity="0.7"/></linearGradient><linearGradient id="Nueva_muestra_de_degradado_74-2" x1="4258.91" y1="2944.1" x2="4379.06" y2="2944.1" gradientTransform="matrix(-0.56, -0.83, -0.83, 0.56, 5648.39, 2889.16)" xlink:href="#Nueva_muestra_de_degradado_74"/><linearGradient id="Nueva_muestra_de_degradado_74-3" x1="3851.08" y1="-3977.96" x2="3679.46" y2="-3807.8" gradientTransform="translate(5829.27 2433.11) rotate(-118.07)" xlink:href="#Nueva_muestra_de_degradado_74"/><linearGradient id="Nueva_muestra_de_degradado_74-4" x1="2911.84" y1="2691.88" x2="2987.18" y2="2662.4" gradientTransform="translate(1139.5 -3152.34) rotate(52.53)" xlink:href="#Nueva_muestra_de_degradado_74"/><linearGradient id="Nueva_muestra_de_degradado_74-5" x1="2976.05" y1="2622.96" x2="2998.98" y2="2578.74" gradientTransform="translate(1139.5 -3152.34) rotate(52.53)" xlink:href="#Nueva_muestra_de_degradado_74"/><linearGradient id="Nueva_muestra_de_degradado_74-6" x1="1183.39" y1="1640.68" x2="1404.13" y2="1640.68" gradientTransform="translate(38.7 -1234.95) rotate(20.17)" xlink:href="#Nueva_muestra_de_degradado_74"/><linearGradient id="Nueva_muestra_de_degradado_74-7" x1="961.07" y1="-2563.38" x2="865.04" y2="-2519.16" gradientTransform="matrix(0.47, -0.85, 0.82, 0.45, 2295.71, 2806.64)" xlink:href="#Nueva_muestra_de_degradado_74"/><radialGradient id="radial-gradient-2" cx="903.82" cy="894.2" r="147.63" gradientTransform="matrix(0.99, -0.2, 0.17, 2.7, -142.61, -1104.54)" gradientUnits="userSpaceOnUse"><stop offset="0" stop-color="#0f0b26" stop-opacity="0.7"/><stop offset="0.41" stop-color="#0f0b26" stop-opacity="0.37"/><stop offset="1" stop-color="#0f0b26" stop-opacity="0"/></radialGradient><linearGradient id="linear-gradient-7" x1="1130.1" y1="724.71" x2="1673.5" y2="1723.05" gradientUnits="userSpaceOnUse"><stop offset="0" stop-color="#76c6e9"/><stop offset="0.5" stop-color="#76c6e9"/><stop offset="0.53" stop-color="#1da1dc"/><stop offset="0.94" stop-color="#1da1dc"/><stop offset="1" stop-color="#195b83"/></linearGradient><linearGradient id="linear-gradient-8" x1="1342.38" y1="1123.58" x2="1272.15" y2="1495.94" gradientUnits="userSpaceOnUse"><stop offset="0" stop-color="#022e49"/><stop offset="1" stop-color="#011b22"/></linearGradient><linearGradient id="linear-gradient-9" x1="1109.95" y1="738.67" x2="1666.57" y2="1761.28" xlink:href="#linear-gradient-7"/><linearGradient id="linear-gradient-10" x1="1528.58" y1="1037.54" x2="45.08" y2="2252.46" gradientUnits="userSpaceOnUse"><stop offset="0" stop-color="#0071b0"/><stop offset="0.38" stop-color="#036ba9"/><stop offset="0.73" stop-color="#1a3c73"/><stop offset="1" stop-color="#202f64"/></linearGradient><linearGradient id="Degradado_sin_nombre_4" x1="1780.92" y1="973.98" x2="1772.75" y2="960.06" gradientUnits="userSpaceOnUse"><stop offset="0.01" stop-color="#12abbb"/><stop offset="0.31" stop-color="#11a9ba"/><stop offset="0.41" stop-color="#0ea2b5"/><stop offset="0.49" stop-color="#0797ac"/><stop offset="0.55" stop-color="#0088a1"/><stop offset="0.98" stop-color="#0088a1"/><stop offset="1" stop-color="#0088a1"/></linearGradient><linearGradient id="linear-gradient-11" x1="1758.48" y1="970.78" x2="1740.15" y2="1004.35" gradientUnits="userSpaceOnUse"><stop offset="0.01" stop-color="#0088a1"/><stop offset="0.33" stop-color="#00758f"/><stop offset="0.68" stop-color="#006883"/><stop offset="1" stop-color="#00637f"/></linearGradient><linearGradient id="Degradado_sin_nombre_4-2" x1="1736.94" y1="999.37" x2="1728.77" y2="985.46" xlink:href="#Degradado_sin_nombre_4"/><linearGradient id="Degradado_sin_nombre_2" x1="1728.43" y1="1002.65" x2="1720.48" y2="1011.93" gradientUnits="userSpaceOnUse"><stop offset="0.01" stop-color="#12abbb"/><stop offset="0.22" stop-color="#0ca0b3"/><stop offset="0.67" stop-color="#038ea6"/><stop offset="1" stop-color="#0088a1"/></linearGradient><linearGradient id="Degradado_sin_nombre_4-3" x1="1838.6" y1="882.06" x2="1842.53" y2="873.81" xlink:href="#Degradado_sin_nombre_4"/><linearGradient id="Degradado_sin_nombre_4-4" x1="1788.01" y1="738.96" x2="1801.71" y2="710.25" xlink:href="#Degradado_sin_nombre_4"/><linearGradient id="linear-gradient-12" x1="1621.22" y1="1006.33" x2="1779.51" y2="724.98" gradientUnits="userSpaceOnUse"><stop offset="0" stop-color="#0088a1"/><stop offset="0.03" stop-color="#018aa2"/><stop offset="0.04" stop-color="#0491a7"/><stop offset="0.05" stop-color="#0b9cb0"/><stop offset="0.06" stop-color="#12abbb"/><stop offset="0.22" stop-color="#0ea4b6"/><stop offset="0.47" stop-color="#0491a7"/><stop offset="0.55" stop-color="#0088a1"/><stop offset="0.65" stop-color="#0ca0b3"/><stop offset="0.72" stop-color="#12abbb"/><stop offset="0.84" stop-color="#028ba3"/><stop offset="0.85" stop-color="#0088a1"/><stop offset="0.85" stop-color="#0797ac"/><stop offset="0.86" stop-color="#0ea2b5"/><stop offset="0.86" stop-color="#11a9ba"/><stop offset="0.88" stop-color="#12abbb"/><stop offset="1" stop-color="#0088a1"/></linearGradient></defs><g id="Shadows"><ellipse class="cls-1" cx="1246.32" cy="1648.12" rx="459.18" ry="795.37" transform="translate(-409.6 2884.05) rotate(-89.64)"/><rect class="cls-2" x="1538.32" y="1353.56" width="565.7" height="413.19"/><polygon class="cls-3" points="1639.39 1409.22 1538.32 1334.26 1538.32 1742.45 1717.26 1598.67 1775.39 1610.27 1639.39 1409.22"/><path class="cls-4" d="M783.24,1502.5c-10.11,4.34-9.86,10.81.54,14.38l734.46,251.94c10.4,3.57,27.06,2.65,37-2l6.58-3.1c10-4.69,9.57-11.43-.84-15l-734.7-250.11c-10.42-3.54-27.21-2.89-37.31,1.45Z"/></g><g id="PlantBlue"><ellipse class="cls-5" cx="807.64" cy="1262.12" rx="167.35" ry="289.87" transform="translate(-459.54 2061.81) rotate(-89.64)"/><ellipse class="cls-6" cx="743.57" cy="1256.48" rx="35.69" ry="96.2" transform="translate(-517.56 1992.14) rotate(-89.64)"/><ellipse class="cls-7" cx="743.57" cy="1256.48" rx="35.69" ry="96.2" transform="translate(-517.56 1992.14) rotate(-89.64)"/><ellipse class="cls-8" cx="743.57" cy="1256.48" rx="35.69" ry="96.2" transform="translate(-517.56 1992.14) rotate(-89.64)"/><path class="cls-9" d="M867.05,871.05c-66.28-39.62-175.29-40.72-243.47-2.46h0c-34.66,19.45-52.1,45.32-52.17,71.26l-.59,207c.08-25.95,344.42-24.15,344.35,1l.59-207C915.83,915.71,899.64,890.54,867.05,871.05Z"/><path class="cls-10" d="M614.53,863.19c73.33-41.15,190.55-40,261.82,2.64,76.68,43.77,63.71,122.32-4.52,169.06-95.54,54.23-303.85,43-313.35-92.38C557.32,913.71,576.07,884.77,614.53,863.19Zm9.05,5.4c-68.19,38.27-69.74,98-3.46,137.66s175.28,40.72,243.47,2.46,69.73-98,3.46-137.66-175.29-40.72-243.47-2.46Z"/><path class="cls-11" d="M928.74,940.85c-16.83,143.87-354.48,142.69-370.31-1,.66,9.34-1.77,203.68.28,207.16a150.67,150.67,0,0,0,30.2,75.18c35.69,46.46,94.26,69.56,152,70,62.3.78,125.82-24.69,161.35-76.86a150.2,150.2,0,0,0,24-60C929,1149.66,928.67,953.36,928.74,940.85Z"/><path class="cls-12" d="M928.74,940.85c-.08,27.9-18.84,55.72-56.1,76.63-73.33,41.15-190.55,40-261.83-2.64-35-21-52.46-48-52.38-75L557.89,1131c0,.76,0,1.57,0,2.39v.16c.1,4.38.33,9.48.78,13.46a162.05,162.05,0,0,0,3,17.8,191.52,191.52,0,0,0,6.92,21.92,151,151,0,0,0,8.26,17.21,167,167,0,0,0,12,18.25,187.79,187.79,0,0,0,15.1,17,151.7,151.7,0,0,0,13.27,11.67c5.45,4.19,13,9.4,18.89,13,3.49,2.15,8.33,4.72,12,6.58,3,1.52,7,3.37,10.1,4.71a202.3,202.3,0,0,0,21.75,7.9c3.25.94,13.13,3.77,20.44,5,3,.52,7.07,1.34,10.12,1.72s7.09.9,10.13,1.24,7.09.61,10.13.78,7.08.26,10.11.32,7.09-.08,10.13-.12,7.08-.36,10.11-.57,7.19-.66,10.26-1,7.38-1,10.52-1.57a201.24,201.24,0,0,0,31.49-8c3.68-1.17,8.48-3.07,12-4.54,3.1-1.26,7.17-3.1,10.18-4.56,4.12-2,9.48-4.92,13.44-7.2,3-1.72,6.79-4.26,9.68-6.12A147.34,147.34,0,0,0,873,1247.63a200.63,200.63,0,0,0,16.36-15.85,154.38,154.38,0,0,0,12.91-16.49c2.1-3.18,4.81-7.48,6.7-10.79,1.69-3,3.76-7,5.22-10.13a171.13,171.13,0,0,0,8.11-21.49,133.71,133.71,0,0,0,4-17.55c.74-5.16,1.28-11.66,1.62-17.53q.29-2.91.3-5.8Z"/><g id="Plant14"><path class="cls-13" d="M558.43,1033.72l-.54,87.29s156.24-32,196.83-139.41c0,0,143,62.13,173,36v-74l-165.74-45Z"/><path class="cls-14" d="M1017.31,926.36q-85.9,83.8-223.65,2.71,118-75.37,266.05-96,11.4,40.7-42.4,93.28m5.27-137.62q30.25,20.06,37.13,44.34-148.1,20.63-266.05,96,1.11-96.33,75.22-137T1022.58,788.74Z"/><path class="cls-14" d="M868.88,792q74.11-40.71,153.7-3.29,30.25,20.06,37.13,44.34-148.1,20.63-266.05,96Q794.77,832.74,868.88,792Z"/><path class="cls-15" d="M1059.71,833.08q11.4,40.7-42.4,93.28-85.9,83.8-223.65,2.71Q911.62,853.7,1059.71,833.08Z"/><path class="cls-16" d="M1059.71,833.08q-6.87-24.29-37.13-44.34Q943,751.33,868.88,792c-49.4,27.14-4.35,80.06-5.09,144.28,91.84,54.07,96.25,45.92,153.52-9.95Q1071.12,873.77,1059.71,833.08Z"/><path class="cls-14" d="M842.11,1013.3q-14.18,13.8-47.48,8.73-56.11-8.56-57.18-82.22,67.74,22,104.66,73.49m-29.34-83.75q35.26,16.17,39.74,56.14-.75,18.19-10.4,27.61-36.92-51.49-104.66-73.49Q777.46,913.41,812.77,929.55Z"/><path class="cls-14" d="M812.77,929.55q35.26,16.17,39.74,56.14-.75,18.19-10.4,27.61-36.92-51.49-104.66-73.49Q777.46,913.41,812.77,929.55Z"/><path class="cls-17" d="M842.11,1013.3q-14.18,13.8-47.48,8.73-56.11-8.56-57.18-82.22Q805.19,961.8,842.11,1013.3Z"/><path class="cls-14" d="M491.14,1002.25q7,16.71,24.12,28.28,42.79,29,122.5,14.7,31.56-5.54,74.89-58.13,11.33-13.56,31.4-39.2,16.46-20.19,25.85-26.34-114.4,6.63-278.76,80.69m-.66-45.7q-7.34,22.23-.83,41.72c.45,1.35,1,2.67,1.49,4Q655.5,928.2,769.9,921.56q-71.1-78.25-153.68-64.69Q520,867.54,490.48,956.55Z"/><path class="cls-14" d="M515.26,1030.53q42.79,29,122.5,14.7,31.56-5.54,74.89-58.13,11.33-13.56,31.4-39.2,16.46-20.19,25.85-26.34-114.4,6.63-278.76,80.69Q498.19,1019,515.26,1030.53Z"/><path class="cls-18" d="M490.48,956.55q-7.34,22.23-.83,41.72c.45,1.35,1,2.67,1.49,4Q655.5,928.2,769.9,921.56q-71.1-78.25-153.68-64.69Q520,867.54,490.48,956.55Z"/><path class="cls-19" d="M865.36,695.39q-38.4-19.67-97.91,26.46-90.53,70-29.1,208.25,86.77-118,127-234.71m34.34,38.29q-14.3-28-34.34-38.29-40.23,116.67-127,234.71,92.48,10.73,140.19-53.58Q926.15,812.46,899.7,733.68Z"/><path class="cls-20" d="M767.45,721.85q-90.53,70-29.1,208.25,86.77-118,127-234.71Q827,675.72,767.45,721.85Z"/><path class="cls-21" d="M878.54,876.52q47.61-64.07,21.16-142.84-14.3-28-34.34-38.29-40.23,116.67-127,234.71Q830.83,940.83,878.54,876.52Z"/><path class="cls-14" d="M657.2,573.28q-47.33,11.72-46.93,122-6,132,126.68,241.08,4.92-189.55-79.75-363m44.51,5.92q-25.94-10.58-44.51-5.92,84.67,173.46,79.75,363,74.68-81.51,70.47-212.52Q793.82,616.39,701.71,579.2Z"/><path class="cls-14" d="M807.42,723.79q-13.6-107.4-105.71-144.59-25.94-10.58-44.51-5.92,84.66,173.46,79.75,363Q811.64,854.8,807.42,723.79Z"/><path class="cls-22" d="M657.2,573.28q-47.33,11.72-46.93,122-6,132,126.68,241.08Q741.87,746.76,657.2,573.28Z"/><path class="cls-19" d="M541.46,816.89q-13.17,28,21.54,77,52.68,74.51,154.74,28.39-91.31-66.07-176.28-105.41m26.69-23.55q-19.81,8.92-26.69,23.55,85,39.35,176.28,105.41,1.2-61.08-46.28-102.36Q624.15,778.78,568.15,793.34Z"/><path class="cls-23" d="M568.15,793.34q-19.81,8.92-26.69,23.55,85,39.35,176.28,105.41,1.2-61.08-46.28-102.36Q624.15,778.78,568.15,793.34Z"/><path class="cls-19" d="M541.46,816.89q-13.17,28,21.54,77,52.68,74.51,154.74,28.39Q626.43,856.23,541.46,816.89Z"/></g><path class="cls-24" d="M1081.38,1196.46c0,192.4-86.48,348.38-193.16,348.38s-162-141.56-162-334,10.52-487.06,117.2-487.06S1081.38,1004.06,1081.38,1196.46Z"/></g><g id="Calendar"><g id="Calendar-Back"><g class="cls-25"><path class="cls-26" d="M1790.51,1582.51l-117-461.42c-3.44-13.57-18.32-28.72-33.25-33.85L901.07,833.16c-8.52-2.92-15.21-1.95-18.74,1.94l-13.07,14.41c3.54-3.89,908.79,757.83,906.13,760.76l13.07-14.41C1791.11,1592.92,1792,1588.34,1790.51,1582.51Z"/><path class="cls-27" d="M1017.49,1358.13c-14.92-5.13-29.81-20.29-33.25-33.86l-117-461.42c-3.44-13.57,5.87-20.41,20.8-15.27l739.16,254.07c14.92,5.13,29.81,20.28,33.25,33.85l117,461.43c3.45,13.56-5.86,20.41-20.79,15.28Z"/></g></g><g id="Calendar-Front"><g class="cls-25"><path class="cls-28" d="M1639.39,1140.78c1.94-17.69-8.39-36.13-23.06-41.19L884.72,847.68a21.45,21.45,0,0,0-13.33-.43L853,852.81c4.09-1.24,694.33,911.85,685.56,914.5l18.37-5.56c8.77-2.65,15.45-11.25,16.77-23.31l-3.46,1,3.46-1Z"/><path class="cls-29" d="M1598,1105.16c14.68,5,25,23.49,23.06,41.18L1555.37,1744c-1.95,17.68-15.42,27.93-30.1,22.88L793.66,1515c-14.68-5-25-23.49-23.06-41.18l65.66-597.67c1.94-17.68,15.41-27.93,30.09-22.88Z"/></g><path class="cls-30" d="M1087.18,981.5,908.62,920c-4.32-1.49-8.28,1.52-8.86,6.73s2.47,10.63,6.79,12.12l178.56,61.48c4.32,1.49,8.29-1.52,8.86-6.73s-2.47-10.63-6.79-12.12"/><path class="cls-30" d="M1527.23,1123.47a2.76,2.76,0,0,0-2.84.56c-1.46,1.34-1.59,4.09-.28,6.13l10.18,15.86L1521.5,1154c-1.65,1-2.11,3.65-1,5.87a4.59,4.59,0,0,0,2.51,2.4,2.79,2.79,0,0,0,2.42-.24l16.25-10.1a3.65,3.65,0,0,0,1.59-2.8,5.72,5.72,0,0,0-.88-3.65l-12.93-20.15a4.33,4.33,0,0,0-2.19-1.82"/><path class="cls-30" d="M1489.05,1110.33a2.75,2.75,0,0,0-2.42.23l-16.25,10.1a3.65,3.65,0,0,0-1.59,2.8,5.66,5.66,0,0,0,.88,3.65l12.93,20.15a4.37,4.37,0,0,0,2.19,1.82,2.75,2.75,0,0,0,2.84-.56c1.46-1.34,1.59-4.09.28-6.13l-10.18-15.85,12.79-8c1.65-1,2.12-3.65,1-5.86a4.56,4.56,0,0,0-2.51-2.4"/></g><g id="Days"><path class="cls-31" d="M1515.64,1640.63l-6.14,55.87c-1,9.11-7.93,14.39-15.5,11.79l-58.36-20.1c-7.57-2.6-12.89-12.1-11.89-21.21l6.14-55.86c1-9.12,7.94-14.4,15.5-11.79l58.38,20.09C1511.33,1622,1516.64,1631.52,1515.64,1640.63Z"/><path class="cls-32" d="M1526.92,1537.94l-6.14,55.87c-1,9.11-7.93,14.39-15.5,11.79l-58.37-20.1c-7.56-2.6-12.88-12.1-11.88-21.21l6.14-55.87c1-9.12,7.94-14.39,15.51-11.78l58.37,20.09C1522.61,1519.34,1527.92,1528.83,1526.92,1537.94Z"/><path class="cls-32" d="M1538.2,1435.25l-6.14,55.87c-1,9.11-7.93,14.39-15.5,11.79l-58.36-20.1c-7.56-2.6-12.88-12.1-11.88-21.21l6.14-55.87c1-9.12,7.94-14.39,15.5-11.78l58.37,20.09C1533.89,1416.65,1539.2,1426.14,1538.2,1435.25Z"/><path class="cls-32" d="M1439.11,1401.13,1433,1457c-1,9.11-7.93,14.39-15.5,11.79l-58.36-20.1c-7.56-2.6-12.88-12.1-11.88-21.21l6.14-55.87c1-9.12,7.94-14.39,15.5-11.78l58.37,20.09C1434.8,1382.53,1440.11,1392,1439.11,1401.13Z"/><path class="cls-32" d="M1427.83,1503.83l-6.14,55.86c-1,9.11-7.93,14.39-15.5,11.79l-58.36-20.1c-7.56-2.6-12.88-12.1-11.88-21.21l6.14-55.86c1-9.13,7.94-14.4,15.5-11.79l58.37,20.1C1423.52,1485.23,1428.83,1494.72,1427.83,1503.83Z"/><path class="cls-32" d="M1416.55,1606.52l-6.14,55.86c-1,9.11-7.93,14.39-15.5,11.79l-58.37-20.1c-7.56-2.6-12.88-12.1-11.88-21.21l6.15-55.86c1-9.12,7.94-14.4,15.5-11.78l58.37,20.09C1412.24,1587.92,1417.55,1597.41,1416.55,1606.52Z"/><path class="cls-32" d="M1317.46,1572.4l-6.14,55.86c-1,9.11-7.93,14.39-15.5,11.79l-58.37-20.1c-7.56-2.6-12.88-12.1-11.88-21.21l6.14-55.86c1-9.12,7.94-14.39,15.5-11.78l58.38,20.08C1313.15,1553.79,1318.46,1563.29,1317.46,1572.4Z"/><path class="cls-32" d="M1328.74,1469.71l-6.14,55.86c-1,9.11-7.93,14.39-15.5,11.79l-58.36-20.1c-7.57-2.6-12.89-12.1-11.89-21.21l6.14-55.86c1-9.13,7.94-14.4,15.5-11.79l58.38,20.09C1324.43,1451.1,1329.74,1460.59,1328.74,1469.71Z"/><path class="cls-32" d="M1340,1367l-6.14,55.86c-1,9.11-7.93,14.39-15.5,11.79l-58.36-20.1c-7.56-2.6-12.88-12.11-11.88-21.22l6.14-55.86c1-9.12,7.94-14.39,15.5-11.78l58.37,20.09C1335.71,1348.41,1341,1357.91,1340,1367Z"/><path class="cls-31" d="M1263.49,1127.51l-6.14,55.86c-1,9.11-7.93,14.39-15.5,11.79l-58.36-20.1c-7.56-2.6-12.88-12.1-11.88-21.21l6.14-55.86c1-9.12,7.94-14.39,15.5-11.78l58.37,20.09C1259.18,1108.91,1264.49,1118.4,1263.49,1127.51Z"/><path class="cls-32" d="M1229.65,1435.59l-6.14,55.86c-1,9.11-7.93,14.39-15.5,11.79l-58.36-20.1c-7.56-2.6-12.88-12.1-11.88-21.21l6.13-55.86c1-9.12,7.94-14.39,15.51-11.78l58.37,20.09C1225.34,1417,1230.65,1426.48,1229.65,1435.59Z"/><path class="cls-32" d="M1218.37,1538.28l-6.14,55.86c-1,9.11-7.93,14.39-15.5,11.79l-58.37-20.1c-7.56-2.6-12.88-12.1-11.88-21.21l6.14-55.86c1-9.13,7.94-14.4,15.5-11.79l58.38,20.1C1214.06,1519.68,1219.37,1529.17,1218.37,1538.28Z"/><path class="cls-32" d="M1119.28,1504.16l-6.14,55.86c-1,9.11-7.93,14.39-15.5,11.79l-58.37-20.1c-7.56-2.6-12.88-12.1-11.88-21.21l6.15-55.86c1-9.12,7.94-14.39,15.5-11.78l58.37,20.09C1115,1485.56,1120.28,1495.05,1119.28,1504.16Z"/><path class="cls-32" d="M1130.56,1401.47l-6.14,55.86c-1,9.11-7.93,14.39-15.5,11.79l-58.36-20.1c-7.56-2.6-12.88-12.1-11.88-21.21l6.14-55.86c1-9.12,7.94-14.39,15.5-11.78l58.37,20.09C1126.25,1382.87,1131.56,1392.36,1130.56,1401.47Z"/><path class="cls-31" d="M1164.4,1093.39l-6.14,55.87c-1,9.11-7.93,14.39-15.5,11.79L1084.4,1141c-7.56-2.6-12.88-12.1-11.88-21.21l6.14-55.87c1-9.12,7.94-14.39,15.5-11.78l58.37,20.09C1160.09,1074.79,1165.4,1084.28,1164.4,1093.39Z"/><path class="cls-31" d="M1065.31,1059.28l-6.14,55.86c-1,9.11-7.93,14.39-15.5,11.79l-58.36-20.1c-7.56-2.6-12.88-12.1-11.88-21.21l6.14-55.86c1-9.12,7.94-14.39,15.5-11.78l58.37,20.09C1061,1040.68,1066.31,1050.17,1065.31,1059.28Z"/><path class="cls-32" d="M1031.47,1367.35l-6.14,55.86c-1,9.11-7.93,14.39-15.5,11.79l-58.36-20.1c-7.56-2.6-12.88-12.1-11.88-21.21l6.14-55.86c1-9.12,7.94-14.39,15.5-11.78l58.37,20.09C1027.16,1348.75,1032.47,1358.24,1031.47,1367.35Z"/><path class="cls-32" d="M1020.19,1470l-6.14,55.86c-1,9.11-7.93,14.39-15.5,11.79l-58.36-20.1c-7.56-2.6-12.88-12.1-11.88-21.21l6.14-55.86c1-9.12,7.94-14.39,15.5-11.78l58.37,20.09C1015.88,1451.44,1021.19,1460.93,1020.19,1470Z"/><path class="cls-32" d="M921.1,1435.92,915,1491.78c-1,9.11-7.93,14.39-15.5,11.79l-58.36-20.1c-7.57-2.6-12.89-12.1-11.89-21.21l6.15-55.86c1-9.12,7.94-14.39,15.5-11.78l58.37,20.09C916.79,1417.32,922.1,1426.81,921.1,1435.92Z"/><path class="cls-32" d="M932.38,1333.23l-6.14,55.86c-1,9.11-7.93,14.39-15.5,11.79l-58.36-20.1c-7.56-2.6-12.88-12.1-11.88-21.21l6.14-55.86c1-9.12,7.94-14.39,15.5-11.78L920.51,1312C928.07,1314.63,933.38,1324.12,932.38,1333.23Z"/><path class="cls-31" d="M966.23,1025.16,960.09,1081c-1,9.11-7.93,14.39-15.51,11.79l-58.36-20.1c-7.56-2.6-12.88-12.1-11.88-21.21l6.14-55.86c1-9.12,7.94-14.39,15.5-11.78L954.35,1004C961.92,1006.56,967.23,1016.05,966.23,1025.16Z"/><g id="DaysLeft-Back"><path class="cls-33" d="M1549.48,1332.56l-6.14,55.86c-1,9.11-7.93,14.39-15.5,11.79l-58.36-20.1c-7.56-2.6-12.88-12.1-11.88-21.21l6.14-55.86c1-9.12,7.94-14.39,15.5-11.78l58.37,20.09C1545.17,1314,1550.48,1323.45,1549.48,1332.56Z"/><path class="cls-33" d="M1560.76,1229.87l-6.14,55.86c-1,9.11-7.93,14.39-15.5,11.79l-58.36-20.1c-7.56-2.6-12.88-12.1-11.88-21.21l6.14-55.86c1-9.12,7.94-14.39,15.5-11.78l58.37,20.09C1556.45,1211.27,1561.76,1220.76,1560.76,1229.87Z"/><path class="cls-33" d="M1450.39,1298.45l-6.14,55.86c-1,9.11-7.93,14.39-15.5,11.79l-58.36-20.1c-7.56-2.6-12.88-12.1-11.88-21.21l6.14-55.87c1-9.12,7.94-14.39,15.5-11.78l58.37,20.09C1446.08,1279.84,1451.39,1289.34,1450.39,1298.45Z"/><path class="cls-33" d="M1351.3,1264.33l-6.14,55.86c-1,9.11-7.93,14.39-15.5,11.79l-58.36-20.1c-7.56-2.6-12.88-12.1-11.88-21.21l6.14-55.86c1-9.12,7.94-14.39,15.5-11.78l58.37,20.09C1347,1245.73,1352.3,1255.22,1351.3,1264.33Z"/><path class="cls-33" d="M1362.58,1161.63l-6.14,55.86c-1,9.11-7.93,14.39-15.5,11.79l-58.36-20.1c-7.56-2.59-12.88-12.1-11.88-21.21l6.14-55.86c1-9.12,7.94-14.39,15.5-11.78l58.37,20.09C1358.27,1143,1363.58,1152.52,1362.58,1161.63Z"/><path class="cls-33" d="M1461.67,1195.75l-6.14,55.86c-1,9.11-7.93,14.4-15.5,11.8l-58.36-20.11c-7.56-2.6-12.88-12.1-11.88-21.21l6.14-55.86c1-9.12,7.94-14.39,15.5-11.78l58.37,20.09C1457.36,1177.15,1462.67,1186.64,1461.67,1195.75Z"/><path class="cls-33" d="M1252.21,1230.21l-6.14,55.86c-1,9.11-7.93,14.39-15.5,11.79l-58.36-20.1c-7.56-2.6-12.88-12.1-11.88-21.21l6.14-55.86c1-9.12,7.94-14.39,15.5-11.78l58.37,20.09C1247.9,1211.61,1253.21,1221.1,1252.21,1230.21Z"/><path class="cls-33" d="M1240.93,1332.89l-6.14,55.87c-1,9.11-7.93,14.39-15.5,11.79l-58.36-20.1c-7.56-2.6-12.88-12.1-11.88-21.21l6.14-55.87c1-9.12,7.94-14.39,15.5-11.78l58.37,20.09C1236.62,1314.29,1241.93,1323.78,1240.93,1332.89Z"/><path class="cls-33" d="M1141.84,1298.78l-6.14,55.86c-1,9.11-7.93,14.39-15.5,11.79l-58.36-20.1c-7.56-2.6-12.88-12.1-11.88-21.21l6.14-55.86c1-9.13,7.94-14.4,15.5-11.79l58.37,20.09C1137.53,1280.17,1142.84,1289.66,1141.84,1298.78Z"/><path class="cls-33" d="M1153.12,1196.09,1147,1252c-1,9.11-7.93,14.39-15.5,11.79l-58.36-20.1c-7.56-2.6-12.88-12.1-11.88-21.21l6.14-55.86c1-9.12,7.94-14.39,15.5-11.78l58.37,20.09C1148.81,1177.49,1154.12,1187,1153.12,1196.09Z"/><path class="cls-33" d="M1054,1162l-6.14,55.86c-1,9.11-7.93,14.39-15.5,11.79L974,1209.52c-7.56-2.6-12.88-12.1-11.88-21.21l6.14-55.86c1-9.12,7.94-14.39,15.5-11.78l58.37,20.09C1049.72,1143.37,1055,1152.86,1054,1162Z"/><path class="cls-33" d="M1042.75,1264.66l-6.14,55.86c-1,9.11-7.93,14.39-15.5,11.79l-58.36-20.1c-7.56-2.6-12.88-12.1-11.88-21.21l6.14-55.86c1-9.12,7.94-14.39,15.5-11.78l58.37,20.09C1038.44,1246.06,1043.75,1255.55,1042.75,1264.66Z"/><path class="cls-33" d="M943.67,1230.54l-6.14,55.86c-1,9.11-7.94,14.39-15.51,11.79l-58.36-20.1c-7.56-2.6-12.88-12.1-11.88-21.21l6.14-55.86c1-9.12,7.94-14.39,15.5-11.78l58.37,20.09C939.35,1211.94,944.67,1221.43,943.67,1230.54Z"/><path class="cls-33" d="M954.94,1127.85l-6.14,55.86c-1,9.11-7.93,14.39-15.5,11.79l-58.36-20.1c-7.56-2.6-12.88-12.1-11.88-21.21l6.14-55.86c1-9.12,7.94-14.39,15.5-11.78l58.37,20.09C950.63,1109.25,955.94,1118.74,954.94,1127.85Z"/></g><g id="DaysLeft-Front"><path class="cls-34" d="M1544.24,1336.21l-6.14,55.87c-1,9.11-7.93,14.39-15.5,11.79l-58.36-20.1c-7.56-2.6-12.88-12.1-11.88-21.21l6.14-55.87c1-9.12,7.94-14.39,15.5-11.78l58.37,20.09C1539.93,1317.61,1545.24,1327.1,1544.24,1336.21Z"/><path class="cls-34" d="M1555.52,1233.52l-6.14,55.86c-1,9.11-7.93,14.39-15.5,11.79l-58.36-20.1c-7.56-2.6-12.88-12.1-11.88-21.21l6.14-55.86c1-9.12,7.94-14.39,15.5-11.78l58.37,20.09C1551.21,1214.92,1556.52,1224.41,1555.52,1233.52Z"/><path class="cls-34" d="M1445.15,1302.1,1439,1358c-1,9.11-7.93,14.39-15.5,11.79l-58.36-20.1c-7.56-2.6-12.88-12.1-11.88-21.21l6.14-55.87c1-9.12,7.94-14.39,15.5-11.78l58.37,20.09C1440.84,1283.49,1446.15,1293,1445.15,1302.1Z"/><path class="cls-34" d="M1346.06,1268l-6.14,55.86c-1,9.11-7.93,14.39-15.5,11.79l-58.36-20.1c-7.56-2.6-12.88-12.1-11.88-21.21l6.14-55.86c1-9.12,7.94-14.39,15.5-11.78l58.37,20.09C1341.75,1249.38,1347.06,1258.87,1346.06,1268Z"/><path class="cls-34" d="M1357.34,1165.28l-6.14,55.86c-1,9.11-7.93,14.39-15.5,11.79l-58.36-20.09c-7.56-2.6-12.88-12.1-11.88-21.21l6.14-55.87c1-9.12,7.94-14.39,15.5-11.78l58.37,20.09C1353,1146.68,1358.34,1156.17,1357.34,1165.28Z"/><path class="cls-34" d="M1456.43,1199.4l-6.14,55.86c-1,9.12-7.93,14.4-15.5,11.8L1376.43,1247c-7.56-2.6-12.88-12.1-11.88-21.21l6.14-55.86c1-9.12,7.94-14.39,15.5-11.78l58.37,20.09C1452.12,1180.8,1457.43,1190.29,1456.43,1199.4Z"/><path class="cls-34" d="M1247,1233.86l-6.14,55.86c-1,9.11-7.93,14.39-15.5,11.79l-58.36-20.1c-7.56-2.6-12.88-12.1-11.88-21.21l6.14-55.86c1-9.12,7.94-14.39,15.5-11.78l58.37,20.09C1242.66,1215.26,1248,1224.75,1247,1233.86Z"/><path class="cls-34" d="M1235.69,1336.54l-6.14,55.87c-1,9.11-7.93,14.39-15.5,11.79l-58.36-20.1c-7.57-2.6-12.89-12.1-11.89-21.21l6.14-55.87c1-9.12,7.94-14.39,15.5-11.78l58.38,20.09C1231.38,1317.94,1236.69,1327.43,1235.69,1336.54Z"/><path class="cls-34" d="M1136.6,1302.43l-6.14,55.86c-1,9.11-7.93,14.39-15.5,11.79L1056.6,1350c-7.56-2.6-12.88-12.1-11.88-21.21l6.14-55.86c1-9.13,7.94-14.4,15.5-11.79l58.37,20.09C1132.29,1283.82,1137.6,1293.32,1136.6,1302.43Z"/><path class="cls-34" d="M1147.88,1199.74l-6.14,55.86c-1,9.11-7.93,14.39-15.5,11.79l-58.36-20.1c-7.56-2.6-12.88-12.1-11.88-21.21l6.14-55.86c1-9.12,7.94-14.39,15.5-11.78l58.37,20.09C1143.57,1181.14,1148.88,1190.63,1147.88,1199.74Z"/><path class="cls-34" d="M1048.79,1165.62l-6.14,55.86c-1,9.11-7.93,14.39-15.5,11.79l-58.36-20.1c-7.56-2.6-12.88-12.1-11.88-21.21l6.14-55.86c1-9.12,7.94-14.39,15.5-11.78l58.37,20.09C1044.48,1147,1049.79,1156.51,1048.79,1165.62Z"/><path class="cls-34" d="M1037.51,1268.31l-6.14,55.86c-1,9.11-7.93,14.39-15.5,11.79l-58.36-20.1c-7.56-2.6-12.88-12.1-11.88-21.21l6.14-55.86c1-9.12,7.94-14.39,15.5-11.78l58.37,20.09C1033.2,1249.71,1038.51,1259.2,1037.51,1268.31Z"/><path class="cls-34" d="M938.42,1234.19l-6.14,55.86c-1,9.11-7.93,14.39-15.5,11.79l-58.36-20.1c-7.56-2.6-12.88-12.1-11.88-21.21l6.14-55.86c1-9.12,7.94-14.39,15.5-11.78L926.55,1213C934.11,1215.59,939.42,1225.08,938.42,1234.19Z"/><path class="cls-34" d="M949.7,1131.5l-6.14,55.86c-1,9.11-7.93,14.39-15.5,11.79l-58.36-20.1c-7.56-2.6-12.88-12.1-11.88-21.21L864,1102c1-9.12,7.94-14.39,15.5-11.78l58.37,20.09C945.39,1112.9,950.7,1122.39,949.7,1131.5Z"/></g></g></g><g id="Bell"><g id="BellTeal"><polygon class="cls-35" points="1775.53 980.46 1750.87 966.13 1776.74 951.19 1801.4 965.53 1775.53 980.46"/><path class="cls-36" d="M1750.86,966.13c-2.57,6-5.15,8.93-9,11.17s-6.48.76-9.07-.72l24.67,14.34c2.59,1.48,5.18,3,9.07.71s6.46-5.21,9-11.17Z"/><polygon class="cls-37" points="1731.55 1005.86 1706.88 991.52 1732.76 976.58 1757.43 990.92 1731.55 1005.86"/><path class="cls-38" d="M1732.87,1014h0c0-3-1.31-5.19-1.32-8.16l-24.67-14.34c0,3,1.31,5.2,1.32,8.17a19.54,19.54,0,0,0,8.18,10.18l24.67,14.33A19.51,19.51,0,0,1,1732.87,1014Z"/><path class="cls-39" d="M1766.5,991.63c3.88-2.24,6.46-5.21,9-11.17l25.87-14.93a26.77,26.77,0,0,1-1.26,9.65c-5.13,19.35-18,37.22-33.56,46.18s-28.49,6-33.71-7.34a23.37,23.37,0,0,1-1.32-8.16l25.88-14.94C1760,992.4,1762.61,993.87,1766.5,991.63Z"/><polygon class="cls-40" points="1842.63 880.68 1817.96 866.35 1837.43 877.44 1862.1 891.77 1842.63 880.68"/><path class="cls-41" d="M1798.14,723.49l24.67,14.33c-9.71-5.64-22.1-6.88-35-4.15l-24.67-14.33C1776,716.61,1788.44,717.85,1798.14,723.49Z"/><path class="cls-42" d="M1756.76,708.26c-4-2.31-9.46-2.12-15.69,1.48-11.65,6.72-20.67,22.35-21.93,36.48-29.72,26.1-55.51,70.76-55.41,106.44l.29,102.56L1646,988c-3.87,6.7-5.15,13.4-2.55,17.85a8.55,8.55,0,0,0,3,3.18l24.67,14.34a8.55,8.55,0,0,1-3-3.18c-2.6-4.46-1.32-11.15,2.54-17.85l18-32.75L1688.4,867c-.1-35.67,25.68-80.34,55.41-106.44,1.26-14.12,10.28-29.75,21.93-36.48,6.22-3.59,11.72-3.78,15.69-1.48Z"/><path class="cls-39" d="M1862.1,891.77c5.18,3,5.21,11.88,1.35,20.06a29.14,29.14,0,0,1-10.34,10.44l-173.34,100.08q-7.77,4.48-11.67-2.19c-2.6-4.46-1.32-11.15,2.54-17.85l18-32.75L1688.4,867c-.1-35.68,25.68-80.35,55.41-106.45,1.26-14.12,10.28-29.75,21.93-36.48s20.73-1.55,22,9.6c28.49-6,54.44,7.28,54.55,44.45l.29,102.56Z"/></g></g></svg>