<svg xmlns="http://www.w3.org/2000/svg" xmlns:xlink="http://www.w3.org/1999/xlink" viewBox="0 0 2500 2500"><defs><style>.cls-1{fill:url(#radial-gradient);}.cls-2{fill:url(#Degradado_sin_nombre_5);}.cls-3{fill:url(#linear-gradient);}.cls-4{fill:#5d7586;fill-opacity:0.2;}.cls-5{fill:url(#radial-gradient-2);}.cls-6{opacity:0.16;}.cls-7{fill:#85d8d1;}.cls-8{opacity:0.18;}.cls-9{fill:#333a45;}.cls-10,.cls-13,.cls-33{fill:none;}.cls-10{stroke:#333a45;stroke-width:1.68px;opacity:0.47;}.cls-11{fill:#202f64;}.cls-12{fill:url(#Nueva_muestra_de_degradado_11);}.cls-13,.cls-33{stroke:#fff;}.cls-13{stroke-width:0.42px;}.cls-14{fill:url(#linear-gradient-2);}.cls-15{fill:url(#linear-gradient-3);}.cls-16{fill:url(#linear-gradient-4);}.cls-17{fill:#4dd2d2;}.cls-18{fill:url(#Nueva_muestra_de_degradado_90);}.cls-19{fill:url(#Nueva_muestra_de_degradado_90-2);}.cls-20{fill:url(#Nueva_muestra_de_degradado_90-3);}.cls-21{fill:url(#Nueva_muestra_de_degradado_90-4);}.cls-22{fill:#95eee5;}.cls-23{fill:url(#Nueva_muestra_de_degradado_90-5);}.cls-24{fill:url(#Nueva_muestra_de_degradado_90-6);}.cls-25{fill:url(#Nueva_muestra_de_degradado_90-7);}.cls-26{fill:url(#Nueva_muestra_de_degradado_90-8);}.cls-27{fill:url(#radial-gradient-3);}.cls-28{isolation:isolate;}.cls-29{fill:url(#linear-gradient-5);}.cls-30{fill:url(#linear-gradient-6);}.cls-31{fill:url(#linear-gradient-7);}.cls-32{fill:url(#linear-gradient-8);}.cls-33{stroke-width:0.5px;}.cls-34{fill:#bec7ce;}.cls-35,.cls-36{fill:#d0d8dc;}.cls-35{opacity:0.15;}.cls-36{opacity:0.6;}.cls-37{fill:#ed4c59;}.cls-38{fill:#ea7d8a;}.cls-39{fill:url(#Degradado_sin_nombre_8);}.cls-40{fill:url(#linear-gradient-9);}.cls-41{fill:url(#Degradado_sin_nombre_8-2);}.cls-42{fill:url(#Degradado_sin_nombre_9);}.cls-43{fill:#39c2ec;}.cls-44{fill:url(#Degradado_sin_nombre_8-3);}.cls-45{fill:url(#Degradado_sin_nombre_8-4);}.cls-46{fill:url(#linear-gradient-10);}</style><radialGradient id="radial-gradient" cx="2489.91" cy="3597.75" r="794.83" gradientTransform="matrix(-0.41, 0.71, -0.41, -0.7, 3736.37, 2400.69)" gradientUnits="userSpaceOnUse"><stop offset="0" stop-color="#5d7586" stop-opacity="0.12"/><stop offset="0.56" stop-color="#5d7586" stop-opacity="0.07"/><stop offset="1" stop-color="#5d7586" stop-opacity="0"/></radialGradient><linearGradient id="Degradado_sin_nombre_5" x1="1221.94" y1="1856.02" x2="2072.77" y2="1435.93" gradientUnits="userSpaceOnUse"><stop offset="0" stop-color="#5d7586" stop-opacity="0.5"/><stop offset="0.8" stop-color="#5d7586" stop-opacity="0"/></linearGradient><linearGradient id="linear-gradient" x1="1519.24" y1="1487.66" x2="1665.07" y2="1672.37" gradientUnits="userSpaceOnUse"><stop offset="0" stop-color="#5d7586" stop-opacity="0.5"/><stop offset="1" stop-color="#5d7586" stop-opacity="0"/></linearGradient><radialGradient id="radial-gradient-2" cx="1505.44" cy="3731.32" r="289.59" gradientTransform="matrix(-0.41, 0.71, -0.41, -0.7, 2953.78, 2809.95)" gradientUnits="userSpaceOnUse"><stop offset="0" stop-color="#5d7586" stop-opacity="0.3"/><stop offset="1" stop-color="#5d7586" stop-opacity="0"/></radialGradient><linearGradient id="Nueva_muestra_de_degradado_11" x1="424.42" y1="1036.05" x2="1001.14" y2="878.6" gradientUnits="userSpaceOnUse"><stop offset="0" stop-color="#fafbfc"/><stop offset="0.55" stop-color="#f5f8fa"/><stop offset="0.99" stop-color="#e6f4fa"/><stop offset="0.99" stop-color="#d4ecf6" stop-opacity="0.9"/></linearGradient><linearGradient id="linear-gradient-2" x1="933.53" y1="1115.83" x2="557.5" y2="1115.83" gradientUnits="userSpaceOnUse"><stop offset="0.01" stop-color="#cee7f6"/><stop offset="0.32" stop-color="#cbe4f5"/><stop offset="0.53" stop-color="#e2eefb"/><stop offset="0.84" stop-color="#deecfa"/><stop offset="1" stop-color="#d9e9f8"/></linearGradient><linearGradient id="linear-gradient-3" x1="744.05" y1="1067.58" x2="747.02" y2="1328.44" gradientUnits="userSpaceOnUse"><stop offset="0" stop-color="#0f0b26" stop-opacity="0"/><stop offset="0.56" stop-color="#0f0b26" stop-opacity="0.06"/><stop offset="0.84" stop-color="#0f0b26" stop-opacity="0.26"/><stop offset="1" stop-color="#0f0b26" stop-opacity="0.5"/></linearGradient><linearGradient id="linear-gradient-4" x1="759.92" y1="1126.91" x2="687.29" y2="716.34" gradientUnits="userSpaceOnUse"><stop offset="0" stop-color="#0f0b26" stop-opacity="0"/><stop offset="0.97" stop-color="#0f0b26" stop-opacity="0.97"/><stop offset="1" stop-color="#0f0b26"/></linearGradient><linearGradient id="Nueva_muestra_de_degradado_90" x1="6712.87" y1="908.88" x2="6981.27" y2="908.88" gradientTransform="matrix(-1, 0.01, 0.01, 1, 7770.13, -44.65)" gradientUnits="userSpaceOnUse"><stop offset="0" stop-color="#95eee5" stop-opacity="0.1"/><stop offset="0.07" stop-color="#37bec7" stop-opacity="0.1"/><stop offset="0.15" stop-color="#12abbb" stop-opacity="0.1"/><stop offset="0.87" stop-color="#0088a1" stop-opacity="0.3"/></linearGradient><linearGradient id="Nueva_muestra_de_degradado_90-2" x1="930.35" y1="790.41" x2="953.76" y2="860.64" gradientTransform="matrix(1, 0, 0, 1, 0, 0)" xlink:href="#Nueva_muestra_de_degradado_90"/><linearGradient id="Nueva_muestra_de_degradado_90-3" x1="4258.83" y1="2943.73" x2="4378.94" y2="2943.73" gradientTransform="matrix(-0.56, -0.83, -0.83, 0.56, 5648.39, 2889.16)" xlink:href="#Nueva_muestra_de_degradado_90"/><linearGradient id="Nueva_muestra_de_degradado_90-4" x1="3850.96" y1="-3977.52" x2="3679.39" y2="-3807.41" gradientTransform="translate(5829.27 2433.11) rotate(-118.07)" xlink:href="#Nueva_muestra_de_degradado_90"/><linearGradient id="Nueva_muestra_de_degradado_90-5" x1="2912.01" y1="2691.55" x2="2987.33" y2="2662.08" gradientTransform="translate(1139.5 -3152.34) rotate(52.53)" xlink:href="#Nueva_muestra_de_degradado_90"/><linearGradient id="Nueva_muestra_de_degradado_90-6" x1="2976.21" y1="2622.64" x2="2999.13" y2="2578.44" gradientTransform="translate(1139.5 -3152.34) rotate(52.53)" xlink:href="#Nueva_muestra_de_degradado_90"/><linearGradient id="Nueva_muestra_de_degradado_90-7" x1="1183.78" y1="1640.49" x2="1404.45" y2="1640.49" gradientTransform="translate(38.7 -1234.95) rotate(20.17)" xlink:href="#Nueva_muestra_de_degradado_90"/><linearGradient id="Nueva_muestra_de_degradado_90-8" x1="961.35" y1="-2563.04" x2="865.35" y2="-2518.83" gradientTransform="matrix(0.47, -0.85, 0.82, 0.45, 2295.71, 2806.64)" xlink:href="#Nueva_muestra_de_degradado_90"/><radialGradient id="radial-gradient-3" cx="903.82" cy="894.2" r="147.63" gradientTransform="matrix(0.99, -0.2, 0.17, 2.7, -142.61, -1104.54)" gradientUnits="userSpaceOnUse"><stop offset="0" stop-color="#0f0b26" stop-opacity="0.7"/><stop offset="0.41" stop-color="#0f0b26" stop-opacity="0.37"/><stop offset="1" stop-color="#0f0b26" stop-opacity="0"/></radialGradient><linearGradient id="linear-gradient-5" x1="1498.5" y1="1181.54" x2="1612.46" y2="1271.65" gradientUnits="userSpaceOnUse"><stop offset="0" stop-color="#e5f4fa"/><stop offset="0.36" stop-color="#e5f4fa"/><stop offset="0.45" stop-color="#d5eaf7"/><stop offset="0.54" stop-color="#c8e3f5"/><stop offset="0.74" stop-color="#cbe4f4"/><stop offset="1" stop-color="#cee7f5"/></linearGradient><linearGradient id="linear-gradient-6" x1="1793.98" y1="1166.98" x2="1601.94" y2="1192.59" gradientUnits="userSpaceOnUse"><stop offset="0" stop-color="#d0d8dc"/><stop offset="1" stop-color="#9aa8b1"/></linearGradient><linearGradient id="linear-gradient-7" x1="1414.71" y1="1226.73" x2="1452.7" y2="1280.62" xlink:href="#linear-gradient-5"/><linearGradient id="linear-gradient-8" x1="1338.37" y1="953.66" x2="972.63" y2="1868.02" gradientUnits="userSpaceOnUse"><stop offset="0" stop-color="#fafbfc"/><stop offset="0.55" stop-color="#f5f8fa"/><stop offset="1" stop-color="#e6f4fa"/></linearGradient><linearGradient id="Degradado_sin_nombre_8" x1="1780.92" y1="973.98" x2="1772.75" y2="960.06" gradientUnits="userSpaceOnUse"><stop offset="0.01" stop-color="#1da1dc"/><stop offset="0.32" stop-color="#1b9fda"/><stop offset="0.43" stop-color="#1499d4"/><stop offset="0.51" stop-color="#098ec8"/><stop offset="0.55" stop-color="#0086c0"/><stop offset="0.98" stop-color="#0086c0"/><stop offset="1" stop-color="#0086c0"/></linearGradient><linearGradient id="linear-gradient-9" x1="1758.48" y1="970.78" x2="1740.15" y2="1004.35" gradientUnits="userSpaceOnUse"><stop offset="0.01" stop-color="#0086c0"/><stop offset="0.09" stop-color="#0083be"/><stop offset="0.57" stop-color="#0076b3"/><stop offset="1" stop-color="#0071b0"/></linearGradient><linearGradient id="Degradado_sin_nombre_8-2" x1="1736.94" y1="999.37" x2="1728.77" y2="985.46" xlink:href="#Degradado_sin_nombre_8"/><linearGradient id="Degradado_sin_nombre_9" x1="1728.43" y1="1002.65" x2="1720.48" y2="1011.93" gradientUnits="userSpaceOnUse"><stop offset="0.01" stop-color="#1da1dc"/><stop offset="0.12" stop-color="#189cd7"/><stop offset="0.63" stop-color="#068cc6"/><stop offset="1" stop-color="#0086c0"/></linearGradient><linearGradient id="Degradado_sin_nombre_8-3" x1="1838.6" y1="882.06" x2="1842.53" y2="873.81" xlink:href="#Degradado_sin_nombre_8"/><linearGradient id="Degradado_sin_nombre_8-4" x1="1788.01" y1="738.96" x2="1801.71" y2="710.25" xlink:href="#Degradado_sin_nombre_8"/><linearGradient id="linear-gradient-10" x1="1621.22" y1="1006.33" x2="1779.51" y2="724.98" gradientUnits="userSpaceOnUse"><stop offset="0" stop-color="#0086c0"/><stop offset="0.03" stop-color="#0288c2"/><stop offset="0.04" stop-color="#098ec8"/><stop offset="0.05" stop-color="#1499d4"/><stop offset="0.06" stop-color="#1da1dc"/><stop offset="0.25" stop-color="#169ad5"/><stop offset="0.52" stop-color="#0388c2"/><stop offset="0.55" stop-color="#0086c0"/><stop offset="0.64" stop-color="#1297d2"/><stop offset="0.72" stop-color="#1da1dc"/><stop offset="0.81" stop-color="#0a81bf"/><stop offset="0.85" stop-color="#0071b0"/><stop offset="0.85" stop-color="#077cba"/><stop offset="0.85" stop-color="#118dc9"/><stop offset="0.86" stop-color="#1898d4"/><stop offset="0.86" stop-color="#1c9fda"/><stop offset="0.88" stop-color="#1da1dc"/><stop offset="1" stop-color="#0086c0"/></linearGradient></defs><g id="Shadows"><ellipse class="cls-1" cx="1246.32" cy="1648.12" rx="459.18" ry="795.37" transform="translate(-409.6 2884.05) rotate(-89.64)"/><rect class="cls-2" x="1538.32" y="1353.56" width="565.7" height="413.19"/><polygon class="cls-3" points="1639.39 1409.22 1538.32 1334.26 1538.32 1742.45 1717.26 1598.67 1775.39 1610.27 1639.39 1409.22"/><path class="cls-4" d="M783.24,1502.5c-10.11,4.34-9.86,10.81.54,14.38l734.46,251.94c10.4,3.57,27.06,2.65,37-2l6.58-3.1c10-4.69,9.57-11.43-.84-15l-734.7-250.11c-10.42-3.54-27.21-2.89-37.31,1.45Z"/></g><g id="PlantBrigth"><ellipse class="cls-5" cx="808" cy="1261.91" rx="167.3" ry="289.78" transform="translate(-458.97 2061.96) rotate(-89.64)"/><g class="cls-6"><path class="cls-7" d="M742.54,1220.6c24.92,0,50,3.57,69.08,10.69,37.74,14.07,38,36.66.67,50.46-18.45,6.81-42.63,10.21-66.93,10.21-24.92,0-50-3.57-69.07-10.7-37.74-14.07-38-36.66-.67-50.45,18.44-6.82,42.63-10.21,66.92-10.21m0-5.87h0c-26,0-50.5,3.75-69,10.57-20.4,7.53-31.65,18.34-31.67,30.43s11.46,23.26,32.33,31c19.14,7.14,44.4,11.07,71.12,11.07,26,0,50.5-3.75,69-10.57,20.41-7.53,31.65-18.34,31.67-30.43s-11.46-23.26-32.32-31c-19.14-7.13-44.4-11.06-71.12-11.06Z"/></g><g class="cls-8"><path class="cls-9" d="M742.54,1220.6c24.92,0,50,3.57,69.08,10.69,37.74,14.07,38,36.66.67,50.46-18.45,6.81-42.63,10.21-66.93,10.21-24.92,0-50-3.57-69.07-10.7-37.74-14.07-38-36.66-.67-50.45,18.44-6.82,42.63-10.21,66.92-10.21m0-3.36h0c-25.72,0-49.9,3.7-68.09,10.42-19.34,7.14-30,17.11-30,28.07s10.88,21.29,30.69,28.68c18.87,7,43.81,10.9,70.24,10.9,25.72,0,49.9-3.7,68.09-10.41,19.35-7.14,30-17.11,30-28.07s-10.88-21.3-30.69-28.68c-18.87-7-43.82-10.91-70.24-10.91Z"/></g><ellipse class="cls-10" cx="743.95" cy="1256.28" rx="35.68" ry="96.17" transform="translate(-516.98 1992.31) rotate(-89.64)"/><path class="cls-11" d="M867.39,871c-66.26-39.6-175.23-40.7-243.4-2.45h0c-34.64,19.43-52.08,45.3-52.15,71.23l-.59,206.91c.08-25.93,344.32-24.13,344.25,1l.58-206.91C916.16,915.61,900,890.44,867.39,871Z"/><path class="cls-12" d="M615,863.1c73.3-41.14,190.49-40,261.74,2.64,34.6,20.68,52,47.32,52.37,74,.38,28.23-19.17,73.87-56.89,95-73.3,41.14-190.49,40-261.74-2.64-33.88-20.25-50.47-63.61-51.52-89.7C557.75,913.61,576.49,884.68,615,863.1Zm9,5.41c-68.16,38.25-69.71,98-3.45,137.61s175.23,40.71,243.39,2.46,69.71-98,3.46-137.62-175.23-40.7-243.4-2.45Z"/><path class="cls-13" d="M615,863.1c73.3-41.14,190.49-40,261.74,2.64,34.6,20.68,52,47.32,52.37,74,.38,28.23-19.17,73.87-56.89,95-73.3,41.14-190.49,40-261.74-2.64-33.88-20.25-50.47-63.61-51.52-89.7C557.75,913.61,576.49,884.68,615,863.1Zm9,5.41c-68.16,38.25-69.71,98-3.45,137.61s175.23,40.71,243.39,2.46,69.71-98,3.46-137.62-175.23-40.7-243.4-2.45Z"/><path class="cls-14" d="M929.06,940.74c-.08,27.89-18.83,55.7-56.08,76.61-73.31,41.13-190.49,39.95-261.75-2.65-35-21-52.44-48-52.37-75l-.54,191.09c0,.76,0,1.57,0,2.39a.81.81,0,0,0,0,.16c.09,4.38.32,9.48.77,13.46a161.87,161.87,0,0,0,3,17.79,192.72,192.72,0,0,0,6.92,21.91,151,151,0,0,0,8.26,17.21,168.4,168.4,0,0,0,12,18.25,190.58,190.58,0,0,0,15.1,17,151.26,151.26,0,0,0,13.26,11.66c5.46,4.19,13,9.4,18.89,13,3.49,2.14,8.33,4.71,12,6.57,3,1.52,7,3.37,10.1,4.71a201.45,201.45,0,0,0,21.74,7.9c3.25.93,13.13,3.76,20.44,5,3,.53,7.06,1.34,10.11,1.72s7.09.9,10.13,1.24,7.08.61,10.12.78,7.08.26,10.11.33,7.09-.09,10.12-.12,7.08-.37,10.12-.58,7.18-.66,10.25-1,7.38-1,10.51-1.58a202.43,202.43,0,0,0,31.49-8c3.68-1.17,8.47-3.07,12.05-4.54,3.09-1.27,7.16-3.11,10.17-4.56,4.12-2,9.48-4.92,13.44-7.2,3-1.71,6.79-4.26,9.67-6.12a145.73,145.73,0,0,0,14.22-10.76,198.78,198.78,0,0,0,16.35-15.84,155.27,155.27,0,0,0,12.91-16.48c2.1-3.18,4.81-7.48,6.7-10.8,1.69-3,3.76-7,5.22-10.12a173.16,173.16,0,0,0,8.11-21.48,135.16,135.16,0,0,0,4-17.54c.75-5.17,1.28-11.66,1.63-17.54q.27-2.89.29-5.79Z"/><path class="cls-15" d="M929.06,940.74c-.08,27.89-18.83,55.7-56.08,76.61-73.31,41.13-190.49,39.95-261.75-2.65-35-21-52.44-48-52.37-75l-.54,191.09c0,.76,0,1.57,0,2.39a.81.81,0,0,0,0,.16c.09,4.38.32,9.48.77,13.46a161.87,161.87,0,0,0,3,17.79,192.72,192.72,0,0,0,6.92,21.91,151,151,0,0,0,8.26,17.21,168.4,168.4,0,0,0,12,18.25,190.58,190.58,0,0,0,15.1,17,151.26,151.26,0,0,0,13.26,11.66c5.46,4.19,13,9.4,18.89,13,3.49,2.14,8.33,4.71,12,6.57,3,1.52,7,3.37,10.1,4.71a201.45,201.45,0,0,0,21.74,7.9c3.25.93,13.13,3.76,20.44,5,3,.53,7.06,1.34,10.11,1.72s7.09.9,10.13,1.24,7.08.61,10.12.78,7.08.26,10.11.33,7.09-.09,10.12-.12,7.08-.37,10.12-.58,7.18-.66,10.25-1,7.38-1,10.51-1.58a202.43,202.43,0,0,0,31.49-8c3.68-1.17,8.47-3.07,12.05-4.54,3.09-1.27,7.16-3.11,10.17-4.56,4.12-2,9.48-4.92,13.44-7.2,3-1.71,6.79-4.26,9.67-6.12a145.73,145.73,0,0,0,14.22-10.76,198.78,198.78,0,0,0,16.35-15.84,155.27,155.27,0,0,0,12.91-16.48c2.1-3.18,4.81-7.48,6.7-10.8,1.69-3,3.76-7,5.22-10.12a173.16,173.16,0,0,0,8.11-21.48,135.16,135.16,0,0,0,4-17.54c.75-5.17,1.28-11.66,1.63-17.54q.27-2.89.29-5.79Z"/><g id="Plant14"><path class="cls-16" d="M558.86,1033.58l-.54,87.27s156.2-31.95,196.77-139.37c0,0,142.95,62.11,172.91,36V943.54l-165.68-45Z"/><path class="cls-17" d="M1017.6,926.25Q931.74,1010,794,929,912,853.62,1060,833q11.4,40.68-42.39,93.25m5.27-137.57q30.25,20,37.12,44.32-148.05,20.61-266,96,1.13-96.3,75.2-137T1022.87,788.68Z"/><path class="cls-17" d="M869.22,792q74.09-40.69,153.65-3.29,30.25,20,37.12,44.32-148.05,20.61-266,96Q795.15,832.66,869.22,792Z"/><path class="cls-18" d="M1060,833q11.4,40.68-42.39,93.25Q931.74,1010,794,929,912,853.62,1060,833Z"/><path class="cls-19" d="M1059.71,833.08q-6.87-24.29-37.13-44.34Q943,751.33,868.88,792c-49.4,27.14-4.35,80.06-5.09,144.28,91.84,54.07,96.25,45.92,153.52-9.95Q1071.12,873.77,1059.71,833.08Z"/><path class="cls-17" d="M842.46,1013.16Q828.29,1027,795,1021.89q-56.1-8.55-57.16-82.19,67.73,22,104.63,73.46m-29.34-83.72q35.26,16.17,39.74,56.13-.76,18.18-10.4,27.59Q805.55,961.7,737.83,939.7,777.82,913.32,813.12,929.44Z"/><path class="cls-17" d="M813.12,929.44q35.26,16.17,39.74,56.13-.76,18.18-10.4,27.59Q805.55,961.7,737.83,939.7,777.82,913.32,813.12,929.44Z"/><path class="cls-20" d="M842.46,1013.16Q828.29,1027,795,1021.89q-56.1-8.55-57.16-82.19Q805.56,961.69,842.46,1013.16Z"/><path class="cls-17" d="M491.59,1002.12q7.05,16.71,24.11,28.27,42.79,29,122.47,14.7Q669.72,1039.56,713,987q11.33-13.58,31.4-39.2,16.44-20.17,25.84-26.32-114.37,6.63-278.68,80.66m-.66-45.68q-7.33,22.21-.83,41.7c.46,1.35.95,2.67,1.49,4q164.31-74,278.68-80.66-71.07-78.23-153.64-64.67Q520.48,867.44,490.93,956.44Z"/><path class="cls-17" d="M515.7,1030.39q42.79,29,122.47,14.7Q669.72,1039.56,713,987q11.33-13.58,31.4-39.2,16.44-20.17,25.84-26.32-114.37,6.63-278.68,80.66Q498.64,1018.83,515.7,1030.39Z"/><path class="cls-21" d="M490.93,956.44q-7.33,22.21-.83,41.7c.46,1.35.95,2.67,1.49,4q164.31-74,278.68-80.66-71.07-78.23-153.64-64.67Q520.48,867.44,490.93,956.44Z"/><path class="cls-22" d="M865.7,695.35q-38.38-19.67-97.88,26.46-90.49,70-29.09,208.18,86.76-118,127-234.64M900,733.64q-14.29-28-34.34-38.29Q825.48,812,738.73,930q92.44,10.72,140.15-53.57Q926.48,812.39,900,733.64Z"/><path class="cls-23" d="M767.82,721.81q-90.49,70-29.09,208.18,86.76-118,127-234.64Q827.32,675.69,767.82,721.81Z"/><path class="cls-24" d="M878.88,876.42q47.6-64,21.16-142.78-14.29-28-34.34-38.29Q825.48,812,738.73,930,831.18,940.71,878.88,876.42Z"/><path class="cls-17" d="M657.6,573.28Q610.31,585,610.69,695.19q-6,132,126.64,241,4.92-189.51-79.73-362.92m44.5,5.92q-25.94-10.58-44.5-5.92Q742.24,746.7,737.33,936.2,812,854.72,807.77,723.75,794.18,616.38,702.1,579.2Z"/><path class="cls-17" d="M807.77,723.75Q794.18,616.38,702.1,579.2q-25.94-10.58-44.5-5.92Q742.24,746.7,737.33,936.2,812,854.72,807.77,723.75Z"/><path class="cls-25" d="M657.6,573.28Q610.31,585,610.69,695.19q-6,132,126.64,241Q742.25,746.69,657.6,573.28Z"/><path class="cls-22" d="M541.9,816.82q-13.15,28,21.53,77,52.67,74.49,154.69,28.38-91.26-66-176.22-105.37m26.68-23.55q-19.8,8.93-26.68,23.55,85,39.31,176.22,105.37,1.2-61.07-46.26-102.32Q624.57,778.73,568.58,793.27Z"/><path class="cls-26" d="M568.58,793.27q-19.8,8.93-26.68,23.55,85,39.31,176.23,105.37,1.18-61.07-46.27-102.32Q624.57,778.73,568.58,793.27Z"/><path class="cls-22" d="M541.9,816.82q-13.15,28,21.53,77,52.67,74.49,154.7,28.38Q626.86,856.15,541.9,816.82Z"/></g><path class="cls-27" d="M1081.38,1196.46c0,192.4-86.48,348.38-193.16,348.38s-162-141.56-162-334,10.52-487.06,117.2-487.06S1081.38,1004.06,1081.38,1196.46Z"/></g><g id="Calendar"><g id="Calendar-Back"><g class="cls-28"><path class="cls-29" d="M1790.51,1582.51l-117-461.42c-3.44-13.57-18.32-28.72-33.25-33.85L901.07,833.16c-8.52-2.92-15.21-1.95-18.74,1.94l-13.07,14.41c3.54-3.89,908.79,757.83,906.13,760.76l13.07-14.41C1791.11,1592.92,1792,1588.34,1790.51,1582.51Z"/><path class="cls-30" d="M1017.49,1358.13c-14.92-5.13-29.81-20.29-33.25-33.86l-117-461.42c-3.44-13.57,5.87-20.41,20.8-15.27l739.16,254.07c14.92,5.13,29.81,20.28,33.25,33.85l117,461.43c3.45,13.56-5.86,20.41-20.79,15.28Z"/></g></g><g id="Calendar-Front"><g class="cls-28"><path class="cls-31" d="M1639.39,1140.78c1.94-17.69-8.39-36.13-23.06-41.19L884.72,847.68a21.45,21.45,0,0,0-13.33-.43L853,852.81c4.09-1.24,694.33,911.85,685.56,914.5l18.37-5.56c8.77-2.65,15.45-11.25,16.77-23.31l-3.46,1,3.46-1Z"/><path class="cls-32" d="M1598,1105.16c14.68,5,25,23.49,23.06,41.18L1555.37,1744c-1.95,17.68-15.42,27.93-30.1,22.88L793.66,1515c-14.68-5-25-23.49-23.06-41.18l65.66-597.67c1.94-17.68,15.41-27.93,30.09-22.88Z"/><path class="cls-33" d="M1598,1105.16c14.68,5,25,23.49,23.06,41.18L1555.37,1744c-1.95,17.68-15.42,27.93-30.1,22.88L793.66,1515c-14.68-5-25-23.49-23.06-41.18l65.66-597.67c1.94-17.68,15.41-27.93,30.09-22.88Z"/></g><path class="cls-34" d="M1087.18,981.5,908.62,920c-4.32-1.49-8.28,1.52-8.86,6.73s2.47,10.63,6.79,12.12l178.56,61.48c4.32,1.49,8.29-1.52,8.86-6.73s-2.47-10.63-6.79-12.12"/><path class="cls-34" d="M1527.23,1123.47a2.76,2.76,0,0,0-2.84.56c-1.46,1.34-1.59,4.09-.28,6.13l10.18,15.86L1521.5,1154c-1.65,1-2.11,3.65-1,5.87a4.59,4.59,0,0,0,2.51,2.4,2.79,2.79,0,0,0,2.42-.24l16.25-10.1a3.65,3.65,0,0,0,1.59-2.8,5.72,5.72,0,0,0-.88-3.65l-12.93-20.15a4.33,4.33,0,0,0-2.19-1.82"/><path class="cls-34" d="M1489.05,1110.33a2.75,2.75,0,0,0-2.42.23l-16.25,10.1a3.65,3.65,0,0,0-1.59,2.8,5.66,5.66,0,0,0,.88,3.65l12.93,20.15a4.37,4.37,0,0,0,2.19,1.82,2.75,2.75,0,0,0,2.84-.56c1.46-1.34,1.59-4.09.28-6.13l-10.18-15.85,12.79-8c1.65-1,2.12-3.65,1-5.86a4.56,4.56,0,0,0-2.51-2.4"/></g><g id="Days"><path class="cls-35" d="M1515.64,1640.63l-6.14,55.87c-1,9.11-7.93,14.39-15.5,11.79l-58.36-20.1c-7.57-2.6-12.89-12.1-11.89-21.21l6.14-55.86c1-9.12,7.94-14.4,15.5-11.79l58.38,20.09C1511.33,1622,1516.64,1631.52,1515.64,1640.63Z"/><path class="cls-36" d="M1526.92,1537.94l-6.14,55.87c-1,9.11-7.93,14.39-15.5,11.79l-58.37-20.1c-7.56-2.6-12.88-12.1-11.88-21.21l6.14-55.87c1-9.12,7.94-14.39,15.51-11.78l58.37,20.09C1522.61,1519.34,1527.92,1528.83,1526.92,1537.94Z"/><path class="cls-36" d="M1538.2,1435.25l-6.14,55.87c-1,9.11-7.93,14.39-15.5,11.79l-58.36-20.1c-7.56-2.6-12.88-12.1-11.88-21.21l6.14-55.87c1-9.12,7.94-14.39,15.5-11.78l58.37,20.09C1533.89,1416.65,1539.2,1426.14,1538.2,1435.25Z"/><path class="cls-36" d="M1439.11,1401.13,1433,1457c-1,9.11-7.93,14.39-15.5,11.79l-58.36-20.1c-7.56-2.6-12.88-12.1-11.88-21.21l6.14-55.87c1-9.12,7.94-14.39,15.5-11.78l58.37,20.09C1434.8,1382.53,1440.11,1392,1439.11,1401.13Z"/><path class="cls-36" d="M1427.83,1503.83l-6.14,55.86c-1,9.11-7.93,14.39-15.5,11.79l-58.36-20.1c-7.56-2.6-12.88-12.1-11.88-21.21l6.14-55.86c1-9.13,7.94-14.4,15.5-11.79l58.37,20.1C1423.52,1485.23,1428.83,1494.72,1427.83,1503.83Z"/><path class="cls-36" d="M1416.55,1606.52l-6.14,55.86c-1,9.11-7.93,14.39-15.5,11.79l-58.37-20.1c-7.56-2.6-12.88-12.1-11.88-21.21l6.15-55.86c1-9.12,7.94-14.4,15.5-11.78l58.37,20.09C1412.24,1587.92,1417.55,1597.41,1416.55,1606.52Z"/><path class="cls-36" d="M1317.46,1572.4l-6.14,55.86c-1,9.11-7.93,14.39-15.5,11.79l-58.37-20.1c-7.56-2.6-12.88-12.1-11.88-21.21l6.14-55.86c1-9.12,7.94-14.39,15.5-11.79l58.38,20.09C1313.15,1553.79,1318.46,1563.29,1317.46,1572.4Z"/><path class="cls-36" d="M1328.74,1469.71l-6.14,55.86c-1,9.11-7.93,14.39-15.5,11.79l-58.36-20.1c-7.57-2.6-12.89-12.1-11.89-21.21l6.14-55.86c1-9.13,7.94-14.4,15.5-11.79l58.38,20.09C1324.43,1451.1,1329.74,1460.59,1328.74,1469.71Z"/><path class="cls-36" d="M1340,1367l-6.14,55.86c-1,9.11-7.93,14.39-15.5,11.79l-58.36-20.1c-7.56-2.6-12.88-12.11-11.88-21.22l6.14-55.86c1-9.12,7.94-14.39,15.5-11.78l58.37,20.09C1335.71,1348.41,1341,1357.91,1340,1367Z"/><path class="cls-35" d="M1263.49,1127.51l-6.14,55.86c-1,9.11-7.93,14.39-15.5,11.79l-58.36-20.1c-7.56-2.6-12.88-12.1-11.88-21.21l6.14-55.86c1-9.12,7.94-14.39,15.5-11.78l58.37,20.09C1259.18,1108.91,1264.49,1118.4,1263.49,1127.51Z"/><path class="cls-36" d="M1229.65,1435.59l-6.14,55.86c-1,9.11-7.93,14.39-15.5,11.79l-58.36-20.1c-7.56-2.6-12.88-12.1-11.88-21.21l6.13-55.86c1-9.12,7.94-14.39,15.5-11.78l58.38,20.09C1225.34,1417,1230.65,1426.48,1229.65,1435.59Z"/><path class="cls-36" d="M1218.37,1538.28l-6.14,55.86c-1,9.11-7.93,14.39-15.5,11.79l-58.37-20.1c-7.56-2.6-12.88-12.1-11.88-21.21l6.14-55.86c1-9.13,7.94-14.4,15.5-11.79l58.38,20.1C1214.06,1519.68,1219.37,1529.17,1218.37,1538.28Z"/><path class="cls-36" d="M1119.28,1504.16l-6.14,55.86c-1,9.11-7.93,14.39-15.5,11.79l-58.37-20.1c-7.56-2.6-12.88-12.1-11.88-21.21l6.15-55.86c1-9.12,7.94-14.39,15.5-11.78l58.37,20.09C1115,1485.56,1120.28,1495.05,1119.28,1504.16Z"/><path class="cls-36" d="M1130.56,1401.47l-6.14,55.86c-1,9.11-7.93,14.39-15.5,11.79l-58.36-20.1c-7.56-2.6-12.88-12.1-11.88-21.21l6.14-55.86c1-9.12,7.94-14.39,15.5-11.78l58.37,20.09C1126.25,1382.87,1131.56,1392.36,1130.56,1401.47Z"/><path class="cls-35" d="M1164.4,1093.4l-6.14,55.86c-1,9.11-7.93,14.39-15.5,11.79L1084.4,1141c-7.56-2.6-12.88-12.1-11.88-21.21l6.14-55.87c1-9.12,7.94-14.39,15.5-11.78l58.37,20.09C1160.09,1074.79,1165.4,1084.28,1164.4,1093.4Z"/><path class="cls-35" d="M1065.31,1059.28l-6.14,55.86c-1,9.11-7.93,14.39-15.5,11.79l-58.36-20.1c-7.56-2.6-12.88-12.1-11.88-21.21l6.14-55.86c1-9.12,7.94-14.39,15.5-11.78l58.37,20.09C1061,1040.68,1066.31,1050.17,1065.31,1059.28Z"/><path class="cls-36" d="M1031.47,1367.35l-6.14,55.86c-1,9.11-7.93,14.39-15.5,11.79l-58.36-20.1c-7.56-2.6-12.88-12.1-11.88-21.21l6.14-55.86c1-9.12,7.94-14.39,15.5-11.78l58.37,20.09C1027.16,1348.75,1032.47,1358.24,1031.47,1367.35Z"/><path class="cls-36" d="M1020.19,1470l-6.14,55.86c-1,9.11-7.93,14.39-15.5,11.79l-58.36-20.1c-7.56-2.6-12.88-12.1-11.88-21.21l6.14-55.86c1-9.12,7.94-14.39,15.5-11.78l58.37,20.09C1015.88,1451.44,1021.19,1460.93,1020.19,1470Z"/><path class="cls-36" d="M921.1,1435.92,915,1491.78c-1,9.11-7.93,14.39-15.5,11.79l-58.36-20.1c-7.57-2.6-12.89-12.1-11.89-21.21l6.15-55.86c1-9.12,7.94-14.39,15.5-11.78l58.37,20.09C916.79,1417.32,922.1,1426.81,921.1,1435.92Z"/><path class="cls-36" d="M932.38,1333.23l-6.14,55.86c-1,9.11-7.93,14.39-15.5,11.79l-58.36-20.1c-7.56-2.6-12.88-12.1-11.88-21.21l6.14-55.86c1-9.12,7.94-14.39,15.5-11.78L920.51,1312C928.07,1314.63,933.38,1324.12,932.38,1333.23Z"/><path class="cls-35" d="M966.23,1025.16,960.09,1081c-1,9.11-7.93,14.39-15.51,11.79l-58.36-20.1c-7.56-2.6-12.88-12.1-11.88-21.21l6.14-55.86c1-9.12,7.94-14.39,15.5-11.78L954.35,1004C961.92,1006.56,967.23,1016.05,966.23,1025.16Z"/><g id="DaysLeft-Back"><path class="cls-37" d="M1549.48,1332.56l-6.14,55.86c-1,9.11-7.93,14.39-15.5,11.79l-58.36-20.1c-7.56-2.6-12.88-12.1-11.88-21.21l6.14-55.86c1-9.12,7.94-14.39,15.5-11.78l58.37,20.09C1545.17,1314,1550.48,1323.45,1549.48,1332.56Z"/><path class="cls-37" d="M1560.76,1229.87l-6.14,55.86c-1,9.11-7.93,14.39-15.5,11.79l-58.36-20.1c-7.56-2.6-12.88-12.1-11.88-21.21l6.14-55.86c1-9.12,7.94-14.39,15.5-11.78l58.37,20.09C1556.45,1211.27,1561.76,1220.76,1560.76,1229.87Z"/><path class="cls-37" d="M1450.39,1298.45l-6.14,55.86c-1,9.11-7.93,14.39-15.5,11.79l-58.36-20.1c-7.56-2.6-12.88-12.1-11.88-21.21l6.14-55.87c1-9.12,7.94-14.39,15.5-11.78l58.37,20.09C1446.08,1279.84,1451.39,1289.34,1450.39,1298.45Z"/><path class="cls-37" d="M1351.3,1264.33l-6.14,55.86c-1,9.11-7.93,14.39-15.5,11.79l-58.36-20.1c-7.56-2.6-12.88-12.1-11.88-21.21l6.14-55.86c1-9.12,7.94-14.39,15.5-11.78l58.37,20.09C1347,1245.73,1352.3,1255.22,1351.3,1264.33Z"/><path class="cls-37" d="M1362.58,1161.63l-6.14,55.86c-1,9.11-7.93,14.39-15.5,11.79l-58.36-20.1c-7.56-2.59-12.88-12.1-11.88-21.21l6.14-55.86c1-9.12,7.94-14.39,15.5-11.78l58.37,20.09C1358.27,1143,1363.58,1152.52,1362.58,1161.63Z"/><path class="cls-37" d="M1461.67,1195.75l-6.14,55.86c-1,9.12-7.93,14.4-15.5,11.8l-58.36-20.11c-7.56-2.6-12.88-12.1-11.88-21.21l6.14-55.86c1-9.12,7.94-14.39,15.5-11.78l58.37,20.09C1457.36,1177.15,1462.67,1186.64,1461.67,1195.75Z"/><path class="cls-37" d="M1252.21,1230.21l-6.14,55.86c-1,9.11-7.93,14.39-15.5,11.79l-58.36-20.1c-7.56-2.6-12.88-12.1-11.88-21.21l6.14-55.86c1-9.12,7.94-14.39,15.5-11.78l58.37,20.09C1247.9,1211.61,1253.21,1221.1,1252.21,1230.21Z"/><path class="cls-37" d="M1240.93,1332.89l-6.14,55.87c-1,9.11-7.93,14.39-15.5,11.79l-58.36-20.1c-7.56-2.6-12.88-12.1-11.88-21.21l6.14-55.87c1-9.12,7.94-14.39,15.5-11.78l58.37,20.09C1236.62,1314.29,1241.93,1323.78,1240.93,1332.89Z"/><path class="cls-37" d="M1141.84,1298.78l-6.14,55.86c-1,9.11-7.93,14.39-15.5,11.79l-58.36-20.1c-7.56-2.6-12.88-12.1-11.88-21.21l6.14-55.86c1-9.13,7.94-14.4,15.5-11.79l58.37,20.09C1137.53,1280.17,1142.84,1289.66,1141.84,1298.78Z"/><path class="cls-37" d="M1153.12,1196.09,1147,1252c-1,9.11-7.93,14.39-15.5,11.79l-58.36-20.1c-7.56-2.6-12.88-12.1-11.88-21.21l6.14-55.86c1-9.12,7.94-14.39,15.5-11.78l58.37,20.09C1148.81,1177.49,1154.12,1187,1153.12,1196.09Z"/><path class="cls-37" d="M1054,1162l-6.14,55.86c-1,9.11-7.93,14.39-15.5,11.79L974,1209.52c-7.56-2.6-12.88-12.1-11.88-21.21l6.14-55.86c1-9.12,7.94-14.39,15.5-11.78l58.37,20.09C1049.72,1143.37,1055,1152.86,1054,1162Z"/><path class="cls-37" d="M1042.75,1264.66l-6.14,55.86c-1,9.11-7.93,14.39-15.5,11.79l-58.36-20.1c-7.56-2.6-12.88-12.1-11.88-21.21l6.14-55.86c1-9.12,7.94-14.39,15.5-11.78l58.37,20.09C1038.44,1246.06,1043.75,1255.55,1042.75,1264.66Z"/><path class="cls-37" d="M943.66,1230.54l-6.13,55.86c-1,9.11-7.94,14.39-15.51,11.79l-58.36-20.1c-7.56-2.6-12.88-12.1-11.88-21.21l6.14-55.86c1-9.12,7.94-14.39,15.5-11.78l58.37,20.09C939.35,1211.94,944.66,1221.43,943.66,1230.54Z"/><path class="cls-37" d="M954.94,1127.85l-6.14,55.86c-1,9.11-7.93,14.39-15.5,11.79l-58.36-20.1c-7.56-2.6-12.88-12.1-11.88-21.21l6.14-55.86c1-9.12,7.94-14.39,15.5-11.78l58.37,20.09C950.63,1109.25,955.94,1118.74,954.94,1127.85Z"/></g><g id="DaysLeft-Front"><path class="cls-38" d="M1544.24,1336.21l-6.14,55.87c-1,9.11-7.93,14.39-15.5,11.79l-58.36-20.1c-7.56-2.6-12.88-12.1-11.88-21.21l6.14-55.87c1-9.12,7.94-14.39,15.5-11.78l58.37,20.09C1539.93,1317.61,1545.24,1327.1,1544.24,1336.21Z"/><path class="cls-38" d="M1555.52,1233.52l-6.14,55.86c-1,9.11-7.93,14.39-15.5,11.79l-58.36-20.1c-7.56-2.6-12.88-12.1-11.88-21.21l6.14-55.86c1-9.12,7.94-14.39,15.5-11.78l58.37,20.09C1551.21,1214.92,1556.52,1224.41,1555.52,1233.52Z"/><path class="cls-38" d="M1445.15,1302.1,1439,1358c-1,9.11-7.93,14.39-15.5,11.79l-58.36-20.1c-7.56-2.6-12.88-12.1-11.88-21.21l6.14-55.87c1-9.12,7.94-14.39,15.5-11.78l58.37,20.09C1440.84,1283.49,1446.15,1293,1445.15,1302.1Z"/><path class="cls-38" d="M1346.06,1268l-6.14,55.86c-1,9.11-7.93,14.39-15.5,11.79l-58.36-20.1c-7.56-2.6-12.88-12.1-11.88-21.21l6.14-55.86c1-9.12,7.94-14.39,15.5-11.78l58.37,20.09C1341.75,1249.38,1347.06,1258.87,1346.06,1268Z"/><path class="cls-38" d="M1357.34,1165.28l-6.14,55.86c-1,9.11-7.93,14.39-15.5,11.79l-58.36-20.09c-7.56-2.6-12.88-12.1-11.88-21.21l6.14-55.87c1-9.12,7.94-14.39,15.5-11.78l58.37,20.09C1353,1146.68,1358.34,1156.17,1357.34,1165.28Z"/><path class="cls-38" d="M1456.43,1199.4l-6.14,55.86c-1,9.12-7.93,14.4-15.5,11.8L1376.43,1247c-7.56-2.6-12.88-12.1-11.88-21.21l6.14-55.86c1-9.12,7.94-14.39,15.5-11.78l58.37,20.09C1452.12,1180.8,1457.43,1190.29,1456.43,1199.4Z"/><path class="cls-38" d="M1247,1233.86l-6.14,55.86c-1,9.11-7.93,14.39-15.5,11.79l-58.36-20.1c-7.56-2.6-12.88-12.1-11.88-21.21l6.14-55.86c1-9.12,7.94-14.39,15.5-11.78l58.37,20.09C1242.66,1215.26,1248,1224.75,1247,1233.86Z"/><path class="cls-38" d="M1235.69,1336.54l-6.14,55.87c-1,9.11-7.93,14.39-15.5,11.79l-58.36-20.1c-7.57-2.6-12.89-12.1-11.89-21.21l6.14-55.87c1-9.12,7.94-14.39,15.5-11.78l58.38,20.09C1231.38,1317.94,1236.69,1327.43,1235.69,1336.54Z"/><path class="cls-38" d="M1136.6,1302.43l-6.14,55.86c-1,9.11-7.93,14.39-15.5,11.79L1056.6,1350c-7.56-2.6-12.88-12.1-11.88-21.21l6.14-55.86c1-9.13,7.94-14.4,15.5-11.79l58.37,20.09C1132.29,1283.82,1137.6,1293.31,1136.6,1302.43Z"/><path class="cls-38" d="M1147.88,1199.74l-6.14,55.86c-1,9.11-7.93,14.39-15.5,11.79l-58.36-20.1c-7.56-2.6-12.88-12.1-11.88-21.21l6.14-55.86c1-9.12,7.94-14.39,15.5-11.78l58.37,20.09C1143.57,1181.14,1148.88,1190.63,1147.88,1199.74Z"/><path class="cls-38" d="M1048.79,1165.62l-6.14,55.86c-1,9.11-7.93,14.39-15.5,11.79l-58.36-20.1c-7.56-2.6-12.88-12.1-11.88-21.21l6.14-55.86c1-9.12,7.94-14.39,15.5-11.78l58.37,20.09C1044.48,1147,1049.79,1156.51,1048.79,1165.62Z"/><path class="cls-38" d="M1037.51,1268.31l-6.14,55.86c-1,9.11-7.93,14.39-15.5,11.79l-58.36-20.1c-7.56-2.6-12.88-12.1-11.88-21.21l6.14-55.86c1-9.12,7.94-14.39,15.5-11.78l58.37,20.09C1033.2,1249.71,1038.51,1259.2,1037.51,1268.31Z"/><path class="cls-38" d="M938.42,1234.19l-6.14,55.86c-1,9.11-7.93,14.39-15.5,11.79l-58.36-20.1c-7.56-2.6-12.88-12.1-11.88-21.21l6.14-55.86c1-9.12,7.94-14.39,15.5-11.78L926.55,1213C934.11,1215.59,939.42,1225.08,938.42,1234.19Z"/><path class="cls-38" d="M949.7,1131.5l-6.14,55.86c-1,9.11-7.93,14.39-15.5,11.79l-58.36-20.1c-7.56-2.6-12.88-12.1-11.88-21.21L864,1102c1-9.12,7.94-14.39,15.5-11.78l58.37,20.09C945.39,1112.9,950.7,1122.39,949.7,1131.5Z"/></g></g></g><g id="Bell"><g id="BelBlue"><polygon class="cls-39" points="1775.53 980.46 1750.87 966.13 1776.74 951.19 1801.4 965.53 1775.53 980.46"/><path class="cls-40" d="M1750.86,966.13c-2.57,6-5.15,8.93-9,11.17s-6.48.76-9.07-.72l24.67,14.34c2.59,1.48,5.18,3,9.07.71s6.46-5.21,9-11.17Z"/><polygon class="cls-41" points="1731.55 1005.86 1706.88 991.52 1732.76 976.58 1757.43 990.92 1731.55 1005.86"/><path class="cls-42" d="M1732.87,1014h0c0-3-1.31-5.19-1.32-8.16l-24.67-14.34c0,3,1.31,5.2,1.32,8.17a19.54,19.54,0,0,0,8.18,10.18l24.67,14.33A19.51,19.51,0,0,1,1732.87,1014Z"/><path class="cls-43" d="M1766.5,991.63c3.88-2.24,6.46-5.21,9-11.17l25.87-14.93a26.77,26.77,0,0,1-1.26,9.65c-5.13,19.35-18,37.22-33.56,46.18s-28.49,6-33.71-7.34a23.37,23.37,0,0,1-1.32-8.16l25.88-14.94C1760,992.4,1762.61,993.87,1766.5,991.63Z"/><polygon class="cls-44" points="1842.63 880.68 1817.96 866.35 1837.43 877.44 1862.1 891.77 1842.63 880.68"/><path class="cls-45" d="M1798.14,723.49l24.67,14.33c-9.71-5.64-22.1-6.88-35-4.15l-24.67-14.33C1776,716.61,1788.44,717.85,1798.14,723.49Z"/><path class="cls-46" d="M1756.76,708.26c-4-2.31-9.46-2.12-15.69,1.48-11.65,6.72-20.67,22.35-21.93,36.48-29.72,26.1-55.51,70.76-55.41,106.44l.29,102.56L1646,988c-3.87,6.7-5.15,13.4-2.55,17.85a8.55,8.55,0,0,0,3,3.18l24.67,14.34a8.55,8.55,0,0,1-3-3.18c-2.6-4.46-1.32-11.15,2.54-17.85l18-32.75L1688.4,867c-.1-35.67,25.68-80.34,55.41-106.44,1.26-14.12,10.28-29.75,21.93-36.48,6.22-3.59,11.72-3.78,15.69-1.48Z"/><path class="cls-43" d="M1862.1,891.77c5.18,3,5.21,11.88,1.35,20.06a29.14,29.14,0,0,1-10.34,10.44l-173.34,100.08q-7.77,4.48-11.67-2.19c-2.6-4.46-1.32-11.15,2.54-17.85l18-32.75L1688.4,867c-.1-35.68,25.68-80.35,55.41-106.45,1.26-14.12,10.28-29.75,21.93-36.48s20.73-1.55,22,9.6c28.49-6,54.44,7.28,54.55,44.45l.29,102.56Z"/></g></g></svg>