<svg id="TwoPerson" xmlns="http://www.w3.org/2000/svg" xmlns:xlink="http://www.w3.org/1999/xlink" viewBox="0 0 2500 2500"><defs><style>.cls-1,.cls-24,.cls-50{fill:none;}.cls-2{filter:url(#AI_DesenfoqueGaussiano_7);}.cls-3{fill:url(#linear-gradient);}.cls-4{fill:url(#radial-gradient);}.cls-5{clip-path:url(#clip-path);}.cls-6{fill:#6ad8cf;}.cls-7{fill:#c2ebe8;}.cls-8{fill:url(#Nueva_muestra_de_degradado_3);}.cls-9{fill:#91e2db;}.cls-10{fill:url(#Degradado_sin_nombre_49);}.cls-11{opacity:0.2;}.cls-12{fill:url(#linear-gradient-2);}.cls-13,.cls-32{opacity:0.39;}.cls-14{fill:url(#linear-gradient-4);}.cls-15{fill-opacity:0.2;}.cls-15,.cls-16{fill:url(#Nueva_muestra_de_degradado_41);}.cls-16{fill-opacity:0.4;}.cls-17{fill-opacity:0.1;fill:url(#Nueva_muestra_de_degradado_41-3);}.cls-18{fill:#3b6d99;}.cls-19{fill:#0b477d;}.cls-20{fill:#d2a57d;}.cls-21{fill:#e8ceb7;}.cls-22{fill:#7a9db9;}.cls-23{fill:url(#Degradado_sin_nombre_463);}.cls-24{stroke:#4f18cd;stroke-miterlimit:10;stroke-width:4.58px;}.cls-24,.cls-50{stroke-linecap:round;}.cls-25{fill:#cedce7;}.cls-26{fill:#1cabb9;}.cls-27{fill:#97eee5;}.cls-28{fill:#7499b8;}.cls-29{fill:url(#linear-gradient-5);}.cls-30{fill:url(#linear-gradient-6);}.cls-31{fill:#b6b9b8;}.cls-32{fill:#747877;}.cls-33{opacity:0.36;}.cls-34{fill:#141226;}.cls-35{fill:#d3dee8;}.cls-36{fill:#8586c1;}.cls-37{fill:#e7708a;}.cls-38{fill:url(#Nueva_muestra_de_degradado_13);}.cls-39{fill:#225b8b;}.cls-40{fill:url(#Nueva_muestra_de_degradado_38);}.cls-41{fill:url(#Nueva_muestra_de_degradado_38-2);}.cls-42{fill:#7a67e5;}.cls-43{fill:#84a8c6;}.cls-44{fill:#1e5d95;}.cls-45{filter:url(#AI_DesenfoqueGaussiano_4);}.cls-46,.cls-47{fill:#16292b;}.cls-46{opacity:0.16;}.cls-47{opacity:0.32;}.cls-48{fill:#e6eae9;}.cls-49{fill:#a4a9a8;}.cls-50{stroke:#a4a9a8;stroke-linejoin:round;stroke-width:9.36px;}.cls-51{fill:#00b287;fill-rule:evenodd;}</style><filter id="AI_DesenfoqueGaussiano_7" name="AI_DesenfoqueGaussiano_7"><feGaussianBlur stdDeviation="7"/></filter><linearGradient id="linear-gradient" x1="29.44" y1="33.16" x2="247.63" y2="33.16" gradientUnits="userSpaceOnUse"><stop offset="0" stop-color="#5d7586" stop-opacity="0.2"/><stop offset="0.48" stop-color="#5d7586" stop-opacity="0.05"/><stop offset="1" stop-color="#5d7586" stop-opacity="0"/></linearGradient><radialGradient id="radial-gradient" cx="2494.08" cy="-1747.28" r="44.83" gradientTransform="translate(-3438.44 1452.58) scale(1.4 0.81)" gradientUnits="userSpaceOnUse"><stop offset="0" stop-color="#5d7586" stop-opacity="0.15"/><stop offset="1" stop-color="#5d7586" stop-opacity="0"/></radialGradient><clipPath id="clip-path"><path class="cls-1" d="M464.16,1503s88.26-70.16,319.44-125c234-55.52,203.09-240.92,203.09-240.92L551.53,525.34,321.84,618.58,92.15,858s-7.07,528.45,8.83,528.45S265.3,1512.8,265.3,1512.8Z"/></clipPath><linearGradient id="Nueva_muestra_de_degradado_3" x1="-369.56" y1="1152.38" x2="-419.02" y2="1253.63" gradientTransform="translate(1407.2 300.41) rotate(17.32)" gradientUnits="userSpaceOnUse"><stop offset="0" stop-color="#c2ebe8" stop-opacity="0.1"/><stop offset="0.05" stop-color="#8fe0d9" stop-opacity="0.1"/><stop offset="0.15" stop-color="#6ad8cf" stop-opacity="0.1"/><stop offset="0.87" stop-color="#43a39b" stop-opacity="0.3"/></linearGradient><radialGradient id="Degradado_sin_nombre_49" cx="711.58" cy="1576.51" r="572.61" gradientTransform="translate(0 -1252.31) scale(1 1.79)" gradientUnits="userSpaceOnUse"><stop offset="0.16" stop-color="#43a39b" stop-opacity="0.6"/><stop offset="0.6" stop-color="#6ad8cf" stop-opacity="0.1"/><stop offset="0.77" stop-color="#79dbd3" stop-opacity="0.08"/><stop offset="0.94" stop-color="#a7e5e0" stop-opacity="0.03"/><stop offset="1" stop-color="#c2ebe8" stop-opacity="0"/></radialGradient><linearGradient id="linear-gradient-2" x1="332.14" y1="1688.36" x2="2197.66" y2="1688.36" gradientUnits="userSpaceOnUse"><stop offset="0.01" stop-color="#00b287" stop-opacity="0.9"/><stop offset="0.35" stop-color="#08ad9f" stop-opacity="0.87"/><stop offset="1" stop-color="#1da1dc" stop-opacity="0.8"/></linearGradient><linearGradient id="linear-gradient-4" x1="332.14" y1="1688.36" x2="2197.66" y2="1688.36" gradientUnits="userSpaceOnUse"><stop offset="0.01" stop-color="#00b287" stop-opacity="0.8"/><stop offset="0.41" stop-color="#0aaca4" stop-opacity="0.77"/><stop offset="1" stop-color="#1da1dc" stop-opacity="0.7"/></linearGradient><linearGradient id="Nueva_muestra_de_degradado_41" x1="-78.35" y1="1577.96" x2="1610.48" y2="1688.2" gradientUnits="userSpaceOnUse"><stop offset="0.01" stop-color="#00b287" stop-opacity="0.7"/><stop offset="0.48" stop-color="#0cabaa" stop-opacity="0.66"/><stop offset="1" stop-color="#1da1dc" stop-opacity="0.6"/></linearGradient><linearGradient id="Nueva_muestra_de_degradado_41-3" x1="846.38" y1="1665.39" x2="1675.69" y2="1665.39" xlink:href="#Nueva_muestra_de_degradado_41"/><linearGradient id="Degradado_sin_nombre_463" x1="1479.7" y1="6164.6" x2="1483.21" y2="6164.6" gradientTransform="matrix(6.44, 0, 0, -6.44, -8731.38, 40556.25)" gradientUnits="userSpaceOnUse"><stop offset="0" stop-color="#05034c" stop-opacity="0.3"/><stop offset="1" stop-color="#05034c" stop-opacity="0"/></linearGradient><linearGradient id="linear-gradient-5" x1="1449.26" y1="1194.24" x2="1408.32" y2="1063.44" gradientUnits="userSpaceOnUse"><stop offset="0" stop-color="#a9acab"/><stop offset="0.98" stop-color="#969a9a"/><stop offset="1" stop-color="#b6b9b8"/></linearGradient><linearGradient id="linear-gradient-6" x1="1511.51" y1="1272.34" x2="1484.22" y2="1185.14" gradientUnits="userSpaceOnUse"><stop offset="0" stop-color="#a9acab"/><stop offset="0.06" stop-color="#b6b9b8"/><stop offset="0.99" stop-color="#c5c7c6"/></linearGradient><linearGradient id="Nueva_muestra_de_degradado_13" x1="1798.53" y1="1140.94" x2="1494.2" y2="1081.39" gradientTransform="translate(382.09 -479.23) rotate(17.81)" gradientUnits="userSpaceOnUse"><stop offset="0" stop-color="#01171a" stop-opacity="0"/><stop offset="1" stop-color="#01171a"/></linearGradient><linearGradient id="Nueva_muestra_de_degradado_38" x1="1660.46" y1="1278.45" x2="1781.02" y2="1740.09" gradientUnits="userSpaceOnUse"><stop offset="0" stop-color="#141226" stop-opacity="0.5"/><stop offset="1" stop-color="#141226" stop-opacity="0.1"/></linearGradient><linearGradient id="Nueva_muestra_de_degradado_38-2" x1="1711.72" y1="1267.05" x2="1626.45" y2="1499.35" xlink:href="#Nueva_muestra_de_degradado_38"/><filter id="AI_DesenfoqueGaussiano_4" name="AI_DesenfoqueGaussiano_4"><feGaussianBlur stdDeviation="4"/></filter><symbol id="shadowsvgdark2OK" data-name="shadowsvgdark2OK" viewBox="0 0 269.62 74.11"><g class="cls-2"><path class="cls-3" d="M247.63,33.05c.09,15.15-21,27.43-47.19,27.42-15.51-1-133.11,2.81-145.22-2.92-44.8-12.91-27-52.66,21-51.93,4.82.37,132.49-.74,133.45.56C225,8.18,246.28,15.22,247.63,33.05Z"/></g><ellipse class="cls-4" cx="62.94" cy="37.81" rx="62.94" ry="36.3"/></symbol></defs><g id="Plant"><g class="cls-5"><g id="Plant_4" data-name="Plant 4"><path class="cls-6" d="M502.62,839.49l-4.77-1-16.12,78.91-8,63.22-3.09,66q0,1.75.05,15.44l1.43,34.6,4.53,43.53,10,53,.17.46,8,29.63q4.81,16.1,10.52,31.33l10.79,26.44,23.21,45.74.29.4,5,8.71,33.41,48.2L595,1404.3l26.51,27.52q1.72,1.77,7.58,7.22l26.63,22.8q4.79,3.87,5.39,4.27l23,16.89,5.76-7.51-26.6-22.58q-13.2-11.78-25.08-23.45l-14.7-14.93q-7.71-8.1-15.71-17.32l-3.07-3.44-.42-.65-.54-.58-25-31.49-11-15.75-23.54-38.7q-8.49-15.9-13.85-27.61l-12.44-29.13q-6.09-16-10.59-30.42l-8.05-28.28-.17-.47-4.32-18.32-6.29-33.94-6.71-64.09-1-34.26.1-1,1.8-56.88,0-.85.14-.78,4.5-48.28Z"/><path class="cls-7" d="M700.26,1218.65q-52.08-3.48-85.67,62.3t19.83,190.3q119.52-69.2,120.32-155.81T700.26,1218.65Z"/><path class="cls-8" d="M700.26,1218.65q-52.08-3.48-85.67,62.3t19.83,190.3q119.52-69.2,120.32-155.81T700.26,1218.65Z"/><path class="cls-6" d="M700,1258.53l0,.22-7.5,61.21-10.44,44.46-11.48,33.16-4.46,10.3q-4.62,10.15-8.27,16.88l-10.21,17.83-.34.41-3.06,4.84-.31.32-.24.44L633.39,1463l-.31.32-7,8.88,9.55,7.54,6.78-9.48.24-.44.89-1.17,13-20.69,9.69-19.13q3.27-6.84,7.62-17.81l8.46-24.47L694,1335.09l5.7-55.46q.06-.18.47-11.13l.25-9.75.06-.19Z"/><path class="cls-9" d="M467,1502.67q70.75,25.78,149.59,22.12,50.43-4.26,107.54-23.6Q596.35,1211.86,414.6,1214T259,1345.9q11,39.4,44.1,71.3Q369.28,1481.4,467,1502.67Z"/><path class="cls-9" d="M728.15,924.42q-35.07-49.81-102.86-2.69-75.63,52.59-124.92,208.09,81.84-18.71,150.28-73.7Q751.45,974.84,728.15,924.42Z"/><path class="cls-7" d="M375.49,736.4q-35.85,23.19-28.72,91.44,17.07,162.63,120,249.39-6.27-88.56-9.27-152.14t-14.39-114.5Q416,710.2,375.49,736.4Z"/><path class="cls-7" d="M491.23,748.9l4.07,114.39q56.05-61.38,66.76-141t-32.27-65.12Q488.47,671.18,491.23,748.9Z"/><path class="cls-6" d="M396.75,1303.47l-.22.35,31.91,12.85.57.17,81.93,39.63L529.7,1367l67.87,42.89q12.79,8.76,28.11,20.05l48.21,37.91q10,8.3,18.56,15.82l32.25,29,11-12.31L682.43,1457l-50.27-36.28q-16.21-11.05-29.25-19l-26.85-16.45-62.63-33.81-63.21-28.3c-.69-.22-1.71-.6-3.05-1.16l-50.26-18.37Z"/><path class="cls-6" d="M686.33,941.39,650,970l-64.18,58.13L544,1071.69l-20.71,23.25-34.78,43.49,3.11,16.91q7.44-20.17,38.18-55.06l55.45-64L605,1015.6l42.61-40.74,38.89-33.1.16-.16-.23-.28Z"/><path class="cls-6" d="M391.46,831.22l11.1,75.6,3.3,17L416,966.28l19.36,58.4L454,1064.85l18.12,31.84,1.55-17.94-11.54-18.4a8.09,8.09,0,0,0-.9-1.42l-15.39-29.64-19.75-49.52-4.85-15-17.3-66.66L391.74,831l-.35.1Z"/><path class="cls-6" d="M527.59,699.69l1-2.67.15-.16-.34-.21-.06.18-7,16.86L516.48,731l-16.91,96.37-9,46.77,7.06-4.74,18.53-120.48q1-8.17,2-14.17l4.47-20.65,4.64-13.87Z"/><path id="Dark_gradient" data-name="Dark gradient" class="cls-10" d="M735.68,1500.34,716.83,1485q-12.8-27.81-26.12-52.77,63.42-53.79,64-116.81.9-86.6-54.48-96.79-52.08-3.48-85.67,62.3a113.66,113.66,0,0,0-9.41,26.34q-43.9-48-92.37-71.3c-2-5.67-3.84-11.2-5.51-16.55l-8.05-28.28-.17-.47-4.32-18.32-3.16-17.07q4.15-11.28,15.6-27.14,77.88-19.4,143.45-72,100.8-81.28,77.5-131.7-35.07-49.81-102.86-2.69-73,50.79-121.51,197.56l-15.31,19.14-6.71-64.09-1-34.26.1-1,1.8-56.88,0-.85.14-.78,4.5-48.28,12.22-73.71q52.26-59.72,62.6-136.34,10.7-79.68-32.27-65.12-41.32,14.05-38.56,91.78l3.66,102.81-4.31,22.43h0l-8.85,43.3-8,63.22-3.09,66q0,1.75.05,15.44l.53,12.75L466,1066.6q-5.7-81.78-8.52-141.51-3-63.44-14.39-114.5Q416,710.2,375.49,736.4q-35.85,23.19-28.72,91.44,16.08,153.21,108.38,239.07l17,29.78,4.53,43.53,10,53,.17.46,8,29.63c.57,1.88,1.15,3.74,1.73,5.61A216.3,216.3,0,0,0,414.6,1214Q232.87,1216.18,259,1345.9q11,39.4,44.1,71.3,66.17,64.2,163.89,85.47,70.75,25.78,149.59,22.12,46.47-3.93,98.62-20.67l9.49,8.53Z"/></g></g></g><g id="Man-Woman-Right"><g id="Circle"><g class="cls-11"><path class="cls-12" d="M1264.9,2050.65c-125.55,0-247.35-9.48-362-28.17-110.83-18.07-210.4-43.94-295.94-76.91-85.77-33-153.18-71.61-200.35-114.59-49.4-45-74.44-93-74.44-142.62s25-97.62,74.44-142.63c47.17-43,114.58-81.53,200.35-114.59,85.54-33,185.11-58.84,295.94-76.91,114.68-18.69,236.48-28.17,362-28.17s247.35,9.48,362,28.17c110.83,18.07,210.4,43.94,295.94,76.91,85.77,33.06,153.18,71.61,200.35,114.59,49.4,45,74.44,93,74.44,142.63s-25,97.62-74.44,142.62c-47.17,43-114.58,81.54-200.35,114.59-85.54,33-185.11,58.84-295.94,76.91C1512.25,2041.17,1390.45,2050.65,1264.9,2050.65Zm0-715.43c-247.37,0-479.88,37.1-654.67,104.47-84.71,32.64-151.16,70.6-197.48,112.81-47.41,43.2-71.45,88.91-71.45,135.86s24,92.65,71.45,135.85c46.32,42.21,112.77,80.17,197.48,112.81,174.79,67.37,407.3,104.47,654.67,104.47s479.88-37.1,654.67-104.47c84.71-32.64,151.16-70.6,197.48-112.81,47.41-43.2,71.45-88.91,71.45-135.85s-24-92.66-71.45-135.86c-46.32-42.21-112.77-80.17-197.48-112.81C1744.78,1372.32,1512.28,1335.22,1264.9,1335.22Z"/><path class="cls-12" d="M1264.9,2050.65c-125.55,0-247.35-9.48-362-28.17-110.83-18.07-210.4-43.94-295.94-76.91-85.77-33-153.18-71.61-200.35-114.59-49.4-45-74.44-93-74.44-142.62s25-97.62,74.44-142.63c47.17-43,114.58-81.53,200.35-114.59,85.54-33,185.11-58.84,295.94-76.91,114.68-18.69,236.48-28.17,362-28.17s247.35,9.48,362,28.17c110.83,18.07,210.4,43.94,295.94,76.91,85.77,33.06,153.18,71.61,200.35,114.59,49.4,45,74.44,93,74.44,142.63s-25,97.62-74.44,142.62c-47.17,43-114.58,81.54-200.35,114.59-85.54,33-185.11,58.84-295.94,76.91C1512.25,2041.17,1390.45,2050.65,1264.9,2050.65Zm0-715.43c-247.37,0-479.88,37.1-654.67,104.47-84.71,32.64-151.16,70.6-197.48,112.81-47.41,43.2-71.45,88.91-71.45,135.86s24,92.65,71.45,135.85c46.32,42.21,112.77,80.17,197.48,112.81,174.79,67.37,407.3,104.47,654.67,104.47s479.88-37.1,654.67-104.47c84.71-32.64,151.16-70.6,197.48-112.81,47.41-43.2,71.45-88.91,71.45-135.85s-24-92.66-71.45-135.86c-46.32-42.21-112.77-80.17-197.48-112.81C1744.78,1372.32,1512.28,1335.22,1264.9,1335.22Z"/></g><g class="cls-13"><g class="cls-11"><path class="cls-14" d="M1264.9,2050.65c-125.55,0-247.35-9.48-362-28.17-110.83-18.07-210.4-43.94-295.94-76.91-85.77-33-153.18-71.61-200.35-114.59-49.4-45-74.44-93-74.44-142.62s25-97.62,74.44-142.63c47.17-43,114.58-81.53,200.35-114.59,85.54-33,185.11-58.84,295.94-76.91,114.68-18.69,236.48-28.17,362-28.17s247.35,9.48,362,28.17c110.83,18.07,210.4,43.94,295.94,76.91,85.77,33.06,153.18,71.61,200.35,114.59,49.4,45,74.44,93,74.44,142.63s-25,97.62-74.44,142.62c-47.17,43-114.58,81.54-200.35,114.59-85.54,33-185.11,58.84-295.94,76.91C1512.25,2041.17,1390.45,2050.65,1264.9,2050.65Zm0-715.43c-247.37,0-479.88,37.1-654.67,104.47-84.71,32.64-151.16,70.6-197.48,112.81-47.41,43.2-71.45,88.91-71.45,135.86s24,92.65,71.45,135.85c46.32,42.21,112.77,80.17,197.48,112.81,174.79,67.37,407.3,104.47,654.67,104.47s479.88-37.1,654.67-104.47c84.71-32.64,151.16-70.6,197.48-112.81,47.41-43.2,71.45-88.91,71.45-135.85s-24-92.66-71.45-135.86c-46.32-42.21-112.77-80.17-197.48-112.81C1744.78,1372.32,1512.28,1335.22,1264.9,1335.22Z"/></g></g></g><g id="right_element" data-name="right element"><g id="right_element-2" data-name="right element"><ellipse class="cls-15" cx="1261.03" cy="1665.39" rx="335.74" ry="130.37"/><ellipse class="cls-16" cx="1261.03" cy="1665.39" rx="335.74" ry="130.37"/><ellipse class="cls-17" cx="1261.03" cy="1665.39" rx="414.66" ry="161.02"/></g></g><g id="man"><use width="269.62" height="74.11" transform="translate(568.32 1417.2) scale(3.58)" xlink:href="#shadowsvgdark2OK"/><g id="Layer0_1_MEMBER_0_MEMBER_0_MEMBER_0_FILL" data-name="Layer0 1 MEMBER 0 MEMBER 0 MEMBER 0 FILL"><path class="cls-18" d="M938.49,1427.31h-33.2l-1,49.24q-3,7.26,21.8,21.25,42.61,16.59,23.29-9.85L935,1465.14Z"/></g><g id="Layer0_1_MEMBER_1_MEMBER_0_MEMBER_0_FILL" data-name="Layer0 1 MEMBER 1 MEMBER 0 MEMBER 0 FILL"><path class="cls-19" d="M882.49,1008.5q-7.44,113,25.77,263.83-14.87,80.34-3,183.48,10.89,12.45,30.72,6.74l2.48-9.85Q997,1224.64,964.26,987.76Z"/></g><g id="Layer0_1_MEMBER_2_MEMBER_0_MEMBER_0_FILL" data-name="Layer0 1 MEMBER 2 MEMBER 0 MEMBER 0 FILL"><path class="cls-18" d="M832.44,1553.78l-14.38-23.33,3.47-37.83h-33.2l-1,49.76q-3,7.77,21.31,20.73Q851.76,1580.21,832.44,1553.78Z"/></g><g id="Layer0_1_MEMBER_3_MEMBER_0_MEMBER_0_FILL" data-name="Layer0 1 MEMBER 3 MEMBER 0 MEMBER 0 FILL"><path class="cls-19" d="M827,992.43q-40.63,65.82-25.27,288.19c-17.84,42.5-24.61,120.9-14.7,240.81,7.93,8.29,21.14,13.51,34,10.06q-.49-.52,2.47-9.85Q882,1291,912.22,1009.53Z"/></g><g id="Layer0_1_MEMBER_4_MEMBER_0_MEMBER_0_FILL" data-name="Layer0 1 MEMBER 4 MEMBER 0 MEMBER 0 FILL"><path class="cls-20" d="M1133.3,986.41a148.43,148.43,0,0,0,30,8.8q-5.41-1.51,37,2.78,5.76-4.07-10.72-20.45-13.2-9.4-41.05-11.13l-21.33,15.27Z"/></g><g id="Layer0_1_MEMBER_5_MEMBER_0_MEMBER_0_FILL" data-name="Layer0 1 MEMBER 5 MEMBER 0 MEMBER 0 FILL"><path class="cls-21" d="M1157.57,983.73q26.75,1.8,21.85-6l-15.77-7.83q-4.94-4.8-25.23-6.31L1125,981.82Q1135,988.41,1157.57,983.73Z"/></g><g id="Layer0_1_MEMBER_6_MEMBER_0_MEMBER_0_FILL" data-name="Layer0 1 MEMBER 6 MEMBER 0 MEMBER 0 FILL"><path class="cls-22" d="M916.78,821.79q40.77,124.61,54.58,133.34,44.73,31.74,179.84,40.5V967.21l-145.66-61.6Q994.07,792.24,976.75,757,960.88,725.82,950,722.19Z"/></g><g id="Layer0_1_MEMBER_7_MEMBER_0_MEMBER_0_FILL" data-name="Layer0 1 MEMBER 7 MEMBER 0 MEMBER 0 FILL"><path class="cls-23" d="M793.78,873.73,804.68,925q14.37-48.19,10.9-104.18Z"/></g><path id="Layer0_1_MEMBER_8_MEMBER_0_1_STROKES" data-name="Layer0 1 MEMBER 8 MEMBER 0 1 STROKES" class="cls-24" d="M857,986.57l-34.2-4.66"/><path id="Layer0_1_MEMBER_9_MEMBER_0_1_STROKES" data-name="Layer0 1 MEMBER 9 MEMBER 0 1 STROKES" class="cls-24" d="M954.14,973.61l-8.42,5.19"/><g id="Layer0_1_MEMBER_10_FILL" data-name="Layer0 1 MEMBER 10 FILL"><path class="cls-25" d="M912.31,721.71q-23.79,5.14-53,18.68a570.2,570.2,0,0,0-60.44,35.26q-17.4,10.32-13.39,31.57l28.71,156-17.86,68.44q26.34,37.36,78.37,37.36,84-7.14,108-35.27l-17.79-57q20.33-189.21,4.93-229.16-8.48-36.79-57.51-25.92M890,899.74c-.4,1.78-.79,3.82-1.15,6.12Q888.14,899.08,890,899.74Z"/></g><g id="Layer0_1_MEMBER_11_MEMBER_0_MEMBER_0_FILL" data-name="Layer0 1 MEMBER 11 MEMBER 0 MEMBER 0 FILL"><path class="cls-21" d="M912.72,732.39l-3.47-31.1q12.88-3.63,13.38-26.43-3.46-11.93-2-21.77,2-14-5.45-20.22Q886,612.14,865.14,637q-5.45,8.81-1,30.58l6,18.66q-5.46,34.22-13.88,56.5l3,2.59q29.24,18.66,53.52,14,2.47-1.05-.5-27Z"/></g><g id="Layer0_1_MEMBER_12_MEMBER_0_MEMBER_0_FILL" data-name="Layer0 1 MEMBER 12 MEMBER 0 MEMBER 0 FILL"><path class="cls-20" d="M885,698.7q12.88,11.4,24.78,10.37l-.5-6.74h-1Q899.83,704.4,885,698.7Z"/></g><g id="Layer0_1_MEMBER_13_MEMBER_0_MEMBER_0_MEMBER_0_MEMBER_0_FILL" data-name="Layer0 1 MEMBER 13 MEMBER 0 MEMBER 0 MEMBER 0 MEMBER 0 FILL"><path class="cls-20" d="M964.16,1050.47l3.84,10.17q37.37-12.32,38.65-20Q992.7,1042.84,964.16,1050.47Z"/></g><g id="Layer0_1_MEMBER_13_MEMBER_1_MEMBER_0_MEMBER_0_MEMBER_0_FILL" data-name="Layer0 1 MEMBER 13 MEMBER 1 MEMBER 0 MEMBER 0 MEMBER 0 FILL"><path class="cls-22" d="M847.8,1006.26q-.16-121.92-11.55-172.47-20.25-49.68-44-52.74-15.63,11.26-18,61.36-4.53,89.05,31.11,181.81,30.25,48.39,154.66,49.2l46-18.6Z"/></g><g id="Layer0_1_MEMBER_13_MEMBER_2_MEMBER_0_MEMBER_0_MEMBER_0_MEMBER_0_FILL" data-name="Layer0 1 MEMBER 13 MEMBER 2 MEMBER 0 MEMBER 0 MEMBER 0 MEMBER 0 FILL"><path class="cls-26" d="M982.31,1113q-1.18,6.63,6.24,10.81l100.85-22.36q6.78-1.5,7.7-7l43-145.18q-3.09-7.78-9.12-7.51l-102,16.77q-5.93.78-8.18,7.11Z"/></g><g id="Layer0_1_MEMBER_13_MEMBER_2_MEMBER_1_MEMBER_0_MEMBER_0_MEMBER_0_FILL" data-name="Layer0 1 MEMBER 13 MEMBER 2 MEMBER 1 MEMBER 0 MEMBER 0 MEMBER 0 FILL"><path class="cls-27" d="M987,1118.86c-1.18,4.15.32,5.76,4.53,4.83l102-16.77q6.4-.9,8.29-6.61l38.43-147.87q1.77-6.23-5-4.72L1033.17,964a9.87,9.87,0,0,0-7.7,7Z"/></g><g id="Layer0_1_MEMBER_13_MEMBER_3_MEMBER_0_MEMBER_0_MEMBER_0_FILL" data-name="Layer0 1 MEMBER 13 MEMBER 3 MEMBER 0 MEMBER 0 MEMBER 0 FILL"><path class="cls-21" d="M989.83,1078.11q7.75-1.21,17.41-14.5,8.43.18,9.71-7.48L980.6,1047l-24.27,26.23Q981.65,1080.72,989.83,1078.11Z"/></g><g id="Layer0_1_MEMBER_14_FILL" data-name="Layer0 1 MEMBER 14 FILL"><path class="cls-28" d="M886.67,643.52l31,6.85Q935,654.06,940.72,632q-57-27.91-75.22,2.09-18.46,7.64-.77,62.08,12.46-3,9.16-33.17Q893.75,672.48,886.67,643.52Z"/></g></g><g id="Woman"><g id="Laptop"><path class="cls-29" d="M1506.15,1036a4.8,4.8,0,0,0-1.83-2.83,1.42,1.42,0,0,0-1-.23l-.14,0L1314.46,1092l.13,0a1.41,1.41,0,0,1,1,.22,4.85,4.85,0,0,1,1.84,2.83l35.31,130.73,188.78-59.1Z"/><path class="cls-30" d="M1640.33,1226.09l-98.86-59.4-188.78,59.1,98.87,59.41a5.45,5.45,0,0,1,2,4.39c0,1.14-.43,1.9-1,2.09l188.78-59.11c.61-.19,1-1,1-2.09A5.47,5.47,0,0,0,1640.33,1226.09Z"/><path class="cls-31" d="M1315.54,1092.23a4.85,4.85,0,0,1,1.84,2.83l35.31,130.73,98.87,59.41a5.45,5.45,0,0,1,2,4.39c0,1.74-1,2.58-2.12,1.9l-100.14-60.17a4.87,4.87,0,0,1-1.83-2.83l-35.87-132.78c-.51-1.87-.07-3.52,1-3.7A1.41,1.41,0,0,1,1315.54,1092.23Z"/><path class="cls-32" d="M1362.33,1214.88a4.79,4.79,0,0,1-6.09-3.31l-30-109.18a5.22,5.22,0,0,1,3.45-6.31l166.7-51.95a4.82,4.82,0,0,1,6.1,3.33l29.86,108.45a5.25,5.25,0,0,1-3.44,6.33Z"/></g><use width="269.62" height="74.11" transform="translate(1423.28 1710.79) scale(3.58)" xlink:href="#shadowsvgdark2OK"/><g class="cls-33"><g id="Layer1_5_MEMBER_9_FILL" data-name="Layer1 5 MEMBER 9 FILL"><path class="cls-34" d="M1730.56,979.41l-32.81,51.07,2.76,113.57-38.87,37-3.84,57.3q41.82-23,85.79-63.93Q1744.32,1101.71,1730.56,979.41Z"/></g></g><path class="cls-35" d="M1743.63,1174.39l4.33-4.08q23.11-64.18-4.31-170-4-15.69-10-25.07-31.51-49.29-35.9,55.29l2.76,113.57-38.84,37m82-6.66q-44,40.89-85.84,63.95a253.49,253.49,0,0,1-55.23,23l-5.12-19.11,64.23-61.13"/><g id="Layer1_5_MEMBER_0_FILL" data-name="Layer1 5 MEMBER 0 FILL"><path class="cls-28" d="M1627.71,1861.43q16.36,4,16.47-3.47v-33.5l-27.83,8.9q-49.29-4.59-46.66,4.42Q1586.36,1851.67,1627.71,1861.43Z"/></g><g id="Layer1_5_MEMBER_1_FILL" data-name="Layer1 5 MEMBER 1 FILL"><path class="cls-28" d="M1735.55,1807.74q16.37,4,16.47-3.46v-33.51l-27.82,8.91q-49.31-4.61-46.67,4.42Q1694.2,1798,1735.55,1807.74Z"/></g><g id="Layer1_5_MEMBER_2_MEMBER_0_MEMBER_0_MEMBER_0_FILL" data-name="Layer1 5 MEMBER 2 MEMBER 0 MEMBER 0 MEMBER 0 FILL"><path class="cls-36" d="M1646.54,940.47l-1-.13.15,6.67q11.77,0,24.62-12.13Q1656.09,941.72,1646.54,940.47Z"/></g><g id="Layer1_5_MEMBER_3_MEMBER_0_MEMBER_0_MEMBER_0_FILL" data-name="Layer1 5 MEMBER 3 MEMBER 0 MEMBER 0 MEMBER 0 FILL"><path class="cls-21" d="M1672.61,905.5q2.76-21.12-4.29-29.73-23.08-23-50.73.52-7,6.75-4.15,19.93a25.94,25.94,0,0,1,.32,9.25l-2,11.51a33.59,33.59,0,0,0,5.93,17.15q5.25,6.82,12.3,7.75l-1.44,30.52.5.06q-1.14,24.42,1.67,26.32,25.35,1.79,53.61-18.56l2.4-2.76a297.78,297.78,0,0,1-19.06-53.67Z"/></g><g id="Layer1_5_MEMBER_4_MEMBER_0_MEMBER_0_MEMBER_0_FILL" data-name="Layer1 5 MEMBER 4 MEMBER 0 MEMBER 0 MEMBER 0 FILL"><path class="cls-37" d="M1618.63,934.77a18.55,18.55,0,0,0,11.35,7.11l-.53,4a54,54,0,0,0,12.39-8.62Q1632,941.64,1618.63,934.77Z"/></g><g id="Layer1_5_MEMBER_5_FILL" data-name="Layer1 5 MEMBER 5 FILL"><path class="cls-38" d="M1743.65,1000.26q-4-15.69-10-25.07-31.51-49.29-35.9,55.29l2.76,113.57-103.07,98.13,5.12,19.11q69.46-19.08,145.4-91Q1771.07,1106.13,1743.65,1000.26Z"/></g><g id="Layer1_5_MEMBER_6_FILL" data-name="Layer1 5 MEMBER 6 FILL"><path class="cls-39" d="M1737.36,1321q20.27-166.65-93.18-108.16-25,73.25-18.52,211.27t95,353.32q14.89,14.19,32.95.71-13.56-201.4-45.09-266.92Z"/></g><g id="Layer1_5_MEMBER_6_FILL-2" data-name="Layer1 5 MEMBER 6 FILL"><path class="cls-40" d="M1737.36,1321q20.27-166.65-93.18-108.16-25,73.25-18.52,211.27t95,353.32q14.89,14.19,32.95.71-13.56-201.4-45.09-266.92Z"/></g><g class="cls-33"><g id="Layer1_5_MEMBER_7_FILL" data-name="Layer1 5 MEMBER 7 FILL"><path class="cls-34" d="M1624.79,1400.89v.32q.32,11.22.87,22.86,3.28,69.47,27.35,158.53l25.86-205.43Z"/></g></g><g id="Layer1_5_MEMBER_8_FILL" data-name="Layer1 5 MEMBER 8 FILL"><path class="cls-39" d="M1579.23,1252.38q-30.69,71.07-34.93,209.14t67.17,359.7a16.53,16.53,0,0,0,6.86,10.8,21.09,21.09,0,0,0,11.43,4,16.17,16.17,0,0,0,10.56-2.68,9,9,0,0,0,3.86-8.9q2.25-201.8-24-269.53l86.08-260.77Q1733.19,1212.4,1579.23,1252.38Z"/></g><g id="Layer1_5_MEMBER_8_FILL-2" data-name="Layer1 5 MEMBER 8 FILL"><path class="cls-41" d="M1579.23,1252.38q-30.69,71.07-34.93,209.14t67.17,359.7a16.53,16.53,0,0,0,6.86,10.8,21.09,21.09,0,0,0,11.43,4,16.17,16.17,0,0,0,10.56-2.68,9,9,0,0,0,3.86-8.9q2.25-201.8-24-269.53l86.08-260.77Q1733.19,1212.4,1579.23,1252.38Z"/></g><g id="Layer1_5_MEMBER_10_FILL" data-name="Layer1 5 MEMBER 10 FILL"><path class="cls-42" d="M1730.46,975.05q-4.82-24.28-40.43-14.28-64.08,24.38-83.65,40.81-44.94,65.76-36.66,92.44,4.2,16,9.12,42.69-5.34,32.46-9.64,65.76-10.18,24.67-21.81,132.07a399.45,399.45,0,0,0,148.44,27.29l10.05-100.53L1725,1358q47.37-11.87,47-14.84-13.2-104.48-40.23-151.31Q1755.58,1005.6,1730.46,975.05Z"/></g><g id="Layer1_5_MEMBER_10_FILL-2" data-name="Layer1 5 MEMBER 10 FILL"><path class="cls-43" d="M1730.46,975.05q-4.82-24.28-40.43-14.28-64.08,24.38-83.65,40.81-44.94,65.76-36.66,92.44,4.2,16,9.12,42.69-5.34,32.46-9.64,65.76-10.18,24.67-21.81,132.07a399.45,399.45,0,0,0,148.44,27.29l10.05-100.53L1725,1358q47.37-11.87,47-14.84-13.2-104.48-40.23-151.31Q1755.58,1005.6,1730.46,975.05Z"/></g><g class="cls-33"><g id="Layer1_5_MEMBER_11_FILL" data-name="Layer1 5 MEMBER 11 FILL"><path class="cls-34" d="M1566,1205.42l-7.26,42.15c16.61,2.58,48.2-4.62,65.52-27.48,26.73-47.92,17.51-126,12.11-194.08Z"/></g></g><g id="Layer1_5_MEMBER_12_FILL" data-name="Layer1 5 MEMBER 12 FILL"><path class="cls-21" d="M1498.2,1214.42l-58.65,32.16a223.94,223.94,0,0,0-23,13.92q-5.32,11-.61,16.58,6.38,3.15,29.83-6l49.1-18.78Z"/></g><g id="Layer1_5_MEMBER_13_FILL" data-name="Layer1 5 MEMBER 13 FILL"><path class="cls-35" d="M1637.17,1039.66q-.5-16.14-4.35-26.73-19.82-54.9-47.12,46l-22.41,111.48-122.12,72.92q.54,9.92,18.63,20.73,54.08-4.23,144-57.68Q1640.59,1148.92,1637.17,1039.66Z"/></g><path class="cls-44" d="M1627.23,889.75q-33.26.88-10.24-15.53,24.67-17.6,49.82-4,21,11.38,20.49,75.36-3.61,4.89-16.39,8.44a116.41,116.41,0,0,1-26.41,4q-15.06.71-24.91-2-11.11-3.07-11.83-9.54Q1631.72,926,1627.23,889.75Z"/></g><g id="Text-box1"><g class="cls-45"><path class="cls-46" d="M1283.53,663.1H976.89a8.79,8.79,0,0,1-6.22-15L1000.81,618V476.43a10.81,10.81,0,0,1,10.8-10.81h271.92a10.8,10.8,0,0,1,10.8,10.81V652.3A10.79,10.79,0,0,1,1283.53,663.1Z"/></g><g class="cls-45"><path class="cls-47" d="M1286.5,669.1H986A8.62,8.62,0,0,1,980,654.39l29.53-29.53V486.19a10.59,10.59,0,0,1,10.59-10.59H1286.5a10.59,10.59,0,0,1,10.59,10.59V658.52A10.59,10.59,0,0,1,1286.5,669.1Z"/></g><path class="cls-48" d="M1283.53,663.1H976.89a8.79,8.79,0,0,1-6.22-15L1000.81,618V476.43a10.81,10.81,0,0,1,10.8-10.81h271.92a10.8,10.8,0,0,1,10.8,10.81V652.3A10.79,10.79,0,0,1,1283.53,663.1Z"/><path class="cls-49" d="M1070.94,528.43c-2.4,1.38-3.9,4.19-3.9,5.36a1.91,1.91,0,0,1-1.62,2h-9.76c-.89,0-1.46-1.38-1.46-2.28v-1.83c0-4.92,4.87-9.14,8.45-10.77,3.13-1.42,4.43-2.77,4.43-5.37,0-2.27-3-4.31-6.26-4.31a8.33,8.33,0,0,0-4.39,1.18c-1,.69-2,1.67-4.35,4.68a1.66,1.66,0,0,1-1.26.65,1.81,1.81,0,0,1-1-.33l-6.67-5.08a1.59,1.59,0,0,1-.4-2.15c4.38-7.28,10.56-10.82,18.85-10.82,8.7,0,18.46,7,18.46,16.26C1080.05,523.31,1074.81,526.28,1070.94,528.43Zm-3.74,21.3a1.63,1.63,0,0,1-1.62,1.63h-9.76a1.63,1.63,0,0,1-1.62-1.63V540a1.63,1.63,0,0,1,1.62-1.62h9.76a1.62,1.62,0,0,1,1.62,1.62Z"/><line class="cls-50" x1="1045.88" y1="591.19" x2="1224.72" y2="591.19"/><line class="cls-50" x1="1045.88" y1="626.87" x2="1164.04" y2="626.87"/></g><g id="Text-box2"><g class="cls-45"><path class="cls-46" d="M1245.34,917H1552a8.79,8.79,0,0,0,6.22-15l-30.14-30.14V730.28a10.79,10.79,0,0,0-10.8-10.8H1245.34a10.8,10.8,0,0,0-10.8,10.8V906.15A10.8,10.8,0,0,0,1245.34,917Z"/></g><g class="cls-45"><path class="cls-47" d="M1253.07,923h300.45a8.62,8.62,0,0,0,6.1-14.71l-29.53-29.53V740a10.58,10.58,0,0,0-10.59-10.58H1253.07A10.58,10.58,0,0,0,1242.48,740V912.37A10.58,10.58,0,0,0,1253.07,923Z"/></g><path class="cls-48" d="M1245.34,917H1552a8.79,8.79,0,0,0,6.22-15l-30.14-30.14V730.28a10.79,10.79,0,0,0-10.8-10.8H1245.34a10.8,10.8,0,0,0-10.8,10.8V906.15A10.8,10.8,0,0,0,1245.34,917Z"/><line class="cls-50" x1="1287.62" y1="842.83" x2="1466.46" y2="842.83"/><line class="cls-50" x1="1287.62" y1="878.52" x2="1405.77" y2="878.52"/><g id="Icons_Full-Set_Status_Success_Outline" data-name="Icons/Full-Set/Status/Success/Outline"><path id="Combined-Shape" class="cls-51" d="M1311,747.69a31.21,31.21,0,1,1-31.21,31.21A31.09,31.09,0,0,1,1311,747.69Zm0,6.94a24.28,24.28,0,1,0,24.27,24.27A24.13,24.13,0,0,0,1311,754.63Zm8,15.26a3.43,3.43,0,1,1,4.86,4.85h0L1308.55,791a3.18,3.18,0,0,1-2.43,1h0l-.42,0a3.21,3.21,0,0,1-2-1h0l-5.89-6.24a3.43,3.43,0,1,1,4.85-4.86h0l3.47,3.47Z"/></g></g></g></svg>