<svg id="ARTWORK" xmlns="http://www.w3.org/2000/svg" xmlns:xlink="http://www.w3.org/1999/xlink" viewBox="0 0 2500 2500"><defs><style>.cls-1{fill:url(#Degradado_sin_nombre_115);}.cls-1,.cls-15{filter:url(#AI_DesenfoqueGaussiano_4);}.cls-2{fill:#d4ecf6;}.cls-29,.cls-3{fill:#fff;}.cls-4{fill:url(#Degradado_sin_nombre_90);}.cls-5{fill:#857cb9;}.cls-6{fill:#d095bf;}.cls-7{fill:#aab2da;}.cls-8{fill:url(#Degradado_sin_nombre_109);}.cls-9{fill:#91e2db;}.cls-10{fill:#6ad8cf;}.cls-11{fill:url(#Nueva_muestra_de_degradado_68);}.cls-12{fill:#c2ebe8;}.cls-13{fill:url(#Nueva_muestra_de_degradado_45);}.cls-14{fill:url(#Degradado_sin_nombre_7);}.cls-16{fill:url(#Degradado_sin_nombre_108);}.cls-17{fill:#ddf0f8;}.cls-18{fill:url(#Degradado_sin_nombre_82);}.cls-19{fill:url(#Degradado_sin_nombre_83);}.cls-20{fill:url(#Degradado_sin_nombre_68);}.cls-21{fill:url(#Degradado_sin_nombre_92);}.cls-22{fill:url(#Degradado_sin_nombre_123);}.cls-23{fill:#fafbfc;}.cls-24{fill:url(#Degradado_sin_nombre_125);}.cls-25{fill:#fcfdfe;}.cls-26{isolation:isolate;}.cls-27{fill:url(#Degradado_sin_nombre_966);}.cls-28{fill:url(#Degradado_sin_nombre_9);}.cls-29{fill-opacity:0.95;}</style><linearGradient id="Degradado_sin_nombre_115" x1="103.88" y1="142.8" x2="126.5" y2="104.82" gradientUnits="userSpaceOnUse"><stop offset="0" stop-color="#d4ecf6" stop-opacity="0.1"/><stop offset="0.04" stop-color="#b5cede" stop-opacity="0.1"/><stop offset="0.15" stop-color="#90aac1" stop-opacity="0.1"/><stop offset="1" stop-color="#5d7586" stop-opacity="0.3"/></linearGradient><filter id="AI_DesenfoqueGaussiano_4" name="AI_DesenfoqueGaussiano_4"><feGaussianBlur stdDeviation="4"/></filter><linearGradient id="Degradado_sin_nombre_90" x1="11.98" y1="50.98" x2="131.71" y2="120.24" gradientUnits="userSpaceOnUse"><stop offset="0" stop-color="#436fb6"/><stop offset="0.09" stop-color="#4779b9"/><stop offset="0.48" stop-color="#569ec5"/><stop offset="0.8" stop-color="#60b5cc"/><stop offset="1" stop-color="#63bdcf"/></linearGradient><linearGradient id="Degradado_sin_nombre_109" x1="147.51" y1="177.07" x2="132.96" y2="136.2" gradientUnits="userSpaceOnUse"><stop offset="0.3" stop-color="#89d6ef" stop-opacity="0.1"/><stop offset="0.38" stop-color="#89d6ef" stop-opacity="0.15"/><stop offset="0.49" stop-color="#d4ecf6" stop-opacity="0"/><stop offset="1" stop-color="#fff" stop-opacity="0.3"/></linearGradient><linearGradient id="Nueva_muestra_de_degradado_68" x1="173.31" y1="1103.49" x2="340.8" y2="1042.21" gradientUnits="userSpaceOnUse"><stop offset="0" stop-color="#c2ebe8" stop-opacity="0.1"/><stop offset="0.05" stop-color="#8fe0d9" stop-opacity="0.1"/><stop offset="0.15" stop-color="#6ad8cf" stop-opacity="0.1"/><stop offset="0.87" stop-color="#43a39b" stop-opacity="0.3"/></linearGradient><linearGradient id="Nueva_muestra_de_degradado_45" x1="303.19" y1="664.6" x2="707.61" y2="856.6" xlink:href="#Nueva_muestra_de_degradado_68"/><radialGradient id="Degradado_sin_nombre_7" cx="883.51" cy="1120.6" r="1140.01" gradientUnits="userSpaceOnUse"><stop offset="0.14" stop-color="#43a39b" stop-opacity="0.6"/><stop offset="0.63" stop-color="#6ad8cf" stop-opacity="0.1"/><stop offset="0.79" stop-color="#79dbd3" stop-opacity="0.08"/><stop offset="0.94" stop-color="#a7e5e0" stop-opacity="0.03"/><stop offset="1" stop-color="#c2ebe8" stop-opacity="0"/></radialGradient><linearGradient id="Degradado_sin_nombre_108" x1="1603.79" y1="1722.75" x2="1015.74" y2="1722.75" gradientUnits="userSpaceOnUse"><stop offset="0" stop-color="#d4ecf6" stop-opacity="0.1"/><stop offset="0.01" stop-color="#b5cad3" stop-opacity="0.1"/><stop offset="0.08" stop-color="#555e63" stop-opacity="0.1"/><stop offset="0.15" stop-color="#353b3e" stop-opacity="0.1"/><stop offset="0.87" stop-color="#5d7586" stop-opacity="0.3"/><stop offset="1" stop-color="#5d7586" stop-opacity="0"/></linearGradient><linearGradient id="Degradado_sin_nombre_82" x1="1149.7" y1="1719.49" x2="1164.26" y2="1153.38" gradientUnits="userSpaceOnUse"><stop offset="0" stop-color="#d4ecf6" stop-opacity="0.1"/><stop offset="1" stop-color="#5d7586" stop-opacity="0.3"/></linearGradient><linearGradient id="Degradado_sin_nombre_83" x1="1296.18" y1="1579.76" x2="1431.68" y2="1658.72" gradientUnits="userSpaceOnUse"><stop offset="0" stop-color="#d4ecf6" stop-opacity="0.1"/><stop offset="0.53" stop-color="#abc3d0" stop-opacity="0.17"/><stop offset="1" stop-color="#5d7586" stop-opacity="0.3"/></linearGradient><linearGradient id="Degradado_sin_nombre_68" x1="1025.05" y1="1719.86" x2="1422.05" y2="1088.79" gradientUnits="userSpaceOnUse"><stop offset="0" stop-color="#fafbfc"/><stop offset="0.55" stop-color="#f5f8fa"/><stop offset="0.99" stop-color="#d4ecf6" stop-opacity="0.9"/></linearGradient><linearGradient id="Degradado_sin_nombre_92" x1="1125.75" y1="1489.63" x2="1344.51" y2="1500.83" gradientUnits="userSpaceOnUse"><stop offset="0.55" stop-color="#f5f8fa" stop-opacity="0"/><stop offset="0.98" stop-color="#d4ecf6" stop-opacity="0.9"/></linearGradient><linearGradient id="Degradado_sin_nombre_123" x1="1268.49" y1="1220.07" x2="1298.54" y2="1281.27" xlink:href="#Degradado_sin_nombre_68"/><linearGradient id="Degradado_sin_nombre_125" x1="1397.83" y1="1492.54" x2="1252.24" y2="1100.57" gradientUnits="userSpaceOnUse"><stop offset="0.47" stop-color="#b7d4f4" stop-opacity="0"/><stop offset="0.64" stop-color="#b7d4f4" stop-opacity="0.2"/><stop offset="1" stop-color="#b7d4f4" stop-opacity="0"/></linearGradient><linearGradient id="Degradado_sin_nombre_966" x1="-5707.97" y1="-5761.35" x2="-5804.01" y2="-5557.36" gradientTransform="matrix(-1.64, 0, 0, 1.64, -8119.64, 10036.26)" gradientUnits="userSpaceOnUse"><stop offset="0" stop-color="#a9a7b7"/><stop offset="0.59" stop-color="#8c8b9f"/><stop offset="1" stop-color="#7d7c93"/></linearGradient><linearGradient id="Degradado_sin_nombre_9" x1="-5538.97" y1="-5353.27" x2="-5831.83" y2="-6021.14" gradientTransform="matrix(-1.42, -0.83, -0.83, 1.42, -11554.41, 4070.22)" gradientUnits="userSpaceOnUse"><stop offset="0.01" stop-color="#141226"/><stop offset="0.58" stop-color="#27244b"/><stop offset="0.98" stop-color="#27244b"/><stop offset="1" stop-color="#27244b"/></linearGradient><symbol id="plant_Background" data-name="plant Background" viewBox="0 0 858.28 1488.89"><g id="plant"><path class="cls-9" d="M0,752.58q168.12,604.53,535.31,632.78Q384.83,853.73,0,752.58Z"/><path class="cls-10" d="M504.07,1420c4.61.51,26.6-35,31.24-34.63-5.1-18-17.43,9.81-22.95-7.48C390.67,1165.33,225.64,927.44,3.23,755.15,226.94,947.13,382.31,1192.7,504.07,1420Z"/><path class="cls-11" d="M0,752.58q168.12,604.53,535.31,632.78Q384.83,853.73,0,752.58Z"/><path class="cls-9" d="M167.77,1416.55q62.05-.83,169.71,44.57t229.91,16.52Q359.6,1288.58,167.77,1416.55Z"/><path class="cls-10" d="M555.32,1480.31q6-1.24,12.07-2.67-18.21-16.58-36.31-30.7-144.68-74.13-313.56-42Q401.39,1386.3,555.32,1480.31Z"/><path class="cls-12" d="M350.27,125.84Q337.58,72.89,323.15,0,203.35,184,188.93,391.23q-44.61,585.36,365.4,1066.68,100.89-449.15,9-762.3t-146.11-415Q363,178.83,350.27,125.84Z"/><path class="cls-10" d="M321.34,8.76h0c-27.71,416-19.86,1001.71,233,1449.15,1.78-12.15,8.72-35.67,10.23-47.67C284.54,942.22,306.84,413.11,321.34,8.76Z"/><path class="cls-13" d="M350.27,125.84Q337.58,72.89,323.15,0,203.35,184,188.93,391.23q-44.61,585.36,365.4,1066.68,100.89-449.15,9-762.3t-146.11-415Q363,178.83,350.27,125.84Z"/><path class="cls-14" d="M481.2,1377.84Q492.84,1399,504.07,1420c1.7.19,5.75-4.5,10.41-10.48q19.37,24.33,39.85,48.4,2.8-12.48,5.45-24.85c2.06-8.58,4.05-17,4.78-22.82Q650.3,992,563.34,695.61q-91.83-313.17-146.11-415t-67-154.78Q337.58,72.89,323.15,0,203.35,184,188.93,391.23,170,640,233.15,870,129.92,786.77,0,752.58,155.48,1311.65,481.2,1377.84Z"/><path class="cls-14" d="M567.39,1477.64q-2.86-2.61-5.74-5.16L560,1471l-4.38-3.84-1.56-1.35c-1.76-1.51-3.51-3-5.26-4.48l-2.51-2.11-2.87-2.38-3.08-2.53-1.16-.93q-192.61-156-371.36-36.8,62.05-.83,169.71,44.57,102.34,43.2,217.84,19.19h0l1.12-.24c1.44-.3,2.87-.6,4.31-.92C563,1478.67,565.18,1478.16,567.39,1477.64Z"/></g></symbol><symbol id="buttons2" data-name="buttons2" viewBox="0 0 242 229"><path class="cls-1" d="M214.48,128.16a15.28,15.28,0,0,1,6.94,12l-.09,64.68c0,4.42-3.14,6.2-7,4L27.06,100.69a15.27,15.27,0,0,1-6.93-12L20.21,24c0-4.42,3.14-6.2,7-4Z"/><path class="cls-2" d="M214.63,124.38,27.34,16.24c-1.94-1.11-3.69-1.21-4.95-.48L4.52,26.15c1.27-.74,3-.64,5,.48L196.76,134.76a15.3,15.3,0,0,1,6.93,12L203.61,177c0,2.19-.78,3.74-2,4.46l17.87-10.38c1.24-.73,2-2.27,2-4.46l.09-30.2A15.3,15.3,0,0,0,214.63,124.38Z"/><path class="cls-3" d="M196.76,134.76a15.3,15.3,0,0,1,6.93,12L203.61,177c0,4.42-3.14,6.2-7,4L9.34,72.81a15.25,15.25,0,0,1-6.94-12l.09-30.2c0-4.41,3.14-6.2,7-4Z"/><path class="cls-4" d="M127.28,126.43,18.61,63.69C15,61.58,12,55.93,12,51.06h0c0-4.87,3-7.11,6.61-5L127.28,108.8c3.65,2.11,6.61,7.77,6.61,12.63h0C133.89,126.3,130.93,128.54,127.28,126.43Z"/><path class="cls-5" d="M190.12,162.71l-.79-.46c-2.79-1.6-5-5.91-5-9.63v-4.19c0-3.71,2.25-5.41,5-3.81l.79.46c2.78,1.61,5,5.92,5,9.63v4.19C195.16,162.61,192.9,164.32,190.12,162.71Z"/><path class="cls-6" d="M170.92,151.63l-.79-.46c-2.78-1.61-5-5.92-5-9.63v-4.19c0-3.71,2.26-5.41,5-3.81l.79.46c2.78,1.61,5,5.92,5,9.63v4.19C176,151.53,173.7,153.23,170.92,151.63Z"/><path class="cls-7" d="M151.72,140.54l-.79-.45c-2.78-1.61-5-5.92-5-9.63v-4.19c0-3.71,2.26-5.42,5-3.81l.79.46c2.79,1.6,5,5.91,5,9.62v4.19C156.76,140.44,154.51,142.15,151.72,140.54Z"/><path class="cls-8" d="M214.63,124.38,27.34,16.24c-1.94-1.11-3.69-1.21-4.95-.48L4.52,26.15c1.27-.74,3-.64,5,.48L196.76,134.76a15.3,15.3,0,0,1,6.93,12L203.61,177c0,2.19-.78,3.74-2,4.46l17.87-10.38c1.24-.73,2-2.27,2-4.46l.09-30.2A15.3,15.3,0,0,0,214.63,124.38Z"/></symbol></defs><use id="plant-2" data-name="plant" width="858.28" height="1488.89" transform="translate(560.17 200.53)" xlink:href="#plant_Background"/><g id="PillServer"><g id="Server"><g id="shadow" class="cls-15"><path class="cls-16" d="M1372.54,1869.83l241.58-140.39c8.46-4.91,8.42-12.91-.1-17.82l-243.16-140.39c-8.51-4.91-97-4.91-105.51,0l-241.58,140.39c-8.46,4.91-8.41,12.91.1,17.83L1267,1869.84C1275.54,1874.75,1331,1885.34,1372.54,1869.83Z"/></g><path id="inside" class="cls-17" d="M1286.39,1842.1c-.14.19-.27.38-.42.57-.28.38-.58.74-.87,1.1a22.46,22.46,0,0,1-1.9,2c-.17.16-.33.31-.5.45a21.06,21.06,0,0,1-5.83,3.64c-.31.14-.61.26-.93.38s-.82.28-1.26.41l-.5.15-.76.2-.56.12-.68.14-.56.1a30.47,30.47,0,0,1-12.53-.85c-.84-.22-1.69-.49-2.55-.77-1.28-.43-2.59-.94-3.92-1.53a53.86,53.86,0,0,1-5.39-2.75L1069.08,1742.6c-24.93-14.41-45.17-49.25-45.17-77.85V1173.37c0-11.37,3.21-20,8.63-25.45l.46-.44a21.56,21.56,0,0,1,10.47-5.46l.63-.12a3.84,3.84,0,0,1,.65-.11c.32-.06.65-.11,1-.14l.73-.08c.37,0,.75-.06,1.12-.07a24,24,0,0,1,3.05,0c-3.82,5.39-6,12.94-6,22.33v491.38c0,28.6,20.22,63.44,45.16,77.85L1267.94,1836C1274.52,1839.75,1280.76,1841.74,1286.39,1842.1Z"/><path id="inside-2" data-name="inside" class="cls-18" d="M1286.39,1842.1c-.14.19-.27.38-.42.57-.28.38-.58.74-.87,1.1a22.46,22.46,0,0,1-1.9,2c-.17.16-.33.31-.5.45a21.06,21.06,0,0,1-5.83,3.64c-.31.14-.61.26-.93.38s-.82.28-1.26.41l-.5.15-.76.2-.56.12-.68.14-.56.1a30.47,30.47,0,0,1-12.53-.85c-.84-.22-1.69-.49-2.55-.77-1.28-.43-2.59-.94-3.92-1.53a53.86,53.86,0,0,1-5.39-2.75L1069.08,1742.6c-24.93-14.41-45.17-49.25-45.17-77.85V1173.37c0-11.37,3.21-20,8.63-25.45l.46-.44a21.56,21.56,0,0,1,10.47-5.46l.63-.12a3.84,3.84,0,0,1,.65-.11c.32-.06.65-.11,1-.14l.73-.08c.37,0,.75-.06,1.12-.07a24,24,0,0,1,3.05,0c-3.82,5.39-6,12.94-6,22.33v491.38c0,28.6,20.22,63.44,45.16,77.85L1267.94,1836C1274.52,1839.75,1280.76,1841.74,1286.39,1842.1Z"/><path id="inside-3" data-name="inside" class="cls-19" d="M1286.39,1842.1c-.14.19-.27.38-.42.57-.28.38-.58.74-.87,1.1a22.46,22.46,0,0,1-1.9,2c-.17.16-.33.31-.5.45a21.06,21.06,0,0,1-5.83,3.64c-.31.14-.61.26-.93.38s-.82.28-1.26.41l-.5.15-.76.2-.56.12-.68.14-.56.1a30.47,30.47,0,0,1-12.53-.85c-.84-.22-1.69-.49-2.55-.77-1.28-.43-2.59-.94-3.92-1.53a53.86,53.86,0,0,1-5.39-2.75L1069.08,1742.6c-24.93-14.41-45.17-49.25-45.17-77.85V1173.37c0-11.37,3.21-20,8.63-25.45l.46-.44a21.56,21.56,0,0,1,10.47-5.46l.63-.12a3.84,3.84,0,0,1,.65-.11c.32-.06.65-.11,1-.14l.73-.08c.37,0,.75-.06,1.12-.07a24,24,0,0,1,3.05,0c-3.82,5.39-6,12.94-6,22.33v491.38c0,28.6,20.22,63.44,45.16,77.85L1267.94,1836C1274.52,1839.75,1280.76,1841.74,1286.39,1842.1Z"/><path id="front" class="cls-20" d="M1292.4,1328.38v491.37q0,.88,0,1.74c0,.49,0,1-.06,1.46,0,.66-.08,1.31-.15,2s-.1,1-.17,1.54-.13,1-.22,1.57-.16.93-.24,1.39l0,.12c-.08.45-.17.9-.28,1.33l-.06.27c-.11.44-.22.88-.33,1.3l0,.1c-.12.43-.24.86-.38,1.28s-.26.8-.4,1.2c0,.14-.11.27-.16.42q-.18.51-.39,1c-.16.42-.34.83-.53,1.23s-.34.74-.52,1.09a.41.41,0,0,0-.05.09l-.62,1.14h0c-.42.74-.88,1.45-1.35,2.13-5.63-.36-11.87-2.35-18.45-6.15L1089.79,1733.1c-24.94-14.41-45.16-49.25-45.16-77.85V1163.87c0-9.39,2.18-16.94,6-22.33l1.06.08,1.08.13c.35,0,.71.1,1.06.16a.08.08,0,0,1,.08,0l1,.19a36,36,0,0,1,3.61.91l1.2.39c.43.14.85.29,1.28.45.75.27,1.5.58,2.26.91l.76.34,1,.47,1,.49c.53.27,1.07.55,1.61.85s.9.49,1.36.76l174.4,100.68,3.75,2.17a68.07,68.07,0,0,1,5.92,3.86C1275.3,1270.5,1292.4,1302.09,1292.4,1328.38Z"/><path id="front-2" data-name="front" class="cls-21" d="M1292.4,1328.38v491.37q0,.88,0,1.74c0,.49,0,1-.06,1.46,0,.66-.08,1.31-.15,2s-.1,1-.17,1.54-.13,1-.22,1.57-.16.93-.24,1.39l0,.12c-.08.45-.17.9-.28,1.33l-.06.27c-.11.44-.22.88-.33,1.3l0,.1c-.12.43-.24.86-.38,1.28s-.26.8-.4,1.2c0,.14-.11.27-.16.42q-.18.51-.39,1c-.16.42-.34.83-.53,1.23s-.34.74-.52,1.09a.41.41,0,0,0-.05.09l-.62,1.14h0c-.42.74-.88,1.45-1.35,2.13-5.63-.36-11.87-2.35-18.45-6.15L1089.79,1733.1c-24.94-14.41-45.16-49.25-45.16-77.85V1163.87c0-9.39,2.18-16.94,6-22.33l1.06.08,1.08.13c.35,0,.71.1,1.06.16a.08.08,0,0,1,.08,0l1,.19a36,36,0,0,1,3.61.91l1.2.39c.43.14.85.29,1.28.45.75.27,1.5.58,2.26.91l.76.34,1,.47,1,.49c.53.27,1.07.55,1.61.85s.9.49,1.36.76l174.4,100.68,3.75,2.17a68.07,68.07,0,0,1,5.92,3.86C1275.3,1270.5,1292.4,1302.09,1292.4,1328.38Z"/><g id="top"><path class="cls-3" d="M1531.3,1201.37v491.39c0,17-5.92,29-15.54,34.82l-.55.32L1286.78,1860c6.72-4.14,11.6-11.37,13.87-21.25a59.94,59.94,0,0,0,1.43-13.43V1334c0-32.37-21.46-71.48-48.93-90.74-1.93-1.37-3.91-2.62-5.92-3.78l-3.75-2.17-174.4-100.69a66.08,66.08,0,0,0-7-3.51c-12.22-5.28-23.19-5.2-31.53-.56l228.77-132.34c9.94-5.79,23.74-5,39,3.82l178.15,102.85C1506.7,1124.3,1531.3,1166.7,1531.3,1201.37Z"/></g><g id="top-2" data-name="top"><path class="cls-22" d="M1297.91,1851.27a42.06,42.06,0,0,0,4.69-12.06,61.59,61.59,0,0,0,1.48-13.87V1334c0-32.77-21.4-72.48-49.78-92.37-1.9-1.36-3.89-2.63-6.07-3.89l-3.75-2.16-174.4-100.69a67.38,67.38,0,0,0-7.2-3.62,46.61,46.61,0,0,0-18.4-4.16H1044l216.38-125.17a26.19,26.19,0,0,1,13.39-3.43c7.32,0,15.25,2.44,23.58,7.25l178.15,102.85c29.69,17.14,53.84,58.77,53.84,92.8v491.39c0,15.71-5.17,27.47-14.57,33.11l-.51.29Z"/><path class="cls-23" d="M1273.73,996.47v4c6.86,0,14.67,2.42,22.58,7l178.15,102.85c14,8.1,27.28,22.08,37.3,39.36s15.54,35.64,15.54,51.71v491.39c0,15-4.81,26.1-13.56,31.37l-.53.3-210.68,121.86a46.9,46.9,0,0,0,2-6.62,63.41,63.41,0,0,0,1.54-14.33V1334c0-33.36-21.77-73.78-50.61-94-2-1.4-4-2.71-6.24-4l-3.75-2.18-174.41-100.69a69.93,69.93,0,0,0-7.39-3.71,52.93,52.93,0,0,0-13.08-3.86l210.75-121.91a24.21,24.21,0,0,1,12.38-3.16v-4m0,0a28.27,28.27,0,0,0-14.39,3.7l-228.77,132.34a28.2,28.2,0,0,1,13.91-3.44,44.78,44.78,0,0,1,17.62,4,66.08,66.08,0,0,1,7,3.51l174.4,100.69,3.75,2.17c2,1.16,4,2.41,5.92,3.78,27.47,19.26,48.93,58.37,48.93,90.74v491.38a59.94,59.94,0,0,1-1.43,13.43c-2.27,9.88-7.15,17.11-13.87,21.25l228.43-132.12.55-.32c9.62-5.77,15.54-17.81,15.54-34.82V1201.37c0-34.67-24.6-77.07-54.84-94.53L1298.31,1004c-8.83-5.1-17.18-7.52-24.58-7.52Z"/><path class="cls-3" d="M1273.73,996.47v2c7.32,0,15.25,2.44,23.58,7.25l178.15,102.85c29.69,17.14,53.84,58.77,53.84,92.8v491.39c0,15.71-5.17,27.47-14.53,33.09l-.56.31-216.3,125.11a41.81,41.81,0,0,0,4.68-12,61.16,61.16,0,0,0,1.49-13.88V1334c0-32.77-21.4-72.48-49.77-92.37-1.91-1.36-3.9-2.63-6.08-3.88l-3.75-2.18-174.41-100.68a65.19,65.19,0,0,0-7.18-3.61,46.54,46.54,0,0,0-18.41-4.17H1044l216.38-125.17a26.19,26.19,0,0,1,13.39-3.43v-2m0,0a28.27,28.27,0,0,0-14.39,3.7l-228.77,132.34a28.2,28.2,0,0,1,13.91-3.44,44.78,44.78,0,0,1,17.62,4,66.08,66.08,0,0,1,7,3.51l174.4,100.69,3.75,2.17c2,1.16,4,2.41,5.92,3.78,27.47,19.26,48.93,58.37,48.93,90.74v491.38a59.94,59.94,0,0,1-1.43,13.43c-2.27,9.88-7.15,17.11-13.87,21.25l228.43-132.12.55-.32c9.62-5.77,15.54-17.81,15.54-34.82V1201.37c0-34.67-24.6-77.07-54.84-94.53L1298.31,1004c-8.83-5.1-17.18-7.52-24.58-7.52Z"/></g><path id="top-3" data-name="top" class="cls-24" d="M1531.3,1201.37v491.39c0,17-5.92,29-15.54,34.82l-.55.32L1286.78,1860c6.72-4.14,11.6-11.37,13.87-21.25a59.94,59.94,0,0,0,1.43-13.43V1334c0-32.37-21.46-71.48-48.93-90.74-1.93-1.37-3.91-2.62-5.92-3.78l-3.75-2.17-174.4-100.69a66.08,66.08,0,0,0-7-3.51c-12.22-5.28-23.19-5.2-31.53-.56l228.77-132.34c9.94-5.79,23.74-5,39,3.82l178.15,102.85C1506.7,1124.3,1531.3,1166.7,1531.3,1201.37Z"/><path id="Corner" class="cls-25" d="M1253.15,1243.22c-1.93-1.37-3.91-2.62-5.92-3.78l-3.75-2.17-174.4-100.69a66.08,66.08,0,0,0-7-3.51c-12.22-5.28-23.19-5.2-31.53-.56l-.88.5c-9.56,5.81-15.45,17.82-15.45,34.77v491.38c0,34.66,24.61,77.08,54.84,94.53l178.15,102.86c14.94,8.63,28.51,9.57,38.41,4.13l0,0,.93-.55.18-.09c6.72-4.14,11.6-11.37,13.87-21.25a59.94,59.94,0,0,0,1.43-13.43V1334C1302.08,1301.59,1280.62,1262.48,1253.15,1243.22Zm39.25,576.53q0,.88,0,1.74c0,.49,0,1-.06,1.46,0,.66-.08,1.31-.15,2s-.1,1-.17,1.54-.13,1-.22,1.57-.16.93-.24,1.39l0,.12c-.08.45-.17.9-.28,1.33l-.06.27c-.11.44-.22.88-.33,1.3l0,.1c-.12.43-.24.86-.38,1.28s-.26.8-.4,1.2c0,.14-.11.27-.16.42q-.18.49-.39,1c-.16.42-.34.83-.53,1.23s-.34.74-.52,1.09a.41.41,0,0,0-.05.09l-.62,1.14h0a24.06,24.06,0,0,1-1.35,2.13c-.14.19-.27.38-.42.57-.28.38-.58.74-.87,1.1a22.46,22.46,0,0,1-1.9,2c-.17.16-.33.31-.5.45a21.06,21.06,0,0,1-5.83,3.64c-.31.14-.61.26-.93.38s-.82.28-1.26.41l-.5.15-.76.2-.56.12-.68.14-.56.1a30.47,30.47,0,0,1-12.53-.85c-.84-.22-1.69-.49-2.55-.77-1.28-.43-2.59-.94-3.92-1.53a53.86,53.86,0,0,1-5.39-2.75L1069.08,1742.6c-24.93-14.41-45.17-49.25-45.17-77.85V1173.37c0-11.37,3.21-20,8.63-25.45l.46-.44a21.56,21.56,0,0,1,10.47-5.46l.63-.12a3.84,3.84,0,0,1,.65-.11c.32-.06.65-.11,1-.14l.73-.08c.37,0,.75-.06,1.12-.07a24,24,0,0,1,3.05,0c.35,0,.7,0,1.06.08s.71.07,1.08.13.71.09,1.06.16a.08.08,0,0,1,.08,0c.34,0,.7.12,1,.19a36,36,0,0,1,3.61.91l1.2.39c.43.13.85.29,1.28.45.75.27,1.5.58,2.26.91l.76.34,1,.47,1,.49c.53.27,1.07.55,1.61.85s.9.49,1.36.76l174.4,100.68,3.75,2.17a68.07,68.07,0,0,1,5.92,3.86c22.15,16.11,39.25,47.7,39.25,74Z"/><use width="242" height="229" transform="translate(1056.9 1183.26)" xlink:href="#buttons2"/><use width="242" height="229" transform="translate(1056.9 1278.54)" xlink:href="#buttons2"/><use width="242" height="229" transform="translate(1056.9 1373.83)" xlink:href="#buttons2"/></g><g id="Pill"><g id="Circle_Tick_upgrade_Calendar" data-name="Circle Tick upgrade Calendar"><g class="cls-26"><path class="cls-27" d="M1096.24,408.4c39.16-22.76,93.39-19.55,153.25,15,119,68.67,215.07,235.16,214.68,371.84-.19,67.9-24.17,115.68-62.83,138.15l-15.82,9.11c38.67-22.47,62.64-70.25,62.83-138.15.39-136.68-95.73-303.16-214.68-371.84-59.86-34.56-114.09-37.77-153.25-15Z"/><ellipse class="cls-28" cx="1232.97" cy="680.01" rx="175.86" ry="303.61" transform="translate(-174.73 711.58) rotate(-30.16)"/></g></g><g id="Calendar"><g id="Calendar-shadow" class="cls-15"><path d="M1190.61,515.54c-6.6-3.81-11-1.31-11,6.25h0v2.52l-30.78-17.77c-9.9-5.71-15.39,1.2-16.49,10.65h0V716.28c0,10.08,7.69,23.35,16.49,28.42h0l170.38,98.37c8.79,5.08,16.49.7,16.49-9.38h0V634.6c0-10.09-7.7-24.61-15.39-27.79h0L1289.54,589v-3.78a22.42,22.42,0,0,0-11-19c-6.6-3.81-11-1.31-11,6.26h0v3.78l-66-38.08v-3.78A22.52,22.52,0,0,0,1190.61,515.54Zm-36.28,93.73,159.39,92V813.44l-159.39-92Zm111,90.56v27.72l24.18,14V713.79Zm-42.87-24.75V702.8l24.18,14V689Zm-44-25.39v27.72l24.18,14V663.65Zm111-36.71,24.18,14v49.15L1155.43,584.7V535.55l24.19,14v11.34a22.47,22.47,0,0,0,11,18.94c6.59,3.81,11,1.31,11-6.25h0V562.21l66,38.08v11.34a22.51,22.51,0,0,0,11,19c6.59,3.8,11,1.3,11-6.26h0Z"/></g><path id="Calendar-2" data-name="Calendar" class="cls-29" d="M1185.75,518.19c-6.6-3.81-11-1.31-11,6.25h0V527L1144,509.19c-9.9-5.71-15.39,1.2-16.49,10.65h0V718.93c0,10.08,7.69,23.35,16.49,28.42h0l170.38,98.37c8.79,5.08,16.49.7,16.49-9.38h0V637.25c0-10.09-7.7-24.61-15.39-27.79h0l-30.78-17.77v-3.78a22.42,22.42,0,0,0-11-18.95c-6.6-3.81-11-1.3-11,6.26h0V579l-66-38.08v-3.78A22.52,22.52,0,0,0,1185.75,518.19Zm-36.28,93.73,159.39,92V816.09l-159.39-92Zm111,90.56V730.2l24.18,14V716.44Zm-42.87-24.75v27.72l24.18,14V691.69Zm-44-25.39v27.72l24.18,14V666.3Zm111-36.71,24.18,14v49.15l-158.29-91.39V538.2l24.19,14v11.34a22.47,22.47,0,0,0,11,18.94c6.59,3.81,11,1.31,11-6.25h0V564.86l66,38.08v11.34a22.5,22.5,0,0,0,11,19c6.59,3.8,11,1.3,11-6.26h0Z"/></g></g></g></svg>