<svg xmlns="http://www.w3.org/2000/svg" xmlns:xlink="http://www.w3.org/1999/xlink" viewBox="0 0 2500 2500"><defs><linearGradient id="e37b5dd2-d8b5-4297-b89f-e6b32f23616f" x1="1588.84" y1="1758.57" x2="1726.66" y2="1496.19" gradientUnits="userSpaceOnUse"><stop offset="0.01" stop-color="#0071b0"/><stop offset="0.29" stop-color="#0173b2"/><stop offset="0.39" stop-color="#057ab8"/><stop offset="0.46" stop-color="#0c85c3"/><stop offset="0.52" stop-color="#1696d2"/><stop offset="0.55" stop-color="#1da1dc"/><stop offset="0.98" stop-color="#1da1dc"/><stop offset="1" stop-color="#1da1dc"/></linearGradient><linearGradient id="ad7ff547-609d-440c-99ed-4c58e6e1df08" x1="1823.98" y1="1882.08" x2="1961.8" y2="1619.7" xlink:href="#e37b5dd2-d8b5-4297-b89f-e6b32f23616f"/><linearGradient id="f04c7869-f363-4057-88e4-3fb2435e593c" x1="1734.15" y1="1834.89" x2="1871.96" y2="1572.51" xlink:href="#e37b5dd2-d8b5-4297-b89f-e6b32f23616f"/><linearGradient id="ac5a56b1-057e-4e3e-ab69-91e9314c5c03" x1="1868.86" y1="1905.65" x2="2006.67" y2="1643.27" xlink:href="#e37b5dd2-d8b5-4297-b89f-e6b32f23616f"/><linearGradient id="a636e02c-8aed-4a53-a31e-37d2760bc869" x1="1696.32" y1="1815.03" x2="1834.14" y2="1552.65" xlink:href="#e37b5dd2-d8b5-4297-b89f-e6b32f23616f"/><linearGradient id="e5eec8de-55b5-4ab2-81ce-cfeb57ef99ca" x1="1815.13" y1="1877.43" x2="1952.95" y2="1615.05" xlink:href="#e37b5dd2-d8b5-4297-b89f-e6b32f23616f"/><linearGradient id="fece7945-f797-4fee-9749-7046710fb409" x1="1769.99" y1="1853.72" x2="1907.81" y2="1591.34" xlink:href="#e37b5dd2-d8b5-4297-b89f-e6b32f23616f"/><linearGradient id="ab2c5bcf-12f6-4c99-b9ec-8a50915eb921" x1="1825.2" y1="1882.72" x2="1963.02" y2="1620.34" xlink:href="#e37b5dd2-d8b5-4297-b89f-e6b32f23616f"/><linearGradient id="be2f7af4-9912-4174-8534-c01d1a321c34" x1="1736.75" y1="1836.26" x2="1874.57" y2="1573.88" xlink:href="#e37b5dd2-d8b5-4297-b89f-e6b32f23616f"/><linearGradient id="fd3f1c8e-d741-4296-b18a-688d44451a4a" x1="1917.07" y1="1930.97" x2="2054.88" y2="1668.59" xlink:href="#e37b5dd2-d8b5-4297-b89f-e6b32f23616f"/><linearGradient id="b1f984f1-0709-4c0e-be69-ede3af9cab89" x1="1567.31" y1="1747.26" x2="1705.13" y2="1484.88" xlink:href="#e37b5dd2-d8b5-4297-b89f-e6b32f23616f"/><linearGradient id="e6a46cf9-70f8-431b-947b-92cf8c3cf13b" x1="1891.44" y1="1917.51" x2="2029.25" y2="1655.13" xlink:href="#e37b5dd2-d8b5-4297-b89f-e6b32f23616f"/><linearGradient id="fd841bdf-480b-46dc-a35a-5c7f4a7b0b8d" x1="1602.31" y1="1765.65" x2="1740.13" y2="1503.26" xlink:href="#e37b5dd2-d8b5-4297-b89f-e6b32f23616f"/><linearGradient id="ac03671e-ac52-4842-8ea7-954962b071f0" x1="1863.74" y1="1902.96" x2="2001.56" y2="1640.58" xlink:href="#e37b5dd2-d8b5-4297-b89f-e6b32f23616f"/><linearGradient id="bfb51963-3bf3-4def-b224-56023ce548ee" x1="1646.57" y1="1788.89" x2="1784.39" y2="1526.51" xlink:href="#e37b5dd2-d8b5-4297-b89f-e6b32f23616f"/><radialGradient id="b82c5d77-fef0-46ea-86e5-583483f18dd2" cx="981.27" cy="1488.62" r="895.15" gradientTransform="matrix(-0.78, 0.43, 0.62, 0.35, 1218.4, 806.31)" gradientUnits="userSpaceOnUse"><stop offset="0" stop-color="#90aac1" stop-opacity="0.2"/><stop offset="0.33" stop-color="#90aac1" stop-opacity="0.16"/><stop offset="0.84" stop-color="#90aac1" stop-opacity="0.04"/><stop offset="1" stop-color="#90aac1" stop-opacity="0"/></radialGradient><linearGradient id="fc6f43e0-2173-4591-8077-5158ae49565a" x1="419.69" y1="1055.11" x2="804.49" y2="1055.11" gradientUnits="userSpaceOnUse"><stop offset="0" stop-color="#c2ebe8" stop-opacity="0.1"/><stop offset="0.05" stop-color="#8fe0d9" stop-opacity="0.1"/><stop offset="0.15" stop-color="#6ad8cf" stop-opacity="0.1"/><stop offset="0.87" stop-color="#43a39b" stop-opacity="0.3"/></linearGradient><linearGradient id="e3e8a6a3-41f4-40b1-9e5b-fa3f90d6bfd1" x1="874.92" y1="417.27" x2="775.8" y2="730.48" xlink:href="#fc6f43e0-2173-4591-8077-5158ae49565a"/><linearGradient id="b3ff6759-a62b-4016-bf4b-9fdb02db45ec" x1="871.44" y1="416.17" x2="772.32" y2="729.38" xlink:href="#fc6f43e0-2173-4591-8077-5158ae49565a"/><linearGradient id="b8ccc1c7-11e7-431a-b3b0-c67d351c908f" x1="671.02" y1="789.36" x2="1174.84" y2="1649.74" gradientUnits="userSpaceOnUse"><stop offset="0" stop-color="#12abbb" stop-opacity="0"/><stop offset="0.62" stop-color="#12abbb" stop-opacity="0.5"/></linearGradient><linearGradient id="af33a649-acbf-4610-a43f-63d128260fa6" x1="1015.28" y1="773.74" x2="1530.69" y2="1653.9" xlink:href="#b8ccc1c7-11e7-431a-b3b0-c67d351c908f"/><linearGradient id="ed27a0ed-9bb5-4428-a77a-d0984466173b" x1="919.61" y1="1184.52" x2="1173.79" y2="1555.12" gradientUnits="userSpaceOnUse"><stop offset="0.23" stop-color="#010d1a" stop-opacity="0"/><stop offset="0.59" stop-color="#010d1a" stop-opacity="0.36"/><stop offset="1" stop-color="#010d1a"/></linearGradient><linearGradient id="b2977d91-9abe-4668-9329-92a24d6a578e" x1="2118.65" y1="1339.25" x2="845.79" y2="2170.43" gradientUnits="userSpaceOnUse"><stop offset="0.03" stop-color="#90aac1" stop-opacity="0"/><stop offset="0.15" stop-color="#d4ecf6" stop-opacity="0.1"/><stop offset="0.67" stop-color="#5d7586" stop-opacity="0.3"/></linearGradient><clipPath id="ea28c117-6672-4cf3-bdb4-f52bfe631448"><path d="M841.38,1407.35l932.46,465.4-92.69,277.67-512.69,121L434.09,2080.63s-27-418.53-30.33-432.83S841.38,1407.35,841.38,1407.35Z" fill="none"/></clipPath><linearGradient id="ba8b6099-ecc6-4859-8502-0c49aa7cc019" x1="744.46" y1="1544.03" x2="2030.84" y2="1726.06" gradientUnits="userSpaceOnUse"><stop offset="0" stop-color="#fafbfc"/><stop offset="0.55" stop-color="#f5f8fa"/><stop offset="0.99" stop-color="#e5f4fa"/><stop offset="0.99" stop-color="#d4ecf6" stop-opacity="0.9"/></linearGradient><filter id="bf8b95c4-d93c-4663-8aea-e17f59f6484f" name="AI_DesenfoqueGaussiano_4"><feGaussianBlur stdDeviation="4"/></filter><linearGradient id="b3a0edff-e8a0-4169-b12a-3f2bcbc0ad99" x1="1302.93" y1="1008.25" x2="1859.5" y2="1819.24" gradientUnits="userSpaceOnUse"><stop offset="0" stop-color="#fff" stop-opacity="0.4"/><stop offset="0.44" stop-color="#fff" stop-opacity="0.4"/><stop offset="0.48" stop-color="#fff" stop-opacity="0.4"/><stop offset="0.53" stop-color="#b7d4f4" stop-opacity="0.8"/><stop offset="1" stop-color="#b7d4f4" stop-opacity="0.8"/></linearGradient><linearGradient id="f0983570-cc15-4fd6-81e6-b7241026b714" x1="577.24" y1="1241.96" x2="2016.12" y2="1445.57" xlink:href="#ba8b6099-ecc6-4859-8502-0c49aa7cc019"/><radialGradient id="b4197ece-f6fb-4f72-aa91-cc98cd30ab9b" cx="-17509.63" cy="-10269.58" r="2949.61" gradientTransform="matrix(0.5, 0.62, 0, 0.5, 10578.45, 18734.6)" gradientUnits="userSpaceOnUse"><stop offset="0" stop-color="#cfecf3"/><stop offset="0.3" stop-color="#e0f3f5"/><stop offset="0.62" stop-color="#ebf7f6"/><stop offset="1" stop-color="#eef8f6"/></radialGradient><radialGradient id="b99644c1-bc7d-4903-bbdb-3c9fbf401ebd" cx="-18521.02" cy="-12168.12" r="2068.78" gradientTransform="matrix(0.5, 0.62, 0, 0.5, 10578.45, 18423.49)" gradientUnits="userSpaceOnUse"><stop offset="0" stop-color="#f9fbf5"/><stop offset="0.06" stop-color="#f9fbf5" stop-opacity="0.91"/><stop offset="0.26" stop-color="#f9fbf5" stop-opacity="0.63"/><stop offset="0.45" stop-color="#f9fbf5" stop-opacity="0.41"/><stop offset="0.63" stop-color="#f9fbf5" stop-opacity="0.23"/><stop offset="0.78" stop-color="#f9fbf5" stop-opacity="0.1"/><stop offset="0.91" stop-color="#f9fbf5" stop-opacity="0.03"/><stop offset="1" stop-color="#f9fbf5" stop-opacity="0"/></radialGradient><linearGradient id="e698dfcd-bbb9-43d8-aade-485a7af8e588" x1="-7686.66" y1="-7402.35" x2="-7642.65" y2="-7358.67" gradientTransform="matrix(0.71, 0.41, 0, 0.81, 6185.72, 9857.05)" gradientUnits="userSpaceOnUse"><stop offset="0.35" stop-color="#00b280"/><stop offset="0.73" stop-color="#1da8e0"/></linearGradient><linearGradient id="b1a2fc47-c554-4a46-a096-7f0a7e9c8daa" x1="-304.53" y1="2675.85" x2="-304.54" y2="2676.57" gradientTransform="matrix(19.17, 11.07, 0, -45.59, 6862.62, 126926.86)" gradientUnits="userSpaceOnUse"><stop offset="0" stop-color="#2fcaff"/><stop offset="1" stop-color="#21dcac"/></linearGradient><linearGradient id="e1c2810a-9620-4cfe-bc8b-a75609baa0d3" x1="-169.44" y1="2703.71" x2="-169.44" y2="2704.49" gradientTransform="matrix(34.46, 19.9, 0, -39.64, 6862.62, 112061.34)" gradientUnits="userSpaceOnUse"><stop offset="0" stop-color="#2fcaff"/><stop offset="1" stop-color="#22ddac"/></linearGradient><linearGradient id="a6c86558-2303-4368-b628-c6fd0792f3fb" x1="-7282.21" y1="-6472.52" x2="-7264.74" y2="-6455.61" gradientTransform="matrix(0.71, 0.41, 0, 0.81, 6185.72, 9857.05)" gradientUnits="userSpaceOnUse"><stop offset="0" stop-color="#2fcaff"/><stop offset="1" stop-color="#21ddac"/></linearGradient><linearGradient id="b1a0dbc5-5b51-453f-9cc7-de050fd4aeb4" x1="-7266.98" y1="-6488.26" x2="-7249.51" y2="-6471.35" xlink:href="#a6c86558-2303-4368-b628-c6fd0792f3fb"/><linearGradient id="a6053d52-ffb6-493d-a9ef-59bda62cf6f1" x1="1126.27" y1="1589.87" x2="1024.24" y2="1656.79" gradientUnits="userSpaceOnUse"><stop offset="0.03" stop-color="#90aac1" stop-opacity="0"/><stop offset="0.15" stop-color="#d4ecf6" stop-opacity="0.1"/><stop offset="1" stop-color="#5d7586" stop-opacity="0.3"/></linearGradient><linearGradient id="b1495946-fbd5-4d54-949f-16b882df2456" x1="1081.75" y1="1825.91" x2="770.52" y2="2028.8" gradientUnits="userSpaceOnUse"><stop offset="0.15" stop-color="#90aac1" stop-opacity="0"/><stop offset="0.3" stop-color="#d4ecf6" stop-opacity="0.1"/><stop offset="0.75" stop-color="#5d7586" stop-opacity="0.3"/></linearGradient><linearGradient id="ee0d0f50-49a8-416c-b45a-ab0399383242" x1="953.63" y1="1769.08" x2="780.52" y2="1881.93" gradientUnits="userSpaceOnUse"><stop offset="0.15" stop-color="#90aac1" stop-opacity="0"/><stop offset="0.3" stop-color="#d4ecf6" stop-opacity="0.1"/><stop offset="0.79" stop-color="#5d7586" stop-opacity="0.3"/></linearGradient><linearGradient id="a7d6c569-ee00-4d26-8c4b-2e0328793687" x1="950.08" y1="1862.58" x2="1007.24" y2="1758.78" gradientUnits="userSpaceOnUse"><stop offset="0" stop-color="#90aac1" stop-opacity="0"/><stop offset="0.08" stop-color="#d4ecf6" stop-opacity="0.1"/><stop offset="0.62" stop-color="#5d7586" stop-opacity="0.3"/></linearGradient><linearGradient id="e1a7224f-984c-4340-aa0f-9a5d769ea861" x1="790.73" y1="1902.43" x2="849.17" y2="1879.45" xlink:href="#b8ccc1c7-11e7-431a-b3b0-c67d351c908f"/><linearGradient id="a3b5e546-e417-4f88-9a11-85d725e78f94" x1="925.21" y1="1722.88" x2="956.73" y2="1648.68" gradientUnits="userSpaceOnUse"><stop offset="0" stop-color="#010d1a" stop-opacity="0"/><stop offset="1" stop-color="#010d1a"/></linearGradient><linearGradient id="bbe644cb-5595-4da9-883a-5081c96d964b" x1="889.72" y1="1796.49" x2="655.96" y2="1772.86" xlink:href="#b8ccc1c7-11e7-431a-b3b0-c67d351c908f"/><linearGradient id="aa6db606-1473-41f1-a2c3-ae2fca3e1552" x1="933.49" y1="1746.17" x2="999.81" y2="1820.37" xlink:href="#a3b5e546-e417-4f88-9a11-85d725e78f94"/><linearGradient id="a3587dc0-7381-4881-93f8-57e0adcdd7a2" x1="812.06" y1="2037.38" x2="838.33" y2="2017.02" xlink:href="#b8ccc1c7-11e7-431a-b3b0-c67d351c908f"/><linearGradient id="a0550b21-79c3-4ddf-8078-5a82e7fe382e" x1="957.44" y1="1879.83" x2="1009.31" y2="1925.8" xlink:href="#a3b5e546-e417-4f88-9a11-85d725e78f94"/><linearGradient id="a0d82a80-f4f2-4a57-aa0c-e67f7486a748" x1="1022.94" y1="1886.93" x2="821.36" y2="1846.88" gradientUnits="userSpaceOnUse"><stop offset="0.34" stop-color="#12abbb" stop-opacity="0"/><stop offset="1" stop-color="#12abbb" stop-opacity="0.5"/></linearGradient><linearGradient id="f9d5b954-7faa-4fb2-bb7a-812b584d8aa2" x1="946.37" y1="1610.83" x2="972.34" y2="1606.83" xlink:href="#a3b5e546-e417-4f88-9a11-85d725e78f94"/><linearGradient id="ac28a5d8-aa91-4e0e-9ccd-c217ee9321c4" x1="1076.96" y1="1682.51" x2="732.24" y2="1559.72" xlink:href="#a3b5e546-e417-4f88-9a11-85d725e78f94"/><linearGradient id="ae70f050-39a8-4a5c-ade1-b3eed2266328" x1="917.71" y1="1655.34" x2="901.73" y2="1698.68" xlink:href="#a3b5e546-e417-4f88-9a11-85d725e78f94"/><linearGradient id="ffba9267-dc64-4a39-9c24-918375a9f17a" x1="963.77" y1="1499.76" x2="968.14" y2="1470.43" gradientUnits="userSpaceOnUse"><stop offset="0" stop-color="#3cb3a3" stop-opacity="0"/><stop offset="1" stop-color="#3cb3a3"/></linearGradient><linearGradient id="ef145813-b3f5-48eb-b674-9792c52778f7" x1="1929.8" y1="1487.38" x2="1663.92" y2="1698.63" xlink:href="#b2977d91-9abe-4668-9329-92a24d6a578e"/><clipPath id="a96f03de-a113-4f05-9aa1-9f12bda90d5d"><path d="M1638,1578.77l35.24-20.48c10.52,3.07,21.28,6.75,32.37,11,7.5,2.83,15.15,6,23,9.52l-35.24,20.48c-7.83-3.49-15.48-6.69-23-9.52C1659.26,1585.52,1648.5,1581.84,1638,1578.77Z" fill="url(#e37b5dd2-d8b5-4297-b89f-e6b32f23616f)"/></clipPath><linearGradient id="a088bf0b-e386-4dea-8af2-870c0eea3264" x1="1807.19" y1="1688.8" x2="1600.46" y2="1505.26" xlink:href="#e37b5dd2-d8b5-4297-b89f-e6b32f23616f"/><clipPath id="b4f44ab3-3536-4259-b70f-c05a92ebf1b4"><path d="M1829.09,1832.09l35.24-20.48a431.85,431.85,0,0,1-10.28,59.41l-35.24,20.48A431.85,431.85,0,0,0,1829.09,1832.09Z" fill="url(#ab2c5bcf-12f6-4c99-b9ec-8a50915eb921)"/></clipPath><clipPath id="a7a8b8e1-c370-4c52-a98a-7753fa639541"><path d="M1761.72,1622.36l35.24-20.48c-11.36,6.48-17,18.86-17.08,37.21s5.53,37.22,16.82,56.77,24.87,33.86,40.83,43.08,29.59,10.62,41,4.14l-35.24,20.48q-17,9.7-41-4.14c-16-9.22-29.55-23.53-40.83-43.08s-16.87-38.43-16.82-56.78S1750.36,1628.83,1761.72,1622.36Z" fill="url(#be2f7af4-9912-4174-8534-c01d1a321c34)"/></clipPath><linearGradient id="aa7b3ed7-6aa9-4d84-be4a-0b943abd8975" x1="1736.75" y1="1836.26" x2="1874.57" y2="1573.88" gradientUnits="userSpaceOnUse"><stop offset="0.01" stop-color="#0071b0"/><stop offset="0.21" stop-color="#0477b5"/><stop offset="0.49" stop-color="#0e88c5"/><stop offset="0.77" stop-color="#1da1dc"/><stop offset="0.99" stop-color="#1da1dc"/><stop offset="1" stop-color="#1da1dc"/></linearGradient><clipPath id="ac51a5d4-7d67-4900-a15f-015cce85ee48"><path d="M1930.53,1887.08l35.23-20.48a50,50,0,0,1-10.14,9.24l-35.24,20.48A50.27,50.27,0,0,0,1930.53,1887.08Z" fill="url(#fd3f1c8e-d741-4296-b18a-688d44451a4a)"/></clipPath><linearGradient id="b359bc19-8eb0-4180-b0d2-ed3324431af5" x1="1919.09" y1="1932.03" x2="2056.9" y2="1669.65" xlink:href="#e37b5dd2-d8b5-4297-b89f-e6b32f23616f"/><linearGradient id="ab80b7d6-b2bc-4eae-9645-2ce8506b100a" x1="1917.01" y1="1930.94" x2="2054.83" y2="1668.56" xlink:href="#e37b5dd2-d8b5-4297-b89f-e6b32f23616f"/><clipPath id="abab4d2f-724a-48b8-abd8-c4f6f7d35448"><path d="M1685,1489.45l35.24-20.47a54.06,54.06,0,0,1,13.23-4.27l-35.24,20.48A54.46,54.46,0,0,0,1685,1489.45Z" fill="url(#b1f984f1-0709-4c0e-be69-ede3af9cab89)"/></clipPath><clipPath id="aa1d061b-6b41-4d89-8c7b-63b943d30bda"><path d="M1898,1814.4l35.24-20.48c7.06,14.29,13.63,28.31,19.71,42.22,4.54,10.22,8.75,20.34,12.8,30.46l-35.24,20.48c-4-10.12-8.26-20.24-12.8-30.46C1911.64,1842.71,1905.07,1828.69,1898,1814.4Z" fill="url(#e6a46cf9-70f8-431b-947b-92cf8c3cf13b)"/></clipPath><clipPath id="af29356b-9968-45f7-bf70-13be01806589"><path d="M1698.22,1485.19l35.24-20.48q23.05,29.19,45.44,62.61l-35.24,20.48Q1721.22,1514.46,1698.22,1485.19Z" fill="url(#fd841bdf-480b-46dc-a35a-5c7f4a7b0b8d)"/></clipPath><linearGradient id="bcfd5740-0165-4a0a-971a-9ef0d7f159fc" x1="1605.28" y1="1650.64" x2="1827.9" y2="1409.46" xlink:href="#e37b5dd2-d8b5-4297-b89f-e6b32f23616f"/><clipPath id="f685f02a-2ac3-4a87-9d08-50b8b424da4f"><path d="M1911.47,1786.17l35.24-20.48c-2.81,11.22-7.24,20.66-13.46,28.23L1898,1814.4C1904.23,1806.83,1908.66,1797.39,1911.47,1786.17Z" fill="url(#ac03671e-ac52-4842-8ea7-954962b071f0)"/></clipPath><clipPath id="b38d2b49-455c-4775-8723-8bda4a0a1d30"><path d="M1743.66,1547.8l35.24-20.48c10.2-1.52,21.21-.5,32.95,3.18L1776.61,1551C1764.87,1547.3,1753.86,1546.28,1743.66,1547.8Z" fill="url(#bfb51963-3bf3-4def-b224-56023ce548ee)"/></clipPath><linearGradient id="b5c5bab9-8b5f-4360-b70f-ac8b3d7ad7f0" x1="1810.48" y1="1610.29" x2="1734.28" y2="1444.65" xlink:href="#e37b5dd2-d8b5-4297-b89f-e6b32f23616f"/><clipPath id="fabd133f-f54c-488a-a72b-fe396dcb4314"><path d="M1899.12,1680.88l35.24-20.48a211.24,211.24,0,0,1,13,44.92l-35.24,20.48A211.24,211.24,0,0,0,1899.12,1680.88Z" fill="url(#ad7ff547-609d-440c-99ed-4c58e6e1df08)"/></clipPath><linearGradient id="fd72539a-a87d-4e17-844c-15cc5f64e295" x1="1971.4" y1="1421.9" x2="1869.36" y2="1996.58" xlink:href="#e37b5dd2-d8b5-4297-b89f-e6b32f23616f"/><clipPath id="a91d6ed5-6f55-4a3b-8b86-0a8d2796f73c"><path d="M1829.4,1581.54l35.24-20.47a216.17,216.17,0,0,1,32.86,34.82l-35.24,20.48A216.25,216.25,0,0,0,1829.4,1581.54Z" fill="url(#f04c7869-f363-4057-88e4-3fb2435e593c)"/></clipPath><linearGradient id="b64dff9f-f22e-4d99-a66c-735e0413c03b" x1="1966.15" y1="1758.31" x2="1793.21" y2="1472.74" xlink:href="#e37b5dd2-d8b5-4297-b89f-e6b32f23616f"/><linearGradient id="b73f071a-3535-49f6-954d-bd8371e9c870" x1="2102.8" y1="2086.57" x2="1862.06" y2="1455.79" xlink:href="#e37b5dd2-d8b5-4297-b89f-e6b32f23616f"/><clipPath id="bd70e09f-590b-4b96-969c-5ea327d9e15b"><path d="M1912.14,1725.8l35.24-20.48c9.44,6.67,18.72,13.62,27.84,20.76,9.36,7.28,18.48,14.8,27.35,22.45L1967.33,1769q-13.3-11.49-27.35-22.45C1930.86,1739.42,1921.58,1732.47,1912.14,1725.8Z" fill="url(#ac5a56b1-057e-4e3e-ab69-91e9314c5c03)"/></clipPath><linearGradient id="f279cf8e-fb06-476d-b06d-746e67f573f2" x1="1661.55" y1="1796.76" x2="1799.37" y2="1534.38" xlink:href="#e37b5dd2-d8b5-4297-b89f-e6b32f23616f"/><clipPath id="efd62624-550a-44b3-859d-c31b1be3098f"><path d="M1819.8,1513.47,1855,1493c4.26,22.33,7.46,45.09,9.6,68.08l-35.24,20.47C1827.26,1558.56,1824.06,1535.8,1819.8,1513.47Z" fill="url(#a636e02c-8aed-4a53-a31e-37d2760bc869)"/></clipPath><linearGradient id="b74cafed-bf14-4cfb-b25c-40b7fcc3d5e9" x1="1810.85" y1="1764.41" x2="1879.1" y2="1270.13" xlink:href="#e37b5dd2-d8b5-4297-b89f-e6b32f23616f"/><clipPath id="e118b6f8-241a-4b0f-84ae-ad1c248f64ee"><path d="M1931.12,1646.66l35.24-20.48a223.44,223.44,0,0,1-32,34.22l-35.24,20.48A223.44,223.44,0,0,0,1931.12,1646.66Z" fill="url(#e5eec8de-55b5-4ab2-81ce-cfeb57ef99ca)"/></clipPath><linearGradient id="f0ebe88a-7be4-4daa-bd4c-6eb58973af9e" x1="1946.93" y1="1780.91" x2="1912.47" y2="1471.48" xlink:href="#e37b5dd2-d8b5-4297-b89f-e6b32f23616f"/><clipPath id="b77d8c2d-8a7e-4497-9c1b-606672bfe84b"><path d="M1862.26,1616.37l35.24-20.48a225.17,225.17,0,0,1,45.56-10l-35.24,20.48A225.17,225.17,0,0,0,1862.26,1616.37Z" fill="url(#fece7945-f797-4fee-9749-7046710fb409)"/></clipPath><linearGradient id="b48bdae1-f99d-4cde-8e44-cbf0386be692" x1="2010.84" y1="1281.35" x2="1890.92" y2="1825.98" xlink:href="#e37b5dd2-d8b5-4297-b89f-e6b32f23616f"/></defs><g style="isolation:isolate"><g id="a90b7c6f-6213-461f-a32f-426af20a50d3" data-name="ShadowBG"><ellipse id="fe2718e4-dee3-4671-9fee-a34ea731e55c" data-name="shadow BG" cx="1383.12" cy="1748.53" rx="1049.27" ry="583.22" transform="translate(-10.97 8.74) rotate(-0.36)" fill="url(#b82c5d77-fef0-46ea-86e5-583483f18dd2)"/></g><g id="b6d557be-adcb-4321-bdef-d0f8ff5f71b3" data-name="Plant"><g id="fae9273a-f113-466f-bff1-b05a621b9617" data-name="Plant"><g id="f2a010dc-5e76-4c45-a4a2-3ee015f0081a" data-name="plant_15"><g id="ac0f25f4-9d82-4d4e-8656-09bfbc63ac49" data-name="Layer1 23 MEMBER 0 FILL"><path d="M804.49,1664.11q-32.25-903.28-337.26-1218Q284.44,1222.07,804.49,1664.11Z" fill="#95eee5"/></g><g id="e4cf438c-3cd1-4cdd-97ad-1f9e8f6176f1" data-name="Layer1 23 MEMBER 0 FILL"><path d="M804.49,1664.11q-32.25-903.28-337.26-1218Q284.44,1222.07,804.49,1664.11Z" fill="url(#fc6f43e0-2173-4591-8077-5158ae49565a)"/></g><g id="f9c98de5-d6f0-4315-a6d2-523d48130f7b" data-name="Layer1 23 MEMBER 1 FILL"><path d="M483.61,522c0-.44-.15-.52-.45-.22-.44,0-.52.15-.22.45l21.77,175q6.72,46.23,13,84.6l57,278.47-12.57-7.41-29.62-24-20-20-30.29-35.23c-.15-.15-.38-.15-.68,0v.67l28.73,44.88,30.51,37.25q7.63,7.63,9.2,9l4.49,4a39.49,39.49,0,0,0,4.26,3.81l16.83,12.12.45.45.45.22,2,1.35a8.41,8.41,0,0,0,2,.89l8.53,42,7.63,27.37h0l4.93,17.95h0L639.12,1310h0l-21.77-8.3-10.1-5.39q-6.06-3.36-10.32-6l-9.87-6.51-19.52-15.71-19.75-19.52c-.15-.15-.38-.15-.67,0-.15.3-.15.52,0,.67l29.39,37.47,13.46,13q8.09,7,9.65,8.08a77.72,77.72,0,0,0,9.88,7.4l18.84,11.45,2.25.89,6.73,3.37.9.22,1.57.9,1.57.45,4.71,1.8,28.27,98.28a10.71,10.71,0,0,0,1.8,6.51c.25.41.48.78.67,1.12l52.51,154.6q15.34,15.43,31.41,30.29a11.3,11.3,0,0,0,2.25-3.14,13.79,13.79,0,0,0,.45-10.32v-.22L726.63,1514l-29-89.53,16.38-167.84c.3-.3.23-.45-.22-.45l-.45.22-28.72,128.35-68.89-214.51a3.11,3.11,0,0,0,.22-.45l.45-.9,3.14-9,.23-1.12,2.91-9.65.68-1.57,15.71-66.86,15.93-130.15c.3-.3.22-.45-.23-.45l-.45.22-26.47,120-3.59,12.12-.23,1.12-.45,1.12-9.42,29.17q-1.58,4.72-5.61,15.49l-2.25,5.16-32.08-123L524.45,780.46q-3.81-20-14.81-83.92Z" fill="#4dd2d2"/></g><g id="bc9fc949-ca94-4d04-9166-6b9f8e26013c" data-name="Layer1 24 MEMBER 0 FILL"><path d="M1024.17,616C757.9,869.79,689.4,1210.82,794,1721,1115,1294.19,1183.5,953.16,1024.17,616Z" fill="#95eee5"/></g><g id="a0c6f8c4-5427-4ec5-9e64-d1c502d21e20" data-name="Layer1 24 MEMBER 1 FILL"><path d="M826.71,987.35c0-.45-.15-.52-.45-.23-.45,0-.53.15-.23.45l5.16,76.52,4.27,30.52,17.95,80.78,6.73,22.21.45,2,.45.9,4,13q-12.52,79-21.55,163.14l-60.36-133.29c0-.45-.15-.53-.45-.23-.44,0-.52.15-.22.45l54.08,179.29q-4.23-16.11-.45-2.69,1.13,4,2.24,7-2.45,26.88-4.71,54.31a10.07,10.07,0,0,1-.45,1.12h.45q-8.46,107.89-11.44,223.71,14.22-19.93,27.6-39.94,3.81-102.63,10.77-199,37.81-95.43,139.34-164.93-82.32,42.45-136.2,125,6.4-75.64,14.81-147.2h.22q45.13-124,144.74-232.92-80,69.75-137.78,174.58,34.92-261.3,100.08-465.61-72,182.44-112.65,410.63l-11.66-30.07-.68-1.34-.22-1.35-12.79-40.61-.23-1.35-.45-1.35-6.73-26.92-.45-1.35Z" fill="#4dd2d2"/></g><g id="f36cfdc9-8db8-45cf-942d-757e9c48a6f0" data-name="Layer1 26 MEMBER 0 FILL"><path d="M934.11,224.1Q685.49,458.82,764.92,769.37,1023.87,505.26,934.11,224.1Z" fill="#95eee5"/></g><g id="b0666843-b05c-4bec-9b30-d94bd02b16f1" data-name="Layer1 26 MEMBER 0 FILL"><path d="M934.11,224.1Q685.49,458.82,764.92,769.37,1023.87,505.26,934.11,224.1Z" fill="url(#e3e8a6a3-41f4-40b1-9e5b-fa3f90d6bfd1)"/></g><g id="e2e408c5-d860-49fd-a699-0beda84062d4" data-name="Layer1 26 MEMBER 1 FILL"><path d="M905.16,311.39c-.3-.3-.44-.23-.44.22l-19.53,38.82L829.1,491.35l-38.37,134L763.57,764q.67,2.73,1.35,5.39,10.33-10.54,20-21.09l6.51-46.68,32.76-158.87,31.41-106.58,49.82-124.31C905.69,311.54,905.61,311.39,905.16,311.39Z" fill="url(#b3ff6759-a62b-4016-bf4b-9fdb02db45ec)"/></g><path d="M754.89,1140.24Q673.34,658.82,467.23,446.12,295.4,1175.53,744.65,1609.86l.71.69c3.88,3.74,7.77,7.48,11.71,11.19,6.55,45.6,27.08,51.38,36.89,99.25,321-426.8,389.54-767.83,230.21-1105Q808.17,821.87,754.89,1140.24Z" fill="url(#b8ccc1c7-11e7-431a-b3b0-c67d351c908f)"/><path d="M767.13,764q.66,2.73,1.35,5.39c4-4.09,7.9-8.18,11.75-12.26q245-258.37,157.43-533Q691.26,456.72,767.15,763.86Z" fill="url(#af33a649-acbf-4610-a43f-63d128260fa6)"/><g style="mix-blend-mode:hard-light"><path d="M754.89,1140.24Q673.34,658.82,467.23,446.12,295.4,1175.53,744.65,1609.86l.71.69c3.88,3.74,7.77,7.48,11.71,11.19,6.55,45.6,27.08,51.38,36.89,99.25,321-426.8,389.54-767.83,230.21-1105Q808.17,821.87,754.89,1140.24Z" fill="url(#ed27a0ed-9bb5-4428-a77a-d0984466173b)"/></g></g></g></g><g id="a3e4c8c7-6a99-4c99-aa3a-78ed23653870" data-name="Base"><g id="bc851ab2-3ce9-4d21-a7b2-2a9bec110676" data-name="Base-Light"><g opacity="0.16"><path d="M1210.67,1422.4c10.09,0,20.19,2.23,27.91,6.69L1813.45,1761c15.44,8.91,15.52,23.36.18,32.27l-456.76,263.26c-7.67,4.46-17.74,6.68-27.82,6.68s-20.18-2.22-27.9-6.68l-574.87-331.9c-15.44-8.91-15.52-23.37-.19-32.28l456.76-263.26c7.67-4.45,17.74-6.68,27.82-6.68m0-12h0c-12.61,0-24.63,2.95-33.85,8.31L720.1,1681.94c-11.12,6.46-17.47,16.11-17.45,26.5s6.44,20.11,17.63,26.57l574.87,331.9c9.26,5.35,21.3,8.29,33.9,8.29s24.63-2.95,33.85-8.31l456.72-263.23c11.12-6.46,17.47-16.11,17.46-26.5s-6.44-20.11-17.63-26.57l-574.87-331.9c-9.26-5.35-21.31-8.29-33.91-8.29Z" fill="#85d8d1"/></g><g opacity="0.18"><path d="M1210.67,1422.4c10.09,0,20.19,2.23,27.91,6.69L1813.45,1761c15.44,8.91,15.52,23.36.18,32.27l-456.76,263.26c-7.67,4.45-17.74,6.68-27.82,6.68s-20.18-2.22-27.9-6.68l-574.87-331.9c-15.44-8.92-15.52-23.37-.19-32.28l456.76-263.26c7.67-4.45,17.74-6.68,27.82-6.68m0-6v0h0c-11.57,0-22.52,2.66-30.83,7.49L723.1,1687.14c-9.34,5.43-14.47,13-14.45,21.29s5.21,15.94,14.63,21.38l574.87,331.9c8.36,4.83,19.34,7.49,30.9,7.49s22.52-2.66,30.84-7.49l456.74-263.25c9.33-5.43,14.46-13,14.45-21.29s-5.21-15.94-14.63-21.38l-574.87-331.9c-8.37-4.83-19.34-7.49-30.91-7.49Z" fill="#333a45"/></g><g opacity="0.47"><path d="M1813.45,1761c15.44,8.91,15.52,23.36.18,32.27l-456.76,263.26c-15.34,8.91-40.28,8.91-55.72,0l-574.87-331.9c-15.44-8.91-15.52-23.37-.19-32.28l456.76-263.26c15.34-8.91,40.29-8.91,55.73,0Z" fill="none" stroke="#333a45" stroke-width="2.5"/></g><path d="M1329.81,2064.56l131.19-1.84a120.89,120.89,0,0,0,47.7-13L1966,1792.39s33.62-23.91-15.93-48.19l-527.48-303.89-235.9,243.2Z" fill="url(#b2977d91-9abe-4668-9329-92a24d6a578e)"/><g clip-path="url(#ea28c117-6672-4cf3-bdb4-f52bfe631448)"><g id="ea0ef8c8-7ccf-46ef-a1ec-c1eff6a89cfa" data-name="base"><g style="isolation:isolate"><path d="M1928,1642.61,1356.77,1969c-15.34,8.91-37.57,11.12-53,2.21L728.42,1639.69c-7.77-4.49-13.79-7.45-13.77-13.33l-.24,81.51c0,5.88,3.87,11.77,11.64,16.26L1300.92,2056c15.44,8.91,40.38,8.91,55.72,0l571.14-331.91c7.62-4.43,11.43-10.22,11.45-16l.23-81.52C1939.44,1632.38,1935.63,1638.18,1928,1642.61Z" fill="#d4ecf6"/><path d="M1329.05,1979.2c-10.18,0-19.73-2.28-26.9-6.42l-574.87-331.9c-6.85-4-10.63-9.09-10.63-14.47s3.7-10.43,10.45-14.35l571.14-331.91c7.11-4.13,16.64-6.41,26.81-6.41s19.74,2.28,26.91,6.42l574.87,331.9c6.85,4,10.62,9.09,10.63,14.47s-3.71,10.42-10.46,14.35l-571.13,331.91C1348.75,1976.92,1339.23,1979.2,1329.05,1979.2Z" fill="url(#ba8b6099-ecc6-4859-8502-0c49aa7cc019)"/><path d="M1325.05,1271.74v4c9.84,0,19,2.19,25.91,6.15l574.87,331.9c6.2,3.59,9.62,8.11,9.63,12.74s-3.35,9.07-9.46,12.62l-571.14,331.91c-6.82,4-16,6.14-25.81,6.14s-19-2.18-25.9-6.15l-574.87-331.9c-6.21-3.58-9.63-8.11-9.63-12.74s3.35-9.07,9.45-12.62l571.14-331.91c6.82-4,16-6.14,25.81-6.14v-4m0,0c-10.08,0-20.15,2.23-27.82,6.69l-571.14,331.9c-15.33,8.92-15.25,23.37.19,32.28l574.87,331.9c7.72,4.46,17.81,6.69,27.9,6.69s20.15-2.23,27.82-6.69L1928,1642.61c15.34-8.92,15.26-23.37-.18-32.28L1353,1278.43c-7.72-4.46-17.82-6.69-27.91-6.69Z" fill="#fafbfc"/><path d="M1325.05,1271.74v2c10.19,0,19.74,2.28,26.91,6.42l574.87,331.9c6.85,4,10.62,9.09,10.63,14.47s-3.71,10.42-10.45,14.35l-571.14,331.91c-7.12,4.13-16.65,6.41-26.82,6.41s-19.73-2.28-26.9-6.42l-574.87-331.9c-6.85-4-10.63-9.09-10.63-14.47s3.7-10.43,10.45-14.35l571.14-331.91c7.11-4.13,16.64-6.41,26.81-6.41v-2m0,0c-10.08,0-20.15,2.23-27.82,6.69l-571.14,331.9c-15.33,8.92-15.25,23.37.19,32.28l574.87,331.9c7.72,4.46,17.81,6.69,27.9,6.69s20.15-2.23,27.82-6.69L1928,1642.61c15.34-8.92,15.26-23.37-.18-32.28L1353,1278.43c-7.72-4.46-17.82-6.69-27.91-6.69Z" fill="#fff"/></g></g></g><g id="be5b27cd-b5f0-484c-8a22-fa19d903503a" data-name="Shadowtablet" filter="url(#bf8b95c4-d93c-4663-8aea-e17f59f6484f)"><path d="M1550,1916.67c-7.15,4.12-18.84,4.12-26,0L875.29,1542.11c-7.15-4.12-7.15-10.87,0-15l3.12-1.8c7.15-4.13,18.84-4.13,26,0l648.75,374.55c7.15,4.13,7.15,10.88,0,15Z" fill="#90aac1" opacity="0.2"/></g></g></g><g id="f0829ea5-ce23-4eee-9928-569b8acdeac1" data-name="Dashboard"><g id="aee8b5e2-6347-4515-b18a-7139e39a9d45" data-name="Dashboard"><g id="b5ad3d0e-155c-4bdd-a5bc-31815513abf4" data-name="Frame"><path d="M1826.09,1232.62,704.45,586.28c-6.64-3.83-12.65-4.19-17-1.66l-35.24,20.47c4.35-2.52,10.36-2.16,17,1.67L1790.85,1253.1c13.2,7.62,23.86,26.09,23.81,41.25l-2.12,753.58c0,7.53-2.68,12.83-7,15.32l35.24-20.48c4.28-2.49,6.94-7.79,7-15.32l2.12-753.58C1850,1258.71,1839.29,1240.24,1826.09,1232.62Z" fill="#d4ecf6"/><path d="M1826.09,1232.62,704.45,586.28c-6.64-3.83-12.65-4.19-17-1.66l-35.24,20.47c4.35-2.52,10.36-2.16,17,1.67L1790.85,1253.1c13.2,7.62,23.86,26.09,23.81,41.25l-2.12,753.58c0,7.53-2.68,12.83-7,15.32l35.24-20.48c4.28-2.49,6.94-7.79,7-15.32l2.12-753.58C1850,1258.71,1839.29,1240.24,1826.09,1232.62Z" fill="url(#b3a0edff-e8a0-4169-b12a-3f2bcbc0ad99)"/><path d="M1799.3,2062.87a20,20,0,0,1-9.72-3L667.94,1413.51c-12.62-7.29-22.86-25-22.81-39.51l2.12-753.58c0-9.21,4.33-14.94,11.25-14.94a20,20,0,0,1,9.71,3l1121.64,646.35c12.62,7.28,22.85,25,22.81,39.5l-2.12,753.58C1810.52,2057.14,1806.21,2062.87,1799.3,2062.87Z" fill="url(#f0983570-cc15-4fd6-81e6-b7241026b714)"/><path d="M658.5,603.48v4a18.11,18.11,0,0,1,8.72,2.74l1121.63,646.35c11.86,6.85,21.85,24.14,21.81,37.77l-2.12,753.58c0,8.1-3.48,12.95-9.24,12.95a18,18,0,0,1-8.73-2.75L668.94,1411.78c-11.86-6.85-21.85-24.15-21.81-37.77l2.12-753.58c0-8.11,3.48-12.95,9.25-12.95v-4m0,0c-7.82,0-13.21,6.2-13.24,16.94L643.13,1374c0,15.16,10.61,33.62,23.81,41.24l1121.63,646.35a21.86,21.86,0,0,0,10.73,3.28c7.83,0,13.21-6.2,13.24-16.94l2.12-753.58c0-15.16-10.61-33.63-23.81-41.25L669.21,606.76a21.8,21.8,0,0,0-10.72-3.28Z" fill="#fafbfc"/><path d="M658.5,603.48v2h0a20,20,0,0,1,9.72,3l1121.63,646.34c12.62,7.29,22.85,25,22.81,39.51l-2.12,753.58c0,9.22-4.33,14.95-11.24,14.95a20.07,20.07,0,0,1-9.73-3L667.94,1413.51c-12.62-7.28-22.86-25-22.81-39.51l2.12-753.58c0-9.21,4.33-14.94,11.25-14.94v-2m0,0c-7.82,0-13.21,6.2-13.24,16.94L643.13,1374c0,15.16,10.61,33.62,23.81,41.24l1121.63,646.35a21.86,21.86,0,0,0,10.73,3.28c7.83,0,13.21-6.2,13.24-16.94l2.12-753.58c0-15.16-10.61-33.63-23.81-41.25L669.21,606.76a21.8,21.8,0,0,0-10.72-3.28Z" fill="#fff"/></g><g id="ba00dc5a-38be-4ffd-8247-0d9fad405e39" data-name="Screen"><path d="M1782.57,2051.25l-1113-642.6c-12.55-7.24-22.72-24.77-22.72-39.16V627.13c0-14.38,10.17-20.17,22.72-12.92l1113,642.59c12.55,7.25,22.72,24.78,22.72,39.16v742.36C1805.29,2052.71,1795.12,2058.49,1782.57,2051.25Z" fill="url(#b4197ece-f6fb-4f72-aa91-cc98cd30ab9b)"/><path d="M1782.57,2051.25l-1113-642.6c-12.55-7.24-22.72-24.77-22.72-39.16V627.13c0-14.38,10.17-20.17,22.72-12.92l1113,642.59c12.55,7.25,22.72,24.78,22.72,39.16v742.36C1805.29,2052.71,1795.12,2058.49,1782.57,2051.25Z" fill="url(#b99644c1-bc7d-4903-bbdb-3c9fbf401ebd)"/><line x1="724.51" y1="804.4" x2="1711.77" y2="1374.4" fill="none" stroke="#d0d8dc" stroke-miterlimit="10" stroke-width="0.82"/><g opacity="0.51"><path d="M872.68,850.83,724.51,765.29a11.72,11.72,0,0,1-5.33-9.18c0-3.38,2.38-4.73,5.33-3l148.17,85.54A11.73,11.73,0,0,1,878,847.8C878,851.17,875.62,852.53,872.68,850.83Z" fill="#66717b"/></g><path d="M1186.29,954.05l-98.42-56.82a5.47,5.47,0,0,1-2.48-4.29c0-1.57,1.11-2.2,2.48-1.41l98.42,56.82a5.47,5.47,0,0,1,2.49,4.29C1188.78,954.21,1187.67,954.85,1186.29,954.05Z" fill="#66717b" opacity="0.51"/><path d="M1316.56,1028l-98.42-56.82a3.14,3.14,0,0,1-1.42-2.45c0-.9.64-1.26,1.42-.81l98.42,56.83a3.11,3.11,0,0,1,1.42,2.44C1318,1028.13,1317.35,1028.5,1316.56,1028Z" fill="#d0d8dc"/><path d="M1446.83,1103.25l-98.42-56.82A3.14,3.14,0,0,1,1347,1044c0-.9.64-1.26,1.42-.81l98.42,56.83a3.11,3.11,0,0,1,1.42,2.45C1448.25,1103.34,1447.62,1103.71,1446.83,1103.25Z" fill="#d0d8dc"/><path d="M1524.59,1565.15l-544.4-314.32a15.61,15.61,0,0,1-7.11-12.24V1032.24c0-4.49,3.18-6.3,7.11-4l544.4,314.32a15.61,15.61,0,0,1,7.11,12.24v206.35C1531.7,1565.6,1528.52,1567.41,1524.59,1565.15Zm-459.87-519.77a7.81,7.81,0,0,0-3.55-6.12L973.09,988.4c-2-1.13-3.56-.23-3.56,2a7.8,7.8,0,0,0,3.56,6.12l88.08,50.86C1063.13,1048.53,1064.72,1047.62,1064.72,1045.38Z" fill="#10141b" fill-opacity="0.05"/><path d="M1497.28,1577.8,952.87,1263.49a15.63,15.63,0,0,1-7.1-12.24V1044.9c0-4.49,3.18-6.3,7.1-4l544.41,314.31a15.66,15.66,0,0,1,7.1,12.25v206.34C1504.38,1578.26,1501.2,1580.07,1497.28,1577.8Z" fill="#fff"/><g opacity="0.06"><path d="M1497.28,1355.17a15.66,15.66,0,0,1,7.1,12.25v206.34c0,4.5-3.18,6.31-7.1,4L952.87,1263.49a15.63,15.63,0,0,1-7.1-12.24V1044.9c0-4.49,3.18-6.3,7.1-4l544.41,314.31m0-.88L952.87,1040c-4.34-2.5-7.88-.49-7.88,4.48V1250.8c0,5,3.54,11.07,7.88,13.58l544.41,314.31c4.34,2.51,7.87.5,7.87-4.48V1367.86c0-5-3.53-11.07-7.87-13.57Z" fill="#d0d8dc"/></g><g opacity="0.05"><path d="M1497.28,1355.17a15.66,15.66,0,0,1,7.1,12.25v206.34c0,4.5-3.18,6.31-7.1,4L952.87,1263.49a15.63,15.63,0,0,1-7.1-12.24V1044.9c0-4.49,3.18-6.3,7.1-4l544.41,314.31m0-1.77L952.87,1039.08c-4.77-2.75-8.65-.54-8.65,4.93v206.35c0,5.46,3.88,12.15,8.65,14.91l544.41,314.31c4.77,2.75,8.65.55,8.65-4.92V1368.31c0-5.47-3.88-12.16-8.65-14.91Z" fill="#d0d8dc"/></g><g opacity="0.04"><path d="M1497.28,1355.17a15.66,15.66,0,0,1,7.1,12.25v206.34c0,4.5-3.18,6.31-7.1,4L952.87,1263.49a15.63,15.63,0,0,1-7.1-12.24V1044.9c0-4.49,3.18-6.3,7.1-4l544.41,314.31m0-2.66L952.87,1038.2c-5.2-3-9.43-.6-9.43,5.36v206.35c0,6,4.23,13.24,9.43,16.24l544.41,314.32c5.19,3,9.42.59,9.42-5.36V1368.76c0-6-4.23-13.25-9.42-16.25Z" fill="#d0d8dc"/></g><g opacity="0.03"><path d="M1497.28,1355.17a15.66,15.66,0,0,1,7.1,12.25v206.34c0,4.5-3.18,6.31-7.1,4L952.87,1263.49a15.63,15.63,0,0,1-7.1-12.24V1044.9c0-4.49,3.18-6.3,7.1-4l544.41,314.31m0-3.55L952.87,1037.31c-5.62-3.25-10.2-.65-10.2,5.8v206.35c0,6.45,4.58,14.34,10.2,17.58l544.41,314.32c5.62,3.24,10.2.64,10.2-5.81V1369.2c0-6.44-4.58-14.33-10.2-17.58Z" fill="#d0d8dc"/></g><g opacity="0.02"><path d="M1497.28,1355.17a15.66,15.66,0,0,1,7.1,12.25v206.34c0,4.5-3.18,6.31-7.1,4L952.87,1263.49a15.63,15.63,0,0,1-7.1-12.24V1044.9c0-4.49,3.18-6.3,7.1-4l544.41,314.31m0-4.44L952.87,1036.42c-6-3.49-11-.69-11,6.24V1249c0,6.94,4.92,15.43,11,18.92l544.41,314.31c6,3.5,11,.7,11-6.24V1369.65c0-6.94-4.92-15.42-11-18.92Z" fill="#d0d8dc"/></g><ellipse cx="1039.59" cy="1201.72" rx="46.45" ry="80.45" transform="translate(-464.83 690.25) rotate(-30.36)" fill="#10141b" fill-opacity="0.1"/><ellipse cx="1017.96" cy="1214.4" rx="46.45" ry="80.45" transform="translate(-474.2 681.06) rotate(-30.36)" fill="#f3f5f7"/><path d="M1033.86,1060.05l-88.09-50.85a7.85,7.85,0,0,1-3.55-6.12c0-2.25,1.59-3.16,3.55-2l88.09,50.85a7.85,7.85,0,0,1,3.55,6.12C1037.41,1060.28,1035.82,1061.19,1033.86,1060.05Z" fill="#66717b" opacity="0.51"/><path d="M1285.81,1272.45l-132-76.21a5.47,5.47,0,0,1-2.48-4.29c0-1.57,1.11-2.2,2.48-1.41l132,76.21a5.47,5.47,0,0,1,2.48,4.29C1288.29,1272.61,1287.18,1273.24,1285.81,1272.45Z" fill="#66717b" opacity="0.51"/><line x1="1153.8" y1="1342.98" x2="1285.81" y2="1419.19" fill="none" stroke="#0088a1" stroke-linecap="round" stroke-miterlimit="10" stroke-width="3.27" opacity="0.5"/><path d="M1220.2,1283.21l-66.39-38.33a3.12,3.12,0,0,1-1.43-2.45c0-.9.64-1.26,1.43-.8L1220.2,1280a3.14,3.14,0,0,1,1.42,2.45C1221.62,1283.3,1221,1283.67,1220.2,1283.21Z" fill="#d0d8dc"/><path d="M1220.2,1333.08l-66.39-38.33a3.14,3.14,0,0,1-1.43-2.45c0-.9.64-1.26,1.43-.81l66.39,38.33a3.14,3.14,0,0,1,1.42,2.45C1221.62,1333.17,1221,1333.53,1220.2,1333.08Z" fill="#d0d8dc"/><path d="M1424,1400.85l-66.4-38.33a3.15,3.15,0,0,1-1.42-2.45c0-.9.64-1.26,1.42-.81l66.4,38.33a3.14,3.14,0,0,1,1.42,2.45C1425.37,1400.94,1424.73,1401.3,1424,1400.85Z" fill="#d0d8dc"/><path d="M1424,1450.71l-66.4-38.33a3.14,3.14,0,0,1-1.42-2.45c0-.9.64-1.26,1.42-.81l66.4,38.33a3.15,3.15,0,0,1,1.42,2.45C1425.37,1450.8,1424.73,1451.16,1424,1450.71Z" fill="#d0d8dc"/><path d="M745.22,721.64c-.58.34-1.54-.21-2.13-1.23l-9.69-16.62c-.59-1-.59-2.11,0-2.45l9.62-5.56c.59-.33,1.54.22,2.13,1.23l9.62,16.59c.59,1,.59,2.11,0,2.44Z" opacity="0.5" fill="url(#e698dfcd-bbb9-43d8-aade-485a7af8e588)"/><path d="M1531.7,1906.41,973.08,1583.89v-212.7c0-4.5,3.18-6.31,7.11-4l544.4,314.31a15.61,15.61,0,0,1,7.11,12.24Z" fill="#fff"/><g opacity="0.06"><path d="M1524.59,1681.46a15.61,15.61,0,0,1,7.11,12.24v212.71L973.08,1583.89v-212.7c0-4.5,3.18-6.31,7.11-4l544.4,314.31m0-.88-544.4-314.32c-4.34-2.51-7.88-.5-7.88,4.48v213.59l.77.45,558.62,322.51.77.44V1694.15c0-5-3.53-11.07-7.88-13.57Z" fill="#d0d8dc"/></g><g opacity="0.05"><path d="M1524.59,1681.46a15.61,15.61,0,0,1,7.11,12.24v212.71L973.08,1583.89v-212.7c0-4.5,3.18-6.31,7.11-4l544.4,314.31m0-1.77-544.4-314.31c-4.77-2.76-8.65-.55-8.65,4.92v214.47l1.54.89,558.62,322.51,1.54.89V1694.59c0-5.46-3.88-12.15-8.65-14.9Z" fill="#d0d8dc"/></g><g opacity="0.04"><path d="M1524.59,1681.46a15.61,15.61,0,0,1,7.11,12.24v212.71L973.08,1583.89v-212.7c0-4.5,3.18-6.31,7.11-4l544.4,314.31m0-2.65-544.4-314.32c-5.2-3-9.42-.59-9.42,5.36v215.36l2.31,1.33,558.62,322.52,2.31,1.33V1695c0-6-4.22-13.24-9.42-16.23Z" fill="#d0d8dc"/></g><g opacity="0.03"><path d="M1524.59,1681.46a15.61,15.61,0,0,1,7.11,12.24v212.71L973.08,1583.89v-212.7c0-4.5,3.18-6.31,7.11-4l544.4,314.31m0-3.54-544.4-314.31c-5.62-3.25-10.19-.64-10.19,5.79v216.25l3.08,1.78,558.62,322.51,3.08,1.78V1695.48c0-6.44-4.57-14.31-10.19-17.56Z" fill="#d0d8dc"/></g><g opacity="0.02"><path d="M1524.59,1681.46a15.61,15.61,0,0,1,7.11,12.24v212.71L973.08,1583.89v-212.7c0-4.5,3.18-6.31,7.11-4l544.4,314.31m0-4.42-544.4-314.32c-6.05-3.49-11-.69-11,6.24v217.13l3.85,2.22,558.62,322.52,3.85,2.22V1695.93c0-6.93-4.91-15.4-11-18.89Z" fill="#d0d8dc"/></g><path d="M1061.17,1379.88,973.09,1329a7.8,7.8,0,0,1-3.56-6.12c0-2.25,1.59-3.15,3.56-2l88.08,50.86a7.81,7.81,0,0,1,3.55,6.12C1064.72,1380.11,1063.13,1381,1061.17,1379.88Z" fill="#66717b" opacity="0.51"/><path d="M1142.73,1504l-132-76.22a5.45,5.45,0,0,1-2.49-4.28c0-1.57,1.11-2.21,2.49-1.41l132,76.21a5.48,5.48,0,0,1,2.49,4.28C1145.22,1504.12,1144.1,1504.76,1142.73,1504Z" fill="#66717b" opacity="0.51"/><g opacity="0.75"><g id="a2ad10b3-dbf4-4ef7-9f46-ab97094418fd" data-name="Landing-Page-Selection"><g id="b628286f-b15b-4c67-9d6c-72609f13cefb" data-name="Assets"><path id="b16d094d-f291-4685-a6dd-17ad867fff92" data-name="Combined-Shape" d="M1030.48,1559.49l.07,13.82v.1a.52.52,0,0,1-.86.45h0l-12.22-7h0l-.07-.05a2,2,0,0,1-.8-1.49h0l-.07-13.17h0v-.67l7,10.45Zm-.86-19,.07,0a2.29,2.29,0,0,1,.8,1.74h0l.06,13.54-7-10.4-7,2.46-.06-13.54v-.1c0-.65.41-1,.87-.7h0l12.24,7Z" fill-rule="evenodd" fill="url(#b1a2fc47-c554-4a46-a096-7f0a7e9c8daa)"/></g></g></g><g opacity="0.75"><g id="e901cbc5-2dce-4c9b-bd97-a8d9f19e4feb" data-name="Landing-Page-Selection"><g id="b2f003fa-68ee-46c5-9965-69bc6d2b0c63" data-name="Assets"><path id="f321be26-5268-4f39-8cc8-aa142b952b0d" data-name="Combined-Shape" d="M1020.19,1498.61l3.33,5.7,3.18-1.76,5.1,10.24-.18.07c-2.2.79-5,.41-8.08-1.37h0l-.27-.15a25.64,25.64,0,0,1-8-8.13h0Zm3.33-16.18c7,4,12.63,13.8,12.63,21.82h0l-7.58-4.38,0-.2a6.58,6.58,0,0,0,0-1.1h0v-.17a11.46,11.46,0,0,0-4.72-8h0l-.15-.09c-2.88-1.78-5.24-.5-5.24,2.79h0v.25a6.85,6.85,0,0,0,.07.78h0l-7.69-4.44v-.24C1011,1481.58,1016.62,1478.44,1023.52,1482.43Z" fill-rule="evenodd" fill="url(#e1c2810a-9620-4cfe-bc8b-a75609baa0d3)"/></g></g></g><path d="M1449.31,1740.73l-391.7-226.15a3.13,3.13,0,0,1-1.42-2.44c0-.9.64-1.27,1.42-.81l391.7,226.14a3.15,3.15,0,0,1,1.42,2.45C1450.73,1740.82,1450.09,1741.18,1449.31,1740.73Z" fill="#d0d8dc"/><path d="M1449.31,1802.93l-391.7-226.14a3.15,3.15,0,0,1-1.42-2.45c0-.9.64-1.26,1.42-.81l391.7,226.15a3.12,3.12,0,0,1,1.42,2.44C1450.73,1803,1450.09,1803.39,1449.31,1802.93Z" fill="#d0d8dc"/><path d="M1019.83,1610.88v-8.62l0,0,0,0c-4.53-2.61-8.27-1-9,3.44Z" fill="url(#a6c86558-2303-4368-b628-c6fd0792f3fb)"/><path d="M1029.52,1613.88l6.06,3.5c.42.24.77.08.81-.37v-12.78a1.75,1.75,0,0,0-.74-1.33l-.07-.05-11.87-6.86c-.43-.24-.77-.08-.81.37v6.44l6.62,3.82Z" fill="url(#b1a0dbc5-5b51-453f-9cc7-de050fd4aeb4)"/><ellipse cx="1613.58" cy="1197.9" rx="5.78" ry="10.01" transform="translate(-384.18 979.84) rotate(-30.36)" fill="#66717b" opacity="0.51"/><ellipse cx="1662.42" cy="1226.09" rx="5.78" ry="10.01" transform="matrix(0.86, -0.51, 0.51, 0.86, -391.74, 1008.4)" fill="#66717b" opacity="0.51"/><ellipse cx="1711.26" cy="1254.29" rx="5.78" ry="10.01" transform="translate(-399.29 1036.95) rotate(-30.36)" fill="#66717b" opacity="0.51"/><path d="M835.78,1055.61l-54.13-31.25a2.35,2.35,0,0,1-1.06-1.84c0-.67.47-.94,1.06-.61l54.13,31.25a2.35,2.35,0,0,1,1.06,1.84C836.84,1055.67,836.37,1056,835.78,1055.61Z" fill="#66717b" opacity="0.51"/><path d="M835.78,1128.65l-54.13-31.25a2.35,2.35,0,0,1-1.06-1.84c0-.68.47-1,1.06-.61l54.13,31.25a2.35,2.35,0,0,1,1.06,1.84C836.84,1128.71,836.37,1129,835.78,1128.65Z" fill="#66717b" opacity="0.51"/><path d="M835.78,1201.68l-54.13-31.25a2.33,2.33,0,0,1-1.06-1.83c0-.68.47-.95,1.06-.61l54.13,31.25a2.33,2.33,0,0,1,1.06,1.84C836.84,1201.75,836.37,1202,835.78,1201.68Z" fill="#66717b" opacity="0.51"/><line x1="724.51" y1="953.62" x2="867.97" y2="1036.45" fill="none" stroke="#d0d8dc" stroke-miterlimit="10" stroke-width="0.82"/><line x1="724.51" y1="1026.66" x2="867.97" y2="1109.49" fill="none" stroke="#d0d8dc" stroke-miterlimit="10" stroke-width="0.82"/><ellipse cx="751.19" cy="1005.55" rx="5.78" ry="10.01" transform="translate(-405.23 517.58) rotate(-30.36)" fill="#66717b" opacity="0.51"/><line x1="724.51" y1="1099.7" x2="867.97" y2="1182.53" fill="none" stroke="#d0d8dc" stroke-miterlimit="10" stroke-width="0.82"/><ellipse cx="751.19" cy="1078.58" rx="5.78" ry="10.01" transform="translate(-442.14 527.59) rotate(-30.36)" fill="#66717b" opacity="0.51"/><ellipse cx="751.19" cy="1151.62" rx="5.78" ry="10.01" transform="translate(-479.06 537.61) rotate(-30.36)" fill="#66717b" opacity="0.51"/><g opacity="0.05"><polygon points="872.68 1039.17 724.5 953.62 724.5 880.59 872.68 966.13 872.68 1039.17" fill="#10141b"/></g><g opacity="0.5"><path d="M818.13,995.4,764,964.15a3.14,3.14,0,0,1-1.42-2.45c0-.9.64-1.26,1.42-.8l54.13,31.25a3.12,3.12,0,0,1,1.42,2.44C819.55,995.49,818.91,995.85,818.13,995.4Z" fill="#0088a1"/></g><g opacity="0.5"><path d="M706.86,967.68a3.13,3.13,0,0,1-1.42-2.45v-73c0-.9.63-1.26,1.42-.81a3.15,3.15,0,0,1,1.42,2.45v73C708.28,967.77,707.64,968.13,706.86,967.68Z" fill="#0088a1"/></g><polygon points="850.32 976.25 706.86 893.42 706.86 892.6 850.32 975.43 850.32 976.25" fill="#d0d8dc"/><g opacity="0.5"><ellipse cx="733.54" cy="944.93" rx="5.78" ry="10.01" transform="translate(-377.01 500.34) rotate(-30.36)" fill="#0088a1"/></g><g opacity="0.2"><polygon points="855.03 1051.6 706.86 966.05 706.86 893.01 855.03 978.56 855.03 1051.6" fill="#0088a1"/></g><polygon points="1186.29 976.8 1087.87 919.98 1087.87 903.52 1186.29 960.35 1186.29 976.8" fill="#10141b" fill-opacity="0.05"/><polygon points="1178.79 982.17 1080.37 925.34 1080.37 908.89 1178.79 965.71 1178.79 982.17" fill="#0088a1" opacity="0.2"/><path d="M872.68,784.16,795,739.32a2.33,2.33,0,0,1-1.06-1.83c0-.68.47-1,1.06-.61l77.66,44.83a2.38,2.38,0,0,1,1.06,1.84C873.74,784.22,873.26,784.5,872.68,784.16Z" fill="#66717b" opacity="0.51"/></g></g></g><g id="fe18ae34-2c23-4d02-906f-3f99841ef9a9" data-name="Man"><g id="aeac4e18-e426-463f-9de9-aa4dc3e7be7b" data-name="man"><path d="M1052.41,1791.22,1188.78,1716l3.44-163-117.59-63.82c-34.37-18.66-76.19,6.23-76.19,45.34v57.12l54,199.61" fill="url(#a6053d52-ffb6-493d-a9ef-59bda62cf6f1)"/><g id="a69c0e9d-9a93-4adf-bef6-e8d7b9af6315" data-name="shadow"><polygon points="840.02 2040.25 1049.77 1916.83 1049.77 1835.92 1001.58 1808.1 1001.58 1884.89 815.96 2025.1 840.02 2040.25" fill="url(#b1495946-fbd5-4d54-949f-16b882df2456)"/><polygon points="829.46 1899.13 923.39 1843.87 936.62 1775.84 893.04 1753.5 888.19 1823.55 809.08 1884.91 829.46 1899.13" fill="url(#ee0d0f50-49a8-416c-b45a-ab0399383242)"/><path d="M1052.41,1791.22l-19.27,35.1v80.91l-134-77.36V1759.6L1037,1748.47S1067.51,1761.75,1052.41,1791.22Z" fill="url(#a7d6c569-ee00-4d26-8c4b-2e0328793687)"/></g><g id="e5a71818-7665-4cd7-b6ad-b4314f8e997c" data-name="Layer1 0 FILL"><path d="M895.19,1633.85q-7.49,0-11.4,6.79v3.87l2.62,1.23c-1.82,4.26,1.93,3.93,1,11l25,9.67,3.81-4.17v-15.9Q908.69,1638.72,895.19,1633.85Z" fill="#e8ceb7"/></g><g id="ed08debd-020b-4bf7-822c-b9cfe0494419" data-name="Layer1 1 FILL"><path d="M955.88,1535.3q-15.48,9-17.14,59.46l-6.84,55.39c-4.65-2.3-12.51-5.33-22.15-9.12,2,4.91.92,12.75-2,22.68,11,12.44,24.1,18.14,38.21,21.13q28.29-50.11,23.14-100.24Z" fill="#85a5c1"/></g><g id="aa8976ab-c0cc-4daf-93ed-fa6b938a63d2" data-name="Layer1 2 FILL"><path d="M841.38,1869.71l-13.78,12.14-16.9.3-26.11,19q-9.58,7,17.39,3.37l24.83-3.91Q841.06,1898.73,841.38,1869.71Z" fill="#a4dad3"/></g><g id="a3f3b111-b9e2-49af-bb6f-6112126bc4e0" data-name="Layer1 2 FILL"><path d="M841.38,1869.71l-13.78,12.14-16.9.3-26.11,19q-9.58,7,17.39,3.37l24.83-3.91Q841.06,1898.73,841.38,1869.71Z" fill="url(#e1a7224f-984c-4340-aa0f-9a5d769ea861)"/></g><g id="fa2a8a12-a401-4257-b2e3-a180cada7456" data-name="Layer1 3 FILL"><path d="M1012.87,1764.47l13.42-48.27q-105.12-27-181.5-20.36-17.7-1.5-21.35,22.94-9.54,64-12.74,163.37,9.09,13.93,27,10.3,30.12-74.06,30.72-128Q971.45,1786,1012.87,1764.47Z" fill="#225b8b"/></g><g id="ab7e98ec-b268-45b0-a656-252dc317e671" data-name="Layer1 3 FILL"><path d="M1012.87,1764.47l13.42-48.27q-105.12-27-181.5-20.36-17.7-1.5-21.35,22.94-9.54,64-12.74,163.37,9.09,13.93,27,10.3,30.12-74.06,30.72-128Q971.45,1786,1012.87,1764.47Z" fill="url(#a3b5e546-e417-4f88-9a11-85d725e78f94)"/></g><g id="b0d1790b-38c2-4f2a-b81a-f11e0e42c862" data-name="Layer1 3 FILL"><path d="M1012.87,1764.47l13.42-48.27q-105.12-27-181.5-20.36-17.7-1.5-21.35,22.94-9.54,64-12.74,163.37,9.09,13.93,27,10.3,30.12-74.06,30.72-128Q971.45,1786,1012.87,1764.47Z" fill="url(#bbe644cb-5595-4da9-883a-5081c96d964b)"/></g><g id="aaed62bc-e570-4a68-bc99-c4446d0ebf71" data-name="Layer1 4 FILL"><path d="M968.82,1774.82l.34-31.46a158.56,158.56,0,0,0-49.94,29.58Q948.67,1777.56,968.82,1774.82Z" fill="url(#aa6db606-1473-41f1-a2c3-ae2fca3e1552)"/></g><g id="fb16ee22-44e5-426a-a000-6b142cea49b6" data-name="Layer1 5 FILL"><path d="M847.37,2003.1H826.46l-10.5,22-23.09,21.25q-9.12,8.52,19.92,2.43t32-16.05Z" fill="#a4dad3"/></g><g id="fcec9ee0-8646-49e6-8851-47707631b2ec" data-name="Layer1 5 FILL"><path d="M847.37,2003.1H826.46l-10.5,22-23.09,21.25q-9.12,8.52,19.92,2.43t32-16.05Z" fill="url(#a3587dc0-7381-4881-93f8-57e0adcdd7a2)"/></g><g id="ac906a6f-9b9f-4335-b62e-de74a24ff2d3" data-name="Layer1 6 FILL"><path d="M1037.49,1804.9q37.88-32,32.76-94.79l-87.91,12.24-13.18,21a1210.22,1210.22,0,0,0-85.52,114.21q-2.94,2.15-22.54,50.79t-46.43,112.92q11.12,16.2,28.94,15.06,82.76-106.62,85.67-140.17Z" fill="#225b8b"/></g><g id="e5914b19-2246-443f-849d-845961265d9f" data-name="Layer1 6 FILL"><path d="M1037.49,1804.9q37.88-32,32.76-94.79l-87.91,12.24-13.18,21a1210.22,1210.22,0,0,0-85.52,114.21q-2.94,2.15-22.54,50.79t-46.43,112.92q11.12,16.2,28.94,15.06,82.76-106.62,85.67-140.17Z" fill="url(#a0550b21-79c3-4ddf-8078-5a82e7fe382e)"/></g><g id="b57f65b2-89cb-4f18-b5c2-fd234846ea79" data-name="Layer1 6 FILL"><path d="M1037.49,1804.9q37.88-32,32.76-94.79l-87.91,12.24-13.18,21a1210.22,1210.22,0,0,0-85.52,114.21q-2.94,2.15-22.54,50.79t-46.43,112.92q11.12,16.2,28.94,15.06,82.76-106.62,85.67-140.17Z" fill="url(#a0d82a80-f4f2-4a57-aa0c-e67f7486a748)"/></g><path d="M957.07,1662q-14.42-43.15-9.86-104l21.31,62.34Q967.17,1639.6,957.07,1662Z" fill="url(#f9d5b954-7faa-4fb2-bb7a-812b584d8aa2)"/><g id="e2d05a90-f23a-415d-95eb-dbb1e332b3cf" data-name="Layer1 8 FILL"><path d="M967.13,1535q-15-3.95-20.16,12t23.33,131.31L956.43,1703q1.14,13.11,11.74,19.92,27.15,17.53,45.59,17.35,43.27-2,56.49-30.13a515.2,515.2,0,0,0-11.3-127.24q-4.5-21-21.9-28A336.59,336.59,0,0,0,967.13,1535Z" fill="#628baf"/></g><path d="M1033.73,1742.76q-23.85,19.66-72-28.34l34.59-5.3L1027.39,1600l27.3-14.47Q1057.55,1723.15,1033.73,1742.76Z" fill="url(#ac28a5d8-aa91-4e0e-9ccd-c217ee9321c4)"/><path d="M889.49,1650q3.21-1.92-6.79-9.67,5.5-4.38,11-4.21c17.76,9.43,37.22,22.76,56.92,40-2.68,7.79-9.56,12.42-19.16,13.87-1.59-.64-11.07-5.78-24.62-24-2.68-1-10.27-3.47-12.18-4C892.05,1659.11,895.14,1653.39,889.49,1650Z" fill="url(#ae70f050-39a8-4a5c-ade1-b3eed2266328)"/><g id="f2a6e710-20fd-4b52-9ce4-9e9521c7dd47" data-name="Layer1 11 FILL"><path d="M895.78,1655.21q-5.12-2-4.41.74l6.74,9-2.77,2.38,23.23,4.06Q905.57,1659.32,895.78,1655.21Z" fill="#d2a57d"/></g><g id="a5a18819-974f-4ca8-937b-bfdd3fc5094f" data-name="Layer1 12 MEMBER 0 FILL"><path d="M840.38,1603.53c-2.6-1.36-4.64-.58-6.09,2.33l28.59,58a11.62,11.62,0,0,0,5.55,5.9l36,23.24q5.16-1.4,3.52-5.26l-24.77-58.47a11.85,11.85,0,0,0-5.55-5.94Z" fill="#1c8a7c"/></g><g id="a554ea7d-4a1d-4bc3-973f-4a6d25d46db1" data-name="Layer1 12 MEMBER 1 FILL"><path d="M837,1606.22c-2.61-1.38-3.36-.78-2.27,1.79l24.77,58.47a11.8,11.8,0,0,0,5.54,5.94l37.24,19.76q3.9,2.07,2.27-1.79l-24.77-58.47a11.77,11.77,0,0,0-5.55-5.94Z" fill="#6fc7bb"/></g><g id="b8a2fa85-2de1-419d-b211-e4fb13cc9c4e" data-name="Layer1 13 FILL"><path d="M947.86,1517.11v-23.48a41.71,41.71,0,0,0-5.35,3,9.62,9.62,0,0,0-2.33,3.07c-.75,1.46-.61,3.92.44,7.39S944.11,1513.91,947.86,1517.11Z" fill="#112e46"/></g><g id="ab663ad4-0ce9-47dd-89a5-ccccfed3a30a" data-name="Layer1 15 FILL"><path d="M977.59,1495q-3.37-12.72-17.54-8.13A49.52,49.52,0,0,0,945,1495q-5.28,4,0,19.22v5.75q6.22,15.12,10.51,15.06t11.64,0q7.8,21.87,12.64,30.13,2.1,2.81,7.58,0,7.53-3.64,9.81-10.36,1.83-5.23,1-13a127.28,127.28,0,0,0-13.68-17.14Z" fill="#e8ceb7"/></g><g id="b6d24a7f-bbbd-4187-bd6d-f42a57b49c43" data-name="Layer1 17 FILL"><path d="M979.12,1488.72q-4.15-4.8-13.52-4.8-7.53,0-17.84,6.14-6.69,4.11-6.74,6a4.54,4.54,0,0,0,1.68,3.17,6.52,6.52,0,0,0,3.57,1.58,19.24,19.24,0,0,0,8.57-.89q4.53-1.44,7.78-2.72-2.29,4.78-2.42,6.09a3,3,0,0,0,1,2.58,3.33,3.33,0,0,0,2.72.79,21.9,21.9,0,0,0,6.34-1.74q4.66-1.77,5.8.1.69,1.24-1.09,5.9-1.74,4.47,1.54,5.2t4.61,0a3.38,3.38,0,0,1,0,.45,25.26,25.26,0,0,0-.05,3.52c.19,1.91.82,2.56,1.88,1.93s1.5-2.71,1.24-6.14c0-1-.06-1.88-.1-2.78q-.45-8.89-.84-13.08Q982.64,1492.78,979.12,1488.72Z" fill="#225b8b"/></g><g id="efddc998-90fe-444d-a427-e537637ebb69" data-name="Layer1 17 FILL"><path d="M979.12,1488.72q-4.15-4.8-13.52-4.8-7.53,0-17.84,6.14-6.69,4.11-6.74,6a4.54,4.54,0,0,0,1.68,3.17,6.52,6.52,0,0,0,3.57,1.58,19.24,19.24,0,0,0,8.57-.89q4.53-1.44,7.78-2.72-2.29,4.78-2.42,6.09a3,3,0,0,0,1,2.58,3.33,3.33,0,0,0,2.72.79,21.9,21.9,0,0,0,6.34-1.74q4.66-1.77,5.8.1.69,1.24-1.09,5.9-1.74,4.47,1.54,5.2t4.61,0a3.38,3.38,0,0,1,0,.45,25.26,25.26,0,0,0-.05,3.52c.19,1.91.82,2.56,1.88,1.93s1.5-2.71,1.24-6.14c0-1-.06-1.88-.1-2.78q-.45-8.89-.84-13.08Q982.64,1492.78,979.12,1488.72Z" fill="url(#ffba9267-dc64-4a39-9c24-918375a9f17a)"/></g><g id="f779751f-024e-46a7-bcf1-9f66acffb770" data-name="Layer1 18 FILL"><path d="M976.65,1529.3q-7.41,3.17-21.95,5.6a3.23,3.23,0,0,0,.79.1q4.29,0,11.64,0a11.32,11.32,0,0,0,1.09,2.43Z" fill="#d2a57d"/></g><g id="e1906286-f89d-4f7e-8cdd-47054eea03ea" data-name="Layer1 20 FILL"><path d="M925.46,1673l-13.72-7.48q-8.44-1.65-11.85.24l-22-10.45q-4.17-.85-3.61,2.33,1.11,7.67,6.49,16.25a22,22,0,0,0,10.6,9.31l37.31,14.52Z" fill="#e8ceb7"/></g><g id="b408945d-a455-42aa-8567-f1d43ad6e719" data-name="Layer1 21 FILL"><path d="M915,1665.42q-4.86,11.34,4.06,29.92,79.23,37.67,93.55,32.21c4.17-1.17,19.9-37.82,28.09-62.93s12.74-46.51,13.63-64.21.23-28.64-2-32.81a18.52,18.52,0,0,0-8.43-8.47,12.78,12.78,0,0,0-11.19,0q-6.35,2.88-11.2,11.7c-12.44,39.93-22.73,78.81-31.93,121.46a127.74,127.74,0,0,0-13-5.38C966.07,1683.1,915,1665.42,915,1665.42Z" fill="#85a5c1"/></g><g id="a128adea-1026-45b7-bbb7-a203407bcf28" data-name="Layer1 22 FILL"><path d="M932,1650.2l14.27,6.25a26.31,26.31,0,0,0-13.72-10.71Z" fill="#3d6f9a" fill-opacity="0.41"/></g></g></g><g id="bffa1966-71f8-49b5-bb56-8df96b766047" data-name="Gear"><path d="M1813,1665.34a100.53,100.53,0,0,1-6.67-35.46q0-17.16,6.67-27.39l36.28-23.39v-84.22L1813,1517.46a64.32,64.32,0,0,0-7.66.65q-22.42-33.33-45.43-62.6a33.34,33.34,0,0,0-23.45,13.36q13.85,34.73,31.69,71c-6.22,7.94-10.57,17.89-13.13,29.73-7.83-3.49-15.49-6.69-23-9.52-11.08-4.24-21.84-7.93-32.36-11a117.15,117.15,0,0,0-2.09,17.91,155.47,155.47,0,0,0,2.06,20c10.5,9.06,21.25,17.8,32.32,26.35,7.74,6,15.56,11.79,23.53,17.43a216.7,216.7,0,0,0,13.26,43.75,210.44,210.44,0,0,0-19.88,19.36c-4.58,5-8.84,10.28-12.94,15.6,3,6.89,6.41,13.92,10.3,21.14,4.15,6.7,8.45,13.13,13,19.13a223.31,223.31,0,0,0,47.35-10.54c2.11,2.7,4.25,5.3,6.41,7.86l36.9-23-1-80.35Z" fill="url(#ef145813-b3f5-48eb-b674-9792c52778f7)"/><path d="M1638,1578.77l35.24-20.48c10.52,3.07,21.28,6.75,32.37,11,7.5,2.83,15.15,6,23,9.52l-35.24,20.48c-7.83-3.49-15.48-6.69-23-9.52C1659.26,1585.52,1648.5,1581.84,1638,1578.77Z" fill="url(#e37b5dd2-d8b5-4297-b89f-e6b32f23616f)"/><g clip-path="url(#a96f03de-a113-4f05-9aa1-9f12bda90d5d)"><path d="M1638,1578.77l35.24-20.48c10.52,3.07,21.28,6.75,32.37,11,7.5,2.83,15.15,6,23,9.52l-35.24,20.48c-7.83-3.49-15.48-6.69-23-9.52-11.09-4.24-21.85-7.92-32.37-11" fill="url(#a088bf0b-e386-4dea-8af2-870c0eea3264)"/></g><path d="M1829.09,1832.09l35.24-20.48a431.85,431.85,0,0,1-10.28,59.41l-35.24,20.48A431.85,431.85,0,0,0,1829.09,1832.09Z" fill="url(#ab2c5bcf-12f6-4c99-b9ec-8a50915eb921)"/><g clip-path="url(#b4f44ab3-3536-4259-b70f-c05a92ebf1b4)"><path d="M1829.09,1832.09a446.38,446.38,0,0,1-6.81,44.18q-1.6,7.79-3.47,15.23l35.24-20.48q1.86-7.44,3.47-15.23,4.32-20.79,6.81-44.18Z" fill="url(#ab2c5bcf-12f6-4c99-b9ec-8a50915eb921)"/></g><path d="M1761.72,1622.36l35.24-20.48c-11.36,6.48-17,18.86-17.08,37.21s5.53,37.22,16.82,56.77,24.87,33.86,40.83,43.08,29.59,10.62,41,4.14l-35.24,20.48q-17,9.7-41-4.14c-16-9.22-29.55-23.53-40.83-43.08s-16.87-38.43-16.82-56.78S1750.36,1628.83,1761.72,1622.36Z" fill="url(#be2f7af4-9912-4174-8534-c01d1a321c34)"/><g clip-path="url(#a7a8b8e1-c370-4c52-a98a-7753fa639541)"><path d="M1775.77,1736.9a100.81,100.81,0,0,0,26.52,22.52q24,13.82,41,4.14l35.24-20.48q-17,9.72-41-4.14a100.81,100.81,0,0,1-26.52-22.52h0a139.16,139.16,0,0,1-14.31-20.56l-.31-.53a134.2,134.2,0,0,1-12.06-27.32,97.94,97.94,0,0,1-4.45-28.92,69.27,69.27,0,0,1,1.3-13.69q2.13-10.28,7.74-16.89a30.06,30.06,0,0,1,8-6.63l-35.24,20.48a30.06,30.06,0,0,0-8,6.63q-5.62,6.62-7.74,16.89a69.25,69.25,0,0,0-1.3,13.68,97.64,97.64,0,0,0,4.46,28.93,133.59,133.59,0,0,0,12.05,27.32l.31.53a139.16,139.16,0,0,0,14.31,20.56" fill="url(#aa7b3ed7-6aa9-4d84-be4a-0b943abd8975)"/></g><path d="M1930.53,1887.08l35.23-20.48a50,50,0,0,1-10.14,9.24l-35.24,20.48A50.27,50.27,0,0,0,1930.53,1887.08Z" fill="url(#fd3f1c8e-d741-4296-b18a-688d44451a4a)"/><g clip-path="url(#ac51a5d4-7d67-4900-a15f-015cce85ee48)"><path d="M1930.53,1887.08l35.23-20.48-.37.45-35.24,20.48.38-.45" fill="url(#b359bc19-8eb0-4180-b0d2-ed3324431af5)"/><path d="M1930.15,1887.53l35.24-20.48a50.32,50.32,0,0,1-9.77,8.79l-35.24,20.48a50.32,50.32,0,0,0,9.77-8.79" fill="url(#ab80b7d6-b2bc-4eae-9645-2ce8506b100a)"/></g><path d="M1685,1489.45l35.24-20.47a54.06,54.06,0,0,1,13.23-4.27l-35.24,20.48A54.46,54.46,0,0,0,1685,1489.45Z" fill="url(#b1f984f1-0709-4c0e-be69-ede3af9cab89)"/><g clip-path="url(#abab4d2f-724a-48b8-abd8-c4f6f7d35448)"><path d="M1685,1489.45l35.24-20.47a54.06,54.06,0,0,1,13.23-4.27l-35.24,20.48a54.46,54.46,0,0,0-13.23,4.26" fill="url(#b1f984f1-0709-4c0e-be69-ede3af9cab89)"/></g><path d="M1898,1814.4l35.24-20.48c7.06,14.29,13.63,28.31,19.71,42.22,4.54,10.22,8.75,20.34,12.8,30.46l-35.24,20.48c-4-10.12-8.26-20.24-12.8-30.46C1911.64,1842.71,1905.07,1828.69,1898,1814.4Z" fill="url(#e6a46cf9-70f8-431b-947b-92cf8c3cf13b)"/><g clip-path="url(#aa1d061b-6b41-4d89-8c7b-63b943d30bda)"><path d="M1898,1814.4l35.24-20.48c7.06,14.29,13.63,28.31,19.71,42.22,4.54,10.22,8.75,20.34,12.8,30.46l-35.23,20.48c-4.06-10.12-8.27-20.24-12.81-30.46-6.08-13.91-12.65-27.93-19.71-42.22" fill="url(#e6a46cf9-70f8-431b-947b-92cf8c3cf13b)"/></g><path d="M1698.22,1485.19l35.24-20.48q23.05,29.19,45.44,62.61l-35.24,20.48Q1721.22,1514.46,1698.22,1485.19Z" fill="url(#fd841bdf-480b-46dc-a35a-5c7f4a7b0b8d)"/><g clip-path="url(#af29356b-9968-45f7-bf70-13be01806589)"><path d="M1698.22,1485.19l35.24-20.48q23.05,29.19,45.44,62.61l-35.24,20.48q-22.44-33.35-45.44-62.61" fill="url(#bcfd5740-0165-4a0a-971a-9ef0d7f159fc)"/></g><path d="M1911.47,1786.17l35.24-20.48c-2.81,11.22-7.24,20.66-13.46,28.23L1898,1814.4C1904.23,1806.83,1908.66,1797.39,1911.47,1786.17Z" fill="url(#ac03671e-ac52-4842-8ea7-954962b071f0)"/><g clip-path="url(#f685f02a-2ac3-4a87-9d08-50b8b424da4f)"><path d="M1911.47,1786.17l35.24-20.48c-2.81,11.22-7.24,20.66-13.46,28.23L1898,1814.4c6.22-7.57,10.65-17,13.46-28.23" fill="url(#ac03671e-ac52-4842-8ea7-954962b071f0)"/></g><path d="M1743.66,1547.8l35.24-20.48c10.2-1.52,21.21-.5,32.95,3.18L1776.61,1551C1764.87,1547.3,1753.86,1546.28,1743.66,1547.8Z" fill="url(#bfb51963-3bf3-4def-b224-56023ce548ee)"/><g clip-path="url(#b38d2b49-455c-4775-8723-8bda4a0a1d30)"><path d="M1743.66,1547.8l35.24-20.48c10.2-1.52,21.21-.5,32.95,3.18L1776.61,1551c-11.74-3.68-22.75-4.7-32.95-3.18" fill="url(#b5c5bab9-8b5f-4360-b70f-ac8b3d7ad7f0)"/></g><path d="M1899.12,1680.88l35.24-20.48a211.24,211.24,0,0,1,13,44.92l-35.24,20.48A211.24,211.24,0,0,0,1899.12,1680.88Z" fill="url(#ad7ff547-609d-440c-99ed-4c58e6e1df08)"/><g clip-path="url(#fabd133f-f54c-488a-a72b-fe396dcb4314)"><path d="M1941.33,1679.89q-3-9.72-7-19.49l-35.24,20.47q4,9.78,7,19.5a200.54,200.54,0,0,1,6.05,25.43l35.24-20.48A200.54,200.54,0,0,0,1941.33,1679.89Z" fill="url(#fd72539a-a87d-4e17-844c-15cc5f64e295)"/></g><path d="M1829.4,1581.54l35.24-20.47a216.17,216.17,0,0,1,32.86,34.82l-35.24,20.48A216.25,216.25,0,0,0,1829.4,1581.54Z" fill="url(#f04c7869-f363-4057-88e4-3fb2435e593c)"/><g clip-path="url(#a91d6ed5-6f55-4a3b-8b86-0a8d2796f73c)"><path d="M1889.71,1586.17a210,210,0,0,0-25.07-25.1l-35.24,20.47a210.85,210.85,0,0,1,25.07,25.11q4,4.69,7.79,9.72l35.24-20.48Q1893.69,1590.86,1889.71,1586.17Z" fill="url(#b64dff9f-f22e-4d99-a66c-735e0413c03b)"/></g><path d="M2003.34,1753.58c-.23-1.68-.49-3.37-.77-5L1967.33,1769a153.57,153.57,0,0,1,2.07,20,116.1,116.1,0,0,1-2.09,17.92l35.24-20.48a116.1,116.1,0,0,0,2.09-17.92C2004.47,1763.62,2004,1758.61,2003.34,1753.58Z" fill="url(#b73f071a-3535-49f6-954d-bd8371e9c870)"/><path d="M1912.14,1725.8l35.24-20.48c9.44,6.67,18.72,13.62,27.84,20.76,9.36,7.28,18.48,14.8,27.35,22.45L1967.33,1769q-13.3-11.49-27.35-22.45C1930.86,1739.42,1921.58,1732.47,1912.14,1725.8Z" fill="url(#ac5a56b1-057e-4e3e-ab69-91e9314c5c03)"/><g clip-path="url(#bd70e09f-590b-4b96-969c-5ea327d9e15b)"><path d="M1912.14,1725.8l35.24-20.48c9.44,6.67,18.72,13.62,27.84,20.76,9.36,7.28,18.48,14.8,27.35,22.45L1967.33,1769q-13.3-11.49-27.35-22.45c-9.12-7.14-18.4-14.09-27.84-20.76" fill="url(#ac5a56b1-057e-4e3e-ab69-91e9314c5c03)"/></g><path d="M1838.18,1480.82a119.47,119.47,0,0,0-16.38-7.12l-35.24,20.48a119.47,119.47,0,0,1,16.38,7.12,181.85,181.85,0,0,1,16.86,12.17L1855,1493A181.85,181.85,0,0,0,1838.18,1480.82Z" fill="url(#f279cf8e-fb06-476d-b06d-746e67f573f2)"/><path d="M1819.8,1513.47,1855,1493c4.26,22.33,7.46,45.09,9.6,68.08l-35.24,20.47C1827.26,1558.56,1824.06,1535.8,1819.8,1513.47Z" fill="url(#a636e02c-8aed-4a53-a31e-37d2760bc869)"/><g clip-path="url(#efd62624-550a-44b3-859d-c31b1be3098f)"><path d="M1819.8,1513.47,1855,1493c4.26,22.33,7.46,45.09,9.6,68.08l-35.24,20.47c-2.14-23-5.34-45.74-9.6-68.07" fill="url(#b74cafed-bf14-4cfb-b25c-40b7fcc3d5e9)"/></g><path d="M1931.12,1646.66l35.24-20.48a223.44,223.44,0,0,1-32,34.22l-35.24,20.48A223.44,223.44,0,0,0,1931.12,1646.66Z" fill="url(#e5eec8de-55b5-4ab2-81ce-cfeb57ef99ca)"/><g clip-path="url(#e118b6f8-241a-4b0f-84ae-ad1c248f64ee)"><path d="M1931.12,1646.66q-3.88,5.14-8.09,10.09a222.11,222.11,0,0,1-23.91,24.12l35.24-20.47a222.2,222.2,0,0,0,23.91-24.13q4.2-4.93,8.09-10.09Z" fill="url(#f0ebe88a-7be4-4daa-bd4c-6eb58973af9e)"/></g><path d="M1862.26,1616.37l35.24-20.48a225.17,225.17,0,0,1,45.56-10l-35.24,20.48A225.17,225.17,0,0,0,1862.26,1616.37Z" fill="url(#fece7945-f797-4fee-9749-7046710fb409)"/><g clip-path="url(#b77d8c2d-8a7e-4497-9c1b-606672bfe84b)"><path d="M1862.26,1616.37l35.24-20.48a225.17,225.17,0,0,1,45.56-10l-35.24,20.48a225.17,225.17,0,0,0-45.56,10" fill="url(#fece7945-f797-4fee-9749-7046710fb409)"/></g><path d="M1956.06,1605c-4.14-6.71-8.53-13.18-13-19.13l-35.24,20.48c4.47,5.95,8.86,12.42,13,19.13,4,7.26,7.31,14.16,10.3,21.14l35.24-20.48C1963.36,1619.2,1960,1612.3,1956.06,1605Z" fill="url(#b48bdae1-f99d-4cde-8e44-cbf0386be692)"/><path d="M1967.33,1769a153.57,153.57,0,0,1,2.07,20,116.1,116.1,0,0,1-2.09,17.92c-9-2.65-18.11-5.68-27.39-9.16s-18.75-7.35-28.45-11.64c-2.81,11.22-7.24,20.66-13.46,28.23,7.06,14.29,13.63,28.31,19.71,42.22,4.54,10.22,8.75,20.34,12.81,30.46a50.27,50.27,0,0,1-10.15,9.24,57,57,0,0,1-13.23,4.27q-23.91-30.39-47.14-65.19c-9.63,1.19-19.91,0-30.92-3.31a431.85,431.85,0,0,1-10.28,59.41,109.22,109.22,0,0,1-16.46-7.07,186.15,186.15,0,0,1-16.7-12.08c-4.42-23.36-7.78-47.06-9.91-71.07a215,215,0,0,1-30.84-32.34,223.31,223.31,0,0,1-47.35,10.54c-4.56-6-8.86-12.42-13-19.13-3.9-7.21-7.31-14.25-10.31-21.14,4.1-5.32,8.36-10.55,12.94-15.59a211.74,211.74,0,0,1,19.88-19.37,216.65,216.65,0,0,1-13.25-43.75c-8-5.64-15.8-11.47-23.53-17.43-11.07-8.55-21.83-17.29-32.33-26.35a157.07,157.07,0,0,1-2.06-20,118.57,118.57,0,0,1,2.09-17.91c10.52,3.07,21.28,6.75,32.37,11,7.5,2.83,15.15,6,23,9.52,2.56-11.84,6.91-21.79,13.13-29.73-11.83-24.18-22.46-47.85-31.69-71a33.39,33.39,0,0,1,23.45-13.36q23.05,29.19,45.44,62.61c10.2-1.52,21.21-.5,32.95,3.18a427,427,0,0,1,10-56.8,119.47,119.47,0,0,1,16.38,7.12,181.85,181.85,0,0,1,16.86,12.17c4.26,22.33,7.46,45.09,9.6,68.07a216.25,216.25,0,0,1,32.86,34.83,225.17,225.17,0,0,1,45.56-10c4.47,5.95,8.86,12.42,13,19.13,4,7.26,7.31,14.16,10.3,21.14a223.44,223.44,0,0,1-32,34.22,211.24,211.24,0,0,1,13,44.92c9.44,6.67,18.72,13.62,27.84,20.76Q1954,1757.48,1967.33,1769Zm-124.09-5.45q17-9.7,17.08-37.21c0-18.35-5.53-37.22-16.81-56.77s-24.88-33.87-40.84-43.08-29.59-10.61-41-4.14-17,18.86-17.08,37.2,5.53,37.23,16.82,56.78,24.87,33.86,40.83,43.08,29.59,10.61,41,4.14" fill="#39c2ec"/></g></g></svg>