<svg id="a723a94a-59d2-4613-92c7-82d0c79c6423" data-name="ARTWORK" xmlns="http://www.w3.org/2000/svg" xmlns:xlink="http://www.w3.org/1999/xlink" viewBox="0 0 2500 2500"><defs><linearGradient id="b0277e16-d450-48d2-a808-25ee3e091d67" x1="132.89" y1="-0.36" x2="139.52" y2="388.19" gradientUnits="userSpaceOnUse"><stop offset="0" stop-color="#f6f8f7"/><stop offset="0.5" stop-color="#fafcfb"/><stop offset="1" stop-color="#f6f8f7"/></linearGradient><linearGradient id="be3b8fbd-95ff-45fc-a907-b516504b3a99" x1="34.04" y1="63.34" x2="40.67" y2="341.63" xlink:href="#b0277e16-d450-48d2-a808-25ee3e091d67"/><linearGradient id="af83d961-c567-4d00-8d1e-dfbe4bb64f36" x1="1312.76" y1="466.47" x2="1312.76" y2="1706.55" gradientTransform="translate(-364.6 1285.22) rotate(-45)" gradientUnits="userSpaceOnUse"><stop offset="0" stop-color="#fcc827" stop-opacity="0.7"/><stop offset="1" stop-color="#fcc827"/></linearGradient><linearGradient id="fff971df-ef35-45b2-9a98-bdf75c7600e2" x1="1312.76" y1="817.59" x2="1312.76" y2="1699.03" gradientTransform="translate(-364.6 1285.22) rotate(-45)" gradientUnits="userSpaceOnUse"><stop offset="0" stop-color="#f9a51f" stop-opacity="0"/><stop offset="1" stop-color="#f9a51f" stop-opacity="0.75"/></linearGradient><linearGradient id="bcc9ccea-8b7b-45b9-8d19-0a53d2691fb2" x1="919.8" y1="1077.46" x2="822.63" y2="1073.93" xlink:href="#fff971df-ef35-45b2-9a98-bdf75c7600e2"/><radialGradient id="ba4c6647-bccf-4d2a-9ac9-95c2466111ae" cx="1665.02" cy="955.07" r="124.26" gradientTransform="translate(-91.62 482.93) scale(1 0.42)" gradientUnits="userSpaceOnUse"><stop offset="0" stop-color="#fff48c" stop-opacity="0.4"/><stop offset="1" stop-color="#ffeb2f" stop-opacity="0"/></radialGradient><radialGradient id="b57b9d59-f1e9-4cbc-9b79-361cae9c973c" cx="1302.27" cy="1329.62" r="124.26" gradientTransform="translate(-392.47 -189.55) scale(1.43 1.1)" gradientUnits="userSpaceOnUse"><stop offset="0" stop-color="#fff48c" stop-opacity="0.3"/><stop offset="1" stop-color="#ffeb2f" stop-opacity="0"/></radialGradient><radialGradient id="b35fa7bb-ae7e-4786-a600-18b91e12c760" cx="1411.68" cy="621.99" r="63.48" gradientTransform="translate(245.77 1966.54) rotate(-75) scale(1 0.77)" xlink:href="#ba4c6647-bccf-4d2a-9ac9-95c2466111ae"/><radialGradient id="a744326e-e0e4-43f9-ba87-f5e97a0f6056" cx="1232.65" cy="543.37" r="63.48" gradientTransform="translate(168.35 1880.27) rotate(-75) scale(1 0.77)" xlink:href="#ba4c6647-bccf-4d2a-9ac9-95c2466111ae"/><radialGradient id="e22506c3-cc26-42bd-8812-353e15b740ed" cx="1072.9" cy="649.37" r="63.48" gradientTransform="translate(92.91 1892.76) rotate(-75) scale(1 0.77)" xlink:href="#ba4c6647-bccf-4d2a-9ac9-95c2466111ae"/><radialGradient id="f3c63fcb-ca27-418e-b95a-925dcc9b8af2" cx="907.38" cy="777.51" r="63.48" gradientTransform="translate(14.08 1915.01) rotate(-75) scale(1 0.77)" xlink:href="#ba4c6647-bccf-4d2a-9ac9-95c2466111ae"/><linearGradient id="bebdc546-bda8-475b-9d54-5d209810c96a" x1="1060.8" y1="357.74" x2="1184.48" y2="795.93" gradientTransform="translate(-364.6 1285.22) rotate(-45)" gradientUnits="userSpaceOnUse"><stop offset="0" stop-color="#f9a51f" stop-opacity="0"/><stop offset="1" stop-color="#f9a51f"/></linearGradient><linearGradient id="e464063e-11e0-443f-820f-c0009423996a" x1="1320.55" y1="1063.01" x2="1305.97" y2="896.04" xlink:href="#bebdc546-bda8-475b-9d54-5d209810c96a"/><linearGradient id="fd263947-21e9-4314-ae33-7f6452fb4e31" x1="1164.13" y1="1076.67" x2="1149.56" y2="909.7" xlink:href="#bebdc546-bda8-475b-9d54-5d209810c96a"/><linearGradient id="a98b675b-b63a-4e11-8b34-64d7c5b0c674" x1="1004.41" y1="1090.61" x2="989.83" y2="923.64" xlink:href="#bebdc546-bda8-475b-9d54-5d209810c96a"/><linearGradient id="a8cee859-51a1-433e-afa6-e3c20942947c" x1="1147.38" y1="1220.69" x2="1451.24" y2="1220.69" gradientTransform="translate(-364.6 1285.22) rotate(-45)" gradientUnits="userSpaceOnUse"><stop offset="0" stop-color="#f9a51f" stop-opacity="0.5"/><stop offset="1" stop-color="#f9a51f"/></linearGradient><symbol id="ab4fd386-17ca-407f-a110-13c4b71a62d8" data-name="motion-hand 2" viewBox="0 0 180.63 388.66"><path d="M180.38,0c-1.2,4.5-2.6,8.77-4,13s-2.51,8.51-3.81,12.65-2.37,8.35-3.56,12.44-2.18,8.24-3.26,12.3-2,8.15-3,12.18c-.44,2-.86,4.08-1.32,6.08s-1,4-1.32,6l-1.19,6c-.36,2-.89,4-1.18,6s-.66,4-1,6-.77,4-1,6c-2.57,15.92-4.32,31.73-5.36,47.5s-1.37,31.5-1,47.23a671.51,671.51,0,0,0,9.72,94.87c2.69,16,6,32.21,9.64,48.79l1.42,6.22c.48,2.08.86,4.23,1.42,6.29,1,4.17,2,8.43,3,12.72s2.07,8.57,3.06,13,2.14,8.75,3,13.4c-3.86-2.61-7.44-5.47-11.08-8.35s-6.86-6.1-10.21-9.27-6.36-6.59-9.5-10-5.91-7-8.82-10.6a239.33,239.33,0,0,1-28.58-47.36,266.34,266.34,0,0,1-23.7-108.78,273.8,273.8,0,0,1,5.33-56,254.72,254.72,0,0,1,17.11-53.48c.91-2.14,2-4.23,3-6.33s2.08-4.18,3.13-6.25c2.12-4.15,4.56-8.15,6.85-12.18s5-7.84,7.59-11.67c1.27-1.93,2.73-3.76,4.1-5.62s2.78-3.69,4.19-5.51,3-3.56,4.46-5.31,3-3.48,4.54-5.2c3.16-3.36,6.44-6.6,9.69-9.8,3.41-3.09,6.93-6.06,10.42-9C172.85,5.2,176.52,2.49,180.38,0Z" fill="url(#b0277e16-d450-48d2-a808-25ee3e091d67)"/><path d="M71.45,62.91C70.25,66,69,69,67.69,72s-2.43,6-3.65,8.87-2.25,5.91-3.44,8.77-2.1,5.86-3.2,8.72a297.31,297.31,0,0,0-10,34.5,240.2,240.2,0,0,0-5.27,68.09c.21,2.82.36,5.63.69,8.45l.42,4.22c.15,1.4.38,2.81.55,4.21l.55,4.22.69,4.2.66,4.22c.28,1.39.52,2.8.77,4.21,2.05,11.23,4.47,22.52,7.21,34s5.73,23.13,8.84,35.17c1.53,6,3.14,12.14,4.66,18.43.78,3.14,1.52,6.33,2.24,9.57s1.49,6.5,2,9.95C68.49,340,65.71,338,63,336s-5.24-4.22-7.82-6.4a147.74,147.74,0,0,1-14.09-14.33,166.41,166.41,0,0,1-22.38-33.51,171,171,0,0,1-14-38.4c-.38-1.68-.79-3.35-1.14-5l-.9-5.09c-.29-1.7-.58-3.4-.82-5.11L1.24,223c-.19-1.72-.44-3.43-.56-5.16l-.34-5.19c-.09-1.73-.28-3.45-.27-5.19L0,202.21c-.17-27.76,6.11-55.76,18.7-80.05A161.38,161.38,0,0,1,41.47,88.75c1.13-1.24,2.25-2.47,3.39-3.68s2.23-2.45,3.46-3.58,2.4-2.3,3.62-3.43,2.38-2.28,3.66-3.33,2.56-2.11,3.83-3.16S62,69.47,63.3,68.5C66,66.56,68.68,64.68,71.45,62.91Z" fill="url(#be3b8fbd-95ff-45fc-a907-b516504b3a99)"/></symbol></defs><g id="a42431ef-234d-436e-a21b-6d4a41255c53" data-name="Hand"><path id="a39b3c44-b268-419a-9ac9-0b1f5574ee69" data-name="Main-color-white" d="M1697.21,810.48c1.59,4.68,4.3,14.91-4.68,51.54-5.51,22.43-11,36.78-14.06,45.92-15,44.45-13,84.31-12.18,100.26,1.65,33.28,9.23,56.72,19.67,89,33.48,92.2,96.54,200.76,97.46,305.47.89,72.61-24.62,127.09-35.61,149.92-15.28,31.74-39.86,60.83-89,119-15.66,18.55-51.15,61.05-101.2,91.83-94,57.82-248.3-7.84-313-50.6a299.44,299.44,0,0,1-42.09-33.92C1082.1,1565.93,786,1265.41,786,1265.41a77.26,77.26,0,0,1-4.1-109.18l1.77-1.91a77.26,77.26,0,0,1,109.18-4.09s161.91,149.72,209.93,194.39l-204.1-202.38L793.11,1036.72a77.25,77.25,0,0,1,0-109.26l1.84-1.85a77.27,77.27,0,0,1,109.26,0L1182,1203.47,838.94,847.59a77.26,77.26,0,0,1,3-109.21l1.89-1.79a77.27,77.27,0,0,1,109.22,3l322.82,343.66.64-.57-263.2-296.65a77.25,77.25,0,0,1,7.17-109l2-1.72a77.26,77.26,0,0,1,109,7.17l359.65,382.38c-.6-5.12-1.39-12.75-2-22-1.22-20.14-11-153.95,71.21-239.88,16.77-17.51,32.32-33.29,57.16-36.54,22.25-2.92,40.25,5.74,46.86,9.37C1671.57,779.75,1690.21,790,1697.21,810.48Z" fill="#fff"/><path id="f321c91c-a37c-4f1d-bb28-be076ac66813" data-name="Main-color" d="M1697.21,810.48c1.59,4.68,4.3,14.91-4.68,51.54-5.51,22.43-11,36.78-14.06,45.92-15,44.45-13,84.31-12.18,100.26,1.65,33.28,9.23,56.72,19.67,89,33.48,92.2,96.54,200.76,97.46,305.47.89,72.61-24.62,127.09-35.61,149.92-15.28,31.74-39.86,60.83-89,119-15.66,18.55-51.15,61.05-101.2,91.83-94,57.82-248.3-7.84-313-50.6a299.44,299.44,0,0,1-42.09-33.92C1082.1,1565.93,786,1265.41,786,1265.41a77.26,77.26,0,0,1-4.1-109.18l1.77-1.91a77.26,77.26,0,0,1,109.18-4.09s161.91,149.72,209.93,194.39l-204.1-202.38L793.11,1036.72a77.25,77.25,0,0,1,0-109.26l1.84-1.85a77.27,77.27,0,0,1,109.26,0L1182,1203.47,838.94,847.59a77.26,77.26,0,0,1,3-109.21l1.89-1.79a77.27,77.27,0,0,1,109.22,3l322.82,343.66.64-.57-263.2-296.65a77.25,77.25,0,0,1,7.17-109l2-1.72a77.26,77.26,0,0,1,109,7.17l359.65,382.38c-.6-5.12-1.39-12.75-2-22-1.22-20.14-11-153.95,71.21-239.88,16.77-17.51,32.32-33.29,57.16-36.54,22.25-2.92,40.25,5.74,46.86,9.37C1671.57,779.75,1690.21,790,1697.21,810.48Z" fill="url(#af83d961-c567-4d00-8d1e-dfbe4bb64f36)"/><path id="aed580f0-3bec-4478-9243-9a5e95321323" data-name="Main-gradient" d="M1697.21,810.48c1.59,4.68,4.3,14.91-4.68,51.54-5.51,22.43-11,36.78-14.06,45.92-15,44.45-13,84.31-12.18,100.26,1.65,33.28,9.23,56.72,19.67,89,33.48,92.2,96.54,200.76,97.46,305.47.89,72.61-24.62,127.09-35.61,149.92-15.28,31.74-39.86,60.83-89,119-15.66,18.55-51.15,61.05-101.2,91.83-94,57.82-248.3-7.84-313-50.6a299.44,299.44,0,0,1-42.09-33.92C1082.1,1565.93,786,1265.41,786,1265.41a77.26,77.26,0,0,1-4.1-109.18l1.77-1.91a77.26,77.26,0,0,1,109.18-4.09s161.91,149.72,209.93,194.39l-204.1-202.38L793.11,1036.72a77.25,77.25,0,0,1,0-109.26l1.84-1.85a77.27,77.27,0,0,1,109.26,0L1182,1203.47,838.94,847.59a77.26,77.26,0,0,1,3-109.21l1.89-1.79a77.27,77.27,0,0,1,109.22,3l322.82,343.66.64-.57-263.2-296.65a77.25,77.25,0,0,1,7.17-109l2-1.72a77.26,77.26,0,0,1,109,7.17l359.65,382.38c-.6-5.12-1.39-12.75-2-22-1.22-20.14-11-153.95,71.21-239.88,16.77-17.51,32.32-33.29,57.16-36.54,22.25-2.92,40.25,5.74,46.86,9.37C1671.57,779.75,1690.21,790,1697.21,810.48Z" fill="url(#fff971df-ef35-45b2-9a98-bdf75c7600e2)"/><path id="ab4fb692-f3f0-4c76-acec-36dde4f456fe" data-name="Main-gradient" d="M1697.21,810.48c1.59,4.68,4.3,14.91-4.68,51.54-5.51,22.43-11,36.78-14.06,45.92-15,44.45-13,84.31-12.18,100.26,1.65,33.28,9.23,56.72,19.67,89,33.48,92.2,96.54,200.76,97.46,305.47.89,72.61-24.62,127.09-35.61,149.92-15.28,31.74-39.86,60.83-89,119-15.66,18.55-51.15,61.05-101.2,91.83-94,57.82-248.3-7.84-313-50.6a299.44,299.44,0,0,1-42.09-33.92C1082.1,1565.93,786,1265.41,786,1265.41a77.26,77.26,0,0,1-4.1-109.18l1.77-1.91a77.26,77.26,0,0,1,109.18-4.09s161.91,149.72,209.93,194.39l-204.1-202.38L793.11,1036.72a77.25,77.25,0,0,1,0-109.26l1.84-1.85a77.27,77.27,0,0,1,109.26,0L1182,1203.47,838.94,847.59a77.26,77.26,0,0,1,3-109.21l1.89-1.79a77.27,77.27,0,0,1,109.22,3l322.82,343.66.64-.57-263.2-296.65a77.25,77.25,0,0,1,7.17-109l2-1.72a77.26,77.26,0,0,1,109,7.17l359.65,382.38c-.6-5.12-1.39-12.75-2-22-1.22-20.14-11-153.95,71.21-239.88,16.77-17.51,32.32-33.29,57.16-36.54,22.25-2.92,40.25,5.74,46.86,9.37C1671.57,779.75,1690.21,790,1697.21,810.48Z" fill="url(#bcc9ccea-8b7b-45b9-8d19-0a53d2691fb2)"/><g id="ab2c5404-55cb-4d2e-83c2-7e2851dbe33e" data-name="volume"><ellipse cx="1573.41" cy="879.41" rx="124.26" ry="51.58" transform="translate(30.64 1811.52) rotate(-60.34)" fill="url(#ba4c6647-bccf-4d2a-9ac9-95c2466111ae)"/><ellipse cx="1465.16" cy="1269.83" rx="177.25" ry="136.39" transform="translate(-140.62 2356.41) rotate(-75)" fill="url(#b57b9d59-f1e9-4cbc-9b79-361cae9c973c)"/><circle cx="1073.42" cy="726.82" r="63.48" fill="url(#b35fa7bb-ae7e-4786-a600-18b91e12c760)"/><circle cx="891.24" cy="797.83" r="63.48" fill="url(#a744326e-e0e4-43f9-ba87-f5e97a0f6056)"/><circle cx="853.23" cy="985.75" r="63.48" fill="url(#e22506c3-cc26-42bd-8812-353e15b740ed)"/><circle cx="826.79" cy="1193.39" r="63.48" fill="url(#f3c63fcb-ca27-418e-b95a-925dcc9b8af2)"/></g><g id="a9bb419d-d25c-459a-8567-b17406245723" data-name="orange-interior2"><path d="M794.94,925.61l-1.84,1.85a77.25,77.25,0,0,0,0,109.26l105.52,105.52,72.53,71.92,22.45-31.26-68.18-67.6L820,1009.85a39.31,39.31,0,0,1,0-55.52l1.84-1.84a39.3,39.3,0,0,1,55.52,0l164,164,22.47-31.28L904.2,925.62A77.27,77.27,0,0,0,794.94,925.61Zm48.92-189L842,738.38c-.53.5-1,1-1.56,1.52a77.26,77.26,0,0,0-1.47,107.69l226.65,235.09,22.54-31.38L866.44,821.37a39.25,39.25,0,0,1,.84-54.6c.27-.27.53-.53.84-.81L870,764.2a39.28,39.28,0,0,1,55.45,1.5l208.45,221.9,22.59-31.46L953.08,739.62A77.27,77.27,0,0,0,843.86,736.59Zm939.55,666.1c-.92-104.71-64-213.27-97.45-305.47-10.44-32.31-18-55.74-19.67-89-.79-16-2.77-55.8,12.18-100.26,3.07-9.13,8.55-23.48,14-45.91,9-36.63,6.28-46.87,4.69-51.54-7-20.48-25.64-30.73-32.8-34.66-6.6-3.64-24.6-12.29-46.85-9.38-20.77,2.72-35,14.2-49,28.12-2.73,2.73-5.45,5.55-8.19,8.43-59.69,62.35-70.9,149.93-72.08,201,0,.07,0,.14,0,.21h0c-.43,19.18.54,33.18.88,38.68l1.2,21.2-5.78-6.15L1131.49,682.49a77.26,77.26,0,0,0-109-7.17l-2,1.72q-1.95,1.71-3.76,3.52c-1.11,1.11-2.17,2.25-3.2,3.42a77.27,77.27,0,0,0-.21,102.08l146.6,165.23,22.73-31.64L1041.85,760.94a39.37,39.37,0,0,1-2.52-48.41,38.9,38.9,0,0,1,4.29-5.1c.63-.63,1.26-1.23,2-1.83l2-1.71a39.29,39.29,0,0,1,55.39,3.65c.29.33.59.66.9,1l359.65,382.38a37.53,37.53,0,0,0,7.86,6.38c1.45.89,12.7-14.92,14.26-14.24,12.7-18.64,12-16.1,9.76-22.1,3.13-39.77,17.76-235.24,127.16-256.82,10.59-1.39,20,3,23.61,5s12,6.61,14.76,12.68c0,2.51-.32,11.09-5.26,31.17a376.22,376.22,0,0,1-11.19,37.12c-.72,2.1-1.39,4-2,5.72-17.25,51.28-15,97-14.12,114.27,1.9,38.29,10.53,65,21.45,98.78l0,.05c.13.43.28.86.43,1.28,9.46,26,20.79,52.43,32.79,80.35,30.37,70.72,61.78,143.85,62.39,212.48a.66.66,0,0,0,0,.14c.81,65.16-22.91,114.42-31.84,133-13.19,27.39-36.8,55.32-83.82,111l-.76.9c-7.15,8.48-18,21.29-32,35.31-19.45,19.46-39.42,35.53-59.31,47.78-40.53,24.91-97.64,18-138.41,7.9-54.64-13.6-104.89-38.79-133.7-57.83a258.55,258.55,0,0,1-35.89-28.85l-1.16-1.09C1110,1540,816,1241.73,813,1238.73c-.41-.4-.82-.8-1.24-1.19a39.29,39.29,0,0,1-2.71-54.74c.21-.25.42-.51.66-.76l1.74-1.88c.34-.36.7-.73,1-1.08a39.25,39.25,0,0,1,54.43-1l0,.05c.75.69,35.93,33.22,78.13,72.27l22.34-31.11-74.67-69.07a77.26,77.26,0,0,0-107.15,2c-.69.69-1.37,1.39-2,2.11l-1.76,1.91-.14.15a77.24,77.24,0,0,0,4.24,109s296.15,300.53,416.58,413.52a299.72,299.72,0,0,0,42.1,33.92c64.66,42.76,218.94,108.42,313,50.6,26.4-16.23,48.75-35.74,66.28-53.26,15.69-15.7,27.51-29.81,34.92-38.57,49.16-58.17,73.74-87.26,89-119C1758.8,1529.78,1784.3,1475.3,1783.41,1402.69Z" fill="url(#bebdc546-bda8-475b-9d54-5d209810c96a)"/><path d="M821.81,952.49,820,954.33a39.31,39.31,0,0,0,0,55.52L925.43,1115.3l68.18,67.6,47.71-66.42-164-164A39.3,39.3,0,0,0,821.81,952.49Z" fill="none"/><path d="M870,764.19,868.11,766l-.83.81a39.24,39.24,0,0,0-.84,54.59l221.68,229.94,45.76-63.7L925.43,765.7A39.29,39.29,0,0,0,870,764.19Z" fill="none"/><path d="M1276.54,1082.71l-.64.57L1156.47,956.14l-22.59,31.46,114.32,121.7a38,38,0,0,0,53,2.36l.65-.57c.56-.5,1.1-1,1.63-1.54a38,38,0,0,0,1.53-52.06l-122.3-137.84L1160,951.3Z" fill="url(#e464063e-11e0-443f-820f-c0009423996a)"/><path d="M1155.17,1230.34a38,38,0,0,0,53.5.24l.25-.25a38,38,0,0,0,.48-53.24L1088.12,1051.3l-22.53,31.38L1182,1203.47,1063.78,1085.2l-22.46,31.28Z" fill="url(#fd263947-21e9-4314-ae33-7f6452fb4e31)"/><path d="M1129.59,1371.5l.55-.56a38,38,0,0,0-.65-53.31L993.61,1182.9l-22.45,31.26,131.57,130.46c-26.15-24.33-86.09-79.83-135.26-125.32l-22.34,31.1c48.54,44.92,106.35,98.44,131.72,122A38,38,0,0,0,1129.59,1371.5Z" fill="url(#a98b675b-b63a-4e11-8b34-64d7c5b0c674)"/></g><path d="M1442.57,1040q-6.84,10.38-13.26,21.54c-95.94,167.23-48,356.87-37.19,357.19,10,.3-13.37-159.14,82.16-317.84q5.54-9.18,11.3-17.88Z" fill="url(#a8cee859-51a1-433e-afa6-e3c20942947c)"/></g><g id="bfce61e5-13d0-44c7-b723-447e134c7990" data-name="motion"><use width="180.63" height="388.66" transform="translate(611.53 1454.46) rotate(-45)" xlink:href="#ab4fd386-17ca-407f-a110-13c4b71a62d8"/><use width="180.63" height="388.66" transform="matrix(-0.71, 0.71, 0.71, 0.71, 1273.69, 482.53)" xlink:href="#ab4fd386-17ca-407f-a110-13c4b71a62d8"/></g></svg>