<?xml version="1.0" encoding="UTF-8"?>
<svg width="24px" height="24px" viewBox="0 0 24 24" version="1.1" xmlns="http://www.w3.org/2000/svg" xmlns:xlink="http://www.w3.org/1999/xlink">
    <title>Icons/Full Set/Connection/Disconnected</title>
    <defs>
        <filter id="filter-1">
            <feColorMatrix in="SourceGraphic" type="matrix" values="0 0 0 0 0.152941 0 0 0 0 0.211765 0 0 0 0 0.215686 0 0 0 1.000000 0"></feColorMatrix>
        </filter>
        <polygon id="path-2" points="0 0.4091 10.6437 0.4091 10.6437 11 0 11"></polygon>
        <polygon id="path-4" points="0.2185 0.6994 10.302 0.6994 10.302 10.7344 0.2185 10.7344"></polygon>
    </defs>
    <g id="Icons/Full-Set/Connection/Disconnected" stroke="none" stroke-width="1" fill="none" fill-rule="evenodd">
        <g filter="url(#filter-1)" id="Group-7">
            <g transform="translate(3.000000, 2.000000)">
                <g id="Group-3" transform="translate(0.000000, 7.301100)">
                    <mask id="mask-3" fill="white">
                        <use xlink:href="#path-2"></use>
                    </mask>
                    <g id="Clip-2"></g>
                    <path d="M7.2187,6.0341 C6.6187,6.6351 5.6187,6.6351 5.0187,6.0341 C4.4187,5.4341 4.4187,4.4341 5.0187,3.8341 L5.2187,3.6351 L7.4187,5.8341 L7.2187,6.0341 Z M9.3187,2.6341 L8.1187,3.8341 L7.2187,2.9341 L8.4187,1.7341 C8.7187,1.4341 8.7187,0.9341 8.4187,0.6341 C8.1187,0.3341 7.6187,0.3341 7.3187,0.6341 L6.1187,1.8341 L5.1187,0.8341 L3.5187,2.4341 C2.4187,3.5341 2.2187,5.3341 2.9187,6.6351 L0.3057,9.2471 C0.1167,9.4321 -0.0003,9.6911 -0.0003,9.9771 C-0.0003,10.5421 0.4577,11.0001 1.0227,11.0001 C1.2827,11.0001 1.5257,10.9071 1.7067,10.7471 L4.4187,8.0341 C4.9187,8.3341 5.5187,8.5341 6.1187,8.5341 C7.1187,8.5341 8.0187,8.1351 8.6187,7.5341 L10.2187,5.9341 L9.2187,4.9341 L10.4187,3.7341 C10.7187,3.4341 10.7187,2.9341 10.4187,2.6341 C10.1187,2.3341 9.6187,2.3341 9.3187,2.6341 L9.3187,2.6341 Z" id="Fill-1" fill="#273637" mask="url(#mask-3)"></path>
                </g>
                <g id="Group-6" transform="translate(7.000000, 0.301100)">
                    <mask id="mask-5" fill="white">
                        <use xlink:href="#path-4"></use>
                    </mask>
                    <g id="Clip-5"></g>
                    <path d="M5.4185,7.8344 L5.2195,8.0344 L3.0195,5.8344 L3.2195,5.6344 C3.8185,5.0344 4.8185,5.0344 5.4185,5.6344 C6.1185,6.2344 6.1185,7.2344 5.4185,7.8344 M10.3025,1.6484 C10.3025,1.1244 9.8765,0.6994 9.3525,0.6994 C9.0785,0.6994 8.8295,0.8124 8.6565,0.9974 L6.0195,3.5344 C4.6185,2.8344 2.9185,2.9344 1.8185,4.1344 L0.2185,5.7344 L5.2195,10.7344 L6.8185,9.1344 C7.9185,8.0344 8.1185,6.2344 7.4185,4.9344 L10.0565,2.2974 C10.2125,2.1274 10.3025,1.8964 10.3025,1.6484" id="Fill-4" fill="#273637" mask="url(#mask-5)"></path>
                </g>
            </g>
        </g>
    </g>
</svg>
