<?xml version="1.0" encoding="UTF-8"?>
<svg width="24px" height="24px" viewBox="0 0 24 24" version="1.1" xmlns="http://www.w3.org/2000/svg" xmlns:xlink="http://www.w3.org/1999/xlink">
    <title>Icons/Full Set/General/Kubernetes/Kubernets Namespace</title>
    <g id="Icons/Full-Set/General/Kubernetes/Kubernets-Namespace" stroke="none" stroke-width="1" fill="none" fill-rule="evenodd">
        <path d="M17.5,3 C18.878,3 20,4.122 20,5.5 L20,18.5 C20,19.878 18.878,21 17.5,21 L6.5,21 C5.122,21 4,19.878 4,18.5 L4,5.5 C4,4.122 5.122,3 6.5,3 L17.5,3 Z M17.5,5 L6.5,5 C6.224,5 6,5.224 6,5.5 L6,18.5 C6,18.776 6.224,19 6.5,19 L17.5,19 C17.776,19 18,18.776 18,18.5 L18,5.5 C18,5.224 17.776,5 17.5,5 Z M16,13.05 L16,17.05 L8,17.05 L8,13.05 L16,13.05 Z M16,7.05 L16,11.05 L8,11.05 L8,7.05 L16,7.05 Z" id="Combined-Shape" fill="#273637"></path>
    </g>
</svg>
