<?xml version="1.0" encoding="UTF-8"?>
<svg width="24px" height="24px" viewBox="0 0 24 24" version="1.1" xmlns="http://www.w3.org/2000/svg" xmlns:xlink="http://www.w3.org/1999/xlink">
    <title>Icons/Full Set/Snapshot/Download Snapshot</title>
    <g id="Icons/Full-Set/Snapshot/Download-Snapshot" stroke="none" stroke-width="1" fill="none" fill-rule="evenodd">
        <path d="M15.8214559,19.1 C16.3737406,19.1 16.8214559,19.5477153 16.8214559,20.1 C16.8214559,20.6522847 16.3737406,21.1 15.8214559,21.1 L8.1,21.1 C7.54771525,21.1 7.1,20.6522847 7.1,20.1 C7.1,19.5477153 7.54771525,19.1 8.1,19.1 L15.8214559,19.1 Z M12.0114559,8 C12.6114559,8 13.0114559,8.4 13.0114559,9 L13.0114559,9 L12.9999997,14.3022626 L15.1114559,12.8022626 C15.5114559,12.4022626 16.1114559,12.4022626 16.5114559,12.8022626 C16.9114559,13.2022626 16.9114559,13.8022626 16.5114559,14.2022626 L16.5114559,14.2022626 L12.8999997,17.2022626 C12.5999997,17.5022626 12.2999997,17.6022626 11.9999997,17.6022626 C11.5999997,17.6022626 11.2999997,17.4022626 11.0999997,17.2022626 L11.0999997,17.2022626 L7.44532032,13.8022626 C7.04532032,13.4022626 7.04532032,12.7022626 7.54532032,12.4022626 C7.74532032,12.2022626 8.04532032,12.1022626 8.24532032,12.1022626 C8.44532032,12.1022626 8.74532032,12.2022626 8.94532032,12.4022626 L8.94532032,12.4022626 L10.9999997,14.2022626 L11.0114559,9 C11.0114559,8.4 11.4114559,8 12.0114559,8 Z" id="Combined-Shape" fill="#273637"></path>
        <path d="M14.9,3 C15.4538462,3 15.9224852,3.2556213 16.1486117,3.76686391 L16.2,3.9 L16.7,5.1 L20.5,5.1 C21.3470588,5.1 21.9283737,5.7200692 21.9938327,6.45998372 L22,6.6 L22,19.6 C22,20.3529412 21.3799308,21.017301 20.6400163,21.0928557 L20.5,21.1 L18.25,21.1 L18.25,19.1 L20,19.1 L20,7.1 L15.5,7.1 L14.6,5 L9.5,5 L8.5,7.1 L4,7.1 L4,19.1 L5.75,19.1 L5.75,21.1 L3.5,21.1 C2.74705882,21.1 2.08269896,20.4799308 2.00714431,19.7400163 L2,19.6 L2,6.6 C2,5.84705882 2.6200692,5.18269896 3.35998372,5.10714431 L3.5,5.1 L7.2,5.1 L7.8,3.9 C7.98461538,3.34615385 8.51005917,3.04792899 9.06172053,3.00532544 L9.2,3 L14.9,3 Z" id="Combined-Shape" fill="#273637"></path>
    </g>
</svg>
