<?xml version="1.0" encoding="UTF-8"?>
<svg width="24px" height="24px" viewBox="0 0 24 24" version="1.1" xmlns="http://www.w3.org/2000/svg" xmlns:xlink="http://www.w3.org/1999/xlink">
    <title>Icons/Full Set/Snapshot/On-demand</title>
    <g id="Icons/Full-Set/Snapshot/On-demand" stroke="none" stroke-width="1" fill="none" fill-rule="evenodd">
        <path d="M17.5,11 C20.6,11 23,13.5 23,16.5 C23,19.5 20.5,22 17.5,22 C14.5,22 12,19.5 12,16.5 C12,13.5 14.5,11 17.5,11 Z M14.9,3 C15.4538462,3 15.9224852,3.2556213 16.1486117,3.76686391 L16.2,3.9 L16.7,5.1 L20.5,5.1 C21.3470588,5.1 21.9283737,5.7200692 21.9938327,6.45998372 L22,6.6 L22.0008195,11.8103588 C21.4253055,11.2578757 20.7483079,10.8103075 20.000576,10.4984036 L20,7.1 L15.5,7.1 L14.6,5 L9.5,5 L8.5,7.1 L4,7.1 L4,19.1 L11.5405687,19.0993406 C11.8687231,19.8506339 12.3347842,20.5278998 12.9067574,21.0991436 L3.5,21.1 C2.74705882,21.1 2.08269896,20.4799308 2.00714431,19.7400163 L2,19.6 L2,6.6 C2,5.84705882 2.6200692,5.18269896 3.35998372,5.10714431 L3.5,5.1 L7.2,5.1 L7.8,3.9 C7.98461538,3.34615385 8.51005917,3.04792899 9.06172053,3.00532544 L9.2,3 L14.9,3 Z M20.6,14 C20.4,13.8 20.1,13.7 19.9,13.9 C19.7,14.1 19.6,14.4 19.8,14.6 C20.2,15.1 20.4,15.7 20.4,16.3 C20.4,17.9 19.1,19.2 17.5,19.2 C15.9,19.2 14.6,17.9 14.6,16.3 C14.6,15.7 14.8,15.1 15.2,14.6 C15.4,14.4 15.3,14.1 15.1,13.9 C14.9,13.7 14.6,13.8 14.4,14 C13.9,14.7 13.6,15.5 13.6,16.4 C13.6,18.6 15.4,20.3 17.5,20.3 C19.6,20.3 21.4,18.6 21.4,16.4 C21.4,15.5 21.1,14.7 20.6,14 Z M17.5,12.7 C17.2,12.7 17,12.9 17,13.2 L17,13.2 L17,16.9 C17,17.2 17.2,17.4 17.5,17.4 C17.8,17.4 18,17.2 18,16.9 L18,16.9 L18,13.2 C18,13 17.8,12.7 17.5,12.7 Z M12,9 C13.2539906,9 14.3780232,9.55232173 15.1128333,10.4532575 C14.4831665,10.7012802 13.9029116,11.0446926 13.3883471,11.465431 C13.0285867,11.1154773 12.5382353,10.9 12,10.9 C10.9,10.9 10,11.8 10,12.9 C10,13.730916 10.5135366,14.4477128 11.2388987,14.7486792 C11.0832966,15.3047731 11,15.8926591 11,16.5 C11,16.6256752 11.0035667,16.7505173 11.0106043,16.8744307 C9.28532516,16.4324881 8,14.859058 8,13 C8,10.8 9.8,9 12,9 Z" id="Combined-Shape" fill="#273637"></path>
    </g>
</svg>
