<?xml version="1.0" encoding="UTF-8"?>
<svg width="24px" height="24px" viewBox="0 0 24 24" version="1.1" xmlns="http://www.w3.org/2000/svg" xmlns:xlink="http://www.w3.org/1999/xlink">
    <title>Icons/Full Set/Database/Availability Group Database</title>
    <g id="Icons/Full-Set/Database/Availability-Group-Database" stroke="none" stroke-width="1" fill="none" fill-rule="evenodd">
        <path d="M11.9998,3 C17.0998,3 20.1898,4.01 20.3198,4.05 C20.7198,4.19 20.9998,4.57 20.9998,5 L20.9998,5 L20.9998,19 C20.9998,19.43 20.7198,19.81 20.3198,19.95 C20.1898,19.99 17.0998,21 11.9998,21 C6.8998,21 3.8098,19.99 3.6798,19.95 C3.2798,19.81 2.9998,19.43 2.9998,19 L2.9998,19 L2.9998,17.043 L4.9998,17.043 L4.9998,18.23 C5.1968,18.284 5.4258,18.337 5.6698,18.391 C5.7488,18.407 5.8308,18.424 5.9158,18.441 C6.0648,18.471 6.2118,18.5 6.3398,18.521 L6.3398,18.521 L6.4238,18.535 C6.7078,18.586 7.0258,18.636 7.3608,18.683 L7.3608,18.683 L7.5468,18.711 C7.9048,18.759 8.2928,18.804 8.7028,18.843 C8.8088,18.854 8.9238,18.862 9.0328,18.871 C9.3598,18.899 9.7028,18.923 10.0588,18.943 C10.1988,18.95 10.3388,18.958 10.4838,18.964 C10.9678,18.985 11.4678,19 11.9998,19 C12.4258,19 12.8378,18.993 13.2328,18.979 C14.0248,18.951 14.7538,18.899 15.4148,18.833 C17.0678,18.668 18.2938,18.415 18.9998,18.24 L18.9998,18.24 L18.9998,15.67 L15.7308,15.67 L15.7308,13.67 L18.9998,13.67 L18.9998,10.33 L15.7308,10.33 L15.7308,8.33 L18.9998,8.33 L18.9998,5.76 C18.5758,5.655 17.9648,5.522 17.1878,5.396 C16.1508,5.229 14.8168,5.076 13.2328,5.021 C12.8378,5.008 12.4258,5 11.9998,5 C11.4678,5 10.9678,5.015 10.4838,5.036 C10.3388,5.042 10.1988,5.05 10.0588,5.057 C9.7028,5.077 9.3598,5.101 9.0328,5.129 C8.9238,5.139 8.8088,5.146 8.7028,5.157 C8.2928,5.196 7.9038,5.241 7.5458,5.29 C7.4818,5.298 7.4258,5.307 7.3638,5.316 C7.0278,5.364 6.7088,5.414 6.4238,5.465 L6.4238,5.465 L6.3398,5.479 C6.2118,5.5 6.0648,5.529 5.9158,5.559 C5.8308,5.576 5.7488,5.593 5.6698,5.609 C5.4258,5.663 5.1968,5.716 4.9998,5.77 L4.9998,5.77 L4.9998,7 L2.9998,7 L2.9998,5 C2.9998,4.57 3.2798,4.19 3.6798,4.05 C3.8098,4.01 6.8998,3 11.9998,3 Z M11.985,8.3434 C12.722,8.3434 13.444,8.4924 14.129,8.7874 L13.657,10.0764 C13.065,9.8524 12.527,9.7234 11.975,9.7234 C11.342,9.7234 10.827,9.9384 10.447,10.3624 C10.065,10.7884 9.872,11.3714 9.872,12.0954 C9.872,12.8524 10.028,13.4374 10.335,13.8334 C10.639,14.2244 11.089,14.4234 11.673,14.4234 C11.984,14.4234 12.304,14.3904 12.623,14.3264 L12.575,12.8964 L11.282,12.9564 L11.222,11.6364 L14.115,11.5764 L14.175,15.3384 C13.673,15.5454 13.233,15.6514 12.826,15.7124 C12.419,15.7724 11.998,15.8034 11.575,15.8034 C10.485,15.8034 9.639,15.4774 9.062,14.8334 C8.486,14.1914 8.194,13.2604 8.194,12.0664 C8.194,10.9024 8.533,9.9804 9.201,9.3274 C9.869,8.6744 10.805,8.3434 11.985,8.3434 Z M5.486,8.6859 L7.97,15.5209 L6.338,15.5209 L5.79,13.8669 L3.379,13.9089 L2.945,15.4789 L1.34,15.5209 L1.361,15.46 L1.3406,15.4607 L1.928,13.809 L3.674,8.7259 L5.486,8.6859 Z M4.613,9.9499 C4.47858756,10.4307978 4.2123303,11.3181346 3.80238423,12.6444812 L4.174,12.644 L5.486,12.585 L5.42653792,12.3934682 C5.41057021,12.3420732 5.39487472,12.291551 5.3794515,12.2419015 C4.97838617,11.140835 4.76192976,10.4514099 4.69229249,10.2241917 L4.68,10.1839 C4.655,10.0979 4.633,10.0199 4.613,9.9499 Z" id="Combined-Shape" fill="#273637"></path>
    </g>
</svg>