<?xml version="1.0" encoding="UTF-8"?>
<svg width="24px" height="24px" viewBox="0 0 24 24" version="1.1" xmlns="http://www.w3.org/2000/svg" xmlns:xlink="http://www.w3.org/1999/xlink">
    <title>Icons/Full Set/Database/SQL Server DBs</title>
    <defs>
        <filter id="filter-1">
            <feColorMatrix in="SourceGraphic" type="matrix" values="0 0 0 0 0.152941 0 0 0 0 0.211765 0 0 0 0 0.215686 0 0 0 1.000000 0"></feColorMatrix>
        </filter>
    </defs>
    <g id="Icons/Full-Set/Database/SQL-Server-DBs" stroke="none" stroke-width="1" fill="none" fill-rule="evenodd">
        <g filter="url(#filter-1)" id="Group">
            <g transform="translate(2.000000, 2.000400)">
                <path d="M15,5 L2,5 L2,2.699 C3.07,2.439 5.35,2 8.5,2 C11.65,2 13.93,2.439 15,2.699 L15,5 Z M16.32,0.989 C16.2,0.949 13.29,-1.7408297e-13 8.5,-1.7408297e-13 C3.71,-1.7408297e-13 0.8,0.949 0.68,0.989 C0.28,1.119 0,1.51 0,1.939 L0,15.06 C0,15.489 0.28,15.869 0.68,16.01 C0.75,16.029 1.82,16.38 3.69,16.659 L3.69,14.63 C2.97,14.52 2.4,14.399 2,14.3 L2,12 L3.69,12 L3.69,10.189 C3.69,10.13 3.69,10.06 3.71,10 L2,10 L2,7 L15,7 L15,8.5 L17,8.5 L17,1.939 C17,1.51 16.72,1.119 16.32,0.989 L16.32,0.989 Z" id="Fill-1" fill="#273637"></path>
                <path d="M12.6221,13.1269 C12.2331,13.1269 11.9411,13.2579 11.7441,13.5199 C11.5471,13.7799 11.4471,14.1689 11.4471,14.6829 C11.4471,15.1969 11.5451,15.5839 11.7401,15.8449 C11.9351,16.1049 12.2271,16.2349 12.6161,16.2349 C13.3941,16.2349 13.7841,15.7179 13.7841,14.6829 C13.7841,13.6459 13.3961,13.1269 12.6221,13.1269" id="Fill-3" fill="#273637"></path>
                <g id="Group-7" transform="translate(5.000000, 9.099600)" fill="#273637">
                    <path d="M13.6045,7.8916 L10.7615,7.8916 L10.7615,3.2876 L11.7375,3.2876 L11.7375,7.0846 L13.6045,7.0846 L13.6045,7.8916 Z M9.7825,8.9876 L8.5325,8.9876 L7.6885,7.9536 L7.6165,7.9536 C6.9105,7.9536 6.3695,7.7486 5.9915,7.3396 C5.6135,6.9306 5.4245,6.3426 5.4245,5.5776 C5.4245,4.8106 5.6145,4.2256 5.9935,3.8216 C6.3725,3.4166 6.9155,3.2156 7.6225,3.2156 C8.3305,3.2156 8.8715,3.4186 9.2455,3.8266 C9.6205,4.2336 9.8075,4.8196 9.8075,5.5826 C9.8075,6.1246 9.7105,6.5796 9.5195,6.9456 C9.3275,7.3116 9.0445,7.5796 8.6735,7.7486 L9.7825,8.9876 Z M4.3455,7.5956 C4.0465,7.8336 3.6305,7.9536 3.0975,7.9536 C2.6065,7.9536 2.1715,7.8616 1.7935,7.6766 L1.7935,6.7706 C2.1045,6.9096 2.3675,7.0066 2.5835,7.0636 C2.7975,7.1206 2.9955,7.1486 3.1725,7.1486 C3.3865,7.1486 3.5515,7.1076 3.6665,7.0256 C3.7805,6.9436 3.8375,6.8216 3.8375,6.6606 C3.8375,6.5696 3.8125,6.4896 3.7615,6.4186 C3.7115,6.3486 3.6375,6.2816 3.5405,6.2156 C3.4425,6.1516 3.2435,6.0466 2.9435,5.9046 C2.6625,5.7726 2.4515,5.6456 2.3105,5.5236 C2.1695,5.4016 2.0575,5.2596 1.9735,5.0986 C1.8895,4.9366 1.8475,4.7476 1.8475,4.5316 C1.8475,4.1236 1.9855,3.8046 2.2615,3.5716 C2.5375,3.3376 2.9185,3.2216 3.4065,3.2216 C3.6455,3.2216 3.8745,3.2496 4.0905,3.3066 C4.3085,3.3636 4.5355,3.4436 4.7725,3.5456 L4.4585,4.3046 C4.2115,4.2036 4.0085,4.1336 3.8485,4.0936 C3.6875,4.0536 3.5305,4.0346 3.3755,4.0346 C3.1895,4.0346 3.0475,4.0776 2.9495,4.1626 C2.8505,4.2486 2.8015,4.3616 2.8015,4.4996 C2.8015,4.5856 2.8215,4.6616 2.8615,4.7256 C2.9015,4.7886 2.9645,4.8516 3.0515,4.9116 C3.1385,4.9706 3.3455,5.0786 3.6705,5.2336 C4.1005,5.4396 4.3955,5.6456 4.5555,5.8526 C4.7145,6.0596 4.7945,6.3126 4.7945,6.6136 C4.7945,7.0286 4.6455,7.3556 4.3455,7.5956 L4.3455,7.5956 Z M13.4575,0.9006 L1.7325,0.9006 C0.8795,0.9006 0.1895,1.5906 0.1895,2.4426 L0.1895,9.4566 C0.1895,10.3096 0.8795,10.9996 1.7325,10.9996 L13.4575,10.9996 C14.3095,10.9996 15.0005,10.3096 15.0005,9.4566 L15.0005,2.4426 C15.0005,1.5906 14.3095,0.9006 13.4575,0.9006 L13.4575,0.9006 Z" id="Fill-5"></path>
                </g>
            </g>
        </g>
    </g>
</svg>
