<svg width="24" height="24" viewBox="0 0 24 24" fill="none" xmlns="http://www.w3.org/2000/svg">
<path fill-rule="evenodd" clip-rule="evenodd" d="M5.85004 14.6L7.85004 9.40001H8.85004L10.85 14.6H9.85004L9.31157 13.2H7.3885L6.85004 14.6H5.85004ZM8.92696 12.2L8.35004 10.7L7.77311 12.2H8.92696Z" fill="#273637"/>
<path d="M11.45 9.40001H12.45V14.6H11.45V9.40001Z" fill="#273637"/>
<path d="M16.15 12L18.05 14.6H16.85L15.55 12.8211L14.25 14.6H13.05L14.95 12L13.05 9.40001H14.25L15.55 11.179L16.85 9.40001H18.05L16.15 12Z" fill="#273637"/>
<path fill-rule="evenodd" clip-rule="evenodd" d="M12 2.10001C6.53236 2.10001 2.09998 6.53239 2.09998 12C2.09998 17.4676 6.53236 21.9 12 21.9C17.4676 21.9 21.9 17.4676 21.9 12C21.9 6.53239 17.4676 2.10001 12 2.10001ZM3.89998 12C3.89998 7.5265 7.52647 3.90001 12 3.90001C16.4735 3.90001 20.1 7.5265 20.1 12C20.1 16.4735 16.4735 20.1 12 20.1C7.52647 20.1 3.89998 16.4735 3.89998 12Z" fill="#273637"/>
</svg>
