<?xml version="1.0" encoding="UTF-8"?>
<svg width="24px" height="24px" viewBox="0 0 24 24" version="1.1" xmlns="http://www.w3.org/2000/svg" xmlns:xlink="http://www.w3.org/1999/xlink">
    <title>Icons/Full Set/Snappable/AWS EC2</title>
    <g id="Icons/Full-Set/Snappable/AWS-EC2" stroke="none" stroke-width="1" fill="none" fill-rule="evenodd">
        <path d="M4.125,11 C4.677,11 5.125,11.447 5.125,12 C5.125,12.553 4.677,13 4.125,13 L4,13 L4,20 L11,20 L11,19.875 C11,19.322 11.448,18.875 12,18.875 C12.552,18.875 13,19.322 13,19.875 L13,21 C13,21.553 12.552,22 12,22 L3.562,22 C2.701,22 2,21.299 2,20.438 L2,12 C2,11.447 2.448,11 3,11 L4.125,11 Z M15.094,6.004 C15.574,6.004 15.974,6.394 15.974,6.874 L15.974,6.874 L15.974,8.034 L17.124,8.034 C17.604,8.034 18.004,8.424 18.004,8.904 C18.004,9.394 17.604,9.784 17.124,9.784 L17.124,9.784 L15.974,9.784 L15.974,11.124 L17.124,11.124 C17.604,11.124 18.004,11.514 18.004,12.004 C18.004,12.484 17.604,12.874 17.124,12.874 L17.124,12.874 L15.974,12.874 L15.974,14.214 L17.124,14.214 C17.604,14.214 18.004,14.614 18.004,15.094 C18.004,15.574 17.604,15.974 17.124,15.974 L17.124,15.974 L15.974,15.974 L15.974,17.124 C15.974,17.604 15.574,18.004 15.094,18.004 C14.614,18.004 14.214,17.604 14.214,17.124 L14.214,17.124 L14.214,15.974 L12.874,15.974 L12.874,17.124 C12.874,17.604 12.484,18.004 12.004,18.004 C11.514,18.004 11.124,17.604 11.124,17.124 L11.124,17.124 L11.124,15.974 L9.784,15.974 L9.784,17.124 C9.784,17.604 9.394,18.004 8.904,18.004 C8.424,18.004 8.034,17.604 8.034,17.124 L8.034,17.124 L8.034,15.974 L6.874,15.974 C6.394,15.974 6.004,15.574 6.004,15.094 C6.004,14.614 6.394,14.214 6.874,14.214 L6.874,14.214 L8.034,14.214 L8.034,12.874 L6.874,12.874 C6.394,12.874 6.004,12.484 6.004,12.004 C6.004,11.514 6.394,11.124 6.874,11.124 L6.874,11.124 L8.034,11.124 L8.034,9.784 L6.874,9.784 C6.394,9.784 6.004,9.394 6.004,8.904 C6.004,8.424 6.394,8.034 6.874,8.034 L6.874,8.034 L8.034,8.034 L8.034,6.874 C8.034,6.394 8.424,6.004 8.904,6.004 C9.394,6.004 9.784,6.394 9.784,6.874 L9.784,6.874 L9.784,8.034 L11.124,8.034 L11.124,6.874 C11.124,6.394 11.514,6.004 12.004,6.004 C12.484,6.004 12.874,6.394 12.874,6.874 L12.874,6.874 L12.874,8.034 L14.214,8.034 L14.214,6.874 C14.214,6.394 14.614,6.004 15.094,6.004 Z M14.214,9.784 L9.784,9.784 L9.784,14.214 L14.214,14.214 L14.214,9.784 Z M20.438,2 C21.299,2 22,2.701 22,3.562 L22,12 C22,12.553 21.552,13 21,13 L19.875,13 C19.323,13 18.875,12.553 18.875,12 C18.875,11.447 19.323,11 19.875,11 L20,11 L20,4 L13,4 L13,4.125 C13,4.678 12.552,5.125 12,5.125 C11.448,5.125 11,4.678 11,4.125 L11,3 C11,2.447 11.448,2 12,2 L20.438,2 Z" id="Combined-Shape" fill="#273637"></path>
    </g>
</svg>