<?xml version="1.0" encoding="UTF-8"?>
<svg width="24px" height="24px" viewBox="0 0 24 24" version="1.1" xmlns="http://www.w3.org/2000/svg" xmlns:xlink="http://www.w3.org/1999/xlink">
    <title>Icons/Full Set/Snappable/AWS - RDS</title>
    <g id="Icons/Full-Set/Snappable/AWS---RDS" stroke="none" stroke-width="1" fill="none" fill-rule="evenodd">
        <path d="M12,5 C15.2625251,5 17.252505,5.779 17.3356713,5.812 C17.6683367,5.945 17.8867735,6.267 17.8867735,6.625 L17.8867735,6.625 L17.8867735,17.125 C17.8867735,17.483 17.6683367,17.805 17.3356713,17.937 C17.252505,17.971 15.2625251,18.75 12,18.75 C8.73747495,18.75 6.74749499,17.971 6.66432866,17.937 C6.33166333,17.805 6.11322645,17.483 6.11322645,17.125 L6.11322645,17.125 L6.11322645,6.625 C6.11322645,6.267 6.33166333,5.945 6.66432866,5.812 C6.74749499,5.779 8.73747495,5 12,5 Z M16.1332665,14.75 L7.86673347,14.75 L7.86673347,16.486 C8.60420842,16.69 10.0460922,17 12,17 C13.9539078,17 15.3957916,16.69 16.1332665,16.486 L16.1332665,16.486 L16.1332665,14.75 Z M4.93587174,7.715 L4.93587174,9.825 C4.16432866,10.445 3.74348697,11.175 3.74348697,11.875 C3.74348697,12.575 4.16432866,13.305 4.93587174,13.925 L4.93587174,16.035 C3.11222445,14.985 2,13.515 2,11.875 C2,10.235 3.11222445,8.765 4.93587174,7.715 Z M19.0641283,7.715 C20.8877756,8.765 22,10.235 22,11.875 C22,13.515 20.8877756,14.985 19.0641283,16.035 L19.0641283,16.035 L19.0641283,13.925 C19.8356713,13.305 20.256513,12.575 20.256513,11.875 C20.256513,11.175 19.8356713,10.445 19.0641283,9.825 L19.0641283,9.825 Z M16.1332665,10.75 L7.86673347,10.75 L7.86673347,13 L16.1332665,13 L16.1332665,10.75 Z M12,6.75 C10.0460922,6.75 8.60420842,7.06 7.86673347,7.264 L7.86673347,7.264 L7.86673347,9 L16.1332665,9 L16.1332665,7.264 C15.3967936,7.06 13.9549098,6.75 12,6.75 Z" id="Combined-Shape" fill="#273637"></path>
    </g>
</svg>