<?xml version="1.0" encoding="UTF-8"?>
<svg width="24px" height="24px" viewBox="0 0 24 24" version="1.1" xmlns="http://www.w3.org/2000/svg" xmlns:xlink="http://www.w3.org/1999/xlink">
    <title>Icons/Full Set/Snappable/AWS</title>
    <g id="Icons/Full-Set/Snappable/AWS" stroke="none" stroke-width="1" fill="none" fill-rule="evenodd">
        <path d="M4.0405,15.5571 C2.3495,14.2661 3.0335,13.9991 3.8935,14.4671 C6.9855,16.1451 10.5805,16.9431 13.9825,16.5471 C15.5435,16.3651 17.0735,15.8681 18.5645,15.3301 C18.6495,15.3001 18.7465,15.2701 18.8235,15.3221 C18.9085,15.3801 18.9255,15.5191 18.8885,15.6241 C18.8235,15.8151 18.6155,16.0161 18.4785,16.1421 C17.9565,16.6241 17.2765,16.8981 16.6685,17.2061 C16.0435,17.5231 15.3945,17.7781 14.7315,17.9701 C13.4075,18.3551 12.0275,18.4891 10.6655,18.3711 C8.8675,18.2141 7.0955,17.6131 5.5355,16.5721 C5.3145,16.4241 5.0895,16.2891 4.8695,16.1441 C4.5875,15.9581 4.3105,15.7631 4.0405,15.5571 Z M17.7778,13.7 C18.5258,13.499 19.4268,13.409 20.1768,13.645 C20.6978,13.81 21.0328,14.324 20.9968,14.87 C20.9718,15.265 20.8498,15.653 20.7028,16.017 C20.5508,16.397 20.3608,16.766 20.1288,17.104 C19.9758,17.329 19.7808,17.611 19.5258,17.731 C19.3888,17.795 19.2398,17.726 19.1678,17.6 C19.1248,17.524 19.1218,17.458 19.1388,17.395 C19.1568,17.324 19.1998,17.257 19.2398,17.184 C19.2828,17.106 19.3248,17.028 19.3648,16.949 C19.4368,16.812 19.5038,16.672 19.5668,16.53 C19.6678,16.299 19.7578,16.06 19.8148,15.813 C19.8858,15.496 19.9128,15.121 19.7058,14.846 C19.5048,14.578 19.1498,14.492 18.8318,14.463 C18.3248,14.418 17.8068,14.496 17.3108,14.598 C17.2248,14.616 17.1368,14.635 17.0498,14.622 C16.9068,14.6 16.8158,14.473 16.8148,14.332 C16.8128,14.235 16.8718,14.153 16.9388,14.088 C17.1558,13.875 17.4928,13.776 17.7778,13.7 Z M5.4915,7.0005 C6.1935,7.0005 6.7315,7.1525 7.1065,7.4595 C7.4815,7.7645 7.6685,8.2305 7.6685,8.8545 L7.6685,12.3425 L6.6715,12.3425 L6.3955,11.6315 L6.3575,11.6315 C6.1175,11.9345 5.8695,12.1445 5.6155,12.2605 C5.3605,12.3775 5.0295,12.4365 4.6205,12.4365 C4.1175,12.4365 3.7215,12.2925 3.4335,12.0055 C3.1445,11.7185 2.9995,11.3095 2.9995,10.7785 C2.9995,10.2235 3.1945,9.8135 3.5825,9.5495 C3.9715,9.2865 4.5575,9.1405 5.3415,9.1115 L6.2495,9.0845 L6.2495,8.8545 C6.2495,8.3235 5.9785,8.0585 5.4355,8.0585 C5.0165,8.0585 4.5245,8.1845 3.9595,8.4375 L3.4865,7.4735 C4.0895,7.1575 4.7575,7.0005 5.4915,7.0005 Z M19.104,7.0091 C19.734,7.0091 20.348,7.1471 20.943,7.4211 L20.513,8.4521 C20.251,8.3391 20.006,8.2471 19.778,8.1751 C19.55,8.1031 19.317,8.0681 19.08,8.0681 C18.658,8.0681 18.448,8.1821 18.448,8.4101 C18.448,8.5381 18.516,8.6481 18.651,8.7421 C18.787,8.8351 19.085,8.9751 19.544,9.1591 C19.953,9.3241 20.252,9.4781 20.442,9.6221 C20.633,9.7661 20.773,9.9311 20.864,10.1191 C20.955,10.3061 21,10.5291 21,10.7881 C21,11.3251 20.813,11.7341 20.44,12.0151 C20.067,12.2961 19.51,12.4361 18.767,12.4361 C18.386,12.4361 18.061,12.4111 17.792,12.3591 C17.524,12.3081 17.272,12.2321 17.038,12.1321 L17.038,10.9521 C17.304,11.0771 17.603,11.1821 17.936,11.2661 C18.268,11.3501 18.561,11.3921 18.813,11.3921 C19.331,11.3921 19.591,11.2431 19.591,10.9431 C19.591,10.8301 19.557,10.7391 19.487,10.6691 C19.419,10.5991 19.3,10.5191 19.132,10.4301 C18.963,10.3411 18.738,10.2371 18.457,10.1191 C18.055,9.9501 17.759,9.7941 17.57,9.6501 C17.381,9.5071 17.244,9.3421 17.158,9.1561 C17.072,8.9711 17.029,8.7421 17.029,8.4701 C17.029,8.0051 17.209,7.6451 17.57,7.3911 C17.931,7.1371 18.441,7.0091 19.104,7.0091 Z M9.9064,7.1078 L10.5104,9.4258 C10.6084,9.8408 10.7064,10.4138 10.8064,11.1438 L10.8344,11.1438 C10.8464,10.9068 10.9014,10.5308 10.9984,10.0158 L11.0724,9.6178 L11.7194,7.1078 L13.2924,7.1078 L13.9054,9.6178 C13.9184,9.6868 13.9384,9.7878 13.9644,9.9218 C13.9904,10.0558 14.0164,10.1988 14.0414,10.3508 C14.0664,10.5018 14.0894,10.6498 14.1094,10.7958 C14.1294,10.9408 14.1414,11.0568 14.1444,11.1438 L14.1724,11.1438 C14.2004,10.9198 14.2514,10.6118 14.3224,10.2188 L14.3790181,9.91456093 C14.4219918,9.68682041 14.4545429,9.52365714 14.4774,9.4258 L15.1044,7.1078 L16.5054,7.1078 L14.9974,12.3428 L13.4424,12.3428 L13.0394,10.5118 L12.4964,8.1988 L12.4634,8.1988 L11.5084,12.3428 L9.9724,12.3428 L8.4834,7.1078 L9.9064,7.1078 Z M6.2495,9.9175 L5.6975,9.9365 C5.2825,9.9485 4.9735,10.0235 4.7705,10.1605 C4.5665,10.2985 4.4655,10.5075 4.4655,10.7885 C4.4655,11.1905 4.6965,11.3925 5.1585,11.3925 C5.4895,11.3925 5.7545,11.2975 5.9525,11.1065 C6.1505,10.9165 6.2495,10.6635 6.2495,10.3485 L6.2495,9.9175 Z" id="Combined-Shape" fill="#273637"></path>
    </g>
</svg>
