<?xml version="1.0" encoding="UTF-8"?>
<svg width="24px" height="24px" viewBox="0 0 24 24" version="1.1" xmlns="http://www.w3.org/2000/svg" xmlns:xlink="http://www.w3.org/1999/xlink">
    <title>Icons/Full Set/Snappable/Azure</title>
    <g id="Icons/Full-Set/Snappable/Azure" stroke="none" stroke-width="1" fill="none" fill-rule="evenodd">
        <path d="M9.81387837,4.43022745 C9.72035067,4.19640818 9.50523694,4.02712303 9.24335936,4 L9.24335936,4 L14.612785,4 C15.0093425,4 15.3619419,4.25065425 15.4947512,4.6238298 L15.4947512,4.6238298 L20.446108,18.6529857 C20.6602865,19.2609158 20.2094829,19.8997101 19.5641417,19.8997101 L19.5641417,19.8997101 L16.2093029,19.8997101 L16.2111735,19.9034512 L14.6679663,19.9034512 C14.4247943,19.9034512 14.1816223,19.801506 14.0132724,19.6322208 L14.0132724,19.6322208 L10.0102866,16.2745762 L8.58866542,15.0867743 C8.29872953,14.7968384 8.50449048,14.2917888 8.92536516,14.2917888 L8.92536516,14.2917888 L12.7310075,14.2917888 L14.3780304,18.6034161 C14.3780304,18.6034161 14.6773191,19.3235794 14.518322,19.6322208 L14.518322,19.6322208 L14.5370275,19.6135153 C14.639908,19.5480459 14.88308,19.3516377 14.6586136,18.2480108 L14.6586136,18.2480108 L14.6698369,18.2779396 C14.6053028,18.0646965 14.5229984,17.7944014 14.457529,17.5942521 L14.457529,17.5942521 L13.293109,14.2917888 L13.2949796,14.2917888 Z M8.79199465,4.97278167 C9.02581392,4.97278167 9.23157487,5.11213795 9.31574981,5.31883419 C9.33445535,5.35624527 9.35316089,5.39365635 9.36251366,5.4404202 L9.36251366,5.4404202 L11.6754538,11.51598 L11.6165314,11.688071 L10.9244264,13.6802111 L8.92293344,13.6802111 C8.48335322,13.6802111 8.09053686,13.9420887 7.92218699,14.3442578 C7.76318988,14.746427 7.84736482,15.2037775 8.19341733,15.5507652 L8.19341733,15.5507652 L9.79274111,16.8872762 L8.95099175,19.273168 C8.81070019,19.6463435 8.46464768,19.8998036 8.06247854,19.8998036 L8.06247854,19.8998036 L4.43360354,19.8998036 C3.78826237,19.8998036 3.33932938,19.2628799 3.5544431,18.6558851 L3.5544431,18.6558851 L8.22147565,5.4404202 C8.23082842,5.40300912 8.24018119,5.36559804 8.25888673,5.32818696 C8.32435612,5.17854263 8.45529491,5.05695661 8.61429201,4.99990471 C8.63299755,4.99148721 8.65170309,4.99148721 8.67976141,4.98213444 L8.67976141,4.98213444 L8.70781972,4.98213444 C8.73587803,4.97278167 8.76393634,4.97278167 8.79199465,4.97278167 Z" id="Combined-Shape" fill="#273637"></path>
    </g>
</svg>