<svg width="21" height="20" viewBox="0 0 21 20" fill="none" xmlns="http://www.w3.org/2000/svg">
<path d="M20.2891 4.36846C20.2111 4.49712 20.1337 4.6248 20.0596 4.7459C16.2868 10.8757 11.3559 11.0656 5.54062 8.25052C3.92768 7.47217 2.13625 6.6278 1.23564 6.20398C0.907182 6.0532 0.759661 5.66688 0.904737 5.33598L2.95454 0.699277C3.02707 0.535456 3.16237 0.408311 3.33026 0.345554C3.49734 0.283612 3.68399 0.291762 3.84536 0.368375L8.10063 2.38802C11.1945 3.86485 12.9093 4.20961 14.6152 1.3945C14.8261 1.0446 15.0227 0.714633 15.1837 0.444381C15.2069 0.405548 15.2293 0.367948 15.2509 0.331699C15.343 0.172768 15.4962 0.0586639 15.6755 0.0170974C15.854 -0.0244691 16.0423 0.0105772 16.1947 0.113271L20.5005 2.76212C20.8069 2.95202 20.9056 3.3522 20.7222 3.66272C20.5876 3.87581 20.4373 4.1239 20.2891 4.36846Z" fill="#273637"/>
<path d="M0.525263 15.6454C0.60323 15.5167 0.680606 15.389 0.754785 15.2679C4.52674 9.13157 9.45767 8.949 15.2607 11.7682C16.8736 12.5465 18.6651 13.3909 19.5657 13.8147C19.8941 13.9655 20.0416 14.3518 19.8966 14.6827L17.8468 19.3194C17.7742 19.4833 17.6389 19.6104 17.471 19.6732C17.304 19.7351 17.1173 19.7269 16.9559 19.6503L12.6868 17.6201C9.59296 16.1433 7.87814 15.7985 6.17228 18.6136C5.96121 18.9637 5.76448 19.2939 5.6034 19.5643C5.58037 19.6029 5.55807 19.6403 5.53656 19.6764C5.44609 19.8288 5.29776 19.9389 5.12497 19.9812C4.95219 20.0236 4.76962 19.9943 4.61884 19.9014L0.313855 17.2517C0.0074037 17.0618 -0.0912148 16.6616 0.0921668 16.3511C0.226747 16.138 0.377074 15.8899 0.525263 15.6454Z" fill="#273637"/>
</svg>
