<?xml version="1.0" encoding="UTF-8"?>
<svg width="24px" height="24px" viewBox="0 0 24 24" version="1.1" xmlns="http://www.w3.org/2000/svg" xmlns:xlink="http://www.w3.org/1999/xlink">
    <title>Icons/Full Set/Snappable/Dell-EMC-Isilon</title>
    <g id="Icons/Full-Set/Snappable/Dell-EMC-Isilon" stroke="none" stroke-width="1" fill="none" fill-rule="evenodd">
        <path d="M14.4555626,10.0261251 C14.5698644,10.0261251 14.6751661,10.1224266 14.6751661,10.2457286 C14.6751661,12.5729185 13.4563812,16.4853226 11.3800738,18.8921397 C11.4975638,19.008089 11.62194,19.1071892 11.7525495,19.1909712 C12.3060583,19.5518769 12.9558687,19.6310782 13.7460813,19.4375751 C17.0905346,18.6293622 18.8896633,12.5461653 18.8896633,10.2457286 C18.8896633,10.1224266 18.9958649,10.0261251 19.1101668,10.0261251 L20.3386863,10.0261251 C20.4529882,10.0261251 20.5582898,10.1224266 20.5582898,10.2457286 C20.5582898,13.661283 17.932948,20.4914919 13.8252825,20.9648994 C13.6488797,20.9828997 13.4913772,21 13.3329747,21 C12.4815611,21 11.7615496,20.7272957 11.1648401,20.1926871 C10.9787406,20.0245385 10.8118494,19.8346029 10.6627635,19.6286079 C9.8547424,20.357141 8.9419992,20.8495896 7.94125876,20.9648994 C7.76575596,20.9828997 7.60735343,21 7.44985092,21 C6.59843735,21 5.87842588,20.7272957 5.28081635,20.1926871 C4.08739733,19.1135699 3.68329089,17.1371384 3.70129118,15.7772168 C3.70129118,15.6710151 3.78859257,15.5747135 3.90289439,15.5657134 C4.01719621,15.5567132 4.11349775,15.6359145 4.13149803,15.7412162 C4.45640321,17.4980442 5.03601245,18.6563626 5.86942573,19.1909712 C6.42293456,19.5518769 7.0718449,19.6310782 7.86205749,19.4375751 C8.63741282,19.2502549 9.32970849,18.7795746 9.93579578,18.138305 C9.67624766,17.324294 9.57569583,16.4706156 9.58441494,15.7772168 C9.58441494,15.6710151 9.67171634,15.5747135 9.78601816,15.5657134 C9.90031998,15.5567132 9.99752153,15.6359145 10.0146218,15.7412162 C10.1372228,16.4041446 10.2960907,16.9818522 10.4911772,17.4729849 C12.1402351,15.2597773 13.0065395,11.8420283 13.0065395,10.2457286 C13.0065395,10.1224266 13.1127412,10.0261251 13.226143,10.0261251 L14.4555626,10.0261251 Z M18.2241926,3.81071603 C19.4185117,4.89073325 19.8226181,6.85726459 19.8046178,8.21808628 C19.7956177,8.3323881 19.7164164,8.42058951 19.6021146,8.42778962 C19.4977129,8.44578991 19.3834111,8.36748866 19.3654108,8.25318684 C19.0405057,6.49725885 18.4608964,5.33894039 17.6364833,4.80253184 C17.0829745,4.4425261 16.425064,4.36422485 15.6429515,4.55772794 C14.8825802,4.74057622 14.2034621,5.19439214 13.607276,5.81425773 C13.8785156,6.64027974 13.9831384,7.51095922 13.9737849,8.21808628 C13.9647848,8.3323881 13.8855835,8.42058951 13.7721817,8.42778962 C13.66688,8.44578991 13.5525782,8.36748866 13.5345779,8.25318684 C13.4085551,7.57210509 13.2443481,6.98093222 13.042377,6.48108628 C12.5687688,7.10989877 12.1600361,7.83744267 11.8160905,8.59519229 C10.9466767,10.5005227 10.4894694,12.6074562 10.4894694,13.7576746 C10.4894694,13.8710764 10.3931678,13.9763781 10.2707659,13.9763781 L9.05034643,13.9763781 C8.92704447,13.9763781 8.83074293,13.8710764 8.83074293,13.7576746 C8.83074293,11.4159999 10.0547043,7.48069127 12.1458223,5.07544605 C12.0385176,4.97014379 11.9246473,4.87987336 11.8056503,4.80253184 C11.2521415,4.4425261 10.594231,4.36422485 9.81211857,4.55772794 C8.13539185,4.96093436 6.85377142,6.68176179 5.98525758,8.59519229 C5.11584372,10.5005227 4.65863644,12.6074562 4.65863644,13.7576746 C4.65863644,13.8710764 4.5623349,13.9763781 4.43993295,13.9763781 L3.2195135,13.9763781 C3.09711155,13.9763781 2.99991,13.8710764 2.99991,13.7576746 C2.99991,10.33402 5.6162517,3.50381114 9.73381733,3.02950358 C10.7868341,2.90620162 11.6823484,3.16990582 12.3933597,3.81071603 C12.5686215,3.96920443 12.7268664,4.14678341 12.8692579,4.3387374 C13.6698677,3.62584023 14.5737922,3.14364176 15.5646503,3.02950358 C16.617667,2.90620162 17.5131813,3.16990582 18.2241926,3.81071603 Z" id="Combined-Shape" fill="#273637"></path>
    </g>
</svg>