<svg width="24" height="25" viewBox="0 0 24 25" fill="none" xmlns="http://www.w3.org/2000/svg">
<path fill-rule="evenodd" clip-rule="evenodd" d="M14.4336 10.5741L12.5156 11.121C12.2682 10.8632 11.8046 10.3853 11.0039 10.4257C10.2733 10.4626 9.8442 10.8869 9.51559 11.2226C8.96484 11.7851 8.94132 12.5671 9.0625 13.2382C9.15128 13.7299 9.70296 14.2887 10.6718 14.332C11.5469 14.371 12.1666 13.6366 12.3906 13.2382H10.4765C10.2227 13.2382 10.1836 13.0742 10.2539 12.8945L10.8477 11.6601H14.2915C14.8143 9.96361 16.6235 8.57812 18.5781 8.57812C20.8994 8.57812 22.25 10.1094 22.25 12.3125C21.9844 14.7344 19.9688 16.3219 18.0469 16.3219C16.1212 16.3219 14.6056 15.3477 14.2251 13.7223C13.8857 14.8287 11.9477 16.6366 10.0312 16.3906C7.69376 16.0906 6.91146 14.2773 6.81249 13.4179C6.57031 12.1288 7.41404 9.45694 10.0312 8.6679C12.5961 7.89463 13.9882 9.49211 14.4336 10.5741ZM17.9375 14.3516C19.0312 14.4062 20.1406 13.3346 20.1406 12.2344C20.1406 11.1341 19.4922 10.3828 18.2344 10.3828C17.3906 10.3828 16.2344 11.3529 16.2344 12.4531C16.2344 13.5534 16.82 14.3516 17.9375 14.3516Z" fill="white"/>
<path d="M2.98438 10.4375H6.79688L6.54688 10.8359H2.79297L2.98438 10.4375Z" fill="white"/>
<path d="M3.86328 12.3281H6.10156V12.7266H3.64844L3.86328 12.3281Z" fill="white"/>
<path d="M1.48902 11.3359H6.25L6.08594 11.7344H1.25L1.48902 11.3359Z" fill="white"/>
</svg>
