<?xml version="1.0" encoding="UTF-8"?>
<svg width="24px" height="24px" viewBox="0 0 24 24" version="1.1" xmlns="http://www.w3.org/2000/svg" xmlns:xlink="http://www.w3.org/1999/xlink">
    <title>Icons/Full Set/Snappable/IBM DB2</title>
    <g id="Icons/Full-Set/Snappable/IBM-DB2" stroke="none" stroke-width="1" fill="none" fill-rule="evenodd">
        <path d="M18,3 C19.65,3 21,4.35 21,6 L21,6 L21,18 C21,19.65 19.65,21 18,21 L18,21 L6,21 C4.35,21 3,19.65 3,18 L3,18 L3,6 C3,4.35 4.35,3 6,3 L6,3 Z M19,12.45 L5,12.45 L5,18 C5,18.55 5.45,19 6,19 L6,19 L18,19 C18.55,19 19,18.55 19,18 L19,18 L19,12.45 Z M8.7977,13.6841 C9.3437,13.6841 9.7667,13.8521 10.0677,14.1881 C10.3697,14.5251 10.5197,14.9941 10.5197,15.5981 C10.5197,16.2401 10.3637,16.7321 10.0507,17.0741 C9.7377,17.4151 9.2857,17.5861 8.6957,17.5861 L7.7497,17.5861 L7.7497,13.6841 L8.7977,13.6841 Z M12.0408,13.684 C12.5148,13.684 12.8578,13.763 13.0718,13.92 C13.2858,14.078 13.3928,14.328 13.3928,14.672 C13.3928,14.905 13.3458,15.096 13.2528,15.245 C13.1588,15.395 13.0338,15.485 12.8788,15.515 L12.8788,15.542 C13.0908,15.597 13.2428,15.7 13.3368,15.851 C13.4308,16.003 13.4778,16.204 13.4778,16.454 C13.4778,16.81 13.3678,17.088 13.1478,17.287 C12.9278,17.486 12.6288,17.586 12.2508,17.586 L11.0018,17.586 L11.0018,13.684 L12.0408,13.684 Z M15.099,13.6281 C15.308,13.6281 15.492,13.6721 15.652,13.7611 C15.812,13.8501 15.936,13.9751 16.024,14.1351 C16.112,14.2951 16.156,14.4781 16.156,14.6851 C16.156,14.8651 16.129,15.0331 16.075,15.1911 C16.021,15.3481 15.938,15.5101 15.824,15.6751 C15.711,15.8411 15.511,16.0761 15.225,16.3821 L14.795,16.8551 L14.795,16.8921 L16.25,16.8921 L16.25,17.5861 L13.916,17.5861 L13.916,17.0121 L14.754,16.0221 C15.002,15.7251 15.165,15.5191 15.241,15.4041 C15.317,15.2891 15.372,15.1831 15.405,15.0851 C15.439,14.9871 15.455,14.8861 15.455,14.7811 C15.455,14.6241 15.418,14.5081 15.345,14.4311 C15.271,14.3551 15.172,14.3171 15.049,14.3171 C14.919,14.3171 14.794,14.3511 14.672,14.4211 C14.55,14.4901 14.423,14.5891 14.291,14.7171 L13.907,14.1861 C14.071,14.0221 14.208,13.9061 14.316,13.8391 C14.424,13.7711 14.542,13.7191 14.67,13.6831 C14.798,13.6461 14.941,13.6281 15.099,13.6281 Z M8.8347,14.3621 L8.4577,14.3621 L8.4577,16.9031 L8.7617,16.9031 C9.4437,16.9031 9.7847,16.4751 9.7847,15.6191 C9.7847,14.7811 9.4677,14.3621 8.8347,14.3621 Z M12.1478,15.886 L11.7098,15.886 L11.7098,16.903 L12.1708,16.903 C12.3658,16.903 12.5098,16.859 12.6028,16.772 C12.6958,16.685 12.7418,16.551 12.7418,16.372 C12.7418,16.048 12.5438,15.886 12.1478,15.886 Z M12.0818,14.362 L11.7098,14.362 L11.7098,15.229 L12.1208,15.229 C12.3128,15.229 12.4518,15.195 12.5378,15.125 C12.6238,15.056 12.6668,14.941 12.6668,14.781 C12.6668,14.632 12.6198,14.524 12.5258,14.459 C12.4328,14.395 12.2848,14.362 12.0818,14.362 Z M14.77,5.58 L12.93,5.58 L12.93,6.53 L13.5,6.53 L13.5,9.26 L12.93,9.26 L12.93,10.2 L14.52,10.2 L14.52,7.63 L15.46,10.24 L16.41,7.63 L16.41,10.2 L18,10.2 L18,9.26 L17.42,9.26 L17.42,6.53 L18,6.53 L18,5.58 L16.16,5.58 L15.46,7.55 L14.77,5.58 Z M8.26,5.58 L6,5.58 L6,6.53 L6.65,6.53 L6.65,9.26 L6,9.26 L6,10.2 L8.26,10.2 L8.26,9.26 L7.66,9.26 L7.66,6.53 L8.26,6.53 L8.26,5.58 Z M11.56,5.58 L8.79,5.58 L8.79,6.53 L9.41,6.53 L9.41,9.26 L8.79,9.26 L8.79,10.2 L11.56,10.2 L11.56,10.2 L11.5960938,10.1836523 C11.756875,10.1064062 12.4,9.74875 12.4,8.97 C12.4,8.08 11.57,7.89 11.56,7.89 C11.57,7.89 12.4,7.71 12.4,6.82 C12.4,5.93 11.56,5.58 11.56,5.58 L11.56,5.58 Z M11.15,8.39 C11.1614286,8.39714286 11.1740816,8.40612245 11.1873761,8.41699708 L11.196,8.425 L11.2286006,8.45536443 C11.2425948,8.47008746 11.2566472,8.48676385 11.2701749,8.5054519 L11.291,8.539 L11.3086006,8.56760933 C11.3204956,8.59037901 11.3312828,8.61521866 11.340379,8.64218659 L11.347,8.668 L11.3620117,8.72953353 L11.3620117,8.72953353 L11.368,8.811 L11.37,8.83 C11.37,8.86777778 11.3666667,8.90246914 11.3607407,8.93429355 L11.35,8.969 L11.3359259,9.02138546 C11.2737037,9.17924554 11.1448148,9.24179698 11.1092593,9.25644719 L11.1,9.26 L10.43,9.26 L10.43,8.39 Z M11.1,6.53 C11.1,6.53 11.1833333,6.55777778 11.2574074,6.64076818 L11.264,6.649 L11.3,6.69740741 C11.3133333,6.71864198 11.3255556,6.74230453 11.3359259,6.76861454 L11.35,6.819 L11.3607407,6.85570645 L11.3607407,6.85570645 L11.37,6.96 L11.37,6.96 L11.368,6.978 L11.3607407,7.06600823 L11.3607407,7.06600823 L11.345,7.121 L11.3359259,7.15769547 C11.3255556,7.18592593 11.3133333,7.21185185 11.3,7.23555556 L11.29,7.249 L11.2574074,7.3000823 C11.2425926,7.31942387 11.2274074,7.33662551 11.2125926,7.35176955 L11.2,7.362 L11.17,7.39111111 C11.1433333,7.41333333 11.1211111,7.42765432 11.1092593,7.43473251 L11.1,7.44 L10.43,7.44 L10.43,6.53 Z" id="Combined-Shape" fill="#273637"></path>
    </g>
</svg>