<?xml version="1.0" encoding="UTF-8"?>
<svg width="24px" height="24px" viewBox="0 0 24 24" version="1.1" xmlns="http://www.w3.org/2000/svg" xmlns:xlink="http://www.w3.org/1999/xlink">
    <title>Icons/Full Set/Snappable/MongoDB</title>
    <g id="Icons/Full-Set/Snappable/MongoDB" stroke="none" stroke-width="1" fill="none" fill-rule="evenodd">
        <path d="M11.3657802,16.9456 C11.3657802,17.1286 11.2157802,17.2786 11.0307802,17.2786 C10.9807802,17.2786 10.9317802,17.2666 10.8887802,17.2466 C10.8647802,17.2346 10.8427802,17.2206 10.8227802,17.2036 C10.8107802,17.1936 10.7807802,17.1636 10.7777802,17.1606 C9.40978017,15.8526 8.64478017,14.1996 8.51678017,12.2286 C8.43978017,11.0136 8.59978017,9.8006 8.99778017,8.6196 C9.32478017,7.6176 9.71278017,6.8216 10.1957802,6.1736 C10.5027802,5.7486 10.8127802,5.4386 11.2027802,5.0466 L11.3657802,4.8806 L11.3657802,16.9456 Z M15.4547802,8.1526 C15.1247802,7.1416 14.6747802,6.1516 14.0447802,5.2936 C13.5937802,4.6736 13.1637802,4.2706 12.6337802,3.7336 C12.2137802,3.3206 11.6637802,2.5906 11.5137802,1.9996 C11.3627802,2.5906 10.8027802,3.3206 10.3927802,3.7336 C9.86278017,4.2706 9.43278017,4.6736 8.98278017,5.2936 C8.34178017,6.1516 7.90178017,7.1416 7.57178017,8.1526 C7.12178017,9.4956 6.93178017,10.9136 7.02178017,12.3236 C7.28178017,16.3556 9.78278017,18.3566 10.5027802,18.9166 C10.5027802,18.9166 10.6157802,19.0486 10.8607802,19.1536 L11.1007802,21.9996 L11.9107802,21.9996 L12.1757802,19.1666 C12.3237802,19.1036 12.3737802,19.0366 12.3737802,19.0366 C12.7437802,18.7166 15.7047802,16.7376 15.9947802,12.3236 C16.0847802,10.9136 15.8947802,9.4956 15.4547802,8.1526 L15.4547802,8.1526 Z" id="Fill-1" fill="#273637"></path>
    </g>
</svg>