<svg width="24" height="24" viewBox="0 0 24 24" fill="none" xmlns="http://www.w3.org/2000/svg">
<path d="M2.9 5.40005H6.6C6.7 5.40005 6.7 5.40005 6.8 5.50005L14 11.8C14.1 11.9 14.1 12.1 14 12.2L6.7 18.5C6.7 18.5 6.6 18.6 6.5 18.6H2.9C2.7 18.6 2.6 18.3001 2.7 18.2001L9.5 12.3C9.6 12.2 9.6 12 9.5 11.9L2.7 5.90005C2.6 5.70005 2.7 5.40005 2.9 5.40005Z" fill="#273637"/>
<path d="M21.3 5.90005L15.6 10.8C15.5 10.9 15.4 10.9 15.3 10.8L13.4 9.10005C13.3 9.00005 13.3 8.80005 13.4 8.70005L17.1 5.40005C17.1 5.40005 17.2 5.30005 17.3 5.30005H21.1C21.3 5.40005 21.4 5.70005 21.3 5.90005Z" fill="#273637"/>
<path d="M21 18.5H17.3C17.2 18.5 17.2 18.5 17.1 18.4L13.3 15.1C13.2 15 13.2 14.8 13.3 14.7L15.2 13.1C15.3 13 15.4 13 15.5 13L21.1 17.9C21.4 18.2 21.3 18.5 21 18.5Z" fill="#273637"/>
</svg>
