<svg width="24" height="24" viewBox="0 0 24 24" fill="none" xmlns="http://www.w3.org/2000/svg">
<path d="M17.9452 12.5742H17.9752L17.9851 12.5842C18.0151 12.5842 18.0451 12.5742 18.0551 12.5442C18.7649 11.2736 19.3447 9.82295 19.6846 8.47232C20.0744 6.92159 20.1044 5.64099 19.7645 5.2308C18.9148 4.12028 17.7152 3.54001 16.2158 3.50999C15.8759 3.48998 15.456 3.52 15.0662 3.59003C15.0262 3.60003 14.9962 3.63005 14.9962 3.66006C14.9862 3.70008 15.0062 3.73009 15.0362 3.7501C15.6759 4.10027 16.2557 4.57049 16.7456 5.16077C17.5953 6.17124 18.0051 7.29177 18.0451 7.68195C18.0551 7.71196 18.0551 7.76199 18.0451 7.792V7.82201C18.0551 8.11215 18.0251 8.38228 17.9951 8.61238C17.9851 8.68242 17.9752 8.75245 17.9552 8.82248V8.84249C17.9452 8.8525 17.9352 8.87251 17.9352 8.87251V8.92253C17.928 9.00535 17.9182 9.08948 17.9081 9.17583C17.8903 9.32938 17.8716 9.48998 17.8652 9.66288C17.8652 9.91299 17.8852 10.1731 17.9252 10.4532V10.5833C18.0051 11.1736 18.0651 11.8039 17.8952 12.4742C17.8852 12.5142 17.9052 12.5542 17.9452 12.5742Z" fill="white"/>
<path d="M17.7552 15.1955C17.4054 15.1955 17.2054 15.1455 17.1155 15.1154C17.0555 15.0954 17.0055 15.0254 17.0055 14.9554C17.0055 14.4151 17.1854 14.3051 17.4653 14.225C17.5153 14.195 17.6153 14.175 17.6853 14.225C17.6952 14.225 17.7052 14.235 17.7152 14.245C18.0451 14.4851 18.6449 14.5452 19.4646 14.4351C19.5546 14.4351 19.6146 14.4751 19.6446 14.5552C19.6646 14.6352 19.6346 14.7153 19.5646 14.7553C19.4792 14.798 19.4011 14.8407 19.3117 14.8897L19.2647 14.9154C18.9448 15.0554 18.445 15.1655 17.9352 15.2055H17.7652L17.7552 15.1955Z" fill="white"/>
<path d="M9.41683 15.8697L9.34813 15.8558C9.28815 15.8458 9.24817 15.7958 9.22817 15.7357C9.20818 15.6757 9.22817 15.6157 9.26816 15.5757C9.29815 15.5457 9.36813 15.5156 9.41811 15.5156C10.3278 15.3155 10.4677 15.1855 10.7776 14.7653C10.7776 14.7532 10.785 14.7447 10.793 14.7355C10.7982 14.7295 10.8037 14.7232 10.8076 14.7153C10.8576 14.6652 10.9076 14.6052 10.9676 14.5252L11.0276 14.4351C11.1775 14.255 11.2675 14.225 11.4574 14.2951C11.5874 14.3551 11.7173 14.4852 11.7873 14.6852V14.7353L11.7894 14.7541C11.7996 14.8417 11.8125 14.9529 11.7473 15.0554V15.0654C11.3374 15.6457 10.7576 15.9458 10.0779 15.9458V15.9558C9.83794 15.9558 9.60585 15.9084 9.41683 15.8697Z" fill="white"/>
<path fill-rule="evenodd" clip-rule="evenodd" d="M17.2454 10.6333C17.2387 10.56 17.2311 10.4866 17.2234 10.4132C17.1967 10.1564 17.1699 9.89965 17.1854 9.64287C17.2054 9.2927 17.2354 9.01257 17.2854 8.73244L17.2951 8.66187C17.3215 8.47079 17.3454 8.2984 17.3454 8.10214C17.1954 8.08213 17.0655 8.08213 16.9355 8.08213C16.4457 8.08213 16.1058 8.18218 15.9459 8.41229C15.7559 8.69242 15.7859 9.26269 16.0458 9.98303C16.3057 10.6934 16.6756 11.4137 16.9355 11.8739C17.0085 12.0144 17.0657 12.1169 17.1107 12.1976C17.1458 12.2606 17.1735 12.3103 17.1954 12.3541C17.3735 11.8383 17.3143 11.2962 17.2568 10.7688L17.2454 10.6633V10.6333ZM16.9555 8.8625C16.8955 8.93253 16.7656 9.04258 16.5856 9.0826H16.5257C16.4157 9.0826 16.2957 9.05259 16.1858 8.96255C16.0758 8.89251 15.9958 8.78246 15.9958 8.68242C15.9659 8.46231 16.2258 8.32225 16.5157 8.28223C16.5407 8.28223 16.5681 8.27723 16.5956 8.27222C16.6231 8.26722 16.6506 8.26222 16.6756 8.26222C16.8855 8.26222 17.0855 8.33225 17.1155 8.53235C17.1354 8.66241 17.0155 8.81248 16.9655 8.8625H16.9555Z" fill="white"/>
<path d="M17.0955 13.6848L17.0655 13.6548L17.0455 13.6447C16.8855 13.4347 16.6456 13.1145 16.4657 12.6543C16.4357 12.6043 16.3657 12.4742 16.2857 12.3241L16.2557 12.2541C15.9958 11.8039 15.576 11.0435 15.3161 10.2432C14.9362 9.21267 14.9362 8.46232 15.2961 7.95208C15.656 7.44184 16.2957 7.22174 17.2154 7.29177C17.0855 6.94161 16.7956 6.31131 16.2458 5.63099C15.566 4.8006 14.3464 3.81014 12.4471 3.79013H12.3671C11.4574 3.79013 10.6977 4.07026 10.1279 4.67054C9.28816 5.55095 8.99826 6.91159 8.89829 7.77199C9.17819 7.64193 9.64803 7.44184 10.1679 7.37181C11.1275 7.28176 11.7773 7.73198 11.9572 8.61239C12.4371 10.8835 11.9972 11.8939 11.6773 12.6243C11.6398 12.7182 11.6062 12.7965 11.574 12.8713C11.5548 12.916 11.5361 12.9596 11.5174 13.0044L11.4874 13.1045C11.4174 13.2846 11.3574 13.4447 11.3075 13.6147C11.4638 13.6147 11.5976 13.6676 11.6824 13.7012C11.6951 13.7062 11.7069 13.7109 11.7173 13.7148C12.0272 13.8548 12.2671 14.155 12.3671 14.5152C12.3871 14.5652 12.4171 14.6852 12.4171 14.6852V14.8053C12.3671 16.9963 12.4471 19.0373 12.607 19.4675C12.8969 20.2178 13.3068 20.668 14.3264 20.4479C15.396 20.2178 15.7659 19.8377 15.9459 18.7772C16.0758 17.9468 16.3657 15.5556 16.3957 15.0454C16.3457 14.135 16.7856 13.8348 17.0955 13.6848Z" fill="white"/>
<path fill-rule="evenodd" clip-rule="evenodd" d="M11.2175 8.79247C11.1375 8.44231 10.9776 8.26223 10.6977 8.19219C10.0479 8.02211 9.1582 8.50234 8.87829 8.70243V8.80248C8.90828 9.2827 8.95827 10.1431 8.81831 11.1536C8.73834 11.8339 8.92828 12.4842 9.36812 12.9444C9.68801 13.2946 10.0979 13.4947 10.5377 13.5247C10.5772 13.3797 10.6298 13.239 10.6839 13.0941C10.7119 13.0191 10.7404 12.9429 10.7676 12.8644L10.8176 12.7343C10.8313 12.6987 10.845 12.6624 10.8589 12.6255C10.8957 12.5276 10.934 12.4259 10.9776 12.3241C11.2875 11.6438 11.6473 10.8134 11.2175 8.79247ZM10.8876 9.09261C10.7776 9.17265 10.6577 9.21267 10.5277 9.21267H10.4478C10.2878 9.19266 10.1079 9.08261 9.99791 8.93254C9.91793 8.81248 9.88794 8.71244 9.89794 8.62239C9.89794 8.59238 9.91793 8.49233 10.0079 8.4223C10.1179 8.34226 10.3178 8.30224 10.5577 8.34226C10.6877 8.36227 10.7976 8.39229 10.8976 8.46232C11.1075 8.58237 11.1075 8.74245 11.1075 8.79247C11.0875 8.96255 10.9276 9.0726 10.8776 9.10262L10.8876 9.09261Z" fill="white"/>
<path d="M6.89898 15.5957C6.92897 15.6157 6.96896 15.6157 7.01894 15.6157L6.99894 15.6057C7.1389 15.6057 7.34882 15.5456 7.62873 15.2155C8.15969 14.5815 8.63857 14.0258 8.9036 13.7182C8.92299 13.6957 8.94123 13.6745 8.95827 13.6548C8.98826 13.6247 8.95827 13.5447 8.95827 13.5447L8.8583 13.4447C8.26851 12.8144 8.0086 11.964 8.11856 11.0635C8.22852 10.2332 8.19853 9.45279 8.17854 8.99257V8.85251C8.15854 8.74246 8.15854 8.64241 8.15854 8.57238C8.15854 7.92207 8.25851 5.70103 9.53807 4.29037C9.55806 4.27036 9.55806 4.24035 9.55806 4.21033C9.55806 4.18032 9.53807 4.1503 9.50808 4.1503C9.1482 4.03025 8.17854 3.75012 7.14889 3.75012C6.32918 3.75012 5.65941 3.9402 5.15958 4.30037C4.31987 4.92066 3.93001 6.0612 4.00998 7.69196C4.04996 8.22221 4.36985 10.0931 4.90967 11.9239C5.55944 14.0449 6.27919 15.3856 6.87899 15.5957H6.89898Z" fill="white"/>
<path d="M17.9452 12.5742H17.9752L17.9851 12.5842C18.0151 12.5842 18.0451 12.5742 18.0551 12.5442C18.7649 11.2736 19.3447 9.82295 19.6846 8.47232C20.0744 6.92159 20.1044 5.64099 19.7645 5.2308C18.9148 4.12028 17.7152 3.54001 16.2158 3.50999C15.8759 3.48998 15.456 3.52 15.0662 3.59003C15.0262 3.60003 14.9962 3.63005 14.9962 3.66006C14.9862 3.70008 15.0062 3.73009 15.0362 3.7501C15.6759 4.10027 16.2557 4.57049 16.7456 5.16077C17.5953 6.17124 18.0051 7.29177 18.0451 7.68195C18.0551 7.71196 18.0551 7.76199 18.0451 7.792V7.82201C18.0551 8.11215 18.0251 8.38228 17.9951 8.61238C17.9851 8.68242 17.9752 8.75245 17.9552 8.82248V8.84249C17.9452 8.8525 17.9352 8.87251 17.9352 8.87251V8.92253C17.928 9.00535 17.9182 9.08948 17.9081 9.17583C17.8903 9.32938 17.8716 9.48998 17.8652 9.66288C17.8652 9.91299 17.8852 10.1731 17.9252 10.4532V10.5833C18.0051 11.1736 18.0651 11.8039 17.8952 12.4742C17.8852 12.5142 17.9052 12.5542 17.9452 12.5742Z" fill="white" stroke="white" stroke-width="0.2" stroke-miterlimit="10"/>
<path d="M17.7552 15.1955C17.4054 15.1955 17.2054 15.1455 17.1155 15.1154C17.0555 15.0954 17.0055 15.0254 17.0055 14.9554C17.0055 14.4151 17.1854 14.3051 17.4653 14.225C17.5153 14.195 17.6153 14.175 17.6853 14.225C17.6952 14.225 17.7052 14.235 17.7152 14.245C18.0451 14.4851 18.6449 14.5452 19.4646 14.4351C19.5546 14.4351 19.6146 14.4751 19.6446 14.5552C19.6646 14.6352 19.6346 14.7153 19.5646 14.7553C19.4792 14.798 19.4011 14.8407 19.3117 14.8897L19.2647 14.9154C18.9448 15.0554 18.445 15.1655 17.9352 15.2055H17.7652L17.7552 15.1955Z" fill="white" stroke="white" stroke-width="0.2" stroke-miterlimit="10"/>
<path d="M9.41683 15.8697L9.34813 15.8558C9.28815 15.8458 9.24817 15.7958 9.22817 15.7357C9.20818 15.6757 9.22817 15.6157 9.26816 15.5757C9.29815 15.5457 9.36813 15.5156 9.41811 15.5156C10.3278 15.3155 10.4677 15.1855 10.7776 14.7653C10.7776 14.7532 10.785 14.7447 10.793 14.7355C10.7982 14.7295 10.8037 14.7232 10.8076 14.7153C10.8576 14.6652 10.9076 14.6052 10.9676 14.5252L11.0276 14.4351C11.1775 14.255 11.2675 14.225 11.4574 14.2951C11.5874 14.3551 11.7173 14.4852 11.7873 14.6852V14.7353L11.7894 14.7541C11.7996 14.8417 11.8125 14.9529 11.7473 15.0554V15.0654C11.3374 15.6457 10.7576 15.9458 10.0779 15.9458V15.9558C9.83794 15.9558 9.60585 15.9084 9.41683 15.8697Z" fill="white" stroke="white" stroke-width="0.2" stroke-miterlimit="10"/>
<path fill-rule="evenodd" clip-rule="evenodd" d="M17.2454 10.6333C17.2387 10.56 17.2311 10.4866 17.2234 10.4132C17.1967 10.1564 17.1699 9.89965 17.1854 9.64287C17.2054 9.2927 17.2354 9.01257 17.2854 8.73244L17.2951 8.66187C17.3215 8.47079 17.3454 8.2984 17.3454 8.10214C17.1954 8.08213 17.0655 8.08213 16.9355 8.08213C16.4457 8.08213 16.1058 8.18218 15.9459 8.41229C15.7559 8.69242 15.7859 9.26269 16.0458 9.98303C16.3057 10.6934 16.6756 11.4137 16.9355 11.8739C17.0085 12.0144 17.0657 12.1169 17.1107 12.1976C17.1458 12.2606 17.1735 12.3103 17.1954 12.3541C17.3735 11.8383 17.3143 11.2962 17.2568 10.7688L17.2454 10.6633V10.6333ZM16.9555 8.8625C16.8955 8.93253 16.7656 9.04258 16.5856 9.0826H16.5257C16.4157 9.0826 16.2957 9.05259 16.1858 8.96255C16.0758 8.89251 15.9958 8.78246 15.9958 8.68242C15.9659 8.46231 16.2258 8.32225 16.5157 8.28223C16.5407 8.28223 16.5681 8.27723 16.5956 8.27222C16.6231 8.26722 16.6506 8.26222 16.6756 8.26222C16.8855 8.26222 17.0855 8.33225 17.1155 8.53235C17.1354 8.66241 17.0155 8.81248 16.9655 8.8625H16.9555Z" fill="white" stroke="white" stroke-width="0.2" stroke-miterlimit="10"/>
<path d="M17.0955 13.6848L17.0655 13.6548L17.0455 13.6447C16.8855 13.4347 16.6456 13.1145 16.4657 12.6543C16.4357 12.6043 16.3657 12.4742 16.2857 12.3241L16.2557 12.2541C15.9958 11.8039 15.576 11.0435 15.3161 10.2432C14.9362 9.21267 14.9362 8.46232 15.2961 7.95208C15.656 7.44184 16.2957 7.22174 17.2154 7.29177C17.0855 6.94161 16.7956 6.31131 16.2458 5.63099C15.566 4.8006 14.3464 3.81014 12.4471 3.79013H12.3671C11.4574 3.79013 10.6977 4.07026 10.1279 4.67054C9.28816 5.55095 8.99826 6.91159 8.89829 7.77199C9.17819 7.64193 9.64803 7.44184 10.1679 7.37181C11.1275 7.28176 11.7773 7.73198 11.9572 8.61239C12.4371 10.8835 11.9972 11.8939 11.6773 12.6243C11.6398 12.7182 11.6062 12.7965 11.574 12.8713C11.5548 12.916 11.5361 12.9596 11.5174 13.0044L11.4874 13.1045C11.4174 13.2846 11.3574 13.4447 11.3075 13.6147C11.4638 13.6147 11.5976 13.6676 11.6824 13.7012C11.6951 13.7062 11.7069 13.7109 11.7173 13.7148C12.0272 13.8548 12.2671 14.155 12.3671 14.5152C12.3871 14.5652 12.4171 14.6852 12.4171 14.6852V14.8053C12.3671 16.9963 12.4471 19.0373 12.607 19.4675C12.8969 20.2178 13.3068 20.668 14.3264 20.4479C15.396 20.2178 15.7659 19.8377 15.9459 18.7772C16.0758 17.9468 16.3657 15.5556 16.3957 15.0454C16.3457 14.135 16.7856 13.8348 17.0955 13.6848Z" fill="white" stroke="white" stroke-width="0.2" stroke-miterlimit="10"/>
<path fill-rule="evenodd" clip-rule="evenodd" d="M11.2175 8.79247C11.1375 8.44231 10.9776 8.26223 10.6977 8.19219C10.0479 8.02211 9.1582 8.50234 8.87829 8.70243V8.80248C8.90828 9.2827 8.95827 10.1431 8.81831 11.1536C8.73834 11.8339 8.92828 12.4842 9.36812 12.9444C9.68801 13.2946 10.0979 13.4947 10.5377 13.5247C10.5772 13.3797 10.6298 13.239 10.6839 13.0941C10.7119 13.0191 10.7404 12.9429 10.7676 12.8644L10.8176 12.7343C10.8313 12.6987 10.845 12.6624 10.8589 12.6255C10.8957 12.5276 10.934 12.4259 10.9776 12.3241C11.2875 11.6438 11.6473 10.8134 11.2175 8.79247ZM10.8876 9.09261C10.7776 9.17265 10.6577 9.21267 10.5277 9.21267H10.4478C10.2878 9.19266 10.1079 9.08261 9.99791 8.93254C9.91793 8.81248 9.88794 8.71244 9.89794 8.62239C9.89794 8.59238 9.91793 8.49233 10.0079 8.4223C10.1179 8.34226 10.3178 8.30224 10.5577 8.34226C10.6877 8.36227 10.7976 8.39229 10.8976 8.46232C11.1075 8.58237 11.1075 8.74245 11.1075 8.79247C11.0875 8.96255 10.9276 9.0726 10.8776 9.10262L10.8876 9.09261Z" fill="white" stroke="white" stroke-width="0.2" stroke-miterlimit="10"/>
<path d="M6.89898 15.5957C6.92897 15.6157 6.96896 15.6157 7.01894 15.6157L6.99894 15.6057C7.1389 15.6057 7.34882 15.5456 7.62873 15.2155C8.15969 14.5815 8.63857 14.0258 8.9036 13.7182C8.92299 13.6957 8.94123 13.6745 8.95827 13.6548C8.98826 13.6247 8.95827 13.5447 8.95827 13.5447L8.8583 13.4447C8.26851 12.8144 8.0086 11.964 8.11856 11.0635C8.22852 10.2332 8.19853 9.45279 8.17854 8.99257V8.85251C8.15854 8.74246 8.15854 8.64241 8.15854 8.57238C8.15854 7.92207 8.25851 5.70103 9.53807 4.29037C9.55806 4.27036 9.55806 4.24035 9.55806 4.21033C9.55806 4.18032 9.53807 4.1503 9.50808 4.1503C9.1482 4.03025 8.17854 3.75012 7.14889 3.75012C6.32918 3.75012 5.65941 3.9402 5.15958 4.30037C4.31987 4.92066 3.93001 6.0612 4.00998 7.69196C4.04996 8.22221 4.36985 10.0931 4.90967 11.9239C5.55944 14.0449 6.27919 15.3856 6.87899 15.5957H6.89898Z" fill="white" stroke="white" stroke-width="0.2" stroke-miterlimit="10"/>
</svg>
