<svg width="24" height="25" viewBox="0 0 24 25" fill="none" xmlns="http://www.w3.org/2000/svg">
<path d="M15.09 18.93C14.93 18.93 14.76 18.9 14.64 18.87C14.6 18.87 14.58 18.84 14.57 18.8C14.56 18.77 14.57 18.73 14.6 18.7C14.62 18.68 14.66 18.66 14.69 18.66C15.25 18.54 15.34 18.46 15.53 18.21C15.53 18.21 15.54 18.19 15.55 18.18C15.58 18.15 15.61 18.11 15.65 18.07L15.69 18.02C15.78 17.91 15.84 17.89 15.95 17.94C16.03 17.98 16.11 18.05 16.15 18.18C16.15 18.19 16.15 18.2 16.15 18.21C16.15 18.26 16.17 18.33 16.13 18.4C15.88 18.75 15.52 18.93 15.1 18.93H15.09Z" fill="white"/>
<path d="M19.82 18.47C19.6 18.47 19.48 18.44 19.43 18.42C19.39 18.41 19.36 18.37 19.36 18.33C19.36 18.01 19.47 17.94 19.64 17.89C19.67 17.87 19.73 17.86 19.77 17.89C19.77 17.89 19.78 17.89 19.79 17.9C20 18.04 20.36 18.08 20.87 18.01C20.92 18.01 20.96 18.03 20.98 18.08C20.99 18.13 20.98 18.18 20.93 18.2C20.87 18.23 20.81 18.26 20.74 18.3C20.55 18.39 20.24 18.45 19.92 18.47C19.88 18.47 19.85 18.47 19.81 18.47H19.82Z" fill="white"/>
<path d="M19.96 16.89C19.96 16.89 19.95 16.89 19.94 16.89C19.92 16.89 19.9 16.85 19.91 16.83C20.02 16.43 19.98 16.05 19.93 15.69V15.61C19.91 15.44 19.89 15.28 19.89 15.13C19.89 14.97 19.92 14.82 19.94 14.68V14.65C19.94 14.65 19.94 14.64 19.94 14.63C19.94 14.58 19.95 14.53 19.96 14.49C19.98 14.35 20 14.19 19.99 14.01C19.99 14.01 19.99 14 19.99 13.99C19.99 13.97 19.99 13.94 19.99 13.92C19.97 13.68 19.71 13.01 19.19 12.4C18.89 12.04 18.53 11.76 18.14 11.55C18.12 11.54 18.11 11.52 18.11 11.5C18.11 11.48 18.13 11.46 18.15 11.46C18.39 11.42 18.65 11.4 18.86 11.41C19.79 11.43 20.52 11.78 21.05 12.45C21.26 12.7 21.24 13.47 21 14.4C20.79 15.22 20.43 16.09 19.99 16.85C19.99 16.87 19.96 16.87 19.95 16.87L19.96 16.89Z" fill="white"/>
<path d="M19.51 15.72C19.49 15.52 19.46 15.32 19.47 15.12C19.48 14.91 19.5 14.74 19.53 14.57C19.55 14.44 19.57 14.32 19.57 14.19C19.48 14.18 19.4 14.18 19.32 14.18C19.02 14.18 18.81 14.24 18.71 14.38C18.59 14.55 18.61 14.89 18.77 15.33C18.93 15.76 19.16 16.19 19.32 16.47C19.4 16.62 19.45 16.7 19.48 16.76C19.6 16.43 19.55 16.08 19.51 15.74V15.72ZM19.33 14.65C19.33 14.65 19.21 14.76 19.1 14.78H19.06C18.99 14.78 18.92 14.76 18.85 14.71C18.78 14.67 18.73 14.6 18.73 14.54C18.71 14.41 18.87 14.32 19.05 14.3C19.08 14.3 19.12 14.29 19.15 14.29C19.28 14.29 19.4 14.33 19.42 14.45C19.43 14.53 19.36 14.62 19.33 14.65Z" fill="white"/>
<path d="M19.4 17.54L19.42 17.56C19.23 17.65 18.96 17.83 18.99 18.38C18.97 18.69 18.79 20.13 18.71 20.63C18.6 21.27 18.37 21.5 17.71 21.64C17.08 21.77 16.83 21.5 16.65 21.05C16.55 20.79 16.5 19.56 16.53 18.24V18.17C16.53 18.17 16.51 18.1 16.5 18.07C16.44 17.85 16.29 17.67 16.1 17.59C16.05 17.57 15.96 17.53 15.85 17.53C15.88 17.43 15.92 17.33 15.96 17.22L15.98 17.16C16.01 17.09 16.04 17.02 16.08 16.93C16.28 16.49 16.55 15.88 16.25 14.51C16.14 13.98 15.74 13.71 15.15 13.76C14.83 13.8 14.54 13.92 14.37 14C14.43 13.48 14.61 12.66 15.13 12.13C15.48 11.77 15.95 11.6 16.51 11.6H16.56C17.73 11.61 18.48 12.21 18.9 12.71C19.24 13.12 19.42 13.5 19.5 13.71C18.93 13.67 18.54 13.8 18.32 14.11C18.1 14.42 18.1 14.87 18.33 15.49C18.49 15.97 18.75 16.43 18.91 16.7L18.93 16.74C18.98 16.83 19.02 16.91 19.04 16.94C19.15 17.22 19.3 17.41 19.4 17.54Z" fill="white"/>
<path d="M15.79 14.61C15.74 14.4 15.64 14.29 15.47 14.25C15.07 14.15 14.52 14.44 14.35 14.56V14.62C14.37 14.91 14.4 15.43 14.31 16.04C14.26 16.45 14.38 16.84 14.65 17.12C14.85 17.33 15.1 17.45 15.37 17.47C15.41 17.34 15.46 17.21 15.51 17.07L15.54 16.99C15.57 16.91 15.6 16.83 15.64 16.74C15.83 16.33 16.05 15.83 15.79 14.61ZM15.59 14.79C15.52 14.84 15.45 14.86 15.37 14.86H15.32C15.22 14.85 15.11 14.78 15.04 14.69C14.99 14.62 14.97 14.56 14.98 14.5C14.98 14.48 14.99 14.42 15.05 14.38C15.12 14.33 15.24 14.31 15.39 14.33C15.47 14.34 15.54 14.36 15.6 14.4C15.73 14.47 15.73 14.57 15.73 14.6C15.72 14.7 15.62 14.77 15.59 14.79Z" fill="white"/>
<path d="M13.2 18.72C13.2 18.72 13.14 18.72 13.13 18.72H13.12C12.75 18.59 12.31 17.79 11.91 16.51C11.58 15.41 11.38 14.28 11.36 13.96C11.31 12.98 11.55 12.29 12.07 11.92C12.38 11.7 12.79 11.59 13.3 11.59C13.94 11.59 14.53 11.76 14.76 11.83C14.78 11.83 14.79 11.85 14.79 11.86C14.79 11.88 14.79 11.89 14.78 11.91C13.99 12.76 13.93 14.1 13.93 14.49C13.93 14.53 13.93 14.59 13.94 14.66V14.74C13.95 15.02 13.97 15.49 13.9 15.99C13.83 16.53 13.99 17.05 14.36 17.43L14.42 17.49C14.42 17.49 14.44 17.54 14.42 17.56C14.26 17.73 13.95 18.09 13.6 18.5C13.43 18.7 13.3 18.74 13.21 18.74L13.2 18.72Z" fill="white"/>
<path d="M11.48 18.5C8.76 18.49 6.16 18.19 4.6 17.8V15H10.48C10.39 14.59 10.31 14.31 10.33 13.88C10.35 13.22 10.38 13.14 10.39 13H4.6V10H20.6V4.5C20.6 3.4 16.6 2.5 11.6 2.5C6.6 2.5 2.6 3.4 2.6 4.5V18.5C2.6 19.6 6.6 20.5 11.6 20.5C12.07 20.5 12.52 20.49 12.96 20.47C12.25 20.15 11.82 19.35 11.48 18.49V18.5ZM4.6 5.2C6.2 4.8 8.8 4.5 11.6 4.5C14.4 4.5 17 4.8 18.6 5.2V8H4.6V5.2Z" fill="white"/>
</svg>
