<svg width="24" height="25" viewBox="0 0 24 25" fill="none" xmlns="http://www.w3.org/2000/svg">
<path fill-rule="evenodd" clip-rule="evenodd" d="M6.13552 4.42188C5.66559 4.42188 5.25905 4.74909 5.15862 5.20818L2.01645 19.5723C1.92095 20.0088 2.2534 20.4219 2.70028 20.4219H17.7852C18.3021 20.4219 18.7493 20.0619 18.8598 19.5569L21.9848 5.27147C22.0803 4.83491 21.7478 4.42188 21.301 4.42188H6.13552ZM8.33455 6.66574C8.69694 6.32553 9.26651 6.34352 9.60671 6.70591L14.2067 11.6059C14.3834 11.7941 14.4707 12.0491 14.4466 12.306C14.4225 12.563 14.2891 12.7973 14.0805 12.9493L7.08055 18.0493C6.67881 18.342 6.11586 18.2536 5.82316 17.8519C5.53047 17.4501 5.61886 16.8872 6.0206 16.5945L12.1967 12.0947L8.29438 7.9379C7.95418 7.57551 7.97216 7.00594 8.33455 6.66574ZM11.4506 17.1719C11.4506 16.7301 11.8087 16.3719 12.2506 16.3719H15.8C16.2418 16.3719 16.6 16.7301 16.6 17.1719C16.6 17.6137 16.2418 17.9719 15.8 17.9719H12.2506C11.8087 17.9719 11.4506 17.6137 11.4506 17.1719Z" fill="white"/>
</svg>
