<?xml version="1.0" encoding="UTF-8"?>
<svg width="24px" height="24px" viewBox="0 0 24 24" version="1.1" xmlns="http://www.w3.org/2000/svg" xmlns:xlink="http://www.w3.org/1999/xlink">
    <title>Icons/Full Set/Snappable/Pure-Storage</title>
    <g id="Icons/Full-Set/Snappable/Pure-Storage" stroke="none" stroke-width="1" fill="none" fill-rule="evenodd">
        <path d="M12.58625,20.1321 L8.59325,20.1321 C7.79325,20.1321 7.05325,19.7051 6.65325,19.0121 L3.30525,13.2141 C2.89825,12.5061 2.89825,11.6261 3.30525,10.9191 L6.65325,5.1201 C7.05425,4.4261 7.79425,3.9991 8.59425,3.9991 L15.32125,3.9991 C16.12225,3.9991 16.86125,4.4261 17.26125,5.1201 L20.60925,10.9181 C21.01825,11.6251 21.01825,12.5061 20.60925,13.2141 L19.74725,14.5871 C19.34625,15.2831 18.58525,15.7221 17.76625,15.7221 L13.80025,15.7221 L15.96825,12.0631 L13.96325,8.5911 L9.95125,8.5911 L7.94425,12.0661 L12.58625,20.1321" id="Fill-1" fill="#273637"></path>
    </g>
</svg>