<?xml version="1.0" encoding="UTF-8"?>
<svg width="24px" height="24px" viewBox="0 0 24 24" version="1.1" xmlns="http://www.w3.org/2000/svg" xmlns:xlink="http://www.w3.org/1999/xlink">
    <title>Icons/Full Set/Snappable/Qumolo</title>
    <g id="Icons/Full-Set/Snappable/Qumolo" stroke="none" stroke-width="1" fill="none" fill-rule="evenodd">
        <path d="M14.38,14.26 L14.38,16.5799 C14.38,17.4399 15.08,18.1299 15.93,18.1299 L17.41,18.1299 C17.87,18.1299 18.25,18.5099 18.25,18.9799 L18.25,21.1499 C18.25,21.6199 17.87,21.9999 17.41,21.9999 L15.38,21.9999 C14.828,21.9999 14.38,21.5519 14.38,20.9999 L14.38,19.5899 C14.38,18.7899 13.73,18.1299 12.92,18.1299 L8,18.1299 C6.896,18.1299 6,17.2349 6,16.1299 L6,11.7399 C6,10.6359 6.896,9.7399 8,9.7399 L9.87,9.74 L9.87,7.42 C9.87,6.56 9.17,5.87 8.32,5.87 L6.84,5.87 C6.38,5.87 6,5.49 6,5.02 L6,3 C6,2.45 6.45,2 7,2 L8.87,2 C9.422,2 9.87,2.448 9.87,3 L9.87,4.41 C9.87,5.21 10.52,5.87 11.33,5.87 L16.25,5.87 C17.355,5.87 18.25,6.766 18.25,7.87 L18.25,12.26 C18.25,13.365 17.355,14.26 16.25,14.26 L14.38,14.26 Z M9.87,12.2599 C9.87,13.3649 10.766,14.2599 11.87,14.2599 L14.38,14.2599 L14.38,11.74 C14.38,10.636 13.485,9.74 12.38,9.74 L9.87,9.7399 L9.87,12.2599 Z" id="Combined-Shape" fill="#273637"></path>
    </g>
</svg>