<?xml version="1.0" encoding="UTF-8"?>
<svg width="24px" height="24px" viewBox="0 0 24 24" version="1.1" xmlns="http://www.w3.org/2000/svg" xmlns:xlink="http://www.w3.org/1999/xlink">
    <title>Icons/Full Set/Snappable/SAP Hana</title>
    <g id="Icons/Full-Set/Snappable/SAP-Hana" stroke="none" stroke-width="1" fill="none" fill-rule="evenodd">
        <path d="M21.9997,6.9998 L14.6117,16.9998 L2.9997,16.9998 L2.9997,6.9998 L21.9997,6.9998 Z M6.1657,9.0988 C5.5047,9.0988 4.9857,9.2448 4.6067,9.5348 C4.2287,9.8258 4.0387,10.2318 4.0387,10.7508 C4.0387,11.0288 4.0837,11.2698 4.1727,11.4728 C4.2617,11.6758 4.3977,11.8568 4.5817,12.0138 C4.7657,12.1708 5.0417,12.3328 5.4097,12.4998 C5.8167,12.6828 6.0667,12.8038 6.1597,12.8628 C6.2547,12.9218 6.3227,12.9808 6.3657,13.0378 C6.4077,13.0958 6.4287,13.1638 6.4287,13.2408 C6.4287,13.3648 6.3757,13.4658 6.2707,13.5438 C6.1647,13.6228 5.9987,13.6618 5.7727,13.6618 C5.5097,13.6618 5.2217,13.6198 4.9087,13.5358 C4.5937,13.4528 4.2917,13.3368 4.0007,13.1868 L4.0007,13.1868 L4.0007,14.5458 C4.2767,14.6768 4.5407,14.7688 4.7957,14.8218 C5.0507,14.8748 5.3667,14.9008 5.7417,14.9008 C6.1927,14.9008 6.5837,14.8258 6.9187,14.6748 C7.2277,14.5358 7.4607,14.3408 7.6357,14.0988 L7.6357,14.0988 L7.3747,14.9008 L9.0507,14.9008 L9.3357,13.8428 L11.1697,13.8428 L11.4477,14.9008 L14.4587,14.9008 L14.4587,13.0288 L14.8877,13.0288 C15.5727,13.0288 16.1007,12.8568 16.4717,12.5128 C16.8437,12.1698 17.0307,11.6828 17.0307,11.0518 C17.0307,10.4788 16.8507,10.0358 16.4927,9.7248 C16.1357,9.4128 15.6007,9.2578 14.8877,9.2578 L14.8877,9.2578 L12.9347,9.2578 L12.8737,14.1678 L11.2507,9.2348 L9.2167,9.2348 L7.9507,13.1298 L7.9507,13.1298 L7.9527,13.1098 C7.9527,12.7288 7.8597,12.4128 7.6697,12.1618 C7.4807,11.9108 7.1427,11.6758 6.6567,11.4578 C6.1497,11.2258 5.8387,11.0668 5.7247,10.9788 C5.6097,10.8918 5.5527,10.7928 5.5527,10.6818 C5.5527,10.5788 5.5977,10.4928 5.6877,10.4238 C5.7777,10.3538 5.9217,10.3188 6.1197,10.3188 C6.5037,10.3188 6.9587,10.4398 7.4867,10.6818 L7.4867,10.6818 L7.9527,9.5048 C7.3467,9.2348 6.7497,9.0988 6.1657,9.0988 Z M10.2453,10.4888 L10.8533,12.5928 L9.6523,12.5928 L10.2453,10.4888 Z M14.8525,10.4888 C15.2745,10.4888 15.4855,10.6788 15.4855,11.0598 C15.4855,11.2868 15.4175,11.4638 15.2835,11.5928 C15.1485,11.7218 14.9655,11.7858 14.7375,11.7858 L14.7375,11.7858 L14.4585,11.7858 L14.4585,10.4888 Z" id="Combined-Shape" fill="#273637"></path>
    </g>
</svg>
