<svg width="24" height="25" viewBox="0 0 24 25" fill="none" xmlns="http://www.w3.org/2000/svg">
<path fill-rule="evenodd" clip-rule="evenodd" d="M6 3.42188C4.34315 3.42188 3 4.76502 3 6.42188V18.4219C3 20.0787 4.34315 21.4219 6 21.4219H18C19.6569 21.4219 21 20.0787 21 18.4219V6.42188C21 4.76502 19.6569 3.42188 18 3.42188H6ZM7.99011 6.93434V8.91002C7.99011 8.9479 8.01151 8.98253 8.04539 8.99947L14.2112 12.0824C14.2849 12.1192 14.2849 12.2244 14.2112 12.2613L8.04539 15.3442C8.01151 15.3611 7.99011 15.3958 7.99011 15.4336V17.4093C7.99011 17.4838 8.06866 17.5322 8.13517 17.4986L16.4549 13.2996C16.4886 13.2826 16.5099 13.248 16.5099 13.2103V11.1334C16.5099 11.0956 16.4886 11.0611 16.4549 11.0441L8.13517 6.84506C8.06866 6.81149 7.99011 6.85983 7.99011 6.93434Z" fill="white"/>
</svg>
