<svg width="24" height="25" viewBox="0 0 24 25" fill="none" xmlns="http://www.w3.org/2000/svg">
<path d="M2.39059 8.62504C1.79059 8.83754 1.67038 9.58437 1.88279 10.0782C2.75781 11.9532 4.41406 15.6094 4.56249 15.9063C4.84356 16.4685 5.40624 16.7501 5.92186 16.7501C6.67187 16.7501 7.03124 16.2136 7.15624 15.9063L9.65624 10.7188C9.69141 10.6407 9.78124 10.3907 10.0312 10.3907C10.2812 10.3907 10.4181 10.6016 10.4141 10.8594C10.388 12.5001 10.4141 15.3204 10.4141 15.5547C10.4141 16.0704 10.8672 16.7579 11.5703 16.7579C12.1484 16.7579 12.745 16.2814 12.7422 15.5001C12.737 14.0417 12.7422 11.7032 12.7422 11.4922C12.7422 11.2813 12.9687 10.3907 13.9531 10.3907C14.7406 10.3907 15.1641 11.0703 15.1641 11.5626V15.6563C15.1641 16.0469 15.5156 16.7501 16.3906 16.7501C17.0906 16.7501 17.5078 16.0626 17.5078 15.6172C17.5026 14.2579 17.4766 11.9141 17.4766 11.6094C17.4766 11.1719 17.875 10.3751 18.7656 10.3907C19.4781 10.4032 19.9667 11.0703 19.9688 11.6485C19.974 13.1016 19.9688 15.3126 19.9688 15.6563C19.9688 16.0001 20.2344 16.7501 21.1562 16.7501C21.8832 16.7501 22.2019 16.0764 22.2638 15.7748C22.2651 15.7686 22.2656 15.7625 22.2656 15.7561V10.8204C22.2656 10.3907 21.8542 9.6615 21.7187 9.53128C19.9536 7.74179 17.8773 8.71158 16.9907 9.47065C16.9511 9.50451 16.8917 9.50293 16.853 9.46809C14.9919 7.79235 13.0639 8.70946 12.2417 9.45099C12.1959 9.49227 12.1239 9.48522 12.0863 9.43643C11.2254 8.32086 9.93306 8.47212 9.20311 8.59378C8.64358 8.68703 8.07219 9.16282 7.84382 9.6807L6.01407 13.83C5.97889 13.9098 5.86602 13.9105 5.83134 13.8304C5.11846 12.1857 3.8265 9.17599 3.71874 8.98442C3.57811 8.73442 3.14059 8.35942 2.39059 8.62504Z" fill="white"/>
</svg>
