<svg width="24" height="24" viewBox="0 0 24 24" fill="none" xmlns="http://www.w3.org/2000/svg">
<path fill-rule="evenodd" clip-rule="evenodd" d="M21.5022 15.45L19.6322 18.64C19.3522 19 18.8922 19.18 18.4222 19L16.4622 18.18C15.8922 18.55 15.2422 18.91 14.5922 19.18L14.4022 21.18C14.3022 21.64 13.9322 22 13.4622 22H11.6422V20.27H12.5322L12.7222 18.45C12.7222 18.09 13.0022 17.73 13.3722 17.64C14.2122 17.36 14.9622 16.91 15.6122 16.36C15.8922 16.09 16.2722 16 16.6422 16.18L18.3322 16.91L19.3522 15.18L17.8622 14.18C17.5822 14 17.3922 13.64 17.4822 13.27C17.5022 13.21 17.5122 13.14 17.5222 13.08C17.6022 12.71 17.6722 12.39 17.6722 12C17.6722 11.61 17.6022 11.29 17.5222 10.92C17.5122 10.86 17.5022 10.79 17.4822 10.73C17.4822 10.36 17.5822 10 17.9522 9.82L19.4522 8.82L18.4222 7.09L16.7422 7.82C16.3622 7.91 15.9922 7.91 15.7122 7.64C15.0522 7 14.3022 6.64 13.4622 6.36C13.0922 6.18 12.8122 5.91 12.8122 5.55L12.6222 3.73H11.6422V2H13.4622C13.9322 2 14.3022 2.36 14.4022 2.82L14.5922 4.82C15.2422 5.09 15.8922 5.45 16.4622 5.91L18.3322 5.09C18.7922 4.91 19.2622 5.09 19.5422 5.45L21.4122 8.64C21.6022 9 21.5022 9.55 21.1322 9.82L19.4522 11C19.5422 11.27 19.5422 11.64 19.5422 12C19.5422 12.27 19.5422 12.64 19.4522 13L21.2222 14.27C21.6022 14.55 21.7922 15.09 21.5022 15.45Z" fill="white"/>
<path d="M11.1422 16.38C8.73218 16.38 6.76218 14.42 6.76218 12C6.76218 9.58 8.72218 7.62 11.1422 7.62C13.5622 7.62 15.5222 9.58 15.5222 12C15.5222 14.42 13.5622 16.38 11.1422 16.38ZM11.1422 9.37C9.69218 9.37 8.51218 10.55 8.51218 12C8.51218 13.45 9.69218 14.63 11.1422 14.63C12.5922 14.63 13.7722 13.45 13.7722 12C13.7722 10.55 12.5922 9.37 11.1422 9.37Z" fill="white"/>
<path d="M5.12218 19.21C4.86218 19.21 4.59218 19.11 4.39218 18.9C3.30218 17.74 2.49218 16.33 2.04218 14.81C1.88218 14.28 2.19218 13.72 2.72218 13.57C3.25218 13.41 3.81218 13.72 3.96218 14.25C4.32218 15.47 4.97218 16.6 5.84218 17.52C6.22218 17.92 6.20218 18.55 5.80218 18.93C5.61218 19.11 5.36218 19.2 5.11218 19.2L5.12218 19.21Z" fill="white"/>
<path d="M2.72218 10.42C2.19218 10.26 1.89218 9.71 2.04218 9.18C2.49218 7.66 3.31218 6.25 4.40218 5.1C4.78218 4.7 5.41218 4.69 5.81218 5.07C6.21218 5.45 6.23218 6.08 5.84218 6.48C4.96218 7.4 4.31218 8.53 3.95218 9.75C3.82218 10.19 3.42218 10.47 2.99218 10.47C2.90218 10.47 2.80218 10.46 2.71218 10.43L2.72218 10.42Z" fill="white"/>
<path d="M12.2022 3.73H10.0822C9.60218 3.73 9.21218 3.34 9.21218 2.86C9.21218 2.38 9.60218 2 10.0722 2H12.1922C12.6722 2 13.0622 2.39 13.0622 2.87C13.0622 3.35 12.6722 3.74 12.1922 3.74L12.2022 3.73Z" fill="white"/>
<path d="M12.1922 22H10.0722C9.59218 22 9.20218 21.61 9.20218 21.13C9.20218 20.65 9.59218 20.26 10.0722 20.26H12.1922C12.6722 20.26 13.0622 20.65 13.0622 21.13C13.0622 21.61 12.6722 22 12.1922 22Z" fill="white"/>
</svg>
