<svg width="24" height="24" viewBox="0 0 24 24" fill="none" xmlns="http://www.w3.org/2000/svg">
<path fill-rule="evenodd" clip-rule="evenodd" d="M11.5097 2.12842C11.8142 1.95719 12.1858 1.95719 12.4903 2.12842L20.4903 6.62842C20.8051 6.80554 21 7.13873 21 7.5V16.5C21 16.8613 20.8051 17.1945 20.4903 17.3716L12.4903 21.8716C12.1858 22.0428 11.8142 22.0428 11.5097 21.8716L3.50974 17.3716C3.19486 17.1945 3 16.8613 3 16.5V7.5C3 7.13873 3.19486 6.80554 3.50974 6.62842L11.5097 2.12842ZM5 8.08485V15.9152L12 19.8527L15.0411 18.142L14.3449 16.9645C13.4493 17.2353 12.448 16.8721 11.9514 16.0318L11.6767 15.5669C11.5182 15.2986 11.5749 14.9675 11.7969 14.7675L10.9197 13.2846C10.7791 13.0469 10.8578 12.7402 11.0954 12.5996C11.3331 12.459 11.6397 12.5377 11.7803 12.7754L12.6512 14.2476L13.6507 13.657L12.7797 12.1846C12.6391 11.9469 12.7178 11.6403 12.9554 11.4997C13.1931 11.3591 13.4997 11.4378 13.6403 11.6754L14.5205 13.1634C14.7975 13.0776 15.1035 13.1888 15.2581 13.4505L15.5328 13.9154C16.0272 14.7519 15.866 15.7986 15.2043 16.4531L15.9129 17.6517L19 15.9152V8.08485L12 4.14735L8.99705 5.83651L10.0097 7.536C10.904 7.26355 11.9053 7.62371 12.4041 8.46181L12.6802 8.92584C12.8624 9.23188 12.7636 9.62098 12.4576 9.80312L9.98277 11.2761C9.67673 11.4582 9.28763 11.3595 9.10549 11.0534L8.82931 10.5894C8.33197 9.75379 8.49043 8.70568 9.1514 8.04915L8.1252 6.32692L5 8.08485Z" fill="white"/>
</svg>
