<?xml version="1.0" encoding="UTF-8"?>
<svg width="24px" height="24px" viewBox="0 0 24 24" version="1.1" xmlns="http://www.w3.org/2000/svg" xmlns:xlink="http://www.w3.org/1999/xlink">
    <g stroke="none" stroke-width="1" fill="none" fill-rule="evenodd">
      <path d="M19.499 2.604H7.143c-.535 0-1.034.289-1.301.753L3.199 7.954c-.13.228-.199.487-.199.749v12.366a1.5 1.5 0 001.499 1.499h15.005c.825 0 1.496-.671 1.496-1.496V4.105c0-.828-.674-1.501-1.501-1.501zM19 20.568H5v-11h2.505c.689 0 1.25-.561 1.25-1.249V4.604H19v15.964z" fill="#273637" />
      <path d="M11.646 13.568h4.491a1 1 0 100-2h-4.491a1 1 0 000 2zM11.646 9.441h4.491a1 1 0 100-2h-4.491a1 1 0 000 2zM11.646 17.568h4.491a1 1 0 100-2h-4.491a1 1 0 100 2zM8.535 15.775c-.05-.05-.101-.09-.15-.13-.06-.03-.109-.061-.17-.09-.06-.021-.13-.04-.189-.061a.957.957 0 00-.58.061c-.12.05-.23.13-.32.22-.1.09-.17.2-.22.32-.05.13-.08.26-.08.39s.03.26.08.38.12.23.22.32a.995.995 0 00.7.3c.14 0 .27-.03.39-.08s.23-.12.32-.22a.995.995 0 00.3-.7c0-.13-.03-.26-.08-.39a1.035 1.035 0 00-.221-.32zM7.049 13.292a.995.995 0 00.7.3c.14 0 .27-.03.39-.08s.23-.12.32-.22a.995.995 0 00.3-.7c0-.13-.03-.26-.08-.39-.05-.12-.13-.23-.22-.32-.05-.05-.101-.09-.15-.13-.06-.03-.109-.061-.17-.09-.06-.021-.13-.04-.189-.061a.957.957 0 00-.58.061c-.12.05-.23.13-.32.22-.1.09-.17.2-.22.32-.05.13-.08.26-.08.39s.03.26.08.38.119.23.219.32z" fill="#273637" />
    </g>
</svg>
