<?xml version="1.0" encoding="UTF-8"?>
<svg width="24px" height="24px" viewBox="0 0 24 24" version="1.1" xmlns="http://www.w3.org/2000/svg" xmlns:xlink="http://www.w3.org/1999/xlink">
    <title>Icons/Full Set/General/Automatic</title>
    <g id="Icons/Full-Set/General/Automatic" stroke="none" stroke-width="1" fill="none" fill-rule="evenodd">
        <path d="M5.011,8.136 L5.038,8.165 L6.383,10.017 L6.383,10.017 L6.381,10.023 L7.866,12.068 L6.012,12.068 L6.012,12.068 C6.012,15.381 8.702,18.071 12.01,18.071 C14.2,18.071 16.114,16.888 17.161,15.13 L17.161,15.13 L18.41,16.85 C16.95,18.801 14.629,20.071 12.01,20.071 C7.6,20.071 4.012,16.483 4.012,12.073 L4.012,12.073 L4.012,12.068 L2.157,12.068 L5.011,8.136 Z M12.01,4.074 C16.396,4.074 19.965,7.623 20.005,12 L20.005,12 L21.863,12 L19.017,15.92 C19.015,15.924 19.013,15.929 19.011,15.933 L19.011,15.933 L19.009,15.931 L19.009,15.932 L16.154,12 L18.005,12 C17.965,8.726 15.293,6.074 12.01,6.074 C9.84,6.074 7.941,7.237 6.888,8.967 L6.888,8.967 L5.643,7.252 C7.105,5.326 9.411,4.074 12.01,4.074 Z M12.01,7.766 C12.424,7.766 12.76,8.102 12.76,8.516 L12.76,8.516 L12.76,11.723 L14.744,12.991 C15.094,13.214 15.197,13.677 14.973,14.026 C14.83,14.251 14.588,14.373 14.34,14.373 C14.203,14.373 14.063,14.335 13.938,14.255 L13.938,14.255 L11.26,12.546 L11.26,8.516 C11.26,8.102 11.596,7.766 12.01,7.766 Z" id="Combined-Shape" fill="#273637"></path>
    </g>
</svg>
