<?xml version="1.0" encoding="UTF-8"?>
<svg width="24px" height="24px" viewBox="0 0 24 24" version="1.1" xmlns="http://www.w3.org/2000/svg" xmlns:xlink="http://www.w3.org/1999/xlink">
    <g stroke="none" stroke-width="1" fill="none" fill-rule="evenodd">
        <path d="M12 8.3h-.3L5 6.1c-.4-.1-.7-.5-.7-.9s.3-.8.7-.9l6.7-2c.2-.1.4-.1.6 0l6.5 2c.4.1.7.5.7.9s-.3.8-.7 1l-6.5 2.2c0-.1-.1-.1-.3-.1zM8.7 5.2L12 6.3l3.2-1.1-3.2-1-3.3 1zM10.1 21.8c-.1 0-.2 0-.3-.1l-7.1-2.4c-.5-.1-.7-.5-.7-.9V8.2c0-.3.2-.6.4-.8.2-.2.6-.3.9-.2l7.1 2.3c.4.1.7.5.7.9v10.3c0 .3-.2.6-.4.8-.2.2-.4.3-.6.3zM4 17.7l5.1 1.7v-8.2L4 9.5v8.2zM13.9 21.8c-.2 0-.4-.1-.6-.2-.3-.2-.4-.5-.4-.8V10.5c0-.4.3-.8.7-1l7.1-2.2c.3-.1.6 0 .9.2.3.2.4.5.4.8v10.1c0 .4-.3.8-.7.9l-7.1 2.4c-.1.1-.2.1-.3.1zm1-10.6v8.2l5.1-1.7v-8l-5.1 1.5z" fill="#273637" />
    </g>
</svg>
