<svg width="24" height="25" viewBox="0 0 24 25" fill="none" xmlns="http://www.w3.org/2000/svg">
<path d="M4.25 4.0625C3.97386 4.0625 3.75 4.28636 3.75 4.5625V8.3125H8V4.0625H4.25Z" fill="#273637"/>
<path d="M13.5 4.0625H9.25V8.3125H13.5V4.0625Z" fill="#273637"/>
<path d="M13.5 9.5625H9.25V13.8125H13.5V9.5625Z" fill="#273637"/>
<path d="M12 17.5061C12 18.1408 12.1127 18.7493 12.3191 19.3125H9.25V15.0625H12.6021C12.2176 15.7924 12 16.6238 12 17.5061Z" fill="#273637"/>
<path d="M8 9.5625H3.75V13.8125H8V9.5625Z" fill="#273637"/>
<path d="M8 15.0625H3.75V18.8125C3.75 19.0886 3.97386 19.3125 4.25 19.3125H8V15.0625Z" fill="#273637"/>
<path d="M19 9.5625H14.75V12.8884C15.4933 12.4851 16.3449 12.2561 17.25 12.2561C17.8636 12.2561 18.4526 12.3613 19 12.5548V9.5625Z" fill="#273637"/>
<path d="M18.5 4.0625H14.75V8.3125H19V4.5625C19 4.28636 18.7761 4.0625 18.5 4.0625Z" fill="#273637"/>
<path fill-rule="evenodd" clip-rule="evenodd" d="M21.25 17.5625C21.25 19.7716 19.4591 21.5625 17.25 21.5625C15.0409 21.5625 13.25 19.7716 13.25 17.5625C13.25 15.3534 15.0409 13.5625 17.25 13.5625C19.4591 13.5625 21.25 15.3534 21.25 17.5625ZM20.25 17.5625C20.25 17.8244 20.2164 18.0784 20.1534 18.3206H19.0918C19.163 17.8223 19.1554 17.3345 19.0896 16.8694C19.0859 16.8433 19.0821 16.8174 19.078 16.7915H20.15C20.2152 17.0375 20.25 17.296 20.25 17.5625ZM18.2666 16.7915C18.2782 16.8543 18.2885 16.9176 18.2975 16.9815C18.3578 17.4076 18.3614 17.858 18.2822 18.3206H16.2501C16.1709 17.858 16.1745 17.4076 16.2348 16.9815C16.2438 16.9176 16.2541 16.8543 16.2656 16.7915H18.2666ZM14.3466 18.3206H15.4405C15.3693 17.8223 15.3769 17.3345 15.4427 16.8694C15.4464 16.8433 15.4502 16.8174 15.4543 16.7915H14.35C14.2848 17.0375 14.25 17.296 14.25 17.5625C14.25 17.8244 14.2836 18.0784 14.3466 18.3206ZM18.0397 15.9657H16.4926C16.6958 15.4128 16.9778 14.9315 17.264 14.5625L17.2683 14.5626C17.5545 14.9315 17.8365 15.4128 18.0397 15.9657ZM15.6478 15.9657C15.7854 15.5266 15.9685 15.1211 16.1733 14.7615C15.5652 14.9954 15.0525 15.4217 14.7098 15.9657H15.6478ZM16.219 20.3807C15.9565 19.9712 15.7644 19.5576 15.6315 19.1464H14.7017C15.0529 19.7102 15.5861 20.149 16.219 20.3807ZM16.4807 19.1464C16.652 19.5831 16.907 20.0243 17.2661 20.4603C17.6253 20.0243 17.8803 19.5831 18.0516 19.1464H16.4807ZM18.8845 15.9657H19.7902C19.4553 15.4341 18.9582 15.015 18.3683 14.7778C18.5694 15.1334 18.749 15.5333 18.8845 15.9657ZM18.3234 20.3648C18.9378 20.1293 19.455 19.6976 19.7983 19.1464H18.9008C18.7697 19.5522 18.5807 19.9605 18.3234 20.3648Z" fill="#273637"/>
</svg>
