<svg width="24" height="25" viewBox="0 0 24 25" fill="none" xmlns="http://www.w3.org/2000/svg">
<path d="M3.5 3.9125C3.22386 3.9125 3 4.13636 3 4.4125V8.1625H7.25V3.9125H3.5Z" fill="#273637"/>
<path d="M12.75 3.9125H8.5V8.1625H12.75V3.9125Z" fill="#273637"/>
<path d="M12.75 9.4125H8.5V13.6625H12.75V9.4125Z" fill="#273637"/>
<path d="M12.75 14.9125H8.5V19.1625H12.75V14.9125Z" fill="#273637"/>
<path d="M7.25 9.4125H3V13.6625H7.25V9.4125Z" fill="#273637"/>
<path d="M7.25 14.9125H3V18.6625C3 18.9386 3.22386 19.1625 3.5 19.1625H7.25V14.9125Z" fill="#273637"/>
<path d="M18.25 9.4125H14V13.466L18.25 11.0966V9.4125Z" fill="#273637"/>
<path d="M17.75 3.9125H14V8.1625H18.25V4.4125C18.25 4.13636 18.0261 3.9125 17.75 3.9125Z" fill="#273637"/>
<path fill-rule="evenodd" clip-rule="evenodd" d="M18.4961 12.9902C18.193 12.8203 17.8234 12.8199 17.52 12.9892L14.5127 14.6672C14.1962 14.8439 14 15.178 14 15.5405V19.0244C14 19.3857 14.1949 19.7189 14.5098 19.896L17.517 21.5873C17.822 21.7588 18.1944 21.7584 18.4991 21.5863L21.4919 19.8957C21.8058 19.7183 22 19.3856 22 19.025V15.5399C22 15.178 21.8045 14.8444 21.4889 14.6675L18.4961 12.9902ZM18.0313 16.8137L15.4019 15.3162L18.0072 13.8625L20.6311 15.3331L18.0313 16.8137ZM15 16.008L17.223 17.274L15 18.54V16.008ZM18.4 17.9443V20.4938L20.6474 19.2242L18.4 17.9443ZM17.6 20.4867V17.9799L15.3854 19.2411L17.6 20.4867ZM18.8395 17.274L21 18.5044V16.0436L18.8395 17.274Z" fill="#273637"/>
</svg>
