<svg width="24" height="24" viewBox="0 0 24 24" fill="none" xmlns="http://www.w3.org/2000/svg">
<path fill-rule="evenodd" clip-rule="evenodd" d="M3 5.5C3 4.67157 3.67157 4 4.5 4H19.5C20.3284 4 21 4.67157 21 5.5V18.5C21 19.3284 20.3284 20 19.5 20H4.5C3.67157 20 3 19.3284 3 18.5V5.5ZM5 18V7.6H19V18H5Z" fill="#273637"/>
<path d="M6.5 12.7C6.5 12.4791 6.67909 12.3 6.9 12.3H17.1C17.3209 12.3 17.5 12.4791 17.5 12.7V13.4C17.5 13.6209 17.3209 13.8 17.1 13.8H6.9C6.67909 13.8 6.5 13.6209 6.5 13.4V12.7Z" fill="#273637"/>
<path d="M6.5 15.5C6.5 15.2791 6.67909 15.1 6.9 15.1H17.1C17.3209 15.1 17.5 15.2791 17.5 15.5V16.2C17.5 16.4209 17.3209 16.6 17.1 16.6H6.9C6.67909 16.6 6.5 16.4209 6.5 16.2V15.5Z" fill="#273637"/>
<path d="M6.5 9.9C6.5 9.67909 6.67909 9.5 6.9 9.5H17.1C17.3209 9.5 17.5 9.67909 17.5 9.9V10.6C17.5 10.8209 17.3209 11 17.1 11H6.9C6.67909 11 6.5 10.8209 6.5 10.6V9.9Z" fill="#273637"/>
</svg>
