<?xml version="1.0" encoding="UTF-8"?>
<svg width="24px" height="24px" viewBox="0 0 24 24" version="1.1" xmlns="http://www.w3.org/2000/svg" xmlns:xlink="http://www.w3.org/1999/xlink">
    <title>Icons/Full Set/General/Browse Additional File</title>
    <g id="Icons/Full-Set/General/Browse-Additional-File" stroke="none" stroke-width="1" fill="none" fill-rule="evenodd">
        <path d="M15,10.05 C17.757,10.05 20,12.293 20,15.05 C20,16.068 19.691,17.012 19.167,17.803 L19.167,17.803 L20.707,19.343 C21.098,19.734 21.098,20.366 20.707,20.757 C20.512,20.952 20.256,21.05 20,21.05 C19.744,21.05 19.488,20.952 19.293,20.757 L19.293,20.757 L17.753,19.217 C16.963,19.741 16.018,20.05 15,20.05 C12.243,20.05 10,17.807 10,15.05 C10,12.293 12.243,10.05 15,10.05 Z M10.64,2.9998 C11.13,2.9998 11.61,3.1998 11.96,3.5498 L11.96,3.5498 L14.48,6.0598 L17.12,6.0598 C18.16,6.0598 19,6.8998 19,7.9398 L19,7.9398 L19,10.3898 C18.42,9.8498 17.74,9.4398 17,9.1698 L17,9.1698 L17,8.0598 L5,8.0598 L5,16.9998 L9.02,16.9998 C9.27,17.7398 9.67,18.4198 10.18,18.9998 L10.18,18.9998 L4.88,18.9998 C3.84,18.9998 3,18.1598 3,17.1298 L3,17.1298 L3,4.8798 C3,3.8398 3.84,2.9998 4.88,2.9998 L4.88,2.9998 Z M15,12.05 C13.346,12.05 12,13.396 12,15.05 C12,16.704 13.346,18.05 15,18.05 C16.654,18.05 18,16.704 18,15.05 C18,13.396 16.654,12.05 15,12.05 Z M10.55,4.9598 L5,4.9998 L5,6.0598 L11.65,6.0598 L10.55,4.9598 Z" id="Combined-Shape" fill="#273637"></path>
    </g>
</svg>
