<?xml version="1.0" encoding="utf-8"?>
<!-- Generator: Adobe Illustrator 25.4.1, SVG Export Plug-In . SVG Version: 6.00 Build 0)  -->
<svg version="1.1" id="Layer_1" xmlns="http://www.w3.org/2000/svg" xmlns:xlink="http://www.w3.org/1999/xlink" x="0px" y="0px"
	 viewBox="0 0 24 24" style="enable-background:new 0 0 24 24;" xml:space="preserve">
<style type="text/css">
	.st0{fill-rule:evenodd;clip-rule:evenodd;fill:#273637;}
</style>
<g id="Clusters">
	<g id="Clusters-List-View-1" transform="translate(-922.000000, -139.000000)">
		<path id="Fill-1" class="st0" d="M934.5,157.5h6v-6h-6V157.5z M927.5,157.5h6v-6h-6V157.5z M927.5,150.5h6v-6h-6V150.5z
			 M934.5,150.5h6v-6h-6V150.5z M941.5,142.5h-15c-0.6,0-1,0.4-1,1v15c0,0.6,0.4,1,1,1h15c0.6,0,1-0.4,1-1v-15
			C942.5,142.9,942.1,142.5,941.5,142.5L941.5,142.5z"/>
	</g>
</g>
</svg>
