<svg width="25" height="25" viewBox="0 0 25 25" fill="none" xmlns="http://www.w3.org/2000/svg">
<path d="M13.75 2.75C13.75 3.34469 13.4534 3.87009 13 4.18633V6.00001H15C15.997 5.9999 16.9825 6.21278 17.8906 6.62439C18.7987 7.036 19.6084 7.63685 20.2655 8.38671C20.9225 9.13657 21.4118 10.0181 21.7006 10.9724C21.9894 11.9267 22.071 12.9316 21.94 13.92C21.6793 15.6297 20.8086 17.1872 19.4888 18.3048C18.169 19.4225 16.4893 20.0246 14.76 20H10.54C10.1853 19.9992 9.83389 20.0687 9.5061 20.2042C9.1783 20.3398 8.88055 20.5389 8.63 20.79L6.71 22.71C6.61656 22.8027 6.50574 22.876 6.38391 22.9258C6.26207 22.9755 6.13161 23.0008 6 23C5.92561 23.0005 5.85153 22.9904 5.78 22.97C5.59648 22.9284 5.42736 22.8386 5.29 22.71C5.19627 22.617 5.12188 22.5064 5.07111 22.3846C5.02034 22.2627 4.9942 22.132 4.9942 22C4.9942 21.868 5.02034 21.7373 5.07111 21.6154C5.12188 21.4936 5.19627 21.383 5.29 21.29L7.18 19.4C8.02072 18.5539 9.14846 18.0543 10.34 18H15C15.7 18.0034 16.3928 17.8597 17.0338 17.5784C17.6747 17.2971 18.2494 16.8843 18.7207 16.3668C19.192 15.8493 19.5494 15.2386 19.7698 14.5742C19.9902 13.9098 20.0686 13.2066 20 12.51C19.8398 11.2466 19.2181 10.0871 18.2544 9.25449C17.2908 8.4219 16.0533 7.97508 14.78 8.00001H9.19C7.97191 7.98114 6.78685 8.39637 5.84693 9.17139C4.90701 9.94641 4.27358 11.0306 4.06 12.23C3.90532 13.2161 4.04932 14.226 4.47348 15.1295C4.89764 16.0331 5.58254 16.789 6.44 17.3L5 18.74C4.09777 18.1123 3.35603 17.2809 2.83484 16.3133C2.31365 15.3456 2.02765 14.2688 2 13.17C2.00785 12.2205 2.20264 11.2819 2.57325 10.4077C2.94386 9.53355 3.48303 8.74093 4.15997 8.07513C4.83692 7.40932 5.63838 6.88338 6.51859 6.52733C7.39881 6.17128 8.34053 5.99209 9.29 6.00001H11V4.18633C10.5466 3.87009 10.25 3.34469 10.25 2.75C10.25 1.7835 11.0335 1 12 1C12.9665 1 13.75 1.7835 13.75 2.75Z" fill="white"/>
<path d="M7.75 14.75C8.7165 14.75 9.5 13.9665 9.5 13C9.5 12.0335 8.7165 11.25 7.75 11.25C6.7835 11.25 6 12.0335 6 13C6 13.9665 6.7835 14.75 7.75 14.75Z" fill="white"/>
<path d="M16.25 14.75C17.2165 14.75 18 13.9665 18 13C18 12.0335 17.2165 11.25 16.25 11.25C15.2835 11.25 14.5 12.0335 14.5 13C14.5 13.9665 15.2835 14.75 16.25 14.75Z" fill="white"/>
</svg>
