<?xml version="1.0" encoding="UTF-8"?>
<svg width="24px" height="24px" viewBox="0 0 24 24" version="1.1" xmlns="http://www.w3.org/2000/svg" xmlns:xlink="http://www.w3.org/1999/xlink">
    <title>Icons/Full Set/General/Comment</title>
    <g id="Icons/Full-Set/General/Comment" stroke="none" stroke-width="1" fill="none" fill-rule="evenodd">
        <path d="M12,3.5 C16.963,3.5 21,6.865 21,11.003 C21,15.122 16.997,18.477 12.062,18.505 C9.534,20.315 6.349,20.5 5.152,20.5 C4.876,20.5 4.706,20.49 4.673,20.488 C4.123,20.453 3.706,19.981 3.737,19.432 C3.757,19.088 3.944,18.758 4.239,18.55 C5.461,17.692 5.722,16.76 5.75,16.399 C3.998,14.992 3,13.04 3,11.003 C3,6.865 7.037,3.5 12,3.5 Z M12,5.5 C8.14,5.5 5,7.969 5,11.003 C5,12.513 5.774,13.924 7.178,14.976 C7.182,14.979 7.185,14.983 7.189,14.986 L7.189,14.986 L7.945,15.594 C7.945,15.594 8.164,16.609 7.151,18.325 C7.655,18.24 8.206,18.101 8.762,17.919 C9.512,17.651 10.399,17.22 11.169,16.505 C11.169,16.505 11.456,16.501 11.756,16.497 C11.761,16.497 11.767,16.494 11.772,16.494 L11.772,16.494 L11.808,16.496 C11.936,16.494 12.059,16.493 12.165,16.491 C15.994,16.389 19,13.969 19,11.003 C19,7.969 15.859,5.5 12,5.5 Z M7.9997,10.0025 C8.5517,10.0025 8.9997,10.4505 8.9997,11.0025 C8.9997,11.5545 8.5517,12.0025 7.9997,12.0025 C7.4477,12.0025 6.9997,11.5545 6.9997,11.0025 C6.9997,10.4505 7.4477,10.0025 7.9997,10.0025 Z M11.9997,10.0025 C12.5517,10.0025 12.9997,10.4505 12.9997,11.0025 C12.9997,11.5545 12.5517,12.0025 11.9997,12.0025 C11.4477,12.0025 10.9997,11.5545 10.9997,11.0025 C10.9997,10.4505 11.4477,10.0025 11.9997,10.0025 Z M15.9997,10.0025 C16.5517,10.0025 16.9997,10.4505 16.9997,11.0025 C16.9997,11.5545 16.5517,12.0025 15.9997,12.0025 C15.4477,12.0025 14.9997,11.5545 14.9997,11.0025 C14.9997,10.4505 15.4477,10.0025 15.9997,10.0025 Z" id="Combined-Shape" fill="#273637"></path>
    </g>
</svg>