<svg width="24" height="24" viewBox="0 0 24 24" fill="none" xmlns="http://www.w3.org/2000/svg">
<path d="M8.49287 10.0448C8.49287 9.76866 8.71672 9.54481 8.99287 9.54481H10.9929C11.269 9.54481 11.4929 9.76866 11.4929 10.0448V11.0448C11.4929 11.3209 11.269 11.5448 10.9929 11.5448H8.99287C8.71672 11.5448 8.49287 11.3209 8.49287 11.0448V10.0448Z" fill="black"/>
<path d="M12.9929 10.0448C12.9929 9.76866 13.2167 9.54481 13.4929 9.54481H15.4929C15.769 9.54481 15.9929 9.76866 15.9929 10.0448V11.0448C15.9929 11.3209 15.769 11.5448 15.4929 11.5448H13.4929C13.2167 11.5448 12.9929 11.3209 12.9929 11.0448V10.0448Z" fill="black"/>
<path d="M8.99287 13.0448C8.71672 13.0448 8.49287 13.2687 8.49287 13.5448V14.5448C8.49287 14.821 8.71672 15.0448 8.99287 15.0448H10.9929C11.269 15.0448 11.4929 14.821 11.4929 14.5448V13.5448C11.4929 13.2687 11.269 13.0448 10.9929 13.0448H8.99287Z" fill="black"/>
<path d="M12.9929 13.5448C12.9929 13.2687 13.2167 13.0448 13.4929 13.0448H15.4929C15.769 13.0448 15.9929 13.2687 15.9929 13.5448V14.5448C15.9929 14.821 15.769 15.0448 15.4929 15.0448H13.4929C13.2167 15.0448 12.9929 14.821 12.9929 14.5448V13.5448Z" fill="black"/>
<path d="M8.99287 16.5448C8.71672 16.5448 8.49287 16.7687 8.49287 17.0448V18.0448C8.49287 18.321 8.71672 18.5448 8.99287 18.5448H10.9929C11.269 18.5448 11.4929 18.321 11.4929 18.0448V17.0448C11.4929 16.7687 11.269 16.5448 10.9929 16.5448H8.99287Z" fill="black"/>
<path d="M12.9929 17.0448C12.9929 16.7687 13.2167 16.5448 13.4929 16.5448H15.4929C15.769 16.5448 15.9929 16.7687 15.9929 17.0448V18.0448C15.9929 18.321 15.769 18.5448 15.4929 18.5448H13.4929C13.2167 18.5448 12.9929 18.321 12.9929 18.0448V17.0448Z" fill="black"/>
<path fill-rule="evenodd" clip-rule="evenodd" d="M16.5114 6.53981V3.71162C16.5114 2.80581 15.578 2.20074 14.7511 2.57053L5.77887 6.58285C5.36858 6.70751 5.07 7.08879 5.07 7.53981V20.5398C5.07 21.0921 5.51772 21.5398 6.07 21.5398H17.93C18.4823 21.5398 18.93 21.0921 18.93 20.5398V7.53981C18.93 6.98753 18.4823 6.53981 17.93 6.53981H16.5114ZM15.0114 6.53981V4.09728L9.54949 6.53981H15.0114ZM7.06786 8.03981H17.43V20.0398H7.06786V8.03981Z" fill="black"/>
</svg>
