<svg width="24" height="25" viewBox="0 0 24 25" fill="none" xmlns="http://www.w3.org/2000/svg">
<path fill-rule="evenodd" clip-rule="evenodd" d="M4.45 7.5C5.05 7.5 5.45 7.9 5.45 8.5V11.5H17.05L14.75 9.2C14.35 8.8 14.35 8.2 14.75 7.8C15.15 7.4 15.75 7.4 16.15 7.8L20.25 11.9C20.65 12.3 20.65 12.9 20.25 13.3L16.25 17.3C15.95 17.4 15.65 17.5 15.45 17.5C15.25 17.5 14.95 17.4 14.75 17.2C14.35 16.8 14.35 16.2 14.75 15.8L17.05 13.5H4.45C3.85 13.5 3.45 13.1 3.45 12.5V8.5C3.45 7.9 3.95 7.5 4.45 7.5Z" fill="white"/>
</svg>
