<?xml version="1.0" encoding="UTF-8"?>
<svg width="24px" height="24px" viewBox="0 0 24 24" version="1.1" xmlns="http://www.w3.org/2000/svg" xmlns:xlink="http://www.w3.org/1999/xlink">
    <title>Icons/Full Set/General/Disk</title>
    <g id="Icons/Full-Set/General/Disk" stroke="none" stroke-width="1" fill="none" fill-rule="evenodd">
        <path d="M16.9,2 C17.4,2 17.9,2.3 18.2,2.8 C19,4.05714286 19.5714286,4.95510204 19.9795918,5.6058309 L20.1447135,5.86990455 C20.9222467,7.11785396 20.9929315,7.30400088 20.9993574,7.52992716 L20.9999762,7.5759692 L20.9999762,7.5759692 L21,7.6 L21,20.5 C21,21.3 20.3,22 19.5,22 L19.5,22 L4.5,22 C3.7,22 3,21.3 3,20.5 L3,20.5 L3,3.5 C3,2.7 3.7,2 4.5,2 L4.5,2 Z M16.6,4 L5,4 L5,20 L19,20 L19,7.8 C18.7,7.2 17.6,5.6 16.6,4 L16.6,4 Z M12,6.5 C15,6.5 17.5,9 17.5,12 C17.5,15 15,17.5 12,17.5 C9,17.5 6.5,15 6.5,12 C6.5,9 9,6.5 12,6.5 Z M12,8.1 C9.8,8.1 8.1,9.8 8.1,12 C8.1,14.2 9.9,15.9 12,15.9 C14.1,15.9 15.9,14.2 15.9,12 C15.9,9.8 14.1,8.1 12,8.1 Z M11.3,9.2 C11.5,8.8 12,8.7 12.4,8.9 C12.8,9.1 12.9,9.6 12.7,10 L12.7,10 L12,11.2 L13.4,11.2 C13.7,11.2 13.9,11.4 14.1,11.6 C14.2,11.8 14.2,12.2 14.1,12.4 L14.1,12.4 L12.7,14.8 C12.5,15.1 12.3,15.2 12,15.2 C11.9,15.2 11.7,15.2 11.6,15.1 C11.2,14.9 11.1,14.4 11.3,14 L11.3,14 L12,12.8 L10.6,12.8 C10.3,12.8 10,12.6 9.9,12.4 C9.8,12.2 9.8,11.8 9.9,11.6 L9.9,11.6 Z" id="Combined-Shape" fill="#273637"></path>
    </g>
</svg>
