<svg width="24" height="24" viewBox="0 0 24 24" fill="none" xmlns="http://www.w3.org/2000/svg">
<path fill-rule="evenodd" clip-rule="evenodd" d="M19 9.71V3.42C18.9899 3.04658 18.8371 2.69124 18.5729 2.42709C18.3088 2.16295 17.9534 2.0101 17.58 2H5.87C5.6171 2.01092 5.37122 2.08652 5.15588 2.21958C4.94053 2.35264 4.76291 2.53871 4.64 2.76L2.19 7.13C2.07972 7.33727 2.01494 7.56569 2 7.8V19.58C2.00767 19.9542 2.15973 20.311 2.42439 20.5756C2.68905 20.8403 3.0458 20.9923 3.42 21H17.58C17.9542 20.9923 18.311 20.8403 18.5756 20.5756C18.8403 20.311 18.9923 19.9542 19 19.58V14.4143L20.29 15.7099C20.3834 15.8026 20.4943 15.8759 20.6161 15.9257C20.7379 15.9755 20.8684 16.0007 21 15.9999C21.1316 16.0007 21.2621 15.9755 21.3839 15.9257C21.5057 15.8759 21.6166 15.8026 21.71 15.7099C21.8037 15.617 21.8781 15.5064 21.9289 15.3845C21.9797 15.2627 22.0058 15.132 22.0058 14.9999C22.0058 14.8679 21.9797 14.7372 21.9289 14.6154C21.8781 14.4935 21.8037 14.3829 21.71 14.2899L18.71 11.2899C18.617 11.1962 18.5064 11.1218 18.3846 11.071C18.2627 11.0203 18.132 10.9941 18 10.9941C17.868 10.9941 17.7373 11.0203 17.6154 11.071C17.4936 11.1218 17.383 11.1962 17.29 11.2899L14.29 14.2899C14.1017 14.4782 13.9959 14.7336 13.9959 14.9999C13.9959 15.2662 14.1017 15.5216 14.29 15.7099C14.4783 15.8982 14.7337 16.004 15 16.004C15.2663 16.004 15.5217 15.8982 15.71 15.7099L17.11 14.3038V19.1H3.89V8.65H5.68C5.9798 8.6448 6.26571 8.52271 6.47679 8.30976C6.68787 8.0968 6.80744 7.80983 6.81 7.51V3.9H8.5V5.86011H10.5V7.86011H8.5V9.86011H10.5V11.8601H8.5V16.8601C8.5 17.1253 8.60536 17.3797 8.79289 17.5672C8.98043 17.7548 9.23478 17.8601 9.5 17.8601H11.5C11.7652 17.8601 12.0196 17.7548 12.2071 17.5672C12.3946 17.3797 12.5 17.1253 12.5 16.8601V13.8601H10.5V11.8601H12.5V9.86011H10.5V7.86011H12.5V5.86011H10.5V3.9H17.11V9.66C17.7226 9.43075 18.4004 9.44868 19 9.71ZM9.64645 16.7137C9.74021 16.8074 9.86739 16.8601 10 16.8601H11C11.1326 16.8601 11.2598 16.8074 11.3536 16.7137C11.4473 16.6199 11.5 16.4927 11.5 16.3601C11.5 16.2275 11.4473 16.1003 11.3536 16.0066C11.2598 15.9128 11.1326 15.8601 11 15.8601H10C9.86739 15.8601 9.74021 15.9128 9.64645 16.0066C9.55268 16.1003 9.5 16.2275 9.5 16.3601C9.5 16.4927 9.55268 16.6199 9.64645 16.7137Z" fill="#273637"/>
</svg>
