<svg width="24" height="24" viewBox="0 0 24 24" fill="none" xmlns="http://www.w3.org/2000/svg">
<path d="M13.5648 20.781H3.78646C3.10035 20.781 2.5 20.119 2.5 19.3623V4.4187C2.5 3.66206 3.10035 3 3.78646 3H17.0799C17.766 3 18.3664 3.66206 18.3664 4.4187V9.81607C18.046 9.75128 17.7143 9.71727 17.3747 9.71727C17.1586 9.71727 16.9457 9.73105 16.7369 9.75777V4.8916H4.30105V18.8894H12.5818C12.7694 19.5942 13.1095 20.2371 13.5648 20.781Z" fill="#273637"/>
<path d="M12.4165 16.8087H9.01821C8.50362 16.8087 8.16057 16.4303 8.16057 15.8629C8.16057 15.2954 8.50362 14.9171 9.01821 14.9171H12.4165V16.8087Z" fill="#273637"/>
<path d="M9.01821 12.9309H12.7275C12.9996 12.2039 13.4388 11.5579 13.9984 11.0393H9.01821C8.50362 11.0393 8.16057 11.4176 8.16057 11.9851C8.16057 12.5526 8.50362 12.9309 9.01821 12.9309Z" fill="#273637"/>
<path d="M5.6734 8.58021C5.84493 8.76937 6.01646 8.86395 6.27375 8.86395C6.44528 8.86395 6.70257 8.76937 6.8741 8.58021C6.91698 8.53292 6.93843 8.48563 6.95987 8.43834C6.98131 8.39105 7.00275 8.34376 7.04563 8.29647C7.04563 8.18567 7.07506 8.10732 7.09944 8.04241C7.11668 7.99651 7.1314 7.95733 7.1314 7.91815V7.72899C7.04563 7.63442 7.04563 7.63441 7.04563 7.53983C7.04563 7.49254 7.02419 7.4689 7.00275 7.44525C6.98131 7.42161 6.95987 7.39796 6.95987 7.35067L6.61681 6.97235C6.35952 6.87777 6.10222 6.87777 5.9307 6.97235L5.58764 7.35067C5.58764 7.39796 5.5662 7.42161 5.54476 7.44525C5.52332 7.4689 5.50187 7.49254 5.50187 7.53983C5.45256 7.59422 5.4316 7.61733 5.42269 7.64514C5.41611 7.66569 5.41611 7.6888 5.41611 7.72899V7.91815C5.41611 8.10731 5.50187 8.39105 5.6734 8.58021Z" fill="#273637"/>
<path d="M9.01821 8.86395H14.7644C15.1932 8.86395 15.6221 8.48563 15.6221 7.91815C15.6221 7.35067 15.279 6.97235 14.7644 6.97235H9.01821C8.50362 6.97235 8.16057 7.35067 8.16057 7.91815C8.16057 8.48563 8.50362 8.86395 9.01821 8.86395Z" fill="#273637"/>
<path d="M5.6734 12.5526C5.84493 12.7417 6.01646 12.8363 6.27375 12.8363C6.44528 12.8363 6.70257 12.7417 6.8741 12.5526C6.91698 12.5053 6.93843 12.458 6.95987 12.4107C6.98131 12.3634 7.00275 12.3161 7.04563 12.2688C7.1314 12.1742 7.1314 11.9851 7.1314 11.8905C7.1314 11.7013 7.04563 11.4176 6.8741 11.2284C6.78834 11.1339 6.70257 11.0393 6.61681 11.0393C6.35952 10.9447 6.10222 10.9447 5.9307 11.0393C5.84493 11.0393 5.75917 11.1339 5.6734 11.2284C5.50187 11.4176 5.41611 11.6068 5.41611 11.8905C5.41611 12.0797 5.41611 12.1742 5.50187 12.2688C5.50187 12.3634 5.58764 12.458 5.6734 12.5526Z" fill="#273637"/>
<path d="M6.27375 16.8087C6.01646 16.8087 5.84493 16.7141 5.6734 16.5249C5.50187 16.3358 5.41611 16.1466 5.41611 15.8629C5.41611 15.7683 5.41611 15.5791 5.50187 15.4845C5.50187 15.39 5.58764 15.2954 5.6734 15.2008C6.01646 14.8225 6.53105 14.8225 6.8741 15.2008C6.95987 15.2954 7.04563 15.39 7.04563 15.4845C7.04563 15.5237 7.06035 15.5629 7.07759 15.6088C7.10197 15.6737 7.1314 15.7521 7.1314 15.8629C7.1314 16.1466 7.04563 16.3358 6.8741 16.5249C6.70257 16.7141 6.44528 16.8087 6.27375 16.8087Z" fill="#273637"/>
<path d="M17.5299 16.8821C17.7835 16.8821 17.989 17.0869 17.989 17.3395V18.0255C17.989 18.2781 17.7835 18.4829 17.5299 18.4829C17.2763 18.4829 17.0707 18.2781 17.0707 18.0255V17.3395C17.0707 17.0869 17.2763 16.8821 17.5299 16.8821Z" fill="#273637"/>
<path fill-rule="evenodd" clip-rule="evenodd" d="M20.5908 14.6206C20.6324 13.6676 20.3139 12.7338 19.698 12.0034C19.4103 11.73 19.0696 11.518 18.6968 11.3803C18.324 11.2427 17.9269 11.1823 17.5298 11.203C17.1328 11.1823 16.7357 11.2427 16.3628 11.3803C15.99 11.518 15.6493 11.73 15.3616 12.0034C14.7413 12.7306 14.4261 13.6679 14.4816 14.6206H13.5761V17.0218C13.5386 17.5498 13.615 18.0797 13.8 18.5758C13.9851 19.072 14.2746 19.5229 14.6491 19.8984C15.0236 20.2738 15.4745 20.5651 15.9713 20.7527C16.4682 20.9402 16.9996 21.0197 17.5298 20.9858C18.0631 21.0329 18.6003 20.9626 19.1033 20.7797C19.6062 20.5968 20.0625 20.3058 20.4399 19.9275C20.8173 19.5491 21.1064 19.0927 21.2868 18.5905C21.4672 18.0883 21.5343 17.5528 21.4836 17.0218V14.6206H20.5908ZM16.8618 12.5785C16.6426 12.6505 16.4403 12.7661 16.2672 12.9181C15.8911 13.4127 15.7096 14.0273 15.757 14.646H19.3281C19.3756 14.0273 19.1941 13.4127 18.818 12.9181C18.6448 12.7661 18.4426 12.6505 18.2234 12.5785C18.0042 12.5064 17.7726 12.4793 17.5426 12.4989C17.3126 12.4793 17.081 12.5064 16.8618 12.5785ZM20.1124 18.1052C20.228 17.7563 20.2608 17.3855 20.2082 17.0218V15.8911H14.8515V17.0218C14.8141 17.3825 14.8574 17.747 14.9784 18.089C15.0994 18.4309 15.295 18.742 15.5512 18.9996C15.8073 19.2572 16.1177 19.455 16.4598 19.5787C16.802 19.7025 17.1674 19.7491 17.5298 19.7153C17.8954 19.7642 18.2673 19.728 18.6165 19.6096C18.9656 19.4911 19.2824 19.2936 19.542 19.0326C19.8015 18.7716 19.9968 18.4541 20.1124 18.1052Z" fill="#273637"/>
</svg>
