<?xml version="1.0" encoding="UTF-8"?>
<svg width="24px" height="24px" viewBox="0 0 24 24" version="1.1" xmlns="http://www.w3.org/2000/svg" xmlns:xlink="http://www.w3.org/1999/xlink">
    <g stroke="none" stroke-width="1" fill="none" fill-rule="evenodd">
        <path d="M22 11.2C21.6 6.1 17.3 2 12 2c-5.2 0-9.4 3.9-9.9 9-.1.3-.1.7-.1 1 0 .3 0 .7.1 1 .5 5.1 4.8 9 9.9 9 5.3 0 9.6-4.1 10-9.3V12v-.8zM12 4c4.1 0 7.4 3 7.9 7h-3.7c-.4 0-.8.2-1.1.6L14 13.3l-2.9-4.8c-.3-.3-.7-.5-1.1-.5-.4 0-.8.2-1.1.6L7.4 11H4.1c.5-3.9 3.8-7 7.9-7zm7.9 9c-.5 3.9-3.9 7-7.9 7s-7.4-3.1-7.9-7h3.8c.4 0 .8-.2 1.1-.6l1.1-1.8 2.9 4.8c.2.4.6.6 1.1.6.4 0 .8-.2 1.1-.6l1.6-2.4h3.1z" fill="#273637" />
    </g>
</svg>
