<?xml version="1.0" encoding="UTF-8"?>
<svg width="24px" height="24px" viewBox="0 0 24 24" version="1.1" xmlns="http://www.w3.org/2000/svg" xmlns:xlink="http://www.w3.org/1999/xlink">
    <title>Icons/Full Set/General/Exocompute</title>
    <g id="Icons/Full-Set/General/Exocompute" stroke="none" stroke-width="1" fill="none" fill-rule="evenodd">
        <rect id="Rectangle" x="0" y="0" width="24" height="24"></rect>
        <path d="M11.4,11.7 C11.7,11.5 12.2,11.5 12.6,11.7 L12.6,11.7 L16.1,13.7 C16.5,13.9 16.7,14.3 16.7,14.8 L16.7,14.8 L16.7,18.8 C16.7,19.3 16.5,19.7 16.1,19.9 L16.1,19.9 L12.6,21.9 C12.4,22 12.2,22.1 12,22.1 C11.8,22.1 11.6,22 11.4,21.9 C7.47826087,19.6043478 7.30775047,19.5045369 7.30033698,18.8875894 L7.3,14.8 C7.3,14.3 7.5,13.9 7.9,13.7 L7.9,13.7 Z M12,13.6 L9.3,15.2 L9.3,18.3 C9.8,18.7 10.9,19.4 12,20 L12,20 L14.7,18.4 L14.7,15.2 L12,13.6 Z M10.1,15.7 C10.3,15.4 10.7,15.3 11,15.5 L11,15.5 L12,16.1 L13.2,15.5 C13.5,15.4 13.8,15.5 14,15.8 C14.1,16.1 14,16.5 13.6,16.7 L13.6,16.7 L12.5,17.2 L12.5,18.2 C12.5,18.5 12.2,18.8 11.9,18.8 C11.6,18.8 11.3,18.5 11.3,18.2 L11.3,18.2 L11.3,17.2 L10.3,16.6 C10,16.4 9.9,16 10.1,15.7 Z M6.1,2.3 C6.5,2.1 7,2.1 7.4,2.3 L7.4,2.3 L10.9,4.3 C11.3,4.5 11.5,5 11.5,5.4 L11.5,5.4 L11.5,9.4 C11.5,9.9 11.3,10.3 10.9,10.5 L10.9,10.5 L7.3,12.5 C7.1,12.6 6.9,12.7 6.7,12.7 C6.5,12.7 6.3,12.6 6.1,12.5 C2.17826087,10.2043478 2.00775047,10.1045369 2.00033698,9.48758938 L2,5.4 C2,5 2.2,4.5 2.6,4.3 L2.6,4.3 Z M16.7,2.3 C17,2.1 17.5,2.1 17.9,2.3 L17.9,2.3 L21.4,4.3 C21.8,4.5 22,5 22,5.4 L22,5.4 L22,9.4 C22,9.9 21.8,10.3 21.4,10.5 L21.4,10.5 L17.9,12.5 C17.7,12.6 17.5,12.7 17.3,12.7 C17.1,12.7 16.9,12.6 16.7,12.5 C12.6,10.1 12.6,10.1 12.6,9.4 L12.6,9.4 L12.6,5.4 C12.6,4.9 12.8,4.5 13.2,4.3 L13.2,4.3 Z M6.7,4.2 L4,5.8 L4,8.9 C4.6,9.3 5.7,9.9 6.7,10.6 L6.7,10.6 L9.4,9 L9.4,5.8 L6.7,4.2 Z M17.3,4.2 L14.6,5.8 L14.6,8.9 C15.1,9.3 16.2,10 17.3,10.6 L17.3,10.6 L20,9 L20,5.8 L17.3,4.2 Z M16.3,6 L17.3,6.6 L18.4,6.1 C18.7,6 19,6.1 19.2,6.4 C19.4,6.7 19.2,7.1 18.9,7.4 L18.9,7.4 L17.8,7.9 L17.8,8.9 C17.8,9.2 17.5,9.5 17.2,9.5 C16.9,9.5 16.6,9.2 16.6,8.9 L16.6,8.9 L16.6,7.9 L15.6,7.3 C15.3,7.1 15.2,6.7 15.4,6.4 C15.6,6.1 16,6 16.3,6 L16.3,6 Z M4.9,6.4 C5.1,6.1 5.5,6 5.8,6.1 L5.8,6.1 L6.8,6.7 L7.9,6.2 C8.2,6 8.5,6.1 8.7,6.5 C8.8,6.8 8.7,7.1 8.4,7.3 L8.4,7.3 L7.3,7.8 L7.3,8.8 C7.3,9.1 7,9.4 6.7,9.4 C6.4,9.4 6.1,9.1 6.1,8.8 L6.1,8.8 L6.1,7.8 L5.1,7.2 C4.8,7 4.7,6.7 4.9,6.4 Z" id="Combined-Shape" fill="#273637"></path>
    </g>
</svg>
