<?xml version="1.0" encoding="UTF-8"?>
<svg width="24px" height="24px" viewBox="0 0 24 24" version="1.1" xmlns="http://www.w3.org/2000/svg" xmlns:xlink="http://www.w3.org/1999/xlink">
    <title>Icons/Full Set/General/Globe</title>
    <g id="Icons/Full-Set/General/Globe" stroke="none" stroke-width="1" fill="none" fill-rule="evenodd">
        <path d="M15.7500444,15.9111111 L17.7278222,15.9111111 C16.9585778,17.0384 15.8680889,17.9242667 14.5834667,18.4389333 C14.784,18.1585778 14.9690667,17.8481778 15.1333333,17.5166222 C15.3740444,17.0314667 15.5818667,16.4945778 15.7500444,15.9111111 L15.7500444,15.9111111 Z M12.5333333,15.9111111 L14.6279111,15.9111111 C14.4956444,16.3223111 14.3459556,16.7000889 14.1777778,17.0389333 C13.6997333,18.0032 13.1242667,18.6071111 12.5333333,18.8332444 L12.5333333,15.9111111 Z M9.37226667,15.9111111 L11.4666667,15.9111111 L11.4666667,18.8332444 C10.8759111,18.6069333 10.3004444,18.0032 9.82222222,17.0389333 C9.65422222,16.7000889 9.50453333,16.3223111 9.37226667,15.9111111 L9.37226667,15.9111111 Z M6.27217778,15.9111111 L8.24995556,15.9111111 C8.41831111,16.4945778 8.62595556,17.0314667 8.86666667,17.5166222 C9.03111111,17.8481778 9.216,18.1585778 9.41671111,18.4389333 C8.13191111,17.9242667 7.0416,17.0384 6.27217778,15.9111111 L6.27217778,15.9111111 Z M16.2556444,12.5333333 L18.9111111,12.5333333 C18.8494222,13.3516444 18.648,14.1308444 18.3278222,14.8444444 L16.0055111,14.8444444 C16.1464889,14.1173333 16.2291556,13.3431111 16.2556444,12.5333333 L16.2556444,12.5333333 Z M12.5333333,12.5333333 L15.1889778,12.5333333 C15.1594667,13.3516444 15.0624,14.1317333 14.9111111,14.8444444 L12.5333333,14.8444444 L12.5333333,12.5333333 Z M8.8112,12.5333333 L11.4666667,12.5333333 L11.4666667,14.8444444 L9.08888889,14.8444444 C8.9376,14.1317333 8.84071111,13.3516444 8.8112,12.5333333 L8.8112,12.5333333 Z M5.08888889,12.5333333 L7.74453333,12.5333333 C7.77102222,13.3431111 7.85351111,14.1173333 7.99448889,14.8444444 L5.67217778,14.8444444 C5.35217778,14.1308444 5.15057778,13.3516444 5.08888889,12.5333333 L5.08888889,12.5333333 Z M16.0055111,9.15555556 L18.3223111,9.15555556 C18.6433778,9.86951111 18.8487111,10.6481778 18.9111111,11.4666667 L16.2556444,11.4666667 C16.2288,10.6581333 16.1464889,9.88177778 16.0055111,9.15555556 L16.0055111,9.15555556 Z M12.5333333,9.15555556 L14.9111111,9.15555556 C15.0627556,9.86951111 15.1591111,10.6481778 15.1889778,11.4666667 L12.5333333,11.4666667 L12.5333333,9.15555556 Z M9.08888889,9.15555556 L11.4666667,9.15555556 L11.4666667,11.4666667 L8.8112,11.4666667 C8.84106667,10.6481778 8.93742222,9.86951111 9.08888889,9.15555556 L9.08888889,9.15555556 Z M5.67786667,9.15555556 L7.99448889,9.15555556 C7.85351111,9.88177778 7.7712,10.6581333 7.74453333,11.4666667 L5.08888889,11.4666667 C5.15128889,10.6481778 5.35662222,9.86951111 5.67786667,9.15555556 L5.67786667,9.15555556 Z M14.5834667,5.56675556 C15.8661333,6.08088889 16.9589333,6.96391111 17.7278222,8.08888889 L15.7445333,8.08888889 C15.5765333,7.50808889 15.3731556,6.96675556 15.1333333,6.48337778 C14.9690667,6.152 14.784,5.84728889 14.5834667,5.56675556 L14.5834667,5.56675556 Z M9.41671111,5.56675556 C9.216,5.84728889 9.03111111,6.152 8.86666667,6.48337778 C8.62702222,6.96675556 8.42364444,7.50808889 8.25564444,8.08888889 L6.27217778,8.08888889 C7.04124444,6.96391111 8.13404444,6.08088889 9.41671111,5.56675556 L9.41671111,5.56675556 Z M12.5333333,5.17226667 C13.1240889,5.39733333 13.6999111,5.99182222 14.1777778,6.95555556 C14.3459556,7.2944 14.4956444,7.67733333 14.6279111,8.08888889 L12.5333333,8.08888889 L12.5333333,5.17226667 Z M11.4666667,8.08888889 L9.37226667,8.08888889 C9.50453333,7.67733333 9.65422222,7.2944 9.82222222,6.95555556 C10.3002667,5.99182222 10.8759111,5.39733333 11.4666667,5.17226667 L11.4666667,8.08888889 Z M3,12 C3,16.9634 7.0366,21 12,21 C16.9636,21 21,16.9634 21,12 C21,7.0366 16.9636,3 12,3 C7.0366,3 3,7.0366 3,12 Z" id="Fill-1" fill="#273637"></path>
    </g>
</svg>
