<svg width="24" height="24" viewBox="0 0 24 24" fill="none" xmlns="http://www.w3.org/2000/svg">
<path d="M8 6.09999H5.5C5.09999 6.09999 4.89999 5.79999 4.89999 5.5C4.89999 5.2 5.2 4.89999 5.5 4.89999H7.89999C8.29999 4.89999 8.59999 5.2 8.59999 5.5C8.59999 5.79999 8.29999 6.09999 8 6.09999Z" fill="white"/>
<path d="M5.5 9.60001H8C8.29999 9.60001 8.59999 9.3 8.59999 9C8.59999 8.7 8.29999 8.3 7.89999 8.3H5.5C5.2 8.3 4.89999 8.60001 4.89999 8.90001C4.89999 9.2 5.09999 9.60001 5.5 9.60001Z" fill="white"/>
<path fill-rule="evenodd" clip-rule="evenodd" d="M7.79999 17.3H5.7C5.2 17.3 4.79999 16.9 4.89999 16.5V12.7C4.89999 12.2 5.2 11.8 5.7 11.8H7.79999C8.2 11.8 8.59999 12.2 8.59999 12.7V16.4C8.59999 16.9 8.29999 17.3 7.79999 17.3ZM7.29999 13H6.09999V16H7.29999V13Z" fill="white"/>
<path fill-rule="evenodd" clip-rule="evenodd" d="M10.2 1H3.2C2.60001 1 2 1.5 2 2.2V19.7C2 20.4 2.60001 21 3.2 21H10.2C10.9 21 11.5 20.4 11.5 19.7V2.2C11.4 1.5 10.8 1 10.2 1ZM9.39999 19H4V3H9.39999V19Z" fill="white"/>
<path d="M23 12V16.33H17.79V12.72L23 12Z" fill="white"/>
<path d="M16.65 16.33V12.87L13 13.38V16.33H16.65Z" fill="white"/>
<path d="M16.65 17.47V21.12L13 20.62V17.47H16.65Z" fill="white"/>
<path d="M23 17.47V22L17.79 21.28V17.47H23Z" fill="white"/>
<path d="M16.5 6.2H19C19.3 6.2 19.6 5.89999 19.6 5.60001C19.6 5.3 19.3 5 19 5H16.5C16.2 5 15.9 5.3 15.9 5.60001C15.9 5.89999 16.1 6.2 16.5 6.2Z" fill="white"/>
<path d="M19 9.59999H16.5C16.1 9.59999 15.9 9.29999 15.9 9C15.9 8.7 16.2 8.39999 16.5 8.39999H19C19.3 8.39999 19.6 8.7 19.6 9C19.6 9.29999 19.3 9.59999 19 9.59999Z" fill="white"/>
<path d="M14.29 1H21.29C21.89 1 22.49 1.60001 22.59 2.3V10.44L20.49 10.78V3H15.09V11.66L12.99 12V2.3C12.99 1.60001 13.59 1 14.29 1Z" fill="white"/>
</svg>
