<svg width="24" height="24" viewBox="0 0 24 24" fill="none" xmlns="http://www.w3.org/2000/svg">
<path d="M4.5 7.09999H7C7.29999 7.09999 7.59999 6.79999 7.59999 6.5C7.59999 6.2 7.29999 5.89999 6.89999 5.89999H4.5C4.2 5.89999 3.89999 6.2 3.89999 6.5C3.89999 6.79999 4.09999 7.09999 4.5 7.09999Z" fill="white"/>
<path d="M4.5 10.6H7C7.29999 10.6 7.59999 10.3 7.59999 10C7.59999 9.7 7.29999 9.3 6.89999 9.3H4.5C4.2 9.3 3.89999 9.60001 3.89999 9.90001C3.89999 10.2 4.09999 10.6 4.5 10.6Z" fill="white"/>
<path fill-rule="evenodd" clip-rule="evenodd" d="M6.79999 18.3H4.7C4.2 18.3 3.79999 17.9 3.89999 17.5V13.7C3.89999 13.2 4.2 12.8 4.7 12.8H6.79999C7.2 12.8 7.59999 13.2 7.59999 13.7V17.4C7.59999 17.9 7.29999 18.3 6.79999 18.3ZM6.29999 14H5.09999V17H6.29999V14Z" fill="white"/>
<path fill-rule="evenodd" clip-rule="evenodd" d="M9.2 2H2.2C1.60001 2 1 2.5 1 3.2V20.7C1 21.4 1.60001 22 2.2 22H9.2C9.89999 22 10.5 21.4 10.5 20.7V3.2C10.4 2.5 9.8 2 9.2 2ZM8.39999 20H3V4H8.39999V20Z" fill="white"/>
<path d="M15.5 7.2H18C18.3 7.2 18.6 6.89999 18.6 6.60001C18.6 6.3 18.3 6 18 6H15.5C15.2 6 14.9 6.3 14.9 6.60001C14.9 6.89999 15.1 7.2 15.5 7.2Z" fill="white"/>
<path d="M20.2 2H13.2C12.49 2 11.9 2.58 11.9 3.3V17.9C11.9 18.18 12.29 18.26 12.4 18C12.88 16.83 13.46 15.63 14 14.97V4H19.4V9.07001C19.4 9.21001 19.48 9.36 19.62 9.37C20.6405 9.43495 20.9983 11.2731 21.1245 11.9216C21.1344 11.9721 21.1428 12.0153 21.15 12.05C21.15 12.05 21.34 12.32 21.5 12.02V3.3C21.4 2.60001 20.8 2 20.2 2Z" fill="white"/>
<path d="M14.33 19.01H14.41L14.39 19.03C14.47 19.05 14.55 19.11 14.63 19.2L14.86 19.48C15.01 19.67 15.15 19.87 15.29 20.07L15.54 20.45C15.58 20.5 15.61 20.55 15.64 20.6L15.6933 20.6839C15.8859 20.9873 16.082 21.2962 16.32 21.58L16.4 21.68C16.49 21.82 16.52 21.99 16.52 22.19V22.28C16.52 22.43 16.43 22.55 16.28 22.65L16.2 22.71L16.13 22.78L16.04 22.86C15.84 23 15.62 23.03 15.38 22.97L15.16 22.91L14.94 22.83L14.54 22.68C14.13 22.54 13.72 22.44 13.3 22.36L13.11 22.32C12.98 22.29 12.85 22.25 12.73 22.21L12.64 22.17C12.45 22.07 12.39 21.92 12.44 21.69L12.48 21.46C12.52 21.15 12.51 20.84 12.45 20.52V20.43C12.43 20.19 12.52 20.1 12.79 20.03L12.96 19.98L13.14 19.94L13.26 19.91C13.42 19.86 13.54 19.76 13.64 19.62L13.75 19.47C13.83 19.37 13.9 19.27 13.99 19.18C14.11 19.06 14.22 19 14.33 19.01Z" fill="white"/>
<path d="M19.6 19.4C19.52 19.4 19.52 19.43 19.52 19.59V19.66C19.52 20.2 19.51 20.75 19.43 21.28L19.36 21.69C19.32 21.88 19.3 22.07 19.31 22.26L19.34 22.45C19.4 22.72 19.55 22.89 19.8 22.96L19.91 22.98H20.04L20.17 23C20.42 23 20.65 22.95 20.85 22.81L20.96 22.72C21.33 22.37 21.74 22.09 22.17 21.83L22.49 21.64C22.58 21.59 22.66 21.54 22.74 21.48L22.86 21.39C23.05 21.24 23.05 21.04 22.9 20.89L22.82 20.83C22.73 20.77 22.65 20.73 22.56 20.7C22.49 20.68 22.43 20.65 22.37 20.61L22.26 20.53C22.13 20.41 22.04 20.26 22.03 20.09V19.98C22.04 19.9101 22.03 19.8402 22.02 19.7703L21.99 19.67C21.93 19.54 21.78 19.51 21.68 19.59L21.63 19.64L21.57 19.73L21.51 19.81C21.32 20.03 21.12 20.21 20.83 20.23H20.7C20.41 20.2 20.13 20.03 20.09 19.78V19.69C20.11 19.49 20.09 19.43 19.92 19.42H19.84C19.77 19.42 19.72 19.41 19.67 19.4H19.6Z" fill="white"/>
<path d="M19.19 20.48L19.11 20.96H19.12C19.1024 21.092 19.0867 21.2222 19.0713 21.3503C19.0517 21.5132 19.0324 21.6734 19.01 21.83C18.98 22.02 19 22.25 19.05 22.47C18.5042 22.341 18.0175 22.3597 17.5019 22.3795L17.49 22.38H17.44C17.26 22.39 17.07 22.39 16.88 22.39C17.01 21.99 16.97 21.63 16.75 21.29C17.69 21.4 18.46 21.17 19.19 20.48Z" fill="white"/>
<path d="M19.11 11.14C18.69 10.73 18.22 10.53 17.68 10.53C17.49 10.53 17.29 10.56 17.08 10.61C16.69 10.71 16.35 10.89 16.13 11.24C15.95 11.53 15.81 11.83 15.81 12.16V14.01C15.81 14.63 15.75 15.09 15.56 15.39C15.49 15.5 15.41 15.6 15.33 15.69C15.27 15.76 15.21 15.83 15.16 15.9C14.62 16.63 14.28 17.46 13.96 18.3C13.88 18.52 13.85 18.61 13.92 18.84C14.16 18.68 14.4 18.58 14.62 18.72C14.6 18.63 15.29 19.39 15.52 19.72C15.6724 19.9352 15.7926 20.1101 15.8952 20.2593L15.8973 20.2624L15.93 20.31L15.9836 20.3875C16.1411 20.6153 16.2842 20.8222 16.5 21.11C16.5 21.1 16.56 21.04 16.66 20.95L16.6703 20.9401C17.0976 20.5333 18.1645 19.5174 17.49 19.2C16.81 19.09 16.35 18.96 16.12 18.79C15.89 18.62 15.76 18.38 15.74 18.08C15.66 17.49 15.97 17.02 16.66 16.67C17.59 16.13 16.7 15.05 16.31 14.59C16.26 14.53 16.22 14.48 16.19 14.44C15.97 14.14 15.97 13.88 16.24 13.65C16.31 13.59 16.3 13.55 16.27 13.47C16.16 13.18 16.13 12.88 16.24 12.58C16.33 12.33 16.59 12.26 16.78 12.42C16.91 12.53 17 12.67 17.03 12.85C17.03 12.9 17.03 12.94 17.04 12.99V13.1H17.53V12.98C17.51 12.8 17.57 12.65 17.67 12.51C17.86 12.22 18.29 12.15 18.51 12.4C18.71 12.63 18.83 12.91 18.77 13.22C18.763 13.2759 18.7463 13.3268 18.73 13.3764L18.7296 13.3776C18.7227 13.3986 18.7159 13.4193 18.71 13.44C18.7 13.4799 18.69 13.5201 18.67 13.56C18.8 13.64 18.89 13.75 18.87 13.91C18.87 13.9915 18.8044 14.188 18.7028 14.4919L18.67 14.59C18.5306 15.2771 18.7184 15.7262 18.9471 16.2731L18.95 16.28C19.11 16.66 19.29 17.1 19.39 17.69C19.39 17.6949 19.39 17.7004 19.3902 17.7065C19.3903 17.7116 19.3905 17.7171 19.3909 17.7231C19.392 17.739 19.3945 17.758 19.4 17.78C19.44 18.1 19.55 18.92 20.21 18.48C20.37 18.33 20.45 18.15 20.48 17.97C20.48 17.9088 20.4917 17.8477 20.5017 17.7955C20.5047 17.7794 20.5076 17.7641 20.51 17.75L20.5126 17.7328C20.5512 17.4836 20.5735 17.3389 20.29 16.85C20.27 16.82 20.25 16.7899 20.23 16.75C20.225 16.7415 20.2201 16.7329 20.2152 16.7244L20.2016 16.7006C20.1428 16.5978 20.0863 16.499 20 16.43C20.29 16.58 20.53 16.79 20.71 17.08C21.23 18.04 20.98 18.61 20.65 18.86C20.59 18.91 20.18 19.28 20.48 19.7C20.64 19.84 20.84 19.81 21.02 19.7C21.09 19.66 21.15 19.59 21.22 19.51C21.33 19.38 21.47 19.24 21.65 19.18C21.89 19.11 21.92 18.93 21.94 18.81V18.77C22.01 18.42 21.92 18.09 21.83 17.77C21.62 17.08 21.28 16.46 20.86 15.87C20.845 15.845 20.8275 15.8225 20.81 15.8C20.7926 15.7776 20.775 15.7549 20.76 15.73C20.53 15.41 20.3 15.09 20.11 14.75C19.79 14.19 19.63 13.58 19.64 12.93C19.64 12.7 19.64 12.46 19.59 12.23C19.52 11.82 19.38 11.43 19.07 11.13L19.11 11.14Z" fill="white"/>
<path d="M18.18 12.75H18.25L18.24 12.73C18.28 12.74 18.36 12.8 18.36 12.8L18.42 12.89C18.48 12.98 18.49 13.09 18.49 13.2L18.47 13.29C18.43 13.4 18.34 13.46 18.21 13.51L18.26 13.53C18.27 13.55 18.26 13.56 18.26 13.57C18.25 13.59 18.29 13.63 18.29 13.63L18.34 13.66C18.5 13.78 18.53 14.15 18.1 14.43L17.96 14.53C17.945 14.54 17.93 14.5525 17.915 14.565C17.9 14.5775 17.885 14.59 17.87 14.6L17.8474 14.6189C17.7929 14.6645 17.7326 14.7149 17.68 14.75L17.58 14.83H17.57L17.5519 14.8425C17.4073 14.9422 17.3699 14.968 17.12 14.92L17.08 14.9C17.02 14.86 16.92 14.74 16.82 14.61C16.73 14.5 16.63 14.38 16.56 14.31L16.5 14.24C16.35 14.05 16.35 13.95 16.56 13.77L16.59 13.73C16.63 13.68 16.62 13.61 16.56 13.54L16.49 13.46C16.41 13.35 16.41 13.25 16.42 13.1V13.02C16.44 12.93 16.5 12.86 16.57 12.85H16.63C16.71 12.87 16.79 12.93 16.81 13.03L16.83 13.12C16.8337 13.1347 16.836 13.1481 16.8375 13.1611C16.84 13.1834 16.84 13.2047 16.84 13.23V13.32L16.97 13.28C17.27 13.19 17.57 13.2 17.85 13.38V13.22L17.87 13.06V12.99C17.89 12.89 17.93 12.81 18.04 12.77C18.08 12.75 18.18 12.75 18.18 12.75Z" fill="white"/>
</svg>
