<?xml version="1.0" encoding="UTF-8"?>
<svg width="24px" height="24px" viewBox="0 0 24 24" version="1.1" xmlns="http://www.w3.org/2000/svg" xmlns:xlink="http://www.w3.org/1999/xlink">
    <g stroke="none" stroke-width="1" fill="none" fill-rule="evenodd">
      <path d="M19 17.7v-5.4c0-.7-.6-1.3-1.3-1.3h-5.4c-.7 0-1.3.6-1.3 1.3V14H7v-4h1.7c.7 0 1.3-.6 1.3-1.3V3.2C10 2.5 9.5 2 8.8 2H3.3c-.7 0-1.2.5-1.2 1.2v5.4c0 .7.6 1.3 1.3 1.3h1.7v4.8c0 .7.6 1.2 1.2 1.2h4.8v1.7c0 .7.6 1.3 1.3 1.3h5.4c.7 0 1.2-.5 1.2-1.2zM4.1 4h4v4h-4V4zM17 16.9h-4v-4h4v4z" fill="#273637" />
      <path d="M20.9 14.4c-.6 0-1 .4-1 1v4.5h-4.3c-.6 0-1 .4-1 1s.4 1 1 1h5.1c.7 0 1.3-.6 1.3-1.3v-5.2c-.1-.5-.6-1-1.1-1z" fill="#273637" />
    </g>
</svg>
