<svg width="24" height="24" viewBox="0 0 24 24" fill="none" xmlns="http://www.w3.org/2000/svg">
<path d="M9.1123 2.48885C8.46607 6.39793 6.48776 8.453 2.59027 9.11071C2.46991 9.13102 2.46991 9.35181 2.59027 9.37212C6.48777 10.0298 8.46607 12.0849 9.1123 15.994C9.13221 16.1144 9.35067 16.1144 9.37058 15.994C10.0168 12.0849 11.9951 10.0298 15.8926 9.37212C16.013 9.35181 16.013 9.13102 15.8926 9.11071C11.9951 8.453 10.0168 6.39793 9.37058 2.48885C9.35067 2.36843 9.13221 2.36843 9.1123 2.48885Z" fill="black"/>
<path d="M17.3057 13.1793C16.9297 15.6238 15.7154 16.9188 13.2807 17.3046C13.2205 17.3142 13.2205 17.4213 13.2807 17.4309C15.7154 17.8167 16.9297 19.1117 17.3057 21.5562C17.315 21.6165 17.4205 21.6165 17.4298 21.5562C17.8058 19.1117 19.0201 17.8167 21.4548 17.4309C21.5151 17.4213 21.5151 17.3142 21.4548 17.3046C19.0201 16.9188 17.8058 15.6238 17.4298 13.1793C17.4205 13.1189 17.315 13.1189 17.3057 13.1793Z" fill="black"/>
</svg>
