<svg width="24" height="25" viewBox="0 0 24 25" fill="none" xmlns="http://www.w3.org/2000/svg">
<path d="M16.8705 17.5825H13.0544C12.999 17.5825 12.954 17.6272 12.954 17.6824V19.7414C12.954 19.7966 12.999 19.8413 13.0544 19.8413H16.8705C16.926 19.8413 16.9709 19.7966 16.9709 19.7414V17.6824C16.9709 17.6272 16.926 17.5825 16.8705 17.5825Z" fill="white"/>
<path d="M19.1601 14.9238H15.2939C15.2384 14.9238 15.1934 14.9685 15.1934 15.0237V17.0827C15.1934 17.1379 15.2384 17.1827 15.2939 17.1827H19.1601C19.2156 17.1827 19.2606 17.1379 19.2606 17.0827V15.0237C19.2606 14.9685 19.2156 14.9238 19.1601 14.9238Z" fill="white"/>
<path d="M14.6311 14.9238H13.0544C12.999 14.9238 12.954 14.9685 12.954 15.0237V17.0827C12.954 17.1379 12.999 17.1827 13.0544 17.1827H14.6311C14.6865 17.1827 14.7315 17.1379 14.7315 17.0827V15.0237C14.7315 14.9685 14.6865 14.9238 14.6311 14.9238Z" fill="white"/>
<path d="M21.3996 14.9238H19.8229C19.7675 14.9238 19.7225 14.9685 19.7225 15.0237V17.0827C19.7225 17.1379 19.7675 17.1827 19.8229 17.1827H21.3996C21.455 17.1827 21.5 17.1379 21.5 17.0827V15.0237C21.5 14.9685 21.455 14.9238 21.3996 14.9238Z" fill="white"/>
<path d="M19.1601 20.2411H15.2939C15.2384 20.2411 15.1934 20.2859 15.1934 20.3411V22.4C15.1934 22.4552 15.2384 22.5 15.2939 22.5H19.1601C19.2156 22.5 19.2606 22.4552 19.2606 22.4V20.3411C19.2606 20.2859 19.2156 20.2411 19.1601 20.2411Z" fill="white"/>
<path d="M14.6311 20.2411H13.0544C12.999 20.2411 12.954 20.2859 12.954 20.3411V22.4C12.954 22.4552 12.999 22.5 13.0544 22.5H14.6311C14.6865 22.5 14.7315 22.4552 14.7315 22.4V20.3411C14.7315 20.2859 14.6865 20.2411 14.6311 20.2411Z" fill="white"/>
<path d="M21.3996 20.2411H19.8229C19.7675 20.2411 19.7225 20.2859 19.7225 20.3411V22.4C19.7225 22.4552 19.7675 22.5 19.8229 22.5H21.3996C21.455 22.5 21.5 22.4552 21.5 22.4V20.3411C21.5 20.2859 21.455 20.2411 21.3996 20.2411Z" fill="white"/>
<path d="M21.3996 17.5825H17.5835C17.528 17.5825 17.4831 17.6272 17.4831 17.6824V19.7414C17.4831 19.7966 17.528 19.8413 17.5835 19.8413H21.3996C21.455 19.8413 21.5 19.7966 21.5 19.7414V17.6824C21.5 17.6272 21.455 17.5825 21.3996 17.5825Z" fill="white"/>
<path d="M7.52114 7.48751C7.79228 7.48751 8.04334 7.37756 8.23414 7.19765C8.42495 7.00775 8.52537 6.75787 8.52537 6.48801C8.52537 6.21814 8.41491 5.96827 8.23414 5.77836C8.04334 5.58846 7.79228 5.48851 7.52114 5.48851C7.25 5.48851 6.99894 5.59845 6.80814 5.77836C6.61734 5.96827 6.51691 6.21814 6.51691 6.48801C6.51691 6.75787 6.62738 7.00775 6.80814 7.19765C6.99894 7.38756 7.25 7.48751 7.52114 7.48751Z" fill="white"/>
<path d="M16.2579 7.48751H11.7389C11.6385 7.48751 11.5381 7.38756 11.5381 7.28761V5.78836C11.5381 5.58846 11.6385 5.48851 11.7389 5.48851H16.2579C16.4588 5.48851 16.5592 5.58846 16.5592 5.78836V7.28761C16.5592 7.38756 16.4588 7.48751 16.2579 7.48751Z" fill="white"/>
<path d="M7.52114 13.4845C7.79228 13.4845 8.04334 13.3746 8.23414 13.1947C8.42495 13.0047 8.52537 12.7549 8.52537 12.485C8.52537 12.2151 8.41491 11.9653 8.23414 11.7754C8.04334 11.5855 7.79228 11.4855 7.52114 11.4855C7.25 11.4855 6.99894 11.5955 6.80814 11.7754C6.61734 11.9653 6.51691 12.2151 6.51691 12.485C6.51691 12.7549 6.62738 13.0047 6.80814 13.1947C6.99894 13.3846 7.25 13.4845 7.52114 13.4845Z" fill="white"/>
<path d="M16.2579 11.5855H11.7389C11.628 11.5855 11.5381 11.675 11.5381 11.7854V13.2846C11.5381 13.395 11.628 13.4845 11.7389 13.4845H16.2579C16.3689 13.4845 16.4588 13.395 16.4588 13.2846V11.7854C16.4588 11.675 16.3689 11.5855 16.2579 11.5855Z" fill="white"/>
<path d="M7.52114 19.4715C7.79228 19.4715 8.04334 19.3616 8.23414 19.1817C8.42495 18.9918 8.52537 18.7419 8.52537 18.472C8.52537 18.2021 8.41491 17.9523 8.23414 17.7624C8.04334 17.5725 7.79228 17.4725 7.52114 17.4725C7.25 17.4725 6.99894 17.5825 6.80814 17.7624C6.61734 17.9523 6.51691 18.2021 6.51691 18.472C6.51691 18.7419 6.62738 18.9918 6.80814 19.1817C6.99894 19.3716 7.25 19.4715 7.52114 19.4715Z" fill="white"/>
<path fill-rule="evenodd" clip-rule="evenodd" d="M11.7489 20.471H4.50846V16.473H11.7489V14.474H4.50846V10.476H18.5677V13.6044H20.5761V3.99925C20.5761 3.0997 19.8732 2.5 19.0698 2.5H4.00634C3.20296 2.5 2.5 3.0997 2.5 3.99925V20.9708C2.5 21.7704 3.20296 22.47 4.00634 22.47H11.7489V20.471ZM4.50846 4.499H18.5677V8.497H4.50846V4.499Z" fill="white"/>
</svg>
