<?xml version="1.0" encoding="UTF-8"?>
<svg width="24px" height="24px" viewBox="0 0 24 24" version="1.1" xmlns="http://www.w3.org/2000/svg" xmlns:xlink="http://www.w3.org/1999/xlink">
    <title>Icons/Full Set/General/Keyboard Shortcut</title>
    <g id="Icons/Full-Set/General/Keyboard-Shortcut" stroke="none" stroke-width="1" fill="none" fill-rule="evenodd">
        <path d="M19,9.55 C19,9.688 18.888,9.8 18.75,9.8 L17.45,9.8 C17.312,9.8 17.2,9.688 17.2,9.55 L17.2,8.25 C17.2,8.112 17.312,8 17.45,8 L18.75,8 C18.888,8 19,8.112 19,8.25 L19,9.55 Z M19,12.75 C19,12.888 18.888,13 18.75,13 L17.45,13 C17.312,13 17.2,12.888 17.2,12.75 L17.2,11.45 C17.2,11.312 17.312,11.2 17.45,11.2 L18.75,11.2 C18.888,11.2 19,11.312 19,11.45 L19,12.75 Z M16,16.25 C16,16.388 15.9104,16.5 15.8,16.5 L8.2,16.5 C8.0896,16.5 8,16.388 8,16.25 L8,14.95 C8,14.812 8.0896,14.7 8.2,14.7 L15.8,14.7 C15.9104,14.7 16,14.812 16,14.95 L16,16.25 Z M6.8,9.55 C6.8,9.688 6.687,9.8 6.55,9.8 L5.25,9.8 C5.112,9.8 5,9.688 5,9.55 L5,8.25 C5,8.112 5.112,8 5.25,8 L6.55,8 C6.687,8 6.8,8.112 6.8,8.25 L6.8,9.55 Z M6.8,12.75 C6.8,12.888 6.687,13 6.55,13 L5.25,13 C5.112,13 5,12.888 5,12.75 L5,11.45 C5,11.312 5.112,11.2 5.25,11.2 L6.55,11.2 C6.687,11.2 6.8,11.312 6.8,11.45 L6.8,12.75 Z M8.05,11.45 C8.05,11.312 8.162,11.2 8.3,11.2 L9.6,11.2 C9.738,11.2 9.85,11.312 9.85,11.45 L9.85,12.75 C9.85,12.888 9.738,13 9.6,13 L8.3,13 C8.162,13 8.05,12.888 8.05,12.75 L8.05,11.45 Z M8.05,8.25 C8.05,8.112 8.162,8 8.3,8 L9.6,8 C9.738,8 9.85,8.112 9.85,8.25 L9.85,9.55 C9.85,9.688 9.738,9.8 9.6,9.8 L8.3,9.8 C8.162,9.8 8.05,9.688 8.05,9.55 L8.05,8.25 Z M11.1,11.45 C11.1,11.312 11.212,11.2 11.35,11.2 L12.65,11.2 C12.788,11.2 12.9,11.312 12.9,11.45 L12.9,12.75 C12.9,12.888 12.788,13 12.65,13 L11.35,13 C11.212,13 11.1,12.888 11.1,12.75 L11.1,11.45 Z M11.1,8.25 C11.1,8.112 11.212,8 11.35,8 L12.65,8 C12.788,8 12.9,8.112 12.9,8.25 L12.9,9.55 C12.9,9.688 12.788,9.8 12.65,9.8 L11.35,9.8 C11.212,9.8 11.1,9.688 11.1,9.55 L11.1,8.25 Z M14.15,11.45 C14.15,11.312 14.262,11.2 14.4,11.2 L15.7,11.2 C15.838,11.2 15.95,11.312 15.95,11.45 L15.95,12.75 C15.95,12.888 15.838,13 15.7,13 L14.4,13 C14.262,13 14.15,12.888 14.15,12.75 L14.15,11.45 Z M14.15,8.25 C14.15,8.112 14.262,8 14.4,8 L15.7,8 C15.838,8 15.95,8.112 15.95,8.25 L15.95,9.55 C15.95,9.688 15.838,9.8 15.7,9.8 L14.4,9.8 C14.262,9.8 14.15,9.688 14.15,9.55 L14.15,8.25 Z M19.5,5.5 L4.5,5.5 C3.672,5.5 3,6.172 3,7 L3,17 C3,17.829 3.672,18.5 4.5,18.5 L19.5,18.5 C20.328,18.5 21,17.829 21,17 L21,7 C21,6.172 20.328,5.5 19.5,5.5 L19.5,5.5 Z" id="Fill-1" fill="#273637"></path>
    </g>
</svg>