<svg width="24" height="25" viewBox="0 0 24 25" fill="none" xmlns="http://www.w3.org/2000/svg">
<path d="M7.02076 21.9008C6.8458 21.899 6.67302 21.8618 6.51287 21.7913C6.30686 21.6946 6.13276 21.541 6.01103 21.3487C5.88931 21.1565 5.82502 20.9334 5.82574 20.7058V19.0328H4.80997C4.33984 19.0328 3.88897 18.846 3.55654 18.5136C3.22411 18.1812 3.03735 17.7303 3.03735 17.2602V10.2892C3.03735 10.0564 3.0832 9.82593 3.17229 9.61087C3.26137 9.39581 3.39194 9.20039 3.55654 9.03579C3.72114 8.87119 3.91655 8.74062 4.13162 8.65154C4.34668 8.56246 4.57718 8.51661 4.80997 8.51661H15.2066C15.6768 8.51661 16.1276 8.70336 16.4601 9.03579C16.7925 9.36822 16.9793 9.81909 16.9793 10.2892V17.2602C16.9793 17.7303 16.7925 18.1812 16.4601 18.5136C16.1276 18.846 15.6768 19.0328 15.2066 19.0328H10.9344L7.81744 21.622C7.5951 21.8096 7.31154 21.9088 7.02076 21.9008ZM5.02905 17.0411H7.85727V19.0328L10.2174 17.0411H14.9876V10.5083H5.02905V17.0411Z" fill="white"/>
<path d="M19.9668 14.4917C19.7027 14.4917 19.4494 14.3868 19.2626 14.2C19.0759 14.0133 18.971 13.76 18.971 13.4959V6.5249H8.01661C7.75249 6.5249 7.49919 6.41998 7.31243 6.23323C7.12568 6.04647 7.02076 5.79317 7.02076 5.52905C7.02076 5.26494 7.12568 5.01164 7.31243 4.82488C7.49919 4.63812 7.75249 4.5332 8.01661 4.5332H18.971C19.4992 4.5332 20.0058 4.74304 20.3793 5.11656C20.7528 5.49008 20.9627 5.99667 20.9627 6.5249V13.4959C20.9627 13.76 20.8577 14.0133 20.671 14.2C20.4842 14.3868 20.2309 14.4917 19.9668 14.4917Z" fill="white"/>
<path d="M11.0838 16.1249L10.7452 15.0195H9.01246L8.7137 16.1249H7.6581L9.29129 11.5042H10.4963L12.1394 16.1647L11.0838 16.1249ZM10.5062 14.193C10.1975 13.1971 10.0183 12.6295 9.97843 12.5C9.9386 12.3705 9.91868 12.261 9.89876 12.1813C9.82905 12.4502 9.62988 13.1772 9.30125 14.173L10.5062 14.193Z" fill="white"/>
</svg>
