<svg width="24" height="24" viewBox="0 0 24 24" fill="none" xmlns="http://www.w3.org/2000/svg">
<path d="M19.28 13.14V8.43996C19.28 8.36996 19.28 8.26996 19.28 8.16996C19.2555 8.01397 19.2187 7.86016 19.17 7.70996C19.1079 7.51134 19.024 7.32019 18.92 7.13996C18.7929 6.88589 18.61 6.66392 18.3848 6.49072C18.1596 6.31752 17.8982 6.1976 17.62 6.13996H16.95C16.9515 5.5293 16.7666 4.93273 16.42 4.42996C16.1696 4.10043 15.8185 3.86167 15.42 3.74996H14.52C14.4671 3.271 14.2274 2.83225 13.8529 2.52895C13.4785 2.22565 12.9995 2.08228 12.52 2.12996C12.0405 2.08228 11.5615 2.22565 11.1871 2.52895C10.8126 2.83225 10.5729 3.271 10.52 3.74996H9.68C9.2815 3.86167 8.93038 4.10043 8.68 4.42996C8.46525 4.70266 8.29946 5.01056 8.19 5.33996C8.19 5.45996 8.12 5.57996 8.08 5.69996C8.08552 5.72296 8.08552 5.74695 8.08 5.76996C8.03199 6.01385 8.00522 6.26144 8 6.50996C7.9948 6.59655 7.9948 6.68337 8 6.76996V11.18C7.73244 10.9715 7.43601 10.8031 7.12 10.68C6.81261 10.5531 6.48082 10.4962 6.14872 10.5135C5.81662 10.5308 5.49254 10.6218 5.2 10.78C4.9104 10.9359 4.65779 11.1523 4.45934 11.4146C4.2609 11.6769 4.12128 11.9789 4.05 12.3C3.98385 12.6038 3.9817 12.9181 4.04368 13.2229C4.10566 13.5276 4.23041 13.8161 4.41 14.07C4.8914 14.7727 5.33536 15.5004 5.74 16.25C6.46033 17.7033 7.37912 19.0495 8.47 20.25C9.08383 20.8534 9.81768 21.321 10.6239 21.6225C11.4302 21.924 12.2908 22.0526 13.15 22C19.29 22 19.29 16.24 19.29 13.15L19.28 13.14ZM9.77 5.99996V5.81996C9.76972 5.75334 9.78696 5.68781 9.82 5.62996C9.81297 5.59699 9.81297 5.56292 9.82 5.52996C9.86543 5.45963 9.92718 5.40131 10 5.35996C10.0614 5.31089 10.1332 5.27667 10.21 5.25996H10.33C10.4848 5.25994 10.6333 5.32072 10.7437 5.42921C10.8541 5.53771 10.9174 5.68522 10.92 5.83996V12.43C10.9226 12.5618 10.9761 12.6875 11.0693 12.7807C11.1625 12.8739 11.2882 12.9274 11.42 12.93C11.5526 12.93 11.6798 12.8773 11.7736 12.7835C11.8673 12.6897 11.92 12.5626 11.92 12.43V4.18996C11.92 4.03083 11.9832 3.87822 12.0957 3.76569C12.2083 3.65317 12.3609 3.58996 12.52 3.58996C12.5983 3.58995 12.6759 3.60553 12.7481 3.63581C12.8204 3.66608 12.8858 3.71043 12.9408 3.76628C12.9957 3.82213 13.0389 3.88836 13.068 3.9611C13.097 4.03384 13.1113 4.11164 13.11 4.18996V12.43C13.1126 12.5618 13.1661 12.6875 13.2593 12.7807C13.3525 12.8739 13.4782 12.9274 13.61 12.93C13.7426 12.93 13.8698 12.8773 13.9635 12.7835C14.0573 12.6897 14.11 12.5626 14.11 12.43V5.78996C14.1153 5.65401 14.1651 5.52357 14.2519 5.41876C14.3386 5.31395 14.4574 5.24058 14.59 5.20996H14.83C14.9615 5.24093 15.079 5.31469 15.1641 5.41967C15.2491 5.52464 15.297 5.65488 15.3 5.78996V13C15.3026 13.1318 15.3561 13.2575 15.4493 13.3507C15.5425 13.4439 15.6682 13.4974 15.8 13.5C15.9326 13.5 16.0598 13.4473 16.1535 13.3535C16.2473 13.2597 16.3 13.1326 16.3 13V8.30996C16.3 8.15083 16.3632 7.99822 16.4757 7.88569C16.5883 7.77317 16.7409 7.70996 16.9 7.70996C17.0565 7.70996 17.2065 7.77212 17.3172 7.88276C17.4278 7.99341 17.49 8.14348 17.49 8.29996V13.3C17.49 17.13 17.11 20.3 13.1 20.3C12.4699 20.3426 11.8381 20.2485 11.2478 20.0242C10.6574 19.7998 10.1226 19.4504 9.68 19C8.72232 17.9196 7.90887 16.7196 7.26 15.43C6.82564 14.5938 6.34489 13.7825 5.82 13C5.75729 12.8875 5.73606 12.7565 5.76 12.63C5.78051 12.5463 5.82005 12.4684 5.87555 12.4025C5.93105 12.3366 6.00102 12.2844 6.08 12.25C6.15431 12.2183 6.23424 12.202 6.315 12.202C6.39576 12.202 6.47569 12.2183 6.55 12.25C6.92148 12.4415 7.24977 12.7072 7.51463 13.0305C7.7795 13.3539 7.97531 13.728 8.09 14.13C8.1039 14.1666 8.12422 14.2004 8.15 14.23C8.18511 14.2985 8.22879 14.3624 8.28 14.42C8.39602 14.5378 8.54326 14.6202 8.70443 14.6574C8.8656 14.6946 9.03404 14.6851 9.19 14.63C9.35917 14.5687 9.50454 14.4553 9.60517 14.3062C9.70581 14.157 9.75652 13.9798 9.75 13.8V5.99996H9.77Z" fill="#273637"/>
</svg>
