<svg width="24" height="24" viewBox="0 0 24 24" fill="none" xmlns="http://www.w3.org/2000/svg">
<path d="M14.47 6.30997L14 8.24997C12.6882 7.91126 11.3118 7.91126 10 8.24997L9.5 6.30997C11.1398 5.88658 12.8602 5.88658 14.5 6.30997H14.47Z" fill="#273637"/>
<path d="M5.86 10.88C6.71655 9.84759 7.82099 9.04936 9.07 8.55998L8.32 6.69998C6.76942 7.31995 5.39557 8.31256 4.32 9.58998L5.86 10.88Z" fill="#273637"/>
<path d="M4 16C4.00099 14.4681 4.44179 12.9687 5.27 11.68L5.26 11.6H5.2L3.59 10.6C2.54811 12.208 1.99573 14.084 2 16H4Z" fill="#273637"/>
<path d="M18.14 10.87L19.68 9.58998C18.6005 8.30805 17.219 7.31488 15.66 6.69998L14.93 8.54998C16.1721 9.0519 17.2737 9.84806 18.14 10.87Z" fill="#273637"/>
<path d="M22 16H20C19.999 14.4681 19.5582 12.9687 18.73 11.68L20.41 10.6C21.4519 12.208 22.0043 14.084 22 16Z" fill="#273637"/>
<path d="M15.9033 11.1266C15.9652 11.1885 16 11.2724 16 11.36C16.0092 11.4028 16.0092 11.4471 16 11.49L13.43 15.58C13.4743 15.7157 13.4979 15.8572 13.5 16C13.502 16.2971 13.4157 16.588 13.2521 16.836C13.0885 17.084 12.8549 17.2778 12.581 17.3929C12.3071 17.508 12.0052 17.5391 11.7135 17.4824C11.4219 17.4256 11.1537 17.2835 10.9429 17.0742C10.7321 16.8648 10.5883 16.5975 10.5296 16.3063C10.4709 16.0151 10.5 15.7129 10.6132 15.4383C10.7265 15.1636 10.9187 14.9287 11.1656 14.7635C11.4125 14.5982 11.7029 14.51 12 14.51H12.08L15.43 11.13C15.4942 11.0671 15.5801 11.0312 15.67 11.03C15.7575 11.03 15.8415 11.0647 15.9033 11.1266Z" fill="#273637"/>
</svg>
