<svg width="24" height="24" viewBox="0 0 24 24" fill="none" xmlns="http://www.w3.org/2000/svg">
<path d="M20.63 6H3.37C3.16565 6 3 6.16565 3 6.37V6.38C3 6.58435 3.16565 6.75 3.37 6.75H20.63C20.8343 6.75 21 6.58435 21 6.38V6.37C21 6.16565 20.8343 6 20.63 6Z" fill="#273637"/>
<path d="M5 11.88C5 12.4323 4.55228 12.88 4 12.88C3.44772 12.88 3 12.4323 3 11.88C3 11.3277 3.44772 10.88 4 10.88C4.55228 10.88 5 11.3277 5 11.88Z" fill="#273637"/>
<path d="M3.37 17.25H20.63C20.8343 17.25 21 17.4157 21 17.62V17.63C21 17.8343 20.8343 18 20.63 18H3.37C3.16565 18 3 17.8343 3 17.63V17.62C3 17.4157 3.16565 17.25 3.37 17.25Z" fill="#273637"/>
<path d="M8 11H20C20.5523 11 21 11.4477 21 12C21 12.5523 20.5523 13 20 13H8C7.44772 13 7 12.5523 7 12C7 11.4477 7.44772 11 8 11Z" fill="#273637"/>
</svg>
