<?xml version="1.0" encoding="utf-8"?>
<!-- Generator: Adobe Illustrator 25.4.1, SVG Export Plug-In . SVG Version: 6.00 Build 0)  -->
<svg version="1.1" id="Layer_1" xmlns="http://www.w3.org/2000/svg" xmlns:xlink="http://www.w3.org/1999/xlink" x="0px" y="0px"
	 viewBox="0 0 24 24" style="enable-background:new 0 0 24 24;" xml:space="preserve">
<style type="text/css">
	.st0{fill-rule:evenodd;clip-rule:evenodd;fill:#273637;}
</style>
<g id="Clusters">
	<g id="Clusters-List-View-1" transform="translate(-982.000000, -122.000000)">
		
			<g id="Current_x2F_Buttons_x2F_Segmented_x5F_Control_x2F_Large_x2F_3_x5F_options" transform="translate(900.000000, 109.000000)">
			<g id="Right" transform="translate(61.000000, 0.000000)">
				<path id="Combined-Shape" class="st0" d="M41,30c0.6,0,1,0.4,1,1s-0.4,1-1,1H25c-0.6,0-1-0.4-1-1s0.4-1,1-1H41z M41,24
					c0.6,0,1,0.4,1,1s-0.4,1-1,1H25c-0.6,0-1-0.4-1-1s0.4-1,1-1H41z M41,18c0.6,0,1,0.4,1,1s-0.4,1-1,1H25c-0.6,0-1-0.4-1-1
					s0.4-1,1-1H41z"/>
			</g>
		</g>
	</g>
</g>
</svg>
