<svg width="25" height="25" viewBox="0 0 25 25" fill="none" xmlns="http://www.w3.org/2000/svg">
<path d="M12.74 8.51995V9.83995H10.87C10.6048 9.83995 10.3504 9.94531 10.1629 10.1328C9.97533 10.3204 9.86997 10.5747 9.86997 10.84V12.84H8.46997C8.33736 12.84 8.21019 12.7873 8.11642 12.6935C8.02265 12.5997 7.96997 12.4726 7.96997 12.34V8.56995C7.96997 8.43734 8.02265 8.31017 8.11642 8.2164C8.21019 8.12263 8.33736 8.06995 8.46997 8.06995H12.24C12.3644 8.06933 12.4845 8.11509 12.577 8.1983C12.6694 8.28151 12.7275 8.39619 12.74 8.51995Z" fill="#273637"/>
<path d="M15.6299 10.55H11.1299C10.8537 10.55 10.6299 10.7739 10.6299 11.05V15.55C10.6299 15.8262 10.8537 16.05 11.1299 16.05H15.6299C15.906 16.05 16.1299 15.8262 16.1299 15.55V11.05C16.1299 10.7739 15.906 10.55 15.6299 10.55Z" fill="#273637"/>
<path fill-rule="evenodd" clip-rule="evenodd" d="M5.80005 20.05H18.3C18.7634 20.0474 19.207 19.8622 19.5346 19.5346C19.8622 19.207 20.0474 18.7634 20.05 18.3V5.80005C20.0474 5.33673 19.8622 4.89313 19.5346 4.56551C19.207 4.23789 18.7634 4.05267 18.3 4.05005H5.80005C5.33673 4.05267 4.89313 4.23789 4.56551 4.56551C4.23789 4.89313 4.05267 5.33673 4.05005 5.80005V18.3C4.05267 18.7634 4.23789 19.207 4.56551 19.5346C4.89313 19.8622 5.33673 20.0474 5.80005 20.05ZM18.05 18.05H6.05005V6.05005H18.05V18.05Z" fill="#273637"/>
</svg>
