<svg width="24" height="25" viewBox="0 0 24 25" fill="none" xmlns="http://www.w3.org/2000/svg">
<path fill-rule="evenodd" clip-rule="evenodd" d="M13.5 10.2002H4.5C3.95 10.2002 3.5 10.6502 3.5 11.2002V20.2002C3.5 20.7502 3.95 21.2002 4.5 21.2002H13.5C14.05 21.2002 14.5 20.7502 14.5 20.2002V11.2002C14.5 10.6502 14.05 10.2002 13.5 10.2002ZM8.98 19.3002C8.05 19.3002 7.06 18.9602 6.32 18.3002L7.25 17.2202C7.76 17.6502 8.42 17.9502 9.01 17.9502C9.69 17.9502 10.02 17.6902 10.02 17.2802C10.02 16.8402 9.61 16.7002 8.99 16.4502L8.06 16.0702C7.32 15.7802 6.61 15.1902 6.61 14.1802C6.61 13.0302 7.67 12.1102 9.16 12.1102C9.99 12.1102 10.85 12.4302 11.47 13.0202L10.65 14.0102C10.18 13.6602 9.73 13.4702 9.16 13.4702C8.59 13.4702 8.25 13.7002 8.25 14.0902C8.25 14.5202 8.72 14.6702 9.34 14.9102L10.25 15.2702C11.13 15.6102 11.67 16.1802 11.67 17.1602C11.67 18.3102 10.68 19.3102 8.97 19.3102L8.98 19.3002Z" fill="white"/>
<path d="M19.1 4.2002H7.9C7.13 4.2002 6.5 4.8302 6.5 5.6002V9.0002H8.5V6.2002H18.5V16.2002H15.7V18.2002H19.1C19.87 18.2002 20.5 17.5702 20.5 16.8002V5.6002C20.5 4.8302 19.87 4.2002 19.1 4.2002Z" fill="white"/>
</svg>
