<svg width="24" height="24" viewBox="0 0 24 24" fill="none" xmlns="http://www.w3.org/2000/svg">
<path d="M21.039 12.3852L13.149 3.05029C12.859 2.70011 12.429 2.5 11.979 2.5C11.529 2.5 11.099 2.70011 10.799 3.05029L2.95898 12.3852C2.61898 12.7854 2.45898 13.3157 2.50898 13.836C2.55898 14.3662 2.81898 14.8365 3.23898 15.1667L10.649 21.0298C11.049 21.3399 11.519 21.5 11.999 21.5C12.479 21.5 12.949 21.3399 13.349 21.0298L20.759 15.1667C21.179 14.8365 21.429 14.3662 21.489 13.836C21.539 13.3157 21.379 12.7854 21.039 12.3852ZM11.979 4.75118L13.479 6.51211C12.869 6.65219 12.319 6.98236 11.909 7.47262L7.35898 12.8955C7.24898 13.0255 7.19898 13.1956 7.21898 13.3557C7.21898 13.3757 7.22898 13.3957 7.23898 13.4057C7.24898 13.4658 7.26898 13.5258 7.28898 13.5858C7.30898 13.6159 7.33898 13.6459 7.35898 13.6759C7.38898 13.7059 7.40898 13.7459 7.43898 13.7759L10.979 16.5774L10.579 16.8876C10.269 17.1377 9.89898 17.2478 9.52898 17.2978C9.34898 17.2978 9.13898 17.2578 8.93898 17.1477L4.46898 13.6459L11.979 4.75118ZM12.009 15.787L8.73898 13.2056L11.999 9.3336L15.279 13.2156L12.019 15.787H12.009ZM12.109 19.4589C12.039 19.509 11.949 19.509 11.889 19.4589L10.499 18.3684C10.809 18.2483 11.099 18.0882 11.369 17.8781L16.539 13.7859C16.609 13.7359 16.659 13.6659 16.699 13.5958C16.739 13.5258 16.759 13.4458 16.769 13.3657C16.769 13.3357 16.769 13.3157 16.769 13.2857C16.769 13.2356 16.769 13.1756 16.749 13.1256C16.739 13.0856 16.709 13.0556 16.699 13.0255C16.679 12.9855 16.669 12.9555 16.649 12.9155L12.819 8.37309L12.889 8.29305C13.199 7.93286 13.639 7.72275 14.119 7.70274C14.259 7.70274 14.519 7.76277 14.769 8.04292C14.789 8.06293 14.809 8.06293 14.829 8.07293L19.549 13.6058L12.139 19.4689L12.109 19.4589Z" fill="white"/>
</svg>
