<svg width="24" height="24" viewBox="0 0 24 24" fill="none" xmlns="http://www.w3.org/2000/svg">
<path d="M8.25 9.5C8.25 9.08579 8.58578 8.75 9 8.75H15C15.4142 8.75 15.75 9.08579 15.75 9.5C15.75 9.91421 15.4142 10.25 15 10.25H9C8.58578 10.25 8.25 9.91421 8.25 9.5Z" fill="white"/>
<path d="M9 11.75C8.58578 11.75 8.25 12.0858 8.25 12.5C8.25 12.9142 8.58578 13.25 9 13.25H13C13.4142 13.25 13.75 12.9142 13.75 12.5C13.75 12.0858 13.4142 11.75 13 11.75H9Z" fill="white"/>
<path fill-rule="evenodd" clip-rule="evenodd" d="M12.12 3C17.08 3 21.12 6.56 21.12 10.94C21.12 15.32 17.12 18.85 12.18 18.88C9.65 20.8 6.47 20.99 5.27 20.99C5.05904 20.99 4.91053 20.9843 4.83728 20.9815C4.81342 20.9806 4.79737 20.98 4.79 20.98C4.24 20.94 3.82 20.44 3.85 19.86C3.87 19.5 4.06 19.15 4.35 18.93C5.57 18.02 5.83 17.03 5.86 16.65C4.12 15.17 3.12 13.1 3.12 10.94C3.12 6.56 7.16 3 12.12 3ZM12.12 5.12C8.26 5.12 5.11999 7.73 5.11999 10.95C5.11999 12.55 5.89 14.04 7.3 15.16L7.31 15.17L8.07 15.81C8.07 15.81 8.29 16.88 7.28 18.7C7.78 18.61 8.33999 18.46 8.89 18.27C9.64 17.99 10.53 17.53 11.3 16.77H12.31C16.14 16.66 19.15 14.1 19.15 10.96C19.15 7.82 16.01 5.13 12.15 5.13L12.12 5.12Z" fill="white"/>
</svg>
