<svg width="24" height="24" viewBox="0 0 24 24" fill="none" xmlns="http://www.w3.org/2000/svg">
<path d="M9.9375 5.94641C9.9375 6.31625 9.63769 6.61606 9.26786 6.61606C8.89803 6.61606 8.59822 6.31625 8.59822 5.94641C8.59822 5.57658 8.89803 5.27677 9.26786 5.27677C9.63769 5.27677 9.9375 5.57658 9.9375 5.94641Z" fill="#273637"/>
<path fill-rule="evenodd" clip-rule="evenodd" d="M7.53571 2H16.4643C16.9379 2 17.3921 2.18814 17.727 2.52302C18.0619 2.85791 18.25 3.31211 18.25 3.78571V12.7143C18.25 13.1879 18.0619 13.6421 17.727 13.977C17.3921 14.3119 16.9379 14.5 16.4643 14.5H7.53571C7.06211 14.5 6.60791 14.3119 6.27302 13.977C5.93814 13.6421 5.75 13.1879 5.75 12.7143V3.78571C5.75 3.31211 5.93814 2.85791 6.27302 2.52302C6.60791 2.18814 7.06211 2 7.53571 2ZM7.53571 3.78571V12.7143H11V3.78571H7.53571ZM12.1161 3.78571V12.7143H13.6786V3.78571H12.1161ZM14.7946 3.78571V12.7143H16.4643V3.78571H14.7946Z" fill="#273637"/>
<path fill-rule="evenodd" clip-rule="evenodd" d="M11.25 16.25C11.25 15.8358 11.5858 15.5 12 15.5C12.4142 15.5 12.75 15.8358 12.75 16.25V17.878C13.3893 18.104 13.896 18.6107 14.122 19.25H18.4724C18.7177 18.8737 19.1423 18.625 19.625 18.625C20.3844 18.625 21 19.2406 21 20C21 20.7594 20.3844 21.375 19.625 21.375C19.1423 21.375 18.7177 21.1263 18.4724 20.75H14.122C13.8131 21.6239 12.9797 22.25 12 22.25C11.0203 22.25 10.1869 21.6239 9.87803 20.75H5.52763C5.2823 21.1263 4.85769 21.375 4.375 21.375C3.61561 21.375 3 20.7594 3 20C3 19.2406 3.61561 18.625 4.375 18.625C4.85769 18.625 5.2823 18.8737 5.52763 19.25H9.87803C10.104 18.6107 10.6107 18.104 11.25 17.878V16.25ZM12 20.75C12.4142 20.75 12.75 20.4142 12.75 20C12.75 19.5858 12.4142 19.25 12 19.25C11.5858 19.25 11.25 19.5858 11.25 20C11.25 20.4142 11.5858 20.75 12 20.75Z" fill="#273637"/>
</svg>
