<?xml version="1.0" encoding="UTF-8"?>
<svg width="24px" height="24px" viewBox="0 0 24 24" version="1.1" xmlns="http://www.w3.org/2000/svg" xmlns:xlink="http://www.w3.org/1999/xlink">
    <g stroke="none" stroke-width="1" fill="none" fill-rule="evenodd">
      <path d="M20.5 2h-17C2.7 2 2 2.7 2 3.5v17c0 .8.7 1.5 1.5 1.5h17c.8 0 1.5-.7 1.5-1.5v-17c0-.8-.7-1.5-1.5-1.5zM9.1 14.3H7.5L5.8 11v3.3H4.7V9.7h1.6L8 12.9V9.7h1.1v4.6zm3.3-3.6h-1.5v.7h1.4v1h-1.4v.9h1.5v1H9.6V9.7h2.8v1zm5.8 3.6h-1.5s-.7-3-.7-3.1c0 .1-.3 1.9-.6 3.1H14l-1.1-4.6H14s.7 3.3.7 3.6c0-.2.7-3.6.7-3.6h1.2s.7 3.4.7 3.6c0-.2.7-3.6.7-3.6h1.2l-1 4.6z" fill="#273637" />
    </g>
</svg>
