<svg width="24" height="24" viewBox="0 0 24 24" fill="none" xmlns="http://www.w3.org/2000/svg">
<path d="M12.44 17.15C12.49 16.73 12.7 16.37 13.04 16.16L13.26 16H4V5H15V11.38C15.15 11.4 15.29 11.43 15.41 11.49L15.82 11.67C15.82 11.67 15.85 11.65 15.87 11.64L15.91 11.23C15.94 10.61 16.42 10.08 17.01 9.94V5C17.01 3.9 16.11 3 15.01 3H4C2.9 3 2 3.9 2 5V16C2 17.1 2.9 18 4 18H12.59C12.47 17.73 12.41 17.44 12.44 17.15Z" fill="white"/>
<path d="M9.54 6.75C11.37 6.75 12.91 8.16 13.25 9.95L13.26 9.96C13.26 10 13.2 10.02 13.2 10.02H12.08C12.05 10.02 12.02 9.96 12.02 9.96C11.75 7.93 9.02 7.34 7.71 8.82L8.37 9.48C8.57 9.68 8.43 10.02 8.15 10.02H6.07C5.89 10.02 5.75 9.87 5.75 9.7V7.62C5.75 7.34 6.09 7.2 6.29 7.4L6.82 7.93C7.52 7.2 8.47 6.75 9.54 6.75Z" fill="white"/>
<path d="M9.45999 14.25C7.62999 14.25 6.08999 12.84 5.74999 11.05L5.73999 11.04C5.73999 11 5.79999 10.98 5.79999 10.98H6.91999C6.94999 10.98 6.97999 11.04 6.97999 11.04C7.24999 13.07 9.97999 13.66 11.29 12.18L10.63 11.52C10.43 11.32 10.57 10.98 10.85 10.98H12.93C13.11 10.98 13.25 11.13 13.25 11.3V13.38C13.25 13.66 12.91 13.8 12.71 13.6L12.18 13.07C11.48 13.8 10.53 14.25 9.45999 14.25Z" fill="white"/>
<path fill-rule="evenodd" clip-rule="evenodd" d="M22.8 17.05L22 16.45V15.45L22.8 14.85C23 14.75 23 14.45 22.9 14.25L22 12.65C21.9 12.45 21.6 12.35 21.4 12.45L20.5 12.85C20.2 12.65 19.9 12.45 19.6 12.35L19.5 11.35C19.5 11.15 19.3 10.95 19.1 10.95H17.3C17.1 10.95 16.9 11.15 16.9 11.35L16.8 12.35C16.5 12.45 16.2 12.65 15.9 12.85L15 12.45C14.8 12.35 14.6 12.45 14.4 12.65L13.5 14.25C13.4 14.45 13.5 14.65 13.6 14.85L14.4 15.45V16.45L13.6 17.05C13.4 17.15 13.4 17.45 13.5 17.65L14.4 19.25C14.5 19.45 14.8 19.55 15 19.45L15.9 19.0499C16.2 19.25 16.5 19.45 16.8 19.5499V20.65C16.8 20.85 17 21.0499 17.2 21.0499H19C19.2 21.0499 19.4 20.85 19.4 20.65L19.5 19.65C19.8 19.55 20.1 19.35 20.4 19.15L21.3 19.5499C21.5 19.65 21.7 19.55 21.9 19.35L22.8 17.75C23 17.45 23 17.15 22.8 17.05ZM18.2 17.15C17.5 17.15 17 16.55 17 15.95C17 15.35 17.6 14.75 18.2 14.75C18.8 14.75 19.4 15.35 19.4 15.95C19.4 16.55 18.8 17.15 18.2 17.15Z" fill="white"/>
</svg>
