<svg width="24" height="24" fill="none" xmlns="http://www.w3.org/2000/svg"><path d="M4.5 4.5c-.275 0-.5.225-.5.5v11.5c0 .275-.225.5-.5.5a.501.501 0 0 1-.5-.5V5c0-.83.67-1.5 1.5-1.5H16c.275 0 .5.225.5.5s-.225.5-.5.5H4.5Z" fill="#fff"/><path d="M16.98 11.25c.04.065.02.155-.045.2h-.005l-.575.415c-.07.055-.17.03-.215-.05a3.497 3.497 0 0 0-3.055-1.805 3.505 3.505 0 0 0-3.4 2.695l.51.08c.185.03.24.265.09.375l-1.12.81a.21.21 0 0 1-.295-.045l-.81-1.12c-.11-.15.02-.36.205-.33l.43.07A4.508 4.508 0 0 1 13.09 9.01c1.66 0 3.11.9 3.89 2.24ZM9.2 15.635a.151.151 0 0 1 .045-.2h.005l.575-.415c.07-.055.17-.03.215.05a3.497 3.497 0 0 0 3.055 1.805 3.505 3.505 0 0 0 3.4-2.695l-.51-.08a.209.209 0 0 1-.09-.375l1.12-.81a.21.21 0 0 1 .295.045l.81 1.12c.11.15-.02.36-.205.33l-.43-.07a4.508 4.508 0 0 1-4.395 3.535c-1.66 0-3.11-.9-3.89-2.24Z" fill="#fff"/><path fill-rule="evenodd" clip-rule="evenodd" d="M5.59 7.445a1.5 1.5 0 0 1 1.5-1.5h12a1.5 1.5 0 0 1 1.5 1.5v12a1.5 1.5 0 0 1-1.5 1.5h-12a1.5 1.5 0 0 1-1.5-1.5v-12Zm1.5-.5a.5.5 0 0 0-.5.5v12a.5.5 0 0 0 .5.5h12a.5.5 0 0 0 .5-.5v-12a.5.5 0 0 0-.5-.5h-12Z" fill="#fff"/></svg>