<svg width="24" height="24" viewBox="0 0 24 24" fill="none" xmlns="http://www.w3.org/2000/svg">
<path fill-rule="evenodd" clip-rule="evenodd" d="M5.25 3C4.55964 3 4 3.55964 4 4.25V19.75C4 20.4404 4.55964 21 5.25 21H18.75C19.4404 21 20 20.4404 20 19.75V4.25C20 3.55964 19.4404 3 18.75 3H5.25ZM10.2 7.5C10.2 7.38954 10.2895 7.3 10.4 7.3H13.6C13.7105 7.3 13.8 7.38954 13.8 7.5V9.6C13.8 9.71045 13.7105 9.8 13.6 9.8H12.3V12.2H15.5L15.5 14.8H16.8C16.9105 14.8 17 14.8895 17 15V17.1C17 17.2105 16.9105 17.3 16.8 17.3H13.6C13.4895 17.3 13.4 17.2105 13.4 17.1V15C13.4 14.8895 13.4895 14.8 13.6 14.8H14.9V12.8H9.1V14.8H10.4C10.5105 14.8 10.6 14.8895 10.6 15V17.1C10.6 17.2105 10.5105 17.3 10.4 17.3H7.2C7.08955 17.3 7 17.2105 7 17.1V15C7 14.8895 7.08955 14.8 7.2 14.8H8.5V12.2H11.7V9.8H10.4C10.2895 9.8 10.2 9.71045 10.2 9.6V7.5Z" fill="white"/>
</svg>
