<svg width="24" height="24" viewBox="0 0 24 24" fill="none" xmlns="http://www.w3.org/2000/svg">
<path d="M12.8101 19H4.81006V11H12.8101V12.5H14.8101V10.5C14.8101 10.1022 14.652 9.72064 14.3707 9.43934C14.0894 9.15804 13.7079 9 13.3101 9H9.81006V5H17.8101V7.53H19.8101V4.53C19.814 4.33051 19.7782 4.13222 19.7046 3.94676C19.631 3.76129 19.5212 3.59237 19.3815 3.44989C19.2418 3.30741 19.0751 3.19423 18.8911 3.11698C18.7071 3.03973 18.5096 2.99996 18.3101 3H9.31006C8.91223 3 8.5307 3.15804 8.2494 3.43934C7.96809 3.72064 7.81006 4.10218 7.81006 4.5V9H4.31006C3.91223 9 3.5307 9.15804 3.2494 9.43934C2.96809 9.72064 2.81006 10.1022 2.81006 10.5V19.5C2.81006 19.8978 2.96809 20.2794 3.2494 20.5607C3.5307 20.842 3.91223 21 4.31006 21H13.3101C13.7079 21 14.0894 20.842 14.3707 20.5607C14.652 20.2794 14.8101 19.8978 14.8101 19.5V17.5H12.8101V19Z" fill="#273637"/>
<path d="M19.0601 9.12C19.0454 9.09525 19.0248 9.07461 19.0001 9.06C18.9685 9.03636 18.9327 9.01916 18.8945 9.00939C18.8563 8.99961 18.8166 8.99744 18.7776 9.00302C18.7386 9.00859 18.7011 9.02178 18.6672 9.04186C18.6333 9.06193 18.6037 9.08848 18.5801 9.12L16.4001 12H17.8201C17.8221 12.5007 17.6363 12.9839 17.2993 13.3542C16.9623 13.7245 16.4987 13.9549 16.0001 14H12.8101V16H15.8101C16.3353 16 16.8555 15.8965 17.3408 15.6955C17.8261 15.4945 18.2671 15.1999 18.6385 14.8284C19.0099 14.457 19.3046 14.016 19.5056 13.5307C19.7066 13.0454 19.8101 12.5253 19.8101 12H21.1701L19.0601 9.12Z" fill="#273637"/>
</svg>
