<svg width="24" height="24" viewBox="0 0 24 24" fill="none" xmlns="http://www.w3.org/2000/svg">
<path d="M20.71 19.29L15.71 14.29L15.58 14.21C16.5026 13.0005 17.0015 11.5211 17 10C17 8.61553 16.5895 7.26216 15.8203 6.11101C15.0511 4.95987 13.9579 4.06266 12.6788 3.53285C11.3997 3.00303 9.99223 2.86441 8.63437 3.13451C7.2765 3.4046 6.02922 4.07129 5.05025 5.05026C4.07128 6.02922 3.4046 7.2765 3.1345 8.63437C2.86441 9.99224 3.00303 11.3997 3.53284 12.6788C4.06266 13.9579 4.95986 15.0511 6.11101 15.8203C7.26215 16.5895 8.61553 17 10 17C11.5211 17.0015 13.0005 16.5026 14.21 15.58L14.29 15.71L19.29 20.71C19.383 20.8037 19.4936 20.8781 19.6154 20.9289C19.7373 20.9797 19.868 21.0058 20 21.0058C20.132 21.0058 20.2627 20.9797 20.3846 20.9289C20.5064 20.8781 20.617 20.8037 20.71 20.71C20.8037 20.617 20.8781 20.5064 20.9289 20.3846C20.9797 20.2627 21.0058 20.132 21.0058 20C21.0058 19.868 20.9797 19.7373 20.9289 19.6154C20.8781 19.4936 20.8037 19.383 20.71 19.29ZM10 5C11.1527 4.99977 12.27 5.39779 13.1629 6.1267C14.0558 6.85561 14.6695 7.87064 14.9 9H12.43C12.231 8.51931 11.8939 8.10844 11.4614 7.81936C11.0288 7.53028 10.5203 7.37599 10 7.37599C9.47975 7.37599 8.97118 7.53028 8.53864 7.81936C8.10609 8.10844 7.769 8.51931 7.57 9H5.1C5.33053 7.87064 5.94418 6.85561 6.8371 6.1267C7.73001 5.39779 8.84735 4.99977 10 5ZM11.13 10C11.1287 10.2088 11.069 10.4132 10.9576 10.5899C10.8463 10.7666 10.6878 10.9086 10.5 11C10.3452 11.079 10.1738 11.1202 10 11.1202C9.82618 11.1202 9.65483 11.079 9.5 11C9.31488 10.9066 9.15931 10.7637 9.05062 10.5872C8.94193 10.4106 8.88438 10.2073 8.88438 10C8.88438 9.79267 8.94193 9.58941 9.05062 9.41285C9.15931 9.23629 9.31488 9.09337 9.5 9C9.65483 8.92099 9.82618 8.8798 10 8.8798C10.1738 8.8798 10.3452 8.92099 10.5 9C10.6878 9.09137 10.8463 9.23343 10.9576 9.41014C11.069 9.58684 11.1287 9.79116 11.13 10ZM10 15C8.84735 15.0002 7.73001 14.6022 6.8371 13.8733C5.94418 13.1444 5.33053 12.1294 5.1 11H7.57C7.769 11.4807 8.10609 11.8916 8.53864 12.1806C8.97118 12.4697 9.47975 12.624 10 12.624C10.5203 12.624 11.0288 12.4697 11.4614 12.1806C11.8939 11.8916 12.231 11.4807 12.43 11H14.9C14.6695 12.1294 14.0558 13.1444 13.1629 13.8733C12.27 14.6022 11.1527 15.0002 10 15Z" fill="#273637"/>
</svg>
