<?xml version="1.0" encoding="UTF-8"?>
<svg width="24px" height="24px" viewBox="0 0 24 24" version="1.1" xmlns="http://www.w3.org/2000/svg" xmlns:xlink="http://www.w3.org/1999/xlink">
    <title>Icons/Full Set/General/Permission</title>
    <g id="Icons/Full-Set/General/Permission" stroke="none" stroke-width="1" fill="none" fill-rule="evenodd">
        <path d="M21,11 L10.8,11 C10.3,9 8.6,7.5 6.4,7.5 C4,7.5 2,9.5 2,12 C2,14.5 4,16.5 6.5,16.5 C8.6,16.5 10.4,15 10.9,13 L14,13 L14,15 C14,15.6 14.4,16 15,16 C15.6,16 16,15.6 16,15 L16,13 L18,13 L18,15.1 C18,15.7 18.4,16.1 19,16.1 C19.6,16.1 20,15.7 20,15.1 L20,13 L21,13 C21.6,13 22,12.6 22,12 C22,11.4 21.6,11 21,11 Z M6.5,14.5 C5.1,14.5 4,13.4 4,12 C4,10.6 5.1,9.5 6.5,9.5 C7.9,9.5 9,10.6 9,12 C9,13.4 7.9,14.5 6.5,14.5 Z" id="Shape" fill="#273637"></path>
    </g>
</svg>
