<?xml version="1.0" encoding="UTF-8"?>
<svg width="24px" height="24px" viewBox="0 0 24 24" version="1.1" xmlns="http://www.w3.org/2000/svg" xmlns:xlink="http://www.w3.org/1999/xlink">
    <title>Icons/Full Set/General / Popular</title>
    <g id="Icons/Full-Set/General-/-Popular" stroke="none" stroke-width="1" fill="none" fill-rule="evenodd">
        <path d="M12,2 C17.523,2 22,6.477 22,12 C22,17.523 17.523,22 12,22 C6.477,22 2,17.523 2,12 C2,6.477 6.477,2 12,2 Z M12,4 C7.589,4 4,7.589 4,12 C4,16.411 7.589,20 12,20 C16.411,20 20,16.411 20,12 C20,7.589 16.411,4 12,4 Z M11.9998,7.0498 L13.5448,10.1788 L16.9998,10.6798 L14.4988,13.1158 L15.0888,16.5558 L11.9998,14.9318 L8.9108,16.5558 L9.5008,13.1158 L6.9998,10.6798 L10.4558,10.1788 L11.9998,7.0498 Z" id="Combined-Shape" fill="#273637"></path>
    </g>
</svg>