<?xml version="1.0" encoding="UTF-8"?>
<svg width="24px" height="24px" viewBox="0 0 24 24" version="1.1" xmlns="http://www.w3.org/2000/svg" xmlns:xlink="http://www.w3.org/1999/xlink">
    <title>Icons/Full Set/General/Pre-Post Script</title>
    <g id="Icons/Full-Set/General/Pre-Post-Script" stroke="none" stroke-width="1" fill="none" fill-rule="evenodd">
        <path d="M19.5,2 C20.879,2 22,3.122 22,4.5 L22,4.5 L22,9 L19,9 L19,19.5 C19,20.878 17.879,22 16.5,22 L16.5,22 L4.48,22 C3.111,21.989 2,20.872 2,19.5 L2,19.5 L2,16 L5,16 L5,4.5 C5,3.122 6.121,2 7.5,2 L7.5,2 Z M17,4 L7.5,4 C7.225,4 7,4.224 7,4.5 L7,4.5 L7,16 L16,16 L16,19.5 C16,19.776 16.225,20 16.5,20 C16.775,20 17,19.776 17,19.5 L17,19.5 L17,4 Z M14,18 L4,18 L4,19.5 C4,19.776 4.225,20 4.5,20 L4.5,20 L14.05,20 C14.018,19.838 14,19.671 14,19.5 L14,19.5 L14,18 Z M13,12.45 L13,13.95 L9,13.95 L9,12.45 L13,12.45 Z M15,9.25 L15,10.75 L9,10.75 L9,9.25 L15,9.25 Z M15,5.95 L15,7.45 L9,7.45 L9,5.95 L15,5.95 Z M19.5,4 C19.225,4 19,4.224 19,4.5 L19,4.5 L19,7 L20,7 L20,4.5 C20,4.224 19.775,4 19.5,4 Z" id="Combined-Shape" fill="#273637"></path>
    </g>
</svg>
