<svg width="24" height="24" viewBox="0 0 24 24" fill="none" xmlns="http://www.w3.org/2000/svg">
<path d="M12.4115 6.92847C11.8171 6.33398 11.0108 6 10.17 6C9.75119 5.99998 9.33651 6.08296 8.94994 6.24414C8.56337 6.40532 8.21257 6.64151 7.91782 6.93905C7.62306 7.2366 7.39019 7.58961 7.23266 7.97768C7.07512 8.36575 6.99606 8.78119 7.00002 9.2C7.0349 10.0267 7.38096 10.8097 7.96885 11.3921C8.55673 11.9744 9.34299 12.313 10.17 12.34C11.0108 12.34 11.8171 12.006 12.4115 11.4115C13.006 10.817 13.34 10.0107 13.34 9.17C13.34 8.32926 13.006 7.52296 12.4115 6.92847Z" fill="#273637"/>
<path d="M12 16.5001C11.9964 15.5847 12.2758 14.6905 12.8 13.9401C11.2464 13.4268 9.57362 13.3967 8.00253 13.8538C6.43144 14.3108 5.03587 15.2335 4 16.5001V18.0001H12.27C12.0908 17.5203 11.9993 17.0122 12 16.5001Z" fill="#273637"/>
<path d="M16.47 8C16.8655 8 17.2522 8.1173 17.5811 8.33706C17.91 8.55682 18.1664 8.86918 18.3177 9.23463C18.4691 9.60009 18.5087 10.0022 18.4315 10.3902C18.3544 10.7781 18.1639 11.1345 17.8842 11.4142C17.6045 11.6939 17.2481 11.8844 16.8601 11.9616C16.4722 12.0387 16.0701 11.9991 15.7046 11.8478C15.3392 11.6964 15.0268 11.44 14.807 11.1111C14.5873 10.7822 14.47 10.3956 14.47 10C14.47 9.46957 14.6807 8.96086 15.0558 8.58579C15.4308 8.21071 15.9395 8 16.47 8Z" fill="#273637"/>
<path fill-rule="evenodd" clip-rule="evenodd" d="M14.5555 13.5899C15.1311 13.2053 15.8078 13 16.5 13C17.4283 13 18.3185 13.3687 18.9749 14.0251C19.6313 14.6815 20 15.5717 20 16.5C20 17.1922 19.7947 17.8689 19.4101 18.4445C19.0256 19.0201 18.4789 19.4687 17.8394 19.7336C17.1999 19.9985 16.4961 20.0678 15.8172 19.9327C15.1383 19.7977 14.5146 19.4644 14.0251 18.9749C13.5356 18.4854 13.2023 17.8617 13.0673 17.1828C12.9322 16.5039 13.0015 15.8001 13.2664 15.1606C13.5313 14.5211 13.9799 13.9744 14.5555 13.5899ZM16.31 17.91L18.44 15.74C18.4779 15.7025 18.5072 15.6572 18.5259 15.6073C18.5447 15.5574 18.5524 15.504 18.5486 15.4508C18.5448 15.3976 18.5296 15.3459 18.5039 15.2992C18.4783 15.2524 18.4428 15.2118 18.4 15.18C18.3291 15.111 18.234 15.0724 18.135 15.0724C18.036 15.0724 17.9409 15.111 17.87 15.18L16 17.07L15.05 16.07C15.0195 16.0241 14.9795 15.9854 14.9326 15.9565C14.8857 15.9276 14.833 15.9093 14.7783 15.9028C14.7236 15.8962 14.6682 15.9017 14.6158 15.9187C14.5634 15.9358 14.5154 15.964 14.475 16.0015C14.4346 16.0389 14.4028 16.0847 14.3819 16.1356C14.361 16.1866 14.3513 16.2415 14.3537 16.2965C14.3561 16.3515 14.3704 16.4054 14.3957 16.4543C14.4209 16.5033 14.4565 16.5462 14.5 16.58L15.73 17.88C15.8014 17.953 15.898 17.9959 16 18C16.0551 18.0102 16.1118 18.0073 16.1657 17.9917C16.2195 17.9761 16.2689 17.9481 16.31 17.91Z" fill="#273637"/>
</svg>
