<svg width="24" height="24" viewBox="0 0 24 24" fill="none" xmlns="http://www.w3.org/2000/svg">
<path fill-rule="evenodd" clip-rule="evenodd" d="M6.5533 10.5267C7.29827 11.2716 8.30171 11.7008 9.35498 11.725C10.1461 11.725 10.9195 11.4904 11.5773 11.0509C12.2351 10.6113 12.7477 9.98662 13.0505 9.25571C13.3532 8.52481 13.4325 7.72054 13.2781 6.94462C13.1238 6.16869 12.7428 5.45596 12.1834 4.89655C11.624 4.33714 10.9113 3.95618 10.1353 3.80184C9.35942 3.6475 8.55515 3.72671 7.82425 4.02946C7.09334 4.33221 6.46863 4.8449 6.0291 5.5027C5.58958 6.16049 5.35498 6.93385 5.35498 7.72498C5.37914 8.77825 5.80833 9.78168 6.5533 10.5267ZM7.23366 5.60366C7.79627 5.04105 8.55933 4.72498 9.35498 4.72498C10.1506 4.72498 10.9137 5.04105 11.4763 5.60366C12.0389 6.16627 12.355 6.92933 12.355 7.72498C12.355 8.52063 12.0389 9.28369 11.4763 9.8463C10.9137 10.4089 10.1506 10.725 9.35498 10.725C8.56843 10.6964 7.82184 10.3712 7.26529 9.81466C6.70875 9.25812 6.38352 8.51153 6.35498 7.72498C6.35498 6.92933 6.67105 6.16627 7.23366 5.60366Z" fill="white"/>
<path d="M3 17.9H12.86C12.9943 18.2513 13.167 18.5866 13.375 18.9H2.5C2.36739 18.9 2.24021 18.8473 2.14645 18.7535C2.05268 18.6598 2 18.5326 2 18.4V16.725C2.00065 16.6122 2.03942 16.5029 2.11 16.415C3.39599 14.8359 5.15538 13.7119 7.12871 13.2086C9.10204 12.7054 11.1849 12.8496 13.07 13.62C12.918 13.9195 12.7941 14.2325 12.7 14.555C11.0424 13.8733 9.21175 13.733 7.46964 14.1541C5.72753 14.5753 4.16313 15.5364 3 16.9V17.9Z" fill="white"/>
<path fill-rule="evenodd" clip-rule="evenodd" d="M17.75 10.745C17.213 10.74 16.6894 10.5765 16.245 10.275C15.8006 9.97348 15.4552 9.54736 15.2522 9.05018C15.0492 8.55299 14.9977 8.00691 15.104 7.48052C15.2103 6.95412 15.4699 6.47088 15.8499 6.09149C16.23 5.7121 16.7137 5.45347 17.2403 5.34809C17.7669 5.2427 18.3129 5.29527 18.8097 5.49917C19.3065 5.70308 19.732 6.04924 20.0327 6.49417C20.3335 6.9391 20.496 7.46298 20.5 7.99999C20.502 8.36145 20.4322 8.7197 20.2946 9.05397C20.1571 9.38824 19.9545 9.69186 19.6987 9.94722C19.4428 10.2026 19.1388 10.4046 18.8043 10.5415C18.4698 10.6785 18.1114 10.7476 17.75 10.745ZM17.75 6.29499C17.4091 6.29995 17.0773 6.40583 16.7965 6.59925C16.5157 6.79267 16.2986 7.06496 16.1724 7.38172C16.0463 7.69848 16.0169 8.04552 16.0879 8.37899C16.1589 8.71247 16.3271 9.01742 16.5713 9.25535C16.8155 9.49328 17.1248 9.6535 17.46 9.71578C17.7952 9.77807 18.1413 9.73962 18.4547 9.60529C18.7681 9.47096 19.0346 9.24679 19.2207 8.96107C19.4067 8.67536 19.5039 8.34092 19.5 7.99999C19.4934 7.54203 19.3055 7.10537 18.9774 6.78575C18.6494 6.46613 18.208 6.28965 17.75 6.29499Z" fill="white"/>
<path d="M18.87 14.735C18.965 14.6821 19.0746 14.6617 19.1823 14.6768C19.2899 14.6918 19.3898 14.7415 19.4666 14.8184C19.5435 14.8952 19.5932 14.9951 19.6082 15.1027C19.6233 15.2104 19.6029 15.32 19.55 15.415L17.41 17.7C17.3677 17.7479 17.3152 17.7858 17.2564 17.8109C17.1976 17.836 17.1339 17.8476 17.07 17.845H17C16.8923 17.832 16.7928 17.7805 16.72 17.7L15.895 16.825C15.8422 16.73 15.8217 16.6204 15.8368 16.5127C15.8518 16.4051 15.9016 16.3052 15.9784 16.2284C16.0553 16.1515 16.1551 16.1018 16.2627 16.0868C16.3704 16.0717 16.48 16.0921 16.575 16.145L17.075 16.645L18.87 14.735Z" fill="white"/>
<path fill-rule="evenodd" clip-rule="evenodd" d="M15.3888 19.5337C16.0877 20.0007 16.9094 20.25 17.75 20.25C18.3098 20.256 18.8652 20.1502 19.3835 19.9388C19.9019 19.7273 20.3728 19.4145 20.7686 19.0186C21.1645 18.6228 21.4773 18.1519 21.6888 17.6335C21.9002 17.1152 22.006 16.5598 22 16C22 15.1594 21.7507 14.3377 21.2837 13.6388C20.8168 12.9399 20.153 12.3952 19.3764 12.0735C18.5998 11.7518 17.7453 11.6677 16.9209 11.8317C16.0964 11.9957 15.3392 12.4004 14.7448 12.9948C14.1504 13.5892 13.7457 14.3464 13.5817 15.1709C13.4177 15.9953 13.5018 16.8498 13.8235 17.6264C14.1452 18.403 14.6899 19.0668 15.3888 19.5337ZM15.9444 13.2977C16.4789 12.9406 17.1072 12.75 17.75 12.75C18.1779 12.746 18.6023 12.8273 18.9984 12.9892C19.3946 13.1511 19.7544 13.3904 20.057 13.693C20.3596 13.9956 20.5989 14.3554 20.7608 14.7516C20.9227 15.1477 21.004 15.5721 21 16C21 16.6428 20.8094 17.2711 20.4523 17.8056C20.0952 18.3401 19.5876 18.7566 18.9937 19.0026C18.3999 19.2486 17.7464 19.313 17.116 19.1876C16.4855 19.0622 15.9064 18.7526 15.4519 18.2981C14.9974 17.8436 14.6879 17.2645 14.5624 16.634C14.437 16.0036 14.5014 15.3501 14.7474 14.7563C14.9934 14.1624 15.4099 13.6548 15.9444 13.2977Z" fill="white"/>
</svg>
