<?xml version="1.0" encoding="UTF-8"?>
<svg width="24px" height="24px" viewBox="0 0 24 24" version="1.1" xmlns="http://www.w3.org/2000/svg" xmlns:xlink="http://www.w3.org/1999/xlink">
    <g stroke="none" stroke-width="1" fill="none" fill-rule="evenodd">
        <path d="M77 21.7l-6.5-2.6c-.3-.1-.6-.1-.9 0L63 21.7c-.4.2-.6.5-.6.9V30c0 1.8.6 3.5 1.8 4.9 1 1.2 2.6 3.1 5.6 4h.6c2.8-.9 4.7-2.6 5.8-3.9.9-1.1 1.4-2.5 1.4-3.9v-8.6c0-.3-.2-.7-.6-.8zm-1.4 9.5c0 1-.3 1.9-.9 2.6-.9 1-2.4 2.4-4.6 3.2-2-.7-3.2-1.9-4.3-3.3-.9-1-1.3-2.3-1.3-3.6v-6.8l5.6-2.2 5.6 2.2v7.9z" fill="#273637" />
        <path d="M70 31.8c-.6 0-1 .5-1 1s.5 1 1 1c.6 0 1-.5 1-1s-.4-1-1-1zM69 25.2v4.3c0 .6.4 1 1 1s1-.4 1-1v-4.3c0-.6-.4-1-1-1-.5 0-1 .4-1 1zM11.1 12c0 .5.4 1 1 1 .5 0 .9-.4 1-.9l6.4-6.4c.3-.3.3-.8 0-1.1s-.8-.3-1.1 0l-.5.5C16.3 3.8 14.3 3 12.1 3c-5 0-9 4-9 9s4 9 9 9c2.5 0 4.7-1 6.3-2.6L17 17c-1.3 1.3-3 2-4.9 2-3.9 0-7-3.1-7-7s3.1-7 7-7c1.7 0 3.2.6 4.4 1.5L15 8c-.8-.6-1.8-1-2.9-1-2.8 0-5 2.2-5 5s2.2 5 5 5c1.4 0 2.6-.6 3.5-1.5l-1.4-1.4c-.5.5-1.3.9-2.1.9-1.6 0-3-1.3-3-3s1.3-3 3-3c.5 0 1.1.2 1.5.4L12 11c-.5.1-.9.5-.9 1z" fill="#273637" />
    </g>
</svg>
