<svg width="24" height="24" viewBox="0 0 24 24" fill="none" xmlns="http://www.w3.org/2000/svg">
<path d="M20.2929 10.2071C20.4804 10.3946 20.7348 10.5 21 10.5C21.2652 10.5 21.5196 10.3946 21.7071 10.2071C21.8946 10.0196 22 9.76522 22 9.5V3.5C22 3.10218 21.842 2.72064 21.5607 2.43934C21.2794 2.15804 20.8978 2 20.5 2H14.5C14.2348 2 13.9804 2.10536 13.7929 2.29289C13.6054 2.48043 13.5 2.73478 13.5 3C13.5 3.26522 13.6054 3.51957 13.7929 3.70711C13.9804 3.89464 14.2348 4 14.5 4H20V9.5C20 9.76522 20.1054 10.0196 20.2929 10.2071Z" fill="#273637"/>
<path d="M5.1 19.06H7.88C7.90254 19.0759 7.93049 19.0822 7.95768 19.0775C7.98487 19.0729 8.00909 19.0576 8.025 19.035C8.04091 19.0125 8.04722 18.9845 8.04253 18.9573C8.03784 18.9301 8.02254 18.9059 8 18.89L5.17 16.11C5.15602 16.0963 5.13833 16.087 5.11912 16.0833C5.0999 16.0795 5.08002 16.0815 5.06191 16.089C5.04381 16.0964 5.0283 16.109 5.01729 16.1252C5.00629 16.1414 5.00028 16.1604 5 16.18V19C5.00937 19.0184 5.02371 19.0337 5.04139 19.0444C5.05908 19.055 5.07938 19.0604 5.1 19.06Z" fill="#273637"/>
<path d="M12.1002 9.00002H14.8802C14.8937 8.99841 14.9075 8.99989 14.9203 9.00435C14.9332 9.0088 14.9449 9.01612 14.9545 9.02575C14.9641 9.03537 14.9714 9.04706 14.9759 9.05993C14.9803 9.07279 14.9818 9.0865 14.9802 9.10002V11.9C14.981 11.9189 14.9757 11.9376 14.9653 11.9533C14.9548 11.9691 14.9396 11.9812 14.9219 11.9878C14.9042 11.9944 14.8848 11.9953 14.8666 11.9903C14.8483 11.9854 14.8321 11.9747 14.8202 11.96L12.0002 9.18002C11.9764 9.16676 11.9587 9.14456 11.9512 9.1183C11.9437 9.09205 11.947 9.06389 11.9602 9.04002C11.9735 9.01615 11.9957 8.99852 12.0219 8.99102C12.0482 8.98352 12.0764 8.98676 12.1002 9.00002Z" fill="#273637"/>
<path fill-rule="evenodd" clip-rule="evenodd" d="M9.43934 6.43934C9.72064 6.15804 10.1022 6 10.5 6H16.5C16.8978 6 17.2794 6.15804 17.5607 6.43934C17.842 6.72064 18 7.10218 18 7.5V13.5C18 13.8978 17.842 14.2794 17.5607 14.5607C17.2794 14.842 16.8978 15 16.5 15H11V20.5C11 20.8978 10.842 21.2794 10.5607 21.5607C10.2794 21.842 9.89782 22 9.5 22H3.5C3.10218 22 2.72064 21.842 2.43934 21.5607C2.15804 21.2794 2 20.8978 2 20.5V14.5C2 14.1022 2.15804 13.7206 2.43934 13.4393C2.72064 13.158 3.10218 13 3.5 13H9V7.5C9 7.10218 9.15804 6.72064 9.43934 6.43934ZM4 20H9V15H4V20ZM11 8V13H16V8H11Z" fill="#273637"/>
</svg>
