<?xml version="1.0" encoding="UTF-8"?>
<svg width="24px" height="24px" viewBox="0 0 24 24" version="1.1" xmlns="http://www.w3.org/2000/svg" xmlns:xlink="http://www.w3.org/1999/xlink">
    <title>Icons/Large Set/Recovery Task Details Report</title>
    <g id="Icons/Large-Set/Recovery-Task-Details-Report" stroke="none" stroke-width="1" fill="none" fill-rule="evenodd">
        <path d="M19.2121212,2 C19.9225152,2 20.5,2.5605 20.5,3.25 L20.5,3.25 L20.5,20.75 C20.5,21.4395 19.9225152,22 19.2121212,22 L19.2121212,22 L4.78787879,22 C4.07748485,22 3.5,21.4395 3.5,20.75 L3.5,20.75 L3.5,7.665 C3.5,7.453 3.57160606,7.242 3.70193939,7.071 L3.70193939,7.071 L7.10915152,2.607 C7.40021212,2.2265 7.86436364,2 8.35118182,2 L8.35118182,2 Z M19.2121212,3 L8.86633333,3 L8.86633333,6.665 C8.86633333,7.492 8.17293939,8.165 7.32087879,8.165 L7.32087879,8.165 L4.53030303,8.165 L4.53030303,20.75 C4.53030303,20.8875 4.64621212,21 4.78787879,21 L4.78787879,21 L19.2121212,21 C19.3537879,21 19.469697,20.8875 19.469697,20.75 L19.469697,20.75 L19.469697,3.25 C19.469697,3.1125 19.3537879,3 19.2121212,3 L19.2121212,3 Z M12.5086091,8 C15.0653061,8 17.1449727,10.0185 17.1449727,12.5 C17.1449727,14.9815 15.0653061,17 12.5086091,17 C10.1255182,17 8.1586697,15.245 7.90263939,12.9975 L7.90263939,12.9975 L7.08921515,12.9975 C6.9027303,12.9975 6.78630606,12.813 6.87903333,12.665 L6.87903333,12.665 L8.17979091,10.611 C8.27251818,10.463 8.50639697,10.463 8.60015455,10.611 L8.60015455,10.611 L9.90039697,12.665 C9.99363939,12.813 9.87721515,12.9975 9.6897,12.9975 L9.6897,12.9975 L8.94324545,12.9975 C9.19309394,14.692 10.6947606,16 12.5086091,16 C14.4965788,16 16.1146697,14.4295 16.1146697,12.5 C16.1146697,10.5705 14.4965788,9 12.5086091,9 C11.9965485,9 11.5014879,9.102 11.0378515,9.3035 C10.7761545,9.4155 10.4727303,9.3025 10.3568212,9.051 C10.2409121,8.799 10.3573364,8.503 10.6169727,8.3905 C11.2140333,8.1315 11.8507606,8 12.5086091,8 Z M7.8360303,3.3345 L4.9120303,7.165 L7.32087879,7.165 C7.60524242,7.165 7.8360303,6.9405 7.8360303,6.665 L7.8360303,6.665 L7.8360303,3.3345 Z" id="Combined-Shape" fill="#273637"></path>
    </g>
</svg>