<svg width="24" height="24" viewBox="0 0 24 24" fill="none" xmlns="http://www.w3.org/2000/svg">
<path d="M6.302 19.2303C6.10234 19.0496 6.10311 18.7399 6.29349 18.5496C6.48388 18.3592 6.7917 18.3603 6.99235 18.5399C8.40402 19.8028 10.1905 20.5782 12.0863 20.7423C14.1444 20.9204 16.1994 20.3668 17.8894 19.1788C19.5794 17.9908 20.7961 16.2446 21.3253 14.2478C21.8544 12.2509 21.6621 10.1314 20.7822 8.26235C19.9023 6.39332 18.3912 4.89465 16.515 4.03022C14.6388 3.16578 12.5177 2.991 10.5253 3.53664C8.53285 4.08229 6.79681 5.31339 5.62282 7.01316C4.6067 8.48436 4.06803 10.225 4.06806 12H5.2584C5.56431 12 5.74152 12.3466 5.56241 12.5946L3.82453 15.0008C3.67485 15.2081 3.3662 15.2081 3.21652 15.0008L1.47864 12.5946C1.29953 12.3466 1.47673 12 1.78265 12H3.09306C3.09303 10.0278 3.69155 8.09373 4.82057 6.45907C6.125 4.57043 8.05394 3.20255 10.2677 2.59627C12.4816 1.99 14.8383 2.1842 16.923 3.14468C19.0077 4.10517 20.6867 5.77036 21.6644 7.84705C22.642 9.92375 22.8557 12.2788 22.2677 14.4975C21.6798 16.7163 20.3279 18.6564 18.4501 19.9764C16.5723 21.2964 14.289 21.9116 12.0022 21.7137C9.8777 21.5298 7.87674 20.655 6.302 19.2303Z" fill="white"/>
<path fill-rule="evenodd" clip-rule="evenodd" d="M11.625 15V16.0312C11.625 16.1866 11.4991 16.3125 11.3438 16.3125C11.1884 16.3125 11.0625 16.1866 11.0625 16.0312V15H10.5C10.1894 15 9.93752 14.7482 9.93752 14.4375V13.875H8.90627C8.75094 13.875 8.62502 13.7491 8.62502 13.5938C8.62502 13.4384 8.75094 13.3125 8.90627 13.3125H9.93752V12.1875H8.90627C8.75094 12.1875 8.62502 12.0616 8.62502 11.9062C8.62502 11.7509 8.75094 11.625 8.90627 11.625H9.93752V10.5H8.90627C8.75094 10.5 8.62502 10.3741 8.62502 10.2188C8.62502 10.0634 8.75094 9.9375 8.90627 9.9375H9.93752V9.375C9.93752 9.06434 10.1894 8.8125 10.5 8.8125H11.0625V7.78125C11.0625 7.62592 11.1884 7.5 11.3438 7.5C11.4991 7.5 11.625 7.62592 11.625 7.78125V8.8125H12.75V7.78125C12.75 7.62592 12.8759 7.5 13.0313 7.5C13.1866 7.5 13.3125 7.62592 13.3125 7.78125V8.8125H14.4375V7.78125C14.4375 7.62592 14.5634 7.5 14.7188 7.5C14.8741 7.5 15 7.62592 15 7.78125V8.8125H15.5625C15.8732 8.8125 16.125 9.06434 16.125 9.375V9.9375H17.1563C17.3116 9.9375 17.4375 10.0634 17.4375 10.2188C17.4375 10.3741 17.3116 10.5 17.1563 10.5H16.125V11.625H17.1563C17.3116 11.625 17.4375 11.7509 17.4375 11.9062C17.4375 12.0616 17.3116 12.1875 17.1563 12.1875H16.125V13.3125H17.1563C17.3116 13.3125 17.4375 13.4384 17.4375 13.5938C17.4375 13.7491 17.3116 13.875 17.1563 13.875H16.125V14.4375C16.125 14.7482 15.8732 15 15.5625 15H15V16.0312C15 16.1866 14.8741 16.3125 14.7188 16.3125C14.5634 16.3125 14.4375 16.1866 14.4375 16.0312V15H13.3125V16.0312C13.3125 16.1866 13.1866 16.3125 13.0313 16.3125C12.8759 16.3125 12.75 16.1866 12.75 16.0312V15H11.625ZM15.5625 14.4375V9.375H10.5V14.4375H15.5625Z" fill="white"/>
</svg>
