<svg width="24" height="24" viewBox="0 0 24 24" fill="none" xmlns="http://www.w3.org/2000/svg">
<path d="M6.302 19.2303C6.10234 19.0496 6.10311 18.7399 6.29349 18.5496C6.48388 18.3592 6.7917 18.3603 6.99235 18.5399C8.40402 19.8028 10.1905 20.5782 12.0863 20.7423C14.1444 20.9204 16.1994 20.3668 17.8894 19.1788C19.5794 17.9908 20.7961 16.2446 21.3253 14.2478C21.8544 12.2509 21.6621 10.1314 20.7822 8.26235C19.9023 6.39332 18.3912 4.89465 16.515 4.03022C14.6388 3.16578 12.5177 2.991 10.5253 3.53664C8.53285 4.08229 6.79681 5.31339 5.62282 7.01316C4.6067 8.48436 4.06803 10.225 4.06806 12H5.2584C5.56431 12 5.74152 12.3466 5.56241 12.5946L3.82453 15.0008C3.67485 15.2081 3.3662 15.2081 3.21652 15.0008L1.47864 12.5946C1.29953 12.3466 1.47673 12 1.78265 12H3.09306C3.09303 10.0278 3.69155 8.09373 4.82057 6.45907C6.125 4.57043 8.05394 3.20255 10.2677 2.59627C12.4816 1.99 14.8383 2.1842 16.923 3.14468C19.0077 4.10517 20.6867 5.77036 21.6644 7.84705C22.642 9.92375 22.8557 12.2788 22.2677 14.4975C21.6798 16.7163 20.3279 18.6564 18.4501 19.9764C16.5723 21.2964 14.289 21.9116 12.0022 21.7137C9.8777 21.5298 7.87674 20.655 6.302 19.2303Z" fill="white"/>
<path fill-rule="evenodd" clip-rule="evenodd" d="M14.6002 12C14.6002 12.8802 13.8866 13.5938 13.0064 13.5938C12.1262 13.5938 11.4127 12.8802 11.4127 12C11.4127 11.1198 12.1262 10.4062 13.0064 10.4062C13.8866 10.4062 14.6002 11.1198 14.6002 12ZM14.0377 12C14.0377 12.5695 13.5759 13.0313 13.0064 13.0313C12.4369 13.0313 11.9752 12.5695 11.9752 12C11.9752 11.4305 12.4369 10.9688 13.0064 10.9688C13.5759 10.9688 14.0377 11.4305 14.0377 12Z" fill="white"/>
<path fill-rule="evenodd" clip-rule="evenodd" d="M16.5505 11.7518V12.245L17.1597 12.8026C17.2722 12.9012 17.3468 13.0359 17.3709 13.1835C17.3951 13.3311 17.3671 13.4824 17.2919 13.6117L16.5569 14.9011C16.5004 14.999 16.4191 15.0803 16.3212 15.1369C16.2234 15.1935 16.1123 15.2233 15.9993 15.2234C15.9292 15.2239 15.8595 15.2131 15.793 15.1912L15.0129 14.9269C14.8766 15.0167 14.7344 15.0975 14.5874 15.1686L14.423 15.9809C14.3935 16.1293 14.3128 16.2626 14.195 16.3575C14.0771 16.4524 13.9296 16.5028 13.7783 16.4999H12.2569C12.1056 16.5028 11.9581 16.4524 11.8403 16.3575C11.7224 16.2626 11.6417 16.1293 11.6122 15.9809L11.4478 15.1686C11.3019 15.0975 11.1608 15.0167 11.0256 14.9269L10.2423 15.1912C10.1757 15.2131 10.106 15.2239 10.036 15.2234C9.92291 15.2233 9.81187 15.1935 9.714 15.1369C9.61612 15.0803 9.53484 14.999 9.47831 14.9011L8.71759 13.6117C8.6389 13.4812 8.60901 13.327 8.6332 13.1765C8.65739 13.0261 8.73411 12.889 8.84975 12.7897L9.45897 12.2482V11.755L8.84975 11.1974C8.73729 11.0988 8.66261 10.9641 8.6385 10.8165C8.61439 10.6689 8.64235 10.5175 8.71759 10.3883L9.47831 9.09893C9.53484 9.00102 9.61612 8.9197 9.714 8.86313C9.81187 8.80655 9.92291 8.77671 10.036 8.77659C10.1053 8.77187 10.175 8.7784 10.2423 8.79593L11.0094 9.07314C11.1458 8.98326 11.2879 8.9025 11.4349 8.83139L11.5993 8.01909C11.6288 7.87068 11.7095 7.73737 11.8274 7.6425C11.9452 7.54762 12.0927 7.49722 12.244 7.50012H13.7526C13.9038 7.49722 14.0513 7.54762 14.1692 7.6425C14.287 7.73737 14.3678 7.87068 14.3972 8.01909L14.5616 8.83139C14.7076 8.90251 14.8487 8.98328 14.9839 9.07314L15.7672 8.80882C15.8337 8.78694 15.9034 8.77605 15.9735 8.77659C16.0865 8.77671 16.1976 8.80655 16.2955 8.86313C16.3933 8.9197 16.4746 9.00102 16.5311 9.09893L17.2919 10.3883C17.3717 10.5177 17.4031 10.6712 17.3807 10.8217C17.3583 10.9721 17.2835 11.1097 17.1694 11.2103L16.5505 11.7518ZM14.8679 14.2048L15.9735 14.5787L16.7342 13.2894L15.8574 12.4932C15.917 12.1595 15.917 11.8179 15.8574 11.4843L16.7342 10.7106L15.9735 9.42127L14.8646 9.78229C14.6049 9.56605 14.3107 9.39498 13.9943 9.27622L13.7655 8.13191H12.244L12.0151 9.28911C11.6962 9.40459 11.4004 9.57596 11.1416 9.79519L10.036 9.42127L9.27524 10.7106L10.152 11.5068C10.0924 11.8405 10.0924 12.1821 10.152 12.5157L9.27524 13.2894L10.036 14.5787L11.1448 14.2177C11.4045 14.434 11.6987 14.605 12.0151 14.7238L12.244 15.8681H13.7655L13.9943 14.7109C14.3132 14.5954 14.609 14.424 14.8679 14.2048Z" fill="white"/>
</svg>
