<svg width="24" height="24" viewBox="0 0 24 24" fill="none" xmlns="http://www.w3.org/2000/svg">
<path d="M6.302 19.2303C6.10234 19.0496 6.10311 18.7399 6.29349 18.5496C6.48388 18.3592 6.7917 18.3603 6.99235 18.5399C8.40402 19.8028 10.1905 20.5782 12.0863 20.7423C14.1444 20.9204 16.1994 20.3668 17.8894 19.1788C19.5794 17.9908 20.7961 16.2446 21.3253 14.2478C21.8544 12.2509 21.6621 10.1314 20.7822 8.26235C19.9023 6.39332 18.3912 4.89465 16.515 4.03022C14.6388 3.16578 12.5177 2.991 10.5253 3.53664C8.53285 4.08229 6.79681 5.31339 5.62282 7.01316C4.6067 8.48436 4.06803 10.225 4.06806 12H5.2584C5.56431 12 5.74152 12.3466 5.56241 12.5946L3.82453 15.0008C3.67485 15.2081 3.3662 15.2081 3.21652 15.0008L1.47864 12.5946C1.29953 12.3466 1.47673 12 1.78265 12H3.09306C3.09303 10.0278 3.69155 8.09373 4.82057 6.45907C6.125 4.57043 8.05394 3.20255 10.2677 2.59627C12.4816 1.99 14.8383 2.1842 16.923 3.14468C19.0077 4.10517 20.6867 5.77036 21.6644 7.84705C22.642 9.92375 22.8557 12.2788 22.2677 14.4975C21.6798 16.7163 20.3279 18.6564 18.4501 19.9764C16.5723 21.2964 14.289 21.9116 12.0022 21.7137C9.8777 21.5298 7.87674 20.655 6.302 19.2303Z" fill="white"/>
<path d="M13.8742 14.3061L13.8813 14.3004L16.1038 12.0778C16.2207 11.961 16.2207 11.7715 16.1038 11.6546C15.9869 11.5378 15.7975 11.5378 15.6806 11.6546L13.6721 13.6631L12.6148 12.6058C12.498 12.489 12.3085 12.489 12.1916 12.6058C12.0748 12.7227 12.0748 12.9122 12.1916 13.029L13.6718 14.5092L13.8742 14.3061Z" fill="white"/>
<path fill-rule="evenodd" clip-rule="evenodd" d="M15.5857 9.54519H17.0625C17.3732 9.54519 17.625 9.79703 17.625 10.1077V15.9372C17.625 16.2479 17.3732 16.4997 17.0625 16.4997H11.233C10.9223 16.4997 10.6705 16.2479 10.6705 15.9372V14.4606H9.18752C8.87686 14.4606 8.62502 14.2088 8.62502 13.8981V8.0625C8.62502 7.75184 8.87686 7.5 9.18752 7.5H15.0232C15.3338 7.5 15.5857 7.75184 15.5857 8.0625V9.54519ZM11.233 9.54519C10.9223 9.54519 10.6705 9.79703 10.6705 10.1077V13.8981H9.18752L9.18752 8.0625L15.0232 8.0625V9.54519H11.233ZM17.0625 10.1077H11.233V15.9372H17.0625V10.1077Z" fill="white"/>
</svg>
