<svg width="24" height="24" viewBox="0 0 24 24" fill="none" xmlns="http://www.w3.org/2000/svg">
<path fill-rule="evenodd" clip-rule="evenodd" d="M10.5839 7.7858L9.09563 9.778C9.03393 9.86071 9.00002 9.9627 9.00002 10.0654V15.905C9.00002 16.2336 9.26925 16.5 9.59971 16.5H15.9003C16.2308 16.5 16.5 16.2336 16.5 15.905V8.09504C16.5 7.76644 16.2308 7.5 15.9003 7.5H11.1562C10.9319 7.5 10.7181 7.60656 10.5839 7.7858ZM9.52433 15.905V10.3257H10.7061C11.0985 10.3257 11.4183 10.0091 11.4183 9.61909V8.02066H15.9003C15.9421 8.02066 15.9757 8.05457 15.9757 8.09504V15.905C15.9757 15.9454 15.9421 15.9793 15.9003 15.9793H9.59971C9.55798 15.9793 9.52433 15.9454 9.52433 15.905ZM10.7061 9.80504H9.7281L10.894 8.24452V9.61909C10.894 9.72117 10.8102 9.80504 10.7061 9.80504Z" fill="white"/>
<path d="M10.6894 14.2983C10.6894 14.4421 10.573 14.5586 10.4295 14.5586C10.2859 14.5586 10.1696 14.4421 10.1696 14.2983C10.1696 14.1545 10.2859 14.038 10.4295 14.038C10.573 14.038 10.6894 14.1545 10.6894 14.2983Z" fill="white"/>
<path d="M11.2463 14.2983C11.2463 14.1443 11.371 14.0194 11.5248 14.0194H15.052C15.2058 14.0194 15.3305 14.1443 15.3305 14.2983C15.3305 14.4523 15.2058 14.5772 15.052 14.5772H11.5248C11.371 14.5772 11.2463 14.4523 11.2463 14.2983Z" fill="white"/>
<path d="M10.6894 12.9966C10.6894 13.1404 10.573 13.257 10.4295 13.257C10.2859 13.257 10.1696 13.1404 10.1696 12.9966C10.1696 12.8529 10.2859 12.7363 10.4295 12.7363C10.573 12.7363 10.6894 12.8529 10.6894 12.9966Z" fill="white"/>
<path d="M11.2463 12.9966C11.2463 12.8426 11.371 12.7177 11.5248 12.7177H15.052C15.2058 12.7177 15.3305 12.8426 15.3305 12.9966C15.3305 13.1507 15.2058 13.2756 15.052 13.2756H11.5248C11.371 13.2756 11.2463 13.1507 11.2463 12.9966Z" fill="white"/>
<path d="M10.6894 11.695C10.6894 11.8388 10.573 11.9553 10.4295 11.9553C10.2859 11.9553 10.1696 11.8388 10.1696 11.695C10.1696 11.5512 10.2859 11.4347 10.4295 11.4347C10.573 11.4347 10.6894 11.5512 10.6894 11.695Z" fill="white"/>
<path d="M11.2463 11.695C11.2463 11.5409 11.371 11.4161 11.5248 11.4161H15.052C15.2058 11.4161 15.3305 11.5409 15.3305 11.695C15.3305 11.849 15.2058 11.9739 15.052 11.9739H11.5248C11.371 11.9739 11.2463 11.849 11.2463 11.695Z" fill="white"/>
<path d="M6.302 19.2303C6.10234 19.0496 6.10311 18.7399 6.29349 18.5496C6.48388 18.3592 6.7917 18.3603 6.99235 18.5399C8.40402 19.8028 10.1905 20.5782 12.0863 20.7423C14.1444 20.9204 16.1994 20.3668 17.8894 19.1788C19.5794 17.9908 20.7961 16.2446 21.3253 14.2478C21.8544 12.2509 21.6621 10.1314 20.7822 8.26235C19.9023 6.39332 18.3912 4.89465 16.515 4.03022C14.6388 3.16578 12.5177 2.991 10.5253 3.53664C8.53285 4.08229 6.79681 5.31339 5.62282 7.01316C4.6067 8.48436 4.06803 10.225 4.06806 12H5.2584C5.56431 12 5.74152 12.3466 5.56241 12.5946L3.82453 15.0008C3.67485 15.2081 3.3662 15.2081 3.21652 15.0008L1.47864 12.5946C1.29953 12.3466 1.47673 12 1.78265 12H3.09306C3.09303 10.0278 3.69155 8.09373 4.82057 6.45907C6.125 4.57043 8.05394 3.20255 10.2677 2.59627C12.4816 1.99 14.8383 2.1842 16.923 3.14468C19.0077 4.10517 20.6867 5.77036 21.6644 7.84705C22.642 9.92375 22.8557 12.2788 22.2677 14.4975C21.6798 16.7163 20.3279 18.6564 18.4501 19.9764C16.5723 21.2964 14.289 21.9116 12.0022 21.7137C9.8777 21.5298 7.87674 20.655 6.302 19.2303Z" fill="white"/>
</svg>
