<?xml version="1.0" encoding="UTF-8"?>
<svg width="24px" height="24px" viewBox="0 0 24 24" version="1.1" xmlns="http://www.w3.org/2000/svg" xmlns:xlink="http://www.w3.org/1999/xlink">
    <title>Icons/Full Set/General/Return</title>
    <g id="Icons/Full-Set/General/Return" stroke="none" stroke-width="1" fill="none" fill-rule="evenodd">
        <path d="M19,7 C18.4,7 18,7.4 18,8 L18,11 L6.4,11 L8.7,8.7 C9.1,8.3 9.1,7.7 8.7,7.3 C8.3,6.9 7.7,6.9 7.3,7.3 L3.2,11.4 C2.8,11.8 2.8,12.4 3.2,12.8 L7.2,16.8 C7.5,16.9 7.8,17 8,17 C8.2,17 8.5,16.9 8.7,16.7 C9.1,16.3 9.1,15.7 8.7,15.3 L6.4,13 L19,13 C19.6,13 20,12.6 20,12 L20,8 C20,7.4 19.5,7 19,7 Z" id="Path" fill="#273637"></path>
    </g>
</svg>
