<svg width="24" height="24" viewBox="0 0 24 24" fill="none" xmlns="http://www.w3.org/2000/svg">
<path d="M8.48461 3.79075C8.57446 3.61209 8.75308 3.5 8.9479 3.5H15.0536C15.342 3.5 15.5757 3.7416 15.5757 4.03964C15.5757 4.33767 15.342 4.57927 15.0536 4.57927H9.26496L8.21561 6.66563L3.76533 6.61915C3.36663 6.61507 3.04429 6.93882 3.04429 7.42856V16.9369C3.04429 17.235 2.81052 17.4766 2.52214 17.4766C2.23377 17.4766 2 17.235 2 16.9369V7.42856C2 6.4177 2.72248 5.52915 3.77567 5.53993L7.58483 5.57971L8.48461 3.79075Z" fill="black"/>
<path fill-rule="evenodd" clip-rule="evenodd" d="M16.598 14.4007C16.598 16.1889 15.1954 17.6385 13.4652 17.6385C11.7349 17.6385 10.3323 16.1889 10.3323 14.4007C10.3323 12.6125 11.7349 11.1628 13.4652 11.1628C15.1954 11.1628 16.598 12.6125 16.598 14.4007ZM15.5537 14.4007C15.5537 15.5928 14.6187 16.5592 13.4652 16.5592C12.3117 16.5592 11.3766 15.5928 11.3766 14.4007C11.3766 13.2085 12.3117 12.2421 13.4652 12.2421C14.6187 12.2421 15.5537 13.2085 15.5537 14.4007Z" fill="black"/>
<path fill-rule="evenodd" clip-rule="evenodd" d="M10.6252 6.74138L16.3051 6.74137C16.5051 6.74137 16.6874 6.85937 16.7748 7.04524L17.4944 8.57652L20.4369 8.58304C21.3007 8.58496 22 9.3092 22 10.2019V18.8811C22 19.7752 21.2987 20.5 20.4336 20.5H6.49679C5.63168 20.5 4.93036 19.7752 4.93036 18.8811V10.2019C4.93036 9.30921 5.62963 8.58496 6.49343 8.58304L9.43592 8.57652L10.1556 7.04524C10.2429 6.85937 10.4253 6.74138 10.6252 6.74138ZM10.9521 7.82065L10.0903 9.65435L6.49567 9.66231C6.20774 9.66295 5.97465 9.90437 5.97465 10.2019V18.8811C5.97465 19.1791 6.20842 19.4207 6.49679 19.4207H20.4336C20.7219 19.4207 20.9557 19.1791 20.9557 18.8811V10.2019C20.9557 9.90437 20.7226 9.66295 20.4347 9.66231L16.84 9.65435L15.9783 7.82065L10.9521 7.82065Z" fill="black"/>
</svg>
