<svg width="24" height="24" viewBox="0 0 24 24" fill="none" xmlns="http://www.w3.org/2000/svg">
<path d="M11.2527 20.3H16.5C19.5 20.3 22 17.8 22 14.8C22 12.9 21 11.1 19.3 10.1C19.1 6.7 16.3 4 12.9 4C10.6243 4 8.51427 5.24294 7.39972 7.12538C7.59758 7.10858 7.79779 7.10001 8 7.10001C8.59223 7.10001 9.16729 7.17355 9.71653 7.31201C10.5087 6.42925 11.6382 5.9 12.9 5.9C15.3 5.9 17.3 7.9 17.4 10.3V10.5L17.3 11.3L17.9 11.6C19.2 12.2 20 13.4 20 14.8C20 16.7 18.4 18.3 16.5 18.3H13.6005C12.9782 19.1285 12.1763 19.8144 11.2527 20.3Z" fill="#273637"/>
<path d="M5.9142 12.7213L4.81802 11.6251L5.52512 10.918L6.62131 12.0142C6.88371 11.8404 7.18081 11.7148 7.5 11.65V10.1H8.5V11.65C8.81919 11.7148 9.11629 11.8404 9.37869 12.0142L10.4749 10.918L11.182 11.6251L10.0858 12.7213C10.2596 12.9837 10.3852 13.2808 10.45 13.6H12V14.6H10.45C10.3852 14.9192 10.2596 15.2163 10.0858 15.4787L11.182 16.5749L10.4749 17.282L9.3787 16.1858C9.1163 16.3596 8.81919 16.4852 8.5 16.55V18.1H7.5V16.55C7.18081 16.4852 6.8837 16.3596 6.6213 16.1858L5.52512 17.282L4.81802 16.5749L5.9142 15.4787C5.7404 15.2163 5.6148 14.9192 5.55001 14.6H4V13.6H5.55001C5.6148 13.2808 5.7404 12.9837 5.9142 12.7213Z" fill="#273637"/>
<path fill-rule="evenodd" clip-rule="evenodd" d="M14 14.1C14 17.4137 11.3137 20.1 8 20.1C4.68629 20.1 2 17.4137 2 14.1C2 10.7863 4.68629 8.10001 8 8.10001C11.3137 8.10001 14 10.7863 14 14.1ZM12.5 14.1C12.5 16.5853 10.4853 18.6 8 18.6C5.51472 18.6 3.5 16.5853 3.5 14.1C3.5 11.6147 5.51472 9.60001 8 9.60001C10.4853 9.60001 12.5 11.6147 12.5 14.1Z" fill="#273637"/>
</svg>
