<?xml version="1.0" encoding="UTF-8"?>
<svg width="24px" height="24px" viewBox="0 0 24 24" version="1.1" xmlns="http://www.w3.org/2000/svg" xmlns:xlink="http://www.w3.org/1999/xlink">
    <title>Icons/Full Set/General / Safe for Recovery</title>
    <g id="Icons/Full-Set/General-/-Safe-for-Recovery" stroke="none" stroke-width="1" fill="none" fill-rule="evenodd">
        <path d="M12,1.9995 C15.87,1.9995 19,5.1295 19,8.9995 C19,10.9295 18.23,12.6605 16.97,13.9295 L16.97,13.9295 L17.74,20.8895 C17.79,21.2695 17.61,21.6395 17.29,21.8395 C17.13,21.9505 16.94,21.9995 16.75,21.9995 C16.57,21.9995 16.39,21.9505 16.24,21.8605 L16.24,21.8605 L12,19.3205 L7.76,21.8605 C7.44,22.0495 7.03,22.0495 6.71,21.8395 C6.39,21.6395 6.21,21.2695 6.26,20.8895 L6.26,20.8895 L7.03,13.9295 C5.77,12.6605 5,10.9295 5,8.9995 C5,5.1295 8.13,1.9995 12,1.9995 Z M15.11,15.2695 C14.18,15.7405 13.12,15.9995 12,15.9995 C10.88,15.9995 9.82,15.7405 8.89,15.2695 L8.89,15.2695 L8.47,19.0995 L11.49,17.2895 C11.8,17.0995 12.2,17.0995 12.51,17.2895 L12.51,17.2895 L15.53,19.0995 Z M12,3.9995 C9.24,3.9995 7,6.2405 7,8.9995 C7,10.3495 7.53,11.5705 8.4,12.4695 C8.62,12.7005 8.87,12.9105 9.13,13.0995 C9.94,13.6695 10.93,13.9995 12,13.9995 C13.07,13.9995 14.06,13.6695 14.87,13.0995 C15.13,12.9105 15.38,12.7005 15.6,12.4695 C16.47,11.5705 17,10.3495 17,8.9995 C17,6.2405 14.76,3.9995 12,3.9995 Z M15.0592,6.7429 C15.3742,7.0119 15.4132,7.4839 15.1442,7.7999 L12.0102,11.4849 C11.8812,11.6379 11.6972,11.7309 11.4992,11.7479 L11.4392,11.7499 L11.4392,11.7499 C11.2612,11.7499 11.0882,11.6869 10.9522,11.5699 L8.9392,9.8539 C8.6252,9.5849 8.5872,9.1109 8.8552,8.7969 C9.1252,8.4819 9.5982,8.4429 9.9132,8.7129 L11.3542,9.9419 L14.0022,6.8289 C14.2702,6.5129 14.7432,6.4749 15.0592,6.7429 Z" id="Combined-Shape" fill="#273637"></path>
    </g>
</svg>