<svg width="24" height="24" viewBox="0 0 24 24" fill="none" xmlns="http://www.w3.org/2000/svg">
<path d="M11.61 5.75996L8.43001 7.11996C8.25537 7.19374 8.10531 7.31563 7.9973 7.47144C7.8893 7.62725 7.82781 7.81054 7.82001 7.99996V12H12V5.67996C11.8657 5.67751 11.7325 5.70484 11.61 5.75996Z" fill="#273637"/>
<path d="M12 18.12L12 12L16.22 12V14.89C16.2187 15.1155 16.1412 15.334 16 15.51C14.9622 16.5212 13.7708 17.3616 12.47 18C12.3256 18.0779 12.1641 18.1192 12 18.12Z" fill="#273637"/>
<path fill-rule="evenodd" clip-rule="evenodd" d="M12 22C11.866 21.9997 11.7333 21.9725 11.61 21.92C10.39 21.4 4.32001 18.63 4.32001 15.28V6.36997C4.3255 5.98757 4.44052 5.61475 4.65143 5.29572C4.86235 4.97669 5.16031 4.72482 5.51001 4.56997L11 2.19997C11.3148 2.05992 11.6555 1.98755 12 1.98755C12.3445 1.98755 12.6852 2.05992 13 2.19997L18.53 4.56997C18.8797 4.72482 19.1777 4.97669 19.3886 5.29572C19.5995 5.61475 19.7145 5.98757 19.72 6.36997V15.28C19.72 18.63 13.65 21.4 12.43 21.92C12.2943 21.978 12.1475 22.0054 12 22ZM12 3.99997C11.9438 3.98964 11.8862 3.98964 11.83 3.99997L6.29001 6.40997V15.28C6.29001 16.7 9.55001 18.79 11.97 19.91C14.39 18.79 17.65 16.7 17.65 15.28V6.36997L12.17 3.99997C12.1138 3.98964 12.0562 3.98964 12 3.99997Z" fill="#273637"/>
</svg>
