<svg width="24" height="24" fill="none" xmlns="http://www.w3.org/2000/svg"><path fill-rule="evenodd" clip-rule="evenodd" d="M14.135 9.53v-.895A4.641 4.641 0 0 0 9.5 4a4.641 4.641 0 0 0-4.635 4.635v.895H3.8c-.755 0-1.3.55-1.3 1.3v2.41c0 3.86 3.14 7 7 7 .038 0 .075-.003.111-.005.035-.003.07-.005.104-.005v-1c-.038 0-.075.003-.111.005-.035.003-.07.005-.104.005-3.31 0-6-2.69-6-6v-2.41c0-.205.095-.3.3-.3h10.135c.48-.475 1.015-.785 1.735-.87l-.033-.016c-.15-.07-.242-.114-.442-.114h-1.06Zm-8.27 0h7.27v-.895A3.638 3.638 0 0 0 9.5 5a3.638 3.638 0 0 0-3.635 3.635v.895Z" fill="#fff"/><path d="M8.16 13.77c0-.715.625-1.34 1.34-1.34.715 0 1.34.625 1.34 1.34 0 .355-.18.715-.445.98v1.695c0 .535-.355.89-.89.89s-.89-.355-.89-.89V14.75c-.27-.27-.445-.625-.445-.98h-.01Z" fill="#fff"/><path fill-rule="evenodd" clip-rule="evenodd" d="M13.745 12.8c0-1.35 1.075-2.42 2.42-2.42 1.35 0 2.42 1.07 2.42 2.42 0 1.35-1.07 2.42-2.42 2.42-1.35 0-2.42-1.07-2.42-2.42Zm3.84 0c0-.795-.625-1.42-1.42-1.42-.795 0-1.42.625-1.42 1.42 0 .795.635 1.42 1.42 1.42.785 0 1.42-.625 1.42-1.42Zm-7.015 5.49a7.209 7.209 0 0 1 5.615-2.68l-.01-.005c.685 0 1.375.1 2.055.3.865.28 1.66.69 2.385 1.245.025.025.045.05.064.073.035.042.066.08.111.102.24.205.485.45.69.69l.06.062c.08.083.159.164.215.248a.31.31 0 0 1 .076.155c.009.03.017.06.03.085v1.555H10.464v-1.555c0-.1.035-.205.105-.275Zm7.365-1.43a6.17 6.17 0 0 0-1.75-.25h-.005a6.16 6.16 0 0 0-4.715 2.165v.345h9.395v-.31c-.025-.03-.06-.065-.085-.09l-.025-.025-.025-.03a5.394 5.394 0 0 0-.53-.54 1.35 1.35 0 0 1-.255-.24 6.918 6.918 0 0 0-2.005-1.025Z" fill="#fff"/></svg>