<svg width="24" height="24" viewBox="0 0 24 24" fill="none" xmlns="http://www.w3.org/2000/svg">
<path fill-rule="evenodd" clip-rule="evenodd" d="M12 3C12.3045 3 12.5775 3.18786 12.6862 3.47231L14.783 8.95604L20.7597 9.44064C21.061 9.46507 21.3166 9.67159 21.4038 9.96106C21.491 10.2505 21.3919 10.5639 21.1542 10.7506L16.6671 14.2762L18.2761 20.0687C18.3555 20.3547 18.255 20.6605 18.0214 20.8436C17.7877 21.0267 17.4668 21.0512 17.208 20.9056L12 17.9761L6.79198 20.9056C6.53323 21.0512 6.21231 21.0267 5.97863 20.8436C5.74495 20.6605 5.64444 20.3547 5.7239 20.0687L7.3329 14.2762L2.84576 10.7506C2.60805 10.5639 2.50901 10.2505 2.59619 9.96106C2.68337 9.67159 2.93897 9.46507 3.2403 9.44064L9.21703 8.95604L11.3138 3.47231C11.4225 3.18786 11.6955 3 12 3ZM12 5.79187L10.4242 9.9133C10.3231 10.1776 10.0793 10.3603 9.79729 10.3832L5.22798 10.7537L8.62576 13.4234C8.85893 13.6066 8.95911 13.912 8.87974 14.1977L7.61302 18.7579L11.6398 16.4928C11.8635 16.367 12.1365 16.367 12.3602 16.4928L16.387 18.7579L15.1202 14.1977C15.0409 13.912 15.1411 13.6066 15.3742 13.4234L18.772 10.7537L14.2027 10.3832C13.9207 10.3603 13.6769 10.1776 13.5758 9.9133L12 5.79187Z" fill="white"/>
</svg>
