<svg width="24" height="24" viewBox="0 0 24 24" fill="none" xmlns="http://www.w3.org/2000/svg">
<path fill-rule="evenodd" clip-rule="evenodd" d="M17.23 4.94014L20.67 9.24014C20.8832 9.50711 20.9995 9.83849 21 10.1801V12.5001C21 12.898 20.842 13.2795 20.5607 13.5608C20.2794 13.8421 19.8978 14.0001 19.5 14.0001H4.5C4.10218 14.0001 3.72064 13.8421 3.43934 13.5608C3.15804 13.2795 3 12.898 3 12.5001V10.1801C3.00049 9.83849 3.11683 9.50711 3.33 9.24014L6.72 4.94014C6.95801 4.6395 7.26249 4.39815 7.60951 4.23505C7.95654 4.07195 8.33665 3.99154 8.72 4.00013H15.23C15.6133 3.99154 15.9935 4.07195 16.3405 4.23505C16.6875 4.39815 16.992 4.6395 17.23 4.94014ZM8.49655 6.0739C8.42883 6.11557 8.3718 6.1725 8.33 6.24013L6.08 9.00014H17.92L15.67 6.19014C15.623 6.13174 15.5636 6.08444 15.4962 6.0516C15.4288 6.01876 15.355 6.00119 15.28 6.00013H8.72C8.64078 6.00697 8.56426 6.03223 8.49655 6.0739ZM6.06841 12.5685C6.18468 12.4523 6.25 12.2946 6.25 12.1301L6.24 10.8701C6.24 10.7057 6.17468 10.548 6.05841 10.4317C5.94213 10.3155 5.78443 10.2501 5.62 10.2501C5.45557 10.2501 5.29787 10.3155 5.18159 10.4317C5.06532 10.548 5 10.7057 5 10.8701V12.1301C4.99999 12.2124 5.01635 12.2939 5.04813 12.3697C5.07991 12.4456 5.12648 12.5144 5.18511 12.5721C5.24375 12.6298 5.31328 12.6753 5.38966 12.7058C5.46604 12.7364 5.54774 12.7515 5.63 12.7501C5.79443 12.7501 5.95213 12.6848 6.06841 12.5685ZM14.4444 12.3316C14.6089 12.4415 14.8022 12.5001 15 12.5001C15.2652 12.5001 15.5196 12.3948 15.7071 12.2072C15.8946 12.0197 16 11.7654 16 11.5001C16 11.3024 15.9414 11.109 15.8315 10.9446C15.7216 10.7801 15.5654 10.6519 15.3827 10.5763C15.2 10.5006 14.9989 10.4808 14.8049 10.5194C14.6109 10.5579 14.4327 10.6532 14.2929 10.793C14.153 10.9329 14.0578 11.1111 14.0192 11.305C13.9806 11.499 14.0004 11.7001 14.0761 11.8828C14.1518 12.0655 14.28 12.2217 14.4444 12.3316ZM17.4444 12.3316C17.6089 12.4415 17.8022 12.5001 18 12.5001C18.2652 12.5001 18.5196 12.3948 18.7071 12.2072C18.8946 12.0197 19 11.7654 19 11.5001C19 11.3024 18.9414 11.109 18.8315 10.9446C18.7216 10.7801 18.5654 10.6519 18.3827 10.5763C18.2 10.5006 17.9989 10.4808 17.8049 10.5194C17.6109 10.5579 17.4327 10.6532 17.2929 10.793C17.153 10.9329 17.0578 11.1111 17.0192 11.305C16.9806 11.499 17.0004 11.7001 17.0761 11.8828C17.1518 12.0655 17.28 12.2217 17.4444 12.3316Z" fill="#273637"/>
<path fill-rule="evenodd" clip-rule="evenodd" d="M4.5 15.0001H19.5C19.8978 15.0001 20.2794 15.1582 20.5607 15.4395C20.842 15.7208 21 16.1023 21 16.5001V18.5001C21 18.8979 20.842 19.2795 20.5607 19.5608C20.2794 19.8421 19.8978 20.0001 19.5 20.0001H4.5C4.10218 20.0001 3.72064 19.8421 3.43934 19.5608C3.15804 19.2795 3 18.8979 3 18.5001V16.5001C3 16.1023 3.15804 15.7208 3.43934 15.4395C3.72064 15.1582 4.10218 15.0001 4.5 15.0001ZM6.06841 18.5685C6.18468 18.4523 6.25 18.2946 6.25 18.1301L6.24 16.8701C6.24 16.7887 6.22396 16.7081 6.19281 16.6329C6.16165 16.5576 6.11598 16.4893 6.05841 16.4317C6.00083 16.3741 5.93249 16.3285 5.85726 16.2973C5.78204 16.2662 5.70142 16.2501 5.62 16.2501C5.53858 16.2501 5.45796 16.2662 5.38274 16.2973C5.30751 16.3285 5.23917 16.3741 5.18159 16.4317C5.12402 16.4893 5.07835 16.5576 5.04719 16.6329C5.01604 16.7081 5 16.7887 5 16.8701V18.1301C4.99999 18.2124 5.01635 18.2938 5.04813 18.3697C5.07991 18.4456 5.12648 18.5144 5.18511 18.5721C5.24375 18.6298 5.31328 18.6753 5.38966 18.7058C5.46604 18.7364 5.54774 18.7514 5.63 18.7501C5.79443 18.7501 5.95213 18.6848 6.06841 18.5685ZM14.4444 18.3316C14.6089 18.4415 14.8022 18.5001 15 18.5001C15.2652 18.5001 15.5196 18.3948 15.7071 18.2072C15.8946 18.0197 16 17.7653 16 17.5001C16 17.3023 15.9414 17.109 15.8315 16.9446C15.7216 16.7801 15.5654 16.6519 15.3827 16.5762C15.2 16.5006 14.9989 16.4808 14.8049 16.5193C14.6109 16.5579 14.4327 16.6532 14.2929 16.793C14.153 16.9329 14.0578 17.111 14.0192 17.305C13.9806 17.499 14.0004 17.7001 14.0761 17.8828C14.1518 18.0655 14.28 18.2217 14.4444 18.3316ZM17.4444 18.3316C17.6089 18.4415 17.8022 18.5001 18 18.5001C18.2652 18.5001 18.5196 18.3948 18.7071 18.2072C18.8946 18.0197 19 17.7653 19 17.5001C19 17.3023 18.9414 17.109 18.8315 16.9446C18.7216 16.7801 18.5654 16.6519 18.3827 16.5762C18.2 16.5006 17.9989 16.4808 17.8049 16.5193C17.6109 16.5579 17.4327 16.6532 17.2929 16.793C17.153 16.9329 17.0578 17.111 17.0192 17.305C16.9806 17.499 17.0004 17.7001 17.0761 17.8828C17.1518 18.0655 17.28 18.2217 17.4444 18.3316Z" fill="#273637"/>
</svg>
