<?xml version="1.0" encoding="UTF-8"?>
<svg width="24px" height="24px" viewBox="0 0 24 24" version="1.1" xmlns="http://www.w3.org/2000/svg" xmlns:xlink="http://www.w3.org/1999/xlink">
    <title>Icons/Full Set/Subscription/Subscription Azure</title>
    <g id="Icons/Full-Set/Subscription/Subscription-Azure" stroke="none" stroke-width="1" fill="none" fill-rule="evenodd">
        <path d="M12.9,4 C14.4,4 15.7,4.5 16.8,5.4 L16.8,5.4 L15.4,6.8 C14.7,6.3 13.8,6 12.9,6 C11,6 9.4,7.2 8.7,9 L8.7,9 L8.5,9.6 L7.9,9.7 C5.7,9.9 4,11.8 4,14 C4,16.4 6,18.4 8.4,18.4 L8.4,18.4 L16.4,18.4 C18.3,18.4 19.9,16.8 19.9,14.9 C19.9,13.5 19.1,12.3 17.8,11.7 L17.8,11.7 L17.7,11.6 L19.2,10.1 L19.2,10.1 L19.4088325,10.229116 C20.9815972,11.2501736 21.9,12.9791667 21.9,14.8 C21.9,17.8 19.4,20.3 16.4,20.3 L16.4,20.3 L8.4,20.3 C4.9,20.3 2,17.4 2,13.9 C2,10.9 4.2,8.3 7.1,7.7 C8.1,5.5 10.4,4 12.9,4 Z M17.8,6.4 L17.8488,6.4104 C17.9,6.436 17.9,6.5 17.9,6.5 L17.9,6.5 L19.3,7.9 L12.9,14.3 L11.4,14.3 L11.4,12.8 L17.8,6.4 Z M19.3,5.1 C19.7,4.7 20.3,4.7 20.7,5.1 C21.1,5.5 21.1,6.1 20.7,6.5 L20.7,6.5 L20,7.2 L18.6,5.8 Z" id="Combined-Shape" fill="#273637"></path>
    </g>
</svg>
