<svg width="24" height="24" viewBox="0 0 24 24" fill="none" xmlns="http://www.w3.org/2000/svg">
<path fill-rule="evenodd" clip-rule="evenodd" d="M5.4763 8.375C5.5275 8.23992 5.58843 8.09677 5.66012 7.94673C5.95078 7.33837 6.39055 6.67603 6.97336 6.06548C8.13504 4.84847 9.82368 3.875 12 3.875C14.1763 3.875 15.865 4.84847 17.0266 6.06548C17.6095 6.67603 18.0492 7.33837 18.3399 7.94672C18.4116 8.09676 18.4725 8.23992 18.5237 8.375H18.5C17.3954 8.375 16.5 9.27043 16.5 10.375V14.875C16.5 15.936 17.3262 16.8041 18.3704 16.8709C18.1807 17.5451 17.7929 18.0616 17.275 18.45C16.6849 18.8926 15.8873 19.1943 14.9512 19.3154C14.8208 18.9147 14.4442 18.625 14 18.625H12C11.4477 18.625 11 19.0727 11 19.625V21.125C11 21.6773 11.4477 22.125 12 22.125H14C14.4837 22.125 14.8872 21.7816 14.98 21.3252C16.2762 21.191 17.4994 20.7817 18.475 20.05C19.5243 19.2631 20.2373 18.1371 20.4405 16.7246C21.6367 16.33 22.5 15.2033 22.5 13.875V11.375C22.5 10.1332 21.7455 9.06757 20.6698 8.61165C20.5718 8.11647 20.3885 7.59514 20.1445 7.08452C19.7633 6.28663 19.203 5.44897 18.4734 4.68452C17.01 3.15153 14.8237 1.875 12 1.875C9.17632 1.875 6.98996 3.15153 5.52664 4.68452C4.79695 5.44897 4.23672 6.28663 3.85551 7.08452C3.61155 7.59514 3.42816 8.11647 3.33016 8.61165C2.25454 9.06757 1.5 10.1332 1.5 11.375V13.875C1.5 15.5319 2.84315 16.875 4.5 16.875H5.5C6.60457 16.875 7.5 15.9796 7.5 14.875V10.375C7.5 9.27043 6.60457 8.375 5.5 8.375H5.4763ZM5.5 10.375H4.5C3.94772 10.375 3.5 10.8227 3.5 11.375V13.875C3.5 14.4273 3.94772 14.875 4.5 14.875H5.5V10.375ZM18.5 10.375H19.5C20.0523 10.375 20.5 10.8227 20.5 11.375V13.875C20.5 14.4273 20.0523 14.875 19.5 14.875H18.5V10.375Z" fill="#273637"/>
</svg>
