<svg width="24" height="24" viewBox="0 0 24 24" fill="none" xmlns="http://www.w3.org/2000/svg">
<path fill-rule="evenodd" clip-rule="evenodd" d="M18.5 4H5.5C4.7 4 4 4.69 4 5.49V18.51C4 19.3 4.7 20 5.5 20H18.5C19.3 20 20 19.3 20 18.51V5.49C20 4.69 19.3 4 18.5 4ZM13 5.99C13 5.99 13 5.92 13.01 5.89H18V8.67H13V5.99ZM11 18.01H6V15.23H11V18.01ZM11 13.14H6V10.66H11V13.14ZM11 8.67H6V5.89H10.99C10.99 5.89 11 5.96 11 5.99V8.67ZM18 18.01H13V15.23H18V18.01ZM18 13.14H13V10.66H18V13.14Z" fill="white"/>
</svg>
