<?xml version="1.0" encoding="UTF-8"?>
<svg width="24px" height="24px" viewBox="0 0 24 24" version="1.1" xmlns="http://www.w3.org/2000/svg" xmlns:xlink="http://www.w3.org/1999/xlink">
    <title>Icons/Full Set/General/Tablespace</title>
    <g id="Icons/Full-Set/General/Tablespace" stroke="none" stroke-width="1" fill="none" fill-rule="evenodd">
        <path d="M19,3 C20.103,3 21,3.897 21,5 L21,19 C21,20.103 20.103,21 19,21 L5,21 C3.897,21 3,20.103 3,19 L3,5 C3,3.897 3.897,3 5,3 L19,3 Z M19,5 L5,5 L5,19 L19.001,19 L19,5 Z M13.8959,10.1351 C14.1859,10.1351 14.4209,10.3701 14.4209,10.6601 L14.4209,14.4851 L13.5539,14.4851 C12.1469,14.5111 11.9459,14.7431 11.7139,15.0131 L11.6259,15.1121 C11.1229,15.6581 10.1159,16.0781 8.2899,16.1161 L7.3899,16.1161 L7.3899,10.9851 C7.3899,10.5161 7.7829,10.1351 8.2649,10.1351 L13.8959,10.1351 Z M13.1709,11.3851 L8.6399,11.3851 L8.6399,14.8521 C9.7479,14.7871 10.4489,14.5441 10.7059,14.2651 C11.2079,13.7201 11.5709,13.3251 13.1709,13.2481 L13.1709,11.3851 Z M15.692,7.926 C16.174,7.926 16.567,8.308 16.567,8.777 L16.567,12.588 C16.567,12.933 16.287,13.213 15.942,13.213 L15.317,13.213 L15.317,9.402 C15.317,9.278 15.216,9.176 15.092,9.176 L9.368,9.176 L9.368,8.551 C9.368,8.207 9.648,7.926 9.993,7.926 L15.692,7.926 Z" id="Combined-Shape" fill="#273637"></path>
    </g>
</svg>