<svg width="24" height="24" viewBox="0 0 24 24" fill="none" xmlns="http://www.w3.org/2000/svg">
<path fill-rule="evenodd" clip-rule="evenodd" d="M11.925 2C16.846 2 20.85 6.003 20.85 10.925C20.85 12.336 20.515 13.724 19.877 14.975C20.079 15.354 20.187 15.779 20.187 16.22C20.187 17.711 18.974 18.924 17.483 18.924C17.243 18.924 17.006 18.892 16.779 18.831V19.948C16.779 21.08 15.858 22 14.727 22H9.123C7.991 22 7.071 21.08 7.071 19.948V18.831C6.843 18.892 6.607 18.924 6.367 18.924C4.876 18.924 3.663 17.711 3.663 16.22C3.663 15.779 3.77 15.354 3.972 14.975C3.335 13.724 3 12.337 3 10.925C3 6.003 7.003 2 11.925 2ZM11.925 4C8.106 4 5 7.106 5 10.925C5 12.195 5.349 13.438 6.009 14.521C6.249 14.916 6.188 15.423 5.862 15.749C5.771 15.84 5.663 15.995 5.663 16.22C5.663 16.608 5.979 16.924 6.367 16.924C6.534 16.924 6.701 16.861 6.825 16.751C7.012 16.585 7.25 16.5 7.488 16.5C7.675 16.5 7.864 16.553 8.03 16.661C8.213 16.779 8.396 16.886 8.578 16.993C8.884 17.172 9.071 17.5 9.071 17.855V19.948L10.132 19.958V17.962C10.132 17.686 10.355 17.462 10.632 17.462C10.908 17.462 11.132 17.686 11.132 17.962V19.967L12.761 19.982V17.962C12.761 17.686 12.985 17.462 13.261 17.462C13.537 17.462 13.761 17.686 13.761 17.962V19.991L14.727 20L14.779 17.855C14.779 17.5 14.966 17.172 15.272 16.993C15.463 16.881 15.641 16.776 15.818 16.661C16.195 16.417 16.689 16.453 17.025 16.751C17.149 16.861 17.315 16.924 17.483 16.924C17.871 16.924 18.187 16.608 18.187 16.22C18.187 15.995 18.079 15.84 17.988 15.749C17.662 15.423 17.601 14.916 17.841 14.522C18.501 13.438 18.85 12.195 18.85 10.925C18.85 7.106 15.743 4 11.925 4ZM11.9247 14.9879C12.2397 14.9879 13.3247 16.5059 11.9247 16.5319C10.5247 16.5059 11.6097 14.9879 11.9247 14.9879ZM8.7456 11.1133C9.9056 11.1133 10.8456 12.0533 10.8456 13.2133C10.8456 14.3733 9.9056 15.3133 8.7456 15.3133C7.5856 15.3133 6.6456 14.3733 6.6456 13.2133C6.6456 12.0533 7.5856 11.1133 8.7456 11.1133ZM15.1469 11.1133C16.3069 11.1133 17.2469 12.0533 17.2469 13.2133C17.2469 14.3733 16.3069 15.3133 15.1469 15.3133C13.9869 15.3133 13.0469 14.3733 13.0469 13.2133C13.0469 12.0533 13.9869 11.1133 15.1469 11.1133Z" fill="#273637"/>
</svg>
