<svg width="24" height="24" fill="none" xmlns="http://www.w3.org/2000/svg"><path fill-rule="evenodd" clip-rule="evenodd" d="M6.56 8.36C6.56 6.49 8.05 5 9.92 5c1.87 0 3.36 1.49 3.36 3.36 0 1.87-1.49 3.36-3.36 3.36-1.87 0-3.36-1.49-3.36-3.36Zm5.72 0A2.333 2.333 0 0 0 9.92 6a2.333 2.333 0 0 0-2.36 2.36c0 1.325 1.06 2.36 2.36 2.36 1.3 0 2.36-1.035 2.36-2.36ZM2.145 15.99a9.995 9.995 0 0 1 7.8-3.725c.95 0 1.915.135 2.855.415 1.2.385 2.3.96 3.31 1.73.034.034.062.067.088.099.048.057.09.109.152.141.335.29.67.625.96.96.145.14.29.285.385.43.06.06.082.14.103.214a.635.635 0 0 0 .042.121v2.16H2v-2.16c0-.145.05-.29.145-.385Zm10.35-2.36a9.06 9.06 0 0 0-2.55-.365v.005A8.966 8.966 0 0 0 3 16.53v1.01h13.835v-.975a3.445 3.445 0 0 0-.235-.25l-.025-.025-.025-.03a7.547 7.547 0 0 0-.795-.805 1.508 1.508 0 0 1-.325-.31 9.926 9.926 0 0 0-2.935-1.515ZM18.5 8.9c-.751 0-1.37.627-1.37 1.37 0 .75.62 1.37 1.37 1.37.742 0 1.37-.588 1.37-1.37 0-.782-.628-1.37-1.37-1.37Zm-.52 1.37c0-.277.241-.52.52-.52.288 0 .52.222.52.52 0 .298-.232.52-.52.52a.53.53 0 0 1-.52-.52Z" fill="#fff"/><path fill-rule="evenodd" clip-rule="evenodd" d="M17.87 6.5c-.406 0-.662.32-.722.617l-.004.022-.04.45c-.086.046-.17.095-.252.15l-.393-.197-.016-.007a.76.76 0 0 0-.893.26l-.016.021-.613 1.07a.67.67 0 0 0-.086.544.77.77 0 0 0 .28.42l.005.004.342.248c-.002.051-.002.096-.002.128v.03l.001.119-.34.247-.006.004a.734.734 0 0 0-.274.44.752.752 0 0 0 .059.485l.005.01.63 1.099.015.021a.76.76 0 0 0 .893.26l.005-.002.42-.181c.08.053.166.102.254.144l.02.483.006.032c.06.315.33.619.722.619h1.215c.405 0 .662-.32.722-.617l.004-.022.04-.45a4.09 4.09 0 0 0 .247-.137l.44.189.004.002a.76.76 0 0 0 .893-.26l.016-.021.613-1.07a.669.669 0 0 0 .086-.544.77.77 0 0 0-.28-.42l-.377-.279c.002-.053.002-.098.002-.131v-.03l-.001-.119.34-.247.006-.004a.733.733 0 0 0 .274-.44.752.752 0 0 0-.059-.485l-.005-.01-.63-1.099-.015-.021a.76.76 0 0 0-.893-.26l-.008.004-.393.177a2.975 2.975 0 0 0-.26-.156l-.04-.45-.004-.02c-.06-.316-.33-.62-.722-.62H17.87Zm.108.85h.999l.072.813.237.1c.178.073.353.178.506.302l.204.165.756-.34.498.868-.712.516.098.294v.001a.299.299 0 0 1 .006.05c.003.041.003.088.003.151 0 .096-.002.17-.017.232l-.07.276.722.533-.499.871-.765-.329-.192.128c-.166.11-.356.22-.538.297l-.237.099-.072.813h-.993l-.037-.906-.298-.083a1.247 1.247 0 0 1-.451-.252l-.2-.168-.795.341-.498-.87.712-.516-.098-.294v-.001a.32.32 0 0 1-.006-.05 2.416 2.416 0 0 1-.003-.151c0-.096.002-.17.017-.232l.07-.279-.692-.501.496-.865.752.376.214-.178a2.01 2.01 0 0 1 .502-.299l.236-.099.073-.813Z" fill="#fff"/></svg>