<svg width="24" height="24" fill="none" xmlns="http://www.w3.org/2000/svg"><path fill-rule="evenodd" clip-rule="evenodd" d="M18.75 5.815c-.375 0-.675.3-.675.675 0 .375.3.675.675.675.375 0 .675-.3.675-.675 0-.375-.3-.675-.675-.675Zm.175.675c0 .095-.08.175-.175.175a.178.178 0 0 1-.175-.175c0-.095.08-.175.175-.175.095 0 .175.08.175.175Z" fill="#fff"/><path fill-rule="evenodd" clip-rule="evenodd" d="M16.889 5.3c1.059-1.065 2.669-1.088 3.75.047a.43.43 0 0 1 .07.057c.973.966.972 2.611.001 3.582-.193.193-.388.32-.565.418v1.461c0 .113-.045.22-.125.3l-.274.275.274.274a.425.425 0 0 1 0 .601l-.274.275.274.274a.425.425 0 0 1 0 .601l-.575.575c-.16.162-.378.298-.645.298-.268 0-.484-.136-.646-.297l-.575-.575a.425.425 0 0 1-.124-.301V9.529a2.444 2.444 0 0 1-.566-.418c-1.081-1.082-1.08-2.725 0-3.81Zm1.955 6.44.275.275-.275.274a.425.425 0 0 0 0 .601l.275.275-.275.275a.373.373 0 0 1-.044.038.373.373 0 0 1-.045-.038l-.45-.451V9.27a.425.425 0 0 0-.235-.38c-.23-.115-.403-.204-.58-.38-.748-.75-.75-1.856.001-2.61.745-.749 1.84-.752 2.59.097.028.031.06.058.096.08.57.642.549 1.691-.068 2.308-.176.176-.35.265-.58.38a.425.425 0 0 0-.234.38v1.544l-.45.45a.425.425 0 0 0 0 .602ZM7.56 8.515c0-1.87 1.49-3.36 3.36-3.36 1.87 0 3.36 1.49 3.36 3.36 0 1.87-1.49 3.36-3.36 3.36-1.87 0-3.36-1.49-3.36-3.36Zm5.72 0a2.333 2.333 0 0 0-2.36-2.36 2.333 2.333 0 0 0-2.36 2.36c0 1.325 1.06 2.36 2.36 2.36 1.3 0 2.36-1.035 2.36-2.36ZM3.145 16.15a9.995 9.995 0 0 1 7.8-3.725c.95 0 1.915.135 2.855.415 1.2.385 2.3.96 3.31 1.73.034.034.062.067.088.099.048.057.09.109.152.141.335.29.67.625.96.96.145.14.29.285.385.43.06.06.082.14.103.214a.635.635 0 0 0 .042.121v2.16H3v-2.16c0-.145.05-.29.145-.385Zm10.35-2.36a9.06 9.06 0 0 0-2.55-.365v.005A8.966 8.966 0 0 0 4 16.69v1.01h13.835v-.975a3.445 3.445 0 0 0-.235-.25l-.025-.025-.025-.03a7.547 7.547 0 0 0-.795-.805 1.508 1.508 0 0 1-.325-.31 9.926 9.926 0 0 0-2.935-1.515Z" fill="#fff"/></svg>