<svg width="24" height="24" viewBox="0 0 24 24" fill="none" xmlns="http://www.w3.org/2000/svg">
<path d="M20.3542 17.4246C21.3828 16.4147 21.9738 15.0413 22 13.6C21.9937 12.6637 21.7408 11.7455 21.2668 10.938C20.7928 10.1304 20.1144 9.46202 19.3 9.00001C19.1981 7.37289 18.4791 5.846 17.2897 4.73096C16.1004 3.61593 14.5303 2.99683 12.9 3.00001C11.8525 3.02482 10.8258 3.29792 9.90443 3.79686C8.98305 4.2958 8.19325 5.00633 7.6 5.87001H10.33C10.67 5.54032 11.0726 5.282 11.5139 5.11026C11.9553 4.93852 12.4266 4.85684 12.9 4.87001C14.0576 4.88113 15.1675 5.33308 16.0035 6.13384C16.8396 6.93461 17.339 8.02394 17.4 9.18001V9.38001L17.3 10.17L17.9 10.46C18.5197 10.7193 19.0494 11.1554 19.4229 11.7138C19.7963 12.2722 19.997 12.9282 20 13.6C19.9715 14.51 19.5905 15.3733 18.9374 16.0077C18.2844 16.642 17.4104 16.9979 16.5 17H15.25V17.25C15.2523 17.5824 15.1818 17.9112 15.0437 18.2135C14.9055 18.5158 14.7028 18.7843 14.45 19H16.5C17.9415 19.0002 19.3255 18.4345 20.3542 17.4246Z" fill="#273637"/>
<path d="M9 10.28C9.27614 10.28 9.5 10.0562 9.5 9.78003C9.5 9.50389 9.27614 9.28003 9 9.28003C8.72386 9.28003 8.5 9.50389 8.5 9.78003C8.5 10.0562 8.72386 10.28 9 10.28Z" fill="#273637"/>
<path d="M11.33 9.78003C11.33 10.0562 11.1061 10.28 10.83 10.28C10.5539 10.28 10.33 10.0562 10.33 9.78003C10.33 9.50389 10.5539 9.28003 10.83 9.28003C11.1061 9.28003 11.33 9.50389 11.33 9.78003Z" fill="#273637"/>
<path d="M9 13.52C9.27614 13.52 9.5 13.2962 9.5 13.02C9.5 12.7439 9.27614 12.52 9 12.52C8.72386 12.52 8.5 12.7439 8.5 13.02C8.5 13.2962 8.72386 13.52 9 13.52Z" fill="#273637"/>
<path d="M11.33 13.02C11.33 13.2962 11.1061 13.52 10.83 13.52C10.5539 13.52 10.33 13.2962 10.33 13.02C10.33 12.7439 10.5539 12.52 10.83 12.52C11.1061 12.52 11.33 12.7439 11.33 13.02Z" fill="#273637"/>
<path d="M9 16.8799C9.27614 16.8799 9.5 16.656 9.5 16.3799C9.5 16.1037 9.27614 15.8799 9 15.8799C8.72386 15.8799 8.5 16.1037 8.5 16.3799C8.5 16.656 8.72386 16.8799 9 16.8799Z" fill="#273637"/>
<path d="M11.33 16.3799C11.33 16.656 11.1061 16.8799 10.83 16.8799C10.5539 16.8799 10.33 16.656 10.33 16.3799C10.33 16.1037 10.5539 15.8799 10.83 15.8799C11.1061 15.8799 11.33 16.1037 11.33 16.3799Z" fill="#273637"/>
<path fill-rule="evenodd" clip-rule="evenodd" d="M3.75 19H7.25V20.5H2.75C2.33579 20.5 2 20.8358 2 21.25C2 21.6642 2.33579 22 2.75 22H13.25C13.6642 22 14 21.6642 14 21.25C14 20.8358 13.6642 20.5 13.25 20.5H8.75V19H12.25C12.7133 18.9974 13.1569 18.8122 13.4845 18.4845C13.8122 18.1569 13.9974 17.7133 14 17.25V8.75C13.9974 8.28668 13.8122 7.84309 13.4845 7.51546C13.1569 7.18784 12.7133 7.00262 12.25 7H3.75C3.28668 7.00262 2.84309 7.18784 2.51546 7.51546C2.18784 7.84309 2.00262 8.28668 2 8.75V17.25C2.00262 17.7133 2.18784 18.1569 2.51546 18.4845C2.84309 18.8122 3.28668 18.9974 3.75 19ZM3.57322 8.57322C3.62011 8.52634 3.6837 8.5 3.75 8.5H12.25C12.3163 8.5 12.3799 8.52634 12.4268 8.57322C12.4737 8.62011 12.5 8.6837 12.5 8.75V10.8999H3.5V8.75C3.5 8.6837 3.52634 8.62011 3.57322 8.57322ZM12.5 14.25V11.8999H3.5V14.25H12.5ZM12.5 15.25V17.25C12.5 17.3163 12.4737 17.3799 12.4268 17.4268C12.3799 17.4737 12.3163 17.5 12.25 17.5H3.75C3.6837 17.5 3.62011 17.4737 3.57322 17.4268C3.52634 17.3799 3.5 17.3163 3.5 17.25V15.25H12.5Z" fill="#273637"/>
</svg>
