<svg width="24" height="24" viewBox="0 0 24 24" fill="none" xmlns="http://www.w3.org/2000/svg">
<path d="M19.3 9.00006C19.2482 8.15939 19.0296 7.33742 18.6571 6.58203C18.2845 5.82663 17.7654 5.1529 17.13 4.60006L17 4.52006L16.62 4.23006L16.48 4.12006L16.12 3.89006L16 3.79006C15.9058 3.7351 15.8116 3.69247 15.7125 3.64766C15.6854 3.63539 15.6579 3.62295 15.63 3.61006L15.43 3.51006L15 3.37006L14.78 3.29006L14.39 3.19006L14.16 3.13006L13.73 3.06006H11.94C11.7818 3.07699 11.6249 3.10371 11.47 3.14006L11.23 3.20006L10.8 3.33006L10.57 3.41006L10.15 3.59006L9.93 3.69006L9.54 3.91006L9.33 4.04006C9.21 4.12006 9.09 4.20006 8.98 4.29006L8.76 4.46006L8.49 4.69006L8.26 5.00006C8.13223 5.12266 8.01201 5.2529 7.9 5.39006H11C11.2494 5.2147 11.5266 5.08284 11.82 5.00006C11.9154 4.97428 12.0122 4.95424 12.11 4.94006C12.3678 4.89637 12.6286 4.87296 12.89 4.87006C13.152 4.87112 13.4132 4.89791 13.67 4.95006H13.88C14.8458 5.17854 15.7113 5.71457 16.3461 6.47745C16.981 7.24034 17.3508 8.1888 17.4 9.18006V9.38006L17.3 10.1701L17.9 10.4601C18.5197 10.7193 19.0494 11.1554 19.4229 11.7138C19.7963 12.2722 19.9971 12.9283 20 13.6001C19.9715 14.51 19.5905 15.3733 18.9374 16.0077C18.2844 16.6421 17.4104 16.9979 16.5 17.0001H12.07V17.0701C12.0754 17.4378 11.9982 17.8021 11.8442 18.1361C11.6902 18.4701 11.4632 18.7654 11.18 19.0001H16.5C17.9415 19.0003 19.3255 18.4346 20.3542 17.4247C21.3828 16.4147 21.9738 15.0414 22 13.6001C21.9937 12.6637 21.7408 11.7456 21.2668 10.938C20.7928 10.1305 20.1144 9.46207 19.3 9.00006Z" fill="#273637"/>
<path d="M11.75 9.5H9.25V12H11.75V9.5Z" fill="#273637"/>
<path d="M5.25 13.5H7.75V16H5.25V13.5Z" fill="#273637"/>
<path fill-rule="evenodd" clip-rule="evenodd" d="M4 19C3.53668 18.9974 3.09309 18.8122 2.76546 18.4845C2.43784 18.1569 2.25262 17.7133 2.25 17.25V12.25C2.25262 11.7867 2.43784 11.3431 2.76546 11.0155C3.09309 10.6878 3.53668 10.5026 4 10.5H6.25V8.25C6.25262 7.78668 6.43784 7.34309 6.76546 7.01546C7.09309 6.68784 7.53668 6.50262 8 6.5H13C13.4633 6.50262 13.9069 6.68784 14.2345 7.01546C14.5622 7.34309 14.7474 7.78668 14.75 8.25V13.25C14.7474 13.7133 14.5622 14.1569 14.2345 14.4845C13.9069 14.8122 13.4633 14.9974 13 15H10.75V17.25C10.7474 17.7133 10.5622 18.1569 10.2345 18.4845C9.90691 18.8122 9.46332 18.9974 9 19H4ZM9.25 13.5H13.25V8H7.75V12H3.75V17.5H9.25V13.5Z" fill="#273637"/>
</svg>
