<?xml version="1.0" encoding="UTF-8"?>
<svg width="24px" height="24px" viewBox="0 0 24 24" version="1.1" xmlns="http://www.w3.org/2000/svg" xmlns:xlink="http://www.w3.org/1999/xlink">
    <g stroke="none" stroke-width="1" fill="none" fill-rule="evenodd">
      <path d="M14.8 10.7l-3.5 3.6-2.1-2c-.4-.4-1-.4-1.4 0-.4.4-.4 1 0 1.4l2.8 2.8c.2.2.4.3.7.3.3 0 .5-.1.7-.3l4.2-4.3c.4-.4.4-1 0-1.4-.4-.5-1-.5-1.4-.1z" fill="#273637" />
      <path d="M19.5 4.5h-4.4c-.3-1.4-1.5-2.4-2.8-2.6h-.7c-1.3.1-2.5 1.2-2.8 2.6H4.5C3.7 4.5 3 5.2 3 6v14.5c0 .8.7 1.5 1.5 1.5h15c.8 0 1.5-.7 1.5-1.5V6c0-.8-.7-1.5-1.5-1.5zm-10.1 2h.2c.7 0 1.2-.6 1.2-1.3 0-.7.5-1.3 1.1-1.3h.3c.6.1 1.1.6 1.1 1.3 0 .7.6 1.3 1.2 1.3h.2v.6H9.4v-.6zM19 20.1H5V6.5h2.4v1.3C7.4 8.5 8 9 8.6 9h6.8c.7 0 1.2-.6 1.2-1.2V6.5H19v13.6z" fill="#273637" />
    </g>
</svg>
