<?xml version="1.0" encoding="UTF-8"?>
<svg width="24px" height="24px" viewBox="0 0 24 24" version="1.1" xmlns="http://www.w3.org/2000/svg" xmlns:xlink="http://www.w3.org/1999/xlink">
    <title>Icons/Full Set/Peer/Peer1Icon</title>
    <g id="Icons/Full-Set/Peer/Peer1Icon" stroke="none" stroke-width="1" fill="none" fill-rule="evenodd">
        <path d="M5.3,18.2501631 C5.7,17.8412205 6.3,17.7389848 6.7,18.1479275 C8.2,19.476991 10.1,20.1926406 12,20.1926406 C13.9,20.1926406 15.8,19.476991 17.2,18.2501631 C17.6,17.8412205 18.2,17.9434562 18.6,18.3523988 C19,18.7613414 18.9,19.3747554 18.5,19.783698 C16.7,21.4194685 14.4,22.2373538 12,22.2373538 C9.6,22.2373538 7.2,21.3172329 5.4,19.6814623 C5,19.3747554 5,18.6591058 5.3,18.2501631 Z M12,6.08411988 C13.5912989,6.08411988 15.1174224,6.73039344 16.2426407,7.88076773 C17.367859,9.03114203 18,10.5913844 18,12.2182593 C18,15.606051 15.3137085,18.3523988 12,18.3523988 C8.6862915,18.3523988 6,15.606051 6,12.2182593 C6,8.83046766 8.6862915,6.08411988 12,6.08411988 Z M13.24,8.56844636 L12,8.56844636 L9.69,10.4393589 L10.42,11.3697034 L11.24,10.694948 C11.34,10.6131595 11.51,10.4495825 11.76,10.1939933 L11.76,10.1939933 L11.76,15.8680723 L13.27,15.8680723 L13.24,8.56844636 Z M13.9,2.9148145 C14.1,2.40363621 14.7,2.09692924 15.2,2.30140055 C19.3,3.73269976 22,7.61765475 22,12.013788 C22,12.627202 22,13.2406159 21.8,13.9562655 C21.7,14.4674438 21.3,14.7741508 20.8,14.7741508 L20.8,14.7741508 L20.6,14.7741508 C20.1,14.6719151 19.7,14.0585012 19.8,13.5473229 C19.9,13.0361446 19.9,12.5249663 19.9,12.013788 C19.9,8.53777567 17.8,5.36847028 14.5,4.24387805 C14,4.03940673 13.7,3.42599279 13.9,2.9148145 Z M8.6,2.30140055 C9.1,2.09692924 9.7,2.40363621 9.9,2.9148145 C10.1,3.42599279 9.8,4.03940673 9.3,4.24387805 C6.1,5.47070594 4,8.53777567 4,12.013788 C4,12.4227307 4,12.9339089 4.1,13.3428516 C4.2,13.9562655 3.8,14.4674438 3.3,14.5696795 L3.3,14.5696795 L3.1,14.5696795 C2.6,14.5696795 2.2,14.2629725 2.1,13.7517942 C2,13.2406159 2,12.627202 2,12.013788 C2,7.71989041 4.6,3.83493542 8.6,2.30140055 Z" id="Combined-Shape" fill="#273637"></path>
    </g>
</svg>
