<svg width="24" height="24" fill="none" xmlns="http://www.w3.org/2000/svg">
  <path d="M12.52 20.1c-.91 0-1.8-.15-2.67-.44a8.361 8.361 0 01-2.89-1.7c-.84-.76-1.5-1.67-1.97-2.71a8.176 8.176 0 01-.74-3.27c-.02-1.14.19-2.24.62-3.29a8.287 8.287 0 011.88-2.78 8.14 8.14 0 012.82-1.8c.34-.11.66-.11.96-.02.22.05.48.19.69.4l.05.05c.19.23.3.51.33.81.04.27-.03.6-.19.87-.46.85-.7 1.84-.68 2.84.02 1 .3 1.98.82 2.83a5.61 5.61 0 002.11 2.05c.87.49 1.88.76 2.85.74.41 0 .82-.04 1.21-.13.29-.07.6-.04.88.07.28.11.52.31.69.56a1.45 1.45 0 01-.03 1.73c-.8.96-1.8 1.73-2.91 2.24-.96.51-2.04.83-3.18.92-.21.02-.43.03-.65.03zM9.87 5.73c-.73.3-1.41.75-2 1.33-.66.63-1.17 1.38-1.52 2.23-.35.85-.52 1.74-.5 2.66.02.92.22 1.8.59 2.64.38.83.91 1.57 1.59 2.18.68.62 1.46 1.08 2.33 1.37.87.29 1.77.41 2.68.34.91-.07 1.79-.33 2.59-.76.83-.38 1.55-.91 2.14-1.54-.43.08-.87.12-1.31.11-1.25 0-2.5-.33-3.6-.94a7.248 7.248 0 01-2.7-2.63A7.208 7.208 0 019.12 9.1c-.01-1.17.24-2.33.75-3.37z" fill="#273637"/>
</svg>
