<?xml version="1.0" encoding="UTF-8"?>
<svg width="24px" height="24px" viewBox="0 0 24 24" version="1.1" xmlns="http://www.w3.org/2000/svg" xmlns:xlink="http://www.w3.org/1999/xlink">
    <title>Icons/Full Set/File/Audio</title>
    <g id="Icons/Full-Set/File/Audio" stroke="none" stroke-width="1" fill="none" fill-rule="evenodd">
        <path d="M19.5,2 C20.3,2 21,2.7 21,3.5 L21,3.5 L21,20.5 C21,21.3 20.3,22 19.5,22 L19.5,22 L4.5,22 C3.7,22 3,21.3 3,20.5 L3,20.5 L3,8.1 C3,7.9 3.1,7.6 3.2,7.4 L3.2,7.4 L5.8,2.8 C6.1,2.3 6.6,2 7.1,2 L7.1,2 Z M19,4 L8.7,4 L8.7,7.8 C8.7,8.4 8.2,9 7.5,9 L7.5,9 L5,9 L5,20 L19,20 L19,4 Z M12.1,9.1 C12.1,9.1 13.1,8.6 13.2,9.8 L13.2,9.8 L13.2,16 C13.1,17.2 12.1,16.7 12.1,16.7 L12.1,16.7 L9.5,15.6 L8,15.6 C7.6,15.6 7.2,15.2 7.2,14.7 L7.2,14.7 L7.2,11.1 C7.2,10.6 7.6,10.2 8,10.2 L8,10.2 L9.5,10.2 Z M14.4,10.4 C14.6,10 15,9.9 15.4,10.1 C16.5,10.7 17.1,11.7 17.1,12.9 C17.1,14.1 16.4,15.1 15.4,15.7 C15.2,15.8 15.1,15.8 15,15.8 C14.7,15.8 14.4,15.7 14.3,15.4 C14.1,15.1 14.2,14.6 14.6,14.4 C15.1,14.1 15.6,13.5 15.6,12.9 C15.6,12.3 15.2,11.7 14.7,11.4 C14.3,11.2 14.2,10.8 14.4,10.4 Z M11.7,10.9 L9.8,11.7 L8.6,11.7 L8.6,13.9 L9.8,13.9 L11.7,14.7 L11.7,10.9 Z" id="Combined-Shape" fill="#273637"></path>
    </g>
</svg>
