<?xml version="1.0" encoding="UTF-8"?>
<svg width="24px" height="24px" viewBox="0 0 24 24" version="1.1" xmlns="http://www.w3.org/2000/svg" xmlns:xlink="http://www.w3.org/1999/xlink">
    <title>Icons/Full Set/File/LOG</title>
    <g id="Icons/Full-Set/File/LOG" stroke="none" stroke-width="1" fill="none" fill-rule="evenodd">
        <path d="M19.5,2.9996 C20.328,2.9996 21,3.6716 21,4.4996 L21,4.4996 L21,19.4996 C21,20.3286 20.328,20.9996 19.5,20.9996 L19.5,20.9996 L4.5,20.9996 C3.672,20.9996 3,20.3286 3,19.4996 L3,19.4996 L3,4.4996 C3,3.6716 3.672,2.9996 4.5,2.9996 L4.5,2.9996 Z M17.254,9.4006 C16.414,9.4006 15.761,9.6276 15.294,10.0826 C14.827,10.5376 14.594,11.1736 14.594,11.9906 C14.594,12.8296 14.808,13.4756 15.233,13.9276 C15.659,14.3796 16.263,14.6066 17.043,14.6066 C17.754,14.6066 18.406,14.5046 19,14.3016 L19,14.3016 L19,11.5726 L16.814,11.5726 L16.814,12.6286 L17.719,12.6286 L17.719,13.4216 C17.548,13.4606 17.36,13.4806 17.157,13.4806 C16.785,13.4806 16.501,13.3566 16.304,13.1086 C16.106,12.8606 16.008,12.4986 16.008,12.0266 C16.008,11.5436 16.116,11.1726 16.335,10.9126 C16.553,10.6536 16.861,10.5226 17.262,10.5226 C17.697,10.5226 18.099,10.6136 18.463,10.7926 L18.463,10.7926 L18.896,9.7196 C18.686,9.6266 18.439,9.5506 18.156,9.4906 C17.874,9.4306 17.573,9.4006 17.254,9.4006 Z M11.411,9.3936 C10.607,9.3936 9.995,9.6156 9.574,10.0606 C9.152,10.5046 8.941,11.1486 8.941,11.9906 C8.941,12.8436 9.153,13.4916 9.577,13.9386 C10.001,14.3836 10.61,14.6066 11.404,14.6066 C12.21,14.6066 12.822,14.3846 13.24,13.9416 C13.658,13.4976 13.867,12.8506 13.867,11.9976 C13.867,11.1446 13.659,10.4956 13.243,10.0556 C12.828,9.6146 12.217,9.3936 11.411,9.3936 Z M6.368,9.4736 L5,9.4736 L5,14.5366 L8.318,14.5366 L8.318,13.4326 L6.368,13.4326 L6.368,9.4736 Z M11.4111,10.5154 C11.7481,10.5154 12.0021,10.6364 12.1721,10.8774 C12.3411,11.1194 12.4261,11.4934 12.4261,11.9974 C12.4261,12.5014 12.3431,12.8714 12.1751,13.1104 C12.0081,13.3474 11.7511,13.4664 11.4041,13.4664 C10.7231,13.4664 10.3831,12.9774 10.3831,11.9974 C10.3831,11.0094 10.7251,10.5154 11.4111,10.5154 Z" id="Combined-Shape" fill="#273637"></path>
    </g>
</svg>
