<?xml version="1.0" encoding="UTF-8"?>
<svg width="24px" height="24px" viewBox="0 0 24 24" version="1.1" xmlns="http://www.w3.org/2000/svg" xmlns:xlink="http://www.w3.org/1999/xlink">
    <title>Icons/Full Set/File/PPT</title>
    <g id="Icons/Full-Set/File/PPT" stroke="none" stroke-width="1" fill="none" fill-rule="evenodd">
        <path d="M19.5003,3.0003 C20.3283,3.0003 21.0003,3.6713 21.0003,4.5003 L21.0003,4.5003 L21.0003,19.5003 C21.0003,20.3293 20.3283,21.0003 19.5003,21.0003 L19.5003,21.0003 L4.5003,21.0003 C3.6713,21.0003 3.0003,20.3293 3.0003,19.5003 L3.0003,19.5003 L3.0003,4.5003 C3.0003,3.6713 3.6713,3.0003 4.5003,3.0003 L4.5003,3.0003 Z M11.8413,7.2503 L8.5523,7.2503 L8.5523,16.7503 L11.1193,16.7503 L11.1193,13.5983 L11.8413,13.5983 C12.9933,13.5983 13.8823,13.3093 14.5083,12.7313 C15.1343,12.1533 15.4473,11.3333 15.4473,10.2713 C15.4473,9.3053 15.1463,8.5603 14.5443,8.0363 C13.9423,7.5123 13.0413,7.2503 11.8413,7.2503 L11.8413,7.2503 Z M11.7822,9.3231 C12.4922,9.3231 12.8482,9.6431 12.8482,10.2851 C12.8482,10.6661 12.7342,10.9651 12.5072,11.1811 C12.2792,11.3981 11.9722,11.5071 11.5872,11.5071 L11.5872,11.5071 L11.1192,11.5071 L11.1192,9.3231 Z" id="Combined-Shape" fill="#D05A23"></path>
    </g>
</svg>
