<?xml version="1.0" encoding="UTF-8"?>
<svg width="24px" height="24px" viewBox="0 0 24 24" version="1.1" xmlns="http://www.w3.org/2000/svg" xmlns:xlink="http://www.w3.org/1999/xlink">
    <title>Icons/Full Set/File/XLS</title>
    <g id="Icons/Full-Set/File/XLS" stroke="none" stroke-width="1" fill="none" fill-rule="evenodd">
        <path d="M13.6318,16.283 L11.9618,13.605 L10.3098,16.283 L7.6908,16.283 L10.5318,11.9 L7.8608,7.717 L10.4268,7.717 L11.9738,10.365 L13.4618,7.717 L16.1048,7.717 L13.3918,12.082 L16.3098,16.283 L13.6318,16.283 Z M19.4998,3 L4.4998,3 C3.6718,3 2.9998,3.672 2.9998,4.5 L2.9998,19.5 C2.9998,20.329 3.6718,21 4.4998,21 L19.4998,21 C20.3278,21 20.9998,20.329 20.9998,19.5 L20.9998,4.5 C20.9998,3.672 20.3278,3 19.4998,3 L19.4998,3 Z" id="Fill-1" fill="#559C6A"></path>
    </g>
</svg>
