<svg width="24" height="24" viewBox="0 0 24 24" fill="none" xmlns="http://www.w3.org/2000/svg">
<path fill-rule="evenodd" clip-rule="evenodd" d="M19.49 8.09L21.98 18.29C22.0366 18.5737 21.9791 18.8683 21.82 19.11C21.6653 19.3552 21.4215 19.5308 21.14 19.6L16.76 20.66C16.677 20.6698 16.593 20.6698 16.51 20.66C16.2633 20.6603 16.0236 20.5776 15.8296 20.4252C15.6355 20.2729 15.4983 20.0597 15.44 19.82L14.2 14.7V19.65C14.2 19.9417 14.0841 20.2215 13.8778 20.4278C13.6715 20.6341 13.3917 20.75 13.1 20.75H8.6C8.51487 20.7441 8.43086 20.7273 8.35 20.7C8.26699 20.7105 8.18301 20.7105 8.1 20.7H3.6C3.30826 20.7 3.02847 20.5841 2.82218 20.3778C2.61589 20.1715 2.5 19.8917 2.5 19.6V9.1C2.5 8.80826 2.61589 8.52847 2.82218 8.32218C3.02847 8.11589 3.30826 8 3.6 8H7.5V5.1C7.5 4.80826 7.61589 4.52847 7.82218 4.32218C8.02847 4.11589 8.30826 4 8.6 4H13.06C13.3517 4 13.6315 4.11589 13.8378 4.32218C14.0441 4.52847 14.16 4.80826 14.16 5.1V8.28L18.16 7.28C18.3001 7.24569 18.4456 7.23951 18.588 7.26182C18.7305 7.28414 18.8671 7.3345 18.99 7.41C19.2375 7.56435 19.4165 7.80771 19.49 8.09ZM7.5 9.7H4.2V19H7.5V9.7ZM9.2 19H12.5V5.7H9.2V19ZM14.8 9.88L16.98 18.88L20.16 18.08L17.98 9.08L14.8 9.88ZM11.47 7.84998C11.47 8.1924 11.1924 8.46998 10.85 8.46998C10.5076 8.46998 10.23 8.1924 10.23 7.84998C10.23 7.50756 10.5076 7.22998 10.85 7.22998C11.1924 7.22998 11.47 7.50756 11.47 7.84998ZM5.40999 14.35H6.28999C6.56613 14.35 6.78999 14.5738 6.78999 14.85C6.78999 15.1261 6.56613 15.35 6.28999 15.35H5.40999C5.13385 15.35 4.90999 15.1261 4.90999 14.85C4.90999 14.5738 5.13385 14.35 5.40999 14.35ZM6.28999 16.35H5.40999C5.13385 16.35 4.90999 16.5738 4.90999 16.85C4.90999 17.1261 5.13385 17.35 5.40999 17.35H6.28999C6.56613 17.35 6.78999 17.1261 6.78999 16.85C6.78999 16.5738 6.56613 16.35 6.28999 16.35ZM10.41 14.35H11.29C11.5661 14.35 11.79 14.5738 11.79 14.85C11.79 15.1261 11.5661 15.35 11.29 15.35H10.41C10.1338 15.35 9.90999 15.1261 9.90999 14.85C9.90999 14.5738 10.1338 14.35 10.41 14.35ZM11.29 16.35H10.41C10.1338 16.35 9.90999 16.5738 9.90999 16.85C9.90999 17.1261 10.1338 17.35 10.41 17.35H11.29C11.5661 17.35 11.79 17.1261 11.79 16.85C11.79 16.5738 11.5661 16.35 11.29 16.35ZM17.03 14.0899C16.9027 14.1251 16.794 14.2084 16.7268 14.3222C16.6597 14.436 16.6393 14.5714 16.67 14.6999C16.6852 14.7633 16.7128 14.823 16.7514 14.8755C16.7899 14.928 16.8385 14.9724 16.8944 15.0059C16.9503 15.0394 17.0123 15.0615 17.0768 15.0707C17.1412 15.08 17.2069 15.0763 17.27 15.0599L18.13 14.8599C18.1957 14.8441 18.2576 14.8156 18.3122 14.7759C18.3668 14.7362 18.4131 14.6862 18.4484 14.6286C18.4837 14.571 18.5073 14.5071 18.5179 14.4404C18.5284 14.3737 18.5257 14.3056 18.51 14.2399C18.4942 14.1742 18.4657 14.1123 18.426 14.0577C18.3863 14.0031 18.3363 13.9568 18.2787 13.9215C18.2211 13.8862 18.1572 13.8626 18.0905 13.852C18.0238 13.8415 17.9557 13.8441 17.89 13.8599L17.03 14.0899ZM17.3244 16.1213C17.3769 16.0827 17.4366 16.0551 17.5 16.0399L18.36 15.8299C18.4244 15.8135 18.4913 15.8101 18.557 15.8199C18.6227 15.8297 18.6858 15.8525 18.7426 15.8869C18.7994 15.9214 18.8487 15.9668 18.8878 16.0205C18.9268 16.0743 18.9548 16.1352 18.97 16.1999C19.0001 16.3285 18.978 16.4638 18.9087 16.5762C18.8394 16.6886 18.7284 16.769 18.6 16.7999L17.74 17.0099C17.6114 17.04 17.4761 17.0179 17.3637 16.9486C17.2513 16.8793 17.1709 16.7683 17.14 16.6399C17.1236 16.5768 17.1199 16.5111 17.1292 16.4467C17.1384 16.3822 17.1605 16.3202 17.194 16.2643C17.2275 16.2084 17.2719 16.1598 17.3244 16.1213Z" fill="#273637"/>
</svg>
