<svg width="24" height="24" viewBox="0 0 24 24" fill="none" xmlns="http://www.w3.org/2000/svg">
<path d="M19.1497 18.5791C22.8856 15.0558 22.9488 9.25529 19.3403 5.65388C16.0548 2.37577 10.9424 2.13454 7.38798 4.93019C6.9275 5.29253 6.88436 5.97918 7.29267 6.39958L7.31474 6.4196C7.66286 6.77994 8.22466 6.81998 8.61892 6.50969C11.3908 4.33763 15.3625 4.5178 17.9207 7.07122C20.8692 10.011 20.6756 14.8006 17.3409 17.4991C14.8178 19.5421 11.0868 19.5411 8.56375 17.4961C6.85828 16.1128 5.98649 14.181 5.92629 12.2341L7.18031 12.2411C7.6759 12.2431 7.96282 11.6826 7.67088 11.2852L5.39158 8.16226C5.15281 7.83394 4.66325 7.83194 4.42147 8.15725L2.1201 11.2562C1.82515 11.6536 2.10705 12.2131 2.60064 12.2161L3.92187 12.2221C3.97203 14.4953 4.87894 16.7484 6.65764 18.479C10.0716 21.7992 15.6856 21.8472 19.1497 18.5791Z" fill="white"/>
<path d="M10.1429 9.04286H14.4286C14.7442 9.04286 15 8.78702 15 8.47143C15 8.15584 14.7442 7.9 14.4286 7.9H10.0476C9.46904 7.9 9 8.36904 9 8.94762V13.3286C9 13.6442 9.25584 13.9 9.57143 13.9C9.88702 13.9 10.1429 13.6442 10.1429 13.3286V9.04286Z" fill="white"/>
<path fill-rule="evenodd" clip-rule="evenodd" d="M11.7 9.6C11.1477 9.6 10.7 10.0477 10.7 10.6V14.9C10.7 15.4523 11.1477 15.9 11.7 15.9H16C16.5523 15.9 17 15.4523 17 14.9V10.6C17 10.0477 16.5523 9.6 16 9.6H11.7ZM11.9 10.8V14.7H15.8V10.8H11.9Z" fill="white"/>
</svg>
