<?xml version="1.0" encoding="UTF-8"?>
<svg width="24px" height="24px" viewBox="0 0 24 24" version="1.1" xmlns="http://www.w3.org/2000/svg" xmlns:xlink="http://www.w3.org/1999/xlink">
    <title>Icons/Full Set/Snappable/O365/Site</title>
    <defs>
        <filter id="filter-1">
            <feColorMatrix in="SourceGraphic" type="matrix" values="0 0 0 0 0.152941 0 0 0 0 0.211765 0 0 0 0 0.215686 0 0 0 1.000000 0"></feColorMatrix>
        </filter>
        <polygon id="path-2" points="0.0004 0 10 0 10 9.9998 0.0004 9.9998"></polygon>
    </defs>
    <g id="Icons/Full-Set/Snappable/O365/Site" stroke="none" stroke-width="1" fill="none" fill-rule="evenodd">
        <path d="M18.3333333,3 C19.1777778,3 19.9219444,3.76421371 19.99425,4.67035282 L20,4.81451613 L20.000963,11.8032504 C19.3935565,11.4517342 18.7188084,11.2036527 18.0008069,11.0830939 L18,10 L4,10 L4,16 L11.0830939,15.9991931 C11.0284458,16.3246559 11,16.659006 11,17 C11,17.340994 11.0284458,17.6753441 11.0830939,18.0008069 L3.66666667,18 C2.82222222,18 2.07805556,17.2357863 2.00575,16.3296472 L2,16.1854839 L2,4.81451613 C2,3.89516129 2.70194444,3.08497984 3.53425,3.00626008 L3.66666667,3 L18.3333333,3 Z M18,5 L4,5 L4,8.5 L18,8.5 L18,5 Z M5.75,6 C6.16421356,6 6.5,6.33578644 6.5,6.75 C6.5,7.16421356 6.16421356,7.5 5.75,7.5 C5.33578644,7.5 5,7.16421356 5,6.75 C5,6.33578644 5.33578644,6 5.75,6 Z M8.25,6 C8.66421356,6 9,6.33578644 9,6.75 C9,7.16421356 8.66421356,7.5 8.25,7.5 C7.83578644,7.5 7.5,7.16421356 7.5,6.75 C7.5,6.33578644 7.83578644,6 8.25,6 Z M10.75,6 C11.1642136,6 11.5,6.33578644 11.5,6.75 C11.5,7.16421356 11.1642136,7.5 10.75,7.5 C10.3357864,7.5 10,7.16421356 10,6.75 C10,6.33578644 10.3357864,6 10.75,6 Z" id="Combined-Shape" fill="#273637"></path>
        <g filter="url(#filter-1)" id="Group-3">
            <g transform="translate(12.000000, 12.000000)">
                <mask id="mask-3" fill="white">
                    <use xlink:href="#path-2"></use>
                </mask>
                <g id="Clip-2"></g>
                <path d="M7.1094,7.1998 L8.2214,7.1998 C7.7894,7.8338 7.1754,8.3328 6.4534,8.6218 C6.5664,8.4638 6.6704,8.2898 6.7624,8.1028 C6.8974,7.8298 7.0144,7.5288 7.1094,7.1998 L7.1094,7.1998 Z M5.2994,7.1998 L6.4784,7.1998 C6.4034,7.4308 6.3194,7.6438 6.2244,7.8348 C5.9564,8.3768 5.6324,8.7168 5.2994,8.8438 L5.2994,7.1998 Z M3.5224,7.1998 L4.7004,7.1998 L4.7004,8.8438 C4.3674,8.7168 4.0444,8.3768 3.7754,7.8348 C3.6804,7.6438 3.5964,7.4308 3.5224,7.1998 L3.5224,7.1998 Z M1.7784,7.1998 L2.8904,7.1998 C2.9854,7.5288 3.1024,7.8298 3.2374,8.1028 C3.3304,8.2898 3.4344,8.4638 3.5464,8.6218 C2.8244,8.3328 2.2114,7.8338 1.7784,7.1998 L1.7784,7.1998 Z M7.3934,5.2998 L8.8874,5.2998 C8.8524,5.7608 8.7394,6.1988 8.5594,6.5998 L7.2534,6.5998 C7.3324,6.1908 7.3794,5.7558 7.3934,5.2998 L7.3934,5.2998 Z M5.2994,5.2998 L6.7944,5.2998 C6.7774,5.7608 6.7224,6.1998 6.6374,6.5998 L5.2994,6.5998 L5.2994,5.2998 Z M3.2064,5.2998 L4.7004,5.2998 L4.7004,6.5998 L3.3624,6.5998 C3.2774,6.1998 3.2234,5.7608 3.2064,5.2998 L3.2064,5.2998 Z M1.1124,5.2998 L2.6064,5.2998 C2.6214,5.7558 2.6674,6.1908 2.7474,6.5998 L1.4404,6.5998 C1.2604,6.1988 1.1474,5.7608 1.1124,5.2998 L1.1124,5.2998 Z M7.2534,3.3998 L8.5564,3.3998 C8.7374,3.8018 8.8524,4.2398 8.8874,4.6998 L7.3934,4.6998 C7.3794,4.2448 7.3324,3.8088 7.2534,3.3998 L7.2534,3.3998 Z M5.2994,3.3998 L6.6374,3.3998 C6.7224,3.8018 6.7774,4.2398 6.7944,4.6998 L5.2994,4.6998 L5.2994,3.3998 Z M3.3624,3.3998 L4.7004,3.3998 L4.7004,4.6998 L3.2064,4.6998 C3.2234,4.2398 3.2774,3.8018 3.3624,3.3998 L3.3624,3.3998 Z M1.4434,3.3998 L2.7474,3.3998 C2.6674,3.8088 2.6214,4.2448 2.6064,4.6998 L1.1124,4.6998 C1.1474,4.2398 1.2634,3.8018 1.4434,3.3998 L1.4434,3.3998 Z M6.4534,1.3818 C7.1744,1.6708 7.7894,2.1668 8.2214,2.7998 L7.1064,2.7998 C7.0114,2.4728 6.8974,2.1688 6.7624,1.8968 C6.6704,1.7108 6.5664,1.5388 6.4534,1.3818 L6.4534,1.3818 Z M3.5464,1.3818 C3.4344,1.5388 3.3304,1.7108 3.2374,1.8968 C3.1024,2.1688 2.9884,2.4728 2.8934,2.7998 L1.7784,2.7998 C2.2104,2.1668 2.8254,1.6708 3.5464,1.3818 L3.5464,1.3818 Z M5.2994,1.1588 C5.6324,1.2858 5.9564,1.6198 6.2244,2.1628 C6.3194,2.3528 6.4034,2.5688 6.4784,2.7998 L5.2994,2.7998 L5.2994,1.1588 Z M4.7004,1.1588 L4.7004,2.7998 L3.5224,2.7998 C3.5964,2.5688 3.6804,2.3528 3.7754,2.1628 C4.0444,1.6198 4.3674,1.2858 4.7004,1.1588 L4.7004,1.1588 Z M5.0004,-0.0002 C2.2424,-0.0002 0.0004,2.2428 0.0004,4.9998 C0.0004,7.7578 2.2424,9.9998 5.0004,9.9998 C7.7574,9.9998 10.0004,7.7578 10.0004,4.9998 C10.0004,2.2428 7.7574,-0.0002 5.0004,-0.0002 L5.0004,-0.0002 Z" id="Fill-1" fill="#000000" mask="url(#mask-3)"></path>
            </g>
        </g>
    </g>
</svg>
