<svg width="25" height="25" viewBox="0 0 25 25" fill="none" xmlns="http://www.w3.org/2000/svg">
<path d="M4.25 12.4701C4.28894 14.8223 5.24735 17.0658 6.92 18.7201L6.99 18.7601C8.6634 20.3607 10.8846 21.2623 13.2002 21.2809C15.5157 21.2994 17.7511 20.4336 19.45 18.8601C21.1387 17.2719 22.1495 15.0933 22.2716 12.7783C22.3938 10.4633 21.618 8.19039 20.1058 6.43327C18.5936 4.67614 16.4617 3.57029 14.1543 3.34615C11.847 3.122 9.54211 3.79684 7.72 5.23006C7.61408 5.31728 7.52725 5.42536 7.4649 5.54758C7.40254 5.6698 7.36601 5.80355 7.35757 5.9405C7.34912 6.07744 7.36896 6.21466 7.41582 6.34361C7.46269 6.47257 7.53559 6.59049 7.63 6.69006C7.80016 6.85797 8.02484 6.95937 8.26333 6.97588C8.50181 6.9924 8.73833 6.92292 8.93 6.78006C10.1695 5.80892 11.7003 5.28407 13.2749 5.29031C14.8495 5.29655 16.3761 5.83353 17.6079 6.81447C18.8396 7.79541 19.7047 9.16302 20.0633 10.6963C20.4218 12.2296 20.2529 13.839 19.5839 15.2644C18.9149 16.6899 17.7847 17.8481 16.3762 18.552C14.9676 19.2559 13.3628 19.4642 11.8212 19.1435C10.2796 18.8227 8.89112 17.9915 7.8802 16.7842C6.86928 15.5769 6.29495 14.0641 6.25 12.4901H7.54C7.66058 12.5021 7.78194 12.4767 7.88758 12.4173C7.99322 12.358 8.07803 12.2675 8.13047 12.1583C8.18291 12.049 8.20044 11.9263 8.18067 11.8067C8.16091 11.6872 8.1048 11.5766 8.02 11.4901L5.75 8.37006C5.69693 8.28534 5.62321 8.2155 5.53575 8.16708C5.44829 8.11867 5.34996 8.09327 5.25 8.09327C5.15003 8.09327 5.05171 8.11867 4.96425 8.16708C4.87679 8.2155 4.80307 8.28534 4.75 8.37006L2.45 11.4701C2.37528 11.5599 2.32794 11.6693 2.31358 11.7852C2.29923 11.9012 2.31847 12.0188 2.36903 12.1241C2.41958 12.2295 2.49933 12.3181 2.59878 12.3794C2.69822 12.4407 2.81318 12.4722 2.93 12.4701H4.25Z" fill="#273637"/>
<path d="M12.91 16.92C13.0162 16.9711 13.1322 16.9984 13.25 17C13.3835 16.9949 13.5133 16.9542 13.6258 16.8821C13.7383 16.81 13.8295 16.7092 13.89 16.59L15.89 12.59C15.9495 12.4776 15.9807 12.3522 15.9807 12.225C15.9807 12.0978 15.9495 11.9725 15.89 11.86C15.8239 11.7495 15.7301 11.6582 15.6178 11.595C15.5056 11.5319 15.3788 11.4991 15.25 11.5H12.49L13.95 8.59C14.034 8.41176 14.0455 8.20786 13.9821 8.02129C13.9187 7.83472 13.7853 7.68009 13.61 7.59C13.5228 7.54539 13.4276 7.51853 13.3299 7.51099C13.2323 7.50344 13.1341 7.51537 13.0411 7.54606C12.948 7.57676 12.862 7.62562 12.788 7.68981C12.714 7.754 12.6535 7.83224 12.61 7.92L10.61 11.92C10.5459 12.031 10.5122 12.1569 10.5122 12.285C10.5122 12.4131 10.5459 12.539 10.61 12.65C10.6761 12.7605 10.77 12.8518 10.8822 12.915C10.9944 12.9781 11.1212 13.0109 11.25 13.01H14.03L12.58 15.92C12.5354 16.0072 12.5085 16.1024 12.501 16.2001C12.4934 16.2977 12.5054 16.3959 12.5361 16.489C12.5668 16.582 12.6156 16.668 12.6798 16.742C12.744 16.816 12.8223 16.8765 12.91 16.92Z" fill="#273637"/>
</svg>
