<?xml version="1.0" encoding="UTF-8"?>
<svg width="24px" height="24px" viewBox="0 0 24 24" version="1.1" xmlns="http://www.w3.org/2000/svg" xmlns:xlink="http://www.w3.org/1999/xlink">
    <title>Icons/Full Set/Status/Paused/Outline</title>
    <g id="Icons/Full-Set/Status/Paused/Outline" stroke="none" stroke-width="1" fill="none" fill-rule="evenodd">
        <path d="M12,3 C14.3869484,3 16.6761336,3.94821156 18.363961,5.63603897 C20.0517884,7.32386638 21,9.61305159 21,12 C21,16.9705627 16.9705627,21 12,21 C7.02943725,21 3,16.9705627 3,12 C3,7.02943725 7.02943725,3 12,3 Z M12,4.8 C8.0235498,4.8 4.8,8.0235498 4.8,12 C4.8,15.9764502 8.0235498,19.2 12,19.2 C13.9095587,19.2 15.7409069,18.4414307 17.0911688,17.0911688 C18.4414307,15.7409069 19.2,13.9095587 19.2,12 C19.2,8.0235498 15.9764502,4.8 12,4.8 Z M10.2,9.3 C10.6970563,9.3 11.1,9.70294373 11.1,10.2 L11.1,14.34 C11.1,14.8370563 10.6970563,15.24 10.2,15.24 C9.70294373,15.24 9.3,14.8370563 9.3,14.34 L9.3,10.2 C9.3,9.70294373 9.70294373,9.3 10.2,9.3 Z M13.8,9.3 C14.2970563,9.3 14.7,9.70294373 14.7,10.2 L14.7,14.34 C14.7,14.8370563 14.2970563,15.24 13.8,15.24 C13.3029437,15.24 12.9,14.8370563 12.9,14.34 L12.9,10.2 C12.9,9.70294373 13.3029437,9.3 13.8,9.3 Z" id="Combined-Shape" fill="#273637"></path>
    </g>
</svg>
