<?xml version="1.0" encoding="UTF-8"?>
<svg width="24px" height="24px" viewBox="0 0 24 24" version="1.1" xmlns="http://www.w3.org/2000/svg" xmlns:xlink="http://www.w3.org/1999/xlink">
    <title>Icons/Full Set/Policy/Covered Objects</title>
    <g id="Icons/Full-Set/Policy/Covered-Objects" stroke="none" stroke-width="1" fill="none" fill-rule="evenodd">
        <path d="M19.6,11.8 C20.1,11.8 20.5,12.1 20.4,12.6 L20.4,12.6 L20.4,20.1 C20.4,20.5 20.1,20.9 19.6,20.9 L19.6,20.9 L12.1,20.9 C11.7,20.9 11.3,20.6 11.3,20.1 L11.3,20.1 L11.3,12.6 C11.3,12.2 11.6,11.8 12.1,11.8 L12.1,11.8 Z M15.3,3 C16.1,3.1 16.7,3.7 16.7,4.4 L16.7,4.4 L16.7,10.8 L14.7,10.8 L14.7,5.1 L8.1,5.1 L8.1,7.4 C8.1,8 7.6,8.5 7,8.5 L7,8.5 L5.6,8.5 L5.6,15.6 L10.2,15.6 L10.2,17.6 L4.9,17.6 C4.2,17.6 3.6,17 3.6,16.3 L3.6,16.3 L3.6,7.4 L3.7,7.1 L5.6,3.7 L5.693,3.5832 C5.981,3.243 6.35,3 6.8,3 L6.8,3 Z" id="Combined-Shape" fill="#273637"></path>
    </g>
</svg>
