<?xml version="1.0" encoding="UTF-8"?>
<svg width="24px" height="24px" viewBox="0 0 24 24" version="1.1" xmlns="http://www.w3.org/2000/svg" xmlns:xlink="http://www.w3.org/1999/xlink">
    <title>Icons/Full Set/Policy/Discovery</title>
    <g id="Icons/Full-Set/Policy/Discovery" stroke="none" stroke-width="1" fill="none" fill-rule="evenodd">
        <path d="M14.76,10.28 C17.4606724,10.28 19.65,12.4693276 19.65,15.17 C19.65,16.1849898 19.3344442,17.1674449 18.7576612,17.9862045 L20.35,19.58 C20.6424534,19.8728175 20.6424534,20.3471825 20.35,20.64 C20.2087103,20.7808351 20.0193698,20.8630017 19.82,20.87 C19.6211546,20.8698249 19.4305174,20.7906925 19.29,20.65 L17.7102537,19.0697815 C16.8657933,19.7086506 15.8310092,20.06 14.76,20.06 C12.0593276,20.06 9.87,17.8706724 9.87,15.17 C9.87,12.4693276 12.0593276,10.28 14.76,10.28 Z M14.76,11.78 C12.8877547,11.78 11.37,13.2977547 11.37,15.17 C11.37,17.0422453 12.8877547,18.56 14.76,18.56 C16.6322453,18.56 18.15,17.0422453 18.15,15.17 C18.15,13.2977547 16.6322453,11.78 14.76,11.78 Z M15,2.88 C15.3624199,2.87466021 15.7119775,3.01421251 15.9710757,3.26767813 C16.2301739,3.52114376 16.3773742,3.86755028 16.38,4.23 L16.38,4.23 L16.38,9.78 C15.9919211,9.69900193 15.5964397,9.65878348 15.2,9.66 C14.9255591,9.65969847 14.6514739,9.67975349 14.38,9.72 L14.38,9.72 L14.38,4.88 L7.74,4.87985221 L7.74,7.22 C7.74009655,7.83635399 7.24625745,8.33909109 6.63,8.35 L5.18,8.34985221 L5.18,15.45 L9.23,15.45 L9.23,15.45 L9.23,15.59 C9.23142668,16.2219297 9.33267461,16.8496669 9.53,17.45 L9.53,17.45 L4.53,17.45 C4.17195774,17.45 3.82857996,17.3077683 3.57540585,17.0545942 C3.32223173,16.80142 3.18,16.4580423 3.18,16.1 L3.18,16.1 L3.18,7.45 C3.18408473,7.21210645 3.24585305,6.97875944 3.36,6.77 L3.36,6.77 L5.21,3.56 C5.4500343,3.14011542 5.89634826,2.88071927 6.38,2.88 L6.38,2.88 Z" id="Combined-Shape" fill="#273637"></path>
    </g>
</svg>
