<?xml version="1.0" encoding="UTF-8"?>
<svg width="24px" height="24px" viewBox="0 0 24 24" version="1.1" xmlns="http://www.w3.org/2000/svg" xmlns:xlink="http://www.w3.org/1999/xlink">
    <title>Icons/Full Set/Policy/Out of Compliance</title>
    <g id="Icons/Full-Set/Policy/Out-of-Compliance" stroke="none" stroke-width="1" fill="none" fill-rule="evenodd">
        <path d="M14.81,9.74999069 C16.2429832,9.74733893 17.618041,10.3154113 18.6313148,11.3286852 C19.6445887,12.341959 20.2126611,13.7170168 20.2100093,15.15 C20.2100093,18.1323376 17.7923376,20.55 14.81,20.55 C11.8276624,20.55 9.41,18.1323376 9.41,15.15 C9.41,12.1676624 11.8276624,9.74999069 14.81,9.74999069 Z M16.83,12.22 L16.81,12.23 C16.5849963,12.2316328 16.3695939,12.3213838 16.21,12.48 L16.21,12.48 L14.76,13.93 L13.32,12.48 C13.1598109,12.3222778 12.944788,12.2326849 12.72,12.23 L12.72,12.23 L12.6085122,12.2380704 C12.4247457,12.2634627 12.2529949,12.3478198 12.12,12.48 C11.9596987,12.6433967 11.8668631,12.8612034 11.86,13.09 L11.86,13.09 L11.8705103,13.2032815 C11.8996824,13.3898874 11.9864156,13.563836 12.12,13.7 L12.12,13.7 L13.61,15.15 L12.17,16.59 C12.0096987,16.7533967 11.9168631,16.9712034 11.91,17.2 L11.91,17.2 L11.9205103,17.3132815 C11.9496824,17.4998874 12.0364156,17.673836 12.17,17.81 C12.3293363,17.9628934 12.5393229,18.0518708 12.76,18.06 L12.76,18.06 L12.8926824,18.0458422 C13.0670703,18.0143071 13.2296651,17.9328505 13.36,17.81 L13.36,17.81 L14.8,16.36 L16.25,17.81 C16.4093363,17.9628934 16.6193229,18.0518708 16.84,18.06 L16.84,18.06 L16.9726824,18.0458422 C17.1470703,18.0143071 17.3096651,17.9328505 17.44,17.81 C17.7795123,17.4702857 17.7795123,16.9197143 17.44,16.58 L17.44,16.58 L16,15.14 L17.43,13.7 C17.6733642,13.4527027 17.7465241,13.084447 17.616169,12.7629045 C17.4858139,12.4413619 17.1768686,12.2280137 16.83,12.22 L16.83,12.22 Z M14.43,2.33996235 C14.7888596,2.3373118 15.1338015,2.47868014 15.3875607,2.73243932 C15.6413199,2.9861985 15.7826882,3.33114039 15.7800376,3.69 L15.7800376,3.69 L15.7800376,9.23 C15.1219149,9.0936784 14.4450736,9.07337316 13.78,9.17 L13.78,9.17 L13.78,4.34 L7.14992574,4.33992574 L7.15,6.67 C7.15,6.97408741 7.02853316,7.2655767 6.81257398,7.47965797 C6.59661481,7.69373923 6.30407571,7.81266743 6,7.81 L4.58992574,7.80992574 L4.59,14.9 L8.68,14.9 L8.68,15 C8.68361613,15.6464365 8.79167577,16.2880406 9,16.9000376 L9,16.9000376 L3.94,16.9000376 C3.58114039,16.9026882 3.2361985,16.7613199 2.98243932,16.5075607 C2.72868014,16.2538015 2.5873118,15.9088596 2.58996235,15.55 L2.58996235,15.55 L2.58996235,6.9 C2.58918785,6.66461226 2.65133433,6.43328922 2.77,6.23 L2.77,6.23 L4.62,3 C4.86655196,2.58930358 5.31098282,2.338599 5.79,2.33996235 L5.79,2.33996235 Z" id="Combined-Shape" fill="#273637"></path>
    </g>
</svg>
