<svg width="24" height="24" fill="none" xmlns="http://www.w3.org/2000/svg">
  <path d="M19.75 3.208H17v-.301a1 1 0 10-2 0v.302H9v-.302a1 1 0 00-2 0v.302H4.25c-.827 0-1.5.673-1.5 1.5V20.5c0 .827.673 1.5 1.5 1.5h15.5c.827 0 1.5-.673 1.5-1.5V4.708c0-.827-.673-1.5-1.5-1.5zM7 5.208v.871a1 1 0 002 0v-.871h6v.871a1 1 0 102 0v-.871h2.25v3.914H4.75V5.208H7zM4.75 20v-8.877h14.5V20H4.75z" fill="#273637"/>
  <path d="M14.767 12.51l-3.495 3.596-2.05-2.038a1.001 1.001 0 00-1.411 1.418l2.768 2.751a.998.998 0 00.705.291h.009a.996.996 0 00.708-.303l4.199-4.321a1 1 0 00-1.433-1.394z" fill="#273637"/>
</svg>
