<?xml version="1.0" encoding="UTF-8"?>
<svg width="24px" height="24px" viewBox="0 0 24 24" version="1.1" xmlns="http://www.w3.org/2000/svg" xmlns:xlink="http://www.w3.org/1999/xlink">
    <title>Icons/Full Set/File/Compressed File</title>
    <g id="Icons/Full-Set/File/Compressed-File" stroke="none" stroke-width="1" fill="none" fill-rule="evenodd">
        <path d="M19.5,2 C20.3,2 21,2.7 21,3.5 L21,3.5 L21,20.5 C21,21.3 20.3,22 19.5,22 L19.5,22 L4.5,22 C3.7,22 3,21.3 3,20.5 L3,20.5 L3,8.1 C3,7.9 3.1,7.6 3.2,7.4 L3.2,7.4 L5.8,2.8 C6.1,2.3 6.6,2 7.1,2 L7.1,2 Z M13,4 L8.7,4 L8.7,7.8 C8.7,8.4 8.2,9 7.5,9 L7.5,9 L5,9 L5,20 L19,20 L19,4 L15,4 L15,6 L13,6 L13,4 Z M15,12 L15,14 L17,14 L17,17 C17,17.55 16.55,18 16,18 L16,18 L14,18 C13.45,18 13,17.55 13,17 L13,17 L13,12 L15,12 Z M15.5,16 L14.5,16 C14.22,16 14,16.22 14,16.5 C14,16.78 14.22,17 14.5,17 L14.5,17 L15.5,17 C15.78,17 16,16.78 16,16.5 C16,16.22 15.78,16 15.5,16 L15.5,16 Z M17,10 L17,12 L15,12 L15,10 L17,10 Z M15,8 L15,10 L13,10 L13,8 L15,8 Z M17,6 L17,8 L15,8 L15,6 L17,6 Z" id="Combined-Shape" fill="#273637"></path>
    </g>
</svg>
