<?xml version="1.0" encoding="UTF-8"?>
<svg width="24px" height="24px" viewBox="0 0 24 24" version="1.1" xmlns="http://www.w3.org/2000/svg" xmlns:xlink="http://www.w3.org/1999/xlink">
    <title>Icons/Full Set/File/CSVIcon</title>
    <g id="Icons/Full-Set/File/CSVIcon" stroke="none" stroke-width="1" fill="none" fill-rule="evenodd">
        <path d="M17.3203,14.5652 L15.6893,14.5652 L14.0163,9.4382 L15.5733,9.4382 L16.2713,12.0372 C16.4163,12.6142 16.4963,13.0162 16.5093,13.2432 C16.5263,13.0802 16.5583,12.8752 16.6083,12.6292 C16.6573,12.3832 16.7003,12.1912 16.7383,12.0502 L17.4503,9.4382 L19.0003,9.4382 L17.3203,14.5652 Z M11.4663,11.0722 C11.5693,11.1522 11.8513,11.2962 12.3123,11.5072 C12.7543,11.7062 13.0613,11.9192 13.2333,12.1472 C13.4053,12.3752 13.4913,12.6622 13.4913,13.0082 C13.4913,13.3262 13.4103,13.6082 13.2493,13.8552 C13.0883,14.1022 12.8543,14.2942 12.5503,14.4302 C12.2473,14.5672 11.8903,14.6352 11.4813,14.6352 C11.1393,14.6352 10.8533,14.6122 10.6223,14.5632 C10.3903,14.5152 10.1493,14.4322 9.8993,14.3132 L9.8993,13.0792 C10.1643,13.2132 10.4383,13.3202 10.7233,13.3962 C11.0083,13.4712 11.2703,13.5092 11.5093,13.5092 C11.7153,13.5092 11.8663,13.4742 11.9623,13.4032 C12.0573,13.3322 12.1053,13.2402 12.1053,13.1282 C12.1053,13.0572 12.0863,12.9962 12.0483,12.9432 C12.0083,12.8902 11.9473,12.8372 11.8613,12.7842 C11.7763,12.7302 11.5493,12.6202 11.1793,12.4542 C10.8453,12.3022 10.5943,12.1552 10.4273,12.0122 C10.2593,11.8702 10.1363,11.7062 10.0553,11.5212 C9.9743,11.3362 9.9343,11.1182 9.9343,10.8652 C9.9343,10.3932 10.1063,10.0252 10.4503,9.7602 C10.7943,9.4972 11.2653,9.3642 11.8673,9.3642 C12.3973,9.3642 12.9393,9.4872 13.4913,9.7322 L13.0663,10.8022 C12.5873,10.5832 12.1743,10.4722 11.8253,10.4722 C11.6443,10.4722 11.5133,10.5042 11.4313,10.5672 C11.3503,10.6302 11.3093,10.7092 11.3093,10.8022 C11.3093,10.9032 11.3613,10.9932 11.4663,11.0722 L11.4663,11.0722 Z M7.5493,13.5032 C7.7763,13.5032 7.9963,13.4712 8.2093,13.4082 C8.4223,13.3442 8.6353,13.2692 8.8503,13.1802 L8.8503,14.3512 C8.4233,14.5412 7.9393,14.6352 7.3983,14.6352 C6.6253,14.6352 6.0313,14.4112 5.6193,13.9622 C5.2063,13.5132 5.0003,12.8642 5.0003,12.0152 C5.0003,11.4852 5.0993,11.0182 5.2993,10.6162 C5.5003,10.2142 5.7873,9.9052 6.1623,9.6882 C6.5383,9.4722 6.9793,9.3642 7.4863,9.3642 C8.0413,9.3642 8.5703,9.4852 9.0753,9.7252 L8.6513,10.8162 C8.4623,10.7272 8.2723,10.6532 8.0833,10.5912 C7.8933,10.5312 7.6903,10.5012 7.4723,10.5012 C7.1423,10.5012 6.8853,10.6352 6.7013,10.9062 C6.5163,11.1752 6.4243,11.5472 6.4243,12.0222 C6.4243,13.0092 6.7993,13.5032 7.5493,13.5032 L7.5493,13.5032 Z M19.5003,3.0002 L4.5003,3.0002 C3.6723,3.0002 3.0003,3.6712 3.0003,4.5002 L3.0003,19.5002 C3.0003,20.3292 3.6723,21.0002 4.5003,21.0002 L19.5003,21.0002 C20.3283,21.0002 21.0003,20.3292 21.0003,19.5002 L21.0003,4.5002 C21.0003,3.6712 20.3283,3.0002 19.5003,3.0002 L19.5003,3.0002 Z" id="Fill-1" fill="#273637"></path>
    </g>
</svg>
