<?xml version="1.0" encoding="UTF-8"?>
<svg width="24px" height="24px" viewBox="0 0 24 24" version="1.1" xmlns="http://www.w3.org/2000/svg" xmlns:xlink="http://www.w3.org/1999/xlink">
    <title>Icons/Full Set/File/Generic</title>
    <g id="Icons/Full-Set/File/Generic" stroke="none" stroke-width="1" fill="none" fill-rule="evenodd">
        <path d="M19.5,2 L7.1,2 C6.6,2 6.1,2.3 5.8,2.8 L3.2,7.4 C3.1,7.6 3,7.9 3,8.1 L3,20.5 C3,21.3 3.7,22 4.5,22 L19.5,22 C20.3,22 21,21.3 21,20.5 L21,3.5 C21,2.7 20.3,2 19.5,2 Z M19,20 L5,20 L5,9 L7.5,9 C8.2,9 8.7,8.4 8.7,7.8 L8.7,4 L19,4 L19,20 Z" id="Shape" fill="#273637"></path>
    </g>
</svg>
