<?xml version="1.0" encoding="UTF-8"?>
<svg width="24px" height="24px" viewBox="0 0 24 24" version="1.1" xmlns="http://www.w3.org/2000/svg" xmlns:xlink="http://www.w3.org/1999/xlink">
    <title>Icons/Full Set/File/PDF</title>
    <g id="Icons/Full-Set/File/PDF" stroke="none" stroke-width="1" fill="none" fill-rule="evenodd">
        <path d="M19.5,3 C20.328,3 21,3.672 21,4.5 L21,4.5 L21,19.5 C21,20.329 20.328,21 19.5,21 L19.5,21 L4.5,21 C3.672,21 3,20.329 3,19.5 L3,19.5 L3,4.5 C3,3.672 3.672,3 4.5,3 L4.5,3 Z M19,9.265 L15.769,9.265 L15.769,14.734 L17.224,14.734 L17.224,12.681 L18.861,12.681 L18.861,11.495 L17.224,11.495 L17.224,10.452 L19,10.452 L19,9.265 Z M11.886,9.265 L9.993,9.265 L9.993,14.734 L11.763,14.734 C12.673,14.734 13.379,14.487 13.882,13.994 C14.384,13.5 14.635,12.797 14.635,11.884 C14.635,11.036 14.396,10.388 13.919,9.939 C13.441,9.49 12.764,9.265 11.886,9.265 L11.886,9.265 Z M6.893,9.265 L5,9.265 L5,14.734 L6.478,14.734 L6.478,12.92 L6.893,12.92 C7.556,12.92 8.067,12.754 8.428,12.421 C8.788,12.088 8.969,11.616 8.969,11.005 C8.969,10.449 8.795,10.02 8.448,9.719 C8.102,9.417 7.583,9.265 6.893,9.265 L6.893,9.265 Z M11.9004,10.4588 C12.3044,10.4588 12.6054,10.5798 12.8034,10.8218 C13.0024,11.0628 13.1014,11.4358 13.1014,11.9368 C13.1014,12.4728 12.9974,12.8708 12.7874,13.1318 C12.5784,13.3928 12.2494,13.5218 11.7994,13.5218 L11.7994,13.5218 L11.4704,13.5218 L11.4704,10.4588 Z M6.8594,10.4588 C7.2674,10.4588 7.4724,10.6438 7.4724,11.0128 C7.4724,11.2318 7.4074,11.4038 7.2764,11.5288 C7.1454,11.6528 6.9684,11.7158 6.7474,11.7158 L6.7474,11.7158 L6.4774,11.7158 L6.4774,10.4588 Z" id="Combined-Shape" fill="#FB3F3F"></path>
    </g>
</svg>
