<?xml version="1.0" encoding="UTF-8"?>
<svg width="24px" height="24px" viewBox="0 0 24 24" version="1.1" xmlns="http://www.w3.org/2000/svg" xmlns:xlink="http://www.w3.org/1999/xlink">
    <title>Icons/Full Set/File/Word</title>
    <g id="Icons/Full-Set/File/Word" stroke="none" stroke-width="1" fill="none" fill-rule="evenodd">
        <path d="M15.9961,16.5164 L13.2601,16.5164 L12.4391,12.7844 C12.4001,12.6274 12.3391,12.3174 12.2551,11.8524 C12.1711,11.3874 12.1091,10.9984 12.0701,10.6864 C12.0391,10.9404 11.9881,11.2554 11.9181,11.6324 C11.8481,12.0094 11.7781,12.3564 11.7101,12.6724 C11.6421,12.9894 11.3571,14.2704 10.8571,16.5164 L8.1211,16.5164 L6.0001,7.9504 L8.2321,7.9504 L9.1641,12.2454 C9.3751,13.1944 9.5191,13.9504 9.5981,14.5124 C9.6481,14.1144 9.7391,13.5734 9.8701,12.8894 C10.0011,12.2054 10.1231,11.6394 10.2361,11.1904 L10.9921,7.9504 L13.1371,7.9504 L13.8691,11.1904 C13.9941,11.7094 14.1211,12.3094 14.2501,12.9894 C14.3791,13.6684 14.4651,14.1764 14.5081,14.5124 C14.5591,14.0784 14.6971,13.3274 14.9241,12.2564 L15.8731,7.9504 L18.1051,7.9504 L15.9961,16.5164 Z M19.5001,2.9994 L4.5001,2.9994 C3.6711,2.9994 3.0001,3.6714 3.0001,4.4994 L3.0001,19.4994 C3.0001,20.3294 3.6711,20.9994 4.5001,20.9994 L19.5001,20.9994 C20.3291,20.9994 21.0001,20.3294 21.0001,19.4994 L21.0001,4.4994 C21.0001,3.6714 20.3291,2.9994 19.5001,2.9994 L19.5001,2.9994 Z" id="Fill-1" fill="#3C8AFF"></path>
    </g>
</svg>
