<svg width="24" height="24" viewBox="0 0 24 24" fill="none" xmlns="http://www.w3.org/2000/svg">
<path d="M13.2799 12V3.34005C13.242 3.01267 13.0952 2.7075 12.8631 2.47356C12.631 2.23962 12.327 2.09046 11.9999 2.05005H5.06988C4.74623 2.07753 4.44459 2.22518 4.22434 2.46393C4.0041 2.70268 3.88122 3.01523 3.87988 3.34005V20.7001C3.88574 21.0437 4.02151 21.3724 4.25988 21.6201C4.50904 21.8499 4.83128 21.9844 5.16988 22H6.31988C6.02865 21.5981 5.86806 21.1163 5.85988 20.6201V4.00005H11.1999V12H13.2799Z" fill="#273637"/>
<path d="M13.65 15.83C13.5037 15.8196 13.357 15.8452 13.2228 15.9044C13.0886 15.9637 12.971 16.0549 12.88 16.17C12.6879 16.4666 12.5967 16.8174 12.62 17.17C12.5985 17.5211 12.6858 17.8703 12.87 18.17C12.961 18.2852 13.0786 18.3763 13.2128 18.4356C13.347 18.4948 13.4937 18.5204 13.64 18.51C14.32 18.51 14.64 18.06 14.64 17.15C14.64 16.24 14.33 15.83 13.65 15.83Z" fill="#273637"/>
<path fill-rule="evenodd" clip-rule="evenodd" d="M18.7701 13.08H8.47006C8.11202 13.08 7.76864 13.2222 7.51547 13.4754C7.26229 13.7285 7.12006 14.0719 7.12006 14.43V20.59C7.11336 20.7719 7.14326 20.9533 7.20797 21.1234C7.27269 21.2936 7.3709 21.449 7.4968 21.5805C7.6227 21.712 7.77371 21.8169 7.9409 21.8889C8.10808 21.961 8.28802 21.9987 8.47006 22H18.7701C19.129 21.9973 19.4724 21.8529 19.7253 21.5981C19.9782 21.3433 20.1201 20.9989 20.1201 20.64V14.43C20.1201 14.2527 20.0851 14.0771 20.0173 13.9133C19.9495 13.7495 19.85 13.6007 19.7247 13.4754C19.5993 13.35 19.4505 13.2506 19.2867 13.1827C19.1229 13.1149 18.9473 13.08 18.7701 13.08ZM10.7701 18.96C10.6669 19.0317 10.5562 19.092 10.4401 19.14C10.1944 19.2335 9.93278 19.2776 9.67006 19.27C9.27331 19.2781 8.88102 19.1852 8.53006 19V18.21C8.75307 18.3115 8.9838 18.3951 9.22006 18.46C9.38892 18.5117 9.56363 18.5419 9.74006 18.55C9.89078 18.5535 10.0396 18.5155 10.1701 18.44C10.2472 18.3756 10.2986 18.2857 10.3151 18.1866C10.3316 18.0876 10.3121 17.9859 10.2601 17.9C10.2028 17.8303 10.1354 17.7696 10.0601 17.72C9.89427 17.6161 9.72037 17.5258 9.54006 17.45C9.35035 17.3645 9.16949 17.2607 9.00006 17.14C8.88365 17.0335 8.78566 16.9084 8.71006 16.77C8.63063 16.6157 8.59272 16.4433 8.60006 16.27C8.58736 16.1098 8.61345 15.9489 8.67612 15.8009C8.73878 15.653 8.83618 15.5223 8.96006 15.42C9.24449 15.1982 9.60009 15.088 9.96006 15.11C10.1282 15.1145 10.2956 15.1346 10.4601 15.17C10.4928 15.161 10.5273 15.161 10.5601 15.17C10.7652 15.22 10.9659 15.2869 11.1601 15.37L10.8901 16.04C10.7504 15.9772 10.6068 15.9237 10.4601 15.88H10.3501C10.2174 15.8393 10.0786 15.8224 9.94006 15.83C9.87257 15.8215 9.80406 15.8269 9.73872 15.8458C9.67338 15.8647 9.61259 15.8967 9.56006 15.94C9.51898 15.9741 9.48601 16.0169 9.46352 16.0653C9.44104 16.1137 9.42961 16.1666 9.43006 16.22C9.42353 16.2919 9.44502 16.3635 9.49006 16.42C9.53215 16.4862 9.58644 16.5439 9.65006 16.59L10.2001 16.88C10.2915 16.9131 10.3787 16.9567 10.4601 17.01C10.654 17.1096 10.8271 17.2453 10.9701 17.41C11.112 17.604 11.1859 17.8396 11.1801 18.08C11.1925 18.2552 11.1616 18.4308 11.0901 18.5912C11.0186 18.7517 10.9087 18.892 10.7701 19V18.96ZM15.5401 20.17H14.4401L13.7001 19.27H13.6401C13.2483 19.2918 12.8588 19.1979 12.5201 19C12.4034 18.9306 12.2987 18.8428 12.2101 18.74C11.8548 18.3048 11.6795 17.7502 11.7201 17.19C11.6796 16.6358 11.8552 16.0875 12.2101 15.66C12.2956 15.5567 12.401 15.4717 12.5201 15.41C12.8567 15.2051 13.2463 15.1042 13.6401 15.12C13.9033 15.1016 14.1673 15.1403 14.4141 15.2335C14.661 15.3267 14.8847 15.4722 15.0701 15.66C15.4253 16.0951 15.6006 16.6497 15.5601 17.21C15.5739 17.621 15.4881 18.0293 15.3101 18.4C15.1512 18.7115 14.8899 18.9587 14.5701 19.1L15.5401 20.17ZM18.9001 19.17H16.4001V15.17H17.2601V18.51H18.9001V19.17Z" fill="#273637"/>
<path d="M10.4101 6.51003C10.3986 6.66269 10.3327 6.80615 10.2245 6.9144C10.1162 7.02265 9.97277 7.08851 9.82012 7.10003H7.34012C7.26189 7.10283 7.18392 7.08948 7.11107 7.06082C7.03822 7.03216 6.97206 6.9888 6.91671 6.93345C6.86135 6.8781 6.81799 6.81193 6.78933 6.73908C6.76067 6.66624 6.74732 6.58827 6.75012 6.51003C6.75934 6.35561 6.82418 6.20974 6.93265 6.09944C7.04112 5.98913 7.18587 5.92185 7.34012 5.91003H9.82012C9.97437 5.92185 10.1191 5.98913 10.2276 6.09944C10.3361 6.20974 10.4009 6.35561 10.4101 6.51003Z" fill="#273637"/>
<path d="M10.2276 10.4106C10.336 10.3003 10.4009 10.1545 10.4101 10C10.4006 9.84665 10.3354 9.70202 10.2268 9.59336C10.1181 9.4847 9.97346 9.4195 9.82008 9.41003H7.34008C7.1867 9.4195 7.04207 9.4847 6.9334 9.59336C6.82474 9.70202 6.75954 9.84665 6.75008 10C6.74586 10.0791 6.75815 10.1582 6.78618 10.2322C6.8142 10.3062 6.85734 10.3736 6.91284 10.4301C6.96835 10.4865 7.035 10.5308 7.10856 10.56C7.18212 10.5893 7.26097 10.6029 7.34008 10.6H9.82008C9.97433 10.5882 10.1191 10.5209 10.2276 10.4106Z" fill="#273637"/>
</svg>
