<svg width="24" height="24" viewBox="0 0 24 24" fill="none" xmlns="http://www.w3.org/2000/svg">
<path d="M12 5.45999C11.8423 5.45173 11.6848 5.48095 11.5406 5.54526C11.3963 5.60957 11.2693 5.70715 11.17 5.82999C10.9585 6.15597 10.8601 6.54252 10.89 6.92999C10.8799 7.30873 10.9845 7.6817 11.19 7.99999C11.2903 8.121 11.4178 8.21667 11.562 8.27922C11.7062 8.34177 11.8631 8.36944 12.02 8.35999C12.76 8.35999 13.12 7.87999 13.12 6.89999C13.12 5.91999 12.76 5.45999 12 5.45999Z" fill="#273637"/>
<path fill-rule="evenodd" clip-rule="evenodd" d="M6.46006 2.5H17.5401C17.7352 2.49993 17.9284 2.53897 18.1082 2.61483C18.288 2.6907 18.4507 2.80183 18.5868 2.94167C18.7229 3.08151 18.8296 3.24721 18.9006 3.42899C18.9716 3.61077 19.0054 3.80493 19.0001 4V10.59C19.0054 10.7851 18.9716 10.9792 18.9006 11.161C18.8296 11.3428 18.7229 11.5085 18.5868 11.6483C18.4507 11.7882 18.288 11.8993 18.1082 11.9752C17.9284 12.051 17.7352 12.0901 17.5401 12.09H6.46006C6.07284 12.09 5.70149 11.9362 5.42768 11.6624C5.15388 11.3886 5.00006 11.0172 5.00006 10.63V4C4.99471 3.80493 5.02853 3.61077 5.0995 3.42899C5.17048 3.24721 5.27717 3.08151 5.41328 2.94167C5.54939 2.80183 5.71215 2.6907 5.89195 2.61483C6.07174 2.53897 6.26492 2.49993 6.46006 2.5ZM7.75006 9.17C8.17036 9.19195 8.58587 9.07222 8.93006 8.83C9.06568 8.71726 9.17329 8.57459 9.24444 8.41322C9.31558 8.25185 9.34831 8.07617 9.34006 7.9C9.34881 7.64222 9.2714 7.38887 9.12006 7.18C8.88659 6.9267 8.59965 6.72857 8.28006 6.6C8.07955 6.5107 7.88571 6.4071 7.70006 6.29C7.62676 6.24932 7.56486 6.19086 7.52006 6.12C7.47914 6.05404 7.45829 5.9776 7.46006 5.9C7.45971 5.83984 7.47199 5.78027 7.49611 5.72514C7.52022 5.67002 7.55564 5.62058 7.60006 5.58C7.71472 5.49339 7.85666 5.45081 8.00006 5.46C8.14534 5.46197 8.28979 5.48213 8.43006 5.52C8.62483 5.5722 8.81537 5.63906 9.00006 5.72L9.33006 5C9.11091 4.90518 8.88321 4.83152 8.65006 4.78C8.43875 4.71936 8.2199 4.68905 8.00006 4.69C7.6416 4.67981 7.2899 4.78884 7.00006 5C6.86138 5.11123 6.75037 5.2531 6.67576 5.41447C6.60115 5.57583 6.56497 5.75229 6.57006 5.93C6.5647 6.11716 6.60594 6.30272 6.69006 6.47C6.76726 6.62168 6.87244 6.7574 7.00006 6.87C7.18306 7.01629 7.38486 7.13737 7.60006 7.23C7.7964 7.31747 7.9868 7.41768 8.17006 7.53C8.25107 7.57999 8.32224 7.64438 8.38006 7.72C8.42398 7.78511 8.44828 7.86148 8.45006 7.94C8.45321 8.00687 8.44034 8.07352 8.41251 8.1344C8.38467 8.19529 8.34269 8.24863 8.29006 8.29C8.14959 8.37768 7.98537 8.41961 7.82006 8.41C7.63092 8.40523 7.44298 8.37838 7.26006 8.33C7.00764 8.25265 6.76046 8.15912 6.52006 8.05V8.91C6.90494 9.08911 7.32562 9.17804 7.75006 9.17ZM12.8901 10.14H14.0701L13.0001 9C13.3477 8.83724 13.6273 8.55768 13.7901 8.21C13.9825 7.81152 14.0751 7.37224 14.0601 6.93C14.1016 6.32932 13.912 5.73546 13.5301 5.27C13.3303 5.07092 13.0908 4.91633 12.8271 4.81638C12.5634 4.71642 12.2816 4.67335 12.0001 4.69C11.7309 4.68181 11.4628 4.72808 11.2119 4.82603C10.961 4.92397 10.7325 5.07158 10.5401 5.26C10.1527 5.72297 9.9592 6.31773 10.0001 6.92C9.94866 7.50443 10.1122 8.08755 10.4601 8.56C10.6609 8.76038 10.9021 8.91573 11.1676 9.01573C11.4332 9.11573 11.7169 9.15809 12.0001 9.14H12.0901L12.8901 10.14ZM15.0001 9.14H17.6801L17.6901 8.35H15.9301V4.76H15.0001V9.14Z" fill="#273637"/>
<path d="M15.0859 17.2914L15.793 16.5843C15.9102 16.4671 16.1001 16.4671 16.2173 16.5843L16.9244 17.2914C17.0415 17.4086 17.0415 17.5985 16.9244 17.7157L16.2173 18.4228C16.1001 18.5399 15.9102 18.5399 15.793 18.4228L15.0859 17.7157C14.9688 17.5985 14.9688 17.4086 15.0859 17.2914Z" fill="#273637"/>
<path fill-rule="evenodd" clip-rule="evenodd" d="M4.8 21.5H19.2C19.6766 21.4974 20.1329 21.3069 20.4699 20.9699C20.8069 20.6329 20.9974 20.1766 21 19.7V15.3C20.9974 14.8234 20.8069 14.3671 20.4699 14.0301C20.1329 13.6931 19.6766 13.5026 19.2 13.5H4.8C4.32342 13.5026 3.86711 13.6931 3.53011 14.0301C3.19311 14.3671 3.00263 14.8234 3 15.3V19.7C3.00263 20.1766 3.19311 20.6329 3.53011 20.9699C3.86711 21.3069 4.32342 21.4974 4.8 21.5ZM19 19.5H5V15.5H19V19.5Z" fill="#273637"/>
</svg>
