<svg width="24" height="24" viewBox="0 0 24 24" fill="none" xmlns="http://www.w3.org/2000/svg">
<path d="M5 16.62H6C6.16444 16.62 6.32213 16.5546 6.43841 16.4384C6.55468 16.3221 6.62 16.1644 6.62 16C6.62135 15.9182 6.60624 15.8369 6.57556 15.7611C6.54488 15.6853 6.49926 15.6164 6.44142 15.5585C6.38358 15.5007 6.31469 15.4551 6.23886 15.4244C6.16302 15.3937 6.08179 15.3786 6 15.38H5C4.83557 15.38 4.67787 15.4453 4.56159 15.5616C4.44532 15.6778 4.38 15.8355 4.38 16C4.38 16.1644 4.44532 16.3221 4.56159 16.4384C4.67787 16.5546 4.83557 16.62 5 16.62Z" fill="#273637"/>
<path d="M6 14.62H5C4.83557 14.62 4.67787 14.5546 4.56159 14.4384C4.44532 14.3221 4.38 14.1644 4.38 14C4.38 13.8355 4.44532 13.6778 4.56159 13.5616C4.67787 13.4453 4.83557 13.38 5 13.38H6C6.08179 13.3786 6.16302 13.3937 6.23886 13.4244C6.31469 13.4551 6.38358 13.5007 6.44142 13.5585C6.49926 13.6164 6.54488 13.6853 6.57556 13.7611C6.60624 13.8369 6.62135 13.9182 6.62 14C6.62 14.1644 6.55468 14.3221 6.43841 14.4384C6.32213 14.5546 6.16444 14.62 6 14.62Z" fill="#273637"/>
<path fill-rule="evenodd" clip-rule="evenodd" d="M17.5 5.56H14V3.5C14 3.10218 13.842 2.72064 13.5607 2.43934C13.2794 2.15804 12.8978 2 12.5 2H8.5C8.10218 2 7.72064 2.15804 7.43934 2.43934C7.15804 2.72064 7 3.10218 7 3.5V5.56H3.5C3.10218 5.56 2.72064 5.71804 2.43934 5.99934C2.15804 6.28064 2 6.66218 2 7.06V18.5C2 18.8978 2.15804 19.2794 2.43934 19.5607C2.72064 19.842 3.10218 20 3.5 20H12.64C12.4508 19.8445 12.2962 19.6512 12.186 19.4325C12.0758 19.2138 12.0125 18.9746 12 18.73V18H9V4H12V12.44C11.9996 12.4606 12.005 12.4809 12.0157 12.4986C12.0263 12.5163 12.0416 12.5306 12.06 12.54H12.12C12.1489 12.5517 12.1811 12.5517 12.21 12.54C12.37 12.301 12.5958 12.1135 12.86 12L14 11.46V7.56H17V10.65C17.7064 10.7237 18.3885 10.9488 19 11.31V7.06C19 6.66218 18.842 6.28064 18.5607 5.99934C18.2794 5.71804 17.8978 5.56 17.5 5.56ZM7 18H4V7.56H7V18Z" fill="#273637"/>
<path d="M10.5 6.5C10.9142 6.5 11.25 6.16421 11.25 5.75C11.25 5.33579 10.9142 5 10.5 5C10.0858 5 9.75 5.33579 9.75 5.75C9.75 6.16421 10.0858 6.5 10.5 6.5Z" fill="#273637"/>
<path fill-rule="evenodd" clip-rule="evenodd" d="M17.51 11.68L20.3 12.87C20.525 12.9587 20.717 13.115 20.8495 13.3174C20.9821 13.5198 21.0486 13.7582 21.04 14V18.43C21.04 20.24 17.89 21.67 17.26 21.95C17.177 21.9819 17.0889 21.9988 17 22C16.894 22.0171 16.786 22.0171 16.68 22C16.05 21.72 12.91 20.29 12.91 18.48V14C12.9018 13.7622 12.9651 13.5275 13.0917 13.3261C13.2182 13.1246 13.4023 12.9658 13.62 12.87L16.4 11.68C16.5757 11.606 16.7644 11.5679 16.955 11.5679C17.1456 11.5679 17.3343 11.606 17.51 11.68ZM14.27 18.43C14.27 18.92 15.34 19.74 16.51 20.35C16.65 20.42 16.81 20.49 16.94 20.53V12.9L16.51 13.08L14.27 14.08V18.43Z" fill="#273637"/>
</svg>
