<?xml version="1.0" encoding="UTF-8"?>
<svg width="24px" height="24px" viewBox="0 0 24 24" version="1.1" xmlns="http://www.w3.org/2000/svg" xmlns:xlink="http://www.w3.org/1999/xlink">
    <title>Icons/Full Set/Volume/Windows Volumes</title>
    <g id="Icons/Full-Set/Volume/Windows-Volumes" stroke="none" stroke-width="1" fill="none" fill-rule="evenodd">
        <path d="M21.4777,17.9244 L21.4787,22.0004 L16.7887,21.3524 L16.7877,17.9244 L21.4777,17.9244 Z M15.7611,17.9244 L15.7621,21.2134 L12.4781,20.7614 L12.4781,17.9254 L15.7611,17.9244 Z M13,2 C13.83,2 14.5,2.67 14.5,3.5 L14.5,3.5 L14.5,5.56 L18,5.56 C18.83,5.56 19.5,6.23 19.5,7.06 L19.5,7.06 L19.5,12.208 L17.5,12.488 L17.5,7.56 L14.5,7.56 L14.5,12.898 L12.5,13.178 L12.5,4 L9.5,4 L9.5,18 L11.5,18 L11.5,20 L4,20 C3.17,20 2.5,19.33 2.5,18.5 L2.5,18.5 L2.5,7.06 C2.5,6.23 3.17,5.56 4,5.56 L4,5.56 L7.5,5.56 L7.5,3.5 C7.5,2.67 8.17,2 9,2 L9,2 Z M7.5,7.56 L4.5,7.56 L4.5,18 L7.5,18 L7.5,7.56 Z M15.7621,13.785 L15.7611,16.898 L12.4781,16.899 L12.4781,14.238 L15.7621,13.785 Z M21.4782,13 L21.4772,16.898 L16.7872,16.898 L16.7882,13.645 L21.4782,13 Z M6.5,15.375 C6.845,15.375 7.125,15.655 7.125,16 C7.125,16.345 6.845,16.625 6.5,16.625 L6.5,16.625 L5.5,16.625 C5.155,16.625 4.875,16.345 4.875,16 C4.875,15.655 5.155,15.375 5.5,15.375 L5.5,15.375 Z M6.5,13.375 C6.845,13.375 7.125,13.655 7.125,14 C7.125,14.345 6.845,14.625 6.5,14.625 L6.5,14.625 L5.5,14.625 C5.155,14.625 4.875,14.345 4.875,14 C4.875,13.655 5.155,13.375 5.5,13.375 L5.5,13.375 Z M11,5 C11.414,5 11.75,5.336 11.75,5.75 C11.75,6.164 11.414,6.5 11,6.5 C10.586,6.5 10.25,6.164 10.25,5.75 C10.25,5.336 10.586,5 11,5 Z" id="Combined-Shape" fill="#273637"></path>
    </g>
</svg>