<?xml version="1.0" encoding="UTF-8"?>
<svg width="24px" height="24px" viewBox="0 0 24 24" version="1.1" xmlns="http://www.w3.org/2000/svg" xmlns:xlink="http://www.w3.org/1999/xlink">
    <title>Icons/Full Set/User/Groups</title>
    <g id="Icons/Full-Set/User/Groups" stroke="none" stroke-width="1" fill="none" fill-rule="evenodd">
        <path d="M12,3 C17,3 21,7 21,12 C21,17 17,21 12,21 C7,21 3,17 3,12 C3,7 7,3 12,3 Z M12,5 C8.1,5 5,8.1 5,12 C5,15.9 8.1,19 12,19 C15.9,19 19,15.9 19,12 C19,8.1 15.9,5 12,5 Z M9.2,14.3 C10.8,12.3 13.8,11.9 15.9,13.5 C16.2,13.7 16.5,14 16.7,14.3 L16.7,14.3 L16.7,15.2 L9.2,15.2 Z M8.8,11.7 C9.5,11.7 10.1,12 10.7,12.4 C10,12.6 9.3,13 8.7,13.5 L8.7,13.5 L6.3,13.5 L6.3,12.9 C6.9,12.1 7.9,11.7 8.8,11.7 Z M12.9,7.7 C14,7.7 14.8,8.6 14.8,9.6 C14.8,10.7 13.9,11.5 12.9,11.5 C11.9,11.5 11,10.6 11,9.6 C11,8.5 11.9,7.7 12.9,7.7 Z M8.8,8.6 C9.4627417,8.6 10,9.1372583 10,9.8 C10,10.4627417 9.4627417,11 8.8,11 C8.1372583,11 7.6,10.4627417 7.6,9.8 C7.6,9.1372583 8.1372583,8.6 8.8,8.6 Z" id="Combined-Shape" fill="#273637"></path>
    </g>
</svg>
