<?xml version="1.0" encoding="UTF-8"?>
<svg width="24px" height="24px" viewBox="0 0 24 24" version="1.1" xmlns="http://www.w3.org/2000/svg" xmlns:xlink="http://www.w3.org/1999/xlink">
    <title>Icons/Full Set/User/Multiple Users</title>
    <g id="Icons/Full-Set/User/Multiple-Users" stroke="none" stroke-width="1" fill="none" fill-rule="evenodd">
        <path d="M3.170848,17.2876032 C6.00736,13.87736 11.072,13.356 14.6,16.1 C15.1,16.5 15.6,17 16,17.5 L16,17.5 L16,19 L3,19 L3,17.5 L3,17.5 Z M16.7,12.9 C17.9,12.9 19.1,13.3 20.1,14.1 L20.1,14.1 L21,15 L21,16 L16.6,16 L16.2,15.7 C15.3,15 14.3,14.4 13.2,14.1 C14.2,13.3 15.4,12.9 16.7,12.9 Z M9.5,6 C11.2673112,6 12.7,7.4326888 12.7,9.2 C12.7,10.9673112 11.2673112,12.4 9.5,12.4 C7.7326888,12.4 6.3,10.9673112 6.3,9.2 C6.3,7.4326888 7.7326888,6 9.5,6 Z M16.7,7.3 C17.9150264,7.3 18.9,8.28497355 18.9,9.5 C18.9,10.7150264 17.9150264,11.7 16.7,11.7 C15.4849736,11.7 14.5,10.7150264 14.5,9.5 C14.5,8.28497355 15.4849736,7.3 16.7,7.3 Z" id="Combined-Shape" fill="#273637"></path>
    </g>
</svg>
