<?xml version="1.0" encoding="UTF-8"?>
<svg width="24px" height="24px" viewBox="0 0 24 24" version="1.1" xmlns="http://www.w3.org/2000/svg" xmlns:xlink="http://www.w3.org/1999/xlink">
    <title>Icons/Full Set/User/User </title>
    <g id="Icons/Full-Set/User/User-" stroke="none" stroke-width="1" fill="none" fill-rule="evenodd">
        <path d="M12,3 C17,3 21,7 21,12 C21,17 17,21 12,21 C7,21 3,17 3,12 C3,7 7,3 12,3 Z M12,5 C8.1,5 5,8.1 5,12 C5,15.9 8.1,19 12,19 C15.9,19 19,15.9 19,12 C19,8.1 15.9,5 12,5 Z M12,13.4 C13.6,13.4 15.2,13.8 16.5,14.5 C15.6,16.1 13.9,17.2 12,17.2 C10.1,17.2 8.4,16.1 7.5,14.5 C8.9,13.8 10.4,13.4 12,13.4 Z M12,7 C13.3,7 14.3,8 14.3,9.3 C14.3,10.6 13.3,11.6 12,11.6 C10.7,11.6 9.7,10.6 9.7,9.3 C9.7,8 10.7,7 12,7 Z" id="Combined-Shape" fill="#273637"></path>
    </g>
</svg>
