<?xml version="1.0" encoding="UTF-8"?>
<svg width="24px" height="24px" viewBox="0 0 24 24" version="1.1" xmlns="http://www.w3.org/2000/svg" xmlns:xlink="http://www.w3.org/1999/xlink">
    <title>Icons/Full Set/Azure / Managed Disks</title>
    <g id="Icons/Full-Set/Azure-/-Managed-Disks" stroke="none" stroke-width="1" fill="none" fill-rule="evenodd">
        <path d="M12,2.7497 C16.47,2.7497 21,4.2397 21,7.0797 L21,7.0797 L21,8.8597 C21,10.1097 20.13,11.0997 18.78,11.8097 C18.642,11.8817 18.492,11.9467 18.344,12.0127 C18.492,12.0807 18.642,12.1467 18.78,12.2197 C20.13,12.9197 21,13.9097 21,15.1597 L21,15.1597 L21,16.9397 C21,19.7797 16.47,21.2697 12,21.2697 C7.53,21.2697 3,19.7797 3,16.9397 L3,16.9397 L3,15.1597 C3,13.9097 3.87,12.9197 5.22,12.2197 C5.358,12.1467 5.508,12.0807 5.655,12.0127 C5.508,11.9467 5.358,11.8817 5.22,11.8097 C3.87,11.0997 3,10.1097 3,8.8597 L3,8.8597 L3,7.0797 C3,4.2397 7.53,2.7497 12,2.7497 Z M19,15.8467 C17.75,17.0737 14.803,17.7257 11.986,17.7257 C9.191,17.7257 6.266,17.0857 5,15.8767 L5,15.8767 L5,16.9397 C5,17.7297 7.47,19.2697 12,19.2697 C16.53,19.2697 19,17.7297 19,16.9397 L19,16.9397 Z M7.2,12.5677 C5.76,13.0407 4.851,13.7297 4.85,14.5227 C4.851,14.7117 4.9,14.9007 5.01,15.0797 C5.009,15.0827 5.01,15.0857 5.009,15.0887 C5.695,16.3097 8.557,17.2257 11.986,17.2257 C15.446,17.2257 18.33,16.2927 18.982,15.0547 C18.981,15.0497 18.981,15.0447 18.98,15.0397 C19.03,14.9547 19.065,14.8707 19.087,14.7837 C19.088,14.7807 19.088,14.7777 19.088,14.7737 C19.109,14.6907 19.12,14.6067 19.12,14.5197 C19.12,14.3337 19.07,14.1527 18.975,13.9797 C18.665,13.4177 17.868,12.9357 16.775,12.5757 C16.436,12.6697 16.09,12.7577 15.73,12.8297 C14.55,13.0697 13.27,13.1897 12,13.1897 C10.73,13.1897 9.45,13.0697 8.27,12.8297 C7.901,12.7557 7.546,12.6657 7.2,12.5677 Z M11.9859,13.7737 C13.6429,13.7737 14.9859,14.1097 14.9859,14.5237 C14.9859,14.9377 13.6429,15.2737 11.9859,15.2737 C10.3289,15.2737 8.9859,14.9377 8.9859,14.5237 C8.9859,14.1097 10.3289,13.7737 11.9859,13.7737 Z M19,7.7727 C17.75,9.0007 14.803,9.6517 11.986,9.6517 C9.191,9.6517 6.266,9.0117 5,7.8027 L5,7.8027 L5,8.8597 C5,9.3897 6.13,10.2697 8.27,10.7797 C9.28,11.0297 10.53,11.1897 12,11.1897 C13.47,11.1897 14.72,11.0297 15.73,10.7797 C17.87,10.2697 19,9.3897 19,8.8597 L19,8.8597 Z M11.986,3.8317 C10.755,3.8317 9.596,3.9417 8.586,4.1377 C6.596,4.5257 5.182,5.2507 4.904,6.1327 C4.872,6.2367 4.85,6.3417 4.85,6.4497 C4.85,6.4847 4.86,6.5177 4.864,6.5517 C4.869,6.6107 4.872,6.6697 4.888,6.7287 C4.892,6.7437 4.901,6.7587 4.906,6.7747 C4.932,6.8537 4.963,6.9337 5.01,7.0097 C5.009,7.0127 5.01,7.0127 5.009,7.0147 C5.696,8.2357 8.557,9.1517 11.986,9.1517 C15.446,9.1517 18.329,8.2197 18.982,6.9817 C18.981,6.9777 18.981,6.9747 18.98,6.9697 C19.07,6.7997 19.12,6.6297 19.12,6.4497 C19.12,5.6817 18.266,5.0097 16.903,4.5387 C15.623,4.0967 13.894,3.8317 11.986,3.8317 Z M11.9859,5.6999 C13.6429,5.6999 14.9859,6.0359 14.9859,6.4499 C14.9859,6.8639 13.6429,7.1999 11.9859,7.1999 C10.3289,7.1999 8.9859,6.8639 8.9859,6.4499 C8.9859,6.0359 10.3289,5.6999 11.9859,5.6999 Z" id="Combined-Shape" fill="#273637"></path>
    </g>
</svg>