<?xml version="1.0" encoding="UTF-8"?>
<svg width="24px" height="24px" viewBox="0 0 24 24" version="1.1" xmlns="http://www.w3.org/2000/svg" xmlns:xlink="http://www.w3.org/1999/xlink">
    <title>Icons/Full Set/VCD/VCD vApps</title>
    <g id="Icons/Full-Set/VCD/VCD-vApps" stroke="none" stroke-width="1" fill="none" fill-rule="evenodd">
        <g id="Group" transform="translate(3.000000, 3.000000)" fill="#273637">
            <path d="M12.6,10.44009 C12.6,10.66509 12.42,10.84509 12.195,10.84509 C11.97,10.84509 11.79,10.66509 11.79,10.44009 L11.79,8.39709 C11.79,8.17209 11.601,7.98309 11.367,7.98309 C11.142,7.98309 10.953,8.17209 10.953,8.39709 L10.953,10.44009 C10.953,10.66509 10.773,10.84509 10.548,10.84509 C10.323,10.84509 10.143,10.66509 10.143,10.44009 L10.143,8.39709 C10.143,8.17209 9.954,7.98309 9.729,7.98309 C9.495,7.98309 9.306,8.17209 9.306,8.39709 L9.306,10.44009 C9.306,10.66509 9.126,10.84509 8.901,10.84509 C8.676,10.84509 8.496,10.66509 8.496,10.44009 L8.496,8.16309 C8.496,8.06409 8.415,7.98309 8.325,7.98309 C8.289,7.98309 8.271,7.99209 8.262,7.99209 L7.281,10.58409 C7.218,10.74609 7.065,10.84509 6.903,10.84509 C6.732,10.84509 6.579,10.74609 6.516,10.58409 L5.427,7.70409 C5.346,7.49709 5.454,7.26309 5.661,7.18209 C5.868,7.10109 6.111,7.20909 6.183,7.41609 L6.894,9.28809 L7.524,7.62309 C7.542,7.58709 7.56,7.55109 7.587,7.51509 C7.767,7.28109 8.001,7.17309 8.325,7.17309 C8.577,7.17309 8.802,7.27209 8.982,7.42509 C9.189,7.26309 9.441,7.17309 9.729,7.17309 C10.044,7.17309 10.332,7.29009 10.548,7.48809 C10.764,7.29009 11.052,7.17309 11.367,7.17309 C12.051,7.17309 12.6,7.72209 12.6,8.39709 L12.6,10.44009 Z M11.7,6.30009 L11.7,3.60009 L6.3,3.60009 L6.3,6.30009 L3.6,6.30009 L3.6,11.70009 L6.3,11.70009 L6.3,14.40009 L11.7,14.40009 L11.7,11.70009 L14.4,11.70009 L14.4,6.30009 L11.7,6.30009 Z" id="Fill-1"></path>
            <path d="M5.85,3.63709063e-13 L1.35,3.63709063e-13 C0.6048,3.63709063e-13 -9.1038288e-14,0.6039 -9.1038288e-14,1.35 L-9.1038288e-14,5.85 C-9.1038288e-14,6.5961 0.6048,7.2 1.35,7.2 L5.85,7.2 C6.5952,7.2 7.2,6.5961 7.2,5.85 L7.2,1.35 C7.2,0.6039 6.5952,3.63709063e-13 5.85,3.63709063e-13 L5.85,3.63709063e-13 Z M1.8,5.4 L5.4,5.4 L5.4,1.8 L1.8,1.8 L1.8,5.4 Z" id="Fill-3"></path>
            <path d="M5.85,10.8 L1.35,10.8 C0.6048,10.8 -9.1038288e-14,11.4039 -9.1038288e-14,12.15 L-9.1038288e-14,16.65 C-9.1038288e-14,17.3961 0.6048,18 1.35,18 L5.85,18 C6.5952,18 7.2,17.3961 7.2,16.65 L7.2,12.15 C7.2,11.4039 6.5952,10.8 5.85,10.8 L5.85,10.8 Z M1.8,16.2 L5.4,16.2 L5.4,12.6 L1.8,12.6 L1.8,16.2 Z" id="Fill-5"></path>
            <path d="M16.65,10.8 L12.15,10.8 C11.4048,10.8 10.8,11.4039 10.8,12.15 L10.8,16.65 C10.8,17.3961 11.4048,18 12.15,18 L16.65,18 C17.3952,18 18,17.3961 18,16.65 L18,12.15 C18,11.4039 17.3952,10.8 16.65,10.8 L16.65,10.8 Z M12.6,16.2 L16.2,16.2 L16.2,12.6 L12.6,12.6 L12.6,16.2 Z" id="Fill-7"></path>
            <path d="M16.65,3.63709063e-13 L12.15,3.63709063e-13 C11.4048,3.63709063e-13 10.8,0.6039 10.8,1.35 L10.8,5.85 C10.8,6.5961 11.4048,7.2 12.15,7.2 L16.65,7.2 C17.3952,7.2 18,6.5961 18,5.85 L18,1.35 C18,0.6039 17.3952,3.63709063e-13 16.65,3.63709063e-13 L16.65,3.63709063e-13 Z M12.6,5.4 L16.2,5.4 L16.2,1.8 L12.6,1.8 L12.6,5.4 Z" id="Fill-9"></path>
        </g>
    </g>
</svg>
