<?xml version="1.0" encoding="UTF-8"?>
<svg width="24px" height="24px" viewBox="0 0 24 24" version="1.1" xmlns="http://www.w3.org/2000/svg" xmlns:xlink="http://www.w3.org/1999/xlink">
    <title>Icons/Full Set/Snappable/O365/OneDrive</title>
    <defs>
        <polygon id="path-1" points="2.3788969e-05 -1.75442651e-15 20 -1.75442651e-15 20 12.821358 2.3788969e-05 12.821358"></polygon>
    </defs>
    <g id="Icons/Full-Set/Snappable/O365/OneDrive" stroke="none" stroke-width="1" fill="none" fill-rule="evenodd">
        <g id="Group-3" transform="translate(2.000000, 5.000000)">
            <mask id="mask-2" fill="white">
                <use xlink:href="#path-1"></use>
            </mask>
            <g id="Clip-2"></g>
            <path d="M17.813716,10.5079383 C17.251,11.105963 16.4890247,11.4352222 15.6684074,11.4352222 L5.46346914,11.4352222 C4.56717284,11.4352222 3.68692593,11.1325062 2.97346914,10.5906543 L14.6990247,5.71016049 C14.7147037,5.70361728 14.7303827,5.69744444 14.7468025,5.6921358 C15.136679,5.56374074 15.5434691,5.51867901 15.9563086,5.55806173 C17.3813704,5.69460494 18.5213704,6.87534568 18.6081605,8.3047284 C18.6581605,9.12806173 18.3760617,9.91053086 17.813716,10.5079383 M1.38680247,7.3721358 C1.42803704,5.21793827 3.21532099,3.46522222 5.37112346,3.46522222 C6.12667901,3.46522222 6.86198765,3.6775679 7.49741975,4.07954321 L10.5724815,5.92645679 L1.97853086,9.50337037 C1.57890123,8.8647284 1.37235802,8.1312716 1.38680247,7.3721358 M10.5689012,1.38608642 C12.5050741,1.38608642 14.2492716,2.50682716 15.0811235,4.19917284 C14.8216173,4.2347284 14.5650741,4.29250617 14.3135926,4.37534568 C14.2630988,4.39201235 14.2134691,4.41090123 14.1654444,4.43102469 L12.1627284,5.26448148 L8.23124691,2.90349383 C7.97458025,2.74176543 7.70581481,2.60337037 7.42816049,2.48830864 C8.31075309,1.7792963 9.41050617,1.38608642 10.5689012,1.38608642 M19.9917407,8.22077778 C19.8747037,6.29448148 18.4576667,4.67596296 16.6092716,4.2621358 C15.7092716,1.73176543 13.2870494,-8.64197527e-05 10.5689012,-8.64197527e-05 C8.74779012,-8.64197527e-05 7.04050617,0.760530864 5.82544444,2.09904938 C5.67482716,2.08633333 5.52334568,2.07917284 5.37112346,2.07917284 C2.4655679,2.07917284 0.0565555556,4.44176543 0.001,7.34571605 C-0.0262839506,8.77287654 0.519148148,10.1301605 1.53667901,11.167321 C2.56791358,12.2185556 3.99914815,12.8213951 5.46346914,12.8213951 L15.6684074,12.8213951 C16.8577901,12.8213951 18.0076667,12.324358 18.8230988,11.4579383 C19.6501358,10.5791728 20.0650741,9.42954321 19.9917407,8.22077778" id="Fill-1" fill="#273637" mask="url(#mask-2)"></path>
        </g>
    </g>
</svg>
