<?xml version="1.0" encoding="UTF-8"?>
<svg width="24px" height="24px" viewBox="0 0 24 24" version="1.1" xmlns="http://www.w3.org/2000/svg" xmlns:xlink="http://www.w3.org/1999/xlink">
    <title>Icons/Full Set/User/Teams</title>
    <g id="Icons/Full-Set/User/Teams" stroke="none" stroke-width="1" fill="none" fill-rule="evenodd">
        <path d="M16.2515,14.6109 C16.6965,14.9069 17.1415,15.3529 17.4385,15.7979 L17.4385,17.1339 L6.3055,17.1339 L6.3055,15.7979 C8.6805,12.8279 13.1335,12.2349 16.2515,14.6109 Z M5.7117,11.9376 C6.7507,11.9376 7.6407,12.3826 8.5317,12.9766 C7.4927,13.2736 6.4537,13.8676 5.5627,14.6106 L1.9997,14.6106 L1.9997,13.7186 C2.8907,12.5316 4.3747,11.9376 5.7117,11.9376 Z M18.2883,11.9376 C19.6253,11.9376 21.1093,12.5316 22.0003,13.7186 L22.0003,13.7186 L22.0003,14.6106 L18.4373,14.6106 C17.5463,13.8676 16.5073,13.2736 15.4683,12.9766 C16.3593,12.3826 17.2493,11.9376 18.2883,11.9376 Z M11.7982,6.0004 C13.4312,6.0004 14.6182,7.3364 14.6182,8.8204 C14.6182,10.4534 13.2822,11.6404 11.7982,11.6404 C10.3132,11.6404 8.9772,10.3044 8.9772,8.8204 C8.9772,7.1874 10.3132,6.0004 11.7982,6.0004 Z M5.7117,7.3363 C6.6907,7.3363 7.4927,8.1383 7.4927,9.1173 C7.4927,10.0963 6.6907,10.8983 5.7117,10.8983 C4.7317,10.8983 3.9297,10.0963 3.9297,9.1173 C3.9297,8.1383 4.7317,7.3363 5.7117,7.3363 Z M18.2883,7.3363 C19.2683,7.3363 20.0703,8.1383 20.0703,9.1173 C20.0703,10.0963 19.2683,10.8983 18.2883,10.8983 C17.3093,10.8983 16.5073,10.0963 16.5073,9.1173 C16.5073,8.1383 17.3093,7.3363 18.2883,7.3363 Z" id="Combined-Shape" fill="#273637"></path>
    </g>
</svg>