<?xml version="1.0" encoding="UTF-8"?>
<svg width="24px" height="24px" viewBox="0 0 24 24" version="1.1" xmlns="http://www.w3.org/2000/svg" xmlns:xlink="http://www.w3.org/1999/xlink">
    <title>Icons/Full Set/Linux/Linux Cluster</title>
    <g id="Icons/Full-Set/Linux/Linux-Cluster" stroke="none" stroke-width="1" fill="none" fill-rule="evenodd">
        <path d="M13.8291944,19.145823 L13.9061779,19.1564082 C13.9821992,19.1766164 14.0582204,19.2305049 14.1361663,19.3161491 L14.3613432,19.5855915 C14.5066497,19.7684275 14.6452201,19.9599241 14.7751299,20.1533453 L15.0147412,20.5219041 C15.2505033,20.8933498 15.4785671,21.2715315 15.762444,21.6121838 L15.8355784,21.7132247 C15.9212226,21.8537197 15.9577898,22.0144229 15.9404685,22.2049572 L15.9491291,22.2954129 C15.94528,22.4426439 15.8567489,22.5590816 15.7152916,22.6533864 L15.6363834,22.7149733 L15.5651736,22.7832962 L15.474718,22.8641289 C15.2899574,23.0046239 15.076328,23.027719 14.8444151,22.9719059 L14.6327103,22.9112813 L14.4258169,22.8391093 L14.0380123,22.697652 C13.6473207,22.5696668 13.2479685,22.4743996 12.8457294,22.3926046 L12.6600065,22.3512259 C12.5368328,22.3204325 12.4155837,22.2848276 12.2972215,22.243449 L12.210615,22.2068818 C12.0258545,22.1145015 11.9690791,21.9730442 12.0152692,21.746905 L12.0527987,21.5217281 C12.0903282,21.2214922 12.0835921,20.9222186 12.0354774,20.6190958 L12.0239299,20.5276779 C12.0056463,20.2996141 12.0932151,20.211083 12.3530346,20.1427601 L12.5185492,20.0984945 L12.6869508,20.0619273 L12.805313,20.0301716 C12.9544687,19.9762831 13.0728309,19.8819783 13.1690603,19.7482193 L13.275875,19.6009883 C13.3470848,19.5028342 13.4211815,19.4066048 13.5049011,19.3209606 C13.6184519,19.2054852 13.7252666,19.145823 13.8291944,19.145823 Z M18.892788,19.5365145 L18.9332044,19.5384391 C18.9803568,19.5422883 19.0448306,19.5509489 19.1352862,19.5538358 L19.2132321,19.5586473 C19.3748976,19.5711571 19.3960681,19.6202342 19.372973,19.8175045 L19.3748976,19.9089225 C19.4105025,20.1427601 19.677058,20.3121239 19.958048,20.3381059 L20.0850709,20.3400304 C20.3670232,20.3217468 20.5633313,20.1427601 20.7442427,19.9329799 L20.801018,19.8521471 L20.8539442,19.7674652 L20.8991721,19.7193505 C20.9982884,19.63948 21.140708,19.6644997 21.1955588,19.7924849 L21.2263522,19.887752 C21.2427112,19.9541503 21.2494473,20.0243978 21.2427112,20.0879093 L21.2369374,20.1976109 C21.2446358,20.3698616 21.33028,20.508432 21.4553783,20.6248696 L21.5583438,20.7018532 C21.6969142,20.7846105 21.8422207,20.7990449 21.9923386,20.9068219 L22.065473,20.9684087 C22.2127041,21.1146775 22.2107795,21.3023249 22.0279435,21.4505183 L21.9124682,21.5342379 C21.8345223,21.5890887 21.7527273,21.6381657 21.66997,21.6843559 L21.3572242,21.8671918 C20.9434376,22.1154638 20.5450477,22.3877931 20.1928479,22.7245962 L20.082184,22.8160142 C19.8916497,22.9507354 19.6712843,22.9969256 19.4326352,22.995001 L19.3084993,22.9882649 L19.1843633,22.978642 L19.0765863,22.9584338 C18.8388995,22.8949223 18.69648,22.7294077 18.63778,22.4695882 L18.6108357,22.2867522 C18.595439,22.1039163 18.6146849,21.9230049 18.654139,21.7430558 L18.7253488,21.351402 C18.8013701,20.8269515 18.8061815,20.2967272 18.8119553,19.7674652 C18.8158045,19.5759686 18.8081061,19.5365145 18.892788,19.5365145 Z M18.5049833,20.5815664 L18.4289621,21.0405808 C18.3933572,21.3244577 18.3587146,21.6006362 18.3231097,21.8739279 C18.3000146,22.060613 18.314449,22.2809785 18.3644883,22.4897964 C17.8419624,22.3598866 17.3675512,22.3800948 16.8661958,22.4022276 C16.6775861,22.4089636 16.4841649,22.416662 16.2830453,22.4156997 C16.4119928,22.0346311 16.3696518,21.6833936 16.1569848,21.3610249 C17.0615416,21.4716888 17.8015461,21.2426627 18.5049833,20.5815664 Z M17,2 C18.1,2 19,2.899 19,4 L19,4 L19,10 L5,10 L5,14 L14.17,14 C14.15,14.6 14.08,15.04 13.88,15.35 C13.74,15.58 13.57,15.75 13.42,15.959 C13.41,15.969 13.4,15.99 13.39,16 L13.39,16 L5,16 L5,20 L11,20 L11,22 L5,22 C3.9,22 3,21.1 3,20 L3,20 L3,4 C3,2.899 3.9,2 5,2 L5,2 Z M17.0567301,11 C17.5686708,11 18.0296099,11.1972704 18.4299244,11.5918111 C18.7205373,11.8766503 18.8542962,12.2567566 18.925506,12.6474482 C18.9688093,12.8697382 18.9822814,13.1016512 18.9765077,13.3249035 C18.9639978,13.9532818 19.1237387,14.5402815 19.4268615,15.0782041 C19.6424154,15.4573481 19.9012727,15.806661 20.1533938,16.1598231 C20.5556329,16.7208408 20.8828131,17.3213126 21.082008,17.9852958 C21.1743883,18.2999661 21.2532964,18.6184856 21.1888227,18.9514395 C21.1695768,19.0621033 21.1695768,19.2786196 20.9059081,19.3488671 C20.6239558,19.4412474 20.4699887,19.7414833 20.3035118,19.8444488 C20.1302988,19.9483766 19.9320661,19.9772454 19.7809859,19.8444488 C19.4749762,19.4104539 19.9522743,19.0351591 19.9532366,19.0303476 C20.2698315,18.7926609 20.5113674,18.237417 20.0090497,17.3165011 C19.8396858,17.0422472 19.6087351,16.8353539 19.3258206,16.6929343 C19.4470697,16.8007113 19.5192418,16.9604521 19.6010368,17.0980603 C19.840204,17.5197673 19.8561416,17.676274 19.828299,17.8702812 L19.8052206,18.0084969 C19.7966787,18.0586352 19.787944,18.1139472 19.7809859,18.1777547 C19.7598154,18.3528923 19.6741712,18.5193692 19.5240532,18.6675626 C18.9559145,19.0440122 18.813341,18.4634022 18.7603147,18.1111562 L18.7439711,17.9920838 C18.7394849,17.9575047 18.7357416,17.9288091 18.7320848,17.9083122 C18.4818883,16.5072114 17.8140559,16.0328002 18.0401951,14.9184632 C18.1614442,14.5701126 18.2259179,14.3516718 18.2345786,14.2621784 C18.249013,14.1130227 18.1614442,14.0033211 18.0401951,13.9272999 C18.0709885,13.8156737 18.1114049,13.7098213 18.1325754,13.5981952 C18.1845393,13.2921855 18.0748377,13.0275545 17.8785296,12.8052645 C17.670674,12.5656532 17.2511136,12.6243531 17.0711645,12.9072677 C16.9816711,13.0458381 16.9181597,13.1911446 16.9393302,13.3633953 C16.9441417,13.4009248 16.9393302,13.4403789 16.9393302,13.4798329 L16.4697305,13.4798329 C16.4620321,13.3990002 16.4591452,13.3172052 16.4504846,13.238297 C16.4254649,13.0670086 16.3350092,12.9322874 16.209911,12.826435 C16.0241881,12.6676564 15.7739915,12.741753 15.687385,12.9794398 C15.5815326,13.2652413 15.6084769,13.5568165 15.7191408,13.8339573 C15.7489719,13.9090163 15.7528211,13.9475081 15.687385,14.0033211 C15.4217918,14.2284981 15.4198672,14.4815815 15.6363834,14.7654584 C15.870221,15.0782041 17.0932973,16.3263001 16.0838504,16.9094505 C15.4208295,17.2501028 15.1263673,17.7033435 15.1995017,18.2662858 C15.2177853,18.5607479 15.3390344,18.7888117 15.5613245,18.9514395 C15.7826522,19.1140672 16.2233831,19.2459016 16.8815925,19.3488671 C17.6764478,19.724162 15.9231472,21.1310365 15.9260341,21.1878119 C15.5430409,20.6826073 15.3967721,20.4372222 14.9743248,19.8444488 C14.7510725,19.5278539 14.0909385,18.7916986 14.1063352,18.881192 C13.8975173,18.7445462 13.6665666,18.8436625 13.4356159,18.9985919 C13.3624815,18.7763019 13.400011,18.6858462 13.4760323,18.482802 C13.779155,17.6725501 14.1101844,16.8757702 14.6259742,16.1713707 C14.7481856,16.0010445 14.8944544,15.8586249 15.0089674,15.675789 C15.1908411,15.3861383 15.2466542,14.9492566 15.2524279,14.3478226 C15.2572394,13.7463885 15.2572394,13.1536151 15.2524279,12.5714269 C15.249541,12.2557943 15.3929229,11.9661437 15.5613245,11.6880406 C15.7730293,11.346426 16.1050209,11.1770622 16.4764665,11.0779459 C16.6766238,11.025982 16.870045,11 17.0567301,11 Z M12.7803,16.9995 C12.4803,17.5695 12.2403,18.1695 12.0093,18.7795 C11.9803,18.8695 11.9503,18.9395 11.9403,18.9995 L10.0003,18.9995 L10.0003,16.9995 L12.7803,16.9995 Z M6.7699,17.0595 C6.8899,16.9395 7.0799,16.9395 7.1899,17.0595 L7.1899,17.0595 L7.8999,17.7695 C8.0199,17.8895 8.0199,18.0795 7.8999,18.1895 L7.8999,18.1895 L7.1899,18.8995 C7.15847143,18.9337857 7.12051224,18.9582755 7.07952099,18.9729694 L7.01619738,18.9876633 L7.01619738,18.9876633 L6.95094956,18.9876633 C6.88561429,18.9803163 6.82132857,18.9509286 6.7699,18.8995 L6.7699,18.8995 L6.0599,18.1895 C5.9399,18.0795 5.9399,17.8895 6.0599,17.7695 L6.0599,17.7695 Z M17.5359528,13.1314823 L17.6013888,13.1391807 C17.6437298,13.1497659 17.6841461,13.1718987 17.719751,13.2103905 L17.7813379,13.2941101 C17.8342641,13.3826412 17.8563969,13.4807952 17.8477362,13.5904968 L17.8294526,13.6742164 C17.7928854,13.7771819 17.7082035,13.8397311 17.579256,13.8839966 L17.6225593,13.908054 C17.6504658,13.9388474 17.5754069,13.966754 17.6514281,13.9985097 L17.6976183,14.0235293 C17.8544723,14.1380424 17.8823788,14.4960159 17.4705168,14.7616092 L17.3348332,14.8626501 C17.2453398,14.9357845 17.1587333,15.0166173 17.0682777,15.0782041 L16.9749351,15.1455647 C16.8123073,15.2648892 16.7853631,15.2899089 16.5274681,15.2437188 L16.4918632,15.2225483 C16.3869731,15.1340172 16.141588,14.7972141 15.994357,14.6490208 L15.9318078,14.5806978 C15.7826522,14.4074848 15.7865014,14.3064439 15.9876209,14.1332309 L16.0193766,14.0947391 C16.0520947,14.0418129 16.0405471,13.9811884 15.9876209,13.9090163 L15.9164111,13.8281835 C15.8413522,13.7223311 15.8384653,13.6203279 15.8432768,13.4798329 L15.8528997,13.4076608 C15.8721456,13.3181675 15.9231472,13.2585052 15.994357,13.2440708 L16.0501701,13.2450331 C16.1242667,13.2585052 16.1974011,13.3210543 16.2204962,13.4143969 L16.2378175,13.5048526 C16.2455159,13.5597034 16.2474404,13.6116673 16.2551388,13.6915377 L16.3802371,13.6491968 C16.6698877,13.5625903 16.9537646,13.5702886 17.2270562,13.7435016 L17.2241694,13.5876099 L17.2280185,13.4326805 L17.2386038,13.3633953 C17.2568874,13.2729396 17.2973037,13.1921069 17.3983447,13.156502 C17.4435725,13.140143 17.4907249,13.1314823 17.5359528,13.1314823 Z M14,11 L14,13 L10,13 L10,11 L14,11 Z M6.7699,11.0595 C6.8899,10.9395 7.0799,10.9395 7.1899,11.0595 L7.1899,11.0595 L7.8999,11.7695 C8.0199,11.8895 8.0199,12.0795 7.8999,12.1895 L7.8999,12.1895 L7.1899,12.8995 C7.15847143,12.9337857 7.12051224,12.9582755 7.07952099,12.9729694 L7.01619738,12.9876633 L7.01619738,12.9876633 L6.95094956,12.9876633 C6.88561429,12.9803163 6.82132857,12.9509286 6.7699,12.8995 L6.7699,12.8995 L6.0599,12.1895 C5.9399,12.0795 5.9399,11.8895 6.0599,11.7695 L6.0599,11.7695 Z M17,4 L5,4 L5,8 L17,8 L17,4 Z M15,5 L15,7 L10,7 L10,5 L15,5 Z M6.7699,5.0595 C6.8899,4.9395 7.0799,4.9395 7.1899,5.0595 L7.1899,5.0595 L7.8999,5.7695 C8.0199,5.8895 8.0199,6.0795 7.8999,6.1895 L7.8999,6.1895 L7.1899,6.8995 C7.15847143,6.93378571 7.12051224,6.95827551 7.07952099,6.97296939 L7.01619738,6.98766327 L7.01619738,6.98766327 L6.95094956,6.98766327 C6.88561429,6.98031633 6.82132857,6.95092857 6.7699,6.8995 L6.7699,6.8995 L6.0599,6.1895 C5.9399,6.0795 5.9399,5.8895 6.0599,5.7695 L6.0599,5.7695 Z" id="Combined-Shape" fill="#273637"></path>
    </g>
</svg>