<?xml version="1.0" encoding="UTF-8"?>
<svg width="24px" height="24px" viewBox="0 0 24 24" version="1.1" xmlns="http://www.w3.org/2000/svg" xmlns:xlink="http://www.w3.org/1999/xlink">
    <title>Icons/Full Set/Sort/Ascending</title>
    <g id="Icons/Full-Set/Sort/Ascending" stroke="none" stroke-width="1" fill="none" fill-rule="evenodd">
        <path d="M8.9,9.8 L12.3,6.4 L15.7,9.8 C15.9,10 16.2,10.1 16.4,10.1 C16.6,10.1 16.9,10 17.1,9.8 C17.5,9.4 17.5,8.8 17.1,8.4 L13.1,4.4 C12.9,4.2 12.5,4 12.2,4 C11.9,4 11.6,4.1 11.3,4.4 L7.3,8.4 C6.9,8.8 6.9,9.4 7.3,9.8 C7.7,10.2 8.5,10.2 8.9,9.8" id="Fill-1" fill="#273637"></path>
        <path d="M17.00075,14.3 C16.60075,13.9 16.00075,13.9 15.60075,14.3 L12.10075,17.8 L8.70075,14.4 C8.30075,13.999 7.70075,13.999 7.30075,14.4 C6.89975,14.8 6.89975,15.4 7.30075,15.8 L11.30075,19.8 C11.50075,19.999 11.89975,20.199 12.19975,20.199 C12.50075,20.199 12.80075,20.1 13.10075,19.8 L17.10075,15.8 C17.30075,15.4 17.30075,14.699 17.00075,14.3" id="Fill-4" fill="#273637" opacity="0.48"></path>
    </g>
</svg>
