<svg width="24" height="24" viewBox="0 0 24 24" fill="none" xmlns="http://www.w3.org/2000/svg">
<path d="M12 5C13.3845 5 14.7379 5.41054 15.889 6.17971C17.0401 6.94888 17.9373 8.04213 18.4672 9.32122C18.997 10.6003 19.1356 12.0078 18.8655 13.3656C18.5954 14.7235 17.9287 15.9708 16.9498 16.9497C15.9708 17.9287 14.7235 18.5954 13.3656 18.8655C12.0078 19.1356 10.6003 18.997 9.32122 18.4672C8.04214 17.9373 6.94889 17.0401 6.17972 15.889C5.41055 14.7378 5 13.3845 5 12C5 10.1435 5.7375 8.36301 7.05026 7.05025C8.36301 5.7375 10.1435 5 12 5ZM12 3C10.22 3 8.47991 3.52784 6.99987 4.51677C5.51983 5.50571 4.36628 6.91131 3.68509 8.55585C3.0039 10.2004 2.82567 12.01 3.17294 13.7558C3.5202 15.5016 4.37737 17.1053 5.63604 18.364C6.89472 19.6226 8.49836 20.4798 10.2442 20.8271C11.99 21.1743 13.7996 20.9961 15.4442 20.3149C17.0887 19.6337 18.4943 18.4802 19.4832 17.0001C20.4722 15.5201 21 13.78 21 12C21 9.61305 20.0518 7.32387 18.364 5.63604C16.6761 3.94821 14.387 3 12 3Z" fill="#273637"/>
<path d="M14 12.91L14.29 14.71C14.3003 14.7734 14.2929 14.8384 14.2687 14.8979C14.2445 14.9574 14.2043 15.0091 14.1527 15.0473C14.1011 15.0855 14.0399 15.1088 13.9759 15.1145C13.912 15.1203 13.8476 15.1084 13.79 15.08L12.16 14.24C12.1103 14.2153 12.0555 14.2025 12 14.2025C11.9445 14.2025 11.8897 14.2153 11.84 14.24L10.21 15.08C10.1524 15.1084 10.088 15.1203 10.0241 15.1145C9.96009 15.1088 9.89894 15.0855 9.84731 15.0473C9.79568 15.0091 9.75555 14.9574 9.73133 14.8979C9.70712 14.8384 9.69974 14.7734 9.71 14.71L10 12.91C10.0089 12.8541 10.0044 12.7969 9.98707 12.743C9.9697 12.6892 9.93987 12.6402 9.9 12.6L8.6 11.32C8.55584 11.2727 8.52525 11.2143 8.51147 11.151C8.49769 11.0878 8.50122 11.022 8.5217 10.9606C8.54217 10.8991 8.57882 10.8444 8.6278 10.802C8.67678 10.7597 8.73627 10.7314 8.8 10.72L10.6 10.44C10.6554 10.4315 10.7079 10.4097 10.7532 10.3767C10.7984 10.3436 10.835 10.3002 10.86 10.25L11.69 8.62C11.7197 8.56344 11.7642 8.51606 11.8189 8.48301C11.8735 8.44995 11.9361 8.43248 12 8.43248C12.0639 8.43248 12.1265 8.44995 12.1812 8.48301C12.2358 8.51606 12.2804 8.56344 12.31 8.62L13.14 10.25C13.165 10.3002 13.2016 10.3436 13.2469 10.3767C13.2921 10.4097 13.3446 10.4315 13.4 10.44L15.2 10.72C15.2637 10.7314 15.3232 10.7597 15.3722 10.802C15.4212 10.8444 15.4578 10.8991 15.4783 10.9606C15.4988 11.022 15.5023 11.0878 15.4885 11.151C15.4748 11.2143 15.4442 11.2727 15.4 11.32L14.1 12.6C14.0601 12.6402 14.0303 12.6892 14.0129 12.743C13.9956 12.7969 13.9911 12.8541 14 12.91Z" fill="#273637"/>
</svg>
