<?xml version="1.0" encoding="UTF-8"?>
<svg width="24px" height="24px" viewBox="0 0 24 24" version="1.1" xmlns="http://www.w3.org/2000/svg" xmlns:xlink="http://www.w3.org/1999/xlink">
    <title>Icons/Full Set/General/Pin Fill</title>
    <g id="Icons/Full-Set/General/Pin-Fill" stroke="none" stroke-width="1" fill="none" fill-rule="evenodd">
        <path d="M14.0834875,3 L13.625854,3.4365174 C12.993854,4.0685174 12.646854,4.9095174 12.646854,5.8045174 C12.646854,6.5005174 12.863854,7.1605174 13.254854,7.7195174 L8.43385401,11.1245174 C7.85785401,10.8205174 7.22085401,10.6425174 6.55285401,10.6425174 C5.46885401,10.6425174 4.44885401,11.0645174 3.68385401,11.8305174 L3.32985401,12.1845174 L6.72185283,15.5495174 L3.09487067,19.9887563 L3.68385401,20.6535174 L8.33538639,17.2273781 L11.798854,20.6535174 L12.152854,20.2995174 C12.918854,19.5335174 13.341854,18.5135174 13.340854,17.4295174 C13.340854,16.7605174 13.162854,16.1245174 12.860854,15.5495174 L16.266854,10.7275174 C16.823854,11.1195174 17.485854,11.3365174 18.180854,11.3365174 C19.075854,11.3365174 19.915854,10.9885174 20.546854,10.3555174 L21.0044875,9.919 L14.0834875,3 Z" id="Fill-1" fill="#273637"></path>
    </g>
</svg>