<svg width="24" height="24" viewBox="0 0 24 24" fill="none" xmlns="http://www.w3.org/2000/svg">
<path fill-rule="evenodd" clip-rule="evenodd" d="M12.9999 2.13339L12.5888 7.20215C12.3888 7.17992 12.2 7.16881 12 7.16881C11.7445 7.16881 11.5001 7.17992 11.2668 7.22439L11.0335 4.76781C11.0335 4.69 11.089 4.62331 11.1668 4.62331H11.5889L11.389 2.1445C11.389 2.06669 11.4445 2 11.5223 2H12.8888C12.9665 2 13.0332 2.06669 13.0221 2.1445L12.9999 2.13339Z" fill="white"/>
<path fill-rule="evenodd" clip-rule="evenodd" d="M9.56701 2.37793C9.54479 2.30012 9.46703 2.26678 9.38926 2.28901L8.11166 2.75587C8.03389 2.7781 8.00057 2.86703 8.03389 2.93372L9.07819 5.20133L8.67825 5.34583C8.60048 5.37918 8.56715 5.45699 8.60048 5.52368L9.667 7.75794C10.0558 7.54674 10.4669 7.38001 10.9113 7.27996L9.57812 2.37793H9.56701Z" fill="white"/>
<path fill-rule="evenodd" clip-rule="evenodd" d="M6.43412 3.78963L9.37815 7.93579C9.00042 8.18034 8.66714 8.46935 8.37829 8.80282L6.61187 7.06877C6.55633 7.01319 6.55633 6.92426 6.61187 6.86868L6.93405 6.60191L5.17874 4.82339C5.1232 4.76781 5.1232 4.67889 5.18985 4.63442L6.23415 3.75628C6.30081 3.71182 6.37857 3.72294 6.42301 3.77851L6.43412 3.78963Z" fill="white"/>
<path fill-rule="evenodd" clip-rule="evenodd" d="M3.9678 6.19062C3.90115 6.14616 3.81227 6.16839 3.77894 6.23509L3.10126 7.41335C3.05682 7.48005 3.09015 7.56897 3.15681 7.5912L5.41204 8.65831L5.20096 9.01402C5.15652 9.08071 5.18985 9.16964 5.26762 9.19187L7.51175 10.2256C7.67839 9.80323 7.88947 9.4253 8.1561 9.06959L3.9678 6.19062Z" fill="white"/>
<path fill-rule="evenodd" clip-rule="evenodd" d="M2.30137 9.39195C2.31248 9.31414 2.39025 9.26968 2.46802 9.29191L7.38954 10.5813C7.25623 11.0037 7.18957 11.4372 7.17846 11.893L4.71214 11.6929C4.63438 11.6929 4.57883 11.6151 4.58994 11.5373L4.6677 11.126L2.17917 10.8926C2.1014 10.8926 2.04585 10.8148 2.05696 10.737L2.29026 9.40307L2.30137 9.39195Z" fill="white"/>
<path fill-rule="evenodd" clip-rule="evenodd" d="M2.12362 12.7155C2.04585 12.7155 1.99031 12.7934 2.00142 12.8712L2.24583 14.2051C2.25693 14.2829 2.3347 14.3273 2.41247 14.3162L4.82324 13.6937L4.901 14.105C4.91211 14.1828 4.98988 14.2273 5.06765 14.2162L7.44509 13.5603C7.30067 13.1491 7.21179 12.7044 7.18957 12.2598L2.11251 12.7155H2.12362Z" fill="white"/>
<path fill-rule="evenodd" clip-rule="evenodd" d="M2.9124 16.2392C2.86796 16.1725 2.90129 16.0836 2.96795 16.0614L7.55618 13.8827C7.73394 14.294 7.96724 14.683 8.24498 15.0165L6.23415 16.4504C6.16749 16.4949 6.07862 16.4727 6.04529 16.4171L5.83421 16.0503L3.77894 17.462C3.71228 17.5064 3.62341 17.4842 3.59008 17.4175L2.90129 16.2392H2.9124Z" fill="white"/>
<path fill-rule="evenodd" clip-rule="evenodd" d="M8.47828 15.2833L4.901 18.907C4.84546 18.9626 4.84546 19.0515 4.91211 19.1071L5.95641 19.9741C6.02307 20.0297 6.10084 20.0075 6.14527 19.9519L7.58951 17.9177L7.91169 18.1845C7.97835 18.2401 8.06722 18.2178 8.11166 18.1622L9.51146 16.1281C9.13374 15.8946 8.77823 15.6056 8.47828 15.2833Z" fill="white"/>
<path fill-rule="evenodd" clip-rule="evenodd" d="M7.76727 21.0968C7.6895 21.0746 7.65617 20.9856 7.6895 20.9189L9.81142 16.2948C10.2003 16.4949 10.6224 16.6394 11.0668 16.7283L10.4447 19.1182C10.4224 19.1849 10.3447 19.2294 10.2669 19.2071L9.86697 19.0626L9.2004 21.4747C9.17818 21.5525 9.10041 21.5859 9.02264 21.5637L7.74505 21.0968H7.76727Z" fill="white"/>
<path fill-rule="evenodd" clip-rule="evenodd" d="M11.4112 16.7839L11.0001 21.8527C11.0001 21.9305 11.0557 21.9972 11.1335 21.9972H12.4999C12.5777 21.9972 12.6444 21.9305 12.6332 21.8527L12.4333 19.3739H12.8554C12.9332 19.3739 12.9999 19.3072 12.9887 19.2294L12.7554 16.7728C12.511 16.8061 12.2666 16.8284 12.0222 16.8284C11.8222 16.8284 11.6223 16.8172 11.4334 16.795L11.4112 16.7839Z" fill="white"/>
<path fill-rule="evenodd" clip-rule="evenodd" d="M16.3216 3.06711C16.3549 2.9893 16.3216 2.9226 16.2438 2.88926L14.9662 2.4224C14.8885 2.38905 14.8107 2.43351 14.7885 2.51132L14.1219 4.92343L13.722 4.77893C13.6442 4.74558 13.5664 4.80116 13.5442 4.86785L12.9221 7.25773C13.3665 7.34666 13.7886 7.50228 14.1775 7.69125L16.2994 3.06711H16.3216Z" fill="white"/>
<path fill-rule="evenodd" clip-rule="evenodd" d="M19.1101 5.07905L15.5328 8.70278C15.2329 8.38042 14.8885 8.09141 14.4996 7.85798L15.8994 5.82381C15.9439 5.75711 16.0328 5.746 16.0994 5.79046L16.4216 6.05724L17.8658 4.02306C17.9103 3.96748 17.9992 3.95637 18.0547 4.00083L19.099 4.87897C19.1657 4.93455 19.1657 5.02347 19.1101 5.06794V5.07905Z" fill="white"/>
<path fill-rule="evenodd" clip-rule="evenodd" d="M21.0432 7.92468C21.1209 7.89133 21.1432 7.8024 21.0987 7.74682L20.4099 6.56856C20.3655 6.50186 20.2766 6.49075 20.2211 6.5241L18.1658 7.94691L17.9547 7.5912C17.9103 7.52451 17.8214 7.50228 17.7658 7.55786L15.755 8.99178C16.0328 9.33637 16.2661 9.71431 16.4438 10.1367L21.0321 7.95802L21.0432 7.92468Z" fill="white"/>
<path fill-rule="evenodd" clip-rule="evenodd" d="M21.7653 9.76988L21.9986 11.1038C22.0097 11.1816 21.9541 11.2483 21.8764 11.2594L16.8104 11.7374C16.7882 11.2816 16.6993 10.8481 16.5549 10.4368L18.9324 9.781C19.0101 9.75877 19.0879 9.81435 19.099 9.88104L19.1768 10.2923L21.5875 9.65873C21.6653 9.64761 21.7431 9.69207 21.7542 9.75877H21.7653V9.76988Z" fill="white"/>
<path fill-rule="evenodd" clip-rule="evenodd" d="M21.532 14.6941C21.6098 14.7164 21.6875 14.6719 21.6986 14.583L21.9319 13.2491C21.943 13.1713 21.8875 13.1046 21.8097 13.0935L19.3212 12.8601L19.399 12.4488C19.4101 12.371 19.3545 12.3043 19.2767 12.2932L16.8104 12.0931C16.7993 12.5488 16.7216 12.9934 16.5993 13.4047L21.5209 14.683L21.532 14.6941Z" fill="white"/>
<path fill-rule="evenodd" clip-rule="evenodd" d="M20.2211 17.751C20.1766 17.8177 20.0877 17.8288 20.0322 17.7954L15.8439 14.9053C16.1105 14.5608 16.3327 14.1717 16.4883 13.7493L18.7324 14.7831C18.8101 14.8164 18.8324 14.8942 18.799 14.9609L18.588 15.3166L20.8432 16.3837C20.9098 16.4171 20.9432 16.4949 20.8987 16.5616L20.2211 17.7399V17.751Z" fill="white"/>
<path fill-rule="evenodd" clip-rule="evenodd" d="M14.6219 16.0391L17.5659 20.1853C17.6103 20.252 17.6992 20.2631 17.7547 20.2075L18.799 19.3405C18.8657 19.2849 18.8657 19.196 18.8101 19.1404L17.0548 17.3619L17.377 17.0951C17.4437 17.0396 17.4437 16.9506 17.377 16.8951L15.6106 15.161C15.3106 15.4945 14.9774 15.7835 14.6107 16.028L14.6219 16.0391Z" fill="white"/>
<path fill-rule="evenodd" clip-rule="evenodd" d="M14.5996 21.6859C14.5219 21.7082 14.4441 21.6748 14.4219 21.597L13.0776 16.695C13.522 16.5949 13.9331 16.4393 14.3219 16.217L15.3884 18.4513C15.4217 18.518 15.3884 18.6069 15.3106 18.6291L14.9107 18.7736L15.955 21.0412C15.9883 21.119 15.955 21.1968 15.8772 21.2191L14.5996 21.6859Z" fill="white"/>
</svg>
