<?xml version="1.0" encoding="UTF-8"?><svg id="ARTWORK" xmlns="http://www.w3.org/2000/svg" xmlns:xlink="http://www.w3.org/1999/xlink" viewBox="0 0 2500 2500"><defs><style>.cls-1{fill:url(#linear-gradient-2);}.cls-2{filter:url(#AI_DesenfoqueGaussiano_4);}.cls-3{fill:url(#linear-gradient-3);fill-opacity:.9;}.cls-4{fill:#002530;opacity:.15;}.cls-5{fill:#eafcfa;}.Estilo_grÃ_fico{fill:url(#Degradado_sin_nombre_6);fill-opacity:.15;}.cls-6{fill:url(#linear-gradient);}</style><radialGradient id="Degradado_sin_nombre_6" cx="1621.93" cy="6164.96" fx="1621.93" fy="6164.96" r="332.43" gradientTransform="translate(-1992.15 1124.1) scale(2 .19)" gradientUnits="userSpaceOnUse"><stop offset="0" stop-color="#0f0b26" stop-opacity=".8"/><stop offset=".48" stop-color="#0f0b26" stop-opacity=".35"/><stop offset=".97" stop-color="#0f0b26" stop-opacity="0"/></radialGradient><linearGradient id="linear-gradient" x1="279.86" y1="1121.36" x2="2208.54" y2="1121.36" gradientUnits="userSpaceOnUse"><stop offset="0" stop-color="#d5f8f5"/><stop offset="1" stop-color="#95eee5"/></linearGradient><linearGradient id="linear-gradient-2" x1="594.87" y1="392.08" x2="1907.17" y2="2019.34" gradientUnits="userSpaceOnUse"><stop offset="0" stop-color="#eafcfa"/><stop offset="1" stop-color="#d5f8f5"/></linearGradient><filter id="AI_DesenfoqueGaussiano_4"><feGaussianBlur stdDeviation="4"/></filter><linearGradient id="linear-gradient-3" x1="1048.74" y1="911.7" x2="2194.59" y2="2578.39" gradientUnits="userSpaceOnUse"><stop offset=".14" stop-color="#12abbb"/><stop offset=".45" stop-color="#0c93a7"/><stop offset=".98" stop-color="#00637f"/></linearGradient></defs><g id="xBright"><path class="cls-6" d="m2258.71,1119.3c34.1,550.36-457.3,998.42-1008.71,998.42S216.92,1670.17,241.29,1119.3c24.14-545.83,457.3-994.3,1008.71-994.3s974.95,449.4,1008.71,994.3Z"/><path class="cls-1" d="m1250,2209.19c-135.64,0-267.23-26.56-391.09-78.96-119.64-50.6-227.1-123.05-319.37-215.33s-164.72-199.73-215.33-319.37c-52.39-123.87-78.96-255.45-78.96-391.09s26.56-267.23,78.96-391.09c50.6-119.64,123.05-227.1,215.33-319.37,92.28-92.28,199.73-164.72,319.37-215.33,123.86-52.39,255.45-78.95,391.09-78.95s267.23,26.56,391.09,78.95c119.64,50.6,227.1,123.05,319.37,215.33,92.28,92.28,164.72,199.73,215.33,319.37,52.39,123.86,78.96,255.45,78.96,391.09s-26.56,267.23-78.96,391.09c-50.6,119.64-123.05,227.1-215.33,319.37s-199.73,164.72-319.37,215.33c-123.86,52.39-255.45,78.96-391.09,78.96Z"/><path class="cls-5" d="m1250,207.93c67.62,0,135.2,6.81,200.85,20.25,63.97,13.09,126.9,32.62,187.03,58.06,59.04,24.97,115.99,55.88,169.27,91.87,52.77,35.65,102.39,76.59,147.49,121.69,45.1,45.1,86.04,94.72,121.69,147.49,35.99,53.27,66.9,110.22,91.88,169.27,25.43,60.13,44.97,123.06,58.06,187.03,13.43,65.65,20.25,133.23,20.25,200.85s-6.81,135.2-20.25,200.85c-13.09,63.97-32.62,126.9-58.06,187.03-24.97,59.04-55.88,115.99-91.88,169.27-35.65,52.77-76.59,102.39-121.69,147.49-45.1,45.1-94.72,86.04-147.49,121.69-53.27,35.99-110.22,66.9-169.27,91.87-60.13,25.43-123.06,44.97-187.03,58.06-65.65,13.43-133.23,20.25-200.85,20.25s-135.2-6.81-200.85-20.25c-63.97-13.09-126.9-32.62-187.03-58.06-59.04-24.97-115.99-55.88-169.27-91.87-52.77-35.65-102.39-76.59-147.49-121.69-45.1-45.1-86.04-94.72-121.69-147.49-35.99-53.27-66.9-110.22-91.87-169.27-25.43-60.13-44.97-123.06-58.06-187.03-13.43-65.65-20.25-133.23-20.25-200.85s6.81-135.2,20.25-200.85c13.09-63.97,32.62-126.9,58.06-187.03,24.97-59.04,55.88-115.99,91.87-169.27,35.65-52.77,76.59-102.39,121.69-147.49,45.1-45.1,94.72-86.04,147.49-121.69,53.27-35.99,110.22-66.9,169.27-91.87,60.13-25.43,123.06-44.97,187.03-58.06,65.65-13.43,133.23-20.25,200.85-20.25m0-16.47c-559.45,0-1012.98,453.53-1012.98,1012.98s453.53,1012.98,1012.98,1012.98,1012.98-453.53,1012.98-1012.98S1809.45,191.46,1250,191.46h0Z"/><path class="cls-5" d="m1250,201.76c68.04,0,136.03,6.85,202.09,20.37,64.37,13.17,127.69,32.83,188.2,58.42,59.41,25.13,116.71,56.23,170.32,92.45,53.1,35.87,103.03,77.07,148.4,122.44,45.38,45.38,86.57,95.31,122.44,148.4,36.21,53.6,67.32,110.91,92.45,170.32,25.59,60.51,45.25,123.83,58.42,188.2,13.52,66.06,20.37,134.05,20.37,202.09s-6.85,136.03-20.37,202.09c-13.17,64.37-32.83,127.69-58.42,188.2-25.13,59.41-56.23,116.71-92.45,170.32-35.87,53.1-77.07,103.03-122.44,148.4-45.38,45.38-95.31,86.57-148.4,122.44-53.6,36.21-110.91,67.32-170.32,92.45-60.51,25.59-123.83,45.25-188.2,58.42-66.06,13.52-134.05,20.37-202.09,20.37s-136.03-6.85-202.09-20.37c-64.37-13.17-127.69-32.83-188.2-58.42-59.41-25.13-116.71-56.23-170.32-92.45-53.1-35.87-103.03-77.07-148.4-122.44-45.38-45.38-86.57-95.31-122.44-148.4-36.21-53.6-67.32-110.91-92.45-170.32-25.59-60.51-45.25-123.83-58.42-188.2-13.52-66.06-20.37-134.05-20.37-202.09s6.85-136.03,20.37-202.09c13.17-64.37,32.83-127.69,58.42-188.2,25.13-59.41,56.23-116.71,92.45-170.32,35.87-53.1,77.07-103.03,122.44-148.4,45.38-45.38,95.31-86.57,148.4-122.44,53.6-36.21,110.91-67.32,170.32-92.45,60.51-25.59,123.83-45.25,188.2-58.42,66.06-13.52,134.05-20.37,202.09-20.37m0-10.29c-559.45,0-1012.98,453.53-1012.98,1012.98s453.53,1012.98,1012.98,1012.98,1012.98-453.53,1012.98-1012.98S1809.45,191.46,1250,191.46h0Z"/><g class="cls-2"><path class="cls-4" d="m1679.03,1680.83c-16.5,0-32-6.43-43.67-18.09l-385.37-385.36-385.37,385.37c-11.66,11.67-27.17,18.09-43.67,18.09s-32-6.43-43.67-18.09c-11.67-11.66-18.09-27.17-18.09-43.67s6.42-32,18.09-43.67l385.37-385.37-385.37-385.36c-11.67-11.66-18.09-27.17-18.09-43.67s6.42-32,18.09-43.67c11.66-11.67,27.17-18.09,43.67-18.09s32,6.42,43.67,18.09l385.37,385.37,385.37-385.37c11.66-11.67,27.17-18.09,43.67-18.09s32,6.42,43.67,18.09c11.67,11.67,18.09,27.17,18.09,43.67s-6.42,32.01-18.09,43.67l-385.37,385.37,385.37,385.37c11.67,11.66,18.09,27.17,18.09,43.67s-6.42,32-18.09,43.67c-11.66,11.67-27.17,18.09-43.67,18.09Z"/></g><path class="cls-3" d="m1679.03,1695.24c-16.5,0-32-6.43-43.67-18.09l-385.37-385.36-385.37,385.37c-11.66,11.67-27.17,18.09-43.67,18.09s-32-6.43-43.67-18.09c-11.67-11.66-18.09-27.17-18.09-43.67s6.42-32,18.09-43.67l385.37-385.37-385.37-385.36c-11.67-11.66-18.09-27.17-18.09-43.67s6.42-32,18.09-43.67c11.66-11.67,27.17-18.09,43.67-18.09s32,6.42,43.67,18.09l385.37,385.37,385.37-385.37c11.66-11.67,27.17-18.09,43.67-18.09s32,6.42,43.67,18.09c11.67,11.67,18.09,27.17,18.09,43.67s-6.42,32.01-18.09,43.67l-385.37,385.37,385.37,385.37c11.67,11.66,18.09,27.17,18.09,43.67s-6.42,32-18.09,43.67c-11.66,11.67-27.17,18.09-43.67,18.09Z"/><ellipse class="Estilo_grÃ_fico" cx="1250" cy="2311" rx="664.5" ry="64"/></g></svg>