<svg xmlns="http://www.w3.org/2000/svg" xmlns:xlink="http://www.w3.org/1999/xlink" viewBox="0 0 2500 2500"><defs><style>.Estilo-gráfico{fill-opacity:0.15;fill:url(#Degradado_sin_nombre_6);}.cls-1{fill:#fff;}.cls-2{fill-opacity:0.9;fill:url(#linear-gradient);}.cls-3{opacity:0.9;}.cls-4{fill:url(#linear-gradient-2);}.cls-5,.cls-8{opacity:0.25;}.cls-6{fill:#bcefff;}.cls-7{filter:url(#AI_DesenfoqueGaussiano_4);}.cls-8{fill:#00273d;}.cls-9{fill:#d3f5ff;}</style><radialGradient id="Degradado_sin_nombre_6" cx="1621.93" cy="6164.96" r="332.43" gradientTransform="translate(-1992.15 1124.1) scale(2 0.19)" gradientUnits="userSpaceOnUse"><stop offset="0" stop-color="#0f0b26" stop-opacity="0.8"/><stop offset="0.48" stop-color="#0f0b26" stop-opacity="0.35"/><stop offset="0.97" stop-color="#0f0b26" stop-opacity="0"/></radialGradient><linearGradient id="linear-gradient" x1="2214.48" y1="1121.3" x2="368.58" y2="1121.3" gradientUnits="userSpaceOnUse"><stop offset="0" stop-color="#005584"/><stop offset="0.42" stop-color="#0071b0"/><stop offset="0.98" stop-color="#0071b0"/></linearGradient><linearGradient id="linear-gradient-2" x1="940.33" y1="753.94" x2="2703.39" y2="3318.42" gradientUnits="userSpaceOnUse"><stop offset="0.14" stop-color="#1da1dc" stop-opacity="0.99"/><stop offset="0.6" stop-color="#0e89c6"/><stop offset="1" stop-color="#0071b0"/></linearGradient><filter id="AI_DesenfoqueGaussiano_4" name="AI_DesenfoqueGaussiano_4"><feGaussianBlur stdDeviation="4"/></filter></defs><g id="ARTWORK"><g id="xDark"><ellipse class="Estilo-gráfico" cx="1250" cy="2311" rx="664.5" ry="64"/><path class="cls-1" d="M2258.65,1119.24c34.1,550.32-457.27,998.36-1008.65,998.36S217,1670.08,241.35,1119.24C265.49,573.44,698.62,125,1250,125S2224.89,574.38,2258.65,1119.24Z"/><path class="cls-2" d="M2258.65,1119.24c34.1,550.32-457.27,998.36-1008.65,998.36S217,1670.08,241.35,1119.24C265.49,573.44,698.62,125,1250,125S2224.89,574.38,2258.65,1119.24Z"/><circle class="cls-1" cx="1250" cy="1204.38" r="1012.92"/><g class="cls-3"><circle class="cls-4" cx="1250" cy="1204.38" r="1012.92"/><g class="cls-5"><path class="cls-6" d="M1250,207.93a1004.18,1004.18,0,0,1,200.84,20.24,991.17,991.17,0,0,1,356.27,149.92,999.39,999.39,0,0,1,361,438.43,990.77,990.77,0,0,1,58.06,187,1006.58,1006.58,0,0,1,0,401.68,991,991,0,0,1-149.93,356.27,999.46,999.46,0,0,1-438.42,361,991.5,991.5,0,0,1-187,58.06,1006.58,1006.58,0,0,1-401.68,0,991,991,0,0,1-356.27-149.93,999.46,999.46,0,0,1-361-438.42,990.77,990.77,0,0,1-58.06-187,1006.58,1006.58,0,0,1,0-401.68A991.1,991.1,0,0,1,423.72,647.26a999.3,999.3,0,0,1,438.42-361,990.77,990.77,0,0,1,187-58.06A1004.18,1004.18,0,0,1,1250,207.93m0-16.47C690.58,191.46,237.08,645,237.08,1204.38S690.58,2217.3,1250,2217.3s1012.92-453.5,1012.92-1012.92S1809.42,191.46,1250,191.46Z"/></g></g><g class="cls-7"><path class="cls-8" d="M1744.51,1553.48,1381,1190l363.51-363.51a92.63,92.63,0,0,0-131-131L1250,1059,886.49,695.46a92.63,92.63,0,0,0-131,131L1119,1190,755.49,1553.48a92.63,92.63,0,0,0,131,131L1250,1321l363.51,363.5a92.63,92.63,0,1,0,131-131Z"/></g><path class="cls-9" d="M1744.51,1567.89,1381,1204.38l363.51-363.51a92.63,92.63,0,0,0-131-131L1250,1073.38,886.49,709.87a92.63,92.63,0,0,0-131,131L1119,1204.38,755.49,1567.89a92.63,92.63,0,0,0,131,131L1250,1335.38l363.51,363.5a92.63,92.63,0,1,0,131-131Z"/></g></g></svg>