<?xml version="1.0" encoding="UTF-8"?>
<svg width="24px" height="24px" viewBox="0 0 24 24" version="1.1" xmlns="http://www.w3.org/2000/svg" xmlns:xlink="http://www.w3.org/1999/xlink">
    <title>Icons/Full Set/VCD/VCD Instance</title>
    <g id="Icons/Full-Set/VCD/VCD-Instance" stroke="none" stroke-width="1" fill="none" fill-rule="evenodd">
        <path d="M7.999,8.599 L7.999,10.6 L4.8,10.6 L4.8,19.6 L13.8,19.6 L13.799,16.499 L15.7,16.499 L15.7,20.562766 C15.7,21.079078 15.2715075,21.5351537 14.7573165,21.593669 L14.6459459,21.6 L3.75405405,21.6 C3.19189189,21.6 2.7,21.1159574 2.7,20.562766 L2.7,20.562766 L2.7,9.63723404 C2.7,9.08404255 3.19189189,8.6 3.75405405,8.6 L3.75405405,8.6 L7.999,8.599 Z M15.7,13.499 L13.799,13.499 L13.799,12.843 L15.7,10.943 L15.7,13.499 Z M13.802,8.599 L11.799,10.6 L10.999,10.6 L10.999,8.599 L13.802,8.599 Z" id="Combined-Shape" fill="#273637"></path>
        <path d="M11,2 C11.5522847,2 12,2.44771525 12,3 L12,6 C12,6.55228475 11.5522847,7 11,7 L9.999,7 L9.999,12.6 L10.8,12.6 C10.9168857,12.6 11.0290875,12.6200539 11.1333526,12.6569087 L17.3859672,6.40625481 C17.3307106,6.28211916 17.3,6.14464601 17.3,6 L17.3,3 C17.3,2.44771525 17.7477153,2 18.3,2 L21.3,2 C21.8522847,2 22.3,2.44771525 22.3,3 L22.3,6 C22.3,6.55228475 21.8522847,7 21.3,7 L18.3,7 L18.211,6.995 L11.7845641,13.4240109 C11.7947077,13.4811438 11.8,13.5399539 11.8,13.6 L11.8,14.499 L17.3,14.499 L17.3,13.6 C17.3,13.0477153 17.7477153,12.6 18.3,12.6 L21.3,12.6 C21.8522847,12.6 22.3,13.0477153 22.3,13.6 L22.3,16.6 C22.3,17.1522847 21.8522847,17.6 21.3,17.6 L18.3,17.6 C17.7477153,17.6 17.3,17.1522847 17.3,16.6 L17.3,15.499 L11.8,15.499 L11.8,16.6 C11.8,17.1522847 11.3522847,17.6 10.8,17.6 L7.8,17.6 C7.24771525,17.6 6.8,17.1522847 6.8,16.6 L6.8,13.6 C6.8,13.0477153 7.24771525,12.6 7.8,12.6 L8.999,12.6 L8.999,7 L8,7 C7.44771525,7 7,6.55228475 7,6 L7,3 C7,2.44771525 7.44771525,2 8,2 L11,2 Z" id="Combined-Shape" fill="#273637"></path>
    </g>
</svg>
