<?xml version="1.0" encoding="UTF-8"?>
<svg width="24px" height="24px" viewBox="0 0 24 24" version="1.1" xmlns="http://www.w3.org/2000/svg" xmlns:xlink="http://www.w3.org/1999/xlink">
    <title>Icons/Full Set/Restore/Restore to Another User</title>
    <defs>
        <polygon id="path-1" points="0.553754964 0.643847817 6.49147754 0.643847817 6.49147754 4 0.553754964 4"></polygon>
    </defs>
    <g id="Icons/Full-Set/Restore/Restore-to-Another-User" stroke="none" stroke-width="1" fill="none" fill-rule="evenodd">
        <g id="Group-16" transform="translate(3.000000, 3.000000)">
            <path d="M0.8837,6.397 L4.6957,5.798 C5.1817,5.721 5.3747,5.124 5.0247,4.777 L4.1367,3.898 C5.5547,2.564 7.5327,1.814 9.7117,2.04 C11.7797,2.253 13.5947,3.418 14.7237,5.074 C14.9927,5.468 15.5187,5.588 15.9437,5.371 L15.9797,5.353 C16.4987,5.087 16.6757,4.421 16.3437,3.942 C14.7287,1.606 12.0497,0.039 9.0637,0.001 C6.5877,-0.031 4.3547,0.923 2.7157,2.492 L1.7797,1.566 C1.4297,1.22 0.8357,1.418 0.7627,1.904 L0.1967,5.715 C0.1367,6.116 0.4837,6.46 0.8837,6.397" id="Fill-1" fill="#273637"></path>
            <path d="M2.0741,12.9009 C2.4881,12.6629 2.6751,12.1549 2.4891,11.7139 C2.2411,11.1279 2.0701,10.4989 1.9911,9.8389 C1.9311,9.3439 1.5061,8.9759 1.0071,8.9829 C0.9971,8.9829 0.9871,8.9829 0.9771,8.9829 C0.3921,8.9919 -0.0619,9.5069 0.0071,10.0879 C0.1061,10.9269 0.3231,11.7269 0.6361,12.4759 C0.8601,13.0109 1.5121,13.2239 2.0151,12.9339 L2.0741,12.9009 Z" id="Fill-3" fill="#273637"></path>
            <g id="Group-7" transform="translate(8.000000, 13.932600)">
                <mask id="mask-2" fill="white">
                    <use xlink:href="#path-1"></use>
                </mask>
                <g id="Clip-6"></g>
                <path d="M4.9672,0.8022 C3.9792,1.4612 2.7422,1.8792 1.4022,2.0092 C0.9382,2.0542 0.5852,2.4482 0.5592,2.9122 L0.5552,2.9722 C0.5232,3.5642 1.0272,4.0542 1.6172,3.9952 C3.2582,3.8302 4.8222,3.2832 6.0712,2.4552 C6.5532,2.1352 6.6312,1.4532 6.2502,1.0172 L6.2142,0.9762 C5.8992,0.6142 5.3662,0.5352 4.9672,0.8022" id="Fill-5" fill="#273637" mask="url(#mask-2)"></path>
            </g>
            <path d="M6.3388,15.5005 C5.5888,15.2025 4.9058,14.7795 4.3128,14.2565 C3.9448,13.9335 3.3978,13.9325 3.0328,14.2585 L2.9838,14.3025 C2.5508,14.6895 2.5498,15.3735 2.9858,15.7575 C3.7508,16.4315 4.6308,16.9755 5.5968,17.3585 C6.1358,17.5725 6.7458,17.2675 6.8968,16.7065 L6.9138,16.6455 C7.0418,16.1715 6.7938,15.6815 6.3388,15.5005" id="Fill-8" fill="#273637"></path>
            <path d="M15.9281,7.9736 C16.2241,9.5746 15.7231,11.2296 15.0631,12.4216 C14.8251,12.8506 14.9221,13.3866 15.3151,13.6816 L15.3561,13.7136 C15.8231,14.0656 16.5001,13.9306 16.7871,13.4206 C17.5611,12.0476 17.9871,10.4476 17.9391,8.7356 C17.9281,8.3626 17.8921,7.9956 17.8331,7.6356 C17.7401,7.0686 17.1721,6.7086 16.6171,6.8586 C16.1291,6.9906 15.8361,7.4756 15.9281,7.9736" id="Fill-10" fill="#273637"></path>
            <path d="M8.9428,14.1997 C10.8428,14.1997 12.5428,13.0997 13.4428,11.4997 C12.1428,10.8007 10.5428,10.3997 8.9428,10.3997 C7.3428,10.3997 5.8428,10.8007 4.4428,11.4997 C5.3428,13.0997 7.0428,14.1997 8.9428,14.1997" id="Fill-12" fill="#273637"></path>
            <path d="M11.2431,6.2998 C11.2431,4.9998 10.2431,3.9998 8.9431,3.9998 C7.6431,3.9998 6.6431,4.9998 6.6431,6.2998 C6.6431,7.5998 7.6431,8.5998 8.9431,8.5998 C10.2431,8.5998 11.2431,7.5998 11.2431,6.2998" id="Fill-14" fill="#273637"></path>
        </g>
    </g>
</svg>
