<?xml version="1.0" encoding="UTF-8"?>
<svg width="24px" height="24px" viewBox="0 0 24 24" version="1.1" xmlns="http://www.w3.org/2000/svg" xmlns:xlink="http://www.w3.org/1999/xlink">
    <title>Icons/Full Set/Restore/Restore to the Original List</title>
    <defs>
        <filter id="filter-1">
            <feColorMatrix in="SourceGraphic" type="matrix" values="0 0 0 0 0.152941 0 0 0 0 0.211765 0 0 0 0 0.215686 0 0 0 1.000000 0"></feColorMatrix>
        </filter>
        <polygon id="path-2" points="0.000189013744 0.0171672691 19.936 0.0171672691 19.936 18 0.000189013744 18"></polygon>
    </defs>
    <g id="Icons/Full-Set/Restore/Restore-to-the-Original-List" stroke="none" stroke-width="1" fill="none" fill-rule="evenodd">
        <g filter="url(#filter-1)" id="Group">
            <g transform="translate(2.000000, 3.000000)">
                <path d="M13.703,6.9702 L10.374,6.9702 C9.974,6.9702 9.649,6.6452 9.649,6.2432 C9.649,5.8432 9.974,5.5182 10.374,5.5182 L13.703,5.5182 C14.104,5.5182 14.429,5.8432 14.429,6.2432 C14.429,6.6452 14.104,6.9702 13.703,6.9702" id="Fill-1" fill="#273637"></path>
                <path d="M13.703,9.7436 L10.374,9.7436 C9.974,9.7436 9.649,9.4186 9.649,9.0176 C9.649,8.6176 9.974,8.2926 10.374,8.2926 L13.703,8.2926 C14.104,8.2926 14.429,8.6176 14.429,9.0176 C14.429,9.4186 14.104,9.7436 13.703,9.7436" id="Fill-3" fill="#273637"></path>
                <path d="M13.703,12.5181 L10.374,12.5181 C9.974,12.5181 9.649,12.1931 9.649,11.7911 C9.649,11.3911 9.974,11.0661 10.374,11.0661 L13.703,11.0661 C14.104,11.0661 14.429,11.3911 14.429,11.7911 C14.429,12.1931 14.104,12.5181 13.703,12.5181" id="Fill-5" fill="#273637"></path>
                <path d="M8.8812,6.2436 C8.8812,6.6446 8.5562,6.9706 8.1552,6.9706 C7.7542,6.9706 7.4292,6.6446 7.4292,6.2436 C7.4292,5.8436 7.7542,5.5176 8.1552,5.5176 C8.5562,5.5176 8.8812,5.8436 8.8812,6.2436" id="Fill-7" fill="#273637"></path>
                <path d="M8.8812,9.0181 C8.8812,9.4191 8.5562,9.7441 8.1552,9.7441 C7.7542,9.7441 7.4292,9.4191 7.4292,9.0181 C7.4292,8.6181 7.7542,8.2921 8.1552,8.2921 C8.5562,8.2921 8.8812,8.6181 8.8812,9.0181" id="Fill-9" fill="#273637"></path>
                <path d="M8.8812,11.7925 C8.8812,12.1925 8.5562,12.5185 8.1552,12.5185 C7.7542,12.5185 7.4292,12.1925 7.4292,11.7925 C7.4292,11.3915 7.7542,11.0665 8.1552,11.0665 C8.5562,11.0665 8.8812,11.3915 8.8812,11.7925" id="Fill-11" fill="#273637"></path>
                <g id="Group-15">
                    <mask id="mask-3" fill="white">
                        <use xlink:href="#path-2"></use>
                    </mask>
                    <g id="Clip-14"></g>
                    <path d="M4.6429,2.5356 C2.8699,4.2646 1.9659,6.5166 1.9159,8.7866 L0.5989,8.7926 C0.1069,8.7956 -0.1741,9.3556 0.1199,9.7516 L2.4139,12.8476 C2.6549,13.1726 3.1429,13.1706 3.3809,12.8426 L5.6529,9.7226 C5.9439,9.3256 5.6579,8.7666 5.1639,8.7686 L3.9149,8.7756 C3.9739,6.8296 4.8429,4.9006 6.5429,3.5186 C9.0579,1.4756 12.7769,1.4736 15.2919,3.5146 C18.6159,6.2106 18.8089,10.9956 15.8699,13.9336 C13.3199,16.4846 9.3609,16.6636 6.5979,14.4936 C6.2059,14.1846 5.6449,14.2246 5.2979,14.5836 C5.2899,14.5906 5.2839,14.5976 5.2759,14.6046 C4.8689,15.0246 4.9119,15.7096 5.3709,16.0726 C8.9139,18.8646 14.0099,18.6236 17.2849,15.3486 C20.8819,11.7506 20.8189,5.9556 17.0949,2.4366 C13.6419,-0.8294 8.0459,-0.7814 4.6429,2.5356" id="Fill-13" fill="#273637" mask="url(#mask-3)"></path>
                </g>
            </g>
        </g>
    </g>
</svg>
