<?xml version="1.0" encoding="UTF-8"?>
<svg width="24px" height="24px" viewBox="0 0 24 24" version="1.1" xmlns="http://www.w3.org/2000/svg" xmlns:xlink="http://www.w3.org/1999/xlink">
    <title>Icons/Full Set/Restore/Restore to Another Channel</title>
    <g id="Icons/Full-Set/Restore/Restore-to-Another-Channel" stroke="none" stroke-width="1" fill="none" fill-rule="evenodd">
        <path d="M15.9671,17.7345 C16.3661,17.4685 16.8991,17.5465 17.2141,17.9085 L17.2141,17.9085 L17.2501,17.9495 C17.6311,18.3865 17.5531,19.0675 17.0711,19.3875 C15.8221,20.2155 14.2581,20.7625 12.6171,20.9285 C12.0271,20.9865 11.5231,20.4965 11.5551,19.9045 L11.5551,19.9045 L11.5591,19.8455 C11.5851,19.3805 11.9381,18.9865 12.4021,18.9415 C13.7421,18.8115 14.9791,18.3935 15.9671,17.7345 Z M6.0326,17.2583 C6.3976,16.9323 6.9446,16.9333 7.3126,17.2563 C7.9056,17.7793 8.5886,18.2023 9.3386,18.5003 C9.7936,18.6813 10.0416,19.1713 9.9136,19.6453 L9.9136,19.6453 L9.8966,19.7063 C9.7456,20.2673 9.1356,20.5723 8.5966,20.3583 C7.6306,19.9753 6.7506,19.4313 5.9856,18.7573 C5.5496,18.3733 5.5506,17.6893 5.9836,17.3023 L5.9836,17.3023 Z M19.6167,9.8591 C20.1717,9.7081 20.7397,10.0691 20.8327,10.6351 C20.8917,10.9951 20.9277,11.3631 20.9387,11.7361 C20.9867,13.4481 20.5607,15.0471 19.7867,16.4201 C19.4997,16.9301 18.8227,17.0661 18.3557,16.7131 L18.3557,16.7131 L18.3147,16.6811 C17.9217,16.3861 17.8247,15.8501 18.0627,15.4211 C18.7227,14.2301 19.2237,12.5741 18.9277,10.9731 C18.8357,10.4751 19.1287,9.9901 19.6167,9.8591 Z M4.007,11.9832 C4.506,11.9762 4.931,12.3442 4.991,12.8392 C5.07,13.4982 5.241,14.1272 5.489,14.7142 C5.675,15.1542 5.488,15.6622 5.074,15.9012 L5.074,15.9012 L5.015,15.9342 C4.512,16.2242 3.86,16.0112 3.636,15.4762 C3.323,14.7272 3.106,13.9272 3.007,13.0872 C2.938,12.5072 3.392,11.9912 3.977,11.9832 L3.977,11.9832 Z M16.1734,14.0157 C16.4734,14.2157 16.7734,14.5157 16.9734,14.8157 L16.9734,15.7157 L9.4734,15.7157 L9.4734,14.8157 C11.0734,12.8157 14.0734,12.4167 16.1734,14.0157 Z M9.0734,12.2163 C9.7734,12.2163 10.3734,12.5163 10.9734,12.9163 C10.2734,13.1163 9.5734,13.5163 8.9734,14.0163 L6.5734,14.0163 L6.5734,13.4163 C7.1734,12.6163 8.1734,12.2163 9.0734,12.2163 Z M13.173,8.2165 C14.273,8.2165 15.073,9.1165 15.073,10.1165 C15.073,11.2165 14.173,12.0155 13.173,12.0155 C12.173,12.0155 11.273,11.1165 11.273,10.1165 C11.273,9.0155 12.173,8.2165 13.173,8.2165 Z M9.0732,9.1167 C9.7332,9.1167 10.2732,9.6567 10.2732,10.3157 C10.2732,10.9757 9.7332,11.5157 9.0732,11.5157 C8.4132,11.5157 7.8732,10.9757 7.8732,10.3157 C7.8732,9.6567 8.4132,9.1167 9.0732,9.1167 Z M12.0636,3.0014 C15.0496,3.0384 17.7286,4.6054 19.3436,6.9414 C19.6756,7.4214 19.4986,8.0874 18.9796,8.3524 L18.9796,8.3524 L18.9436,8.3704 C18.5186,8.5884 17.9926,8.4684 17.7236,8.0734 C16.5946,6.4184 14.7796,5.2534 12.7116,5.0394 C10.5326,4.8134 8.5546,5.5634 7.1366,6.8974 L7.1366,6.8974 L8.0246,7.7764 C8.3746,8.1234 8.1816,8.7214 7.6956,8.7984 L7.6956,8.7984 L3.8836,9.3964 C3.4836,9.4604 3.1366,9.1154 3.1966,8.7154 L3.1966,8.7154 L3.7626,4.9034 C3.8356,4.4184 4.4296,4.2204 4.7796,4.5654 L4.7796,4.5654 L5.7156,5.4914 C7.3546,3.9234 9.5876,2.9694 12.0636,3.0014 Z" id="Combined-Shape" fill="#273637"></path>
    </g>
</svg>