<?xml version="1.0" encoding="UTF-8"?>
<svg width="24px" height="24px" viewBox="0 0 24 24" version="1.1" xmlns="http://www.w3.org/2000/svg" xmlns:xlink="http://www.w3.org/1999/xlink">
    <title>Icons/Full Set/Restore/Restore to the Another Document Library</title>
    <defs>
        <filter id="filter-1">
            <feColorMatrix in="SourceGraphic" type="matrix" values="0 0 0 0 0.152941 0 0 0 0 0.211765 0 0 0 0 0.215686 0 0 0 1.000000 0"></feColorMatrix>
        </filter>
        <polygon id="path-2" points="0 0.047002011 13.3645999 0.047002011 13.3645999 13.1120052 0 13.1120052"></polygon>
        <polygon id="path-4" points="0.947049273 0.455971712 4.789 0.455971712 4.789 6.19495041 0.947049273 6.19495041"></polygon>
        <polygon id="path-6" points="0.45419596 0.366211493 5.05223047 0.366211493 5.05223047 3 0.45419596 3"></polygon>
    </defs>
    <g id="Icons/Full-Set/Restore/Restore-to-the-Another-Document-Library" stroke="none" stroke-width="1" fill="none" fill-rule="evenodd">
        <g filter="url(#filter-1)" id="Group">
            <g transform="translate(2.000000, 3.000000)">
                <g id="Group-3">
                    <mask id="mask-3" fill="white">
                        <use xlink:href="#path-2"></use>
                    </mask>
                    <g id="Clip-2"></g>
                    <path d="M13.3046,1.4915 L13.3176,1.4525 C13.4956,0.8975 13.1506,0.3025 12.5766,0.1975 C9.7836,-0.3125 6.7816,0.4735 4.6426,2.5585 C2.8686,4.2865 1.9646,6.5405 1.9156,8.8085 L0.5986,8.8155 C0.1066,8.8185 -0.1734,9.3795 0.1186,9.7735 L2.4126,12.8695 C2.6546,13.1945 3.1436,13.1925 3.3816,12.8655 L5.6536,9.7465 C5.9426,9.3475 5.6576,8.7895 5.1636,8.7925 L3.9136,8.7985 C3.9736,6.8515 4.8416,4.9235 6.5426,3.5425 C8.1556,2.2305 10.2626,1.7705 12.2326,2.1435 C12.7006,2.2315 13.1586,1.9445 13.3046,1.4915" id="Fill-1" fill="#273637" mask="url(#mask-3)"></path>
                </g>
                <path d="M6.5985,14.516 C6.2055,14.208 5.6445,14.249 5.2965,14.607 C5.2895,14.614 5.2835,14.621 5.2765,14.628 C4.8685,15.048 4.9115,15.733 5.3705,16.095 C6.0345,16.619 6.7535,17.031 7.5045,17.339 C8.0405,17.559 8.6535,17.248 8.8035,16.688 L8.8225,16.622 C8.9465,16.162 8.7195,15.67 8.2765,15.49 C7.6865,15.251 7.1205,14.927 6.5985,14.516" id="Fill-4" fill="#273637"></path>
                <g id="Group-8" transform="translate(15.000000, 9.000000)">
                    <mask id="mask-5" fill="white">
                        <use xlink:href="#path-4"></use>
                    </mask>
                    <g id="Clip-7"></g>
                    <path d="M3.8261,0.4583 C3.3471,0.4253 2.9151,0.7463 2.8211,1.2173 C2.5891,2.3813 2.0101,3.5523 1.1541,4.5913 C0.8571,4.9513 0.8871,5.4793 1.1961,5.8253 L1.2361,5.8713 C1.6321,6.3123 2.3351,6.3023 2.7101,5.8433 C3.7541,4.5663 4.4731,3.0733 4.7701,1.6043 C4.8861,1.0383 4.4581,0.5003 3.8811,0.4623 L3.8261,0.4583 Z" id="Fill-6" fill="#273637" mask="url(#mask-5)"></path>
                </g>
                <g id="Group-11" transform="translate(10.000000, 15.000000)">
                    <mask id="mask-7" fill="white">
                        <use xlink:href="#path-6"></use>
                    </mask>
                    <g id="Clip-10"></g>
                    <path d="M3.6757,0.4456 C2.9347,0.7646 2.1527,0.9486 1.3627,0.9986 C0.8747,1.0306 0.4877,1.4166 0.4597,1.9046 L0.4557,1.9706 C0.4237,2.5496 0.9067,3.0346 1.4867,2.9986 C2.5037,2.9336 3.5107,2.6956 4.4647,2.2836 C4.9967,2.0536 5.2127,1.4066 4.9227,0.9036 L4.8917,0.8476 C4.6477,0.4236 4.1257,0.2516 3.6757,0.4456" id="Fill-9" fill="#273637" mask="url(#mask-7)"></path>
                </g>
                <path d="M16.2421,1.7562 C15.7751,1.4212 15.1191,1.5692 14.8331,2.0672 C14.5811,2.5052 14.7171,3.0552 15.1341,3.3422 C16.4751,4.2652 17.2921,5.7892 17.6681,7.0992 C17.8031,7.5702 18.2501,7.8812 18.7371,7.8122 L18.7881,7.8062 C19.3671,7.7242 19.7511,7.1502 19.5931,6.5862 C19.1701,5.0692 18.3401,3.6362 17.0951,2.4592 C16.8231,2.2032 16.5381,1.9692 16.2421,1.7562" id="Fill-12" fill="#273637"></path>
                <path d="M8.2948,11.0091 L7.8418,11.0091 C7.7168,11.0091 7.6148,10.9071 7.6148,10.7821 C7.6148,10.6571 7.7168,10.5571 7.8418,10.5571 L8.2948,10.5571 C8.4198,10.5571 8.5218,10.6571 8.5218,10.7821 C8.5218,10.9071 8.4198,11.0091 8.2948,11.0091" id="Fill-14" fill="#273637"></path>
                <path d="M8.2948,11.9134 L7.8418,11.9134 C7.7168,11.9134 7.6148,11.8124 7.6148,11.6874 C7.6148,11.5624 7.7168,11.4614 7.8418,11.4614 L8.2948,11.4614 C8.4198,11.4614 8.5218,11.5624 8.5218,11.6874 C8.5218,11.8124 8.4198,11.9134 8.2948,11.9134" id="Fill-16" fill="#273637"></path>
                <path d="M13.7343,12.3734 L12.3793,7.3134 L13.5053,7.0124 L14.8613,12.0714 L13.7343,12.3734 Z M9.7473,12.4964 L10.9133,12.4964 L10.9133,5.4494 L9.7473,5.4494 L9.7473,12.4964 Z M7.4843,12.4964 L8.6513,12.4964 L8.6513,7.2594 L7.4843,7.2594 L7.4843,12.4964 Z M15.9683,12.3424 L14.3303,6.2244 C14.2753,6.0214 14.0923,5.8894 13.8933,5.8894 C13.8543,5.8894 13.8153,5.8944 13.7763,5.9044 L11.9133,6.4034 L11.9133,4.9014 C11.9133,4.6514 11.7113,4.4494 11.4613,4.4494 L9.1993,4.4494 C8.9493,4.4494 8.7473,4.6514 8.7473,4.9014 L8.7473,6.2594 L6.9373,6.2594 C6.6873,6.2594 6.4843,6.4614 6.4843,6.7114 L6.4843,13.0444 C6.4843,13.2944 6.6873,13.4964 6.9373,13.4964 L9.1993,13.4964 L11.4613,13.4964 C11.7113,13.4964 11.9133,13.2944 11.9133,13.0444 L11.9133,9.4394 L12.9103,13.1614 C12.9643,13.3634 13.1473,13.4964 13.3463,13.4964 C13.3853,13.4964 13.4243,13.4914 13.4643,13.4814 L15.6493,12.8954 C15.8903,12.8314 16.0343,12.5834 15.9683,12.3424 L15.9683,12.3424 Z" id="Fill-18" fill="#273637"></path>
                <path d="M13.6366,10.8519 C13.5366,10.8519 13.4456,10.7859 13.4176,10.6839 C13.3856,10.5639 13.4566,10.4399 13.5776,10.4079 L14.0146,10.2899 C14.1326,10.2559 14.2596,10.3289 14.2916,10.4499 C14.3236,10.5709 14.2526,10.6949 14.1316,10.7269 L13.6956,10.8439 C13.6756,10.8489 13.6566,10.8519 13.6366,10.8519" id="Fill-20" fill="#273637"></path>
                <path d="M13.87,11.7259 C13.77,11.7259 13.679,11.6599 13.651,11.5579 C13.619,11.4379 13.691,11.3139 13.811,11.2819 L14.249,11.1639 C14.368,11.1289 14.493,11.2039 14.526,11.3239 C14.558,11.4449 14.486,11.5689 14.366,11.6009 L13.929,11.7179 C13.909,11.7229 13.89,11.7259 13.87,11.7259" id="Fill-22" fill="#273637"></path>
                <path d="M10.5565,11.0091 L10.1045,11.0091 C9.9795,11.0091 9.8775,10.9071 9.8775,10.7821 C9.8775,10.6571 9.9795,10.5571 10.1045,10.5571 L10.5565,10.5571 C10.6815,10.5571 10.7835,10.6571 10.7835,10.7821 C10.7835,10.9071 10.6815,11.0091 10.5565,11.0091" id="Fill-24" fill="#273637"></path>
                <path d="M10.5565,11.9134 L10.1045,11.9134 C9.9795,11.9134 9.8775,11.8124 9.8775,11.6874 C9.8775,11.5624 9.9795,11.4614 10.1045,11.4614 L10.5565,11.4614 C10.6815,11.4614 10.7835,11.5624 10.7835,11.6874 C10.7835,11.8124 10.6815,11.9134 10.5565,11.9134" id="Fill-26" fill="#273637"></path>
                <path d="M10.6688,6.1458 C10.6688,6.3328 10.5178,6.4848 10.3298,6.4848 C10.1428,6.4848 9.9898,6.3328 9.9898,6.1458 C9.9898,5.9588 10.1428,5.8058 10.3298,5.8058 C10.5178,5.8058 10.6688,5.9588 10.6688,6.1458" id="Fill-28" fill="#273637"></path>
            </g>
        </g>
    </g>
</svg>
