<svg xmlns="http://www.w3.org/2000/svg" xmlns:xlink="http://www.w3.org/1999/xlink" viewBox="0 0 2500 2500"><defs><style>.cls-1{fill:#d9dddc;}.cls-2{fill:#c6cbcb;}.cls-3{fill:#a4a9a8;}.cls-4{fill:url(#Nueva_muestra_de_degradado_73);}.cls-5{fill:url(#Nueva_muestra_de_degradado_73-2);}.cls-6{fill:url(#Degradado_sin_nombre_6);}.cls-7{filter:url(#AI_DesenfoqueGaussiano_4);}.cls-8{fill:url(#linear-gradient);}.cls-9{isolation:isolate;}.cls-10{fill:#e6eae9;}.cls-11{fill:url(#Degradado_sin_nombre_13);}.cls-12{fill:url(#Degradado_sin_nombre_12);}.cls-13{fill:url(#Nueva_muestra_de_degradado_72);}.cls-14{fill:url(#Degradado_sin_nombre_11);}.cls-15{fill:url(#Nueva_muestra_de_degradado_71);}.cls-16{fill:url(#Degradado_sin_nombre_10);}.cls-17{fill:none;}.cls-18{fill:url(#Degradado_sin_nombre_8);}.cls-19{fill:#899191;}.cls-20{fill:url(#Degradado_sin_nombre_2);}.cls-21{fill:url(#linear-gradient-2);}.cls-22{fill:url(#linear-gradient-3);}.cls-23{fill:url(#linear-gradient-4);}.cls-24,.cls-27{opacity:0.49;}.cls-24{fill:url(#linear-gradient-5);}.cls-25{fill:url(#linear-gradient-6);}.cls-26{fill:url(#linear-gradient-7);}.cls-27{fill:url(#linear-gradient-8);}</style><linearGradient id="Nueva_muestra_de_degradado_73" x1="937.1" y1="846.09" x2="1000.71" y2="1421.2" gradientUnits="userSpaceOnUse"><stop offset="0" stop-color="#d9dddc" stop-opacity="0.1"/><stop offset="0.02" stop-color="#c9cdcc" stop-opacity="0.1"/><stop offset="0.15" stop-color="#a4a9a8" stop-opacity="0.1"/><stop offset="0.86" stop-color="#6c7576" stop-opacity="0.6"/></linearGradient><linearGradient id="Nueva_muestra_de_degradado_73-2" x1="864.13" y1="1338.53" x2="1126.51" y2="1349.14" xlink:href="#Nueva_muestra_de_degradado_73"/><radialGradient id="Degradado_sin_nombre_6" cx="-14781.91" cy="-2597.27" r="45.1" gradientTransform="matrix(-4.47, 2.73, 4.39, 2.78, -53333.79, 49158.95)" gradientUnits="userSpaceOnUse"><stop offset="0" stop-color="#0f0b26" stop-opacity="0.3"/><stop offset="1" stop-color="#0f0b26" stop-opacity="0"/></radialGradient><filter id="AI_DesenfoqueGaussiano_4" name="AI_DesenfoqueGaussiano_4"><feGaussianBlur stdDeviation="4"/></filter><linearGradient id="linear-gradient" x1="-7098.47" y1="-6911.68" x2="-6915.92" y2="-6911.68" gradientTransform="matrix(-6.29, 0, 0, 6.78, -43151.92, 48369.96)" gradientUnits="userSpaceOnUse"><stop offset="0" stop-color="#0f0b26" stop-opacity="0.5"/><stop offset="0.34" stop-color="#0f0b26" stop-opacity="0.1"/><stop offset="0.55" stop-color="#0f0b26" stop-opacity="0"/></linearGradient><linearGradient id="Degradado_sin_nombre_13" x1="1624.5" y1="1011.22" x2="1451.61" y2="1359.18" gradientUnits="userSpaceOnUse"><stop offset="0" stop-color="#f5f6f6"/><stop offset="0.05" stop-color="#fbfcfc"/><stop offset="0.14" stop-color="#fff"/><stop offset="0.2" stop-color="#d9dddc"/><stop offset="0.37" stop-color="#e6eae9"/><stop offset="0.57" stop-color="#e6eae9"/><stop offset="0.99" stop-color="#e6eae9"/></linearGradient><linearGradient id="Degradado_sin_nombre_12" x1="1609.65" y1="1093.2" x2="1515.25" y2="1300.45" gradientUnits="userSpaceOnUse"><stop offset="0" stop-color="#011f23" stop-opacity="0.3"/><stop offset="0.21" stop-color="#011f23" stop-opacity="0.1"/><stop offset="0.77" stop-color="#011f23" stop-opacity="0.2"/></linearGradient><linearGradient id="Nueva_muestra_de_degradado_72" x1="1656.85" y1="1061.27" x2="1511.45" y2="1300.68" gradientUnits="userSpaceOnUse"><stop offset="0.12" stop-color="#d9dddc" stop-opacity="0.3"/><stop offset="0.29" stop-color="#e6eae9" stop-opacity="0.7"/><stop offset="0.64" stop-color="#e6eae9" stop-opacity="0.8"/><stop offset="0.99" stop-color="#e6eae9" stop-opacity="0.5"/></linearGradient><radialGradient id="Degradado_sin_nombre_11" cx="1310.76" cy="1175.37" r="257.15" gradientTransform="translate(8.09 539.26) scale(1 0.54)" gradientUnits="userSpaceOnUse"><stop offset="0.9" stop-color="#e6eae9"/><stop offset="0.93" stop-color="#f0f3f2"/><stop offset="0.97" stop-color="#fafbfc"/></radialGradient><linearGradient id="Nueva_muestra_de_degradado_71" x1="1545.45" y1="1429.11" x2="714.28" y2="1431.28" gradientUnits="userSpaceOnUse"><stop offset="0" stop-color="#fff" stop-opacity="0.4"/><stop offset="0.24" stop-color="#fff" stop-opacity="0.4"/><stop offset="0.41" stop-color="#c6cbcb" stop-opacity="0.4"/><stop offset="1" stop-color="#c6cbcb" stop-opacity="0"/></linearGradient><linearGradient id="Degradado_sin_nombre_10" x1="1233.19" y1="1699.1" x2="1295.4" y2="1335.96" gradientUnits="userSpaceOnUse"><stop offset="0.14" stop-color="#c6cbcb" stop-opacity="0.5"/><stop offset="0.5" stop-color="#c6cbcb" stop-opacity="0.26"/><stop offset="0.83" stop-color="#c6cbcb" stop-opacity="0.07"/><stop offset="1" stop-color="#c6cbcb" stop-opacity="0"/></linearGradient><linearGradient id="Degradado_sin_nombre_8" x1="1044.56" y1="1130.43" x2="1710.16" y2="1130.43" gradientUnits="userSpaceOnUse"><stop offset="0.12" stop-color="#d9dddc" stop-opacity="0.3"/><stop offset="0.29" stop-color="#e6eae9" stop-opacity="0.7"/><stop offset="0.64" stop-color="#e6eae9" stop-opacity="0.5"/><stop offset="0.99" stop-color="#e6eae9" stop-opacity="0.3"/></linearGradient><linearGradient id="Degradado_sin_nombre_2" x1="1254.94" y1="1140.08" x2="1501.26" y2="1395.07" gradientUnits="userSpaceOnUse"><stop offset="0" stop-color="#344c4f" stop-opacity="0"/><stop offset="1" stop-color="#344c4f" stop-opacity="0.1"/></linearGradient><linearGradient id="linear-gradient-2" x1="1280.07" y1="1153.4" x2="2175.74" y2="1270.23" gradientUnits="userSpaceOnUse"><stop offset="0.15" stop-color="#525e5f" stop-opacity="0.4"/><stop offset="1" stop-color="#525e5f"/></linearGradient><linearGradient id="linear-gradient-3" x1="1390.61" y1="903.02" x2="1390.61" y2="1221.19" gradientUnits="userSpaceOnUse"><stop offset="0.62" stop-color="#a4a9a8"/><stop offset="0.69" stop-color="#a3a8a7" stop-opacity="0.98"/><stop offset="0.75" stop-color="#9fa5a4" stop-opacity="0.91"/><stop offset="0.8" stop-color="#999f9e" stop-opacity="0.8"/><stop offset="0.86" stop-color="#909797" stop-opacity="0.65"/><stop offset="0.91" stop-color="#858c8d" stop-opacity="0.45"/><stop offset="0.96" stop-color="#788081" stop-opacity="0.21"/><stop offset="1" stop-color="#6c7576" stop-opacity="0"/></linearGradient><linearGradient id="linear-gradient-4" x1="1390.61" y1="1276.27" x2="1390.61" y2="910.24" gradientUnits="userSpaceOnUse"><stop offset="0.07" stop-color="#fff" stop-opacity="0"/><stop offset="0.62" stop-color="#fff" stop-opacity="0.3"/><stop offset="0.73" stop-color="#fff" stop-opacity="0.29"/><stop offset="0.84" stop-color="#fff" stop-opacity="0.24"/><stop offset="0.93" stop-color="#fff" stop-opacity="0.17"/><stop offset="1" stop-color="#fff" stop-opacity="0.1"/></linearGradient><linearGradient id="linear-gradient-5" x1="1380.73" y1="1276.27" x2="1380.73" y2="910.24" gradientUnits="userSpaceOnUse"><stop offset="0.1" stop-color="#fff" stop-opacity="0"/><stop offset="0.61" stop-color="#fff" stop-opacity="0.8"/><stop offset="0.67" stop-color="#fff" stop-opacity="0.79"/><stop offset="0.73" stop-color="#fff" stop-opacity="0.74"/><stop offset="0.79" stop-color="#fff" stop-opacity="0.67"/><stop offset="0.84" stop-color="#fff" stop-opacity="0.56"/><stop offset="0.9" stop-color="#fff" stop-opacity="0.43"/><stop offset="0.95" stop-color="#fff" stop-opacity="0.27"/><stop offset="1" stop-color="#fff" stop-opacity="0.1"/></linearGradient><linearGradient id="linear-gradient-6" x1="1251.77" y1="1209.22" x2="1251.77" y2="832.8" gradientUnits="userSpaceOnUse"><stop offset="0.11" stop-color="#6c7576" stop-opacity="0"/><stop offset="0.37" stop-color="#a4a9a8"/></linearGradient><linearGradient id="linear-gradient-7" x1="1251.77" y1="1209.22" x2="1251.77" y2="843.2" gradientUnits="userSpaceOnUse"><stop offset="0" stop-color="#fff" stop-opacity="0"/><stop offset="0.61" stop-color="#fff" stop-opacity="0.3"/><stop offset="0.72" stop-color="#fff" stop-opacity="0.29"/><stop offset="0.83" stop-color="#fff" stop-opacity="0.24"/><stop offset="0.93" stop-color="#fff" stop-opacity="0.17"/><stop offset="1" stop-color="#fff" stop-opacity="0.1"/></linearGradient><linearGradient id="linear-gradient-8" x1="1246.6" y1="1209.22" x2="1246.6" y2="843.2" gradientUnits="userSpaceOnUse"><stop offset="0" stop-color="#fff" stop-opacity="0"/><stop offset="0.61" stop-color="#fff" stop-opacity="0.8"/><stop offset="0.67" stop-color="#fff" stop-opacity="0.79"/><stop offset="0.73" stop-color="#fff" stop-opacity="0.74"/><stop offset="0.79" stop-color="#fff" stop-opacity="0.67"/><stop offset="0.84" stop-color="#fff" stop-opacity="0.56"/><stop offset="0.9" stop-color="#fff" stop-opacity="0.43"/><stop offset="0.95" stop-color="#fff" stop-opacity="0.27"/><stop offset="1" stop-color="#fff" stop-opacity="0.1"/></linearGradient></defs><g id="Plant"><g id="Plant15-2Color"><path class="cls-1" d="M1066.08,866.38q-68.94-46.68-116.74,53.14-102,213.06,87.95,416.23-21-169.53,38.41-296.12T1066.08,866.38Z"/><path class="cls-2" d="M803.53,952.93q53.7-102.76,135.86-189.76t27.23-118.08Q911.75,614,849.69,709.57,791.82,807.13,803.53,952.93Z"/><path class="cls-1" d="M653.28,815.79q-44.4-27.57-64.7,41.18t61.09,147.64q81.36,78.9,167.56,99.57Q768.8,998,733.21,920.73T653.28,815.79Z"/><path class="cls-3" d="M1239,1491.13l-8.17-4-8.08-4.19-16.17-8.38c-5.36-2.84-10.66-5.79-16-8.68s-10.68-5.75-15.9-8.82l-15.77-9c-2.65-1.48-5.23-3-7.82-4.61l-7.77-4.68c-10.44-6.14-20.57-12.73-30.78-19.19-2.57-1.6-5.06-3.3-7.56-5l-7.52-5c-5-3.37-10-6.69-14.93-10.23l-7.13-5.06c-2.2-7.39-6.48-13.64-10-20.32-2.33-4.11-4.48-8.3-6.7-12.45l-3.31-6.25-3.19-6.31q-12.77-25.22-23.64-51.27c-7.23-17.36-13.81-35-19.5-52.89s-10.55-36-14.53-54.41a506.77,506.77,0,0,1-8.84-55.62,471.18,471.18,0,0,1-2.51-56.37,457,457,0,0,1,4.2-56.46c1.26-9.39,2.89-18.73,4.74-28,.89-4.66,2-9.28,3-13.93s2.27-9.24,3.4-13.86c-1.38,4.55-2.82,9.1-4.16,13.68s-2.6,9.18-3.75,13.8c-2.28,9.26-4.36,18.56-6.07,27.94a458.57,458.57,0,0,0-6.88,56.75,476.36,476.36,0,0,0,.28,57.18,507.46,507.46,0,0,0,7,56.8c6.75,37.59,17.6,74.43,31.34,110.13,6.92,17.84,14.57,35.4,22.82,52.68l3.09,6.49,3.21,6.42c1.08,2.16,2.15,4.32,3.24,6.47-17.49-13.47-34.57-27.44-50.78-42.29a661.44,661.44,0,0,1-95.43-106.29,543.64,543.64,0,0,1-37.07-60.61c-2.7-5.26-5.55-10.45-8-15.85l-3.76-8c-1.25-2.68-2.56-5.33-3.65-8.08l-6.83-16.35-6.16-16.6a507.91,507.91,0,0,1-18.57-68.23,359.91,359.91,0,0,1-5.75-70.23L813,953l.17-4.41.33-4.41.66-8.83,1-8.8.51-4.4c.18-1.46.44-2.92.65-4.38l1.36-8.76c.49-2.92,1.11-5.81,1.65-8.72s1.07-5.83,1.79-8.7a358.33,358.33,0,0,1,22.34-67.66l3.68-8.18c1.32-2.69,2.6-5.4,3.94-8.09,2.7-5.36,5.46-10.69,8.35-16,5.76-10.56,12-20.91,18.42-31.11s13.27-20.21,20.39-30,14.52-19.44,22.16-28.92a579.63,579.63,0,0,0-45.54,57.12q-10.42,15-19.7,30.71c-3.1,5.22-6.08,10.52-9,15.85-1.45,2.67-2.85,5.37-4.27,8.05l-4,8.19A344.5,344.5,0,0,0,813,889.89c-.81,2.92-1.4,5.89-2.06,8.85s-1.34,5.91-1.89,8.88l-1.57,9c-.25,1.49-.54,3-.76,4.47l-.6,4.5-1.21,9-.85,9-.43,4.52-.26,4.52-.5,9.06a353.29,353.29,0,0,0,.61,36.24l.3,4.53.16,2.26.24,2.25.95,9c.27,3,.79,6,1.21,9s.83,6,1.35,9a519.35,519.35,0,0,0,17.34,68,60.17,60.17,0,0,1-8.42-3.62,123.23,123.23,0,0,1-16.15-10.43A314.3,314.3,0,0,1,771,1062.05c-9.38-9.19-18.43-18.73-27.27-28.47s-17.49-19.67-26-29.72-16.93-20.18-25-30.52-15.67-21-22.73-32.05c-14.09-22-26-45.58-33.34-70.67,6.55,25.3,17.72,49.34,31.18,71.92,6.74,11.3,14.07,22.27,21.83,33s15.91,21,24.09,31.4,16.54,20.57,25.13,30.63,17.39,20,26.61,29.58a319.25,319.25,0,0,0,29.4,27.42,132.78,132.78,0,0,0,17,11.74,70.44,70.44,0,0,0,9.85,4.56,37.84,37.84,0,0,0,7,1.79l3,8.44,6.75,16.82c1.07,2.83,2.37,5.56,3.61,8.32l3.73,8.27c2.39,5.56,5.23,10.91,7.92,16.33a554.41,554.41,0,0,0,37.05,62.56,645.33,645.33,0,0,0,44.91,57.49L948,1304.45l12.68,13.2,3.18,3.29,3.27,3.2,6.56,6.39,6.56,6.39,6.74,6.2c17.86,16.68,36.74,32.29,56.07,47.31l14.6,11.15,14.89,10.77c4.92,3.65,10,7.07,15.06,10.54l7.59,5.19c2.53,1.73,5,3.49,7.64,5.13,10.3,6.66,20.52,13.44,31,19.77l7.84,4.83c2.61,1.61,5.22,3.22,7.89,4.75l15.91,9.29c5.28,3.13,10.69,6,16.06,9s10.74,6,16.15,8.88l16.33,8.57,8.16,4.29,8.25,4.12c43.93,22.13,88.93,42.23,134.67,60.53l7.35-16.8C1327.15,1532.36,1282.5,1512.75,1239,1491.13Z"/><path class="cls-4" d="M1239,1491.13l-8.17-4-8.08-4.19-16.17-8.38c-5.36-2.84-10.66-5.79-16-8.68s-10.68-5.75-15.9-8.82l-15.77-9c-2.65-1.48-5.23-3-7.82-4.61l-7.77-4.68c-10.44-6.14-20.57-12.73-30.78-19.19-2.57-1.6-5.06-3.3-7.56-5l-7.52-5c-5-3.37-10-6.69-14.93-10.23l-7.13-5.06c-2.2-7.39-6.48-13.64-10-20.32-2.33-4.11-4.48-8.3-6.7-12.45l-3.31-6.25-3.19-6.31q-9.2-18.17-17.43-36.79-14.24-154.78,41-272.47,59.38-126.53-9.62-173.25T949.34,919.52q-98.24,205.21,74.36,401.25,7.26,17.3,15.36,34.23l3.09,6.49,3.21,6.42c1.08,2.16,2.15,4.32,3.24,6.47-17.49-13.47-34.57-27.44-50.78-42.29a661.44,661.44,0,0,1-95.43-106.29,543.64,543.64,0,0,1-37.07-60.61c-2.7-5.26-5.55-10.45-8-15.85l-3.76-8c-1.25-2.68-2.56-5.33-3.65-8.08l-6.83-16.35-6.16-16.6a507.91,507.91,0,0,1-18.57-68.23,359.91,359.91,0,0,1-5.75-70.23L813,953l.17-4.41.33-4.41.66-8.83.28-2.43a849.56,849.56,0,0,1,125-169.73q82.14-87,27.23-118.08T849.69,709.57Q792,806.77,803.45,951.89l0,.72-.5,9.06a353.29,353.29,0,0,0,.61,36.24l.3,4.53.16,2.26.24,2.25.95,9c.27,3,.79,6,1.21,9s.83,6,1.35,9a519.35,519.35,0,0,0,17.34,68,60.17,60.17,0,0,1-8.42-3.62c-.94-.49-1.87-1-2.8-1.55q-46.29-101.43-80.64-176-35.52-77.31-79.93-104.94T588.58,857q-20.28,68.73,61.09,147.64,74.42,72.17,152.86,95.61c3,2.13,6.15,4.16,9.44,6a70.44,70.44,0,0,0,9.85,4.56,37.84,37.84,0,0,0,7,1.79l3,8.44,6.75,16.82c1.07,2.83,2.37,5.56,3.61,8.32l3.73,8.27c2.39,5.56,5.23,10.91,7.92,16.33a554.41,554.41,0,0,0,37.05,62.56,645.33,645.33,0,0,0,44.91,57.49L948,1304.45l12.68,13.2,3.18,3.29,3.27,3.2,6.56,6.39,6.56,6.39,6.74,6.2c17.86,16.68,36.74,32.29,56.07,47.31l14.6,11.15,14.89,10.77c4.92,3.65,10,7.07,15.06,10.54l7.59,5.19c2.53,1.73,5,3.49,7.64,5.13,10.3,6.66,20.52,13.44,31,19.77l7.84,4.83c2.61,1.61,5.22,3.22,7.89,4.75l15.91,9.29c5.28,3.13,10.69,6,16.06,9s10.74,6,16.15,8.88l16.33,8.57,8.16,4.29,8.25,4.12c43.93,22.13,88.93,42.23,134.67,60.53l7.35-16.8C1327.15,1532.36,1282.5,1512.75,1239,1491.13Z"/><path class="cls-2" d="M876.34,1210.9c-12.12-4.83-28.92-8.14-39.6-10-28-5-60.43.29-78.59,18.73-25.32,25.69-40.83,48.64-40.4,84.32.46,38,17.52,66.66,48.5,95.85,21.48,20.24,52.69,42.76,87.5,56,36.23,13.74,76.4,24.26,120.64,24.76,47.7.54,99.13-5.19,147-23.88,52.37-20.44,97.57-52.94,138.11-91.76-45.92,11.68-112,20.43-154.4,11.85s-72.25-27-93.47-51c-22.44-25.44-34.5-42.35-53.77-60.64s-31.85-29.35-51.58-41.1C895,1217.21,886.58,1215,876.34,1210.9Z"/><path id="Layer1_7_1_STROKES" data-name="Layer1 7 1 STROKES" class="cls-3" d="M779.17,1295.34c6.33,7.36,13.12,14.88,20.08,22s14.53,14.44,22.08,20.88a344.14,344.14,0,0,0,48.85,35.15,269.39,269.39,0,0,0,51.69,23.53c17.63,5.76,33.25,8.74,51.31,11.36a388.06,388.06,0,0,0,108.34.52c18.3-2.45,37.88-7.29,55.94-12.86,4.51-1.39,9.47-3.08,14.09-4.69s9.29-3.3,14.1-4.82c9.61-3,19.29-6.6,29.09-9.22,1.19,2.83,2.37,5.65,3.55,8.49a156.17,156.17,0,0,1-13.66,8c-4.64,2.47-9.39,4.94-14.16,7s-9.51,3.78-14.4,5.39-9.91,3.2-14.78,4.66c-19.48,5.87-38.52,9.36-58.91,12.17-3.82.53-10,1-14.22,1.38s-10.37.68-14.09.78c-9.91.27-19.22.4-28.54-.08a404.9,404.9,0,0,1-54.76-6.15c-18.12-3.41-34.65-7.44-52.19-13.88s-35.55-16-51.39-25.82c35.24,22.77-42-32.39-49.35-39.37-1.08-1-15.89-16-20.31-21.52S783.79,1302,779.17,1295.34Z"/><path class="cls-5" d="M1105.1,1376.69c-42.43-8.59-72.25-27-93.47-51-22.44-25.44-34.5-42.35-53.77-60.64s-31.85-29.35-51.58-41.1c-11.28-6.71-19.7-9-29.94-13-12.12-4.83-28.92-8.14-39.6-10-28-5-60.43.29-78.59,18.73-25.32,25.69-40.83,48.64-40.4,84.32.46,38,17.52,66.66,48.5,95.85,21.48,20.24,52.69,42.76,87.5,56,36.23,13.74,76.4,24.26,120.64,24.76,47.7.54,99.13-5.19,147-23.88,52.37-20.44,97.57-52.94,138.11-91.76C1213.58,1376.52,1147.53,1385.27,1105.1,1376.69Z"/></g></g><g id="CoffeeCup"><g id="Coffe_cup" data-name="Coffe cup"><ellipse class="cls-6" cx="1292.4" cy="1556.16" rx="282.64" ry="175.72" transform="translate(-11.42 9.56) rotate(-0.42)"/><g class="cls-7"><path class="cls-8" d="M367.65,1533.55c-.47,85.73,110.56,155.22,248,155.16l651.13.06a398.42,398.42,0,0,0,44-2.44c4.1-.45,8.15-1,12.14-1.58s8-1.19,11.93-1.93,7.83-1.41,11.72-2.26,7.67-1.64,11.4-2.6c7.09-1.7,14-3.68,20.76-5.77,2.2-.74,4.46-1.42,6.67-2.15,3.52-1.25,7-2.49,10.46-3.8s6.78-2.6,10.09-4c6.62-2.78,13-5.78,19.18-8.94,3.1-1.59,6.09-3.17,9.09-4.87s5.83-3.4,8.67-5.15,5.57-3.57,8.25-5.38,5.31-3.73,7.83-5.66a173.8,173.8,0,0,0,14.4-11.94c2.26-2,4.41-4.13,6.51-6.28s4.1-4.3,6-6.5c.94-1.08,1.89-2.21,2.78-3.29a129.37,129.37,0,0,0,9.36-12.73c1-1.53,1.94-3,2.89-4.58l2-3.57c1.32-2.43,2.53-4.86,3.68-7.3s2.16-4.92,3.1-7.47,1.79-5,2.53-7.58c.36-1.25.73-2.55,1-3.79.63-2.6,1.15-5.21,1.63-7.81a105.36,105.36,0,0,0,1.36-15.84c.42-85.74-110.61-155.23-248-155.23H617.26c-2.16,0-4.31.06-6.42.06q-12.84.25-25.27,1.19c-6.25.51-12.4,1.13-18.5,1.92s-12,1.7-18,2.72c-9.25,1.64-18.29,3.62-27.11,5.88-2.42.63-4.84,1.31-7.2,1.93-7.36,2.09-14.51,4.36-21.5,6.85q-5.19,1.86-10.24,3.9a270.11,270.11,0,0,0-42,21c-16.92,10.53-31.42,22.58-43,35.77-1.95,2.2-3.79,4.47-5.58,6.73s-3.41,4.53-5,6.85a116.52,116.52,0,0,0-10.19,17.94,104.28,104.28,0,0,0-7.57,22.75,93.87,93.87,0,0,0-2,15.73C367.7,1530.89,367.65,1532.19,367.65,1533.55Z"/></g><g id="asa"><g class="cls-9"><path class="cls-3" d="M1523.06,1161.59l-98,169.8-.53-.29,98-169.8Z"/><path class="cls-3" d="M1627.71,1100.57c-7.75-4.42-16.92-5.83-26.9-4.29l-.53-.3-.57-.32-5.77-3.35a32,32,0,0,1,5.74,4.16h0a32,32,0,0,0-5.74-4.16,27.73,27.73,0,0,1-5.43-4,9,9,0,0,1,.91,1.19c.27.4.61,1,.84,1.38a35.85,35.85,0,0,1,2.23,4.58c.26.73.6,1.6.9,2.44a82,82,0,0,0-18.34,8c-19.86,11.46-38.53,31.16-52.52,55.4l.53.29c2.78-4.82,5.56-9.17,8.75-13.69,4.08-5.78,7.47-9.87,9.68-12.44a140,140,0,0,1,21.37-20.33,106.7,106.7,0,0,1,11.22-7.49c1.88-1.08,3.76-2.08,5.59-3,3.14-1.53,5.46-2.42,5.56-2.45,1.23-.47,3.52-1.34,5.25-1.82,1-.28,2.27-.6,3.42-.88.68,2.61,1.49,6.08,1.92,8.72a80.36,80.36,0,0,1,.84,12,106.92,106.92,0,0,1-.81,12.85,128.59,128.59,0,0,1-2.5,13.81,146.86,146.86,0,0,1-4.2,14.44c-1.57,4.5-3.93,10.42-5.92,14.75-1,2.25-2.47,5.22-3.61,7.42s-2.82,5.17-4,7.39l.76.46-.76-.46-98,169.8c-2.78,4.82-5.56,9.17-8.75,13.69-4.28,6.08-7.66,10.06-9.67,12.43a148.08,148.08,0,0,1-10.41,11,131.14,131.14,0,0,1-11,9.35,107,107,0,0,1-11.23,7.49c-1.87,1.09-3.75,2.09-5.58,3-3.14,1.53-5.46,2.41-5.56,2.45-1.14.43-3.52,1.33-5.25,1.81-1,.29-2.29.61-3.44.89-.31-1-.62-2.14-.85-3-.4-1.52-.78-3.73-1-5.31,0-.27-.42-2.68-.65-5.9-.15-2-.23-4.15-.23-6.25a102.27,102.27,0,0,1,.84-13.4,125.16,125.16,0,0,1,2.59-14.08,143.89,143.89,0,0,1,4.28-14.46c1.12-3.19,3-8.17,5.91-14.57,1.13-2.45,2.33-4.88,3.55-7.24s1.26-2.42,3.93-7.18l-.53-.29c-14,24.23-21.67,50.19-21.61,73a81.53,81.53,0,0,0,2.17,19.09c-.63.12-1.34.23-1.91.32a29.72,29.72,0,0,1-8.8.17,19.17,19.17,0,0,1,2.49.91,36.73,36.73,0,0,1,3.55,1.78l.51.3,5.77,3.35.61.37c3.69,9.66,9.63,17,17.56,21.56,14.09,8,32.81,6.13,52.67-5.33s38.53-31.16,52.52-55.4l98-169.8C1657,1171.34,1656.81,1117.16,1627.71,1100.57Z"/><path class="cls-10" d="M1640.4,1078.59c36.14,20.57,36.33,88,.43,150.12l-98,169.8c-17.4,30.14-40.54,54.55-65.23,68.81s-47.9,16.6-65.41,6.63-27.19-31.08-27.28-59.45,9.45-60.55,26.85-90.68l98-169.8c17.4-30.14,40.55-54.56,65.24-68.82S1622.88,1068.61,1640.4,1078.59Zm-12.35,142.84c28.92-50.09,28.76-104.27-.34-120.86-14.09-8-32.81-6.13-52.66,5.33s-38.53,31.16-52.52,55.4l-98,169.8c-14,24.23-21.67,50.19-21.61,73s7.87,39.82,21.95,47.85,32.81,6.13,52.67-5.33,38.53-31.16,52.52-55.4l98-169.8"/><path class="cls-11" d="M1668.32,1127.47c-.32-2.92-.62-6.83-1.18-9.72a132.72,132.72,0,0,0-3.28-13.32,83.29,83.29,0,0,0-4-9.81,75.44,75.44,0,0,0-4.34-7.69,71.66,71.66,0,0,0-4.71-6.5c-.8-.94-1.82-2.24-2.66-3.14s-2-2.17-2.87-3.07-2-2-3-2.86c-1.51-1.37-3.55-3.17-5.13-4.45s-3.93-3-5.65-4.28-4.26-2.86-6.11-4.05c-1-.6-2.25-1.34-3.22-1.92.8.46,1.58.94,2.34,1.42-.76-.48-1.54-1-2.34-1.42l-5.77-3.35-.54-.32c-1.55-.86-3.62-2-5.21-2.8s-4.07-2-5.84-2.75c-2.62-1.18-6.83-2.78-9.17-3.52-1.77-.57-4.14-1.27-5.93-1.75-1.17-.32-2.74-.69-3.92-.92-1.87-.36-4.37-.8-6.26-1-1.66-.22-3.88-.39-5.54-.5a73.47,73.47,0,0,0-8,0c-1.24.1-2.9.18-4.14.34-2.16.28-5,.7-7.18,1.13-3.69.74-7.35,1.83-7.92,2-2.25.73-5.22,1.78-7.44,2.61-1.18.44-2.73,1.11-3.89,1.63s-2.72,1.21-3.86,1.79c-2.3,1.18-5.35,2.8-7.61,4.06-.38.21-4.88,2.85-7.66,4.77-2.25,1.55-5.22,3.67-7.42,5.29-1.13.83-2.59,2-3.68,2.88-5.85,4.71-10.66,9.34-10.7,9.39-2.09,2-4.84,4.79-6.87,6.88-1,1.06-2.36,2.53-3.35,3.63-1.24,1.37-5,5.56-9.67,11.55-1.89,2.42-4.33,5.72-6.1,8.23-.9,1.27-2.08,3-2.94,4.27s-2,3.06-2.86,4.36h0c-1.77,2.63-3.86,6.29-5.48,9-3,5.07-6.86,11.88-9.8,17s-6.86,11.88-9.8,17l-9.81,17c-3.24,4.91-6.86,11.88-9.8,17l-58.82,101.88a223.62,223.62,0,0,0-13.7,28c-.71,1.74-2.86,7-5.16,14.13-.45,1.41-1.05,3.29-1.46,4.71-.79,2.8-1.8,6.54-2.51,9.36,0,.07-1.62,6.57-2.76,14-.21,1.38-.49,3.23-.64,4.62-.3,2.71-.64,6.33-.85,9-.27,3.55-.28,8.85-.27,9.05,0,2.57.18,6,.32,8.57.08,1.28.26,3,.4,4.28s.35,3,.57,4.27c.41,2.32,1,5.4,1.51,7.69.74,3.32,2.2,7.64,2.44,8.31.74,2,1.83,4.71,2.7,6.69.58,1.31,1.47,3,2.12,4.26.48.93,1.17,2.13,1.72,3,.89,1.44,2.13,3.33,3.09,4.73.74,1.08,1.8,2.48,2.62,3.49,1.21,1.48,2.86,3.41,4.15,4.81.78.84,1.84,1.94,2.66,2.73,1.34,1.29,3.16,3,4.56,4.21s3.48,2.89,5,4.08c1.21.94,2.88,2.12,4.13,3,1.63,1.16,3.88,2.57,5.56,3.64.86.54,2,1.21,2.91,1.73h0l5.77,3.35.53.3c1.55.87,3.63,2,5.22,2.81s4.07,2,5.84,2.76c2.82,1.27,7.32,2.93,9.17,3.52s4.14,1.26,5.93,1.75c1.17.31,2.73.68,3.92.91,1.87.36,4.37.81,6.26,1.05,1.65.22,3.87.39,5.54.51a77.38,77.38,0,0,0,8,0c1.25-.09,2.91-.18,4.14-.34,2.16-.28,5-.7,7.18-1.13,3.7-.74,7.36-1.83,7.92-2,2.25-.73,5.23-1.78,7.44-2.61,1.19-.44,2.74-1.11,3.9-1.63s2.72-1.21,3.86-1.8c2.3-1.17,5.34-2.79,7.6-4,.19-.1,4.78-2.78,7.66-4.77,2.26-1.55,5.23-3.67,7.43-5.29,1.13-.83,2.59-2,3.68-2.88,5.85-4.71,10.66-9.34,10.7-9.39,2.09-2,4.83-4.79,6.87-6.88,1-1.06,2.36-2.53,3.35-3.63,1.24-1.37,5-5.56,9.67-11.54,1.89-2.43,4.33-5.72,6.1-8.24.9-1.27,2.07-3,2.94-4.26s2-3.07,2.86-4.37c1.76-2.62,3.86-6.28,5.47-9l-.13-.07-.3-.17.3.17.13.07,9.81-17,9.8-17,9.8-17,9.81-17,9.8-17,9.8-17,9.81-17,9.8-17,9.8-17,9.81-17h0c6.06-10.5,9.82-19,9.85-19.09,1.23-2.86,3-6.62,4.1-9.54s2.55-6.63,3.54-9.51,2.25-6.61,3-9.5,1.79-6.5,2.45-9.32,1.35-6.52,1.93-9.32,1.06-6.54,1.39-9.36c.61-5.09.89-11.94,1-17.06A72.51,72.51,0,0,0,1668.32,1127.47Zm-27.49,101.24h0l-98,169.8h0c-17.4,30.14-40.54,54.55-65.23,68.81s-47.9,16.6-65.41,6.63-27.19-31.08-27.28-59.45,9.45-60.55,26.85-90.68l98-169.8c17.4-30.14,40.55-54.56,65.24-68.82s47.89-16.59,65.41-6.61h0C1676.54,1099.16,1676.73,1166.55,1640.83,1228.71Z"/></g></g><path class="cls-12" d="M1649.64,1148.44c0-.71,0-1.41,0-2.11,0-1.29-.09-2.56-.17-3.82,0-.7-.1-1.39-.17-2.07-.23-2.6-.58-5.11-1-7.55-.11-.6-.24-1.21-.37-1.8a58.94,58.94,0,0,0-3.75-11.68c-.59-1.31-1.22-2.57-1.89-3.79l-.69-1.2c-.35-.58-.71-1.15-1.07-1.71-.74-1.12-1.53-2.21-2.36-3.24-.43-.53-.87-1-1.33-1.55s-1.07-1.17-1.64-1.73a35.8,35.8,0,0,0-7.42-5.62h0c-.46-.26-.93-.51-1.4-.75l-.45-.23-1-.47-.53-.23-.95-.41-.55-.21-1-.36-.55-.19-1-.32-.52-.16-1.08-.29-.47-.12c-.4-.1-.81-.19-1.21-.27l-.37-.08-1.43-.26-.17,0a43.2,43.2,0,0,0-8.72-.46h0c-.59,0-1.19.06-1.79.11h0c-.59,0-1.19.1-1.79.17h0c-.61.07-1.22.16-1.84.25a60.16,60.16,0,0,0-7.42,1.64c-.72.21-1.45.43-2.18.67l-.23.08c-.62.2-1.23.41-1.85.63l-.51.18-1.67.64-.49.19c-.7.28-1.39.57-2.09.87h0c-.72.32-1.44.64-2.16,1l-.52.25-1.61.79-.69.35c-.51.26-1,.52-1.52.8l-.65.34-2.14,1.2h0a117.17,117.17,0,0,0-14.62,10.08l-1.78,1.46a144.29,144.29,0,0,0-13.72,13.15c-.55.59-1.1,1.2-1.64,1.81a168.58,168.58,0,0,0-13,16.63q-1.42,2.06-2.79,4.17c-.6.92-1.19,1.84-1.77,2.78q-1.63,2.63-3.19,5.32l.53.29c2.78-4.82,5.56-9.17,8.75-13.69,4.08-5.78,7.47-9.87,9.68-12.44a140,140,0,0,1,21.37-20.33,106.7,106.7,0,0,1,11.22-7.49c1.88-1.08,3.76-2.08,5.59-3,3.14-1.53,5.46-2.42,5.56-2.45,1.23-.47,3.52-1.34,5.25-1.82,1-.28,2.27-.6,3.42-.88.68,2.61,1.49,6.08,1.92,8.72a80.36,80.36,0,0,1,.84,12,106.92,106.92,0,0,1-.81,12.85,128.59,128.59,0,0,1-2.5,13.81,146.86,146.86,0,0,1-4.2,14.44c-1.57,4.5-3.93,10.42-5.92,14.75-1,2.25-2.47,5.22-3.61,7.42s-2.82,5.17-4,7.39l.76.46-.76-.46-98,169.8c-2.78,4.82-5.56,9.17-8.75,13.69-4.28,6.08-7.66,10.06-9.67,12.43a148.08,148.08,0,0,1-10.41,11,131.14,131.14,0,0,1-11,9.35,107,107,0,0,1-11.23,7.49c-1.87,1.09-3.75,2.09-5.58,3-3.14,1.53-5.46,2.41-5.56,2.45-1.14.43-3.52,1.33-5.25,1.81-1,.29-2.29.61-3.44.89-.31-1-.62-2.14-.85-3-.4-1.52-.78-3.73-1-5.31,0-.27-.42-2.68-.65-5.9-.15-2-.23-4.15-.23-6.25a102.27,102.27,0,0,1,.84-13.4,125.16,125.16,0,0,1,2.59-14.08,143.89,143.89,0,0,1,4.28-14.46c1.12-3.19,3-8.17,5.91-14.57,1.13-2.45,2.33-4.88,3.55-7.24s1.26-2.42,3.93-7.18l-.53-.29c-14,24.23-21.67,50.19-21.61,73,0,.8,0,1.59,0,2.38,0,.23,0,.46,0,.69,0,.57,0,1.13.08,1.69,0,.24,0,.48,0,.73,0,.57.07,1.13.12,1.7,0,.19,0,.39,0,.59.06.71.13,1.41.2,2.11,0,0,0,.07,0,.11.18,1.57.4,3.1.66,4.6a.69.69,0,0,1,0,.13c.13.7.26,1.39.4,2.08a.85.85,0,0,1,0,.17c.15.71.31,1.42.48,2.11h0a58.79,58.79,0,0,0,2.22,7.2h0c.22.59.46,1.17.7,1.74,0,.11.1.22.14.33.19.44.39.88.59,1.31l.24.51.54,1.09c.09.19.19.37.29.56s.35.67.54,1l.31.57.57.94.33.55c.2.31.4.62.61.93l.33.5c.22.33.46.65.69,1l.29.4c.67.9,1.37,1.76,2.1,2.59.1.11.21.22.31.34.26.29.53.58.8.86l.42.42.74.73.47.43c.25.23.49.45.74.66s.33.29.5.43l.76.62.51.4.8.59.51.37.91.6.44.29q.67.44,1.38.84a36.81,36.81,0,0,0,4.09,2c.93.38,1.88.73,2.84,1s2,.58,3,.81a40.77,40.77,0,0,0,7.74,1c.54,0,1.07,0,1.61,0a49.91,49.91,0,0,0,8.32-.71,65.4,65.4,0,0,0,12.29-3.37,87.81,87.81,0,0,0,12.83-6.15c1.86-1.08,3.71-2.22,5.55-3.44q1.83-1.21,3.66-2.52,3.63-2.62,7.18-5.58l1.77-1.51A157.43,157.43,0,0,0,1519.8,1407l.84-1.16c.68-1,1.37-1.95,2-2.93,2.56-3.76,5-7.66,7.34-11.68q49-84.9,98-169.8a172.26,172.26,0,0,0,15.31-34.62c.15-.48.3-1,.44-1.43.34-1.11.65-2.2,1-3.3.12-.42.23-.84.34-1.26.31-1.15.6-2.29.88-3.43a135,135,0,0,0,2.66-14.05l.27-2.19A109.37,109.37,0,0,0,1649.64,1148.44Z"/><path class="cls-13" d="M1649.64,1148.44c0-.71,0-1.41,0-2.11,0-1.29-.09-2.56-.17-3.82,0-.7-.1-1.39-.17-2.07-.23-2.6-.58-5.11-1-7.55-.11-.6-.24-1.21-.37-1.8a58.94,58.94,0,0,0-3.75-11.68c-.59-1.31-1.22-2.57-1.89-3.79l-.69-1.2c-.35-.58-.71-1.15-1.07-1.71-.74-1.12-1.53-2.21-2.36-3.24-.43-.53-.87-1-1.33-1.55s-1.07-1.17-1.64-1.73a35.8,35.8,0,0,0-7.42-5.62h0c-.46-.26-.93-.51-1.4-.75l-.45-.23-1-.47-.53-.23-.95-.41-.55-.21-1-.36-.55-.19-1-.32-.52-.16-1.08-.29-.47-.12c-.4-.1-.81-.19-1.21-.27l-.37-.08-1.43-.26-.17,0a43.2,43.2,0,0,0-8.72-.46h0c-.59,0-1.19.06-1.79.11h0c-.59,0-1.19.1-1.79.17h0c-.61.07-1.22.16-1.84.25a60.16,60.16,0,0,0-7.42,1.64c-.72.21-1.45.43-2.18.67l-.23.08c-.62.2-1.23.41-1.85.63l-.51.18-1.67.64-.49.19c-.7.28-1.39.57-2.09.87h0c-.72.32-1.44.64-2.16,1l-.52.25-1.61.79-.69.35c-.51.26-1,.52-1.52.8l-.65.34-2.14,1.2h0a117.17,117.17,0,0,0-14.62,10.08l-1.78,1.46a144.29,144.29,0,0,0-13.72,13.15c-.55.59-1.1,1.2-1.64,1.81a168.58,168.58,0,0,0-13,16.63q-1.42,2.06-2.79,4.17c-.6.92-1.19,1.84-1.77,2.78q-1.63,2.63-3.19,5.32l.53.29c2.78-4.82,5.56-9.17,8.75-13.69,4.08-5.78,7.47-9.87,9.68-12.44a140,140,0,0,1,21.37-20.33,106.7,106.7,0,0,1,11.22-7.49c1.88-1.08,3.76-2.08,5.59-3,3.14-1.53,5.46-2.42,5.56-2.45,1.23-.47,3.52-1.34,5.25-1.82,1-.28,2.27-.6,3.42-.88.68,2.61,1.49,6.08,1.92,8.72a80.36,80.36,0,0,1,.84,12,106.92,106.92,0,0,1-.81,12.85,128.59,128.59,0,0,1-2.5,13.81,146.86,146.86,0,0,1-4.2,14.44c-1.57,4.5-3.93,10.42-5.92,14.75-1,2.25-2.47,5.22-3.61,7.42s-2.82,5.17-4,7.39l.76.46-.76-.46-98,169.8c-2.78,4.82-5.56,9.17-8.75,13.69-4.28,6.08-7.66,10.06-9.67,12.43a148.08,148.08,0,0,1-10.41,11,131.14,131.14,0,0,1-11,9.35,107,107,0,0,1-11.23,7.49c-1.87,1.09-3.75,2.09-5.58,3-3.14,1.53-5.46,2.41-5.56,2.45-1.14.43-3.52,1.33-5.25,1.81-1,.29-2.29.61-3.44.89-.31-1-.62-2.14-.85-3-.4-1.52-.78-3.73-1-5.31,0-.27-.42-2.68-.65-5.9-.15-2-.23-4.15-.23-6.25a102.27,102.27,0,0,1,.84-13.4,125.16,125.16,0,0,1,2.59-14.08,143.89,143.89,0,0,1,4.28-14.46c1.12-3.19,3-8.17,5.91-14.57,1.13-2.45,2.33-4.88,3.55-7.24s1.26-2.42,3.93-7.18l-.53-.29c-14,24.23-21.67,50.19-21.61,73,0,.8,0,1.59,0,2.38,0,.23,0,.46,0,.69,0,.57,0,1.13.08,1.69,0,.24,0,.48,0,.73,0,.57.07,1.13.12,1.7,0,.19,0,.39,0,.59.06.71.13,1.41.2,2.11,0,0,0,.07,0,.11.18,1.57.4,3.1.66,4.6a.69.69,0,0,1,0,.13c.13.7.26,1.39.4,2.08a.85.85,0,0,1,0,.17c.15.71.31,1.42.48,2.11h0a58.79,58.79,0,0,0,2.22,7.2h0c.22.59.46,1.17.7,1.74,0,.11.1.22.14.33.19.44.39.88.59,1.31l.24.51.54,1.09c.09.19.19.37.29.56s.35.67.54,1l.31.57.57.94.33.55c.2.31.4.62.61.93l.33.5c.22.33.46.65.69,1l.29.4c.67.9,1.37,1.76,2.1,2.59.1.11.21.22.31.34.26.29.53.58.8.86l.42.42.74.73.47.43c.25.23.49.45.74.66s.33.29.5.43l.76.62.51.4.8.59.51.37.91.6.44.29q.67.44,1.38.84a36.81,36.81,0,0,0,4.09,2c.93.38,1.88.73,2.84,1s2,.58,3,.81a40.77,40.77,0,0,0,7.74,1c.54,0,1.07,0,1.61,0a49.91,49.91,0,0,0,8.32-.71,65.4,65.4,0,0,0,12.29-3.37,87.81,87.81,0,0,0,12.83-6.15c1.86-1.08,3.71-2.22,5.55-3.44q1.83-1.21,3.66-2.52,3.63-2.62,7.18-5.58l1.77-1.51A157.43,157.43,0,0,0,1519.8,1407l.84-1.16c.68-1,1.37-1.95,2-2.93,2.56-3.76,5-7.66,7.34-11.68q49-84.9,98-169.8a172.26,172.26,0,0,0,15.31-34.62c.15-.48.3-1,.44-1.43.34-1.11.65-2.2,1-3.3.12-.42.23-.84.34-1.26.31-1.15.6-2.29.88-3.43a135,135,0,0,0,2.66-14.05l.27-2.19A109.37,109.37,0,0,0,1649.64,1148.44Z"/><path class="cls-10" d="M1560.24,1146.2c-37.18-79.11-178.18-126.3-314.92-105.41-115,17.56-190.35,77.66-189.34,143.37,0,0,0,.06,0,.1v.19c0,.16,0,.36,0,.61s0,.66.07,1.09c0,.15,0,.31,0,.48,0,.34,0,.71.08,1.12.09,1.42.22,3.23.37,5.39v0a94,94,0,0,0,8.43,28.68c12.34,26.26,36.11,49,67.37,66.89l0,0c62.92,36,156.17,52.45,247.52,38.5,44.35-6.78,82.8-19.88,113.26-37.19,44.44-25.26,71.84-59.5,75.63-96.11v-.09c.16-2.1.28-3.9.39-5.35a1,1,0,0,1,0-.18A90.52,90.52,0,0,0,1560.24,1146.2Zm-20.58,63c-17.73,45.64-79.48,84.12-166.07,96.87-123.73,18.21-251.3-23-284.95-92.1-1.11-2.29-2.1-4.56-3-6.85-25.79-66.85,46.44-133.58,166.07-151.2,123.72-18.21,251.29,23,285,92.1C1546.77,1168.77,1547.26,1189.65,1539.66,1209.22Z"/><path class="cls-14" d="M1560.24,1146.2c-37.18-79.11-178.18-126.3-314.92-105.41-115,17.56-190.35,77.66-189.34,143.37,0,0,0,.06,0,.1v.19c0,.16,0,.36,0,.61s0,.66.07,1.09c0,.15,0,.31,0,.48,0,.34,0,.71.08,1.12.09,1.42.22,3.23.37,5.39v0a94,94,0,0,0,8.43,28.68c12.34,26.26,36.11,49,67.37,66.89l0,0c62.92,36,156.17,52.45,247.52,38.5,44.35-6.78,82.8-19.88,113.26-37.19,44.44-25.26,71.84-59.5,75.63-96.11v-.09c.16-2.1.28-3.9.39-5.35a1,1,0,0,1,0-.18A90.52,90.52,0,0,0,1560.24,1146.2Zm-20.58,63c-17.73,45.64-79.48,84.12-166.07,96.87-123.73,18.21-251.3-23-284.95-92.1-1.11-2.29-2.1-4.56-3-6.85-25.79-66.85,46.44-133.58,166.07-151.2,123.72-18.21,251.29,23,285,92.1C1546.77,1168.77,1547.26,1189.65,1539.66,1209.22Z"/><path class="cls-10" d="M1568.74,1194c-3.85,53.91-24.23,311.75-66.63,390.79,0,0,0,.08,0,.12-18.25,37.07-68.79,67.71-138,78.29-97.88,14.95-198.6-15.5-235-68.88a0,0,0,0,1,0,0c-46.6-65.37-68.65-346.65-72.52-401.08a93.71,93.71,0,0,0,8.43,28.68c12.34,26.26,36.11,49,67.37,66.89l0,0c62.93,36,156.17,52.45,247.53,38.5,44.35-6.78,82.8-19.88,113.25-37.19C1537.56,1264.8,1565,1230.56,1568.74,1194Z"/><path class="cls-15" d="M1568.74,1194c-3.85,53.91-24.23,311.75-66.63,390.79,0,0,0,.08,0,.12-18.25,37.07-68.79,67.71-138,78.29-97.88,14.95-198.6-15.5-235-68.88a0,0,0,0,1,0,0c-46.6-65.37-68.65-346.65-72.52-401.08a93.71,93.71,0,0,0,8.43,28.68c12.34,26.26,36.11,49,67.37,66.89l0,0c62.93,36,156.17,52.45,247.53,38.5,44.35-6.78,82.8-19.88,113.25-37.19C1537.56,1264.8,1565,1230.56,1568.74,1194Z"/><path class="cls-16" d="M1568.74,1194c-3.85,53.91-24.23,311.75-66.63,390.79,0,0,0,.08,0,.12-18.25,37.07-68.79,67.71-138,78.29-97.88,14.95-198.6-15.5-235-68.88a0,0,0,0,1,0,0c-46.6-65.37-68.65-346.65-72.52-401.08a93.71,93.71,0,0,0,8.43,28.68c12.34,26.26,36.11,49,67.37,66.89l0,0c62.93,36,156.17,52.45,247.53,38.5,44.35-6.78,82.8-19.88,113.25-37.19C1537.56,1264.8,1565,1230.56,1568.74,1194Z"/><path class="cls-17" d="M1055.9,1184.26c.06.86.26,3.93.61,8.88A83,83,0,0,1,1055.9,1184.26Z"/><path class="cls-3" d="M1539.58,1209.22a76.43,76.43,0,0,0-7.88-29c-32.92-67.57-157.7-107.9-278.72-90.09-98.45,14.49-164.08,63-167.4,117-25.79-66.85,46.44-133.58,166.07-151.2,123.72-18.21,251.29,23,284.95,92.1C1546.69,1168.77,1547.18,1189.65,1539.58,1209.22Z"/><path class="cls-18" d="M1539.58,1209.22a76.43,76.43,0,0,0-7.88-29c-32.92-67.57-157.7-107.9-278.72-90.09-98.45,14.49-164.08,63-167.4,117-25.79-66.85,46.44-133.58,166.07-151.2,123.72-18.21,251.29,23,284.95,92.1C1546.69,1168.77,1547.18,1189.65,1539.58,1209.22Z"/><g id="CoffeeGrayscale"><path class="cls-19" d="M1539.58,1209.22c-17.73,45.64-79.48,84.12-166.07,96.87-123.73,18.21-251.3-23-285-92.1-1.11-2.29-2.11-4.56-3-6.85,3.32-54,69-102.47,167.4-117,121-17.81,245.8,22.52,278.72,90.09A76.43,76.43,0,0,1,1539.58,1209.22Z"/><path class="cls-20" d="M1539.58,1209.22c-17.73,45.64-79.48,84.12-166.07,96.87-123.73,18.21-251.3-23-285-92.1-1.11-2.29-2.11-4.56-3-6.85,3.32-54,69-102.47,167.4-117,121-17.81,245.8,22.52,278.72,90.09A76.43,76.43,0,0,1,1539.58,1209.22Z"/><path class="cls-21" d="M1531.7,1180.27c-32.92-67.57-157.7-107.9-278.72-90.09q-11.79,1.74-22.93,4.11c72.89-7.48,151,5.14,207.57,37.81,58.92,34,80.19,81.49,63.72,125,18.4-14.26,31.5-30.57,38.24-47.91A76.43,76.43,0,0,0,1531.7,1180.27Z"/></g><g id="Coffe_smoke" data-name="Coffe smoke"><path id="Color" class="cls-22" d="M1433.83,1144.41c-.1-1.43-.16-2.86-.3-4.3l-.56-4.37c-.11-.73-.18-1.46-.32-2.19l-.44-2.19a77.35,77.35,0,0,0-5.5-17.23,91.86,91.86,0,0,0-8.71-15.4c-6.57-9.43-13.9-16.57-20.17-22.84-3.14-3.08-6-5.94-8.64-8.67a85.65,85.65,0,0,1-6.77-7.75,44.57,44.57,0,0,1-4.88-7.32,45.93,45.93,0,0,1-3.23-7.76l-.35-1c-.12-.34-.17-.72-.27-1.07l-.55-2.17c-.16-.75-.26-1.53-.4-2.29a21.57,21.57,0,0,1-.36-2.34c-.15-1.62-.36-3.25-.42-4.88l-.17-2.47v-3.58c0-.4,0-.77.07-1.15l.15-2.32c.08-.76.21-1.49.3-2.25l.14-1.13c.08-.37.15-.74.22-1.1a40.59,40.59,0,0,1,2.48-8.84c.32-.73.56-1.49.94-2.22s.71-1.5,1.05-2.26c.8-1.52,1.57-3.06,2.55-4.62,1.88-3.13,4.11-6.28,6.58-9.66s5.22-6.79,8-10.46,5.63-7.56,8.31-11.7c5.34-8.25,10-17.86,11.77-27.83.12-.62.26-1.23.36-1.85l.24-1.87c.14-1.24.35-2.46.39-3.71a64.28,64.28,0,0,0,0-7.34,63.48,63.48,0,0,0-2.3-14l-3.12-11.1a1.31,1.31,0,0,0-2.57.26,105.07,105.07,0,0,1-1.47,10.84,96.09,96.09,0,0,1-5.51,24.44,77.38,77.38,0,0,1-5.36,11,86,86,0,0,1-7,10c-5.06,6.44-11,12.38-16.62,18.94a115.07,115.07,0,0,0-8.17,10.41,86.46,86.46,0,0,0-6,10c-.4.67-.79,1.36-1.19,2a63.85,63.85,0,0,0-5.51,12.59l-.54,1.63-.41,1.67c-.27,1.12-.57,2.23-.81,3.35-.36,2.26-.87,4.5-1,6.78l-.34,3.41-.12,3.41c-.14,2.28,0,4.56.06,6.83,0,1.14.15,2.28.25,3.41s.2,2.28.35,3.41c.41,2.26.67,4.54,1.28,6.76a57,57,0,0,0,2.21,7.43l.28,1.1.52,1.67c.36,1.11.68,2.23,1.09,3.33a84.56,84.56,0,0,0,5.81,12.68c4.55,8.09,10.27,15,15.61,21.59s10.48,12.7,14.31,19.35a69.69,69.69,0,0,1,5,10.25,72.7,72.7,0,0,1,3.14,11c.23.93.37,1.89.52,2.84s.31,1.91.44,2.87l.3,2.92c.1,1,.2,1.94.22,2.93.08,2,.22,3.94.18,5.91v3c0,1-.1,2-.15,2.93a72.83,72.83,0,0,1-4.77,22.69,95,95,0,0,1-11.86,20.72c-4.78,6.64-10.13,13.29-14.72,20.65l-.42.47a86.45,86.45,0,0,0-8.07,10.87,64.73,64.73,0,0,0-6,12.16c-.21.53-.43,1.06-.61,1.59l-.5,1.63c-.32,1.09-.72,2.15-1,3.26l-.77,3.3-.19.83-.13.84-.27,1.67a84.41,84.41,0,0,0-1,13.46h2.71l1.05-3.23c.34-1.06.62-2.12,1-3.14s.77-2.05,1.14-3.06a18.54,18.54,0,0,1,.84-2,90.75,90.75,0,0,0,.37,11.44,101,101,0,0,1,4-20c.66-1.09,1.34-2.16,2-3.19a63,63,0,0,1,7.52-9c1.36-1.37,2.81-2.7,4.24-4l2.26-1.92c.74-.64,1.57-1.25,2.34-1.88,3.16-2.51,6.44-5,10-7.54s7.1-5.31,10.82-8.25a111,111,0,0,0,11.14-10.06c1.85-1.85,3.63-3.91,5.41-6,.86-1.1,1.73-2.18,2.57-3.3s1.6-2.33,2.4-3.5a81,81,0,0,0,8-15.47l.8-2,.65-2.09c.42-1.39.87-2.79,1.24-4.2l1-4.21c.15-.71.33-1.42.45-2.12l.33-2.1.65-4.22.38-4.16a80.54,80.54,0,0,0,.3-8.37C1434,1147.28,1433.9,1145.84,1433.83,1144.41Z"/><path class="cls-23" d="M1413,910.24a63.48,63.48,0,0,1,2.3,14,64.28,64.28,0,0,1,0,7.34c0,1.25-.25,2.47-.39,3.71l-.24,1.87c-.1.62-.24,1.23-.36,1.85-1.82,10-6.43,19.58-11.77,27.83-2.68,4.14-5.55,8-8.31,11.7s-5.51,7.09-8,10.46-4.7,6.53-6.58,9.66c-1,1.56-1.75,3.1-2.55,4.62-.34.76-.68,1.52-1.05,2.26s-.62,1.49-.94,2.22a40.59,40.59,0,0,0-2.48,8.84c-.07.36-.14.73-.22,1.1l-.14,1.13c-.09.76-.22,1.49-.3,2.25l-.15,2.32c0,.38-.07.75-.07,1.15v3.58l.17,2.47c.06,1.63.27,3.26.42,4.88a21.57,21.57,0,0,0,.36,2.34c.14.76.24,1.54.4,2.29l.55,2.17c.1.35.15.73.27,1.07l.35,1a45.93,45.93,0,0,0,3.23,7.76,44.57,44.57,0,0,0,4.88,7.32,85.65,85.65,0,0,0,6.77,7.75c2.59,2.73,5.5,5.59,8.64,8.67,6.27,6.27,13.6,13.41,20.17,22.84a91.86,91.86,0,0,1,8.71,15.4,77.35,77.35,0,0,1,5.5,17.23l.44,2.19c.14.73.21,1.46.32,2.19l.56,4.37c.14,1.44.2,2.87.3,4.3s.19,2.87.15,4.26a80.54,80.54,0,0,1-.3,8.37l-.38,4.16-.65,4.22-.33,2.1c-.12.7-.3,1.41-.45,2.12l-1,4.21c-.37,1.41-.82,2.81-1.24,4.2l-.65,2.09-.8,2a81,81,0,0,1-8,15.47c-.8,1.17-1.55,2.4-2.4,3.5s-1.71,2.2-2.57,3.3c-1.78,2.07-3.56,4.13-5.41,6a111,111,0,0,1-11.14,10.06c-3.72,2.94-7.29,5.7-10.82,8.25s-6.8,5-10,7.54c-.77.63-1.6,1.24-2.34,1.88l-2.26,1.92c-1.43,1.32-2.88,2.65-4.24,4a63.46,63.46,0,0,0-13.48,19.77c-.41,1-.94,1.94-1.27,3s-.74,2-1.14,3.06-.71,2.08-1,3.14l-1.05,3.23h-2.71a84.41,84.41,0,0,1,1-13.46l.27-1.67.13-.84.19-.82.77-3.31c.25-1.11.65-2.17,1-3.26l.5-1.63c.18-.53.4-1.06.61-1.59a64.73,64.73,0,0,1,6-12.16,86.45,86.45,0,0,1,8.07-10.87c5.86-6.83,12.39-12.88,18.47-19.19a130.09,130.09,0,0,0,8.65-9.76c1.37-1.67,2.59-3.43,3.84-5.18l1.72-2.71c.6-.89,1.06-1.85,1.6-2.78a59,59,0,0,0,5-11.73l.47-1.52.38-1.55c.24-1,.52-2.06.73-3.1.32-2.11.8-4.19.93-6.33l.31-3.19.1-3.22c.12-2.14,0-4.28-.09-6.43,0-1.07-.15-2.13-.25-3.19s-.2-2.13-.34-3.19l-.55-3.15c-.1-.52-.16-1-.29-1.57l-.38-1.54a59,59,0,0,0-4.22-12,64.58,64.58,0,0,0-6.57-10.92c-5-6.94-11.28-13.06-17.57-19.25s-12.71-12.56-18-20a69.27,69.27,0,0,1-7-11.8,63.3,63.3,0,0,1-4.53-13c-.61-2.22-.87-4.5-1.28-6.76-.15-1.13-.23-2.27-.35-3.41s-.25-2.27-.25-3.41c-.06-2.27-.2-4.55-.06-6.83l.12-3.41.34-3.41c.16-2.28.67-4.52,1-6.78.24-1.12.54-2.23.81-3.35l.41-1.67.54-1.63a63.85,63.85,0,0,1,5.51-12.59c.59-1,1.11-2,1.75-3l1.88-2.85c1.34-1.84,2.67-3.69,4.13-5.42a134.48,134.48,0,0,1,9.07-10c6.29-6.33,12.82-12.25,18.6-18.76a84.08,84.08,0,0,0,8-10.21,61.76,61.76,0,0,0,6-11.39c.2-.5.43-1,.61-1.49l.52-1.53c.32-1,.73-2,1-3.08a60.77,60.77,0,0,0,1.45-6.31,79.79,79.79,0,0,0,1.26-12.94Z"/><path class="cls-24" d="M1405.88,910.24a81.52,81.52,0,0,1-1.4,25.68,74.25,74.25,0,0,1-4.09,12.5,88.2,88.2,0,0,1-6.16,11.66c-4.63,7.45-10,14.16-14.87,20.87a94.23,94.23,0,0,0-11.86,20.73,72.62,72.62,0,0,0-4.78,22.69c0,1-.12,2-.14,2.94v3c0,2,.11,3.94.18,5.91,0,1,.13,2,.23,2.93l.29,2.92c.14,1,.3,1.91.45,2.87s.28,1.91.52,2.84l.61,2.81c.23.93.52,1.84.76,2.76l.38,1.38.46,1.35c.31.89.59,1.8.93,2.68a71.32,71.32,0,0,0,5,10.26c3.85,6.64,8.92,12.85,14.32,19.34s11.06,13.5,15.63,21.58a85.22,85.22,0,0,1,5.81,12.69c.4,1.09.72,2.22,1.09,3.33l.52,1.67.43,1.69c.27,1.13.59,2.25.83,3.39l.62,3.41c.23,1.14.36,2.28.5,3.42s.28,2.28.4,3.42l.22,3.41c.07,1.14.15,2.27.14,3.4,0,2.26.1,4.52-.07,6.78l-.17,3.38c-.09,1.12-.23,2.26-.34,3.38a86.74,86.74,0,0,1-2.46,13.48,78,78,0,0,1-11.62,24.68,115.07,115.07,0,0,1-8.17,10.41c-5.67,6.56-11.56,12.5-16.62,18.94a85.2,85.2,0,0,0-7,10,75.87,75.87,0,0,0-5.37,11,96.36,96.36,0,0,0-5.52,24.43,81.59,81.59,0,0,1,1.39-25.69,73.94,73.94,0,0,1,4.09-12.5,88.2,88.2,0,0,1,6.16-11.66c4.63-7.46,10-14.17,14.87-20.88a95,95,0,0,0,11.86-20.72,73.12,73.12,0,0,0,4.77-22.69c0-1,.12-2,.15-2.93v-3c0-2-.1-3.94-.18-5.91,0-1-.12-2-.22-2.93l-.3-2.92c-.13-1-.3-1.91-.44-2.87s-.29-1.91-.52-2.84a72.7,72.7,0,0,0-3.14-11,69.69,69.69,0,0,0-5-10.25c-3.83-6.65-8.92-12.85-14.31-19.35s-11.06-13.5-15.61-21.59a84.56,84.56,0,0,1-5.81-12.68c-.41-1.1-.73-2.22-1.09-3.33l-.52-1.67-.43-1.69c-.28-1.13-.59-2.26-.82-3.39l-.63-3.42c-.23-1.13-.36-2.27-.49-3.41s-.29-2.28-.41-3.42l-.22-3.41c-.07-1.14-.15-2.28-.14-3.4,0-2.26-.09-4.52.08-6.78l.17-3.38c.08-1.12.22-2.26.33-3.38a86.4,86.4,0,0,1,2.46-13.47,78,78,0,0,1,11.62-24.68,115.07,115.07,0,0,1,8.17-10.41c5.67-6.56,11.56-12.5,16.62-18.94a86,86,0,0,0,7-10,77.38,77.38,0,0,0,5.36-11A96.09,96.09,0,0,0,1405.88,910.24Z"/></g><g id="Coffe_smoke-2" data-name="Coffe smoke"><path class="cls-25" d="M1284,1149.92c-.58-2.22-1.18-4.45-1.81-6.67-1.33-4.4-3-8.71-4.67-12.91-.87-2.08-1.71-4.21-2.69-6.19l-1.43-3-1.45-2.94c-2-3.93-3.86-7.71-5.87-11.35s-3.86-7.14-5.58-10.56c-.43-.86-.86-1.72-1.31-2.55l-1.26-2.5c-.87-1.66-1.62-3.3-2.37-4.94a129.8,129.8,0,0,1-7.19-19.25c-.4-1.63-.79-3.24-1.22-4.85l-1.1-4.88-.86-5-.63-5.07c-.2-1.69-.31-3.44-.49-5.15s-.25-3.47-.33-5.23c-.27-3.48-.23-7.1-.31-10.67.1-3.57,0-7.19.32-10.67.09-1.76.14-3.53.34-5.23s.28-3.46.51-5.15l.63-5.07.86-5,1.09-4.89c.18-.81.45-1.6.64-2.41l.6-2.42a128.7,128.7,0,0,1,7.19-19.25c.76-1.63,1.5-3.27,2.37-4.93l1.25-2.5c.45-.84.91-1.68,1.33-2.54,1.72-3.42,3.63-7,5.57-10.57s3.92-7.41,5.87-11.34l1.46-2.95,1.43-3c1-2,1.82-4.11,2.69-6.19,1.72-4.2,3.33-8.52,4.67-12.91.63-2.23,1.22-4.46,1.8-6.68s1-4.48,1.43-6.74.7-4.53,1-6.78.48-4.51.6-6.76l.16-6.73c0-2.23-.15-4.45-.26-6.65a113.75,113.75,0,0,0-4.63-25.66l-3.9-9.47a1.5,1.5,0,0,0-2.88.63,53.18,53.18,0,0,1-.38,8.85h0c-.89,8-2,15.95-3.44,23.75a170.63,170.63,0,0,1-6,22.83,153.64,153.64,0,0,1-9.23,21.46c-1.83,3.45-3.68,6.88-5.68,10.29s-4,6.8-6.07,10.25c-4.11,6.89-8.27,14-11.92,21.45a144.92,144.92,0,0,0-9.14,23.44c-1,3.36-1.84,6.76-2.58,10.17a129.76,129.76,0,0,0-2.93,14.45,174.36,174.36,0,0,0,0,49.84,131.39,131.39,0,0,0,2.85,14.13c.75,3.53,1.62,7,2.64,10.5a144.39,144.39,0,0,0,9.15,23.44c1.84,3.72,3.75,7.4,5.77,11s4.09,7,6.14,10.5,4.11,6.84,6.07,10.25,3.85,6.84,5.68,10.29a153.52,153.52,0,0,1,9.23,21.45,170.63,170.63,0,0,1,6,22.83c1.48,7.8,2.56,15.74,3.46,23.75A179.62,179.62,0,0,0,1276,1185c-.16-4.26-.51-8.54-1.06-12.8a125.65,125.65,0,0,1,2.67,12.76,184,184,0,0,1,2,24.29h2.71a114.86,114.86,0,0,0,4.6-25.65,111.33,111.33,0,0,0-1.5-26.92C1285,1154.39,1284.47,1152.18,1284,1149.92Z"/><path class="cls-26" d="M1282.32,843.2a113.75,113.75,0,0,1,4.63,25.66c.11,2.2.24,4.42.26,6.65l-.16,6.73c-.12,2.25-.39,4.49-.6,6.76s-.64,4.51-1,6.78-.94,4.48-1.43,6.74-1.17,4.45-1.8,6.68c-1.34,4.39-3,8.71-4.67,12.91-.87,2.08-1.71,4.21-2.69,6.19l-1.43,3-1.46,2.95c-2,3.93-3.86,7.7-5.87,11.34s-3.85,7.15-5.57,10.57c-.42.86-.88,1.7-1.33,2.54l-1.25,2.5c-.87,1.66-1.61,3.3-2.37,4.93a128.7,128.7,0,0,0-7.19,19.25l-.6,2.42c-.19.82-.46,1.6-.64,2.41l-1.09,4.89-.86,5-.63,5.07c-.23,1.69-.33,3.44-.51,5.15s-.25,3.47-.34,5.23c-.29,3.48-.22,7.1-.32,10.67.08,3.57,0,7.19.31,10.67.08,1.76.13,3.53.33,5.23s.29,3.46.49,5.15l.63,5.07.86,5,1.1,4.88c.43,1.61.82,3.22,1.22,4.85a129.8,129.8,0,0,0,7.19,19.25c.75,1.64,1.5,3.28,2.37,4.94l1.26,2.5c.45.83.88,1.69,1.31,2.55,1.72,3.42,3.64,7,5.58,10.56s3.9,7.42,5.87,11.35l1.45,2.94,1.43,3c1,2,1.82,4.11,2.69,6.19,1.72,4.2,3.34,8.51,4.67,12.91.63,2.22,1.23,4.45,1.81,6.67s1,4.47,1.43,6.73a111.33,111.33,0,0,1,1.5,26.92,114.86,114.86,0,0,1-4.6,25.65h-2.71a184,184,0,0,0-2-24.29,124.93,124.93,0,0,0-6-23.47,130.5,130.5,0,0,0-10.28-21.91c-4.06-7-8.65-13.74-13.3-20.49s-9.32-13.6-13.45-20.84a133.9,133.9,0,0,1-10.51-22.73,130.42,130.42,0,0,1-5.94-24.36,174.36,174.36,0,0,1,0-49.84,129.64,129.64,0,0,1,5.94-24.36,133.9,133.9,0,0,1,10.51-22.73c4.13-7.24,8.79-14.09,13.45-20.84s9.24-13.49,13.3-20.5A130.4,130.4,0,0,0,1271.6,891a125.88,125.88,0,0,0,6-23.47,182.51,182.51,0,0,0,2-24.29Z"/><path class="cls-27" d="M1275.16,843.2a179.53,179.53,0,0,1,.82,24.24,143,143,0,0,1-3,24.36,140,140,0,0,1-7.31,23.65c-3.09,7.66-6.73,15-10.33,22.17s-7.13,14.18-10.17,21.27a148.49,148.49,0,0,0-7.4,21.67c-3.83,14.72-5.13,30.13-5.17,45.65s1.35,30.92,5.19,45.64a147.31,147.31,0,0,0,7.4,21.67c1.52,3.55,3.14,7.07,4.87,10.6s3.5,7.09,5.3,10.66c3.61,7.17,7.24,14.52,10.33,22.18a141,141,0,0,1,7.31,23.66,143.79,143.79,0,0,1,3,24.35,179.62,179.62,0,0,1-.83,24.25c-.9-8-2-16-3.46-23.75a170.63,170.63,0,0,0-6-22.83,153.52,153.52,0,0,0-9.23-21.45c-1.83-3.45-3.68-6.88-5.68-10.29s-4-6.81-6.07-10.25-4.12-6.93-6.14-10.5-3.93-7.23-5.77-11a144.39,144.39,0,0,1-9.15-23.44,160,160,0,0,1-5-24.67,233.8,233.8,0,0,1-1.45-24.88,228.55,228.55,0,0,1,1.47-24.88,156.14,156.14,0,0,1,5.05-24.66,144.92,144.92,0,0,1,9.14-23.44c3.65-7.49,7.81-14.56,11.92-21.45,2-3.45,4.12-6.84,6.07-10.25s3.85-6.84,5.68-10.29a153.64,153.64,0,0,0,9.23-21.46,169.11,169.11,0,0,0,6-22.83C1273.19,859.15,1274.27,851.21,1275.16,843.2Z"/></g></g></g></svg>