<?xml version="1.0" encoding="UTF-8"?><svg xmlns="http://www.w3.org/2000/svg" xmlns:xlink="http://www.w3.org/1999/xlink" viewBox="0 0 2500 2500"><defs><style>.cls-1{fill:url(#Degradado_sin_nombre_12);}.cls-1,.cls-2,.cls-3,.cls-4,.cls-5,.cls-6,.cls-7,.cls-8,.cls-9,.cls-10,.cls-11,.cls-12,.cls-13,.cls-14,.cls-15,.cls-16,.cls-17,.cls-18,.cls-19,.cls-20,.cls-21,.cls-22,.cls-23,.cls-24{stroke-width:0px;}.cls-2{fill:url(#linear-gradient-12);}.cls-3{fill:url(#linear-gradient);}.cls-4{fill:url(#linear-gradient-6);}.cls-5{fill:#d5f8f5;}.cls-25{isolation:isolate;}.cls-6{fill:url(#linear-gradient-13);}.cls-6,.cls-17{opacity:.49;}.cls-7{fill:url(#linear-gradient-11);}.cls-8{fill:url(#linear-gradient-5);}.cls-9{fill:#0088a1;}.cls-10{fill:none;}.cls-11{fill:url(#Degradado_sin_nombre_4);}.cls-12{fill:url(#linear-gradient-2);}.cls-13{fill:url(#Degradado_sin_nombre_9);}.cls-14{fill:url(#Degradado_sin_nombre_11);}.cls-15{fill:url(#linear-gradient-7);}.cls-16{fill:url(#linear-gradient-3);}.cls-17{fill:url(#linear-gradient-10);}.cls-18{fill:url(#linear-gradient-9);}.cls-19{fill:#4dd2d2;}.cls-20{fill:url(#linear-gradient-8);}.cls-21{fill:#95eee5;}.cls-22{fill:url(#Degradado_sin_nombre_2);}.cls-23{fill:url(#Degradado_sin_nombre_10);}.cls-24{fill:url(#linear-gradient-4);}</style><linearGradient id="linear-gradient" x1="869.58" y1="544.43" x2="997.45" y2="1700.58" gradientUnits="userSpaceOnUse"><stop offset="0" stop-color="#95eee5" stop-opacity=".1"/><stop offset=".04" stop-color="#71e0db" stop-opacity=".1"/><stop offset=".15" stop-color="#4dd2d2" stop-opacity=".1"/><stop offset=".86" stop-color="#0088a1" stop-opacity=".6"/></linearGradient><linearGradient id="linear-gradient-2" x1="722.9" y1="1534.39" x2="1250.36" y2="1555.7" xlink:href="#linear-gradient"/><radialGradient id="Degradado_sin_nombre_12" cx="-14740.35" cy="-2489.47" fx="-14740.35" fy="-2489.47" r="103.61" gradientTransform="translate(-53593.46 49383.16) rotate(148.55) scale(5.26 -4.68) skewX(-23.71)" gradientUnits="userSpaceOnUse"><stop offset="0" stop-color="#00637f" stop-opacity=".3"/><stop offset="1" stop-color="#00637f" stop-opacity="0"/></radialGradient><linearGradient id="linear-gradient-3" x1="-273.81" y1="1923.2" x2="2003.48" y2="1923.2" gradientUnits="userSpaceOnUse"><stop offset=".48" stop-color="#00637f" stop-opacity="0"/><stop offset=".57" stop-color="#00637f" stop-opacity=".05"/><stop offset="1" stop-color="#00637f" stop-opacity=".4"/></linearGradient><linearGradient id="Degradado_sin_nombre_11" x1="2250.99" y1="874.98" x2="1903.29" y2="1574.73" gradientUnits="userSpaceOnUse"><stop offset="0" stop-color="#d5f8f5"/><stop offset=".02" stop-color="#dbf9f6"/><stop offset=".08" stop-color="#e6fbf9"/><stop offset=".14" stop-color="#eafcfa"/><stop offset=".2" stop-color="#d5f8f5"/><stop offset=".37" stop-color="#d5f8f5"/><stop offset=".57" stop-color="#d5f8f5"/><stop offset=".99" stop-color="#d5f8f5"/></linearGradient><linearGradient id="Degradado_sin_nombre_10" x1="2220.99" y1="1040.33" x2="2031.27" y2="1456.84" gradientUnits="userSpaceOnUse"><stop offset="0" stop-color="#00637f" stop-opacity=".3"/><stop offset=".21" stop-color="#00637f" stop-opacity=".1"/><stop offset=".53" stop-color="#00637f" stop-opacity=".14"/><stop offset=".77" stop-color="#00637f" stop-opacity=".2"/></linearGradient><linearGradient id="linear-gradient-4" x1="2315.21" y1="976.43" x2="2023.34" y2="1457.01" gradientUnits="userSpaceOnUse"><stop offset=".12" stop-color="#d5f8f5" stop-opacity=".3"/><stop offset=".29" stop-color="#d5f8f5" stop-opacity=".7"/><stop offset=".64" stop-color="#d5f8f5" stop-opacity=".8"/><stop offset=".99" stop-color="#d5f8f5" stop-opacity=".5"/></linearGradient><radialGradient id="Degradado_sin_nombre_9" cx="1623.68" cy="1208.34" fx="1623.68" fy="1208.34" r="516.8" gradientTransform="translate(8.09 554.15) scale(1 .54)" gradientUnits="userSpaceOnUse"><stop offset=".9" stop-color="#d5f8f5"/><stop offset=".93" stop-color="#d5f8f5"/><stop offset=".97" stop-color="#eafcfa"/></radialGradient><linearGradient id="linear-gradient-5" x1="2091.97" y1="1715.42" x2="421.56" y2="1719.78" gradientUnits="userSpaceOnUse"><stop offset="0" stop-color="#eafcfa" stop-opacity=".4"/><stop offset=".24" stop-color="#eafcfa" stop-opacity=".4"/><stop offset=".41" stop-color="#95eee5" stop-opacity=".4"/><stop offset="1" stop-color="#95eee5" stop-opacity="0"/></linearGradient><linearGradient id="Degradado_sin_nombre_4" x1="1464.41" y1="2258" x2="1589.43" y2="1528.2" gradientUnits="userSpaceOnUse"><stop offset=".14" stop-color="#95eee5" stop-opacity=".5"/><stop offset=".17" stop-color="#95eee5" stop-opacity=".48"/><stop offset=".56" stop-color="#95eee5" stop-opacity=".22"/><stop offset=".85" stop-color="#95eee5" stop-opacity=".06"/><stop offset="1" stop-color="#95eee5" stop-opacity="0"/></linearGradient><linearGradient id="Degradado_sin_nombre_2" x1="1085.33" y1="1115.16" x2="2422.98" y2="1115.16" gradientUnits="userSpaceOnUse"><stop offset=".12" stop-color="#d5f8f5" stop-opacity=".3"/><stop offset=".29" stop-color="#d5f8f5" stop-opacity=".7"/><stop offset=".64" stop-color="#d5f8f5" stop-opacity=".5"/><stop offset=".99" stop-color="#d5f8f5" stop-opacity=".3"/></linearGradient><linearGradient id="linear-gradient-6" x1="1508.14" y1="1134.55" x2="2003.15" y2="1647.01" gradientUnits="userSpaceOnUse"><stop offset="0" stop-color="#004a5f" stop-opacity="0"/><stop offset="1" stop-color="#004a5f" stop-opacity=".1"/></linearGradient><linearGradient id="linear-gradient-7" x1="1558.64" y1="1161.32" x2="3358.65" y2="1396.11" gradientUnits="userSpaceOnUse"><stop offset=".16" stop-color="#004a5f" stop-opacity=".4"/><stop offset="1" stop-color="#004a5f"/></linearGradient><linearGradient id="linear-gradient-8" x1="1780.69" y1="658.14" x2="1780.69" y2="1297.56" gradientUnits="userSpaceOnUse"><stop offset=".62" stop-color="#4dd2d2"/><stop offset=".68" stop-color="#4bd1d1" stop-opacity=".98"/><stop offset=".73" stop-color="#48cfd0" stop-opacity=".93"/><stop offset=".78" stop-color="#43cbce" stop-opacity=".84"/><stop offset=".83" stop-color="#3cc7cb" stop-opacity=".72"/><stop offset=".88" stop-color="#32c0c7" stop-opacity=".56"/><stop offset=".93" stop-color="#27b9c3" stop-opacity=".36"/><stop offset=".98" stop-color="#19b0be" stop-opacity=".14"/><stop offset="1" stop-color="#12abbb" stop-opacity="0"/></linearGradient><linearGradient id="linear-gradient-9" x1="1780.62" y1="1408.25" x2="1780.62" y2="672.65" gradientUnits="userSpaceOnUse"><stop offset=".07" stop-color="#eafcfa" stop-opacity="0"/><stop offset=".62" stop-color="#eafcfa" stop-opacity=".3"/><stop offset=".73" stop-color="#eafcfa" stop-opacity=".29"/><stop offset=".84" stop-color="#eafcfa" stop-opacity=".24"/><stop offset=".93" stop-color="#eafcfa" stop-opacity=".17"/><stop offset="1" stop-color="#eafcfa" stop-opacity=".1"/></linearGradient><linearGradient id="linear-gradient-10" x1="1760.89" y1="1408.25" x2="1760.89" y2="672.65" gradientUnits="userSpaceOnUse"><stop offset=".1" stop-color="#eafcfa" stop-opacity="0"/><stop offset=".61" stop-color="#eafcfa" stop-opacity=".8"/><stop offset=".67" stop-color="#eafcfa" stop-opacity=".79"/><stop offset=".73" stop-color="#eafcfa" stop-opacity=".74"/><stop offset=".79" stop-color="#eafcfa" stop-opacity=".67"/><stop offset=".84" stop-color="#eafcfa" stop-opacity=".56"/><stop offset=".9" stop-color="#eafcfa" stop-opacity=".43"/><stop offset=".95" stop-color="#eafcfa" stop-opacity=".26"/><stop offset="1" stop-color="#eafcfa" stop-opacity=".1"/></linearGradient><linearGradient id="linear-gradient-11" x1="1501.86" y1="1273.5" x2="1501.86" y2="516.91" gradientUnits="userSpaceOnUse"><stop offset=".11" stop-color="#12abbb" stop-opacity="0"/><stop offset=".14" stop-color="#19afbd" stop-opacity=".12"/><stop offset=".37" stop-color="#4dd2d2"/></linearGradient><linearGradient id="linear-gradient-12" x1="1501.65" y1="1273.5" x2="1501.65" y2="537.91" gradientUnits="userSpaceOnUse"><stop offset="0" stop-color="#eafcfa" stop-opacity="0"/><stop offset=".61" stop-color="#eafcfa" stop-opacity=".3"/><stop offset=".72" stop-color="#eafcfa" stop-opacity=".29"/><stop offset=".83" stop-color="#eafcfa" stop-opacity=".24"/><stop offset=".93" stop-color="#eafcfa" stop-opacity=".17"/><stop offset="1" stop-color="#eafcfa" stop-opacity=".1"/></linearGradient><linearGradient id="linear-gradient-13" x1="1491.58" y1="1273.5" x2="1491.58" y2="537.91" gradientUnits="userSpaceOnUse"><stop offset="0" stop-color="#eafcfa" stop-opacity="0"/><stop offset=".61" stop-color="#eafcfa" stop-opacity=".8"/><stop offset=".67" stop-color="#eafcfa" stop-opacity=".79"/><stop offset=".73" stop-color="#eafcfa" stop-opacity=".74"/><stop offset=".79" stop-color="#eafcfa" stop-opacity=".67"/><stop offset=".84" stop-color="#eafcfa" stop-opacity=".56"/><stop offset=".9" stop-color="#eafcfa" stop-opacity=".43"/><stop offset=".95" stop-color="#eafcfa" stop-opacity=".26"/><stop offset="1" stop-color="#eafcfa" stop-opacity=".1"/></linearGradient></defs><g id="Plant"><g id="Plant15-2Color"><path class="cls-21" d="m1128.86,585.23c-92.4-62.56-170.62-26.94-234.67,106.84-136.69,285.53-77.76,564.44,176.8,836.74-28.1-227.21-2.35-425.64,77.22-595.28,79.59-169.57,73.14-285.67-19.34-348.29Z"/><path class="cls-21" d="m601.06,759.23c71.97-137.74,163.01-264.91,273.11-381.48,110.1-116.55,128.35-195.68,54.75-237.37-73.53-41.73-151.88,1.48-235.06,129.63-77.55,130.74-108.48,293.81-92.79,489.22Z"/><path class="cls-21" d="m299.03,483.53c-59.51-36.95-102.87-9.36-130.07,82.78-27.18,92.12,13.76,191.06,122.81,296.79,109.04,105.76,221.31,172.48,336.83,200.18-64.9-142.26-121.2-265.19-168.91-368.79-47.6-103.62-101.16-173.94-160.67-210.96Z"/><path class="cls-19" d="m1476.43,1841.15l-16.43-8.1-16.25-8.42-32.5-16.84c-10.78-5.71-21.42-11.64-32.14-17.44-10.69-5.86-21.47-11.57-31.96-17.73l-31.71-18.13c-5.32-2.97-10.52-6.13-15.72-9.27l-15.63-9.41c-20.98-12.34-41.34-25.58-61.87-38.58-5.17-3.2-10.17-6.63-15.21-10l-15.11-10.14c-10.07-6.76-20.21-13.44-30.01-20.55l-14.34-10.17c-4.42-14.87-13.02-27.43-20.1-40.87-4.68-8.25-9.01-16.67-13.48-25.03l-6.64-12.57-6.41-12.67c-17.11-33.79-33.03-68.15-47.53-103.07-14.54-34.9-27.76-70.33-39.2-106.32-11.46-35.98-21.22-72.48-29.21-109.38-7.98-36.9-13.93-74.24-17.78-111.82-3.91-37.58-5.65-75.43-5.04-113.31.48-37.88,3.26-75.81,8.44-113.51,2.54-18.86,5.82-37.64,9.53-56.35,1.79-9.37,3.99-18.67,5.96-28.02,2.18-9.3,4.56-18.57,6.83-27.86-2.78,9.16-5.68,18.31-8.38,27.51-2.49,9.24-5.21,18.45-7.53,27.75-4.59,18.6-8.77,37.32-12.21,56.17-6.97,37.68-11.6,75.8-13.83,114.07-2.12,38.27-1.89,76.68.56,114.95,2.52,38.27,7.31,76.4,14.11,114.18,13.58,75.58,35.38,149.63,63.02,221.39,13.91,35.86,29.27,71.17,45.86,105.92l6.22,13.03,6.44,12.92c2.19,4.33,4.34,8.67,6.52,13.01-35.16-27.08-69.49-55.17-102.08-85.03-71.51-64.55-136.37-135.91-191.85-213.66-27.5-39.02-52.42-79.73-74.51-121.85-5.42-10.58-11.17-21.01-16.01-31.86l-7.56-16.14c-2.5-5.39-5.14-10.72-7.33-16.24l-13.74-32.87-12.38-33.38c-15.7-44.75-28.05-90.81-37.34-137.15-8.52-46.48-12.26-93.84-11.56-141.19l.63-17.76.33-8.88.67-8.87,1.33-17.74,2.02-17.69,1.01-8.85c.36-2.95.88-5.87,1.32-8.81l2.73-17.62c.99-5.86,2.23-11.68,3.31-17.53,1.14-5.84,2.15-11.71,3.6-17.48,10.47-46.46,25.28-92.16,44.91-136.02l7.4-16.44c2.64-5.41,5.22-10.86,7.92-16.26,5.41-10.78,10.96-21.51,16.78-32.1,11.57-21.23,24.03-42.03,37.03-62.52,12.98-20.52,26.66-40.64,40.97-60.37,14.34-19.7,29.2-39.09,44.55-58.14-32.96,36.3-63.46,74.73-91.54,114.82-13.98,20.08-27.13,40.71-39.6,61.73-6.25,10.5-12.23,21.15-18.08,31.88-2.92,5.36-5.72,10.79-8.59,16.18l-8.1,16.45c-21.68,43.88-37.86,90.19-49.81,137.41-1.64,5.88-2.82,11.84-4.15,17.79-1.27,5.95-2.69,11.88-3.81,17.86l-3.15,17.98c-.5,3-1.09,5.99-1.53,9l-1.22,9.04-2.42,18.09-1.72,18.15-.86,9.08-.52,9.1-1,18.21c-.65,24.29-.63,48.63,1.23,72.86l.6,9.09.31,4.55.48,4.53,1.92,18.13c.53,6.06,1.59,12.05,2.42,18.06.92,6.01,1.68,12.03,2.73,18.03,8.6,46.39,20.09,91.96,34.85,136.72-5.68-1.86-11.34-4.42-16.92-7.27-11.21-5.93-22.03-13.17-32.47-20.98-20.88-15.71-40.36-33.57-59.28-51.95-18.86-18.47-37.06-37.65-54.83-57.23-17.79-19.57-35.15-39.53-52.23-59.74-17.02-20.24-34.03-40.57-50.22-61.35-16.16-20.83-31.5-42.28-45.7-64.44-28.32-44.28-52.21-91.63-67.01-142.07,13.17,50.87,35.61,99.19,62.67,144.59,13.57,22.71,28.3,44.77,43.89,66.24,15.66,21.46,31.99,42.29,48.42,63.12,16.47,20.79,33.25,41.36,50.52,61.59,17.24,20.25,34.97,40.14,53.49,59.45,18.6,19.23,37.83,38.03,59.12,55.12,10.68,8.51,21.89,16.58,34.22,23.6,6.24,3.43,12.73,6.63,19.79,9.17,4.4,1.49,9.07,2.92,14.02,3.6l6.02,16.97,13.57,33.82c2.17,5.68,4.78,11.17,7.26,16.72l7.5,16.62c4.8,11.18,10.52,21.93,15.92,32.83,22,43.42,46.91,85.45,74.48,125.76,27.79,40.17,58.06,78.68,90.3,115.57l24.54,27.36,25.49,26.53,6.39,6.62,6.59,6.42,13.18,12.85,13.18,12.85,13.56,12.46c35.9,33.53,73.85,64.9,112.7,95.11l29.35,22.41,29.93,21.66c9.9,7.33,20.13,14.21,30.29,21.17l15.25,10.44c5.09,3.48,10.14,7,15.35,10.31,20.7,13.39,41.26,27.03,62.41,39.75l15.76,9.7c5.25,3.24,10.49,6.49,15.85,9.56l31.98,18.67c10.61,6.31,21.5,12.15,32.29,18.15,10.83,5.94,21.58,12.01,32.47,17.85l32.82,17.24,16.41,8.62,16.58,8.29c88.31,44.48,178.76,84.88,270.72,121.68l14.79-33.79c-91.1-36.4-180.84-75.82-268.35-119.28Z"/><path class="cls-3" d="m1476.43,1841.15l-16.43-8.1-16.25-8.42-32.5-16.84c-10.78-5.71-21.42-11.64-32.14-17.44-10.69-5.86-21.47-11.57-31.96-17.73l-31.71-18.13c-5.32-2.97-10.52-6.13-15.72-9.27l-15.63-9.41c-20.98-12.34-41.34-25.58-61.87-38.58-5.17-3.2-10.17-6.63-15.21-10l-15.11-10.14c-10.07-6.76-20.21-13.44-30.01-20.55l-14.34-10.17c-4.42-14.87-13.02-27.43-20.1-40.87-4.68-8.25-9.01-16.67-13.48-25.03l-6.64-12.57-6.41-12.67c-12.33-24.36-24.04-49.01-35.05-73.96-19.07-207.44,8.35-390.03,82.33-547.73,79.59-169.57,73.14-285.67-19.34-348.29-92.4-62.56-170.62-26.94-234.67,106.84-131.65,275.01-81.8,543.88,149.48,806.61,9.73,23.18,20.03,46.12,30.87,68.83l6.22,13.03,6.44,12.92c2.19,4.33,4.34,8.67,6.52,13.01-35.16-27.08-69.49-55.17-102.08-85.03-71.51-64.55-136.37-135.91-191.85-213.66-27.5-39.02-52.42-79.73-74.51-121.85-5.42-10.58-11.17-21.01-16.01-31.86l-7.56-16.14c-2.5-5.39-5.14-10.72-7.33-16.24l-13.74-32.87-12.38-33.38c-15.7-44.75-28.05-90.81-37.34-137.15-8.52-46.48-12.26-93.84-11.56-141.19l.63-17.76.33-8.88.67-8.87,1.33-17.74.56-4.89c68.28-122.33,152-236.09,251.28-341.21,110.1-116.55,128.35-195.68,54.75-237.37-73.53-41.73-151.88,1.48-235.06,129.63-77.27,130.26-108.24,292.64-92.95,487.12l-.08,1.45-1,18.21c-.65,24.29-.63,48.63,1.23,72.86l.6,9.09.31,4.55.48,4.53,1.92,18.13c.53,6.06,1.59,12.05,2.42,18.06.92,6.01,1.68,12.03,2.73,18.03,8.6,46.39,20.09,91.96,34.85,136.72-5.68-1.86-11.34-4.42-16.92-7.27-1.89-1-3.77-2.05-5.64-3.12-62.03-135.94-116.08-253.94-162.11-353.89-47.6-103.62-101.16-173.94-160.67-210.96-59.51-36.95-102.87-9.36-130.07,82.78-27.18,92.12,13.76,191.06,122.81,296.79,99.72,96.72,202.15,160.77,307.29,192.2,6.07,4.28,12.36,8.38,18.98,12.15,6.24,3.43,12.73,6.63,19.79,9.17,4.4,1.49,9.07,2.92,14.02,3.6l6.02,16.97,13.57,33.82c2.17,5.68,4.78,11.17,7.26,16.72l7.5,16.62c4.8,11.18,10.52,21.93,15.92,32.83,22,43.42,46.91,85.45,74.48,125.76,27.79,40.17,58.06,78.68,90.3,115.57l24.54,27.36,25.49,26.53,6.39,6.62,6.59,6.42,13.18,12.85,13.18,12.85,13.56,12.46c35.9,33.53,73.85,64.9,112.7,95.11l29.35,22.41,29.93,21.66c9.9,7.33,20.13,14.21,30.29,21.17l15.25,10.44c5.09,3.48,10.14,7,15.35,10.31,20.7,13.39,41.26,27.03,62.41,39.75l15.76,9.7c5.25,3.24,10.49,6.49,15.85,9.56l31.98,18.67c10.61,6.31,21.5,12.15,32.29,18.15,10.83,5.94,21.58,12.01,32.47,17.85l32.82,17.24,16.41,8.62,16.58,8.29c88.31,44.48,178.76,84.88,270.72,121.68l14.79-33.79c-91.1-36.4-180.84-75.82-268.35-119.28Z"/><path class="cls-21" d="m747.44,1277.8c-24.36-9.69-58.15-16.36-79.61-20.17-56.26-9.99-121.47.59-157.99,37.65-50.89,51.65-82.06,97.77-81.21,169.51.91,76.42,35.21,134.01,97.49,192.67,43.2,40.7,105.93,85.97,175.9,112.51,72.84,27.62,153.59,48.76,242.52,49.77,95.89,1.08,199.29-10.43,295.53-48,105.27-41.1,196.14-106.43,277.63-184.47-92.32,23.48-225.1,41.07-310.39,23.82-85.3-17.25-145.23-54.2-187.89-102.58-45.1-51.14-69.36-85.13-108.09-121.9-38.73-36.77-64.02-59.01-103.7-82.62-22.67-13.49-39.59-17.99-60.18-26.19Z"/><path id="Layer1_7_1_STROKES" class="cls-19" d="m552.1,1447.57c12.73,14.79,26.38,29.91,40.37,44.25,13.99,14.35,29.2,29.02,44.39,41.99,30.41,25.95,64.48,51.03,98.19,70.66,33.71,19.63,68.49,35.72,103.92,47.29,35.43,11.58,66.83,17.58,103.13,22.83,72.62,10.51,144.3,10.91,217.81,1.06,36.77-4.93,76.15-14.67,112.44-25.86,9.08-2.8,19.04-6.18,28.34-9.43,9.3-3.25,18.67-6.63,28.34-9.68,19.33-6.1,38.78-13.27,58.49-18.55,2.39,5.69,4.76,11.36,7.12,17.06-8.79,5.92-18.13,11.22-27.46,16.19-9.33,4.97-18.87,9.92-28.45,14.11-9.59,4.19-19.12,7.6-28.96,10.83-9.83,3.23-19.92,6.43-29.71,9.38-39.16,11.8-77.44,18.82-118.42,24.46-7.69,1.06-20.11,1.94-28.6,2.77-8.49.83-20.84,1.38-28.32,1.58-19.93.54-38.64.8-57.37-.15-37.46-1.92-73.67-5.52-110.09-12.37-36.42-6.86-69.65-14.95-104.91-27.9-35.26-12.96-71.46-32.21-103.3-51.89,70.83,45.77-84.49-65.13-99.22-79.16-2.16-2.06-31.94-32.18-40.83-43.26-8.88-11.08-27.62-32.93-36.9-46.2Z"/><path class="cls-12" d="m1207.3,1611.09c-85.3-17.25-145.23-54.2-187.89-102.58-45.1-51.14-69.36-85.13-108.09-121.9-38.73-36.77-64.02-59.01-103.7-82.62-22.67-13.49-39.59-17.99-60.18-26.19-24.36-9.69-58.15-16.36-79.61-20.17-56.26-9.99-121.47.59-157.99,37.65-50.89,51.65-82.06,97.77-81.21,169.51.91,76.42,35.21,134.01,97.49,192.67,43.2,40.7,105.93,85.97,175.9,112.51,72.84,27.62,153.59,48.76,242.52,49.77,95.89,1.08,199.29-10.43,295.53-48,105.27-41.1,196.14-106.43,277.63-184.47-92.32,23.48-225.1,41.07-310.39,23.82Z"/></g></g><g id="CoffeeCup"><g id="Coffe_cup"><ellipse class="cls-1" cx="1582.96" cy="1968.09" rx="652.45" ry="405.63" transform="translate(-14.45 11.71) rotate(-.42)"/><path class="cls-16" d="m1534.6,1610.79c-19.25.12-1302.71-.22-1320.99.11-17.93.37-35.41,1.16-52.79,2.56v618.56c95.3,3.03,1370.84,7.33,1459.08-2.38,50.92-5.78,101.47-16.52,149.92-32.75,464.41-163.2,263.71-588.21-235.23-586.1Z"/><g id="asa"><g class="cls-25"><path class="cls-19" d="m2046.96,1177.78c-65.67,113.75-131.35,227.5-197.02,341.25,0,0-.35-.19-1.06-.59l197.02-341.25c.71.41,1.06.6,1.06.59Z"/><path class="cls-19" d="m2257.28,1055.14c-15.59-8.88-34-11.7-54.05-8.61-.33-.18-.69-.38-1.08-.59-.38-.21-.75-.43-1.13-.65l-11.6-6.74c4.17,2.37,8.01,5.17,11.52,8.36h0c-3.51-3.18-7.35-5.98-11.52-8.36-6.9-4.12-9.82-6.93-10.92-7.99.79.89.89,1.03,1.82,2.39.55.81,1.23,1.92,1.7,2.77,1.49,2.69,3.41,6.33,4.47,9.21.54,1.46,1.21,3.2,1.82,4.9-11.91,3.42-24.27,8.77-36.86,16.04-39.9,23.03-77.43,62.62-105.55,111.32.71.41,1.06.6,1.06.59,5.6-9.69,11.19-18.44,17.59-27.52,8.19-11.62,15.02-19.83,19.45-24.99,13.34-15.57,28.19-29.7,42.96-40.86,5.28-3.99,12.61-9.31,22.56-15.05,3.77-2.18,7.55-4.19,11.22-5.98,6.31-3.07,10.97-4.85,11.17-4.92,2.48-.94,7.09-2.69,10.55-3.65,2.03-.56,4.56-1.21,6.87-1.77,1.36,5.24,2.99,12.22,3.86,17.53.28,1.71,1.68,10.93,1.69,24.2.01,11.04-1.02,20.92-1.64,25.83-.49,3.87-1.78,14.15-5.01,27.76-3.13,13.21-6.63,23.85-8.44,29.01-3.17,9.05-7.9,20.94-11.9,29.66-2.07,4.52-4.97,10.49-7.25,14.91-2.33,4.51-5.68,10.39-8.11,14.85,0,0,.53.33,1.54.92-1.02-.6-1.55-.92-1.54-.92-65.67,113.75-131.34,227.49-197.01,341.24-5.6,9.7-11.19,18.44-17.59,27.52-8.61,12.21-15.39,20.21-19.44,24.99-2.85,3.37-10.6,12.25-20.92,22.07-7.26,6.91-14.68,13.23-22.05,18.81-4.86,3.68-12.49,9.24-22.56,15.05-3.77,2.18-7.55,4.19-11.22,5.98-6.3,3.07-10.97,4.85-11.17,4.92-2.3.87-7.08,2.69-10.55,3.65-2.04.57-4.59,1.22-6.91,1.78-.61-2.08-1.23-4.29-1.71-6.12-.79-3.06-1.57-7.5-2.08-10.68-.09-.53-.85-5.38-1.32-11.85-.3-4.11-.45-8.34-.46-12.57,0-3.31-.02-13.38,1.7-26.93.84-6.61,2.19-15.79,5.2-28.3.87-3.61,3.52-14.61,8.6-29.06,2.26-6.41,5.95-16.42,11.88-29.27,2.27-4.92,4.67-9.81,7.13-14.56q2.52-4.86,7.9-14.42s-.35-.19-1.06-.59c-28.12,48.71-43.56,100.88-43.43,146.72.04,13.93,1.52,26.77,4.35,38.37-1.26.24-2.69.46-3.83.65-5.11.86-13.32,1.23-17.69.32,2.08.54,4.97,1.82,5,1.83,3.18,1.42,4.25,1.99,7.13,3.59.35.2.69.4,1.04.6l11.6,6.74c.32.19.75.45,1.22.74,7.41,19.41,19.35,34.23,35.3,43.32,28.3,16.15,65.94,12.33,105.84-10.71,39.9-23.03,77.44-62.62,105.56-111.34,0,0,197.01-341.24,197.01-341.24,58.1-100.66,57.79-209.54-.69-242.89Z"/><path class="cls-5" d="m2282.79,1010.97c72.61,41.34,73,176.78.86,301.71-65.67,113.75-131.35,227.5-197.02,341.25-34.97,60.56-81.49,109.63-131.11,138.28-49.61,28.64-96.26,33.37-131.46,13.31-35.19-20.07-54.64-62.45-54.81-119.46-.16-57.02,18.99-121.68,53.95-182.25,65.67-113.75,131.34-227.5,197.02-341.25,34.97-60.57,81.49-109.64,131.11-138.29,49.61-28.64,96.25-33.36,131.46-13.3Zm-24.82,287.07c58.1-100.66,57.79-209.54-.69-242.89-28.31-16.13-65.93-12.32-105.84,10.72-39.9,23.03-77.43,62.62-105.55,111.32-65.67,113.75-131.35,227.5-197.02,341.25-28.12,48.71-43.56,100.88-43.43,146.72.13,45.84,15.81,80.04,44.12,96.17,28.3,16.15,65.94,12.33,105.84-10.71,39.9-23.03,77.44-62.62,105.56-111.34,65.67-113.74,131.34-227.49,197.01-341.24"/><path class="cls-14" d="m2338.89,1109.21c-2.48-60.52-39.88-113.98-92.63-142.31,1.6.93,3.17,1.88,4.69,2.84-130.8-89.35-250.7-.29-325.18,113.46h0c-70.4,119.11-138.44,239.73-208.02,359.35-27.13,48.61-44.24,90.41-52.72,150.19-14.09,105.76,31.25,172.73,126.05,214.71,122.66,56.46,239.08-52.84,296.59-152.94-.19-.09-.55-.3-.86-.48,66.3-109.07,132.28-229.13,197.88-340.77h0c39.09-72.08,56.95-125.93,54.19-204.05Zm-55.25,203.46h0l-197.02,341.25h0c-34.97,60.56-81.49,109.63-131.11,138.28-49.61,28.64-96.26,33.37-131.46,13.31-35.19-20.07-54.64-62.45-54.81-119.46-.16-57.02,18.99-121.68,53.95-182.25l197.02-341.25c34.97-60.57,81.49-109.64,131.11-138.29,49.61-28.64,96.25-33.36,131.46-13.3h0c72.61,41.34,73,176.78.85,301.71Z"/></g></g><path class="cls-23" d="m2301.35,1151.35c0-1.42-.02-2.83-.06-4.24-.06-2.59-.18-5.15-.35-7.67-.09-1.4-.2-2.79-.32-4.16-.47-5.21-1.17-10.27-2.1-15.16-.23-1.22-.48-2.43-.74-3.63-1.82-8.4-4.34-16.26-7.55-23.47-1.17-2.63-2.45-5.16-3.8-7.6-.45-.81-.91-1.62-1.38-2.41-.69-1.17-1.41-2.31-2.15-3.44-1.49-2.27-3.07-4.44-4.74-6.51-.86-1.07-1.75-2.11-2.67-3.12-1.07-1.19-2.16-2.36-3.29-3.47-4.46-4.39-9.43-8.18-14.91-11.3,0,0-.01,0-.02,0-.93-.53-1.87-1.03-2.81-1.52-.3-.15-.61-.3-.92-.45-.66-.33-1.32-.65-1.98-.95-.35-.16-.71-.31-1.07-.47-.63-.28-1.26-.55-1.9-.81-.37-.15-.74-.29-1.12-.43-.64-.25-1.28-.49-1.92-.72-.37-.13-.74-.26-1.11-.38-.67-.22-1.34-.44-2.02-.65-.35-.11-.7-.21-1.05-.31-.72-.21-1.44-.4-2.17-.59-.31-.08-.63-.16-.95-.24-.8-.2-1.61-.38-2.42-.55-.25-.05-.49-.11-.74-.16-.95-.19-1.91-.36-2.88-.52-.11-.02-.22-.04-.33-.06-5.64-.88-11.49-1.19-17.53-.92,0,0,0,0-.01,0-1.2.05-2.4.13-3.61.23-.03,0-.07,0-.1,0-1.19.1-2.39.22-3.59.36-.03,0-.07,0-.1.01-1.22.15-2.45.31-3.69.5-4.88.75-9.86,1.85-14.92,3.3-1.45.42-2.91.86-4.38,1.34-.15.05-.31.11-.47.16-1.24.41-2.48.83-3.73,1.28-.34.12-.67.24-1.01.37-1.11.41-2.23.83-3.35,1.27-.33.13-.66.26-.99.39-1.4.56-2.79,1.14-4.2,1.75-.02,0-.04.02-.05.02-1.44.63-2.89,1.28-4.34,1.96-.35.17-.71.34-1.06.51-1.07.51-2.14,1.03-3.22,1.57-.47.23-.93.47-1.4.71-1.02.52-2.04,1.06-3.06,1.6-.43.23-.87.46-1.3.7-1.43.78-2.86,1.57-4.29,2.4,0,0,0,0-.01,0-9.98,5.76-19.8,12.55-29.37,20.26-1.2.96-2.39,1.94-3.58,2.93-9.5,7.94-18.73,16.78-27.58,26.41-1.11,1.2-2.21,2.42-3.3,3.65-9.2,10.33-17.95,21.51-26.15,33.41-1.9,2.76-3.77,5.55-5.6,8.38-1.2,1.85-2.38,3.71-3.55,5.59-2.19,3.51-4.33,7.07-6.42,10.68.71.41,1.06.6,1.06.59,5.6-9.69,11.19-18.44,17.59-27.52,8.19-11.62,15.02-19.83,19.45-24.99,13.34-15.57,28.19-29.7,42.96-40.86,5.28-3.99,12.61-9.31,22.56-15.05,3.77-2.18,7.55-4.19,11.22-5.98,6.31-3.07,10.97-4.85,11.17-4.92,2.48-.94,7.09-2.69,10.55-3.65,2.03-.56,4.56-1.21,6.87-1.77,1.36,5.24,2.99,12.22,3.86,17.53.28,1.71,1.68,10.93,1.69,24.2.01,11.04-1.02,20.92-1.64,25.83-.49,3.87-1.78,14.15-5.01,27.76-3.13,13.21-6.63,23.85-8.44,29.01-3.17,9.05-7.9,20.94-11.9,29.66-2.07,4.52-4.97,10.49-7.25,14.91-2.33,4.51-5.68,10.39-8.11,14.85,0,0,.53.33,1.54.92-1.02-.6-1.55-.92-1.54-.92-65.67,113.75-131.34,227.49-197.01,341.24-5.6,9.7-11.19,18.44-17.59,27.52-8.61,12.21-15.39,20.21-19.44,24.99-2.85,3.37-10.6,12.25-20.92,22.07-7.26,6.91-14.68,13.23-22.05,18.81-4.86,3.68-12.49,9.24-22.56,15.05-3.77,2.18-7.55,4.19-11.22,5.98-6.3,3.07-10.97,4.85-11.17,4.92-2.3.87-7.08,2.69-10.55,3.65-2.04.57-4.59,1.22-6.91,1.78-.61-2.08-1.23-4.29-1.71-6.12-.79-3.06-1.57-7.5-2.08-10.68-.09-.53-.85-5.38-1.32-11.85-.3-4.11-.45-8.34-.46-12.57,0-3.31-.02-13.38,1.7-26.93.84-6.61,2.19-15.79,5.2-28.3.87-3.61,3.52-14.61,8.6-29.06,2.26-6.41,5.94-16.42,11.88-29.28,2.27-4.92,4.67-9.81,7.13-14.56q2.52-4.86,7.9-14.42s-.35-.19-1.06-.59c-28.12,48.71-43.56,100.88-43.43,146.72,0,1.61.03,3.21.08,4.79.01.46.03.92.05,1.38.04,1.14.09,2.28.15,3.4.03.49.05.97.08,1.46.07,1.15.15,2.29.24,3.41.03.4.06.79.1,1.19.12,1.43.26,2.85.42,4.25,0,.07.01.14.02.22.36,3.15.81,6.24,1.33,9.25.02.09.03.18.05.27.25,1.4.52,2.79.8,4.16.02.12.05.23.07.35.3,1.43.62,2.85.96,4.24h0c1.24,5.07,2.72,9.9,4.47,14.47h0c.45,1.18.92,2.34,1.4,3.49.09.22.2.44.29.66.38.89.77,1.77,1.18,2.64.16.34.33.68.49,1.02.35.74.71,1.47,1.08,2.19.19.38.39.75.58,1.12.35.67.71,1.34,1.08,2,.21.38.42.75.64,1.13.37.64.75,1.28,1.13,1.9.22.37.44.73.67,1.09.4.64.81,1.26,1.22,1.88.22.33.44.66.66.99.46.67.92,1.32,1.4,1.97.19.26.38.53.57.8,1.35,1.81,2.76,3.54,4.23,5.2.2.23.42.45.62.68.53.59,1.07,1.17,1.61,1.73.28.29.56.57.85.85.49.49.98.98,1.49,1.46.31.3.63.59.95.88.49.45.98.89,1.48,1.32.33.29.67.57,1.01.86.5.42,1.01.83,1.52,1.24.34.27.69.55,1.04.81.53.41,1.07.8,1.61,1.19.34.24.67.49,1.02.73.6.42,1.21.82,1.83,1.22.29.19.58.39.88.58.92.58,1.85,1.14,2.79,1.68,2.65,1.51,5.39,2.85,8.2,4.02,1.87.78,3.78,1.47,5.72,2.09,1.94.62,3.91,1.16,5.92,1.63,5.01,1.16,10.2,1.84,15.57,2.04,1.07.04,2.15.06,3.24.06,5.42,0,11.01-.46,16.72-1.41,8-1.33,16.25-3.59,24.69-6.79,8.44-3.19,17.06-7.31,25.79-12.35,3.74-2.16,7.46-4.46,11.15-6.91,2.46-1.63,4.91-3.32,7.35-5.07,4.87-3.5,9.69-7.25,14.45-11.22,1.19-.99,2.37-2,3.55-3.02,17.37-15.03,33.77-33.09,48.51-53.43.56-.78,1.12-1.56,1.68-2.34,1.38-1.94,2.75-3.9,4.11-5.89,5.16-7.55,10.09-15.38,14.76-23.47,65.67-113.75,131.34-227.49,197.01-341.24,13.33-23.1,23.58-46.62,30.76-69.57.3-.96.6-1.92.89-2.88.67-2.21,1.31-4.42,1.92-6.62.24-.85.47-1.69.69-2.54.62-2.3,1.21-4.6,1.76-6.88,2.33-9.59,4.12-19.04,5.34-28.24.2-1.47.38-2.94.54-4.4,1-8.77,1.49-17.31,1.47-25.55Z"/><path class="cls-24" d="m2301.35,1151.35c2.22-73.16-48.68-127.28-122.62-98.38-57.85,22.3-101.8,71.38-132.83,124.22,35.26-52.2,78.73-107.73,143.43-124.15,11.33,35.91,3.57,88.37-9.54,124.33-5.19,14.79-11.93,30.67-19.15,44.56-.72,3.35-10.39,14.68-6.57,15.77-1.02-.6-1.55-.92-1.54-.92-79.03,129.1-146.68,270.82-234.04,393.76-23.75,28.39-65.67,63.65-105.39,72.25-15.93-60.14,4.22-125.53,36.85-183.76,0,0-.35-.19-1.06-.59-34.58,62.65-51.96,122.22-39.08,185.1h0c11.59,57.35,67.23,81.97,119.82,59.44,46.51-18.41,82.76-53.29,112.48-94.33,75.18-121.47,143.27-247.51,215.88-370.6,13.33-23.1,23.58-46.62,30.76-69.57,7.8-24.91,12.68-51.37,12.61-77.12Z"/><path class="cls-5" d="m2121.68,1146.84c-74.71-158.98-358.07-253.82-632.88-211.84-231.08,35.3-382.54,156.07-380.51,288.13,0,.07.02.13.02.21,0,.1.02.23.02.38.03.31.07.72.08,1.22.05.61.1,1.33.15,2.19.03.31.03.63.07.97.05.67.1,1.43.15,2.25.2,2.85.44,6.48.76,10.83v.03c2.32,19.12,7.9,38.41,16.93,57.65,24.8,52.77,72.57,98.47,135.4,134.43.02.02.03.03.05.03,126.46,72.41,313.85,105.42,497.45,77.38,89.13-13.63,166.4-39.96,227.6-74.74,89.32-50.77,144.39-119.57,151.99-193.14.02-.05.02-.12.02-.18.31-4.23.56-7.83.77-10.76,0-.13,0-.25.02-.36,1.04-27.88-4.76-56.33-18.07-84.67Zm-41.35,126.66c-35.63,91.71-159.72,169.05-333.75,194.68-248.65,36.6-505.04-46.27-572.66-185.1-2.24-4.59-4.23-9.17-5.99-13.76-51.84-134.35,93.32-268.46,333.75-303.86,248.63-36.6,505.02,46.27,572.66,185.08,20.29,41.67,21.28,83.63,5.99,122.96Z"/><path class="cls-13" d="m2121.68,1146.84c-74.71-158.98-358.07-253.82-632.88-211.84-231.08,35.3-382.54,156.07-380.51,288.13,0,.07.02.13.02.21,0,.1.02.23.02.38.03.31.07.72.08,1.22.05.61.1,1.33.15,2.19.03.31.03.63.07.97.05.67.1,1.43.15,2.25.2,2.85.44,6.48.76,10.83v.03c2.32,19.12,7.9,38.41,16.93,57.65,24.8,52.77,72.57,98.47,135.4,134.43.02.02.03.03.05.03,126.46,72.41,313.85,105.42,497.45,77.38,89.13-13.63,166.4-39.96,227.6-74.74,89.32-50.77,144.39-119.57,151.99-193.14.02-.05.02-.12.02-.18.31-4.23.56-7.83.77-10.76,0-.13,0-.25.02-.36,1.04-27.88-4.76-56.33-18.07-84.67Zm-41.35,126.66c-35.63,91.71-159.72,169.05-333.75,194.68-248.65,36.6-505.04-46.27-572.66-185.1-2.24-4.59-4.23-9.17-5.99-13.76-51.84-134.35,93.32-268.46,333.75-303.86,248.63-36.6,505.02,46.27,572.66,185.08,20.29,41.67,21.28,83.63,5.99,122.96Z"/><path class="cls-5" d="m2138.77,1242.81c-7.73,108.33-48.69,626.52-133.9,785.37-.03.08-.08.15-.12.23-36.66,74.5-138.23,136.09-277.37,157.35-196.72,30.03-399.13-31.15-472.27-138.45-.02-.02-.02-.03-.03-.05-93.65-131.37-137.95-696.65-145.74-806.05,2.32,19.12,7.9,38.41,16.93,57.65,24.8,52.77,72.57,98.47,135.4,134.43.02.02.03.03.05.03,126.46,72.41,313.85,105.42,497.45,77.38,89.13-13.63,166.4-39.96,227.6-74.74,89.32-50.77,144.39-119.57,151.99-193.14Z"/><path class="cls-8" d="m2138.77,1242.81c-7.73,108.33-48.69,626.52-133.9,785.37-.03.08-.08.15-.12.23-36.66,74.5-138.23,136.09-277.37,157.35-196.72,30.03-399.13-31.15-472.27-138.45-.02-.02-.02-.03-.03-.05-93.65-131.37-137.95-696.65-145.74-806.05,2.32,19.12,7.9,38.41,16.93,57.65,24.8,52.77,72.57,98.47,135.4,134.43.02.02.03.03.05.03,126.46,72.41,313.85,105.42,497.45,77.38,89.13-13.63,166.4-39.96,227.6-74.74,89.32-50.77,144.39-119.57,151.99-193.14Z"/><path class="cls-11" d="m2138.77,1242.81c-7.73,108.33-48.69,626.52-133.9,785.37-.03.08-.08.15-.12.23-36.66,74.5-138.23,136.09-277.37,157.35-196.72,30.03-399.13-31.15-472.27-138.45-.02-.02-.02-.03-.03-.05-93.65-131.37-137.95-696.65-145.74-806.05,2.32,19.12,7.9,38.41,16.93,57.65,24.8,52.77,72.57,98.47,135.4,134.43.02.02.03.03.05.03,126.46,72.41,313.85,105.42,497.45,77.38,89.13-13.63,166.4-39.96,227.6-74.74,89.32-50.77,144.39-119.57,151.99-193.14Z"/><path class="cls-10" d="m1108.13,1223.35c.12,1.73.51,7.9,1.22,17.84-.72-5.96-1.14-11.91-1.22-17.84Z"/><path class="cls-19" d="m2080.16,1273.5c-1.18-19.25-6.35-38.75-15.83-58.19-66.15-135.8-316.93-216.84-560.13-181.05-197.85,29.13-329.75,126.6-336.43,235.06-51.84-134.35,93.32-268.46,333.75-303.86,248.63-36.6,505.02,46.27,572.66,185.08,20.29,41.67,21.28,83.63,5.99,122.96Z"/><path class="cls-22" d="m2080.16,1273.5c-1.18-19.25-6.35-38.75-15.83-58.19-66.15-135.8-316.93-216.84-560.13-181.05-197.85,29.13-329.75,126.6-336.43,235.06-51.84-134.35,93.32-268.46,333.75-303.86,248.63-36.6,505.02,46.27,572.66,185.08,20.29,41.67,21.28,83.63,5.99,122.96Z"/><g id="CoffeeGrayscale"><path class="cls-9" d="m2080.16,1273.5c-35.63,91.71-159.72,169.05-333.75,194.68-248.65,36.6-505.04-46.27-572.66-185.1-2.24-4.59-4.23-9.17-5.99-13.76,6.68-108.46,138.58-205.93,336.43-235.06,243.2-35.79,493.98,45.25,560.13,181.05,9.48,19.43,14.65,38.94,15.83,58.19Z"/><path class="cls-4" d="m2080.16,1273.5c-35.63,91.71-159.72,169.05-333.75,194.68-248.65,36.6-505.04-46.27-572.66-185.1-2.24-4.59-4.23-9.17-5.99-13.76,6.68-108.46,138.58-205.93,336.43-235.06,243.2-35.79,493.98,45.25,560.13,181.05,9.48,19.43,14.65,38.94,15.83,58.19Z"/><path class="cls-15" d="m2064.33,1215.32c-66.15-135.8-316.93-216.84-560.13-181.05-15.79,2.33-31.16,5.09-46.09,8.26,146.49-15.03,303.42,10.33,417.15,75.99,118.42,68.37,161.17,163.77,128.06,251.27,36.97-28.65,63.3-61.42,76.84-96.27-1.18-19.25-6.35-38.75-15.83-58.19Z"/></g><g id="Coffe_smoke"><path id="Color" class="cls-20" d="m1867.63,1143.25c-6.41-130.67-129.28-138.09-124.69-240.83,2.1-67.8,75.69-105.37,85.47-171.92,3.83-19.03,2.64-39.4-2.55-57.86,0,0-6.27-22.31-6.27-22.31-.8-2.85-4.96-2.42-5.17.53-3.91,41.46-11.49,81.16-38.83,113.21-37.15,42.2-82.58,88.5-81.87,149.2-1.19,32.55,8.52,65.18,23.82,93.69,17.01,30.51,43.34,53.49,60.13,82.26,23.39,40.17,25.6,92.02,9.78,135.24-26.22,63.35-96.48,108.26-91.49,183.78h5.44c2.48-7.61,4.94-15.73,8.2-22.99-.24,7.71.02,15.4.74,22.99,3.14-111.34,162.41-90.57,157.28-264.99Z"/><path class="cls-18" d="m1825.86,672.65c28.28,107.2-71.12,139.94-82.48,222.79-8.42,76.51,53.34,100.08,92.45,156.02,31.13,42.81,39.37,100.12,25.93,150.98-25.96,105.76-135.38,106.36-160.35,205.82h-5.44c-2.26-86.84,61.39-112.24,102.92-173.73,18.83-30.22,22.88-67.88,15.97-102.38-23.61-95.65-135.25-109.34-120.2-232.57,7.83-98.44,129.22-123.05,125.76-226.92h5.44Z"/><path class="cls-17" d="m1811.47,672.65c13.52,123.03-111.42,142.5-83.67,276.36,19.81,87.83,103.43,103.19,97.59,218.58-.39,111.88-109.06,132.5-115.04,240.66-13.67-118.46,104.4-141.54,85.57-264.87-11-89.24-100.41-112.58-99.6-216.45-6.13-126.62,107.34-139.11,115.14-254.28Z"/></g><g id="Coffe_smoke-2"><path class="cls-7" d="m1566.51,1154.32c-9.84-42.26-33.14-79.82-52.4-117.94-31-59.34-34.54-128.26-23.79-193.16,19.13-92.38,90.81-149.01,82.15-253.75-1.46-24.33-6.88-48.69-17.14-70.58-8.88-9.03-4.78,15.48-6.56,19.04,0,0,0-.02,0-.03-10.79,163.67-119.02,199.77-118.23,367.8-.76,168.19,107.32,204.06,118.23,367.8,2.42-24.62,2.76-49.77-.46-74.47,6.43,24.27,8.85,49.36,9.41,74.47h5.44c11.51-38.3,12.99-79.84,3.35-119.19Z"/><path class="cls-2" d="m1563.16,537.91c18.36,58.3,9.71,123.01-17.83,177.11-18.86,38.92-43.48,76.16-52.81,118.39-9.79,43.95-9.75,90.49-2.26,134.8,8.16,46.21,34.36,86.39,54.97,128.26,27.57,54.13,36.22,118.88,17.94,177.04h-5.44c2-166.41-131.35-198.29-127.17-367.8-4.2-169.48,129.17-201.42,127.17-367.8h5.44Z"/><path class="cls-6" d="m1548.77,537.91c19.76,159.06-91.59,211.46-85.57,367.8-5.96,156.31,105.43,208.85,85.57,367.8-10.89-164.9-120-198.69-116.67-367.8-3.27-169.11,105.88-202.93,116.67-367.8Z"/></g></g></g></svg>