<svg xmlns="http://www.w3.org/2000/svg" xmlns:xlink="http://www.w3.org/1999/xlink" viewBox="0 0 2500 2500"><defs><style>.cls-1,.cls-10,.cls-11,.cls-21,.cls-25,.cls-33,.cls-38,.cls-52,.cls-65,.cls-9{fill:none;}.cls-2{filter:url(#AI_DesenfoqueGaussiano_4);}.cls-3{fill:url(#Degradado_sin_nombre_3);}.cls-4{fill:url(#Degradado_sin_nombre_39);}.cls-5{fill:#52d6ff;}.cls-6{fill:#00a7d4;}.cls-7{fill:url(#linear-gradient);}.cls-8{fill:#20bcec;}.cls-10,.cls-11,.cls-9{stroke:#022e49;}.cls-9{stroke-width:19.81px;opacity:0.15;}.cls-10{stroke-width:12.82px;opacity:0.41;}.cls-11{stroke-width:6.99px;opacity:0.72;}.cls-12{fill:url(#linear-gradient-2);}.cls-13{fill:url(#linear-gradient-3);}.cls-14{opacity:0.28;}.cls-15{fill:#6da0e8;}.cls-16{fill:url(#radial-gradient);}.cls-17{fill:url(#linear-gradient-4);}.cls-18{fill:url(#Nueva_muestra_de_degradado_38);}.cls-19{fill:#183a5d;}.cls-20{fill:#10141b;fill-opacity:0.31;}.cls-21,.cls-25{stroke:#0071b0;}.cls-21,.cls-25,.cls-33,.cls-38{stroke-linecap:round;stroke-miterlimit:10;}.cls-21{stroke-opacity:0.4;stroke-width:20px;}.cls-22,.cls-24,.cls-27,.cls-29{fill:#0071b0;}.cls-22{fill-opacity:0.8;}.cls-23{fill:#00b287;opacity:0.35;}.cls-24{fill-opacity:0.4;}.cls-25,.cls-33,.cls-38{stroke-opacity:0.3;stroke-width:3px;}.cls-26,.cls-28,.cls-29{opacity:0.4;}.cls-28,.cls-35,.cls-40{fill:#fff;}.cls-30{opacity:0.75;fill:url(#linear-gradient-5);}.cls-31{fill:#114b6d;}.cls-32{fill:url(#linear-gradient-6);}.cls-33{stroke:#90e5ff;}.cls-34{opacity:0.1;}.cls-36{opacity:0.6;}.cls-37{fill:#09c997;}.cls-38{stroke:#1da1dc;}.cls-39{fill:url(#linear-gradient-7);}.cls-40{opacity:0.05;}.cls-41{clip-path:url(#clip-path);}.cls-42{fill:#0f0b26;opacity:0.2;}.cls-43{fill:url(#Degradado_sin_nombre_5);}.cls-44{fill:#95eee5;}.cls-45{fill:#4dd2d2;}.cls-46{fill:url(#linear-gradient-8);}.cls-47{fill:#0088a1;}.cls-48{fill:url(#Degradado_sin_nombre_16);}.cls-49{fill:#00637f;}.cls-50{fill:url(#Degradado_sin_nombre_5-2);}.cls-51{fill:url(#Degradado_sin_nombre_5-3);}.cls-52{stroke:#95eee5;}.cls-53{fill:url(#Degradado_sin_nombre_13);}.cls-54{fill:#14253f;}.cls-55{fill:#1947db;}.cls-56{fill:url(#Nueva_muestra_de_degradado_19);}.cls-57{fill:#ffa3ab;}.cls-58{fill:#869dfd;}.cls-59{fill:#355bfc;}.cls-60{fill:url(#Nueva_muestra_de_degradado_19-2);}.cls-61{fill:url(#Nueva_muestra_de_degradado_19-3);}.cls-62{fill:#b1bec7;}.cls-63{fill:#232484;}.cls-64{fill:url(#Nueva_muestra_de_degradado_5);}.cls-65{stroke:#a2adbb;stroke-linejoin:round;stroke-opacity:0.98;stroke-width:1.13px;}.cls-66{fill-opacity:0.43;fill:url(#Degradado_sin_nombre_9);}</style><filter id="AI_DesenfoqueGaussiano_4" name="AI_DesenfoqueGaussiano_4"><feGaussianBlur stdDeviation="4"/></filter><linearGradient id="Degradado_sin_nombre_3" x1="29.03" y1="32.92" x2="247.63" y2="32.92" gradientUnits="userSpaceOnUse"><stop offset="0" stop-color="#0f0b26" stop-opacity="0.5"/><stop offset="0.48" stop-color="#0f0b26" stop-opacity="0.1"/><stop offset="1" stop-color="#0f0b26" stop-opacity="0"/></linearGradient><linearGradient id="Degradado_sin_nombre_39" x1="623.54" y1="2154.66" x2="1889.13" y2="1580.71" gradientUnits="userSpaceOnUse"><stop offset="0" stop-color="#141226" stop-opacity="0.3"/><stop offset="0.76" stop-color="#141226" stop-opacity="0.1"/><stop offset="1" stop-color="#141226" stop-opacity="0.04"/></linearGradient><linearGradient id="linear-gradient" x1="1697.39" y1="1106.04" x2="1554.41" y2="1032.51" gradientUnits="userSpaceOnUse"><stop offset="0" stop-color="#52d6ff" stop-opacity="0.1"/><stop offset="1" stop-color="#0071b0" stop-opacity="0.3"/></linearGradient><linearGradient id="linear-gradient-2" x1="335.68" y1="2019.07" x2="2089.81" y2="2019.07" gradientUnits="userSpaceOnUse"><stop offset="0.32" stop-color="#1189a4"/><stop offset="0.46" stop-color="#1187a3"/><stop offset="0.51" stop-color="#0f809f"/><stop offset="0.55" stop-color="#0d7598"/><stop offset="0.58" stop-color="#0a648e"/><stop offset="0.59" stop-color="#085988"/><stop offset="1" stop-color="#045989"/></linearGradient><linearGradient id="linear-gradient-3" x1="2833.39" y1="1758.29" x2="332.9" y2="1758.29" gradientUnits="userSpaceOnUse"><stop offset="0" stop-color="#202f64"/><stop offset="1" stop-color="#0071b0"/></linearGradient><radialGradient id="radial-gradient" cx="823.93" cy="4460.45" r="293" gradientTransform="matrix(0, 1.68, -0.16, 0, 2060.52, 340.1)" gradientUnits="userSpaceOnUse"><stop offset="0" stop-color="#0f0b26" stop-opacity="0.5"/><stop offset="1" stop-color="#0f0b26" stop-opacity="0"/></radialGradient><linearGradient id="linear-gradient-4" x1="1203.91" y1="430.7" x2="1487.05" y2="939.67" gradientUnits="userSpaceOnUse"><stop offset="0" stop-color="#58d1ed"/><stop offset="0.09" stop-color="#6dd8f4"/><stop offset="0.2" stop-color="#80dffa"/><stop offset="0.31" stop-color="#8ce4fe"/><stop offset="0.43" stop-color="#90e5ff"/><stop offset="0.49" stop-color="#6ed1f5"/><stop offset="0.55" stop-color="#51c0ec"/><stop offset="0.62" stop-color="#3ab2e5"/><stop offset="0.69" stop-color="#2aa8e0"/><stop offset="0.77" stop-color="#20a3dd"/><stop offset="0.88" stop-color="#1da1dc"/></linearGradient><linearGradient id="Nueva_muestra_de_degradado_38" x1="-11687.85" y1="-17098.61" x2="-9836.36" y2="-22312.39" gradientTransform="matrix(0.5, 0.62, 0, 0.66, 6828.05, 20651.15)" gradientUnits="userSpaceOnUse"><stop offset="0.01" stop-color="#141226"/><stop offset="0.58" stop-color="#27244b"/><stop offset="0.98" stop-color="#27244b"/><stop offset="1" stop-color="#27244b"/></linearGradient><linearGradient id="linear-gradient-5" x1="-11364.45" y1="-20069.84" x2="-11303.83" y2="-20009.22" gradientTransform="matrix(0.5, 0.62, 0, 0.66, 6828.05, 20651.15)" gradientUnits="userSpaceOnUse"><stop offset="0" stop-color="#1da1dc"/><stop offset="1" stop-color="#00b287"/></linearGradient><linearGradient id="linear-gradient-6" x1="1200.12" y1="953.03" x2="1171.29" y2="1003.98" gradientUnits="userSpaceOnUse"><stop offset="0" stop-color="#0071b0"/><stop offset="0.06" stop-color="#1da1dc"/><stop offset="1" stop-color="#0071b0"/></linearGradient><linearGradient id="linear-gradient-7" x1="1634.38" y1="-541.35" x2="1634.38" y2="2236.4" gradientUnits="userSpaceOnUse"><stop offset="0" stop-color="#58d1ed"/><stop offset="0" stop-color="#58d1ed"/><stop offset="0.59" stop-color="#2daee1"/><stop offset="0.88" stop-color="#1da1dc"/></linearGradient><clipPath id="clip-path"><rect class="cls-1" x="1052.82" y="393.62" width="305.79" height="812.43"/></clipPath><linearGradient id="Degradado_sin_nombre_5" x1="901.63" y1="379.3" x2="1216.18" y2="929.77" gradientTransform="translate(4.65 -2.86) rotate(0.36)" gradientUnits="userSpaceOnUse"><stop offset="0.01" stop-color="#12abbb"/><stop offset="0.25" stop-color="#0ca0b3"/><stop offset="0.62" stop-color="#0088a1"/><stop offset="0.98" stop-color="#0088a1"/><stop offset="1" stop-color="#0088a1"/></linearGradient><linearGradient id="linear-gradient-8" x1="461.97" y1="933.62" x2="1096.28" y2="663.29" gradientUnits="userSpaceOnUse"><stop offset="0" stop-color="#d5f8f5"/><stop offset="1" stop-color="#95eee5"/></linearGradient><linearGradient id="Degradado_sin_nombre_16" x1="753.69" y1="509.15" x2="1029.84" y2="992.41" gradientTransform="translate(4.65 -2.86) rotate(0.36)" gradientUnits="userSpaceOnUse"><stop offset="0" stop-color="#0088a1"/><stop offset="0.02" stop-color="#0088a1"/><stop offset="0.38" stop-color="#0088a1"/><stop offset="0.75" stop-color="#0ca0b3"/><stop offset="0.99" stop-color="#12abbb"/></linearGradient><linearGradient id="Degradado_sin_nombre_5-2" x1="932.08" y1="428.64" x2="987.85" y2="428.64" xlink:href="#Degradado_sin_nombre_5"/><linearGradient id="Degradado_sin_nombre_5-3" x1="1034.29" y1="347.78" x2="835.02" y2="427.57" gradientTransform="matrix(0.01, 1, -1, 0.01, 1333.41, -580.89)" xlink:href="#Degradado_sin_nombre_5"/><linearGradient id="Degradado_sin_nombre_13" x1="1338.09" y1="894.57" x2="1338.04" y2="918.19" gradientTransform="matrix(-1, 0, 0, 1, 2379.61, 0)" gradientUnits="userSpaceOnUse"><stop offset="0" stop-color="#90aac1" stop-opacity="0.4"/><stop offset="1" stop-color="#90aac1" stop-opacity="0"/></linearGradient><linearGradient id="Nueva_muestra_de_degradado_19" x1="1581.09" y1="1491.2" x2="1489.64" y2="1249.82" gradientTransform="matrix(-1, 0, 0, 1, 2379.61, 0)" gradientUnits="userSpaceOnUse"><stop offset="0" stop-color="#010d1a" stop-opacity="0"/><stop offset="1" stop-color="#010d1a"/></linearGradient><linearGradient id="Nueva_muestra_de_degradado_19-2" x1="1562.6" y1="1464.24" x2="1589.58" y2="1146.41" xlink:href="#Nueva_muestra_de_degradado_19"/><linearGradient id="Nueva_muestra_de_degradado_19-3" x1="725.66" y1="1159.68" x2="747.65" y2="1165.67" gradientTransform="matrix(1, 0, 0, 1, 0, 0)" xlink:href="#Nueva_muestra_de_degradado_19"/><linearGradient id="Nueva_muestra_de_degradado_5" x1="1591.76" y1="1158.32" x2="1737.18" y2="1041.38" gradientTransform="matrix(-1, 0, 0, 1, 2379.61, 0)" gradientUnits="userSpaceOnUse"><stop offset="0.09" stop-color="#fff" stop-opacity="0"/><stop offset="1" stop-color="#fff"/></linearGradient><radialGradient id="Degradado_sin_nombre_9" cx="1879.02" cy="1784.92" r="39.52" gradientTransform="matrix(-0.71, 0.41, 0.7, 0.41, 785.42, 209.79)" gradientUnits="userSpaceOnUse"><stop offset="0" stop-color="#141226" stop-opacity="0.3"/><stop offset="1" stop-color="#141226" stop-opacity="0"/></radialGradient><symbol id="shadowsvgdark" data-name="shadowsvgdark" viewBox="0 0 269.17 74.14"><g class="cls-2"><path class="cls-3" d="M247.63,32.92c.09,15.15-21,27.43-47.19,27.42H76.53a81.87,81.87,0,0,1-8.38-.43c-.78-.08-1.55-.18-2.31-.28s-1.52-.21-2.27-.34-1.49-.25-2.23-.4-1.46-.29-2.17-.46c-1.35-.3-2.66-.65-4-1L54,57l-2-.67c-.65-.22-1.29-.46-1.92-.71-1.26-.49-2.48-1-3.65-1.58-.59-.28-1.16-.56-1.73-.86s-1.11-.6-1.65-.91-1.06-.63-1.57-1-1-.66-1.49-1a33,33,0,0,1-2.74-2.11c-.43-.36-.84-.73-1.24-1.11s-.78-.76-1.15-1.15l-.53-.58a23.09,23.09,0,0,1-1.78-2.25L32,42.35l-.39-.63c-.25-.43-.48-.86-.7-1.29s-.41-.87-.59-1.32-.34-.89-.48-1.34c-.07-.22-.14-.45-.2-.67-.12-.46-.22-.92-.31-1.38a17.35,17.35,0,0,1-.26-2.8C29,17.77,50.08,5.49,76.23,5.49H201.35c1.63,0,3.23.1,4.81.21,1.19.09,2.36.2,3.52.34s2.29.3,3.42.48q2.64.43,5.16,1l1.37.34c1.4.37,2.76.77,4.09,1.21q1,.33,1.95.69a53,53,0,0,1,8,3.71,35.91,35.91,0,0,1,8.18,6.32c.37.39.72.79,1.06,1.19s.65.8.95,1.21a20.28,20.28,0,0,1,1.94,3.17,17.58,17.58,0,0,1,1.44,4,15.25,15.25,0,0,1,.38,2.78C247.62,32.45,247.63,32.68,247.63,32.92Z"/></g></symbol></defs><g id="ShadowBase"><path class="cls-4" d="M2250.4,1866.57c14.09,8.13,14.16,21.32.17,29.45l-751.31,454.32c-19.12,16.83-154.54,27.44-183.61,0L330.53,1777c-14.09-8.14-14.17-21.33-.18-29.46l884.08-454.32c14-8.13,36.77-8.13,50.85,0Z"/></g><g id="Plant"><path class="cls-5" d="M1898.23,643q-374,362.31-310.26,973Q2091.72,1116.08,1898.23,643Z"/><path class="cls-6" d="M1578.49,1623.76l17,3.33q170-443.83,277.4-848.21Q1729.82,1214.39,1578.49,1623.76Z"/><path class="cls-7" d="M1898.23,643q-374,362.31-310.26,973Q2091.72,1116.08,1898.23,643Z"/><path class="cls-8" d="M1562,1607.82h0q381.84,37.2,482.81-451.39Q1737.54,1251.52,1562,1607.82Z"/><path class="cls-6" d="M1977,1238q-170.1,230.54-427.27,333.47l-2.62,17.23Q1811.4,1482.91,1977,1238Z"/></g><g id="Base"><g id="Base-2" data-name="Base"><path class="cls-9" d="M2081.86,1894.42c14.09,8.13,14.16,21.32.17,29.45l-715.54,426.47c-14,8.13-36.76,8.13-50.84,0L330.53,1777c-14.09-8.14-14.17-21.33-.18-29.46L1045.89,1321c14-8.13,36.77-8.13,50.85,0Z"/><path class="cls-10" d="M2081.86,1894.42c14.09,8.13,14.16,21.32.17,29.45l-715.54,426.47c-14,8.13-36.76,8.13-50.84,0L330.53,1777c-14.09-8.14-14.17-21.33-.18-29.46L1045.89,1321c14-8.13,36.77-8.13,50.85,0Z"/><path class="cls-11" d="M2081.86,1894.42c14.09,8.13,14.16,21.32.17,29.45l-715.54,426.47c-14,8.13-36.76,8.13-50.84,0L330.53,1777c-14.09-8.14-14.17-21.33-.18-29.46L1045.89,1321c14-8.13,36.77-8.13,50.85,0Z"/><path class="cls-12" d="M319.91,1684.73l-.21,74.38c0,5.36,3.52,10.74,10.61,14.83l985.12,573.37c14.09,8.14,36.85,8.14,50.85,0l715.54-426.46c6.95-4,10.43-9.33,10.45-14.63l.21-74.38C2092.46,1837.14,319.89,1690.09,319.91,1684.73Z"/><path class="cls-13" d="M2081.86,1817c14.09,8.14,14.16,21.32.17,29.45l-715.54,426.47c-14,8.13-36.76,8.13-50.84,0L330.53,1699.56c-14.09-8.13-14.17-21.32-.18-29.46l715.54-426.46c14-8.14,36.77-8.13,50.85,0Z"/><g class="cls-14"><path class="cls-15" d="M1071.28,1244.53h0c8.27,0,16.28,1.88,21.94,5.15l985.15,573.39c4.52,2.61,7.11,5.79,7.11,8.73s-2.53,6-7,8.62l0,0,0,0-715.51,426.45c-5.63,3.26-13.59,5.13-21.84,5.13s-16.27-1.88-21.94-5.15L334,1693.5c-4.52-2.61-7.11-5.79-7.12-8.73s2.54-6,7-8.62l0,0,0,0,715.51-426.45c5.63-3.26,13.59-5.13,21.84-5.13m0-7c-9.2,0-18.39,2-25.39,6.1L330.35,1670.1c-14,8.14-13.91,21.33.18,29.46l985.12,573.37c7,4.07,16.25,6.1,25.45,6.1s18.39-2,25.39-6.1L2082,1846.46c14-8.13,13.92-21.31-.17-29.45l-985.12-573.37c-7-4.07-16.26-6.1-25.46-6.1Z"/></g><path class="cls-15" d="M1071.28,1237.54v3.5c9,0,17.42,2,23.7,5.62L2080.11,1820c5.72,3.3,8.86,7.47,8.87,11.75s-3.09,8.38-8.74,11.67l-715.51,426.45c-6.24,3.63-14.63,5.62-23.63,5.62s-17.42-2-23.7-5.62L332.27,1696.53c-5.71-3.3-8.86-7.47-8.86-11.76s3.08-8.38,8.73-11.66l715.51-426.45c6.24-3.63,14.63-5.62,23.63-5.62v-3.5m0,0c-9.2,0-18.39,2-25.39,6.1L330.35,1670.1c-14,8.14-13.91,21.33.18,29.46l985.12,573.37c7,4.07,16.25,6.1,25.45,6.1s18.39-2,25.39-6.1L2082,1846.46c14-8.13,13.92-21.31-.17-29.45l-985.12-573.37c-7-4.07-16.26-6.1-25.46-6.1Z"/></g></g><g id="Smartphone"><g id="Dashbboard"><ellipse id="Shadow" class="cls-16" cx="1342.23" cy="1724.22" rx="47.18" ry="492.21" transform="translate(-822.1 2024.51) rotate(-60)"/><path class="cls-17" d="M1597.23,447l-459.6-265.35c-13.81-8-26.34-9-35.62-4.25v0l-.36.21q-.69.36-1.35.78l-32,18.46,533,1666.14,30.79-17.87v0c10.38-4.85,16.9-16.71,16.9-34.08V536.2C1649,503.45,1625.8,463.53,1597.23,447Z"/><path class="cls-18" d="M1564.15,1859.55l-459.6-265.35c-28.57-16.49-51.73-56.41-51.73-89.16V230.22c0-32.75,23.16-45.93,51.73-29.43l459.6,265.35c28.57,16.49,51.73,56.41,51.73,89.16V1830.12C1615.88,1862.87,1592.72,1876.05,1564.15,1859.55Z"/><path class="cls-19" d="M1546.48,1631.75l-424.27-245c-19.44-11.22-35.21-38.39-35.21-60.68V1026.9c0-22.29,15.77-31.26,35.21-20l424.27,244.95c19.45,11.23,35.21,38.4,35.21,60.69v299.2C1581.69,1634,1565.93,1643,1546.48,1631.75Z"/><path class="cls-20" d="M1145.28,1192.2v92.11c0,3.81-2.69,5.34-6,3.42a13.26,13.26,0,0,1-6-10.37v-92.11c0-3.82,2.7-5.35,6-3.43A13.25,13.25,0,0,1,1145.28,1192.2Zm59.63,73.58c-3.32-1.92-6-.39-6,3.42v46.06a13.28,13.28,0,0,0,6,10.38c3.33,1.92,6,.38,6-3.43v-46A13.24,13.24,0,0,0,1204.91,1265.78Zm65.65,21.26c-3.33-1.92-6-.38-6,3.43v62.69a13.25,13.25,0,0,0,6,10.38c3.32,1.92,6,.38,6-3.43v-62.69A13.28,13.28,0,0,0,1270.56,1287Zm65.65,64.74c-3.33-1.92-6-.39-6,3.42v35.86a13.25,13.25,0,0,0,6,10.38c3.32,1.92,6,.39,6-3.43v-35.86A13.26,13.26,0,0,0,1336.21,1351.78Zm65.65,50.62c-3.33-1.92-6-.39-6,3.42V1429a13.25,13.25,0,0,0,6,10.38c3.32,1.92,6,.39,6-3.42v-23.14A13.28,13.28,0,0,0,1401.86,1402.4Zm131.29,40.48c-3.32-1.92-6-.39-6,3.42v58.47a13.28,13.28,0,0,0,6,10.38c3.33,1.92,6,.38,6-3.43v-58.46A13.24,13.24,0,0,0,1533.15,1442.88Zm-59.62,30.94s0,0,0-.06v-14.2a13.24,13.24,0,0,0-6-10.38c-3.32-1.92-6-.39-6,3.42v14.27a11.3,11.3,0,0,0,1,4.38l0,0h0c.09.2.18.4.28.59s0,.11.07.16a13.22,13.22,0,0,0,4.06,4.83c.2.14.4.26.6.38a6.54,6.54,0,0,0,.59.3,4.28,4.28,0,0,0,3,.38,2.6,2.6,0,0,0,.62-.25,2.77,2.77,0,0,0,.55-.42,4.24,4.24,0,0,0,1.18-2.76A5.07,5.07,0,0,0,1473.53,1473.82Z"/><line class="cls-21" x1="1128.64" y1="1283.57" x2="1128.64" y2="1191.46"/><line class="cls-21" x1="1194.29" y1="1321.47" x2="1194.29" y2="1275.42"/><line class="cls-21" x1="1259.94" y1="1359.37" x2="1259.94" y2="1296.68"/><line class="cls-21" x1="1325.58" y1="1397.28" x2="1325.58" y2="1361.42"/><line class="cls-21" x1="1391.23" y1="1435.18" x2="1391.23" y2="1412.04"/><line class="cls-21" x1="1456.88" y1="1473.08" x2="1456.88" y2="1458.82"/><line class="cls-21" x1="1522.53" y1="1510.98" x2="1522.53" y2="1452.52"/><line class="cls-21" x1="1128.64" y1="1283.57" x2="1128.64" y2="1247.71"/><line class="cls-21" x1="1194.29" y1="1321.47" x2="1194.29" y2="1287.75"/><line class="cls-21" x1="1259.94" y1="1359.37" x2="1259.94" y2="1332.66"/><line class="cls-21" x1="1325.58" y1="1397.28" x2="1325.58" y2="1383.92"/><line class="cls-21" x1="1391.23" y1="1435.18" x2="1391.23" y2="1428.5"/><line class="cls-21" x1="1456.88" y1="1473.08" x2="1456.88" y2="1473.08"/><line class="cls-21" x1="1522.53" y1="1510.98" x2="1522.53" y2="1469.63"/><path class="cls-22" d="M1151.57,1364.24l-12.37-7.14c-4.55-2.63-8.24-9-8.24-14.21h0c0-5.22,3.69-7.32,8.24-4.69l12.37,7.14c4.55,2.63,8.24,9,8.24,14.21h0C1159.81,1364.77,1156.12,1366.87,1151.57,1364.24Z"/><path class="cls-22" d="M1220.32,1403.94l-45.08-26c-4.56-2.63-8.25-9-8.25-14.21h0c0-5.22,3.69-7.33,8.25-4.7l45.08,26c4.55,2.63,8.25,9,8.25,14.22h0C1228.57,1404.47,1224.87,1406.57,1220.32,1403.94Z"/><path class="cls-23" d="M1384.15,1257.12l-245-141.43c-4.55-2.63-8.24-9-8.24-14.21h0c0-5.22,3.69-7.32,8.24-4.69l245,141.42c4.56,2.63,8.25,9,8.25,14.21h0C1392.4,1257.64,1388.71,1259.74,1384.15,1257.12Z"/><path class="cls-24" d="M1266.86,1430.81h0c-4.55-2.63-8.24-9-8.24-14.21h0c0-5.22,3.69-7.32,8.24-4.69h0c4.56,2.62,8.25,9,8.25,14.21h0C1275.11,1431.34,1271.42,1433.44,1266.86,1430.81Z"/><path class="cls-24" d="M1321.12,1462.13l-30-17.31c-4.55-2.63-8.24-9-8.24-14.21h0c0-5.22,3.69-7.32,8.24-4.69l30,17.31c4.55,2.63,8.25,9,8.25,14.21h0C1329.37,1462.66,1325.67,1464.76,1321.12,1462.13Z"/><line class="cls-25" x1="1126.44" y1="1424.78" x2="1542.95" y2="1665.89"/><ellipse class="cls-20" cx="1538.74" cy="609.83" rx="34.94" ry="60.53" transform="translate(-97.21 861.37) rotate(-30.36)"/><ellipse class="cls-24" cx="1510.4" cy="626.42" rx="34.94" ry="60.53" transform="translate(-109.49 849.32) rotate(-30.36)"/><g class="cls-26"><path class="cls-27" d="M1419.11,525.54v5a16.43,16.43,0,0,1,7.89,2.51c11.19,6.46,20.64,22.74,20.64,35.55,0,3.41-.76,11.35-7.75,11.35a16.4,16.4,0,0,1-7.89-2.51c-11.19-6.46-20.64-22.74-20.64-35.56,0-3.41.76-11.34,7.75-11.34v-5m0,0c-7.56,0-12.75,6-12.75,16.34,0,14.65,10.36,32.51,23.14,39.89a21.1,21.1,0,0,0,10.39,3.18c7.56,0,12.75-6,12.75-16.35,0-14.65-10.36-32.5-23.14-39.88a21.1,21.1,0,0,0-10.39-3.18Z"/></g><ellipse class="cls-23" cx="1449.45" cy="543.52" rx="12.33" ry="21.36" transform="translate(-75.94 807.14) rotate(-30.36)"/><path class="cls-28" d="M1295.55,480.68l-160.7-92.78a8.29,8.29,0,0,1-3.76-6.49h0c0-2.39,1.68-3.35,3.76-2.14L1295.55,472a8.29,8.29,0,0,1,3.76,6.49h0C1299.31,480.92,1297.63,481.88,1295.55,480.68Z"/><path class="cls-23" d="M1330.93,637.36l-81.14-46.84c-10.35-6-18.74-1.21-18.74,10.66h0c0,11.86,8.39,26.32,18.74,32.3l81.14,46.84c10.35,6,18.74,1.21,18.74-10.66h0C1349.67,657.8,1341.28,643.34,1330.93,637.36Z"/><path class="cls-28" d="M1195,581.31l-61.53-35.52a5.34,5.34,0,0,1-2.41-4.17h0c0-1.53,1.08-2.15,2.41-1.38L1195,575.77a5.3,5.3,0,0,1,2.42,4.16h0C1197.45,581.47,1196.37,582.08,1195,581.31Z"/><path class="cls-28" d="M1264.7,378l-55.78-32.21a5.32,5.32,0,0,1-2.42-4.17h0c0-1.53,1.08-2.14,2.42-1.37l55.78,32.21a5.3,5.3,0,0,1,2.42,4.16h0C1267.12,378.12,1266,378.74,1264.7,378Z"/><path class="cls-28" d="M1362.24,434.28l-55.79-32.21a5.32,5.32,0,0,1-2.41-4.16h0c0-1.53,1.08-2.15,2.41-1.38l55.79,32.21a5.3,5.3,0,0,1,2.42,4.17h0C1364.66,434.44,1363.58,435.05,1362.24,434.28Z"/><path class="cls-29" d="M1362.24,448.87l-55.79-32.21a5.34,5.34,0,0,1-2.41-4.17v-3.71c0-1.53,1.08-2.15,2.41-1.38l55.79,32.21a5.32,5.32,0,0,1,2.42,4.17v3.71C1364.66,449,1363.58,449.64,1362.24,448.87Z"/><path class="cls-28" d="M1534.62,533.81l-55.78-32.21a5.32,5.32,0,0,1-2.42-4.17h0c0-1.53,1.08-2.14,2.42-1.37l55.78,32.2a5.32,5.32,0,0,1,2.42,4.17h0C1537,534,1536,534.58,1534.62,533.81Z"/><path class="cls-30" d="M1090.23,271.61l18.1-10.29c2.71-1.54,7.1,1,9.81,5.66l18.1,31.19c2.7,4.67,2.7,9.71,0,11.25l-18.1,10.3c-2.71,1.54-7.1-1-9.81-5.67l-18.1-31.19C1087.52,278.19,1087.52,273.16,1090.23,271.61Z"/><path class="cls-20" d="M1546.48,1218.26l-424.27-245c-19.44-11.23-35.21-38.4-35.21-60.69V613.41c0-22.29,15.77-31.26,35.21-20l424.27,245c19.45,11.23,35.21,38.4,35.21,60.69v299.21C1581.69,1220.52,1565.93,1229.49,1546.48,1218.26Z"/><path class="cls-31" d="M1527.74,1222,1103.47,977.09c-19.44-11.23-35.21-38.4-35.21-60.69V617.19c0-22.29,15.77-31.26,35.21-20l424.27,245c19.45,11.23,35.21,38.4,35.21,60.69V1202C1563,1224.3,1547.19,1233.27,1527.74,1222Z"/><path class="cls-20" d="M1255.9,1041.46l-112.28-64.82c-17.39-10-31.48-34.34-31.48-54.27h0c0-19.94,14.09-28,31.48-17.92l112.28,64.82c17.39,10,31.49,34.34,31.49,54.28h0C1287.39,1043.48,1273.29,1051.5,1255.9,1041.46Z"/><path class="cls-32" d="M1242,1046.71l-112.28-64.82c-17.39-10-31.48-34.34-31.48-54.28h0c0-19.93,14.09-28,31.48-17.92L1242,974.52c17.39,10,31.49,34.34,31.49,54.27h0C1273.51,1048.73,1259.41,1056.75,1242,1046.71Z"/><line class="cls-33" x1="1118.4" y1="909.6" x2="1247" y2="984.04"/><path class="cls-23" d="M1156.93,774.19l-22.69-13.1C1122,754,1112.14,737,1112.14,723h0c0-14,9.89-19.63,22.1-12.58l22.69,13.09c12.21,7,22.11,24.11,22.11,38.11h0C1179,775.61,1169.14,781.24,1156.93,774.19Z"/><path class="cls-28" d="M1170.55,881.59l-55.79-32.21a5.34,5.34,0,0,1-2.41-4.17h0c0-1.53,1.08-2.14,2.41-1.37l55.79,32.21a5.33,5.33,0,0,1,2.42,4.16h0C1173,881.74,1171.88,882.36,1170.55,881.59Z"/><path class="cls-28" d="M1212.2,879.26,1114.76,823a5.34,5.34,0,0,1-2.41-4.17h0c0-1.53,1.08-2.15,2.41-1.37l97.44,56.25a5.32,5.32,0,0,1,2.41,4.17h0C1214.61,879.42,1213.53,880,1212.2,879.26Z"/><path class="cls-28" d="M1212.2,727.18l-97.44-56.25a5.34,5.34,0,0,1-2.41-4.17h0c0-1.53,1.08-2.15,2.41-1.38l97.44,56.26a5.32,5.32,0,0,1,2.41,4.16h0C1214.61,727.33,1213.53,728,1212.2,727.18Z"/><ellipse class="cls-20" cx="1446.84" cy="953.43" rx="20.88" ry="36.17" transform="translate(-283.49 862.04) rotate(-30.36)"/><ellipse class="cls-22" cx="1436.65" cy="959.4" rx="20.88" ry="36.17" transform="translate(-287.9 857.71) rotate(-30.36)"/><g class="cls-34"><path class="cls-35" d="M1447,1032.92c-38.1-22-69.09-75.42-69.09-119.09s31-61.3,69.09-39.31,69.09,75.42,69.09,119.09S1485.11,1054.92,1447,1032.92Zm0-144.59c-31.46-18.17-57-3.6-57,32.46s25.59,80.17,57,98.33,57,3.6,57-32.46S1478.47,906.49,1447,888.33Z"/></g><g class="cls-36"><path class="cls-37" d="M1447,1032.92c-38.1-22-69.09-75.42-69.09-119.09s31-61.3,69.09-39.31a13.25,13.25,0,0,1,6,10.38c0,3.81-2.69,5.35-6,3.43-31.46-18.17-57-3.6-57,32.46s25.59,80.17,57,98.33c18.2,10.5,34.88,10.53,45.77.07,2-1.9,5.76-.36,8.42,3.46s3.22,8.46,1.23,10.37C1489.44,1045.49,1468.72,1045.46,1447,1032.92Z"/></g><line class="cls-38" x1="1097.96" y1="594.96" x2="1530" y2="843.51"/><path class="cls-19" d="M1412.8,656.71,1152.36,506.34c-11.87-6.85-21.48-23.43-21.48-37h0c0-13.6,9.61-19.07,21.48-12.22L1412.8,607.46c11.87,6.85,21.49,23.43,21.49,37h0C1434.29,658.09,1424.67,663.56,1412.8,656.71Z"/><path class="cls-39" d="M1634.38,724.72h0c-2.68,1.55-4.86-.09-4.86-3.68V654.79c0-3.58,2.18-7.75,4.86-9.3h0c2.69-1.55,4.87.1,4.87,3.68v66.26C1639.25,719,1637.07,723.17,1634.38,724.72Zm4.87,88.33V746.79c0-3.58-2.18-5.23-4.87-3.68h0c-2.68,1.55-4.86,5.72-4.86,9.3v66.25c0,3.59,2.18,5.23,4.86,3.68h0C1637.07,820.79,1639.25,816.63,1639.25,813.05Zm0,64.11V844.41c0-3.58-2.18-5.23-4.87-3.68h0c-2.68,1.55-4.86,5.71-4.86,9.3v32.75c0,3.58,2.18,5.23,4.86,3.68h0C1637.07,884.91,1639.25,880.75,1639.25,877.16Z"/><path class="cls-19" d="M1536.29,1806.6,1129,1571.47c-23.62-13.63-42.77-50.22-42.77-81.72V1458c0-31.5,19.15-46,42.77-32.33l407.25,235.12c23.63,13.64,42.78,50.23,42.78,81.73v31.77C1579.07,1805.76,1559.92,1820.24,1536.29,1806.6Z"/><ellipse class="cls-23" cx="1330.32" cy="1617.53" rx="28.45" ry="49.28" transform="translate(-635.12 894.22) rotate(-30.36)"/><path class="cls-40" d="M1249.88,1591.59l-9.7-5.61c-7.17-4.13-13-15.34-13-24.9v-6.25c0-9.55,5.86-14,13-9.85l9.7,5.6c7.17,4.14,13,15.35,13,24.9v6.25C1262.91,1591.29,1257.05,1595.72,1249.88,1591.59Z"/><path class="cls-40" d="M1188.76,1556.3l-48.1-27.77c-7.17-4.14-13-15.35-13-24.9v-6.25c0-9.56,5.86-14,13-9.86l48.1,27.78c7.17,4.14,13,15.34,13,24.9v6.25C1201.8,1556,1195.93,1560.44,1188.76,1556.3Z"/><path class="cls-40" d="M1411.24,1684.75l9.71,5.6c7.16,4.14,13-.3,13-9.85v-6.25c0-9.56-5.87-20.76-13-24.9l-9.71-5.61c-7.17-4.13-13,.3-13,9.86v6.25C1398.21,1669.4,1404.07,1680.61,1411.24,1684.75Z"/><path class="cls-40" d="M1472.36,1720l48.1,27.78c7.17,4.13,13-.3,13-9.86v-6.25c0-9.55-5.87-20.76-13-24.9l-48.1-27.77c-7.17-4.14-13,.3-13,9.85v6.25C1459.33,1704.69,1465.19,1715.9,1472.36,1720Z"/><line class="cls-25" x1="1126.44" y1="1424.78" x2="1542.95" y2="1665.89"/></g></g><g id="Clock"><g class="cls-41"><ellipse class="cls-42" cx="1028.46" cy="702.19" rx="206.92" ry="358.41" transform="translate(-213.87 616.12) rotate(-30.36)"/></g><path class="cls-43" d="M1230.19,827.65c.9-142.66-98.89-317.18-222.88-389.81-61-35.76-116.56-40.16-157.31-18.39l-43.63,23.72,309.05,555,43-23.83q4.54-2.25,8.86-4.91l0,0h0C1205.88,945.47,1229.76,896.59,1230.19,827.65Z"/><path class="cls-44" d="M905.41,407.22c31.62,0,65.74,10.59,101.39,31.48,30.23,17.7,59.51,41.69,87,71.31a537.31,537.31,0,0,1,118.38,207c11.48,38.61,17.19,75.82,17,110.59-.42,66.16-22.57,116.2-62.39,140.9l-.16.1c-2.72,1.68-5.63,3.29-8.69,4.81l-42.14,23.35L807.73,443.57l42.74-23.24c16.29-8.7,34.77-13.11,54.94-13.11m0-1c-20.44,0-39.11,4.52-55.41,13.23l-43.63,23.72,309.05,555,43-23.83q4.54-2.25,8.86-4.91l0,0h0c38.55-23.92,62.43-72.8,62.86-141.74.9-142.66-98.89-317.18-222.88-389.81-36.62-21.45-71.26-31.62-101.9-31.62Z"/><path class="cls-45" d="M961.19,463.25c-124-72.63-225.24-15.86-226.14,126.8s98.89,317.18,222.89,389.81,225.24,15.87,226.13-126.79S1085.18,535.88,961.19,463.25Zm-3.06,485.34c-109-63.84-196.69-217.24-195.9-342.62S852,430.69,961,494.53s196.69,217.23,195.9,342.62S1067.12,1012.43,958.13,948.59Z"/><path class="cls-46" d="M1168.52,844c-.84,132.78-95.07,185.61-210.47,118s-208.28-230-207.45-362.82,95.07-185.61,210.47-118S1169.36,711.18,1168.52,844Z"/><path class="cls-47" d="M977.56,569.3a15.88,15.88,0,0,1-7.22-12.44V515.65c0-4.57,3.23-6.41,7.22-4.1A15.9,15.9,0,0,1,984.77,524v41.2C984.77,569.76,981.54,571.6,977.56,569.3Z"/><path class="cls-47" d="M845.49,644.44l-35.94-20.75a15.88,15.88,0,0,1-7.22-12.44c0-4.57,3.23-6.41,7.22-4.11l35.94,20.76a15.88,15.88,0,0,1,7.22,12.44C852.71,644.91,849.48,646.75,845.49,644.44Z"/><path class="cls-47" d="M977.56,913.29a15.88,15.88,0,0,1-7.22-12.44V859.64c0-4.57,3.23-6.41,7.22-4.11A15.93,15.93,0,0,1,984.77,868v41.2C984.77,913.75,981.54,915.59,977.56,913.29Z"/><path class="cls-47" d="M1145.57,817.69l-36-20.75a15.88,15.88,0,0,1-7.22-12.44c0-4.57,3.23-6.41,7.22-4.11l36,20.75a15.92,15.92,0,0,1,7.21,12.45C1152.78,818.15,1149.55,820,1145.57,817.69Z"/><path class="cls-47" d="M893.55,505.4a10.89,10.89,0,0,1-1.41-1,14.18,14.18,0,0,1-1.35-1.25,16.28,16.28,0,0,1-1.25-1.48,18.24,18.24,0,0,1-1.09-1.66,18.56,18.56,0,0,1-.9-1.78,16.47,16.47,0,0,1-.66-1.81,11.2,11.2,0,0,1-.41-1.79,10.12,10.12,0,0,1-.15-1.7,7.56,7.56,0,0,1,.15-1.53,4.82,4.82,0,0,1,.41-1.3,4.14,4.14,0,0,1,.66-1.06,3.48,3.48,0,0,1,.9-.73,3.18,3.18,0,0,1,1.09-.4,4,4,0,0,1,1.25,0,5.7,5.7,0,0,1,1.35.31,9.33,9.33,0,0,1,2.82,1.63,12,12,0,0,1,1.35,1.25,16.53,16.53,0,0,1,1.25,1.48,17,17,0,0,1,1.1,1.66,17.23,17.23,0,0,1,.89,1.77,16,16,0,0,1,.67,1.82,15.15,15.15,0,0,1,.41,1.78,11.34,11.34,0,0,1,.14,1.7,8.37,8.37,0,0,1-.14,1.53,6.37,6.37,0,0,1-.41,1.32,4.42,4.42,0,0,1-.67,1,3.74,3.74,0,0,1-.89.75,3.42,3.42,0,0,1-1.1.38,4.31,4.31,0,0,1-1.25.05,6.24,6.24,0,0,1-1.35-.31A8.41,8.41,0,0,1,893.55,505.4Z"/><path class="cls-47" d="M832.06,540.39a10.33,10.33,0,0,1-1.42-1,13,13,0,0,1-1.34-1.25,15,15,0,0,1-1.25-1.48A16.45,16.45,0,0,1,827,535a17.23,17.23,0,0,1-.89-1.77,16.71,16.71,0,0,1-.67-1.82,13.16,13.16,0,0,1-.41-1.79,10,10,0,0,1-.14-1.69,7.6,7.6,0,0,1,.14-1.54,5.9,5.9,0,0,1,.41-1.31,4.42,4.42,0,0,1,.67-1,3.74,3.74,0,0,1,.89-.75,3.6,3.6,0,0,1,1.1-.39,4.69,4.69,0,0,1,1.25,0,6.25,6.25,0,0,1,1.34.3,9.81,9.81,0,0,1,2.83,1.63,17.38,17.38,0,0,1,1.35,1.25,18.13,18.13,0,0,1,1.24,1.49,17,17,0,0,1,1.1,1.66,17.23,17.23,0,0,1,.89,1.77,16.56,16.56,0,0,1,.67,1.81,13.65,13.65,0,0,1,.41,1.8,10.18,10.18,0,0,1,.15,1.69,7.59,7.59,0,0,1-.15,1.54,5.9,5.9,0,0,1-.41,1.31,4.42,4.42,0,0,1-.67,1,3.39,3.39,0,0,1-2,1.14,4.26,4.26,0,0,1-1.24,0,5.22,5.22,0,0,1-1.35-.3A8.06,8.06,0,0,1,832.06,540.39Z"/><path class="cls-47" d="M832.05,733a11.86,11.86,0,0,1-1.41-1,15.63,15.63,0,0,1-1.34-1.25,16.28,16.28,0,0,1-1.25-1.48,17.66,17.66,0,0,1-1.1-1.66,18.71,18.71,0,0,1-.9-1.79,17.73,17.73,0,0,1-.66-1.8,13.51,13.51,0,0,1-.41-1.79,10.21,10.21,0,0,1-.15-1.7A7.49,7.49,0,0,1,825,719a5.58,5.58,0,0,1,.41-1.31,4.58,4.58,0,0,1,.66-1.05,3.7,3.7,0,0,1,.9-.74,3.6,3.6,0,0,1,1.1-.39,4.31,4.31,0,0,1,1.25,0,6.25,6.25,0,0,1,1.34.3,9.81,9.81,0,0,1,2.83,1.63,17.38,17.38,0,0,1,1.35,1.25,18,18,0,0,1,1.24,1.48,18.5,18.5,0,0,1,1.1,1.67,17.23,17.23,0,0,1,.89,1.77,16,16,0,0,1,.67,1.82,12.7,12.7,0,0,1,.41,1.78,10.21,10.21,0,0,1,.15,1.7,7.59,7.59,0,0,1-.15,1.54,5.65,5.65,0,0,1-.41,1.3,4,4,0,0,1-.67,1,3.52,3.52,0,0,1-.89.75,3.69,3.69,0,0,1-1.1.39,4.25,4.25,0,0,1-1.24,0,5.67,5.67,0,0,1-1.35-.3A9.46,9.46,0,0,1,832.05,733Z"/><path class="cls-47" d="M893.55,839a11.86,11.86,0,0,1-1.41-1,17.38,17.38,0,0,1-1.35-1.25,15.15,15.15,0,0,1-1.25-1.49,16.81,16.81,0,0,1-1.09-1.65,17.46,17.46,0,0,1-.9-1.78,16.47,16.47,0,0,1-.66-1.81,11,11,0,0,1-.41-1.79,10.12,10.12,0,0,1-.15-1.7,7.49,7.49,0,0,1,.15-1.53,4.78,4.78,0,0,1,.41-1.31,4.26,4.26,0,0,1,.66-1.05,3.29,3.29,0,0,1,.9-.73,3.67,3.67,0,0,1,1.09-.41,4.7,4.7,0,0,1,1.25,0,5.67,5.67,0,0,1,1.35.3,9.77,9.77,0,0,1,2.82,1.63,13.19,13.19,0,0,1,1.35,1.26,16.38,16.38,0,0,1,1.25,1.47c.4.54.76,1.1,1.1,1.67a17.23,17.23,0,0,1,.89,1.77,16,16,0,0,1,.67,1.82,15.15,15.15,0,0,1,.41,1.78,11.32,11.32,0,0,1,.14,1.69,8.32,8.32,0,0,1-.14,1.54,6.28,6.28,0,0,1-.41,1.31,4.29,4.29,0,0,1-.67,1,3.48,3.48,0,0,1-.89.74,3.69,3.69,0,0,1-1.1.39,4.7,4.7,0,0,1-1.25.05,7.06,7.06,0,0,1-1.35-.31A8.48,8.48,0,0,1,893.55,839Z"/><path class="cls-47" d="M1061.56,936a11.1,11.1,0,0,1-1.41-1,14.18,14.18,0,0,1-1.35-1.25c-.43-.46-.85-1-1.25-1.48s-.76-1.09-1.1-1.66a17.38,17.38,0,0,1-.89-1.78,18.92,18.92,0,0,1-.67-1.81,17.64,17.64,0,0,1-.41-1.79,11.13,11.13,0,0,1-.14-1.7,8.37,8.37,0,0,1,.14-1.53,6.71,6.71,0,0,1,.41-1.31,4.6,4.6,0,0,1,.67-1.05,3.48,3.48,0,0,1,.89-.74,3.79,3.79,0,0,1,1.1-.39,4.33,4.33,0,0,1,1.25,0,5.7,5.7,0,0,1,1.35.31,9.73,9.73,0,0,1,2.82,1.62,13.19,13.19,0,0,1,1.35,1.26,16.14,16.14,0,0,1,1.25,1.47,19.9,19.9,0,0,1,1.09,1.67,15.49,15.49,0,0,1,.9,1.77,15.91,15.91,0,0,1,.66,1.82,12,12,0,0,1,.42,1.78,11.34,11.34,0,0,1,.14,1.7,8.21,8.21,0,0,1-.14,1.53,5.16,5.16,0,0,1-.42,1.31,4.26,4.26,0,0,1-.66,1,3.39,3.39,0,0,1-2,1.13,4,4,0,0,1-1.25,0,5.78,5.78,0,0,1-1.35-.3A8.93,8.93,0,0,1,1061.56,936Z"/><path class="cls-47" d="M1123.06,901a11.19,11.19,0,0,1-1.42-1,15.63,15.63,0,0,1-1.34-1.25,15.15,15.15,0,0,1-1.25-1.49,17,17,0,0,1-1.1-1.66,16.27,16.27,0,0,1-.89-1.77,16.56,16.56,0,0,1-.67-1.81,14.85,14.85,0,0,1-.41-1.79,11.23,11.23,0,0,1-.14-1.7A8.56,8.56,0,0,1,1116,887a6.19,6.19,0,0,1,.41-1.3,4,4,0,0,1,.67-1,3.32,3.32,0,0,1,.89-.75,3.69,3.69,0,0,1,1.1-.39,4.31,4.31,0,0,1,1.25,0,6.25,6.25,0,0,1,1.34.3,9.81,9.81,0,0,1,2.83,1.63,17.38,17.38,0,0,1,1.35,1.25,16.18,16.18,0,0,1,1.24,1.48,17.8,17.8,0,0,1,1.1,1.67,16.46,16.46,0,0,1,.9,1.78,16.89,16.89,0,0,1,.66,1.8,13.51,13.51,0,0,1,.41,1.79,10.21,10.21,0,0,1,.15,1.7,7.59,7.59,0,0,1-.15,1.54,5.65,5.65,0,0,1-.41,1.3,4.8,4.8,0,0,1-.66,1,3.94,3.94,0,0,1-.9.74,3.35,3.35,0,0,1-1.1.39,4.23,4.23,0,0,1-1.24,0,6.2,6.2,0,0,1-1.35-.3A8.93,8.93,0,0,1,1123.06,901Z"/><path class="cls-47" d="M1123.06,708.4A14.84,14.84,0,0,1,1118,703a15.41,15.41,0,0,1-.89-1.77,15.83,15.83,0,0,1-.67-1.81,14.85,14.85,0,0,1-.41-1.79,11.21,11.21,0,0,1-.14-1.69,8.4,8.4,0,0,1,.14-1.54,6.47,6.47,0,0,1,.41-1.31,4.22,4.22,0,0,1,.67-1,3.39,3.39,0,0,1,2-1.14,4.69,4.69,0,0,1,1.25,0,6.12,6.12,0,0,1,1.34.3,9.81,9.81,0,0,1,2.83,1.63,17.38,17.38,0,0,1,1.35,1.25,14.84,14.84,0,0,1,1.24,1.49,16.45,16.45,0,0,1,1.1,1.66,18.54,18.54,0,0,1,.9,1.78,17.73,17.73,0,0,1,.66,1.8,13.88,13.88,0,0,1,.41,1.79,10.3,10.3,0,0,1,.15,1.7,7.66,7.66,0,0,1-.15,1.54,5.9,5.9,0,0,1-.41,1.31,4.73,4.73,0,0,1-.66,1,3.7,3.7,0,0,1-.9.74,3.14,3.14,0,0,1-1.1.39,3.91,3.91,0,0,1-1.24,0,5.22,5.22,0,0,1-1.35-.3A8.06,8.06,0,0,1,1123.06,708.4Z"/><path class="cls-47" d="M1061.56,602.4a11.2,11.2,0,0,1-1.41-1,14.18,14.18,0,0,1-1.35-1.25,18.38,18.38,0,0,1-1.25-1.48,19.26,19.26,0,0,1-1.1-1.67,17.23,17.23,0,0,1-.89-1.77,18,18,0,0,1-.67-1.81,17.64,17.64,0,0,1-.41-1.79,11.11,11.11,0,0,1-.14-1.69,8.48,8.48,0,0,1,.14-1.54,7.17,7.17,0,0,1,.41-1.31,4.83,4.83,0,0,1,.67-1.05,3.65,3.65,0,0,1,.89-.73,3.54,3.54,0,0,1,1.1-.4,4.72,4.72,0,0,1,1.25,0,5.7,5.7,0,0,1,1.35.31,9.33,9.33,0,0,1,2.82,1.63,13.07,13.07,0,0,1,1.35,1.25,15,15,0,0,1,1.25,1.48,17,17,0,0,1,1.09,1.66,15.49,15.49,0,0,1,.9,1.77,16.47,16.47,0,0,1,.66,1.81,12.46,12.46,0,0,1,.42,1.79,11.45,11.45,0,0,1,.14,1.7,8.21,8.21,0,0,1-.14,1.53,5.37,5.37,0,0,1-.42,1.32,4.39,4.39,0,0,1-.66,1,3.36,3.36,0,0,1-.9.74,3.65,3.65,0,0,1-1.09.4,4.69,4.69,0,0,1-1.25,0,6.38,6.38,0,0,1-1.35-.31A8.06,8.06,0,0,1,1061.56,602.4Z"/><path class="cls-47" d="M977.55,722.27a17.49,17.49,0,0,1-5.91-6.12l-88.36-147c-3.44-5.73-3.59-12.05-.32-14.11s8.7.91,12.15,6.64l88.36,147c3.44,5.73,3.59,12.05.32,14.11C982.1,723.86,979.83,723.58,977.55,722.27Z"/><path class="cls-47" d="M1054,776.15c-.31-.18-.62-.37-.94-.59l-76.45-52.3c-5.48-3.75-9.51-11.64-9-17.63s5.37-7.8,10.85-4.06l76.45,52.3c5.48,3.75,9.51,11.65,9,17.64C1063.45,777.15,1059.11,779.09,1054,776.15Z"/><ellipse class="cls-47" cx="977.56" cy="712.42" rx="13.42" ry="23.25" transform="translate(-226.02 591.79) rotate(-30.36)"/><path class="cls-45" d="M961.19,463.26c-124-72.64-225.24-15.87-226.14,126.79s98.89,317.17,222.89,389.81,225.24,15.86,226.14-126.79S1085.18,535.89,961.19,463.26Zm-3.06,485.33c-109-63.84-196.68-217.23-195.9-342.62S852,430.69,961,494.53s196.69,217.23,195.9,342.62S1067.11,1012.42,958.13,948.59Z"/><path class="cls-44" d="M859.28,432.64c31.63,0,65.74,10.59,101.4,31.48,30.23,17.7,59.51,41.69,87,71.31a537.5,537.5,0,0,1,118.39,207c11.48,38.61,17.19,75.82,17,110.59-.31,48.34-12.31,88.55-34.71,116.28-21.73,26.91-52.35,41.13-88.53,41.13-31.63,0-65.74-10.59-101.4-31.48-30.22-17.7-59.51-41.69-87-71.3A537.64,537.64,0,0,1,753,700.64c-11.48-38.61-17.18-75.82-17-110.59.31-48.34,12.31-88.55,34.71-116.28,21.73-26.9,52.34-41.13,88.52-41.13M1047.7,977.37c67.42,0,109.64-53.73,110.19-140.22.79-125.5-87.31-279.59-196.39-343.49-31.64-18.53-61.94-27.92-90.07-27.92-67.43,0-109.65,53.74-110.2,140.22-.78,125.51,87.32,279.59,196.4,343.49,31.63,18.53,61.93,27.92,90.07,27.92M859.28,431.64c-73.14,0-123.59,57.87-124.23,158.41-.89,142.65,98.89,317.17,222.89,389.81,36.61,21.44,71.25,31.61,101.9,31.61,73.15,0,123.61-57.87,124.24-158.4.9-142.66-98.9-317.18-222.89-389.81-36.62-21.45-71.26-31.62-101.91-31.62ZM1047.7,976.37c-27,0-57.38-8.93-89.57-27.78-109-63.84-196.68-217.23-195.9-342.62.56-88.36,44.92-139.22,109.2-139.23,26.94,0,57.37,8.93,89.56,27.79,109,63.83,196.69,217.23,195.9,342.62-.56,88.35-44.92,139.22-109.19,139.22Z"/><path class="cls-48" d="M976.05,939.34c-109-63.83-196.68-217.23-195.9-342.62.38-59.22,20.43-101.58,53-123.09-43,16.63-70.44,62.9-70.88,132.34-.78,125.39,86.92,278.78,195.9,342.62,57.51,33.68,109.45,35.69,145.8,11.65C1069.32,973.65,1024.68,967.83,976.05,939.34Z"/><ellipse class="cls-49" cx="961.33" cy="434.84" rx="16.76" ry="29.03" transform="translate(514.42 1390.62) rotate(-89.28)"/><path class="cls-50" d="M988.58,434.44v-.58l.12-19.68-54.4-.34-.12,19.3a8.81,8.81,0,0,0,0,.89v.07h0c.19,3.87,2.84,7.73,8,10.73,10.63,6.23,27.86,6.37,38.49.32,5.16-2.94,7.81-6.8,8-10.71Z"/><path class="cls-45" d="M999.91,409.74c0-.27,0-.54,0-.82l.18-27.77-76.76-.48-.17,27.24c0,.41,0,.83,0,1.24v.11h0c.27,5.46,4,10.91,11.22,15.14,15,8.78,39.3,9,54.3.45,7.29-4.15,11-9.59,11.23-15.11Z"/><ellipse class="cls-51" cx="961.7" cy="380.91" rx="22.17" ry="38.4" transform="translate(568.72 1337.75) rotate(-89.28)"/><path class="cls-52" d="M988.61,428.5l0-3.63,0,0c7.29-4.15,11-9.59,11.23-15.11h0c0-.27,0-.54,0-.82l.17-27.21c.22-5.83-3.52-11.73-11.22-16.25-15-8.78-39.31-9-54.31-.45-7.73,4.4-11.46,10.26-11.22,16.11l-.17,26.79"/></g><g id="Man"><g id="Woman"><polygon class="cls-53" points="1049.28 895.69 1049.28 914.62 1033.77 899.97 1033.77 878.5 1049.28 895.69"/><use width="269.17" height="74.14" transform="translate(789.4 1781.58) scale(0.66 0.45)" xlink:href="#shadowsvgdark"/><g id="WOMAN-2" data-name="WOMAN"><g id="Layer1_17_FILL" data-name="Layer1 17 FILL"><path class="cls-54" d="M694.56,1527.79l23.76-5.78,6.52,20.5q-20.4,32.81-39.42,52.65a3.66,3.66,0,0,1-4.84.28c-1.55-1-2.33-2.17-2.33-3.35q.84-16.12,7.36-40.54Q691.85,1528.45,694.56,1527.79Z"/></g><g id="Layer1_18_FILL" data-name="Layer1 18 FILL"><path class="cls-55" d="M710,1523.78q136.08-35.83,159.44-21.43-112.82-86.64-146-192.33l132.6,45.1q51.69,62.73,78.37,156.74-36.87,50.34-214.88,42.49-7.37-3.54-10-15Q707.33,1529.29,710,1523.78Z"/></g><g id="Layer1_18_FILL-2" data-name="Layer1 18 FILL"><path class="cls-56" d="M710,1523.78q136.08-35.83,159.44-21.43-112.82-86.64-146-192.33l132.6,45.1q51.69,62.73,78.37,156.74-36.87,50.34-214.88,42.49-7.37-3.54-10-15Q707.33,1529.29,710,1523.78Z"/></g><g id="Layer1_19_FILL" data-name="Layer1 19 FILL"><path class="cls-57" d="M714,1330.52c.2,1,.42,2.06.65,3.08a9.44,9.44,0,0,0,.28,1q.78,3.63,1.59,7.27a42.66,42.66,0,0,1-5.78,21.25l-6.34,12.95a3.78,3.78,0,0,1-5.12,0L693,1369a9.22,9.22,0,0,1,0-5.69l7.83-18.07c-.62-1-1.21-2.06-1.77-3.08a.7.7,0,0,1-.19-.28,1.05,1.05,0,0,1-.18-.37l-2.15-3.54a6.36,6.36,0,0,0,.84.28q5.86,1.4,11.65-2.8A25.39,25.39,0,0,0,714,1330.52Z"/><path class="cls-58" d="M758.76,1107.16v51.07Q719.67,1189,684.68,1232q15.83,40.59,29.35,98.49a25.39,25.39,0,0,1-5,4.94q-5.78,4.2-11.65,2.8a6.36,6.36,0,0,1-.84-.28q-44.55-75.7-55.26-123.84Q709.92,1116.28,758.76,1107.16Z"/></g><g id="Layer1_20_FILL" data-name="Layer1 20 FILL"><path class="cls-54" d="M769.75,1754.51l5.5-23.3,30.38,17.43a301.62,301.62,0,0,1,18,47.43,3.77,3.77,0,0,1-2.23,4.37q-2.52,1.3-4,.38-13.61-8.76-31.4-26.65Q769,1757.21,769.75,1754.51Z"/></g><g id="Layer1_21_FILL" data-name="Layer1 21 FILL"><path class="cls-59" d="M767.24,1323.72l111.17,23q4.56,86.65,0,182.45-33,123.4-72.78,219.45a50.62,50.62,0,0,1-27,3.82q-13.9-1.76-6.06-9.6l34.38-203.33Q772.06,1413.85,767.24,1323.72Z"/></g><g id="Layer1_21_FILL-2" data-name="Layer1 21 FILL"><path class="cls-60" d="M767.24,1323.72l111.17,23q4.56,86.65,0,182.45-33,123.4-72.78,219.45a50.62,50.62,0,0,1-27,3.82q-13.9-1.76-6.06-9.6l34.38-203.33Q772.06,1413.85,767.24,1323.72Z"/></g><g id="Layer1_22_FILL" data-name="Layer1 22 FILL"><path class="cls-61" d="M733.51,1134.75h25.25l-23.67,43.51-14.54,14Q722.34,1151.56,733.51,1134.75Z"/></g><g id="Layer1_23_FILL" data-name="Layer1 23 FILL"><path class="cls-58" d="M733.51,1134.75q.65-32.89,37.46-26.56l75.85,25.9q45.28,58.07,40.62,82.28-4.74,24-9,92.54v37.83q3,17.52.83,18.63T858.37,1369q-18.66,2.57-76.5-11.37t-64.3-36.81L749.16,1263Q725.78,1184.69,733.51,1134.75Z"/></g><g id="Layer1_24_FILL" data-name="Layer1 24 FILL"><path class="cls-57" d="M1045.26,911.65c.2-.33.4-.65.58-1l-6.74,28.71c-.26,1.45-.5,2.89-.73,4.33l-.41,2c-.11.56-.2,1.12-.28,1.7l-.08,0a5.32,5.32,0,0,1-.89.45,11.62,11.62,0,0,1-9.25-.68,28.37,28.37,0,0,1-7.64-5.76,52.83,52.83,0,0,1-4.4-5.07l2.59-6.49a1.22,1.22,0,0,0,.14.16,1.68,1.68,0,0,1-.07-.33l2.8-7,6.54-29.19,6-15.15q2.87,3.23.23,10.23l-1.41,6q6.56-11.64,11.7-13.48,3.77,5.39,5.29,15.15Q1046.76,906.85,1045.26,911.65Z"/><path class="cls-58" d="M1018.08,929.7a1.68,1.68,0,0,0,.07.33,1.22,1.22,0,0,1-.14-.16l.07-.17m1.74,11.73a28.37,28.37,0,0,0,7.64,5.76,11.62,11.62,0,0,0,9.25.68,5.32,5.32,0,0,0,.89-.45q-11.05,57-36.1,116.53c-57.85,59.19-99.2,83.88-113.07,111.83l-1.35,29.51q-38.45,1.28-54.49-62.67L973.16,1042.2l42.26-105.84A52.83,52.83,0,0,0,1019.82,941.43Z"/></g><g id="HEAD_0_Layer0_0_MEMBER_0_MEMBER_0_FILL" data-name="HEAD 0 Layer0 0 MEMBER 0 MEMBER 0 FILL"><path class="cls-57" d="M772.17,1041.18q28.58-24.33,52.69-8.25,7.07,5.55,8.86,23l6.39,6.07q4.25,7.79,2,29.69-3.4,4.1-16.46,7.53a179.5,179.5,0,0,1,2.61,44l-34.17,4.29,1.48-47.37Q757.52,1075.31,772.17,1041.18Z"/></g><g id="HEAD_0_Layer0_0_MEMBER_0_MEMBER_1_FILL" data-name="HEAD 0 Layer0 0 MEMBER 0 MEMBER 1 FILL"><path class="cls-62" d="M821.08,1095.9q11.43.54,19.53-2.66-4.32,3.24-14.91,6a1.55,1.55,0,0,0,.13.37A16.86,16.86,0,0,1,821.08,1095.9Z"/></g><g id="HEAD_0_Layer0_1_FILL" data-name="HEAD 0 Layer0 1 FILL"><path class="cls-63" d="M836.29,1044.27q-1.65,2.58-5.41-1.59,2.63,7.69-.74,12.12-1.68.48-7.92,10.8l1.67,2.52q33,47.34,23.58,75.39t-39.42,64.57q21.93,27.43,11,55.54-12.28,31.32-66.26,13.32T714,1237.62q11.93-11.85,23.86-11-26-86.68,33.08-104.45,18.42-5.55,2.42-35t.37-47.89q31.35-28.23,60.76-1Q837.74,1042,836.29,1044.27Z"/></g><g id="HEAD_0_Layer0_1_FILL-2" data-name="HEAD 0 Layer0 1 FILL"><path class="cls-64" d="M836.29,1044.27q-1.65,2.58-5.41-1.59,2.63,7.69-.74,12.12-1.68.48-7.92,10.8l1.67,2.52q33,47.34,23.58,75.39t-39.42,64.57q21.93,27.43,11,55.54-12.28,31.32-66.26,13.32T714,1237.62q11.93-11.85,23.86-11-26-86.68,33.08-104.45,18.42-5.55,2.42-35t.37-47.89q31.35-28.23,60.76-1Q837.74,1042,836.29,1044.27Z"/></g><path id="Layer1_26_1_STROKES" data-name="Layer1 26 1 STROKES" class="cls-65" d="M694.56,1527.79q-10.68,45.11-10.35,68.21"/><path id="Layer1_27_1_STROKES" data-name="Layer1 27 1 STROKES" class="cls-65" d="M823.61,1796.07q.6,5.51-53.86-41.56"/><path id="Layer1_28_1_STROKES" data-name="Layer1 28 1 STROKES" class="cls-65" d="M705.92,1570.66l-9.31-6.62"/><path id="Layer1_29_1_STROKES" data-name="Layer1 29 1 STROKES" class="cls-65" d="M710.4,1565.34l-9.32-6.61"/><path id="Layer1_30_1_STROKES" data-name="Layer1 30 1 STROKES" class="cls-65" d="M814.67,1769.6l-7.46,4"/><path id="Layer1_31_1_STROKES" data-name="Layer1 31 1 STROKES" class="cls-65" d="M813.27,1763.64l-7.45,4"/></g><ellipse class="cls-66" cx="700.01" cy="1706.2" rx="39.55" ry="22.83" transform="translate(-10.72 4.44) rotate(-0.36)"/></g></g></svg>