<?xml version="1.0" encoding="UTF-8"?><svg id="Art" xmlns="http://www.w3.org/2000/svg" xmlns:xlink="http://www.w3.org/1999/xlink" viewBox="0 0 1450 1450"><defs><style>.cls-1{opacity:.18;}.cls-2{fill:url(#linear-gradient);}.cls-2,.cls-3,.cls-4,.cls-5,.cls-6,.cls-7,.cls-8,.cls-9,.cls-10{stroke-width:0px;}.cls-3{fill:#5d7586;}.cls-11{filter:url(#AI_DesenfoqueGaussiano_7);opacity:.06;}.cls-12{filter:url(#AI_DesenfoqueGaussiano_7-3);}.cls-12,.cls-13{opacity:.2;}.cls-14{opacity:.04;}.cls-15{opacity:.9;stroke:#fff;}.cls-15,.cls-16,.cls-6,.cls-17,.cls-18,.cls-19{fill:none;}.cls-15,.cls-16,.cls-17,.cls-18,.cls-19{stroke-miterlimit:10;}.cls-15,.cls-16,.cls-18,.cls-19{stroke-width:10px;}.cls-16{stroke:url(#linear-gradient-3);}.cls-16,.cls-18,.cls-19{opacity:.69;}.cls-20{opacity:.08;}.cls-4{fill:#e9faff;}.cls-5{fill:url(#linear-gradient-5);}.cls-21{opacity:.15;}.cls-22{opacity:.19;}.cls-7{fill:#fff;}.cls-8{fill:url(#Degradado_sin_nombre_4);}.cls-23{clip-path:url(#clippath);}.cls-17{stroke:#39c2ec;stroke-dasharray:0 0 15.02 25.03;stroke-linecap:round;stroke-width:7px;}.cls-9{fill:url(#radial-gradient);}.cls-10{fill:#005584;}.cls-24{opacity:.41;}.cls-13{filter:url(#AI_DesenfoqueGaussiano_7-2);}.cls-18{stroke:url(#linear-gradient-2);}.cls-19{stroke:url(#linear-gradient-4);}.cls-25{opacity:.25;}</style><filter id="AI_DesenfoqueGaussiano_7"><feGaussianBlur stdDeviation="7"/></filter><radialGradient id="radial-gradient" cx="896.83" cy="633.9" fx="998.8" fy="633.9" r="454.34" gradientTransform="translate(0 133.56) scale(1 .79)" gradientUnits="userSpaceOnUse"><stop offset="0" stop-color="#c2f1ff"/><stop offset=".55" stop-color="#c0f0ff"/><stop offset=".75" stop-color="#b9eeff"/><stop offset=".89" stop-color="#adebff"/><stop offset=".92" stop-color="#abebff"/></radialGradient><linearGradient id="linear-gradient" x1="951.17" y1="554.69" x2="1033.89" y2="733.93" gradientUnits="userSpaceOnUse"><stop offset="0" stop-color="#adf0ff"/><stop offset=".96" stop-color="#91e5ff"/></linearGradient><filter id="AI_DesenfoqueGaussiano_7-2"><feGaussianBlur stdDeviation="7"/></filter><linearGradient id="Degradado_sin_nombre_4" x1="855.32" y1="981.92" x2="860.43" y2="665.32" gradientUnits="userSpaceOnUse"><stop offset="0" stop-color="#58d1ed"/><stop offset="1" stop-color="#91e5ff"/></linearGradient><clipPath id="clippath"><polygon class="cls-6" points="471.82 760.18 471.72 832.37 1241.95 949.24 1241.88 844.18 1291.31 660.02 686.2 547.51 476.33 645.65 471.82 760.18"/></clipPath><linearGradient id="linear-gradient-2" x1="596.01" y1="676.03" x2="1073.66" y2="1153.68" gradientUnits="userSpaceOnUse"><stop offset="0" stop-color="#edfbff"/><stop offset=".1" stop-color="#e7f9ff"/><stop offset=".22" stop-color="#d8f6ff"/><stop offset=".35" stop-color="#beefff"/><stop offset=".49" stop-color="#9be7ff"/><stop offset=".53" stop-color="#91e5ff"/><stop offset=".62" stop-color="#7fdaf9"/><stop offset=".81" stop-color="#52c0ec"/><stop offset="1" stop-color="#1da1dc"/></linearGradient><linearGradient id="linear-gradient-3" x1="532.78" y1="398.48" x2="1180.86" y2="1046.56" gradientUnits="userSpaceOnUse"><stop offset="0" stop-color="#edfbff"/><stop offset=".1" stop-color="#e7f9ff"/><stop offset=".22" stop-color="#d8f6ff"/><stop offset=".35" stop-color="#beefff"/><stop offset=".49" stop-color="#9be7ff"/><stop offset=".53" stop-color="#91e5ff"/><stop offset=".62" stop-color="#7fdaf9"/><stop offset=".81" stop-color="#52c0ec"/><stop offset="1" stop-color="#1da1dc"/></linearGradient><linearGradient id="linear-gradient-4" x1="926.24" y1="573.35" x2="1050.83" y2="697.94" gradientTransform="translate(1457.63 -441.94) rotate(80.78)" gradientUnits="userSpaceOnUse"><stop offset="0" stop-color="#edfbff"/><stop offset=".1" stop-color="#e7f9ff"/><stop offset=".22" stop-color="#d8f6ff"/><stop offset=".35" stop-color="#beefff"/><stop offset=".49" stop-color="#9be7ff"/><stop offset=".53" stop-color="#91e5ff"/><stop offset=".62" stop-color="#7fdaf9"/><stop offset=".81" stop-color="#52c0ec"/><stop offset="1" stop-color="#1da1dc"/></linearGradient><filter id="AI_DesenfoqueGaussiano_7-3"><feGaussianBlur stdDeviation="7"/></filter><linearGradient id="linear-gradient-5" x1="609.68" y1="959.38" x2="1074.51" y2="1219.26" gradientUnits="userSpaceOnUse"><stop offset="0" stop-color="#e9faff"/><stop offset="1" stop-color="#d3f5ff"/></linearGradient></defs><rect class="cls-4" x="198.08" y="195.71" width="790.21" height="526.81" rx="17.78" ry="17.78"/><rect class="cls-17" x="198.08" y="195.71" width="790.21" height="526.81" rx="17.78" ry="17.78"/><g class="cls-11"><rect class="cls-10" x="395.8" y="388.68" width="790.21" height="526.81" rx="47.96" ry="47.96"/></g><rect class="cls-9" x="461.71" y="459.12" width="790.21" height="526.81" rx="17.78" ry="17.78"/><circle class="cls-2" cx="988.53" cy="635.65" r="88.14"/><g class="cls-13"><path class="cls-3" d="m1251.92,891.82l-100.52-68.36c-18.3-12.45-42.34-12.49-60.69-.12l-68.18,45.96c-19.69,13.28-45.74,12.16-64.23-2.75l-259.08-208.92c-20.36-16.42-49.54-15.93-69.34,1.15l-168.16,145.09v157.74c0,9.82,7.96,17.78,17.78,17.78h754.65c9.82,0,17.78-7.96,17.78-17.78v-69.8Z"/></g><path class="cls-8" d="m1251.92,898.27l-100.52-68.36c-18.3-12.45-42.34-12.49-60.69-.12l-68.18,45.96c-19.69,13.28-45.74,12.16-64.23-2.75l-259.08-208.92c-20.36-16.42-49.54-15.93-69.34,1.15l-168.16,145.09v157.74c0,9.82,7.96,17.78,17.78,17.78h754.65c9.82,0,17.78-7.96,17.78-17.78v-69.8Z"/><g class="cls-23"><g class="cls-25"><path class="cls-10" d="m665.24,652.09c12.01,0,24.05,3.99,33.97,11.99l259.08,208.92c9.88,7.97,21.91,11.99,33.98,11.99,10.52,0,21.08-3.06,30.25-9.25l68.18-45.96c9.15-6.16,19.7-9.25,30.26-9.25s21.25,3.12,30.44,9.37l100.52,68.36v69.8c0,9.82-7.96,17.78-17.78,17.78H479.49c-9.82,0-17.78-7.96-17.78-17.78v-157.74l168.16-145.09c10.14-8.75,22.74-13.15,35.36-13.15m0-4v4s0-4,0-4c-13.94,0-27.42,5.01-37.98,14.12l-168.16,145.09-1.39,1.2v159.57c0,12.01,9.77,21.78,21.78,21.78h754.65c12.01,0,21.78-9.77,21.78-21.78v-71.91l-1.75-1.19-100.52-68.36c-9.68-6.58-20.98-10.06-32.69-10.06s-22.86,3.43-32.49,9.93l-68.18,45.96c-8.31,5.6-18,8.56-28.01,8.56-11.41,0-22.59-3.94-31.47-11.11l-259.08-208.92c-10.3-8.3-23.26-12.88-36.49-12.88h0Z"/></g><g class="cls-14"><path class="cls-10" d="m665.24,652.09c12.01,0,24.05,3.99,33.97,11.99l259.08,208.92c9.88,7.97,21.91,11.99,33.98,11.99,10.52,0,21.08-3.06,30.25-9.25l68.18-45.96c9.15-6.16,19.7-9.25,30.26-9.25s21.25,3.12,30.44,9.37l100.52,68.36v69.8c0,9.82-7.96,17.78-17.78,17.78H479.49c-9.82,0-17.78-7.96-17.78-17.78v-157.74l168.16-145.09c10.14-8.75,22.74-13.15,35.36-13.15m0-32h0c-20.65,0-40.63,7.43-56.27,20.92l-168.16,145.09-11.1,9.57v172.39c0,27.45,22.33,49.78,49.78,49.78h754.65c27.45,0,49.78-22.33,49.78-49.78v-86.73l-14.01-9.52-100.52-68.36c-14.34-9.75-31.09-14.91-48.43-14.91s-33.87,5.09-48.14,14.71l-68.18,45.96c-3.67,2.47-7.94,3.78-12.36,3.78-5.04,0-9.98-1.74-13.9-4.9l-259.08-208.92c-15.26-12.31-34.46-19.08-54.06-19.08h0Z"/></g><g class="cls-14"><path class="cls-10" d="m665.24,652.09c12.01,0,24.05,3.99,33.97,11.99l259.08,208.92c9.88,7.97,21.91,11.99,33.98,11.99,10.52,0,21.08-3.06,30.25-9.25l68.18-45.96c9.15-6.16,19.7-9.25,30.26-9.25s21.25,3.12,30.44,9.37l100.52,68.36v69.8c0,9.82-7.96,17.78-17.78,17.78H479.49c-9.82,0-17.78-7.96-17.78-17.78v-157.74l168.16-145.09c10.14-8.75,22.74-13.15,35.36-13.15m0-16h0c-16.81,0-33.09,6.05-45.82,17.03l-168.16,145.09-5.55,4.79v165.06c0,18.63,15.15,33.78,33.78,33.78h754.65c18.63,0,33.78-15.15,33.78-33.78v-78.27l-7-4.76-100.52-68.36c-11.68-7.94-25.31-12.14-39.43-12.14s-27.57,4.14-39.2,11.98l-68.18,45.96c-6.32,4.26-13.69,6.51-21.31,6.51-8.68,0-17.18-3-23.94-8.45l-259.08-208.92c-12.42-10.02-28.06-15.54-44.02-15.54h0Z"/></g><path class="cls-18" d="m479.49,980.84c-7.05,0-12.78-5.73-12.78-12.78v-155.45l166.43-143.6c8.92-7.69,20.32-11.93,32.1-11.93s22.13,3.87,30.84,10.88l259.08,208.92c10.48,8.45,23.66,13.1,37.12,13.1,11.82,0,23.24-3.49,33.04-10.1l68.18-45.96c8.14-5.49,17.64-8.39,27.46-8.39s19.45,2.94,27.63,8.5l98.34,66.87v67.15c0,7.05-5.73,12.78-12.78,12.78H479.49Z"/></g><g class="cls-24"><path class="cls-10" d="m1234.14,459.12c9.82,0,17.78,7.96,17.78,17.78v491.25c0,9.82-7.96,17.78-17.78,17.78H479.49c-9.82,0-17.78-7.96-17.78-17.78v-491.25c0-9.82,7.96-17.78,17.78-17.78h754.65m0-2H479.49c-10.91,0-19.78,8.87-19.78,19.78v491.25c0,10.91,8.87,19.78,19.78,19.78h754.65c10.91,0,19.78-8.87,19.78-19.78v-491.25c0-10.91-8.87-19.78-19.78-19.78h0Z"/></g><g class="cls-1"><path class="cls-10" d="m1234.14,459.12c9.82,0,17.78,7.96,17.78,17.78v491.25c0,9.82-7.96,17.78-17.78,17.78H479.49c-9.82,0-17.78-7.96-17.78-17.78v-491.25c0-9.82,7.96-17.78,17.78-17.78h754.65m0-7H479.49c-13.66,0-24.78,11.12-24.78,24.78v491.25c0,13.66,11.12,24.78,24.78,24.78h754.65c13.66,0,24.78-11.12,24.78-24.78v-491.25c0-13.66-11.12-24.78-24.78-24.78h0Z"/></g><g class="cls-20"><path class="cls-10" d="m1234.14,459.12c9.82,0,17.78,7.96,17.78,17.78v491.25c0,9.82-7.96,17.78-17.78,17.78H479.49c-9.82,0-17.78-7.96-17.78-17.78v-491.25c0-9.82,7.96-17.78,17.78-17.78h754.65m0-16H479.49c-18.63,0-33.78,15.15-33.78,33.78v491.25c0,18.63,15.15,33.78,33.78,33.78h754.65c18.63,0,33.78-15.15,33.78-33.78v-491.25c0-18.63-15.15-33.78-33.78-33.78h0Z"/></g><path class="cls-16" d="m479.49,464.12h754.65c7.05,0,12.78,5.73,12.78,12.78v491.25c0,7.05-5.73,12.78-12.78,12.78H479.49c-7.05,0-12.78-5.73-12.78-12.78v-491.25c0-7.05,5.73-12.78,12.78-12.78Z"/><g class="cls-25"><path class="cls-10" d="m988.53,547.51c48.68,0,88.13,39.46,88.13,88.14s-39.46,88.14-88.13,88.14-88.14-39.46-88.14-88.14,39.46-88.14,88.14-88.14m0-4c-50.8,0-92.14,41.33-92.14,92.14s41.33,92.14,92.14,92.14,92.13-41.33,92.13-92.14-41.33-92.14-92.13-92.14h0Z"/></g><g class="cls-22"><path class="cls-7" d="m988.53,547.51c48.68,0,88.13,39.46,88.13,88.14s-39.46,88.14-88.13,88.14-88.14-39.46-88.14-88.14,39.46-88.14,88.14-88.14m0-32c-32.09,0-62.26,12.5-84.95,35.19-22.69,22.69-35.19,52.86-35.19,84.95s12.5,62.26,35.19,84.95c22.69,22.69,52.86,35.19,84.95,35.19s62.26-12.5,84.95-35.19c22.69-22.69,35.19-52.86,35.19-84.95s-12.5-62.26-35.19-84.95c-22.69-22.69-52.86-35.19-84.95-35.19h0Z"/></g><g class="cls-1"><path class="cls-7" d="m988.53,547.51c48.68,0,88.13,39.46,88.13,88.14s-39.46,88.14-88.13,88.14-88.14-39.46-88.14-88.14,39.46-88.14,88.14-88.14m0-16c-57.42,0-104.14,46.71-104.14,104.14s46.71,104.14,104.14,104.14,104.13-46.71,104.13-104.14-46.71-104.14-104.13-104.14h0Z"/></g><circle class="cls-19" cx="988.53" cy="635.65" r="83.13" transform="translate(202.75 1509.59) rotate(-80.78)"/><g class="cls-12"><path class="cls-10" d="m869.71,1249.91c-8.84,0-16.82-5.59-19.84-13.9l-40.57-111.47-77.79,49.59c-3.44,2.19-7.35,3.35-11.32,3.35-6.09,0-11.92-2.66-15.98-7.29-4.02-4.58-5.79-10.48-4.99-16.61l38.88-296.88c1.4-10.66,10.24-18.39,21.02-18.39,5.24,0,10.28,1.98,14.2,5.58l220.62,202.44c6.11,5.61,8.36,14.01,5.86,21.92-2.5,7.91-9.16,13.5-17.39,14.57l-91.46,12.01,40.57,111.47c1.93,5.3,1.68,11.03-.71,16.15-2.38,5.11-6.62,8.99-11.92,10.92l-41.96,15.27c-2.33.85-4.76,1.28-7.22,1.28h0Z"/></g><path class="cls-5" d="m964.15,1059.39l-220.61-202.43c-9.61-8.82-25.18-3.16-26.87,9.78l-38.88,296.88c-1.78,13.57,13.1,23.04,24.64,15.68l83.04-52.94,42.7,117.32c3.04,8.36,12.29,12.68,20.66,9.63l41.96-15.27c8.36-3.04,12.68-12.29,9.63-20.66l-42.7-117.32,97.64-12.82c13.57-1.78,18.88-18.6,8.8-27.85Z"/><g class="cls-25"><path class="cls-10" d="m732.72,852.69c3.78,0,7.62,1.33,10.82,4.26l220.61,202.43c10.08,9.25,4.77,26.07-8.8,27.85l-97.64,12.82,42.7,117.32c3.04,8.36-1.27,17.61-9.63,20.66l-41.96,15.27c-1.82.66-3.68.98-5.51.98-6.58,0-12.76-4.06-15.14-10.61l-42.7-117.32-83.04,52.94c-2.78,1.77-5.74,2.57-8.63,2.57-9.11,0-17.36-7.94-16.01-18.25l38.88-296.88c1.13-8.64,8.45-14.04,16.06-14.04m0-6c-11.29,0-20.55,8.1-22.01,19.26l-38.88,296.88c-.84,6.42,1.02,12.6,5.23,17.4,4.26,4.85,10.35,7.63,16.73,7.63,4.16,0,8.26-1.21,11.85-3.51l76.73-48.92,40.15,110.3c3.17,8.71,11.52,14.56,20.78,14.56,2.58,0,5.12-.45,7.56-1.34l41.96-15.27c5.55-2.02,9.98-6.08,12.48-11.44,2.5-5.35,2.76-11.36.74-16.91l-40.15-110.3,90.23-11.85c8.61-1.13,15.59-6.98,18.21-15.27,2.62-8.29.27-17.08-6.14-22.96l-220.61-202.43c-4.1-3.77-9.39-5.84-14.87-5.84h0Z"/></g><g class="cls-21"><path class="cls-10" d="m732.72,852.69c3.78,0,7.62,1.33,10.82,4.26l220.61,202.43c10.08,9.25,4.77,26.07-8.8,27.85l-97.64,12.82,42.7,117.32c3.04,8.36-1.27,17.61-9.63,20.66l-41.96,15.27c-1.82.66-3.68.98-5.51.98-6.58,0-12.76-4.06-15.14-10.61l-42.7-117.32-83.04,52.94c-2.78,1.77-5.74,2.57-8.63,2.57-9.11,0-17.36-7.94-16.01-18.25l38.88-296.88c1.13-8.64,8.45-14.04,16.06-14.04m0-16c-7.54,0-14.89,2.66-20.69,7.48-6.19,5.15-10.18,12.42-11.24,20.49l-38.88,296.88c-1.2,9.18,1.58,18.4,7.63,25.29,6.15,7.01,14.99,11.03,24.25,11.03,6.06,0,12.02-1.75,17.23-5.07l66.22-42.22,35.88,98.58c4.6,12.64,16.73,21.14,30.18,21.14,3.75,0,7.44-.65,10.98-1.94l41.96-15.27c8.06-2.93,14.5-8.83,18.12-16.61,3.63-7.77,4.01-16.5,1.07-24.56l-35.88-98.58,77.87-10.22c12.51-1.64,22.64-10.14,26.44-22.17,3.8-12.03.39-24.81-8.91-33.34l-220.61-202.43c-5.95-5.46-13.64-8.47-21.63-8.47h0Z"/></g><path class="cls-15" d="m843.31,1249.29c-4.66,0-8.85-2.94-10.45-7.32l-44.83-123.18-88.3,56.29c-1.85,1.18-3.85,1.78-5.94,1.78-3.17,0-6.33-1.45-8.47-3.88-2.09-2.39-3.01-5.48-2.59-8.71l38.88-296.88c.83-6.36,6.21-9.69,11.1-9.69,1.93,0,4.78.51,7.44,2.95l220.61,202.43c3.27,3,4.42,7.31,3.08,11.54s-4.76,7.1-9.15,7.67l-103.82,13.63,44.83,123.18c1.02,2.79.88,5.81-.37,8.5-1.25,2.69-3.48,4.73-6.27,5.75l-41.96,15.27c-1.23.45-2.51.67-3.8.67Z"/></svg>
