<svg xmlns="http://www.w3.org/2000/svg" xmlns:xlink="http://www.w3.org/1999/xlink" viewBox="0 0 2500 2500"><defs><filter id="f8fc146c-4330-4505-8b35-d4787a4ecdad" name="AI_DesenfoqueGaussiano_4"><feGaussianBlur stdDeviation="4"/></filter><linearGradient id="bca79199-b3cc-4f08-bb45-54124c18bb9c" x1="21.86" y1="32.92" x2="240.46" y2="32.92" gradientUnits="userSpaceOnUse"><stop offset="0" stop-color="#7e9cbd" stop-opacity="0.5"/><stop offset="0.48" stop-color="#7e9cbd" stop-opacity="0.1"/><stop offset="1" stop-color="#7e9cbd" stop-opacity="0"/></linearGradient><linearGradient id="bbb7bced-7874-4a37-8ad6-5228f6d37502" x1="2745.36" y1="904.48" x2="-352.57" y2="2927.45" gradientUnits="userSpaceOnUse"><stop offset="0.03" stop-color="#90aac1" stop-opacity="0"/><stop offset="0.15" stop-color="#d4ecf6" stop-opacity="0.1"/><stop offset="0.67" stop-color="#5d7586" stop-opacity="0.3"/></linearGradient><linearGradient id="ba644dc4-1b44-4148-8004-6d3e486925e4" x1="1936.86" y1="1152.61" x2="2299.28" y2="1152.61" gradientTransform="matrix(-0.89, -0.5, -0.49, 0.86, 4278.94, 1288.66)" gradientUnits="userSpaceOnUse"><stop offset="0" stop-color="#c2ebe8" stop-opacity="0.1"/><stop offset="0.05" stop-color="#8fe0d9" stop-opacity="0.1"/><stop offset="0.15" stop-color="#6ad8cf" stop-opacity="0.1"/><stop offset="0.87" stop-color="#43a39b" stop-opacity="0.3"/></linearGradient><linearGradient id="b044405e-6b0b-4804-b39c-242078f2a782" x1="2365.61" y1="551.87" x2="2272.25" y2="846.86" xlink:href="#ba644dc4-1b44-4148-8004-6d3e486925e4"/><linearGradient id="be7d37c0-377a-4c4e-82f7-8d0a9939b4f9" x1="2362.33" y1="550.83" x2="2268.98" y2="845.82" xlink:href="#ba644dc4-1b44-4148-8004-6d3e486925e4"/><linearGradient id="b1ae9f7d-e467-4490-a83f-f9426898ab36" x1="2173.57" y1="902.32" x2="2648.09" y2="1712.65" gradientTransform="matrix(-0.89, -0.5, -0.49, 0.86, 4278.94, 1288.66)" gradientUnits="userSpaceOnUse"><stop offset="0" stop-color="#12abbb" stop-opacity="0"/><stop offset="0.62" stop-color="#12abbb" stop-opacity="0.5"/></linearGradient><linearGradient id="a91d6ecc-80f7-4956-ba25-0bdf046c5778" x1="2497.81" y1="887.6" x2="2983.24" y2="1716.58" xlink:href="#b1ae9f7d-e467-4490-a83f-f9426898ab36"/><linearGradient id="b87fc922-ad1e-482c-a2a8-38287ca0c3c5" x1="1821.12" y1="1078.01" x2="1188.58" y2="1277.67" gradientUnits="userSpaceOnUse"><stop offset="0.23" stop-color="#010d1a" stop-opacity="0"/><stop offset="0.59" stop-color="#010d1a" stop-opacity="0.36"/><stop offset="1" stop-color="#010d1a"/></linearGradient><linearGradient id="a3098216-1c42-41cd-ba96-e121fbad6e3e" x1="1188.37" y1="2058.7" x2="1555.92" y2="2058.7" gradientUnits="userSpaceOnUse"><stop offset="0" stop-color="#e5f4fa"/><stop offset="0.36" stop-color="#e5f4fa"/><stop offset="0.45" stop-color="#d5eaf7"/><stop offset="0.54" stop-color="#c8e3f5"/><stop offset="0.74" stop-color="#cbe4f4"/><stop offset="1" stop-color="#cee7f5"/></linearGradient><linearGradient id="a5317db0-dbb4-44e4-b440-eb6fbebcbe79" x1="280.66" y1="1640.46" x2="2347.23" y2="1932.89" gradientUnits="userSpaceOnUse"><stop offset="0" stop-color="#fafbfc"/><stop offset="0.55" stop-color="#f5f8fa"/><stop offset="0.99" stop-color="#e6f4fa"/><stop offset="0.99" stop-color="#d4ecf6" stop-opacity="0.9"/></linearGradient><linearGradient id="b43af91f-1bd1-4029-bf91-d1da2be2c7c0" x1="988.62" y1="78.32" x2="904.71" y2="132.71" gradientUnits="userSpaceOnUse"><stop offset="0" stop-color="#581559"/><stop offset="0.24" stop-color="#782675"/><stop offset="0.45" stop-color="#993791"/><stop offset="1" stop-color="#cf38b9"/></linearGradient><linearGradient id="adfc29d6-038d-4f81-bda4-e74dc7fdd1d5" x1="892.3" y1="35.88" x2="842.95" y2="107.17" gradientUnits="userSpaceOnUse"><stop offset="0" stop-color="#581559"/><stop offset="0.31" stop-color="#782675"/><stop offset="0.59" stop-color="#993791"/><stop offset="1" stop-color="#cf38b9"/></linearGradient><linearGradient id="eca8b938-af24-49c8-baa3-b31fd0d39eb1" x1="627.65" y1="247.49" x2="571.71" y2="491.22" gradientUnits="userSpaceOnUse"><stop offset="0" stop-color="#cf38b9"/><stop offset="0.21" stop-color="#bc32a9"/><stop offset="0.62" stop-color="#8a2481"/><stop offset="1" stop-color="#581559"/></linearGradient><linearGradient id="b9c7c36e-9962-4403-b132-00e77d087f37" x1="820.06" y1="-7.18" x2="589.15" y2="279.59" gradientUnits="userSpaceOnUse"><stop offset="0" stop-color="#581559"/><stop offset="0" stop-color="#59165a"/><stop offset="0.22" stop-color="#8b3084"/><stop offset="0.33" stop-color="#9f3a94"/><stop offset="0.35" stop-color="#aa3a9c"/><stop offset="0.38" stop-color="#bb39a9"/><stop offset="0.43" stop-color="#c638b2"/><stop offset="0.5" stop-color="#cd38b8"/><stop offset="0.69" stop-color="#cf38b9"/><stop offset="0.74" stop-color="#b932a7"/><stop offset="1" stop-color="#581559"/></linearGradient><linearGradient id="b1f9c3d1-270e-4594-9eb7-60005c4bd89e" x1="690.75" y1="119.18" x2="870.77" y2="374.25" gradientUnits="userSpaceOnUse"><stop offset="0.15" stop-color="#e84de4"/><stop offset="0.33" stop-color="#d83fc8"/><stop offset="0.46" stop-color="#cf38b9"/><stop offset="0.58" stop-color="#c337af"/><stop offset="0.79" stop-color="#a23494"/><stop offset="0.94" stop-color="#87327f"/></linearGradient><radialGradient id="a11d401c-98a8-466f-92a4-8e753b52c67b" cx="745.83" cy="4960.62" r="293" gradientTransform="matrix(0, 1.68, -0.16, 0, 2008.07, 514.04)" gradientUnits="userSpaceOnUse"><stop offset="0" stop-color="#90aac1" stop-opacity="0.5"/><stop offset="1" stop-color="#90aac1" stop-opacity="0"/></radialGradient><linearGradient id="b19aa86b-99a3-4538-89c9-8cfc14f298bd" x1="1153.54" y1="542.22" x2="1259.55" y2="758.22" gradientUnits="userSpaceOnUse"><stop offset="0" stop-color="#e5f4fa"/><stop offset="0.37" stop-color="#e5f4fa"/><stop offset="0.55" stop-color="#d5eaf7"/><stop offset="0.63" stop-color="#c8e3f5"/></linearGradient><linearGradient id="b8ad66bd-8ae5-4e9d-b734-65e6e714a6d6" x1="1201.36" y1="384.33" x2="1201.36" y2="1773.31" gradientUnits="userSpaceOnUse"><stop offset="0" stop-color="#cfecf3"/><stop offset="0.52" stop-color="#ddf1f4"/><stop offset="1" stop-color="#eef8f6"/></linearGradient><radialGradient id="ac49dac5-b690-45e8-916f-9c4f3dab50ee" cx="1206.29" cy="467.1" r="1298.02" gradientTransform="translate(0 115.5) scale(1 0.75)" gradientUnits="userSpaceOnUse"><stop offset="0" stop-color="#f9fbf5"/><stop offset="0.06" stop-color="#f9fbf5" stop-opacity="0.91"/><stop offset="0.26" stop-color="#f9fbf5" stop-opacity="0.63"/><stop offset="0.45" stop-color="#f9fbf5" stop-opacity="0.41"/><stop offset="0.63" stop-color="#f9fbf5" stop-opacity="0.23"/><stop offset="0.78" stop-color="#f9fbf5" stop-opacity="0.1"/><stop offset="0.91" stop-color="#f9fbf5" stop-opacity="0.03"/><stop offset="1" stop-color="#f9fbf5" stop-opacity="0"/></radialGradient><linearGradient id="f69cb64b-fb01-43e8-9743-d6bf4776f787" x1="-11583.01" y1="-19842.56" x2="-11522.39" y2="-19781.94" gradientTransform="matrix(0.5, 0.62, 0, 0.66, 6805.27, 20679.86)" gradientUnits="userSpaceOnUse"><stop offset="0" stop-color="#1da1dc"/><stop offset="1" stop-color="#00b287"/></linearGradient><radialGradient id="aaf657ba-f0e9-4ca0-a887-e1228e30854a" cx="1158.2" cy="644.09" r="533.65" gradientTransform="translate(433.29 -381.09) rotate(32.02) scale(1 0.75)" xlink:href="#ac49dac5-b690-45e8-916f-9c4f3dab50ee"/><linearGradient id="fd67f144-4ddd-4149-99ea-b4230f28b93d" x1="1026.64" y1="1023.46" x2="997.81" y2="1074.41" gradientUnits="userSpaceOnUse"><stop offset="0" stop-color="#a63c97"/><stop offset="0.06" stop-color="#c747b7"/><stop offset="1" stop-color="#a63c97"/></linearGradient><linearGradient id="a5dc8283-b6ef-4e9f-afa2-bdb8d74ef52b" x1="1501.17" y1="684.82" x2="1501.62" y2="931.3" gradientUnits="userSpaceOnUse"><stop offset="0" stop-color="#a2cfe5"/><stop offset="0.1" stop-color="#a3d0e6"/><stop offset="0.99" stop-color="#aadaee"/></linearGradient><radialGradient id="ef78b2dc-5bb1-4d62-8131-38a028ea6fa8" cx="1477.35" cy="2973.82" r="34.93" gradientTransform="matrix(-0.71, 0.41, 0.7, 0.41, 708.89, 221.56)" gradientUnits="userSpaceOnUse"><stop offset="0" stop-color="#7e9cbd" stop-opacity="0.3"/><stop offset="1" stop-color="#7e9cbd" stop-opacity="0"/></radialGradient><linearGradient id="b9a03cf0-745a-45f7-815f-d7127f1faaf4" x1="949.13" y1="1182.92" x2="885.52" y2="1414.82" gradientTransform="matrix(-1, 0, 0, 1, 2287.73, 0)" gradientUnits="userSpaceOnUse"><stop offset="0" stop-color="#d2a57d" stop-opacity="0"/><stop offset="1" stop-color="#d2a57d" stop-opacity="0.7"/></linearGradient><linearGradient id="a87e9875-8193-4215-b3aa-ea0584dc4f94" x1="840.47" y1="1167.03" x2="751.68" y2="1375.08" gradientTransform="matrix(-0.99, -0.13, -0.13, 0.99, 2448.96, 109.14)" xlink:href="#b9a03cf0-745a-45f7-815f-d7127f1faaf4"/><linearGradient id="e2bcf8c0-d890-4748-acc8-c09575a00d57" x1="753.31" y1="1455.44" x2="728.13" y2="1181.13" gradientTransform="matrix(-1, 0, 0, 1, 2287.73, 0)" gradientUnits="userSpaceOnUse"><stop offset="0" stop-color="#010d1a" stop-opacity="0"/><stop offset="1" stop-color="#010d1a"/></linearGradient><linearGradient id="e9d60e59-b528-4557-a3a1-b8ba91c54664" x1="790.62" y1="1344.31" x2="787.08" y2="1462.69" xlink:href="#b9a03cf0-745a-45f7-815f-d7127f1faaf4"/><linearGradient id="bb52d77f-1c49-4ca2-953e-012c06a902c6" x1="748.28" y1="1376.07" x2="838.96" y2="1376.07" xlink:href="#e2bcf8c0-d890-4748-acc8-c09575a00d57"/><linearGradient id="a0c8700e-0b57-4c83-abcd-3f65edde7bdd" x1="589.06" y1="1840.58" x2="793.13" y2="1700.11" xlink:href="#e2bcf8c0-d890-4748-acc8-c09575a00d57"/><linearGradient id="b7cbe8ed-e3ca-4e90-9ccd-dab3898403d0" x1="762.22" y1="1862.98" x2="780.77" y2="1611.2" xlink:href="#e2bcf8c0-d890-4748-acc8-c09575a00d57"/><linearGradient id="b507a077-ab01-4eef-9ec4-5c17a0d66e9a" x1="781.67" y1="1596.43" x2="555.06" y2="2119.87" gradientTransform="matrix(-1, 0, 0, 1, 2287.73, 0)" gradientUnits="userSpaceOnUse"><stop offset="0" stop-color="#61eebb" stop-opacity="0"/><stop offset="1" stop-color="#61eebb"/></linearGradient><linearGradient id="b25b376b-c370-4f4e-8e3e-17cb1742dd3c" x1="816.25" y1="1610" x2="868.59" y2="1523.87" xlink:href="#e2bcf8c0-d890-4748-acc8-c09575a00d57"/><linearGradient id="b9e46208-278b-42d1-b95c-b4b8938c68e7" x1="1327.38" y1="1049.56" x2="1327.34" y2="1070.44" gradientTransform="matrix(-1, 0, 0, 1, 2287.73, 0)" gradientUnits="userSpaceOnUse"><stop offset="0" stop-color="#90aac1" stop-opacity="0.4"/><stop offset="1" stop-color="#90aac1" stop-opacity="0"/></linearGradient><linearGradient id="f2d985ec-fc31-43e4-84a8-980aea32b340" x1="1542.17" y1="1576.93" x2="1461.34" y2="1363.58" xlink:href="#e2bcf8c0-d890-4748-acc8-c09575a00d57"/><linearGradient id="be3d0df9-b9fc-44d6-a926-93d0194f3892" x1="1525.83" y1="1553.1" x2="1549.68" y2="1272.17" xlink:href="#e2bcf8c0-d890-4748-acc8-c09575a00d57"/><linearGradient id="b26b9355-ebcf-48a7-a444-58aaed6a967a" x1="1563.84" y1="1266.3" x2="1615.52" y2="866.11" xlink:href="#b507a077-ab01-4eef-9ec4-5c17a0d66e9a"/><radialGradient id="a27b9962-7c97-4e39-b46f-aafb2ae0308b" cx="1904.08" cy="1862.7" r="34.93" gradientTransform="matrix(-0.71, 0.41, 0.7, 0.41, 707.13, 228.39)" xlink:href="#ef78b2dc-5bb1-4d62-8131-38a028ea6fa8"/><linearGradient id="fb48c744-f26e-4e00-9ca7-dec6c7bda3f0" x1="336.74" y1="1922.92" x2="489.35" y2="1922.92" gradientTransform="matrix(-1, 0, 0, 1, 1721.1, 0)" gradientUnits="userSpaceOnUse"><stop offset="0" stop-color="#d4ecf6" stop-opacity="0.1"/><stop offset="0.04" stop-color="#b5cede" stop-opacity="0.1"/><stop offset="0.15" stop-color="#90aac1" stop-opacity="0.1"/><stop offset="0.87" stop-color="#5d7586" stop-opacity="0.3"/></linearGradient><linearGradient id="a990b543-c9cc-44fd-9127-b14684486c6f" x1="455.01" y1="1857.66" x2="85.8" y2="1854.91" gradientTransform="matrix(-1, 0, 0, 1, 1721.1, 0)" gradientUnits="userSpaceOnUse"><stop offset="0.02" stop-color="#0071b0" stop-opacity="0"/><stop offset="0.21" stop-color="#0b5b93" stop-opacity="0.29"/><stop offset="0.53" stop-color="#1a3d6c" stop-opacity="0.68"/><stop offset="0.8" stop-color="#242b54" stop-opacity="0.91"/><stop offset="1" stop-color="#27244b"/></linearGradient><linearGradient id="b10b714e-7b8b-4c78-96e0-b58d10a03ee4" x1="587.48" y1="1890.91" x2="397.35" y2="1851.11" gradientTransform="matrix(-1, 0, 0, 1, 1721.1, 0)" gradientUnits="userSpaceOnUse"><stop offset="0" stop-color="#fcfdfe" stop-opacity="0.8"/><stop offset="0.55" stop-color="#f5f8fa" stop-opacity="0.8"/><stop offset="0.99" stop-color="#e5f4fa" stop-opacity="0.3"/></linearGradient><symbol id="b1e2529a-b7bf-4c7c-a31e-eb06d774d700" data-name="shadowsvglight" viewBox="0 0 262 66"><g filter="url(#f8fc146c-4330-4505-8b35-d4787a4ecdad)"><path d="M240.46,32.92c.09,15.15-21,27.43-47.19,27.42H69.36A81.87,81.87,0,0,1,61,59.92c-.78-.08-1.55-.18-2.31-.28s-1.52-.21-2.27-.34-1.49-.25-2.23-.4-1.46-.29-2.17-.46c-1.35-.3-2.66-.65-4-1L46.78,57l-2-.67c-.65-.22-1.29-.46-1.92-.71-1.26-.49-2.48-1-3.65-1.58-.59-.28-1.16-.56-1.73-.86s-1.11-.6-1.65-.91-1.06-.63-1.57-1-1-.66-1.49-1A33,33,0,0,1,30,48.25c-.43-.36-.84-.73-1.24-1.11S28,46.38,27.65,46l-.53-.58a23.09,23.09,0,0,1-1.78-2.25l-.55-.81-.39-.63c-.25-.43-.48-.86-.7-1.29s-.41-.87-.59-1.32-.34-.89-.48-1.34c-.07-.22-.14-.45-.2-.67-.12-.46-.22-.92-.31-1.38a17.35,17.35,0,0,1-.26-2.8c-.08-15.15,21-27.43,47.2-27.43H194.18c1.63,0,3.23.1,4.81.21,1.19.09,2.36.2,3.52.34s2.29.3,3.42.48q2.64.43,5.16,1l1.37.34c1.4.37,2.76.77,4.09,1.21q1,.33,1.95.69a53,53,0,0,1,8,3.71,35.91,35.91,0,0,1,8.18,6.32c.37.39.72.79,1.06,1.19s.65.8,1,1.21a20.28,20.28,0,0,1,1.94,3.17,17.58,17.58,0,0,1,1.44,4,15.25,15.25,0,0,1,.38,2.78C240.45,32.45,240.46,32.68,240.46,32.92Z" fill="url(#bca79199-b3cc-4f08-bb45-54124c18bb9c)"/></g></symbol></defs><g style="isolation:isolate"><g id="bdb84f3b-7c94-4c90-afd2-dd946929d8ad" data-name="Shadow"><path d="M2361,1891.57c15.44,8.91,15.52,23.36.18,32.27l-823.38,497.9c-21,18.44-169.36,30.07-201.22,0L256.93,1793.37c-15.44-8.91-15.53-23.37-.19-32.28l968.88-497.9c15.34-8.91,40.29-8.91,55.73,0Z" fill="url(#bbb7bced-7874-4a37-8ad6-5228f6d37502)"/></g><g id="e8d6d41b-d085-4794-8ca8-7a04c50c8b2b" data-name="Plant"><g id="a435af1e-54f8-414e-8002-882c3a673ab8" data-name="Plant"><g id="b427a6ca-22a1-4221-bbf1-f304be0ded6e" data-name="plant_15"><g id="bfcde76a-a4b6-414f-8720-2dc303f27a77" data-name="Layer1 23 MEMBER 0 FILL"><path d="M1386.28,1621.77q447.53-718,848.86-829.18Q2026.52,1508.93,1386.28,1621.77Z" fill="#95eee5"/></g><g id="b186853a-1e1a-40a7-bb96-c94922bf6657" data-name="Layer1 23 MEMBER 0 FILL"><path d="M1386.28,1621.77q447.53-718,848.86-829.18Q2026.52,1508.93,1386.28,1621.77Z" fill="url(#ba644dc4-1b44-4148-8004-6d3e486925e4)"/></g><g id="f94e7f6c-b67c-4e0a-8cc1-9781c26e9ef9" data-name="Layer1 23 MEMBER 1 FILL"><path d="M2186.14,846.41q.32-.54.48,0c.37.21.37.37,0,.47l-99.68,131.78q-27.15,34.34-50.26,62.51l-177.28,199.09,13.95-.07,35.92-5.48,26-6.76,41.71-14.27c.19,0,.38,0,.56.32l-.31.54-44.89,22.85-42.84,15.8q-9.93,2.58-11.86,2.94l-5.63,1.15a36,36,0,0,1-5.34,1.08l-19.7,1.88-.58.15-.48,0-2.32.14a8.15,8.15,0,0,1-2.1-.23l-26.66,30-19.12,18.61h0l-12.49,12.24h0l-93.88,91.38h0l22,3.56,11,.4c4.41.09,8.23.08,11.44,0l11.28-.62,23.62-3.51,25.58-6.51c.2,0,.38.05.56.32,0,.31-.11.49-.31.54l-42,16.52-17.31,4.2q-10,1.82-11.82,2a74.11,74.11,0,0,1-11.7,1.34l-21.07.37-2.29-.33-7.19-.45-.86-.24-1.73,0-1.52-.37-4.77-.78-69.38,66.41a9.83,9.83,0,0,1-4.53,4.43l-1.08.6L1481.36,1601q-20,5.26-40.35,9.73a10.89,10.89,0,0,1-.41-3.61,12.54,12.54,0,0,1,4.43-8.59l.1-.18,76.09-61.65,65.87-59,64.47-144c-.11-.38,0-.47.4-.25l.27.39-35.78,117.77,157.43-141.55c0-.16,0-.32,0-.47l0-.94,1.55-8.77.34-1,2.05-9.21.17-1.59,18-61.71,47.29-113.18c-.11-.39,0-.47.4-.26l.27.39-33.78,110-2.65,11.53-.33,1-.15,1.12-5.71,28.14q-.89,4.56-2.52,15.22l-.53,5.25,84.06-84.64,149.23-164q12.48-14.42,51.45-61.12Z" fill="#4dd2d2"/></g><g id="bb85cdfe-434a-4aeb-9d8c-ec7d9c5d26dd" data-name="Layer1 24 MEMBER 0 FILL"><path d="M1690.82,667.06c104.24,332,2.66,641.19-322.23,1005.87C1299.15,1174.63,1400.73,865.4,1690.82,667.06Z" fill="#95eee5"/></g><g id="a4f3763c-b175-4a5c-bfe6-1483a421386e" data-name="Layer1 24 MEMBER 1 FILL"><path d="M1682.85,1061.91q.3-.54.48,0c.37.21.36.37,0,.47l-39.94,59.67-17.77,22.76L1573,1201.92l-16,14.85-1.32,1.43-.79.51-9.44,8.66q-26.31,70.05-58,142.61L1600,1290.33q.32-.55.48,0c.38.21.37.37,0,.47l-128.66,120q11-11.08,1.63-2c-1.85,1.8-3.56,3.33-5.11,4.59q-10.47,23-21.35,46.31a9.47,9.47,0,0,0-.15,1.12l-.37-.21q-43.17,91.59-94.61,187-2.6-22.92-4.46-45.47Q1392,1517,1431.05,1435.5q12.85-95.36-39.6-199.79,49,73.39,55.57,165.88,29.88-64.44,56.18-126.49l-.19-.11q20-122-12.45-257.52,34.37,94.46,33.8,206.87,92.51-228.63,133.21-425.29-24.78,182.18-97.11,386.61l23.75-18.89,1.19-.77.81-1,29.6-26.92.81-1,1-.88,18.16-18.67,1-.88Z" fill="#4dd2d2"/></g><g id="acbeb7d6-2afa-4063-b324-76a6465f7fec" data-name="Layer1 26 MEMBER 0 FILL"><path d="M1948.52,391.55q98.4,308.11-112.56,522.64Q1742.63,577.32,1948.52,391.55Z" fill="#95eee5"/></g><g id="ae140221-d9ed-4d8c-a4ec-3e1b6da2084c" data-name="Layer1 26 MEMBER 0 FILL"><path d="M1948.52,391.55q98.4,308.11-112.56,522.64Q1742.63,577.32,1948.52,391.55Z" fill="url(#b044405e-6b0b-4804-b39c-242078f2a782)"/></g><g id="ac063caf-57e6-499a-b85f-753594fa81c4" data-name="Layer1 26 MEMBER 1 FILL"><path d="M1932.06,476.1c.39-.11.48,0,.27.39l-1.77,40.74L1911.8,658.16l-30.32,126.89-41.89,125.4c-1.22,1.27-2.43,2.51-3.63,3.74q-3.74-13.44-6.87-26.57l16.3-41L1892,702.2l23.39-101.38,16.27-124.47C1931.55,476,1931.68,475.88,1932.06,476.1Z" fill="url(#be7d37c0-377a-4c4e-82f7-8d0a9939b4f9)"/></g><path d="M1671.64,1220q292.3-352.23,563.5-427.4Q2039,1466,1461.53,1606l-.92.22c-5,1.2-10,2.4-15,3.54-26.7,33.93-46.55,28.91-77,63.13-69.44-498.3,32.14-807.53,322.23-1005.87Q1775.38,936.36,1671.64,1220Z" fill="url(#b1ae9f7d-e467-4490-a83f-f9426898ab36)"/><path d="M1836.62,908.77c-1.22,1.27-2.43,2.51-3.63,3.74-1.45-5.21-2.8-10.38-4.12-15.52q-84.37-325.62,116.68-507.12,97.52,305.37-108.89,518.79Z" fill="url(#a91d6ecc-80f7-4956-ba25-0bdf046c5778)"/><g style="mix-blend-mode:hard-light"><path d="M1671.64,1220q292.3-352.23,563.5-427.4Q2039,1466,1461.53,1606l-.92.22c-5,1.2-10,2.4-15,3.54-26.7,33.93-46.55,28.91-77,63.13-69.44-498.3,32.14-807.53,322.23-1005.87Q1775.38,936.36,1671.64,1220Z" fill="url(#b87fc922-ad1e-482c-a2a8-38287ca0c3c5)"/></g></g></g></g><g id="aadd23ed-8f09-488e-bc9f-227d6bfe5402" data-name="Base"><g id="a8ce616b-825d-429c-9978-20611316ac62" data-name="Base"><g opacity="0.16"><path d="M1068.74,1287c10.08,0,20.18,2.23,27.9,6.69l1079.62,628.37c15.44,8.91,15.52,23.36.18,32.28l-784.17,467.37c-7.67,4.46-17.74,6.69-27.83,6.69s-20.18-2.23-27.9-6.69L256.93,1793.37c-15.44-8.91-15.53-23.37-.19-32.28l784.18-467.38c7.66-4.45,17.73-6.68,27.82-6.68m0-7v0h0c-11.75,0-22.87,2.71-31.34,7.63l0,0,0,0L253.2,1755.05c-9.63,5.61-14.92,13.46-14.91,22.13s5.39,16.62,15.14,22.25L1333,2427.79c8.54,4.93,19.69,7.64,31.42,7.64s22.88-2.71,31.34-7.64l0,0,0,0L2180,1960.4c9.62-5.6,14.91-13.46,14.9-22.13s-5.38-16.62-15.13-22.24L1100.17,1287.67c-8.54-4.93-19.7-7.64-31.43-7.64Z" fill="#85d8d1"/></g><g opacity="0.18"><path d="M1068.74,1287c10.08,0,20.18,2.23,27.9,6.69l1079.62,628.37c15.44,8.91,15.52,23.36.18,32.28l-784.17,467.37c-7.67,4.46-17.74,6.69-27.83,6.69s-20.18-2.23-27.9-6.69L256.93,1793.37c-15.44-8.91-15.53-23.37-.19-32.28l784.18-467.38c7.66-4.45,17.73-6.68,27.82-6.68m0-4v0h0c-11.22,0-21.82,2.57-29.83,7.23L254.69,1757.65c-8.63,5-13.41,12-13.4,19.53s4.86,14.58,13.64,19.65l1079.6,628.37c8.08,4.66,18.7,7.23,29.91,7.23s21.82-2.57,29.84-7.23l784.21-467.4c8.64-5,13.41-12,13.4-19.52s-4.85-14.59-13.63-19.65l-1079.6-628.37c-8.08-4.66-18.7-7.23-29.92-7.23Z" fill="#333a45"/></g><path d="M2176.26,1922.09c15.44,8.91,15.52,23.36.18,32.28l-784.17,467.37c-15.34,8.91-40.29,8.92-55.72,0L256.93,1793.37c-15.44-8.91-15.53-23.37-.19-32.28l784.18-467.38c15.33-8.91,40.29-8.91,55.72,0Z" fill="none" stroke="#333a45" stroke-width="2" opacity="0.47"/><path d="M245.29,1692.28l-.23,81.52c0,5.88,3.87,11.77,11.64,16.25l1079.61,628.38c15.44,8.91,40.39,8.91,55.73,0l784.17-467.38c7.62-4.43,11.43-10.22,11.45-16l.23-81.51C2187.88,1859.31,245.28,1698.16,245.29,1692.28Z" fill="url(#a3098216-1c42-41cd-ba96-e121fbad6e3e)"/><path d="M1364.44,2341.59c-10.17,0-19.73-2.27-26.9-6.41L257.93,1706.81c-6.85-4-10.63-9.1-10.64-14.47s3.71-10.43,10.46-14.35l784.19-467.39c7.1-4.12,16.62-6.4,26.8-6.4s19.74,2.28,26.9,6.42L2175.25,1839c6.86,4,10.63,9.09,10.64,14.47s-3.7,10.42-10.45,14.34l-784.2,467.39C1384.15,2339.32,1374.62,2341.59,1364.44,2341.59Z" fill="url(#a5317db0-dbb4-44e4-b440-eb6fbebcbe79)"/><path d="M1068.74,1202.2v4h0c9.83,0,19,2.18,25.89,6.14l1079.63,628.38c6.2,3.58,9.63,8.11,9.63,12.74s-3.35,9.07-9.5,12.64l-784.13,467.35c-6.82,4-16,6.14-25.82,6.14s-19-2.18-25.88-6.14L258.93,1705.07c-6.21-3.58-9.63-8.1-9.64-12.74s3.36-9.07,9.5-12.64l784.14-467.35c6.81-4,16-6.14,25.81-6.14v-4m0,0c-10.09,0-20.16,2.23-27.82,6.68L256.74,1676.26c-15.34,8.91-15.25,23.37.19,32.28l1079.61,628.37c7.72,4.46,17.82,6.68,27.9,6.68s20.16-2.22,27.83-6.68l784.17-467.38c15.34-8.91,15.26-23.36-.18-32.27L1096.64,1208.89c-7.72-4.46-17.82-6.69-27.9-6.69Z" fill="#fafbfc"/><path d="M1068.74,1202.2v2c10.18,0,19.73,2.28,26.9,6.42L2175.26,1839c6.85,4,10.62,9.09,10.63,14.47s-3.7,10.42-10.47,14.36l-784.16,467.36c-7.11,4.14-16.64,6.41-26.82,6.41s-19.73-2.27-26.89-6.41L257.93,1706.81c-6.85-4-10.63-9.1-10.64-14.47s3.71-10.43,10.48-14.36l784.15-467.37c7.12-4.13,16.64-6.41,26.82-6.41v-2m0,0c-10.09,0-20.16,2.23-27.82,6.68L256.74,1676.26c-15.34,8.91-15.25,23.37.19,32.28l1079.62,628.37c7.71,4.46,17.81,6.68,27.89,6.68s20.16-2.22,27.83-6.68l784.17-467.38c15.34-8.91,15.26-23.36-.18-32.27L1096.64,1208.89c-7.72-4.46-17.82-6.69-27.9-6.69Z" fill="#fff"/></g></g><g id="ad2d518d-46bd-4afc-9f9e-555d7980f243" data-name="Cloud"><g id="e602f830-6390-4d29-841f-7e889a0e3c42" data-name="Gloud Purple_B"><g id="b4f3a665-564c-4a17-87eb-8c641f79584a" data-name="tOP" opacity="0.75"><path d="M920.64,90.44q10.43,11.82,12.88,32.36A103,103,0,0,1,951.08,110c1.63-.92,3.19-1.74,4.68-2.44q13-6.39,24.16-6.29a35.82,35.82,0,0,1,16.28,4L968.43,89.26a36.64,36.64,0,0,0-6-3.4q-16.92-7.86-39,3.08a.94.94,0,0,1-.32.22A21.71,21.71,0,0,0,920.64,90.44Z" fill-rule="evenodd" fill="url(#b43af91f-1bd1-4029-bf91-d1da2be2c7c0)"/><path d="M818.56,76.07Q832.09,87,838.47,106a111.89,111.89,0,0,1,13.41-12.24,101.18,101.18,0,0,1,11.92-8q15.65-8.94,28.84-8.72a34.43,34.43,0,0,1,14.8,3.3L879.66,64.05l-.11-.11a5.84,5.84,0,0,0-1.17-.75,15.79,15.79,0,0,0-2.45-1.27A28,28,0,0,0,871.35,60a1.94,1.94,0,0,0-.63-.11q-17-5.32-39,7.13a96.19,96.19,0,0,0-12.13,8.09A11.57,11.57,0,0,0,818.56,76.07Z" fill-rule="evenodd" fill="url(#adfc29d6-038d-4f81-bda4-e74dc7fdd1d5)"/><path d="M559.71,387.28c0,20.73,5.5,39.35,15.1,50.67a28.24,28.24,0,0,0,9,7l34.11,17c-3.26-2.76-14.19-11.37-16.6-15.06q-9.58-15.11-9.58-40.87,0-37.68,20.65-76,16.61-31.18,38.85-47.89L619,263.5q-22.14,16.83-38.63,47.79Q559.71,349.61,559.71,387.28Z" fill-rule="evenodd" fill="url(#eca8b938-af24-49c8-baa3-b31fd0d39eb1)"/><path d="M619.74,263a2.74,2.74,0,0,1-.75.53l32.26,18.64a5.16,5.16,0,0,0,.53-.43A155.69,155.69,0,0,1,650,257.23q0-51.84,28.52-105,28.43-52.79,68.65-75.78Q773.22,61.7,794.3,65a50.77,50.77,0,0,1,21.6,8.94,23.41,23.41,0,0,1,2.66,2.13,11.57,11.57,0,0,1,1.07-1L783,54.67a48.47,48.47,0,0,0-7.88-4.46q-25.77-11.93-60,7.55-40.25,23-68.65,75.78-28.53,53.11-28.53,105A154.41,154.41,0,0,0,619.74,263Z" fill-rule="evenodd" fill="url(#b9c7c36e-9962-4403-b132-00e77d087f37)"/></g><path id="e48d611c-f094-4184-a99d-233c24fc3351" data-name="cLOUD FRONT" d="M591.75,406q0,25.75,9.58,40.87a44.73,44.73,0,0,0,8.51,9.69c.86.71,1.7,1.39,2.56,2a35.86,35.86,0,0,0,9.79,5.11q16.81,5.76,38.21-6L952.89,291Q981,274.14,1001,236.89q20.64-38.41,20.65-76.1T1001,108.32a12,12,0,0,0-2-1.28,27.67,27.67,0,0,0-2.78-1.7,35.82,35.82,0,0,0-16.28-4q-11.16-.11-24.16,6.29c-1.49.7-3,1.52-4.68,2.44a103,103,0,0,0-17.56,12.78q-2.44-20.55-12.88-32.36a36.42,36.42,0,0,0-7-6.5,39.4,39.4,0,0,0-6.17-3.61,34.43,34.43,0,0,0-14.8-3.3q-13.2-.21-28.84,8.72a101.18,101.18,0,0,0-11.92,8A111.89,111.89,0,0,0,838.47,106Q832.08,87,818.56,76.07a23.41,23.41,0,0,0-2.66-2.13A50.77,50.77,0,0,0,794.3,65q-21.07-3.28-47.16,11.49-40.23,23-68.65,75.78Q650,205.4,650,257.23a155.69,155.69,0,0,0,1.81,24.48,5.16,5.16,0,0,1-.53.43Q629,298.83,612.4,330,591.75,368.34,591.75,406Z" fill-rule="evenodd" opacity="0.75" fill="url(#b1f9c3d1-270e-4594-9eb7-60005c4bd89e)"/></g></g><g id="a99f279f-b947-4cdb-a8f1-a639745cd9f3" data-name="Screen"><g id="fde3dff1-c5ba-4d61-85d8-9c0bf9ecd867" data-name="MobileDashboard"><g id="a2e45b0e-77c1-4320-a2dc-3ec3059578a4" data-name="Dashbboard"><ellipse id="bdca30e0-be27-4dab-9b52-f875ba75e426" data-name="Shadow" cx="1209.24" cy="1766.97" rx="47.18" ry="492.21" transform="translate(-925.62 1930.72) rotate(-60)" fill="url(#a11d401c-98a8-466f-92a4-8e753b52c67b)"/><path d="M1464.24,489.79l-459.6-265.35c-13.8-8-26.34-9-35.61-4.25v0l-.36.21c-.46.24-.9.5-1.35.77l-32,18.47,533,1666.14,30.78-17.88v0c10.38-4.85,16.9-16.71,16.9-34.08V579C1516,546.2,1492.81,506.28,1464.24,489.79Z" fill="url(#b19aa86b-99a3-4538-89c9-8cfc14f298bd)"/><path d="M1454.4,1907.41c-6.89,0-14.38-2.3-22.24-6.84l-459.6-265.35c-28-16.15-50.73-55.37-50.73-87.44V273c0-21.31,10.15-34.54,26.49-34.54,6.89,0,14.37,2.3,22.24,6.84l459.6,265.35c28,16.15,50.73,55.37,50.73,87.43V1872.87C1480.89,1894.17,1470.74,1907.41,1454.4,1907.41Z" fill="url(#b8ad66bd-8ae5-4e9d-b734-65e6e714a6d6)"/><path d="M948.32,236.43v4h0c6.45,0,13.79,2.27,21.24,6.57l459.6,265.35c27.42,15.83,49.73,54.28,49.73,85.7V1872.87c0,20.07-9.39,32.54-24.49,32.54-6.45,0-13.79-2.27-21.24-6.57l-459.6-265.35c-27.42-15.84-49.73-54.28-49.73-85.71V273c0-10.27,2.43-18.73,7-24.46a21.6,21.6,0,0,1,17.46-8.08v-4m0,0c-16.9,0-28.49,13.37-28.49,36.54V1547.78c0,32.75,23.16,72.68,51.73,89.17l459.6,265.35c8.36,4.83,16.25,7.11,23.24,7.11,16.89,0,28.49-13.37,28.49-36.54V598.05c0-32.75-23.16-72.67-51.73-89.16L971.56,243.54c-8.36-4.83-16.25-7.12-23.24-7.11Z" fill="#fafbfc"/><path d="M948.32,236.43v2h0c6.89,0,14.38,2.3,22.24,6.84l459.6,265.35c28,16.15,50.73,55.37,50.73,87.43V1872.87c0,21.3-10.15,34.54-26.49,34.54-6.89,0-14.38-2.3-22.24-6.84l-459.6-265.35c-28-16.15-50.73-55.37-50.73-87.44V273c0-21.31,10.15-34.54,26.49-34.54v-2m0,0c-16.9,0-28.49,13.37-28.49,36.54V1547.78c0,32.75,23.16,72.68,51.73,89.17l459.6,265.35c8.36,4.83,16.25,7.11,23.24,7.11,16.89,0,28.49-13.37,28.49-36.54V598.05c0-32.75-23.16-72.67-51.73-89.16L971.56,243.54c-8.36-4.83-16.25-7.12-23.24-7.11Z" fill="#fff"/><path d="M1421.58,1885.43,979.51,1633.35c-28.16-16.26-51-55.61-51-87.89V288.9c0-32.29,22.83-45.28,51-29L1421.58,512c28.16,16.26,51,55.61,51,87.89V1856.42C1472.57,1888.7,1449.74,1901.69,1421.58,1885.43Z" fill="url(#ac49dac5-b690-45e8-916f-9c4f3dab50ee)"/><path d="M1413.5,1674.49l-424.28-245c-19.44-11.23-35.2-38.4-35.2-60.69v-299.2c0-22.29,15.76-31.26,35.2-20l424.28,245c19.44,11.22,35.2,38.39,35.2,60.68v299.21C1448.7,1676.75,1432.94,1685.72,1413.5,1674.49Z" fill="#fff"/><path d="M1012.3,1235v92.11c0,3.81-2.7,5.34-6,3.42a13.28,13.28,0,0,1-6-10.38V1228c0-3.81,2.7-5.34,6-3.42A13.25,13.25,0,0,1,1012.3,1235Zm59.62,73.57c-3.32-1.92-6-.38-6,3.43v46a13.26,13.26,0,0,0,6,10.38c3.33,1.92,6,.39,6-3.42V1318.9A13.25,13.25,0,0,0,1071.92,1308.52Zm65.65,21.27c-3.32-1.92-6-.38-6,3.43v62.69a13.25,13.25,0,0,0,6,10.37c3.33,1.92,6,.39,6-3.42v-62.69A13.25,13.25,0,0,0,1137.57,1329.79Zm65.65,64.73c-3.33-1.92-6-.38-6,3.43v35.86a13.25,13.25,0,0,0,6,10.38c3.32,1.92,6,.38,6-3.43V1404.9A13.28,13.28,0,0,0,1203.22,1394.52Zm65.65,50.63c-3.33-1.92-6-.39-6,3.42v23.14a13.25,13.25,0,0,0,6,10.38c3.32,1.92,6,.38,6-3.43v-23.14A13.26,13.26,0,0,0,1268.87,1445.15Zm131.29,40.48c-3.32-1.92-6-.39-6,3.42v58.46a13.26,13.26,0,0,0,6,10.38c3.33,1.92,6,.39,6-3.42V1496A13.24,13.24,0,0,0,1400.16,1485.63Zm-59.62,30.94V1502.3a13.28,13.28,0,0,0-6-10.38c-3.33-1.92-6-.38-6,3.43v14.26a11.22,11.22,0,0,0,1,4.38l0,0h0c.09.2.18.4.28.6l.08.16a13.07,13.07,0,0,0,4.05,4.82,6.64,6.64,0,0,0,.6.38c.2.12.4.22.59.31a4.34,4.34,0,0,0,3,.38,2.85,2.85,0,0,0,.63-.25,3,3,0,0,0,.54-.42,4.25,4.25,0,0,0,1.19-2.77C1340.53,1517,1340.54,1516.8,1340.54,1516.57Z" fill="#10141b" fill-opacity="0.05"/><line x1="995.65" y1="1326.32" x2="995.65" y2="1234.21" fill="none" stroke="#85d8d1" stroke-linecap="round" stroke-miterlimit="10" stroke-opacity="0.4" stroke-width="20"/><line x1="1061.3" y1="1364.22" x2="1061.3" y2="1318.16" fill="none" stroke="#85d8d1" stroke-linecap="round" stroke-miterlimit="10" stroke-opacity="0.4" stroke-width="20"/><line x1="1126.95" y1="1402.12" x2="1126.95" y2="1339.43" fill="none" stroke="#85d8d1" stroke-linecap="round" stroke-miterlimit="10" stroke-opacity="0.4" stroke-width="20"/><line x1="1192.6" y1="1440.02" x2="1192.6" y2="1404.16" fill="none" stroke="#85d8d1" stroke-linecap="round" stroke-miterlimit="10" stroke-opacity="0.4" stroke-width="20"/><line x1="1258.24" y1="1477.92" x2="1258.24" y2="1454.79" fill="none" stroke="#85d8d1" stroke-linecap="round" stroke-miterlimit="10" stroke-opacity="0.4" stroke-width="20"/><line x1="1323.89" y1="1515.83" x2="1323.89" y2="1501.56" fill="none" stroke="#85d8d1" stroke-linecap="round" stroke-miterlimit="10" stroke-opacity="0.4" stroke-width="20"/><line x1="1389.54" y1="1553.73" x2="1389.54" y2="1495.27" fill="none" stroke="#85d8d1" stroke-linecap="round" stroke-miterlimit="10" stroke-opacity="0.4" stroke-width="20"/><line x1="995.65" y1="1326.32" x2="995.65" y2="1290.46" fill="none" stroke="#48c4ba" stroke-linecap="round" stroke-miterlimit="10" stroke-opacity="0.4" stroke-width="20"/><line x1="1061.3" y1="1364.22" x2="1061.3" y2="1330.5" fill="none" stroke="#48c4ba" stroke-linecap="round" stroke-miterlimit="10" stroke-opacity="0.4" stroke-width="20"/><line x1="1126.95" y1="1402.12" x2="1126.95" y2="1375.41" fill="none" stroke="#48c4ba" stroke-linecap="round" stroke-miterlimit="10" stroke-opacity="0.4" stroke-width="20"/><line x1="1192.6" y1="1440.02" x2="1192.6" y2="1426.67" fill="none" stroke="#48c4ba" stroke-linecap="round" stroke-miterlimit="10" stroke-opacity="0.4" stroke-width="20"/><line x1="1258.24" y1="1477.92" x2="1258.24" y2="1471.25" fill="none" stroke="#48c4ba" stroke-linecap="round" stroke-miterlimit="10" stroke-opacity="0.4" stroke-width="20"/><line x1="1323.89" y1="1515.83" x2="1323.89" y2="1515.83" fill="none" stroke="#48c4ba" stroke-linecap="round" stroke-miterlimit="10" stroke-opacity="0.4" stroke-width="20"/><line x1="1389.54" y1="1553.73" x2="1389.54" y2="1512.38" fill="none" stroke="#48c4ba" stroke-linecap="round" stroke-miterlimit="10" stroke-opacity="0.4" stroke-width="20"/><path d="M1018.58,1407l-12.37-7.14c-4.55-2.63-8.24-9-8.24-14.21h0c0-5.22,3.69-7.32,8.24-4.69l12.37,7.13c4.55,2.63,8.24,9,8.24,14.22h0C1026.82,1407.52,1023.13,1409.62,1018.58,1407Z" fill="#85d8d1" fill-opacity="0.8"/><path d="M1087.33,1446.68l-45.08-26c-4.56-2.63-8.25-9-8.25-14.21h0c0-5.22,3.69-7.32,8.25-4.69l45.08,26c4.56,2.63,8.25,9,8.25,14.21h0C1095.58,1447.21,1091.89,1449.31,1087.33,1446.68Z" fill="#85d8d1" fill-opacity="0.8"/><path d="M1251.17,1299.86l-245-141.42c-4.55-2.63-8.24-9-8.24-14.21h0c0-5.22,3.69-7.32,8.24-4.69l245,141.42c4.55,2.63,8.24,9,8.24,14.21h0C1259.41,1300.39,1255.72,1302.49,1251.17,1299.86Z" fill="#d0d8dc"/><path d="M1133.88,1473.56h0c-4.56-2.63-8.25-9-8.25-14.22h0c0-5.22,3.69-7.32,8.25-4.69h0c4.55,2.63,8.24,9,8.24,14.21h0C1142.12,1474.08,1138.43,1476.18,1133.88,1473.56Z" fill="#85d8d1" fill-opacity="0.4"/><path d="M1188.13,1504.88l-30-17.31c-4.55-2.63-8.24-9-8.24-14.22h0c0-5.22,3.69-7.32,8.24-4.69l30,17.32c4.56,2.63,8.25,9,8.25,14.21h0C1196.38,1505.41,1192.69,1507.51,1188.13,1504.88Z" fill="#85d8d1" fill-opacity="0.4"/><line x1="993.46" y1="1467.53" x2="1409.96" y2="1708.64" fill="none" stroke="#0071b0" stroke-linecap="round" stroke-miterlimit="10" stroke-opacity="0.3" stroke-width="3"/><ellipse cx="1405.75" cy="652.57" rx="34.94" ry="60.53" transform="translate(-137.05 800.01) rotate(-30.36)" fill="#10141b" fill-opacity="0.05"/><ellipse cx="1377.42" cy="669.17" rx="34.94" ry="60.53" transform="translate(-149.33 787.97) rotate(-30.36)" fill="#a63c97" fill-opacity="0.4"/><g opacity="0.4"><path d="M1286.12,568.29v5a16.29,16.29,0,0,1,7.89,2.51c11.19,6.45,20.64,22.74,20.64,35.55,0,3.41-.75,11.35-7.74,11.35a16.46,16.46,0,0,1-7.9-2.51c-11.19-6.46-20.64-22.75-20.64-35.56,0-3.41.76-11.34,7.75-11.34v-5m0,0c-7.56,0-12.75,6-12.75,16.34,0,14.65,10.36,32.51,23.14,39.89a21.21,21.21,0,0,0,10.4,3.18c7.55,0,12.74-6,12.74-16.35,0-14.65-10.36-32.51-23.14-39.88a21,21,0,0,0-10.39-3.18Z" fill="#a63c97"/></g><ellipse cx="1316.46" cy="586.27" rx="12.33" ry="21.36" transform="translate(-115.79 745.79) rotate(-30.36)" fill="#0088a1" opacity="0.2"/><path d="M1162.56,523.42l-160.7-92.77a8.29,8.29,0,0,1-3.76-6.49h0c0-2.39,1.68-3.35,3.76-2.15l160.7,92.78a8.29,8.29,0,0,1,3.76,6.49h0C1166.32,523.67,1164.64,524.62,1162.56,523.42Z" fill="#d0d8dc"/><path d="M1197.94,680.11l-81.14-46.85c-10.35-6-18.74-1.2-18.74,10.66h0c0,11.87,8.39,26.33,18.74,32.3l81.14,46.85c10.35,6,18.74,1.2,18.74-10.66h0C1216.68,700.55,1208.29,686.09,1197.94,680.11Z" fill="#0088a1" opacity="0.2"/><path d="M1062,624.06l-61.52-35.53a5.3,5.3,0,0,1-2.42-4.16h0c0-1.53,1.08-2.15,2.42-1.38L1062,618.51a5.32,5.32,0,0,1,2.42,4.17h0C1064.46,624.21,1063.38,624.83,1062,624.06Z" fill="#fff" opacity="0.4"/><path d="M1131.72,420.72l-55.79-32.21a5.32,5.32,0,0,1-2.42-4.17h0c0-1.53,1.08-2.15,2.42-1.38l55.79,32.21a5.34,5.34,0,0,1,2.41,4.17h0C1134.13,420.87,1133.05,421.49,1131.72,420.72Z" fill="#d0d8dc"/><path d="M1229.25,477l-55.78-32.21a5.32,5.32,0,0,1-2.42-4.17h0c0-1.53,1.08-2.14,2.42-1.37l55.78,32.21a5.3,5.3,0,0,1,2.42,4.16h0C1231.67,477.18,1230.59,477.8,1229.25,477Z" fill="#fff" opacity="0.4"/><path d="M1229.25,491.61l-55.78-32.2a5.33,5.33,0,0,1-2.42-4.17v-3.71c0-1.53,1.08-2.15,2.42-1.38l55.78,32.21a5.32,5.32,0,0,1,2.42,4.17v3.71C1231.67,491.77,1230.59,492.38,1229.25,491.61Z" fill="#a63c97" opacity="0.4"/><path d="M1401.64,576.55l-55.79-32.2a5.35,5.35,0,0,1-2.42-4.17h0c0-1.53,1.09-2.15,2.42-1.38L1401.64,571a5.34,5.34,0,0,1,2.41,4.17h0C1404.05,576.71,1403,577.33,1401.64,576.55Z" fill="#fff" opacity="0.4"/><path d="M957.24,314.36l18.1-10.3c2.71-1.54,7.1,1,9.81,5.67l18.1,31.19c2.71,4.67,2.71,9.71,0,11.25l-18.1,10.29c-2.71,1.55-7.1-1-9.81-5.66l-18.1-31.19C954.53,320.94,954.53,315.9,957.24,314.36Z" opacity="0.65" fill="url(#f69cb64b-fb01-43e8-9743-d6bf4776f787)"/><path d="M1413.5,1261l-424.28-245c-19.44-11.22-35.2-38.39-35.2-60.68V656.16c0-22.29,15.76-31.26,35.2-20l424.28,245c19.44,11.23,35.2,38.4,35.2,60.69V1241C1448.7,1263.27,1432.94,1272.23,1413.5,1261Z" fill="#10141b" fill-opacity="0.05"/><path d="M1354.26,1292.47,930,1047.51c-19.45-11.22-35.21-38.39-35.21-60.68V687.62c0-22.29,15.76-31.26,35.21-20l424.27,244.95c19.44,11.23,35.21,38.4,35.21,60.69v299.2C1389.47,1294.73,1373.7,1303.69,1354.26,1292.47Z" fill="#0088a1" fill-opacity="0.2"/><path d="M1347.37,1291.6,930,1047.51c-19.45-11.22-35.21-38.39-35.21-60.68V687.62c0-22.29,13.31-23.91,35.21-12l424.27,244.95c19.44,11.23,28.32,37.54,28.32,59.83v291.2C1382.58,1293.86,1366.82,1302.83,1347.37,1291.6Z" fill="url(#aaf657ba-f0e9-4ca0-a887-e1228e30854a)"/><path d="M1082.41,1111.89l-112.27-64.82c-17.39-10-31.49-34.34-31.49-54.28h0c0-19.93,14.1-27.95,31.49-17.91l112.27,64.82c17.39,10,31.49,34.34,31.49,54.27h0C1113.9,1113.91,1099.8,1121.93,1082.41,1111.89Z" fill="#10141b" fill-opacity="0.2"/><path d="M1068.53,1117.13l-112.27-64.82c-17.39-10-31.49-34.34-31.49-54.27h0c0-19.94,14.1-28,31.49-17.92l112.27,64.82c17.39,10,31.49,34.34,31.49,54.28h0C1100,1119.15,1085.92,1127.17,1068.53,1117.13Z" fill="url(#fd67f144-4ddd-4149-99ea-b4230f28b93d)"/><line x1="944.91" y1="980.03" x2="1073.51" y2="1054.47" fill="none" stroke="#ff73c3" stroke-linecap="round" stroke-miterlimit="10" stroke-opacity="0.3" stroke-width="3"/><path d="M983.44,844.62l-22.68-13.1c-12.21-7-22.11-24.11-22.11-38.11h0c0-14,9.9-19.63,22.11-12.58l22.68,13.1C995.65,801,1005.55,818,1005.55,832h0C1005.55,846,995.65,851.67,983.44,844.62Z" fill="#0088a1" fill-opacity="0.5"/><path d="M997.06,952l-55.78-32.21a5.32,5.32,0,0,1-2.42-4.17h0c0-1.53,1.08-2.15,2.42-1.38l55.78,32.21a5.32,5.32,0,0,1,2.42,4.17h0C999.48,952.17,998.4,952.79,997.06,952Z" fill="#fff" opacity="0.4"/><path d="M1038.71,949.69l-97.43-56.26a5.3,5.3,0,0,1-2.42-4.16h0c0-1.53,1.08-2.15,2.42-1.38l97.43,56.25a5.35,5.35,0,0,1,2.42,4.17h0C1041.13,949.84,1040,950.46,1038.71,949.69Z" fill="#fff" opacity="0.4"/><path d="M1038.71,797.61l-97.43-56.26a5.3,5.3,0,0,1-2.42-4.16h0c0-1.53,1.08-2.15,2.42-1.38l97.43,56.25a5.35,5.35,0,0,1,2.42,4.17h0C1041.13,797.76,1040,798.38,1038.71,797.61Z" fill="#fff" opacity="0.4"/><ellipse cx="1273.36" cy="1023.86" rx="20.88" ry="36.17" transform="translate(-342.87 784.01) rotate(-30.36)" fill="#10141b" fill-opacity="0.15"/><ellipse cx="1263.17" cy="1029.83" rx="20.88" ry="36.17" transform="translate(-347.29 779.68) rotate(-30.36)" fill="#a63c97" fill-opacity="0.8"/><g opacity="0.4"><path d="M1273.53,1103.35c-38.1-22-69.09-75.42-69.09-119.09s31-61.31,69.09-39.31,69.09,75.42,69.09,119.09S1311.62,1125.34,1273.53,1103.35Zm0-144.6c-31.46-18.16-57-3.6-57,32.46s25.59,80.17,57,98.33,57,3.6,57-32.45S1305,976.91,1273.53,958.75Z" fill="#fff"/><path d="M1273.53,1103.35c-38.1-22-69.09-75.42-69.09-119.09s31-61.31,69.09-39.31,69.09,75.42,69.09,119.09S1311.62,1125.34,1273.53,1103.35Zm0-144.6c-31.46-18.16-57-3.6-57,32.46s25.59,80.17,57,98.33,57,3.6,57-32.45S1305,976.91,1273.53,958.75Z" fill="#fff"/></g><g opacity="0.6"><path d="M1273.53,1103.35c-38.1-22-69.09-75.42-69.09-119.09s31-61.31,69.09-39.31a13.26,13.26,0,0,1,6,10.38c0,3.81-2.7,5.34-6,3.42-31.46-18.16-57-3.6-57,32.46s25.59,80.17,57,98.33c18.19,10.51,34.87,10.54,45.76.08,2-1.91,5.76-.36,8.43,3.46s3.21,8.46,1.23,10.37C1316,1115.92,1295.24,1115.88,1273.53,1103.35Z" fill="#0088a1"/></g><line x1="918.11" y1="668.32" x2="1350.15" y2="916.86" fill="none" stroke="#cdf7f3" stroke-linecap="round" stroke-miterlimit="10" stroke-width="3"/><path d="M1279.82,699.46,1019.37,549.09c-11.86-6.85-21.48-23.43-21.48-37h0c0-13.6,9.62-19.07,21.48-12.22L1279.82,650.2c11.86,6.85,21.48,23.43,21.48,37h0C1301.3,700.84,1291.68,706.31,1279.82,699.46Z" fill="#d0d8dc"/><path d="M1501.4,767.47h0c-2.69,1.55-4.87-.1-4.87-3.68V697.54c0-3.59,2.18-7.75,4.87-9.3h0c2.68-1.55,4.86.09,4.86,3.68v66.25C1506.26,761.76,1504.08,765.92,1501.4,767.47Zm4.86,88.32V789.54c0-3.59-2.18-5.23-4.86-3.68h0c-2.69,1.55-4.87,5.71-4.87,9.3v66.25c0,3.58,2.18,5.23,4.87,3.68h0C1504.08,863.54,1506.26,859.38,1506.26,855.79Zm0,64.12V887.16c0-3.59-2.18-5.23-4.86-3.68h0c-2.69,1.55-4.87,5.71-4.87,9.29v32.76c0,3.58,2.18,5.23,4.87,3.68h0C1504.08,927.65,1506.26,923.49,1506.26,919.91Z" fill="url(#a5dc8283-b6ef-4e9f-afa2-bdb8d74ef52b)"/><path d="M1403.31,1849.35,996.05,1614.22c-23.62-13.64-42.77-50.23-42.77-81.72v-31.77c0-31.5,19.15-46,42.77-32.34l407.26,235.13c23.62,13.64,42.77,50.23,42.77,81.73V1817C1446.08,1848.51,1426.93,1863,1403.31,1849.35Z" fill="#fff"/><ellipse cx="1197.34" cy="1660.27" rx="28.45" ry="49.28" transform="translate(-674.97 832.87) rotate(-30.36)" fill="#0088a1" opacity="0.2"/><path d="M1116.89,1634.33l-9.7-5.6c-7.17-4.14-13-15.34-13-24.9v-6.25c0-9.56,5.86-14,13-9.85l9.7,5.6c7.17,4.14,13,15.34,13,24.9v6.25C1129.93,1634,1124.06,1638.47,1116.89,1634.33Z" fill="#f3f5f7"/><path d="M1055.78,1599.05l-48.11-27.78c-7.16-4.13-13-15.34-13-24.9v-6.25c0-9.55,5.87-14,13-9.85l48.11,27.77c7.16,4.14,13,15.35,13,24.9v6.25C1068.81,1598.75,1062.94,1603.18,1055.78,1599.05Z" fill="#f3f5f7"/><path d="M1278.25,1727.49l9.71,5.61c7.17,4.13,13-.3,13-9.86V1717c0-9.55-5.86-20.76-13-24.9l-9.71-5.6c-7.16-4.14-13,.3-13,9.85v6.25C1265.22,1712.15,1271.09,1723.36,1278.25,1727.49Z" fill="#f3f5f7"/><path d="M1339.37,1762.78l48.11,27.77c7.16,4.14,13-.29,13-9.85v-6.25c0-9.56-5.87-20.76-13-24.9l-48.11-27.77c-7.17-4.14-13,.29-13,9.85v6.25C1326.34,1747.44,1332.2,1758.64,1339.37,1762.78Z" fill="#f3f5f7"/></g></g><g id="a713e95d-dbcc-48c4-9b2a-e9578f2470f9" data-name="MAN"><use width="262" height="66" transform="translate(1430.58 2012.63) scale(1.2)" xlink:href="#b1e2529a-b7bf-4c7c-a31e-eb06d774d700"/><ellipse cx="1744.86" cy="2044.27" rx="34.96" ry="20.18" transform="translate(-12.83 11.02) rotate(-0.36)" fill-opacity="0.77" fill="url(#ef78b2dc-5bb1-4d62-8131-38a028ea6fa8)"/><g id="b800523a-0e61-488e-9603-6f40f7bfedab" data-name="Layer1 1 FILL"><path d="M1365.6,1272.59q.56-5.71,3.55-7.91l9.47-3.54c3.28-1.27,5.14-.58,5.6,2.06l-1.4,15.57c3-2.88,5.57-3.31,7.66-1.32l-9.06,18.53q11.19,73.08,10.54,113.42l63.26,38-55.85,54a267.52,267.52,0,0,1-36.65-68.94A624.2,624.2,0,0,1,1365.6,1272.59Z" fill="#e8ceb7"/></g><g id="bf1109f2-4f6b-41f1-9df3-8899239c73f5" data-name="Layer1 1 FILL"><path d="M1365.6,1272.18q.56-5.72,3.55-7.91l9.47-3.54c3.28-1.27,5.14-.58,5.6,2.06l-1.4,15.56q4.53-4.3,7.66-1.31l-9.06,18.53q11.19,73.07,10.54,113.42l63.26,38-55.85,53.94a267.3,267.3,0,0,1-36.65-68.93A624.2,624.2,0,0,1,1365.6,1272.18Z" fill="url(#b9a03cf0-745a-45f7-815f-d7127f1faaf4)"/></g><g id="fd75e785-29f6-425d-94e4-58964bd1562c" data-name="Layer1 2 FILL"><path d="M1492.94,1214.9l7.72,37a864.08,864.08,0,0,1,54.75,103.81,469,469,0,0,1-4.1,77l-40-3.78,9.67-75.65q-16.71-38.34-37.6-97l-8.27-7.45q-3-1.95-1.62-6.19l9.88,3.92-.74-16.28q-.24-10.46,3.39-14.85Q1490.65,1212.53,1492.94,1214.9Z" fill="#e8ceb7"/></g><g id="b2fb85c8-d14e-43c9-94a0-352898105ec0" data-name="Layer1 2 FILL"><path d="M1492.41,1213.73l7.73,37a862.59,862.59,0,0,1,54.74,103.81,469,469,0,0,1-4.1,77l-40-3.78,9.66-75.65q-16.7-38.34-37.6-97l-8.27-7.45q-3-2-1.61-6.19l9.87,3.92-.74-16.28q-.23-10.44,3.39-14.85Q1490.12,1211.36,1492.41,1213.73Z" fill="url(#a87e9875-8193-4215-b3aa-ea0584dc4f94)"/></g><g id="a993606b-ee3f-4452-a8f9-1b4e6b8f3508" data-name="Layer1 3 FILL"><path d="M1502.49,1466l12-74.78q33.81-3.51,47,16.3v93.08Z" fill="#396c98"/></g><g id="a2e79362-b4cc-4c44-a801-fe97c6e5a745" data-name="Layer1 3 FILL"><path d="M1502.49,1464.71l12-74.78q33.81-3.51,47,16.3v93.08Z" fill="url(#e2bcf8c0-d890-4748-acc8-c09575a00d57)"/></g><g id="a889538c-c0d4-46dd-9c81-564de7f34004" data-name="Layer1 4 MEMBER 0 FILL"><path d="M1528.65,1352.57q-29.09-21.28-51.06-4.2-4.92,8.16-10.95,28.74l-3.42,4.54q-1.68,7.72.6,23.92,4.89,4,17.63,6.41a172.35,172.35,0,0,0,.59,42.35l33,1.71-4.75-45.28Q1545.1,1384.24,1528.65,1352.57Z" fill="#e8ceb7"/></g><g id="a0c09308-4c38-42e8-983f-a779cbf51ccc" data-name="Layer1 4 MEMBER 0 FILL"><path d="M1528.65,1352.57q-29.09-21.28-51.06-4.2-4.92,8.16-10.95,28.74l-3.42,4.54q-1.68,7.72.6,23.92,4.89,4,17.63,6.41a172.35,172.35,0,0,0,.59,42.35l33,1.71-4.75-45.28Q1545.1,1384.24,1528.65,1352.57Z" fill="url(#e9d60e59-b528-4557-a3a1-b8ba91c54664)"/></g><g id="f40e029f-de36-4386-a9c1-347be26606e7" data-name="Layer1 4 MEMBER 1 FILL"><path d="M1484.66,1405.31l-4.78,2.35-15.45-1.93a47,47,0,0,0,17,6.25,1,1,0,0,1-.1.36Q1483.83,1410.81,1484.66,1405.31Z" fill="#b1bec7"/></g><g id="a173fa01-c0fd-4193-86c8-8e5052a5c63d" data-name="Layer1 4 MEMBER 2 FILL"><path d="M1518.18,1337.26q2.46-1.38,6.41-6.46,6.92-8.58-15.16-8.35t-24.66,21.31a14.23,14.23,0,0,1,10.25,2q4.43,2.85,4.84,3.25-7.48-3.92-17,2.33l.17,8.09-2.73,15.5q-.88-6.93-7.3,3.5c-.87,1.53-1.58,2.72-2.13,3.58l-8.6,6.91q-3.69,4.36-5.88,13.23l-6.91,22.42q-1,8,31.53-1.42l1-10q5.09-.42,6.77-6.36,1.08-11.73-1.78-19,4.37,6,6,5.24l1,16.11a6.2,6.2,0,0,0,5.81,4l5.7,2.44q1.73,4.89,8,4.21l2.08-13.08a67.8,67.8,0,0,0,22.35-32.05q6.1-18.75-4-26.38-3.32-4-9.82-5.49c.19-3.68-1.78-5.5-5.94-5.48m-32.44,28.57a3.77,3.77,0,0,1,4.13.07,4.38,4.38,0,0,1,1.46,3.76q-.27,6.81-9.09,12.11Z" fill="#0b477d"/></g><g id="a3ac5c3e-a604-4260-ba5c-94bb7bbb6feb" data-name="Layer1 4 MEMBER 3 FILL"><g opacity="0.68"><path d="M1488.09,1406.35a67.08,67.08,0,0,0,.29-7.85,13.83,13.83,0,0,1-.28-3.32q0-3-1.5,4.15-1.42,7.26-4.84,9.34a23,23,0,0,1-6.28,2.61q-8.37,1.65-12.43,2.77-7.4,1.9-11.44,5.37a18.56,18.56,0,0,0-1.91,1.83l-.9,2.87q-1,8,31.53-1.42l1-10a6.79,6.79,0,0,0,3.28-1.07,3.8,3.8,0,0,1,.65-1,11.8,11.8,0,0,0,2-2.19,11.44,11.44,0,0,0,.82-2.11m38.81-62.95a23,23,0,0,0-3.48-1.07,5.71,5.71,0,0,0-.77-3.45c-.69-.05-1.41-.12-2.15-.19a9.21,9.21,0,0,0-2.38.15,2.15,2.15,0,0,0-1.61,1.64,2,2,0,0,0,1.64,2.13,7.84,7.84,0,0,0,2.8.23,35.59,35.59,0,0,1,6,.56m8.78,15.2a21.86,21.86,0,0,0-10.9-1.49q-16.54,1.76-29,29.63a95.17,95.17,0,0,0-1.61,14.75q-.2,6.87,1.56,10.16a6.44,6.44,0,0,0,3.36,1l5.71,2.43q1.73,4.91,8,4.21l2.07-13.07a67.73,67.73,0,0,0,22.35-32,39,39,0,0,0,2.23-13.16q-.76-1.2-3.76-2.44m-48.62,6.06,0,.12.76.07-.73-.19m1.57.42.54.4a4.41,4.41,0,0,1,1.46,3.77q-.26,6.59-9.61,12.61,5.12,3.15,10.48-.82,7.89-11.7-2.87-16m18.16-34.34q-.61,2.29,2,4a11.24,11.24,0,0,0,4.61,1.23c1.59.19,3.15.35,4.67.47a30.41,30.41,0,0,0,5.79-6.1c2.1-2.56,2.2-4.56.32-6a30.13,30.13,0,0,0-11.5,1.72,11.3,11.3,0,0,0-4.24,2.24A3.83,3.83,0,0,0,1506.79,1330.74Z" fill="url(#bb52d77f-1c49-4ca2-953e-012c06a902c6)"/></g></g><g id="abe148a6-ddc0-4578-bcbd-360ff8d0ea81" data-name="Layer1 5 FILL"><path d="M1726.28,1982.66q2.52,9.18,5,18.37l-9.3-18.37a3.34,3.34,0,0,1,1.89-1.07,4,4,0,0,1,2.14-.09c.07.41.15.79.25,1.16m.91-54.45a43.11,43.11,0,0,1,7,3.55q-19.32-1.24,5.27,85.33L1731.3,2001q-2.5-9.19-5-18.37Q1713.85,1933,1727.19,1928.21Z" fill="#f5f9fa"/><path d="M1677.36,1935l9-30,40.86,23.22q-13.35,4.77-.91,54.45c-.1-.37-.18-.75-.25-1.16a4,4,0,0,0-2.14.09,3.34,3.34,0,0,0-1.89,1.07l-11.37-22.41L1677.36,1935m56.83-3.21q6.68,4.53,8.48,11,7.69,27.63,8.48,67-.29,15.71-11.69,7.25Q1714.88,1930.53,1734.19,1931.76Z" fill="#06467b"/></g><path id="a817d26f-6c5f-4cab-86f2-a8d43ad04164" data-name="Layer1 5 1 STROKES" d="M1734.15,1931.8q-19.28-1.27,5.31,85.29M1731.3,2001q-2.5-9.19-5-18.37-12.43-49.68.91-54.45" fill="none" stroke="#045989" stroke-linecap="round" stroke-linejoin="round" stroke-opacity="0.98"/><g id="ff736754-f0f7-44ae-9be6-d12f9fca95e8" data-name="Layer1 6 FILL"><path d="M1596.8,1656.9q30.09,108.63,29.08,169.59,35.82,30.78,76.84,87.48l-2.71,34.67q-49.37-23.15-106.83-70.17-65.23-94.18-91.92-179.89Z" fill="#0b477d"/></g><g id="b8239efb-3952-4a9d-abaf-f23554791dbf" data-name="Layer1 6 FILL"><path d="M1596.8,1656.9q30.09,108.63,29.08,169.59,35.82,30.78,76.84,87.48l-2.71,34.67q-49.37-23.15-106.83-70.17-65.23-94.18-91.92-179.89Z" fill="url(#a0c8700e-0b57-4c83-abcd-3f65edde7bdd)"/></g><g id="fe4e7907-9fff-4484-ac35-e9e0bd176890" data-name="Layer1 7 MEMBER 0 FILL"><path d="M1533.38,2069.31v2.8q2.22,6.91-19.68,7.74-27.77-11.11-42.09-18.2-14.91-7.43-15.32-10.46a12.44,12.44,0,0,1,.74-4.37q3.46-10.21,25.53-10.63l11.53,1.32A30.65,30.65,0,0,0,1473.5,2056a231.33,231.33,0,0,0,44.73,15.73A32.63,32.63,0,0,0,1533.38,2069.31Z" fill="#f5f9fa"/><path d="M1502.49,2001.93l28.92,8.65,2,58.73a32.63,32.63,0,0,1-15.15,2.38A231.33,231.33,0,0,1,1473.5,2056a30.65,30.65,0,0,1,20.59-18.45l7.66.91Z" fill="#06467b"/></g><path id="b69438ad-0ef0-4581-9936-5803719aa701" data-name="Layer1 7 MEMBER 0 MEMBER 0 1 STROKES" d="M1456.14,2053.48q14.74,11.68,63.41,26.27,6,.61,14.5-3" fill="none" stroke="#000" stroke-linecap="square" stroke-linejoin="round" stroke-opacity="0.98" stroke-width="1"/><path id="fde078a7-560c-411e-a23b-afc51cfaacd8" data-name="Layer1 7 MEMBER 0 MEMBER 1 1 STROKES" d="M1456.36,2045.21q3.14,9.49,63.4,26.26a30.67,30.67,0,0,0,12.46-1.49" fill="none" stroke="#000" stroke-linecap="square" stroke-linejoin="round" stroke-opacity="0.98" stroke-width="1"/><g id="f3c85d3c-0cb5-4754-9d30-a9199a3ced5a" data-name="Layer1 8 FILL"><path d="M1468.23,1877.48q-11.71-94.93-6.09-210.28l109.38,12.27q-5.58,98-38.06,202.46,3.43,41.57-5.35,127.58-3.55,12.45-30.31,3.46Q1475.14,1943.85,1468.23,1877.48Z" fill="#0b477d"/></g><g id="bb5bf985-8623-4f2b-8665-b61b825b7b4c" data-name="Layer1 8 FILL"><path d="M1468.23,1877.48q-11.71-94.93-6.09-210.28l109.38,12.27q-5.58,98-38.06,202.46,3.43,41.57-5.35,127.58-3.55,12.45-30.31,3.46Q1475.14,1943.85,1468.23,1877.48Z" fill="url(#b7cbe8ed-e3ca-4e90-9ccd-dab3898403d0)"/></g><g id="b6af7d60-74e6-4f6a-b1fd-9aa851192da9" data-name="Layer1 9 FILL"><path d="M1510.07,1432.3q15.2-13,30.4,10.87,51.43,134.22,70.33,231.85,3.32,13.88-11,21.67a568.62,568.62,0,0,1-90.52,34.18q-58.32,11.69-55.6-38.14l-16.22-145.54q-.45-80.94,23.8-91Z" fill="#396c98"/></g><g id="f7aa9c16-e4cc-4ca4-aaa8-efb5ebb49984" data-name="Layer1 9 FILL"><path d="M1510.07,1432.3q15.2-13,30.4,10.87,51.43,134.22,70.33,231.85,3.32,13.88-11,21.67a568.62,568.62,0,0,1-90.52,34.18q-58.32,11.69-55.6-38.14l-16.22-145.54q-.45-80.94,23.8-91Z" fill="url(#b507a077-ab01-4eef-9ec4-5c17a0d66e9a)"/></g><g id="a0b6ff74-e614-42d4-8efd-db39e1e69d9f" data-name="Layer1 10 FILL"><path d="M1502.49,1466q-15.13,32.77-48.76,107.24-34.9-39.72-75.36-104.11,19.58-46.23,45.22-40.77Z" fill="#396c98"/></g><g id="b1658ec7-e28d-471e-a85d-3520a80fd67f" data-name="Layer1 11 FILL"><path d="M1494.83,2003.25q31,0,32.46-.5a6,6,0,0,0,1.89-.82q7.53-.33,3.54,27.43-4.46,8.21-30.64,3.46-6.6-1.26-8.73-4.86l-1.81-17.13C1491.67,2005.89,1492.77,2003.37,1494.83,2003.25Z" fill="#5f89ad"/></g><g id="b25eef6b-39c5-42b1-a4f9-4c992bad3c3f" data-name="Layer1 12 FILL"><path d="M1695.39,1903.83q6.43-2.49,10.71,4.12,11.67,8,7.74,12.69-13.15,8.41-11.69,33.11,0,3.26-5.85,2-10.62-2.7-17.3-12.51a11.06,11.06,0,0,1-1.64-8.24Q1677.66,1914.72,1695.39,1903.83Z" fill="#5f89ad"/></g><g id="ac270e38-ac97-4042-905e-7acb4573cf30" data-name="Layer1 13 FILL"><path d="M1441.87,1586.07l-3.62-31.3a315.2,315.2,0,0,0,44.31,48.68A106.92,106.92,0,0,1,1441.87,1586.07Z" fill="url(#b25b376b-c370-4f4e-8e3e-17cb1742dd3c)"/></g></g><g id="b08d482a-051d-4b1f-b60f-62fbca03024f" data-name="Woman"><polygon points="967.21 1050.56 967.21 1067.29 953.5 1054.33 953.5 1035.36 967.21 1050.56" fill="url(#b9e46208-278b-42d1-b95c-b4b8938c68e7)"/><use width="262" height="66" transform="translate(741.68 1833.6) scale(0.58 0.4)" xlink:href="#b1e2529a-b7bf-4c7c-a31e-eb06d774d700"/><g id="f1efe95e-dd97-4f24-9713-52cd68363e30" data-name="WOMAN"><g id="e5a11bc0-44d3-4254-975d-5691f8c95a24" data-name="Layer1 17 FILL"><path d="M653.67,1609.27l21-5.1,5.76,18.12q-18,29-34.84,46.53a3.23,3.23,0,0,1-4.28.25c-1.37-.93-2.06-1.92-2.06-3q.75-14.24,6.51-35.82Q651.28,1609.85,653.67,1609.27Z" fill="#0a264b"/></g><g id="f5b09cd6-f1ef-4831-9eb8-37e6c6a7ee16" data-name="Layer1 18 FILL"><path d="M667.34,1605.73q120.28-31.68,140.92-18.94-99.72-76.59-129.06-170l117.2,39.86q45.71,55.44,69.27,138.54-32.58,44.5-189.93,37.56-6.51-3.13-8.81-13.26Q665,1610.59,667.34,1605.73Z" fill="#06467b"/></g><g id="b1f5aca3-da3a-46f2-b0c2-28ee8e090916" data-name="Layer1 18 FILL"><path d="M667.34,1605.73q120.28-31.68,140.92-18.94-99.72-76.59-129.06-170l117.2,39.86q45.71,55.44,69.27,138.54-32.58,44.5-189.93,37.56-6.51-3.13-8.81-13.26Q665,1610.59,667.34,1605.73Z" fill="url(#f2d985ec-fc31-43e4-84a8-980aea32b340)"/></g><g id="ac263eb3-d292-49d7-86af-87368f4d5ed5" data-name="Layer1 19 FILL"><path d="M670.88,1434.91c.18.91.37,1.82.58,2.71a8.06,8.06,0,0,0,.24.91q.69,3.21,1.4,6.43a37.64,37.64,0,0,1-5.1,18.77l-5.6,11.45a3.34,3.34,0,0,1-4.53,0l-5.6-6.26a8,8,0,0,1,0-5l6.91-16c-.54-.91-1.06-1.81-1.56-2.72a.71.71,0,0,1-.17-.24,1.64,1.64,0,0,1-.16-.33l-1.9-3.13a6.46,6.46,0,0,0,.75.24q5.19,1.24,10.29-2.47A22.78,22.78,0,0,0,670.88,1434.91Z" fill="#e8ceb7"/><path d="M710.41,1237.48v45.13q-34.54,27.2-65.48,65.24,14,35.88,26,87.06a22.78,22.78,0,0,1-4.45,4.36q-5.1,3.7-10.29,2.47a6.46,6.46,0,0,1-.75-.24Q616,1374.59,606.55,1332,667.26,1245.54,710.41,1237.48Z" fill="#628baf"/></g><g id="b4f4a385-d74e-4ca8-b5b7-be68797699c0" data-name="Layer1 20 FILL"><path d="M720.13,1809.67l4.86-20.59,26.85,15.4a266.78,266.78,0,0,1,15.9,41.92,3.35,3.35,0,0,1-2,3.87q-2.22,1.15-3.54.33-12-7.74-27.75-23.55Q719.47,1812.05,720.13,1809.67Z" fill="#0a264b"/></g><g id="f88d3f50-d331-41f1-a151-6373d55df06c" data-name="Layer1 21 FILL"><path d="M717.91,1428.89l98.26,20.35a1611.4,1611.4,0,0,1,0,161.27q-29.19,109.08-64.33,194a44.54,44.54,0,0,1-23.88,3.37q-12.29-1.55-5.36-8.48L753,1619.65Q722.18,1508.56,717.91,1428.89Z" fill="#225b8b"/></g><g id="f9105e6c-b87e-4445-bfeb-b74848685d54" data-name="Layer1 21 FILL"><path d="M717.91,1428.89l98.26,20.35a1611.4,1611.4,0,0,1,0,161.27q-29.19,109.08-64.33,194a44.54,44.54,0,0,1-23.88,3.37q-12.29-1.55-5.36-8.48L753,1619.65Q722.18,1508.56,717.91,1428.89Z" fill="url(#be3d0df9-b9fc-44d6-a926-93d0194f3892)"/></g><g id="a1d14aee-4674-46f2-8bca-2910fb08aec5" data-name="Layer1 22 FILL"><path d="M688.09,1261.86h22.32l-20.92,38.46-12.84,12.36Q678.21,1276.72,688.09,1261.86Z" fill="#3d6f9a"/></g><g id="bd495301-7052-46e1-b811-b6fccd1e115d" data-name="Layer1 23 FILL"><path d="M688.09,1261.86q.58-29.08,33.11-23.48l67,22.9q40,51.32,35.91,72.73-4.2,21.16-8,81.79v33.44q2.7,15.49.74,16.47t-18.45,3.21q-16.5,2.28-67.62-10.05T674,1426.34l27.92-51.15Q681.26,1306,688.09,1261.86Z" fill="#628baf"/></g><g id="b4144ee9-9086-49de-8798-d48895941e2d" data-name="Layer1 24 FILL"><path d="M963.65,1064.66l.52-.85-6,25.38c-.23,1.27-.44,2.54-.64,3.82l-.37,1.8q-.15.75-.24,1.5l-.08,0a4.82,4.82,0,0,1-.78.4,10.27,10.27,0,0,1-8.18-.61,25,25,0,0,1-6.75-5.08,48.48,48.48,0,0,1-3.89-4.48l2.29-5.74a.6.6,0,0,0,.13.14,1.37,1.37,0,0,1-.07-.29l2.48-6.2,5.78-25.81,5.34-13.38q2.53,2.85.21,9l-1.25,5.35q5.79-10.29,10.34-11.92,3.33,4.77,4.68,13.4Q965,1060.42,963.65,1064.66Z" fill="#e8ceb7"/><path d="M939.63,1080.62a1.37,1.37,0,0,0,.07.29.6.6,0,0,1-.13-.14l.06-.15m1.54,10.37a25,25,0,0,0,6.75,5.08,10.27,10.27,0,0,0,8.18.61,4.82,4.82,0,0,0,.78-.4q-9.76,50.4-31.9,103c-51.14,52.32-87.69,74.14-100,98.85l-1.19,26.08q-34,1.13-48.17-55.39l124.26-88.76,37.35-93.55A48.48,48.48,0,0,0,941.17,1091Z" fill="#628baf"/></g><g id="fd222674-3706-459d-b47a-1b4c0a2d9b8f" data-name="HEAD 0 Layer0 0 MEMBER 0 MEMBER 0 FILL"><path d="M722.27,1179.16q25.26-21.51,46.58-7.3,6.23,4.92,7.82,20.37l5.66,5.36q3.74,6.89,1.8,26.25-3,3.62-14.54,6.65a158.57,158.57,0,0,1,2.31,38.91l-30.21,3.79,1.31-41.87Q709.31,1209.33,722.27,1179.16Z" fill="#e8ceb7"/></g><g id="ae0cb6ae-23a1-4ac8-8368-696ff184d4e0" data-name="HEAD 0 Layer0 0 MEMBER 0 MEMBER 1 FILL"><path d="M765.5,1227.52q10.11.48,17.27-2.35-3.84,2.86-13.18,5.32a1.06,1.06,0,0,0,.11.33A14.82,14.82,0,0,1,765.5,1227.52Z" fill="#b1bec7"/></g><g id="f1263954-da03-48c7-ab6b-1d1d96917674" data-name="HEAD 0 Layer0 1 FILL"><path d="M778.94,1181.88c-1,1.52-2.56,1.06-4.77-1.4q2.31,6.81-.66,10.71-1.49.42-7,9.55L768,1203q29.16,41.83,20.84,66.63T754,1326.68q19.37,24.24,9.71,49.09-10.85,27.69-58.56,11.78t-34.26-34.76q10.54-10.49,21.09-9.72-23-76.62,29.23-92.33,16.31-4.9,2.15-30.89t.33-42.33q27.71-24.94,53.7-.91C779.28,1178.78,779.8,1180.53,778.94,1181.88Z" fill="#022e49"/></g><g id="f8772378-ca93-4899-8b99-8c6daee8dd62" data-name="HEAD 0 Layer0 1 FILL"><path d="M778.94,1181.88c-1,1.52-2.56,1.06-4.77-1.4q2.31,6.81-.66,10.71-1.49.42-7,9.55L768,1203q29.16,41.83,20.84,66.63T754,1326.68q19.37,24.24,9.71,49.09-10.85,27.69-58.56,11.78t-34.26-34.76q10.54-10.49,21.09-9.72-23-76.62,29.23-92.33,16.31-4.9,2.15-30.89t.33-42.33q27.71-24.94,53.7-.91C779.28,1178.78,779.8,1180.53,778.94,1181.88Z" fill="url(#b26b9355-ebcf-48a7-a444-58aaed6a967a)"/></g><path id="b9ce3b44-664b-4fe3-b982-8808f9ab074b" data-name="Layer1 26 1 STROKES" d="M653.67,1609.27q-9.43,39.87-9.15,60.29" fill="none" stroke="#a2adbb" stroke-linejoin="round" stroke-opacity="0.98"/><path id="fbb35695-8ec7-4ce2-864b-1fd095f89b9c" data-name="Layer1 27 1 STROKES" d="M767.74,1846.4q.53,4.88-47.61-36.73" fill="none" stroke="#a2adbb" stroke-linejoin="round" stroke-opacity="0.98"/><path id="b2156a72-192f-4f38-8568-06dbba9657bf" data-name="Layer1 28 1 STROKES" d="M663.71,1647.16l-8.23-5.85" fill="none" stroke="#a2adbb" stroke-linejoin="round" stroke-opacity="0.98"/><path id="a05199b2-6a65-4f8e-9969-8a4faac5ae1a" data-name="Layer1 29 1 STROKES" d="M667.67,1642.47l-8.24-5.85" fill="none" stroke="#a2adbb" stroke-linejoin="round" stroke-opacity="0.98"/><path id="add9f85d-99fc-4d16-8a10-a484f97c6bbf" data-name="Layer1 30 1 STROKES" d="M759.83,1823l-6.59,3.54" fill="none" stroke="#a2adbb" stroke-linejoin="round" stroke-opacity="0.98"/><path id="b2b28199-53a3-4f72-a4a7-d03c51981e90" data-name="Layer1 31 1 STROKES" d="M758.6,1817.74l-6.59,3.54" fill="none" stroke="#a2adbb" stroke-linejoin="round" stroke-opacity="0.98"/></g><ellipse cx="658.48" cy="1766.97" rx="34.96" ry="20.18" transform="translate(-11.1 4.18) rotate(-0.36)" fill-opacity="0.43" fill="url(#a27b9962-7c97-4e39-b46f-aafb2ae0308b)"/></g><g id="e91ba0ef-4b25-46b5-917b-49b1a5c1176f" data-name="Dog"><use width="262" height="66" transform="translate(1192.6 1874.81) scale(1.77)" xlink:href="#b1e2529a-b7bf-4c7c-a31e-eb06d774d700"/><g filter="url(#f8fc146c-4330-4505-8b35-d4787a4ecdad)"><polygon points="1254.35 1935.6 1384.36 1935.6 1353.37 1910.23 1231.74 1910.23 1254.35 1935.6" opacity="0.44" fill="url(#fb48c744-f26e-4e00-9ca7-dec6c7bda3f0)"/></g><path d="M1233.37,1752.29a30.55,30.55,0,0,1,5.34-9.93,17.08,17.08,0,0,1,8.42-5.5,31.77,31.77,0,0,1,4-1.92,13.33,13.33,0,0,1,4.13-1.25c.89-.06,1.36-.18,1.42-.38s.9-.13,2.54.25,3.09.63,4.34.8a4.26,4.26,0,0,1,3,1.46c2.33,3.72,4.66,7.25,7,10.59.2-.05.38-.11.55-.17a31.15,31.15,0,0,1,10.09-1.62,19.87,19.87,0,0,1,5.46,3,44.75,44.75,0,0,1,6.89,7.3,70.61,70.61,0,0,1,14.26-11.72c.78-.48,1.56-.93,2.34-1.38a3.13,3.13,0,0,1,.71-.25,10.47,10.47,0,0,1,2.79-.62,5.8,5.8,0,0,1,2.42.5,14.06,14.06,0,0,1,.21,3.58,38.48,38.48,0,0,1-1.88,9.1c-.11.33-.24.66-.37,1a153.24,153.24,0,0,1-13.23,27.36c1.23,2.69,2,6.87,2.38,12.51a7.33,7.33,0,0,1,0,.79,5.12,5.12,0,0,1,0,.67l.09.88,2.08,9.63c.14.45.29.89.46,1.34q.71,2,1.59,4c.33.75.68,1.49,1,2.21a55.57,55.57,0,0,0,8.22,12q33.48,33.71,46.84,53.47,14.22,21.07,16.18,31.54t2,28.36a66.47,66.47,0,0,1-1.42,13.55,14,14,0,0,1-1.29,4.26,7.3,7.3,0,0,1-1.63,2.12,27.71,27.71,0,0,1-2.41,1.8c-.59.39-1.48.9-2.67,1.54a12.85,12.85,0,0,1-.71,3,13,13,0,0,1-.88,1.88,7.84,7.84,0,0,1-5,3,24.53,24.53,0,0,1-8.51-.34q-5.18,2.55-11.1,5.34a60.74,60.74,0,0,1-26.07,5.72,65.77,65.77,0,0,1-10.55-.84,76.39,76.39,0,0,1-10.59-3.46q-2.76-1.24-5.47-2.54a127.87,127.87,0,0,1-16.35-10.1q-1.62-1.17-3.83-2.83-8.26-7-11.39-11.35t-3.46-5.63a6.49,6.49,0,0,1-.08-2.34,11.61,11.61,0,0,0,.2-1.16,10.74,10.74,0,0,1,2.76-4,8.55,8.55,0,0,1,4.25-2.08,10.43,10.43,0,0,1,5.46.71,33.23,33.23,0,0,1,5.09,2.58c-1-1.83-1.87-3.63-2.62-5.38a38.93,38.93,0,0,1-3-11.63,1.27,1.27,0,0,0,0-.34c-1.73-2-3-3.46-3.84-4.46a93.15,93.15,0,0,1-7-9.51,65.65,65.65,0,0,1-3.59-6.51,144.58,144.58,0,0,1-2.38,29.45,22.59,22.59,0,0,1-.87,3.17,7.55,7.55,0,0,1-1.38,2,6.18,6.18,0,0,1-2.88,1.25,26.08,26.08,0,0,1-13-3.67,73.07,73.07,0,0,1-11.76-9q-1.29-1.42-2.13-2.55a8.47,8.47,0,0,1-1.38-2.79l.09-.5a9.53,9.53,0,0,1,3-5.26,10.43,10.43,0,0,1,5.46-2.67,15,15,0,0,1,7.3.75q-.29-13.1-.16-25.86a113.48,113.48,0,0,1-8.1-25,110.18,110.18,0,0,1-1.71-32.54c-.27-3.39-.5-6.75-.66-10.09q-.3-7.12-.3-14.18a286.79,286.79,0,0,1,3.76-44.55c.22-1.3.44-2.61.67-3.92C1232.76,1754.14,1233,1753.24,1233.37,1752.29Z" fill="#d4ecf6" fill-opacity="0.99"/><path d="M1233.37,1752.29a30.55,30.55,0,0,1,5.34-9.93,17.08,17.08,0,0,1,8.42-5.5,31.77,31.77,0,0,1,4-1.92,13.33,13.33,0,0,1,4.13-1.25c.89-.06,1.36-.18,1.42-.38s.9-.13,2.54.25,3.09.63,4.34.8a4.26,4.26,0,0,1,3,1.46c2.33,3.72,4.66,7.25,7,10.59.2-.05.38-.11.55-.17a31.15,31.15,0,0,1,10.09-1.62,19.87,19.87,0,0,1,5.46,3,44.75,44.75,0,0,1,6.89,7.3,70.61,70.61,0,0,1,14.26-11.72c.78-.48,1.56-.93,2.34-1.38a3.13,3.13,0,0,1,.71-.25,10.47,10.47,0,0,1,2.79-.62,5.8,5.8,0,0,1,2.42.5,14.06,14.06,0,0,1,.21,3.58,38.48,38.48,0,0,1-1.88,9.1c-.11.33-.24.66-.37,1a153.24,153.24,0,0,1-13.23,27.36c1.23,2.69,2,6.87,2.38,12.51a7.33,7.33,0,0,1,0,.79,5.12,5.12,0,0,1,0,.67l.09.88,2.08,9.63c.14.45.29.89.46,1.34q.71,2,1.59,4c.33.75.68,1.49,1,2.21a55.57,55.57,0,0,0,8.22,12q33.48,33.71,46.84,53.47,14.22,21.07,16.18,31.54t2,28.36a66.47,66.47,0,0,1-1.42,13.55,14,14,0,0,1-1.29,4.26,7.3,7.3,0,0,1-1.63,2.12,27.71,27.71,0,0,1-2.41,1.8c-.59.39-1.48.9-2.67,1.54a12.85,12.85,0,0,1-.71,3,13,13,0,0,1-.88,1.88,7.84,7.84,0,0,1-5,3,24.53,24.53,0,0,1-8.51-.34q-5.18,2.55-11.1,5.34a60.74,60.74,0,0,1-26.07,5.72,65.77,65.77,0,0,1-10.55-.84,76.39,76.39,0,0,1-10.59-3.46q-2.76-1.24-5.47-2.54a127.87,127.87,0,0,1-16.35-10.1q-1.62-1.17-3.83-2.83-8.26-7-11.39-11.35t-3.46-5.63a6.49,6.49,0,0,1-.08-2.34,11.61,11.61,0,0,0,.2-1.16,10.74,10.74,0,0,1,2.76-4,8.55,8.55,0,0,1,4.25-2.08,10.43,10.43,0,0,1,5.46.71,33.23,33.23,0,0,1,5.09,2.58c-1-1.83-1.87-3.63-2.62-5.38a38.93,38.93,0,0,1-3-11.63,1.27,1.27,0,0,0,0-.34c-1.73-2-3-3.46-3.84-4.46a93.15,93.15,0,0,1-7-9.51,65.65,65.65,0,0,1-3.59-6.51,144.58,144.58,0,0,1-2.38,29.45,22.59,22.59,0,0,1-.87,3.17,7.55,7.55,0,0,1-1.38,2,6.18,6.18,0,0,1-2.88,1.25,26.08,26.08,0,0,1-13-3.67,73.07,73.07,0,0,1-11.76-9q-1.29-1.42-2.13-2.55a8.47,8.47,0,0,1-1.38-2.79l.09-.5a9.53,9.53,0,0,1,3-5.26,10.43,10.43,0,0,1,5.46-2.67,15,15,0,0,1,7.3.75q-.29-13.1-.16-25.86a113.48,113.48,0,0,1-8.1-25,110.18,110.18,0,0,1-1.71-32.54c-.27-3.39-.5-6.75-.66-10.09q-.3-7.12-.3-14.18a286.79,286.79,0,0,1,3.76-44.55c.22-1.3.44-2.61.67-3.92C1232.76,1754.14,1233,1753.24,1233.37,1752.29Z" fill="url(#a990b543-c9cc-44fd-9127-b14684486c6f)"/><path d="M1233.37,1752.29a30.55,30.55,0,0,1,5.34-9.93,17.08,17.08,0,0,1,8.42-5.5,31.77,31.77,0,0,1,4-1.92,13.33,13.33,0,0,1,4.13-1.25c.89-.06,1.36-.18,1.42-.38s.9-.13,2.54.25,3.09.63,4.34.8a4.26,4.26,0,0,1,3,1.46c2.33,3.72,4.66,7.25,7,10.59.2-.05.38-.11.55-.17a31.15,31.15,0,0,1,10.09-1.62,19.87,19.87,0,0,1,5.46,3,44.75,44.75,0,0,1,6.89,7.3,70.61,70.61,0,0,1,14.26-11.72c.78-.48,1.56-.93,2.34-1.38a3.13,3.13,0,0,1,.71-.25,10.47,10.47,0,0,1,2.79-.62,5.8,5.8,0,0,1,2.42.5,14.06,14.06,0,0,1,.21,3.58,38.48,38.48,0,0,1-1.88,9.1c-.11.33-.24.66-.37,1a153.24,153.24,0,0,1-13.23,27.36c1.23,2.69,2,6.87,2.38,12.51a7.33,7.33,0,0,1,0,.79,5.12,5.12,0,0,1,0,.67l.09.88,2.08,9.63c.14.45.29.89.46,1.34q.71,2,1.59,4c.33.75.68,1.49,1,2.21a55.57,55.57,0,0,0,8.22,12q33.48,33.71,46.84,53.47,14.22,21.07,16.18,31.54t2,28.36a66.47,66.47,0,0,1-1.42,13.55,14,14,0,0,1-1.29,4.26,7.3,7.3,0,0,1-1.63,2.12,27.71,27.71,0,0,1-2.41,1.8c-.59.39-1.48.9-2.67,1.54a12.85,12.85,0,0,1-.71,3,13,13,0,0,1-.88,1.88,7.84,7.84,0,0,1-5,3,24.53,24.53,0,0,1-8.51-.34q-5.18,2.55-11.1,5.34a60.74,60.74,0,0,1-26.07,5.72,65.77,65.77,0,0,1-10.55-.84,76.39,76.39,0,0,1-10.59-3.46q-2.76-1.24-5.47-2.54a127.87,127.87,0,0,1-16.35-10.1q-1.62-1.17-3.83-2.83-8.26-7-11.39-11.35t-3.46-5.63a6.49,6.49,0,0,1-.08-2.34,11.61,11.61,0,0,0,.2-1.16,10.74,10.74,0,0,1,2.76-4,8.55,8.55,0,0,1,4.25-2.08,10.43,10.43,0,0,1,5.46.71,33.23,33.23,0,0,1,5.09,2.58c-1-1.83-1.87-3.63-2.62-5.38a38.93,38.93,0,0,1-3-11.63,1.27,1.27,0,0,0,0-.34c-1.73-2-3-3.46-3.84-4.46a93.15,93.15,0,0,1-7-9.51,65.65,65.65,0,0,1-3.59-6.51,144.58,144.58,0,0,1-2.38,29.45,22.59,22.59,0,0,1-.87,3.17,7.55,7.55,0,0,1-1.38,2,6.18,6.18,0,0,1-2.88,1.25,26.08,26.08,0,0,1-13-3.67,73.07,73.07,0,0,1-11.76-9q-1.29-1.42-2.13-2.55a8.47,8.47,0,0,1-1.38-2.79l.09-.5a9.53,9.53,0,0,1,3-5.26,10.43,10.43,0,0,1,5.46-2.67,15,15,0,0,1,7.3.75q-.29-13.1-.16-25.86a113.48,113.48,0,0,1-8.1-25,110.18,110.18,0,0,1-1.71-32.54c-.27-3.39-.5-6.75-.66-10.09q-.3-7.12-.3-14.18a286.79,286.79,0,0,1,3.76-44.55c.22-1.3.44-2.61.67-3.92C1232.76,1754.14,1233,1753.24,1233.37,1752.29Z" fill="url(#b10b714e-7b8b-4c78-96e0-b58d10a03ee4)"/><path d="M1266.11,1818.48a37.32,37.32,0,0,0,4.09-.29,76.78,76.78,0,0,0,13.43-2.79,55.6,55.6,0,0,0,17.56-9.22,21,21,0,0,0,5.71-6.21l1.46,6.92c.15.46.3.9.46,1.33.47,1.36,1,2.69,1.59,4,.33.75.69,1.49,1.08,2.21a44.1,44.1,0,0,1-4.8,5,52.47,52.47,0,0,1-17.22,10.22,75.39,75.39,0,0,1-15.06,3.76,62.73,62.73,0,0,1-29.82-5.59,70.75,70.75,0,0,1-16.14-10.22q-.35-7.08-.29-14.18a105.3,105.3,0,0,0,14.59,8.92Q1255.24,1818.44,1266.11,1818.48Z" fill="#12abbb"/><path d="M1263.61,1733.15a18.84,18.84,0,0,1,2.92,2.62c1,1.69,2.09,3.33,3.13,4.93a24,24,0,0,1-5.09,1.37,23.38,23.38,0,0,1-8.26-.12q-5.2-1.71-7-3.38a14.72,14.72,0,0,1-1.83-1.92c.72-.45,1.55-1,2.5-1.63a20.57,20.57,0,0,1,5.17-2.62l.58-.13a12.55,12.55,0,0,1,2-.29Q1261.71,1731.73,1263.61,1733.15Z" fill="#06467b"/><path d="M1303.73,1782.45c1.23,2.69,2,6.87,2.38,12.51a7.33,7.33,0,0,1,0,.79,5.12,5.12,0,0,1,0,.67l.09.88,2.08,9.63c.14.45.29.89.46,1.34q.71,2,1.59,4c.33.75.68,1.49,1,2.21a55.57,55.57,0,0,0,8.22,12q33.48,33.71,46.84,53.47,14.22,21.07,16.18,31.54t2,28.36a66.47,66.47,0,0,1-1.42,13.55,14,14,0,0,1-1.29,4.26,7.3,7.3,0,0,1-1.63,2.12,27.71,27.71,0,0,1-2.41,1.8c-.59.39-1.48.9-2.67,1.54a12.85,12.85,0,0,1-.71,3,13,13,0,0,1-.88,1.88,7.84,7.84,0,0,1-5,3,24.53,24.53,0,0,1-8.51-.34q-5.18,2.55-11.1,5.34a59.13,59.13,0,0,1-10.26,3.71l6.43-15.8.33.12c.05-1,.12-2.08.21-3.17q3.66-56.22-18.81-61.48-68.44-21.81-81.42-55.14a49,49,0,0,1-3.17-17.47,73.09,73.09,0,0,1,1.34-14q.87-4.45,9.59-9.17a99.84,99.84,0,0,1,16.39-29.87q2.46-3.75,9.68-6.88l11.63,6.38q14-27.81,28-31.9a14.06,14.06,0,0,1,.21,3.58,38.48,38.48,0,0,1-1.88,9.1c-.11.33-.24.66-.37,1a153.24,153.24,0,0,1-13.23,27.36M1356.62,1956a8.74,8.74,0,0,1-3.25,1c1.55,2.09,4.38,3.55,8.46,4.38q9.23,2,4.09-7.38-2-1.5-9.3,2m-80.12-189.61h.37a4.57,4.57,0,0,0-.62.08q-5.67,2.27-21.36,16.1c-1.69,1.06-2.35,1.85-2,2.38h-6.59Q1264.82,1766.51,1276.5,1766.43Z" fill="#9aa8b1" fill-opacity="0.2"/><path d="M1231.74,1910.41a14.85,14.85,0,0,1,7.18.71l.91,10.51q-12-4.64-11-9a6.1,6.1,0,0,1,.55-1.5,10,10,0,0,1,2.37-.71m152.2,13a4.11,4.11,0,0,1,.21.42l0,.42v.29c0,.28.06.58.08.92v.54a11.56,11.56,0,0,1,.09,1.46,1.86,1.86,0,0,1,0,.33l.12,3.51a2.58,2.58,0,0,1,0,.46v1q-.21-4.33-.63-9.39m-104.86,15.35c-.36-.66-.71-1.32-1-2q9,14.57,14.39,19.73-26.9-16-26.4-20.19a8.94,8.94,0,0,1,2.5-.87,10.43,10.43,0,0,1,5.46.71,33.23,33.23,0,0,1,5.09,2.58m20.9,37.83c-.67-.27-1.32-.57-2-.87s-1.06-.52-1.59-.79a90.83,90.83,0,0,1-19.39-12.27c-.28-.22-.54-.44-.79-.66q-8.26-7-11.39-11.35t-3.46-5.63a1.34,1.34,0,0,0,0-.33q10.64,18.13,48.42,31.19,17.85,6.27,32.53-3,5.51-3.5,3-8.92,15.42,2,20,2,12.74,0,6.09-15.81,9.23,12.1,12.1,2.63a4,4,0,0,1-.13.58,14,14,0,0,1-1.29,4.26,7.3,7.3,0,0,1-1.63,2.12,27.71,27.71,0,0,1-2.41,1.8c-.59.39-1.48.9-2.67,1.54a9.76,9.76,0,0,1-.34,1.79,2.8,2.8,0,0,1-.12.46l-.25.75a13,13,0,0,1-.88,1.88l-3.71,2.75-.58.17a5.25,5.25,0,0,1-.71.13,24.53,24.53,0,0,1-8.51-.34q-5.18,2.55-11.1,5.34a60.74,60.74,0,0,1-26.07,5.72,65.77,65.77,0,0,1-10.55-.84,76.39,76.39,0,0,1-10.59-3.46l-1.92-.88m-43.38-46.21a22.59,22.59,0,0,1-.87,3.17,7.55,7.55,0,0,1-1.38,2,6.18,6.18,0,0,1-2.88,1.25,26.08,26.08,0,0,1-13-3.67,73.07,73.07,0,0,1-11.76-9c-.22-.28-.45-.53-.67-.76a3.74,3.74,0,0,0-.25-.29l-2.46-3.92q24.11,23.86,33.24,11.18m17.81-3a.41.41,0,0,0,0,.12h0v-.12m-.79-3.72-.21-1.91a1.27,1.27,0,0,0,0-.34c-1.73-2-3-3.46-3.84-4.46-.61-.75-1.21-1.47-1.79-2.17l-.09-.17q10.56-9.37,36.63-8.17-31.58,3-30.66,17.22m-21.27-44a5.25,5.25,0,0,1,.37,1.38c.06.33.11.82.17,1.46a24.42,24.42,0,0,0,1.54,5.34q1.13,3.12,3.55,9.67c.47,1.25,1,2.58,1.67,4-.23-.2-.45-.38-.67-.55,0,1.59,0,3.17,0,4.76l0,2.42c-.2,1.55-.32,3.93-.38,7.13q-6.88-10.93-6.21-35.58m51.38-97.22a9.52,9.52,0,0,1,.71,1.92l.09.25-1.3-1.38q-6.21-1,1.63-11.72a108.29,108.29,0,0,0,12.51-21.56q1.17-2.71,1.8-4.59c0,.36-.06.73-.09,1.12l-.71,3.76c-.27,1.19-.62,2.47-1,3.84-.11.33-.24.66-.37,1a153.24,153.24,0,0,1-13.23,27.36m-25.19-14.64a4.1,4.1,0,0,0,1-.13,16.69,16.69,0,0,1,.09,2.84c0,.44-.07.92-.13,1.42l.08-.25-.16.75c-.14,1.17-.11,4.54.08,10.13a26.06,26.06,0,0,1-1.29,8.8,5.11,5.11,0,0,1,3.13,1.84,6.85,6.85,0,0,1,1.41,3,8.51,8.51,0,0,1,.09,3.34,12.91,12.91,0,0,1-3,5.92q-3.66,4.33-8,4.63a7.08,7.08,0,0,1-4.55-1.25,5.58,5.58,0,0,1-2.09-2.42,15.35,15.35,0,0,1-1.54.83c-.91.39-.55-.59,1.09-3v0q1.46-2.16,3.42-5.17a30.32,30.32,0,0,1,2.66-3.67l.51-.46a38.26,38.26,0,0,0,4.71-13.89q1.45-10.33,2.5-13.3m-15.26-23q4.29-1.2,7.84-1.83l.75,1.08.71,1,.58.83a4.83,4.83,0,0,0-2.17,1.42,1.2,1.2,0,0,1-.25.33,19.61,19.61,0,0,1,4.3-1.58c1-.23,1.55-.35,1.58-.38a6.23,6.23,0,0,0,.59-.33c.36-.09.69-.15,1-.21a.41.41,0,0,1,0,.12c-.14.23.23.23,1.12,0-2.78,1.06-5,2-6.67,2.72a51.08,51.08,0,0,0-7,3.71l-2.92,1.92a28.68,28.68,0,0,1-4.5,2.17,7.26,7.26,0,0,1-2,.5,2.5,2.5,0,0,1-2.79-3,6.88,6.88,0,0,1,1-2.46,16.38,16.38,0,0,1,3.09-3.8c.61-.55,2.55-1.29,5.84-2.21M1238,1883.3a5.32,5.32,0,0,0-.21-.5,1,1,0,0,0-.13-.25l-.08-.21c-.1-.27-.19-.53-.29-.79l.37.58c.87,1.25,1.37,2,1.51,2.17.44.72,1,1.84,1.79,3.34a52.9,52.9,0,0,0,4.34,6.13,12.53,12.53,0,0,1-2.76-1.67,18.3,18.3,0,0,1-3.67-3.5l.05-3.3-.17-.33a2.21,2.21,0,0,0-.13-.29.3.3,0,0,0,0-.13Zm77.49-54.35a105.24,105.24,0,0,1,13.39,6.89q25.52,26.45,37,43.16-9.93-8.3-25-20.73-33.21-27.43-33.2-28.36Q1307.7,1825.88,1315.45,1829Z" fill="#0a264b" fill-opacity="0.16"/></g></g></g></svg>