<?xml version="1.0" encoding="UTF-8"?><svg xmlns="http://www.w3.org/2000/svg" xmlns:xlink="http://www.w3.org/1999/xlink" viewBox="0 0 2500 2500"><defs><style>.cls-1{fill:url(#linear-gradient-2);}.cls-2{fill:#006299;}.cls-3{isolation:isolate;}.cls-4{fill:#d3f5ff;}.cls-5{fill:#90e5ff;}.cls-6{fill:url(#Degradado_sin_nombre_5);mix-blend-mode:multiply;opacity:.72;}.cls-7{fill:url(#radial-gradient);}.cls-8{fill:#00273d;}.cls-9{fill:url(#radial-gradient-2);mix-blend-mode:overlay;opacity:.34;}.cls-10{fill:#00d5d4;stroke:rgba(0,213,212,.2);stroke-linejoin:round;stroke-width:20px;}.cls-11{fill:url(#linear-gradient-3);}.cls-12{fill:rgba(0,85,132,.1);}.cls-13{fill:url(#linear-gradient);}.cls-14{fill:#1da1dc;}.cls-15{opacity:.25;}</style><radialGradient id="radial-gradient" cx="2440.47" cy="2422.23" fx="2440.47" fy="2422.23" r="404.83" gradientTransform="translate(3198.25 2228.2) rotate(119.64) scale(.82 .7) skewX(-26.4)" gradientUnits="userSpaceOnUse"><stop offset="0" stop-color="#00273d" stop-opacity=".3"/><stop offset=".45" stop-color="#00273d" stop-opacity=".13"/><stop offset="1" stop-color="#00273d" stop-opacity="0"/></radialGradient><linearGradient id="Degradado_sin_nombre_5" x1="1758.5" y1="236.83" x2="582.54" y2="1905.23" gradientTransform="translate(2684.82) rotate(-180) scale(1 -1)" gradientUnits="userSpaceOnUse"><stop offset="0" stop-color="#005584" stop-opacity=".1"/><stop offset=".13" stop-color="#005584" stop-opacity="0"/><stop offset=".16" stop-color="#005584" stop-opacity=".3"/><stop offset=".35" stop-color="#005584" stop-opacity=".26"/><stop offset=".49" stop-color="#005584" stop-opacity=".2"/><stop offset=".5" stop-color="#005584" stop-opacity=".32"/><stop offset=".53" stop-color="#005584" stop-opacity=".47"/><stop offset=".55" stop-color="#005584" stop-opacity=".57"/><stop offset=".58" stop-color="#005584" stop-opacity=".6"/><stop offset=".73" stop-color="#005584" stop-opacity=".38"/><stop offset=".84" stop-color="#005584" stop-opacity=".25"/><stop offset=".9" stop-color="#005584" stop-opacity=".37"/><stop offset=".98" stop-color="#005584" stop-opacity=".5"/></linearGradient><linearGradient id="linear-gradient" x1="819.19" y1="653.07" x2="2649.44" y2="3315.26" gradientUnits="userSpaceOnUse"><stop offset=".14" stop-color="#1da1dc"/><stop offset=".58" stop-color="#0e89c6"/><stop offset=".98" stop-color="#0071b0"/></linearGradient><radialGradient id="radial-gradient-2" cx="2904.18" cy="919.76" fx="2904.18" fy="919.76" r="11039.09" gradientTransform="translate(1283.55 1479.79) rotate(-107.29) scale(.11 -.05) skewX(-12.73)" gradientUnits="userSpaceOnUse"><stop offset="0" stop-color="#d3f5ff" stop-opacity=".8"/><stop offset=".13" stop-color="#d3f5ff" stop-opacity=".79"/><stop offset=".24" stop-color="#d3f5ff" stop-opacity=".74"/><stop offset=".35" stop-color="#d3f5ff" stop-opacity=".67"/><stop offset=".45" stop-color="#d3f5ff" stop-opacity=".58"/><stop offset=".55" stop-color="#d3f5ff" stop-opacity=".45"/><stop offset=".64" stop-color="#d3f5ff" stop-opacity=".29"/><stop offset=".74" stop-color="#d3f5ff" stop-opacity=".11"/><stop offset=".79" stop-color="#d3f5ff" stop-opacity="0"/></radialGradient><linearGradient id="linear-gradient-2" x1="11982.36" y1="1393.39" x2="13024.31" y2="1393.39" gradientTransform="translate(13553.46) rotate(-180) scale(1 -1)" gradientUnits="userSpaceOnUse"><stop offset=".12" stop-color="#00507d"/><stop offset=".14" stop-color="#004b76"/><stop offset=".25" stop-color="#003452"/><stop offset=".27" stop-color="#003757"/><stop offset=".41" stop-color="#00456c"/><stop offset=".56" stop-color="#004f7b"/><stop offset=".74" stop-color="#005584"/><stop offset="1" stop-color="#005787"/></linearGradient><linearGradient id="linear-gradient-3" x1="12230.43" y1="928.19" x2="12334.18" y2="928.19" gradientTransform="translate(13553.46) rotate(-180) scale(1 -1)" gradientUnits="userSpaceOnUse"><stop offset=".04" stop-color="#0071b0"/><stop offset=".05" stop-color="#0071b0" stop-opacity=".98"/><stop offset=".11" stop-color="#0071b0" stop-opacity=".75"/><stop offset=".19" stop-color="#0071b0" stop-opacity=".55"/><stop offset=".27" stop-color="#0071b0" stop-opacity=".38"/><stop offset=".35" stop-color="#0071b0" stop-opacity=".24"/><stop offset=".45" stop-color="#0071b0" stop-opacity=".13"/><stop offset=".56" stop-color="#0071b0" stop-opacity=".06"/><stop offset=".71" stop-color="#0071b0" stop-opacity=".01"/><stop offset="1" stop-color="#0071b0" stop-opacity="0"/></linearGradient></defs><g class="cls-3"><g id="Active"><ellipse class="cls-7" cx="1211.94" cy="2266.11" rx="233.88" ry="405.11" transform="translate(-1061.76 3463.77) rotate(-89.64)"/><path class="cls-14" d="m563.82,241.16c9.24-5.37,21.99-4.59,35.88,3.43,1.96,1.13,3.94,2.4,5.94,3.83,28.66,20.38,66.68,45.8,110.29,70.99,119.91,69.23,282.3,136.76,410.21,93.52,9.17-3.1,20.27-.89,31.36,5.52,11.09,6.4,22.17,16.99,31.29,30.65,127.23,190.53,289.52,310.47,409.42,379.69,43.63,25.19,81.64,43.66,110.31,56.38,2,.89,3.98,1.9,5.94,3.03,27.56,15.91,50.46,55.02,50.37,87.53l-2.26,796.3c-.45,159.23-65.84,250.72-153.65,301.75l193.99-112.73c87.8-51.03,153.2-142.52,153.65-301.75l2.26-796.3c.09-32.51-22.81-71.62-50.37-87.53-1.96-1.13-3.94-2.14-5.94-3.03-28.67-12.72-66.69-31.19-110.31-56.38-119.9-69.22-282.19-189.16-409.42-379.69-9.12-13.66-20.2-24.25-31.29-30.65-11.09-6.4-22.19-8.62-31.36-5.52-127.9,43.24-290.3-24.29-410.21-93.52-43.62-25.18-81.63-50.61-110.29-70.99-2-1.42-3.98-2.7-5.94-3.83-13.89-8.02-26.64-8.8-35.88-3.43l-193.99,112.73Z"/><path class="cls-6" d="m563.82,241.16c9.24-5.37,1132.9,1781.58,1045.09,1832.61l193.99-112.73c87.8-51.03,153.2-142.52,153.65-301.75l2.26-796.3c.09-32.51-22.81-71.62-50.37-87.53-1.96-1.13-3.94-2.14-5.94-3.03-28.67-12.72-66.69-31.19-110.31-56.38-119.9-69.22-282.19-189.16-409.42-379.69-9.12-13.66-20.2-24.25-31.29-30.65-11.09-6.4-22.19-8.62-31.36-5.52-127.9,43.24-290.3-24.29-410.21-93.52-43.62-25.18-81.63-50.61-110.29-70.99-2-1.42-3.98-2.7-5.94-3.83-13.89-8.02-26.64-8.8-35.88-3.43l-193.99,112.73Z"/><g class="cls-3"><path class="cls-13" d="m1157.49,418.44c-11.09-6.4-22.19-8.62-31.36-5.52-127.9,43.24-290.3-24.29-410.21-93.52-43.62-25.18-81.64-50.61-110.29-70.99-2-1.42-3.98-2.7-5.94-3.83-27.55-15.91-50.61-3.33-50.7,29.18l-2.26,796.3c-1.15,406.37,421.76,860.56,561.66,999.65,14.33,14.23,29.33,25.87,44.33,34.53,15.01,8.67,30.02,14.36,44.38,16.69,140.18,22.61,564.28,57.44,565.43-348.92l2.26-796.3c.09-32.51-22.81-71.62-50.37-87.53-1.96-1.13-3.94-2.14-5.94-3.03-28.67-12.72-66.69-31.19-110.31-56.38-119.9-69.22-282.19-189.16-409.42-379.69-9.12-13.66-20.2-24.25-31.29-30.65Z"/><g class="cls-15"><path class="cls-4" d="m577.17,250.65h0c4.7,0,10.26,1.77,16.07,5.13,1.61.93,3.26,1.99,4.91,3.16,36.57,26.01,74.03,50.11,111.32,71.65,125.12,72.24,235.67,108.87,328.59,108.87,33.13,0,64.15-4.81,92.21-14.3,1.38-.47,2.94-.7,4.62-.7,4.7,0,10.28,1.79,16.14,5.17,9.67,5.58,19.26,15.04,27,26.64,130.1,194.84,296.78,316.2,413.7,383.7,37.34,21.56,74.86,40.73,111.54,57,1.55.69,3.14,1.5,4.71,2.41,23.88,13.79,43.99,48.73,43.91,76.31l-2.26,796.3c-.2,69.62-13.3,129.75-38.93,178.73-22.46,42.91-55.08,78.23-96.94,104.98-36.32,23.21-80.2,40.41-130.44,51.12-41.64,8.88-87.92,13.38-137.54,13.38-59.68,0-112.67-6.53-146.6-12-12.74-2.07-26.2-7.16-40-15.12-14.19-8.2-28.22-19.13-41.69-32.51-71.82-71.41-210.47-218.03-332.14-397.68-68.06-100.5-121.58-197.94-159.08-289.63-44.48-108.77-66.9-210.76-66.64-303.14l2.26-796.3c.02-7.99,1.81-14.58,5.03-18.56,2.51-3.1,5.85-4.6,10.22-4.6m0-12.92c-16.53,0-28.11,13.03-28.17,36.04l-2.26,796.3c-1.15,406.37,421.76,860.55,561.66,999.65,14.33,14.23,29.33,25.87,44.33,34.53,15.01,8.67,30.03,14.36,44.39,16.69,35.3,5.69,88.64,12.16,148.67,12.16,178.33,0,415.91-57.06,416.77-361.09l2.26-796.3c.09-32.51-22.81-71.62-50.37-87.53-1.96-1.13-3.94-2.14-5.94-3.03-28.67-12.72-66.69-31.19-110.31-56.38-119.9-69.22-282.19-189.16-409.42-379.69-9.12-13.66-20.2-24.25-31.29-30.65-7.75-4.47-15.5-6.9-22.6-6.9-3.06,0-6,.45-8.76,1.39-27.97,9.46-57.61,13.62-88.08,13.62-108.84,0-228.45-53.05-322.13-107.14-43.62-25.18-81.64-50.61-110.29-70.99-2-1.42-3.98-2.7-5.94-3.83-8.05-4.64-15.71-6.86-22.53-6.86h0Z"/></g></g><g id="inner_glow_front"><ellipse class="cls-9" cx="1153.95" cy="1218.34" rx="621.56" ry="1076.64" transform="translate(-457.55 750.33) rotate(-30.36)"/></g><g id="Lock_Grey"><path class="cls-12" d="m859.91,958.57c-.77-19.05,11.42-38.26,36.57-52.79,17.75-10.25,39.48-16.74,62.28-19.51l-.4-140.29c0,1.08.34,2.14.53,3.21-.6-3.23-.47-6.48.71-9.67.05-1.49.12-2.93.24-4.23.02-.18.04-.39.06-.57.47-7.91,1.46-17.55,3.45-28.16.09-.51.17-1.09.26-1.57.11-.59.25-1.13.37-1.72.11-.53.19-1.04.3-1.57.16-.73.33-1.38.49-2.1.34-1.52.68-3.01,1.05-4.46.32-1.28.65-2.5.98-3.72.28-1.03.55-2.04.84-3.02.45-1.55.9-3.02,1.35-4.46.2-.62.39-1.23.58-1.82.42-1.29.84-2.52,1.27-3.72.36-1.04.7-1.98,1.05-2.9.16-.44.33-.9.5-1.33,1.93-5.08,3.39-8.24,3.52-8.52.23-.49.51-1.08.77-1.62.95-2.05,1.83-3.89,2.57-5.39.75-1.54,3.24-6.44,7.24-12.74,2.62-4.2,5.73-8.61,9.29-13,.61-.76,1.2-1.51,1.84-2.27.06-.07.11-.14.17-.21.08-.1.17-.18.26-.28,1.18-1.39,2.37-2.79,3.64-4.17,3.84-4.14,7.58-7.68,11.13-10.79.44-.39.88-.76,1.32-1.14,2.5-2.13,4.87-4.01,7.1-5.66.29-.22.58-.43.88-.64,4.42-3.21,8.18-5.54,10.78-6.99,4.38-2.45,11.13-6.23,20.74-9.78.03-.01.07-.02.1-.03,3.88-1.43,8.23-2.82,13.08-4.08.76-.2,1.56-.36,2.33-.55,1.6-.39,3.16-.79,4.85-1.14,3.12-.65,6.12-1.12,9.05-1.53.09-.01.17-.04.26-.05.35-.05.77-.08,1.14-.13,9.12-1.16,17.21-1.3,23.9-1.08.42.01.82.02,1.24.04,3.45.13,6.53.33,9.1.51,6.13.42,14.25,1.69,20.24,3.05.67.15,1.44.35,2.14.52,1.11.24,2.18.43,3.31.7,7.19,1.72,14.15,3.84,20.91,6.21.21.07.46.15.67.22.14.05.37.13.53.18.26.09.53.18.79.27,3.13,1.08,8.87,3.16,17.71,7.29,16.6,7.57,31.39,16.48,43.97,25.23,1.18.8,2.33,1.6,3.51,2.43.01,0,.02.01.03.02,3.14,2.2,6.22,4.44,8.96,6.62.25.2.54.45.8.65,12.51,9.64,21.89,18.21,27.32,23.19.36.33.75.71,1.12,1.06.01.01.03.03.05.04,1.27,1.15,2.64,2.45,4.03,3.8,5.15,4.97,10.61,10.61,16.23,16.77,9.11,9.88,18.38,21.08,27.3,32.97,2.22,2.94,4.43,5.96,6.63,9.03.32.45.63.9.95,1.35,2.19,3.07,4.36,6.21,6.52,9.4.22.32.43.65.65.97,2.24,3.32,4.45,6.71,6.63,10.15.05.08.11.17.16.25,9.31,14.67,18.13,30.33,25.85,46.75.7,1.48,1.57,3.34,2.54,5.45.66,1.41,1.26,2.76,1.88,4.14.73,1.61,1.49,3.36,2.3,5.21,2.1,4.81,4.03,9.42,5.74,13.71.04.11.09.21.13.32,1.22,3.09,2.31,5.96,3.34,8.75.25.69.51,1.33.76,2.03,1.12,3.08,2.11,5.93,2.99,8.57,1.87,5.52,3.68,11.31,5.4,17.33,1.23,4.16,2.42,8.42,3.25,12.06.11.47.22,1.02.33,1.5,3.39,13.96,5.78,26.37,7.33,38.51.26,1.93.5,3.92.71,6,.11,1.07.21,2.14.31,3.21.16,1.76.31,3.48.44,5.16.08,1.02.17,2.03.23,3.06.02.31.05.67.07.98.13,1.76.21,3.74.29,5.77.15,3.26.25,6.58.3,9.97,0,0,0,.02,0,.03,0-.03.01-.05.01-.08v.83c0,.22.02.43.02.66,0,.02,0,.03,0,.05,0,.12,0,.23,0,.35,0,.05-.02.1-.02.15l.43,153.22,51.14,29.72c24.09,14,36.11,32.33,36.08,50.68,0-.06,0-.12,0-.17l1.4,492.72c.05,18.52-12.18,37.08-36.66,51.21-48.6,28.06-127.26,28.09-175.61,0l-383.58-222.91c-24.01-13.95-36.02-32.21-36.07-50.5l-1.4-492.72c0,.52.05,1.05.07,1.57Zm203.94-57.14c2.83,1.37,5.59,2.82,8.24,4.36l227.22,132.04-.26-91.69s0-.02,0-.03c-.18-4.94-.53-11.07-.98-16.65-.51-5.3-1.19-10.65-2.12-16.08-.17-.96-.33-1.87-.49-2.78-.61-3.28-1.27-6.58-2.03-9.91-.1-.42-.19-.83-.3-1.27-.74-3.19-1.58-6.4-2.46-9.62-.27-1-.56-2.02-.86-3.08-.73-2.56-1.53-5.13-2.35-7.7-.96-2.99-1.95-5.92-2.97-8.8-.3-.84-.59-1.68-.89-2.52-1.13-3.09-2.28-6.1-3.45-9.04-.27-.69-.55-1.38-.83-2.07-8.13-20.03-16.92-36.15-22.56-45.73-1.85-3.05-4.41-7.16-8.6-13.87-3.8-5.84-7.64-11.27-11.47-16.49-4.62-6.07-10.09-13.02-14.97-18.95-4.01-4.71-7.99-9.18-11.87-13.26-.34-.35-.71-.73-1.05-1.08-1.94-2.02-3.86-3.96-5.76-5.83-.35-.35-.69-.69-1.04-1.04-6.87-6.7-13.36-12.38-19.29-17.17-.6-.48-1.16-.93-1.82-1.46-.14-.11-.27-.21-.41-.32-5.2-4.08-12.03-9.16-19.7-13.98-.59-.37-1.12-.69-1.67-1.02-.8-.49-1.62-.97-2.44-1.45-.65-.37-1.33-.77-1.87-1.07-2.71-1.51-5.57-3.05-8.56-4.56-.25-.12-.47-.22-.71-.34-2.41-1.2-4.95-2.34-7.54-3.45-.73-.31-1.49-.66-2.19-.94-6.37-2.59-13.3-4.78-20.79-6.14-1.72-.29-3.39-.55-5.02-.76-2.09-.27-7.36-.42-10.87-.09-.68.07-1.36.15-2.04.25-.82.14-1.53.28-2.21.42-.56.12-1.11.23-1.66.37-.36.09-.7.19-1.04.28-1.01.3-2,.64-2.99,1.04-.13.05-.26.1-.39.16-1.14.61-2.38,1.07-3.48,1.75-4.73,3.05-8.64,7.57-11.75,13.37-.33.62-.66,1.25-.98,1.92-.77,1.6-1.49,3.27-2.15,5.05-.12.33-.26.61-.38.95-.24.68-.4,1.25-.6,1.89-.43,1.32-.87,2.63-1.22,3.95-.08.29-.13.55-.21.84-.38,1.45-.71,2.89-1.01,4.31-.52,2.56-.93,5.17-1.36,8.1-.12.92-.25,1.85-.34,2.74-.04.33-.07.65-.11.98-.1,1.05-.18,2.04-.25,3.03-.26,4.04-.33,8.35-.42,11.88,0,1.07-.31,2.13-.49,3.2-.14.85-.13,1.7-.39,2.53-.05.16-.13.31-.18.47l.41,144.35Zm-104.36-149.35s-.01-.04-.01-.06c-.04-.11-.13-.21-.16-.33.04.13.13.26.18.39Z"/><path class="cls-1" d="m811.33,1050.29l383.58,222.91c48.34,28.09,127,28.06,175.61,0,24.49-14.14,36.72-32.69,36.66-51.21l1.4,492.72c.05,18.52-12.18,37.08-36.66,51.21-48.6,28.06-127.26,28.09-175.61,0l-383.58-222.91c-24.01-13.95-36.02-32.21-36.07-50.5l-1.4-492.72c.05,18.29,12.06,36.55,36.07,50.5Z"/><path class="cls-2" d="m811.9,948.57c-48.6,28.06-48.92,73.62-.57,101.72l383.58,222.91c48.34,28.09,127,28.06,175.61,0,48.66-28.09,48.92-73.62.57-101.72l-383.58-222.91c-48.34-28.09-126.95-28.09-175.61,0Z"/></g><ellipse class="cls-8" cx="926.54" cy="1004.57" rx="31.75" ry="55" transform="translate(-83.84 1924.78) rotate(-89.64)"/><ellipse class="cls-8" cx="1267.28" cy="1202.38" rx="31.75" ry="55" transform="translate(56.95 2462.07) rotate(-89.64)"/><path class="cls-5" d="m874.99,782.41c.05-1.52.12-2.99.24-4.33.01-.18.04-.39.05-.57.47-7.91,1.46-17.54,3.45-28.14.09-.51.17-1.09.26-1.58.12-.6.25-1.14.37-1.73.11-.53.19-1.04.3-1.58.16-.74.33-1.39.49-2.1.34-1.51.68-2.99,1.04-4.43.32-1.29.65-2.53.98-3.76.28-1.01.55-2.01.82-2.97.45-1.57.91-3.07,1.37-4.53.19-.59.37-1.17.55-1.73.43-1.32.86-2.58,1.29-3.8.36-1.01.69-1.93,1.02-2.83.17-.46.34-.92.51-1.37,1.93-5.07,3.39-8.23,3.52-8.51.23-.48.51-1.07.77-1.6.95-2.06,1.84-3.9,2.57-5.41.75-1.54,3.24-6.43,7.23-12.72,2.62-4.19,5.72-8.59,9.27-12.98.62-.77,1.23-1.54,1.88-2.31.06-.06.1-.13.16-.2.08-.09.16-.17.24-.26,1.18-1.4,2.37-2.8,3.66-4.18,1.27-1.37,2.53-2.64,3.78-3.89,0,0,0,0,.01-.01,2.51-2.52,4.96-4.79,7.33-6.86.45-.4.91-.79,1.36-1.18,2.48-2.11,4.83-3.98,7.04-5.61.31-.23.63-.46.94-.69,4.42-3.21,8.17-5.53,10.78-6.99.9-.5,1.91-1.07,3.02-1.67.79-.44,1.63-.87,2.53-1.35.7-.37,1.46-.74,2.23-1.13.7-.35,1.35-.68,2.1-1.03,1.75-.84,3.63-1.69,5.7-2.56,0,0,0,0,.01,0,1.97-.82,4.12-1.65,6.38-2.46.75-.27,1.52-.52,2.3-.79,1.51-.51,3.08-1.01,4.72-1.5,1.15-.35,2.3-.69,3.51-1.01,1.6-.43,3.3-.83,5.01-1.23,1.11-.26,2.16-.54,3.31-.78.1-.02.19-.05.29-.07,3.08-.64,6.04-1.11,8.93-1.51.14-.02.26-.05.39-.07.36-.05.8-.09,1.17-.13,9.11-1.15,17.19-1.29,23.87-1.08.41.01.8.02,1.22.04,3.45.13,6.53.33,9.11.51,6.12.42,14.24,1.69,20.22,3.04.67.15,1.45.36,2.15.52,1.12.24,2.2.43,3.34.7,7.26,1.73,14.28,3.87,21.09,6.27.15.05.32.1.47.15.1.03.27.09.38.13.33.12.67.22,1,.34,3.14,1.08,8.83,3.16,17.6,7.25,16.63,7.58,31.45,16.51,44.05,25.26,1.18.8,2.33,1.6,3.5,2.42,0,0,.01.01.02.01,3.14,2.2,6.22,4.44,8.96,6.62.25.2.54.45.8.65,12.51,9.64,21.9,18.22,27.32,23.2.37.34.76.72,1.13,1.07.01,0,.02.02.03.03,1.27,1.14,2.63,2.44,4.01,3.79,4.41,4.25,9.04,8.99,13.8,14.13,7.83,8.31,20.88,23.16,35.42,43.35.35.48.7.96,1.05,1.45,1.6,2.23,3.18,4.5,4.81,6.86,12.98,18.8,25.41,39.67,35.86,61.89.71,1.51,1.6,3.41,2.59,5.56.6,1.29,1.15,2.52,1.72,3.78.8,1.78,1.65,3.7,2.55,5.77,1.95,4.47,3.73,8.73,5.33,12.75.14.36.28.68.42,1.04,1.18,2.99,2.23,5.77,3.23,8.48.29.77.56,1.49.85,2.27,1.08,2.98,2.03,5.72,2.89,8.28,1.9,5.59,3.74,11.46,5.48,17.57,1.23,4.16,2.42,8.42,3.25,12.06.11.47.22,1.03.33,1.51,3.39,13.97,5.78,26.37,7.34,38.52.26,1.91.5,3.89.71,5.95.12,1.09.22,2.19.32,3.28.16,1.76.31,3.47.44,5.14.08,1,.16,2,.23,3.01.02.32.05.68.07.99.13,1.77.21,3.75.29,5.78.14,3.23.24,6.51.3,9.87,0,.04.02.08.02.12,0-.03.01-.06.01-.08v1.44s0,.04,0,.05v.05c0,.12,0,.24,0,.37,0,.02,0,.04,0,.06l.6,212.26c.02,7.85-5.15,15.72-15.52,21.7-20.53,11.85-53.86,11.85-74.26,0-10.17-5.91-15.25-13.65-15.27-21.4l-.6-211.55c0-.13,0-.25,0-.37,0-.07-.03-.13-.03-.2-.18-4.93-.53-11.05-.98-16.62-.51-5.31-1.18-10.67-2.12-16.11-.17-.96-.33-1.88-.49-2.78-.6-3.28-1.27-6.58-2.02-9.9-.1-.42-.19-.83-.3-1.28-.74-3.19-1.58-6.4-2.46-9.62-.27-1-.56-2.02-.86-3.07-.73-2.56-1.53-5.13-2.35-7.71-.96-2.99-1.95-5.91-2.97-8.79-.3-.84-.59-1.69-.9-2.53-1.12-3.09-2.28-6.1-3.45-9.03-.27-.68-.55-1.37-.83-2.06-8.11-19.97-16.87-36.07-22.52-45.65-1.85-3.06-4.42-7.18-8.65-13.96-3.8-5.84-7.63-11.26-11.47-16.48-4.62-6.07-10.09-13.03-14.97-18.96-14.1-16.56-27.63-29.18-39.02-38.39-.6-.48-1.16-.93-1.82-1.45-.13-.11-.26-.2-.39-.31-5.21-4.09-12.05-9.18-19.73-14-.58-.36-1.1-.67-1.64-1-.81-.5-1.64-.98-2.47-1.47-.64-.37-1.32-.77-1.86-1.07-2.71-1.51-5.57-3.05-8.57-4.56-.24-.12-.47-.22-.71-.34-2.41-1.2-4.95-2.35-7.55-3.46-.72-.31-1.48-.66-2.18-.94-6.37-2.59-13.29-4.77-20.78-6.14-1.72-.29-3.4-.55-5.04-.76-2.09-.27-7.35-.42-10.86-.09-.68.07-1.37.15-2.06.25-.82.14-1.53.28-2.22.43-.55.12-1.1.23-1.65.37-.37.09-.71.19-1.05.29-1,.3-1.99.64-2.97,1.04-.13.06-.27.1-.4.16-1.14.61-2.37,1.07-3.48,1.75-4.72,3.04-8.63,7.57-11.74,13.37-.33.61-.65,1.23-.97,1.9-.78,1.61-1.5,3.3-2.16,5.09-.12.32-.25.59-.37.92-.23.67-.38,1.22-.59,1.85-.44,1.34-.88,2.67-1.24,4-.07.26-.12.5-.19.76-.39,1.48-.73,2.94-1.03,4.4-.52,2.56-.93,5.16-1.36,8.09-.12.91-.24,1.83-.34,2.71-.04.34-.08.69-.11,1.04-.1,1.03-.17,1.99-.25,2.96-.26,4.06-.34,8.38-.42,11.92,0,1.07-.31,2.12-.49,3.18-.14.85-.13,1.7-.39,2.54-.04.14-.1.28-.15.42l.58,202.89c.02,7.84-5.14,15.69-15.46,21.65-20.58,11.88-53.92,11.88-74.36,0-10.12-5.88-15.19-13.6-15.22-21.34l-.61-214.23c0,1.07.34,2.14.53,3.2-.59-3.19-.48-6.42.66-9.57Zm-.14,12.33s-.01-.04-.01-.06c-.02-.06-.07-.12-.09-.18.03.08.08.16.1.25Z"/><path class="cls-11" d="m874.99,782.41c.05-1.52.12-2.99.24-4.33.01-.18.04-.39.05-.57.47-7.91,1.46-17.54,3.45-28.14.09-.51.17-1.09.26-1.58.12-.6.25-1.14.37-1.73.11-.53.19-1.04.3-1.58.16-.74.33-1.39.49-2.1.34-1.51.68-2.99,1.04-4.43.32-1.29.65-2.53.98-3.76.28-1.01.55-2.01.82-2.97.45-1.57.91-3.07,1.37-4.53.19-.59.37-1.17.55-1.73.43-1.32.86-2.58,1.29-3.8.36-1.01.69-1.93,1.02-2.83.17-.46.34-.92.51-1.37,1.93-5.07,3.39-8.23,3.52-8.51.23-.48.51-1.07.77-1.6.95-2.06,1.84-3.9,2.57-5.41.75-1.54,3.24-6.43,7.23-12.72,2.62-4.19,5.72-8.59,9.27-12.98.62-.77,1.23-1.54,1.88-2.31.06-.06.1-.13.16-.2.08-.09.16-.17.24-.26,1.18-1.4,2.37-2.8,3.66-4.18,1.27-1.37,2.53-2.64,3.78-3.89,0,0,0,0,.01-.01,2.51-2.52,4.96-4.79,7.33-6.86.45-.4.91-.79,1.36-1.18,2.48-2.11,4.83-3.98,7.04-5.61.31-.23.63-.46.94-.69,4.42-3.21,8.17-5.53,10.78-6.99.9-.5,1.91-1.07,3.02-1.67.79-.44,1.63-.87,2.53-1.35.7-.37,1.46-.74,2.23-1.13.7-.35,1.35-.68,2.1-1.03,1.75-.84,3.63-1.69,5.7-2.56,0,0,0,0,.01,0,1.97-.82,4.12-1.65,6.38-2.46.75-.27,1.52-.52,2.3-.79,1.51-.51,3.08-1.01,4.72-1.5,1.15-.35,2.3-.69,3.51-1.01,1.6-.43,3.3-.83,5.01-1.23,1.11-.26,2.16-.54,3.31-.78.1-.02.19-.05.29-.07,3.08-.64,6.04-1.11,8.93-1.51.14-.02.26-.05.39-.07.36-.05.8-.09,1.17-.13,9.11-1.15,17.19-1.29,23.87-1.08.41.01.8.02,1.22.04,3.45.13,6.53.33,9.11.51,6.12.42,14.24,1.69,20.22,3.04.67.15,1.45.36,2.15.52,1.12.24,2.2.43,3.34.7,7.26,1.73,14.28,3.87,21.09,6.27.15.05.32.1.47.15.1.03.27.09.38.13.33.12.67.22,1,.34,3.14,1.08,8.83,3.16,17.6,7.25,16.63,7.58,31.45,16.51,44.05,25.26,1.18.8,2.33,1.6,3.5,2.42,0,0,.01.01.02.01,3.14,2.2,6.22,4.44,8.96,6.62.25.2.54.45.8.65,12.51,9.64,21.9,18.22,27.32,23.2.37.34.76.72,1.13,1.07.01,0,.02.02.03.03,1.27,1.14,2.63,2.44,4.01,3.79,4.41,4.25,9.04,8.99,13.8,14.13,7.83,8.31,20.88,23.16,35.42,43.35.35.48.7.96,1.05,1.45,1.6,2.23,3.18,4.5,4.81,6.86,12.98,18.8,25.41,39.67,35.86,61.89.71,1.51,1.6,3.41,2.59,5.56.6,1.29,1.15,2.52,1.72,3.78.8,1.78,1.65,3.7,2.55,5.77,1.95,4.47,3.73,8.73,5.33,12.75.14.36.28.68.42,1.04,1.18,2.99,2.23,5.77,3.23,8.48.29.77.56,1.49.85,2.27,1.08,2.98,2.03,5.72,2.89,8.28,1.9,5.59,3.74,11.46,5.48,17.57,1.23,4.16,2.42,8.42,3.25,12.06.11.47.22,1.03.33,1.51,3.39,13.97,5.78,26.37,7.34,38.52.26,1.91.5,3.89.71,5.95.12,1.09.22,2.19.32,3.28.16,1.76.31,3.47.44,5.14.08,1,.16,2,.23,3.01.02.32.05.68.07.99.13,1.77.21,3.75.29,5.78.14,3.23.24,6.51.3,9.87,0,.04.02.08.02.12,0-.03.01-.06.01-.08v1.44s0,.04,0,.05v.05c0,.12,0,.24,0,.37,0,.02,0,.04,0,.06l.6,212.26c.02,7.85-5.15,15.72-15.52,21.7-20.53,11.85-53.86,11.85-74.26,0-10.17-5.91-15.25-13.65-15.27-21.4l-.6-211.55c0-.13,0-.25,0-.37,0-.07-.03-.13-.03-.2-.18-4.93-.53-11.05-.98-16.62-.51-5.31-1.18-10.67-2.12-16.11-.17-.96-.33-1.88-.49-2.78-.6-3.28-1.27-6.58-2.02-9.9-.1-.42-.19-.83-.3-1.28-.74-3.19-1.58-6.4-2.46-9.62-.27-1-.56-2.02-.86-3.07-.73-2.56-1.53-5.13-2.35-7.71-.96-2.99-1.95-5.91-2.97-8.79-.3-.84-.59-1.69-.9-2.53-1.12-3.09-2.28-6.1-3.45-9.03-.27-.68-.55-1.37-.83-2.06-8.11-19.97-16.87-36.07-22.52-45.65-1.85-3.06-4.42-7.18-8.65-13.96-3.8-5.84-7.63-11.26-11.47-16.48-4.62-6.07-10.09-13.03-14.97-18.96-14.1-16.56-27.63-29.18-39.02-38.39-.6-.48-1.16-.93-1.82-1.45-.13-.11-.26-.2-.39-.31-5.21-4.09-12.05-9.18-19.73-14-.58-.36-1.1-.67-1.64-1-.81-.5-1.64-.98-2.47-1.47-.64-.37-1.32-.77-1.86-1.07-2.71-1.51-5.57-3.05-8.57-4.56-.24-.12-.47-.22-.71-.34-2.41-1.2-4.95-2.35-7.55-3.46-.72-.31-1.48-.66-2.18-.94-6.37-2.59-13.29-4.77-20.78-6.14-1.72-.29-3.4-.55-5.04-.76-2.09-.27-7.35-.42-10.86-.09-.68.07-1.37.15-2.06.25-.82.14-1.53.28-2.22.43-.55.12-1.1.23-1.65.37-.37.09-.71.19-1.05.29-1,.3-1.99.64-2.97,1.04-.13.06-.27.1-.4.16-1.14.61-2.37,1.07-3.48,1.75-4.72,3.04-8.63,7.57-11.74,13.37-.33.61-.65,1.23-.97,1.9-.78,1.61-1.5,3.3-2.16,5.09-.12.32-.25.59-.37.92-.23.67-.38,1.22-.59,1.85-.44,1.34-.88,2.67-1.24,4-.07.26-.12.5-.19.76-.39,1.48-.73,2.94-1.03,4.4-.52,2.56-.93,5.16-1.36,8.09-.12.91-.24,1.83-.34,2.71-.04.34-.08.69-.11,1.04-.1,1.03-.17,1.99-.25,2.96-.26,4.06-.34,8.38-.42,11.92,0,1.07-.31,2.12-.49,3.18-.14.85-.13,1.7-.39,2.54-.04.14-.1.28-.15.42l.58,202.89c.02,7.84-5.14,15.69-15.46,21.65-20.58,11.88-53.92,11.88-74.36,0-10.12-5.88-15.19-13.6-15.22-21.34l-.61-214.23c0,1.07.34,2.14.53,3.2-.59-3.19-.48-6.42.66-9.57Zm-.14,12.33s-.01-.04-.01-.06c-.02-.06-.07-.12-.09-.18.03.08.08.16.1.25Z"/><path class="cls-10" d="m1181.46,1388.28c-1.58,5.86-4.91,10.41-9.63,13.16l-202.28,125.16c-4.77,2.95-10.26,4.52-15.86,4.52-10.04,0-19.39-4.96-25.01-13.28l-77.91-115.29c-2.54-3.89-4.51-7.9-5.87-11.91-6.6-19.46,1.44-33.37,10.33-39.36,6.1-4.11,13.4-6.38,20.56-6.38,11.98,0,22.73,6.29,30.27,17.71l54.37,81.36,172.8-108.53.18-.1c3.02-1.72,6.38-2.59,10.01-2.59,11.33,0,23.82,8.9,31.81,22.68,6.45,11.11,8.77,23.4,6.21,32.86Z"/></g></g></svg>