<?xml version="1.0" encoding="UTF-8"?><svg xmlns="http://www.w3.org/2000/svg" xmlns:xlink="http://www.w3.org/1999/xlink" viewBox="0 0 2500 2500"><defs><style>.cls-1{fill:url(#linear-gradient-2);}.cls-2{fill:rgba(0,99,127,.15);}.cls-3{fill:url(#radial-gradient-4);}.cls-4{fill:#95eee5;}.cls-5{fill:url(#Nueva_muestra_de_degradado_8-2);}.cls-6{fill:#00758a;}.cls-7{fill:url(#radial-gradient);}.cls-8{fill:url(#Nueva_muestra_de_degradado_8);}.cls-9{isolation:isolate;}.cls-9,.cls-10{fill:none;}.cls-11{fill:url(#radial-gradient-2);mix-blend-mode:overlay;opacity:.34;}.cls-12{fill:url(#radial-gradient-3);}.cls-13{fill:url(#Degradado_sin_nombre_6);fill-opacity:.72;}.cls-14{fill:#b2ede6;}.cls-10{opacity:.25;}.cls-15{fill:rgba(0,85,132,.1);}.cls-16{fill:#002530;}.cls-17{fill:url(#linear-gradient);}</style><radialGradient id="radial-gradient" cx="1624.84" cy="467.39" fx="1624.84" fy="467.39" r="404.83" gradientTransform="translate(2063.16 1436.39) rotate(119.64) scale(.82 .7) skewX(-26.4)" gradientUnits="userSpaceOnUse"><stop offset="0" stop-color="#002530" stop-opacity=".2"/><stop offset=".13" stop-color="#002530" stop-opacity=".17"/><stop offset="1" stop-color="#002530" stop-opacity="0"/></radialGradient><linearGradient id="Nueva_muestra_de_degradado_8" x1="2395.72" y1="346.5" x2="106.69" y2="1771.42" gradientUnits="userSpaceOnUse"><stop offset="0" stop-color="#12abbb"/><stop offset=".72" stop-color="#0592a8"/><stop offset="1" stop-color="#0088a1"/></linearGradient><linearGradient id="Degradado_sin_nombre_6" x1="-3754.14" y1="236.83" x2="-4930.1" y2="1905.23" gradientTransform="translate(-2827.82) rotate(-180) scale(1 -1)" gradientUnits="userSpaceOnUse"><stop offset="0" stop-color="#004a5f" stop-opacity=".1"/><stop offset=".13" stop-color="#004a5f" stop-opacity="0"/><stop offset=".16" stop-color="#004a5f" stop-opacity=".3"/><stop offset=".39" stop-color="#004a5f" stop-opacity=".25"/><stop offset=".49" stop-color="#004a5f" stop-opacity=".2"/><stop offset=".51" stop-color="#004a5f" stop-opacity=".33"/><stop offset=".54" stop-color="#004a5f" stop-opacity=".46"/><stop offset=".58" stop-color="#004a5f" stop-opacity=".5"/><stop offset=".84" stop-color="#004a5f" stop-opacity=".4"/><stop offset=".85" stop-color="#004a5f" stop-opacity=".42"/><stop offset=".98" stop-color="#004a5f" stop-opacity=".6"/></linearGradient><linearGradient id="Nueva_muestra_de_degradado_8-2" x1="304.4" y1="936.29" x2="3083.63" y2="2000.37" xlink:href="#Nueva_muestra_de_degradado_8"/><radialGradient id="radial-gradient-2" cx="-33356.82" cy="-15954.74" fx="-33356.82" fy="-15954.74" r="11039.09" gradientTransform="translate(-553.55 -1580.13) rotate(-107.29) scale(.11 -.05) skewX(-12.73)" gradientUnits="userSpaceOnUse"><stop offset="0" stop-color="#d5f8f5" stop-opacity=".8"/><stop offset=".13" stop-color="#d5f8f5" stop-opacity=".79"/><stop offset=".24" stop-color="#d6f8f5" stop-opacity=".74"/><stop offset=".35" stop-color="#d8f8f5" stop-opacity=".67"/><stop offset=".45" stop-color="#dbf9f6" stop-opacity=".57"/><stop offset=".55" stop-color="#def9f7" stop-opacity=".44"/><stop offset=".65" stop-color="#e2faf8" stop-opacity=".28"/><stop offset=".75" stop-color="#e7fbf9" stop-opacity=".09"/><stop offset=".79" stop-color="#eafcfa" stop-opacity="0"/></radialGradient><radialGradient id="radial-gradient-3" cx="1624.84" cy="467.39" fx="1624.84" fy="467.39" r="404.83" gradientTransform="translate(2063.16 1436.39) rotate(119.64) scale(.82 .7) skewX(-26.4)" xlink:href="#radial-gradient"/><linearGradient id="linear-gradient" x1="6469.73" y1="1435.02" x2="7511.67" y2="1435.02" gradientTransform="translate(8040.82) rotate(-180) scale(1 -1)" gradientUnits="userSpaceOnUse"><stop offset=".12" stop-color="#005770"/><stop offset=".24" stop-color="#003e50"/><stop offset=".29" stop-color="#004255"/><stop offset=".47" stop-color="#004d64"/><stop offset=".68" stop-color="#00546d"/><stop offset="1" stop-color="#005770"/></linearGradient><linearGradient id="linear-gradient-2" x1="6717.79" y1="852.57" x2="6821.55" y2="852.57" gradientTransform="translate(8040.82) rotate(-180) scale(1 -1)" gradientUnits="userSpaceOnUse"><stop offset=".04" stop-color="#4dd2d2"/><stop offset=".09" stop-color="#4dd2d2" stop-opacity=".82"/><stop offset=".15" stop-color="#4dd2d2" stop-opacity=".63"/><stop offset=".22" stop-color="#4dd2d2" stop-opacity=".46"/><stop offset=".3" stop-color="#4dd2d2" stop-opacity=".32"/><stop offset=".38" stop-color="#4dd2d2" stop-opacity=".2"/><stop offset=".48" stop-color="#4dd2d2" stop-opacity=".11"/><stop offset=".58" stop-color="#4dd2d2" stop-opacity=".05"/><stop offset=".72" stop-color="#4dd2d2" stop-opacity=".01"/><stop offset="1" stop-color="#4dd2d2" stop-opacity="0"/></linearGradient><radialGradient id="radial-gradient-4" cx="7018.61" cy="930.53" fx="7018.61" fy="930.53" r="104.39" gradientTransform="translate(8040.82 -1478.06) rotate(-180) scale(1 -2.59)" gradientUnits="userSpaceOnUse"><stop offset=".11" stop-color="#4dd2d2"/><stop offset=".24" stop-color="#4dd2d2" stop-opacity=".8"/><stop offset=".44" stop-color="#4dd2d2" stop-opacity=".52"/><stop offset=".62" stop-color="#4dd2d2" stop-opacity=".29"/><stop offset=".78" stop-color="#4dd2d2" stop-opacity=".13"/><stop offset=".91" stop-color="#4dd2d2" stop-opacity=".04"/><stop offset="1" stop-color="#4dd2d2" stop-opacity="0"/></radialGradient></defs><g class="cls-9"><g id="Innactive"><ellipse class="cls-7" cx="1211.94" cy="2266.11" rx="233.88" ry="405.11" transform="translate(-1061.76 3463.77) rotate(-89.64)"/><path class="cls-8" d="m563.82,241.16c9.24-5.37,21.99-4.59,35.88,3.43,1.96,1.13,3.94,2.4,5.94,3.83,28.66,20.38,66.68,45.8,110.29,70.99,119.91,69.23,282.3,136.76,410.21,93.52,9.17-3.1,20.27-.89,31.36,5.52,11.09,6.4,22.17,16.99,31.29,30.65,127.23,190.53,289.52,310.47,409.42,379.69,43.63,25.19,81.64,43.66,110.31,56.38,2,.89,3.98,1.9,5.94,3.03,27.56,15.91,50.46,55.02,50.37,87.53l-2.26,796.3c-.45,159.23-65.84,250.72-153.65,301.75l193.99-112.73c87.8-51.03,153.2-142.52,153.65-301.75l2.26-796.3c.09-32.51-22.81-71.62-50.37-87.53-1.96-1.13-3.94-2.14-5.94-3.03-28.67-12.72-66.69-31.19-110.31-56.38-119.9-69.22-282.19-189.16-409.42-379.69-9.12-13.66-20.2-24.25-31.29-30.65-11.09-6.4-22.19-8.62-31.36-5.52-127.9,43.24-290.3-24.29-410.21-93.52-43.62-25.18-81.63-50.61-110.29-70.99-2-1.42-3.98-2.7-5.94-3.83-13.89-8.02-26.64-8.8-35.88-3.43l-193.99,112.73Z"/><path class="cls-13" d="m563.82,241.16c9.24-5.37,1132.9,1781.58,1045.09,1832.61l193.99-112.73c87.8-51.03,153.2-142.52,153.65-301.75l2.26-796.3c.09-32.51-22.81-71.62-50.37-87.53-1.96-1.13-3.94-2.14-5.94-3.03-28.67-12.72-66.69-31.19-110.31-56.38-119.9-69.22-282.19-189.16-409.42-379.69-9.12-13.66-20.2-24.25-31.29-30.65-11.09-6.4-22.19-8.62-31.36-5.52-127.9,43.24-290.3-24.29-410.21-93.52-43.62-25.18-81.63-50.61-110.29-70.99-2-1.42-3.98-2.7-5.94-3.83-13.89-8.02-26.64-8.8-35.88-3.43l-193.99,112.73Z"/><g class="cls-9"><path class="cls-5" d="m1157.49,418.44c-11.09-6.4-22.19-8.62-31.36-5.52-127.9,43.24-290.3-24.29-410.21-93.52-43.62-25.18-81.64-50.61-110.29-70.99-2-1.42-3.98-2.7-5.94-3.83-27.55-15.91-50.61-3.33-50.7,29.18l-2.26,796.3c-1.15,406.37,421.76,860.56,561.66,999.65,14.33,14.23,29.33,25.87,44.33,34.53,15.01,8.67,30.02,14.36,44.38,16.69,140.18,22.61,564.28,57.44,565.43-348.92l2.26-796.3c.09-32.51-22.81-71.62-50.37-87.53-1.96-1.13-3.94-2.14-5.94-3.03-28.67-12.72-66.69-31.19-110.31-56.38-119.9-69.22-282.19-189.16-409.42-379.69-9.12-13.66-20.2-24.25-31.29-30.65Z"/><g class="cls-10"><path class="cls-4" d="m577.18,247.73c5.21,0,11.27,1.91,17.53,5.52,1.69.98,3.42,2.09,5.14,3.31,36.5,25.96,73.88,50.01,111.09,71.5,124.67,71.98,234.73,108.48,327.13,108.48,32.81,0,63.52-4.76,91.28-14.14,1.68-.57,3.55-.86,5.55-.86,5.21,0,11.3,1.92,17.6,5.56,10.05,5.8,19.99,15.59,27.97,27.54,129.79,194.37,296.09,315.45,412.73,382.8,37.25,21.51,74.68,40.64,111.26,56.86,1.65.73,3.33,1.59,4.99,2.55,24.67,14.25,45.45,50.35,45.37,78.84l-2.26,796.3c-.2,70.09-13.41,130.68-39.27,180.07-22.7,43.36-55.66,79.05-97.95,106.08-36.61,23.4-80.82,40.73-131.4,51.51-41.84,8.92-88.32,13.45-138.15,13.45-59.87,0-113.03-6.55-147.06-12.03-13.09-2.13-26.88-7.33-40.99-15.48-14.41-8.32-28.64-19.41-42.28-32.96-71.89-71.48-210.69-218.25-332.49-398.12-68.17-100.67-121.79-198.29-159.36-290.16-44.63-109.12-67.12-211.49-66.86-304.26l2.26-796.3c.02-7.84,1.84-26.07,18.17-26.07h0m0-10c-16.53,0-28.11,13.03-28.17,36.04l-2.26,796.3c-1.15,406.37,421.76,860.56,561.66,999.65,14.33,14.23,29.33,25.87,44.33,34.53,15.01,8.67,30.03,14.36,44.39,16.69,35.3,5.69,88.64,12.16,148.67,12.16,178.33,0,415.91-57.06,416.77-361.09l2.26-796.3c.09-32.51-22.81-71.62-50.37-87.53-1.96-1.13-3.94-2.14-5.94-3.03-28.67-12.72-66.69-31.19-110.31-56.38-119.9-69.22-282.19-189.16-409.42-379.69-9.12-13.66-20.2-24.25-31.29-30.65-7.75-4.47-15.5-6.9-22.6-6.9-3.06,0-6,.45-8.76,1.39-27.97,9.46-57.61,13.62-88.08,13.62-108.84,0-228.45-53.05-322.13-107.14-43.62-25.18-81.64-50.61-110.29-70.99-2-1.42-3.98-2.7-5.94-3.83-8.05-4.64-15.71-6.86-22.53-6.86h0Z"/></g></g><g id="inner_glow_front"><ellipse class="cls-11" cx="1153.95" cy="1218.34" rx="621.56" ry="1076.64" transform="translate(-457.55 750.33) rotate(-30.36)"/></g><ellipse class="cls-12" cx="1211.94" cy="2266.11" rx="233.88" ry="405.11" transform="translate(-1061.76 3463.77) rotate(-89.64)"/><g id="Lock_Grey"><path class="cls-15" d="m959.49,793.71s-.01-.04-.01-.06c-.04-.11-.13-.21-.16-.33.04.13.13.26.18.39Z"/><path class="cls-2" d="m1491.76,1220.83c0,.06,0,.12,0,.17.02-18.35-11.99-36.68-36.08-50.68l-51.14-29.72h0s-105.22-61.15-105.22-61.15h0s-227.22-132.04-227.22-132.04c-2.65-1.54-5.41-2.99-8.24-4.36l-.41-213.06c.05-.16.13-.31.18-.47.26-.84.25-1.69.39-2.53.18-1.07.5-2.13.49-3.2.09-3.53.16-7.83.42-11.88.07-.99.15-1.98.25-3.03.03-.33.07-.66.11-.98.09-.89.22-1.81.34-2.74.43-2.93.85-5.54,1.36-8.1.3-1.42.64-2.86,1.01-4.31.07-.28.13-.55.21-.84.35-1.31.79-2.63,1.22-3.95.21-.64.37-1.21.6-1.89.12-.34.26-.62.38-.95.65-1.78,1.38-3.46,2.15-5.05.33-.67.65-1.3.98-1.92,3.11-5.8,7.02-10.32,11.75-13.37,1.1-.68,2.34-1.14,3.48-1.75.13-.06.26-.1.39-.16.98-.4,1.98-.74,2.99-1.04.34-.1.67-.2,1.04-.28.55-.15,1.11-.26,1.66-.37.69-.14,1.4-.28,2.21-.42.68-.1,1.36-.18,2.04-.25,3.5-.33,8.78-.18,10.87.09,1.63.21,3.31.47,5.02.76,7.49,1.37,14.42,3.55,20.79,6.14.69.29,1.46.63,2.19.94,2.59,1.11,5.13,2.26,7.54,3.45.24.12.47.22.71.34,3,1.51,5.86,3.05,8.56,4.56.54.3,1.22.7,1.87,1.07.82.48,1.64.96,2.44,1.45.55.33,1.08.65,1.67,1.02,7.67,4.82,14.5,9.9,19.7,13.98.14.11.27.21.41.32.66.52,1.22.97,1.82,1.46,5.93,4.79,12.42,10.48,19.29,17.17.35.35.69.69,1.04,1.04,1.9,1.87,3.82,3.81,5.76,5.83.34.36.72.73,1.05,1.08,3.88,4.08,7.86,8.55,11.87,13.26,4.88,5.92,10.34,12.88,14.97,18.95,3.83,5.22,7.67,10.65,11.47,16.49,4.19,6.71,6.75,10.82,8.6,13.87,5.65,9.57,14.43,25.7,22.56,45.73.28.69.56,1.38.83,2.07,1.17,2.94,2.32,5.95,3.45,9.04.3.84.59,1.68.89,2.52,1.02,2.88,2.02,5.81,2.98,8.8.82,2.58,1.62,5.15,2.35,7.7.3,1.05.59,2.07.86,3.08.88,3.22,1.72,6.43,2.46,9.62.1.45.2.86.3,1.27.76,3.32,1.42,6.62,2.02,9.91.16.91.32,1.82.49,2.78.93,5.42,1.61,10.78,2.12,16.08.45,5.58.8,11.71.98,16.65,0,0,0,.02,0,.03l.05,36.79s-2.94,48.07,46.4,63.26c45.23,13.92,58.81-5.77,58.81-5.77l-.21-94.67s.02-.1.02-.15c0-.12,0-.23,0-.35,0-.02,0-.03,0-.05,0-.22-.01-.44-.02-.66v-.83s-.01.05-.01.08c0,0,0-.02,0-.03-.05-3.39-.15-6.71-.3-9.97-.07-2.03-.16-4.01-.29-5.77-.02-.3-.05-.66-.07-.98-.07-1.02-.16-2.04-.23-3.06-.13-1.68-.28-3.39-.44-5.16-.1-1.07-.2-2.14-.31-3.21-.21-2.07-.45-4.07-.71-6-1.55-12.14-3.94-24.54-7.33-38.51-.11-.48-.22-1.03-.33-1.5-.82-3.63-2.02-7.9-3.25-12.06-1.71-6.03-3.52-11.81-5.4-17.33-.89-2.64-1.88-5.49-2.99-8.57-.25-.7-.51-1.35-.76-2.03-1.03-2.78-2.12-5.66-3.34-8.75-.04-.11-.08-.21-.13-.32-1.7-4.3-3.64-8.9-5.74-13.71-.81-1.85-1.57-3.59-2.3-5.2-.62-1.38-1.23-2.73-1.88-4.14-.97-2.11-1.84-3.97-2.54-5.45-7.72-16.42-16.54-32.08-25.85-46.75-.05-.09-.11-.17-.16-.25-2.19-3.44-4.4-6.83-6.63-10.15-.22-.32-.43-.65-.65-.97-2.16-3.19-4.33-6.32-6.52-9.4-.32-.45-.63-.9-.95-1.35-2.2-3.07-4.41-6.09-6.63-9.03-8.92-11.89-18.19-23.09-27.3-32.97-5.62-6.17-11.08-11.8-16.23-16.77-1.39-1.36-2.76-2.66-4.03-3.8-.02-.01-.03-.03-.05-.04-.37-.34-.76-.72-1.12-1.06-5.42-4.98-14.81-13.55-27.32-23.19-.26-.2-.55-.45-.8-.65-2.74-2.18-5.82-4.42-8.96-6.62,0,0-.02-.01-.03-.02-1.17-.82-2.33-1.63-3.51-2.43-12.58-8.74-27.38-17.66-43.97-25.23-8.84-4.13-14.57-6.22-17.71-7.29-.26-.09-.53-.18-.79-.27-.16-.05-.39-.14-.53-.18-.21-.07-.46-.15-.67-.22-6.76-2.37-13.72-4.5-20.91-6.21-1.13-.27-2.2-.45-3.31-.7-.7-.17-1.47-.37-2.14-.52-5.99-1.35-14.11-2.63-20.24-3.05-2.58-.18-5.65-.38-9.1-.51-.42-.02-.83-.02-1.24-.04-6.69-.21-14.78-.08-23.9,1.08-.37.05-.79.08-1.14.13-.09.01-.17.04-.26.05-2.93.4-5.93.88-9.05,1.53-1.7.35-3.26.75-4.85,1.14-.77.19-1.57.35-2.33.55-4.84,1.26-9.2,2.65-13.08,4.08-.03.01-.07.02-.1.03-9.61,3.56-16.36,7.33-20.74,9.78-2.6,1.46-6.36,3.78-10.78,6.99-.29.21-.58.43-.88.64-2.22,1.65-4.6,3.53-7.1,5.66-.44.38-.88.76-1.32,1.14-3.56,3.1-7.3,6.64-11.13,10.79-1.28,1.38-2.47,2.78-3.64,4.17-.09.1-.17.18-.26.28-.06.07-.11.14-.17.21-.64.76-1.23,1.51-1.84,2.27-3.56,4.39-6.66,8.8-9.29,13-4,6.3-6.49,11.2-7.24,12.74-.73,1.5-1.62,3.34-2.57,5.39-.26.54-.54,1.13-.77,1.62-.14.29-1.6,3.45-3.52,8.52-.17.43-.33.88-.5,1.33-.34.92-.68,1.87-1.05,2.9-.42,1.2-.84,2.43-1.27,3.72-.2.59-.39,1.2-.58,1.82-.46,1.44-.91,2.91-1.35,4.46-.28.98-.56,1.99-.84,3.02-.33,1.22-.66,2.44-.98,3.72-.36,1.45-.7,2.94-1.05,4.46-.16.72-.34,1.37-.49,2.1-.11.54-.19,1.04-.3,1.57-.12.58-.26,1.12-.37,1.72-.09.49-.17,1.07-.26,1.57-2,10.6-2.99,20.25-3.45,28.16-.02.18-.04.39-.06.57-.12,1.31-.19,2.75-.24,4.23-1.18,3.19-1.31,6.44-.71,9.67-.2-1.07-.53-2.13-.53-3.21l.4,209c-22.79,2.77-44.53,9.26-62.28,19.51-25.15,14.52-37.34,33.73-36.57,52.79-.02-.52-.07-1.05-.07-1.57l1.4,492.72c.05,18.29,12.06,36.55,36.07,50.5l383.58,222.91c48.34,28.09,127,28.06,175.61,0,24.49-14.14,36.72-32.69,36.66-51.21l-1.4-492.72Z"/><path class="cls-17" d="m811.33,1091.92l383.58,222.91c48.34,28.09,127,28.06,175.61,0,24.49-14.14,36.72-32.69,36.66-51.21l1.4,492.72c.05,18.52-12.18,37.08-36.66,51.21-48.6,28.06-127.26,28.09-175.61,0l-383.58-222.91c-24.01-13.95-36.02-32.21-36.07-50.5l-1.4-492.72c.05,18.29,12.06,36.55,36.07,50.5Z"/><path class="cls-6" d="m811.9,990.21c-48.6,28.06-48.92,73.62-.57,101.72l383.58,222.91c48.34,28.09,127,28.06,175.61,0,48.66-28.09,48.92-73.62.57-101.72l-383.58-222.91c-48.34-28.09-126.95-28.09-175.61,0Z"/></g><ellipse class="cls-16" cx="926.54" cy="1047.38" rx="31.75" ry="55" transform="translate(-126.65 1967.32) rotate(-89.64)"/><ellipse class="cls-16" cx="1267.28" cy="1245.19" rx="31.75" ry="55" transform="translate(14.15 2504.61) rotate(-89.64)"/><path class="cls-14" d="m874.99,762.06c.05-1.52.12-2.99.24-4.33.01-.18.04-.39.05-.57.47-7.91,1.46-17.54,3.45-28.14.09-.51.17-1.09.26-1.58.12-.6.25-1.14.37-1.73.11-.53.19-1.04.3-1.58.16-.74.33-1.39.49-2.1.34-1.51.68-2.99,1.04-4.43.32-1.29.65-2.53.98-3.76.28-1.01.55-2.01.82-2.97.45-1.57.91-3.07,1.37-4.53.19-.59.37-1.17.55-1.73.43-1.32.86-2.58,1.29-3.8.36-1.01.69-1.93,1.02-2.83.17-.46.34-.92.51-1.37,1.93-5.07,3.39-8.23,3.52-8.51.23-.48.51-1.07.77-1.6.95-2.06,1.84-3.9,2.57-5.41.75-1.54,3.24-6.43,7.23-12.72,2.62-4.19,5.72-8.59,9.27-12.98.62-.77,1.23-1.54,1.88-2.31.06-.06.1-.13.16-.2.08-.09.16-.17.24-.26,1.18-1.4,2.37-2.8,3.66-4.18,1.27-1.37,2.53-2.64,3.78-3.89,0,0,0,0,.01-.01,2.51-2.52,4.96-4.79,7.33-6.86.45-.4.91-.79,1.36-1.18,2.48-2.11,4.83-3.98,7.04-5.61.31-.23.63-.46.94-.69,4.42-3.21,8.17-5.53,10.78-6.99.9-.5,1.91-1.07,3.02-1.67.79-.44,1.63-.87,2.53-1.35.7-.37,1.46-.74,2.23-1.13.7-.35,1.35-.68,2.1-1.03,1.75-.84,3.63-1.69,5.7-2.56,0,0,0,0,.01,0,1.97-.82,4.12-1.65,6.38-2.46.75-.27,1.52-.52,2.3-.79,1.51-.51,3.08-1.01,4.72-1.5,1.15-.35,2.3-.69,3.51-1.01,1.6-.43,3.3-.83,5.01-1.23,1.11-.26,2.16-.54,3.31-.78.1-.02.19-.05.29-.07,3.08-.64,6.04-1.11,8.93-1.51.14-.02.26-.05.39-.07.36-.05.8-.09,1.17-.13,9.11-1.15,17.19-1.29,23.87-1.08.41.01.8.02,1.22.04,3.45.13,6.53.33,9.11.51,6.12.42,14.24,1.69,20.22,3.04.67.15,1.45.36,2.15.52,1.12.24,2.2.43,3.34.7,7.26,1.73,14.28,3.87,21.09,6.27.15.05.32.1.47.15.1.03.27.09.38.13.33.12.67.22,1,.34,3.14,1.08,8.83,3.16,17.6,7.25,16.63,7.58,31.45,16.51,44.05,25.26,1.18.8,2.33,1.6,3.5,2.42,0,0,.01.01.02.01,3.14,2.2,6.22,4.44,8.96,6.62.25.2.54.45.8.65,12.51,9.64,21.9,18.22,27.32,23.2.37.34.76.72,1.13,1.07.01,0,.02.02.03.03,1.27,1.14,2.63,2.44,4.01,3.79,4.41,4.25,9.04,8.99,13.8,14.13,7.83,8.31,20.88,23.16,35.42,43.35.35.48.7.96,1.05,1.45,1.6,2.23,3.18,4.5,4.81,6.86,12.98,18.8,25.41,39.67,35.86,61.89.71,1.51,1.6,3.41,2.59,5.56.6,1.29,1.15,2.52,1.72,3.78.8,1.78,1.65,3.7,2.55,5.77,1.95,4.47,3.73,8.73,5.33,12.75.14.36.28.68.42,1.04,1.18,2.99,2.23,5.77,3.23,8.48.29.77.56,1.49.85,2.27,1.08,2.98,2.03,5.72,2.89,8.28,1.9,5.59,3.74,11.46,5.48,17.57,1.23,4.16,2.42,8.42,3.25,12.06.11.47.22,1.03.33,1.51,3.39,13.97,5.78,26.37,7.34,38.52.26,1.91.5,3.89.71,5.95.12,1.09.22,2.19.32,3.28.16,1.76.31,3.47.44,5.14.08,1,.16,2,.23,3.01.02.32.05.68.07.99.13,1.77.21,3.75.29,5.78.14,3.23.24,6.51.3,9.87,0,.04.02.08.02.12,0-.03.01-.06.01-.08v1.44s0,.04,0,.05v.05c0,.12,0,.24,0,.37,0,.02,0,.04,0,.06l.6,101.7c.02,7.85-5.15,15.72-15.52,21.7-20.53,11.85-53.86,11.85-74.26,0-10.17-5.91-15.25-13.65-15.27-21.4l-.6-101c0-.13,0-.25,0-.37,0-.07-.03-.13-.03-.2-.18-4.93-.53-11.05-.98-16.62-.51-5.31-1.18-10.67-2.12-16.11-.17-.96-.33-1.88-.49-2.78-.6-3.28-1.27-6.58-2.02-9.9-.1-.42-.19-.83-.3-1.28-.74-3.19-1.58-6.4-2.46-9.62-.27-1-.56-2.02-.86-3.07-.73-2.56-1.53-5.13-2.35-7.71-.96-2.99-1.95-5.91-2.97-8.79-.3-.84-.59-1.69-.9-2.53-1.12-3.09-2.28-6.1-3.45-9.03-.27-.68-.55-1.37-.83-2.06-8.11-19.97-16.87-36.07-22.52-45.65-1.85-3.06-4.42-7.18-8.65-13.96-3.8-5.84-7.63-11.26-11.47-16.48-4.62-6.07-10.09-13.03-14.97-18.96-14.1-16.56-27.63-29.18-39.02-38.39-.6-.48-1.16-.93-1.82-1.45-.13-.11-.26-.2-.39-.31-5.21-4.09-12.05-9.18-19.73-14-.58-.36-1.1-.67-1.64-1-.81-.5-1.64-.98-2.47-1.47-.64-.37-1.32-.77-1.86-1.07-2.71-1.51-5.57-3.05-8.57-4.56-.24-.12-.47-.22-.71-.34-2.41-1.2-4.95-2.35-7.55-3.46-.72-.31-1.48-.66-2.18-.94-6.37-2.59-13.29-4.77-20.78-6.14-1.72-.29-3.4-.55-5.04-.76-2.09-.27-7.35-.42-10.86-.09-.68.07-1.37.15-2.06.25-.82.14-1.53.28-2.22.43-.55.12-1.1.23-1.65.37-.37.09-.71.19-1.05.29-1,.3-1.99.64-2.97,1.04-.13.06-.27.1-.4.16-1.14.61-2.37,1.07-3.48,1.75-4.72,3.04-8.63,7.57-11.74,13.37-.33.61-.65,1.23-.97,1.9-.78,1.61-1.5,3.3-2.16,5.09-.12.32-.25.59-.37.92-.23.67-.38,1.22-.59,1.85-.44,1.34-.88,2.67-1.24,4-.07.26-.12.5-.19.76-.39,1.48-.73,2.94-1.03,4.4-.52,2.56-.93,5.16-1.36,8.09-.12.91-.24,1.83-.34,2.71-.04.34-.08.69-.11,1.04-.1,1.03-.17,1.99-.25,2.96-.26,4.06-.34,8.38-.42,11.92,0,1.07-.31,2.12-.49,3.18-.14.85-.13,1.7-.39,2.54-.04.14-.1.28-.15.42l.58,264.87c.02,7.84-5.14,15.69-15.46,21.65-20.58,11.88-53.92,11.88-74.36,0-10.12-5.88-15.19-13.6-15.22-21.34l-.61-276.21c0,1.07.34,2.14.53,3.2-.59-3.19-.48-6.42.66-9.57Zm-.14,12.33s-.01-.04-.01-.06c-.02-.06-.07-.12-.09-.18.03.08.08.16.1.25Z"/><path class="cls-1" d="m874.99,762.06c.05-1.52.12-2.99.24-4.33.01-.18.04-.39.05-.57.47-7.91,1.46-17.54,3.45-28.14.09-.51.17-1.09.26-1.58.12-.6.25-1.14.37-1.73.11-.53.19-1.04.3-1.58.16-.74.33-1.39.49-2.1.34-1.51.68-2.99,1.04-4.43.32-1.29.65-2.53.98-3.76.28-1.01.55-2.01.82-2.97.45-1.57.91-3.07,1.37-4.53.19-.59.37-1.17.55-1.73.43-1.32.86-2.58,1.29-3.8.36-1.01.69-1.93,1.02-2.83.17-.46.34-.92.51-1.37,1.93-5.07,3.39-8.23,3.52-8.51.23-.48.51-1.07.77-1.6.95-2.06,1.84-3.9,2.57-5.41.75-1.54,3.24-6.43,7.23-12.72,2.62-4.19,5.72-8.59,9.27-12.98.62-.77,1.23-1.54,1.88-2.31.06-.06.1-.13.16-.2.08-.09.16-.17.24-.26,1.18-1.4,2.37-2.8,3.66-4.18,1.27-1.37,2.53-2.64,3.78-3.89,0,0,0,0,.01-.01,2.51-2.52,4.96-4.79,7.33-6.86.45-.4.91-.79,1.36-1.18,2.48-2.11,4.83-3.98,7.04-5.61.31-.23.63-.46.94-.69,4.42-3.21,8.17-5.53,10.78-6.99.9-.5,1.91-1.07,3.02-1.67.79-.44,1.63-.87,2.53-1.35.7-.37,1.46-.74,2.23-1.13.7-.35,1.35-.68,2.1-1.03,1.75-.84,3.63-1.69,5.7-2.56,0,0,0,0,.01,0,1.97-.82,4.12-1.65,6.38-2.46.75-.27,1.52-.52,2.3-.79,1.51-.51,3.08-1.01,4.72-1.5,1.15-.35,2.3-.69,3.51-1.01,1.6-.43,3.3-.83,5.01-1.23,1.11-.26,2.16-.54,3.31-.78.1-.02.19-.05.29-.07,3.08-.64,6.04-1.11,8.93-1.51.14-.02.26-.05.39-.07.36-.05.8-.09,1.17-.13,9.11-1.15,17.19-1.29,23.87-1.08.41.01.8.02,1.22.04,3.45.13,6.53.33,9.11.51,6.12.42,14.24,1.69,20.22,3.04.67.15,1.45.36,2.15.52,1.12.24,2.2.43,3.34.7,7.26,1.73,14.28,3.87,21.09,6.27.15.05.32.1.47.15.1.03.27.09.38.13.33.12.67.22,1,.34,3.14,1.08,8.83,3.16,17.6,7.25,16.63,7.58,31.45,16.51,44.05,25.26,1.18.8,2.33,1.6,3.5,2.42,0,0,.01.01.02.01,3.14,2.2,6.22,4.44,8.96,6.62.25.2.54.45.8.65,12.51,9.64,21.9,18.22,27.32,23.2.37.34.76.72,1.13,1.07.01,0,.02.02.03.03,1.27,1.14,2.63,2.44,4.01,3.79,4.41,4.25,9.04,8.99,13.8,14.13,7.83,8.31,20.88,23.16,35.42,43.35.35.48.7.96,1.05,1.45,1.6,2.23,3.18,4.5,4.81,6.86,12.98,18.8,25.41,39.67,35.86,61.89.71,1.51,1.6,3.41,2.59,5.56.6,1.29,1.15,2.52,1.72,3.78.8,1.78,1.65,3.7,2.55,5.77,1.95,4.47,3.73,8.73,5.33,12.75.14.36.28.68.42,1.04,1.18,2.99,2.23,5.77,3.23,8.48.29.77.56,1.49.85,2.27,1.08,2.98,2.03,5.72,2.89,8.28,1.9,5.59,3.74,11.46,5.48,17.57,1.23,4.16,2.42,8.42,3.25,12.06.11.47.22,1.03.33,1.51,3.39,13.97,5.78,26.37,7.34,38.52.26,1.91.5,3.89.71,5.95.12,1.09.22,2.19.32,3.28.16,1.76.31,3.47.44,5.14.08,1,.16,2,.23,3.01.02.32.05.68.07.99.13,1.77.21,3.75.29,5.78.14,3.23.24,6.51.3,9.87,0,.04.02.08.02.12,0-.03.01-.06.01-.08v1.44s0,.04,0,.05v.05c0,.12,0,.24,0,.37,0,.02,0,.04,0,.06l.6,101.7c.02,7.85-5.15,15.72-15.52,21.7-20.53,11.85-53.86,11.85-74.26,0-10.17-5.91-15.25-13.65-15.27-21.4l-.6-101c0-.13,0-.25,0-.37,0-.07-.03-.13-.03-.2-.18-4.93-.53-11.05-.98-16.62-.51-5.31-1.18-10.67-2.12-16.11-.17-.96-.33-1.88-.49-2.78-.6-3.28-1.27-6.58-2.02-9.9-.1-.42-.19-.83-.3-1.28-.74-3.19-1.58-6.4-2.46-9.62-.27-1-.56-2.02-.86-3.07-.73-2.56-1.53-5.13-2.35-7.71-.96-2.99-1.95-5.91-2.97-8.79-.3-.84-.59-1.69-.9-2.53-1.12-3.09-2.28-6.1-3.45-9.03-.27-.68-.55-1.37-.83-2.06-8.11-19.97-16.87-36.07-22.52-45.65-1.85-3.06-4.42-7.18-8.65-13.96-3.8-5.84-7.63-11.26-11.47-16.48-4.62-6.07-10.09-13.03-14.97-18.96-14.1-16.56-27.63-29.18-39.02-38.39-.6-.48-1.16-.93-1.82-1.45-.13-.11-.26-.2-.39-.31-5.21-4.09-12.05-9.18-19.73-14-.58-.36-1.1-.67-1.64-1-.81-.5-1.64-.98-2.47-1.47-.64-.37-1.32-.77-1.86-1.07-2.71-1.51-5.57-3.05-8.57-4.56-.24-.12-.47-.22-.71-.34-2.41-1.2-4.95-2.35-7.55-3.46-.72-.31-1.48-.66-2.18-.94-6.37-2.59-13.29-4.77-20.78-6.14-1.72-.29-3.4-.55-5.04-.76-2.09-.27-7.35-.42-10.86-.09-.68.07-1.37.15-2.06.25-.82.14-1.53.28-2.22.43-.55.12-1.1.23-1.65.37-.37.09-.71.19-1.05.29-1,.3-1.99.64-2.97,1.04-.13.06-.27.1-.4.16-1.14.61-2.37,1.07-3.48,1.75-4.72,3.04-8.63,7.57-11.74,13.37-.33.61-.65,1.23-.97,1.9-.78,1.61-1.5,3.3-2.16,5.09-.12.32-.25.59-.37.92-.23.67-.38,1.22-.59,1.85-.44,1.34-.88,2.67-1.24,4-.07.26-.12.5-.19.76-.39,1.48-.73,2.94-1.03,4.4-.52,2.56-.93,5.16-1.36,8.09-.12.91-.24,1.83-.34,2.71-.04.34-.08.69-.11,1.04-.1,1.03-.17,1.99-.25,2.96-.26,4.06-.34,8.38-.42,11.92,0,1.07-.31,2.12-.49,3.18-.14.85-.13,1.7-.39,2.54-.04.14-.1.28-.15.42l.58,264.87c.02,7.84-5.14,15.69-15.46,21.65-20.58,11.88-53.92,11.88-74.36,0-10.12-5.88-15.19-13.6-15.22-21.34l-.61-276.21c0,1.07.34,2.14.53,3.2-.59-3.19-.48-6.42.66-9.57Zm-.14,12.33s-.01-.04-.01-.06c-.02-.06-.07-.12-.09-.18.03.08.08.16.1.25Z"/><path class="cls-3" d="m874.99,762.06c.05-1.52.12-2.99.24-4.33.01-.18.04-.39.05-.57.47-7.91,1.46-17.54,3.45-28.14.09-.51.17-1.09.26-1.58.12-.6.25-1.14.37-1.73.11-.53.19-1.04.3-1.58.16-.74.33-1.39.49-2.1.34-1.51.68-2.99,1.04-4.43.32-1.29.65-2.53.98-3.76.28-1.01.55-2.01.82-2.97.45-1.57.91-3.07,1.37-4.53.19-.59.37-1.17.55-1.73.43-1.32.86-2.58,1.29-3.8.36-1.01.69-1.93,1.02-2.83.17-.46.34-.92.51-1.37,1.93-5.07,3.39-8.23,3.52-8.51.23-.48.51-1.07.77-1.6.95-2.06,1.84-3.9,2.57-5.41.75-1.54,3.24-6.43,7.23-12.72,2.62-4.19,5.72-8.59,9.27-12.98.62-.77,1.23-1.54,1.88-2.31.06-.06.1-.13.16-.2.08-.09.16-.17.24-.26,1.18-1.4,2.37-2.8,3.66-4.18,1.27-1.37,2.53-2.64,3.78-3.89,0,0,0,0,.01-.01,2.51-2.52,4.96-4.79,7.33-6.86.45-.4.91-.79,1.36-1.18,2.48-2.11,4.83-3.98,7.04-5.61.31-.23.63-.46.94-.69,4.42-3.21,8.17-5.53,10.78-6.99.9-.5,1.91-1.07,3.02-1.67.79-.44,1.63-.87,2.53-1.35.7-.37,1.46-.74,2.23-1.13.7-.35,1.35-.68,2.1-1.03,1.75-.84,3.63-1.69,5.7-2.56,0,0,0,0,.01,0,1.97-.82,4.12-1.65,6.38-2.46.75-.27,1.52-.52,2.3-.79,1.51-.51,3.08-1.01,4.72-1.5,1.15-.35,2.3-.69,3.51-1.01,1.6-.43,3.3-.83,5.01-1.23,1.11-.26,2.16-.54,3.31-.78.1-.02.19-.05.29-.07,3.08-.64,6.04-1.11,8.93-1.51.14-.02.26-.05.39-.07.36-.05.8-.09,1.17-.13,9.11-1.15,17.19-1.29,23.87-1.08.41.01.8.02,1.22.04,3.45.13,6.53.33,9.11.51,6.12.42,14.24,1.69,20.22,3.04.67.15,1.45.36,2.15.52,1.12.24,2.2.43,3.34.7,7.26,1.73,14.28,3.87,21.09,6.27.15.05.32.1.47.15.1.03.27.09.38.13.33.12.67.22,1,.34,3.14,1.08,8.83,3.16,17.6,7.25,16.63,7.58,31.45,16.51,44.05,25.26,1.18.8,2.33,1.6,3.5,2.42,0,0,.01.01.02.01,3.14,2.2,6.22,4.44,8.96,6.62.25.2.54.45.8.65,12.51,9.64,21.9,18.22,27.32,23.2.37.34.76.72,1.13,1.07.01,0,.02.02.03.03,1.27,1.14,2.63,2.44,4.01,3.79,4.41,4.25,9.04,8.99,13.8,14.13,7.83,8.31,20.88,23.16,35.42,43.35.35.48.7.96,1.05,1.45,1.6,2.23,3.18,4.5,4.81,6.86,12.98,18.8,25.41,39.67,35.86,61.89.71,1.51,1.6,3.41,2.59,5.56.6,1.29,1.15,2.52,1.72,3.78.8,1.78,1.65,3.7,2.55,5.77,1.95,4.47,3.73,8.73,5.33,12.75.14.36.28.68.42,1.04,1.18,2.99,2.23,5.77,3.23,8.48.29.77.56,1.49.85,2.27,1.08,2.98,2.03,5.72,2.89,8.28,1.9,5.59,3.74,11.46,5.48,17.57,1.23,4.16,2.42,8.42,3.25,12.06.11.47.22,1.03.33,1.51,3.39,13.97,5.78,26.37,7.34,38.52.26,1.91.5,3.89.71,5.95.12,1.09.22,2.19.32,3.28.16,1.76.31,3.47.44,5.14.08,1,.16,2,.23,3.01.02.32.05.68.07.99.13,1.77.21,3.75.29,5.78.14,3.23.24,6.51.3,9.87,0,.04.02.08.02.12,0-.03.01-.06.01-.08v1.44s0,.04,0,.05v.05c0,.12,0,.24,0,.37,0,.02,0,.04,0,.06l.6,101.7c.02,7.85-5.15,15.72-15.52,21.7-20.53,11.85-53.86,11.85-74.26,0-10.17-5.91-15.25-13.65-15.27-21.4l-.6-101c0-.13,0-.25,0-.37,0-.07-.03-.13-.03-.2-.18-4.93-.53-11.05-.98-16.62-.51-5.31-1.18-10.67-2.12-16.11-.17-.96-.33-1.88-.49-2.78-.6-3.28-1.27-6.58-2.02-9.9-.1-.42-.19-.83-.3-1.28-.74-3.19-1.58-6.4-2.46-9.62-.27-1-.56-2.02-.86-3.07-.73-2.56-1.53-5.13-2.35-7.71-.96-2.99-1.95-5.91-2.97-8.79-.3-.84-.59-1.69-.9-2.53-1.12-3.09-2.28-6.1-3.45-9.03-.27-.68-.55-1.37-.83-2.06-8.11-19.97-16.87-36.07-22.52-45.65-1.85-3.06-4.42-7.18-8.65-13.96-3.8-5.84-7.63-11.26-11.47-16.48-4.62-6.07-10.09-13.03-14.97-18.96-14.1-16.56-27.63-29.18-39.02-38.39-.6-.48-1.16-.93-1.82-1.45-.13-.11-.26-.2-.39-.31-5.21-4.09-12.05-9.18-19.73-14-.58-.36-1.1-.67-1.64-1-.81-.5-1.64-.98-2.47-1.47-.64-.37-1.32-.77-1.86-1.07-2.71-1.51-5.57-3.05-8.57-4.56-.24-.12-.47-.22-.71-.34-2.41-1.2-4.95-2.35-7.55-3.46-.72-.31-1.48-.66-2.18-.94-6.37-2.59-13.29-4.77-20.78-6.14-1.72-.29-3.4-.55-5.04-.76-2.09-.27-7.35-.42-10.86-.09-.68.07-1.37.15-2.06.25-.82.14-1.53.28-2.22.43-.55.12-1.1.23-1.65.37-.37.09-.71.19-1.05.29-1,.3-1.99.64-2.97,1.04-.13.06-.27.1-.4.16-1.14.61-2.37,1.07-3.48,1.75-4.72,3.04-8.63,7.57-11.74,13.37-.33.61-.65,1.23-.97,1.9-.78,1.61-1.5,3.3-2.16,5.09-.12.32-.25.59-.37.92-.23.67-.38,1.22-.59,1.85-.44,1.34-.88,2.67-1.24,4-.07.26-.12.5-.19.76-.39,1.48-.73,2.94-1.03,4.4-.52,2.56-.93,5.16-1.36,8.09-.12.91-.24,1.83-.34,2.71-.04.34-.08.69-.11,1.04-.1,1.03-.17,1.99-.25,2.96-.26,4.06-.34,8.38-.42,11.92,0,1.07-.31,2.12-.49,3.18-.14.85-.13,1.7-.39,2.54-.04.14-.1.28-.15.42l.58,264.87c.02,7.84-5.14,15.69-15.46,21.65-20.58,11.88-53.92,11.88-74.36,0-10.12-5.88-15.19-13.6-15.22-21.34l-.61-276.21c0,1.07.34,2.14.53,3.2-.59-3.19-.48-6.42.66-9.57Zm-.14,12.33s-.01-.04-.01-.06c-.02-.06-.07-.12-.09-.18.03.08.08.16.1.25Z"/></g></g></svg>