<?xml version="1.0" encoding="UTF-8"?><svg id="ARTWORK" xmlns="http://www.w3.org/2000/svg" xmlns:xlink="http://www.w3.org/1999/xlink" viewBox="0 0 2500 2500"><defs><style>.cls-1{fill:rgba(144,229,255,.29);}.cls-1,.cls-2,.cls-3,.cls-4,.cls-5,.cls-6,.cls-7,.cls-8,.cls-9,.cls-10,.cls-11,.cls-12,.cls-13,.cls-14,.cls-15,.cls-16,.cls-17,.cls-18,.cls-19,.cls-20,.cls-21,.cls-22,.cls-23,.cls-24,.cls-25,.cls-26,.cls-27,.cls-28,.cls-29,.cls-30,.cls-31,.cls-32,.cls-33,.cls-34,.cls-35,.cls-36,.cls-37,.cls-38,.cls-39,.cls-40,.cls-41,.cls-42,.cls-43,.cls-44,.cls-45{stroke-width:0px;}.cls-2{fill:url(#Degradado_sin_nombre_12);}.cls-3{fill:url(#linear-gradient-12);}.cls-4{fill:url(#Degradado_sin_nombre_14);}.cls-5{fill:url(#linear-gradient-17);}.cls-6{fill:#003452;}.cls-7{fill:#90e5ff;}.cls-8{fill:url(#linear-gradient);}.cls-9{fill:url(#Degradado_sin_nombre_8);}.cls-10{fill:url(#linear-gradient-6);}.cls-11{fill:url(#Degradado_sin_nombre_3);}.cls-46{opacity:.52;}.cls-12{fill:rgba(144,229,255,.78);}.cls-13{fill:url(#linear-gradient-15);}.cls-14{fill:url(#linear-gradient-11);}.cls-15{fill:url(#linear-gradient-5);}.cls-16,.cls-47{fill:none;}.cls-17{fill:url(#linear-gradient-13);}.cls-18{fill:#0071b0;}.cls-19{fill:url(#linear-gradient-16);}.cls-20{fill:#004870;}.cls-21{fill:url(#Degradado_sin_nombre_16);}.cls-22{fill:rgba(0,39,61,.1);}.cls-23{fill:#f1f3f6;}.cls-24{fill:url(#Degradado_sin_nombre_7);}.cls-25{fill:url(#linear-gradient-14);}.cls-26{fill:url(#linear-gradient-2);}.cls-27{fill:#1da1dc;}.cls-28{fill:url(#Degradado_sin_nombre_9);}.cls-29{fill:rgba(144,229,255,.38);}.cls-30{fill:url(#Degradado_sin_nombre_11);}.cls-31{fill:#86d7ea;}.cls-32{fill:url(#linear-gradient-7);}.cls-33{fill:url(#linear-gradient-3);}.cls-34{fill:#efc7b0;}.cls-35{fill:url(#linear-gradient-9);}.cls-36{fill:#005584;}.cls-37{fill:url(#linear-gradient-8);}.cls-38{fill:url(#linear-gradient-18);}.cls-39{fill:rgba(0,85,132,.25);}.cls-47{stroke:rgba(29,161,220,.48);stroke-linecap:round;stroke-linejoin:round;stroke-width:2px;}.cls-40{fill:url(#Degradado_sin_nombre_10);}.cls-41{fill:url(#linear-gradient-10);}.cls-42{fill:#d4ecf6;}.cls-43{fill:url(#linear-gradient-4);}.cls-48{opacity:.59;}.cls-44{fill:url(#Degradado_sin_nombre_182);}.cls-45{fill:url(#Degradado_sin_nombre_6);}</style><linearGradient id="linear-gradient" x1="26" y1="1037.48" x2="457.76" y2="1037.48" gradientTransform="translate(2428.75 237.18) rotate(-164.36) scale(1 -1)" gradientUnits="userSpaceOnUse"><stop offset="0" stop-color="#0071b0" stop-opacity=".1"/><stop offset=".01" stop-color="#006ca8" stop-opacity=".1"/><stop offset=".15" stop-color="#005584" stop-opacity=".1"/><stop offset=".87" stop-color="#0071b0" stop-opacity=".3"/></linearGradient><linearGradient id="linear-gradient-2" x1="72.03" y1="729.27" x2="390.78" y2="729.27" xlink:href="#linear-gradient"/><linearGradient id="linear-gradient-3" x1="147.47" y1="848.33" x2="382.29" y2="848.33" xlink:href="#linear-gradient"/><linearGradient id="linear-gradient-4" x1="484.32" y1="722.72" x2="578.19" y2="722.72" xlink:href="#linear-gradient"/><linearGradient id="linear-gradient-5" x1="404.68" y1="686.07" x2="477.95" y2="686.07" xlink:href="#linear-gradient"/><linearGradient id="Degradado_sin_nombre_8" x1="318.13" y1="902.6" x2="585.81" y2="1056.32" gradientTransform="translate(2193.43) rotate(-180) scale(1 -1)" gradientUnits="userSpaceOnUse"><stop offset="0" stop-color="#0071b0" stop-opacity=".1"/><stop offset=".01" stop-color="#006ca8" stop-opacity=".1"/><stop offset=".15" stop-color="#005584" stop-opacity=".1"/><stop offset=".86" stop-color="#00273d" stop-opacity=".6"/></linearGradient><linearGradient id="Degradado_sin_nombre_7" x1="453.82" y1="1138.32" x2="934.41" y2="1265.53" gradientTransform="translate(2193.43) rotate(-180) scale(1 -1)" gradientUnits="userSpaceOnUse"><stop offset=".34" stop-color="#00273d" stop-opacity="0"/><stop offset="1" stop-color="#00273d"/></linearGradient><linearGradient id="linear-gradient-6" x1="936.85" y1="506.49" x2="832.53" y2="953.21" gradientTransform="translate(2193.43) rotate(-180) scale(1 -1)" gradientUnits="userSpaceOnUse"><stop offset=".03" stop-color="#90e5ff"/><stop offset="1" stop-color="#90e5ff"/></linearGradient><linearGradient id="Degradado_sin_nombre_3" x1="941.76" y1="819.88" x2="1273.55" y2="560.69" gradientTransform="translate(2193.43) rotate(-180) scale(1 -1)" gradientUnits="userSpaceOnUse"><stop offset=".32" stop-color="#005584" stop-opacity="0"/><stop offset=".49" stop-color="#005584" stop-opacity=".1"/><stop offset=".72" stop-color="#005584" stop-opacity=".3"/></linearGradient><linearGradient id="linear-gradient-7" x1="1124.22" y1="443.31" x2="1190.48" y2="529.45" gradientUnits="userSpaceOnUse"><stop offset=".03" stop-color="#d3f5ff"/><stop offset="1" stop-color="#90e5ff"/></linearGradient><linearGradient id="Degradado_sin_nombre_182" x1="669.25" y1="1010.13" x2="1040.76" y2="1010.13" gradientTransform="translate(2193.43) rotate(-180) scale(1 -1)" gradientUnits="userSpaceOnUse"><stop offset="0" stop-color="#89d6ef" stop-opacity=".9"/><stop offset=".39" stop-color="#89d6ef" stop-opacity=".84"/><stop offset="1" stop-color="#89d6ef" stop-opacity=".7"/></linearGradient><linearGradient id="linear-gradient-8" x1="1399.55" y1="604.96" x2="1508.21" y2="810.36" gradientUnits="userSpaceOnUse"><stop offset=".65" stop-color="#39c2ec"/><stop offset=".78" stop-color="#39c2ec"/><stop offset="1" stop-color="#1da1dc"/></linearGradient><linearGradient id="Degradado_sin_nombre_6" x1="711.68" y1="1775.74" x2="424.68" y2="1543.41" gradientTransform="translate(2193.43) rotate(-180) scale(1 -1)" gradientUnits="userSpaceOnUse"><stop offset="0" stop-color="#00273d" stop-opacity=".5"/><stop offset=".8" stop-color="#00273d" stop-opacity="0"/></linearGradient><linearGradient id="linear-gradient-9" x1="1416.09" y1="994.63" x2="1116.7" y2="1527.37" gradientUnits="userSpaceOnUse"><stop offset="0" stop-color="#39c2ec"/><stop offset=".36" stop-color="#39c2ec"/><stop offset=".74" stop-color="#1da1dc"/><stop offset=".82" stop-color="#1898d4"/><stop offset=".93" stop-color="#0a83c0"/><stop offset="1" stop-color="#0071b0"/></linearGradient><linearGradient id="linear-gradient-10" x1="960.98" y1="1219.66" x2="1575.21" y2="1219.66" gradientUnits="userSpaceOnUse"><stop offset="0" stop-color="#a9a7b7"/><stop offset=".59" stop-color="#8c8a9f"/><stop offset="1" stop-color="#7d7c93"/></linearGradient><linearGradient id="linear-gradient-11" x1="1166.72" y1="596.91" x2="1797.5" y2="1654.38" gradientUnits="userSpaceOnUse"><stop offset=".2" stop-color="#1da1dc"/><stop offset=".22" stop-color="#1a9cd7"/><stop offset=".23" stop-color="#128fcc"/><stop offset=".25" stop-color="#057ab8"/><stop offset=".25" stop-color="#0071b0"/><stop offset=".3" stop-color="#0173b2"/><stop offset=".33" stop-color="#077dbb"/><stop offset=".36" stop-color="#108dc9"/><stop offset=".38" stop-color="#1da1dc"/><stop offset=".54" stop-color="#1da1dc"/><stop offset=".6" stop-color="#0071b0"/></linearGradient><linearGradient id="linear-gradient-12" y1="721.04" x2="963.28" y2="721.04" xlink:href="#linear-gradient-10"/><linearGradient id="linear-gradient-13" x1="1649.39" y1="990.13" x2="1682.96" y2="1022.53" gradientUnits="userSpaceOnUse"><stop offset="0" stop-color="#005584"/><stop offset=".16" stop-color="#005584" stop-opacity=".97"/><stop offset=".34" stop-color="#005584" stop-opacity=".87"/><stop offset=".52" stop-color="#005584" stop-opacity=".7"/><stop offset=".71" stop-color="#005584" stop-opacity=".48"/><stop offset=".9" stop-color="#005584" stop-opacity=".18"/><stop offset="1" stop-color="#005584" stop-opacity="0"/></linearGradient><radialGradient id="Degradado_sin_nombre_16" cx="1412.66" cy="2517.44" fx="1412.66" fy="2517.44" r="110.7" gradientTransform="translate(2438.88 2573.83) rotate(119.64) scale(.82 .7) skewX(-26.4)" gradientUnits="userSpaceOnUse"><stop offset="0" stop-color="#005584" stop-opacity=".3"/><stop offset="1" stop-color="#005584" stop-opacity="0"/></radialGradient><linearGradient id="Degradado_sin_nombre_9" x1="772.54" y1="1804.64" x2="1156.47" y2="1804.64" gradientTransform="translate(9.62 -6.02) rotate(.36)" gradientUnits="userSpaceOnUse"><stop offset="0" stop-color="#00273d" stop-opacity=".5"/><stop offset=".48" stop-color="#00273d" stop-opacity=".1"/><stop offset="1" stop-color="#00273d" stop-opacity="0"/></linearGradient><radialGradient id="Degradado_sin_nombre_14" cx="1374.47" cy="2546.16" fx="1374.47" fy="2546.16" r="37.66" gradientTransform="translate(2387.86 2616.96) rotate(119.64) scale(.82 .7) skewX(-26.4)" gradientUnits="userSpaceOnUse"><stop offset="0" stop-color="#00273d" stop-opacity=".3"/><stop offset="1" stop-color="#00273d" stop-opacity="0"/></radialGradient><linearGradient id="Degradado_sin_nombre_11" x1="764.29" y1="1806.29" x2="895.02" y2="1806.29" gradientTransform="translate(9.62 -6.02) rotate(.36)" gradientUnits="userSpaceOnUse"><stop offset="0" stop-color="#00273d" stop-opacity=".5"/><stop offset=".48" stop-color="#00273d" stop-opacity=".1"/><stop offset="1" stop-color="#00273d" stop-opacity="0"/></linearGradient><linearGradient id="linear-gradient-14" x1="1402.85" y1="1623.94" x2="1226.61" y2="1445.04" gradientTransform="translate(2203.01 7.78) rotate(-179.64) scale(1 -1)" gradientUnits="userSpaceOnUse"><stop offset="0" stop-color="#00273d" stop-opacity="0"/><stop offset="1" stop-color="#00273d"/></linearGradient><linearGradient id="Degradado_sin_nombre_12" x1="1381.69" y1="1762.06" x2="1409.52" y2="1732.91" gradientTransform="translate(2203.01 7.78) rotate(-179.64) scale(1 -1)" gradientUnits="userSpaceOnUse"><stop offset="0" stop-color="#efc7b0" stop-opacity=".1"/><stop offset=".99" stop-color="#efc7b0" stop-opacity=".5"/></linearGradient><linearGradient id="linear-gradient-15" x1="1252.89" y1="1761.79" x2="1311.2" y2="1284.73" gradientTransform="translate(2203.01 7.78) rotate(-179.64) scale(1 -1)" gradientUnits="userSpaceOnUse"><stop offset=".38" stop-color="#00273d" stop-opacity="0"/><stop offset=".47" stop-color="#00273d" stop-opacity=".1"/><stop offset=".6" stop-color="#00273d" stop-opacity=".4"/><stop offset=".75" stop-color="#00273d" stop-opacity=".88"/><stop offset=".79" stop-color="#00273d"/></linearGradient><linearGradient id="Degradado_sin_nombre_10" x1="1254.06" y1="1789.4" x2="1287.19" y2="1785.42" gradientTransform="translate(2203.01 7.78) rotate(-179.64) scale(1 -1)" gradientUnits="userSpaceOnUse"><stop offset="0" stop-color="#efc7b0" stop-opacity=".1"/><stop offset=".99" stop-color="#efc7b0" stop-opacity=".5"/></linearGradient><linearGradient id="linear-gradient-16" x1="1274.58" y1="1346.81" x2="1266.93" y2="1268.95" gradientTransform="translate(2203.01 7.78) rotate(-179.64) scale(1 -1)" gradientUnits="userSpaceOnUse"><stop offset="0" stop-color="#00273d" stop-opacity="0"/><stop offset="1" stop-color="#00273d"/></linearGradient><linearGradient id="linear-gradient-17" x1="1020.04" y1="1236.44" x2="1014.45" y2="1234.38" gradientTransform="translate(2203.01 7.78) rotate(-179.64) scale(1 -1)" gradientUnits="userSpaceOnUse"><stop offset="0" stop-color="#f5e0cd" stop-opacity="0"/><stop offset="1" stop-color="#f5e0cd"/></linearGradient><linearGradient id="linear-gradient-18" x1="1325.57" y1="1120.8" x2="1370.62" y2="1295.72" gradientTransform="translate(2203.01 7.78) rotate(-179.64) scale(1 -1)" gradientUnits="userSpaceOnUse"><stop offset="0" stop-color="#1da1dc"/><stop offset="1" stop-color="#003452"/></linearGradient></defs><g id="Plant"><g id="PLANT1_0_Layer0_0_FILL"><path class="cls-18" d="m1348.92,1509.92l34.35,37.88c27.78-86.73,59.95-165.04,96.5-234.94,22.43-29.73,48.88-56.03,79.37-78.88,37.6-28.16,78.44-48.92,122.51-62.25,4.77-1.42,8.46-2.57,11.08-3.45.87-.29,1.62-.55,2.25-.79,4.84-1.93,8.84-4.23,11.98-6.89-3.09-.4-6.42-.56-9.96-.48,0,0-.02,0-.02,0-2.97.08-6.1.32-9.38.75-6.65.85-13.94,2.41-21.86,4.69-33.54,9.58-65.7,24.61-96.46,45.08-21.2,14.08-41.11,30.32-59.73,48.71,86.2-145.24,193.96-249.09,323.28-311.54.59-.29,1.18-.57,1.78-.85,1.13-.55,2.26-1.09,3.4-1.62,1.46-.7,2.92-1.37,4.38-2.05l-12.59-.24c-.43.18-.87.36-1.3.53-.29.13-.58.25-.87.37-.15.05-.3.11-.46.19-32.07,13.27-63.19,29.75-93.37,49.45,4.48-4.71,11.51-12.67,21.1-23.88,13.57-15.93,23.58-27.98,30.04-36.17.68-.86,1.35-1.72,2.02-2.57h0c8.03-10.29,15.09-20.01,21.2-29.16,0,0,.01-.01.01-.01,1.41-2.14,2.79-4.24,4.11-6.31,6.46-9.95,16.15-27.22,29.11-51.79l3.43-6.82c-16.72,25.78-34.32,50.82-52.81,75.11,0,0-.01.02-.02.03-26.71,35.1-55.29,68.63-85.71,100.61-2.27,1.67-4.5,3.32-6.7,4.96,14.9-22.32,27.16-44.68,36.8-67.08,3.37-7.91,6.36-15.71,8.99-23.42h0c.14-.43.29-.85.44-1.28v-.02c4.66-13.84,8.11-27.34,10.35-40.5-4.02,7.6-8.47,17.35-13.31,29.28-.05.13-.1.26-.16.4-2.64,6.72-6.57,16.53-11.8,29.45-13.08,31.29-29.19,60.16-48.34,86.63-15.49,12.41-30.66,25.73-45.52,39.98,12.73-22.63,23.87-46.13,33.39-70.5,2.84-7.43,4.57-13.14,5.18-17.14.07-.49.1-.93.09-1.32-.04-1.14-.45-1.82-1.24-2.04-.9-.38-1.91.03-3,1.25-.79.91-1.7,2.19-2.72,3.85l-.02.06c-.71,1.14-1.45,2.4-2.26,3.9-.8,1.46-1.65,3.08-2.54,4.87-20.26,43.01-39.04,77.78-56.32,104.3-2.07,3.1-4.08,6.02-6.05,8.74-16.72,18.19-33.07,37.51-49.04,57.97-101.2,129.87-169.06,244.86-203.56,344.97Z"/></g><g id="PLANT1_0_Layer0_1_FILL"><path class="cls-27" d="m1696.98,1160.12s.01,0,.02,0c3.54-.08,6.87.07,9.96.48-3.15,2.66-7.14,4.96-11.98,6.89-.63.23-1.38.49-2.25.79-1.91-2.04-3.81-4.12-5.71-6.24,3.33-.64,6.65-1.28,9.96-1.92Zm-9.38.75c3.28-.43,6.4-.67,9.38-.75-3.31.63-6.63,1.27-9.96,1.92.19-.39.38-.77.58-1.16Z"/><path class="cls-27" d="m1692.73,1168.27c123.25,132.11,276.24,119.51,458.94-37.77-96.52-19.56-248.07-9.69-454.67,29.62,3.54-.08,6.87.07,9.96.48-3.15,2.66-7.14,4.96-11.98,6.89-.63.23-1.38.49-2.25.79Z"/><path class="cls-27" d="m1687.6,1160.87c3.28-.43,6.4-.67,9.38-.75,0,0,.01,0,.02,0,206.6-39.31,358.15-49.17,454.67-29.62-136.45-110.01-267.42-126.64-392.92-49.87-33.89,26.36-57.6,53.11-71.15,80.24Z"/></g><path class="cls-16" d="m1687.02,1162.04c3.33-.64,6.65-1.28,9.96-1.92"/><g id="PLANT1_0_Layer0_2_FILL"><path class="cls-27" d="m1829.8,943.06l12.59.24c-1.46.68-2.92,1.36-4.38,2.05-3.16-.56-6.32-1.14-9.51-1.76-1.04-.2-2.09-.41-3.13-.61l4.43.08Z"/><path class="cls-27" d="m1825.36,942.98c98.49-65.85,221.12-109.79,367.91-131.83-88.04-38.42-175.33-41.68-261.88-9.77-13.48,9.29-25.67,18.42-36.58,27.39-28.62,23.5-48.45,45.92-59.49,67.24-8.46,16.29-11.77,31.96-9.96,46.97Z"/></g><path class="cls-27" d="m1829.8,943.06l12.59.24c-1.46.68-2.92,1.36-4.38,2.05,47.9,8.4,92.57,9.57,134,3.51,88.5-12.93,162.26-58.83,221.27-137.71-146.79,22.04-269.42,65.98-367.91,131.83l4.43.08Z"/><g id="PLANT1_0_Layer0_3_FILL"><path class="cls-27" d="m1829.8,943.06l12.59.24c-1.46.68-2.92,1.36-4.38,2.05-1.13.53-2.27,1.07-3.4,1.62-.57-.24-1.12-.47-1.69-.72-1.26-.54-2.51-1.08-3.77-1.62-.51-.22-1.02-.44-1.53-.66-.75-.33-1.5-.65-2.26-.98l4.43.08Zm-2.17.9c.51.22,1.02.44,1.53.66,1.26.55,2.51,1.09,3.77,1.62.56.25,1.12.48,1.69.72-.6.28-1.19.56-1.78.85-1.88-1.21-3.77-2.42-5.66-3.66-.59-.39-1.2-.78-1.8-1.18.76.33,1.51.66,2.26.98Z"/><path class="cls-27" d="m1832.82,947.82c105.2,67.49,182.11,83.11,230.72,46.86-34.58,7.53-80.19,2.91-136.79-13.87-.8-.24-1.6-.47-2.4-.72-1.23-.37-2.46-.74-3.69-1.12-.88-.27-1.75-.54-2.63-.82-1.65-.51-3.31-1.04-4.98-1.57-.8-.26-1.6-.51-2.41-.78-7.8-2.53-15.79-5.28-23.98-8.24-2.21-.79-4.44-1.61-6.68-2.45-1.22-.45-2.44-.91-3.66-1.37-1.16-.44-2.32-.87-3.49-1.32-.91-.34-1.82-.69-2.74-1.05-1.44-.55-2.87-1.11-4.32-1.67-1.18-.46-2.37-.92-3.56-1.4-1.2-.47-2.39-.94-3.59-1.42-1.2-.48-2.4-.96-3.61-1.45-3.35-1.35-6.73-2.73-10.14-4.15-1.13-.47-2.26-.94-3.41-1.42-2.28-.96-4.57-1.92-6.87-2.91-.6.28-1.19.56-1.78.85Z"/><path class="cls-27" d="m1834.61,946.96c2.3.98,4.6,1.95,6.87,2.91,1.15.48,2.28.95,3.41,1.42,3.41,1.42,6.79,2.8,10.14,4.15,1.21.49,2.41.97,3.61,1.45,1.19.48,2.39.95,3.59,1.42,1.19.47,2.38.94,3.56,1.4,1.44.56,2.88,1.13,4.32,1.67.92.35,1.83.7,2.74,1.05,1.17.45,2.34.89,3.49,1.32,1.22.46,2.45.92,3.66,1.37,2.24.83,4.47,1.65,6.68,2.45,8.18,2.96,16.17,5.71,23.98,8.24.81.27,1.61.52,2.41.78,1.67.53,3.33,1.06,4.98,1.57.87.28,1.75.55,2.63.82,1.24.39,2.47.75,3.69,1.12.8.25,1.6.48,2.4.72,56.61,16.77,102.21,21.4,136.79,13.87-30.8-23.25-61.31-38.52-91.54-45.82-41.43,6.06-86.11,4.89-134-3.51-1.13.53-2.27,1.07-3.4,1.62Z"/></g><path class="cls-16" d="m1834.61,946.96c-.57-.24-1.12-.47-1.69-.72-1.26-.54-2.51-1.08-3.77-1.62-.51-.22-1.02-.44-1.53-.66-.75-.33-1.5-.65-2.26-.98"/><g id="PLANT1_0_Layer0_4_FILL"><path class="cls-36" d="m1671.43,981.26c1.1-1.21,2.1-1.63,3-1.25.79.22,1.2.9,1.24,2.04-2.7,2.72-5.46,5.43-8.26,8.13.43-1.67.86-3.34,1.28-5.02l.02-.06c1.02-1.67,1.93-2.95,2.72-3.85Zm-2.74,3.91c-.43,1.67-.86,3.34-1.28,5.02-.33-.37-.66-.74-.98-1.11.81-1.5,1.55-2.77,2.26-3.9Z"/><path class="cls-27" d="m1731.7,582.34c-.16,3.08-.32,6.17-.5,9.27-.16,2.98-.33,5.96-.52,8.95-.01.21-.02.43-.04.65-.18,2.99-.37,5.98-.58,8.98-.41,6.2-.85,12.42-1.33,18.64-.23,3.04-.47,6.08-.72,9.13,0,.07-.02.15-.02.22-.25,3.06-.5,6.11-.77,9.18-.01.16-.03.32-.05.48-.22,2.63-.46,5.25-.7,7.87-.75,8.21-1.56,16.44-2.42,24.69-.14,1.32-.28,2.64-.42,3.96-1.01,9.52-2.1,19.07-3.26,28.63-.26,2.1-.51,4.2-.78,6.3-1.84,14.7-3.85,29.46-6.05,44.28-.34,2.34-.69,4.67-1.05,7.01-.5,3.34-1.01,6.68-1.54,10.02-.24,1.59-.5,3.17-.75,4.77-.04.25-.08.48-.12.73-.83,5.23-1.69,10.47-2.57,15.71-.16.97-.33,1.95-.49,2.92-.37,2.22-.76,4.45-1.14,6.69-.3,1.79-.62,3.58-.94,5.37-.24,1.41-.49,2.82-.74,4.24-.51,2.9-1.03,5.81-1.56,8.71-.43,2.41-.87,4.81-1.32,7.22-.03.16-.06.31-.09.47-.43,2.38-.88,4.76-1.33,7.14-.94,5.02-1.91,10.04-2.89,15.08-.62,3.17-1.25,6.35-1.89,9.53-.66,3.29-1.32,6.58-2,9.88-2.66,12.96-5.45,25.95-8.37,39-.48,2.18-.98,4.35-1.47,6.52-.99,4.35-1.98,8.71-3,13.07-1.01,4.36-2.04,8.73-3.09,13.1-.52,2.18-1.05,4.37-1.58,6.56-.52,2.19-1.06,4.38-1.6,6.57-.27,1.09-.53,2.19-.81,3.29-.04.18-.08.36-.13.54-.36,1.48-.72,2.94-1.09,4.41-.54,2.17-1.08,4.34-1.63,6.5-.54,2.17-1.1,4.34-1.65,6.51,1.02-1.67,1.93-2.95,2.72-3.85,1.1-1.21,2.1-1.63,3-1.25.79.22,1.2.9,1.24,2.04,27.12-27.31,48.9-55.55,65.33-84.74-5.86-69.43-.97-120.71,14.64-153.87,6.24-13.25,12.67-25.38,19.28-36.37-6.49-40.19-20.9-81.77-43.22-124.74Z"/><path class="cls-27" d="m1605.16,824.99c1.48,64.57,21.91,119.27,61.27,164.08.81-1.5,1.55-2.77,2.26-3.9l.02-.06c.55-2.17,1.1-4.35,1.65-6.51.55-2.17,1.09-4.33,1.63-6.5.37-1.47.73-2.94,1.09-4.41.05-.18.09-.36.13-.54.28-1.1.54-2.2.81-3.29.54-2.19,1.07-4.38,1.6-6.57.53-2.19,1.06-4.38,1.58-6.56,1.05-4.37,2.08-8.74,3.09-13.1,1.02-4.36,2.02-8.71,3-13.07.5-2.18.99-4.35,1.47-6.52,2.92-13.05,5.71-26.04,8.37-39,.68-3.3,1.34-6.59,2-9.88.64-3.18,1.27-6.36,1.89-9.53.99-5.04,1.95-10.06,2.89-15.08.45-2.38.9-4.76,1.33-7.14.04-.16.06-.31.09-.47.44-2.41.88-4.82,1.32-7.22.53-2.91,1.05-5.81,1.56-8.71.25-1.42.5-2.83.74-4.24.32-1.79.63-3.58.94-5.37.39-2.24.77-4.46,1.14-6.69.16-.97.33-1.95.49-2.92.88-5.24,1.73-10.48,2.57-15.71.04-.25.08-.48.12-.73.25-1.59.51-3.18.75-4.77.53-3.34,1.04-6.68,1.54-10.02.36-2.34.71-4.67,1.05-7.01,2.2-14.82,4.21-29.58,6.05-44.28.27-2.1.52-4.21.78-6.3,1.17-9.57,2.26-19.12,3.26-28.63.15-1.32.28-2.64.42-3.96.86-8.25,1.67-16.48,2.42-24.69.24-2.63.48-5.25.7-7.87.01-.16.04-.33.05-.48.27-3.06.52-6.12.77-9.18,0-.07.02-.15.02-.22.24-3.04.49-6.09.72-9.13.48-6.22.92-12.44,1.33-18.64.21-3,.4-5.99.58-8.98.01-.22.03-.43.04-.65.19-2.99.36-5.97.52-8.95.18-3.09.34-6.18.5-9.27-85.89,96.78-128.08,177.67-126.54,242.65Z"/></g><path class="cls-16" d="m1668.69,985.17c-.43,1.67-.86,3.34-1.28,5.02"/><g id="PLANT1_0_Layer0_5_FILL"><path class="cls-27" d="m1742.84,914.56c4.85-11.92,9.29-21.67,13.31-29.28-2.24,13.15-5.7,26.66-10.35,40.5v.02c-.53.93-1.06,1.86-1.59,2.8-.55-4.62-1.06-9.17-1.54-13.65.05-.14.11-.27.16-.4Zm1.38,14.05c.53-.94,1.06-1.87,1.58-2.8v-.02c66.32-117.57,112.9-217.18,139.77-298.85,3.91,70.23-23.47,144.56-82.16,223.02l-58.05,77.13h0s-1.15,1.53-1.15,1.53Z"/><path class="cls-27" d="m1741,897.31c.49,5.75,1.04,11.63,1.68,17.64.05-.14.11-.27.16-.4,4.85-11.92,9.29-21.67,13.31-29.28-2.24,13.15-5.7,26.66-10.35,40.5,66.32-117.57,112.9-217.18,139.77-298.85-41.28-.63-78.17,26.09-110.66,80.15-6.6,10.99-13.03,23.12-19.28,36.37-15.61,33.16-20.5,84.44-14.64,153.87Z"/></g><path class="cls-16" d="m1745.81,925.78v.02c-.53.93-1.06,1.86-1.59,2.8"/><g id="PLANT1_0_Layer0_6_FILL"><path class="cls-36" d="m1792.14,911.43l-.17.59c-1.72,6.14-3.39,12.46-5.02,18.95h0s-.25.99-.25.99c18.18-12.04,34.39-24.03,48.61-35.97,11.04-21.32,30.87-43.73,59.49-67.24,14.79-25.81,20.01-51.37,15.67-76.69-43.62,6.06-78.77,45.72-105.44,118.99-.02.05-.04.1-.06.15-4.53,12.43-8.81,25.84-12.84,40.21Z"/></g><g id="PLANT1_0_Layer0_7_FILL"><path class="cls-36" d="m1861.61,811.75c5.69,33.15-17.63,67.05-69.97,101.7,15.85-63.52,39.17-97.42,69.97-101.7Z"/></g><path class="cls-8" d="m1692.73,1168.27c123.25,132.11,276.24,119.51,458.94-37.77-96.52-19.56-248.07-9.69-454.67,29.62,3.54-.08,6.87.07,9.96.48-3.15,2.66-7.14,4.96-11.98,6.89-.63.23-1.38.49-2.25.79Z"/><path class="cls-26" d="m1829.8,943.06l12.59.24c-1.46.68-2.92,1.36-4.38,2.05,47.9,8.4,92.57,9.57,134,3.51,88.5-12.93,162.26-58.83,221.27-137.71-146.79,22.04-269.42,65.98-367.91,131.83l4.43.08Z"/><path class="cls-33" d="m1832.82,947.82c105.2,67.49,182.11,83.11,230.72,46.86-34.58,7.53-80.19,2.91-136.79-13.87-.8-.24-1.6-.47-2.4-.72-1.23-.37-2.46-.74-3.69-1.12-.88-.27-1.75-.54-2.63-.82-1.65-.51-3.31-1.04-4.98-1.57-.8-.26-1.6-.51-2.41-.78-7.8-2.53-15.79-5.28-23.98-8.24-2.21-.79-4.44-1.61-6.68-2.45-1.22-.45-2.44-.91-3.66-1.37-1.16-.44-2.32-.87-3.49-1.32-.91-.34-1.82-.69-2.74-1.05-1.44-.55-2.87-1.11-4.32-1.67-1.18-.46-2.37-.92-3.56-1.4-1.2-.47-2.39-.94-3.59-1.42-1.2-.48-2.4-.96-3.61-1.45-3.35-1.35-6.73-2.73-10.14-4.15-1.13-.47-2.26-.94-3.41-1.42-2.28-.96-4.57-1.92-6.87-2.91-.6.28-1.19.56-1.78.85Z"/><path class="cls-43" d="m1731.7,582.34c-.16,3.08-.32,6.17-.5,9.27-.16,2.98-.33,5.96-.52,8.95-.01.21-.02.43-.04.65-.18,2.99-.37,5.98-.58,8.98-.41,6.2-.85,12.42-1.33,18.64-.23,3.04-.47,6.08-.72,9.13,0,.07-.02.15-.02.22-.25,3.06-.5,6.11-.77,9.18-.01.16-.03.32-.05.48-.22,2.63-.46,5.25-.7,7.87-.75,8.21-1.56,16.44-2.42,24.69-.14,1.32-.28,2.64-.42,3.96-1.01,9.52-2.1,19.07-3.26,28.63-.26,2.1-.51,4.2-.78,6.3-1.84,14.7-3.85,29.46-6.05,44.28-.34,2.34-.69,4.67-1.05,7.01-.5,3.34-1.01,6.68-1.54,10.02-.24,1.59-.5,3.17-.75,4.77-.04.25-.08.48-.12.73-.83,5.23-1.69,10.47-2.57,15.71-.16.97-.33,1.95-.49,2.92-.37,2.22-.76,4.45-1.14,6.69-.3,1.79-.62,3.58-.94,5.37-.24,1.41-.49,2.82-.74,4.24-.51,2.9-1.03,5.81-1.56,8.71-.43,2.41-.87,4.81-1.32,7.22-.03.16-.06.31-.09.47-.43,2.38-.88,4.76-1.33,7.14-.94,5.02-1.91,10.04-2.89,15.08-.62,3.17-1.25,6.35-1.89,9.53-.66,3.29-1.32,6.58-2,9.88-2.66,12.96-5.45,25.95-8.37,39-.48,2.18-.98,4.35-1.47,6.52-.99,4.35-1.98,8.71-3,13.07-1.01,4.36-2.04,8.73-3.09,13.1-.52,2.18-1.05,4.37-1.58,6.56-.52,2.19-1.06,4.38-1.6,6.57-.27,1.09-.53,2.19-.81,3.29-.04.18-.08.36-.13.54-.36,1.48-.72,2.94-1.09,4.41-.54,2.17-1.08,4.34-1.63,6.5-.54,2.17-1.1,4.34-1.65,6.51,1.02-1.67,1.93-2.95,2.72-3.85,1.1-1.21,2.1-1.63,3-1.25.79.22,1.2.9,1.24,2.04,27.12-27.31,48.9-55.55,65.33-84.74-5.86-69.43-.97-120.71,14.64-153.87,6.24-13.25,12.67-25.38,19.28-36.37-6.49-40.19-20.9-81.77-43.22-124.74Z"/><path class="cls-15" d="m1742.84,914.56c4.85-11.92,9.29-21.67,13.31-29.28-2.24,13.15-5.7,26.66-10.35,40.5v.02c-.53.93-1.06,1.86-1.59,2.8-.55-4.62-1.06-9.17-1.54-13.65.05-.14.11-.27.16-.4Zm1.38,14.05c.53-.94,1.06-1.87,1.58-2.8v-.02c66.32-117.57,112.9-217.18,139.77-298.85,3.91,70.23-23.47,144.56-82.16,223.02l-58.05,77.13h0s-1.15,1.53-1.15,1.53Z"/><g id="PLANT1_0_Layer0_6_FILL-2"><path class="cls-18" d="m1792.14,911.43l-.17.59c-1.72,6.14-3.39,12.46-5.02,18.95h0s-.25.99-.25.99c18.18-12.04,34.39-24.03,48.61-35.97,11.04-21.32,30.87-43.73,59.49-67.24,14.79-25.81,20.01-51.37,15.67-76.69-43.62,6.06-78.77,45.72-105.44,118.99-.02.05-.04.1-.06.15-4.53,12.43-8.81,25.84-12.84,40.21Z"/></g><g id="PLANT1_0_Layer0_7_FILL-2"><path class="cls-27" d="m1861.61,811.75c5.69,33.15-17.63,67.05-69.97,101.7,15.85-63.52,39.17-97.42,69.97-101.7Z"/></g><path class="cls-9" d="m1552.48,1164.96c15.97-20.46,32.32-39.78,49.04-57.97,1.97-2.72,3.99-5.64,6.05-8.74,17.29-26.52,36.06-61.29,56.32-104.3.89-1.79,1.74-3.42,2.54-4.87-39.37-44.82-59.79-99.51-61.27-164.08-1.54-64.98,40.64-145.87,126.54-242.65,22.32,42.97,36.73,84.55,43.22,124.74,32.49-54.05,69.37-80.78,110.66-80.15,3.91,70.23-23.47,144.56-82.16,223.02l-58.05,77.13h0c-2.63,7.71-5.62,15.51-8.99,23.42-9.64,22.4-21.91,44.76-36.8,67.08,2.2-1.64,4.43-3.29,6.7-4.96,30.42-31.98,59-65.51,85.71-100.61l.17-.59c.04-.12.07-.25.11-.37,3.83-14.99,8.08-28.3,12.76-39.91.01-.03.02-.05.03-.08,26.66-73.27,61.81-112.94,105.44-118.99,4.34,25.32-.88,50.87-15.67,76.69,10.91-8.98,23.11-18.1,36.58-27.39,86.55-31.9,173.84-28.65,261.88,9.77-59.01,78.88-132.77,124.78-221.27,137.71,30.23,7.3,60.74,22.56,91.54,45.82-48.62,36.25-125.53,20.63-230.72-46.86-129.32,62.44-237.08,166.29-323.28,311.54,18.62-18.4,38.53-34.64,59.73-48.71,30.77-20.47,62.92-35.5,96.46-45.08,7.92-2.28,15.21-3.84,21.86-4.69,13.55-27.13,37.26-53.88,71.15-80.24,125.5-76.77,256.47-60.14,392.92,49.87-182.7,157.28-335.69,169.88-458.94,37.77-2.61.88-6.3,2.03-11.08,3.45-44.07,13.33-84.91,34.09-122.51,62.25-30.49,22.86-56.95,49.15-79.37,78.88-36.55,69.9-68.72,148.21-96.5,234.94l-34.35-37.88c34.5-100.11,102.35-215.09,203.56-344.97Zm274.69-220.81c-.59-.39-1.2-.78-1.8-1.18-1.81-15.02,1.5-30.68,9.96-46.97-14.23,11.93-30.43,23.92-48.61,35.97l.25-.99c-.67.85-1.34,1.7-2.02,2.57-6.46,8.18-16.47,20.24-30.04,36.17-9.59,11.21-16.62,19.17-21.1,23.88,30.18-19.7,61.3-36.18,93.37-49.45Zm-144.63,86.88c19.15-26.47,35.26-55.33,48.34-86.63,5.23-12.92,9.16-22.73,11.8-29.45-.64-6.01-1.19-11.89-1.68-17.64-16.44,29.19-38.21,57.44-65.33,84.74.01.39-.02.83-.09,1.32-.61,4-2.34,9.71-5.18,17.14-9.53,24.37-20.66,47.87-33.39,70.5,14.86-14.25,30.04-27.58,45.52-39.98Z"/></g><g id="Folder"><g id="inside_folder"><g id="Layer2_0_FILL"><path class="cls-20" d="m1092.76,701.65c4.4-1.55,9.32-1.37,14.75.55,2.27,1.03,4.53,2.04,6.8,3.05.18.13.36.24.55.35l592.9,342.3c9.8,5.67,18.15,14.48,25.05,26.45,3.88,6.73,6.66,13.33,8.35,19.8,1.31,5.08,1.96,10.08,1.95,15l-1.35,502.35c-.4,12.5-2.58,26.42-6.55,41.75-3.81,14.58-9.13,28.69-15.95,42.35-.13.22-.24.44-.35.65-7,13.83-15.02,26.12-24.05,36.85-9.37,11.13-19.15,19.75-29.35,25.85l-11.9,7.1c-10.23,6.1-20.03,9.2-29.4,9.3-27.34,10.93-42.14-16.29-99.3-49.25-57.16-32.96-80.32-50.59-69.5-52.9,10.78-2.31-114.75-268.14-376.6-797.5.03,0,.06,0,.1,0l-.05-.05.4-149.75c.03-11.27,3.52-18.88,10.45-22.85.17-.1.35-.2.55-.3.01,0,.05-.02.1-.05.79-.33,1.59-.68,2.4-1.05m196.1,237.05c-2.02-1.21-3.14-1.71-3.35-1.5l-.85.85c1.41.23,2.81.45,4.2.65Z"/></g><g id="Layer2_0_FILL-2"><path class="cls-24" d="m1092.76,701.65c4.4-1.55,9.32-1.37,14.75.55,2.27,1.03,4.53,2.04,6.8,3.05.18.13.36.24.55.35l592.9,342.3c9.8,5.67,18.15,14.48,25.05,26.45,3.88,6.73,6.66,13.33,8.35,19.8,1.31,5.08,1.96,10.08,1.95,15l-1.35,502.35c-.4,12.5-2.58,26.42-6.55,41.75-3.81,14.58-9.13,28.69-15.95,42.35-.13.22-.24.44-.35.65-7,13.83-15.02,26.12-24.05,36.85-9.37,11.13-19.15,19.75-29.35,25.85l-11.9,7.1c-10.23,6.1-20.03,9.2-29.4,9.3-19.59,4.48-42.14-16.29-99.3-49.25-57.16-32.96-80.32-50.59-69.5-52.9,10.78-2.31-114.75-268.14-376.6-797.5.03,0,.06,0,.1,0l-.05-.05.4-149.75c.03-11.27,3.52-18.88,10.45-22.85.17-.1.35-.2.55-.3.01,0,.05-.02.1-.05.79-.33,1.59-.68,2.4-1.05m196.1,237.05c-2.02-1.21-3.14-1.71-3.35-1.5l-.85.85c1.41.23,2.81.45,4.2.65Z"/></g></g><g id="Paper"><g id="PAPER_0_Layer0_0_MEMBER_0_FILL"><path class="cls-23" d="m1204.66,395c1.97-.87,3.92-.73,5.85.4l388.35,224.2c10.77,6.23,19.93,15.92,27.5,29.05,7.6,13.13,11.38,25.88,11.35,38.25l-2.15,749.4c0,.92-.02,1.82-.05,2.7l-.95,6.9c-.51,2.15-1.19,4.15-2.05,6-1.83,3.93-4.38,6.93-7.65,9l.5-.3c-.42.28-.86.55-1.3.8-7.63,4.33-16.83,3.4-27.6-2.8l-500.9-289.2c-10.77-6.23-19.95-15.92-27.55-29.05-7.6-13.13-11.37-25.88-11.3-38.25l1.65-595.1.05-.05c86.83-71,134.91-107.79,144.25-110.35.51-.7,1.18-1.23,2-1.6m-31,167.35c.17-.1.34-.2.5-.3l-2.45-1c.17,1.51.82,1.94,1.95,1.3Z"/></g><g id="PAPER_0_Layer0_0_MEMBER_0_FILL-2"><path class="cls-10" d="m1204.66,395c1.97-.87,3.92-.73,5.85.4l388.35,224.2c10.77,6.23,19.93,15.92,27.5,29.05,7.6,13.13,11.38,25.88,11.35,38.25l-2.15,749.4c0,.92-.02,1.82-.05,2.7l-.95,6.9c-.51,2.15-1.19,4.15-2.05,6-1.83,3.93-4.38,6.93-7.65,9l.5-.3c-.42.28-.86.55-1.3.8-7.63,4.33-16.83,3.4-27.6-2.8l-500.9-289.2c-10.77-6.23-19.95-15.92-27.55-29.05-7.6-13.13-11.37-25.88-11.3-38.25l1.65-595.1.05-.05c86.83-71,134.91-107.79,144.25-110.35.51-.7,1.18-1.23,2-1.6m-31,167.35c.17-.1.34-.2.5-.3l-2.45-1c.17,1.51.82,1.94,1.95,1.3Z"/></g><path class="cls-11" d="m1204.66,395c1.97-.87,3.92-.73,5.85.4l388.35,224.2c10.77,6.23,19.93,15.92,27.5,29.05,7.6,13.13,11.38,25.88,11.35,38.25l-2.15,749.4c0,.92-.02,1.82-.05,2.7l-.95,6.9c-.51,2.15-1.19,4.15-2.05,6-1.83,3.93-4.38,6.93-7.65,9l.5-.3c-.42.28-.86.55-1.3.8-7.63,4.33-16.83,3.4-27.6-2.8l-500.9-289.2c-10.77-6.23-19.95-15.92-27.55-29.05-7.6-13.13-11.37-25.88-11.3-38.25l1.65-595.1.05-.05c86.83-71,134.91-107.79,144.25-110.35.51-.7,1.18-1.23,2-1.6m-31,167.35c.17-.1.34-.2.5-.3l-2.45-1c.17,1.51.82,1.94,1.95,1.3Z"/><g id="PAPER_0_Layer0_0_MEMBER_1_FILL"><path class="cls-42" d="m1191.86,382.05c.49-.54,1.03-1.04,1.6-1.5,6.97-5.69,17.83-4.56,32.6,3.4l390.4,225.4c10.77,6.23,19.95,15.92,27.55,29.05,7.57,13.17,11.33,25.92,11.3,38.25l-2.1,749.4c-.03,6.03-1.07,11.23-3.1,15.6-1.97,4.2-4.73,7.33-8.3,9.4l-16.45,9.55c4.71-3.17,7.78-8.07,9.2-14.7l.95-6.9c.03-.88.05-1.78.05-2.7l2.15-749.4c.03-12.37-3.75-25.12-11.35-38.25-7.57-13.13-16.73-22.82-27.5-29.05l-388.35-224.2c-1.93-1.13-3.88-1.27-5.85-.4-2.37,1.07-3.43,3.55-3.2,7.45l-.35,128.3c-.03,5.13-.92,9.57-2.65,13.3-1.67,3.57-4.02,6.23-7.05,8l-17.25,10,3.85-3.25c2.2-2.46,3.73-5.62,4.6-9.5l.8-5.75c.03-.83.05-1.68.05-2.55l.35-128.3c.17-13.44,2.37-23.07,6.6-28.9.45-.61.93-1.2,1.45-1.75Z"/></g><g id="PAPER_0_Layer0_0_MEMBER_2_FILL"><path class="cls-32" d="m1191.86,382.05c-.52.55-1,1.14-1.45,1.75-4.23,5.83-6.43,15.46-6.6,28.9l-.35,128.3c0,.87-.02,1.72-.05,2.55l-.8,5.75c-.45,1.78-1.03,3.45-1.75,5-.8,1.7-1.75,3.2-2.85,4.5l-3.85,3.25c-.16.1-.33.2-.5.3-6.5,3.7-14.33,2.92-23.5-2.35l-91.75-53.05,133.45-124.9Z"/></g><g class="cls-46"><polygon class="cls-39" points="1524.18 860.68 1524.18 899.68 1152.67 685.17 1152.67 646.17 1524.18 860.68"/><polygon class="cls-39" points="1524.18 939.75 1524.18 978.75 1152.67 764.24 1152.67 725.24 1524.18 939.75"/><polygon class="cls-39" points="1524.18 1018.82 1524.18 1057.82 1152.67 843.31 1152.67 804.31 1524.18 1018.82"/><polygon class="cls-44" points="1524.18 1097.88 1524.18 1136.89 1152.67 922.37 1152.67 883.37 1524.18 1097.88"/></g><g id="PAPER_0_Layer0_0_MEMBER_1_FILL-2"><path class="cls-37" d="m1191.86,382.05c.49-.54,1.03-1.04,1.6-1.5,6.97-5.69,17.83-4.56,32.6,3.4l390.4,225.4c10.77,6.23,19.95,15.92,27.55,29.05,7.57,13.17,11.33,25.92,11.3,38.25l-2.1,749.4c-.03,6.03-1.07,11.23-3.1,15.6-1.97,4.2-4.73,7.33-8.3,9.4l-16.45,9.55c4.71-3.17,7.78-8.07,9.2-14.7l.95-6.9c.03-.88.05-1.78.05-2.7l2.15-749.4c.03-12.37-3.75-25.12-11.35-38.25-7.57-13.13-16.73-22.82-27.5-29.05l-388.35-224.2c-1.93-1.13-3.88-1.27-5.85-.4-2.37,1.07-3.43,3.55-3.2,7.45l-.35,128.3c-.03,5.13-.92,9.57-2.65,13.3-1.67,3.57-4.02,6.23-7.05,8l-17.25,10,3.85-3.25c2.2-2.46,3.73-5.62,4.6-9.5l.8-5.75c.03-.83.05-1.68.05-2.55l.35-128.3c.17-13.44,2.37-23.07,6.6-28.9.45-.61.93-1.2,1.45-1.75Z"/></g><path class="cls-22" d="m1054.55,1149.8v-417.21l217.84,125.76c13.36,7.72,25.91,22.35,33.69,39.3l11.69,25.47.05.1,34.79,75.82,217.16,125.38c18.38,10.61,33.27,36.28,33.27,57.34v193.89l-.14,88.42h0l-548.35-314.27Z"/></g><g id="Folder-2"><polygon id="Shadow_folder" class="cls-45" points="1616.61 1803.3 2126.81 1803.3 1468.23 1425.51 1138.94 1503.51 1616.61 1803.3"/><path class="cls-35" d="m1588.27,1796.5l-61.65-34.55c-1.72-.98-3.83-2.19-6.35-3.65l-551.55-320.8c-2.59-1.5-5.07-3.21-7.45-5.15-6.66-5.38-12.52-12.47-17.6-21.25-6.18-10.66-9.58-21.03-10.2-31.1l.61-213.52v-413.59c0-21.06,14.9-29.53,33.27-18.92l258.7,149.35c13.36,7.72,25.91,22.35,33.69,39.3l11.69,25.47.05.1,34.79,75.82,217.16,125.38c18.38,10.61,33.27,36.28,33.27,57.34v193.89l-.33,205.68.15,112.8c0,2.69.06,5.34.18,7.93.41,9.07,1.55,17.49,3.42,25.27,1.03,4.28,2.28,8.36,3.75,12.25,4.7,12.5,11.33,22.12,19.9,28.85,1.46,1.14,2.96,2.18,4.5,3.1Z"/><path class="cls-41" d="m960.98,721.71l2.3-1.33c-.81.38-1.57.82-2.3,1.33Zm614.09,994.71c-.12-2.59-.18-5.24-.18-7.93l-.15-112.8.33-205.68v-193.89c0-1.34-.06-2.69-.18-4.06l-.52,391.44.3,123.25c0,4.23.18,8.29.54,12.2-.06-.84-.1-1.68-.14-2.53Z"/><path class="cls-14" d="m1757.47,1098.95l-.4,30.7-.6,437.75-.45,49c-1.09,12.03-3.27,24.38-6.55,37.05-3,11.52-6.79,22.81-11.35,33.85-2.62,6.38-5.51,12.68-8.65,18.9-8.57,17-18.4,32.08-29.5,45.25-11.47,13.63-23.49,24.2-36.05,31.7l-14.6,8.7c-12.54,7.5-24.54,11.32-36,11.45-8.64.1-16.5-1.88-23.6-5.95-.27-.13-.54-.28-.8-.45-.22-.11-.44-.25-.65-.4-1.54-.92-3.04-1.96-4.5-3.1-8.57-6.73-15.2-16.35-19.9-28.85-.41-1.08-.8-2.18-1.17-3.29-.98-2.89-1.84-5.87-2.58-8.96-.2-.83-.39-1.66-.57-2.5-.09-.41-.18-.82-.26-1.24-.02-.07-.03-.15-.04-.22-.2-.96-.39-1.94-.56-2.92-.09-.5-.18-1.01-.26-1.52-.07-.39-.13-.78-.19-1.18-.11-.7-.22-1.41-.31-2.12-.07-.49-.14-.98-.2-1.48-.2-1.57-.38-3.16-.53-4.78-.05-.56-.1-1.12-.14-1.68-.07-.75-.12-1.5-.17-2.26-.08-1.11-.14-2.23-.19-3.36h0c-.02-.42-.04-.82-.05-1.23-.03-.73-.05-1.47-.07-2.21-.02-.57-.03-1.14-.04-1.72-.01-.92-.02-1.85-.02-2.78l-.15-112.8.33-205.68v-193.89c0-21.06-14.89-46.73-33.27-57.34l-217.16-125.38-34.79-75.82-.05-.1-11.69-25.47c-7.78-16.95-20.33-31.58-33.69-39.3l-258.7-149.35c-4.44-2.56-8.67-4.01-12.54-4.44-3.65-.4-6.98.1-9.85,1.44l15.98-9.23.04-.03,2.3-1.33.05-.02c5.91-2.76,13.77-1.98,22.39,3l258.7,149.35c13.36,7.72,25.91,22.35,33.69,39.3l9.66,21.04,2.03,4.43.05.1,34.79,75.82,217.16,125.38c5.59,3.23,10.86,7.85,15.48,13.32,9.62,11.35,16.45,26.33,17.61,39.96l-.52,391.44.3,123.25c0,4.23.18,8.29.54,12.2.83,9.16,2.66,17.44,5.46,24.85,3.83,10.17,9.23,18,16.2,23.5,7,5.5,15.01,8.18,24.05,8.05,9.36-.1,19.16-3.2,29.4-9.3l11.9-7.1c10.2-6.1,19.98-14.72,29.35-25.85,9.03-10.73,17.05-23.02,24.05-36.85.1-.21.22-.43.35-.65,6.82-13.66,12.14-27.77,15.95-42.35,3.96-15.33,6.15-29.25,6.55-41.75l1.35-502.35c.01-4.92-.64-9.92-1.95-15-1.69-6.47-4.47-13.07-8.35-19.8-6.9-11.97-15.25-20.78-25.05-26.45l-53.41-30.83.06-20.36,71,40.99c5.74,3.33,10.99,7.75,15.75,13.25,3.32,3.85,6.41,8.24,9.25,13.15,5.1,8.81,8.32,17.43,9.65,25.85.47,3.03.71,6.03.7,9Z"/><path class="cls-3" d="m960.98,721.71l2.3-1.33c-.81.38-1.57.82-2.3,1.33Z"/><g id="Circle_point_Green"><ellipse class="cls-1" cx="1213.45" cy="1292.16" rx="130.23" ry="225.58" transform="translate(-486.7 790.53) rotate(-30.36)"/><ellipse class="cls-29" cx="1213.45" cy="1292.16" rx="91.41" ry="158.34" transform="translate(-486.7 790.53) rotate(-30.36)"/><ellipse class="cls-12" cx="1213.45" cy="1292.16" rx="55.11" ry="95.45" transform="translate(-486.7 790.53) rotate(-30.36)"/></g><path class="cls-17" d="m1726.52,1069.5v-28.96c-1.44-1.02-2.9-1.97-4.4-2.84l-67.71-39.12-.06,20.36,50.12,28.96c8.42,4.87,15.77,12.07,22.05,21.6Z"/></g></g><g id="woman"><g class="cls-48"><ellipse class="cls-21" cx="830.19" cy="1812.33" rx="63.95" ry="110.77" transform="translate(-992.44 2619.65) rotate(-89.28)"/><path class="cls-28" d="m1154.71,1805.86c0,26.63-37.28,47.98-83.24,47.67l-217.78-1.35c-5.03-.03-9.95-.33-14.72-.85-25.12-3.21-54.96-12.25-66.33-36.99-11.27-35.16,31.1-58,81.13-58.58,0,0,217.77,1.37,217.77,1.37,11.57.09,23.12,1.51,34.25,4.47,21.61,5.98,47.97,19.35,48.94,44.27Z"/></g><g class="cls-48"><ellipse class="cls-4" cx="782.84" cy="1808.06" rx="21.76" ry="37.69" transform="translate(-1034.93 2568.09) rotate(-89.28)"/><path class="cls-30" d="m893.25,1805.86c0,9.06-12.68,16.32-28.32,16.22l-74.1-.46c-10.76-.26-26.94-3.81-28.3-16.58,0-9.06,12.69-16.32,28.33-16.23l74.09.47c10.76.23,27,3.87,28.3,16.58Z"/></g><g id="WOMAN_0_Layer0_0_FILL"><path class="cls-34" d="m849.98,1175.14c7.32-1.94,12.34-1.09,15.03,2.54l6.48,10.69,4.62,4.28c3.16,5.37,5.11,11.12,5.84,17.24-.49,1.81-2.78,4.32-6.9,7.51,3.03,8.53,5.25,18.6,6.66,30.19l-29.88-3.94.16-24.9c-9.41-6-14.39-13.27-14.96-21.79-1.06-10.29,3.25-17.56,12.94-21.82Z"/></g><path class="cls-34" d="m881.53,1210.94s-4.16,5.53-6.46,6.46l-5.38-3.56s3.87.49,11.84-2.91Z"/><g id="WOMAN_0_Layer0_1_FILL"><path class="cls-7" d="m822.53,1246.92c4.2-12.32,11.64-18.46,22.32-18.41,10.65.04,21.3,2.04,31.96,6,10.94,4.02,18.7,10.6,23.28,19.75l-77.56-7.34Z"/></g><g id="WOMAN_0_Layer0_2_FILL"><path class="cls-34" d="m829.48,1329.74c-15.31-8.92-29.87-19.35-43.58-30.51-14.96,37.53-21.98,65.12-21.07,82.78,15.21,31.94,39.31,61.24,72.3,87.91l13.15-16.07c-16.44-29.96-31.21-52.39-44.33-67.28,9.4-19.76,17.23-38.7,23.53-56.83Z"/><path class="cls-31" d="m845.29,1269.32c3.42-12.07-1.68-20.38-15.29-24.95-4.75-9.83-15.54-.82-32.37,27.05-4.34,9.81-8.25,19.08-11.73,27.81,13.72,11.16,28.27,21.59,43.58,30.51,7.39-21.25,12.67-41.4,15.81-60.42Z"/></g><g id="WOMAN_0_Layer0_3_FILL"><path class="cls-6" d="m792.35,1783.89l7.85,8.3c6.57,7.01,8.46,11.87,5.66,14.59-2.83,2.75-14.99-1.13-36.48-11.63-5.44-2.66-7.57-6.06-6.39-10.19,1.04-2.8,2.09-5.61,3.15-8.43,7.61,8.29,16.33,13.65,26.15,16.06,4.09-1.16,4.11-4.06.05-8.7m42.15-357.34l54.83,43.5c15.71,48.46,17.68,101.4,5.9,158.84-10.72,27.49-30.11,60.3-58.17,98.44-10.92-1.25-24.72-9.29-41.4-24.11,2.16-5.05,4.36-10.13,6.6-15.26,14.68-33.61,26.34-55.4,34.96-65.38-16.96-62.89-17.87-128.23-2.72-196.02Z"/><path class="cls-34" d="m795.66,1703.21c16.67,14.82,30.47,22.86,41.4,24.11-13.03,17.71-27.94,36.56-44.71,56.57,4.06,4.64,4.04,7.54-.05,8.7-9.82-2.42-18.54-7.77-26.15-16.06,8.92-23.7,18.76-48.14,29.51-73.32Z"/><path class="cls-25" d="m834.5,1426.55l54.83,43.5c15.71,48.46,17.68,101.4,5.9,158.84-10.72,27.49-30.11,60.3-58.17,98.44-10.92-1.25-24.72-9.29-41.4-24.11,2.16-5.05,4.36-10.13,6.6-15.26,14.68-33.61,26.34-55.4,34.96-65.38-16.96-62.89-17.87-128.23-2.72-196.02Z"/><path class="cls-2" d="m795.66,1703.21c16.67,14.82,30.47,22.86,41.4,24.11-13.03,17.71-27.94,36.56-44.71,56.57,4.06,4.64,4.04,7.54-.05,8.7-9.82-2.42-18.54-7.77-26.15-16.06,8.92-23.7,18.76-48.14,29.51-73.32Z"/></g><g id="WOMAN_0_Layer0_4_FILL"><path class="cls-6" d="m905.66,1823.16c2.31.88,4.69,1.04,7.15.5,13.84-1.36,22.69-3.8,26.55-7.33,1.66-4.34-.54-7.01-6.6-7.99,21.01,1.58,32.79,4.89,35.34,9.92,2.51,5.04-15.87,12.37-55.14,22-5.13.35-7.53-1.73-7.21-6.25-.04-3.66-.06-7.28-.08-10.85Z"/><path class="cls-34" d="m912.81,1823.65c-2.45.55-4.84.38-7.15-.5-.2-26.5-.06-50.37.4-71.6,10,4.09,24.37,4.36,43.1.82-5.11,20.28-10.58,38.93-16.4,55.95,6.06.98,8.26,3.65,6.6,7.99-3.86,3.53-12.7,5.98-26.55,7.33Z"/><path class="cls-6" d="m849.49,1421.34l92.75.58c25.12,67.53,35.56,134.96,31.33,202.3-6.92,48.21-15.06,90.93-24.41,128.15-18.73,3.54-33.09,3.27-43.1-.82,1.14-54.69,4.39-91.81,9.75-111.34-59.68-123.98-81.79-196.94-66.32-218.87Z"/><path class="cls-13" d="m849.49,1421.34l92.75.58c25.12,67.53,35.56,134.96,31.33,202.3-6.92,48.21-15.06,90.93-24.41,128.15-18.73,3.54-33.09,3.27-43.1-.82,1.14-54.69,4.39-91.81,9.75-111.34-59.68-123.98-81.79-196.94-66.32-218.87Z"/><path class="cls-40" d="m912.81,1823.65c-2.45.55-4.84.38-7.15-.5-.2-26.5-.06-50.37.4-71.6,10,4.09,24.37,4.36,43.1.82-5.11,20.28-10.58,38.93-16.4,55.95,6.06.98,8.26,3.65,6.6,7.99-3.86,3.53-12.7,5.98-26.55,7.33Z"/></g><path class="cls-47" d="m910.01,1452.53c30.08,62.93,42.42,122.61,45.17,151.88,3.17,33.75-27.69,147.28-27.69,147.28"/><g id="WOMAN_0_Layer0_5_FILL"><path class="cls-7" d="m965.39,1460.48c2.06,5.65-4.79,9.25-20.57,10.82-14.08,1.41-32.02,1.03-53.84-1.14-11.85-1.19-22.74-2.69-32.67-4.51-1.44-8.25-2.13-16.78-2.09-25.61-5.26,6.2-10.06,13.55-14.39,22.06-2.13-.5-4.19-1.03-6.19-1.59-16.94-4.74-25.32-9.63-25.16-14.66l20.35-63.47c-18.85-78.48-23.94-123.08-15.26-133.8,5.68-11.61,22.21-14.79,49.61-9.54,25.46,4.73,50.42,14.96,74.86,30.67l8.9,142.56,16.45,48.2Z"/></g><path class="cls-19" d="m899.32,1299.56s9.33,35.28,45.78,51.27l-1.69-27.1-44.09-24.17Z"/><g id="WOMAN_0_Layer0_6_FILL"><path class="cls-34" d="m1203.5,1292.32c1,1.08.29,2.34-2.12,3.79l-10.68,4.68-.04,6.75c-.14,1.9-1.31,3.38-3.53,4.43l-22.4,8.21-11.88,4.88-1.58-18.46,3.3-.18,1.45.46,26.76-10.18,20.73-4.37Z"/></g><path class="cls-7" d="m954.22,1276.05c-14.63-6.65-29.27-12.93-43.91-18.83-12.13-2.18-18.47,2.98-19.05,15.48-.77,16.11,7.23,30.28,23.98,42.5,11.33,5.97,23.16,11.26,35.46,15.9-2.57-18.32-2.26-37.93,3.51-55.05Z"/><path class="cls-34" d="m1154.56,1306.41c-55.04,3.18-91.65,8.4-109.85,15.66-30.15-16.96-60.32-32.3-90.49-46.02-5.77,17.12-6.08,36.74-3.51,55.05,29.03,10.95,60.74,18.22,95.16,21.78,29.33-.74,68.95-11.64,118.86-32.7,2.13-6.75-1.26-11.34-10.16-13.76Z"/><path id="gradient_finger" class="cls-5" d="m891.27,1272.7c.57-12.5,6.92-17.66,19.05-15.48,44.82,18.04,89.62,39.65,134.39,64.85,17.83-7.11,53.35-12.27,106.55-15.46v-.02s3.3-.18,3.3-.18c.52.14,1.01.29,1.49.44l26.73-10.17,20.73-4.37c1,1.08.29,2.34-2.12,3.79l-10.68,4.68-.04,6.75c-.14,1.9-1.31,3.38-3.53,4.43l-22.4,8.21c-49.91,21.06-89.53,31.96-118.86,32.7-49-5.06-92.54-17.62-130.62-37.67-16.76-12.22-24.75-26.39-23.98-42.5Z"/><g id="Layer5_20_MEMBER_5_FILL"><path class="cls-38" d="m841.26,1177.04c-9.53,2.12-15.22,10.92-14.79,16.76.49,6.56,2.68,13.19,2.85,15.21.53,6.05.32,5.21-1.47,9.05-20.56,15.12-21.28,25.85-18.08,50.27-30.17,16.73-49.89,16.67-52.66,57.83-2.76,41.16,54.75,46.38,92.29,26.45,37.54-19.92,44.67-68.94,7.23-103.01,11.75-6.42,13.56-13.82,14.61-24.87,1.29-12.89-.18-25.03-3.18-37.61,2.69-1.35,5.07-2.75,6.21-5.74,1.28-3.38.12-4.73-3.61-5.9-9.28-2.91-20.78-.36-29.41,1.56Z"/></g></g></svg>