<svg id="ARTWORK" xmlns="http://www.w3.org/2000/svg" xmlns:xlink="http://www.w3.org/1999/xlink" viewBox="0 0 2500 2500"><defs><style>.cls-1{fill:url(#linear-gradient);}.cls-2{filter:url(#AI_DesenfoqueGaussiano_4);}.cls-11,.cls-12,.cls-3{fill:#0f0b26;}.cls-4{fill:#f6fbfb;}.cls-5{fill:#78c2bd;}.cls-6{fill:url(#Degradado_sin_nombre_4);}.cls-7{fill:#c8e6e4;}.cls-8{fill:#ebf6f5;}.cls-9{fill:url(#Degradado_sin_nombre_2);}.cls-10{fill:#a7d7d3;}.cls-11{opacity:0.36;}.cls-12{opacity:0.16;}.cls-13{fill:#85d8d1;fill-opacity:0.7;}.cls-14{fill:#229b92;}.cls-15{fill:url(#radial-gradient);}.cls-16{fill:url(#linear-gradient-2);}.cls-17{mask:url(#mask);}.cls-18{fill:#7dd1ed;}.cls-19{fill:#4bbcec;}.cls-20{fill:#1f96dc;}.cls-21{fill:url(#linear-gradient-3);}.cls-22{fill:url(#linear-gradient-4);}</style><linearGradient id="linear-gradient" x1="1323.29" y1="370.09" x2="1323.29" y2="1743.37" gradientUnits="userSpaceOnUse"><stop offset="0.03" stop-color="#fff"/><stop offset="0.23" stop-color="#b0b0b0"/><stop offset="0.44" stop-color="#656565"/><stop offset="0.6" stop-color="#2e2e2e"/><stop offset="0.73" stop-color="#0d0d0d"/><stop offset="0.8"/></linearGradient><filter id="AI_DesenfoqueGaussiano_4" name="AI_DesenfoqueGaussiano_4"><feGaussianBlur stdDeviation="4"/></filter><linearGradient id="Degradado_sin_nombre_4" x1="16779.44" y1="498.94" x2="16924.02" y2="286.23" gradientTransform="matrix(-1, 0, 0, 1, 17340.19, 0)" gradientUnits="userSpaceOnUse"><stop offset="0" stop-color="#fff" stop-opacity="0"/><stop offset="0.12" stop-color="#fafefd" stop-opacity="0.02"/><stop offset="0.27" stop-color="#edf9f8" stop-opacity="0.1"/><stop offset="0.42" stop-color="#d7f2f0" stop-opacity="0.22"/><stop offset="0.58" stop-color="#b9e8e4" stop-opacity="0.38"/><stop offset="0.75" stop-color="#91dcd6" stop-opacity="0.6"/><stop offset="0.92" stop-color="#62ccc4" stop-opacity="0.86"/><stop offset="1" stop-color="#48c4ba"/></linearGradient><linearGradient id="Degradado_sin_nombre_2" x1="16832.92" y1="59.13" x2="17065.46" y2="461.89" gradientTransform="matrix(-1, 0, 0, 1, 17340.19, 0)" gradientUnits="userSpaceOnUse"><stop offset="0" stop-color="#fff" stop-opacity="0"/><stop offset="0.1" stop-color="#fff" stop-opacity="0.01"/><stop offset="0.19" stop-color="#fff" stop-opacity="0.06"/><stop offset="0.27" stop-color="#feffff" stop-opacity="0.13"/><stop offset="0.35" stop-color="#fdfefe" stop-opacity="0.23"/><stop offset="0.43" stop-color="#fcfefe" stop-opacity="0.36"/><stop offset="0.51" stop-color="#fbfdfd" stop-opacity="0.52"/><stop offset="0.58" stop-color="#fafdfd" stop-opacity="0.71"/><stop offset="0.65" stop-color="#f9fcfc" stop-opacity="0.92"/><stop offset="0.68" stop-color="#f8fcfc"/><stop offset="0.72" stop-color="#f4fafa"/><stop offset="0.76" stop-color="#e9f5f4"/><stop offset="0.79" stop-color="#d5ecea"/><stop offset="0.83" stop-color="#bae0dd"/><stop offset="0.85" stop-color="#a7d7d3"/><stop offset="0.93" stop-color="#8eccc8"/><stop offset="1" stop-color="#78c2bd"/></linearGradient><radialGradient id="radial-gradient" cx="493.75" cy="310.1" r="305.43" gradientTransform="matrix(0.99, -0.15, 0.05, 0.32, -9.59, 284.74)" gradientUnits="userSpaceOnUse"><stop offset="0" stop-color="#0f0b26" stop-opacity="0.4"/><stop offset="0.18" stop-color="#0f0b26" stop-opacity="0.29"/><stop offset="0.82" stop-color="#0f0b26" stop-opacity="0"/></radialGradient><linearGradient id="linear-gradient-2" x1="649.44" y1="441.15" x2="335.82" y2="268.88" gradientUnits="userSpaceOnUse"><stop offset="0" stop-color="#0f0b26" stop-opacity="0.3"/><stop offset="0.02" stop-color="#0f0b26" stop-opacity="0.29"/><stop offset="0.91" stop-color="#0f0b26" stop-opacity="0"/></linearGradient><mask id="mask" x="0" y="0" width="1756.18" height="1743.37" maskUnits="userSpaceOnUse"><rect class="cls-1" x="890.41" y="370.09" width="865.77" height="1373.27"/></mask><linearGradient id="linear-gradient-3" x1="613.99" y1="1074.8" x2="546.41" y2="1131.12" gradientUnits="userSpaceOnUse"><stop offset="0" stop-color="#5bc2ee" stop-opacity="0"/><stop offset="0.87" stop-color="#004986" stop-opacity="0.3"/></linearGradient><linearGradient id="linear-gradient-4" x1="809.02" y1="1318.34" x2="991.23" y2="1482.66" xlink:href="#linear-gradient-3"/><symbol id="box-icons" data-name="box-icons" viewBox="0 0 286 286"><g class="cls-2"><rect class="cls-11" x="27.47" y="27.47" width="234.73" height="234.73" rx="20.75"/></g><g class="cls-2"><rect class="cls-12" x="23.47" y="23.47" width="234.73" height="234.73" rx="20.75"/></g><rect class="cls-7" x="24.47" y="23.47" width="234.73" height="234.73" rx="20.75"/></symbol><symbol id="mail_notice" data-name="mail notice" viewBox="0 0 286 286"><use width="286" height="286" xlink:href="#box-icons"/><path class="cls-14" d="M197.11,119.78c-11.9,8.23-23.86,16.46-35.68,24.77-5,3.43-13.34,10.45-19.51,10.45h-.16c-6.17,0-14.56-7-19.51-10.45-11.82-8.31-23.78-16.54-35.6-24.77-5.41-3.66-13.11-12.27-13.11-19.21,0-7.47,4-13.87,12.2-13.87h112.2a12.27,12.27,0,0,1,12.2,12.19C210.14,107.43,203.81,115.13,197.11,119.78Zm13,62.05a12.24,12.24,0,0,1-12.2,12.2H85.74a12.24,12.24,0,0,1-12.2-12.2V121.3a42.8,42.8,0,0,0,7.7,6.64c12.65,8.61,25.46,17.22,37.88,26.29,6.41,4.73,14.34,10.52,22.64,10.52h.16c8.31,0,16.23-5.79,22.64-10.52,12.42-9,25.23-17.68,38-26.29a45.21,45.21,0,0,0,7.62-6.64Z"/></symbol><symbol id="shadow-elements" data-name="shadow-elements" viewBox="0 0 817.9 492.77"><rect class="cls-15" x="130.73" width="687.18" height="492.77"/><g class="cls-2"><path class="cls-16" d="M496.33,387.3,164.19,419s-159-27.14-96.3-115.41S392.38,50.12,515,108.43,580.22,359.61,496.33,387.3Z"/></g></symbol><symbol id="button_server" data-name="button server" viewBox="0 0 29.85 34.91"><path class="cls-13" d="M17.43,1.71C14-.29,10.83-.48,8.57.84L3.63,3.71C5.9,2.39,9,2.58,12.5,4.58c6.88,4,12.44,13.59,12.41,21.5,0,3.93-1.39,6.69-3.63,8l4.93-2.87c2.24-1.3,3.63-4.06,3.64-8C29.87,15.31,24.31,5.68,17.43,1.71Z"/><ellipse class="cls-14" cx="12.46" cy="18.89" rx="10.17" ry="17.56" transform="translate(-7.8 8.82) rotate(-30.16)"/></symbol><symbol id="Server" data-name="Server" viewBox="0 0 820 582"><g class="cls-2"><path class="cls-3" d="M77.81,344.59,416.23,149.2c7.36-4.25,13.32-14.57,13.29-23l-.19-69.13c0-4.19-1.5-7.15-3.9-8.54l322.1,187.18c2.39,1.39,3.88,4.35,3.89,8.54l.19,69.13c0,8.45-5.93,18.77-13.28,23L399.9,531.77c-3.7,2.13-7,2.33-9.48.92L68.33,345.51C70.75,346.92,74.11,346.72,77.81,344.59Z"/></g><path class="cls-4" d="M83.45,329.64,421.87,134.25c7.36-4.25,13.31-14.57,13.29-23L435,42.1c0-4.2-1.5-7.15-3.89-8.54L753.16,220.74c2.4,1.39,3.88,4.34,3.89,8.54l.2,69.13c0,8.45-5.93,18.77-13.29,23L405.54,516.82c-3.7,2.13-7.06,2.33-9.48.92L74,330.56C76.39,332,79.75,331.77,83.45,329.64Z"/><path class="cls-5" d="M75.5,325.26,413.92,129.87c7.36-4.24,13.31-14.57,13.29-23L427,37.73c0-4.2-1.5-7.16-3.89-8.55L745.21,216.36c2.4,1.39,3.88,4.35,3.89,8.55l.2,69.13c0,8.44-5.93,18.77-13.29,23L397.59,512.44c-3.7,2.14-7.06,2.33-9.48.92L66,326.18C68.44,327.59,71.8,327.4,75.5,325.26Z"/><path class="cls-6" d="M75.5,325.26,413.92,129.87c7.36-4.24,13.31-14.57,13.29-23L427,37.73c0-4.2-1.5-7.16-3.89-8.55L745.21,216.36c2.4,1.39,3.88,4.35,3.89,8.55l.2,69.13c0,8.44-5.93,18.77-13.29,23L397.59,512.44c-3.7,2.14-7.06,2.33-9.48.92L66,326.18C68.44,327.59,71.8,327.4,75.5,325.26Z"/><path class="cls-7" d="M405.22,404.82C392,412.46,381.29,431,381.33,446.2l.2,69.14c0,15.21,10.81,21.35,24,13.71L744,333.66c13.24-7.65,23.94-26.18,23.89-41.39l-.19-69.13c-.05-15.22-10.81-21.36-24.05-13.71ZM392.16,509.19,392,440.06c0-8.44,5.94-18.77,13.28-23L743.68,221.66c7.35-4.25,13.35-.82,13.37,7.62l.2,69.13c0,8.45-5.93,18.77-13.29,23L405.54,516.82c-7.35,4.24-13.35.82-13.38-7.63"/><path class="cls-8" d="M83.13,217.64,421.55,22.25c6.67-3.85,12.7-4.21,17.06-1.67L760.7,207.76c-4.35-2.54-10.39-2.18-17.05,1.67L405.22,404.82C392,412.46,381.29,431,381.33,446.2l.2,69.14c0,7.56,2.69,12.87,7,15.38L66.43,343.54c-4.31-2.5-7-7.82-7-15.38L59.24,259C59.2,243.81,69.89,225.28,83.13,217.64Z"/><path class="cls-9" d="M83.13,217.64,421.55,22.25c6.67-3.85,12.7-4.21,17.06-1.67L760.7,207.76c-4.35-2.54-10.39-2.18-17.05,1.67L405.22,404.82C392,412.46,381.29,431,381.33,446.2l.2,69.14c0,7.56,2.69,12.87,7,15.38L66.43,343.54c-4.31-2.5-7-7.82-7-15.38L59.24,259C59.2,243.81,69.89,225.28,83.13,217.64Z"/><g id="buttons"><use width="29.85" height="34.91" transform="matrix(-1, 0, 0, 1, 445.45, 428.86)" xlink:href="#button_server"/><use width="29.85" height="34.91" transform="matrix(-1, 0, 0, 1, 489.85, 405.01)" xlink:href="#button_server"/><use width="29.85" height="34.91" transform="matrix(-1, 0, 0, 1, 534.24, 380.5)" xlink:href="#button_server"/></g><path class="cls-10" d="M713,287.65l-89.58,51.72c-1.8,1-3.26-.06-3.26-2.47h0a7.85,7.85,0,0,1,3.26-6.24L713,279c1.8-1.05,3.26.06,3.26,2.46h0A7.82,7.82,0,0,1,713,287.65Z"/></symbol></defs><g class="cls-17"><use width="286" height="286" transform="translate(1315.66 1226.45) scale(0.73)" xlink:href="#mail_notice"/><use width="286" height="286" transform="translate(1315.66 991) scale(0.73)" xlink:href="#mail_notice"/><use width="286" height="286" transform="translate(1315.66 755.55) scale(0.73)" xlink:href="#mail_notice"/><use width="286" height="286" transform="translate(1315.66 520.1) scale(0.73)" xlink:href="#mail_notice"/><use width="286" height="286" transform="translate(1095.82 1342.34) scale(0.73)" xlink:href="#mail_notice"/><use width="286" height="286" transform="translate(1095.82 1106.89) scale(0.73)" xlink:href="#mail_notice"/><use width="286" height="286" transform="translate(1095.82 871.44) scale(0.73)" xlink:href="#mail_notice"/><use width="286" height="286" transform="translate(1095.82 635.99) scale(0.73)" xlink:href="#mail_notice"/><path class="cls-10" d="M1622.82,754.78a6.25,6.25,0,0,1-6.24,6.24h-28.7v5h13.73a1.24,1.24,0,0,1,1.25,1.26v2.49a1.24,1.24,0,0,1-1.25,1.25h-32.44a1.23,1.23,0,0,1-1.25-1.25v-2.49a1.23,1.23,0,0,1,1.25-1.26h13.72v-5h-28.7a6.26,6.26,0,0,1-6.24-6.24V717.35a6.25,6.25,0,0,1,6.24-6.24h62.39a6.25,6.25,0,0,1,6.24,6.24Zm-5-37.43a1.28,1.28,0,0,0-1.25-1.25h-62.39a1.28,1.28,0,0,0-1.25,1.25v37.43a1.28,1.28,0,0,0,1.25,1.25h62.39a1.28,1.28,0,0,0,1.25-1.25Z"/><path class="cls-10" d="M1074.63,857.93a7.23,7.23,0,0,1-7.21,7.21h-54.79a7.23,7.23,0,0,1-7.21-7.21V843.51a10.8,10.8,0,0,1,.72-3.38l8.87-27.31a7.86,7.86,0,0,1,7.39-5.36h35.24a7.84,7.84,0,0,1,7.39,5.36l8.88,27.31a10.8,10.8,0,0,1,.72,3.38Zm-5.77-14.42a1.47,1.47,0,0,0-1.44-1.44h-54.79a1.48,1.48,0,0,0-1.45,1.44v14.42a1.49,1.49,0,0,0,1.45,1.44h54.79a1.48,1.48,0,0,0,1.44-1.44Zm-2.25-7.21-7.08-21.72a2,2,0,0,0-1.89-1.35H1022.4a2,2,0,0,0-1.89,1.35l-7.07,21.72Zm-17.94,18a3.61,3.61,0,1,1,3.61-3.6A3.61,3.61,0,0,1,1048.67,854.32Zm11.54,0a3.61,3.61,0,1,1,3.61-3.6A3.61,3.61,0,0,1,1060.21,854.32Z"/><path class="cls-10" d="M1620,1225.93a7.23,7.23,0,0,1-7.21,7.21H1558a7.23,7.23,0,0,1-7.21-7.21v-14.42a10.86,10.86,0,0,1,.72-3.38l8.88-27.3a7.84,7.84,0,0,1,7.39-5.37H1603a7.86,7.86,0,0,1,7.39,5.37l8.87,27.3a10.86,10.86,0,0,1,.72,3.38Zm-5.76-14.42a1.49,1.49,0,0,0-1.45-1.44H1558a1.48,1.48,0,0,0-1.44,1.44v14.42a1.48,1.48,0,0,0,1.44,1.45h54.79a1.49,1.49,0,0,0,1.45-1.45Zm-2.26-7.21-7.07-21.72a2.06,2.06,0,0,0-1.89-1.35h-35.24a2.05,2.05,0,0,0-1.89,1.35l-7.08,21.72Zm-17.93,18a3.61,3.61,0,1,1,3.6-3.61A3.62,3.62,0,0,1,1594,1222.33Zm11.53,0a3.61,3.61,0,1,1,3.61-3.61A3.61,3.61,0,0,1,1605.57,1222.33Z"/><path class="cls-10" d="M1608.42,1373.37a.91.91,0,0,1-.88.89h-6.21v4.43a2.66,2.66,0,0,1-2.65,2.66H1572.1a2.66,2.66,0,0,1-2.66-2.66v-4.43h-6.2a.92.92,0,0,1-.89-.89v-11.51a5.36,5.36,0,0,1,5.32-5.32h1.77v-15.06a2.66,2.66,0,0,1,2.66-2.66h18.6a7.33,7.33,0,0,1,4.54,1.88l4.21,4.21a7.33,7.33,0,0,1,1.88,4.54v7.09h1.78a5.35,5.35,0,0,1,5.31,5.32Zm-10.63-13.29v-10.63h-4.43a2.66,2.66,0,0,1-2.66-2.66v-4.43H1573v17.72Zm0,17.72v-7.08H1573v7.08Zm5.32-17.72a1.78,1.78,0,1,0,1.77,1.78A1.8,1.8,0,0,0,1603.11,1360.08Z"/><path class="cls-10" d="M1092.22,1092.23v3.8a1.91,1.91,0,0,1-1.9,1.9h-14.93l5.62,5.62a2,2,0,0,1,0,2.68l-2.7,2.71a2,2,0,0,1-2.68,0l-10.76-10.76-2.71-2.71a2,2,0,0,1,0-2.68l13.47-13.47a2,2,0,0,1,2.68,0l2.7,2.71a1.88,1.88,0,0,1,0,2.68l-5.62,5.62h14.93A1.91,1.91,0,0,1,1092.22,1092.23Zm-57,.56-2.7-2.7-10.76-10.77a1.93,1.93,0,0,0-1.35-.53,1.87,1.87,0,0,0-1.33.53l-2.71,2.71a2,2,0,0,0,0,2.68l5.62,5.62H1007a1.91,1.91,0,0,0-1.9,1.9v3.8a1.91,1.91,0,0,0,1.9,1.9H1022l-5.62,5.62a1.88,1.88,0,0,0,0,2.68l2.71,2.71a1.87,1.87,0,0,0,1.33.53,1.93,1.93,0,0,0,1.35-.53l10.76-10.76,2.7-2.71a2,2,0,0,0,0-2.68Zm28.29-28.35-10.76-10.76L1050,1051a1.92,1.92,0,0,0-2.67,0l-2.71,2.7-10.76,10.76a2,2,0,0,0,0,2.68l2.7,2.7a1.91,1.91,0,0,0,1.35.57,1.88,1.88,0,0,0,1.33-.57l5.62-5.61v14.92a1.91,1.91,0,0,0,1.9,1.9h3.81a1.91,1.91,0,0,0,1.9-1.9v-14.92l5.62,5.61a1.93,1.93,0,0,0,2.68,0l2.7-2.7a2,2,0,0,0,0-2.68Zm0,56.7-2.7-2.7a1.88,1.88,0,0,0-2.68,0l-5.62,5.61v-14.92a1.91,1.91,0,0,0-1.9-1.9h-3.81a1.91,1.91,0,0,0-1.9,1.9v14.92l-5.62-5.61a1.85,1.85,0,0,0-1.33-.54,1.88,1.88,0,0,0-1.35.54l-2.7,2.7a2,2,0,0,0,0,2.68l10.76,10.76,2.71,2.71a1.95,1.95,0,0,0,2.67,0l13.47-13.47a2,2,0,0,0,0-2.68Z"/><path class="cls-10" d="M1619,953.76v4.16c0,4.59-11.18,8.33-25,8.33s-25-3.74-25-8.33v-4.16c0-4.58,11.19-8.32,25-8.32S1619,949.18,1619,953.76Zm0,11.12v5.53c0,4.58-11.18,8.32-25,8.32s-25-3.74-25-8.32v-5.53c5.37,3.77,15.18,5.53,25,5.53S1613.64,968.65,1619,964.88Zm0,12.48v5.53c0,4.58-11.18,8.32-25,8.32s-25-3.74-25-8.32v-5.53c5.37,3.78,15.18,5.53,25,5.53S1613.64,981.14,1619,977.36Zm0,12.49v5.52c0,4.58-11.18,8.32-25,8.32s-25-3.74-25-8.32v-5.52c5.37,3.77,15.18,5.52,25,5.52S1613.64,993.62,1619,989.85Z"/></g><path class="cls-18" d="M732.41,1196.14q-74.79-41.94-153.87-24.6-72.21,15.66-65.61,69.51t102.43,67.6q82.89,12.21,152.2-9.08,44.1-13.41,68.16,8.23Q775.27,1220.46,732.41,1196.14Z"/><path class="cls-19" d="M724.14,1564.13q109.25,12.25,237.75-15.26-72.67-62.1-142.62-104.77-63.39-38.85-135.6-27.34-56.37,8.9-52.83,69.69Q634.61,1553.64,724.14,1564.13Z"/><path class="cls-18" d="M971.62,1262.38q54.47-167.52-25.33-156.34-57.62,15.69-80.18,101.82-13.18,50.13,7.68,173.51Q944.74,1345.24,971.62,1262.38Z"/><path class="cls-19" d="M792.78,983.93Q766.2,935.5,727.9,956.8t-23.44,82.88q16.35,61.2,67.14,116.45.07-7.52,23.88-65.64T792.78,983.93Z"/><path class="cls-20" d="M757.5,994.91l.07.11,7.27,55.16,2.57,48.48q.29,7.11.18,15.9l-2,39.27-.66-.94-.24-.25-13.14-16.11-.39-.39-.22-.35-.25-.15-15.13-16q-2.71-2.6-6.29-5.69-2.41-2.23-6.06-5l-12.11-8.43-3.37-1.88-9.58-4.21-.56-.13-.44-.2-3.41-.9-.26-.16-.21,0-3.06-.72-7.91-.89-13.13,3.37q11.31,1.37,25.86,7l.45.2.9.32,5.23,2.3,1,.64.63.24,2.93,1.67.58.43.61.34q3.4,2.17,5.16,3.47l11,9q3.08,2.78,5.83,5.58L744,1141.8l.14.23,12.89,16.35.23.25,11.58,16.93-.09,0,14.78,23.26a24.45,24.45,0,0,0,1.54,2.62l17.77,33.45,8.44,17.75.43.69,11.67,29-1.48-2-6.66-7-.14-.23-.24-.25-1.45-1.32c-.53-.52-1.81-1.73-3.84-3.65A137,137,0,0,0,791,1253.49l-11-6.6Q774.69,1244,768,1241q-6.21-2.73-12.81-5.07l-13.39-4.23a227,227,0,0,0-28-5.72l-15.07-1.69-35.63-.85-42.19,3.76-1.43.25-.7,0L610,1229q-8.49,1.53-18.9,3.77l-27.11,7,0,.3.21,0,55.26-6.46,26.05-1.7q5.34-.21,12.8-.31l26.79.54a271.45,271.45,0,0,1,27.29,3l3.85.71h.39l19.25,4.34a11.47,11.47,0,0,1,1.64.49,10.68,10.68,0,0,1,1.65.48,10.49,10.49,0,0,1,1.56.47l9.56,3,13.57,5.55q4.44,1.93,11.22,5.58l3.38,1.87.58.43,6.32,3.94a149.66,149.66,0,0,1,17.42,13.31l4.87,4.67.26.16,3.47,3.55,13.7,16.64,2.26,3.28.26.55L837.4,1319l11.19,29.36,11.73,39.57q2.43,8.79,3.46,13.15l10,41.91,13.14,74.26.14,1.89-19.6-10.29q-10.2-4.86-21.64-9.51L811.23,1487a9.27,9.27,0,0,1-1.46-.44l-31.23-7.46-25.35-3.33-14.32-.73-.6.06-2.91-.1-.61,0q-10.18,0-16.67.58-7.7.63-12.86,1.37l-11,1.82-.18,0v.4l.21,0,11.1-1.4q6.61-.69,12.74-.92,9.06-.21,16.64,0l28.79,2.86,1.3.31c3.58.58,7.25,1.25,11,2l21.18,5.28a8,8,0,0,0,1.46.44l11.47,3.68q7.61,2.58,11.38,4.06,5.85,2.16,11.2,4.4l11,4.84q8.34,3.63,21,10.14l19.17,10.48c1.33.76,2.73,1.58,4.22,2.46l7.93,87.24.84,19.28,18.2-.8-4.63-62.18-4.07-32.18,31.75,21.47,5.51-8-38.58-24.06-1.2-9.49-12.41-66.55-15.32-64.21,4.91-20.87.06-.67L891.55,1311l6.58-27.91,22.32-75.21.22-.54.11-.46,13.12-34.5.14-.17-.35-.18,0,.19-14.88,34.48-.11.46-21.79,61.73-11.38,40-.24.63L872.16,1365l-.08.77-1.8,8.48-11.51-36.78-15.08-40.26-21.61-48.75-.21-.34-9.1-18.3-34-57.85-.23-.25-2.5-3.52-2.26-74-5.18-44.49-10.73-55Z"/><path class="cls-18" d="M542.41,1030.29q-30.94,11.65-11.64,47.77,24.09,45.12,123.06,19.49,31.23-8.13,57.45,3.35-36.53-30.63-72.88-48Q582,1017.48,542.41,1030.29Z"/><path class="cls-21" d="M542.41,1030.29q-30.94,11.65-11.64,47.77,24.09,45.12,123.06,19.49,31.23-8.13,57.45,3.35-36.53-30.63-72.88-48Q582,1017.48,542.41,1030.29Z"/><path class="cls-20" d="M589.73,1050.93l-.33.12-.3,0-4,1-14.61,5.07L562,1061l-.12.07.12.32.21,0,11.34-4.08.44-.2,15.57-3.77.32-.12,4.48-.7.69,0,6.94-.81,16.11-.22a129.11,129.11,0,0,1,12.94,1.19q5.06.61,10.54,1.8l-3.17-1.53q-4.5-2.82-8.92-5.33c-4.31-.23-8.07-.3-11.31-.22l-16.46,1.31-.41.1-6.62,1.08-.74.22Z"/><path class="cls-22" d="M937.9,1560.54l5.43-7.89q9.24-1.79,18.56-3.78-31.23-26.7-62-49.79l-8.7-46.64-15.32-64.21,2.14-9.08q67.51-36.42,93.58-116.77,54.47-167.52-25.33-156.34-57.62,15.69-80.18,101.82-12.47,47.37,5.49,160.17l-1.32,6.25-11.51-36.78-15.08-40.26-21.61-48.75-.21-.34-9.1-18.3-34-57.85-.23-.25-2.5-3.52-.78-25.49q5.68-16.62,20.27-52.25,23.85-58-2.7-106.56T727.9,956.8q-38.22,21.33-23.44,82.88,15.39,57.63,61.33,110l-.21,4.17-.66-.94-.24-.25-13.14-16.11-.39-.39-.22-.35-.25-.15-15.13-16q-2.71-2.6-6.29-5.69-2.41-2.23-6.06-5l-12.11-8.43-1-.57q-34.37-28.62-68.57-45.49l.07,0-3.17-1.53c-1.49-.94-3-1.84-4.45-2.73l-.07,0q-53.5-32.13-91.47-19.84-30.94,11.65-11.64,47.77,24.09,45.12,123.06,19.49a106.1,106.1,0,0,1,15.85-2.89l-.52.14q11.31,1.37,25.86,7l.45.2.9.32,5.23,2.3,1,.64.63.24,2.93,1.67.58.43.61.34q3.4,2.17,5.16,3.47l11,9q3.08,2.78,5.83,5.58L744,1141.8l.14.23,12.89,16.35.23.25,11.58,16.93-.09,0,14.78,23.26a24.45,24.45,0,0,0,1.54,2.62l17.77,33.45,8.44,17.75.43.69,11.67,29-1.48-2-6.66-7-.14-.23-.24-.25-1.45-1.32c-.53-.52-1.81-1.73-3.84-3.65q-4.67-4.23-9.59-8-38-46.86-67.61-63.67-74.79-41.94-153.87-24.6-72.21,15.66-65.61,69.51t102.43,67.6q82.89,12.21,152.2-9.08,35.31-10.74,57.77,1l2.08,3,.26.55L837.4,1319l11.19,29.36,11.73,39.57q2.43,8.79,3.46,13.15l10,41.91,7.51,42.42q-31.27-22.51-62-41.27-63.39-38.85-135.6-27.34-56.37,8.9-52.83,69.69,3.76,67.18,93.3,77.68,78.43,8.8,166.78-2.9l4.89,53.72.84,19.28,18.2-.8-4.63-62.18-1.59-12.56q10.57-1.64,21.3-3.54Z"/><use width="817.9" height="492.77" transform="translate(441.94 1445.5)" xlink:href="#shadow-elements"/><use width="820" height="582" transform="translate(782.89 1493.98)" xlink:href="#Server"/><use width="820" height="582" transform="translate(782.89 1351.85)" xlink:href="#Server"/><use width="820" height="582" transform="translate(782.89 1209.73)" xlink:href="#Server"/></svg>