<svg xmlns="http://www.w3.org/2000/svg" xmlns:xlink="http://www.w3.org/1999/xlink" viewBox="0 0 2500 2500"><defs><filter id="ba63f24e-472b-45be-a6d6-13481bddede7" name="AI_DesenfoqueGaussiano_4"><feGaussianBlur stdDeviation="4"/></filter><linearGradient id="e6c77944-da87-46b8-b48f-c7e83a7de747" x1="21.86" y1="32.92" x2="240.46" y2="32.92" gradientUnits="userSpaceOnUse"><stop offset="0" stop-color="#7e9cbd" stop-opacity="0.5"/><stop offset="0.48" stop-color="#7e9cbd" stop-opacity="0.1"/><stop offset="1" stop-color="#7e9cbd" stop-opacity="0"/></linearGradient><linearGradient id="b08fe408-43f9-4211-b9d6-e206d2f6a742" x1="1816.58" y1="1110.72" x2="1489.27" y2="1208.78" gradientUnits="userSpaceOnUse"><stop offset="0" stop-color="#c2ebe8" stop-opacity="0.1"/><stop offset="0.05" stop-color="#8fe0d9" stop-opacity="0.1"/><stop offset="0.15" stop-color="#6ad8cf" stop-opacity="0.1"/><stop offset="0.87" stop-color="#43a39b" stop-opacity="0.3"/></linearGradient><linearGradient id="a3f0cc4c-a788-40ab-854d-43c9f8e260b8" x1="1714.05" y1="822.74" x2="1091.22" y2="1281.24" gradientUnits="userSpaceOnUse"><stop offset="0" stop-color="#c2ebe8" stop-opacity="0"/><stop offset="0.03" stop-color="#a7e5e0" stop-opacity="0.03"/><stop offset="0.12" stop-color="#79dbd3" stop-opacity="0.08"/><stop offset="0.21" stop-color="#6ad8cf" stop-opacity="0.1"/><stop offset="0.87" stop-color="#045989" stop-opacity="0.4"/></linearGradient><radialGradient id="fd3cefb5-ff1a-434a-a0f0-6c79f13d1f08" cx="1044.97" cy="1564.31" r="766.78" gradientTransform="matrix(-0.78, 0.43, 0.62, 0.35, 1239.14, 817.66)" gradientUnits="userSpaceOnUse"><stop offset="0" stop-color="#90aac1" stop-opacity="0.2"/><stop offset="0.33" stop-color="#90aac1" stop-opacity="0.16"/><stop offset="0.84" stop-color="#90aac1" stop-opacity="0.04"/><stop offset="1" stop-color="#90aac1" stop-opacity="0"/></radialGradient><linearGradient id="a5b6139e-0da7-4455-8b3e-47b5adea71d5" x1="1659.71" y1="1658.41" x2="961.79" y2="2382.82" gradientUnits="userSpaceOnUse"><stop offset="0.15" stop-color="#d4ecf6" stop-opacity="0"/><stop offset="0.59" stop-color="#718999" stop-opacity="0.25"/><stop offset="0.67" stop-color="#5d7586" stop-opacity="0.3"/></linearGradient><linearGradient id="b575d797-bc19-4048-9bdd-bd3c48474ba2" x1="1063.78" y1="399.3" x2="1475.32" y2="2061.23" gradientUnits="userSpaceOnUse"><stop offset="0.33" stop-color="#d4ecf6"/><stop offset="0.37" stop-color="#c6e0f5"/><stop offset="0.41" stop-color="#bbd7f4"/><stop offset="0.46" stop-color="#b7d4f4"/><stop offset="1" stop-color="#b7d4f4" stop-opacity="0.9"/></linearGradient><linearGradient id="a00d9e85-dcc7-4b23-b664-c99492c98c29" x1="667.99" y1="1255.76" x2="1662.46" y2="1396.49" gradientUnits="userSpaceOnUse"><stop offset="0" stop-color="#fafbfc"/><stop offset="0.55" stop-color="#f5f8fa"/><stop offset="0.99" stop-color="#e5f4fa"/><stop offset="0.99" stop-color="#d4ecf6" stop-opacity="0.9"/></linearGradient><linearGradient id="a94b0ba8-e38e-4f0d-a325-a0de04791c53" x1="-7365.73" y1="-7586.6" x2="-7321.71" y2="-7542.92" gradientTransform="matrix(0.71, 0.41, 0, 0.81, 6038.65, 9812.04)" gradientUnits="userSpaceOnUse"><stop offset="0" stop-color="#00b280"/><stop offset="1" stop-color="#1da8e0"/></linearGradient><linearGradient id="b2370679-c31a-41b3-90e9-2d1b04d3f76d" x1="-7208.4" y1="-7194.54" x2="-7208.4" y2="-7277.06" gradientTransform="matrix(0.71, 0.41, 0, 0.81, 6038.65, 9812.04)" gradientUnits="userSpaceOnUse"><stop offset="0" stop-color="#ff73c3" stop-opacity="0.05"/><stop offset="0.98" stop-color="#fc51d2" stop-opacity="0.3"/></linearGradient><radialGradient id="ba7219fe-75e4-4b03-a556-e10df9cdbff7" cx="868.98" cy="2274.7" r="100.17" gradientTransform="translate(-579.33 125.46) scale(1.4 0.81)" gradientUnits="userSpaceOnUse"><stop offset="0" stop-color="#7e9cbd" stop-opacity="0.3"/><stop offset="1" stop-color="#7e9cbd" stop-opacity="0"/></radialGradient><linearGradient id="b08fca89-909f-49ef-b02d-32af5ed8088b" x1="431.66" y1="1759.71" x2="1506.36" y2="1154.11" gradientUnits="userSpaceOnUse"><stop offset="0" stop-color="#01171a" stop-opacity="0"/><stop offset="1" stop-color="#01171a"/></linearGradient><linearGradient id="a5337038-75b9-4b11-81e3-4192294a8318" x1="709.01" y1="1425" x2="624.2" y2="1179.84" xlink:href="#b08fca89-909f-49ef-b02d-32af5ed8088b"/><linearGradient id="b32dc739-a634-4f84-aa4a-6218f5d9d29c" x1="658.19" y1="1298.84" x2="281.85" y2="884.51" gradientUnits="userSpaceOnUse"><stop offset="0.09" stop-color="#fff" stop-opacity="0"/><stop offset="1" stop-color="#fff"/></linearGradient><linearGradient id="bab9b495-b2d5-460f-8500-2c50daaf3cc2" x1="543.88" y1="1518.77" x2="1468.83" y2="1498.23" gradientUnits="userSpaceOnUse"><stop offset="0.09" stop-color="#01171a" stop-opacity="0"/><stop offset="1" stop-color="#01171a"/></linearGradient><linearGradient id="bba6d490-5993-47ce-abf9-55e89c67e039" x1="883.85" y1="1052.52" x2="888.85" y2="983.61" xlink:href="#a5b6139e-0da7-4455-8b3e-47b5adea71d5"/><symbol id="eccf1654-49c4-4212-9a6a-2925b43b1a32" data-name="shadowsvglight2OK" viewBox="0 0 262 66"><g filter="url(#ba63f24e-472b-45be-a6d6-13481bddede7)"><path d="M240.46,32.92c.09,15.15-21,27.43-47.19,27.42H69.36A81.87,81.87,0,0,1,61,59.92c-.78-.08-1.55-.18-2.31-.28s-1.52-.21-2.27-.34-1.49-.25-2.23-.4-1.46-.29-2.17-.46c-1.35-.3-2.66-.65-4-1L46.78,57l-2-.67c-.65-.22-1.29-.46-1.92-.71-1.26-.49-2.48-1-3.65-1.58-.59-.28-1.16-.56-1.73-.86s-1.11-.6-1.65-.91-1.06-.63-1.57-1-1-.66-1.49-1A33,33,0,0,1,30,48.25c-.43-.36-.84-.73-1.24-1.11S28,46.38,27.65,46l-.53-.58a23.09,23.09,0,0,1-1.78-2.25l-.55-.81-.39-.63c-.25-.43-.48-.86-.7-1.29s-.41-.87-.59-1.32-.34-.89-.48-1.34c-.07-.22-.14-.45-.2-.67-.12-.46-.22-.92-.31-1.38a17.35,17.35,0,0,1-.26-2.8c-.08-15.15,21-27.43,47.2-27.43H194.18c1.63,0,3.23.1,4.81.21,1.19.09,2.36.2,3.52.34s2.29.3,3.42.48q2.64.43,5.16,1l1.37.34c1.4.37,2.76.77,4.09,1.21q1,.33,1.95.69a53,53,0,0,1,8,3.71,35.91,35.91,0,0,1,8.18,6.32c.37.39.72.79,1.06,1.19s.65.8,1,1.21a20.28,20.28,0,0,1,1.94,3.17,17.58,17.58,0,0,1,1.44,4,15.25,15.25,0,0,1,.38,2.78C240.45,32.45,240.46,32.68,240.46,32.92Z" fill="url(#e6c77944-da87-46b8-b48f-c7e83a7de747)"/></g></symbol></defs><g id="ae6fdaf8-68f1-4b2c-a5c2-5994a970002c" data-name="plant"><path d="M1396.94,699.07q11.54-429.14-224.31-465.42Q1138.6,475.42,1396.94,699.07Z" fill="#c2ebe8"/><path d="M1546.05,493.56Q1398.17,534,1426.45,728.84,1552.3,554.54,1546.05,493.56Z" fill="#91e2db"/><path d="M1419.14,813.53l12.83-.9q-12.6-180.18,90.85-292.44Q1407.26,617.65,1419.14,813.53Z" fill="#6ad8cf"/><path d="M1202.59,285.68l-.06-.06Q1465,692.8,1447.43,1250l23.1.71Q1488.31,685.82,1202.59,285.68Z" fill="#6ad8cf"/><path d="M1635.36,459.11q-463.29,609.13-235.73,1482.43Q2021.08,1103.7,1635.36,459.11Z" fill="#c2ebe8"/><path d="M1387.56,1954.84l25.36,1.08q148.89-682.5,215.57-1293.81Q1517,1326.55,1387.56,1954.84Z" fill="#6ad8cf"/><path d="M1635.36,459.11q-463.29,609.13-235.73,1482.43Q2021.08,1103.7,1635.36,459.11Z" fill="url(#b08fe408-43f9-4211-b9d6-e206d2f6a742)"/><path d="M1360.05,1935.32h.06q563-30.33,601.76-762.61Q1536.38,1378.79,1360.05,1935.32Z" fill="#91e2db"/><path d="M1881.29,1306.16q-196.21,372.58-547.13,579v25.62q360.69-212.1,547.19-604.62Z" fill="#6ad8cf"/><path d="M1961.87,1172.71a1017.18,1017.18,0,0,0-234.29,156.48q146-471.91-92.22-870.08-126.84,166.76-201.89,353.31c-.69-3.2-1.38-6.42-2.09-9.61a490.28,490.28,0,0,1,2.47-84.28q118.26-165.81,112.2-225-138.37,37.89-122.5,210.9a438.7,438.7,0,0,0-4.8,46.1q-9.8-37.6-21.38-74.22,4.76-407.36-224.74-442.69Q1139.51,469,1383.34,687.09A1636.37,1636.37,0,0,1,1420.09,847q-167.53,449-40.88,1010.58-22.2,14.16-45,27.61v25.62q21.67-12.75,42.72-26.16-8.69,25-16.83,50.7h.06q16.19-.87,31.94-2.33-2.23,10.92-4.49,21.85l25.36,1.08q2.82-12.93,5.6-25.82Q1925.21,1866,1961.87,1172.71Z" fill="url(#a3f0cc4c-a788-40ab-854d-43c9f8e260b8)"/></g><g id="ab946132-8025-4195-898b-e0fe1d553ca9" data-name="Screen"><ellipse id="b033c8e2-919f-4f59-8af6-084f3fd7df2f" data-name="shadow BG" cx="1401.48" cy="1813.67" rx="898.79" ry="499.58" transform="translate(-11.38 8.85) rotate(-0.36)" fill="url(#fd3cefb5-ff1a-434a-a0f0-6c79f13d1f08)"/><polygon id="ebd6e6a8-db38-4f9a-a9ad-ef290d78a8a7" data-name="&lt;shadow&gt;" points="1470.23 2109.98 2078.28 2109.98 1334.16 1673.45 766.05 1699.95 1470.23 2109.98" fill="url(#a5b6139e-0da7-4455-8b3e-47b5adea71d5)"/><g id="a58b038f-9ba1-4809-9762-9cb4b5c702b5" data-name="Screen"><g id="bcb2e827-ceb8-4d19-ad64-b9579a6bb0e0" data-name="screen"><g id="ffe0345a-2cbe-4820-b5c6-0baa4ca561ca" data-name="ShadowBottom" filter="url(#ba63f24e-472b-45be-a6d6-13481bddede7)"><path d="M1490.44,2109.94c-7.14,4.13-18.84,4.13-26,0L764.21,1705.6c-7.14-4.13-7.14-10.88,0-15l43.08-24.35c7.14-4.12,18.83-4.12,26,0l700.24,404.35c7.15,4.12,7.15,10.87,0,15Z" fill="#90aac1" opacity="0.2"/></g><path d="M808.64,499.94c2-1.17,4.78-1,7.84.77l704.18,410c6.09,3.51,11,12,11,19l-.4,1145.61c0,3.47-1.24,5.92-3.22,7.07l-46.77,26.47S760.69,527.07,758.69,528.24Z" fill="url(#b575d797-bc19-4048-9bdd-bd3c48474ba2)"/><path d="M1475.17,2109.49a8.19,8.19,0,0,1-3.94-1.24l-704.17-410c-5.44-3.14-10-11-10-17.29l.41-1145.62c0-3.64,1.55-5.81,4.11-5.81a8.19,8.19,0,0,1,3.95,1.24l704.18,410c5.43,3.14,10,11.06,10,17.3l-.41,1145.61c0,3.64-1.54,5.81-4.11,5.81Z" fill="url(#a00d9e85-dcc7-4b23-b664-c99492c98c29)"/><path d="M761.58,531.5a6.24,6.24,0,0,1,2.94,1l704.19,410c4.89,2.82,9,9.94,9,15.56l-.41,1145.6c0,1.75-.37,3.82-2.11,3.82a6.33,6.33,0,0,1-2.93-1l-704.19-410c-4.88-2.83-9-10-9-15.56l.41-1145.61c0-1.74.38-3.82,2.11-3.82m0-4c-3.61,0-6.09,2.86-6.11,7.81l-.41,1145.61c0,7,4.9,15.51,11,19l704.18,410a10,10,0,0,0,4.94,1.51c3.61,0,6.1-2.85,6.11-7.81l.41-1145.61c0-7-4.9-15.51-11-19L766.53,529a10,10,0,0,0-4.95-1.51Z" fill="#fafbfc"/><path d="M761.58,529.5a8.19,8.19,0,0,1,3.95,1.24l704.18,410c5.43,3.13,10,11.05,10,17.29l-.41,1145.61c0,3.64-1.54,5.81-4.11,5.81a8.21,8.21,0,0,1-3.93-1.23l-704.19-410c-5.43-3.14-10-11.06-10-17.29l.41-1145.61c0-1.37.31-5.82,4.11-5.82m0-2c-3.61,0-6.09,2.86-6.11,7.81l-.41,1145.61c0,7,4.9,15.51,11,19l704.18,410a10,10,0,0,0,4.94,1.51c3.61,0,6.1-2.85,6.11-7.81l.41-1145.61c0-7-4.9-15.51-11-19L766.53,529a10,10,0,0,0-4.95-1.51Z" fill="#fff"/></g><g id="a903782d-473a-44f8-8276-b4eef1b74818" data-name="&lt;dashboard&gt;"><path d="M1082.37,1110.83l-276-159.36a15.66,15.66,0,0,1-7.1-12.24V768.87c0-4.5,3.18-6.31,7.1-4l276,159.36a15.66,15.66,0,0,1,7.1,12.24v170.36C1089.47,1111.29,1086.29,1113.1,1082.37,1110.83Z" fill="#10141b" fill-opacity="0.05"/><path d="M945.71,1137.89l-127.43-73.57c-10.51-6.07-19-20.77-19-32.83h0c0-12.06,8.53-16.91,19-10.84l127.43,73.57c10.51,6.07,19,20.77,19,32.83h0C964.75,1139.11,956.22,1144,945.71,1137.89Z" fill="#0088a1" fill-opacity="0.5"/><path d="M1062.42,1256.2,805,1107.57a11,11,0,0,1-5-8.56h0c0-3.15,2.23-4.42,5-2.83l257.43,148.62a11,11,0,0,1,5,8.57h0C1067.39,1256.52,1065.16,1257.78,1062.42,1256.2Z" fill="#d0d8dc"/><path d="M995.58,1260.46,805,1150.42a11,11,0,0,1-5-8.57h0c0-3.14,2.23-4.41,5-2.83l190.59,110a10.94,10.94,0,0,1,5,8.57h0C1000.55,1260.78,998.33,1262,995.58,1260.46Z" fill="#d0d8dc"/><path d="M1062.42,1341.89,805,1193.27a11,11,0,0,1-5-8.57h0c0-3.15,2.23-4.41,5-2.83l257.43,148.63a11,11,0,0,1,5,8.57h0C1067.39,1342.21,1065.16,1343.48,1062.42,1341.89Z" fill="#d0d8dc"/><path d="M919,1301.93l-114-65.81a11,11,0,0,1-5-8.57h0c0-3.15,2.23-4.42,5-2.83l114,65.81a11,11,0,0,1,5,8.57h0C924,1302.25,921.73,1303.52,919,1301.93Z" fill="#d0d8dc"/><path d="M916.86,1716.59l-110.52-63.81a15.63,15.63,0,0,1-7.1-12.24V1328.79c0-4.5,3.18-6.31,7.1-4l110.52,63.81a15.66,15.66,0,0,1,7.1,12.24v311.76C924,1717.05,920.78,1718.86,916.86,1716.59Z" fill="#fff"/><g opacity="0.01"><path d="M803.15,1323.77a6.5,6.5,0,0,1,3.19,1l110.52,63.81a15.66,15.66,0,0,1,7.1,12.24v311.76c0,3.18-1.59,5-3.91,5a6.52,6.52,0,0,1-3.19-1l-110.52-63.81a15.63,15.63,0,0,1-7.1-12.24V1328.79c0-3.19,1.59-5,3.91-5m0-1h0c-3,0-4.91,2.36-4.91,6v311.75a16.53,16.53,0,0,0,7.6,13.11l110.52,63.81a7.48,7.48,0,0,0,3.69,1.11c3,0,4.91-2.36,4.91-6V1400.79a16.51,16.51,0,0,0-7.6-13.1l-110.52-63.81a7.41,7.41,0,0,0-3.69-1.11Z" fill="#66717b"/></g><g opacity="0.01"><path d="M803.15,1323.77a6.5,6.5,0,0,1,3.19,1l110.52,63.81a15.66,15.66,0,0,1,7.1,12.24v311.76c0,3.18-1.59,5-3.91,5a6.52,6.52,0,0,1-3.19-1l-110.52-63.81a15.63,15.63,0,0,1-7.1-12.24V1328.79c0-3.19,1.59-5,3.91-5m0-2h0c-2.94,0-5.91,2.17-5.91,7v311.75a17.63,17.63,0,0,0,8.1,14l110.52,63.8a8.37,8.37,0,0,0,4.19,1.25c2.94,0,5.91-2.17,5.91-7V1400.79a17.61,17.61,0,0,0-8.1-14L807.34,1323a8.46,8.46,0,0,0-4.19-1.24Z" fill="#66717b"/></g><g opacity="0.01"><path d="M803.15,1323.77a6.5,6.5,0,0,1,3.19,1l110.52,63.81a15.66,15.66,0,0,1,7.1,12.24v311.76c0,3.18-1.59,5-3.91,5a6.52,6.52,0,0,1-3.19-1l-110.52-63.81a15.63,15.63,0,0,1-7.1-12.24V1328.79c0-3.19,1.59-5,3.91-5m0-3h0c-4.07,0-6.91,3.3-6.91,8v311.75a18.7,18.7,0,0,0,8.6,14.84l110.52,63.81a9.42,9.42,0,0,0,4.69,1.38c4.07,0,6.91-3.3,6.91-8V1400.79c0-5.53-3.78-12-8.6-14.84l-110.52-63.8a9.32,9.32,0,0,0-4.69-1.38Z" fill="#66717b"/></g><g opacity="0.01"><path d="M803.15,1323.77a6.5,6.5,0,0,1,3.19,1l110.52,63.81a15.66,15.66,0,0,1,7.1,12.24v311.76c0,3.18-1.59,5-3.91,5a6.52,6.52,0,0,1-3.19-1l-110.52-63.81a15.63,15.63,0,0,1-7.1-12.24V1328.79c0-3.19,1.59-5,3.91-5m0-4h0c-4.66,0-7.91,3.71-7.91,9v311.75a19.51,19.51,0,0,0,9.1,15.71l110.52,63.81a10.39,10.39,0,0,0,5.19,1.51c4.66,0,7.91-3.71,7.91-9V1400.79a19.49,19.49,0,0,0-9.1-15.7l-110.52-63.81a10.39,10.39,0,0,0-5.19-1.51Z" fill="#66717b"/></g><g opacity="0.01"><path d="M803.15,1323.77a6.5,6.5,0,0,1,3.19,1l110.52,63.81a15.66,15.66,0,0,1,7.1,12.24v311.76c0,3.18-1.59,5-3.91,5a6.52,6.52,0,0,1-3.19-1l-110.52-63.81a15.63,15.63,0,0,1-7.1-12.24V1328.79c0-3.19,1.59-5,3.91-5m0-5h0c-5.25,0-8.91,4.12-8.91,10v311.75a20.58,20.58,0,0,0,9.6,16.57l110.52,63.81a11.36,11.36,0,0,0,5.69,1.65c5.24,0,8.91-4.12,8.91-10V1400.79a20.59,20.59,0,0,0-9.6-16.57l-110.52-63.81a11.37,11.37,0,0,0-5.69-1.64Z" fill="#66717b"/></g><g opacity="0.5"><path d="M866.11,1489.46l-33.92-19.58a2.36,2.36,0,0,1-1.06-1.83c0-.68.48-1,1.06-.61L866.11,1487a2.35,2.35,0,0,1,1.07,1.84C867.18,1489.53,866.7,1489.8,866.11,1489.46Z" fill="#66717b"/><path d="M866.11,1562.9l-33.92-19.58a2.36,2.36,0,0,1-1.06-1.83c0-.68.48-1,1.06-.61l33.92,19.58a2.35,2.35,0,0,1,1.07,1.84C867.18,1563,866.7,1563.24,866.11,1562.9Z" fill="#66717b"/><path d="M866.11,1636.35l-33.92-19.59a2.36,2.36,0,0,1-1.06-1.83c0-.68.48-1,1.06-.61l33.92,19.58a2.36,2.36,0,0,1,1.07,1.84C867.18,1636.41,866.7,1636.69,866.11,1636.35Z" fill="#66717b"/></g><g opacity="0.5"><ellipse cx="889.1" cy="1501.51" rx="5.78" ry="10.01" transform="translate(-636.99 655.3) rotate(-30.36)" fill="#66717b"/><ellipse cx="889.1" cy="1574.95" rx="5.78" ry="10.01" transform="translate(-674.11 665.37) rotate(-30.36)" fill="#66717b"/><ellipse cx="889.1" cy="1648.39" rx="5.78" ry="10.01" transform="translate(-711.23 675.44) rotate(-30.36)" fill="#66717b"/></g><path d="M895,1424.56l-64.75-37.39a5.45,5.45,0,0,1-2.49-4.28c0-1.58,1.11-2.21,2.49-1.42L895,1418.86a5.46,5.46,0,0,1,2.49,4.29C897.44,1424.72,896.33,1425.35,895,1424.56Z" fill="#66717b" opacity="0.51"/><path d="M1082.37,1634.6l-110.52-63.8a15.66,15.66,0,0,1-7.1-12.24V1424.34c0-4.49,3.18-6.3,7.1-4l110.52,63.81a15.66,15.66,0,0,1,7.1,12.24v134.21C1089.47,1635.06,1086.29,1636.87,1082.37,1634.6Z" fill="#fff"/><g opacity="0.01"><path d="M968.66,1419.33a6.47,6.47,0,0,1,3.19,1l110.52,63.81a15.66,15.66,0,0,1,7.1,12.24v134.21c0,3.18-1.59,5-3.91,5a6.41,6.41,0,0,1-3.19-1l-110.52-63.8a15.66,15.66,0,0,1-7.1-12.24V1424.34c0-3.18,1.59-5,3.91-5m0-1h0c-3,0-4.91,2.36-4.91,6v134.22a16.52,16.52,0,0,0,7.6,13.1l110.52,63.81a7.41,7.41,0,0,0,3.69,1.11c3,0,4.91-2.36,4.91-6V1496.35a16.51,16.51,0,0,0-7.6-13.1l-110.52-63.81a7.35,7.35,0,0,0-3.69-1.11Z" fill="#66717b"/></g><g opacity="0.01"><path d="M968.66,1419.33a6.47,6.47,0,0,1,3.19,1l110.52,63.81a15.66,15.66,0,0,1,7.1,12.24v134.21c0,3.18-1.59,5-3.91,5a6.41,6.41,0,0,1-3.19-1l-110.52-63.8a15.66,15.66,0,0,1-7.1-12.24V1424.34c0-3.18,1.59-5,3.91-5m0-2h0c-2.94,0-5.91,2.17-5.91,7v134.22a17.61,17.61,0,0,0,8.1,14l110.52,63.81a8.46,8.46,0,0,0,4.19,1.24c2.94,0,5.91-2.17,5.91-7V1496.35a17.61,17.61,0,0,0-8.1-14l-110.52-63.81a8.46,8.46,0,0,0-4.19-1.24Z" fill="#66717b"/></g><g opacity="0.01"><path d="M968.66,1419.33a6.47,6.47,0,0,1,3.19,1l110.52,63.81a15.66,15.66,0,0,1,7.1,12.24v134.21c0,3.18-1.59,5-3.91,5a6.41,6.41,0,0,1-3.19-1l-110.52-63.8a15.66,15.66,0,0,1-7.1-12.24V1424.34c0-3.18,1.59-5,3.91-5m0-3h0c-4.07,0-6.91,3.29-6.91,8v134.22a18.69,18.69,0,0,0,8.6,14.83l110.52,63.81a9.32,9.32,0,0,0,4.69,1.38c4.07,0,6.91-3.3,6.91-8V1496.35c0-5.53-3.78-12-8.6-14.84l-110.52-63.8a9.32,9.32,0,0,0-4.69-1.38Z" fill="#66717b"/></g><g opacity="0.01"><path d="M968.66,1419.33a6.47,6.47,0,0,1,3.19,1l110.52,63.81a15.66,15.66,0,0,1,7.1,12.24v134.21c0,3.18-1.59,5-3.91,5a6.41,6.41,0,0,1-3.19-1l-110.52-63.8a15.66,15.66,0,0,1-7.1-12.24V1424.34c0-3.18,1.59-5,3.91-5m0-4h0c-4.66,0-7.91,3.71-7.91,9v134.22a19.49,19.49,0,0,0,9.1,15.7l110.52,63.81a10.39,10.39,0,0,0,5.19,1.51c4.66,0,7.91-3.71,7.91-9V1496.35a19.48,19.48,0,0,0-9.1-15.7l-110.52-63.81a10.39,10.39,0,0,0-5.19-1.51Z" fill="#66717b"/></g><g opacity="0.01"><path d="M968.66,1419.33a6.47,6.47,0,0,1,3.19,1l110.52,63.81a15.66,15.66,0,0,1,7.1,12.24v134.21c0,3.18-1.59,5-3.91,5a6.41,6.41,0,0,1-3.19-1l-110.52-63.8a15.66,15.66,0,0,1-7.1-12.24V1424.34c0-3.18,1.59-5,3.91-5m0-5h0c-5.24,0-8.91,4.12-8.91,10v134.22a20.59,20.59,0,0,0,9.6,16.57l110.52,63.8a11.28,11.28,0,0,0,5.69,1.65c5.25,0,8.91-4.12,8.91-10V1496.35a20.59,20.59,0,0,0-9.6-16.57L974.35,1416a11.34,11.34,0,0,0-5.69-1.64Z" fill="#66717b"/></g><g opacity="0.3"><path d="M1082.37,1819.11,971.85,1755.3a15.63,15.63,0,0,1-7.1-12.24V1608.85c0-4.5,3.18-6.31,7.1-4l110.52,63.81a15.63,15.63,0,0,1,7.1,12.24v134.21C1089.47,1819.56,1086.29,1821.37,1082.37,1819.11Z" fill="#66717b"/><g opacity="0.01"><path d="M968.66,1603.83a6.49,6.49,0,0,1,3.19,1l110.52,63.81a15.63,15.63,0,0,1,7.1,12.24v134.21c0,3.18-1.59,5-3.91,5a6.52,6.52,0,0,1-3.19-1L971.85,1755.3a15.63,15.63,0,0,1-7.1-12.24V1608.85c0-3.18,1.59-5,3.91-5m0-2h0c-2.94,0-5.91,2.17-5.91,7v134.21a17.61,17.61,0,0,0,8.1,14l110.52,63.81a8.37,8.37,0,0,0,4.19,1.25c2.94,0,5.91-2.17,5.91-7V1680.86a17.63,17.63,0,0,0-8.1-14l-110.52-63.8a8.37,8.37,0,0,0-4.19-1.25Z" fill="#66717b"/></g><g opacity="0.01"><path d="M968.66,1603.83a6.49,6.49,0,0,1,3.19,1l110.52,63.81a15.63,15.63,0,0,1,7.1,12.24v134.21c0,3.18-1.59,5-3.91,5a6.52,6.52,0,0,1-3.19-1L971.85,1755.3a15.63,15.63,0,0,1-7.1-12.24V1608.85c0-3.18,1.59-5,3.91-5m0-3h0c-4.07,0-6.91,3.3-6.91,8v134.21a18.7,18.7,0,0,0,8.6,14.84l110.52,63.81a9.42,9.42,0,0,0,4.69,1.38c4.07,0,6.91-3.3,6.91-8V1680.86a18.7,18.7,0,0,0-8.6-14.84l-110.52-63.81a9.42,9.42,0,0,0-4.69-1.38Z" fill="#66717b"/></g><g opacity="0.01"><path d="M968.66,1603.83a6.49,6.49,0,0,1,3.19,1l110.52,63.81a15.63,15.63,0,0,1,7.1,12.24v134.21c0,3.18-1.59,5-3.91,5a6.52,6.52,0,0,1-3.19-1L971.85,1755.3a15.63,15.63,0,0,1-7.1-12.24V1608.85c0-3.18,1.59-5,3.91-5m0-4h0c-4.66,0-7.91,3.71-7.91,9v134.21a19.51,19.51,0,0,0,9.1,15.71l110.52,63.8a10.31,10.31,0,0,0,5.19,1.52c4.66,0,7.91-3.71,7.91-9V1680.86a19.51,19.51,0,0,0-9.1-15.71l-110.52-63.81a10.39,10.39,0,0,0-5.19-1.51Z" fill="#66717b"/></g><g opacity="0.01"><path d="M968.66,1603.83a6.49,6.49,0,0,1,3.19,1l110.52,63.81a15.63,15.63,0,0,1,7.1,12.24v134.21c0,3.18-1.59,5-3.91,5a6.52,6.52,0,0,1-3.19-1L971.85,1755.3a15.63,15.63,0,0,1-7.1-12.24V1608.85c0-3.18,1.59-5,3.91-5m0-5h0c-5.24,0-8.91,4.12-8.91,10v134.21a20.58,20.58,0,0,0,9.6,16.57l110.52,63.81a11.38,11.38,0,0,0,5.69,1.65c5.25,0,8.91-4.12,8.91-10V1680.86a20.58,20.58,0,0,0-9.6-16.57l-110.52-63.81a11.36,11.36,0,0,0-5.69-1.65Z" fill="#66717b"/></g></g><path d="M1412.65,2002.84,1137.37,1843.9a15.61,15.61,0,0,1-7.11-12.24V1519.9c0-4.49,3.18-6.3,7.11-4l275.28,158.94a15.63,15.63,0,0,1,7.1,12.24V1998.8C1419.75,2003.29,1416.57,2005.1,1412.65,2002.84Z" fill="#fff"/><g opacity="0.01"><path d="M1134.18,1514.89a6.5,6.5,0,0,1,3.19,1l275.28,158.94a15.63,15.63,0,0,1,7.1,12.24V1998.8c0,3.18-1.59,5-3.91,5a6.52,6.52,0,0,1-3.19-1L1137.37,1843.9a15.61,15.61,0,0,1-7.11-12.24V1519.9c0-3.18,1.6-5,3.92-5m0-1h0c-3,0-4.92,2.36-4.92,6v311.76a16.51,16.51,0,0,0,7.61,13.11l275.28,158.93a7.43,7.43,0,0,0,3.69,1.12c3,0,4.91-2.37,4.91-6V1687a16.53,16.53,0,0,0-7.6-13.11L1137.87,1515a7.41,7.41,0,0,0-3.69-1.11Z" fill="#66717b"/></g><g opacity="0.01"><path d="M1134.18,1514.89a6.5,6.5,0,0,1,3.19,1l275.28,158.94a15.63,15.63,0,0,1,7.1,12.24V1998.8c0,3.18-1.59,5-3.91,5a6.5,6.5,0,0,1-3.19-1L1137.37,1843.9a15.61,15.61,0,0,1-7.11-12.24V1519.9c0-3.18,1.6-5,3.92-5m0-2h0c-3,0-5.92,2.17-5.92,7v311.76a17.6,17.6,0,0,0,8.11,14l275.28,158.94a8.35,8.35,0,0,0,4.19,1.24c2.94,0,5.91-2.16,5.91-7V1687a17.61,17.61,0,0,0-8.1-14l-275.28-158.94a8.46,8.46,0,0,0-4.19-1.24Z" fill="#66717b"/></g><g opacity="0.01"><path d="M1134.18,1514.89a6.5,6.5,0,0,1,3.19,1l275.28,158.94a15.63,15.63,0,0,1,7.1,12.24V1998.8c0,3.18-1.59,5-3.91,5a6.5,6.5,0,0,1-3.19-1L1137.37,1843.9a15.61,15.61,0,0,1-7.11-12.24V1519.9c0-3.18,1.6-5,3.92-5m0-3h0c-4.07,0-6.92,3.29-6.92,8v311.76a18.68,18.68,0,0,0,8.61,14.84l275.28,158.94a9.43,9.43,0,0,0,4.69,1.37c4.07,0,6.91-3.29,6.91-8V1687c0-5.54-3.78-12-8.6-14.84l-275.28-158.94a9.46,9.46,0,0,0-4.69-1.37Z" fill="#66717b"/></g><g opacity="0.01"><path d="M1134.18,1514.89a6.5,6.5,0,0,1,3.19,1l275.28,158.94a15.63,15.63,0,0,1,7.1,12.24V1998.8c0,3.18-1.59,5-3.91,5a6.5,6.5,0,0,1-3.19-1L1137.37,1843.9a15.61,15.61,0,0,1-7.11-12.24V1519.9c0-3.18,1.6-5,3.92-5m0-4h0c-4.66,0-7.92,3.7-7.92,9v311.76a19.52,19.52,0,0,0,9.11,15.71l275.28,158.93a10.32,10.32,0,0,0,5.19,1.51c4.66,0,7.91-3.7,7.91-9V1687a19.51,19.51,0,0,0-9.1-15.71L1139.37,1512.4a10.42,10.42,0,0,0-5.19-1.51Z" fill="#66717b"/></g><g opacity="0.01"><path d="M1134.18,1514.89a6.5,6.5,0,0,1,3.19,1l275.28,158.94a15.63,15.63,0,0,1,7.1,12.24V1998.8c0,3.18-1.59,5-3.91,5a6.5,6.5,0,0,1-3.19-1L1137.37,1843.9a15.61,15.61,0,0,1-7.11-12.24V1519.9c0-3.18,1.6-5,3.92-5m0-5h0c-5.25,0-8.92,4.12-8.92,10v311.76a20.56,20.56,0,0,0,9.61,16.57l275.28,158.94a11.37,11.37,0,0,0,5.69,1.64c5.25,0,8.91-4.11,8.91-10V1687a20.55,20.55,0,0,0-9.6-16.57l-275.28-158.94a11.4,11.4,0,0,0-5.69-1.64Z" fill="#66717b"/></g><path d="M1412.65,1631.13,1137.37,1472.2a15.64,15.64,0,0,1-7.11-12.24V960c0-4.5,3.18-6.31,7.11-4l275.28,158.93a15.66,15.66,0,0,1,7.1,12.24v500C1419.75,1631.59,1416.57,1633.4,1412.65,1631.13Z" fill="#fff"/><g opacity="0.01"><path d="M1134.18,955a6.41,6.41,0,0,1,3.19,1l275.28,158.93a15.66,15.66,0,0,1,7.1,12.24v500c0,3.18-1.59,5-3.91,5a6.52,6.52,0,0,1-3.19-1L1137.37,1472.2a15.64,15.64,0,0,1-7.11-12.24V960c0-3.18,1.6-5,3.92-5m0-1h0c-3,0-4.92,2.36-4.92,6v500a16.51,16.51,0,0,0,7.61,13.1L1412.15,1632a7.41,7.41,0,0,0,3.69,1.11c3,0,4.91-2.36,4.91-6v-500a16.51,16.51,0,0,0-7.6-13.1L1137.87,955.08a7.41,7.41,0,0,0-3.69-1.11Z" fill="#66717b"/></g><g opacity="0.01"><path d="M1134.18,955a6.41,6.41,0,0,1,3.19,1l275.28,158.93a15.66,15.66,0,0,1,7.1,12.24v500c0,3.18-1.59,5-3.91,5a6.52,6.52,0,0,1-3.19-1L1137.37,1472.2a15.64,15.64,0,0,1-7.11-12.24V960c0-3.18,1.6-5,3.92-5m0-2h0c-3,0-5.92,2.17-5.92,7v500a17.6,17.6,0,0,0,8.11,14l275.28,158.93a8.37,8.37,0,0,0,4.19,1.25c2.94,0,5.91-2.17,5.91-7v-500a17.61,17.61,0,0,0-8.1-14L1138.37,954.21a8.46,8.46,0,0,0-4.19-1.24Z" fill="#66717b"/></g><g opacity="0.01"><path d="M1134.18,955a6.41,6.41,0,0,1,3.19,1l275.28,158.93a15.66,15.66,0,0,1,7.1,12.24v500c0,3.18-1.59,5-3.91,5a6.52,6.52,0,0,1-3.19-1L1137.37,1472.2a15.64,15.64,0,0,1-7.11-12.24V960c0-3.18,1.6-5,3.92-5m0-3h0c-4.07,0-6.92,3.3-6.92,8v500a18.68,18.68,0,0,0,8.61,14.83l275.28,158.94a9.34,9.34,0,0,0,4.69,1.38c4.07,0,6.91-3.3,6.91-8v-500c0-5.53-3.78-12-8.6-14.84L1138.87,953.35a9.37,9.37,0,0,0-4.69-1.38Z" fill="#66717b"/></g><g opacity="0.01"><path d="M1134.18,955a6.44,6.44,0,0,1,3.19,1l275.28,158.93a15.66,15.66,0,0,1,7.1,12.24v500c0,3.18-1.59,5-3.91,5a6.52,6.52,0,0,1-3.19-1L1137.37,1472.2a15.64,15.64,0,0,1-7.11-12.24V960c0-3.18,1.6-5,3.92-5m0-4h0c-4.66,0-7.92,3.71-7.92,9v500a19.52,19.52,0,0,0,9.11,15.7l275.28,158.94a10.42,10.42,0,0,0,5.19,1.51c4.66,0,7.91-3.71,7.91-9v-500a19.48,19.48,0,0,0-9.1-15.7L1139.37,952.48a10.42,10.42,0,0,0-5.19-1.51Z" fill="#66717b"/></g><g opacity="0.01"><path d="M1134.18,955a6.44,6.44,0,0,1,3.19,1l275.28,158.93a15.66,15.66,0,0,1,7.1,12.24v500c0,3.18-1.59,5-3.91,5a6.52,6.52,0,0,1-3.19-1L1137.37,1472.2a15.64,15.64,0,0,1-7.11-12.24V960c0-3.18,1.6-5,3.92-5m0-5h0c-5.25,0-8.92,4.12-8.92,10v500a20.58,20.58,0,0,0,9.61,16.57l275.28,158.93a11.38,11.38,0,0,0,5.69,1.65c5.25,0,8.91-4.12,8.91-10v-500a20.57,20.57,0,0,0-9.6-16.57L1139.87,951.62a11.31,11.31,0,0,0-5.69-1.65Z" fill="#66717b"/></g><ellipse cx="1275.95" cy="1170.48" rx="57.76" ry="100.04" transform="translate(-416.62 805.43) rotate(-30.36)" fill="#f3f5f7"/><path d="M1342,1371.4l-132-76.21a5.48,5.48,0,0,1-2.49-4.29c0-1.57,1.12-2.2,2.49-1.41l132,76.21a5.48,5.48,0,0,1,2.49,4.29C1344.44,1371.56,1343.32,1372.19,1342,1371.4Z" fill="#66717b" opacity="0.51"/><line x1="1209.95" y1="1441.93" x2="1341.95" y2="1518.14" fill="none" stroke="#0088a1" stroke-linecap="round" stroke-miterlimit="10" stroke-width="3.27" opacity="0.5"/><path d="M1276.34,1382.16,1210,1343.83a3.11,3.11,0,0,1-1.42-2.45c0-.9.63-1.26,1.42-.8l66.39,38.33a3.13,3.13,0,0,1,1.42,2.44C1277.76,1382.25,1277.12,1382.62,1276.34,1382.16Z" fill="#d0d8dc"/><path d="M1276.34,1432,1210,1393.7a3.13,3.13,0,0,1-1.42-2.45c0-.9.63-1.26,1.42-.81l66.39,38.33a3.14,3.14,0,0,1,1.42,2.45C1277.76,1432.12,1277.12,1432.48,1276.34,1432Z" fill="#d0d8dc"/><line x1="800.02" y1="715.43" x2="1419.75" y2="1073.24" fill="none" stroke="#d0d8dc" stroke-miterlimit="10" stroke-width="2"/><ellipse cx="1311.71" cy="925.24" rx="6.85" ry="11.86" transform="translate(-287.77 789.88) rotate(-30.36)" fill="#66717b" opacity="0.51"/><ellipse cx="1361.59" cy="954.04" rx="6.85" ry="11.86" transform="translate(-295.48 819.04) rotate(-30.36)" fill="#66717b" opacity="0.51"/><ellipse cx="1411.47" cy="982.84" rx="6.85" ry="11.86" transform="translate(-303.2 848.2) rotate(-30.36)" fill="#66717b" opacity="0.51"/><g opacity="0.51"><path d="M953.52,782.53,805.35,697A11.74,11.74,0,0,1,800,687.8c0-3.37,2.39-4.73,5.33-3l148.17,85.55a11.7,11.7,0,0,1,5.32,9.18C958.84,782.87,956.46,784.23,953.52,782.53Z" fill="#66717b"/></g><path d="M1113.78,812.59l-98.42-56.82a3.11,3.11,0,0,1-1.42-2.45c0-.9.63-1.26,1.42-.81l98.42,56.83a3.14,3.14,0,0,1,1.42,2.45C1115.2,812.69,1114.56,813.05,1113.78,812.59Z" fill="#d0d8dc"/><path d="M1251,891.79,1152.53,835a3.09,3.09,0,0,1-1.42-2.44c0-.9.63-1.26,1.42-.81L1251,888.53a3.15,3.15,0,0,1,1.42,2.45C1252.37,891.88,1251.73,892.24,1251,891.79Z" fill="#d0d8dc"/><path d="M826.07,658.22c-.59.34-1.55-.21-2.13-1.23l-9.7-16.63c-.59-1-.59-2.1,0-2.44l9.62-5.56c.59-.33,1.54.22,2.13,1.23l9.62,16.59c.59,1,.59,2.11,0,2.44Z" opacity="0.75" fill="url(#a94b0ba8-e38e-4f0d-a325-a0de04791c53)"/><path d="M953.52,720.74,875.86,675.9a2.36,2.36,0,0,1-1.06-1.83c0-.68.48-1,1.06-.61l77.66,44.83a2.33,2.33,0,0,1,1.06,1.84C954.58,720.8,954.11,721.07,953.52,720.74Z" fill="#66717b"/><path d="M1368.42,1787.79l-181.24-104.64a3.27,3.27,0,0,1-1.48-2.2c-.15-1.11.54-1.6,1.4-1.1l181.21,104.62a3.37,3.37,0,0,1,1.52,2.27C1370,1787.82,1369.27,1788.29,1368.42,1787.79Z" fill="#d0d8dc"/><path d="M1368.42,1843.73l-181.24-104.64a3.27,3.27,0,0,1-1.48-2.21c-.15-1.1.54-1.59,1.4-1.09l181.21,104.62a3.37,3.37,0,0,1,1.52,2.27C1370,1843.76,1369.27,1844.22,1368.42,1843.73Z" fill="#d0d8dc"/><path d="M1368.42,1899.67,1187.18,1795a3.27,3.27,0,0,1-1.48-2.21c-.15-1.1.54-1.59,1.4-1.09l181.21,104.62a3.35,3.35,0,0,1,1.52,2.27C1370,1899.69,1369.27,1900.16,1368.42,1899.67Z" fill="#d0d8dc"/><path d="M1319,1669.39l-132-76.21a5.47,5.47,0,0,1-2.48-4.28c0-1.58,1.11-2.21,2.48-1.42l132,76.21a5.5,5.5,0,0,1,2.48,4.29C1321.5,1669.55,1320.39,1670.19,1319,1669.39Z" fill="#66717b" opacity="0.51"/><path d="M1058.94,1127l-276-159.36a15.66,15.66,0,0,1-7.1-12.24V785.08c0-4.5,3.18-6.31,7.1-4l276,159.37a15.63,15.63,0,0,1,7.1,12.24V1123C1066,1127.5,1062.86,1129.31,1058.94,1127Z" fill="#fff"/><g opacity="0.01"><path d="M779.71,780.06a6.49,6.49,0,0,1,3.19,1l276,159.37a15.63,15.63,0,0,1,7.1,12.24V1123c0,3.18-1.59,5-3.91,5a6.39,6.39,0,0,1-3.19-1l-276-159.36a15.66,15.66,0,0,1-7.1-12.24V785.08c0-3.18,1.59-5,3.91-5m0-1h0c-3,0-4.91,2.36-4.91,6V955.44a16.51,16.51,0,0,0,7.6,13.1l276,159.37a7.35,7.35,0,0,0,3.69,1.11c3,0,4.91-2.36,4.91-6V952.65a16.53,16.53,0,0,0-7.6-13.11l-276-159.37a7.46,7.46,0,0,0-3.69-1.11Z" fill="#66717b"/></g><g opacity="0.01"><path d="M779.71,780.06a6.49,6.49,0,0,1,3.19,1l276,159.37a15.63,15.63,0,0,1,7.1,12.24V1123c0,3.18-1.59,5-3.91,5a6.39,6.39,0,0,1-3.19-1l-276-159.36a15.66,15.66,0,0,1-7.1-12.24V785.08c0-3.18,1.59-5,3.91-5m0-2h0c-2.94,0-5.91,2.17-5.91,7V955.44a17.61,17.61,0,0,0,8.1,14l276,159.37a8.46,8.46,0,0,0,4.19,1.24c2.94,0,5.91-2.17,5.91-7V952.65a17.63,17.63,0,0,0-8.1-14l-276-159.36a8.37,8.37,0,0,0-4.19-1.25Z" fill="#66717b"/></g><g opacity="0.01"><path d="M779.71,780.06a6.49,6.49,0,0,1,3.19,1l276,159.37a15.63,15.63,0,0,1,7.1,12.24V1123c0,3.18-1.59,5-3.91,5a6.39,6.39,0,0,1-3.19-1l-276-159.36a15.66,15.66,0,0,1-7.1-12.24V785.08c0-3.18,1.59-5,3.91-5m0-3h0c-4.06,0-6.91,3.3-6.91,8V955.44c0,5.53,3.78,12,8.6,14.84l276,159.36a9.32,9.32,0,0,0,4.69,1.38c4.06,0,6.91-3.3,6.91-8V952.65a18.7,18.7,0,0,0-8.6-14.84l-276-159.37a9.42,9.42,0,0,0-4.69-1.38Z" fill="#66717b"/></g><g opacity="0.01"><path d="M779.71,780.06a6.49,6.49,0,0,1,3.19,1l276,159.37a15.63,15.63,0,0,1,7.1,12.24V1123c0,3.18-1.59,5-3.91,5a6.39,6.39,0,0,1-3.19-1l-276-159.36a15.66,15.66,0,0,1-7.1-12.24V785.08c0-3.18,1.59-5,3.91-5m0-4h0c-4.65,0-7.91,3.71-7.91,9V955.44a19.52,19.52,0,0,0,9.1,15.7l276,159.37a10.36,10.36,0,0,0,5.19,1.51c4.65,0,7.91-3.71,7.91-9V952.65a19.53,19.53,0,0,0-9.1-15.71l-276-159.37a10.36,10.36,0,0,0-5.19-1.51Z" fill="#66717b"/></g><g opacity="0.01"><path d="M779.71,780.06a6.49,6.49,0,0,1,3.19,1l276,159.37a15.63,15.63,0,0,1,7.1,12.24V1123c0,3.18-1.59,5-3.91,5a6.39,6.39,0,0,1-3.19-1l-276-159.36a15.66,15.66,0,0,1-7.1-12.24V785.08c0-3.18,1.59-5,3.91-5m0-5h0c-5.24,0-8.91,4.12-8.91,10V955.44A20.59,20.59,0,0,0,780.4,972l276,159.36a11.26,11.26,0,0,0,5.69,1.65c5.24,0,8.91-4.12,8.91-10V952.65a20.58,20.58,0,0,0-9.6-16.57l-276-159.37a11.36,11.36,0,0,0-5.69-1.65Z" fill="#66717b"/></g><path d="M1044,1000.07l-54.8-26s-46.65-13-58-10.49c-19.54,4.32-75.15-9-75.15-9l-60.61-28L1044,1070.08Z" fill="url(#b2370679-c31a-41b3-90e9-2d1b04d3f76d)"/><path d="M795.39,926.57c124.28,71.75,124.28,1.74,248.56,73.5" fill="none" stroke="#ff73c3" stroke-linecap="round" stroke-miterlimit="10" stroke-width="5"/></g></g></g><g id="b550ae78-1b91-47e9-a015-01fe3c55380c" data-name="woman"><g id="b645c1cb-3e1e-4afa-a8c8-4cc366aed9f5" data-name="&lt;woman&gt;"><g id="a3cd8a12-0d82-4b8c-9e62-e432403089cd" data-name="&lt;shadows&gt;"><use width="262" height="66" transform="translate(579.46 1910.77) scale(1.57 1.59)" xlink:href="#eccf1654-49c4-4212-9a6a-2925b43b1a32"/><ellipse cx="640.61" cy="1967.28" rx="140.62" ry="81.1" fill="url(#ba7219fe-75e4-4b03-a556-e10df9cdbff7)"/></g><path d="M698.28,1097.6q-29.34-5.24-44.15,28.78l44.48,104.27,35.2-20.18v-24.64l10.49-10.89-6.08-20.77q7.37-3.43,6.15-5.61a42.84,42.84,0,0,1-14.56-15.43Q719.7,1107.74,698.28,1097.6Z" fill="#e8ceb7"/><path d="M743,1201.39q1.76-8-3.27-6.14a155.05,155.05,0,0,1-50.3,14l26.72,50.49,11.56,9.42h6.34a184.8,184.8,0,0,0,2.54-44.22Z" fill="#06467b"/><path d="M393.38,1872q5.61-17.57-.27-38.61-1.69-6.46-5.41-7.55-10.95,11.76-16.1,55-3.89,32.27,4.68,30.66c.34-.56.67-1.16,1-1.81A234,234,0,0,0,393.38,1872Z" fill="#001a3f"/><path d="M393.11,1833.37q5.88,21,.27,38.61a234,234,0,0,1-16.1,37.73c-.33.65-.66,1.25-1,1.81q6.06-1.11,18.23-18.9,20.31-33.27,40.68-45.62l33.59-20.91q2.7-41.76-20.57-55.84-12.09,12.32-27.65,28.66-14.82,15.55-26.51,22.84a13.4,13.4,0,0,0-6.35,4.07Q391.42,1826.9,393.11,1833.37Z" fill="#142540"/><path d="M672,1593.52q-6.44-29-31.59-49.42-29.62-24-50.23-18.64t-33.66,37.47q-1.72,48.63,1.94,120.76-21.3.6-91.77,68.26-7.9,7.63-18.44,18.3,23.27,14.09,20.57,55.84l128.38-79.68Q637.8,1711.55,672,1593.52Z" fill="#7fa0be"/><path d="M420.23,1858.89l1.27-1.27-1.74,1.4.47-.13M656.4,1642a4.66,4.66,0,0,0,.27-.74q.18-.43.33-.87v-51.69l-68.93-9.82q9.09,15.39,29.33,66.79-13.32,63-37.07,88.5L435.26,1846.93l33.52-20.84,128.38-79.68q21.24-18.21,40.67-59.18h0c.22-.41.42-.84.61-1.27Q647.65,1666.51,656.4,1642Z" fill="url(#b08fca89-909f-49ef-b02d-32af5ed8088b)"/><path d="M628,1971.36q0,23.33,34.6,11.09t51.29-24.91q16.5-12.52-43.88-16.17L688.4,1871a124.09,124.09,0,0,1-46.09,12.75q-5.65-.15-12-11-.35,23.68-1,41.08Q628.06,1948.11,628,1971.36Z" fill="#142540"/><path d="M638.7,1647.36l8.42,84.89q-16.2,29.71-16.37,88.5,0,29-.4,52,6.3,10.8,12,11A124.09,124.09,0,0,0,688.4,1871l30.92-118.29.07.06q3.89-15.16,7.81-27.65l2.67-9.15c.32-1,.63-2.12.94-3.2-.06.26-.13.5-.2.73q15.95-53.74,23.57-100.92-.34-48.88-19.63-52.5-49.87-4.49-108.07,2.14Z" fill="#7fa0be"/><path d="M884.09,1041.63l-22-11.83L828.59,1180l-95.31,63.39q-37.93-23.65-84.16-38.28t-44,47.43l20.51,130.57a652.59,652.59,0,0,0-55.57,93.51Q558.75,1500,556.55,1563q14.57,9.69,38,18.17,68.26,24.64,129.24,33.73a112.62,112.62,0,0,0,30.39-2.27q16-98.39-4.27-167.78l22.84-63.59q6.07-16.63,9-28.12v-34.8q79.54-99.91,94.78-127.1Q891,1119.44,884.09,1041.63Z" fill="#29669b"/><path d="M702.89,1146.49a80.32,80.32,0,0,0-25.58-22.64l-59.18,211.32,7.55,47.89q-9.13,12.87-17.57,25.92,44-18,74.14-62.45a244.38,244.38,0,0,0,41.08-111.08q3.51-31.23-2.94-52.83T702.89,1146.49Z" fill="url(#a5337038-75b9-4b11-81e3-4192294a8318)"/><path d="M698.61,1133.46q1.89-8.94,14,10.36,9.75-36-13.22-47.22T657,1100.2q-19.15,14.41-20,51.1-.31,16-10.55,22.11A149.75,149.75,0,0,1,590.21,1189c-35.39,9.51-73.5,23.34-98.63,51.33-25.84,28.77-34,81.67-10.07,114.3,22.77,31.1,72.77,33.2,107.07,26.77,41.31-7.75,79.31-32.83,99.75-70q38.37-69.74,23.84-154.89Q696.81,1142.41,698.61,1133.46Z" fill="#142540"/><path d="M698.61,1133.46q1.89-8.94,14,10.36,9.75-36-13.22-47.22T657,1100.2q-19.15,14.41-20,51.1-.31,16-10.55,22.11A149.75,149.75,0,0,1,590.21,1189c-35.39,9.51-73.5,23.34-98.63,51.33-25.84,28.77-34,81.67-10.07,114.3,22.77,31.1,72.77,33.2,107.07,26.77,41.31-7.75,79.31-32.83,99.75-70q38.37-69.74,23.84-154.89Q696.81,1142.41,698.61,1133.46Z" fill="url(#b32dc739-a634-4f84-aa4a-6218f5d9d29c)"/><path d="M744.3,1174.94l-18.1-.47,7.61,11.36Z" fill="#d2a57d"/><path d="M884.09,1041.63l-.86-.47q-1.74,15-4.35,33-8,54.38-6.88,82.29.4,11.82.34,14A39.71,39.71,0,0,1,869.8,1184a40.19,40.19,0,0,1-5.48,9.28q-2.4,3.15-7.21,8.28-18.36,19-27.52,28.46-16.43,17-26.91,29.12-29.65,34-43.75,64.79-8.35,18-17.37,49.89-10.75,38.27-15.36,50.63t-14.56,36.4q-8.35,21.51-10.82,37.4-2.75,17.7-.27,42.41.68,7.08,2,17.77t3.27,24.85q1.53,14.22,2.2,29a511.91,511.91,0,0,1-1.94,67.06q-3.87,42.15-15.16,95.51-5.8,27.45-22.44,95.18-1.2,4.82-2.27,9.55-13.15,53.91-19.3,85.7-2.07,11.09-1.61,18.16c.09,1.07.21,2.12.34,3.14a74.16,74.16,0,0,0,16.9-4.07q34.66-12.23,51.36-24.92Q730.34,1945,670,1941.37l49.43-188.62q3.87-15.15,7.88-27.65l2.67-9.15c.27-1.07.56-2.13.87-3.2l-.14.8q15.9-53.83,23.51-100.92,16-98.39-4.27-167.78l22.17-60.38q6.75-19.85,9.69-31.33v-34.8q79.54-99.91,94.78-127.1Q891,1119.44,884.09,1041.63Z" fill="url(#bab9b495-b2d5-460f-8500-2c50daaf3cc2)"/><polygon points="890.71 973.63 890.71 1029.92 895.24 1032.53 895.24 1061.16 872.1 1048.79 880.35 978.41 890.71 973.63" fill="url(#bba6d490-5993-47ce-abf9-55e89c67e039)"/><path d="M868.4,1004l-8.15-19.64q-2.22-6.77-6.15-5.14l.67,16.76,8.28,22.58,5.35,5.14Z" fill="#d2a57d"/><path d="M887.17,1012.5V994.94l3.54-21.31q-10.37-15.57-17.1-10.55l-10.29,22.77q-2.31,9.15,0,28.26l-6.14,37.53H885v-30.39Z" fill="#e8ceb7"/></g></g></svg>