<svg xmlns="http://www.w3.org/2000/svg" xmlns:xlink="http://www.w3.org/1999/xlink" viewBox="0 0 1421.25 1421.25"><defs><linearGradient id="faa2d5c9-a380-4c27-93de-1ad60d5cba5f" x1="786.74" y1="527.91" x2="756.16" y2="590.52" gradientTransform="translate(15.41 -82.53) rotate(17.32)" gradientUnits="userSpaceOnUse"><stop offset="0" stop-color="#52d6ff" stop-opacity="0.1"/><stop offset="0.04" stop-color="#30b8e2" stop-opacity="0.1"/><stop offset="0.15" stop-color="#0b97c2" stop-opacity="0.1"/><stop offset="0.87" stop-color="#0071b0" stop-opacity="0.3"/></linearGradient><radialGradient id="ad0b565c-c46a-49eb-8b73-d2d086d43262" cx="602.91" cy="788.8" r="354.05" gradientTransform="translate(0 -626.59) scale(1 1.79)" gradientUnits="userSpaceOnUse"><stop offset="0.16" stop-color="#0071b0" stop-opacity="0.6"/><stop offset="0.6" stop-color="#0b97c2" stop-opacity="0.1"/><stop offset="0.78" stop-color="#18a3ce" stop-opacity="0.08"/><stop offset="0.95" stop-color="#41c7f1" stop-opacity="0.02"/><stop offset="1" stop-color="#52d6ff" stop-opacity="0"/></radialGradient><radialGradient id="a1a5dce4-2d5c-451c-b30d-fc054a07b88e" cx="636.65" cy="828.5" r="305.43" gradientTransform="matrix(0.99, -0.15, 0.05, 0.32, -33.44, 657.76)" gradientUnits="userSpaceOnUse"><stop offset="0" stop-color="#0f0b26" stop-opacity="0.4"/><stop offset="0.18" stop-color="#0f0b26" stop-opacity="0.29"/><stop offset="0.82" stop-color="#0f0b26" stop-opacity="0"/></radialGradient><filter id="b43ed69b-76d1-4ddc-b89c-821e42061ca5" name="AI_DesenfoqueGaussiano_4"><feGaussianBlur stdDeviation="4"/></filter><linearGradient id="abc8bb3f-3b81-42f2-a39d-82c5199da4b8" x1="727.62" y1="929.93" x2="727.62" y2="572.1" gradientUnits="userSpaceOnUse"><stop offset="0" stop-color="#0b97c2"/><stop offset="0.01" stop-color="#0d9bc7"/><stop offset="0.05" stop-color="#16aad8"/><stop offset="0.09" stop-color="#1cb4e3"/><stop offset="0.16" stop-color="#1fbaea"/><stop offset="0.34" stop-color="#20bcec"/><stop offset="0.82" stop-color="#5ccef1"/><stop offset="0.87" stop-color="#98e0f6"/><stop offset="0.9" stop-color="#c6edf9"/></linearGradient><linearGradient id="b0839910-3fd1-43b8-9d93-723760de63f6" x1="759.84" y1="709.57" x2="818.15" y2="811.16" gradientUnits="userSpaceOnUse"><stop offset="0" stop-color="#0f0b26" stop-opacity="0"/><stop offset="0.47" stop-color="#0f0b26" stop-opacity="0.06"/><stop offset="0.7" stop-color="#0f0b26" stop-opacity="0.26"/><stop offset="0.87" stop-color="#0f0b26" stop-opacity="0.6"/><stop offset="1" stop-color="#0f0b26"/></linearGradient><linearGradient id="a2a96530-a321-494c-a3e8-76c8830e03be" x1="979.11" y1="846.87" x2="983.23" y2="839.51" gradientUnits="userSpaceOnUse"><stop offset="0" stop-color="#94def5" stop-opacity="0"/><stop offset="1" stop-color="#94def5"/></linearGradient><linearGradient id="f4776855-bae7-433a-98f4-9985eed0041a" x1="911.83" y1="877.03" x2="906.24" y2="867.6" xlink:href="#a2a96530-a321-494c-a3e8-76c8830e03be"/><linearGradient id="ead86289-fb3a-4c85-850c-e7ddb66718b3" x1="896.26" y1="993.68" x2="887.72" y2="1008.7" xlink:href="#a2a96530-a321-494c-a3e8-76c8830e03be"/><linearGradient id="b8e3fa57-625a-4f34-8032-92effc868304" x1="963.2" y1="965.22" x2="967.92" y2="973.46" xlink:href="#a2a96530-a321-494c-a3e8-76c8830e03be"/><linearGradient id="f8b7f7d5-007b-4a7c-bf08-ed30fa9d9b4a" x1="590.45" y1="1060.49" x2="462.29" y2="979.29" gradientUnits="userSpaceOnUse"><stop offset="0" stop-color="#0f0b26" stop-opacity="0.3"/><stop offset="0.02" stop-color="#0f0b26" stop-opacity="0.29"/><stop offset="1" stop-color="#0f0b26" stop-opacity="0"/></linearGradient><linearGradient id="a35deb4b-61af-45ea-a9e8-07bccfdbac96" x1="556.49" y1="752.29" x2="580.24" y2="906.37" gradientUnits="userSpaceOnUse"><stop offset="0" stop-color="#011f23" stop-opacity="0"/><stop offset="1" stop-color="#011f23"/></linearGradient><linearGradient id="e8ff520e-0b4a-4c97-84ee-38a311d5bc8e" x1="547.95" y1="1077.11" x2="547.95" y2="801.13" gradientUnits="userSpaceOnUse"><stop offset="0" stop-color="#0b97c2"/><stop offset="0.01" stop-color="#0d9bc7"/><stop offset="0.05" stop-color="#16aad8"/><stop offset="0.09" stop-color="#1cb4e3"/><stop offset="0.16" stop-color="#1fbaea"/><stop offset="0.34" stop-color="#20bcec"/><stop offset="0.84" stop-color="#5ccef1"/><stop offset="0.9" stop-color="#98e0f6"/><stop offset="0.95" stop-color="#c6edf9"/></linearGradient><linearGradient id="f15d1a33-57bd-42c7-9be0-69b83d5000e7" x1="818.7" y1="558.91" x2="486.09" y2="1036.41" gradientUnits="userSpaceOnUse"><stop offset="0" stop-color="#09c997" stop-opacity="0.9"/><stop offset="1" stop-color="#61eebb" stop-opacity="0.9"/></linearGradient></defs><g id="e289f6e9-d8c2-4a5b-afd8-699aad898596" data-name="Plant"><g id="bfd91cac-af3e-4394-bf5d-cf4a274b8709" data-name="Plant 4"><path d="M480.27,376.8l-2.95-.6-10,48.79-5,39.09-1.91,40.8c0,.72,0,3.91,0,9.55l.88,21.39,2.81,26.92,6.16,32.77.1.28,5,18.32q3,9.95,6.5,19.37l6.68,16.35L503,678.11l.18.25,3.12,5.39,20.66,29.8L537.36,726l16.39,17q1.07,1.1,4.69,4.47l16.46,14.09c2,1.6,3.09,2.48,3.34,2.64l14.21,10.45L596,770l-16.44-14q-8.16-7.27-15.51-14.5L555,732.34q-4.77-5-9.71-10.71l-1.9-2.12-.26-.41-.33-.36-15.44-19.46-6.81-9.74L506,665.61q-5.27-9.83-8.57-17.07l-7.69-18q-3.76-9.88-6.55-18.81l-5-17.49-.1-.29-2.67-11.32-3.89-21L467.37,522l-.63-21.18.07-.62L467.92,465l0-.52L468,464l2.78-29.84Z" fill="#00a7d4"/><path d="M602.47,611.23q-32.21-2.15-53,38.52t12.26,117.66q73.9-42.78,74.39-96.34T602.47,611.23Z" fill="#52d6ff"/><path d="M602.47,611.23q-32.21-2.15-53,38.52t12.26,117.66q73.9-42.78,74.39-96.34T602.47,611.23Z" fill="url(#faa2d5c9-a380-4c27-93de-1ad60d5cba5f)"/><path d="M602.33,635.89l0,.13-4.64,37.85-6.45,27.49-7.1,20.5-2.76,6.37q-2.85,6.28-5.11,10.44l-6.31,11-.21.26-1.9,3-.18.2-.15.27-6.42,8.88-.19.19-4.34,5.5,5.91,4.66,4.19-5.86.15-.28.55-.72,8-12.79,6-11.83q2-4.23,4.72-11L591.35,715l7.22-31.79,3.53-34.29q0-.12.29-6.89l.15-6,0-.12Z" fill="#00a7d4"/><path d="M458.24,786.84q43.76,15.95,92.49,13.68,31.18-2.64,66.5-14.59-79-178.9-191.39-177.56t-96.2,81.54q6.78,24.36,27.27,44.08Q397.82,773.7,458.24,786.84Z" fill="#20bcec"/><path d="M619.72,429.3q-21.69-30.8-63.61-1.66-46.75,32.52-77.24,128.67,50.61-11.58,92.93-45.58Q634.11,460.48,619.72,429.3Z" fill="#20bcec"/><path d="M401.66,313.06q-22.17,14.32-17.76,56.53,10.56,100.56,74.21,154.2-3.89-54.76-5.74-94.07t-8.89-70.8Q426.71,296.85,401.66,313.06Z" fill="#52d6ff"/><path d="M473.23,320.78l2.51,70.73q34.67-38,41.28-87.21T497.07,264Q471.51,272.72,473.23,320.78Z" fill="#52d6ff"/><path d="M414.8,663.67l-.13.22,19.73,7.94.35.11,50.66,24.5,11.6,6.5,42,26.52q7.92,5.41,17.39,12.4l29.8,23.44q6.21,5.13,11.48,9.78L617.58,793l6.79-7.61-32.93-26.77L560.36,736.2q-10-6.84-18.08-11.78l-16.61-10.17L487,693.34l-39.08-17.5q-.64-.2-1.89-.72L414.9,663.77Z" fill="#00a7d4"/><path d="M593.85,439.8l-22.47,17.69-39.69,35.94-25.87,26.94L493,534.74l-21.5,26.89,1.92,10.45q4.6-12.47,23.61-34l34.28-39.54,12.25-12.82,26.35-25.19L594,440l.1-.1-.14-.17Z" fill="#00a7d4"/><path d="M411.53,371.68l6.87,46.74,2,10.49,6.27,26.28,12,36.11,11.52,24.84,11.2,19.68,1-11.09-7.14-11.38a4.86,4.86,0,0,0-.56-.88l-9.52-18.32-12.2-30.62-3-9.26-10.69-41.22-7.53-41.51-.22.06Z" fill="#00a7d4"/><path d="M495.7,290.36l.65-1.66.09-.1-.21-.13,0,.12L491.85,299l-3,10.71L478.38,369.3l-5.56,28.91,4.37-2.92,11.46-74.5q.62-5.06,1.25-8.76l2.77-12.77,2.87-8.57Z" fill="#00a7d4"/><path id="b21fae93-c327-46b3-9b08-6ecd9cca91fd" data-name="Dark gradient" d="M624.37,785.4l-11.65-9.47q-7.92-17.2-16.15-32.63,39.21-33.25,39.58-72.23.57-53.54-33.68-59.84-32.21-2.15-53,38.52A70.26,70.26,0,0,0,543.68,666Q516.53,636.36,486.57,622c-1.24-3.5-2.38-6.92-3.41-10.23l-5-17.49-.1-.29-2.67-11.32-2-10.56q2.58-7,9.65-16.78,48.15-12,88.7-44.55,62.31-50.25,47.92-81.43-21.69-30.8-63.61-1.66Q511,459.05,481,549.79l-9.46,11.84L467.37,522l-.63-21.18.07-.62L467.92,465l0-.52L468,464l2.78-29.84,7.55-45.58q32.32-36.93,38.71-84.3Q523.64,255,497.07,264q-25.56,8.69-23.84,56.75l2.26,63.57-2.67,13.86h0L467.35,425l-5,39.09-1.91,40.8c0,.72,0,3.91,0,9.55l.33,7.88-3.2-5.09q-3.52-50.57-5.27-87.5-1.81-39.23-8.89-70.8-16.77-62.07-41.82-45.86-22.17,14.32-17.76,56.53,9.94,94.73,67,147.82l10.48,18.41,2.81,26.92,6.16,32.77.1.28,5,18.32c.35,1.16.71,2.31,1.07,3.47a133.79,133.79,0,0,0-50.67-9.21q-112.36,1.33-96.2,81.54,6.78,24.36,27.27,44.08,40.9,39.71,101.33,52.85,43.76,15.95,92.49,13.68,28.74-2.43,61-12.78l5.87,5.27Z" fill="url(#ad0b565c-c46a-49eb-8b73-d2d086d43262)"/></g></g><g id="e981108c-3146-4980-9748-4d83e84a6e1b" data-name="Laptop"><g id="b0e009a5-22a0-4bca-9556-22d11639aa08" data-name="Laptop"><rect x="273.63" y="518.4" width="687.18" height="492.77" fill="url(#a1a5dce4-2d5c-451c-b30d-fc054a07b88e)"/><g id="b16f20da-d627-4462-b303-0a0a8478fe50" data-name="Shadow-laptop"><g id="b9438f0e-5ae0-4586-8f2e-0ff009049f36" data-name="shadow" filter="url(#b43ed69b-76d1-4ddc-b89c-821e42061ca5)"><path d="M1181.16,849.84c3.56,2.06,3.58,5.39,0,7.44L816.13,1069.44a14.17,14.17,0,0,1-12.84,0L550.63,923.56c-3.56-2-3.58-5.38,0-7.44L915.66,704a14.11,14.11,0,0,1,12.84,0Z" fill="#0f0b26"/></g><path d="M1181.16,849.84c3.56,2.06,3.58,5.39,0,7.44L816.13,1069.44a14.17,14.17,0,0,1-12.84,0L550.63,923.56c-3.56-2-3.58-5.38,0-7.44L915.66,704a14.11,14.11,0,0,1,12.84,0Z" fill="none" stroke="#273637" stroke-miterlimit="10" stroke-opacity="0.31"/></g><g id="aedcf680-ff26-44c1-aeff-389c9e1161a4" data-name="screen"><path d="M915.44,397.5c-1.17-.68-2.79-.59-4.59.45L543.4,610.1A14.14,14.14,0,0,0,537,621.23l.82,290.33c0,2,.73,3.45,1.88,4.13l2.82,1.63c-1.16-.67-1.87-2.1-1.88-4.13l-.82-290.32a14.14,14.14,0,0,1,6.43-11.13L913.67,399.59c1.8-1,3.42-1.14,4.59-.46Z" fill="url(#abc8bb3f-3b81-42f2-a39d-82c5199da4b8)"/><path d="M913.67,399.59c3.57-2.06,6.46-.41,6.47,3.68L921,693.6a14.13,14.13,0,0,1-6.42,11.12L547.08,916.87c-3.56,2.06-6.46.41-6.47-3.68l-.82-290.32a14.14,14.14,0,0,1,6.43-11.13Z" fill="#0088a1"/><path d="M913.67,399.59c3.57-2.06,6.46-.41,6.47,3.68L921,693.6a14.13,14.13,0,0,1-6.42,11.12L547.08,916.87c-3.56,2.06-6.46.41-6.47-3.68l-.82-290.32a14.14,14.14,0,0,1,6.43-11.13Z" fill="url(#b0839910-3fd1-43b8-9d93-723760de63f6)"/></g><path d="M1181.06,850.45,816,1062.61a14.16,14.16,0,0,1-12.85,0L550.47,916.73c-1.79-1-2.68-2.39-2.68-3.75v6.53c0,1.35.89,2.71,2.68,3.74l252.66,145.87a14.14,14.14,0,0,0,12.84,0L1181,857c1.75-1,2.63-2.35,2.64-3.69v-6.52C1183.69,848.09,1182.81,849.43,1181.06,850.45Z" fill="#5ccef1"/><path d="M1181,843c3.56,2,3.58,5.39,0,7.44L816,1062.61a14.16,14.16,0,0,1-12.85,0L550.47,916.73c-3.55-2.05-3.57-5.39,0-7.44L915.51,697.13a14.17,14.17,0,0,1,12.84,0Z" fill="#fafcfb"/><g filter="url(#b43ed69b-76d1-4ddc-b89c-821e42061ca5)"><path d="M1016.77,795.92q5.43,3.14,0,6.29L733.31,966.94a10.15,10.15,0,0,1-10.86,0L619.93,907.77q-5.43-3.13,0-6.29L903.39,736.75a10.17,10.17,0,0,1,10.86,0Z" fill="#ace5f7"/></g><path d="M1181,843,928.35,697.13a14.17,14.17,0,0,0-12.84,0L550.43,909.29c-3.53,2.05-3.51,5.39,0,7.44L803.13,1062.6a14.16,14.16,0,0,0,12.85,0l365.08-212.16C1184.59,848.4,1184.57,845.06,1181,843Zm-164.24-40.8L733.31,966.94a10.15,10.15,0,0,1-10.86,0L619.93,907.77q-5.43-3.13,0-6.29L903.39,736.75a10.17,10.17,0,0,1,10.86,0l102.52,59.19Q1022.2,799.06,1016.77,802.21Z" fill="#c6edf9"/><path d="M1080.85,898.64q3.81,2.21,0,4.41l-173.1,100.6a7.13,7.13,0,0,1-7.62,0l-105.47-60.9q-3.82-2.21,0-4.41L967.76,837.75a7.08,7.08,0,0,1,7.61,0Z" fill="#d5f2fb"/><path d="M918.24,742.93V741.3c0,.58-.51,1.16-1.5,1.73L633.07,907.89a5.62,5.62,0,0,1-6,0l-5.13-3c-1-.58-1.51-1.16-1.51-1.75v1.63c0,.59.5,1.17,1.5,1.75l5.13,3a5.62,5.62,0,0,0,6,0L916.74,744.66C917.74,744.09,918.24,743.51,918.24,742.93Z" fill="#ace5f7"/><path d="M908.38,767.59,896.93,761c-1-.58-1.51-1.17-1.51-1.75v1.63c0,.58.51,1.17,1.52,1.75l11.45,6.61a5.62,5.62,0,0,0,6,0L936,756.69c1-.58,1.5-1.16,1.5-1.73v-1.63c0,.57-.5,1.15-1.49,1.73l-21.57,12.53A5.62,5.62,0,0,1,908.38,767.59Z" fill="#ace5f7"/><path d="M925.26,764.66v1.63c0,.58.5,1.16,1.51,1.74l11.46,6.62a5.62,5.62,0,0,0,6,0L955.61,768c1-.58,1.49-1.16,1.49-1.73v-1.63c0,.57-.5,1.15-1.49,1.73L944.24,773a5.64,5.64,0,0,1-6,0l-11.45-6.62C925.76,765.82,925.25,765.24,925.26,764.66Z" fill="#ace5f7"/><path d="M905.71,772.64l-11.38,6.61a5.62,5.62,0,0,1-6,0l-11.45-6.61c-1-.59-1.52-1.17-1.52-1.75v1.63c0,.58.5,1.17,1.51,1.75l11.46,6.61a5.61,5.61,0,0,0,6,0l11.38-6.61c1-.58,1.5-1.16,1.5-1.73v-1.63C907.2,771.48,906.7,772.06,905.71,772.64Z" fill="#ace5f7"/><path d="M937,778v-1.63c0,.58-.5,1.15-1.49,1.73l-11.38,6.61a5.64,5.64,0,0,1-6,0l-11.45-6.61c-1-.59-1.51-1.17-1.51-1.75V778c0,.58.51,1.17,1.51,1.75l11.46,6.61a5.62,5.62,0,0,0,6,0l11.39-6.61C936.54,779.12,937,778.55,937,778Z" fill="#ace5f7"/><path d="M943.2,792.9l-11.45-6.62c-1-.58-1.52-1.16-1.52-1.75v1.63c0,.59.5,1.17,1.51,1.75l11.46,6.62a5.62,5.62,0,0,0,6,0l26-15.15c1-.57,1.5-1.15,1.5-1.73V776c0,.58-.5,1.16-1.49,1.73L949.21,792.9A5.62,5.62,0,0,1,943.2,792.9Z" fill="#ace5f7"/><path d="M868.25,790.91,856.8,784.3c-1-.58-1.51-1.16-1.51-1.75v1.63c0,.59.5,1.17,1.51,1.75l11.46,6.61a5.6,5.6,0,0,0,6,0l11.38-6.61c1-.58,1.49-1.16,1.49-1.73v-1.63c0,.57-.5,1.15-1.5,1.73l-11.38,6.61A5.6,5.6,0,0,1,868.25,790.91Z" fill="#ace5f7"/><path d="M898.09,798a5.6,5.6,0,0,0,6,0l11.38-6.61c1-.58,1.49-1.15,1.49-1.73V788c0,.58-.49,1.15-1.49,1.73l-11.38,6.61a5.6,5.6,0,0,1-6,0l-11.45-6.61c-1-.59-1.52-1.17-1.52-1.75v1.63c0,.58.5,1.16,1.51,1.75Z" fill="#ace5f7"/><path d="M929.14,806.19l11.38-6.62c1-.57,1.49-1.15,1.5-1.73v-1.63c0,.58-.5,1.16-1.49,1.73l-11.38,6.62a5.62,5.62,0,0,1-6,0l-11.45-6.62c-1-.58-1.52-1.16-1.52-1.75v1.63c0,.59.51,1.17,1.52,1.75l11.46,6.62A5.61,5.61,0,0,0,929.14,806.19Z" fill="#ace5f7"/><path d="M952.43,810.3,941,803.69c-1-.59-1.52-1.17-1.51-1.75v1.63c0,.58.5,1.16,1.52,1.75l11.45,6.61a5.62,5.62,0,0,0,6,0l37.14-21.58c1-.58,1.49-1.16,1.49-1.73V787c0,.57-.5,1.15-1.49,1.73L958.44,810.3A5.62,5.62,0,0,1,952.43,810.3Z" fill="#ace5f7"/><path d="M1014.91,800.26l-11.38,6.61a5.62,5.62,0,0,1-6,0l-11.45-6.61c-1-.59-1.52-1.17-1.52-1.75v1.63c0,.58.5,1.16,1.51,1.75l11.46,6.61a5.61,5.61,0,0,0,6,0l11.38-6.61c1-.58,1.5-1.16,1.5-1.73v-1.63C1016.4,799.1,1015.9,799.68,1014.91,800.26Z" fill="#ace5f7"/><path d="M995.11,811.76l-11.38,6.62a5.62,5.62,0,0,1-6,0L972,815.07l-5.73-3.31c-1-.58-1.52-1.17-1.52-1.75v1.63c0,.58.5,1.17,1.52,1.75L972,816.7l5.73,3.31a5.62,5.62,0,0,0,6,0l11.38-6.62c1-.57,1.49-1.15,1.49-1.73V810C996.6,810.61,996.11,811.19,995.11,811.76Z" fill="#ace5f7"/><path d="M848.19,802.57,836.73,796c-1-.58-1.51-1.16-1.51-1.75v1.63c0,.59.5,1.17,1.51,1.75l11.45,6.61a5.58,5.58,0,0,0,6,0l11.38-6.61c1-.58,1.49-1.15,1.49-1.73v-1.63c0,.58-.5,1.15-1.5,1.73l-11.37,6.61A5.58,5.58,0,0,1,848.19,802.57Z" fill="#ace5f7"/><path d="M878,808l-11.45-6.61c-1-.58-1.52-1.17-1.51-1.75v1.63c0,.59.5,1.17,1.51,1.75L878,809.63a5.6,5.6,0,0,0,6,0L895.42,803c1-.57,1.48-1.15,1.48-1.73v-1.63c0,.58-.5,1.16-1.49,1.73L884,808A5.65,5.65,0,0,1,878,808Z" fill="#ace5f7"/><path d="M909.07,817.85l11.39-6.62c1-.57,1.49-1.15,1.49-1.73v-1.63c0,.58-.5,1.16-1.5,1.73l-11.38,6.62a5.62,5.62,0,0,1-6,0l-11.45-6.61c-1-.59-1.52-1.17-1.52-1.76v1.63c0,.59.5,1.17,1.51,1.76l11.46,6.61A5.61,5.61,0,0,0,909.07,817.85Z" fill="#ace5f7"/><path d="M938.61,823.45,950,816.84c1-.58,1.49-1.16,1.5-1.73v-1.64c0,.58-.5,1.16-1.49,1.74l-11.39,6.61a5.61,5.61,0,0,1-6,0l-11.46-6.61c-1-.58-1.51-1.17-1.51-1.75v1.63c0,.58.5,1.17,1.51,1.75l11.45,6.61A5.62,5.62,0,0,0,938.61,823.45Z" fill="#ace5f7"/><path d="M974.45,823.77l-11.38,6.62a5.62,5.62,0,0,1-6,0l-11.46-6.62c-1-.58-1.51-1.17-1.51-1.75v1.63c0,.58.51,1.17,1.52,1.75L957.05,832a5.62,5.62,0,0,0,6,0l11.38-6.62c1-.57,1.49-1.15,1.5-1.73V822C975.94,822.62,975.44,823.2,974.45,823.77Z" fill="#ace5f7"/><path d="M828.12,814.24l-11.46-6.62c-1-.58-1.51-1.16-1.51-1.74v1.63c0,.58.5,1.16,1.51,1.74l11.45,6.62a5.62,5.62,0,0,0,6,0l11.38-6.61c1-.58,1.49-1.15,1.49-1.73v-1.63c0,.58-.5,1.15-1.5,1.73l-11.38,6.61A5.62,5.62,0,0,1,828.12,814.24Z" fill="#ace5f7"/><path d="M858,819.66l-11.46-6.61c-1-.58-1.51-1.17-1.51-1.75v1.63c0,.58.5,1.17,1.51,1.75L858,821.29a5.64,5.64,0,0,0,6,0l11.38-6.62c1-.57,1.48-1.15,1.49-1.73v-1.63c0,.58-.5,1.16-1.49,1.73L864,819.67A5.62,5.62,0,0,1,858,819.66Z" fill="#ace5f7"/><path d="M889,829.51l11.38-6.61c1-.58,1.49-1.16,1.49-1.73v-1.63c0,.57-.5,1.15-1.5,1.73L889,827.88a5.61,5.61,0,0,1-6,0l-11.46-6.61c-1-.59-1.52-1.17-1.51-1.76v1.63c0,.59.51,1.17,1.52,1.76L883,829.51A5.62,5.62,0,0,0,889,829.51Z" fill="#ace5f7"/><path d="M918.54,835.11l11.38-6.61c1-.58,1.5-1.15,1.5-1.73v-1.63c0,.58-.5,1.15-1.49,1.73l-11.38,6.61a5.62,5.62,0,0,1-6,0l-11.45-6.61c-1-.58-1.52-1.17-1.52-1.75v1.63c0,.58.5,1.17,1.51,1.75l11.46,6.61A5.61,5.61,0,0,0,918.54,835.11Z" fill="#ace5f7"/><path d="M954.38,835.43,943,842.05a5.62,5.62,0,0,1-6,0l-11.45-6.61c-1-.59-1.52-1.17-1.52-1.76v1.63c0,.59.5,1.17,1.51,1.76L937,843.68a5.62,5.62,0,0,0,6,0l11.39-6.62c1-.57,1.49-1.15,1.49-1.73V833.7C955.87,834.28,955.37,834.86,954.38,835.43Z" fill="#ace5f7"/><path d="M808.05,825.9l-11.45-6.62c-1-.58-1.51-1.16-1.51-1.74v1.63c0,.58.51,1.16,1.52,1.74l11.45,6.62a5.62,5.62,0,0,0,6,0l11.38-6.62c1-.57,1.49-1.15,1.49-1.73v-1.63c0,.58-.5,1.16-1.5,1.73l-11.38,6.62A5.62,5.62,0,0,1,808.05,825.9Z" fill="#ace5f7"/><path d="M837.89,831.33l-11.46-6.62c-1-.58-1.51-1.16-1.51-1.74v1.63c0,.58.5,1.16,1.51,1.74L837.88,833a5.64,5.64,0,0,0,6,0l11.38-6.62c1-.57,1.49-1.15,1.49-1.73V823c0,.58-.5,1.16-1.49,1.73l-11.39,6.62A5.62,5.62,0,0,1,837.89,831.33Z" fill="#ace5f7"/><path d="M868.94,841.17l11.39-6.61c1-.58,1.49-1.16,1.49-1.73v-1.64c0,.58-.5,1.16-1.49,1.74l-11.39,6.61a5.61,5.61,0,0,1-6,0l-11.46-6.61c-1-.58-1.51-1.17-1.51-1.75v1.63c0,.58.51,1.17,1.52,1.75l11.45,6.61A5.62,5.62,0,0,0,868.94,841.17Z" fill="#ace5f7"/><path d="M898.48,846.77l11.38-6.61c1-.58,1.49-1.16,1.49-1.73V836.8c0,.57-.5,1.15-1.49,1.73l-11.38,6.61a5.64,5.64,0,0,1-6,0L881,838.53c-1-.58-1.51-1.16-1.51-1.74v1.63c0,.58.5,1.16,1.51,1.74l11.46,6.62A5.62,5.62,0,0,0,898.48,846.77Z" fill="#ace5f7"/><path d="M935.12,846.62l-17.25,10a5.62,5.62,0,0,1-6,0L900.41,850c-1-.59-1.52-1.17-1.52-1.76v1.63c0,.59.5,1.17,1.52,1.76l11.45,6.61a5.62,5.62,0,0,0,6,0l17.25-10c1-.57,1.49-1.15,1.49-1.73v-1.63C936.61,845.47,936.12,846.05,935.12,846.62Z" fill="#ace5f7"/><path d="M788,837.56l-11.45-6.62c-1-.58-1.52-1.16-1.52-1.74v1.63c0,.58.5,1.16,1.51,1.74L788,839.19a5.61,5.61,0,0,0,6,0l11.38-6.62c1-.57,1.5-1.15,1.5-1.73v-1.63c0,.58-.5,1.16-1.49,1.73L794,837.56A5.62,5.62,0,0,1,788,837.56Z" fill="#ace5f7"/><path d="M817.82,843l-11.45-6.62c-1-.58-1.52-1.16-1.51-1.75v1.64c0,.58.5,1.16,1.52,1.74l11.45,6.62a5.62,5.62,0,0,0,6,0L835.21,838c1-.58,1.49-1.16,1.49-1.73v-1.63c0,.57-.5,1.15-1.49,1.73L823.84,843A5.64,5.64,0,0,1,817.82,843Z" fill="#ace5f7"/><path d="M848.88,852.83l11.38-6.61c1-.58,1.49-1.15,1.49-1.73v-1.63c0,.58-.49,1.15-1.49,1.73l-11.38,6.61a5.62,5.62,0,0,1-6,0l-11.45-6.61c-1-.58-1.52-1.17-1.52-1.75v1.63c0,.58.5,1.17,1.52,1.75l11.45,6.61A5.62,5.62,0,0,0,848.88,852.83Z" fill="#ace5f7"/><path d="M878.41,858.44l11.38-6.62c1-.57,1.49-1.15,1.49-1.73v-1.63c0,.58-.5,1.15-1.49,1.73l-11.38,6.62a5.62,5.62,0,0,1-6,0L861,850.19c-1-.58-1.51-1.16-1.51-1.75v1.63c0,.59.5,1.17,1.51,1.75l11.45,6.62A5.62,5.62,0,0,0,878.41,858.44Z" fill="#ace5f7"/><path d="M767.92,849.22l-11.45-6.61c-1-.59-1.52-1.17-1.52-1.75v1.63c0,.58.5,1.16,1.51,1.75l11.46,6.61a5.61,5.61,0,0,0,6,0l11.38-6.61q1.5-.87,1.5-1.74v-1.63q0,.87-1.5,1.74l-11.38,6.61A5.62,5.62,0,0,1,767.92,849.22Z" fill="#ace5f7"/><path d="M797.75,854.65,786.3,848c-1-.59-1.51-1.17-1.51-1.75v1.63c0,.58.5,1.16,1.51,1.75l11.45,6.61a5.64,5.64,0,0,0,6,0l11.38-6.61c1-.58,1.49-1.16,1.49-1.73v-1.63c0,.57-.49,1.15-1.49,1.73l-11.38,6.61A5.64,5.64,0,0,1,797.75,854.65Z" fill="#ace5f7"/><path d="M828.81,864.5l11.38-6.62c1-.58,1.49-1.15,1.49-1.73v-1.63c0,.58-.5,1.15-1.49,1.73l-11.39,6.62a5.65,5.65,0,0,1-6,0l-11.45-6.62c-1-.58-1.52-1.17-1.51-1.75v1.63c0,.58.5,1.17,1.52,1.75l11.45,6.62A5.65,5.65,0,0,0,828.81,864.5Z" fill="#ace5f7"/><path d="M858.35,870.1l11.38-6.62c1-.58,1.49-1.15,1.49-1.73v-1.63c0,.58-.5,1.15-1.5,1.73l-11.38,6.62a5.62,5.62,0,0,1-6,0l-11.46-6.61c-1-.59-1.51-1.17-1.51-1.75v1.63c0,.58.5,1.16,1.51,1.75l11.45,6.61A5.64,5.64,0,0,0,858.35,870.1Z" fill="#ace5f7"/><path d="M747.86,860.88l-11.46-6.61c-1-.59-1.51-1.17-1.51-1.75v1.63c0,.58.5,1.16,1.51,1.75l11.45,6.61a5.62,5.62,0,0,0,6,0l11.38-6.61c1-.58,1.49-1.16,1.49-1.73v-1.64c0,.58-.5,1.16-1.49,1.74l-11.38,6.61A5.62,5.62,0,0,1,747.86,860.88Z" fill="#ace5f7"/><path d="M777.69,866.31l-11.45-6.61c-1-.59-1.52-1.17-1.52-1.75v1.63c0,.58.5,1.16,1.51,1.75l11.46,6.61a5.62,5.62,0,0,0,6,0l11.38-6.61c1-.58,1.49-1.15,1.49-1.73V858c0,.58-.49,1.15-1.49,1.73l-11.38,6.61A5.62,5.62,0,0,1,777.69,866.31Z" fill="#ace5f7"/><path d="M808.74,876.16l11.38-6.62c1-.58,1.5-1.15,1.5-1.73v-1.63c0,.58-.5,1.15-1.49,1.73l-11.38,6.62a5.62,5.62,0,0,1-6,0l-11.45-6.62c-1-.58-1.52-1.17-1.52-1.75v1.63c0,.58.5,1.17,1.51,1.75l11.46,6.62A5.61,5.61,0,0,0,808.74,876.16Z" fill="#ace5f7"/><path d="M838.28,881.76l11.38-6.61c1-.58,1.49-1.16,1.49-1.74v-1.63q0,.87-1.5,1.74l-11.38,6.61a5.61,5.61,0,0,1-6,0l-11.46-6.61c-1-.59-1.51-1.17-1.51-1.75v1.63c0,.58.51,1.16,1.52,1.75l11.45,6.61A5.62,5.62,0,0,0,838.28,881.76Z" fill="#ace5f7"/><path d="M727.79,872.54l-11.46-6.61c-1-.58-1.51-1.17-1.51-1.75v1.63c0,.58.5,1.17,1.51,1.75l11.45,6.61a5.62,5.62,0,0,0,6,0l11.39-6.61c1-.58,1.49-1.16,1.49-1.74v-1.63c0,.58-.5,1.16-1.49,1.74l-11.38,6.61A5.62,5.62,0,0,1,727.79,872.54Z" fill="#ace5f7"/><path d="M757.63,878l-11.46-6.61c-1-.59-1.51-1.17-1.51-1.75v1.63c0,.58.5,1.16,1.51,1.75l11.45,6.61a5.64,5.64,0,0,0,6,0L775,873c1-.58,1.49-1.15,1.49-1.73v-1.63c0,.58-.5,1.15-1.49,1.73L763.64,878A5.62,5.62,0,0,1,757.63,878Z" fill="#ace5f7"/><path d="M788.68,887.82l11.38-6.62c1-.58,1.49-1.15,1.49-1.73v-1.63c0,.58-.5,1.15-1.5,1.73l-11.38,6.62a5.62,5.62,0,0,1-6,0l-11.45-6.61c-1-.59-1.52-1.17-1.52-1.76v1.63c0,.59.5,1.17,1.51,1.76l11.46,6.61A5.62,5.62,0,0,0,788.68,887.82Z" fill="#ace5f7"/><path d="M818.21,893.42l11.38-6.61q1.5-.87,1.5-1.74v-1.63c0,.58-.5,1.16-1.49,1.73l-11.38,6.62a5.62,5.62,0,0,1-6,0l-11.46-6.61c-1-.59-1.51-1.17-1.51-1.75v1.63c0,.58.5,1.16,1.51,1.75l11.45,6.61A5.62,5.62,0,0,0,818.21,893.42Z" fill="#ace5f7"/><path d="M707.72,884.2l-11.45-6.61c-1-.58-1.51-1.17-1.51-1.75v1.63c0,.58.51,1.17,1.52,1.75l11.45,6.61a5.62,5.62,0,0,0,6,0l11.38-6.61c1-.58,1.49-1.16,1.49-1.73v-1.63c0,.57-.5,1.15-1.5,1.73l-11.38,6.61A5.62,5.62,0,0,1,707.72,884.2Z" fill="#ace5f7"/><path d="M737.56,889.63,726.1,883c-1-.58-1.51-1.17-1.51-1.75v1.63c0,.58.5,1.17,1.51,1.75l11.45,6.61a5.64,5.64,0,0,0,6,0L755,884.65c1-.57,1.49-1.15,1.49-1.73v-1.63c0,.58-.49,1.15-1.49,1.73l-11.38,6.62A5.62,5.62,0,0,1,737.56,889.63Z" fill="#ace5f7"/><path d="M768.61,899.48,780,892.87c1-.58,1.49-1.16,1.49-1.74V889.5q0,.87-1.5,1.74l-11.38,6.61a5.61,5.61,0,0,1-6,0l-11.46-6.61c-1-.59-1.51-1.17-1.51-1.76v1.63c0,.59.51,1.17,1.52,1.76l11.45,6.61A5.62,5.62,0,0,0,768.61,899.48Z" fill="#ace5f7"/><path d="M798.14,905.08l11.38-6.61q1.5-.87,1.5-1.74V895.1c0,.58-.5,1.16-1.5,1.74l-11.38,6.61a5.62,5.62,0,0,1-6,0l-11.45-6.61c-1-.59-1.52-1.17-1.52-1.75v1.63c0,.58.5,1.17,1.51,1.75l11.46,6.61A5.61,5.61,0,0,0,798.14,905.08Z" fill="#ace5f7"/><path d="M909.64,861.44,817.81,914.8a5.62,5.62,0,0,1-6,0l-11.45-6.61c-1-.59-1.52-1.17-1.52-1.75v1.63c0,.58.5,1.16,1.51,1.75l11.46,6.61a5.61,5.61,0,0,0,6,0l91.83-53.36c1-.58,1.49-1.16,1.49-1.74V859.7C911.13,860.28,910.63,860.86,909.64,861.44Z" fill="#ace5f7"/><path d="M687.65,895.87l-11.45-6.62c-1-.58-1.51-1.16-1.51-1.75v1.63c0,.59.5,1.17,1.51,1.75l11.45,6.62a5.65,5.65,0,0,0,6,0L705,890.88c1-.58,1.49-1.15,1.5-1.73v-1.63c0,.58-.5,1.15-1.49,1.73l-11.39,6.62A5.65,5.65,0,0,1,687.65,895.87Z" fill="#ace5f7"/><path d="M717.49,901.29,706,894.68c-1-.58-1.51-1.17-1.51-1.75v1.63c0,.58.5,1.17,1.52,1.75l11.45,6.61a5.62,5.62,0,0,0,6,0l11.38-6.62c1-.57,1.49-1.15,1.49-1.73V893c0,.58-.5,1.16-1.49,1.73l-11.38,6.62A5.64,5.64,0,0,1,717.49,901.29Z" fill="#ace5f7"/><path d="M731.08,904.53l11.45,6.61a5.64,5.64,0,0,0,6,0l11.38-6.61c1-.58,1.49-1.16,1.49-1.74v-1.63c0,.58-.49,1.16-1.49,1.73l-11.38,6.62a5.62,5.62,0,0,1-6,0l-11.46-6.61c-1-.58-1.51-1.17-1.51-1.75v1.63C729.56,903.36,730.07,904,731.08,904.53Z" fill="#ace5f7"/><path d="M778.08,916.74l11.38-6.61c1-.58,1.49-1.16,1.5-1.73v-1.63c0,.57-.5,1.15-1.49,1.73l-11.38,6.61a5.62,5.62,0,0,1-6,0l-11.46-6.61c-1-.59-1.51-1.17-1.51-1.75v1.63c0,.58.5,1.16,1.51,1.75l11.45,6.61A5.62,5.62,0,0,0,778.08,916.74Z" fill="#ace5f7"/><path d="M667.59,907.53l-11.45-6.62c-1-.58-1.52-1.16-1.52-1.75v1.63c0,.59.5,1.17,1.51,1.75l11.46,6.62a5.61,5.61,0,0,0,6,0L685,902.54c1-.58,1.5-1.15,1.5-1.73v-1.63c0,.58-.5,1.15-1.49,1.73l-11.38,6.62A5.62,5.62,0,0,1,667.59,907.53Z" fill="#ace5f7"/><path d="M686,908l11.45,6.62a5.62,5.62,0,0,0,6,0L714.81,908q1.5-.87,1.5-1.74v-1.63c0,.58-.5,1.16-1.49,1.74L703.44,913a5.62,5.62,0,0,1-6,0L686,906.34c-1-.58-1.51-1.16-1.51-1.75v1.63C684.45,906.81,685,907.39,686,908Z" fill="#ace5f7"/><path d="M711,916.19l11.45,6.61a5.62,5.62,0,0,0,6,0l11.38-6.61c1-.58,1.49-1.16,1.49-1.74v-1.63q0,.87-1.5,1.74l-11.38,6.61a5.62,5.62,0,0,1-6,0L711,914.56c-1-.59-1.52-1.17-1.52-1.75v1.63C709.5,915,710,915.6,711,916.19Z" fill="#ace5f7"/><path d="M740.55,921.79,752,928.4a5.6,5.6,0,0,0,6,0l11.38-6.61c1-.58,1.5-1.16,1.5-1.73v-1.63c0,.57-.5,1.15-1.49,1.73L758,926.77a5.6,5.6,0,0,1-6,0l-11.46-6.61c-1-.58-1.51-1.16-1.51-1.75V920C739,920.63,739.54,921.21,740.55,921.79Z" fill="#ace5f7"/><path d="M809.61,919.57l-17.26,10a5.57,5.57,0,0,1-6,0L774.89,923c-1-.58-1.52-1.17-1.52-1.75v1.63c0,.58.5,1.17,1.52,1.75l11.45,6.61a5.58,5.58,0,0,0,6,0l17.25-10c1-.58,1.49-1.16,1.49-1.73v-1.63C811.1,918.41,810.6,919,809.61,919.57Z" fill="#ace5f7"/><path d="M666.4,912.47v-1.63c0,.58-.5,1.16-1.49,1.73l-11.38,6.61a5.62,5.62,0,0,1-6,0l-11.45-6.61c-1-.59-1.51-1.17-1.51-1.75v1.63c0,.58.5,1.16,1.51,1.75l11.46,6.61a5.62,5.62,0,0,0,6,0l11.38-6.62C665.9,913.63,666.4,913.05,666.4,912.47Z" fill="#ace5f7"/><path d="M696.24,917.9v-1.63c0,.58-.49,1.16-1.49,1.73l-21.56,12.53a5.6,5.6,0,0,1-6,0l-11.45-6.61c-1-.58-1.51-1.16-1.51-1.75v1.63c0,.59.51,1.17,1.52,1.75l11.45,6.61a5.6,5.6,0,0,0,6,0l21.56-12.52C695.74,919.06,696.24,918.48,696.24,917.9Z" fill="#ace5f7"/><path d="M721.59,925.94v-1.63c0,.58-.5,1.16-1.49,1.73l-27.25,15.84a5.62,5.62,0,0,1-6,0l-11.45-6.61c-1-.58-1.52-1.17-1.52-1.75v1.63c0,.58.5,1.17,1.51,1.75l11.46,6.61a5.6,5.6,0,0,0,6,0l27.25-15.84C721.09,927.1,721.58,926.52,721.59,925.94Z" fill="#ace5f7"/><path d="M751.12,931.55v-1.63c0,.57-.5,1.15-1.49,1.73L712.5,953.23a5.64,5.64,0,0,1-6,0L695,946.62c-1-.59-1.51-1.17-1.51-1.75v1.63c0,.58.5,1.17,1.51,1.75l11.45,6.61a5.62,5.62,0,0,0,6,0l37.14-21.58C750.62,932.7,751.12,932.12,751.12,931.55Z" fill="#ace5f7"/><path d="M783.67,934.64l-11.39,6.62a5.63,5.63,0,0,1-6,0l-11.46-6.62c-1-.58-1.51-1.16-1.51-1.75v1.63c0,.59.51,1.17,1.52,1.75l11.45,6.62a5.65,5.65,0,0,0,6,0l11.38-6.62c1-.58,1.49-1.15,1.5-1.73v-1.63C785.16,933.49,784.66,934.06,783.67,934.64Z" fill="#ace5f7"/><path d="M763.6,946.3l-11.38,6.62a5.62,5.62,0,0,1-6,0l-11.45-6.62c-1-.58-1.52-1.16-1.52-1.75v1.63c0,.59.5,1.17,1.51,1.75l11.46,6.62a5.62,5.62,0,0,0,6,0l11.37-6.62c1-.57,1.5-1.15,1.5-1.73v-1.63C765.09,945.15,764.59,945.73,763.6,946.3Z" fill="#ace5f7"/><path d="M743.54,958l-11.38,6.62a5.64,5.64,0,0,1-6,0L714.69,958c-1-.59-1.52-1.17-1.52-1.76v1.64c0,.58.5,1.16,1.51,1.75l11.46,6.61a5.62,5.62,0,0,0,6,0l11.38-6.62c1-.57,1.49-1.15,1.49-1.73v-1.63C745,956.81,744.53,957.39,743.54,958Z" fill="#ace5f7"/><path d="M916.74,739.55q3,1.74,0,3.48L633.07,907.89a5.62,5.62,0,0,1-6,0l-5.13-3q-3-1.74,0-3.48L905.59,736.59a5.64,5.64,0,0,1,6,0Zm7.74,5.42a5.57,5.57,0,0,0-6,0L896.91,757.5c-2,1.16-2,2.32,0,3.48l11.45,6.61a5.62,5.62,0,0,0,6,0L936,755.06q3-1.74,0-3.48Zm19.66,11.34a5.62,5.62,0,0,0-6,0l-11.38,6.61c-2,1.17-2,2.32,0,3.48L938.22,773a5.64,5.64,0,0,0,6,0l11.38-6.61c2-1.16,2-2.32,0-3.49Zm-49.91,6.24a5.57,5.57,0,0,0-6,0l-11.38,6.61q-3,1.74,0,3.48l11.45,6.61a5.62,5.62,0,0,0,6,0l11.38-6.61q3-1.74,0-3.48ZM924.07,768a5.61,5.61,0,0,0-6,0l-11.39,6.62c-2,1.16-2,2.32,0,3.48l11.45,6.61a5.64,5.64,0,0,0,6,0l11.38-6.61q3-1.74,0-3.49Zm39.73-.31a5.64,5.64,0,0,0-6,0L931.72,782.8q-3,1.74,0,3.48l11.45,6.62a5.62,5.62,0,0,0,6,0l26.06-15.15c2-1.16,2-2.31,0-3.48Zm-89.63,6.54a5.62,5.62,0,0,0-6,0l-11.38,6.62c-2,1.16-2,2.32,0,3.48l11.45,6.61a5.6,5.6,0,0,0,6,0l11.38-6.61c2-1.16,2-2.32,0-3.48ZM904,779.63a5.61,5.61,0,0,0-6,0l-11.38,6.62c-2,1.16-2,2.32,0,3.48l11.45,6.61a5.6,5.6,0,0,0,6,0l11.38-6.61q3-1.74,0-3.48Zm25,8.22a5.62,5.62,0,0,0-6,0l-11.38,6.61q-3,1.74,0,3.48l11.45,6.62a5.62,5.62,0,0,0,6,0l11.38-6.62c2-1.16,2-2.31,0-3.48Zm55.06-9.23a5.62,5.62,0,0,0-6,0L941,800.21q-3,1.74,0,3.48l11.45,6.61a5.62,5.62,0,0,0,6,0l37.14-21.58q3-1.74,0-3.48Zm19.33,11.55a5.62,5.62,0,0,0-6,0L986,796.78c-2,1.16-2,2.32,0,3.48l11.45,6.61a5.62,5.62,0,0,0,6,0l11.38-6.61q3-1.74,0-3.48ZM989.37,805l-5.73-3.31a5.64,5.64,0,0,0-6,0l-11.38,6.61q-3,1.74,0,3.48l5.73,3.31,5.72,3.31a5.62,5.62,0,0,0,6,0l11.38-6.62q3-1.74,0-3.48ZM854.1,785.87a5.62,5.62,0,0,0-6,0l-11.38,6.61c-2,1.16-2,2.32,0,3.48l11.46,6.61a5.58,5.58,0,0,0,6,0L865.57,796q3-1.74,0-3.48Zm29.84,5.42a5.65,5.65,0,0,0-6,0l-11.38,6.62q-3,1.74,0,3.48L878,808a5.65,5.65,0,0,0,6,0l11.39-6.62c2-1.16,2-2.32,0-3.48Zm25,8.22a5.62,5.62,0,0,0-6,0l-11.39,6.61c-2,1.16-2,2.33,0,3.49l11.45,6.61a5.62,5.62,0,0,0,6,0l11.38-6.62c2-1.15,2-2.32,0-3.48Zm29.53,5.6a5.63,5.63,0,0,0-6,0l-11.39,6.62c-2,1.16-2,2.32,0,3.48l11.46,6.61a5.61,5.61,0,0,0,6,0L950,815.21c2-1.16,2-2.32,0-3.48ZM963,813.68a5.62,5.62,0,0,0-6,0l-11.38,6.61q-3,1.74,0,3.48l11.46,6.62a5.62,5.62,0,0,0,6,0l11.38-6.62c2-1.16,2-2.32,0-3.48ZM834,797.53a5.62,5.62,0,0,0-6,0l-11.38,6.61q-3,1.74,0,3.48l11.46,6.62a5.62,5.62,0,0,0,6,0l11.38-6.61q3-1.74,0-3.48ZM863.87,803a5.62,5.62,0,0,0-6,0l-11.38,6.61c-2,1.16-2,2.32,0,3.48L858,819.66a5.62,5.62,0,0,0,6,0l11.38-6.62q3-1.74,0-3.48Zm25,8.21a5.62,5.62,0,0,0-6,0l-11.38,6.61c-2,1.16-2,2.33,0,3.49L883,827.88a5.61,5.61,0,0,0,6,0l11.38-6.61c2-1.16,2-2.32,0-3.48Zm29.54,5.61a5.62,5.62,0,0,0-6,0l-11.38,6.61q-3,1.74,0,3.48l11.45,6.61a5.62,5.62,0,0,0,6,0l11.38-6.61q3-1.74,0-3.48Zm24.45,8.56a5.62,5.62,0,0,0-6,0L925.51,832c-2,1.16-2,2.33,0,3.49L937,842.05a5.62,5.62,0,0,0,6,0l11.38-6.62c2-1.15,2-2.32,0-3.48ZM814,809.19a5.62,5.62,0,0,0-6,0l-11.38,6.61c-2,1.17-2,2.32,0,3.48l11.45,6.62a5.62,5.62,0,0,0,6,0l11.38-6.62q3-1.74,0-3.48Zm29.84,5.43a5.62,5.62,0,0,0-6,0l-11.39,6.61c-2,1.16-2,2.32,0,3.48l11.46,6.62a5.62,5.62,0,0,0,6,0l11.39-6.62c2-1.15,2-2.32,0-3.48Zm25.05,8.21a5.64,5.64,0,0,0-6,0l-11.38,6.62c-2,1.15-2,2.32,0,3.48l11.46,6.61a5.61,5.61,0,0,0,6,0l11.39-6.61c2-1.16,2-2.32,0-3.48Zm29.53,5.61a5.62,5.62,0,0,0-6,0L881,835.05c-2,1.16-2,2.32,0,3.48l11.45,6.62a5.64,5.64,0,0,0,6,0l11.38-6.61c2-1.16,2-2.32,0-3.48Zm25.26,8.09a5.62,5.62,0,0,0-6,0l-17.26,10q-3,1.76,0,3.49l11.45,6.61a5.62,5.62,0,0,0,6,0l17.25-10q3-1.73,0-3.48ZM793.9,820.85a5.61,5.61,0,0,0-6,0l-11.38,6.61c-2,1.17-2,2.32,0,3.48L788,837.56a5.62,5.62,0,0,0,6,0l11.38-6.62q3-1.74,0-3.48Zm29.84,5.43a5.62,5.62,0,0,0-6,0l-11.38,6.61q-3,1.74,0,3.48L817.82,843a5.64,5.64,0,0,0,6,0l11.38-6.61c2-1.16,2-2.33,0-3.49Zm25,8.22a5.64,5.64,0,0,0-6,0l-11.38,6.62q-3,1.74,0,3.48l11.45,6.61a5.62,5.62,0,0,0,6,0l11.38-6.61q3-1.74,0-3.48Zm29.53,5.6a5.62,5.62,0,0,0-6,0l-11.38,6.61c-2,1.16-2,2.32,0,3.48l11.46,6.62a5.62,5.62,0,0,0,6,0l11.38-6.62c2-1.16,2-2.32,0-3.48Zm-104.48-7.59a5.62,5.62,0,0,0-6,0l-11.38,6.62q-3,1.74,0,3.48l11.45,6.61a5.62,5.62,0,0,0,6,0l11.38-6.61c2-1.16,2-2.33,0-3.49Zm29.83,5.43a5.61,5.61,0,0,0-6,0l-11.38,6.61c-2,1.16-2,2.33,0,3.49l11.45,6.61a5.64,5.64,0,0,0,6,0L815.15,848c2-1.16,2-2.33,0-3.49Zm25.05,8.22a5.65,5.65,0,0,0-6,0l-11.39,6.62q-3,1.74,0,3.48l11.45,6.62a5.65,5.65,0,0,0,6,0l11.39-6.62c2-1.16,2-2.32,0-3.48Zm29.54,5.6a5.62,5.62,0,0,0-6,0l-11.38,6.61q-3,1.74,0,3.49l11.46,6.61a5.62,5.62,0,0,0,6,0l11.38-6.62q3-1.74,0-3.48Zm-104.49-7.59a5.62,5.62,0,0,0-6,0l-11.38,6.62c-2,1.16-2,2.32,0,3.48l11.46,6.61a5.62,5.62,0,0,0,6,0l11.38-6.61c2-1.16,2-2.32,0-3.48Zm29.83,5.43a5.61,5.61,0,0,0-6,0l-11.38,6.62c-2,1.16-2,2.31,0,3.48l11.45,6.61a5.62,5.62,0,0,0,6,0l11.38-6.61q3-1.74,0-3.48Zm25,8.22a5.6,5.6,0,0,0-6,0l-11.38,6.61c-2,1.16-2,2.32,0,3.48l11.45,6.62a5.62,5.62,0,0,0,6,0l11.38-6.62q3-1.74,0-3.48Zm29.55,5.6a5.64,5.64,0,0,0-6,0L820.8,870c-2,1.16-2,2.31,0,3.48l11.46,6.61a5.61,5.61,0,0,0,6,0l11.38-6.61q3-1.75,0-3.49Zm-104.49-7.59a5.65,5.65,0,0,0-6,0l-11.39,6.62c-2,1.16-2,2.32,0,3.48l11.46,6.61a5.62,5.62,0,0,0,6,0l11.38-6.61c2-1.16,2-2.32,0-3.48Zm29.83,5.43a5.62,5.62,0,0,0-6,0l-11.38,6.62c-2,1.16-2,2.31,0,3.48L757.63,878a5.62,5.62,0,0,0,6,0L775,871.36q3-1.74,0-3.48Zm25.05,8.22a5.6,5.6,0,0,0-6,0l-11.38,6.61q-3,1.74,0,3.49l11.45,6.61a5.62,5.62,0,0,0,6,0l11.38-6.62c2-1.16,2-2.32,0-3.48Zm29.54,5.6a5.62,5.62,0,0,0-6,0l-11.38,6.62c-2,1.16-2,2.31,0,3.48l11.46,6.61a5.62,5.62,0,0,0,6,0l11.38-6.62c2-1.16,2-2.31,0-3.47ZM713.64,867.5a5.62,5.62,0,0,0-6,0l-11.38,6.61q-3,1.74,0,3.48l11.45,6.61a5.62,5.62,0,0,0,6,0l11.38-6.61q3-1.74,0-3.48Zm29.84,5.42a5.62,5.62,0,0,0-6,0l-11.38,6.61c-2,1.16-2,2.32,0,3.48l11.46,6.61a5.62,5.62,0,0,0,6,0L755,883q3-1.74,0-3.48Zm25,8.22a5.62,5.62,0,0,0-6,0l-11.38,6.61q-3,1.74,0,3.49l11.46,6.61a5.62,5.62,0,0,0,6,0L780,891.24c2-1.17,2-2.32,0-3.48Zm29.54,5.6a5.6,5.6,0,0,0-6,0l-11.38,6.61q-3,1.74,0,3.48l11.45,6.61a5.62,5.62,0,0,0,6,0l11.38-6.61q3-1.74,0-3.49Zm100.1-35.4a5.62,5.62,0,0,0-6,0L800.32,904.7c-2,1.17-2,2.33,0,3.49l11.45,6.61a5.62,5.62,0,0,0,6,0l91.83-53.36c2-1.16,2-2.32,0-3.48ZM693.57,879.16a5.59,5.59,0,0,0-6,0l-11.39,6.61c-2,1.16-2,2.32,0,3.48l11.45,6.62a5.65,5.65,0,0,0,6,0l11.39-6.62c2-1.16,2-2.32,0-3.48Zm29.84,5.43a5.58,5.58,0,0,0-6,0L706,891.2q-3,1.74,0,3.48l11.45,6.61a5.64,5.64,0,0,0,6,0l11.38-6.62c2-1.16,2-2.32,0-3.48Zm25.05,8.21a5.64,5.64,0,0,0-6,0l-11.38,6.61c-2,1.16-2,2.33,0,3.49l11.46,6.61a5.62,5.62,0,0,0,6,0l11.38-6.62c2-1.16,2-2.31,0-3.47ZM778,898.4a5.6,5.6,0,0,0-6,0L760.61,905q-3,1.74,0,3.48l11.46,6.61a5.62,5.62,0,0,0,6,0l11.38-6.61c2-1.16,2-2.32,0-3.48ZM673.5,890.82a5.61,5.61,0,0,0-6,0l-11.38,6.61q-3,1.74,0,3.48l11.45,6.62a5.62,5.62,0,0,0,6,0L685,900.91q3-1.74,0-3.48Zm29.84,5.43a5.6,5.6,0,0,0-6,0L686,902.86c-2,1.16-2,2.32,0,3.48L697.42,913a5.62,5.62,0,0,0,6,0l11.38-6.61q3-1.76,0-3.49Zm25,8.21a5.64,5.64,0,0,0-6,0L711,911.07q-3,1.75,0,3.49l11.45,6.61a5.62,5.62,0,0,0,6,0l11.38-6.61q3-1.74,0-3.49Zm29.54,5.6a5.64,5.64,0,0,0-6,0l-11.37,6.61q-3,1.74,0,3.48L752,926.77a5.6,5.6,0,0,0,6,0l11.38-6.61c2-1.16,2-2.32,0-3.48Zm40.2-.59a5.62,5.62,0,0,0-6,0l-17.25,10q-3,1.74,0,3.48l11.46,6.61a5.57,5.57,0,0,0,6,0l17.26-10c2-1.16,2-2.32,0-3.48Zm-144.69-7a5.62,5.62,0,0,0-6,0l-11.38,6.61c-2,1.16-2,2.32,0,3.49l11.45,6.61a5.62,5.62,0,0,0,6,0l11.38-6.61c2-1.16,2-2.32,0-3.48Zm29.83,5.43a5.61,5.61,0,0,0-6,0l-21.56,12.53q-3,1.74,0,3.48l11.45,6.61a5.6,5.6,0,0,0,6,0L694.75,918q3-1.74,0-3.48Zm25.35,8a5.62,5.62,0,0,0-6,0l-27.25,15.83q-3,1.76,0,3.49l11.45,6.61a5.62,5.62,0,0,0,6,0L720.1,926c2-1.16,2-2.31,0-3.48Zm29.54,5.6a5.62,5.62,0,0,0-6,0L695,943.13q-3,1.75,0,3.49l11.45,6.61a5.64,5.64,0,0,0,6,0l37.13-21.58q3-1.74,0-3.48Zm34,3a5.66,5.66,0,0,0-6,0l-11.38,6.62q-3,1.74,0,3.48l11.46,6.62a5.63,5.63,0,0,0,6,0l11.39-6.62c2-1.16,2-2.32,0-3.48Zm-20.07,11.66a5.64,5.64,0,0,0-6,0l-11.38,6.61c-2,1.16-2,2.32,0,3.48l11.45,6.62a5.62,5.62,0,0,0,6,0l11.38-6.62c2-1.16,2-2.31,0-3.48Zm-20.07,11.66a5.62,5.62,0,0,0-6,0l-11.38,6.61c-2,1.16-2,2.33,0,3.49l11.45,6.61a5.64,5.64,0,0,0,6,0L743.54,958c2-1.15,2-2.32,0-3.48Z" fill="#d5f2fb"/><g opacity="0.45"><polygon points="727.16 971.53 686.38 995.08 571.34 928.66 612.12 905.12 727.16 971.53" fill="#ace5f7"/><polygon points="1064.86 776.11 1024.08 799.65 909.04 733.23 949.81 709.69 1064.86 776.11" fill="#ace5f7"/></g><g id="aca00f9f-5213-40a9-8a1a-00cef7317041" data-name="Touchpad"><path id="b7a8ae89-778f-450e-a183-2e3400d3ae48" data-name="Shadow1" d="M1080.85,898.64q3.81,2.21,0,4.41l-173.1,100.6a7.13,7.13,0,0,1-7.62,0l-105.47-60.9q-3.82-2.21,0-4.41L967.76,837.75a7.08,7.08,0,0,1,7.61,0Z" fill="url(#a2a96530-a321-494c-a3e8-76c8830e03be)"/><path id="a6d9a2b5-efe0-43e0-b887-51eb3755ea70" data-name="Shadow1" d="M1080.85,898.64q3.81,2.21,0,4.41l-173.1,100.6a7.13,7.13,0,0,1-7.62,0l-105.47-60.9q-3.82-2.21,0-4.41L967.76,837.75a7.08,7.08,0,0,1,7.61,0Z" fill="url(#f4776855-bae7-433a-98f4-9985eed0041a)"/><path id="bf700184-19f0-4d1d-a313-c8e1ebc93440" data-name="Shadow1" d="M1080.85,898.64q3.81,2.21,0,4.41l-173.1,100.6a7.13,7.13,0,0,1-7.62,0l-105.47-60.9q-3.82-2.21,0-4.41L967.76,837.75a7.08,7.08,0,0,1,7.61,0Z" fill="url(#ead86289-fb3a-4c85-850c-e7ddb66718b3)"/><path id="b818b8d0-cde6-44f7-9711-69a53366f125" data-name="Shadow1" d="M1080.85,898.64q3.81,2.21,0,4.41l-173.1,100.6a7.13,7.13,0,0,1-7.62,0l-105.47-60.9q-3.82-2.21,0-4.41L967.76,837.75a7.08,7.08,0,0,1,7.61,0Z" fill="url(#b8e3fa57-625a-4f34-8032-92effc868304)"/></g></g></g><g id="f921f355-f54f-4798-be3b-f3d1ad388e03" data-name="Smartphone"><g id="a5925de3-6dc5-4af1-a441-95f2876a015a" data-name="Smartphone"><polygon id="bdef0dd6-8245-41fd-ae64-5786a4b1ebff" data-name="Shadow" points="507.75 1074.04 358.29 987.24 474.91 919.59 612.84 1000.84 507.75 1074.04" fill="url(#f8b7f7d5-007b-4a7c-bf08-ed30fa9d9b4a)"/><g filter="url(#b43ed69b-76d1-4ddc-b89c-821e42061ca5)"><path d="M601.31,1026,518,1074.13a8.34,8.34,0,0,1-7.47.31l-7.63-4.41c-1.92-1.11-1.68-3,.53-4.32l83.36-48.12a8.28,8.28,0,0,1,7.47-.31l7.63,4.41C603.76,1022.79,603.52,1024.72,601.31,1026Z" fill="#0f0b26" opacity="0.32"/></g><path d="M599.41,1027.57l-78.69,45.5c-2.22,1.27-7.26,2.36-9.17,1.26l-7.64-4.41c-1.91-1.11,0-4,2.23-5.27l78.7-45.49a8.33,8.33,0,0,1,7.48-.31l7.63,4.41C601.87,1024.37,601.63,1026.3,599.41,1027.57Z" fill="none" stroke="#273637" stroke-miterlimit="10" stroke-opacity="0.31"/><path id="aa164a2c-01c1-4a79-aaa2-866465ab381e" data-name="Shadowlaptop" d="M582.31,764.67v-4.48c0-11.5-8.16-16.14-18.19-10.35l-23.93,13.82-2.81-1.77.17,28.85Z" fill="url(#a35deb4b-61af-45ea-a9e8-07bccfdbac96)"/><g id="b34dbe6a-90d5-45ee-a0f3-7b9594656398" data-name="Lside"><path id="e0195457-3fd5-466c-9531-ec2f9e6f1c1f" data-name="Lside" d="M593.63,757.36l0,0-.05,0h0c-3.29-1.83-7.81-1.53-12.79,1.34l-75.28,43.47c-10,5.79-18.18,19.85-18.18,31.35v220.39c0,5.62,1.95,9.6,5.12,11.53h0l.12.07.2.11,15,8.47L608.6,765.79Z" fill="url(#e8ff520e-0b4a-4c97-84ee-38a311d5bc8e)"/><g id="e39220ef-f5e2-4281-8fd1-4c6117be0782" data-name="Buttons"><path d="M498.38,889.25v13.06a2,2,0,0,1-.89,1.94h0l-2.42,1.45-2.7-19.8,2-1.28.06,0h0l.18-.08a1.61,1.61,0,0,1,1.36.21A5.72,5.72,0,0,1,498.38,889.25Zm-2.37-24a1.54,1.54,0,0,0-1.52-.12h0l-2.24,1.36,2.82,10.74,2.17-1.33v0c.69-.16,1.15-.89,1.15-2v-4A5.72,5.72,0,0,0,496,865.29Zm.92,44.73a3.73,3.73,0,0,0-.45-.44,2.94,2.94,0,0,0-.47-.34h0a1.62,1.62,0,0,0-.43-.19l-.12,0a1.55,1.55,0,0,0-.29,0H495a1,1,0,0,0-.3,0h-.08l-.18.09h0l-.06,0-2,1.27,2.7,19.81,2.42-1.45v0h0a1.22,1.22,0,0,0,.35-.27h0a1.6,1.6,0,0,0,.25-.37l0-.07a1.89,1.89,0,0,0,.14-.44s0-.07,0-.12a4.23,4.23,0,0,0,.06-.65h0V913.77h0c0-.11,0-.22,0-.33A6.13,6.13,0,0,0,496.93,910Z" fill="#81e1ff"/><path d="M491.26,925.52V912.46c0-1.75,1.07-2.55,2.37-1.79h0A5.67,5.67,0,0,1,496,915.2v13.06c0,1.74-1.07,2.55-2.38,1.79h0A5.7,5.7,0,0,1,491.26,925.52Zm2.37-20h0c1.31.76,2.38,0,2.38-1.79V890.68a5.7,5.7,0,0,0-2.38-4.53h0c-1.3-.76-2.37.05-2.37,1.79V901A5.69,5.69,0,0,0,493.63,905.53Zm0-28.45h0c1.31.75,2.38-.05,2.38-1.79v-4a5.7,5.7,0,0,0-2.38-4.53h0c-1.3-.75-2.37,0-2.37,1.79v4A5.72,5.72,0,0,0,493.63,877.08Z" fill="#6ed2f1"/></g></g><g id="b513bd8a-31a3-4cc4-8278-0536e87bea77" data-name="Front"><path d="M592.05,1030.2l-67.75,39.11c-11.54,6.67-20.9-.41-20.9-15.8V849.57c0-15.39,9.36-33.28,20.9-39.94l67.75-39.12c11.55-6.66,20.91.41,20.91,15.8v204C613,1005.65,603.6,1023.53,592.05,1030.2Z" fill="#0088a1"/><path d="M595.82,768.34,520.54,811.8c-9.47,5.47-17.14,18.7-17.14,29.55v220.38c0,10.86,7.67,15.22,17.14,9.76L595.82,1028c9.46-5.46,17.14-18.69,17.14-29.54V778.09C613,767.24,605.28,762.87,595.82,768.34ZM608.6,1001c0,8.1-5.72,18-12.78,22l-75.28,43.47c-7.07,4.07-12.79.82-12.79-7.28V838.83c0-8.09,5.72-18,12.79-22l9.14-5.28c.58-.33,1.05-.06,1.05.6v4.54c0,1.66,1.17,2.33,2.62,1.49L583,789.47a5.75,5.75,0,0,0,2.63-4.51v-4.54a2.29,2.29,0,0,1,1-1.81l9.15-5.28c7.06-4.08,12.78-.82,12.78,7.28Z" fill="#00637f"/><path d="M595.82,1029.23l-75.28,43.46c-10,5.79-18.19,1.15-18.19-10.35V842c0-11.49,8.16-25.56,18.19-31.35l75.28-43.46c10-5.79,18.19-1.15,18.19,10.35V997.87C614,1009.37,605.85,1023.44,595.82,1029.23ZM520.54,813c-8.88,5.13-16.09,17.57-16.09,27.74v220.39c0,10.17,7.21,14.28,16.09,9.15l75.28-43.46c8.87-5.12,16.09-17.56,16.09-27.74V778.7c0-10.17-7.22-14.28-16.09-9.16Z" fill="#d5f2fb"/><path d="M595.82,770.14c8.58-4.95,15.57-1,15.57,8.86V999.38c0,9.84-7,21.88-15.57,26.84l-75.28,43.46c-8.59,5-15.57,1-15.57-8.86V840.44c0-9.84,7-21.88,15.57-26.84l75.28-43.46m0-.6L520.54,813c-8.88,5.13-16.1,17.57-16.1,27.74v220.39c0,10.17,7.22,14.28,16.1,9.15l75.28-43.46c8.87-5.12,16.09-17.57,16.09-27.74V778.7c0-10.17-7.22-14.28-16.09-9.16Z" fill="#045989"/><path d="M546.32,932.62a10.31,10.31,0,0,1-4.68,8c-2.58,1.49-4.67.3-4.67-2.66a10.28,10.28,0,0,1,4.67-8C544.22,928.47,546.32,929.66,546.32,932.62Zm10.27-11.11a10.3,10.3,0,0,0-4.67,8.06c0,2.95,2.09,4.14,4.67,2.65a10.29,10.29,0,0,0,4.68-8.05C561.27,921.21,559.17,920,556.59,921.51Zm14.95-8.45a10.3,10.3,0,0,0-4.67,8.06c0,3,2.09,4.15,4.67,2.66a10.31,10.31,0,0,0,4.68-8.06C576.22,912.76,574.12,911.57,571.54,913.06Zm15-8.44a10.28,10.28,0,0,0-4.67,8c0,3,2.09,4.15,4.67,2.66a10.31,10.31,0,0,0,4.68-8.06C591.17,904.32,589.07,903.12,586.49,904.62Zm194.17-234.5a11.54,11.54,0,0,1-5.25,9l-52.48,30.3c-2.9,1.68-5.25.34-5.25-3V670.37a11.57,11.57,0,0,1,5.25-9l1.75-1v-12c0-15.41,11-34.45,24.49-42.22s24.49-1.47,24.49,13.94v12l1.75-1c2.9-1.67,5.25-.33,5.25,3Zm-17.5-32v-12c0-8.84-6.29-12.41-14-8s-14,15.29-14,24.12v12Z" fill-opacity="0.9" fill="url(#f15d1a33-57bd-42c7-9be0-69b83d5000e7)"/></g></g></g></svg>