<svg id="TwoPerson" xmlns="http://www.w3.org/2000/svg" xmlns:xlink="http://www.w3.org/1999/xlink" viewBox="0 0 2500 2500"><defs><style>.cls-1,.cls-27,.cls-54{fill:none;}.cls-2{filter:url(#AI_DesenfoqueGaussiano_7);}.cls-3{fill:url(#linear-gradient);}.cls-4{fill:url(#radial-gradient);}.cls-5{clip-path:url(#clip-path);}.cls-6{fill:#00a7d4;}.cls-7{fill:#52d6ff;}.cls-8{fill:url(#Nueva_muestra_de_degradado_70);}.cls-9{fill:#20bcec;}.cls-10{fill:url(#Degradado_sin_nombre_16);}.cls-11{opacity:0.2;}.cls-12{fill:url(#linear-gradient-2);}.cls-13,.cls-37{opacity:0.39;}.cls-14{fill:url(#linear-gradient-3);}.cls-15,.cls-16{fill:url(#Nueva_muestra_de_degradado_41);}.cls-16{fill-opacity:0.4;}.cls-17{fill-opacity:0.2;fill:url(#Nueva_muestra_de_degradado_41-3);}.cls-18{fill:#efe8f5;}.cls-19{fill:#355bfc;}.cls-20{fill:url(#Nueva_muestra_de_degradado_13);}.cls-21{fill:url(#Nueva_muestra_de_degradado_13-2);}.cls-22{fill:#e86f8a;}.cls-23{fill:#ffa3ab;}.cls-24{fill:#869dfd;}.cls-25{fill:url(#Nueva_muestra_de_degradado_38);}.cls-26{fill:url(#Degradado_sin_nombre_463);}.cls-27{stroke:#4f18cd;stroke-miterlimit:10;stroke-width:4.58px;}.cls-27,.cls-54{stroke-linecap:round;}.cls-28{fill:url(#Nueva_muestra_de_degradado_13-3);}.cls-29{fill:#e7708a;}.cls-30{fill:#1cabb9;}.cls-31{fill:#97eee5;}.cls-32{fill:#257ac2;}.cls-33{fill:url(#Nueva_muestra_de_degradado_5);}.cls-34{fill:url(#linear-gradient-4);}.cls-35{fill:url(#linear-gradient-5);}.cls-36{fill:#39c2ec;}.cls-37{fill:url(#Nueva_muestra_de_degradado_45);}.cls-38{opacity:0.36;}.cls-39{fill:#141226;}.cls-40{fill:#e4e1fa;}.cls-41{fill:#eef7fb;}.cls-42{fill:#8586c1;}.cls-43{fill:url(#Nueva_muestra_de_degradado_13-4);}.cls-44{fill:url(#Nueva_muestra_de_degradado_38-2);}.cls-45{fill:url(#Nueva_muestra_de_degradado_38-3);}.cls-46{fill:#7a67e5;}.cls-47{fill:url(#Nueva_muestra_de_degradado_5-2);}.cls-48{fill:#f6fbfd;}.cls-49{filter:url(#AI_DesenfoqueGaussiano_4);}.cls-50,.cls-51{fill:#16292b;}.cls-50{opacity:0.16;}.cls-51{opacity:0.32;}.cls-52{fill:#181852;}.cls-53{fill:#fff;}.cls-54{stroke:#fff;stroke-linejoin:round;stroke-width:9.36px;}.cls-55{fill:#00b287;fill-rule:evenodd;}</style><filter id="AI_DesenfoqueGaussiano_7" name="AI_DesenfoqueGaussiano_7"><feGaussianBlur stdDeviation="7"/></filter><linearGradient id="linear-gradient" x1="29.44" y1="33.16" x2="247.63" y2="33.16" gradientUnits="userSpaceOnUse"><stop offset="0" stop-color="#0f0b26" stop-opacity="0.2"/><stop offset="0.48" stop-color="#0f0b26" stop-opacity="0.05"/><stop offset="1" stop-color="#0f0b26" stop-opacity="0"/></linearGradient><radialGradient id="radial-gradient" cx="2494.08" cy="-1747.28" r="44.83" gradientTransform="translate(-3438.44 1452.58) scale(1.4 0.81)" gradientUnits="userSpaceOnUse"><stop offset="0" stop-color="#0f0b26" stop-opacity="0.15"/><stop offset="1" stop-color="#0f0b26" stop-opacity="0"/></radialGradient><clipPath id="clip-path"><path class="cls-1" d="M464.16,1503s88.26-70.16,319.44-125c234-55.52,203.09-240.92,203.09-240.92L551.53,525.34,321.84,618.58,92.15,858s-7.07,528.45,8.83,528.45S265.3,1512.8,265.3,1512.8Z"/></clipPath><linearGradient id="Nueva_muestra_de_degradado_70" x1="-369.54" y1="1152.54" x2="-419.01" y2="1253.79" gradientTransform="translate(1407.2 300.41) rotate(17.32)" gradientUnits="userSpaceOnUse"><stop offset="0" stop-color="#52d6ff" stop-opacity="0.1"/><stop offset="0.04" stop-color="#30b8e2" stop-opacity="0.1"/><stop offset="0.15" stop-color="#0b97c2" stop-opacity="0.1"/><stop offset="0.87" stop-color="#0071b0" stop-opacity="0.3"/></linearGradient><radialGradient id="Degradado_sin_nombre_16" cx="700.95" cy="1505.99" r="572.61" gradientTransform="translate(0 -1196.29) scale(1 1.79)" gradientUnits="userSpaceOnUse"><stop offset="0.16" stop-color="#0071b0" stop-opacity="0.6"/><stop offset="0.6" stop-color="#0b97c2" stop-opacity="0.1"/><stop offset="0.78" stop-color="#18a3ce" stop-opacity="0.08"/><stop offset="0.95" stop-color="#41c7f1" stop-opacity="0.02"/><stop offset="1" stop-color="#52d6ff" stop-opacity="0"/></radialGradient><linearGradient id="linear-gradient-2" x1="332.14" y1="1688.36" x2="2197.66" y2="1688.36" gradientUnits="userSpaceOnUse"><stop offset="0.01" stop-color="#00b287" stop-opacity="0.9"/><stop offset="0.35" stop-color="#08ad9f" stop-opacity="0.87"/><stop offset="1" stop-color="#1da1dc" stop-opacity="0.8"/></linearGradient><linearGradient id="linear-gradient-3" x1="332.14" y1="1688.36" x2="2197.66" y2="1688.36" gradientUnits="userSpaceOnUse"><stop offset="0.01" stop-color="#00b287" stop-opacity="0.8"/><stop offset="0.41" stop-color="#0aaca4" stop-opacity="0.77"/><stop offset="1" stop-color="#1da1dc" stop-opacity="0.7"/></linearGradient><linearGradient id="Nueva_muestra_de_degradado_41" x1="-78.35" y1="1577.96" x2="1610.48" y2="1688.2" gradientUnits="userSpaceOnUse"><stop offset="0.01" stop-color="#00b287" stop-opacity="0.7"/><stop offset="0.48" stop-color="#0cabaa" stop-opacity="0.66"/><stop offset="1" stop-color="#1da1dc" stop-opacity="0.6"/></linearGradient><linearGradient id="Nueva_muestra_de_degradado_41-3" x1="846.38" y1="1665.39" x2="1675.69" y2="1665.39" xlink:href="#Nueva_muestra_de_degradado_41"/><linearGradient id="Nueva_muestra_de_degradado_13" x1="880.07" y1="1515.91" x2="988.15" y2="644.72" gradientUnits="userSpaceOnUse"><stop offset="0" stop-color="#01171a" stop-opacity="0"/><stop offset="1" stop-color="#01171a"/></linearGradient><linearGradient id="Nueva_muestra_de_degradado_13-2" x1="846" y1="1216.85" x2="822.84" y2="903.66" xlink:href="#Nueva_muestra_de_degradado_13"/><linearGradient id="Nueva_muestra_de_degradado_38" x1="878.61" y1="872.89" x2="1028.58" y2="860.76" gradientUnits="userSpaceOnUse"><stop offset="0" stop-color="#141226" stop-opacity="0.5"/><stop offset="1" stop-color="#141226" stop-opacity="0.1"/></linearGradient><linearGradient id="Degradado_sin_nombre_463" x1="1479.7" y1="6164.59" x2="1483.21" y2="6164.59" gradientTransform="matrix(6.44, 0, 0, -6.44, -8731.38, 40556.25)" gradientUnits="userSpaceOnUse"><stop offset="0" stop-color="#05034c" stop-opacity="0.3"/><stop offset="1" stop-color="#05034c" stop-opacity="0"/></linearGradient><linearGradient id="Nueva_muestra_de_degradado_13-3" x1="891.36" y1="879.21" x2="728.15" y2="1644.54" xlink:href="#Nueva_muestra_de_degradado_13"/><linearGradient id="Nueva_muestra_de_degradado_5" x1="883.16" y1="667.42" x2="925.07" y2="592.43" gradientUnits="userSpaceOnUse"><stop offset="0.09" stop-color="#fff" stop-opacity="0"/><stop offset="1" stop-color="#fff"/></linearGradient><linearGradient id="linear-gradient-4" x1="1449.26" y1="1194.24" x2="1408.32" y2="1063.44" gradientUnits="userSpaceOnUse"><stop offset="0" stop-color="#1499c2"/><stop offset="0.98" stop-color="#0b97c2"/><stop offset="1" stop-color="#20bcec"/></linearGradient><linearGradient id="linear-gradient-5" x1="1511.51" y1="1272.34" x2="1484.22" y2="1185.14" gradientUnits="userSpaceOnUse"><stop offset="0" stop-color="#0071b0"/><stop offset="0.06" stop-color="#1da1dc"/><stop offset="0.99" stop-color="#1da1dc"/></linearGradient><linearGradient id="Nueva_muestra_de_degradado_45" x1="1463.44" y1="1265.13" x2="1406.07" y2="1036.9" gradientUnits="userSpaceOnUse"><stop offset="0" stop-color="#141226"/><stop offset="1" stop-color="#27244b"/></linearGradient><linearGradient id="Nueva_muestra_de_degradado_13-4" x1="1784.87" y1="1118.77" x2="1480.51" y2="1059.22" gradientTransform="translate(389.26 -454.82) rotate(17.85)" xlink:href="#Nueva_muestra_de_degradado_13"/><linearGradient id="Nueva_muestra_de_degradado_38-2" x1="1660.38" y1="1278.38" x2="1780.96" y2="1740.08" xlink:href="#Nueva_muestra_de_degradado_38"/><linearGradient id="Nueva_muestra_de_degradado_38-3" x1="1711.65" y1="1266.98" x2="1626.37" y2="1499.3" xlink:href="#Nueva_muestra_de_degradado_38"/><linearGradient id="Nueva_muestra_de_degradado_5-2" x1="1678.27" y1="1328.75" x2="1481.97" y2="413.44" xlink:href="#Nueva_muestra_de_degradado_5"/><filter id="AI_DesenfoqueGaussiano_4" name="AI_DesenfoqueGaussiano_4"><feGaussianBlur stdDeviation="4"/></filter><symbol id="shadowsvgdark2OK" data-name="shadowsvgdark2OK" viewBox="0 0 269.62 74.11"><g class="cls-2"><path class="cls-3" d="M247.63,33.05c.09,15.15-21,27.43-47.19,27.42-15.51-1-133.11,2.81-145.22-2.92-44.8-12.91-27-52.66,21-51.93,4.82.37,132.49-.74,133.45.56C225,8.18,246.28,15.22,247.63,33.05Z"/></g><ellipse class="cls-4" cx="62.94" cy="37.81" rx="62.94" ry="36.3"/></symbol></defs><g id="Plant"><g class="cls-5"><g id="Plant_4" data-name="Plant 4"><path class="cls-6" d="M502.59,839.65l-4.77-1L481.7,917.59l-8,63.22-3.09,66q0,1.76.05,15.44l1.43,34.6,4.53,43.54,10,53,.17.47,8,29.62q4.82,16.1,10.52,31.33l10.8,26.45L539.3,1327l.29.4,5,8.72L578,1384.28l16.89,20.17L621.44,1432q1.72,1.77,7.58,7.23L655.65,1462c3.19,2.58,5,4,5.39,4.27l23,16.9,5.76-7.52-26.6-22.58q-13.2-11.77-25.08-23.45l-14.7-14.93q-7.71-8.1-15.71-17.32l-3.06-3.44-.42-.65-.55-.58-24.95-31.48-11-15.76-23.53-38.7q-8.5-15.9-13.85-27.6L517.86,1250q-6.09-16-10.59-30.42l-8-28.28-.16-.46-4.33-18.33-6.29-33.94-6.71-64.09-1-34.26.1-1,1.8-56.88-.05-.84.14-.79,4.5-48.27Z"/><path class="cls-7" d="M700.23,1218.81q-52.08-3.48-85.67,62.29t19.83,190.3q119.52-69.18,120.32-155.81T700.23,1218.81Z"/><path class="cls-8" d="M700.23,1218.81q-52.08-3.48-85.67,62.29t19.83,190.3q119.52-69.18,120.32-155.81T700.23,1218.81Z"/><path class="cls-6" d="M700,1258.69l0,.21-7.5,61.21-10.44,44.46-11.48,33.16-4.46,10.3q-4.62,10.15-8.26,16.88l-10.22,17.83-.34.41-3.06,4.84-.3.32-.25.44-10.37,14.36-.31.32-7,8.89,9.55,7.53,6.78-9.48.25-.44.88-1.17,13-20.69,9.69-19.13q3.27-6.84,7.62-17.8l8.47-24.48,11.68-51.42,5.7-55.45q.06-.19.47-11.14l.25-9.75.06-.19Z"/><path class="cls-9" d="M467,1502.82q70.75,25.79,149.59,22.12,50.43-4.26,107.54-23.59Q596.31,1212,414.57,1214.18T259,1346.05q11,39.4,44.11,71.3Q369.24,1481.55,467,1502.82Z"/><path class="cls-9" d="M728.13,924.57Q693,874.76,625.26,921.88,549.63,974.47,500.34,1130q81.84-18.72,150.29-73.71Q751.42,975,728.13,924.57Z"/><path class="cls-7" d="M375.46,736.56Q339.61,759.74,346.74,828q17.08,162.63,120,249.39-6.27-88.56-9.27-152.14t-14.39-114.5Q416,710.34,375.46,736.56Z"/><path class="cls-7" d="M491.2,749.05l4.08,114.4Q551.34,802.07,562,722.39t-32.27-65.12Q488.43,671.33,491.2,749.05Z"/><path class="cls-6" d="M396.72,1303.62l-.21.35,31.9,12.85.57.17,81.93,39.63,18.76,10.51,67.87,42.9q12.8,8.74,28.11,20L673.86,1468q10,8.31,18.56,15.83l32.25,29,11-12.3-53.25-43.31-50.27-36.27q-16.21-11.07-29.25-19.06L576,1385.41,513.4,1351.6l-63.2-28.3c-.7-.22-1.71-.6-3.06-1.16l-50.26-18.37Z"/><path class="cls-6" d="M686.3,941.54,650,970.16l-64.18,58.12-41.84,43.57-20.71,23.24-34.78,43.49,3.11,16.91q7.44-20.17,38.18-55l55.45-64L605,1015.75,647.61,975l38.88-33.1.16-.16-.23-.27Z"/><path class="cls-6" d="M391.43,831.37l11.1,75.6,3.3,17L416,966.43l19.35,58.4L454,1065l18.12,31.84,1.56-17.94-11.55-18.4a8.09,8.09,0,0,0-.9-1.42l-15.39-29.64L426,979.92l-4.85-15-17.3-66.66-12.18-67.14-.34.1Z"/><path class="cls-6" d="M527.56,699.85l1-2.68.15-.16-.34-.21-.06.19-7,16.85-4.88,17.32-16.91,96.36-9,46.77,7.06-4.73,18.53-120.49q1-8.18,2-14.17l4.47-20.65,4.64-13.87Z"/><path id="Dark_gradient" data-name="Dark gradient" class="cls-10" d="M735.65,1500.5l-18.84-15.33q-12.81-27.81-26.12-52.77,63.42-53.79,64-116.81.91-86.6-54.48-96.78-52.08-3.48-85.67,62.29a113.66,113.66,0,0,0-9.41,26.34q-43.89-48-92.37-71.3c-2-5.67-3.84-11.19-5.51-16.55l-8-28.28-.16-.46-4.33-18.33-3.16-17.06q4.17-11.28,15.6-27.15,77.88-19.39,143.46-72,100.79-81.28,77.5-131.7Q693,874.76,625.26,921.88q-73,50.79-121.51,197.56l-15.31,19.14-6.71-64.09-1-34.26.1-1,1.8-56.88-.05-.84.14-.79,4.5-48.27,12.22-73.71Q551.69,799,562,722.39q10.69-79.68-32.27-65.12-41.33,14.06-38.56,91.78l3.66,102.81-4.31,22.43h0l-8.85,43.3-8,63.22-3.09,66q0,1.76.05,15.44l.53,12.75-5.17-8.23q-5.7-81.78-8.52-141.52-3-63.43-14.39-114.5Q416,710.34,375.46,736.56,339.61,759.74,346.74,828q16.1,153.21,108.38,239.07l16.95,29.78,4.53,43.54,10,53,.17.47,8,29.62c.57,1.88,1.15,3.74,1.73,5.61a216.5,216.5,0,0,0-81.94-14.89Q232.85,1216.32,259,1346.05q11,39.4,44.11,71.3,66.15,64.2,163.88,85.47,70.75,25.79,149.59,22.12,46.47-3.93,98.63-20.66l9.48,8.52Z"/></g></g></g><g id="Man-Woman-Right"><g id="Circle"><g class="cls-11"><path class="cls-12" d="M1264.9,2050.65c-125.55,0-247.35-9.48-362-28.17-110.83-18.07-210.4-43.94-295.94-76.91-85.77-33-153.18-71.61-200.35-114.59-49.4-45-74.44-93-74.44-142.62s25-97.62,74.44-142.63c47.17-43,114.58-81.53,200.35-114.59,85.54-33,185.11-58.84,295.94-76.91,114.68-18.69,236.48-28.17,362-28.17s247.35,9.48,362,28.17c110.83,18.07,210.4,43.94,295.94,76.91,85.77,33.06,153.18,71.61,200.35,114.59,49.4,45,74.44,93,74.44,142.63s-25,97.62-74.44,142.62c-47.17,43-114.58,81.54-200.35,114.59-85.54,33-185.11,58.84-295.94,76.91C1512.25,2041.17,1390.45,2050.65,1264.9,2050.65Zm0-715.43c-247.37,0-479.88,37.1-654.67,104.47-84.71,32.64-151.16,70.6-197.48,112.81-47.41,43.2-71.45,88.91-71.45,135.86s24,92.65,71.45,135.85c46.32,42.21,112.77,80.17,197.48,112.81,174.79,67.37,407.3,104.47,654.67,104.47s479.88-37.1,654.67-104.47c84.71-32.64,151.16-70.6,197.48-112.81,47.41-43.2,71.45-88.91,71.45-135.85s-24-92.66-71.45-135.86c-46.32-42.21-112.77-80.17-197.48-112.81C1744.78,1372.32,1512.28,1335.22,1264.9,1335.22Z"/></g><g class="cls-13"><path class="cls-14" d="M1264.9,2050.65c-125.55,0-247.35-9.48-362-28.17-110.83-18.07-210.4-43.94-295.94-76.91-85.77-33-153.18-71.61-200.35-114.59-49.4-45-74.44-93-74.44-142.62s25-97.62,74.44-142.63c47.17-43,114.58-81.53,200.35-114.59,85.54-33,185.11-58.84,295.94-76.91,114.68-18.69,236.48-28.17,362-28.17s247.35,9.48,362,28.17c110.83,18.07,210.4,43.94,295.94,76.91,85.77,33.06,153.18,71.61,200.35,114.59,49.4,45,74.44,93,74.44,142.63s-25,97.62-74.44,142.62c-47.17,43-114.58,81.54-200.35,114.59-85.54,33-185.11,58.84-295.94,76.91C1512.25,2041.17,1390.45,2050.65,1264.9,2050.65Zm0-715.43c-247.37,0-479.88,37.1-654.67,104.47-84.71,32.64-151.16,70.6-197.48,112.81-47.41,43.2-71.45,88.91-71.45,135.86s24,92.65,71.45,135.85c46.32,42.21,112.77,80.17,197.48,112.81,174.79,67.37,407.3,104.47,654.67,104.47s479.88-37.1,654.67-104.47c84.71-32.64,151.16-70.6,197.48-112.81,47.41-43.2,71.45-88.91,71.45-135.85s-24-92.66-71.45-135.86c-46.32-42.21-112.77-80.17-197.48-112.81C1744.78,1372.32,1512.28,1335.22,1264.9,1335.22Z"/></g></g><g id="right_element" data-name="right element"><g id="right_element-2" data-name="right element"><ellipse class="cls-15" cx="1261.03" cy="1665.39" rx="335.74" ry="130.37"/><ellipse class="cls-16" cx="1261.03" cy="1665.39" rx="335.74" ry="130.37"/><ellipse class="cls-17" cx="1261.03" cy="1665.39" rx="414.66" ry="161.02"/></g></g><g id="man"><use width="269.62" height="74.11" transform="translate(568.32 1417.2) scale(3.58)" xlink:href="#shadowsvgdark2OK"/><g id="Layer0_1_MEMBER_0_MEMBER_0_MEMBER_0_FILL" data-name="Layer0 1 MEMBER 0 MEMBER 0 MEMBER 0 FILL"><path class="cls-18" d="M938.52,1427.47H905.31l-1,49.25q-3,7.24,21.81,21.25,42.63,16.59,23.29-9.85l-14.37-22.81Z"/></g><g id="Layer0_1_MEMBER_1_MEMBER_0_MEMBER_0_FILL" data-name="Layer0 1 MEMBER 1 MEMBER 0 MEMBER 0 FILL"><path class="cls-19" d="M882.51,1008.58q-7.44,113,25.77,263.88-14.87,80.36-3,183.52,10.91,12.43,30.73,6.74l2.48-9.85q58.49-228.1,25.77-465Z"/></g><g id="Layer0_1_MEMBER_1_MEMBER_0_MEMBER_0_FILL-2" data-name="Layer0 1 MEMBER 1 MEMBER 0 MEMBER 0 FILL"><path class="cls-20" d="M882.51,1008.58q-7.44,113,25.77,263.88-14.87,80.36-3,183.52,10.91,12.43,30.73,6.74l2.48-9.85q58.49-228.1,25.77-465Z"/></g><g id="Layer0_1_MEMBER_2_MEMBER_0_MEMBER_0_FILL" data-name="Layer0 1 MEMBER 2 MEMBER 0 MEMBER 0 FILL"><path class="cls-18" d="M832.45,1554l-14.38-23.33,3.47-37.84H788.33l-1,49.77q-3,7.77,21.31,20.73Q851.78,1580.41,832.45,1554Z"/></g><g id="Layer0_1_MEMBER_3_MEMBER_0_MEMBER_0_FILL" data-name="Layer0 1 MEMBER 3 MEMBER 0 MEMBER 0 FILL"><path class="cls-19" d="M827,992.51q-40.63,65.84-25.27,288.24c-17.85,42.51-24.62,120.93-14.7,240.86,7.93,8.29,21.14,13.51,34,10.06q-.49-.53,2.47-9.85,58.5-230.7,88.73-512.2Z"/></g><g id="Layer0_1_MEMBER_3_MEMBER_0_MEMBER_0_FILL-2" data-name="Layer0 1 MEMBER 3 MEMBER 0 MEMBER 0 FILL"><path class="cls-21" d="M827,992.51q-40.63,65.84-25.27,288.24c-17.85,42.51-24.62,120.93-14.7,240.86,7.93,8.29,21.14,13.51,34,10.06q-.49-.53,2.47-9.85,58.5-230.7,88.73-512.2Z"/></g><g id="Layer0_1_MEMBER_4_MEMBER_0_MEMBER_0_FILL" data-name="Layer0 1 MEMBER 4 MEMBER 0 MEMBER 0 FILL"><path class="cls-22" d="M1133.36,986.5a149,149,0,0,0,30,8.8q-5.42-1.53,37,2.78,5.76-4.08-10.72-20.46-13.2-9.39-41.06-11.13l-21.33,15.28Z"/></g><g id="Layer0_1_MEMBER_5_MEMBER_0_MEMBER_0_FILL" data-name="Layer0 1 MEMBER 5 MEMBER 0 MEMBER 0 FILL"><path class="cls-23" d="M1157.63,983.81q26.76,1.8,21.86-6L1163.72,970q-4.93-4.8-25.23-6.31l-13.39,18.26Q1135,988.48,1157.63,983.81Z"/></g><g id="Layer0_1_MEMBER_6_MEMBER_0_MEMBER_0_FILL" data-name="Layer0 1 MEMBER 6 MEMBER 0 MEMBER 0 FILL"><path class="cls-24" d="M916.8,821.85q40.79,124.62,54.59,133.36,44.75,31.75,179.87,40.51V967.29l-145.68-61.61Q994.1,792.3,976.78,757,960.93,725.85,950,722.23Z"/></g><g id="Layer0_1_MEMBER_6_MEMBER_0_MEMBER_0_FILL-2" data-name="Layer0 1 MEMBER 6 MEMBER 0 MEMBER 0 FILL"><path class="cls-25" d="M916.8,821.85q40.79,124.62,54.59,133.36,44.75,31.75,179.87,40.51V967.29l-145.68-61.61Q994.1,792.3,976.78,757,960.93,725.85,950,722.23Z"/></g><g id="Layer0_1_MEMBER_7_MEMBER_0_MEMBER_0_FILL" data-name="Layer0 1 MEMBER 7 MEMBER 0 MEMBER 0 FILL"><path class="cls-26" d="M793.78,873.8l10.91,51.32q14.37-48.21,10.9-104.2Z"/></g><path id="Layer0_1_MEMBER_8_MEMBER_0_1_STROKES" data-name="Layer0 1 MEMBER 8 MEMBER 0 1 STROKES" class="cls-27" d="M857,986.65,822.82,982"/><path id="Layer0_1_MEMBER_9_MEMBER_0_1_STROKES" data-name="Layer0 1 MEMBER 9 MEMBER 0 1 STROKES" class="cls-27" d="M954.17,973.69l-8.42,5.19"/><g id="Layer0_1_MEMBER_10_FILL" data-name="Layer0 1 MEMBER 10 FILL"><path class="cls-18" d="M912.33,721.74q-23.79,5.16-53.05,18.69a569.26,569.26,0,0,0-60.44,35.27q-17.4,10.31-13.4,31.57l28.72,156.08L796.3,1031.8q26.33,37.37,78.38,37.37,84-7.14,108-35.28l-17.78-57q20.33-189.25,4.92-229.2-8.46-36.81-57.52-25.94M890,899.81q-.62,2.67-1.16,6.12C888.39,901.41,888.77,899.37,890,899.81Z"/></g><g id="Layer0_1_MEMBER_10_FILL-2" data-name="Layer0 1 MEMBER 10 FILL"><path class="cls-28" d="M912.33,721.74q-23.79,5.16-53.05,18.69a569.26,569.26,0,0,0-60.44,35.27q-17.4,10.31-13.4,31.57l28.72,156.08L796.3,1031.8q26.33,37.37,78.38,37.37,84-7.14,108-35.28l-17.78-57q20.33-189.25,4.92-229.2-8.46-36.81-57.52-25.94M890,899.81q-.62,2.67-1.16,6.12C888.39,901.41,888.77,899.37,890,899.81Z"/></g><g id="Layer0_1_MEMBER_11_MEMBER_0_MEMBER_0_FILL" data-name="Layer0 1 MEMBER 11 MEMBER 0 MEMBER 0 FILL"><path class="cls-23" d="M912.74,732.43l-3.46-31.1q12.88-3.63,13.38-26.44-3.46-11.92-2-21.78,2-14-5.46-20.21Q886,612.16,865.16,637q-5.46,8.82-1,30.59l6,18.66q-5.46,34.22-13.88,56.51l3,2.59q29.25,18.68,53.53,14,2.47-1-.49-27Z"/></g><g id="Layer0_1_MEMBER_12_MEMBER_0_MEMBER_0_FILL" data-name="Layer0 1 MEMBER 12 MEMBER 0 MEMBER 0 FILL"><path class="cls-29" d="M885,698.74q12.88,11.4,24.78,10.36l-.49-6.74h-1Q899.87,704.45,885,698.74Z"/></g><g id="Layer0_1_MEMBER_13_MEMBER_0_MEMBER_0_MEMBER_0_MEMBER_0_FILL" data-name="Layer0 1 MEMBER 13 MEMBER 0 MEMBER 0 MEMBER 0 MEMBER 0 FILL"><path class="cls-22" d="M964.19,1050.57l3.84,10.17q37.38-12.32,38.66-20Q992.74,1043,964.19,1050.57Z"/></g><g id="Layer0_1_MEMBER_13_MEMBER_1_MEMBER_0_MEMBER_0_MEMBER_0_FILL" data-name="Layer0 1 MEMBER 13 MEMBER 1 MEMBER 0 MEMBER 0 MEMBER 0 FILL"><path class="cls-24" d="M847.81,1006.35q-.16-122-11.55-172.5-20.25-49.7-44-52.75-15.63,11.26-18,61.37-4.54,89.07,31.1,181.84,30.27,48.4,154.69,49.21l46-18.61Z"/></g><g id="Layer0_1_MEMBER_13_MEMBER_2_MEMBER_0_MEMBER_0_MEMBER_0_MEMBER_0_FILL" data-name="Layer0 1 MEMBER 13 MEMBER 2 MEMBER 0 MEMBER 0 MEMBER 0 MEMBER 0 FILL"><path class="cls-30" d="M982.35,1113.13q-1.19,6.63,6.24,10.81l100.86-22.36q6.79-1.5,7.7-7l43-145.2q-3.11-7.8-9.13-7.52l-102,16.78q-5.93.78-8.18,7.11Z"/></g><g id="Layer0_1_MEMBER_13_MEMBER_2_MEMBER_1_MEMBER_0_MEMBER_0_MEMBER_0_FILL" data-name="Layer0 1 MEMBER 13 MEMBER 2 MEMBER 1 MEMBER 0 MEMBER 0 MEMBER 0 FILL"><path class="cls-31" d="M987.08,1119q-1.79,6.22,4.52,4.83l102-16.78q6.42-.88,8.3-6.61l38.43-147.89q1.79-6.22-5-4.72l-102.09,16.27a9.91,9.91,0,0,0-7.71,7Z"/></g><g id="Layer0_1_MEMBER_13_MEMBER_3_MEMBER_0_MEMBER_0_MEMBER_0_FILL" data-name="Layer0 1 MEMBER 13 MEMBER 3 MEMBER 0 MEMBER 0 MEMBER 0 FILL"><path class="cls-23" d="M989.87,1078.21q7.74-1.21,17.41-14.5,8.43.16,9.71-7.49l-36.85-8.32-23.78,25.44Q981.68,1080.82,989.87,1078.21Z"/></g><g id="Layer0_1_MEMBER_14_FILL" data-name="Layer0 1 MEMBER 14 FILL"><path class="cls-32" d="M886.69,643.55l31,6.84Q935,654.08,940.75,632q-57-27.91-75.23,2.09-18.48,7.65-.77,62.1,12.46-3,9.16-33.18Q893.77,672.51,886.69,643.55Z"/></g><g id="Layer0_1_MEMBER_14_FILL-2" data-name="Layer0 1 MEMBER 14 FILL"><path class="cls-33" d="M886.69,643.55l31,6.84Q935,654.08,940.75,632q-57-27.91-75.23,2.09-18.48,7.65-.77,62.1,12.46-3,9.16-33.18Q893.77,672.51,886.69,643.55Z"/></g></g><g id="Woman"><g id="Laptop"><path class="cls-34" d="M1506.15,1036a4.8,4.8,0,0,0-1.83-2.83,1.42,1.42,0,0,0-1-.23l-.14,0L1314.46,1092l.13,0a1.41,1.41,0,0,1,1,.22,4.85,4.85,0,0,1,1.84,2.83l35.31,130.73,188.78-59.1Z"/><path class="cls-35" d="M1640.33,1226.09l-98.86-59.4-188.78,59.1,98.87,59.41a5.45,5.45,0,0,1,2,4.39c0,1.14-.43,1.9-1,2.09l188.78-59.11c.61-.19,1-1,1-2.09A5.47,5.47,0,0,0,1640.33,1226.09Z"/><path class="cls-36" d="M1315.54,1092.23a4.85,4.85,0,0,1,1.84,2.83l35.31,130.73,98.87,59.41a5.45,5.45,0,0,1,2,4.39c0,1.74-1,2.58-2.12,1.9l-100.14-60.17a4.87,4.87,0,0,1-1.83-2.83l-35.87-132.78c-.51-1.87-.07-3.52,1-3.7A1.41,1.41,0,0,1,1315.54,1092.23Z"/><path class="cls-37" d="M1362.33,1214.88a4.79,4.79,0,0,1-6.09-3.31l-30-109.18a5.22,5.22,0,0,1,3.45-6.31l166.7-51.95a4.82,4.82,0,0,1,6.1,3.33l29.86,108.45a5.25,5.25,0,0,1-3.44,6.33Z"/></g><g id="Woman-2" data-name="Woman"><use width="269.62" height="74.11" transform="translate(1423.28 1710.79) scale(3.58)" xlink:href="#shadowsvgdark2OK"/><g class="cls-38"><g id="Layer1_5_MEMBER_9_FILL" data-name="Layer1 5 MEMBER 9 FILL"><path class="cls-39" d="M1730.55,979.41l-32.84,51.05,2.68,113.59L1661.5,1181l-3.88,57.31q41.84-23,85.84-63.88Q1744.24,1101.72,1730.55,979.41Z"/></g></g><path id="Layer1_5_MEMBER_9_1_STROKES" data-name="Layer1 5 MEMBER 9 1 STROKES" class="cls-40" d="M1743.5,1174.42l4.33-4.07q23.16-64.2-4.2-170.08-4-15.69-10-25.08-31.49-49.32-35.94,55.27l2.68,113.59-38.87,37m82-6.6q-44.05,40.86-85.89,63.9a254,254,0,0,1-55.26,22.92l-5.11-19.12,64.28-61.1"/><g id="Layer1_5_MEMBER_0_FILL" data-name="Layer1 5 MEMBER 0 FILL"><path class="cls-41" d="M1627.62,1861.43q16.38,4,16.48-3.47v-33.51l-27.83,8.91q-49.3-4.6-46.67,4.42Q1586.27,1851.67,1627.62,1861.43Z"/></g><g id="Layer1_5_MEMBER_1_FILL" data-name="Layer1 5 MEMBER 1 FILL"><path class="cls-41" d="M1735.48,1807.74q16.37,4,16.48-3.47v-33.51l-27.84,8.91q-49.3-4.61-46.67,4.42Q1694.11,1798,1735.48,1807.74Z"/></g><g id="Layer1_5_MEMBER_2_MEMBER_0_MEMBER_0_MEMBER_0_FILL" data-name="Layer1 5 MEMBER 2 MEMBER 0 MEMBER 0 MEMBER 0 FILL"><path class="cls-42" d="M1646.46,940.36l-1-.13.15,6.67q11.78,0,24.62-12.13Q1656,941.61,1646.46,940.36Z"/></g><g id="Layer1_5_MEMBER_3_MEMBER_0_MEMBER_0_MEMBER_0_FILL" data-name="Layer1 5 MEMBER 3 MEMBER 0 MEMBER 0 MEMBER 0 FILL"><path class="cls-23" d="M1672.53,905.39q2.76-21.14-4.29-29.73-23.09-23-50.74.51-7,6.76-4.14,19.93a26.23,26.23,0,0,1,.32,9.26l-2,11.51A33.69,33.69,0,0,0,1617.6,934q5.25,6.83,12.29,7.75l-1.44,30.52.51.07q-1.15,24.42,1.67,26.32,25.35,1.79,53.61-18.57l2.41-2.75a297.13,297.13,0,0,1-19.07-53.68Z"/></g><g id="Layer1_5_MEMBER_4_MEMBER_0_MEMBER_0_MEMBER_0_FILL" data-name="Layer1 5 MEMBER 4 MEMBER 0 MEMBER 0 MEMBER 0 FILL"><path class="cls-29" d="M1618.54,934.66a18.6,18.6,0,0,0,11.35,7.11l-.53,4a54.08,54.08,0,0,0,12.39-8.61Q1632,941.53,1618.54,934.66Z"/></g><g id="Layer1_5_MEMBER_5_FILL" data-name="Layer1 5 MEMBER 5 FILL"><path class="cls-43" d="M1743.63,1000.27q-4-15.69-10-25.08-31.49-49.32-35.94,55.27l2.68,113.59-103.15,98.07,5.11,19.12q69.5-19,145.48-90.89Q1771,1106.15,1743.63,1000.27Z"/></g><g id="Layer1_5_MEMBER_6_FILL" data-name="Layer1 5 MEMBER 6 FILL"><path class="cls-19" d="M1737.29,1320.9q20.26-166.68-93.19-108.17-25,73.23-18.53,211.29t95,353.36q14.89,14.2,33,.71-13.56-201.43-45.09-266.95Z"/></g><g id="Layer1_5_MEMBER_6_FILL-2" data-name="Layer1 5 MEMBER 6 FILL"><path class="cls-44" d="M1737.29,1320.9q20.26-166.68-93.19-108.17-25,73.23-18.53,211.29t95,353.36q14.89,14.2,33,.71-13.56-201.43-45.09-266.95Z"/></g><g class="cls-38"><g id="Layer1_5_MEMBER_7_FILL" data-name="Layer1 5 MEMBER 7 FILL"><path class="cls-39" d="M1624.71,1400.84v.32q.32,11.21.86,22.86,3.3,69.48,27.36,158.55l25.86-205.46Z"/></g></g><g id="Layer1_5_MEMBER_8_FILL" data-name="Layer1 5 MEMBER 8 FILL"><path class="cls-19" d="M1579.14,1252.3q-30.69,71.09-34.93,209.17t67.17,359.75a16.57,16.57,0,0,0,6.86,10.8,21.09,21.09,0,0,0,11.43,4q6.39.32,10.57-2.68a9,9,0,0,0,3.86-8.91q2.25-201.81-24-269.55l86.1-260.81Q1733.12,1212.31,1579.14,1252.3Z"/></g><g id="Layer1_5_MEMBER_8_FILL-2" data-name="Layer1 5 MEMBER 8 FILL"><path class="cls-45" d="M1579.14,1252.3q-30.69,71.09-34.93,209.17t67.17,359.75a16.57,16.57,0,0,0,6.86,10.8,21.09,21.09,0,0,0,11.43,4q6.39.32,10.57-2.68a9,9,0,0,0,3.86-8.91q2.25-201.81-24-269.55l86.1-260.81Q1733.12,1212.31,1579.14,1252.3Z"/></g><g id="Layer1_5_MEMBER_10_FILL" data-name="Layer1 5 MEMBER 10 FILL"><path class="cls-46" d="M1730.39,974.94q-4.82-24.27-40.43-14.27-64.1,24.36-83.66,40.81-44.94,65.76-36.67,92.45,4.2,16,9.12,42.7-5.34,32.46-9.64,65.77-10.18,24.66-21.81,132.08a399.48,399.48,0,0,0,148.46,27.29l10-100.54L1725,1358q47.37-11.87,47-14.84-13.2-104.49-40.23-151.33Q1755.51,1005.49,1730.39,974.94Z"/></g><g id="Layer1_5_MEMBER_10_FILL-2" data-name="Layer1 5 MEMBER 10 FILL"><path class="cls-47" d="M1730.39,974.94q-4.82-24.27-40.43-14.27-64.1,24.36-83.66,40.81-44.94,65.76-36.67,92.45,4.2,16,9.12,42.7-5.34,32.46-9.64,65.77-10.18,24.66-21.81,132.08a399.48,399.48,0,0,0,148.46,27.29l10-100.54L1725,1358q47.37-11.87,47-14.84-13.2-104.49-40.23-151.33Q1755.51,1005.49,1730.39,974.94Z"/></g><g class="cls-38"><g id="Layer1_5_MEMBER_11_FILL" data-name="Layer1 5 MEMBER 11 FILL"><path class="cls-39" d="M1596.31,1118.52l-37.59,129c16.61,2.58,48.2-4.62,65.52-27.48,26.73-47.92,17.51-126,12.11-194.08Z"/></g></g><g id="Layer1_5_MEMBER_12_FILL" data-name="Layer1 5 MEMBER 12 FILL"><path class="cls-23" d="M1498.28,1214.47l-58.7,32.08a223.14,223.14,0,0,0-23,13.88q-5.34,11-.64,16.58,6.38,3.16,29.85-6l49.13-18.71Z"/></g><g id="Layer1_5_MEMBER_13_FILL" data-name="Layer1 5 MEMBER 13 FILL"><path class="cls-40" d="M1637.53,1039.9q-.46-16.14-4.31-26.74-19.73-54.93-47.2,45.95l-22.57,111.45L1441.2,1243.3q.52,9.93,18.6,20.77,54.09-4.15,144.13-57.47Q1640.79,1149.18,1637.53,1039.9Z"/></g><g id="Layer1_5_MEMBER_14_FILL" data-name="Layer1 5 MEMBER 14 FILL"><path class="cls-48" d="M1607.68,946.4q.71,6.47,11.82,9.54,9.86,2.68,24.92,2a116.41,116.41,0,0,0,26.41-4q12.76-3.54,16.4-8.43.46-64-20.5-75.38-25.14-13.56-49.83,4-23,16.41,10.25,15.54Q1631.64,925.93,1607.68,946.4Z"/></g></g></g><g id="Text-box1"><g class="cls-49"><path class="cls-50" d="M1283.53,663.1H976.89a8.79,8.79,0,0,1-6.22-15L1000.81,618V476.43a10.81,10.81,0,0,1,10.8-10.81h271.92a10.8,10.8,0,0,1,10.8,10.81V652.3A10.79,10.79,0,0,1,1283.53,663.1Z"/></g><g class="cls-49"><path class="cls-51" d="M1286.5,669.1H986A8.62,8.62,0,0,1,980,654.39l29.53-29.53V486.19a10.59,10.59,0,0,1,10.59-10.59H1286.5a10.59,10.59,0,0,1,10.59,10.59V658.52A10.59,10.59,0,0,1,1286.5,669.1Z"/></g><path class="cls-52" d="M1283.53,663.1H976.89a8.79,8.79,0,0,1-6.22-15L1000.81,618V476.43a10.81,10.81,0,0,1,10.8-10.81h271.92a10.8,10.8,0,0,1,10.8,10.81V652.3A10.79,10.79,0,0,1,1283.53,663.1Z"/><path class="cls-53" d="M1070.94,528.43c-2.4,1.38-3.9,4.19-3.9,5.36a1.91,1.91,0,0,1-1.62,2h-9.76c-.89,0-1.46-1.38-1.46-2.28v-1.83c0-4.92,4.87-9.14,8.45-10.77,3.13-1.42,4.43-2.77,4.43-5.37,0-2.27-3-4.31-6.26-4.31a8.33,8.33,0,0,0-4.39,1.18c-1,.69-2,1.67-4.35,4.68a1.66,1.66,0,0,1-1.26.65,1.81,1.81,0,0,1-1-.33l-6.67-5.08a1.59,1.59,0,0,1-.4-2.15c4.38-7.28,10.56-10.82,18.85-10.82,8.7,0,18.46,7,18.46,16.26C1080.05,523.31,1074.81,526.28,1070.94,528.43Zm-3.74,21.3a1.63,1.63,0,0,1-1.62,1.63h-9.76a1.63,1.63,0,0,1-1.62-1.63V540a1.63,1.63,0,0,1,1.62-1.62h9.76a1.62,1.62,0,0,1,1.62,1.62Z"/><line class="cls-54" x1="1045.88" y1="591.19" x2="1224.72" y2="591.19"/><line class="cls-54" x1="1045.88" y1="626.87" x2="1164.04" y2="626.87"/></g><g id="Text-box2"><g class="cls-49"><path class="cls-50" d="M1245.34,917H1552a8.79,8.79,0,0,0,6.22-15l-30.14-30.14V730.28a10.79,10.79,0,0,0-10.8-10.8H1245.34a10.8,10.8,0,0,0-10.8,10.8V906.15A10.8,10.8,0,0,0,1245.34,917Z"/></g><g class="cls-49"><path class="cls-51" d="M1253.07,923h300.45a8.62,8.62,0,0,0,6.1-14.71l-29.53-29.53V740a10.58,10.58,0,0,0-10.59-10.58H1253.07A10.58,10.58,0,0,0,1242.48,740V912.37A10.58,10.58,0,0,0,1253.07,923Z"/></g><path class="cls-52" d="M1245.34,917H1552a8.79,8.79,0,0,0,6.22-15l-30.14-30.14V730.28a10.79,10.79,0,0,0-10.8-10.8H1245.34a10.8,10.8,0,0,0-10.8,10.8V906.15A10.8,10.8,0,0,0,1245.34,917Z"/><line class="cls-54" x1="1287.62" y1="842.83" x2="1466.46" y2="842.83"/><line class="cls-54" x1="1287.62" y1="878.52" x2="1405.77" y2="878.52"/><g id="Icons_Full-Set_Status_Success_Outline" data-name="Icons/Full-Set/Status/Success/Outline"><path id="Combined-Shape" class="cls-55" d="M1311,747.69a31.21,31.21,0,1,1-31.21,31.21A31.09,31.09,0,0,1,1311,747.69Zm0,6.94a24.28,24.28,0,1,0,24.27,24.27A24.13,24.13,0,0,0,1311,754.63Zm8,15.26a3.43,3.43,0,1,1,4.86,4.85h0L1308.55,791a3.18,3.18,0,0,1-2.43,1h0l-.42,0a3.21,3.21,0,0,1-2-1h0l-5.89-6.24a3.43,3.43,0,1,1,4.85-4.86h0l3.47,3.47Z"/></g></g></g></svg>