<svg id="ARTWORK" xmlns="http://www.w3.org/2000/svg" xmlns:xlink="http://www.w3.org/1999/xlink" viewBox="0 0 2500 2500"><defs><style>.cls-1{fill:url(#Degradado_sin_nombre_115);}.cls-1,.cls-16{filter:url(#AI_DesenfoqueGaussiano_4);}.cls-2{fill:#d4ecf6;}.cls-29,.cls-3{fill:#fff;}.cls-4{fill:url(#Degradado_sin_nombre_90);}.cls-5{fill:#857cb9;}.cls-6{fill:#d095bf;}.cls-7{fill:#aab2da;}.cls-8{fill:url(#Degradado_sin_nombre_109);}.cls-9{fill:#20bcec;}.cls-10{fill:#31a9df;}.cls-11{fill:url(#Nueva_muestra_de_degradado_75);}.cls-12{fill:#52d6ff;}.cls-13{fill:url(#Nueva_muestra_de_degradado_74);}.cls-14{mix-blend-mode:hard-light;}.cls-15{fill:url(#Degradado_sin_nombre_57);}.cls-17{fill:url(#Degradado_sin_nombre_355);}.cls-18{fill:url(#Nueva_muestra_de_degradado_79);}.cls-19{fill:url(#Degradado_sin_nombre_354);}.cls-20{fill:url(#Degradado_sin_nombre_123);}.cls-21{fill:url(#Degradado_sin_nombre_92);}.cls-22{fill:url(#Degradado_sin_nombre_123-2);}.cls-23{fill:#fafbfc;}.cls-24{fill:url(#Nueva_muestra_de_degradado_79-2);}.cls-25{fill:#fcfdfe;}.cls-26{isolation:isolate;}.cls-27{fill:url(#Nueva_muestra_de_degradado_69);}.cls-28{fill:url(#Degradado_sin_nombre_9);}.cls-29{fill-opacity:0.95;}</style><linearGradient id="Degradado_sin_nombre_115" x1="103.88" y1="142.8" x2="126.5" y2="104.82" gradientUnits="userSpaceOnUse"><stop offset="0" stop-color="#d4ecf6" stop-opacity="0.1"/><stop offset="0.04" stop-color="#b5cede" stop-opacity="0.1"/><stop offset="0.15" stop-color="#90aac1" stop-opacity="0.1"/><stop offset="1" stop-color="#5d7586" stop-opacity="0.3"/></linearGradient><filter id="AI_DesenfoqueGaussiano_4" name="AI_DesenfoqueGaussiano_4"><feGaussianBlur stdDeviation="4"/></filter><linearGradient id="Degradado_sin_nombre_90" x1="11.98" y1="50.98" x2="131.71" y2="120.24" gradientUnits="userSpaceOnUse"><stop offset="0" stop-color="#436fb6"/><stop offset="0.09" stop-color="#4779b9"/><stop offset="0.48" stop-color="#569ec5"/><stop offset="0.8" stop-color="#60b5cc"/><stop offset="1" stop-color="#63bdcf"/></linearGradient><linearGradient id="Degradado_sin_nombre_109" x1="147.51" y1="177.07" x2="132.96" y2="136.2" gradientUnits="userSpaceOnUse"><stop offset="0.3" stop-color="#89d6ef" stop-opacity="0.1"/><stop offset="0.38" stop-color="#89d6ef" stop-opacity="0.15"/><stop offset="0.49" stop-color="#d4ecf6" stop-opacity="0"/><stop offset="1" stop-color="#fff" stop-opacity="0.3"/></linearGradient><linearGradient id="Nueva_muestra_de_degradado_75" x1="173.31" y1="1103.49" x2="340.8" y2="1042.21" gradientUnits="userSpaceOnUse"><stop offset="0" stop-color="#52d6ff" stop-opacity="0.1"/><stop offset="0.15" stop-color="#4bc7ee" stop-opacity="0.1"/><stop offset="0.87" stop-color="#0071b0" stop-opacity="0.3"/></linearGradient><linearGradient id="Nueva_muestra_de_degradado_74" x1="303.19" y1="664.6" x2="707.61" y2="856.6" xlink:href="#Nueva_muestra_de_degradado_75"/><radialGradient id="Degradado_sin_nombre_57" cx="894.58" cy="1399.06" r="1368.27" gradientTransform="translate(0 -2119.81) scale(1 2.52)" gradientUnits="userSpaceOnUse"><stop offset="0" stop-color="#141226" stop-opacity="0.6"/><stop offset="0.27" stop-color="#141226" stop-opacity="0.5"/><stop offset="0.42" stop-color="#084976" stop-opacity="0.27"/><stop offset="0.68" stop-color="#0071b0" stop-opacity="0.1"/><stop offset="0.83" stop-color="#1e89c0" stop-opacity="0.08"/><stop offset="0.98" stop-color="#7ad3f3" stop-opacity="0.02"/><stop offset="1" stop-color="#90e5ff" stop-opacity="0"/></radialGradient><linearGradient id="Degradado_sin_nombre_355" x1="1605.7" y1="1721.4" x2="1017.65" y2="1721.4" gradientUnits="userSpaceOnUse"><stop offset="0" stop-color="#141226" stop-opacity="0"/><stop offset="0" stop-color="#141226" stop-opacity="0"/><stop offset="0.15" stop-color="#141226" stop-opacity="0.1"/><stop offset="0.87" stop-color="#141226" stop-opacity="0.3"/><stop offset="1" stop-color="#141226" stop-opacity="0"/></linearGradient><linearGradient id="Nueva_muestra_de_degradado_79" x1="1111.75" y1="2062.88" x2="1232.7" y2="574.53" gradientUnits="userSpaceOnUse"><stop offset="0" stop-color="#1499c2" stop-opacity="0.01"/><stop offset="0.01" stop-color="#159ac4" stop-opacity="0.03"/><stop offset="0.06" stop-color="#189ccd" stop-opacity="0.13"/><stop offset="0.12" stop-color="#1a9ed4" stop-opacity="0.21"/><stop offset="0.19" stop-color="#1ca0d8" stop-opacity="0.26"/><stop offset="0.3" stop-color="#1da1db" stop-opacity="0.29"/><stop offset="0.59" stop-color="#1da1dc" stop-opacity="0.3"/><stop offset="0.6" stop-color="#1ca0d8" stop-opacity="0.26"/><stop offset="0.64" stop-color="#189dcf" stop-opacity="0.14"/><stop offset="0.68" stop-color="#169bc8" stop-opacity="0.06"/><stop offset="0.72" stop-color="#1499c3" stop-opacity="0.02"/><stop offset="0.77" stop-color="#1499c2" stop-opacity="0"/></linearGradient><linearGradient id="Degradado_sin_nombre_354" x1="1283.3" y1="1567.39" x2="1472.57" y2="1674.9" gradientUnits="userSpaceOnUse"><stop offset="0" stop-color="#141226" stop-opacity="0"/><stop offset="0.63" stop-color="#141226" stop-opacity="0.14"/><stop offset="1" stop-color="#141226" stop-opacity="0.3"/></linearGradient><linearGradient id="Degradado_sin_nombre_123" x1="1026.96" y1="1718.51" x2="1423.96" y2="1087.44" gradientUnits="userSpaceOnUse"><stop offset="0" stop-color="#fafbfc"/><stop offset="0.55" stop-color="#f5f8fa"/><stop offset="0.99" stop-color="#d4ecf6" stop-opacity="0.9"/></linearGradient><linearGradient id="Degradado_sin_nombre_92" x1="1127.66" y1="1488.28" x2="1346.42" y2="1499.48" gradientUnits="userSpaceOnUse"><stop offset="0.55" stop-color="#f5f8fa" stop-opacity="0"/><stop offset="0.98" stop-color="#d4ecf6" stop-opacity="0.9"/></linearGradient><linearGradient id="Degradado_sin_nombre_123-2" x1="1219.98" y1="1161.52" x2="1302.31" y2="1308.93" xlink:href="#Degradado_sin_nombre_123"/><linearGradient id="Nueva_muestra_de_degradado_79-2" x1="1545.6" y1="1721.09" x2="1126.91" y2="1079.13" xlink:href="#Nueva_muestra_de_degradado_79"/><linearGradient id="Nueva_muestra_de_degradado_69" x1="-5707.97" y1="-5761.35" x2="-5804.01" y2="-5557.36" gradientTransform="matrix(-1.64, 0, 0, 1.64, -8119.64, 10036.26)" gradientUnits="userSpaceOnUse"><stop offset="0" stop-color="#90e5ff"/><stop offset="1" stop-color="#1da1dc"/></linearGradient><linearGradient id="Degradado_sin_nombre_9" x1="-5538.97" y1="-5353.27" x2="-5831.83" y2="-6021.14" gradientTransform="matrix(-1.42, -0.83, -0.83, 1.42, -11554.41, 4070.22)" gradientUnits="userSpaceOnUse"><stop offset="0.01" stop-color="#141226"/><stop offset="0.58" stop-color="#27244b"/><stop offset="0.98" stop-color="#27244b"/><stop offset="1" stop-color="#27244b"/></linearGradient><symbol id="plant_Background" data-name="plant Background" viewBox="0 0 607.13 1488.89"><path class="cls-9" d="M0,752.58q168.12,604.53,535.31,632.78Q384.83,853.73,0,752.58Z"/><path class="cls-10" d="M504.07,1420c4.61.51,26.6-35,31.24-34.63-5.1-18-17.43,9.81-22.95-7.48C390.67,1165.33,225.64,927.44,3.23,755.15,226.94,947.13,382.31,1192.7,504.07,1420Z"/><path class="cls-11" d="M0,752.58q168.12,604.53,535.31,632.78Q384.83,853.73,0,752.58Z"/><path class="cls-9" d="M167.77,1416.55q62.05-.83,169.71,44.57t229.91,16.52Q359.6,1288.58,167.77,1416.55Z"/><path class="cls-10" d="M555.32,1480.31q6-1.24,12.07-2.67-18.21-16.58-36.31-30.7-144.68-74.13-313.56-42Q401.39,1386.3,555.32,1480.31Z"/><path class="cls-12" d="M350.27,125.84Q337.58,72.89,323.15,0,203.35,184,188.93,391.23q-44.61,585.36,365.4,1066.68,100.89-449.15,9-762.3t-146.11-415Q363,178.83,350.27,125.84Z"/><path class="cls-10" d="M321.34,8.76h0c-27.71,416-19.86,1001.71,233,1449.15,1.78-12.15,8.72-35.67,10.23-47.67C284.54,942.22,306.84,413.11,321.34,8.76Z"/><path class="cls-13" d="M350.27,125.84Q337.58,72.89,323.15,0,203.35,184,188.93,391.23q-44.61,585.36,365.4,1066.68,100.89-449.15,9-762.3t-146.11-415Q363,178.83,350.27,125.84Z"/><g class="cls-14"><path class="cls-15" d="M0,752.58Q129.95,786.74,233.15,870,170,640,188.93,391.23,203.34,184,323.15,0q14.43,72.89,27.12,125.84t67,154.78q54.28,101.82,146.11,415,87,296.4,1.22,714.63c-.73,5.78-2.72,14.24-4.78,22.82q-2.65,12.38-5.45,24.85-20.51-24.08-39.85-48.4c-4.66,6-8.71,10.67-10.41,10.48q-11.24-21-22.87-42.15Q155.48,1311.65,0,752.58Zm567.39,725.06q-2.86-2.61-5.74-5.16L560,1471l-4.38-3.84-1.56-1.35c-1.76-1.51-3.51-3-5.26-4.48l-2.51-2.11-2.87-2.38-3.08-2.53-1.16-.93q-192.61-156-371.36-36.8,62.05-.83,169.71,44.57,102.34,43.2,217.84,19.19h0l1.12-.24c1.44-.3,2.87-.6,4.31-.92C563,1478.67,565.18,1478.16,567.39,1477.64Z"/></g></symbol><symbol id="buttonsserver" data-name="buttonsserver" viewBox="0 0 242 229"><g id="buttonsServer-3" data-name="buttonsServer"><path class="cls-1" d="M214.48,128.16a15.28,15.28,0,0,1,6.94,12l-.09,64.68c0,4.42-3.14,6.2-7,4L27.06,100.69a15.27,15.27,0,0,1-6.93-12L20.21,24c0-4.42,3.14-6.2,7-4Z"/><path class="cls-2" d="M214.63,124.38,27.34,16.24c-1.94-1.11-3.69-1.21-4.95-.48L4.52,26.15c1.27-.74,3-.64,5,.48L196.76,134.76a15.3,15.3,0,0,1,6.93,12L203.61,177c0,2.19-.78,3.74-2,4.46l17.87-10.38c1.24-.73,2-2.27,2-4.46l.09-30.2A15.3,15.3,0,0,0,214.63,124.38Z"/><path class="cls-3" d="M196.76,134.76a15.3,15.3,0,0,1,6.93,12L203.61,177c0,4.42-3.14,6.2-7,4L9.34,72.81a15.25,15.25,0,0,1-6.94-12l.09-30.2c0-4.41,3.14-6.2,7-4Z"/><path class="cls-4" d="M127.28,126.43,18.61,63.69C15,61.58,12,55.93,12,51.06h0c0-4.87,3-7.11,6.61-5L127.28,108.8c3.65,2.11,6.61,7.77,6.61,12.63h0C133.89,126.3,130.93,128.54,127.28,126.43Z"/><path class="cls-5" d="M190.12,162.71l-.79-.46c-2.79-1.6-5-5.91-5-9.63v-4.19c0-3.71,2.25-5.41,5-3.81l.79.46c2.78,1.61,5,5.92,5,9.63v4.19C195.16,162.61,192.9,164.32,190.12,162.71Z"/><path class="cls-6" d="M170.92,151.63l-.79-.46c-2.78-1.61-5-5.92-5-9.63v-4.19c0-3.71,2.26-5.41,5-3.81l.79.46c2.78,1.61,5,5.92,5,9.63v4.19C176,151.53,173.7,153.23,170.92,151.63Z"/><path class="cls-7" d="M151.72,140.54l-.79-.45c-2.78-1.61-5-5.92-5-9.63v-4.19c0-3.71,2.26-5.42,5-3.81l.79.46c2.79,1.6,5,5.91,5,9.62v4.19C156.76,140.44,154.51,142.15,151.72,140.54Z"/><path class="cls-8" d="M214.63,124.38,27.34,16.24c-1.94-1.11-3.69-1.21-4.95-.48L4.52,26.15c1.27-.74,3-.64,5,.48L196.76,134.76a15.3,15.3,0,0,1,6.93,12L203.61,177c0,2.19-.78,3.74-2,4.46l17.87-10.38c1.24-.73,2-2.27,2-4.46l.09-30.2A15.3,15.3,0,0,0,214.63,124.38Z"/></g></symbol></defs><use id="plant" width="607.13" height="1488.89" transform="translate(560.17 200.53)" xlink:href="#plant_Background"/><g id="Host_Upgrade_Scheduled" data-name="Host Upgrade Scheduled"><g id="ServerPill"><g id="server"><g id="shadow" class="cls-16"><path class="cls-17" d="M1374.45,1868.48,1616,1728.1c8.46-4.92,8.42-12.92-.1-17.83l-243.16-140.39c-8.51-4.91-97-4.91-105.51,0l-241.57,140.39c-8.46,4.92-8.42,12.92.09,17.83l243.16,140.39C1277.45,1873.4,1332.86,1884,1374.45,1868.48Z"/></g><path id="inside" class="cls-3" d="M1288.3,1840.75c-.13.19-.27.39-.42.57-.28.38-.58.75-.87,1.1a24.07,24.07,0,0,1-1.9,2l-.5.44a21.33,21.33,0,0,1-5.83,3.65l-.92.37c-.42.14-.83.29-1.26.41l-.51.15-.76.2-.56.13-.68.13-.56.1a30.47,30.47,0,0,1-12.53-.85c-.84-.22-1.69-.48-2.55-.77-1.28-.43-2.59-.94-3.92-1.53a53.86,53.86,0,0,1-5.39-2.75L1071,1741.25c-24.93-14.41-45.16-49.25-45.16-77.85V1172c0-11.37,3.2-20,8.63-25.45.14-.15.29-.29.45-.44a21.65,21.65,0,0,1,10.47-5.46l.64-.12a4.76,4.76,0,0,1,.64-.11l1-.14c.24,0,.49-.06.73-.07s.75-.06,1.12-.08a26,26,0,0,1,3,0c-3.82,5.39-6,12.94-6,22.33V1653.9c0,28.6,20.22,63.44,45.16,77.85l178.15,102.85C1276.43,1838.4,1282.67,1840.39,1288.3,1840.75Z"/><path id="inside-2" data-name="inside" class="cls-18" d="M1288.3,1840.75c-.13.19-.27.39-.42.57-.28.38-.58.75-.87,1.1a24.07,24.07,0,0,1-1.9,2l-.5.44a21.33,21.33,0,0,1-5.83,3.65l-.92.37c-.42.14-.83.29-1.26.41l-.51.15-.76.2-.56.13-.68.13-.56.1a30.47,30.47,0,0,1-12.53-.85c-.84-.22-1.69-.48-2.55-.77-1.28-.43-2.59-.94-3.92-1.53a53.86,53.86,0,0,1-5.39-2.75L1071,1741.25c-24.93-14.41-45.16-49.25-45.16-77.85V1172c0-11.37,3.2-20,8.63-25.45.14-.15.29-.29.45-.44a21.65,21.65,0,0,1,10.47-5.46l.64-.12a4.76,4.76,0,0,1,.64-.11l1-.14c.24,0,.49-.06.73-.07s.75-.06,1.12-.08a26,26,0,0,1,3,0c-3.82,5.39-6,12.94-6,22.33V1653.9c0,28.6,20.22,63.44,45.16,77.85l178.15,102.85C1276.43,1838.4,1282.67,1840.39,1288.3,1840.75Z"/><path id="inside-3" data-name="inside" class="cls-19" d="M1288.3,1840.75c-.13.19-.27.39-.42.57-.28.38-.58.75-.87,1.1a24.07,24.07,0,0,1-1.9,2l-.5.44a21.33,21.33,0,0,1-5.83,3.65l-.92.37c-.42.14-.83.29-1.26.41l-.51.15-.76.2-.56.13-.68.13-.56.1a30.47,30.47,0,0,1-12.53-.85c-.84-.22-1.69-.48-2.55-.77-1.28-.43-2.59-.94-3.92-1.53a53.86,53.86,0,0,1-5.39-2.75L1071,1741.25c-24.93-14.41-45.16-49.25-45.16-77.85V1172c0-11.37,3.2-20,8.63-25.45.14-.15.29-.29.45-.44a21.65,21.65,0,0,1,10.47-5.46l.64-.12a4.76,4.76,0,0,1,.64-.11l1-.14c.24,0,.49-.06.73-.07s.75-.06,1.12-.08a26,26,0,0,1,3,0c-3.82,5.39-6,12.94-6,22.33V1653.9c0,28.6,20.22,63.44,45.16,77.85l178.15,102.85C1276.43,1838.4,1282.67,1840.39,1288.3,1840.75Z"/><path id="front" class="cls-20" d="M1294.31,1327V1818.4q0,.88,0,1.74t-.06,1.47c0,.66-.08,1.31-.15,2s-.1,1-.17,1.54-.13,1.05-.22,1.57-.16.94-.24,1.39l0,.12c-.08.45-.17.9-.27,1.33a2.29,2.29,0,0,0-.07.28q-.15.66-.33,1.29l0,.1c-.12.43-.24.86-.38,1.28s-.26.8-.4,1.2c0,.14-.1.28-.16.42-.12.34-.25.67-.38,1s-.35.83-.54,1.23-.34.74-.52,1.09l0,.1c-.2.38-.41.76-.62,1.13h0c-.42.73-.88,1.44-1.35,2.12-5.63-.36-11.87-2.35-18.45-6.15L1091.7,1731.75c-24.94-14.41-45.16-49.25-45.16-77.85V1162.52c0-9.39,2.18-16.94,6-22.33l1.07.09,1.07.12,1.06.16h.08l1.06.2a33.81,33.81,0,0,1,3.6.9l1.2.39c.43.14.85.29,1.28.45.75.28,1.5.58,2.27.91l.76.34,1,.47,1,.49c.54.27,1.07.55,1.61.85s.9.5,1.36.76L1245.39,1247l3.75,2.18a65.7,65.7,0,0,1,5.92,3.85C1277.21,1269.15,1294.31,1300.74,1294.31,1327Z"/><path id="front-2" data-name="front" class="cls-21" d="M1294.31,1327V1818.4q0,.88,0,1.74t-.06,1.47c0,.66-.08,1.31-.15,2s-.1,1-.17,1.54-.13,1.05-.22,1.57-.16.94-.24,1.39l0,.12c-.08.45-.17.9-.27,1.33a2.29,2.29,0,0,0-.07.28q-.15.66-.33,1.29l0,.1c-.12.43-.24.86-.38,1.28s-.26.8-.4,1.2c0,.14-.1.28-.16.42-.12.34-.25.67-.38,1s-.35.83-.54,1.23-.34.74-.52,1.09l0,.1c-.2.38-.41.76-.62,1.13h0c-.42.73-.88,1.44-1.35,2.12-5.63-.36-11.87-2.35-18.45-6.15L1091.7,1731.75c-24.94-14.41-45.16-49.25-45.16-77.85V1162.52c0-9.39,2.18-16.94,6-22.33l1.07.09,1.07.12,1.06.16h.08l1.06.2a33.81,33.81,0,0,1,3.6.9l1.2.39c.43.14.85.29,1.28.45.75.28,1.5.58,2.27.91l.76.34,1,.47,1,.49c.54.27,1.07.55,1.61.85s.9.5,1.36.76L1245.39,1247l3.75,2.18a65.7,65.7,0,0,1,5.92,3.85C1277.21,1269.15,1294.31,1300.74,1294.31,1327Z"/><g id="top"><path class="cls-3" d="M1533.21,1200v491.38c0,17-5.92,29-15.54,34.83l-.55.31-228.43,132.12c6.72-4.14,11.6-11.37,13.87-21.25A59.36,59.36,0,0,0,1304,1824V1332.62c0-32.38-21.46-71.49-48.93-90.74-1.93-1.38-3.91-2.63-5.92-3.79l-3.75-2.17L1071,1135.23a68.05,68.05,0,0,0-7-3.51c-12.22-5.28-23.19-5.2-31.53-.56l228.77-132.34c10-5.79,23.74-5,39,3.82l178.15,102.85C1508.61,1123,1533.21,1165.35,1533.21,1200Z"/></g><g id="top-2" data-name="top"><path class="cls-22" d="M1300.88,1848.86a43.23,43.23,0,0,0,4-10.91,61.81,61.81,0,0,0,1.49-14V1332.62c0-32.9-21.47-72.75-49.94-92.7-1.91-1.36-3.91-2.64-6.11-3.91l-3.74-2.16-174.4-100.69a69.09,69.09,0,0,0-7.24-3.64,47.57,47.57,0,0,0-17.63-4.18l215.13-124.45a25.86,25.86,0,0,1,13.19-3.37c7.25,0,15.12,2.42,23.39,7.19l178.15,102.85c29.58,17.08,53.64,58.56,53.64,92.47v491.38c0,15.57-5.11,27.21-14.38,32.77l-.5.29Z"/><path class="cls-23" d="M1275.64,995.12v4.79c6.73,0,14.4,2.38,22.19,6.88L1476,1109.64c13.91,8,27.06,21.91,37,39.07s15.44,35.38,15.44,51.32v491.38c0,14.67-4.68,25.57-13.18,30.69l-.52.3-208.82,120.78a47.12,47.12,0,0,0,1.31-4.68,64.38,64.38,0,0,0,1.55-14.51V1332.62c0-33.61-21.9-74.3-50.93-94.64a74.72,74.72,0,0,0-6.3-4l-3.76-2.18-174.4-100.69a71.45,71.45,0,0,0-7.47-3.75,55.45,55.45,0,0,0-11.13-3.54L1263.66,1003a23.48,23.48,0,0,1,12-3.05v-4.79m0,0a28.27,28.27,0,0,0-14.39,3.7l-228.77,132.34a28.35,28.35,0,0,1,13.92-3.44,44.77,44.77,0,0,1,17.61,4,68.05,68.05,0,0,1,7,3.51l174.4,100.69,3.75,2.17c2,1.16,4,2.41,5.92,3.79,27.47,19.25,48.93,58.36,48.93,90.74V1824a59.36,59.36,0,0,1-1.43,13.43c-2.27,9.88-7.15,17.11-13.87,21.25l228.43-132.12.55-.32c9.62-5.77,15.54-17.81,15.54-34.82V1200c0-34.68-24.6-77.08-54.83-94.54l-178.15-102.85c-8.84-5.1-17.19-7.52-24.59-7.52Z"/><path class="cls-3" d="M1275.64,995.12v2.4c7.25,0,15.12,2.42,23.39,7.19l178.15,102.85c29.58,17.08,53.64,58.56,53.64,92.47v491.38c0,15.55-5.1,27.19-14.35,32.76l-.54.31-215,124.38a43.3,43.3,0,0,0,4-10.9,62,62,0,0,0,1.49-14V1332.62c0-32.9-21.47-72.75-49.93-92.69-1.92-1.37-3.92-2.65-6.11-3.91l-3.76-2.18-174.4-100.68a66.83,66.83,0,0,0-7.22-3.63,47.49,47.49,0,0,0-17.64-4.19l215.13-124.45a25.86,25.86,0,0,1,13.19-3.37v-2.4m0,0a28.27,28.27,0,0,0-14.39,3.7l-228.77,132.34a28.35,28.35,0,0,1,13.92-3.44,44.77,44.77,0,0,1,17.61,4,68.05,68.05,0,0,1,7,3.51l174.4,100.69,3.75,2.17c2,1.16,4,2.41,5.92,3.79,27.47,19.25,48.93,58.36,48.93,90.74V1824a59.36,59.36,0,0,1-1.43,13.43c-2.27,9.88-7.15,17.11-13.87,21.25l228.43-132.12.55-.32c9.62-5.77,15.54-17.81,15.54-34.82V1200c0-34.68-24.6-77.08-54.83-94.54l-178.15-102.85c-8.84-5.1-17.19-7.52-24.59-7.52Z"/></g><path id="top-3" data-name="top" class="cls-24" d="M1533.21,1200v491.38c0,17-5.92,29-15.54,34.83l-.55.31-228.43,132.12c6.72-4.14,11.6-11.37,13.87-21.25A59.36,59.36,0,0,0,1304,1824V1332.62c0-32.38-21.46-71.49-48.93-90.74-1.93-1.38-3.91-2.63-5.92-3.79l-3.75-2.17L1071,1135.23a68.05,68.05,0,0,0-7-3.51c-12.22-5.28-23.19-5.2-31.53-.56l228.77-132.34c10-5.79,23.74-5,39,3.82l178.15,102.85C1508.61,1123,1533.21,1165.35,1533.21,1200Z"/><path id="Corner" class="cls-25" d="M1255.06,1241.88c-1.93-1.38-3.91-2.63-5.92-3.79l-3.75-2.17L1071,1135.23a68.05,68.05,0,0,0-7-3.51c-12.22-5.28-23.19-5.2-31.53-.56l-.88.5c-9.56,5.81-15.45,17.82-15.45,34.77v491.38c0,34.66,24.61,77.08,54.84,94.53l178.15,102.86c14.94,8.63,28.51,9.57,38.41,4.13l0,0,.93-.54.18-.1c6.72-4.14,11.6-11.37,13.87-21.25A59.36,59.36,0,0,0,1304,1824V1332.62C1304,1300.24,1282.53,1261.13,1255.06,1241.88Zm39.25,576.52q0,.88,0,1.74t-.06,1.47c0,.66-.08,1.31-.15,2s-.1,1-.17,1.54-.13,1.05-.22,1.57-.16.94-.24,1.39l0,.12c-.08.45-.17.9-.27,1.33a2.29,2.29,0,0,0-.07.28q-.15.66-.33,1.29l0,.1c-.12.43-.24.86-.38,1.28s-.26.8-.4,1.2c0,.14-.1.28-.16.42-.11.33-.25.66-.38,1s-.35.83-.54,1.23-.34.74-.52,1.09l0,.1c-.2.38-.41.76-.62,1.13h0c-.42.74-.87,1.44-1.35,2.12-.13.19-.27.39-.42.57-.28.38-.58.75-.87,1.1a24.07,24.07,0,0,1-1.9,2l-.5.44a21.33,21.33,0,0,1-5.83,3.65l-.92.37c-.42.14-.83.29-1.26.41l-.51.15-.76.2-.56.13-.68.13-.56.1a30.47,30.47,0,0,1-12.53-.85c-.84-.22-1.69-.48-2.55-.77-1.28-.43-2.59-.94-3.92-1.53a53.86,53.86,0,0,1-5.39-2.75L1071,1741.25c-24.93-14.41-45.16-49.25-45.16-77.85V1172c0-11.37,3.2-20,8.63-25.45.14-.15.29-.29.45-.44a21.65,21.65,0,0,1,10.47-5.46l.64-.12a4.76,4.76,0,0,1,.64-.11l1-.14c.24,0,.49-.06.73-.07s.75-.06,1.12-.08a26,26,0,0,1,3,0c.36,0,.7,0,1.07.09a10,10,0,0,1,1.07.12c.35,0,.71.1,1.06.16h.08c.35,0,.7.12,1.06.2a33.81,33.81,0,0,1,3.6.9l1.2.39c.43.13.85.29,1.28.45.75.28,1.5.58,2.27.91l.76.34,1,.47,1,.49c.54.27,1.07.55,1.61.85s.9.5,1.36.76L1245.39,1247l3.75,2.18a65.7,65.7,0,0,1,5.92,3.85c22.15,16.11,39.25,47.7,39.25,74Z"/><use width="242" height="229" transform="translate(1057.34 1185.74)" xlink:href="#buttonsserver"/><use width="242" height="229" transform="translate(1057.34 1281.02)" xlink:href="#buttonsserver"/><use width="242" height="229" transform="translate(1057.34 1376.31)" xlink:href="#buttonsserver"/></g><g id="pill"><g id="Calendar-shadow" class="cls-16"><path d="M1190.61,515.54c-6.6-3.81-11-1.31-11,6.25h0v2.52l-30.78-17.77c-9.9-5.71-15.39,1.2-16.49,10.65h0V716.28c0,10.08,7.69,23.35,16.49,28.42h0l170.38,98.37c8.79,5.08,16.49.7,16.49-9.38h0V634.6c0-10.09-7.7-24.61-15.39-27.79h0L1289.54,589v-3.78a22.42,22.42,0,0,0-11-19c-6.6-3.81-11-1.31-11,6.26h0v3.78l-66-38.08v-3.78A22.52,22.52,0,0,0,1190.61,515.54Zm-36.28,93.73,159.39,92V813.44l-159.39-92Zm111,90.56v27.72l24.18,14V713.79Zm-42.87-24.75V702.8l24.18,14V689Zm-44-25.39v27.72l24.18,14V663.65Zm111-36.71,24.18,14v49.15L1155.43,584.7V535.55l24.19,14v11.34a22.47,22.47,0,0,0,11,18.94c6.59,3.81,11,1.31,11-6.25h0V562.21l66,38.08v11.34a22.51,22.51,0,0,0,11,19c6.59,3.8,11,1.3,11-6.26h0Z"/></g><g id="Circle_Tick_upgrade_Calendar" data-name="Circle Tick upgrade Calendar"><g class="cls-26"><path class="cls-27" d="M1096.24,408.4c39.16-22.76,93.39-19.55,153.25,15,119,68.67,215.07,235.16,214.68,371.84-.19,67.9-24.17,115.68-62.83,138.15l-15.82,9.11c38.67-22.47,62.64-70.25,62.83-138.15.39-136.68-95.73-303.16-214.68-371.84-59.86-34.56-114.09-37.77-153.25-15Z"/><ellipse class="cls-28" cx="1232.97" cy="680.01" rx="175.86" ry="303.61" transform="translate(-174.73 711.58) rotate(-30.16)"/></g></g><path id="Calendar" class="cls-29" d="M1185.75,518.19c-6.6-3.81-11-1.31-11,6.25h0V527L1144,509.19c-9.9-5.71-15.39,1.2-16.49,10.65h0V718.93c0,10.08,7.69,23.35,16.49,28.42h0l170.38,98.37c8.79,5.08,16.49.7,16.49-9.38h0V637.25c0-10.09-7.7-24.61-15.39-27.79h0l-30.78-17.77v-3.78a22.42,22.42,0,0,0-11-18.95c-6.6-3.81-11-1.3-11,6.26h0V579l-66-38.08v-3.78A22.52,22.52,0,0,0,1185.75,518.19Zm-36.28,93.73,159.39,92V816.09l-159.39-92Zm111,90.56V730.2l24.18,14V716.44Zm-42.87-24.75v27.72l24.18,14V691.69Zm-44-25.39v27.72l24.18,14V666.3Zm111-36.71,24.18,14v49.15l-158.29-91.39V538.2l24.19,14v11.34a22.47,22.47,0,0,0,11,18.94c6.59,3.81,11,1.31,11-6.25h0V564.86l66,38.08v11.34a22.5,22.5,0,0,0,11,19c6.59,3.8,11,1.3,11-6.26h0Z"/></g></g></g></svg>