<svg xmlns="http://www.w3.org/2000/svg" xmlns:xlink="http://www.w3.org/1999/xlink" viewBox="0 0 2500 2500"><defs><radialGradient id="f85806b4-2a4c-41bc-aa38-d0a0f1d6d49d" cx="156.96" cy="156.96" r="156.96" gradientUnits="userSpaceOnUse"><stop offset="0" stop-color="#5d7586" stop-opacity="0.3"/><stop offset="0.29" stop-color="#5d7586" stop-opacity="0.2"/><stop offset="0.53" stop-color="#5d7586" stop-opacity="0.1"/><stop offset="0.79" stop-color="#5d7586" stop-opacity="0.07"/><stop offset="1" stop-color="#5d7586" stop-opacity="0"/></radialGradient><radialGradient id="f27af44c-a957-485d-8ff4-ef9c83d5a37c" cx="156.96" cy="156.96" r="156.96" gradientUnits="userSpaceOnUse"><stop offset="0" stop-color="#141226" stop-opacity="0.3"/><stop offset="1" stop-color="#141226" stop-opacity="0"/></radialGradient><linearGradient id="a905bee8-49c4-48f4-9298-a89407c36164" x1="1809.24" y1="1770.51" x2="1660.82" y2="1645.95" gradientUnits="userSpaceOnUse"><stop offset="0" stop-color="#90e5ff" stop-opacity="0"/><stop offset="0.04" stop-color="#7ad3f3" stop-opacity="0.02"/><stop offset="0.25" stop-color="#1e89c0" stop-opacity="0.08"/><stop offset="0.48" stop-color="#0071b0" stop-opacity="0.1"/><stop offset="1" stop-color="#141226" stop-opacity="0.5"/></linearGradient><linearGradient id="b99d5a0d-6df8-40fb-b59e-83887070c79b" x1="1716.95" y1="1230.04" x2="2048.04" y2="1230.04" xlink:href="#a905bee8-49c4-48f4-9298-a89407c36164"/><linearGradient id="ef03c934-c6a7-4008-aa8c-f9ee9fceb37c" x1="2014.41" y1="1672.68" x2="1921.65" y2="1218.15" xlink:href="#a905bee8-49c4-48f4-9298-a89407c36164"/><linearGradient id="aa96f8c2-019d-4566-95fd-d1581deb8cc4" x1="1915.82" y1="1471.08" x2="1308.9" y2="1602.27" xlink:href="#a905bee8-49c4-48f4-9298-a89407c36164"/><radialGradient id="b6332ee1-ab0c-430f-ba99-bf23233e305b" cx="1874.8" cy="1122.12" r="136.53" gradientTransform="matrix(1, 0.08, -0.04, 0.5, 53.72, 406.77)" gradientUnits="userSpaceOnUse"><stop offset="0" stop-color="#141226" stop-opacity="0.5"/><stop offset="0.58" stop-color="#0a3f68" stop-opacity="0.26"/><stop offset="1" stop-color="#0071b0" stop-opacity="0"/></radialGradient><linearGradient id="abda5795-326f-4763-b9ba-48add766d221" x1="1043.77" y1="1658.49" x2="572.01" y2="1486.22" gradientUnits="userSpaceOnUse"><stop offset="0.05" stop-color="#141226" stop-opacity="0.5"/><stop offset="0.29" stop-color="#084976" stop-opacity="0.27"/><stop offset="0.7" stop-color="#0071b0" stop-opacity="0.1"/><stop offset="0.85" stop-color="#1e89c0" stop-opacity="0.08"/><stop offset="0.98" stop-color="#7ad3f3" stop-opacity="0.02"/><stop offset="1" stop-color="#90e5ff" stop-opacity="0"/></linearGradient><linearGradient id="aff68ecb-57e4-42ce-8404-1e1857a25ab9" x1="1874.45" y1="1102.43" x2="1885.06" y2="1542.38" gradientUnits="userSpaceOnUse"><stop offset="0" stop-color="#0071b0" stop-opacity="0"/><stop offset="0.01" stop-color="#016eac" stop-opacity="0.04"/><stop offset="0.15" stop-color="#0e5289" stop-opacity="0.39"/><stop offset="0.3" stop-color="#183c6d" stop-opacity="0.66"/><stop offset="0.47" stop-color="#1f2d5a" stop-opacity="0.85"/><stop offset="0.67" stop-color="#23244e" stop-opacity="0.97"/><stop offset="1" stop-color="#24214b"/></linearGradient><linearGradient id="ec5a6c51-8b46-4210-bf13-2aa9c4abab9a" x1="1213.56" y1="1250.3" x2="1336.97" y2="1303.49" gradientUnits="userSpaceOnUse"><stop offset="0" stop-color="#010d19" stop-opacity="0"/><stop offset="1" stop-color="#010d19" stop-opacity="0.99"/></linearGradient><linearGradient id="a5a6f2d1-bb68-41b1-a826-3b7a6f181500" x1="1157.86" y1="1243.99" x2="1102.86" y2="1245.98" xlink:href="#ec5a6c51-8b46-4210-bf13-2aa9c4abab9a"/><linearGradient id="f2062320-947c-4deb-b5e0-b0d5f79b65eb" x1="1345.8" y1="1098.07" x2="1365.81" y2="1179.67" gradientUnits="userSpaceOnUse"><stop offset="0.14" stop-color="#010d19" stop-opacity="0"/><stop offset="0.73" stop-color="#010d19" stop-opacity="0.63"/><stop offset="1" stop-color="#010d19" stop-opacity="0.99"/></linearGradient><linearGradient id="a4231af4-7230-4700-99c2-7fe90adb1c3e" x1="1444.83" y1="1723.58" x2="1193.01" y2="1742.14" gradientUnits="userSpaceOnUse"><stop offset="0" stop-color="#010d1a" stop-opacity="0"/><stop offset="1" stop-color="#010d1a"/></linearGradient><linearGradient id="fc0043b4-85ad-419b-8a6f-cac29dbc5b30" x1="1948.47" y1="1730.55" x2="932.52" y2="1762.35" xlink:href="#a4231af4-7230-4700-99c2-7fe90adb1c3e"/><linearGradient id="a7f1c21c-ebc6-4402-86a8-8e6a00ed8295" x1="1323.62" y1="1636.33" x2="1329.8" y2="1611.6" gradientUnits="userSpaceOnUse"><stop offset="0" stop-color="#01122b" stop-opacity="0"/><stop offset="1" stop-color="#01122b"/></linearGradient><linearGradient id="bdd99cce-5029-4819-b500-3ef3ab14293b" x1="1398.55" y1="1129.63" x2="1785.22" y2="1335.79" gradientUnits="userSpaceOnUse"><stop offset="0.07" stop-color="#010d19" stop-opacity="0"/><stop offset="1" stop-color="#010d19" stop-opacity="0.99"/></linearGradient><linearGradient id="ec218d63-cea5-48a5-ae44-e9d02200f4c7" x1="1153.44" y1="1060.97" x2="1144.58" y2="1364.73" gradientUnits="userSpaceOnUse"><stop offset="0.04" stop-color="#010d19" stop-opacity="0"/><stop offset="1" stop-color="#010d19" stop-opacity="0.99"/></linearGradient><linearGradient id="ea3f35c2-64a3-4138-a253-8e6718a47c71" x1="1128.61" y1="1635.87" x2="621.57" y2="1849.6" gradientUnits="userSpaceOnUse"><stop offset="0" stop-color="#010d19" stop-opacity="0"/><stop offset="0.86" stop-color="#010d19" stop-opacity="0.84"/><stop offset="1" stop-color="#010d19"/></linearGradient><linearGradient id="e943f769-4d04-48d5-864e-cac426dab008" x1="1016.69" y1="1712.71" x2="980.74" y2="1241.71" gradientUnits="userSpaceOnUse"><stop offset="0" stop-color="#010d19" stop-opacity="0"/><stop offset="1" stop-color="#010d19"/></linearGradient><linearGradient id="f6e77852-542b-486b-8672-7f5511393fb3" x1="1008.09" y1="1019.3" x2="1001.03" y2="926.54" gradientUnits="userSpaceOnUse"><stop offset="0.13" stop-color="#fff" stop-opacity="0"/><stop offset="0.21" stop-color="#fff" stop-opacity="0.02"/><stop offset="0.32" stop-color="#fff" stop-opacity="0.09"/><stop offset="0.44" stop-color="#fff" stop-opacity="0.21"/><stop offset="0.58" stop-color="#fff" stop-opacity="0.37"/><stop offset="0.74" stop-color="#fff" stop-opacity="0.58"/><stop offset="0.9" stop-color="#fff" stop-opacity="0.82"/><stop offset="1" stop-color="#fff"/></linearGradient><linearGradient id="b3dcde30-3f3d-40bb-981b-f27486c57e33" x1="924.3" y1="1270.19" x2="863.34" y2="1272.84" xlink:href="#ec5a6c51-8b46-4210-bf13-2aa9c4abab9a"/><symbol id="b9270d99-cccd-4ccf-9d89-701b9374ee56" data-name="shadow characters 2" viewBox="0 0 313.93 313.93"><circle cx="156.96" cy="156.96" r="156.96" fill="url(#f27af44c-a957-485d-8ff4-ef9c83d5a37c)"/></symbol><symbol id="a83e104b-f488-4cf7-b062-a58fe85f94b3" data-name="confetti 3" viewBox="0 0 35.65 35.65"><line x1="2.5" y1="33.15" x2="33.15" y2="2.5" fill="#4dd2d2" stroke="#4dd2d2" stroke-linecap="round" stroke-miterlimit="10" stroke-width="5"/></symbol><symbol id="f83a8a06-28e8-4a9b-98bf-0f3652425680" data-name="confetti 4" viewBox="0 0 7 7"><line x1="3.5" y1="3.5" x2="3.5" y2="3.5" fill="none" stroke="#4dd2d2" stroke-linecap="round" stroke-miterlimit="10" stroke-width="7"/></symbol><symbol id="a59f0e60-da0b-41c9-9a7e-b96ccff544e4" data-name="handmove" viewBox="0 0 87.29 71.34"><path id="be578e0d-e10e-4ae3-90df-f93742dead88" data-name="Layer1 15 1 STROKES" d="M63.37,3.37q18.88,6.84,18.33,31" fill="none" stroke="#1da1dc" stroke-linecap="round" stroke-linejoin="round" stroke-opacity="0.99" stroke-width="2"/><path id="a6408b49-f8e3-42f6-bb51-fe52ac85aa23" data-name="Layer1 16 1 STROKES" d="M74,1Q87.6,6.54,86.15,20.3" fill="none" stroke="#1da1dc" stroke-linecap="round" stroke-linejoin="round" stroke-opacity="0.99" stroke-width="2"/><path id="a858972c-ff44-465c-8ada-04d98b563191" data-name="Layer1 17 1 STROKES" d="M7.22,39.16Q4.94,57.21,22,70.34" fill="none" stroke="#1da1dc" stroke-linecap="round" stroke-linejoin="round" stroke-opacity="0.99" stroke-width="2"/><path id="f73172d2-eb36-4e06-b2f0-35985376dd5b" data-name="Layer1 18 1 STROKES" d="M1.36,49.91Q-.92,61.63,11.2,69.81" fill="none" stroke="#1da1dc" stroke-linecap="round" stroke-linejoin="round" stroke-opacity="0.99" stroke-width="2"/></symbol></defs><g style="isolation:isolate"><g id="aae0a785-4c61-4414-8eb0-ef4edbe8c5c2" data-name="ARTWORK"><g id="e6fa6d21-4878-42e8-8538-ef2fcebf29ed" data-name="Plant-Right"><path d="M2070,1599.33q195.54-203.4-73.7-100.15a1154.37,1154.37,0,0,0-225.9,116.7q-216.89,143.83-417.75,355.35,181.1,18.76,409.65-135.4T2070,1599.33Z" fill="#52d6ff"/><path d="M1861.22,1660.63c-2.94,2.06-5.15,3.6-6.65,4.6l-41.6,28.45q-28.31,19.2-59.15,39.45l-124,78.35-90.4,53.35-55.15,30.9-37.15,20.1-49,25.7-14,7.9-.45.3-.5.25-13.45,8.45a10.29,10.29,0,0,0-1.35.85l-8,5.35-.25.2-.1.05-7.75,5.9c-.24.16-.27.4-.1.7a.53.53,0,0,0,.55.15l9.5-2.6.25,0,15.5-5.4,23.5-10q8.6-4.11,18.8-9.45l57-30.4,60.9-34.25c3.76-2.2,6.16-3.59,7.2-4.15l52.85-31.35a5.87,5.87,0,0,1,1-.55l36.35-22.4,46.55-29.5,61.55-40.6,73.55-50.85,72.8-52.75,39.85-30,86.25-67.55q.09-.06,0-.15s-.09,0-.15,0L1927.52,1614Z" fill="#31a9df"/><path d="M2070,1599.33q195.54-203.4-73.7-100.15a1154.37,1154.37,0,0,0-225.9,116.7q-216.89,143.83-417.75,355.35,181.1,18.76,409.65-135.4T2070,1599.33Z" fill="url(#a905bee8-49c4-48f4-9298-a89407c36164)"/><path d="M2159,1309.73q-24.45-100-93.6-150-92.93-36.95-167.4-9.9-112.92,60.47-170.45,189.6,145.1-91.89,242,8.55,52.35,58.62,147.45,45.45Q2177.86,1387,2159,1309.73Z" fill="#20bcec"/><path d="M1717.52,1166.08h0l36-4.95q8.94-1,11.9-1.2l16.65-1.2a6.43,6.43,0,0,0,.9,0,6.43,6.43,0,0,0,.9,0l1.75-.05a80525769031508.25,80525769031508.25,0,0,1,1.8-.1l5.5-.2q6.6-.21,15.35-.2,2.6,0,8,.15l8.15.3q9,.49,16.8,1.25a290.91,290.91,0,0,1,34.75,5.5,255.55,255.55,0,0,1,34.7,10.3l8.45,3.4q3.64,1.55,8.25,3.7,4.35,2.1,8,4,3.35,1.69,7.9,4.3,5.1,3,7.6,4.6l.5.3,17.4,12.25.4.35.45.3,5.75,4.7,13.8,12.55,4.2,4.3c.33.3.8.78,1.4,1.45l1.35,1.4q5.55,6,10,11.45l8.85,11.25q3.75,5,7.65,10.7l12,18.95q1.8,3,4.4,7.7l8,15a.5.5,0,0,0,.7.2c.23-.1.31-.32.25-.65l-11.9-26.6-9.45-17.1q-3.66-6-7.2-11.3a249.17,249.17,0,0,0-18.35-24q-5.8-6.66-11.35-12.1l-9.4-8.85-12.9-10.55-9.3-6.55-10.7-6.8q-5.4-3.11-8.15-4.55-3.85-2.06-8.35-4.2l-8.55-3.9-17.65-6.65q-3-1-9-2.8-9.25-2.61-18.1-4.45l-18-3.15q-8.61-1.15-17.75-1.85l-4.35-.3a7.58,7.58,0,0,0-1.1-.05l-11.75-.45q-2.81-.11-8.35-.1l-8.15.15q-15.56.49-30,2.15l-13.25,1.7q-7.35,1-11.9,1.85l-26.25,5.4c-.84.16-2.55.58-5.15,1.25l-4.35,1.1c-.3.06-.42.26-.35.6S1717.25,1166.14,1717.52,1166.08Z" fill="url(#b99d5a0d-6df8-40fb-b59e-83887070c79b)"/><path d="M2159,1309.73q-24.45-100-93.6-150-92.93-36.95-167.4-9.9-112.92,60.47-170.45,189.6,145.1-91.89,242,8.55,52.35,58.62,147.45,45.45Q2177.86,1387,2159,1309.73Z" fill="url(#ef03c934-c6a7-4008-aa8c-f9ee9fceb37c)"/><path d="M1738.32,1582.38l119.85-232.5q90.91-176.42,207.25-190.15-171.21-64.82-314.75-9.25t-246.4,264.6q-102.81,209-170.15,506.7Q1473.5,2029.74,1738.32,1582.38Z" fill="#20bcec"/><path d="M1881.67,1124.88c-3.84.08-7.67.22-11.5.4q-3.43,1.56-6.75,3.2-7.15,3.54-14.15,7.4-7.61,4.29-14.45,8.7-5.7,3.6-14.6,9.85l-14.65,11.15q-2.65,2.1-7.3,6-2.61,2.19-7.3,6.3l-28.75,27.9q-7.9,8.4-14,15.5l-13.75,16.4q-6.75,8.34-13.4,17.3-6.55,8.7-13.1,18-6.1,8.7-12.7,18.75l-12.35,19.35q-4.61,7.35-12,19.9-4.8,8.15-11.6,20.4-5.61,9.94-11.25,20.8-4.3,8.19-10.9,21.15l-10.5,21.45q-6.81,14.4-10.1,21.65l-38,86.85q-5.55,12.6-9.5,21.3-5.55,12.39-9.5,21-6.3,13.89-9.5,20.7l-9.5,20.35q-11,23.14-19,39.4l-9.45,19q-3.9,7.85-9.35,18.35-9.36,18.15-18.6,34.95-9.11,16.55-18.25,32.05l-8.9,14.9q-6.1,9.75-8.8,14l-8.65,13.1q-3.4,5.1-8.4,12.1-3.86,5.44-8.2,11.1-3.66,4.8-7.9,10-3.11,3.8-7.6,8.9-3.51,3.9-7.25,7.75-3,3-6.75,6.55l-8.35,7.5-.2.15-6.9,7.25,0,.1-1.45,1.75c-.87,1-1.35,1.63-1.45,1.8l-2.75,3.6-.3.3v0l-1.2,1.75a.53.53,0,0,0,.15.85l.2.1,2,.3.15,0h2.2a7.75,7.75,0,0,0,.95,0h1.1l.25,0,.9,0a14.32,14.32,0,0,0,2.55-.4l2.15-.45.35-.1h.1l.1,0,.2,0,7.15-2.9.2-.1.2-.15.45-.2,3.4-2.1,8.7-7.2q3.45-3.06,7.35-7.15,2.89-2.91,7.75-8.3,4.29-4.9,8-9.4,3.95-4.71,8.25-10.45,5.25-6.9,8.5-11.5,4.1-5.76,8.65-12.5,4.2-6.26,8.8-13.4l8.9-14.3q3.9-6.4,9.05-15.15,8.7-14.85,18.35-32.55l18.6-35.35q6.24-12.26,9.35-18.6,3.9-7.75,9.4-19.15,9.69-20,18.8-39.75,5.1-10.9,9.4-20.5l9.4-20.85,55.6-129.8q4.8-10.86,9.75-21.6l10.1-21.4q6.9-14.1,10.45-21.1,5.94-11.65,10.8-20.75,6.09-11.4,11.15-20.35,5.45-9.75,11.5-19.9,12.45-20.81,24-38,7.35-10.91,12.55-18.05,6.45-9.06,12.85-17.3l19-23.4,11-12.4,24.2-24.35q2.3-2.2,7-6.4,3.95-3.51,7-6l14.1-11.3q7.5-5.66,14.05-10.1,7.74-5.21,13.95-8.9,6.8-4,13.7-7.7l13.35-6.55Z" fill="#31a9df"/><path d="M1738.32,1582.38l119.85-232.5q90.91-176.42,207.25-190.15-171.21-64.82-314.75-9.25t-246.4,264.6q-102.81,209-170.15,506.7Q1473.5,2029.74,1738.32,1582.38Z" fill="url(#aa96f8c2-019d-4566-95fd-d1581deb8cc4)"/><path d="M2008.44,1141.28c-3.8,19-19.39,38.27-46.26,53.79-57,32.93-143.29,36.5-192.68,8-21.64-12.49-32.61-29.08-33.3-46.53q7.18-3.24,14.47-6Q1870,1104.28,2008.44,1141.28Z" fill="url(#b6332ee1-ab0c-430f-ba99-bf23233e305b)"/></g><g id="e5201c4f-e677-4c2a-af0e-2c4b1926d6bc" data-name="Plant Left"><g id="e456f22e-82c7-4000-acf3-ed1f194a6c39" data-name="plant left 0 Layer0 1 FILL"><path d="M676.24,967.05q-57.4,112.28-49.59,236.65,115.83-28.37,155.06-149.8T777,881.2Q733.7,854.76,676.24,967.05Z" fill="#20bcec"/></g><path d="M742.65,940.89c-4.58,6-8.92,12.26-13.15,18.54s-8.34,12.67-12.33,19.12q-12,19.34-22.65,39.44a674.71,674.71,0,0,0-37.18,82.86A571.92,571.92,0,0,0,632.68,1188a467.54,467.54,0,0,0-8.86,89.88,407.53,407.53,0,0,0,2.64,45l.66,5.59.33,2.8.43,2.79,1.73,11.13,2.12,11c.18.92.34,1.85.54,2.76l.63,2.75,1.27,5.48,1.27,5.48,1.47,5.43,1.47,5.43.73,2.71L640,1389l3.36,10.73,3.75,10.6c1.19,3.55,2.65,7,4,10.49s2.72,7,4.32,10.37l4.59,10.26,5,10.07c.85,1.66,1.63,3.37,2.54,5l2.69,4.92,2.7,4.93c.9,1.64,1.78,3.3,2.77,4.89l5.78,9.63,1.45,2.4,1.54,2.35,3.08,4.7c4,6.33,8.46,12.36,12.79,18.47,1.06,1.54,2.22,3,3.37,4.49l3.44,4.45,3.43,4.44c.58.74,1.14,1.49,1.73,2.21l1.8,2.16A528,528,0,0,0,777,1590.8l-9.28,10.57a541.17,541.17,0,0,1-63.28-67l-1.81-2.25c-.59-.76-1.16-1.54-1.74-2.31l-3.44-4.63-3.45-4.62c-1.15-1.55-2.32-3.08-3.38-4.68-4.34-6.36-8.81-12.63-12.81-19.22l-3.07-4.88-1.54-2.44-1.45-2.5-5.76-10c-1-1.65-1.87-3.36-2.76-5.07l-2.68-5.11-2.68-5.12c-.9-1.7-1.67-3.46-2.51-5.19a385.15,385.15,0,0,1-30.08-87l-1.2-5.64-.59-2.82c-.19-.94-.34-1.89-.51-2.83l-2-11.36-1.57-11.41-.38-2.85-.29-2.86-.58-5.73a422.1,422.1,0,0,1-1.87-45.94,475.36,475.36,0,0,1,10.62-91,578,578,0,0,1,26.45-87.52,678.21,678.21,0,0,1,38.86-82.61q11.09-20,23.42-39.15,6.18-9.58,12.71-19c4.36-6.22,8.81-12.38,13.53-18.36Z" fill="#31a9df"/><g id="ad44f8e3-6cb7-4b34-b120-313fd4e4589f" data-name="plant left 0 Layer0 0 FILL"><path d="M411.5,839.71q29.83-227.88-52.93-244.28C283.44,604,218.74,713.57,199.34,849.49c-11.62,137.14-9.82,265.72,99.89,440.48C303.33,1147.21,391.62,991.64,411.5,839.71Z" fill="#52d6ff"/></g><path d="M318.72,714.84a4.67,4.67,0,0,0-1.9,1.51,17.63,17.63,0,0,0-1.42,2,47.19,47.19,0,0,0-2.34,4.31c-1.43,3-2.67,6-3.85,9-2.34,6.12-4.38,12.35-6.29,18.61-3.8,12.54-7.05,25.24-10,38-5.84,25.54-10.43,51.36-14.1,77.29a1127.09,1127.09,0,0,0-11,156.57,1031.59,1031.59,0,0,0,11.57,156.3,854.3,854.3,0,0,0,37.27,151.84,709.24,709.24,0,0,0,66.74,140.82,643.11,643.11,0,0,0,97.15,121.25,671.14,671.14,0,0,0,123,94.64c44.41,26.78,91.69,48.69,140.46,66.37l-6.63,17.87c-49.53-18.81-97.53-41.93-142.54-70a686.09,686.09,0,0,1-124.35-98.71,655.86,655.86,0,0,1-97.26-125.19,719.59,719.59,0,0,1-65.59-143.95,862,862,0,0,1-35.32-153.88,1038.24,1038.24,0,0,1-9.27-157.36,1133.25,1133.25,0,0,1,13.37-156.89c4.08-25.93,9.06-51.73,15.31-77.22,3.13-12.74,6.57-25.41,10.57-37.91,2-6.24,4.15-12.45,6.58-18.54,1.23-3,2.52-6.06,4-9a46.28,46.28,0,0,1,2.42-4.29,17.64,17.64,0,0,1,1.45-2A4.69,4.69,0,0,1,318.72,714.84Z" fill="#31a9df"/><g id="b32b40a4-0797-40c1-b3a3-98ba78d036f5" data-name="plant left 0 Layer0 4 FILL"><path d="M459.48,1281.21q-70.17,96.39,126.8,276,121.41,110.6,246.77,137.21-45.54-188.46-174.47-349T459.48,1281.21Z" fill="#20bcec"/></g><g id="b26ea012-6d1b-4356-b8c9-3568a1ffd9fe" data-name="plant left 0 Layer0 5 FILL"><path d="M562.19,1624q-147.5-43.42-135,23.75T597.5,1768q158,53,202.58,12Q709.75,1667.5,562.19,1624Z" fill="#52d6ff"/></g><g id="a7a25fbc-002a-45c5-8f97-c49f671b8e5b" data-name="plant left 0 Layer0 6 FILL"><path d="M819.21,1957.26q64.68-18.1,115.73-14.32-63.78-79.82-150.78-98.56-83.68-18-183.2,20.4-124.43,47.91-183.19,140-86.32,135.28,74.77,97.86Q611.1,2075,682.8,2025.16T819.21,1957.26Z" fill="#20bcec"/></g><g id="b8300f3a-c48c-432b-b7a9-538f5f2ebe9b" data-name="plant left 0 Layer0 7 FILL"><path d="M774.14,1895q-10.36.87-21.64,2.5a390.35,390.35,0,0,0-43.36,9.21l-31.75,9.92q-3.93,1.37-10.26,3.77l-20.08,8q-8.91,3.75-19.26,8.53-8.6,4-18.34,8.88l-17.23,9q-15.16,8.1-31,17.59l-22.66,14-32.06,21.51c-1.25.87-2,1.43-2.36,1.68l-4.34,3,0,.06.11.14,21.66-13.12q2.28-1.37,4.8-2.82l5.19-3a30.47,30.47,0,0,1,2.77-1.6l15.19-8.66q8.26-4.6,13.85-7.57,14.6-7.92,31.5-16.22l17.42-8.28q8.07-3.64,18.48-8.13,8.56-3.63,19.25-7.83l40.59-14q5.61-1.66,10.45-3l21.09-5.23q6.09-1.34,10.65-2.19l10.61-1.89q7-1.1,10.58-1.54c3.12-.44,6.63-.85,10.55-1.23l31-1.52a271.26,271.26,0,0,1,38.67,2.82l9,1.5.5.13.3,0,.26.09,7.55,1.53q3.75.84,8.32,2l7.89,2.22c2,.59,4.55,1.38,7.54,2.39l7.1,2.56q6.64,2.49,12.86,5.25l11.06,5.24c2.4,1.24,4,2.08,4.85,2.54l8.73,4.82,15.82,9.94,4.27-6-12.63-9.22q-3.23-2.22-7.27-4.8L906.23,1920l-19.89-9.21q-7.68-3.13-15.18-5.52l-15.82-4.48-.3,0-.26-.08-.56-.12q-9-2.16-18.42-3.59a251.12,251.12,0,0,0-40.33-2.92q-5.25.09-10.6.28Z" fill="#31a9df"/></g><g id="a7949b98-2d7c-4a2f-baa5-0834c62549e1" data-name="plant left 0 Layer0 8 FILL"><path d="M577.16,1681h.1l40.52,15.44,43.7,17.81q5.43,2.29,16.88,7.28,18.12,7.95,36,16.43,9.89,4.71,18.79,9.18l19.07,9.81q10.53,5.57,19.1,10.36l18.93,10.92q19.43,11.49,36.71,23.45,17.85,12.24,33.64,25.18a376.82,376.82,0,0,1,29,26.19,295.89,295.89,0,0,1,23.12,26l9.1,12.42,16-.89q-2.22-3.3-4.89-7l-10.62-13.63L905,1851q-3.71-3.7-6.83-6.64a387.73,387.73,0,0,0-30.69-26.14q-15.84-12.2-35.07-24.65-18.42-11.85-37.9-22.59L775,1760.5q-10.72-5.57-19.58-9.88l-19.49-9.24q-8-3.75-19.15-8.6l-18.72-8q-6.26-2.65-18-7.37l-25.33-9.81-36.23-13.07q-11.89-4.14-22-7.44l-19.22-6.2-.11,0Z" fill="#31a9df"/></g><g id="a82d7253-b696-42e4-8fdf-72bf1a987507" data-name="plant left 0 Layer0 9 FILL"><path d="M572.42,1373.71l.05.1,54.8,60,65.89,77.53,42.75,54.82q7.08,9.52,17.05,23.14L797.91,1655l26.16,41.91,20.41,34.88q7.62,13.59,12.41,22.4l21.73,41.56q7.93,15.69,17.34,35.59l25.1,56.2,7.94-3.19-4.79-12.3-.13-.45-.22-.44L905.44,1827q-7.11-16.23-16.73-36.28l-21.37-42.18-22.25-40.18-10.45-17.8q-4.86-8-7.28-12l-47.73-72.52-30.17-41.14-35.21-44.48-55.57-63-32.19-33.17-11.7-11.52q-12.12-11.74-22.3-21.15l-19.93-18Z" fill="#31a9df"/></g><use width="313.93" height="313.93" transform="matrix(0.57, 0.33, -0.57, 0.33, 876.78, 1858.49)" xlink:href="#b9270d99-cccd-4ccf-9d89-701b9374ee56"/><use width="313.93" height="313.93" transform="matrix(0.22, 0.13, -0.22, 0.13, 921.89, 1846.96)" xlink:href="#b9270d99-cccd-4ccf-9d89-701b9374ee56"/><path d="M427.15,1647.76q-12.45-67.17,135-23.75Q702.47,1665.36,791,1769.09l3.45,1.85q19.47,10.74,37.9,22.59,19.23,12.46,35.07,24.65a387.73,387.73,0,0,1,30.69,26.14q2.93,2.76,6.38,6.19L896,1831.37q-9.4-19.9-17.34-35.59l-21.73-41.56q-4.8-8.81-12.41-22.4l-20.41-34.88-3.33-5.33q-119-29.23-234.46-134.38-197-179.64-126.8-276,58.26-80,157,17.08-.36-10.2-.22-20.42A473.38,473.38,0,0,1,626,1191q-4.26-117.42,50.2-224Q733.71,854.76,777,881.2q44,51.33,4.71,172.7Q743.06,1173.54,630,1202.83a464.75,464.75,0,0,0-6.2,75.09q0,14.49,1.13,28.93,16.29,17,33.63,38.55,125.16,155.88,171.73,338.06c1.23,2,2.67,4.41,4.33,7.14l10.45,17.8,22.25,40.18,21.37,42.18q9.62,20.06,16.73,36.28l18.42,44.15.22.44.13.44.19.51,8.56,11q2.67,3.69,4.89,7l-16,.89-9.1-12.42a295.89,295.89,0,0,0-23.12-26,376.82,376.82,0,0,0-29-26.19q-15.79-12.94-33.64-25.18-14.16-9.8-29.74-19.27Q750.63,1819.36,597.5,1768,439.6,1715,427.15,1647.76ZM940.2,1942.1l-12.63-9.22c-.75-.52-1.56-1.07-2.39-1.62q-60.6-69.52-141-86.88-83.68-18-183.2,20.4-124.43,47.91-183.19,140-86.32,135.28,74.77,97.86Q611.1,2075,682.8,2025.16t136.41-67.9q59.67-16.69,107.74-14.76l9,5.64Z" fill="url(#abda5795-326f-4763-b9ba-48add766d221)"/></g><g id="e6f62695-b687-4355-8a85-4f4df0f300be" data-name="confetti"><use width="35.65" height="35.65" transform="translate(1692.58 549.45) rotate(-3.86)" xlink:href="#a83e104b-f488-4cf7-b062-a58fe85f94b3"/><use width="35.65" height="35.65" transform="translate(1731.04 713.76) rotate(116.81)" xlink:href="#a83e104b-f488-4cf7-b062-a58fe85f94b3"/><use width="35.65" height="35.65" transform="translate(1576.46 421.47) rotate(134.71)" xlink:href="#a83e104b-f488-4cf7-b062-a58fe85f94b3"/><use width="35.65" height="35.65" transform="translate(823.5 622.36) rotate(-75.04)" xlink:href="#a83e104b-f488-4cf7-b062-a58fe85f94b3"/><use width="35.65" height="35.65" transform="translate(547.99 527.3) rotate(-75.04)" xlink:href="#a83e104b-f488-4cf7-b062-a58fe85f94b3"/><use width="35.65" height="35.65" transform="translate(866.19 873.99) rotate(-163.19)" xlink:href="#a83e104b-f488-4cf7-b062-a58fe85f94b3"/><use width="35.65" height="35.65" transform="translate(1307.66 666.45) rotate(59.74)" xlink:href="#a83e104b-f488-4cf7-b062-a58fe85f94b3"/><use width="35.65" height="35.65" transform="translate(1643.33 866.86) rotate(-116.52)" xlink:href="#a83e104b-f488-4cf7-b062-a58fe85f94b3"/><use width="35.65" height="35.65" transform="translate(1823.98 605.17) rotate(1.02)" xlink:href="#a83e104b-f488-4cf7-b062-a58fe85f94b3"/><use width="35.65" height="35.65" transform="matrix(-0.97, 0.22, -0.22, -0.97, 1296.1, 466.89)" xlink:href="#a83e104b-f488-4cf7-b062-a58fe85f94b3"/><use width="35.65" height="35.65" transform="translate(617.27 703.85) rotate(-67.14)" xlink:href="#a83e104b-f488-4cf7-b062-a58fe85f94b3"/><use width="35.65" height="35.65" transform="translate(801.18 768.4) rotate(105.83)" xlink:href="#a83e104b-f488-4cf7-b062-a58fe85f94b3"/><use width="35.65" height="35.65" transform="translate(1250.59 525.72) rotate(61.52)" xlink:href="#a83e104b-f488-4cf7-b062-a58fe85f94b3"/><use width="35.65" height="35.65" transform="matrix(-0.62, 0.79, -0.79, -0.62, 1479.16, 833.46)" xlink:href="#a83e104b-f488-4cf7-b062-a58fe85f94b3"/><use width="35.65" height="35.65" transform="matrix(-0.62, 0.79, -0.79, -0.62, 489.33, 675.54)" xlink:href="#a83e104b-f488-4cf7-b062-a58fe85f94b3"/><use width="35.65" height="35.65" transform="translate(1035.9 694.13) rotate(-89.31)" xlink:href="#a83e104b-f488-4cf7-b062-a58fe85f94b3"/><use width="35.65" height="35.65" transform="translate(1355.13 841.17) rotate(105.6)" xlink:href="#a83e104b-f488-4cf7-b062-a58fe85f94b3"/><use width="35.65" height="35.65" transform="matrix(0.77, 0.64, -0.64, 0.77, 1676.91, 444.88)" xlink:href="#a83e104b-f488-4cf7-b062-a58fe85f94b3"/><use width="35.65" height="35.65" transform="translate(1908.86 750.66) rotate(90.83)" xlink:href="#a83e104b-f488-4cf7-b062-a58fe85f94b3"/><use width="35.65" height="35.65" transform="translate(1700.79 1060.69) rotate(-173.69)" xlink:href="#a83e104b-f488-4cf7-b062-a58fe85f94b3"/><use width="35.65" height="35.65" transform="translate(1319.25 517.31) rotate(-37.43)" xlink:href="#a83e104b-f488-4cf7-b062-a58fe85f94b3"/><use width="35.65" height="35.65" transform="translate(934.37 741.15) rotate(-118.12)" xlink:href="#a83e104b-f488-4cf7-b062-a58fe85f94b3"/><use width="35.65" height="35.65" transform="translate(1445.91 315.38) rotate(57.57)" xlink:href="#a83e104b-f488-4cf7-b062-a58fe85f94b3"/><use width="35.65" height="35.65" transform="translate(1461.06 696.41) rotate(163.21)" xlink:href="#a83e104b-f488-4cf7-b062-a58fe85f94b3"/><use width="35.65" height="35.65" transform="translate(1047.01 482.6) rotate(-60.8)" xlink:href="#a83e104b-f488-4cf7-b062-a58fe85f94b3"/><use width="35.65" height="35.65" transform="translate(1017.93 609.65) rotate(-151.49)" xlink:href="#a83e104b-f488-4cf7-b062-a58fe85f94b3"/><use width="35.65" height="35.65" transform="translate(557.25 891.68) rotate(-151.49)" xlink:href="#a83e104b-f488-4cf7-b062-a58fe85f94b3"/><use width="35.65" height="35.65" transform="translate(855.28 977.83) rotate(-172.65)" xlink:href="#a83e104b-f488-4cf7-b062-a58fe85f94b3"/><use width="35.65" height="35.65" transform="translate(1602.27 634.11) rotate(69.33)" xlink:href="#a83e104b-f488-4cf7-b062-a58fe85f94b3"/><use width="35.65" height="35.65" transform="translate(786.24 464.27) rotate(83.04)" xlink:href="#a83e104b-f488-4cf7-b062-a58fe85f94b3"/><use width="35.65" height="35.65" transform="translate(1156.3 676.55) rotate(-90.83)" xlink:href="#a83e104b-f488-4cf7-b062-a58fe85f94b3"/><use width="35.65" height="35.65" transform="matrix(0.79, -0.62, 0.62, 0.79, 914.42, 489.63)" xlink:href="#a83e104b-f488-4cf7-b062-a58fe85f94b3"/><use width="35.65" height="35.65" transform="translate(1968.92 717.48) rotate(-101.53)" xlink:href="#a83e104b-f488-4cf7-b062-a58fe85f94b3"/><use width="35.65" height="35.65" transform="translate(1836.4 430.09) rotate(89.44)" xlink:href="#a83e104b-f488-4cf7-b062-a58fe85f94b3"/><use width="35.65" height="35.65" transform="translate(1775.78 829.51) rotate(-170.77)" xlink:href="#a83e104b-f488-4cf7-b062-a58fe85f94b3"/><use width="35.65" height="35.65" transform="matrix(0.58, 0.82, -0.82, 0.58, 2040.14, 581.3)" xlink:href="#a83e104b-f488-4cf7-b062-a58fe85f94b3"/><use width="35.65" height="35.65" transform="matrix(-0.15, -0.99, 0.99, -0.15, 733.27, 1237.05)" xlink:href="#a83e104b-f488-4cf7-b062-a58fe85f94b3"/><use width="35.65" height="35.65" transform="translate(662.01 416.1) rotate(-163.23)" xlink:href="#a83e104b-f488-4cf7-b062-a58fe85f94b3"/><use width="35.65" height="35.65" transform="translate(2014.5 856.58) rotate(26.12)" xlink:href="#a83e104b-f488-4cf7-b062-a58fe85f94b3"/><use width="35.65" height="35.65" transform="matrix(0.34, -0.94, 0.94, 0.34, 1237.71, 360.66)" xlink:href="#a83e104b-f488-4cf7-b062-a58fe85f94b3"/><use width="35.65" height="35.65" transform="translate(1195.87 426.6) rotate(-173.66)" xlink:href="#a83e104b-f488-4cf7-b062-a58fe85f94b3"/><use width="35.65" height="35.65" transform="matrix(-0.53, 0.85, -0.85, -0.53, 1519.63, 528.4)" xlink:href="#a83e104b-f488-4cf7-b062-a58fe85f94b3"/><use width="35.65" height="35.65" transform="matrix(-0.53, 0.85, -0.85, -0.53, 486, 962.99)" xlink:href="#a83e104b-f488-4cf7-b062-a58fe85f94b3"/><use width="35.65" height="35.65" transform="translate(985.24 325.12) rotate(-65.88)" xlink:href="#a83e104b-f488-4cf7-b062-a58fe85f94b3"/><use width="7" height="7" transform="translate(1781.04 537.6)" xlink:href="#f83a8a06-28e8-4a9b-98bf-0f3652425680"/><use width="7" height="7" transform="translate(1389.97 579.75)" xlink:href="#f83a8a06-28e8-4a9b-98bf-0f3652425680"/><use width="7" height="7" transform="translate(1355.46 782.78)" xlink:href="#f83a8a06-28e8-4a9b-98bf-0f3652425680"/><use width="7" height="7" transform="translate(778.79 664.53)" xlink:href="#f83a8a06-28e8-4a9b-98bf-0f3652425680"/><use width="7" height="7" transform="translate(540.35 726.91)" xlink:href="#f83a8a06-28e8-4a9b-98bf-0f3652425680"/><use width="7" height="7" transform="translate(1433.41 419.37)" xlink:href="#f83a8a06-28e8-4a9b-98bf-0f3652425680"/><use width="7" height="7" transform="translate(994.79 811.62)" xlink:href="#f83a8a06-28e8-4a9b-98bf-0f3652425680"/><use width="7" height="7" transform="translate(829.55 1102.91)" xlink:href="#f83a8a06-28e8-4a9b-98bf-0f3652425680"/><use width="7" height="7" transform="translate(1574.01 1165)" xlink:href="#f83a8a06-28e8-4a9b-98bf-0f3652425680"/><use width="7" height="7" transform="translate(546.59 1029.96)" xlink:href="#f83a8a06-28e8-4a9b-98bf-0f3652425680"/><use width="7" height="7" transform="translate(441.05 797.37)" xlink:href="#f83a8a06-28e8-4a9b-98bf-0f3652425680"/><use width="7" height="7" transform="translate(940.46 384.92)" xlink:href="#f83a8a06-28e8-4a9b-98bf-0f3652425680"/><use width="7" height="7" transform="translate(456.19 514.48)" xlink:href="#f83a8a06-28e8-4a9b-98bf-0f3652425680"/><use width="7" height="7" transform="translate(1650.89 925.74)" xlink:href="#f83a8a06-28e8-4a9b-98bf-0f3652425680"/><use width="7" height="7" transform="translate(2112.69 818.07)" xlink:href="#f83a8a06-28e8-4a9b-98bf-0f3652425680"/></g><g id="f41ac240-9fc5-4a53-ae48-3797c9e7d23e" data-name="Dog"><path d="M1949.8,1113.25a21.36,21.36,0,0,1-8.2,2.89l6.15,19.17q27.66-22.33,21.13-36.91-1.45-3.27-7.09,4.68Q1958,1108.51,1949.8,1113.25Z" fill="#cbe9f6"/><path d="M1951.67,1112.09l-4.1,20.5v2.72q24.06-19.29,22.46-32.81a45.34,45.34,0,0,1-14.88,21.4,52.38,52.38,0,0,0,0-14Z" fill="#006" fill-opacity="0.2"/><path d="M1942.43,912.67q3.75-23.4-14.7-12.1a172.33,172.33,0,0,0-30,23,247.41,247.41,0,0,0-25.45-5.55q-10.05-15.79-31.2-28.1-12.85-7.45-12.9,5.3a155.27,155.27,0,0,0,3.35,29.25q-2.91,4.95-2.55,12.7,1,25.85-3.5,34.05a32.34,32.34,0,0,0-4.25,17.55q.24,9.19,15.35,28.05-11.07-5.45-18-19a268.76,268.76,0,0,1-14.55-34.7q1-17.89-5.75-18.55-6.36-.6-10,2.55-4.71,4-3.8,17.05.79,11.06,6,32,10.07,31.39,25.3,42.3,6.63,4.73,12,8.5-.35,1-.75,2.1-8,22.29-3.85,42.45a62.1,62.1,0,0,0-25.15,17.3q-11,12.19-18,7.75t-13.4-3.85q-6.4.56-6.8,10t8.3,16.1q15.95,13.25,38.55,8.3,25.89-5.51,50.6-13.1a119.53,119.53,0,0,0,45.25,10q19,20.74,38.55,27.55,7.59,2.75,17.35-1,11.14-4.24,15.05-10.2t1-10.5q-2.81-4.2-9.35-4.55c-1.94-.23-4.8.25-8.6,1.45a45.37,45.37,0,0,0-7.45-14.35,409.14,409.14,0,0,0,7.8-69.2q2.19,3.93,4,7.45,5.55,10.8,12.65,27.6a8.24,8.24,0,0,0,6,2.8q3.45.15,7.9-5t-.9-29.3q-5.31-24-13.7-36.45a92.67,92.67,0,0,0-19.6-21.3q-.7-4.24-1.5-8.25-1.86-9.49-4.3-17.85-5.61-19.5-14.2-32.7A233.62,233.62,0,0,0,1942.43,912.67Z" fill="#cbe9f6"/><path d="M1942.43,912.67q3.75-23.4-14.7-12.1a172.33,172.33,0,0,0-30,23,247.41,247.41,0,0,0-25.45-5.55q-10.05-15.79-31.2-28.1-12.85-7.45-12.9,5.3a155.27,155.27,0,0,0,3.35,29.25q-2.91,4.95-2.55,12.7,1,25.85-3.5,34.05a32.34,32.34,0,0,0-4.25,17.55q.24,9.19,15.35,28.05-11.07-5.45-18-19a268.76,268.76,0,0,1-14.55-34.7q1-17.89-5.75-18.55-6.36-.6-10,2.55-4.71,4-3.8,17.05.79,11.06,6,32,10.07,31.39,25.3,42.3,6.63,4.73,12,8.5-.35,1-.75,2.1-8,22.29-3.85,42.45a62.1,62.1,0,0,0-25.15,17.3q-11,12.19-18,7.75t-13.4-3.85q-6.4.56-6.8,10t8.3,16.1q15.95,13.25,38.55,8.3,25.89-5.51,50.6-13.1a119.53,119.53,0,0,0,45.25,10q19,20.74,38.55,27.55,7.59,2.75,17.35-1,11.14-4.24,15.05-10.2t1-10.5q-2.81-4.2-9.35-4.55c-1.94-.23-4.8.25-8.6,1.45a45.37,45.37,0,0,0-7.45-14.35,409.14,409.14,0,0,0,7.8-69.2q2.19,3.93,4,7.45,5.55,10.8,12.65,27.6a8.24,8.24,0,0,0,6,2.8q3.45.15,7.9-5t-.9-29.3q-5.31-24-13.7-36.45a92.67,92.67,0,0,0-19.6-21.3q-.7-4.24-1.5-8.25-1.86-9.49-4.3-17.85-5.61-19.5-14.2-32.7A233.62,233.62,0,0,0,1942.43,912.67Z" fill="url(#aff68ecb-57e4-42ce-8404-1e1857a25ab9)"/><path d="M1835.68,1015.67q0,6.63,7.75,13.25,62,25,109.65-21-3.36-16.65-2.75-18.3Q1903.16,1044.81,1835.68,1015.67Z" fill="#12abbb"/><path d="M1848.39,957.19a2.27,2.27,0,0,0,.66-1.65,2.27,2.27,0,0,0-2.31-2.32,2.29,2.29,0,0,0-2.32,2.32,2.27,2.27,0,0,0,2.32,2.31A2.27,2.27,0,0,0,1848.39,957.19Z" fill="#003"/><path d="M1890.49,963.39a2.27,2.27,0,0,0,.66-1.65,2.27,2.27,0,0,0-2.31-2.32,2.29,2.29,0,0,0-2.32,2.32,2.27,2.27,0,0,0,2.32,2.31A2.27,2.27,0,0,0,1890.49,963.39Z" fill="#003"/><path d="M1863.1,977.91q-15-4-18.19-1.38-2.37,4.72.8,12.66,3.35,8.43,9.85,11.59a29,29,0,0,0,16-4.64q8.39-5.11,7.22-10.69Q1878.08,981.88,1863.1,977.91Z" fill="#003"/><g opacity="0.21"><g id="a2314c97-b656-46c6-ade5-f787bf91d201" data-name="dog 0 Layer0 6 FILL"><path d="M1869.71,1062.92l9.54-12.26-9-14.09-.8.18-7.9,11.09,7.1,15.19Z" fill="#0071b0"/></g></g><g id="accdbe41-0d26-42f5-8835-3138695b7b41" data-name="dog 0 Layer0 6 FILL"><path d="M1868.69,1063l9.81-12.84-8.87-13.62-8.7,11.27Z" fill="#1da1dc"/></g><path d="M1832.68,1049.42l-5.1-2.8a14.08,14.08,0,0,1-1.4,5.1l6.5-2.3m124.1,14-3.55-9.8q-1.31,11.19,3.2,19.8l.35-10m-2.5,46.7-2,1.8-3.45,16.85-4.85-7.3q-1.8,4.7,7.55,14.8c-.49-.79-1-1.59-1.55-2.4l2-2.45a65.14,65.14,0,0,1,2.25-21.3m1.45,34.45c-3.44,1.9-5,3.63-4.85,5.2a14.91,14.91,0,0,1,5.55-3c-.2-.73-.44-1.47-.7-2.2m-115.3-20.3,9.9,8-33.15,10q-21,6.7-48-2.6,15.6,12.2,37.45,7.4,25.89-5.51,50.6-13.1a119.53,119.53,0,0,0,45.25,10q19,20.74,38.55,27.55,7.1,2.55,16-.45,4.95-2.7,12.45-6.45h0q9.49-18.26-12.7-2.4-5.7,4.1-10.3,4-22.31-5.2-37.9-19.7h-.2a50,50,0,0,0,8.1-2q-57-7.15-76-20.25" fill="#0a264b" fill-opacity="0.3"/><g opacity="0.2" style="mix-blend-mode:multiply"><path d="M1950.18,1045.12q-4.71,29.36-11.6,33.15a64.89,64.89,0,0,0,8.55-4.55q.39,24-15.5,48a17,17,0,0,0-3.6.6,19.36,19.36,0,0,1,3,1.4q10.65,6,19.8,26l3.7-8a52,52,0,0,0-5.6-9.35,409.07,409.07,0,0,0,7.8-69q0,.15-6.6-18.35m29.25,56q3.45.15,7.9-5t-.9-29.3q-5.31-24-13.7-36.45a97.89,97.89,0,0,0-6.9-9.1c1.06,3.15,2.6,7,4.6,11.55q14.94,34,9.15,57.45a42.74,42.74,0,0,0-.25,10.9h.1m-33-121.2q-5.65-13.26-11.35-26.55c-.61-1.08-1.25-2.13-1.9-3.15h0q22.65,51.71,4.1,71.8l8.3-3.95q2.65-1.8,7.1-8.35c.13-.14.31-.36.55-.65a1.3,1.3,0,0,1,.15-.2q1.8-2.29-.2.15-.7-4.24-1.5-8.25-1.86-9.49-4.3-17.85l-.55-1.85c-.1-.36-.22-.75-.35-1.15m-184.3,152.55c.21.35.43.68.65,1a23,23,0,0,0,5.25,5.4q15.95,13.25,38.55,8.3,25.89-5.51,50.6-13.1a119.53,119.53,0,0,0,45.25,10q19,20.74,38.55,27.55,7.59,2.75,17.35-1,11.14-4.24,15.05-10.2a12.66,12.66,0,0,0,.85-1.5q.62-1.56,1.2-3.15a7.42,7.42,0,0,0,.15-3,.08.08,0,0,1,0,0q-8.83-4.66-37.35,4.9l-17.2-33q-6.4,4.65-9.7,14-48.36-5.3-77-19.45l5.3,10.6-43.9,7.8q-15.4-14.8-27.7-11.3a12.37,12.37,0,0,0-6.4,5.15,10.66,10.66,0,0,0,.55,1m74.4-115.65a32.69,32.69,0,0,1-7.15-4.75q-21.32-4.91-23.4-34.15-.45-6.64-.9-11.8c-.32-3.35-.63-6.22-.95-8.6-.75-5.8-1.5-8.59-2.25-8.35q-2,.65-6.5,7a25,25,0,0,0-4.9,12.7,73.73,73.73,0,0,0,1.1,16.85,237.22,237.22,0,0,0,7.35,31.7q7.42,14.49,16.8,21.2,6.63,4.73,12,8.5-.35,1-.75,2.1c-.75,2.14-1.44,4.26-2,6.35q20.46-10.65,37-3.3,17.2,7.65,26.7,13a36.3,36.3,0,0,0,19.7,5q10.2-.4,12.1-12.85t-2-28.3q-5.16-25.5-36.25-35.2-29.13-9-60.85-3.7,1.28,9.16,15.25,26.6m-8.25-116.6,3.2,24.25q7.65-4.2,29.35-8.3l-11.45-10.35q-14.2-15.11-21.1-5.6m107.55,10.5q-11.5-5.9-31.75,15.2,12,3.8,24.1,19.25Q1940.33,914.62,1935.83,910.72Z" fill="#9aa8b1"/></g><path d="M1845.2,957a5.76,5.76,0,0,0-5,6.55,5.85,5.85,0,0,0,6.51,5q15.62-2,42.52,7.18a5.87,5.87,0,0,0,7.36-3.61,5.48,5.48,0,0,0-.31-4.41,5.56,5.56,0,0,0-3.3-3Q1862.79,954.37,1845.2,957Z" fill="#9aa8b1" fill-opacity="0.2"/><path id="a0604661-d66d-46ba-b001-46f361292314" data-name="Layer1 11 1 STROKES" d="M1780.92,941.5q-17.64,14.43-3.09,37" fill="none" stroke="#1da1dc" stroke-linecap="round" stroke-linejoin="round" stroke-opacity="0.99" stroke-width="2"/><path id="e3e029c6-c6fc-4ae7-b398-133e234f1e91" data-name="Layer1 12 1 STROKES" d="M1766,969.14q-10.29-12.33,1.73-22.79" fill="none" stroke="#1da1dc" stroke-linecap="round" stroke-linejoin="round" stroke-opacity="0.99" stroke-width="2"/><path id="ab371d86-0f88-4027-aa27-dd67fb0f25fd" data-name="Layer1 13 1 STROKES" d="M1806.75,942.67q9.16,4,5,21.38" fill="none" stroke="#1da1dc" stroke-linecap="round" stroke-linejoin="round" stroke-opacity="0.99" stroke-width="2"/><path id="a61f1efb-ccb1-4ce6-8079-482ae2606ed5" data-name="Layer1 14 1 STROKES" d="M1815.38,943.73q7.39,5.85,4.25,14.23" fill="none" stroke="#1da1dc" stroke-linecap="round" stroke-linejoin="round" stroke-opacity="0.99" stroke-width="2"/></g><g id="a05b5216-0655-4269-bb9c-fdb8936cb93c" data-name="Woman"><path d="M1310.46,1120.67q-19.29,7.71-36.35,28a1741.13,1741.13,0,0,0-106.6,141.75l-172.45-5.1v42.15q179.06,43.29,198.55,30.7,52.83-41.45,97.7-98.1Z" fill="#232484"/><path d="M1310.46,1120.67q-19.29,7.71-36.35,28a1741.13,1741.13,0,0,0-106.6,141.75l-172.45-5.1v42.15q179.06,43.29,198.55,30.7,52.83-41.45,97.7-98.1Z" fill="url(#ec5a6c51-8b46-4210-bf13-2aa9c4abab9a)"/><path d="M1310.46,1120.67q-19.29,7.71-36.35,28a1741.13,1741.13,0,0,0-106.6,141.75l-172.45-5.1v42.15q179.06,43.29,198.55,30.7,52.83-41.45,97.7-98.1Z" fill="url(#a5a6f2d1-bb68-41b1-a826-3b7a6f181500)"/><g id="e0cf0260-ae26-4998-9db0-899843cd969d" data-name="Layer2 29 FILL"><path d="M1373.29,932.47q-35.1,0-59.9,24.8t-24.8,59.9q0,35.1,24.8,59.9t59.9,24.8q35.1,0,59.9-24.8t24.8-59.9q0-35.1-24.8-59.9T1373.29,932.47Z" fill="#141226"/></g><g id="b69196ec-78d4-42e6-8531-d2424c3e2fc2" data-name="Shadow characters"><use width="313.93" height="313.93" transform="matrix(0.8, 0.46, -0.79, 0.46, 1327.05, 1920.46)" xlink:href="#b9270d99-cccd-4ccf-9d89-701b9374ee56"/><use width="313.93" height="313.93" transform="matrix(0.92, 0.53, -0.92, 0.53, 1017.5, 1864.41)" xlink:href="#b9270d99-cccd-4ccf-9d89-701b9374ee56"/></g><path d="M1316.26,1013.79q-5.15,5.79-4.75,15.25v18.7q-3.69,22.54.45,33.15,3.66,5.64,19.65,11.3-9,39.45-13.45,90.3l62.75-14.1-11.7-86.7q14.55-33,6.35-58.85Q1341.17,989.63,1316.26,1013.79Z" fill="#957c67"/><path d="M1316.26,1013.79q-5.15,5.79-4.75,15.25v18.7q-3.69,22.54.45,33.15,3.66,5.64,19.65,11.3-9,39.45-13.45,90.3l62.75-14.1-11.7-86.7q14.55-33,6.35-58.85Q1341.17,989.63,1316.26,1013.79Z" fill="url(#f2062320-947c-4deb-b5e0-b0d5f79b65eb)"/><g id="e94e1419-9296-470c-a16d-656b692579a0" data-name="Layer2 6 MEMBER 2 MEMBER 0 FILL"><path d="M1303.09,2065.52q5.19-5,12.34-23.48,2.14,26.05,3.42,13.06l4-39.8q-9.63,12.78-27.78,29-17.6,15.8-20.93,2.87a429.56,429.56,0,0,1-20.3,38q-1.83,3.25,5,2.71Q1285.84,2079.74,1303.09,2065.52Z" fill="#e4e1fa"/><path d="M1324.58,1919.15,1293,1936.9q11.73,44.89-18.86,110.32,3.33,12.91,20.93-2.87,18.15-16.27,27.78-29Z" fill="#957c67" fill-opacity="0.94"/></g><g id="bb05cd33-12ae-4011-b987-90d18fbc4258" data-name="Layer2 6 MEMBER 2 MEMBER 1 FILL"><path d="M1280.33,1961.89q.84,6.63,1.67,13.22,62.8,18.11,88.9-27.7,0-4.52-.08-9Q1326.93,1980.47,1280.33,1961.89Z" fill="#e4e1fa"/><path d="M1383.56,1559.8q-32.05-161.05-139.84-56.19,11.83,254.72,36.61,458.28,46.59,18.58,90.49-23.47Q1369.85,1715.52,1383.56,1559.8Z" fill="#232484"/></g><g id="f8396a9c-4dfd-4bed-8e4b-0dfd7a88f9be" data-name="Layer2 6 MEMBER 2 MEMBER 2 FILL"><path d="M1383.56,1559.8q-12.3-61.82-33.19-76.17-26.11,14.32-77.28,30.32-12.72,252.73,22,465.38,24.63-1.55,33.11-.24,27.57-5.05,42.74-31.68Q1369.57,1718.66,1383.56,1559.8Z" fill-opacity="0.34" fill="url(#a4231af4-7230-4700-99c2-7fe90adb1c3e)"/></g><g id="aeb6014e-a395-478f-a011-bbce3ff8d594" data-name="Layer2 6 MEMBER 3 MEMBER 0 FILL"><path d="M1354.44,2082.17q5.19-5,12.34-23.48,2.15,26.05,3.42,13.06l4-39.8q-9.63,12.78-27.78,29-17.6,15.8-20.93,2.87a429.56,429.56,0,0,1-20.3,38q-1.83,3.26,5,2.71Q1337.19,2096.39,1354.44,2082.17Z" fill="#e4e1fa"/><path d="M1375.93,1935.8l-31.6,17.75q11.73,44.9-18.86,110.32,3.33,12.91,20.93-2.87,18.15-16.27,27.78-29Z" fill="#957c67" fill-opacity="0.94"/></g><g id="ae2dd0d6-4e68-474c-a73e-d389e42121b9" data-name="Layer2 6 MEMBER 3 MEMBER 1 FILL"><path d="M1331.68,1978.54q.84,6.63,1.67,13.22,62.81,18.1,88.9-27.7,0-4.51-.08-9Q1378.28,1997.11,1331.68,1978.54Z" fill="#e4e1fa"/><path d="M1434.91,1576.45q-32.06-161.06-122.41,0a2696.66,2696.66,0,0,0,19.18,402.09q46.59,18.59,90.49-23.47Q1421.2,1732.17,1434.91,1576.45Z" fill="#232484"/></g><g id="aa18011f-e938-4555-b6aa-efeb37c13724" data-name="Layer2 6 MEMBER 3 MEMBER 2 FILL"><path d="M1434.91,1576.45q-12.3-61.82-33.19-76.17-26.12,14.33-60.81,76.17-5.73,204.94,20.85,415.31a142.9,142.9,0,0,0,17.75,4q27.57-5.06,42.74-31.68Q1420.92,1735.31,1434.91,1576.45Z" fill-opacity="0.34" fill="url(#fc0043b4-85ad-419b-8a6f-cac29dbc5b30)"/></g><path id="f5c1f165-3b74-4afd-9ebc-41bc5fabde26" data-name="Layer2 6 MEMBER 3 MEMBER 3 1 STROKES" d="M1384.34,1630.73q3,19.86,17.74,39.72" fill="none" stroke="#010d1a" stroke-linecap="round" stroke-linejoin="round" stroke-width="2"/><g id="b5883864-3792-4216-8985-e5bb182aabb7" data-name="Layer2 6 MEMBER 4 FILL"><path d="M1415.12,1603.72l13.85,45.92,8.51-121.46-189.59-23.64q2.55,37.62,2.31,99,55.79,50.79,134.83,38.28Q1414,1630.59,1415.12,1603.72Z" fill-opacity="0.23" fill="url(#a7f1c21c-ebc6-4402-86a8-8e6a00ed8295)"/></g><g id="e6604df2-ff5d-4af0-b7d4-c9d101f38149" data-name="Layer2 6 MEMBER 5 FILL"><path d="M1410.26,1529.46a6.68,6.68,0,0,0-1.91-.24,6.08,6.08,0,0,0-4.06,1.35l-.31.24q-.86,2.34-1.84,4.69c-.61,1.6-1.28,3.2-2,4.78q-5.49,13.11-13.38,27.86-6.6,12.36-11.78,21-27.69-1.65-70.91-15.28-36.36-11.46-76.57-34.31l-.72,5.42q-5,16.88,79.67,45.68,31.11,10.62,58.74,13.53,8.65.94,17,1.12,4.53-7.89,8.67-15.92,5.15-9.72,9.71-19.66,4.4-10.61,7.17-17.27,3.15,4.9,7,10.66a188.41,188.41,0,0,1,13,22.77q.63,1.15,1.2,2.31c1.55,3.28,3.07,6.65,4.53,10.1a128.77,128.77,0,0,0,12.58-4.69q2.31-.94,4.54-2c0-1.48,0-3,.08-4.46.05-3.51.07-7,.08-10.51q-5,2.61-10.35,4.78-7.9-15.78-20.22-36.06Q1414.58,1536.19,1410.26,1529.46Z" fill="#e4e1fa"/><path d="M1331,1122.74q.08-3.43-1.27-4.78c-.53-.48-1-1-1.44-1.43-1-.59-1.21-2.24-.63-4.94a5.12,5.12,0,0,0-4,.64c-.88.68-1.65,2.16-2.31,4.46v.08a5.77,5.77,0,0,0,2.78,4c1.91,1.28,2.91,3.69,3,7.24v.08c-.11,2.29-.13,4.52-.08,6.68a41.37,41.37,0,0,1-.4,7.41c-.31,2.7.65,4.19,2.87,4.45q.11-6.75.55-13c.53-5.73.83-9.37.88-10.9m33.35-1.75a30.17,30.17,0,0,0,10.5-7.09c-.2-2-.42-3.8-.63-5.49a147.23,147.23,0,0,1-14.89,6.53,81.37,81.37,0,0,1-10.74,3.34,36.11,36.11,0,0,0-6.13,3.42,19.24,19.24,0,0,0-7.56,10.27l-5.41,18.46c0-.49,0-1,0-1.51-.49,1.24-1.71,2.19-3.66,2.87q-6.61,2.46-9.16,5.33-3.5,4-6.37,15.12a163.18,163.18,0,0,1-10.18,28.58,17.82,17.82,0,0,0,2.15,2.23,2,2,0,0,0,1.27.31q2.23,0,6.61-15.2,5.16-17.75,5.65-18.7c1.11-2.66,1.91-4.46,2.38-5.42a13.17,13.17,0,0,1,4.38-4.37,25.12,25.12,0,0,1,6.13-2.23q4.07-1,5.17-3a39.35,39.35,0,0,0,4.3-12.17q1.51-7.17,2.39-8.6a26.11,26.11,0,0,1,2.63-3q1.74-1.71,7.24-4.06T1364.34,1121Z" fill="#e4e1fa"/><path d="M1374.84,1113.9a30.17,30.17,0,0,1-10.5,7.09q-8.35,3.36-13.93,5.65t-7.24,4.06a26.11,26.11,0,0,0-2.63,3q-.87,1.42-2.39,8.6a39.35,39.35,0,0,1-4.3,12.17q-1.11,1.92-5.17,3a25.12,25.12,0,0,0-6.13,2.23,13.17,13.17,0,0,0-4.38,4.37c-.47,1-1.27,2.76-2.38,5.42q-.48.94-5.65,18.7-4.38,15.21-6.61,15.2a2,2,0,0,1-1.27-.31,17.82,17.82,0,0,1-2.15-2.23,163.18,163.18,0,0,0,10.18-28.58q2.87-11.15,6.37-15.12,2.55-2.86,9.16-5.33c2-.68,3.17-1.63,3.66-2.87,0-.76.06-1.53.08-2.31-2.22-.26-3.18-1.75-2.87-4.45a41.37,41.37,0,0,0,.4-7.41c0-2.16,0-4.39.08-6.68V1128c-.12-3.55-1.12-6-3-7.24a5.77,5.77,0,0,1-2.78-4q-19.3.4-48.08,56.35t-33,76.09q-.12,33.55,14.33,80.07l-27.06,210.28q40.21,22.85,76.57,34.31,43.22,13.62,70.91,15.28,5.19-8.64,11.78-21,7.9-14.76,13.38-27.86c.7-1.58,1.37-3.18,2-4.78s1.27-3.13,1.84-4.69l.31-.24a6.08,6.08,0,0,1,4.06-1.35,6.68,6.68,0,0,1,1.91.24q4.32,6.72,9.87,15.91,12.31,20.28,20.22,36.06,5.34-2.17,10.35-4.78,0-59.73-9.55-109.52a389.46,389.46,0,0,0-17.28-62.64L1398,1338.83q32.91-67.74,49.18-121.86c3.86-16,2.38-65.76-9.71-75.21-17.55-13.6-68.53-16.72-61.36-16.72-.49-4.93.63,5.84,0,0Q1375.43,1118.89,1374.84,1113.9Z" fill="#232484"/></g><g id="f28d4dc7-d18c-49b7-90d7-a7c2a01f9b77" data-name="Layer2 6 MEMBER 7 FILL"><path d="M1328.84,1172.4a2.14,2.14,0,0,0-.64-1.59A2.25,2.25,0,0,0,1325,1174a2.23,2.23,0,0,0,3.82-1.59Z" fill="#001a3f" fill-opacity="0.31"/></g><g id="ad699ea1-a294-4545-8976-54ed0f308e91" data-name="Layer2 6 MEMBER 8 FILL"><path d="M1322.34,1186.5a2.14,2.14,0,0,0-.64-1.59,2.25,2.25,0,0,0-3.18,3.18,2.23,2.23,0,0,0,3.82-1.59Z" fill="#001a3f" fill-opacity="0.31"/></g><g id="e96e5f0d-429b-43d8-a280-a101f79d9680" data-name="Layer2 6 MEMBER 9 FILL"><path d="M1322.23,1088.35a93.2,93.2,0,0,0,9.4,3.82c-.26,1.13-.53,2.24-.8,3.35q15.08-5.52,23.4-12Q1335.75,1091.32,1322.23,1088.35Z" fill="#7b6152" fill-opacity="0.96"/></g><g id="ef5d2db0-0089-48fd-bb9a-34c420fd624d" data-name="Layer2 6 MEMBER 10 FILL"><path d="M1321.36,1116.69l-5.18,13.37q.94,10,2.31,11.7h.56Z" fill="#001a3f" fill-opacity="0.31"/></g><g id="a0e9686c-0853-41e9-b4b4-5fbe4f3a3e69" data-name="Layer2 6 MEMBER 11 FILL"><path d="M1313.32,1157.28a132.83,132.83,0,0,0-10.43,37.17,165.23,165.23,0,0,0,7.4-22.21q2.87-11.15,6.37-15.12,2.55-2.86,9.16-5.33c2-.68,3.17-1.63,3.66-2.87,0,.52,0,1,0,1.51l1.43-4.93Q1316.66,1148.43,1313.32,1157.28Z" fill="#001a3f" fill-opacity="0.31"/></g><g id="b0e57db4-791f-40cb-94e9-41a19203774e" data-name="Layer2 6 MEMBER 12 FILL"><path d="M1365.69,1146.93q-7.34,0-13.29,7a51.26,51.26,0,0,0-8.68,14.56Z" fill="#001a3f" fill-opacity="0.31"/></g><g id="bc7f147f-486b-4a63-8cd2-ccb09df56913" data-name="Layer2 31 FILL"><path d="M1317,989.51q-3.56,6.47,4.4,14.8,11.46,10.28,19.55,18a160.27,160.27,0,0,1,20.5,23.35l14.5-15.95q7.17,10.65-8.75,20.85-7.61,4.79,3.35,18.1,11.46,13.88,17.1,7,16.64-20,29.1-33t6-27.8q-6.45-14.91-13.85-29.2t-34.95-20.5q-27.45-6.25-40.4,5.8T1317,989.51Z" fill="#141226"/></g><g id="b1ad6f0c-7d92-4e5b-82ea-f64aadbd6541" data-name="Layer2 32 FILL"><path d="M1361.4,1045.61c-1.31-8.65-5.32-17.12-13.35-25.9s-15.2-13.77-21.55-15q-16.71,2.25-14.85,20.1C1312,1013.46,1328.17,1020.21,1361.4,1045.61Z" fill="#e4e1fa"/></g><g id="a1979f16-f6eb-4547-964b-ef4b24877f51" data-name="hand-woman-b"><path d="M1518.81,768.75c.84-.68,1.88-.61,3.12.19a8.58,8.58,0,0,1,2.94,3.86q1.17,2.67,5.53,12.82a179.9,179.9,0,0,1-2-28.15c.08-3.57.73-5.83,1.95-6.8a8.4,8.4,0,0,1,6.39-1.3q8.64,1.56,16.06,9.15,9.24,21.84,9.38,54.23-5.1,28.18-28.68,20-11.27-6.19-9.62-10-3.33-17.32-6-40.5a64.14,64.14,0,0,1-.59-9.57C1517.49,770.78,1518,769.46,1518.81,768.75Z" fill="#957c67"/><path id="e85e1bad-41d5-4d2f-a4ba-e776500bb0d8" data-name="hand 0 Layer0 1 1 STROKES" d="M1531.33,791.31q3.92,9,4.84,13.76.46,2.53.75,5.68M1535.34,749q.59,19.75,1.06,27.86c.17,3,.2,6.08.1,9.32m11.35-30.89q.84,17.29,1.41,29.66m-7.16-34.28q-.15,24.38,1.25,35.56" fill="none" stroke="#7b6152" stroke-linecap="round" stroke-linejoin="round" stroke-opacity="0.99" stroke-width="1"/><path d="M1563.08,812.33q-18.66,8.74-40.71,5.78-14.32,130.26-12.62,197.45l-89.08,120.66-31.41,19.23,18.08,146.34a1135.81,1135.81,0,0,0,74.83-105.38q64.29-101.72,82.47-157.84Q1580.27,927,1563.08,812.33Z" fill="#232484"/></g><path d="M1564.64,1038.57q-18.18,56.13-82.47,157.84-27.81,44.08-57.47,83.14-7.07,17.19-15.42,35.42c-23.76-19.53-10.8-84.93-10.8-84.93s20.32-36.66,28.86-45.77C1463.88,1145.3,1564.64,1038.57,1564.64,1038.57Z" fill="url(#bdd99cce-5029-4819-b500-3ef3ab14293b)"/><use width="87.29" height="71.34" transform="matrix(0.94, 0.33, -0.33, 0.94, 1504.91, 728.99)" xlink:href="#a59f0e60-da0b-41c9-9a7e-b96ccff544e4"/></g><g id="bfaf0f6a-0d7b-4356-a575-1f7fe282a5fe" data-name="Man"><g id="a5386e37-8b3f-4055-aa71-7245c7a6f073" data-name="Layer2 0 MEMBER 0 FILL"><path d="M1083.91,1223.87q-3.59-.37-7.87,18.94.76,5.7,8.72,14.26.3,2.78,32.14-4.26-12.48.29-.22-8.72l18.3.64-11.49-16.18Z" fill="#f66"/></g><g id="bb272e02-e017-4dc9-b854-386fcc43ea5f" data-name="hand 0 Layer0 0 FILL"><path d="M1115.16,790.65c.55-1.45,1.28-1.5,2.92-1.22s2.26.45,4.47,2.28,7.43,6.36,10.13,8.59a206.15,206.15,0,0,1-13.7-23.62c-1.56-3.28-2.07-5.1-1.29-7,1.18-2.87,2.72-3.41,5.17-4.16,6.17-1.89,12.17-.78,18.29.94,13.66,12.74,23.25,27.46,31.82,43.95,3.68,18.06,1.43,25.59-17.35,29.78-3.61-.17-11.53.35-12.82-4.29-7.88-10.29-15.8-22.24-22.58-32.78a56.53,56.53,0,0,1-4.64-8.18C1114.62,792.65,1114.6,792.11,1115.16,790.65Z" fill="#ffa3ab"/></g><path id="b80e9b14-f1dc-4531-b591-7548423a0b38" data-name="hand 0 Layer0 1 1 STROKES" d="M1121.41,765.78c4,7.58,8.87,16.85,12.8,24,2.17,3.9,2.59,4.95,4.32,8.57m-2.47,6.76a77,77,0,0,1,10.19,10c1.47,1.87,2,3,3.22,4.81m-21.29-55.62c5.1,10.53,10.23,21.06,16.46,31m-9.31-29.43q7.05,12.86,14.06,25.7" fill="none" stroke="#e7708a" stroke-linecap="round" stroke-linejoin="round" stroke-opacity="0.99" stroke-width="1"/><path d="M1175.44,813.77c-2.47,8.81-28.26,17.91-35.74,20.85,10.84,57.16,19.87,115,36.27,170.87-42.22,18.51-84.49,36.92-127,54.87,52.14,16,65.63,50.12,53.51,101.36,63.45-28.22,112-80.86,156.29-132.72C1258.53,961.46,1206.65,871.35,1175.44,813.77Z" fill="#869dfd"/><path d="M1175.44,813.77c-2.47,8.81-28.26,17.91-35.74,20.85,10.84,57.16,19.87,115,36.27,170.87-42.22,18.51-84.49,36.92-127,54.87,52.14,16,65.63,50.12,53.51,101.36,63.45-28.22,112-80.86,156.29-132.72C1258.53,961.46,1206.65,871.35,1175.44,813.77Z" fill="url(#ec218d63-cea5-48a5-ae44-e9d02200f4c7)"/><g id="a3d21a92-d1ff-4ace-bd31-b7c23707dd81" data-name="Layer2 5 MEMBER 0 MEMBER 0 MEMBER 0 FILL"><path d="M1123.69,1895.7l-41.62,11.16,14.16,57.79q-1.45,9.46,34,17.47,58.6,5,26.12-19.31L1131.17,1941Z" fill="#036"/></g><path id="a64ddb6d-5753-4d81-a381-61f1bde5613b" data-name="Layer1 10 1 STROKES" d="M1123.37,1950.61l13.37-6.31" fill="none" stroke="#355bfc" stroke-linecap="round" stroke-linejoin="round" stroke-width="1"/><path id="a54cf443-6bcb-48e1-be3f-1f0200e7c337" data-name="Layer1 11 1 STROKES" d="M1143.2,1951.07l-12.26,7" fill="none" stroke="#355bfc" stroke-linecap="round" stroke-linejoin="round" stroke-width="1"/><path d="M1152.36,1618.87q-3.49-141.9-42.62-269.67L989,1389.9q7.14,92,18.16,157.46,16.8,100.07,47.74,177.13-2.29,45.91,6.43,95.9,7.15,39.45,25.72,107.6,25.67,19.6,43.38,11.92l5.28-47.63Q1155.37,1731.11,1152.36,1618.87Z" fill="#355bfc"/><path d="M1152.36,1618.87q-3.49-141.9-42.62-269.67L989,1389.9q7.14,92,18.16,157.46,16.8,100.07,47.74,177.13-2.29,45.91,6.43,95.9,7.15,39.45,25.72,107.6,25.67,19.6,43.38,11.92l5.28-47.63Q1155.37,1731.11,1152.36,1618.87Z" fill="url(#ea3f35c2-64a3-4138-a253-8e6718a47c71)"/><g id="b2f0b978-7b3c-4203-8b65-52b1d5ab9da5" data-name="Layer2 5 MEMBER 2 MEMBER 0 MEMBER 0 FILL"><path d="M954.07,2058.32l-18.65-28.17,4.5-45.71H896.83l-1.28,60.11q-3.87,9.39,27.65,25Q979.15,2090.26,954.07,2058.32Z" fill="#036"/></g><path id="f335287a-3f71-459f-b7e4-d555fa367de7" data-name="Layer1 10 1 STROKES" d="M925.94,2038.8l14.54-2.72" fill="none" stroke="#355bfc" stroke-linecap="round" stroke-linejoin="round" stroke-width="1"/><path id="aae1024e-6b50-4c24-bc42-482e25e63ed1" data-name="Layer1 11 1 STROKES" d="M945,2044.25l-13.63,3.63" fill="none" stroke="#355bfc" stroke-linecap="round" stroke-linejoin="round" stroke-width="1"/><g id="b8d99715-2f8b-4657-8b5d-4469cb5e9a58" data-name="Layer2 5 MEMBER 3 MEMBER 0 FILL"><path d="M944.34,1378.67q-52.73,79.53-32.79,348.15-34.74,77-15.44,294.3,15.43,15,40.52,8.77-.64-.6,57.23-221T1055,1399.33Z" fill="#355bfc"/></g><path d="M1152.36,1618.87q-3.49-141.9-42.62-269.67l-115.22,38.85-50.18-9.38q-52.73,79.53-32.79,348.15-34.74,77-15.44,294.3,15.43,15,40.52,8.77-.64-.6,57.23-221,21.6-82.29,35.58-160.2a728.16,728.16,0,0,0,25.47,75.84q-2.29,45.91,6.43,95.9,7.15,39.45,25.72,107.6,25.67,19.6,43.38,11.92l5.28-47.63Q1155.37,1731.11,1152.36,1618.87Z" fill="url(#e943f769-4d04-48d5-864e-cac426dab008)"/><path id="b7c2af34-fe21-4c0b-b86f-71eb425ee832" data-name="Layer2 5 MEMBER 5 MEMBER 0 1 STROKES" d="M993.78,1379l-44.4-5.64" fill="none" stroke="#4f18cd" stroke-linecap="round" stroke-miterlimit="10" stroke-width="0.5"/><path id="effc605a-430f-4bd1-a6c9-ddfc9d22f0aa" data-name="Layer2 5 MEMBER 6 MEMBER 0 1 STROKES" d="M1119.88,1363.3l-10.93,6.27" fill="none" stroke="#4f18cd" stroke-linecap="round" stroke-miterlimit="10" stroke-width="0.5"/><g id="abf07258-a192-4e57-8968-e284feacf645" data-name="Layer2 5 MEMBER 7 FILL"><path d="M1026.32,1064.61q-30.24,8.78-66.73,28.24a757.63,757.63,0,0,0-74.62,49q-21.47,14.31-14.14,39.47l52.88,184.85-16.21,84.37q37.83,42.15,105.15,36.52,107.92-17.7,136.16-54.18L1143.1,1354q-15.82-217.93-39.77-264.37-14.67-43.41-77-25" fill="#869dfd"/></g><g id="a69448f2-596c-4cff-abff-959d03107928" data-name="Layer2 5 MEMBER 8 MEMBER 0 MEMBER 0 FILL"><path d="M1029.32,1085.09,1021.7,1048q16.3-5.76,14.64-33.27-5.68-14-4.76-26,1.17-17.07-9.08-23.75-39.9-21.78-64.31,10.41-6.16,11.21,1.8,36.93l9.57,21.82q-3.6,41.77-12.25,69.51l4.11,2.8q39.69,19.3,70.62,11,3.09-1.52-3.36-32.39Z" fill="#ffa3ab"/></g><g id="ba51bfc9-7ceb-440c-830e-ba5f9f249f95" data-name="Layer2 5 MEMBER 9 MEMBER 0 MEMBER 0 FILL"><path d="M990,1047.53q17.81,12.33,33.09,9.8l-1.32-8.06-1.28.11Q1009.84,1052.79,990,1047.53Z" fill="#e7708a"/></g><path d="M989.55,976.09l40.72,4.89q22.85,2.57,28-24.61Q981.71,928.92,961.21,967q-23.12,11.21,5.27,74.86,15.81-5,8.5-41Q1001.62,1010.2,989.55,976.09Z" fill="#257ac2"/><path d="M989.55,976.09l40.72,4.89q22.85,2.57,28-24.61Q981.71,928.92,961.21,967q-23.12,11.21,5.27,74.86,15.81-5,8.5-41Q1001.62,1010.2,989.55,976.09Z" fill="url(#f6e77852-542b-486b-8672-7f5511393fb3)"/><path d="M913.23,1197.72c19.34,52.6,16.4,106.9,4,145.72l-19-66.8Z" fill="url(#b3dcde30-3f3d-40bb-981b-f27486c57e33)"/><path d="M885.85,1539l-10.15-19.6-33.45,15.8,13,44.6a42.47,42.47,0,0,0,10.4,14.85q29.25,18.25,33.3,15.3,2.85-1.5,1.7-7.15l-12.8-19.35a53.17,53.17,0,0,1-1.6-14.15,109.85,109.85,0,0,0,8.4,9.25q4.73,4.68,7.4,1.75t-3.6-16Q892.19,1551.3,885.85,1539Z" fill="#ffa3ab"/><path d="M927.35,1169.2A82.81,82.81,0,0,0,907,1139.9q-13.47-12.62-43.1,26.9t-64,189.9q1.08,78.88,47,202.4,22.15,9,42.6-14l-13-176.15q16.24-30.29,29-60.3a612.05,612.05,0,0,0,21.85-58.75q9-28.8,7.95-46.4A106.26,106.26,0,0,0,927.35,1169.2Z" fill="#869dfd"/><use width="87.29" height="71.34" transform="matrix(0.99, -0.1, 0.1, 0.99, 1085.08, 754.12)" xlink:href="#a59f0e60-da0b-41c9-9a7e-b96ccff544e4"/></g></g></g></svg>