<svg xmlns="http://www.w3.org/2000/svg" xmlns:xlink="http://www.w3.org/1999/xlink" viewBox="0 0 426 426"><defs><style>.cls-1{fill:none;}.cls-2,.cls-6{fill:#002530;}.cls-3{clip-path:url(#clip-path);}.cls-4{fill:url(#linear-gradient);}.cls-5{fill:url(#linear-gradient-2);}.cls-17,.cls-6{fill-opacity:0.15;}.cls-7{fill:url(#linear-gradient-3);}.cls-8{fill:url(#New_Gradient_Swatch_2);}.cls-9{fill:#95eee5;}.cls-10{opacity:0.25;}.cls-11,.cls-17{fill:#004a5f;}.cls-12{fill:url(#linear-gradient-4);}.cls-13{fill:url(#linear-gradient-5);}.cls-14{fill:url(#New_Gradient_Swatch_2-2);}.cls-15{fill:url(#linear-gradient-6);}.cls-16{fill:url(#linear-gradient-7);}.cls-18{opacity:0.9;}.cls-19{isolation:isolate;}.cls-20{clip-path:url(#clip-path-2);}.cls-21{fill:#d5f8f5;}.cls-22{clip-path:url(#clip-path-3);}.cls-23{clip-path:url(#clip-path-4);}.cls-24{clip-path:url(#clip-path-5);}.cls-25{clip-path:url(#clip-path-6);}.cls-26{opacity:0.75;}.cls-27{clip-path:url(#clip-path-7);}.cls-28{clip-path:url(#clip-path-8);}.cls-29{clip-path:url(#clip-path-9);}.cls-30{clip-path:url(#clip-path-10);}.cls-31{clip-path:url(#clip-path-11);}.cls-32{opacity:0.5;}.cls-33{clip-path:url(#clip-path-12);}.cls-34{clip-path:url(#clip-path-13);}.cls-35{clip-path:url(#clip-path-14);}.cls-36{clip-path:url(#clip-path-15);}.cls-37{clip-path:url(#clip-path-16);}</style><clipPath id="clip-path"><path class="cls-1" d="M26.06,54.63,12,57.72C10.78,57,0,32.42,0,30.8L12.74,2.06c0-1.62,13.18.17,14.4.87L34.6,7.24a5.27,5.27,0,0,1,2.21,4.21V48.61C36.81,50.23,27.27,55.33,26.06,54.63Z"/></clipPath><linearGradient id="linear-gradient" x1="40.29" y1="4.18" x2="16.79" y2="43.62" gradientUnits="userSpaceOnUse"><stop offset="0" stop-color="#00637f"/><stop offset="0.1" stop-color="#00637f"/><stop offset="0.14" stop-color="#00869f"/><stop offset="0.15" stop-color="#0088a1"/><stop offset="0.46" stop-color="#0088a1"/><stop offset="0.49" stop-color="#0a9cb0"/><stop offset="0.51" stop-color="#12abbb"/><stop offset="0.78" stop-color="#12abbb"/><stop offset="0.82" stop-color="#0088a1"/><stop offset="0.99" stop-color="#002530"/></linearGradient><linearGradient id="linear-gradient-2" x1="13.44" y1="27.49" x2="45.6" y2="27.49" gradientUnits="userSpaceOnUse"><stop offset="0" stop-color="#0088a1"/><stop offset="0.26" stop-color="#007288"/><stop offset="0.8" stop-color="#003947"/><stop offset="0.99" stop-color="#002530"/></linearGradient><linearGradient id="linear-gradient-3" x1="307.75" y1="300.51" x2="168.49" y2="300.51" gradientUnits="userSpaceOnUse"><stop offset="0.28" stop-color="#0088a1"/><stop offset="0.42" stop-color="#0591a8"/><stop offset="0.65" stop-color="#11aaba"/><stop offset="0.66" stop-color="#12abbb"/></linearGradient><linearGradient id="New_Gradient_Swatch_2" x1="269.48" y1="245.01" x2="194.03" y2="310.43" gradientUnits="userSpaceOnUse"><stop offset="0" stop-color="#0088a1"/><stop offset="1" stop-color="#4dd2d2"/></linearGradient><linearGradient id="linear-gradient-4" x1="235.95" y1="259.67" x2="210.73" y2="259.67" gradientUnits="userSpaceOnUse"><stop offset="0.04" stop-color="#95eee5"/><stop offset="0.1" stop-color="#12abbb"/><stop offset="0.12" stop-color="#0b9cb0"/><stop offset="0.16" stop-color="#0491a7"/><stop offset="0.21" stop-color="#018aa2"/><stop offset="0.35" stop-color="#0088a1"/><stop offset="0.48" stop-color="#0898ad"/><stop offset="0.65" stop-color="#10a6b7"/><stop offset="0.79" stop-color="#12abbb"/><stop offset="0.83" stop-color="#22b3c0"/><stop offset="0.9" stop-color="#4cc9ce"/><stop offset="0.99" stop-color="#8febe3"/><stop offset="1" stop-color="#95eee5"/></linearGradient><linearGradient id="linear-gradient-5" x1="282.41" y1="210.12" x2="260.38" y2="180.11" gradientUnits="userSpaceOnUse"><stop offset="0.28" stop-color="#4dd2d2"/><stop offset="0.66" stop-color="#95eee5"/></linearGradient><linearGradient id="New_Gradient_Swatch_2-2" x1="267.36" y1="299.06" x2="180.26" y2="118.97" xlink:href="#New_Gradient_Swatch_2"/><linearGradient id="linear-gradient-6" x1="217.56" y1="120.05" x2="205.25" y2="327.09" gradientUnits="userSpaceOnUse"><stop offset="0" stop-color="#d5f8f5"/><stop offset="1" stop-color="#4dd2d2"/></linearGradient><linearGradient id="linear-gradient-7" x1="270.88" y1="220.22" x2="141.84" y2="148.64" gradientUnits="userSpaceOnUse"><stop offset="0.28" stop-color="#95eee5"/><stop offset="0.66" stop-color="#d5f8f5"/><stop offset="0.98" stop-color="#95eee5"/></linearGradient><clipPath id="clip-path-2"><polygon class="cls-1" points="237.04 218.54 239.78 205.27 247.92 209.68 245.18 222.95 237.04 218.54"/></clipPath><clipPath id="clip-path-3"><polygon class="cls-1" points="215.22 206.05 217.96 192.78 226.25 197.28 223.51 210.55 215.22 206.05"/></clipPath><clipPath id="clip-path-4"><polygon class="cls-1" points="194.39 193.99 197.06 181.09 202.77 184.19 200.11 197.09 194.39 193.99"/></clipPath><clipPath id="clip-path-5"><polygon class="cls-1" points="151 169.13 153.66 156.22 159.37 159.31 156.7 172.22 151 169.13"/></clipPath><clipPath id="clip-path-6"><polygon class="cls-1" points="171.91 181.18 174.62 168.1 182.93 172.6 180.22 185.69 171.91 181.18"/></clipPath><clipPath id="clip-path-7"><polygon class="cls-1" points="245.05 194.72 253.09 183.47 261 187.86 252.97 199.11 245.05 194.72"/></clipPath><clipPath id="clip-path-8"><polygon class="cls-1" points="223.8 182.46 231.72 171.36 238.83 175.3 230.91 186.4 223.8 182.46"/></clipPath><clipPath id="clip-path-9"><polygon class="cls-1" points="201.6 170 209.76 158.58 217.66 162.96 209.51 174.38 201.6 170"/></clipPath><clipPath id="clip-path-10"><polygon class="cls-1" points="158.29 145.18 166.44 133.77 174.34 138.15 166.19 149.56 158.29 145.18"/></clipPath><clipPath id="clip-path-11"><polygon class="cls-1" points="180.07 157.55 188.12 146.28 196.01 150.66 187.96 161.93 180.07 157.55"/></clipPath><clipPath id="clip-path-12"><polygon class="cls-1" points="240.98 238.21 238.03 229.36 243.65 232.48 246.6 241.32 240.98 238.21"/></clipPath><clipPath id="clip-path-13"><polygon class="cls-1" points="218.82 225.57 215.83 216.59 223.84 221.04 226.83 230.01 218.82 225.57"/></clipPath><clipPath id="clip-path-14"><polygon class="cls-1" points="197.26 213.21 194.26 204.2 202.06 208.52 205.06 217.53 197.26 213.21"/></clipPath><clipPath id="clip-path-15"><polygon class="cls-1" points="176.03 201.05 173.08 192.2 180.28 196.19 183.23 205.04 176.03 201.05"/></clipPath><clipPath id="clip-path-16"><polygon class="cls-1" points="153.96 188.47 150.96 179.47 158.75 183.8 161.75 192.8 153.96 188.47"/></clipPath><symbol id="Wheel_2" data-name="Wheel 2" viewBox="0 0 42.53 57.72"><path class="cls-2" d="M34.6,50.28,27.14,46a5.27,5.27,0,0,1-2.21-4.21V4.6c0-1.62,1-2.37,2.21-1.67L34.6,7.24a5.27,5.27,0,0,1,2.21,4.21V48.61C36.81,50.23,35.82,51,34.6,50.28Z"/><g class="cls-3"><path class="cls-4" d="M42.53,5.51,33.08,0,28.27,2.77a3.73,3.73,0,0,0-1.18,1.09L18.71,15.71A3.85,3.85,0,0,0,18.13,17L15,29.84a3.68,3.68,0,0,0,.1,2.08l2.58,7.56a3.64,3.64,0,0,0,1.22,1.69l0,0,.24.14a2.8,2.8,0,0,0,.43.27l9,5.59,1.51-4.79,3.29-1.9Z"/><path id="GradSideWheel" class="cls-5" d="M42.53,5.51,37.44,8.45a3.73,3.73,0,0,0-1.19,1.08L27.88,21.39a3.8,3.8,0,0,0-.58,1.28L24.21,35.52a3.68,3.68,0,0,0,.09,2.08l2.58,7.56a3.74,3.74,0,0,0,2.61,2.41l7.35,1.89,5.69-3.28Z"/></g></symbol></defs><g id="VM"><g id="Baswe2"><path class="cls-6" d="M210.05,349.89l-49.74-28.72c-12.86-7.43-11.25-20.4,3.6-29h0c14.85-8.58,37.32-9.51,50.18-2.08l49.74,28.71c12.86,7.43,11.25,20.4-3.6,29h0C245.37,356.38,222.91,357.31,210.05,349.89Z"/><path class="cls-7" d="M272.51,305l-2.63-.52a19.82,19.82,0,0,0-6.05-5.14l-49.74-28.72c-12.86-7.42-35.33-6.49-50.18,2.08h0a28.24,28.24,0,0,0-9.95,8.94l-2.34-.46v8.29h0c.15,4.58,3,8.93,8.68,12.2l49.74,28.72c12.86,7.43,35.32,6.5,50.18-2.08h0c8-4.6,12.11-10.46,12.27-16.05h0Z"/><path class="cls-8" d="M231.84,329.17c-8.37,0-16-1.76-21.54-4.94l-49.74-28.72c-5.43-3.14-8.42-7.45-8.42-12.14,0-5.72,4.38-11.53,12-15.94s18-7,28.13-7c8.36,0,16,1.76,21.53,5l49.74,28.71C269,297.2,272,301.51,272,306.2c0,5.72-4.39,11.53-12,15.95S242,329.17,231.84,329.17Z"/><path class="cls-9" d="M192.3,259.89v1c8.27,0,15.83,1.73,21.28,4.87l49.74,28.72c5.26,3,8.17,7.19,8.17,11.69,0,5.53-4.29,11.18-11.78,15.5-7.65,4.42-17.81,7-27.87,7-8.28,0-15.84-1.73-21.28-4.88l-49.74-28.72c-5.27-3-8.17-7.19-8.17-11.69,0-5.53,4.29-11.18,11.77-15.5,7.66-4.42,17.82-6.95,27.88-6.95v-1m0,0c-9.86,0-20.27,2.4-28.39,7.09h0c-14.85,8.58-16.46,21.55-3.6,29l49.74,28.72c5.82,3.37,13.62,5,21.79,5,9.86,0,20.26-2.4,28.39-7.09h0c14.85-8.57,16.46-21.55,3.6-29L214.09,264.9c-5.83-3.36-13.62-5-21.79-5Z"/><g class="cls-10"><path class="cls-9" d="M192.3,259.89v2.05c8.1,0,15.47,1.69,20.76,4.74L262.8,295.4c4.94,2.85,7.66,6.68,7.66,10.8,0,5.16-4.1,10.48-11.26,14.61-7.51,4.33-17.48,6.82-27.36,6.82-8.1,0-15.48-1.68-20.77-4.74l-49.74-28.71c-4.93-2.85-7.65-6.69-7.65-10.81,0-5.15,4.1-10.48,11.26-14.61,7.5-4.33,17.47-6.82,27.36-6.82v-2.05m0,0c-9.86,0-20.27,2.4-28.39,7.09h0c-14.85,8.58-16.46,21.55-3.6,29l49.74,28.72c5.82,3.37,13.62,5,21.79,5,9.86,0,20.26-2.4,28.39-7.09h0c14.85-8.57,16.46-21.55,3.6-29L214.09,264.9c-5.83-3.36-13.62-5-21.79-5Z"/></g></g><ellipse class="cls-11" cx="223.14" cy="288.39" rx="7.87" ry="13.63" transform="translate(-66.65 509.71) rotate(-89.64)"/><path class="cls-12" d="M235.47,224.08H210.81v64.06h0c0,1.81,1.24,3.62,3.64,5,4.84,2.79,12.64,2.81,17.44,0,2.41-1.39,3.6-3.22,3.57-5.05h0Z"/><path class="cls-13" d="M305.78,164.07l-159-91.78c-2.24-1.29-4.3-1.45-5.94-.69h0l-.08,0a4,4,0,0,0-.45.25l-12.71,7.34L299,298.36l12.76-7.31a4.66,4.66,0,0,0,.68-.4l.11-.06h0c1.78-1.3,2.9-3.91,2.9-7.52V182.5C315.43,175.4,311.11,167.15,305.78,164.07Z"/><path class="cls-14" d="M303,189.66V290.23c0,7.11-4.32,10.37-9.64,7.3l-159-91.78c-5.33-3.08-9.65-11.33-9.65-18.43V86.74c0-7.1,4.32-10.37,9.65-7.29l159,91.78C298.69,174.31,303,182.56,303,189.66Z"/><path class="cls-15" d="M140.66,194.91c-1.14-.76-3.39-4.5-3.39-7.59V99.79a2.44,2.44,0,0,1,3.66-2.12l146.18,84.4c1.14.75,3.39,4.5,3.39,7.59V277a2.55,2.55,0,0,1-3.82,2.2ZM137.29,86.34"/><path class="cls-16" d="M289.26,277.39l-146-84.3c-1.13-.75-3.38-4.51-3.38-7.59V98a2.44,2.44,0,0,1,.09-.62,2.45,2.45,0,0,0-2.67,2.44v87.53c0,3.09,2.26,6.84,3.4,7.58l146,84.31a2.52,2.52,0,0,0,3.7-1.48A2.25,2.25,0,0,1,289.26,277.39Z"/><path class="cls-9" d="M143,72.17a6.67,6.67,0,0,1,3.29,1l159,91.78c5,2.91,9.13,10.78,9.13,17.54V283.07c0,3.1-.9,5.53-2.47,6.68l0,0,0,0,0,0a4.17,4.17,0,0,1-.54.31l0,0,0,0-11.47,6.57-.07,0-.06.05a3.67,3.67,0,0,1-.95.54l-.07,0h0a4.17,4.17,0,0,1-1.43.25,6.67,6.67,0,0,1-3.29-1l-159-91.78c-5-2.91-9.13-10.78-9.13-17.54V86.74c0-3.08.9-5.51,2.46-6.67h0l0,0,0,0a5.3,5.3,0,0,1,.57-.33h0l0,0,11.93-6.89.27-.16.15-.07a3.94,3.94,0,0,1,1.69-.36m0-1a5,5,0,0,0-2.13.46h0l-.08,0a4,4,0,0,0-.45.25l-11.9,6.87a5.2,5.2,0,0,0-.72.42l-.09,0h0c-1.79,1.3-2.9,3.91-2.9,7.5V187.32c0,7.1,4.32,15.35,9.65,18.43l159,91.78a7.66,7.66,0,0,0,3.8,1.14,5.14,5.14,0,0,0,1.81-.32h0l.08,0a5,5,0,0,0,1.21-.69l11.47-6.58a4.66,4.66,0,0,0,.68-.4l.11-.06h0c1.79-1.3,2.9-3.91,2.9-7.52V182.5c0-7.1-4.32-15.35-9.65-18.43l-159-91.78A7.75,7.75,0,0,0,143,71.14Z"/><g class="cls-10"><path class="cls-9" d="M143,73.2a5.68,5.68,0,0,1,2.78.87l159,91.78c4.67,2.7,8.61,10.32,8.61,16.65V283.07c0,2.74-.73,4.86-2,5.82l0,0-.07,0a2.22,2.22,0,0,1-.39.23l-.07,0-.08,0-11.46,6.57-.14.08L299,296a2.78,2.78,0,0,1-.7.4l-.1,0a3.12,3.12,0,0,1-1,.17,5.68,5.68,0,0,1-2.78-.87L135.42,204c-4.67-2.7-8.61-10.33-8.61-16.65V86.74c0-2.72.72-4.84,2-5.81h0l.07,0a2.22,2.22,0,0,1,.42-.25l.08,0,.07,0,11.9-6.87,0,0,0,0,.19-.11.12-.06A3.05,3.05,0,0,1,143,73.2m0-2.06a5,5,0,0,0-2.13.46h0l-.08,0a4,4,0,0,0-.45.25l-11.9,6.87a5.2,5.2,0,0,0-.72.42l-.09,0h0c-1.79,1.3-2.9,3.91-2.9,7.5V187.32c0,7.1,4.32,15.35,9.65,18.43l159,91.78a7.66,7.66,0,0,0,3.8,1.14,5.14,5.14,0,0,0,1.81-.32h0l.08,0a5,5,0,0,0,1.21-.69l11.47-6.58a4.66,4.66,0,0,0,.68-.4l.11-.06h0c1.79-1.3,2.9-3.91,2.9-7.52V182.5c0-7.1-4.32-15.35-9.65-18.43l-159-91.78A7.75,7.75,0,0,0,143,71.14Z"/></g></g><g id="Combination"><path class="cls-17" d="M157.54,191.41l.43.91a32,32,0,0,0,13.14,14.23l95.53,54.25a3.93,3.93,0,0,0,5.87-3.42V199.14a15.21,15.21,0,0,0-2-7.57l-2.16-3.73-110.79,3.57"/><use width="42.53" height="57.72" transform="translate(121.6 121.24) scale(1.63)" xlink:href="#Wheel_2"/><use width="42.53" height="57.72" transform="translate(143.27 133.64) scale(1.63)" xlink:href="#Wheel_2"/><use width="42.53" height="57.72" transform="translate(164.94 146.04) scale(1.63)" xlink:href="#Wheel_2"/><use width="42.53" height="57.72" transform="translate(186.61 158.44) scale(1.63)" xlink:href="#Wheel_2"/><use width="42.53" height="57.72" transform="translate(208.28 170.84) scale(1.63)" xlink:href="#Wheel_2"/><g class="cls-18"><g class="cls-19"><g class="cls-20"><path class="cls-21" d="M241.61,218.35a2.15,2.15,0,0,1-1.1-1.38,5,5,0,0,1,0-2.12c.06-.36.13-.73.21-1.12l.23-1.14c.09-.38.17-.73.25-1.05a3.39,3.39,0,0,1,.79-1.65,1.12,1.12,0,0,1,1.4,0,2.17,2.17,0,0,1,1.09,1.4,5.06,5.06,0,0,1,0,2.1c-.07.33-.13.69-.2,1.07s-.16.77-.24,1.14l-.25,1.1a3.18,3.18,0,0,1-.82,1.67,1.11,1.11,0,0,1-1.37,0m2.24-10.87a4.3,4.3,0,0,0-1.85-.59,2.42,2.42,0,0,0-1.45.37,3,3,0,0,0-1.07,1.14,6.14,6.14,0,0,0-.68,1.75c-.08.34-.17.71-.26,1.13s-.18.82-.26,1.25-.14.78-.2,1.12a8.94,8.94,0,0,0-.11,2.06,6.17,6.17,0,0,0,.4,2,5.59,5.59,0,0,0,1,1.72,6.09,6.09,0,0,0,1.72,1.36,4.31,4.31,0,0,0,1.86.58,2.35,2.35,0,0,0,1.45-.37,3.39,3.39,0,0,0,1.06-1.18,6.45,6.45,0,0,0,.68-1.75c.09-.32.17-.69.26-1.09l.26-1.25c.08-.42.15-.81.21-1.16a8.9,8.9,0,0,0,.09-2.06,6.42,6.42,0,0,0-.43-1.95,5.55,5.55,0,0,0-1-1.71,5.47,5.47,0,0,0-1.68-1.33"/></g></g></g><g class="cls-18"><g class="cls-19"><g class="cls-22"><path class="cls-21" d="M219.8,206.18a2.88,2.88,0,0,1-.89-.73,2.93,2.93,0,0,1-.53-1,2.28,2.28,0,0,1,0-1.13,1.48,1.48,0,0,1,.45-.87,1.24,1.24,0,0,1,.8-.28,1.89,1.89,0,0,1,1,.27,2.89,2.89,0,0,1,.89.74,2.84,2.84,0,0,1,.53,1,2.43,2.43,0,0,1,0,1.14,1.5,1.5,0,0,1-.44.86,1.22,1.22,0,0,1-.8.3,2,2,0,0,1-1-.28m1.19-5.77a2.63,2.63,0,0,1-.8-.65,2.34,2.34,0,0,1-.45-.87,2,2,0,0,1,0-1,1.31,1.31,0,0,1,.38-.74,1,1,0,0,1,.69-.25,1.82,1.82,0,0,1,.88.25,2.47,2.47,0,0,1,.78.65,2.43,2.43,0,0,1,.47.88,2.11,2.11,0,0,1,0,1,1.15,1.15,0,0,1-.39.71,1,1,0,0,1-.7.25,1.83,1.83,0,0,1-.86-.22M222.1,195a4.43,4.43,0,0,0-2.2-.66,2.16,2.16,0,0,0-1.52.61,3,3,0,0,0-.81,1.63,4.33,4.33,0,0,0,0,1.68,4.4,4.4,0,0,0,.57,1.51,2.19,2.19,0,0,0-1.28.63,3,3,0,0,0-.78,1.6,5.1,5.1,0,0,0-.07,1.74,5.3,5.3,0,0,0,.52,1.7,6.06,6.06,0,0,0,1.13,1.56,7.24,7.24,0,0,0,1.73,1.27,5,5,0,0,0,2.4.72,2.39,2.39,0,0,0,1.68-.67,3.48,3.48,0,0,0,.89-1.8,4.57,4.57,0,0,0,0-2.05,4.68,4.68,0,0,0-.81-1.78,1.91,1.91,0,0,0,1-.66,3.26,3.26,0,0,0,.59-1.38,4.75,4.75,0,0,0,0-2.09,5.12,5.12,0,0,0-1-2,6.21,6.21,0,0,0-2-1.6"/></g></g></g><g class="cls-18"><g class="cls-19"><g class="cls-23"><path class="cls-21" d="M202.42,184l-1.55-.84a.67.67,0,0,0-.18-.07h-.19l-4,1.44a.32.32,0,0,0-.22.22.65.65,0,0,0,0,.39l.47,1.58a.79.79,0,0,0,.2.34l.06,0a.26.26,0,0,0,.23,0l2.52-.91-1.89,9.17a.62.62,0,0,0,0,.38.54.54,0,0,0,.24.27l1.6.87a.24.24,0,0,0,.27,0,.39.39,0,0,0,.17-.27l2.48-12a.64.64,0,0,0,0-.39.52.52,0,0,0-.22-.26"/></g></g></g><g class="cls-18"><g class="cls-19"><g class="cls-24"><path class="cls-21" d="M159,159.13l-1.54-.84a.89.89,0,0,0-.19-.07h-.19l-4,1.45a.31.31,0,0,0-.22.21.62.62,0,0,0,0,.38l.47,1.6a.77.77,0,0,0,.2.33l.07.05a.24.24,0,0,0,.22,0l2.52-.9-1.89,9.16a.65.65,0,0,0,0,.39.58.58,0,0,0,.24.27l1.6.86a.26.26,0,0,0,.27,0,.44.44,0,0,0,.17-.28l2.47-12a.64.64,0,0,0,0-.39.52.52,0,0,0-.22-.26"/></g></g></g><g class="cls-18"><g class="cls-19"><g class="cls-25"><path class="cls-21" d="M176.57,181.06a2.59,2.59,0,0,1-.83-.72,2.89,2.89,0,0,1-.5-1.11,3,3,0,0,1,0-1.33,2.18,2.18,0,0,1,.5-1.08,1.18,1.18,0,0,1,.81-.37,1.63,1.63,0,0,1,.93.22,2.57,2.57,0,0,1,.84.74,2.75,2.75,0,0,1,.51,1.09,3.19,3.19,0,0,1,0,1.34,2.18,2.18,0,0,1-.49,1.06,1.31,1.31,0,0,1-.81.4,1.76,1.76,0,0,1-.94-.24m4-9.75-1.63-.88a.35.35,0,0,0-.35,0l-.24.12-3.54,3.08-.46.45q-.27.28-.57.66a6.22,6.22,0,0,0-.53.88,4.33,4.33,0,0,0-.36,1,6.14,6.14,0,0,0,0,2.63,6.38,6.38,0,0,0,3.22,4.22,3.89,3.89,0,0,0,2.32.55,2.89,2.89,0,0,0,1.78-.92,4.2,4.2,0,0,0,1-2,5.47,5.47,0,0,0,.07-1.93,6.5,6.5,0,0,0-.52-1.81,6.19,6.19,0,0,0-1-1.54,5,5,0,0,0-1.27-1.1l-.27-.13-.28-.09,2.72-2.39.07-.08,0-.13a.66.66,0,0,0,0-.34.42.42,0,0,0-.2-.23"/></g></g></g><g class="cls-26"><g class="cls-19"><g class="cls-27"><g class="cls-26"><path class="cls-21" d="M252.94,191.39a1.71,1.71,0,0,1-.68-.68,1.58,1.58,0,0,1-.15-1,2.64,2.64,0,0,1,.48-1.11,3,3,0,0,1,.93-.87,2.33,2.33,0,0,1,1.06-.3,2,2,0,0,1,1,.23,1.78,1.78,0,0,1,.69.7,1.65,1.65,0,0,1,.14,1,2.58,2.58,0,0,1-.49,1.12,3,3,0,0,1-.92.86,2.33,2.33,0,0,1-1.06.3,1.93,1.93,0,0,1-1-.25m4.08-5.74a4.77,4.77,0,0,0-1.95-.62,5,5,0,0,0-1.86.2,5.34,5.34,0,0,0-1.64.85,5.75,5.75,0,0,0-1.27,1.29,4.92,4.92,0,0,0-.78,1.62,3.82,3.82,0,0,0-.08,1.57,3.38,3.38,0,0,0,.55,1.37,3.23,3.23,0,0,0,1.06,1l.1.07a2.11,2.11,0,0,0,.44.17l-4.29,2-.09.07-.11.11a.4.4,0,0,0-.09.29.24.24,0,0,0,.14.22l1.6.89a.52.52,0,0,0,.4.06l.31-.1,5-2.36,1.34-.68a8.9,8.9,0,0,0,1.33-.83,5.39,5.39,0,0,0,1.14-1.19,5.3,5.3,0,0,0,.79-1.6,3.71,3.71,0,0,0,.11-1.65,3.37,3.37,0,0,0-.66-1.52,4.51,4.51,0,0,0-1.5-1.25"/></g><path class="cls-21" d="M252.94,191.39a1.71,1.71,0,0,1-.68-.68,1.58,1.58,0,0,1-.15-1,2.64,2.64,0,0,1,.48-1.11,3,3,0,0,1,.93-.87,2.33,2.33,0,0,1,1.06-.3,2,2,0,0,1,1,.23,1.78,1.78,0,0,1,.69.7,1.65,1.65,0,0,1,.14,1,2.58,2.58,0,0,1-.49,1.12,3,3,0,0,1-.92.86,2.33,2.33,0,0,1-1.06.3,1.93,1.93,0,0,1-1-.25m4.08-5.74a4.77,4.77,0,0,0-1.95-.62,5,5,0,0,0-1.86.2,5.34,5.34,0,0,0-1.64.85,5.75,5.75,0,0,0-1.27,1.29,4.92,4.92,0,0,0-.78,1.62,3.82,3.82,0,0,0-.08,1.57,3.38,3.38,0,0,0,.55,1.37,3.23,3.23,0,0,0,1.06,1l.1.07a2.11,2.11,0,0,0,.44.17l-4.29,2-.09.07-.11.11a.4.4,0,0,0-.09.29.24.24,0,0,0,.14.22l1.6.89a.52.52,0,0,0,.4.06l.31-.1,5-2.36,1.34-.68a8.9,8.9,0,0,0,1.33-.83,5.39,5.39,0,0,0,1.14-1.19,5.3,5.3,0,0,0,.79-1.6,3.71,3.71,0,0,0,.11-1.65,3.37,3.37,0,0,0-.66-1.52,4.51,4.51,0,0,0-1.5-1.25"/></g></g></g><g class="cls-26"><g class="cls-19"><g class="cls-28"><g class="cls-26"><path class="cls-21" d="M238.48,175.11l-6.4-3.55a.38.38,0,0,0-.33,0,.53.53,0,0,0-.31.23l-1,1.34a.42.42,0,0,0-.09.33.29.29,0,0,0,.17.25l4.34,2.41-9.4,6.63-.13.13a.52.52,0,0,0-.09.29.28.28,0,0,0,.14.22l1.54.85a.47.47,0,0,0,.44,0,2,2,0,0,0,.32-.15l9.34-6.59a2.85,2.85,0,0,0,.33-.25,2.6,2.6,0,0,0,.31-.37l.85-1.19a.51.51,0,0,0,.11-.34.31.31,0,0,0-.18-.25"/></g><path class="cls-21" d="M238.48,175.11l-6.4-3.55a.38.38,0,0,0-.33,0,.53.53,0,0,0-.31.23l-1,1.34a.42.42,0,0,0-.09.33.29.29,0,0,0,.17.25l4.34,2.41-9.4,6.63-.13.13a.52.52,0,0,0-.09.29.28.28,0,0,0,.14.22l1.54.85a.47.47,0,0,0,.44,0,2,2,0,0,0,.32-.15l9.34-6.59a2.85,2.85,0,0,0,.33-.25,2.6,2.6,0,0,0,.31-.37l.85-1.19a.51.51,0,0,0,.11-.34.31.31,0,0,0-.18-.25"/></g></g></g><g class="cls-26"><g class="cls-19"><g class="cls-29"><g class="cls-26"><path class="cls-21" d="M207,170.13a1.3,1.3,0,0,1-.77-1.27A3.89,3.89,0,0,1,207,167l.65-1,.7-1c.24-.32.47-.63.69-.9a4.36,4.36,0,0,1,1.54-1.38,1.69,1.69,0,0,1,1.66,0,1.32,1.32,0,0,1,.75,1.3,3.87,3.87,0,0,1-.74,1.82l-.63.93-.7,1-.71.94a4.37,4.37,0,0,1-1.57,1.4,1.69,1.69,0,0,1-1.63-.06m6.68-9.36a4.87,4.87,0,0,0-2-.62,4.43,4.43,0,0,0-1.85.22,5.81,5.81,0,0,0-1.68.93,8.1,8.1,0,0,0-1.44,1.48l-.72,1c-.27.36-.52.71-.76,1.07s-.48.68-.67,1a8.9,8.9,0,0,0-.9,1.8,4.11,4.11,0,0,0-.25,1.73,3.12,3.12,0,0,0,.56,1.58,4.37,4.37,0,0,0,1.51,1.29,4.83,4.83,0,0,0,2,.63,4.43,4.43,0,0,0,1.85-.23,5.84,5.84,0,0,0,1.67-1,9,9,0,0,0,1.46-1.49c.22-.28.45-.59.7-1s.52-.7.77-1.07.48-.69.68-1a7.86,7.86,0,0,0,.88-1.8,4.19,4.19,0,0,0,.22-1.73,3.31,3.31,0,0,0-.56-1.56,4.2,4.2,0,0,0-1.48-1.28"/></g><path class="cls-21" d="M207,170.13a1.3,1.3,0,0,1-.77-1.27A3.89,3.89,0,0,1,207,167l.65-1,.7-1c.24-.32.47-.63.69-.9a4.36,4.36,0,0,1,1.54-1.38,1.69,1.69,0,0,1,1.66,0,1.32,1.32,0,0,1,.75,1.3,3.87,3.87,0,0,1-.74,1.82l-.63.93-.7,1-.71.94a4.37,4.37,0,0,1-1.57,1.4,1.69,1.69,0,0,1-1.63-.06m6.68-9.36a4.87,4.87,0,0,0-2-.62,4.43,4.43,0,0,0-1.85.22,5.81,5.81,0,0,0-1.68.93,8.1,8.1,0,0,0-1.44,1.48l-.72,1c-.27.36-.52.71-.76,1.07s-.48.68-.67,1a8.9,8.9,0,0,0-.9,1.8,4.11,4.11,0,0,0-.25,1.73,3.12,3.12,0,0,0,.56,1.58,4.37,4.37,0,0,0,1.51,1.29,4.83,4.83,0,0,0,2,.63,4.43,4.43,0,0,0,1.85-.23,5.84,5.84,0,0,0,1.67-1,9,9,0,0,0,1.46-1.49c.22-.28.45-.59.7-1s.52-.7.77-1.07.48-.69.68-1a7.86,7.86,0,0,0,.88-1.8,4.19,4.19,0,0,0,.22-1.73,3.31,3.31,0,0,0-.56-1.56,4.2,4.2,0,0,0-1.48-1.28"/></g></g></g><g class="cls-26"><g class="cls-19"><g class="cls-30"><g class="cls-26"><path class="cls-21" d="M163.72,145.32a1.32,1.32,0,0,1-.78-1.27,4,4,0,0,1,.76-1.86l.65-1,.71-1,.68-.91a4.42,4.42,0,0,1,1.54-1.37,1.71,1.71,0,0,1,1.67,0,1.33,1.33,0,0,1,.74,1.3,3.8,3.8,0,0,1-.73,1.83l-.63.93c-.24.34-.47.66-.71,1l-.7.95a4.57,4.57,0,0,1-1.58,1.4,1.67,1.67,0,0,1-1.62-.06M170.4,136a4.83,4.83,0,0,0-2-.63,4.39,4.39,0,0,0-1.84.23,5.57,5.57,0,0,0-1.68.93,8.15,8.15,0,0,0-1.45,1.48l-.72,1c-.26.36-.52.71-.76,1.07s-.47.68-.67,1a8.13,8.13,0,0,0-.89,1.8,4.1,4.1,0,0,0-.26,1.73,3.11,3.11,0,0,0,.56,1.57,4.28,4.28,0,0,0,1.51,1.3,4.87,4.87,0,0,0,2,.63,4.33,4.33,0,0,0,1.86-.24,5.4,5.4,0,0,0,1.67-1,9.25,9.25,0,0,0,1.45-1.48c.22-.28.45-.6.71-1s.51-.71.76-1.07.49-.69.68-1a7.24,7.24,0,0,0,.88-1.79,4.21,4.21,0,0,0,.22-1.73,3.28,3.28,0,0,0-.56-1.57A4.34,4.34,0,0,0,170.4,136"/></g><path class="cls-21" d="M163.72,145.32a1.32,1.32,0,0,1-.78-1.27,4,4,0,0,1,.76-1.86l.65-1,.71-1,.68-.91a4.42,4.42,0,0,1,1.54-1.37,1.71,1.71,0,0,1,1.67,0,1.33,1.33,0,0,1,.74,1.3,3.8,3.8,0,0,1-.73,1.83l-.63.93c-.24.34-.47.66-.71,1l-.7.95a4.57,4.57,0,0,1-1.58,1.4,1.67,1.67,0,0,1-1.62-.06M170.4,136a4.83,4.83,0,0,0-2-.63,4.39,4.39,0,0,0-1.84.23,5.57,5.57,0,0,0-1.68.93,8.15,8.15,0,0,0-1.45,1.48l-.72,1c-.26.36-.52.71-.76,1.07s-.47.68-.67,1a8.13,8.13,0,0,0-.89,1.8,4.1,4.1,0,0,0-.26,1.73,3.11,3.11,0,0,0,.56,1.57,4.28,4.28,0,0,0,1.51,1.3,4.87,4.87,0,0,0,2,.63,4.33,4.33,0,0,0,1.86-.24,5.4,5.4,0,0,0,1.67-1,9.25,9.25,0,0,0,1.45-1.48c.22-.28.45-.6.71-1s.51-.71.76-1.07.49-.69.68-1a7.24,7.24,0,0,0,.88-1.79,4.21,4.21,0,0,0,.22-1.73,3.28,3.28,0,0,0-.56-1.57A4.34,4.34,0,0,0,170.4,136"/></g></g></g><g class="cls-26"><g class="cls-19"><g class="cls-31"><g class="cls-26"><path class="cls-21" d="M195,150.11l-5.48-3a.46.46,0,0,0-.38,0,.77.77,0,0,0-.39.26l-4.4,5.19a.42.42,0,0,0-.09.29.29.29,0,0,0,.14.23l1.58.88a.51.51,0,0,0,.35,0,3,3,0,0,0,.46-.08,1.67,1.67,0,0,1,.55,0,1.84,1.84,0,0,1,.67.23,1.79,1.79,0,0,1,.71.71,1.68,1.68,0,0,1,.15.95,2.33,2.33,0,0,1-.45,1,2.84,2.84,0,0,1-.95.89,2.2,2.2,0,0,1-1.06.29,2,2,0,0,1-1-.25,1.74,1.74,0,0,1-.58-.49,1.52,1.52,0,0,1-.26-.7,2.29,2.29,0,0,1,.12-.9.54.54,0,0,0,0-.33.45.45,0,0,0-.22-.24l-1.6-.88a.28.28,0,0,0-.27,0,.42.42,0,0,0-.26.19,3.87,3.87,0,0,0-.66,1.84,3.25,3.25,0,0,0,.45,1.94,4.65,4.65,0,0,0,1.81,1.64,5.22,5.22,0,0,0,2.47.69,4.61,4.61,0,0,0,2.32-.59,5.72,5.72,0,0,0,1.92-1.73,4.72,4.72,0,0,0,.79-1.66,3.72,3.72,0,0,0,.06-1.55,3.46,3.46,0,0,0-.58-1.33,4.15,4.15,0,0,0-2.41-1.44,3.92,3.92,0,0,0-1,0l1.87-2.21,4.09,2.26a.42.42,0,0,0,.33,0,.58.58,0,0,0,.29-.22l.91-1.27a.46.46,0,0,0,.1-.34.3.3,0,0,0-.17-.25"/></g><path class="cls-21" d="M195,150.11l-5.48-3a.46.46,0,0,0-.38,0,.77.77,0,0,0-.39.26l-4.4,5.19a.42.42,0,0,0-.09.29.29.29,0,0,0,.14.23l1.58.88a.51.51,0,0,0,.35,0,3,3,0,0,0,.46-.08,1.67,1.67,0,0,1,.55,0,1.84,1.84,0,0,1,.67.23,1.79,1.79,0,0,1,.71.71,1.68,1.68,0,0,1,.15.95,2.33,2.33,0,0,1-.45,1,2.84,2.84,0,0,1-.95.89,2.2,2.2,0,0,1-1.06.29,2,2,0,0,1-1-.25,1.74,1.74,0,0,1-.58-.49,1.52,1.52,0,0,1-.26-.7,2.29,2.29,0,0,1,.12-.9.54.54,0,0,0,0-.33.45.45,0,0,0-.22-.24l-1.6-.88a.28.28,0,0,0-.27,0,.42.42,0,0,0-.26.19,3.87,3.87,0,0,0-.66,1.84,3.25,3.25,0,0,0,.45,1.94,4.65,4.65,0,0,0,1.81,1.64,5.22,5.22,0,0,0,2.47.69,4.61,4.61,0,0,0,2.32-.59,5.72,5.72,0,0,0,1.92-1.73,4.72,4.72,0,0,0,.79-1.66,3.72,3.72,0,0,0,.06-1.55,3.46,3.46,0,0,0-.58-1.33,4.15,4.15,0,0,0-2.41-1.44,3.92,3.92,0,0,0-1,0l1.87-2.21,4.09,2.26a.42.42,0,0,0,.33,0,.58.58,0,0,0,.29-.22l.91-1.27a.46.46,0,0,0,.1-.34.3.3,0,0,0-.17-.25"/></g></g></g><g class="cls-32"><g class="cls-19"><g class="cls-33"><path class="cls-21" d="M243.3,232.29l-1.51-.84a.63.63,0,0,0-.17-.08l-.15,0-2.52.42c-.07,0-.09,0-.08.12a.81.81,0,0,0,.14.28l1,1.21a1.42,1.42,0,0,0,.28.27l.06,0a.35.35,0,0,0,.18,0l1.59-.27,2.1,6.29a.85.85,0,0,0,.18.29,1.35,1.35,0,0,0,.28.22l1.57.87a.25.25,0,0,0,.22.05c.05,0,.05-.08,0-.17l-2.74-8.22a.84.84,0,0,0-.17-.28.94.94,0,0,0-.28-.22"/></g></g></g><g class="cls-32"><g class="cls-19"><g class="cls-34"><path class="cls-21" d="M221.35,223.39a5.28,5.28,0,0,1-.91-.65,5.7,5.7,0,0,1-.78-.85,3.29,3.29,0,0,1-.48-.9.91.91,0,0,1,0-.68.4.4,0,0,1,.43-.17,2.24,2.24,0,0,1,.79.3,5,5,0,0,1,.92.65,4.65,4.65,0,0,1,.77.84,3.05,3.05,0,0,1,.49.92.86.86,0,0,1,0,.66c-.07.14-.21.2-.44.17a2.2,2.2,0,0,1-.79-.29m-1.55-4.59a6.69,6.69,0,0,0-1.64-.7,1.67,1.67,0,0,0-1,0,.76.76,0,0,0-.42.58,2.19,2.19,0,0,0,.13,1,6.09,6.09,0,0,0,.66,1.33,10.83,10.83,0,0,0,1.07,1.34,12.64,12.64,0,0,0,1.31,1.23,10.44,10.44,0,0,0,1.38,1l.13.08.38.18-1.24,1.35,0,0v.09a1,1,0,0,0,.15.25,1.41,1.41,0,0,0,.24.2l1.62.89q.22.12.3.09l.12-.06,1.42-1.61a5.54,5.54,0,0,0,.37-.45A1.52,1.52,0,0,0,225,225a2.22,2.22,0,0,0-.13-.92,6.36,6.36,0,0,0-.65-1.31,10.81,10.81,0,0,0-1.1-1.4,12.3,12.3,0,0,0-1.49-1.36,12.51,12.51,0,0,0-1.82-1.21"/></g></g></g><g class="cls-32"><g class="cls-19"><g class="cls-35"><path class="cls-21" d="M198.18,206.37a6.29,6.29,0,0,0-1.48-.63,1.73,1.73,0,0,0-1,0,.69.69,0,0,0-.44.51,1.88,1.88,0,0,0,.08.94.74.74,0,0,0,.16.23.72.72,0,0,0,.25.21l1.52.84a.61.61,0,0,0,.26.1c.07,0,.11,0,.1-.13a.83.83,0,0,1,0-.48.33.33,0,0,1,.34-.18,1.47,1.47,0,0,1,.7.25,3.83,3.83,0,0,1,1.11.87,3.2,3.2,0,0,1,.58,1,.63.63,0,0,1-.06.61,1.27,1.27,0,0,1-.67.36,13.09,13.09,0,0,1-1.29.26l-1.34.61c-.11,0-.17.08-.18.17a.58.58,0,0,0,0,.24l.25.76a.82.82,0,0,0,.18.28,1,1,0,0,0,.28.23l7.09,3.93c.11.06.18.07.23,0s.05-.08,0-.17l-.36-1.08a1,1,0,0,0-.17-.28,1.54,1.54,0,0,0-.29-.23l-3.9-2.16,1.2-.55a3.81,3.81,0,0,0,.93-.28.87.87,0,0,0,.48-.55,1.69,1.69,0,0,0-.09-1,5.9,5.9,0,0,0-.89-1.64,10.68,10.68,0,0,0-1.55-1.64,12.38,12.38,0,0,0-2.14-1.47"/></g></g></g><g class="cls-32"><g class="cls-19"><g class="cls-36"><path class="cls-21" d="M179.92,196l-6.48-3.59a.25.25,0,0,0-.22-.05c-.05,0-.07.07,0,.16l.36,1.08a.81.81,0,0,0,.19.28.9.9,0,0,0,.27.22l4.39,2.44-1.11,4.89v.1a.93.93,0,0,0,.15.24,1.06,1.06,0,0,0,.24.2l1.56.86c.16.09.26.12.31.08a.24.24,0,0,0,.08-.1l1.12-4.87a.36.36,0,0,0,0-.18,1.67,1.67,0,0,0-.07-.29l-.32-1a1,1,0,0,0-.16-.27,1.17,1.17,0,0,0-.3-.24"/></g></g></g><g class="cls-32"><g class="cls-19"><g class="cls-37"><path class="cls-21" d="M154.87,181.64a6.29,6.29,0,0,0-1.48-.63,1.64,1.64,0,0,0-1,0,.7.7,0,0,0-.45.51,1.72,1.72,0,0,0,.1.94.65.65,0,0,0,.14.23.86.86,0,0,0,.26.21l1.51.84a.86.86,0,0,0,.26.1c.08,0,.11,0,.11-.13a.82.82,0,0,1,0-.48.32.32,0,0,1,.33-.19,1.63,1.63,0,0,1,.71.26,3.78,3.78,0,0,1,1.1.87,3,3,0,0,1,.58,1,.61.61,0,0,1,0,.61,1.27,1.27,0,0,1-.66.36c-.33.09-.76.17-1.3.26l-1.34.61c-.12,0-.18.08-.18.17a.61.61,0,0,0,0,.24l.25.76a1,1,0,0,0,.17.28,1.05,1.05,0,0,0,.29.23l7.09,3.93a.26.26,0,0,0,.22.05s.06-.08,0-.17l-.36-1.07a.92.92,0,0,0-.18-.29,1.23,1.23,0,0,0-.28-.23l-3.9-2.16,1.19-.55a3.74,3.74,0,0,0,.94-.29.86.86,0,0,0,.47-.54,1.72,1.72,0,0,0-.09-1,6.06,6.06,0,0,0-.89-1.64,10.09,10.09,0,0,0-1.54-1.63,13.87,13.87,0,0,0-2.14-1.47"/></g></g></g></g></svg>