<svg xmlns="http://www.w3.org/2000/svg" xmlns:xlink="http://www.w3.org/1999/xlink" viewBox="0 0 426 426"><defs><style>.cls-1,.cls-16,.cls-17{fill:none;}.cls-2,.cls-6{fill:#00273d;}.cls-3{clip-path:url(#clip-path);}.cls-4{fill:url(#linear-gradient);}.cls-5{fill:url(#linear-gradient-2);}.cls-6{fill-opacity:0.15;}.cls-7{fill:url(#linear-gradient-3);}.cls-8{fill:url(#linear-gradient-4);}.cls-9{fill:url(#linear-gradient-5);}.cls-10{fill:#0071b0;}.cls-11{fill:url(#linear-gradient-6);}.cls-12,.cls-38,.cls-39{fill:#005584;}.cls-12{fill-opacity:0.25;}.cls-13{clip-path:url(#clip-path-2);}.cls-14{fill:url(#linear-gradient-7);}.cls-15{fill:url(#linear-gradient-8);}.cls-16,.cls-17{stroke:#1da1dc;stroke-linecap:round;stroke-miterlimit:10;stroke-width:2.27px;}.cls-17{stroke-opacity:0.5;}.cls-18{opacity:0.9;}.cls-19{isolation:isolate;}.cls-20{clip-path:url(#clip-path-3);}.cls-21{fill:#d3f5ff;}.cls-22{clip-path:url(#clip-path-4);}.cls-23{clip-path:url(#clip-path-5);}.cls-24{clip-path:url(#clip-path-6);}.cls-25{clip-path:url(#clip-path-7);}.cls-26{opacity:0.75;}.cls-27{clip-path:url(#clip-path-8);}.cls-28{clip-path:url(#clip-path-9);}.cls-29{clip-path:url(#clip-path-10);}.cls-30{clip-path:url(#clip-path-11);}.cls-31{clip-path:url(#clip-path-12);}.cls-32{opacity:0.5;}.cls-33{clip-path:url(#clip-path-13);}.cls-34{clip-path:url(#clip-path-14);}.cls-35{clip-path:url(#clip-path-15);}.cls-36{clip-path:url(#clip-path-16);}.cls-37{clip-path:url(#clip-path-17);}.cls-38{fill-opacity:0.2;}.cls-40{fill:url(#linear-gradient-9);}.cls-41{fill:url(#linear-gradient-10);}.cls-42{fill:url(#linear-gradient-11);}.cls-43{fill:url(#New_Gradient_Swatch_1);}.cls-44{opacity:0.28;}.cls-45{fill:#90e5ff;}.cls-46{fill:#58d1ed;}.cls-47{fill:url(#linear-gradient-12);}</style><clipPath id="clip-path"><path class="cls-1" d="M26.06,54.63,12,57.72C10.78,57,0,32.42,0,30.8L12.74,2.06c0-1.62,13.18.17,14.4.87L34.6,7.24a5.27,5.27,0,0,1,2.21,4.21V48.61C36.81,50.23,27.27,55.33,26.06,54.63Z"/></clipPath><linearGradient id="linear-gradient" x1="40.29" y1="4.18" x2="16.79" y2="43.62" gradientUnits="userSpaceOnUse"><stop offset="0" stop-color="#005584"/><stop offset="0.1" stop-color="#005584"/><stop offset="0.14" stop-color="#006ba7"/><stop offset="0.15" stop-color="#0071b0"/><stop offset="0.46" stop-color="#0071b0"/><stop offset="0.49" stop-color="#0c85c3"/><stop offset="0.51" stop-color="#1da1dc"/><stop offset="0.78" stop-color="#1da1dc"/><stop offset="0.82" stop-color="#0071b0"/><stop offset="0.99" stop-color="#00273d"/></linearGradient><linearGradient id="linear-gradient-2" x1="13.44" y1="27.49" x2="45.6" y2="27.49" gradientUnits="userSpaceOnUse"><stop offset="0" stop-color="#0071b0"/><stop offset="0.25" stop-color="#006197"/><stop offset="0.79" stop-color="#003756"/><stop offset="0.99" stop-color="#00273d"/></linearGradient><linearGradient id="linear-gradient-3" x1="121.6" y1="122.42" x2="308.37" y2="222.95" gradientUnits="userSpaceOnUse"><stop offset="0" stop-color="#1da1dc"/><stop offset="0.15" stop-color="#1c9fda"/><stop offset="0.21" stop-color="#1798d4"/><stop offset="0.26" stop-color="#108bc8"/><stop offset="0.3" stop-color="#057ab8"/><stop offset="0.31" stop-color="#0071b0"/><stop offset="0.84" stop-color="#1da1dc"/><stop offset="0.95" stop-color="#0071b0"/></linearGradient><linearGradient id="linear-gradient-4" x1="261.66" y1="141.33" x2="173.77" y2="291.72" gradientUnits="userSpaceOnUse"><stop offset="0" stop-color="#39c2ec"/><stop offset="0.12" stop-color="#39c2ec"/><stop offset="0.36" stop-color="#1da1dc"/><stop offset="0.92" stop-color="#005584"/><stop offset="1" stop-color="#0071b0"/></linearGradient><linearGradient id="linear-gradient-5" x1="87.76" y1="177.37" x2="257.87" y2="268.94" gradientUnits="userSpaceOnUse"><stop offset="0" stop-color="#1da1dc"/><stop offset="0.15" stop-color="#1c9fda"/><stop offset="0.21" stop-color="#1798d4"/><stop offset="0.25" stop-color="#108bc8"/><stop offset="0.29" stop-color="#057ab8"/><stop offset="0.31" stop-color="#0071b0"/><stop offset="0.33" stop-color="#1da1dc"/><stop offset="0.8" stop-color="#1da1dc"/><stop offset="0.89" stop-color="#0071b0"/></linearGradient><linearGradient id="linear-gradient-6" x1="214.27" y1="192.56" x2="159.7" y2="289.67" gradientUnits="userSpaceOnUse"><stop offset="0" stop-color="#39c2ec"/><stop offset="0.36" stop-color="#39c2ec"/><stop offset="0.74" stop-color="#1da1dc"/><stop offset="0.82" stop-color="#1899d5"/><stop offset="0.93" stop-color="#0b83c1"/><stop offset="1" stop-color="#0071b0"/></linearGradient><clipPath id="clip-path-2"><path class="cls-1" d="M303.72,168.43V304.19c0,6.06-4.59,13.46-9.88,16.51l-20.8,12c-5,2.9-9.15.84-9.55-4.57V225.5c0-9.69-6.85-21.51-15.32-26.39L187.3,164c-4.35-2.52-8.45-2.76-11.33-.8l-9.18,5.21a7.09,7.09,0,0,0-3,2.27l-6.17,7.69-.25.32a15.53,15.53,0,0,1-5-1.93l-29.76-17.18c-4.21-2.44-8-2.69-10.8-1.12h0l0,0L101.86,164l3.38-107Z"/></clipPath><linearGradient id="linear-gradient-7" x1="165.5" y1="89.14" x2="308.7" y2="301.06" gradientUnits="userSpaceOnUse"><stop offset="0" stop-color="#90e5ff"/><stop offset="0.51" stop-color="#90e5ff"/><stop offset="0.55" stop-color="#72d9f8"/><stop offset="0.61" stop-color="#49c8ef"/><stop offset="0.64" stop-color="#39c2ec"/><stop offset="0.9" stop-color="#39c2ec"/><stop offset="1" stop-color="#1da1dc"/></linearGradient><linearGradient id="linear-gradient-8" x1="206.74" y1="151.7" x2="189.51" y2="225.46" gradientUnits="userSpaceOnUse"><stop offset="0.03" stop-color="#d3f5ff"/><stop offset="1" stop-color="#90e5ff"/></linearGradient><clipPath id="clip-path-3"><polygon class="cls-1" points="169.43 266.42 171.93 254.36 179.32 258.37 176.83 270.44 169.43 266.42"/></clipPath><clipPath id="clip-path-4"><polygon class="cls-1" points="149.59 255.07 152.08 243 159.62 247.09 157.12 259.15 149.59 255.07"/></clipPath><clipPath id="clip-path-5"><polygon class="cls-1" points="130.65 244.1 133.07 232.37 138.27 235.19 135.85 246.92 130.65 244.1"/></clipPath><clipPath id="clip-path-6"><polygon class="cls-1" points="91.18 221.49 93.61 209.75 98.8 212.56 96.37 224.3 91.18 221.49"/></clipPath><clipPath id="clip-path-7"><polygon class="cls-1" points="110.21 232.45 112.67 220.55 120.22 224.65 117.76 236.55 110.21 232.45"/></clipPath><clipPath id="clip-path-8"><polygon class="cls-1" points="176.72 244.76 184.02 234.53 191.22 238.52 183.92 248.75 176.72 244.76"/></clipPath><clipPath id="clip-path-9"><polygon class="cls-1" points="157.39 233.61 164.59 223.52 171.06 227.11 163.86 237.2 157.39 233.61"/></clipPath><clipPath id="clip-path-10"><polygon class="cls-1" points="137.21 222.28 144.62 211.9 151.81 215.88 144.39 226.26 137.21 222.28"/></clipPath><clipPath id="clip-path-11"><polygon class="cls-1" points="97.82 199.72 105.23 189.34 112.42 193.32 105 203.7 97.82 199.72"/></clipPath><clipPath id="clip-path-12"><polygon class="cls-1" points="117.62 210.96 124.94 200.71 132.12 204.69 124.8 214.94 117.62 210.96"/></clipPath><clipPath id="clip-path-13"><polygon class="cls-1" points="173.01 284.31 170.33 276.26 175.44 279.1 178.12 287.14 173.01 284.31"/></clipPath><clipPath id="clip-path-14"><polygon class="cls-1" points="152.86 272.82 150.14 264.65 157.43 268.69 160.15 276.86 152.86 272.82"/></clipPath><clipPath id="clip-path-15"><polygon class="cls-1" points="133.26 261.57 130.53 253.38 137.62 257.31 140.35 265.5 133.26 261.57"/></clipPath><clipPath id="clip-path-16"><polygon class="cls-1" points="113.95 250.52 111.27 242.47 117.81 246.1 120.5 254.15 113.95 250.52"/></clipPath><clipPath id="clip-path-17"><polygon class="cls-1" points="93.88 239.08 91.15 230.9 98.24 234.83 100.97 243.01 93.88 239.08"/></clipPath><linearGradient id="linear-gradient-9" x1="289.57" y1="291.52" x2="277.95" y2="270.63" gradientUnits="userSpaceOnUse"><stop offset="0.08" stop-color="#0071b0"/><stop offset="0.08" stop-color="#0071b0" stop-opacity="0.98"/><stop offset="0.15" stop-color="#0071b0" stop-opacity="0.75"/><stop offset="0.22" stop-color="#0071b0" stop-opacity="0.55"/><stop offset="0.29" stop-color="#0071b0" stop-opacity="0.38"/><stop offset="0.38" stop-color="#0071b0" stop-opacity="0.24"/><stop offset="0.47" stop-color="#0071b0" stop-opacity="0.13"/><stop offset="0.58" stop-color="#0071b0" stop-opacity="0.06"/><stop offset="0.72" stop-color="#0071b0" stop-opacity="0.01"/><stop offset="1" stop-color="#0071b0" stop-opacity="0"/></linearGradient><linearGradient id="linear-gradient-10" x1="310.56" y1="235.91" x2="325.72" y2="236.94" gradientUnits="userSpaceOnUse"><stop offset="0" stop-color="#005584"/><stop offset="0" stop-color="#005584" stop-opacity="0.99"/><stop offset="0.08" stop-color="#005584" stop-opacity="0.73"/><stop offset="0.17" stop-color="#005584" stop-opacity="0.5"/><stop offset="0.27" stop-color="#005584" stop-opacity="0.32"/><stop offset="0.38" stop-color="#005584" stop-opacity="0.18"/><stop offset="0.51" stop-color="#005584" stop-opacity="0.08"/><stop offset="0.67" stop-color="#005584" stop-opacity="0.02"/><stop offset="1" stop-color="#005584" stop-opacity="0"/></linearGradient><linearGradient id="linear-gradient-11" x1="197.96" y1="291.16" x2="188.37" y2="273.92" xlink:href="#linear-gradient-9"/><linearGradient id="New_Gradient_Swatch_1" x1="225.03" y1="342.49" x2="183.25" y2="276.32" gradientUnits="userSpaceOnUse"><stop offset="0" stop-color="#005584"/><stop offset="0.21" stop-color="#004870"/><stop offset="0.29" stop-color="#004e79"/><stop offset="0.47" stop-color="#005888"/><stop offset="0.68" stop-color="#005d91"/><stop offset="1" stop-color="#005f94"/></linearGradient><linearGradient id="linear-gradient-12" x1="158.03" y1="351.63" x2="186.44" y2="303.51" gradientUnits="userSpaceOnUse"><stop offset="0" stop-color="#005584"/><stop offset="1" stop-color="#1da1dc"/></linearGradient><symbol id="Wheel_3" data-name="Wheel 3" viewBox="0 0 42.53 57.72"><path class="cls-2" d="M34.6,50.28,27.14,46a5.27,5.27,0,0,1-2.21-4.21V4.6c0-1.62,1-2.37,2.21-1.67L34.6,7.24a5.27,5.27,0,0,1,2.21,4.21V48.61C36.81,50.23,35.82,51,34.6,50.28Z"/><g class="cls-3"><path class="cls-4" d="M42.53,5.51,33.08,0,28.27,2.77a3.73,3.73,0,0,0-1.18,1.09L18.71,15.71A3.85,3.85,0,0,0,18.13,17L15,29.84a3.68,3.68,0,0,0,.1,2.08l2.58,7.56a3.64,3.64,0,0,0,1.22,1.69l0,0,.24.14a2.8,2.8,0,0,0,.43.27l9,5.59,1.51-4.79,3.29-1.9Z"/><path id="GradSideWheel" class="cls-5" d="M42.53,5.51,37.44,8.45a3.73,3.73,0,0,0-1.19,1.08L27.88,21.39a3.8,3.8,0,0,0-.58,1.28L24.21,35.52a3.68,3.68,0,0,0,.09,2.08l2.58,7.56a3.74,3.74,0,0,0,2.61,2.41l7.35,1.89,5.69-3.28Z"/></g></symbol></defs><g id="Folder"><path id="Shadow" class="cls-6" d="M246.21,349.86,108.45,270.34c-10.32-6-9-16.38,2.9-23.26l7.73-4.47c11.93-6.88,30-7.63,40.29-1.67l137.76,79.52c10.33,6,9,16.38-2.89,23.26l-7.74,4.47C274.58,355.07,256.54,355.82,246.21,349.86Z"/><path id="FS2" class="cls-7" d="M298.54,178.94,236.9,143.35c-5.27-3-10.17-9-13-15.71l-8.29-19.9c-2.8-6.74-7.7-12.67-13-15.71L172.92,74.85c-4.4-2.54-8.36-2.69-11.15-.89v0L152,80,313.85,301.11V205.34C313.85,195.64,307,183.82,298.54,178.94Z"/><path id="FInside" class="cls-8" d="M213.8,133.91,205.51,114c-2.8-6.73-7.7-12.66-13-15.7L162.79,81.12c-8.46-4.89-15.32-1-15.32,8.71v145l115,106.51,41.28-20.95V211.6c0-9.69-6.85-21.51-15.31-26.39l-61.64-35.59C221.5,146.58,216.6,140.64,213.8,133.91Z"/><path id="FS1" class="cls-9" d="M248.18,199.11,187.3,164c-4.35-2.51-8.45-2.75-11.33-.79l-9.18,5.21,2.31,2.84L165.28,176c-2.8,3.49-7.7,3.77-13,.73l-29.76-17.18c-4.21-2.44-8-2.69-10.8-1.13h0l-9.92,5.62,5.45,8.34v76.35L263.49,339V225.5C263.49,215.81,256.63,204,248.18,199.11Z"/><path id="FR" class="cls-10" d="M303.75,234.22l0,70c0,6.06-4.59,13.46-9.88,16.51l-20.8,12c-5.29,3-9.58.6-9.58-5.46V257.77L253,263.82l-2.35,68.45c0,6,4.38,11.4,7.71,13.59l.84.49c3.61,1.89,8.49,1.49,13.87-1.62l20.8-12C306,326.49,314.76,311,313.9,298.14V228.3Z"/><path id="FFront" class="cls-11" d="M258.33,345.86c-3.33-2.19-5.44-6.56-5.44-12.59h0V231.46c0-9.7-6.85-21.51-15.31-26.4l-60.87-35.15c-5.27-3-10.17-2.76-13,.74l-6.17,7.69L154.68,182a7.79,7.79,0,0,1-7.58,2.72,15.33,15.33,0,0,1-5.38-2L112,165.5a15.84,15.84,0,0,0-4.84-1.9c-6.1-1.19-10.48,2.86-10.48,10.61v68c0,5.93,2,10.18,5.15,12.41h0l1.35.78,0,0,149.69,87.3h0Z"/><path class="cls-12" d="M309.49,190.53l-10.4,5.82V306.1a10.73,10.73,0,0,1-5.23,9.22l-29,16.9L286.46,172l12.08,7A31.47,31.47,0,0,1,309.49,190.53Z"/><path class="cls-12" d="M210.49,167.57l-47.29-27.3c-3.92-2.27-7.1-8.34-7.1-13.57V96.55c0-5.23,3.18-7.63,7.1-5.37l43.47,25.62,10.41-5.62,10,23.2C227.06,139.6,214.41,169.83,210.49,167.57Z"/></g><g id="Papers"><g id="Paper"><g class="cls-13"><g id="Spaper"><path id="Pside" class="cls-14" d="M286.82,165.05,162.6,93.33c-2.83-1.63-5.38-1.78-7.23-.71l-34.54,20.07c1.85-1.07,140.07,220.68,138.25,221.74l34.54-20.08c1.82-1.06,2.95-3.31,3-6.51l.36-125.27C297,176.13,292.43,168.28,286.82,165.05Z"/><path id="Pfront" class="cls-15" d="M252.28,185.12c5.61,3.24,10.14,11.08,10.12,17.52L262,327.92c0,6.43-4.57,9-10.18,5.8L127.64,262c-5.61-3.24-10.14-11.09-10.12-17.53l.35-125.27c0-6.45,4.58-9,10.19-5.81Z"/><path id="DividerCopy" class="cls-16" d="M272.13,188.89a19,19,0,0,1,1.59,7.22l-.36,126.72"/><path id="Divider1Copy" class="cls-16" d="M283.47,181.66a19.51,19.51,0,0,1,1.92,8L285,315.41"/><path id="Divider2" class="cls-17" d="M139.43,106.9,263.6,178.58a21.78,21.78,0,0,1,8.36,9.91"/><path id="Divider1" class="cls-17" d="M150.08,99.84l125.19,72.27a21.71,21.71,0,0,1,8.2,9.55"/><path id="FFront-2" data-name="FFront" class="cls-12" d="M270.76,338.44c-3.33-2.19-5.44-6.56-5.44-12.6h0V224c0-9.7-6.85-21.51-15.31-26.4l-55.48-31.89c-5.27-3-10.17-2.76-13,.74l-6.17,7.69-2.89,3.61a7.76,7.76,0,0,1-7.58,2.71,15.29,15.29,0,0,1-5.38-2l-29.76-17.18a15.84,15.84,0,0,0-4.84-1.9c-6.1-1.19-10.48,2.86-10.48,10.61v68c0,5.92,2,10.18,5.16,12.4,0,0,0,0,0,0l1.35.79,0,0,144.3,84h0Z"/></g></g></g></g><g id="Lock-2" data-name="Lock"><use width="42.53" height="57.72" transform="translate(64.45 177.94) scale(1.48)" xlink:href="#Wheel_3"/><use width="42.53" height="57.72" transform="translate(84.16 189.22) scale(1.48)" xlink:href="#Wheel_3"/><use width="42.53" height="57.72" transform="translate(103.86 200.5) scale(1.48)" xlink:href="#Wheel_3"/><use width="42.53" height="57.72" transform="translate(123.57 211.77) scale(1.48)" xlink:href="#Wheel_3"/><use width="42.53" height="57.72" transform="translate(143.27 223.05) scale(1.48)" xlink:href="#Wheel_3"/><g class="cls-18"><g class="cls-19"><g class="cls-20"><path class="cls-21" d="M173.58,266.25a2,2,0,0,1-1-1.25,4.42,4.42,0,0,1,0-1.93c.06-.33.12-.67.19-1l.21-1,.22-1a3,3,0,0,1,.73-1.49,1,1,0,0,1,1.27-.05,2,2,0,0,1,1,1.27,4.51,4.51,0,0,1,0,1.91c-.06.3-.12.63-.18,1s-.14.7-.22,1-.15.67-.22,1a3,3,0,0,1-.74,1.51,1,1,0,0,1-1.26,0m2-9.89a3.86,3.86,0,0,0-1.68-.53,2.18,2.18,0,0,0-1.32.34,2.76,2.76,0,0,0-1,1,5.86,5.86,0,0,0-.62,1.59c-.07.31-.15.65-.23,1s-.16.75-.24,1.13-.13.72-.19,1a9.16,9.16,0,0,0-.1,1.88,6.07,6.07,0,0,0,.37,1.79,5.09,5.09,0,0,0,.93,1.56,5.45,5.45,0,0,0,1.56,1.23,3.9,3.9,0,0,0,1.69.53,2.21,2.21,0,0,0,1.32-.34,3,3,0,0,0,1-1.07,6,6,0,0,0,.63-1.59c.07-.29.15-.62.23-1l.23-1.14c.08-.38.14-.73.2-1.05a7.9,7.9,0,0,0,.08-1.88,5.9,5.9,0,0,0-.39-1.77,5.09,5.09,0,0,0-.93-1.56,5.19,5.19,0,0,0-1.53-1.21"/></g></g></g><g class="cls-18"><g class="cls-19"><g class="cls-22"><path class="cls-21" d="M153.75,255.18a2.87,2.87,0,0,1-.81-.66,2.75,2.75,0,0,1-.48-.93,2.08,2.08,0,0,1,0-1,1.37,1.37,0,0,1,.42-.8,1.19,1.19,0,0,1,.72-.26,1.92,1.92,0,0,1,.9.25,2.73,2.73,0,0,1,.8.68,2.35,2.35,0,0,1,.48.91,2,2,0,0,1,0,1,1.38,1.38,0,0,1-.4.79,1.11,1.11,0,0,1-.73.27,1.84,1.84,0,0,1-.89-.26m1.08-5.24a2.42,2.42,0,0,1-.72-.59,2.1,2.1,0,0,1-.41-.8,1.87,1.87,0,0,1,0-.88A1.2,1.2,0,0,1,154,247a.88.88,0,0,1,.62-.23,1.69,1.69,0,0,1,.8.23,2.3,2.3,0,0,1,1.14,1.39,1.87,1.87,0,0,1,0,.88,1.06,1.06,0,0,1-.36.65,1,1,0,0,1-.63.23,1.74,1.74,0,0,1-.79-.2m1-4.9a4.06,4.06,0,0,0-2-.59,1.91,1.91,0,0,0-1.39.55,2.77,2.77,0,0,0-.74,1.48,3.9,3.9,0,0,0,0,1.52,4.06,4.06,0,0,0,.52,1.38,2,2,0,0,0-1.17.58,2.75,2.75,0,0,0-.71,1.45,4.68,4.68,0,0,0-.06,1.58,4.57,4.57,0,0,0,.47,1.54,5.5,5.5,0,0,0,1,1.43,6.78,6.78,0,0,0,1.57,1.15,4.49,4.49,0,0,0,2.18.65,2.13,2.13,0,0,0,1.54-.61,3.14,3.14,0,0,0,.8-1.63,4.21,4.21,0,0,0,0-1.87,4,4,0,0,0-.74-1.61,1.75,1.75,0,0,0,.93-.6,3.11,3.11,0,0,0,.53-1.26,4.35,4.35,0,0,0,0-1.9,4.76,4.76,0,0,0-.9-1.78,5.72,5.72,0,0,0-1.81-1.46"/></g></g></g><g class="cls-18"><g class="cls-19"><g class="cls-23"><path class="cls-21" d="M138,235l-1.41-.76-.16-.07-.18,0-3.62,1.31a.31.31,0,0,0-.2.19.73.73,0,0,0,0,.36l.43,1.44a.68.68,0,0,0,.19.31l.05,0a.22.22,0,0,0,.21,0l2.29-.82-1.72,8.33a.53.53,0,0,0,0,.35.48.48,0,0,0,.21.25l1.46.78a.21.21,0,0,0,.24,0,.35.35,0,0,0,.16-.25l2.25-10.9a.6.6,0,0,0,0-.35.54.54,0,0,0-.2-.24"/></g></g></g><g class="cls-18"><g class="cls-19"><g class="cls-24"><path class="cls-21" d="M98.48,212.39l-1.4-.76-.17-.06h-.17l-3.63,1.31a.29.29,0,0,0-.19.2.59.59,0,0,0,0,.35l.44,1.45a.64.64,0,0,0,.18.3l.06,0a.2.2,0,0,0,.2,0l2.29-.83-1.72,8.34a.61.61,0,0,0,0,.35.43.43,0,0,0,.22.24l1.45.79a.25.25,0,0,0,.25,0,.4.4,0,0,0,.15-.25L98.71,213a.56.56,0,0,0,0-.36.48.48,0,0,0-.2-.24"/></g></g></g><g class="cls-18"><g class="cls-19"><g class="cls-25"><path class="cls-21" d="M114.44,232.34a2.24,2.24,0,0,1-.75-.66,2.7,2.7,0,0,1-.46-1,2.79,2.79,0,0,1,0-1.22,1.83,1.83,0,0,1,.45-1,1.12,1.12,0,0,1,.73-.35,1.51,1.51,0,0,1,.85.21,2.21,2.21,0,0,1,.76.67,2.51,2.51,0,0,1,.46,1,2.79,2.79,0,0,1,0,1.22,2,2,0,0,1-.45,1,1.1,1.1,0,0,1-.74.35,1.53,1.53,0,0,1-.85-.21m3.61-8.87-1.48-.8a.31.31,0,0,0-.32,0l-.21.11-3.23,2.8-.42.41q-.24.25-.51.6a5.56,5.56,0,0,0-.49.79,4.34,4.34,0,0,0-.32.94,5.4,5.4,0,0,0,0,2.4,5.88,5.88,0,0,0,1,2.2,5.72,5.72,0,0,0,1.91,1.63,3.57,3.57,0,0,0,2.11.5,2.6,2.6,0,0,0,1.62-.83,3.87,3.87,0,0,0,.88-1.83,5.22,5.22,0,0,0,.06-1.76,6.14,6.14,0,0,0-.47-1.65,6.07,6.07,0,0,0-.89-1.4,4.63,4.63,0,0,0-1.15-1l-.25-.12-.26-.09,2.49-2.17.06-.07,0-.12a.66.66,0,0,0,0-.31.42.42,0,0,0-.18-.21"/></g></g></g><g class="cls-26"><g class="cls-19"><g class="cls-27"><path class="cls-21" d="M183.89,241.73a1.52,1.52,0,0,1-.62-.61,1.56,1.56,0,0,1-.14-.89,2.35,2.35,0,0,1,.44-1,2.77,2.77,0,0,1,.85-.8,2.11,2.11,0,0,1,1-.27,1.77,1.77,0,0,1,.91.21,1.61,1.61,0,0,1,.63.64,1.51,1.51,0,0,1,.13.88,2.41,2.41,0,0,1-.45,1,2.71,2.71,0,0,1-.84.79,2.11,2.11,0,0,1-1,.27,1.69,1.69,0,0,1-.91-.23m3.71-5.22a4.34,4.34,0,0,0-1.78-.56,4.29,4.29,0,0,0-1.68.19,4.59,4.59,0,0,0-1.49.77,5.11,5.11,0,0,0-1.16,1.16,4.56,4.56,0,0,0-.71,1.48,3.48,3.48,0,0,0-.07,1.43,3.13,3.13,0,0,0,1.46,2.18l.09.05a2,2,0,0,0,.4.16l-3.9,1.82-.08.06-.1.1a.36.36,0,0,0-.08.27.24.24,0,0,0,.12.2l1.46.8a.49.49,0,0,0,.37.06l.27-.09,4.56-2.15,1.22-.62a8.08,8.08,0,0,0,1.21-.75,5,5,0,0,0,1-1.08,4.76,4.76,0,0,0,.73-1.46,3.47,3.47,0,0,0,.09-1.5,3,3,0,0,0-.59-1.38,4.15,4.15,0,0,0-1.37-1.14"/></g></g></g><g class="cls-26"><g class="cls-19"><g class="cls-28"><path class="cls-21" d="M170.74,226.93l-5.82-3.23a.39.39,0,0,0-.3,0,.53.53,0,0,0-.28.21l-.88,1.22a.43.43,0,0,0-.08.3.3.3,0,0,0,.16.23l3.94,2.19-8.54,6-.12.12a.37.37,0,0,0-.08.26.24.24,0,0,0,.13.2l1.4.78a.45.45,0,0,0,.39,0,1.71,1.71,0,0,0,.3-.14l8.49-6a2.37,2.37,0,0,0,.3-.23,2.63,2.63,0,0,0,.28-.33l.77-1.08a.41.41,0,0,0,.1-.31.26.26,0,0,0-.16-.23"/></g></g></g><g class="cls-26"><g class="cls-19"><g class="cls-29"><path class="cls-21" d="M142.14,222.4a1.18,1.18,0,0,1-.7-1.15,3.48,3.48,0,0,1,.69-1.69l.59-.88.64-.9L144,217a4.22,4.22,0,0,1,1.4-1.25,1.55,1.55,0,0,1,1.52,0,1.21,1.21,0,0,1,.68,1.18,3.48,3.48,0,0,1-.67,1.66l-.57.85-.64.89c-.22.3-.43.58-.65.86a3.91,3.91,0,0,1-1.43,1.28,1.56,1.56,0,0,1-1.48-.06m6.08-8.51a4.56,4.56,0,0,0-1.78-.57,4,4,0,0,0-1.68.21,4.85,4.85,0,0,0-1.52.84,7.69,7.69,0,0,0-1.32,1.35c-.2.26-.42.55-.65.88l-.7,1c-.23.33-.43.62-.6.89a7.33,7.33,0,0,0-.82,1.63,3.87,3.87,0,0,0-.23,1.58,2.85,2.85,0,0,0,.51,1.43,3.8,3.8,0,0,0,1.38,1.17,4.38,4.38,0,0,0,1.78.58,4.12,4.12,0,0,0,1.68-.21,5.42,5.42,0,0,0,1.52-.87,8.45,8.45,0,0,0,1.32-1.35c.2-.26.42-.54.65-.86s.46-.64.69-1,.44-.62.62-.9a7.22,7.22,0,0,0,.8-1.63,4,4,0,0,0,.2-1.58,3.09,3.09,0,0,0-.51-1.42,3.78,3.78,0,0,0-1.34-1.16"/></g></g></g><g class="cls-26"><g class="cls-19"><g class="cls-30"><path class="cls-21" d="M102.75,199.84a1.19,1.19,0,0,1-.7-1.16,3.55,3.55,0,0,1,.69-1.69l.59-.88.64-.89c.22-.29.42-.57.62-.82a4.16,4.16,0,0,1,1.4-1.26,1.58,1.58,0,0,1,1.52,0,1.21,1.21,0,0,1,.68,1.18,3.52,3.52,0,0,1-.67,1.66l-.58.85-.63.89-.64.86a4.31,4.31,0,0,1-1.44,1.28,1.56,1.56,0,0,1-1.48-.06m6.08-8.51a4.25,4.25,0,0,0-1.78-.57,4.14,4.14,0,0,0-1.68.2,5.09,5.09,0,0,0-1.52.85,7.29,7.29,0,0,0-1.32,1.34c-.2.27-.42.56-.65.89s-.47.65-.7,1-.42.62-.61.88a7.56,7.56,0,0,0-.81,1.64,3.82,3.82,0,0,0-.23,1.57,2.79,2.79,0,0,0,.51,1.43,3.86,3.86,0,0,0,1.37,1.18,4.47,4.47,0,0,0,1.79.58,3.83,3.83,0,0,0,1.68-.22,5.25,5.25,0,0,0,1.52-.86,8.45,8.45,0,0,0,1.32-1.35c.2-.26.41-.55.64-.87s.47-.64.7-1l.62-.9a7.09,7.09,0,0,0,.8-1.64,3.93,3.93,0,0,0,.2-1.57,2.94,2.94,0,0,0-.51-1.42,3.78,3.78,0,0,0-1.34-1.16"/></g></g></g><g class="cls-26"><g class="cls-19"><g class="cls-31"><path class="cls-21" d="M131.22,204.19l-5-2.76a.44.44,0,0,0-.34,0,.72.72,0,0,0-.36.24l-4,4.72a.34.34,0,0,0-.07.27.27.27,0,0,0,.12.21l1.43.79a.52.52,0,0,0,.33,0,3.92,3.92,0,0,0,.41-.07,1.38,1.38,0,0,1,.5,0,1.64,1.64,0,0,1,.61.21,1.58,1.58,0,0,1,.64.64,1.43,1.43,0,0,1,.14.87,2.22,2.22,0,0,1-.4.94,2.61,2.61,0,0,1-.87.8,1.89,1.89,0,0,1-1,.27,1.82,1.82,0,0,1-.89-.23,1.46,1.46,0,0,1-.53-.45,1.34,1.34,0,0,1-.24-.64,2.29,2.29,0,0,1,.11-.82.58.58,0,0,0,0-.29.38.38,0,0,0-.2-.22l-1.45-.8a.31.31,0,0,0-.25,0,.46.46,0,0,0-.24.17,3.58,3.58,0,0,0-.59,1.68,3,3,0,0,0,.4,1.76,4.19,4.19,0,0,0,1.65,1.49,4.72,4.72,0,0,0,2.24.63,4.16,4.16,0,0,0,2.12-.54,5.07,5.07,0,0,0,1.74-1.57A4.33,4.33,0,0,0,128,210a3.38,3.38,0,0,0,.05-1.41,3,3,0,0,0-1.55-2.08,3.36,3.36,0,0,0-1.17-.44,3.68,3.68,0,0,0-.87,0l1.71-2,3.71,2.06a.35.35,0,0,0,.3,0,.48.48,0,0,0,.27-.2l.82-1.15a.42.42,0,0,0,.1-.3.3.3,0,0,0-.16-.24"/></g></g></g><g class="cls-32"><g class="cls-19"><g class="cls-33"><path class="cls-21" d="M175.13,278.92l-1.38-.76a.71.71,0,0,0-.16-.07l-.13,0-2.29.38a.08.08,0,0,0-.08.11.72.72,0,0,0,.14.25l.9,1.11a1.12,1.12,0,0,0,.25.24l.06,0a.28.28,0,0,0,.17,0l1.44-.24,1.91,5.72a.61.61,0,0,0,.17.26.76.76,0,0,0,.25.2l1.43.8a.23.23,0,0,0,.2,0s.05-.07,0-.15l-2.5-7.48a.67.67,0,0,0-.15-.25,1.46,1.46,0,0,0-.25-.21"/></g></g></g><g class="cls-32"><g class="cls-19"><g class="cls-34"><path class="cls-21" d="M155.16,270.83a4.72,4.72,0,0,1-.83-.59,4.64,4.64,0,0,1-.7-.77,2.86,2.86,0,0,1-.44-.82.78.78,0,0,1,0-.61.36.36,0,0,1,.4-.16,2.32,2.32,0,0,1,.72.27,5.51,5.51,0,0,1,.83.59,4.56,4.56,0,0,1,.7.77,2.94,2.94,0,0,1,.45.83.79.79,0,0,1,0,.6c-.06.13-.19.19-.4.16a2,2,0,0,1-.72-.27m-1.41-4.17a5.52,5.52,0,0,0-1.49-.63,1.48,1.48,0,0,0-.92,0,.69.69,0,0,0-.38.53,2.22,2.22,0,0,0,.12.91,5.66,5.66,0,0,0,.6,1.21,9.7,9.7,0,0,0,1,1.22,12.61,12.61,0,0,0,1.19,1.12,9.73,9.73,0,0,0,1.25.87l.12.07a3.4,3.4,0,0,0,.34.16l-1.13,1.23v.12a.74.74,0,0,0,.13.22.76.76,0,0,0,.23.18l1.47.82c.13.07.22.1.27.08l.11-.06,1.29-1.46a4.54,4.54,0,0,0,.33-.41,1.17,1.17,0,0,0,.21-.55,2,2,0,0,0-.12-.84,5.24,5.24,0,0,0-.59-1.19,9.08,9.08,0,0,0-1-1.27,10.8,10.8,0,0,0-1.35-1.24,11.66,11.66,0,0,0-1.66-1.1"/></g></g></g><g class="cls-32"><g class="cls-19"><g class="cls-35"><path class="cls-21" d="M134.1,255.36a5.81,5.81,0,0,0-1.35-.57,1.42,1.42,0,0,0-.87,0,.64.64,0,0,0-.41.46,1.76,1.76,0,0,0,.08.85.62.62,0,0,0,.14.22.68.68,0,0,0,.23.18l1.38.77a.72.72,0,0,0,.24.09q.11,0,.09-.12a.89.89,0,0,1,0-.44.3.3,0,0,1,.3-.17,1.58,1.58,0,0,1,.65.23,3.56,3.56,0,0,1,1,.8,2.83,2.83,0,0,1,.53.9.57.57,0,0,1,0,.55,1.12,1.12,0,0,1-.61.33c-.29.08-.69.16-1.17.24l-1.22.55c-.11,0-.16.08-.17.16a.68.68,0,0,0,0,.21l.23.69a.77.77,0,0,0,.17.26.75.75,0,0,0,.26.21l6.44,3.57c.1.06.16.07.21.05s0-.07,0-.16l-.33-1a.7.7,0,0,0-.16-.25.75.75,0,0,0-.26-.21l-3.54-2,1.09-.5a3.22,3.22,0,0,0,.84-.25.8.8,0,0,0,.44-.5,1.5,1.5,0,0,0-.09-.88,5.45,5.45,0,0,0-.8-1.49,9.26,9.26,0,0,0-1.41-1.49,11.81,11.81,0,0,0-1.94-1.33"/></g></g></g><g class="cls-32"><g class="cls-19"><g class="cls-36"><path class="cls-21" d="M117.49,245.92l-5.9-3.27c-.09-.05-.15-.06-.19,0s-.07.06,0,.15l.33,1a.65.65,0,0,0,.17.25.92.92,0,0,0,.25.2l4,2.21-1,4.45v.09a.54.54,0,0,0,.14.22.77.77,0,0,0,.22.19l1.41.78c.15.08.24.11.28.07a.22.22,0,0,0,.08-.09l1-4.43a.3.3,0,0,0,0-.16,1.36,1.36,0,0,0-.06-.27l-.29-.87a1,1,0,0,0-.15-.25,1.09,1.09,0,0,0-.27-.21"/></g></g></g><g class="cls-32"><g class="cls-19"><g class="cls-37"><path class="cls-21" d="M94.71,232.87a6.19,6.19,0,0,0-1.35-.58,1.49,1.49,0,0,0-.87,0,.64.64,0,0,0-.41.46,1.71,1.71,0,0,0,.09.86.52.52,0,0,0,.13.2.72.72,0,0,0,.23.2l1.38.76a.52.52,0,0,0,.24.08c.07,0,.1,0,.09-.11a.76.76,0,0,1,0-.44c0-.11.14-.16.29-.17a1.49,1.49,0,0,1,.65.24,3.4,3.4,0,0,1,1,.79,2.83,2.83,0,0,1,.53.9.55.55,0,0,1,0,.55,1.13,1.13,0,0,1-.6.33c-.3.08-.69.16-1.18.24l-1.22.55a.18.18,0,0,0-.17.16.66.66,0,0,0,0,.21l.23.69a.73.73,0,0,0,.16.26.86.86,0,0,0,.26.21l6.44,3.57c.1.06.17.07.21,0s.05-.07,0-.16l-.32-1a.77.77,0,0,0-.17-.26.82.82,0,0,0-.25-.21l-3.55-2,1.09-.51a3.09,3.09,0,0,0,.84-.26.79.79,0,0,0,.44-.49,1.5,1.5,0,0,0-.09-.88,5.32,5.32,0,0,0-.8-1.49,8.43,8.43,0,0,0-1.41-1.48,11.43,11.43,0,0,0-1.94-1.34"/></g></g></g></g><g id="Lock2"><ellipse class="cls-38" cx="230.12" cy="263.36" rx="5.03" ry="8.71" transform="translate(-101.55 152.43) rotate(-30.36)"/><ellipse class="cls-39" cx="230.12" cy="263.36" rx="4.36" ry="7.55" transform="translate(-101.55 152.43) rotate(-30.36)"/><path class="cls-21" d="M313.85,220.47V233a36.65,36.65,0,0,1,10,3.22c3.29,1.84,7.34,4.41,7.08,8.61-.6,3-3,5.06-5.68,6.6h0l-42.7,24.82-60.53,35.19a3.09,3.09,0,0,0-1.29,2.82,9.67,9.67,0,0,0,4.38,7.59c1.4.81,2.63.75,3.43.07a3.36,3.36,0,0,1-.29.24l103.2-60a25.53,25.53,0,0,0,9.82-9.71,17.71,17.71,0,0,0,2.1-8.87C342.4,229.31,327.14,222.28,313.85,220.47Z"/><path id="GradLockMetalA" class="cls-40" d="M313.85,220.47V233a36.65,36.65,0,0,1,10,3.22c3.29,1.84,7.34,4.41,7.08,8.61-.6,3-3,5.06-5.68,6.6h0l-42.7,24.82-60.53,35.19a3.09,3.09,0,0,0-1.29,2.82,9.67,9.67,0,0,0,4.38,7.59c1.4.81,2.63.75,3.43.07a3.36,3.36,0,0,1-.29.24l103.2-60a25.53,25.53,0,0,0,9.82-9.71,17.71,17.71,0,0,0,2.1-8.87C342.4,229.31,327.14,222.28,313.85,220.47Z"/><path id="GradLockMetalACopy" class="cls-41" d="M313.85,220.47V233a36.65,36.65,0,0,1,10,3.22c3.29,1.84,7.34,4.41,7.08,8.61-.6,3,8.22,11.67,10.34,7.64a17.71,17.71,0,0,0,2.1-8.87C342.4,229.31,327.14,222.28,313.85,220.47Z"/><path class="cls-21" d="M230.14,258.31A3.11,3.11,0,0,0,227,258l-72,41.84h0a3.09,3.09,0,0,0-1.29,2.83,9.64,9.64,0,0,0,4.38,7.59c1.4.81,2.62.75,3.43.06a3.61,3.61,0,0,1-.3.25l72-41.84a3.06,3.06,0,0,0,1.28-2.82A9.64,9.64,0,0,0,230.14,258.31Z"/><path id="GradLockB" class="cls-42" d="M230.14,258.31A3.11,3.11,0,0,0,227,258l-72,41.84h0a3.09,3.09,0,0,0-1.29,2.83,9.64,9.64,0,0,0,4.38,7.59c1.4.81,2.62.75,3.43.06a3.61,3.61,0,0,1-.3.25l72-41.84a3.06,3.06,0,0,0,1.28-2.82A9.64,9.64,0,0,0,230.14,258.31Z"/><path class="cls-43" d="M248,295.8l-46.65-26.94c-3.29-1.89-6.27-2.07-8.42-.82L141.6,297.87c2.15-1.25,65.53,54.54,63.41,55.78l51.33-29.84c2.12-1.23,3.44-3.85,3.45-7.59C259.81,308.71,254.53,299.57,248,295.8Z"/><g class="cls-44"><path class="cls-45" d="M196,268.22a10,10,0,0,1,4.82,1.49l46.65,26.93c6.25,3.61,11.32,12.4,11.3,19.58,0,3.25-1.06,5.64-3,6.75l-50.41,29.29c-3.82-5.17-25.86-24.63-30.54-28.74-8-7-15.6-13.51-21.41-18.26a120.73,120.73,0,0,0-9.77-7.49l49.7-28.88a5.06,5.06,0,0,1,2.62-.67m0-1a6.05,6.05,0,0,0-3.11.8L141.6,297.87l.09,0c3.45,0,65.42,54.58,63.32,55.8l51.33-29.84c2.12-1.23,3.44-3.85,3.45-7.59,0-7.51-5.26-16.65-11.79-20.42l-46.65-26.94a10.79,10.79,0,0,0-5.31-1.62Z"/></g><path class="cls-46" d="M196,267.73a10.36,10.36,0,0,1,5.06,1.56l46.65,26.93c6.39,3.69,11.57,12.66,11.55,20,0,3.43-1.15,6-3.21,7.17L205.31,352.9c-2.63-4.26-27.77-26.41-30.73-29-4.64-4.07-26.37-23.07-31.84-26.12l50.44-29.31a5.63,5.63,0,0,1,2.86-.73m0-.49a6.05,6.05,0,0,0-3.11.8L141.6,297.87l.09,0c3.45,0,65.42,54.58,63.32,55.8l51.33-29.84c2.12-1.23,3.44-3.85,3.45-7.59,0-7.51-5.26-16.65-11.79-20.42l-46.65-26.94a10.79,10.79,0,0,0-5.31-1.62Z"/><path class="cls-47" d="M196.66,325.63c6.54,3.77,11.82,12.92,11.8,20.43s-5.34,10.53-11.87,6.76l-46.65-26.93c-6.54-3.78-11.82-12.92-11.79-20.43s5.33-10.54,11.87-6.76Z"/><g class="cls-44"><path class="cls-45" d="M144.71,298.05h0a10,10,0,0,1,4.82,1.49l46.65,26.94c6.25,3.61,11.32,12.39,11.3,19.57,0,4.58-2.15,7.42-5.58,7.42a9.87,9.87,0,0,1-4.82-1.5L150.43,325c-6.26-3.61-11.33-12.39-11.31-19.58,0-4.57,2.16-7.41,5.59-7.41m0-1c-3.88,0-6.55,3.07-6.56,8.39,0,7.51,5.25,16.65,11.79,20.43l46.65,26.93a10.79,10.79,0,0,0,5.31,1.62c3.87,0,6.54-3.07,6.56-8.38,0-7.51-5.26-16.66-11.8-20.43L150,298.7a10.74,10.74,0,0,0-5.31-1.63Z"/></g><path class="cls-46" d="M144.71,297.56h0a10.28,10.28,0,0,1,5.06,1.56l46.65,26.93c6.39,3.69,11.57,12.66,11.55,20,0,4.88-2.34,7.9-6.07,7.9a10.3,10.3,0,0,1-5.07-1.55l-46.65-26.94c-6.39-3.68-11.57-12.66-11.55-20,0-4.87,2.35-7.9,6.08-7.9m0-.49c-3.88,0-6.55,3.07-6.56,8.39,0,7.51,5.25,16.65,11.79,20.43l46.65,26.93a10.79,10.79,0,0,0,5.31,1.62c3.87,0,6.54-3.07,6.56-8.38,0-7.51-5.26-16.66-11.8-20.43L150,298.7a10.74,10.74,0,0,0-5.31-1.63Z"/></g></svg>