<svg xmlns="http://www.w3.org/2000/svg" xmlns:xlink="http://www.w3.org/1999/xlink" viewBox="0 0 2500 2500"><defs><radialGradient id="a234f4b9-0dbb-45ff-88a1-62972290ebe7" cx="-7703.38" cy="4308.44" r="62.98" gradientTransform="matrix(-0.41, 0.71, -0.41, -0.7, -1288.14, 8552.99)" gradientUnits="userSpaceOnUse"><stop offset="0" stop-color="#141226" stop-opacity="0.3"/><stop offset="1" stop-color="#141226" stop-opacity="0"/></radialGradient><filter id="ea91c2b4-cb68-45da-8e07-671cbbc7949b" name="AI_DesenfoqueGaussiano_4"><feGaussianBlur stdDeviation="4"/></filter><linearGradient id="ae99e396-de72-47d0-8b84-28474021f0e2" x1="29.03" y1="32.92" x2="247.63" y2="32.92" gradientUnits="userSpaceOnUse"><stop offset="0" stop-color="#0f0b26" stop-opacity="0.5"/><stop offset="0.48" stop-color="#0f0b26" stop-opacity="0.1"/><stop offset="1" stop-color="#0f0b26" stop-opacity="0"/></linearGradient><radialGradient id="adb07124-dfca-4b72-9c3c-9e574baf04ef" cx="2494.08" cy="-1747.42" r="44.83" gradientTransform="translate(-3438.44 1452.55) scale(1.4 0.81)" gradientUnits="userSpaceOnUse"><stop offset="0" stop-color="#0f0b26" stop-opacity="0.3"/><stop offset="1" stop-color="#0f0b26" stop-opacity="0"/></radialGradient><radialGradient id="ec920adf-aeff-40ab-a6b4-b99b09ff9d53" cx="-596.75" cy="1649.55" r="718.84" gradientTransform="matrix(-0.78, 0.43, 0.62, 0.35, -48.88, 1427.8)" gradientUnits="userSpaceOnUse"><stop offset="0" stop-color="#0f0b26" stop-opacity="0.2"/><stop offset="1" stop-color="#0f0b26" stop-opacity="0"/></radialGradient><linearGradient id="b561a172-ceb9-48b3-9733-77fc184cc7ab" x1="-786.23" y1="993.43" x2="-891.99" y2="1022.53" gradientTransform="matrix(-0.93, 0.36, 0.36, 0.93, -312.96, 259.44)" gradientUnits="userSpaceOnUse"><stop offset="0" stop-color="#52d6ff" stop-opacity="0.1"/><stop offset="0.02" stop-color="#45cffa" stop-opacity="0.1"/><stop offset="0.15" stop-color="#20bcec" stop-opacity="0.1"/><stop offset="0.87" stop-color="#0071b0" stop-opacity="0.3"/></linearGradient><linearGradient id="ac39535d-7442-453f-a4b5-948c7d37786d" x1="697.83" y1="923.54" x2="1132.48" y2="1077.1" gradientTransform="translate(-53.28 24.8) rotate(-2.88)" gradientUnits="userSpaceOnUse"><stop offset="0" stop-color="#52d6ff" stop-opacity="0"/><stop offset="0.07" stop-color="#3fccf8" stop-opacity="0.04"/><stop offset="0.22" stop-color="#28c0ef" stop-opacity="0.08"/><stop offset="0.37" stop-color="#20bcec" stop-opacity="0.1"/><stop offset="0.86" stop-color="#0071b0" stop-opacity="0.6"/></linearGradient><linearGradient id="b000535f-e2ce-4be7-a4ec-2eb38d63719a" x1="400.44" y1="1287.66" x2="933.11" y2="1466.38" xlink:href="#ac39535d-7442-453f-a4b5-948c7d37786d"/><linearGradient id="a5f56b78-2a27-47ee-9821-fcf65a725250" x1="399.02" y1="1291.9" x2="931.69" y2="1470.62" xlink:href="#ac39535d-7442-453f-a4b5-948c7d37786d"/><linearGradient id="b31c76db-6288-4c9d-8966-4e39cb432b45" x1="1746.6" y1="1539.26" x2="1296.47" y2="1801.05" gradientUnits="userSpaceOnUse"><stop offset="0.54" stop-color="#0f0b26" stop-opacity="0.05"/><stop offset="1" stop-color="#0f0b26" stop-opacity="0.3"/></linearGradient><clipPath id="b46c406e-e93b-43f7-b88a-56e960fef901"><path d="M973,1423l748.81,373.73-74.44,223-411.71,97.19L646,1963.65s-21.69-336.1-24.37-347.58S973,1423,973,1423Z" fill="none"/></clipPath><linearGradient id="f4e5c478-1499-4db8-aa89-185ad5f31b42" x1="871.08" y1="1774.05" x2="1854.84" y2="1774.05" gradientUnits="userSpaceOnUse"><stop offset="0.46" stop-color="#0a264b" stop-opacity="0.4"/><stop offset="0.48" stop-color="#093057" stop-opacity="0.52"/><stop offset="0.52" stop-color="#073d67" stop-opacity="0.67"/><stop offset="0.56" stop-color="#064773" stop-opacity="0.79"/><stop offset="0.61" stop-color="#054f7d" stop-opacity="0.89"/><stop offset="0.67" stop-color="#045584" stop-opacity="0.95"/><stop offset="0.76" stop-color="#045888" stop-opacity="0.99"/><stop offset="1" stop-color="#045989"/></linearGradient><linearGradient id="a012bdbf-f590-4593-a46b-73c13a86acb9" x1="-172.85" y1="1774.05" x2="1730.06" y2="1774.05" gradientUnits="userSpaceOnUse"><stop offset="0" stop-color="#00ffc1" stop-opacity="0.7"/><stop offset="0.16" stop-color="#00fdc2" stop-opacity="0.69"/><stop offset="0.31" stop-color="#00f8c6" stop-opacity="0.64"/><stop offset="0.46" stop-color="#00f0cd" stop-opacity="0.57"/><stop offset="0.6" stop-color="#00e4d6" stop-opacity="0.46"/><stop offset="0.74" stop-color="#00d5e2" stop-opacity="0.33"/><stop offset="0.88" stop-color="#00c2f1" stop-opacity="0.16"/><stop offset="1" stop-color="#00b0ff" stop-opacity="0"/></linearGradient><linearGradient id="befa5bcb-dab7-4b23-8406-1183b5210bf0" x1="1544.23" y1="1491.09" x2="471.57" y2="2129.58" gradientUnits="userSpaceOnUse"><stop offset="0.12" stop-color="#00a4ff" stop-opacity="0"/><stop offset="0.3" stop-color="#00a4ff" stop-opacity="0.18"/><stop offset="0.69" stop-color="#00a4ff" stop-opacity="0.63"/><stop offset="1" stop-color="#00a4ff"/></linearGradient><linearGradient id="e19ae257-3eae-4c0d-a5d9-fef5a494c4dc" x1="1538.37" y1="1333.34" x2="1654.71" y2="1516.37" gradientUnits="userSpaceOnUse"><stop offset="0" stop-color="#58d1ed"/><stop offset="0.09" stop-color="#6dd8f4"/><stop offset="0.2" stop-color="#80dffa"/><stop offset="0.31" stop-color="#8ce4fe"/><stop offset="0.42" stop-color="#90e5ff"/><stop offset="0.45" stop-color="#75d5f7"/><stop offset="0.48" stop-color="#5ac5ef"/><stop offset="0.52" stop-color="#43b8e8"/><stop offset="0.56" stop-color="#32ade2"/><stop offset="0.62" stop-color="#26a6df"/><stop offset="0.69" stop-color="#1fa2dd"/><stop offset="0.88" stop-color="#1da1dc"/></linearGradient><linearGradient id="aa077b4a-7846-4bd0-8382-b4e05f97c678" x1="1092.67" y1="1983.89" x2="1624.75" y2="485.57" gradientUnits="userSpaceOnUse"><stop offset="0.01" stop-color="#141226"/><stop offset="0.58" stop-color="#27244b"/><stop offset="0.98" stop-color="#27244b"/><stop offset="1" stop-color="#27244b"/></linearGradient><linearGradient id="bcb0d043-c7bf-4058-8180-b8887c09c7fe" x1="-7765.5" y1="-5583.48" x2="-7181.78" y2="-7227.23" gradientTransform="matrix(0.87, 0.5, 0, 1.15, 7829.19, 12358.14)" xlink:href="#aa077b4a-7846-4bd0-8382-b4e05f97c678"/><linearGradient id="f46aa5bc-e159-46cb-bcea-f0ba1e1bc9a3" x1="807.02" y1="1308.45" x2="835.89" y2="1337.11" gradientTransform="matrix(0.87, 0.5, 0, 1.15, 216.95, -1107.82)" gradientUnits="userSpaceOnUse"><stop offset="0" stop-color="#00b280"/><stop offset="1" stop-color="#1da8e0"/></linearGradient><clipPath id="a00c4999-1ae6-4ddb-b787-334d9d26039e"><polygon points="898.51 1413.84 1731.1 1894.63 1731.1 1731.56 885.4 1251.49 898.51 1413.84" fill="none"/></clipPath><linearGradient id="ae8a63db-5d3d-4828-a923-b6c944d7498d" x1="1191.15" y1="1529.2" x2="1228.37" y2="1467.76" gradientUnits="userSpaceOnUse"><stop offset="0" stop-color="#0f0b26" stop-opacity="0"/><stop offset="1" stop-color="#0f0b26" stop-opacity="0.4"/></linearGradient><linearGradient id="e1bacc80-d796-406e-afb7-ffc058ccc179" x1="1254.52" y1="1274.64" x2="1100.96" y2="1510.98" gradientUnits="userSpaceOnUse"><stop offset="0.13" stop-color="#1da1dc" stop-opacity="0"/><stop offset="0.14" stop-color="#1ca2d8" stop-opacity="0.03"/><stop offset="0.19" stop-color="#14a6c2" stop-opacity="0.21"/><stop offset="0.25" stop-color="#0eaab0" stop-opacity="0.36"/><stop offset="0.32" stop-color="#09ada1" stop-opacity="0.49"/><stop offset="0.4" stop-color="#05af95" stop-opacity="0.58"/><stop offset="0.49" stop-color="#02b18d" stop-opacity="0.65"/><stop offset="0.63" stop-color="#00b288" stop-opacity="0.69"/><stop offset="0.99" stop-color="#00b287" stop-opacity="0.7"/></linearGradient><linearGradient id="e397f568-594d-4b4f-a53e-aba58ed024ad" x1="1310.55" y1="1374.42" x2="1267.45" y2="1374.42" gradientUnits="userSpaceOnUse"><stop offset="0.01" stop-color="#141226"/><stop offset="1" stop-color="#27244b" stop-opacity="0"/></linearGradient><linearGradient id="a8d5fd8b-2a20-4f2d-840e-6ef4e277936a" x1="1472.67" y1="1231.36" x2="1316.47" y2="1414.36" gradientUnits="userSpaceOnUse"><stop offset="0.1" stop-color="#1da1dc" stop-opacity="0"/><stop offset="0.16" stop-color="#18a4cc" stop-opacity="0.06"/><stop offset="0.29" stop-color="#0daaad" stop-opacity="0.16"/><stop offset="0.45" stop-color="#06af98" stop-opacity="0.24"/><stop offset="0.64" stop-color="#01b18b" stop-opacity="0.29"/><stop offset="0.99" stop-color="#00b287" stop-opacity="0.3"/></linearGradient><linearGradient id="b3d6d6ee-5252-4b1c-8d0c-781e4ec18e2a" x1="1138.48" y1="1351.32" x2="1138.48" y2="1322.86" gradientUnits="userSpaceOnUse"><stop offset="0" stop-color="#010d1a" stop-opacity="0"/><stop offset="1" stop-color="#010d1a" stop-opacity="0.4"/></linearGradient><linearGradient id="a837bd4b-3094-4f5b-9aea-8736f7f39370" x1="1130.34" y1="1344.8" x2="1130.34" y2="1303.14" xlink:href="#b3d6d6ee-5252-4b1c-8d0c-781e4ec18e2a"/><linearGradient id="b7cc2746-ac47-4ca9-8682-a635d84612e4" x1="1226.48" y1="1427.24" x2="1226.48" y2="1398.57" xlink:href="#b3d6d6ee-5252-4b1c-8d0c-781e4ec18e2a"/><linearGradient id="b6cc8d9d-20f6-459d-966f-e3f4df8d66a3" x1="1090.32" y1="1399.88" x2="1012.28" y2="1473.43" gradientUnits="userSpaceOnUse"><stop offset="0" stop-color="#0f0b26" stop-opacity="0"/><stop offset="1" stop-color="#0f0b26"/></linearGradient><linearGradient id="a685effb-3373-44bc-9269-1cc6090b4dca" x1="1051.77" y1="1502.31" x2="1206.05" y2="1538.19" xlink:href="#b6cc8d9d-20f6-459d-966f-e3f4df8d66a3"/><linearGradient id="b1fb2eef-dac5-4123-a174-476ad3363807" x1="1024.37" y1="1752.61" x2="1091.64" y2="1778.62" gradientUnits="userSpaceOnUse"><stop offset="0" stop-color="#0f0b26" stop-opacity="0"/><stop offset="0.45" stop-color="#0f0b26" stop-opacity="0.38"/><stop offset="1" stop-color="#0f0b26"/></linearGradient><linearGradient id="bed16354-02c6-4edb-a94d-f6eaa23f667e" x1="1024.37" y1="1752.61" x2="1091.64" y2="1778.62" gradientUnits="userSpaceOnUse"><stop offset="0" stop-color="#0f0b26" stop-opacity="0"/><stop offset="0.44" stop-color="#0f0b26" stop-opacity="0.06"/><stop offset="0.68" stop-color="#0f0b26" stop-opacity="0.27"/><stop offset="0.87" stop-color="#0f0b26" stop-opacity="0.63"/><stop offset="1" stop-color="#0f0b26"/></linearGradient><linearGradient id="b2ecf386-63ab-49c9-aba8-dc60bf5542a3" x1="992.3" y1="1756.95" x2="1157.12" y2="1700.45" xlink:href="#b6cc8d9d-20f6-459d-966f-e3f4df8d66a3"/><linearGradient id="ed1677bc-6deb-4215-8f33-59586604283b" x1="1100.26" y1="1742.01" x2="1180.09" y2="1750.98" xlink:href="#b6cc8d9d-20f6-459d-966f-e3f4df8d66a3"/><linearGradient id="a5f7ae43-e452-4c5b-8069-0b4db036b261" x1="998.49" y1="1531.35" x2="1222.5" y2="1205.08" xlink:href="#b6cc8d9d-20f6-459d-966f-e3f4df8d66a3"/><linearGradient id="bbc19441-8cc6-4c26-b727-51c22b0d49c9" x1="1036.45" y1="1374.08" x2="844.51" y2="1549.88" gradientUnits="userSpaceOnUse"><stop offset="0" stop-color="#3cb3a3" stop-opacity="0"/><stop offset="1" stop-color="#3cb3a3"/></linearGradient><linearGradient id="a8af29b7-669c-42d3-abb4-5d577f0fed3f" x1="998.12" y1="1389.48" x2="959.25" y2="1314.39" gradientUnits="userSpaceOnUse"><stop offset="0.18" stop-color="#f9f9f9" stop-opacity="0"/><stop offset="1" stop-color="#f9f9f9"/></linearGradient><linearGradient id="aab5430b-fc2d-4b58-9838-08feea7b406c" x1="1901.1" y1="1779.66" x2="1773.25" y2="1521.58" gradientTransform="translate(1073.7 -699.74) rotate(30.36)" gradientUnits="userSpaceOnUse"><stop offset="0.01" stop-color="#0088a1"/><stop offset="0.31" stop-color="#018aa2"/><stop offset="0.41" stop-color="#0491a7"/><stop offset="0.49" stop-color="#0b9cb0"/><stop offset="0.55" stop-color="#12abbb"/><stop offset="0.98" stop-color="#12abbb"/><stop offset="1" stop-color="#12abbb"/></linearGradient><symbol id="f5d824b6-23df-4435-bf51-0f423dbbaf78" data-name="SHADOW PEOPLE 7" viewBox="0 0 126.04 72.77"><ellipse cx="63.02" cy="36.39" rx="36.38" ry="63.02" transform="translate(26.24 99.18) rotate(-89.64)" fill="url(#a234f4b9-0dbb-45ff-88a1-62972290ebe7)"/></symbol><symbol id="a7a1d108-eb5f-40bf-a523-a333e2265c92" data-name="shadowsvgdark" viewBox="0 0 269.17 73.98"><g filter="url(#ea91c2b4-cb68-45da-8e07-671cbbc7949b)"><path d="M247.63,32.92c.09,15.15-21,27.43-47.19,27.42H76.53a81.87,81.87,0,0,1-8.38-.43c-.78-.08-1.55-.18-2.31-.28s-1.52-.21-2.27-.34-1.49-.25-2.23-.4-1.46-.29-2.17-.46c-1.35-.3-2.66-.65-4-1L54,57l-2-.67c-.65-.22-1.29-.46-1.92-.71-1.26-.49-2.48-1-3.65-1.58-.59-.28-1.16-.56-1.73-.86s-1.11-.6-1.65-.91-1.06-.63-1.57-1-1-.66-1.49-1a33,33,0,0,1-2.74-2.11c-.43-.36-.84-.73-1.24-1.11s-.78-.76-1.15-1.15l-.53-.58a23.09,23.09,0,0,1-1.78-2.25L32,42.35l-.39-.63c-.25-.43-.48-.86-.7-1.29s-.41-.87-.59-1.32-.34-.89-.48-1.34c-.07-.22-.14-.45-.2-.67-.12-.46-.22-.92-.31-1.38a17.35,17.35,0,0,1-.26-2.8C29,17.77,50.08,5.49,76.23,5.49H201.35c1.63,0,3.23.1,4.81.21,1.19.09,2.36.2,3.52.34s2.29.3,3.42.48q2.64.43,5.16,1l1.37.34c1.4.37,2.76.77,4.09,1.21q1,.33,1.95.69a53,53,0,0,1,8,3.71,35.91,35.91,0,0,1,8.18,6.32c.37.39.72.79,1.06,1.19s.65.8.95,1.21a20.28,20.28,0,0,1,1.94,3.17,17.58,17.58,0,0,1,1.44,4,15.25,15.25,0,0,1,.38,2.78C247.62,32.45,247.63,32.68,247.63,32.92Z" fill="url(#ae99e396-de72-47d0-8b84-28474021f0e2)"/></g><ellipse cx="62.94" cy="37.68" rx="62.94" ry="36.3" fill="url(#adb07124-dfca-4b72-9c3c-9e574baf04ef)"/></symbol></defs><g style="isolation:isolate"><g id="a9212119-1270-480d-a0c8-5172293a2ef1" data-name="ShadowBG"><ellipse id="b9d9444f-964c-4f27-b046-669db7acdd2e" data-name="shadow BG" cx="1444.74" cy="1753.64" rx="842.6" ry="468.35" transform="translate(-11 9.12) rotate(-0.36)" fill="url(#ec920adf-aeff-40ab-a6b4-b99b09ff9d53)"/></g><g id="bb9c10b5-ad31-4c78-a64d-bf2c03911b5c" data-name="Plant"><g id="fc6f0b1d-ffb2-4f90-a5a8-6f2868704a24" data-name="Plant11"><g id="ed15af26-6969-4f58-972a-a2f3c0c0741e" data-name="Layer1 8 MEMBER 0 FILL"><path d="M1030.57,1427l-5.9,3.6q-47.16-72.25-56.93-217.68l14.51-16.61q-8.85,111.21,48.32,230.69M901.74,1303.46l3.25-3.74q56.81,67.2,85.39,137.88l-10.44,4.07Q956.68,1373.12,901.74,1303.46Z" fill="#0b97c2"/></g><g id="e19fbe90-2f30-4959-b0b5-956793ff4a03" data-name="Layer1 8 MEMBER 1 FILL"><path d="M844,811.26q85.11,262.8,115.72,571.81Q739.88,1241.3,635.27,935.66q-104.57-305.8,4.79-522.92Q795.4,661.29,844,811.26Z" fill="#52d6ff"/></g><g id="b139d062-2ca2-44cc-81d8-95ddf1440cb9" data-name="Layer1 8 MEMBER 1 FILL"><path d="M844,811.26q85.11,262.8,115.72,571.81Q739.88,1241.3,635.27,935.66q-104.57-305.8,4.79-522.92Q795.4,661.29,844,811.26Z" fill="url(#b561a172-ceb9-48b3-9733-77fc184cc7ab)"/></g><g id="fb504e07-7548-435d-8848-3e0c57e1dacf" data-name="Layer1 8 MEMBER 2 FILL"><path d="M973.48,564.73Q1064,673.57,1085.25,830t-76.38,346.3q-40.23,97.92-13.66,184.1-41.52-54.86-82.44-173.92T893.89,897.32Q903.43,733.31,973.48,564.73Z" fill="#20bcec"/></g><path d="M978.28,557.68h0l.1,0-.1,0m-5.09,336.58,0,.34q22.72-175.17,12.22-267.1,16.07,112.64.88,268.37a.35.35,0,0,0,0,.24q-31.75,225.12,1.65,352.69a259.43,259.43,0,0,0-3.12,51.31Q920.7,1182.89,973.19,894.26Z" fill="#00a7d4"/><path d="M960.7,1384q-5.33-3.45-10.59-7C820.8,1152.41,693.25,686.22,640.8,429.35,708.35,697.94,833.64,1111.14,957,1359,958.29,1367.33,959.49,1375.65,960.7,1384Z" fill="#00a7d4"/><g id="a2181b53-9166-43dd-b139-db928e964ce0" data-name="Layer1 8 MEMBER 2 FILL"><path d="M621.5,1258.89c128-5.67,300.28,81.3,365.78,187.76,20.8,33.83,7.59-6.86,26.31,12C863.34,1474.52,680.63,1404.4,621.5,1258.89Z" fill="#20bcec"/></g><path d="M964.82,1447.58a93.06,93.06,0,0,0-2.59-11.31C851.05,1384.42,742,1328.44,634.44,1269.38c108.6,62.29,218.38,122.4,330.4,178.33C964.83,1447.66,964.83,1447.62,964.82,1447.58Z" fill="#00a7d4"/><g style="mix-blend-mode:multiply"><path d="M1008.87,1176.31q97.52-189.81,76.38-346.3T973.48,564.73q-70.05,168.59-79.59,332.59-4.41,33.79-6.29,65.56Q868,885.24,844,811.26q-48.6-150-203.94-398.52-109.35,217.13-4.79,522.92,102.24,298.74,314.58,440.91l.26.46,1.54,1a409.79,409.79,0,0,1,23.8,51.16c-72.6-98.34-233.06-175.67-354-170.31,57,140.29,228.9,210.49,375.81,201.1-2-1.37-5-5.18-10-13.34-1.3-2.1-2.65-4.19-4-6.27l7.12-2.78a455.69,455.69,0,0,0-30.9-62q-.83-5.78-1.7-11.54-4.72-45.09-10.65-89.19,21.81,48.82,43.78,79.64,13.4,44.87,33.76,76.08l5.9-3.6q-35.84-74.91-45.73-146.56Q986.76,1230.15,1008.87,1176.31Z" fill="url(#ac39535d-7442-453f-a4b5-948c7d37786d)"/><path d="M1000.35,1459.79q6.66-.46,13.24-1.16C1002.7,1447.67,1002.62,1456.85,1000.35,1459.79Z" fill="url(#b000535f-e2ce-4be7-a4ec-2eb38d63719a)"/><path d="M1000.35,1459.79c-1,.08-2,.14-3,.2C998.77,1461,999.67,1460.69,1000.35,1459.79Z" fill="url(#a5f56b78-2a27-47ee-9821-fcf65a725250)"/></g></g></g><g id="f70975f5-194e-46c0-a38f-cd2f475c32eb" data-name="Base"><g id="e517c8cb-f99f-47c9-a53f-096ea934787e" data-name="Base-Dark"><g opacity="0.15"><path d="M1753.65,1707c12.4,7.16,12.46,18.76.15,25.92L1387,1944.28c-12.32,7.16-32.35,7.16-44.75,0L880.61,1677.75c-12.39-7.15-12.46-18.76-.15-25.92l366.8-211.4c12.31-7.16,32.35-7.16,44.75,0Z" fill="none" stroke="#022e49" stroke-width="16.06"/></g><g opacity="0.41"><path d="M1753.65,1707c12.4,7.16,12.46,18.76.15,25.92L1387,1944.28c-12.32,7.16-32.35,7.16-44.75,0L880.61,1677.75c-12.39-7.15-12.46-18.76-.15-25.92l366.8-211.4c12.31-7.16,32.35-7.16,44.75,0Z" fill="none" stroke="#022e49" stroke-width="8.83"/></g><g opacity="0.72"><path d="M1753.65,1707c12.4,7.16,12.46,18.76.15,25.92L1387,1944.28c-12.32,7.16-32.35,7.16-44.75,0L880.61,1677.75c-12.39-7.15-12.46-18.76-.15-25.92l366.8-211.4c12.31-7.16,32.35-7.16,44.75,0Z" fill="none" stroke="#022e49" stroke-width="4.82"/></g><path d="M1365.27,1950.74l105.35-1.48a97.1,97.1,0,0,0,38.31-10.41l367.22-206.67s27-19.21-12.79-38.7l-423.58-244-189.44,195.3Z" fill="url(#b31c76db-6288-4c9d-8966-4e39cb432b45)"/><g clip-path="url(#b46c406e-e93b-43f7-b88a-56e960fef901)"><g id="b9cd103e-3597-4c2f-8c46-d22234d03972" data-name="base"><g style="isolation:isolate"><path d="M1845.65,1611.9,1386.92,1874c-12.32,7.15-30.17,8.93-42.57,1.77l-462-266.22c-6.24-3.6-11.07-6-11.06-10.7l-.19,65.46c0,4.72,3.11,9.45,9.35,13l461.64,266.53c12.4,7.16,32.43,7.16,44.75,0l458.64-266.53c6.12-3.56,9.18-8.21,9.2-12.87l.18-65.46C1854.83,1603.69,1851.77,1608.34,1845.65,1611.9Z" fill="#1da1dc"/></g></g><path d="M1845.65,1611.9,1386.92,1874c-12.32,7.15-30.17,8.93-42.57,1.77l-462-266.22c-6.24-3.6-11.07-6-11.06-10.7l-.19,65.46c0,4.72,3.11,9.45,9.35,13l461.64,266.53c12.4,7.16,32.43,7.16,44.75,0l458.64-266.53c6.12-3.56,9.18-8.21,9.2-12.87l.18-65.46C1854.83,1603.69,1851.77,1608.34,1845.65,1611.9Z" fill="url(#f4e5c478-1499-4db8-aa89-185ad5f31b42)"/><path d="M1845.65,1611.9,1386.92,1874c-12.32,7.15-30.17,8.93-42.57,1.77l-462-266.22c-6.24-3.6-11.07-6-11.06-10.7l-.19,65.46c0,4.72,3.11,9.45,9.35,13l461.64,266.53c12.4,7.16,32.43,7.16,44.75,0l458.64-266.53c6.12-3.56,9.18-8.21,9.2-12.87l.18-65.46C1854.83,1603.69,1851.77,1608.34,1845.65,1611.9Z" fill="url(#a012bdbf-f590-4593-a46b-73c13a86acb9)"/><path d="M1845.5,1586c12.4,7.15,12.46,18.76.15,25.92L1387,1878.43c-12.32,7.16-32.35,7.16-44.75,0L880.61,1611.9c-12.39-7.16-12.46-18.76-.15-25.92l458.65-266.54c12.31-7.15,32.35-7.15,44.75,0Z" fill="#243880"/><path d="M1845.5,1586c12.4,7.15,12.46,18.76.15,25.92L1387,1878.43c-12.32,7.16-32.35,7.16-44.75,0L880.61,1611.9c-12.39-7.16-12.46-18.76-.15-25.92l458.65-266.54c12.31-7.15,32.35-7.15,44.75,0Z" fill="url(#befa5bcb-dab7-4b23-8406-1183b5210bf0)"/><g opacity="0.75"><path d="M1361.45,1318.9h0c7.51,0,14.8,1.72,20,4.72l461.64,266.53c4.4,2.54,6.93,5.76,6.93,8.84s-2.47,6.23-6.79,8.74l-458.65,266.53c-5.16,3-12.42,4.72-19.92,4.72s-14.8-1.72-20-4.72L883,1607.73c-4.4-2.54-6.93-5.77-6.93-8.84s2.47-6.23,6.79-8.74l458.65-266.54c5.15-3,12.42-4.71,19.92-4.71m0-4.82c-8.1,0-16.19,1.79-22.34,5.36L880.46,1586c-12.31,7.16-12.24,18.76.15,25.92l461.64,266.53c6.2,3.58,14.31,5.37,22.41,5.37s16.18-1.79,22.34-5.37l458.65-266.53c12.31-7.16,12.25-18.77-.15-25.92l-461.64-266.53c-6.2-3.58-14.31-5.37-22.41-5.37Z" fill="#6da0e8"/></g></g><g id="b832559f-a521-4f2f-82fb-8ce9dfeee4b6" data-name="Shadowtablet" filter="url(#ea91c2b4-cb68-45da-8e07-671cbbc7949b)"><path d="M1541.92,1790.68c-5.74,3.31-15.13,3.31-20.87,0l-521-300.78c-5.73-3.32-5.73-8.74,0-12.05l2.52-1.45c5.73-3.31,15.12-3.31,20.86,0l521,300.78c5.74,3.31,5.74,8.74,0,12Z" fill="#0f0b26" opacity="0.2"/></g></g></g><g id="b27121fc-aa2e-458a-9191-b0ba04b718ac" data-name="Dashboard"><g id="a6c4e205-bcf6-4e07-8c2d-e17e8b79d092" data-name="Dashboard"><g id="f145439b-b4fd-46f1-92d9-f92c4020e82c" data-name="Frame"><path d="M1800.46,1259.68l-900.71-519c-5.34-3.07-10.17-3.36-13.66-1.33L857.8,755.75c3.48-2,8.31-1.74,13.65,1.34l900.71,519c10.6,6.12,19.16,20.95,19.13,33.12l-1.71,605.15c0,6-2.15,10.31-5.59,12.31l28.3-16.44c3.44-2,5.58-6.26,5.59-12.31l1.7-605.15C1819.62,1280.63,1811.06,1265.8,1800.46,1259.68Z" fill="url(#e19ae257-3eae-4c0d-a5d9-fef5a494c4dc)"/><path d="M1772.16,1276.13c10.6,6.12,19.16,20.95,19.13,33.12l-1.71,605.15c0,12.18-8.65,17.09-19.24,11l-900.72-519c-10.6-6.11-19.16-20.94-19.12-33.12l1.7-605.15c0-12.17,8.65-17.09,19.25-11Z" fill="url(#aa077b4a-7846-4bd0-8382-b4e05f97c678)"/></g></g><path d="M1772.84,1922.74l-903.9-521.86c-10.18-5.88-18.44-20.12-18.44-31.8V766.2c0-11.68,8.26-16.38,18.44-10.5l903.9,521.86c10.19,5.89,18.45,20.12,18.45,31.8v602.89C1791.29,1923.93,1783,1928.63,1772.84,1922.74Z" fill="url(#bcb0d043-c7bf-4058-8180-b8887c09c7fe)"/><path d="M1772.84,1922.74l-903.9-521.86c-10.18-5.88-18.44-20.12-18.44-31.8V766.2c0-11.68,8.26-16.38,18.44-10.5l903.9,521.86c10.19,5.89,18.45,20.12,18.45,31.8v602.89C1791.29,1923.93,1783,1928.63,1772.84,1922.74Z" fill="url(#bcb0d043-c7bf-4058-8180-b8887c09c7fe)"/><g opacity="0.6"><polygon points="1715.34 1389.02 913.57 926.12 913.57 925.46 1715.34 1388.36 1715.34 1389.02" fill="#0071b0"/></g><g opacity="0.4"><path d="M1033.9,947.87,913.57,878.4a9.53,9.53,0,0,1-4.33-7.46c0-2.74,1.94-3.84,4.33-2.46L1033.9,938a9.52,9.52,0,0,1,4.32,7.46C1038.22,948.15,1036.29,949.25,1033.9,947.87Z" fill="#fff"/><path d="M1033.9,947.87,913.57,878.4a9.53,9.53,0,0,1-4.33-7.46c0-2.74,1.94-3.84,4.33-2.46L1033.9,938a9.52,9.52,0,0,1,4.32,7.46C1038.22,948.15,1036.29,949.25,1033.9,947.87Z" fill="#66717b"/></g><path d="M1288.59,1030.7l-79.93-46.14a2.54,2.54,0,0,1-1.15-2c0-.73.51-1,1.15-.66l79.93,46.15a2.54,2.54,0,0,1,1.15,2C1289.74,1030.78,1289.23,1031.07,1288.59,1030.7Z" fill="#fff" opacity="0.2"/><path d="M1500.18,1152.86l-79.93-46.14a2.55,2.55,0,0,1-1.16-2c0-.73.52-1,1.16-.66l79.93,46.15a2.54,2.54,0,0,1,1.15,2C1501.33,1152.94,1500.82,1153.23,1500.18,1152.86Z" fill="#fff" opacity="0.2"/><path d="M930.39,843c-.48.27-1.25-.17-1.73-1l-7.87-13.5c-.48-.82-.48-1.71,0-2L928.6,822c.48-.27,1.25.18,1.73,1l7.82,13.47c.47.82.47,1.71,0,2Z" opacity="0.75" fill="url(#f46aa5bc-e159-46cb-bcea-f0ba1e1bc9a3)"/><ellipse cx="1635.6" cy="1229.73" rx="4.69" ry="8.13" transform="translate(-397.25 995.34) rotate(-30.36)" fill="#fff" opacity="0.4"/><ellipse cx="1675.26" cy="1252.62" rx="4.69" ry="8.13" transform="matrix(0.86, -0.51, 0.51, 0.86, -403.38, 1018.52)" fill="#fff" opacity="0.4"/><ellipse cx="1714.92" cy="1275.52" rx="4.69" ry="8.13" transform="translate(-409.52 1041.71) rotate(-30.36)" fill="#fff" opacity="0.4"/><path d="M1033.9,893.72l-63.07-36.41a1.92,1.92,0,0,1-.86-1.49c0-.55.39-.77.86-.49l63.07,36.41a1.91,1.91,0,0,1,.86,1.49C1034.76,893.77,1034.37,894,1033.9,893.72Z" fill="#66717b"/><path d="M1394.38,1092.78l-79.93-46.15a4.47,4.47,0,0,1-2-3.48c0-1.28.91-1.79,2-1.15l79.93,46.15a4.43,4.43,0,0,1,2,3.48C1396.4,1092.9,1395.5,1093.42,1394.38,1092.78Z" fill="#fff" opacity="0.4"/><path d="M1095.83,1197.39l-177.1-102.25a11.38,11.38,0,0,1-5.16-8.9V944.15c0-3.27,2.31-4.58,5.16-2.93l177.1,102.25a11.34,11.34,0,0,1,5.17,8.9v142.08C1101,1197.72,1098.69,1199,1095.83,1197.39Z" fill="#183a5d"/><g opacity="0.05"><path d="M1101,1132.56,913.57,1024.35v-80.2c0-3.27,2.31-4.58,5.16-2.93l177.1,102.25a11.34,11.34,0,0,1,5.17,8.9Z" fill="#09c997"/></g><g opacity="0.5"><path d="M946.39,973.75l-9.32-5.39c-.92-.52-1.65-.1-1.65.94v5.35l-4.67-2.7c-.91-.52-1.64-.1-1.64.94v10.69a3.64,3.64,0,0,0,1.64,2.85l9.33,5.38c.91.53,1.65.11,1.65-.94v-5.34l4.66,2.69c.91.52,1.65.1,1.65-.94V976.59A3.63,3.63,0,0,0,946.39,973.75Z" fill="#90e5ff"/></g><g opacity="0.3"><path d="M987,1000.09,962.58,986a1.89,1.89,0,0,1-.87-1.49c0-.55.39-.77.87-.49L987,998.11a1.91,1.91,0,0,1,.87,1.49C987.9,1000.15,987.51,1000.37,987,1000.09Z" fill="#1da1dc"/></g><g opacity="0.3"><path d="M941.25,1022l-10.49-6.06a5.09,5.09,0,0,1-2.31-4c0-1.46,1-2,2.31-1.31l10.49,6.06a5.06,5.06,0,0,1,2.3,4C943.55,1022.09,942.52,1022.68,941.25,1022Z" fill="#1da1dc"/></g><g opacity="0.6"><polygon points="1058.43 1108.64 913.57 1025.01 913.57 1023.68 1058.43 1107.32 1058.43 1108.64" fill="#1da1dc"/></g><g opacity="0.3"><path d="M1085.94,1179.4l-156.83-90.55a3.17,3.17,0,0,1-1.45-2.49c0-.91.65-1.28,1.45-.82l156.83,90.55a3.19,3.19,0,0,1,1.45,2.49C1087.39,1179.49,1086.74,1179.86,1085.94,1179.4Z" fill="#1da1dc"/></g><g opacity="0.5"><path d="M1002.94,1028.26l-39.21-22.64a5.72,5.72,0,0,1-2.59-4.47c0-1.65,1.16-2.31,2.59-1.48l39.21,22.64a5.69,5.69,0,0,1,2.6,4.47C1005.54,1028.42,1004.38,1029.08,1002.94,1028.26Z" fill="#90e5ff"/></g><g opacity="0.3"><path d="M948,1074.48l-17.28-10a2.54,2.54,0,0,1-1.15-2c0-.73.51-1,1.15-.66l17.28,10a2.54,2.54,0,0,1,1.15,2C949.19,1074.56,948.68,1074.85,948,1074.48Z" fill="#90e5ff"/></g><g opacity="0.3"><path d="M970,1102.81l-39.21-22.63a5.75,5.75,0,0,1-2.6-4.48c0-1.64,1.17-2.3,2.6-1.47L970,1096.86a5.72,5.72,0,0,1,2.59,4.48C972.56,1103,971.4,1103.64,970,1102.81Z" fill="#90e5ff"/></g><g opacity="0.4"><path d="M1033.47,1149.1l-104.36-60.25a3.17,3.17,0,0,1-1.45-2.49c0-.91.65-1.28,1.45-.82l104.36,60.26a3.19,3.19,0,0,1,1.44,2.48C1034.91,1149.19,1034.26,1149.56,1033.47,1149.1Z" fill="#09c997"/></g><g opacity="0.4"><path d="M1085.94,1062.66l-.56.19a2.62,2.62,0,0,1-2.7-.27,7,7,0,0,1-2.13-2l-3.83,4a8.39,8.39,0,0,1,.56,2.78,3.17,3.17,0,0,1-1.35,3l-.44.25-3.94-6.65-5.29,1.33-.67-1.29,3.93-3.4-3.82-6.59.45-.26a3.21,3.21,0,0,1,3.26.34,8.64,8.64,0,0,1,2.14,1.87l5.4-1.26a6.61,6.61,0,0,1-.68-2.84,2.73,2.73,0,0,1,1.13-2.45l.56-.19Z" fill="#09c997" fill-rule="evenodd"/></g><g opacity="0.08"><polygon points="1101 1143.95 913.57 1035.73 913.57 1024.35 1101 1132.56 1101 1143.95" fill="#39c2ec"/></g><path d="M1300.68,1315.66l-177.1-102.25a11.4,11.4,0,0,1-5.17-8.9V1062.42c0-3.27,2.32-4.58,5.17-2.94l177.1,102.26a11.37,11.37,0,0,1,5.17,8.9v142.08C1305.85,1316,1303.53,1317.3,1300.68,1315.66Z" fill="#183a5d"/><g opacity="0.05"><path d="M1305.85,1250.83l-187.44-108.21v-80.2c0-3.27,2.32-4.58,5.17-2.94l177.1,102.26a11.37,11.37,0,0,1,5.17,8.9Z" fill="#09c997"/></g><g opacity="0.3"><path d="M1191.88,1118.36l-24.45-14.12a1.89,1.89,0,0,1-.87-1.49c0-.55.39-.77.87-.49l24.45,14.12a1.91,1.91,0,0,1,.87,1.49C1192.75,1118.42,1192.36,1118.64,1191.88,1118.36Z" fill="#1da1dc"/></g><g opacity="0.3"><path d="M1146.1,1140.22l-10.49-6.06a5.08,5.08,0,0,1-2.31-4c0-1.46,1-2,2.31-1.31l10.49,6.06a5.06,5.06,0,0,1,2.3,4C1148.4,1140.36,1147.37,1141,1146.1,1140.22Z" fill="#1da1dc"/></g><g opacity="0.6"><polygon points="1305.85 1251.49 1118.41 1143.28 1118.41 1141.95 1305.85 1250.17 1305.85 1251.49" fill="#ed4c59"/></g><g opacity="0.3"><path d="M1290.79,1297.67,1134,1207.12a3.19,3.19,0,0,1-1.44-2.49c0-.91.65-1.28,1.44-.82l156.84,90.55a3.18,3.18,0,0,1,1.44,2.49C1292.23,1297.76,1291.59,1298.13,1290.79,1297.67Z" fill="#1da1dc"/></g><g opacity="0.5"><path d="M1207.79,1146.53l-39.21-22.64a5.72,5.72,0,0,1-2.59-4.48c0-1.64,1.16-2.3,2.59-1.47l39.21,22.64a5.72,5.72,0,0,1,2.6,4.47C1210.39,1146.69,1209.22,1147.35,1207.79,1146.53Z" fill="#90e5ff"/></g><g opacity="0.3"><path d="M1152.89,1192.75l-17.28-10a2.51,2.51,0,0,1-1.16-2c0-.73.52-1,1.16-.66l17.28,10a2.54,2.54,0,0,1,1.15,2C1154,1192.83,1153.53,1193.12,1152.89,1192.75Z" fill="#90e5ff"/></g><g opacity="0.3"><path d="M1174.82,1221.08l-39.21-22.64a5.69,5.69,0,0,1-2.6-4.47c0-1.64,1.16-2.3,2.6-1.48l39.21,22.64a5.72,5.72,0,0,1,2.59,4.48C1177.41,1221.25,1176.25,1221.91,1174.82,1221.08Z" fill="#90e5ff"/></g><g opacity="0.4"><path d="M1251.91,1275.22l-118-68.1a3.19,3.19,0,0,1-1.44-2.49c0-.91.65-1.28,1.44-.82l118,68.1a3.18,3.18,0,0,1,1.44,2.49C1253.35,1275.31,1252.71,1275.68,1251.91,1275.22Z" fill="#09c997"/></g><g opacity="0.4"><path d="M1290.79,1180.93l-.56.19a2.62,2.62,0,0,1-2.7-.27,7.18,7.18,0,0,1-2.14-2l-3.82,4a8.39,8.39,0,0,1,.56,2.78,3.14,3.14,0,0,1-1.35,3l-.45.26-3.93-6.65-5.29,1.33-.67-1.29,3.93-3.4-3.82-6.6.45-.25a3.23,3.23,0,0,1,3.26.33,8.9,8.9,0,0,1,2.14,1.88l5.4-1.26a6.61,6.61,0,0,1-.68-2.84,2.75,2.75,0,0,1,1.12-2.45l.57-.19Z" fill="#09c997" fill-rule="evenodd"/></g><g opacity="0.08"><polygon points="1305.85 1262.22 1118.41 1154 1118.41 1142.62 1305.85 1250.83 1305.85 1262.22" fill="#ed4c59"/></g><g opacity="0.5"><path d="M1150,1113l-13.15-7.6a6.36,6.36,0,0,1-2.9-5v-15.08c0-1.83,1.3-2.57,2.9-1.64l13.15,7.59a6.38,6.38,0,0,1,2.89,5v15.08C1152.89,1113.19,1151.59,1113.93,1150,1113Z" fill="#90e5ff"/></g><g opacity="0.6"><path d="M1710.38,1552.2l-177.1-102.26a11.34,11.34,0,0,1-5.17-8.9V1299c0-3.27,2.31-4.58,5.17-2.94l177.1,102.25a11.39,11.39,0,0,1,5.16,8.91v142.08C1715.54,1552.53,1713.23,1553.84,1710.38,1552.2Z" fill="#183a5d"/><g opacity="0.05"><path d="M1715.54,1498.76l-187.43-108.22V1299c0-3.27,2.31-4.58,5.17-2.94l177.1,102.25a11.39,11.39,0,0,1,5.16,8.91Z" fill="#09c997"/></g><g opacity="0.3"><path d="M1601.58,1354.9l-24.46-14.12a1.91,1.91,0,0,1-.86-1.49c0-.55.39-.77.86-.49l24.46,14.12a1.88,1.88,0,0,1,.86,1.49C1602.44,1355,1602.06,1355.18,1601.58,1354.9Z" fill="#1da1dc"/></g><g opacity="0.3"><path d="M1555.79,1376.75l-10.49-6a5.1,5.1,0,0,1-2.3-4c0-1.46,1-2,2.3-1.31l10.49,6.06a5,5,0,0,1,2.31,4C1558.1,1376.9,1557.07,1377.49,1555.79,1376.75Z" fill="#1da1dc"/></g><g opacity="0.08"><polygon points="1715.54 1498.76 1528.11 1390.54 1528.11 1379.15 1715.54 1487.37 1715.54 1498.76" fill="#fcc827"/></g><g opacity="0.6"><polygon points="1715.34 1487.91 1528.11 1379.81 1528.11 1378.49 1715.34 1486.59 1715.34 1487.91" fill="#fcc827"/></g><g opacity="0.3"><path d="M1700.49,1534.21l-156.84-90.55a3.18,3.18,0,0,1-1.44-2.49c0-.91.64-1.28,1.44-.82l156.84,90.55a3.19,3.19,0,0,1,1.44,2.49C1701.93,1534.3,1701.28,1534.67,1700.49,1534.21Z" fill="#1da1dc"/></g><g opacity="0.5"><path d="M1617.49,1383.06l-39.21-22.63a5.71,5.71,0,0,1-2.6-4.48c0-1.64,1.16-2.3,2.6-1.47l39.21,22.63a5.72,5.72,0,0,1,2.59,4.48C1620.08,1383.23,1618.92,1383.89,1617.49,1383.06Z" fill="#90e5ff"/></g><g opacity="0.3"><path d="M1562.59,1429.29l-17.29-10a2.53,2.53,0,0,1-1.15-2c0-.74.52-1,1.15-.66l17.29,10a2.53,2.53,0,0,1,1.15,2C1563.74,1429.36,1563.22,1429.66,1562.59,1429.29Z" fill="#90e5ff"/></g><g opacity="0.3"><path d="M1584.51,1457.62,1545.3,1435a5.71,5.71,0,0,1-2.59-4.47c0-1.64,1.16-2.3,2.59-1.48l39.21,22.64a5.71,5.71,0,0,1,2.6,4.47C1587.11,1457.79,1586,1458.45,1584.51,1457.62Z" fill="#90e5ff"/></g><g opacity="0.4"><path d="M1648,1503.91l-104.36-60.25a3.18,3.18,0,0,1-1.44-2.49c0-.91.64-1.28,1.44-.82L1648,1500.6a3.18,3.18,0,0,1,1.44,2.49C1649.45,1504,1648.81,1504.37,1648,1503.91Z" fill="#09c997"/></g><g opacity="0.4"><path d="M1700.49,1417.46l-.56.2a2.64,2.64,0,0,1-2.7-.27,7.19,7.19,0,0,1-2.14-2l-3.82,4a8.65,8.65,0,0,1,.56,2.77,3.15,3.15,0,0,1-1.35,3l-.45.26-3.94-6.66-5.28,1.34-.68-1.3,3.94-3.4-3.82-6.59.45-.25a3.23,3.23,0,0,1,3.26.33,8.86,8.86,0,0,1,2.13,1.88l5.4-1.27a6.52,6.52,0,0,1-.67-2.83,2.75,2.75,0,0,1,1.12-2.45l.56-.19Z" fill="#09c997" fill-rule="evenodd"/></g><g opacity="0.5"><path d="M1543.69,1326.14v6.62a9.55,9.55,0,0,0,2.21,5.67l5,6.2c1.37,1.7,3,2.67,4.42,2.56l5-.43c1.37-.11,2.21-1.3,2.21-3.11V1337a9.55,9.55,0,0,0-2.21-5.66l-5-6.2c-1.37-1.7-3-2.67-4.42-2.56l-5,.43C1544.53,1323.14,1543.69,1324.33,1543.69,1326.14Z" fill="#90e5ff"/></g></g><g clip-path="url(#a00c4999-1ae6-4ddb-b787-334d9d26039e)"><g opacity="0.15"><path d="M1095.83,1545.53l-177.1-102.25a11.38,11.38,0,0,1-5.16-8.9V1292.3c0-3.27,2.31-4.59,5.16-2.94l177.1,102.25a11.36,11.36,0,0,1,5.17,8.9v142.08C1101,1545.86,1098.69,1547.18,1095.83,1545.53Z" fill="#183a5d"/><g opacity="0.05"><path d="M1101,1480.7,913.57,1372.49V1292.3c0-3.27,2.31-4.59,5.16-2.94l177.1,102.25a11.36,11.36,0,0,1,5.17,8.9Z" fill="#09c997"/></g><g opacity="0.3"><path d="M987,1348.24l-24.45-14.12a1.92,1.92,0,0,1-.87-1.5c0-.54.39-.76.87-.49L987,1346.25a1.92,1.92,0,0,1,.87,1.49C987.9,1348.29,987.51,1348.51,987,1348.24Z" fill="#1da1dc"/></g><g opacity="0.3"><path d="M941.25,1370.09,930.76,1364a5.08,5.08,0,0,1-2.31-4c0-1.46,1-2,2.31-1.32l10.49,6.06a5.1,5.1,0,0,1,2.3,4C943.55,1370.24,942.52,1370.82,941.25,1370.09Z" fill="#1da1dc"/></g><g opacity="0.6"><polygon points="1058.43 1456.79 913.57 1373.15 913.57 1371.83 1058.43 1455.46 1058.43 1456.79" fill="#1da1dc"/></g><g opacity="0.3"><path d="M1085.94,1527.54,929.11,1437a3.17,3.17,0,0,1-1.45-2.48c0-.92.65-1.28,1.45-.82l156.83,90.55a3.17,3.17,0,0,1,1.45,2.48C1087.39,1527.63,1086.74,1528,1085.94,1527.54Z" fill="#1da1dc"/></g><g opacity="0.5"><path d="M1002.94,1376.4l-39.21-22.64a5.72,5.72,0,0,1-2.59-4.47c0-1.65,1.16-2.31,2.59-1.48l39.21,22.64a5.71,5.71,0,0,1,2.6,4.47C1005.54,1376.56,1004.38,1377.23,1002.94,1376.4Z" fill="#90e5ff"/></g><g opacity="0.3"><path d="M948,1422.62l-17.28-10a2.54,2.54,0,0,1-1.15-2c0-.73.51-1,1.15-.66L948,1420a2.54,2.54,0,0,1,1.15,2C949.19,1422.7,948.68,1423,948,1422.62Z" fill="#90e5ff"/></g><g opacity="0.3"><path d="M970,1451l-39.21-22.63a5.73,5.73,0,0,1-2.6-4.48c0-1.64,1.17-2.3,2.6-1.47L970,1445a5.72,5.72,0,0,1,2.59,4.48C972.56,1451.12,971.4,1451.78,970,1451Z" fill="#90e5ff"/></g><g opacity="0.4"><path d="M1033.47,1497.24,929.11,1437a3.17,3.17,0,0,1-1.45-2.48c0-.92.65-1.28,1.45-.82l104.36,60.25a3.19,3.19,0,0,1,1.44,2.48C1034.91,1497.34,1034.26,1497.7,1033.47,1497.24Z" fill="#09c997"/></g><g opacity="0.08"><polygon points="1101 1492.09 913.57 1383.88 913.57 1372.49 1101 1480.7 1101 1492.09" fill="#39c2ec"/></g><g opacity="0.5"><path d="M933.31,1331.22v-8a3.26,3.26,0,0,0-1.47-2.54l-1.09-.62c-.91-.53-1.64-.11-1.64.93v10.7a3.63,3.63,0,0,0,1.64,2.84l9.33,5.38c.91.53,1.65.11,1.65-.94v-1.24a3.22,3.22,0,0,0-1.47-2.53Z" fill="#90e5ff"/></g><g opacity="0.5"><path d="M946.39,1321.89l-9.32-5.39c-.91-.52-1.65-.1-1.65.94v1.24a3.24,3.24,0,0,0,1.47,2.54l7,4v8a3.26,3.26,0,0,0,1.47,2.54l1.08.62c.91.53,1.65.11,1.65-.94v-10.69A3.64,3.64,0,0,0,946.39,1321.89Z" fill="#90e5ff"/></g></g><g opacity="0.3"><path d="M1300.68,1663.8l-177.1-102.25a11.39,11.39,0,0,1-5.17-8.9V1410.57c0-3.27,2.32-4.59,5.17-2.94l177.1,102.25a11.37,11.37,0,0,1,5.17,8.9v142.08C1305.85,1664.13,1303.53,1665.45,1300.68,1663.8Z" fill="#183a5d"/><g opacity="0.05"><path d="M1305.85,1610.36l-187.44-108.21v-91.58c0-3.27,2.32-4.59,5.17-2.94l177.1,102.25a11.37,11.37,0,0,1,5.17,8.9Z" fill="#09c997"/></g><g opacity="0.3"><path d="M1191.88,1466.5l-24.45-14.11a1.92,1.92,0,0,1-.87-1.5c0-.54.39-.76.87-.49l24.45,14.12a1.91,1.91,0,0,1,.87,1.49C1192.75,1466.56,1192.36,1466.78,1191.88,1466.5Z" fill="#1da1dc"/></g><g opacity="0.3"><path d="M1146.1,1488.36l-10.49-6.06a5,5,0,0,1-2.31-4c0-1.46,1-2,2.31-1.32l10.49,6.06a5.07,5.07,0,0,1,2.3,4C1148.4,1488.51,1147.37,1489.09,1146.1,1488.36Z" fill="#1da1dc"/></g><g opacity="0.3"><path d="M1290.79,1645.81,1134,1555.26a3.19,3.19,0,0,1-1.44-2.49c0-.91.65-1.28,1.44-.82l156.84,90.56a3.14,3.14,0,0,1,1.44,2.48C1292.23,1645.9,1291.59,1646.27,1290.79,1645.81Z" fill="#1da1dc"/></g><g opacity="0.5"><path d="M1207.79,1494.67,1168.58,1472a5.72,5.72,0,0,1-2.59-4.47c0-1.65,1.16-2.31,2.59-1.48l39.21,22.64a5.73,5.73,0,0,1,2.6,4.47C1210.39,1494.83,1209.22,1495.5,1207.79,1494.67Z" fill="#90e5ff"/></g><g opacity="0.3"><path d="M1152.89,1540.89l-17.28-10a2.55,2.55,0,0,1-1.16-2c0-.73.52-1,1.16-.66l17.28,10a2.54,2.54,0,0,1,1.15,2C1154,1541,1153.53,1541.26,1152.89,1540.89Z" fill="#90e5ff"/></g><g opacity="0.3"><path d="M1174.82,1569.22l-39.21-22.63a5.71,5.71,0,0,1-2.6-4.48c0-1.64,1.16-2.3,2.6-1.47l39.21,22.63a5.72,5.72,0,0,1,2.59,4.48C1177.41,1569.39,1176.25,1570.05,1174.82,1569.22Z" fill="#90e5ff"/></g><g opacity="0.4"><path d="M1251.91,1623.36l-118-68.1a3.19,3.19,0,0,1-1.44-2.49c0-.91.65-1.28,1.44-.82l118,68.11a3.16,3.16,0,0,1,1.44,2.48C1253.35,1623.45,1252.71,1623.82,1251.91,1623.36Z" fill="#09c997"/></g><g opacity="0.5"><path d="M1150.76,1446.36l-14.68-8.48a5.12,5.12,0,0,1-2.13-4.07V1433c0-1.57,1-2.29,2.13-1.61l14.68,8.47a5.09,5.09,0,0,1,2.13,4.07v.8C1152.89,1446.31,1151.94,1447,1150.76,1446.36Zm2.13,6v-.79a5.09,5.09,0,0,0-2.13-4.07l-14.68-8.48c-1.17-.68-2.13,0-2.13,1.61v.8a5.12,5.12,0,0,0,2.13,4.07l14.68,8.47C1151.94,1454.65,1152.89,1453.93,1152.89,1452.36Zm0,7.62v-.8a5.09,5.09,0,0,0-2.13-4.07l-14.68-8.47c-1.17-.68-2.13,0-2.13,1.61v.8a5.1,5.1,0,0,0,2.13,4.06l14.68,8.48C1151.94,1462.27,1152.89,1461.55,1152.89,1460Z" fill="#90e5ff"/></g></g><path d="M1505.53,1782.07l-177.1-102.25a11.36,11.36,0,0,1-5.17-8.9V1528.83c0-3.26,2.31-4.58,5.17-2.93l177.1,102.25a11.37,11.37,0,0,1,5.17,8.9v142.08C1510.7,1782.4,1508.38,1783.72,1505.53,1782.07Z" fill="#183a5d"/><g opacity="0.05"><path d="M1510.7,1785.05l-187.44-108.21v-148c0-3.26,2.31-4.58,5.17-2.93l177.1,102.25a11.37,11.37,0,0,1,5.17,8.9Z" fill="#09c997"/></g><g opacity="0.3"><path d="M1396.73,1584.77l-24.45-14.12a1.89,1.89,0,0,1-.87-1.49c0-.54.39-.76.87-.49l24.45,14.12a1.91,1.91,0,0,1,.87,1.49C1397.6,1584.83,1397.21,1585.05,1396.73,1584.77Z" fill="#1da1dc"/></g><g opacity="0.3"><path d="M1465.39,1671.38l-124.93-72.13a2.55,2.55,0,0,1-1.16-2c0-.73.52-1,1.16-.66l124.93,72.13a2.56,2.56,0,0,1,1.15,2C1466.54,1671.45,1466,1671.75,1465.39,1671.38Z" fill="#1da1dc"/></g><g opacity="0.5"><path d="M1412.64,1612.94l-39.21-22.64a5.73,5.73,0,0,1-2.6-4.47c0-1.65,1.17-2.31,2.6-1.48l39.21,22.64a5.71,5.71,0,0,1,2.59,4.47C1415.23,1613.1,1414.07,1613.76,1412.64,1612.94Z" fill="#90e5ff"/></g><g opacity="0.3"><path d="M1379.67,1635.41l-39.21-22.63a5.71,5.71,0,0,1-2.6-4.48c0-1.64,1.16-2.3,2.6-1.47l39.21,22.63a5.72,5.72,0,0,1,2.59,4.48C1382.26,1635.58,1381.1,1636.24,1379.67,1635.41Z" fill="#90e5ff"/></g><g opacity="0.5"><path d="M1360.36,1571.12c.65,1.52.65,3,0,3.79-2.58,3-7,3.42-12.09.5s-9.5-8.46-12.09-14.46c-.65-1.52-.65-3,0-3.79,2.59-3,7-3.42,12.09-.5S1357.78,1565.12,1360.36,1571.12Z" fill="#90e5ff"/></g><g opacity="0.4"><path d="M1492.33,1659.5l-16-9.27a9.38,9.38,0,0,1-4.27-7.35h0c0-2.7,1.91-3.79,4.27-2.43l16,9.27a9.4,9.4,0,0,1,4.26,7.35h0C1496.59,1659.77,1494.68,1660.86,1492.33,1659.5Z" fill="#7a67e5" fill-rule="evenodd"/></g><g opacity="0.5"><path d="M1710.38,1900.34l-177.1-102.25a11.36,11.36,0,0,1-5.17-8.9V1647.1c0-3.27,2.31-4.58,5.17-2.93l177.1,102.25a11.36,11.36,0,0,1,5.16,8.9V1897.4C1715.54,1900.67,1713.23,1902,1710.38,1900.34Z" fill="#183a5d"/><g opacity="0.05"><path d="M1715.54,1846.9l-187.43-108.22V1647.1c0-3.27,2.31-4.58,5.17-2.93l177.1,102.25a11.36,11.36,0,0,1,5.16,8.9Z" fill="#09c997"/></g><g opacity="0.3"><path d="M1601.58,1703l-24.46-14.12a1.91,1.91,0,0,1-.86-1.49c0-.55.39-.77.86-.49l24.46,14.12a1.89,1.89,0,0,1,.86,1.49C1602.44,1703.1,1602.06,1703.32,1601.58,1703Z" fill="#1da1dc"/></g><g opacity="0.3"><path d="M1555.79,1724.9l-10.49-6.06a5.08,5.08,0,0,1-2.3-4c0-1.46,1-2,2.3-1.31l10.49,6.06a5,5,0,0,1,2.31,4C1558.1,1725,1557.07,1725.63,1555.79,1724.9Z" fill="#1da1dc"/></g><g opacity="0.3"><path d="M1700.49,1882.35l-156.84-90.55a3.16,3.16,0,0,1-1.44-2.49c0-.91.64-1.28,1.44-.82L1700.49,1879a3.2,3.2,0,0,1,1.44,2.49C1701.93,1882.44,1701.28,1882.81,1700.49,1882.35Z" fill="#1da1dc"/></g><g opacity="0.5"><path d="M1617.49,1731.21l-39.21-22.64a5.71,5.71,0,0,1-2.6-4.47c0-1.65,1.16-2.31,2.6-1.48l39.21,22.64a5.71,5.71,0,0,1,2.59,4.47C1620.08,1731.37,1618.92,1732,1617.49,1731.21Z" fill="#90e5ff"/></g><g opacity="0.3"><path d="M1562.59,1777.43l-17.29-10a2.56,2.56,0,0,1-1.15-2c0-.73.52-1,1.15-.66l17.29,10a2.56,2.56,0,0,1,1.15,2C1563.74,1777.51,1563.22,1777.8,1562.59,1777.43Z" fill="#90e5ff"/></g><g opacity="0.3"><path d="M1584.51,1805.76l-39.21-22.63a5.74,5.74,0,0,1-2.59-4.48c0-1.64,1.16-2.3,2.59-1.47l39.21,22.63a5.71,5.71,0,0,1,2.6,4.48C1587.11,1805.93,1586,1806.59,1584.51,1805.76Z" fill="#90e5ff"/></g><g opacity="0.4"><path d="M1648,1852.05l-104.36-60.25a3.16,3.16,0,0,1-1.44-2.49c0-.91.64-1.28,1.44-.82L1648,1848.75a3.16,3.16,0,0,1,1.44,2.48C1649.45,1852.14,1648.81,1852.51,1648,1852.05Z" fill="#09c997"/></g><g opacity="0.5"><path d="M1538.37,1676.76c0-4.73,3.35-6.63,7.47-4.25a11.48,11.48,0,0,1,1.2.81c1.7-1.8,4.52-2,7.71-.15,4.07,2.36,7.54,7.33,8.85,12.25a14,14,0,0,1,5.89,10.62c0,4-2.83,5.62-6.32,3.6l-17.58-10.14v0C1541.58,1687,1538.37,1681.39,1538.37,1676.76Z" fill="#90e5ff"/></g></g><polygon points="1305.85 1531.86 1305.85 1490.39 1117.47 1380.34 1118.41 1502.15 1305.85 1610.36 1305.85 1531.86" fill="url(#ae8a63db-5d3d-4828-a923-b6c944d7498d)"/><g opacity="0.5"><g opacity="0.3"><path d="M1700.49,1882.35l-156.84-90.55a3.16,3.16,0,0,1-1.44-2.49c0-.91.64-1.28,1.44-.82L1700.49,1879a3.2,3.2,0,0,1,1.44,2.49C1701.93,1882.44,1701.28,1882.81,1700.49,1882.35Z" fill="#1da1dc"/></g></g><path d="M1710.38,1900.34l-177.1-102.25a11.36,11.36,0,0,1-5.17-8.9V1647.1c0-3.27,2.31-4.58,5.17-2.93l177.1,102.25a11.36,11.36,0,0,1,5.16,8.9V1897.4C1715.54,1900.67,1713.23,1902,1710.38,1900.34Z" fill="none" stroke="#61eebb" stroke-miterlimit="10" stroke-opacity="0.15" stroke-width="1.02"/></g><path d="M1095.83,1371.46l-177.1-102.25a11.38,11.38,0,0,1-5.16-8.9V1118.22c0-3.26,2.31-4.58,5.16-2.93l177.1,102.25a11.34,11.34,0,0,1,5.17,8.9v142.08C1101,1371.79,1098.69,1373.11,1095.83,1371.46Z" fill="#183a5d"/><g opacity="0.05"><path d="M1101,1274.63,913.57,1166.42v-48.2c0-3.26,2.31-4.58,5.16-2.93l177.1,102.25a11.34,11.34,0,0,1,5.17,8.9Z" fill="#09c997"/></g><g opacity="0.3"><path d="M987,1174.16,962.58,1160a1.89,1.89,0,0,1-.87-1.49c0-.54.39-.76.87-.49L987,1172.18a1.91,1.91,0,0,1,.87,1.49C987.9,1174.22,987.51,1174.44,987,1174.16Z" fill="#1da1dc"/></g><g opacity="0.5"><path d="M1002.94,1202.33l-39.21-22.64a5.72,5.72,0,0,1-2.59-4.47c0-1.65,1.16-2.31,2.59-1.48l39.21,22.64a5.69,5.69,0,0,1,2.6,4.47C1005.54,1202.49,1004.38,1203.15,1002.94,1202.33Z" fill="#90e5ff"/></g><g opacity="0.3"><path d="M1021,1285l-27.4-15.82a2.54,2.54,0,0,1-1.15-2c0-.73.51-1,1.15-.66l27.4,15.82a2.55,2.55,0,0,1,1.16,2C1022.14,1285,1021.62,1285.32,1021,1285Z" fill="#90e5ff"/></g><g opacity="0.3"><path d="M1014.11,1272.12l-13.65-7.88a5.73,5.73,0,0,1-2.6-4.47c0-1.65,1.17-2.31,2.6-1.48l13.65,7.88a5.71,5.71,0,0,1,2.59,4.47C1016.7,1272.28,1015.54,1272.94,1014.11,1272.12Z" fill="#90e5ff"/></g><g opacity="0.5"><path d="M941.46,1145l-5.78-3.34c-1.58-.91-3-.79-3.83.33l-2.88,4.07c-.79,1.11-.79,3,0,5.07l2.88,7.4a9.73,9.73,0,0,0,3.83,4.75l5.78,3.33c1.58.91,3,.79,3.83-.32l2.89-4.07c.79-1.11.79-3,0-5.07l-2.89-7.4A9.64,9.64,0,0,0,941.46,1145Z" fill="#90e5ff"/></g><path d="M1505.53,1608l-177.1-102.25a11.38,11.38,0,0,1-5.17-8.9V1354.76c0-3.27,2.31-4.58,5.17-2.93l177.1,102.25a11.37,11.37,0,0,1,5.17,8.9v142.08C1510.7,1608.33,1508.38,1609.64,1505.53,1608Z" fill="#183a5d"/><g opacity="0.05"><path d="M1510.7,1543.17,1323.26,1435v-80.2c0-3.27,2.31-4.58,5.17-2.93l177.1,102.25a11.37,11.37,0,0,1,5.17,8.9Z" fill="#09c997"/></g><g opacity="0.3"><path d="M1396.73,1410.7l-24.45-14.12a1.89,1.89,0,0,1-.87-1.49c0-.55.39-.77.87-.49l24.45,14.12a1.91,1.91,0,0,1,.87,1.49C1397.6,1410.76,1397.21,1411,1396.73,1410.7Z" fill="#1da1dc"/></g><g opacity="0.3"><path d="M1350.94,1432.56l-10.48-6.06a5.08,5.08,0,0,1-2.31-4c0-1.46,1-2,2.31-1.31l10.48,6.06a5,5,0,0,1,2.31,4C1353.25,1432.7,1352.22,1433.29,1350.94,1432.56Z" fill="#1da1dc"/></g><g opacity="0.5"><path d="M1412.64,1438.87l-39.21-22.64a5.73,5.73,0,0,1-2.6-4.48c0-1.64,1.17-2.3,2.6-1.47l39.21,22.64a5.71,5.71,0,0,1,2.59,4.47C1415.23,1439,1414.07,1439.69,1412.64,1438.87Z" fill="#90e5ff"/></g><g opacity="0.4"><path d="M1495.64,1473.27l-.56.19a2.62,2.62,0,0,1-2.7-.27,7.18,7.18,0,0,1-2.14-2l-3.82,4a8.39,8.39,0,0,1,.56,2.78,3.17,3.17,0,0,1-1.35,3l-.45.25-3.93-6.65-5.29,1.33-.67-1.29,3.93-3.4-3.82-6.6.45-.25a3.23,3.23,0,0,1,3.26.33,8.9,8.9,0,0,1,2.14,1.88l5.39-1.26a6.59,6.59,0,0,1-.67-2.84,2.75,2.75,0,0,1,1.12-2.45l.57-.19Z" fill="#09c997" fill-rule="evenodd"/></g><g opacity="0.5"><path d="M1352.82,1388.74a4.8,4.8,0,0,0,.23-1.54,10.55,10.55,0,0,0-4.78-8.25c-2.64-1.52-4.78-.3-4.78,2.72a7.61,7.61,0,0,0,.23,1.81c-2,.48-3.3,2.4-3.3,5.42,0,5,3.51,11,7.85,13.54s7.85.5,7.85-4.47A16.66,16.66,0,0,0,1352.82,1388.74Z" fill="#90e5ff"/></g><g opacity="0.3"><path d="M1495.64,1590l-156.84-90.55a3.19,3.19,0,0,1-1.44-2.49c0-.91.65-1.28,1.44-.82l156.84,90.55a3.18,3.18,0,0,1,1.44,2.49C1497.08,1590.1,1496.44,1590.47,1495.64,1590Z" fill="#1da1dc"/></g><g opacity="0.3"><path d="M1357.74,1485.09l-17.28-10a2.51,2.51,0,0,1-1.16-2c0-.73.52-1,1.16-.66l17.28,10a2.54,2.54,0,0,1,1.15,2C1358.89,1485.17,1358.38,1485.46,1357.74,1485.09Z" fill="#90e5ff"/></g><g opacity="0.3"><path d="M1379.67,1513.42l-39.21-22.64a5.69,5.69,0,0,1-2.6-4.47c0-1.64,1.16-2.3,2.6-1.48l39.21,22.64a5.72,5.72,0,0,1,2.59,4.48C1382.26,1513.59,1381.1,1514.25,1379.67,1513.42Z" fill="#90e5ff"/></g><g opacity="0.4"><path d="M1456.76,1567.56l-118-68.1a3.19,3.19,0,0,1-1.44-2.49c0-.91.65-1.28,1.44-.82l118,68.11a3.16,3.16,0,0,1,1.44,2.48C1458.2,1567.65,1457.56,1568,1456.76,1567.56Z" fill="#09c997"/></g><path d="M1710.28,1726.21,1533.17,1624a11.38,11.38,0,0,1-5.16-8.9V1473c0-3.27,2.31-4.58,5.16-2.93l177.11,102.25a11.36,11.36,0,0,1,5.16,8.9v142.08C1715.44,1726.54,1713.13,1727.86,1710.28,1726.21Z" fill="#183a5d"/><g opacity="0.05"><path d="M1715.44,1661.38,1528,1553.17V1473c0-3.27,2.31-4.58,5.16-2.93l177.11,102.25a11.36,11.36,0,0,1,5.16,8.9Z" fill="#09c997"/></g><g opacity="0.3"><path d="M1601.48,1528.91,1577,1514.79a1.91,1.91,0,0,1-.86-1.49c0-.54.39-.76.86-.49l24.46,14.12a1.89,1.89,0,0,1,.86,1.49C1602.34,1529,1602,1529.19,1601.48,1528.91Z" fill="#1da1dc"/></g><g opacity="0.3"><path d="M1555.69,1550.77l-10.49-6.06a5.06,5.06,0,0,1-2.3-4c0-1.47,1-2,2.3-1.32l10.49,6.06a5,5,0,0,1,2.31,4C1558,1550.91,1557,1551.5,1555.69,1550.77Z" fill="#1da1dc"/></g><g opacity="0.5"><path d="M1617.39,1557.08l-39.21-22.64a5.71,5.71,0,0,1-2.6-4.47c0-1.65,1.16-2.31,2.6-1.48l39.21,22.64a5.71,5.71,0,0,1,2.59,4.47C1620,1557.24,1618.82,1557.9,1617.39,1557.08Z" fill="#90e5ff"/></g><g opacity="0.4"><path d="M1700.39,1591.48l-.56.19a2.62,2.62,0,0,1-2.7-.27,6.94,6.94,0,0,1-2.14-2l-3.82,4a8.65,8.65,0,0,1,.56,2.78,3.16,3.16,0,0,1-1.35,3l-.45.25-3.94-6.65-5.28,1.33-.68-1.29,3.94-3.4-3.83-6.59.45-.26a3.23,3.23,0,0,1,3.27.34,8.6,8.6,0,0,1,2.13,1.87l5.4-1.26a6.59,6.59,0,0,1-.67-2.84,2.75,2.75,0,0,1,1.12-2.45l.56-.19Z" fill="#09c997" fill-rule="evenodd"/></g><g opacity="0.3"><path d="M1700.39,1708.22l-156.84-90.55a3.16,3.16,0,0,1-1.44-2.49c0-.91.64-1.28,1.44-.82l156.84,90.55a3.2,3.2,0,0,1,1.44,2.49C1701.83,1708.31,1701.18,1708.68,1700.39,1708.22Z" fill="#1da1dc"/></g><g opacity="0.3"><path d="M1562.49,1603.3l-17.29-10a2.56,2.56,0,0,1-1.15-2c0-.73.52-1,1.15-.66l17.29,10a2.56,2.56,0,0,1,1.15,2C1563.64,1603.38,1563.12,1603.67,1562.49,1603.3Z" fill="#90e5ff"/></g><g opacity="0.3"><path d="M1584.41,1631.63,1545.2,1609a5.72,5.72,0,0,1-2.59-4.48c0-1.64,1.16-2.3,2.59-1.47l39.21,22.63a5.71,5.71,0,0,1,2.6,4.48C1587,1631.8,1585.85,1632.46,1584.41,1631.63Z" fill="#90e5ff"/></g><g opacity="0.4"><path d="M1661.51,1685.77l-118-68.1a3.16,3.16,0,0,1-1.44-2.49c0-.91.64-1.28,1.44-.82l118,68.11A3.19,3.19,0,0,1,1663,1685C1663,1685.86,1662.3,1686.23,1661.51,1685.77Z" fill="#09c997"/></g><g opacity="0.5"><path d="M1554.5,1520.57l-11.72-6.77a4.09,4.09,0,0,1-1.86-3.21v-18.27c0-1.18.83-1.66,1.86-1.06l19.11,11c1.36.78,2.26,2.92,1.69,4l-7.39,14C1555.89,1520.89,1555.23,1521,1554.5,1520.57Z" fill="#90e5ff"/></g><g opacity="0.25"><path d="M936.36,923.5l-20.53-11.86a5.69,5.69,0,0,1-2.6-4.47c0-1.64,1.16-2.3,2.6-1.48l20.53,11.86A5.71,5.71,0,0,1,939,922C939,923.66,937.8,924.33,936.36,923.5Z" fill="#90e5ff"/></g><g opacity="0.5"><path d="M974.81,945.69l-20.54-11.85a5.72,5.72,0,0,1-2.59-4.47c0-1.65,1.16-2.31,2.59-1.48l20.54,11.85a5.74,5.74,0,0,1,2.59,4.48C977.4,945.86,976.24,946.52,974.81,945.69Z" fill="#90e5ff"/></g><g opacity="0.5"><path d="M976.54,954.74l-24-13.85a1.89,1.89,0,0,1-.86-1.49c0-.55.38-.77.86-.49l24,13.85a1.89,1.89,0,0,1,.86,1.49C977.4,954.8,977,955,976.54,954.74Z" fill="#09c997"/></g><g opacity="0.25"><path d="M1013.25,967.89,992.72,956a5.71,5.71,0,0,1-2.6-4.48c0-1.64,1.16-2.3,2.6-1.47l20.53,11.85a5.73,5.73,0,0,1,2.6,4.47C1015.85,968.06,1014.68,968.72,1013.25,967.89Z" fill="#90e5ff"/></g><g opacity="0.25"><path d="M1051.7,990.09l-20.54-11.86a5.72,5.72,0,0,1-2.59-4.47c0-1.64,1.16-2.31,2.59-1.48l20.54,11.86a5.71,5.71,0,0,1,2.59,4.47C1054.29,990.25,1053.13,990.91,1051.7,990.09Z" fill="#90e5ff"/></g><path d="M1300.68,1489.73l-177.1-102.25a11.39,11.39,0,0,1-5.17-8.9V1236.49c0-3.27,2.32-4.58,5.17-2.93l177.1,102.25a11.37,11.37,0,0,1,5.17,8.9v142.08C1305.85,1490.06,1303.53,1491.38,1300.68,1489.73Z" fill="#10141b" opacity="0.31"/><path d="M1300.68,1489.73l-177.1-102.25a11.39,11.39,0,0,1-5.17-8.9V1236.49c0-3.27,2.32-4.58,5.17-2.93l177.1,102.25a11.37,11.37,0,0,1,5.17,8.9v142.08C1305.85,1490.06,1303.53,1491.38,1300.68,1489.73Z" fill="none" stroke="#10141b" stroke-miterlimit="10" stroke-width="1.02"/><path d="M1300.68,1489.73l-177.1-102.25a11.39,11.39,0,0,1-5.17-8.9V1236.49c0-3.27,2.32-4.58,5.17-2.93l177.1,102.25a11.37,11.37,0,0,1,5.17,8.9v142.08C1305.85,1490.06,1303.53,1491.38,1300.68,1489.73Z" fill="none" stroke="#10141b" stroke-miterlimit="10" stroke-width="1.02"/><path d="M1305.85,1344.71v142.08c0,2.06-.93,3.35-2.33,3.6l-45,25.61-61.61-86.2L1118.42,1320l-43.75-61.21,45.19-25.58a.24.24,0,0,1,.11-.06,3.64,3.64,0,0,1,3.61.38l177.1,102.25A11.41,11.41,0,0,1,1305.85,1344.71Z" fill="url(#e1bacc80-d796-406e-afb7-ffc058ccc179)"/><path d="M1305.85,1344.71v142.08c0,2.06-.93,3.35-2.33,3.6l-45,25.61-61.61-86.2L1118.42,1320l-43.75-61.21,45.19-25.58a.24.24,0,0,1,.11-.06,3.64,3.64,0,0,1,3.61.38l177.1,102.25A11.41,11.41,0,0,1,1305.85,1344.71Z" fill="url(#e397f568-594d-4b4f-a53e-aba58ed024ad)"/><path d="M1255.11,1515.49,1078,1413.24a11.36,11.36,0,0,1-5.16-8.9V1262.26c0-3.27,2.31-4.58,5.16-2.94l177.1,102.25a11.38,11.38,0,0,1,5.17,8.9v142.09C1260.28,1515.83,1258,1517.14,1255.11,1515.49Z" fill="#114b6d"/><path d="M1255.11,1515.49,1078,1413.24a11.36,11.36,0,0,1-5.16-8.9V1262.26c0-3.27,2.31-4.58,5.16-2.94l177.1,102.25a11.38,11.38,0,0,1,5.17,8.9v142.09C1260.28,1515.83,1258,1517.14,1255.11,1515.49Z" fill="#114b6d"/><g opacity="0.25"><path d="M1255.11,1515.49,1078,1413.24a11.36,11.36,0,0,1-5.16-8.9V1262.26c0-3.27,2.31-4.58,5.16-2.94l177.1,102.25a11.38,11.38,0,0,1,5.17,8.9v142.09C1260.28,1515.83,1258,1517.14,1255.11,1515.49Z" fill="none" stroke="#61eebb" stroke-miterlimit="10" stroke-width="1.02"/></g><g opacity="0.3"><path d="M1180.26,1429l-27.4-15.82a2.5,2.5,0,0,1-1.15-2c0-.73.51-1,1.15-.66l27.4,15.82a2.55,2.55,0,0,1,1.16,2C1181.42,1429.06,1180.9,1429.35,1180.26,1429Z" fill="#90e5ff"/></g><g opacity="0.3"><path d="M1173.39,1416.15l-13.65-7.88a5.72,5.72,0,0,1-2.6-4.47c0-1.64,1.17-2.3,2.6-1.48l13.65,7.88a5.72,5.72,0,0,1,2.59,4.48C1176,1416.32,1174.82,1417,1173.39,1416.15Z" fill="#90e5ff"/></g><g opacity="0.05"><path d="M1260.28,1418.67l-187.43-108.22v-48.19c0-3.27,2.31-4.58,5.16-2.94l177.1,102.25a11.38,11.38,0,0,1,5.17,8.9Z" fill="#09c997"/></g><g opacity="0.3"><path d="M1146.31,1318.2l-24.45-14.12a1.91,1.91,0,0,1-.87-1.49c0-.55.39-.77.87-.49l24.45,14.12a1.89,1.89,0,0,1,.87,1.49C1147.18,1318.26,1146.79,1318.48,1146.31,1318.2Z" fill="#1da1dc"/></g><g opacity="0.5"><path d="M1162.22,1346.36,1123,1323.73a5.74,5.74,0,0,1-2.59-4.48c0-1.64,1.16-2.3,2.59-1.47l39.21,22.63a5.71,5.71,0,0,1,2.6,4.48C1164.82,1346.53,1163.66,1347.19,1162.22,1346.36Z" fill="#90e5ff"/></g><g opacity="0.5"><path d="M1093.06,1306.23l-3.74-2.16a3.75,3.75,0,0,1-1.57-3v-17.62c0-1.15.7-1.68,1.57-1.18l3.74,2.16a3.75,3.75,0,0,1,1.58,3v17.62C1094.64,1306.2,1093.93,1306.74,1093.06,1306.23Zm8.25,2.67v-17.62a3.77,3.77,0,0,0-1.57-3l-1.44-.83c-.86-.5-1.57,0-1.57,1.19v17.62a3.79,3.79,0,0,0,1.57,3l1.44.83C1100.6,1310.59,1101.31,1310.06,1101.31,1308.9Zm6.74,3.89v-17.61a3.76,3.76,0,0,0-1.57-3l-1.43-.82c-.87-.51-1.57,0-1.57,1.18v17.62a3.75,3.75,0,0,0,1.57,3l1.43.83C1107.35,1314.48,1108.05,1314,1108.05,1312.79Z" fill="#90e5ff"/></g><line x1="1076.11" y1="1259.08" x2="1253.28" y2="1361.64" fill="none" stroke="#1da1dc" stroke-linecap="round" stroke-miterlimit="10" stroke-opacity="0.3" stroke-width="2.41"/><polygon points="1393.31 1110.58 1314.28 1064.94 1314.28 1051.73 1393.31 1097.36 1393.31 1110.58" fill="#10141b" fill-opacity="0.31"/><polygon points="1387.29 1114.89 1308.25 1069.25 1308.25 1056.04 1387.29 1101.67 1387.29 1114.89" fill="#114b6d"/><path d="M1505.53,1433.93l-177.1-102.25a11.38,11.38,0,0,1-5.17-8.91V1180.69c0-3.27,2.31-4.58,5.17-2.94L1505.53,1280a11.37,11.37,0,0,1,5.17,8.9V1431C1510.7,1434.26,1508.38,1435.57,1505.53,1433.93Z" fill="none" stroke="#61eebb" stroke-miterlimit="10" stroke-opacity="0.1" stroke-width="1.02"/><path d="M1510.7,1288.6v142.08c0,2.07-.93,3.36-2.33,3.61l-22.91,12.82-83.73-73.41-78.47-109.79-24.54-74.39,26-12.39a.24.24,0,0,1,.12-.07,3.67,3.67,0,0,1,3.61.39l177.1,102.25A11.4,11.4,0,0,1,1510.7,1288.6Z" fill="url(#a8d5fd8b-2a20-4f2d-840e-6ef4e277936a)"/><line x1="1304.73" y1="1192.09" x2="1481.9" y2="1294.65" fill="none" stroke="#1da1dc" stroke-linecap="round" stroke-miterlimit="10" stroke-opacity="0.3" stroke-width="2.41"/><path d="M1481,1446.41l-177.1-102.26a11.36,11.36,0,0,1-5.16-8.9V1193.17c0-3.27,2.31-4.58,5.16-2.94L1481,1292.48a11.38,11.38,0,0,1,5.17,8.9v142.09C1486.15,1446.74,1483.84,1448.05,1481,1446.41Z" fill="#114b6d"/><path d="M1481,1446.41l-177.1-102.26a11.36,11.36,0,0,1-5.16-8.9V1193.17c0-3.27,2.31-4.58,5.16-2.94L1481,1292.48a11.38,11.38,0,0,1,5.17,8.9v142.09C1486.15,1446.74,1483.84,1448.05,1481,1446.41Z" fill="#114b6d"/><path d="M1486.15,1381.58l-187.43-108.22v-80.19c0-3.27,2.31-4.58,5.16-2.94L1481,1292.48a11.38,11.38,0,0,1,5.17,8.9Z" fill="#114b6d"/><path d="M1372.18,1249.11,1347.73,1235a1.91,1.91,0,0,1-.87-1.49c0-.55.39-.77.87-.49l24.45,14.12a1.89,1.89,0,0,1,.87,1.49C1373.05,1249.17,1372.66,1249.39,1372.18,1249.11Z" fill="#114b6d"/><path d="M1326.4,1271l-10.49-6a5.11,5.11,0,0,1-2.31-4c0-1.46,1-2,2.31-1.31l10.49,6.05a5.11,5.11,0,0,1,2.31,4C1328.71,1271.11,1327.67,1271.7,1326.4,1271Z" fill="#114b6d"/><path d="M1376.77,1374l-62.51-36.09a3.19,3.19,0,0,1-1.45-2.49c0-.91.65-1.28,1.45-.82l62.51,36.09a3.18,3.18,0,0,1,1.44,2.49C1378.21,1374.05,1377.57,1374.42,1376.77,1374Z" fill="#114b6d"/><path d="M1388.09,1277.27l-39.21-22.63a5.72,5.72,0,0,1-2.59-4.48c0-1.64,1.16-2.3,2.59-1.47l39.21,22.63a5.71,5.71,0,0,1,2.6,4.48C1390.69,1277.44,1389.53,1278.1,1388.09,1277.27Z" fill="#114b6d"/><path d="M1333.19,1323.5l-17.28-10a2.54,2.54,0,0,1-1.15-2c0-.73.51-1,1.15-.65l17.28,10a2.51,2.51,0,0,1,1.16,2C1334.35,1323.57,1333.83,1323.87,1333.19,1323.5Z" fill="#114b6d"/><path d="M1355.12,1351.83l-39.21-22.64a5.73,5.73,0,0,1-2.6-4.47c0-1.64,1.17-2.31,2.6-1.48l39.21,22.64a5.72,5.72,0,0,1,2.59,4.47C1357.71,1352,1356.55,1352.66,1355.12,1351.83Z" fill="#114b6d"/><path d="M1354.52,1361.11l-40.26-23.24a3.19,3.19,0,0,1-1.45-2.49c0-.91.65-1.28,1.45-.82l40.26,23.25a3.17,3.17,0,0,1,1.45,2.48C1356,1361.21,1355.32,1361.57,1354.52,1361.11Z" fill="#114b6d"/><path d="M1466.92,1426l-62.51-36.09a3.18,3.18,0,0,1-1.44-2.49c0-.91.64-1.28,1.44-.82l62.51,36.09a3.19,3.19,0,0,1,1.45,2.49C1468.37,1426.1,1467.72,1426.47,1466.92,1426Z" fill="#114b6d"/><path d="M1423.34,1375.55l-17.28-10a2.56,2.56,0,0,1-1.15-2c0-.73.52-1,1.15-.65l17.28,10a2.55,2.55,0,0,1,1.16,2C1424.5,1375.62,1424,1375.92,1423.34,1375.55Z" fill="#114b6d"/><path d="M1445.27,1403.88l-39.21-22.64a5.72,5.72,0,0,1-2.59-4.47c0-1.64,1.16-2.31,2.59-1.48l39.21,22.64a5.71,5.71,0,0,1,2.6,4.47C1447.87,1404.05,1446.71,1404.71,1445.27,1403.88Z" fill="#114b6d"/><path d="M1444.68,1413.16l-40.27-23.24a3.18,3.18,0,0,1-1.44-2.49c0-.91.64-1.28,1.44-.82l40.27,23.25a3.19,3.19,0,0,1,1.44,2.48C1446.12,1413.26,1445.47,1413.62,1444.68,1413.16Z" fill="#114b6d"/><path d="M1471.09,1311.67l-.56.19a2.61,2.61,0,0,1-2.7-.26,7.28,7.28,0,0,1-2.13-2l-3.83,4a8.38,8.38,0,0,1,.56,2.77,3.16,3.16,0,0,1-1.34,3l-.45.26-3.94-6.66-5.29,1.33-.67-1.29,3.93-3.4-3.82-6.59.45-.25a3.2,3.2,0,0,1,3.26.33,8.69,8.69,0,0,1,2.14,1.88l5.4-1.27a6.54,6.54,0,0,1-.68-2.84,2.7,2.7,0,0,1,1.13-2.44l.56-.19Z" fill="#114b6d"/><path d="M1471.09,1311.67l-.56.19a2.61,2.61,0,0,1-2.7-.26,7.28,7.28,0,0,1-2.13-2l-3.83,4a8.38,8.38,0,0,1,.56,2.77,3.16,3.16,0,0,1-1.34,3l-.45.26-3.94-6.66-5.29,1.33-.67-1.29,3.93-3.4-3.82-6.59.45-.25a3.2,3.2,0,0,1,3.26.33,8.69,8.69,0,0,1,2.14,1.88l5.4-1.27a6.54,6.54,0,0,1-.68-2.84,2.7,2.7,0,0,1,1.13-2.44l.56-.19Z" fill="#114b6d"/><path d="M1466.47,1315.23l-.56.19a2.64,2.64,0,0,1-2.7-.27,7.18,7.18,0,0,1-2.14-2l-3.82,4a8.39,8.39,0,0,1,.56,2.78,3.14,3.14,0,0,1-1.35,2.95l-.45.26-3.93-6.65-5.29,1.33-.67-1.29,3.93-3.41-3.82-6.59.45-.25a3.23,3.23,0,0,1,3.26.33,8.9,8.9,0,0,1,2.14,1.88l5.4-1.26a6.61,6.61,0,0,1-.68-2.84,2.73,2.73,0,0,1,1.13-2.45l.56-.19Z" fill="#114b6d"/><path d="M1320.49,1218.37l-6.77,9.54c-1.44,2,.36,6.63,3.23,8.29l13.55,7.81c2.87,1.66,4.66-.86,3.23-4.55l-6.77-17.35C1325.52,1218.43,1321.93,1216.35,1320.49,1218.37Z" fill="#114b6d"/><path d="M1320.49,1218.37l-6.77,9.54c-1.44,2,.36,6.63,3.23,8.29l13.55,7.81c2.87,1.66,4.66-.86,3.23-4.55l-6.77-17.35C1325.52,1218.43,1321.93,1216.35,1320.49,1218.37Z" fill="#114b6d"/><path d="M1315,1220.2l-6.77,9.54c-1.44,2,.36,6.63,3.23,8.28l13.55,7.82c2.87,1.66,4.67-.87,3.23-4.55l-6.77-17.35C1320,1220.25,1316.4,1218.18,1315,1220.2Z" fill="#114b6d"/><path d="M1481,1446.41l-177.1-102.26a11.36,11.36,0,0,1-5.16-8.9V1193.17c0-3.27,2.31-4.58,5.16-2.94L1481,1292.48a11.38,11.38,0,0,1,5.17,8.9v142.09C1486.15,1446.74,1483.84,1448.05,1481,1446.41Z" fill="#114b6d"/><path d="M1481,1446.41l-177.1-102.26a11.36,11.36,0,0,1-5.16-8.9V1193.17c0-3.27,2.31-4.58,5.16-2.94L1481,1292.48a11.38,11.38,0,0,1,5.17,8.9v142.09C1486.15,1446.74,1483.84,1448.05,1481,1446.41Z" fill="none" stroke="#09c997" stroke-miterlimit="10" stroke-width="1.02" opacity="0.15"/><g opacity="0.05"><path d="M1486.15,1381.58l-187.43-108.22v-80.19c0-3.27,2.31-4.58,5.16-2.94L1481,1292.48a11.38,11.38,0,0,1,5.17,8.9Z" fill="#09c997"/></g><g opacity="0.3"><path d="M1372.18,1249.11,1347.73,1235a1.91,1.91,0,0,1-.87-1.49c0-.55.39-.77.87-.49l24.45,14.12a1.89,1.89,0,0,1,.87,1.49C1373.05,1249.17,1372.66,1249.39,1372.18,1249.11Z" fill="#1da1dc"/></g><g opacity="0.3"><path d="M1326.4,1271l-10.49-6a5.11,5.11,0,0,1-2.31-4c0-1.46,1-2,2.31-1.31l10.49,6.05a5.11,5.11,0,0,1,2.31,4C1328.71,1271.11,1327.67,1271.7,1326.4,1271Z" fill="#1da1dc"/></g><g opacity="0.3"><path d="M1376.77,1374l-62.51-36.09a3.19,3.19,0,0,1-1.45-2.49c0-.91.65-1.28,1.45-.82l62.51,36.09a3.18,3.18,0,0,1,1.44,2.49C1378.21,1374.05,1377.57,1374.42,1376.77,1374Z" fill="#1da1dc"/></g><g opacity="0.5"><path d="M1388.09,1277.27l-39.21-22.63a5.72,5.72,0,0,1-2.59-4.48c0-1.64,1.16-2.3,2.59-1.47l39.21,22.63a5.71,5.71,0,0,1,2.6,4.48C1390.69,1277.44,1389.53,1278.1,1388.09,1277.27Z" fill="#90e5ff"/></g><g opacity="0.3"><path d="M1333.19,1323.5l-17.28-10a2.54,2.54,0,0,1-1.15-2c0-.73.51-1,1.15-.65l17.28,10a2.51,2.51,0,0,1,1.16,2C1334.35,1323.57,1333.83,1323.87,1333.19,1323.5Z" fill="#90e5ff"/></g><g opacity="0.3"><path d="M1355.12,1351.83l-39.21-22.64a5.73,5.73,0,0,1-2.6-4.47c0-1.64,1.17-2.31,2.6-1.48l39.21,22.64a5.72,5.72,0,0,1,2.59,4.47C1357.71,1352,1356.55,1352.66,1355.12,1351.83Z" fill="#90e5ff"/></g><g opacity="0.4"><path d="M1354.52,1361.11l-40.26-23.24a3.19,3.19,0,0,1-1.45-2.49c0-.91.65-1.28,1.45-.82l40.26,23.25a3.17,3.17,0,0,1,1.45,2.48C1356,1361.21,1355.32,1361.57,1354.52,1361.11Z" fill="#09c997"/></g><g opacity="0.3"><path d="M1466.92,1426l-62.51-36.09a3.18,3.18,0,0,1-1.44-2.49c0-.91.64-1.28,1.44-.82l62.51,36.09a3.19,3.19,0,0,1,1.45,2.49C1468.37,1426.1,1467.72,1426.47,1466.92,1426Z" fill="#1da1dc"/></g><g opacity="0.3"><path d="M1423.34,1375.55l-17.28-10a2.56,2.56,0,0,1-1.15-2c0-.73.52-1,1.15-.65l17.28,10a2.55,2.55,0,0,1,1.16,2C1424.5,1375.62,1424,1375.92,1423.34,1375.55Z" fill="#90e5ff"/></g><g opacity="0.3"><path d="M1445.27,1403.88l-39.21-22.64a5.72,5.72,0,0,1-2.59-4.47c0-1.64,1.16-2.31,2.59-1.48l39.21,22.64a5.71,5.71,0,0,1,2.6,4.47C1447.87,1404.05,1446.71,1404.71,1445.27,1403.88Z" fill="#90e5ff"/></g><g opacity="0.4"><path d="M1444.68,1413.16l-40.27-23.24a3.18,3.18,0,0,1-1.44-2.49c0-.91.64-1.28,1.44-.82l40.27,23.25a3.19,3.19,0,0,1,1.44,2.48C1446.12,1413.26,1445.47,1413.62,1444.68,1413.16Z" fill="#09c997"/></g><path d="M1471.09,1311.67l-.56.19a2.61,2.61,0,0,1-2.7-.26,7.28,7.28,0,0,1-2.13-2l-3.83,4a8.38,8.38,0,0,1,.56,2.77,3.16,3.16,0,0,1-1.34,3l-.45.26-3.94-6.66-5.29,1.33-.67-1.29,3.93-3.4-3.82-6.59.45-.25a3.2,3.2,0,0,1,3.26.33,8.69,8.69,0,0,1,2.14,1.88l5.4-1.27a6.54,6.54,0,0,1-.68-2.84,2.7,2.7,0,0,1,1.13-2.44l.56-.19Z" fill="#10141b" opacity="0.2"/><g opacity="0.4"><path d="M1466.47,1315.23l-.56.19a2.64,2.64,0,0,1-2.7-.27,7.18,7.18,0,0,1-2.14-2l-3.82,4a8.39,8.39,0,0,1,.56,2.78,3.14,3.14,0,0,1-1.35,2.95l-.45.26-3.93-6.65-5.29,1.33-.67-1.29,3.93-3.41-3.82-6.59.45-.25a3.23,3.23,0,0,1,3.26.33,8.9,8.9,0,0,1,2.14,1.88l5.4-1.26a6.61,6.61,0,0,1-.68-2.84,2.73,2.73,0,0,1,1.13-2.45l.56-.19Z" fill="#09c997" fill-rule="evenodd"/></g><g opacity="0.5"><path d="M1320.49,1218.37l-6.77,9.54c-1.44,2,.36,6.63,3.23,8.29l13.55,7.81c2.87,1.66,4.66-.86,3.23-4.55l-6.77-17.35C1325.52,1218.43,1321.93,1216.35,1320.49,1218.37Z" fill="#10141b" opacity="0.2"/></g><g opacity="0.5"><path d="M1315,1220.2l-6.77,9.54c-1.44,2,.36,6.63,3.23,8.28l13.55,7.82c2.87,1.66,4.67-.87,3.23-4.55l-6.77-17.35C1320,1220.25,1316.4,1218.18,1315,1220.2Z" fill="#90e5ff"/></g></g><g id="ae370e64-ba52-43c0-bc49-398cf2fead26" data-name="Woman"><g id="eba17be9-bda2-4798-83ec-2d6524f102fd" data-name="Woman"><polygon points="1146.63 1360.45 1130.34 1340.03 1144.81 1324.11 1146.14 1322.38 1146.63 1360.45" fill="url(#b3d6d6ee-5252-4b1c-8d0c-781e4ec18e2a)"/><polygon points="1137.36 1356.4 1123.32 1358.16 1137.36 1302.43 1137.36 1302.43 1137.36 1356.4" fill="url(#a837bd4b-3094-4f5b-9aea-8736f7f39370)"/><path d="M1216.84,1404.46c.88-.74,25.91-6.38,25.91-6.38v33l-9.08,5.35-23.46-12.36Z" fill="url(#b7cc2746-ac47-4ca9-8682-a635d84612e4)"/><g id="eb28b66b-c8f6-44da-aebf-9f8121d27dc2" data-name="Shadow"><use width="126.04" height="72.77" transform="translate(877.92 1824.52) scale(3.01)" xlink:href="#f5d824b6-23df-4435-bf51-0f423dbbaf78"/><use width="269.17" height="73.98" transform="translate(1020.69 1927.74) scale(1.02)" xlink:href="#a7a1d108-eb5f-40bf-a523-a333e2265c92"/><use width="126.04" height="72.77" transform="translate(924.65 1905.25) scale(0.68)" xlink:href="#f5d824b6-23df-4435-bf51-0f423dbbaf78"/></g><path d="M960,1863.43q-3.71,4-2.84,11.93l2.54,45.08q-.06,19.63,7.06,10.76L996,1876.83l21.93-22.69-8.43-35.33Z" fill="#3cb3a3"/><path id="b2c135b2-8d2b-4166-9ed6-4907eb787d4b" data-name="WOMAN 0 Layer0 4 MEMBER 1 1 STROKES" d="M962.57,1861.14q16.42,6.15,7,65" fill="none" stroke="#fff" stroke-linecap="round" stroke-linejoin="round" stroke-width="1.02"/><path id="b068e331-0135-4214-a987-dad0e936c821" data-name="WOMAN 0 Layer0 4 MEMBER 2 1 STROKES" d="M972.73,1883q8.31-26.61-.66-30.41" fill="none" stroke="#fff" stroke-linecap="round" stroke-linejoin="round" stroke-width="1.02"/><path id="a3fa783b-1f11-4585-bad0-6fa1d03e78df" data-name="WOMAN 0 Layer0 4 MEMBER 3 1 STROKES" d="M972.42,1903.38a23.31,23.31,0,0,1,3.66,10.51" fill="none" stroke="#fff" stroke-linecap="round" stroke-linejoin="round" stroke-width="1.02"/><path id="affb1a23-03c8-456e-a610-3534301c4b3d" data-name="WOMAN 0 Layer0 4 MEMBER 4 1 STROKES" d="M998.77,1857.54a33.44,33.44,0,0,1,2.84,13.5" fill="none" stroke="#fff" stroke-linecap="round" stroke-linejoin="round" stroke-width="1.02"/><path id="a4bdd808-8b96-478f-b911-89e3eef01fd4" data-name="WOMAN 0 Layer0 4 MEMBER 5 1 STROKES" d="M993.69,1875.51a2.94,2.94,0,0,1-2.84,2.84,2.78,2.78,0,0,1-2-.86,2.69,2.69,0,0,1-.81-2,2.77,2.77,0,0,1,2.84-2.84,2.69,2.69,0,0,1,2,.81A2.78,2.78,0,0,1,993.69,1875.51Z" fill="none" stroke="#fff" stroke-linecap="round" stroke-linejoin="round" stroke-width="1.02"/><path id="f21905ed-ca3c-4a85-9d64-28df97684b42" data-name="WOMAN 0 Layer0 4 MEMBER 6 1 STROKES" d="M989.27,1882.92a2.94,2.94,0,0,1-2.84,2.84,2.76,2.76,0,0,1-2-.86,2.69,2.69,0,0,1-.81-2,2.77,2.77,0,0,1,2.84-2.84,2.69,2.69,0,0,1,2,.81A2.76,2.76,0,0,1,989.27,1882.92Z" fill="none" stroke="#fff" stroke-linecap="round" stroke-linejoin="round" stroke-width="1.02"/><path id="bde2b5af-cb4c-472b-a766-90fcb0956c65" data-name="WOMAN 0 Layer0 15 1 STROKES" d="M993.84,1881.5a30.34,30.34,0,0,1,7,8.73q2.68,5.13-.46,6.09-3,.92-5.18-6.24Q993.19,1883.53,993.84,1881.5Z" fill="none" stroke="#36f" stroke-linecap="round" stroke-linejoin="round" stroke-width="1.02"/><path id="a6f80225-e394-48ea-95bb-00ce878e0068" data-name="WOMAN 0 Layer0 16 1 STROKES" d="M992.48,1882.72q1.82,7.92,1.67,11.31a20.63,20.63,0,0,1-1.48,6.79q-1.35,3.39-1.92-2.77T992.48,1882.72Z" fill="none" stroke="#36f" stroke-linecap="round" stroke-linejoin="round" stroke-width="1.02"/><path d="M1084.1,1939.52v-31.78h-29.8l.31,54.07q-1.5,14.07,10.35,11a432.88,432.88,0,0,0,50.57-17.77q11-5.93-1-8.78Z" fill="#3cb3a3"/><path id="b7cf84b7-5d06-44ba-ad51-ea6ef40af55a" data-name="WOMAN 0 Layer0 7 MEMBER 1 1 STROKES" d="M1055.42,1970.24q44.14-8.58,65.23-20.82" fill="none" stroke="#fff" stroke-linecap="round" stroke-linejoin="round" stroke-width="1.02"/><path id="e2c4380d-0305-469f-b0d5-4d63275788f5" data-name="WOMAN 0 Layer0 7 MEMBER 2 1 STROKES" d="M1054.56,1952q14,3.79,25.84,16.09" fill="none" stroke="#fff" stroke-linecap="round" stroke-linejoin="round" stroke-width="1.02"/><path id="bbec7070-af49-41b4-ad61-8189a3a01e44" data-name="WOMAN 0 Layer0 7 MEMBER 3 1 STROKES" d="M1092.63,1941.35q11.41,5.4,11.63,18.28" fill="none" stroke="#fff" stroke-linecap="round" stroke-linejoin="round" stroke-width="1.02"/><path id="b07305e6-ba7a-4e18-9f41-ef9907686f48" data-name="WOMAN 0 Layer0 7 MEMBER 4 1 STROKES" d="M1091.82,1946.58a2.94,2.94,0,0,1-2.84,2.84,2.75,2.75,0,0,1-2-.86,2.66,2.66,0,0,1-.82-2,2.82,2.82,0,0,1,.82-2,2.86,2.86,0,0,1,2-.81,2.71,2.71,0,0,1,2,.81A2.78,2.78,0,0,1,1091.82,1946.58Z" fill="none" stroke="#fff" stroke-linecap="round" stroke-linejoin="round" stroke-width="1.02"/><path id="a62ea128-061a-4677-840d-01be81b1b677" data-name="WOMAN 0 Layer0 7 MEMBER 5 1 STROKES" d="M1084.31,1944.19a3,3,0,0,1-2.85,2.85,2.79,2.79,0,0,1-2-.87,2.69,2.69,0,0,1-.81-2,2.77,2.77,0,0,1,2.84-2.84,2.69,2.69,0,0,1,2,.81A2.79,2.79,0,0,1,1084.31,1944.19Z" fill="none" stroke="#fff" stroke-linecap="round" stroke-linejoin="round" stroke-width="1.02"/><path id="b1d36a0a-4b16-4207-bb80-4b9e97be7b08" data-name="WOMAN 0 Layer0 7 MEMBER 6 1 STROKES" d="M1054.46,1934.75a81.56,81.56,0,0,0,29.64-4.47" fill="none" stroke="#fff" stroke-linecap="round" stroke-linejoin="round" stroke-width="1.02"/><path id="a14069ac-ce3b-4e1a-8053-d6013c5a96f0" data-name="WOMAN 0 Layer0 7 MEMBER 7 1 STROKES" d="M1085.32,1939.68a20.79,20.79,0,0,1,3.86-6.5c1.76-1.93,3.45-2.57,5-1.91s1,2.23-1.65,4.7S1087.46,1939.68,1085.32,1939.68Z" fill="none" stroke="#36f" stroke-linecap="round" stroke-linejoin="round" stroke-width="1.02"/><path id="f93915cb-a4a0-4be5-9233-db67d64f5e89" data-name="WOMAN 0 Layer0 7 MEMBER 8 1 STROKES" d="M1087.05,1939.42q10.88-3,13.7-2.33" fill="none" stroke="#36f" stroke-linecap="round" stroke-linejoin="round" stroke-width="1.02"/><path d="M1132.13,1333.65H1118l-36.9,105q-49.66-29.39-90.47-34.93-9.93,7.35,0,23.2l112.75,50.92Q1123.26,1423.78,1132.13,1333.65Z" fill="#e5f4fa"/><path d="M1132.13,1333.65H1118l-36.9,105q-49.66-29.39-90.47-34.93-9.93,7.35,0,23.2l112.75,50.92Q1123.26,1423.78,1132.13,1333.65Z" fill="url(#b6cc8d9d-20f6-459d-966f-e3f4df8d66a3)"/><path d="M997.48,1334.63q22.93-19.53,42.3-6.63,5.67,4.47,7.11,18.5l5.14,4.87q3.39,6.26,1.64,23.85-2.75,3.27-13.21,6a144.45,144.45,0,0,1,2.09,35.34l-27.43,3.44,1.18-38Q985.71,1362,997.48,1334.63Z" fill="#ffa3ab"/><path d="M1036.74,1378.56a37.68,37.68,0,0,0,15.69-2.14q-3.48,2.61-12,4.84a.81.81,0,0,0,.1.29A13.56,13.56,0,0,1,1036.74,1378.56Z" fill="#e86f8a"/><path d="M1083.6,1598.64l-6.91-43.15,14.17-83.36q4.37-21.48-10.82-34.26-44.22-37.26-89.45-34.12-11,4.32-4.72,35.18l20.61,101.58-15.89,27Z" fill="#fff"/><path d="M1083.6,1598.64l-6.91-43.15,14.17-83.36q4.37-21.48-10.82-34.26-44.22-37.26-89.45-34.12-11,4.32-4.72,35.18l20.61,101.58-15.89,27Z" fill="url(#a685effb-3373-44bc-9269-1cc6090b4dca)"/><path d="M1045.88,1564.73q-44-2.45-39.4-24.22-21.36,30.62-28.24,63.62a35.46,35.46,0,0,0,.51,16.45q12.78,47.25,52.51,108.22-31.2,27.32-65.08,95.18-16.8,26.31,58.53,39,11.58-1.65,47.41-135.54Q1060.59,1655.5,1045.88,1564.73Z" fill="#5d7cfd"/><path d="M1045.88,1564.73q-44-2.45-39.4-24.22-21.16,30.33-28.11,63a37.46,37.46,0,0,0,.54,17.64q12.87,47,52.35,107.63-31.2,27.32-65.08,95.18-9.34,14.63,9.81,25l-16,14.4q-3.71,4-2.84,11.93l2.54,45.08q-.06,19.63,7.06,10.76L996,1876.83l15.71-16.26q6.12,1.29,13,2.45,11.58-1.65,47.41-135.54Q1060.59,1655.5,1045.88,1564.73Z" fill="url(#b1fb2eef-dac5-4123-a174-476ad3363807)"/><path d="M1045.88,1564.73q-44-2.45-39.4-24.22-21.16,30.33-28.11,63a37.46,37.46,0,0,0,.54,17.64q12.87,47,52.35,107.63-31.2,27.32-65.08,95.18-9.34,14.63,9.81,25l-16,14.4q-3.71,4-2.84,11.93l2.54,45.08q-.06,19.63,7.06,10.76L996,1876.83l15.71-16.26q6.12,1.29,13,2.45,11.58-1.65,47.41-135.54Q1060.59,1655.5,1045.88,1564.73Z" fill="url(#bed16354-02c6-4edb-a94d-f6eaa23f667e)"/><path d="M1072.12,1727.48c-.5-3.12-1-6.26-1.52-9.44l-56.15-83.66q12.45,62.26,35,100.71-24.51,76.22-20.66,124.33Q1041.77,1840.92,1072.12,1727.48Z" fill="url(#b2ecf386-63ab-49c9-aba8-dc60bf5542a3)"/><path d="M1076.69,1555.49q-57.35,9.73-70.21-15-10.76,111.39,65.64,187-.3,1-10,26.7-8.47,22.59-13.86,42-17,61.74-11.57,119.81.25,20.1,51.83,5.08,12.8-4.14,12.34-8.28l2.08-167.52q-6-64.73-10-99.6Q1086,1583,1076.69,1555.49Z" fill="#5d7cfd"/><path d="M1076.69,1555.49q-57.35,9.73-70.21-15-10.76,111.39,65.64,187-.3,1-10,26.7-8.47,22.59-13.86,42-17,61.74-11.57,119.81.25,20.1,51.83,5.08,12.8-4.14,12.34-8.28l2.08-167.52q-6-64.73-10-99.6Q1086,1583,1076.69,1555.49Z" fill="url(#ed1677bc-6deb-4215-8f33-59586604283b)"/><path d="M1090.86,1472.13a39.55,39.55,0,0,0,0-17.41h-26.55a202.2,202.2,0,0,0,18.52,64.57l8-47.16m-105-33.2,10.31,50.77q32.9-24.57,37.77-75.64Z" fill="url(#a5f7ae43-e452-4c5b-8069-0b4db036b261)"/><path d="M1065.83,1427q-15.48,9.87,7,41.53,46,64.82,82.34,77.36,19.67-11.19,75-143.91h-17.71l-63.71,95.28Q1105.2,1450.62,1065.83,1427Z" fill="#e5f4fa"/><path d="M1046.39,1392q10,2,22.18-6.65-9.79,2.94-17.57-4.37t-8.73-20.25q9.39-30.6-11.27-39.8-19-8.51-34.47,3.45-20.6,15.84,2.75,51.37,1,20.92-12.14,44.68-25,45.26-2.28,87.26-2.5-17.45,12.69-30.81a145.66,145.66,0,0,0,26.45-30.82q11.2-17.43,9.9-32.08c.17,1.12.28,2.25.35,3.4q1,12.77-2.89,28.63,17.07-22.8,15.08-38.12t-3-16.71a18,18,0,0,0,3,.82" fill="#bcccda"/><path d="M1046.39,1392q10,2,22.18-6.65-9.79,2.94-17.57-4.37t-8.73-20.25q9.39-30.6-11.27-39.8-19-8.51-34.47,3.45-20.6,15.84,2.75,51.37,1,20.92-12.14,44.68-25,45.26-2.28,87.26-2.5-17.45,12.69-30.81a145.66,145.66,0,0,0,26.45-30.82q11.2-17.43,9.9-32.08c.17,1.12.28,2.25.35,3.4q1,12.77-2.89,28.63,17.07-22.8,15.08-38.12t-3-16.71a18,18,0,0,0,3,.82" fill="url(#bbc19441-8cc6-4c26-b727-51c22b0d49c9)"/><path d="M1046.39,1392q10,2,22.18-6.65-9.79,2.94-17.57-4.37t-8.73-20.25q9.39-30.6-11.27-39.8-19-8.51-34.47,3.45-20.6,15.84,2.75,51.37,1,20.92-12.14,44.68-25,45.26-2.28,87.26-2.5-17.45,12.69-30.81a145.66,145.66,0,0,0,26.45-30.82q11.2-17.43,9.9-32.08c.17,1.12.28,2.25.35,3.4q1,12.77-2.89,28.63,17.07-22.8,15.08-38.12t-3-16.71a18,18,0,0,0,3,.82" fill="url(#a8af29b7-669c-42d3-abb4-5d577f0fed3f)"/><path d="M1242,1401.93c1.48-.3,2.36-.77,2.64-1.43l8.48-13.3q2.74-3.92.71-3.8l-30.36,6.6,1.07-7.92c.11-2.15-.25-2.84-1.07-2.08l-16.6,30Z" fill="#ffa3ab"/><path d="M1146.14,1322.38c-.71-.49-1.72-.43-3.05.2l-8.93,6.9c-1.37.74-2,.09-1.93-1.92l6.29-23.15q1.17-4.07-1.16-2l-4,3.8a9.94,9.94,0,0,0-2.18,2.75l-13.2,24.67-.81,2.84q-.35,3.65,1.47,5.13,8.49,3.92,12.69,0Z" fill="#ffa3ab"/><path id="aa8da0dc-d1e9-4a32-bbe2-373e202e442b" data-name="WOMAN 0 Layer0 14 1 STROKES" d="M1070.35,1925.61a833.12,833.12,0,0,0,21.47-161.83q6.54-98.19-26.14-206.72" fill="none" stroke="#fff" stroke-linecap="round" stroke-linejoin="round" stroke-width="1.02"/></g></g><g id="beb12063-8bb2-4212-b683-60112cae4606" data-name="Pin"><g id="ec06a4d5-0c8c-48fd-bb09-a3a0aeaf19e2" data-name="PinCircle"><ellipse cx="1826.34" cy="1628.76" rx="111.65" ry="193.4" transform="translate(-572.78 1146.47) rotate(-30.36)" fill="url(#aab5430b-fc2d-4b58-9838-08feea7b406c)"/><ellipse cx="1810.37" cy="1635.22" rx="111.65" ry="193.4" transform="translate(-578.24 1139.28) rotate(-30.36)" fill="#51d2d1"/><path id="bea4e186-e6c6-4364-bb81-922b7a690117" data-name="PinNonFilledStaight" d="M1764.46,1513.78l-.63,6.15c0,8.68,3.15,19.91,8.83,29.7,4.42,7.62,10.1,14.52,15.79,18.52l-8.84,54.24c-5.68-1.11-10.73-1.13-15.15,1.39-7,4-10.73,11.89-10.73,23.47V1653l42.92,24.78,5.68,60.45,8.21,5.46,8.21-53.87,43.56,24.42v-5.79c0-11.58-3.79-23.9-10.74-35.86a83.82,83.82,0,0,0-15.15-18.88l-8.84-64.45c6.32,2.2,11.37,2.22,15.79-.29,5.68-3.24,8.83-9.37,8.83-19.5l.64-6.15Zm30.93,44.63c-10.1-5.83-15.78-17.07-16.41-22.5l57.44,33.89c-1.89,8.32-10.73,6.11-19.57,1ZM1796,1629l5.68-51,11.37,6.56,6.31,58.64C1804.23,1634.43,1796,1629,1796,1629Zm-24.62,18.35c1.26-10.85,11.36-10.8,22.1-3.88l34.08,19.68c8.84,5.1,17.68,16,18.31,27.21Z" fill="#f6f8f7" fill-rule="evenodd"/></g></g></g></svg>