<?xml version="1.0" encoding="UTF-8"?><svg xmlns="http://www.w3.org/2000/svg" xmlns:xlink="http://www.w3.org/1999/xlink" viewBox="0 0 2500 2500"><defs><style>.cls-1{opacity:.72;}.cls-2{fill:url(#linear-gradient-12);}.cls-2,.cls-3,.cls-4,.cls-5,.cls-6,.cls-7,.cls-8,.cls-9,.cls-10,.cls-11,.cls-12,.cls-13,.cls-14,.cls-15,.cls-16,.cls-17,.cls-18,.cls-19,.cls-20,.cls-21,.cls-22,.cls-23,.cls-24,.cls-25,.cls-26,.cls-27,.cls-28,.cls-29,.cls-30,.cls-31,.cls-32,.cls-33,.cls-34,.cls-35{stroke-width:0px;}.cls-3{fill:#d3f5ff;}.cls-4{fill:url(#linear-gradient-17);}.cls-5{fill:url(#linear-gradient);}.cls-36{stroke:url(#linear-gradient-9);stroke-miterlimit:10;stroke-width:1.98px;}.cls-36,.cls-20{fill:#00273d;}.cls-6{fill:url(#linear-gradient-6);}.cls-7{fill:#006299;}.cls-8{fill:url(#New_Gradient_Swatch_2-2);}.cls-37{isolation:isolate;}.cls-9{fill:url(#linear-gradient-15);}.cls-10{fill:url(#linear-gradient-11);}.cls-11{fill:#d3f5ff;}.cls-12{fill:url(#linear-gradient-5);}.cls-13{fill:none;}.cls-14{fill:#90e5ff;}.cls-15{fill:url(#New_Gradient_Swatch_2);}.cls-38{clip-path:url(#clippath-1);}.cls-16{fill:url(#linear-gradient-13);}.cls-17{fill:rgba(0,85,132,.25);}.cls-18{fill:#f4fdff;}.cls-19{fill:url(#linear-gradient-16);}.cls-21{fill:#1da1dc;}.cls-22{fill:url(#linear-gradient-14);}.cls-23{fill:url(#linear-gradient-2);}.cls-24{fill:#e3faff;}.cls-25{fill:url(#linear-gradient-7);}.cls-26{fill:url(#linear-gradient-3);}.cls-27{fill:rgba(0,85,132,.15);}.cls-39{clip-path:url(#clippath);}.cls-28{fill:url(#New_Gradient_Swatch_2-3);}.cls-29{fill:#39c2ec;}.cls-30{fill:url(#linear-gradient-8);}.cls-31{fill:rgba(0,39,61,.15);}.cls-32{fill:#fff;}.cls-33{fill:url(#linear-gradient-10);}.cls-34{fill:url(#linear-gradient-4);}.cls-35{fill:url(#New_Gradient_Swatch_2-4);}.cls-40{opacity:.25;}</style><linearGradient id="linear-gradient" x1="2030.99" y1="2072.14" x2="929.7" y2="2072.14" gradientUnits="userSpaceOnUse"><stop offset=".28" stop-color="#0078ba"/><stop offset=".4" stop-color="#0681c1"/><stop offset=".61" stop-color="#1899d6"/><stop offset=".66" stop-color="#1da1dc"/></linearGradient><linearGradient id="linear-gradient-2" x1="2176.16" y1="1925.05" x2="1067.88" y2="2050.23" gradientUnits="userSpaceOnUse"><stop offset="0" stop-color="#006399"/><stop offset="1" stop-color="#0078ba"/></linearGradient><linearGradient id="linear-gradient-3" x1="1463.17" y1="1749.21" x2="1263.74" y2="1749.21" gradientUnits="userSpaceOnUse"><stop offset=".04" stop-color="#39c2ec"/><stop offset=".1" stop-color="#0071b0"/><stop offset=".11" stop-color="#006ca9"/><stop offset=".13" stop-color="#006298"/><stop offset=".17" stop-color="#005a8c"/><stop offset=".22" stop-color="#005685"/><stop offset=".35" stop-color="#005584"/><stop offset=".36" stop-color="#005685"/><stop offset=".52" stop-color="#00649d"/><stop offset=".66" stop-color="#006dab"/><stop offset=".79" stop-color="#0071b0"/><stop offset=".84" stop-color="#0b81bb"/><stop offset=".95" stop-color="#28aada"/><stop offset="1" stop-color="#39c2ec"/></linearGradient><linearGradient id="linear-gradient-4" x1="1870.19" y1="1289.89" x2="1687.78" y2="1041.39" gradientUnits="userSpaceOnUse"><stop offset=".28" stop-color="#0078ba"/><stop offset=".66" stop-color="#1da1dc"/></linearGradient><linearGradient id="linear-gradient-5" x1="1734.54" y1="2043.33" x2="1008.35" y2="541.77" xlink:href="#linear-gradient-2"/><linearGradient id="linear-gradient-6" x1="1320.38" y1="535.8" x2="1214.41" y2="2318.93" gradientUnits="userSpaceOnUse"><stop offset="0" stop-color="#39c2ec"/><stop offset="1" stop-color="#0071b0"/></linearGradient><linearGradient id="linear-gradient-7" x1="1755.73" y1="1381.37" x2="698.47" y2="794.87" gradientUnits="userSpaceOnUse"><stop offset=".28" stop-color="#1da1dc"/><stop offset=".66" stop-color="#39c2ec"/><stop offset=".98" stop-color="#58d1ed"/></linearGradient><linearGradient id="linear-gradient-8" x1="12064.93" y1="1287.55" x2="12656.55" y2="1287.55" gradientTransform="translate(13553.46) rotate(-180) scale(1 -1)" gradientUnits="userSpaceOnUse"><stop offset=".12" stop-color="#00507d"/><stop offset=".14" stop-color="#004b76"/><stop offset=".25" stop-color="#003452"/><stop offset=".27" stop-color="#003757"/><stop offset=".41" stop-color="#00456c"/><stop offset=".56" stop-color="#004f7b"/><stop offset=".74" stop-color="#005584"/><stop offset="1" stop-color="#005787"/></linearGradient><linearGradient id="linear-gradient-9" x1="1131.96" y1="1303.67" x2="1203.07" y2="1303.67" gradientUnits="userSpaceOnUse"><stop offset=".04" stop-color="#0071b0" stop-opacity=".6"/><stop offset=".66" stop-color="rgba(0,59,92,.89)" stop-opacity=".89"/><stop offset="1" stop-color="#00273d"/></linearGradient><linearGradient id="linear-gradient-10" x1="12205.78" y1="1023.84" x2="12264.7" y2="1023.84" gradientTransform="translate(13553.46) rotate(-180) scale(1 -1)" gradientUnits="userSpaceOnUse"><stop offset=".04" stop-color="#0071b0"/><stop offset=".05" stop-color="rgba(0,113,176,.98)" stop-opacity=".98"/><stop offset=".11" stop-color="rgba(0,113,176,.75)" stop-opacity=".75"/><stop offset=".19" stop-color="rgba(0,113,176,.55)" stop-opacity=".55"/><stop offset=".27" stop-color="rgba(0,113,176,.38)" stop-opacity=".38"/><stop offset=".35" stop-color="rgba(0,113,176,.24)" stop-opacity=".24"/><stop offset=".45" stop-color="rgba(0,113,176,.13)" stop-opacity=".13"/><stop offset=".56" stop-color="rgba(0,113,176,.06)" stop-opacity=".06"/><stop offset=".71" stop-color="rgba(0,113,176,.01)" stop-opacity=".01"/><stop offset="1" stop-color="#0071b0" stop-opacity="0"/></linearGradient><linearGradient id="linear-gradient-11" x1="1174.37" y1="1166.01" x2="1287.31" y2="878.42" gradientTransform="matrix(1,0,0,1,0,0)" xlink:href="#linear-gradient-10"/><clipPath id="clippath"><path class="cls-13" d="M1216.05,688.28v682.51h1016.29v-682.51h-1016.29ZM1286.28,1084.14c-.18-24.85-2.94-45.3-6.94-63.62l63.36,9.99c2.53,12.47,2.76,43.1,3.09,66.66l-55.13-5.66c-1.55-.61-2.96-1.21-4.14-1.81,0,0,0-4.04-.23-5.56ZM2091.69,1160.04l-3.05,1.45h-15.36l-18.41-23.65,36.82-15.41v37.61ZM2091.69,1062.42l-74.39,31.61-26.64-.94-20.32-76.26,65.3-52.98,56.05,32.54v66.03Z"/></clipPath><linearGradient id="New_Gradient_Swatch_2" x1="1411.68" y1="1192.54" x2="1573.52" y2="1220.49" gradientUnits="userSpaceOnUse"><stop offset="0" stop-color="#39c2ec"/><stop offset=".05" stop-color="#55cdf2"/><stop offset=".12" stop-color="#7fdefb"/><stop offset=".16" stop-color="#90e5ff"/><stop offset=".24" stop-color="#90e5ff"/><stop offset=".77" stop-color="#90e5ff"/><stop offset=".81" stop-color="#86e1fc"/><stop offset=".89" stop-color="#6cd6f7"/><stop offset=".98" stop-color="#43c6ee"/><stop offset="1" stop-color="#39c2ec"/></linearGradient><linearGradient id="linear-gradient-12" x1="1703.9" y1="1245.28" x2="1870.4" y2="1247.61" gradientUnits="userSpaceOnUse"><stop offset="0" stop-color="#39c2ec"/><stop offset=".05" stop-color="#55cdf2"/><stop offset=".12" stop-color="#7fdefb"/><stop offset=".16" stop-color="#90e5ff"/><stop offset=".21" stop-color="#90e5ff"/><stop offset=".51" stop-color="#90e5ff"/><stop offset=".6" stop-color="#86e1fc"/><stop offset=".76" stop-color="#6cd6f7"/><stop offset=".95" stop-color="#43c6ee"/><stop offset="1" stop-color="#39c2ec"/></linearGradient><linearGradient id="linear-gradient-13" x1="1978.66" y1="1238.99" x2="2173.11" y2="1120.22" xlink:href="#linear-gradient-12"/><linearGradient id="linear-gradient-14" x1="1954.16" y1="1198.9" x2="2178.23" y2="1062.04" gradientUnits="userSpaceOnUse"><stop offset="0" stop-color="#90e5ff"/><stop offset=".1" stop-color="#90e5ff"/><stop offset=".76" stop-color="#90e5ff"/><stop offset=".8" stop-color="#86e1fc"/><stop offset=".88" stop-color="#6cd6f7"/><stop offset=".98" stop-color="#43c6ee"/><stop offset="1" stop-color="#39c2ec"/></linearGradient><clipPath id="clippath-1"><path class="cls-13" d="M258.48,40.79v1156.34h978.27V40.79H258.48ZM712.72,430.01l-99.79-1.35-14.22-33.6c.41,1.3-6.74-16.23-14.87-25.63v-117.54l42.42-35.54,100.72,48.32-14.26,165.34ZM1152.82,947.06c-1.03,2.37-1.27,8.38-1.19,16.61.16,9.02.63,20.64,1.19,33.14l-48.66-19.95c-.55,1.58-7.01-3.69-7.64-2.18-.47,1.11-3.24-10.61-3.88-9.58l-.08-20.88c0,.63.24,1.27.32,1.9-.32-1.82-.24-3.72.4-5.46,0-7.83.95-15.82,2.93-23.57,1.66-6.56,3.95-13.05,6.96-19.22,4.98,1.74,8.74-8.61,13.01-6.16,1.58.95,18.36,7.05,19.87,8.08l18.92,30.43c-1.19,4.67-1.98,10.2-2.14,16.84Z"/></clipPath><linearGradient id="New_Gradient_Swatch_2-2" x1="908.34" y1="889.88" x2="1000.9" y2="970.22" xlink:href="#New_Gradient_Swatch_2"/><linearGradient id="New_Gradient_Swatch_2-3" x1="681.25" y1="699.73" x2="778.65" y2="816.31" xlink:href="#New_Gradient_Swatch_2"/><linearGradient id="New_Gradient_Swatch_2-4" x1="511.49" y1="446.71" x2="558.65" y2="554.12" xlink:href="#New_Gradient_Swatch_2"/><linearGradient id="linear-gradient-15" x1="568.29" y1="466.69" x2="515.02" y2="355.78" gradientUnits="userSpaceOnUse"><stop offset="0" stop-color="#90e5ff"/><stop offset=".02" stop-color="#90e5ff"/><stop offset=".16" stop-color="#90e5ff"/><stop offset=".31" stop-color="#86e1fc"/><stop offset=".54" stop-color="#6cd6f7"/><stop offset=".84" stop-color="#43c6ee"/><stop offset=".91" stop-color="#39c2ec"/></linearGradient><linearGradient id="linear-gradient-16" x1="518.84" y1="353.79" x2="599.1" y2="356.41" xlink:href="#linear-gradient-15"/><linearGradient id="linear-gradient-17" x1="1155.36" y1="922" x2="1150.63" y2="1001.5" xlink:href="#linear-gradient-6"/></defs><g id="Monitor"><g id="Baswe2"><path class="cls-31" d="M1258.34,2335.36l-393.32-227.09c-101.71-58.72-88.96-161.3,28.49-229.11h0c117.45-67.81,295.11-75.17,396.82-16.45l393.32,227.09c101.71,58.72,88.96,161.3-28.49,229.11h0c-117.45,67.81-295.11,75.17-396.82,16.45Z"/><path class="cls-5" d="M1752.32,2107.67l-20.79-4.1c-11.3-14.92-27.18-28.71-47.88-40.66l-393.32-227.09c-101.71-58.72-279.38-51.36-396.82,16.45h0c-36.36,20.99-62.66,45.32-78.66,70.65l-18.49-3.64v65.58h.08c1.18,36.22,23.74,70.63,68.59,96.52l393.32,227.09c101.71,58.72,279.38,51.36,396.83-16.45h0c62.99-36.37,95.82-82.73,97.08-126.97h.08s0-57.38,0-57.38Z"/><path class="cls-23" d="M1430.68,2298.81c-66.16,0-126.64-13.89-170.32-39.1l-393.32-227.08c-42.97-24.81-66.64-58.9-66.64-95.99,0-45.23,34.67-91.18,95.13-126.08,61.15-35.3,142.23-55.55,222.45-55.55,66.16,0,126.64,13.89,170.32,39.1l393.32,227.08c42.97,24.81,66.64,58.9,66.64,95.99,0,45.23-34.67,91.18-95.13,126.09-61.15,35.3-142.23,55.55-222.45,55.55Z"/><path class="cls-29" d="M1117.99,1759.06c65.45,0,125.22,13.69,168.28,38.56l393.32,227.08c21.46,12.39,37.93,26.94,48.94,43.26,10.39,15.39,15.66,31.95,15.66,49.22,0,43.74-33.93,88.41-93.1,122.57-60.55,34.96-140.89,55.01-220.42,55.01-65.46,0-125.22-13.69-168.29-38.56l-393.32-227.08c-21.46-12.39-37.93-26.94-48.94-43.26-10.39-15.39-15.66-31.95-15.66-49.22,0-43.74,33.93-88.41,93.1-122.57,60.55-34.96,140.88-55,220.42-55.01h0M1117.98,1750.94c-77.98,0-160.24,19.01-224.48,56.09h0c-117.45,67.81-130.2,170.38-28.49,229.11l393.32,227.08c46.08,26.61,107.75,39.64,172.35,39.64,77.98,0,160.24-19.01,224.48-56.09h0c117.45-67.81,130.2-170.38,28.49-229.11l-393.32-227.08c-46.08-26.61-107.75-39.65-172.35-39.64h0Z"/><g class="cls-40"><path class="cls-29" d="M1117.99,1767.19c64.05,0,122.37,13.31,164.22,37.47l393.32,227.08c20.38,11.77,35.95,25.48,46.27,40.77,9.47,14.02,14.27,29.05,14.27,44.67,0,40.76-32.45,82.87-89.04,115.54-59.35,34.27-138.21,53.92-216.36,53.92-64.05,0-122.38-13.31-164.23-37.47l-393.32-227.08c-20.38-11.77-35.95-25.48-46.27-40.77-9.47-14.02-14.27-29.05-14.27-44.67,0-40.76,32.45-82.87,89.04-115.54,59.35-34.26,138.21-53.92,216.36-53.92h0M1117.98,1750.94c-77.98,0-160.24,19.01-224.48,56.09h0c-117.45,67.81-130.2,170.38-28.49,229.11l393.32,227.08c46.08,26.61,107.75,39.64,172.35,39.64,77.98,0,160.24-19.01,224.48-56.09h0c117.45-67.81,130.2-170.38,28.49-229.11l-393.32-227.08c-46.08-26.61-107.75-39.65-172.35-39.64h0Z"/></g></g><path class="cls-20" d="M1438.36,2020.46c-41.94,24.21-110.18,24.07-152.42-.32-42.24-24.39-42.49-63.79-.55-88,41.94-24.21,110.18-24.07,152.42.32,42.24,24.39,42.49,63.79.55,88Z"/><path class="cls-26" d="M1459.36,1467.8h-194.97v506.53h.02c.18,14.34,9.77,28.68,28.79,39.65,38.21,22.06,99.93,22.19,137.86.29,19.05-11,28.47-25.47,28.28-39.94h.02v-506.53Z"/><path class="cls-34" d="M2015.41,863.39L758.32,137.61c-17.71-10.22-33.97-11.49-46.91-5.46,0-.01-.06-.07-.06-.07l-.61.35c-1.22.6-2.38,1.31-3.54,2.04l-100.49,58.03,1354.94,1862.67s78.04-44.68,100.86-57.82c1.88-.89,3.67-1.93,5.4-3.12.47-.27.8-.47.84-.49,0,0-.02-.02-.02-.02,14.15-10.29,22.96-30.93,22.96-59.41v-925.16c0-56.17-34.15-121.43-76.28-145.75Z"/><path class="cls-12" d="M1993.5,1065.75v925.16c0,56.17-34.15,81.99-76.28,57.67l-1257.09-725.78c-42.13-24.32-76.28-89.58-76.28-145.75V251.89c0-56.17,34.15-81.99,76.28-57.67l1257.09,725.78c42.13,24.32,76.28,89.58,76.28,145.75Z"/><path class="cls-6" d="M709.61,1237.09c-9.02-5.98-26.8-35.61-26.8-60.04V355.06c0-14.88,16.11-24.18,28.99-16.74l1155.93,667.38c9.02,5.98,26.8,35.6,26.8,60.04v820.64c0,15.47-16.75,25.14-30.15,17.41l-1154.77-666.71ZM682.98,248.72"/><path class="cls-25" d="M1884.72,1889.37l-1154.79-666.63c-9-6-26.74-35.66-26.74-60.09V340.63c0-1.72.26-3.34.69-4.88-10.71-.95-21.09,7.37-21.09,19.29v822.02c0,24.43,17.83,54.09,26.83,60l1154.79,666.71c11.66,6.77,25.89.34,29.32-11.74-3.09-.08-6.09-.94-9-2.66Z"/><path class="cls-21" d="M728.2,136.64c8.1,0,16.86,2.69,26.06,8l1257.09,725.78c19.06,11,37.1,31.48,50.8,57.66,13.81,26.39,21.42,55.17,21.42,81.05v925.16c0,24.49-7.13,43.73-19.57,52.81-.06.03-.11.07-.17.1l-.27.16-.26.18c-1.37.94-2.8,1.77-4.26,2.46l-.3.14-.28.16c-18.56,10.68-74.12,42.51-90.7,52.01l-.52.3-.47.37c-2.23,1.76-4.7,3.17-7.55,4.31l-.51.2-.07.04c-3.52,1.32-7.32,1.99-11.3,1.99-8.1,0-16.86-2.69-26.05-7.99l-1257.09-725.78c-19.06-11-37.1-31.48-50.8-57.66-13.81-26.39-21.42-55.17-21.42-81.05V251.89c0-24.41,7.09-43.62,19.45-52.73l.06-.04.3-.17.29-.2c1.41-.98,2.92-1.85,4.5-2.6l.31-.15.3-.17,94.08-54.33.13-.08.13-.08c.75-.47,1.48-.92,2.17-1.3l1.15-.53c4.08-1.9,8.58-2.87,13.36-2.87M728.2,128.52c-6.04,0-11.67,1.24-16.79,3.62-.01-.01-.06-.07-.06-.07l-.61.35c-1.22.6-2.38,1.31-3.54,2.04l-94.08,54.33c-1.98.93-3.88,2.02-5.7,3.29l-.71.41.02.03c-14.11,10.31-22.89,30.93-22.89,59.37v925.16c0,56.17,34.15,121.42,76.28,145.75l1257.09,725.78c10.7,6.18,20.88,9.08,30.11,9.08,5.06,0,9.84-.87,14.28-2.55l.05.06s.32-.19.57-.33c3.41-1.36,6.62-3.15,9.57-5.48,21.8-12.49,72.95-41.78,90.72-52.01,1.88-.89,3.67-1.93,5.4-3.12.47-.27.8-.47.84-.49l-.02-.03c14.15-10.29,22.96-30.93,22.96-59.41v-925.16c0-56.17-34.15-121.42-76.28-145.75L758.32,137.61c-10.71-6.18-20.89-9.09-30.12-9.09h0Z"/><g class="cls-40"><path class="cls-21" d="M728.2,144.76c6.65,0,14.05,2.33,22,6.92l1257.09,725.78c17.48,10.1,34.86,29.92,47.67,54.4,13.21,25.25,20.49,52.69,20.49,77.28v925.16c0,21.65-5.8,38.38-15.93,46.02l-.33.19-.51.35c-1.01.69-2.06,1.3-3.12,1.81l-.59.28-.57.33c-18.61,10.71-74.12,42.51-90.69,52l-1.05.6-.95.75c-1.61,1.27-3.42,2.3-5.54,3.15l-.79.32c-2.5.89-5.21,1.34-8.07,1.34-6.65,0-14.05-2.32-21.99-6.9l-1257.09-725.78c-17.48-10.1-34.86-29.92-47.67-54.4-13.21-25.25-20.49-52.69-20.49-77.28V251.89c0-21.56,5.76-38.26,15.82-45.95l.25-.14.57-.4c1.03-.72,2.14-1.36,3.3-1.9l.62-.29.6-.35,94.08-54.33.27-.15.26-.16c.53-.34,1.08-.68,1.54-.94l.88-.41c3-1.4,6.35-2.11,9.93-2.11M728.2,128.52c-6.04,0-11.67,1.24-16.79,3.62-.01-.01-.06-.07-.06-.07l-.61.35c-1.22.6-2.38,1.31-3.54,2.04l-94.08,54.33c-1.98.93-3.88,2.02-5.7,3.29l-.71.41.02.03c-14.11,10.31-22.89,30.93-22.89,59.37v925.16c0,56.17,34.15,121.42,76.28,145.75l1257.09,725.78c10.7,6.18,20.88,9.08,30.11,9.08,5.06,0,9.85-.87,14.28-2.55l.05.07s.32-.19.57-.33c3.41-1.36,6.62-3.15,9.57-5.48,21.8-12.49,72.95-41.78,90.72-52.01,1.88-.89,3.67-1.93,5.4-3.12.47-.27.8-.47.84-.49l-.02-.03c14.15-10.29,22.96-30.93,22.96-59.41v-925.16c0-56.17-34.15-121.42-76.28-145.75L758.32,137.61c-10.71-6.18-20.89-9.09-30.12-9.09h0Z"/></g></g><g id="lock"><g id="Lock_Grey"><path class="cls-17" d="M1347.19,1517.93c-22.66,0-44.27-5.18-59.3-14.2-1.17-.68-189.97-110.4-214.9-124.88-32.82-6.73-36.86-72.15-31.64-242.55,1-32.55,2.12-69.44.53-76.42l-.86-2.45.14-1.93v-.34c-.22-28.99,29.18-47.06,56.12-53.53l-.19-66.23h.29c-.15-48.71,29.45-102.58,85.59-108.08l1.03-.07c1.63-.05,3.26-.08,4.87-.08,107.44,0,187.9,115.8,192.92,219.72l-14.83.72h14.85c0,1.07.15,56.7.22,78.98.49.27.98.54,1.48.82,20.08,11.12,50.29,27.86,48.08,54.67l.8,280.22-.19,1.24c-5.17,33.04-38.54,54.39-84.99,54.39ZM1189.34,1014.69c13.19,7.51,39.42,22.78,80.81,46.94,7.67,4.47,15.17,8.86,21.77,12.7-.7-66.74-31.03-136.53-94.13-156.37-.8-.16-1.53-.24-2.13-.24-1.06,0-1.22.17-1.62.59-8.78,9.25-6.68,49.39-5.55,70.95.51,9.79.96,18.33.86,25.43Z"/><path class="cls-17" d="M1056.99,1056.04c-1.16-23.84,32.9-39.06,56.13-41.05l-.23-79.66c0,.61.19,1.21.3,1.82-.87-42.57,24.82-89.55,71.3-94.1,102.87-3.31,176.96,111.1,181.47,204.6,0-.01,0-.03,0-.04,0,.96.25,87.07.25,88.15,15.66,9.61,51.92,25.17,49.53,45.65,0-.03,0-.07,0-.1l.79,279.77c-7.3,46.56-86.91,49.26-120.53,29.08,0,0-217.8-126.57-217.8-126.57-40.81-1.9-13.36-286.4-21.27-308.45,0,.3.03.59.04.89ZM1172.79,1023.59c7.87,3.82,126.76,73.69,133.69,77.45,8.1-77.94-23.86-173.48-104.66-198.39-46.6-10.75-24.15,96.7-29.04,120.94ZM1113.54,938.79c0-.08-.08-.15-.1-.22.02.07.07.15.1.22Z"/><path class="cls-30" d="M1057.12,1092.74l217.8,126.57c27.45,15.95,72.11,15.93,99.71,0,13.9-8.03,20.85-18.56,20.82-29.08l.79,279.77c.03,10.52-6.91,21.05-20.82,29.08-27.6,15.93-72.26,15.95-99.71,0l-217.8-126.57c-13.63-7.92-20.45-18.29-20.48-28.67l-.79-279.77c.03,10.38,6.85,20.75,20.48,28.67Z"/><path class="cls-7" d="M1057.45,1034.98c-27.6,15.93-27.77,41.8-.32,57.76l217.8,126.57c27.45,15.95,72.11,15.93,99.71,0,27.63-15.95,27.77-41.8.33-57.76l-217.8-126.57c-27.45-15.95-72.08-15.95-99.71,0Z"/></g><path class="cls-20" d="M1144.71,1079.58c-12.15,7.02-31.92,6.97-44.16-.09-12.24-7.07-12.31-18.48-.16-25.5,12.15-7.02,31.92-6.97,44.16.09,12.24,7.07,12.31,18.48.16,25.5Z"/><path class="cls-20" d="M1338.18,1191.89c-12.15,7.02-31.92,6.97-44.16-.09-12.24-7.07-12.31-18.48-.16-25.5,12.15-7.02,31.92-6.97,44.16.09,12.24,7.07,12.31,18.48.16,25.5Z"/><path class="cls-36" d="M1194.89,1389.72c.15,1.74-.97,2.52-2.42,1.68l-49.91-28.81c-1.45-.84-2.57-2.92-2.42-4.48l7.52-77.2c-8.95-12.38-14.78-27.7-14.72-41.16.11-21.41,15.34-30.24,34.08-19.72,19.31,10.84,35.06,37.79,35.06,59.86,0,13.41-5.82,21.91-14.72,23.94l7.52,85.88Z"/></g><g id="Chain"><path class="cls-27" d="M1354.42,1023.84c3.49,1.4,62.13,24.91,62.13,24.91l17.11-3.73c3.03-.66,6.17-.75,9.23-.27l112.77,17.85c5.94.94,11.34,3.99,15.22,8.59l11.46,13.61,121.38,16.23,10.19-5.65c4.18-2.32,8.94-3.39,13.71-3.08l129.92,8.29c4.49.29,8.81,1.78,12.52,4.32l23.65,16.18,60.63-8.09,35.34-19.39c.65-.35,1.31-.68,1.98-.98l100.02-43.89v135.41l-165.28,53.72h-184.26l-137.1-22.29-138.85-7.4-99.55-46.7-46.28-9.19v-138.85l34.06,10.38Z"/><path class="cls-27" d="M585.08,357.28s16.19,10.04,21.63,20.96l57.8,107.23c3.39,6.29,4.31,13.63,2.58,20.57l-1.67,6.68h17.56l10.31,2.23c6.4,1.38,12.13,4.91,16.25,10.01l42.33,52.39h6.28c8.22,0,16.04,3.53,21.49,9.69l90.78,102.69c4.64,5.24,7.19,12,7.19,19v5.73h12.97c7.89,0,15.42,3.25,20.84,8.98l36.92,39.05h14.34c7.07,0,13.89,2.61,19.16,7.34l139,124.75-23.61,140.37-76.85-50.65-279.44-213.08-128.37-141.47-22.96-62.68-5.78-111.1,1.24-98.68Z"/><path class="cls-14" d="M1093.27,940.63c-.08-40.9,27.39-84.61,70.94-88.68,102.46-3.38,176.83,110.6,181.46,204.61,0-.02,0-.03,0-.05,0,1.03.34,120.52.34,121.64-3.53,23.42-56,23.55-59.65.17-2.04-51.74,9.7-153.9-24.35-197.19-16.56-36.19-106.78-117.14-109.18-34.12-5.27,12.47,9.69,126.3-9.03,130.98-14.31,8.5-47.66,7.49-50.87-12.12,0,0-.34-121.64-.34-121.64,0,.61.19,1.21.3,1.82-.34-1.81-.27-3.64.38-5.44ZM1093.19,947.63c0-.05-.04-.09-.06-.14.02.05.04.09.06.14Z"/><path class="cls-33" d="M1093.27,940.63c-.08-40.9,27.39-84.61,70.94-88.68,102.46-3.38,176.83,110.6,181.46,204.61,0-.02,0-.03,0-.05,0,1.03.34,120.52.34,121.64-3.53,23.42-56,23.55-59.65.17-2.04-51.74,9.7-153.9-24.35-197.19-16.56-36.19-106.78-117.14-109.18-34.12-5.27,12.47,9.69,126.3-9.03,130.98-14.31,8.5-47.66,7.49-50.87-12.12,0,0-.34-121.64-.34-121.64,0,.61.19,1.21.3,1.82-.34-1.81-.27-3.64.38-5.44ZM1093.19,947.63c0-.05-.04-.09-.06-.14.02.05.04.09.06.14Z"/><path class="cls-10" d="M1093.27,940.63c-.08-40.9,27.39-84.61,70.94-88.68,102.46-3.38,176.83,110.6,181.46,204.61,0-.02,0-.03,0-.05,0,1.03.34,120.52.34,121.64-3.53,23.42-56,23.55-59.65.17-2.04-51.74,9.7-153.9-24.35-197.19-16.56-36.19-106.78-117.14-109.18-34.12-5.27,12.47,9.69,126.3-9.03,130.98-14.31,8.5-47.66,7.49-50.87-12.12,0,0-.34-121.64-.34-121.64,0,.61.19,1.21.3,1.82-.34-1.81-.27-3.64.38-5.44ZM1093.19,947.63c0-.05-.04-.09-.06-.14.02.05.04.09.06.14Z"/><g class="cls-39"><g class="cls-37"><path class="cls-29" d="M1541.26,1148.76h-.08v-1.35c0,.47.08.87.08,1.35Z"/><path class="cls-29" d="M1546.08,1157.38c-2.61-2.45-4.35-5.38-4.75-8.46,1.82,2.61,3.48,5.46,4.75,8.46Z"/><path class="cls-14" d="M1873.31,1199.21c-10.53.63-22.07.8-31-4.35-5.35-12.98-16.69-25.29-30.92-26.73,0,0-11.15-.87-11.15-.87l-39.54-3.24v-1.9c0,.16-.08.4-.08.63.08.4,0,.79-.08,1.26l-30.76-2.53c-5.43-.59-11.81-1.07-16.37,2.37-.58.4-1.32.78-1.66,1.34-.16.08-.24.16-.4.32-.16.08-.32.24-.39.4-.39.32-.71.63-.95.95-1.48,1.63-2.59,3.53-3.4,5.61-.08.08-.08.24-.08.32-.24.4-.4.79-.47,1.19-.08.08-.08.16-.08.32-.09-.02-.09.15-.08.24-.29.64-.39,1.5-.63,2.21v.24c-.11.31-.08.66-.16,1.03h-.08c-8.71,3.47-20.72,3.66-31,1.9-3.19-23.79,6.68-49.91,31.08-54.64,0,0,.08-.08.16,0,2.15-.49,4.33-.71,6.56-.71,4.9-.3,10.34.69,15.26.87l.24.08c10.2.81,25.78,2.06,35.98,2.85,20.61,2.36,54.09.54,70.93,15.18.09.02.12.1.24.08,5.94,4.29,11.63,9.21,16.45,14.79,0,0,.16.08.16.16,1.12,1.37,2.34,2.63,3.32,4.03,1.57,1.75,2.71,3.54,4.11,5.46l.16.16c4.24,6.18,7.9,13.01,10.83,19.93,1.39,3.62,2.79,7.31,3.8,11.07Z"/><path class="cls-29" d="M1682.25,1140.3c-5.69,8.07-8.78,18.82-8.78,31.16l-68.56-8.62c-1.19-11.6-4.88-22.98-10.28-33.45l87.62,10.91Z"/><path class="cls-29" d="M1721.16,1161.1c-.1,7.77-6.06,12.65-14.23,16.21h-.24c-.47-.24-.79-.4-1.34-.55h-.08c.24-.71.35-1.58.63-2.21,0-.09,0-.25.08-.24,0-.16,0-.24.08-.32.08-.4.24-.79.47-1.19,0-.08,0-.24.08-.32.81-2.08,1.92-3.98,3.4-5.61.24-.32.55-.63.95-.95.08-.16.24-.32.39-.4.16-.16.24-.24.4-.32.34-.56,1.08-.94,1.66-1.34,2.29-1.57,4.87-2.46,7.75-2.77Z"/><path class="cls-14" d="M1760.7,1164.02c-.35,26.09,5.06,45.87-23.01,60.49h-.16c-18.17,10.18-44.09,13.58-66.19,10.76,0,0-102.72-12.81-102.72-12.81-24.8-2.3-52.99-10.09-64.13-31.31h-.08c-3.34-5.91-2.89-13.48-2.85-19.93,0,0,.08-23.01.08-23.01,0,.08,0,.24.08.4.13,3.02.96,5.84,1.98,8.62.37.88.77,1.62,1.27,2.53v.08c.52.74.78,1.65,1.42,2.37v.08s.08.08.16.16c0,.08.08.16.16.24v.08c.24.32.47.63.71,1.03.72.81,1.16,1.59,1.98,2.37.54.86,1.4,1.61,2.13,2.37,0,.08.08.08.08.08.88.94,1.76,1.68,2.77,2.53,1.17,1.09,2.56,2.08,3.95,3.16h.08c.52.38.98.81,1.58,1.11,2.71,1.88,5.65,3.41,8.7,4.9h.08c4.39,2.12,9.02,3.83,13.84,5.22h.08c9.78,3.12,24.13,4.4,34.4,5.69l.24.08c2,.2,21.16,2.69,23.64,2.93,26.01,2.23,83.29,13.99,108.57,7.67.16.24.32.55.47.79-.16-.24-.32-.47-.4-.79.16-.08.32-.08.47-.16,1.58-.24,3.08-.55,4.59-.95.16,0,.24,0,.32-.08,7.74-1.82,15.26-4.39,22.14-8.22h.16c2.56-1.46,5.09-2.92,7.43-4.67h.08c.79-.63,1.58-1.19,2.29-1.82.32-.16.55-.4.87-.71,1.54-1.17,2.9-2.58,4.11-3.95.24-.16.39-.32.55-.55.16-.16.32-.32.4-.55.63-.71,1.19-1.34,1.66-2.06,0,0,.08,0,.08-.08,1.05-1.28,1.9-2.81,2.69-4.19,1.06-2.12,2.1-4.33,2.53-6.64.27-1.05.46-2.17.55-3.24h.16Z"/><path class="cls-29" d="M1710.01,1202.69c-.16-.24-.32-.55-.47-.79h.08c.08.32.24.55.4.79Z"/><path class="cls-29" d="M1760.7,1162.12v1.9h-.16c.08-.47.16-.87.08-1.26,0-.24.08-.47.08-.63Z"/><path class="cls-3" d="M1705.03,1178.02v.16q0-.08.08-.16h-.08ZM1541.18,1147.41v1.35h.08c0-.47-.08-.87-.08-1.35ZM1541.18,1147.41v1.35h.08c0-.47-.08-.87-.08-1.35ZM1541.18,1147.41v1.35h.08c0-.47-.08-.87-.08-1.35ZM1541.18,1147.41v1.35h.08c0-.47-.08-.87-.08-1.35ZM1541.18,1147.41v1.35h.08c0-.47-.08-.87-.08-1.35ZM1541.18,1147.41v1.35h.08c0-.47-.08-.87-.08-1.35ZM1541.18,1147.41v1.35h.08c0-.47-.08-.87-.08-1.35ZM1541.18,1147.41v1.35h.08c0-.47-.08-.87-.08-1.35ZM1702.1,1119.34c-7.67-.67-121.31-15.88-125.1-14.71,6.96,7.2,12.97,15.58,17.63,24.75l87.62,10.91c5.33-8.61,18.31-14.57,26.49-19.93-2.13-.39-4.35-.79-6.64-1.03ZM1541.18,1148.76h.08c0-.47-.08-.87-.08-1.35v1.35ZM1541.18,1147.41v1.35h.08c0-.47-.08-.87-.08-1.35ZM1541.18,1147.41v1.35h.08c0-.47-.08-.87-.08-1.35ZM1541.18,1147.41v1.35h.08c0-.47-.08-.87-.08-1.35ZM1541.18,1147.41v1.35h.08c0-.47-.08-.87-.08-1.35ZM1705.03,1178.02v.16q0-.08.08-.16h-.08ZM1541.18,1147.41v1.35h.08c0-.47-.08-.87-.08-1.35ZM1541.18,1147.41v1.35h.08c0-.47-.08-.87-.08-1.35ZM1541.18,1147.41v1.35h.08c0-.47-.08-.87-.08-1.35ZM1705.03,1178.02v.16q0-.08.08-.16h-.08Z"/><path class="cls-11" d="M1760.54,1164.02c-.09,1.07-.28,2.19-.55,3.24-.43,2.31-1.47,4.52-2.53,6.64-.79,1.39-1.64,2.91-2.69,4.19,0,.08-.08.08-.08.08-.47.71-1.03,1.34-1.66,2.06-.08.24-.24.4-.4.55-.16.24-.32.39-.55.55-1.21,1.38-2.57,2.79-4.11,3.95-.32.32-.55.55-.87.71-.71.63-1.5,1.19-2.29,1.82h-.08c-2.34,1.75-4.87,3.21-7.43,4.67h-.16c-6.95,3.78-14.37,6.44-22.14,8.22-.08.08-.16.08-.32.08-1.5.4-3.01.71-4.59.95-.16.08-.32.08-.47.16h-.08c-24.98,6.34-82.84-5.46-108.58-7.67-2.41-.23-21.63-2.73-23.64-2.93l-.24-.08c-10.33-1.29-24.56-2.59-34.4-5.69h-.08c-4.82-1.39-9.45-3.1-13.84-5.22h-.08c-3.05-1.49-5.99-3.02-8.7-4.9-.6-.29-1.06-.73-1.58-1.11h-.08c-1.39-1.08-2.78-2.07-3.95-3.16-1.01-.85-1.89-1.59-2.77-2.53,0,0-.08,0-.08-.08-.74-.76-1.59-1.52-2.13-2.37-.81-.78-1.25-1.57-1.98-2.37-.24-.4-.47-.71-.71-1.03v-.08c-.08-.08-.16-.16-.16-.24-.08-.08-.16-.16-.16-.16v-.08c-.64-.72-.91-1.63-1.42-2.37v-.08c-.5-.91-.9-1.65-1.27-2.53-1.01-2.78-1.85-5.6-1.98-8.62-.54-6.27,2.03-12.95,5.85-18.11,13.31,1.42,25.7,6.21,33.61,18.19v.08h.08l.08.08c.35,3.15,2.18,6.14,4.82,8.62v.08c8.26,8.12,21.51,9.29,32.82,10.59,0,0,26.33,3.24,26.33,3.24l68.72,8.54c10.26,1.75,22.3,1.58,31-1.9v.16q0-.08.08-.16c.63-.16,1.03-.4,1.58-.71h.24c8.18-3.56,14.13-8.44,14.23-16.21,5.9-.22,33.01,2.57,39.38,2.92Z"/></g><g class="cls-37"><path class="cls-29" d="M1842.31,1194.86c-5.15-2.93-8.27-6.85-8.86-11.39v-.39c-.16-.87-.08-1.66,0-2.53,3.64,4.11,6.72,9.01,8.86,14.31Z"/><path class="cls-29" d="M1951.2,1156.51c-3.8,10.6-5.77,21.59-5.38,32.34l-46.74,1.58c-2.24-11.22-6.76-22.05-12.57-31.71l64.69-2.21Z"/><path class="cls-29" d="M2014.54,1174.46c-.71,5.61-5.38,10.91-12.26,14.79-.32-.08-.63-.24-1.03-.24.08-8.86,3.48-18.11,8.86-25.62.32.32.55.55.79.79.6.63,1.17,1.45,1.66,2.14.08.08.16.08.16.16.16.24.32.47.39.79.6,1.03,1.03,2.12,1.19,3.24.08.16.16.24.08.32.08.16.08.4.08.55.24,1.03.24,1.98.08,3.08Z"/><path class="cls-14" d="M1972.87,1218.98c2.27-.12,4.8-.14,7.04-.4.33,0,.63.03.95-.08,1.34-.06,2.91-.15,4.27-.4.76-.05,1.58-.13,2.37-.32,6.74-.82,13.43-2.24,19.85-4.35h.08c1.11-.32,2.06-.63,3.08-.95.32-.16.63-.32.95-.4.16,0,.24-.08.39-.16h.08c.32-.08.55-.16.79-.32h.08c.55-.16.95-.32,1.42-.55.14.01.28-.04.4.08-.08,0-.16-.08-.24-.16.18-.11.38-.06.55-.16.63-.31,1.26-.55,1.9-.79h.16c.08-.08.24-.08.32-.16,0-.11.15-.07.16-.08h.08c.08-.08.16-.08.24-.16.12-.04.2-.12.32-.16,5.35-2.25,10.64-5.03,15.34-8.3.76-.53,1.68-1.17,2.37-1.74h.08c7.68-5.81,14.79-13.59,17.24-23.09v-.08l1.74-.71,2.61,22.93.08.47c1.62,24.14-23.53,41.2-55.83,49.03-14.17,4.57-114.49,5.3-131.19,6.56-28.77,1.3-66.08-4.72-72.6-34.48-.63-5.14-2.88-24.91-3.56-30.37,0,.16.08.32.16.47.26,1.89.96,3.73,1.82,5.46,0,.28.31.52.32.79.32.55.55,1.03.87,1.58.08.24.24.4.32.63.53.87,1.04,1.43,1.58,2.29.08.08.08.16.24.24,1.26,1.76,2.76,3.45,4.51,4.9.08.16.16.24.24.24,1.62,1.51,3.2,2.77,5.14,4.03h.08c1.34.95,2.77,1.82,4.27,2.61.32.24.63.4,1.03.55.24.16.4.32.47.55h.55c2.94,1.41,5.84,2.71,9.02,3.72,3.71,1.32,7.49,2.19,11.39,3.01h.16c.24.08.55.08.79.16,2.34.41,4.81.86,7.2,1.03.66.16,1.51.2,2.21.24,1.12.22,2.21.12,3.4.31,1.23.06,3.22.22,4.51.16.6.19,4.46.03,5.14.08l.08-.08c32.25-.84,80.48-2.77,112.92-3.72"/><path class="cls-14" d="M1818.66,1215.34c-.87-.4-1.82-.87-2.69-1.26h-.55c-.08-.24-.24-.4-.47-.55.4.24.79.47,1.19.55h.08c.79.47,1.58.87,2.45,1.26Z"/><path class="cls-14" d="M2014.62,1211.15c-.08-.08-.16-.08-.24-.08v-.08c.08.08.16.16.24.16Z"/><path class="cls-14" d="M2054.87,1175.57l-1.74.71c.7-2.63.97-5.67.79-8.3l.95,7.59Z"/><path class="cls-3" d="M1844.36,1201.11v.08l.08-.08h-.08ZM1816.21,1214.08h-.08c-.39-.08-.79-.32-1.19-.55.24.16.4.32.47.55h.55c.87.4,1.82.87,2.69,1.26-.87-.4-1.66-.79-2.45-1.26ZM1859.7,1214.79v.08l.08-.08h-.08ZM1972.71,1218.58c0,.16,0,.24.08.4h.08c-.08-.08-.08-.24-.16-.4ZM1873.07,1136.11c-1.58.08-3.16.16-4.74.32,6.88,6.33,13.13,13.92,18.19,22.3l64.69-2.21c2.93-8.22,6.96-16.13,11.94-23.41l-90.07,3ZM2014.22,1210.99v.08h.16v-.08c-.08.08-.16,0-.16,0ZM1844.36,1201.11v.08l.08-.08h-.08Z"/></g><g class="cls-37"><path class="cls-29" d="M1437.11,1117.45c-2.69,4.27-7.4,7.22-12.18,9.25-.56-.37-11.56-4.36-12.49-4.74-.04-.21.19-.32.32-.47,5.81-7.36,15.85-6.07,24.36-4.03Z"/><path class="cls-11" d="M1474.83,1124.4c-19.25,28.48-62.54,32.43-94.5,26.41-8.14-.33-101-36.81-111.03-40.09-15.61-6.01-32.26-16.74-33.92-34.64v-1.42c0,.24.08.47.08.71,4.37-43.82,74.43-51.02,113.71-36.54,0,0,75.84,28.39,75.84,28.39-3.13.95-24.76,14.79-28.07,16.61l-69.04-25.78c-16.05-6.01-37.32-3.32-47.61,5.85-11.03,9.44-3.71,22.34,8.78,26.89,1.92,1.16,85.36,31.83,87.3,32.74,18.57,8.62,46.68,11.66,60.73-6.09l2.14.4,35.59,6.56Z"/><path class="cls-29" d="M1397.02,1083.92c-.16,0-.24.08-.32.16-8.78,5.06-15.18,13.84-18.19,25.15l-50.77-18.98c-12.26-4.51-27.52-4.11-38.67.55-12.48-4.55-19.81-17.45-8.78-26.89,10.28-9.17,31.55-11.86,47.6-5.85l69.04,25.78.08.08Z"/><path class="cls-14" d="M1576.76,1160.07c-.08-.16-.08-.24-.16-.4v-.08c-9.57-29.02-32.83-56.82-63.66-63.34-14.61-2.59-52.55-9.73-66.66-12.34h-.24c-14.93-2.53-33.68-8.7-47.84-.71-.4.24-.71.47-1.11.71-.17-.02-.31.06-.39.16-12.94,7.09-20.21,23.92-20.32,39.46,9.87,4.04,20.93,7.87,31.87,6.8.74-3.05,2.05-6.02,4.11-8.38h.08c-.04-.21.19-.32.32-.47,6.49-8.13,17.34-5.58,26.49-3.64,0,0,35.59,6.56,35.59,6.56,1.17.33,30.48,5.66,32.74,6.09,0,0,10.6,1.98,10.6,1.98,12.43,2.43,22.73,13.13,27.91,24.91l.08.08v.08c8.27,8.12,21.5,9.29,32.82,10.6-.63-2.69-1.26-5.46-2.21-8.07ZM1437.98,1105.35c0-.08-.08-.08-.08-.16h.08v.16Z"/><path class="cls-29" d="M1437.98,1105.19v.16c0-.08-.08-.08-.08-.16h.08Z"/><path class="cls-14" d="M1478.78,1125.19l-.08,17.87c-3.87,34.3-49.78,43.51-79.95,42.39-25.2,1.15-105.18-34.92-129.53-42.54-38.51-15.08-34.39-32.98-33.85-66.27,0,.08,0,.24.08.32,2.21,17.48,18.47,27.82,33.85,33.77,10.37,3.39,102.47,39.65,111.03,40.09,31.97,6.03,75.24,2.06,94.5-26.41l3.95.79Z"/><path class="cls-29" d="M1235.46,1076.96c-.15-.19-.05-.65-.08-.87.08.31.08.63.08.87Z"/><path class="cls-3" d="M1235.38,1076.09c.03.22-.07.68.08.87,0-.24,0-.55-.08-.87ZM1437.9,1105.19c0,.08.08.08.08.16v-.16h-.08Z"/></g><g class="cls-37"><path class="cls-29" d="M1437.98,1105.19v.16c0-.08-.08-.08-.08-.16h.08Z"/><path class="cls-29" d="M1504.41,1191.15l-62.08-11.47c10.2-3.45,18.8-8.18,25.62-14.63l33.61,6.17c-.04,6.47-.49,14,2.85,19.93Z"/><path class="cls-18" d="M1605.31,1171.38l-26.33-3.24c-.67-2.82-1.32-5.75-2.37-8.46v-.08c-7.5-22.55-23.7-44.4-44.68-56.38-12.18-8.06-50.41-12.03-64.53-15.34-5.2-.97-15.91-3-21.11-3.95h-.24c-13.28-2.09-30.55-7.87-43.57-2.53-1.46.45-2.9,1.23-4.27,1.82-.4.24-.71.47-1.11.71h-.08l-.08-.08c15.28-8.64,32.67-24.07,52.11-18.74,10.81,2.7,95.01,15.59,102.8,21.03,30.99,14.99,53.38,50.55,53.46,85.25Z"/><path class="cls-3" d="M1397.02,1083.92c-.16,0-.24.08-.32.16l.24-.24.08.08Z"/><path class="cls-3" d="M1568.62,1222.46l-6.88,4.19c1.96-1.23,3.78-2.74,5.46-4.35.07-.02,1.35.16,1.42.16Z"/><path class="cls-15" d="M1560.16,1221.43c-22.94-3.19-45.64-11.52-55.67-30.29h-.08l-62.08-11.47c-13.13,4.51-28.39,6.48-43.57,5.77,12.26,15.01,27.24,26.21,45.47,29.73,0,0,88.25,16.37,88.25,16.37,14.09,2.49,25.57-.6,34.71-9.25l-7.04-.87Z"/></g><g class="cls-37"><path class="cls-29" d="M1721.16,1161.1c-.1,7.77-6.06,12.65-14.23,16.21h-.24c-.55.31-.95.55-1.58.71.08-.36.05-.72.16-1.03v-.08c.2-.75.33-1.7.63-2.37,0-.09,0-.25.08-.24,0-.16,0-.24.08-.32.08-.4.24-.79.47-1.19,0-.08,0-.24.08-.32.81-2.08,1.92-3.98,3.4-5.61.24-.32.55-.63.95-.95.08-.16.24-.32.39-.4.16-.16.24-.24.4-.32.34-.56,1.08-.94,1.66-1.34,2.29-1.57,4.87-2.46,7.75-2.77Z"/><path class="cls-29" d="M1801.19,1229.74c-16.48-1.42-47.4-3.71-63.5-5.22,8.07-4.43,14.47-9.96,18.35-16.29,4.23,2.31,35.86,3.58,41.04,4.35.62,5.5,1,12.37,4.11,17.16Z"/><path class="cls-29" d="M1818.66,1215.34c-.87-.4-1.82-.87-2.69-1.26h.24c.79.47,1.58.87,2.45,1.26Z"/><polygon class="cls-29" points="1859.78 1214.79 1859.7 1214.87 1859.7 1214.79 1859.78 1214.79"/><path class="cls-18" d="M1900.43,1198.34l-27.12.87c-1-3.76-2.4-7.45-3.8-11.07-2.94-6.92-6.59-13.75-10.83-19.93l-.16-.16c-1.4-1.91-2.54-3.7-4.11-5.46-.98-1.4-2.2-2.66-3.32-4.03,0-.08-.16-.16-.16-.16-4.82-5.58-10.51-10.5-16.45-14.79-.12.03-.15-.06-.24-.08-16.74-14.61-50.42-12.85-70.93-15.18-10.19-.79-25.79-2.04-35.98-2.85l-.24-.08c-4.92-.18-10.36-1.17-15.26-.87-2.23,0-4.42.22-6.56.71-.08-.08-.16,0-.16,0-3.8.73-7.3,2.04-10.68,3.87,14.8-8.04,28.23-21.6,46.81-19.37l86.59,6.88c36.32,4.31,63.85,39.23,71.25,73.78.55,2.69,1.03,5.3,1.34,7.91Z"/><path class="cls-3" d="M1870.54,1254.57l-12.26,7.51c3.04-2.12,5.6-4.47,7.83-7.35.1,0,4.33-.16,4.43-.16Z"/><path class="cls-2" d="M1865.79,1254.72c-25.5.47-51.98-5.04-64.61-24.99-16.48-1.42-47.4-3.71-63.5-5.22h-.16c-10.28,5.7-23.25,9.57-37.4,10.99,12.62,13.88,28.38,24.07,46.5,25.78,0,0,86.59,6.96,86.59,6.96,9.64.72,18.04-1.49,24.91-6.09.08,0,.08-.08.16-.08,3.06-2.11,5.6-4.54,7.91-7.35h-.4Z"/><path class="cls-11" d="M1972.87,1218.98c2.27-.12,4.8-.14,7.04-.4.33,0,.63.03.95-.08,1.34-.06,2.91-.15,4.27-.4.76-.05,1.58-.13,2.37-.32,6.74-.82,13.43-2.24,19.85-4.35h.08c1.11-.32,2.06-.63,3.08-.95.32-.16.63-.32.95-.4.16,0,.24-.08.39-.16h.08c.32-.08.55-.16.79-.32h.08c.55-.16.95-.32,1.42-.55v-.08c.08.07.56-.14.71-.16.63-.31,1.26-.55,1.9-.79h.16c.08-.08.24-.08.32-.16,0-.11.15-.07.16-.08h.08c.08-.08.16-.08.24-.16.12-.04.2-.12.32-.16,5.35-2.25,10.64-5.03,15.34-8.3.76-.53,1.68-1.17,2.37-1.74h.08c7.68-5.81,14.79-13.59,17.24-23.09v-.08c.7-2.78,1.09-6.04.71-8.78,0-.02,0-.18,0-.16v-.08c-.9-8.74-6.47-16.51-15.26-22.54-10.42,4.04-21.94,8.57-28.47,18.66.32.32.55.55.79.79.6.63,1.17,1.45,1.66,2.14.08.08.16.08.16.16.16.24.32.47.39.79.6,1.03,1.03,2.12,1.19,3.24.08.16.16.24.08.32.08.16.08.4.08.55,1.14,7.7-5.17,14.08-13.21,18.42-14.06,8.19-38.54,5.8-54.8,6.96,0,0-46.02,1.58-46.02,1.58l-27.12.87c-13.99,1.07-36.3.38-39.85-15.74v-.39c-.16-.87-.08-1.66,0-2.53-8.24-10.43-20.83-13.25-33.21-13.28-4.81,6.66-7.21,14.14-5.93,21.9.14.34,0,.7.24,1.03.24,1.86,1.01,3.77,1.82,5.46,0,.28.31.52.32.79.32.55.55,1.03.87,1.58.08.24.24.4.32.63.53.87,1.04,1.43,1.58,2.29.08.08.08.16.24.24,1.26,1.76,2.76,3.45,4.51,4.9.08.16.16.24.24.24,1.62,1.51,3.2,2.77,5.14,4.03h.08c1.34.95,2.77,1.82,4.27,2.61.32.24.63.4,1.03.55.4.24.79.47,1.19.55h.08c2.75,1.57,5.71,2.69,8.78,3.72,3.71,1.32,7.49,2.19,11.39,3.01h.16c.24.08.55.08.79.16,2.34.41,4.81.86,7.2,1.03.66.16,1.51.2,2.21.24,1.12.22,2.21.12,3.4.31,1.23.06,3.22.22,4.51.16.6.19,4.46.03,5.14.08l.08-.08c32.25-.84,80.48-2.77,112.92-3.72"/></g><g class="cls-37"><path class="cls-3" d="M2152.61,1077.43v.08c-.32-.24-.63-.4-.95-.47.32.08.63.24.95.4Z"/><path class="cls-3" d="M2153.09,1077.75c-.08-.08-.16-.08-.24-.16h.16c.08.08.08.16.08.16Z"/><path class="cls-29" d="M2120.9,1171.77c-.16.08-.4.24-.55.32-15.66,6.82-47.44,19.8-62.87,26.41l-2.61-22.93,33.77-14.07h.08c9.17,4.98,20.24,8.54,32.19,10.28Z"/><path class="cls-29" d="M2140.43,1118.08v.08c-7.35.08-14.55-1.19-20.56-3.64-.16-1.19-.39-2.29-.71-3.4,5-1.49,10.39-1.12,14.47,1.03.08,0,.08.08.16.08,1.99.89,3.67,2.29,5.14,3.95.24.16.4.4.55.71,0,0,.08,0,.08.08h.08c.08.08.16.16.24.32.08.16.28.32.32.47.08,0,.16.08.16.16,0,0,.08.08.08.16Z"/><path class="cls-18" d="M2152.61,1077.43c-.32-.16-.63-.32-.95-.4-1.27-.63-2.61-1.26-3.95-1.66-5.52-2.02-11.71-2.63-17.56-1.9-.4-.08-.79,0-1.19.16-.25,0-.54-.03-.79.08-7.83.54-17.67,5.41-25.07,8.38-7.64,3.15-35.98,15.08-44.13,18.5-21.92,9.58-48.58,16.98-63.97,36.61-.4.31-.71.71-.95,1.11-.24.24-.39.4-.55.63-.32.32-.63.71-.87,1.11-1.32,1.41-2.4,2.88-3.48,4.51-.32.32-.55.63-.71,1.03-.95,1.27-1.82,2.53-2.61,3.88-1.35,2.01-2.67,4.17-3.72,6.32-.27.39-.47.78-.63,1.19-.55,1.03-1.11,2.06-1.58,3.08l-.08.08c-.16.32-.24.55-.32.79l-.08.08c-.95,2.06-1.9,4.19-2.69,6.25,0,.08,0,.16-.08.16-.47,1.19-.95,2.45-1.26,3.64-.08.08-.16.24-.16.32-.32.79-.55,1.5-.79,2.29,0,.08,0,.16-.08.24-1.23,4-2.23,7.94-2.85,12.02-.08.08-.08.16-.08.24-.32,1.45-.49,2.88-.63,4.35-.41,1.73-.34,3.6-.47,5.46l-23.88.79c-.32-2.51-.69-5.27-.63-7.91-1.05-35.32,22.22-73.88,54.48-87.7,10.85-4.55,32.69-13.7,43.49-18.19,14.86-5.62,41.16-18.55,56.22-22.46,18.55-5.81,37.56,8.58,52.59,16.92Z"/><path class="cls-16" d="M1991.84,1187.51l.08.08v-.08h-.08ZM1990.66,1187.43v.08h.16q-.08-.08-.16-.08ZM1991.84,1187.51l.08.08v-.08h-.08ZM1990.66,1187.43v.08h.16q-.08-.08-.16-.08ZM1991.84,1187.51l.08.08v-.08h-.08ZM1990.66,1187.43v.08h.16q-.08-.08-.16-.08ZM1991.84,1187.51l.08.08v-.08h-.08ZM2120.98,1171.77h-.08c-.16.08-.4.24-.55.32-15.66,6.82-47.44,19.8-62.87,26.41,2.06,24.46-23.29,41.61-55.75,49.5,9.41,2.48,20.65.81,30.21-3.32,0,0,89.28-37.4,89.28-37.4,15.89-6.64,29.97-19.93,39.7-35.98-13.29,2.45-27.05,2.45-39.93.47ZM1991.92,1187.59v-.08h-.08l.08.08ZM1990.66,1187.51h.16q-.08-.08-.16-.08v.08ZM1991.84,1187.51l.08.08v-.08h-.08ZM1990.66,1187.43v.08h.16q-.08-.08-.16-.08ZM1991.84,1187.51l.08.08v-.08h-.08ZM1990.66,1187.43v.08h.16q-.08-.08-.16-.08ZM2151.66,1077.04c.32.08.63.24.95.47v-.08c-.32-.16-.63-.32-.95-.4ZM2153.01,1077.59h-.16c.08.08.16.08.24.16,0,0,0-.08-.08-.16ZM1991.84,1187.51l.08.08v-.08h-.08ZM1990.66,1187.43v.08h.16q-.08-.08-.16-.08ZM1991.84,1187.51l.08.08v-.08h-.08ZM1990.66,1187.43v.08h.16q-.08-.08-.16-.08Z"/><path class="cls-22" d="M2153.88,1078.14c-.08-.08-.16-.08-.24-.16h-.08c-.16-.08-.24-.16-.39-.24h-.08c-.16-.08-.29-.27-.47-.24-.32-.24-.63-.4-.95-.47-1.27-.63-2.61-1.26-3.95-1.66-5.52-2.02-11.71-2.63-17.56-1.9-.4-.08-.79,0-1.19.16-.25,0-.54-.03-.79.08-7.83.54-17.67,5.41-25.07,8.38-7.64,3.15-35.98,15.08-44.13,18.5-21.92,9.58-48.58,16.98-63.97,36.61-.4.31-.71.71-.95,1.11-.24.24-.39.4-.55.63-.32.32-.63.71-.87,1.11-1.32,1.41-2.4,2.88-3.48,4.51-.32.32-.55.63-.71,1.03-.95,1.27-1.82,2.53-2.61,3.88-1.35,2.01-2.67,4.17-3.72,6.32-.27.39-.47.78-.63,1.19-.55,1.03-1.11,2.06-1.58,3.08l-.08.08c-.16.32-.24.55-.32.79l-.08.08c-.95,2.06-1.9,4.19-2.69,6.25,0,.08,0,.16-.08.16-.47,1.19-.95,2.45-1.26,3.64-.08.08-.16.24-.16.32-.32.79-.55,1.5-.79,2.29,0,.08,0,.16-.08.24-1.23,4-2.23,7.94-2.85,12.02-.08.08-.08.16-.08.24-.32,1.45-.49,2.88-.63,4.35-.41,1.73-.34,3.6-.47,5.46,10.36.12,22.83-1.5,30.92-6.17-.02-22.74,16.58-38.92,37.33-45.07,11.08-4.7,33.48-14.13,44.6-18.74h.16l32.03-13.52c5.73-2.59,13.06-3.18,18.27-.32.08,0,.08.08.16.08,1.99.89,3.67,2.29,5.14,3.95.24.16.4.4.55.71,0,0,.08,0,.08.08h.08c.08.08.16.16.24.32.08.16.28.32.32.47.08,0,.16.08.16.16,0,0,.08.08.08.16,11.51-.07,27.8-4.29,32.42-15.26-3.48-11.31-10.2-19.77-18.98-24.67Z"/></g><g class="cls-37"><path class="cls-29" d="M2173.8,1098.31v7.28c-3.28-11.93-10.32-22.32-19.93-27.44-.08-.08-.16-.08-.24-.16h-.08c-.16-.08-.24-.16-.39-.24h-.08c-.16-.08-.29-.27-.47-.24-.32-.24-.63-.4-.95-.47.32.08.63.24.95.4-8.69-4.41-26.27-16.82-36.22-17.56-12.72-9.88-35.37-11.26-51.16-3.16-9.31-9.73-17.58-19.78-3.4-30.13h.08c16.84-11.01,44.19-9.84,57.41,3.72,0,0,50.85,59.07,50.85,59.07,2.45,2.85,3.64,5.93,3.64,8.93Z"/><path class="cls-14" d="M2043.8,1082.97l-20.48,8.54c-13.48-12.66-7.55-35.98-8.62-51.88,0,.32,0,.63.08.87,0,.4,0,.79.08,1.26,0,.71.16,1.34.32,2.06.5,3.03,1.67,5.97,3.24,8.7,0,0,0,.08.08.08,1.78,4.08,22.23,26.43,25.3,30.36Z"/><path class="cls-14" d="M2213.34,1098.31l-.16,32.26c-4.4,45.67-90.12,51.97-124.47,30.92h-.08c-11.02-5.2-19.96-17.53-27.6-26.25l22.14-9.25h.08c5.33,3.46,11.22,6.39,17.24,8.46,4.81,1.79,9.74,3.03,14.79,4.11h.08c8.76,1.75,17.74,2.66,26.65,2.37.4-.03,2.03.09,2.37-.08.08.08.24.08.32,0,14.86-.58,30.11-3.61,43.41-10.36h.08c7.37-3.87,14.01-8.57,18.98-15.1v-.08c.9-1.21,1.75-2.51,2.53-3.87.08-.24.24-.4.4-.63.08-.32.24-.63.47-.95,1.7-3.65,2.74-7.54,2.77-11.55Z"/><path class="cls-3" d="M2172.86,1102.81c.39.95.71,1.74.95,2.77v-6.88c-.08,1.35-.39,2.77-.95,4.11ZM2140.43,1118.08v.08c.16.16.24.32.32.47,0-.16-.16-.4-.24-.55h-.08ZM2140.51,1118.08h-.08v.08c.16.16.24.32.32.47,0-.16-.16-.4-.24-.55Z"/><path class="cls-11" d="M2140.51,1118.08c15.01.98,43.35-11.24,29.65-28.71,0,0-50.85-59.07-50.85-59.07-13.23-13.57-40.57-14.72-57.41-3.72h-.08c-14.19,10.36-5.9,20.41,3.4,30.13,0,0,10.91,12.73,10.91,12.73l-32.34,13.52c-3.22-4.07-23.38-26.16-25.3-30.36-.08,0-.08-.08-.08-.08-1.57-2.72-2.74-5.67-3.24-8.7-.22-1-.4-2.29-.39-3.32,3.64-53.72,111.57-55.43,139.89-20.32,0,0,50.85,58.99,50.85,58.99,8.5,9.88,9.79,20.49,5.06,30.68-.24.32-.4.63-.47.95-.16.24-.32.4-.4.63-.78,1.36-1.63,2.66-2.53,3.87v.08c-4.97,6.54-11.61,11.23-18.98,15.1h-.08c-13.3,6.75-28.55,9.78-43.41,10.36-.08.08-.24.08-.32,0-.33.16-1.98.04-2.37.08-8.91.29-17.89-.62-26.65-2.37h-.08c-5.04-1.08-9.98-2.32-14.79-4.11-6.02-2.07-11.91-5.01-17.24-8.46l32.11-13.52c7.57,3.99,15.82,5.73,25.07,5.69"/></g></g><g class="cls-38"><path class="cls-29" d="M1042.98,947.03c-.16.87-.39,1.82-.71,2.61-2.71-1.87-6.63-4.34-8.38-6.88-6.32-6.96-2.51-16.43,4.59-20.88,4.35,8.22,6.09,17.4,4.51,25.15Z"/><path class="cls-29" d="M1172.28,985.23c.19,5.84-5.2,12.32-13.44,15.74l-62.71-43.65c3.08-9.33,3.64-20.01,1.98-30.92,4.72,4.4,73.24,48,73.07,53.77.68,1.69,1.11,3.28,1.11,5.06Z"/><path class="cls-14" d="M1211.82,985.38c16.59,74.94-74.89,89.53-126.05,62.31-1.58-.95-3.16-1.9-4.66-3l-72.91-50.69c-22.25-12.3-16.54-39.01-17-59.47.02,3.2.57,6.47,1.9,9.41.51,1.65,1.35,3.22,2.37,4.75v.08c1.48,2.47,3.28,4.59,5.3,6.72,0,.08.08.08.08.08,3.41,4.43,48.72,34.59,54.09,38.67h.08c38.37,35.07,109.52,50.61,150.09,8.94v-.08c4.05-4.96,6.65-11.3,6.72-17.71Z"/><path class="cls-3" d="M1211.82,985.38c-.07,6.41-2.7,12.78-6.72,17.71v.08c-40.58,41.67-111.7,26.14-150.09-8.94h-.08c-5.66-4.29-50.41-34.05-54.09-38.67,0,0-.08,0-.08-.08-2.02-2.14-3.82-4.25-5.3-6.72v-.08c-.94-1.53-1.89-3.1-2.37-4.75-7.66-18.73,8.66-35.77,26.25-43.18,7.08,5.8,15.39,12.66,19.14,21.12-7.1,4.45-10.9,13.92-4.59,20.88,1.75,2.54,5.68,5.02,8.38,6.88v.08c9.55,6.39,30.55,21.29,39.85,27.76h.08l29.34,20.4c.63.47,1.34.87,2.06,1.35,15.58,10.69,64.11,7.57,57.57-19.06.41-5.59-68.63-49.59-73.07-53.77-1.58-10.99-5.46-22.22-11.31-32.74,28.37,1.45,84.65,50.14,107.86,64.13,11.54,8.07,17.16,17.87,17.16,27.6Z"/><path class="cls-29" d="M809.07,778.28c0,.32-.08.63-.16.95-1.7-2.66-2.6-5.94-1.9-8.94,0-.39.08-.71.24-1.03-.05-.1-.01-.25.08-.4.32-1.22.82-2.32,1.58-3.4.87,4.51.95,8.93.16,12.81Z"/><path class="cls-29" d="M905.15,792.04l-7.35,4.59c-.09.02-.12.11-.24.08l-.08.08s0,.08-.08.08c-4.73,2.54-8.62,5.87-12.02,10.36-5.1-4-17.27-16.23-23.33-18.43,3.16-9.17,3.87-20.01,2.14-31.16,11.67,7.48,30.27,25.81,40.96,34.4Z"/><path class="cls-29" d="M937.65,832.29c-1.84,4.36-6.72,8.1-11.39,10.28l-11.39-9.81v-.08c.24-.24.4-.4.63-.47.16-.24.39-.32.63-.47.09-.02.12-.11.24-.08,5.81-3.78,14.79-3,21.27.63Z"/><path class="cls-14" d="M977.59,865.1c-17.12,44.38-89.98,44.17-125.34,24.6-4.48-1.21-67.23-57.13-72.6-61.37-17.92-13.1-11.34-37.63-12.41-56.07.02,2.82.39,5.45,1.42,8.07.16,1.37,1.1,2.61,1.5,3.87.08.08.08.16.16.24,0,.06-.03.2.08.24,0,0,0,.08.08.08.95,1.88,2.34,3.88,3.72,5.61v.08c8.49,9.25,32.99,28.87,42.15,37.33,26.79,28.3,64.33,48.48,104.3,41.2,15.12-2,30.49-6.63,42.78-15.89h.08l14.08,12.02Z"/><path class="cls-14" d="M963.59,852.93l-.08.16h-.08v-.08c.08,0,.08-.08.16-.08Z"/><path class="cls-3" d="M963.43,853.01v.08h.08l.08-.16c-.08,0-.08.08-.16.08ZM902.54,748.62c-12.91-10.85-28.68-15.8-46.81-18.19,4.35,8.94,7.2,18.19,8.46,27.2,11.67,7.48,30.27,25.81,40.96,34.4h.08c8.78-5.15,20.24-14.04,30.92-14.31l-33.61-29.1ZM770.56,784.84l.08.08v-.08h-.08Z"/><path class="cls-3" d="M963.43,853.01v.08c-12.29,9.27-27.66,13.89-42.78,15.89-39.95,7.29-77.55-12.91-104.3-41.2-9.19-8.46-33.65-28.06-42.15-37.32v-.08c-1.25-1.73-2.9-3.58-3.56-5.54h-.08l-.08-.08c-.08,0-.08-.08-.08-.08-.11-.04-.07-.17-.08-.24-.08-.08-.08-.16-.16-.24-.4-1.27-1.34-2.5-1.5-3.87-6.36-17.74,9.25-34.03,25.86-41.28,6.7,7.42,13.04,17.16,14.39,26.41-.76,1.08-1.26,2.18-1.58,3.4-.09.15-.13.29-.08.4-.16.32-.24.63-.24,1.03-.7,2.99.2,6.28,1.9,8.94v.08c1.05,1.54,2.61,3.23,4.27,4.59h.08l6.01,5.22h.08c14.74,12.92,41.6,36.06,56.62,49.11h.08c15.7,12.65,49.94,13.14,61.6-5.93,5.51,2.41,20.81,16.87,25.78,20.72Z"/><path class="cls-29" d="M592.63,565c-1.07.93-2.1,1.75-3.32,2.14-2.23-4.98-2.64-9.94-.79-14.71.54-1.7,1.54-3.36,2.69-4.83,1.84-2.42,4.34-4.48,7.04-5.93.79,10.12-1.11,18.98-5.61,23.33Z"/><path class="cls-29" d="M694.09,599c-4.51,2.81-14.21,8.73-18.51,11.55h-.08c-.37.3-.91.53-1.34.79h-.16s0,.08-.08.08l-.08.08v-.08h-.08l-26.97-28.55c3.72-7.19,5.77-16.6,6.25-27.2l2.77,2.85,38.27,40.49Z"/><path class="cls-29" d="M719.79,649.93c-1.42,1.9-3.4,3.64-5.69,5.14-2.27-3.97-6.9-8.06-9.96-11.55,5.67.44,11.02,2.77,15.66,6.41Z"/><path class="cls-14" d="M752.21,687.49c-23.82,40.67-88.1,33.4-120.12,6.49,1.37,3.43-73.66-77.76-74.97-78.6-22.58-22.3-13.92-45.42-7.75-69.99-3.01,12.43.9,25.53,8.3,35.74v.08c.08.08.16.08.16.16,16.16,17.34,72.52,82.4,92.76,93.94,27.73,15.85,65.5,19.56,93.08,1.74l8.54,10.44Z"/><rect class="cls-14" x="760.91" y="654.6" width=".08" height=".08"/><path class="cls-3" d="M679.06,536.53c-8.52-8.94-18.98-15.61-30.68-20.4,3.73,13.71,5.22,27.4,4.67,39.54l2.77,2.85,38.27,40.49c11.46-7.82,25.36-9.22,40.17-3.95l-55.2-58.52ZM702.47,607.86l.08.08c.55.08,1.03.16,1.58.32-.55-.16-1.11-.32-1.66-.4ZM760.91,654.6v.08h.08v-.08h-.08Z"/><path class="cls-3" d="M743.67,677.06c-27.6,17.81-65.34,14.12-93.08-1.74-20.06-11.36-76.77-76.78-92.76-93.94,0-.08-.08-.08-.16-.16v-.08c-22.15-27.51-1.62-64.49,31.31-70.06,4.12,9.46,8.83,20.29,9.25,30.6-2.7,1.45-5.2,3.51-7.04,5.93-1.15,1.47-2.15,3.13-2.69,4.83-6.65,19.04,20.76,34.54,30.21,47.76,24.41,23.21,63.14,85.37,101.06,49.74,6.26,3.98,18.76,21.47,23.88,27.12Z"/><path class="cls-29" d="M926.26,842.57c-5.77,2.78-12.18,4.11-18.82,4.35.33-3.48,1.38-6.79,3.24-9.65v-.08c1.13-1.7,2.45-3.21,4.03-4.43-.02-.05.14-.15.16,0l11.39,9.81Z"/><path class="cls-29" d="M999.96,914.13c-8.37,8.43-9.32,17.93-8.78,28.23l-52.75-45c9.46-2.65,19.84-7.7,26.33-13.21l35.19,29.97Z"/><path class="cls-24" d="M1096.12,957.31c-2.65,7.97-7.72,15.61-13.92,20.17h-.08l-9.81-6.88c18.17-62.47-54.69-108-93.95-142.58v-.08h-.08c-19.14-16.77-44.29-41.16-71.41-34.48-1.81.44-3.66.81-5.38,1.58-.58.1-1.16.4-1.66.63-.62.41-1.51.59-2.06.95l7.35-4.59h.08c22.9-19.57,53.73-18.18,76.31,2.93,40.55,39.16,137.65,92.94,114.58,162.34Z"/><path class="cls-8" d="M991.11,966.48l.08-24.12-52.75-45c-11.78,3.56-24.59,5.06-37.17,4.75,10.66,11.57,86.3,75.14,99.09,85.32-6.25-6.48-9.33-13.76-9.25-20.96Z"/><path class="cls-14" d="M1074.61,950.67c.31,6.88-.47,13.45-2.29,19.93-3.36-2.31-27.22-19.12-30.05-20.88,11.3-38.3-56.27-71.97-78.76-96.63l.08-.16c-.08,0-.08.08-.16.08-12.07-9.36-30.12-31.61-47.05-21.35-.12-.03-.15.06-.24.08-.24.16-.47.24-.63.47-.24.08-.4.24-.63.47-.07-.02-.18.04-.16.08-1.58,1.22-2.9,2.73-4.03,4.43v.08c-1.86,2.86-2.91,6.17-3.24,9.65-11.95.48-23.16-1.76-31.39-8.7.07-16.55,6.52-33.54,21.35-41.36.08,0,.08-.08.08-.08l.08-.08c.64-.3,1.56-.61,2.29-1.03.5-.23,1.08-.53,1.66-.63,1.72-.77,3.57-1.15,5.38-1.58,27.09-6.7,52.31,17.73,71.41,34.48h.08v.08c34.15,31.07,97.84,69.68,96.24,122.65Z"/><path class="cls-29" d="M777.99,749.97c-10.18,9.19-11.43,19.71-10.75,31.39-9.29-10.95-46.59-56.84-55.12-67.06,9.8-1.93,19.42-5.72,27.12-11.62l38.75,47.29Z"/><path class="cls-29" d="M809.07,778.28c0,.32-.08.63-.16.95-.32-.4-.55-.87-.71-1.26.32.16.63.24.87.31Z"/><path class="cls-3" d="M673.77,611.5c-.08,0-.08.08-.08.08v-.08h.08Z"/><path class="cls-3" d="M673.84,611.42v.08h-.08v-.08h.08Z"/><path class="cls-24" d="M862.05,788.79c-3.04,9.4-9.09,17.39-17.48,22.22l-7.28-6.25c.91-2.58,1.77-5.11,2.21-7.83.08-.08.08-.16.08-.24.69-3.63,1.16-7.38,1.11-11.15.21-3.46-.09-7.03-.55-10.52-.54-5.79-1.91-11.84-3.8-17.32-.33-1.25-.78-2.58-1.27-3.72-.09-.47-.33-.96-.47-1.42-.04.02-.1-.09-.08-.16-1.44-3.45-2.9-7.06-4.82-10.44-.27-.81-.82-1.64-1.26-2.29-5.17-11.65-58.81-73.7-67.37-85.01h-.08v-.08h-.08v-.08c-19.84-26.91-51.68-60.15-86.75-43.18,31.37-27.29,69.97-24.26,96.55,10.45,28.26,41.76,112.68,108.88,91.34,167.01Z"/><path class="cls-3" d="M704.13,608.26c-.55-.16-1.03-.24-1.58-.32l-.08-.08c.55.08,1.11.24,1.66.4Z"/><path class="cls-28" d="M770.56,784.84l.08.08v-.08h-.08ZM770.56,784.84l.08.08v-.08h-.08ZM770.56,784.84l.08.08v-.08h-.08ZM770.56,784.84l.08.08v-.08h-.08ZM770.56,784.84l.08.08v-.08h-.08ZM770.56,784.84l.08.08v-.08h-.08ZM770.56,784.84l.08.08v-.08h-.08ZM770.56,784.84l.08.08v-.08h-.08ZM770.56,784.84l.08.08v-.08h-.08ZM770.56,784.84l.08.08v-.08h-.08ZM770.56,784.84l.08.08v-.08h-.08ZM770.64,784.84h-.08l.08.08v-.08ZM767.16,804.45l.08-23.09c-9.29-10.95-46.59-56.84-55.12-67.06-11.39,2.29-23.72,2.13-35.74-.08,18.17,19.14,74.71,100.04,98.77,109.68-5.38-6.17-7.99-12.81-7.99-19.45ZM770.56,784.84l.08.08v-.08h-.08ZM770.56,784.84l.08.08v-.08h-.08ZM770.56,784.84l.08.08v-.08h-.08ZM770.56,784.84l.08.08v-.08h-.08ZM770.56,784.84l.08.08v-.08h-.08ZM770.56,784.84l.08.08v-.08h-.08ZM770.56,784.84l.08.08v-.08h-.08ZM770.56,784.84l.08.08v-.08h-.08ZM770.56,784.84l.08.08v-.08h-.08ZM770.56,784.84l.08.08v-.08h-.08Z"/><path class="cls-14" d="M840.78,783.73c-.03.36.08,1.49-.08,1.82.06,3.77-.42,7.52-1.11,11.15,0,.08,0,.16-.08.24-.41,2.7-1.36,5.28-2.21,7.83l-17.95-15.66h-.08l-6.01-5.22h-.08c-1.66-1.36-3.22-3.05-4.27-4.59.88-4.34.98-8.89,0-13.84-2.98-20.58-45.17-60.94-56.7-77.97-15.39-15.23-31.3-52.14-57.89-42.15-3.85,2.04-7.13,5.69-8.46,9.96-.16.08-.16.24-.16.32q-.08.08-.08.16c-.38.92-.62,2.02-.87,3.09-12.57-2.24-22.1-11.41-30.05-20.56,2.66-11.22,9.01-20.96,18.74-26.65h.16l.08-.08s.14-.11.16-.08l.08-.08c.08,0,.08-.08.08-.08h.16c.43-.26.98-.49,1.34-.79h.08l.08-.08c8.27-3.84,17.82-4.52,26.81-2.61l.08.08c24.47,4.15,43.14,26.95,58.36,46.58v.15h.16c8.92,11.77,61.92,73.01,67.37,85.01,2.41,3.97,4.35,8.53,6.09,12.73-.02.07.04.18.08.16.15.46.39.95.47,1.42.49,1.14.94,2.47,1.27,3.72,1.89,5.47,3.26,11.52,3.8,17.32.47,2.89.54,5.83.63,8.7Z"/><path class="cls-29" d="M551.04,421.55c-2.47-.17-4.9-.66-7.04-1.9-6.93-3.16-10.87-12.29-10.83-20.09,8.93,3.38,13.73,12.31,17.87,21.98Z"/><polygon class="cls-29" points="527 455.24 526.92 455.24 526.68 454.45 527 455.24"/><path class="cls-29" d="M587.65,511.39c-11.02,2.8-22.8,9.26-29.58,17.24-3.57-8.5-28.21-66.36-31.08-73.38,10.66,5.09,24.92,4.09,36.46-.79l24.2,56.94Z"/><path class="cls-29" d="M592.63,565c-1.07.93-2.1,1.75-3.32,2.14-2.23-4.98-2.64-9.94-.79-14.71.54-1.7,1.54-3.36,2.69-4.83,1.84-2.42,4.34-4.48,7.04-5.93.79,10.12-1.11,18.98-5.61,23.33Z"/><path class="cls-24" d="M653.05,555.59c-.15,23.66-10.66,42.34-34.32,44.6l-6.01-6.41c1.29-2.29,2.62-4.92,3.4-7.51,1.13-2.72,1.77-5.7,2.37-8.7l.08-.08c.07-.6.12-1.16.32-1.74,1.05-6.86,1.56-13.96,1.11-20.96-.15-3.38-.31-6.97-.87-10.36.01-.3-.12-.72-.08-1.03l-.08-.08c0-.39,0-.79-.08-1.26l-.08-.08c-.03-.68-.26-1.29-.24-2.05-.18-.74-.33-1.51-.4-2.29l-.08-.08c-.38-2.35-.88-4.76-1.42-7.04-.71-3.17-1.44-6.5-2.53-9.57,0-.08,0-.24-.08-.32,0-.08,0-.24-.08-.32-14.66-38.36-37.56-92.97-55.04-129.69.08-.08,0-.08-.08-.16-3.99-7.27-9.09-14.04-15.1-19.69,3.74-5.2,15.38-13.32,20.32-17.48,25.1,10.97,35.28,44.12,45.71,67.93,13.26,34.83,47.5,96.43,43.26,134.35Z"/><path class="cls-35" d="M531.82,466.71c-.88-2.09-4.41-10.3-5.14-12.26l.24.79c-3.18-1.38-23.07-12.96-26.57-14.79,2.43,13.47,41.21,99.89,46.81,114.35,1.95-9.19,4.14-18.86,10.91-26.18l-26.25-61.92Z"/><path class="cls-9" d="M620.15,558.04c.06,6.03-.34,11.86-1.26,17.71-.2.58-.25,1.14-.32,1.74l-.08.08c-.6,2.99-1.25,5.98-2.37,8.7-.78,2.59-2.11,5.23-3.4,7.51-4.33-5.1-21-20.63-23.41-26.65,28.19-23.66-17.41-85.67-24.59-113.24-8.34-15.17-14.35-47.37-31.56-54.33-.05-9.93,3.68-20.41,10.6-28.79,6.01,5.66,11.12,12.43,15.1,19.69.08.08.16.08.08.16,17.44,36.63,40.42,91.43,55.04,129.69.08.08.08.24.08.32.08.08.08.24.08.32,1.11,3.08,1.81,6.39,2.53,9.57.54,2.28,1.04,4.68,1.42,7.04l.08.08c.07.78.21,1.55.4,2.29-.02.76.21,1.38.24,2.05l.08.08c.08.47.08.87.08,1.26l.08.08c-.04.31.09.73.08,1.03.56,3.39.72,6.98.87,10.36.19.65.02,2.59.16,3.24Z"/><path class="cls-29" d="M551.04,421.55c-2.47-.17-4.9-.66-7.04-1.9-4.62-2.12-8.25-7.22-9.81-12.73,2.06-.55,4.19-1.34,6.25-2.61,3.92,3.62,8,10.6,10.6,17.24Z"/><path class="cls-29" d="M670.37,317.96c0,.08-.08.08-.08.08v.16c-.92,8.01-4.28,15.75-9.09,22.22-2.31,3.04-4.77,5.69-7.75,8.07h-.08v.08h-.08c-4.09,3.27-50.15,39.88-55.59,44.21-3.87-8.78-8.46-16.37-13.29-22.62,19.81-17.77,71.59-45.29,60.65-78.13,7.49-2.14,15.18-.49,20.01,5.14v.08s.16.08.16.16c4.74,5.7,5.89,12.98,5.14,20.56Z"/><path class="cls-3" d="M677.88,257.86c-19.31-8.45-38.56-2.05-55.59,11.15-18.48,16.79-94.72,69.01-105.33,91.33,0,0-.08,0-.08.08l-.08.08c-1.91,3.25-3.9,6.68-5.38,10.12-.21.36-.38.67-.47,1.03-1.02,1.93-1.84,4.03-2.53,6.09q-.08.08-.08.15c-.38.69-.59,1.43-.87,2.22-2.38,6.82-4.24,14.23-4.9,21.43-.14.25-.06.68-.08.95-1.4,13.72.97,28.43,8.86,39.7v.08c.73.95,1.44,1.86,2.14,2.69,0,.08.08.08.08.15,2.56,2.9,5.37,5.57,8.62,7.59-60.54-19.19-54.51-93.65-7.59-131.35,0,0,83.35-66.18,83.35-66.18,25.35-23.02,55.79-15.12,79.95,2.69Z"/><path class="cls-14" d="M526.68,454.45l.24.79h.08l-.32-.79Z"/><path class="cls-19" d="M664.75,377.59l-54.96,43.66c-.23-.48-12.31-29.25-12.1-28.47,5.69-4.52,51.28-40.76,55.59-44.21h.08c2.99-2.42,5.5-5.06,7.83-8.14,4.82-6.47,8.17-14.21,9.09-22.22v-.16c.99-7.44-.37-14.97-5.06-20.64,0-.08-.16-.16-.16-.16v-.08c-21.35-25.73-82.85,47.98-100.99,56.14-21.1,12.15-46.27,47.77-20.08,66.35,2.14,1.24,4.57,1.72,7.04,1.9.09.24.87,2.11.87,2.29,0,0,12.81,30.05,12.81,30.05-11.74,5.35-26.67,6.62-37.72,1.34l-.32-.79.24.79c-5.2-2.2-9.65-5.85-13.36-10.12,0-.08-.08-.08-.08-.15-.7-.84-1.41-1.74-2.14-2.69v-.08c-7.88-11.26-10.25-25.98-8.86-39.7.02-.27-.06-.7.08-.95.66-7.2,2.52-14.61,4.9-21.43.28-.78.49-1.53.87-2.22q0-.08.08-.15c.69-2.06,1.51-4.17,2.53-6.09.09-.36.26-.67.47-1.03,1.47-3.44,3.47-6.87,5.38-10.12l.08-.08c0-.08.08-.08.08-.08,14.94-23.05,111.51-104.11,138.54-106.05,66.46-1.56,53.02,92.19,9.26,123.29Z"/></g><path class="cls-4" d="M1152.94,1001.55c-.59-6.63-1.06-13.27-1.4-19.91-.37-6.64-.62-13.29-.85-19.94-.02-6.73.59-13.36,1.52-19.99.48-3.31,1.12-6.6,1.96-9.84.89-3.21,1.89-6.47,3.69-9.3-1.39,3.03-2.17,6.26-2.74,9.51-.6,3.25-1.03,6.53-1.37,9.81-.31,3.29-.6,6.59-.78,9.89-.09,1.65-.19,3.3-.25,4.96l-.08,2.48c0,.43-.03.81-.01,1.21l.04,1.25c.19,6.64.36,13.28.41,19.92.08,6.64.04,13.29-.14,19.94Z"/><g class="cls-1"><path class="cls-32" d="M1092.88,980.66c-.95-12.52-1.18-25.09-.73-37.65.38-9.43,1.07-18.92,3.11-28.17,1.29-6.13,4.13-11.58,7.05-17.1,2.88-5.24,6.16-10.31,10.19-14.74,2.01-2.22,4.22-4.27,6.72-5.89-4.68,3.71-8.17,8.59-11.28,13.6-3.08,5.05-5.77,10.4-8.03,15.85-2.59,5.52-3.5,11.85-4.34,17.89-.82,6.18-1.26,12.41-1.64,18.65-.68,12.11-.94,25.39-1.06,37.57h0Z"/></g></g></svg>