<?xml version="1.0" encoding="UTF-8"?><svg xmlns="http://www.w3.org/2000/svg" xmlns:xlink="http://www.w3.org/1999/xlink" viewBox="0 0 2500 2500"><defs><style>.cls-1{fill:url(#Nueva_muestra_de_degradado_23);}.cls-2{fill:url(#Degradado_sin_nombre_13);}.cls-3{fill:url(#linear-gradient-2);}.cls-4{opacity:.18;}.cls-5{fill:#fff;}.cls-6{fill:#0071b0;}.cls-7{fill:url(#Degradado_sin_nombre_6);}.cls-8{fill:#61cef0;stroke:rgba(250,251,252,.16);stroke-width:1.87px;}.cls-9{filter:url(#AI_DesenfoqueGaussiano_4);}.cls-10{fill:url(#Nueva_muestra_de_degradado_21);}.cls-11{fill:#90e5ff;}.cls-12{fill:url(#Nueva_muestra_de_degradado_27);}.cls-13{fill:url(#Degradado_sin_nombre_11);}.cls-14{fill:url(#Degradado_sin_nombre_5-2);}.cls-15{fill:url(#Degradado_sin_nombre_3);}.cls-16{fill:#00273d;}.cls-17{fill:#39c2ec;}.cls-18{fill:none;opacity:.47;stroke:#00273d;stroke-width:2.33px;}.cls-19{fill:url(#Nueva_muestra_de_degradado_27-2);}.cls-20{fill:url(#Nueva_muestra_de_degradado_24);}.cls-21{opacity:.16;}.cls-22{fill:url(#Degradado_sin_nombre_74);}.cls-23{fill:url(#Degradado_sin_nombre_5);}.cls-24{fill:#58d1ed;}.cls-25{fill:url(#Degradado_sin_nombre_4);}.cls-26{fill:url(#linear-gradient-3);}.cls-27{fill:url(#linear-gradient);}.cls-28{fill:url(#Nueva_muestra_de_degradado_25);}.cls-29{fill:url(#Nueva_muestra_de_degradado_22);}.cls-30{fill:#1da1dc;}.cls-31{fill:url(#linear-gradient-4);}</style><linearGradient id="Nueva_muestra_de_degradado_27" x1="759.93" y1="884.16" x2="621.11" y2="922.36" gradientTransform="translate(-8.45 190.32) rotate(-21.92) scale(1.06 .94) skewX(-20.3)" gradientUnits="userSpaceOnUse"><stop offset="0" stop-color="#1da1dc" stop-opacity=".1"/><stop offset=".02" stop-color="#1695d1" stop-opacity=".1"/><stop offset=".15" stop-color="#0071b0" stop-opacity=".1"/><stop offset=".87" stop-color="#005584" stop-opacity=".3"/></linearGradient><linearGradient id="Nueva_muestra_de_degradado_27-2" x1="601.2" y1="1047.38" x2="587.82" y2="762.83" gradientTransform="translate(-33.62 209.04) rotate(-23.61) scale(1.06 .94) skewX(-20.3)" xlink:href="#Nueva_muestra_de_degradado_27"/><linearGradient id="Degradado_sin_nombre_3" x1="2273.35" y1="1620.96" x2="272.01" y2="1620.96" gradientUnits="userSpaceOnUse"><stop offset=".13" stop-color="#00273d" stop-opacity=".3"/><stop offset=".85" stop-color="#00273d" stop-opacity=".1"/><stop offset=".99" stop-color="#00273d" stop-opacity=".1"/><stop offset="1" stop-color="#00273d" stop-opacity=".1"/></linearGradient><linearGradient id="linear-gradient" x1="1247.31" y1="1858.08" x2="1636.18" y2="1858.08" gradientUnits="userSpaceOnUse"><stop offset="0" stop-color="#0071b0"/><stop offset=".26" stop-color="#0071b0"/><stop offset=".46" stop-color="#0071b0"/><stop offset=".55" stop-color="#1da1dc"/><stop offset=".64" stop-color="#1da1dc"/><stop offset="1" stop-color="#1da1dc"/></linearGradient><linearGradient id="linear-gradient-2" x1="227.93" y1="1424.44" x2="2554.72" y2="1753.7" gradientUnits="userSpaceOnUse"><stop offset="0" stop-color="#1da1dc"/><stop offset=".45" stop-color="#39c2ec"/><stop offset="1" stop-color="#39c2ec"/></linearGradient><filter id="AI_DesenfoqueGaussiano_4"><feGaussianBlur stdDeviation="4"/></filter><linearGradient id="Nueva_muestra_de_degradado_22" x1="166.28" y1="1699.87" x2="919.14" y2="1879.88" gradientTransform="translate(1240.99)" gradientUnits="userSpaceOnUse"><stop offset="0" stop-color="#effafd" stop-opacity=".1"/><stop offset=".01" stop-color="#cdeff9" stop-opacity=".1"/><stop offset=".08" stop-color="#5dcdef" stop-opacity=".1"/><stop offset=".15" stop-color="#39c2ec" stop-opacity=".1"/><stop offset=".87" stop-color="#39c2ec" stop-opacity=".3"/></linearGradient><linearGradient id="Degradado_sin_nombre_4" x1="-358.76" y1="1686.63" x2="502.7" y2="2174.79" gradientTransform="translate(1240.99)" gradientUnits="userSpaceOnUse"><stop offset="0" stop-color="#00273d" stop-opacity=".1"/><stop offset=".05" stop-color="#00273d" stop-opacity=".14"/><stop offset=".22" stop-color="#00273d" stop-opacity=".2"/><stop offset="1" stop-color="#00273d" stop-opacity=".3"/></linearGradient><linearGradient id="linear-gradient-3" x1="333.18" y1="1822.83" x2="-589.95" y2="1583.83" gradientTransform="translate(1240.99)" gradientUnits="userSpaceOnUse"><stop offset="0" stop-color="#d1f6ff" stop-opacity=".4"/><stop offset=".41" stop-color="#cbf0fb" stop-opacity=".4"/><stop offset="1" stop-color="#cbf0fb" stop-opacity="0"/></linearGradient><linearGradient id="Nueva_muestra_de_degradado_24" x1="-300.62" y1="1513.27" x2="542.4" y2="1513.27" gradientTransform="translate(1240.99)" gradientUnits="userSpaceOnUse"><stop offset="0" stop-color="#0071b0"/><stop offset=".58" stop-color="#1da1dc"/><stop offset=".98" stop-color="#1da1dc"/><stop offset="1" stop-color="#1da1dc"/></linearGradient><linearGradient id="linear-gradient-4" x1="-300.62" y1="1513.27" x2="542.4" y2="1513.27" gradientTransform="translate(1240.99)" gradientUnits="userSpaceOnUse"><stop offset="0" stop-color="#39c2ec" stop-opacity="0"/><stop offset=".39" stop-color="#d7f3fb" stop-opacity=".1"/><stop offset=".67" stop-color="#d7f3fb" stop-opacity="0"/><stop offset="1" stop-color="#d7f3fb" stop-opacity="0"/></linearGradient><linearGradient id="Nueva_muestra_de_degradado_23" x1="-300.53" y1="1646.77" x2="542.4" y2="1646.77" gradientTransform="translate(1240.99)" gradientUnits="userSpaceOnUse"><stop offset=".19" stop-color="#effafd" stop-opacity=".4"/><stop offset="1" stop-color="#effafd" stop-opacity="0"/></linearGradient><linearGradient id="Degradado_sin_nombre_13" x1="318.02" y1="1995" x2="142.88" y2="1679.39" gradientTransform="translate(1240.99)" gradientUnits="userSpaceOnUse"><stop offset=".19" stop-color="#effafd" stop-opacity=".4"/><stop offset="1" stop-color="#effafd" stop-opacity="0"/></linearGradient><radialGradient id="Degradado_sin_nombre_74" cx="-52.99" cy="1685.08" fx="-52.99" fy="1685.08" r="335.27" gradientTransform="translate(1240.99 732.73) scale(1 .57)" gradientUnits="userSpaceOnUse"><stop offset=".19" stop-color="#fff" stop-opacity=".4"/><stop offset=".2" stop-color="#fff" stop-opacity=".4"/><stop offset=".75" stop-color="#fff" stop-opacity=".11"/><stop offset="1" stop-color="#fff" stop-opacity="0"/></radialGradient><linearGradient id="Nueva_muestra_de_degradado_25" x1="-1277.25" y1="2216.54" x2="375.69" y2="1904.96" gradientTransform="translate(1240.99)" gradientUnits="userSpaceOnUse"><stop offset="0" stop-color="#00273d" stop-opacity=".1"/><stop offset="0" stop-color="#00273d" stop-opacity=".1"/><stop offset=".15" stop-color="#00273d" stop-opacity=".1"/><stop offset=".87" stop-color="#00273d" stop-opacity=".3"/></linearGradient><linearGradient id="Degradado_sin_nombre_6" x1="-320.44" y1="2012.11" x2="-518.87" y2="1675.38" gradientTransform="translate(1240.99)" gradientUnits="userSpaceOnUse"><stop offset=".11" stop-color="#90e5ff"/><stop offset=".11" stop-color="#90e5ff"/><stop offset=".31" stop-color="#90e5ff"/><stop offset=".51" stop-color="#90e5ff"/><stop offset=".71" stop-color="#90e5ff"/><stop offset=".99" stop-color="#90e5ff"/></linearGradient><linearGradient id="Degradado_sin_nombre_11" x1="-375.43" y1="1986.71" x2="-955.21" y2="2323.16" gradientTransform="translate(1240.99)" gradientUnits="userSpaceOnUse"><stop offset="0" stop-color="#1da1dc" stop-opacity="0"/><stop offset=".05" stop-color="#1da1dc" stop-opacity=".03"/><stop offset=".12" stop-color="#1da1dc" stop-opacity=".11"/><stop offset=".2" stop-color="#1da1dc" stop-opacity=".25"/><stop offset=".29" stop-color="#1da1dc" stop-opacity=".43"/><stop offset=".39" stop-color="#1da1dc" stop-opacity=".67"/><stop offset=".44" stop-color="#1da1dc" stop-opacity=".8"/></linearGradient><linearGradient id="Degradado_sin_nombre_5" x1="-1106.2" y1="2159.1" x2="-752.27" y2="2365.26" gradientTransform="translate(1240.99)" gradientUnits="userSpaceOnUse"><stop offset="0" stop-color="#90e5ff" stop-opacity="0"/><stop offset="1" stop-color="#90e5ff" stop-opacity=".8"/></linearGradient><linearGradient id="Nueva_muestra_de_degradado_21" x1="-738.46" y1="2102.83" x2="-656.36" y2="2255.16" gradientTransform="translate(1240.99)" gradientUnits="userSpaceOnUse"><stop offset="0" stop-color="#005584"/><stop offset=".58" stop-color="#0071b0"/><stop offset=".98" stop-color="#0071b0"/><stop offset="1" stop-color="#0071b0"/></linearGradient><linearGradient id="Degradado_sin_nombre_5-2" x1="-609.77" y1="2124.63" x2="-1132.45" y2="2428.39" xlink:href="#Degradado_sin_nombre_5"/></defs><g id="Plant"><g id="plant_15"><g id="Plant11"><g id="Layer1_8_MEMBER_1_FILL"><path class="cls-30" d="m641.03,743.93c9.03,231.38.21,595.03,103.56,691.24,118.8-231.49,174.95-483.51,168.46-756.06-6.58-272.61-77.48-449.4-212.69-530.35-44.68,264.73-64.46,463.12-59.33,595.18Z"/></g><g id="Layer1_8_MEMBER_1_FILL-2"><path class="cls-12" d="m641.03,743.93c9.03,231.38-10.37,572.62,103.56,691.24,118.8-231.49,174.95-483.51,168.46-756.06-6.58-272.61-77.48-449.4-212.69-530.35-44.68,264.73-64.46,463.12-59.33,595.18Z"/></g><path class="cls-6" d="m744.59,1435.17c2.76-5.37,5.48-10.75,8.17-16.14,32.01-274.31,11.97-682.26-60.1-1223.85,50.36,442.26,65.39,846.78,45.08,1213.55,2.27,8.84,4.56,17.65,6.86,26.44Z"/><g id="Layer1_8_MEMBER_2_FILL"><path class="cls-30" d="m418.93,761.19c-31.72,130.72-32.67,255.5-2.85,374.36,29.9,118.83,105.64,211.26,227.22,277.29,55.74,40.46,86.67,98.14,92.8,173.05,13.15-63.29,27.69-142.27,22.14-248.42-5.45-106.18-50.82-215.31-114.6-315.91-53.3-104.43-128.2-191.22-224.71-260.37Z"/></g><g id="Layer1_8_MEMBER_2_FILL-2"><path class="cls-19" d="m418.93,761.19c-31.72,130.72-32.67,255.5-2.85,374.36,29.9,118.83,105.64,211.26,227.22,277.29,55.74,40.46,86.67,98.14,92.8,173.05,13.15-63.29,27.69-142.27,22.14-248.42-5.45-106.18-50.82-215.31-114.6-315.91-53.3-104.43-128.2-191.22-224.71-260.37Z"/></g><path class="cls-6" d="m410.94,758.62h0l-.12.06.12-.06m149,335.27l.13.37c-65.6-103.6-107.85-189.69-126.75-258.29,20.94,86.06,58.83,176.74,113.67,272.03.09.07.13.15.13.23,86.08,131.52,135.7,250.85,148.88,357.97,10.32,14.98,18.7,31.28,25.15,48.87,11.04-119.63-42.7-260.02-161.22-421.17Z"/></g></g></g><g id="Paper"><g id="Paper-2"><g class="cls-21"><path class="cls-16" d="m1102.97,984.15c13.83,0,27.04,2.79,36.9,8.49l1220.43,704.61c21.78,12.57,19.05,34.54-6.1,49.06l-845.67,488.24c-13.75,7.94-31.37,12.01-48.06,12.01-13.83,0-27.04-2.79-36.9-8.49L203.14,1533.47c-21.78-12.57-19.05-34.54,6.1-49.06l845.67-488.24c13.75-7.94,31.37-12.01,48.06-12.01m0-11.19v11.19-11.19h0c-19.23,0-38.79,4.92-53.66,13.51l-845.66,488.25c-16.78,9.69-26.4,23.33-26.4,37.44,0,12.43,7.21,23.44,20.3,31l1220.42,704.61c11.32,6.53,26.01,9.99,42.5,9.99,19.23,0,38.79-4.92,53.66-13.51l845.66-488.24c16.78-9.69,26.4-23.33,26.4-37.44,0-12.43-7.21-23.44-20.3-31l-1220.43-704.61c-11.32-6.53-26.01-9.99-42.5-9.99h0Z"/></g><g class="cls-4"><path class="cls-16" d="m1102.97,984.15c13.83,0,27.04,2.79,36.9,8.49l1220.43,704.61c21.78,12.57,19.05,34.54-6.1,49.06l-845.67,488.24c-13.75,7.94-31.37,12.01-48.06,12.01-13.83,0-27.04-2.79-36.9-8.49L203.14,1533.47c-21.78-12.57-19.05-34.54,6.1-49.06l845.67-488.24c13.75-7.94,31.37-12.01,48.06-12.01m0-5.6v5.6-5.6h0c-18.28,0-36.82,4.65-50.86,12.76l-845.67,488.24c-15,8.66-23.6,20.54-23.6,32.6,0,10.35,6.22,19.64,17.5,26.15l1220.43,704.61c10.32,5.96,24.42,9.24,39.7,9.24,18.28,0,36.82-4.65,50.86-12.76l845.67-488.25c15-8.66,23.6-20.54,23.6-32.6,0-10.35-6.22-19.64-17.5-26.15l-1220.43-704.61c-10.32-5.96-24.42-9.24-39.7-9.24h0Z"/></g><path class="cls-18" d="m2354.19,1746.31l-845.67,488.25c-25.15,14.52-63.19,16.1-84.97,3.52L203.14,1533.47c-21.78-12.57-19.05-34.54,6.1-49.06l845.67-488.25c25.15-14.52,63.19-16.1,84.97-3.52l1220.43,704.61c21.78,12.57,19.05,34.54-6.1,49.06Z"/><path class="cls-15" d="m2354.19,1746.31l-845.67,488.25c-25.15,24.41-136.37,25.03-174.63,3.52L139.7,1549.59c-21.78-12.57-19.05-34.54,6.1-49.06l845.67-488.25c25.15-14.52,36.96-32.22,58.74-19.64l1310.09,704.61c21.78,12.57,19.05,34.54-6.1,49.06Z"/><path class="cls-16" d="m188.51,1513.85h-.07v-1.69c0,.57.03,1.13.07,1.69Z"/><path class="cls-5" d="m2375,1674.94h-.15c-.69-7.32-5.45-14.23-14.56-19.49l-1220.42-704.61c-21.78-12.57-59.82-11-84.97,3.52l-845.67,488.25c-13.4,7.74-20.37,17.58-20.72,27h-.08s0,42.55,0,42.55c0,.57.03,1.13.07,1.69.63,7.36,5.46,14.32,14.63,19.62l1220.42,704.62c21.78,12.57,59.82,10.99,84.96-3.53l845.67-488.24c14.71-8.5,21.74-19.54,20.69-29.76h.11s0-41.61,0-41.61Z"/><path class="cls-27" d="m2375,1716.57h-.11c1.05,10.21-5.98,21.25-20.69,29.75l-845.67,488.24c-25.14,14.52-63.18,16.09-84.96,3.53L203.14,1533.47c-9.17-5.3-13.99-12.26-14.63-19.62-.05-.56-.07-1.12-.07-1.69v-42.56l2186.56,205.34v41.62Z"/><path class="cls-3" d="m1460.46,2201.04c-13.67,0-26.11-2.84-35.04-7.99L205,1488.43c-8.28-4.78-12.84-11.2-12.84-18.07,0-8.63,6.9-17.57,18.94-24.52l845.67-488.25c12.67-7.31,29.51-11.51,46.2-11.51,13.67,0,26.11,2.84,35.04,7.99l1220.43,704.61c8.28,4.78,12.84,11.2,12.84,18.07,0,8.63-6.9,17.57-18.94,24.52l-845.66,488.24c-12.67,7.32-29.51,11.51-46.2,11.51Z"/><path class="cls-17" d="m1102.97,942.35v7.46s0,0,0,0c13.03,0,24.8,2.66,33.17,7.49l1220.43,704.61c5.01,2.89,10.97,7.81,10.97,14.84s-6.38,15.12-17.07,21.29l-845.67,488.24c-12.12,7-28.28,11.01-44.33,11.01-13.03,0-24.81-2.66-33.17-7.49L206.87,1485.2c-5.01-2.89-10.97-7.81-10.97-14.84s6.38-15.12,17.07-21.29l845.67-488.24c12.12-7,28.28-11.01,44.33-11.01v-7.46m0,0c-16.7,0-34.31,4.07-48.06,12.01l-845.67,488.24c-25.15,14.52-27.88,36.48-6.1,49.06l1220.42,704.61c9.87,5.7,23.07,8.49,36.9,8.49,16.7,0,34.31-4.07,48.06-12.01l845.67-488.24c25.15-14.52,27.88-36.48,6.1-49.06l-1220.43-704.61c-9.87-5.7-23.07-8.49-36.9-8.49h0Z"/><path class="cls-24" d="m1102.97,942.35v3.73h0c13.67,0,26.11,2.84,35.04,7.99l1220.43,704.61c8.28,4.78,12.84,11.2,12.84,18.07,0,8.63-6.9,17.57-18.94,24.52l-845.67,488.25c-12.67,7.32-29.51,11.51-46.2,11.51-13.67,0-26.11-2.84-35.04-7.99L205,1488.43c-8.28-4.78-12.84-11.2-12.84-18.07,0-8.63,6.9-17.57,18.94-24.52l845.67-488.24c12.67-7.31,29.51-11.51,46.2-11.51v-3.73m0,0c-16.7,0-34.31,4.07-48.06,12.01l-845.67,488.24c-25.15,14.52-27.88,36.48-6.1,49.06l1220.42,704.61c9.87,5.7,23.07,8.49,36.9,8.49,16.7,0,34.31-4.07,48.06-12.01l845.67-488.24c25.15-14.52,27.88-36.48,6.1-49.06l-1220.43-704.61c-9.87-5.7-23.07-8.49-36.9-8.49h0Z"/></g></g><g id="MGlass"><g id="M_Glass"><g id="aumento"><g class="cls-9"><path class="cls-29" d="m1787.44,1645.69c-7.34,54.99-47.7,108.67-121.14,150.57-105.69,60.3-254.1,81.5-390.51,63.73,117.99,1.57,236.55-23.51,326.26-75.31,94.29-54.44,137.48-127.28,129.66-198.8,23.4,18.75,41.98,38.88,55.73,59.81Z"/></g><path class="cls-25" d="m1375.93,2023.47c-138.27,18.15-230.46,12.25-230.46,12.25l-36.77,20.57-499.72-288.52v-41.8l370.42-198.15-9.87,46.01-46.5,53.7,28.32,77.61,48.72,96.9,161.21,83.87,401.64,59.76c7.44,1.21,150.91-49.92,133.31-36.31-64.24,49.66-193,97.4-320.29,114.11Z"/><path class="cls-17" d="m1811.45,1633.93v108.06c-2.45,64.18-45.91,127.79-130.45,176.61-174.98,101.02-459.72,100.42-635.97-1.34-88.55-51.13-132.87-118.05-132.87-184.81v-108.06c0,18.12,3.26,36.25,9.8,54.08,17.51,47.84,58.55,93.48,123.07,130.73,176.25,101.75,460.98,102.36,635.97,1.34,63.22-36.51,103.46-81.28,120.75-128.38,5.85-15.89,9.07-32.04,9.69-48.23Z"/><path class="cls-26" d="m1811.45,1633.93v108.06c-2.45,64.18-45.91,127.79-130.45,176.61-174.98,101.02-459.72,100.42-635.97-1.34-88.55-51.13-132.87-118.05-132.87-184.81v-108.06c0,18.12,3.26,36.25,9.8,54.08,17.51,47.84,58.55,93.48,123.07,130.73,176.25,101.75,460.98,102.36,635.97,1.34,63.22-36.51,103.46-81.28,120.75-128.38,5.85-15.89,9.07-32.04,9.69-48.23Z"/><path class="cls-20" d="m1782.17,1643.61c-22.07-33.58-56.57-65.11-103.48-92.19-176.26-101.77-460.98-102.36-635.97-1.34-45.73,26.41-79.44,57.12-101.13,89.93-8.96-67.25,31.38-136.06,121.14-187.28,164.01-93.59,430.9-93.01,596.11,1.27,91.22,52.07,132.39,121.81,123.33,189.6Z"/><path class="cls-31" d="m1782.17,1643.61c-22.07-33.58-56.57-65.11-103.48-92.19-176.26-101.77-460.98-102.36-635.97-1.34-45.73,26.41-79.44,57.12-101.13,89.93-8.96-67.25,31.38-136.06,121.14-187.28,164.01-93.59,430.9-93.01,596.11,1.27,91.22,52.07,132.39,121.81,123.33,189.6Z"/><path class="cls-8" d="m1678.69,1443.37c-176.26-101.77-460.98-102.36-635.97-1.34-87.08,50.26-130.56,116.22-130.56,182.36,0,18.12,3.26,36.25,9.8,54.08,17.51,47.84,58.55,93.48,123.07,130.73,176.25,101.75,460.98,102.36,635.97,1.34,63.22-36.51,103.46-81.28,120.75-128.38,5.85-15.89,9.07-32.04,9.69-48.23v-11.56c-2.49-64.82-46.78-129.37-132.76-179Zm103.48,200.25c-7.34,54.97-47.69,108.67-121.14,150.57-164,93.58-430.89,93.01-596.11-1.28-74.78-42.68-115.92-97.24-123.33-152.87h0c-8.96-67.27,31.38-136.08,121.14-187.29,164.01-93.59,430.9-93.01,596.11,1.27,91.22,52.07,132.39,121.81,123.33,189.6Z"/><path class="cls-11" d="m1678.69,1443.37c-176.26-101.77-460.98-102.36-635.97-1.34-87.08,50.26-130.56,116.22-130.56,182.36,0,18.12,3.26,36.25,9.8,54.08,17.51,47.84,58.55,93.48,123.07,130.73,176.25,101.75,460.98,102.36,635.97,1.34,63.22-36.51,103.46-81.28,120.75-128.38,5.85-15.89,9.07-32.04,9.69-48.23v-11.56c-2.49-64.82-46.78-129.37-132.76-179Zm103.48,200.25c-7.34,54.97-47.69,108.67-121.14,150.57-164,93.58-430.89,93.01-596.11-1.28-74.78-42.68-115.92-97.24-123.33-152.87h0c-8.96-67.27,31.38-136.08,121.14-187.29,164.01-93.59,430.9-93.01,596.11,1.27,91.22,52.07,132.39,121.81,123.33,189.6Z"/><path class="cls-1" d="m1783.36,1622.82c.12,6.94-.28,13.88-1.2,20.79-7.34,54.97-47.69,108.67-121.14,150.57-164,93.58-430.89,93.01-596.11-1.28-74.78-42.68-115.92-97.24-123.33-152.87h0c-.59-4.5-.98-9-1.13-13.49,16.33-45.72,55.14-89.23,116.44-124.62,168-96.99,441.37-96.43,610.59,1.28,59.28,34.23,97.91,75.83,115.87,119.62Z"/><path class="cls-2" d="m1783.36,1622.82c.12,6.94-.28,13.88-1.2,20.79-7.34,54.97-47.69,108.67-121.14,150.57-164,93.58-430.89,93.01-596.11-1.28-74.78-42.68-115.92-97.24-123.33-152.87h0c-.59-4.5-.98-9-1.13-13.49,16.33-45.72,55.14-89.23,116.44-124.62,168-96.99,441.37-96.43,610.59,1.28,59.28,34.23,97.91,75.83,115.87,119.62Z"/><path class="cls-22" d="m1783.36,1622.82c.12,6.94-.28,13.88-1.2,20.79-7.34,54.97-47.69,108.67-121.14,150.57-164,93.58-430.89,93.01-596.11-1.28-74.78-42.68-115.92-97.24-123.33-152.87h0c-.59-4.5-.98-9-1.13-13.49,16.33-45.72,55.14-89.23,116.44-124.62,168-96.99,441.37-96.43,610.59,1.28,59.28,34.23,97.91,75.83,115.87,119.62Z"/><path class="cls-28" d="m1034.56,1832.71l-63.64,17.07-93.65,36.14-21.78,24.29-114.17,59.77-53.17,13.54-86.62,48.51c-2.7,1.51-5.88,2.07-8.9,1.36-1.46-.35-3.76-.53-7.35-.36-11.09.55-21.86,3.85-31.5,9.34l-408.03,232.65s-34.59,24.11,23.1,51.51c51.88,24.64,112.72,21.31,162.14-7.95l713.94-411.69-10.36-74.2Z"/></g><g id="Magno_Lupa"><path class="cls-11" d="m1085.02,1897.83c0,10.48-3.51,17.99-9.25,21.81l-1.94,1.13-19.33,11.21-313.39,185.88c.14-1.47.19-2.99.19-4.56,0-28.73-20.32-63.76-45.38-78.23-1.51-.87-3.02-1.65-4.49-2.34l313.39-185.77,18.75-10.86,3.22-1.87c6.17-2.74,14.3-1.86,23.23,3.29,19.33,11.15,35,38.15,35,60.31Z"/><path class="cls-7" d="m1085.02,1897.83c0,10.48-3.51,17.99-9.25,21.81l-1.94,1.13-19.33,11.21-313.39,185.88c.14-1.47.19-2.99.19-4.56,0-28.73-20.32-63.76-45.38-78.23-1.51-.87-3.02-1.65-4.49-2.34l313.39-185.77,18.75-10.86,3.22-1.87c6.17-2.74,14.3-1.86,23.23,3.29,19.33,11.15,35,38.15,35,60.31Z"/><path class="cls-13" d="m1085.02,1897.83c0,10.48-3.51,17.99-9.25,21.81l-1.94,1.13-19.33,11.21-313.39,185.88c.14-1.47.19-2.99.19-4.56,0-28.73-20.32-63.76-45.38-78.23-1.51-.87-3.02-1.65-4.49-2.34l313.39-185.77,18.75-10.86,3.22-1.87c6.17-2.74,14.3-1.86,23.23,3.29,19.33,11.15,35,38.15,35,60.31Z"/><path class="cls-6" d="m398.27,2312.34c0,13.34-4.38,22.98-11.58,28.02l-.07.04-3.03,1.76c-8.08,3.85-18.86,2.84-30.71-4.01-25.06-14.47-45.38-49.49-45.38-78.21,0-17.46,7.49-28.57,19-31.35h.03c7.42-1.83,16.52-.15,26.35,5.52,25.07,14.47,45.39,49.49,45.39,78.23Z"/><path class="cls-23" d="m398.27,2312.34c0,13.34-4.38,22.98-11.58,28.02l-.07.04-3.03,1.76c-8.08,3.85-18.86,2.84-30.71-4.01-25.06-14.47-45.38-49.49-45.38-78.21,0-17.46,7.49-28.57,19-31.35h.03c7.42-1.83,16.52-.15,26.35,5.52,25.07,14.47,45.39,49.49,45.39,78.23Z"/><path class="cls-10" d="m741.3,2113.3c0,1.57-.06,3.08-.19,4.56-.84,10.57-4.72,18.39-10.68,22.94l-4.71,2.74h-.03s-338.99,196.82-338.99,196.82c7.2-5.04,11.58-14.68,11.58-28.02,0-28.73-20.32-63.76-45.39-78.23-9.83-5.67-18.93-7.35-26.35-5.53l335.78-195.83h.01s2.53-1.49,2.53-1.49c7.09-3.57,16.34-3.29,26.57,1.47,1.47.69,2.97,1.47,4.49,2.34,25.06,14.47,45.38,49.49,45.38,78.23Z"/><path class="cls-14" d="m741.3,2113.3c0,1.57-.06,3.08-.19,4.56-.84,10.57-4.72,18.39-10.68,22.94l-4.71,2.74h-.03s-338.99,196.82-338.99,196.82c7.2-5.04,11.58-14.68,11.58-28.02,0-28.73-20.32-63.76-45.39-78.23-9.83-5.67-18.93-7.35-26.35-5.53l335.78-195.83h.01s2.53-1.49,2.53-1.49c7.09-3.57,16.34-3.29,26.57,1.47,1.47.69,2.97,1.47,4.49,2.34,25.06,14.47,45.38,49.49,45.38,78.23Z"/></g></g></g></svg>