<?xml version="1.0" encoding="UTF-8"?>
<svg width="24px" height="24px" viewBox="0 0 24 24" version="1.1" xmlns="http://www.w3.org/2000/svg" xmlns:xlink="http://www.w3.org/1999/xlink">
    <title>Icons/Full Set/General / Persistent Disks / Persistent Disks Tab</title>
    <g id="Icons/Full-Set/General-/-Persistent-Disks-/-Persistent-Disks-Tab" stroke="none" stroke-width="1" fill="none" fill-rule="evenodd">
        <path d="M16.04275,3 C16.75775,3 17.41875,3.382 17.77675,4.001 L17.77675,4.001 L21.81675,10.999 C22.17475,11.618 22.17475,12.382 21.81675,13.001 L21.81675,13.001 L17.77675,19.999 C17.41875,20.618 16.75775,21 16.04275,21 L16.04275,21 L7.96175,21 C7.24675,21 6.58575,20.618 6.22875,19.999 L6.22875,19.999 L2.18775,13.001 C1.83075,12.382 1.83075,11.618 2.18775,10.999 L2.18775,10.999 L6.22875,4.001 C6.58575,3.382 7.24675,3 7.96175,3 L7.96175,3 Z M16.04275,4.5 L7.96175,4.5 C7.78275,4.5 7.61675,4.596 7.52775,4.751 L7.52775,4.751 L3.48675,11.749 C3.39775,11.904 3.39775,12.096 3.48675,12.251 L3.48675,12.251 L7.52775,19.249 C7.61675,19.404 7.78275,19.5 7.96175,19.5 L7.96175,19.5 L16.04275,19.5 C16.22175,19.5 16.38775,19.404 16.47775,19.249 L16.47775,19.249 L20.51775,12.251 C20.60675,12.096 20.60675,11.904 20.51775,11.749 L20.51775,11.749 L16.47675,4.751 C16.38775,4.596 16.22175,4.5 16.04275,4.5 L16.04275,4.5 Z M16.28025,13.0477 L16.28025,17.5007 L7.72425,17.5007 L7.72425,15.4847 L14.26325,15.4847 L14.26325,13.0477 L16.28025,13.0477 Z M16.27985,9.75 L16.27985,11.767 L13.01085,11.767 L13.01085,14.25 L7.72485,14.25 L7.72485,12.233 L10.99385,12.233 L10.99385,9.75 L16.27985,9.75 Z M16.27985,6.4988 L16.27985,8.5158 L9.74085,8.5158 L9.74085,10.9518 L7.72485,10.9518 L7.72485,6.4988 L16.27985,6.4988 Z" id="Combined-Shape" fill="#273637"></path>
    </g>
</svg>