<?xml version="1.0" encoding="UTF-8"?>
<svg width="24px" height="24px" viewBox="0 0 24 24" version="1.1" xmlns="http://www.w3.org/2000/svg" xmlns:xlink="http://www.w3.org/1999/xlink">
    <title>Icons/Full Set/Status/Scheduled/Fill</title>
    <g id="Icons/Full-Set/Status/Scheduled/Fill" stroke="none" stroke-width="1" fill="none" fill-rule="evenodd">
        <path d="M12,3 C7,3 3,7 3,12 C3,17 7,21 12,21 C17,21 21,17 21,12 C21,7 17,3 12,3 Z M14.9,15 C14.7,15.2 14.5,15.3 14.2,15.3 C13.9,15.3 13.7,15.2 13.5,15 L11.4,12.8 C11.2,12.6 11.1,12.4 11.1,12.1 L11.1,7.9 C11.1,7.3 11.5,6.9 12.1,6.9 C12.7,6.9 13.1,7.3 13.1,7.9 L13.1,11.7 L14.9,13.6 C15.3,14 15.3,14.6 14.9,15 Z" id="Shape" fill="#273637"></path>
    </g>
</svg>
