<svg width="24" height="24" viewBox="0 0 24 24" fill="none" xmlns="http://www.w3.org/2000/svg">
<path d="M5 16.62H6C6.16443 16.62 6.32213 16.5546 6.4384 16.4384C6.55468 16.3221 6.62 16.1644 6.62 16C6.62135 15.9182 6.60624 15.8369 6.57556 15.7611C6.54488 15.6853 6.49926 15.6164 6.44142 15.5585C6.38357 15.5007 6.31468 15.4551 6.23885 15.4244C6.16302 15.3937 6.08179 15.3786 6 15.38H5C4.83556 15.38 4.67786 15.4453 4.56159 15.5616C4.44532 15.6778 4.38 15.8355 4.38 16C4.38 16.1644 4.44532 16.3221 4.56159 16.4384C4.67786 16.5546 4.83556 16.62 5 16.62Z" fill="#273637"/>
<path d="M6 14.62H5C4.83556 14.62 4.67786 14.5546 4.56159 14.4384C4.44532 14.3221 4.38 14.1644 4.38 14C4.38 13.8355 4.44532 13.6778 4.56159 13.5616C4.67786 13.4453 4.83556 13.38 5 13.38H6C6.08179 13.3786 6.16302 13.3937 6.23885 13.4244C6.31468 13.4551 6.38357 13.5007 6.44142 13.5585C6.49926 13.6164 6.54488 13.6853 6.57556 13.7611C6.60624 13.8369 6.62135 13.9182 6.62 14C6.62 14.1644 6.55468 14.3221 6.4384 14.4384C6.32213 14.5546 6.16443 14.62 6 14.62Z" fill="#273637"/>
<path fill-rule="evenodd" clip-rule="evenodd" d="M17.5 5.56H14V3.5C14 3.10218 13.842 2.72064 13.5607 2.43934C13.2794 2.15804 12.8978 2 12.5 2H8.5C8.10218 2 7.72064 2.15804 7.43934 2.43934C7.15804 2.72064 7 3.10218 7 3.5V5.56H3.5C3.10218 5.56 2.72064 5.71804 2.43934 5.99934C2.15804 6.28064 2 6.66218 2 7.06V18.5C2 18.8978 2.15804 19.2794 2.43934 19.5607C2.72064 19.842 3.10218 20 3.5 20H11V18H9V4H12V13.72C12.616 13.0385 13.2848 12.4065 14 11.83V7.56H17V11.83H19V7.06C19 6.66218 18.842 6.28064 18.5607 5.99934C18.2794 5.71804 17.8978 5.56 17.5 5.56ZM7 18H4V7.56H7V18Z" fill="#273637"/>
<path d="M10.5 6.5C10.9142 6.5 11.25 6.16421 11.25 5.75C11.25 5.33579 10.9142 5 10.5 5C10.0858 5 9.75 5.33579 9.75 5.75C9.75 6.16421 10.0858 6.5 10.5 6.5Z" fill="#273637"/>
<path d="M14.43 17.37C14.6343 17.37 14.8 17.2044 14.8 17C14.8 16.7957 14.6343 16.63 14.43 16.63C14.2257 16.63 14.06 16.7957 14.06 17C14.06 17.2044 14.2257 17.37 14.43 17.37Z" fill="#273637"/>
<path d="M14.81 20C14.81 20.2099 14.6399 20.38 14.43 20.38C14.2201 20.38 14.05 20.2099 14.05 20C14.05 19.7901 14.2201 19.62 14.43 19.62C14.6399 19.62 14.81 19.7901 14.81 20Z" fill="#273637"/>
<path fill-rule="evenodd" clip-rule="evenodd" d="M21.9538 15.2621C21.9847 15.3376 22.0004 15.4184 22 15.5V17.75C22.0022 18.0162 21.9257 18.2772 21.78 18.5C21.9246 18.7233 22.0011 18.9839 22 19.25V20.75C22 21.1133 21.8557 21.4618 21.5987 21.7187C21.3418 21.9757 20.9933 22.12 20.63 22.12H13.37C13.0067 22.12 12.6582 21.9757 12.4013 21.7187C12.1443 21.4618 12 21.1133 12 20.75V19.25C11.999 18.9839 12.0754 18.7233 12.22 18.5C12.0743 18.2772 11.9978 18.0162 12 17.75V15.5C11.9996 15.4184 12.0153 15.3376 12.0462 15.2621C12.077 15.1866 12.1225 15.1179 12.18 15.06L14.18 13.06C14.2959 12.9412 14.454 12.8729 14.62 12.87H19.38C19.546 12.8729 19.7041 12.9412 19.82 13.06L21.82 15.06C21.8775 15.1179 21.923 15.1866 21.9538 15.2621ZM19.11 14.1H14.89L14.12 14.88H19.88L19.11 14.1ZM13.2845 16.1614C13.2622 16.1855 13.2499 16.2172 13.25 16.25V17.75C13.2496 17.7813 13.2605 17.8116 13.2808 17.8355C13.301 17.8594 13.3291 17.8752 13.36 17.88H20.64C20.6709 17.8752 20.699 17.8594 20.7192 17.8355C20.7395 17.8116 20.7504 17.7813 20.75 17.75V16.25C20.7501 16.2172 20.7378 16.1855 20.7155 16.1614C20.6933 16.1373 20.6627 16.1225 20.63 16.12H13.37C13.3373 16.1225 13.3067 16.1373 13.2845 16.1614ZM20.7439 20.799C20.7493 20.7833 20.7514 20.7666 20.75 20.75V19.25C20.7514 19.2334 20.7493 19.2167 20.7439 19.201C20.7385 19.1853 20.7299 19.1708 20.7186 19.1586C20.7073 19.1464 20.6936 19.1366 20.6784 19.13C20.6631 19.1233 20.6466 19.1199 20.63 19.12H13.37C13.3534 19.1199 13.3369 19.1233 13.3216 19.13C13.3064 19.1366 13.2927 19.1464 13.2814 19.1586C13.2701 19.1708 13.2615 19.1853 13.2561 19.201C13.2507 19.2167 13.2486 19.2334 13.25 19.25V20.75C13.2486 20.7666 13.2507 20.7833 13.2561 20.799C13.2615 20.8147 13.2701 20.8292 13.2814 20.8414C13.2927 20.8536 13.3064 20.8634 13.3216 20.87C13.3369 20.8767 13.3534 20.8801 13.37 20.88H20.63C20.6466 20.8801 20.6631 20.8767 20.6784 20.87C20.6936 20.8634 20.7073 20.8536 20.7186 20.8414C20.7299 20.8292 20.7385 20.8147 20.7439 20.799Z" fill="#273637"/>
</svg>
