<?xml version="1.0" encoding="UTF-8"?>
<svg width="24px" height="24px" viewBox="0 0 24 24" version="1.1" xmlns="http://www.w3.org/2000/svg" xmlns:xlink="http://www.w3.org/1999/xlink">
    <title>Icons/Full Set/Volume/Managed Volumes</title>
    <defs>
        <filter id="filter-1">
            <feColorMatrix in="SourceGraphic" type="matrix" values="0 0 0 0 0.152941 0 0 0 0 0.211765 0 0 0 0 0.215686 0 0 0 1.000000 0"></feColorMatrix>
        </filter>
        <polygon id="path-2" points="0 0 20 0 20 19.9996 0 19.9996"></polygon>
    </defs>
    <g id="Icons/Full-Set/Volume/Managed-Volumes" stroke="none" stroke-width="1" fill="none" fill-rule="evenodd">
        <g filter="url(#filter-1)" id="Group-7">
            <g transform="translate(2.000000, 2.000000)">
                <mask id="mask-3" fill="white">
                    <use xlink:href="#path-2"></use>
                </mask>
                <g id="Clip-2"></g>
                <path d="M2,16 L5,16 L5,5.56 L2,5.56 L2,16 Z M12,9.32 L12,5.56 L15,5.56 L15,8.45 C15.08,8.44 15.15,8.44 15.23,8.44 C15.84,8.44 16.44,8.52 17,8.69 L17,5.06 C17,4.23 16.33,3.56 15.5,3.56 L12,3.56 L12,1.5 C12,0.67 11.33,0 10.5,0 L6.5,0 C5.67,0 5,0.67 5,1.5 L5,3.56 L1.5,3.56 C0.67,3.56 0,4.23 0,5.06 L0,16.5 C0,17.33 0.67,18 1.5,18 L9.57,18 C9.23,17.39 9,16.71 8.88,16 L7,16 L7,2 L10,2 L10,11.13 C10.52,10.39 11.21,9.77 12,9.32 L12,9.32 Z" id="Fill-1" fill="#273637" mask="url(#mask-3)"></path>
                <path d="M15.2344,16.0996 C14.5344,16.0996 14.0344,15.4996 14.0344,14.9006 C14.0344,14.2996 14.6344,13.7006 15.2344,13.7006 C15.8344,13.7006 16.4344,14.2996 16.4344,14.9006 C16.4344,15.4996 15.8344,16.0996 15.2344,16.0996 M19.8344,15.9996 L19.0344,15.4006 L19.0344,14.4006 L19.8344,13.7996 C20.0344,13.7006 20.0344,13.4006 19.9344,13.2006 L19.0344,11.5996 C18.9344,11.4006 18.6344,11.2996 18.4344,11.4006 L17.5344,11.7996 C17.2344,11.5996 16.9344,11.4006 16.6344,11.2996 L16.5344,10.2996 C16.5344,10.0996 16.3344,9.9006 16.1344,9.9006 L14.3344,9.9006 C14.1344,9.9006 13.9344,10.0996 13.9344,10.2996 L13.8344,11.2996 C13.5344,11.4006 13.2344,11.5996 12.9344,11.7996 L12.0344,11.4006 C11.8344,11.2996 11.6344,11.4006 11.4344,11.5996 L10.5344,13.2006 C10.4344,13.4006 10.5344,13.5996 10.6344,13.7996 L11.4344,14.4006 L11.4344,15.4006 L10.6344,15.9996 C10.4344,16.0996 10.4344,16.4006 10.5344,16.5996 L11.4344,18.2006 C11.5344,18.4006 11.8344,18.4996 12.0344,18.4006 L12.9344,17.9996 C13.2344,18.2006 13.5344,18.4006 13.8344,18.4996 L13.8344,19.5996 C13.8344,19.7996 14.0344,19.9996 14.2344,19.9996 L16.0344,19.9996 C16.2344,19.9996 16.4344,19.7996 16.4344,19.5996 L16.5344,18.5996 C16.8344,18.4996 17.1344,18.2996 17.4344,18.0996 L18.3344,18.4996 C18.5344,18.5996 18.7344,18.4996 18.9344,18.2996 L19.8344,16.7006 C20.0344,16.4006 20.0344,16.0996 19.8344,15.9996" id="Fill-3" fill="#273637" mask="url(#mask-3)"></path>
                <path d="M3,14.625 L4,14.625 C4.345,14.625 4.625,14.345 4.625,14 C4.625,13.655 4.345,13.375 4,13.375 L3,13.375 C2.655,13.375 2.375,13.655 2.375,14 C2.375,14.345 2.655,14.625 3,14.625" id="Fill-4" fill="#273637" mask="url(#mask-3)"></path>
                <path d="M3,12.625 L4,12.625 C4.345,12.625 4.625,12.345 4.625,12 C4.625,11.655 4.345,11.375 4,11.375 L3,11.375 C2.655,11.375 2.375,11.655 2.375,12 C2.375,12.345 2.655,12.625 3,12.625" id="Fill-5" fill="#273637" mask="url(#mask-3)"></path>
                <path d="M7.75,3.75 C7.75,4.164 8.086,4.5 8.5,4.5 C8.914,4.5 9.25,4.164 9.25,3.75 C9.25,3.336 8.914,3 8.5,3 C8.086,3 7.75,3.336 7.75,3.75" id="Fill-6" fill="#273637" mask="url(#mask-3)"></path>
            </g>
        </g>
    </g>
</svg>
