<?xml version="1.0" encoding="UTF-8"?>
<svg width="24px" height="24px" viewBox="0 0 24 24" version="1.1" xmlns="http://www.w3.org/2000/svg" xmlns:xlink="http://www.w3.org/1999/xlink">
    <title>Icons/Full Set/Kubernetes/Kubernetes Cluster</title>
    <g id="Icons/Full-Set/Kubernetes/Kubernetes-Cluster" stroke="none" stroke-width="1" fill="none" fill-rule="evenodd">
        <path d="M15.9794,11.2718 C16.0884,11.2718 16.1754,11.3038 16.2194,11.3688 C16.2624,11.4348 16.2954,11.4998 16.3174,11.5878 L16.3174,11.5878 L16.3174,11.6098 C16.3284,11.6968 16.3394,11.7838 16.3284,11.8828 C16.3174,12.0138 16.3174,12.1448 16.2844,12.2528 C16.2084,12.5918 16.3394,12.7778 16.3934,12.8318 L16.3934,12.8318 L16.3934,12.8428 L16.4044,13.0288 L16.4044,13.0708 C17.4634,13.1698 18.4124,13.6278 19.1214,14.3598 L19.1214,14.3598 L19.1544,14.3258 L19.3074,14.2178 C19.3834,14.2288 19.6124,14.2058 19.8314,13.9448 C19.8964,13.8578 19.9944,13.7708 20.0924,13.6718 L20.0924,13.6718 L20.3214,13.5198 L20.3334,13.5078 C20.4094,13.4758 20.4854,13.4428 20.5624,13.4428 C20.6494,13.4538 20.7254,13.4868 20.7914,13.5728 C20.8564,13.6608 20.8784,13.7478 20.8564,13.8238 C20.8454,13.8898 20.8024,13.9668 20.7474,14.0318 L20.7474,14.0318 L20.7364,14.0428 C20.6824,14.1088 20.6164,14.1738 20.5294,14.2288 C20.4204,14.3048 20.3114,14.3808 20.2134,14.4248 C19.9074,14.5668 19.8414,14.7958 19.8314,14.8718 L19.8314,14.8718 L19.8194,14.8718 L19.6784,15.0028 L19.6564,15.0248 C20.0924,15.7118 20.3544,16.5198 20.3544,17.3818 C20.3544,17.5778 20.3214,17.7528 20.3004,17.9388 L20.3004,17.9388 L20.3764,17.9598 L20.5514,18.0038 C20.6054,18.0798 20.7584,18.2438 21.0964,18.2438 C21.2164,18.2438 21.3474,18.2658 21.4784,18.2868 L21.4784,18.2868 L21.7404,18.3638 L21.7514,18.3638 C21.8384,18.4068 21.9044,18.4508 21.9474,18.5058 C21.9914,18.5818 22.0134,18.6578 21.9914,18.7678 C21.9694,18.8658 21.9154,18.9428 21.8384,18.9748 C21.7734,19.0078 21.6964,19.0188 21.6094,19.0188 L21.6094,19.0188 L21.5884,19.0188 C21.5004,19.0188 21.4134,19.0078 21.3154,18.9748 C21.1944,18.9318 21.0644,18.8988 20.9654,18.8438 C20.6604,18.7018 20.4424,18.7788 20.3764,18.8218 L20.3764,18.8218 L20.3654,18.8218 L20.1804,18.7888 L20.1034,18.7788 C19.7764,19.7498 19.1214,20.5568 18.2704,21.0808 L18.2704,21.0808 L18.3034,21.1788 L18.3794,21.3538 C18.3584,21.4298 18.3144,21.6588 18.5324,21.9208 C18.5984,22.0088 18.6634,22.1278 18.7294,22.2368 L18.7294,22.2368 L18.8384,22.4988 L18.8384,22.5108 C18.8594,22.5978 18.8704,22.6738 18.8494,22.7498 C18.8274,22.8268 18.7724,22.8928 18.6744,22.9458 C18.5874,22.9898 18.4884,22.9898 18.4234,22.9578 C18.3584,22.9248 18.2924,22.8698 18.2374,22.8048 L18.2374,22.8048 L18.2374,22.7828 C18.1834,22.7178 18.1294,22.6418 18.0964,22.5428 C18.0524,22.4228 17.9984,22.3028 17.9764,22.1938 C17.8994,21.8558 17.7034,21.7458 17.6274,21.7248 L17.6274,21.7248 L17.6274,21.7138 L17.5284,21.5498 L17.4844,21.4628 C17.0154,21.6258 16.5254,21.7358 16.0014,21.7358 C15.4884,21.7358 15.0084,21.6378 14.5494,21.4738 L14.5494,21.4738 L14.4954,21.5608 L14.4074,21.7248 C14.3314,21.7578 14.1244,21.8768 14.0474,22.2048 C14.0254,22.3138 13.9824,22.4448 13.9274,22.5648 L13.9274,22.5648 L13.7964,22.8048 L13.7864,22.8158 C13.7314,22.8808 13.6764,22.9358 13.6114,22.9688 C13.5244,23.0118 13.4474,23.0118 13.3384,22.9578 C13.2514,22.9138 13.1854,22.8488 13.1744,22.7608 C13.1644,22.6948 13.1644,22.6088 13.1854,22.5318 C13.1854,22.5318 13.1854,22.5218 13.1964,22.5108 C13.2184,22.4228 13.2514,22.3358 13.2954,22.2588 C13.3604,22.1398 13.4254,22.0298 13.5024,21.9428 C13.7094,21.6698 13.6764,21.4518 13.6444,21.3748 L13.6444,21.3748 L13.6544,21.3638 L13.7204,21.1908 L13.7644,21.1028 C12.9014,20.5788 12.2474,19.7718 11.9094,18.8118 L11.9094,18.8118 L11.8214,18.8218 L11.6364,18.8548 C11.5604,18.8218 11.3414,18.7348 11.0364,18.8768 C10.9384,18.9318 10.8074,18.9748 10.6874,19.0078 L10.6874,19.0078 L10.4144,19.0508 L10.3924,19.0508 C10.3054,19.0508 10.2294,19.0398 10.1634,19.0078 C10.0874,18.9748 10.0324,18.9088 10.0104,18.8008 C9.9884,18.6918 9.9994,18.6038 10.0544,18.5498 C10.0974,18.4848 10.1744,18.4408 10.2504,18.4068 C10.2504,18.4068 10.2614,18.4068 10.2614,18.3968 C10.3484,18.3638 10.4364,18.3308 10.5234,18.3198 C10.6544,18.2988 10.7854,18.2768 10.9054,18.2868 C11.2434,18.2868 11.3964,18.1128 11.4404,18.0478 L11.4404,18.0478 L11.4504,18.0478 L11.6254,17.9928 L11.7014,17.9708 C11.6804,17.7748 11.6474,17.5888 11.6474,17.3818 C11.6474,16.5298 11.8984,15.7348 12.3234,15.0688 L12.3234,15.0688 L12.2914,15.0248 L12.1494,14.9048 C12.1274,14.8178 12.0624,14.5998 11.7674,14.4578 C11.6584,14.4038 11.5484,14.3258 11.4404,14.2608 L11.4404,14.2608 L11.2434,14.0748 L11.2214,14.0538 C11.1674,13.9878 11.1234,13.9228 11.1124,13.8468 C11.1014,13.7708 11.1124,13.6828 11.1894,13.5958 C11.2434,13.5198 11.3304,13.4758 11.4074,13.4758 C11.4834,13.4758 11.5604,13.4968 11.6364,13.5408 C11.6364,13.5408 11.6474,13.5408 11.6584,13.5518 C11.7344,13.5848 11.8114,13.6388 11.8764,13.7048 C11.9744,13.7918 12.0724,13.8788 12.1494,13.9778 C12.3564,14.2388 12.5854,14.2498 12.6624,14.2388 L12.6624,14.2388 L12.6724,14.2498 L12.8254,14.3598 L12.8584,14.3808 C13.5564,13.6608 14.4954,13.1808 15.5534,13.0708 L15.5534,13.0708 L15.5534,13.0288 L15.5644,12.8428 C15.6194,12.7778 15.7504,12.5918 15.6734,12.2528 C15.6414,12.1448 15.6414,12.0138 15.6294,11.8828 L15.6294,11.8828 L15.6414,11.6098 L15.6414,11.5878 C15.6624,11.4998 15.6954,11.4348 15.7394,11.3688 C15.7934,11.3038 15.8704,11.2718 15.9794,11.2718 Z M17,2 C18.1,2 19,2.9 19,4 L19,4 L19,10 L5,10 L5,14 L9.88,14 C9.54,14.62 9.29,15.29 9.15,16 L9.15,16 L5,16 L5,20 L9.44,20 C9.69,20.73 10.05,21.4 10.52,22 L10.52,22 L5,22 C3.9,22 3,21.1 3,20 L3,20 L3,4 C3,2.9 3.9,2 5,2 L5,2 Z M16.1974,19.2038 C16.1214,19.0628 15.9134,19.0628 15.8374,19.2038 L15.8374,19.2038 L15.0624,20.5568 C15.3684,20.6448 15.6734,20.7098 16.0014,20.7098 C16.3394,20.7098 16.6554,20.6448 16.9614,20.5458 L16.9614,20.5458 Z M14.5384,18.4068 L14.4954,18.4068 L12.9354,18.6478 C13.1854,19.2588 13.6114,19.7718 14.1464,20.1428 L14.1464,20.1428 L14.7244,18.6918 C14.7784,18.5498 14.6804,18.4068 14.5384,18.4068 L14.5384,18.4068 Z M17.5284,18.3748 C17.3644,18.3528 17.2334,18.5058 17.2994,18.6578 L17.2994,18.6578 L17.8784,20.1208 C18.4124,19.7498 18.8384,19.2258 19.0784,18.6148 L19.0784,18.6148 Z M7.2192,17.0625 L7.9262,17.7695 C8.0432,17.8865 8.0432,18.0765 7.9262,18.1935 L7.2192,18.9005 C7.1022,19.0175 6.9122,19.0175 6.7952,18.9005 L6.0882,18.1935 C5.9702,18.0765 5.9702,17.8865 6.0882,17.7695 L6.7952,17.0625 C6.9122,16.9455 7.1022,16.9455 7.2192,17.0625 Z M16.3174,16.7378 L15.6734,16.7378 L15.2804,17.2398 L15.4224,17.8618 L16.0014,18.1458 L16.5794,17.8618 L16.7214,17.2398 L16.3174,16.7378 Z M13.1094,15.7778 C12.8474,16.2578 12.6844,16.8038 12.6844,17.3818 C12.6844,17.4808 12.6944,17.5778 12.7054,17.6658 L12.7054,17.6658 L14.2004,17.2178 C14.3644,17.1748 14.4074,16.9668 14.2884,16.8588 L14.2884,16.8588 Z M18.8704,15.7448 L17.7034,16.8148 C17.5834,16.9348 17.6274,17.1308 17.7794,17.1748 L17.7794,17.1748 L19.2964,17.6328 C19.3074,17.5458 19.3174,17.4688 19.3174,17.3818 C19.3174,16.7808 19.1544,16.2258 18.8704,15.7448 L18.8704,15.7448 Z M15.4774,14.1188 C14.8004,14.2288 14.2004,14.5338 13.7204,14.9818 L13.7204,14.9818 L15.0404,15.8868 C15.1714,15.9858 15.3574,15.8978 15.3684,15.7348 L15.3684,15.7348 Z M16.4814,14.1088 L16.5904,15.7118 C16.6014,15.8758 16.7864,15.9628 16.9174,15.8758 L16.9174,15.8758 L18.2484,14.9588 C17.7684,14.5118 17.1574,14.2058 16.4814,14.1088 L16.4814,14.1088 Z M12.78,11 C11.89,11.5 11.12,12.18 10.52,13 L10.52,13 L10,13 L10,11 Z M7.2192,11.0625 L7.9262,11.7695 C8.0432,11.8865 8.0432,12.0765 7.9262,12.1935 L7.2192,12.9005 C7.1022,13.0175 6.9122,13.0175 6.7952,12.9005 L6.0882,12.1935 C5.9702,12.0765 5.9702,11.8865 6.0882,11.7695 L6.7952,11.0625 C6.9122,10.9455 7.1022,10.9455 7.2192,11.0625 Z M17,4 L5,4 L5,8 L17,8 L17,4 Z M15,5 L15,7 L10,7 L10,5 L15,5 Z M7.2192,5.0625 L7.9262,5.7695 C8.0432,5.8865 8.0432,6.0765 7.9262,6.1935 L7.2192,6.9005 C7.1022,7.0175 6.9122,7.0175 6.7952,6.9005 L6.0882,6.1935 C5.9702,6.0765 5.9702,5.8865 6.0882,5.7695 L6.7952,5.0625 C6.9122,4.9455 7.1022,4.9455 7.2192,5.0625 Z" id="Combined-Shape" fill="#273637"></path>
    </g>
</svg>
