<?xml version="1.0" encoding="UTF-8"?>
<svg width="24px" height="24px" viewBox="0 0 24 24" version="1.1" xmlns="http://www.w3.org/2000/svg" xmlns:xlink="http://www.w3.org/1999/xlink">
    <title>Icons/Full Set/User/Service Account</title>
    <g id="Icons/Full-Set/User/Service-Account" stroke="none" stroke-width="1" fill="none" fill-rule="evenodd">
        <path d="M14.5998,16.1006 C15.0998,16.4996 15.5998,16.9996 15.9998,17.4996 L15.9998,18.9996 L2.9998,18.9996 L2.9998,17.4996 L3.1708,17.2876 C6.0068,13.8776 11.0718,13.3556 14.5998,16.1006 Z M18.109,7.8137 C18.259,7.8137 18.408,7.9637 18.408,8.1127 L18.408,8.1127 L18.483,8.8607 C18.707,8.9357 18.932,9.0857 19.156,9.2347 L19.156,9.2347 L19.829,8.9357 C19.978,8.8607 20.203,8.9357 20.278,9.0857 L20.278,9.0857 L20.951,10.2817 C21.026,10.4317 21.026,10.6557 20.876,10.7307 L20.876,10.7307 L20.278,11.1797 L20.278,11.9277 L20.876,12.3757 C21.026,12.4507 21.026,12.6757 20.876,12.8997 L20.876,12.8997 L20.203,14.0967 C20.054,14.2457 19.904,14.3207 19.754,14.2457 L19.754,14.2457 L19.081,13.9467 C18.857,14.0967 18.632,14.2457 18.408,14.3207 L18.408,14.3207 L18.333,15.0687 C18.333,15.2177 18.184,15.3677 18.034,15.3677 L18.034,15.3677 L16.688,15.3677 C16.539,15.3677 16.389,15.2177 16.389,15.0687 L16.389,15.0687 L16.389,14.2457 C16.165,14.1707 15.94,14.0217 15.716,13.8717 L15.716,13.8717 L15.042,14.1707 C14.893,14.2457 14.669,14.1707 14.594,14.0217 L14.594,14.0217 L13.921,12.8247 C13.846,12.6757 13.846,12.4507 13.996,12.3757 L13.996,12.3757 L14.594,11.9277 L14.594,11.1797 L13.996,10.7307 C13.921,10.5807 13.846,10.4317 13.921,10.2817 L13.921,10.2817 L14.594,9.0857 C14.744,8.9357 14.893,8.8607 15.042,8.9357 L15.042,8.9357 L15.716,9.2347 C15.94,9.0857 16.165,8.9357 16.389,8.8607 L16.389,8.8607 L16.464,8.1127 C16.464,7.9637 16.613,7.8137 16.763,7.8137 L16.763,7.8137 Z M17.436,10.6557 C16.987,10.6557 16.539,11.1047 16.539,11.5537 C16.539,12.0017 16.913,12.4507 17.436,12.4507 C17.885,12.4507 18.333,12.0017 18.333,11.5537 C18.333,11.1047 17.885,10.6557 17.436,10.6557 Z M9.4999,6 C11.2679,6 12.6999,7.433 12.6999,9.2 C12.6999,10.967 11.2679,12.4 9.4999,12.4 C7.7329,12.4 6.2999,10.967 6.2999,9.2 C6.2999,7.433 7.7329,6 9.4999,6 Z" id="Combined-Shape" fill="#273637"></path>
    </g>
</svg>
