<?xml version="1.0" encoding="UTF-8"?>
<svg width="24px" height="24px" viewBox="0 0 24 24" version="1.1" xmlns="http://www.w3.org/2000/svg" xmlns:xlink="http://www.w3.org/1999/xlink">
    <title>Icons/Full Set/User/User Roles</title>
    <g id="Icons/Full-Set/User/User-Roles" stroke="none" stroke-width="1" fill="none" fill-rule="evenodd">
        <path d="M15.619,15.7854921 C16.059,16.2254921 16.61,16.6664921 16.94,17.1064921 L16.94,18.5374921 L4.5,18.5374921 L4.5,17.1064921 C7.252,13.6934921 12.206,13.0324921 15.619,15.7854921 M15.839,6.64749207 C16.72,5.76649207 18.041,5.76649207 18.922,6.75849207 C19.693,7.52849207 19.693,8.84949207 18.922,9.62049207 C18.702,9.84049207 18.481,9.95049207 18.261,10.0604921 L18.261,11.7124921 L17.711,12.2624921 L18.261,12.8124921 L17.711,13.3634921 L18.261,13.9134921 L17.711,14.4644921 C17.491,14.6834921 17.27,14.6834921 17.05,14.4644921 L16.5,13.9134921 L16.5,10.1704921 C16.28,10.0604921 16.059,9.95049207 15.839,9.72949207 C14.958,8.84949207 14.958,7.52849207 15.839,6.64749207 M10.775,6.09749207 C12.477,6.09749207 13.858,7.47649207 13.858,9.18049207 C13.858,10.8824921 12.477,12.2624921 10.775,12.2624921 C9.073,12.2624921 7.693,10.8824921 7.693,9.18049207 C7.693,7.47649207 9.073,6.09749207 10.775,6.09749207 M17.821,6.64749207 C17.491,6.42749207 17.05,6.42749207 16.72,6.75849207 C16.5,7.08849207 16.5,7.52849207 16.72,7.74849207 C17.05,8.18849207 17.491,8.18849207 17.821,7.85849207 C18.151,7.52849207 18.151,7.08849207 17.821,6.64749207" id="Fill-1" fill="#273637"></path>
    </g>
</svg>