<svg width="24" height="24" fill="none" xmlns="http://www.w3.org/2000/svg">
  <path d="M20.5 5.1h-3.8l-.5-1.2c-.2-.6-.8-.9-1.4-.9H9.1c-.6-.1-1.1.3-1.3.8l-.6 1.3H3.5c-.8 0-1.5.6-1.5 1.5v13c0 .8.7 1.5 1.5 1.5h17c.8 0 1.5-.7 1.5-1.5v-13c0-.9-.7-1.5-1.5-1.5zm-.5 14H4v-12h4.5l1-2.1h5.1l.9 2.1H20v12z" fill="#273637"/>
  <path d="M13.8 11.9h-1.9l.9-1.6c.3-.5.1-1.1-.4-1.4-.5-.3-1.1-.1-1.4.4l-1.8 3.1c-.2.3-.2.7 0 1s.5.5.9.5H12l-.9 1.6c-.3.5-.1 1.1.4 1.4.1.1.3.1.5.1.3 0 .7-.2.9-.5l1.8-3.1c.2-.3.2-.7 0-1s-.6-.5-.9-.5z" fill="#273637"/>
</svg>
