<svg width="24" height="24" fill="none" xmlns="http://www.w3.org/2000/svg">
  <path d="M19.4,3.3H4.6C3.7,3.3,3.1,4,3.1,4.8v9.7c0,0.8,0.7,1.5,1.5,1.5H11v2.7H8c-0.6,0-1,0.4-1,1s0.4,1,1,1h8c0.6,0,1-0.4,1-1 s-0.4-1-1-1h-3V16h6.4c0.8,0,1.5-0.7,1.5-1.5V4.8C20.9,4,20.3,3.3,19.4,3.3z M18.9,14H5.1V5.3h13.9V14z" fill="#273637"/>
  <path d="M10.1,10.4h1.8l-0.9,1.5c-0.2,0.4-0.1,0.8,0.3,1c0.1,0.1,0.2,0.1,0.4,0.1c0.3,0,0.5-0.1,0.6-0.4l1.5-2.7 c0.1-0.2,0.1-0.5,0-0.8s-0.4-0.4-0.6-0.4h-1.8l0.9-1.5c0.2-0.4,0.1-0.8-0.3-1c-0.4-0.2-0.8-0.1-1,0.3L9.4,9.3 c-0.1,0.2-0.1,0.5,0,0.8C9.5,10.2,9.8,10.4,10.1,10.4z" fill="#273637"/>
</svg>
