<?xml version="1.0" encoding="UTF-8"?>
<svg width="24px" height="24px" viewBox="0 0 24 24" version="1.1" xmlns="http://www.w3.org/2000/svg" xmlns:xlink="http://www.w3.org/1999/xlink">
    <title>Icons/Full Set/Database/Availability Groups</title>
    <g id="Icons/Full-Set/Database/Availability-Groups" stroke="none" stroke-width="1" fill="none" fill-rule="evenodd">
        <path d="M20,15.31 C19.63,15.38 19.13,15.46 18.5,15.48 L18.5,10.69 C19.13,10.71 19.63,10.79 20,10.86 L20,15.31 Z M12,18 C9.88,18 8.31,17.64 7.5,17.41 L7.5,15.4 L7.5,15.333 L16.5,15.333 L16.5,15.4 L16.5,17.41 C15.69,17.64 14.12,18 12,18 L12,18 Z M4,15.31 L4,10.86 C4.37,10.79 4.87,10.71 5.5,10.69 L5.5,15.48 C4.87,15.46 4.37,15.38 4,15.31 L4,15.31 Z M12,6 C14.12,6 15.69,6.36 16.5,6.59 L16.5,8.667 L7.5,8.667 L7.5,6.59 C8.31,6.36 9.88,6 12,6 L12,6 Z M7.5,10.78 L7.5,10.667 L16.5,10.667 L16.5,10.78 L16.5,13.333 L7.5,13.333 L7.5,10.78 Z M21.35,9.16 C21.3,9.14 20.25,8.75 18.5,8.68 L18.5,5.88 C18.5,5.47 18.26,5.11 17.89,4.95 C17.8,4.92 15.6,4 12,4 C8.4,4 6.2,4.92 6.11,4.95 C5.74,5.11 5.5,5.47 5.5,5.88 L5.5,8.68 C3.75,8.75 2.7,9.14 2.65,9.16 C2.26,9.31 2,9.68 2,10.09 L2,16.07 C2,16.49 2.26,16.86 2.65,17.01 C2.7,17.03 3.75,17.42 5.5,17.49 L5.5,18.12 C5.5,18.53 5.74,18.89 6.11,19.05 C6.2,19.08 8.4,20 12,20 C15.6,20 17.8,19.08 17.89,19.05 C18.26,18.89 18.5,18.53 18.5,18.12 L18.5,17.49 C20.25,17.42 21.3,17.03 21.35,17.01 C21.74,16.86 22,16.49 22,16.07 L22,10.09 C22,9.68 21.74,9.31 21.35,9.16 L21.35,9.16 Z" id="Fill-1" fill="#273637"></path>
    </g>
</svg>