<?xml version="1.0" encoding="UTF-8"?>
<svg width="24px" height="24px" viewBox="0 0 24 24" version="1.1" xmlns="http://www.w3.org/2000/svg" xmlns:xlink="http://www.w3.org/1999/xlink">
    <title>Icons/Full Set/Database/Blueprint Datastore</title>
    <g id="Icons/Full-Set/Database/Blueprint-Datastore" stroke="none" stroke-width="1" fill="none" fill-rule="evenodd">
        <path d="M20.4284,11 C21.2974,11 22.0004,11.702 22.0004,12.571 L22.0004,12.571 L22.0004,20.429 C22.0004,21.298 21.2974,22 20.4284,22 L20.4284,22 L12.5714,22 C11.7024,22 11.0004,21.298 11.0004,20.429 L11.0004,20.429 L11.0004,12.571 C11.0004,11.702 11.7024,11 12.5714,11 L12.5714,11 Z M20.2094,12.31 L16.6044,12.31 C16.3224,12.31 16.1124,12.55 16.1124,12.791 L16.1124,12.791 L16.1124,16.112 L12.7914,16.112 C12.5084,16.112 12.3094,16.354 12.3094,16.604 L12.3094,16.604 L12.3094,20.198 C12.3094,20.491 12.5504,20.69 12.7914,20.69 L12.7914,20.69 L16.3954,20.69 C16.6774,20.69 16.9294,20.45 16.9294,20.198 L16.9294,20.198 L16.9294,16.919 L20.2094,16.919 C20.4914,16.919 20.6904,16.678 20.6904,16.437 L20.6904,16.437 L20.6904,12.833 C20.6904,12.55 20.4914,12.31 20.2094,12.31 L20.2094,12.31 Z M16.0706,16.9193 L16.0706,19.9153 L13.0746,19.9153 L13.0746,16.9193 L16.0706,16.9193 Z M13.8496,17.6523 C13.8076,17.6523 13.8076,17.6523 13.8076,17.6943 L13.8076,17.6943 L13.8076,19.1923 C13.8076,19.1923 13.8076,19.2343 13.8496,19.2343 L13.8496,19.2343 L15.3476,19.2343 C15.3896,19.2343 15.3896,19.2343 15.3896,19.1923 L15.3896,19.1923 Z M10.5,2 C15.29,2 18.2,2.95 18.32,2.99 C18.72,3.12 19,3.51 19,3.94 L19,3.94 L19,9 L4,9 L4,12 L9,12 L9,14 L4,14 L4,16.3 C4.89,16.51 6.62,16.86 9,16.96 L9,16.96 L9,18.97 C5.11,18.81 2.79,18.05 2.68,18.01 C2.28,17.88 2,17.49 2,17.06 L2,17.06 L2,3.94 C2,3.51 2.28,3.12 2.68,2.99 C2.8,2.95 5.71,2 10.5,2 Z M19.8833,13.1166 L19.8833,16.1126 L16.8873,16.1126 L16.8873,13.1166 L19.8833,13.1166 Z M19.1723,13.8076 L17.6523,13.8076 C17.6103,13.8076 17.6103,13.8076 17.6103,13.8496 L17.6103,13.8496 L19.1503,15.3896 C19.1503,15.3896 19.1923,15.3896 19.1923,15.3476 L19.1923,15.3476 L19.1923,13.8496 C19.1923,13.8076 19.1923,13.8076 19.1723,13.8076 L19.1723,13.8076 Z M10.5,4 C7.35,4 5.07,4.44 4,4.7 L4,4.7 L4,7 L17,7 L17,4.7 C15.93,4.44 13.65,4 10.5,4 Z" id="Combined-Shape" fill="#273637"></path>
    </g>
</svg>