<?xml version="1.0" encoding="UTF-8"?>
<svg width="24px" height="24px" viewBox="0 0 24 24" version="1.1" xmlns="http://www.w3.org/2000/svg" xmlns:xlink="http://www.w3.org/1999/xlink">
    <title>Icons/Full Set/Database/Data Cluster</title>
    <g id="Icons/Full-Set/Database/Data-Cluster" stroke="none" stroke-width="1" fill="none" fill-rule="evenodd">
        <path d="M14.5,7.5 C18.368,7.5 20.718,8.269 20.816,8.302 C21.225,8.437 21.5,8.819 21.5,9.25 L21.5,9.25 L21.5,19.75 C21.5,20.181 21.225,20.562 20.816,20.698 C20.718,20.731 18.368,21.5 14.5,21.5 C10.632,21.5 8.282,20.731 8.184,20.698 C7.775,20.562 7.5,20.181 7.5,19.75 L7.5,19.75 L7.5,9.25 C7.5,8.819 7.775,8.437 8.184,8.302 C8.282,8.269 10.632,7.5 14.5,7.5 Z M19.5,17.5 L9.5,17.5 L9.5,18.981 C10.398,19.188 12.142,19.5 14.5,19.5 C16.858,19.5 18.602,19.188 19.5,18.981 L19.5,18.981 L19.5,17.5 Z M9.5,2.5 C13.37,2.5 15.72,3.27 15.82,3.3 C16.22,3.44 16.5,3.82 16.5,4.25 L16.5,6.5 L14.5,6.5 L14.5,5.02 C13.6,4.81 11.86,4.5 9.5,4.5 C7.14,4.5 5.4,4.81 4.5,5.02 L4.5,6.5 L8.35,6.5 C8.49,6.5 8.6,6.61 8.6,6.75 C8.6,6.86 8.54,6.94 8.45,6.98 C8.42,6.99 8.38,7 8.35,7 C7.63,7.15 7.22,7.29 7.18,7.3 C6.78,7.44 6.5,7.82 6.5,8.25 L6.5,8.5 L4.5,8.5 L4.5,10.5 L6.5,10.5 L6.5,12.5 L4.5,12.5 L4.5,13.98 C4.96,14.09 5.63,14.22 6.5,14.33 L6.5,16.34 C4.44,16.11 3.25,15.72 3.18,15.7 C2.78,15.56 2.5,15.18 2.5,14.75 L2.5,4.25 C2.5,3.82 2.78,3.44 3.18,3.3 C3.28,3.27 5.63,2.5 9.5,2.5 Z M19.5,13.5 L9.5,13.5 L9.5,15.5 L19.5,15.5 L19.5,13.5 Z M14.5,9.5 C12.142,9.5 10.398,9.812 9.5,10.019 L9.5,10.019 L9.5,11.5 L19.5,11.5 L19.5,10.019 C18.602,9.812 16.858,9.5 14.5,9.5 Z" id="Combined-Shape" fill="#273637"></path>
    </g>
</svg>