<svg width="24" height="24" fill="none" xmlns="http://www.w3.org/2000/svg">
  <path d="M19.1 17.7c.7 0 1.3-.6 1.3-1.3V4.3c0-.7-.6-1.3-1.3-1.3H4.9c-.7 0-1.2.6-1.2 1.3v12.2c0 .7.6 1.3 1.3 1.3h6V19H4.7c-.6 0-1 .4-1 1s.4 1 1 1h14.7c.6 0 1-.4 1-1s-.4-1-1-1H13v-1.3h6.1zM5.7 5h12.7v2.6H5.7V5zm0 4.1h12.7v2.5H5.7V9.1zm0 6.6v-2.6h12.7v2.6H5.7z" fill="#273637"/>
  <path d="M11.4 6.8a.5.5 0 100-1 .5.5 0 000 1zm4.8 0a.5.5 0 100-1 .5.5 0 000 1zm-2.4-1c-.3 0-.5.2-.5.5s.2.5.5.5.5-.2.5-.5-.2-.5-.5-.5zm-2.4 5a.5.5 0 100-1 .5.5 0 000 1zm4.8 0a.5.5 0 100-1 .5.5 0 000 1zm-2.4-.9c-.3 0-.5.2-.5.5s.2.5.5.5.5-.2.5-.5-.2-.5-.5-.5zm-2.4 5a.5.5 0 100-1 .5.5 0 000 1zm4.8 0a.5.5 0 100-1 .5.5 0 000 1zm-2.4-1c-.3 0-.5.2-.5.5s.2.5.5.5.5-.2.5-.5-.2-.5-.5-.5z" fill="#273637"/>
</svg>
