<?xml version="1.0" encoding="UTF-8"?>
<svg width="24px" height="24px" viewBox="0 0 24 24" version="1.1" xmlns="http://www.w3.org/2000/svg" xmlns:xlink="http://www.w3.org/1999/xlink">
    <title>Icons/Full Set/Database/Data Guard Group</title>
    <g id="Icons/Full-Set/Database/Data-Guard-Group" stroke="none" stroke-width="1" fill="none" fill-rule="evenodd">
        <path d="M7.25,11.2276 C9.553,11.2276 10.966,11.7726 11.025,11.7956 C11.312,11.9086 11.5,12.1856 11.5,12.4936 L11.5,12.4936 L11.5,19.7326 C11.5,20.0416 11.312,20.3176 11.025,20.4316 C10.966,20.4536 9.553,20.9996 7.25,20.9996 C4.947,20.9996 3.534,20.4536 3.475,20.4316 C3.188,20.3176 3,20.0416 3,19.7326 L3,19.7326 L3,12.4936 C3,12.1856 3.188,11.9086 3.475,11.7956 C3.534,11.7726 4.947,11.2276 7.25,11.2276 Z M10,18.2426 L4.5,18.2426 L4.5,19.1776 C5.032,19.3136 5.985,19.4996 7.25,19.4996 C8.515,19.4996 9.468,19.3136 10,19.1776 L10,19.1776 L10,18.2426 Z M16.5099,14.2235 C16.7049,14.0285 17.0219,14.0285 17.2169,14.2235 L17.2169,14.2235 L18.4669,15.4735 C18.6619,15.6685 18.6619,15.9855 18.4669,16.1805 C18.3689,16.2785 18.2409,16.3275 18.1129,16.3275 C17.9859,16.3275 17.8579,16.2785 17.7599,16.1805 L17.7599,16.1805 L17.3629,15.7845 L17.3629,16.7405 C17.3629,17.5675 16.6909,18.2405 15.8629,18.2405 L15.8629,18.2405 L12.9429,18.2405 C12.6659,18.2405 12.4429,18.0165 12.4429,17.7405 C12.4429,17.4635 12.6659,17.2405 12.9429,17.2405 L12.9429,17.2405 L15.8629,17.2405 C16.1389,17.2405 16.3629,17.0155 16.3629,16.7405 L16.3629,16.7405 L16.3629,15.7845 L15.9669,16.1805 C15.7719,16.3755 15.4549,16.3755 15.2599,16.1805 C15.0649,15.9855 15.0649,15.6685 15.2599,15.4735 L15.2599,15.4735 Z M10,15.4846 L4.5,15.4846 L4.5,16.7426 L10,16.7426 L10,15.4846 Z M7.25,12.7276 C5.985,12.7276 5.032,12.9126 4.5,13.0496 L4.5,13.0496 L4.5,13.9846 L10,13.9846 L10,13.0496 C9.469,12.9126 8.516,12.7276 7.25,12.7276 Z M16.75,3 C19.054,3 20.466,3.546 20.525,3.57 C20.812,3.682 21,3.96 21,4.267 L21,4.267 L21,11.505 C21,11.813 20.812,12.09 20.525,12.203 C20.466,12.226 19.054,12.773 16.75,12.773 C14.446,12.773 13.034,12.226 12.975,12.203 C12.688,12.09 12.5,11.813 12.5,11.505 L12.5,11.505 L12.5,4.267 C12.5,3.96 12.688,3.682 12.975,3.57 C13.034,3.546 14.446,3 16.75,3 Z M19.5,10.015 L14,10.015 L14,10.951 C14.531,11.087 15.485,11.273 16.75,11.273 C18.015,11.273 18.969,11.087 19.5,10.951 L19.5,10.951 L19.5,10.015 Z M11.0347,6.1786 C11.3107,6.1786 11.5347,6.4026 11.5347,6.6786 C11.5347,6.9546 11.3107,7.1786 11.0347,7.1786 L11.0347,7.1786 L7.7467,7.1786 C7.4707,7.1786 7.2467,7.4026 7.2467,7.6786 L7.2467,7.6786 L7.2467,8.6346 L7.6427,8.2386 C7.8387,8.0426 8.1547,8.0426 8.3497,8.2386 C8.5457,8.4336 8.5457,8.7496 8.3497,8.9456 L8.3497,8.9456 L7.0997,10.1956 C7.0027,10.2926 6.8747,10.3416 6.7467,10.3416 C6.6187,10.3416 6.4907,10.2926 6.3927,10.1956 L6.3927,10.1956 L5.1427,8.9456 C4.9477,8.7496 4.9477,8.4336 5.1427,8.2386 C5.3387,8.0426 5.6547,8.0426 5.8497,8.2386 L5.8497,8.2386 L6.2467,8.6346 L6.2467,7.6786 C6.2467,6.8516 6.9197,6.1786 7.7467,6.1786 L7.7467,6.1786 Z M19.5,7.257 L14,7.257 L14,8.515 L19.5,8.515 L19.5,7.257 Z M16.75,4.5 C15.485,4.5 14.531,4.685 14,4.822 L14,4.822 L14,5.757 L19.5,5.757 L19.5,4.822 C18.969,4.685 18.016,4.5 16.75,4.5 Z" id="Combined-Shape" fill="#273637"></path>
    </g>
</svg>