<svg width="24" height="24" viewBox="0 0 24 24" fill="none" xmlns="http://www.w3.org/2000/svg">
<path fill-rule="evenodd" clip-rule="evenodd" d="M18.32 3.00551C15.7768 2.28894 13.1417 1.95197 10.5 2.00551C7.85832 1.95197 5.22321 2.28894 2.68 3.00551C2.48138 3.0726 2.30887 3.20041 2.18684 3.37088C2.06482 3.54135 1.99946 3.74587 2 3.95551V17.1155C1.99946 17.3252 2.06482 17.5297 2.18684 17.7001C2.30887 17.8706 2.48138 17.9984 2.68 18.0655C3.66212 18.3578 4.665 18.5751 5.68 18.7155V16.7155C5.25572 16.6032 4.86258 16.5142 4.52974 16.4389C4.32913 16.3935 4.15043 16.3531 4 16.3155V14.0155H5.69V12.2055C5.68024 12.1426 5.68024 12.0785 5.69 12.0155H4V9.01551H17V10.5155H19V3.95551C19.0005 3.74587 18.9352 3.54135 18.8132 3.37088C18.6911 3.20041 18.5186 3.0726 18.32 3.00551ZM4 7.01551V4.71551C8.28308 3.78222 12.7169 3.78222 17 4.71551V7.01551H4Z" fill="#273637"/>
<path d="M12.9243 16.5342C13.0348 16.1955 13.11 15.9652 13.11 15.8457C13.1236 15.937 13.1436 16.0272 13.17 16.1157L13.54 17.2457H12.7C12.7816 16.9712 12.8591 16.7339 12.9243 16.5342Z" fill="#273637"/>
<path d="M16.12 15.9155H15.76V18.0155H16.05C16.71 18.0155 17.05 17.6655 17.05 16.9555C17.05 16.2455 16.74 15.9155 16.12 15.9155Z" fill="#273637"/>
<path d="M19.11 15.9156H19.31C19.4792 15.9069 19.6478 15.9413 19.8 16.0156C19.8546 16.0505 19.8984 16.0997 19.9267 16.158C19.9549 16.2163 19.9665 16.2812 19.96 16.3456C19.9653 16.4103 19.9543 16.4753 19.9281 16.5346C19.9019 16.594 19.8613 16.6459 19.81 16.6856C19.6633 16.7662 19.4971 16.8043 19.33 16.7956H19.11V15.9156Z" fill="#273637"/>
<path fill-rule="evenodd" clip-rule="evenodd" d="M20.75 11.9656H8.25C7.91848 11.9656 7.60054 12.0973 7.36612 12.3317C7.1317 12.5661 7 12.8841 7 13.2156V20.7156C7 21.0471 7.1317 21.365 7.36612 21.5995C7.60054 21.8339 7.91848 21.9656 8.25 21.9656H20.75C21.0815 21.9656 21.3995 21.8339 21.6339 21.5995C21.8683 21.365 22 21.0471 22 20.7156V13.2156C22 12.8841 21.8683 12.5661 21.6339 12.3317C21.3995 12.0973 21.0815 11.9656 20.75 11.9656ZM11.14 18.5856H10.46V17.1956H9.18V18.5856H8.5V15.3556H9.18V16.6256H10.46V15.3556H11.14V18.5856ZM13.93 18.5856L13.7 17.8156H12.52L12.29 18.5856H11.55L12.69 15.3456H13.53L14.67 18.5856H13.93ZM17.3 18.1656C16.9331 18.4678 16.4643 18.6181 15.99 18.5856H15.08V15.3556H16.08C16.5294 15.3271 16.9718 15.4782 17.31 15.7756C17.4587 15.9302 17.5738 16.114 17.6478 16.3154C17.7218 16.5168 17.7532 16.7314 17.74 16.9456C17.7553 17.1683 17.724 17.3918 17.6483 17.6018C17.5725 17.8119 17.4539 18.0038 17.3 18.1656ZM20.24 18.5856L19.47 17.3456H19.11V18.5856H18.42V15.3556H19.36C19.7105 15.3256 20.0613 15.4098 20.36 15.5956C20.4671 15.6829 20.5513 15.795 20.6054 15.9222C20.6594 16.0494 20.6816 16.1879 20.67 16.3256C20.6736 16.5085 20.6174 16.6875 20.51 16.8356C20.3984 16.9882 20.2459 17.1061 20.07 17.1756L20.185 17.347C20.6093 17.9797 20.8861 18.3925 21.07 18.5856H20.24Z" fill="#273637"/>
</svg>
