<?xml version="1.0" encoding="UTF-8"?>
<svg width="24px" height="24px" viewBox="0 0 24 24" version="1.1" xmlns="http://www.w3.org/2000/svg" xmlns:xlink="http://www.w3.org/1999/xlink">
    <title>Icons/Full Set/Database/Log Shipping Targets / Log Shipping Targets</title>
    <g id="Icons/Full-Set/Database/Log-Shipping-Targets-/-Log-Shipping-Targets" stroke="none" stroke-width="1" fill="none" fill-rule="evenodd">
        <path d="M12.9846516,3 C15.2146516,3 17.0646516,3.19 18.4446516,3.41 C18.8546516,3.48 19.2046516,3.55 19.5146516,3.61 C20.4165266,3.78875 21.0015266,3.95429688 21.2160139,4.02082031 L21.2885042,4.04417969 L21.2885042,4.04417969 L21.3046516,4.05 C21.7046516,4.19 21.9846516,4.57 21.9846516,5 L21.9846516,5 L21.9846516,19 C21.9846516,19.43 21.7046516,19.81 21.3046516,19.95 C21.2046516,19.98 19.3146516,20.6 16.0746516,20.87 C15.6146516,20.91 15.1246516,20.95 14.6146516,20.97 C14.0946516,20.99 13.5546516,21 12.9846516,21 C12.4146516,21 11.8746516,20.99 11.3546516,20.97 C10.8446516,20.95 10.3546516,20.91 9.89465164,20.87 C7.08665164,20.636 5.29265164,20.1391111 4.79907534,19.9912385 L4.70838794,19.9635881 C4.68594053,19.9566222 4.67131831,19.952 4.66465164,19.95 C4.36465164,19.84 4.13465164,19.6 4.03465164,19.31 C4.00465164,19.21 3.98465164,19.11 3.98465164,19 L3.98465164,19 L3.98465164,17.6 C3.98465164,17.55 4.02465164,17.5 4.08465164,17.5 C4.11465164,17.5 4.14465164,17.51 4.16465164,17.53 C4.28465164,17.7 4.46465164,17.84 4.66465164,17.91 C4.71465164,17.93 5.34465164,18.13 6.45465164,18.35 C6.77465164,18.42 7.13465164,18.48 7.52465164,18.55 C8.84465164,18.78 10.7046516,19 12.9846516,19 C15.2646516,19 17.1246516,18.78 18.4446516,18.55 C18.8346516,18.48 19.1946516,18.42 19.5146516,18.35 C19.6946516,18.31 19.8446516,18.27 19.9846516,18.24 L19.9846516,18.24 L19.9846516,15.67 L8.59565164,15.67 L10.7056516,13.8 C10.7556516,13.76 10.7856516,13.72 10.8256516,13.67 L10.8256516,13.67 L19.9846516,13.67 L19.9846516,10.33 L7.57365164,10.33 L7.57365164,8.33 L19.9846516,8.33 L19.9846516,5.76 C19.2246516,5.58 17.8746516,5.3 16.0346516,5.13 C15.5746516,5.1 15.0946516,5.06 14.5846516,5.04 C14.0846516,5.01 13.5446516,5 12.9846516,5 C12.4246516,5 11.8846516,5.01 11.3846516,5.04 C10.8746516,5.06 10.3946516,5.1 9.93465164,5.13 C9.02465164,5.21 8.21465164,5.31 7.52465164,5.42 L7.52465164,5.42 L7.44465164,5.43 L7.44465164,3.42 L7.44465164,3.42 L7.52465164,3.41 C8.90465164,3.19 10.7546516,3 12.9846516,3 Z M4.98435164,4.0537 C5.53735164,4.0537 5.98435164,4.5007 5.98435164,5.0537 L5.98435164,5.0537 L5.98435164,13.5447 L7.51435164,12.1887 C7.87635164,11.8667 8.42935164,11.9017 8.74935164,12.2627 C9.06935164,12.6237 9.03635164,13.1767 8.67535164,13.4967 L8.67535164,13.4967 L5.56535164,16.2547 C5.51835164,16.2967 5.46235164,16.3187 5.40935164,16.3487 C5.37635164,16.3677 5.34835164,16.3927 5.31435164,16.4067 C5.20835164,16.4497 5.09735164,16.4757 4.98535164,16.4757 L4.98535164,16.4757 L4.98435164,16.4757 L4.87283312,16.4673667 C4.79890719,16.4564778 4.72601831,16.4353667 4.65535164,16.4067 C4.62035164,16.3927 4.59235164,16.3677 4.56035164,16.3487 C4.50735164,16.3187 4.45135164,16.2967 4.40435164,16.2547 L4.40435164,16.2547 L1.29435164,13.4967 C0.933351639,13.1767 0.899351639,12.6237 1.22035164,12.2627 C1.54035164,11.9017 2.09335164,11.8667 2.45535164,12.1887 L2.45535164,12.1887 L3.98435164,13.5447 L3.98435164,5.0537 C3.98435164,4.5007 4.43235164,4.0537 4.98435164,4.0537 Z" id="Combined-Shape" fill="#273637"></path>
    </g>
</svg>