<?xml version="1.0" encoding="UTF-8"?>
<svg width="24px" height="24px" viewBox="0 0 24 24" version="1.1" xmlns="http://www.w3.org/2000/svg" xmlns:xlink="http://www.w3.org/1999/xlink">
    <title>Icons/Full Set/Database/Oracle DBs</title>
    <defs>
        <filter id="filter-1">
            <feColorMatrix in="SourceGraphic" type="matrix" values="0 0 0 0 0.152941 0 0 0 0 0.211765 0 0 0 0 0.215686 0 0 0 1.000000 0"></feColorMatrix>
        </filter>
    </defs>
    <g id="Icons/Full-Set/Database/Oracle-DBs" stroke="none" stroke-width="1" fill="none" fill-rule="evenodd">
        <g filter="url(#filter-1)" id="Group-5">
            <g transform="translate(2.000000, 2.000000)">
                <path d="M15,5 L2,5 L2,2.7 C3.07,2.44 5.35,2 8.5,2 C11.65,2 13.93,2.44 15,2.7 L15,5 Z M16.32,0.99 C16.2,0.95 13.29,0 8.5,0 C3.71,0 0.8,0.95 0.68,0.99 C0.28,1.12 0,1.51 0,1.94 L0,15.06 C0,15.49 0.28,15.88 0.68,16.01 C0.76,16.04 2.229,16.52 4.76,16.8 C4.59,16.23 4.5,15.62 4.5,15 C4.5,14.92 4.5,14.83 4.51,14.75 C3.39,14.61 2.54,14.43 2,14.3 L2,12 L5.24,12 C5.54,11.422 5.925,10.895 6.382,10.435 C6.543,10.272 6.442,10 6.214,10 L2,10 L2,7 L15,7 L15,8.5 C15.7,8.5 16.37,8.61 17,8.82 L17,1.94 C17,1.51 16.72,1.12 16.32,0.99 L16.32,0.99 Z" id="Fill-1" fill="#273637"></path>
                <path d="M15,10 L11,10 C8.238,10 6,12.238 6,15 C6,17.762 8.238,20 11,20 L15,20 C17.762,20 20,17.762 20,15 C20,12.238 17.762,10 15,10 M15,12 C16.654,12 18,13.346 18,15 C18,16.654 16.654,18 15,18 L11,18 C9.346,18 8,16.654 8,15 C8,13.346 9.346,12 11,12 L15,12" id="Fill-3" fill="#273637"></path>
            </g>
        </g>
    </g>
</svg>
