<svg width="24" height="24" viewBox="0 0 24 24" fill="none" xmlns="http://www.w3.org/2000/svg">
<path fill-rule="evenodd" clip-rule="evenodd" d="M12.7038 3.2113C12.6847 3.22977 12.6661 3.26245 12.6618 3.30281C12.5561 4.30476 12.3067 5.28825 11.9197 6.22261C11.3914 7.49802 10.617 8.65689 9.64087 9.63306C8.66471 10.6092 7.50584 11.3836 6.23042 11.9118C5.29607 12.2989 4.31257 12.5483 3.31062 12.654C3.27026 12.6583 3.23758 12.6769 3.21912 12.696C3.21081 12.7045 3.20803 12.7105 3.20753 12.7116C3.20741 12.7119 3.20752 12.7111 3.20752 12.712V19.4637C5.13657 19.352 7.0357 18.9176 8.82525 18.1763C9.40732 17.9352 9.97462 17.663 10.5248 17.3611C10.5506 17.2958 10.5769 17.2307 10.6037 17.1659C11.2124 15.6966 12.1044 14.3615 13.2289 13.237C14.3535 12.1124 15.6885 11.2204 17.1578 10.6118C17.2257 10.5837 17.2939 10.5562 17.3622 10.5293C17.6667 9.97524 17.9413 9.40383 18.1841 8.81744C18.9254 7.02789 19.3598 5.12876 19.4716 3.19971H12.7199C12.7193 3.19971 12.7194 3.19967 12.7194 3.19966C12.7195 3.19965 12.7196 3.19966 12.7195 3.19972C12.7183 3.20022 12.7124 3.203 12.7038 3.2113ZM9.82816 19.9238C9.74923 19.9578 9.67005 19.9912 9.59062 20.0241C7.57509 20.8589 5.43496 21.3449 3.26168 21.4639C2.10114 21.5274 1.20752 20.5818 1.20752 19.4927V12.712C1.20752 11.5842 2.10883 10.7697 3.10076 10.6651C3.91208 10.5794 4.70847 10.3775 5.46505 10.0641C6.49782 9.6363 7.43621 9.00929 8.22666 8.21884C9.0171 7.4284 9.64411 6.49 10.0719 5.45724C10.3853 4.70065 10.5873 3.90427 10.6729 3.09294C10.7775 2.10102 11.592 1.19971 12.7199 1.19971H19.5005C20.5896 1.19971 21.5352 2.09333 21.4717 3.25387C21.3527 5.42715 20.8668 7.56728 20.0319 9.58281C19.997 9.66705 19.9615 9.75101 19.9255 9.83469C20.1836 9.79441 20.4432 9.76248 20.7037 9.73896C21.8994 9.63105 22.7923 10.6121 22.7923 11.6899V15.4673C22.7923 16.6078 21.8845 17.3725 20.9845 17.5433C20.6938 17.5984 20.4088 17.6834 20.1341 17.7972C19.6084 18.0149 19.1307 18.3341 18.7284 18.7364C18.326 19.1388 18.0069 19.6164 17.7891 20.1421C17.6753 20.4168 17.5904 20.7018 17.5352 20.9926C17.3645 21.8926 16.5998 22.8003 15.4593 22.8003H11.6819C10.6041 22.8003 9.62301 21.9074 9.73092 20.7117C9.75473 20.448 9.78717 20.1852 9.82816 19.9238ZM12.2722 18.3961C11.9944 19.173 11.813 19.9805 11.7315 20.8003H15.459C15.4592 20.8002 15.4594 20.8001 15.4597 20.8C15.4627 20.7987 15.4731 20.7937 15.4881 20.7795C15.5214 20.748 15.5568 20.6909 15.5703 20.6197C15.6509 20.1948 15.7751 19.7783 15.9414 19.3768C16.2596 18.6084 16.7261 17.9103 17.3142 17.3222C17.9022 16.7341 18.6004 16.2677 19.3687 15.9494C19.7702 15.7831 20.1868 15.659 20.6117 15.5783C20.6829 15.5648 20.74 15.5295 20.7714 15.4962C20.7856 15.4811 20.7907 15.4707 20.792 15.4678C20.7921 15.4675 20.7922 15.4672 20.7923 15.467V11.7395C19.9746 11.8208 19.1693 12.0015 18.3943 12.278C18.3933 12.2784 18.3922 12.2788 18.3911 12.2792C18.3842 12.2817 18.3772 12.2842 18.3703 12.2867C18.2201 12.3407 18.071 12.3983 17.9232 12.4595C16.6965 12.9676 15.582 13.7124 14.6432 14.6512C13.7043 15.59 12.9596 16.7046 12.4515 17.9312C12.3885 18.0833 12.3293 18.2368 12.2739 18.3915C12.2733 18.393 12.2728 18.3945 12.2722 18.3961Z" fill="#273637"/>
</svg>
