<svg width="24" height="24" viewBox="0 0 24 24" fill="none" xmlns="http://www.w3.org/2000/svg">
<path fill-rule="evenodd" clip-rule="evenodd" d="M8.9839 5.0196C8.82804 5.13852 8.62995 5.33376 8.27762 5.68608L2.70622 11.2575C2.3539 11.6098 2.15866 11.8079 2.03974 11.9638C2.02941 11.9773 2.0206 11.9893 2.01311 11.9999C2.0206 12.0106 2.02941 12.0226 2.03974 12.0361C2.15866 12.192 2.3539 12.3901 2.70622 12.7424L8.27762 18.3138C8.62995 18.6661 8.82804 18.8614 8.9839 18.9803C8.99744 18.9906 9.00948 18.9994 9.02008 19.0069C9.03069 18.9994 9.04273 18.9906 9.05627 18.9803C9.21213 18.8614 9.41022 18.6661 9.76255 18.3138L13.5153 14.561L13.0402 14.0859C13.0278 14.0735 13.0154 14.0611 13.003 14.0487C12.702 13.7478 12.4127 13.4586 12.2067 13.1886C11.9756 12.8857 11.762 12.4983 11.762 12C11.762 11.5016 11.9756 11.1142 12.2067 10.8113C12.4127 10.5413 12.702 10.2522 13.003 9.95119C13.0154 9.93881 13.0278 9.92641 13.0402 9.91399L13.5153 9.43888L9.76255 5.68608C9.41022 5.33376 9.21213 5.13852 9.05627 5.0196C9.04273 5.00927 9.03069 5.00046 9.02009 4.99297C9.00948 5.00046 8.99745 5.00927 8.9839 5.0196ZM14.8589 8.09538L11.1061 4.34258C11.0936 4.33016 11.0812 4.31775 11.0688 4.30537C10.7679 4.00429 10.4787 3.715 10.2088 3.50906C9.90583 3.27792 9.51842 3.06433 9.02009 3.06433C8.52175 3.06433 8.13434 3.27792 7.8314 3.50906C7.56148 3.715 7.2723 4.00429 6.97133 4.30536C6.95895 4.31775 6.94654 4.33016 6.93412 4.34258L1.36272 9.91398C1.3503 9.9264 1.33789 9.93881 1.3255 9.9512C1.02443 10.2522 0.735142 10.5413 0.529202 10.8113C0.298061 11.1142 0.0844727 11.5016 0.0844727 11.9999C0.0844727 12.4983 0.298061 12.8857 0.529202 13.1886C0.735147 13.4586 1.02444 13.7477 1.32552 14.0487C1.3379 14.0611 1.3503 14.0735 1.36272 14.0859L6.93412 19.6573C6.94655 19.6697 6.95895 19.6821 6.97134 19.6945C7.2723 19.9956 7.56148 20.2849 7.8314 20.4908C8.13435 20.722 8.52175 20.9356 9.02009 20.9356C9.51842 20.9356 9.90583 20.722 10.2088 20.4908C10.4787 20.2849 10.7679 19.9956 11.0688 19.6945C11.0812 19.6821 11.0936 19.6697 11.1061 19.6573L14.8588 15.9045L15.7578 16.8034C15.7702 16.8159 15.7826 16.8283 15.795 16.8407C16.0959 17.1417 16.3851 17.431 16.655 17.637C16.958 17.8681 17.3454 18.0817 17.8437 18.0817C18.3421 18.0817 18.7295 17.8681 19.0324 17.637C19.3023 17.431 19.5915 17.1417 19.8925 16.8407L22.6844 14.0488C22.9855 13.7478 23.2748 13.4586 23.4808 13.1886C23.7119 12.8857 23.9255 12.4983 23.9255 12C23.9255 11.5016 23.7119 11.1142 23.4808 10.8113C23.2748 10.5413 22.9855 10.2521 22.6844 9.95117L19.8925 7.15926C19.5915 6.85818 19.3024 6.56889 19.0324 6.36294C18.7295 6.1318 18.3421 5.91821 17.8437 5.91821C17.3454 5.91821 16.958 6.1318 16.6551 6.36294C16.3851 6.56888 16.0959 6.85817 15.795 7.15924C15.7826 7.17163 15.7702 7.18404 15.7578 7.19646L14.8589 8.09538ZM17.8076 7.87348C17.6517 7.9924 17.4536 8.18764 17.1013 8.53996L14.3837 11.2575C14.0314 11.6098 13.8362 11.8079 13.7173 11.9638C13.7069 11.9773 13.6981 11.9893 13.6906 12C13.6981 12.0106 13.7069 12.0226 13.7173 12.0361C13.8362 12.192 14.0314 12.3901 14.3837 12.7424L17.1013 15.4599C17.4536 15.8123 17.6517 16.0075 17.8076 16.1264C17.8211 16.1368 17.8331 16.1456 17.8437 16.1531C17.8543 16.1456 17.8664 16.1368 17.8799 16.1264C18.0358 16.0075 18.2339 15.8123 18.5862 15.4599L21.3037 12.7424C21.6561 12.3901 21.8513 12.192 21.9702 12.0361C21.9805 12.0226 21.9894 12.0106 21.9968 12C21.9894 11.9893 21.9805 11.9773 21.9702 11.9638C21.8513 11.8079 21.6561 11.6098 21.3037 11.2575L18.5862 8.53996C18.2339 8.18764 18.0358 7.9924 17.8799 7.87348C17.8664 7.86315 17.8543 7.85434 17.8437 7.84685C17.8331 7.85434 17.8211 7.86315 17.8076 7.87348Z" fill="#273637"/>
</svg>
