<svg width="24" height="24" viewBox="0 0 24 24" fill="none" xmlns="http://www.w3.org/2000/svg">
<path d="M20.5781 3.31007C20.6083 2.75861 20.1578 2.31055 19.6055 2.31055H12.8248C12.2726 2.31055 11.8303 2.75948 11.7723 3.30872C11.6767 4.21535 11.451 5.10529 11.1008 5.95076C10.6227 7.10485 9.92205 8.15349 9.03874 9.03679C8.15544 9.92009 7.10681 10.6208 5.95272 11.0988C5.10725 11.449 4.21731 11.6747 3.31067 11.7704C2.76143 11.8283 2.3125 12.2706 2.3125 12.8229V19.6035C2.3125 20.1558 2.76056 20.6064 3.31202 20.5762C5.37265 20.4634 7.40185 20.0026 9.31291 19.211C9.32717 19.2051 9.34142 19.1992 9.35566 19.1933C9.4704 18.1519 9.73208 17.1299 10.1346 16.1583C10.6929 14.8103 11.5113 13.5855 12.543 12.5538C13.5747 11.5221 14.7995 10.7037 16.1474 10.1454C17.1216 9.74188 18.1462 9.4799 19.1903 9.36562C19.1979 9.34741 19.2055 9.3292 19.213 9.31096C20.0046 7.3999 20.4654 5.3707 20.5781 3.31007Z" fill="#273637"/>
<path d="M11.7869 21.9111C11.2346 21.9111 10.7822 21.4625 10.8319 20.9125C10.9326 19.7958 11.2021 18.6988 11.6326 17.6594C12.191 16.3114 13.0093 15.0866 14.041 14.0549C15.0727 13.0232 16.2975 12.2049 17.6455 11.6465C18.6849 11.216 19.7819 10.9465 20.8986 10.8458C21.4486 10.7961 21.8972 11.2485 21.8972 11.8008V15.5782C21.8972 16.1304 21.4457 16.5687 20.9031 16.6716C20.5453 16.7395 20.1945 16.8441 19.8564 16.9841C19.2094 17.2521 18.6215 17.6449 18.1263 18.1402C17.631 18.6354 17.2382 19.2233 16.9702 19.8703C16.8302 20.2084 16.7256 20.5592 16.6577 20.917C16.5548 21.4596 16.1166 21.9111 15.5643 21.9111H11.7869Z" fill="#273637"/>
</svg>
