<svg width="24" height="24" viewBox="0 0 24 24" fill="none" xmlns="http://www.w3.org/2000/svg">
<path d="M4.02734 4.86272V19.1909C4.02734 20.4026 4.02734 21.0084 4.26694 21.2889C4.47483 21.5323 4.78668 21.6615 5.1058 21.6364C5.47358 21.6074 5.90196 21.1791 6.75871 20.3223L11.7602 15.3208L10.254 13.8147C9.66001 13.2206 9.36299 12.9236 9.25171 12.5811C9.15382 12.2799 9.15382 11.9553 9.25171 11.6541C9.36299 11.3116 9.66 11.0146 10.254 10.4205L11.851 8.8236L6.75872 3.73135C5.90196 2.87459 5.47359 2.44622 5.10581 2.41727C4.78669 2.39216 4.47483 2.52133 4.26694 2.76474C4.02735 3.04527 4.02735 3.6511 4.02734 4.86272Z" fill="#273637"/>
<path d="M19.082 16.0279C19.082 17.2395 19.082 17.8453 18.8424 18.1258C18.6345 18.3692 18.3227 18.4984 18.0036 18.4733C17.6358 18.4444 17.2074 18.016 16.3507 17.1592L12.4404 13.2489C12.0444 12.8529 11.8464 12.6549 11.7722 12.4266C11.7069 12.2257 11.7069 12.0094 11.7722 11.8086C11.8464 11.5802 12.0444 11.3822 12.4404 10.9862L16.3507 7.07592C17.2074 6.21917 17.6358 5.79079 18.0036 5.76184C18.3227 5.73673 18.6345 5.8659 18.8424 6.10931C19.082 6.38984 19.082 6.99566 19.082 8.20729L19.082 16.0279Z" fill="#273637"/>
</svg>
