<svg width="24" height="24" viewBox="0 0 24 24" fill="none" xmlns="http://www.w3.org/2000/svg">
<path fill-rule="evenodd" clip-rule="evenodd" d="M3.73871 2.1153C4.1545 1.62848 4.77821 1.37013 5.41644 1.42036C5.93703 1.46133 6.34599 1.7652 6.62301 1.99713C6.91748 2.24365 7.265 2.5912 7.66574 2.99198C7.67646 3.0027 7.68721 3.01345 7.698 3.02425L13.4592 8.7854L15.908 6.33658C16.3087 5.93579 16.6563 5.58823 16.9507 5.3417C17.2278 5.10978 17.6367 4.8059 18.1573 4.76493C18.7955 4.7147 19.4192 4.97305 19.835 5.45987C20.1742 5.85695 20.2485 6.361 20.2804 6.72088C20.3143 7.10345 20.3142 7.59497 20.3142 8.16179V16.0735C20.3142 16.6403 20.3143 17.1318 20.2804 17.5143C20.2485 17.8742 20.1742 18.3782 19.835 18.7753C19.4192 19.2621 18.7955 19.5205 18.1573 19.4702C17.6367 19.4293 17.2278 19.1254 16.9507 18.8935C16.6563 18.6469 16.3087 18.2994 15.908 17.8986L13.3684 15.359L7.66574 21.0617C7.26499 21.4625 6.91747 21.81 6.62301 22.0565C6.34598 22.2885 5.93703 22.5923 5.41644 22.6333C4.77821 22.6835 4.1545 22.4252 3.73871 21.9384C3.39957 21.5413 3.32527 21.0372 3.29338 20.6774C3.25948 20.2948 3.2595 19.8033 3.25952 19.2366L3.25952 4.86272C3.25952 4.84746 3.25952 4.83225 3.25952 4.8171C3.2595 4.25034 3.25948 3.75885 3.29338 3.37631C3.32527 3.01643 3.39958 2.51238 3.73871 2.1153ZM12.0449 10.1996L6.28379 4.43846C5.84142 3.99609 5.55712 3.71314 5.33914 3.53065C5.32208 3.51636 5.30627 3.50345 5.29167 3.49179C5.28959 3.51036 5.28754 3.53068 5.28557 3.55284C5.26048 3.83602 5.25952 4.23713 5.25952 4.86272V19.1909C5.25952 19.8165 5.26048 20.2177 5.28557 20.5008C5.28753 20.523 5.28958 20.5433 5.29166 20.5619C5.30627 20.5502 5.32208 20.5373 5.33914 20.523C5.55712 20.3405 5.84142 20.0576 6.28379 19.6152L11.9542 13.9448L11.9429 13.9335C11.7644 13.7551 11.5906 13.5813 11.4554 13.4221C11.307 13.2472 11.1474 13.0253 11.0533 12.7356C10.9228 12.3339 10.9228 11.9012 11.0533 11.4995C11.1474 11.2098 11.307 10.9879 11.4554 10.8131C11.5906 10.6539 11.7644 10.4801 11.9429 10.3016L12.0449 10.1996ZM17.2899 16.4521C17.7323 16.8945 18.0166 17.1774 18.2346 17.3599C18.2517 17.3742 18.2675 17.3871 18.2821 17.3988C18.2842 17.3802 18.2862 17.3599 18.2882 17.3377C18.3133 17.0546 18.3142 16.6535 18.3142 16.0279L18.3142 8.2073C18.3142 7.58169 18.3133 7.18059 18.2882 6.89741C18.2862 6.87524 18.2842 6.85493 18.2821 6.83636C18.2675 6.84802 18.2517 6.86094 18.2346 6.87522C18.0166 7.05771 17.7323 7.34066 17.2899 7.78303L13.9453 11.1276C13.6367 11.4363 13.4482 11.6258 13.3184 11.7788C13.2579 11.85 13.2248 11.8967 13.2063 11.9266C13.1975 11.9408 13.1927 11.9501 13.1902 11.9553C13.1879 11.9603 13.1871 11.9626 13.187 11.9631C13.1543 12.0635 13.1543 12.1717 13.187 12.2721C13.1871 12.2725 13.1879 12.2748 13.1902 12.2798C13.1927 12.285 13.1975 12.2944 13.2063 12.3086C13.2248 12.3385 13.2579 12.3851 13.3184 12.4564C13.4482 12.6093 13.6367 12.7989 13.9454 13.1075L17.2899 16.4521Z" fill="#273637"/>
</svg>
