<svg width="24" height="24" viewBox="0 0 24 24" fill="none" xmlns="http://www.w3.org/2000/svg">
<path fill-rule="evenodd" clip-rule="evenodd" d="M14.4503 3.29292C14.3026 3.31095 14.1313 3.3374 13.9111 3.37156C12.968 3.5178 12.0435 3.77637 11.1578 4.14327C9.70186 4.74632 8.37898 5.63024 7.26468 6.74454C6.15038 7.85884 5.26647 9.18171 4.66341 10.6376C4.29651 11.5234 4.03794 12.4478 3.8917 13.3909C3.85754 13.6112 3.8311 13.7824 3.81307 13.9302C3.79818 14.0521 3.79174 14.1377 3.79049 14.1996C3.97393 14.2271 4.24321 14.2298 4.74996 14.2298H11.0059C11.0133 13.8849 11.03 13.5695 11.0675 13.2909C11.141 12.7444 11.3104 12.1924 11.7615 11.7413C12.2126 11.2903 12.7645 11.1208 13.3111 11.0473C13.7192 10.9924 14.2064 10.9821 14.75 10.9802L14.75 4.22982C14.75 3.72307 14.7472 3.45379 14.7198 3.27035C14.6578 3.2716 14.5723 3.27804 14.4503 3.29292ZM11.25 16.2298H4.74996C4.72993 16.2298 4.70988 16.2298 4.68984 16.2298C4.25965 16.23 3.82887 16.2301 3.47153 16.1741C3.05127 16.1083 2.59977 15.9476 2.2429 15.5312C1.9021 15.1335 1.79712 14.691 1.7906 14.2668C1.78528 13.9208 1.8472 13.5226 1.90619 13.1432C1.90924 13.1236 1.91229 13.104 1.91532 13.0844C2.08594 11.9842 2.3876 10.9056 2.81565 9.87225C3.51922 8.17369 4.55045 6.63035 5.85047 5.33033C7.15049 4.0303 8.69384 2.99907 10.3924 2.29551C11.4258 1.86746 12.5043 1.5658 13.6046 1.39518C13.6241 1.39215 13.6437 1.3891 13.6634 1.38604C14.0427 1.32706 14.4409 1.26514 14.787 1.27046C15.2111 1.27698 15.6536 1.38196 16.0513 1.72276C16.4678 2.07963 16.6284 2.53113 16.6943 2.95139C16.7502 3.30873 16.7501 3.73951 16.75 4.16969C16.75 4.18974 16.75 4.20979 16.75 4.22982L16.75 11.2298L19.75 11.2298C19.7707 11.2298 19.7914 11.2298 19.8122 11.2298C20.2428 11.2297 20.6795 11.2295 21.0426 11.2896C21.4767 11.3615 21.9312 11.5368 22.2832 11.972C22.6134 12.3803 22.7133 12.8247 22.7016 13.2631C22.6924 13.6112 22.6084 14.0031 22.5309 14.3646C22.5266 14.3846 22.5224 14.4044 22.5182 14.4242C22.098 16.3903 21.1182 18.2109 19.6746 19.6544C18.231 21.098 16.4104 22.0778 14.4443 22.498C14.4246 22.5022 14.4047 22.5065 14.3848 22.5108C14.0232 22.5882 13.6314 22.6722 13.2832 22.6815C12.8449 22.6932 12.4004 22.5933 11.9922 22.2631C11.557 21.9111 11.3817 21.4565 11.3098 21.0224C11.2497 20.6594 11.2498 20.2227 11.25 19.792C11.25 19.7713 11.25 19.7505 11.25 19.7298L11.25 16.2298ZM20.6995 13.2602C20.52 13.2328 20.2543 13.2298 19.75 13.2298L14.25 13.2298C13.7503 13.2298 13.4761 13.2319 13.286 13.2575C13.2835 13.2579 13.2811 13.2582 13.2787 13.2585C13.2783 13.2609 13.278 13.2633 13.2777 13.2658C13.2521 13.456 13.25 13.7301 13.25 14.2298L13.25 19.7298C13.25 20.2341 13.253 20.4998 13.2803 20.6793C13.3342 20.6749 13.4081 20.6652 13.5114 20.6469C13.6516 20.6221 13.8141 20.5875 14.0263 20.5422C15.618 20.202 17.0918 19.4088 18.2604 18.2402C19.4289 17.0717 20.2222 15.5979 20.5623 14.0062C20.6077 13.7939 20.6423 13.6314 20.6671 13.4913C20.6854 13.3879 20.6951 13.3141 20.6995 13.2602Z" fill="#273637"/>
</svg>
