<svg width="24" height="24" viewBox="0 0 24 24" fill="none" xmlns="http://www.w3.org/2000/svg">
<path d="M7.21684 2.01355C6.50795 2.01634 5.85352 2.39418 5.49665 3.0067L3.76997 5.9703L2.06675 8.94746C1.71473 9.56277 1.71473 10.3184 2.06675 10.9338L3.76997 13.9109L5.49665 16.8745C5.85352 17.487 6.50795 17.8649 7.21684 17.8677L8.27813 17.8719C8.20782 17.4286 8.28759 16.9669 8.51744 16.5652L9.66001 14.568L10.8183 12.5799C11.1752 11.9674 11.8296 11.5896 12.5385 11.5868L14.8394 11.5777L17.1403 11.5868C17.666 11.5888 18.1617 11.7972 18.5284 12.1545L19.2267 10.9338C19.5787 10.3184 19.5787 9.56277 19.2267 8.94746L17.5235 5.9703L15.7968 3.0067C15.44 2.39418 14.7855 2.01634 14.0766 2.01355L10.6467 2L7.21684 2.01355Z" fill="white"/>
<path d="M11.723 14.1467C12.0799 13.5342 12.7343 13.1563 13.4432 13.1535L14.8395 13.148L16.2358 13.1535C16.9447 13.1563 17.5992 13.5342 17.956 14.1467L18.659 15.3532L19.3524 16.5652C19.7044 17.1805 19.7044 17.9362 19.3523 18.5515L18.659 19.7635L17.956 20.97C17.5992 21.5825 16.9447 21.9603 16.2358 21.9631L14.8395 21.9686L13.4432 21.9631C12.7343 21.9603 12.0799 21.5825 11.723 20.97L11.0201 19.7635L10.3267 18.5515C9.9747 17.9362 9.9747 17.1805 10.3267 16.5652L11.0201 15.3532L11.723 14.1467Z" fill="white"/>
</svg>
