<svg width="24" height="24" fill="none" xmlns="http://www.w3.org/2000/svg">
  <path d="M9.9 15.5H14c.8 0 1.5-.7 1.5-1.5V9.9c0-.8-.7-1.5-1.5-1.5H9.9c-.8 0-1.5.7-1.5 1.5V14c0 .9.7 1.5 1.5 1.5zm.5-5.1h3.1v3.1h-3.1v-3.1z" fill="#273637"/>
  <path d="M21 13c.6 0 1-.4 1-1s-.4-1-1-1h-1.7V8.9H21c.6 0 1-.4 1-1s-.4-1-1-1h-1.7v-.7c0-.8-.7-1.5-1.5-1.5H17V3c0-.6-.4-1-1-1s-1 .4-1 1v1.7h-2V3c0-.6-.4-1-1-1s-1 .4-1 1v1.7H9V3c0-.6-.4-1-1-1s-1 .5-1 1v1.7h-.8c-.8 0-1.5.7-1.5 1.5v.7H3c-.6 0-1 .4-1 1s.4 1 1 1h1.7V11H3c-.6 0-1 .4-1 1s.4 1 1 1h1.7v2H3c-.6 0-1 .4-1 1s.4 1 1 1h1.7v.8c0 .8.7 1.5 1.5 1.5H7V21c0 .6.4 1 1 1s1-.4 1-1v-1.7h2V21c0 .6.4 1 1 1s1-.4 1-1v-1.7h2V21c0 .6.4 1 1 1s1-.4 1-1v-1.7h.8c.8 0 1.5-.7 1.5-1.5V17H21c.6 0 1-.4 1-1s-.4-1-1-1h-1.7v-2H21zm-3.7 4.3H6.7V6.7h10.6v10.6z" fill="#273637"/>
</svg>
