<?xml version="1.0" encoding="UTF-8"?>
<svg width="24px" height="24px" viewBox="0 0 24 24" version="1.1" xmlns="http://www.w3.org/2000/svg" xmlns:xlink="http://www.w3.org/1999/xlink">
    <g stroke="none" stroke-width="1" fill="none" fill-rule="evenodd">
      <path d="M12 3c-4.95 0-9 4.05-9 9s4.05 9 9 9 9-4.05 9-9-4.05-9-9-9zm-.09 13.59c-2.16 0-4.05-1.53-4.5-3.69-.09-.45.18-.99.72-1.08.45-.09.99.18 1.08.72.27 1.53 1.8 2.52 3.33 2.25s2.52-1.8 2.25-3.33c-.18-1.17-1.08-1.98-2.25-2.25-.54-.09-.81-.54-.72-1.08.09-.54.54-.81 1.08-.72 2.52.45 4.14 2.88 3.69 5.4-.63 2.16-2.52 3.69-4.68 3.78z" fill="#273637" />
    </g>
</svg>
