<?xml version="1.0" encoding="UTF-8"?>
<svg width="24px" height="24px" viewBox="0 0 24 24" version="1.1" xmlns="http://www.w3.org/2000/svg" xmlns:xlink="http://www.w3.org/1999/xlink">
    <g stroke="none" stroke-width="1" fill="none" fill-rule="evenodd">
      <path d="M12 3c4.95 0 9 4.05 9 9s-4.05 9-9 9-9-4.05-9-9 4.05-9 9-9zm0 1.8c-3.96 0-7.2 3.24-7.2 7.2s3.24 7.2 7.2 7.2 7.2-3.24 7.2-7.2-3.24-7.2-7.2-7.2zm.81 2.52c2.52.45 4.14 2.88 3.69 5.4-.45 2.25-2.34 3.78-4.59 3.78-2.16 0-4.05-1.53-4.5-3.69-.09-.54.27-.99.72-1.08.54-.09.99.27 1.08.72.27 1.53 1.71 2.52 3.24 2.25 1.35-.27 2.34-1.44 2.34-2.79s-.99-2.52-2.34-2.79c-.54-.09-.81-.54-.72-1.08.09-.54.54-.81 1.08-.72z" fill="#273637" />
    </g>
</svg>
