<svg width="24" height="24" viewBox="0 0 24 24" fill="none" xmlns="http://www.w3.org/2000/svg">
<path d="M10.4986 7.72942L15.0623 15.3367C15.9677 14.5058 16.5459 13.324 16.5459 12.0003C16.5459 9.49306 14.5059 7.45488 12.0004 7.45488C11.4714 7.45488 10.9714 7.56215 10.4986 7.72942Z" fill="#273637"/>
<path d="M8.93863 8.66397C8.03317 9.49488 7.45499 10.6767 7.45499 12.0003C7.45499 14.5058 9.49317 16.5458 12.0004 16.5458C12.5295 16.5458 13.0295 16.4367 13.5023 16.2694L8.93863 8.66397Z" fill="#273637"/>
<path fill-rule="evenodd" clip-rule="evenodd" d="M12 22C17.5236 22 22 17.5236 22 12C22 6.47636 17.5236 2 12 2C6.47636 2 2 6.47636 2 12C2 17.5236 6.47636 22 12 22ZM5.63681 12.0003C5.63681 8.48579 8.4859 5.6367 12.0004 5.6367C15.515 5.6367 18.3641 8.48579 18.3641 12.0003C18.3641 15.5149 15.515 18.364 12.0004 18.364C8.4859 18.364 5.63681 15.5149 5.63681 12.0003Z" fill="#273637"/>
</svg>
