<?xml version="1.0" encoding="UTF-8"?>
<svg width="24px" height="24px" viewBox="0 0 24 24" version="1.1" xmlns="http://www.w3.org/2000/svg" xmlns:xlink="http://www.w3.org/1999/xlink">
    <title>Icons/Full Set/Snappable/O365/Sites</title>
    <defs>
        <filter id="filter-1">
            <feColorMatrix in="SourceGraphic" type="matrix" values="0 0 0 0 0.152941 0 0 0 0 0.211765 0 0 0 0 0.215686 0 0 0 1.000000 0"></feColorMatrix>
        </filter>
        <polygon id="path-2" points="0.0004 0 10 0 10 9.9998 0.0004 9.9998"></polygon>
    </defs>
    <g id="Icons/Full-Set/Snappable/O365/Sites" stroke="none" stroke-width="1" fill="none" fill-rule="evenodd">
        <path d="M20,7.3 C20.7529412,7.3 21.417301,7.9200692 21.4928557,8.65998372 L21.5,8.8 L21.5008689,12.5285648 C20.9237614,12.0118388 20.2460294,11.6051975 19.5006859,11.3416539 L19.5,9.3 L7.3,9.3 L7.3,11.6 L14.8839536,11.5988208 C14.1364985,11.961519 13.475669,12.4748035 12.9408985,13.099241 L7.3,13.1 L7.3,17.7 L11.5403497,17.6995832 C11.6230636,18.411872 11.8305264,19.0861137 12.1403187,19.6998887 L6.8,19.7 C6.04705882,19.7 5.38269896,19.0799308 5.30714431,18.3400163 L5.3,18.2 L5.3,8.8 C5.3,8.04705882 5.9200692,7.38269896 6.65998372,7.30714431 L6.8,7.3 L20,7.3 Z M16.7,4 C17.3,4 17.7,4.4 17.7,5 C17.7,5.55714286 17.2688776,5.94183673 16.8069606,5.99395044 L16.7,6 L4,6 L4,14.9 C4,15.5 3.6,15.9 3,15.9 C2.44285714,15.9 2.05816327,15.555102 2.00604956,15.0254373 L2,14.9 L2,5.5 C2,4.74705882 2.6200692,4.08269896 3.35998372,4.00714431 L3.5,4 L16.7,4 Z M8.5,10 C8.77614237,10 9,10.2238576 9,10.5 C9,10.7761424 8.77614237,11 8.5,11 C8.22385763,11 8,10.7761424 8,10.5 C8,10.2238576 8.22385763,10 8.5,10 Z M10,10 C10.2761424,10 10.5,10.2238576 10.5,10.5 C10.5,10.7761424 10.2761424,11 10,11 C9.72385763,11 9.5,10.7761424 9.5,10.5 C9.5,10.2238576 9.72385763,10 10,10 Z M11.5,10 C11.7761424,10 12,10.2238576 12,10.5 C12,10.7761424 11.7761424,11 11.5,11 C11.2238576,11 11,10.7761424 11,10.5 C11,10.2238576 11.2238576,10 11.5,10 Z" id="Combined-Shape" fill="#273637"></path>
        <g filter="url(#filter-1)" id="Group-3">
            <g transform="translate(12.500000, 12.000000)">
                <mask id="mask-3" fill="white">
                    <use xlink:href="#path-2"></use>
                </mask>
                <g id="Clip-2"></g>
                <path d="M7.1094,7.1998 L8.2214,7.1998 C7.7894,7.8338 7.1754,8.3328 6.4534,8.6218 C6.5664,8.4638 6.6704,8.2898 6.7624,8.1028 C6.8974,7.8298 7.0144,7.5288 7.1094,7.1998 L7.1094,7.1998 Z M5.2994,7.1998 L6.4784,7.1998 C6.4034,7.4308 6.3194,7.6438 6.2244,7.8348 C5.9564,8.3768 5.6324,8.7168 5.2994,8.8438 L5.2994,7.1998 Z M3.5224,7.1998 L4.7004,7.1998 L4.7004,8.8438 C4.3674,8.7168 4.0444,8.3768 3.7754,7.8348 C3.6804,7.6438 3.5964,7.4308 3.5224,7.1998 L3.5224,7.1998 Z M1.7784,7.1998 L2.8904,7.1998 C2.9854,7.5288 3.1024,7.8298 3.2374,8.1028 C3.3304,8.2898 3.4344,8.4638 3.5464,8.6218 C2.8244,8.3328 2.2114,7.8338 1.7784,7.1998 L1.7784,7.1998 Z M7.3934,5.2998 L8.8874,5.2998 C8.8524,5.7608 8.7394,6.1988 8.5594,6.5998 L7.2534,6.5998 C7.3324,6.1908 7.3794,5.7558 7.3934,5.2998 L7.3934,5.2998 Z M5.2994,5.2998 L6.7944,5.2998 C6.7774,5.7608 6.7224,6.1998 6.6374,6.5998 L5.2994,6.5998 L5.2994,5.2998 Z M3.2064,5.2998 L4.7004,5.2998 L4.7004,6.5998 L3.3624,6.5998 C3.2774,6.1998 3.2234,5.7608 3.2064,5.2998 L3.2064,5.2998 Z M1.1124,5.2998 L2.6064,5.2998 C2.6214,5.7558 2.6674,6.1908 2.7474,6.5998 L1.4404,6.5998 C1.2604,6.1988 1.1474,5.7608 1.1124,5.2998 L1.1124,5.2998 Z M7.2534,3.3998 L8.5564,3.3998 C8.7374,3.8018 8.8524,4.2398 8.8874,4.6998 L7.3934,4.6998 C7.3794,4.2448 7.3324,3.8088 7.2534,3.3998 L7.2534,3.3998 Z M5.2994,3.3998 L6.6374,3.3998 C6.7224,3.8018 6.7774,4.2398 6.7944,4.6998 L5.2994,4.6998 L5.2994,3.3998 Z M3.3624,3.3998 L4.7004,3.3998 L4.7004,4.6998 L3.2064,4.6998 C3.2234,4.2398 3.2774,3.8018 3.3624,3.3998 L3.3624,3.3998 Z M1.4434,3.3998 L2.7474,3.3998 C2.6674,3.8088 2.6214,4.2448 2.6064,4.6998 L1.1124,4.6998 C1.1474,4.2398 1.2634,3.8018 1.4434,3.3998 L1.4434,3.3998 Z M6.4534,1.3818 C7.1744,1.6708 7.7894,2.1668 8.2214,2.7998 L7.1064,2.7998 C7.0114,2.4728 6.8974,2.1688 6.7624,1.8968 C6.6704,1.7108 6.5664,1.5388 6.4534,1.3818 L6.4534,1.3818 Z M3.5464,1.3818 C3.4344,1.5388 3.3304,1.7108 3.2374,1.8968 C3.1024,2.1688 2.9884,2.4728 2.8934,2.7998 L1.7784,2.7998 C2.2104,2.1668 2.8254,1.6708 3.5464,1.3818 L3.5464,1.3818 Z M5.2994,1.1588 C5.6324,1.2858 5.9564,1.6198 6.2244,2.1628 C6.3194,2.3528 6.4034,2.5688 6.4784,2.7998 L5.2994,2.7998 L5.2994,1.1588 Z M4.7004,1.1588 L4.7004,2.7998 L3.5224,2.7998 C3.5964,2.5688 3.6804,2.3528 3.7754,2.1628 C4.0444,1.6198 4.3674,1.2858 4.7004,1.1588 L4.7004,1.1588 Z M5.0004,-0.0002 C2.2424,-0.0002 0.0004,2.2428 0.0004,4.9998 C0.0004,7.7578 2.2424,9.9998 5.0004,9.9998 C7.7574,9.9998 10.0004,7.7578 10.0004,4.9998 C10.0004,2.2428 7.7574,-0.0002 5.0004,-0.0002 L5.0004,-0.0002 Z" id="Fill-1" fill="#000000" mask="url(#mask-3)"></path>
            </g>
        </g>
    </g>
</svg>
