<?xml version="1.0" encoding="UTF-8"?>
<svg width="24px" height="24px" viewBox="0 0 24 24" version="1.1" xmlns="http://www.w3.org/2000/svg" xmlns:xlink="http://www.w3.org/1999/xlink">
    <title>Icons/Full Set/Snappable/Kubernetes/ Full Size View</title>
    <g id="Icons/Full-Set/Snappable/Kubernetes/-Full-Size-View" stroke="none" stroke-width="1" fill="none" fill-rule="evenodd">
        <path d="M11.4699096,3.49116351 C11.8051287,3.32961216 12.1948713,3.32961216 12.5300904,3.49116351 L12.5300904,3.49116351 L18.3671424,6.30114724 C18.7023615,6.46269858 18.9446885,6.76863644 19.0274836,7.13111728 L19.0274836,7.13111728 L20.4693293,13.4457555 C20.5521244,13.8082363 20.4652905,14.1888917 20.2330605,14.4796841 L20.2330605,14.4796841 L16.1942768,19.5443188 C15.9630565,19.8351113 15.6106726,20.0047402 15.2391045,20.0047402 L15.2391045,20.0047402 L8.76089551,20.0047402 C8.38932742,20.0047402 8.03694354,19.8351113 7.80572318,19.5443188 L7.80572318,19.5443188 L3.76693953,14.4796841 C3.53470947,14.1888917 3.44787562,13.8082363 3.53067068,13.4457555 L3.53067068,13.4457555 L4.97150675,7.13111728 C5.05430181,6.76863644 5.29763853,6.46269858 5.63285757,6.30114724 L5.63285757,6.30114724 Z M11.9848546,5.40655666 C11.8636911,5.40655666 11.7829154,5.44795419 11.7233433,5.51762321 C11.6728585,5.57820496 11.6425676,5.65898063 11.621364,5.74985327 L11.621364,5.74985327 L11.621364,5.77004719 L11.6011701,6.062859 C11.6112671,6.20522612 11.621364,6.34658355 11.6516549,6.46774706 C11.7324306,6.82013093 11.5920829,7.02307981 11.5304914,7.08366157 L11.5304914,7.08366157 L11.5304914,7.09274883 L11.5203944,7.29569771 L11.5173654,7.34416311 C10.3854962,7.46431693 9.37277123,7.97118428 8.62761565,8.75167922 L8.62761565,8.75167922 L8.5902569,8.72542712 L8.42567647,8.6072927 L8.4175989,8.60123453 C8.33278444,8.61133148 8.08641864,8.59517635 7.86024676,8.3114518 C7.78451956,8.2125016 7.68153058,8.11658049 7.57652221,8.02065938 C7.5038241,7.94998066 7.41900964,7.89444739 7.33520488,7.85405955 C7.32712731,7.84699168 7.31904975,7.8419432 7.31904975,7.8419432 C7.23524499,7.80054567 7.15345962,7.77429357 7.07470334,7.77530327 C6.98786949,7.77126448 6.89901625,7.8167008 6.83035693,7.90353465 C6.75563943,7.99844607 6.73645521,8.08628961 6.75362004,8.17817194 C6.76876547,8.25490883 6.8131921,8.32962632 6.87276415,8.40131473 L6.87276415,8.40131473 L6.88891929,8.41444078 L7.10398452,8.61234118 C7.22110924,8.69311685 7.33823397,8.77288283 7.45131991,8.82538702 C7.77745169,8.98188988 7.84813041,9.21815873 7.85721767,9.30398288 L7.85721767,9.30398288 L7.86529524,9.31004106 L8.01775932,9.44433061 L8.05915685,9.48269906 C7.6017646,10.2056413 7.32611762,11.0558053 7.32611762,11.9736189 C7.32611762,12.1886841 7.36145698,12.3946621 7.38972846,12.6026594 L7.38972846,12.6026594 L7.30895279,12.6268921 L7.11307178,12.6824254 L7.10297482,12.6844448 C7.05753949,12.7571429 6.89194838,12.9398979 6.53047724,12.9388882 C6.40527495,12.9368688 6.26492721,12.9580724 6.12558918,12.9802857 C6.02461959,12.9924021 5.92768878,13.0247123 5.84388402,13.0651002 C5.83479676,13.0671195 5.8246998,13.0691389 5.8246998,13.0691389 C5.74089504,13.1095268 5.66920663,13.1569825 5.62074122,13.2195836 C5.56318855,13.2842042 5.54299464,13.3821447 5.56823703,13.4901821 C5.59549882,13.6083166 5.65305149,13.6779856 5.73483686,13.7214025 C5.80551557,13.7567419 5.89033003,13.7688582 5.98423175,13.7678485 C5.99432871,13.7658291 6.00442567,13.7638097 6.00442567,13.7638097 L6.00442567,13.7638097 L6.2942084,13.7183734 C6.42849795,13.6769759 6.5648069,13.6355783 6.67688315,13.5790354 C7.00301493,13.4215228 7.23019651,13.5144148 7.30390431,13.5608608 L7.30390431,13.5608608 L7.31299157,13.5578318 L7.51291136,13.5235021 L7.60580339,13.5083567 C7.96828422,14.5422853 8.67507136,15.4055753 9.59793342,15.9649468 L9.59793342,15.9649468 L9.55956498,16.0618776 L9.4808087,16.2486714 C9.5040317,16.3385343 9.54441954,16.581871 9.31824766,16.8655956 C9.23848168,16.960507 9.16780296,17.0836899 9.09712425,17.2068728 C9.04462006,17.2937066 9.0102904,17.3886181 8.98908679,17.4794907 C8.985048,17.488578 8.97999952,17.4976652 8.97999952,17.4976652 C8.95879591,17.5885378 8.95071834,17.674362 8.96990257,17.7510989 C8.985048,17.836923 9.04966854,17.9126502 9.14962844,17.9601059 C9.2586756,18.0126101 9.34853853,18.0116004 9.43436269,17.9742417 C9.5050414,17.9419314 9.56865224,17.8813497 9.62519521,17.8086516 L9.62519521,17.8086516 L9.63428248,17.790477 L9.77967869,17.5360337 C9.83218287,17.4037635 9.88367737,17.2714933 9.90992946,17.1493201 C9.99070513,16.7959266 10.2057704,16.6757727 10.286546,16.6475013 L10.286546,16.6475013 L10.2905848,16.638414 L10.3865059,16.4607075 L10.4420392,16.3637767 C10.9327514,16.5384541 11.4537545,16.65154 12.0040388,16.65154 C12.5664394,16.65154 13.0975395,16.535425 13.5963292,16.3536797 L13.5963292,16.3536797 L13.6488334,16.4435427 L13.7457642,16.6212492 C13.8305787,16.6586079 14.0446342,16.7797714 14.1254099,17.1321553 C14.151662,17.2543285 14.2031565,17.3865987 14.2556607,17.5188688 C14.291,17.6137802 14.3424945,17.7006141 14.4010569,17.7733122 L14.4010569,17.7733122 L14.4101441,17.7914867 C14.4666871,17.8651945 14.5292883,17.9237569 14.6009767,17.9570769 C14.6767039,17.9994841 14.7766638,17.9954453 14.8776334,17.9479896 C14.9856708,17.8954854 15.0412041,17.823797 15.0654368,17.7339341 C15.084621,17.6571972 15.0765434,17.571373 15.0553398,17.4805004 C15.051301,17.4714131 15.0472623,17.4623259 15.0472623,17.4623259 L15.0472623,17.4623259 L14.9372054,17.189708 C14.8675364,17.0665251 14.7978674,16.9443519 14.7170917,16.8484307 C14.4909198,16.5647062 14.5313077,16.3213695 14.5585694,16.2405938 L14.5585694,16.2405938 L14.5545307,16.2315065 L14.4757744,16.0447128 L14.4374059,15.9487917 C15.3582486,15.3823523 16.0589776,14.5109847 16.4133808,13.4709979 L16.4133808,13.4709979 L16.4961759,13.484124 L16.695086,13.5194633 L16.705183,13.5224924 C16.7768714,13.4760464 17.0060723,13.3831544 17.3322041,13.5406669 C17.4442804,13.5972099 17.5785699,13.6386074 17.7148789,13.680005 C17.8118097,13.7123152 17.9117696,13.7244316 18.0046616,13.7254413 C18.0147586,13.7274607 18.0248555,13.7294801 18.0248555,13.7294801 C18.1177475,13.7304898 18.2035717,13.7183734 18.2732407,13.6830341 C18.3540164,13.6497141 18.4135884,13.5699481 18.4378211,13.4619107 C18.4640732,13.3437762 18.4438793,13.2559327 18.388346,13.1812152 C18.3398806,13.118614 18.2681922,13.0711583 18.1843875,13.0307705 C18.1742905,13.0287511 18.1641935,13.0267317 18.1641935,13.0267317 L18.1641935,13.0267317 L17.8834981,12.9419173 C17.74416,12.9197039 17.6038123,12.8985003 17.47861,12.9005197 C17.1151195,12.9015294 16.9505391,12.7187745 16.904093,12.6460764 L16.904093,12.6460764 L16.8950058,12.6430473 L16.7001345,12.5885237 L16.6213782,12.5653007 C16.6466206,12.36841 16.6819599,12.1765678 16.6819599,11.9736189 C16.6819599,11.0396502 16.3992451,10.1733311 15.9267074,9.44231122 L15.9267074,9.44231122 L15.958008,9.41303004 L16.1094624,9.27874048 L16.1175399,9.27268231 C16.1276369,9.18786785 16.1962962,8.95159901 16.5234377,8.79408644 C16.6375333,8.74259195 16.7536484,8.66282598 16.8707731,8.5820503 C16.9555875,8.52651703 17.0282856,8.45583831 17.086848,8.38314021 C17.0949256,8.37708203 17.1030031,8.37102386 17.1030031,8.37102386 C17.1615655,8.29832575 17.2049824,8.22461795 17.2221473,8.14687136 C17.2453703,8.0640763 17.2201279,7.96714549 17.1514685,7.88031164 C17.0747317,7.78540023 16.9929463,7.74804148 16.901064,7.7440027 C16.821298,7.742993 16.7395126,7.76924509 16.6557079,7.81064263 L16.6557079,7.81064263 L16.6405624,7.82376867 L16.3982354,7.9903685 C16.2942367,8.08628961 16.190238,8.18221072 16.1145108,8.28116092 C15.8893487,8.56488547 15.6419732,8.58003091 15.5571587,8.57094365 L15.5571587,8.57094365 L15.5500908,8.57700182 L15.3855104,8.69513625 L15.3511807,8.71835925 C14.5989573,7.94392249 13.5781547,7.4471521 12.4432565,7.34012433 L12.4432565,7.34012433 L12.4402274,7.29569771 L12.4301305,7.09274883 C12.368539,7.02307981 12.2281913,6.82013093 12.3089669,6.46774706 C12.3382481,6.34658355 12.3493548,6.20522612 12.358442,6.062859 C12.368539,5.9628991 12.358442,5.86192951 12.3382481,5.77004719 L12.3382481,5.77004719 L12.3382481,5.74985327 C12.3180542,5.65898063 12.2877633,5.57820496 12.2372785,5.51762321 C12.1878034,5.44795419 12.0969308,5.40655666 11.9848546,5.40655666 Z M11.8245149,13.9317222 C11.9123584,13.7782484 12.1334818,13.7782484 12.2203156,13.9317222 L12.2203156,13.9317222 L13.0371596,15.3695291 C12.7079988,15.4704987 12.3657119,15.5411774 12.0042407,15.5411774 C11.6538762,15.5411774 11.3216863,15.4745375 11.0016127,15.3796261 L11.0016127,15.3796261 Z M10.3859001,13.0704515 C10.5605775,13.0431898 10.6989058,13.2158478 10.6322659,13.3794185 L10.6322659,13.3794185 L10.0123126,14.9313211 C9.43476656,14.5415785 8.97838401,13.9862457 8.7087952,13.3349919 L8.7087952,13.3349919 Z M13.5850828,13.0331427 L13.6416646,13.0351122 L15.3096822,13.2976331 C15.0461516,13.9539355 14.5958272,14.5143167 14.0223199,14.9101175 L14.0223199,14.9101175 L13.3952988,13.3440791 C13.3306782,13.1805084 13.4669872,13.0078504 13.6416646,13.0351122 Z M12.3441044,11.2800588 L12.7742348,11.8182267 L12.620761,12.4896745 L11.9997981,12.7885444 L11.3798448,12.4896745 L11.226371,11.8182267 L11.6554918,11.2800588 L12.3441044,11.2800588 Z M8.89892094,10.2513806 L10.1620505,11.4084921 C10.2923013,11.5276362 10.2428262,11.7427014 10.074207,11.7941959 L10.074207,11.7941959 L8.46677109,12.2778403 C8.45869352,12.175861 8.43648021,12.0779205 8.43648021,11.9739218 C8.43648021,11.3458909 8.613177,10.7643061 8.89892094,10.2513806 L8.89892094,10.2513806 Z M15.0862365,10.2109927 C15.3861162,10.7330055 15.5719003,11.3297358 15.5719003,11.9739218 C15.5719003,12.0647944 15.5506966,12.1506186 15.5436288,12.2404815 L15.5436288,12.2404815 L13.9149893,11.7497693 C13.7463701,11.6992845 13.696895,11.4832096 13.8271457,11.3640655 L13.8271457,11.3640655 Z M11.4408304,8.46290619 L11.322696,10.1975638 C11.3105796,10.3732509 11.1116695,10.469172 10.9662733,10.3682024 L10.9662733,10.3682024 L9.55471844,9.39283612 C10.0646149,8.90818208 10.7158687,8.57902122 11.4408304,8.46290619 L11.4408304,8.46290619 Z M12.5183779,8.45725189 C13.2473783,8.56427965 13.9016613,8.88536296 14.4176159,9.36294912 L14.4176159,9.36294912 L12.992935,10.349422 C12.8475387,10.4493819 12.6486287,10.3534608 12.6355026,10.1777737 L12.6355026,10.1777737 Z" id="Combined-Shape" fill="#273637"></path>
    </g>
</svg>
