<?xml version="1.0" encoding="UTF-8"?>
<svg width="24px" height="24px" viewBox="0 0 24 24" version="1.1" xmlns="http://www.w3.org/2000/svg" xmlns:xlink="http://www.w3.org/1999/xlink">
    <title>Icons/Full Set/Snappable/Kubernetes/Minimized View</title>
    <g id="Icons/Full-Set/Snappable/Kubernetes/Minimized-View" stroke="none" stroke-width="1" fill="none" fill-rule="evenodd">
        <path d="M15.1314404,17.1436642 L14.1586593,14.7140612 C14.0568384,14.4602923 14.2714455,14.192425 14.5424457,14.2347198 L17.1286962,14.6420034 C16.7214126,15.6602122 16.0227647,16.5296059 15.1314404,17.1436642 L15.1314404,17.1436642 Z M12.0000565,18.1227112 C11.4564896,18.1227112 10.9411193,18.0193238 10.4461132,17.8720752 L11.7227904,15.6257498 C11.8575073,15.3876455 12.2005653,15.3876455 12.3368487,15.6257498 L13.6041271,17.8579769 C13.0934562,18.0130579 12.5608546,18.1227112 12.0000565,18.1227112 L12.0000565,18.1227112 Z M6.88864806,14.699963 L9.48899683,14.2895465 C9.75999703,14.2472516 9.97460413,14.5151189 9.87278324,14.7688879 L8.90940102,17.1765602 C8.01337723,16.5719008 7.30689693,15.7103394 6.88864806,14.699963 L6.88864806,14.699963 Z M6.46569977,12.5883544 C6.46569977,11.6140069 6.73983292,10.7117172 7.18314539,9.91594782 L9.14437229,11.7111283 C9.34644759,11.8959724 9.26969031,12.2296316 9.00808895,12.3095219 L6.51269402,13.0614299 C6.49859575,12.9016495 6.46569977,12.7497014 6.46569977,12.5883544 L6.46569977,12.5883544 Z M11.1259634,7.14172031 L10.9426858,9.83292463 C10.9238881,10.1054913 10.6152925,10.2543065 10.3912865,10.0976589 L8.19978777,8.58444393 C8.99085773,7.83253585 10.0028007,7.32186495 11.1259634,7.14172031 L11.1259634,7.14172031 Z M12.5279586,11.512186 L13.1952771,12.3471173 L12.9571728,13.3888232 L11.9937906,13.8524999 L11.0319749,13.3888232 L10.7923042,12.3471173 L11.4596226,11.512186 L12.5279586,11.512186 Z M15.7470651,8.53901615 L13.5336357,10.0678959 C13.3096297,10.2245434 13.0010341,10.0757283 12.9822364,9.80159513 L12.8005253,7.13388793 C13.9283874,7.2999343 14.9450298,7.7980734 15.7470651,8.53901615 L15.7470651,8.53901615 Z M17.5344132,12.5883544 C17.5344132,12.7293372 17.5046502,12.8624876 17.4936849,13.0019039 L14.9669605,12.240597 C14.7037926,12.1622732 14.6270354,11.8270475 14.8291106,11.6422034 L16.7840716,9.85328881 C17.2493148,10.6631565 17.5344132,11.5889433 17.5344132,12.5883544 L17.5344132,12.5883544 Z M21.9048789,14.4618587 C21.8296881,14.3647373 21.7184684,14.2911129 21.588451,14.2284539 C21.5727862,14.225321 21.5586879,14.222188 21.5586879,14.222188 L21.1216414,14.0906041 C20.9054678,14.0561417 20.6877277,14.0232457 20.4934848,14.0263786 C19.9311202,14.0279451 19.6742183,13.7444131 19.6037269,13.6316269 L19.5896287,13.6269275 L19.2857325,13.5423378 L19.1635474,13.5063089 C19.2042758,13.2008462 19.2575359,12.9016495 19.2575359,12.5883544 C19.2575359,11.1393649 18.8189229,9.79532923 18.0858125,8.66120121 L18.1359397,8.61577343 L18.3693445,8.40743224 L18.3818763,8.39803339 C18.3975411,8.26644947 18.5056278,7.89989429 19.0131658,7.65552416 C19.188611,7.57563393 19.3703221,7.45188239 19.5504668,7.32656438 C19.6836172,7.24040824 19.7964034,7.13075498 19.8872589,7.01796877 C19.8997907,7.00856992 19.9123225,6.99917107 19.9123225,6.99917107 C20.0016116,6.88638486 20.0705365,6.77203217 20.0956001,6.65141358 C20.1316291,6.52296262 20.0940337,6.37258101 19.9859469,6.23786414 C19.8684612,6.09061548 19.7415767,6.0326559 19.597461,6.02638999 C19.4737095,6.02482352 19.346825,6.06555187 19.2168076,6.12977736 L19.1933104,6.14857506 L18.8189229,6.40704346 C18.6575759,6.55742507 18.4946625,6.70624021 18.3771769,6.85975478 C18.0278529,7.2999343 17.6440665,7.32343143 17.5140491,7.30933315 L17.5015173,7.318732 L17.2461818,7.5020096 L17.1944881,7.53803852 C16.0258977,6.33655208 14.4437578,5.5658463 12.6814732,5.39979993 L12.6767738,5.32930855 L12.661109,5.01601352 L12.661109,5.00191524 C12.565554,4.90636026 12.347814,4.59306522 12.473132,4.04636539 C12.5201263,3.85838837 12.535791,3.63751538 12.5514558,3.41820885 C12.565554,3.26312781 12.5514558,3.1064803 12.5201263,2.96393106 L12.5201263,2.93260155 C12.4887968,2.79161879 12.440236,2.66630078 12.3619123,2.57231227 C12.285155,2.46265901 12.1441722,2.4 11.9702935,2.4 C11.7823165,2.4 11.6569984,2.46265901 11.5645764,2.57231227 C11.4862527,2.66630078 11.4392584,2.79161879 11.4079289,2.93260155 L11.4079289,2.96393106 L11.3765994,3.41820885 C11.3906977,3.63751538 11.4079289,3.85838837 11.4533567,4.04636539 C11.5786747,4.59306522 11.3609346,4.90636026 11.2653797,5.00191524 L11.2653797,5.01601352 L11.2497149,5.32930855 L11.246582,5.40606583 C9.48899683,5.5909099 7.91938872,6.37728043 6.76176357,7.5897322 L6.70380399,7.54900385 L6.44846854,7.36572626 L6.43593674,7.35632741 C6.30435283,7.37199216 5.92213289,7.34692855 5.57124245,6.90674903 C5.45375682,6.75323447 5.29397635,6.60441933 5.13106293,6.45560419 C5.01827672,6.34595093 4.88669281,6.25979479 4.75667537,6.19713579 C4.74414357,6.18617046 4.73161177,6.17833809 4.73161177,6.17833809 C4.60159433,6.1141126 4.47470984,6.07338425 4.35252478,6.07495072 C4.21780792,6.06868482 4.08152458,6.13917621 3.97343779,6.27389307 C3.85751863,6.42114174 3.8277556,6.55742507 3.85595215,6.69997431 C3.87944928,6.81902643 3.94837419,6.93494559 4.03922975,7.04616532 L4.06429335,7.0665295 L4.39795256,7.37355863 C4.58123015,7.49887665 4.7613748,7.62262818 4.93682001,7.70408489 C5.44435797,7.94688854 5.55244475,8.31344373 5.5681095,8.44659412 L5.57907483,8.45599297 L5.81561258,8.66276769 L5.88140454,8.72386022 C5.17022481,9.84545643 4.74257709,11.1644285 4.74257709,12.5883544 C4.74257709,12.9220136 4.79740372,13.2415746 4.8428315,13.5642685 L4.71594702,13.6018639 L4.41205084,13.6864535 L4.39638608,13.691153 C4.32746118,13.8039392 4.06899278,14.0874712 3.50819467,14.0859047 C3.31395175,14.0827717 3.0962117,14.1156677 2.88003813,14.1501302 C2.72339061,14.1689279 2.573009,14.2190551 2.44299156,14.2817141 C2.42889328,14.284847 2.41322853,14.28798 2.41322853,14.28798 C2.28321109,14.350639 2.17199136,14.4242633 2.09680055,14.5213848 C2.00751146,14.6216392 1.97774844,14.7735873 2.01691032,14.9412001 C2.05763867,15.1244777 2.14692775,15.2325645 2.27537872,15.2999229 C2.3834655,15.3547496 2.51661589,15.3735473 2.66073161,15.3719808 C2.67639636,15.3688478 2.69206111,15.3657149 2.69206111,15.3657149 L3.14163948,15.2952235 C3.34998068,15.230998 3.56145482,15.1667726 3.73533357,15.0790499 C4.24130504,14.8346798 4.59532843,14.9787955 4.70811464,15.0508534 L4.72221292,15.046154 L5.032375,14.9913273 L5.17805719,14.9693967 C5.7388553,16.5734672 6.83538791,17.9128035 8.26871268,18.7790643 L8.20762015,18.9310124 L8.08543508,19.2208103 L8.07916918,19.2349085 C8.12303049,19.3602266 8.18412302,19.7377471 7.83479906,20.1779266 C7.71104752,20.3251753 7.59982779,20.5162852 7.491741,20.7073952 C7.40871782,20.8421121 7.35545766,20.9893607 7.32256168,21.1303435 C7.31629578,21.1444418 7.30846341,21.15854 7.30846341,21.15854 C7.27556743,21.2995228 7.2646021,21.4326732 7.29279865,21.5501588 C7.31629578,21.6833092 7.41655019,21.8023613 7.57163123,21.8759857 C7.74081055,21.9574424 7.88179331,21.9558759 8.01337723,21.8979163 C8.12459696,21.8462226 8.22171842,21.7538006 8.31100751,21.6410144 C8.31727341,21.6269161 8.32353931,21.6128178 8.32353931,21.6128178 L8.55067821,21.2180661 C8.63213492,21.0128578 8.71202515,20.8076496 8.75118703,20.6181061 C8.87650504,20.0698398 9.21016425,19.8834293 9.33548226,19.839568 L9.34174816,19.8254697 L9.4905633,19.54977 L9.57828591,19.397822 C10.3380264,19.6703886 11.1463275,19.8458339 12.0000565,19.8458339 C12.8725832,19.8458339 13.6965491,19.6656892 14.4719543,19.3837237 L14.5518445,19.52314 L14.7022262,19.7988396 L14.7069256,19.8129379 C14.8338101,19.8567992 15.1659028,20.0447762 15.2927873,20.591476 C15.3319492,20.7810195 15.4134059,20.9862278 15.4932961,21.1898695 C15.5481227,21.3386847 15.6295795,21.4734015 15.7188685,21.5861878 C15.7267009,21.600286 15.7329668,21.6143843 15.7329668,21.6143843 C15.8206894,21.728737 15.9193774,21.8195926 16.0290306,21.8712862 C16.1480827,21.9370782 16.3015973,21.9308123 16.4582448,21.857188 C16.6274241,21.7757313 16.7135803,21.6645115 16.7496092,21.5250952 C16.7793722,21.4060431 16.7684069,21.2728927 16.7339444,21.13191 C16.729245,21.1178117 16.7214126,21.1037134 16.7214126,21.1037134 L16.5522333,20.6807651 C16.4425801,20.4896551 16.3344933,20.3001117 16.2091753,20.14973 C15.8598513,19.711117 15.9209438,19.3335965 15.9648051,19.2082785 L15.9569728,19.1941802 L15.8347877,18.9043823 L15.7752616,18.7555671 C17.2054535,17.8767746 18.2910208,16.5249065 18.8408535,14.9114371 L18.9693045,14.9318013 L19.2779001,14.9866279 L19.2935649,14.9897609 C19.4063511,14.9192695 19.7603745,14.7751538 20.2663459,15.0195239 C20.4402247,15.1072465 20.6501323,15.171472 20.86004,15.2356975 C21.0104216,15.2858247 21.1670691,15.3046224 21.3096184,15.3061888 C21.3252831,15.3093218 21.3409479,15.3124547 21.3409479,15.3124547 C21.4866301,15.3140212 21.618214,15.2952235 21.7278673,15.2403969 C21.8516188,15.1887032 21.9440408,15.0649517 21.9816362,14.8973388 C22.0239311,14.7140612 21.9910351,14.5777779 21.9048789,14.4618587 L21.9048789,14.4618587 Z" id="Fill-1" fill="#273637"></path>
    </g>
</svg>
