<?xml version="1.0" encoding="UTF-8"?>
<svg width="24px" height="24px" viewBox="0 0 24 24" version="1.1" xmlns="http://www.w3.org/2000/svg" xmlns:xlink="http://www.w3.org/1999/xlink">
    <title>Icons/Full Set/Infrastructure Cluster/Download</title>
    <g id="Icons/Full-Set/Infrastructure-Cluster/Download" stroke="none" stroke-width="1" fill="none" fill-rule="evenodd">
        <path d="M17,2 C18.1045695,2 19,2.8954305 19,4 L19,4 L19,7.999 L17,7.999 L17,4 L5,4 L5,8 L15.002,8 L15.002,10 L5,10 L5,14 L11.783,14 L11.783,16 L5,16 L5,20 L11.783,20 L11.783,22 L5,22 C3.9456382,22 3.08183488,21.1841222 3.00548574,20.1492623 L3,20 L3,4 C3,2.8954305 3.8954305,2 5,2 L5,2 Z M11.783,17 L11.783,19 L9.8,19 L9.8,17 L11.783,17 Z M7.19350288,17.062132 L7.90060967,17.7692388 C8.01776695,17.8863961 8.01776695,18.0763456 7.90060967,18.1935029 L7.19350288,18.9006097 C7.0763456,19.017767 6.8863961,19.017767 6.76923882,18.9006097 L6.06213203,18.1935029 C5.94497475,18.0763456 5.94497475,17.8863961 6.06213203,17.7692388 L6.76923882,17.062132 C6.8863961,16.9449747 7.0763456,16.9449747 7.19350288,17.062132 Z M11.783,11 L11.783,13 L9.8,13 L9.8,11 L11.783,11 Z M7.19350288,11.062132 L7.90060967,11.7692388 C8.01776695,11.8863961 8.01776695,12.0763456 7.90060967,12.1935029 L7.19350288,12.9006097 C7.0763456,13.017767 6.8863961,13.017767 6.76923882,12.9006097 L6.06213203,12.1935029 C5.94497475,12.0763456 5.94497475,11.8863961 6.06213203,11.7692388 L6.76923882,11.062132 C6.8863961,10.9449747 7.0763456,10.9449747 7.19350288,11.062132 Z M14.9901393,5 L14.9901393,7 L9.8,7 L9.8,5 L14.9901393,5 Z M7.19350288,5.06213203 L7.90060967,5.76923882 C8.01776695,5.8863961 8.01776695,6.0763456 7.90060967,6.19350288 L7.19350288,6.90060967 C7.0763456,7.01776695 6.8863961,7.01776695 6.76923882,6.90060967 L6.06213203,6.19350288 C5.94497475,6.0763456 5.94497475,5.8863961 6.06213203,5.76923882 L6.76923882,5.06213203 C6.8863961,4.94497475 7.0763456,4.94497475 7.19350288,5.06213203 Z" id="Combined-Shape" fill="#273637"></path>
        <path d="M21.177078,20 C21.6315653,20 22,20.4477153 22,21 C22,21.5522847 21.6315653,22 21.177078,22 L14.822922,22 C14.3684347,22 14,21.5522847 14,21 C14,20.4477153 14.3684347,20 14.822922,20 L21.177078,20 Z M18,9.62205281 C18.6,9.62205281 19,10.0220528 19,10.6220528 L19,10.6220528 L18.9885438,15.1 L20.9072937,13.3789974 C21.3072937,12.9789974 21.9072937,12.9789974 22.3072937,13.3789974 C22.7072937,13.7789974 22.7072937,14.3789974 22.3072937,14.7789974 L22.3072937,14.7789974 L18.8885438,18 C18.5885438,18.3 18.2885438,18.4 17.9885438,18.4 C17.5885438,18.4 17.2885438,18.2 17.0885438,18 L17.0885438,18 L13.6273283,14.6981465 C13.2273283,14.2981465 13.2947744,13.6534834 13.7273283,13.2981465 C14.2162971,12.8162436 14.9273283,13.0981465 15.1273283,13.2981465 L15.1273283,13.2981465 L16.9885438,15 L17,10.6220528 C17,10.0220528 17.4,9.62205281 18,9.62205281 Z" id="Combined-Shape" fill="#273637"></path>
    </g>
</svg>
