<svg width="24" height="24" viewBox="0 0 24 24" fill="none" xmlns="http://www.w3.org/2000/svg">
<path fill-rule="evenodd" clip-rule="evenodd" d="M16.5 2C17.6 2 18.5 2.9 18.5 4V13H16.5V10H4.5V14H9.1V16H4.5V20H9.1V22H4.5C3.4 22 2.5 21.1 2.5 20V4C2.5 2.9 3.4 2 4.5 2H16.5ZM6.7 17.1L7.4 17.8C7.5 17.9 7.5 18.1 7.4 18.2L6.7 18.9C6.6 19 6.4 19 6.3 18.9L5.6 18.2C5.5 18.1 5.5 17.9 5.6 17.8L6.3 17.1C6.4 16.9 6.6 16.9 6.7 17.1ZM14.5 11V13H9.5V11H14.5ZM6.7 11.1L7.4 11.8C7.5 11.9 7.5 12.1 7.4 12.2L6.7 12.9C6.6 13 6.4 13 6.3 12.9L5.6 12.2C5.5 12.1 5.5 11.9 5.6 11.8L6.3 11.1C6.4 10.9 6.6 10.9 6.7 11.1ZM16.5 4H4.5V8H16.5V4ZM14.5 5V7H9.5V5H14.5ZM6.7 5.1L7.4 5.8C7.5 5.9 7.5 6.1 7.4 6.2L6.7 6.9C6.6 7 6.4 7 6.3 6.9L5.6 6.2C5.5 6.1 5.5 5.9 5.6 5.8L6.3 5.1C6.4 4.9 6.6 4.9 6.7 5.1Z" fill="#273637"/>
<path d="M10.2999 14H12.6999L17.0999 17.8C17.1999 17.9 17.1999 18 17.0999 18L12.6999 21.9H10.3999C10.2999 21.9 10.1999 21.7 10.2999 21.6L14.3999 18C14.4999 17.9 14.4999 17.8 14.3999 17.8L10.2999 14.2C10.0999 14.2 10.0999 14 10.2999 14Z" fill="#273637"/>
<path d="M21.3999 14.3L17.9999 17.3C17.8999 17.3 17.8999 17.3 17.7999 17.3L16.5999 16.3C16.4999 16.2 16.4999 16.1 16.5999 16.1L18.8999 14.1H21.2999C21.4999 14 21.5999 14.2 21.3999 14.3Z" fill="#273637"/>
<path d="M21.2999 22H18.8999L16.5999 20C16.4999 19.9 16.4999 19.8 16.5999 19.8L17.6999 18.8C17.7999 18.8 17.7999 18.7 17.8999 18.8L21.2999 21.8C21.4999 21.7 21.4999 22 21.2999 22Z" fill="#273637"/>
</svg>
