<svg width="24" height="24" fill="none" xmlns="http://www.w3.org/2000/svg">
  <path d="M8 7a1 1 0 100-2 1 1 0 000 2zm0 6a1 1 0 100-2 1 1 0 000 2zm0 6a1 1 0 100-2 1 1 0 000 2z" fill="#273637"/>
  <path d="M19.5 2h-15C3.7 2 3 2.6 3 3.5v17c0 .8.7 1.5 1.5 1.5h15c.8 0 1.5-.7 1.5-1.5v-17c0-.9-.7-1.5-1.5-1.5zM19 4v4H5V4h14zm0 6v4H5v-4h14zM5 20v-4h14v4H5z" fill="#273637"/>
  <path d="M12.2 7h4.5c.2 0 .3-.1.3-.2V5.3c0-.2-.1-.3-.3-.3h-4.5c-.1 0-.2.1-.2.3v1.5c0 .1.1.2.2.2zm0 6h4.5c.1 0 .2-.1.2-.2v-1.5c0-.1-.1-.2-.2-.2h-4.5c-.1 0-.2.1-.2.2v1.5c0 .1.1.2.2.2zm4.5 4h-4.5c-.1 0-.2.1-.2.2v1.5c0 .1.1.2.2.2h4.5c.1 0 .2-.1.2-.2v-1.5c.1-.1 0-.2-.2-.2z" fill="#273637"/>
</svg>
