<?xml version="1.0" encoding="UTF-8"?>
<svg width="24px" height="24px" viewBox="0 0 24 24" version="1.1" xmlns="http://www.w3.org/2000/svg" xmlns:xlink="http://www.w3.org/1999/xlink">
    <title>Icons/Full Set/Azure / Managed Disks/ Managed Disks Tab</title>
    <g id="Icons/Full-Set/Azure-/-Managed-Disks/-Managed-Disks-Tab" stroke="none" stroke-width="1" fill="none" fill-rule="evenodd">
        <path d="M2.6216,18.252 C2.9646,18.252 3.2426,18.532 3.2426,18.877 L3.2426,20.751 L5.1056,20.751 C5.4486,20.751 5.7266,21.031 5.7266,21.375 C5.7266,21.72 5.4486,22 5.1056,22 L2.6216,22 C2.2776,22 1.9996,21.72 1.9996,21.375 L1.9996,18.877 C1.9996,18.532 2.2776,18.252 2.6216,18.252 Z M21.3789,18.252 C21.7219,18.252 21.9999,18.532 21.9999,18.877 L21.9999,21.375 C21.9999,21.72 21.7219,22 21.3789,22 L18.8949,22 C18.5509,22 18.2729,21.72 18.2729,21.375 C18.2729,21.031 18.5509,20.751 18.8949,20.751 L20.7579,20.751 L20.7579,18.877 C20.7579,18.532 21.0359,18.252 21.3789,18.252 Z M11.9997,4.2834 C15.7247,4.2834 19.4997,5.5254 19.4997,7.8914 L19.4997,7.8914 L19.4997,9.3754 C19.4997,10.4164 18.7747,11.2414 17.6497,11.8334 C17.5347,11.8934 17.4097,11.9474 17.2877,12.0024 C17.4097,12.0594 17.5347,12.1134 17.6497,12.1754 C18.7747,12.7584 19.4997,13.5834 19.4997,14.6254 L19.4997,14.6254 L19.4997,16.1084 C19.4997,18.4754 15.7247,19.7164 11.9997,19.7164 C8.2747,19.7164 4.4997,18.4754 4.4997,16.1084 L4.4997,16.1084 L4.4997,14.6254 C4.4997,13.5834 5.2247,12.7584 6.3497,12.1754 C6.4647,12.1134 6.5897,12.0594 6.7127,12.0024 C6.5897,11.9474 6.4647,11.8934 6.3497,11.8334 C5.2247,11.2414 4.4997,10.4164 4.4997,9.3754 L4.4997,9.3754 L4.4997,7.8914 C4.4997,5.5254 8.2747,4.2834 11.9997,4.2834 Z M17.8337,15.1974 C16.7917,16.2204 14.3357,16.7634 11.9887,16.7634 C9.6597,16.7634 7.2217,16.2294 6.1667,15.2224 L6.1667,15.2224 L6.1667,16.1084 C6.1667,16.7664 8.2247,18.0504 11.9997,18.0504 C15.7747,18.0504 17.8337,16.7664 17.8337,16.1084 L17.8337,16.1084 Z M7.9997,12.4644 C6.8007,12.8584 6.0427,13.4324 6.0417,14.0944 C6.0427,14.2514 6.0837,14.4094 6.1747,14.5584 C6.1737,14.5614 6.1747,14.5624 6.1737,14.5654 C6.7457,15.5834 9.1307,16.3464 11.9887,16.3464 C14.8727,16.3464 17.2757,15.5694 17.8187,14.5374 L17.8187,14.5374 L17.8167,14.5254 C17.8587,14.4544 17.8877,14.3834 17.9057,14.3114 L17.9057,14.3114 C17.9247,14.2344 17.9337,14.1644 17.9337,14.0914 C17.9337,13.9364 17.8917,13.7864 17.8127,13.6414 C17.5547,13.1724 16.8907,12.7714 15.9797,12.4714 C15.6967,12.5494 15.4087,12.6224 15.1087,12.6834 C14.1247,12.8834 13.0587,12.9834 11.9997,12.9834 C10.9417,12.9834 9.8747,12.8834 8.8917,12.6834 C8.5847,12.6214 8.2887,12.5464 7.9997,12.4644 Z M11.9885,13.4697 C13.3695,13.4697 14.4885,13.7497 14.4885,14.0947 C14.4885,14.4397 13.3695,14.7197 11.9885,14.7197 C10.6075,14.7197 9.4885,14.4397 9.4885,14.0947 C9.4885,13.7497 10.6075,13.4697 11.9885,13.4697 Z M17.8337,8.4694 C16.7917,9.4924 14.3357,10.0354 11.9887,10.0354 C9.6597,10.0354 7.2217,9.5014 6.1667,8.4944 L6.1667,8.4944 L6.1667,9.3754 C6.1667,9.8164 7.1087,10.5504 8.8917,10.9754 C9.7337,11.1834 10.7747,11.3164 11.9997,11.3164 C13.2247,11.3164 14.2667,11.1834 15.1087,10.9754 C16.8917,10.5504 17.8337,9.8164 17.8337,9.3754 L17.8337,9.3754 Z M11.9887,5.1844 C10.9627,5.1844 9.9977,5.2764 9.1547,5.4404 C7.4967,5.7634 6.3187,6.3674 6.0867,7.1024 C6.0597,7.1884 6.0417,7.2764 6.0417,7.3664 C6.0417,7.3954 6.0507,7.4234 6.0537,7.4514 C6.0577,7.5004 6.0597,7.5494 6.0737,7.5984 C6.0767,7.6114 6.0847,7.6244 6.0887,7.6374 C6.1107,7.7034 6.1357,7.7694 6.1747,7.8334 L6.1747,7.8334 C6.7467,8.8554 9.1307,9.6184 11.9887,9.6184 C14.8717,9.6184 17.2747,8.8414 17.8187,7.8104 L17.8187,7.8104 L17.8167,7.8004 C17.8917,7.6584 17.9337,7.5164 17.9337,7.3664 C17.9337,6.7264 17.2217,6.1664 16.0857,5.7744 C15.0197,5.4054 13.5787,5.1844 11.9887,5.1844 Z M11.9885,6.7416 C13.3695,6.7416 14.4885,7.0216 14.4885,7.3666 C14.4885,7.7116 13.3695,7.9916 11.9885,7.9916 C10.6075,7.9916 9.4885,7.7116 9.4885,7.3666 C9.4885,7.0216 10.6075,6.7416 11.9885,6.7416 Z M5.1051,1.9998 C5.4491,1.9998 5.7271,2.2798 5.7271,2.6248 C5.7271,2.9688 5.4491,3.2488 5.1051,3.2488 L3.2421,3.2488 L3.2421,5.1228 C3.2421,5.4678 2.9641,5.7478 2.6211,5.7478 C2.2781,5.7478 2.0001,5.4678 2.0001,5.1228 L2.0001,2.6248 C2.0001,2.2798 2.2781,1.9998 2.6211,1.9998 L5.1051,1.9998 Z M21.3789,1.9998 C21.7219,1.9998 21.9999,2.2798 21.9999,2.6248 L21.9999,5.1228 C21.9999,5.4678 21.7219,5.7478 21.3789,5.7478 C21.0359,5.7478 20.7579,5.4678 20.7579,5.1228 L20.7579,3.2488 L18.8949,3.2488 C18.5509,3.2488 18.2729,2.9688 18.2729,2.6248 C18.2729,2.2798 18.5509,1.9998 18.8949,1.9998 L21.3789,1.9998 Z" id="Combined-Shape" fill="#273637"></path>
    </g>
</svg>