<?xml version="1.0" encoding="UTF-8"?>
<svg width="24px" height="24px" viewBox="0 0 24 24" version="1.1" xmlns="http://www.w3.org/2000/svg" xmlns:xlink="http://www.w3.org/1999/xlink">
    <title>Icons/Full Set/Azure / Resource Groups</title>
    <g id="Icons/Full-Set/Azure-/-Resource-Groups" stroke="none" stroke-width="1" fill="none" fill-rule="evenodd">
        <path d="M5.5616,4.0912 C5.8566,3.9122 6.2416,4.0052 6.4206,4.3002 C6.6006,4.5942 6.5076,4.9792 6.2126,5.1592 L6.2126,5.1592 L3.2496,6.9642 L3.2496,17.0352 L6.2126,18.8412 C6.5076,19.0212 6.6006,19.4052 6.4206,19.7002 C6.2416,19.9952 5.8566,20.0882 5.5616,19.9082 L5.5616,19.9082 L2.2996,17.9202 C2.2586,17.8952 2.2306,17.8582 2.1976,17.8252 C2.1906,17.8192 2.1836,17.8132 2.1766,17.8062 C2.1316,17.7582 2.0976,17.7062 2.0706,17.6492 C2.0606,17.6292 2.0516,17.6112 2.0436,17.5912 C2.0266,17.5422 2.0186,17.4922 2.0136,17.4412 C2.0106,17.4182 1.9996,17.3982 1.9996,17.3742 L1.9996,17.3742 L1.9996,6.6252 C1.9996,6.6012 2.0106,6.5812 2.0136,6.5582 C2.0186,6.5072 2.0266,6.4582 2.0436,6.4102 C2.0516,6.3882 2.0616,6.3682 2.0716,6.3482 C2.0986,6.2922 2.1316,6.2422 2.1746,6.1952 C2.1836,6.1862 2.1926,6.1792 2.2016,6.1712 C2.2336,6.1392 2.2596,6.1042 2.2996,6.0792 L2.2996,6.0792 Z M17.5786,4.2994 C17.7586,4.0054 18.1436,3.9114 18.4376,4.0914 L18.4376,4.0914 L21.7006,6.0794 C21.7396,6.1044 21.7666,6.1394 21.7986,6.1704 C21.8076,6.1794 21.8166,6.1864 21.8246,6.1954 C21.8686,6.2424 21.9016,6.2924 21.9286,6.3484 C21.9386,6.3684 21.9486,6.3884 21.9566,6.4094 C21.9736,6.4584 21.9816,6.5074 21.9866,6.5584 C21.9896,6.5814 21.9996,6.6014 21.9996,6.6254 L21.9996,6.6254 L21.9996,17.3744 C21.9996,17.3974 21.9896,17.4174 21.9866,17.4404 C21.9816,17.4924 21.9736,17.5414 21.9566,17.5914 C21.9486,17.6114 21.9396,17.6294 21.9296,17.6484 C21.9026,17.7064 21.8686,17.7584 21.8236,17.8064 C21.8166,17.8134 21.8096,17.8194 21.8026,17.8254 C21.7696,17.8584 21.7416,17.8954 21.7006,17.9204 L21.7006,17.9204 L18.4376,19.9084 C18.1436,20.0884 17.7586,19.9954 17.5786,19.7004 C17.3996,19.4054 17.4926,19.0204 17.7876,18.8414 L17.7876,18.8414 L20.7496,17.0354 L20.7496,6.9644 L17.7876,5.1584 C17.4926,4.9794 17.3996,4.5944 17.5786,4.2994 Z M5.6759,9.2505 L10.8299,12.1065 C10.9889,12.1945 11.0879,12.3625 11.0879,12.5435 L11.0879,18.8215 C11.0879,19.0125 10.8839,19.1325 10.7169,19.0405 L5.5619,16.1845 C5.4029,16.0965 5.3049,15.9285 5.3049,15.7475 L5.3049,9.4695 C5.3049,9.2785 5.5089,9.1585 5.6759,9.2505 Z M18.2811,9.2505 C18.4481,9.1585 18.6521,9.2785 18.6521,9.4695 L18.6521,9.4695 L18.6521,15.7475 C18.6521,15.9285 18.5541,16.0965 18.3951,16.1845 L18.3951,16.1845 L13.2401,19.0405 C13.0731,19.1325 12.8691,19.0125 12.8691,18.8215 L12.8691,18.8215 L12.8691,12.5435 C12.8691,12.3625 12.9681,12.1945 13.1271,12.1065 L13.1271,12.1065 Z M12.2462,4.1394 L17.6422,7.1984 C17.8112,7.2944 17.8112,7.5374 17.6422,7.6334 L12.2462,10.6924 C12.0932,10.7784 11.9062,10.7784 11.7532,10.6924 L6.3582,7.6334 C6.1892,7.5374 6.1892,7.2944 6.3582,7.1984 L11.7532,4.1394 C11.9062,4.0534 12.0932,4.0534 12.2462,4.1394 Z" id="Combined-Shape" fill="#273637"></path>
    </g>
</svg>