<?xml version="1.0" encoding="UTF-8"?>
<svg width="24px" height="24px" viewBox="0 0 24 24" version="1.1" xmlns="http://www.w3.org/2000/svg" xmlns:xlink="http://www.w3.org/1999/xlink">
    <g stroke="none" stroke-width="1" fill="none" fill-rule="evenodd">
      <path d="M18.4 5.6C16.7 3.9 14.4 3 12 3c-5 0-9 4-9 9s4 9 9 9 9-4 9-9c0-2.4-.9-4.7-2.6-6.4zm-1.3 11.5c-1.4 1.4-3.2 2.1-5.1 2.1-4 0-7.2-3.2-7.2-7.2S8 4.8 12 4.8 19.2 8 19.2 12c0 1.9-.8 3.7-2.1 5.1z" fill="#273637" />
      <path d="M12 7.1c-.5 0-.9.4-.9.9v5.4c0 .5.4.9.9.9s.9-.4.9-.9V8c0-.5-.4-.9-.9-.9zM12 15.2c-.5 0-.9.4-.9.9s.4.9.9.9.9-.4.9-.9-.4-.9-.9-.9z" fill="#273637" />
    </g>
</svg>
