<?xml version="1.0" encoding="UTF-8"?>
<svg width="24px" height="24px" viewBox="0 0 24 24" version="1.1" xmlns="http://www.w3.org/2000/svg" xmlns:xlink="http://www.w3.org/1999/xlink">
    <g stroke="none" stroke-width="1" fill="none" fill-rule="evenodd">
      <path d="M21 7.5h-7.3l2.2-2.2c.4-.4.4-1 0-1.4s-1-.4-1.4 0l-3.7 3.7c-.5.5-.5 1.3 0 1.7l3.7 3.7c.2.2.5.3.7.3s.5-.1.7-.3c.4-.4.4-1 0-1.4l-2.2-2.2H21c.6 0 1-.4 1-1s-.5-.9-1-.9zM9.5 10.9c-.4-.4-1-.4-1.4 0-.4.4-.4 1 0 1.4l2.2 2.2H3c-.6 0-1 .4-1 1s.4 1 1 1h7.3l-2.2 2.2c-.4.4-.4 1 0 1.4.2.2.5.3.7.3s.5-.1.7-.3l3.7-3.7c.2-.2.4-.5.4-.9s-.1-.6-.4-.9l-3.7-3.7z" fill="#273637" />
    </g>
</svg>
