<?xml version="1.0" encoding="UTF-8"?>
<svg width="24px" height="24px" viewBox="0 0 24 24" version="1.1" xmlns="http://www.w3.org/2000/svg" xmlns:xlink="http://www.w3.org/1999/xlink">
    <title>Icons/Full Set/Arrow/Down</title>
    <g id="Icons/Full-Set/Arrow/Down" stroke="none" stroke-width="1" fill="none" fill-rule="evenodd">
        <path d="M7.7,14.8 L11.6,18.7 C11.8,18.9 12.1,19.1 12.5,19.1 C12.8,19.1 13.1,19 13.4,18.7 L17.2,14.9 C17.6,14.5 17.6,13.9 17.2,13.5 C16.8,13.1 16.2,13.1 15.8,13.5 L13.5,15.8 L13.5,6 C13.5,5.4 13.1,5 12.5,5 C11.9,5 11.5,5.4 11.5,6 L11.5,15.7 L9.2,13.4 C9,13.2 8.7,13.1 8.5,13.1 C8.3,13.1 8,13.2 7.8,13.4 C7.3,13.7 7.3,14.4 7.7,14.8 Z" id="Path" fill="#273637"></path>
    </g>
</svg>
