<?xml version="1.0" encoding="UTF-8"?>
<svg width="24px" height="24px" viewBox="0 0 24 24" version="1.1" xmlns="http://www.w3.org/2000/svg" xmlns:xlink="http://www.w3.org/1999/xlink">
    <title>Icons/Full Set/Arrow/Up_and_Down</title>
    <g id="Icons/Full-Set/Arrow/Up_and_Down" stroke="none" stroke-width="1" fill="none" fill-rule="evenodd">
        <path d="M17,5 C17.6,5 18,5.4 18,6 L18,6 L18,16.7 L20.3,14.4 C20.7,14 21.3,14 21.7,14.4 C22.1,14.8 22.1,15.4 21.8,15.9 L21.8,15.9 L18,19.7 C17.7,20 17.4,20.1 17.1,20.1 C16.7,20.1 16.4,19.9 16.2,19.7 L16.2,19.7 L12.3,15.8 C11.9,15.4 11.9,14.8 12.3,14.4 C12.5,14.2 12.8,14.1 13,14.1 C13.2,14.1 13.5,14.2 13.7,14.4 L13.7,14.4 L16,16.7 L16,6 C16,5.4 16.4,5 17,5 Z M7,4 C7.3,4 7.6,4.1 7.9,4.4 L7.9,4.4 L11.8,8.2 C12.2,8.6 12.2,9.3 11.8,9.7 C11.6,9.9 11.4,10 11.1,10 C10.8,10 10.5,9.9 10.3,9.6 L10.3,9.6 L8,7.3 L8,18 C8,18.6 7.6,19 7,19 C6.4,19 6,18.6 6,18 L6,18 L6,7.3 L3.7,9.6 C3.3,10 2.7,10 2.3,9.6 C1.9,9.2 1.9,8.6 2.3,8.2 L2.3,8.2 L6.1,4.4 C6.4,4.1 6.7,4 7,4 Z" id="Combined-Shape" fill="#273637"></path>
    </g>
</svg>
