<?xml version="1.0" encoding="UTF-8"?><svg id="Layer_1" xmlns="http://www.w3.org/2000/svg" viewBox="0 0 53.01 46.11"><defs><style>.cls-1{fill:#20dda9;}.cls-1,.cls-2{fill-rule:evenodd;}.cls-2{fill:#ff6975;}</style></defs><path class="cls-1" d="M51.02,46.02h-2.01c-1.1,0-2-.9-2-2V24.07c0-1.1,.89-2,2-2h2.01c1.1,0,2,.9,2,2v19.96c0,1.1-.89,2-2,2Zm-19.02,0h-2.01c-1.1,0-2-.9-2-2V27.09c0-1.1,.89-2,2-2h2.01c1.1,0,2,.9,2,2v16.94c0,1.1-.89,2-2,2Zm-19,0h-2.01c-1.1,0-2-.9-2-2V17.07c0-1.1,.89-2,2-2h2.01c1.1,0,2,.89,2,2v26.96c0,1.1-.89,2-2,2Z"/><path class="cls-2" d="M42.02,46.11h-2.01c-1.1,0-2-.9-2-2V5.02c0-1.11,.89-2,2-2h2.01c1.1,0,2,.9,2,2V44.11c0,1.1-.89,2-2,2Zm-19.02,0h-2.01c-1.1,0-2-.9-2-2V12.02c0-1.1,.89-2,2-2h2.01c1.1,0,2,.9,2,2V44.11c0,1.1-.89,2-2,2Zm-19,0H2c-1.1,0-2-.9-2-2V2C0,.89,.89,0,2,0h2.01c1.1,0,2,.89,2,2V44.11c0,1.1-.89,2-2,2Z"/></svg>