<?xml version="1.0" encoding="UTF-8"?><svg id="Layer_1" xmlns="http://www.w3.org/2000/svg" viewBox="0 0 57.33 63.83"><defs><style>.cls-1{fill:#2fcaff;fill-rule:evenodd;}</style></defs><path class="cls-1" d="M56.76,31.3c-.29,1.37-1.43,2.19-2.87,2.19h-.57c-1.72-.27-2.58-1.91-2.29-3.28,.29-1.37,.29-2.73,.29-4.1,0-9.28-6.02-17.75-15.48-20.76-1.43-.55-2.29-2.18-1.72-3.55,.57-1.37,2.29-2.19,3.73-1.64,11.75,3.55,19.49,14.2,19.49,25.95,0,1.64,0,3.28-.57,5.19Zm-19.49-4.64c0,4.64-3.73,8.19-8.6,8.19s-8.6-3.55-8.6-8.19,3.73-8.19,8.6-8.19,8.6,3.55,8.6,8.19ZM20.93,5.36c-9.17,3.28-15.19,11.47-15.19,20.76,0,1.09,0,2.46,.29,3.55,.29,1.64-.86,3-2.29,3.28h-.57c-1.43,0-2.58-.82-2.87-2.18-.29-1.37-.29-3-.29-4.64C0,14.65,7.45,4.27,18.92,.17c1.43-.55,3.15,.27,3.73,1.64,.57,1.37-.29,3-1.72,3.55Zm-6.56,38.06l14.59,13.9,14.59-13.9c1.17-1.11,3.05-1.11,4.22,0,1.16,1.11,1.16,2.91,0,4.02l-16.34,15.56c-.67,.64-1.58,.9-2.46,.8-.88,.11-1.8-.15-2.48-.8l-16.33-15.56c-1.16-1.11-1.16-2.91,0-4.02,1.16-1.11,3.05-1.11,4.22,0Z"/></svg>