<?xml version="1.0" encoding="UTF-8"?><svg id="Layer_1" xmlns="http://www.w3.org/2000/svg" viewBox="0 0 61.38 43.14"><defs><style>.cls-1,.cls-2{fill:#2fcaff;}.cls-2{fill-rule:evenodd;}</style></defs><path class="cls-2" d="M3.58,43.14c-1.98,0-3.58-1.6-3.58-3.57s1.61-3.57,3.58-3.57,3.59,1.6,3.59,3.57-1.61,3.57-3.59,3.57Zm0-18c-1.98,0-3.58-1.6-3.58-3.57s1.61-3.57,3.58-3.57,3.59,1.6,3.59,3.57-1.61,3.57-3.59,3.57ZM3.58,7.14c-1.98,0-3.58-1.6-3.58-3.57S1.61,0,3.58,0s3.59,1.6,3.59,3.57-1.61,3.57-3.59,3.57Z"/><g><rect class="cls-1" x="12.44" y="35.79" width="48.94" height="6.91" rx="2.48" ry="2.48"/><rect class="cls-1" x="12.44" y="17.79" width="48.94" height="6.91" rx="2.48" ry="2.48"/><rect class="cls-1" x="12.44" y=".11" width="48.94" height="6.91" rx="2.48" ry="2.48"/></g></svg>