<?xml version="1.0" encoding="UTF-8"?><svg id="Layer_1" xmlns="http://www.w3.org/2000/svg" viewBox="0 0 64.85 64.85"><defs><style>.cls-1{fill:#21ddaa;fill-rule:evenodd;}</style></defs><path class="cls-1" d="M32.42,0c18.01,0,32.42,14.41,32.42,32.42s-14.41,32.42-32.42,32.42S0,50.44,0,32.42,14.41,0,32.42,0Zm0,5.37c-15.07,0-27.06,11.98-27.06,27.06s11.98,27.06,27.06,27.06,27.06-11.98,27.06-27.06S47.5,5.37,32.42,5.37Zm9.12,18.85c1.08-1.08,2.71-1.08,3.79,0s1.08,2.71,0,3.79l-13.56,14.3c-.54,.54-1.08,.81-1.9,.81l-.33-.02c-.64-.07-1.1-.33-1.56-.8l-6.66-6.79c-1.08-1.08-1.08-2.71,0-3.79,1.08-1.08,2.71-1.08,3.79,0l4.76,4.62,11.66-12.14Z"/></svg>