<svg width="24" height="24" viewBox="0 0 24 24" fill="none" xmlns="http://www.w3.org/2000/svg">
<path d="M10.64 19.45H7.9V10.86H9.16C9.79 10.8 10.23 10.32 10.23 9.66V7.1H18.2V13.5H20.1V6.38C20.03 5.72 19.46 5.1 18.71 5.1H9.36C8.91 5.16 8.48 5.44 8.3 5.8L6.1 9.6L6.04 9.73C5.96 9.92 5.9 10.14 5.9 10.3V20.19C5.97 20.92 6.55 21.45 7.3 21.45H10.65" fill="white"/>
<path d="M10.13 12.31C9.59 12.36 9.25 12.75 9.25 13.3C9.25 13.9 9.65 14.3 10.26 14.3H10.77C11.05 13.82 11.56 13.5 12.14 13.5H16.71C16.72 13.43 16.74 13.37 16.74 13.3C16.74 12.7 16.34 12.3 15.73 12.3H10.12L10.13 12.31Z" fill="white"/>
<path d="M6.33 6.4V4H16.02C16.55 3.94 16.89 3.56 16.89 3C16.89 2.4 16.49 2 15.89 2H5.27C4.92 2.05 4.57 2.24 4.3 2.6L2.1 6.4L2 6.7V17.63C2.06 18.16 2.44 18.5 3 18.5C3.6 18.5 4 18.1 4 17.5V7.6H5.35C5.9 7.53 6.33 7.05 6.33 6.4Z" fill="white"/>
<path d="M15.75 10.91H15.87C16.37 10.85 16.7 10.47 16.7 9.91C16.7 9.31 16.32 8.91 15.76 8.91H12.53C12.03 8.97 11.71 9.35 11.71 9.91C11.71 10.51 12.09 10.91 12.65 10.91H15.76H15.75Z" fill="white"/>
<path d="M10.34 17.77H10.55V15.77H10.21C9.67 15.83 9.33 16.21 9.33 16.77C9.33 17.37 9.73 17.77 10.34 17.77Z" fill="white"/>
<path d="M20.51 14.55H12.59C12.02 14.55 11.55 15.01 11.55 15.59V20.41C11.55 20.98 12.01 21.45 12.59 21.45H20.51C21.08 21.45 21.55 20.99 21.55 20.41V15.59C21.55 15.02 21.09 14.55 20.51 14.55ZM14.84 16.88H13.59V17.64H14.76V18.24H13.59V19.13H14.84V19.73H12.86V16.28H14.84V16.88ZM17.54 16.88H16.28V17.77H17.45V18.37H16.28V19.73H15.56V16.28H17.54V16.88ZM19.91 19.5C19.69 19.68 19.38 19.77 18.98 19.77C18.61 19.77 18.29 19.7 18 19.56V18.88C18.23 18.98 18.43 19.06 18.59 19.1C18.75 19.14 18.9 19.16 19.03 19.16C19.19 19.16 19.31 19.13 19.4 19.07C19.49 19.01 19.53 18.92 19.53 18.8C19.53 18.73 19.51 18.67 19.47 18.62C19.43 18.57 19.38 18.52 19.3 18.47C19.23 18.42 19.08 18.34 18.85 18.24C18.64 18.14 18.48 18.05 18.38 17.95C18.27 17.86 18.19 17.75 18.13 17.63C18.07 17.51 18.04 17.37 18.04 17.21C18.04 16.91 18.14 16.67 18.35 16.49C18.56 16.32 18.84 16.23 19.21 16.23C19.39 16.23 19.56 16.25 19.72 16.29C19.88 16.33 20.05 16.39 20.23 16.47L19.99 17.04C19.81 16.96 19.65 16.91 19.53 16.88C19.41 16.85 19.29 16.84 19.18 16.84C19.04 16.84 18.94 16.87 18.86 16.94C18.79 17 18.75 17.09 18.75 17.19C18.75 17.25 18.76 17.31 18.79 17.36C18.82 17.41 18.87 17.45 18.93 17.5C19 17.54 19.15 17.62 19.39 17.74C19.71 17.89 19.93 18.05 20.05 18.2C20.17 18.35 20.23 18.54 20.23 18.77C20.23 19.08 20.12 19.33 19.89 19.51L19.91 19.5Z" fill="white"/>
</svg>
