<svg width="24" height="24" viewBox="0 0 24 24" fill="none" xmlns="http://www.w3.org/2000/svg">
<path d="M6.33 6.4V4H16.02C16.55 3.94 16.89 3.56 16.89 3C16.89 2.4 16.49 2 15.89 2H5.27C4.92 2.05 4.57 2.24 4.3 2.6L2.1 6.4L2 6.7V17.63C2.06 18.16 2.44 18.5 3 18.5C3.6 18.5 4 18.1 4 17.5V7.6H5.35C5.9 7.53 6.33 7.05 6.33 6.4Z" fill="white"/>
<path d="M7.8999 19.45H11.2599V21.45H7.2999C6.5499 21.45 5.9699 20.92 5.8999 20.19V10.3C5.8999 10.14 5.9599 9.91998 6.0399 9.72998L6.0999 9.59998L8.2999 5.79998C8.4799 5.43998 8.9099 5.15998 9.3599 5.09998H18.7099C19.4599 5.09998 20.0299 5.71998 20.0999 6.37998V13.8H18.1999V7.09998H10.2299V9.65998C10.2299 10.32 9.7899 10.8 9.1599 10.86H7.8999V19.45Z" fill="white"/>
<path d="M15.87 10.91C16.37 10.85 16.7 10.47 16.7 9.90997C16.7 9.30997 16.32 8.90997 15.76 8.90997H12.53C12.03 8.96997 11.7 9.34997 11.7 9.90997C11.7 10.51 12.08 10.91 12.64 10.91H15.87Z" fill="white"/>
<path d="M9.25 13.3C9.25 12.75 9.59 12.36 10.13 12.31V12.3H15.74C16.35 12.3 16.75 12.7 16.75 13.3C16.75 13.49 16.7 13.66 16.62 13.8H11.26V14.3H10.26C9.65 14.3 9.25 13.9 9.25 13.3Z" fill="white"/>
<path d="M11.26 17.6H10.26C9.65 17.6 9.25 17.2 9.25 16.6C9.25 16.04 9.59 15.66 10.13 15.6H11.26V17.6Z" fill="white"/>
<path d="M21.1199 22.1V14.9H12.3799V22.1H15.7399V17.77H17.7599V22.1H21.1199Z" fill="white"/>
</svg>
