<?xml version="1.0" encoding="UTF-8"?>
<svg width="24px" height="24px" viewBox="0 0 24 24" version="1.1" xmlns="http://www.w3.org/2000/svg" xmlns:xlink="http://www.w3.org/1999/xlink">
    <title>Icons/Full Set/File/Sets/Regular Copy</title>
    <defs>
        <path d="M1.20874185,14.6 L2.57427215,14.6 C2.57527215,16.808 4.36627215,17.931 6.57527215,17.931 L8.7,17.931 L8.7,15.9 L6.57527215,15.9 L6.42627215,15.895 C5.63817565,15.895 4.57527215,15.7516617 4.57527215,14.567 L4.58027215,14.6 L6,14.6 L3.8209855,11.7213863 C3.72098621,11.589281 3.53282829,11.563254 3.40072302,11.6632533 C3.37796381,11.6804812 3.35777984,11.7008692 3.34078158,11.7238004 L1.20874185,14.6 L1.20874185,14.6 Z" id="path-1"></path>
    </defs>
    <g id="Icons/Full-Set/File/Sets/Regular-Copy" stroke="none" stroke-width="1" fill="none" fill-rule="evenodd">
        <path d="M20.5,5.1 C21.2529412,5.1 21.8287197,5.7200692 21.893853,6.37661307 L21.9,6.5 L21.9,20.6 C21.9,21.3529412 21.3685121,21.9287197 20.6390189,21.993853 L20.5,22 L8.1,22 C7.34705882,22 6.77128028,21.4685121 6.70614696,20.7390189 L6.7,20.6 L6.7,19.199 L8.7,19.199 L8.7,20 L20,20 L20,7.1 L11.8,7.1 L11.8,10 C11.8,10.65625 11.3605469,11.1367188 10.728833,11.1942139 L10.6,11.2 L8.7,11.2 L8.7,14.599 L6.7,14.599 L6.7,10.3 C6.7,10.14 6.764,9.916 6.8408,9.7304 L6.9,9.6 L9.1,5.8 C9.28181818,5.43636364 9.71157025,5.1553719 10.1638618,5.10728775 L10.3,5.1 L20.5,5.1 Z M17.6,16 C18.2,16 18.6,16.4 18.6,17 C18.6,17.5571429 18.255102,17.9418367 17.7254373,17.9939504 L17.6,18 L11,18 C10.4,18 10,17.6 10,17 C10,16.4428571 10.344898,16.0581633 10.8745627,16.0060496 L11,16 L17.6,16 Z M17.6,12.6 C18.2,12.6 18.6,13 18.6,13.6 C18.6,14.1571429 18.255102,14.5418367 17.7254373,14.5939504 L17.6,14.6 L11,14.6 C10.4,14.6 10,14.2 10,13.6 C10,13.0428571 10.344898,12.6581633 10.8745627,12.6060496 L11,12.6 L17.6,12.6 Z M17.6,9.2 C18.2,9.2 18.6,9.6 18.6,10.2 C18.6,10.7571429 18.255102,11.1418367 17.7254373,11.1939504 L17.6,11.2 L14.3,11.2 C13.7,11.2 13.3,10.8 13.3,10.2 C13.3,9.64285714 13.644898,9.25816327 14.1745627,9.20604956 L14.3,9.2 L17.6,9.2 Z M16,2 C16.6,2 17,2.4 17,3 C17,3.55714286 16.655102,3.94183673 16.1254373,3.99395044 L16,4 L7,4 L7,6.9 C7,7.55333333 6.56444444,8.03244444 6.01854815,8.09342222 L5.9,8.1 L2.1,8.1 L2.1,6.7 L2.2,6.4 L4.4,2.6 C4.66666667,2.24444444 5.01234568,2.04691358 5.36680384,2.00740741 L5.5,2 L16,2 Z" id="Combined-Shape" fill="#273637"></path>
        <mask id="mask-2" fill="white">
            <use xlink:href="#path-1"></use>
        </mask>
        <use id="Clip-2" fill="#273637" xlink:href="#path-1"></use>
    </g>
</svg>
