<?xml version="1.0" encoding="UTF-8"?>
<svg width="24px" height="24px" viewBox="0 0 24 24" version="1.1" xmlns="http://www.w3.org/2000/svg" xmlns:xlink="http://www.w3.org/1999/xlink">
    <g stroke="none" stroke-width="1" fill="none" fill-rule="evenodd">
      <path d="M20.5 5.1H10.3c-.5 0-1 .3-1.2.7L6.9 9.6c-.1.2-.2.5-.2.7v10.3c0 .8.6 1.4 1.4 1.4h12.4c.8 0 1.4-.6 1.4-1.4V6.5c0-.7-.6-1.4-1.4-1.4zM19.9 20H8.7v-8.8h1.9c.7 0 1.2-.5 1.2-1.2V7.1H20V20z" fill="#273637" />
      <path d="M7 6.9V4h9c.6 0 1-.4 1-1s-.4-1-1-1H5.5c-.4 0-.8.2-1.1.6L2.2 6.4l-.1.3v10.8c0 .6.4 1 1 1s1-.4 1-1V8.1h1.8c.6 0 1.1-.5 1.1-1.2zM14.3 11.2h3.3c.6 0 1-.4 1-1s-.4-1-1-1h-3.3c-.6 0-1 .4-1 1s.4 1 1 1zM17.6 12.6H11c-.6 0-1 .4-1 1s.4 1 1 1h6.6c.6 0 1-.4 1-1s-.4-1-1-1zM17.6 15.9H11c-.6 0-1 .4-1 1s.4 1 1 1h6.6c.6 0 1-.4 1-1s-.4-1-1-1z" fill="#273637" />
    </g>
</svg>
