<?xml version="1.0" encoding="UTF-8"?>
<svg width="24px" height="24px" viewBox="0 0 24 24" version="1.1" xmlns="http://www.w3.org/2000/svg" xmlns:xlink="http://www.w3.org/1999/xlink">
    <title>Icons/Full Set/File/Sets/Windows</title>
    <g id="Icons/Full-Set/File/Sets/Windows" stroke="none" stroke-width="1" fill="none" fill-rule="evenodd">
        <path d="M22.77,18.999 L22.7706,22.9708 L18.2,22.34 L18.199,18.999 L22.77,18.999 Z M17.199,18.999 L17.2,22.204 L14,21.7638 L14,19 L17.199,18.999 Z M18.8,5.1 C19.5529412,5.1 20.1287197,5.7200692 20.193853,6.37661307 L20.2,6.5 L20.199,12.786 L18.299,13.201 L18.3,7.1 L10.3329864,7.1 L10.3329864,9.65908989 C10.3329864,10.3153399 9.89353326,10.7958086 9.26181939,10.8533038 L9.13298638,10.8590899 L8,10.8590899 L8,19.4483623 L12.662,19.448 L12.662,21.448 L7.4,21.4483623 C6.64705882,21.4483623 6.07128028,20.9168744 6.00614696,20.1873812 L6,20.0483623 L6,10.3 C6,10.14 6.064,9.916 6.1408,9.7304 L6.2,9.6 L8.4,5.8 C8.58181818,5.43636364 9.01157025,5.1553719 9.46386176,5.10728775 L9.6,5.1 L18.8,5.1 Z M16,2 C16.6,2 17,2.4 17,3 C17,3.55714286 16.655102,3.94183673 16.1254373,3.99395044 L16,4 L6.43357847,4 L6.43357847,6.4 C6.43357847,7.05333333 5.99802292,7.53244444 5.45212662,7.59342222 L5.33357847,7.6 L4.1,7.6 L4.1,17.5 C4.1,18.1 3.7,18.5 3.1,18.5 C2.54285714,18.5 2.15816327,18.155102 2.10604956,17.6254373 L2.1,17.5 L2.1,6.7 L2.2,6.4 L4.4,2.6 C4.66666667,2.24444444 5.01234568,2.04691358 5.36680384,2.00740741 L5.5,2 L16,2 Z M17.2,14.965 L17.199,17.999 L14,18 L14,15.4069 L17.2,14.965 Z M22.7705,14.2 L22.77,17.999 L18.199,17.999 L18.2,14.829 L22.7705,14.2 Z M12.662,15.61 L12.662,17.61 L10.1623733,17.6105225 C9.67649293,17.6105225 9.34100408,17.2656246 9.29555608,16.7359598 L9.2902803,16.6105225 C9.2902803,16.0533797 9.59106341,15.6686858 10.0529803,15.6165721 L10.1623733,15.6105225 L12.662,15.61 Z M15.9181873,12.3105225 C16.4414431,12.3105225 16.7902803,12.7105225 16.7902803,13.3105225 C16.7902803,13.3890339 16.7843074,13.4641209 16.7727524,13.5353352 L13.216,14.31 L10.1623733,14.3105225 C9.67649293,14.3105225 9.34100408,13.9656246 9.29555608,13.4359598 L9.2902803,13.3105225 C9.2902803,12.7533797 9.59106341,12.3686858 10.0529803,12.3165721 L10.1623733,12.3105225 L15.9181873,12.3105225 Z M15.8468841,8.91052253 C16.4129218,8.91052253 16.7902803,9.31052253 16.7902803,9.91052253 C16.7902803,10.4676654 16.4649049,10.8523593 15.9652212,10.904473 L15.8468841,10.9105225 L12.7336765,10.9105225 C12.1676388,10.9105225 11.7902803,10.5105225 11.7902803,9.91052253 C11.7902803,9.35337967 12.1156557,8.96868579 12.6153394,8.91657209 L12.7336765,8.91052253 L15.8468841,8.91052253 Z" id="Combined-Shape" fill="#273637"></path>
    </g>
</svg>
