<svg width="24" height="24" fill="none" xmlns="http://www.w3.org/2000/svg">
  <path fill-rule="evenodd" clip-rule="evenodd" d="M9.899 2.903c-.199-.5-.8-.8-1.3-.6-4 1.5-6.599 5.3-6.599 9.5 0 .6 0 1.2.099 1.7.101.5.5.8 1 .8h.2l.111-.03c.449-.15.79-.62.689-1.17-.099-.4-.099-.9-.099-1.3 0-3.4 2.099-6.4 5.299-7.6.5-.2.8-.8.6-1.3zm5.301-.6c-.5-.2-1.101.1-1.301.6-.199.5.101 1.1.601 1.3 3.299 1.1 5.399 4.2 5.399 7.6 0 .5 0 1-.1 1.5-.099.5.201 1.1.8 1.2h.2l.13-.01c.441-.05.781-.34.87-.79.201-.7.201-1.3.201-1.9 0-4.3-2.701-8.2-6.8-9.5zm3.399 15.7c-.399-.4-1-.5-1.399-.1-1.401 1.2-3.301 1.9-5.2 1.9-1.901 0-3.8-.7-5.3-2-.401-.4-1-.3-1.401.1-.299.4-.299 1.1.1 1.4 1.801 1.6 4.2 2.5 6.601 2.5 2.399 0 4.7-.8 6.5-2.4.399-.4.5-1 .099-1.4z" fill="#273637"/>
  <path fill-rule="evenodd" clip-rule="evenodd" d="M12.1 6.521c3.1 0 5.5 2.5 5.5 5.5s-2.5 5.5-5.5 5.5-5.5-2.5-5.5-5.5 2.5-5.5 5.5-5.5zm-2.5 2.4c-.2-.2-.5-.2-.7 0-.2.2-.2.5 0 .7l2.4 2.4-2.4 2.4c-.2.2-.2.5 0 .7.1.1.2.1.4.1s.3 0 .4-.1l2.4-2.4 2.4 2.4c.1.1.2.1.4.1s.3 0 .4-.1c.2-.2.2-.5 0-.7l-2.6-2.4 2.4-2.4c.2-.2.2-.5 0-.7-.2-.2-.5-.2-.7 0l-2.4 2.4-2.4-2.4z" fill="#273637"/>
</svg>
