<svg width="24" height="24" fill="none" xmlns="http://www.w3.org/2000/svg">
  <path d="M9.3 4.2c.5-.2.8-.8.6-1.3-.2-.5-.8-.8-1.3-.6C4.6 3.8 2 7.6 2 11.8c0 .6 0 1.2.1 1.7s.5.8 1 .8h.2c.5-.1.9-.6.8-1.2-.1-.4-.1-.9-.1-1.3 0-3.4 2.1-6.4 5.3-7.6zM17.2 17.9c-1.4 1.2-3.3 1.9-5.2 1.9-1.9 0-3.8-.7-5.3-2-.4-.4-1-.3-1.4.1-.3.4-.3 1.1.1 1.4 1.8 1.6 4.2 2.5 6.6 2.5 2.4 0 4.7-.8 6.5-2.4.4-.4.5-1 .1-1.4-.4-.4-1-.5-1.4-.1zM15.2 2.3c-.5-.2-1.1.1-1.3.6s.1 1.1.6 1.3c3.3 1.1 5.4 4.2 5.4 7.6 0 .5 0 1-.1 1.5s.2 1.1.8 1.2h.2c.5 0 .9-.3 1-.8.2-.7.2-1.3.2-1.9 0-4.3-2.7-8.2-6.8-9.5z" fill="#273637"/>
  <path d="M9 12c0 1.7 1.3 3 3 3s3-1.3 3-3-1.3-3-3-3-3 1.3-3 3z" fill="#273637"/>
</svg>
