<svg width="24" height="24" fill="none" xmlns="http://www.w3.org/2000/svg">
  <path fill-rule="evenodd" clip-rule="evenodd" d="M9.9 2.9c-.2-.5-.8-.8-1.3-.6a10.1 10.1 0 00-6.5 11.2c.1.5.5.8 1 .8h.3c.5-.2.8-.6.7-1.2L4 11.8c0-3.4 2.1-6.4 5.3-7.6.5-.2.8-.8.6-1.3zm5.3-.6c-.5-.2-1.1.1-1.3.6-.2.5.1 1.1.6 1.3a8 8 0 015.4 7.6l-.1 1.5c-.1.5.2 1.1.8 1.2h.3c.5 0 .8-.3.9-.8.2-.7.2-1.3.2-1.9a10 10 0 00-6.8-9.5zM18.6 18c-.4-.4-1-.5-1.4-.1a8.1 8.1 0 01-10.5-.1c-.4-.4-1-.3-1.4.1-.3.4-.3 1.1.1 1.4a10 10 0 0013.1.1c.4-.4.5-1 .1-1.4z" fill="#273637"/>
  <path fill-rule="evenodd" clip-rule="evenodd" d="M12.1 6.5c-3 0-5.5 2.5-5.5 5.5s2.5 5.5 5.5 5.5 5.5-2.5 5.5-5.5-2.5-5.5-5.5-5.5zm-.5 2.8c0-.3.2-.5.5-.5s.5.2.5.5v2.8c0 .3-.2.5-.5.5s-.5-.2-.5-.4V9.3zm.5 6.1a.7.7 0 01-.7-.7c0-.4.3-.7.7-.7.4 0 .7.3.7.7-.1.4-.4.7-.7.7z" fill="#273637"/>
</svg>
