<?xml version="1.0" encoding="UTF-8"?>
<svg width="24px" height="24px" viewBox="0 0 24 24" version="1.1" xmlns="http://www.w3.org/2000/svg" xmlns:xlink="http://www.w3.org/1999/xlink">
    <g stroke="none" stroke-width="1" fill="none" fill-rule="evenodd">
      <path d="M19.1 10h-.6V8.5C18.5 4.9 15.6 2 12 2S5.5 4.9 5.5 8.5V10h-.6c-.6 0-1 .4-1 1v3c0 4.5 3.6 8.1 8.1 8.1s8.1-3.6 8.1-8.1v-3c0-.6-.4-1-1-1zM7.5 8.5C7.5 6 9.5 4 12 4s4.5 2 4.5 4.5V10h-9V8.5zm10.6 5.4c0 3.4-2.7 6.1-6.1 6.1-3.4 0-6.1-2.7-6.1-6.1v-2h12.2v2z" fill="#273637" />
      <path d="M12 13.2c-.8 0-1.5.7-1.5 1.5 0 .4.2.8.5 1.1v1.9c0 .6.4 1 1 1s1-.4 1-1v-1.9c.3-.3.5-.7.5-1.1 0-.8-.7-1.5-1.5-1.5z" fill="#273637" />
    </g>
</svg>
