<?xml version="1.0" encoding="UTF-8"?>
<svg width="24px" height="24px" viewBox="0 0 24 24" version="1.1" xmlns="http://www.w3.org/2000/svg" xmlns:xlink="http://www.w3.org/1999/xlink">
    <title>Icons/Full Set/Lock/Unlock</title>
    <g id="Icons/Full-Set/Lock/Unlock" stroke="none" stroke-width="1" fill="none" fill-rule="evenodd">
        <path d="M11.902,2.00169728 C13.629,1.96189768 15.28,2.62356599 16.526,3.82650882 C17.772,5.02945165 18.473,6.64332533 18.499,8.37062786 L18.499,8.37062786 L18.499,9.96062177 L19.1,9.96062177 C19.7,9.96062177 20.1,10.3586177 20.1,10.9556117 L20.1,10.9556117 L20.1,13.9405815 C20.1,18.4180362 16.5,22 12,22 L12,22 L11.751,21.99602 C7.368,21.8666713 3.9,18.3354521 3.9,13.9405815 L3.9,13.9405815 L3.9,10.9556117 C3.9,10.3586177 4.3,9.96062177 4.9,9.96062177 L4.9,9.96062177 L16.499,9.96062177 L16.499,8.3855527 C16.462,5.93190752 14.392,3.98471222 11.932,3.99068216 C9.992,4.01953687 8.295,5.27521416 7.709,7.11395557 C7.541,7.63732027 6.978,7.92686234 6.454,7.76069903 C5.927,7.59453571 5.636,7.03535136 5.803,6.51099167 C6.649,3.85635852 9.101,2.04348685 11.902,2.00169728 Z M18.1,11.8511027 L5.9,11.8511027 L5.9,13.8410825 C5.9,17.2240483 8.6,19.9105211 12,19.9105211 L12,19.9105211 L12.226,19.9065412 C15.519,19.7911223 18.1,17.1484291 18.1,13.8410825 L18.1,13.8410825 L18.1,11.8511027 Z M12,13.1445896 C12.8,13.1445896 13.5,13.8410825 13.5,14.6370745 C13.5,15.0350704 13.3,15.4330664 13,15.7315634 L13,15.7315634 L13,17.6220443 C13,18.2190382 12.6,18.6170342 12,18.6170342 L12,18.6170342 L11.875,18.6110643 C11.345,18.5593248 11,18.1762537 11,17.6220443 L11,17.6220443 L11,15.7315634 C10.7,15.4330664 10.5,15.0350704 10.5,14.6370745 C10.5,13.8410825 11.2,13.1445896 12,13.1445896 Z" id="Combined-Shape" fill="#273637"></path>
    </g>
</svg>