<svg width="25" height="25" viewBox="0 0 25 25" fill="none" xmlns="http://www.w3.org/2000/svg">
<path d="M15.96 5.83002C15.231 5.49967 14.4486 5.3032 13.65 5.25002C13.4155 5.22971 13.1956 5.12731 13.0292 4.96085C12.8627 4.7944 12.7603 4.57455 12.74 4.34002V4.27002C12.74 4.0048 12.8453 3.75045 13.0329 3.56291C13.2204 3.37538 13.4748 3.27002 13.74 3.27002C14.7737 3.33017 15.789 3.57044 16.74 3.98002C16.8692 4.03246 16.986 4.11134 17.0829 4.21159C17.1798 4.31183 17.2546 4.43124 17.3027 4.56213C17.3507 4.69303 17.3708 4.83252 17.3617 4.97165C17.3527 5.11078 17.3146 5.24647 17.25 5.37002V5.43002C17.1239 5.64587 16.9215 5.80666 16.6827 5.8807C16.4439 5.95474 16.1861 5.93666 15.96 5.83002Z" fill="#273637"/>
<path d="M8.88002 6.75999C8.68835 6.90286 8.45184 6.97233 8.21335 6.95582C7.97487 6.93931 7.75018 6.83791 7.58003 6.66999C7.48457 6.56961 7.41101 6.45049 7.36401 6.32018C7.31701 6.18987 7.29759 6.05122 7.30699 5.91302C7.3164 5.77481 7.35441 5.64007 7.41862 5.51733C7.48284 5.39459 7.57185 5.28653 7.68003 5.2C8.32921 4.68743 9.04596 4.2668 9.81003 3.95C9.93849 3.90353 10.0751 3.88388 10.2115 3.89226C10.3478 3.90064 10.481 3.93687 10.6028 3.99871C10.7246 4.06056 10.8325 4.1467 10.9197 4.25184C11.007 4.35697 11.0717 4.47886 11.11 4.61V4.66999C11.1614 4.89284 11.1348 5.12656 11.0347 5.33219C10.9346 5.53782 10.7671 5.70292 10.56 5.79999C9.95828 6.04068 9.39288 6.36377 8.88002 6.75999Z" fill="#273637"/>
<path d="M15.6238 20.1854C15.6404 20.0493 15.6289 19.9114 15.59 19.78C15.5231 19.5658 15.3862 19.3803 15.2012 19.2534C15.0162 19.1264 14.7939 19.0653 14.57 19.08C13.5757 19.2715 12.5517 19.2449 11.5686 19.0022C10.5856 18.7596 9.66687 18.3065 8.87592 17.6743C8.08496 17.0421 7.44057 16.2458 6.98721 15.3404C6.53385 14.435 6.28232 13.4421 6.24995 12.43H7.47995C7.59055 12.4305 7.69914 12.4004 7.79371 12.3431C7.88828 12.2857 7.96516 12.2034 8.01586 12.1051C8.06656 12.0068 8.08911 11.8964 8.08101 11.7861C8.0729 11.6758 8.03447 11.5698 7.96995 11.48L5.69995 8.36001C5.64522 8.2775 5.57092 8.20982 5.48368 8.163C5.39644 8.11618 5.29897 8.09167 5.19995 8.09167C5.10094 8.09167 5.00347 8.11618 4.91623 8.163C4.82898 8.20982 4.75468 8.2775 4.69995 8.36001L2.39995 11.46C2.32524 11.5498 2.27789 11.6592 2.26353 11.7752C2.24918 11.8911 2.26843 12.0087 2.31898 12.1141C2.36954 12.2194 2.44928 12.308 2.54873 12.3693C2.64817 12.4306 2.76314 12.4621 2.87995 12.46H4.24995C4.29078 14.8001 5.24971 17.0305 6.91995 18.67C7.95569 19.6707 9.21646 20.4083 10.5964 20.8207C11.9762 21.2331 13.435 21.3083 14.85 21.04C14.9837 21.01 15.1098 20.9529 15.2205 20.8722C15.3312 20.7914 15.4241 20.6888 15.4935 20.5707C15.5629 20.4525 15.6072 20.3214 15.6238 20.1854Z" fill="#273637"/>
<path fill-rule="evenodd" clip-rule="evenodd" d="M10.61 8.60999H16.17C16.4609 8.61259 16.7392 8.72932 16.9449 8.93505C17.1507 9.14078 17.2674 9.41905 17.27 9.70998V13C17.27 13.2917 17.1541 13.5715 16.9478 13.7778C16.7415 13.9841 16.4617 14.1 16.17 14.1H13.99V15.1H15.17C15.3185 15.1 15.461 15.159 15.566 15.264C15.671 15.369 15.73 15.5115 15.73 15.66V15.74C15.73 15.8885 15.671 16.0309 15.566 16.136C15.461 16.241 15.3185 16.3 15.17 16.3H11.61C11.4615 16.3 11.319 16.241 11.214 16.136C11.109 16.0309 11.05 15.8885 11.05 15.74V15.66C11.05 15.5115 11.109 15.369 11.214 15.264C11.319 15.159 11.4615 15.1 11.61 15.1H12.79V14.1H10.61C10.4656 14.1 10.3225 14.0715 10.1891 14.0163C10.0556 13.961 9.93434 13.8799 9.83219 13.7778C9.73005 13.6757 9.64902 13.5544 9.59374 13.4209C9.53846 13.2875 9.51001 13.1444 9.51001 13V9.70998C9.51262 9.41905 9.62935 9.14078 9.83508 8.93505C10.0408 8.72932 10.3191 8.61259 10.61 8.60999ZM10.71 12.9H16.07V9.80999H10.71V12.9Z" fill="#273637"/>
<path d="M20.4758 11.6166C20.6578 11.7549 20.8816 11.8267 21.11 11.8201L21.08 11.7801C21.2146 11.7666 21.3449 11.726 21.4633 11.6608C21.5817 11.5955 21.6856 11.5069 21.7688 11.4004C21.852 11.2938 21.9127 11.1715 21.9473 11.0408C21.9819 10.9102 21.9896 10.7738 21.97 10.6401C21.6386 9.08017 20.9315 7.62473 19.91 6.40006C19.8164 6.29855 19.7027 6.21754 19.5762 6.16214C19.4497 6.10673 19.3131 6.07812 19.175 6.07812C19.0369 6.07812 18.9003 6.10673 18.7738 6.16214C18.6473 6.21754 18.5337 6.29855 18.44 6.40006V6.45006C18.2923 6.62088 18.2109 6.83919 18.2109 7.06506C18.2109 7.29092 18.2923 7.50924 18.44 7.68006C19.26 8.65631 19.8328 9.81566 20.11 11.0601C20.1648 11.2819 20.2939 11.4784 20.4758 11.6166Z" fill="#273637"/>
<path d="M18.1655 19.679C18.2964 19.6509 18.4203 19.5968 18.53 19.52C18.8262 19.3099 19.11 19.0829 19.38 18.84C20.5723 17.7194 21.4366 16.295 21.88 14.72C21.912 14.5864 21.9162 14.4476 21.8922 14.3123C21.8682 14.177 21.8166 14.048 21.7406 13.9336C21.6646 13.8191 21.5659 13.7215 21.4505 13.6469C21.3351 13.5723 21.2055 13.5223 21.07 13.5H21.02C20.7866 13.4739 20.5516 13.5307 20.3559 13.6605C20.1603 13.7903 20.0166 13.9848 19.95 14.21C19.5555 15.7131 18.6637 17.0383 17.42 17.97C17.2237 18.111 17.0852 18.3184 17.03 18.5537C16.9749 18.7891 17.0068 19.0364 17.12 19.25C17.1934 19.3619 17.2886 19.4579 17.3999 19.5324C17.5112 19.6068 17.6363 19.6581 17.7678 19.6833C17.8993 19.7085 18.0345 19.707 18.1655 19.679Z" fill="#273637"/>
</svg>
