<?xml version="1.0" encoding="UTF-8"?>
<svg width="24px" height="24px" viewBox="0 0 24 24" version="1.1" xmlns="http://www.w3.org/2000/svg" xmlns:xlink="http://www.w3.org/1999/xlink">
    <title>Icons/Full Set/Recovery/Instant Recovery</title>
    <g id="Icons/Full-Set/Recovery/Instant-Recovery" stroke="none" stroke-width="1" fill="none" fill-rule="evenodd">
        <path d="M19.3402817,5.65387584 C22.9488461,9.25529328 22.8856436,15.0557975 19.1496708,18.5791408 C15.6855694,21.847242 10.0715781,21.7991964 6.6576374,18.4790458 C4.87893716,16.7484036 3.97203079,14.4952656 3.92187004,12.2221085 L2.60063585,12.2161028 C2.10705406,12.2131 1.82515064,11.653569 2.12009586,11.256192 L4.42147112,8.15725133 C4.66324594,7.83194264 5.15281487,7.83394454 5.39158004,8.16225608 L7.67088457,11.2852195 C7.96282014,11.6825966 7.67590064,12.2431285 7.18031242,12.2411266 L5.92629365,12.2341199 C5.98648655,14.1809673 6.8582804,16.1128005 8.56374593,17.4961131 C11.0868317,19.5410536 14.8177884,19.5420546 17.3408741,17.499116 C20.6755609,14.8005553 20.8691814,10.0110104 17.9207324,7.07122078 C15.3625341,4.51779779 11.3908059,4.33762683 8.61892276,6.50968793 C8.22465926,6.81998237 7.66285885,6.77994438 7.31474323,6.41960245 L7.2926725,6.39958345 L7.2926725,6.39958345 C6.88436399,5.97918453 6.92750224,5.29253295 7.38797793,4.93018912 C10.9423687,2.13453628 16.0547525,2.37576518 19.3402817,5.65387584 Z M15.9295513,8.3972791 C16.5374996,8.3972791 17.0330878,8.89074736 17.0330878,9.4983239 L17.0330878,9.4983239 L17.0330878,12.7914488 C17.0330878,13.3980244 16.5374996,13.8914926 15.9295513,13.8914926 L15.9295513,13.8914926 L13.7455522,13.8914926 L13.7455522,14.9124615 L14.9283427,14.9124615 C15.2393393,14.9124615 15.4921495,15.1636999 15.4921495,15.4739943 L15.4921495,15.4739943 L15.4921495,15.5500665 C15.4921495,15.8613619 15.2393393,16.1136012 14.9283427,16.1136012 L14.9283427,16.1136012 L11.3589036,16.1136012 C11.0489102,16.1136012 10.7961,15.8613619 10.7961,15.5500665 L10.7961,15.5500665 L10.7961,15.4739943 C10.7961,15.1636999 11.0489102,14.9124615 11.3589036,14.9124615 L11.3589036,14.9124615 L12.5426973,14.9124615 L12.5426973,13.8914926 L10.3586982,13.8914926 C9.75074995,13.8914926 9.25616494,13.3980244 9.25616494,12.7914488 L9.25616494,12.7914488 L9.25616494,9.4983239 C9.25616494,8.89074736 9.75074995,8.3972791 10.3586982,8.3972791 L10.3586982,8.3972791 Z M15.8292298,9.59741793 L10.4580165,9.59741793 L10.4580165,12.6913538 L15.8292298,12.6913538 L15.8292298,9.59741793 Z" id="Combined-Shape" fill="#273637"></path>
    </g>
</svg>