<?xml version="1.0" encoding="UTF-8"?>
<svg width="24px" height="24px" viewBox="0 0 24 24" version="1.1" xmlns="http://www.w3.org/2000/svg" xmlns:xlink="http://www.w3.org/1999/xlink">
    <title>Icons/Full Set/Recovery/In-place Recovery</title>
    <g id="Icons/Full-Set/Recovery/In-place-Recovery" stroke="none" stroke-width="1" fill="none" fill-rule="evenodd">
        <path d="M14.5002,3 C15.3302,3 16.0002,3.67 16.0002,4.5 L16.0002,4.5 L16.0002,7 L20.5002,7 C21.3302,7 22.0002,7.67 22.0002,8.5 L22.0002,8.5 L22.0002,15.5 C22.0002,16.33 21.3302,17 20.5002,17 L20.5002,17 L16.0002,17 L16.0002,19 L18.0002,19 C18.5522,19 19.0002,19.447 19.0002,20 C19.0002,20.553 18.5522,21 18.0002,21 L18.0002,21 L12.0002,21 C11.4472,21 11.0002,20.553 11.0002,20 C11.0002,19.447 11.4472,19 12.0002,19 L12.0002,19 L14.0002,19 L14.0002,17 L9.5002,17 C8.6702,17 8.0002,16.33 8.0002,15.5 L8.0002,15.5 L8.0002,13 L3.5002,13 C2.6702,13 2.0002,12.33 2.0002,11.5 L2.0002,11.5 L2.0002,4.5 C2.0002,3.67 2.6702,3 3.5002,3 L3.5002,3 Z M4.1912,14.2749 C4.3242,14.1759 4.5122,14.2009 4.6122,14.3339 L4.6122,14.3339 L6.7912,17.2119 L5.3712,17.2119 L5.3662,17.1799 C5.3662,18.3639 6.4302,18.9639 7.2182,18.9639 L7.2182,18.9639 L7.3662,18.9689 L9.4912,18.9689 L9.4912,20.9999 L7.3662,20.9999 C5.1572,20.9999 3.3662,19.4199 3.3652,17.2119 L3.3652,17.2119 L2.0002,17.2119 L4.1322,14.3359 C4.1482,14.3139 4.1692,14.2929 4.1912,14.2749 Z M20.0002,9 L10.0002,9 L10.0002,15 L20.0002,15 L20.0002,9 Z M14.0002,5 L4.0002,5 L4.0002,11 L8.0002,11 L8.0002,8.5 C8.0002,7.67 8.6702,7 9.5002,7 L9.5002,7 L14.0002,7 L14.0002,5 Z" id="Combined-Shape" fill="#273637"></path>
    </g>
</svg>